{
  "header": {
    "keySignatures": [
      {
        "key": "Bb",
        "scale": "major",
        "ticks": 0
      }
    ],
    "meta": [],
    "name": "",
    "ppq": 480,
    "tempos": [
      {
        "bpm": 178.55017259850018,
        "ticks": 0
      },
      {
        "bpm": 160.1298119008476,
        "ticks": 185760
      },
      {
        "bpm": 141.28983490282792,
        "ticks": 186480
      },
      {
        "bpm": 175.5499834690432,
        "ticks": 187200
      },
      {
        "bpm": 103.60994310087291,
        "ticks": 200160
      },
      {
        "bpm": 169.5499578950938,
        "ticks": 201120
      },
      {
        "bpm": 75.35000075350001,
        "ticks": 204240
      },
      {
        "bpm": 131.86987081148322,
        "ticks": 204720
      },
      {
        "bpm": 103.60994310087291,
        "ticks": 206640
      },
      {
        "bpm": 84.76994848812797,
        "ticks": 206880
      },
      {
        "bpm": 103.02993878304471,
        "ticks": 207060
      },
      {
        "bpm": 110.21004197165765,
        "ticks": 207600
      },
      {
        "bpm": 107.38005200773853,
        "ticks": 207840
      },
      {
        "bpm": 99.8500584954926,
        "ticks": 208080
      },
      {
        "bpm": 94.19004411233733,
        "ticks": 208320
      },
      {
        "bpm": 75.35000075350001,
        "ticks": 208800
      },
      {
        "bpm": 65.93000870276114,
        "ticks": 210240
      },
      {
        "bpm": 103.60994310087291,
        "ticks": 211200
      },
      {
        "bpm": 84.76994848812797,
        "ticks": 212160
      },
      {
        "bpm": 75.35000075350001,
        "ticks": 212400
      },
      {
        "bpm": 94.19004411233733,
        "ticks": 212640
      },
      {
        "bpm": 78.17997029161128,
        "ticks": 213360
      },
      {
        "bpm": 37.67000946145071,
        "ticks": 214080
      },
      {
        "bpm": 178.55017259850018,
        "ticks": 214560
      },
      {
        "bpm": 131.86987081148322,
        "ticks": 283680
      },
      {
        "bpm": 141.28983490282792,
        "ticks": 285120
      },
      {
        "bpm": 56.509998973401686,
        "ticks": 286560
      },
      {
        "bpm": 18.829998069925196,
        "ticks": 287760
      },
      {
        "bpm": 174.5500245824618,
        "ticks": 288000
      },
      {
        "bpm": 160.1298119008476,
        "ticks": 316800
      },
      {
        "bpm": 150.70984336223614,
        "ticks": 318240
      },
      {
        "bpm": 141.28983490282792,
        "ticks": 318960
      },
      {
        "bpm": 147.0098202559931,
        "ticks": 319680
      },
      {
        "bpm": 155.53994395377353,
        "ticks": 320400
      },
      {
        "bpm": 163.1299193866315,
        "ticks": 320640
      },
      {
        "bpm": 174.5500245824618,
        "ticks": 321120
      },
      {
        "bpm": 160.1298119008476,
        "ticks": 415440
      },
      {
        "bpm": 150.70984336223614,
        "ticks": 416160
      },
      {
        "bpm": 141.28983490282792,
        "ticks": 416400
      },
      {
        "bpm": 131.86987081148322,
        "ticks": 416640
      },
      {
        "bpm": 122.44997918350354,
        "ticks": 416880
      },
      {
        "bpm": 113.02989829192985,
        "ticks": 417120
      },
      {
        "bpm": 94.19004411233733,
        "ticks": 417360
      },
      {
        "bpm": 65.93000870276114,
        "ticks": 417600
      },
      {
        "bpm": 160,
        "ticks": 419040
      },
      {
        "bpm": 150,
        "ticks": 419280
      },
      {
        "bpm": 140.00014000014,
        "ticks": 419760
      },
      {
        "bpm": 130.00013000013,
        "ticks": 420000
      },
      {
        "bpm": 120,
        "ticks": 420240
      },
      {
        "bpm": 140.00014000014,
        "ticks": 420480
      },
      {
        "bpm": 160,
        "ticks": 420720
      },
      {
        "bpm": 140.00014000014,
        "ticks": 420960
      },
      {
        "bpm": 109.99990833340972,
        "ticks": 421200
      },
      {
        "bpm": 69.99998833333528,
        "ticks": 421440
      },
      {
        "bpm": 60,
        "ticks": 421680
      },
      {
        "bpm": 140.00014000014,
        "ticks": 421920
      },
      {
        "bpm": 154.99990958338608,
        "ticks": 422160
      },
      {
        "bpm": 170.0000850000425,
        "ticks": 422400
      },
      {
        "bpm": 150,
        "ticks": 435360
      },
      {
        "bpm": 140.00014000014,
        "ticks": 435600
      },
      {
        "bpm": 120,
        "ticks": 435840
      },
      {
        "bpm": 100,
        "ticks": 436080
      },
      {
        "bpm": 140.00014000014,
        "ticks": 436320
      },
      {
        "bpm": 160,
        "ticks": 436560
      },
      {
        "bpm": 170.0000850000425,
        "ticks": 436800
      },
      {
        "bpm": 160,
        "ticks": 460080
      },
      {
        "bpm": 130.00013000013,
        "ticks": 460800
      },
      {
        "bpm": 100,
        "ticks": 464400
      },
      {
        "bpm": 120,
        "ticks": 466560
      },
      {
        "bpm": 100,
        "ticks": 467280
      },
      {
        "bpm": 89.9999550000225,
        "ticks": 468000
      },
      {
        "bpm": 180.00018000018,
        "ticks": 469440
      }
    ],
    "timeSignatures": [
      {
        "ticks": 0,
        "timeSignature": [
          3,
          8
        ],
        "measures": 0
      }
    ]
  },
  "tracks": [
    {
      "channel": 0,
      "controlChanges": {},
      "pitchBends": [],
      "instrument": {
        "family": "piano",
        "number": 0,
        "name": "acoustic grand piano"
      },
      "name": "3rd Movement - Allegro",
      "notes": [],
      "endOfTrackTicks": 1440
    },
    {
      "channel": 0,
      "controlChanges": {
        "11": [
          {
            "number": 11,
            "ticks": 84,
            "time": 0.058807,
            "value": 1
          }
        ],
        "64": [
          {
            "number": 64,
            "ticks": 177240,
            "time": 124.08277,
            "value": 1
          },
          {
            "number": 64,
            "ticks": 178440,
            "time": 124.92287,
            "value": 0
          },
          {
            "number": 64,
            "ticks": 178680,
            "time": 125.09089,
            "value": 1
          },
          {
            "number": 64,
            "ticks": 179880,
            "time": 125.93099000000001,
            "value": 0
          },
          {
            "number": 64,
            "ticks": 180120,
            "time": 126.09901,
            "value": 1
          },
          {
            "number": 64,
            "ticks": 181320,
            "time": 126.93911,
            "value": 0
          },
          {
            "number": 64,
            "ticks": 181560,
            "time": 127.10713,
            "value": 1
          },
          {
            "number": 64,
            "ticks": 182760,
            "time": 127.94723,
            "value": 0
          },
          {
            "number": 64,
            "ticks": 183000,
            "time": 128.11525,
            "value": 1
          },
          {
            "number": 64,
            "ticks": 184320,
            "time": 129.03936,
            "value": 0
          },
          {
            "number": 64,
            "ticks": 403320,
            "time": 297.364721375,
            "value": 1
          },
          {
            "number": 64,
            "ticks": 404520,
            "time": 298.224073875,
            "value": 0
          },
          {
            "number": 64,
            "ticks": 404760,
            "time": 298.395944375,
            "value": 1
          },
          {
            "number": 64,
            "ticks": 405960,
            "time": 299.255296875,
            "value": 0
          },
          {
            "number": 64,
            "ticks": 406200,
            "time": 299.427167375,
            "value": 1
          },
          {
            "number": 64,
            "ticks": 407400,
            "time": 300.286519875,
            "value": 0
          },
          {
            "number": 64,
            "ticks": 407640,
            "time": 300.458390375,
            "value": 1
          },
          {
            "number": 64,
            "ticks": 408840,
            "time": 301.317742875,
            "value": 0
          },
          {
            "number": 64,
            "ticks": 557280,
            "time": 413.69904762500005,
            "value": 1
          },
          {
            "number": 64,
            "ticks": 558360,
            "time": 414.4490468750001,
            "value": 0
          },
          {
            "number": 64,
            "ticks": 560400,
            "time": 415.8657121250001,
            "value": 1
          },
          {
            "number": 64,
            "ticks": 561600,
            "time": 416.69904462500006,
            "value": 0
          },
          {
            "number": 64,
            "ticks": 563280,
            "time": 417.8657101250001,
            "value": 1
          },
          {
            "number": 64,
            "ticks": 567120,
            "time": 420.53237412500005,
            "value": 0
          }
        ],
        "91": [
          {
            "number": 91,
            "ticks": 88,
            "time": 0.06160733333333333,
            "value": 0.6220472440944882
          }
        ],
        "93": [
          {
            "number": 93,
            "ticks": 88,
            "time": 0.06160733333333333,
            "value": 0.07874015748031496
          }
        ],
        "121": [
          {
            "number": 121,
            "ticks": 80,
            "time": 0.05600666666666666,
            "value": 0
          }
        ]
      },
      "pitchBends": [
        {
          "ticks": 104,
          "time": 0.07280866666666667,
          "value": 0
        }
      ],
      "instrument": {
        "family": "piano",
        "number": 0,
        "name": "acoustic grand piano"
      },
      "name": "Piano rh",
      "notes": [
        {
          "duration": 0.08120966666666685,
          "durationTicks": 116,
          "midi": 70,
          "name": "A#4",
          "ticks": 1440,
          "time": 1.00812,
          "velocity": 0.3464566929133858
        },
        {
          "duration": 0.16521966666666654,
          "durationTicks": 236,
          "midi": 74,
          "name": "D5",
          "ticks": 1920,
          "time": 1.34416,
          "velocity": 0.3464566929133858
        },
        {
          "duration": 0.0812096666666664,
          "durationTicks": 116,
          "midi": 77,
          "name": "F5",
          "ticks": 2160,
          "time": 1.51218,
          "velocity": 0.3464566929133858
        },
        {
          "duration": 0.16521966666666676,
          "durationTicks": 236,
          "midi": 82,
          "name": "A#5",
          "ticks": 2640,
          "time": 1.84822,
          "velocity": 0.4251968503937008
        },
        {
          "duration": 0.6692796666666667,
          "durationTicks": 956,
          "midi": 77,
          "name": "F5",
          "ticks": 2880,
          "time": 2.01624,
          "velocity": 0.2677165354330709
        },
        {
          "duration": 0.16521966666666676,
          "durationTicks": 236,
          "midi": 74,
          "name": "D5",
          "ticks": 3840,
          "time": 2.68832,
          "velocity": 0.3464566929133858
        },
        {
          "duration": 0.1652196666666672,
          "durationTicks": 236,
          "midi": 70,
          "name": "A#4",
          "ticks": 4080,
          "time": 2.85634,
          "velocity": 0.3464566929133858
        },
        {
          "duration": 0.08120966666666662,
          "durationTicks": 116,
          "midi": 72,
          "name": "C5",
          "ticks": 4320,
          "time": 3.02436,
          "velocity": 0.2677165354330709
        },
        {
          "duration": 0.16521966666666676,
          "durationTicks": 236,
          "midi": 77,
          "name": "F5",
          "ticks": 4800,
          "time": 3.3604000000000003,
          "velocity": 0.3464566929133858
        },
        {
          "duration": 0.08120966666666662,
          "durationTicks": 116,
          "midi": 70,
          "name": "A#4",
          "ticks": 5040,
          "time": 3.52842,
          "velocity": 0.2677165354330709
        },
        {
          "duration": 0.16521966666666632,
          "durationTicks": 236,
          "midi": 77,
          "name": "F5",
          "ticks": 5520,
          "time": 3.8644600000000002,
          "velocity": 0.3464566929133858
        },
        {
          "duration": 0.5012596666666669,
          "durationTicks": 716,
          "midi": 74,
          "name": "D5",
          "ticks": 5760,
          "time": 4.03248,
          "velocity": 0.3464566929133858
        },
        {
          "duration": 0.16521966666666632,
          "durationTicks": 236,
          "midi": 72,
          "name": "C5",
          "ticks": 6480,
          "time": 4.5365400000000005,
          "velocity": 0.30708661417322836
        },
        {
          "duration": 0.08120966666666618,
          "durationTicks": 116,
          "midi": 74,
          "name": "D5",
          "ticks": 7200,
          "time": 5.0406,
          "velocity": 0.36220472440944884
        },
        {
          "duration": 0.1652196666666672,
          "durationTicks": 236,
          "midi": 69,
          "name": "A4",
          "ticks": 7440,
          "time": 5.20862,
          "velocity": 0.2992125984251969
        },
        {
          "duration": 0.08120966666666707,
          "durationTicks": 116,
          "midi": 70,
          "name": "A#4",
          "ticks": 7680,
          "time": 5.37664,
          "velocity": 0.31496062992125984
        },
        {
          "duration": 0.08120966666666618,
          "durationTicks": 116,
          "midi": 75,
          "name": "D#5",
          "ticks": 7920,
          "time": 5.54466,
          "velocity": 0.33070866141732286
        },
        {
          "duration": 0.1652196666666672,
          "durationTicks": 236,
          "midi": 71,
          "name": "B4",
          "ticks": 8160,
          "time": 5.71268,
          "velocity": 0.3464566929133858
        },
        {
          "duration": 0.08120966666666707,
          "durationTicks": 116,
          "midi": 72,
          "name": "C5",
          "ticks": 8400,
          "time": 5.8807,
          "velocity": 0.3700787401574803
        },
        {
          "duration": 0.24922966666666646,
          "durationTicks": 356,
          "midi": 77,
          "name": "F5",
          "ticks": 8640,
          "time": 6.04872,
          "velocity": 0.3858267716535433
        },
        {
          "duration": 0.05320633333333369,
          "durationTicks": 76,
          "midi": 79,
          "name": "G5",
          "ticks": 9120,
          "time": 6.38476,
          "velocity": 0.41732283464566927
        },
        {
          "duration": 0.05320633333333369,
          "durationTicks": 76,
          "midi": 77,
          "name": "F5",
          "ticks": 9180,
          "time": 6.4267650000000005,
          "velocity": 0.4251968503937008
        },
        {
          "duration": 0.05320633333333369,
          "durationTicks": 76,
          "midi": 76,
          "name": "E5",
          "ticks": 9240,
          "time": 6.46877,
          "velocity": 0.4251968503937008
        },
        {
          "duration": 0.05320633333333458,
          "durationTicks": 76,
          "midi": 77,
          "name": "F5",
          "ticks": 9300,
          "time": 6.510775,
          "velocity": 0.4330708661417323
        },
        {
          "duration": 0.22122633333333397,
          "durationTicks": 316,
          "midi": 82,
          "name": "A#5",
          "ticks": 9360,
          "time": 6.55278,
          "velocity": 0.36220472440944884
        },
        {
          "duration": 0.05320633333333369,
          "durationTicks": 76,
          "midi": 74,
          "name": "D5",
          "ticks": 10080,
          "time": 7.05684,
          "velocity": 0.4251968503937008
        },
        {
          "duration": 0.05320633333333369,
          "durationTicks": 76,
          "midi": 77,
          "name": "F5",
          "ticks": 10320,
          "time": 7.2248600000000005,
          "velocity": 0.3464566929133858
        },
        {
          "duration": 0.05320633333333369,
          "durationTicks": 76,
          "midi": 70,
          "name": "A#4",
          "ticks": 10560,
          "time": 7.39288,
          "velocity": 0.3464566929133858
        },
        {
          "duration": 0.05320633333333369,
          "durationTicks": 76,
          "midi": 75,
          "name": "D#5",
          "ticks": 10800,
          "time": 7.5609,
          "velocity": 0.31496062992125984
        },
        {
          "duration": 0.16521966666666632,
          "durationTicks": 236,
          "midi": 69,
          "name": "A4",
          "ticks": 11280,
          "time": 7.89694,
          "velocity": 0.3464566929133858
        },
        {
          "duration": 0.5012596666666678,
          "durationTicks": 716,
          "midi": 72,
          "name": "C5",
          "ticks": 11520,
          "time": 8.06496,
          "velocity": 0.3464566929133858
        },
        {
          "duration": 0.1652196666666672,
          "durationTicks": 236,
          "midi": 70,
          "name": "A#4",
          "ticks": 12240,
          "time": 8.56902,
          "velocity": 0.2677165354330709
        },
        {
          "duration": 0.10921300000000045,
          "durationTicks": 156,
          "midi": 81,
          "name": "A5",
          "ticks": 24480,
          "time": 17.13804,
          "velocity": 0.3464566929133858
        },
        {
          "duration": 0.08120966666666618,
          "durationTicks": 116,
          "midi": 81,
          "name": "A5",
          "ticks": 24960,
          "time": 17.47408,
          "velocity": 0.3937007874015748
        },
        {
          "duration": 0.08120966666666618,
          "durationTicks": 116,
          "midi": 81,
          "name": "A5",
          "ticks": 25200,
          "time": 17.6421,
          "velocity": 0.4251968503937008
        },
        {
          "duration": 0.08120966666666618,
          "durationTicks": 116,
          "midi": 81,
          "name": "A5",
          "ticks": 25680,
          "time": 17.97814,
          "velocity": 0.47244094488188976
        },
        {
          "duration": 0.08120966666666618,
          "durationTicks": 116,
          "midi": 84,
          "name": "C6",
          "ticks": 25920,
          "time": 18.146160000000002,
          "velocity": 0.5039370078740157
        },
        {
          "duration": 0.5852696666666652,
          "durationTicks": 836,
          "midi": 82,
          "name": "A#5",
          "ticks": 26040,
          "time": 18.23017,
          "velocity": 0.4409448818897638
        },
        {
          "duration": 0.16521966666666899,
          "durationTicks": 236,
          "midi": 81,
          "name": "A5",
          "ticks": 26880,
          "time": 18.81824,
          "velocity": 0.4251968503937008
        },
        {
          "duration": 0.16521966666666543,
          "durationTicks": 236,
          "midi": 79,
          "name": "G5",
          "ticks": 27120,
          "time": 18.98626,
          "velocity": 0.3464566929133858
        },
        {
          "duration": 0.05320633333333191,
          "durationTicks": 76,
          "midi": 77,
          "name": "F5",
          "ticks": 27360,
          "time": 19.15428,
          "velocity": 0.3464566929133858
        },
        {
          "duration": 0.05320633333333191,
          "durationTicks": 76,
          "midi": 78,
          "name": "F#5",
          "ticks": 27600,
          "time": 19.322300000000002,
          "velocity": 0.3543307086614173
        },
        {
          "duration": 0.05320633333333191,
          "durationTicks": 76,
          "midi": 79,
          "name": "G5",
          "ticks": 27840,
          "time": 19.49032,
          "velocity": 0.3700787401574803
        },
        {
          "duration": 0.053206333333335465,
          "durationTicks": 76,
          "midi": 72,
          "name": "C5",
          "ticks": 28080,
          "time": 19.65834,
          "velocity": 0.3858267716535433
        },
        {
          "duration": 0.05320633333333191,
          "durationTicks": 76,
          "midi": 77,
          "name": "F5",
          "ticks": 28320,
          "time": 19.82636,
          "velocity": 0.36220472440944884
        },
        {
          "duration": 0.05320633333333191,
          "durationTicks": 76,
          "midi": 72,
          "name": "C5",
          "ticks": 28560,
          "time": 19.99438,
          "velocity": 0.33858267716535434
        },
        {
          "duration": 0.5292630000000003,
          "durationTicks": 756,
          "midi": 75,
          "name": "D#5",
          "ticks": 28800,
          "time": 20.1624,
          "velocity": 0.3937007874015748
        },
        {
          "duration": 0.1932229999999997,
          "durationTicks": 276,
          "midi": 74,
          "name": "D5",
          "ticks": 29520,
          "time": 20.66646,
          "velocity": 0.30708661417322836
        },
        {
          "duration": 0.08120966666666618,
          "durationTicks": 116,
          "midi": 81,
          "name": "A5",
          "ticks": 30240,
          "time": 21.17052,
          "velocity": 0.3779527559055118
        },
        {
          "duration": 0.08120966666666618,
          "durationTicks": 116,
          "midi": 81,
          "name": "A5",
          "ticks": 30720,
          "time": 21.50656,
          "velocity": 0.44881889763779526
        },
        {
          "duration": 0.08120966666666618,
          "durationTicks": 116,
          "midi": 81,
          "name": "A5",
          "ticks": 30960,
          "time": 21.67458,
          "velocity": 0.4881889763779528
        },
        {
          "duration": 0.08120966666666618,
          "durationTicks": 116,
          "midi": 81,
          "name": "A5",
          "ticks": 31440,
          "time": 22.01062,
          "velocity": 0.5748031496062992
        },
        {
          "duration": 0.0644076666666642,
          "durationTicks": 92,
          "midi": 84,
          "name": "C6",
          "ticks": 31680,
          "time": 22.17864,
          "velocity": 0.5433070866141733
        },
        {
          "duration": 0.5852696666666652,
          "durationTicks": 836,
          "midi": 82,
          "name": "A#5",
          "ticks": 31776,
          "time": 22.245848000000002,
          "velocity": 0.5511811023622047
        },
        {
          "duration": 0.053206333333335465,
          "durationTicks": 76,
          "midi": 84,
          "name": "C6",
          "ticks": 32640,
          "time": 22.85072,
          "velocity": 0.5039370078740157
        },
        {
          "duration": 0.05320633333333191,
          "durationTicks": 76,
          "midi": 86,
          "name": "D6",
          "ticks": 32880,
          "time": 23.01874,
          "velocity": 0.4251968503937008
        },
        {
          "duration": 0.08120966666666618,
          "durationTicks": 116,
          "midi": 74,
          "name": "D5",
          "ticks": 33120,
          "time": 23.18676,
          "velocity": 0.4251968503937008
        },
        {
          "duration": 0.16521966666666543,
          "durationTicks": 236,
          "midi": 74,
          "name": "D5",
          "ticks": 33600,
          "time": 23.5228,
          "velocity": 0.3464566929133858
        },
        {
          "duration": 0.389246333333336,
          "durationTicks": 556,
          "midi": 82,
          "name": "A#5",
          "ticks": 33840,
          "time": 23.69082,
          "velocity": 0.3464566929133858
        },
        {
          "duration": 0.16521966666666543,
          "durationTicks": 236,
          "midi": 76,
          "name": "E5",
          "ticks": 34320,
          "time": 24.02686,
          "velocity": 0.3464566929133858
        },
        {
          "duration": 0.08120966666666263,
          "durationTicks": 116,
          "midi": 77,
          "name": "F5",
          "ticks": 34560,
          "time": 24.19488,
          "velocity": 0.3464566929133858
        },
        {
          "duration": 0.05320633333333191,
          "durationTicks": 76,
          "midi": 79,
          "name": "G5",
          "ticks": 34800,
          "time": 24.3629,
          "velocity": 0.3779527559055118
        },
        {
          "duration": 0.05320633333333191,
          "durationTicks": 76,
          "midi": 81,
          "name": "A5",
          "ticks": 35040,
          "time": 24.530920000000002,
          "velocity": 0.4094488188976378
        },
        {
          "duration": 0.05320633333333191,
          "durationTicks": 76,
          "midi": 82,
          "name": "A#5",
          "ticks": 35280,
          "time": 24.69894,
          "velocity": 0.44881889763779526
        },
        {
          "duration": 0.053206333333335465,
          "durationTicks": 76,
          "midi": 83,
          "name": "B5",
          "ticks": 35520,
          "time": 24.86696,
          "velocity": 0.48031496062992124
        },
        {
          "duration": 0.05320633333333191,
          "durationTicks": 76,
          "midi": 84,
          "name": "C6",
          "ticks": 35760,
          "time": 25.03498,
          "velocity": 0.5196850393700787
        },
        {
          "duration": 0.05320633333333191,
          "durationTicks": 76,
          "midi": 84,
          "name": "C6",
          "ticks": 35760,
          "time": 25.03498,
          "velocity": 0.4409448818897638
        },
        {
          "duration": 0.08120966666666618,
          "durationTicks": 116,
          "midi": 74,
          "name": "D5",
          "ticks": 36000,
          "time": 25.203,
          "velocity": 0.3464566929133858
        },
        {
          "duration": 0.16521966666666543,
          "durationTicks": 236,
          "midi": 74,
          "name": "D5",
          "ticks": 36480,
          "time": 25.53904,
          "velocity": 0.3464566929133858
        },
        {
          "duration": 0.3892463333333325,
          "durationTicks": 556,
          "midi": 82,
          "name": "A#5",
          "ticks": 36720,
          "time": 25.707060000000002,
          "velocity": 0.3464566929133858
        },
        {
          "duration": 0.08120966666666618,
          "durationTicks": 116,
          "midi": 76,
          "name": "E5",
          "ticks": 37200,
          "time": 26.0431,
          "velocity": 0.3464566929133858
        },
        {
          "duration": 0.08120966666666263,
          "durationTicks": 116,
          "midi": 77,
          "name": "F5",
          "ticks": 37440,
          "time": 26.21112,
          "velocity": 0.29133858267716534
        },
        {
          "duration": 0.08120966666666618,
          "durationTicks": 116,
          "midi": 78,
          "name": "F#5",
          "ticks": 37560,
          "time": 26.29513,
          "velocity": 0.31496062992125984
        },
        {
          "duration": 0.08120966666666618,
          "durationTicks": 116,
          "midi": 79,
          "name": "G5",
          "ticks": 37680,
          "time": 26.37914,
          "velocity": 0.3464566929133858
        },
        {
          "duration": 0.08120966666666618,
          "durationTicks": 116,
          "midi": 80,
          "name": "G#5",
          "ticks": 37800,
          "time": 26.46315,
          "velocity": 0.3700787401574803
        },
        {
          "duration": 0.08120966666666263,
          "durationTicks": 116,
          "midi": 81,
          "name": "A5",
          "ticks": 37920,
          "time": 26.54716,
          "velocity": 0.4015748031496063
        },
        {
          "duration": 0.08120966666666263,
          "durationTicks": 116,
          "midi": 82,
          "name": "A#5",
          "ticks": 38040,
          "time": 26.63117,
          "velocity": 0.4251968503937008
        },
        {
          "duration": 0.08120966666666618,
          "durationTicks": 116,
          "midi": 83,
          "name": "B5",
          "ticks": 38160,
          "time": 26.71518,
          "velocity": 0.47244094488188976
        },
        {
          "duration": 0.08120966666666618,
          "durationTicks": 116,
          "midi": 84,
          "name": "C6",
          "ticks": 38280,
          "time": 26.79919,
          "velocity": 0.5118110236220472
        },
        {
          "duration": 0.08120966666666263,
          "durationTicks": 116,
          "midi": 85,
          "name": "C#6",
          "ticks": 38400,
          "time": 26.883200000000002,
          "velocity": 0.5748031496062992
        },
        {
          "duration": 0.08120966666666263,
          "durationTicks": 116,
          "midi": 86,
          "name": "D6",
          "ticks": 38520,
          "time": 26.96721,
          "velocity": 0.5275590551181102
        },
        {
          "duration": 0.08120966666666263,
          "durationTicks": 116,
          "midi": 88,
          "name": "E6",
          "ticks": 38640,
          "time": 27.05122,
          "velocity": 0.5354330708661418
        },
        {
          "duration": 0.08120966666666618,
          "durationTicks": 116,
          "midi": 86,
          "name": "D6",
          "ticks": 38760,
          "time": 27.13523,
          "velocity": 0.4251968503937008
        },
        {
          "duration": 0.08120966666666618,
          "durationTicks": 116,
          "midi": 74,
          "name": "D5",
          "ticks": 38880,
          "time": 27.21924,
          "velocity": 0.4251968503937008
        },
        {
          "duration": 0.16521966666666543,
          "durationTicks": 236,
          "midi": 74,
          "name": "D5",
          "ticks": 39360,
          "time": 27.55528,
          "velocity": 0.3464566929133858
        },
        {
          "duration": 0.3892463333333325,
          "durationTicks": 556,
          "midi": 82,
          "name": "A#5",
          "ticks": 39600,
          "time": 27.723300000000002,
          "velocity": 0.3464566929133858
        },
        {
          "duration": 0.16521966666666543,
          "durationTicks": 236,
          "midi": 76,
          "name": "E5",
          "ticks": 40080,
          "time": 28.05934,
          "velocity": 0.4094488188976378
        },
        {
          "duration": 0.6692796666666645,
          "durationTicks": 956,
          "midi": 77,
          "name": "F5",
          "ticks": 40320,
          "time": 28.22736,
          "velocity": 0.4645669291338583
        },
        {
          "duration": 0.16521966666666188,
          "durationTicks": 236,
          "midi": 79,
          "name": "G5",
          "ticks": 41280,
          "time": 28.899440000000002,
          "velocity": 0.41732283464566927
        },
        {
          "duration": 0.16521966666666543,
          "durationTicks": 236,
          "midi": 76,
          "name": "E5",
          "ticks": 41520,
          "time": 29.06746,
          "velocity": 0.4409448818897638
        },
        {
          "duration": 0.16521966666666543,
          "durationTicks": 236,
          "midi": 77,
          "name": "F5",
          "ticks": 41760,
          "time": 29.23548,
          "velocity": 0.44881889763779526
        },
        {
          "duration": 0.16521966666666543,
          "durationTicks": 236,
          "midi": 81,
          "name": "A5",
          "ticks": 42000,
          "time": 29.4035,
          "velocity": 0.4645669291338583
        },
        {
          "duration": 0.16521966666666543,
          "durationTicks": 236,
          "midi": 76,
          "name": "E5",
          "ticks": 42240,
          "time": 29.57152,
          "velocity": 0.47244094488188976
        },
        {
          "duration": 0.16521966666666188,
          "durationTicks": 236,
          "midi": 77,
          "name": "F5",
          "ticks": 42480,
          "time": 29.73954,
          "velocity": 0.4881889763779528
        },
        {
          "duration": 0.16521966666666543,
          "durationTicks": 236,
          "midi": 84,
          "name": "C6",
          "ticks": 42720,
          "time": 29.90756,
          "velocity": 0.47244094488188976
        },
        {
          "duration": 0.08120966666666263,
          "durationTicks": 116,
          "midi": 76,
          "name": "E5",
          "ticks": 42960,
          "time": 30.075580000000002,
          "velocity": 0.49606299212598426
        },
        {
          "duration": 0.6692796666666645,
          "durationTicks": 956,
          "midi": 77,
          "name": "F5",
          "ticks": 43200,
          "time": 30.2436,
          "velocity": 0.3779527559055118
        },
        {
          "duration": 0.16521966666666188,
          "durationTicks": 236,
          "midi": 79,
          "name": "G5",
          "ticks": 44160,
          "time": 30.915680000000002,
          "velocity": 0.3779527559055118
        },
        {
          "duration": 0.16521966666666543,
          "durationTicks": 236,
          "midi": 73,
          "name": "C#5",
          "ticks": 44400,
          "time": 31.0837,
          "velocity": 0.4015748031496063
        },
        {
          "duration": 0.16521966666666543,
          "durationTicks": 236,
          "midi": 74,
          "name": "D5",
          "ticks": 44640,
          "time": 31.25172,
          "velocity": 0.44881889763779526
        },
        {
          "duration": 0.16521966666666543,
          "durationTicks": 236,
          "midi": 77,
          "name": "F5",
          "ticks": 44880,
          "time": 31.41974,
          "velocity": 0.5039370078740157
        },
        {
          "duration": 0.16521966666666543,
          "durationTicks": 236,
          "midi": 71,
          "name": "B4",
          "ticks": 45120,
          "time": 31.58776,
          "velocity": 0.5275590551181102
        },
        {
          "duration": 0.16521966666666188,
          "durationTicks": 236,
          "midi": 72,
          "name": "C5",
          "ticks": 45360,
          "time": 31.75578,
          "velocity": 0.49606299212598426
        },
        {
          "duration": 0.16521966666666543,
          "durationTicks": 236,
          "midi": 75,
          "name": "D#5",
          "ticks": 45600,
          "time": 31.9238,
          "velocity": 0.4409448818897638
        },
        {
          "duration": 0.16521966666666543,
          "durationTicks": 236,
          "midi": 69,
          "name": "A4",
          "ticks": 45840,
          "time": 32.09182,
          "velocity": 0.3779527559055118
        },
        {
          "duration": 0.08120966666666618,
          "durationTicks": 116,
          "midi": 70,
          "name": "A#4",
          "ticks": 46080,
          "time": 32.25984,
          "velocity": 0.3464566929133858
        },
        {
          "duration": 0.16521966666666543,
          "durationTicks": 236,
          "midi": 74,
          "name": "D5",
          "ticks": 46560,
          "time": 32.59588,
          "velocity": 0.3464566929133858
        },
        {
          "duration": 0.08120966666666618,
          "durationTicks": 116,
          "midi": 77,
          "name": "F5",
          "ticks": 46800,
          "time": 32.7639,
          "velocity": 0.3464566929133858
        },
        {
          "duration": 0.16521966666665833,
          "durationTicks": 236,
          "midi": 82,
          "name": "A#5",
          "ticks": 47280,
          "time": 33.099940000000004,
          "velocity": 0.4251968503937008
        },
        {
          "duration": 0.6692796666666609,
          "durationTicks": 956,
          "midi": 77,
          "name": "F5",
          "ticks": 47520,
          "time": 33.26796,
          "velocity": 0.2677165354330709
        },
        {
          "duration": 0.16521966666665833,
          "durationTicks": 236,
          "midi": 74,
          "name": "D5",
          "ticks": 48480,
          "time": 33.94004,
          "velocity": 0.3464566929133858
        },
        {
          "duration": 0.16521966666666543,
          "durationTicks": 236,
          "midi": 70,
          "name": "A#4",
          "ticks": 48720,
          "time": 34.10806,
          "velocity": 0.3464566929133858
        },
        {
          "duration": 0.08120966666666618,
          "durationTicks": 116,
          "midi": 72,
          "name": "C5",
          "ticks": 48960,
          "time": 34.27608,
          "velocity": 0.2677165354330709
        },
        {
          "duration": 0.16521966666666543,
          "durationTicks": 236,
          "midi": 77,
          "name": "F5",
          "ticks": 49440,
          "time": 34.61212,
          "velocity": 0.3464566929133858
        },
        {
          "duration": 0.08120966666665907,
          "durationTicks": 116,
          "midi": 70,
          "name": "A#4",
          "ticks": 49680,
          "time": 34.78014,
          "velocity": 0.2677165354330709
        },
        {
          "duration": 0.16521966666666543,
          "durationTicks": 236,
          "midi": 77,
          "name": "F5",
          "ticks": 50160,
          "time": 35.11618,
          "velocity": 0.3464566929133858
        },
        {
          "duration": 0.5292630000000003,
          "durationTicks": 756,
          "midi": 74,
          "name": "D5",
          "ticks": 50400,
          "time": 35.2842,
          "velocity": 0.3464566929133858
        },
        {
          "duration": 0.16521966666666543,
          "durationTicks": 236,
          "midi": 72,
          "name": "C5",
          "ticks": 51120,
          "time": 35.78826,
          "velocity": 0.30708661417322836
        },
        {
          "duration": 0.08120966666665907,
          "durationTicks": 116,
          "midi": 74,
          "name": "D5",
          "ticks": 51840,
          "time": 36.292320000000004,
          "velocity": 0.28346456692913385
        },
        {
          "duration": 0.16521966666666543,
          "durationTicks": 236,
          "midi": 69,
          "name": "A4",
          "ticks": 52080,
          "time": 36.46034,
          "velocity": 0.2440944881889764
        },
        {
          "duration": 0.08120966666666618,
          "durationTicks": 116,
          "midi": 70,
          "name": "A#4",
          "ticks": 52320,
          "time": 36.62836,
          "velocity": 0.2755905511811024
        },
        {
          "duration": 0.08120966666666618,
          "durationTicks": 116,
          "midi": 75,
          "name": "D#5",
          "ticks": 52560,
          "time": 36.79638,
          "velocity": 0.31496062992125984
        },
        {
          "duration": 0.16521966666666543,
          "durationTicks": 236,
          "midi": 71,
          "name": "B4",
          "ticks": 52800,
          "time": 36.9644,
          "velocity": 0.3464566929133858
        },
        {
          "duration": 0.08120966666665907,
          "durationTicks": 116,
          "midi": 72,
          "name": "C5",
          "ticks": 53040,
          "time": 37.13242,
          "velocity": 0.3937007874015748
        },
        {
          "duration": 0.24922966666666468,
          "durationTicks": 356,
          "midi": 77,
          "name": "F5",
          "ticks": 53280,
          "time": 37.30044,
          "velocity": 0.4251968503937008
        },
        {
          "duration": 0.053206333333335465,
          "durationTicks": 76,
          "midi": 79,
          "name": "G5",
          "ticks": 53760,
          "time": 37.63648,
          "velocity": 0.47244094488188976
        },
        {
          "duration": 0.05320633333332836,
          "durationTicks": 76,
          "midi": 77,
          "name": "F5",
          "ticks": 53820,
          "time": 37.678485,
          "velocity": 0.48031496062992124
        },
        {
          "duration": 0.053206333333335465,
          "durationTicks": 76,
          "midi": 76,
          "name": "E5",
          "ticks": 53880,
          "time": 37.72049,
          "velocity": 0.4645669291338583
        },
        {
          "duration": 0.053206333333335465,
          "durationTicks": 76,
          "midi": 77,
          "name": "F5",
          "ticks": 53940,
          "time": 37.762495,
          "velocity": 0.44881889763779526
        },
        {
          "duration": 0.22122633333333397,
          "durationTicks": 316,
          "midi": 82,
          "name": "A#5",
          "ticks": 54000,
          "time": 37.8045,
          "velocity": 0.3937007874015748
        },
        {
          "duration": 0.053206333333335465,
          "durationTicks": 76,
          "midi": 74,
          "name": "D5",
          "ticks": 54720,
          "time": 38.30856,
          "velocity": 0.4251968503937008
        },
        {
          "duration": 0.053206333333335465,
          "durationTicks": 76,
          "midi": 77,
          "name": "F5",
          "ticks": 54960,
          "time": 38.47658,
          "velocity": 0.3464566929133858
        },
        {
          "duration": 0.05320633333332836,
          "durationTicks": 76,
          "midi": 70,
          "name": "A#4",
          "ticks": 55200,
          "time": 38.644600000000004,
          "velocity": 0.3464566929133858
        },
        {
          "duration": 0.05320633333332836,
          "durationTicks": 76,
          "midi": 75,
          "name": "D#5",
          "ticks": 55440,
          "time": 38.81262,
          "velocity": 0.31496062992125984
        },
        {
          "duration": 0.16521966666666543,
          "durationTicks": 236,
          "midi": 69,
          "name": "A4",
          "ticks": 55920,
          "time": 39.14866,
          "velocity": 0.3464566929133858
        },
        {
          "duration": 0.5292630000000003,
          "durationTicks": 756,
          "midi": 72,
          "name": "C5",
          "ticks": 56160,
          "time": 39.31668,
          "velocity": 0.3464566929133858
        },
        {
          "duration": 0.16521966666666543,
          "durationTicks": 236,
          "midi": 70,
          "name": "A#4",
          "ticks": 56880,
          "time": 39.82074,
          "velocity": 0.2677165354330709
        },
        {
          "duration": 0.4172496666666774,
          "durationTicks": 596,
          "midi": 70,
          "name": "A#4",
          "ticks": 93600,
          "time": 65.5278,
          "velocity": 0.4251968503937008
        },
        {
          "duration": 0.039204666666663,
          "durationTicks": 56,
          "midi": 74,
          "name": "D5",
          "ticks": 94260,
          "time": 65.989855,
          "velocity": 0.3464566929133858
        },
        {
          "duration": 0.08120966666668039,
          "durationTicks": 116,
          "midi": 72,
          "name": "C5",
          "ticks": 94320,
          "time": 66.03186,
          "velocity": 0.3464566929133858
        },
        {
          "duration": 0.039204666666663,
          "durationTicks": 56,
          "midi": 70,
          "name": "A#4",
          "ticks": 94560,
          "time": 66.19988000000001,
          "velocity": 0.3464566929133858
        },
        {
          "duration": 0.039204666666663,
          "durationTicks": 56,
          "midi": 72,
          "name": "C5",
          "ticks": 94800,
          "time": 66.3679,
          "velocity": 0.3464566929133858
        },
        {
          "duration": 0.33323966666667104,
          "durationTicks": 476,
          "midi": 74,
          "name": "D5",
          "ticks": 95040,
          "time": 66.53592,
          "velocity": 0.4251968503937008
        },
        {
          "duration": 0.039204666666663,
          "durationTicks": 56,
          "midi": 70,
          "name": "A#4",
          "ticks": 95520,
          "time": 66.87196,
          "velocity": 0.3464566929133858
        },
        {
          "duration": 0.33323966666667104,
          "durationTicks": 476,
          "midi": 75,
          "name": "D#5",
          "ticks": 95760,
          "time": 67.03998,
          "velocity": 0.4251968503937008
        },
        {
          "duration": 0.03920466666667721,
          "durationTicks": 56,
          "midi": 74,
          "name": "D5",
          "ticks": 96240,
          "time": 67.37602,
          "velocity": 0.3464566929133858
        },
        {
          "duration": 0.08120966666666618,
          "durationTicks": 116,
          "midi": 74,
          "name": "D5",
          "ticks": 96420,
          "time": 67.502035,
          "velocity": 0.4251968503937008
        },
        {
          "duration": 0.03920466666667721,
          "durationTicks": 56,
          "midi": 72,
          "name": "C5",
          "ticks": 96480,
          "time": 67.54404,
          "velocity": 0.3464566929133858
        },
        {
          "duration": 0.039204666666663,
          "durationTicks": 56,
          "midi": 71,
          "name": "B4",
          "ticks": 96720,
          "time": 67.71206000000001,
          "velocity": 0.33858267716535434
        },
        {
          "duration": 0.039204666666663,
          "durationTicks": 56,
          "midi": 72,
          "name": "C5",
          "ticks": 96960,
          "time": 67.88008,
          "velocity": 0.33070866141732286
        },
        {
          "duration": 0.16521966666665833,
          "durationTicks": 236,
          "midi": 67,
          "name": "G4",
          "ticks": 97200,
          "time": 68.0481,
          "velocity": 0.3228346456692913
        },
        {
          "duration": 0.16521966666667254,
          "durationTicks": 236,
          "midi": 72,
          "name": "C5",
          "ticks": 97440,
          "time": 68.21612,
          "velocity": 0.31496062992125984
        },
        {
          "duration": 0.039204666666663,
          "durationTicks": 56,
          "midi": 70,
          "name": "A#4",
          "ticks": 97680,
          "time": 68.38414,
          "velocity": 0.30708661417322836
        },
        {
          "duration": 0.08120966666666618,
          "durationTicks": 116,
          "midi": 70,
          "name": "A#4",
          "ticks": 97920,
          "time": 68.55216,
          "velocity": 0.3464566929133858
        },
        {
          "duration": 0.08120966666666618,
          "durationTicks": 116,
          "midi": 69,
          "name": "A4",
          "ticks": 98040,
          "time": 68.63617,
          "velocity": 0.3858267716535433
        },
        {
          "duration": 0.08120966666666618,
          "durationTicks": 116,
          "midi": 67,
          "name": "G4",
          "ticks": 98160,
          "time": 68.72018,
          "velocity": 0.4251968503937008
        },
        {
          "duration": 0.08120966666666618,
          "durationTicks": 116,
          "midi": 65,
          "name": "F4",
          "ticks": 98280,
          "time": 68.80419,
          "velocity": 0.4645669291338583
        },
        {
          "duration": 0.08120966666666618,
          "durationTicks": 116,
          "midi": 64,
          "name": "E4",
          "ticks": 98400,
          "time": 68.8882,
          "velocity": 0.3937007874015748
        },
        {
          "duration": 0.08120966666666618,
          "durationTicks": 116,
          "midi": 65,
          "name": "F4",
          "ticks": 98520,
          "time": 68.97221,
          "velocity": 0.3700787401574803
        },
        {
          "duration": 0.08120966666668039,
          "durationTicks": 116,
          "midi": 64,
          "name": "E4",
          "ticks": 98640,
          "time": 69.05622,
          "velocity": 0.3464566929133858
        },
        {
          "duration": 0.08120966666666618,
          "durationTicks": 116,
          "midi": 65,
          "name": "F4",
          "ticks": 98760,
          "time": 69.14023,
          "velocity": 0.4015748031496063
        },
        {
          "duration": 0.08120966666668039,
          "durationTicks": 116,
          "midi": 66,
          "name": "F#4",
          "ticks": 98880,
          "time": 69.22424,
          "velocity": 0.3700787401574803
        },
        {
          "duration": 0.08120966666666618,
          "durationTicks": 116,
          "midi": 67,
          "name": "G4",
          "ticks": 99000,
          "time": 69.30825,
          "velocity": 0.3858267716535433
        },
        {
          "duration": 0.08120966666666618,
          "durationTicks": 116,
          "midi": 68,
          "name": "G#4",
          "ticks": 99120,
          "time": 69.39226000000001,
          "velocity": 0.4015748031496063
        },
        {
          "duration": 0.08120966666666618,
          "durationTicks": 116,
          "midi": 69,
          "name": "A4",
          "ticks": 99240,
          "time": 69.47627,
          "velocity": 0.41732283464566927
        },
        {
          "duration": 0.16521966666665833,
          "durationTicks": 236,
          "midi": 70,
          "name": "A#4",
          "ticks": 99360,
          "time": 69.56028,
          "velocity": 0.4409448818897638
        },
        {
          "duration": 0.33323966666667104,
          "durationTicks": 476,
          "midi": 82,
          "name": "A#5",
          "ticks": 99480,
          "time": 69.64429,
          "velocity": 0.5196850393700787
        },
        {
          "duration": 0.03920466666667721,
          "durationTicks": 56,
          "midi": 86,
          "name": "D6",
          "ticks": 100020,
          "time": 70.022335,
          "velocity": 0.3464566929133858
        },
        {
          "duration": 0.039204666666663,
          "durationTicks": 56,
          "midi": 84,
          "name": "C6",
          "ticks": 100080,
          "time": 70.06434,
          "velocity": 0.4251968503937008
        },
        {
          "duration": 0.03920466666667721,
          "durationTicks": 56,
          "midi": 82,
          "name": "A#5",
          "ticks": 100320,
          "time": 70.23236,
          "velocity": 0.3779527559055118
        },
        {
          "duration": 0.03920466666667721,
          "durationTicks": 56,
          "midi": 84,
          "name": "C6",
          "ticks": 100560,
          "time": 70.40038,
          "velocity": 0.4015748031496063
        },
        {
          "duration": 0.33323966666667104,
          "durationTicks": 476,
          "midi": 86,
          "name": "D6",
          "ticks": 100800,
          "time": 70.5684,
          "velocity": 0.4330708661417323
        },
        {
          "duration": 0.039204666666663,
          "durationTicks": 56,
          "midi": 82,
          "name": "A#5",
          "ticks": 101280,
          "time": 70.90444000000001,
          "velocity": 0.3464566929133858
        },
        {
          "duration": 0.33323966666665683,
          "durationTicks": 476,
          "midi": 87,
          "name": "D#6",
          "ticks": 101520,
          "time": 71.07246,
          "velocity": 0.5039370078740157
        },
        {
          "duration": 0.039204666666663,
          "durationTicks": 56,
          "midi": 86,
          "name": "D6",
          "ticks": 102000,
          "time": 71.4085,
          "velocity": 0.3464566929133858
        },
        {
          "duration": 0.03920466666667721,
          "durationTicks": 56,
          "midi": 86,
          "name": "D6",
          "ticks": 102180,
          "time": 71.534515,
          "velocity": 0.41732283464566927
        },
        {
          "duration": 0.039204666666663,
          "durationTicks": 56,
          "midi": 84,
          "name": "C6",
          "ticks": 102240,
          "time": 71.57652,
          "velocity": 0.41732283464566927
        },
        {
          "duration": 0.039204666666663,
          "durationTicks": 56,
          "midi": 83,
          "name": "B5",
          "ticks": 102480,
          "time": 71.74454,
          "velocity": 0.4015748031496063
        },
        {
          "duration": 0.03920466666667721,
          "durationTicks": 56,
          "midi": 84,
          "name": "C6",
          "ticks": 102720,
          "time": 71.91256,
          "velocity": 0.3858267716535433
        },
        {
          "duration": 0.16521966666667254,
          "durationTicks": 236,
          "midi": 79,
          "name": "G5",
          "ticks": 102960,
          "time": 72.08058,
          "velocity": 0.3700787401574803
        },
        {
          "duration": 0.16521966666667254,
          "durationTicks": 236,
          "midi": 84,
          "name": "C6",
          "ticks": 103200,
          "time": 72.2486,
          "velocity": 0.3543307086614173
        },
        {
          "duration": 0.1092129999999969,
          "durationTicks": 156,
          "midi": 82,
          "name": "A#5",
          "ticks": 103440,
          "time": 72.41662,
          "velocity": 0.33858267716535434
        },
        {
          "duration": 0.08120966666666618,
          "durationTicks": 116,
          "midi": 82,
          "name": "A#5",
          "ticks": 103680,
          "time": 72.58464000000001,
          "velocity": 0.4330708661417323
        },
        {
          "duration": 0.08120966666666618,
          "durationTicks": 116,
          "midi": 81,
          "name": "A5",
          "ticks": 103800,
          "time": 72.66865,
          "velocity": 0.41732283464566927
        },
        {
          "duration": 0.08120966666666618,
          "durationTicks": 116,
          "midi": 79,
          "name": "G5",
          "ticks": 103920,
          "time": 72.75266,
          "velocity": 0.4015748031496063
        },
        {
          "duration": 0.08120966666666618,
          "durationTicks": 116,
          "midi": 77,
          "name": "F5",
          "ticks": 104040,
          "time": 72.83667,
          "velocity": 0.3858267716535433
        },
        {
          "duration": 0.08120966666666618,
          "durationTicks": 116,
          "midi": 76,
          "name": "E5",
          "ticks": 104160,
          "time": 72.92068,
          "velocity": 0.3700787401574803
        },
        {
          "duration": 0.08120966666668039,
          "durationTicks": 116,
          "midi": 77,
          "name": "F5",
          "ticks": 104280,
          "time": 73.00469,
          "velocity": 0.3464566929133858
        },
        {
          "duration": 0.08120966666666618,
          "durationTicks": 116,
          "midi": 76,
          "name": "E5",
          "ticks": 104400,
          "time": 73.0887,
          "velocity": 0.3543307086614173
        },
        {
          "duration": 0.08120966666668039,
          "durationTicks": 116,
          "midi": 77,
          "name": "F5",
          "ticks": 104520,
          "time": 73.17271,
          "velocity": 0.3700787401574803
        },
        {
          "duration": 0.08120966666666618,
          "durationTicks": 116,
          "midi": 78,
          "name": "F#5",
          "ticks": 104640,
          "time": 73.25672,
          "velocity": 0.3779527559055118
        },
        {
          "duration": 0.08120966666666618,
          "durationTicks": 116,
          "midi": 79,
          "name": "G5",
          "ticks": 104760,
          "time": 73.34073000000001,
          "velocity": 0.3937007874015748
        },
        {
          "duration": 0.08120966666666618,
          "durationTicks": 116,
          "midi": 80,
          "name": "G#5",
          "ticks": 104880,
          "time": 73.42474,
          "velocity": 0.4015748031496063
        },
        {
          "duration": 0.08120966666666618,
          "durationTicks": 116,
          "midi": 81,
          "name": "A5",
          "ticks": 105000,
          "time": 73.50875,
          "velocity": 0.41732283464566927
        },
        {
          "duration": 0.08120966666666618,
          "durationTicks": 116,
          "midi": 82,
          "name": "A#5",
          "ticks": 105120,
          "time": 73.59276,
          "velocity": 0.4330708661417323
        },
        {
          "duration": 0.08120966666666618,
          "durationTicks": 116,
          "midi": 86,
          "name": "D6",
          "ticks": 105240,
          "time": 73.67677,
          "velocity": 0.4330708661417323
        },
        {
          "duration": 0.08120966666668039,
          "durationTicks": 116,
          "midi": 84,
          "name": "C6",
          "ticks": 105360,
          "time": 73.76078,
          "velocity": 0.4251968503937008
        },
        {
          "duration": 0.08120966666666618,
          "durationTicks": 116,
          "midi": 82,
          "name": "A#5",
          "ticks": 105480,
          "time": 73.84479,
          "velocity": 0.41732283464566927
        },
        {
          "duration": 0.08120966666668039,
          "durationTicks": 116,
          "midi": 81,
          "name": "A5",
          "ticks": 105600,
          "time": 73.9288,
          "velocity": 0.4094488188976378
        },
        {
          "duration": 0.08120966666666618,
          "durationTicks": 116,
          "midi": 79,
          "name": "G5",
          "ticks": 105720,
          "time": 74.01281,
          "velocity": 0.4015748031496063
        },
        {
          "duration": 0.08120966666666618,
          "durationTicks": 116,
          "midi": 77,
          "name": "F5",
          "ticks": 105840,
          "time": 74.09682000000001,
          "velocity": 0.3937007874015748
        },
        {
          "duration": 0.08120966666666618,
          "durationTicks": 116,
          "midi": 79,
          "name": "G5",
          "ticks": 105960,
          "time": 74.18083,
          "velocity": 0.3858267716535433
        },
        {
          "duration": 0.08120966666666618,
          "durationTicks": 116,
          "midi": 77,
          "name": "F5",
          "ticks": 106080,
          "time": 74.26484,
          "velocity": 0.3779527559055118
        },
        {
          "duration": 0.08120966666666618,
          "durationTicks": 116,
          "midi": 75,
          "name": "D#5",
          "ticks": 106200,
          "time": 74.34885,
          "velocity": 0.3700787401574803
        },
        {
          "duration": 0.08120966666666618,
          "durationTicks": 116,
          "midi": 74,
          "name": "D5",
          "ticks": 106320,
          "time": 74.43286,
          "velocity": 0.36220472440944884
        },
        {
          "duration": 0.08120966666666618,
          "durationTicks": 116,
          "midi": 72,
          "name": "C5",
          "ticks": 106440,
          "time": 74.51687,
          "velocity": 0.3543307086614173
        },
        {
          "duration": 0.08120966666666618,
          "durationTicks": 116,
          "midi": 70,
          "name": "A#4",
          "ticks": 106560,
          "time": 74.60088,
          "velocity": 0.3464566929133858
        },
        {
          "duration": 0.08120966666668039,
          "durationTicks": 116,
          "midi": 74,
          "name": "D5",
          "ticks": 106680,
          "time": 74.68489,
          "velocity": 0.4330708661417323
        },
        {
          "duration": 0.08120966666666618,
          "durationTicks": 116,
          "midi": 72,
          "name": "C5",
          "ticks": 106800,
          "time": 74.7689,
          "velocity": 0.4251968503937008
        },
        {
          "duration": 0.08120966666668039,
          "durationTicks": 116,
          "midi": 70,
          "name": "A#4",
          "ticks": 106920,
          "time": 74.85291,
          "velocity": 0.41732283464566927
        },
        {
          "duration": 0.08120966666666618,
          "durationTicks": 116,
          "midi": 69,
          "name": "A4",
          "ticks": 107040,
          "time": 74.93692,
          "velocity": 0.4094488188976378
        },
        {
          "duration": 0.08120966666666618,
          "durationTicks": 116,
          "midi": 67,
          "name": "G4",
          "ticks": 107160,
          "time": 75.02093,
          "velocity": 0.4015748031496063
        },
        {
          "duration": 0.08120966666666618,
          "durationTicks": 116,
          "midi": 65,
          "name": "F4",
          "ticks": 107280,
          "time": 75.10494,
          "velocity": 0.3937007874015748
        },
        {
          "duration": 0.08120966666666618,
          "durationTicks": 116,
          "midi": 67,
          "name": "G4",
          "ticks": 107400,
          "time": 75.18895,
          "velocity": 0.3858267716535433
        },
        {
          "duration": 0.08120966666666618,
          "durationTicks": 116,
          "midi": 65,
          "name": "F4",
          "ticks": 107520,
          "time": 75.27296,
          "velocity": 0.3779527559055118
        },
        {
          "duration": 0.08120966666666618,
          "durationTicks": 116,
          "midi": 63,
          "name": "D#4",
          "ticks": 107640,
          "time": 75.35697,
          "velocity": 0.3700787401574803
        },
        {
          "duration": 0.08120966666668039,
          "durationTicks": 116,
          "midi": 62,
          "name": "D4",
          "ticks": 107760,
          "time": 75.44098,
          "velocity": 0.36220472440944884
        },
        {
          "duration": 0.08120966666666618,
          "durationTicks": 116,
          "midi": 60,
          "name": "C4",
          "ticks": 107880,
          "time": 75.52499,
          "velocity": 0.3543307086614173
        },
        {
          "duration": 0.33323966666667104,
          "durationTicks": 476,
          "midi": 58,
          "name": "A#3",
          "ticks": 108000,
          "time": 75.609,
          "velocity": 0.3464566929133858
        },
        {
          "duration": 0.16521966666665833,
          "durationTicks": 236,
          "midi": 60,
          "name": "C4",
          "ticks": 108480,
          "time": 75.94504,
          "velocity": 0.3779527559055118
        },
        {
          "duration": 0.33323966666667104,
          "durationTicks": 476,
          "midi": 62,
          "name": "D4",
          "ticks": 108720,
          "time": 76.11306,
          "velocity": 0.4015748031496063
        },
        {
          "duration": 0.16521966666667254,
          "durationTicks": 236,
          "midi": 64,
          "name": "E4",
          "ticks": 109200,
          "time": 76.4491,
          "velocity": 0.4409448818897638
        },
        {
          "duration": 0.08120966666666618,
          "durationTicks": 116,
          "midi": 65,
          "name": "F4",
          "ticks": 109440,
          "time": 76.61712,
          "velocity": 0.3700787401574803
        },
        {
          "duration": 0.08120966666666618,
          "durationTicks": 116,
          "midi": 69,
          "name": "A4",
          "ticks": 109560,
          "time": 76.70113,
          "velocity": 0.3858267716535433
        },
        {
          "duration": 0.08120966666666618,
          "durationTicks": 116,
          "midi": 70,
          "name": "A#4",
          "ticks": 109680,
          "time": 76.78514,
          "velocity": 0.4015748031496063
        },
        {
          "duration": 0.08120966666666618,
          "durationTicks": 116,
          "midi": 72,
          "name": "C5",
          "ticks": 109800,
          "time": 76.86915,
          "velocity": 0.4251968503937008
        },
        {
          "duration": 0.08120966666668039,
          "durationTicks": 116,
          "midi": 74,
          "name": "D5",
          "ticks": 109920,
          "time": 76.95316,
          "velocity": 0.4409448818897638
        },
        {
          "duration": 0.08120966666666618,
          "durationTicks": 116,
          "midi": 76,
          "name": "E5",
          "ticks": 110040,
          "time": 77.03717,
          "velocity": 0.4645669291338583
        },
        {
          "duration": 0.08120966666668039,
          "durationTicks": 116,
          "midi": 77,
          "name": "F5",
          "ticks": 110160,
          "time": 77.12118,
          "velocity": 0.48031496062992124
        },
        {
          "duration": 0.08120966666666618,
          "durationTicks": 116,
          "midi": 76,
          "name": "E5",
          "ticks": 110280,
          "time": 77.20519,
          "velocity": 0.5039370078740157
        },
        {
          "duration": 0.08120966666666618,
          "durationTicks": 116,
          "midi": 77,
          "name": "F5",
          "ticks": 110400,
          "time": 77.28920000000001,
          "velocity": 0.4645669291338583
        },
        {
          "duration": 0.08120966666666618,
          "durationTicks": 116,
          "midi": 76,
          "name": "E5",
          "ticks": 110520,
          "time": 77.37321,
          "velocity": 0.47244094488188976
        },
        {
          "duration": 0.08120966666666618,
          "durationTicks": 116,
          "midi": 77,
          "name": "F5",
          "ticks": 110640,
          "time": 77.45722,
          "velocity": 0.4881889763779528
        },
        {
          "duration": 0.08120966666666618,
          "durationTicks": 116,
          "midi": 76,
          "name": "E5",
          "ticks": 110760,
          "time": 77.54123,
          "velocity": 0.4251968503937008
        },
        {
          "duration": 0.08120966666666618,
          "durationTicks": 116,
          "midi": 77,
          "name": "F5",
          "ticks": 110880,
          "time": 77.62524,
          "velocity": 0.3779527559055118
        },
        {
          "duration": 0.08120966666666618,
          "durationTicks": 116,
          "midi": 81,
          "name": "A5",
          "ticks": 111000,
          "time": 77.70925,
          "velocity": 0.4015748031496063
        },
        {
          "duration": 0.08120966666666618,
          "durationTicks": 116,
          "midi": 82,
          "name": "A#5",
          "ticks": 111120,
          "time": 77.79326,
          "velocity": 0.4409448818897638
        },
        {
          "duration": 0.08120966666668039,
          "durationTicks": 116,
          "midi": 84,
          "name": "C6",
          "ticks": 111240,
          "time": 77.87727,
          "velocity": 0.47244094488188976
        },
        {
          "duration": 0.08120966666666618,
          "durationTicks": 116,
          "midi": 86,
          "name": "D6",
          "ticks": 111360,
          "time": 77.96128,
          "velocity": 0.49606299212598426
        },
        {
          "duration": 0.08120966666668039,
          "durationTicks": 116,
          "midi": 88,
          "name": "E6",
          "ticks": 111480,
          "time": 78.04529,
          "velocity": 0.5354330708661418
        },
        {
          "duration": 0.08120966666666618,
          "durationTicks": 116,
          "midi": 89,
          "name": "F6",
          "ticks": 111600,
          "time": 78.1293,
          "velocity": 0.5669291338582677
        },
        {
          "duration": 0.08120966666666618,
          "durationTicks": 116,
          "midi": 88,
          "name": "E6",
          "ticks": 111720,
          "time": 78.21331,
          "velocity": 0.5196850393700787
        },
        {
          "duration": 0.08120966666666618,
          "durationTicks": 116,
          "midi": 89,
          "name": "F6",
          "ticks": 111840,
          "time": 78.29732,
          "velocity": 0.5275590551181102
        },
        {
          "duration": 0.08120966666666618,
          "durationTicks": 116,
          "midi": 88,
          "name": "E6",
          "ticks": 111960,
          "time": 78.38133,
          "velocity": 0.5511811023622047
        },
        {
          "duration": 0.08120966666666618,
          "durationTicks": 116,
          "midi": 89,
          "name": "F6",
          "ticks": 112080,
          "time": 78.46534,
          "velocity": 0.5748031496062992
        },
        {
          "duration": 0.08120966666666618,
          "durationTicks": 116,
          "midi": 88,
          "name": "E6",
          "ticks": 112200,
          "time": 78.54935,
          "velocity": 0.5984251968503937
        },
        {
          "duration": 0.16521966666667254,
          "durationTicks": 236,
          "midi": 89,
          "name": "F6",
          "ticks": 112320,
          "time": 78.63336,
          "velocity": 0.6377952755905512
        },
        {
          "duration": 0.16521966666667254,
          "durationTicks": 236,
          "midi": 72,
          "name": "C5",
          "ticks": 113520,
          "time": 79.47346,
          "velocity": 0.30708661417322836
        },
        {
          "duration": 0.1092129999999969,
          "durationTicks": 156,
          "midi": 77,
          "name": "F5",
          "ticks": 113760,
          "time": 79.64148,
          "velocity": 0.3464566929133858
        },
        {
          "duration": 0.16521966666667254,
          "durationTicks": 236,
          "midi": 81,
          "name": "A5",
          "ticks": 114240,
          "time": 79.97752,
          "velocity": 0.3858267716535433
        },
        {
          "duration": 0.1092129999999969,
          "durationTicks": 156,
          "midi": 84,
          "name": "C6",
          "ticks": 114480,
          "time": 80.14554,
          "velocity": 0.4251968503937008
        },
        {
          "duration": 0.16521966666665833,
          "durationTicks": 236,
          "midi": 77,
          "name": "F5",
          "ticks": 114960,
          "time": 80.48158000000001,
          "velocity": 0.3464566929133858
        },
        {
          "duration": 0.33323966666665683,
          "durationTicks": 476,
          "midi": 76,
          "name": "E5",
          "ticks": 115200,
          "time": 80.6496,
          "velocity": 0.31496062992125984
        },
        {
          "duration": 0.16521966666667254,
          "durationTicks": 236,
          "midi": 76,
          "name": "E5",
          "ticks": 116400,
          "time": 81.4897,
          "velocity": 0.30708661417322836
        },
        {
          "duration": 0.1092129999999969,
          "durationTicks": 156,
          "midi": 79,
          "name": "G5",
          "ticks": 116640,
          "time": 81.65772,
          "velocity": 0.3464566929133858
        },
        {
          "duration": 0.16521966666667254,
          "durationTicks": 236,
          "midi": 82,
          "name": "A#5",
          "ticks": 117120,
          "time": 81.99376,
          "velocity": 0.3858267716535433
        },
        {
          "duration": 0.1092129999999969,
          "durationTicks": 156,
          "midi": 85,
          "name": "C#6",
          "ticks": 117360,
          "time": 82.16178000000001,
          "velocity": 0.4251968503937008
        },
        {
          "duration": 0.16521966666667254,
          "durationTicks": 236,
          "midi": 79,
          "name": "G5",
          "ticks": 117840,
          "time": 82.49782,
          "velocity": 0.3464566929133858
        },
        {
          "duration": 0.33323966666667104,
          "durationTicks": 476,
          "midi": 78,
          "name": "F#5",
          "ticks": 118080,
          "time": 82.66584,
          "velocity": 0.3464566929133858
        },
        {
          "duration": 0.16521966666667254,
          "durationTicks": 236,
          "midi": 78,
          "name": "F#5",
          "ticks": 119280,
          "time": 83.50594,
          "velocity": 0.4330708661417323
        },
        {
          "duration": 0.10921299999998269,
          "durationTicks": 156,
          "midi": 81,
          "name": "A5",
          "ticks": 119520,
          "time": 83.67396000000001,
          "velocity": 0.44881889763779526
        },
        {
          "duration": 0.16521966666667254,
          "durationTicks": 236,
          "midi": 84,
          "name": "C6",
          "ticks": 120000,
          "time": 84.01,
          "velocity": 0.49606299212598426
        },
        {
          "duration": 0.1092129999999969,
          "durationTicks": 156,
          "midi": 87,
          "name": "D#6",
          "ticks": 120240,
          "time": 84.17802,
          "velocity": 0.5196850393700787
        },
        {
          "duration": 0.16521966666667254,
          "durationTicks": 236,
          "midi": 78,
          "name": "F#5",
          "ticks": 120720,
          "time": 84.51406,
          "velocity": 0.3464566929133858
        },
        {
          "duration": 0.08120966666666618,
          "durationTicks": 116,
          "midi": 79,
          "name": "G5",
          "ticks": 120960,
          "time": 84.68208,
          "velocity": 0.33858267716535434
        },
        {
          "duration": 0.08120966666666618,
          "durationTicks": 116,
          "midi": 86,
          "name": "D6",
          "ticks": 121080,
          "time": 84.76609,
          "velocity": 0.3464566929133858
        },
        {
          "duration": 0.08120966666666618,
          "durationTicks": 116,
          "midi": 85,
          "name": "C#6",
          "ticks": 121200,
          "time": 84.8501,
          "velocity": 0.3543307086614173
        },
        {
          "duration": 0.08120966666666618,
          "durationTicks": 116,
          "midi": 86,
          "name": "D6",
          "ticks": 121320,
          "time": 84.93411,
          "velocity": 0.36220472440944884
        },
        {
          "duration": 0.08120966666668039,
          "durationTicks": 116,
          "midi": 84,
          "name": "C6",
          "ticks": 121440,
          "time": 85.01812,
          "velocity": 0.3700787401574803
        },
        {
          "duration": 0.08120966666666618,
          "durationTicks": 116,
          "midi": 86,
          "name": "D6",
          "ticks": 121560,
          "time": 85.10213,
          "velocity": 0.3779527559055118
        },
        {
          "duration": 0.08120966666668039,
          "durationTicks": 116,
          "midi": 82,
          "name": "A#5",
          "ticks": 121680,
          "time": 85.18614,
          "velocity": 0.3858267716535433
        },
        {
          "duration": 0.08120966666666618,
          "durationTicks": 116,
          "midi": 86,
          "name": "D6",
          "ticks": 121800,
          "time": 85.27015,
          "velocity": 0.3937007874015748
        },
        {
          "duration": 0.08120966666666618,
          "durationTicks": 116,
          "midi": 81,
          "name": "A5",
          "ticks": 121920,
          "time": 85.35416000000001,
          "velocity": 0.4015748031496063
        },
        {
          "duration": 0.08120966666666618,
          "durationTicks": 116,
          "midi": 86,
          "name": "D6",
          "ticks": 122040,
          "time": 85.43817,
          "velocity": 0.4094488188976378
        },
        {
          "duration": 0.08120966666666618,
          "durationTicks": 116,
          "midi": 79,
          "name": "G5",
          "ticks": 122160,
          "time": 85.52218,
          "velocity": 0.41732283464566927
        },
        {
          "duration": 0.08120966666666618,
          "durationTicks": 116,
          "midi": 86,
          "name": "D6",
          "ticks": 122280,
          "time": 85.60619,
          "velocity": 0.4251968503937008
        },
        {
          "duration": 0.33323966666667104,
          "durationTicks": 476,
          "midi": 78,
          "name": "F#5",
          "ticks": 122400,
          "time": 85.6902,
          "velocity": 0.4409448818897638
        },
        {
          "duration": 0.33323966666667104,
          "durationTicks": 476,
          "midi": 72,
          "name": "C5",
          "ticks": 123120,
          "time": 86.19426,
          "velocity": 0.4330708661417323
        },
        {
          "duration": 0.08120966666666618,
          "durationTicks": 116,
          "midi": 75,
          "name": "D#5",
          "ticks": 123240,
          "time": 86.27827,
          "velocity": 0.41732283464566927
        },
        {
          "duration": 0.08120966666666618,
          "durationTicks": 116,
          "midi": 78,
          "name": "F#5",
          "ticks": 123360,
          "time": 86.36228,
          "velocity": 0.4015748031496063
        },
        {
          "duration": 0.08120966666666618,
          "durationTicks": 116,
          "midi": 81,
          "name": "A5",
          "ticks": 123480,
          "time": 86.44629,
          "velocity": 0.3858267716535433
        },
        {
          "duration": 0.08120966666668039,
          "durationTicks": 116,
          "midi": 84,
          "name": "C6",
          "ticks": 123600,
          "time": 86.5303,
          "velocity": 0.3700787401574803
        },
        {
          "duration": 0.08120966666666618,
          "durationTicks": 116,
          "midi": 87,
          "name": "D#6",
          "ticks": 123720,
          "time": 86.61431,
          "velocity": 0.3464566929133858
        },
        {
          "duration": 0.08120966666666618,
          "durationTicks": 116,
          "midi": 86,
          "name": "D6",
          "ticks": 123960,
          "time": 86.78233,
          "velocity": 0.3464566929133858
        },
        {
          "duration": 0.08120966666666618,
          "durationTicks": 116,
          "midi": 85,
          "name": "C#6",
          "ticks": 124080,
          "time": 86.86634000000001,
          "velocity": 0.3543307086614173
        },
        {
          "duration": 0.08120966666666618,
          "durationTicks": 116,
          "midi": 86,
          "name": "D6",
          "ticks": 124200,
          "time": 86.95035,
          "velocity": 0.36220472440944884
        },
        {
          "duration": 0.08120966666666618,
          "durationTicks": 116,
          "midi": 84,
          "name": "C6",
          "ticks": 124320,
          "time": 87.03436,
          "velocity": 0.3700787401574803
        },
        {
          "duration": 0.08120966666666618,
          "durationTicks": 116,
          "midi": 86,
          "name": "D6",
          "ticks": 124440,
          "time": 87.11837,
          "velocity": 0.3779527559055118
        },
        {
          "duration": 0.08120966666666618,
          "durationTicks": 116,
          "midi": 82,
          "name": "A#5",
          "ticks": 124560,
          "time": 87.20238,
          "velocity": 0.3858267716535433
        },
        {
          "duration": 0.08120966666668039,
          "durationTicks": 116,
          "midi": 86,
          "name": "D6",
          "ticks": 124680,
          "time": 87.28639,
          "velocity": 0.3937007874015748
        },
        {
          "duration": 0.08120966666666618,
          "durationTicks": 116,
          "midi": 81,
          "name": "A5",
          "ticks": 124800,
          "time": 87.3704,
          "velocity": 0.4015748031496063
        },
        {
          "duration": 0.08120966666668039,
          "durationTicks": 116,
          "midi": 86,
          "name": "D6",
          "ticks": 124920,
          "time": 87.45441,
          "velocity": 0.4094488188976378
        },
        {
          "duration": 0.08120966666666618,
          "durationTicks": 116,
          "midi": 79,
          "name": "G5",
          "ticks": 125040,
          "time": 87.53842,
          "velocity": 0.41732283464566927
        },
        {
          "duration": 0.08120966666666618,
          "durationTicks": 116,
          "midi": 86,
          "name": "D6",
          "ticks": 125160,
          "time": 87.62243000000001,
          "velocity": 0.4251968503937008
        },
        {
          "duration": 0.33323966666667104,
          "durationTicks": 476,
          "midi": 78,
          "name": "F#5",
          "ticks": 125280,
          "time": 87.70644,
          "velocity": 0.4330708661417323
        },
        {
          "duration": 0.33323966666667104,
          "durationTicks": 476,
          "midi": 72,
          "name": "C5",
          "ticks": 126000,
          "time": 88.2105,
          "velocity": 0.4330708661417323
        },
        {
          "duration": 0.08120966666666618,
          "durationTicks": 116,
          "midi": 75,
          "name": "D#5",
          "ticks": 126120,
          "time": 88.29451,
          "velocity": 0.41732283464566927
        },
        {
          "duration": 0.08120966666668039,
          "durationTicks": 116,
          "midi": 78,
          "name": "F#5",
          "ticks": 126240,
          "time": 88.37852,
          "velocity": 0.4015748031496063
        },
        {
          "duration": 0.08120966666666618,
          "durationTicks": 116,
          "midi": 81,
          "name": "A5",
          "ticks": 126360,
          "time": 88.46253,
          "velocity": 0.3858267716535433
        },
        {
          "duration": 0.08120966666666618,
          "durationTicks": 116,
          "midi": 84,
          "name": "C6",
          "ticks": 126480,
          "time": 88.54654000000001,
          "velocity": 0.3700787401574803
        },
        {
          "duration": 0.08120966666666618,
          "durationTicks": 116,
          "midi": 87,
          "name": "D#6",
          "ticks": 126600,
          "time": 88.63055,
          "velocity": 0.3464566929133858
        },
        {
          "duration": 0.08120966666666618,
          "durationTicks": 116,
          "midi": 86,
          "name": "D6",
          "ticks": 126840,
          "time": 88.79857,
          "velocity": 0.3464566929133858
        },
        {
          "duration": 0.08120966666666618,
          "durationTicks": 116,
          "midi": 84,
          "name": "C6",
          "ticks": 126960,
          "time": 88.88258,
          "velocity": 0.4251968503937008
        },
        {
          "duration": 0.08120966666668039,
          "durationTicks": 116,
          "midi": 86,
          "name": "D6",
          "ticks": 127080,
          "time": 88.96659,
          "velocity": 0.3543307086614173
        },
        {
          "duration": 0.08120966666666618,
          "durationTicks": 116,
          "midi": 82,
          "name": "A#5",
          "ticks": 127200,
          "time": 89.0506,
          "velocity": 0.4409448818897638
        },
        {
          "duration": 0.08120966666668039,
          "durationTicks": 116,
          "midi": 86,
          "name": "D6",
          "ticks": 127320,
          "time": 89.13461,
          "velocity": 0.3700787401574803
        },
        {
          "duration": 0.08120966666666618,
          "durationTicks": 116,
          "midi": 81,
          "name": "A5",
          "ticks": 127440,
          "time": 89.21862,
          "velocity": 0.44881889763779526
        },
        {
          "duration": 0.08120966666666618,
          "durationTicks": 116,
          "midi": 86,
          "name": "D6",
          "ticks": 127560,
          "time": 89.30263000000001,
          "velocity": 0.3779527559055118
        },
        {
          "duration": 0.08120966666666618,
          "durationTicks": 116,
          "midi": 79,
          "name": "G5",
          "ticks": 127680,
          "time": 89.38664,
          "velocity": 0.4645669291338583
        },
        {
          "duration": 0.08120966666666618,
          "durationTicks": 116,
          "midi": 86,
          "name": "D6",
          "ticks": 127800,
          "time": 89.47065,
          "velocity": 0.3937007874015748
        },
        {
          "duration": 0.08120966666666618,
          "durationTicks": 116,
          "midi": 77,
          "name": "F5",
          "ticks": 127920,
          "time": 89.55466,
          "velocity": 0.4015748031496063
        },
        {
          "duration": 0.08120966666666618,
          "durationTicks": 116,
          "midi": 86,
          "name": "D6",
          "ticks": 128040,
          "time": 89.63867,
          "velocity": 0.4094488188976378
        },
        {
          "duration": 0.33323966666667104,
          "durationTicks": 476,
          "midi": 76,
          "name": "E5",
          "ticks": 128160,
          "time": 89.72268,
          "velocity": 0.49606299212598426
        },
        {
          "duration": 0.33323966666667104,
          "durationTicks": 476,
          "midi": 70,
          "name": "A#4",
          "ticks": 128880,
          "time": 90.22674,
          "velocity": 0.4330708661417323
        },
        {
          "duration": 0.08120966666666618,
          "durationTicks": 116,
          "midi": 73,
          "name": "C#5",
          "ticks": 129000,
          "time": 90.31075,
          "velocity": 0.4251968503937008
        },
        {
          "duration": 0.08120966666666618,
          "durationTicks": 116,
          "midi": 76,
          "name": "E5",
          "ticks": 129120,
          "time": 90.39476,
          "velocity": 0.4094488188976378
        },
        {
          "duration": 0.08120966666668039,
          "durationTicks": 116,
          "midi": 79,
          "name": "G5",
          "ticks": 129240,
          "time": 90.47877,
          "velocity": 0.4015748031496063
        },
        {
          "duration": 0.08120966666666618,
          "durationTicks": 116,
          "midi": 82,
          "name": "A#5",
          "ticks": 129360,
          "time": 90.56278,
          "velocity": 0.3858267716535433
        },
        {
          "duration": 0.08120966666668039,
          "durationTicks": 116,
          "midi": 85,
          "name": "C#6",
          "ticks": 129480,
          "time": 90.64679,
          "velocity": 0.3779527559055118
        },
        {
          "duration": 0.10921299999998269,
          "durationTicks": 156,
          "midi": 84,
          "name": "C6",
          "ticks": 129720,
          "time": 90.81481000000001,
          "velocity": 0.4330708661417323
        },
        {
          "duration": 0.1092129999999969,
          "durationTicks": 156,
          "midi": 83,
          "name": "B5",
          "ticks": 129840,
          "time": 90.89882,
          "velocity": 0.4645669291338583
        },
        {
          "duration": 0.1092129999999969,
          "durationTicks": 156,
          "midi": 84,
          "name": "C6",
          "ticks": 129960,
          "time": 90.98283,
          "velocity": 0.41732283464566927
        },
        {
          "duration": 0.1092129999999969,
          "durationTicks": 156,
          "midi": 82,
          "name": "A#5",
          "ticks": 130080,
          "time": 91.06684,
          "velocity": 0.44881889763779526
        },
        {
          "duration": 0.1092129999999969,
          "durationTicks": 156,
          "midi": 84,
          "name": "C6",
          "ticks": 130200,
          "time": 91.15085,
          "velocity": 0.4094488188976378
        },
        {
          "duration": 0.1092129999999969,
          "durationTicks": 156,
          "midi": 80,
          "name": "G#5",
          "ticks": 130320,
          "time": 91.23486,
          "velocity": 0.4409448818897638
        },
        {
          "duration": 0.1092129999999969,
          "durationTicks": 156,
          "midi": 84,
          "name": "C6",
          "ticks": 130440,
          "time": 91.31887,
          "velocity": 0.3937007874015748
        },
        {
          "duration": 0.1092129999999969,
          "durationTicks": 156,
          "midi": 79,
          "name": "G5",
          "ticks": 130560,
          "time": 91.40288,
          "velocity": 0.4251968503937008
        },
        {
          "duration": 0.1092129999999969,
          "durationTicks": 156,
          "midi": 84,
          "name": "C6",
          "ticks": 130680,
          "time": 91.48689,
          "velocity": 0.3779527559055118
        },
        {
          "duration": 0.1092129999999969,
          "durationTicks": 156,
          "midi": 77,
          "name": "F5",
          "ticks": 130800,
          "time": 91.5709,
          "velocity": 0.4094488188976378
        },
        {
          "duration": 0.1092129999999969,
          "durationTicks": 156,
          "midi": 84,
          "name": "C6",
          "ticks": 130920,
          "time": 91.65491,
          "velocity": 0.3543307086614173
        },
        {
          "duration": 0.12041433333334339,
          "durationTicks": 172,
          "midi": 80,
          "name": "G#5",
          "ticks": 131160,
          "time": 91.82293,
          "velocity": 0.44881889763779526
        },
        {
          "duration": 0.12041433333332918,
          "durationTicks": 172,
          "midi": 79,
          "name": "G5",
          "ticks": 131280,
          "time": 91.90694,
          "velocity": 0.4881889763779528
        },
        {
          "duration": 0.12041433333334339,
          "durationTicks": 172,
          "midi": 80,
          "name": "G#5",
          "ticks": 131400,
          "time": 91.99095,
          "velocity": 0.4409448818897638
        },
        {
          "duration": 0.12041433333332918,
          "durationTicks": 172,
          "midi": 78,
          "name": "F#5",
          "ticks": 131520,
          "time": 92.07496,
          "velocity": 0.47244094488188976
        },
        {
          "duration": 0.12041433333334339,
          "durationTicks": 172,
          "midi": 80,
          "name": "G#5",
          "ticks": 131640,
          "time": 92.15897,
          "velocity": 0.4251968503937008
        },
        {
          "duration": 0.12041433333334339,
          "durationTicks": 172,
          "midi": 77,
          "name": "F5",
          "ticks": 131760,
          "time": 92.24298,
          "velocity": 0.4566929133858268
        },
        {
          "duration": 0.12041433333334339,
          "durationTicks": 172,
          "midi": 80,
          "name": "G#5",
          "ticks": 131880,
          "time": 92.32699,
          "velocity": 0.4094488188976378
        },
        {
          "duration": 0.12041433333334339,
          "durationTicks": 172,
          "midi": 75,
          "name": "D#5",
          "ticks": 132000,
          "time": 92.411,
          "velocity": 0.4409448818897638
        },
        {
          "duration": 0.12041433333332918,
          "durationTicks": 172,
          "midi": 80,
          "name": "G#5",
          "ticks": 132120,
          "time": 92.49501000000001,
          "velocity": 0.4015748031496063
        },
        {
          "duration": 0.12041433333334339,
          "durationTicks": 172,
          "midi": 73,
          "name": "C#5",
          "ticks": 132240,
          "time": 92.57902,
          "velocity": 0.4330708661417323
        },
        {
          "duration": 0.12041433333332918,
          "durationTicks": 172,
          "midi": 80,
          "name": "G#5",
          "ticks": 132360,
          "time": 92.66303,
          "velocity": 0.3700787401574803
        },
        {
          "duration": 0.16521966666667254,
          "durationTicks": 236,
          "midi": 77,
          "name": "F5",
          "ticks": 132600,
          "time": 92.83105,
          "velocity": 0.47244094488188976
        },
        {
          "duration": 0.16521966666667254,
          "durationTicks": 236,
          "midi": 76,
          "name": "E5",
          "ticks": 132720,
          "time": 92.91506,
          "velocity": 0.49606299212598426
        },
        {
          "duration": 0.16521966666667254,
          "durationTicks": 236,
          "midi": 77,
          "name": "F5",
          "ticks": 132840,
          "time": 92.99907,
          "velocity": 0.4566929133858268
        },
        {
          "duration": 0.16521966666667254,
          "durationTicks": 236,
          "midi": 75,
          "name": "D#5",
          "ticks": 132960,
          "time": 93.08308,
          "velocity": 0.49606299212598426
        },
        {
          "duration": 0.16521966666667254,
          "durationTicks": 236,
          "midi": 77,
          "name": "F5",
          "ticks": 133080,
          "time": 93.16709,
          "velocity": 0.44881889763779526
        },
        {
          "duration": 0.16521966666665833,
          "durationTicks": 236,
          "midi": 73,
          "name": "C#5",
          "ticks": 133200,
          "time": 93.25110000000001,
          "velocity": 0.48031496062992124
        },
        {
          "duration": 0.16521966666667254,
          "durationTicks": 236,
          "midi": 77,
          "name": "F5",
          "ticks": 133320,
          "time": 93.33511,
          "velocity": 0.4330708661417323
        },
        {
          "duration": 0.16521966666665833,
          "durationTicks": 236,
          "midi": 72,
          "name": "C5",
          "ticks": 133440,
          "time": 93.41912,
          "velocity": 0.4645669291338583
        },
        {
          "duration": 0.16521966666667254,
          "durationTicks": 236,
          "midi": 77,
          "name": "F5",
          "ticks": 133560,
          "time": 93.50313,
          "velocity": 0.41732283464566927
        },
        {
          "duration": 0.16521966666667254,
          "durationTicks": 236,
          "midi": 71,
          "name": "B4",
          "ticks": 133680,
          "time": 93.58714,
          "velocity": 0.4881889763779528
        },
        {
          "duration": 0.16521966666667254,
          "durationTicks": 236,
          "midi": 77,
          "name": "F5",
          "ticks": 133800,
          "time": 93.67115,
          "velocity": 0.47244094488188976
        },
        {
          "duration": 0.5012596666666695,
          "durationTicks": 716,
          "midi": 83,
          "name": "B5",
          "ticks": 133920,
          "time": 93.75516,
          "velocity": 0.5039370078740157
        },
        {
          "duration": 0.5012596666666695,
          "durationTicks": 716,
          "midi": 71,
          "name": "B4",
          "ticks": 134640,
          "time": 94.25922,
          "velocity": 0.5039370078740157
        },
        {
          "duration": 0.1092129999999969,
          "durationTicks": 156,
          "midi": 72,
          "name": "C5",
          "ticks": 135360,
          "time": 94.76328,
          "velocity": 0.5039370078740157
        },
        {
          "duration": 0.16521966666665833,
          "durationTicks": 236,
          "midi": 76,
          "name": "E5",
          "ticks": 135840,
          "time": 95.09932,
          "velocity": 0.4881889763779528
        },
        {
          "duration": 0.1092129999999969,
          "durationTicks": 156,
          "midi": 79,
          "name": "G5",
          "ticks": 136080,
          "time": 95.26734,
          "velocity": 0.5354330708661418
        },
        {
          "duration": 0.16521966666667254,
          "durationTicks": 236,
          "midi": 84,
          "name": "C6",
          "ticks": 136560,
          "time": 95.60338,
          "velocity": 0.6220472440944882
        },
        {
          "duration": 0.669279666666668,
          "durationTicks": 956,
          "midi": 80,
          "name": "G#5",
          "ticks": 136800,
          "time": 95.7714,
          "velocity": 0.4094488188976378
        },
        {
          "duration": 0.16521966666665833,
          "durationTicks": 236,
          "midi": 77,
          "name": "F5",
          "ticks": 137760,
          "time": 96.44348000000001,
          "velocity": 0.5039370078740157
        },
        {
          "duration": 0.16521966666665833,
          "durationTicks": 236,
          "midi": 71,
          "name": "B4",
          "ticks": 138000,
          "time": 96.6115,
          "velocity": 0.4094488188976378
        },
        {
          "duration": 0.1092129999999969,
          "durationTicks": 156,
          "midi": 72,
          "name": "C5",
          "ticks": 138240,
          "time": 96.77952,
          "velocity": 0.33070866141732286
        },
        {
          "duration": 0.16521966666667254,
          "durationTicks": 236,
          "midi": 76,
          "name": "E5",
          "ticks": 138720,
          "time": 97.11556,
          "velocity": 0.3858267716535433
        },
        {
          "duration": 0.1092129999999969,
          "durationTicks": 156,
          "midi": 79,
          "name": "G5",
          "ticks": 138960,
          "time": 97.28358,
          "velocity": 0.4251968503937008
        },
        {
          "duration": 0.16521966666667254,
          "durationTicks": 236,
          "midi": 84,
          "name": "C6",
          "ticks": 139440,
          "time": 97.61962,
          "velocity": 0.4881889763779528
        },
        {
          "duration": 0.669279666666668,
          "durationTicks": 956,
          "midi": 80,
          "name": "G#5",
          "ticks": 139680,
          "time": 97.78764,
          "velocity": 0.4015748031496063
        },
        {
          "duration": 0.16521966666667254,
          "durationTicks": 236,
          "midi": 77,
          "name": "F5",
          "ticks": 140640,
          "time": 98.45972,
          "velocity": 0.5039370078740157
        },
        {
          "duration": 0.16521966666667254,
          "durationTicks": 236,
          "midi": 71,
          "name": "B4",
          "ticks": 140880,
          "time": 98.62774,
          "velocity": 0.4094488188976378
        },
        {
          "duration": 0.33323966666667104,
          "durationTicks": 476,
          "midi": 72,
          "name": "C5",
          "ticks": 141120,
          "time": 98.79576,
          "velocity": 0.30708661417322836
        },
        {
          "duration": 0.08120966666666618,
          "durationTicks": 116,
          "midi": 72,
          "name": "C5",
          "ticks": 146880,
          "time": 102.82824000000001,
          "velocity": 0.3464566929133858
        },
        {
          "duration": 0.08120966666666618,
          "durationTicks": 116,
          "midi": 74,
          "name": "D5",
          "ticks": 147000,
          "time": 102.91225,
          "velocity": 0.3543307086614173
        },
        {
          "duration": 0.08120966666666618,
          "durationTicks": 116,
          "midi": 76,
          "name": "E5",
          "ticks": 147120,
          "time": 102.99626,
          "velocity": 0.3700787401574803
        },
        {
          "duration": 0.08120966666666618,
          "durationTicks": 116,
          "midi": 77,
          "name": "F5",
          "ticks": 147240,
          "time": 103.08027,
          "velocity": 0.3858267716535433
        },
        {
          "duration": 0.08120966666666618,
          "durationTicks": 116,
          "midi": 79,
          "name": "G5",
          "ticks": 147360,
          "time": 103.16428,
          "velocity": 0.4015748031496063
        },
        {
          "duration": 0.08120966666668039,
          "durationTicks": 116,
          "midi": 81,
          "name": "A5",
          "ticks": 147480,
          "time": 103.24829,
          "velocity": 0.41732283464566927
        },
        {
          "duration": 0.08120966666666618,
          "durationTicks": 116,
          "midi": 82,
          "name": "A#5",
          "ticks": 147600,
          "time": 103.3323,
          "velocity": 0.4330708661417323
        },
        {
          "duration": 0.08120966666668039,
          "durationTicks": 116,
          "midi": 81,
          "name": "A5",
          "ticks": 147720,
          "time": 103.41631,
          "velocity": 0.4566929133858268
        },
        {
          "duration": 0.08120966666666618,
          "durationTicks": 116,
          "midi": 82,
          "name": "A#5",
          "ticks": 147840,
          "time": 103.50032,
          "velocity": 0.48031496062992124
        },
        {
          "duration": 0.08120966666666618,
          "durationTicks": 116,
          "midi": 81,
          "name": "A5",
          "ticks": 147960,
          "time": 103.58433000000001,
          "velocity": 0.5039370078740157
        },
        {
          "duration": 0.08120966666666618,
          "durationTicks": 116,
          "midi": 82,
          "name": "A#5",
          "ticks": 148080,
          "time": 103.66834,
          "velocity": 0.5354330708661418
        },
        {
          "duration": 0.08120966666666618,
          "durationTicks": 116,
          "midi": 81,
          "name": "A5",
          "ticks": 148200,
          "time": 103.75235,
          "velocity": 0.48031496062992124
        },
        {
          "duration": 0.33323966666667104,
          "durationTicks": 476,
          "midi": 82,
          "name": "A#5",
          "ticks": 148320,
          "time": 103.83636,
          "velocity": 0.4251968503937008
        },
        {
          "duration": 0.08120966666666618,
          "durationTicks": 116,
          "midi": 72,
          "name": "C5",
          "ticks": 149760,
          "time": 104.84448,
          "velocity": 0.30708661417322836
        },
        {
          "duration": 0.08120966666668039,
          "durationTicks": 116,
          "midi": 74,
          "name": "D5",
          "ticks": 149880,
          "time": 104.92849,
          "velocity": 0.31496062992125984
        },
        {
          "duration": 0.08120966666666618,
          "durationTicks": 116,
          "midi": 76,
          "name": "E5",
          "ticks": 150000,
          "time": 105.0125,
          "velocity": 0.33070866141732286
        },
        {
          "duration": 0.08120966666668039,
          "durationTicks": 116,
          "midi": 77,
          "name": "F5",
          "ticks": 150120,
          "time": 105.09651,
          "velocity": 0.3464566929133858
        },
        {
          "duration": 0.08120966666666618,
          "durationTicks": 116,
          "midi": 79,
          "name": "G5",
          "ticks": 150240,
          "time": 105.18052,
          "velocity": 0.3543307086614173
        },
        {
          "duration": 0.08120966666666618,
          "durationTicks": 116,
          "midi": 81,
          "name": "A5",
          "ticks": 150360,
          "time": 105.26453000000001,
          "velocity": 0.3700787401574803
        },
        {
          "duration": 0.08120966666666618,
          "durationTicks": 116,
          "midi": 82,
          "name": "A#5",
          "ticks": 150480,
          "time": 105.34854,
          "velocity": 0.3858267716535433
        },
        {
          "duration": 0.08120966666666618,
          "durationTicks": 116,
          "midi": 81,
          "name": "A5",
          "ticks": 150600,
          "time": 105.43255,
          "velocity": 0.41732283464566927
        },
        {
          "duration": 0.08120966666666618,
          "durationTicks": 116,
          "midi": 82,
          "name": "A#5",
          "ticks": 150720,
          "time": 105.51656,
          "velocity": 0.4566929133858268
        },
        {
          "duration": 0.08120966666666618,
          "durationTicks": 116,
          "midi": 81,
          "name": "A5",
          "ticks": 150840,
          "time": 105.60057,
          "velocity": 0.5118110236220472
        },
        {
          "duration": 0.08120966666668039,
          "durationTicks": 116,
          "midi": 82,
          "name": "A#5",
          "ticks": 150960,
          "time": 105.68458,
          "velocity": 0.49606299212598426
        },
        {
          "duration": 0.08120966666666618,
          "durationTicks": 116,
          "midi": 81,
          "name": "A5",
          "ticks": 151080,
          "time": 105.76859,
          "velocity": 0.4566929133858268
        },
        {
          "duration": 0.33323966666667104,
          "durationTicks": 476,
          "midi": 82,
          "name": "A#5",
          "ticks": 151200,
          "time": 105.8526,
          "velocity": 0.4251968503937008
        },
        {
          "duration": 0.16521966666667254,
          "durationTicks": 236,
          "midi": 77,
          "name": "F5",
          "ticks": 155280,
          "time": 108.70894,
          "velocity": 0.4094488188976378
        },
        {
          "duration": 0.13721633333334182,
          "durationTicks": 196,
          "midi": 76,
          "name": "E5",
          "ticks": 155520,
          "time": 108.87696,
          "velocity": 0.33070866141732286
        },
        {
          "duration": 0.16521966666665833,
          "durationTicks": 236,
          "midi": 77,
          "name": "F5",
          "ticks": 156000,
          "time": 109.21300000000001,
          "velocity": 0.4094488188976378
        },
        {
          "duration": 0.13721633333334182,
          "durationTicks": 196,
          "midi": 76,
          "name": "E5",
          "ticks": 156240,
          "time": 109.38102,
          "velocity": 0.33070866141732286
        },
        {
          "duration": 0.053206333333335465,
          "durationTicks": 76,
          "midi": 77,
          "name": "F5",
          "ticks": 156720,
          "time": 109.71706,
          "velocity": 0.4094488188976378
        },
        {
          "duration": 0.08120966666666618,
          "durationTicks": 116,
          "midi": 86,
          "name": "D6",
          "ticks": 156960,
          "time": 109.88508,
          "velocity": 0.4015748031496063
        },
        {
          "duration": 0.08120966666666618,
          "durationTicks": 116,
          "midi": 84,
          "name": "C6",
          "ticks": 157080,
          "time": 109.96909000000001,
          "velocity": 0.44881889763779526
        },
        {
          "duration": 0.08120966666666618,
          "durationTicks": 116,
          "midi": 86,
          "name": "D6",
          "ticks": 157200,
          "time": 110.0531,
          "velocity": 0.4566929133858268
        },
        {
          "duration": 0.08120966666666618,
          "durationTicks": 116,
          "midi": 84,
          "name": "C6",
          "ticks": 157320,
          "time": 110.13711,
          "velocity": 0.4645669291338583
        },
        {
          "duration": 0.08120966666666618,
          "durationTicks": 116,
          "midi": 86,
          "name": "D6",
          "ticks": 157440,
          "time": 110.22112,
          "velocity": 0.49606299212598426
        },
        {
          "duration": 0.08120966666666618,
          "durationTicks": 116,
          "midi": 84,
          "name": "C6",
          "ticks": 157560,
          "time": 110.30513,
          "velocity": 0.5118110236220472
        },
        {
          "duration": 0.33323966666667104,
          "durationTicks": 476,
          "midi": 82,
          "name": "A#5",
          "ticks": 157680,
          "time": 110.38914,
          "velocity": 0.4094488188976378
        },
        {
          "duration": 0.16521966666665833,
          "durationTicks": 236,
          "midi": 81,
          "name": "A5",
          "ticks": 158160,
          "time": 110.72518000000001,
          "velocity": 0.4094488188976378
        },
        {
          "duration": 0.13721633333334182,
          "durationTicks": 196,
          "midi": 79,
          "name": "G5",
          "ticks": 158400,
          "time": 110.89320000000001,
          "velocity": 0.33070866141732286
        },
        {
          "duration": 0.053206333333335465,
          "durationTicks": 76,
          "midi": 79,
          "name": "G5",
          "ticks": 158880,
          "time": 111.22924,
          "velocity": 0.33070866141732286
        },
        {
          "duration": 0.33323966666667104,
          "durationTicks": 476,
          "midi": 79,
          "name": "G5",
          "ticks": 159120,
          "time": 111.39726,
          "velocity": 0.4094488188976378
        },
        {
          "duration": 0.053206333333349676,
          "durationTicks": 76,
          "midi": 81,
          "name": "A5",
          "ticks": 159600,
          "time": 111.7333,
          "velocity": 0.4094488188976378
        },
        {
          "duration": 0.5012596666666695,
          "durationTicks": 716,
          "midi": 77,
          "name": "F5",
          "ticks": 159840,
          "time": 111.90132,
          "velocity": 0.4094488188976378
        },
        {
          "duration": 0.16521966666665833,
          "durationTicks": 236,
          "midi": 76,
          "name": "E5",
          "ticks": 160560,
          "time": 112.40538000000001,
          "velocity": 0.30708661417322836
        },
        {
          "duration": 0.08120966666666618,
          "durationTicks": 116,
          "midi": 79,
          "name": "G5",
          "ticks": 161040,
          "time": 112.74142,
          "velocity": 0.4881889763779528
        },
        {
          "duration": 0.08120966666668039,
          "durationTicks": 116,
          "midi": 77,
          "name": "F5",
          "ticks": 161160,
          "time": 112.82543,
          "velocity": 0.4094488188976378
        },
        {
          "duration": 0.053206333333335465,
          "durationTicks": 76,
          "midi": 76,
          "name": "E5",
          "ticks": 161280,
          "time": 112.90944,
          "velocity": 0.4881889763779528
        },
        {
          "duration": 0.08120966666666618,
          "durationTicks": 116,
          "midi": 79,
          "name": "G5",
          "ticks": 161760,
          "time": 113.24548,
          "velocity": 0.4881889763779528
        },
        {
          "duration": 0.08120966666666618,
          "durationTicks": 116,
          "midi": 77,
          "name": "F5",
          "ticks": 161880,
          "time": 113.32949,
          "velocity": 0.4094488188976378
        },
        {
          "duration": 0.053206333333349676,
          "durationTicks": 76,
          "midi": 76,
          "name": "E5",
          "ticks": 162000,
          "time": 113.4135,
          "velocity": 0.4881889763779528
        },
        {
          "duration": 0.08120966666668039,
          "durationTicks": 116,
          "midi": 79,
          "name": "G5",
          "ticks": 162480,
          "time": 113.74954,
          "velocity": 0.4881889763779528
        },
        {
          "duration": 0.08120966666666618,
          "durationTicks": 116,
          "midi": 77,
          "name": "F5",
          "ticks": 162600,
          "time": 113.83355,
          "velocity": 0.4566929133858268
        },
        {
          "duration": 0.08120966666666618,
          "durationTicks": 116,
          "midi": 86,
          "name": "D6",
          "ticks": 162720,
          "time": 113.91756000000001,
          "velocity": 0.49606299212598426
        },
        {
          "duration": 0.08120966666666618,
          "durationTicks": 116,
          "midi": 84,
          "name": "C6",
          "ticks": 162840,
          "time": 114.00157,
          "velocity": 0.4330708661417323
        },
        {
          "duration": 0.08120966666666618,
          "durationTicks": 116,
          "midi": 86,
          "name": "D6",
          "ticks": 162960,
          "time": 114.08558000000001,
          "velocity": 0.4566929133858268
        },
        {
          "duration": 0.08120966666666618,
          "durationTicks": 116,
          "midi": 84,
          "name": "C6",
          "ticks": 163080,
          "time": 114.16959,
          "velocity": 0.47244094488188976
        },
        {
          "duration": 0.08120966666666618,
          "durationTicks": 116,
          "midi": 86,
          "name": "D6",
          "ticks": 163200,
          "time": 114.2536,
          "velocity": 0.49606299212598426
        },
        {
          "duration": 0.08120966666666618,
          "durationTicks": 116,
          "midi": 84,
          "name": "C6",
          "ticks": 163320,
          "time": 114.33761,
          "velocity": 0.5196850393700787
        },
        {
          "duration": 0.3892463333333467,
          "durationTicks": 556,
          "midi": 82,
          "name": "A#5",
          "ticks": 163440,
          "time": 114.42162,
          "velocity": 0.4881889763779528
        },
        {
          "duration": 0.053206333333349676,
          "durationTicks": 76,
          "midi": 81,
          "name": "A5",
          "ticks": 163920,
          "time": 114.75766,
          "velocity": 0.4094488188976378
        },
        {
          "duration": 0.22122633333334818,
          "durationTicks": 316,
          "midi": 79,
          "name": "G5",
          "ticks": 164160,
          "time": 114.92568,
          "velocity": 0.4094488188976378
        },
        {
          "duration": 0.053206333333335465,
          "durationTicks": 76,
          "midi": 81,
          "name": "A5",
          "ticks": 164520,
          "time": 115.17771,
          "velocity": 0.33070866141732286
        },
        {
          "duration": 0.08120966666668039,
          "durationTicks": 116,
          "midi": 82,
          "name": "A#5",
          "ticks": 164640,
          "time": 115.26172,
          "velocity": 0.33070866141732286
        },
        {
          "duration": 0.053206333333349676,
          "durationTicks": 76,
          "midi": 74,
          "name": "D5",
          "ticks": 164880,
          "time": 115.42974,
          "velocity": 0.33070866141732286
        },
        {
          "duration": 0.053206333333335465,
          "durationTicks": 76,
          "midi": 76,
          "name": "E5",
          "ticks": 165360,
          "time": 115.76578,
          "velocity": 0.4094488188976378
        },
        {
          "duration": 0.5012596666666695,
          "durationTicks": 716,
          "midi": 79,
          "name": "G5",
          "ticks": 165600,
          "time": 115.9338,
          "velocity": 0.4330708661417323
        },
        {
          "duration": 0.16521966666667254,
          "durationTicks": 236,
          "midi": 77,
          "name": "F5",
          "ticks": 166320,
          "time": 116.43786,
          "velocity": 0.30708661417322836
        },
        {
          "duration": 0.1092129999999969,
          "durationTicks": 156,
          "midi": 69,
          "name": "A4",
          "ticks": 166800,
          "time": 116.7739,
          "velocity": 0.3464566929133858
        },
        {
          "duration": 0.1092129999999969,
          "durationTicks": 156,
          "midi": 65,
          "name": "F4",
          "ticks": 166920,
          "time": 116.85791,
          "velocity": 0.3464566929133858
        },
        {
          "duration": 0.1092129999999969,
          "durationTicks": 156,
          "midi": 72,
          "name": "C5",
          "ticks": 167040,
          "time": 116.94192,
          "velocity": 0.3464566929133858
        },
        {
          "duration": 0.1092129999999969,
          "durationTicks": 156,
          "midi": 67,
          "name": "G4",
          "ticks": 167160,
          "time": 117.02593,
          "velocity": 0.3464566929133858
        },
        {
          "duration": 0.10921299999998269,
          "durationTicks": 156,
          "midi": 64,
          "name": "E4",
          "ticks": 167280,
          "time": 117.10994000000001,
          "velocity": 0.3464566929133858
        },
        {
          "duration": 0.1092129999999969,
          "durationTicks": 156,
          "midi": 60,
          "name": "C4",
          "ticks": 167400,
          "time": 117.19395,
          "velocity": 0.3464566929133858
        },
        {
          "duration": 0.1092129999999969,
          "durationTicks": 156,
          "midi": 72,
          "name": "C5",
          "ticks": 167520,
          "time": 117.27796000000001,
          "velocity": 0.3464566929133858
        },
        {
          "duration": 0.1092129999999969,
          "durationTicks": 156,
          "midi": 60,
          "name": "C4",
          "ticks": 167640,
          "time": 117.36197,
          "velocity": 0.3464566929133858
        },
        {
          "duration": 0.1092129999999969,
          "durationTicks": 156,
          "midi": 72,
          "name": "C5",
          "ticks": 167760,
          "time": 117.44598,
          "velocity": 0.3464566929133858
        },
        {
          "duration": 0.1092129999999969,
          "durationTicks": 156,
          "midi": 67,
          "name": "G4",
          "ticks": 167880,
          "time": 117.52999,
          "velocity": 0.3464566929133858
        },
        {
          "duration": 0.1092129999999969,
          "durationTicks": 156,
          "midi": 64,
          "name": "E4",
          "ticks": 168000,
          "time": 117.614,
          "velocity": 0.3464566929133858
        },
        {
          "duration": 0.1092129999999969,
          "durationTicks": 156,
          "midi": 60,
          "name": "C4",
          "ticks": 168120,
          "time": 117.69801,
          "velocity": 0.3464566929133858
        },
        {
          "duration": 0.1092129999999969,
          "durationTicks": 156,
          "midi": 72,
          "name": "C5",
          "ticks": 168240,
          "time": 117.78202,
          "velocity": 0.3464566929133858
        },
        {
          "duration": 0.1092129999999969,
          "durationTicks": 156,
          "midi": 60,
          "name": "C4",
          "ticks": 168360,
          "time": 117.86603,
          "velocity": 0.3464566929133858
        },
        {
          "duration": 0.1092129999999969,
          "durationTicks": 156,
          "midi": 64,
          "name": "E4",
          "ticks": 168960,
          "time": 118.28608,
          "velocity": 0.3464566929133858
        },
        {
          "duration": 0.1092129999999969,
          "durationTicks": 156,
          "midi": 67,
          "name": "G4",
          "ticks": 169080,
          "time": 118.37009,
          "velocity": 0.3464566929133858
        },
        {
          "duration": 0.1092129999999969,
          "durationTicks": 156,
          "midi": 70,
          "name": "A#4",
          "ticks": 169200,
          "time": 118.4541,
          "velocity": 0.3464566929133858
        },
        {
          "duration": 0.1092129999999969,
          "durationTicks": 156,
          "midi": 67,
          "name": "G4",
          "ticks": 169320,
          "time": 118.53811,
          "velocity": 0.3464566929133858
        },
        {
          "duration": 0.1092129999999969,
          "durationTicks": 156,
          "midi": 64,
          "name": "E4",
          "ticks": 169440,
          "time": 118.62212,
          "velocity": 0.3464566929133858
        },
        {
          "duration": 0.1092129999999969,
          "durationTicks": 156,
          "midi": 60,
          "name": "C4",
          "ticks": 169560,
          "time": 118.70613,
          "velocity": 0.3464566929133858
        },
        {
          "duration": 0.1092129999999969,
          "durationTicks": 156,
          "midi": 69,
          "name": "A4",
          "ticks": 169680,
          "time": 118.79014000000001,
          "velocity": 0.3464566929133858
        },
        {
          "duration": 0.1092129999999969,
          "durationTicks": 156,
          "midi": 65,
          "name": "F4",
          "ticks": 169800,
          "time": 118.87415,
          "velocity": 0.3464566929133858
        },
        {
          "duration": 0.1092129999999969,
          "durationTicks": 156,
          "midi": 62,
          "name": "D4",
          "ticks": 170160,
          "time": 119.12618,
          "velocity": 0.3464566929133858
        },
        {
          "duration": 0.1092129999999969,
          "durationTicks": 156,
          "midi": 67,
          "name": "G4",
          "ticks": 170280,
          "time": 119.21019,
          "velocity": 0.3464566929133858
        },
        {
          "duration": 0.1092129999999969,
          "durationTicks": 156,
          "midi": 70,
          "name": "A#4",
          "ticks": 170400,
          "time": 119.2942,
          "velocity": 0.3464566929133858
        },
        {
          "duration": 0.1092129999999969,
          "durationTicks": 156,
          "midi": 74,
          "name": "D5",
          "ticks": 170520,
          "time": 119.37821,
          "velocity": 0.3464566929133858
        },
        {
          "duration": 0.1092129999999969,
          "durationTicks": 156,
          "midi": 62,
          "name": "D4",
          "ticks": 170880,
          "time": 119.63024,
          "velocity": 0.3464566929133858
        },
        {
          "duration": 0.1092129999999969,
          "durationTicks": 156,
          "midi": 65,
          "name": "F4",
          "ticks": 171000,
          "time": 119.71425,
          "velocity": 0.3464566929133858
        },
        {
          "duration": 0.1092129999999969,
          "durationTicks": 156,
          "midi": 71,
          "name": "B4",
          "ticks": 171120,
          "time": 119.79826,
          "velocity": 0.3464566929133858
        },
        {
          "duration": 0.1092129999999969,
          "durationTicks": 156,
          "midi": 74,
          "name": "D5",
          "ticks": 171240,
          "time": 119.88227,
          "velocity": 0.3464566929133858
        },
        {
          "duration": 0.10921299999998269,
          "durationTicks": 156,
          "midi": 65,
          "name": "F4",
          "ticks": 171840,
          "time": 120.30232000000001,
          "velocity": 0.3464566929133858
        },
        {
          "duration": 0.1092129999999969,
          "durationTicks": 156,
          "midi": 69,
          "name": "A4",
          "ticks": 171960,
          "time": 120.38633,
          "velocity": 0.3464566929133858
        },
        {
          "duration": 0.1092129999999969,
          "durationTicks": 156,
          "midi": 70,
          "name": "A#4",
          "ticks": 172080,
          "time": 120.47034000000001,
          "velocity": 0.3464566929133858
        },
        {
          "duration": 0.1092129999999969,
          "durationTicks": 156,
          "midi": 67,
          "name": "G4",
          "ticks": 172200,
          "time": 120.55435,
          "velocity": 0.3464566929133858
        },
        {
          "duration": 0.1092129999999969,
          "durationTicks": 156,
          "midi": 64,
          "name": "E4",
          "ticks": 172320,
          "time": 120.63836,
          "velocity": 0.3464566929133858
        },
        {
          "duration": 0.1092129999999969,
          "durationTicks": 156,
          "midi": 60,
          "name": "C4",
          "ticks": 172440,
          "time": 120.72237,
          "velocity": 0.3464566929133858
        },
        {
          "duration": 0.1092129999999969,
          "durationTicks": 156,
          "midi": 69,
          "name": "A4",
          "ticks": 172560,
          "time": 120.80638,
          "velocity": 0.3464566929133858
        },
        {
          "duration": 0.1092129999999969,
          "durationTicks": 156,
          "midi": 65,
          "name": "F4",
          "ticks": 172680,
          "time": 120.89039,
          "velocity": 0.3464566929133858
        },
        {
          "duration": 0.1092129999999969,
          "durationTicks": 156,
          "midi": 72,
          "name": "C5",
          "ticks": 172800,
          "time": 120.9744,
          "velocity": 0.3464566929133858
        },
        {
          "duration": 0.1092129999999969,
          "durationTicks": 156,
          "midi": 67,
          "name": "G4",
          "ticks": 172920,
          "time": 121.05841,
          "velocity": 0.3464566929133858
        },
        {
          "duration": 0.1092129999999969,
          "durationTicks": 156,
          "midi": 64,
          "name": "E4",
          "ticks": 173040,
          "time": 121.14242,
          "velocity": 0.3464566929133858
        },
        {
          "duration": 0.1092129999999969,
          "durationTicks": 156,
          "midi": 60,
          "name": "C4",
          "ticks": 173160,
          "time": 121.22643000000001,
          "velocity": 0.3464566929133858
        },
        {
          "duration": 0.1092129999999969,
          "durationTicks": 156,
          "midi": 72,
          "name": "C5",
          "ticks": 173280,
          "time": 121.31044,
          "velocity": 0.3464566929133858
        },
        {
          "duration": 0.1092129999999969,
          "durationTicks": 156,
          "midi": 60,
          "name": "C4",
          "ticks": 173400,
          "time": 121.39445,
          "velocity": 0.3464566929133858
        },
        {
          "duration": 0.1092129999999969,
          "durationTicks": 156,
          "midi": 72,
          "name": "C5",
          "ticks": 173520,
          "time": 121.47846,
          "velocity": 0.3464566929133858
        },
        {
          "duration": 0.1092129999999969,
          "durationTicks": 156,
          "midi": 67,
          "name": "G4",
          "ticks": 173640,
          "time": 121.56247,
          "velocity": 0.3464566929133858
        },
        {
          "duration": 0.1092129999999969,
          "durationTicks": 156,
          "midi": 64,
          "name": "E4",
          "ticks": 173760,
          "time": 121.64648,
          "velocity": 0.3464566929133858
        },
        {
          "duration": 0.1092129999999969,
          "durationTicks": 156,
          "midi": 60,
          "name": "C4",
          "ticks": 173880,
          "time": 121.73049,
          "velocity": 0.3464566929133858
        },
        {
          "duration": 0.1092129999999969,
          "durationTicks": 156,
          "midi": 72,
          "name": "C5",
          "ticks": 174000,
          "time": 121.8145,
          "velocity": 0.3464566929133858
        },
        {
          "duration": 0.1092129999999969,
          "durationTicks": 156,
          "midi": 60,
          "name": "C4",
          "ticks": 174120,
          "time": 121.89851,
          "velocity": 0.3464566929133858
        },
        {
          "duration": 0.1092129999999969,
          "durationTicks": 156,
          "midi": 64,
          "name": "E4",
          "ticks": 174720,
          "time": 122.31856,
          "velocity": 0.3464566929133858
        },
        {
          "duration": 0.1092129999999969,
          "durationTicks": 156,
          "midi": 67,
          "name": "G4",
          "ticks": 174840,
          "time": 122.40257,
          "velocity": 0.3464566929133858
        },
        {
          "duration": 0.1092129999999969,
          "durationTicks": 156,
          "midi": 70,
          "name": "A#4",
          "ticks": 174960,
          "time": 122.48658,
          "velocity": 0.3464566929133858
        },
        {
          "duration": 0.1092129999999969,
          "durationTicks": 156,
          "midi": 67,
          "name": "G4",
          "ticks": 175080,
          "time": 122.57059,
          "velocity": 0.3464566929133858
        },
        {
          "duration": 0.1092129999999969,
          "durationTicks": 156,
          "midi": 64,
          "name": "E4",
          "ticks": 175200,
          "time": 122.6546,
          "velocity": 0.3464566929133858
        },
        {
          "duration": 0.10921299999998269,
          "durationTicks": 156,
          "midi": 60,
          "name": "C4",
          "ticks": 175320,
          "time": 122.73861000000001,
          "velocity": 0.3464566929133858
        },
        {
          "duration": 0.1092129999999969,
          "durationTicks": 156,
          "midi": 69,
          "name": "A4",
          "ticks": 175440,
          "time": 122.82262,
          "velocity": 0.3464566929133858
        },
        {
          "duration": 0.1092129999999969,
          "durationTicks": 156,
          "midi": 65,
          "name": "F4",
          "ticks": 175560,
          "time": 122.90663,
          "velocity": 0.3464566929133858
        },
        {
          "duration": 0.1092129999999969,
          "durationTicks": 156,
          "midi": 62,
          "name": "D4",
          "ticks": 175920,
          "time": 123.15866,
          "velocity": 0.3464566929133858
        },
        {
          "duration": 0.1092129999999969,
          "durationTicks": 156,
          "midi": 67,
          "name": "G4",
          "ticks": 176040,
          "time": 123.24267,
          "velocity": 0.3464566929133858
        },
        {
          "duration": 0.1092129999999969,
          "durationTicks": 156,
          "midi": 70,
          "name": "A#4",
          "ticks": 176160,
          "time": 123.32668,
          "velocity": 0.3464566929133858
        },
        {
          "duration": 0.1092129999999969,
          "durationTicks": 156,
          "midi": 74,
          "name": "D5",
          "ticks": 176280,
          "time": 123.41069,
          "velocity": 0.3464566929133858
        },
        {
          "duration": 0.1092129999999969,
          "durationTicks": 156,
          "midi": 60,
          "name": "C4",
          "ticks": 176640,
          "time": 123.66272000000001,
          "velocity": 0.3464566929133858
        },
        {
          "duration": 0.1092129999999969,
          "durationTicks": 156,
          "midi": 64,
          "name": "E4",
          "ticks": 176760,
          "time": 123.74673,
          "velocity": 0.3464566929133858
        },
        {
          "duration": 0.1092129999999969,
          "durationTicks": 156,
          "midi": 67,
          "name": "G4",
          "ticks": 176880,
          "time": 123.83074,
          "velocity": 0.3464566929133858
        },
        {
          "duration": 0.1092129999999969,
          "durationTicks": 156,
          "midi": 70,
          "name": "A#4",
          "ticks": 177000,
          "time": 123.91475,
          "velocity": 0.3464566929133858
        },
        {
          "duration": 0.08120966666668039,
          "durationTicks": 116,
          "midi": 65,
          "name": "F4",
          "ticks": 177240,
          "time": 124.08277,
          "velocity": 0.2755905511811024
        },
        {
          "duration": 0.08120966666666618,
          "durationTicks": 116,
          "midi": 69,
          "name": "A4",
          "ticks": 177360,
          "time": 124.16678,
          "velocity": 0.2992125984251969
        },
        {
          "duration": 0.08120966666668039,
          "durationTicks": 116,
          "midi": 72,
          "name": "C5",
          "ticks": 177480,
          "time": 124.25079,
          "velocity": 0.3228346456692913
        },
        {
          "duration": 0.08120966666666618,
          "durationTicks": 116,
          "midi": 77,
          "name": "F5",
          "ticks": 177600,
          "time": 124.3348,
          "velocity": 0.3543307086614173
        },
        {
          "duration": 0.08120966666666618,
          "durationTicks": 116,
          "midi": 81,
          "name": "A5",
          "ticks": 177720,
          "time": 124.41881000000001,
          "velocity": 0.3858267716535433
        },
        {
          "duration": 0.08120966666666618,
          "durationTicks": 116,
          "midi": 84,
          "name": "C6",
          "ticks": 177840,
          "time": 124.50282,
          "velocity": 0.4251968503937008
        },
        {
          "duration": 0.08120966666666618,
          "durationTicks": 116,
          "midi": 81,
          "name": "A5",
          "ticks": 177960,
          "time": 124.58683,
          "velocity": 0.3464566929133858
        },
        {
          "duration": 0.08120966666666618,
          "durationTicks": 116,
          "midi": 77,
          "name": "F5",
          "ticks": 178080,
          "time": 124.67084,
          "velocity": 0.3464566929133858
        },
        {
          "duration": 0.08120966666666618,
          "durationTicks": 116,
          "midi": 72,
          "name": "C5",
          "ticks": 178200,
          "time": 124.75485,
          "velocity": 0.3464566929133858
        },
        {
          "duration": 0.08120966666668039,
          "durationTicks": 116,
          "midi": 69,
          "name": "A4",
          "ticks": 178320,
          "time": 124.83886,
          "velocity": 0.3464566929133858
        },
        {
          "duration": 0.08120966666666618,
          "durationTicks": 116,
          "midi": 65,
          "name": "F4",
          "ticks": 178440,
          "time": 124.92287,
          "velocity": 0.29133858267716534
        },
        {
          "duration": 0.08120966666666618,
          "durationTicks": 116,
          "midi": 67,
          "name": "G4",
          "ticks": 178680,
          "time": 125.09089,
          "velocity": 0.2992125984251969
        },
        {
          "duration": 0.08120966666666618,
          "durationTicks": 116,
          "midi": 70,
          "name": "A#4",
          "ticks": 178800,
          "time": 125.17490000000001,
          "velocity": 0.33070866141732286
        },
        {
          "duration": 0.08120966666666618,
          "durationTicks": 116,
          "midi": 73,
          "name": "C#5",
          "ticks": 178920,
          "time": 125.25891,
          "velocity": 0.36220472440944884
        },
        {
          "duration": 0.08120966666666618,
          "durationTicks": 116,
          "midi": 79,
          "name": "G5",
          "ticks": 179040,
          "time": 125.34292,
          "velocity": 0.3937007874015748
        },
        {
          "duration": 0.08120966666666618,
          "durationTicks": 116,
          "midi": 82,
          "name": "A#5",
          "ticks": 179160,
          "time": 125.42693,
          "velocity": 0.4251968503937008
        },
        {
          "duration": 0.08120966666666618,
          "durationTicks": 116,
          "midi": 85,
          "name": "C#6",
          "ticks": 179280,
          "time": 125.51094,
          "velocity": 0.47244094488188976
        },
        {
          "duration": 0.08120966666668039,
          "durationTicks": 116,
          "midi": 82,
          "name": "A#5",
          "ticks": 179400,
          "time": 125.59495,
          "velocity": 0.3858267716535433
        },
        {
          "duration": 0.08120966666666618,
          "durationTicks": 116,
          "midi": 79,
          "name": "G5",
          "ticks": 179520,
          "time": 125.67896,
          "velocity": 0.3858267716535433
        },
        {
          "duration": 0.08120966666668039,
          "durationTicks": 116,
          "midi": 73,
          "name": "C#5",
          "ticks": 179640,
          "time": 125.76297,
          "velocity": 0.3858267716535433
        },
        {
          "duration": 0.08120966666666618,
          "durationTicks": 116,
          "midi": 70,
          "name": "A#4",
          "ticks": 179760,
          "time": 125.84698,
          "velocity": 0.3858267716535433
        },
        {
          "duration": 0.08120966666666618,
          "durationTicks": 116,
          "midi": 67,
          "name": "G4",
          "ticks": 179880,
          "time": 125.93099000000001,
          "velocity": 0.33070866141732286
        },
        {
          "duration": 0.08120966666666618,
          "durationTicks": 116,
          "midi": 69,
          "name": "A4",
          "ticks": 180120,
          "time": 126.09901,
          "velocity": 0.33070866141732286
        },
        {
          "duration": 0.08120966666666618,
          "durationTicks": 116,
          "midi": 72,
          "name": "C5",
          "ticks": 180240,
          "time": 126.18302,
          "velocity": 0.36220472440944884
        },
        {
          "duration": 0.08120966666666618,
          "durationTicks": 116,
          "midi": 75,
          "name": "D#5",
          "ticks": 180360,
          "time": 126.26703,
          "velocity": 0.3937007874015748
        },
        {
          "duration": 0.08120966666668039,
          "durationTicks": 116,
          "midi": 81,
          "name": "A5",
          "ticks": 180480,
          "time": 126.35104,
          "velocity": 0.4409448818897638
        },
        {
          "duration": 0.08120966666666618,
          "durationTicks": 116,
          "midi": 84,
          "name": "C6",
          "ticks": 180600,
          "time": 126.43505,
          "velocity": 0.47244094488188976
        },
        {
          "duration": 0.08120966666668039,
          "durationTicks": 116,
          "midi": 87,
          "name": "D#6",
          "ticks": 180720,
          "time": 126.51906,
          "velocity": 0.5118110236220472
        },
        {
          "duration": 0.08120966666666618,
          "durationTicks": 116,
          "midi": 84,
          "name": "C6",
          "ticks": 180840,
          "time": 126.60307,
          "velocity": 0.4330708661417323
        },
        {
          "duration": 0.08120966666666618,
          "durationTicks": 116,
          "midi": 81,
          "name": "A5",
          "ticks": 180960,
          "time": 126.68708000000001,
          "velocity": 0.4330708661417323
        },
        {
          "duration": 0.08120966666666618,
          "durationTicks": 116,
          "midi": 75,
          "name": "D#5",
          "ticks": 181080,
          "time": 126.77109,
          "velocity": 0.4251968503937008
        },
        {
          "duration": 0.08120966666666618,
          "durationTicks": 116,
          "midi": 72,
          "name": "C5",
          "ticks": 181200,
          "time": 126.85510000000001,
          "velocity": 0.4409448818897638
        },
        {
          "duration": 0.08120966666666618,
          "durationTicks": 116,
          "midi": 69,
          "name": "A4",
          "ticks": 181320,
          "time": 126.93911,
          "velocity": 0.36220472440944884
        },
        {
          "duration": 0.08120966666668039,
          "durationTicks": 116,
          "midi": 70,
          "name": "A#4",
          "ticks": 181560,
          "time": 127.10713,
          "velocity": 0.3700787401574803
        },
        {
          "duration": 0.08120966666666618,
          "durationTicks": 116,
          "midi": 74,
          "name": "D5",
          "ticks": 181680,
          "time": 127.19114,
          "velocity": 0.4015748031496063
        },
        {
          "duration": 0.08120966666668039,
          "durationTicks": 116,
          "midi": 77,
          "name": "F5",
          "ticks": 181800,
          "time": 127.27515,
          "velocity": 0.4409448818897638
        },
        {
          "duration": 0.08120966666666618,
          "durationTicks": 116,
          "midi": 82,
          "name": "A#5",
          "ticks": 181920,
          "time": 127.35916,
          "velocity": 0.4881889763779528
        },
        {
          "duration": 0.08120966666668039,
          "durationTicks": 116,
          "midi": 86,
          "name": "D6",
          "ticks": 182040,
          "time": 127.44317,
          "velocity": 0.5196850393700787
        },
        {
          "duration": 0.08120966666666618,
          "durationTicks": 116,
          "midi": 89,
          "name": "F6",
          "ticks": 182160,
          "time": 127.52718,
          "velocity": 0.5590551181102362
        },
        {
          "duration": 0.08120966666666618,
          "durationTicks": 116,
          "midi": 86,
          "name": "D6",
          "ticks": 182280,
          "time": 127.61119000000001,
          "velocity": 0.48031496062992124
        },
        {
          "duration": 0.08120966666666618,
          "durationTicks": 116,
          "midi": 82,
          "name": "A#5",
          "ticks": 182400,
          "time": 127.6952,
          "velocity": 0.48031496062992124
        },
        {
          "duration": 0.08120966666666618,
          "durationTicks": 116,
          "midi": 77,
          "name": "F5",
          "ticks": 182520,
          "time": 127.77921,
          "velocity": 0.47244094488188976
        },
        {
          "duration": 0.08120966666666618,
          "durationTicks": 116,
          "midi": 74,
          "name": "D5",
          "ticks": 182640,
          "time": 127.86322,
          "velocity": 0.47244094488188976
        },
        {
          "duration": 0.08120966666668039,
          "durationTicks": 116,
          "midi": 70,
          "name": "A#4",
          "ticks": 182760,
          "time": 127.94723,
          "velocity": 0.3779527559055118
        },
        {
          "duration": 0.08120966666666618,
          "durationTicks": 116,
          "midi": 87,
          "name": "D#6",
          "ticks": 182880,
          "time": 128.03124,
          "velocity": 0.5196850393700787
        },
        {
          "duration": 0.08120966666666618,
          "durationTicks": 116,
          "midi": 84,
          "name": "C6",
          "ticks": 183000,
          "time": 128.11525,
          "velocity": 0.5196850393700787
        },
        {
          "duration": 0.08120966666666618,
          "durationTicks": 116,
          "midi": 81,
          "name": "A5",
          "ticks": 183120,
          "time": 128.19926,
          "velocity": 0.5275590551181102
        },
        {
          "duration": 0.08120966666666618,
          "durationTicks": 116,
          "midi": 84,
          "name": "C6",
          "ticks": 183240,
          "time": 128.28327000000002,
          "velocity": 0.5354330708661418
        },
        {
          "duration": 0.08120966666666618,
          "durationTicks": 116,
          "midi": 87,
          "name": "D#6",
          "ticks": 183360,
          "time": 128.36728,
          "velocity": 0.5433070866141733
        },
        {
          "duration": 0.08120966666666618,
          "durationTicks": 116,
          "midi": 84,
          "name": "C6",
          "ticks": 183480,
          "time": 128.45129,
          "velocity": 0.5511811023622047
        },
        {
          "duration": 0.08120966666666618,
          "durationTicks": 116,
          "midi": 87,
          "name": "D#6",
          "ticks": 183600,
          "time": 128.5353,
          "velocity": 0.5590551181102362
        },
        {
          "duration": 0.08120966666666618,
          "durationTicks": 116,
          "midi": 84,
          "name": "C6",
          "ticks": 183720,
          "time": 128.61931,
          "velocity": 0.5669291338582677
        },
        {
          "duration": 0.0812096666666946,
          "durationTicks": 116,
          "midi": 81,
          "name": "A5",
          "ticks": 183840,
          "time": 128.70332,
          "velocity": 0.5748031496062992
        },
        {
          "duration": 0.08120966666666618,
          "durationTicks": 116,
          "midi": 84,
          "name": "C6",
          "ticks": 183960,
          "time": 128.78733,
          "velocity": 0.5826771653543307
        },
        {
          "duration": 0.08120966666666618,
          "durationTicks": 116,
          "midi": 87,
          "name": "D#6",
          "ticks": 184080,
          "time": 128.87134,
          "velocity": 0.5905511811023622
        },
        {
          "duration": 0.08120966666666618,
          "durationTicks": 116,
          "midi": 84,
          "name": "C6",
          "ticks": 184200,
          "time": 128.95535,
          "velocity": 0.5984251968503937
        },
        {
          "duration": 0.1092130000000111,
          "durationTicks": 156,
          "midi": 87,
          "name": "D#6",
          "ticks": 184320,
          "time": 129.03936,
          "velocity": 0.6062992125984252
        },
        {
          "duration": 0.1092130000000111,
          "durationTicks": 156,
          "midi": 84,
          "name": "C6",
          "ticks": 184440,
          "time": 129.12337,
          "velocity": 0.5196850393700787
        },
        {
          "duration": 0.1092130000000111,
          "durationTicks": 156,
          "midi": 81,
          "name": "A5",
          "ticks": 184560,
          "time": 129.20738,
          "velocity": 0.5196850393700787
        },
        {
          "duration": 0.10921299999998269,
          "durationTicks": 156,
          "midi": 77,
          "name": "F5",
          "ticks": 184680,
          "time": 129.29139,
          "velocity": 0.5196850393700787
        },
        {
          "duration": 0.10921299999998269,
          "durationTicks": 156,
          "midi": 75,
          "name": "D#5",
          "ticks": 184800,
          "time": 129.3754,
          "velocity": 0.5196850393700787
        },
        {
          "duration": 0.1092130000000111,
          "durationTicks": 156,
          "midi": 72,
          "name": "C5",
          "ticks": 184920,
          "time": 129.45941,
          "velocity": 0.5196850393700787
        },
        {
          "duration": 0.1092130000000111,
          "durationTicks": 156,
          "midi": 69,
          "name": "A4",
          "ticks": 185040,
          "time": 129.54342,
          "velocity": 0.5196850393700787
        },
        {
          "duration": 0.10921299999998269,
          "durationTicks": 156,
          "midi": 72,
          "name": "C5",
          "ticks": 185160,
          "time": 129.62743,
          "velocity": 0.5196850393700787
        },
        {
          "duration": 0.16521966666667254,
          "durationTicks": 236,
          "midi": 75,
          "name": "D#5",
          "ticks": 185280,
          "time": 129.71144,
          "velocity": 0.5196850393700787
        },
        {
          "duration": 0.16521966666667254,
          "durationTicks": 236,
          "midi": 77,
          "name": "F5",
          "ticks": 185400,
          "time": 129.79545,
          "velocity": 0.5275590551181102
        },
        {
          "duration": 0.16521966666667254,
          "durationTicks": 236,
          "midi": 81,
          "name": "A5",
          "ticks": 185520,
          "time": 129.87946,
          "velocity": 0.5275590551181102
        },
        {
          "duration": 0.1745615333333319,
          "durationTicks": 236,
          "midi": 84,
          "name": "C6",
          "ticks": 185640,
          "time": 129.96347,
          "velocity": 0.5275590551181102
        },
        {
          "duration": 0.1842255333333469,
          "durationTicks": 236,
          "midi": 87,
          "name": "D#6",
          "ticks": 185760,
          "time": 130.04748,
          "velocity": 0.5275590551181102
        },
        {
          "duration": 0.1842255333333469,
          "durationTicks": 236,
          "midi": 84,
          "name": "C6",
          "ticks": 185880,
          "time": 130.141154,
          "velocity": 0.5275590551181102
        },
        {
          "duration": 0.1842255333333469,
          "durationTicks": 236,
          "midi": 81,
          "name": "A5",
          "ticks": 186000,
          "time": 130.234828,
          "velocity": 0.5275590551181102
        },
        {
          "duration": 0.18422553333331848,
          "durationTicks": 236,
          "midi": 77,
          "name": "F5",
          "ticks": 186120,
          "time": 130.32850200000001,
          "velocity": 0.5196850393700787
        },
        {
          "duration": 0.1842255333333469,
          "durationTicks": 236,
          "midi": 75,
          "name": "D#5",
          "ticks": 186240,
          "time": 130.422176,
          "velocity": 0.5118110236220472
        },
        {
          "duration": 0.19629992500000526,
          "durationTicks": 236,
          "midi": 72,
          "name": "C5",
          "ticks": 186360,
          "time": 130.51585,
          "velocity": 0.5118110236220472
        },
        {
          "duration": 0.20879067499998882,
          "durationTicks": 236,
          "midi": 69,
          "name": "A4",
          "ticks": 186480,
          "time": 130.609524,
          "velocity": 0.5039370078740157
        },
        {
          "duration": 0.20879067499998882,
          "durationTicks": 236,
          "midi": 72,
          "name": "C5",
          "ticks": 186600,
          "time": 130.71568875,
          "velocity": 0.5039370078740157
        },
        {
          "duration": 0.20879067499998882,
          "durationTicks": 236,
          "midi": 75,
          "name": "D#5",
          "ticks": 186720,
          "time": 130.8218535,
          "velocity": 0.49606299212598426
        },
        {
          "duration": 0.20879067500001725,
          "durationTicks": 236,
          "midi": 77,
          "name": "F5",
          "ticks": 186840,
          "time": 130.92801824999998,
          "velocity": 0.49606299212598426
        },
        {
          "duration": 0.20879067500001725,
          "durationTicks": 236,
          "midi": 81,
          "name": "A5",
          "ticks": 186960,
          "time": 131.03418299999998,
          "velocity": 0.4881889763779528
        },
        {
          "duration": 0.18876230833333807,
          "durationTicks": 236,
          "midi": 84,
          "name": "C6",
          "ticks": 187080,
          "time": 131.14034775,
          "velocity": 0.5590551181102362
        },
        {
          "duration": 1.3642838083333402,
          "durationTicks": 1916,
          "midi": 87,
          "name": "D#6",
          "ticks": 187200,
          "time": 131.2465125,
          "velocity": 0.6614173228346457
        },
        {
          "duration": 0.08259755833333315,
          "durationTicks": 116,
          "midi": 86,
          "name": "D6",
          "ticks": 189840,
          "time": 133.126319,
          "velocity": 0.5039370078740157
        },
        {
          "duration": 0.08259755833333315,
          "durationTicks": 116,
          "midi": 87,
          "name": "D#6",
          "ticks": 189960,
          "time": 133.21176475,
          "velocity": 0.4251968503937008
        },
        {
          "duration": 0.08259755833333315,
          "durationTicks": 116,
          "midi": 89,
          "name": "F6",
          "ticks": 190080,
          "time": 133.2972105,
          "velocity": 0.3464566929133858
        },
        {
          "duration": 0.08259755833333315,
          "durationTicks": 116,
          "midi": 87,
          "name": "D#6",
          "ticks": 190200,
          "time": 133.38265625,
          "velocity": 0.3464566929133858
        },
        {
          "duration": 0.08259755833333315,
          "durationTicks": 116,
          "midi": 86,
          "name": "D6",
          "ticks": 190320,
          "time": 133.468102,
          "velocity": 0.3464566929133858
        },
        {
          "duration": 0.08259755833333315,
          "durationTicks": 116,
          "midi": 84,
          "name": "C6",
          "ticks": 190440,
          "time": 133.55354775,
          "velocity": 0.3464566929133858
        },
        {
          "duration": 0.08259755833333315,
          "durationTicks": 116,
          "midi": 83,
          "name": "B5",
          "ticks": 190560,
          "time": 133.6389935,
          "velocity": 0.5039370078740157
        },
        {
          "duration": 0.08259755833333315,
          "durationTicks": 116,
          "midi": 84,
          "name": "C6",
          "ticks": 190680,
          "time": 133.72443925,
          "velocity": 0.4330708661417323
        },
        {
          "duration": 0.08259755833333315,
          "durationTicks": 116,
          "midi": 86,
          "name": "D6",
          "ticks": 190800,
          "time": 133.809885,
          "velocity": 0.3543307086614173
        },
        {
          "duration": 0.08259755833333315,
          "durationTicks": 116,
          "midi": 84,
          "name": "C6",
          "ticks": 190920,
          "time": 133.89533075,
          "velocity": 0.3543307086614173
        },
        {
          "duration": 0.08259755833333315,
          "durationTicks": 116,
          "midi": 82,
          "name": "A#5",
          "ticks": 191040,
          "time": 133.9807765,
          "velocity": 0.36220472440944884
        },
        {
          "duration": 0.08259755833333315,
          "durationTicks": 116,
          "midi": 81,
          "name": "A5",
          "ticks": 191160,
          "time": 134.06622224999998,
          "velocity": 0.36220472440944884
        },
        {
          "duration": 0.08259755833333315,
          "durationTicks": 116,
          "midi": 80,
          "name": "G#5",
          "ticks": 191280,
          "time": 134.151668,
          "velocity": 0.4409448818897638
        },
        {
          "duration": 0.08259755833333315,
          "durationTicks": 116,
          "midi": 81,
          "name": "A5",
          "ticks": 191400,
          "time": 134.23711375,
          "velocity": 0.3700787401574803
        },
        {
          "duration": 0.08259755833333315,
          "durationTicks": 116,
          "midi": 82,
          "name": "A#5",
          "ticks": 191520,
          "time": 134.32255949999998,
          "velocity": 0.3700787401574803
        },
        {
          "duration": 0.08259755833333315,
          "durationTicks": 116,
          "midi": 81,
          "name": "A5",
          "ticks": 191640,
          "time": 134.40800525,
          "velocity": 0.3700787401574803
        },
        {
          "duration": 0.08259755833333315,
          "durationTicks": 116,
          "midi": 79,
          "name": "G5",
          "ticks": 191760,
          "time": 134.493451,
          "velocity": 0.3700787401574803
        },
        {
          "duration": 0.08259755833333315,
          "durationTicks": 116,
          "midi": 77,
          "name": "F5",
          "ticks": 191880,
          "time": 134.57889674999998,
          "velocity": 0.3700787401574803
        },
        {
          "duration": 0.08259755833333315,
          "durationTicks": 116,
          "midi": 76,
          "name": "E5",
          "ticks": 192000,
          "time": 134.6643425,
          "velocity": 0.4566929133858268
        },
        {
          "duration": 0.08259755833333315,
          "durationTicks": 116,
          "midi": 77,
          "name": "F5",
          "ticks": 192120,
          "time": 134.74978825,
          "velocity": 0.3779527559055118
        },
        {
          "duration": 0.08259755833333315,
          "durationTicks": 116,
          "midi": 79,
          "name": "G5",
          "ticks": 192240,
          "time": 134.83523399999999,
          "velocity": 0.3858267716535433
        },
        {
          "duration": 0.08259755833333315,
          "durationTicks": 116,
          "midi": 77,
          "name": "F5",
          "ticks": 192360,
          "time": 134.92067975,
          "velocity": 0.3858267716535433
        },
        {
          "duration": 0.08259755833333315,
          "durationTicks": 116,
          "midi": 75,
          "name": "D#5",
          "ticks": 192480,
          "time": 135.0061255,
          "velocity": 0.3858267716535433
        },
        {
          "duration": 0.08259755833333315,
          "durationTicks": 116,
          "midi": 74,
          "name": "D5",
          "ticks": 192600,
          "time": 135.09157125,
          "velocity": 0.3858267716535433
        },
        {
          "duration": 0.08259755833333315,
          "durationTicks": 116,
          "midi": 73,
          "name": "C#5",
          "ticks": 192720,
          "time": 135.177017,
          "velocity": 0.47244094488188976
        },
        {
          "duration": 0.08259755833333315,
          "durationTicks": 116,
          "midi": 74,
          "name": "D5",
          "ticks": 192840,
          "time": 135.26246275,
          "velocity": 0.3937007874015748
        },
        {
          "duration": 0.08259755833333315,
          "durationTicks": 116,
          "midi": 75,
          "name": "D#5",
          "ticks": 192960,
          "time": 135.3479085,
          "velocity": 0.3937007874015748
        },
        {
          "duration": 0.08259755833333315,
          "durationTicks": 116,
          "midi": 74,
          "name": "D5",
          "ticks": 193080,
          "time": 135.43335425,
          "velocity": 0.4015748031496063
        },
        {
          "duration": 0.08259755833333315,
          "durationTicks": 116,
          "midi": 72,
          "name": "C5",
          "ticks": 193200,
          "time": 135.5188,
          "velocity": 0.4015748031496063
        },
        {
          "duration": 0.08259755833333315,
          "durationTicks": 116,
          "midi": 70,
          "name": "A#4",
          "ticks": 193320,
          "time": 135.60424575,
          "velocity": 0.4015748031496063
        },
        {
          "duration": 0.08259755833336158,
          "durationTicks": 116,
          "midi": 69,
          "name": "A4",
          "ticks": 193440,
          "time": 135.68969149999998,
          "velocity": 0.48031496062992124
        },
        {
          "duration": 0.08259755833333315,
          "durationTicks": 116,
          "midi": 70,
          "name": "A#4",
          "ticks": 193560,
          "time": 135.77513725,
          "velocity": 0.4094488188976378
        },
        {
          "duration": 0.08259755833333315,
          "durationTicks": 116,
          "midi": 72,
          "name": "C5",
          "ticks": 193680,
          "time": 135.860583,
          "velocity": 0.4094488188976378
        },
        {
          "duration": 0.08259755833333315,
          "durationTicks": 116,
          "midi": 70,
          "name": "A#4",
          "ticks": 193800,
          "time": 135.94602874999998,
          "velocity": 0.4094488188976378
        },
        {
          "duration": 0.08259755833333315,
          "durationTicks": 116,
          "midi": 69,
          "name": "A4",
          "ticks": 193920,
          "time": 136.0314745,
          "velocity": 0.41732283464566927
        },
        {
          "duration": 0.08259755833333315,
          "durationTicks": 116,
          "midi": 67,
          "name": "G4",
          "ticks": 194040,
          "time": 136.11692025,
          "velocity": 0.41732283464566927
        },
        {
          "duration": 0.08259755833333315,
          "durationTicks": 116,
          "midi": 66,
          "name": "F#4",
          "ticks": 194160,
          "time": 136.20236599999998,
          "velocity": 0.49606299212598426
        },
        {
          "duration": 0.08259755833333315,
          "durationTicks": 116,
          "midi": 67,
          "name": "G4",
          "ticks": 194280,
          "time": 136.28781175,
          "velocity": 0.4251968503937008
        },
        {
          "duration": 0.08259755833333315,
          "durationTicks": 116,
          "midi": 69,
          "name": "A4",
          "ticks": 194400,
          "time": 136.3732575,
          "velocity": 0.3464566929133858
        },
        {
          "duration": 0.08259755833333315,
          "durationTicks": 116,
          "midi": 67,
          "name": "G4",
          "ticks": 194520,
          "time": 136.45870324999999,
          "velocity": 0.3464566929133858
        },
        {
          "duration": 0.08259755833333315,
          "durationTicks": 116,
          "midi": 65,
          "name": "F4",
          "ticks": 194640,
          "time": 136.544149,
          "velocity": 0.3464566929133858
        },
        {
          "duration": 0.08259755833333315,
          "durationTicks": 116,
          "midi": 64,
          "name": "E4",
          "ticks": 194760,
          "time": 136.62959475,
          "velocity": 0.3464566929133858
        },
        {
          "duration": 0.08259755833333315,
          "durationTicks": 116,
          "midi": 63,
          "name": "D#4",
          "ticks": 194880,
          "time": 136.7150405,
          "velocity": 0.5039370078740157
        },
        {
          "duration": 0.08259755833333315,
          "durationTicks": 116,
          "midi": 64,
          "name": "E4",
          "ticks": 195000,
          "time": 136.80048625,
          "velocity": 0.4251968503937008
        },
        {
          "duration": 0.08259755833333315,
          "durationTicks": 116,
          "midi": 65,
          "name": "F4",
          "ticks": 195120,
          "time": 136.885932,
          "velocity": 0.3464566929133858
        },
        {
          "duration": 0.08259755833333315,
          "durationTicks": 116,
          "midi": 64,
          "name": "E4",
          "ticks": 195240,
          "time": 136.97137775,
          "velocity": 0.3779527559055118
        },
        {
          "duration": 0.08259755833333315,
          "durationTicks": 116,
          "midi": 62,
          "name": "D4",
          "ticks": 195360,
          "time": 137.0568235,
          "velocity": 0.4094488188976378
        },
        {
          "duration": 0.08259755833333315,
          "durationTicks": 116,
          "midi": 60,
          "name": "C4",
          "ticks": 195480,
          "time": 137.14226925,
          "velocity": 0.44881889763779526
        },
        {
          "duration": 0.08259755833333315,
          "durationTicks": 116,
          "midi": 59,
          "name": "B3",
          "ticks": 195600,
          "time": 137.227715,
          "velocity": 0.48031496062992124
        },
        {
          "duration": 0.08259755833330473,
          "durationTicks": 116,
          "midi": 60,
          "name": "C4",
          "ticks": 195720,
          "time": 137.31316075,
          "velocity": 0.4409448818897638
        },
        {
          "duration": 0.680717808333327,
          "durationTicks": 956,
          "midi": 58,
          "name": "A#3",
          "ticks": 195840,
          "time": 137.3986065,
          "velocity": 0.4251968503937008
        },
        {
          "duration": 0.5098263083333165,
          "durationTicks": 716,
          "midi": 65,
          "name": "F4",
          "ticks": 195840,
          "time": 137.3986065,
          "velocity": 0.3464566929133858
        },
        {
          "duration": 0.680717808333327,
          "durationTicks": 956,
          "midi": 70,
          "name": "A#4",
          "ticks": 195840,
          "time": 137.3986065,
          "velocity": 0.5039370078740157
        },
        {
          "duration": 0.16804330833332415,
          "durationTicks": 236,
          "midi": 64,
          "name": "E4",
          "ticks": 196560,
          "time": 137.911281,
          "velocity": 0.4251968503937008
        },
        {
          "duration": 0.680717808333327,
          "durationTicks": 956,
          "midi": 58,
          "name": "A#3",
          "ticks": 197280,
          "time": 138.4239555,
          "velocity": 0.4251968503937008
        },
        {
          "duration": 0.5098263083333165,
          "durationTicks": 716,
          "midi": 65,
          "name": "F4",
          "ticks": 197280,
          "time": 138.4239555,
          "velocity": 0.3464566929133858
        },
        {
          "duration": 0.680717808333327,
          "durationTicks": 956,
          "midi": 70,
          "name": "A#4",
          "ticks": 197280,
          "time": 138.4239555,
          "velocity": 0.5039370078740157
        },
        {
          "duration": 0.16804330833332415,
          "durationTicks": 236,
          "midi": 64,
          "name": "E4",
          "ticks": 198000,
          "time": 138.93663,
          "velocity": 0.4251968503937008
        },
        {
          "duration": 0.33893480833333456,
          "durationTicks": 476,
          "midi": 58,
          "name": "A#3",
          "ticks": 198480,
          "time": 139.278413,
          "velocity": 0.4251968503937008
        },
        {
          "duration": 0.16804330833332415,
          "durationTicks": 236,
          "midi": 65,
          "name": "F4",
          "ticks": 198480,
          "time": 139.278413,
          "velocity": 0.3464566929133858
        },
        {
          "duration": 0.33893480833333456,
          "durationTicks": 476,
          "midi": 70,
          "name": "A#4",
          "ticks": 198480,
          "time": 139.278413,
          "velocity": 0.5039370078740157
        },
        {
          "duration": 0.16804330833335257,
          "durationTicks": 236,
          "midi": 64,
          "name": "E4",
          "ticks": 198720,
          "time": 139.44930449999998,
          "velocity": 0.4251968503937008
        },
        {
          "duration": 0.33893480833333456,
          "durationTicks": 476,
          "midi": 58,
          "name": "A#3",
          "ticks": 199200,
          "time": 139.7910875,
          "velocity": 0.3464566929133858
        },
        {
          "duration": 0.16804330833332415,
          "durationTicks": 236,
          "midi": 65,
          "name": "F4",
          "ticks": 199200,
          "time": 139.7910875,
          "velocity": 0.3464566929133858
        },
        {
          "duration": 0.33893480833333456,
          "durationTicks": 476,
          "midi": 70,
          "name": "A#4",
          "ticks": 199200,
          "time": 139.7910875,
          "velocity": 0.5039370078740157
        },
        {
          "duration": 0.16804330833335257,
          "durationTicks": 236,
          "midi": 64,
          "name": "E4",
          "ticks": 199440,
          "time": 139.96197899999999,
          "velocity": 0.4251968503937008
        },
        {
          "duration": 1.324255708333311,
          "durationTicks": 1196,
          "midi": 58,
          "name": "A#3",
          "ticks": 199920,
          "time": 140.303762,
          "velocity": 0.3464566929133858
        },
        {
          "duration": 0.16804330833332415,
          "durationTicks": 236,
          "midi": 65,
          "name": "F4",
          "ticks": 199920,
          "time": 140.303762,
          "velocity": 0.3464566929133858
        },
        {
          "duration": 1.324255708333311,
          "durationTicks": 1196,
          "midi": 70,
          "name": "A#4",
          "ticks": 199920,
          "time": 140.303762,
          "velocity": 0.5039370078740157
        },
        {
          "duration": 1.153364208333329,
          "durationTicks": 956,
          "midi": 64,
          "name": "E4",
          "ticks": 200160,
          "time": 140.4746535,
          "velocity": 0.3464566929133858
        },
        {
          "duration": 1.153364208333329,
          "durationTicks": 956,
          "midi": 67,
          "name": "G4",
          "ticks": 200160,
          "time": 140.4746535,
          "velocity": 0.5039370078740157
        },
        {
          "duration": 0.08552051666666216,
          "durationTicks": 116,
          "midi": 70,
          "name": "A#4",
          "ticks": 201120,
          "time": 141.63284349999998,
          "velocity": 0.5196850393700787
        },
        {
          "duration": 0.08552051666666216,
          "durationTicks": 116,
          "midi": 67,
          "name": "G4",
          "ticks": 201240,
          "time": 141.72131299999998,
          "velocity": 0.5118110236220472
        },
        {
          "duration": 0.08552051666666216,
          "durationTicks": 116,
          "midi": 64,
          "name": "E4",
          "ticks": 201360,
          "time": 141.80978249999998,
          "velocity": 0.5039370078740157
        },
        {
          "duration": 0.08552051666666216,
          "durationTicks": 116,
          "midi": 60,
          "name": "C4",
          "ticks": 201480,
          "time": 141.89825199999999,
          "velocity": 0.49606299212598426
        },
        {
          "duration": 0.08552051666666216,
          "durationTicks": 116,
          "midi": 58,
          "name": "A#3",
          "ticks": 201600,
          "time": 141.9867215,
          "velocity": 0.4881889763779528
        },
        {
          "duration": 0.08552051666666216,
          "durationTicks": 116,
          "midi": 55,
          "name": "G3",
          "ticks": 201720,
          "time": 142.075191,
          "velocity": 0.48031496062992124
        },
        {
          "duration": 0.08552051666666216,
          "durationTicks": 116,
          "midi": 52,
          "name": "E3",
          "ticks": 201840,
          "time": 142.1636605,
          "velocity": 0.47244094488188976
        },
        {
          "duration": 0.08552051666669058,
          "durationTicks": 116,
          "midi": 48,
          "name": "C3",
          "ticks": 201960,
          "time": 142.25212999999997,
          "velocity": 0.4645669291338583
        },
        {
          "duration": 0.08552051666669058,
          "durationTicks": 116,
          "midi": 43,
          "name": "G2",
          "ticks": 202080,
          "time": 142.34059949999997,
          "velocity": 0.4566929133858268
        },
        {
          "duration": 0.08552051666666216,
          "durationTicks": 116,
          "midi": 40,
          "name": "E2",
          "ticks": 202200,
          "time": 142.42906899999997,
          "velocity": 0.44881889763779526
        },
        {
          "duration": 0.08552051666666216,
          "durationTicks": 116,
          "midi": 36,
          "name": "C2",
          "ticks": 202320,
          "time": 142.51753849999997,
          "velocity": 0.4330708661417323
        },
        {
          "duration": 0.08552051666666216,
          "durationTicks": 116,
          "midi": 40,
          "name": "E2",
          "ticks": 202440,
          "time": 142.60600799999997,
          "velocity": 0.4330708661417323
        },
        {
          "duration": 0.08552051666666216,
          "durationTicks": 116,
          "midi": 43,
          "name": "G2",
          "ticks": 202560,
          "time": 142.69447749999998,
          "velocity": 0.4251968503937008
        },
        {
          "duration": 0.08552051666666216,
          "durationTicks": 116,
          "midi": 46,
          "name": "A#2",
          "ticks": 202680,
          "time": 142.78294699999998,
          "velocity": 0.41732283464566927
        },
        {
          "duration": 0.08552051666666216,
          "durationTicks": 116,
          "midi": 48,
          "name": "C3",
          "ticks": 202800,
          "time": 142.87141649999998,
          "velocity": 0.41732283464566927
        },
        {
          "duration": 0.08552051666666216,
          "durationTicks": 116,
          "midi": 52,
          "name": "E3",
          "ticks": 202920,
          "time": 142.95988599999998,
          "velocity": 0.4094488188976378
        },
        {
          "duration": 0.08552051666666216,
          "durationTicks": 116,
          "midi": 55,
          "name": "G3",
          "ticks": 203040,
          "time": 143.04835549999999,
          "velocity": 0.4015748031496063
        },
        {
          "duration": 0.08552051666666216,
          "durationTicks": 116,
          "midi": 58,
          "name": "A#3",
          "ticks": 203160,
          "time": 143.136825,
          "velocity": 0.4015748031496063
        },
        {
          "duration": 0.08552051666666216,
          "durationTicks": 116,
          "midi": 60,
          "name": "C4",
          "ticks": 203280,
          "time": 143.2252945,
          "velocity": 0.3937007874015748
        },
        {
          "duration": 0.08552051666666216,
          "durationTicks": 116,
          "midi": 64,
          "name": "E4",
          "ticks": 203400,
          "time": 143.313764,
          "velocity": 0.3858267716535433
        },
        {
          "duration": 0.08552051666669058,
          "durationTicks": 116,
          "midi": 67,
          "name": "G4",
          "ticks": 203520,
          "time": 143.40223349999997,
          "velocity": 0.3858267716535433
        },
        {
          "duration": 0.08552051666669058,
          "durationTicks": 116,
          "midi": 70,
          "name": "A#4",
          "ticks": 203640,
          "time": 143.49070299999997,
          "velocity": 0.3779527559055118
        },
        {
          "duration": 0.08552051666666216,
          "durationTicks": 116,
          "midi": 72,
          "name": "C5",
          "ticks": 203760,
          "time": 143.57917249999997,
          "velocity": 0.3700787401574803
        },
        {
          "duration": 0.08552051666666216,
          "durationTicks": 116,
          "midi": 76,
          "name": "E5",
          "ticks": 203880,
          "time": 143.66764199999997,
          "velocity": 0.3700787401574803
        },
        {
          "duration": 0.08552051666666216,
          "durationTicks": 116,
          "midi": 79,
          "name": "G5",
          "ticks": 204000,
          "time": 143.75611149999997,
          "velocity": 0.36220472440944884
        },
        {
          "duration": 0.08552051666666216,
          "durationTicks": 116,
          "midi": 82,
          "name": "A#5",
          "ticks": 204120,
          "time": 143.84458099999998,
          "velocity": 0.3543307086614173
        },
        {
          "duration": 0.7896483000000103,
          "durationTicks": 476,
          "midi": 86,
          "name": "D6",
          "ticks": 204240,
          "time": 143.93305049999998,
          "velocity": 0.4251968503937008
        },
        {
          "duration": 0.1099568833333251,
          "durationTicks": 116,
          "midi": 84,
          "name": "C6",
          "ticks": 205080,
          "time": 145.07058,
          "velocity": 0.3464566929133858
        },
        {
          "duration": 0.1099568833333251,
          "durationTicks": 116,
          "midi": 82,
          "name": "A#5",
          "ticks": 205200,
          "time": 145.1843285,
          "velocity": 0.3464566929133858
        },
        {
          "duration": 0.1099568833333251,
          "durationTicks": 116,
          "midi": 81,
          "name": "A5",
          "ticks": 205320,
          "time": 145.298077,
          "velocity": 0.3464566929133858
        },
        {
          "duration": 0.1099568833333251,
          "durationTicks": 116,
          "midi": 79,
          "name": "G5",
          "ticks": 205440,
          "time": 145.4118255,
          "velocity": 0.3464566929133858
        },
        {
          "duration": 0.1099568833333251,
          "durationTicks": 116,
          "midi": 77,
          "name": "F5",
          "ticks": 205560,
          "time": 145.525574,
          "velocity": 0.3464566929133858
        },
        {
          "duration": 0.1099568833333251,
          "durationTicks": 116,
          "midi": 76,
          "name": "E5",
          "ticks": 205680,
          "time": 145.6393225,
          "velocity": 0.3464566929133858
        },
        {
          "duration": 0.1099568833333251,
          "durationTicks": 116,
          "midi": 74,
          "name": "D5",
          "ticks": 205800,
          "time": 145.753071,
          "velocity": 0.3464566929133858
        },
        {
          "duration": 0.1099568833333251,
          "durationTicks": 116,
          "midi": 72,
          "name": "C5",
          "ticks": 205920,
          "time": 145.8668195,
          "velocity": 0.3464566929133858
        },
        {
          "duration": 0.1099568833333251,
          "durationTicks": 116,
          "midi": 70,
          "name": "A#4",
          "ticks": 206040,
          "time": 145.980568,
          "velocity": 0.3464566929133858
        },
        {
          "duration": 0.1099568833333251,
          "durationTicks": 116,
          "midi": 69,
          "name": "A4",
          "ticks": 206160,
          "time": 146.0943165,
          "velocity": 0.3464566929133858
        },
        {
          "duration": 0.1099568833333251,
          "durationTicks": 116,
          "midi": 67,
          "name": "G4",
          "ticks": 206280,
          "time": 146.208065,
          "velocity": 0.3464566929133858
        },
        {
          "duration": 0.1099568833333251,
          "durationTicks": 116,
          "midi": 65,
          "name": "F4",
          "ticks": 206400,
          "time": 146.3218135,
          "velocity": 0.3464566929133858
        },
        {
          "duration": 0.1099568833333251,
          "durationTicks": 116,
          "midi": 64,
          "name": "E4",
          "ticks": 206520,
          "time": 146.435562,
          "velocity": 0.3464566929133858
        },
        {
          "duration": 0.2847217083333362,
          "durationTicks": 236,
          "midi": 63,
          "name": "D#4",
          "ticks": 206640,
          "time": 146.5493105,
          "velocity": 0.3464566929133858
        },
        {
          "duration": 0.08257643333334386,
          "durationTicks": 56,
          "midi": 65,
          "name": "F4",
          "ticks": 206880,
          "time": 146.838858,
          "velocity": 0.3464566929133858
        },
        {
          "duration": 0.08257643333334386,
          "durationTicks": 56,
          "midi": 63,
          "name": "D#4",
          "ticks": 206940,
          "time": 146.92733274999998,
          "velocity": 0.3464566929133858
        },
        {
          "duration": 0.08257643333331544,
          "durationTicks": 56,
          "midi": 62,
          "name": "D4",
          "ticks": 207000,
          "time": 147.0158075,
          "velocity": 0.3464566929133858
        },
        {
          "duration": 0.0679414166666561,
          "durationTicks": 56,
          "midi": 63,
          "name": "D#4",
          "ticks": 207060,
          "time": 147.10428224999998,
          "velocity": 0.3464566929133858
        },
        {
          "duration": 0.12132395833333476,
          "durationTicks": 100,
          "midi": 64,
          "name": "E4",
          "ticks": 207120,
          "time": 147.17707662499998,
          "velocity": 0.3464566929133858
        },
        {
          "duration": 0.0679414166666561,
          "durationTicks": 56,
          "midi": 65,
          "name": "F4",
          "ticks": 207220,
          "time": 147.29840058333332,
          "velocity": 0.3464566929133858
        },
        {
          "duration": 0.08250029166666195,
          "durationTicks": 68,
          "midi": 66,
          "name": "F#4",
          "ticks": 207300,
          "time": 147.39545975,
          "velocity": 0.3464566929133858
        },
        {
          "duration": 0.08250029166666195,
          "durationTicks": 68,
          "midi": 67,
          "name": "G4",
          "ticks": 207360,
          "time": 147.468254125,
          "velocity": 0.3464566929133858
        },
        {
          "duration": 0.08250029166666195,
          "durationTicks": 68,
          "midi": 68,
          "name": "G#4",
          "ticks": 207420,
          "time": 147.5410485,
          "velocity": 0.3464566929133858
        },
        {
          "duration": 0.08250029166666195,
          "durationTicks": 68,
          "midi": 69,
          "name": "A4",
          "ticks": 207480,
          "time": 147.613842875,
          "velocity": 0.3464566929133858
        },
        {
          "duration": 0.08186795833333349,
          "durationTicks": 68,
          "midi": 70,
          "name": "A#4",
          "ticks": 207540,
          "time": 147.68663725,
          "velocity": 0.3464566929133858
        },
        {
          "duration": 0.07712545833334161,
          "durationTicks": 68,
          "midi": 71,
          "name": "B4",
          "ticks": 207600,
          "time": 147.759431625,
          "velocity": 0.3464566929133858
        },
        {
          "duration": 0.07712545833331319,
          "durationTicks": 68,
          "midi": 72,
          "name": "C5",
          "ticks": 207660,
          "time": 147.8274835,
          "velocity": 0.3464566929133858
        },
        {
          "duration": 0.07712545833334161,
          "durationTicks": 68,
          "midi": 73,
          "name": "C#5",
          "ticks": 207720,
          "time": 147.89553537499998,
          "velocity": 0.3464566929133858
        },
        {
          "duration": 0.07736459166667942,
          "durationTicks": 68,
          "midi": 74,
          "name": "D5",
          "ticks": 207780,
          "time": 147.96358725,
          "velocity": 0.3464566929133858
        },
        {
          "duration": 0.07915809166667032,
          "durationTicks": 68,
          "midi": 75,
          "name": "D#5",
          "ticks": 207840,
          "time": 148.031639125,
          "velocity": 0.3464566929133858
        },
        {
          "duration": 0.07915809166667032,
          "durationTicks": 68,
          "midi": 76,
          "name": "E5",
          "ticks": 207900,
          "time": 148.1014845,
          "velocity": 0.3464566929133858
        },
        {
          "duration": 0.07915809166667032,
          "durationTicks": 68,
          "midi": 77,
          "name": "F5",
          "ticks": 207960,
          "time": 148.171329875,
          "velocity": 0.3464566929133858
        },
        {
          "duration": 0.0798603916666707,
          "durationTicks": 68,
          "midi": 78,
          "name": "F#5",
          "ticks": 208020,
          "time": 148.24117525,
          "velocity": 0.3464566929133858
        },
        {
          "duration": 0.08512764166667353,
          "durationTicks": 68,
          "midi": 79,
          "name": "G5",
          "ticks": 208080,
          "time": 148.311020625,
          "velocity": 0.3464566929133858
        },
        {
          "duration": 0.08512764166667353,
          "durationTicks": 68,
          "midi": 80,
          "name": "G#5",
          "ticks": 208140,
          "time": 148.38613325,
          "velocity": 0.3464566929133858
        },
        {
          "duration": 0.08512764166667353,
          "durationTicks": 68,
          "midi": 81,
          "name": "A5",
          "ticks": 208200,
          "time": 148.461245875,
          "velocity": 0.3464566929133858
        },
        {
          "duration": 0.08572945833333279,
          "durationTicks": 68,
          "midi": 82,
          "name": "A#5",
          "ticks": 208260,
          "time": 148.5363585,
          "velocity": 0.3464566929133858
        },
        {
          "duration": 0.09024308333331987,
          "durationTicks": 68,
          "midi": 83,
          "name": "B5",
          "ticks": 208320,
          "time": 148.611471125,
          "velocity": 0.3464566929133858
        },
        {
          "duration": 0.0902430833333483,
          "durationTicks": 68,
          "midi": 84,
          "name": "C6",
          "ticks": 208380,
          "time": 148.691097375,
          "velocity": 0.3464566929133858
        },
        {
          "duration": 0.09024308333331987,
          "durationTicks": 68,
          "midi": 85,
          "name": "C#6",
          "ticks": 208440,
          "time": 148.77072362500002,
          "velocity": 0.3464566929133858
        },
        {
          "duration": 0.0902430833333483,
          "durationTicks": 68,
          "midi": 86,
          "name": "D6",
          "ticks": 208500,
          "time": 148.850349875,
          "velocity": 0.3464566929133858
        },
        {
          "duration": 0.15394408333335718,
          "durationTicks": 116,
          "midi": 87,
          "name": "D#6",
          "ticks": 208560,
          "time": 148.929976125,
          "velocity": 0.3464566929133858
        },
        {
          "duration": 0.15394408333332876,
          "durationTicks": 116,
          "midi": 86,
          "name": "D6",
          "ticks": 208680,
          "time": 149.089228625,
          "velocity": 0.3464566929133858
        },
        {
          "duration": 0.2587923000000103,
          "durationTicks": 156,
          "midi": 89,
          "name": "F6",
          "ticks": 208800,
          "time": 149.248481125,
          "velocity": 0.3464566929133858
        },
        {
          "duration": 0.19243529999999964,
          "durationTicks": 116,
          "midi": 87,
          "name": "D#6",
          "ticks": 208920,
          "time": 149.44755212500002,
          "velocity": 0.3464566929133858
        },
        {
          "duration": 0.2587922999999819,
          "durationTicks": 156,
          "midi": 86,
          "name": "D6",
          "ticks": 209280,
          "time": 150.04476512500003,
          "velocity": 0.3464566929133858
        },
        {
          "duration": 0.19243529999999964,
          "durationTicks": 116,
          "midi": 84,
          "name": "C6",
          "ticks": 209400,
          "time": 150.243836125,
          "velocity": 0.3464566929133858
        },
        {
          "duration": 0.2587923000000103,
          "durationTicks": 156,
          "midi": 82,
          "name": "A#5",
          "ticks": 209760,
          "time": 150.841049125,
          "velocity": 0.3464566929133858
        },
        {
          "duration": 0.19243529999999964,
          "durationTicks": 116,
          "midi": 81,
          "name": "A5",
          "ticks": 209880,
          "time": 151.04012012500002,
          "velocity": 0.3464566929133858
        },
        {
          "duration": 0.2957681999999977,
          "durationTicks": 156,
          "midi": 79,
          "name": "G5",
          "ticks": 210240,
          "time": 151.637333125,
          "velocity": 0.3464566929133858
        },
        {
          "duration": 0.9024722000000054,
          "durationTicks": 476,
          "midi": 77,
          "name": "F5",
          "ticks": 210420,
          "time": 151.978604125,
          "velocity": 0.3464566929133858
        },
        {
          "duration": 0.2199301999999932,
          "durationTicks": 116,
          "midi": 79,
          "name": "G5",
          "ticks": 210840,
          "time": 152.774903125,
          "velocity": 0.3464566929133858
        },
        {
          "duration": 0.2199301999999932,
          "durationTicks": 116,
          "midi": 77,
          "name": "F5",
          "ticks": 210960,
          "time": 153.002417125,
          "velocity": 0.3464566929133858
        },
        {
          "duration": 0.2199301999999932,
          "durationTicks": 116,
          "midi": 76,
          "name": "E5",
          "ticks": 211080,
          "time": 153.229931125,
          "velocity": 0.3464566929133858
        },
        {
          "duration": 0.13994795833332319,
          "durationTicks": 116,
          "midi": 77,
          "name": "F5",
          "ticks": 211200,
          "time": 153.457445125,
          "velocity": 0.3464566929133858
        },
        {
          "duration": 0.13994795833332319,
          "durationTicks": 116,
          "midi": 78,
          "name": "F#5",
          "ticks": 211320,
          "time": 153.602218875,
          "velocity": 0.3464566929133858
        },
        {
          "duration": 0.13994795833332319,
          "durationTicks": 116,
          "midi": 79,
          "name": "G5",
          "ticks": 211440,
          "time": 153.746992625,
          "velocity": 0.3464566929133858
        },
        {
          "duration": 0.13994795833332319,
          "durationTicks": 116,
          "midi": 81,
          "name": "A5",
          "ticks": 211560,
          "time": 153.891766375,
          "velocity": 0.3464566929133858
        },
        {
          "duration": 0.1399479583333516,
          "durationTicks": 116,
          "midi": 79,
          "name": "G5",
          "ticks": 211680,
          "time": 154.036540125,
          "velocity": 0.3464566929133858
        },
        {
          "duration": 0.13994795833332319,
          "durationTicks": 116,
          "midi": 77,
          "name": "F5",
          "ticks": 211800,
          "time": 154.181313875,
          "velocity": 0.3464566929133858
        },
        {
          "duration": 0.1399479583333516,
          "durationTicks": 116,
          "midi": 76,
          "name": "E5",
          "ticks": 211920,
          "time": 154.32608762499999,
          "velocity": 0.3464566929133858
        },
        {
          "duration": 0.13994795833332319,
          "durationTicks": 116,
          "midi": 75,
          "name": "D#5",
          "ticks": 212040,
          "time": 154.470861375,
          "velocity": 0.3464566929133858
        },
        {
          "duration": 0.1710511833333328,
          "durationTicks": 116,
          "midi": 74,
          "name": "D5",
          "ticks": 212160,
          "time": 154.61563512499998,
          "velocity": 0.3464566929133858
        },
        {
          "duration": 0.1710511833333328,
          "durationTicks": 116,
          "midi": 72,
          "name": "C5",
          "ticks": 212280,
          "time": 154.792584625,
          "velocity": 0.3464566929133858
        },
        {
          "duration": 0.19243529999999964,
          "durationTicks": 116,
          "midi": 70,
          "name": "A#4",
          "ticks": 212400,
          "time": 154.969534125,
          "velocity": 0.3464566929133858
        },
        {
          "duration": 0.19243529999999964,
          "durationTicks": 116,
          "midi": 69,
          "name": "A4",
          "ticks": 212520,
          "time": 155.168605125,
          "velocity": 0.3464566929133858
        },
        {
          "duration": 0.5255332499999952,
          "durationTicks": 396,
          "midi": 75,
          "name": "D#5",
          "ticks": 212640,
          "time": 155.367676125,
          "velocity": 0.3464566929133858
        },
        {
          "duration": 0.6331544999999892,
          "durationTicks": 396,
          "midi": 72,
          "name": "C5",
          "ticks": 213360,
          "time": 156.323191125,
          "velocity": 0.29133858267716534
        },
        {
          "duration": 1.314042674999996,
          "durationTicks": 396,
          "midi": 69,
          "name": "A4",
          "ticks": 214080,
          "time": 157.474381125,
          "velocity": 0.2204724409448819
        },
        {
          "duration": 0.08120966666666618,
          "durationTicks": 116,
          "midi": 70,
          "name": "A#4",
          "ticks": 214560,
          "time": 159.06716012500002,
          "velocity": 0.3464566929133858
        },
        {
          "duration": 0.16521966666667254,
          "durationTicks": 236,
          "midi": 74,
          "name": "D5",
          "ticks": 215040,
          "time": 159.403200125,
          "velocity": 0.3464566929133858
        },
        {
          "duration": 0.08120966666666618,
          "durationTicks": 116,
          "midi": 77,
          "name": "F5",
          "ticks": 215280,
          "time": 159.57122012500002,
          "velocity": 0.3464566929133858
        },
        {
          "duration": 0.16521966666667254,
          "durationTicks": 236,
          "midi": 82,
          "name": "A#5",
          "ticks": 215760,
          "time": 159.90726012500002,
          "velocity": 0.4251968503937008
        },
        {
          "duration": 0.6692796666666823,
          "durationTicks": 956,
          "midi": 77,
          "name": "F5",
          "ticks": 216000,
          "time": 160.075280125,
          "velocity": 0.3543307086614173
        },
        {
          "duration": 0.16521966666664412,
          "durationTicks": 236,
          "midi": 74,
          "name": "D5",
          "ticks": 216960,
          "time": 160.74736012500003,
          "velocity": 0.3464566929133858
        },
        {
          "duration": 0.16521966666667254,
          "durationTicks": 236,
          "midi": 70,
          "name": "A#4",
          "ticks": 217200,
          "time": 160.915380125,
          "velocity": 0.3464566929133858
        },
        {
          "duration": 0.08120966666666618,
          "durationTicks": 116,
          "midi": 72,
          "name": "C5",
          "ticks": 217440,
          "time": 161.08340012500003,
          "velocity": 0.2677165354330709
        },
        {
          "duration": 0.16521966666667254,
          "durationTicks": 236,
          "midi": 77,
          "name": "F5",
          "ticks": 217920,
          "time": 161.41944012500002,
          "velocity": 0.3464566929133858
        },
        {
          "duration": 0.08120966666666618,
          "durationTicks": 116,
          "midi": 70,
          "name": "A#4",
          "ticks": 218160,
          "time": 161.587460125,
          "velocity": 0.2677165354330709
        },
        {
          "duration": 0.16521966666667254,
          "durationTicks": 236,
          "midi": 77,
          "name": "F5",
          "ticks": 218640,
          "time": 161.923500125,
          "velocity": 0.3464566929133858
        },
        {
          "duration": 0.5012596666666695,
          "durationTicks": 716,
          "midi": 74,
          "name": "D5",
          "ticks": 218880,
          "time": 162.09152012500002,
          "velocity": 0.3464566929133858
        },
        {
          "duration": 0.16521966666664412,
          "durationTicks": 236,
          "midi": 72,
          "name": "C5",
          "ticks": 219600,
          "time": 162.59558012500003,
          "velocity": 0.30708661417322836
        },
        {
          "duration": 0.08120966666666618,
          "durationTicks": 116,
          "midi": 74,
          "name": "D5",
          "ticks": 220320,
          "time": 163.099640125,
          "velocity": 0.36220472440944884
        },
        {
          "duration": 0.16521966666667254,
          "durationTicks": 236,
          "midi": 69,
          "name": "A4",
          "ticks": 220560,
          "time": 163.26766012500002,
          "velocity": 0.2992125984251969
        },
        {
          "duration": 0.08120966666666618,
          "durationTicks": 116,
          "midi": 70,
          "name": "A#4",
          "ticks": 220800,
          "time": 163.435680125,
          "velocity": 0.31496062992125984
        },
        {
          "duration": 0.08120966666666618,
          "durationTicks": 116,
          "midi": 75,
          "name": "D#5",
          "ticks": 221040,
          "time": 163.60370012500002,
          "velocity": 0.33070866141732286
        },
        {
          "duration": 0.16521966666667254,
          "durationTicks": 236,
          "midi": 71,
          "name": "B4",
          "ticks": 221280,
          "time": 163.771720125,
          "velocity": 0.3464566929133858
        },
        {
          "duration": 0.08120966666666618,
          "durationTicks": 116,
          "midi": 72,
          "name": "C5",
          "ticks": 221520,
          "time": 163.93974012500001,
          "velocity": 0.3700787401574803
        },
        {
          "duration": 0.24922966666665047,
          "durationTicks": 356,
          "midi": 77,
          "name": "F5",
          "ticks": 221760,
          "time": 164.10776012500003,
          "velocity": 0.3858267716535433
        },
        {
          "duration": 0.053206333333321254,
          "durationTicks": 76,
          "midi": 79,
          "name": "G5",
          "ticks": 222240,
          "time": 164.44380012500002,
          "velocity": 0.33858267716535434
        },
        {
          "duration": 0.053206333333349676,
          "durationTicks": 76,
          "midi": 77,
          "name": "F5",
          "ticks": 222300,
          "time": 164.485805125,
          "velocity": 0.3464566929133858
        },
        {
          "duration": 0.053206333333349676,
          "durationTicks": 76,
          "midi": 76,
          "name": "E5",
          "ticks": 222360,
          "time": 164.527810125,
          "velocity": 0.3464566929133858
        },
        {
          "duration": 0.053206333333321254,
          "durationTicks": 76,
          "midi": 77,
          "name": "F5",
          "ticks": 222420,
          "time": 164.56981512500002,
          "velocity": 0.3543307086614173
        },
        {
          "duration": 0.22122633333333397,
          "durationTicks": 316,
          "midi": 82,
          "name": "A#5",
          "ticks": 222480,
          "time": 164.611820125,
          "velocity": 0.4409448818897638
        },
        {
          "duration": 0.053206333333321254,
          "durationTicks": 76,
          "midi": 74,
          "name": "D5",
          "ticks": 223200,
          "time": 165.11588012500002,
          "velocity": 0.4251968503937008
        },
        {
          "duration": 0.053206333333349676,
          "durationTicks": 76,
          "midi": 77,
          "name": "F5",
          "ticks": 223440,
          "time": 165.283900125,
          "velocity": 0.3464566929133858
        },
        {
          "duration": 0.053206333333321254,
          "durationTicks": 76,
          "midi": 70,
          "name": "A#4",
          "ticks": 223680,
          "time": 165.45192012500002,
          "velocity": 0.3464566929133858
        },
        {
          "duration": 0.053206333333321254,
          "durationTicks": 76,
          "midi": 75,
          "name": "D#5",
          "ticks": 223920,
          "time": 165.61994012500003,
          "velocity": 0.31496062992125984
        },
        {
          "duration": 0.16521966666664412,
          "durationTicks": 236,
          "midi": 69,
          "name": "A4",
          "ticks": 224400,
          "time": 165.95598012500002,
          "velocity": 0.3464566929133858
        },
        {
          "duration": 0.5012596666666695,
          "durationTicks": 716,
          "midi": 72,
          "name": "C5",
          "ticks": 224640,
          "time": 166.124000125,
          "velocity": 0.3464566929133858
        },
        {
          "duration": 0.16521966666667254,
          "durationTicks": 236,
          "midi": 70,
          "name": "A#4",
          "ticks": 225360,
          "time": 166.62806012500002,
          "velocity": 0.2677165354330709
        },
        {
          "duration": 0.08120966666666618,
          "durationTicks": 116,
          "midi": 73,
          "name": "C#5",
          "ticks": 237600,
          "time": 175.197080125,
          "velocity": 0.23622047244094488
        },
        {
          "duration": 0.16521966666664412,
          "durationTicks": 236,
          "midi": 69,
          "name": "A4",
          "ticks": 237840,
          "time": 175.36510012500003,
          "velocity": 0.23622047244094488
        },
        {
          "duration": 0.08120966666666618,
          "durationTicks": 116,
          "midi": 70,
          "name": "A#4",
          "ticks": 238080,
          "time": 175.533120125,
          "velocity": 0.25196850393700787
        },
        {
          "duration": 0.08120966666666618,
          "durationTicks": 116,
          "midi": 75,
          "name": "D#5",
          "ticks": 238320,
          "time": 175.70114012500002,
          "velocity": 0.2677165354330709
        },
        {
          "duration": 0.16521966666667254,
          "durationTicks": 236,
          "midi": 71,
          "name": "B4",
          "ticks": 238560,
          "time": 175.869160125,
          "velocity": 0.2755905511811024
        },
        {
          "duration": 0.08120966666666618,
          "durationTicks": 116,
          "midi": 72,
          "name": "C5",
          "ticks": 238800,
          "time": 176.03718012500002,
          "velocity": 0.29133858267716534
        },
        {
          "duration": 0.33323966666668525,
          "durationTicks": 476,
          "midi": 77,
          "name": "F5",
          "ticks": 239040,
          "time": 176.205200125,
          "velocity": 0.36220472440944884
        },
        {
          "duration": 0.03920466666667721,
          "durationTicks": 56,
          "midi": 78,
          "name": "F#5",
          "ticks": 239520,
          "time": 176.541240125,
          "velocity": 0.3543307086614173
        },
        {
          "duration": 0.03920466666664879,
          "durationTicks": 56,
          "midi": 77,
          "name": "F5",
          "ticks": 239580,
          "time": 176.58324512500002,
          "velocity": 0.2992125984251969
        },
        {
          "duration": 0.03920466666667721,
          "durationTicks": 56,
          "midi": 76,
          "name": "E5",
          "ticks": 239640,
          "time": 176.625250125,
          "velocity": 0.33858267716535434
        },
        {
          "duration": 0.03920466666664879,
          "durationTicks": 56,
          "midi": 77,
          "name": "F5",
          "ticks": 239700,
          "time": 176.66725512500003,
          "velocity": 0.3700787401574803
        },
        {
          "duration": 0.16521966666667254,
          "durationTicks": 236,
          "midi": 82,
          "name": "A#5",
          "ticks": 239760,
          "time": 176.70926012500001,
          "velocity": 0.3700787401574803
        },
        {
          "duration": 0.33323966666665683,
          "durationTicks": 476,
          "midi": 77,
          "name": "F5",
          "ticks": 240480,
          "time": 177.21332012500002,
          "velocity": 0.41732283464566927
        },
        {
          "duration": 0.03920466666664879,
          "durationTicks": 56,
          "midi": 78,
          "name": "F#5",
          "ticks": 240912,
          "time": 177.51575612500002,
          "velocity": 0.3937007874015748
        },
        {
          "duration": 0.03920466666667721,
          "durationTicks": 56,
          "midi": 77,
          "name": "F5",
          "ticks": 240984,
          "time": 177.566162125,
          "velocity": 0.3543307086614173
        },
        {
          "duration": 0.03920466666667721,
          "durationTicks": 56,
          "midi": 76,
          "name": "E5",
          "ticks": 241056,
          "time": 177.61656812500001,
          "velocity": 0.3937007874015748
        },
        {
          "duration": 0.03920466666664879,
          "durationTicks": 56,
          "midi": 77,
          "name": "F5",
          "ticks": 241128,
          "time": 177.66697412500002,
          "velocity": 0.4330708661417323
        },
        {
          "duration": 0.16521966666667254,
          "durationTicks": 236,
          "midi": 85,
          "name": "C#6",
          "ticks": 241200,
          "time": 177.717380125,
          "velocity": 0.5118110236220472
        },
        {
          "duration": 0.33323966666665683,
          "durationTicks": 476,
          "midi": 77,
          "name": "F5",
          "ticks": 241920,
          "time": 178.22144012500002,
          "velocity": 0.5590551181102362
        },
        {
          "duration": 0.03920466666667721,
          "durationTicks": 56,
          "midi": 78,
          "name": "F#5",
          "ticks": 242320,
          "time": 178.50147345833335,
          "velocity": 0.5354330708661418
        },
        {
          "duration": 0.03920466666667721,
          "durationTicks": 56,
          "midi": 77,
          "name": "F5",
          "ticks": 242400,
          "time": 178.557480125,
          "velocity": 0.4015748031496063
        },
        {
          "duration": 0.03920466666667721,
          "durationTicks": 56,
          "midi": 76,
          "name": "E5",
          "ticks": 242480,
          "time": 178.61348679166667,
          "velocity": 0.5196850393700787
        },
        {
          "duration": 0.03920466666664879,
          "durationTicks": 56,
          "midi": 77,
          "name": "F5",
          "ticks": 242560,
          "time": 178.66949345833336,
          "velocity": 0.5748031496062992
        },
        {
          "duration": 0.6692796666666823,
          "durationTicks": 956,
          "midi": 89,
          "name": "F6",
          "ticks": 242660,
          "time": 178.73950179166667,
          "velocity": 0.6141732283464567
        },
        {
          "duration": 0.16521966666667254,
          "durationTicks": 236,
          "midi": 84,
          "name": "C6",
          "ticks": 243600,
          "time": 179.39758012500002,
          "velocity": 0.5196850393700787
        },
        {
          "duration": 0.1092130000000111,
          "durationTicks": 156,
          "midi": 87,
          "name": "D#6",
          "ticks": 243840,
          "time": 179.565600125,
          "velocity": 0.4881889763779528
        },
        {
          "duration": 0.08120966666666618,
          "durationTicks": 116,
          "midi": 85,
          "name": "C#6",
          "ticks": 244080,
          "time": 179.73362012500002,
          "velocity": 0.4566929133858268
        },
        {
          "duration": 0.16521966666664412,
          "durationTicks": 236,
          "midi": 81,
          "name": "A5",
          "ticks": 244320,
          "time": 179.90164012500003,
          "velocity": 0.41732283464566927
        },
        {
          "duration": 0.1092130000000111,
          "durationTicks": 156,
          "midi": 84,
          "name": "C6",
          "ticks": 244560,
          "time": 180.069660125,
          "velocity": 0.3858267716535433
        },
        {
          "duration": 0.08120966666666618,
          "durationTicks": 116,
          "midi": 82,
          "name": "A#5",
          "ticks": 244800,
          "time": 180.23768012500003,
          "velocity": 0.3464566929133858
        },
        {
          "duration": 0.16521966666667254,
          "durationTicks": 236,
          "midi": 77,
          "name": "F5",
          "ticks": 245040,
          "time": 180.405700125,
          "velocity": 0.4251968503937008
        },
        {
          "duration": 0.10921299999998269,
          "durationTicks": 156,
          "midi": 80,
          "name": "G#5",
          "ticks": 245280,
          "time": 180.57372012500002,
          "velocity": 0.3464566929133858
        },
        {
          "duration": 0.08120966666666618,
          "durationTicks": 116,
          "midi": 78,
          "name": "F#5",
          "ticks": 245520,
          "time": 180.741740125,
          "velocity": 0.3464566929133858
        },
        {
          "duration": 0.08120966666666618,
          "durationTicks": 116,
          "midi": 73,
          "name": "C#5",
          "ticks": 245760,
          "time": 180.90976012500002,
          "velocity": 0.3464566929133858
        },
        {
          "duration": 0.08120966666666618,
          "durationTicks": 116,
          "midi": 85,
          "name": "C#6",
          "ticks": 246000,
          "time": 181.077780125,
          "velocity": 0.4251968503937008
        },
        {
          "duration": 0.1092130000000111,
          "durationTicks": 156,
          "midi": 83,
          "name": "B5",
          "ticks": 246240,
          "time": 181.24580012500002,
          "velocity": 0.5039370078740157
        },
        {
          "duration": 0.10921299999998269,
          "durationTicks": 156,
          "midi": 85,
          "name": "C#6",
          "ticks": 246360,
          "time": 181.32981012500002,
          "velocity": 0.5039370078740157
        },
        {
          "duration": 0.10921299999998269,
          "durationTicks": 156,
          "midi": 87,
          "name": "D#6",
          "ticks": 246480,
          "time": 181.41382012500003,
          "velocity": 0.49606299212598426
        },
        {
          "duration": 0.1092130000000111,
          "durationTicks": 156,
          "midi": 85,
          "name": "C#6",
          "ticks": 246600,
          "time": 181.497830125,
          "velocity": 0.4881889763779528
        },
        {
          "duration": 0.1092130000000111,
          "durationTicks": 156,
          "midi": 83,
          "name": "B5",
          "ticks": 246720,
          "time": 181.581840125,
          "velocity": 0.48031496062992124
        },
        {
          "duration": 0.1092130000000111,
          "durationTicks": 156,
          "midi": 82,
          "name": "A#5",
          "ticks": 246840,
          "time": 181.66585012500002,
          "velocity": 0.47244094488188976
        },
        {
          "duration": 0.10921299999998269,
          "durationTicks": 156,
          "midi": 80,
          "name": "G#5",
          "ticks": 246960,
          "time": 181.74986012500003,
          "velocity": 0.4645669291338583
        },
        {
          "duration": 0.1092130000000111,
          "durationTicks": 156,
          "midi": 82,
          "name": "A#5",
          "ticks": 247080,
          "time": 181.833870125,
          "velocity": 0.4566929133858268
        },
        {
          "duration": 0.1092130000000111,
          "durationTicks": 156,
          "midi": 82,
          "name": "A#5",
          "ticks": 247200,
          "time": 181.917880125,
          "velocity": 0.44881889763779526
        },
        {
          "duration": 0.1092130000000111,
          "durationTicks": 156,
          "midi": 83,
          "name": "B5",
          "ticks": 247200,
          "time": 181.917880125,
          "velocity": 0.44881889763779526
        },
        {
          "duration": 0.1092130000000111,
          "durationTicks": 156,
          "midi": 82,
          "name": "A#5",
          "ticks": 247320,
          "time": 182.00189012500002,
          "velocity": 0.44881889763779526
        },
        {
          "duration": 0.10921299999998269,
          "durationTicks": 156,
          "midi": 80,
          "name": "G#5",
          "ticks": 247440,
          "time": 182.08590012500002,
          "velocity": 0.4409448818897638
        },
        {
          "duration": 0.1092130000000111,
          "durationTicks": 156,
          "midi": 78,
          "name": "F#5",
          "ticks": 247560,
          "time": 182.169910125,
          "velocity": 0.4330708661417323
        },
        {
          "duration": 0.1092130000000111,
          "durationTicks": 156,
          "midi": 77,
          "name": "F5",
          "ticks": 247680,
          "time": 182.253920125,
          "velocity": 0.4251968503937008
        },
        {
          "duration": 0.1092130000000111,
          "durationTicks": 156,
          "midi": 78,
          "name": "F#5",
          "ticks": 247800,
          "time": 182.337930125,
          "velocity": 0.41732283464566927
        },
        {
          "duration": 0.10921299999998269,
          "durationTicks": 156,
          "midi": 80,
          "name": "G#5",
          "ticks": 247920,
          "time": 182.42194012500002,
          "velocity": 0.4094488188976378
        },
        {
          "duration": 0.10921299999998269,
          "durationTicks": 156,
          "midi": 78,
          "name": "F#5",
          "ticks": 248040,
          "time": 182.50595012500003,
          "velocity": 0.4015748031496063
        },
        {
          "duration": 0.1092130000000111,
          "durationTicks": 156,
          "midi": 77,
          "name": "F5",
          "ticks": 248160,
          "time": 182.589960125,
          "velocity": 0.3937007874015748
        },
        {
          "duration": 0.1092130000000111,
          "durationTicks": 156,
          "midi": 75,
          "name": "D#5",
          "ticks": 248280,
          "time": 182.673970125,
          "velocity": 0.3937007874015748
        },
        {
          "duration": 0.1092130000000111,
          "durationTicks": 156,
          "midi": 73,
          "name": "C#5",
          "ticks": 248400,
          "time": 182.75798012500002,
          "velocity": 0.3858267716535433
        },
        {
          "duration": 0.10921299999998269,
          "durationTicks": 156,
          "midi": 75,
          "name": "D#5",
          "ticks": 248520,
          "time": 182.84199012500002,
          "velocity": 0.3779527559055118
        },
        {
          "duration": 0.10921299999998269,
          "durationTicks": 156,
          "midi": 77,
          "name": "F5",
          "ticks": 248640,
          "time": 182.92600012500003,
          "velocity": 0.3700787401574803
        },
        {
          "duration": 0.1092130000000111,
          "durationTicks": 156,
          "midi": 75,
          "name": "D#5",
          "ticks": 248760,
          "time": 183.010010125,
          "velocity": 0.36220472440944884
        },
        {
          "duration": 0.1092130000000111,
          "durationTicks": 156,
          "midi": 73,
          "name": "C#5",
          "ticks": 248880,
          "time": 183.09402012500001,
          "velocity": 0.3543307086614173
        },
        {
          "duration": 0.1092130000000111,
          "durationTicks": 156,
          "midi": 71,
          "name": "B4",
          "ticks": 249000,
          "time": 183.17803012500002,
          "velocity": 0.3464566929133858
        },
        {
          "duration": 0.16521966666664412,
          "durationTicks": 236,
          "midi": 70,
          "name": "A#4",
          "ticks": 249120,
          "time": 183.26204012500003,
          "velocity": 0.3464566929133858
        },
        {
          "duration": 0.08120966666666618,
          "durationTicks": 116,
          "midi": 71,
          "name": "B4",
          "ticks": 249360,
          "time": 183.430060125,
          "velocity": 0.36220472440944884
        },
        {
          "duration": 0.08120966666666618,
          "durationTicks": 116,
          "midi": 72,
          "name": "C5",
          "ticks": 249480,
          "time": 183.51407012500002,
          "velocity": 0.3700787401574803
        },
        {
          "duration": 0.08120966666666618,
          "durationTicks": 116,
          "midi": 73,
          "name": "C#5",
          "ticks": 249600,
          "time": 183.59808012500002,
          "velocity": 0.3779527559055118
        },
        {
          "duration": 0.08120966666666618,
          "durationTicks": 116,
          "midi": 74,
          "name": "D5",
          "ticks": 249720,
          "time": 183.682090125,
          "velocity": 0.3937007874015748
        },
        {
          "duration": 0.08120966666666618,
          "durationTicks": 116,
          "midi": 75,
          "name": "D#5",
          "ticks": 249840,
          "time": 183.766100125,
          "velocity": 0.4015748031496063
        },
        {
          "duration": 0.08120966666666618,
          "durationTicks": 116,
          "midi": 76,
          "name": "E5",
          "ticks": 249960,
          "time": 183.85011012500001,
          "velocity": 0.4094488188976378
        },
        {
          "duration": 0.08120966666666618,
          "durationTicks": 116,
          "midi": 77,
          "name": "F5",
          "ticks": 250080,
          "time": 183.93412012500002,
          "velocity": 0.41732283464566927
        },
        {
          "duration": 0.08120966666666618,
          "durationTicks": 116,
          "midi": 78,
          "name": "F#5",
          "ticks": 250200,
          "time": 184.01813012500003,
          "velocity": 0.4330708661417323
        },
        {
          "duration": 0.08120966666666618,
          "durationTicks": 116,
          "midi": 79,
          "name": "G5",
          "ticks": 250320,
          "time": 184.102140125,
          "velocity": 0.4409448818897638
        },
        {
          "duration": 0.08120966666666618,
          "durationTicks": 116,
          "midi": 80,
          "name": "G#5",
          "ticks": 250440,
          "time": 184.186150125,
          "velocity": 0.44881889763779526
        },
        {
          "duration": 0.08120966666666618,
          "durationTicks": 116,
          "midi": 81,
          "name": "A5",
          "ticks": 250560,
          "time": 184.27016012500002,
          "velocity": 0.4566929133858268
        },
        {
          "duration": 0.08120966666666618,
          "durationTicks": 116,
          "midi": 82,
          "name": "A#5",
          "ticks": 250680,
          "time": 184.35417012500002,
          "velocity": 0.4645669291338583
        },
        {
          "duration": 0.08120966666663776,
          "durationTicks": 116,
          "midi": 83,
          "name": "B5",
          "ticks": 250800,
          "time": 184.43818012500003,
          "velocity": 0.48031496062992124
        },
        {
          "duration": 0.08120966666666618,
          "durationTicks": 116,
          "midi": 84,
          "name": "C6",
          "ticks": 250920,
          "time": 184.522190125,
          "velocity": 0.4881889763779528
        },
        {
          "duration": 0.08120966666666618,
          "durationTicks": 116,
          "midi": 85,
          "name": "C#6",
          "ticks": 251040,
          "time": 184.60620012500002,
          "velocity": 0.49606299212598426
        },
        {
          "duration": 0.08120966666666618,
          "durationTicks": 116,
          "midi": 86,
          "name": "D6",
          "ticks": 251160,
          "time": 184.69021012500002,
          "velocity": 0.5039370078740157
        },
        {
          "duration": 0.08120966666663776,
          "durationTicks": 116,
          "midi": 87,
          "name": "D#6",
          "ticks": 251280,
          "time": 184.77422012500003,
          "velocity": 0.5196850393700787
        },
        {
          "duration": 0.053206333333321254,
          "durationTicks": 76,
          "midi": 82,
          "name": "A#5",
          "ticks": 251520,
          "time": 184.942240125,
          "velocity": 0.4251968503937008
        },
        {
          "duration": 0.053206333333321254,
          "durationTicks": 76,
          "midi": 78,
          "name": "F#5",
          "ticks": 251760,
          "time": 185.11026012500002,
          "velocity": 0.3464566929133858
        },
        {
          "duration": 0.1092130000000111,
          "durationTicks": 156,
          "midi": 80,
          "name": "G#5",
          "ticks": 252000,
          "time": 185.278280125,
          "velocity": 0.5196850393700787
        },
        {
          "duration": 0.1092130000000111,
          "durationTicks": 156,
          "midi": 82,
          "name": "A#5",
          "ticks": 252120,
          "time": 185.36229012500002,
          "velocity": 0.5196850393700787
        },
        {
          "duration": 0.10921299999998269,
          "durationTicks": 156,
          "midi": 83,
          "name": "B5",
          "ticks": 252240,
          "time": 185.44630012500002,
          "velocity": 0.5118110236220472
        },
        {
          "duration": 0.10921299999998269,
          "durationTicks": 156,
          "midi": 82,
          "name": "A#5",
          "ticks": 252360,
          "time": 185.53031012500003,
          "velocity": 0.5039370078740157
        },
        {
          "duration": 0.1092130000000111,
          "durationTicks": 156,
          "midi": 80,
          "name": "G#5",
          "ticks": 252480,
          "time": 185.614320125,
          "velocity": 0.49606299212598426
        },
        {
          "duration": 0.1092130000000111,
          "durationTicks": 156,
          "midi": 78,
          "name": "F#5",
          "ticks": 252600,
          "time": 185.698330125,
          "velocity": 0.4881889763779528
        },
        {
          "duration": 0.1092130000000111,
          "durationTicks": 156,
          "midi": 77,
          "name": "F5",
          "ticks": 252720,
          "time": 185.78234012500002,
          "velocity": 0.48031496062992124
        },
        {
          "duration": 0.10921299999998269,
          "durationTicks": 156,
          "midi": 78,
          "name": "F#5",
          "ticks": 252840,
          "time": 185.86635012500003,
          "velocity": 0.47244094488188976
        },
        {
          "duration": 0.10921299999998269,
          "durationTicks": 156,
          "midi": 80,
          "name": "G#5",
          "ticks": 252960,
          "time": 185.95036012500003,
          "velocity": 0.4645669291338583
        },
        {
          "duration": 0.1092130000000111,
          "durationTicks": 156,
          "midi": 78,
          "name": "F#5",
          "ticks": 253080,
          "time": 186.034370125,
          "velocity": 0.4566929133858268
        },
        {
          "duration": 0.1092130000000111,
          "durationTicks": 156,
          "midi": 77,
          "name": "F5",
          "ticks": 253200,
          "time": 186.11838012500002,
          "velocity": 0.44881889763779526
        },
        {
          "duration": 0.10921299999998269,
          "durationTicks": 156,
          "midi": 75,
          "name": "D#5",
          "ticks": 253320,
          "time": 186.20239012500002,
          "velocity": 0.4409448818897638
        },
        {
          "duration": 0.1092130000000111,
          "durationTicks": 156,
          "midi": 74,
          "name": "D5",
          "ticks": 253440,
          "time": 186.286400125,
          "velocity": 0.4330708661417323
        },
        {
          "duration": 0.1092130000000111,
          "durationTicks": 156,
          "midi": 75,
          "name": "D#5",
          "ticks": 253560,
          "time": 186.370410125,
          "velocity": 0.4330708661417323
        },
        {
          "duration": 0.1092130000000111,
          "durationTicks": 156,
          "midi": 77,
          "name": "F5",
          "ticks": 253680,
          "time": 186.454420125,
          "velocity": 0.41732283464566927
        },
        {
          "duration": 0.10921299999998269,
          "durationTicks": 156,
          "midi": 75,
          "name": "D#5",
          "ticks": 253800,
          "time": 186.53843012500002,
          "velocity": 0.4015748031496063
        },
        {
          "duration": 0.10921299999998269,
          "durationTicks": 156,
          "midi": 74,
          "name": "D5",
          "ticks": 253920,
          "time": 186.62244012500003,
          "velocity": 0.3937007874015748
        },
        {
          "duration": 0.1092130000000111,
          "durationTicks": 156,
          "midi": 72,
          "name": "C5",
          "ticks": 254040,
          "time": 186.706450125,
          "velocity": 0.3779527559055118
        },
        {
          "duration": 0.1092130000000111,
          "durationTicks": 156,
          "midi": 70,
          "name": "A#4",
          "ticks": 254160,
          "time": 186.790460125,
          "velocity": 0.3700787401574803
        },
        {
          "duration": 0.1092130000000111,
          "durationTicks": 156,
          "midi": 71,
          "name": "B4",
          "ticks": 254280,
          "time": 186.87447012500002,
          "velocity": 0.36220472440944884
        },
        {
          "duration": 0.10921299999998269,
          "durationTicks": 156,
          "midi": 73,
          "name": "C#5",
          "ticks": 254400,
          "time": 186.95848012500002,
          "velocity": 0.3464566929133858
        },
        {
          "duration": 0.10921299999998269,
          "durationTicks": 156,
          "midi": 71,
          "name": "B4",
          "ticks": 254520,
          "time": 187.04249012500003,
          "velocity": 0.33858267716535434
        },
        {
          "duration": 0.1092130000000111,
          "durationTicks": 156,
          "midi": 70,
          "name": "A#4",
          "ticks": 254640,
          "time": 187.126500125,
          "velocity": 0.3228346456692913
        },
        {
          "duration": 0.1092130000000111,
          "durationTicks": 156,
          "midi": 68,
          "name": "G#4",
          "ticks": 254760,
          "time": 187.210510125,
          "velocity": 0.31496062992125984
        },
        {
          "duration": 0.1092130000000111,
          "durationTicks": 156,
          "midi": 67,
          "name": "G4",
          "ticks": 254880,
          "time": 187.29452012500002,
          "velocity": 0.3937007874015748
        },
        {
          "duration": 0.08120966666666618,
          "durationTicks": 116,
          "midi": 70,
          "name": "A#4",
          "ticks": 255000,
          "time": 187.37853012500003,
          "velocity": 0.3228346456692913
        },
        {
          "duration": 0.08120966666666618,
          "durationTicks": 116,
          "midi": 73,
          "name": "C#5",
          "ticks": 255120,
          "time": 187.462540125,
          "velocity": 0.33858267716535434
        },
        {
          "duration": 0.08120966666666618,
          "durationTicks": 116,
          "midi": 74,
          "name": "D5",
          "ticks": 255240,
          "time": 187.546550125,
          "velocity": 0.3464566929133858
        },
        {
          "duration": 0.08120966666666618,
          "durationTicks": 116,
          "midi": 75,
          "name": "D#5",
          "ticks": 255360,
          "time": 187.63056012500002,
          "velocity": 0.36220472440944884
        },
        {
          "duration": 0.08120966666666618,
          "durationTicks": 116,
          "midi": 76,
          "name": "E5",
          "ticks": 255480,
          "time": 187.71457012500002,
          "velocity": 0.3779527559055118
        },
        {
          "duration": 0.08120966666666618,
          "durationTicks": 116,
          "midi": 77,
          "name": "F5",
          "ticks": 255600,
          "time": 187.798580125,
          "velocity": 0.3937007874015748
        },
        {
          "duration": 0.08120966666666618,
          "durationTicks": 116,
          "midi": 78,
          "name": "F#5",
          "ticks": 255720,
          "time": 187.882590125,
          "velocity": 0.4094488188976378
        },
        {
          "duration": 0.08120966666666618,
          "durationTicks": 116,
          "midi": 79,
          "name": "G5",
          "ticks": 255840,
          "time": 187.966600125,
          "velocity": 0.4251968503937008
        },
        {
          "duration": 0.08120966666666618,
          "durationTicks": 116,
          "midi": 80,
          "name": "G#5",
          "ticks": 255960,
          "time": 188.05061012500002,
          "velocity": 0.4330708661417323
        },
        {
          "duration": 0.08120966666666618,
          "durationTicks": 116,
          "midi": 81,
          "name": "A5",
          "ticks": 256080,
          "time": 188.13462012500003,
          "velocity": 0.4566929133858268
        },
        {
          "duration": 0.08120966666666618,
          "durationTicks": 116,
          "midi": 82,
          "name": "A#5",
          "ticks": 256200,
          "time": 188.218630125,
          "velocity": 0.4645669291338583
        },
        {
          "duration": 0.08120966666666618,
          "durationTicks": 116,
          "midi": 83,
          "name": "B5",
          "ticks": 256320,
          "time": 188.302640125,
          "velocity": 0.4881889763779528
        },
        {
          "duration": 0.08120966666666618,
          "durationTicks": 116,
          "midi": 84,
          "name": "C6",
          "ticks": 256440,
          "time": 188.38665012500002,
          "velocity": 0.5039370078740157
        },
        {
          "duration": 0.08120966666666618,
          "durationTicks": 116,
          "midi": 85,
          "name": "C#6",
          "ticks": 256560,
          "time": 188.47066012500002,
          "velocity": 0.5275590551181102
        },
        {
          "duration": 0.08120966666666618,
          "durationTicks": 116,
          "midi": 86,
          "name": "D6",
          "ticks": 256680,
          "time": 188.55467012500003,
          "velocity": 0.5511811023622047
        },
        {
          "duration": 0.08120966666666618,
          "durationTicks": 116,
          "midi": 87,
          "name": "D#6",
          "ticks": 256800,
          "time": 188.638680125,
          "velocity": 0.5748031496062992
        },
        {
          "duration": 0.08120966666666618,
          "durationTicks": 116,
          "midi": 88,
          "name": "E6",
          "ticks": 256920,
          "time": 188.722690125,
          "velocity": 0.6062992125984252
        },
        {
          "duration": 0.08120966666666618,
          "durationTicks": 116,
          "midi": 89,
          "name": "F6",
          "ticks": 257040,
          "time": 188.80670012500002,
          "velocity": 0.6614173228346457
        },
        {
          "duration": 0.053206333333349676,
          "durationTicks": 76,
          "midi": 84,
          "name": "C6",
          "ticks": 257280,
          "time": 188.974720125,
          "velocity": 0.5511811023622047
        },
        {
          "duration": 0.053206333333321254,
          "durationTicks": 76,
          "midi": 80,
          "name": "G#5",
          "ticks": 257520,
          "time": 189.14274012500002,
          "velocity": 0.5039370078740157
        },
        {
          "duration": 0.1092130000000111,
          "durationTicks": 156,
          "midi": 82,
          "name": "A#5",
          "ticks": 257760,
          "time": 189.310760125,
          "velocity": 0.5511811023622047
        },
        {
          "duration": 0.1092130000000111,
          "durationTicks": 156,
          "midi": 84,
          "name": "C6",
          "ticks": 257880,
          "time": 189.394770125,
          "velocity": 0.5275590551181102
        },
        {
          "duration": 0.1092130000000111,
          "durationTicks": 156,
          "midi": 85,
          "name": "C#6",
          "ticks": 258000,
          "time": 189.47878012500001,
          "velocity": 0.49606299212598426
        },
        {
          "duration": 0.10921299999998269,
          "durationTicks": 156,
          "midi": 84,
          "name": "C6",
          "ticks": 258120,
          "time": 189.56279012500002,
          "velocity": 0.4251968503937008
        },
        {
          "duration": 0.10921299999998269,
          "durationTicks": 156,
          "midi": 82,
          "name": "A#5",
          "ticks": 258240,
          "time": 189.64680012500003,
          "velocity": 0.4409448818897638
        },
        {
          "duration": 0.1092130000000111,
          "durationTicks": 156,
          "midi": 80,
          "name": "G#5",
          "ticks": 258360,
          "time": 189.730810125,
          "velocity": 0.4566929133858268
        },
        {
          "duration": 0.1092130000000111,
          "durationTicks": 156,
          "midi": 79,
          "name": "G5",
          "ticks": 258480,
          "time": 189.814820125,
          "velocity": 0.4409448818897638
        },
        {
          "duration": 0.1092130000000111,
          "durationTicks": 156,
          "midi": 80,
          "name": "G#5",
          "ticks": 258600,
          "time": 189.89883012500002,
          "velocity": 0.4330708661417323
        },
        {
          "duration": 0.10921299999998269,
          "durationTicks": 156,
          "midi": 82,
          "name": "A#5",
          "ticks": 258720,
          "time": 189.98284012500002,
          "velocity": 0.4330708661417323
        },
        {
          "duration": 0.10921299999998269,
          "durationTicks": 156,
          "midi": 80,
          "name": "G#5",
          "ticks": 258840,
          "time": 190.06685012500003,
          "velocity": 0.4094488188976378
        },
        {
          "duration": 0.1092130000000111,
          "durationTicks": 156,
          "midi": 79,
          "name": "G5",
          "ticks": 258960,
          "time": 190.150860125,
          "velocity": 0.4094488188976378
        },
        {
          "duration": 0.1092130000000111,
          "durationTicks": 156,
          "midi": 77,
          "name": "F5",
          "ticks": 259080,
          "time": 190.23487012500001,
          "velocity": 0.3937007874015748
        },
        {
          "duration": 0.1092130000000111,
          "durationTicks": 156,
          "midi": 76,
          "name": "E5",
          "ticks": 259200,
          "time": 190.31888012500002,
          "velocity": 0.3858267716535433
        },
        {
          "duration": 0.10921299999998269,
          "durationTicks": 156,
          "midi": 77,
          "name": "F5",
          "ticks": 259320,
          "time": 190.40289012500003,
          "velocity": 0.3700787401574803
        },
        {
          "duration": 0.1092130000000111,
          "durationTicks": 156,
          "midi": 79,
          "name": "G5",
          "ticks": 259440,
          "time": 190.486900125,
          "velocity": 0.3700787401574803
        },
        {
          "duration": 0.1092130000000111,
          "durationTicks": 156,
          "midi": 77,
          "name": "F5",
          "ticks": 259560,
          "time": 190.570910125,
          "velocity": 0.3543307086614173
        },
        {
          "duration": 0.10921299999998269,
          "durationTicks": 156,
          "midi": 76,
          "name": "E5",
          "ticks": 259680,
          "time": 190.65492012500002,
          "velocity": 0.3543307086614173
        },
        {
          "duration": 0.10921299999998269,
          "durationTicks": 156,
          "midi": 73,
          "name": "C#5",
          "ticks": 259800,
          "time": 190.73893012500002,
          "velocity": 0.3464566929133858
        },
        {
          "duration": 0.1092130000000111,
          "durationTicks": 156,
          "midi": 72,
          "name": "C5",
          "ticks": 259920,
          "time": 190.822940125,
          "velocity": 0.33858267716535434
        },
        {
          "duration": 0.1092130000000111,
          "durationTicks": 156,
          "midi": 73,
          "name": "C#5",
          "ticks": 260040,
          "time": 190.906950125,
          "velocity": 0.3228346456692913
        },
        {
          "duration": 0.1092130000000111,
          "durationTicks": 156,
          "midi": 72,
          "name": "C5",
          "ticks": 260160,
          "time": 190.99096012500002,
          "velocity": 0.3228346456692913
        },
        {
          "duration": 0.10921299999998269,
          "durationTicks": 156,
          "midi": 70,
          "name": "A#4",
          "ticks": 260280,
          "time": 191.07497012500002,
          "velocity": 0.30708661417322836
        },
        {
          "duration": 0.10921299999998269,
          "durationTicks": 156,
          "midi": 68,
          "name": "G#4",
          "ticks": 260400,
          "time": 191.15898012500003,
          "velocity": 0.30708661417322836
        },
        {
          "duration": 0.1092130000000111,
          "durationTicks": 156,
          "midi": 67,
          "name": "G4",
          "ticks": 260520,
          "time": 191.242990125,
          "velocity": 0.29133858267716534
        },
        {
          "duration": 0.08120966666666618,
          "durationTicks": 116,
          "midi": 60,
          "name": "C4",
          "ticks": 260760,
          "time": 191.41101012500002,
          "velocity": 0.2125984251968504
        },
        {
          "duration": 0.08120966666663776,
          "durationTicks": 116,
          "midi": 65,
          "name": "F4",
          "ticks": 260880,
          "time": 191.49502012500002,
          "velocity": 0.23622047244094488
        },
        {
          "duration": 0.08120966666666618,
          "durationTicks": 116,
          "midi": 68,
          "name": "G#4",
          "ticks": 261000,
          "time": 191.57903012500003,
          "velocity": 0.25984251968503935
        },
        {
          "duration": 0.08120966666666618,
          "durationTicks": 116,
          "midi": 72,
          "name": "C5",
          "ticks": 261120,
          "time": 191.663040125,
          "velocity": 0.28346456692913385
        },
        {
          "duration": 0.08120966666666618,
          "durationTicks": 116,
          "midi": 77,
          "name": "F5",
          "ticks": 261240,
          "time": 191.74705012500002,
          "velocity": 0.30708661417322836
        },
        {
          "duration": 0.08120966666666618,
          "durationTicks": 116,
          "midi": 80,
          "name": "G#5",
          "ticks": 261360,
          "time": 191.83106012500002,
          "velocity": 0.3228346456692913
        },
        {
          "duration": 0.08120966666666618,
          "durationTicks": 116,
          "midi": 84,
          "name": "C6",
          "ticks": 261480,
          "time": 191.915070125,
          "velocity": 0.3464566929133858
        },
        {
          "duration": 0.08120966666666618,
          "durationTicks": 116,
          "midi": 80,
          "name": "G#5",
          "ticks": 261600,
          "time": 191.999080125,
          "velocity": 0.33070866141732286
        },
        {
          "duration": 0.08120966666666618,
          "durationTicks": 116,
          "midi": 77,
          "name": "F5",
          "ticks": 261720,
          "time": 192.083090125,
          "velocity": 0.31496062992125984
        },
        {
          "duration": 0.08120966666666618,
          "durationTicks": 116,
          "midi": 72,
          "name": "C5",
          "ticks": 261840,
          "time": 192.16710012500002,
          "velocity": 0.30708661417322836
        },
        {
          "duration": 0.08120966666666618,
          "durationTicks": 116,
          "midi": 84,
          "name": "C6",
          "ticks": 261960,
          "time": 192.25111012500003,
          "velocity": 0.29133858267716534
        },
        {
          "duration": 0.33323966666668525,
          "durationTicks": 476,
          "midi": 72,
          "name": "C5",
          "ticks": 262080,
          "time": 192.335120125,
          "velocity": 0.2755905511811024
        },
        {
          "duration": 0.08120966666666618,
          "durationTicks": 116,
          "midi": 60,
          "name": "C4",
          "ticks": 263640,
          "time": 193.427250125,
          "velocity": 0.2755905511811024
        },
        {
          "duration": 0.08120966666666618,
          "durationTicks": 116,
          "midi": 65,
          "name": "F4",
          "ticks": 263760,
          "time": 193.511260125,
          "velocity": 0.28346456692913385
        },
        {
          "duration": 0.08120966666666618,
          "durationTicks": 116,
          "midi": 68,
          "name": "G#4",
          "ticks": 263880,
          "time": 193.595270125,
          "velocity": 0.29133858267716534
        },
        {
          "duration": 0.08120966666666618,
          "durationTicks": 116,
          "midi": 72,
          "name": "C5",
          "ticks": 264000,
          "time": 193.67928012500002,
          "velocity": 0.30708661417322836
        },
        {
          "duration": 0.08120966666666618,
          "durationTicks": 116,
          "midi": 77,
          "name": "F5",
          "ticks": 264120,
          "time": 193.76329012500003,
          "velocity": 0.31496062992125984
        },
        {
          "duration": 0.08120966666666618,
          "durationTicks": 116,
          "midi": 80,
          "name": "G#5",
          "ticks": 264240,
          "time": 193.847300125,
          "velocity": 0.33070866141732286
        },
        {
          "duration": 0.08120966666666618,
          "durationTicks": 116,
          "midi": 84,
          "name": "C6",
          "ticks": 264360,
          "time": 193.931310125,
          "velocity": 0.3464566929133858
        },
        {
          "duration": 0.08120966666666618,
          "durationTicks": 116,
          "midi": 80,
          "name": "G#5",
          "ticks": 264480,
          "time": 194.01532012500002,
          "velocity": 0.33070866141732286
        },
        {
          "duration": 0.08120966666666618,
          "durationTicks": 116,
          "midi": 77,
          "name": "F5",
          "ticks": 264600,
          "time": 194.09933012500002,
          "velocity": 0.31496062992125984
        },
        {
          "duration": 0.08120966666666618,
          "durationTicks": 116,
          "midi": 72,
          "name": "C5",
          "ticks": 264720,
          "time": 194.18334012500003,
          "velocity": 0.30708661417322836
        },
        {
          "duration": 0.08120966666666618,
          "durationTicks": 116,
          "midi": 84,
          "name": "C6",
          "ticks": 264840,
          "time": 194.267350125,
          "velocity": 0.29133858267716534
        },
        {
          "duration": 0.33323966666665683,
          "durationTicks": 476,
          "midi": 72,
          "name": "C5",
          "ticks": 264960,
          "time": 194.351360125,
          "velocity": 0.2755905511811024
        },
        {
          "duration": 0.08120966666666618,
          "durationTicks": 116,
          "midi": 60,
          "name": "C4",
          "ticks": 266520,
          "time": 195.443490125,
          "velocity": 0.2755905511811024
        },
        {
          "duration": 0.08120966666666618,
          "durationTicks": 116,
          "midi": 65,
          "name": "F4",
          "ticks": 266640,
          "time": 195.52750012500002,
          "velocity": 0.28346456692913385
        },
        {
          "duration": 0.08120966666666618,
          "durationTicks": 116,
          "midi": 68,
          "name": "G#4",
          "ticks": 266760,
          "time": 195.61151012500002,
          "velocity": 0.29133858267716534
        },
        {
          "duration": 0.08120966666666618,
          "durationTicks": 116,
          "midi": 72,
          "name": "C5",
          "ticks": 266880,
          "time": 195.69552012500003,
          "velocity": 0.30708661417322836
        },
        {
          "duration": 0.08120966666666618,
          "durationTicks": 116,
          "midi": 77,
          "name": "F5",
          "ticks": 267000,
          "time": 195.779530125,
          "velocity": 0.31496062992125984
        },
        {
          "duration": 0.08120966666666618,
          "durationTicks": 116,
          "midi": 80,
          "name": "G#5",
          "ticks": 267120,
          "time": 195.86354012500001,
          "velocity": 0.33070866141732286
        },
        {
          "duration": 0.08120966666666618,
          "durationTicks": 116,
          "midi": 84,
          "name": "C6",
          "ticks": 267240,
          "time": 195.94755012500002,
          "velocity": 0.3464566929133858
        },
        {
          "duration": 0.08120966666666618,
          "durationTicks": 116,
          "midi": 80,
          "name": "G#5",
          "ticks": 267360,
          "time": 196.031560125,
          "velocity": 0.33070866141732286
        },
        {
          "duration": 0.08120966666663776,
          "durationTicks": 116,
          "midi": 77,
          "name": "F5",
          "ticks": 267480,
          "time": 196.11557012500003,
          "velocity": 0.31496062992125984
        },
        {
          "duration": 0.08120966666666618,
          "durationTicks": 116,
          "midi": 72,
          "name": "C5",
          "ticks": 267600,
          "time": 196.199580125,
          "velocity": 0.29133858267716534
        },
        {
          "duration": 0.08120966666666618,
          "durationTicks": 116,
          "midi": 84,
          "name": "C6",
          "ticks": 267720,
          "time": 196.28359012500002,
          "velocity": 0.2755905511811024
        },
        {
          "duration": 0.33323966666665683,
          "durationTicks": 476,
          "midi": 71,
          "name": "B4",
          "ticks": 267840,
          "time": 196.36760012500002,
          "velocity": 0.2125984251968504
        },
        {
          "duration": 0.33323966666665683,
          "durationTicks": 476,
          "midi": 74,
          "name": "D5",
          "ticks": 267840,
          "time": 196.36760012500002,
          "velocity": 0.2125984251968504
        },
        {
          "duration": 0.33323966666665683,
          "durationTicks": 476,
          "midi": 77,
          "name": "F5",
          "ticks": 267840,
          "time": 196.36760012500002,
          "velocity": 0.33858267716535434
        },
        {
          "duration": 0.08120966666666618,
          "durationTicks": 116,
          "midi": 55,
          "name": "G3",
          "ticks": 269400,
          "time": 197.45973012500002,
          "velocity": 0.2440944881889764
        },
        {
          "duration": 0.08120966666666618,
          "durationTicks": 116,
          "midi": 60,
          "name": "C4",
          "ticks": 269520,
          "time": 197.543740125,
          "velocity": 0.25984251968503935
        },
        {
          "duration": 0.08120966666666618,
          "durationTicks": 116,
          "midi": 63,
          "name": "D#4",
          "ticks": 269640,
          "time": 197.627750125,
          "velocity": 0.28346456692913385
        },
        {
          "duration": 0.08120966666666618,
          "durationTicks": 116,
          "midi": 67,
          "name": "G4",
          "ticks": 269760,
          "time": 197.711760125,
          "velocity": 0.30708661417322836
        },
        {
          "duration": 0.08120966666666618,
          "durationTicks": 116,
          "midi": 72,
          "name": "C5",
          "ticks": 269880,
          "time": 197.79577012500002,
          "velocity": 0.3228346456692913
        },
        {
          "duration": 0.08120966666666618,
          "durationTicks": 116,
          "midi": 75,
          "name": "D#5",
          "ticks": 270000,
          "time": 197.87978012500002,
          "velocity": 0.3464566929133858
        },
        {
          "duration": 0.08120966666666618,
          "durationTicks": 116,
          "midi": 79,
          "name": "G5",
          "ticks": 270120,
          "time": 197.963790125,
          "velocity": 0.3700787401574803
        },
        {
          "duration": 0.08120966666666618,
          "durationTicks": 116,
          "midi": 75,
          "name": "D#5",
          "ticks": 270240,
          "time": 198.047800125,
          "velocity": 0.2992125984251969
        },
        {
          "duration": 0.08120966666666618,
          "durationTicks": 116,
          "midi": 72,
          "name": "C5",
          "ticks": 270360,
          "time": 198.13181012500002,
          "velocity": 0.2992125984251969
        },
        {
          "duration": 0.08120966666666618,
          "durationTicks": 116,
          "midi": 67,
          "name": "G4",
          "ticks": 270480,
          "time": 198.21582012500002,
          "velocity": 0.2440944881889764
        },
        {
          "duration": 0.08120966666666618,
          "durationTicks": 116,
          "midi": 79,
          "name": "G5",
          "ticks": 270600,
          "time": 198.29983012500003,
          "velocity": 0.2440944881889764
        },
        {
          "duration": 0.33323966666665683,
          "durationTicks": 476,
          "midi": 66,
          "name": "F#4",
          "ticks": 270720,
          "time": 198.383840125,
          "velocity": 0.1889763779527559
        },
        {
          "duration": 0.33323966666665683,
          "durationTicks": 476,
          "midi": 69,
          "name": "A4",
          "ticks": 270720,
          "time": 198.383840125,
          "velocity": 0.1889763779527559
        },
        {
          "duration": 0.33323966666665683,
          "durationTicks": 476,
          "midi": 72,
          "name": "C5",
          "ticks": 270720,
          "time": 198.383840125,
          "velocity": 0.2992125984251969
        },
        {
          "duration": 0.08120966666666618,
          "durationTicks": 116,
          "midi": 62,
          "name": "D4",
          "ticks": 272280,
          "time": 199.475970125,
          "velocity": 0.2440944881889764
        },
        {
          "duration": 0.08120966666666618,
          "durationTicks": 116,
          "midi": 67,
          "name": "G4",
          "ticks": 272400,
          "time": 199.559980125,
          "velocity": 0.25984251968503935
        },
        {
          "duration": 0.08120966666666618,
          "durationTicks": 116,
          "midi": 70,
          "name": "A#4",
          "ticks": 272520,
          "time": 199.64399012500002,
          "velocity": 0.28346456692913385
        },
        {
          "duration": 0.08120966666666618,
          "durationTicks": 116,
          "midi": 74,
          "name": "D5",
          "ticks": 272640,
          "time": 199.72800012500002,
          "velocity": 0.30708661417322836
        },
        {
          "duration": 0.08120966666666618,
          "durationTicks": 116,
          "midi": 79,
          "name": "G5",
          "ticks": 272760,
          "time": 199.81201012500003,
          "velocity": 0.3228346456692913
        },
        {
          "duration": 0.08120966666666618,
          "durationTicks": 116,
          "midi": 82,
          "name": "A#5",
          "ticks": 272880,
          "time": 199.896020125,
          "velocity": 0.3464566929133858
        },
        {
          "duration": 0.08120966666666618,
          "durationTicks": 116,
          "midi": 86,
          "name": "D6",
          "ticks": 273000,
          "time": 199.980030125,
          "velocity": 0.3700787401574803
        },
        {
          "duration": 0.08120966666666618,
          "durationTicks": 116,
          "midi": 82,
          "name": "A#5",
          "ticks": 273120,
          "time": 200.06404012500002,
          "velocity": 0.2992125984251969
        },
        {
          "duration": 0.08120966666663776,
          "durationTicks": 116,
          "midi": 79,
          "name": "G5",
          "ticks": 273240,
          "time": 200.14805012500003,
          "velocity": 0.2992125984251969
        },
        {
          "duration": 0.08120966666663776,
          "durationTicks": 116,
          "midi": 74,
          "name": "D5",
          "ticks": 273360,
          "time": 200.23206012500003,
          "velocity": 0.2440944881889764
        },
        {
          "duration": 0.08120966666666618,
          "durationTicks": 116,
          "midi": 86,
          "name": "D6",
          "ticks": 273480,
          "time": 200.316070125,
          "velocity": 0.2440944881889764
        },
        {
          "duration": 0.33323966666665683,
          "durationTicks": 476,
          "midi": 73,
          "name": "C#5",
          "ticks": 273600,
          "time": 200.40008012500002,
          "velocity": 0.1889763779527559
        },
        {
          "duration": 0.33323966666665683,
          "durationTicks": 476,
          "midi": 76,
          "name": "E5",
          "ticks": 273600,
          "time": 200.40008012500002,
          "velocity": 0.1889763779527559
        },
        {
          "duration": 0.33323966666665683,
          "durationTicks": 476,
          "midi": 79,
          "name": "G5",
          "ticks": 273600,
          "time": 200.40008012500002,
          "velocity": 0.2992125984251969
        },
        {
          "duration": 0.08120966666666618,
          "durationTicks": 116,
          "midi": 57,
          "name": "A3",
          "ticks": 275160,
          "time": 201.492210125,
          "velocity": 0.2440944881889764
        },
        {
          "duration": 0.08120966666666618,
          "durationTicks": 116,
          "midi": 62,
          "name": "D4",
          "ticks": 275280,
          "time": 201.57622012500002,
          "velocity": 0.25984251968503935
        },
        {
          "duration": 0.08120966666666618,
          "durationTicks": 116,
          "midi": 65,
          "name": "F4",
          "ticks": 275400,
          "time": 201.660230125,
          "velocity": 0.28346456692913385
        },
        {
          "duration": 0.08120966666663776,
          "durationTicks": 116,
          "midi": 69,
          "name": "A4",
          "ticks": 275520,
          "time": 201.74424012500003,
          "velocity": 0.30708661417322836
        },
        {
          "duration": 0.08120966666666618,
          "durationTicks": 116,
          "midi": 74,
          "name": "D5",
          "ticks": 275640,
          "time": 201.828250125,
          "velocity": 0.3228346456692913
        },
        {
          "duration": 0.08120966666666618,
          "durationTicks": 116,
          "midi": 77,
          "name": "F5",
          "ticks": 275760,
          "time": 201.91226012500002,
          "velocity": 0.3464566929133858
        },
        {
          "duration": 0.08120966666666618,
          "durationTicks": 116,
          "midi": 81,
          "name": "A5",
          "ticks": 275880,
          "time": 201.99627012500002,
          "velocity": 0.3700787401574803
        },
        {
          "duration": 0.08120966666666618,
          "durationTicks": 116,
          "midi": 77,
          "name": "F5",
          "ticks": 276000,
          "time": 202.080280125,
          "velocity": 0.2992125984251969
        },
        {
          "duration": 0.0812096666666946,
          "durationTicks": 116,
          "midi": 74,
          "name": "D5",
          "ticks": 276120,
          "time": 202.164290125,
          "velocity": 0.2992125984251969
        },
        {
          "duration": 0.08120966666666618,
          "durationTicks": 116,
          "midi": 69,
          "name": "A4",
          "ticks": 276240,
          "time": 202.24830012500001,
          "velocity": 0.2992125984251969
        },
        {
          "duration": 0.08120966666666618,
          "durationTicks": 116,
          "midi": 81,
          "name": "A5",
          "ticks": 276360,
          "time": 202.33231012500002,
          "velocity": 0.31496062992125984
        },
        {
          "duration": 0.33323966666665683,
          "durationTicks": 476,
          "midi": 74,
          "name": "D5",
          "ticks": 276480,
          "time": 202.41632012500003,
          "velocity": 0.2755905511811024
        },
        {
          "duration": 0.33323966666665683,
          "durationTicks": 476,
          "midi": 77,
          "name": "F5",
          "ticks": 276480,
          "time": 202.41632012500003,
          "velocity": 0.2755905511811024
        },
        {
          "duration": 0.33323966666665683,
          "durationTicks": 476,
          "midi": 80,
          "name": "G#5",
          "ticks": 276480,
          "time": 202.41632012500003,
          "velocity": 0.3543307086614173
        },
        {
          "duration": 0.08120966666666618,
          "durationTicks": 116,
          "midi": 80,
          "name": "G#5",
          "ticks": 277080,
          "time": 202.83637012500003,
          "velocity": 0.4015748031496063
        },
        {
          "duration": 0.33323966666668525,
          "durationTicks": 476,
          "midi": 74,
          "name": "D5",
          "ticks": 277200,
          "time": 202.920380125,
          "velocity": 0.31496062992125984
        },
        {
          "duration": 0.33323966666668525,
          "durationTicks": 476,
          "midi": 77,
          "name": "F5",
          "ticks": 277200,
          "time": 202.920380125,
          "velocity": 0.31496062992125984
        },
        {
          "duration": 0.33323966666668525,
          "durationTicks": 476,
          "midi": 81,
          "name": "A5",
          "ticks": 277200,
          "time": 202.920380125,
          "velocity": 0.41732283464566927
        },
        {
          "duration": 0.08120966666666618,
          "durationTicks": 116,
          "midi": 81,
          "name": "A5",
          "ticks": 277800,
          "time": 203.340430125,
          "velocity": 0.48031496062992124
        },
        {
          "duration": 0.33323966666665683,
          "durationTicks": 476,
          "midi": 74,
          "name": "D5",
          "ticks": 277920,
          "time": 203.42444012500002,
          "velocity": 0.4409448818897638
        },
        {
          "duration": 0.33323966666665683,
          "durationTicks": 476,
          "midi": 77,
          "name": "F5",
          "ticks": 277920,
          "time": 203.42444012500002,
          "velocity": 0.4409448818897638
        },
        {
          "duration": 0.33323966666665683,
          "durationTicks": 476,
          "midi": 83,
          "name": "B5",
          "ticks": 277920,
          "time": 203.42444012500002,
          "velocity": 0.4645669291338583
        },
        {
          "duration": 0.08120966666666618,
          "durationTicks": 116,
          "midi": 83,
          "name": "B5",
          "ticks": 278520,
          "time": 203.84449012500002,
          "velocity": 0.4251968503937008
        },
        {
          "duration": 0.33323966666665683,
          "durationTicks": 476,
          "midi": 74,
          "name": "D5",
          "ticks": 278640,
          "time": 203.92850012500003,
          "velocity": 0.3228346456692913
        },
        {
          "duration": 0.33323966666665683,
          "durationTicks": 476,
          "midi": 77,
          "name": "F5",
          "ticks": 278640,
          "time": 203.92850012500003,
          "velocity": 0.3228346456692913
        },
        {
          "duration": 0.33323966666665683,
          "durationTicks": 476,
          "midi": 81,
          "name": "A5",
          "ticks": 278640,
          "time": 203.92850012500003,
          "velocity": 0.41732283464566927
        },
        {
          "duration": 0.08120966666666618,
          "durationTicks": 116,
          "midi": 81,
          "name": "A5",
          "ticks": 279240,
          "time": 204.34855012500003,
          "velocity": 0.3858267716535433
        },
        {
          "duration": 0.33323966666668525,
          "durationTicks": 476,
          "midi": 74,
          "name": "D5",
          "ticks": 279360,
          "time": 204.432560125,
          "velocity": 0.25196850393700787
        },
        {
          "duration": 0.33323966666668525,
          "durationTicks": 476,
          "midi": 77,
          "name": "F5",
          "ticks": 279360,
          "time": 204.432560125,
          "velocity": 0.25196850393700787
        },
        {
          "duration": 0.33323966666668525,
          "durationTicks": 476,
          "midi": 80,
          "name": "G#5",
          "ticks": 279360,
          "time": 204.432560125,
          "velocity": 0.3543307086614173
        },
        {
          "duration": 0.08120966666666618,
          "durationTicks": 116,
          "midi": 80,
          "name": "G#5",
          "ticks": 279960,
          "time": 204.852610125,
          "velocity": 0.4566929133858268
        },
        {
          "duration": 0.33323966666665683,
          "durationTicks": 476,
          "midi": 74,
          "name": "D5",
          "ticks": 280080,
          "time": 204.93662012500002,
          "velocity": 0.3700787401574803
        },
        {
          "duration": 0.33323966666665683,
          "durationTicks": 476,
          "midi": 77,
          "name": "F5",
          "ticks": 280080,
          "time": 204.93662012500002,
          "velocity": 0.3700787401574803
        },
        {
          "duration": 0.33323966666665683,
          "durationTicks": 476,
          "midi": 81,
          "name": "A5",
          "ticks": 280080,
          "time": 204.93662012500002,
          "velocity": 0.44881889763779526
        },
        {
          "duration": 0.08120966666666618,
          "durationTicks": 116,
          "midi": 81,
          "name": "A5",
          "ticks": 280680,
          "time": 205.35667012500002,
          "velocity": 0.5748031496062992
        },
        {
          "duration": 0.33323966666665683,
          "durationTicks": 476,
          "midi": 74,
          "name": "D5",
          "ticks": 280800,
          "time": 205.44068012500003,
          "velocity": 0.5196850393700787
        },
        {
          "duration": 0.33323966666665683,
          "durationTicks": 476,
          "midi": 77,
          "name": "F5",
          "ticks": 280800,
          "time": 205.44068012500003,
          "velocity": 0.5196850393700787
        },
        {
          "duration": 0.33323966666665683,
          "durationTicks": 476,
          "midi": 83,
          "name": "B5",
          "ticks": 280800,
          "time": 205.44068012500003,
          "velocity": 0.5669291338582677
        },
        {
          "duration": 0.42112017499999865,
          "durationTicks": 476,
          "midi": 74,
          "name": "D5",
          "ticks": 285120,
          "time": 208.821902125,
          "velocity": 0.5039370078740157
        },
        {
          "duration": 0.42112017499999865,
          "durationTicks": 476,
          "midi": 77,
          "name": "F5",
          "ticks": 285120,
          "time": 208.821902125,
          "velocity": 0.4094488188976378
        },
        {
          "duration": 0.42112017499999865,
          "durationTicks": 476,
          "midi": 82,
          "name": "A#5",
          "ticks": 285120,
          "time": 208.821902125,
          "velocity": 0.5039370078740157
        },
        {
          "duration": 0.42112017499999865,
          "durationTicks": 476,
          "midi": 86,
          "name": "D6",
          "ticks": 285120,
          "time": 208.821902125,
          "velocity": 0.6929133858267716
        },
        {
          "duration": 0.42112017499999865,
          "durationTicks": 476,
          "midi": 75,
          "name": "D#5",
          "ticks": 285840,
          "time": 209.458890625,
          "velocity": 0.5984251968503937
        },
        {
          "duration": 0.42112017499999865,
          "durationTicks": 476,
          "midi": 79,
          "name": "G5",
          "ticks": 285840,
          "time": 209.458890625,
          "velocity": 0.4094488188976378
        },
        {
          "duration": 0.42112017499999865,
          "durationTicks": 476,
          "midi": 82,
          "name": "A#5",
          "ticks": 285840,
          "time": 209.458890625,
          "velocity": 0.5984251968503937
        },
        {
          "duration": 0.42112017499999865,
          "durationTicks": 476,
          "midi": 87,
          "name": "D#6",
          "ticks": 285840,
          "time": 209.458890625,
          "velocity": 0.7874015748031497
        },
        {
          "duration": 2.11467000833332,
          "durationTicks": 956,
          "midi": 70,
          "name": "A#4",
          "ticks": 286560,
          "time": 210.095879125,
          "velocity": 0.5984251968503937
        },
        {
          "duration": 2.11467000833332,
          "durationTicks": 956,
          "midi": 77,
          "name": "F5",
          "ticks": 286560,
          "time": 210.095879125,
          "velocity": 0.5984251968503937
        },
        {
          "duration": 2.11467000833332,
          "durationTicks": 956,
          "midi": 80,
          "name": "G#5",
          "ticks": 286560,
          "time": 210.095879125,
          "velocity": 0.7874015748031497
        },
        {
          "duration": 0.08307074166665984,
          "durationTicks": 116,
          "midi": 75,
          "name": "D#5",
          "ticks": 288000,
          "time": 214.343479125,
          "velocity": 0.3464566929133858
        },
        {
          "duration": 0.16900599166666552,
          "durationTicks": 236,
          "midi": 79,
          "name": "G5",
          "ticks": 288480,
          "time": 214.68722012499998,
          "velocity": 0.3464566929133858
        },
        {
          "duration": 0.08307074166665984,
          "durationTicks": 116,
          "midi": 82,
          "name": "A#5",
          "ticks": 288720,
          "time": 214.859090625,
          "velocity": 0.3464566929133858
        },
        {
          "duration": 0.16900599166666552,
          "durationTicks": 236,
          "midi": 87,
          "name": "D#6",
          "ticks": 289200,
          "time": 215.202831625,
          "velocity": 0.4251968503937008
        },
        {
          "duration": 0.6846174916666428,
          "durationTicks": 956,
          "midi": 82,
          "name": "A#5",
          "ticks": 289440,
          "time": 215.374702125,
          "velocity": 0.2677165354330709
        },
        {
          "duration": 0.16900599166666552,
          "durationTicks": 236,
          "midi": 79,
          "name": "G5",
          "ticks": 290400,
          "time": 216.062184125,
          "velocity": 0.3464566929133858
        },
        {
          "duration": 0.16900599166666552,
          "durationTicks": 236,
          "midi": 75,
          "name": "D#5",
          "ticks": 290640,
          "time": 216.234054625,
          "velocity": 0.3464566929133858
        },
        {
          "duration": 0.08307074166665984,
          "durationTicks": 116,
          "midi": 77,
          "name": "F5",
          "ticks": 290880,
          "time": 216.40592512499998,
          "velocity": 0.2677165354330709
        },
        {
          "duration": 0.16900599166666552,
          "durationTicks": 236,
          "midi": 82,
          "name": "A#5",
          "ticks": 291360,
          "time": 216.74966612499998,
          "velocity": 0.3464566929133858
        },
        {
          "duration": 0.08307074166665984,
          "durationTicks": 116,
          "midi": 75,
          "name": "D#5",
          "ticks": 291600,
          "time": 216.921536625,
          "velocity": 0.2677165354330709
        },
        {
          "duration": 0.16900599166666552,
          "durationTicks": 236,
          "midi": 82,
          "name": "A#5",
          "ticks": 292080,
          "time": 217.26527762499998,
          "velocity": 0.3464566929133858
        },
        {
          "duration": 0.5127469916666598,
          "durationTicks": 716,
          "midi": 79,
          "name": "G5",
          "ticks": 292320,
          "time": 217.437148125,
          "velocity": 0.3464566929133858
        },
        {
          "duration": 0.16900599166666552,
          "durationTicks": 236,
          "midi": 77,
          "name": "F5",
          "ticks": 293040,
          "time": 217.952759625,
          "velocity": 0.30708661417322836
        },
        {
          "duration": 0.08307074166668826,
          "durationTicks": 116,
          "midi": 79,
          "name": "G5",
          "ticks": 293760,
          "time": 218.46837112499998,
          "velocity": 0.36220472440944884
        },
        {
          "duration": 0.16900599166666552,
          "durationTicks": 236,
          "midi": 74,
          "name": "D5",
          "ticks": 294000,
          "time": 218.640241625,
          "velocity": 0.2992125984251969
        },
        {
          "duration": 0.08307074166665984,
          "durationTicks": 116,
          "midi": 75,
          "name": "D#5",
          "ticks": 294240,
          "time": 218.812112125,
          "velocity": 0.31496062992125984
        },
        {
          "duration": 0.08307074166665984,
          "durationTicks": 116,
          "midi": 80,
          "name": "G#5",
          "ticks": 294480,
          "time": 218.98398262499998,
          "velocity": 0.33070866141732286
        },
        {
          "duration": 0.16900599166666552,
          "durationTicks": 236,
          "midi": 76,
          "name": "E5",
          "ticks": 294720,
          "time": 219.155853125,
          "velocity": 0.3464566929133858
        },
        {
          "duration": 0.08307074166668826,
          "durationTicks": 116,
          "midi": 77,
          "name": "F5",
          "ticks": 294960,
          "time": 219.32772362499998,
          "velocity": 0.3700787401574803
        },
        {
          "duration": 0.2549412416666712,
          "durationTicks": 356,
          "midi": 82,
          "name": "A#5",
          "ticks": 295200,
          "time": 219.499594125,
          "velocity": 0.3858267716535433
        },
        {
          "duration": 0.05442565833334356,
          "durationTicks": 76,
          "midi": 84,
          "name": "C6",
          "ticks": 295680,
          "time": 219.84333512499998,
          "velocity": 0.33858267716535434
        },
        {
          "duration": 0.05442565833331514,
          "durationTicks": 76,
          "midi": 82,
          "name": "A#5",
          "ticks": 295740,
          "time": 219.88630275,
          "velocity": 0.3464566929133858
        },
        {
          "duration": 0.05442565833334356,
          "durationTicks": 76,
          "midi": 81,
          "name": "A5",
          "ticks": 295800,
          "time": 219.929270375,
          "velocity": 0.3464566929133858
        },
        {
          "duration": 0.05442565833334356,
          "durationTicks": 76,
          "midi": 82,
          "name": "A#5",
          "ticks": 295860,
          "time": 219.97223799999998,
          "velocity": 0.3543307086614173
        },
        {
          "duration": 0.2262961583333265,
          "durationTicks": 316,
          "midi": 87,
          "name": "D#6",
          "ticks": 295920,
          "time": 220.015205625,
          "velocity": 0.36220472440944884
        },
        {
          "duration": 0.05442565833334356,
          "durationTicks": 76,
          "midi": 70,
          "name": "A#4",
          "ticks": 300960,
          "time": 223.62448612499998,
          "velocity": 0.29133858267716534
        },
        {
          "duration": 0.16900599166666552,
          "durationTicks": 236,
          "midi": 65,
          "name": "F4",
          "ticks": 301200,
          "time": 223.796356625,
          "velocity": 0.2992125984251969
        },
        {
          "duration": 0.08307074166665984,
          "durationTicks": 116,
          "midi": 66,
          "name": "F#4",
          "ticks": 301440,
          "time": 223.968227125,
          "velocity": 0.2992125984251969
        },
        {
          "duration": 0.05442565833334356,
          "durationTicks": 76,
          "midi": 72,
          "name": "C5",
          "ticks": 301680,
          "time": 224.14009762499998,
          "velocity": 0.30708661417322836
        },
        {
          "duration": 0.16900599166666552,
          "durationTicks": 236,
          "midi": 67,
          "name": "G4",
          "ticks": 301920,
          "time": 224.311968125,
          "velocity": 0.31496062992125984
        },
        {
          "duration": 0.08307074166668826,
          "durationTicks": 116,
          "midi": 68,
          "name": "G#4",
          "ticks": 302160,
          "time": 224.48383862499998,
          "velocity": 0.3228346456692913
        },
        {
          "duration": 0.2262961583333265,
          "durationTicks": 316,
          "midi": 73,
          "name": "C#5",
          "ticks": 302400,
          "time": 224.655709125,
          "velocity": 0.2440944881889764
        },
        {
          "duration": 0.05442565833331514,
          "durationTicks": 76,
          "midi": 71,
          "name": "B4",
          "ticks": 303840,
          "time": 225.686932125,
          "velocity": 0.33858267716535434
        },
        {
          "duration": 0.16900599166666552,
          "durationTicks": 236,
          "midi": 67,
          "name": "G4",
          "ticks": 304080,
          "time": 225.85880262499998,
          "velocity": 0.2677165354330709
        },
        {
          "duration": 0.08307074166665984,
          "durationTicks": 116,
          "midi": 68,
          "name": "G#4",
          "ticks": 304320,
          "time": 226.030673125,
          "velocity": 0.28346456692913385
        },
        {
          "duration": 0.05442565833334356,
          "durationTicks": 76,
          "midi": 74,
          "name": "D5",
          "ticks": 304560,
          "time": 226.20254362499998,
          "velocity": 0.3779527559055118
        },
        {
          "duration": 0.16900599166666552,
          "durationTicks": 236,
          "midi": 69,
          "name": "A4",
          "ticks": 304800,
          "time": 226.374414125,
          "velocity": 0.31496062992125984
        },
        {
          "duration": 0.08307074166665984,
          "durationTicks": 116,
          "midi": 70,
          "name": "A#4",
          "ticks": 305040,
          "time": 226.546284625,
          "velocity": 0.33070866141732286
        },
        {
          "duration": 0.2549412416666712,
          "durationTicks": 356,
          "midi": 75,
          "name": "D#5",
          "ticks": 305280,
          "time": 226.71815512499998,
          "velocity": 0.2677165354330709
        },
        {
          "duration": 0.05442565833331514,
          "durationTicks": 76,
          "midi": 73,
          "name": "C#5",
          "ticks": 306720,
          "time": 227.749378125,
          "velocity": 0.33858267716535434
        },
        {
          "duration": 0.16900599166666552,
          "durationTicks": 236,
          "midi": 69,
          "name": "A4",
          "ticks": 306960,
          "time": 227.92124862499998,
          "velocity": 0.2755905511811024
        },
        {
          "duration": 0.08307074166665984,
          "durationTicks": 116,
          "midi": 70,
          "name": "A#4",
          "ticks": 307200,
          "time": 228.093119125,
          "velocity": 0.29133858267716534
        },
        {
          "duration": 0.05442565833331514,
          "durationTicks": 76,
          "midi": 76,
          "name": "E5",
          "ticks": 307440,
          "time": 228.264989625,
          "velocity": 0.3858267716535433
        },
        {
          "duration": 0.16900599166666552,
          "durationTicks": 236,
          "midi": 71,
          "name": "B4",
          "ticks": 307680,
          "time": 228.43686012499998,
          "velocity": 0.3228346456692913
        },
        {
          "duration": 0.08307074166665984,
          "durationTicks": 116,
          "midi": 72,
          "name": "C5",
          "ticks": 307920,
          "time": 228.608730625,
          "velocity": 0.3464566929133858
        },
        {
          "duration": 0.05442565833334356,
          "durationTicks": 76,
          "midi": 77,
          "name": "F5",
          "ticks": 308160,
          "time": 228.78060112499998,
          "velocity": 0.4094488188976378
        },
        {
          "duration": 0.16900599166666552,
          "durationTicks": 236,
          "midi": 84,
          "name": "C6",
          "ticks": 308400,
          "time": 228.952471625,
          "velocity": 0.4015748031496063
        },
        {
          "duration": 0.08307074166665984,
          "durationTicks": 116,
          "midi": 81,
          "name": "A5",
          "ticks": 308640,
          "time": 229.124342125,
          "velocity": 0.3937007874015748
        },
        {
          "duration": 0.05442565833334356,
          "durationTicks": 76,
          "midi": 77,
          "name": "F5",
          "ticks": 308880,
          "time": 229.29621262499998,
          "velocity": 0.3937007874015748
        },
        {
          "duration": 0.16900599166666552,
          "durationTicks": 236,
          "midi": 84,
          "name": "C6",
          "ticks": 309120,
          "time": 229.468083125,
          "velocity": 0.3858267716535433
        },
        {
          "duration": 0.08307074166668826,
          "durationTicks": 116,
          "midi": 75,
          "name": "D#5",
          "ticks": 309360,
          "time": 229.63995362499998,
          "velocity": 0.3779527559055118
        },
        {
          "duration": 0.05442565833334356,
          "durationTicks": 76,
          "midi": 73,
          "name": "C#5",
          "ticks": 309600,
          "time": 229.811824125,
          "velocity": 0.3779527559055118
        },
        {
          "duration": 0.16900599166666552,
          "durationTicks": 236,
          "midi": 85,
          "name": "C#6",
          "ticks": 309840,
          "time": 229.983694625,
          "velocity": 0.3700787401574803
        },
        {
          "duration": 0.08307074166665984,
          "durationTicks": 116,
          "midi": 82,
          "name": "A#5",
          "ticks": 310080,
          "time": 230.15556512499998,
          "velocity": 0.3700787401574803
        },
        {
          "duration": 0.05442565833331514,
          "durationTicks": 76,
          "midi": 79,
          "name": "G5",
          "ticks": 310320,
          "time": 230.327435625,
          "velocity": 0.36220472440944884
        },
        {
          "duration": 0.16900599166666552,
          "durationTicks": 236,
          "midi": 82,
          "name": "A#5",
          "ticks": 310560,
          "time": 230.49930612499998,
          "velocity": 0.3543307086614173
        },
        {
          "duration": 0.08307074166665984,
          "durationTicks": 116,
          "midi": 76,
          "name": "E5",
          "ticks": 310800,
          "time": 230.671176625,
          "velocity": 0.3543307086614173
        },
        {
          "duration": 0.05442565833331514,
          "durationTicks": 76,
          "midi": 77,
          "name": "F5",
          "ticks": 311040,
          "time": 230.843047125,
          "velocity": 0.2755905511811024
        },
        {
          "duration": 0.16900599166666552,
          "durationTicks": 236,
          "midi": 84,
          "name": "C6",
          "ticks": 311280,
          "time": 231.01491762499998,
          "velocity": 0.2755905511811024
        },
        {
          "duration": 0.08307074166665984,
          "durationTicks": 116,
          "midi": 81,
          "name": "A5",
          "ticks": 311520,
          "time": 231.186788125,
          "velocity": 0.2755905511811024
        },
        {
          "duration": 0.05442565833334356,
          "durationTicks": 76,
          "midi": 77,
          "name": "F5",
          "ticks": 311760,
          "time": 231.35865862499998,
          "velocity": 0.2755905511811024
        },
        {
          "duration": 0.16900599166666552,
          "durationTicks": 236,
          "midi": 84,
          "name": "C6",
          "ticks": 312000,
          "time": 231.530529125,
          "velocity": 0.2755905511811024
        },
        {
          "duration": 0.08307074166665984,
          "durationTicks": 116,
          "midi": 75,
          "name": "D#5",
          "ticks": 312240,
          "time": 231.702399625,
          "velocity": 0.2755905511811024
        },
        {
          "duration": 0.05442565833334356,
          "durationTicks": 76,
          "midi": 73,
          "name": "C#5",
          "ticks": 312480,
          "time": 231.87427012499998,
          "velocity": 0.2755905511811024
        },
        {
          "duration": 0.16900599166666552,
          "durationTicks": 236,
          "midi": 85,
          "name": "C#6",
          "ticks": 312720,
          "time": 232.046140625,
          "velocity": 0.2755905511811024
        },
        {
          "duration": 0.08307074166668826,
          "durationTicks": 116,
          "midi": 82,
          "name": "A#5",
          "ticks": 312960,
          "time": 232.21801112499998,
          "velocity": 0.2755905511811024
        },
        {
          "duration": 0.05442565833334356,
          "durationTicks": 76,
          "midi": 79,
          "name": "G5",
          "ticks": 313200,
          "time": 232.389881625,
          "velocity": 0.2755905511811024
        },
        {
          "duration": 0.16900599166666552,
          "durationTicks": 236,
          "midi": 82,
          "name": "A#5",
          "ticks": 313440,
          "time": 232.561752125,
          "velocity": 0.2755905511811024
        },
        {
          "duration": 0.08307074166665984,
          "durationTicks": 116,
          "midi": 76,
          "name": "E5",
          "ticks": 313680,
          "time": 232.73362262499998,
          "velocity": 0.2755905511811024
        },
        {
          "duration": 0.05442565833331514,
          "durationTicks": 76,
          "midi": 77,
          "name": "F5",
          "ticks": 313920,
          "time": 232.905493125,
          "velocity": 0.3464566929133858
        },
        {
          "duration": 0.16900599166666552,
          "durationTicks": 236,
          "midi": 77,
          "name": "F5",
          "ticks": 314160,
          "time": 233.07736362499998,
          "velocity": 0.25984251968503935
        },
        {
          "duration": 0.16900599166666552,
          "durationTicks": 236,
          "midi": 78,
          "name": "F#5",
          "ticks": 314400,
          "time": 233.249234125,
          "velocity": 0.2755905511811024
        },
        {
          "duration": 0.08307074166665984,
          "durationTicks": 116,
          "midi": 79,
          "name": "G5",
          "ticks": 314640,
          "time": 233.421104625,
          "velocity": 0.2992125984251969
        },
        {
          "duration": 0.16900599166666552,
          "durationTicks": 236,
          "midi": 75,
          "name": "D#5",
          "ticks": 314880,
          "time": 233.59297512499998,
          "velocity": 0.3228346456692913
        },
        {
          "duration": 0.16900599166666552,
          "durationTicks": 236,
          "midi": 76,
          "name": "E5",
          "ticks": 315120,
          "time": 233.764845625,
          "velocity": 0.3464566929133858
        },
        {
          "duration": 0.08307074166668826,
          "durationTicks": 116,
          "midi": 77,
          "name": "F5",
          "ticks": 315360,
          "time": 233.93671612499998,
          "velocity": 0.3700787401574803
        },
        {
          "duration": 0.16900599166666552,
          "durationTicks": 236,
          "midi": 72,
          "name": "C5",
          "ticks": 315600,
          "time": 234.108586625,
          "velocity": 0.3937007874015748
        },
        {
          "duration": 0.16900599166666552,
          "durationTicks": 236,
          "midi": 74,
          "name": "D5",
          "ticks": 315840,
          "time": 234.280457125,
          "velocity": 0.41732283464566927
        },
        {
          "duration": 0.08307074166665984,
          "durationTicks": 116,
          "midi": 75,
          "name": "D#5",
          "ticks": 316080,
          "time": 234.45232762499998,
          "velocity": 0.4409448818897638
        },
        {
          "duration": 0.16900599166666552,
          "durationTicks": 236,
          "midi": 67,
          "name": "G4",
          "ticks": 316320,
          "time": 234.624198125,
          "velocity": 0.4251968503937008
        },
        {
          "duration": 0.08307074166668826,
          "durationTicks": 116,
          "midi": 72,
          "name": "C5",
          "ticks": 316560,
          "time": 234.79606862499998,
          "velocity": 0.3464566929133858
        },
        {
          "duration": 0.1842255333333469,
          "durationTicks": 236,
          "midi": 70,
          "name": "A#4",
          "ticks": 316800,
          "time": 234.967939125,
          "velocity": 0.4330708661417323
        },
        {
          "duration": 0.12177620000002776,
          "durationTicks": 156,
          "midi": 69,
          "name": "A4",
          "ticks": 317040,
          "time": 235.15528712499997,
          "velocity": 0.41732283464566927
        },
        {
          "duration": 0.1842255333333469,
          "durationTicks": 236,
          "midi": 72,
          "name": "C5",
          "ticks": 317280,
          "time": 235.342635125,
          "velocity": 0.4015748031496063
        },
        {
          "duration": 0.12177620000002776,
          "durationTicks": 156,
          "midi": 71,
          "name": "B4",
          "ticks": 317520,
          "time": 235.52998312499997,
          "velocity": 0.3858267716535433
        },
        {
          "duration": 0.1842255333333469,
          "durationTicks": 236,
          "midi": 74,
          "name": "D5",
          "ticks": 317760,
          "time": 235.717331125,
          "velocity": 0.3700787401574803
        },
        {
          "duration": 0.12177620000002776,
          "durationTicks": 156,
          "midi": 72,
          "name": "C5",
          "ticks": 318000,
          "time": 235.90467912499997,
          "velocity": 0.3464566929133858
        },
        {
          "duration": 0.19574036666665506,
          "durationTicks": 236,
          "midi": 75,
          "name": "D#5",
          "ticks": 318240,
          "time": 236.092027125,
          "velocity": 0.3779527559055118
        },
        {
          "duration": 0.12938769999999522,
          "durationTicks": 156,
          "midi": 74,
          "name": "D5",
          "ticks": 318480,
          "time": 236.291085125,
          "velocity": 0.3700787401574803
        },
        {
          "duration": 0.19574036666668349,
          "durationTicks": 236,
          "midi": 77,
          "name": "F5",
          "ticks": 318720,
          "time": 236.49014312499997,
          "velocity": 0.36220472440944884
        },
        {
          "duration": 0.10262592500001233,
          "durationTicks": 116,
          "midi": 75,
          "name": "D#5",
          "ticks": 318960,
          "time": 236.68920112499998,
          "velocity": 0.3464566929133858
        },
        {
          "duration": 0.06723767500000122,
          "durationTicks": 76,
          "midi": 72,
          "name": "C5",
          "ticks": 319200,
          "time": 236.901530625,
          "velocity": 0.3464566929133858
        },
        {
          "duration": 0.06723767500000122,
          "durationTicks": 76,
          "midi": 69,
          "name": "A4",
          "ticks": 319440,
          "time": 237.11386012499997,
          "velocity": 0.2677165354330709
        },
        {
          "duration": 0.5067688666666754,
          "durationTicks": 596,
          "midi": 70,
          "name": "A#4",
          "ticks": 319680,
          "time": 237.32618962499998,
          "velocity": 0.3464566929133858
        },
        {
          "duration": 0.047615866666689044,
          "durationTicks": 56,
          "midi": 74,
          "name": "D5",
          "ticks": 320340,
          "time": 237.88737662499997,
          "velocity": 0.3464566929133858
        },
        {
          "duration": 0.0932236416666683,
          "durationTicks": 116,
          "midi": 72,
          "name": "C5",
          "ticks": 320400,
          "time": 237.93839362499997,
          "velocity": 0.3464566929133858
        },
        {
          "duration": 0.04291058333333808,
          "durationTicks": 56,
          "midi": 70,
          "name": "A#4",
          "ticks": 320640,
          "time": 238.131270125,
          "velocity": 0.3464566929133858
        },
        {
          "duration": 0.04291058333333808,
          "durationTicks": 56,
          "midi": 72,
          "name": "C5",
          "ticks": 320880,
          "time": 238.31517262499997,
          "velocity": 0.3464566929133858
        },
        {
          "duration": 0.3408764916666769,
          "durationTicks": 476,
          "midi": 74,
          "name": "D5",
          "ticks": 321120,
          "time": 238.499075125,
          "velocity": 0.3464566929133858
        },
        {
          "duration": 0.04010311666667121,
          "durationTicks": 56,
          "midi": 70,
          "name": "A#4",
          "ticks": 321600,
          "time": 238.84281612499998,
          "velocity": 0.3464566929133858
        },
        {
          "duration": 0.34087649166664846,
          "durationTicks": 476,
          "midi": 75,
          "name": "D#5",
          "ticks": 321840,
          "time": 239.014686625,
          "velocity": 0.3464566929133858
        },
        {
          "duration": 0.04010311666667121,
          "durationTicks": 56,
          "midi": 74,
          "name": "D5",
          "ticks": 322320,
          "time": 239.358427625,
          "velocity": 0.3464566929133858
        },
        {
          "duration": 0.08307074166665984,
          "durationTicks": 116,
          "midi": 74,
          "name": "D5",
          "ticks": 322500,
          "time": 239.48733049999998,
          "velocity": 0.2677165354330709
        },
        {
          "duration": 0.04010311666664279,
          "durationTicks": 56,
          "midi": 72,
          "name": "C5",
          "ticks": 322560,
          "time": 239.530298125,
          "velocity": 0.3464566929133858
        },
        {
          "duration": 0.04010311666667121,
          "durationTicks": 56,
          "midi": 71,
          "name": "B4",
          "ticks": 322800,
          "time": 239.70216862499998,
          "velocity": 0.3464566929133858
        },
        {
          "duration": 0.04010311666667121,
          "durationTicks": 56,
          "midi": 72,
          "name": "C5",
          "ticks": 323040,
          "time": 239.874039125,
          "velocity": 0.3464566929133858
        },
        {
          "duration": 0.16900599166666552,
          "durationTicks": 236,
          "midi": 67,
          "name": "G4",
          "ticks": 323280,
          "time": 240.04590962499998,
          "velocity": 0.3464566929133858
        },
        {
          "duration": 0.16900599166666552,
          "durationTicks": 236,
          "midi": 72,
          "name": "C5",
          "ticks": 323520,
          "time": 240.217780125,
          "velocity": 0.3464566929133858
        },
        {
          "duration": 0.04010311666664279,
          "durationTicks": 56,
          "midi": 70,
          "name": "A#4",
          "ticks": 323760,
          "time": 240.389650625,
          "velocity": 0.3464566929133858
        },
        {
          "duration": 0.08307074166665984,
          "durationTicks": 116,
          "midi": 70,
          "name": "A#4",
          "ticks": 324000,
          "time": 240.56152112499998,
          "velocity": 0.3464566929133858
        },
        {
          "duration": 0.08307074166665984,
          "durationTicks": 116,
          "midi": 69,
          "name": "A4",
          "ticks": 324120,
          "time": 240.647456375,
          "velocity": 0.3858267716535433
        },
        {
          "duration": 0.08307074166665984,
          "durationTicks": 116,
          "midi": 67,
          "name": "G4",
          "ticks": 324240,
          "time": 240.733391625,
          "velocity": 0.4251968503937008
        },
        {
          "duration": 0.08307074166665984,
          "durationTicks": 116,
          "midi": 65,
          "name": "F4",
          "ticks": 324360,
          "time": 240.819326875,
          "velocity": 0.3858267716535433
        },
        {
          "duration": 0.08307074166668826,
          "durationTicks": 116,
          "midi": 64,
          "name": "E4",
          "ticks": 324480,
          "time": 240.90526212499998,
          "velocity": 0.3464566929133858
        },
        {
          "duration": 0.08307074166665984,
          "durationTicks": 116,
          "midi": 65,
          "name": "F4",
          "ticks": 324600,
          "time": 240.99119737499998,
          "velocity": 0.3228346456692913
        },
        {
          "duration": 0.08307074166665984,
          "durationTicks": 116,
          "midi": 64,
          "name": "E4",
          "ticks": 324720,
          "time": 241.077132625,
          "velocity": 0.33858267716535434
        },
        {
          "duration": 0.08307074166665984,
          "durationTicks": 116,
          "midi": 65,
          "name": "F4",
          "ticks": 324840,
          "time": 241.163067875,
          "velocity": 0.3543307086614173
        },
        {
          "duration": 0.08307074166665984,
          "durationTicks": 116,
          "midi": 66,
          "name": "F#4",
          "ticks": 324960,
          "time": 241.249003125,
          "velocity": 0.3700787401574803
        },
        {
          "duration": 0.08307074166668826,
          "durationTicks": 116,
          "midi": 67,
          "name": "G4",
          "ticks": 325080,
          "time": 241.33493837499998,
          "velocity": 0.3858267716535433
        },
        {
          "duration": 0.08307074166665984,
          "durationTicks": 116,
          "midi": 68,
          "name": "G#4",
          "ticks": 325200,
          "time": 241.42087362499998,
          "velocity": 0.4015748031496063
        },
        {
          "duration": 0.08307074166665984,
          "durationTicks": 116,
          "midi": 69,
          "name": "A4",
          "ticks": 325320,
          "time": 241.506808875,
          "velocity": 0.41732283464566927
        },
        {
          "duration": 0.16900599166666552,
          "durationTicks": 236,
          "midi": 70,
          "name": "A#4",
          "ticks": 325440,
          "time": 241.592744125,
          "velocity": 0.36220472440944884
        },
        {
          "duration": 0.34087649166664846,
          "durationTicks": 476,
          "midi": 82,
          "name": "A#5",
          "ticks": 325560,
          "time": 241.678679375,
          "velocity": 0.4409448818897638
        },
        {
          "duration": 0.04010311666667121,
          "durationTicks": 56,
          "midi": 86,
          "name": "D6",
          "ticks": 326100,
          "time": 242.06538799999998,
          "velocity": 0.3464566929133858
        },
        {
          "duration": 0.04010311666664279,
          "durationTicks": 56,
          "midi": 84,
          "name": "C6",
          "ticks": 326160,
          "time": 242.108355625,
          "velocity": 0.3464566929133858
        },
        {
          "duration": 0.04010311666667121,
          "durationTicks": 56,
          "midi": 82,
          "name": "A#5",
          "ticks": 326400,
          "time": 242.28022612499998,
          "velocity": 0.3779527559055118
        },
        {
          "duration": 0.04010311666667121,
          "durationTicks": 56,
          "midi": 84,
          "name": "C6",
          "ticks": 326640,
          "time": 242.452096625,
          "velocity": 0.4015748031496063
        },
        {
          "duration": 0.3408764916666769,
          "durationTicks": 476,
          "midi": 86,
          "name": "D6",
          "ticks": 326880,
          "time": 242.62396712499998,
          "velocity": 0.4330708661417323
        },
        {
          "duration": 0.04010311666664279,
          "durationTicks": 56,
          "midi": 82,
          "name": "A#5",
          "ticks": 327360,
          "time": 242.967708125,
          "velocity": 0.3464566929133858
        },
        {
          "duration": 0.3408764916666769,
          "durationTicks": 476,
          "midi": 87,
          "name": "D#6",
          "ticks": 327600,
          "time": 243.13957862499998,
          "velocity": 0.4251968503937008
        },
        {
          "duration": 0.04010311666667121,
          "durationTicks": 56,
          "midi": 86,
          "name": "D6",
          "ticks": 328080,
          "time": 243.48331962499998,
          "velocity": 0.3464566929133858
        },
        {
          "duration": 0.04010311666664279,
          "durationTicks": 56,
          "midi": 86,
          "name": "D6",
          "ticks": 328260,
          "time": 243.6122225,
          "velocity": 0.41732283464566927
        },
        {
          "duration": 0.04010311666667121,
          "durationTicks": 56,
          "midi": 84,
          "name": "C6",
          "ticks": 328320,
          "time": 243.655190125,
          "velocity": 0.41732283464566927
        },
        {
          "duration": 0.04010311666664279,
          "durationTicks": 56,
          "midi": 83,
          "name": "B5",
          "ticks": 328560,
          "time": 243.827060625,
          "velocity": 0.4015748031496063
        },
        {
          "duration": 0.04010311666667121,
          "durationTicks": 56,
          "midi": 84,
          "name": "C6",
          "ticks": 328800,
          "time": 243.99893112499998,
          "velocity": 0.3858267716535433
        },
        {
          "duration": 0.16900599166666552,
          "durationTicks": 236,
          "midi": 79,
          "name": "G5",
          "ticks": 329040,
          "time": 244.170801625,
          "velocity": 0.3700787401574803
        },
        {
          "duration": 0.16900599166666552,
          "durationTicks": 236,
          "midi": 84,
          "name": "C6",
          "ticks": 329280,
          "time": 244.34267212499998,
          "velocity": 0.3543307086614173
        },
        {
          "duration": 0.11171582500000454,
          "durationTicks": 156,
          "midi": 82,
          "name": "A#5",
          "ticks": 329520,
          "time": 244.514542625,
          "velocity": 0.33858267716535434
        },
        {
          "duration": 0.08307074166665984,
          "durationTicks": 116,
          "midi": 82,
          "name": "A#5",
          "ticks": 329760,
          "time": 244.686413125,
          "velocity": 0.4330708661417323
        },
        {
          "duration": 0.08307074166668826,
          "durationTicks": 116,
          "midi": 81,
          "name": "A5",
          "ticks": 329880,
          "time": 244.77234837499998,
          "velocity": 0.41732283464566927
        },
        {
          "duration": 0.08307074166665984,
          "durationTicks": 116,
          "midi": 79,
          "name": "G5",
          "ticks": 330000,
          "time": 244.85828362499998,
          "velocity": 0.4015748031496063
        },
        {
          "duration": 0.08307074166665984,
          "durationTicks": 116,
          "midi": 77,
          "name": "F5",
          "ticks": 330120,
          "time": 244.944218875,
          "velocity": 0.3858267716535433
        },
        {
          "duration": 0.08307074166665984,
          "durationTicks": 116,
          "midi": 76,
          "name": "E5",
          "ticks": 330240,
          "time": 245.030154125,
          "velocity": 0.3700787401574803
        },
        {
          "duration": 0.08307074166665984,
          "durationTicks": 116,
          "midi": 77,
          "name": "F5",
          "ticks": 330360,
          "time": 245.116089375,
          "velocity": 0.3464566929133858
        },
        {
          "duration": 0.08307074166668826,
          "durationTicks": 116,
          "midi": 76,
          "name": "E5",
          "ticks": 330480,
          "time": 245.20202462499998,
          "velocity": 0.3543307086614173
        },
        {
          "duration": 0.08307074166665984,
          "durationTicks": 116,
          "midi": 77,
          "name": "F5",
          "ticks": 330600,
          "time": 245.28795987499998,
          "velocity": 0.3700787401574803
        },
        {
          "duration": 0.08307074166665984,
          "durationTicks": 116,
          "midi": 78,
          "name": "F#5",
          "ticks": 330720,
          "time": 245.373895125,
          "velocity": 0.3779527559055118
        },
        {
          "duration": 0.08307074166665984,
          "durationTicks": 116,
          "midi": 79,
          "name": "G5",
          "ticks": 330840,
          "time": 245.459830375,
          "velocity": 0.3937007874015748
        },
        {
          "duration": 0.08307074166665984,
          "durationTicks": 116,
          "midi": 80,
          "name": "G#5",
          "ticks": 330960,
          "time": 245.545765625,
          "velocity": 0.4015748031496063
        },
        {
          "duration": 0.08307074166668826,
          "durationTicks": 116,
          "midi": 81,
          "name": "A5",
          "ticks": 331080,
          "time": 245.63170087499998,
          "velocity": 0.41732283464566927
        },
        {
          "duration": 0.08307074166665984,
          "durationTicks": 116,
          "midi": 82,
          "name": "A#5",
          "ticks": 331200,
          "time": 245.71763612499998,
          "velocity": 0.4330708661417323
        },
        {
          "duration": 0.08307074166665984,
          "durationTicks": 116,
          "midi": 86,
          "name": "D6",
          "ticks": 331320,
          "time": 245.803571375,
          "velocity": 0.4330708661417323
        },
        {
          "duration": 0.08307074166665984,
          "durationTicks": 116,
          "midi": 84,
          "name": "C6",
          "ticks": 331440,
          "time": 245.889506625,
          "velocity": 0.4251968503937008
        },
        {
          "duration": 0.08307074166665984,
          "durationTicks": 116,
          "midi": 82,
          "name": "A#5",
          "ticks": 331560,
          "time": 245.975441875,
          "velocity": 0.41732283464566927
        },
        {
          "duration": 0.08307074166668826,
          "durationTicks": 116,
          "midi": 81,
          "name": "A5",
          "ticks": 331680,
          "time": 246.06137712499998,
          "velocity": 0.4094488188976378
        },
        {
          "duration": 0.08307074166665984,
          "durationTicks": 116,
          "midi": 79,
          "name": "G5",
          "ticks": 331800,
          "time": 246.14731237499998,
          "velocity": 0.4015748031496063
        },
        {
          "duration": 0.08307074166665984,
          "durationTicks": 116,
          "midi": 77,
          "name": "F5",
          "ticks": 331920,
          "time": 246.233247625,
          "velocity": 0.3937007874015748
        },
        {
          "duration": 0.08307074166665984,
          "durationTicks": 116,
          "midi": 79,
          "name": "G5",
          "ticks": 332040,
          "time": 246.319182875,
          "velocity": 0.3858267716535433
        },
        {
          "duration": 0.08307074166665984,
          "durationTicks": 116,
          "midi": 77,
          "name": "F5",
          "ticks": 332160,
          "time": 246.405118125,
          "velocity": 0.3779527559055118
        },
        {
          "duration": 0.08307074166668826,
          "durationTicks": 116,
          "midi": 75,
          "name": "D#5",
          "ticks": 332280,
          "time": 246.49105337499998,
          "velocity": 0.3700787401574803
        },
        {
          "duration": 0.08307074166665984,
          "durationTicks": 116,
          "midi": 74,
          "name": "D5",
          "ticks": 332400,
          "time": 246.57698862499998,
          "velocity": 0.36220472440944884
        },
        {
          "duration": 0.08307074166665984,
          "durationTicks": 116,
          "midi": 72,
          "name": "C5",
          "ticks": 332520,
          "time": 246.662923875,
          "velocity": 0.3543307086614173
        },
        {
          "duration": 0.08307074166665984,
          "durationTicks": 116,
          "midi": 70,
          "name": "A#4",
          "ticks": 332640,
          "time": 246.748859125,
          "velocity": 0.3464566929133858
        },
        {
          "duration": 0.08307074166665984,
          "durationTicks": 116,
          "midi": 74,
          "name": "D5",
          "ticks": 332760,
          "time": 246.834794375,
          "velocity": 0.4330708661417323
        },
        {
          "duration": 0.08307074166668826,
          "durationTicks": 116,
          "midi": 72,
          "name": "C5",
          "ticks": 332880,
          "time": 246.92072962499998,
          "velocity": 0.4251968503937008
        },
        {
          "duration": 0.08307074166665984,
          "durationTicks": 116,
          "midi": 70,
          "name": "A#4",
          "ticks": 333000,
          "time": 247.00666487499998,
          "velocity": 0.41732283464566927
        },
        {
          "duration": 0.08307074166665984,
          "durationTicks": 116,
          "midi": 69,
          "name": "A4",
          "ticks": 333120,
          "time": 247.092600125,
          "velocity": 0.4094488188976378
        },
        {
          "duration": 0.08307074166665984,
          "durationTicks": 116,
          "midi": 67,
          "name": "G4",
          "ticks": 333240,
          "time": 247.178535375,
          "velocity": 0.4015748031496063
        },
        {
          "duration": 0.08307074166665984,
          "durationTicks": 116,
          "midi": 65,
          "name": "F4",
          "ticks": 333360,
          "time": 247.264470625,
          "velocity": 0.3937007874015748
        },
        {
          "duration": 0.08307074166668826,
          "durationTicks": 116,
          "midi": 67,
          "name": "G4",
          "ticks": 333480,
          "time": 247.35040587499998,
          "velocity": 0.3858267716535433
        },
        {
          "duration": 0.08307074166665984,
          "durationTicks": 116,
          "midi": 65,
          "name": "F4",
          "ticks": 333600,
          "time": 247.43634112499998,
          "velocity": 0.3779527559055118
        },
        {
          "duration": 0.08307074166665984,
          "durationTicks": 116,
          "midi": 63,
          "name": "D#4",
          "ticks": 333720,
          "time": 247.522276375,
          "velocity": 0.3700787401574803
        },
        {
          "duration": 0.08307074166665984,
          "durationTicks": 116,
          "midi": 62,
          "name": "D4",
          "ticks": 333840,
          "time": 247.608211625,
          "velocity": 0.36220472440944884
        },
        {
          "duration": 0.08307074166665984,
          "durationTicks": 116,
          "midi": 60,
          "name": "C4",
          "ticks": 333960,
          "time": 247.694146875,
          "velocity": 0.3543307086614173
        },
        {
          "duration": 0.3408764916666769,
          "durationTicks": 476,
          "midi": 58,
          "name": "A#3",
          "ticks": 334080,
          "time": 247.78008212499998,
          "velocity": 0.3464566929133858
        },
        {
          "duration": 0.16900599166666552,
          "durationTicks": 236,
          "midi": 60,
          "name": "C4",
          "ticks": 334560,
          "time": 248.123823125,
          "velocity": 0.3779527559055118
        },
        {
          "duration": 0.3408764916666769,
          "durationTicks": 476,
          "midi": 62,
          "name": "D4",
          "ticks": 334800,
          "time": 248.29569362499998,
          "velocity": 0.4015748031496063
        },
        {
          "duration": 0.16900599166666552,
          "durationTicks": 236,
          "midi": 64,
          "name": "E4",
          "ticks": 335280,
          "time": 248.63943462499998,
          "velocity": 0.4409448818897638
        },
        {
          "duration": 0.08307074166665984,
          "durationTicks": 116,
          "midi": 65,
          "name": "F4",
          "ticks": 335520,
          "time": 248.811305125,
          "velocity": 0.4330708661417323
        },
        {
          "duration": 0.08307074166665984,
          "durationTicks": 116,
          "midi": 69,
          "name": "A4",
          "ticks": 335640,
          "time": 248.897240375,
          "velocity": 0.4409448818897638
        },
        {
          "duration": 0.08307074166665984,
          "durationTicks": 116,
          "midi": 70,
          "name": "A#4",
          "ticks": 335760,
          "time": 248.983175625,
          "velocity": 0.4566929133858268
        },
        {
          "duration": 0.08307074166668826,
          "durationTicks": 116,
          "midi": 72,
          "name": "C5",
          "ticks": 335880,
          "time": 249.06911087499998,
          "velocity": 0.47244094488188976
        },
        {
          "duration": 0.08307074166665984,
          "durationTicks": 116,
          "midi": 74,
          "name": "D5",
          "ticks": 336000,
          "time": 249.15504612499998,
          "velocity": 0.4881889763779528
        },
        {
          "duration": 0.08307074166665984,
          "durationTicks": 116,
          "midi": 76,
          "name": "E5",
          "ticks": 336120,
          "time": 249.240981375,
          "velocity": 0.5039370078740157
        },
        {
          "duration": 0.08307074166665984,
          "durationTicks": 116,
          "midi": 77,
          "name": "F5",
          "ticks": 336240,
          "time": 249.326916625,
          "velocity": 0.5196850393700787
        },
        {
          "duration": 0.08307074166665984,
          "durationTicks": 116,
          "midi": 76,
          "name": "E5",
          "ticks": 336360,
          "time": 249.412851875,
          "velocity": 0.4330708661417323
        },
        {
          "duration": 0.08307074166668826,
          "durationTicks": 116,
          "midi": 77,
          "name": "F5",
          "ticks": 336480,
          "time": 249.49878712499998,
          "velocity": 0.41732283464566927
        },
        {
          "duration": 0.08307074166665984,
          "durationTicks": 116,
          "midi": 76,
          "name": "E5",
          "ticks": 336600,
          "time": 249.58472237499998,
          "velocity": 0.4015748031496063
        },
        {
          "duration": 0.08307074166665984,
          "durationTicks": 116,
          "midi": 77,
          "name": "F5",
          "ticks": 336720,
          "time": 249.670657625,
          "velocity": 0.3858267716535433
        },
        {
          "duration": 0.08307074166665984,
          "durationTicks": 116,
          "midi": 76,
          "name": "E5",
          "ticks": 336840,
          "time": 249.756592875,
          "velocity": 0.3700787401574803
        },
        {
          "duration": 0.08307074166665984,
          "durationTicks": 116,
          "midi": 77,
          "name": "F5",
          "ticks": 336960,
          "time": 249.842528125,
          "velocity": 0.3464566929133858
        },
        {
          "duration": 0.08307074166668826,
          "durationTicks": 116,
          "midi": 81,
          "name": "A5",
          "ticks": 337080,
          "time": 249.92846337499998,
          "velocity": 0.3700787401574803
        },
        {
          "duration": 0.08307074166665984,
          "durationTicks": 116,
          "midi": 82,
          "name": "A#5",
          "ticks": 337200,
          "time": 250.01439862499998,
          "velocity": 0.4015748031496063
        },
        {
          "duration": 0.08307074166665984,
          "durationTicks": 116,
          "midi": 84,
          "name": "C6",
          "ticks": 337320,
          "time": 250.100333875,
          "velocity": 0.4330708661417323
        },
        {
          "duration": 0.08307074166665984,
          "durationTicks": 116,
          "midi": 86,
          "name": "D6",
          "ticks": 337440,
          "time": 250.186269125,
          "velocity": 0.4566929133858268
        },
        {
          "duration": 0.08307074166665984,
          "durationTicks": 116,
          "midi": 88,
          "name": "E6",
          "ticks": 337560,
          "time": 250.272204375,
          "velocity": 0.4881889763779528
        },
        {
          "duration": 0.08307074166668826,
          "durationTicks": 116,
          "midi": 89,
          "name": "F6",
          "ticks": 337680,
          "time": 250.35813962499998,
          "velocity": 0.5196850393700787
        },
        {
          "duration": 0.08307074166665984,
          "durationTicks": 116,
          "midi": 88,
          "name": "E6",
          "ticks": 337800,
          "time": 250.44407487499998,
          "velocity": 0.5196850393700787
        },
        {
          "duration": 0.08307074166665984,
          "durationTicks": 116,
          "midi": 89,
          "name": "F6",
          "ticks": 337920,
          "time": 250.530010125,
          "velocity": 0.5275590551181102
        },
        {
          "duration": 0.08307074166665984,
          "durationTicks": 116,
          "midi": 88,
          "name": "E6",
          "ticks": 338040,
          "time": 250.615945375,
          "velocity": 0.5433070866141733
        },
        {
          "duration": 0.08307074166665984,
          "durationTicks": 116,
          "midi": 89,
          "name": "F6",
          "ticks": 338160,
          "time": 250.701880625,
          "velocity": 0.5511811023622047
        },
        {
          "duration": 0.08307074166668826,
          "durationTicks": 116,
          "midi": 88,
          "name": "E6",
          "ticks": 338280,
          "time": 250.78781587499998,
          "velocity": 0.5590551181102362
        },
        {
          "duration": 0.16900599166666552,
          "durationTicks": 236,
          "midi": 89,
          "name": "F6",
          "ticks": 338400,
          "time": 250.87375112499998,
          "velocity": 0.5748031496062992
        },
        {
          "duration": 0.16900599166666552,
          "durationTicks": 236,
          "midi": 72,
          "name": "C5",
          "ticks": 339600,
          "time": 251.73310362499998,
          "velocity": 0.3464566929133858
        },
        {
          "duration": 0.11171582500000454,
          "durationTicks": 156,
          "midi": 70,
          "name": "A#4",
          "ticks": 339840,
          "time": 251.904974125,
          "velocity": 0.3464566929133858
        },
        {
          "duration": 0.16900599166666552,
          "durationTicks": 236,
          "midi": 74,
          "name": "D5",
          "ticks": 340320,
          "time": 252.248715125,
          "velocity": 0.3464566929133858
        },
        {
          "duration": 0.11171582499997612,
          "durationTicks": 156,
          "midi": 77,
          "name": "F5",
          "ticks": 340560,
          "time": 252.420585625,
          "velocity": 0.3464566929133858
        },
        {
          "duration": 0.16900599166666552,
          "durationTicks": 236,
          "midi": 70,
          "name": "A#4",
          "ticks": 341040,
          "time": 252.764326625,
          "velocity": 0.3464566929133858
        },
        {
          "duration": 0.3408764916666769,
          "durationTicks": 476,
          "midi": 69,
          "name": "A4",
          "ticks": 341280,
          "time": 252.93619712499998,
          "velocity": 0.3464566929133858
        },
        {
          "duration": 0.16900599166666552,
          "durationTicks": 236,
          "midi": 69,
          "name": "A4",
          "ticks": 342480,
          "time": 253.79554962499998,
          "velocity": 0.3464566929133858
        },
        {
          "duration": 0.11171582500000454,
          "durationTicks": 156,
          "midi": 72,
          "name": "C5",
          "ticks": 342720,
          "time": 253.967420125,
          "velocity": 0.3464566929133858
        },
        {
          "duration": 0.16900599166666552,
          "durationTicks": 236,
          "midi": 75,
          "name": "D#5",
          "ticks": 343200,
          "time": 254.31116112499998,
          "velocity": 0.3464566929133858
        },
        {
          "duration": 0.11171582500000454,
          "durationTicks": 156,
          "midi": 78,
          "name": "F#5",
          "ticks": 343440,
          "time": 254.483031625,
          "velocity": 0.3464566929133858
        },
        {
          "duration": 0.16900599166666552,
          "durationTicks": 236,
          "midi": 72,
          "name": "C5",
          "ticks": 343920,
          "time": 254.826772625,
          "velocity": 0.3464566929133858
        },
        {
          "duration": 0.34087649166664846,
          "durationTicks": 476,
          "midi": 71,
          "name": "B4",
          "ticks": 344160,
          "time": 254.998643125,
          "velocity": 0.3464566929133858
        },
        {
          "duration": 0.16900599166666552,
          "durationTicks": 236,
          "midi": 71,
          "name": "B4",
          "ticks": 345360,
          "time": 255.857995625,
          "velocity": 0.3464566929133858
        },
        {
          "duration": 0.11171582499997612,
          "durationTicks": 156,
          "midi": 74,
          "name": "D5",
          "ticks": 345600,
          "time": 256.029866125,
          "velocity": 0.3464566929133858
        },
        {
          "duration": 0.16900599166666552,
          "durationTicks": 236,
          "midi": 77,
          "name": "F5",
          "ticks": 346080,
          "time": 256.373607125,
          "velocity": 0.3464566929133858
        },
        {
          "duration": 0.11171582499997612,
          "durationTicks": 156,
          "midi": 80,
          "name": "G#5",
          "ticks": 346320,
          "time": 256.545477625,
          "velocity": 0.3464566929133858
        },
        {
          "duration": 0.16900599166666552,
          "durationTicks": 236,
          "midi": 71,
          "name": "B4",
          "ticks": 346800,
          "time": 256.889218625,
          "velocity": 0.3464566929133858
        },
        {
          "duration": 0.08307074166668826,
          "durationTicks": 116,
          "midi": 72,
          "name": "C5",
          "ticks": 347040,
          "time": 257.06108912499997,
          "velocity": 0.33858267716535434
        },
        {
          "duration": 0.08307074166663142,
          "durationTicks": 116,
          "midi": 79,
          "name": "G5",
          "ticks": 347160,
          "time": 257.147024375,
          "velocity": 0.3464566929133858
        },
        {
          "duration": 0.08307074166668826,
          "durationTicks": 116,
          "midi": 78,
          "name": "F#5",
          "ticks": 347280,
          "time": 257.232959625,
          "velocity": 0.3543307086614173
        },
        {
          "duration": 0.08307074166663142,
          "durationTicks": 116,
          "midi": 79,
          "name": "G5",
          "ticks": 347400,
          "time": 257.318894875,
          "velocity": 0.36220472440944884
        },
        {
          "duration": 0.08307074166668826,
          "durationTicks": 116,
          "midi": 77,
          "name": "F5",
          "ticks": 347520,
          "time": 257.404830125,
          "velocity": 0.3700787401574803
        },
        {
          "duration": 0.08307074166668826,
          "durationTicks": 116,
          "midi": 79,
          "name": "G5",
          "ticks": 347640,
          "time": 257.49076537499997,
          "velocity": 0.3779527559055118
        },
        {
          "duration": 0.08307074166663142,
          "durationTicks": 116,
          "midi": 75,
          "name": "D#5",
          "ticks": 347760,
          "time": 257.576700625,
          "velocity": 0.3858267716535433
        },
        {
          "duration": 0.08307074166668826,
          "durationTicks": 116,
          "midi": 79,
          "name": "G5",
          "ticks": 347880,
          "time": 257.662635875,
          "velocity": 0.3937007874015748
        },
        {
          "duration": 0.08307074166663142,
          "durationTicks": 116,
          "midi": 74,
          "name": "D5",
          "ticks": 348000,
          "time": 257.748571125,
          "velocity": 0.4015748031496063
        },
        {
          "duration": 0.08307074166668826,
          "durationTicks": 116,
          "midi": 79,
          "name": "G5",
          "ticks": 348120,
          "time": 257.834506375,
          "velocity": 0.4094488188976378
        },
        {
          "duration": 0.08307074166668826,
          "durationTicks": 116,
          "midi": 72,
          "name": "C5",
          "ticks": 348240,
          "time": 257.92044162499997,
          "velocity": 0.41732283464566927
        },
        {
          "duration": 0.08307074166663142,
          "durationTicks": 116,
          "midi": 79,
          "name": "G5",
          "ticks": 348360,
          "time": 258.006376875,
          "velocity": 0.4251968503937008
        },
        {
          "duration": 0.3408764916666769,
          "durationTicks": 476,
          "midi": 71,
          "name": "B4",
          "ticks": 348480,
          "time": 258.092312125,
          "velocity": 0.4409448818897638
        },
        {
          "duration": 0.34087649166662004,
          "durationTicks": 476,
          "midi": 65,
          "name": "F4",
          "ticks": 349200,
          "time": 258.607923625,
          "velocity": 0.4330708661417323
        },
        {
          "duration": 0.08307074166668826,
          "durationTicks": 116,
          "midi": 68,
          "name": "G#4",
          "ticks": 349320,
          "time": 258.693858875,
          "velocity": 0.41732283464566927
        },
        {
          "duration": 0.08307074166668826,
          "durationTicks": 116,
          "midi": 71,
          "name": "B4",
          "ticks": 349440,
          "time": 258.77979412499997,
          "velocity": 0.4015748031496063
        },
        {
          "duration": 0.08307074166663142,
          "durationTicks": 116,
          "midi": 74,
          "name": "D5",
          "ticks": 349560,
          "time": 258.865729375,
          "velocity": 0.3858267716535433
        },
        {
          "duration": 0.08307074166668826,
          "durationTicks": 116,
          "midi": 77,
          "name": "F5",
          "ticks": 349680,
          "time": 258.951664625,
          "velocity": 0.3700787401574803
        },
        {
          "duration": 0.08307074166663142,
          "durationTicks": 116,
          "midi": 80,
          "name": "G#5",
          "ticks": 349800,
          "time": 259.037599875,
          "velocity": 0.3464566929133858
        },
        {
          "duration": 0.08307074166668826,
          "durationTicks": 116,
          "midi": 79,
          "name": "G5",
          "ticks": 350040,
          "time": 259.20947037499997,
          "velocity": 0.3464566929133858
        },
        {
          "duration": 0.08307074166663142,
          "durationTicks": 116,
          "midi": 78,
          "name": "F#5",
          "ticks": 350160,
          "time": 259.295405625,
          "velocity": 0.3543307086614173
        },
        {
          "duration": 0.08307074166668826,
          "durationTicks": 116,
          "midi": 79,
          "name": "G5",
          "ticks": 350280,
          "time": 259.381340875,
          "velocity": 0.36220472440944884
        },
        {
          "duration": 0.08307074166663142,
          "durationTicks": 116,
          "midi": 77,
          "name": "F5",
          "ticks": 350400,
          "time": 259.467276125,
          "velocity": 0.3700787401574803
        },
        {
          "duration": 0.08307074166668826,
          "durationTicks": 116,
          "midi": 79,
          "name": "G5",
          "ticks": 350520,
          "time": 259.553211375,
          "velocity": 0.3779527559055118
        },
        {
          "duration": 0.08307074166668826,
          "durationTicks": 116,
          "midi": 75,
          "name": "D#5",
          "ticks": 350640,
          "time": 259.63914662499997,
          "velocity": 0.3858267716535433
        },
        {
          "duration": 0.08307074166663142,
          "durationTicks": 116,
          "midi": 79,
          "name": "G5",
          "ticks": 350760,
          "time": 259.725081875,
          "velocity": 0.3937007874015748
        },
        {
          "duration": 0.08307074166668826,
          "durationTicks": 116,
          "midi": 74,
          "name": "D5",
          "ticks": 350880,
          "time": 259.811017125,
          "velocity": 0.4015748031496063
        },
        {
          "duration": 0.08307074166663142,
          "durationTicks": 116,
          "midi": 79,
          "name": "G5",
          "ticks": 351000,
          "time": 259.896952375,
          "velocity": 0.4094488188976378
        },
        {
          "duration": 0.08307074166668826,
          "durationTicks": 116,
          "midi": 72,
          "name": "C5",
          "ticks": 351120,
          "time": 259.982887625,
          "velocity": 0.41732283464566927
        },
        {
          "duration": 0.08307074166668826,
          "durationTicks": 116,
          "midi": 79,
          "name": "G5",
          "ticks": 351240,
          "time": 260.06882287499997,
          "velocity": 0.4251968503937008
        },
        {
          "duration": 0.3408764916666769,
          "durationTicks": 476,
          "midi": 71,
          "name": "B4",
          "ticks": 351360,
          "time": 260.154758125,
          "velocity": 0.4330708661417323
        },
        {
          "duration": 0.3408764916666769,
          "durationTicks": 476,
          "midi": 65,
          "name": "F4",
          "ticks": 352080,
          "time": 260.670369625,
          "velocity": 0.4330708661417323
        },
        {
          "duration": 0.08307074166663142,
          "durationTicks": 116,
          "midi": 68,
          "name": "G#4",
          "ticks": 352200,
          "time": 260.756304875,
          "velocity": 0.41732283464566927
        },
        {
          "duration": 0.08307074166668826,
          "durationTicks": 116,
          "midi": 71,
          "name": "B4",
          "ticks": 352320,
          "time": 260.842240125,
          "velocity": 0.4015748031496063
        },
        {
          "duration": 0.08307074166668826,
          "durationTicks": 116,
          "midi": 74,
          "name": "D5",
          "ticks": 352440,
          "time": 260.92817537499997,
          "velocity": 0.3858267716535433
        },
        {
          "duration": 0.08307074166663142,
          "durationTicks": 116,
          "midi": 77,
          "name": "F5",
          "ticks": 352560,
          "time": 261.014110625,
          "velocity": 0.3700787401574803
        },
        {
          "duration": 0.08307074166668826,
          "durationTicks": 116,
          "midi": 80,
          "name": "G#5",
          "ticks": 352680,
          "time": 261.100045875,
          "velocity": 0.3464566929133858
        },
        {
          "duration": 0.08307074166668826,
          "durationTicks": 116,
          "midi": 79,
          "name": "G5",
          "ticks": 352920,
          "time": 261.271916375,
          "velocity": 0.3464566929133858
        },
        {
          "duration": 0.08307074166668826,
          "durationTicks": 116,
          "midi": 77,
          "name": "F5",
          "ticks": 353040,
          "time": 261.35785162499997,
          "velocity": 0.3464566929133858
        },
        {
          "duration": 0.08307074166663142,
          "durationTicks": 116,
          "midi": 79,
          "name": "G5",
          "ticks": 353160,
          "time": 261.443786875,
          "velocity": 0.3543307086614173
        },
        {
          "duration": 0.08307074166668826,
          "durationTicks": 116,
          "midi": 75,
          "name": "D#5",
          "ticks": 353280,
          "time": 261.529722125,
          "velocity": 0.36220472440944884
        },
        {
          "duration": 0.08307074166663142,
          "durationTicks": 116,
          "midi": 79,
          "name": "G5",
          "ticks": 353400,
          "time": 261.615657375,
          "velocity": 0.3700787401574803
        },
        {
          "duration": 0.08307074166668826,
          "durationTicks": 116,
          "midi": 74,
          "name": "D5",
          "ticks": 353520,
          "time": 261.701592625,
          "velocity": 0.3700787401574803
        },
        {
          "duration": 0.08307074166668826,
          "durationTicks": 116,
          "midi": 79,
          "name": "G5",
          "ticks": 353640,
          "time": 261.78752787499997,
          "velocity": 0.3779527559055118
        },
        {
          "duration": 0.08307074166663142,
          "durationTicks": 116,
          "midi": 72,
          "name": "C5",
          "ticks": 353760,
          "time": 261.873463125,
          "velocity": 0.3858267716535433
        },
        {
          "duration": 0.08307074166668826,
          "durationTicks": 116,
          "midi": 79,
          "name": "G5",
          "ticks": 353880,
          "time": 261.959398375,
          "velocity": 0.3937007874015748
        },
        {
          "duration": 0.08307074166663142,
          "durationTicks": 116,
          "midi": 70,
          "name": "A#4",
          "ticks": 354000,
          "time": 262.045333625,
          "velocity": 0.4015748031496063
        },
        {
          "duration": 0.08307074166668826,
          "durationTicks": 116,
          "midi": 79,
          "name": "G5",
          "ticks": 354120,
          "time": 262.131268875,
          "velocity": 0.4094488188976378
        },
        {
          "duration": 0.3408764916666769,
          "durationTicks": 476,
          "midi": 69,
          "name": "A4",
          "ticks": 354240,
          "time": 262.21720412499997,
          "velocity": 0.41732283464566927
        },
        {
          "duration": 0.3408764916666769,
          "durationTicks": 476,
          "midi": 63,
          "name": "D#4",
          "ticks": 354960,
          "time": 262.732815625,
          "velocity": 0.4330708661417323
        },
        {
          "duration": 0.08307074166668826,
          "durationTicks": 116,
          "midi": 66,
          "name": "F#4",
          "ticks": 355080,
          "time": 262.818750875,
          "velocity": 0.4251968503937008
        },
        {
          "duration": 0.08307074166663142,
          "durationTicks": 116,
          "midi": 69,
          "name": "A4",
          "ticks": 355200,
          "time": 262.904686125,
          "velocity": 0.4094488188976378
        },
        {
          "duration": 0.08307074166668826,
          "durationTicks": 116,
          "midi": 72,
          "name": "C5",
          "ticks": 355320,
          "time": 262.990621375,
          "velocity": 0.4015748031496063
        },
        {
          "duration": 0.08307074166668826,
          "durationTicks": 116,
          "midi": 75,
          "name": "D#5",
          "ticks": 355440,
          "time": 263.07655662499997,
          "velocity": 0.3858267716535433
        },
        {
          "duration": 0.08307074166663142,
          "durationTicks": 116,
          "midi": 78,
          "name": "F#5",
          "ticks": 355560,
          "time": 263.162491875,
          "velocity": 0.3779527559055118
        },
        {
          "duration": 0.08307074166663142,
          "durationTicks": 116,
          "midi": 77,
          "name": "F5",
          "ticks": 355800,
          "time": 263.334362375,
          "velocity": 0.4330708661417323
        },
        {
          "duration": 0.08307074166668826,
          "durationTicks": 116,
          "midi": 76,
          "name": "E5",
          "ticks": 355920,
          "time": 263.420297625,
          "velocity": 0.4251968503937008
        },
        {
          "duration": 0.08307074166668826,
          "durationTicks": 116,
          "midi": 77,
          "name": "F5",
          "ticks": 356040,
          "time": 263.50623287499997,
          "velocity": 0.41732283464566927
        },
        {
          "duration": 0.08307074166663142,
          "durationTicks": 116,
          "midi": 75,
          "name": "D#5",
          "ticks": 356160,
          "time": 263.592168125,
          "velocity": 0.4094488188976378
        },
        {
          "duration": 0.08307074166668826,
          "durationTicks": 116,
          "midi": 77,
          "name": "F5",
          "ticks": 356280,
          "time": 263.678103375,
          "velocity": 0.4094488188976378
        },
        {
          "duration": 0.08307074166663142,
          "durationTicks": 116,
          "midi": 73,
          "name": "C#5",
          "ticks": 356400,
          "time": 263.764038625,
          "velocity": 0.4015748031496063
        },
        {
          "duration": 0.08307074166668826,
          "durationTicks": 116,
          "midi": 77,
          "name": "F5",
          "ticks": 356520,
          "time": 263.849973875,
          "velocity": 0.3937007874015748
        },
        {
          "duration": 0.08307074166668826,
          "durationTicks": 116,
          "midi": 72,
          "name": "C5",
          "ticks": 356640,
          "time": 263.93590912499997,
          "velocity": 0.3858267716535433
        },
        {
          "duration": 0.08307074166663142,
          "durationTicks": 116,
          "midi": 77,
          "name": "F5",
          "ticks": 356760,
          "time": 264.021844375,
          "velocity": 0.3779527559055118
        },
        {
          "duration": 0.08307074166668826,
          "durationTicks": 116,
          "midi": 70,
          "name": "A#4",
          "ticks": 356880,
          "time": 264.107779625,
          "velocity": 0.3700787401574803
        },
        {
          "duration": 0.08307074166663142,
          "durationTicks": 116,
          "midi": 77,
          "name": "F5",
          "ticks": 357000,
          "time": 264.193714875,
          "velocity": 0.3543307086614173
        },
        {
          "duration": 0.08307074166668826,
          "durationTicks": 116,
          "midi": 85,
          "name": "C#6",
          "ticks": 357240,
          "time": 264.36558537499997,
          "velocity": 0.44881889763779526
        },
        {
          "duration": 0.08307074166663142,
          "durationTicks": 116,
          "midi": 84,
          "name": "C6",
          "ticks": 357360,
          "time": 264.451520625,
          "velocity": 0.44881889763779526
        },
        {
          "duration": 0.08307074166668826,
          "durationTicks": 116,
          "midi": 85,
          "name": "C#6",
          "ticks": 357480,
          "time": 264.537455875,
          "velocity": 0.4409448818897638
        },
        {
          "duration": 0.08307074166663142,
          "durationTicks": 116,
          "midi": 83,
          "name": "B5",
          "ticks": 357600,
          "time": 264.623391125,
          "velocity": 0.4330708661417323
        },
        {
          "duration": 0.08307074166668826,
          "durationTicks": 116,
          "midi": 85,
          "name": "C#6",
          "ticks": 357720,
          "time": 264.709326375,
          "velocity": 0.4251968503937008
        },
        {
          "duration": 0.08307074166668826,
          "durationTicks": 116,
          "midi": 82,
          "name": "A#5",
          "ticks": 357840,
          "time": 264.79526162499997,
          "velocity": 0.41732283464566927
        },
        {
          "duration": 0.08307074166663142,
          "durationTicks": 116,
          "midi": 85,
          "name": "C#6",
          "ticks": 357960,
          "time": 264.881196875,
          "velocity": 0.4094488188976378
        },
        {
          "duration": 0.08307074166668826,
          "durationTicks": 116,
          "midi": 80,
          "name": "G#5",
          "ticks": 358080,
          "time": 264.967132125,
          "velocity": 0.4015748031496063
        },
        {
          "duration": 0.08307074166663142,
          "durationTicks": 116,
          "midi": 85,
          "name": "C#6",
          "ticks": 358200,
          "time": 265.053067375,
          "velocity": 0.4015748031496063
        },
        {
          "duration": 0.08307074166668826,
          "durationTicks": 116,
          "midi": 78,
          "name": "F#5",
          "ticks": 358320,
          "time": 265.139002625,
          "velocity": 0.3937007874015748
        },
        {
          "duration": 0.08307074166668826,
          "durationTicks": 116,
          "midi": 85,
          "name": "C#6",
          "ticks": 358440,
          "time": 265.22493787499997,
          "velocity": 0.3700787401574803
        },
        {
          "duration": 0.08307074166668826,
          "durationTicks": 116,
          "midi": 82,
          "name": "A#5",
          "ticks": 358680,
          "time": 265.396808375,
          "velocity": 0.47244094488188976
        },
        {
          "duration": 0.08307074166663142,
          "durationTicks": 116,
          "midi": 81,
          "name": "A5",
          "ticks": 358800,
          "time": 265.482743625,
          "velocity": 0.4645669291338583
        },
        {
          "duration": 0.08307074166668826,
          "durationTicks": 116,
          "midi": 82,
          "name": "A#5",
          "ticks": 358920,
          "time": 265.568678875,
          "velocity": 0.4566929133858268
        },
        {
          "duration": 0.08307074166668826,
          "durationTicks": 116,
          "midi": 80,
          "name": "G#5",
          "ticks": 359040,
          "time": 265.65461412499997,
          "velocity": 0.4566929133858268
        },
        {
          "duration": 0.08307074166663142,
          "durationTicks": 116,
          "midi": 82,
          "name": "A#5",
          "ticks": 359160,
          "time": 265.740549375,
          "velocity": 0.44881889763779526
        },
        {
          "duration": 0.08307074166668826,
          "durationTicks": 116,
          "midi": 78,
          "name": "F#5",
          "ticks": 359280,
          "time": 265.826484625,
          "velocity": 0.4409448818897638
        },
        {
          "duration": 0.08307074166663142,
          "durationTicks": 116,
          "midi": 82,
          "name": "A#5",
          "ticks": 359400,
          "time": 265.912419875,
          "velocity": 0.4330708661417323
        },
        {
          "duration": 0.08307074166668826,
          "durationTicks": 116,
          "midi": 77,
          "name": "F5",
          "ticks": 359520,
          "time": 265.998355125,
          "velocity": 0.4251968503937008
        },
        {
          "duration": 0.08307074166668826,
          "durationTicks": 116,
          "midi": 82,
          "name": "A#5",
          "ticks": 359640,
          "time": 266.08429037499997,
          "velocity": 0.41732283464566927
        },
        {
          "duration": 0.08307074166663142,
          "durationTicks": 116,
          "midi": 76,
          "name": "E5",
          "ticks": 359760,
          "time": 266.170225625,
          "velocity": 0.4094488188976378
        },
        {
          "duration": 0.08307074166668826,
          "durationTicks": 116,
          "midi": 82,
          "name": "A#5",
          "ticks": 359880,
          "time": 266.256160875,
          "velocity": 0.3937007874015748
        },
        {
          "duration": 0.5127469916666314,
          "durationTicks": 716,
          "midi": 88,
          "name": "E6",
          "ticks": 360000,
          "time": 266.342096125,
          "velocity": 0.5039370078740157
        },
        {
          "duration": 0.5127469916666882,
          "durationTicks": 716,
          "midi": 76,
          "name": "E5",
          "ticks": 360720,
          "time": 266.857707625,
          "velocity": 0.5039370078740157
        },
        {
          "duration": 0.11171582500003296,
          "durationTicks": 156,
          "midi": 77,
          "name": "F5",
          "ticks": 361440,
          "time": 267.37331912499997,
          "velocity": 0.4094488188976378
        },
        {
          "duration": 0.16900599166666552,
          "durationTicks": 236,
          "midi": 81,
          "name": "A5",
          "ticks": 361920,
          "time": 267.717060125,
          "velocity": 0.4881889763779528
        },
        {
          "duration": 0.11171582499997612,
          "durationTicks": 156,
          "midi": 84,
          "name": "C6",
          "ticks": 362160,
          "time": 267.888930625,
          "velocity": 0.5354330708661418
        },
        {
          "duration": 0.16900599166666552,
          "durationTicks": 236,
          "midi": 89,
          "name": "F6",
          "ticks": 362640,
          "time": 268.23267162499997,
          "velocity": 0.6220472440944882
        },
        {
          "duration": 0.6846174916666996,
          "durationTicks": 956,
          "midi": 85,
          "name": "C#6",
          "ticks": 362880,
          "time": 268.404542125,
          "velocity": 0.5669291338582677
        },
        {
          "duration": 0.16900599166666552,
          "durationTicks": 236,
          "midi": 82,
          "name": "A#5",
          "ticks": 363840,
          "time": 269.09202412499997,
          "velocity": 0.5039370078740157
        },
        {
          "duration": 0.16900599166666552,
          "durationTicks": 236,
          "midi": 76,
          "name": "E5",
          "ticks": 364080,
          "time": 269.263894625,
          "velocity": 0.4094488188976378
        },
        {
          "duration": 0.11171582500003296,
          "durationTicks": 156,
          "midi": 77,
          "name": "F5",
          "ticks": 364320,
          "time": 269.435765125,
          "velocity": 0.33070866141732286
        },
        {
          "duration": 0.16900599166666552,
          "durationTicks": 236,
          "midi": 81,
          "name": "A5",
          "ticks": 364800,
          "time": 269.779506125,
          "velocity": 0.3858267716535433
        },
        {
          "duration": 0.11171582500003296,
          "durationTicks": 156,
          "midi": 84,
          "name": "C6",
          "ticks": 365040,
          "time": 269.95137662499997,
          "velocity": 0.4251968503937008
        },
        {
          "duration": 0.16900599166666552,
          "durationTicks": 236,
          "midi": 89,
          "name": "F6",
          "ticks": 365520,
          "time": 270.295117625,
          "velocity": 0.4881889763779528
        },
        {
          "duration": 0.6846174916666428,
          "durationTicks": 956,
          "midi": 85,
          "name": "C#6",
          "ticks": 365760,
          "time": 270.466988125,
          "velocity": 0.48031496062992124
        },
        {
          "duration": 0.16900599166666552,
          "durationTicks": 236,
          "midi": 82,
          "name": "A#5",
          "ticks": 366720,
          "time": 271.154470125,
          "velocity": 0.4330708661417323
        },
        {
          "duration": 0.16900599166666552,
          "durationTicks": 236,
          "midi": 76,
          "name": "E5",
          "ticks": 366960,
          "time": 271.326340625,
          "velocity": 0.3937007874015748
        },
        {
          "duration": 0.34087649166662004,
          "durationTicks": 476,
          "midi": 77,
          "name": "F5",
          "ticks": 367200,
          "time": 271.498211125,
          "velocity": 0.36220472440944884
        },
        {
          "duration": 0.08307074166663142,
          "durationTicks": 116,
          "midi": 65,
          "name": "F4",
          "ticks": 372960,
          "time": 275.623103125,
          "velocity": 0.3464566929133858
        },
        {
          "duration": 0.08307074166668826,
          "durationTicks": 116,
          "midi": 67,
          "name": "G4",
          "ticks": 373080,
          "time": 275.709038375,
          "velocity": 0.3543307086614173
        },
        {
          "duration": 0.08307074166663142,
          "durationTicks": 116,
          "midi": 69,
          "name": "A4",
          "ticks": 373200,
          "time": 275.794973625,
          "velocity": 0.3700787401574803
        },
        {
          "duration": 0.08307074166668826,
          "durationTicks": 116,
          "midi": 70,
          "name": "A#4",
          "ticks": 373320,
          "time": 275.880908875,
          "velocity": 0.3858267716535433
        },
        {
          "duration": 0.08307074166668826,
          "durationTicks": 116,
          "midi": 72,
          "name": "C5",
          "ticks": 373440,
          "time": 275.96684412499997,
          "velocity": 0.4015748031496063
        },
        {
          "duration": 0.08307074166668826,
          "durationTicks": 116,
          "midi": 74,
          "name": "D5",
          "ticks": 373560,
          "time": 276.052779375,
          "velocity": 0.41732283464566927
        },
        {
          "duration": 0.08307074166668826,
          "durationTicks": 116,
          "midi": 75,
          "name": "D#5",
          "ticks": 373680,
          "time": 276.138714625,
          "velocity": 0.4330708661417323
        },
        {
          "duration": 0.08307074166663142,
          "durationTicks": 116,
          "midi": 74,
          "name": "D5",
          "ticks": 373800,
          "time": 276.224649875,
          "velocity": 0.4566929133858268
        },
        {
          "duration": 0.08307074166668826,
          "durationTicks": 116,
          "midi": 75,
          "name": "D#5",
          "ticks": 373920,
          "time": 276.310585125,
          "velocity": 0.48031496062992124
        },
        {
          "duration": 0.08307074166663142,
          "durationTicks": 116,
          "midi": 74,
          "name": "D5",
          "ticks": 374040,
          "time": 276.396520375,
          "velocity": 0.5039370078740157
        },
        {
          "duration": 0.08307074166663142,
          "durationTicks": 116,
          "midi": 75,
          "name": "D#5",
          "ticks": 374160,
          "time": 276.482455625,
          "velocity": 0.5354330708661418
        },
        {
          "duration": 0.08307074166668826,
          "durationTicks": 116,
          "midi": 74,
          "name": "D5",
          "ticks": 374280,
          "time": 276.568390875,
          "velocity": 0.48031496062992124
        },
        {
          "duration": 0.3408764916666769,
          "durationTicks": 476,
          "midi": 75,
          "name": "D#5",
          "ticks": 374400,
          "time": 276.654326125,
          "velocity": 0.4251968503937008
        },
        {
          "duration": 0.08307074166668826,
          "durationTicks": 116,
          "midi": 77,
          "name": "F5",
          "ticks": 375840,
          "time": 277.68554912499997,
          "velocity": 0.30708661417322836
        },
        {
          "duration": 0.08307074166668826,
          "durationTicks": 116,
          "midi": 79,
          "name": "G5",
          "ticks": 375960,
          "time": 277.771484375,
          "velocity": 0.31496062992125984
        },
        {
          "duration": 0.08307074166668826,
          "durationTicks": 116,
          "midi": 81,
          "name": "A5",
          "ticks": 376080,
          "time": 277.857419625,
          "velocity": 0.33070866141732286
        },
        {
          "duration": 0.08307074166663142,
          "durationTicks": 116,
          "midi": 82,
          "name": "A#5",
          "ticks": 376200,
          "time": 277.943354875,
          "velocity": 0.3464566929133858
        },
        {
          "duration": 0.08307074166668826,
          "durationTicks": 116,
          "midi": 84,
          "name": "C6",
          "ticks": 376320,
          "time": 278.029290125,
          "velocity": 0.3543307086614173
        },
        {
          "duration": 0.08307074166663142,
          "durationTicks": 116,
          "midi": 86,
          "name": "D6",
          "ticks": 376440,
          "time": 278.115225375,
          "velocity": 0.3700787401574803
        },
        {
          "duration": 0.08307074166663142,
          "durationTicks": 116,
          "midi": 87,
          "name": "D#6",
          "ticks": 376560,
          "time": 278.201160625,
          "velocity": 0.3858267716535433
        },
        {
          "duration": 0.08307074166668826,
          "durationTicks": 116,
          "midi": 86,
          "name": "D6",
          "ticks": 376680,
          "time": 278.287095875,
          "velocity": 0.41732283464566927
        },
        {
          "duration": 0.08307074166663142,
          "durationTicks": 116,
          "midi": 87,
          "name": "D#6",
          "ticks": 376800,
          "time": 278.373031125,
          "velocity": 0.4566929133858268
        },
        {
          "duration": 0.08307074166668826,
          "durationTicks": 116,
          "midi": 86,
          "name": "D6",
          "ticks": 376920,
          "time": 278.458966375,
          "velocity": 0.5118110236220472
        },
        {
          "duration": 0.08307074166668826,
          "durationTicks": 116,
          "midi": 87,
          "name": "D#6",
          "ticks": 377040,
          "time": 278.54490162499997,
          "velocity": 0.49606299212598426
        },
        {
          "duration": 0.08307074166668826,
          "durationTicks": 116,
          "midi": 86,
          "name": "D6",
          "ticks": 377160,
          "time": 278.630836875,
          "velocity": 0.4566929133858268
        },
        {
          "duration": 0.3408764916666769,
          "durationTicks": 476,
          "midi": 87,
          "name": "D#6",
          "ticks": 377280,
          "time": 278.716772125,
          "velocity": 0.4251968503937008
        },
        {
          "duration": 0.16900599166666552,
          "durationTicks": 236,
          "midi": 70,
          "name": "A#4",
          "ticks": 381360,
          "time": 281.638570625,
          "velocity": 0.4881889763779528
        },
        {
          "duration": 0.11171582499997612,
          "durationTicks": 156,
          "midi": 69,
          "name": "A4",
          "ticks": 381600,
          "time": 281.810441125,
          "velocity": 0.4881889763779528
        },
        {
          "duration": 0.16900599166666552,
          "durationTicks": 236,
          "midi": 70,
          "name": "A#4",
          "ticks": 382080,
          "time": 282.154182125,
          "velocity": 0.4881889763779528
        },
        {
          "duration": 0.05442565833334356,
          "durationTicks": 76,
          "midi": 69,
          "name": "A4",
          "ticks": 382320,
          "time": 282.326052625,
          "velocity": 0.4094488188976378
        },
        {
          "duration": 0.05442565833334356,
          "durationTicks": 76,
          "midi": 70,
          "name": "A#4",
          "ticks": 382800,
          "time": 282.669793625,
          "velocity": 0.4881889763779528
        },
        {
          "duration": 0.08307074166668826,
          "durationTicks": 116,
          "midi": 79,
          "name": "G5",
          "ticks": 383040,
          "time": 282.84166412499997,
          "velocity": 0.5196850393700787
        },
        {
          "duration": 0.08307074166668826,
          "durationTicks": 116,
          "midi": 77,
          "name": "F5",
          "ticks": 383160,
          "time": 282.927599375,
          "velocity": 0.4645669291338583
        },
        {
          "duration": 0.08307074166668826,
          "durationTicks": 116,
          "midi": 79,
          "name": "G5",
          "ticks": 383280,
          "time": 283.013534625,
          "velocity": 0.44881889763779526
        },
        {
          "duration": 0.08307074166663142,
          "durationTicks": 116,
          "midi": 77,
          "name": "F5",
          "ticks": 383400,
          "time": 283.099469875,
          "velocity": 0.4251968503937008
        },
        {
          "duration": 0.08307074166668826,
          "durationTicks": 116,
          "midi": 79,
          "name": "G5",
          "ticks": 383520,
          "time": 283.185405125,
          "velocity": 0.4094488188976378
        },
        {
          "duration": 0.08307074166663142,
          "durationTicks": 116,
          "midi": 77,
          "name": "F5",
          "ticks": 383640,
          "time": 283.271340375,
          "velocity": 0.3937007874015748
        },
        {
          "duration": 0.3408764916666769,
          "durationTicks": 476,
          "midi": 75,
          "name": "D#5",
          "ticks": 383760,
          "time": 283.357275625,
          "velocity": 0.3779527559055118
        },
        {
          "duration": 0.16900599166672237,
          "durationTicks": 236,
          "midi": 74,
          "name": "D5",
          "ticks": 384240,
          "time": 283.70101662499997,
          "velocity": 0.4094488188976378
        },
        {
          "duration": 0.08307074166668826,
          "durationTicks": 116,
          "midi": 72,
          "name": "C5",
          "ticks": 384480,
          "time": 283.872887125,
          "velocity": 0.4094488188976378
        },
        {
          "duration": 0.11171582499997612,
          "durationTicks": 156,
          "midi": 72,
          "name": "C5",
          "ticks": 384960,
          "time": 284.216628125,
          "velocity": 0.4094488188976378
        },
        {
          "duration": 0.39816665833330944,
          "durationTicks": 556,
          "midi": 72,
          "name": "C5",
          "ticks": 385200,
          "time": 284.388498625,
          "velocity": 0.44881889763779526
        },
        {
          "duration": 0.14036090833332082,
          "durationTicks": 196,
          "midi": 74,
          "name": "D5",
          "ticks": 385680,
          "time": 284.732239625,
          "velocity": 0.4094488188976378
        },
        {
          "duration": 0.5127469916666882,
          "durationTicks": 716,
          "midi": 70,
          "name": "A#4",
          "ticks": 385920,
          "time": 284.904110125,
          "velocity": 0.3700787401574803
        },
        {
          "duration": 0.16900599166672237,
          "durationTicks": 236,
          "midi": 69,
          "name": "A4",
          "ticks": 386640,
          "time": 285.41972162499997,
          "velocity": 0.30708661417322836
        },
        {
          "duration": 0.11171582499997612,
          "durationTicks": 156,
          "midi": 84,
          "name": "C6",
          "ticks": 387120,
          "time": 285.763462625,
          "velocity": 0.4881889763779528
        },
        {
          "duration": 0.08307074166663142,
          "durationTicks": 116,
          "midi": 82,
          "name": "A#5",
          "ticks": 387240,
          "time": 285.849397875,
          "velocity": 0.4094488188976378
        },
        {
          "duration": 0.05442565833334356,
          "durationTicks": 76,
          "midi": 81,
          "name": "A5",
          "ticks": 387360,
          "time": 285.935333125,
          "velocity": 0.33070866141732286
        },
        {
          "duration": 0.11171582500003296,
          "durationTicks": 156,
          "midi": 84,
          "name": "C6",
          "ticks": 387840,
          "time": 286.27907412499997,
          "velocity": 0.4881889763779528
        },
        {
          "duration": 0.08307074166668826,
          "durationTicks": 116,
          "midi": 82,
          "name": "A#5",
          "ticks": 387960,
          "time": 286.365009375,
          "velocity": 0.4094488188976378
        },
        {
          "duration": 0.05442565833334356,
          "durationTicks": 76,
          "midi": 81,
          "name": "A5",
          "ticks": 388080,
          "time": 286.450944625,
          "velocity": 0.33070866141732286
        },
        {
          "duration": 0.08307074166663142,
          "durationTicks": 116,
          "midi": 84,
          "name": "C6",
          "ticks": 388560,
          "time": 286.794685625,
          "velocity": 0.4094488188976378
        },
        {
          "duration": 0.08307074166668826,
          "durationTicks": 116,
          "midi": 82,
          "name": "A#5",
          "ticks": 388680,
          "time": 286.880620875,
          "velocity": 0.4566929133858268
        },
        {
          "duration": 0.08307074166663142,
          "durationTicks": 116,
          "midi": 89,
          "name": "F6",
          "ticks": 388800,
          "time": 286.966556125,
          "velocity": 0.5196850393700787
        },
        {
          "duration": 0.08307074166668826,
          "durationTicks": 116,
          "midi": 88,
          "name": "E6",
          "ticks": 388920,
          "time": 287.052491375,
          "velocity": 0.5039370078740157
        },
        {
          "duration": 0.08307074166668826,
          "durationTicks": 116,
          "midi": 89,
          "name": "F6",
          "ticks": 389040,
          "time": 287.13842662499997,
          "velocity": 0.4881889763779528
        },
        {
          "duration": 0.08307074166668826,
          "durationTicks": 116,
          "midi": 88,
          "name": "E6",
          "ticks": 389160,
          "time": 287.224361875,
          "velocity": 0.4645669291338583
        },
        {
          "duration": 0.08307074166668826,
          "durationTicks": 116,
          "midi": 89,
          "name": "F6",
          "ticks": 389280,
          "time": 287.310297125,
          "velocity": 0.44881889763779526
        },
        {
          "duration": 0.08307074166663142,
          "durationTicks": 116,
          "midi": 88,
          "name": "E6",
          "ticks": 389400,
          "time": 287.396232375,
          "velocity": 0.4330708661417323
        },
        {
          "duration": 0.3981666583333663,
          "durationTicks": 556,
          "midi": 87,
          "name": "D#6",
          "ticks": 389520,
          "time": 287.482167625,
          "velocity": 0.4094488188976378
        },
        {
          "duration": 0.05442565833334356,
          "durationTicks": 76,
          "midi": 86,
          "name": "D6",
          "ticks": 390000,
          "time": 287.825908625,
          "velocity": 0.4094488188976378
        },
        {
          "duration": 0.22629615833335492,
          "durationTicks": 316,
          "midi": 84,
          "name": "C6",
          "ticks": 390240,
          "time": 287.99777912499997,
          "velocity": 0.4094488188976378
        },
        {
          "duration": 0.05442565833328672,
          "durationTicks": 76,
          "midi": 86,
          "name": "D6",
          "ticks": 390600,
          "time": 288.255584875,
          "velocity": 0.4094488188976378
        },
        {
          "duration": 0.08307074166668826,
          "durationTicks": 116,
          "midi": 87,
          "name": "D#6",
          "ticks": 390720,
          "time": 288.341520125,
          "velocity": 0.4094488188976378
        },
        {
          "duration": 0.05442565833334356,
          "durationTicks": 76,
          "midi": 79,
          "name": "G5",
          "ticks": 390960,
          "time": 288.513390625,
          "velocity": 0.33070866141732286
        },
        {
          "duration": 0.05442565833334356,
          "durationTicks": 76,
          "midi": 81,
          "name": "A5",
          "ticks": 391440,
          "time": 288.85713162499997,
          "velocity": 0.36220472440944884
        },
        {
          "duration": 0.5127469916666882,
          "durationTicks": 716,
          "midi": 84,
          "name": "C6",
          "ticks": 391680,
          "time": 289.029002125,
          "velocity": 0.3779527559055118
        },
        {
          "duration": 0.2549412416666428,
          "durationTicks": 356,
          "midi": 82,
          "name": "A#5",
          "ticks": 392400,
          "time": 289.544613625,
          "velocity": 0.30708661417322836
        },
        {
          "duration": 0.05442565833334356,
          "durationTicks": 76,
          "midi": 74,
          "name": "D5",
          "ticks": 392880,
          "time": 289.888354625,
          "velocity": 0.3464566929133858
        },
        {
          "duration": 0.05442565833328672,
          "durationTicks": 76,
          "midi": 70,
          "name": "A#4",
          "ticks": 393000,
          "time": 289.974289875,
          "velocity": 0.3464566929133858
        },
        {
          "duration": 0.05442565833334356,
          "durationTicks": 76,
          "midi": 77,
          "name": "F5",
          "ticks": 393120,
          "time": 290.060225125,
          "velocity": 0.2755905511811024
        },
        {
          "duration": 0.05442565833328672,
          "durationTicks": 76,
          "midi": 72,
          "name": "C5",
          "ticks": 393240,
          "time": 290.146160375,
          "velocity": 0.2755905511811024
        },
        {
          "duration": 0.05442565833334356,
          "durationTicks": 76,
          "midi": 69,
          "name": "A4",
          "ticks": 393360,
          "time": 290.232095625,
          "velocity": 0.2755905511811024
        },
        {
          "duration": 0.05442565833334356,
          "durationTicks": 76,
          "midi": 65,
          "name": "F4",
          "ticks": 393480,
          "time": 290.318030875,
          "velocity": 0.2755905511811024
        },
        {
          "duration": 0.05442565833334356,
          "durationTicks": 76,
          "midi": 77,
          "name": "F5",
          "ticks": 393600,
          "time": 290.403966125,
          "velocity": 0.2755905511811024
        },
        {
          "duration": 0.05442565833334356,
          "durationTicks": 76,
          "midi": 65,
          "name": "F4",
          "ticks": 393720,
          "time": 290.489901375,
          "velocity": 0.2755905511811024
        },
        {
          "duration": 0.05442565833334356,
          "durationTicks": 76,
          "midi": 77,
          "name": "F5",
          "ticks": 393840,
          "time": 290.57583662499997,
          "velocity": 0.2755905511811024
        },
        {
          "duration": 0.05442565833334356,
          "durationTicks": 76,
          "midi": 72,
          "name": "C5",
          "ticks": 393960,
          "time": 290.661771875,
          "velocity": 0.2755905511811024
        },
        {
          "duration": 0.05442565833334356,
          "durationTicks": 76,
          "midi": 69,
          "name": "A4",
          "ticks": 394080,
          "time": 290.747707125,
          "velocity": 0.2755905511811024
        },
        {
          "duration": 0.05442565833328672,
          "durationTicks": 76,
          "midi": 65,
          "name": "F4",
          "ticks": 394200,
          "time": 290.833642375,
          "velocity": 0.2755905511811024
        },
        {
          "duration": 0.05442565833334356,
          "durationTicks": 76,
          "midi": 77,
          "name": "F5",
          "ticks": 394320,
          "time": 290.919577625,
          "velocity": 0.2755905511811024
        },
        {
          "duration": 0.05442565833328672,
          "durationTicks": 76,
          "midi": 65,
          "name": "F4",
          "ticks": 394440,
          "time": 291.005512875,
          "velocity": 0.2755905511811024
        },
        {
          "duration": 0.05442565833334356,
          "durationTicks": 76,
          "midi": 69,
          "name": "A4",
          "ticks": 395040,
          "time": 291.43518912499997,
          "velocity": 0.2755905511811024
        },
        {
          "duration": 0.05442565833334356,
          "durationTicks": 76,
          "midi": 72,
          "name": "C5",
          "ticks": 395160,
          "time": 291.521124375,
          "velocity": 0.2755905511811024
        },
        {
          "duration": 0.05442565833334356,
          "durationTicks": 76,
          "midi": 75,
          "name": "D#5",
          "ticks": 395280,
          "time": 291.607059625,
          "velocity": 0.2755905511811024
        },
        {
          "duration": 0.05442565833328672,
          "durationTicks": 76,
          "midi": 72,
          "name": "C5",
          "ticks": 395400,
          "time": 291.692994875,
          "velocity": 0.2755905511811024
        },
        {
          "duration": 0.05442565833334356,
          "durationTicks": 76,
          "midi": 69,
          "name": "A4",
          "ticks": 395520,
          "time": 291.778930125,
          "velocity": 0.2755905511811024
        },
        {
          "duration": 0.05442565833328672,
          "durationTicks": 76,
          "midi": 65,
          "name": "F4",
          "ticks": 395640,
          "time": 291.864865375,
          "velocity": 0.2755905511811024
        },
        {
          "duration": 0.05442565833334356,
          "durationTicks": 76,
          "midi": 74,
          "name": "D5",
          "ticks": 395760,
          "time": 291.950800625,
          "velocity": 0.2755905511811024
        },
        {
          "duration": 0.05442565833334356,
          "durationTicks": 76,
          "midi": 70,
          "name": "A#4",
          "ticks": 395880,
          "time": 292.036735875,
          "velocity": 0.2755905511811024
        },
        {
          "duration": 0.05442565833334356,
          "durationTicks": 76,
          "midi": 67,
          "name": "G4",
          "ticks": 396240,
          "time": 292.29454162499997,
          "velocity": 0.2755905511811024
        },
        {
          "duration": 0.05442565833334356,
          "durationTicks": 76,
          "midi": 72,
          "name": "C5",
          "ticks": 396360,
          "time": 292.380476875,
          "velocity": 0.2755905511811024
        },
        {
          "duration": 0.05442565833334356,
          "durationTicks": 76,
          "midi": 75,
          "name": "D#5",
          "ticks": 396480,
          "time": 292.466412125,
          "velocity": 0.2755905511811024
        },
        {
          "duration": 0.05442565833328672,
          "durationTicks": 76,
          "midi": 79,
          "name": "G5",
          "ticks": 396600,
          "time": 292.552347375,
          "velocity": 0.2755905511811024
        },
        {
          "duration": 0.05442565833334356,
          "durationTicks": 76,
          "midi": 67,
          "name": "G4",
          "ticks": 396960,
          "time": 292.810153125,
          "velocity": 0.2755905511811024
        },
        {
          "duration": 0.05442565833334356,
          "durationTicks": 76,
          "midi": 70,
          "name": "A#4",
          "ticks": 397080,
          "time": 292.896088375,
          "velocity": 0.2755905511811024
        },
        {
          "duration": 0.05442565833334356,
          "durationTicks": 76,
          "midi": 76,
          "name": "E5",
          "ticks": 397200,
          "time": 292.982023625,
          "velocity": 0.2755905511811024
        },
        {
          "duration": 0.05442565833334356,
          "durationTicks": 76,
          "midi": 79,
          "name": "G5",
          "ticks": 397320,
          "time": 293.067958875,
          "velocity": 0.2755905511811024
        },
        {
          "duration": 0.05442565833334356,
          "durationTicks": 76,
          "midi": 70,
          "name": "A#4",
          "ticks": 397920,
          "time": 293.497635125,
          "velocity": 0.2755905511811024
        },
        {
          "duration": 0.05442565833328672,
          "durationTicks": 76,
          "midi": 74,
          "name": "D5",
          "ticks": 398040,
          "time": 293.583570375,
          "velocity": 0.2755905511811024
        },
        {
          "duration": 0.05442565833334356,
          "durationTicks": 76,
          "midi": 75,
          "name": "D#5",
          "ticks": 398160,
          "time": 293.669505625,
          "velocity": 0.2755905511811024
        },
        {
          "duration": 0.05442565833334356,
          "durationTicks": 76,
          "midi": 72,
          "name": "C5",
          "ticks": 398280,
          "time": 293.755440875,
          "velocity": 0.2755905511811024
        },
        {
          "duration": 0.05442565833334356,
          "durationTicks": 76,
          "midi": 69,
          "name": "A4",
          "ticks": 398400,
          "time": 293.841376125,
          "velocity": 0.2755905511811024
        },
        {
          "duration": 0.05442565833334356,
          "durationTicks": 76,
          "midi": 65,
          "name": "F4",
          "ticks": 398520,
          "time": 293.927311375,
          "velocity": 0.2755905511811024
        },
        {
          "duration": 0.05442565833334356,
          "durationTicks": 76,
          "midi": 74,
          "name": "D5",
          "ticks": 398640,
          "time": 294.01324662499997,
          "velocity": 0.2755905511811024
        },
        {
          "duration": 0.05442565833334356,
          "durationTicks": 76,
          "midi": 70,
          "name": "A#4",
          "ticks": 398760,
          "time": 294.099181875,
          "velocity": 0.2755905511811024
        },
        {
          "duration": 0.05442565833334356,
          "durationTicks": 76,
          "midi": 77,
          "name": "F5",
          "ticks": 398880,
          "time": 294.185117125,
          "velocity": 0.2755905511811024
        },
        {
          "duration": 0.05442565833328672,
          "durationTicks": 76,
          "midi": 72,
          "name": "C5",
          "ticks": 399000,
          "time": 294.271052375,
          "velocity": 0.2755905511811024
        },
        {
          "duration": 0.05442565833334356,
          "durationTicks": 76,
          "midi": 69,
          "name": "A4",
          "ticks": 399120,
          "time": 294.356987625,
          "velocity": 0.2755905511811024
        },
        {
          "duration": 0.05442565833328672,
          "durationTicks": 76,
          "midi": 65,
          "name": "F4",
          "ticks": 399240,
          "time": 294.442922875,
          "velocity": 0.2755905511811024
        },
        {
          "duration": 0.05442565833334356,
          "durationTicks": 76,
          "midi": 77,
          "name": "F5",
          "ticks": 399360,
          "time": 294.528858125,
          "velocity": 0.2755905511811024
        },
        {
          "duration": 0.05442565833334356,
          "durationTicks": 76,
          "midi": 65,
          "name": "F4",
          "ticks": 399480,
          "time": 294.614793375,
          "velocity": 0.2755905511811024
        },
        {
          "duration": 0.05442565833334356,
          "durationTicks": 76,
          "midi": 77,
          "name": "F5",
          "ticks": 399600,
          "time": 294.700728625,
          "velocity": 0.2755905511811024
        },
        {
          "duration": 0.05442565833334356,
          "durationTicks": 76,
          "midi": 72,
          "name": "C5",
          "ticks": 399720,
          "time": 294.786663875,
          "velocity": 0.2755905511811024
        },
        {
          "duration": 0.05442565833334356,
          "durationTicks": 76,
          "midi": 69,
          "name": "A4",
          "ticks": 399840,
          "time": 294.87259912499997,
          "velocity": 0.2755905511811024
        },
        {
          "duration": 0.05442565833334356,
          "durationTicks": 76,
          "midi": 65,
          "name": "F4",
          "ticks": 399960,
          "time": 294.958534375,
          "velocity": 0.2755905511811024
        },
        {
          "duration": 0.05442565833334356,
          "durationTicks": 76,
          "midi": 77,
          "name": "F5",
          "ticks": 400080,
          "time": 295.044469625,
          "velocity": 0.2755905511811024
        },
        {
          "duration": 0.05442565833328672,
          "durationTicks": 76,
          "midi": 65,
          "name": "F4",
          "ticks": 400200,
          "time": 295.130404875,
          "velocity": 0.2755905511811024
        },
        {
          "duration": 0.05442565833334356,
          "durationTicks": 76,
          "midi": 69,
          "name": "A4",
          "ticks": 400800,
          "time": 295.560081125,
          "velocity": 0.2755905511811024
        },
        {
          "duration": 0.05442565833334356,
          "durationTicks": 76,
          "midi": 72,
          "name": "C5",
          "ticks": 400920,
          "time": 295.646016375,
          "velocity": 0.2755905511811024
        },
        {
          "duration": 0.05442565833334356,
          "durationTicks": 76,
          "midi": 75,
          "name": "D#5",
          "ticks": 401040,
          "time": 295.73195162499997,
          "velocity": 0.2755905511811024
        },
        {
          "duration": 0.05442565833334356,
          "durationTicks": 76,
          "midi": 72,
          "name": "C5",
          "ticks": 401160,
          "time": 295.817886875,
          "velocity": 0.2755905511811024
        },
        {
          "duration": 0.05442565833334356,
          "durationTicks": 76,
          "midi": 69,
          "name": "A4",
          "ticks": 401280,
          "time": 295.903822125,
          "velocity": 0.2755905511811024
        },
        {
          "duration": 0.05442565833328672,
          "durationTicks": 76,
          "midi": 65,
          "name": "F4",
          "ticks": 401400,
          "time": 295.989757375,
          "velocity": 0.2755905511811024
        },
        {
          "duration": 0.05442565833334356,
          "durationTicks": 76,
          "midi": 74,
          "name": "D5",
          "ticks": 401520,
          "time": 296.075692625,
          "velocity": 0.2755905511811024
        },
        {
          "duration": 0.05442565833328672,
          "durationTicks": 76,
          "midi": 70,
          "name": "A#4",
          "ticks": 401640,
          "time": 296.161627875,
          "velocity": 0.2755905511811024
        },
        {
          "duration": 0.05442565833334356,
          "durationTicks": 76,
          "midi": 67,
          "name": "G4",
          "ticks": 402000,
          "time": 296.419433625,
          "velocity": 0.2755905511811024
        },
        {
          "duration": 0.05442565833334356,
          "durationTicks": 76,
          "midi": 72,
          "name": "C5",
          "ticks": 402120,
          "time": 296.505368875,
          "velocity": 0.2755905511811024
        },
        {
          "duration": 0.05442565833334356,
          "durationTicks": 76,
          "midi": 75,
          "name": "D#5",
          "ticks": 402240,
          "time": 296.59130412499997,
          "velocity": 0.2755905511811024
        },
        {
          "duration": 0.05442565833334356,
          "durationTicks": 76,
          "midi": 79,
          "name": "G5",
          "ticks": 402360,
          "time": 296.677239375,
          "velocity": 0.2755905511811024
        },
        {
          "duration": 0.05442565833334356,
          "durationTicks": 76,
          "midi": 65,
          "name": "F4",
          "ticks": 402720,
          "time": 296.935045125,
          "velocity": 0.2755905511811024
        },
        {
          "duration": 0.05442565833328672,
          "durationTicks": 76,
          "midi": 69,
          "name": "A4",
          "ticks": 402840,
          "time": 297.020980375,
          "velocity": 0.2755905511811024
        },
        {
          "duration": 0.05442565833334356,
          "durationTicks": 76,
          "midi": 72,
          "name": "C5",
          "ticks": 402960,
          "time": 297.106915625,
          "velocity": 0.2755905511811024
        },
        {
          "duration": 0.05442565833334356,
          "durationTicks": 76,
          "midi": 75,
          "name": "D#5",
          "ticks": 403080,
          "time": 297.192850875,
          "velocity": 0.2755905511811024
        },
        {
          "duration": 0.08307074166668826,
          "durationTicks": 116,
          "midi": 58,
          "name": "A#3",
          "ticks": 403320,
          "time": 297.364721375,
          "velocity": 0.2755905511811024
        },
        {
          "duration": 0.08307074166668826,
          "durationTicks": 116,
          "midi": 62,
          "name": "D4",
          "ticks": 403440,
          "time": 297.45065662499997,
          "velocity": 0.2992125984251969
        },
        {
          "duration": 0.08307074166668826,
          "durationTicks": 116,
          "midi": 65,
          "name": "F4",
          "ticks": 403560,
          "time": 297.536591875,
          "velocity": 0.3228346456692913
        },
        {
          "duration": 0.08307074166668826,
          "durationTicks": 116,
          "midi": 70,
          "name": "A#4",
          "ticks": 403680,
          "time": 297.622527125,
          "velocity": 0.3543307086614173
        },
        {
          "duration": 0.08307074166663142,
          "durationTicks": 116,
          "midi": 74,
          "name": "D5",
          "ticks": 403800,
          "time": 297.708462375,
          "velocity": 0.3858267716535433
        },
        {
          "duration": 0.08307074166668826,
          "durationTicks": 116,
          "midi": 77,
          "name": "F5",
          "ticks": 403920,
          "time": 297.794397625,
          "velocity": 0.4251968503937008
        },
        {
          "duration": 0.08307074166663142,
          "durationTicks": 116,
          "midi": 74,
          "name": "D5",
          "ticks": 404040,
          "time": 297.880332875,
          "velocity": 0.3464566929133858
        },
        {
          "duration": 0.08307074166668826,
          "durationTicks": 116,
          "midi": 70,
          "name": "A#4",
          "ticks": 404160,
          "time": 297.966268125,
          "velocity": 0.3464566929133858
        },
        {
          "duration": 0.08307074166668826,
          "durationTicks": 116,
          "midi": 65,
          "name": "F4",
          "ticks": 404280,
          "time": 298.052203375,
          "velocity": 0.3464566929133858
        },
        {
          "duration": 0.08307074166663142,
          "durationTicks": 116,
          "midi": 62,
          "name": "D4",
          "ticks": 404400,
          "time": 298.138138625,
          "velocity": 0.3464566929133858
        },
        {
          "duration": 0.08307074166668826,
          "durationTicks": 116,
          "midi": 58,
          "name": "A#3",
          "ticks": 404520,
          "time": 298.224073875,
          "velocity": 0.29133858267716534
        },
        {
          "duration": 0.08307074166668826,
          "durationTicks": 116,
          "midi": 60,
          "name": "C4",
          "ticks": 404760,
          "time": 298.395944375,
          "velocity": 0.2992125984251969
        },
        {
          "duration": 0.08307074166668826,
          "durationTicks": 116,
          "midi": 63,
          "name": "D#4",
          "ticks": 404880,
          "time": 298.481879625,
          "velocity": 0.33070866141732286
        },
        {
          "duration": 0.08307074166663142,
          "durationTicks": 116,
          "midi": 66,
          "name": "F#4",
          "ticks": 405000,
          "time": 298.567814875,
          "velocity": 0.36220472440944884
        },
        {
          "duration": 0.08307074166668826,
          "durationTicks": 116,
          "midi": 72,
          "name": "C5",
          "ticks": 405120,
          "time": 298.653750125,
          "velocity": 0.3937007874015748
        },
        {
          "duration": 0.08307074166663142,
          "durationTicks": 116,
          "midi": 75,
          "name": "D#5",
          "ticks": 405240,
          "time": 298.739685375,
          "velocity": 0.4251968503937008
        },
        {
          "duration": 0.08307074166668826,
          "durationTicks": 116,
          "midi": 78,
          "name": "F#5",
          "ticks": 405360,
          "time": 298.825620625,
          "velocity": 0.47244094488188976
        },
        {
          "duration": 0.08307074166668826,
          "durationTicks": 116,
          "midi": 75,
          "name": "D#5",
          "ticks": 405480,
          "time": 298.911555875,
          "velocity": 0.3858267716535433
        },
        {
          "duration": 0.08307074166663142,
          "durationTicks": 116,
          "midi": 72,
          "name": "C5",
          "ticks": 405600,
          "time": 298.997491125,
          "velocity": 0.3858267716535433
        },
        {
          "duration": 0.08307074166668826,
          "durationTicks": 116,
          "midi": 66,
          "name": "F#4",
          "ticks": 405720,
          "time": 299.083426375,
          "velocity": 0.3858267716535433
        },
        {
          "duration": 0.08307074166668826,
          "durationTicks": 116,
          "midi": 63,
          "name": "D#4",
          "ticks": 405840,
          "time": 299.16936162499996,
          "velocity": 0.3858267716535433
        },
        {
          "duration": 0.08307074166668826,
          "durationTicks": 116,
          "midi": 60,
          "name": "C4",
          "ticks": 405960,
          "time": 299.255296875,
          "velocity": 0.33070866141732286
        },
        {
          "duration": 0.08307074166663142,
          "durationTicks": 116,
          "midi": 62,
          "name": "D4",
          "ticks": 406200,
          "time": 299.427167375,
          "velocity": 0.33070866141732286
        },
        {
          "duration": 0.08307074166668826,
          "durationTicks": 116,
          "midi": 65,
          "name": "F4",
          "ticks": 406320,
          "time": 299.513102625,
          "velocity": 0.36220472440944884
        },
        {
          "duration": 0.08307074166663142,
          "durationTicks": 116,
          "midi": 68,
          "name": "G#4",
          "ticks": 406440,
          "time": 299.599037875,
          "velocity": 0.3937007874015748
        },
        {
          "duration": 0.08307074166668826,
          "durationTicks": 116,
          "midi": 74,
          "name": "D5",
          "ticks": 406560,
          "time": 299.684973125,
          "velocity": 0.4409448818897638
        },
        {
          "duration": 0.08307074166668826,
          "durationTicks": 116,
          "midi": 77,
          "name": "F5",
          "ticks": 406680,
          "time": 299.770908375,
          "velocity": 0.47244094488188976
        },
        {
          "duration": 0.08307074166663142,
          "durationTicks": 116,
          "midi": 80,
          "name": "G#5",
          "ticks": 406800,
          "time": 299.856843625,
          "velocity": 0.5118110236220472
        },
        {
          "duration": 0.08307074166668826,
          "durationTicks": 116,
          "midi": 77,
          "name": "F5",
          "ticks": 406920,
          "time": 299.942778875,
          "velocity": 0.4330708661417323
        },
        {
          "duration": 0.08307074166668826,
          "durationTicks": 116,
          "midi": 74,
          "name": "D5",
          "ticks": 407040,
          "time": 300.02871412499996,
          "velocity": 0.4330708661417323
        },
        {
          "duration": 0.08307074166668826,
          "durationTicks": 116,
          "midi": 68,
          "name": "G#4",
          "ticks": 407160,
          "time": 300.114649375,
          "velocity": 0.4251968503937008
        },
        {
          "duration": 0.08307074166668826,
          "durationTicks": 116,
          "midi": 65,
          "name": "F4",
          "ticks": 407280,
          "time": 300.200584625,
          "velocity": 0.4409448818897638
        },
        {
          "duration": 0.08307074166663142,
          "durationTicks": 116,
          "midi": 62,
          "name": "D4",
          "ticks": 407400,
          "time": 300.286519875,
          "velocity": 0.3937007874015748
        },
        {
          "duration": 0.08307074166663142,
          "durationTicks": 116,
          "midi": 63,
          "name": "D#4",
          "ticks": 407640,
          "time": 300.458390375,
          "velocity": 0.4015748031496063
        },
        {
          "duration": 0.08307074166668826,
          "durationTicks": 116,
          "midi": 67,
          "name": "G4",
          "ticks": 407760,
          "time": 300.544325625,
          "velocity": 0.4409448818897638
        },
        {
          "duration": 0.08307074166668826,
          "durationTicks": 116,
          "midi": 70,
          "name": "A#4",
          "ticks": 407880,
          "time": 300.630260875,
          "velocity": 0.48031496062992124
        },
        {
          "duration": 0.08307074166663142,
          "durationTicks": 116,
          "midi": 75,
          "name": "D#5",
          "ticks": 408000,
          "time": 300.716196125,
          "velocity": 0.5354330708661418
        },
        {
          "duration": 0.08307074166668826,
          "durationTicks": 116,
          "midi": 79,
          "name": "G5",
          "ticks": 408120,
          "time": 300.802131375,
          "velocity": 0.5669291338582677
        },
        {
          "duration": 0.08307074166668826,
          "durationTicks": 116,
          "midi": 82,
          "name": "A#5",
          "ticks": 408240,
          "time": 300.88806662499996,
          "velocity": 0.6141732283464567
        },
        {
          "duration": 0.08307074166668826,
          "durationTicks": 116,
          "midi": 79,
          "name": "G5",
          "ticks": 408360,
          "time": 300.974001875,
          "velocity": 0.5275590551181102
        },
        {
          "duration": 0.08307074166668826,
          "durationTicks": 116,
          "midi": 75,
          "name": "D#5",
          "ticks": 408480,
          "time": 301.059937125,
          "velocity": 0.5275590551181102
        },
        {
          "duration": 0.08307074166663142,
          "durationTicks": 116,
          "midi": 70,
          "name": "A#4",
          "ticks": 408600,
          "time": 301.145872375,
          "velocity": 0.5196850393700787
        },
        {
          "duration": 0.08307074166668826,
          "durationTicks": 116,
          "midi": 67,
          "name": "G4",
          "ticks": 408720,
          "time": 301.231807625,
          "velocity": 0.5196850393700787
        },
        {
          "duration": 0.08307074166663142,
          "durationTicks": 116,
          "midi": 63,
          "name": "D#4",
          "ticks": 408840,
          "time": 301.317742875,
          "velocity": 0.3779527559055118
        },
        {
          "duration": 0.16900599166666552,
          "durationTicks": 236,
          "midi": 74,
          "name": "D5",
          "ticks": 409320,
          "time": 301.661483875,
          "velocity": 0.5748031496062992
        },
        {
          "duration": 0.16900599166672237,
          "durationTicks": 236,
          "midi": 79,
          "name": "G5",
          "ticks": 409440,
          "time": 301.74741912499996,
          "velocity": 0.5826771653543307
        },
        {
          "duration": 0.16900599166666552,
          "durationTicks": 236,
          "midi": 86,
          "name": "D6",
          "ticks": 409560,
          "time": 301.833354375,
          "velocity": 0.49606299212598426
        },
        {
          "duration": 0.16900599166666552,
          "durationTicks": 236,
          "midi": 75,
          "name": "D#5",
          "ticks": 410040,
          "time": 302.177095375,
          "velocity": 0.6062992125984252
        },
        {
          "duration": 0.16900599166666552,
          "durationTicks": 236,
          "midi": 79,
          "name": "G5",
          "ticks": 410160,
          "time": 302.263030625,
          "velocity": 0.6141732283464567
        },
        {
          "duration": 0.16900599166666552,
          "durationTicks": 236,
          "midi": 87,
          "name": "D#6",
          "ticks": 410280,
          "time": 302.348965875,
          "velocity": 0.5196850393700787
        },
        {
          "duration": 0.16900599166666552,
          "durationTicks": 236,
          "midi": 72,
          "name": "C5",
          "ticks": 410760,
          "time": 302.692706875,
          "velocity": 0.6377952755905512
        },
        {
          "duration": 0.16900599166666552,
          "durationTicks": 236,
          "midi": 77,
          "name": "F5",
          "ticks": 410880,
          "time": 302.778642125,
          "velocity": 0.6456692913385826
        },
        {
          "duration": 0.16900599166666552,
          "durationTicks": 236,
          "midi": 84,
          "name": "C6",
          "ticks": 411000,
          "time": 302.864577375,
          "velocity": 0.5511811023622047
        },
        {
          "duration": 0.16900599166672237,
          "durationTicks": 236,
          "midi": 74,
          "name": "D5",
          "ticks": 411480,
          "time": 303.208318375,
          "velocity": 0.6692913385826772
        },
        {
          "duration": 0.16900599166666552,
          "durationTicks": 236,
          "midi": 77,
          "name": "F5",
          "ticks": 411600,
          "time": 303.294253625,
          "velocity": 0.6771653543307087
        },
        {
          "duration": 0.16900599166666552,
          "durationTicks": 236,
          "midi": 86,
          "name": "D6",
          "ticks": 411720,
          "time": 303.380188875,
          "velocity": 0.5748031496062992
        },
        {
          "duration": 0.09062499999998863,
          "durationTicks": 116,
          "midi": 79,
          "name": "G5",
          "ticks": 419040,
          "time": 310.80419762500003,
          "velocity": 0.5118110236220472
        },
        {
          "duration": 0.09062499999998863,
          "durationTicks": 116,
          "midi": 77,
          "name": "F5",
          "ticks": 419160,
          "time": 310.89794762500003,
          "velocity": 0.4251968503937008
        },
        {
          "duration": 0.09666666666669244,
          "durationTicks": 116,
          "midi": 79,
          "name": "G5",
          "ticks": 419280,
          "time": 310.99169762500003,
          "velocity": 0.4094488188976378
        },
        {
          "duration": 0.09666666666663559,
          "durationTicks": 116,
          "midi": 77,
          "name": "F5",
          "ticks": 419400,
          "time": 311.09169762500005,
          "velocity": 0.3937007874015748
        },
        {
          "duration": 0.09666666666669244,
          "durationTicks": 116,
          "midi": 79,
          "name": "G5",
          "ticks": 419520,
          "time": 311.191697625,
          "velocity": 0.3779527559055118
        },
        {
          "duration": 0.09666666666663559,
          "durationTicks": 116,
          "midi": 77,
          "name": "F5",
          "ticks": 419640,
          "time": 311.29169762500004,
          "velocity": 0.36220472440944884
        },
        {
          "duration": 0.5658878333333632,
          "durationTicks": 596,
          "midi": 75,
          "name": "D#5",
          "ticks": 419760,
          "time": 311.391697625,
          "velocity": 0.3464566929133858
        },
        {
          "duration": 0.12083333333333712,
          "durationTicks": 116,
          "midi": 74,
          "name": "D5",
          "ticks": 420240,
          "time": 311.83675212500003,
          "velocity": 0.2755905511811024
        },
        {
          "duration": 0.10357132500001853,
          "durationTicks": 116,
          "midi": 81,
          "name": "A5",
          "ticks": 420480,
          "time": 312.08675212500003,
          "velocity": 0.4330708661417323
        },
        {
          "duration": 0.10357132500001853,
          "durationTicks": 116,
          "midi": 79,
          "name": "G5",
          "ticks": 420600,
          "time": 312.193894875,
          "velocity": 0.4251968503937008
        },
        {
          "duration": 0.09062499999998863,
          "durationTicks": 116,
          "midi": 81,
          "name": "A5",
          "ticks": 420720,
          "time": 312.30103762500005,
          "velocity": 0.41732283464566927
        },
        {
          "duration": 0.09062499999998863,
          "durationTicks": 116,
          "midi": 79,
          "name": "G5",
          "ticks": 420840,
          "time": 312.39478762500005,
          "velocity": 0.4094488188976378
        },
        {
          "duration": 0.10357132500001853,
          "durationTicks": 116,
          "midi": 81,
          "name": "A5",
          "ticks": 420960,
          "time": 312.48853762500005,
          "velocity": 0.4015748031496063
        },
        {
          "duration": 0.10357132500001853,
          "durationTicks": 116,
          "midi": 79,
          "name": "G5",
          "ticks": 421080,
          "time": 312.59568037500003,
          "velocity": 0.3937007874015748
        },
        {
          "duration": 0.9429656666666233,
          "durationTicks": 596,
          "midi": 78,
          "name": "F#5",
          "ticks": 421200,
          "time": 312.70282312500007,
          "velocity": 0.3858267716535433
        },
        {
          "duration": 0.49166666666667425,
          "durationTicks": 236,
          "midi": 77,
          "name": "F5",
          "ticks": 421680,
          "time": 313.404122125,
          "velocity": 0.3464566929133858
        },
        {
          "duration": 0.06785707500000626,
          "durationTicks": 76,
          "midi": 81,
          "name": "A5",
          "ticks": 421920,
          "time": 313.904122125,
          "velocity": 0.4330708661417323
        },
        {
          "duration": 0.05588232500002732,
          "durationTicks": 76,
          "midi": 81,
          "name": "A5",
          "ticks": 422400,
          "time": 314.31195612500005,
          "velocity": 0.4330708661417323
        },
        {
          "duration": 0.05588232500002732,
          "durationTicks": 76,
          "midi": 81,
          "name": "A5",
          "ticks": 422640,
          "time": 314.48842662500005,
          "velocity": 0.4330708661417323
        },
        {
          "duration": 0.08529407500003572,
          "durationTicks": 116,
          "midi": 81,
          "name": "A5",
          "ticks": 423120,
          "time": 314.84136762500003,
          "velocity": 0.4330708661417323
        },
        {
          "duration": 0.08529407500003572,
          "durationTicks": 116,
          "midi": 84,
          "name": "C6",
          "ticks": 423360,
          "time": 315.017838125,
          "velocity": 0.4330708661417323
        },
        {
          "duration": 0.7029408250000415,
          "durationTicks": 956,
          "midi": 82,
          "name": "A#5",
          "ticks": 423420,
          "time": 315.06195575000004,
          "velocity": 0.4330708661417323
        },
        {
          "duration": 0.08529407499997887,
          "durationTicks": 116,
          "midi": 81,
          "name": "A5",
          "ticks": 424320,
          "time": 315.72372012500006,
          "velocity": 0.3937007874015748
        },
        {
          "duration": 0.08529407499997887,
          "durationTicks": 116,
          "midi": 79,
          "name": "G5",
          "ticks": 424560,
          "time": 315.90019062500005,
          "velocity": 0.3543307086614173
        },
        {
          "duration": 0.08529407500003572,
          "durationTicks": 116,
          "midi": 77,
          "name": "F5",
          "ticks": 424800,
          "time": 316.07666112500004,
          "velocity": 0.3464566929133858
        },
        {
          "duration": 0.08529407500003572,
          "durationTicks": 116,
          "midi": 78,
          "name": "F#5",
          "ticks": 425040,
          "time": 316.25313162500004,
          "velocity": 0.36220472440944884
        },
        {
          "duration": 0.08529407500003572,
          "durationTicks": 116,
          "midi": 79,
          "name": "G5",
          "ticks": 425280,
          "time": 316.42960212500003,
          "velocity": 0.3779527559055118
        },
        {
          "duration": 0.08529407500003572,
          "durationTicks": 116,
          "midi": 72,
          "name": "C5",
          "ticks": 425520,
          "time": 316.606072625,
          "velocity": 0.3937007874015748
        },
        {
          "duration": 0.08529407499997887,
          "durationTicks": 116,
          "midi": 77,
          "name": "F5",
          "ticks": 425760,
          "time": 316.7825431250001,
          "velocity": 0.4094488188976378
        },
        {
          "duration": 0.08529407499997887,
          "durationTicks": 116,
          "midi": 72,
          "name": "C5",
          "ticks": 426000,
          "time": 316.95901362500007,
          "velocity": 0.4251968503937008
        },
        {
          "duration": 0.5264703249999911,
          "durationTicks": 716,
          "midi": 75,
          "name": "D#5",
          "ticks": 426240,
          "time": 317.13548412500006,
          "velocity": 0.4330708661417323
        },
        {
          "duration": 0.17352932500000406,
          "durationTicks": 236,
          "midi": 74,
          "name": "D5",
          "ticks": 426960,
          "time": 317.66489562500004,
          "velocity": 0.3543307086614173
        },
        {
          "duration": 0.11470582500004411,
          "durationTicks": 156,
          "midi": 69,
          "name": "A4",
          "ticks": 427680,
          "time": 318.194307125,
          "velocity": 0.30708661417322836
        },
        {
          "duration": 0.11470582500004411,
          "durationTicks": 156,
          "midi": 81,
          "name": "A5",
          "ticks": 427680,
          "time": 318.194307125,
          "velocity": 0.3779527559055118
        },
        {
          "duration": 0.08529407499997887,
          "durationTicks": 116,
          "midi": 69,
          "name": "A4",
          "ticks": 428160,
          "time": 318.54724812500007,
          "velocity": 0.33858267716535434
        },
        {
          "duration": 0.08529407499997887,
          "durationTicks": 116,
          "midi": 81,
          "name": "A5",
          "ticks": 428160,
          "time": 318.54724812500007,
          "velocity": 0.41732283464566927
        },
        {
          "duration": 0.11470582499998727,
          "durationTicks": 156,
          "midi": 69,
          "name": "A4",
          "ticks": 428400,
          "time": 318.72371862500006,
          "velocity": 0.3779527559055118
        },
        {
          "duration": 0.11470582499998727,
          "durationTicks": 156,
          "midi": 81,
          "name": "A5",
          "ticks": 428400,
          "time": 318.72371862500006,
          "velocity": 0.4566929133858268
        },
        {
          "duration": 0.08529407499997887,
          "durationTicks": 116,
          "midi": 69,
          "name": "A4",
          "ticks": 428880,
          "time": 319.07665962500005,
          "velocity": 0.4251968503937008
        },
        {
          "duration": 0.08529407499997887,
          "durationTicks": 116,
          "midi": 81,
          "name": "A5",
          "ticks": 428880,
          "time": 319.07665962500005,
          "velocity": 0.5196850393700787
        },
        {
          "duration": 0.7029408249999847,
          "durationTicks": 956,
          "midi": 70,
          "name": "A#4",
          "ticks": 429120,
          "time": 319.25313012500004,
          "velocity": 0.44881889763779526
        },
        {
          "duration": 0.7029408249999847,
          "durationTicks": 956,
          "midi": 82,
          "name": "A#5",
          "ticks": 429120,
          "time": 319.25313012500004,
          "velocity": 0.5590551181102362
        },
        {
          "duration": 0.08529407499997887,
          "durationTicks": 116,
          "midi": 84,
          "name": "C6",
          "ticks": 430080,
          "time": 319.9590121250001,
          "velocity": 0.5118110236220472
        },
        {
          "duration": 0.17352932500000406,
          "durationTicks": 236,
          "midi": 86,
          "name": "D6",
          "ticks": 430320,
          "time": 320.13548262500007,
          "velocity": 0.4330708661417323
        },
        {
          "duration": 0.17352932500000406,
          "durationTicks": 236,
          "midi": 74,
          "name": "D5",
          "ticks": 430560,
          "time": 320.31195312500006,
          "velocity": 0.3464566929133858
        },
        {
          "duration": 0.17352932500000406,
          "durationTicks": 236,
          "midi": 74,
          "name": "D5",
          "ticks": 431040,
          "time": 320.66489412500005,
          "velocity": 0.3464566929133858
        },
        {
          "duration": 0.3499998249999976,
          "durationTicks": 476,
          "midi": 82,
          "name": "A#5",
          "ticks": 431280,
          "time": 320.84136462500004,
          "velocity": 0.3464566929133858
        },
        {
          "duration": 0.17352932500000406,
          "durationTicks": 236,
          "midi": 76,
          "name": "E5",
          "ticks": 431760,
          "time": 321.194305625,
          "velocity": 0.3464566929133858
        },
        {
          "duration": 0.17352932499994722,
          "durationTicks": 236,
          "midi": 69,
          "name": "A4",
          "ticks": 432000,
          "time": 321.3707761250001,
          "velocity": 0.3464566929133858
        },
        {
          "duration": 0.08529407499997887,
          "durationTicks": 116,
          "midi": 77,
          "name": "F5",
          "ticks": 432000,
          "time": 321.3707761250001,
          "velocity": 0.3464566929133858
        },
        {
          "duration": 0.17352932500000406,
          "durationTicks": 236,
          "midi": 69,
          "name": "A4",
          "ticks": 432480,
          "time": 321.72371712500006,
          "velocity": 0.4330708661417323
        },
        {
          "duration": 0.3499998249999976,
          "durationTicks": 476,
          "midi": 77,
          "name": "F5",
          "ticks": 432720,
          "time": 321.90018762500006,
          "velocity": 0.4330708661417323
        },
        {
          "duration": 0.17352932500000406,
          "durationTicks": 236,
          "midi": 71,
          "name": "B4",
          "ticks": 433200,
          "time": 322.25312862500004,
          "velocity": 0.4330708661417323
        },
        {
          "duration": 0.08529407500003572,
          "durationTicks": 116,
          "midi": 76,
          "name": "E5",
          "ticks": 433440,
          "time": 322.42959912500004,
          "velocity": 0.4330708661417323
        },
        {
          "duration": 0.08529407500003572,
          "durationTicks": 116,
          "midi": 84,
          "name": "C6",
          "ticks": 433440,
          "time": 322.42959912500004,
          "velocity": 0.3543307086614173
        },
        {
          "duration": 0.17352932500000406,
          "durationTicks": 236,
          "midi": 76,
          "name": "E5",
          "ticks": 433920,
          "time": 322.782540125,
          "velocity": 0.3543307086614173
        },
        {
          "duration": 0.3499998249999976,
          "durationTicks": 476,
          "midi": 84,
          "name": "C6",
          "ticks": 434160,
          "time": 322.9590106250001,
          "velocity": 0.3543307086614173
        },
        {
          "duration": 0.17352932500000406,
          "durationTicks": 236,
          "midi": 78,
          "name": "F#5",
          "ticks": 434640,
          "time": 323.31195162500006,
          "velocity": 0.3543307086614173
        },
        {
          "duration": 0.11470582499998727,
          "durationTicks": 156,
          "midi": 70,
          "name": "A#4",
          "ticks": 434880,
          "time": 323.48842212500006,
          "velocity": 0.3543307086614173
        },
        {
          "duration": 0.11470582499998727,
          "durationTicks": 156,
          "midi": 79,
          "name": "G5",
          "ticks": 434880,
          "time": 323.48842212500006,
          "velocity": 0.4330708661417323
        },
        {
          "duration": 0.19666666666665833,
          "durationTicks": 236,
          "midi": 70,
          "name": "A#4",
          "ticks": 435360,
          "time": 323.84136312500004,
          "velocity": 0.4330708661417323
        },
        {
          "duration": 0.13928557499997396,
          "durationTicks": 156,
          "midi": 74,
          "name": "D5",
          "ticks": 435600,
          "time": 324.04136312500003,
          "velocity": 0.3543307086614173
        },
        {
          "duration": 0.12083333333333712,
          "durationTicks": 116,
          "midi": 75,
          "name": "D#5",
          "ticks": 435840,
          "time": 324.25564862500005,
          "velocity": 0.4330708661417323
        },
        {
          "duration": 0.1449999999999818,
          "durationTicks": 116,
          "midi": 77,
          "name": "F5",
          "ticks": 436080,
          "time": 324.50564862500005,
          "velocity": 0.5118110236220472
        },
        {
          "duration": 0.13928557499997396,
          "durationTicks": 156,
          "midi": 82,
          "name": "A#5",
          "ticks": 436320,
          "time": 324.80564862500006,
          "velocity": 0.3464566929133858
        },
        {
          "duration": 0.13928557499997396,
          "durationTicks": 156,
          "midi": 86,
          "name": "D6",
          "ticks": 436320,
          "time": 324.80564862500006,
          "velocity": 0.4330708661417323
        },
        {
          "duration": 0.13526775000002544,
          "durationTicks": 156,
          "midi": 74,
          "name": "D5",
          "ticks": 436440,
          "time": 324.91279137500004,
          "velocity": 0.3464566929133858
        },
        {
          "duration": 0.12187499999998863,
          "durationTicks": 156,
          "midi": 82,
          "name": "A#5",
          "ticks": 436560,
          "time": 325.0199341250001,
          "velocity": 0.3464566929133858
        },
        {
          "duration": 0.12187499999998863,
          "durationTicks": 156,
          "midi": 86,
          "name": "D6",
          "ticks": 436560,
          "time": 325.0199341250001,
          "velocity": 0.4330708661417323
        },
        {
          "duration": 0.12022057500001893,
          "durationTicks": 156,
          "midi": 74,
          "name": "D5",
          "ticks": 436680,
          "time": 325.1136841250001,
          "velocity": 0.3464566929133858
        },
        {
          "duration": 0.11470582499998727,
          "durationTicks": 156,
          "midi": 82,
          "name": "A#5",
          "ticks": 436800,
          "time": 325.2074341250001,
          "velocity": 0.3464566929133858
        },
        {
          "duration": 0.11470582499998727,
          "durationTicks": 156,
          "midi": 86,
          "name": "D6",
          "ticks": 436800,
          "time": 325.2074341250001,
          "velocity": 0.4330708661417323
        },
        {
          "duration": 0.11470582499998727,
          "durationTicks": 156,
          "midi": 74,
          "name": "D5",
          "ticks": 436920,
          "time": 325.2956693750001,
          "velocity": 0.4094488188976378
        },
        {
          "duration": 0.11470582499998727,
          "durationTicks": 156,
          "midi": 82,
          "name": "A#5",
          "ticks": 437040,
          "time": 325.38390462500007,
          "velocity": 0.4094488188976378
        },
        {
          "duration": 0.11470582499998727,
          "durationTicks": 156,
          "midi": 86,
          "name": "D6",
          "ticks": 437040,
          "time": 325.38390462500007,
          "velocity": 0.5196850393700787
        },
        {
          "duration": 0.11470582499998727,
          "durationTicks": 156,
          "midi": 74,
          "name": "D5",
          "ticks": 437160,
          "time": 325.4721398750001,
          "velocity": 0.4094488188976378
        },
        {
          "duration": 0.11470582499998727,
          "durationTicks": 156,
          "midi": 82,
          "name": "A#5",
          "ticks": 437280,
          "time": 325.56037512500006,
          "velocity": 0.4094488188976378
        },
        {
          "duration": 0.11470582499998727,
          "durationTicks": 156,
          "midi": 86,
          "name": "D6",
          "ticks": 437280,
          "time": 325.56037512500006,
          "velocity": 0.5196850393700787
        },
        {
          "duration": 0.11470582499998727,
          "durationTicks": 156,
          "midi": 74,
          "name": "D5",
          "ticks": 437400,
          "time": 325.6486103750001,
          "velocity": 0.4094488188976378
        },
        {
          "duration": 0.11470582500004411,
          "durationTicks": 156,
          "midi": 82,
          "name": "A#5",
          "ticks": 437520,
          "time": 325.73684562500006,
          "velocity": 0.4094488188976378
        },
        {
          "duration": 0.11470582500004411,
          "durationTicks": 156,
          "midi": 86,
          "name": "D6",
          "ticks": 437520,
          "time": 325.73684562500006,
          "velocity": 0.5196850393700787
        },
        {
          "duration": 0.11470582499998727,
          "durationTicks": 156,
          "midi": 74,
          "name": "D5",
          "ticks": 437640,
          "time": 325.8250808750001,
          "velocity": 0.4094488188976378
        },
        {
          "duration": 0.11470582500004411,
          "durationTicks": 156,
          "midi": 82,
          "name": "A#5",
          "ticks": 437760,
          "time": 325.91331612500005,
          "velocity": 0.4094488188976378
        },
        {
          "duration": 0.11470582500004411,
          "durationTicks": 156,
          "midi": 86,
          "name": "D6",
          "ticks": 437760,
          "time": 325.91331612500005,
          "velocity": 0.5196850393700787
        },
        {
          "duration": 0.11470582499998727,
          "durationTicks": 156,
          "midi": 74,
          "name": "D5",
          "ticks": 437880,
          "time": 326.0015513750001,
          "velocity": 0.4094488188976378
        },
        {
          "duration": 0.11470582499998727,
          "durationTicks": 156,
          "midi": 82,
          "name": "A#5",
          "ticks": 438000,
          "time": 326.0897866250001,
          "velocity": 0.4094488188976378
        },
        {
          "duration": 0.11470582499998727,
          "durationTicks": 156,
          "midi": 86,
          "name": "D6",
          "ticks": 438000,
          "time": 326.0897866250001,
          "velocity": 0.5196850393700787
        },
        {
          "duration": 0.11470582499998727,
          "durationTicks": 156,
          "midi": 74,
          "name": "D5",
          "ticks": 438120,
          "time": 326.17802187500007,
          "velocity": 0.4094488188976378
        },
        {
          "duration": 0.11470582499998727,
          "durationTicks": 156,
          "midi": 82,
          "name": "A#5",
          "ticks": 438240,
          "time": 326.2662571250001,
          "velocity": 0.4094488188976378
        },
        {
          "duration": 0.11470582499998727,
          "durationTicks": 156,
          "midi": 86,
          "name": "D6",
          "ticks": 438240,
          "time": 326.2662571250001,
          "velocity": 0.5196850393700787
        },
        {
          "duration": 0.11470582499998727,
          "durationTicks": 156,
          "midi": 74,
          "name": "D5",
          "ticks": 438360,
          "time": 326.35449237500006,
          "velocity": 0.4094488188976378
        },
        {
          "duration": 0.11470582499998727,
          "durationTicks": 156,
          "midi": 82,
          "name": "A#5",
          "ticks": 438480,
          "time": 326.4427276250001,
          "velocity": 0.4094488188976378
        },
        {
          "duration": 0.11470582499998727,
          "durationTicks": 156,
          "midi": 86,
          "name": "D6",
          "ticks": 438480,
          "time": 326.4427276250001,
          "velocity": 0.5196850393700787
        },
        {
          "duration": 0.11470582500004411,
          "durationTicks": 156,
          "midi": 74,
          "name": "D5",
          "ticks": 438600,
          "time": 326.53096287500006,
          "velocity": 0.4094488188976378
        },
        {
          "duration": 0.11470582499998727,
          "durationTicks": 156,
          "midi": 82,
          "name": "A#5",
          "ticks": 438720,
          "time": 326.6191981250001,
          "velocity": 0.4094488188976378
        },
        {
          "duration": 0.11470582499998727,
          "durationTicks": 156,
          "midi": 86,
          "name": "D6",
          "ticks": 438720,
          "time": 326.6191981250001,
          "velocity": 0.5196850393700787
        },
        {
          "duration": 0.11470582500004411,
          "durationTicks": 156,
          "midi": 74,
          "name": "D5",
          "ticks": 438840,
          "time": 326.70743337500005,
          "velocity": 0.4094488188976378
        },
        {
          "duration": 0.11470582499998727,
          "durationTicks": 156,
          "midi": 82,
          "name": "A#5",
          "ticks": 438960,
          "time": 326.7956686250001,
          "velocity": 0.4094488188976378
        },
        {
          "duration": 0.11470582499998727,
          "durationTicks": 156,
          "midi": 86,
          "name": "D6",
          "ticks": 438960,
          "time": 326.7956686250001,
          "velocity": 0.5196850393700787
        },
        {
          "duration": 0.11470582499998727,
          "durationTicks": 156,
          "midi": 74,
          "name": "D5",
          "ticks": 439080,
          "time": 326.8839038750001,
          "velocity": 0.4094488188976378
        },
        {
          "duration": 0.11470582499998727,
          "durationTicks": 156,
          "midi": 82,
          "name": "A#5",
          "ticks": 439200,
          "time": 326.97213912500007,
          "velocity": 0.4094488188976378
        },
        {
          "duration": 0.11470582499998727,
          "durationTicks": 156,
          "midi": 84,
          "name": "C6",
          "ticks": 439200,
          "time": 326.97213912500007,
          "velocity": 0.5196850393700787
        },
        {
          "duration": 0.11470582499998727,
          "durationTicks": 156,
          "midi": 72,
          "name": "C5",
          "ticks": 439320,
          "time": 327.0603743750001,
          "velocity": 0.4094488188976378
        },
        {
          "duration": 0.11470582499998727,
          "durationTicks": 156,
          "midi": 82,
          "name": "A#5",
          "ticks": 439440,
          "time": 327.14860962500006,
          "velocity": 0.4094488188976378
        },
        {
          "duration": 0.11470582499998727,
          "durationTicks": 156,
          "midi": 84,
          "name": "C6",
          "ticks": 439440,
          "time": 327.14860962500006,
          "velocity": 0.5196850393700787
        },
        {
          "duration": 0.11470582499998727,
          "durationTicks": 156,
          "midi": 72,
          "name": "C5",
          "ticks": 439560,
          "time": 327.2368448750001,
          "velocity": 0.4094488188976378
        },
        {
          "duration": 0.11470582500004411,
          "durationTicks": 156,
          "midi": 82,
          "name": "A#5",
          "ticks": 439680,
          "time": 327.32508012500006,
          "velocity": 0.4094488188976378
        },
        {
          "duration": 0.11470582500004411,
          "durationTicks": 156,
          "midi": 84,
          "name": "C6",
          "ticks": 439680,
          "time": 327.32508012500006,
          "velocity": 0.5196850393700787
        },
        {
          "duration": 0.11470582499998727,
          "durationTicks": 156,
          "midi": 72,
          "name": "C5",
          "ticks": 439800,
          "time": 327.4133153750001,
          "velocity": 0.4094488188976378
        },
        {
          "duration": 0.11470582500004411,
          "durationTicks": 156,
          "midi": 82,
          "name": "A#5",
          "ticks": 439920,
          "time": 327.50155062500005,
          "velocity": 0.4094488188976378
        },
        {
          "duration": 0.11470582500004411,
          "durationTicks": 156,
          "midi": 84,
          "name": "C6",
          "ticks": 439920,
          "time": 327.50155062500005,
          "velocity": 0.5196850393700787
        },
        {
          "duration": 0.11470582499998727,
          "durationTicks": 156,
          "midi": 72,
          "name": "C5",
          "ticks": 440040,
          "time": 327.5897858750001,
          "velocity": 0.4094488188976378
        },
        {
          "duration": 0.11470582499998727,
          "durationTicks": 156,
          "midi": 82,
          "name": "A#5",
          "ticks": 440160,
          "time": 327.6780211250001,
          "velocity": 0.4094488188976378
        },
        {
          "duration": 0.11470582499998727,
          "durationTicks": 156,
          "midi": 86,
          "name": "D6",
          "ticks": 440160,
          "time": 327.6780211250001,
          "velocity": 0.5196850393700787
        },
        {
          "duration": 0.11470582499998727,
          "durationTicks": 156,
          "midi": 74,
          "name": "D5",
          "ticks": 440280,
          "time": 327.76625637500007,
          "velocity": 0.4094488188976378
        },
        {
          "duration": 0.11470582499998727,
          "durationTicks": 156,
          "midi": 82,
          "name": "A#5",
          "ticks": 440400,
          "time": 327.8544916250001,
          "velocity": 0.4094488188976378
        },
        {
          "duration": 0.11470582499998727,
          "durationTicks": 156,
          "midi": 87,
          "name": "D#6",
          "ticks": 440400,
          "time": 327.8544916250001,
          "velocity": 0.5196850393700787
        },
        {
          "duration": 0.11470582499998727,
          "durationTicks": 156,
          "midi": 75,
          "name": "D#5",
          "ticks": 440520,
          "time": 327.94272687500006,
          "velocity": 0.4251968503937008
        },
        {
          "duration": 0.11470582499998727,
          "durationTicks": 156,
          "midi": 82,
          "name": "A#5",
          "ticks": 440640,
          "time": 328.0309621250001,
          "velocity": 0.4094488188976378
        },
        {
          "duration": 0.11470582499998727,
          "durationTicks": 156,
          "midi": 86,
          "name": "D6",
          "ticks": 440640,
          "time": 328.0309621250001,
          "velocity": 0.5196850393700787
        },
        {
          "duration": 0.11470582500004411,
          "durationTicks": 156,
          "midi": 74,
          "name": "D5",
          "ticks": 440760,
          "time": 328.11919737500006,
          "velocity": 0.4094488188976378
        },
        {
          "duration": 0.11470582499998727,
          "durationTicks": 156,
          "midi": 82,
          "name": "A#5",
          "ticks": 440880,
          "time": 328.2074326250001,
          "velocity": 0.4094488188976378
        },
        {
          "duration": 0.11470582499998727,
          "durationTicks": 156,
          "midi": 86,
          "name": "D6",
          "ticks": 440880,
          "time": 328.2074326250001,
          "velocity": 0.5196850393700787
        },
        {
          "duration": 0.11470582500004411,
          "durationTicks": 156,
          "midi": 74,
          "name": "D5",
          "ticks": 441000,
          "time": 328.29566787500005,
          "velocity": 0.4094488188976378
        },
        {
          "duration": 0.11470582499998727,
          "durationTicks": 156,
          "midi": 82,
          "name": "A#5",
          "ticks": 441120,
          "time": 328.3839031250001,
          "velocity": 0.4094488188976378
        },
        {
          "duration": 0.11470582499998727,
          "durationTicks": 156,
          "midi": 86,
          "name": "D6",
          "ticks": 441120,
          "time": 328.3839031250001,
          "velocity": 0.5196850393700787
        },
        {
          "duration": 0.11470582499998727,
          "durationTicks": 156,
          "midi": 74,
          "name": "D5",
          "ticks": 441240,
          "time": 328.4721383750001,
          "velocity": 0.4094488188976378
        },
        {
          "duration": 0.11470582499998727,
          "durationTicks": 156,
          "midi": 81,
          "name": "A5",
          "ticks": 441360,
          "time": 328.56037362500007,
          "velocity": 0.4409448818897638
        },
        {
          "duration": 0.11470582499998727,
          "durationTicks": 156,
          "midi": 84,
          "name": "C6",
          "ticks": 441360,
          "time": 328.56037362500007,
          "velocity": 0.5196850393700787
        },
        {
          "duration": 0.11470582499998727,
          "durationTicks": 156,
          "midi": 72,
          "name": "C5",
          "ticks": 441480,
          "time": 328.6486088750001,
          "velocity": 0.33070866141732286
        },
        {
          "duration": 0.11470582499998727,
          "durationTicks": 156,
          "midi": 81,
          "name": "A5",
          "ticks": 441600,
          "time": 328.73684412500006,
          "velocity": 0.4409448818897638
        },
        {
          "duration": 0.11470582499998727,
          "durationTicks": 156,
          "midi": 84,
          "name": "C6",
          "ticks": 441600,
          "time": 328.73684412500006,
          "velocity": 0.5196850393700787
        },
        {
          "duration": 0.11470582499998727,
          "durationTicks": 156,
          "midi": 72,
          "name": "C5",
          "ticks": 441720,
          "time": 328.8250793750001,
          "velocity": 0.33070866141732286
        },
        {
          "duration": 0.11470582500004411,
          "durationTicks": 156,
          "midi": 81,
          "name": "A5",
          "ticks": 441840,
          "time": 328.91331462500006,
          "velocity": 0.4409448818897638
        },
        {
          "duration": 0.11470582500004411,
          "durationTicks": 156,
          "midi": 84,
          "name": "C6",
          "ticks": 441840,
          "time": 328.91331462500006,
          "velocity": 0.4409448818897638
        },
        {
          "duration": 0.11470582499998727,
          "durationTicks": 156,
          "midi": 72,
          "name": "C5",
          "ticks": 441960,
          "time": 329.0015498750001,
          "velocity": 0.33070866141732286
        },
        {
          "duration": 0.11470582500004411,
          "durationTicks": 156,
          "midi": 82,
          "name": "A#5",
          "ticks": 442080,
          "time": 329.08978512500005,
          "velocity": 0.3464566929133858
        },
        {
          "duration": 0.11470582500004411,
          "durationTicks": 156,
          "midi": 86,
          "name": "D6",
          "ticks": 442080,
          "time": 329.08978512500005,
          "velocity": 0.4330708661417323
        },
        {
          "duration": 0.11470582499998727,
          "durationTicks": 156,
          "midi": 74,
          "name": "D5",
          "ticks": 442200,
          "time": 329.1780203750001,
          "velocity": 0.3464566929133858
        },
        {
          "duration": 0.11470582499998727,
          "durationTicks": 156,
          "midi": 82,
          "name": "A#5",
          "ticks": 442320,
          "time": 329.2662556250001,
          "velocity": 0.3464566929133858
        },
        {
          "duration": 0.11470582499998727,
          "durationTicks": 156,
          "midi": 86,
          "name": "D6",
          "ticks": 442320,
          "time": 329.2662556250001,
          "velocity": 0.4330708661417323
        },
        {
          "duration": 0.11470582499998727,
          "durationTicks": 156,
          "midi": 74,
          "name": "D5",
          "ticks": 442440,
          "time": 329.35449087500007,
          "velocity": 0.3464566929133858
        },
        {
          "duration": 0.11470582499998727,
          "durationTicks": 156,
          "midi": 82,
          "name": "A#5",
          "ticks": 442560,
          "time": 329.4427261250001,
          "velocity": 0.3464566929133858
        },
        {
          "duration": 0.11470582499998727,
          "durationTicks": 156,
          "midi": 86,
          "name": "D6",
          "ticks": 442560,
          "time": 329.4427261250001,
          "velocity": 0.4330708661417323
        },
        {
          "duration": 0.11470582499998727,
          "durationTicks": 156,
          "midi": 74,
          "name": "D5",
          "ticks": 442680,
          "time": 329.53096137500006,
          "velocity": 0.4094488188976378
        },
        {
          "duration": 0.11470582499998727,
          "durationTicks": 156,
          "midi": 82,
          "name": "A#5",
          "ticks": 442800,
          "time": 329.6191966250001,
          "velocity": 0.4094488188976378
        },
        {
          "duration": 0.11470582499998727,
          "durationTicks": 156,
          "midi": 86,
          "name": "D6",
          "ticks": 442800,
          "time": 329.6191966250001,
          "velocity": 0.5196850393700787
        },
        {
          "duration": 0.11470582500004411,
          "durationTicks": 156,
          "midi": 74,
          "name": "D5",
          "ticks": 442920,
          "time": 329.70743187500005,
          "velocity": 0.4094488188976378
        },
        {
          "duration": 0.11470582499998727,
          "durationTicks": 156,
          "midi": 82,
          "name": "A#5",
          "ticks": 443040,
          "time": 329.7956671250001,
          "velocity": 0.4094488188976378
        },
        {
          "duration": 0.11470582499998727,
          "durationTicks": 156,
          "midi": 86,
          "name": "D6",
          "ticks": 443040,
          "time": 329.7956671250001,
          "velocity": 0.5196850393700787
        },
        {
          "duration": 0.11470582499998727,
          "durationTicks": 156,
          "midi": 74,
          "name": "D5",
          "ticks": 443160,
          "time": 329.8839023750001,
          "velocity": 0.4094488188976378
        },
        {
          "duration": 0.11470582499998727,
          "durationTicks": 156,
          "midi": 82,
          "name": "A#5",
          "ticks": 443280,
          "time": 329.9721376250001,
          "velocity": 0.4094488188976378
        },
        {
          "duration": 0.11470582499998727,
          "durationTicks": 156,
          "midi": 86,
          "name": "D6",
          "ticks": 443280,
          "time": 329.9721376250001,
          "velocity": 0.5196850393700787
        },
        {
          "duration": 0.11470582499998727,
          "durationTicks": 156,
          "midi": 74,
          "name": "D5",
          "ticks": 443400,
          "time": 330.0603728750001,
          "velocity": 0.4094488188976378
        },
        {
          "duration": 0.11470582499998727,
          "durationTicks": 156,
          "midi": 82,
          "name": "A#5",
          "ticks": 443520,
          "time": 330.14860812500007,
          "velocity": 0.4094488188976378
        },
        {
          "duration": 0.11470582499998727,
          "durationTicks": 156,
          "midi": 86,
          "name": "D6",
          "ticks": 443520,
          "time": 330.14860812500007,
          "velocity": 0.5196850393700787
        },
        {
          "duration": 0.11470582499998727,
          "durationTicks": 156,
          "midi": 74,
          "name": "D5",
          "ticks": 443640,
          "time": 330.2368433750001,
          "velocity": 0.4094488188976378
        },
        {
          "duration": 0.11470582500004411,
          "durationTicks": 156,
          "midi": 82,
          "name": "A#5",
          "ticks": 443760,
          "time": 330.32507862500006,
          "velocity": 0.41732283464566927
        },
        {
          "duration": 0.11470582500004411,
          "durationTicks": 156,
          "midi": 86,
          "name": "D6",
          "ticks": 443760,
          "time": 330.32507862500006,
          "velocity": 0.5275590551181102
        },
        {
          "duration": 0.11470582499998727,
          "durationTicks": 156,
          "midi": 74,
          "name": "D5",
          "ticks": 443880,
          "time": 330.4133138750001,
          "velocity": 0.41732283464566927
        },
        {
          "duration": 0.11470582500004411,
          "durationTicks": 156,
          "midi": 82,
          "name": "A#5",
          "ticks": 444000,
          "time": 330.50154912500005,
          "velocity": 0.4251968503937008
        },
        {
          "duration": 0.11470582500004411,
          "durationTicks": 156,
          "midi": 86,
          "name": "D6",
          "ticks": 444000,
          "time": 330.50154912500005,
          "velocity": 0.5354330708661418
        },
        {
          "duration": 0.11470582499998727,
          "durationTicks": 156,
          "midi": 74,
          "name": "D5",
          "ticks": 444120,
          "time": 330.5897843750001,
          "velocity": 0.4251968503937008
        },
        {
          "duration": 0.11470582499998727,
          "durationTicks": 156,
          "midi": 82,
          "name": "A#5",
          "ticks": 444240,
          "time": 330.6780196250001,
          "velocity": 0.4330708661417323
        },
        {
          "duration": 0.11470582499998727,
          "durationTicks": 156,
          "midi": 86,
          "name": "D6",
          "ticks": 444240,
          "time": 330.6780196250001,
          "velocity": 0.5433070866141733
        },
        {
          "duration": 0.11470582499998727,
          "durationTicks": 156,
          "midi": 74,
          "name": "D5",
          "ticks": 444360,
          "time": 330.7662548750001,
          "velocity": 0.4330708661417323
        },
        {
          "duration": 0.11470582499998727,
          "durationTicks": 156,
          "midi": 82,
          "name": "A#5",
          "ticks": 444480,
          "time": 330.8544901250001,
          "velocity": 0.4409448818897638
        },
        {
          "duration": 0.11470582499998727,
          "durationTicks": 156,
          "midi": 86,
          "name": "D6",
          "ticks": 444480,
          "time": 330.8544901250001,
          "velocity": 0.5590551181102362
        },
        {
          "duration": 0.11470582499998727,
          "durationTicks": 156,
          "midi": 74,
          "name": "D5",
          "ticks": 444600,
          "time": 330.94272537500007,
          "velocity": 0.44881889763779526
        },
        {
          "duration": 0.11470582499998727,
          "durationTicks": 156,
          "midi": 82,
          "name": "A#5",
          "ticks": 444720,
          "time": 331.0309606250001,
          "velocity": 0.44881889763779526
        },
        {
          "duration": 0.11470582499998727,
          "durationTicks": 156,
          "midi": 86,
          "name": "D6",
          "ticks": 444720,
          "time": 331.0309606250001,
          "velocity": 0.5748031496062992
        },
        {
          "duration": 0.11470582500004411,
          "durationTicks": 156,
          "midi": 74,
          "name": "D5",
          "ticks": 444840,
          "time": 331.11919587500006,
          "velocity": 0.4566929133858268
        },
        {
          "duration": 0.11470582499998727,
          "durationTicks": 156,
          "midi": 79,
          "name": "G5",
          "ticks": 444960,
          "time": 331.2074311250001,
          "velocity": 0.49606299212598426
        },
        {
          "duration": 0.11470582499998727,
          "durationTicks": 156,
          "midi": 84,
          "name": "C6",
          "ticks": 444960,
          "time": 331.2074311250001,
          "velocity": 0.6377952755905512
        },
        {
          "duration": 0.11470582500004411,
          "durationTicks": 156,
          "midi": 72,
          "name": "C5",
          "ticks": 445080,
          "time": 331.29566637500005,
          "velocity": 0.5039370078740157
        },
        {
          "duration": 0.11470582499998727,
          "durationTicks": 156,
          "midi": 79,
          "name": "G5",
          "ticks": 445200,
          "time": 331.3839016250001,
          "velocity": 0.4409448818897638
        },
        {
          "duration": 0.11470582499998727,
          "durationTicks": 156,
          "midi": 84,
          "name": "C6",
          "ticks": 445200,
          "time": 331.3839016250001,
          "velocity": 0.5590551181102362
        },
        {
          "duration": 0.11470582499998727,
          "durationTicks": 156,
          "midi": 72,
          "name": "C5",
          "ticks": 445320,
          "time": 331.4721368750001,
          "velocity": 0.4409448818897638
        },
        {
          "duration": 0.11470582499998727,
          "durationTicks": 156,
          "midi": 81,
          "name": "A5",
          "ticks": 445440,
          "time": 331.5603721250001,
          "velocity": 0.4330708661417323
        },
        {
          "duration": 0.11470582499998727,
          "durationTicks": 156,
          "midi": 84,
          "name": "C6",
          "ticks": 445440,
          "time": 331.5603721250001,
          "velocity": 0.5511811023622047
        },
        {
          "duration": 0.11470582499998727,
          "durationTicks": 156,
          "midi": 72,
          "name": "C5",
          "ticks": 445560,
          "time": 331.6486073750001,
          "velocity": 0.4330708661417323
        },
        {
          "duration": 0.11470582499998727,
          "durationTicks": 156,
          "midi": 82,
          "name": "A#5",
          "ticks": 445680,
          "time": 331.73684262500007,
          "velocity": 0.4251968503937008
        },
        {
          "duration": 0.11470582499998727,
          "durationTicks": 156,
          "midi": 84,
          "name": "C6",
          "ticks": 445680,
          "time": 331.73684262500007,
          "velocity": 0.5433070866141733
        },
        {
          "duration": 0.11470582499998727,
          "durationTicks": 156,
          "midi": 72,
          "name": "C5",
          "ticks": 445800,
          "time": 331.8250778750001,
          "velocity": 0.4251968503937008
        },
        {
          "duration": 0.11470582500004411,
          "durationTicks": 156,
          "midi": 82,
          "name": "A#5",
          "ticks": 445920,
          "time": 331.91331312500006,
          "velocity": 0.4251968503937008
        },
        {
          "duration": 0.11470582500004411,
          "durationTicks": 156,
          "midi": 86,
          "name": "D6",
          "ticks": 445920,
          "time": 331.91331312500006,
          "velocity": 0.5354330708661418
        },
        {
          "duration": 0.11470582499998727,
          "durationTicks": 156,
          "midi": 74,
          "name": "D5",
          "ticks": 446040,
          "time": 332.0015483750001,
          "velocity": 0.41732283464566927
        },
        {
          "duration": 0.11470582500004411,
          "durationTicks": 156,
          "midi": 82,
          "name": "A#5",
          "ticks": 446160,
          "time": 332.08978362500005,
          "velocity": 0.41732283464566927
        },
        {
          "duration": 0.11470582500004411,
          "durationTicks": 156,
          "midi": 87,
          "name": "D#6",
          "ticks": 446160,
          "time": 332.08978362500005,
          "velocity": 0.5275590551181102
        },
        {
          "duration": 0.11470582499998727,
          "durationTicks": 156,
          "midi": 75,
          "name": "D#5",
          "ticks": 446280,
          "time": 332.1780188750001,
          "velocity": 0.4251968503937008
        },
        {
          "duration": 0.11470582499998727,
          "durationTicks": 156,
          "midi": 82,
          "name": "A#5",
          "ticks": 446400,
          "time": 332.2662541250001,
          "velocity": 0.4094488188976378
        },
        {
          "duration": 0.11470582499998727,
          "durationTicks": 156,
          "midi": 86,
          "name": "D6",
          "ticks": 446400,
          "time": 332.2662541250001,
          "velocity": 0.5196850393700787
        },
        {
          "duration": 0.11470582499998727,
          "durationTicks": 156,
          "midi": 74,
          "name": "D5",
          "ticks": 446520,
          "time": 332.35448937500007,
          "velocity": 0.4094488188976378
        },
        {
          "duration": 0.11470582499998727,
          "durationTicks": 156,
          "midi": 82,
          "name": "A#5",
          "ticks": 446640,
          "time": 332.4427246250001,
          "velocity": 0.4015748031496063
        },
        {
          "duration": 0.11470582499998727,
          "durationTicks": 156,
          "midi": 86,
          "name": "D6",
          "ticks": 446640,
          "time": 332.4427246250001,
          "velocity": 0.5118110236220472
        },
        {
          "duration": 0.11470582499998727,
          "durationTicks": 156,
          "midi": 74,
          "name": "D5",
          "ticks": 446760,
          "time": 332.53095987500006,
          "velocity": 0.4015748031496063
        },
        {
          "duration": 0.11470582499998727,
          "durationTicks": 156,
          "midi": 82,
          "name": "A#5",
          "ticks": 446880,
          "time": 332.6191951250001,
          "velocity": 0.4015748031496063
        },
        {
          "duration": 0.11470582499998727,
          "durationTicks": 156,
          "midi": 86,
          "name": "D6",
          "ticks": 446880,
          "time": 332.6191951250001,
          "velocity": 0.5039370078740157
        },
        {
          "duration": 0.11470582500004411,
          "durationTicks": 156,
          "midi": 74,
          "name": "D5",
          "ticks": 447000,
          "time": 332.70743037500006,
          "velocity": 0.3937007874015748
        },
        {
          "duration": 0.11470582499998727,
          "durationTicks": 156,
          "midi": 81,
          "name": "A5",
          "ticks": 447120,
          "time": 332.7956656250001,
          "velocity": 0.41732283464566927
        },
        {
          "duration": 0.11470582499998727,
          "durationTicks": 156,
          "midi": 84,
          "name": "C6",
          "ticks": 447120,
          "time": 332.7956656250001,
          "velocity": 0.49606299212598426
        },
        {
          "duration": 0.11470582500004411,
          "durationTicks": 156,
          "midi": 72,
          "name": "C5",
          "ticks": 447240,
          "time": 332.88390087500005,
          "velocity": 0.31496062992125984
        },
        {
          "duration": 0.11470582499998727,
          "durationTicks": 156,
          "midi": 81,
          "name": "A5",
          "ticks": 447360,
          "time": 332.9721361250001,
          "velocity": 0.41732283464566927
        },
        {
          "duration": 0.11470582499998727,
          "durationTicks": 156,
          "midi": 84,
          "name": "C6",
          "ticks": 447360,
          "time": 332.9721361250001,
          "velocity": 0.4881889763779528
        },
        {
          "duration": 0.11470582499998727,
          "durationTicks": 156,
          "midi": 72,
          "name": "C5",
          "ticks": 447480,
          "time": 333.0603713750001,
          "velocity": 0.30708661417322836
        },
        {
          "duration": 0.11470582499998727,
          "durationTicks": 156,
          "midi": 81,
          "name": "A5",
          "ticks": 447600,
          "time": 333.14860662500007,
          "velocity": 0.4015748031496063
        },
        {
          "duration": 0.11470582499998727,
          "durationTicks": 156,
          "midi": 84,
          "name": "C6",
          "ticks": 447600,
          "time": 333.14860662500007,
          "velocity": 0.4015748031496063
        },
        {
          "duration": 0.11470582499998727,
          "durationTicks": 156,
          "midi": 72,
          "name": "C5",
          "ticks": 447720,
          "time": 333.2368418750001,
          "velocity": 0.33070866141732286
        },
        {
          "duration": 0.05588232500002732,
          "durationTicks": 76,
          "midi": 74,
          "name": "D5",
          "ticks": 447840,
          "time": 333.32507712500006,
          "velocity": 0.25984251968503935
        },
        {
          "duration": 0.05588232500002732,
          "durationTicks": 76,
          "midi": 82,
          "name": "A#5",
          "ticks": 447840,
          "time": 333.32507712500006,
          "velocity": 0.41732283464566927
        },
        {
          "duration": 0.05588232499997048,
          "durationTicks": 76,
          "midi": 73,
          "name": "C#5",
          "ticks": 447960,
          "time": 333.4133123750001,
          "velocity": 0.2677165354330709
        },
        {
          "duration": 0.05588232500002732,
          "durationTicks": 76,
          "midi": 74,
          "name": "D5",
          "ticks": 448080,
          "time": 333.50154762500006,
          "velocity": 0.28346456692913385
        },
        {
          "duration": 0.05588232499997048,
          "durationTicks": 76,
          "midi": 75,
          "name": "D#5",
          "ticks": 448200,
          "time": 333.5897828750001,
          "velocity": 0.2992125984251969
        },
        {
          "duration": 0.05588232500002732,
          "durationTicks": 76,
          "midi": 74,
          "name": "D5",
          "ticks": 448320,
          "time": 333.67801812500005,
          "velocity": 0.31496062992125984
        },
        {
          "duration": 0.05588232500002732,
          "durationTicks": 76,
          "midi": 75,
          "name": "D#5",
          "ticks": 448440,
          "time": 333.7662533750001,
          "velocity": 0.33070866141732286
        },
        {
          "duration": 0.05588232499997048,
          "durationTicks": 76,
          "midi": 74,
          "name": "D5",
          "ticks": 448560,
          "time": 333.8544886250001,
          "velocity": 0.3464566929133858
        },
        {
          "duration": 0.05588232499997048,
          "durationTicks": 76,
          "midi": 82,
          "name": "A#5",
          "ticks": 448560,
          "time": 333.8544886250001,
          "velocity": 0.4251968503937008
        },
        {
          "duration": 0.05588232500002732,
          "durationTicks": 76,
          "midi": 75,
          "name": "D#5",
          "ticks": 448680,
          "time": 333.94272387500007,
          "velocity": 0.3543307086614173
        },
        {
          "duration": 0.05588232499997048,
          "durationTicks": 76,
          "midi": 76,
          "name": "E5",
          "ticks": 448800,
          "time": 334.0309591250001,
          "velocity": 0.3700787401574803
        },
        {
          "duration": 0.05588232500002732,
          "durationTicks": 76,
          "midi": 77,
          "name": "F5",
          "ticks": 448920,
          "time": 334.11919437500006,
          "velocity": 0.3858267716535433
        },
        {
          "duration": 0.05588232499997048,
          "durationTicks": 76,
          "midi": 76,
          "name": "E5",
          "ticks": 449040,
          "time": 334.2074296250001,
          "velocity": 0.4015748031496063
        },
        {
          "duration": 0.05588232500002732,
          "durationTicks": 76,
          "midi": 77,
          "name": "F5",
          "ticks": 449160,
          "time": 334.29566487500006,
          "velocity": 0.41732283464566927
        },
        {
          "duration": 0.08529407499997887,
          "durationTicks": 116,
          "midi": 78,
          "name": "F#5",
          "ticks": 449280,
          "time": 334.3839001250001,
          "velocity": 0.4330708661417323
        },
        {
          "duration": 0.08529407499997887,
          "durationTicks": 116,
          "midi": 81,
          "name": "A5",
          "ticks": 449280,
          "time": 334.3839001250001,
          "velocity": 0.5118110236220472
        },
        {
          "duration": 0.08529407500003572,
          "durationTicks": 116,
          "midi": 77,
          "name": "F5",
          "ticks": 449400,
          "time": 334.47213537500005,
          "velocity": 0.4094488188976378
        },
        {
          "duration": 0.08529407499997887,
          "durationTicks": 116,
          "midi": 78,
          "name": "F#5",
          "ticks": 449520,
          "time": 334.5603706250001,
          "velocity": 0.3858267716535433
        },
        {
          "duration": 0.08529407499997887,
          "durationTicks": 116,
          "midi": 77,
          "name": "F5",
          "ticks": 449640,
          "time": 334.6486058750001,
          "velocity": 0.36220472440944884
        },
        {
          "duration": 0.08529407500003572,
          "durationTicks": 116,
          "midi": 76,
          "name": "E5",
          "ticks": 449760,
          "time": 334.73684112500007,
          "velocity": 0.33858267716535434
        },
        {
          "duration": 0.08529407499997887,
          "durationTicks": 116,
          "midi": 77,
          "name": "F5",
          "ticks": 449880,
          "time": 334.8250763750001,
          "velocity": 0.31496062992125984
        },
        {
          "duration": 0.08529407500003572,
          "durationTicks": 116,
          "midi": 76,
          "name": "E5",
          "ticks": 450000,
          "time": 334.91331162500006,
          "velocity": 0.2992125984251969
        },
        {
          "duration": 0.08529407499997887,
          "durationTicks": 116,
          "midi": 77,
          "name": "F5",
          "ticks": 450120,
          "time": 335.0015468750001,
          "velocity": 0.33858267716535434
        },
        {
          "duration": 0.08529407500003572,
          "durationTicks": 116,
          "midi": 78,
          "name": "F#5",
          "ticks": 450240,
          "time": 335.08978212500006,
          "velocity": 0.3228346456692913
        },
        {
          "duration": 0.08529407500003572,
          "durationTicks": 116,
          "midi": 81,
          "name": "A5",
          "ticks": 450240,
          "time": 335.08978212500006,
          "velocity": 0.4015748031496063
        },
        {
          "duration": 0.08529407499997887,
          "durationTicks": 116,
          "midi": 77,
          "name": "F5",
          "ticks": 450360,
          "time": 335.1780173750001,
          "velocity": 0.30708661417322836
        },
        {
          "duration": 0.08529407499997887,
          "durationTicks": 116,
          "midi": 75,
          "name": "D#5",
          "ticks": 450480,
          "time": 335.2662526250001,
          "velocity": 0.29133858267716534
        },
        {
          "duration": 0.08529407499997887,
          "durationTicks": 116,
          "midi": 81,
          "name": "A5",
          "ticks": 450480,
          "time": 335.2662526250001,
          "velocity": 0.3700787401574803
        },
        {
          "duration": 0.08529407499997887,
          "durationTicks": 116,
          "midi": 77,
          "name": "F5",
          "ticks": 450600,
          "time": 335.3544878750001,
          "velocity": 0.2755905511811024
        },
        {
          "duration": 0.05588232499997048,
          "durationTicks": 76,
          "midi": 70,
          "name": "A#4",
          "ticks": 450720,
          "time": 335.4427231250001,
          "velocity": 0.2283464566929134
        },
        {
          "duration": 0.05588232499997048,
          "durationTicks": 76,
          "midi": 79,
          "name": "G5",
          "ticks": 450720,
          "time": 335.4427231250001,
          "velocity": 0.3700787401574803
        },
        {
          "duration": 0.05588232500002732,
          "durationTicks": 76,
          "midi": 69,
          "name": "A4",
          "ticks": 450840,
          "time": 335.53095837500007,
          "velocity": 0.23622047244094488
        },
        {
          "duration": 0.05588232499997048,
          "durationTicks": 76,
          "midi": 70,
          "name": "A#4",
          "ticks": 450960,
          "time": 335.6191936250001,
          "velocity": 0.25196850393700787
        },
        {
          "duration": 0.05588232500002732,
          "durationTicks": 76,
          "midi": 72,
          "name": "C5",
          "ticks": 451080,
          "time": 335.70742887500006,
          "velocity": 0.2677165354330709
        },
        {
          "duration": 0.05588232499997048,
          "durationTicks": 76,
          "midi": 70,
          "name": "A#4",
          "ticks": 451200,
          "time": 335.7956641250001,
          "velocity": 0.28346456692913385
        },
        {
          "duration": 0.05588232500002732,
          "durationTicks": 76,
          "midi": 72,
          "name": "C5",
          "ticks": 451320,
          "time": 335.88389937500006,
          "velocity": 0.29133858267716534
        },
        {
          "duration": 0.05588232499997048,
          "durationTicks": 76,
          "midi": 70,
          "name": "A#4",
          "ticks": 451440,
          "time": 335.9721346250001,
          "velocity": 0.30708661417322836
        },
        {
          "duration": 0.05588232499997048,
          "durationTicks": 76,
          "midi": 79,
          "name": "G5",
          "ticks": 451440,
          "time": 335.9721346250001,
          "velocity": 0.3779527559055118
        },
        {
          "duration": 0.05588232499997048,
          "durationTicks": 76,
          "midi": 72,
          "name": "C5",
          "ticks": 451560,
          "time": 336.0603698750001,
          "velocity": 0.31496062992125984
        },
        {
          "duration": 0.05588232500002732,
          "durationTicks": 76,
          "midi": 73,
          "name": "C#5",
          "ticks": 451680,
          "time": 336.1486051250001,
          "velocity": 0.33070866141732286
        },
        {
          "duration": 0.05588232499997048,
          "durationTicks": 76,
          "midi": 74,
          "name": "D5",
          "ticks": 451800,
          "time": 336.2368403750001,
          "velocity": 0.3464566929133858
        },
        {
          "duration": 0.05588232500002732,
          "durationTicks": 76,
          "midi": 73,
          "name": "C#5",
          "ticks": 451920,
          "time": 336.32507562500007,
          "velocity": 0.3543307086614173
        },
        {
          "duration": 0.05588232499997048,
          "durationTicks": 76,
          "midi": 74,
          "name": "D5",
          "ticks": 452040,
          "time": 336.4133108750001,
          "velocity": 0.3700787401574803
        },
        {
          "duration": 0.08529407500003572,
          "durationTicks": 116,
          "midi": 73,
          "name": "C#5",
          "ticks": 452160,
          "time": 336.50154612500006,
          "velocity": 0.3858267716535433
        },
        {
          "duration": 0.08529407500003572,
          "durationTicks": 116,
          "midi": 78,
          "name": "F#5",
          "ticks": 452160,
          "time": 336.50154612500006,
          "velocity": 0.4566929133858268
        },
        {
          "duration": 0.08529407499997887,
          "durationTicks": 116,
          "midi": 74,
          "name": "D5",
          "ticks": 452280,
          "time": 336.5897813750001,
          "velocity": 0.36220472440944884
        },
        {
          "duration": 0.08529407500003572,
          "durationTicks": 116,
          "midi": 75,
          "name": "D#5",
          "ticks": 452400,
          "time": 336.67801662500005,
          "velocity": 0.33070866141732286
        },
        {
          "duration": 0.08529407499997887,
          "durationTicks": 116,
          "midi": 74,
          "name": "D5",
          "ticks": 452520,
          "time": 336.7662518750001,
          "velocity": 0.31496062992125984
        },
        {
          "duration": 0.08529407499997887,
          "durationTicks": 116,
          "midi": 72,
          "name": "C5",
          "ticks": 452640,
          "time": 336.8544871250001,
          "velocity": 0.28346456692913385
        },
        {
          "duration": 0.08529407499997887,
          "durationTicks": 116,
          "midi": 74,
          "name": "D5",
          "ticks": 452760,
          "time": 336.9427223750001,
          "velocity": 0.25984251968503935
        },
        {
          "duration": 0.08529407499997887,
          "durationTicks": 116,
          "midi": 73,
          "name": "C#5",
          "ticks": 452880,
          "time": 337.0309576250001,
          "velocity": 0.2440944881889764
        },
        {
          "duration": 0.08529407500003572,
          "durationTicks": 116,
          "midi": 74,
          "name": "D5",
          "ticks": 453000,
          "time": 337.11919287500007,
          "velocity": 0.2992125984251969
        },
        {
          "duration": 0.08529407499997887,
          "durationTicks": 116,
          "midi": 74,
          "name": "D5",
          "ticks": 453120,
          "time": 337.2074281250001,
          "velocity": 0.28346456692913385
        },
        {
          "duration": 0.08529407499997887,
          "durationTicks": 116,
          "midi": 78,
          "name": "F#5",
          "ticks": 453120,
          "time": 337.2074281250001,
          "velocity": 0.3543307086614173
        },
        {
          "duration": 0.08529407500003572,
          "durationTicks": 116,
          "midi": 74,
          "name": "D5",
          "ticks": 453240,
          "time": 337.29566337500006,
          "velocity": 0.2755905511811024
        },
        {
          "duration": 0.08529407499997887,
          "durationTicks": 116,
          "midi": 72,
          "name": "C5",
          "ticks": 453360,
          "time": 337.3838986250001,
          "velocity": 0.25984251968503935
        },
        {
          "duration": 0.08529407499997887,
          "durationTicks": 116,
          "midi": 78,
          "name": "F#5",
          "ticks": 453360,
          "time": 337.3838986250001,
          "velocity": 0.33070866141732286
        },
        {
          "duration": 0.08529407500003572,
          "durationTicks": 116,
          "midi": 74,
          "name": "D5",
          "ticks": 453480,
          "time": 337.47213387500005,
          "velocity": 0.2440944881889764
        },
        {
          "duration": 0.2911763249999808,
          "durationTicks": 396,
          "midi": 67,
          "name": "G4",
          "ticks": 453600,
          "time": 337.5603691250001,
          "velocity": 0.31496062992125984
        },
        {
          "duration": 0.2911763249999808,
          "durationTicks": 396,
          "midi": 75,
          "name": "D#5",
          "ticks": 453600,
          "time": 337.5603691250001,
          "velocity": 0.31496062992125984
        },
        {
          "duration": 0.2911763249999808,
          "durationTicks": 396,
          "midi": 79,
          "name": "G5",
          "ticks": 453600,
          "time": 337.5603691250001,
          "velocity": 0.4330708661417323
        },
        {
          "duration": 0.08529407500003572,
          "durationTicks": 116,
          "midi": 79,
          "name": "G5",
          "ticks": 454080,
          "time": 337.91331012500007,
          "velocity": 0.4330708661417323
        },
        {
          "duration": 0.29117632500003765,
          "durationTicks": 396,
          "midi": 70,
          "name": "A#4",
          "ticks": 454320,
          "time": 338.08978062500006,
          "velocity": 0.31496062992125984
        },
        {
          "duration": 0.29117632500003765,
          "durationTicks": 396,
          "midi": 78,
          "name": "F#5",
          "ticks": 454320,
          "time": 338.08978062500006,
          "velocity": 0.31496062992125984
        },
        {
          "duration": 0.29117632500003765,
          "durationTicks": 396,
          "midi": 82,
          "name": "A#5",
          "ticks": 454320,
          "time": 338.08978062500006,
          "velocity": 0.4330708661417323
        },
        {
          "duration": 0.11470582499998727,
          "durationTicks": 156,
          "midi": 75,
          "name": "D#5",
          "ticks": 454800,
          "time": 338.4427216250001,
          "velocity": 0.31496062992125984
        },
        {
          "duration": 0.11470582499998727,
          "durationTicks": 156,
          "midi": 87,
          "name": "D#6",
          "ticks": 454800,
          "time": 338.4427216250001,
          "velocity": 0.4330708661417323
        },
        {
          "duration": 0.17352932500000406,
          "durationTicks": 236,
          "midi": 75,
          "name": "D#5",
          "ticks": 455040,
          "time": 338.6191921250001,
          "velocity": 0.3543307086614173
        },
        {
          "duration": 0.17352932500000406,
          "durationTicks": 236,
          "midi": 81,
          "name": "A5",
          "ticks": 455040,
          "time": 338.6191921250001,
          "velocity": 0.3543307086614173
        },
        {
          "duration": 0.17352932500000406,
          "durationTicks": 236,
          "midi": 87,
          "name": "D#6",
          "ticks": 455040,
          "time": 338.6191921250001,
          "velocity": 0.4330708661417323
        },
        {
          "duration": 0.08529407499997887,
          "durationTicks": 116,
          "midi": 58,
          "name": "A#3",
          "ticks": 455760,
          "time": 339.1486036250001,
          "velocity": 0.31496062992125984
        },
        {
          "duration": 0.08529407499997887,
          "durationTicks": 116,
          "midi": 66,
          "name": "F#4",
          "ticks": 455760,
          "time": 339.1486036250001,
          "velocity": 0.5118110236220472
        },
        {
          "duration": 0.08529407499997887,
          "durationTicks": 116,
          "midi": 58,
          "name": "A#3",
          "ticks": 456000,
          "time": 339.32507412500007,
          "velocity": 0.28346456692913385
        },
        {
          "duration": 0.08529407499997887,
          "durationTicks": 116,
          "midi": 66,
          "name": "F#4",
          "ticks": 456000,
          "time": 339.32507412500007,
          "velocity": 0.3858267716535433
        },
        {
          "duration": 0.08529407500003572,
          "durationTicks": 116,
          "midi": 58,
          "name": "A#3",
          "ticks": 456240,
          "time": 339.50154462500007,
          "velocity": 0.23622047244094488
        },
        {
          "duration": 0.08529407500003572,
          "durationTicks": 116,
          "midi": 66,
          "name": "F#4",
          "ticks": 456240,
          "time": 339.50154462500007,
          "velocity": 0.3228346456692913
        },
        {
          "duration": 0.08529407500003572,
          "durationTicks": 116,
          "midi": 65,
          "name": "F4",
          "ticks": 456480,
          "time": 339.67801512500006,
          "velocity": 0.3464566929133858
        },
        {
          "duration": 0.08529407499997887,
          "durationTicks": 116,
          "midi": 67,
          "name": "G4",
          "ticks": 456600,
          "time": 339.7662503750001,
          "velocity": 0.28346456692913385
        },
        {
          "duration": 0.08529407500003572,
          "durationTicks": 116,
          "midi": 69,
          "name": "A4",
          "ticks": 456720,
          "time": 339.85448562500005,
          "velocity": 0.2992125984251969
        },
        {
          "duration": 0.08529407499997887,
          "durationTicks": 116,
          "midi": 70,
          "name": "A#4",
          "ticks": 456840,
          "time": 339.9427208750001,
          "velocity": 0.31496062992125984
        },
        {
          "duration": 0.08529407499997887,
          "durationTicks": 116,
          "midi": 72,
          "name": "C5",
          "ticks": 456960,
          "time": 340.0309561250001,
          "velocity": 0.33070866141732286
        },
        {
          "duration": 0.08529407500003572,
          "durationTicks": 116,
          "midi": 74,
          "name": "D5",
          "ticks": 457080,
          "time": 340.11919137500007,
          "velocity": 0.3464566929133858
        },
        {
          "duration": 0.08529407499997887,
          "durationTicks": 116,
          "midi": 75,
          "name": "D#5",
          "ticks": 457200,
          "time": 340.2074266250001,
          "velocity": 0.36220472440944884
        },
        {
          "duration": 0.08529407500003572,
          "durationTicks": 116,
          "midi": 74,
          "name": "D5",
          "ticks": 457320,
          "time": 340.29566187500006,
          "velocity": 0.3779527559055118
        },
        {
          "duration": 0.08529407499997887,
          "durationTicks": 116,
          "midi": 75,
          "name": "D#5",
          "ticks": 457440,
          "time": 340.3838971250001,
          "velocity": 0.3937007874015748
        },
        {
          "duration": 0.08529407500003572,
          "durationTicks": 116,
          "midi": 74,
          "name": "D5",
          "ticks": 457560,
          "time": 340.47213237500006,
          "velocity": 0.4094488188976378
        },
        {
          "duration": 0.08529407499997887,
          "durationTicks": 116,
          "midi": 75,
          "name": "D#5",
          "ticks": 457680,
          "time": 340.5603676250001,
          "velocity": 0.3858267716535433
        },
        {
          "duration": 0.08529407500003572,
          "durationTicks": 116,
          "midi": 74,
          "name": "D5",
          "ticks": 457800,
          "time": 340.64860287500005,
          "velocity": 0.31496062992125984
        },
        {
          "duration": 0.17352932500000406,
          "durationTicks": 236,
          "midi": 69,
          "name": "A4",
          "ticks": 457920,
          "time": 340.7368381250001,
          "velocity": 0.2755905511811024
        },
        {
          "duration": 0.17352932500000406,
          "durationTicks": 236,
          "midi": 75,
          "name": "D#5",
          "ticks": 457920,
          "time": 340.7368381250001,
          "velocity": 0.3543307086614173
        },
        {
          "duration": 0.08529407500003572,
          "durationTicks": 116,
          "midi": 70,
          "name": "A#4",
          "ticks": 458640,
          "time": 341.26624962500006,
          "velocity": 0.30708661417322836
        },
        {
          "duration": 0.08529407500003572,
          "durationTicks": 116,
          "midi": 78,
          "name": "F#5",
          "ticks": 458640,
          "time": 341.26624962500006,
          "velocity": 0.4330708661417323
        },
        {
          "duration": 0.08529407500003572,
          "durationTicks": 116,
          "midi": 70,
          "name": "A#4",
          "ticks": 458880,
          "time": 341.44272012500005,
          "velocity": 0.28346456692913385
        },
        {
          "duration": 0.08529407500003572,
          "durationTicks": 116,
          "midi": 78,
          "name": "F#5",
          "ticks": 458880,
          "time": 341.44272012500005,
          "velocity": 0.3858267716535433
        },
        {
          "duration": 0.08529407499997887,
          "durationTicks": 116,
          "midi": 70,
          "name": "A#4",
          "ticks": 459120,
          "time": 341.6191906250001,
          "velocity": 0.23622047244094488
        },
        {
          "duration": 0.08529407499997887,
          "durationTicks": 116,
          "midi": 78,
          "name": "F#5",
          "ticks": 459120,
          "time": 341.6191906250001,
          "velocity": 0.3228346456692913
        },
        {
          "duration": 0.08529407499997887,
          "durationTicks": 116,
          "midi": 77,
          "name": "F5",
          "ticks": 459360,
          "time": 341.7956611250001,
          "velocity": 0.3464566929133858
        },
        {
          "duration": 0.08529407500003572,
          "durationTicks": 116,
          "midi": 79,
          "name": "G5",
          "ticks": 459480,
          "time": 341.88389637500006,
          "velocity": 0.28346456692913385
        },
        {
          "duration": 0.08529407499997887,
          "durationTicks": 116,
          "midi": 81,
          "name": "A5",
          "ticks": 459600,
          "time": 341.9721316250001,
          "velocity": 0.2992125984251969
        },
        {
          "duration": 0.08529407500003572,
          "durationTicks": 116,
          "midi": 82,
          "name": "A#5",
          "ticks": 459720,
          "time": 342.06036687500006,
          "velocity": 0.31496062992125984
        },
        {
          "duration": 0.08529407499997887,
          "durationTicks": 116,
          "midi": 84,
          "name": "C6",
          "ticks": 459840,
          "time": 342.1486021250001,
          "velocity": 0.33070866141732286
        },
        {
          "duration": 0.08529407500003572,
          "durationTicks": 116,
          "midi": 86,
          "name": "D6",
          "ticks": 459960,
          "time": 342.23683737500005,
          "velocity": 0.3464566929133858
        },
        {
          "duration": 0.09062499999998863,
          "durationTicks": 116,
          "midi": 87,
          "name": "D#6",
          "ticks": 460080,
          "time": 342.3250726250001,
          "velocity": 0.36220472440944884
        },
        {
          "duration": 0.09062499999998863,
          "durationTicks": 116,
          "midi": 86,
          "name": "D6",
          "ticks": 460200,
          "time": 342.4188226250001,
          "velocity": 0.3779527559055118
        },
        {
          "duration": 0.09062499999998863,
          "durationTicks": 116,
          "midi": 87,
          "name": "D#6",
          "ticks": 460320,
          "time": 342.5125726250001,
          "velocity": 0.3937007874015748
        },
        {
          "duration": 0.09062499999998863,
          "durationTicks": 116,
          "midi": 86,
          "name": "D6",
          "ticks": 460440,
          "time": 342.6063226250001,
          "velocity": 0.4094488188976378
        },
        {
          "duration": 0.09062499999998863,
          "durationTicks": 116,
          "midi": 87,
          "name": "D#6",
          "ticks": 460560,
          "time": 342.7000726250001,
          "velocity": 0.4251968503937008
        },
        {
          "duration": 0.09062499999998863,
          "durationTicks": 116,
          "midi": 86,
          "name": "D6",
          "ticks": 460680,
          "time": 342.7938226250001,
          "velocity": 0.3543307086614173
        },
        {
          "duration": 0.919229850000022,
          "durationTicks": 956,
          "midi": 75,
          "name": "D#5",
          "ticks": 460800,
          "time": 342.8875726250001,
          "velocity": 0.31496062992125984
        },
        {
          "duration": 0.919229850000022,
          "durationTicks": 956,
          "midi": 81,
          "name": "A5",
          "ticks": 460800,
          "time": 342.8875726250001,
          "velocity": 0.31496062992125984
        },
        {
          "duration": 0.919229850000022,
          "durationTicks": 956,
          "midi": 87,
          "name": "D#6",
          "ticks": 460800,
          "time": 342.8875726250001,
          "velocity": 0.4330708661417323
        },
        {
          "duration": 1.8423058500000025,
          "durationTicks": 1916,
          "midi": 75,
          "name": "D#5",
          "ticks": 462240,
          "time": 344.2721866250001,
          "velocity": 0.2755905511811024
        },
        {
          "duration": 1.8423058500000025,
          "durationTicks": 1916,
          "midi": 81,
          "name": "A5",
          "ticks": 462240,
          "time": 344.2721866250001,
          "velocity": 0.2755905511811024
        },
        {
          "duration": 1.8423058500000025,
          "durationTicks": 1916,
          "midi": 84,
          "name": "C6",
          "ticks": 462240,
          "time": 344.2721866250001,
          "velocity": 0.2755905511811024
        },
        {
          "duration": 1.8423058500000025,
          "durationTicks": 1916,
          "midi": 87,
          "name": "D#6",
          "ticks": 462240,
          "time": 344.2721866250001,
          "velocity": 0.3543307086614173
        },
        {
          "duration": 2.2958333333333485,
          "durationTicks": 1916,
          "midi": 69,
          "name": "A4",
          "ticks": 465120,
          "time": 347.2491076250001,
          "velocity": 0.2204724409448819
        },
        {
          "duration": 2.2958333333333485,
          "durationTicks": 1916,
          "midi": 72,
          "name": "C5",
          "ticks": 465120,
          "time": 347.2491076250001,
          "velocity": 0.2204724409448819
        },
        {
          "duration": 2.2958333333333485,
          "durationTicks": 1916,
          "midi": 75,
          "name": "D#5",
          "ticks": 465120,
          "time": 347.2491076250001,
          "velocity": 0.28346456692913385
        },
        {
          "duration": 0.08055547499998283,
          "durationTicks": 116,
          "midi": 70,
          "name": "A#4",
          "ticks": 469440,
          "time": 352.69910862500006,
          "velocity": 0.3464566929133858
        },
        {
          "duration": 0.16388872499999252,
          "durationTicks": 236,
          "midi": 74,
          "name": "D5",
          "ticks": 469920,
          "time": 353.03244162500005,
          "velocity": 0.3464566929133858
        },
        {
          "duration": 0.08055547499998283,
          "durationTicks": 116,
          "midi": 77,
          "name": "F5",
          "ticks": 470160,
          "time": 353.19910812500007,
          "velocity": 0.3464566929133858
        },
        {
          "duration": 0.16388872499999252,
          "durationTicks": 236,
          "midi": 82,
          "name": "A#5",
          "ticks": 470640,
          "time": 353.53244112500005,
          "velocity": 0.4251968503937008
        },
        {
          "duration": 0.6638882249999938,
          "durationTicks": 956,
          "midi": 77,
          "name": "F5",
          "ticks": 470880,
          "time": 353.69910762500007,
          "velocity": 0.2677165354330709
        },
        {
          "duration": 0.16388872499999252,
          "durationTicks": 236,
          "midi": 74,
          "name": "D5",
          "ticks": 471840,
          "time": 354.3657736250001,
          "velocity": 0.3464566929133858
        },
        {
          "duration": 0.16388872499999252,
          "durationTicks": 236,
          "midi": 70,
          "name": "A#4",
          "ticks": 472080,
          "time": 354.53244012500005,
          "velocity": 0.3464566929133858
        },
        {
          "duration": 0.08055547499998283,
          "durationTicks": 116,
          "midi": 72,
          "name": "C5",
          "ticks": 472320,
          "time": 354.69910662500007,
          "velocity": 0.2677165354330709
        },
        {
          "duration": 0.16388872499999252,
          "durationTicks": 236,
          "midi": 77,
          "name": "F5",
          "ticks": 472800,
          "time": 355.03243962500005,
          "velocity": 0.3464566929133858
        },
        {
          "duration": 0.08055547499998283,
          "durationTicks": 116,
          "midi": 70,
          "name": "A#4",
          "ticks": 473040,
          "time": 355.19910612500007,
          "velocity": 0.2677165354330709
        },
        {
          "duration": 0.16388872499999252,
          "durationTicks": 236,
          "midi": 77,
          "name": "F5",
          "ticks": 473520,
          "time": 355.53243912500005,
          "velocity": 0.3464566929133858
        },
        {
          "duration": 0.4972217249999744,
          "durationTicks": 716,
          "midi": 74,
          "name": "D5",
          "ticks": 473760,
          "time": 355.6991056250001,
          "velocity": 0.3464566929133858
        },
        {
          "duration": 0.16388872499999252,
          "durationTicks": 236,
          "midi": 72,
          "name": "C5",
          "ticks": 474480,
          "time": 356.1991051250001,
          "velocity": 0.30708661417322836
        },
        {
          "duration": 0.08055547499998283,
          "durationTicks": 116,
          "midi": 74,
          "name": "D5",
          "ticks": 475200,
          "time": 356.6991046250001,
          "velocity": 0.2755905511811024
        },
        {
          "duration": 0.16388872500004936,
          "durationTicks": 236,
          "midi": 69,
          "name": "A4",
          "ticks": 475440,
          "time": 356.86577112500004,
          "velocity": 0.2283464566929134
        },
        {
          "duration": 0.08055547499998283,
          "durationTicks": 116,
          "midi": 70,
          "name": "A#4",
          "ticks": 475680,
          "time": 357.03243762500006,
          "velocity": 0.2755905511811024
        },
        {
          "duration": 0.08055547499998283,
          "durationTicks": 116,
          "midi": 75,
          "name": "D#5",
          "ticks": 475920,
          "time": 357.1991041250001,
          "velocity": 0.30708661417322836
        },
        {
          "duration": 0.16388872500004936,
          "durationTicks": 236,
          "midi": 71,
          "name": "B4",
          "ticks": 476160,
          "time": 357.36577062500004,
          "velocity": 0.3543307086614173
        },
        {
          "duration": 0.08055547499998283,
          "durationTicks": 116,
          "midi": 72,
          "name": "C5",
          "ticks": 476400,
          "time": 357.53243712500006,
          "velocity": 0.4015748031496063
        },
        {
          "duration": 0.2472219750000022,
          "durationTicks": 356,
          "midi": 77,
          "name": "F5",
          "ticks": 476640,
          "time": 357.6991036250001,
          "velocity": 0.3858267716535433
        },
        {
          "duration": 0.052777724999998554,
          "durationTicks": 76,
          "midi": 79,
          "name": "G5",
          "ticks": 477120,
          "time": 358.03243662500006,
          "velocity": 0.4409448818897638
        },
        {
          "duration": 0.052777724999998554,
          "durationTicks": 76,
          "midi": 77,
          "name": "F5",
          "ticks": 477180,
          "time": 358.07410325000006,
          "velocity": 0.4566929133858268
        },
        {
          "duration": 0.052777724999998554,
          "durationTicks": 76,
          "midi": 76,
          "name": "E5",
          "ticks": 477240,
          "time": 358.11576987500007,
          "velocity": 0.4566929133858268
        },
        {
          "duration": 0.052777724999998554,
          "durationTicks": 76,
          "midi": 77,
          "name": "F5",
          "ticks": 477300,
          "time": 358.1574365000001,
          "velocity": 0.48031496062992124
        },
        {
          "duration": 0.3305552250000119,
          "durationTicks": 476,
          "midi": 82,
          "name": "A#5",
          "ticks": 477360,
          "time": 358.1991031250001,
          "velocity": 0.36220472440944884
        },
        {
          "duration": 0.052777724999998554,
          "durationTicks": 76,
          "midi": 74,
          "name": "D5",
          "ticks": 478080,
          "time": 358.6991026250001,
          "velocity": 0.4251968503937008
        },
        {
          "duration": 0.052777724999998554,
          "durationTicks": 76,
          "midi": 77,
          "name": "F5",
          "ticks": 478320,
          "time": 358.86576912500004,
          "velocity": 0.3464566929133858
        },
        {
          "duration": 0.052777724999998554,
          "durationTicks": 76,
          "midi": 70,
          "name": "A#4",
          "ticks": 478560,
          "time": 359.03243562500006,
          "velocity": 0.3464566929133858
        },
        {
          "duration": 0.052777724999998554,
          "durationTicks": 76,
          "midi": 75,
          "name": "D#5",
          "ticks": 478800,
          "time": 359.1991021250001,
          "velocity": 0.31496062992125984
        },
        {
          "duration": 0.16388872499999252,
          "durationTicks": 236,
          "midi": 69,
          "name": "A4",
          "ticks": 479280,
          "time": 359.53243512500006,
          "velocity": 0.3464566929133858
        },
        {
          "duration": 0.4972217249999744,
          "durationTicks": 716,
          "midi": 72,
          "name": "C5",
          "ticks": 479520,
          "time": 359.6991016250001,
          "velocity": 0.3464566929133858
        },
        {
          "duration": 0.2749997249999865,
          "durationTicks": 396,
          "midi": 70,
          "name": "A#4",
          "ticks": 480240,
          "time": 360.1991011250001,
          "velocity": 0.2677165354330709
        },
        {
          "duration": 0.052777724999998554,
          "durationTicks": 76,
          "midi": 81,
          "name": "A5",
          "ticks": 480960,
          "time": 360.6991006250001,
          "velocity": 0.3464566929133858
        },
        {
          "duration": 0.052777724999998554,
          "durationTicks": 76,
          "midi": 81,
          "name": "A5",
          "ticks": 481440,
          "time": 361.03243362500007,
          "velocity": 0.3937007874015748
        },
        {
          "duration": 0.052777724999998554,
          "durationTicks": 76,
          "midi": 81,
          "name": "A5",
          "ticks": 481680,
          "time": 361.1991001250001,
          "velocity": 0.4251968503937008
        },
        {
          "duration": 0.052777724999998554,
          "durationTicks": 76,
          "midi": 81,
          "name": "A5",
          "ticks": 482160,
          "time": 361.53243312500007,
          "velocity": 0.47244094488188976
        },
        {
          "duration": 0.08055547499998283,
          "durationTicks": 116,
          "midi": 84,
          "name": "C6",
          "ticks": 482400,
          "time": 361.6990996250001,
          "velocity": 0.5039370078740157
        },
        {
          "duration": 0.5805549750000409,
          "durationTicks": 836,
          "midi": 82,
          "name": "A#5",
          "ticks": 482520,
          "time": 361.78243287500004,
          "velocity": 0.4409448818897638
        },
        {
          "duration": 0.16388872499999252,
          "durationTicks": 236,
          "midi": 81,
          "name": "A5",
          "ticks": 483360,
          "time": 362.36576562500005,
          "velocity": 0.4251968503937008
        },
        {
          "duration": 0.16388872499999252,
          "durationTicks": 236,
          "midi": 79,
          "name": "G5",
          "ticks": 483600,
          "time": 362.53243212500007,
          "velocity": 0.3464566929133858
        },
        {
          "duration": 0.052777724999998554,
          "durationTicks": 76,
          "midi": 77,
          "name": "F5",
          "ticks": 483840,
          "time": 362.6990986250001,
          "velocity": 0.3464566929133858
        },
        {
          "duration": 0.052777724999998554,
          "durationTicks": 76,
          "midi": 78,
          "name": "F#5",
          "ticks": 484080,
          "time": 362.86576512500005,
          "velocity": 0.3543307086614173
        },
        {
          "duration": 0.052777724999998554,
          "durationTicks": 76,
          "midi": 79,
          "name": "G5",
          "ticks": 484320,
          "time": 363.0324316250001,
          "velocity": 0.3700787401574803
        },
        {
          "duration": 0.052777724999998554,
          "durationTicks": 76,
          "midi": 72,
          "name": "C5",
          "ticks": 484560,
          "time": 363.1990981250001,
          "velocity": 0.3858267716535433
        },
        {
          "duration": 0.052777724999998554,
          "durationTicks": 76,
          "midi": 77,
          "name": "F5",
          "ticks": 484800,
          "time": 363.36576462500005,
          "velocity": 0.4015748031496063
        },
        {
          "duration": 0.052777724999998554,
          "durationTicks": 76,
          "midi": 72,
          "name": "C5",
          "ticks": 485040,
          "time": 363.5324311250001,
          "velocity": 0.41732283464566927
        },
        {
          "duration": 0.49722172500003126,
          "durationTicks": 716,
          "midi": 75,
          "name": "D#5",
          "ticks": 485280,
          "time": 363.69909762500004,
          "velocity": 0.3937007874015748
        },
        {
          "duration": 0.10833322500002396,
          "durationTicks": 156,
          "midi": 74,
          "name": "D5",
          "ticks": 486000,
          "time": 364.19909712500004,
          "velocity": 0.30708661417322836
        },
        {
          "duration": 0.052777724999998554,
          "durationTicks": 76,
          "midi": 81,
          "name": "A5",
          "ticks": 486720,
          "time": 364.69909662500004,
          "velocity": 0.3779527559055118
        },
        {
          "duration": 0.052777724999998554,
          "durationTicks": 76,
          "midi": 81,
          "name": "A5",
          "ticks": 487200,
          "time": 365.0324296250001,
          "velocity": 0.44881889763779526
        },
        {
          "duration": 0.052777724999998554,
          "durationTicks": 76,
          "midi": 81,
          "name": "A5",
          "ticks": 487440,
          "time": 365.19909612500004,
          "velocity": 0.4881889763779528
        },
        {
          "duration": 0.052777724999998554,
          "durationTicks": 76,
          "midi": 81,
          "name": "A5",
          "ticks": 487920,
          "time": 365.5324291250001,
          "velocity": 0.5748031496062992
        },
        {
          "duration": 0.08055547500003968,
          "durationTicks": 116,
          "midi": 84,
          "name": "C6",
          "ticks": 488160,
          "time": 365.69909562500004,
          "velocity": 0.5433070866141733
        },
        {
          "duration": 0.5805549750000409,
          "durationTicks": 836,
          "midi": 82,
          "name": "A#5",
          "ticks": 488280,
          "time": 365.78242887500005,
          "velocity": 0.5511811023622047
        },
        {
          "duration": 0.052777724999998554,
          "durationTicks": 76,
          "midi": 84,
          "name": "C6",
          "ticks": 489120,
          "time": 366.36576162500006,
          "velocity": 0.5039370078740157
        },
        {
          "duration": 0.052777724999998554,
          "durationTicks": 76,
          "midi": 86,
          "name": "D6",
          "ticks": 489360,
          "time": 366.5324281250001,
          "velocity": 0.4251968503937008
        },
        {
          "duration": 0.08055547500003968,
          "durationTicks": 116,
          "midi": 74,
          "name": "D5",
          "ticks": 489600,
          "time": 366.69909462500004,
          "velocity": 0.3464566929133858
        },
        {
          "duration": 0.16388872499999252,
          "durationTicks": 236,
          "midi": 74,
          "name": "D5",
          "ticks": 490080,
          "time": 367.0324276250001,
          "velocity": 0.4251968503937008
        },
        {
          "duration": 0.3305552250000119,
          "durationTicks": 476,
          "midi": 82,
          "name": "A#5",
          "ticks": 490320,
          "time": 367.19909412500004,
          "velocity": 0.5039370078740157
        },
        {
          "duration": 0.16388872499999252,
          "durationTicks": 236,
          "midi": 76,
          "name": "E5",
          "ticks": 490800,
          "time": 367.5324271250001,
          "velocity": 0.4251968503937008
        },
        {
          "duration": 0.08055547500003968,
          "durationTicks": 116,
          "midi": 77,
          "name": "F5",
          "ticks": 491040,
          "time": 367.69909362500005,
          "velocity": 0.3464566929133858
        },
        {
          "duration": 0.052777724999998554,
          "durationTicks": 76,
          "midi": 79,
          "name": "G5",
          "ticks": 491280,
          "time": 367.86576012500007,
          "velocity": 0.3779527559055118
        },
        {
          "duration": 0.052777724999998554,
          "durationTicks": 76,
          "midi": 81,
          "name": "A5",
          "ticks": 491520,
          "time": 368.0324266250001,
          "velocity": 0.4094488188976378
        },
        {
          "duration": 0.052777724999998554,
          "durationTicks": 76,
          "midi": 82,
          "name": "A#5",
          "ticks": 491760,
          "time": 368.19909312500005,
          "velocity": 0.44881889763779526
        },
        {
          "duration": 0.052777724999998554,
          "durationTicks": 76,
          "midi": 83,
          "name": "B5",
          "ticks": 492000,
          "time": 368.36575962500007,
          "velocity": 0.48031496062992124
        },
        {
          "duration": 0.052777724999998554,
          "durationTicks": 76,
          "midi": 84,
          "name": "C6",
          "ticks": 492240,
          "time": 368.5324261250001,
          "velocity": 0.5196850393700787
        },
        {
          "duration": 0.052777724999998554,
          "durationTicks": 76,
          "midi": 84,
          "name": "C6",
          "ticks": 492240,
          "time": 368.5324261250001,
          "velocity": 0.4409448818897638
        },
        {
          "duration": 0.08055547500003968,
          "durationTicks": 116,
          "midi": 74,
          "name": "D5",
          "ticks": 492480,
          "time": 368.69909262500005,
          "velocity": 0.3464566929133858
        },
        {
          "duration": 0.16388872499999252,
          "durationTicks": 236,
          "midi": 74,
          "name": "D5",
          "ticks": 492960,
          "time": 369.0324256250001,
          "velocity": 0.4251968503937008
        },
        {
          "duration": 0.3305552250000119,
          "durationTicks": 476,
          "midi": 82,
          "name": "A#5",
          "ticks": 493200,
          "time": 369.19909212500005,
          "velocity": 0.3464566929133858
        },
        {
          "duration": 0.10833322499996711,
          "durationTicks": 156,
          "midi": 76,
          "name": "E5",
          "ticks": 493680,
          "time": 369.5324251250001,
          "velocity": 0.3464566929133858
        },
        {
          "duration": 0.10833322500002396,
          "durationTicks": 156,
          "midi": 77,
          "name": "F5",
          "ticks": 493920,
          "time": 369.69909162500005,
          "velocity": 0.29133858267716534
        },
        {
          "duration": 0.10833322500002396,
          "durationTicks": 156,
          "midi": 78,
          "name": "F#5",
          "ticks": 494040,
          "time": 369.78242487500006,
          "velocity": 0.31496062992125984
        },
        {
          "duration": 0.10833322500002396,
          "durationTicks": 156,
          "midi": 79,
          "name": "G5",
          "ticks": 494160,
          "time": 369.86575812500007,
          "velocity": 0.3543307086614173
        },
        {
          "duration": 0.10833322499996711,
          "durationTicks": 156,
          "midi": 80,
          "name": "G#5",
          "ticks": 494280,
          "time": 369.9490913750001,
          "velocity": 0.3858267716535433
        },
        {
          "duration": 0.10833322499996711,
          "durationTicks": 156,
          "midi": 81,
          "name": "A5",
          "ticks": 494400,
          "time": 370.0324246250001,
          "velocity": 0.4330708661417323
        },
        {
          "duration": 0.10833322500002396,
          "durationTicks": 156,
          "midi": 82,
          "name": "A#5",
          "ticks": 494520,
          "time": 370.11575787500004,
          "velocity": 0.47244094488188976
        },
        {
          "duration": 0.10833322500002396,
          "durationTicks": 156,
          "midi": 83,
          "name": "B5",
          "ticks": 494640,
          "time": 370.19909112500005,
          "velocity": 0.5196850393700787
        },
        {
          "duration": 0.10833322500002396,
          "durationTicks": 156,
          "midi": 84,
          "name": "C6",
          "ticks": 494760,
          "time": 370.28242437500006,
          "velocity": 0.5590551181102362
        },
        {
          "duration": 0.10833322499996711,
          "durationTicks": 156,
          "midi": 85,
          "name": "C#6",
          "ticks": 494880,
          "time": 370.3657576250001,
          "velocity": 0.5748031496062992
        },
        {
          "duration": 0.08055547499998283,
          "durationTicks": 116,
          "midi": 86,
          "name": "D6",
          "ticks": 495000,
          "time": 370.4490908750001,
          "velocity": 0.5511811023622047
        },
        {
          "duration": 0.08055547499998283,
          "durationTicks": 116,
          "midi": 88,
          "name": "E6",
          "ticks": 495120,
          "time": 370.5324241250001,
          "velocity": 0.5118110236220472
        },
        {
          "duration": 0.08055547500003968,
          "durationTicks": 116,
          "midi": 86,
          "name": "D6",
          "ticks": 495240,
          "time": 370.61575737500004,
          "velocity": 0.48031496062992124
        },
        {
          "duration": 0.08055547499998283,
          "durationTicks": 116,
          "midi": 74,
          "name": "D5",
          "ticks": 495360,
          "time": 370.69909062500005,
          "velocity": 0.3464566929133858
        },
        {
          "duration": 0.16388872499999252,
          "durationTicks": 236,
          "midi": 74,
          "name": "D5",
          "ticks": 495840,
          "time": 371.0324236250001,
          "velocity": 0.3464566929133858
        },
        {
          "duration": 0.3305552250000119,
          "durationTicks": 476,
          "midi": 82,
          "name": "A#5",
          "ticks": 496080,
          "time": 371.19909012500005,
          "velocity": 0.4251968503937008
        },
        {
          "duration": 0.16388872500004936,
          "durationTicks": 236,
          "midi": 76,
          "name": "E5",
          "ticks": 496560,
          "time": 371.53242312500004,
          "velocity": 0.3464566929133858
        },
        {
          "duration": 0.6638882249999938,
          "durationTicks": 956,
          "midi": 77,
          "name": "F5",
          "ticks": 496800,
          "time": 371.69908962500006,
          "velocity": 0.4645669291338583
        },
        {
          "duration": 0.16388872499999252,
          "durationTicks": 236,
          "midi": 79,
          "name": "G5",
          "ticks": 497760,
          "time": 372.3657556250001,
          "velocity": 0.41732283464566927
        },
        {
          "duration": 0.16388872500004936,
          "durationTicks": 236,
          "midi": 76,
          "name": "E5",
          "ticks": 498000,
          "time": 372.53242212500004,
          "velocity": 0.4409448818897638
        },
        {
          "duration": 0.16388872499999252,
          "durationTicks": 236,
          "midi": 77,
          "name": "F5",
          "ticks": 498240,
          "time": 372.69908862500006,
          "velocity": 0.44881889763779526
        },
        {
          "duration": 0.16388872499999252,
          "durationTicks": 236,
          "midi": 81,
          "name": "A5",
          "ticks": 498480,
          "time": 372.8657551250001,
          "velocity": 0.4645669291338583
        },
        {
          "duration": 0.16388872500004936,
          "durationTicks": 236,
          "midi": 76,
          "name": "E5",
          "ticks": 498720,
          "time": 373.03242162500004,
          "velocity": 0.47244094488188976
        },
        {
          "duration": 0.16388872499999252,
          "durationTicks": 236,
          "midi": 77,
          "name": "F5",
          "ticks": 498960,
          "time": 373.19908812500006,
          "velocity": 0.4881889763779528
        },
        {
          "duration": 0.16388872499999252,
          "durationTicks": 236,
          "midi": 84,
          "name": "C6",
          "ticks": 499200,
          "time": 373.3657546250001,
          "velocity": 0.4330708661417323
        },
        {
          "duration": 0.08055547500003968,
          "durationTicks": 116,
          "midi": 76,
          "name": "E5",
          "ticks": 499440,
          "time": 373.53242112500004,
          "velocity": 0.3779527559055118
        },
        {
          "duration": 0.6638882249999938,
          "durationTicks": 956,
          "midi": 77,
          "name": "F5",
          "ticks": 499680,
          "time": 373.69908762500006,
          "velocity": 0.33858267716535434
        },
        {
          "duration": 0.16388872499999252,
          "durationTicks": 236,
          "midi": 79,
          "name": "G5",
          "ticks": 500640,
          "time": 374.3657536250001,
          "velocity": 0.3779527559055118
        },
        {
          "duration": 0.16388872499999252,
          "durationTicks": 236,
          "midi": 73,
          "name": "C#5",
          "ticks": 500880,
          "time": 374.53242012500004,
          "velocity": 0.4015748031496063
        },
        {
          "duration": 0.16388872499999252,
          "durationTicks": 236,
          "midi": 74,
          "name": "D5",
          "ticks": 501120,
          "time": 374.69908662500006,
          "velocity": 0.44881889763779526
        },
        {
          "duration": 0.16388872499999252,
          "durationTicks": 236,
          "midi": 77,
          "name": "F5",
          "ticks": 501360,
          "time": 374.8657531250001,
          "velocity": 0.5039370078740157
        },
        {
          "duration": 0.16388872499999252,
          "durationTicks": 236,
          "midi": 71,
          "name": "B4",
          "ticks": 501600,
          "time": 375.03241962500005,
          "velocity": 0.5275590551181102
        },
        {
          "duration": 0.16388872499999252,
          "durationTicks": 236,
          "midi": 72,
          "name": "C5",
          "ticks": 501840,
          "time": 375.19908612500006,
          "velocity": 0.49606299212598426
        },
        {
          "duration": 0.16388872499999252,
          "durationTicks": 236,
          "midi": 75,
          "name": "D#5",
          "ticks": 502080,
          "time": 375.3657526250001,
          "velocity": 0.4409448818897638
        },
        {
          "duration": 0.16388872499999252,
          "durationTicks": 236,
          "midi": 69,
          "name": "A4",
          "ticks": 502320,
          "time": 375.53241912500005,
          "velocity": 0.3779527559055118
        },
        {
          "duration": 0.08055547499998283,
          "durationTicks": 116,
          "midi": 70,
          "name": "A#4",
          "ticks": 502560,
          "time": 375.69908562500007,
          "velocity": 0.3464566929133858
        },
        {
          "duration": 0.16388872499999252,
          "durationTicks": 236,
          "midi": 74,
          "name": "D5",
          "ticks": 503040,
          "time": 376.03241862500005,
          "velocity": 0.3464566929133858
        },
        {
          "duration": 0.08055547499998283,
          "durationTicks": 116,
          "midi": 77,
          "name": "F5",
          "ticks": 503280,
          "time": 376.19908512500007,
          "velocity": 0.3464566929133858
        },
        {
          "duration": 0.16388872499999252,
          "durationTicks": 236,
          "midi": 82,
          "name": "A#5",
          "ticks": 503760,
          "time": 376.53241812500005,
          "velocity": 0.4251968503937008
        },
        {
          "duration": 0.6638882249999938,
          "durationTicks": 956,
          "midi": 77,
          "name": "F5",
          "ticks": 504000,
          "time": 376.69908462500007,
          "velocity": 0.2677165354330709
        },
        {
          "duration": 0.16388872499999252,
          "durationTicks": 236,
          "midi": 74,
          "name": "D5",
          "ticks": 504960,
          "time": 377.3657506250001,
          "velocity": 0.3464566929133858
        },
        {
          "duration": 0.16388872499999252,
          "durationTicks": 236,
          "midi": 70,
          "name": "A#4",
          "ticks": 505200,
          "time": 377.53241712500005,
          "velocity": 0.3464566929133858
        },
        {
          "duration": 0.08055547499998283,
          "durationTicks": 116,
          "midi": 72,
          "name": "C5",
          "ticks": 505440,
          "time": 377.69908362500007,
          "velocity": 0.2677165354330709
        },
        {
          "duration": 0.16388872499999252,
          "durationTicks": 236,
          "midi": 77,
          "name": "F5",
          "ticks": 505920,
          "time": 378.03241662500005,
          "velocity": 0.3464566929133858
        },
        {
          "duration": 0.08055547499998283,
          "durationTicks": 116,
          "midi": 70,
          "name": "A#4",
          "ticks": 506160,
          "time": 378.1990831250001,
          "velocity": 0.2677165354330709
        },
        {
          "duration": 0.16388872499999252,
          "durationTicks": 236,
          "midi": 77,
          "name": "F5",
          "ticks": 506640,
          "time": 378.53241612500005,
          "velocity": 0.3464566929133858
        },
        {
          "duration": 0.4972217249999744,
          "durationTicks": 716,
          "midi": 74,
          "name": "D5",
          "ticks": 506880,
          "time": 378.6990826250001,
          "velocity": 0.3464566929133858
        },
        {
          "duration": 0.16388872499999252,
          "durationTicks": 236,
          "midi": 72,
          "name": "C5",
          "ticks": 507600,
          "time": 379.1990821250001,
          "velocity": 0.30708661417322836
        },
        {
          "duration": 0.08055547499998283,
          "durationTicks": 116,
          "midi": 74,
          "name": "D5",
          "ticks": 508320,
          "time": 379.6990816250001,
          "velocity": 0.36220472440944884
        },
        {
          "duration": 0.16388872500004936,
          "durationTicks": 236,
          "midi": 69,
          "name": "A4",
          "ticks": 508560,
          "time": 379.86574812500004,
          "velocity": 0.2992125984251969
        },
        {
          "duration": 0.08055547499998283,
          "durationTicks": 116,
          "midi": 70,
          "name": "A#4",
          "ticks": 508800,
          "time": 380.03241462500006,
          "velocity": 0.3228346456692913
        },
        {
          "duration": 0.08055547499998283,
          "durationTicks": 116,
          "midi": 75,
          "name": "D#5",
          "ticks": 509040,
          "time": 380.1990811250001,
          "velocity": 0.3464566929133858
        },
        {
          "duration": 0.16388872499999252,
          "durationTicks": 236,
          "midi": 71,
          "name": "B4",
          "ticks": 509280,
          "time": 380.36574762500004,
          "velocity": 0.3700787401574803
        },
        {
          "duration": 0.08055547499998283,
          "durationTicks": 116,
          "midi": 72,
          "name": "C5",
          "ticks": 509520,
          "time": 380.53241412500006,
          "velocity": 0.4015748031496063
        },
        {
          "duration": 0.2472219750000022,
          "durationTicks": 356,
          "midi": 77,
          "name": "F5",
          "ticks": 509760,
          "time": 380.6990806250001,
          "velocity": 0.4251968503937008
        },
        {
          "duration": 0.052777724999998554,
          "durationTicks": 76,
          "midi": 79,
          "name": "G5",
          "ticks": 510240,
          "time": 381.03241362500006,
          "velocity": 0.47244094488188976
        },
        {
          "duration": 0.052777724999998554,
          "durationTicks": 76,
          "midi": 77,
          "name": "F5",
          "ticks": 510300,
          "time": 381.07408025000007,
          "velocity": 0.48031496062992124
        },
        {
          "duration": 0.052777724999998554,
          "durationTicks": 76,
          "midi": 76,
          "name": "E5",
          "ticks": 510360,
          "time": 381.11574687500007,
          "velocity": 0.4645669291338583
        },
        {
          "duration": 0.052777724999998554,
          "durationTicks": 76,
          "midi": 77,
          "name": "F5",
          "ticks": 510420,
          "time": 381.1574135000001,
          "velocity": 0.44881889763779526
        },
        {
          "duration": 0.21944422499996108,
          "durationTicks": 316,
          "midi": 82,
          "name": "A#5",
          "ticks": 510480,
          "time": 381.1990801250001,
          "velocity": 0.3937007874015748
        },
        {
          "duration": 0.052777724999998554,
          "durationTicks": 76,
          "midi": 74,
          "name": "D5",
          "ticks": 511200,
          "time": 381.6990796250001,
          "velocity": 0.4251968503937008
        },
        {
          "duration": 0.052777724999998554,
          "durationTicks": 76,
          "midi": 77,
          "name": "F5",
          "ticks": 511440,
          "time": 381.86574612500004,
          "velocity": 0.3464566929133858
        },
        {
          "duration": 0.052777724999998554,
          "durationTicks": 76,
          "midi": 70,
          "name": "A#4",
          "ticks": 511680,
          "time": 382.03241262500006,
          "velocity": 0.3464566929133858
        },
        {
          "duration": 0.052777724999998554,
          "durationTicks": 76,
          "midi": 75,
          "name": "D#5",
          "ticks": 511920,
          "time": 382.1990791250001,
          "velocity": 0.31496062992125984
        },
        {
          "duration": 0.16388872499999252,
          "durationTicks": 236,
          "midi": 69,
          "name": "A4",
          "ticks": 512400,
          "time": 382.53241212500006,
          "velocity": 0.3464566929133858
        },
        {
          "duration": 0.4972217249999744,
          "durationTicks": 716,
          "midi": 72,
          "name": "C5",
          "ticks": 512640,
          "time": 382.6990786250001,
          "velocity": 0.3464566929133858
        },
        {
          "duration": 0.16388872499999252,
          "durationTicks": 236,
          "midi": 70,
          "name": "A#4",
          "ticks": 513360,
          "time": 383.1990781250001,
          "velocity": 0.2677165354330709
        },
        {
          "duration": 0.08055547499998283,
          "durationTicks": 116,
          "midi": 82,
          "name": "A#5",
          "ticks": 541560,
          "time": 402.7823918750001,
          "velocity": 0.5984251968503937
        },
        {
          "duration": 0.08055547500003968,
          "durationTicks": 116,
          "midi": 81,
          "name": "A5",
          "ticks": 541680,
          "time": 402.86572512500004,
          "velocity": 0.5905511811023622
        },
        {
          "duration": 0.08055547500003968,
          "durationTicks": 116,
          "midi": 82,
          "name": "A#5",
          "ticks": 541800,
          "time": 402.94905837500005,
          "velocity": 0.5826771653543307
        },
        {
          "duration": 0.08055547499998283,
          "durationTicks": 116,
          "midi": 86,
          "name": "D6",
          "ticks": 541920,
          "time": 403.03239162500006,
          "velocity": 0.5748031496062992
        },
        {
          "duration": 0.08055547499998283,
          "durationTicks": 116,
          "midi": 82,
          "name": "A#5",
          "ticks": 542040,
          "time": 403.11572487500007,
          "velocity": 0.5669291338582677
        },
        {
          "duration": 0.08055547499998283,
          "durationTicks": 116,
          "midi": 81,
          "name": "A5",
          "ticks": 542160,
          "time": 403.1990581250001,
          "velocity": 0.5590551181102362
        },
        {
          "duration": 0.08055547499998283,
          "durationTicks": 116,
          "midi": 84,
          "name": "C6",
          "ticks": 542280,
          "time": 403.2823913750001,
          "velocity": 0.5511811023622047
        },
        {
          "duration": 0.08055547500003968,
          "durationTicks": 116,
          "midi": 89,
          "name": "F6",
          "ticks": 542400,
          "time": 403.36572462500004,
          "velocity": 0.5433070866141733
        },
        {
          "duration": 0.08055547500003968,
          "durationTicks": 116,
          "midi": 84,
          "name": "C6",
          "ticks": 542520,
          "time": 403.44905787500005,
          "velocity": 0.5354330708661418
        },
        {
          "duration": 0.08055547499998283,
          "durationTicks": 116,
          "midi": 81,
          "name": "A5",
          "ticks": 542640,
          "time": 403.53239112500006,
          "velocity": 0.5275590551181102
        },
        {
          "duration": 0.08055547499998283,
          "durationTicks": 116,
          "midi": 84,
          "name": "C6",
          "ticks": 542760,
          "time": 403.61572437500007,
          "velocity": 0.5196850393700787
        },
        {
          "duration": 0.08055547500003968,
          "durationTicks": 116,
          "midi": 82,
          "name": "A#5",
          "ticks": 543000,
          "time": 403.78239087500003,
          "velocity": 0.4251968503937008
        },
        {
          "duration": 0.08055547500003968,
          "durationTicks": 116,
          "midi": 81,
          "name": "A5",
          "ticks": 543120,
          "time": 403.86572412500004,
          "velocity": 0.4566929133858268
        },
        {
          "duration": 0.08055547499998283,
          "durationTicks": 116,
          "midi": 82,
          "name": "A#5",
          "ticks": 543240,
          "time": 403.94905737500005,
          "velocity": 0.4881889763779528
        },
        {
          "duration": 0.08055547499998283,
          "durationTicks": 116,
          "midi": 86,
          "name": "D6",
          "ticks": 543360,
          "time": 404.03239062500006,
          "velocity": 0.5275590551181102
        },
        {
          "duration": 0.08055547499998283,
          "durationTicks": 116,
          "midi": 82,
          "name": "A#5",
          "ticks": 543480,
          "time": 404.11572387500007,
          "velocity": 0.5118110236220472
        },
        {
          "duration": 0.08055547499998283,
          "durationTicks": 116,
          "midi": 81,
          "name": "A5",
          "ticks": 543600,
          "time": 404.1990571250001,
          "velocity": 0.5118110236220472
        },
        {
          "duration": 0.08055547499998283,
          "durationTicks": 116,
          "midi": 84,
          "name": "C6",
          "ticks": 543720,
          "time": 404.2823903750001,
          "velocity": 0.5039370078740157
        },
        {
          "duration": 0.08055547500003968,
          "durationTicks": 116,
          "midi": 89,
          "name": "F6",
          "ticks": 543840,
          "time": 404.36572362500004,
          "velocity": 0.5039370078740157
        },
        {
          "duration": 0.08055547500003968,
          "durationTicks": 116,
          "midi": 84,
          "name": "C6",
          "ticks": 543960,
          "time": 404.44905687500005,
          "velocity": 0.49606299212598426
        },
        {
          "duration": 0.08055547499998283,
          "durationTicks": 116,
          "midi": 81,
          "name": "A5",
          "ticks": 544080,
          "time": 404.53239012500006,
          "velocity": 0.49606299212598426
        },
        {
          "duration": 0.08055547499998283,
          "durationTicks": 116,
          "midi": 84,
          "name": "C6",
          "ticks": 544200,
          "time": 404.6157233750001,
          "velocity": 0.4881889763779528
        },
        {
          "duration": 0.08055547500003968,
          "durationTicks": 116,
          "midi": 82,
          "name": "A#5",
          "ticks": 544440,
          "time": 404.78238987500004,
          "velocity": 0.47244094488188976
        },
        {
          "duration": 0.08055547500003968,
          "durationTicks": 116,
          "midi": 81,
          "name": "A5",
          "ticks": 544560,
          "time": 404.86572312500005,
          "velocity": 0.48031496062992124
        },
        {
          "duration": 0.08055547499998283,
          "durationTicks": 116,
          "midi": 82,
          "name": "A#5",
          "ticks": 544680,
          "time": 404.94905637500005,
          "velocity": 0.49606299212598426
        },
        {
          "duration": 0.08055547499998283,
          "durationTicks": 116,
          "midi": 84,
          "name": "C6",
          "ticks": 544800,
          "time": 405.03238962500006,
          "velocity": 0.5039370078740157
        },
        {
          "duration": 0.08055547499998283,
          "durationTicks": 116,
          "midi": 82,
          "name": "A#5",
          "ticks": 544920,
          "time": 405.1157228750001,
          "velocity": 0.5196850393700787
        },
        {
          "duration": 0.08055547499998283,
          "durationTicks": 116,
          "midi": 86,
          "name": "D6",
          "ticks": 545040,
          "time": 405.1990561250001,
          "velocity": 0.5354330708661418
        },
        {
          "duration": 0.08055547499998283,
          "durationTicks": 116,
          "midi": 82,
          "name": "A#5",
          "ticks": 545160,
          "time": 405.2823893750001,
          "velocity": 0.5354330708661418
        },
        {
          "duration": 0.08055547500003968,
          "durationTicks": 116,
          "midi": 87,
          "name": "D#6",
          "ticks": 545280,
          "time": 405.36572262500005,
          "velocity": 0.5590551181102362
        },
        {
          "duration": 0.08055547500003968,
          "durationTicks": 116,
          "midi": 82,
          "name": "A#5",
          "ticks": 545400,
          "time": 405.44905587500006,
          "velocity": 0.5590551181102362
        },
        {
          "duration": 0.08055547499998283,
          "durationTicks": 116,
          "midi": 89,
          "name": "F6",
          "ticks": 545520,
          "time": 405.53238912500007,
          "velocity": 0.5748031496062992
        },
        {
          "duration": 0.08055547499998283,
          "durationTicks": 116,
          "midi": 81,
          "name": "A5",
          "ticks": 545640,
          "time": 405.6157223750001,
          "velocity": 0.5826771653543307
        },
        {
          "duration": 0.08055547499998283,
          "durationTicks": 116,
          "midi": 79,
          "name": "G5",
          "ticks": 545760,
          "time": 405.6990556250001,
          "velocity": 0.5433070866141733
        },
        {
          "duration": 0.08055547500003968,
          "durationTicks": 116,
          "midi": 87,
          "name": "D#6",
          "ticks": 545880,
          "time": 405.78238887500004,
          "velocity": 0.5275590551181102
        },
        {
          "duration": 0.08055547500003968,
          "durationTicks": 116,
          "midi": 81,
          "name": "A5",
          "ticks": 546000,
          "time": 405.86572212500005,
          "velocity": 0.5118110236220472
        },
        {
          "duration": 0.08055547499998283,
          "durationTicks": 116,
          "midi": 87,
          "name": "D#6",
          "ticks": 546120,
          "time": 405.94905537500006,
          "velocity": 0.49606299212598426
        },
        {
          "duration": 0.08055547499998283,
          "durationTicks": 116,
          "midi": 79,
          "name": "G5",
          "ticks": 546240,
          "time": 406.03238862500007,
          "velocity": 0.48031496062992124
        },
        {
          "duration": 0.08055547499998283,
          "durationTicks": 116,
          "midi": 87,
          "name": "D#6",
          "ticks": 546360,
          "time": 406.1157218750001,
          "velocity": 0.4645669291338583
        },
        {
          "duration": 0.08055547499998283,
          "durationTicks": 116,
          "midi": 77,
          "name": "F5",
          "ticks": 546480,
          "time": 406.1990551250001,
          "velocity": 0.4645669291338583
        },
        {
          "duration": 0.08055547500003968,
          "durationTicks": 116,
          "midi": 86,
          "name": "D6",
          "ticks": 546600,
          "time": 406.28238837500004,
          "velocity": 0.4645669291338583
        },
        {
          "duration": 0.08055547500003968,
          "durationTicks": 116,
          "midi": 79,
          "name": "G5",
          "ticks": 546720,
          "time": 406.36572162500005,
          "velocity": 0.4645669291338583
        },
        {
          "duration": 0.08055547499998283,
          "durationTicks": 116,
          "midi": 86,
          "name": "D6",
          "ticks": 546840,
          "time": 406.44905487500006,
          "velocity": 0.4645669291338583
        },
        {
          "duration": 0.08055547499998283,
          "durationTicks": 116,
          "midi": 77,
          "name": "F5",
          "ticks": 546960,
          "time": 406.53238812500007,
          "velocity": 0.4645669291338583
        },
        {
          "duration": 0.08055547499998283,
          "durationTicks": 116,
          "midi": 86,
          "name": "D6",
          "ticks": 547080,
          "time": 406.6157213750001,
          "velocity": 0.4645669291338583
        },
        {
          "duration": 0.08055547499998283,
          "durationTicks": 116,
          "midi": 75,
          "name": "D#5",
          "ticks": 547200,
          "time": 406.6990546250001,
          "velocity": 0.4645669291338583
        },
        {
          "duration": 0.08055547500003968,
          "durationTicks": 116,
          "midi": 84,
          "name": "C6",
          "ticks": 547320,
          "time": 406.78238787500004,
          "velocity": 0.4645669291338583
        },
        {
          "duration": 0.08055547500003968,
          "durationTicks": 116,
          "midi": 77,
          "name": "F5",
          "ticks": 547440,
          "time": 406.86572112500005,
          "velocity": 0.4645669291338583
        },
        {
          "duration": 0.08055547499998283,
          "durationTicks": 116,
          "midi": 84,
          "name": "C6",
          "ticks": 547560,
          "time": 406.94905437500006,
          "velocity": 0.4645669291338583
        },
        {
          "duration": 0.08055547499998283,
          "durationTicks": 116,
          "midi": 75,
          "name": "D#5",
          "ticks": 547680,
          "time": 407.03238762500007,
          "velocity": 0.4645669291338583
        },
        {
          "duration": 0.08055547499998283,
          "durationTicks": 116,
          "midi": 84,
          "name": "C6",
          "ticks": 547800,
          "time": 407.1157208750001,
          "velocity": 0.4645669291338583
        },
        {
          "duration": 0.08055547499998283,
          "durationTicks": 116,
          "midi": 74,
          "name": "D5",
          "ticks": 547920,
          "time": 407.1990541250001,
          "velocity": 0.4645669291338583
        },
        {
          "duration": 0.08055547500003968,
          "durationTicks": 116,
          "midi": 82,
          "name": "A#5",
          "ticks": 548040,
          "time": 407.28238737500004,
          "velocity": 0.4645669291338583
        },
        {
          "duration": 0.08055547500003968,
          "durationTicks": 116,
          "midi": 75,
          "name": "D#5",
          "ticks": 548160,
          "time": 407.36572062500005,
          "velocity": 0.4645669291338583
        },
        {
          "duration": 0.08055547499998283,
          "durationTicks": 116,
          "midi": 82,
          "name": "A#5",
          "ticks": 548280,
          "time": 407.44905387500006,
          "velocity": 0.4645669291338583
        },
        {
          "duration": 0.08055547499998283,
          "durationTicks": 116,
          "midi": 74,
          "name": "D5",
          "ticks": 548400,
          "time": 407.53238712500007,
          "velocity": 0.4645669291338583
        },
        {
          "duration": 0.08055547499998283,
          "durationTicks": 116,
          "midi": 82,
          "name": "A#5",
          "ticks": 548520,
          "time": 407.6157203750001,
          "velocity": 0.4645669291338583
        },
        {
          "duration": 0.08055547500003968,
          "durationTicks": 116,
          "midi": 79,
          "name": "G5",
          "ticks": 548640,
          "time": 407.69905362500003,
          "velocity": 0.6062992125984252
        },
        {
          "duration": 0.08055547500003968,
          "durationTicks": 116,
          "midi": 77,
          "name": "F5",
          "ticks": 548760,
          "time": 407.78238687500004,
          "velocity": 0.5118110236220472
        },
        {
          "duration": 0.08055547499998283,
          "durationTicks": 116,
          "midi": 75,
          "name": "D#5",
          "ticks": 548880,
          "time": 407.86572012500005,
          "velocity": 0.4881889763779528
        },
        {
          "duration": 0.08055547499998283,
          "durationTicks": 116,
          "midi": 74,
          "name": "D5",
          "ticks": 549000,
          "time": 407.94905337500006,
          "velocity": 0.44881889763779526
        },
        {
          "duration": 0.08055547499998283,
          "durationTicks": 116,
          "midi": 72,
          "name": "C5",
          "ticks": 549120,
          "time": 408.0323866250001,
          "velocity": 0.4251968503937008
        },
        {
          "duration": 0.08055547499998283,
          "durationTicks": 116,
          "midi": 70,
          "name": "A#4",
          "ticks": 549240,
          "time": 408.1157198750001,
          "velocity": 0.3858267716535433
        },
        {
          "duration": 0.08055547499998283,
          "durationTicks": 116,
          "midi": 69,
          "name": "A4",
          "ticks": 549360,
          "time": 408.1990531250001,
          "velocity": 0.44881889763779526
        },
        {
          "duration": 0.08055547500003968,
          "durationTicks": 116,
          "midi": 67,
          "name": "G4",
          "ticks": 549480,
          "time": 408.28238637500004,
          "velocity": 0.4330708661417323
        },
        {
          "duration": 0.08055547500003968,
          "durationTicks": 116,
          "midi": 65,
          "name": "F4",
          "ticks": 549600,
          "time": 408.36571962500005,
          "velocity": 0.4251968503937008
        },
        {
          "duration": 0.08055547499998283,
          "durationTicks": 116,
          "midi": 63,
          "name": "D#4",
          "ticks": 549720,
          "time": 408.44905287500006,
          "velocity": 0.4094488188976378
        },
        {
          "duration": 0.08055547499998283,
          "durationTicks": 116,
          "midi": 62,
          "name": "D4",
          "ticks": 549840,
          "time": 408.5323861250001,
          "velocity": 0.3937007874015748
        },
        {
          "duration": 0.08055547499998283,
          "durationTicks": 116,
          "midi": 60,
          "name": "C4",
          "ticks": 549960,
          "time": 408.6157193750001,
          "velocity": 0.3700787401574803
        },
        {
          "duration": 0.08055547500003968,
          "durationTicks": 116,
          "midi": 70,
          "name": "A#4",
          "ticks": 550200,
          "time": 408.78238587500005,
          "velocity": 0.4330708661417323
        },
        {
          "duration": 0.08055547499998283,
          "durationTicks": 116,
          "midi": 69,
          "name": "A4",
          "ticks": 550320,
          "time": 408.86571912500006,
          "velocity": 0.4251968503937008
        },
        {
          "duration": 0.08055547499998283,
          "durationTicks": 116,
          "midi": 70,
          "name": "A#4",
          "ticks": 550440,
          "time": 408.94905237500006,
          "velocity": 0.41732283464566927
        },
        {
          "duration": 0.08055547499998283,
          "durationTicks": 116,
          "midi": 74,
          "name": "D5",
          "ticks": 550560,
          "time": 409.0323856250001,
          "velocity": 0.41732283464566927
        },
        {
          "duration": 0.08055547499998283,
          "durationTicks": 116,
          "midi": 70,
          "name": "A#4",
          "ticks": 550680,
          "time": 409.1157188750001,
          "velocity": 0.4094488188976378
        },
        {
          "duration": 0.08055547499998283,
          "durationTicks": 116,
          "midi": 69,
          "name": "A4",
          "ticks": 550800,
          "time": 409.1990521250001,
          "velocity": 0.4094488188976378
        },
        {
          "duration": 0.08055547500003968,
          "durationTicks": 116,
          "midi": 72,
          "name": "C5",
          "ticks": 550920,
          "time": 409.28238537500005,
          "velocity": 0.4015748031496063
        },
        {
          "duration": 0.08055547500003968,
          "durationTicks": 116,
          "midi": 77,
          "name": "F5",
          "ticks": 551040,
          "time": 409.36571862500006,
          "velocity": 0.4015748031496063
        },
        {
          "duration": 0.08055547499998283,
          "durationTicks": 116,
          "midi": 72,
          "name": "C5",
          "ticks": 551160,
          "time": 409.44905187500007,
          "velocity": 0.3937007874015748
        },
        {
          "duration": 0.08055547499998283,
          "durationTicks": 116,
          "midi": 69,
          "name": "A4",
          "ticks": 551280,
          "time": 409.5323851250001,
          "velocity": 0.3937007874015748
        },
        {
          "duration": 0.08055547499998283,
          "durationTicks": 116,
          "midi": 72,
          "name": "C5",
          "ticks": 551400,
          "time": 409.6157183750001,
          "velocity": 0.3858267716535433
        },
        {
          "duration": 0.08055547500003968,
          "durationTicks": 116,
          "midi": 70,
          "name": "A#4",
          "ticks": 551640,
          "time": 409.78238487500005,
          "velocity": 0.3858267716535433
        },
        {
          "duration": 0.08055547499998283,
          "durationTicks": 116,
          "midi": 69,
          "name": "A4",
          "ticks": 551760,
          "time": 409.86571812500006,
          "velocity": 0.3858267716535433
        },
        {
          "duration": 0.08055547499998283,
          "durationTicks": 116,
          "midi": 70,
          "name": "A#4",
          "ticks": 551880,
          "time": 409.94905137500007,
          "velocity": 0.3858267716535433
        },
        {
          "duration": 0.08055547499998283,
          "durationTicks": 116,
          "midi": 74,
          "name": "D5",
          "ticks": 552000,
          "time": 410.0323846250001,
          "velocity": 0.3858267716535433
        },
        {
          "duration": 0.08055547499998283,
          "durationTicks": 116,
          "midi": 70,
          "name": "A#4",
          "ticks": 552120,
          "time": 410.1157178750001,
          "velocity": 0.3858267716535433
        },
        {
          "duration": 0.08055547500003968,
          "durationTicks": 116,
          "midi": 69,
          "name": "A4",
          "ticks": 552240,
          "time": 410.19905112500004,
          "velocity": 0.3858267716535433
        },
        {
          "duration": 0.08055547500003968,
          "durationTicks": 116,
          "midi": 72,
          "name": "C5",
          "ticks": 552360,
          "time": 410.28238437500005,
          "velocity": 0.3858267716535433
        },
        {
          "duration": 0.08055547499998283,
          "durationTicks": 116,
          "midi": 77,
          "name": "F5",
          "ticks": 552480,
          "time": 410.36571762500006,
          "velocity": 0.3858267716535433
        },
        {
          "duration": 0.08055547499998283,
          "durationTicks": 116,
          "midi": 72,
          "name": "C5",
          "ticks": 552600,
          "time": 410.44905087500007,
          "velocity": 0.3858267716535433
        },
        {
          "duration": 0.08055547499998283,
          "durationTicks": 116,
          "midi": 69,
          "name": "A4",
          "ticks": 552720,
          "time": 410.5323841250001,
          "velocity": 0.3858267716535433
        },
        {
          "duration": 0.08055547499998283,
          "durationTicks": 116,
          "midi": 72,
          "name": "C5",
          "ticks": 552840,
          "time": 410.6157173750001,
          "velocity": 0.3858267716535433
        },
        {
          "duration": 0.08055547500003968,
          "durationTicks": 116,
          "midi": 70,
          "name": "A#4",
          "ticks": 553080,
          "time": 410.78238387500005,
          "velocity": 0.4330708661417323
        },
        {
          "duration": 0.08055547499998283,
          "durationTicks": 116,
          "midi": 69,
          "name": "A4",
          "ticks": 553200,
          "time": 410.86571712500006,
          "velocity": 0.4409448818897638
        },
        {
          "duration": 0.08055547499998283,
          "durationTicks": 116,
          "midi": 70,
          "name": "A#4",
          "ticks": 553320,
          "time": 410.94905037500007,
          "velocity": 0.44881889763779526
        },
        {
          "duration": 0.08055547499998283,
          "durationTicks": 116,
          "midi": 72,
          "name": "C5",
          "ticks": 553440,
          "time": 411.0323836250001,
          "velocity": 0.4566929133858268
        },
        {
          "duration": 0.08055547499998283,
          "durationTicks": 116,
          "midi": 70,
          "name": "A#4",
          "ticks": 553560,
          "time": 411.1157168750001,
          "velocity": 0.4645669291338583
        },
        {
          "duration": 0.08055547500003968,
          "durationTicks": 116,
          "midi": 74,
          "name": "D5",
          "ticks": 553680,
          "time": 411.19905012500004,
          "velocity": 0.48031496062992124
        },
        {
          "duration": 0.08055547500003968,
          "durationTicks": 116,
          "midi": 70,
          "name": "A#4",
          "ticks": 553800,
          "time": 411.28238337500005,
          "velocity": 0.48031496062992124
        },
        {
          "duration": 0.08055547499998283,
          "durationTicks": 116,
          "midi": 75,
          "name": "D#5",
          "ticks": 553920,
          "time": 411.36571662500006,
          "velocity": 0.4881889763779528
        },
        {
          "duration": 0.08055547499998283,
          "durationTicks": 116,
          "midi": 70,
          "name": "A#4",
          "ticks": 554040,
          "time": 411.44904987500007,
          "velocity": 0.49606299212598426
        },
        {
          "duration": 0.08055547499998283,
          "durationTicks": 116,
          "midi": 77,
          "name": "F5",
          "ticks": 554160,
          "time": 411.5323831250001,
          "velocity": 0.5039370078740157
        },
        {
          "duration": 0.08055547500003968,
          "durationTicks": 116,
          "midi": 69,
          "name": "A4",
          "ticks": 554280,
          "time": 411.61571637500003,
          "velocity": 0.5196850393700787
        },
        {
          "duration": 0.49722172500003126,
          "durationTicks": 716,
          "midi": 67,
          "name": "G4",
          "ticks": 554400,
          "time": 411.69904962500004,
          "velocity": 0.5669291338582677
        },
        {
          "duration": 0.49722172500003126,
          "durationTicks": 716,
          "midi": 75,
          "name": "D#5",
          "ticks": 554640,
          "time": 411.86571612500006,
          "velocity": 0.5669291338582677
        },
        {
          "duration": 0.49722172500003126,
          "durationTicks": 716,
          "midi": 65,
          "name": "F4",
          "ticks": 555120,
          "time": 412.19904912500004,
          "velocity": 0.5669291338582677
        },
        {
          "duration": 0.4972217249999744,
          "durationTicks": 716,
          "midi": 74,
          "name": "D5",
          "ticks": 555360,
          "time": 412.36571562500006,
          "velocity": 0.5669291338582677
        },
        {
          "duration": 0.49722172500003126,
          "durationTicks": 716,
          "midi": 63,
          "name": "D#4",
          "ticks": 555840,
          "time": 412.69904862500005,
          "velocity": 0.5669291338582677
        },
        {
          "duration": 0.49722172500003126,
          "durationTicks": 716,
          "midi": 72,
          "name": "C5",
          "ticks": 556080,
          "time": 412.86571512500007,
          "velocity": 0.5669291338582677
        },
        {
          "duration": 0.49722172500003126,
          "durationTicks": 716,
          "midi": 62,
          "name": "D4",
          "ticks": 556560,
          "time": 413.19904812500005,
          "velocity": 0.5669291338582677
        },
        {
          "duration": 0.3305552250000119,
          "durationTicks": 476,
          "midi": 70,
          "name": "A#4",
          "ticks": 556800,
          "time": 413.36571462500007,
          "velocity": 0.5669291338582677
        },
        {
          "duration": 0.08055547499998283,
          "durationTicks": 116,
          "midi": 55,
          "name": "G3",
          "ticks": 557400,
          "time": 413.78238087500006,
          "velocity": 0.3937007874015748
        },
        {
          "duration": 0.08055547499998283,
          "durationTicks": 116,
          "midi": 60,
          "name": "C4",
          "ticks": 557520,
          "time": 413.86571412500007,
          "velocity": 0.41732283464566927
        },
        {
          "duration": 0.08055547499998283,
          "durationTicks": 116,
          "midi": 63,
          "name": "D#4",
          "ticks": 557640,
          "time": 413.9490473750001,
          "velocity": 0.4409448818897638
        },
        {
          "duration": 0.08055547499998283,
          "durationTicks": 116,
          "midi": 67,
          "name": "G4",
          "ticks": 557760,
          "time": 414.0323806250001,
          "velocity": 0.4645669291338583
        },
        {
          "duration": 0.08055547500003968,
          "durationTicks": 116,
          "midi": 72,
          "name": "C5",
          "ticks": 557880,
          "time": 414.11571387500004,
          "velocity": 0.48031496062992124
        },
        {
          "duration": 0.08055547500003968,
          "durationTicks": 116,
          "midi": 75,
          "name": "D#5",
          "ticks": 558000,
          "time": 414.19904712500005,
          "velocity": 0.5039370078740157
        },
        {
          "duration": 0.08055547499998283,
          "durationTicks": 116,
          "midi": 79,
          "name": "G5",
          "ticks": 558120,
          "time": 414.28238037500006,
          "velocity": 0.5275590551181102
        },
        {
          "duration": 0.08055547499998283,
          "durationTicks": 116,
          "midi": 84,
          "name": "C6",
          "ticks": 558240,
          "time": 414.36571362500007,
          "velocity": 0.5511811023622047
        },
        {
          "duration": 0.08055547499998283,
          "durationTicks": 116,
          "midi": 87,
          "name": "D#6",
          "ticks": 558360,
          "time": 414.4490468750001,
          "velocity": 0.5748031496062992
        },
        {
          "duration": 0.08055547500003968,
          "durationTicks": 116,
          "midi": 84,
          "name": "C6",
          "ticks": 558480,
          "time": 414.53238012500003,
          "velocity": 0.47244094488188976
        },
        {
          "duration": 0.08055547500003968,
          "durationTicks": 116,
          "midi": 79,
          "name": "G5",
          "ticks": 558600,
          "time": 414.61571337500004,
          "velocity": 0.47244094488188976
        },
        {
          "duration": 0.08055547499998283,
          "durationTicks": 116,
          "midi": 75,
          "name": "D#5",
          "ticks": 558720,
          "time": 414.69904662500005,
          "velocity": 0.47244094488188976
        },
        {
          "duration": 0.08055547499998283,
          "durationTicks": 116,
          "midi": 79,
          "name": "G5",
          "ticks": 558840,
          "time": 414.78237987500006,
          "velocity": 0.47244094488188976
        },
        {
          "duration": 0.08055547499998283,
          "durationTicks": 116,
          "midi": 72,
          "name": "C5",
          "ticks": 558960,
          "time": 414.86571312500007,
          "velocity": 0.47244094488188976
        },
        {
          "duration": 0.08055547499998283,
          "durationTicks": 116,
          "midi": 75,
          "name": "D#5",
          "ticks": 559080,
          "time": 414.9490463750001,
          "velocity": 0.47244094488188976
        },
        {
          "duration": 0.08055547499998283,
          "durationTicks": 116,
          "midi": 67,
          "name": "G4",
          "ticks": 559200,
          "time": 415.0323796250001,
          "velocity": 0.47244094488188976
        },
        {
          "duration": 0.08055547500003968,
          "durationTicks": 116,
          "midi": 72,
          "name": "C5",
          "ticks": 559320,
          "time": 415.11571287500004,
          "velocity": 0.47244094488188976
        },
        {
          "duration": 0.08055547500003968,
          "durationTicks": 116,
          "midi": 63,
          "name": "D#4",
          "ticks": 559440,
          "time": 415.19904612500005,
          "velocity": 0.47244094488188976
        },
        {
          "duration": 0.08055547499998283,
          "durationTicks": 116,
          "midi": 67,
          "name": "G4",
          "ticks": 559560,
          "time": 415.28237937500006,
          "velocity": 0.47244094488188976
        },
        {
          "duration": 0.08055547499998283,
          "durationTicks": 116,
          "midi": 60,
          "name": "C4",
          "ticks": 559680,
          "time": 415.36571262500007,
          "velocity": 0.47244094488188976
        },
        {
          "duration": 0.08055547499998283,
          "durationTicks": 116,
          "midi": 63,
          "name": "D#4",
          "ticks": 559800,
          "time": 415.4490458750001,
          "velocity": 0.47244094488188976
        },
        {
          "duration": 0.08055547500003968,
          "durationTicks": 116,
          "midi": 55,
          "name": "G3",
          "ticks": 559920,
          "time": 415.53237912500003,
          "velocity": 0.47244094488188976
        },
        {
          "duration": 0.08055547500003968,
          "durationTicks": 116,
          "midi": 60,
          "name": "C4",
          "ticks": 560040,
          "time": 415.61571237500004,
          "velocity": 0.47244094488188976
        },
        {
          "duration": 0.08055547499998283,
          "durationTicks": 116,
          "midi": 52,
          "name": "E3",
          "ticks": 560280,
          "time": 415.78237887500006,
          "velocity": 0.3937007874015748
        },
        {
          "duration": 0.08055547499998283,
          "durationTicks": 116,
          "midi": 55,
          "name": "G3",
          "ticks": 560400,
          "time": 415.8657121250001,
          "velocity": 0.4094488188976378
        },
        {
          "duration": 0.08055547499998283,
          "durationTicks": 116,
          "midi": 58,
          "name": "A#3",
          "ticks": 560520,
          "time": 415.9490453750001,
          "velocity": 0.4330708661417323
        },
        {
          "duration": 0.08055547499998283,
          "durationTicks": 116,
          "midi": 61,
          "name": "C#4",
          "ticks": 560640,
          "time": 416.0323786250001,
          "velocity": 0.44881889763779526
        },
        {
          "duration": 0.08055547500003968,
          "durationTicks": 116,
          "midi": 64,
          "name": "E4",
          "ticks": 560760,
          "time": 416.11571187500004,
          "velocity": 0.4645669291338583
        },
        {
          "duration": 0.08055547500003968,
          "durationTicks": 116,
          "midi": 67,
          "name": "G4",
          "ticks": 560880,
          "time": 416.19904512500005,
          "velocity": 0.48031496062992124
        },
        {
          "duration": 0.08055547499998283,
          "durationTicks": 116,
          "midi": 70,
          "name": "A#4",
          "ticks": 561000,
          "time": 416.28237837500006,
          "velocity": 0.49606299212598426
        },
        {
          "duration": 0.08055547499998283,
          "durationTicks": 116,
          "midi": 73,
          "name": "C#5",
          "ticks": 561120,
          "time": 416.3657116250001,
          "velocity": 0.5196850393700787
        },
        {
          "duration": 0.08055547499998283,
          "durationTicks": 116,
          "midi": 76,
          "name": "E5",
          "ticks": 561240,
          "time": 416.4490448750001,
          "velocity": 0.5354330708661418
        },
        {
          "duration": 0.08055547500003968,
          "durationTicks": 116,
          "midi": 79,
          "name": "G5",
          "ticks": 561360,
          "time": 416.53237812500004,
          "velocity": 0.5511811023622047
        },
        {
          "duration": 0.08055547500003968,
          "durationTicks": 116,
          "midi": 82,
          "name": "A#5",
          "ticks": 561480,
          "time": 416.61571137500005,
          "velocity": 0.5669291338582677
        },
        {
          "duration": 0.08055547499998283,
          "durationTicks": 116,
          "midi": 85,
          "name": "C#6",
          "ticks": 561600,
          "time": 416.69904462500006,
          "velocity": 0.5826771653543307
        },
        {
          "duration": 0.08055547499998283,
          "durationTicks": 116,
          "midi": 82,
          "name": "A#5",
          "ticks": 561720,
          "time": 416.78237787500007,
          "velocity": 0.47244094488188976
        },
        {
          "duration": 0.08055547499998283,
          "durationTicks": 116,
          "midi": 79,
          "name": "G5",
          "ticks": 561840,
          "time": 416.8657111250001,
          "velocity": 0.47244094488188976
        },
        {
          "duration": 0.08055547499998283,
          "durationTicks": 116,
          "midi": 76,
          "name": "E5",
          "ticks": 561960,
          "time": 416.9490443750001,
          "velocity": 0.47244094488188976
        },
        {
          "duration": 0.08055547499998283,
          "durationTicks": 116,
          "midi": 73,
          "name": "C#5",
          "ticks": 562080,
          "time": 417.0323776250001,
          "velocity": 0.47244094488188976
        },
        {
          "duration": 0.08055547500003968,
          "durationTicks": 116,
          "midi": 70,
          "name": "A#4",
          "ticks": 562200,
          "time": 417.11571087500005,
          "velocity": 0.47244094488188976
        },
        {
          "duration": 0.08055547500003968,
          "durationTicks": 116,
          "midi": 67,
          "name": "G4",
          "ticks": 562320,
          "time": 417.19904412500006,
          "velocity": 0.47244094488188976
        },
        {
          "duration": 0.08055547499998283,
          "durationTicks": 116,
          "midi": 64,
          "name": "E4",
          "ticks": 562440,
          "time": 417.28237737500007,
          "velocity": 0.47244094488188976
        },
        {
          "duration": 0.08055547499998283,
          "durationTicks": 116,
          "midi": 61,
          "name": "C#4",
          "ticks": 562560,
          "time": 417.3657106250001,
          "velocity": 0.47244094488188976
        },
        {
          "duration": 0.08055547500003968,
          "durationTicks": 116,
          "midi": 58,
          "name": "A#3",
          "ticks": 562680,
          "time": 417.44904387500003,
          "velocity": 0.47244094488188976
        },
        {
          "duration": 0.08055547500003968,
          "durationTicks": 116,
          "midi": 55,
          "name": "G3",
          "ticks": 562800,
          "time": 417.53237712500004,
          "velocity": 0.47244094488188976
        },
        {
          "duration": 0.08055547499998283,
          "durationTicks": 116,
          "midi": 52,
          "name": "E3",
          "ticks": 562920,
          "time": 417.61571037500005,
          "velocity": 0.47244094488188976
        },
        {
          "duration": 0.16388872499999252,
          "durationTicks": 236,
          "midi": 53,
          "name": "F3",
          "ticks": 563280,
          "time": 417.8657101250001,
          "velocity": 0.5039370078740157
        },
        {
          "duration": 0.16388872499999252,
          "durationTicks": 236,
          "midi": 58,
          "name": "A#3",
          "ticks": 563520,
          "time": 418.0323766250001,
          "velocity": 0.5275590551181102
        },
        {
          "duration": 0.16388872499999252,
          "durationTicks": 236,
          "midi": 62,
          "name": "D4",
          "ticks": 563760,
          "time": 418.19904312500006,
          "velocity": 0.5433070866141733
        },
        {
          "duration": 0.16388872499999252,
          "durationTicks": 236,
          "midi": 65,
          "name": "F4",
          "ticks": 564000,
          "time": 418.3657096250001,
          "velocity": 0.5748031496062992
        },
        {
          "duration": 0.16388872499999252,
          "durationTicks": 236,
          "midi": 70,
          "name": "A#4",
          "ticks": 564240,
          "time": 418.53237612500004,
          "velocity": 0.5905511811023622
        },
        {
          "duration": 0.16388872499999252,
          "durationTicks": 236,
          "midi": 74,
          "name": "D5",
          "ticks": 564480,
          "time": 418.69904262500006,
          "velocity": 0.6299212598425197
        },
        {
          "duration": 0.16388872499999252,
          "durationTicks": 236,
          "midi": 77,
          "name": "F5",
          "ticks": 564720,
          "time": 418.8657091250001,
          "velocity": 0.6456692913385826
        },
        {
          "duration": 0.16388872500004936,
          "durationTicks": 236,
          "midi": 82,
          "name": "A#5",
          "ticks": 564960,
          "time": 419.03237562500004,
          "velocity": 0.6771653543307087
        },
        {
          "duration": 0.16388872499999252,
          "durationTicks": 236,
          "midi": 86,
          "name": "D6",
          "ticks": 565200,
          "time": 419.19904212500006,
          "velocity": 0.6929133858267716
        },
        {
          "duration": 0.16388872499999252,
          "durationTicks": 236,
          "midi": 89,
          "name": "F6",
          "ticks": 565440,
          "time": 419.3657086250001,
          "velocity": 0.7322834645669292
        },
        {
          "duration": 0.16388872499999252,
          "durationTicks": 236,
          "midi": 82,
          "name": "A#5",
          "ticks": 565680,
          "time": 419.53237512500004,
          "velocity": 0.6220472440944882
        },
        {
          "duration": 0.16388872499999252,
          "durationTicks": 236,
          "midi": 86,
          "name": "D6",
          "ticks": 565920,
          "time": 419.69904162500006,
          "velocity": 0.6220472440944882
        },
        {
          "duration": 0.16388872499999252,
          "durationTicks": 236,
          "midi": 77,
          "name": "F5",
          "ticks": 566160,
          "time": 419.8657081250001,
          "velocity": 0.6141732283464567
        },
        {
          "duration": 0.16388872500004936,
          "durationTicks": 236,
          "midi": 82,
          "name": "A#5",
          "ticks": 566400,
          "time": 420.03237462500005,
          "velocity": 0.5984251968503937
        },
        {
          "duration": 0.16388872499999252,
          "durationTicks": 236,
          "midi": 74,
          "name": "D5",
          "ticks": 566640,
          "time": 420.19904112500006,
          "velocity": 0.5984251968503937
        },
        {
          "duration": 0.16388872499999252,
          "durationTicks": 236,
          "midi": 77,
          "name": "F5",
          "ticks": 566880,
          "time": 420.3657076250001,
          "velocity": 0.5826771653543307
        },
        {
          "duration": 0.16388872499999252,
          "durationTicks": 236,
          "midi": 70,
          "name": "A#4",
          "ticks": 567120,
          "time": 420.53237412500005,
          "velocity": 0.5826771653543307
        },
        {
          "duration": 0.08055547499998283,
          "durationTicks": 116,
          "midi": 74,
          "name": "D5",
          "ticks": 567360,
          "time": 420.69904062500007,
          "velocity": 0.4330708661417323
        },
        {
          "duration": 0.08055547499998283,
          "durationTicks": 116,
          "midi": 72,
          "name": "C5",
          "ticks": 567480,
          "time": 420.7823738750001,
          "velocity": 0.48031496062992124
        },
        {
          "duration": 0.06944437499998912,
          "durationTicks": 100,
          "midi": 74,
          "name": "D5",
          "ticks": 567600,
          "time": 420.8657071250001,
          "velocity": 0.44881889763779526
        },
        {
          "duration": 0.06944437500004597,
          "durationTicks": 100,
          "midi": 72,
          "name": "C5",
          "ticks": 567704,
          "time": 420.93792927500004,
          "velocity": 0.48031496062992124
        },
        {
          "duration": 0.06944437500004597,
          "durationTicks": 100,
          "midi": 74,
          "name": "D5",
          "ticks": 567812,
          "time": 421.01292920000003,
          "velocity": 0.4330708661417323
        },
        {
          "duration": 0.04999995000002855,
          "durationTicks": 72,
          "midi": 72,
          "name": "C5",
          "ticks": 567916,
          "time": 421.08515135000005,
          "velocity": 0.4251968503937008
        },
        {
          "duration": 0.049999949999971705,
          "durationTicks": 72,
          "midi": 74,
          "name": "D5",
          "ticks": 567996,
          "time": 421.1407068500001,
          "velocity": 0.41732283464566927
        },
        {
          "duration": 0.049999949999971705,
          "durationTicks": 72,
          "midi": 72,
          "name": "C5",
          "ticks": 568072,
          "time": 421.19348457500007,
          "velocity": 0.41732283464566927
        },
        {
          "duration": 0.04999995000002855,
          "durationTicks": 72,
          "midi": 74,
          "name": "D5",
          "ticks": 568156,
          "time": 421.25181785000007,
          "velocity": 0.4094488188976378
        },
        {
          "duration": 0.04999995000002855,
          "durationTicks": 72,
          "midi": 72,
          "name": "C5",
          "ticks": 568236,
          "time": 421.30737335000003,
          "velocity": 0.4015748031496063
        },
        {
          "duration": 0.049999949999971705,
          "durationTicks": 72,
          "midi": 74,
          "name": "D5",
          "ticks": 568312,
          "time": 421.3601510750001,
          "velocity": 0.3937007874015748
        },
        {
          "duration": 0.04999995000002855,
          "durationTicks": 72,
          "midi": 72,
          "name": "C5",
          "ticks": 568392,
          "time": 421.41570657500006,
          "velocity": 0.3858267716535433
        },
        {
          "duration": 0.10833322500002396,
          "durationTicks": 156,
          "midi": 70,
          "name": "A#4",
          "ticks": 568500,
          "time": 421.49070650000004,
          "velocity": 0.4330708661417323
        },
        {
          "duration": 0.08055547499998283,
          "durationTicks": 116,
          "midi": 72,
          "name": "C5",
          "ticks": 568640,
          "time": 421.5879286250001,
          "velocity": 0.4330708661417323
        },
        {
          "duration": 0.08055547499998283,
          "durationTicks": 116,
          "midi": 70,
          "name": "A#4",
          "ticks": 568800,
          "time": 421.69903962500007,
          "velocity": 0.3464566929133858
        },
        {
          "duration": 0.16388872500004936,
          "durationTicks": 236,
          "midi": 74,
          "name": "D5",
          "ticks": 569280,
          "time": 422.03237262500005,
          "velocity": 0.3464566929133858
        },
        {
          "duration": 0.08055547499998283,
          "durationTicks": 116,
          "midi": 77,
          "name": "F5",
          "ticks": 569520,
          "time": 422.19903912500007,
          "velocity": 0.3464566929133858
        },
        {
          "duration": 0.16388872499999252,
          "durationTicks": 236,
          "midi": 82,
          "name": "A#5",
          "ticks": 570000,
          "time": 422.53237212500005,
          "velocity": 0.4251968503937008
        },
        {
          "duration": 0.6638882249999938,
          "durationTicks": 956,
          "midi": 77,
          "name": "F5",
          "ticks": 570240,
          "time": 422.69903862500007,
          "velocity": 0.2677165354330709
        },
        {
          "duration": 0.16388872500004936,
          "durationTicks": 236,
          "midi": 75,
          "name": "D#5",
          "ticks": 571200,
          "time": 423.36570462500003,
          "velocity": 0.3464566929133858
        },
        {
          "duration": 0.16388872499999252,
          "durationTicks": 236,
          "midi": 72,
          "name": "C5",
          "ticks": 571440,
          "time": 423.53237112500005,
          "velocity": 0.2677165354330709
        },
        {
          "duration": 0.2472219750000022,
          "durationTicks": 356,
          "midi": 70,
          "name": "A#4",
          "ticks": 571680,
          "time": 423.6990376250001,
          "velocity": 0.3464566929133858
        },
        {
          "duration": 0.16388872499999252,
          "durationTicks": 236,
          "midi": 74,
          "name": "D5",
          "ticks": 572160,
          "time": 424.03237062500006,
          "velocity": 0.3464566929133858
        },
        {
          "duration": 0.08055547499998283,
          "durationTicks": 116,
          "midi": 77,
          "name": "F5",
          "ticks": 572400,
          "time": 424.1990371250001,
          "velocity": 0.2677165354330709
        },
        {
          "duration": 0.16388872499999252,
          "durationTicks": 236,
          "midi": 82,
          "name": "A#5",
          "ticks": 572880,
          "time": 424.53237012500006,
          "velocity": 0.3858267716535433
        },
        {
          "duration": 0.6916659749999781,
          "durationTicks": 996,
          "midi": 77,
          "name": "F5",
          "ticks": 573120,
          "time": 424.6990366250001,
          "velocity": 0.3464566929133858
        },
        {
          "duration": 0.19166647500003364,
          "durationTicks": 276,
          "midi": 75,
          "name": "D#5",
          "ticks": 574080,
          "time": 425.36570262500004,
          "velocity": 0.30708661417322836
        },
        {
          "duration": 0.16388872499999252,
          "durationTicks": 236,
          "midi": 72,
          "name": "C5",
          "ticks": 574320,
          "time": 425.53236912500006,
          "velocity": 0.2677165354330709
        },
        {
          "duration": 0.08055547499998283,
          "durationTicks": 116,
          "midi": 69,
          "name": "A4",
          "ticks": 576480,
          "time": 427.03236762500006,
          "velocity": 0.41732283464566927
        },
        {
          "duration": 0.08055547499998283,
          "durationTicks": 116,
          "midi": 72,
          "name": "C5",
          "ticks": 576600,
          "time": 427.1157008750001,
          "velocity": 0.4409448818897638
        },
        {
          "duration": 0.08055547499998283,
          "durationTicks": 116,
          "midi": 75,
          "name": "D#5",
          "ticks": 576720,
          "time": 427.1990341250001,
          "velocity": 0.4566929133858268
        },
        {
          "duration": 0.08055547500003968,
          "durationTicks": 116,
          "midi": 81,
          "name": "A5",
          "ticks": 576840,
          "time": 427.28236737500004,
          "velocity": 0.48031496062992124
        },
        {
          "duration": 0.08055547500003968,
          "durationTicks": 116,
          "midi": 84,
          "name": "C6",
          "ticks": 576960,
          "time": 427.36570062500004,
          "velocity": 0.49606299212598426
        },
        {
          "duration": 0.08055547499998283,
          "durationTicks": 116,
          "midi": 87,
          "name": "D#6",
          "ticks": 577080,
          "time": 427.44903387500005,
          "velocity": 0.5196850393700787
        },
        {
          "duration": 0.08055547499998283,
          "durationTicks": 116,
          "midi": 84,
          "name": "C6",
          "ticks": 577200,
          "time": 427.53236712500006,
          "velocity": 0.4251968503937008
        },
        {
          "duration": 0.08055547499998283,
          "durationTicks": 116,
          "midi": 81,
          "name": "A5",
          "ticks": 577320,
          "time": 427.6157003750001,
          "velocity": 0.4251968503937008
        },
        {
          "duration": 0.3305552250000119,
          "durationTicks": 476,
          "midi": 82,
          "name": "A#5",
          "ticks": 577440,
          "time": 427.6990336250001,
          "velocity": 0.3464566929133858
        },
        {
          "duration": 0.08055547499998283,
          "durationTicks": 116,
          "midi": 57,
          "name": "A3",
          "ticks": 579360,
          "time": 429.03236562500007,
          "velocity": 0.3464566929133858
        },
        {
          "duration": 0.08055547499998283,
          "durationTicks": 116,
          "midi": 60,
          "name": "C4",
          "ticks": 579480,
          "time": 429.1156988750001,
          "velocity": 0.36220472440944884
        },
        {
          "duration": 0.08055547500003968,
          "durationTicks": 116,
          "midi": 63,
          "name": "D#4",
          "ticks": 579600,
          "time": 429.19903212500003,
          "velocity": 0.3858267716535433
        },
        {
          "duration": 0.08055547500003968,
          "durationTicks": 116,
          "midi": 69,
          "name": "A4",
          "ticks": 579720,
          "time": 429.28236537500004,
          "velocity": 0.41732283464566927
        },
        {
          "duration": 0.08055547499998283,
          "durationTicks": 116,
          "midi": 72,
          "name": "C5",
          "ticks": 579840,
          "time": 429.36569862500005,
          "velocity": 0.4566929133858268
        },
        {
          "duration": 0.08055547499998283,
          "durationTicks": 116,
          "midi": 75,
          "name": "D#5",
          "ticks": 579960,
          "time": 429.44903187500006,
          "velocity": 0.5196850393700787
        },
        {
          "duration": 0.08055547499998283,
          "durationTicks": 116,
          "midi": 72,
          "name": "C5",
          "ticks": 580080,
          "time": 429.53236512500007,
          "velocity": 0.4251968503937008
        },
        {
          "duration": 0.08055547499998283,
          "durationTicks": 116,
          "midi": 69,
          "name": "A4",
          "ticks": 580200,
          "time": 429.6156983750001,
          "velocity": 0.3464566929133858
        },
        {
          "duration": 0.3305552250000119,
          "durationTicks": 476,
          "midi": 70,
          "name": "A#4",
          "ticks": 580320,
          "time": 429.6990316250001,
          "velocity": 0.3464566929133858
        }
      ],
      "endOfTrackTicks": 581760
    },
    {
      "channel": 1,
      "controlChanges": {
        "0": [
          {
            "number": 0,
            "ticks": 0,
            "time": 0,
            "value": 0
          }
        ],
        "7": [
          {
            "number": 7,
            "ticks": 0,
            "time": 0,
            "value": 1
          }
        ],
        "10": [
          {
            "number": 10,
            "ticks": 0,
            "time": 0,
            "value": 0.5826771653543307
          }
        ],
        "11": [
          {
            "number": 11,
            "ticks": 84,
            "time": 0.058807,
            "value": 1
          }
        ],
        "32": [
          {
            "number": 32,
            "ticks": 0,
            "time": 0,
            "value": 0
          }
        ],
        "64": [
          {
            "number": 64,
            "ticks": 7260,
            "time": 5.082605,
            "value": 1
          },
          {
            "number": 64,
            "ticks": 7800,
            "time": 5.46065,
            "value": 0
          },
          {
            "number": 64,
            "ticks": 8040,
            "time": 5.6286700000000005,
            "value": 1
          },
          {
            "number": 64,
            "ticks": 8400,
            "time": 5.8807,
            "value": 0
          },
          {
            "number": 64,
            "ticks": 8640,
            "time": 6.04872,
            "value": 1
          },
          {
            "number": 64,
            "ticks": 9360,
            "time": 6.55278,
            "value": 0
          },
          {
            "number": 64,
            "ticks": 51900,
            "time": 36.334325,
            "value": 1
          },
          {
            "number": 64,
            "ticks": 52440,
            "time": 36.71237,
            "value": 0
          },
          {
            "number": 64,
            "ticks": 52680,
            "time": 36.88039,
            "value": 1
          },
          {
            "number": 64,
            "ticks": 53040,
            "time": 37.13242,
            "value": 0
          },
          {
            "number": 64,
            "ticks": 53280,
            "time": 37.30044,
            "value": 1
          },
          {
            "number": 64,
            "ticks": 54000,
            "time": 37.8045,
            "value": 0
          },
          {
            "number": 64,
            "ticks": 220380,
            "time": 163.14164512500003,
            "value": 1
          },
          {
            "number": 64,
            "ticks": 220920,
            "time": 163.519690125,
            "value": 0
          },
          {
            "number": 64,
            "ticks": 221160,
            "time": 163.68771012500002,
            "value": 1
          },
          {
            "number": 64,
            "ticks": 221520,
            "time": 163.93974012500001,
            "value": 0
          },
          {
            "number": 64,
            "ticks": 221760,
            "time": 164.10776012500003,
            "value": 1
          },
          {
            "number": 64,
            "ticks": 222480,
            "time": 164.611820125,
            "value": 0
          },
          {
            "number": 64,
            "ticks": 475260,
            "time": 356.7407712500001,
            "value": 1
          },
          {
            "number": 64,
            "ticks": 475800,
            "time": 357.11577087500007,
            "value": 0
          },
          {
            "number": 64,
            "ticks": 476040,
            "time": 357.2824373750001,
            "value": 1
          },
          {
            "number": 64,
            "ticks": 476400,
            "time": 357.53243712500006,
            "value": 0
          },
          {
            "number": 64,
            "ticks": 476640,
            "time": 357.6991036250001,
            "value": 1
          },
          {
            "number": 64,
            "ticks": 477360,
            "time": 358.1991031250001,
            "value": 0
          },
          {
            "number": 64,
            "ticks": 508380,
            "time": 379.7407482500001,
            "value": 1
          },
          {
            "number": 64,
            "ticks": 508920,
            "time": 380.11574787500007,
            "value": 0
          },
          {
            "number": 64,
            "ticks": 509160,
            "time": 380.2824143750001,
            "value": 1
          },
          {
            "number": 64,
            "ticks": 509520,
            "time": 380.53241412500006,
            "value": 0
          },
          {
            "number": 64,
            "ticks": 509760,
            "time": 380.6990806250001,
            "value": 1
          },
          {
            "number": 64,
            "ticks": 510480,
            "time": 381.1990801250001,
            "value": 0
          }
        ],
        "91": [
          {
            "number": 91,
            "ticks": 88,
            "time": 0.06160733333333333,
            "value": 0.6220472440944882
          }
        ],
        "93": [
          {
            "number": 93,
            "ticks": 88,
            "time": 0.06160733333333333,
            "value": 0.07874015748031496
          }
        ],
        "121": [
          {
            "number": 121,
            "ticks": 80,
            "time": 0.05600666666666666,
            "value": 0
          }
        ]
      },
      "pitchBends": [
        {
          "ticks": 104,
          "time": 0.07280866666666667,
          "value": 0
        }
      ],
      "instrument": {
        "family": "piano",
        "number": 0,
        "name": "acoustic grand piano"
      },
      "name": "Piano lh",
      "notes": [
        {
          "duration": 0.17922133333333345,
          "durationTicks": 256,
          "midi": 58,
          "name": "A#3",
          "ticks": 1440,
          "time": 1.00812,
          "velocity": 0.18110236220472442
        },
        {
          "duration": 0.17922133333333345,
          "durationTicks": 256,
          "midi": 62,
          "name": "D4",
          "ticks": 1680,
          "time": 1.17614,
          "velocity": 0.1889763779527559
        },
        {
          "duration": 0.17922133333333323,
          "durationTicks": 256,
          "midi": 65,
          "name": "F4",
          "ticks": 1920,
          "time": 1.34416,
          "velocity": 0.2047244094488189
        },
        {
          "duration": 0.17922133333333323,
          "durationTicks": 256,
          "midi": 58,
          "name": "A#3",
          "ticks": 2160,
          "time": 1.51218,
          "velocity": 0.2204724409448819
        },
        {
          "duration": 0.17922133333333323,
          "durationTicks": 256,
          "midi": 62,
          "name": "D4",
          "ticks": 2400,
          "time": 1.6802000000000001,
          "velocity": 0.2283464566929134
        },
        {
          "duration": 0.17922133333333345,
          "durationTicks": 256,
          "midi": 65,
          "name": "F4",
          "ticks": 2640,
          "time": 1.84822,
          "velocity": 0.2440944881889764
        },
        {
          "duration": 0.17922133333333345,
          "durationTicks": 256,
          "midi": 58,
          "name": "A#3",
          "ticks": 2880,
          "time": 2.01624,
          "velocity": 0.25984251968503935
        },
        {
          "duration": 0.17922133333333345,
          "durationTicks": 256,
          "midi": 62,
          "name": "D4",
          "ticks": 3120,
          "time": 2.18426,
          "velocity": 0.2440944881889764
        },
        {
          "duration": 0.17922133333333345,
          "durationTicks": 256,
          "midi": 65,
          "name": "F4",
          "ticks": 3360,
          "time": 2.35228,
          "velocity": 0.2283464566929134
        },
        {
          "duration": 0.179221333333333,
          "durationTicks": 256,
          "midi": 58,
          "name": "A#3",
          "ticks": 3600,
          "time": 2.5203,
          "velocity": 0.2125984251968504
        },
        {
          "duration": 0.17922133333333345,
          "durationTicks": 256,
          "midi": 62,
          "name": "D4",
          "ticks": 3840,
          "time": 2.68832,
          "velocity": 0.1889763779527559
        },
        {
          "duration": 0.17922133333333345,
          "durationTicks": 256,
          "midi": 65,
          "name": "F4",
          "ticks": 4080,
          "time": 2.85634,
          "velocity": 0.25984251968503935
        },
        {
          "duration": 0.179221333333333,
          "durationTicks": 256,
          "midi": 53,
          "name": "F3",
          "ticks": 4320,
          "time": 3.02436,
          "velocity": 0.25984251968503935
        },
        {
          "duration": 0.17922133333333345,
          "durationTicks": 256,
          "midi": 60,
          "name": "C4",
          "ticks": 4560,
          "time": 3.19238,
          "velocity": 0.25984251968503935
        },
        {
          "duration": 0.179221333333333,
          "durationTicks": 256,
          "midi": 63,
          "name": "D#4",
          "ticks": 4800,
          "time": 3.3604000000000003,
          "velocity": 0.25984251968503935
        },
        {
          "duration": 0.17922133333333345,
          "durationTicks": 256,
          "midi": 53,
          "name": "F3",
          "ticks": 5040,
          "time": 3.52842,
          "velocity": 0.25984251968503935
        },
        {
          "duration": 0.17922133333333345,
          "durationTicks": 256,
          "midi": 58,
          "name": "A#3",
          "ticks": 5280,
          "time": 3.69644,
          "velocity": 0.25984251968503935
        },
        {
          "duration": 0.17922133333333345,
          "durationTicks": 256,
          "midi": 62,
          "name": "D4",
          "ticks": 5520,
          "time": 3.8644600000000002,
          "velocity": 0.25984251968503935
        },
        {
          "duration": 0.17922133333333345,
          "durationTicks": 256,
          "midi": 53,
          "name": "F3",
          "ticks": 5760,
          "time": 4.03248,
          "velocity": 0.25984251968503935
        },
        {
          "duration": 0.17922133333333345,
          "durationTicks": 256,
          "midi": 58,
          "name": "A#3",
          "ticks": 6000,
          "time": 4.2005,
          "velocity": 0.25984251968503935
        },
        {
          "duration": 0.17922133333333345,
          "durationTicks": 256,
          "midi": 62,
          "name": "D4",
          "ticks": 6240,
          "time": 4.36852,
          "velocity": 0.2440944881889764
        },
        {
          "duration": 0.17922133333333257,
          "durationTicks": 256,
          "midi": 53,
          "name": "F3",
          "ticks": 6480,
          "time": 4.5365400000000005,
          "velocity": 0.2283464566929134
        },
        {
          "duration": 0.17922133333333345,
          "durationTicks": 256,
          "midi": 57,
          "name": "A3",
          "ticks": 6720,
          "time": 4.70456,
          "velocity": 0.2125984251968504
        },
        {
          "duration": 0.17922133333333345,
          "durationTicks": 256,
          "midi": 60,
          "name": "C4",
          "ticks": 6960,
          "time": 4.87258,
          "velocity": 0.1968503937007874
        },
        {
          "duration": 0.17922133333333257,
          "durationTicks": 256,
          "midi": 58,
          "name": "A#3",
          "ticks": 7200,
          "time": 5.0406,
          "velocity": 0.33858267716535434
        },
        {
          "duration": 0.17922133333333434,
          "durationTicks": 256,
          "midi": 62,
          "name": "D4",
          "ticks": 7440,
          "time": 5.20862,
          "velocity": 0.2677165354330709
        },
        {
          "duration": 0.17922133333333345,
          "durationTicks": 256,
          "midi": 65,
          "name": "F4",
          "ticks": 7680,
          "time": 5.37664,
          "velocity": 0.2755905511811024
        },
        {
          "duration": 0.17922133333333345,
          "durationTicks": 256,
          "midi": 58,
          "name": "A#3",
          "ticks": 7920,
          "time": 5.54466,
          "velocity": 0.28346456692913385
        },
        {
          "duration": 0.17922133333333434,
          "durationTicks": 256,
          "midi": 60,
          "name": "C4",
          "ticks": 8160,
          "time": 5.71268,
          "velocity": 0.29133858267716534
        },
        {
          "duration": 0.17922133333333434,
          "durationTicks": 256,
          "midi": 63,
          "name": "D#4",
          "ticks": 8400,
          "time": 5.8807,
          "velocity": 0.30708661417322836
        },
        {
          "duration": 0.17922133333333345,
          "durationTicks": 256,
          "midi": 58,
          "name": "A#3",
          "ticks": 8640,
          "time": 6.04872,
          "velocity": 0.31496062992125984
        },
        {
          "duration": 0.17922133333333434,
          "durationTicks": 256,
          "midi": 62,
          "name": "D4",
          "ticks": 8880,
          "time": 6.21674,
          "velocity": 0.3228346456692913
        },
        {
          "duration": 0.17922133333333434,
          "durationTicks": 256,
          "midi": 65,
          "name": "F4",
          "ticks": 9120,
          "time": 6.38476,
          "velocity": 0.33070866141732286
        },
        {
          "duration": 0.17922133333333345,
          "durationTicks": 256,
          "midi": 58,
          "name": "A#3",
          "ticks": 9360,
          "time": 6.55278,
          "velocity": 0.3464566929133858
        },
        {
          "duration": 0.17922133333333345,
          "durationTicks": 256,
          "midi": 62,
          "name": "D4",
          "ticks": 9600,
          "time": 6.7208000000000006,
          "velocity": 0.2755905511811024
        },
        {
          "duration": 0.17922133333333434,
          "durationTicks": 256,
          "midi": 65,
          "name": "F4",
          "ticks": 9840,
          "time": 6.88882,
          "velocity": 0.2755905511811024
        },
        {
          "duration": 0.17922133333333345,
          "durationTicks": 256,
          "midi": 53,
          "name": "F3",
          "ticks": 10080,
          "time": 7.05684,
          "velocity": 0.25984251968503935
        },
        {
          "duration": 0.17922133333333345,
          "durationTicks": 256,
          "midi": 58,
          "name": "A#3",
          "ticks": 10320,
          "time": 7.2248600000000005,
          "velocity": 0.25196850393700787
        },
        {
          "duration": 0.17922133333333434,
          "durationTicks": 256,
          "midi": 62,
          "name": "D4",
          "ticks": 10560,
          "time": 7.39288,
          "velocity": 0.2440944881889764
        },
        {
          "duration": 0.17922133333333345,
          "durationTicks": 256,
          "midi": 53,
          "name": "F3",
          "ticks": 10800,
          "time": 7.5609,
          "velocity": 0.2440944881889764
        },
        {
          "duration": 0.17922133333333345,
          "durationTicks": 256,
          "midi": 60,
          "name": "C4",
          "ticks": 11040,
          "time": 7.7289200000000005,
          "velocity": 0.23622047244094488
        },
        {
          "duration": 0.10921299999999956,
          "durationTicks": 156,
          "midi": 63,
          "name": "D#4",
          "ticks": 11280,
          "time": 7.89694,
          "velocity": 0.2283464566929134
        },
        {
          "duration": 0.669279666666668,
          "durationTicks": 956,
          "midi": 58,
          "name": "A#3",
          "ticks": 11520,
          "time": 8.06496,
          "velocity": 0.1968503937007874
        },
        {
          "duration": 0.5012596666666678,
          "durationTicks": 716,
          "midi": 63,
          "name": "D#4",
          "ticks": 11520,
          "time": 8.06496,
          "velocity": 0.2755905511811024
        },
        {
          "duration": 0.17922133333333434,
          "durationTicks": 256,
          "midi": 62,
          "name": "D4",
          "ticks": 12240,
          "time": 8.56902,
          "velocity": 0.1968503937007874
        },
        {
          "duration": 0.16521966666666543,
          "durationTicks": 236,
          "midi": 53,
          "name": "F3",
          "ticks": 24480,
          "time": 17.13804,
          "velocity": 0.2204724409448819
        },
        {
          "duration": 0.16521966666666899,
          "durationTicks": 236,
          "midi": 60,
          "name": "C4",
          "ticks": 24720,
          "time": 17.30606,
          "velocity": 0.2204724409448819
        },
        {
          "duration": 0.16521966666666543,
          "durationTicks": 236,
          "midi": 63,
          "name": "D#4",
          "ticks": 24960,
          "time": 17.47408,
          "velocity": 0.2283464566929134
        },
        {
          "duration": 0.16521966666666899,
          "durationTicks": 236,
          "midi": 53,
          "name": "F3",
          "ticks": 25200,
          "time": 17.6421,
          "velocity": 0.2440944881889764
        },
        {
          "duration": 0.16521966666666543,
          "durationTicks": 236,
          "midi": 60,
          "name": "C4",
          "ticks": 25440,
          "time": 17.81012,
          "velocity": 0.2440944881889764
        },
        {
          "duration": 0.16521966666666899,
          "durationTicks": 236,
          "midi": 63,
          "name": "D#4",
          "ticks": 25680,
          "time": 17.97814,
          "velocity": 0.25984251968503935
        },
        {
          "duration": 0.16521966666666543,
          "durationTicks": 236,
          "midi": 53,
          "name": "F3",
          "ticks": 25920,
          "time": 18.146160000000002,
          "velocity": 0.2755905511811024
        },
        {
          "duration": 0.16521966666666543,
          "durationTicks": 236,
          "midi": 58,
          "name": "A#3",
          "ticks": 26160,
          "time": 18.31418,
          "velocity": 0.2755905511811024
        },
        {
          "duration": 0.16521966666666899,
          "durationTicks": 236,
          "midi": 62,
          "name": "D4",
          "ticks": 26400,
          "time": 18.4822,
          "velocity": 0.2755905511811024
        },
        {
          "duration": 0.16521966666666543,
          "durationTicks": 236,
          "midi": 53,
          "name": "F3",
          "ticks": 26640,
          "time": 18.65022,
          "velocity": 0.2755905511811024
        },
        {
          "duration": 0.16521966666666899,
          "durationTicks": 236,
          "midi": 58,
          "name": "A#3",
          "ticks": 26880,
          "time": 18.81824,
          "velocity": 0.2755905511811024
        },
        {
          "duration": 0.16521966666666543,
          "durationTicks": 236,
          "midi": 62,
          "name": "D4",
          "ticks": 27120,
          "time": 18.98626,
          "velocity": 0.2755905511811024
        },
        {
          "duration": 0.16521966666666543,
          "durationTicks": 236,
          "midi": 53,
          "name": "F3",
          "ticks": 27360,
          "time": 19.15428,
          "velocity": 0.2440944881889764
        },
        {
          "duration": 0.16521966666666543,
          "durationTicks": 236,
          "midi": 57,
          "name": "A3",
          "ticks": 27600,
          "time": 19.322300000000002,
          "velocity": 0.2440944881889764
        },
        {
          "duration": 0.16521966666666543,
          "durationTicks": 236,
          "midi": 60,
          "name": "C4",
          "ticks": 27840,
          "time": 19.49032,
          "velocity": 0.2440944881889764
        },
        {
          "duration": 0.16521966666666899,
          "durationTicks": 236,
          "midi": 53,
          "name": "F3",
          "ticks": 28080,
          "time": 19.65834,
          "velocity": 0.2440944881889764
        },
        {
          "duration": 0.16521966666666543,
          "durationTicks": 236,
          "midi": 57,
          "name": "A3",
          "ticks": 28320,
          "time": 19.82636,
          "velocity": 0.2440944881889764
        },
        {
          "duration": 0.16521966666666899,
          "durationTicks": 236,
          "midi": 60,
          "name": "C4",
          "ticks": 28560,
          "time": 19.99438,
          "velocity": 0.2440944881889764
        },
        {
          "duration": 0.16521966666666543,
          "durationTicks": 236,
          "midi": 53,
          "name": "F3",
          "ticks": 28800,
          "time": 20.1624,
          "velocity": 0.2440944881889764
        },
        {
          "duration": 0.16521966666666543,
          "durationTicks": 236,
          "midi": 58,
          "name": "A#3",
          "ticks": 29040,
          "time": 20.33042,
          "velocity": 0.23622047244094488
        },
        {
          "duration": 0.16521966666666899,
          "durationTicks": 236,
          "midi": 62,
          "name": "D4",
          "ticks": 29280,
          "time": 20.49844,
          "velocity": 0.2283464566929134
        },
        {
          "duration": 0.16521966666666543,
          "durationTicks": 236,
          "midi": 53,
          "name": "F3",
          "ticks": 29520,
          "time": 20.66646,
          "velocity": 0.2204724409448819
        },
        {
          "duration": 0.16521966666666899,
          "durationTicks": 236,
          "midi": 58,
          "name": "A#3",
          "ticks": 29760,
          "time": 20.83448,
          "velocity": 0.2125984251968504
        },
        {
          "duration": 0.16521966666666543,
          "durationTicks": 236,
          "midi": 62,
          "name": "D4",
          "ticks": 30000,
          "time": 21.0025,
          "velocity": 0.2125984251968504
        },
        {
          "duration": 0.501259666666666,
          "durationTicks": 716,
          "midi": 53,
          "name": "F3",
          "ticks": 30240,
          "time": 21.17052,
          "velocity": 0.3228346456692913
        },
        {
          "duration": 0.27723299999999895,
          "durationTicks": 396,
          "midi": 60,
          "name": "C4",
          "ticks": 30480,
          "time": 21.338540000000002,
          "velocity": 0.28346456692913385
        },
        {
          "duration": 0.16521966666666543,
          "durationTicks": 236,
          "midi": 63,
          "name": "D#4",
          "ticks": 30720,
          "time": 21.50656,
          "velocity": 0.29133858267716534
        },
        {
          "duration": 0.445253000000001,
          "durationTicks": 636,
          "midi": 54,
          "name": "F#3",
          "ticks": 30960,
          "time": 21.67458,
          "velocity": 0.3464566929133858
        },
        {
          "duration": 0.27723299999999895,
          "durationTicks": 396,
          "midi": 60,
          "name": "C4",
          "ticks": 31200,
          "time": 21.8426,
          "velocity": 0.30708661417322836
        },
        {
          "duration": 0.16521966666666543,
          "durationTicks": 236,
          "midi": 63,
          "name": "D#4",
          "ticks": 31440,
          "time": 22.01062,
          "velocity": 0.3228346456692913
        },
        {
          "duration": 0.3612429999999982,
          "durationTicks": 516,
          "midi": 55,
          "name": "G3",
          "ticks": 31680,
          "time": 22.17864,
          "velocity": 0.3779527559055118
        },
        {
          "duration": 0.16521966666666543,
          "durationTicks": 236,
          "midi": 62,
          "name": "D4",
          "ticks": 31920,
          "time": 22.34666,
          "velocity": 0.36220472440944884
        },
        {
          "duration": 0.16521966666666188,
          "durationTicks": 236,
          "midi": 66,
          "name": "F#4",
          "ticks": 32160,
          "time": 22.514680000000002,
          "velocity": 0.33858267716535434
        },
        {
          "duration": 0.16521966666666543,
          "durationTicks": 236,
          "midi": 67,
          "name": "G4",
          "ticks": 32400,
          "time": 22.6827,
          "velocity": 0.2992125984251969
        },
        {
          "duration": 0.501259666666666,
          "durationTicks": 716,
          "midi": 60,
          "name": "C4",
          "ticks": 33840,
          "time": 23.69082,
          "velocity": 0.2125984251968504
        },
        {
          "duration": 0.501259666666666,
          "durationTicks": 716,
          "midi": 67,
          "name": "G4",
          "ticks": 33840,
          "time": 23.69082,
          "velocity": 0.2125984251968504
        },
        {
          "duration": 0.501259666666666,
          "durationTicks": 716,
          "midi": 70,
          "name": "A#4",
          "ticks": 33840,
          "time": 23.69082,
          "velocity": 0.2755905511811024
        },
        {
          "duration": 0.16521966666666188,
          "durationTicks": 236,
          "midi": 65,
          "name": "F4",
          "ticks": 34560,
          "time": 24.19488,
          "velocity": 0.2125984251968504
        },
        {
          "duration": 0.16521966666666188,
          "durationTicks": 236,
          "midi": 69,
          "name": "A4",
          "ticks": 34560,
          "time": 24.19488,
          "velocity": 0.2125984251968504
        },
        {
          "duration": 0.5012596666666624,
          "durationTicks": 716,
          "midi": 60,
          "name": "C4",
          "ticks": 36720,
          "time": 25.707060000000002,
          "velocity": 0.2755905511811024
        },
        {
          "duration": 0.5012596666666624,
          "durationTicks": 716,
          "midi": 67,
          "name": "G4",
          "ticks": 36720,
          "time": 25.707060000000002,
          "velocity": 0.2755905511811024
        },
        {
          "duration": 0.5012596666666624,
          "durationTicks": 716,
          "midi": 70,
          "name": "A#4",
          "ticks": 36720,
          "time": 25.707060000000002,
          "velocity": 0.36220472440944884
        },
        {
          "duration": 0.24922966666666468,
          "durationTicks": 356,
          "midi": 65,
          "name": "F4",
          "ticks": 37440,
          "time": 26.21112,
          "velocity": 0.2125984251968504
        },
        {
          "duration": 0.24922966666666468,
          "durationTicks": 356,
          "midi": 69,
          "name": "A4",
          "ticks": 37440,
          "time": 26.21112,
          "velocity": 0.2677165354330709
        },
        {
          "duration": 0.5012596666666624,
          "durationTicks": 716,
          "midi": 60,
          "name": "C4",
          "ticks": 39600,
          "time": 27.723300000000002,
          "velocity": 0.2125984251968504
        },
        {
          "duration": 0.5012596666666624,
          "durationTicks": 716,
          "midi": 67,
          "name": "G4",
          "ticks": 39600,
          "time": 27.723300000000002,
          "velocity": 0.2125984251968504
        },
        {
          "duration": 0.5012596666666624,
          "durationTicks": 716,
          "midi": 70,
          "name": "A#4",
          "ticks": 39600,
          "time": 27.723300000000002,
          "velocity": 0.2755905511811024
        },
        {
          "duration": 0.16521966666666543,
          "durationTicks": 236,
          "midi": 65,
          "name": "F4",
          "ticks": 40320,
          "time": 28.22736,
          "velocity": 0.2755905511811024
        },
        {
          "duration": 0.16521966666666543,
          "durationTicks": 236,
          "midi": 69,
          "name": "A4",
          "ticks": 40560,
          "time": 28.39538,
          "velocity": 0.31496062992125984
        },
        {
          "duration": 0.16521966666666188,
          "durationTicks": 236,
          "midi": 72,
          "name": "C5",
          "ticks": 40800,
          "time": 28.5634,
          "velocity": 0.3543307086614173
        },
        {
          "duration": 0.08120966666666618,
          "durationTicks": 116,
          "midi": 65,
          "name": "F4",
          "ticks": 41040,
          "time": 28.73142,
          "velocity": 0.2755905511811024
        },
        {
          "duration": 0.16521966666666543,
          "durationTicks": 236,
          "midi": 60,
          "name": "C4",
          "ticks": 41520,
          "time": 29.06746,
          "velocity": 0.2755905511811024
        },
        {
          "duration": 0.16521966666666543,
          "durationTicks": 236,
          "midi": 70,
          "name": "A#4",
          "ticks": 41520,
          "time": 29.06746,
          "velocity": 0.33858267716535434
        },
        {
          "duration": 0.08120966666666618,
          "durationTicks": 116,
          "midi": 65,
          "name": "F4",
          "ticks": 41760,
          "time": 29.23548,
          "velocity": 0.2755905511811024
        },
        {
          "duration": 0.08120966666666618,
          "durationTicks": 116,
          "midi": 69,
          "name": "A4",
          "ticks": 41760,
          "time": 29.23548,
          "velocity": 0.2755905511811024
        },
        {
          "duration": 0.16521966666666543,
          "durationTicks": 236,
          "midi": 60,
          "name": "C4",
          "ticks": 42240,
          "time": 29.57152,
          "velocity": 0.2755905511811024
        },
        {
          "duration": 0.16521966666666543,
          "durationTicks": 236,
          "midi": 70,
          "name": "A#4",
          "ticks": 42240,
          "time": 29.57152,
          "velocity": 0.33858267716535434
        },
        {
          "duration": 0.08120966666666263,
          "durationTicks": 116,
          "midi": 65,
          "name": "F4",
          "ticks": 42480,
          "time": 29.73954,
          "velocity": 0.2755905511811024
        },
        {
          "duration": 0.08120966666666263,
          "durationTicks": 116,
          "midi": 69,
          "name": "A4",
          "ticks": 42480,
          "time": 29.73954,
          "velocity": 0.2755905511811024
        },
        {
          "duration": 0.16521966666666188,
          "durationTicks": 236,
          "midi": 60,
          "name": "C4",
          "ticks": 42960,
          "time": 30.075580000000002,
          "velocity": 0.23622047244094488
        },
        {
          "duration": 0.16521966666666188,
          "durationTicks": 236,
          "midi": 70,
          "name": "A#4",
          "ticks": 42960,
          "time": 30.075580000000002,
          "velocity": 0.2992125984251969
        },
        {
          "duration": 0.08120966666666263,
          "durationTicks": 116,
          "midi": 65,
          "name": "F4",
          "ticks": 43200,
          "time": 30.2436,
          "velocity": 0.25196850393700787
        },
        {
          "duration": 0.16521966666666543,
          "durationTicks": 236,
          "midi": 69,
          "name": "A4",
          "ticks": 43440,
          "time": 30.41162,
          "velocity": 0.29133858267716534
        },
        {
          "duration": 0.16521966666666543,
          "durationTicks": 236,
          "midi": 72,
          "name": "C5",
          "ticks": 43680,
          "time": 30.57964,
          "velocity": 0.3543307086614173
        },
        {
          "duration": 0.16521966666666543,
          "durationTicks": 236,
          "midi": 65,
          "name": "F4",
          "ticks": 43920,
          "time": 30.74766,
          "velocity": 0.2755905511811024
        },
        {
          "duration": 0.1792213333333379,
          "durationTicks": 256,
          "midi": 58,
          "name": "A#3",
          "ticks": 46080,
          "time": 32.25984,
          "velocity": 0.18110236220472442
        },
        {
          "duration": 0.1792213333333308,
          "durationTicks": 256,
          "midi": 62,
          "name": "D4",
          "ticks": 46320,
          "time": 32.42786,
          "velocity": 0.18110236220472442
        },
        {
          "duration": 0.1792213333333308,
          "durationTicks": 256,
          "midi": 65,
          "name": "F4",
          "ticks": 46560,
          "time": 32.59588,
          "velocity": 0.1889763779527559
        },
        {
          "duration": 0.1792213333333308,
          "durationTicks": 256,
          "midi": 58,
          "name": "A#3",
          "ticks": 46800,
          "time": 32.7639,
          "velocity": 0.2047244094488189
        },
        {
          "duration": 0.1792213333333379,
          "durationTicks": 256,
          "midi": 62,
          "name": "D4",
          "ticks": 47040,
          "time": 32.93192,
          "velocity": 0.2047244094488189
        },
        {
          "duration": 0.1792213333333308,
          "durationTicks": 256,
          "midi": 65,
          "name": "F4",
          "ticks": 47280,
          "time": 33.099940000000004,
          "velocity": 0.2125984251968504
        },
        {
          "duration": 0.1792213333333308,
          "durationTicks": 256,
          "midi": 58,
          "name": "A#3",
          "ticks": 47520,
          "time": 33.26796,
          "velocity": 0.2283464566929134
        },
        {
          "duration": 0.1792213333333308,
          "durationTicks": 256,
          "midi": 62,
          "name": "D4",
          "ticks": 47760,
          "time": 33.43598,
          "velocity": 0.2125984251968504
        },
        {
          "duration": 0.1792213333333308,
          "durationTicks": 256,
          "midi": 65,
          "name": "F4",
          "ticks": 48000,
          "time": 33.604,
          "velocity": 0.2047244094488189
        },
        {
          "duration": 0.1792213333333379,
          "durationTicks": 256,
          "midi": 58,
          "name": "A#3",
          "ticks": 48240,
          "time": 33.77202,
          "velocity": 0.1889763779527559
        },
        {
          "duration": 0.1792213333333308,
          "durationTicks": 256,
          "midi": 62,
          "name": "D4",
          "ticks": 48480,
          "time": 33.94004,
          "velocity": 0.16535433070866143
        },
        {
          "duration": 0.1792213333333308,
          "durationTicks": 256,
          "midi": 65,
          "name": "F4",
          "ticks": 48720,
          "time": 34.10806,
          "velocity": 0.2283464566929134
        },
        {
          "duration": 0.1792213333333308,
          "durationTicks": 256,
          "midi": 53,
          "name": "F3",
          "ticks": 48960,
          "time": 34.27608,
          "velocity": 0.2283464566929134
        },
        {
          "duration": 0.1792213333333379,
          "durationTicks": 256,
          "midi": 60,
          "name": "C4",
          "ticks": 49200,
          "time": 34.4441,
          "velocity": 0.2283464566929134
        },
        {
          "duration": 0.1792213333333379,
          "durationTicks": 256,
          "midi": 63,
          "name": "D#4",
          "ticks": 49440,
          "time": 34.61212,
          "velocity": 0.2283464566929134
        },
        {
          "duration": 0.1792213333333308,
          "durationTicks": 256,
          "midi": 53,
          "name": "F3",
          "ticks": 49680,
          "time": 34.78014,
          "velocity": 0.2283464566929134
        },
        {
          "duration": 0.1792213333333308,
          "durationTicks": 256,
          "midi": 58,
          "name": "A#3",
          "ticks": 49920,
          "time": 34.94816,
          "velocity": 0.2283464566929134
        },
        {
          "duration": 0.1792213333333308,
          "durationTicks": 256,
          "midi": 62,
          "name": "D4",
          "ticks": 50160,
          "time": 35.11618,
          "velocity": 0.2283464566929134
        },
        {
          "duration": 0.1792213333333379,
          "durationTicks": 256,
          "midi": 53,
          "name": "F3",
          "ticks": 50400,
          "time": 35.2842,
          "velocity": 0.2283464566929134
        },
        {
          "duration": 0.1792213333333308,
          "durationTicks": 256,
          "midi": 58,
          "name": "A#3",
          "ticks": 50640,
          "time": 35.452220000000004,
          "velocity": 0.2283464566929134
        },
        {
          "duration": 0.1792213333333308,
          "durationTicks": 256,
          "midi": 62,
          "name": "D4",
          "ticks": 50880,
          "time": 35.62024,
          "velocity": 0.2125984251968504
        },
        {
          "duration": 0.1792213333333308,
          "durationTicks": 256,
          "midi": 53,
          "name": "F3",
          "ticks": 51120,
          "time": 35.78826,
          "velocity": 0.2047244094488189
        },
        {
          "duration": 0.1792213333333308,
          "durationTicks": 256,
          "midi": 57,
          "name": "A3",
          "ticks": 51360,
          "time": 35.95628,
          "velocity": 0.1889763779527559
        },
        {
          "duration": 0.1792213333333379,
          "durationTicks": 256,
          "midi": 60,
          "name": "C4",
          "ticks": 51600,
          "time": 36.1243,
          "velocity": 0.1732283464566929
        },
        {
          "duration": 0.1792213333333308,
          "durationTicks": 256,
          "midi": 58,
          "name": "A#3",
          "ticks": 51840,
          "time": 36.292320000000004,
          "velocity": 0.2677165354330709
        },
        {
          "duration": 0.1792213333333308,
          "durationTicks": 256,
          "midi": 62,
          "name": "D4",
          "ticks": 52080,
          "time": 36.46034,
          "velocity": 0.2204724409448819
        },
        {
          "duration": 0.1792213333333308,
          "durationTicks": 256,
          "midi": 65,
          "name": "F4",
          "ticks": 52320,
          "time": 36.62836,
          "velocity": 0.23622047244094488
        },
        {
          "duration": 0.1792213333333308,
          "durationTicks": 256,
          "midi": 58,
          "name": "A#3",
          "ticks": 52560,
          "time": 36.79638,
          "velocity": 0.25984251968503935
        },
        {
          "duration": 0.1792213333333379,
          "durationTicks": 256,
          "midi": 60,
          "name": "C4",
          "ticks": 52800,
          "time": 36.9644,
          "velocity": 0.29133858267716534
        },
        {
          "duration": 0.1792213333333308,
          "durationTicks": 256,
          "midi": 63,
          "name": "D#4",
          "ticks": 53040,
          "time": 37.13242,
          "velocity": 0.33070866141732286
        },
        {
          "duration": 0.1792213333333308,
          "durationTicks": 256,
          "midi": 58,
          "name": "A#3",
          "ticks": 53280,
          "time": 37.30044,
          "velocity": 0.36220472440944884
        },
        {
          "duration": 0.1792213333333308,
          "durationTicks": 256,
          "midi": 62,
          "name": "D4",
          "ticks": 53520,
          "time": 37.46846,
          "velocity": 0.3779527559055118
        },
        {
          "duration": 0.1792213333333379,
          "durationTicks": 256,
          "midi": 65,
          "name": "F4",
          "ticks": 53760,
          "time": 37.63648,
          "velocity": 0.4015748031496063
        },
        {
          "duration": 0.1792213333333379,
          "durationTicks": 256,
          "midi": 58,
          "name": "A#3",
          "ticks": 54000,
          "time": 37.8045,
          "velocity": 0.3464566929133858
        },
        {
          "duration": 0.1792213333333308,
          "durationTicks": 256,
          "midi": 62,
          "name": "D4",
          "ticks": 54240,
          "time": 37.97252,
          "velocity": 0.2755905511811024
        },
        {
          "duration": 0.1792213333333308,
          "durationTicks": 256,
          "midi": 65,
          "name": "F4",
          "ticks": 54480,
          "time": 38.14054,
          "velocity": 0.2755905511811024
        },
        {
          "duration": 0.1792213333333308,
          "durationTicks": 256,
          "midi": 53,
          "name": "F3",
          "ticks": 54720,
          "time": 38.30856,
          "velocity": 0.25984251968503935
        },
        {
          "duration": 0.1792213333333379,
          "durationTicks": 256,
          "midi": 58,
          "name": "A#3",
          "ticks": 54960,
          "time": 38.47658,
          "velocity": 0.25196850393700787
        },
        {
          "duration": 0.1792213333333308,
          "durationTicks": 256,
          "midi": 62,
          "name": "D4",
          "ticks": 55200,
          "time": 38.644600000000004,
          "velocity": 0.2440944881889764
        },
        {
          "duration": 0.1792213333333308,
          "durationTicks": 256,
          "midi": 53,
          "name": "F3",
          "ticks": 55440,
          "time": 38.81262,
          "velocity": 0.2440944881889764
        },
        {
          "duration": 0.1792213333333308,
          "durationTicks": 256,
          "midi": 60,
          "name": "C4",
          "ticks": 55680,
          "time": 38.98064,
          "velocity": 0.23622047244094488
        },
        {
          "duration": 0.109213000000004,
          "durationTicks": 156,
          "midi": 63,
          "name": "D#4",
          "ticks": 55920,
          "time": 39.14866,
          "velocity": 0.2283464566929134
        },
        {
          "duration": 0.669279666666668,
          "durationTicks": 956,
          "midi": 58,
          "name": "A#3",
          "ticks": 56160,
          "time": 39.31668,
          "velocity": 0.2755905511811024
        },
        {
          "duration": 0.5012596666666695,
          "durationTicks": 716,
          "midi": 63,
          "name": "D#4",
          "ticks": 56160,
          "time": 39.31668,
          "velocity": 0.2755905511811024
        },
        {
          "duration": 0.1792213333333308,
          "durationTicks": 256,
          "midi": 62,
          "name": "D4",
          "ticks": 56880,
          "time": 39.82074,
          "velocity": 0.23622047244094488
        },
        {
          "duration": 1.005319666666665,
          "durationTicks": 1436,
          "midi": 58,
          "name": "A#3",
          "ticks": 93600,
          "time": 65.5278,
          "velocity": 0.23622047244094488
        },
        {
          "duration": 0.45925466666666637,
          "durationTicks": 656,
          "midi": 62,
          "name": "D4",
          "ticks": 93600,
          "time": 65.5278,
          "velocity": 0.30708661417322836
        },
        {
          "duration": 0.039204666666663,
          "durationTicks": 56,
          "midi": 65,
          "name": "F4",
          "ticks": 94260,
          "time": 65.989855,
          "velocity": 0.30708661417322836
        },
        {
          "duration": 0.053206333333335465,
          "durationTicks": 76,
          "midi": 63,
          "name": "D#4",
          "ticks": 94320,
          "time": 66.03186,
          "velocity": 0.30708661417322836
        },
        {
          "duration": 0.039204666666663,
          "durationTicks": 56,
          "midi": 62,
          "name": "D4",
          "ticks": 94560,
          "time": 66.19988000000001,
          "velocity": 0.30708661417322836
        },
        {
          "duration": 0.039204666666663,
          "durationTicks": 56,
          "midi": 63,
          "name": "D#4",
          "ticks": 94800,
          "time": 66.3679,
          "velocity": 0.30708661417322836
        },
        {
          "duration": 1.005319666666665,
          "durationTicks": 1436,
          "midi": 58,
          "name": "A#3",
          "ticks": 95040,
          "time": 66.53592,
          "velocity": 0.23622047244094488
        },
        {
          "duration": 0.33323966666667104,
          "durationTicks": 476,
          "midi": 65,
          "name": "F4",
          "ticks": 95040,
          "time": 66.53592,
          "velocity": 0.30708661417322836
        },
        {
          "duration": 0.08120966666666618,
          "durationTicks": 116,
          "midi": 62,
          "name": "D4",
          "ticks": 95520,
          "time": 66.87196,
          "velocity": 0.30708661417322836
        },
        {
          "duration": 0.3752446666666742,
          "durationTicks": 536,
          "midi": 67,
          "name": "G4",
          "ticks": 95760,
          "time": 67.03998,
          "velocity": 0.30708661417322836
        },
        {
          "duration": 0.08120966666668039,
          "durationTicks": 116,
          "midi": 65,
          "name": "F4",
          "ticks": 96240,
          "time": 67.37602,
          "velocity": 0.30708661417322836
        },
        {
          "duration": 1.0053196666666793,
          "durationTicks": 1436,
          "midi": 58,
          "name": "A#3",
          "ticks": 96480,
          "time": 67.54404,
          "velocity": 0.23622047244094488
        },
        {
          "duration": 1.0053196666666793,
          "durationTicks": 1436,
          "midi": 63,
          "name": "D#4",
          "ticks": 96480,
          "time": 67.54404,
          "velocity": 0.2283464566929134
        },
        {
          "duration": 1.005319666666665,
          "durationTicks": 1436,
          "midi": 58,
          "name": "A#3",
          "ticks": 97920,
          "time": 68.55216,
          "velocity": 0.23622047244094488
        },
        {
          "duration": 1.005319666666665,
          "durationTicks": 1436,
          "midi": 60,
          "name": "C4",
          "ticks": 97920,
          "time": 68.55216,
          "velocity": 0.23622047244094488
        },
        {
          "duration": 1.005319666666665,
          "durationTicks": 1436,
          "midi": 58,
          "name": "A#3",
          "ticks": 99360,
          "time": 69.56028,
          "velocity": 0.23622047244094488
        },
        {
          "duration": 0.45925466666666637,
          "durationTicks": 656,
          "midi": 62,
          "name": "D4",
          "ticks": 99360,
          "time": 69.56028,
          "velocity": 0.30708661417322836
        },
        {
          "duration": 0.03920466666667721,
          "durationTicks": 56,
          "midi": 65,
          "name": "F4",
          "ticks": 100020,
          "time": 70.022335,
          "velocity": 0.30708661417322836
        },
        {
          "duration": 0.08120966666666618,
          "durationTicks": 116,
          "midi": 63,
          "name": "D#4",
          "ticks": 100080,
          "time": 70.06434,
          "velocity": 0.30708661417322836
        },
        {
          "duration": 0.03920466666667721,
          "durationTicks": 56,
          "midi": 62,
          "name": "D4",
          "ticks": 100320,
          "time": 70.23236,
          "velocity": 0.30708661417322836
        },
        {
          "duration": 0.03920466666667721,
          "durationTicks": 56,
          "midi": 63,
          "name": "D#4",
          "ticks": 100560,
          "time": 70.40038,
          "velocity": 0.30708661417322836
        },
        {
          "duration": 1.0053196666666793,
          "durationTicks": 1436,
          "midi": 58,
          "name": "A#3",
          "ticks": 100800,
          "time": 70.5684,
          "velocity": 0.23622047244094488
        },
        {
          "duration": 0.33323966666667104,
          "durationTicks": 476,
          "midi": 65,
          "name": "F4",
          "ticks": 100800,
          "time": 70.5684,
          "velocity": 0.30708661417322836
        },
        {
          "duration": 0.08120966666666618,
          "durationTicks": 116,
          "midi": 62,
          "name": "D4",
          "ticks": 101280,
          "time": 70.90444000000001,
          "velocity": 0.30708661417322836
        },
        {
          "duration": 0.33323966666665683,
          "durationTicks": 476,
          "midi": 67,
          "name": "G4",
          "ticks": 101520,
          "time": 71.07246,
          "velocity": 0.30708661417322836
        },
        {
          "duration": 0.08120966666666618,
          "durationTicks": 116,
          "midi": 65,
          "name": "F4",
          "ticks": 102000,
          "time": 71.4085,
          "velocity": 0.30708661417322836
        },
        {
          "duration": 1.005319666666665,
          "durationTicks": 1436,
          "midi": 58,
          "name": "A#3",
          "ticks": 102240,
          "time": 71.57652,
          "velocity": 0.23622047244094488
        },
        {
          "duration": 1.005319666666665,
          "durationTicks": 1436,
          "midi": 63,
          "name": "D#4",
          "ticks": 102240,
          "time": 71.57652,
          "velocity": 0.23622047244094488
        },
        {
          "duration": 1.005319666666665,
          "durationTicks": 1436,
          "midi": 58,
          "name": "A#3",
          "ticks": 103680,
          "time": 72.58464000000001,
          "velocity": 0.23622047244094488
        },
        {
          "duration": 1.005319666666665,
          "durationTicks": 1436,
          "midi": 60,
          "name": "C4",
          "ticks": 103680,
          "time": 72.58464000000001,
          "velocity": 0.23622047244094488
        },
        {
          "duration": 0.16521966666667254,
          "durationTicks": 236,
          "midi": 58,
          "name": "A#3",
          "ticks": 105120,
          "time": 73.59276,
          "velocity": 0.23622047244094488
        },
        {
          "duration": 0.16521966666667254,
          "durationTicks": 236,
          "midi": 62,
          "name": "D4",
          "ticks": 105120,
          "time": 73.59276,
          "velocity": 0.23622047244094488
        },
        {
          "duration": 0.053206333333335465,
          "durationTicks": 76,
          "midi": 34,
          "name": "A#1",
          "ticks": 108000,
          "time": 75.609,
          "velocity": 0.3464566929133858
        },
        {
          "duration": 0.053206333333335465,
          "durationTicks": 76,
          "midi": 46,
          "name": "A#2",
          "ticks": 108120,
          "time": 75.69301,
          "velocity": 0.3543307086614173
        },
        {
          "duration": 0.053206333333321254,
          "durationTicks": 76,
          "midi": 45,
          "name": "A2",
          "ticks": 108240,
          "time": 75.77702000000001,
          "velocity": 0.36220472440944884
        },
        {
          "duration": 0.053206333333335465,
          "durationTicks": 76,
          "midi": 46,
          "name": "A#2",
          "ticks": 108360,
          "time": 75.86103,
          "velocity": 0.3700787401574803
        },
        {
          "duration": 0.053206333333321254,
          "durationTicks": 76,
          "midi": 36,
          "name": "C2",
          "ticks": 108480,
          "time": 75.94504,
          "velocity": 0.3779527559055118
        },
        {
          "duration": 0.053206333333335465,
          "durationTicks": 76,
          "midi": 48,
          "name": "C3",
          "ticks": 108600,
          "time": 76.02905,
          "velocity": 0.3858267716535433
        },
        {
          "duration": 0.053206333333335465,
          "durationTicks": 76,
          "midi": 38,
          "name": "D2",
          "ticks": 108720,
          "time": 76.11306,
          "velocity": 0.3937007874015748
        },
        {
          "duration": 0.053206333333335465,
          "durationTicks": 76,
          "midi": 50,
          "name": "D3",
          "ticks": 108840,
          "time": 76.19707,
          "velocity": 0.4015748031496063
        },
        {
          "duration": 0.053206333333335465,
          "durationTicks": 76,
          "midi": 48,
          "name": "C3",
          "ticks": 108960,
          "time": 76.28108,
          "velocity": 0.4094488188976378
        },
        {
          "duration": 0.053206333333335465,
          "durationTicks": 76,
          "midi": 50,
          "name": "D3",
          "ticks": 109080,
          "time": 76.36509,
          "velocity": 0.41732283464566927
        },
        {
          "duration": 0.053206333333335465,
          "durationTicks": 76,
          "midi": 40,
          "name": "E2",
          "ticks": 109200,
          "time": 76.4491,
          "velocity": 0.4251968503937008
        },
        {
          "duration": 0.053206333333321254,
          "durationTicks": 76,
          "midi": 52,
          "name": "E3",
          "ticks": 109320,
          "time": 76.53311000000001,
          "velocity": 0.4330708661417323
        },
        {
          "duration": 0.33323966666667104,
          "durationTicks": 476,
          "midi": 41,
          "name": "F2",
          "ticks": 109440,
          "time": 76.61712,
          "velocity": 0.4251968503937008
        },
        {
          "duration": 0.08120966666668039,
          "durationTicks": 116,
          "midi": 65,
          "name": "F4",
          "ticks": 110160,
          "time": 77.12118,
          "velocity": 0.4251968503937008
        },
        {
          "duration": 0.08120966666666618,
          "durationTicks": 116,
          "midi": 64,
          "name": "E4",
          "ticks": 110280,
          "time": 77.20519,
          "velocity": 0.33858267716535434
        },
        {
          "duration": 0.08120966666666618,
          "durationTicks": 116,
          "midi": 65,
          "name": "F4",
          "ticks": 110400,
          "time": 77.28920000000001,
          "velocity": 0.3228346456692913
        },
        {
          "duration": 0.08120966666666618,
          "durationTicks": 116,
          "midi": 64,
          "name": "E4",
          "ticks": 110520,
          "time": 77.37321,
          "velocity": 0.30708661417322836
        },
        {
          "duration": 0.08120966666666618,
          "durationTicks": 116,
          "midi": 65,
          "name": "F4",
          "ticks": 110640,
          "time": 77.45722,
          "velocity": 0.29133858267716534
        },
        {
          "duration": 0.08120966666666618,
          "durationTicks": 116,
          "midi": 64,
          "name": "E4",
          "ticks": 110760,
          "time": 77.54123,
          "velocity": 0.2755905511811024
        },
        {
          "duration": 0.24922966666666468,
          "durationTicks": 356,
          "midi": 65,
          "name": "F4",
          "ticks": 110880,
          "time": 77.62524,
          "velocity": 0.25984251968503935
        },
        {
          "duration": 0.08120966666666618,
          "durationTicks": 116,
          "midi": 77,
          "name": "F5",
          "ticks": 111600,
          "time": 78.1293,
          "velocity": 0.5039370078740157
        },
        {
          "duration": 0.08120966666666618,
          "durationTicks": 116,
          "midi": 76,
          "name": "E5",
          "ticks": 111720,
          "time": 78.21331,
          "velocity": 0.4015748031496063
        },
        {
          "duration": 0.08120966666666618,
          "durationTicks": 116,
          "midi": 77,
          "name": "F5",
          "ticks": 111840,
          "time": 78.29732,
          "velocity": 0.3858267716535433
        },
        {
          "duration": 0.08120966666666618,
          "durationTicks": 116,
          "midi": 76,
          "name": "E5",
          "ticks": 111960,
          "time": 78.38133,
          "velocity": 0.36220472440944884
        },
        {
          "duration": 0.08120966666666618,
          "durationTicks": 116,
          "midi": 77,
          "name": "F5",
          "ticks": 112080,
          "time": 78.46534,
          "velocity": 0.3464566929133858
        },
        {
          "duration": 0.08120966666666618,
          "durationTicks": 116,
          "midi": 76,
          "name": "E5",
          "ticks": 112200,
          "time": 78.54935,
          "velocity": 0.33070866141732286
        },
        {
          "duration": 0.16521966666667254,
          "durationTicks": 236,
          "midi": 77,
          "name": "F5",
          "ticks": 112320,
          "time": 78.63336,
          "velocity": 0.30708661417322836
        },
        {
          "duration": 0.16521966666665833,
          "durationTicks": 236,
          "midi": 67,
          "name": "G4",
          "ticks": 115440,
          "time": 80.81762,
          "velocity": 0.2677165354330709
        },
        {
          "duration": 0.16521966666665833,
          "durationTicks": 236,
          "midi": 70,
          "name": "A#4",
          "ticks": 115440,
          "time": 80.81762,
          "velocity": 0.3464566929133858
        },
        {
          "duration": 0.16521966666667254,
          "durationTicks": 236,
          "midi": 69,
          "name": "A4",
          "ticks": 115680,
          "time": 80.98564,
          "velocity": 0.2677165354330709
        },
        {
          "duration": 0.16521966666667254,
          "durationTicks": 236,
          "midi": 72,
          "name": "C5",
          "ticks": 115680,
          "time": 80.98564,
          "velocity": 0.3464566929133858
        },
        {
          "duration": 0.16521966666667254,
          "durationTicks": 236,
          "midi": 70,
          "name": "A#4",
          "ticks": 115920,
          "time": 81.15366,
          "velocity": 0.2677165354330709
        },
        {
          "duration": 0.16521966666667254,
          "durationTicks": 236,
          "midi": 73,
          "name": "C#5",
          "ticks": 115920,
          "time": 81.15366,
          "velocity": 0.3464566929133858
        },
        {
          "duration": 0.16521966666667254,
          "durationTicks": 236,
          "midi": 69,
          "name": "A4",
          "ticks": 118320,
          "time": 82.83386,
          "velocity": 0.29133858267716534
        },
        {
          "duration": 0.16521966666667254,
          "durationTicks": 236,
          "midi": 72,
          "name": "C5",
          "ticks": 118320,
          "time": 82.83386,
          "velocity": 0.3779527559055118
        },
        {
          "duration": 0.16521966666667254,
          "durationTicks": 236,
          "midi": 70,
          "name": "A#4",
          "ticks": 118560,
          "time": 83.00188,
          "velocity": 0.2677165354330709
        },
        {
          "duration": 0.16521966666667254,
          "durationTicks": 236,
          "midi": 74,
          "name": "D5",
          "ticks": 118560,
          "time": 83.00188,
          "velocity": 0.3464566929133858
        },
        {
          "duration": 0.2772329999999954,
          "durationTicks": 396,
          "midi": 72,
          "name": "C5",
          "ticks": 118800,
          "time": 83.1699,
          "velocity": 0.2440944881889764
        },
        {
          "duration": 0.2772329999999954,
          "durationTicks": 396,
          "midi": 75,
          "name": "D#5",
          "ticks": 118800,
          "time": 83.1699,
          "velocity": 0.2677165354330709
        },
        {
          "duration": 1.005319666666665,
          "durationTicks": 1436,
          "midi": 58,
          "name": "A#3",
          "ticks": 120960,
          "time": 84.68208,
          "velocity": 0.2677165354330709
        },
        {
          "duration": 1.005319666666665,
          "durationTicks": 1436,
          "midi": 62,
          "name": "D4",
          "ticks": 120960,
          "time": 84.68208,
          "velocity": 0.2677165354330709
        },
        {
          "duration": 0.08120966666668039,
          "durationTicks": 116,
          "midi": 57,
          "name": "A3",
          "ticks": 122520,
          "time": 85.77421,
          "velocity": 0.3464566929133858
        },
        {
          "duration": 0.08120966666666618,
          "durationTicks": 116,
          "midi": 60,
          "name": "C4",
          "ticks": 122640,
          "time": 85.85822,
          "velocity": 0.3464566929133858
        },
        {
          "duration": 0.08120966666668039,
          "durationTicks": 116,
          "midi": 63,
          "name": "D#4",
          "ticks": 122760,
          "time": 85.94223,
          "velocity": 0.3464566929133858
        },
        {
          "duration": 0.08120966666666618,
          "durationTicks": 116,
          "midi": 66,
          "name": "F#4",
          "ticks": 122880,
          "time": 86.02624,
          "velocity": 0.3464566929133858
        },
        {
          "duration": 0.08120966666666618,
          "durationTicks": 116,
          "midi": 69,
          "name": "A4",
          "ticks": 123000,
          "time": 86.11025000000001,
          "velocity": 0.3464566929133858
        },
        {
          "duration": 1.0053196666666793,
          "durationTicks": 1436,
          "midi": 58,
          "name": "A#3",
          "ticks": 123840,
          "time": 86.69832,
          "velocity": 0.2677165354330709
        },
        {
          "duration": 1.0053196666666793,
          "durationTicks": 1436,
          "midi": 62,
          "name": "D4",
          "ticks": 123840,
          "time": 86.69832,
          "velocity": 0.2677165354330709
        },
        {
          "duration": 0.08120966666666618,
          "durationTicks": 116,
          "midi": 57,
          "name": "A3",
          "ticks": 125400,
          "time": 87.79045,
          "velocity": 0.3464566929133858
        },
        {
          "duration": 0.08120966666666618,
          "durationTicks": 116,
          "midi": 60,
          "name": "C4",
          "ticks": 125520,
          "time": 87.87446,
          "velocity": 0.3464566929133858
        },
        {
          "duration": 0.08120966666666618,
          "durationTicks": 116,
          "midi": 63,
          "name": "D#4",
          "ticks": 125640,
          "time": 87.95847,
          "velocity": 0.3464566929133858
        },
        {
          "duration": 0.08120966666666618,
          "durationTicks": 116,
          "midi": 66,
          "name": "F#4",
          "ticks": 125760,
          "time": 88.04248,
          "velocity": 0.3464566929133858
        },
        {
          "duration": 0.08120966666666618,
          "durationTicks": 116,
          "midi": 69,
          "name": "A4",
          "ticks": 125880,
          "time": 88.12649,
          "velocity": 0.3464566929133858
        },
        {
          "duration": 1.005319666666665,
          "durationTicks": 1436,
          "midi": 58,
          "name": "A#3",
          "ticks": 126720,
          "time": 88.71456,
          "velocity": 0.2677165354330709
        },
        {
          "duration": 1.005319666666665,
          "durationTicks": 1436,
          "midi": 62,
          "name": "D4",
          "ticks": 126720,
          "time": 88.71456,
          "velocity": 0.2677165354330709
        },
        {
          "duration": 0.08120966666666618,
          "durationTicks": 116,
          "midi": 55,
          "name": "G3",
          "ticks": 128280,
          "time": 89.80669,
          "velocity": 0.3464566929133858
        },
        {
          "duration": 0.08120966666668039,
          "durationTicks": 116,
          "midi": 58,
          "name": "A#3",
          "ticks": 128400,
          "time": 89.8907,
          "velocity": 0.3464566929133858
        },
        {
          "duration": 0.08120966666666618,
          "durationTicks": 116,
          "midi": 61,
          "name": "C#4",
          "ticks": 128520,
          "time": 89.97471,
          "velocity": 0.3464566929133858
        },
        {
          "duration": 0.08120966666666618,
          "durationTicks": 116,
          "midi": 64,
          "name": "E4",
          "ticks": 128640,
          "time": 90.05872000000001,
          "velocity": 0.3464566929133858
        },
        {
          "duration": 0.08120966666666618,
          "durationTicks": 116,
          "midi": 67,
          "name": "G4",
          "ticks": 128760,
          "time": 90.14273,
          "velocity": 0.3464566929133858
        },
        {
          "duration": 1.005319666666665,
          "durationTicks": 1436,
          "midi": 56,
          "name": "G#3",
          "ticks": 129600,
          "time": 90.7308,
          "velocity": 0.2677165354330709
        },
        {
          "duration": 1.005319666666665,
          "durationTicks": 1436,
          "midi": 60,
          "name": "C4",
          "ticks": 129600,
          "time": 90.7308,
          "velocity": 0.2677165354330709
        },
        {
          "duration": 1.005319666666665,
          "durationTicks": 1436,
          "midi": 65,
          "name": "F4",
          "ticks": 131040,
          "time": 91.73892000000001,
          "velocity": 0.2677165354330709
        },
        {
          "duration": 1.005319666666665,
          "durationTicks": 1436,
          "midi": 68,
          "name": "G#4",
          "ticks": 131040,
          "time": 91.73892000000001,
          "velocity": 0.3464566929133858
        },
        {
          "duration": 1.0053196666666793,
          "durationTicks": 1436,
          "midi": 61,
          "name": "C#4",
          "ticks": 132480,
          "time": 92.74704,
          "velocity": 0.3464566929133858
        },
        {
          "duration": 1.0053196666666793,
          "durationTicks": 1436,
          "midi": 65,
          "name": "F4",
          "ticks": 132480,
          "time": 92.74704,
          "velocity": 0.3464566929133858
        },
        {
          "duration": 0.08120966666668039,
          "durationTicks": 116,
          "midi": 68,
          "name": "G#4",
          "ticks": 134040,
          "time": 93.83917,
          "velocity": 0.4330708661417323
        },
        {
          "duration": 0.08120966666666618,
          "durationTicks": 116,
          "midi": 67,
          "name": "G4",
          "ticks": 134160,
          "time": 93.92318,
          "velocity": 0.4409448818897638
        },
        {
          "duration": 0.08120966666666618,
          "durationTicks": 116,
          "midi": 68,
          "name": "G#4",
          "ticks": 134280,
          "time": 94.00719000000001,
          "velocity": 0.44881889763779526
        },
        {
          "duration": 0.08120966666666618,
          "durationTicks": 116,
          "midi": 66,
          "name": "F#4",
          "ticks": 134400,
          "time": 94.0912,
          "velocity": 0.4566929133858268
        },
        {
          "duration": 0.08120966666666618,
          "durationTicks": 116,
          "midi": 68,
          "name": "G#4",
          "ticks": 134520,
          "time": 94.17521,
          "velocity": 0.4645669291338583
        },
        {
          "duration": 0.08120966666666618,
          "durationTicks": 116,
          "midi": 65,
          "name": "F4",
          "ticks": 134640,
          "time": 94.25922,
          "velocity": 0.47244094488188976
        },
        {
          "duration": 0.08120966666666618,
          "durationTicks": 116,
          "midi": 68,
          "name": "G#4",
          "ticks": 134760,
          "time": 94.34323,
          "velocity": 0.48031496062992124
        },
        {
          "duration": 0.08120966666666618,
          "durationTicks": 116,
          "midi": 63,
          "name": "D#4",
          "ticks": 134880,
          "time": 94.42724,
          "velocity": 0.4881889763779528
        },
        {
          "duration": 0.08120966666666618,
          "durationTicks": 116,
          "midi": 68,
          "name": "G#4",
          "ticks": 135000,
          "time": 94.51125,
          "velocity": 0.49606299212598426
        },
        {
          "duration": 0.08120966666668039,
          "durationTicks": 116,
          "midi": 61,
          "name": "C#4",
          "ticks": 135120,
          "time": 94.59526,
          "velocity": 0.5039370078740157
        },
        {
          "duration": 0.08120966666666618,
          "durationTicks": 116,
          "midi": 68,
          "name": "G#4",
          "ticks": 135240,
          "time": 94.67927,
          "velocity": 0.5196850393700787
        },
        {
          "duration": 0.18202166666668518,
          "durationTicks": 260,
          "midi": 60,
          "name": "C4",
          "ticks": 135360,
          "time": 94.76328,
          "velocity": 0.41732283464566927
        },
        {
          "duration": 0.18202166666667097,
          "durationTicks": 260,
          "midi": 64,
          "name": "E4",
          "ticks": 135600,
          "time": 94.93130000000001,
          "velocity": 0.33858267716535434
        },
        {
          "duration": 0.18202166666667097,
          "durationTicks": 260,
          "midi": 67,
          "name": "G4",
          "ticks": 135840,
          "time": 95.09932,
          "velocity": 0.25984251968503935
        },
        {
          "duration": 0.18202166666667097,
          "durationTicks": 260,
          "midi": 60,
          "name": "C4",
          "ticks": 136080,
          "time": 95.26734,
          "velocity": 0.25984251968503935
        },
        {
          "duration": 0.18202166666667097,
          "durationTicks": 260,
          "midi": 64,
          "name": "E4",
          "ticks": 136320,
          "time": 95.43536,
          "velocity": 0.25984251968503935
        },
        {
          "duration": 0.18202166666667097,
          "durationTicks": 260,
          "midi": 67,
          "name": "G4",
          "ticks": 136560,
          "time": 95.60338,
          "velocity": 0.25984251968503935
        },
        {
          "duration": 0.18202166666667097,
          "durationTicks": 260,
          "midi": 60,
          "name": "C4",
          "ticks": 136800,
          "time": 95.7714,
          "velocity": 0.25984251968503935
        },
        {
          "duration": 0.18202166666667097,
          "durationTicks": 260,
          "midi": 65,
          "name": "F4",
          "ticks": 137040,
          "time": 95.93942,
          "velocity": 0.25984251968503935
        },
        {
          "duration": 0.18202166666667097,
          "durationTicks": 260,
          "midi": 68,
          "name": "G#4",
          "ticks": 137280,
          "time": 96.10744,
          "velocity": 0.25984251968503935
        },
        {
          "duration": 0.18202166666668518,
          "durationTicks": 260,
          "midi": 60,
          "name": "C4",
          "ticks": 137520,
          "time": 96.27546,
          "velocity": 0.25984251968503935
        },
        {
          "duration": 0.18202166666667097,
          "durationTicks": 260,
          "midi": 65,
          "name": "F4",
          "ticks": 137760,
          "time": 96.44348000000001,
          "velocity": 0.25984251968503935
        },
        {
          "duration": 0.18202166666667097,
          "durationTicks": 260,
          "midi": 68,
          "name": "G#4",
          "ticks": 138000,
          "time": 96.6115,
          "velocity": 0.25984251968503935
        },
        {
          "duration": 0.18202166666667097,
          "durationTicks": 260,
          "midi": 60,
          "name": "C4",
          "ticks": 138240,
          "time": 96.77952,
          "velocity": 0.2283464566929134
        },
        {
          "duration": 0.18202166666667097,
          "durationTicks": 260,
          "midi": 64,
          "name": "E4",
          "ticks": 138480,
          "time": 96.94754,
          "velocity": 0.2283464566929134
        },
        {
          "duration": 0.18202166666667097,
          "durationTicks": 260,
          "midi": 67,
          "name": "G4",
          "ticks": 138720,
          "time": 97.11556,
          "velocity": 0.2283464566929134
        },
        {
          "duration": 0.18202166666667097,
          "durationTicks": 260,
          "midi": 60,
          "name": "C4",
          "ticks": 138960,
          "time": 97.28358,
          "velocity": 0.2283464566929134
        },
        {
          "duration": 0.18202166666667097,
          "durationTicks": 260,
          "midi": 64,
          "name": "E4",
          "ticks": 139200,
          "time": 97.4516,
          "velocity": 0.2283464566929134
        },
        {
          "duration": 0.18202166666667097,
          "durationTicks": 260,
          "midi": 67,
          "name": "G4",
          "ticks": 139440,
          "time": 97.61962,
          "velocity": 0.2283464566929134
        },
        {
          "duration": 0.18202166666668518,
          "durationTicks": 260,
          "midi": 60,
          "name": "C4",
          "ticks": 139680,
          "time": 97.78764,
          "velocity": 0.2283464566929134
        },
        {
          "duration": 0.18202166666668518,
          "durationTicks": 260,
          "midi": 65,
          "name": "F4",
          "ticks": 139920,
          "time": 97.95566,
          "velocity": 0.23622047244094488
        },
        {
          "duration": 0.18202166666667097,
          "durationTicks": 260,
          "midi": 68,
          "name": "G#4",
          "ticks": 140160,
          "time": 98.12368000000001,
          "velocity": 0.23622047244094488
        },
        {
          "duration": 0.18202166666667097,
          "durationTicks": 260,
          "midi": 60,
          "name": "C4",
          "ticks": 140400,
          "time": 98.2917,
          "velocity": 0.2440944881889764
        },
        {
          "duration": 0.18202166666667097,
          "durationTicks": 260,
          "midi": 65,
          "name": "F4",
          "ticks": 140640,
          "time": 98.45972,
          "velocity": 0.25196850393700787
        },
        {
          "duration": 0.18202166666667097,
          "durationTicks": 260,
          "midi": 68,
          "name": "G#4",
          "ticks": 140880,
          "time": 98.62774,
          "velocity": 0.25984251968503935
        },
        {
          "duration": 0.18202166666667097,
          "durationTicks": 260,
          "midi": 60,
          "name": "C4",
          "ticks": 141120,
          "time": 98.79576,
          "velocity": 0.2204724409448819
        },
        {
          "duration": 0.053206333333335465,
          "durationTicks": 76,
          "midi": 65,
          "name": "F4",
          "ticks": 147600,
          "time": 103.3323,
          "velocity": 0.23622047244094488
        },
        {
          "duration": 0.053206333333335465,
          "durationTicks": 76,
          "midi": 67,
          "name": "G4",
          "ticks": 147600,
          "time": 103.3323,
          "velocity": 0.23622047244094488
        },
        {
          "duration": 0.053206333333335465,
          "durationTicks": 76,
          "midi": 73,
          "name": "C#5",
          "ticks": 147600,
          "time": 103.3323,
          "velocity": 0.29133858267716534
        },
        {
          "duration": 0.053206333333335465,
          "durationTicks": 76,
          "midi": 65,
          "name": "F4",
          "ticks": 147840,
          "time": 103.50032,
          "velocity": 0.23622047244094488
        },
        {
          "duration": 0.053206333333335465,
          "durationTicks": 76,
          "midi": 67,
          "name": "G4",
          "ticks": 147840,
          "time": 103.50032,
          "velocity": 0.23622047244094488
        },
        {
          "duration": 0.053206333333335465,
          "durationTicks": 76,
          "midi": 73,
          "name": "C#5",
          "ticks": 147840,
          "time": 103.50032,
          "velocity": 0.29133858267716534
        },
        {
          "duration": 0.053206333333349676,
          "durationTicks": 76,
          "midi": 65,
          "name": "F4",
          "ticks": 148080,
          "time": 103.66834,
          "velocity": 0.23622047244094488
        },
        {
          "duration": 0.053206333333349676,
          "durationTicks": 76,
          "midi": 67,
          "name": "G4",
          "ticks": 148080,
          "time": 103.66834,
          "velocity": 0.23622047244094488
        },
        {
          "duration": 0.053206333333349676,
          "durationTicks": 76,
          "midi": 73,
          "name": "C#5",
          "ticks": 148080,
          "time": 103.66834,
          "velocity": 0.29133858267716534
        },
        {
          "duration": 0.33323966666667104,
          "durationTicks": 476,
          "midi": 64,
          "name": "E4",
          "ticks": 148320,
          "time": 103.83636,
          "velocity": 0.23622047244094488
        },
        {
          "duration": 0.33323966666667104,
          "durationTicks": 476,
          "midi": 67,
          "name": "G4",
          "ticks": 148320,
          "time": 103.83636,
          "velocity": 0.23622047244094488
        },
        {
          "duration": 0.33323966666667104,
          "durationTicks": 476,
          "midi": 72,
          "name": "C5",
          "ticks": 148320,
          "time": 103.83636,
          "velocity": 0.29133858267716534
        },
        {
          "duration": 0.053206333333349676,
          "durationTicks": 76,
          "midi": 65,
          "name": "F4",
          "ticks": 150480,
          "time": 105.34854,
          "velocity": 0.23622047244094488
        },
        {
          "duration": 0.053206333333349676,
          "durationTicks": 76,
          "midi": 67,
          "name": "G4",
          "ticks": 150480,
          "time": 105.34854,
          "velocity": 0.23622047244094488
        },
        {
          "duration": 0.053206333333349676,
          "durationTicks": 76,
          "midi": 73,
          "name": "C#5",
          "ticks": 150480,
          "time": 105.34854,
          "velocity": 0.29133858267716534
        },
        {
          "duration": 0.053206333333349676,
          "durationTicks": 76,
          "midi": 65,
          "name": "F4",
          "ticks": 150720,
          "time": 105.51656,
          "velocity": 0.23622047244094488
        },
        {
          "duration": 0.053206333333349676,
          "durationTicks": 76,
          "midi": 67,
          "name": "G4",
          "ticks": 150720,
          "time": 105.51656,
          "velocity": 0.23622047244094488
        },
        {
          "duration": 0.053206333333349676,
          "durationTicks": 76,
          "midi": 73,
          "name": "C#5",
          "ticks": 150720,
          "time": 105.51656,
          "velocity": 0.29133858267716534
        },
        {
          "duration": 0.053206333333349676,
          "durationTicks": 76,
          "midi": 65,
          "name": "F4",
          "ticks": 150960,
          "time": 105.68458,
          "velocity": 0.23622047244094488
        },
        {
          "duration": 0.053206333333349676,
          "durationTicks": 76,
          "midi": 67,
          "name": "G4",
          "ticks": 150960,
          "time": 105.68458,
          "velocity": 0.23622047244094488
        },
        {
          "duration": 0.053206333333349676,
          "durationTicks": 76,
          "midi": 73,
          "name": "C#5",
          "ticks": 150960,
          "time": 105.68458,
          "velocity": 0.29133858267716534
        },
        {
          "duration": 0.33323966666667104,
          "durationTicks": 476,
          "midi": 64,
          "name": "E4",
          "ticks": 151200,
          "time": 105.8526,
          "velocity": 0.23622047244094488
        },
        {
          "duration": 0.33323966666667104,
          "durationTicks": 476,
          "midi": 67,
          "name": "G4",
          "ticks": 151200,
          "time": 105.8526,
          "velocity": 0.23622047244094488
        },
        {
          "duration": 0.33323966666667104,
          "durationTicks": 476,
          "midi": 72,
          "name": "C5",
          "ticks": 151200,
          "time": 105.8526,
          "velocity": 0.29133858267716534
        },
        {
          "duration": 0.16521966666667254,
          "durationTicks": 236,
          "midi": 69,
          "name": "A4",
          "ticks": 155280,
          "time": 108.70894,
          "velocity": 0.25984251968503935
        },
        {
          "duration": 0.16521966666667254,
          "durationTicks": 236,
          "midi": 60,
          "name": "C4",
          "ticks": 155520,
          "time": 108.87696,
          "velocity": 0.25984251968503935
        },
        {
          "duration": 0.08120966666668039,
          "durationTicks": 116,
          "midi": 70,
          "name": "A#4",
          "ticks": 155520,
          "time": 108.87696,
          "velocity": 0.33858267716535434
        },
        {
          "duration": 0.16521966666665833,
          "durationTicks": 236,
          "midi": 69,
          "name": "A4",
          "ticks": 156000,
          "time": 109.21300000000001,
          "velocity": 0.25984251968503935
        },
        {
          "duration": 0.08120966666666618,
          "durationTicks": 116,
          "midi": 60,
          "name": "C4",
          "ticks": 156240,
          "time": 109.38102,
          "velocity": 0.25984251968503935
        },
        {
          "duration": 0.16521966666665833,
          "durationTicks": 236,
          "midi": 70,
          "name": "A#4",
          "ticks": 156240,
          "time": 109.38102,
          "velocity": 0.33858267716535434
        },
        {
          "duration": 0.16521966666667254,
          "durationTicks": 236,
          "midi": 69,
          "name": "A4",
          "ticks": 156720,
          "time": 109.71706,
          "velocity": 0.25984251968503935
        },
        {
          "duration": 0.8372996666666666,
          "durationTicks": 1196,
          "midi": 60,
          "name": "C4",
          "ticks": 156960,
          "time": 109.88508,
          "velocity": 0.25984251968503935
        },
        {
          "duration": 0.8372996666666666,
          "durationTicks": 1196,
          "midi": 64,
          "name": "E4",
          "ticks": 156960,
          "time": 109.88508,
          "velocity": 0.33858267716535434
        },
        {
          "duration": 0.08120966666666618,
          "durationTicks": 116,
          "midi": 62,
          "name": "D4",
          "ticks": 158160,
          "time": 110.72518000000001,
          "velocity": 0.25984251968503935
        },
        {
          "duration": 0.08120966666666618,
          "durationTicks": 116,
          "midi": 65,
          "name": "F4",
          "ticks": 158160,
          "time": 110.72518000000001,
          "velocity": 0.25984251968503935
        },
        {
          "duration": 0.33323966666665683,
          "durationTicks": 476,
          "midi": 58,
          "name": "A#3",
          "ticks": 158400,
          "time": 110.89320000000001,
          "velocity": 0.25984251968503935
        },
        {
          "duration": 0.33323966666665683,
          "durationTicks": 476,
          "midi": 62,
          "name": "D4",
          "ticks": 158400,
          "time": 110.89320000000001,
          "velocity": 0.25984251968503935
        },
        {
          "duration": 0.33323966666667104,
          "durationTicks": 476,
          "midi": 59,
          "name": "B3",
          "ticks": 159120,
          "time": 111.39726,
          "velocity": 0.33858267716535434
        },
        {
          "duration": 0.33323966666667104,
          "durationTicks": 476,
          "midi": 62,
          "name": "D4",
          "ticks": 159120,
          "time": 111.39726,
          "velocity": 0.33858267716535434
        },
        {
          "duration": 0.669279666666668,
          "durationTicks": 956,
          "midi": 60,
          "name": "C4",
          "ticks": 159840,
          "time": 111.90132,
          "velocity": 0.25984251968503935
        },
        {
          "duration": 0.5012596666666695,
          "durationTicks": 716,
          "midi": 69,
          "name": "A4",
          "ticks": 159840,
          "time": 111.90132,
          "velocity": 0.33858267716535434
        },
        {
          "duration": 0.16521966666665833,
          "durationTicks": 236,
          "midi": 67,
          "name": "G4",
          "ticks": 160560,
          "time": 112.40538000000001,
          "velocity": 0.25984251968503935
        },
        {
          "duration": 0.16521966666667254,
          "durationTicks": 236,
          "midi": 69,
          "name": "A4",
          "ticks": 161040,
          "time": 112.74142,
          "velocity": 0.25984251968503935
        },
        {
          "duration": 0.16521966666667254,
          "durationTicks": 236,
          "midi": 60,
          "name": "C4",
          "ticks": 161280,
          "time": 112.90944,
          "velocity": 0.25984251968503935
        },
        {
          "duration": 0.16521966666667254,
          "durationTicks": 236,
          "midi": 70,
          "name": "A#4",
          "ticks": 161280,
          "time": 112.90944,
          "velocity": 0.33858267716535434
        },
        {
          "duration": 0.16521966666667254,
          "durationTicks": 236,
          "midi": 69,
          "name": "A4",
          "ticks": 161760,
          "time": 113.24548,
          "velocity": 0.25984251968503935
        },
        {
          "duration": 0.16521966666667254,
          "durationTicks": 236,
          "midi": 60,
          "name": "C4",
          "ticks": 162000,
          "time": 113.4135,
          "velocity": 0.25984251968503935
        },
        {
          "duration": 0.16521966666667254,
          "durationTicks": 236,
          "midi": 70,
          "name": "A#4",
          "ticks": 162000,
          "time": 113.4135,
          "velocity": 0.33858267716535434
        },
        {
          "duration": 0.16521966666667254,
          "durationTicks": 236,
          "midi": 69,
          "name": "A4",
          "ticks": 162480,
          "time": 113.74954,
          "velocity": 0.25984251968503935
        },
        {
          "duration": 0.5012596666666553,
          "durationTicks": 716,
          "midi": 60,
          "name": "C4",
          "ticks": 162720,
          "time": 113.91756000000001,
          "velocity": 0.25984251968503935
        },
        {
          "duration": 0.8372996666666666,
          "durationTicks": 1196,
          "midi": 64,
          "name": "E4",
          "ticks": 162720,
          "time": 113.91756000000001,
          "velocity": 0.33858267716535434
        },
        {
          "duration": 0.33323966666667104,
          "durationTicks": 476,
          "midi": 61,
          "name": "C#4",
          "ticks": 163440,
          "time": 114.42162,
          "velocity": 0.33858267716535434
        },
        {
          "duration": 0.16521966666667254,
          "durationTicks": 236,
          "midi": 62,
          "name": "D4",
          "ticks": 163920,
          "time": 114.75766,
          "velocity": 0.25984251968503935
        },
        {
          "duration": 0.16521966666667254,
          "durationTicks": 236,
          "midi": 65,
          "name": "F4",
          "ticks": 163920,
          "time": 114.75766,
          "velocity": 0.33858267716535434
        },
        {
          "duration": 0.33323966666667104,
          "durationTicks": 476,
          "midi": 58,
          "name": "A#3",
          "ticks": 164160,
          "time": 114.92568,
          "velocity": 0.25984251968503935
        },
        {
          "duration": 0.33323966666667104,
          "durationTicks": 476,
          "midi": 62,
          "name": "D4",
          "ticks": 164160,
          "time": 114.92568,
          "velocity": 0.33858267716535434
        },
        {
          "duration": 0.08120966666666618,
          "durationTicks": 116,
          "midi": 60,
          "name": "C4",
          "ticks": 165360,
          "time": 115.76578,
          "velocity": 0.25984251968503935
        },
        {
          "duration": 0.08120966666666618,
          "durationTicks": 116,
          "midi": 67,
          "name": "G4",
          "ticks": 165360,
          "time": 115.76578,
          "velocity": 0.33858267716535434
        },
        {
          "duration": 0.669279666666668,
          "durationTicks": 956,
          "midi": 65,
          "name": "F4",
          "ticks": 165600,
          "time": 115.9338,
          "velocity": 0.25984251968503935
        },
        {
          "duration": 0.5012596666666695,
          "durationTicks": 716,
          "midi": 70,
          "name": "A#4",
          "ticks": 165600,
          "time": 115.9338,
          "velocity": 0.33858267716535434
        },
        {
          "duration": 0.16521966666667254,
          "durationTicks": 236,
          "midi": 69,
          "name": "A4",
          "ticks": 166320,
          "time": 116.43786,
          "velocity": 0.25984251968503935
        },
        {
          "duration": 0.33323966666667104,
          "durationTicks": 476,
          "midi": 58,
          "name": "A#3",
          "ticks": 167040,
          "time": 116.94192,
          "velocity": 0.3464566929133858
        },
        {
          "duration": 0.08120966666666618,
          "durationTicks": 116,
          "midi": 57,
          "name": "A3",
          "ticks": 167520,
          "time": 117.27796000000001,
          "velocity": 0.3464566929133858
        },
        {
          "duration": 0.33323966666667104,
          "durationTicks": 476,
          "midi": 58,
          "name": "A#3",
          "ticks": 167760,
          "time": 117.44598,
          "velocity": 0.3464566929133858
        },
        {
          "duration": 0.08120966666666618,
          "durationTicks": 116,
          "midi": 57,
          "name": "A3",
          "ticks": 168240,
          "time": 117.78202,
          "velocity": 0.3464566929133858
        },
        {
          "duration": 0.08120966666666618,
          "durationTicks": 116,
          "midi": 52,
          "name": "E3",
          "ticks": 168480,
          "time": 117.95004,
          "velocity": 0.3464566929133858
        },
        {
          "duration": 0.08120966666666618,
          "durationTicks": 116,
          "midi": 55,
          "name": "G3",
          "ticks": 168600,
          "time": 118.03405000000001,
          "velocity": 0.3464566929133858
        },
        {
          "duration": 0.08120966666666618,
          "durationTicks": 116,
          "midi": 58,
          "name": "A#3",
          "ticks": 168720,
          "time": 118.11806,
          "velocity": 0.3464566929133858
        },
        {
          "duration": 0.08120966666666618,
          "durationTicks": 116,
          "midi": 60,
          "name": "C4",
          "ticks": 168840,
          "time": 118.20207,
          "velocity": 0.3464566929133858
        },
        {
          "duration": 0.08120966666666618,
          "durationTicks": 116,
          "midi": 46,
          "name": "A#2",
          "ticks": 169920,
          "time": 118.95816,
          "velocity": 0.3464566929133858
        },
        {
          "duration": 0.08120966666666618,
          "durationTicks": 116,
          "midi": 55,
          "name": "G3",
          "ticks": 170040,
          "time": 119.04217,
          "velocity": 0.3464566929133858
        },
        {
          "duration": 0.08120966666666618,
          "durationTicks": 116,
          "midi": 47,
          "name": "B2",
          "ticks": 170640,
          "time": 119.46222,
          "velocity": 0.3464566929133858
        },
        {
          "duration": 0.08120966666666618,
          "durationTicks": 116,
          "midi": 55,
          "name": "G3",
          "ticks": 170760,
          "time": 119.54623000000001,
          "velocity": 0.3464566929133858
        },
        {
          "duration": 0.08120966666668039,
          "durationTicks": 116,
          "midi": 48,
          "name": "C3",
          "ticks": 171360,
          "time": 119.96628,
          "velocity": 0.3464566929133858
        },
        {
          "duration": 0.08120966666666618,
          "durationTicks": 116,
          "midi": 53,
          "name": "F3",
          "ticks": 171480,
          "time": 120.05029,
          "velocity": 0.3464566929133858
        },
        {
          "duration": 0.08120966666668039,
          "durationTicks": 116,
          "midi": 57,
          "name": "A3",
          "ticks": 171600,
          "time": 120.1343,
          "velocity": 0.3464566929133858
        },
        {
          "duration": 0.08120966666666618,
          "durationTicks": 116,
          "midi": 60,
          "name": "C4",
          "ticks": 171720,
          "time": 120.21831,
          "velocity": 0.3464566929133858
        },
        {
          "duration": 0.33323966666667104,
          "durationTicks": 476,
          "midi": 58,
          "name": "A#3",
          "ticks": 172800,
          "time": 120.9744,
          "velocity": 0.3464566929133858
        },
        {
          "duration": 0.08120966666666618,
          "durationTicks": 116,
          "midi": 57,
          "name": "A3",
          "ticks": 173280,
          "time": 121.31044,
          "velocity": 0.3464566929133858
        },
        {
          "duration": 0.33323966666667104,
          "durationTicks": 476,
          "midi": 58,
          "name": "A#3",
          "ticks": 173520,
          "time": 121.47846,
          "velocity": 0.3464566929133858
        },
        {
          "duration": 0.08120966666668039,
          "durationTicks": 116,
          "midi": 57,
          "name": "A3",
          "ticks": 174000,
          "time": 121.8145,
          "velocity": 0.3464566929133858
        },
        {
          "duration": 0.08120966666666618,
          "durationTicks": 116,
          "midi": 52,
          "name": "E3",
          "ticks": 174240,
          "time": 121.98252000000001,
          "velocity": 0.3464566929133858
        },
        {
          "duration": 0.08120966666666618,
          "durationTicks": 116,
          "midi": 55,
          "name": "G3",
          "ticks": 174360,
          "time": 122.06653,
          "velocity": 0.3464566929133858
        },
        {
          "duration": 0.08120966666666618,
          "durationTicks": 116,
          "midi": 58,
          "name": "A#3",
          "ticks": 174480,
          "time": 122.15054,
          "velocity": 0.3464566929133858
        },
        {
          "duration": 0.08120966666666618,
          "durationTicks": 116,
          "midi": 60,
          "name": "C4",
          "ticks": 174600,
          "time": 122.23455,
          "velocity": 0.3464566929133858
        },
        {
          "duration": 0.08120966666666618,
          "durationTicks": 116,
          "midi": 46,
          "name": "A#2",
          "ticks": 175680,
          "time": 122.99064,
          "velocity": 0.3464566929133858
        },
        {
          "duration": 0.08120966666666618,
          "durationTicks": 116,
          "midi": 55,
          "name": "G3",
          "ticks": 175800,
          "time": 123.07465,
          "velocity": 0.3464566929133858
        },
        {
          "duration": 0.08120966666666618,
          "durationTicks": 116,
          "midi": 48,
          "name": "C3",
          "ticks": 176400,
          "time": 123.49470000000001,
          "velocity": 0.3464566929133858
        },
        {
          "duration": 0.08120966666666618,
          "durationTicks": 116,
          "midi": 58,
          "name": "A#3",
          "ticks": 176520,
          "time": 123.57871,
          "velocity": 0.3464566929133858
        },
        {
          "duration": 1.005319666666665,
          "durationTicks": 1436,
          "midi": 53,
          "name": "F3",
          "ticks": 177120,
          "time": 123.99876,
          "velocity": 0.29133858267716534
        },
        {
          "duration": 1.005319666666665,
          "durationTicks": 1436,
          "midi": 57,
          "name": "A3",
          "ticks": 177120,
          "time": 123.99876,
          "velocity": 0.3779527559055118
        },
        {
          "duration": 1.0053196666666793,
          "durationTicks": 1436,
          "midi": 53,
          "name": "F3",
          "ticks": 178560,
          "time": 125.00688,
          "velocity": 0.31496062992125984
        },
        {
          "duration": 1.0053196666666793,
          "durationTicks": 1436,
          "midi": 58,
          "name": "A#3",
          "ticks": 178560,
          "time": 125.00688,
          "velocity": 0.31496062992125984
        },
        {
          "duration": 1.0053196666666793,
          "durationTicks": 1436,
          "midi": 64,
          "name": "E4",
          "ticks": 178560,
          "time": 125.00688,
          "velocity": 0.4094488188976378
        },
        {
          "duration": 1.005319666666665,
          "durationTicks": 1436,
          "midi": 53,
          "name": "F3",
          "ticks": 180000,
          "time": 126.015,
          "velocity": 0.3464566929133858
        },
        {
          "duration": 1.005319666666665,
          "durationTicks": 1436,
          "midi": 60,
          "name": "C4",
          "ticks": 180000,
          "time": 126.015,
          "velocity": 0.3464566929133858
        },
        {
          "duration": 1.005319666666665,
          "durationTicks": 1436,
          "midi": 63,
          "name": "D#4",
          "ticks": 180000,
          "time": 126.015,
          "velocity": 0.4566929133858268
        },
        {
          "duration": 1.0053196666666793,
          "durationTicks": 1436,
          "midi": 53,
          "name": "F3",
          "ticks": 181440,
          "time": 127.02312,
          "velocity": 0.3858267716535433
        },
        {
          "duration": 0.9213096666666587,
          "durationTicks": 1316,
          "midi": 58,
          "name": "A#3",
          "ticks": 181440,
          "time": 127.02312,
          "velocity": 0.3858267716535433
        },
        {
          "duration": 1.0053196666666793,
          "durationTicks": 1436,
          "midi": 62,
          "name": "D4",
          "ticks": 181440,
          "time": 127.02312,
          "velocity": 0.49606299212598426
        },
        {
          "duration": 0.33323966666668525,
          "durationTicks": 476,
          "midi": 53,
          "name": "F3",
          "ticks": 182880,
          "time": 128.03124,
          "velocity": 0.5039370078740157
        },
        {
          "duration": 0.5012596666666695,
          "durationTicks": 716,
          "midi": 57,
          "name": "A3",
          "ticks": 182880,
          "time": 128.03124,
          "velocity": 0.3464566929133858
        },
        {
          "duration": 0.5012596666666695,
          "durationTicks": 716,
          "midi": 60,
          "name": "C4",
          "ticks": 182880,
          "time": 128.03124,
          "velocity": 0.4251968503937008
        },
        {
          "duration": 0.16521966666667254,
          "durationTicks": 236,
          "midi": 54,
          "name": "F#3",
          "ticks": 183360,
          "time": 128.36728,
          "velocity": 0.5039370078740157
        },
        {
          "duration": 0.33323966666665683,
          "durationTicks": 476,
          "midi": 53,
          "name": "F3",
          "ticks": 183600,
          "time": 128.5353,
          "velocity": 0.5039370078740157
        },
        {
          "duration": 0.5012596666666695,
          "durationTicks": 716,
          "midi": 57,
          "name": "A3",
          "ticks": 183600,
          "time": 128.5353,
          "velocity": 0.3464566929133858
        },
        {
          "duration": 0.5012596666666695,
          "durationTicks": 716,
          "midi": 60,
          "name": "C4",
          "ticks": 183600,
          "time": 128.5353,
          "velocity": 0.4251968503937008
        },
        {
          "duration": 0.16521966666667254,
          "durationTicks": 236,
          "midi": 54,
          "name": "F#3",
          "ticks": 184080,
          "time": 128.87134,
          "velocity": 0.5039370078740157
        },
        {
          "duration": 0.2492296666666789,
          "durationTicks": 356,
          "midi": 53,
          "name": "F3",
          "ticks": 184320,
          "time": 129.03936,
          "velocity": 0.5039370078740157
        },
        {
          "duration": 0.2492296666666789,
          "durationTicks": 356,
          "midi": 57,
          "name": "A3",
          "ticks": 184320,
          "time": 129.03936,
          "velocity": 0.3464566929133858
        },
        {
          "duration": 0.2492296666666789,
          "durationTicks": 356,
          "midi": 60,
          "name": "C4",
          "ticks": 184320,
          "time": 129.03936,
          "velocity": 0.4251968503937008
        },
        {
          "duration": 1.3642838083333402,
          "durationTicks": 1916,
          "midi": 53,
          "name": "F3",
          "ticks": 187200,
          "time": 131.2465125,
          "velocity": 0.3464566929133858
        },
        {
          "duration": 1.3642838083333402,
          "durationTicks": 1916,
          "midi": 57,
          "name": "A3",
          "ticks": 187200,
          "time": 131.2465125,
          "velocity": 0.3464566929133858
        },
        {
          "duration": 1.3642838083333402,
          "durationTicks": 1916,
          "midi": 60,
          "name": "C4",
          "ticks": 187200,
          "time": 131.2465125,
          "velocity": 0.3464566929133858
        },
        {
          "duration": 0.08259755833333315,
          "durationTicks": 116,
          "midi": 68,
          "name": "G#4",
          "ticks": 191280,
          "time": 134.151668,
          "velocity": 0.28346456692913385
        },
        {
          "duration": 0.08259755833333315,
          "durationTicks": 116,
          "midi": 69,
          "name": "A4",
          "ticks": 191400,
          "time": 134.23711375,
          "velocity": 0.29133858267716534
        },
        {
          "duration": 0.08259755833333315,
          "durationTicks": 116,
          "midi": 70,
          "name": "A#4",
          "ticks": 191520,
          "time": 134.32255949999998,
          "velocity": 0.29133858267716534
        },
        {
          "duration": 0.08259755833333315,
          "durationTicks": 116,
          "midi": 69,
          "name": "A4",
          "ticks": 191640,
          "time": 134.40800525,
          "velocity": 0.29133858267716534
        },
        {
          "duration": 0.08259755833333315,
          "durationTicks": 116,
          "midi": 67,
          "name": "G4",
          "ticks": 191760,
          "time": 134.493451,
          "velocity": 0.29133858267716534
        },
        {
          "duration": 0.08259755833333315,
          "durationTicks": 116,
          "midi": 65,
          "name": "F4",
          "ticks": 191880,
          "time": 134.57889674999998,
          "velocity": 0.29133858267716534
        },
        {
          "duration": 0.08259755833333315,
          "durationTicks": 116,
          "midi": 64,
          "name": "E4",
          "ticks": 192000,
          "time": 134.6643425,
          "velocity": 0.2992125984251969
        },
        {
          "duration": 0.08259755833333315,
          "durationTicks": 116,
          "midi": 65,
          "name": "F4",
          "ticks": 192120,
          "time": 134.74978825,
          "velocity": 0.2992125984251969
        },
        {
          "duration": 0.08259755833333315,
          "durationTicks": 116,
          "midi": 67,
          "name": "G4",
          "ticks": 192240,
          "time": 134.83523399999999,
          "velocity": 0.30708661417322836
        },
        {
          "duration": 0.08259755833333315,
          "durationTicks": 116,
          "midi": 65,
          "name": "F4",
          "ticks": 192360,
          "time": 134.92067975,
          "velocity": 0.30708661417322836
        },
        {
          "duration": 0.08259755833333315,
          "durationTicks": 116,
          "midi": 63,
          "name": "D#4",
          "ticks": 192480,
          "time": 135.0061255,
          "velocity": 0.30708661417322836
        },
        {
          "duration": 0.08259755833333315,
          "durationTicks": 116,
          "midi": 62,
          "name": "D4",
          "ticks": 192600,
          "time": 135.09157125,
          "velocity": 0.30708661417322836
        },
        {
          "duration": 0.08259755833333315,
          "durationTicks": 116,
          "midi": 61,
          "name": "C#4",
          "ticks": 192720,
          "time": 135.177017,
          "velocity": 0.31496062992125984
        },
        {
          "duration": 0.08259755833333315,
          "durationTicks": 116,
          "midi": 62,
          "name": "D4",
          "ticks": 192840,
          "time": 135.26246275,
          "velocity": 0.31496062992125984
        },
        {
          "duration": 0.08259755833333315,
          "durationTicks": 116,
          "midi": 63,
          "name": "D#4",
          "ticks": 192960,
          "time": 135.3479085,
          "velocity": 0.31496062992125984
        },
        {
          "duration": 0.08259755833333315,
          "durationTicks": 116,
          "midi": 62,
          "name": "D4",
          "ticks": 193080,
          "time": 135.43335425,
          "velocity": 0.31496062992125984
        },
        {
          "duration": 0.08259755833333315,
          "durationTicks": 116,
          "midi": 60,
          "name": "C4",
          "ticks": 193200,
          "time": 135.5188,
          "velocity": 0.31496062992125984
        },
        {
          "duration": 0.08259755833333315,
          "durationTicks": 116,
          "midi": 58,
          "name": "A#3",
          "ticks": 193320,
          "time": 135.60424575,
          "velocity": 0.31496062992125984
        },
        {
          "duration": 0.08259755833336158,
          "durationTicks": 116,
          "midi": 57,
          "name": "A3",
          "ticks": 193440,
          "time": 135.68969149999998,
          "velocity": 0.31496062992125984
        },
        {
          "duration": 0.08259755833333315,
          "durationTicks": 116,
          "midi": 58,
          "name": "A#3",
          "ticks": 193560,
          "time": 135.77513725,
          "velocity": 0.3228346456692913
        },
        {
          "duration": 0.08259755833333315,
          "durationTicks": 116,
          "midi": 60,
          "name": "C4",
          "ticks": 193680,
          "time": 135.860583,
          "velocity": 0.3228346456692913
        },
        {
          "duration": 0.08259755833333315,
          "durationTicks": 116,
          "midi": 58,
          "name": "A#3",
          "ticks": 193800,
          "time": 135.94602874999998,
          "velocity": 0.3228346456692913
        },
        {
          "duration": 0.08259755833333315,
          "durationTicks": 116,
          "midi": 57,
          "name": "A3",
          "ticks": 193920,
          "time": 136.0314745,
          "velocity": 0.33070866141732286
        },
        {
          "duration": 0.08259755833333315,
          "durationTicks": 116,
          "midi": 55,
          "name": "G3",
          "ticks": 194040,
          "time": 136.11692025,
          "velocity": 0.33070866141732286
        },
        {
          "duration": 0.08259755833333315,
          "durationTicks": 116,
          "midi": 54,
          "name": "F#3",
          "ticks": 194160,
          "time": 136.20236599999998,
          "velocity": 0.33070866141732286
        },
        {
          "duration": 0.08259755833333315,
          "durationTicks": 116,
          "midi": 55,
          "name": "G3",
          "ticks": 194280,
          "time": 136.28781175,
          "velocity": 0.33858267716535434
        },
        {
          "duration": 0.08259755833333315,
          "durationTicks": 116,
          "midi": 57,
          "name": "A3",
          "ticks": 194400,
          "time": 136.3732575,
          "velocity": 0.3464566929133858
        },
        {
          "duration": 0.08259755833333315,
          "durationTicks": 116,
          "midi": 55,
          "name": "G3",
          "ticks": 194520,
          "time": 136.45870324999999,
          "velocity": 0.3464566929133858
        },
        {
          "duration": 0.08259755833333315,
          "durationTicks": 116,
          "midi": 53,
          "name": "F3",
          "ticks": 194640,
          "time": 136.544149,
          "velocity": 0.3464566929133858
        },
        {
          "duration": 0.08259755833333315,
          "durationTicks": 116,
          "midi": 52,
          "name": "E3",
          "ticks": 194760,
          "time": 136.62959475,
          "velocity": 0.3464566929133858
        },
        {
          "duration": 0.08259755833333315,
          "durationTicks": 116,
          "midi": 51,
          "name": "D#3",
          "ticks": 194880,
          "time": 136.7150405,
          "velocity": 0.3464566929133858
        },
        {
          "duration": 0.08259755833333315,
          "durationTicks": 116,
          "midi": 52,
          "name": "E3",
          "ticks": 195000,
          "time": 136.80048625,
          "velocity": 0.3464566929133858
        },
        {
          "duration": 0.08259755833333315,
          "durationTicks": 116,
          "midi": 53,
          "name": "F3",
          "ticks": 195120,
          "time": 136.885932,
          "velocity": 0.3464566929133858
        },
        {
          "duration": 0.08259755833333315,
          "durationTicks": 116,
          "midi": 52,
          "name": "E3",
          "ticks": 195240,
          "time": 136.97137775,
          "velocity": 0.3464566929133858
        },
        {
          "duration": 0.08259755833333315,
          "durationTicks": 116,
          "midi": 50,
          "name": "D3",
          "ticks": 195360,
          "time": 137.0568235,
          "velocity": 0.3464566929133858
        },
        {
          "duration": 0.08259755833333315,
          "durationTicks": 116,
          "midi": 48,
          "name": "C3",
          "ticks": 195480,
          "time": 137.14226925,
          "velocity": 0.3464566929133858
        },
        {
          "duration": 0.08259755833333315,
          "durationTicks": 116,
          "midi": 47,
          "name": "B2",
          "ticks": 195600,
          "time": 137.227715,
          "velocity": 0.3464566929133858
        },
        {
          "duration": 0.08259755833330473,
          "durationTicks": 116,
          "midi": 48,
          "name": "C3",
          "ticks": 195720,
          "time": 137.31316075,
          "velocity": 0.3464566929133858
        },
        {
          "duration": 0.3958986416666619,
          "durationTicks": 556,
          "midi": 37,
          "name": "C#2",
          "ticks": 195840,
          "time": 137.3986065,
          "velocity": 0.4409448818897638
        },
        {
          "duration": 0.05411564166666949,
          "durationTicks": 76,
          "midi": 43,
          "name": "G2",
          "ticks": 195960,
          "time": 137.48405225,
          "velocity": 0.4251968503937008
        },
        {
          "duration": 0.05411564166666949,
          "durationTicks": 76,
          "midi": 49,
          "name": "C#3",
          "ticks": 196080,
          "time": 137.56949799999998,
          "velocity": 0.4094488188976378
        },
        {
          "duration": 0.05411564166666949,
          "durationTicks": 76,
          "midi": 43,
          "name": "G2",
          "ticks": 196200,
          "time": 137.65494375,
          "velocity": 0.3858267716535433
        },
        {
          "duration": 0.3104528916666709,
          "durationTicks": 436,
          "midi": 37,
          "name": "C#2",
          "ticks": 196320,
          "time": 137.7403895,
          "velocity": 0.3700787401574803
        },
        {
          "duration": 0.05411564166666949,
          "durationTicks": 76,
          "midi": 43,
          "name": "G2",
          "ticks": 196440,
          "time": 137.82583524999998,
          "velocity": 0.3464566929133858
        },
        {
          "duration": 0.3958986416666619,
          "durationTicks": 556,
          "midi": 36,
          "name": "C2",
          "ticks": 196560,
          "time": 137.911281,
          "velocity": 0.3464566929133858
        },
        {
          "duration": 0.05411564166666949,
          "durationTicks": 76,
          "midi": 43,
          "name": "G2",
          "ticks": 196680,
          "time": 137.99672675,
          "velocity": 0.3464566929133858
        },
        {
          "duration": 0.05411564166666949,
          "durationTicks": 76,
          "midi": 48,
          "name": "C3",
          "ticks": 196800,
          "time": 138.08217249999998,
          "velocity": 0.3464566929133858
        },
        {
          "duration": 0.05411564166666949,
          "durationTicks": 76,
          "midi": 43,
          "name": "G2",
          "ticks": 196920,
          "time": 138.16761825,
          "velocity": 0.3464566929133858
        },
        {
          "duration": 0.25348905833334356,
          "durationTicks": 356,
          "midi": 36,
          "name": "C2",
          "ticks": 197040,
          "time": 138.253064,
          "velocity": 0.3464566929133858
        },
        {
          "duration": 0.05411564166666949,
          "durationTicks": 76,
          "midi": 43,
          "name": "G2",
          "ticks": 197160,
          "time": 138.33850975,
          "velocity": 0.3464566929133858
        },
        {
          "duration": 0.3958986416666619,
          "durationTicks": 556,
          "midi": 37,
          "name": "C#2",
          "ticks": 197280,
          "time": 138.4239555,
          "velocity": 0.4409448818897638
        },
        {
          "duration": 0.05411564166666949,
          "durationTicks": 76,
          "midi": 43,
          "name": "G2",
          "ticks": 197400,
          "time": 138.50940125,
          "velocity": 0.4251968503937008
        },
        {
          "duration": 0.05411564166666949,
          "durationTicks": 76,
          "midi": 49,
          "name": "C#3",
          "ticks": 197520,
          "time": 138.594847,
          "velocity": 0.4094488188976378
        },
        {
          "duration": 0.05411564166664107,
          "durationTicks": 76,
          "midi": 43,
          "name": "G2",
          "ticks": 197640,
          "time": 138.68029275,
          "velocity": 0.3858267716535433
        },
        {
          "duration": 0.25348905833334356,
          "durationTicks": 356,
          "midi": 37,
          "name": "C#2",
          "ticks": 197760,
          "time": 138.7657385,
          "velocity": 0.3700787401574803
        },
        {
          "duration": 0.05411564166666949,
          "durationTicks": 76,
          "midi": 43,
          "name": "G2",
          "ticks": 197880,
          "time": 138.85118425,
          "velocity": 0.3464566929133858
        },
        {
          "duration": 0.3958986416666619,
          "durationTicks": 556,
          "midi": 36,
          "name": "C2",
          "ticks": 198000,
          "time": 138.93663,
          "velocity": 0.3464566929133858
        },
        {
          "duration": 0.05411564166666949,
          "durationTicks": 76,
          "midi": 43,
          "name": "G2",
          "ticks": 198120,
          "time": 139.02207575,
          "velocity": 0.3464566929133858
        },
        {
          "duration": 0.05411564166666949,
          "durationTicks": 76,
          "midi": 48,
          "name": "C3",
          "ticks": 198240,
          "time": 139.1075215,
          "velocity": 0.3464566929133858
        },
        {
          "duration": 0.05411564166666949,
          "durationTicks": 76,
          "midi": 43,
          "name": "G2",
          "ticks": 198360,
          "time": 139.19296724999998,
          "velocity": 0.3464566929133858
        },
        {
          "duration": 0.16804330833332415,
          "durationTicks": 236,
          "midi": 37,
          "name": "C#2",
          "ticks": 198480,
          "time": 139.278413,
          "velocity": 0.5039370078740157
        },
        {
          "duration": 0.05411564166666949,
          "durationTicks": 76,
          "midi": 43,
          "name": "G2",
          "ticks": 198600,
          "time": 139.36385875,
          "velocity": 0.3464566929133858
        },
        {
          "duration": 0.3674167249999982,
          "durationTicks": 516,
          "midi": 36,
          "name": "C2",
          "ticks": 198720,
          "time": 139.44930449999998,
          "velocity": 0.4251968503937008
        },
        {
          "duration": 0.05411564166666949,
          "durationTicks": 76,
          "midi": 43,
          "name": "G2",
          "ticks": 198840,
          "time": 139.53475025,
          "velocity": 0.3464566929133858
        },
        {
          "duration": 0.05411564166666949,
          "durationTicks": 76,
          "midi": 48,
          "name": "C3",
          "ticks": 198960,
          "time": 139.620196,
          "velocity": 0.3464566929133858
        },
        {
          "duration": 0.05411564166666949,
          "durationTicks": 76,
          "midi": 43,
          "name": "G2",
          "ticks": 199080,
          "time": 139.70564174999998,
          "velocity": 0.3464566929133858
        },
        {
          "duration": 0.16804330833332415,
          "durationTicks": 236,
          "midi": 37,
          "name": "C#2",
          "ticks": 199200,
          "time": 139.7910875,
          "velocity": 0.5039370078740157
        },
        {
          "duration": 0.05411564166666949,
          "durationTicks": 76,
          "midi": 43,
          "name": "G2",
          "ticks": 199320,
          "time": 139.87653325,
          "velocity": 0.3464566929133858
        },
        {
          "duration": 0.33893480833333456,
          "durationTicks": 476,
          "midi": 36,
          "name": "C2",
          "ticks": 199440,
          "time": 139.96197899999999,
          "velocity": 0.4251968503937008
        },
        {
          "duration": 0.05411564166666949,
          "durationTicks": 76,
          "midi": 43,
          "name": "G2",
          "ticks": 199560,
          "time": 140.04742475,
          "velocity": 0.3464566929133858
        },
        {
          "duration": 0.05411564166666949,
          "durationTicks": 76,
          "midi": 48,
          "name": "C3",
          "ticks": 199680,
          "time": 140.1328705,
          "velocity": 0.3464566929133858
        },
        {
          "duration": 0.05411564166666949,
          "durationTicks": 76,
          "midi": 43,
          "name": "G2",
          "ticks": 199800,
          "time": 140.21831625,
          "velocity": 0.3464566929133858
        },
        {
          "duration": 0.16804330833332415,
          "durationTicks": 236,
          "midi": 37,
          "name": "C#2",
          "ticks": 199920,
          "time": 140.303762,
          "velocity": 0.5039370078740157
        },
        {
          "duration": 0.05411564166666949,
          "durationTicks": 76,
          "midi": 43,
          "name": "G2",
          "ticks": 200040,
          "time": 140.38920775,
          "velocity": 0.3464566929133858
        },
        {
          "duration": 1.153364208333329,
          "durationTicks": 956,
          "midi": 36,
          "name": "C2",
          "ticks": 200160,
          "time": 140.4746535,
          "velocity": 0.4251968503937008
        },
        {
          "duration": 1.153364208333329,
          "durationTicks": 956,
          "midi": 40,
          "name": "E2",
          "ticks": 200160,
          "time": 140.4746535,
          "velocity": 0.3464566929133858
        },
        {
          "duration": 1.153364208333329,
          "durationTicks": 956,
          "midi": 43,
          "name": "G2",
          "ticks": 200160,
          "time": 140.4746535,
          "velocity": 0.3464566929133858
        },
        {
          "duration": 1.153364208333329,
          "durationTicks": 956,
          "midi": 48,
          "name": "C3",
          "ticks": 200160,
          "time": 140.4746535,
          "velocity": 0.3464566929133858
        },
        {
          "duration": 0.7896483000000103,
          "durationTicks": 476,
          "midi": 60,
          "name": "C4",
          "ticks": 204240,
          "time": 143.93305049999998,
          "velocity": 0.2677165354330709
        },
        {
          "duration": 0.7896483000000103,
          "durationTicks": 476,
          "midi": 64,
          "name": "E4",
          "ticks": 204240,
          "time": 143.93305049999998,
          "velocity": 0.2677165354330709
        },
        {
          "duration": 0.7896483000000103,
          "durationTicks": 476,
          "midi": 70,
          "name": "A#4",
          "ticks": 204240,
          "time": 143.93305049999998,
          "velocity": 0.2677165354330709
        },
        {
          "duration": 1.8125282000000027,
          "durationTicks": 956,
          "midi": 53,
          "name": "F3",
          "ticks": 210240,
          "time": 151.637333125,
          "velocity": 0.1889763779527559
        },
        {
          "duration": 1.8125282000000027,
          "durationTicks": 956,
          "midi": 57,
          "name": "A3",
          "ticks": 210240,
          "time": 151.637333125,
          "velocity": 0.1889763779527559
        },
        {
          "duration": 1.8125282000000027,
          "durationTicks": 956,
          "midi": 60,
          "name": "C4",
          "ticks": 210240,
          "time": 151.637333125,
          "velocity": 0.1889763779527559
        },
        {
          "duration": 1.8125282000000027,
          "durationTicks": 956,
          "midi": 63,
          "name": "D#4",
          "ticks": 210240,
          "time": 151.637333125,
          "velocity": 0.2677165354330709
        },
        {
          "duration": 0.179221333333345,
          "durationTicks": 256,
          "midi": 58,
          "name": "A#3",
          "ticks": 214560,
          "time": 159.06716012500002,
          "velocity": 0.18110236220472442
        },
        {
          "duration": 0.17922133333331658,
          "durationTicks": 256,
          "midi": 62,
          "name": "D4",
          "ticks": 214800,
          "time": 159.23518012500003,
          "velocity": 0.1889763779527559
        },
        {
          "duration": 0.179221333333345,
          "durationTicks": 256,
          "midi": 65,
          "name": "F4",
          "ticks": 215040,
          "time": 159.403200125,
          "velocity": 0.2047244094488189
        },
        {
          "duration": 0.17922133333331658,
          "durationTicks": 256,
          "midi": 58,
          "name": "A#3",
          "ticks": 215280,
          "time": 159.57122012500002,
          "velocity": 0.2204724409448819
        },
        {
          "duration": 0.179221333333345,
          "durationTicks": 256,
          "midi": 62,
          "name": "D4",
          "ticks": 215520,
          "time": 159.739240125,
          "velocity": 0.2283464566929134
        },
        {
          "duration": 0.17922133333331658,
          "durationTicks": 256,
          "midi": 65,
          "name": "F4",
          "ticks": 215760,
          "time": 159.90726012500002,
          "velocity": 0.2440944881889764
        },
        {
          "duration": 0.179221333333345,
          "durationTicks": 256,
          "midi": 58,
          "name": "A#3",
          "ticks": 216000,
          "time": 160.075280125,
          "velocity": 0.25984251968503935
        },
        {
          "duration": 0.17922133333331658,
          "durationTicks": 256,
          "midi": 62,
          "name": "D4",
          "ticks": 216240,
          "time": 160.24330012500002,
          "velocity": 0.2440944881889764
        },
        {
          "duration": 0.179221333333345,
          "durationTicks": 256,
          "midi": 65,
          "name": "F4",
          "ticks": 216480,
          "time": 160.411320125,
          "velocity": 0.2283464566929134
        },
        {
          "duration": 0.179221333333345,
          "durationTicks": 256,
          "midi": 58,
          "name": "A#3",
          "ticks": 216720,
          "time": 160.57934012500002,
          "velocity": 0.2125984251968504
        },
        {
          "duration": 0.17922133333331658,
          "durationTicks": 256,
          "midi": 62,
          "name": "D4",
          "ticks": 216960,
          "time": 160.74736012500003,
          "velocity": 0.1889763779527559
        },
        {
          "duration": 0.179221333333345,
          "durationTicks": 256,
          "midi": 65,
          "name": "F4",
          "ticks": 217200,
          "time": 160.915380125,
          "velocity": 0.25984251968503935
        },
        {
          "duration": 0.17922133333331658,
          "durationTicks": 256,
          "midi": 53,
          "name": "F3",
          "ticks": 217440,
          "time": 161.08340012500003,
          "velocity": 0.25984251968503935
        },
        {
          "duration": 0.179221333333345,
          "durationTicks": 256,
          "midi": 60,
          "name": "C4",
          "ticks": 217680,
          "time": 161.251420125,
          "velocity": 0.25984251968503935
        },
        {
          "duration": 0.17922133333331658,
          "durationTicks": 256,
          "midi": 63,
          "name": "D#4",
          "ticks": 217920,
          "time": 161.41944012500002,
          "velocity": 0.25984251968503935
        },
        {
          "duration": 0.179221333333345,
          "durationTicks": 256,
          "midi": 53,
          "name": "F3",
          "ticks": 218160,
          "time": 161.587460125,
          "velocity": 0.25984251968503935
        },
        {
          "duration": 0.17922133333331658,
          "durationTicks": 256,
          "midi": 58,
          "name": "A#3",
          "ticks": 218400,
          "time": 161.75548012500002,
          "velocity": 0.25984251968503935
        },
        {
          "duration": 0.179221333333345,
          "durationTicks": 256,
          "midi": 62,
          "name": "D4",
          "ticks": 218640,
          "time": 161.923500125,
          "velocity": 0.25984251968503935
        },
        {
          "duration": 0.179221333333345,
          "durationTicks": 256,
          "midi": 53,
          "name": "F3",
          "ticks": 218880,
          "time": 162.09152012500002,
          "velocity": 0.25984251968503935
        },
        {
          "duration": 0.179221333333345,
          "durationTicks": 256,
          "midi": 58,
          "name": "A#3",
          "ticks": 219120,
          "time": 162.259540125,
          "velocity": 0.25984251968503935
        },
        {
          "duration": 0.179221333333345,
          "durationTicks": 256,
          "midi": 62,
          "name": "D4",
          "ticks": 219360,
          "time": 162.427560125,
          "velocity": 0.2440944881889764
        },
        {
          "duration": 0.17922133333331658,
          "durationTicks": 256,
          "midi": 53,
          "name": "F3",
          "ticks": 219600,
          "time": 162.59558012500003,
          "velocity": 0.2283464566929134
        },
        {
          "duration": 0.179221333333345,
          "durationTicks": 256,
          "midi": 57,
          "name": "A3",
          "ticks": 219840,
          "time": 162.763600125,
          "velocity": 0.2125984251968504
        },
        {
          "duration": 0.17922133333331658,
          "durationTicks": 256,
          "midi": 60,
          "name": "C4",
          "ticks": 220080,
          "time": 162.93162012500002,
          "velocity": 0.1968503937007874
        },
        {
          "duration": 0.179221333333345,
          "durationTicks": 256,
          "midi": 58,
          "name": "A#3",
          "ticks": 220320,
          "time": 163.099640125,
          "velocity": 0.33858267716535434
        },
        {
          "duration": 0.17922133333331658,
          "durationTicks": 256,
          "midi": 62,
          "name": "D4",
          "ticks": 220560,
          "time": 163.26766012500002,
          "velocity": 0.2677165354330709
        },
        {
          "duration": 0.179221333333345,
          "durationTicks": 256,
          "midi": 65,
          "name": "F4",
          "ticks": 220800,
          "time": 163.435680125,
          "velocity": 0.2755905511811024
        },
        {
          "duration": 0.179221333333345,
          "durationTicks": 256,
          "midi": 58,
          "name": "A#3",
          "ticks": 221040,
          "time": 163.60370012500002,
          "velocity": 0.28346456692913385
        },
        {
          "duration": 0.179221333333345,
          "durationTicks": 256,
          "midi": 60,
          "name": "C4",
          "ticks": 221280,
          "time": 163.771720125,
          "velocity": 0.29133858267716534
        },
        {
          "duration": 0.179221333333345,
          "durationTicks": 256,
          "midi": 63,
          "name": "D#4",
          "ticks": 221520,
          "time": 163.93974012500001,
          "velocity": 0.30708661417322836
        },
        {
          "duration": 0.17922133333331658,
          "durationTicks": 256,
          "midi": 58,
          "name": "A#3",
          "ticks": 221760,
          "time": 164.10776012500003,
          "velocity": 0.31496062992125984
        },
        {
          "duration": 0.179221333333345,
          "durationTicks": 256,
          "midi": 62,
          "name": "D4",
          "ticks": 222000,
          "time": 164.275780125,
          "velocity": 0.3228346456692913
        },
        {
          "duration": 0.17922133333331658,
          "durationTicks": 256,
          "midi": 65,
          "name": "F4",
          "ticks": 222240,
          "time": 164.44380012500002,
          "velocity": 0.33070866141732286
        },
        {
          "duration": 0.179221333333345,
          "durationTicks": 256,
          "midi": 58,
          "name": "A#3",
          "ticks": 222480,
          "time": 164.611820125,
          "velocity": 0.2677165354330709
        },
        {
          "duration": 0.17922133333331658,
          "durationTicks": 256,
          "midi": 62,
          "name": "D4",
          "ticks": 222720,
          "time": 164.77984012500002,
          "velocity": 0.1968503937007874
        },
        {
          "duration": 0.179221333333345,
          "durationTicks": 256,
          "midi": 65,
          "name": "F4",
          "ticks": 222960,
          "time": 164.947860125,
          "velocity": 0.1968503937007874
        },
        {
          "duration": 0.179221333333345,
          "durationTicks": 256,
          "midi": 53,
          "name": "F3",
          "ticks": 223200,
          "time": 165.11588012500002,
          "velocity": 0.25984251968503935
        },
        {
          "duration": 0.179221333333345,
          "durationTicks": 256,
          "midi": 58,
          "name": "A#3",
          "ticks": 223440,
          "time": 165.283900125,
          "velocity": 0.25196850393700787
        },
        {
          "duration": 0.179221333333345,
          "durationTicks": 256,
          "midi": 62,
          "name": "D4",
          "ticks": 223680,
          "time": 165.45192012500002,
          "velocity": 0.2440944881889764
        },
        {
          "duration": 0.17922133333331658,
          "durationTicks": 256,
          "midi": 53,
          "name": "F3",
          "ticks": 223920,
          "time": 165.61994012500003,
          "velocity": 0.2440944881889764
        },
        {
          "duration": 0.179221333333345,
          "durationTicks": 256,
          "midi": 60,
          "name": "C4",
          "ticks": 224160,
          "time": 165.787960125,
          "velocity": 0.23622047244094488
        },
        {
          "duration": 0.10921299999998269,
          "durationTicks": 156,
          "midi": 63,
          "name": "D#4",
          "ticks": 224400,
          "time": 165.95598012500002,
          "velocity": 0.2283464566929134
        },
        {
          "duration": 0.6692796666666823,
          "durationTicks": 956,
          "midi": 58,
          "name": "A#3",
          "ticks": 224640,
          "time": 166.124000125,
          "velocity": 0.1968503937007874
        },
        {
          "duration": 0.5012596666666695,
          "durationTicks": 716,
          "midi": 63,
          "name": "D#4",
          "ticks": 224640,
          "time": 166.124000125,
          "velocity": 0.2755905511811024
        },
        {
          "duration": 0.17922133333331658,
          "durationTicks": 256,
          "midi": 62,
          "name": "D4",
          "ticks": 225360,
          "time": 166.62806012500002,
          "velocity": 0.1968503937007874
        },
        {
          "duration": 0.16521966666667254,
          "durationTicks": 236,
          "midi": 58,
          "name": "A#3",
          "ticks": 237600,
          "time": 175.197080125,
          "velocity": 0.14173228346456693
        },
        {
          "duration": 0.16521966666667254,
          "durationTicks": 236,
          "midi": 61,
          "name": "C#4",
          "ticks": 237600,
          "time": 175.197080125,
          "velocity": 0.14173228346456693
        },
        {
          "duration": 0.16521966666667254,
          "durationTicks": 236,
          "midi": 58,
          "name": "A#3",
          "ticks": 238320,
          "time": 175.70114012500002,
          "velocity": 0.18110236220472442
        },
        {
          "duration": 0.16521966666667254,
          "durationTicks": 236,
          "midi": 60,
          "name": "C4",
          "ticks": 238320,
          "time": 175.70114012500002,
          "velocity": 0.18110236220472442
        },
        {
          "duration": 0.16521966666667254,
          "durationTicks": 236,
          "midi": 63,
          "name": "D#4",
          "ticks": 238320,
          "time": 175.70114012500002,
          "velocity": 0.18110236220472442
        },
        {
          "duration": 0.33323966666668525,
          "durationTicks": 476,
          "midi": 58,
          "name": "A#3",
          "ticks": 239040,
          "time": 176.205200125,
          "velocity": 0.1968503937007874
        },
        {
          "duration": 0.33323966666668525,
          "durationTicks": 476,
          "midi": 61,
          "name": "C#4",
          "ticks": 239040,
          "time": 176.205200125,
          "velocity": 0.1968503937007874
        },
        {
          "duration": 0.33323966666668525,
          "durationTicks": 476,
          "midi": 65,
          "name": "F4",
          "ticks": 239040,
          "time": 176.205200125,
          "velocity": 0.1968503937007874
        },
        {
          "duration": 0.33323966666665683,
          "durationTicks": 476,
          "midi": 58,
          "name": "A#3",
          "ticks": 240480,
          "time": 177.21332012500002,
          "velocity": 0.2755905511811024
        },
        {
          "duration": 0.33323966666665683,
          "durationTicks": 476,
          "midi": 61,
          "name": "C#4",
          "ticks": 240480,
          "time": 177.21332012500002,
          "velocity": 0.2755905511811024
        },
        {
          "duration": 0.33323966666665683,
          "durationTicks": 476,
          "midi": 65,
          "name": "F4",
          "ticks": 240480,
          "time": 177.21332012500002,
          "velocity": 0.2755905511811024
        },
        {
          "duration": 0.33323966666665683,
          "durationTicks": 476,
          "midi": 58,
          "name": "A#3",
          "ticks": 241920,
          "time": 178.22144012500002,
          "velocity": 0.2755905511811024
        },
        {
          "duration": 0.33323966666665683,
          "durationTicks": 476,
          "midi": 61,
          "name": "C#4",
          "ticks": 241920,
          "time": 178.22144012500002,
          "velocity": 0.3543307086614173
        },
        {
          "duration": 0.33323966666665683,
          "durationTicks": 476,
          "midi": 65,
          "name": "F4",
          "ticks": 241920,
          "time": 178.22144012500002,
          "velocity": 0.3543307086614173
        },
        {
          "duration": 2.0134396666666703,
          "durationTicks": 2876,
          "midi": 58,
          "name": "A#3",
          "ticks": 243360,
          "time": 179.229560125,
          "velocity": 0.2677165354330709
        },
        {
          "duration": 1.0053196666666793,
          "durationTicks": 1436,
          "midi": 61,
          "name": "C#4",
          "ticks": 243360,
          "time": 179.229560125,
          "velocity": 0.3464566929133858
        },
        {
          "duration": 1.0053196666666508,
          "durationTicks": 1436,
          "midi": 66,
          "name": "F#4",
          "ticks": 244800,
          "time": 180.23768012500003,
          "velocity": 0.3464566929133858
        },
        {
          "duration": 1.0053196666666508,
          "durationTicks": 1436,
          "midi": 56,
          "name": "G#3",
          "ticks": 246240,
          "time": 181.24580012500002,
          "velocity": 0.2677165354330709
        },
        {
          "duration": 1.0053196666666508,
          "durationTicks": 1436,
          "midi": 63,
          "name": "D#4",
          "ticks": 246240,
          "time": 181.24580012500002,
          "velocity": 0.2677165354330709
        },
        {
          "duration": 1.0053196666666508,
          "durationTicks": 1436,
          "midi": 66,
          "name": "F#4",
          "ticks": 246240,
          "time": 181.24580012500002,
          "velocity": 0.3464566929133858
        },
        {
          "duration": 1.0053196666666793,
          "durationTicks": 1436,
          "midi": 56,
          "name": "G#3",
          "ticks": 247680,
          "time": 182.253920125,
          "velocity": 0.2677165354330709
        },
        {
          "duration": 1.0053196666666793,
          "durationTicks": 1436,
          "midi": 59,
          "name": "B3",
          "ticks": 247680,
          "time": 182.253920125,
          "velocity": 0.2677165354330709
        },
        {
          "duration": 1.0053196666666793,
          "durationTicks": 1436,
          "midi": 61,
          "name": "C#4",
          "ticks": 247680,
          "time": 182.253920125,
          "velocity": 0.2677165354330709
        },
        {
          "duration": 1.0053196666666508,
          "durationTicks": 1436,
          "midi": 56,
          "name": "G#3",
          "ticks": 249120,
          "time": 183.26204012500003,
          "velocity": 0.2677165354330709
        },
        {
          "duration": 1.0053196666666508,
          "durationTicks": 1436,
          "midi": 58,
          "name": "A#3",
          "ticks": 249120,
          "time": 183.26204012500003,
          "velocity": 0.2677165354330709
        },
        {
          "duration": 1.0053196666666508,
          "durationTicks": 1436,
          "midi": 62,
          "name": "D4",
          "ticks": 249120,
          "time": 183.26204012500003,
          "velocity": 0.2677165354330709
        },
        {
          "duration": 1.0053196666666508,
          "durationTicks": 1436,
          "midi": 65,
          "name": "F4",
          "ticks": 249120,
          "time": 183.26204012500003,
          "velocity": 0.3464566929133858
        },
        {
          "duration": 1.0053196666666508,
          "durationTicks": 1436,
          "midi": 54,
          "name": "F#3",
          "ticks": 250560,
          "time": 184.27016012500002,
          "velocity": 0.23622047244094488
        },
        {
          "duration": 1.0053196666666508,
          "durationTicks": 1436,
          "midi": 58,
          "name": "A#3",
          "ticks": 250560,
          "time": 184.27016012500002,
          "velocity": 0.23622047244094488
        },
        {
          "duration": 1.0053196666666508,
          "durationTicks": 1436,
          "midi": 63,
          "name": "D#4",
          "ticks": 250560,
          "time": 184.27016012500002,
          "velocity": 0.23622047244094488
        },
        {
          "duration": 1.0053196666666793,
          "durationTicks": 1436,
          "midi": 53,
          "name": "F3",
          "ticks": 252000,
          "time": 185.278280125,
          "velocity": 0.2677165354330709
        },
        {
          "duration": 1.0053196666666793,
          "durationTicks": 1436,
          "midi": 59,
          "name": "B3",
          "ticks": 252000,
          "time": 185.278280125,
          "velocity": 0.2677165354330709
        },
        {
          "duration": 1.0053196666666793,
          "durationTicks": 1436,
          "midi": 63,
          "name": "D#4",
          "ticks": 252000,
          "time": 185.278280125,
          "velocity": 0.3464566929133858
        },
        {
          "duration": 1.0053196666666793,
          "durationTicks": 1436,
          "midi": 58,
          "name": "A#3",
          "ticks": 253440,
          "time": 186.286400125,
          "velocity": 0.23622047244094488
        },
        {
          "duration": 1.0053196666666793,
          "durationTicks": 1436,
          "midi": 62,
          "name": "D4",
          "ticks": 253440,
          "time": 186.286400125,
          "velocity": 0.23622047244094488
        },
        {
          "duration": 1.0053196666666508,
          "durationTicks": 1436,
          "midi": 58,
          "name": "A#3",
          "ticks": 254880,
          "time": 187.29452012500002,
          "velocity": 0.2677165354330709
        },
        {
          "duration": 1.0053196666666508,
          "durationTicks": 1436,
          "midi": 61,
          "name": "C#4",
          "ticks": 254880,
          "time": 187.29452012500002,
          "velocity": 0.2677165354330709
        },
        {
          "duration": 1.0053196666666508,
          "durationTicks": 1436,
          "midi": 64,
          "name": "E4",
          "ticks": 254880,
          "time": 187.29452012500002,
          "velocity": 0.3464566929133858
        },
        {
          "duration": 0.5012596666666695,
          "durationTicks": 716,
          "midi": 58,
          "name": "A#3",
          "ticks": 256320,
          "time": 188.302640125,
          "velocity": 0.3464566929133858
        },
        {
          "duration": 1.0053196666666793,
          "durationTicks": 1436,
          "midi": 60,
          "name": "C4",
          "ticks": 256320,
          "time": 188.302640125,
          "velocity": 0.3464566929133858
        },
        {
          "duration": 0.5012596666666695,
          "durationTicks": 716,
          "midi": 67,
          "name": "G4",
          "ticks": 256320,
          "time": 188.302640125,
          "velocity": 0.4251968503937008
        },
        {
          "duration": 0.5012596666666695,
          "durationTicks": 716,
          "midi": 56,
          "name": "G#3",
          "ticks": 257040,
          "time": 188.80670012500002,
          "velocity": 0.2677165354330709
        },
        {
          "duration": 0.5012596666666695,
          "durationTicks": 716,
          "midi": 65,
          "name": "F4",
          "ticks": 257040,
          "time": 188.80670012500002,
          "velocity": 0.3464566929133858
        },
        {
          "duration": 1.0053196666666793,
          "durationTicks": 1436,
          "midi": 55,
          "name": "G3",
          "ticks": 257760,
          "time": 189.310760125,
          "velocity": 0.3464566929133858
        },
        {
          "duration": 1.0053196666666793,
          "durationTicks": 1436,
          "midi": 61,
          "name": "C#4",
          "ticks": 257760,
          "time": 189.310760125,
          "velocity": 0.3464566929133858
        },
        {
          "duration": 1.0053196666666793,
          "durationTicks": 1436,
          "midi": 65,
          "name": "F4",
          "ticks": 257760,
          "time": 189.310760125,
          "velocity": 0.4251968503937008
        },
        {
          "duration": 1.0053196666666508,
          "durationTicks": 1436,
          "midi": 48,
          "name": "C3",
          "ticks": 259200,
          "time": 190.31888012500002,
          "velocity": 0.2125984251968504
        },
        {
          "duration": 1.0053196666666508,
          "durationTicks": 1436,
          "midi": 52,
          "name": "E3",
          "ticks": 259200,
          "time": 190.31888012500002,
          "velocity": 0.2125984251968504
        },
        {
          "duration": 1.0053196666666508,
          "durationTicks": 1436,
          "midi": 55,
          "name": "G3",
          "ticks": 259200,
          "time": 190.31888012500002,
          "velocity": 0.2125984251968504
        },
        {
          "duration": 1.0053196666666508,
          "durationTicks": 1436,
          "midi": 58,
          "name": "A#3",
          "ticks": 259200,
          "time": 190.31888012500002,
          "velocity": 0.2755905511811024
        },
        {
          "duration": 0.33323966666668525,
          "durationTicks": 476,
          "midi": 53,
          "name": "F3",
          "ticks": 260640,
          "time": 191.327000125,
          "velocity": 0.2125984251968504
        },
        {
          "duration": 0.33323966666668525,
          "durationTicks": 476,
          "midi": 56,
          "name": "G#3",
          "ticks": 260640,
          "time": 191.327000125,
          "velocity": 0.2125984251968504
        },
        {
          "duration": 0.08120966666666618,
          "durationTicks": 116,
          "midi": 48,
          "name": "C3",
          "ticks": 262200,
          "time": 192.419130125,
          "velocity": 0.2677165354330709
        },
        {
          "duration": 0.08120966666666618,
          "durationTicks": 116,
          "midi": 52,
          "name": "E3",
          "ticks": 262320,
          "time": 192.50314012500002,
          "velocity": 0.29133858267716534
        },
        {
          "duration": 0.08120966666666618,
          "durationTicks": 116,
          "midi": 55,
          "name": "G3",
          "ticks": 262440,
          "time": 192.58715012500002,
          "velocity": 0.25196850393700787
        },
        {
          "duration": 0.08120966666666618,
          "durationTicks": 116,
          "midi": 60,
          "name": "C4",
          "ticks": 262560,
          "time": 192.67116012500003,
          "velocity": 0.28346456692913385
        },
        {
          "duration": 0.08120966666666618,
          "durationTicks": 116,
          "midi": 64,
          "name": "E4",
          "ticks": 262680,
          "time": 192.755170125,
          "velocity": 0.31496062992125984
        },
        {
          "duration": 0.08120966666666618,
          "durationTicks": 116,
          "midi": 67,
          "name": "G4",
          "ticks": 262800,
          "time": 192.839180125,
          "velocity": 0.3464566929133858
        },
        {
          "duration": 0.08120966666666618,
          "durationTicks": 116,
          "midi": 64,
          "name": "E4",
          "ticks": 262920,
          "time": 192.92319012500002,
          "velocity": 0.2755905511811024
        },
        {
          "duration": 0.08120966666663776,
          "durationTicks": 116,
          "midi": 60,
          "name": "C4",
          "ticks": 263040,
          "time": 193.00720012500003,
          "velocity": 0.2755905511811024
        },
        {
          "duration": 0.08120966666663776,
          "durationTicks": 116,
          "midi": 55,
          "name": "G3",
          "ticks": 263160,
          "time": 193.09121012500003,
          "velocity": 0.2755905511811024
        },
        {
          "duration": 0.08120966666666618,
          "durationTicks": 116,
          "midi": 52,
          "name": "E3",
          "ticks": 263280,
          "time": 193.175220125,
          "velocity": 0.2755905511811024
        },
        {
          "duration": 0.08120966666666618,
          "durationTicks": 116,
          "midi": 48,
          "name": "C3",
          "ticks": 263400,
          "time": 193.25923012500002,
          "velocity": 0.2755905511811024
        },
        {
          "duration": 0.33323966666665683,
          "durationTicks": 476,
          "midi": 53,
          "name": "F3",
          "ticks": 263520,
          "time": 193.34324012500002,
          "velocity": 0.2125984251968504
        },
        {
          "duration": 0.08120966666666618,
          "durationTicks": 116,
          "midi": 48,
          "name": "C3",
          "ticks": 265080,
          "time": 194.43537012500002,
          "velocity": 0.2677165354330709
        },
        {
          "duration": 0.08120966666663776,
          "durationTicks": 116,
          "midi": 52,
          "name": "E3",
          "ticks": 265200,
          "time": 194.51938012500003,
          "velocity": 0.29133858267716534
        },
        {
          "duration": 0.08120966666663776,
          "durationTicks": 116,
          "midi": 55,
          "name": "G3",
          "ticks": 265320,
          "time": 194.60339012500003,
          "velocity": 0.25196850393700787
        },
        {
          "duration": 0.08120966666666618,
          "durationTicks": 116,
          "midi": 60,
          "name": "C4",
          "ticks": 265440,
          "time": 194.687400125,
          "velocity": 0.28346456692913385
        },
        {
          "duration": 0.08120966666666618,
          "durationTicks": 116,
          "midi": 64,
          "name": "E4",
          "ticks": 265560,
          "time": 194.77141012500002,
          "velocity": 0.31496062992125984
        },
        {
          "duration": 0.08120966666666618,
          "durationTicks": 116,
          "midi": 67,
          "name": "G4",
          "ticks": 265680,
          "time": 194.85542012500002,
          "velocity": 0.3464566929133858
        },
        {
          "duration": 0.08120966666666618,
          "durationTicks": 116,
          "midi": 64,
          "name": "E4",
          "ticks": 265800,
          "time": 194.939430125,
          "velocity": 0.2755905511811024
        },
        {
          "duration": 0.08120966666666618,
          "durationTicks": 116,
          "midi": 60,
          "name": "C4",
          "ticks": 265920,
          "time": 195.023440125,
          "velocity": 0.2755905511811024
        },
        {
          "duration": 0.08120966666666618,
          "durationTicks": 116,
          "midi": 55,
          "name": "G3",
          "ticks": 266040,
          "time": 195.107450125,
          "velocity": 0.2755905511811024
        },
        {
          "duration": 0.08120966666666618,
          "durationTicks": 116,
          "midi": 52,
          "name": "E3",
          "ticks": 266160,
          "time": 195.19146012500002,
          "velocity": 0.2755905511811024
        },
        {
          "duration": 0.08120966666666618,
          "durationTicks": 116,
          "midi": 48,
          "name": "C3",
          "ticks": 266280,
          "time": 195.27547012500003,
          "velocity": 0.2755905511811024
        },
        {
          "duration": 0.33323966666668525,
          "durationTicks": 476,
          "midi": 53,
          "name": "F3",
          "ticks": 266400,
          "time": 195.359480125,
          "velocity": 0.2125984251968504
        },
        {
          "duration": 0.08120966666666618,
          "durationTicks": 116,
          "midi": 43,
          "name": "G2",
          "ticks": 267960,
          "time": 196.451610125,
          "velocity": 0.2677165354330709
        },
        {
          "duration": 0.08120966666666618,
          "durationTicks": 116,
          "midi": 47,
          "name": "B2",
          "ticks": 268080,
          "time": 196.535620125,
          "velocity": 0.29133858267716534
        },
        {
          "duration": 0.08120966666666618,
          "durationTicks": 116,
          "midi": 50,
          "name": "D3",
          "ticks": 268200,
          "time": 196.61963012500001,
          "velocity": 0.25196850393700787
        },
        {
          "duration": 0.08120966666666618,
          "durationTicks": 116,
          "midi": 55,
          "name": "G3",
          "ticks": 268320,
          "time": 196.70364012500002,
          "velocity": 0.28346456692913385
        },
        {
          "duration": 0.08120966666666618,
          "durationTicks": 116,
          "midi": 59,
          "name": "B3",
          "ticks": 268440,
          "time": 196.78765012500003,
          "velocity": 0.31496062992125984
        },
        {
          "duration": 0.08120966666666618,
          "durationTicks": 116,
          "midi": 62,
          "name": "D4",
          "ticks": 268560,
          "time": 196.871660125,
          "velocity": 0.3464566929133858
        },
        {
          "duration": 0.08120966666666618,
          "durationTicks": 116,
          "midi": 59,
          "name": "B3",
          "ticks": 268680,
          "time": 196.955670125,
          "velocity": 0.2755905511811024
        },
        {
          "duration": 0.08120966666666618,
          "durationTicks": 116,
          "midi": 55,
          "name": "G3",
          "ticks": 268800,
          "time": 197.03968012500002,
          "velocity": 0.2755905511811024
        },
        {
          "duration": 0.08120966666666618,
          "durationTicks": 116,
          "midi": 50,
          "name": "D3",
          "ticks": 268920,
          "time": 197.12369012500002,
          "velocity": 0.2755905511811024
        },
        {
          "duration": 0.08120966666666618,
          "durationTicks": 116,
          "midi": 47,
          "name": "B2",
          "ticks": 269040,
          "time": 197.20770012500003,
          "velocity": 0.2755905511811024
        },
        {
          "duration": 0.08120966666666618,
          "durationTicks": 116,
          "midi": 43,
          "name": "G2",
          "ticks": 269160,
          "time": 197.291710125,
          "velocity": 0.2755905511811024
        },
        {
          "duration": 0.33323966666665683,
          "durationTicks": 476,
          "midi": 48,
          "name": "C3",
          "ticks": 269280,
          "time": 197.37572012500002,
          "velocity": 0.1889763779527559
        },
        {
          "duration": 0.08120966666666618,
          "durationTicks": 116,
          "midi": 38,
          "name": "D2",
          "ticks": 270840,
          "time": 198.467850125,
          "velocity": 0.23622047244094488
        },
        {
          "duration": 0.08120966666666618,
          "durationTicks": 116,
          "midi": 42,
          "name": "F#2",
          "ticks": 270960,
          "time": 198.55186012500002,
          "velocity": 0.25984251968503935
        },
        {
          "duration": 0.08120966666663776,
          "durationTicks": 116,
          "midi": 45,
          "name": "A2",
          "ticks": 271080,
          "time": 198.63587012500003,
          "velocity": 0.2204724409448819
        },
        {
          "duration": 0.08120966666666618,
          "durationTicks": 116,
          "midi": 50,
          "name": "D3",
          "ticks": 271200,
          "time": 198.71988012500003,
          "velocity": 0.25196850393700787
        },
        {
          "duration": 0.08120966666666618,
          "durationTicks": 116,
          "midi": 54,
          "name": "F#3",
          "ticks": 271320,
          "time": 198.803890125,
          "velocity": 0.28346456692913385
        },
        {
          "duration": 0.08120966666666618,
          "durationTicks": 116,
          "midi": 57,
          "name": "A3",
          "ticks": 271440,
          "time": 198.88790012500002,
          "velocity": 0.30708661417322836
        },
        {
          "duration": 0.08120966666666618,
          "durationTicks": 116,
          "midi": 54,
          "name": "F#3",
          "ticks": 271560,
          "time": 198.97191012500002,
          "velocity": 0.2440944881889764
        },
        {
          "duration": 0.08120966666666618,
          "durationTicks": 116,
          "midi": 50,
          "name": "D3",
          "ticks": 271680,
          "time": 199.055920125,
          "velocity": 0.2440944881889764
        },
        {
          "duration": 0.08120966666666618,
          "durationTicks": 116,
          "midi": 45,
          "name": "A2",
          "ticks": 271800,
          "time": 199.139930125,
          "velocity": 0.2440944881889764
        },
        {
          "duration": 0.08120966666666618,
          "durationTicks": 116,
          "midi": 42,
          "name": "F#2",
          "ticks": 271920,
          "time": 199.223940125,
          "velocity": 0.2440944881889764
        },
        {
          "duration": 0.08120966666666618,
          "durationTicks": 116,
          "midi": 38,
          "name": "D2",
          "ticks": 272040,
          "time": 199.30795012500002,
          "velocity": 0.2440944881889764
        },
        {
          "duration": 0.33323966666665683,
          "durationTicks": 476,
          "midi": 43,
          "name": "G2",
          "ticks": 272160,
          "time": 199.39196012500003,
          "velocity": 0.2440944881889764
        },
        {
          "duration": 0.08120966666666618,
          "durationTicks": 116,
          "midi": 45,
          "name": "A2",
          "ticks": 273720,
          "time": 200.48409012500002,
          "velocity": 0.23622047244094488
        },
        {
          "duration": 0.08120966666666618,
          "durationTicks": 116,
          "midi": 49,
          "name": "C#3",
          "ticks": 273840,
          "time": 200.568100125,
          "velocity": 0.25984251968503935
        },
        {
          "duration": 0.08120966666666618,
          "durationTicks": 116,
          "midi": 52,
          "name": "E3",
          "ticks": 273960,
          "time": 200.652110125,
          "velocity": 0.2204724409448819
        },
        {
          "duration": 0.08120966666666618,
          "durationTicks": 116,
          "midi": 57,
          "name": "A3",
          "ticks": 274080,
          "time": 200.736120125,
          "velocity": 0.25196850393700787
        },
        {
          "duration": 0.08120966666666618,
          "durationTicks": 116,
          "midi": 61,
          "name": "C#4",
          "ticks": 274200,
          "time": 200.82013012500002,
          "velocity": 0.28346456692913385
        },
        {
          "duration": 0.08120966666666618,
          "durationTicks": 116,
          "midi": 64,
          "name": "E4",
          "ticks": 274320,
          "time": 200.90414012500003,
          "velocity": 0.30708661417322836
        },
        {
          "duration": 0.08120966666666618,
          "durationTicks": 116,
          "midi": 61,
          "name": "C#4",
          "ticks": 274440,
          "time": 200.988150125,
          "velocity": 0.2992125984251969
        },
        {
          "duration": 0.08120966666666618,
          "durationTicks": 116,
          "midi": 57,
          "name": "A3",
          "ticks": 274560,
          "time": 201.072160125,
          "velocity": 0.2440944881889764
        },
        {
          "duration": 0.08120966666666618,
          "durationTicks": 116,
          "midi": 52,
          "name": "E3",
          "ticks": 274680,
          "time": 201.15617012500002,
          "velocity": 0.2440944881889764
        },
        {
          "duration": 0.08120966666666618,
          "durationTicks": 116,
          "midi": 49,
          "name": "C#3",
          "ticks": 274800,
          "time": 201.24018012500002,
          "velocity": 0.2440944881889764
        },
        {
          "duration": 0.08120966666666618,
          "durationTicks": 116,
          "midi": 45,
          "name": "A2",
          "ticks": 274920,
          "time": 201.32419012500003,
          "velocity": 0.2440944881889764
        },
        {
          "duration": 0.33323966666665683,
          "durationTicks": 476,
          "midi": 50,
          "name": "D3",
          "ticks": 275040,
          "time": 201.408200125,
          "velocity": 0.2440944881889764
        },
        {
          "duration": 0.08120966666666618,
          "durationTicks": 116,
          "midi": 46,
          "name": "A#2",
          "ticks": 276600,
          "time": 202.500330125,
          "velocity": 0.3464566929133858
        },
        {
          "duration": 0.08120966666666618,
          "durationTicks": 116,
          "midi": 50,
          "name": "D3",
          "ticks": 276720,
          "time": 202.584340125,
          "velocity": 0.33858267716535434
        },
        {
          "duration": 0.08120966666666618,
          "durationTicks": 116,
          "midi": 53,
          "name": "F3",
          "ticks": 276840,
          "time": 202.66835012500002,
          "velocity": 0.3228346456692913
        },
        {
          "duration": 0.08120966666666618,
          "durationTicks": 116,
          "midi": 58,
          "name": "A#3",
          "ticks": 276960,
          "time": 202.75236012500002,
          "velocity": 0.3700787401574803
        },
        {
          "duration": 0.08120966666666618,
          "durationTicks": 116,
          "midi": 45,
          "name": "A2",
          "ticks": 277320,
          "time": 203.00439012500001,
          "velocity": 0.4094488188976378
        },
        {
          "duration": 0.08120966666666618,
          "durationTicks": 116,
          "midi": 50,
          "name": "D3",
          "ticks": 277440,
          "time": 203.08840012500002,
          "velocity": 0.3858267716535433
        },
        {
          "duration": 0.0812096666666946,
          "durationTicks": 116,
          "midi": 53,
          "name": "F3",
          "ticks": 277560,
          "time": 203.172410125,
          "velocity": 0.3700787401574803
        },
        {
          "duration": 0.0812096666666946,
          "durationTicks": 116,
          "midi": 57,
          "name": "A3",
          "ticks": 277680,
          "time": 203.256420125,
          "velocity": 0.4251968503937008
        },
        {
          "duration": 0.08120966666666618,
          "durationTicks": 116,
          "midi": 44,
          "name": "G#2",
          "ticks": 278040,
          "time": 203.50845012500002,
          "velocity": 0.4251968503937008
        },
        {
          "duration": 0.08120966666666618,
          "durationTicks": 116,
          "midi": 47,
          "name": "B2",
          "ticks": 278160,
          "time": 203.592460125,
          "velocity": 0.3937007874015748
        },
        {
          "duration": 0.08120966666666618,
          "durationTicks": 116,
          "midi": 50,
          "name": "D3",
          "ticks": 278280,
          "time": 203.676470125,
          "velocity": 0.3543307086614173
        },
        {
          "duration": 0.08120966666666618,
          "durationTicks": 116,
          "midi": 56,
          "name": "G#3",
          "ticks": 278400,
          "time": 203.76048012500002,
          "velocity": 0.3937007874015748
        },
        {
          "duration": 0.08120966666666618,
          "durationTicks": 116,
          "midi": 45,
          "name": "A2",
          "ticks": 278760,
          "time": 204.012510125,
          "velocity": 0.3779527559055118
        },
        {
          "duration": 0.08120966666666618,
          "durationTicks": 116,
          "midi": 50,
          "name": "D3",
          "ticks": 278880,
          "time": 204.096520125,
          "velocity": 0.3464566929133858
        },
        {
          "duration": 0.08120966666666618,
          "durationTicks": 116,
          "midi": 53,
          "name": "F3",
          "ticks": 279000,
          "time": 204.18053012500002,
          "velocity": 0.31496062992125984
        },
        {
          "duration": 0.08120966666666618,
          "durationTicks": 116,
          "midi": 57,
          "name": "A3",
          "ticks": 279120,
          "time": 204.26454012500002,
          "velocity": 0.3464566929133858
        },
        {
          "duration": 0.08120966666666618,
          "durationTicks": 116,
          "midi": 46,
          "name": "A#2",
          "ticks": 279480,
          "time": 204.51657012500002,
          "velocity": 0.3779527559055118
        },
        {
          "duration": 0.08120966666666618,
          "durationTicks": 116,
          "midi": 50,
          "name": "D3",
          "ticks": 279600,
          "time": 204.60058012500002,
          "velocity": 0.3700787401574803
        },
        {
          "duration": 0.0812096666666946,
          "durationTicks": 116,
          "midi": 53,
          "name": "F3",
          "ticks": 279720,
          "time": 204.684590125,
          "velocity": 0.3543307086614173
        },
        {
          "duration": 0.0812096666666946,
          "durationTicks": 116,
          "midi": 58,
          "name": "A#3",
          "ticks": 279840,
          "time": 204.768600125,
          "velocity": 0.4015748031496063
        },
        {
          "duration": 0.08120966666666618,
          "durationTicks": 116,
          "midi": 45,
          "name": "A2",
          "ticks": 280200,
          "time": 205.02063012500003,
          "velocity": 0.44881889763779526
        },
        {
          "duration": 0.08120966666666618,
          "durationTicks": 116,
          "midi": 50,
          "name": "D3",
          "ticks": 280320,
          "time": 205.104640125,
          "velocity": 0.41732283464566927
        },
        {
          "duration": 0.08120966666666618,
          "durationTicks": 116,
          "midi": 53,
          "name": "F3",
          "ticks": 280440,
          "time": 205.188650125,
          "velocity": 0.4015748031496063
        },
        {
          "duration": 0.08120966666666618,
          "durationTicks": 116,
          "midi": 57,
          "name": "A3",
          "ticks": 280560,
          "time": 205.27266012500002,
          "velocity": 0.4645669291338583
        },
        {
          "duration": 0.33323966666665683,
          "durationTicks": 476,
          "midi": 44,
          "name": "G#2",
          "ticks": 280800,
          "time": 205.44068012500003,
          "velocity": 0.4645669291338583
        },
        {
          "duration": 0.33323966666665683,
          "durationTicks": 476,
          "midi": 56,
          "name": "G#3",
          "ticks": 280800,
          "time": 205.44068012500003,
          "velocity": 0.4645669291338583
        },
        {
          "duration": 0.42112017499999865,
          "durationTicks": 476,
          "midi": 44,
          "name": "G#2",
          "ticks": 285120,
          "time": 208.821902125,
          "velocity": 0.4881889763779528
        },
        {
          "duration": 0.42112017499999865,
          "durationTicks": 476,
          "midi": 56,
          "name": "G#3",
          "ticks": 285120,
          "time": 208.821902125,
          "velocity": 0.5826771653543307
        },
        {
          "duration": 0.42112017499999865,
          "durationTicks": 476,
          "midi": 43,
          "name": "G2",
          "ticks": 285840,
          "time": 209.458890625,
          "velocity": 0.4881889763779528
        },
        {
          "duration": 0.42112017499999865,
          "durationTicks": 476,
          "midi": 55,
          "name": "G3",
          "ticks": 285840,
          "time": 209.458890625,
          "velocity": 0.5826771653543307
        },
        {
          "duration": 2.11467000833332,
          "durationTicks": 956,
          "midi": 38,
          "name": "D2",
          "ticks": 286560,
          "time": 210.095879125,
          "velocity": 0.5826771653543307
        },
        {
          "duration": 2.11467000833332,
          "durationTicks": 956,
          "midi": 50,
          "name": "D3",
          "ticks": 286560,
          "time": 210.095879125,
          "velocity": 0.5826771653543307
        },
        {
          "duration": 0.18332853333333787,
          "durationTicks": 256,
          "midi": 63,
          "name": "D#4",
          "ticks": 288000,
          "time": 214.343479125,
          "velocity": 0.18110236220472442
        },
        {
          "duration": 0.18332853333330945,
          "durationTicks": 256,
          "midi": 67,
          "name": "G4",
          "ticks": 288240,
          "time": 214.515349625,
          "velocity": 0.1889763779527559
        },
        {
          "duration": 0.18332853333333787,
          "durationTicks": 256,
          "midi": 70,
          "name": "A#4",
          "ticks": 288480,
          "time": 214.68722012499998,
          "velocity": 0.2047244094488189
        },
        {
          "duration": 0.18332853333333787,
          "durationTicks": 256,
          "midi": 63,
          "name": "D#4",
          "ticks": 288720,
          "time": 214.859090625,
          "velocity": 0.2204724409448819
        },
        {
          "duration": 0.18332853333333787,
          "durationTicks": 256,
          "midi": 67,
          "name": "G4",
          "ticks": 288960,
          "time": 215.03096112499998,
          "velocity": 0.2283464566929134
        },
        {
          "duration": 0.18332853333333787,
          "durationTicks": 256,
          "midi": 70,
          "name": "A#4",
          "ticks": 289200,
          "time": 215.202831625,
          "velocity": 0.2440944881889764
        },
        {
          "duration": 0.18332853333330945,
          "durationTicks": 256,
          "midi": 63,
          "name": "D#4",
          "ticks": 289440,
          "time": 215.374702125,
          "velocity": 0.25984251968503935
        },
        {
          "duration": 0.18332853333333787,
          "durationTicks": 256,
          "midi": 67,
          "name": "G4",
          "ticks": 289680,
          "time": 215.54657262499998,
          "velocity": 0.2440944881889764
        },
        {
          "duration": 0.18332853333333787,
          "durationTicks": 256,
          "midi": 70,
          "name": "A#4",
          "ticks": 289920,
          "time": 215.718443125,
          "velocity": 0.2283464566929134
        },
        {
          "duration": 0.18332853333333787,
          "durationTicks": 256,
          "midi": 63,
          "name": "D#4",
          "ticks": 290160,
          "time": 215.89031362499998,
          "velocity": 0.2125984251968504
        },
        {
          "duration": 0.18332853333333787,
          "durationTicks": 256,
          "midi": 67,
          "name": "G4",
          "ticks": 290400,
          "time": 216.062184125,
          "velocity": 0.1889763779527559
        },
        {
          "duration": 0.18332853333330945,
          "durationTicks": 256,
          "midi": 70,
          "name": "A#4",
          "ticks": 290640,
          "time": 216.234054625,
          "velocity": 0.25984251968503935
        },
        {
          "duration": 0.18332853333333787,
          "durationTicks": 256,
          "midi": 58,
          "name": "A#3",
          "ticks": 290880,
          "time": 216.40592512499998,
          "velocity": 0.25984251968503935
        },
        {
          "duration": 0.18332853333333787,
          "durationTicks": 256,
          "midi": 65,
          "name": "F4",
          "ticks": 291120,
          "time": 216.577795625,
          "velocity": 0.25984251968503935
        },
        {
          "duration": 0.18332853333333787,
          "durationTicks": 256,
          "midi": 68,
          "name": "G#4",
          "ticks": 291360,
          "time": 216.74966612499998,
          "velocity": 0.25984251968503935
        },
        {
          "duration": 0.18332853333333787,
          "durationTicks": 256,
          "midi": 58,
          "name": "A#3",
          "ticks": 291600,
          "time": 216.921536625,
          "velocity": 0.2283464566929134
        },
        {
          "duration": 0.18332853333330945,
          "durationTicks": 256,
          "midi": 63,
          "name": "D#4",
          "ticks": 291840,
          "time": 217.093407125,
          "velocity": 0.2283464566929134
        },
        {
          "duration": 0.18332853333333787,
          "durationTicks": 256,
          "midi": 67,
          "name": "G4",
          "ticks": 292080,
          "time": 217.26527762499998,
          "velocity": 0.2283464566929134
        },
        {
          "duration": 0.18332853333333787,
          "durationTicks": 256,
          "midi": 58,
          "name": "A#3",
          "ticks": 292320,
          "time": 217.437148125,
          "velocity": 0.2283464566929134
        },
        {
          "duration": 0.18332853333333787,
          "durationTicks": 256,
          "midi": 63,
          "name": "D#4",
          "ticks": 292560,
          "time": 217.60901862499998,
          "velocity": 0.2283464566929134
        },
        {
          "duration": 0.18332853333333787,
          "durationTicks": 256,
          "midi": 67,
          "name": "G4",
          "ticks": 292800,
          "time": 217.780889125,
          "velocity": 0.2125984251968504
        },
        {
          "duration": 0.18332853333330945,
          "durationTicks": 256,
          "midi": 58,
          "name": "A#3",
          "ticks": 293040,
          "time": 217.952759625,
          "velocity": 0.2047244094488189
        },
        {
          "duration": 0.18332853333333787,
          "durationTicks": 256,
          "midi": 62,
          "name": "D4",
          "ticks": 293280,
          "time": 218.12463012499998,
          "velocity": 0.1889763779527559
        },
        {
          "duration": 0.18332853333333787,
          "durationTicks": 256,
          "midi": 65,
          "name": "F4",
          "ticks": 293520,
          "time": 218.296500625,
          "velocity": 0.1732283464566929
        },
        {
          "duration": 0.1260383666666769,
          "durationTicks": 176,
          "midi": 63,
          "name": "D#4",
          "ticks": 293760,
          "time": 218.46837112499998,
          "velocity": 0.1889763779527559
        },
        {
          "duration": 0.1260383666666769,
          "durationTicks": 176,
          "midi": 67,
          "name": "G4",
          "ticks": 293760,
          "time": 218.46837112499998,
          "velocity": 0.2677165354330709
        },
        {
          "duration": 0.1260383666666769,
          "durationTicks": 176,
          "midi": 63,
          "name": "D#4",
          "ticks": 294480,
          "time": 218.98398262499998,
          "velocity": 0.2283464566929134
        },
        {
          "duration": 0.1260383666666769,
          "durationTicks": 176,
          "midi": 65,
          "name": "F4",
          "ticks": 294480,
          "time": 218.98398262499998,
          "velocity": 0.2283464566929134
        },
        {
          "duration": 0.1260383666666769,
          "durationTicks": 176,
          "midi": 68,
          "name": "G#4",
          "ticks": 294480,
          "time": 218.98398262499998,
          "velocity": 0.30708661417322836
        },
        {
          "duration": 0.5986822416666655,
          "durationTicks": 836,
          "midi": 63,
          "name": "D#4",
          "ticks": 295200,
          "time": 219.499594125,
          "velocity": 0.2755905511811024
        },
        {
          "duration": 0.5986822416666655,
          "durationTicks": 836,
          "midi": 67,
          "name": "G4",
          "ticks": 295200,
          "time": 219.499594125,
          "velocity": 0.2755905511811024
        },
        {
          "duration": 0.5986822416666655,
          "durationTicks": 836,
          "midi": 70,
          "name": "A#4",
          "ticks": 295200,
          "time": 219.499594125,
          "velocity": 0.3543307086614173
        },
        {
          "duration": 0.05442565833334356,
          "durationTicks": 76,
          "midi": 58,
          "name": "A#3",
          "ticks": 300960,
          "time": 223.62448612499998,
          "velocity": 0.2283464566929134
        },
        {
          "duration": 0.16900599166666552,
          "durationTicks": 236,
          "midi": 53,
          "name": "F3",
          "ticks": 301200,
          "time": 223.796356625,
          "velocity": 0.23622047244094488
        },
        {
          "duration": 0.08307074166665984,
          "durationTicks": 116,
          "midi": 54,
          "name": "F#3",
          "ticks": 301440,
          "time": 223.968227125,
          "velocity": 0.23622047244094488
        },
        {
          "duration": 0.05442565833334356,
          "durationTicks": 76,
          "midi": 60,
          "name": "C4",
          "ticks": 301680,
          "time": 224.14009762499998,
          "velocity": 0.2440944881889764
        },
        {
          "duration": 0.16900599166666552,
          "durationTicks": 236,
          "midi": 55,
          "name": "G3",
          "ticks": 301920,
          "time": 224.311968125,
          "velocity": 0.25196850393700787
        },
        {
          "duration": 0.08307074166668826,
          "durationTicks": 116,
          "midi": 56,
          "name": "G#3",
          "ticks": 302160,
          "time": 224.48383862499998,
          "velocity": 0.25196850393700787
        },
        {
          "duration": 0.2262961583333265,
          "durationTicks": 316,
          "midi": 61,
          "name": "C#4",
          "ticks": 302400,
          "time": 224.655709125,
          "velocity": 0.1889763779527559
        },
        {
          "duration": 0.05442565833331514,
          "durationTicks": 76,
          "midi": 59,
          "name": "B3",
          "ticks": 303840,
          "time": 225.686932125,
          "velocity": 0.2677165354330709
        },
        {
          "duration": 0.16900599166666552,
          "durationTicks": 236,
          "midi": 55,
          "name": "G3",
          "ticks": 304080,
          "time": 225.85880262499998,
          "velocity": 0.2125984251968504
        },
        {
          "duration": 0.08307074166665984,
          "durationTicks": 116,
          "midi": 56,
          "name": "G#3",
          "ticks": 304320,
          "time": 226.030673125,
          "velocity": 0.2204724409448819
        },
        {
          "duration": 0.05442565833334356,
          "durationTicks": 76,
          "midi": 62,
          "name": "D4",
          "ticks": 304560,
          "time": 226.20254362499998,
          "velocity": 0.2992125984251969
        },
        {
          "duration": 0.16900599166666552,
          "durationTicks": 236,
          "midi": 57,
          "name": "A3",
          "ticks": 304800,
          "time": 226.374414125,
          "velocity": 0.25196850393700787
        },
        {
          "duration": 0.08307074166665984,
          "durationTicks": 116,
          "midi": 58,
          "name": "A#3",
          "ticks": 305040,
          "time": 226.546284625,
          "velocity": 0.25984251968503935
        },
        {
          "duration": 0.2549412416666712,
          "durationTicks": 356,
          "midi": 63,
          "name": "D#4",
          "ticks": 305280,
          "time": 226.71815512499998,
          "velocity": 0.2125984251968504
        },
        {
          "duration": 0.05442565833331514,
          "durationTicks": 76,
          "midi": 61,
          "name": "C#4",
          "ticks": 306720,
          "time": 227.749378125,
          "velocity": 0.2677165354330709
        },
        {
          "duration": 0.16900599166666552,
          "durationTicks": 236,
          "midi": 57,
          "name": "A3",
          "ticks": 306960,
          "time": 227.92124862499998,
          "velocity": 0.2204724409448819
        },
        {
          "duration": 0.08307074166665984,
          "durationTicks": 116,
          "midi": 58,
          "name": "A#3",
          "ticks": 307200,
          "time": 228.093119125,
          "velocity": 0.2283464566929134
        },
        {
          "duration": 0.05442565833331514,
          "durationTicks": 76,
          "midi": 64,
          "name": "E4",
          "ticks": 307440,
          "time": 228.264989625,
          "velocity": 0.30708661417322836
        },
        {
          "duration": 0.16900599166666552,
          "durationTicks": 236,
          "midi": 59,
          "name": "B3",
          "ticks": 307680,
          "time": 228.43686012499998,
          "velocity": 0.25196850393700787
        },
        {
          "duration": 0.08307074166665984,
          "durationTicks": 116,
          "midi": 60,
          "name": "C4",
          "ticks": 307920,
          "time": 228.608730625,
          "velocity": 0.2755905511811024
        },
        {
          "duration": 0.22629615833335492,
          "durationTicks": 316,
          "midi": 65,
          "name": "F4",
          "ticks": 308160,
          "time": 228.78060112499998,
          "velocity": 0.25984251968503935
        },
        {
          "duration": 0.2262961583333265,
          "durationTicks": 316,
          "midi": 65,
          "name": "F4",
          "ticks": 308880,
          "time": 229.29621262499998,
          "velocity": 0.23622047244094488
        },
        {
          "duration": 0.2262961583333265,
          "durationTicks": 316,
          "midi": 69,
          "name": "A4",
          "ticks": 308880,
          "time": 229.29621262499998,
          "velocity": 0.23622047244094488
        },
        {
          "duration": 0.2262961583333265,
          "durationTicks": 316,
          "midi": 65,
          "name": "F4",
          "ticks": 309600,
          "time": 229.811824125,
          "velocity": 0.2125984251968504
        },
        {
          "duration": 0.2262961583333265,
          "durationTicks": 316,
          "midi": 70,
          "name": "A#4",
          "ticks": 309600,
          "time": 229.811824125,
          "velocity": 0.2125984251968504
        },
        {
          "duration": 0.2262961583333265,
          "durationTicks": 316,
          "midi": 65,
          "name": "F4",
          "ticks": 310320,
          "time": 230.327435625,
          "velocity": 0.1889763779527559
        },
        {
          "duration": 0.2262961583333265,
          "durationTicks": 316,
          "midi": 70,
          "name": "A#4",
          "ticks": 310320,
          "time": 230.327435625,
          "velocity": 0.1889763779527559
        },
        {
          "duration": 0.2262961583333265,
          "durationTicks": 316,
          "midi": 65,
          "name": "F4",
          "ticks": 311040,
          "time": 230.843047125,
          "velocity": 0.1889763779527559
        },
        {
          "duration": 0.2262961583333265,
          "durationTicks": 316,
          "midi": 69,
          "name": "A4",
          "ticks": 311040,
          "time": 230.843047125,
          "velocity": 0.1889763779527559
        },
        {
          "duration": 0.22629615833335492,
          "durationTicks": 316,
          "midi": 65,
          "name": "F4",
          "ticks": 311760,
          "time": 231.35865862499998,
          "velocity": 0.1889763779527559
        },
        {
          "duration": 0.22629615833335492,
          "durationTicks": 316,
          "midi": 69,
          "name": "A4",
          "ticks": 311760,
          "time": 231.35865862499998,
          "velocity": 0.1889763779527559
        },
        {
          "duration": 0.2262961583333265,
          "durationTicks": 316,
          "midi": 65,
          "name": "F4",
          "ticks": 312480,
          "time": 231.87427012499998,
          "velocity": 0.1889763779527559
        },
        {
          "duration": 0.2262961583333265,
          "durationTicks": 316,
          "midi": 70,
          "name": "A#4",
          "ticks": 312480,
          "time": 231.87427012499998,
          "velocity": 0.1889763779527559
        },
        {
          "duration": 0.2262961583333265,
          "durationTicks": 316,
          "midi": 65,
          "name": "F4",
          "ticks": 313200,
          "time": 232.389881625,
          "velocity": 0.1889763779527559
        },
        {
          "duration": 0.2262961583333265,
          "durationTicks": 316,
          "midi": 70,
          "name": "A#4",
          "ticks": 313200,
          "time": 232.389881625,
          "velocity": 0.1889763779527559
        },
        {
          "duration": 0.34087649166664846,
          "durationTicks": 476,
          "midi": 65,
          "name": "F4",
          "ticks": 313920,
          "time": 232.905493125,
          "velocity": 0.1889763779527559
        },
        {
          "duration": 0.34087649166664846,
          "durationTicks": 476,
          "midi": 69,
          "name": "A4",
          "ticks": 313920,
          "time": 232.905493125,
          "velocity": 0.1889763779527559
        },
        {
          "duration": 2.3547116750000043,
          "durationTicks": 2876,
          "midi": 53,
          "name": "F3",
          "ticks": 316800,
          "time": 234.967939125,
          "velocity": 0.2677165354330709
        },
        {
          "duration": 2.3547116750000043,
          "durationTicks": 2876,
          "midi": 60,
          "name": "C4",
          "ticks": 316800,
          "time": 234.967939125,
          "velocity": 0.2677165354330709
        },
        {
          "duration": 2.3547116750000043,
          "durationTicks": 2876,
          "midi": 63,
          "name": "D#4",
          "ticks": 316800,
          "time": 234.967939125,
          "velocity": 0.3464566929133858
        },
        {
          "duration": 1.1698204583333336,
          "durationTicks": 1436,
          "midi": 58,
          "name": "A#3",
          "ticks": 319680,
          "time": 237.32618962499998,
          "velocity": 0.23622047244094488
        },
        {
          "duration": 0.5577858666666771,
          "durationTicks": 656,
          "midi": 62,
          "name": "D4",
          "ticks": 319680,
          "time": 237.32618962499998,
          "velocity": 0.30708661417322836
        },
        {
          "duration": 0.047615866666689044,
          "durationTicks": 56,
          "midi": 65,
          "name": "F4",
          "ticks": 320340,
          "time": 237.88737662499997,
          "velocity": 0.30708661417322836
        },
        {
          "duration": 0.06107755833332362,
          "durationTicks": 76,
          "midi": 63,
          "name": "D#4",
          "ticks": 320400,
          "time": 237.93839362499997,
          "velocity": 0.30708661417322836
        },
        {
          "duration": 0.04291058333333808,
          "durationTicks": 56,
          "midi": 62,
          "name": "D4",
          "ticks": 320640,
          "time": 238.131270125,
          "velocity": 0.30708661417322836
        },
        {
          "duration": 0.04291058333333808,
          "durationTicks": 56,
          "midi": 63,
          "name": "D#4",
          "ticks": 320880,
          "time": 238.31517262499997,
          "velocity": 0.30708661417322836
        },
        {
          "duration": 1.0283584916666655,
          "durationTicks": 1436,
          "midi": 58,
          "name": "A#3",
          "ticks": 321120,
          "time": 238.499075125,
          "velocity": 0.23622047244094488
        },
        {
          "duration": 0.3408764916666769,
          "durationTicks": 476,
          "midi": 65,
          "name": "F4",
          "ticks": 321120,
          "time": 238.499075125,
          "velocity": 0.30708661417322836
        },
        {
          "duration": 0.08307074166665984,
          "durationTicks": 116,
          "midi": 62,
          "name": "D4",
          "ticks": 321600,
          "time": 238.84281612499998,
          "velocity": 0.30708661417322836
        },
        {
          "duration": 0.3838441166666655,
          "durationTicks": 536,
          "midi": 67,
          "name": "G4",
          "ticks": 321840,
          "time": 239.014686625,
          "velocity": 0.30708661417322836
        },
        {
          "duration": 0.08307074166665984,
          "durationTicks": 116,
          "midi": 65,
          "name": "F4",
          "ticks": 322320,
          "time": 239.358427625,
          "velocity": 0.30708661417322836
        },
        {
          "duration": 1.0283584916666655,
          "durationTicks": 1436,
          "midi": 58,
          "name": "A#3",
          "ticks": 322560,
          "time": 239.530298125,
          "velocity": 0.23622047244094488
        },
        {
          "duration": 1.0283584916666655,
          "durationTicks": 1436,
          "midi": 63,
          "name": "D#4",
          "ticks": 322560,
          "time": 239.530298125,
          "velocity": 0.2283464566929134
        },
        {
          "duration": 1.0283584916666655,
          "durationTicks": 1436,
          "midi": 58,
          "name": "A#3",
          "ticks": 324000,
          "time": 240.56152112499998,
          "velocity": 0.23622047244094488
        },
        {
          "duration": 1.0283584916666655,
          "durationTicks": 1436,
          "midi": 60,
          "name": "C4",
          "ticks": 324000,
          "time": 240.56152112499998,
          "velocity": 0.23622047244094488
        },
        {
          "duration": 1.0283584916666655,
          "durationTicks": 1436,
          "midi": 58,
          "name": "A#3",
          "ticks": 325440,
          "time": 241.592744125,
          "velocity": 0.23622047244094488
        },
        {
          "duration": 0.4697793666666712,
          "durationTicks": 656,
          "midi": 62,
          "name": "D4",
          "ticks": 325440,
          "time": 241.592744125,
          "velocity": 0.30708661417322836
        },
        {
          "duration": 0.04010311666667121,
          "durationTicks": 56,
          "midi": 65,
          "name": "F4",
          "ticks": 326100,
          "time": 242.06538799999998,
          "velocity": 0.30708661417322836
        },
        {
          "duration": 0.08307074166665984,
          "durationTicks": 116,
          "midi": 63,
          "name": "D#4",
          "ticks": 326160,
          "time": 242.108355625,
          "velocity": 0.30708661417322836
        },
        {
          "duration": 0.04010311666667121,
          "durationTicks": 56,
          "midi": 62,
          "name": "D4",
          "ticks": 326400,
          "time": 242.28022612499998,
          "velocity": 0.30708661417322836
        },
        {
          "duration": 0.04010311666667121,
          "durationTicks": 56,
          "midi": 63,
          "name": "D#4",
          "ticks": 326640,
          "time": 242.452096625,
          "velocity": 0.30708661417322836
        },
        {
          "duration": 1.0283584916666655,
          "durationTicks": 1436,
          "midi": 58,
          "name": "A#3",
          "ticks": 326880,
          "time": 242.62396712499998,
          "velocity": 0.23622047244094488
        },
        {
          "duration": 0.3408764916666769,
          "durationTicks": 476,
          "midi": 65,
          "name": "F4",
          "ticks": 326880,
          "time": 242.62396712499998,
          "velocity": 0.30708661417322836
        },
        {
          "duration": 0.08307074166665984,
          "durationTicks": 116,
          "midi": 62,
          "name": "D4",
          "ticks": 327360,
          "time": 242.967708125,
          "velocity": 0.30708661417322836
        },
        {
          "duration": 0.3408764916666769,
          "durationTicks": 476,
          "midi": 67,
          "name": "G4",
          "ticks": 327600,
          "time": 243.13957862499998,
          "velocity": 0.30708661417322836
        },
        {
          "duration": 0.08307074166668826,
          "durationTicks": 116,
          "midi": 65,
          "name": "F4",
          "ticks": 328080,
          "time": 243.48331962499998,
          "velocity": 0.30708661417322836
        },
        {
          "duration": 1.0283584916666655,
          "durationTicks": 1436,
          "midi": 58,
          "name": "A#3",
          "ticks": 328320,
          "time": 243.655190125,
          "velocity": 0.23622047244094488
        },
        {
          "duration": 1.0283584916666655,
          "durationTicks": 1436,
          "midi": 63,
          "name": "D#4",
          "ticks": 328320,
          "time": 243.655190125,
          "velocity": 0.23622047244094488
        },
        {
          "duration": 1.0283584916666655,
          "durationTicks": 1436,
          "midi": 58,
          "name": "A#3",
          "ticks": 329760,
          "time": 244.686413125,
          "velocity": 0.23622047244094488
        },
        {
          "duration": 1.0283584916666655,
          "durationTicks": 1436,
          "midi": 60,
          "name": "C4",
          "ticks": 329760,
          "time": 244.686413125,
          "velocity": 0.23622047244094488
        },
        {
          "duration": 0.16900599166666552,
          "durationTicks": 236,
          "midi": 58,
          "name": "A#3",
          "ticks": 331200,
          "time": 245.71763612499998,
          "velocity": 0.23622047244094488
        },
        {
          "duration": 0.16900599166666552,
          "durationTicks": 236,
          "midi": 62,
          "name": "D4",
          "ticks": 331200,
          "time": 245.71763612499998,
          "velocity": 0.23622047244094488
        },
        {
          "duration": 0.05442565833334356,
          "durationTicks": 76,
          "midi": 34,
          "name": "A#1",
          "ticks": 334080,
          "time": 247.78008212499998,
          "velocity": 0.3464566929133858
        },
        {
          "duration": 0.05442565833334356,
          "durationTicks": 76,
          "midi": 46,
          "name": "A#2",
          "ticks": 334200,
          "time": 247.86601737499998,
          "velocity": 0.3543307086614173
        },
        {
          "duration": 0.05442565833334356,
          "durationTicks": 76,
          "midi": 45,
          "name": "A2",
          "ticks": 334320,
          "time": 247.951952625,
          "velocity": 0.36220472440944884
        },
        {
          "duration": 0.05442565833331514,
          "durationTicks": 76,
          "midi": 46,
          "name": "A#2",
          "ticks": 334440,
          "time": 248.037887875,
          "velocity": 0.3700787401574803
        },
        {
          "duration": 0.05442565833331514,
          "durationTicks": 76,
          "midi": 36,
          "name": "C2",
          "ticks": 334560,
          "time": 248.123823125,
          "velocity": 0.3779527559055118
        },
        {
          "duration": 0.05442565833334356,
          "durationTicks": 76,
          "midi": 48,
          "name": "C3",
          "ticks": 334680,
          "time": 248.20975837499998,
          "velocity": 0.3858267716535433
        },
        {
          "duration": 0.05442565833334356,
          "durationTicks": 76,
          "midi": 38,
          "name": "D2",
          "ticks": 334800,
          "time": 248.29569362499998,
          "velocity": 0.3937007874015748
        },
        {
          "duration": 0.05442565833334356,
          "durationTicks": 76,
          "midi": 50,
          "name": "D3",
          "ticks": 334920,
          "time": 248.381628875,
          "velocity": 0.4015748031496063
        },
        {
          "duration": 0.05442565833331514,
          "durationTicks": 76,
          "midi": 48,
          "name": "C3",
          "ticks": 335040,
          "time": 248.467564125,
          "velocity": 0.4094488188976378
        },
        {
          "duration": 0.05442565833331514,
          "durationTicks": 76,
          "midi": 50,
          "name": "D3",
          "ticks": 335160,
          "time": 248.553499375,
          "velocity": 0.41732283464566927
        },
        {
          "duration": 0.05442565833334356,
          "durationTicks": 76,
          "midi": 40,
          "name": "E2",
          "ticks": 335280,
          "time": 248.63943462499998,
          "velocity": 0.4251968503937008
        },
        {
          "duration": 0.05442565833334356,
          "durationTicks": 76,
          "midi": 52,
          "name": "E3",
          "ticks": 335400,
          "time": 248.72536987499998,
          "velocity": 0.4330708661417323
        },
        {
          "duration": 0.3408764916666769,
          "durationTicks": 476,
          "midi": 41,
          "name": "F2",
          "ticks": 335520,
          "time": 248.811305125,
          "velocity": 0.4251968503937008
        },
        {
          "duration": 0.08307074166665984,
          "durationTicks": 116,
          "midi": 65,
          "name": "F4",
          "ticks": 336240,
          "time": 249.326916625,
          "velocity": 0.4251968503937008
        },
        {
          "duration": 0.08307074166665984,
          "durationTicks": 116,
          "midi": 64,
          "name": "E4",
          "ticks": 336360,
          "time": 249.412851875,
          "velocity": 0.33858267716535434
        },
        {
          "duration": 0.08307074166668826,
          "durationTicks": 116,
          "midi": 65,
          "name": "F4",
          "ticks": 336480,
          "time": 249.49878712499998,
          "velocity": 0.3228346456692913
        },
        {
          "duration": 0.08307074166665984,
          "durationTicks": 116,
          "midi": 64,
          "name": "E4",
          "ticks": 336600,
          "time": 249.58472237499998,
          "velocity": 0.30708661417322836
        },
        {
          "duration": 0.08307074166665984,
          "durationTicks": 116,
          "midi": 65,
          "name": "F4",
          "ticks": 336720,
          "time": 249.670657625,
          "velocity": 0.29133858267716534
        },
        {
          "duration": 0.08307074166665984,
          "durationTicks": 116,
          "midi": 64,
          "name": "E4",
          "ticks": 336840,
          "time": 249.756592875,
          "velocity": 0.2755905511811024
        },
        {
          "duration": 0.2549412416666428,
          "durationTicks": 356,
          "midi": 65,
          "name": "F4",
          "ticks": 336960,
          "time": 249.842528125,
          "velocity": 0.25984251968503935
        },
        {
          "duration": 0.08307074166668826,
          "durationTicks": 116,
          "midi": 77,
          "name": "F5",
          "ticks": 337680,
          "time": 250.35813962499998,
          "velocity": 0.4251968503937008
        },
        {
          "duration": 0.08307074166665984,
          "durationTicks": 116,
          "midi": 76,
          "name": "E5",
          "ticks": 337800,
          "time": 250.44407487499998,
          "velocity": 0.4015748031496063
        },
        {
          "duration": 0.08307074166665984,
          "durationTicks": 116,
          "midi": 77,
          "name": "F5",
          "ticks": 337920,
          "time": 250.530010125,
          "velocity": 0.3858267716535433
        },
        {
          "duration": 0.08307074166665984,
          "durationTicks": 116,
          "midi": 76,
          "name": "E5",
          "ticks": 338040,
          "time": 250.615945375,
          "velocity": 0.36220472440944884
        },
        {
          "duration": 0.08307074166665984,
          "durationTicks": 116,
          "midi": 77,
          "name": "F5",
          "ticks": 338160,
          "time": 250.701880625,
          "velocity": 0.3464566929133858
        },
        {
          "duration": 0.08307074166668826,
          "durationTicks": 116,
          "midi": 76,
          "name": "E5",
          "ticks": 338280,
          "time": 250.78781587499998,
          "velocity": 0.33070866141732286
        },
        {
          "duration": 0.16900599166666552,
          "durationTicks": 236,
          "midi": 77,
          "name": "F5",
          "ticks": 338400,
          "time": 250.87375112499998,
          "velocity": 0.30708661417322836
        },
        {
          "duration": 0.16900599166666552,
          "durationTicks": 236,
          "midi": 60,
          "name": "C4",
          "ticks": 341520,
          "time": 253.108067625,
          "velocity": 0.2677165354330709
        },
        {
          "duration": 0.16900599166666552,
          "durationTicks": 236,
          "midi": 63,
          "name": "D#4",
          "ticks": 341520,
          "time": 253.108067625,
          "velocity": 0.3464566929133858
        },
        {
          "duration": 0.16900599166666552,
          "durationTicks": 236,
          "midi": 62,
          "name": "D4",
          "ticks": 341760,
          "time": 253.279938125,
          "velocity": 0.2677165354330709
        },
        {
          "duration": 0.16900599166666552,
          "durationTicks": 236,
          "midi": 65,
          "name": "F4",
          "ticks": 341760,
          "time": 253.279938125,
          "velocity": 0.3464566929133858
        },
        {
          "duration": 0.16900599166666552,
          "durationTicks": 236,
          "midi": 63,
          "name": "D#4",
          "ticks": 342000,
          "time": 253.45180862499998,
          "velocity": 0.2677165354330709
        },
        {
          "duration": 0.16900599166666552,
          "durationTicks": 236,
          "midi": 66,
          "name": "F#4",
          "ticks": 342000,
          "time": 253.45180862499998,
          "velocity": 0.3464566929133858
        },
        {
          "duration": 0.16900599166666552,
          "durationTicks": 236,
          "midi": 62,
          "name": "D4",
          "ticks": 344400,
          "time": 255.17051362499998,
          "velocity": 0.29133858267716534
        },
        {
          "duration": 0.16900599166666552,
          "durationTicks": 236,
          "midi": 65,
          "name": "F4",
          "ticks": 344400,
          "time": 255.17051362499998,
          "velocity": 0.3779527559055118
        },
        {
          "duration": 0.16900599166666552,
          "durationTicks": 236,
          "midi": 63,
          "name": "D#4",
          "ticks": 344640,
          "time": 255.342384125,
          "velocity": 0.2677165354330709
        },
        {
          "duration": 0.16900599166666552,
          "durationTicks": 236,
          "midi": 67,
          "name": "G4",
          "ticks": 344640,
          "time": 255.342384125,
          "velocity": 0.3464566929133858
        },
        {
          "duration": 0.2835863250000159,
          "durationTicks": 396,
          "midi": 65,
          "name": "F4",
          "ticks": 344880,
          "time": 255.51425462499998,
          "velocity": 0.2440944881889764
        },
        {
          "duration": 0.2835863250000159,
          "durationTicks": 396,
          "midi": 68,
          "name": "G#4",
          "ticks": 344880,
          "time": 255.51425462499998,
          "velocity": 0.31496062992125984
        },
        {
          "duration": 1.0283584916666655,
          "durationTicks": 1436,
          "midi": 63,
          "name": "D#4",
          "ticks": 347040,
          "time": 257.06108912499997,
          "velocity": 0.2677165354330709
        },
        {
          "duration": 1.0283584916666655,
          "durationTicks": 1436,
          "midi": 67,
          "name": "G4",
          "ticks": 347040,
          "time": 257.06108912499997,
          "velocity": 0.2677165354330709
        },
        {
          "duration": 0.08307074166663142,
          "durationTicks": 116,
          "midi": 50,
          "name": "D3",
          "ticks": 348600,
          "time": 258.178247375,
          "velocity": 0.3464566929133858
        },
        {
          "duration": 0.08307074166668826,
          "durationTicks": 116,
          "midi": 53,
          "name": "F3",
          "ticks": 348720,
          "time": 258.264182625,
          "velocity": 0.3464566929133858
        },
        {
          "duration": 0.08307074166668826,
          "durationTicks": 116,
          "midi": 56,
          "name": "G#3",
          "ticks": 348840,
          "time": 258.35011787499997,
          "velocity": 0.3464566929133858
        },
        {
          "duration": 0.08307074166663142,
          "durationTicks": 116,
          "midi": 59,
          "name": "B3",
          "ticks": 348960,
          "time": 258.436053125,
          "velocity": 0.3464566929133858
        },
        {
          "duration": 0.08307074166668826,
          "durationTicks": 116,
          "midi": 62,
          "name": "D4",
          "ticks": 349080,
          "time": 258.521988375,
          "velocity": 0.3464566929133858
        },
        {
          "duration": 1.0283584916666655,
          "durationTicks": 1436,
          "midi": 63,
          "name": "D#4",
          "ticks": 349920,
          "time": 259.123535125,
          "velocity": 0.2677165354330709
        },
        {
          "duration": 1.0283584916666655,
          "durationTicks": 1436,
          "midi": 67,
          "name": "G4",
          "ticks": 349920,
          "time": 259.123535125,
          "velocity": 0.2677165354330709
        },
        {
          "duration": 0.08307074166668826,
          "durationTicks": 116,
          "midi": 50,
          "name": "D3",
          "ticks": 351480,
          "time": 260.240693375,
          "velocity": 0.3464566929133858
        },
        {
          "duration": 0.08307074166663142,
          "durationTicks": 116,
          "midi": 53,
          "name": "F3",
          "ticks": 351600,
          "time": 260.326628625,
          "velocity": 0.3464566929133858
        },
        {
          "duration": 0.08307074166668826,
          "durationTicks": 116,
          "midi": 56,
          "name": "G#3",
          "ticks": 351720,
          "time": 260.412563875,
          "velocity": 0.3464566929133858
        },
        {
          "duration": 0.08307074166668826,
          "durationTicks": 116,
          "midi": 59,
          "name": "B3",
          "ticks": 351840,
          "time": 260.49849912499997,
          "velocity": 0.3464566929133858
        },
        {
          "duration": 0.08307074166663142,
          "durationTicks": 116,
          "midi": 62,
          "name": "D4",
          "ticks": 351960,
          "time": 260.584434375,
          "velocity": 0.3464566929133858
        },
        {
          "duration": 1.0283584916666655,
          "durationTicks": 1436,
          "midi": 63,
          "name": "D#4",
          "ticks": 352800,
          "time": 261.185981125,
          "velocity": 0.2677165354330709
        },
        {
          "duration": 1.0283584916666655,
          "durationTicks": 1436,
          "midi": 67,
          "name": "G4",
          "ticks": 352800,
          "time": 261.185981125,
          "velocity": 0.2677165354330709
        },
        {
          "duration": 0.08307074166663142,
          "durationTicks": 116,
          "midi": 48,
          "name": "C3",
          "ticks": 354360,
          "time": 262.303139375,
          "velocity": 0.3464566929133858
        },
        {
          "duration": 0.08307074166668826,
          "durationTicks": 116,
          "midi": 51,
          "name": "D#3",
          "ticks": 354480,
          "time": 262.389074625,
          "velocity": 0.3464566929133858
        },
        {
          "duration": 0.08307074166663142,
          "durationTicks": 116,
          "midi": 54,
          "name": "F#3",
          "ticks": 354600,
          "time": 262.475009875,
          "velocity": 0.3464566929133858
        },
        {
          "duration": 0.08307074166668826,
          "durationTicks": 116,
          "midi": 57,
          "name": "A3",
          "ticks": 354720,
          "time": 262.560945125,
          "velocity": 0.3464566929133858
        },
        {
          "duration": 0.08307074166668826,
          "durationTicks": 116,
          "midi": 60,
          "name": "C4",
          "ticks": 354840,
          "time": 262.64688037499997,
          "velocity": 0.3464566929133858
        },
        {
          "duration": 1.0283584916666655,
          "durationTicks": 1436,
          "midi": 61,
          "name": "C#4",
          "ticks": 355680,
          "time": 263.248427125,
          "velocity": 0.2677165354330709
        },
        {
          "duration": 1.0283584916666655,
          "durationTicks": 1436,
          "midi": 65,
          "name": "F4",
          "ticks": 355680,
          "time": 263.248427125,
          "velocity": 0.2677165354330709
        },
        {
          "duration": 1.0283584916666655,
          "durationTicks": 1436,
          "midi": 58,
          "name": "A#3",
          "ticks": 357120,
          "time": 264.279650125,
          "velocity": 0.2677165354330709
        },
        {
          "duration": 1.0283584916666655,
          "durationTicks": 1436,
          "midi": 61,
          "name": "C#4",
          "ticks": 357120,
          "time": 264.279650125,
          "velocity": 0.3464566929133858
        },
        {
          "duration": 1.0283584916666655,
          "durationTicks": 1436,
          "midi": 54,
          "name": "F#3",
          "ticks": 358560,
          "time": 265.310873125,
          "velocity": 0.3464566929133858
        },
        {
          "duration": 1.0283584916666655,
          "durationTicks": 1436,
          "midi": 58,
          "name": "A#3",
          "ticks": 358560,
          "time": 265.310873125,
          "velocity": 0.4251968503937008
        },
        {
          "duration": 0.08307074166668826,
          "durationTicks": 116,
          "midi": 73,
          "name": "C#5",
          "ticks": 360120,
          "time": 266.428031375,
          "velocity": 0.4330708661417323
        },
        {
          "duration": 0.08307074166668826,
          "durationTicks": 116,
          "midi": 72,
          "name": "C5",
          "ticks": 360240,
          "time": 266.51396662499997,
          "velocity": 0.4409448818897638
        },
        {
          "duration": 0.08307074166663142,
          "durationTicks": 116,
          "midi": 73,
          "name": "C#5",
          "ticks": 360360,
          "time": 266.599901875,
          "velocity": 0.44881889763779526
        },
        {
          "duration": 0.08307074166668826,
          "durationTicks": 116,
          "midi": 71,
          "name": "B4",
          "ticks": 360480,
          "time": 266.685837125,
          "velocity": 0.4566929133858268
        },
        {
          "duration": 0.08307074166663142,
          "durationTicks": 116,
          "midi": 73,
          "name": "C#5",
          "ticks": 360600,
          "time": 266.771772375,
          "velocity": 0.4645669291338583
        },
        {
          "duration": 0.08307074166668826,
          "durationTicks": 116,
          "midi": 70,
          "name": "A#4",
          "ticks": 360720,
          "time": 266.857707625,
          "velocity": 0.47244094488188976
        },
        {
          "duration": 0.08307074166668826,
          "durationTicks": 116,
          "midi": 73,
          "name": "C#5",
          "ticks": 360840,
          "time": 266.94364287499997,
          "velocity": 0.48031496062992124
        },
        {
          "duration": 0.08307074166663142,
          "durationTicks": 116,
          "midi": 68,
          "name": "G#4",
          "ticks": 360960,
          "time": 267.029578125,
          "velocity": 0.4881889763779528
        },
        {
          "duration": 0.08307074166668826,
          "durationTicks": 116,
          "midi": 73,
          "name": "C#5",
          "ticks": 361080,
          "time": 267.115513375,
          "velocity": 0.49606299212598426
        },
        {
          "duration": 0.08307074166663142,
          "durationTicks": 116,
          "midi": 66,
          "name": "F#4",
          "ticks": 361200,
          "time": 267.201448625,
          "velocity": 0.5039370078740157
        },
        {
          "duration": 0.08307074166668826,
          "durationTicks": 116,
          "midi": 73,
          "name": "C#5",
          "ticks": 361320,
          "time": 267.287383875,
          "velocity": 0.5196850393700787
        },
        {
          "duration": 0.22629615833335492,
          "durationTicks": 316,
          "midi": 65,
          "name": "F4",
          "ticks": 361440,
          "time": 267.37331912499997,
          "velocity": 0.5433070866141733
        },
        {
          "duration": 0.22629615833335492,
          "durationTicks": 316,
          "midi": 69,
          "name": "A4",
          "ticks": 361680,
          "time": 267.545189625,
          "velocity": 0.4409448818897638
        },
        {
          "duration": 0.22629615833335492,
          "durationTicks": 316,
          "midi": 72,
          "name": "C5",
          "ticks": 361920,
          "time": 267.717060125,
          "velocity": 0.33070866141732286
        },
        {
          "duration": 0.22629615833329808,
          "durationTicks": 316,
          "midi": 65,
          "name": "F4",
          "ticks": 362160,
          "time": 267.888930625,
          "velocity": 0.33070866141732286
        },
        {
          "duration": 0.22629615833329808,
          "durationTicks": 316,
          "midi": 69,
          "name": "A4",
          "ticks": 362400,
          "time": 268.060801125,
          "velocity": 0.33070866141732286
        },
        {
          "duration": 0.22629615833335492,
          "durationTicks": 316,
          "midi": 72,
          "name": "C5",
          "ticks": 362640,
          "time": 268.23267162499997,
          "velocity": 0.33070866141732286
        },
        {
          "duration": 0.22629615833335492,
          "durationTicks": 316,
          "midi": 65,
          "name": "F4",
          "ticks": 362880,
          "time": 268.404542125,
          "velocity": 0.33070866141732286
        },
        {
          "duration": 0.22629615833335492,
          "durationTicks": 316,
          "midi": 70,
          "name": "A#4",
          "ticks": 363120,
          "time": 268.576412625,
          "velocity": 0.33070866141732286
        },
        {
          "duration": 0.22629615833329808,
          "durationTicks": 316,
          "midi": 73,
          "name": "C#5",
          "ticks": 363360,
          "time": 268.748283125,
          "velocity": 0.33070866141732286
        },
        {
          "duration": 0.22629615833329808,
          "durationTicks": 316,
          "midi": 65,
          "name": "F4",
          "ticks": 363600,
          "time": 268.920153625,
          "velocity": 0.33070866141732286
        },
        {
          "duration": 0.22629615833335492,
          "durationTicks": 316,
          "midi": 70,
          "name": "A#4",
          "ticks": 363840,
          "time": 269.09202412499997,
          "velocity": 0.33070866141732286
        },
        {
          "duration": 0.22629615833335492,
          "durationTicks": 316,
          "midi": 73,
          "name": "C#5",
          "ticks": 364080,
          "time": 269.263894625,
          "velocity": 0.33070866141732286
        },
        {
          "duration": 0.22629615833335492,
          "durationTicks": 316,
          "midi": 65,
          "name": "F4",
          "ticks": 364320,
          "time": 269.435765125,
          "velocity": 0.29133858267716534
        },
        {
          "duration": 0.22629615833329808,
          "durationTicks": 316,
          "midi": 69,
          "name": "A4",
          "ticks": 364560,
          "time": 269.607635625,
          "velocity": 0.29133858267716534
        },
        {
          "duration": 0.22629615833329808,
          "durationTicks": 316,
          "midi": 72,
          "name": "C5",
          "ticks": 364800,
          "time": 269.779506125,
          "velocity": 0.29133858267716534
        },
        {
          "duration": 0.22629615833335492,
          "durationTicks": 316,
          "midi": 65,
          "name": "F4",
          "ticks": 365040,
          "time": 269.95137662499997,
          "velocity": 0.29133858267716534
        },
        {
          "duration": 0.22629615833335492,
          "durationTicks": 316,
          "midi": 69,
          "name": "A4",
          "ticks": 365280,
          "time": 270.123247125,
          "velocity": 0.29133858267716534
        },
        {
          "duration": 0.22629615833335492,
          "durationTicks": 316,
          "midi": 72,
          "name": "C5",
          "ticks": 365520,
          "time": 270.295117625,
          "velocity": 0.29133858267716534
        },
        {
          "duration": 0.22629615833335492,
          "durationTicks": 316,
          "midi": 65,
          "name": "F4",
          "ticks": 365760,
          "time": 270.466988125,
          "velocity": 0.29133858267716534
        },
        {
          "duration": 0.22629615833329808,
          "durationTicks": 316,
          "midi": 70,
          "name": "A#4",
          "ticks": 366000,
          "time": 270.638858625,
          "velocity": 0.30708661417322836
        },
        {
          "duration": 0.22629615833335492,
          "durationTicks": 316,
          "midi": 73,
          "name": "C#5",
          "ticks": 366240,
          "time": 270.81072912499997,
          "velocity": 0.30708661417322836
        },
        {
          "duration": 0.22629615833335492,
          "durationTicks": 316,
          "midi": 65,
          "name": "F4",
          "ticks": 366480,
          "time": 270.982599625,
          "velocity": 0.31496062992125984
        },
        {
          "duration": 0.22629615833335492,
          "durationTicks": 316,
          "midi": 70,
          "name": "A#4",
          "ticks": 366720,
          "time": 271.154470125,
          "velocity": 0.3228346456692913
        },
        {
          "duration": 0.22629615833335492,
          "durationTicks": 316,
          "midi": 73,
          "name": "C#5",
          "ticks": 366960,
          "time": 271.326340625,
          "velocity": 0.33070866141732286
        },
        {
          "duration": 0.18619304166662687,
          "durationTicks": 260,
          "midi": 65,
          "name": "F4",
          "ticks": 367200,
          "time": 271.498211125,
          "velocity": 0.28346456692913385
        },
        {
          "duration": 0.05442565833334356,
          "durationTicks": 76,
          "midi": 58,
          "name": "A#3",
          "ticks": 373680,
          "time": 276.138714625,
          "velocity": 0.31496062992125984
        },
        {
          "duration": 0.05442565833334356,
          "durationTicks": 76,
          "midi": 60,
          "name": "C4",
          "ticks": 373680,
          "time": 276.138714625,
          "velocity": 0.31496062992125984
        },
        {
          "duration": 0.05442565833334356,
          "durationTicks": 76,
          "midi": 66,
          "name": "F#4",
          "ticks": 373680,
          "time": 276.138714625,
          "velocity": 0.3700787401574803
        },
        {
          "duration": 0.05442565833334356,
          "durationTicks": 76,
          "midi": 58,
          "name": "A#3",
          "ticks": 373920,
          "time": 276.310585125,
          "velocity": 0.23622047244094488
        },
        {
          "duration": 0.05442565833334356,
          "durationTicks": 76,
          "midi": 60,
          "name": "C4",
          "ticks": 373920,
          "time": 276.310585125,
          "velocity": 0.23622047244094488
        },
        {
          "duration": 0.05442565833334356,
          "durationTicks": 76,
          "midi": 66,
          "name": "F#4",
          "ticks": 373920,
          "time": 276.310585125,
          "velocity": 0.29133858267716534
        },
        {
          "duration": 0.05442565833334356,
          "durationTicks": 76,
          "midi": 58,
          "name": "A#3",
          "ticks": 374160,
          "time": 276.482455625,
          "velocity": 0.23622047244094488
        },
        {
          "duration": 0.05442565833334356,
          "durationTicks": 76,
          "midi": 60,
          "name": "C4",
          "ticks": 374160,
          "time": 276.482455625,
          "velocity": 0.23622047244094488
        },
        {
          "duration": 0.05442565833334356,
          "durationTicks": 76,
          "midi": 66,
          "name": "F#4",
          "ticks": 374160,
          "time": 276.482455625,
          "velocity": 0.29133858267716534
        },
        {
          "duration": 0.3408764916666769,
          "durationTicks": 476,
          "midi": 57,
          "name": "A3",
          "ticks": 374400,
          "time": 276.654326125,
          "velocity": 0.23622047244094488
        },
        {
          "duration": 0.3408764916666769,
          "durationTicks": 476,
          "midi": 60,
          "name": "C4",
          "ticks": 374400,
          "time": 276.654326125,
          "velocity": 0.23622047244094488
        },
        {
          "duration": 0.3408764916666769,
          "durationTicks": 476,
          "midi": 65,
          "name": "F4",
          "ticks": 374400,
          "time": 276.654326125,
          "velocity": 0.29133858267716534
        },
        {
          "duration": 0.05442565833334356,
          "durationTicks": 76,
          "midi": 70,
          "name": "A#4",
          "ticks": 376560,
          "time": 278.201160625,
          "velocity": 0.31496062992125984
        },
        {
          "duration": 0.05442565833334356,
          "durationTicks": 76,
          "midi": 72,
          "name": "C5",
          "ticks": 376560,
          "time": 278.201160625,
          "velocity": 0.31496062992125984
        },
        {
          "duration": 0.05442565833334356,
          "durationTicks": 76,
          "midi": 78,
          "name": "F#5",
          "ticks": 376560,
          "time": 278.201160625,
          "velocity": 0.3700787401574803
        },
        {
          "duration": 0.05442565833334356,
          "durationTicks": 76,
          "midi": 70,
          "name": "A#4",
          "ticks": 376800,
          "time": 278.373031125,
          "velocity": 0.23622047244094488
        },
        {
          "duration": 0.05442565833334356,
          "durationTicks": 76,
          "midi": 72,
          "name": "C5",
          "ticks": 376800,
          "time": 278.373031125,
          "velocity": 0.23622047244094488
        },
        {
          "duration": 0.05442565833334356,
          "durationTicks": 76,
          "midi": 78,
          "name": "F#5",
          "ticks": 376800,
          "time": 278.373031125,
          "velocity": 0.29133858267716534
        },
        {
          "duration": 0.05442565833334356,
          "durationTicks": 76,
          "midi": 70,
          "name": "A#4",
          "ticks": 377040,
          "time": 278.54490162499997,
          "velocity": 0.23622047244094488
        },
        {
          "duration": 0.05442565833334356,
          "durationTicks": 76,
          "midi": 72,
          "name": "C5",
          "ticks": 377040,
          "time": 278.54490162499997,
          "velocity": 0.23622047244094488
        },
        {
          "duration": 0.05442565833334356,
          "durationTicks": 76,
          "midi": 78,
          "name": "F#5",
          "ticks": 377040,
          "time": 278.54490162499997,
          "velocity": 0.29133858267716534
        },
        {
          "duration": 0.3408764916666769,
          "durationTicks": 476,
          "midi": 69,
          "name": "A4",
          "ticks": 377280,
          "time": 278.716772125,
          "velocity": 0.23622047244094488
        },
        {
          "duration": 0.3408764916666769,
          "durationTicks": 476,
          "midi": 72,
          "name": "C5",
          "ticks": 377280,
          "time": 278.716772125,
          "velocity": 0.23622047244094488
        },
        {
          "duration": 0.3408764916666769,
          "durationTicks": 476,
          "midi": 77,
          "name": "F5",
          "ticks": 377280,
          "time": 278.716772125,
          "velocity": 0.29133858267716534
        },
        {
          "duration": 0.16900599166666552,
          "durationTicks": 236,
          "midi": 62,
          "name": "D4",
          "ticks": 381360,
          "time": 281.638570625,
          "velocity": 0.25984251968503935
        },
        {
          "duration": 0.16900599166666552,
          "durationTicks": 236,
          "midi": 53,
          "name": "F3",
          "ticks": 381600,
          "time": 281.810441125,
          "velocity": 0.25984251968503935
        },
        {
          "duration": 0.08307074166663142,
          "durationTicks": 116,
          "midi": 63,
          "name": "D#4",
          "ticks": 381600,
          "time": 281.810441125,
          "velocity": 0.33858267716535434
        },
        {
          "duration": 0.16900599166666552,
          "durationTicks": 236,
          "midi": 62,
          "name": "D4",
          "ticks": 382080,
          "time": 282.154182125,
          "velocity": 0.25984251968503935
        },
        {
          "duration": 0.08307074166668826,
          "durationTicks": 116,
          "midi": 53,
          "name": "F3",
          "ticks": 382320,
          "time": 282.326052625,
          "velocity": 0.25984251968503935
        },
        {
          "duration": 0.16900599166666552,
          "durationTicks": 236,
          "midi": 63,
          "name": "D#4",
          "ticks": 382320,
          "time": 282.326052625,
          "velocity": 0.33858267716535434
        },
        {
          "duration": 0.16900599166666552,
          "durationTicks": 236,
          "midi": 62,
          "name": "D4",
          "ticks": 382800,
          "time": 282.669793625,
          "velocity": 0.25984251968503935
        },
        {
          "duration": 0.856487991666711,
          "durationTicks": 1196,
          "midi": 53,
          "name": "F3",
          "ticks": 383040,
          "time": 282.84166412499997,
          "velocity": 0.25984251968503935
        },
        {
          "duration": 0.856487991666711,
          "durationTicks": 1196,
          "midi": 57,
          "name": "A3",
          "ticks": 383040,
          "time": 282.84166412499997,
          "velocity": 0.33858267716535434
        },
        {
          "duration": 0.08307074166668826,
          "durationTicks": 116,
          "midi": 55,
          "name": "G3",
          "ticks": 384240,
          "time": 283.70101662499997,
          "velocity": 0.25984251968503935
        },
        {
          "duration": 0.08307074166668826,
          "durationTicks": 116,
          "midi": 58,
          "name": "A#3",
          "ticks": 384240,
          "time": 283.70101662499997,
          "velocity": 0.25984251968503935
        },
        {
          "duration": 0.3408764916666769,
          "durationTicks": 476,
          "midi": 51,
          "name": "D#3",
          "ticks": 384480,
          "time": 283.872887125,
          "velocity": 0.25984251968503935
        },
        {
          "duration": 0.3408764916666769,
          "durationTicks": 476,
          "midi": 55,
          "name": "G3",
          "ticks": 384480,
          "time": 283.872887125,
          "velocity": 0.25984251968503935
        },
        {
          "duration": 0.3408764916666769,
          "durationTicks": 476,
          "midi": 52,
          "name": "E3",
          "ticks": 385200,
          "time": 284.388498625,
          "velocity": 0.33858267716535434
        },
        {
          "duration": 0.3408764916666769,
          "durationTicks": 476,
          "midi": 55,
          "name": "G3",
          "ticks": 385200,
          "time": 284.388498625,
          "velocity": 0.33858267716535434
        },
        {
          "duration": 0.6846174916666996,
          "durationTicks": 956,
          "midi": 53,
          "name": "F3",
          "ticks": 385920,
          "time": 284.904110125,
          "velocity": 0.25984251968503935
        },
        {
          "duration": 0.5127469916666882,
          "durationTicks": 716,
          "midi": 62,
          "name": "D4",
          "ticks": 385920,
          "time": 284.904110125,
          "velocity": 0.33858267716535434
        },
        {
          "duration": 0.16900599166672237,
          "durationTicks": 236,
          "midi": 60,
          "name": "C4",
          "ticks": 386640,
          "time": 285.41972162499997,
          "velocity": 0.25984251968503935
        },
        {
          "duration": 0.16900599166666552,
          "durationTicks": 236,
          "midi": 74,
          "name": "D5",
          "ticks": 387120,
          "time": 285.763462625,
          "velocity": 0.25984251968503935
        },
        {
          "duration": 0.16900599166666552,
          "durationTicks": 236,
          "midi": 65,
          "name": "F4",
          "ticks": 387360,
          "time": 285.935333125,
          "velocity": 0.25984251968503935
        },
        {
          "duration": 0.16900599166666552,
          "durationTicks": 236,
          "midi": 75,
          "name": "D#5",
          "ticks": 387360,
          "time": 285.935333125,
          "velocity": 0.33858267716535434
        },
        {
          "duration": 0.16900599166672237,
          "durationTicks": 236,
          "midi": 74,
          "name": "D5",
          "ticks": 387840,
          "time": 286.27907412499997,
          "velocity": 0.25984251968503935
        },
        {
          "duration": 0.16900599166666552,
          "durationTicks": 236,
          "midi": 65,
          "name": "F4",
          "ticks": 388080,
          "time": 286.450944625,
          "velocity": 0.25984251968503935
        },
        {
          "duration": 0.16900599166666552,
          "durationTicks": 236,
          "midi": 75,
          "name": "D#5",
          "ticks": 388080,
          "time": 286.450944625,
          "velocity": 0.33858267716535434
        },
        {
          "duration": 0.16900599166666552,
          "durationTicks": 236,
          "midi": 74,
          "name": "D5",
          "ticks": 388560,
          "time": 286.794685625,
          "velocity": 0.25984251968503935
        },
        {
          "duration": 0.5127469916666314,
          "durationTicks": 716,
          "midi": 65,
          "name": "F4",
          "ticks": 388800,
          "time": 286.966556125,
          "velocity": 0.25984251968503935
        },
        {
          "duration": 0.8564879916666541,
          "durationTicks": 1196,
          "midi": 69,
          "name": "A4",
          "ticks": 388800,
          "time": 286.966556125,
          "velocity": 0.33858267716535434
        },
        {
          "duration": 0.3408764916666769,
          "durationTicks": 476,
          "midi": 66,
          "name": "F#4",
          "ticks": 389520,
          "time": 287.482167625,
          "velocity": 0.33858267716535434
        },
        {
          "duration": 0.16900599166666552,
          "durationTicks": 236,
          "midi": 67,
          "name": "G4",
          "ticks": 390000,
          "time": 287.825908625,
          "velocity": 0.25984251968503935
        },
        {
          "duration": 0.16900599166666552,
          "durationTicks": 236,
          "midi": 70,
          "name": "A#4",
          "ticks": 390000,
          "time": 287.825908625,
          "velocity": 0.33858267716535434
        },
        {
          "duration": 0.3408764916666769,
          "durationTicks": 476,
          "midi": 63,
          "name": "D#4",
          "ticks": 390240,
          "time": 287.99777912499997,
          "velocity": 0.25984251968503935
        },
        {
          "duration": 0.3408764916666769,
          "durationTicks": 476,
          "midi": 67,
          "name": "G4",
          "ticks": 390240,
          "time": 287.99777912499997,
          "velocity": 0.33858267716535434
        },
        {
          "duration": 0.08307074166668826,
          "durationTicks": 116,
          "midi": 65,
          "name": "F4",
          "ticks": 391440,
          "time": 288.85713162499997,
          "velocity": 0.25984251968503935
        },
        {
          "duration": 0.08307074166668826,
          "durationTicks": 116,
          "midi": 72,
          "name": "C5",
          "ticks": 391440,
          "time": 288.85713162499997,
          "velocity": 0.33858267716535434
        },
        {
          "duration": 0.6846174916666996,
          "durationTicks": 956,
          "midi": 70,
          "name": "A#4",
          "ticks": 391680,
          "time": 289.029002125,
          "velocity": 0.25984251968503935
        },
        {
          "duration": 0.5127469916666882,
          "durationTicks": 716,
          "midi": 75,
          "name": "D#5",
          "ticks": 391680,
          "time": 289.029002125,
          "velocity": 0.33858267716535434
        },
        {
          "duration": 0.16900599166666552,
          "durationTicks": 236,
          "midi": 74,
          "name": "D5",
          "ticks": 392400,
          "time": 289.544613625,
          "velocity": 0.25984251968503935
        },
        {
          "duration": 0.3408764916666769,
          "durationTicks": 476,
          "midi": 63,
          "name": "D#4",
          "ticks": 393120,
          "time": 290.060225125,
          "velocity": 0.3464566929133858
        },
        {
          "duration": 0.05442565833334356,
          "durationTicks": 76,
          "midi": 62,
          "name": "D4",
          "ticks": 393600,
          "time": 290.403966125,
          "velocity": 0.3464566929133858
        },
        {
          "duration": 0.3408764916666769,
          "durationTicks": 476,
          "midi": 63,
          "name": "D#4",
          "ticks": 393840,
          "time": 290.57583662499997,
          "velocity": 0.3464566929133858
        },
        {
          "duration": 0.05442565833334356,
          "durationTicks": 76,
          "midi": 62,
          "name": "D4",
          "ticks": 394320,
          "time": 290.919577625,
          "velocity": 0.3464566929133858
        },
        {
          "duration": 0.05442565833334356,
          "durationTicks": 76,
          "midi": 57,
          "name": "A3",
          "ticks": 394560,
          "time": 291.091448125,
          "velocity": 0.2755905511811024
        },
        {
          "duration": 0.05442565833334356,
          "durationTicks": 76,
          "midi": 60,
          "name": "C4",
          "ticks": 394680,
          "time": 291.177383375,
          "velocity": 0.2755905511811024
        },
        {
          "duration": 0.05442565833334356,
          "durationTicks": 76,
          "midi": 63,
          "name": "D#4",
          "ticks": 394800,
          "time": 291.263318625,
          "velocity": 0.2755905511811024
        },
        {
          "duration": 0.05442565833334356,
          "durationTicks": 76,
          "midi": 65,
          "name": "F4",
          "ticks": 394920,
          "time": 291.349253875,
          "velocity": 0.2755905511811024
        },
        {
          "duration": 0.05442565833334356,
          "durationTicks": 76,
          "midi": 51,
          "name": "D#3",
          "ticks": 396000,
          "time": 292.122671125,
          "velocity": 0.3464566929133858
        },
        {
          "duration": 0.05442565833334356,
          "durationTicks": 76,
          "midi": 60,
          "name": "C4",
          "ticks": 396120,
          "time": 292.208606375,
          "velocity": 0.3464566929133858
        },
        {
          "duration": 0.05442565833334356,
          "durationTicks": 76,
          "midi": 52,
          "name": "E3",
          "ticks": 396720,
          "time": 292.638282625,
          "velocity": 0.3464566929133858
        },
        {
          "duration": 0.05442565833328672,
          "durationTicks": 76,
          "midi": 60,
          "name": "C4",
          "ticks": 396840,
          "time": 292.724217875,
          "velocity": 0.3464566929133858
        },
        {
          "duration": 0.05442565833334356,
          "durationTicks": 76,
          "midi": 53,
          "name": "F3",
          "ticks": 397440,
          "time": 293.15389412499997,
          "velocity": 0.3464566929133858
        },
        {
          "duration": 0.05442565833334356,
          "durationTicks": 76,
          "midi": 58,
          "name": "A#3",
          "ticks": 397560,
          "time": 293.239829375,
          "velocity": 0.2755905511811024
        },
        {
          "duration": 0.05442565833334356,
          "durationTicks": 76,
          "midi": 62,
          "name": "D4",
          "ticks": 397680,
          "time": 293.325764625,
          "velocity": 0.2755905511811024
        },
        {
          "duration": 0.05442565833328672,
          "durationTicks": 76,
          "midi": 65,
          "name": "F4",
          "ticks": 397800,
          "time": 293.411699875,
          "velocity": 0.2755905511811024
        },
        {
          "duration": 0.3408764916666769,
          "durationTicks": 476,
          "midi": 63,
          "name": "D#4",
          "ticks": 398880,
          "time": 294.185117125,
          "velocity": 0.3464566929133858
        },
        {
          "duration": 0.05442565833334356,
          "durationTicks": 76,
          "midi": 62,
          "name": "D4",
          "ticks": 399360,
          "time": 294.528858125,
          "velocity": 0.3464566929133858
        },
        {
          "duration": 0.3408764916666769,
          "durationTicks": 476,
          "midi": 63,
          "name": "D#4",
          "ticks": 399600,
          "time": 294.700728625,
          "velocity": 0.3464566929133858
        },
        {
          "duration": 0.05442565833334356,
          "durationTicks": 76,
          "midi": 62,
          "name": "D4",
          "ticks": 400080,
          "time": 295.044469625,
          "velocity": 0.3464566929133858
        },
        {
          "duration": 0.05442565833334356,
          "durationTicks": 76,
          "midi": 57,
          "name": "A3",
          "ticks": 400320,
          "time": 295.216340125,
          "velocity": 0.2755905511811024
        },
        {
          "duration": 0.05442565833328672,
          "durationTicks": 76,
          "midi": 60,
          "name": "C4",
          "ticks": 400440,
          "time": 295.302275375,
          "velocity": 0.2755905511811024
        },
        {
          "duration": 0.05442565833334356,
          "durationTicks": 76,
          "midi": 63,
          "name": "D#4",
          "ticks": 400560,
          "time": 295.388210625,
          "velocity": 0.2755905511811024
        },
        {
          "duration": 0.05442565833334356,
          "durationTicks": 76,
          "midi": 65,
          "name": "F4",
          "ticks": 400680,
          "time": 295.474145875,
          "velocity": 0.2755905511811024
        },
        {
          "duration": 0.05442565833334356,
          "durationTicks": 76,
          "midi": 51,
          "name": "D#3",
          "ticks": 401760,
          "time": 296.247563125,
          "velocity": 0.3464566929133858
        },
        {
          "duration": 0.05442565833334356,
          "durationTicks": 76,
          "midi": 60,
          "name": "C4",
          "ticks": 401880,
          "time": 296.333498375,
          "velocity": 0.3464566929133858
        },
        {
          "duration": 0.05442565833334356,
          "durationTicks": 76,
          "midi": 53,
          "name": "F3",
          "ticks": 402480,
          "time": 296.763174625,
          "velocity": 0.3464566929133858
        },
        {
          "duration": 0.05442565833328672,
          "durationTicks": 76,
          "midi": 63,
          "name": "D#4",
          "ticks": 402600,
          "time": 296.849109875,
          "velocity": 0.3464566929133858
        },
        {
          "duration": 1.0283584916666655,
          "durationTicks": 1436,
          "midi": 34,
          "name": "A#1",
          "ticks": 403200,
          "time": 297.278786125,
          "velocity": 0.29133858267716534
        },
        {
          "duration": 1.0283584916666655,
          "durationTicks": 1436,
          "midi": 46,
          "name": "A#2",
          "ticks": 403200,
          "time": 297.278786125,
          "velocity": 0.3779527559055118
        },
        {
          "duration": 1.0283584916667223,
          "durationTicks": 1436,
          "midi": 46,
          "name": "A#2",
          "ticks": 404640,
          "time": 298.31000912499997,
          "velocity": 0.31496062992125984
        },
        {
          "duration": 1.0283584916667223,
          "durationTicks": 1436,
          "midi": 51,
          "name": "D#3",
          "ticks": 404640,
          "time": 298.31000912499997,
          "velocity": 0.31496062992125984
        },
        {
          "duration": 1.0283584916667223,
          "durationTicks": 1436,
          "midi": 57,
          "name": "A3",
          "ticks": 404640,
          "time": 298.31000912499997,
          "velocity": 0.4094488188976378
        },
        {
          "duration": 1.0283584916666655,
          "durationTicks": 1436,
          "midi": 46,
          "name": "A#2",
          "ticks": 406080,
          "time": 299.341232125,
          "velocity": 0.3464566929133858
        },
        {
          "duration": 1.0283584916666655,
          "durationTicks": 1436,
          "midi": 53,
          "name": "F3",
          "ticks": 406080,
          "time": 299.341232125,
          "velocity": 0.3464566929133858
        },
        {
          "duration": 1.0283584916666655,
          "durationTicks": 1436,
          "midi": 56,
          "name": "G#3",
          "ticks": 406080,
          "time": 299.341232125,
          "velocity": 0.4566929133858268
        },
        {
          "duration": 1.0283584916666655,
          "durationTicks": 1436,
          "midi": 46,
          "name": "A#2",
          "ticks": 407520,
          "time": 300.372455125,
          "velocity": 0.3858267716535433
        },
        {
          "duration": 0.9424232416666882,
          "durationTicks": 1316,
          "midi": 51,
          "name": "D#3",
          "ticks": 407520,
          "time": 300.372455125,
          "velocity": 0.3858267716535433
        },
        {
          "duration": 1.0283584916666655,
          "durationTicks": 1436,
          "midi": 55,
          "name": "G3",
          "ticks": 407520,
          "time": 300.372455125,
          "velocity": 0.49606299212598426
        },
        {
          "duration": 0.08307074166668826,
          "durationTicks": 116,
          "midi": 59,
          "name": "B3",
          "ticks": 408960,
          "time": 301.403678125,
          "velocity": 0.5984251968503937
        },
        {
          "duration": 0.08307074166668826,
          "durationTicks": 116,
          "midi": 62,
          "name": "D4",
          "ticks": 409080,
          "time": 301.489613375,
          "velocity": 0.5196850393700787
        },
        {
          "duration": 0.08307074166663142,
          "durationTicks": 116,
          "midi": 67,
          "name": "G4",
          "ticks": 409200,
          "time": 301.575548625,
          "velocity": 0.5196850393700787
        },
        {
          "duration": 0.11171582500003296,
          "durationTicks": 156,
          "midi": 60,
          "name": "C4",
          "ticks": 409680,
          "time": 301.919289625,
          "velocity": 0.6220472440944882
        },
        {
          "duration": 0.11171582499997612,
          "durationTicks": 156,
          "midi": 63,
          "name": "D#4",
          "ticks": 409800,
          "time": 302.005224875,
          "velocity": 0.5433070866141733
        },
        {
          "duration": 0.11171582500003296,
          "durationTicks": 156,
          "midi": 67,
          "name": "G4",
          "ticks": 409920,
          "time": 302.091160125,
          "velocity": 0.5511811023622047
        },
        {
          "duration": 0.11171582499997612,
          "durationTicks": 156,
          "midi": 57,
          "name": "A3",
          "ticks": 410400,
          "time": 302.434901125,
          "velocity": 0.6614173228346457
        },
        {
          "duration": 0.11171582499997612,
          "durationTicks": 156,
          "midi": 60,
          "name": "C4",
          "ticks": 410520,
          "time": 302.520836375,
          "velocity": 0.5748031496062992
        },
        {
          "duration": 0.11171582500003296,
          "durationTicks": 156,
          "midi": 65,
          "name": "F4",
          "ticks": 410640,
          "time": 302.60677162499996,
          "velocity": 0.5748031496062992
        },
        {
          "duration": 0.11171582500003296,
          "durationTicks": 156,
          "midi": 58,
          "name": "A#3",
          "ticks": 411120,
          "time": 302.950512625,
          "velocity": 0.6929133858267716
        },
        {
          "duration": 0.11171582499997612,
          "durationTicks": 156,
          "midi": 62,
          "name": "D4",
          "ticks": 411240,
          "time": 303.036447875,
          "velocity": 0.6062992125984252
        },
        {
          "duration": 0.11171582499997612,
          "durationTicks": 156,
          "midi": 65,
          "name": "F4",
          "ticks": 411360,
          "time": 303.122383125,
          "velocity": 0.6062992125984252
        },
        {
          "duration": 0.1884613500000114,
          "durationTicks": 196,
          "midi": 53,
          "name": "F3",
          "ticks": 420000,
          "time": 311.605983125,
          "velocity": 0.25984251968503935
        },
        {
          "duration": 0.1884613500000114,
          "durationTicks": 196,
          "midi": 57,
          "name": "A3",
          "ticks": 420000,
          "time": 311.605983125,
          "velocity": 0.25984251968503935
        },
        {
          "duration": 0.1884613500000114,
          "durationTicks": 196,
          "midi": 60,
          "name": "C4",
          "ticks": 420000,
          "time": 311.605983125,
          "velocity": 0.33858267716535434
        },
        {
          "duration": 0.12083333333333712,
          "durationTicks": 116,
          "midi": 54,
          "name": "F#3",
          "ticks": 420240,
          "time": 311.83675212500003,
          "velocity": 0.25984251968503935
        },
        {
          "duration": 0.12083333333333712,
          "durationTicks": 116,
          "midi": 60,
          "name": "C4",
          "ticks": 420240,
          "time": 311.83675212500003,
          "velocity": 0.25984251968503935
        },
        {
          "duration": 0.12083333333333712,
          "durationTicks": 116,
          "midi": 62,
          "name": "D4",
          "ticks": 420240,
          "time": 311.83675212500003,
          "velocity": 0.33858267716535434
        },
        {
          "duration": 0.3986605000000054,
          "durationTicks": 476,
          "midi": 55,
          "name": "G3",
          "ticks": 420480,
          "time": 312.08675212500003,
          "velocity": 0.25984251968503935
        },
        {
          "duration": 0.3986605000000054,
          "durationTicks": 476,
          "midi": 58,
          "name": "A#3",
          "ticks": 420480,
          "time": 312.08675212500003,
          "velocity": 0.25984251968503935
        },
        {
          "duration": 0.3986605000000054,
          "durationTicks": 476,
          "midi": 62,
          "name": "D4",
          "ticks": 420480,
          "time": 312.08675212500003,
          "velocity": 0.33858267716535434
        },
        {
          "duration": 0.4214286416666937,
          "durationTicks": 236,
          "midi": 57,
          "name": "A3",
          "ticks": 421440,
          "time": 312.97555062500004,
          "velocity": 0.2992125984251969
        },
        {
          "duration": 0.4214286416666937,
          "durationTicks": 236,
          "midi": 63,
          "name": "D#4",
          "ticks": 421440,
          "time": 312.97555062500004,
          "velocity": 0.25984251968503935
        },
        {
          "duration": 0.4214286416666937,
          "durationTicks": 236,
          "midi": 66,
          "name": "F#4",
          "ticks": 421440,
          "time": 312.97555062500004,
          "velocity": 0.3700787401574803
        },
        {
          "duration": 0.24166666666667425,
          "durationTicks": 116,
          "midi": 57,
          "name": "A3",
          "ticks": 421680,
          "time": 313.404122125,
          "velocity": 0.18110236220472442
        },
        {
          "duration": 0.24166666666667425,
          "durationTicks": 116,
          "midi": 63,
          "name": "D#4",
          "ticks": 421680,
          "time": 313.404122125,
          "velocity": 0.25984251968503935
        },
        {
          "duration": 0.24166666666667425,
          "durationTicks": 116,
          "midi": 65,
          "name": "F4",
          "ticks": 421680,
          "time": 313.404122125,
          "velocity": 0.25984251968503935
        },
        {
          "duration": 0.5519515750000323,
          "durationTicks": 676,
          "midi": 53,
          "name": "F3",
          "ticks": 421920,
          "time": 313.904122125,
          "velocity": 0.33858267716535434
        },
        {
          "duration": 0.10357132500001853,
          "durationTicks": 116,
          "midi": 60,
          "name": "C4",
          "ticks": 422040,
          "time": 314.011264875,
          "velocity": 0.25984251968503935
        },
        {
          "duration": 0.09354844166665544,
          "durationTicks": 116,
          "midi": 63,
          "name": "D#4",
          "ticks": 422160,
          "time": 314.11840762500003,
          "velocity": 0.25984251968503935
        },
        {
          "duration": 0.09354844166665544,
          "durationTicks": 116,
          "midi": 65,
          "name": "F4",
          "ticks": 422280,
          "time": 314.21518187500004,
          "velocity": 0.25984251968503935
        },
        {
          "duration": 0.08529407499997887,
          "durationTicks": 116,
          "midi": 63,
          "name": "D#4",
          "ticks": 422400,
          "time": 314.31195612500005,
          "velocity": 0.25984251968503935
        },
        {
          "duration": 0.08529407499997887,
          "durationTicks": 116,
          "midi": 60,
          "name": "C4",
          "ticks": 422520,
          "time": 314.4001913750001,
          "velocity": 0.25984251968503935
        },
        {
          "duration": 0.49705857499998274,
          "durationTicks": 676,
          "midi": 53,
          "name": "F3",
          "ticks": 422640,
          "time": 314.48842662500005,
          "velocity": 0.25984251968503935
        },
        {
          "duration": 0.08529407499997887,
          "durationTicks": 116,
          "midi": 60,
          "name": "C4",
          "ticks": 422760,
          "time": 314.57666187500007,
          "velocity": 0.25984251968503935
        },
        {
          "duration": 0.08529407500003572,
          "durationTicks": 116,
          "midi": 63,
          "name": "D#4",
          "ticks": 422880,
          "time": 314.66489712500004,
          "velocity": 0.25984251968503935
        },
        {
          "duration": 0.08529407499997887,
          "durationTicks": 116,
          "midi": 65,
          "name": "F4",
          "ticks": 423000,
          "time": 314.75313237500006,
          "velocity": 0.25984251968503935
        },
        {
          "duration": 0.08529407500003572,
          "durationTicks": 116,
          "midi": 63,
          "name": "D#4",
          "ticks": 423120,
          "time": 314.84136762500003,
          "velocity": 0.25984251968503935
        },
        {
          "duration": 0.08529407499997887,
          "durationTicks": 116,
          "midi": 60,
          "name": "C4",
          "ticks": 423240,
          "time": 314.92960287500006,
          "velocity": 0.25984251968503935
        },
        {
          "duration": 0.4676468250000312,
          "durationTicks": 636,
          "midi": 53,
          "name": "F3",
          "ticks": 423360,
          "time": 315.017838125,
          "velocity": 0.33858267716535434
        },
        {
          "duration": 0.08529407499997887,
          "durationTicks": 116,
          "midi": 58,
          "name": "A#3",
          "ticks": 423480,
          "time": 315.10607337500005,
          "velocity": 0.25984251968503935
        },
        {
          "duration": 0.08529407499997887,
          "durationTicks": 116,
          "midi": 62,
          "name": "D4",
          "ticks": 423600,
          "time": 315.1943086250001,
          "velocity": 0.25984251968503935
        },
        {
          "duration": 0.08529407499997887,
          "durationTicks": 116,
          "midi": 65,
          "name": "F4",
          "ticks": 423720,
          "time": 315.28254387500004,
          "velocity": 0.25984251968503935
        },
        {
          "duration": 0.08529407499997887,
          "durationTicks": 116,
          "midi": 62,
          "name": "D4",
          "ticks": 423840,
          "time": 315.37077912500007,
          "velocity": 0.25984251968503935
        },
        {
          "duration": 0.08529407500003572,
          "durationTicks": 116,
          "midi": 58,
          "name": "A#3",
          "ticks": 423960,
          "time": 315.45901437500004,
          "velocity": 0.25984251968503935
        },
        {
          "duration": 0.08529407499997887,
          "durationTicks": 116,
          "midi": 62,
          "name": "D4",
          "ticks": 424080,
          "time": 315.54724962500006,
          "velocity": 0.25984251968503935
        },
        {
          "duration": 0.08529407500003572,
          "durationTicks": 116,
          "midi": 58,
          "name": "A#3",
          "ticks": 424200,
          "time": 315.63548487500003,
          "velocity": 0.25984251968503935
        },
        {
          "duration": 0.08529407499997887,
          "durationTicks": 116,
          "midi": 63,
          "name": "D#4",
          "ticks": 424320,
          "time": 315.72372012500006,
          "velocity": 0.25984251968503935
        },
        {
          "duration": 0.08529407500003572,
          "durationTicks": 116,
          "midi": 60,
          "name": "C4",
          "ticks": 424440,
          "time": 315.811955375,
          "velocity": 0.25984251968503935
        },
        {
          "duration": 0.08529407499997887,
          "durationTicks": 116,
          "midi": 65,
          "name": "F4",
          "ticks": 424560,
          "time": 315.90019062500005,
          "velocity": 0.25984251968503935
        },
        {
          "duration": 0.08529407499997887,
          "durationTicks": 116,
          "midi": 62,
          "name": "D4",
          "ticks": 424680,
          "time": 315.9884258750001,
          "velocity": 0.25984251968503935
        },
        {
          "duration": 0.4676468250000312,
          "durationTicks": 636,
          "midi": 53,
          "name": "F3",
          "ticks": 424800,
          "time": 316.07666112500004,
          "velocity": 0.33858267716535434
        },
        {
          "duration": 0.08529407499997887,
          "durationTicks": 116,
          "midi": 60,
          "name": "C4",
          "ticks": 424920,
          "time": 316.16489637500007,
          "velocity": 0.25984251968503935
        },
        {
          "duration": 0.08529407500003572,
          "durationTicks": 116,
          "midi": 63,
          "name": "D#4",
          "ticks": 425040,
          "time": 316.25313162500004,
          "velocity": 0.25984251968503935
        },
        {
          "duration": 0.08529407499997887,
          "durationTicks": 116,
          "midi": 65,
          "name": "F4",
          "ticks": 425160,
          "time": 316.34136687500006,
          "velocity": 0.25984251968503935
        },
        {
          "duration": 0.08529407500003572,
          "durationTicks": 116,
          "midi": 63,
          "name": "D#4",
          "ticks": 425280,
          "time": 316.42960212500003,
          "velocity": 0.25984251968503935
        },
        {
          "duration": 0.08529407499997887,
          "durationTicks": 116,
          "midi": 60,
          "name": "C4",
          "ticks": 425400,
          "time": 316.51783737500006,
          "velocity": 0.25984251968503935
        },
        {
          "duration": 0.34999982500005444,
          "durationTicks": 476,
          "midi": 57,
          "name": "A3",
          "ticks": 425520,
          "time": 316.606072625,
          "velocity": 0.25984251968503935
        },
        {
          "duration": 0.08529407499997887,
          "durationTicks": 116,
          "midi": 60,
          "name": "C4",
          "ticks": 425640,
          "time": 316.69430787500005,
          "velocity": 0.2755905511811024
        },
        {
          "duration": 0.08529407499997887,
          "durationTicks": 116,
          "midi": 63,
          "name": "D#4",
          "ticks": 425760,
          "time": 316.7825431250001,
          "velocity": 0.29133858267716534
        },
        {
          "duration": 0.08529407500003572,
          "durationTicks": 116,
          "midi": 65,
          "name": "F4",
          "ticks": 425880,
          "time": 316.87077837500004,
          "velocity": 0.30708661417322836
        },
        {
          "duration": 0.08529407499997887,
          "durationTicks": 116,
          "midi": 66,
          "name": "F#4",
          "ticks": 426000,
          "time": 316.95901362500007,
          "velocity": 0.3228346456692913
        },
        {
          "duration": 0.11470582499998727,
          "durationTicks": 156,
          "midi": 63,
          "name": "D#4",
          "ticks": 426120,
          "time": 317.04724887500004,
          "velocity": 0.3464566929133858
        },
        {
          "duration": 0.11470582499998727,
          "durationTicks": 156,
          "midi": 62,
          "name": "D4",
          "ticks": 426240,
          "time": 317.13548412500006,
          "velocity": 0.3858267716535433
        },
        {
          "duration": 0.11470582500004411,
          "durationTicks": 156,
          "midi": 60,
          "name": "C4",
          "ticks": 426360,
          "time": 317.22371937500003,
          "velocity": 0.31496062992125984
        },
        {
          "duration": 0.11470582499998727,
          "durationTicks": 156,
          "midi": 58,
          "name": "A#3",
          "ticks": 426480,
          "time": 317.31195462500006,
          "velocity": 0.33070866141732286
        },
        {
          "duration": 0.11470582500004411,
          "durationTicks": 156,
          "midi": 57,
          "name": "A3",
          "ticks": 426600,
          "time": 317.400189875,
          "velocity": 0.33858267716535434
        },
        {
          "duration": 0.11470582499998727,
          "durationTicks": 156,
          "midi": 55,
          "name": "G3",
          "ticks": 426720,
          "time": 317.48842512500005,
          "velocity": 0.3464566929133858
        },
        {
          "duration": 0.11470582499998727,
          "durationTicks": 156,
          "midi": 53,
          "name": "F3",
          "ticks": 426840,
          "time": 317.5766603750001,
          "velocity": 0.3543307086614173
        },
        {
          "duration": 0.11470582499998727,
          "durationTicks": 156,
          "midi": 51,
          "name": "D#3",
          "ticks": 426960,
          "time": 317.66489562500004,
          "velocity": 0.36220472440944884
        },
        {
          "duration": 0.11470582499998727,
          "durationTicks": 156,
          "midi": 50,
          "name": "D3",
          "ticks": 427080,
          "time": 317.75313087500007,
          "velocity": 0.3779527559055118
        },
        {
          "duration": 0.11470582499998727,
          "durationTicks": 156,
          "midi": 48,
          "name": "C3",
          "ticks": 427200,
          "time": 317.84136612500004,
          "velocity": 0.3858267716535433
        },
        {
          "duration": 0.11470582499998727,
          "durationTicks": 156,
          "midi": 46,
          "name": "A#2",
          "ticks": 427320,
          "time": 317.92960137500006,
          "velocity": 0.3937007874015748
        },
        {
          "duration": 0.11470582500004411,
          "durationTicks": 156,
          "midi": 45,
          "name": "A2",
          "ticks": 427440,
          "time": 318.01783662500003,
          "velocity": 0.4015748031496063
        },
        {
          "duration": 0.11470582499998727,
          "durationTicks": 156,
          "midi": 43,
          "name": "G2",
          "ticks": 427560,
          "time": 318.10607187500005,
          "velocity": 0.4094488188976378
        },
        {
          "duration": 0.26176457500002925,
          "durationTicks": 356,
          "midi": 41,
          "name": "F2",
          "ticks": 427680,
          "time": 318.194307125,
          "velocity": 0.5118110236220472
        },
        {
          "duration": 0.14411757499999567,
          "durationTicks": 196,
          "midi": 48,
          "name": "C3",
          "ticks": 427800,
          "time": 318.28254237500005,
          "velocity": 0.3937007874015748
        },
        {
          "duration": 0.14411757499999567,
          "durationTicks": 196,
          "midi": 51,
          "name": "D#3",
          "ticks": 427920,
          "time": 318.3707776250001,
          "velocity": 0.3937007874015748
        },
        {
          "duration": 0.14411757499999567,
          "durationTicks": 196,
          "midi": 53,
          "name": "F3",
          "ticks": 428040,
          "time": 318.45901287500004,
          "velocity": 0.3937007874015748
        },
        {
          "duration": 0.14411757499999567,
          "durationTicks": 196,
          "midi": 51,
          "name": "D#3",
          "ticks": 428160,
          "time": 318.54724812500007,
          "velocity": 0.3937007874015748
        },
        {
          "duration": 0.08529407500003572,
          "durationTicks": 116,
          "midi": 48,
          "name": "C3",
          "ticks": 428280,
          "time": 318.63548337500004,
          "velocity": 0.3937007874015748
        },
        {
          "duration": 0.3205880749999892,
          "durationTicks": 436,
          "midi": 42,
          "name": "F#2",
          "ticks": 428400,
          "time": 318.72371862500006,
          "velocity": 0.5196850393700787
        },
        {
          "duration": 0.14411757499999567,
          "durationTicks": 196,
          "midi": 48,
          "name": "C3",
          "ticks": 428520,
          "time": 318.81195387500003,
          "velocity": 0.3937007874015748
        },
        {
          "duration": 0.14411757499999567,
          "durationTicks": 196,
          "midi": 51,
          "name": "D#3",
          "ticks": 428640,
          "time": 318.90018912500005,
          "velocity": 0.3937007874015748
        },
        {
          "duration": 0.14411757499999567,
          "durationTicks": 196,
          "midi": 54,
          "name": "F#3",
          "ticks": 428760,
          "time": 318.9884243750001,
          "velocity": 0.3937007874015748
        },
        {
          "duration": 0.14411757499999567,
          "durationTicks": 196,
          "midi": 51,
          "name": "D#3",
          "ticks": 428880,
          "time": 319.07665962500005,
          "velocity": 0.3937007874015748
        },
        {
          "duration": 0.08529407499997887,
          "durationTicks": 116,
          "midi": 48,
          "name": "C3",
          "ticks": 429000,
          "time": 319.1648948750001,
          "velocity": 0.3937007874015748
        },
        {
          "duration": 0.20294107500001246,
          "durationTicks": 276,
          "midi": 43,
          "name": "G2",
          "ticks": 429120,
          "time": 319.25313012500004,
          "velocity": 0.5196850393700787
        },
        {
          "duration": 0.17352932500000406,
          "durationTicks": 236,
          "midi": 46,
          "name": "A#2",
          "ticks": 429240,
          "time": 319.34136537500007,
          "velocity": 0.3937007874015748
        },
        {
          "duration": 0.14411757499999567,
          "durationTicks": 196,
          "midi": 50,
          "name": "D3",
          "ticks": 429360,
          "time": 319.42960062500003,
          "velocity": 0.4015748031496063
        },
        {
          "duration": 0.11470582499998727,
          "durationTicks": 156,
          "midi": 55,
          "name": "G3",
          "ticks": 429480,
          "time": 319.51783587500006,
          "velocity": 0.4094488188976378
        },
        {
          "duration": 0.08529407500003572,
          "durationTicks": 116,
          "midi": 58,
          "name": "A#3",
          "ticks": 429600,
          "time": 319.606071125,
          "velocity": 0.41732283464566927
        },
        {
          "duration": 0.08529407499997887,
          "durationTicks": 116,
          "midi": 55,
          "name": "G3",
          "ticks": 429720,
          "time": 319.69430637500005,
          "velocity": 0.4409448818897638
        },
        {
          "duration": 0.08529407499997887,
          "durationTicks": 116,
          "midi": 60,
          "name": "C4",
          "ticks": 429840,
          "time": 319.7825416250001,
          "velocity": 0.4409448818897638
        },
        {
          "duration": 0.08529407499997887,
          "durationTicks": 116,
          "midi": 57,
          "name": "A3",
          "ticks": 429960,
          "time": 319.87077687500005,
          "velocity": 0.44881889763779526
        },
        {
          "duration": 0.08529407499997887,
          "durationTicks": 116,
          "midi": 62,
          "name": "D4",
          "ticks": 430080,
          "time": 319.9590121250001,
          "velocity": 0.4566929133858268
        },
        {
          "duration": 0.08529407500003572,
          "durationTicks": 116,
          "midi": 58,
          "name": "A#3",
          "ticks": 430200,
          "time": 320.04724737500004,
          "velocity": 0.4645669291338583
        },
        {
          "duration": 0.08529407499997887,
          "durationTicks": 116,
          "midi": 67,
          "name": "G4",
          "ticks": 430320,
          "time": 320.13548262500007,
          "velocity": 0.3779527559055118
        },
        {
          "duration": 0.05588232500002732,
          "durationTicks": 76,
          "midi": 62,
          "name": "D4",
          "ticks": 430440,
          "time": 320.22371787500003,
          "velocity": 0.33858267716535434
        },
        {
          "duration": 0.3499998249999976,
          "durationTicks": 476,
          "midi": 60,
          "name": "C4",
          "ticks": 431520,
          "time": 321.01783512500003,
          "velocity": 0.28346456692913385
        },
        {
          "duration": 0.3499998249999976,
          "durationTicks": 476,
          "midi": 67,
          "name": "G4",
          "ticks": 431520,
          "time": 321.01783512500003,
          "velocity": 0.28346456692913385
        },
        {
          "duration": 0.3499998249999976,
          "durationTicks": 476,
          "midi": 70,
          "name": "A#4",
          "ticks": 431520,
          "time": 321.01783512500003,
          "velocity": 0.36220472440944884
        },
        {
          "duration": 0.08529407499997887,
          "durationTicks": 116,
          "midi": 65,
          "name": "F4",
          "ticks": 432000,
          "time": 321.3707761250001,
          "velocity": 0.2047244094488189
        },
        {
          "duration": 0.08529407499997887,
          "durationTicks": 116,
          "midi": 69,
          "name": "A4",
          "ticks": 432000,
          "time": 321.3707761250001,
          "velocity": 0.28346456692913385
        },
        {
          "duration": 0.3499998249999976,
          "durationTicks": 476,
          "midi": 55,
          "name": "G3",
          "ticks": 432960,
          "time": 322.07665812500005,
          "velocity": 0.28346456692913385
        },
        {
          "duration": 0.3499998249999976,
          "durationTicks": 476,
          "midi": 62,
          "name": "D4",
          "ticks": 432960,
          "time": 322.07665812500005,
          "velocity": 0.28346456692913385
        },
        {
          "duration": 0.3499998249999976,
          "durationTicks": 476,
          "midi": 65,
          "name": "F4",
          "ticks": 432960,
          "time": 322.07665812500005,
          "velocity": 0.4409448818897638
        },
        {
          "duration": 0.08529407500003572,
          "durationTicks": 116,
          "midi": 60,
          "name": "C4",
          "ticks": 433440,
          "time": 322.42959912500004,
          "velocity": 0.2047244094488189
        },
        {
          "duration": 0.08529407500003572,
          "durationTicks": 116,
          "midi": 64,
          "name": "E4",
          "ticks": 433440,
          "time": 322.42959912500004,
          "velocity": 0.28346456692913385
        },
        {
          "duration": 0.3499998249999976,
          "durationTicks": 476,
          "midi": 62,
          "name": "D4",
          "ticks": 434400,
          "time": 323.13548112500007,
          "velocity": 0.28346456692913385
        },
        {
          "duration": 0.3499998249999976,
          "durationTicks": 476,
          "midi": 69,
          "name": "A4",
          "ticks": 434400,
          "time": 323.13548112500007,
          "velocity": 0.28346456692913385
        },
        {
          "duration": 0.3499998249999976,
          "durationTicks": 476,
          "midi": 72,
          "name": "C5",
          "ticks": 434400,
          "time": 323.13548112500007,
          "velocity": 0.36220472440944884
        },
        {
          "duration": 0.08529407499997887,
          "durationTicks": 116,
          "midi": 67,
          "name": "G4",
          "ticks": 434880,
          "time": 323.48842212500006,
          "velocity": 0.2047244094488189
        },
        {
          "duration": 0.08529407499997887,
          "durationTicks": 116,
          "midi": 70,
          "name": "A#4",
          "ticks": 434880,
          "time": 323.48842212500006,
          "velocity": 0.2047244094488189
        },
        {
          "duration": 0.5450000000000159,
          "durationTicks": 476,
          "midi": 57,
          "name": "A3",
          "ticks": 435840,
          "time": 324.25564862500005,
          "velocity": 0.36220472440944884
        },
        {
          "duration": 0.5450000000000159,
          "durationTicks": 476,
          "midi": 63,
          "name": "D#4",
          "ticks": 435840,
          "time": 324.25564862500005,
          "velocity": 0.36220472440944884
        },
        {
          "duration": 0.5450000000000159,
          "durationTicks": 476,
          "midi": 65,
          "name": "F4",
          "ticks": 435840,
          "time": 324.25564862500005,
          "velocity": 0.4409448818897638
        },
        {
          "duration": 0.10357132500001853,
          "durationTicks": 116,
          "midi": 46,
          "name": "A#2",
          "ticks": 436320,
          "time": 324.80564862500006,
          "velocity": 0.5118110236220472
        },
        {
          "duration": 0.10357132500001853,
          "durationTicks": 116,
          "midi": 58,
          "name": "A#3",
          "ticks": 436320,
          "time": 324.80564862500006,
          "velocity": 0.6692913385826772
        },
        {
          "duration": 0.09062499999998863,
          "durationTicks": 116,
          "midi": 45,
          "name": "A2",
          "ticks": 436560,
          "time": 325.0199341250001,
          "velocity": 0.4330708661417323
        },
        {
          "duration": 0.09062499999998863,
          "durationTicks": 116,
          "midi": 57,
          "name": "A3",
          "ticks": 436560,
          "time": 325.0199341250001,
          "velocity": 0.5905511811023622
        },
        {
          "duration": 0.08529407499997887,
          "durationTicks": 116,
          "midi": 43,
          "name": "G2",
          "ticks": 436800,
          "time": 325.2074341250001,
          "velocity": 0.4330708661417323
        },
        {
          "duration": 0.08529407499997887,
          "durationTicks": 116,
          "midi": 55,
          "name": "G3",
          "ticks": 436800,
          "time": 325.2074341250001,
          "velocity": 0.5905511811023622
        },
        {
          "duration": 0.11470582499998727,
          "durationTicks": 156,
          "midi": 42,
          "name": "F#2",
          "ticks": 437040,
          "time": 325.38390462500007,
          "velocity": 0.4330708661417323
        },
        {
          "duration": 0.11470582499998727,
          "durationTicks": 156,
          "midi": 54,
          "name": "F#3",
          "ticks": 437040,
          "time": 325.38390462500007,
          "velocity": 0.5905511811023622
        },
        {
          "duration": 0.11470582499998727,
          "durationTicks": 156,
          "midi": 43,
          "name": "G2",
          "ticks": 437280,
          "time": 325.56037512500006,
          "velocity": 0.4330708661417323
        },
        {
          "duration": 0.11470582499998727,
          "durationTicks": 156,
          "midi": 55,
          "name": "G3",
          "ticks": 437280,
          "time": 325.56037512500006,
          "velocity": 0.5905511811023622
        },
        {
          "duration": 0.11470582500004411,
          "durationTicks": 156,
          "midi": 40,
          "name": "E2",
          "ticks": 437520,
          "time": 325.73684562500006,
          "velocity": 0.4330708661417323
        },
        {
          "duration": 0.11470582500004411,
          "durationTicks": 156,
          "midi": 52,
          "name": "E3",
          "ticks": 437520,
          "time": 325.73684562500006,
          "velocity": 0.5905511811023622
        },
        {
          "duration": 0.11470582500004411,
          "durationTicks": 156,
          "midi": 41,
          "name": "F2",
          "ticks": 437760,
          "time": 325.91331612500005,
          "velocity": 0.4330708661417323
        },
        {
          "duration": 0.11470582500004411,
          "durationTicks": 156,
          "midi": 53,
          "name": "F3",
          "ticks": 437760,
          "time": 325.91331612500005,
          "velocity": 0.5905511811023622
        },
        {
          "duration": 0.11470582499998727,
          "durationTicks": 156,
          "midi": 38,
          "name": "D2",
          "ticks": 438000,
          "time": 326.0897866250001,
          "velocity": 0.4330708661417323
        },
        {
          "duration": 0.11470582499998727,
          "durationTicks": 156,
          "midi": 50,
          "name": "D3",
          "ticks": 438000,
          "time": 326.0897866250001,
          "velocity": 0.5905511811023622
        },
        {
          "duration": 0.11470582499998727,
          "durationTicks": 156,
          "midi": 39,
          "name": "D#2",
          "ticks": 438240,
          "time": 326.2662571250001,
          "velocity": 0.4330708661417323
        },
        {
          "duration": 0.11470582499998727,
          "durationTicks": 156,
          "midi": 51,
          "name": "D#3",
          "ticks": 438240,
          "time": 326.2662571250001,
          "velocity": 0.5905511811023622
        },
        {
          "duration": 0.11470582499998727,
          "durationTicks": 156,
          "midi": 37,
          "name": "C#2",
          "ticks": 438480,
          "time": 326.4427276250001,
          "velocity": 0.4330708661417323
        },
        {
          "duration": 0.11470582499998727,
          "durationTicks": 156,
          "midi": 49,
          "name": "C#3",
          "ticks": 438480,
          "time": 326.4427276250001,
          "velocity": 0.5905511811023622
        },
        {
          "duration": 0.11470582499998727,
          "durationTicks": 156,
          "midi": 38,
          "name": "D2",
          "ticks": 438720,
          "time": 326.6191981250001,
          "velocity": 0.4330708661417323
        },
        {
          "duration": 0.11470582499998727,
          "durationTicks": 156,
          "midi": 50,
          "name": "D3",
          "ticks": 438720,
          "time": 326.6191981250001,
          "velocity": 0.5905511811023622
        },
        {
          "duration": 0.11470582499998727,
          "durationTicks": 156,
          "midi": 34,
          "name": "A#1",
          "ticks": 438960,
          "time": 326.7956686250001,
          "velocity": 0.4330708661417323
        },
        {
          "duration": 0.11470582499998727,
          "durationTicks": 156,
          "midi": 46,
          "name": "A#2",
          "ticks": 438960,
          "time": 326.7956686250001,
          "velocity": 0.5905511811023622
        },
        {
          "duration": 0.5264703249999911,
          "durationTicks": 716,
          "midi": 39,
          "name": "D#2",
          "ticks": 439200,
          "time": 326.97213912500007,
          "velocity": 0.4330708661417323
        },
        {
          "duration": 0.5264703249999911,
          "durationTicks": 716,
          "midi": 51,
          "name": "D#3",
          "ticks": 439200,
          "time": 326.97213912500007,
          "velocity": 0.5905511811023622
        },
        {
          "duration": 0.11470582499998727,
          "durationTicks": 156,
          "midi": 38,
          "name": "D2",
          "ticks": 440160,
          "time": 327.6780211250001,
          "velocity": 0.4330708661417323
        },
        {
          "duration": 0.11470582499998727,
          "durationTicks": 156,
          "midi": 50,
          "name": "D3",
          "ticks": 440160,
          "time": 327.6780211250001,
          "velocity": 0.5905511811023622
        },
        {
          "duration": 0.11470582499998727,
          "durationTicks": 156,
          "midi": 36,
          "name": "C2",
          "ticks": 440400,
          "time": 327.8544916250001,
          "velocity": 0.4330708661417323
        },
        {
          "duration": 0.11470582499998727,
          "durationTicks": 156,
          "midi": 48,
          "name": "C3",
          "ticks": 440400,
          "time": 327.8544916250001,
          "velocity": 0.5905511811023622
        },
        {
          "duration": 0.5264703249999911,
          "durationTicks": 716,
          "midi": 41,
          "name": "F2",
          "ticks": 440640,
          "time": 328.0309621250001,
          "velocity": 0.4330708661417323
        },
        {
          "duration": 0.5264703249999911,
          "durationTicks": 716,
          "midi": 53,
          "name": "F3",
          "ticks": 440640,
          "time": 328.0309621250001,
          "velocity": 0.5905511811023622
        },
        {
          "duration": 0.5264703249999911,
          "durationTicks": 716,
          "midi": 29,
          "name": "F1",
          "ticks": 441360,
          "time": 328.56037362500007,
          "velocity": 0.5118110236220472
        },
        {
          "duration": 0.5264703249999911,
          "durationTicks": 716,
          "midi": 41,
          "name": "F2",
          "ticks": 441360,
          "time": 328.56037362500007,
          "velocity": 0.5118110236220472
        },
        {
          "duration": 0.08529407500003572,
          "durationTicks": 116,
          "midi": 34,
          "name": "A#1",
          "ticks": 442080,
          "time": 329.08978512500005,
          "velocity": 0.5905511811023622
        },
        {
          "duration": 0.08529407499997887,
          "durationTicks": 116,
          "midi": 45,
          "name": "A2",
          "ticks": 442320,
          "time": 329.2662556250001,
          "velocity": 0.4330708661417323
        },
        {
          "duration": 0.08529407499997887,
          "durationTicks": 116,
          "midi": 57,
          "name": "A3",
          "ticks": 442320,
          "time": 329.2662556250001,
          "velocity": 0.5905511811023622
        },
        {
          "duration": 0.08529407499997887,
          "durationTicks": 116,
          "midi": 43,
          "name": "G2",
          "ticks": 442560,
          "time": 329.4427261250001,
          "velocity": 0.4330708661417323
        },
        {
          "duration": 0.08529407499997887,
          "durationTicks": 116,
          "midi": 55,
          "name": "G3",
          "ticks": 442560,
          "time": 329.4427261250001,
          "velocity": 0.5905511811023622
        },
        {
          "duration": 0.11470582499998727,
          "durationTicks": 156,
          "midi": 42,
          "name": "F#2",
          "ticks": 442800,
          "time": 329.6191966250001,
          "velocity": 0.4330708661417323
        },
        {
          "duration": 0.11470582499998727,
          "durationTicks": 156,
          "midi": 54,
          "name": "F#3",
          "ticks": 442800,
          "time": 329.6191966250001,
          "velocity": 0.5905511811023622
        },
        {
          "duration": 0.11470582499998727,
          "durationTicks": 156,
          "midi": 43,
          "name": "G2",
          "ticks": 443040,
          "time": 329.7956671250001,
          "velocity": 0.4330708661417323
        },
        {
          "duration": 0.11470582499998727,
          "durationTicks": 156,
          "midi": 55,
          "name": "G3",
          "ticks": 443040,
          "time": 329.7956671250001,
          "velocity": 0.5905511811023622
        },
        {
          "duration": 0.11470582499998727,
          "durationTicks": 156,
          "midi": 40,
          "name": "E2",
          "ticks": 443280,
          "time": 329.9721376250001,
          "velocity": 0.4330708661417323
        },
        {
          "duration": 0.11470582499998727,
          "durationTicks": 156,
          "midi": 52,
          "name": "E3",
          "ticks": 443280,
          "time": 329.9721376250001,
          "velocity": 0.5905511811023622
        },
        {
          "duration": 0.11470582499998727,
          "durationTicks": 156,
          "midi": 41,
          "name": "F2",
          "ticks": 443520,
          "time": 330.14860812500007,
          "velocity": 0.4330708661417323
        },
        {
          "duration": 0.11470582499998727,
          "durationTicks": 156,
          "midi": 53,
          "name": "F3",
          "ticks": 443520,
          "time": 330.14860812500007,
          "velocity": 0.5905511811023622
        },
        {
          "duration": 0.11470582500004411,
          "durationTicks": 156,
          "midi": 38,
          "name": "D2",
          "ticks": 443760,
          "time": 330.32507862500006,
          "velocity": 0.4330708661417323
        },
        {
          "duration": 0.11470582500004411,
          "durationTicks": 156,
          "midi": 50,
          "name": "D3",
          "ticks": 443760,
          "time": 330.32507862500006,
          "velocity": 0.5905511811023622
        },
        {
          "duration": 0.11470582500004411,
          "durationTicks": 156,
          "midi": 39,
          "name": "D#2",
          "ticks": 444000,
          "time": 330.50154912500005,
          "velocity": 0.4330708661417323
        },
        {
          "duration": 0.11470582500004411,
          "durationTicks": 156,
          "midi": 51,
          "name": "D#3",
          "ticks": 444000,
          "time": 330.50154912500005,
          "velocity": 0.5905511811023622
        },
        {
          "duration": 0.11470582499998727,
          "durationTicks": 156,
          "midi": 37,
          "name": "C#2",
          "ticks": 444240,
          "time": 330.6780196250001,
          "velocity": 0.4330708661417323
        },
        {
          "duration": 0.11470582499998727,
          "durationTicks": 156,
          "midi": 49,
          "name": "C#3",
          "ticks": 444240,
          "time": 330.6780196250001,
          "velocity": 0.5905511811023622
        },
        {
          "duration": 0.11470582499998727,
          "durationTicks": 156,
          "midi": 38,
          "name": "D2",
          "ticks": 444480,
          "time": 330.8544901250001,
          "velocity": 0.4330708661417323
        },
        {
          "duration": 0.11470582499998727,
          "durationTicks": 156,
          "midi": 50,
          "name": "D3",
          "ticks": 444480,
          "time": 330.8544901250001,
          "velocity": 0.5905511811023622
        },
        {
          "duration": 0.11470582499998727,
          "durationTicks": 156,
          "midi": 34,
          "name": "A#1",
          "ticks": 444720,
          "time": 331.0309606250001,
          "velocity": 0.4330708661417323
        },
        {
          "duration": 0.11470582499998727,
          "durationTicks": 156,
          "midi": 46,
          "name": "A#2",
          "ticks": 444720,
          "time": 331.0309606250001,
          "velocity": 0.5905511811023622
        },
        {
          "duration": 0.7029408249999847,
          "durationTicks": 956,
          "midi": 39,
          "name": "D#2",
          "ticks": 444960,
          "time": 331.2074311250001,
          "velocity": 0.4330708661417323
        },
        {
          "duration": 0.7029408249999847,
          "durationTicks": 956,
          "midi": 51,
          "name": "D#3",
          "ticks": 444960,
          "time": 331.2074311250001,
          "velocity": 0.6692913385826772
        },
        {
          "duration": 0.08529407500003572,
          "durationTicks": 116,
          "midi": 38,
          "name": "D2",
          "ticks": 445920,
          "time": 331.91331312500006,
          "velocity": 0.4330708661417323
        },
        {
          "duration": 0.08529407500003572,
          "durationTicks": 116,
          "midi": 50,
          "name": "D3",
          "ticks": 445920,
          "time": 331.91331312500006,
          "velocity": 0.5905511811023622
        },
        {
          "duration": 0.08529407500003572,
          "durationTicks": 116,
          "midi": 36,
          "name": "C2",
          "ticks": 446160,
          "time": 332.08978362500005,
          "velocity": 0.4330708661417323
        },
        {
          "duration": 0.08529407500003572,
          "durationTicks": 116,
          "midi": 48,
          "name": "C3",
          "ticks": 446160,
          "time": 332.08978362500005,
          "velocity": 0.5905511811023622
        },
        {
          "duration": 0.11470582499998727,
          "durationTicks": 156,
          "midi": 41,
          "name": "F2",
          "ticks": 446400,
          "time": 332.2662541250001,
          "velocity": 0.4330708661417323
        },
        {
          "duration": 0.232352824999964,
          "durationTicks": 316,
          "midi": 53,
          "name": "F3",
          "ticks": 446400,
          "time": 332.2662541250001,
          "velocity": 0.5118110236220472
        },
        {
          "duration": 0.11470582499998727,
          "durationTicks": 156,
          "midi": 41,
          "name": "F2",
          "ticks": 446640,
          "time": 332.4427246250001,
          "velocity": 0.4330708661417323
        },
        {
          "duration": 0.11470582499998727,
          "durationTicks": 156,
          "midi": 41,
          "name": "F2",
          "ticks": 446880,
          "time": 332.6191951250001,
          "velocity": 0.4330708661417323
        },
        {
          "duration": 0.3205880749999892,
          "durationTicks": 436,
          "midi": 41,
          "name": "F2",
          "ticks": 447120,
          "time": 332.7956656250001,
          "velocity": 0.4330708661417323
        },
        {
          "duration": 0.11470582499998727,
          "durationTicks": 156,
          "midi": 29,
          "name": "F1",
          "ticks": 447360,
          "time": 332.9721361250001,
          "velocity": 0.3543307086614173
        },
        {
          "duration": 0.11470582499998727,
          "durationTicks": 156,
          "midi": 29,
          "name": "F1",
          "ticks": 447600,
          "time": 333.14860662500007,
          "velocity": 0.3543307086614173
        },
        {
          "duration": 0.14411757499999567,
          "durationTicks": 196,
          "midi": 34,
          "name": "A#1",
          "ticks": 447840,
          "time": 333.32507712500006,
          "velocity": 0.3543307086614173
        },
        {
          "duration": 0.14411757499999567,
          "durationTicks": 196,
          "midi": 46,
          "name": "A#2",
          "ticks": 447840,
          "time": 333.32507712500006,
          "velocity": 0.3543307086614173
        },
        {
          "duration": 0.08529407500003572,
          "durationTicks": 116,
          "midi": 62,
          "name": "D4",
          "ticks": 448320,
          "time": 333.67801812500005,
          "velocity": 0.4330708661417323
        },
        {
          "duration": 0.08529407499997887,
          "durationTicks": 116,
          "midi": 65,
          "name": "F4",
          "ticks": 448560,
          "time": 333.8544886250001,
          "velocity": 0.4330708661417323
        },
        {
          "duration": 0.17352932500000406,
          "durationTicks": 236,
          "midi": 70,
          "name": "A#4",
          "ticks": 449040,
          "time": 334.2074296250001,
          "velocity": 0.4330708661417323
        },
        {
          "duration": 0.7029408249999847,
          "durationTicks": 956,
          "midi": 65,
          "name": "F4",
          "ticks": 449280,
          "time": 334.3839001250001,
          "velocity": 0.4330708661417323
        },
        {
          "duration": 0.08529407500003572,
          "durationTicks": 116,
          "midi": 63,
          "name": "D#4",
          "ticks": 450240,
          "time": 335.08978212500006,
          "velocity": 0.4330708661417323
        },
        {
          "duration": 0.08529407499997887,
          "durationTicks": 116,
          "midi": 60,
          "name": "C4",
          "ticks": 450480,
          "time": 335.2662526250001,
          "velocity": 0.3543307086614173
        },
        {
          "duration": 0.08529407499997887,
          "durationTicks": 116,
          "midi": 55,
          "name": "G3",
          "ticks": 450720,
          "time": 335.4427231250001,
          "velocity": 0.3858267716535433
        },
        {
          "duration": 0.11470582499998727,
          "durationTicks": 156,
          "midi": 58,
          "name": "A#3",
          "ticks": 451200,
          "time": 335.7956641250001,
          "velocity": 0.3858267716535433
        },
        {
          "duration": 0.08529407499997887,
          "durationTicks": 116,
          "midi": 62,
          "name": "D4",
          "ticks": 451440,
          "time": 335.9721346250001,
          "velocity": 0.3858267716535433
        },
        {
          "duration": 0.17352932500000406,
          "durationTicks": 236,
          "midi": 67,
          "name": "G4",
          "ticks": 451920,
          "time": 336.32507562500007,
          "velocity": 0.3858267716535433
        },
        {
          "duration": 0.7029408250000415,
          "durationTicks": 956,
          "midi": 62,
          "name": "D4",
          "ticks": 452160,
          "time": 336.50154612500006,
          "velocity": 0.30708661417322836
        },
        {
          "duration": 0.08529407499997887,
          "durationTicks": 116,
          "midi": 60,
          "name": "C4",
          "ticks": 453120,
          "time": 337.2074281250001,
          "velocity": 0.3858267716535433
        },
        {
          "duration": 0.08529407499997887,
          "durationTicks": 116,
          "midi": 57,
          "name": "A3",
          "ticks": 453360,
          "time": 337.3838986250001,
          "velocity": 0.3858267716535433
        },
        {
          "duration": 0.08529407499997887,
          "durationTicks": 116,
          "midi": 51,
          "name": "D#3",
          "ticks": 453600,
          "time": 337.5603691250001,
          "velocity": 0.33858267716535434
        },
        {
          "duration": 0.08529407499997887,
          "durationTicks": 116,
          "midi": 58,
          "name": "A#3",
          "ticks": 453720,
          "time": 337.6486043750001,
          "velocity": 0.33070866141732286
        },
        {
          "duration": 0.08529407499997887,
          "durationTicks": 116,
          "midi": 57,
          "name": "A3",
          "ticks": 453840,
          "time": 337.7368396250001,
          "velocity": 0.31496062992125984
        },
        {
          "duration": 0.08529407499997887,
          "durationTicks": 116,
          "midi": 58,
          "name": "A#3",
          "ticks": 453960,
          "time": 337.8250748750001,
          "velocity": 0.30708661417322836
        },
        {
          "duration": 0.08529407500003572,
          "durationTicks": 116,
          "midi": 55,
          "name": "G3",
          "ticks": 454080,
          "time": 337.91331012500007,
          "velocity": 0.29133858267716534
        },
        {
          "duration": 0.08529407499997887,
          "durationTicks": 116,
          "midi": 58,
          "name": "A#3",
          "ticks": 454200,
          "time": 338.0015453750001,
          "velocity": 0.28346456692913385
        },
        {
          "duration": 0.08529407500003572,
          "durationTicks": 116,
          "midi": 54,
          "name": "F#3",
          "ticks": 454320,
          "time": 338.08978062500006,
          "velocity": 0.2755905511811024
        },
        {
          "duration": 0.08529407499997887,
          "durationTicks": 116,
          "midi": 58,
          "name": "A#3",
          "ticks": 454440,
          "time": 338.1780158750001,
          "velocity": 0.25984251968503935
        },
        {
          "duration": 0.08529407500003572,
          "durationTicks": 116,
          "midi": 54,
          "name": "F#3",
          "ticks": 454560,
          "time": 338.26625112500005,
          "velocity": 0.25196850393700787
        },
        {
          "duration": 0.08529407499997887,
          "durationTicks": 116,
          "midi": 58,
          "name": "A#3",
          "ticks": 454680,
          "time": 338.3544863750001,
          "velocity": 0.2440944881889764
        },
        {
          "duration": 0.08529407499997887,
          "durationTicks": 116,
          "midi": 54,
          "name": "F#3",
          "ticks": 454800,
          "time": 338.4427216250001,
          "velocity": 0.2283464566929134
        },
        {
          "duration": 0.08529407499997887,
          "durationTicks": 116,
          "midi": 57,
          "name": "A3",
          "ticks": 454920,
          "time": 338.5309568750001,
          "velocity": 0.2125984251968504
        },
        {
          "duration": 0.08529407499997887,
          "durationTicks": 116,
          "midi": 53,
          "name": "F3",
          "ticks": 455040,
          "time": 338.6191921250001,
          "velocity": 0.2440944881889764
        },
        {
          "duration": 0.08529407500003572,
          "durationTicks": 116,
          "midi": 55,
          "name": "G3",
          "ticks": 455160,
          "time": 338.70742737500007,
          "velocity": 0.25196850393700787
        },
        {
          "duration": 0.08529407499997887,
          "durationTicks": 116,
          "midi": 57,
          "name": "A3",
          "ticks": 455280,
          "time": 338.7956626250001,
          "velocity": 0.2677165354330709
        },
        {
          "duration": 0.08529407500003572,
          "durationTicks": 116,
          "midi": 58,
          "name": "A#3",
          "ticks": 455400,
          "time": 338.88389787500006,
          "velocity": 0.28346456692913385
        },
        {
          "duration": 0.08529407499997887,
          "durationTicks": 116,
          "midi": 60,
          "name": "C4",
          "ticks": 455520,
          "time": 338.9721331250001,
          "velocity": 0.29133858267716534
        },
        {
          "duration": 0.08529407500003572,
          "durationTicks": 116,
          "midi": 62,
          "name": "D4",
          "ticks": 455640,
          "time": 339.06036837500005,
          "velocity": 0.30708661417322836
        },
        {
          "duration": 0.08529407499997887,
          "durationTicks": 116,
          "midi": 63,
          "name": "D#4",
          "ticks": 455760,
          "time": 339.1486036250001,
          "velocity": 0.3228346456692913
        },
        {
          "duration": 0.08529407499997887,
          "durationTicks": 116,
          "midi": 62,
          "name": "D4",
          "ticks": 455880,
          "time": 339.2368388750001,
          "velocity": 0.33858267716535434
        },
        {
          "duration": 0.08529407499997887,
          "durationTicks": 116,
          "midi": 63,
          "name": "D#4",
          "ticks": 456000,
          "time": 339.32507412500007,
          "velocity": 0.3543307086614173
        },
        {
          "duration": 0.08529407499997887,
          "durationTicks": 116,
          "midi": 62,
          "name": "D4",
          "ticks": 456120,
          "time": 339.4133093750001,
          "velocity": 0.36220472440944884
        },
        {
          "duration": 0.08529407500003572,
          "durationTicks": 116,
          "midi": 63,
          "name": "D#4",
          "ticks": 456240,
          "time": 339.50154462500007,
          "velocity": 0.3779527559055118
        },
        {
          "duration": 0.08529407499997887,
          "durationTicks": 116,
          "midi": 62,
          "name": "D4",
          "ticks": 456360,
          "time": 339.5897798750001,
          "velocity": 0.3543307086614173
        },
        {
          "duration": 0.17352932500000406,
          "durationTicks": 236,
          "midi": 57,
          "name": "A3",
          "ticks": 456480,
          "time": 339.67801512500006,
          "velocity": 0.2755905511811024
        },
        {
          "duration": 0.17352932500000406,
          "durationTicks": 236,
          "midi": 63,
          "name": "D#4",
          "ticks": 456480,
          "time": 339.67801512500006,
          "velocity": 0.2755905511811024
        },
        {
          "duration": 0.08529407499997887,
          "durationTicks": 116,
          "midi": 54,
          "name": "F#3",
          "ticks": 457200,
          "time": 340.2074266250001,
          "velocity": 0.31496062992125984
        },
        {
          "duration": 0.08529407499997887,
          "durationTicks": 116,
          "midi": 63,
          "name": "D#4",
          "ticks": 457200,
          "time": 340.2074266250001,
          "velocity": 0.4330708661417323
        },
        {
          "duration": 0.08529407499997887,
          "durationTicks": 116,
          "midi": 58,
          "name": "A#3",
          "ticks": 457440,
          "time": 340.3838971250001,
          "velocity": 0.31496062992125984
        },
        {
          "duration": 0.08529407499997887,
          "durationTicks": 116,
          "midi": 66,
          "name": "F#4",
          "ticks": 457440,
          "time": 340.3838971250001,
          "velocity": 0.4330708661417323
        },
        {
          "duration": 0.08529407499997887,
          "durationTicks": 116,
          "midi": 63,
          "name": "D#4",
          "ticks": 457680,
          "time": 340.5603676250001,
          "velocity": 0.31496062992125984
        },
        {
          "duration": 0.08529407499997887,
          "durationTicks": 116,
          "midi": 70,
          "name": "A#4",
          "ticks": 457680,
          "time": 340.5603676250001,
          "velocity": 0.4330708661417323
        },
        {
          "duration": 0.08529407499997887,
          "durationTicks": 116,
          "midi": 65,
          "name": "F4",
          "ticks": 457920,
          "time": 340.7368381250001,
          "velocity": 0.2755905511811024
        },
        {
          "duration": 0.08529407499997887,
          "durationTicks": 116,
          "midi": 67,
          "name": "G4",
          "ticks": 458040,
          "time": 340.8250733750001,
          "velocity": 0.1968503937007874
        },
        {
          "duration": 0.08529407500003572,
          "durationTicks": 116,
          "midi": 69,
          "name": "A4",
          "ticks": 458160,
          "time": 340.91330862500007,
          "velocity": 0.2125984251968504
        },
        {
          "duration": 0.08529407499997887,
          "durationTicks": 116,
          "midi": 70,
          "name": "A#4",
          "ticks": 458280,
          "time": 341.0015438750001,
          "velocity": 0.2204724409448819
        },
        {
          "duration": 0.08529407500003572,
          "durationTicks": 116,
          "midi": 72,
          "name": "C5",
          "ticks": 458400,
          "time": 341.08977912500006,
          "velocity": 0.2283464566929134
        },
        {
          "duration": 0.08529407499997887,
          "durationTicks": 116,
          "midi": 74,
          "name": "D5",
          "ticks": 458520,
          "time": 341.1780143750001,
          "velocity": 0.2440944881889764
        },
        {
          "duration": 0.08529407500003572,
          "durationTicks": 116,
          "midi": 75,
          "name": "D#5",
          "ticks": 458640,
          "time": 341.26624962500006,
          "velocity": 0.25196850393700787
        },
        {
          "duration": 0.08529407499997887,
          "durationTicks": 116,
          "midi": 74,
          "name": "D5",
          "ticks": 458760,
          "time": 341.3544848750001,
          "velocity": 0.2677165354330709
        },
        {
          "duration": 0.08529407500003572,
          "durationTicks": 116,
          "midi": 75,
          "name": "D#5",
          "ticks": 458880,
          "time": 341.44272012500005,
          "velocity": 0.28346456692913385
        },
        {
          "duration": 0.08529407499997887,
          "durationTicks": 116,
          "midi": 74,
          "name": "D5",
          "ticks": 459000,
          "time": 341.5309553750001,
          "velocity": 0.28346456692913385
        },
        {
          "duration": 0.08529407499997887,
          "durationTicks": 116,
          "midi": 75,
          "name": "D#5",
          "ticks": 459120,
          "time": 341.6191906250001,
          "velocity": 0.2992125984251969
        },
        {
          "duration": 0.08529407500003572,
          "durationTicks": 116,
          "midi": 74,
          "name": "D5",
          "ticks": 459240,
          "time": 341.70742587500007,
          "velocity": 0.28346456692913385
        },
        {
          "duration": 0.17352932500000406,
          "durationTicks": 236,
          "midi": 69,
          "name": "A4",
          "ticks": 459360,
          "time": 341.7956611250001,
          "velocity": 0.2755905511811024
        },
        {
          "duration": 0.17352932500000406,
          "durationTicks": 236,
          "midi": 75,
          "name": "D#5",
          "ticks": 459360,
          "time": 341.7956611250001,
          "velocity": 0.2755905511811024
        },
        {
          "duration": 0.09062499999998863,
          "durationTicks": 116,
          "midi": 66,
          "name": "F#4",
          "ticks": 460080,
          "time": 342.3250726250001,
          "velocity": 0.25196850393700787
        },
        {
          "duration": 0.09062499999998863,
          "durationTicks": 116,
          "midi": 75,
          "name": "D#5",
          "ticks": 460080,
          "time": 342.3250726250001,
          "velocity": 0.3464566929133858
        },
        {
          "duration": 0.09062499999998863,
          "durationTicks": 116,
          "midi": 70,
          "name": "A#4",
          "ticks": 460320,
          "time": 342.5125726250001,
          "velocity": 0.2283464566929134
        },
        {
          "duration": 0.09062499999998863,
          "durationTicks": 116,
          "midi": 78,
          "name": "F#5",
          "ticks": 460320,
          "time": 342.5125726250001,
          "velocity": 0.31496062992125984
        },
        {
          "duration": 0.09062499999998863,
          "durationTicks": 116,
          "midi": 75,
          "name": "D#5",
          "ticks": 460560,
          "time": 342.7000726250001,
          "velocity": 0.2125984251968504
        },
        {
          "duration": 0.09062499999998863,
          "durationTicks": 116,
          "midi": 82,
          "name": "A#5",
          "ticks": 460560,
          "time": 342.7000726250001,
          "velocity": 0.29133858267716534
        },
        {
          "duration": 0.919229850000022,
          "durationTicks": 956,
          "midi": 65,
          "name": "F4",
          "ticks": 460800,
          "time": 342.8875726250001,
          "velocity": 0.1968503937007874
        },
        {
          "duration": 0.919229850000022,
          "durationTicks": 956,
          "midi": 72,
          "name": "C5",
          "ticks": 460800,
          "time": 342.8875726250001,
          "velocity": 0.1968503937007874
        },
        {
          "duration": 0.22692284999999401,
          "durationTicks": 236,
          "midi": 53,
          "name": "F3",
          "ticks": 462240,
          "time": 344.2721866250001,
          "velocity": 0.2755905511811024
        },
        {
          "duration": 0.22692284999999401,
          "durationTicks": 236,
          "midi": 57,
          "name": "A3",
          "ticks": 462720,
          "time": 344.7337246250001,
          "velocity": 0.25196850393700787
        },
        {
          "duration": 0.22692284999999401,
          "durationTicks": 236,
          "midi": 60,
          "name": "C4",
          "ticks": 462960,
          "time": 344.9644936250001,
          "velocity": 0.2440944881889764
        },
        {
          "duration": 0.22692284999999401,
          "durationTicks": 236,
          "midi": 65,
          "name": "F4",
          "ticks": 463440,
          "time": 345.42603162500006,
          "velocity": 0.2204724409448819
        },
        {
          "duration": 0.6884608500000127,
          "durationTicks": 716,
          "midi": 66,
          "name": "F#4",
          "ticks": 463680,
          "time": 345.6568006250001,
          "velocity": 0.2047244094488189
        },
        {
          "duration": 0.24500000000000455,
          "durationTicks": 196,
          "midi": 54,
          "name": "F#3",
          "ticks": 465120,
          "time": 347.2491076250001,
          "velocity": 0.1968503937007874
        },
        {
          "duration": 0.2950000000000159,
          "durationTicks": 236,
          "midi": 57,
          "name": "A3",
          "ticks": 465600,
          "time": 347.8491076250001,
          "velocity": 0.2204724409448819
        },
        {
          "duration": 0.19499999999999318,
          "durationTicks": 156,
          "midi": 60,
          "name": "C4",
          "ticks": 465840,
          "time": 348.1491076250001,
          "velocity": 0.25196850393700787
        },
        {
          "duration": 0.2950000000000159,
          "durationTicks": 236,
          "midi": 64,
          "name": "E4",
          "ticks": 466320,
          "time": 348.7491076250001,
          "velocity": 0.1968503937007874
        },
        {
          "duration": 1.3450000000000273,
          "durationTicks": 1196,
          "midi": 65,
          "name": "F4",
          "ticks": 466560,
          "time": 349.0491076250001,
          "velocity": 0.15748031496062992
        },
        {
          "duration": 0.17777760000001308,
          "durationTicks": 256,
          "midi": 58,
          "name": "A#3",
          "ticks": 469440,
          "time": 352.69910862500006,
          "velocity": 0.18110236220472442
        },
        {
          "duration": 0.17777759999995624,
          "durationTicks": 256,
          "midi": 62,
          "name": "D4",
          "ticks": 469680,
          "time": 352.8657751250001,
          "velocity": 0.1889763779527559
        },
        {
          "duration": 0.17777760000001308,
          "durationTicks": 256,
          "midi": 65,
          "name": "F4",
          "ticks": 469920,
          "time": 353.03244162500005,
          "velocity": 0.2047244094488189
        },
        {
          "duration": 0.17777760000001308,
          "durationTicks": 256,
          "midi": 58,
          "name": "A#3",
          "ticks": 470160,
          "time": 353.19910812500007,
          "velocity": 0.2204724409448819
        },
        {
          "duration": 0.17777759999995624,
          "durationTicks": 256,
          "midi": 62,
          "name": "D4",
          "ticks": 470400,
          "time": 353.3657746250001,
          "velocity": 0.2283464566929134
        },
        {
          "duration": 0.17777760000001308,
          "durationTicks": 256,
          "midi": 65,
          "name": "F4",
          "ticks": 470640,
          "time": 353.53244112500005,
          "velocity": 0.2440944881889764
        },
        {
          "duration": 0.17777760000001308,
          "durationTicks": 256,
          "midi": 58,
          "name": "A#3",
          "ticks": 470880,
          "time": 353.69910762500007,
          "velocity": 0.25984251968503935
        },
        {
          "duration": 0.17777759999995624,
          "durationTicks": 256,
          "midi": 62,
          "name": "D4",
          "ticks": 471120,
          "time": 353.8657741250001,
          "velocity": 0.2440944881889764
        },
        {
          "duration": 0.17777760000001308,
          "durationTicks": 256,
          "midi": 65,
          "name": "F4",
          "ticks": 471360,
          "time": 354.03244062500005,
          "velocity": 0.2283464566929134
        },
        {
          "duration": 0.17777760000001308,
          "durationTicks": 256,
          "midi": 58,
          "name": "A#3",
          "ticks": 471600,
          "time": 354.19910712500007,
          "velocity": 0.2125984251968504
        },
        {
          "duration": 0.17777759999995624,
          "durationTicks": 256,
          "midi": 62,
          "name": "D4",
          "ticks": 471840,
          "time": 354.3657736250001,
          "velocity": 0.1889763779527559
        },
        {
          "duration": 0.17777760000001308,
          "durationTicks": 256,
          "midi": 65,
          "name": "F4",
          "ticks": 472080,
          "time": 354.53244012500005,
          "velocity": 0.25984251968503935
        },
        {
          "duration": 0.17777760000001308,
          "durationTicks": 256,
          "midi": 53,
          "name": "F3",
          "ticks": 472320,
          "time": 354.69910662500007,
          "velocity": 0.25984251968503935
        },
        {
          "duration": 0.17777759999995624,
          "durationTicks": 256,
          "midi": 60,
          "name": "C4",
          "ticks": 472560,
          "time": 354.8657731250001,
          "velocity": 0.25984251968503935
        },
        {
          "duration": 0.17777760000001308,
          "durationTicks": 256,
          "midi": 63,
          "name": "D#4",
          "ticks": 472800,
          "time": 355.03243962500005,
          "velocity": 0.25984251968503935
        },
        {
          "duration": 0.17777760000001308,
          "durationTicks": 256,
          "midi": 53,
          "name": "F3",
          "ticks": 473040,
          "time": 355.19910612500007,
          "velocity": 0.25984251968503935
        },
        {
          "duration": 0.17777759999995624,
          "durationTicks": 256,
          "midi": 58,
          "name": "A#3",
          "ticks": 473280,
          "time": 355.3657726250001,
          "velocity": 0.25984251968503935
        },
        {
          "duration": 0.17777760000001308,
          "durationTicks": 256,
          "midi": 62,
          "name": "D4",
          "ticks": 473520,
          "time": 355.53243912500005,
          "velocity": 0.25984251968503935
        },
        {
          "duration": 0.17777760000001308,
          "durationTicks": 256,
          "midi": 53,
          "name": "F3",
          "ticks": 473760,
          "time": 355.6991056250001,
          "velocity": 0.25984251968503935
        },
        {
          "duration": 0.17777759999995624,
          "durationTicks": 256,
          "midi": 58,
          "name": "A#3",
          "ticks": 474000,
          "time": 355.8657721250001,
          "velocity": 0.25984251968503935
        },
        {
          "duration": 0.17777760000001308,
          "durationTicks": 256,
          "midi": 62,
          "name": "D4",
          "ticks": 474240,
          "time": 356.03243862500005,
          "velocity": 0.2440944881889764
        },
        {
          "duration": 0.17777760000001308,
          "durationTicks": 256,
          "midi": 53,
          "name": "F3",
          "ticks": 474480,
          "time": 356.1991051250001,
          "velocity": 0.2283464566929134
        },
        {
          "duration": 0.17777759999995624,
          "durationTicks": 256,
          "midi": 57,
          "name": "A3",
          "ticks": 474720,
          "time": 356.3657716250001,
          "velocity": 0.2125984251968504
        },
        {
          "duration": 0.17777760000001308,
          "durationTicks": 256,
          "midi": 60,
          "name": "C4",
          "ticks": 474960,
          "time": 356.53243812500006,
          "velocity": 0.1968503937007874
        },
        {
          "duration": 0.17777760000001308,
          "durationTicks": 256,
          "midi": 58,
          "name": "A#3",
          "ticks": 475200,
          "time": 356.6991046250001,
          "velocity": 0.25984251968503935
        },
        {
          "duration": 0.17777760000001308,
          "durationTicks": 256,
          "midi": 62,
          "name": "D4",
          "ticks": 475440,
          "time": 356.86577112500004,
          "velocity": 0.2047244094488189
        },
        {
          "duration": 0.17777760000001308,
          "durationTicks": 256,
          "midi": 65,
          "name": "F4",
          "ticks": 475680,
          "time": 357.03243762500006,
          "velocity": 0.2283464566929134
        },
        {
          "duration": 0.17777760000001308,
          "durationTicks": 256,
          "midi": 58,
          "name": "A#3",
          "ticks": 475920,
          "time": 357.1991041250001,
          "velocity": 0.25984251968503935
        },
        {
          "duration": 0.17777760000001308,
          "durationTicks": 256,
          "midi": 60,
          "name": "C4",
          "ticks": 476160,
          "time": 357.36577062500004,
          "velocity": 0.2992125984251969
        },
        {
          "duration": 0.17777760000001308,
          "durationTicks": 256,
          "midi": 63,
          "name": "D#4",
          "ticks": 476400,
          "time": 357.53243712500006,
          "velocity": 0.3464566929133858
        },
        {
          "duration": 0.17777760000001308,
          "durationTicks": 256,
          "midi": 58,
          "name": "A#3",
          "ticks": 476640,
          "time": 357.6991036250001,
          "velocity": 0.31496062992125984
        },
        {
          "duration": 0.17777760000001308,
          "durationTicks": 256,
          "midi": 62,
          "name": "D4",
          "ticks": 476880,
          "time": 357.86577012500004,
          "velocity": 0.31496062992125984
        },
        {
          "duration": 0.17777760000001308,
          "durationTicks": 256,
          "midi": 65,
          "name": "F4",
          "ticks": 477120,
          "time": 358.03243662500006,
          "velocity": 0.28346456692913385
        },
        {
          "duration": 0.17777760000001308,
          "durationTicks": 256,
          "midi": 58,
          "name": "A#3",
          "ticks": 477360,
          "time": 358.1991031250001,
          "velocity": 0.2755905511811024
        },
        {
          "duration": 0.17777760000001308,
          "durationTicks": 256,
          "midi": 62,
          "name": "D4",
          "ticks": 477600,
          "time": 358.36576962500004,
          "velocity": 0.25196850393700787
        },
        {
          "duration": 0.17777760000001308,
          "durationTicks": 256,
          "midi": 65,
          "name": "F4",
          "ticks": 477840,
          "time": 358.53243612500006,
          "velocity": 0.2440944881889764
        },
        {
          "duration": 0.17777760000001308,
          "durationTicks": 256,
          "midi": 53,
          "name": "F3",
          "ticks": 478080,
          "time": 358.6991026250001,
          "velocity": 0.25984251968503935
        },
        {
          "duration": 0.17777760000001308,
          "durationTicks": 256,
          "midi": 58,
          "name": "A#3",
          "ticks": 478320,
          "time": 358.86576912500004,
          "velocity": 0.25196850393700787
        },
        {
          "duration": 0.17777760000001308,
          "durationTicks": 256,
          "midi": 62,
          "name": "D4",
          "ticks": 478560,
          "time": 359.03243562500006,
          "velocity": 0.2440944881889764
        },
        {
          "duration": 0.17777759999995624,
          "durationTicks": 256,
          "midi": 53,
          "name": "F3",
          "ticks": 478800,
          "time": 359.1991021250001,
          "velocity": 0.2440944881889764
        },
        {
          "duration": 0.17777760000001308,
          "durationTicks": 256,
          "midi": 60,
          "name": "C4",
          "ticks": 479040,
          "time": 359.36576862500004,
          "velocity": 0.23622047244094488
        },
        {
          "duration": 0.10833322500002396,
          "durationTicks": 156,
          "midi": 63,
          "name": "D#4",
          "ticks": 479280,
          "time": 359.53243512500006,
          "velocity": 0.2283464566929134
        },
        {
          "duration": 0.6638882249999938,
          "durationTicks": 956,
          "midi": 58,
          "name": "A#3",
          "ticks": 479520,
          "time": 359.6991016250001,
          "velocity": 0.1968503937007874
        },
        {
          "duration": 0.4972217249999744,
          "durationTicks": 716,
          "midi": 63,
          "name": "D#4",
          "ticks": 479520,
          "time": 359.6991016250001,
          "velocity": 0.2755905511811024
        },
        {
          "duration": 0.2611108499999659,
          "durationTicks": 376,
          "midi": 62,
          "name": "D4",
          "ticks": 480240,
          "time": 360.1991011250001,
          "velocity": 0.1968503937007874
        },
        {
          "duration": 0.16388872499999252,
          "durationTicks": 236,
          "midi": 53,
          "name": "F3",
          "ticks": 480960,
          "time": 360.6991006250001,
          "velocity": 0.2204724409448819
        },
        {
          "duration": 0.16388872499999252,
          "durationTicks": 236,
          "midi": 60,
          "name": "C4",
          "ticks": 481200,
          "time": 360.86576712500005,
          "velocity": 0.2204724409448819
        },
        {
          "duration": 0.16388872499999252,
          "durationTicks": 236,
          "midi": 63,
          "name": "D#4",
          "ticks": 481440,
          "time": 361.03243362500007,
          "velocity": 0.2283464566929134
        },
        {
          "duration": 0.16388872499999252,
          "durationTicks": 236,
          "midi": 53,
          "name": "F3",
          "ticks": 481680,
          "time": 361.1991001250001,
          "velocity": 0.2440944881889764
        },
        {
          "duration": 0.16388872499999252,
          "durationTicks": 236,
          "midi": 60,
          "name": "C4",
          "ticks": 481920,
          "time": 361.36576662500005,
          "velocity": 0.2440944881889764
        },
        {
          "duration": 0.16388872499999252,
          "durationTicks": 236,
          "midi": 63,
          "name": "D#4",
          "ticks": 482160,
          "time": 361.53243312500007,
          "velocity": 0.25984251968503935
        },
        {
          "duration": 0.16388872499999252,
          "durationTicks": 236,
          "midi": 53,
          "name": "F3",
          "ticks": 482400,
          "time": 361.6990996250001,
          "velocity": 0.2755905511811024
        },
        {
          "duration": 0.16388872499999252,
          "durationTicks": 236,
          "midi": 58,
          "name": "A#3",
          "ticks": 482640,
          "time": 361.86576612500005,
          "velocity": 0.2755905511811024
        },
        {
          "duration": 0.16388872499999252,
          "durationTicks": 236,
          "midi": 62,
          "name": "D4",
          "ticks": 482880,
          "time": 362.03243262500007,
          "velocity": 0.2755905511811024
        },
        {
          "duration": 0.16388872499999252,
          "durationTicks": 236,
          "midi": 53,
          "name": "F3",
          "ticks": 483120,
          "time": 362.1990991250001,
          "velocity": 0.2755905511811024
        },
        {
          "duration": 0.16388872499999252,
          "durationTicks": 236,
          "midi": 58,
          "name": "A#3",
          "ticks": 483360,
          "time": 362.36576562500005,
          "velocity": 0.2755905511811024
        },
        {
          "duration": 0.16388872499999252,
          "durationTicks": 236,
          "midi": 62,
          "name": "D4",
          "ticks": 483600,
          "time": 362.53243212500007,
          "velocity": 0.2755905511811024
        },
        {
          "duration": 0.16388872499999252,
          "durationTicks": 236,
          "midi": 53,
          "name": "F3",
          "ticks": 483840,
          "time": 362.6990986250001,
          "velocity": 0.2440944881889764
        },
        {
          "duration": 0.16388872499999252,
          "durationTicks": 236,
          "midi": 57,
          "name": "A3",
          "ticks": 484080,
          "time": 362.86576512500005,
          "velocity": 0.2440944881889764
        },
        {
          "duration": 0.16388872499999252,
          "durationTicks": 236,
          "midi": 60,
          "name": "C4",
          "ticks": 484320,
          "time": 363.0324316250001,
          "velocity": 0.2440944881889764
        },
        {
          "duration": 0.16388872499999252,
          "durationTicks": 236,
          "midi": 53,
          "name": "F3",
          "ticks": 484560,
          "time": 363.1990981250001,
          "velocity": 0.2440944881889764
        },
        {
          "duration": 0.16388872499999252,
          "durationTicks": 236,
          "midi": 57,
          "name": "A3",
          "ticks": 484800,
          "time": 363.36576462500005,
          "velocity": 0.2440944881889764
        },
        {
          "duration": 0.16388872499999252,
          "durationTicks": 236,
          "midi": 60,
          "name": "C4",
          "ticks": 485040,
          "time": 363.5324311250001,
          "velocity": 0.2440944881889764
        },
        {
          "duration": 0.16388872500004936,
          "durationTicks": 236,
          "midi": 53,
          "name": "F3",
          "ticks": 485280,
          "time": 363.69909762500004,
          "velocity": 0.2440944881889764
        },
        {
          "duration": 0.16388872499999252,
          "durationTicks": 236,
          "midi": 58,
          "name": "A#3",
          "ticks": 485520,
          "time": 363.86576412500006,
          "velocity": 0.23622047244094488
        },
        {
          "duration": 0.16388872499999252,
          "durationTicks": 236,
          "midi": 62,
          "name": "D4",
          "ticks": 485760,
          "time": 364.0324306250001,
          "velocity": 0.2283464566929134
        },
        {
          "duration": 0.16388872500004936,
          "durationTicks": 236,
          "midi": 53,
          "name": "F3",
          "ticks": 486000,
          "time": 364.19909712500004,
          "velocity": 0.2204724409448819
        },
        {
          "duration": 0.16388872499999252,
          "durationTicks": 236,
          "midi": 58,
          "name": "A#3",
          "ticks": 486240,
          "time": 364.36576362500006,
          "velocity": 0.25984251968503935
        },
        {
          "duration": 0.16388872499999252,
          "durationTicks": 236,
          "midi": 62,
          "name": "D4",
          "ticks": 486480,
          "time": 364.5324301250001,
          "velocity": 0.29133858267716534
        },
        {
          "duration": 0.49722172500003126,
          "durationTicks": 716,
          "midi": 53,
          "name": "F3",
          "ticks": 486720,
          "time": 364.69909662500004,
          "velocity": 0.3228346456692913
        },
        {
          "duration": 0.2749997249999865,
          "durationTicks": 396,
          "midi": 60,
          "name": "C4",
          "ticks": 486960,
          "time": 364.86576312500006,
          "velocity": 0.28346456692913385
        },
        {
          "duration": 0.16388872499999252,
          "durationTicks": 236,
          "midi": 63,
          "name": "D#4",
          "ticks": 487200,
          "time": 365.0324296250001,
          "velocity": 0.29133858267716534
        },
        {
          "duration": 0.44166622500000585,
          "durationTicks": 636,
          "midi": 54,
          "name": "F#3",
          "ticks": 487440,
          "time": 365.19909612500004,
          "velocity": 0.3464566929133858
        },
        {
          "duration": 0.2749997249999865,
          "durationTicks": 396,
          "midi": 60,
          "name": "C4",
          "ticks": 487680,
          "time": 365.36576262500006,
          "velocity": 0.30708661417322836
        },
        {
          "duration": 0.16388872499999252,
          "durationTicks": 236,
          "midi": 63,
          "name": "D#4",
          "ticks": 487920,
          "time": 365.5324291250001,
          "velocity": 0.3228346456692913
        },
        {
          "duration": 0.358332975000053,
          "durationTicks": 516,
          "midi": 55,
          "name": "G3",
          "ticks": 488160,
          "time": 365.69909562500004,
          "velocity": 0.3779527559055118
        },
        {
          "duration": 0.16388872499999252,
          "durationTicks": 236,
          "midi": 62,
          "name": "D4",
          "ticks": 488400,
          "time": 365.86576212500006,
          "velocity": 0.36220472440944884
        },
        {
          "duration": 0.16388872499999252,
          "durationTicks": 236,
          "midi": 66,
          "name": "F#4",
          "ticks": 488640,
          "time": 366.0324286250001,
          "velocity": 0.33858267716535434
        },
        {
          "duration": 0.16388872500004936,
          "durationTicks": 236,
          "midi": 67,
          "name": "G4",
          "ticks": 488880,
          "time": 366.19909512500004,
          "velocity": 0.2992125984251969
        },
        {
          "duration": 0.49722172500003126,
          "durationTicks": 716,
          "midi": 60,
          "name": "C4",
          "ticks": 490320,
          "time": 367.19909412500004,
          "velocity": 0.2125984251968504
        },
        {
          "duration": 0.49722172500003126,
          "durationTicks": 716,
          "midi": 67,
          "name": "G4",
          "ticks": 490320,
          "time": 367.19909412500004,
          "velocity": 0.2125984251968504
        },
        {
          "duration": 0.49722172500003126,
          "durationTicks": 716,
          "midi": 70,
          "name": "A#4",
          "ticks": 490320,
          "time": 367.19909412500004,
          "velocity": 0.2755905511811024
        },
        {
          "duration": 0.16388872499999252,
          "durationTicks": 236,
          "midi": 65,
          "name": "F4",
          "ticks": 491040,
          "time": 367.69909362500005,
          "velocity": 0.2125984251968504
        },
        {
          "duration": 0.16388872499999252,
          "durationTicks": 236,
          "midi": 69,
          "name": "A4",
          "ticks": 491040,
          "time": 367.69909362500005,
          "velocity": 0.2125984251968504
        },
        {
          "duration": 0.49722172500003126,
          "durationTicks": 716,
          "midi": 60,
          "name": "C4",
          "ticks": 493200,
          "time": 369.19909212500005,
          "velocity": 0.2755905511811024
        },
        {
          "duration": 0.49722172500003126,
          "durationTicks": 716,
          "midi": 67,
          "name": "G4",
          "ticks": 493200,
          "time": 369.19909212500005,
          "velocity": 0.2755905511811024
        },
        {
          "duration": 0.49722172500003126,
          "durationTicks": 716,
          "midi": 70,
          "name": "A#4",
          "ticks": 493200,
          "time": 369.19909212500005,
          "velocity": 0.36220472440944884
        },
        {
          "duration": 0.2472219750000022,
          "durationTicks": 356,
          "midi": 65,
          "name": "F4",
          "ticks": 493920,
          "time": 369.69909162500005,
          "velocity": 0.2125984251968504
        },
        {
          "duration": 0.2472219750000022,
          "durationTicks": 356,
          "midi": 69,
          "name": "A4",
          "ticks": 493920,
          "time": 369.69909162500005,
          "velocity": 0.2677165354330709
        },
        {
          "duration": 0.49722172500003126,
          "durationTicks": 716,
          "midi": 60,
          "name": "C4",
          "ticks": 496080,
          "time": 371.19909012500005,
          "velocity": 0.2125984251968504
        },
        {
          "duration": 0.49722172500003126,
          "durationTicks": 716,
          "midi": 67,
          "name": "G4",
          "ticks": 496080,
          "time": 371.19909012500005,
          "velocity": 0.2125984251968504
        },
        {
          "duration": 0.49722172500003126,
          "durationTicks": 716,
          "midi": 70,
          "name": "A#4",
          "ticks": 496080,
          "time": 371.19909012500005,
          "velocity": 0.2755905511811024
        },
        {
          "duration": 0.16388872499999252,
          "durationTicks": 236,
          "midi": 65,
          "name": "F4",
          "ticks": 496800,
          "time": 371.69908962500006,
          "velocity": 0.2755905511811024
        },
        {
          "duration": 0.16388872499999252,
          "durationTicks": 236,
          "midi": 69,
          "name": "A4",
          "ticks": 497040,
          "time": 371.8657561250001,
          "velocity": 0.31496062992125984
        },
        {
          "duration": 0.16388872500004936,
          "durationTicks": 236,
          "midi": 72,
          "name": "C5",
          "ticks": 497280,
          "time": 372.03242262500004,
          "velocity": 0.3543307086614173
        },
        {
          "duration": 0.08055547499998283,
          "durationTicks": 116,
          "midi": 65,
          "name": "F4",
          "ticks": 497520,
          "time": 372.19908912500006,
          "velocity": 0.2755905511811024
        },
        {
          "duration": 0.16388872500004936,
          "durationTicks": 236,
          "midi": 60,
          "name": "C4",
          "ticks": 498000,
          "time": 372.53242212500004,
          "velocity": 0.2755905511811024
        },
        {
          "duration": 0.16388872500004936,
          "durationTicks": 236,
          "midi": 70,
          "name": "A#4",
          "ticks": 498000,
          "time": 372.53242212500004,
          "velocity": 0.33858267716535434
        },
        {
          "duration": 0.08055547499998283,
          "durationTicks": 116,
          "midi": 65,
          "name": "F4",
          "ticks": 498240,
          "time": 372.69908862500006,
          "velocity": 0.2755905511811024
        },
        {
          "duration": 0.08055547499998283,
          "durationTicks": 116,
          "midi": 69,
          "name": "A4",
          "ticks": 498240,
          "time": 372.69908862500006,
          "velocity": 0.2755905511811024
        },
        {
          "duration": 0.16388872500004936,
          "durationTicks": 236,
          "midi": 60,
          "name": "C4",
          "ticks": 498720,
          "time": 373.03242162500004,
          "velocity": 0.2755905511811024
        },
        {
          "duration": 0.16388872500004936,
          "durationTicks": 236,
          "midi": 70,
          "name": "A#4",
          "ticks": 498720,
          "time": 373.03242162500004,
          "velocity": 0.33858267716535434
        },
        {
          "duration": 0.08055547499998283,
          "durationTicks": 116,
          "midi": 65,
          "name": "F4",
          "ticks": 498960,
          "time": 373.19908812500006,
          "velocity": 0.2755905511811024
        },
        {
          "duration": 0.08055547499998283,
          "durationTicks": 116,
          "midi": 69,
          "name": "A4",
          "ticks": 498960,
          "time": 373.19908812500006,
          "velocity": 0.2755905511811024
        },
        {
          "duration": 0.16388872500004936,
          "durationTicks": 236,
          "midi": 60,
          "name": "C4",
          "ticks": 499440,
          "time": 373.53242112500004,
          "velocity": 0.23622047244094488
        },
        {
          "duration": 0.16388872500004936,
          "durationTicks": 236,
          "midi": 70,
          "name": "A#4",
          "ticks": 499440,
          "time": 373.53242112500004,
          "velocity": 0.2992125984251969
        },
        {
          "duration": 0.08055547499998283,
          "durationTicks": 116,
          "midi": 65,
          "name": "F4",
          "ticks": 499680,
          "time": 373.69908762500006,
          "velocity": 0.25196850393700787
        },
        {
          "duration": 0.16388872499999252,
          "durationTicks": 236,
          "midi": 69,
          "name": "A4",
          "ticks": 499920,
          "time": 373.8657541250001,
          "velocity": 0.29133858267716534
        },
        {
          "duration": 0.16388872499999252,
          "durationTicks": 236,
          "midi": 72,
          "name": "C5",
          "ticks": 500160,
          "time": 374.03242062500004,
          "velocity": 0.2755905511811024
        },
        {
          "duration": 0.16388872499999252,
          "durationTicks": 236,
          "midi": 65,
          "name": "F4",
          "ticks": 500400,
          "time": 374.19908712500006,
          "velocity": 0.2283464566929134
        },
        {
          "duration": 0.17777760000001308,
          "durationTicks": 256,
          "midi": 58,
          "name": "A#3",
          "ticks": 502560,
          "time": 375.69908562500007,
          "velocity": 0.18110236220472442
        },
        {
          "duration": 0.17777759999995624,
          "durationTicks": 256,
          "midi": 62,
          "name": "D4",
          "ticks": 502800,
          "time": 375.8657521250001,
          "velocity": 0.1889763779527559
        },
        {
          "duration": 0.17777760000001308,
          "durationTicks": 256,
          "midi": 65,
          "name": "F4",
          "ticks": 503040,
          "time": 376.03241862500005,
          "velocity": 0.2047244094488189
        },
        {
          "duration": 0.17777760000001308,
          "durationTicks": 256,
          "midi": 58,
          "name": "A#3",
          "ticks": 503280,
          "time": 376.19908512500007,
          "velocity": 0.2204724409448819
        },
        {
          "duration": 0.17777759999995624,
          "durationTicks": 256,
          "midi": 62,
          "name": "D4",
          "ticks": 503520,
          "time": 376.3657516250001,
          "velocity": 0.2283464566929134
        },
        {
          "duration": 0.17777760000001308,
          "durationTicks": 256,
          "midi": 65,
          "name": "F4",
          "ticks": 503760,
          "time": 376.53241812500005,
          "velocity": 0.2440944881889764
        },
        {
          "duration": 0.17777760000001308,
          "durationTicks": 256,
          "midi": 58,
          "name": "A#3",
          "ticks": 504000,
          "time": 376.69908462500007,
          "velocity": 0.25984251968503935
        },
        {
          "duration": 0.17777759999995624,
          "durationTicks": 256,
          "midi": 62,
          "name": "D4",
          "ticks": 504240,
          "time": 376.8657511250001,
          "velocity": 0.2440944881889764
        },
        {
          "duration": 0.17777760000001308,
          "durationTicks": 256,
          "midi": 65,
          "name": "F4",
          "ticks": 504480,
          "time": 377.03241762500005,
          "velocity": 0.2283464566929134
        },
        {
          "duration": 0.17777760000001308,
          "durationTicks": 256,
          "midi": 58,
          "name": "A#3",
          "ticks": 504720,
          "time": 377.19908412500007,
          "velocity": 0.2125984251968504
        },
        {
          "duration": 0.17777759999995624,
          "durationTicks": 256,
          "midi": 62,
          "name": "D4",
          "ticks": 504960,
          "time": 377.3657506250001,
          "velocity": 0.1889763779527559
        },
        {
          "duration": 0.17777760000001308,
          "durationTicks": 256,
          "midi": 65,
          "name": "F4",
          "ticks": 505200,
          "time": 377.53241712500005,
          "velocity": 0.25984251968503935
        },
        {
          "duration": 0.17777760000001308,
          "durationTicks": 256,
          "midi": 53,
          "name": "F3",
          "ticks": 505440,
          "time": 377.69908362500007,
          "velocity": 0.25984251968503935
        },
        {
          "duration": 0.17777759999995624,
          "durationTicks": 256,
          "midi": 60,
          "name": "C4",
          "ticks": 505680,
          "time": 377.8657501250001,
          "velocity": 0.25984251968503935
        },
        {
          "duration": 0.17777760000001308,
          "durationTicks": 256,
          "midi": 63,
          "name": "D#4",
          "ticks": 505920,
          "time": 378.03241662500005,
          "velocity": 0.25984251968503935
        },
        {
          "duration": 0.17777760000001308,
          "durationTicks": 256,
          "midi": 53,
          "name": "F3",
          "ticks": 506160,
          "time": 378.1990831250001,
          "velocity": 0.25984251968503935
        },
        {
          "duration": 0.17777760000001308,
          "durationTicks": 256,
          "midi": 58,
          "name": "A#3",
          "ticks": 506400,
          "time": 378.36574962500003,
          "velocity": 0.25984251968503935
        },
        {
          "duration": 0.17777760000001308,
          "durationTicks": 256,
          "midi": 62,
          "name": "D4",
          "ticks": 506640,
          "time": 378.53241612500005,
          "velocity": 0.25984251968503935
        },
        {
          "duration": 0.17777760000001308,
          "durationTicks": 256,
          "midi": 53,
          "name": "F3",
          "ticks": 506880,
          "time": 378.6990826250001,
          "velocity": 0.25984251968503935
        },
        {
          "duration": 0.17777759999995624,
          "durationTicks": 256,
          "midi": 58,
          "name": "A#3",
          "ticks": 507120,
          "time": 378.8657491250001,
          "velocity": 0.25984251968503935
        },
        {
          "duration": 0.17777760000001308,
          "durationTicks": 256,
          "midi": 62,
          "name": "D4",
          "ticks": 507360,
          "time": 379.03241562500006,
          "velocity": 0.2440944881889764
        },
        {
          "duration": 0.17777760000001308,
          "durationTicks": 256,
          "midi": 53,
          "name": "F3",
          "ticks": 507600,
          "time": 379.1990821250001,
          "velocity": 0.2283464566929134
        },
        {
          "duration": 0.17777760000001308,
          "durationTicks": 256,
          "midi": 57,
          "name": "A3",
          "ticks": 507840,
          "time": 379.36574862500004,
          "velocity": 0.2125984251968504
        },
        {
          "duration": 0.17777760000001308,
          "durationTicks": 256,
          "midi": 60,
          "name": "C4",
          "ticks": 508080,
          "time": 379.53241512500006,
          "velocity": 0.1968503937007874
        },
        {
          "duration": 0.17777760000001308,
          "durationTicks": 256,
          "midi": 58,
          "name": "A#3",
          "ticks": 508320,
          "time": 379.6990816250001,
          "velocity": 0.33858267716535434
        },
        {
          "duration": 0.17777760000001308,
          "durationTicks": 256,
          "midi": 62,
          "name": "D4",
          "ticks": 508560,
          "time": 379.86574812500004,
          "velocity": 0.2677165354330709
        },
        {
          "duration": 0.17777760000001308,
          "durationTicks": 256,
          "midi": 65,
          "name": "F4",
          "ticks": 508800,
          "time": 380.03241462500006,
          "velocity": 0.28346456692913385
        },
        {
          "duration": 0.17777759999995624,
          "durationTicks": 256,
          "midi": 58,
          "name": "A#3",
          "ticks": 509040,
          "time": 380.1990811250001,
          "velocity": 0.2992125984251969
        },
        {
          "duration": 0.17777760000001308,
          "durationTicks": 256,
          "midi": 60,
          "name": "C4",
          "ticks": 509280,
          "time": 380.36574762500004,
          "velocity": 0.3228346456692913
        },
        {
          "duration": 0.17777760000001308,
          "durationTicks": 256,
          "midi": 63,
          "name": "D#4",
          "ticks": 509520,
          "time": 380.53241412500006,
          "velocity": 0.3464566929133858
        },
        {
          "duration": 0.17777760000001308,
          "durationTicks": 256,
          "midi": 58,
          "name": "A#3",
          "ticks": 509760,
          "time": 380.6990806250001,
          "velocity": 0.36220472440944884
        },
        {
          "duration": 0.17777760000001308,
          "durationTicks": 256,
          "midi": 62,
          "name": "D4",
          "ticks": 510000,
          "time": 380.86574712500004,
          "velocity": 0.3779527559055118
        },
        {
          "duration": 0.17777760000001308,
          "durationTicks": 256,
          "midi": 65,
          "name": "F4",
          "ticks": 510240,
          "time": 381.03241362500006,
          "velocity": 0.4015748031496063
        },
        {
          "duration": 0.17777759999995624,
          "durationTicks": 256,
          "midi": 58,
          "name": "A#3",
          "ticks": 510480,
          "time": 381.1990801250001,
          "velocity": 0.3464566929133858
        },
        {
          "duration": 0.17777760000001308,
          "durationTicks": 256,
          "midi": 62,
          "name": "D4",
          "ticks": 510720,
          "time": 381.36574662500004,
          "velocity": 0.2755905511811024
        },
        {
          "duration": 0.17777760000001308,
          "durationTicks": 256,
          "midi": 65,
          "name": "F4",
          "ticks": 510960,
          "time": 381.53241312500006,
          "velocity": 0.2755905511811024
        },
        {
          "duration": 0.17777759999995624,
          "durationTicks": 256,
          "midi": 53,
          "name": "F3",
          "ticks": 511200,
          "time": 381.6990796250001,
          "velocity": 0.25984251968503935
        },
        {
          "duration": 0.17777760000001308,
          "durationTicks": 256,
          "midi": 58,
          "name": "A#3",
          "ticks": 511440,
          "time": 381.86574612500004,
          "velocity": 0.25196850393700787
        },
        {
          "duration": 0.17777760000001308,
          "durationTicks": 256,
          "midi": 62,
          "name": "D4",
          "ticks": 511680,
          "time": 382.03241262500006,
          "velocity": 0.2440944881889764
        },
        {
          "duration": 0.17777759999995624,
          "durationTicks": 256,
          "midi": 53,
          "name": "F3",
          "ticks": 511920,
          "time": 382.1990791250001,
          "velocity": 0.2440944881889764
        },
        {
          "duration": 0.17777760000001308,
          "durationTicks": 256,
          "midi": 60,
          "name": "C4",
          "ticks": 512160,
          "time": 382.36574562500005,
          "velocity": 0.23622047244094488
        },
        {
          "duration": 0.10833322500002396,
          "durationTicks": 156,
          "midi": 63,
          "name": "D#4",
          "ticks": 512400,
          "time": 382.53241212500006,
          "velocity": 0.2283464566929134
        },
        {
          "duration": 0.6638882249999938,
          "durationTicks": 956,
          "midi": 58,
          "name": "A#3",
          "ticks": 512640,
          "time": 382.6990786250001,
          "velocity": 0.2755905511811024
        },
        {
          "duration": 0.4972217249999744,
          "durationTicks": 716,
          "midi": 63,
          "name": "D#4",
          "ticks": 512640,
          "time": 382.6990786250001,
          "velocity": 0.2755905511811024
        },
        {
          "duration": 0.17777759999995624,
          "durationTicks": 256,
          "midi": 62,
          "name": "D4",
          "ticks": 513360,
          "time": 383.1990781250001,
          "velocity": 0.23622047244094488
        },
        {
          "duration": 0.16388872499999252,
          "durationTicks": 236,
          "midi": 46,
          "name": "A#2",
          "ticks": 541440,
          "time": 402.6990586250001,
          "velocity": 0.4330708661417323
        },
        {
          "duration": 0.4972217249999744,
          "durationTicks": 716,
          "midi": 63,
          "name": "D#4",
          "ticks": 542160,
          "time": 403.1990581250001,
          "velocity": 0.4330708661417323
        },
        {
          "duration": 0.5805549749999841,
          "durationTicks": 836,
          "midi": 65,
          "name": "F4",
          "ticks": 542160,
          "time": 403.1990581250001,
          "velocity": 0.4330708661417323
        },
        {
          "duration": 0.16388872499999252,
          "durationTicks": 236,
          "midi": 62,
          "name": "D4",
          "ticks": 542880,
          "time": 403.6990576250001,
          "velocity": 0.4330708661417323
        },
        {
          "duration": 0.4972217249999744,
          "durationTicks": 716,
          "midi": 63,
          "name": "D#4",
          "ticks": 543600,
          "time": 404.1990571250001,
          "velocity": 0.4330708661417323
        },
        {
          "duration": 0.5805549749999841,
          "durationTicks": 836,
          "midi": 65,
          "name": "F4",
          "ticks": 543600,
          "time": 404.1990571250001,
          "velocity": 0.4330708661417323
        },
        {
          "duration": 0.13611097500000824,
          "durationTicks": 196,
          "midi": 62,
          "name": "D4",
          "ticks": 544320,
          "time": 404.6990566250001,
          "velocity": 0.4330708661417323
        },
        {
          "duration": 0.08055547499998283,
          "durationTicks": 116,
          "midi": 75,
          "name": "D#5",
          "ticks": 545760,
          "time": 405.6990556250001,
          "velocity": 0.5118110236220472
        },
        {
          "duration": 0.08055547500003968,
          "durationTicks": 116,
          "midi": 72,
          "name": "C5",
          "ticks": 546000,
          "time": 405.86572212500005,
          "velocity": 0.4330708661417323
        },
        {
          "duration": 0.08055547499998283,
          "durationTicks": 116,
          "midi": 74,
          "name": "D5",
          "ticks": 546480,
          "time": 406.1990551250001,
          "velocity": 0.5118110236220472
        },
        {
          "duration": 0.08055547500003968,
          "durationTicks": 116,
          "midi": 70,
          "name": "A#4",
          "ticks": 546720,
          "time": 406.36572162500005,
          "velocity": 0.4330708661417323
        },
        {
          "duration": 0.08055547499998283,
          "durationTicks": 116,
          "midi": 72,
          "name": "C5",
          "ticks": 547200,
          "time": 406.6990546250001,
          "velocity": 0.5118110236220472
        },
        {
          "duration": 0.08055547500003968,
          "durationTicks": 116,
          "midi": 69,
          "name": "A4",
          "ticks": 547440,
          "time": 406.86572112500005,
          "velocity": 0.4330708661417323
        },
        {
          "duration": 0.08055547499998283,
          "durationTicks": 116,
          "midi": 70,
          "name": "A#4",
          "ticks": 547920,
          "time": 407.1990541250001,
          "velocity": 0.5118110236220472
        },
        {
          "duration": 0.08055547500003968,
          "durationTicks": 116,
          "midi": 67,
          "name": "G4",
          "ticks": 548160,
          "time": 407.36572062500005,
          "velocity": 0.4330708661417323
        },
        {
          "duration": 0.08055547499998283,
          "durationTicks": 116,
          "midi": 65,
          "name": "F4",
          "ticks": 548400,
          "time": 407.53238712500007,
          "velocity": 0.4330708661417323
        },
        {
          "duration": 0.10833322500002396,
          "durationTicks": 156,
          "midi": 63,
          "name": "D#4",
          "ticks": 548640,
          "time": 407.69905362500003,
          "velocity": 0.4330708661417323
        },
        {
          "duration": 0.10833322500002396,
          "durationTicks": 156,
          "midi": 67,
          "name": "G4",
          "ticks": 548640,
          "time": 407.69905362500003,
          "velocity": 0.5118110236220472
        },
        {
          "duration": 0.10833322499996711,
          "durationTicks": 156,
          "midi": 53,
          "name": "F3",
          "ticks": 549360,
          "time": 408.1990531250001,
          "velocity": 0.3543307086614173
        },
        {
          "duration": 0.10833322499996711,
          "durationTicks": 156,
          "midi": 60,
          "name": "C4",
          "ticks": 549360,
          "time": 408.1990531250001,
          "velocity": 0.3543307086614173
        },
        {
          "duration": 0.10833322499996711,
          "durationTicks": 156,
          "midi": 63,
          "name": "D#4",
          "ticks": 549360,
          "time": 408.1990531250001,
          "velocity": 0.4330708661417323
        },
        {
          "duration": 0.13611097500000824,
          "durationTicks": 196,
          "midi": 50,
          "name": "D3",
          "ticks": 550080,
          "time": 408.69905262500004,
          "velocity": 0.2755905511811024
        },
        {
          "duration": 0.13611097500000824,
          "durationTicks": 196,
          "midi": 53,
          "name": "F3",
          "ticks": 550080,
          "time": 408.69905262500004,
          "velocity": 0.3543307086614173
        },
        {
          "duration": 0.4972217249999744,
          "durationTicks": 716,
          "midi": 51,
          "name": "D#3",
          "ticks": 550800,
          "time": 409.1990521250001,
          "velocity": 0.4330708661417323
        },
        {
          "duration": 0.5805549749999841,
          "durationTicks": 836,
          "midi": 53,
          "name": "F3",
          "ticks": 550800,
          "time": 409.1990521250001,
          "velocity": 0.4330708661417323
        },
        {
          "duration": 0.08055547500003968,
          "durationTicks": 116,
          "midi": 50,
          "name": "D3",
          "ticks": 551520,
          "time": 409.69905162500004,
          "velocity": 0.4330708661417323
        },
        {
          "duration": 0.49722172500003126,
          "durationTicks": 716,
          "midi": 51,
          "name": "D#3",
          "ticks": 552240,
          "time": 410.19905112500004,
          "velocity": 0.4330708661417323
        },
        {
          "duration": 0.5805549750000409,
          "durationTicks": 836,
          "midi": 53,
          "name": "F3",
          "ticks": 552240,
          "time": 410.19905112500004,
          "velocity": 0.4330708661417323
        },
        {
          "duration": 0.08055547500003968,
          "durationTicks": 116,
          "midi": 50,
          "name": "D3",
          "ticks": 552960,
          "time": 410.69905062500004,
          "velocity": 0.4330708661417323
        },
        {
          "duration": 0.08055547499998283,
          "durationTicks": 116,
          "midi": 50,
          "name": "D3",
          "ticks": 554160,
          "time": 411.5323831250001,
          "velocity": 0.4330708661417323
        },
        {
          "duration": 0.08055547500003968,
          "durationTicks": 116,
          "midi": 62,
          "name": "D4",
          "ticks": 554280,
          "time": 411.61571637500003,
          "velocity": 0.4330708661417323
        },
        {
          "duration": 0.08055547500003968,
          "durationTicks": 116,
          "midi": 51,
          "name": "D#3",
          "ticks": 554400,
          "time": 411.69904962500004,
          "velocity": 0.4330708661417323
        },
        {
          "duration": 0.08055547499998283,
          "durationTicks": 116,
          "midi": 63,
          "name": "D#4",
          "ticks": 554520,
          "time": 411.78238287500005,
          "velocity": 0.4330708661417323
        },
        {
          "duration": 0.08055547499998283,
          "durationTicks": 116,
          "midi": 47,
          "name": "B2",
          "ticks": 554640,
          "time": 411.86571612500006,
          "velocity": 0.4330708661417323
        },
        {
          "duration": 0.08055547499998283,
          "durationTicks": 116,
          "midi": 59,
          "name": "B3",
          "ticks": 554760,
          "time": 411.9490493750001,
          "velocity": 0.4330708661417323
        },
        {
          "duration": 0.08055547499998283,
          "durationTicks": 116,
          "midi": 48,
          "name": "C3",
          "ticks": 554880,
          "time": 412.0323826250001,
          "velocity": 0.4330708661417323
        },
        {
          "duration": 0.08055547499998283,
          "durationTicks": 116,
          "midi": 60,
          "name": "C4",
          "ticks": 555000,
          "time": 412.1157158750001,
          "velocity": 0.4330708661417323
        },
        {
          "duration": 0.08055547500003968,
          "durationTicks": 116,
          "midi": 50,
          "name": "D3",
          "ticks": 555120,
          "time": 412.19904912500004,
          "velocity": 0.4330708661417323
        },
        {
          "duration": 0.08055547500003968,
          "durationTicks": 116,
          "midi": 62,
          "name": "D4",
          "ticks": 555240,
          "time": 412.28238237500005,
          "velocity": 0.4330708661417323
        },
        {
          "duration": 0.08055547499998283,
          "durationTicks": 116,
          "midi": 45,
          "name": "A2",
          "ticks": 555360,
          "time": 412.36571562500006,
          "velocity": 0.4330708661417323
        },
        {
          "duration": 0.08055547499998283,
          "durationTicks": 116,
          "midi": 57,
          "name": "A3",
          "ticks": 555480,
          "time": 412.4490488750001,
          "velocity": 0.4330708661417323
        },
        {
          "duration": 0.08055547499998283,
          "durationTicks": 116,
          "midi": 46,
          "name": "A#2",
          "ticks": 555600,
          "time": 412.5323821250001,
          "velocity": 0.4330708661417323
        },
        {
          "duration": 0.08055547500003968,
          "durationTicks": 116,
          "midi": 58,
          "name": "A#3",
          "ticks": 555720,
          "time": 412.61571537500004,
          "velocity": 0.4330708661417323
        },
        {
          "duration": 0.08055547500003968,
          "durationTicks": 116,
          "midi": 48,
          "name": "C3",
          "ticks": 555840,
          "time": 412.69904862500005,
          "velocity": 0.4330708661417323
        },
        {
          "duration": 0.08055547499998283,
          "durationTicks": 116,
          "midi": 60,
          "name": "C4",
          "ticks": 555960,
          "time": 412.78238187500006,
          "velocity": 0.4330708661417323
        },
        {
          "duration": 0.08055547499998283,
          "durationTicks": 116,
          "midi": 44,
          "name": "G#2",
          "ticks": 556080,
          "time": 412.86571512500007,
          "velocity": 0.4330708661417323
        },
        {
          "duration": 0.08055547499998283,
          "durationTicks": 116,
          "midi": 56,
          "name": "G#3",
          "ticks": 556200,
          "time": 412.9490483750001,
          "velocity": 0.4330708661417323
        },
        {
          "duration": 0.08055547499998283,
          "durationTicks": 116,
          "midi": 45,
          "name": "A2",
          "ticks": 556320,
          "time": 413.0323816250001,
          "velocity": 0.4330708661417323
        },
        {
          "duration": 0.08055547499998283,
          "durationTicks": 116,
          "midi": 57,
          "name": "A3",
          "ticks": 556440,
          "time": 413.1157148750001,
          "velocity": 0.4330708661417323
        },
        {
          "duration": 0.08055547500003968,
          "durationTicks": 116,
          "midi": 46,
          "name": "A#2",
          "ticks": 556560,
          "time": 413.19904812500005,
          "velocity": 0.4330708661417323
        },
        {
          "duration": 0.08055547500003968,
          "durationTicks": 116,
          "midi": 58,
          "name": "A#3",
          "ticks": 556680,
          "time": 413.28238137500006,
          "velocity": 0.4330708661417323
        },
        {
          "duration": 0.08055547499998283,
          "durationTicks": 116,
          "midi": 42,
          "name": "F#2",
          "ticks": 556800,
          "time": 413.36571462500007,
          "velocity": 0.4330708661417323
        },
        {
          "duration": 0.08055547499998283,
          "durationTicks": 116,
          "midi": 54,
          "name": "F#3",
          "ticks": 556920,
          "time": 413.4490478750001,
          "velocity": 0.4330708661417323
        },
        {
          "duration": 0.08055547499998283,
          "durationTicks": 116,
          "midi": 43,
          "name": "G2",
          "ticks": 557040,
          "time": 413.5323811250001,
          "velocity": 0.4330708661417323
        },
        {
          "duration": 0.08055547500003968,
          "durationTicks": 116,
          "midi": 55,
          "name": "G3",
          "ticks": 557160,
          "time": 413.61571437500004,
          "velocity": 0.4330708661417323
        },
        {
          "duration": 1.997220225000035,
          "durationTicks": 2876,
          "midi": 39,
          "name": "D#2",
          "ticks": 557280,
          "time": 413.69904762500005,
          "velocity": 0.4330708661417323
        },
        {
          "duration": 1.997220225000035,
          "durationTicks": 2876,
          "midi": 51,
          "name": "D#3",
          "ticks": 557280,
          "time": 413.69904762500005,
          "velocity": 0.5118110236220472
        },
        {
          "duration": 1.9138869750000254,
          "durationTicks": 2756,
          "midi": 40,
          "name": "E2",
          "ticks": 560160,
          "time": 415.69904562500005,
          "velocity": 0.4330708661417323
        },
        {
          "duration": 1.9138869750000254,
          "durationTicks": 2756,
          "midi": 43,
          "name": "G2",
          "ticks": 560160,
          "time": 415.69904562500005,
          "velocity": 0.3543307086614173
        },
        {
          "duration": 1.9138869750000254,
          "durationTicks": 2756,
          "midi": 46,
          "name": "A#2",
          "ticks": 560160,
          "time": 415.69904562500005,
          "velocity": 0.3543307086614173
        },
        {
          "duration": 1.9138869750000254,
          "durationTicks": 2756,
          "midi": 49,
          "name": "C#3",
          "ticks": 560160,
          "time": 415.69904562500005,
          "velocity": 0.5118110236220472
        },
        {
          "duration": 0.3305552250000119,
          "durationTicks": 476,
          "midi": 41,
          "name": "F2",
          "ticks": 563040,
          "time": 417.69904362500006,
          "velocity": 0.4330708661417323
        },
        {
          "duration": 0.3305552250000119,
          "durationTicks": 476,
          "midi": 46,
          "name": "A#2",
          "ticks": 563040,
          "time": 417.69904362500006,
          "velocity": 0.4330708661417323
        },
        {
          "duration": 0.3305552250000119,
          "durationTicks": 476,
          "midi": 50,
          "name": "D3",
          "ticks": 563040,
          "time": 417.69904362500006,
          "velocity": 0.5118110236220472
        },
        {
          "duration": 0.4972217249999744,
          "durationTicks": 716,
          "midi": 53,
          "name": "F3",
          "ticks": 568080,
          "time": 421.19904012500007,
          "velocity": 0.3543307086614173
        },
        {
          "duration": 0.4972217249999744,
          "durationTicks": 716,
          "midi": 57,
          "name": "A3",
          "ticks": 568080,
          "time": 421.19904012500007,
          "velocity": 0.3543307086614173
        },
        {
          "duration": 0.4972217249999744,
          "durationTicks": 716,
          "midi": 63,
          "name": "D#4",
          "ticks": 568080,
          "time": 421.19904012500007,
          "velocity": 0.4330708661417323
        },
        {
          "duration": 0.17777760000001308,
          "durationTicks": 256,
          "midi": 58,
          "name": "A#3",
          "ticks": 568800,
          "time": 421.69903962500007,
          "velocity": 0.18110236220472442
        },
        {
          "duration": 0.17777759999995624,
          "durationTicks": 256,
          "midi": 62,
          "name": "D4",
          "ticks": 569040,
          "time": 421.8657061250001,
          "velocity": 0.1889763779527559
        },
        {
          "duration": 0.17777760000001308,
          "durationTicks": 256,
          "midi": 65,
          "name": "F4",
          "ticks": 569280,
          "time": 422.03237262500005,
          "velocity": 0.2047244094488189
        },
        {
          "duration": 0.17777760000001308,
          "durationTicks": 256,
          "midi": 58,
          "name": "A#3",
          "ticks": 569520,
          "time": 422.19903912500007,
          "velocity": 0.2204724409448819
        },
        {
          "duration": 0.17777760000001308,
          "durationTicks": 256,
          "midi": 62,
          "name": "D4",
          "ticks": 569760,
          "time": 422.36570562500003,
          "velocity": 0.2283464566929134
        },
        {
          "duration": 0.17777760000001308,
          "durationTicks": 256,
          "midi": 65,
          "name": "F4",
          "ticks": 570000,
          "time": 422.53237212500005,
          "velocity": 0.2440944881889764
        },
        {
          "duration": 0.17777760000001308,
          "durationTicks": 256,
          "midi": 53,
          "name": "F3",
          "ticks": 570240,
          "time": 422.69903862500007,
          "velocity": 0.25984251968503935
        },
        {
          "duration": 0.17777759999995624,
          "durationTicks": 256,
          "midi": 57,
          "name": "A3",
          "ticks": 570480,
          "time": 422.8657051250001,
          "velocity": 0.2440944881889764
        },
        {
          "duration": 0.17777760000001308,
          "durationTicks": 256,
          "midi": 63,
          "name": "D#4",
          "ticks": 570720,
          "time": 423.03237162500005,
          "velocity": 0.2283464566929134
        },
        {
          "duration": 0.17777759999995624,
          "durationTicks": 256,
          "midi": 53,
          "name": "F3",
          "ticks": 570960,
          "time": 423.1990381250001,
          "velocity": 0.2125984251968504
        },
        {
          "duration": 0.17777760000001308,
          "durationTicks": 256,
          "midi": 57,
          "name": "A3",
          "ticks": 571200,
          "time": 423.36570462500003,
          "velocity": 0.1889763779527559
        },
        {
          "duration": 0.17777760000001308,
          "durationTicks": 256,
          "midi": 63,
          "name": "D#4",
          "ticks": 571440,
          "time": 423.53237112500005,
          "velocity": 0.25984251968503935
        },
        {
          "duration": 0.21944422499996108,
          "durationTicks": 316,
          "midi": 58,
          "name": "A#3",
          "ticks": 571680,
          "time": 423.6990376250001,
          "velocity": 0.18110236220472442
        },
        {
          "duration": 0.21944422499996108,
          "durationTicks": 316,
          "midi": 62,
          "name": "D4",
          "ticks": 571920,
          "time": 423.8657041250001,
          "velocity": 0.1889763779527559
        },
        {
          "duration": 0.21944422500001792,
          "durationTicks": 316,
          "midi": 65,
          "name": "F4",
          "ticks": 572160,
          "time": 424.03237062500006,
          "velocity": 0.2047244094488189
        },
        {
          "duration": 0.21944422500001792,
          "durationTicks": 316,
          "midi": 58,
          "name": "A#3",
          "ticks": 572400,
          "time": 424.1990371250001,
          "velocity": 0.2204724409448819
        },
        {
          "duration": 0.21944422500001792,
          "durationTicks": 316,
          "midi": 62,
          "name": "D4",
          "ticks": 572640,
          "time": 424.36570362500004,
          "velocity": 0.2283464566929134
        },
        {
          "duration": 0.21944422500001792,
          "durationTicks": 316,
          "midi": 65,
          "name": "F4",
          "ticks": 572880,
          "time": 424.53237012500006,
          "velocity": 0.2440944881889764
        },
        {
          "duration": 0.21944422499996108,
          "durationTicks": 316,
          "midi": 53,
          "name": "F3",
          "ticks": 573120,
          "time": 424.6990366250001,
          "velocity": 0.25984251968503935
        },
        {
          "duration": 0.21944422499996108,
          "durationTicks": 316,
          "midi": 57,
          "name": "A3",
          "ticks": 573360,
          "time": 424.8657031250001,
          "velocity": 0.2440944881889764
        },
        {
          "duration": 0.21944422500001792,
          "durationTicks": 316,
          "midi": 63,
          "name": "D#4",
          "ticks": 573600,
          "time": 425.03236962500006,
          "velocity": 0.2283464566929134
        },
        {
          "duration": 0.21944422500001792,
          "durationTicks": 316,
          "midi": 53,
          "name": "F3",
          "ticks": 573840,
          "time": 425.1990361250001,
          "velocity": 0.2125984251968504
        },
        {
          "duration": 0.21944422500001792,
          "durationTicks": 316,
          "midi": 57,
          "name": "A3",
          "ticks": 574080,
          "time": 425.36570262500004,
          "velocity": 0.1889763779527559
        },
        {
          "duration": 0.17777760000001308,
          "durationTicks": 256,
          "midi": 63,
          "name": "D#4",
          "ticks": 574320,
          "time": 425.53236912500006,
          "velocity": 0.25984251968503935
        },
        {
          "duration": 0.08055547499998283,
          "durationTicks": 116,
          "midi": 53,
          "name": "F3",
          "ticks": 576000,
          "time": 426.6990346250001,
          "velocity": 0.3464566929133858
        },
        {
          "duration": 0.08055547499998283,
          "durationTicks": 116,
          "midi": 57,
          "name": "A3",
          "ticks": 576120,
          "time": 426.7823678750001,
          "velocity": 0.3464566929133858
        },
        {
          "duration": 0.08055547500003968,
          "durationTicks": 116,
          "midi": 60,
          "name": "C4",
          "ticks": 576240,
          "time": 426.86570112500004,
          "velocity": 0.3464566929133858
        },
        {
          "duration": 0.08055547500003968,
          "durationTicks": 116,
          "midi": 63,
          "name": "D#4",
          "ticks": 576360,
          "time": 426.94903437500005,
          "velocity": 0.3464566929133858
        },
        {
          "duration": 0.08055547499998283,
          "durationTicks": 116,
          "midi": 41,
          "name": "F2",
          "ticks": 578880,
          "time": 428.6990326250001,
          "velocity": 0.3464566929133858
        },
        {
          "duration": 0.08055547499998283,
          "durationTicks": 116,
          "midi": 45,
          "name": "A2",
          "ticks": 579000,
          "time": 428.7823658750001,
          "velocity": 0.3464566929133858
        },
        {
          "duration": 0.08055547500003968,
          "durationTicks": 116,
          "midi": 48,
          "name": "C3",
          "ticks": 579120,
          "time": 428.86569912500005,
          "velocity": 0.3464566929133858
        },
        {
          "duration": 0.08055547500003968,
          "durationTicks": 116,
          "midi": 51,
          "name": "D#3",
          "ticks": 579240,
          "time": 428.94903237500006,
          "velocity": 0.3464566929133858
        }
      ],
      "endOfTrackTicks": 580320
    },
    {
      "channel": 0,
      "controlChanges": {
        "0": [
          {
            "number": 0,
            "ticks": 0,
            "time": 0,
            "value": 0
          }
        ],
        "32": [
          {
            "number": 32,
            "ticks": 0,
            "time": 0,
            "value": 0
          }
        ]
      },
      "pitchBends": [],
      "instrument": {
        "family": "piano",
        "number": 0,
        "name": "acoustic grand piano"
      },
      "name": "Flutes",
      "notes": [],
      "endOfTrackTicks": 588960
    },
    {
      "channel": 2,
      "controlChanges": {
        "7": [
          {
            "number": 7,
            "ticks": 0,
            "time": 0,
            "value": 1
          }
        ],
        "10": [
          {
            "number": 10,
            "ticks": 0,
            "time": 0,
            "value": 0.5039370078740157
          }
        ],
        "11": [
          {
            "number": 11,
            "ticks": 84,
            "time": 0.058807,
            "value": 1
          },
          {
            "number": 11,
            "ticks": 57596,
            "time": 40.32199966666666,
            "value": 0.5196850393700787
          },
          {
            "number": 11,
            "ticks": 57604,
            "time": 40.327600333333336,
            "value": 0.5275590551181102
          },
          {
            "number": 11,
            "ticks": 57648,
            "time": 40.358404,
            "value": 0.5354330708661418
          },
          {
            "number": 11,
            "ticks": 57692,
            "time": 40.389207666666664,
            "value": 0.5433070866141733
          },
          {
            "number": 11,
            "ticks": 57736,
            "time": 40.420011333333335,
            "value": 0.5511811023622047
          },
          {
            "number": 11,
            "ticks": 57780,
            "time": 40.450815,
            "value": 0.5590551181102362
          },
          {
            "number": 11,
            "ticks": 57824,
            "time": 40.48161866666667,
            "value": 0.5669291338582677
          },
          {
            "number": 11,
            "ticks": 57868,
            "time": 40.51242233333333,
            "value": 0.5748031496062992
          },
          {
            "number": 11,
            "ticks": 57912,
            "time": 40.543226000000004,
            "value": 0.5826771653543307
          },
          {
            "number": 11,
            "ticks": 57956,
            "time": 40.57402966666667,
            "value": 0.5905511811023622
          },
          {
            "number": 11,
            "ticks": 58000,
            "time": 40.60483333333333,
            "value": 0.5984251968503937
          },
          {
            "number": 11,
            "ticks": 58044,
            "time": 40.635637,
            "value": 0.6062992125984252
          },
          {
            "number": 11,
            "ticks": 58088,
            "time": 40.66644066666667,
            "value": 0.6141732283464567
          },
          {
            "number": 11,
            "ticks": 58132,
            "time": 40.69724433333334,
            "value": 0.6299212598425197
          },
          {
            "number": 11,
            "ticks": 58176,
            "time": 40.728048,
            "value": 0.6456692913385826
          },
          {
            "number": 11,
            "ticks": 58220,
            "time": 40.75885166666667,
            "value": 0.6614173228346457
          },
          {
            "number": 11,
            "ticks": 58264,
            "time": 40.789655333333336,
            "value": 0.6771653543307087
          },
          {
            "number": 11,
            "ticks": 58308,
            "time": 40.820459,
            "value": 0.6929133858267716
          },
          {
            "number": 11,
            "ticks": 58352,
            "time": 40.85126266666666,
            "value": 0.7086614173228346
          },
          {
            "number": 11,
            "ticks": 58396,
            "time": 40.882066333333334,
            "value": 0.7244094488188977
          },
          {
            "number": 11,
            "ticks": 58440,
            "time": 40.91287,
            "value": 0.7401574803149606
          },
          {
            "number": 11,
            "ticks": 58484,
            "time": 40.94367366666667,
            "value": 0.7559055118110236
          },
          {
            "number": 11,
            "ticks": 58528,
            "time": 40.97447733333333,
            "value": 0.7716535433070866
          },
          {
            "number": 11,
            "ticks": 58572,
            "time": 41.005281000000004,
            "value": 0.7874015748031497
          },
          {
            "number": 11,
            "ticks": 58616,
            "time": 41.03608466666667,
            "value": 0.8110236220472441
          },
          {
            "number": 11,
            "ticks": 58660,
            "time": 41.06688833333333,
            "value": 0.8346456692913385
          },
          {
            "number": 11,
            "ticks": 58704,
            "time": 41.097692,
            "value": 0.8582677165354331
          },
          {
            "number": 11,
            "ticks": 58748,
            "time": 41.128495666666666,
            "value": 0.8818897637795275
          },
          {
            "number": 11,
            "ticks": 58792,
            "time": 41.15929933333334,
            "value": 0.905511811023622
          },
          {
            "number": 11,
            "ticks": 58836,
            "time": 41.190103,
            "value": 0.9291338582677166
          },
          {
            "number": 11,
            "ticks": 58880,
            "time": 41.22090666666667,
            "value": 0.952755905511811
          },
          {
            "number": 11,
            "ticks": 58924,
            "time": 41.251710333333335,
            "value": 0.9763779527559056
          },
          {
            "number": 11,
            "ticks": 58968,
            "time": 41.282514,
            "value": 1
          },
          {
            "number": 11,
            "ticks": 59036,
            "time": 41.33011966666667,
            "value": 1
          },
          {
            "number": 11,
            "ticks": 159836,
            "time": 111.89851966666667,
            "value": 0.5196850393700787
          },
          {
            "number": 11,
            "ticks": 159844,
            "time": 111.90412033333334,
            "value": 0.5275590551181102
          },
          {
            "number": 11,
            "ticks": 159888,
            "time": 111.93492400000001,
            "value": 0.5354330708661418
          },
          {
            "number": 11,
            "ticks": 159932,
            "time": 111.96572766666667,
            "value": 0.5433070866141733
          },
          {
            "number": 11,
            "ticks": 159976,
            "time": 111.99653133333334,
            "value": 0.5511811023622047
          },
          {
            "number": 11,
            "ticks": 160020,
            "time": 112.02733500000001,
            "value": 0.5590551181102362
          },
          {
            "number": 11,
            "ticks": 160064,
            "time": 112.05813866666666,
            "value": 0.5669291338582677
          },
          {
            "number": 11,
            "ticks": 160108,
            "time": 112.08894233333334,
            "value": 0.5748031496062992
          },
          {
            "number": 11,
            "ticks": 160152,
            "time": 112.11974599999999,
            "value": 0.5826771653543307
          },
          {
            "number": 11,
            "ticks": 160196,
            "time": 112.15054966666668,
            "value": 0.5905511811023622
          },
          {
            "number": 11,
            "ticks": 160240,
            "time": 112.18135333333333,
            "value": 0.5984251968503937
          },
          {
            "number": 11,
            "ticks": 160284,
            "time": 112.212157,
            "value": 0.6062992125984252
          },
          {
            "number": 11,
            "ticks": 160328,
            "time": 112.24296066666666,
            "value": 0.6141732283464567
          },
          {
            "number": 11,
            "ticks": 160372,
            "time": 112.27376433333335,
            "value": 0.6299212598425197
          },
          {
            "number": 11,
            "ticks": 160416,
            "time": 112.304568,
            "value": 0.6456692913385826
          },
          {
            "number": 11,
            "ticks": 160460,
            "time": 112.33537166666667,
            "value": 0.6614173228346457
          },
          {
            "number": 11,
            "ticks": 160504,
            "time": 112.36617533333333,
            "value": 0.6771653543307087
          },
          {
            "number": 11,
            "ticks": 160548,
            "time": 112.39697900000002,
            "value": 0.6929133858267716
          },
          {
            "number": 11,
            "ticks": 160592,
            "time": 112.42778266666667,
            "value": 0.7086614173228346
          },
          {
            "number": 11,
            "ticks": 160636,
            "time": 112.45858633333334,
            "value": 0.7244094488188977
          },
          {
            "number": 11,
            "ticks": 160680,
            "time": 112.48939,
            "value": 0.7401574803149606
          },
          {
            "number": 11,
            "ticks": 160724,
            "time": 112.52019366666666,
            "value": 0.7559055118110236
          },
          {
            "number": 11,
            "ticks": 160768,
            "time": 112.55099733333334,
            "value": 0.7716535433070866
          },
          {
            "number": 11,
            "ticks": 160812,
            "time": 112.581801,
            "value": 0.7874015748031497
          },
          {
            "number": 11,
            "ticks": 160856,
            "time": 112.61260466666667,
            "value": 0.8110236220472441
          },
          {
            "number": 11,
            "ticks": 160900,
            "time": 112.64340833333333,
            "value": 0.8346456692913385
          },
          {
            "number": 11,
            "ticks": 160944,
            "time": 112.67421200000001,
            "value": 0.8582677165354331
          },
          {
            "number": 11,
            "ticks": 160988,
            "time": 112.70501566666667,
            "value": 0.8818897637795275
          },
          {
            "number": 11,
            "ticks": 161032,
            "time": 112.73581933333334,
            "value": 0.905511811023622
          },
          {
            "number": 11,
            "ticks": 161076,
            "time": 112.766623,
            "value": 0.9291338582677166
          },
          {
            "number": 11,
            "ticks": 161120,
            "time": 112.79742666666668,
            "value": 0.952755905511811
          },
          {
            "number": 11,
            "ticks": 161164,
            "time": 112.82823033333334,
            "value": 0.9763779527559056
          },
          {
            "number": 11,
            "ticks": 161208,
            "time": 112.85903400000001,
            "value": 1
          },
          {
            "number": 11,
            "ticks": 385916,
            "time": 284.90124561666664,
            "value": 0.5196850393700787
          },
          {
            "number": 11,
            "ticks": 385924,
            "time": 284.90697463333333,
            "value": 0.5275590551181102
          },
          {
            "number": 11,
            "ticks": 385968,
            "time": 284.93848422499997,
            "value": 0.5354330708661418
          },
          {
            "number": 11,
            "ticks": 386012,
            "time": 284.96999381666666,
            "value": 0.5433070866141733
          },
          {
            "number": 11,
            "ticks": 386056,
            "time": 285.00150340833335,
            "value": 0.5511811023622047
          },
          {
            "number": 11,
            "ticks": 386100,
            "time": 285.033013,
            "value": 0.5590551181102362
          },
          {
            "number": 11,
            "ticks": 386144,
            "time": 285.0645225916667,
            "value": 0.5669291338582677
          },
          {
            "number": 11,
            "ticks": 386188,
            "time": 285.0960321833333,
            "value": 0.5748031496062992
          },
          {
            "number": 11,
            "ticks": 386232,
            "time": 285.127541775,
            "value": 0.5826771653543307
          },
          {
            "number": 11,
            "ticks": 386276,
            "time": 285.15905136666663,
            "value": 0.5905511811023622
          },
          {
            "number": 11,
            "ticks": 386320,
            "time": 285.1905609583333,
            "value": 0.5984251968503937
          },
          {
            "number": 11,
            "ticks": 386364,
            "time": 285.22207055,
            "value": 0.6062992125984252
          },
          {
            "number": 11,
            "ticks": 386408,
            "time": 285.25358014166665,
            "value": 0.6141732283464567
          },
          {
            "number": 11,
            "ticks": 386452,
            "time": 285.28508973333334,
            "value": 0.6299212598425197
          },
          {
            "number": 11,
            "ticks": 386496,
            "time": 285.31659932499997,
            "value": 0.6456692913385826
          },
          {
            "number": 11,
            "ticks": 386540,
            "time": 285.34810891666666,
            "value": 0.6614173228346457
          },
          {
            "number": 11,
            "ticks": 386584,
            "time": 285.37961850833335,
            "value": 0.6771653543307087
          },
          {
            "number": 11,
            "ticks": 386628,
            "time": 285.4111281,
            "value": 0.6929133858267716
          },
          {
            "number": 11,
            "ticks": 386672,
            "time": 285.4426376916667,
            "value": 0.7086614173228346
          },
          {
            "number": 11,
            "ticks": 386716,
            "time": 285.4741472833333,
            "value": 0.7244094488188977
          },
          {
            "number": 11,
            "ticks": 386760,
            "time": 285.505656875,
            "value": 0.7401574803149606
          },
          {
            "number": 11,
            "ticks": 386804,
            "time": 285.5371664666667,
            "value": 0.7559055118110236
          },
          {
            "number": 11,
            "ticks": 386848,
            "time": 285.5686760583333,
            "value": 0.7716535433070866
          },
          {
            "number": 11,
            "ticks": 386892,
            "time": 285.60018565,
            "value": 0.7874015748031497
          },
          {
            "number": 11,
            "ticks": 386936,
            "time": 285.63169524166665,
            "value": 0.8110236220472441
          },
          {
            "number": 11,
            "ticks": 386980,
            "time": 285.66320483333334,
            "value": 0.8346456692913385
          },
          {
            "number": 11,
            "ticks": 387024,
            "time": 285.694714425,
            "value": 0.8582677165354331
          },
          {
            "number": 11,
            "ticks": 387068,
            "time": 285.72622401666666,
            "value": 0.8818897637795275
          },
          {
            "number": 11,
            "ticks": 387112,
            "time": 285.7577336083333,
            "value": 0.905511811023622
          },
          {
            "number": 11,
            "ticks": 387156,
            "time": 285.7892432,
            "value": 0.9291338582677166
          },
          {
            "number": 11,
            "ticks": 387200,
            "time": 285.8207527916667,
            "value": 0.952755905511811
          },
          {
            "number": 11,
            "ticks": 387244,
            "time": 285.8522623833333,
            "value": 0.9763779527559056
          },
          {
            "number": 11,
            "ticks": 387288,
            "time": 285.883771975,
            "value": 1
          },
          {
            "number": 11,
            "ticks": 514076,
            "time": 383.69629985000006,
            "value": 0.5196850393700787
          },
          {
            "number": 11,
            "ticks": 514084,
            "time": 383.70185540000006,
            "value": 0.5275590551181102
          },
          {
            "number": 11,
            "ticks": 514128,
            "time": 383.73241092500007,
            "value": 0.5354330708661418
          },
          {
            "number": 11,
            "ticks": 514172,
            "time": 383.7629664500001,
            "value": 0.5433070866141733
          },
          {
            "number": 11,
            "ticks": 514216,
            "time": 383.7935219750001,
            "value": 0.5511811023622047
          },
          {
            "number": 11,
            "ticks": 514260,
            "time": 383.82407750000004,
            "value": 0.5590551181102362
          },
          {
            "number": 11,
            "ticks": 514304,
            "time": 383.85463302500006,
            "value": 0.5669291338582677
          },
          {
            "number": 11,
            "ticks": 514348,
            "time": 383.88518855000007,
            "value": 0.5748031496062992
          },
          {
            "number": 11,
            "ticks": 514392,
            "time": 383.9157440750001,
            "value": 0.5826771653543307
          },
          {
            "number": 11,
            "ticks": 514436,
            "time": 383.9462996000001,
            "value": 0.5905511811023622
          },
          {
            "number": 11,
            "ticks": 514480,
            "time": 383.97685512500004,
            "value": 0.5984251968503937
          },
          {
            "number": 11,
            "ticks": 514524,
            "time": 384.00741065000005,
            "value": 0.6062992125984252
          },
          {
            "number": 11,
            "ticks": 514568,
            "time": 384.03796617500007,
            "value": 0.6141732283464567
          },
          {
            "number": 11,
            "ticks": 514612,
            "time": 384.0685217000001,
            "value": 0.6299212598425197
          },
          {
            "number": 11,
            "ticks": 514656,
            "time": 384.0990772250001,
            "value": 0.6456692913385826
          },
          {
            "number": 11,
            "ticks": 514700,
            "time": 384.12963275000004,
            "value": 0.6614173228346457
          },
          {
            "number": 11,
            "ticks": 514744,
            "time": 384.16018827500005,
            "value": 0.6771653543307087
          },
          {
            "number": 11,
            "ticks": 514788,
            "time": 384.19074380000006,
            "value": 0.6929133858267716
          },
          {
            "number": 11,
            "ticks": 514832,
            "time": 384.2212993250001,
            "value": 0.7086614173228346
          },
          {
            "number": 11,
            "ticks": 514876,
            "time": 384.2518548500001,
            "value": 0.7244094488188977
          },
          {
            "number": 11,
            "ticks": 514920,
            "time": 384.28241037500004,
            "value": 0.7401574803149606
          },
          {
            "number": 11,
            "ticks": 514964,
            "time": 384.31296590000005,
            "value": 0.7559055118110236
          },
          {
            "number": 11,
            "ticks": 515008,
            "time": 384.34352142500006,
            "value": 0.7716535433070866
          },
          {
            "number": 11,
            "ticks": 515052,
            "time": 384.3740769500001,
            "value": 0.7874015748031497
          },
          {
            "number": 11,
            "ticks": 515096,
            "time": 384.4046324750001,
            "value": 0.8110236220472441
          },
          {
            "number": 11,
            "ticks": 515140,
            "time": 384.43518800000004,
            "value": 0.8346456692913385
          },
          {
            "number": 11,
            "ticks": 515184,
            "time": 384.46574352500005,
            "value": 0.8582677165354331
          },
          {
            "number": 11,
            "ticks": 515228,
            "time": 384.49629905000006,
            "value": 0.8818897637795275
          },
          {
            "number": 11,
            "ticks": 515272,
            "time": 384.5268545750001,
            "value": 0.905511811023622
          },
          {
            "number": 11,
            "ticks": 515316,
            "time": 384.5574101000001,
            "value": 0.9291338582677166
          },
          {
            "number": 11,
            "ticks": 515360,
            "time": 384.58796562500004,
            "value": 0.952755905511811
          },
          {
            "number": 11,
            "ticks": 515404,
            "time": 384.61852115000005,
            "value": 0.9763779527559056
          },
          {
            "number": 11,
            "ticks": 515448,
            "time": 384.64907667500006,
            "value": 1
          },
          {
            "number": 11,
            "ticks": 515516,
            "time": 384.69629885000006,
            "value": 1
          }
        ],
        "91": [
          {
            "number": 91,
            "ticks": 88,
            "time": 0.06160733333333333,
            "value": 0.7007874015748031
          }
        ],
        "93": [
          {
            "number": 93,
            "ticks": 88,
            "time": 0.06160733333333333,
            "value": 0.07874015748031496
          }
        ],
        "121": [
          {
            "number": 121,
            "ticks": 80,
            "time": 0.05600666666666666,
            "value": 0
          }
        ]
      },
      "pitchBends": [
        {
          "ticks": 104,
          "time": 0.07280866666666667,
          "value": 0
        }
      ],
      "instrument": {
        "family": "pipe",
        "number": 73,
        "name": "flute"
      },
      "name": "",
      "notes": [
        {
          "duration": 0.08120966666666618,
          "durationTicks": 116,
          "midi": 77,
          "name": "F5",
          "ticks": 12960,
          "time": 9.073080000000001,
          "velocity": 0.4330708661417323
        },
        {
          "duration": 0.08120966666666796,
          "durationTicks": 116,
          "midi": 77,
          "name": "F5",
          "ticks": 13200,
          "time": 9.2411,
          "velocity": 0.4330708661417323
        },
        {
          "duration": 0.08120966666666796,
          "durationTicks": 116,
          "midi": 77,
          "name": "F5",
          "ticks": 13440,
          "time": 9.40912,
          "velocity": 0.4330708661417323
        },
        {
          "duration": 0.08120966666666618,
          "durationTicks": 116,
          "midi": 77,
          "name": "F5",
          "ticks": 13680,
          "time": 9.57714,
          "velocity": 0.4330708661417323
        },
        {
          "duration": 0.08120966666666618,
          "durationTicks": 116,
          "midi": 77,
          "name": "F5",
          "ticks": 13920,
          "time": 9.74516,
          "velocity": 0.4330708661417323
        },
        {
          "duration": 0.08120966666666618,
          "durationTicks": 116,
          "midi": 77,
          "name": "F5",
          "ticks": 14160,
          "time": 9.91318,
          "velocity": 0.4330708661417323
        },
        {
          "duration": 0.08120966666666618,
          "durationTicks": 116,
          "midi": 77,
          "name": "F5",
          "ticks": 14400,
          "time": 10.0812,
          "velocity": 0.4330708661417323
        },
        {
          "duration": 0.08120966666666796,
          "durationTicks": 116,
          "midi": 77,
          "name": "F5",
          "ticks": 14640,
          "time": 10.24922,
          "velocity": 0.4330708661417323
        },
        {
          "duration": 0.08120966666666796,
          "durationTicks": 116,
          "midi": 77,
          "name": "F5",
          "ticks": 14880,
          "time": 10.41724,
          "velocity": 0.4330708661417323
        },
        {
          "duration": 0.08120966666666796,
          "durationTicks": 116,
          "midi": 77,
          "name": "F5",
          "ticks": 15120,
          "time": 10.58526,
          "velocity": 0.4330708661417323
        },
        {
          "duration": 0.08120966666666618,
          "durationTicks": 116,
          "midi": 77,
          "name": "F5",
          "ticks": 15360,
          "time": 10.75328,
          "velocity": 0.4330708661417323
        },
        {
          "duration": 0.08120966666666618,
          "durationTicks": 116,
          "midi": 77,
          "name": "F5",
          "ticks": 15600,
          "time": 10.9213,
          "velocity": 0.4330708661417323
        },
        {
          "duration": 0.08120966666666618,
          "durationTicks": 116,
          "midi": 77,
          "name": "F5",
          "ticks": 15840,
          "time": 11.08932,
          "velocity": 0.4330708661417323
        },
        {
          "duration": 0.08120966666666618,
          "durationTicks": 116,
          "midi": 77,
          "name": "F5",
          "ticks": 16080,
          "time": 11.257340000000001,
          "velocity": 0.4330708661417323
        },
        {
          "duration": 0.08120966666666796,
          "durationTicks": 116,
          "midi": 77,
          "name": "F5",
          "ticks": 16320,
          "time": 11.42536,
          "velocity": 0.4330708661417323
        },
        {
          "duration": 0.08120966666666796,
          "durationTicks": 116,
          "midi": 77,
          "name": "F5",
          "ticks": 16560,
          "time": 11.59338,
          "velocity": 0.4330708661417323
        },
        {
          "duration": 0.08120966666666618,
          "durationTicks": 116,
          "midi": 77,
          "name": "F5",
          "ticks": 16800,
          "time": 11.7614,
          "velocity": 0.4330708661417323
        },
        {
          "duration": 0.08120966666666618,
          "durationTicks": 116,
          "midi": 77,
          "name": "F5",
          "ticks": 17040,
          "time": 11.92942,
          "velocity": 0.4330708661417323
        },
        {
          "duration": 0.08120966666666618,
          "durationTicks": 116,
          "midi": 77,
          "name": "F5",
          "ticks": 17280,
          "time": 12.09744,
          "velocity": 0.4330708661417323
        },
        {
          "duration": 0.08120966666666618,
          "durationTicks": 116,
          "midi": 77,
          "name": "F5",
          "ticks": 17520,
          "time": 12.265460000000001,
          "velocity": 0.4330708661417323
        },
        {
          "duration": 0.08120966666666796,
          "durationTicks": 116,
          "midi": 77,
          "name": "F5",
          "ticks": 17760,
          "time": 12.43348,
          "velocity": 0.4330708661417323
        },
        {
          "duration": 0.08120966666666796,
          "durationTicks": 116,
          "midi": 77,
          "name": "F5",
          "ticks": 18000,
          "time": 12.6015,
          "velocity": 0.4330708661417323
        },
        {
          "duration": 0.08120966666666618,
          "durationTicks": 116,
          "midi": 77,
          "name": "F5",
          "ticks": 18240,
          "time": 12.76952,
          "velocity": 0.4330708661417323
        },
        {
          "duration": 0.08120966666666618,
          "durationTicks": 116,
          "midi": 77,
          "name": "F5",
          "ticks": 18480,
          "time": 12.93754,
          "velocity": 0.4330708661417323
        },
        {
          "duration": 0.08120966666666618,
          "durationTicks": 116,
          "midi": 86,
          "name": "D6",
          "ticks": 18720,
          "time": 13.10556,
          "velocity": 0.4330708661417323
        },
        {
          "duration": 0.16521966666666543,
          "durationTicks": 236,
          "midi": 81,
          "name": "A5",
          "ticks": 18960,
          "time": 13.27358,
          "velocity": 0.4330708661417323
        },
        {
          "duration": 0.08120966666666618,
          "durationTicks": 116,
          "midi": 82,
          "name": "A#5",
          "ticks": 19200,
          "time": 13.441600000000001,
          "velocity": 0.4330708661417323
        },
        {
          "duration": 0.08120966666666796,
          "durationTicks": 116,
          "midi": 87,
          "name": "D#6",
          "ticks": 19440,
          "time": 13.60962,
          "velocity": 0.4330708661417323
        },
        {
          "duration": 0.1652196666666672,
          "durationTicks": 236,
          "midi": 83,
          "name": "B5",
          "ticks": 19680,
          "time": 13.77764,
          "velocity": 0.4330708661417323
        },
        {
          "duration": 0.08120966666666618,
          "durationTicks": 116,
          "midi": 84,
          "name": "C6",
          "ticks": 19920,
          "time": 13.94566,
          "velocity": 0.4330708661417323
        },
        {
          "duration": 0.3332396666666675,
          "durationTicks": 476,
          "midi": 89,
          "name": "F6",
          "ticks": 20160,
          "time": 14.11368,
          "velocity": 0.4330708661417323
        },
        {
          "duration": 0.16521966666666543,
          "durationTicks": 236,
          "midi": 86,
          "name": "D6",
          "ticks": 20640,
          "time": 14.449720000000001,
          "velocity": 0.4330708661417323
        },
        {
          "duration": 0.10921300000000222,
          "durationTicks": 156,
          "midi": 89,
          "name": "F6",
          "ticks": 20880,
          "time": 14.61774,
          "velocity": 0.4330708661417323
        },
        {
          "duration": 0.08120966666666618,
          "durationTicks": 116,
          "midi": 86,
          "name": "D6",
          "ticks": 21600,
          "time": 15.1218,
          "velocity": 0.4330708661417323
        },
        {
          "duration": 0.08120966666666618,
          "durationTicks": 116,
          "midi": 89,
          "name": "F6",
          "ticks": 21840,
          "time": 15.28982,
          "velocity": 0.4330708661417323
        },
        {
          "duration": 0.08120966666666618,
          "durationTicks": 116,
          "midi": 82,
          "name": "A#5",
          "ticks": 22080,
          "time": 15.457840000000001,
          "velocity": 0.4330708661417323
        },
        {
          "duration": 0.08120966666666796,
          "durationTicks": 116,
          "midi": 87,
          "name": "D#6",
          "ticks": 22320,
          "time": 15.62586,
          "velocity": 0.4330708661417323
        },
        {
          "duration": 0.16521966666666543,
          "durationTicks": 236,
          "midi": 81,
          "name": "A5",
          "ticks": 22800,
          "time": 15.9619,
          "velocity": 0.4330708661417323
        },
        {
          "duration": 0.5012596666666695,
          "durationTicks": 716,
          "midi": 84,
          "name": "C6",
          "ticks": 23040,
          "time": 16.12992,
          "velocity": 0.4330708661417323
        },
        {
          "duration": 0.16521966666666543,
          "durationTicks": 236,
          "midi": 82,
          "name": "A#5",
          "ticks": 23760,
          "time": 16.63398,
          "velocity": 0.4330708661417323
        },
        {
          "duration": 1.005319666666665,
          "durationTicks": 1436,
          "midi": 82,
          "name": "A#5",
          "ticks": 57600,
          "time": 40.3248,
          "velocity": 0.5118110236220472
        },
        {
          "duration": 0.5012596666666624,
          "durationTicks": 716,
          "midi": 82,
          "name": "A#5",
          "ticks": 59040,
          "time": 41.33292,
          "velocity": 0.4330708661417323
        },
        {
          "duration": 0.1372163333333276,
          "durationTicks": 196,
          "midi": 79,
          "name": "G5",
          "ticks": 59760,
          "time": 41.836980000000004,
          "velocity": 0.4330708661417323
        },
        {
          "duration": 2.0134396666666703,
          "durationTicks": 2876,
          "midi": 82,
          "name": "A#5",
          "ticks": 66240,
          "time": 46.37352,
          "velocity": 0.4251968503937008
        },
        {
          "duration": 0.08120966666666618,
          "durationTicks": 116,
          "midi": 83,
          "name": "B5",
          "ticks": 69120,
          "time": 48.38976,
          "velocity": 0.2755905511811024
        },
        {
          "duration": 0.08120966666667329,
          "durationTicks": 116,
          "midi": 83,
          "name": "B5",
          "ticks": 69600,
          "time": 48.7258,
          "velocity": 0.2755905511811024
        },
        {
          "duration": 0.08120966666667329,
          "durationTicks": 116,
          "midi": 83,
          "name": "B5",
          "ticks": 69840,
          "time": 48.89382,
          "velocity": 0.2755905511811024
        },
        {
          "duration": 0.08120966666666618,
          "durationTicks": 116,
          "midi": 83,
          "name": "B5",
          "ticks": 70320,
          "time": 49.22986,
          "velocity": 0.2677165354330709
        },
        {
          "duration": 0.669279666666668,
          "durationTicks": 956,
          "midi": 84,
          "name": "C6",
          "ticks": 70560,
          "time": 49.39788,
          "velocity": 0.2677165354330709
        },
        {
          "duration": 0.16521966666666543,
          "durationTicks": 236,
          "midi": 86,
          "name": "D6",
          "ticks": 71520,
          "time": 50.06996,
          "velocity": 0.25984251968503935
        },
        {
          "duration": 0.16521966666667254,
          "durationTicks": 236,
          "midi": 87,
          "name": "D#6",
          "ticks": 71760,
          "time": 50.23798,
          "velocity": 0.25984251968503935
        },
        {
          "duration": 0.08120966666667329,
          "durationTicks": 116,
          "midi": 82,
          "name": "A#5",
          "ticks": 72000,
          "time": 50.406,
          "velocity": 0.25984251968503935
        },
        {
          "duration": 0.16521966666666543,
          "durationTicks": 236,
          "midi": 82,
          "name": "A#5",
          "ticks": 72480,
          "time": 50.74204,
          "velocity": 0.25196850393700787
        },
        {
          "duration": 0.08120966666666618,
          "durationTicks": 116,
          "midi": 81,
          "name": "A5",
          "ticks": 72720,
          "time": 50.91006,
          "velocity": 0.25196850393700787
        },
        {
          "duration": 0.16521966666667254,
          "durationTicks": 236,
          "midi": 81,
          "name": "A5",
          "ticks": 73200,
          "time": 51.2461,
          "velocity": 0.2440944881889764
        },
        {
          "duration": 1.005319666666665,
          "durationTicks": 1436,
          "midi": 86,
          "name": "D6",
          "ticks": 73440,
          "time": 51.414120000000004,
          "velocity": 0.4566929133858268
        },
        {
          "duration": 0.08120966666666618,
          "durationTicks": 116,
          "midi": 86,
          "name": "D6",
          "ticks": 75120,
          "time": 52.59026,
          "velocity": 0.4566929133858268
        },
        {
          "duration": 0.08120966666667329,
          "durationTicks": 116,
          "midi": 86,
          "name": "D6",
          "ticks": 75360,
          "time": 52.75828,
          "velocity": 0.4566929133858268
        },
        {
          "duration": 0.08120966666667329,
          "durationTicks": 116,
          "midi": 86,
          "name": "D6",
          "ticks": 75600,
          "time": 52.9263,
          "velocity": 0.4566929133858268
        },
        {
          "duration": 0.08120966666666618,
          "durationTicks": 116,
          "midi": 86,
          "name": "D6",
          "ticks": 75840,
          "time": 53.09432,
          "velocity": 0.4566929133858268
        },
        {
          "duration": 0.08120966666666618,
          "durationTicks": 116,
          "midi": 86,
          "name": "D6",
          "ticks": 76080,
          "time": 53.26234,
          "velocity": 0.4566929133858268
        },
        {
          "duration": 0.669279666666668,
          "durationTicks": 956,
          "midi": 84,
          "name": "C6",
          "ticks": 76320,
          "time": 53.43036,
          "velocity": 0.4566929133858268
        },
        {
          "duration": 0.08120966666666618,
          "durationTicks": 116,
          "midi": 86,
          "name": "D6",
          "ticks": 77280,
          "time": 54.10244,
          "velocity": 0.4566929133858268
        },
        {
          "duration": 0.08120966666667329,
          "durationTicks": 116,
          "midi": 87,
          "name": "D#6",
          "ticks": 77520,
          "time": 54.27046,
          "velocity": 0.4566929133858268
        },
        {
          "duration": 0.5012596666666695,
          "durationTicks": 716,
          "midi": 86,
          "name": "D6",
          "ticks": 77760,
          "time": 54.43848,
          "velocity": 0.4566929133858268
        },
        {
          "duration": 0.5012596666666695,
          "durationTicks": 716,
          "midi": 84,
          "name": "C6",
          "ticks": 78480,
          "time": 54.94254,
          "velocity": 0.4566929133858268
        },
        {
          "duration": 1.005319666666665,
          "durationTicks": 1436,
          "midi": 86,
          "name": "D6",
          "ticks": 79200,
          "time": 55.446600000000004,
          "velocity": 0.4566929133858268
        },
        {
          "duration": 0.08120966666667329,
          "durationTicks": 116,
          "midi": 86,
          "name": "D6",
          "ticks": 80880,
          "time": 56.62274,
          "velocity": 0.4566929133858268
        },
        {
          "duration": 0.08120966666667329,
          "durationTicks": 116,
          "midi": 86,
          "name": "D6",
          "ticks": 81120,
          "time": 56.79076,
          "velocity": 0.4566929133858268
        },
        {
          "duration": 0.08120966666666618,
          "durationTicks": 116,
          "midi": 86,
          "name": "D6",
          "ticks": 81360,
          "time": 56.958780000000004,
          "velocity": 0.4566929133858268
        },
        {
          "duration": 0.08120966666666618,
          "durationTicks": 116,
          "midi": 86,
          "name": "D6",
          "ticks": 81600,
          "time": 57.1268,
          "velocity": 0.4566929133858268
        },
        {
          "duration": 0.08120966666666618,
          "durationTicks": 116,
          "midi": 86,
          "name": "D6",
          "ticks": 81840,
          "time": 57.29482,
          "velocity": 0.4566929133858268
        },
        {
          "duration": 0.669279666666668,
          "durationTicks": 956,
          "midi": 91,
          "name": "G6",
          "ticks": 82080,
          "time": 57.46284,
          "velocity": 0.5354330708661418
        },
        {
          "duration": 0.08120966666666618,
          "durationTicks": 116,
          "midi": 89,
          "name": "F6",
          "ticks": 83040,
          "time": 58.13492,
          "velocity": 0.4566929133858268
        },
        {
          "duration": 0.08120966666667329,
          "durationTicks": 116,
          "midi": 87,
          "name": "D#6",
          "ticks": 83280,
          "time": 58.30294,
          "velocity": 0.4566929133858268
        },
        {
          "duration": 0.5012596666666695,
          "durationTicks": 716,
          "midi": 86,
          "name": "D6",
          "ticks": 83520,
          "time": 58.47096,
          "velocity": 0.4566929133858268
        },
        {
          "duration": 0.5012596666666695,
          "durationTicks": 716,
          "midi": 84,
          "name": "C6",
          "ticks": 84240,
          "time": 58.97502,
          "velocity": 0.4566929133858268
        },
        {
          "duration": 0.16521966666666543,
          "durationTicks": 236,
          "midi": 82,
          "name": "A#5",
          "ticks": 84960,
          "time": 59.47908,
          "velocity": 0.4566929133858268
        },
        {
          "duration": 0.1092129999999969,
          "durationTicks": 156,
          "midi": 86,
          "name": "D6",
          "ticks": 91440,
          "time": 64.01562,
          "velocity": 0.2677165354330709
        },
        {
          "duration": 0.1092129999999969,
          "durationTicks": 156,
          "midi": 82,
          "name": "A#5",
          "ticks": 92160,
          "time": 64.51968,
          "velocity": 0.2677165354330709
        },
        {
          "duration": 0.08120966666666618,
          "durationTicks": 116,
          "midi": 81,
          "name": "A5",
          "ticks": 107280,
          "time": 75.10494,
          "velocity": 0.2677165354330709
        },
        {
          "duration": 0.08120966666666618,
          "durationTicks": 116,
          "midi": 81,
          "name": "A5",
          "ticks": 107520,
          "time": 75.27296,
          "velocity": 0.2677165354330709
        },
        {
          "duration": 0.08120966666668039,
          "durationTicks": 116,
          "midi": 81,
          "name": "A5",
          "ticks": 107760,
          "time": 75.44098,
          "velocity": 0.2677165354330709
        },
        {
          "duration": 0.33323966666667104,
          "durationTicks": 476,
          "midi": 82,
          "name": "A#5",
          "ticks": 108000,
          "time": 75.609,
          "velocity": 0.25984251968503935
        },
        {
          "duration": 0.16521966666665833,
          "durationTicks": 236,
          "midi": 84,
          "name": "C6",
          "ticks": 108480,
          "time": 75.94504,
          "velocity": 0.28346456692913385
        },
        {
          "duration": 0.33323966666667104,
          "durationTicks": 476,
          "midi": 86,
          "name": "D6",
          "ticks": 108720,
          "time": 76.11306,
          "velocity": 0.2992125984251969
        },
        {
          "duration": 0.16521966666667254,
          "durationTicks": 236,
          "midi": 88,
          "name": "E6",
          "ticks": 109200,
          "time": 76.4491,
          "velocity": 0.33070866141732286
        },
        {
          "duration": 0.24922966666666468,
          "durationTicks": 356,
          "midi": 89,
          "name": "F6",
          "ticks": 109440,
          "time": 76.61712,
          "velocity": 0.3464566929133858
        },
        {
          "duration": 0.03920466666667721,
          "durationTicks": 56,
          "midi": 89,
          "name": "F6",
          "ticks": 112560,
          "time": 78.80138,
          "velocity": 0.3464566929133858
        },
        {
          "duration": 0.039204666666663,
          "durationTicks": 56,
          "midi": 89,
          "name": "F6",
          "ticks": 112800,
          "time": 78.96940000000001,
          "velocity": 0.3464566929133858
        },
        {
          "duration": 0.16521966666665833,
          "durationTicks": 236,
          "midi": 89,
          "name": "F6",
          "ticks": 113040,
          "time": 79.13742,
          "velocity": 0.2677165354330709
        },
        {
          "duration": 0.039204666666663,
          "durationTicks": 56,
          "midi": 88,
          "name": "E6",
          "ticks": 116160,
          "time": 81.32168,
          "velocity": 0.3464566929133858
        },
        {
          "duration": 0.03920466666667721,
          "durationTicks": 56,
          "midi": 88,
          "name": "E6",
          "ticks": 116400,
          "time": 81.4897,
          "velocity": 0.3464566929133858
        },
        {
          "duration": 0.16521966666667254,
          "durationTicks": 236,
          "midi": 88,
          "name": "E6",
          "ticks": 116640,
          "time": 81.65772,
          "velocity": 0.2677165354330709
        },
        {
          "duration": 0.03920466666667721,
          "durationTicks": 56,
          "midi": 87,
          "name": "D#6",
          "ticks": 119040,
          "time": 83.33792,
          "velocity": 0.3464566929133858
        },
        {
          "duration": 0.03920466666667721,
          "durationTicks": 56,
          "midi": 87,
          "name": "D#6",
          "ticks": 119280,
          "time": 83.50594,
          "velocity": 0.3464566929133858
        },
        {
          "duration": 0.16521966666665833,
          "durationTicks": 236,
          "midi": 87,
          "name": "D#6",
          "ticks": 119520,
          "time": 83.67396000000001,
          "velocity": 0.2677165354330709
        },
        {
          "duration": 0.053206333333335465,
          "durationTicks": 76,
          "midi": 87,
          "name": "D#6",
          "ticks": 122640,
          "time": 85.85822,
          "velocity": 0.2755905511811024
        },
        {
          "duration": 0.053206333333335465,
          "durationTicks": 76,
          "midi": 87,
          "name": "D#6",
          "ticks": 122880,
          "time": 86.02624,
          "velocity": 0.29133858267716534
        },
        {
          "duration": 0.053206333333349676,
          "durationTicks": 76,
          "midi": 87,
          "name": "D#6",
          "ticks": 123120,
          "time": 86.19426,
          "velocity": 0.30708661417322836
        },
        {
          "duration": 0.053206333333349676,
          "durationTicks": 76,
          "midi": 87,
          "name": "D#6",
          "ticks": 123360,
          "time": 86.36228,
          "velocity": 0.3228346456692913
        },
        {
          "duration": 0.053206333333349676,
          "durationTicks": 76,
          "midi": 87,
          "name": "D#6",
          "ticks": 123600,
          "time": 86.5303,
          "velocity": 0.3464566929133858
        },
        {
          "duration": 0.22122633333334818,
          "durationTicks": 316,
          "midi": 86,
          "name": "D6",
          "ticks": 123840,
          "time": 86.69832,
          "velocity": 0.36220472440944884
        },
        {
          "duration": 0.053206333333349676,
          "durationTicks": 76,
          "midi": 87,
          "name": "D#6",
          "ticks": 125520,
          "time": 87.87446,
          "velocity": 0.2992125984251969
        },
        {
          "duration": 0.053206333333349676,
          "durationTicks": 76,
          "midi": 87,
          "name": "D#6",
          "ticks": 125760,
          "time": 88.04248,
          "velocity": 0.30708661417322836
        },
        {
          "duration": 0.053206333333349676,
          "durationTicks": 76,
          "midi": 87,
          "name": "D#6",
          "ticks": 126000,
          "time": 88.2105,
          "velocity": 0.3228346456692913
        },
        {
          "duration": 0.053206333333349676,
          "durationTicks": 76,
          "midi": 87,
          "name": "D#6",
          "ticks": 126240,
          "time": 88.37852,
          "velocity": 0.3464566929133858
        },
        {
          "duration": 0.053206333333335465,
          "durationTicks": 76,
          "midi": 87,
          "name": "D#6",
          "ticks": 126480,
          "time": 88.54654000000001,
          "velocity": 0.36220472440944884
        },
        {
          "duration": 0.22122633333333397,
          "durationTicks": 316,
          "midi": 86,
          "name": "D6",
          "ticks": 126720,
          "time": 88.71456,
          "velocity": 0.2992125984251969
        },
        {
          "duration": 0.053206333333349676,
          "durationTicks": 76,
          "midi": 85,
          "name": "C#6",
          "ticks": 128400,
          "time": 89.8907,
          "velocity": 0.2992125984251969
        },
        {
          "duration": 0.053206333333335465,
          "durationTicks": 76,
          "midi": 85,
          "name": "C#6",
          "ticks": 128640,
          "time": 90.05872000000001,
          "velocity": 0.31496062992125984
        },
        {
          "duration": 0.053206333333335465,
          "durationTicks": 76,
          "midi": 85,
          "name": "C#6",
          "ticks": 128880,
          "time": 90.22674,
          "velocity": 0.3464566929133858
        },
        {
          "duration": 0.053206333333335465,
          "durationTicks": 76,
          "midi": 85,
          "name": "C#6",
          "ticks": 129120,
          "time": 90.39476,
          "velocity": 0.3700787401574803
        },
        {
          "duration": 0.053206333333335465,
          "durationTicks": 76,
          "midi": 85,
          "name": "C#6",
          "ticks": 129360,
          "time": 90.56278,
          "velocity": 0.3937007874015748
        },
        {
          "duration": 0.22122633333334818,
          "durationTicks": 316,
          "midi": 84,
          "name": "C6",
          "ticks": 129600,
          "time": 90.7308,
          "velocity": 0.2755905511811024
        },
        {
          "duration": 0.13721633333334182,
          "durationTicks": 196,
          "midi": 72,
          "name": "C5",
          "ticks": 141120,
          "time": 98.79576,
          "velocity": 0.3464566929133858
        },
        {
          "duration": 0.16521966666667254,
          "durationTicks": 236,
          "midi": 76,
          "name": "E5",
          "ticks": 141600,
          "time": 99.1318,
          "velocity": 0.3700787401574803
        },
        {
          "duration": 0.1092129999999969,
          "durationTicks": 156,
          "midi": 79,
          "name": "G5",
          "ticks": 141840,
          "time": 99.29982,
          "velocity": 0.3858267716535433
        },
        {
          "duration": 0.16521966666665833,
          "durationTicks": 236,
          "midi": 83,
          "name": "B5",
          "ticks": 142320,
          "time": 99.63586000000001,
          "velocity": 0.41732283464566927
        },
        {
          "duration": 0.1092129999999969,
          "durationTicks": 156,
          "midi": 84,
          "name": "C6",
          "ticks": 142560,
          "time": 99.80388,
          "velocity": 0.4330708661417323
        },
        {
          "duration": 0.08120966666666618,
          "durationTicks": 116,
          "midi": 72,
          "name": "C5",
          "ticks": 148320,
          "time": 103.83636,
          "velocity": 0.1968503937007874
        },
        {
          "duration": 0.08120966666666618,
          "durationTicks": 116,
          "midi": 74,
          "name": "D5",
          "ticks": 148440,
          "time": 103.92037,
          "velocity": 0.1968503937007874
        },
        {
          "duration": 0.08120966666666618,
          "durationTicks": 116,
          "midi": 76,
          "name": "E5",
          "ticks": 148560,
          "time": 104.00438,
          "velocity": 0.2047244094488189
        },
        {
          "duration": 0.08120966666666618,
          "durationTicks": 116,
          "midi": 77,
          "name": "F5",
          "ticks": 148680,
          "time": 104.08839,
          "velocity": 0.2204724409448819
        },
        {
          "duration": 0.08120966666668039,
          "durationTicks": 116,
          "midi": 79,
          "name": "G5",
          "ticks": 148800,
          "time": 104.1724,
          "velocity": 0.2283464566929134
        },
        {
          "duration": 0.08120966666666618,
          "durationTicks": 116,
          "midi": 81,
          "name": "A5",
          "ticks": 148920,
          "time": 104.25641,
          "velocity": 0.23622047244094488
        },
        {
          "duration": 0.08120966666668039,
          "durationTicks": 116,
          "midi": 82,
          "name": "A#5",
          "ticks": 149040,
          "time": 104.34042,
          "velocity": 0.25196850393700787
        },
        {
          "duration": 0.08120966666666618,
          "durationTicks": 116,
          "midi": 81,
          "name": "A5",
          "ticks": 149160,
          "time": 104.42443,
          "velocity": 0.25984251968503935
        },
        {
          "duration": 0.08120966666666618,
          "durationTicks": 116,
          "midi": 82,
          "name": "A#5",
          "ticks": 149280,
          "time": 104.50844000000001,
          "velocity": 0.28346456692913385
        },
        {
          "duration": 0.08120966666666618,
          "durationTicks": 116,
          "midi": 81,
          "name": "A5",
          "ticks": 149400,
          "time": 104.59245,
          "velocity": 0.2992125984251969
        },
        {
          "duration": 0.08120966666666618,
          "durationTicks": 116,
          "midi": 82,
          "name": "A#5",
          "ticks": 149520,
          "time": 104.67646,
          "velocity": 0.30708661417322836
        },
        {
          "duration": 0.08120966666666618,
          "durationTicks": 116,
          "midi": 81,
          "name": "A5",
          "ticks": 149640,
          "time": 104.76047,
          "velocity": 0.3228346456692913
        },
        {
          "duration": 0.33323966666667104,
          "durationTicks": 476,
          "midi": 82,
          "name": "A#5",
          "ticks": 149760,
          "time": 104.84448,
          "velocity": 0.2283464566929134
        },
        {
          "duration": 0.08120966666668039,
          "durationTicks": 116,
          "midi": 72,
          "name": "C5",
          "ticks": 151200,
          "time": 105.8526,
          "velocity": 0.1968503937007874
        },
        {
          "duration": 0.08120966666666618,
          "durationTicks": 116,
          "midi": 74,
          "name": "D5",
          "ticks": 151320,
          "time": 105.93661,
          "velocity": 0.1968503937007874
        },
        {
          "duration": 0.08120966666666618,
          "durationTicks": 116,
          "midi": 76,
          "name": "E5",
          "ticks": 151440,
          "time": 106.02062000000001,
          "velocity": 0.2047244094488189
        },
        {
          "duration": 0.08120966666666618,
          "durationTicks": 116,
          "midi": 77,
          "name": "F5",
          "ticks": 151560,
          "time": 106.10463,
          "velocity": 0.2204724409448819
        },
        {
          "duration": 0.08120966666666618,
          "durationTicks": 116,
          "midi": 79,
          "name": "G5",
          "ticks": 151680,
          "time": 106.18864,
          "velocity": 0.2283464566929134
        },
        {
          "duration": 0.08120966666666618,
          "durationTicks": 116,
          "midi": 81,
          "name": "A5",
          "ticks": 151800,
          "time": 106.27265,
          "velocity": 0.2440944881889764
        },
        {
          "duration": 0.08120966666666618,
          "durationTicks": 116,
          "midi": 82,
          "name": "A#5",
          "ticks": 151920,
          "time": 106.35666,
          "velocity": 0.25984251968503935
        },
        {
          "duration": 0.08120966666668039,
          "durationTicks": 116,
          "midi": 81,
          "name": "A5",
          "ticks": 152040,
          "time": 106.44067,
          "velocity": 0.2755905511811024
        },
        {
          "duration": 0.08120966666666618,
          "durationTicks": 116,
          "midi": 82,
          "name": "A#5",
          "ticks": 152160,
          "time": 106.52468,
          "velocity": 0.29133858267716534
        },
        {
          "duration": 0.08120966666668039,
          "durationTicks": 116,
          "midi": 81,
          "name": "A5",
          "ticks": 152280,
          "time": 106.60869,
          "velocity": 0.30708661417322836
        },
        {
          "duration": 0.08120966666666618,
          "durationTicks": 116,
          "midi": 82,
          "name": "A#5",
          "ticks": 152400,
          "time": 106.6927,
          "velocity": 0.3228346456692913
        },
        {
          "duration": 0.08120966666666618,
          "durationTicks": 116,
          "midi": 81,
          "name": "A5",
          "ticks": 152520,
          "time": 106.77671000000001,
          "velocity": 0.33858267716535434
        },
        {
          "duration": 0.08120966666666618,
          "durationTicks": 116,
          "midi": 82,
          "name": "A#5",
          "ticks": 152640,
          "time": 106.86072,
          "velocity": 0.2677165354330709
        },
        {
          "duration": 0.17082033333333868,
          "durationTicks": 244,
          "midi": 78,
          "name": "F#5",
          "ticks": 152880,
          "time": 107.02874,
          "velocity": 0.2677165354330709
        },
        {
          "duration": 0.17082033333333868,
          "durationTicks": 244,
          "midi": 79,
          "name": "G5",
          "ticks": 153120,
          "time": 107.19676,
          "velocity": 0.28346456692913385
        },
        {
          "duration": 0.17082033333333868,
          "durationTicks": 244,
          "midi": 81,
          "name": "A5",
          "ticks": 153360,
          "time": 107.36478,
          "velocity": 0.30708661417322836
        },
        {
          "duration": 0.17082033333332447,
          "durationTicks": 244,
          "midi": 82,
          "name": "A#5",
          "ticks": 153600,
          "time": 107.53280000000001,
          "velocity": 0.33070866141732286
        },
        {
          "duration": 0.17082033333332447,
          "durationTicks": 244,
          "midi": 83,
          "name": "B5",
          "ticks": 153840,
          "time": 107.70082000000001,
          "velocity": 0.2755905511811024
        },
        {
          "duration": 2.0134396666666703,
          "durationTicks": 2876,
          "midi": 84,
          "name": "C6",
          "ticks": 154080,
          "time": 107.86884,
          "velocity": 0.2283464566929134
        },
        {
          "duration": 2.0134396666666703,
          "durationTicks": 2876,
          "midi": 84,
          "name": "C6",
          "ticks": 159840,
          "time": 111.90132,
          "velocity": 0.2283464566929134
        },
        {
          "duration": 0.08120966666666618,
          "durationTicks": 116,
          "midi": 86,
          "name": "D6",
          "ticks": 168480,
          "time": 117.95004,
          "velocity": 0.4330708661417323
        },
        {
          "duration": 0.08120966666666618,
          "durationTicks": 116,
          "midi": 84,
          "name": "C6",
          "ticks": 168600,
          "time": 118.03405000000001,
          "velocity": 0.41732283464566927
        },
        {
          "duration": 0.08120966666666618,
          "durationTicks": 116,
          "midi": 86,
          "name": "D6",
          "ticks": 168720,
          "time": 118.11806,
          "velocity": 0.4015748031496063
        },
        {
          "duration": 0.08120966666666618,
          "durationTicks": 116,
          "midi": 84,
          "name": "C6",
          "ticks": 168840,
          "time": 118.20207,
          "velocity": 0.3858267716535433
        },
        {
          "duration": 0.08120966666666618,
          "durationTicks": 116,
          "midi": 86,
          "name": "D6",
          "ticks": 168960,
          "time": 118.28608,
          "velocity": 0.3700787401574803
        },
        {
          "duration": 0.08120966666666618,
          "durationTicks": 116,
          "midi": 84,
          "name": "C6",
          "ticks": 169080,
          "time": 118.37009,
          "velocity": 0.3543307086614173
        },
        {
          "duration": 0.16521966666667254,
          "durationTicks": 236,
          "midi": 82,
          "name": "A#5",
          "ticks": 169200,
          "time": 118.4541,
          "velocity": 0.33858267716535434
        },
        {
          "duration": 0.16521966666665833,
          "durationTicks": 236,
          "midi": 81,
          "name": "A5",
          "ticks": 169680,
          "time": 118.79014000000001,
          "velocity": 0.3464566929133858
        },
        {
          "duration": 0.16521966666665833,
          "durationTicks": 236,
          "midi": 79,
          "name": "G5",
          "ticks": 169920,
          "time": 118.95816,
          "velocity": 0.3464566929133858
        },
        {
          "duration": 0.16521966666667254,
          "durationTicks": 236,
          "midi": 79,
          "name": "G5",
          "ticks": 170400,
          "time": 119.2942,
          "velocity": 0.3464566929133858
        },
        {
          "duration": 0.3052363333333403,
          "durationTicks": 436,
          "midi": 79,
          "name": "G5",
          "ticks": 170640,
          "time": 119.46222,
          "velocity": 0.3464566929133858
        },
        {
          "duration": 0.16521966666667254,
          "durationTicks": 236,
          "midi": 81,
          "name": "A5",
          "ticks": 171120,
          "time": 119.79826,
          "velocity": 0.3464566929133858
        },
        {
          "duration": 0.5012596666666695,
          "durationTicks": 716,
          "midi": 77,
          "name": "F5",
          "ticks": 171360,
          "time": 119.96628,
          "velocity": 0.3464566929133858
        },
        {
          "duration": 0.16521966666665833,
          "durationTicks": 236,
          "midi": 76,
          "name": "E5",
          "ticks": 172080,
          "time": 120.47034000000001,
          "velocity": 0.2677165354330709
        },
        {
          "duration": 0.08120966666666618,
          "durationTicks": 116,
          "midi": 86,
          "name": "D6",
          "ticks": 174240,
          "time": 121.98252000000001,
          "velocity": 0.28346456692913385
        },
        {
          "duration": 0.08120966666666618,
          "durationTicks": 116,
          "midi": 84,
          "name": "C6",
          "ticks": 174360,
          "time": 122.06653,
          "velocity": 0.29133858267716534
        },
        {
          "duration": 0.08120966666666618,
          "durationTicks": 116,
          "midi": 86,
          "name": "D6",
          "ticks": 174480,
          "time": 122.15054,
          "velocity": 0.30708661417322836
        },
        {
          "duration": 0.08120966666666618,
          "durationTicks": 116,
          "midi": 84,
          "name": "C6",
          "ticks": 174600,
          "time": 122.23455,
          "velocity": 0.3228346456692913
        },
        {
          "duration": 0.08120966666666618,
          "durationTicks": 116,
          "midi": 86,
          "name": "D6",
          "ticks": 174720,
          "time": 122.31856,
          "velocity": 0.33070866141732286
        },
        {
          "duration": 0.08120966666668039,
          "durationTicks": 116,
          "midi": 84,
          "name": "C6",
          "ticks": 174840,
          "time": 122.40257,
          "velocity": 0.3464566929133858
        },
        {
          "duration": 0.33323966666667104,
          "durationTicks": 476,
          "midi": 82,
          "name": "A#5",
          "ticks": 174960,
          "time": 122.48658,
          "velocity": 0.36220472440944884
        },
        {
          "duration": 0.16521966666667254,
          "durationTicks": 236,
          "midi": 81,
          "name": "A5",
          "ticks": 175440,
          "time": 122.82262,
          "velocity": 0.3464566929133858
        },
        {
          "duration": 0.05880700000000161,
          "durationTicks": 84,
          "midi": 81,
          "name": "A5",
          "ticks": 175680,
          "time": 122.99064,
          "velocity": 0.3464566929133858
        },
        {
          "duration": 0.05880700000000161,
          "durationTicks": 84,
          "midi": 79,
          "name": "G5",
          "ticks": 175772,
          "time": 123.05504766666667,
          "velocity": 0.3464566929133858
        },
        {
          "duration": 0.05880700000000161,
          "durationTicks": 84,
          "midi": 78,
          "name": "F#5",
          "ticks": 175860,
          "time": 123.11665500000001,
          "velocity": 0.3464566929133858
        },
        {
          "duration": 0.05880700000001582,
          "durationTicks": 84,
          "midi": 79,
          "name": "G5",
          "ticks": 175952,
          "time": 123.18106266666666,
          "velocity": 0.3464566929133858
        },
        {
          "duration": 0.08120966666666618,
          "durationTicks": 116,
          "midi": 81,
          "name": "A5",
          "ticks": 176040,
          "time": 123.24267,
          "velocity": 0.3464566929133858
        },
        {
          "duration": 0.13721633333334182,
          "durationTicks": 196,
          "midi": 82,
          "name": "A#5",
          "ticks": 176160,
          "time": 123.32668,
          "velocity": 0.3464566929133858
        },
        {
          "duration": 0.05880700000000161,
          "durationTicks": 84,
          "midi": 74,
          "name": "D5",
          "ticks": 176400,
          "time": 123.49470000000001,
          "velocity": 0.3464566929133858
        },
        {
          "duration": 0.05880700000001582,
          "durationTicks": 84,
          "midi": 72,
          "name": "C5",
          "ticks": 176492,
          "time": 123.55910766666666,
          "velocity": 0.3464566929133858
        },
        {
          "duration": 0.05880700000000161,
          "durationTicks": 84,
          "midi": 71,
          "name": "B4",
          "ticks": 176580,
          "time": 123.620715,
          "velocity": 0.3464566929133858
        },
        {
          "duration": 0.05880700000000161,
          "durationTicks": 84,
          "midi": 72,
          "name": "C5",
          "ticks": 176672,
          "time": 123.68512266666667,
          "velocity": 0.3464566929133858
        },
        {
          "duration": 0.08120966666666618,
          "durationTicks": 116,
          "midi": 74,
          "name": "D5",
          "ticks": 176760,
          "time": 123.74673,
          "velocity": 0.3464566929133858
        },
        {
          "duration": 0.16521966666665833,
          "durationTicks": 236,
          "midi": 76,
          "name": "E5",
          "ticks": 176880,
          "time": 123.83074,
          "velocity": 0.3464566929133858
        },
        {
          "duration": 0.22122633333333397,
          "durationTicks": 316,
          "midi": 77,
          "name": "F5",
          "ticks": 177120,
          "time": 123.99876,
          "velocity": 0.3464566929133858
        },
        {
          "duration": 0.08120966666666618,
          "durationTicks": 116,
          "midi": 87,
          "name": "D#6",
          "ticks": 184560,
          "time": 129.20738,
          "velocity": 0.3464566929133858
        },
        {
          "duration": 0.08120966666666618,
          "durationTicks": 116,
          "midi": 87,
          "name": "D#6",
          "ticks": 184800,
          "time": 129.3754,
          "velocity": 0.3543307086614173
        },
        {
          "duration": 0.08120966666666618,
          "durationTicks": 116,
          "midi": 87,
          "name": "D#6",
          "ticks": 185040,
          "time": 129.54342,
          "velocity": 0.36220472440944884
        },
        {
          "duration": 0.08120966666666618,
          "durationTicks": 116,
          "midi": 87,
          "name": "D#6",
          "ticks": 185280,
          "time": 129.71144,
          "velocity": 0.3700787401574803
        },
        {
          "duration": 0.08120966666666618,
          "durationTicks": 116,
          "midi": 87,
          "name": "D#6",
          "ticks": 185520,
          "time": 129.87946,
          "velocity": 0.3779527559055118
        },
        {
          "duration": 0.09055153333332555,
          "durationTicks": 116,
          "midi": 87,
          "name": "D#6",
          "ticks": 185760,
          "time": 130.04748,
          "velocity": 0.3858267716535433
        },
        {
          "duration": 0.09055153333335397,
          "durationTicks": 116,
          "midi": 87,
          "name": "D#6",
          "ticks": 186000,
          "time": 130.234828,
          "velocity": 0.3937007874015748
        },
        {
          "duration": 0.09055153333332555,
          "durationTicks": 116,
          "midi": 87,
          "name": "D#6",
          "ticks": 186240,
          "time": 130.422176,
          "velocity": 0.4015748031496063
        },
        {
          "duration": 0.10262592500001233,
          "durationTicks": 116,
          "midi": 87,
          "name": "D#6",
          "ticks": 186480,
          "time": 130.609524,
          "velocity": 0.4094488188976378
        },
        {
          "duration": 0.10262592499998391,
          "durationTicks": 116,
          "midi": 87,
          "name": "D#6",
          "ticks": 186720,
          "time": 130.8218535,
          "velocity": 0.41732283464566927
        },
        {
          "duration": 0.10262592500001233,
          "durationTicks": 116,
          "midi": 87,
          "name": "D#6",
          "ticks": 186960,
          "time": 131.03418299999998,
          "velocity": 0.4251968503937008
        },
        {
          "duration": 0.680717808333327,
          "durationTicks": 956,
          "midi": 87,
          "name": "D#6",
          "ticks": 187200,
          "time": 131.2465125,
          "velocity": 0.4330708661417323
        },
        {
          "duration": 0.08120966666666618,
          "durationTicks": 116,
          "midi": 77,
          "name": "F5",
          "ticks": 226080,
          "time": 167.13212012500003,
          "velocity": 0.4330708661417323
        },
        {
          "duration": 0.08120966666666618,
          "durationTicks": 116,
          "midi": 77,
          "name": "F5",
          "ticks": 226320,
          "time": 167.300140125,
          "velocity": 0.4330708661417323
        },
        {
          "duration": 0.08120966666666618,
          "durationTicks": 116,
          "midi": 77,
          "name": "F5",
          "ticks": 226560,
          "time": 167.46816012500003,
          "velocity": 0.4330708661417323
        },
        {
          "duration": 0.08120966666666618,
          "durationTicks": 116,
          "midi": 77,
          "name": "F5",
          "ticks": 226800,
          "time": 167.636180125,
          "velocity": 0.4330708661417323
        },
        {
          "duration": 0.08120966666666618,
          "durationTicks": 116,
          "midi": 77,
          "name": "F5",
          "ticks": 227040,
          "time": 167.80420012500002,
          "velocity": 0.4330708661417323
        },
        {
          "duration": 0.08120966666666618,
          "durationTicks": 116,
          "midi": 77,
          "name": "F5",
          "ticks": 227280,
          "time": 167.972220125,
          "velocity": 0.4330708661417323
        },
        {
          "duration": 0.08120966666666618,
          "durationTicks": 116,
          "midi": 77,
          "name": "F5",
          "ticks": 227520,
          "time": 168.14024012500002,
          "velocity": 0.4330708661417323
        },
        {
          "duration": 0.08120966666666618,
          "durationTicks": 116,
          "midi": 77,
          "name": "F5",
          "ticks": 227760,
          "time": 168.308260125,
          "velocity": 0.4330708661417323
        },
        {
          "duration": 0.08120966666666618,
          "durationTicks": 116,
          "midi": 77,
          "name": "F5",
          "ticks": 228000,
          "time": 168.47628012500002,
          "velocity": 0.4330708661417323
        },
        {
          "duration": 0.08120966666666618,
          "durationTicks": 116,
          "midi": 77,
          "name": "F5",
          "ticks": 228240,
          "time": 168.64430012500003,
          "velocity": 0.4330708661417323
        },
        {
          "duration": 0.08120966666666618,
          "durationTicks": 116,
          "midi": 77,
          "name": "F5",
          "ticks": 228480,
          "time": 168.812320125,
          "velocity": 0.4330708661417323
        },
        {
          "duration": 0.08120966666666618,
          "durationTicks": 116,
          "midi": 77,
          "name": "F5",
          "ticks": 228720,
          "time": 168.98034012500003,
          "velocity": 0.4330708661417323
        },
        {
          "duration": 0.08120966666666618,
          "durationTicks": 116,
          "midi": 77,
          "name": "F5",
          "ticks": 228960,
          "time": 169.148360125,
          "velocity": 0.4330708661417323
        },
        {
          "duration": 0.08120966666666618,
          "durationTicks": 116,
          "midi": 77,
          "name": "F5",
          "ticks": 229200,
          "time": 169.31638012500002,
          "velocity": 0.4330708661417323
        },
        {
          "duration": 0.08120966666666618,
          "durationTicks": 116,
          "midi": 77,
          "name": "F5",
          "ticks": 229440,
          "time": 169.484400125,
          "velocity": 0.4330708661417323
        },
        {
          "duration": 0.08120966666666618,
          "durationTicks": 116,
          "midi": 77,
          "name": "F5",
          "ticks": 229680,
          "time": 169.65242012500002,
          "velocity": 0.4330708661417323
        },
        {
          "duration": 0.08120966666666618,
          "durationTicks": 116,
          "midi": 77,
          "name": "F5",
          "ticks": 229920,
          "time": 169.820440125,
          "velocity": 0.4330708661417323
        },
        {
          "duration": 0.08120966666666618,
          "durationTicks": 116,
          "midi": 77,
          "name": "F5",
          "ticks": 230160,
          "time": 169.98846012500002,
          "velocity": 0.4330708661417323
        },
        {
          "duration": 0.08120966666666618,
          "durationTicks": 116,
          "midi": 77,
          "name": "F5",
          "ticks": 230400,
          "time": 170.15648012500003,
          "velocity": 0.4330708661417323
        },
        {
          "duration": 0.08120966666666618,
          "durationTicks": 116,
          "midi": 77,
          "name": "F5",
          "ticks": 230640,
          "time": 170.32450012500001,
          "velocity": 0.4330708661417323
        },
        {
          "duration": 0.08120966666666618,
          "durationTicks": 116,
          "midi": 77,
          "name": "F5",
          "ticks": 230880,
          "time": 170.49252012500003,
          "velocity": 0.4330708661417323
        },
        {
          "duration": 0.08120966666666618,
          "durationTicks": 116,
          "midi": 77,
          "name": "F5",
          "ticks": 231120,
          "time": 170.660540125,
          "velocity": 0.4330708661417323
        },
        {
          "duration": 0.08120966666666618,
          "durationTicks": 116,
          "midi": 77,
          "name": "F5",
          "ticks": 231360,
          "time": 170.82856012500002,
          "velocity": 0.4330708661417323
        },
        {
          "duration": 0.08120966666666618,
          "durationTicks": 116,
          "midi": 77,
          "name": "F5",
          "ticks": 231600,
          "time": 170.996580125,
          "velocity": 0.4330708661417323
        },
        {
          "duration": 0.08120966666666618,
          "durationTicks": 116,
          "midi": 86,
          "name": "D6",
          "ticks": 231840,
          "time": 171.16460012500002,
          "velocity": 0.4330708661417323
        },
        {
          "duration": 0.16521966666667254,
          "durationTicks": 236,
          "midi": 81,
          "name": "A5",
          "ticks": 232080,
          "time": 171.332620125,
          "velocity": 0.4330708661417323
        },
        {
          "duration": 0.08120966666666618,
          "durationTicks": 116,
          "midi": 82,
          "name": "A#5",
          "ticks": 232320,
          "time": 171.50064012500002,
          "velocity": 0.4330708661417323
        },
        {
          "duration": 0.0812096666666946,
          "durationTicks": 116,
          "midi": 87,
          "name": "D#6",
          "ticks": 232560,
          "time": 171.668660125,
          "velocity": 0.4330708661417323
        },
        {
          "duration": 0.16521966666667254,
          "durationTicks": 236,
          "midi": 83,
          "name": "B5",
          "ticks": 232800,
          "time": 171.83668012500002,
          "velocity": 0.4330708661417323
        },
        {
          "duration": 0.08120966666666618,
          "durationTicks": 116,
          "midi": 84,
          "name": "C6",
          "ticks": 233040,
          "time": 172.00470012500003,
          "velocity": 0.4330708661417323
        },
        {
          "duration": 0.33323966666665683,
          "durationTicks": 476,
          "midi": 89,
          "name": "F6",
          "ticks": 233280,
          "time": 172.172720125,
          "velocity": 0.4330708661417323
        },
        {
          "duration": 0.16521966666667254,
          "durationTicks": 236,
          "midi": 86,
          "name": "D6",
          "ticks": 233760,
          "time": 172.508760125,
          "velocity": 0.4330708661417323
        },
        {
          "duration": 0.10921299999998269,
          "durationTicks": 156,
          "midi": 89,
          "name": "F6",
          "ticks": 234000,
          "time": 172.67678012500002,
          "velocity": 0.4330708661417323
        },
        {
          "duration": 0.08120966666666618,
          "durationTicks": 116,
          "midi": 77,
          "name": "F5",
          "ticks": 263520,
          "time": 193.34324012500002,
          "velocity": 0.25984251968503935
        },
        {
          "duration": 0.16521966666667254,
          "durationTicks": 236,
          "midi": 80,
          "name": "G#5",
          "ticks": 264000,
          "time": 193.67928012500002,
          "velocity": 0.25984251968503935
        },
        {
          "duration": 0.08120966666666618,
          "durationTicks": 116,
          "midi": 84,
          "name": "C6",
          "ticks": 264240,
          "time": 193.847300125,
          "velocity": 0.25984251968503935
        },
        {
          "duration": 0.16521966666664412,
          "durationTicks": 236,
          "midi": 89,
          "name": "F6",
          "ticks": 264720,
          "time": 194.18334012500003,
          "velocity": 0.25984251968503935
        },
        {
          "duration": 0.6692796666666538,
          "durationTicks": 956,
          "midi": 84,
          "name": "C6",
          "ticks": 264960,
          "time": 194.351360125,
          "velocity": 0.25984251968503935
        },
        {
          "duration": 0.16521966666667254,
          "durationTicks": 236,
          "midi": 82,
          "name": "A#5",
          "ticks": 265920,
          "time": 195.023440125,
          "velocity": 0.25984251968503935
        },
        {
          "duration": 0.16521966666667254,
          "durationTicks": 236,
          "midi": 79,
          "name": "G5",
          "ticks": 266160,
          "time": 195.19146012500002,
          "velocity": 0.25984251968503935
        },
        {
          "duration": 0.33323966666668525,
          "durationTicks": 476,
          "midi": 77,
          "name": "F5",
          "ticks": 266400,
          "time": 195.359480125,
          "velocity": 0.25984251968503935
        },
        {
          "duration": 0.08120966666666618,
          "durationTicks": 116,
          "midi": 67,
          "name": "G4",
          "ticks": 269280,
          "time": 197.37572012500002,
          "velocity": 0.25984251968503935
        },
        {
          "duration": 0.16521966666667254,
          "durationTicks": 236,
          "midi": 72,
          "name": "C5",
          "ticks": 269760,
          "time": 197.711760125,
          "velocity": 0.25984251968503935
        },
        {
          "duration": 0.08120966666666618,
          "durationTicks": 116,
          "midi": 75,
          "name": "D#5",
          "ticks": 270000,
          "time": 197.87978012500002,
          "velocity": 0.25984251968503935
        },
        {
          "duration": 0.16521966666667254,
          "durationTicks": 236,
          "midi": 79,
          "name": "G5",
          "ticks": 270480,
          "time": 198.21582012500002,
          "velocity": 0.25984251968503935
        },
        {
          "duration": 0.6692796666666823,
          "durationTicks": 956,
          "midi": 84,
          "name": "C6",
          "ticks": 270720,
          "time": 198.383840125,
          "velocity": 0.25984251968503935
        },
        {
          "duration": 0.16521966666667254,
          "durationTicks": 236,
          "midi": 81,
          "name": "A5",
          "ticks": 271680,
          "time": 199.055920125,
          "velocity": 0.25984251968503935
        },
        {
          "duration": 0.16521966666667254,
          "durationTicks": 236,
          "midi": 78,
          "name": "F#5",
          "ticks": 271920,
          "time": 199.223940125,
          "velocity": 0.25984251968503935
        },
        {
          "duration": 0.16521966666664412,
          "durationTicks": 236,
          "midi": 79,
          "name": "G5",
          "ticks": 272160,
          "time": 199.39196012500003,
          "velocity": 0.25984251968503935
        },
        {
          "duration": 0.10921299999998269,
          "durationTicks": 156,
          "midi": 83,
          "name": "B5",
          "ticks": 282240,
          "time": 206.44880012500002,
          "velocity": 0.2677165354330709
        },
        {
          "duration": 0.10921299999998269,
          "durationTicks": 156,
          "midi": 83,
          "name": "B5",
          "ticks": 282960,
          "time": 206.95286012500003,
          "velocity": 0.2677165354330709
        },
        {
          "duration": 0.22370538333333911,
          "durationTicks": 236,
          "midi": 83,
          "name": "B5",
          "ticks": 283680,
          "time": 207.456920125,
          "velocity": 0.1968503937007874
        },
        {
          "duration": 2.11467000833332,
          "durationTicks": 956,
          "midi": 80,
          "name": "G#5",
          "ticks": 286560,
          "time": 210.095879125,
          "velocity": 0.4251968503937008
        },
        {
          "duration": 0.06874819999998749,
          "durationTicks": 96,
          "midi": 78,
          "name": "F#5",
          "ticks": 296640,
          "time": 220.530817125,
          "velocity": 0.2677165354330709
        },
        {
          "duration": 0.16900599166666552,
          "durationTicks": 236,
          "midi": 74,
          "name": "D5",
          "ticks": 296880,
          "time": 220.70268762499998,
          "velocity": 0.2125984251968504
        },
        {
          "duration": 0.11171582500000454,
          "durationTicks": 156,
          "midi": 75,
          "name": "D#5",
          "ticks": 297120,
          "time": 220.874558125,
          "velocity": 0.23622047244094488
        },
        {
          "duration": 0.06874820000001591,
          "durationTicks": 96,
          "midi": 80,
          "name": "G#5",
          "ticks": 297360,
          "time": 221.04642862499998,
          "velocity": 0.2677165354330709
        },
        {
          "duration": 0.16900599166666552,
          "durationTicks": 236,
          "midi": 76,
          "name": "E5",
          "ticks": 297600,
          "time": 221.218299125,
          "velocity": 0.29133858267716534
        },
        {
          "duration": 0.11171582499997612,
          "durationTicks": 156,
          "midi": 77,
          "name": "F5",
          "ticks": 297840,
          "time": 221.390169625,
          "velocity": 0.31496062992125984
        },
        {
          "duration": 0.4984244500000159,
          "durationTicks": 696,
          "midi": 82,
          "name": "A#5",
          "ticks": 298080,
          "time": 221.56204012499998,
          "velocity": 0.2677165354330709
        },
        {
          "duration": 0.14036090833332082,
          "durationTicks": 196,
          "midi": 87,
          "name": "D#6",
          "ticks": 298800,
          "time": 222.077651625,
          "velocity": 0.23622047244094488
        },
        {
          "duration": 0.5127469916666882,
          "durationTicks": 716,
          "midi": 82,
          "name": "A#5",
          "ticks": 300960,
          "time": 223.62448612499998,
          "velocity": 0.1889763779527559
        },
        {
          "duration": 1.0283584916666655,
          "durationTicks": 1436,
          "midi": 80,
          "name": "G#5",
          "ticks": 301680,
          "time": 224.14009762499998,
          "velocity": 0.1889763779527559
        },
        {
          "duration": 0.5127469916666598,
          "durationTicks": 716,
          "midi": 82,
          "name": "A#5",
          "ticks": 303120,
          "time": 225.171320625,
          "velocity": 0.1889763779527559
        },
        {
          "duration": 0.5127469916666598,
          "durationTicks": 716,
          "midi": 83,
          "name": "B5",
          "ticks": 303840,
          "time": 225.686932125,
          "velocity": 0.1889763779527559
        },
        {
          "duration": 1.0283584916666655,
          "durationTicks": 1436,
          "midi": 82,
          "name": "A#5",
          "ticks": 304560,
          "time": 226.20254362499998,
          "velocity": 0.1889763779527559
        },
        {
          "duration": 0.5127469916666598,
          "durationTicks": 716,
          "midi": 84,
          "name": "C6",
          "ticks": 306000,
          "time": 227.233766625,
          "velocity": 0.1968503937007874
        },
        {
          "duration": 0.5127469916666598,
          "durationTicks": 716,
          "midi": 85,
          "name": "C#6",
          "ticks": 306720,
          "time": 227.749378125,
          "velocity": 0.2047244094488189
        },
        {
          "duration": 1.0283584916666655,
          "durationTicks": 1436,
          "midi": 84,
          "name": "C6",
          "ticks": 307440,
          "time": 228.264989625,
          "velocity": 0.15748031496062992
        },
        {
          "duration": 0.08307074166665984,
          "durationTicks": 116,
          "midi": 81,
          "name": "A5",
          "ticks": 333360,
          "time": 247.264470625,
          "velocity": 0.2677165354330709
        },
        {
          "duration": 0.08307074166665984,
          "durationTicks": 116,
          "midi": 81,
          "name": "A5",
          "ticks": 333600,
          "time": 247.43634112499998,
          "velocity": 0.2677165354330709
        },
        {
          "duration": 0.08307074166665984,
          "durationTicks": 116,
          "midi": 81,
          "name": "A5",
          "ticks": 333840,
          "time": 247.608211625,
          "velocity": 0.2677165354330709
        },
        {
          "duration": 0.3408764916666769,
          "durationTicks": 476,
          "midi": 82,
          "name": "A#5",
          "ticks": 334080,
          "time": 247.78008212499998,
          "velocity": 0.25984251968503935
        },
        {
          "duration": 0.16900599166666552,
          "durationTicks": 236,
          "midi": 84,
          "name": "C6",
          "ticks": 334560,
          "time": 248.123823125,
          "velocity": 0.28346456692913385
        },
        {
          "duration": 0.3408764916666769,
          "durationTicks": 476,
          "midi": 86,
          "name": "D6",
          "ticks": 334800,
          "time": 248.29569362499998,
          "velocity": 0.2992125984251969
        },
        {
          "duration": 0.16900599166666552,
          "durationTicks": 236,
          "midi": 88,
          "name": "E6",
          "ticks": 335280,
          "time": 248.63943462499998,
          "velocity": 0.33070866141732286
        },
        {
          "duration": 0.2549412416666712,
          "durationTicks": 356,
          "midi": 89,
          "name": "F6",
          "ticks": 335520,
          "time": 248.811305125,
          "velocity": 0.3464566929133858
        },
        {
          "duration": 0.04010311666667121,
          "durationTicks": 56,
          "midi": 89,
          "name": "F6",
          "ticks": 338640,
          "time": 251.045621625,
          "velocity": 0.3464566929133858
        },
        {
          "duration": 0.04010311666667121,
          "durationTicks": 56,
          "midi": 89,
          "name": "F6",
          "ticks": 338880,
          "time": 251.21749212499998,
          "velocity": 0.3464566929133858
        },
        {
          "duration": 0.16900599166666552,
          "durationTicks": 236,
          "midi": 89,
          "name": "F6",
          "ticks": 339120,
          "time": 251.389362625,
          "velocity": 0.2677165354330709
        },
        {
          "duration": 0.04010311666667121,
          "durationTicks": 56,
          "midi": 87,
          "name": "D#6",
          "ticks": 342240,
          "time": 253.623679125,
          "velocity": 0.3464566929133858
        },
        {
          "duration": 0.04010311666667121,
          "durationTicks": 56,
          "midi": 87,
          "name": "D#6",
          "ticks": 342480,
          "time": 253.79554962499998,
          "velocity": 0.3464566929133858
        },
        {
          "duration": 0.16900599166666552,
          "durationTicks": 236,
          "midi": 87,
          "name": "D#6",
          "ticks": 342720,
          "time": 253.967420125,
          "velocity": 0.2677165354330709
        },
        {
          "duration": 0.04010311666667121,
          "durationTicks": 56,
          "midi": 89,
          "name": "F6",
          "ticks": 345120,
          "time": 255.686125125,
          "velocity": 0.3464566929133858
        },
        {
          "duration": 0.04010311666667121,
          "durationTicks": 56,
          "midi": 89,
          "name": "F6",
          "ticks": 345360,
          "time": 255.857995625,
          "velocity": 0.3464566929133858
        },
        {
          "duration": 0.16900599166666552,
          "durationTicks": 236,
          "midi": 89,
          "name": "F6",
          "ticks": 345600,
          "time": 256.029866125,
          "velocity": 0.2677165354330709
        },
        {
          "duration": 0.05442565833334356,
          "durationTicks": 76,
          "midi": 80,
          "name": "G#5",
          "ticks": 348720,
          "time": 258.264182625,
          "velocity": 0.2440944881889764
        },
        {
          "duration": 0.05442565833334356,
          "durationTicks": 76,
          "midi": 80,
          "name": "G#5",
          "ticks": 348960,
          "time": 258.436053125,
          "velocity": 0.25196850393700787
        },
        {
          "duration": 0.05442565833328672,
          "durationTicks": 76,
          "midi": 80,
          "name": "G#5",
          "ticks": 349200,
          "time": 258.607923625,
          "velocity": 0.25984251968503935
        },
        {
          "duration": 0.05442565833334356,
          "durationTicks": 76,
          "midi": 80,
          "name": "G#5",
          "ticks": 349440,
          "time": 258.77979412499997,
          "velocity": 0.2755905511811024
        },
        {
          "duration": 0.05442565833334356,
          "durationTicks": 76,
          "midi": 80,
          "name": "G#5",
          "ticks": 349680,
          "time": 258.951664625,
          "velocity": 0.29133858267716534
        },
        {
          "duration": 0.22629615833335492,
          "durationTicks": 316,
          "midi": 79,
          "name": "G5",
          "ticks": 349920,
          "time": 259.123535125,
          "velocity": 0.29133858267716534
        },
        {
          "duration": 0.05442565833328672,
          "durationTicks": 76,
          "midi": 80,
          "name": "G#5",
          "ticks": 351600,
          "time": 260.326628625,
          "velocity": 0.2755905511811024
        },
        {
          "duration": 0.05442565833334356,
          "durationTicks": 76,
          "midi": 80,
          "name": "G#5",
          "ticks": 351840,
          "time": 260.49849912499997,
          "velocity": 0.29133858267716534
        },
        {
          "duration": 0.05442565833334356,
          "durationTicks": 76,
          "midi": 80,
          "name": "G#5",
          "ticks": 352080,
          "time": 260.670369625,
          "velocity": 0.31496062992125984
        },
        {
          "duration": 0.05442565833334356,
          "durationTicks": 76,
          "midi": 80,
          "name": "G#5",
          "ticks": 352320,
          "time": 260.842240125,
          "velocity": 0.33858267716535434
        },
        {
          "duration": 0.05442565833334356,
          "durationTicks": 76,
          "midi": 80,
          "name": "G#5",
          "ticks": 352560,
          "time": 261.014110625,
          "velocity": 0.36220472440944884
        },
        {
          "duration": 0.22629615833329808,
          "durationTicks": 316,
          "midi": 79,
          "name": "G5",
          "ticks": 352800,
          "time": 261.185981125,
          "velocity": 0.3464566929133858
        },
        {
          "duration": 0.05442565833334356,
          "durationTicks": 76,
          "midi": 78,
          "name": "F#5",
          "ticks": 354480,
          "time": 262.389074625,
          "velocity": 0.30708661417322836
        },
        {
          "duration": 0.05442565833334356,
          "durationTicks": 76,
          "midi": 78,
          "name": "F#5",
          "ticks": 354720,
          "time": 262.560945125,
          "velocity": 0.31496062992125984
        },
        {
          "duration": 0.05442565833334356,
          "durationTicks": 76,
          "midi": 78,
          "name": "F#5",
          "ticks": 354960,
          "time": 262.732815625,
          "velocity": 0.33858267716535434
        },
        {
          "duration": 0.05442565833328672,
          "durationTicks": 76,
          "midi": 78,
          "name": "F#5",
          "ticks": 355200,
          "time": 262.904686125,
          "velocity": 0.3543307086614173
        },
        {
          "duration": 0.05442565833334356,
          "durationTicks": 76,
          "midi": 78,
          "name": "F#5",
          "ticks": 355440,
          "time": 263.07655662499997,
          "velocity": 0.3700787401574803
        },
        {
          "duration": 0.22629615833335492,
          "durationTicks": 316,
          "midi": 77,
          "name": "F5",
          "ticks": 355680,
          "time": 263.248427125,
          "velocity": 0.3464566929133858
        },
        {
          "duration": 1.0283584916666655,
          "durationTicks": 1436,
          "midi": 77,
          "name": "F5",
          "ticks": 364320,
          "time": 269.435765125,
          "velocity": 0.2677165354330709
        },
        {
          "duration": 1.0283584916666655,
          "durationTicks": 1436,
          "midi": 76,
          "name": "E5",
          "ticks": 365760,
          "time": 270.466988125,
          "velocity": 0.23622047244094488
        },
        {
          "duration": 0.14036090833332082,
          "durationTicks": 196,
          "midi": 77,
          "name": "F5",
          "ticks": 367200,
          "time": 271.498211125,
          "velocity": 0.3464566929133858
        },
        {
          "duration": 0.16900599166666552,
          "durationTicks": 236,
          "midi": 81,
          "name": "A5",
          "ticks": 367680,
          "time": 271.841952125,
          "velocity": 0.3700787401574803
        },
        {
          "duration": 0.11171582500003296,
          "durationTicks": 156,
          "midi": 84,
          "name": "C6",
          "ticks": 367920,
          "time": 272.013822625,
          "velocity": 0.3858267716535433
        },
        {
          "duration": 0.16900599166666552,
          "durationTicks": 236,
          "midi": 88,
          "name": "E6",
          "ticks": 368400,
          "time": 272.357563625,
          "velocity": 0.41732283464566927
        },
        {
          "duration": 0.11171582500003296,
          "durationTicks": 156,
          "midi": 89,
          "name": "F6",
          "ticks": 368640,
          "time": 272.52943412499997,
          "velocity": 0.4330708661417323
        },
        {
          "duration": 0.16900599166666552,
          "durationTicks": 236,
          "midi": 90,
          "name": "F#6",
          "ticks": 369120,
          "time": 272.873175125,
          "velocity": 0.30708661417322836
        },
        {
          "duration": 0.08307074166663142,
          "durationTicks": 116,
          "midi": 91,
          "name": "G6",
          "ticks": 369360,
          "time": 273.045045625,
          "velocity": 0.2992125984251969
        },
        {
          "duration": 0.16900599166672237,
          "durationTicks": 236,
          "midi": 89,
          "name": "F6",
          "ticks": 369840,
          "time": 273.38878662499997,
          "velocity": 0.28346456692913385
        },
        {
          "duration": 0.08307074166668826,
          "durationTicks": 116,
          "midi": 87,
          "name": "D#6",
          "ticks": 370080,
          "time": 273.560657125,
          "velocity": 0.2677165354330709
        },
        {
          "duration": 0.16900599166666552,
          "durationTicks": 236,
          "midi": 86,
          "name": "D6",
          "ticks": 370560,
          "time": 273.904398125,
          "velocity": 0.2440944881889764
        },
        {
          "duration": 0.08307074166663142,
          "durationTicks": 116,
          "midi": 84,
          "name": "C6",
          "ticks": 370800,
          "time": 274.076268625,
          "velocity": 0.2283464566929134
        },
        {
          "duration": 0.09166426666666894,
          "durationTicks": 128,
          "midi": 77,
          "name": "F5",
          "ticks": 377280,
          "time": 278.716772125,
          "velocity": 0.1968503937007874
        },
        {
          "duration": 0.09166426666666894,
          "durationTicks": 128,
          "midi": 79,
          "name": "G5",
          "ticks": 377400,
          "time": 278.802707375,
          "velocity": 0.1968503937007874
        },
        {
          "duration": 0.09166426666666894,
          "durationTicks": 128,
          "midi": 81,
          "name": "A5",
          "ticks": 377520,
          "time": 278.888642625,
          "velocity": 0.2047244094488189
        },
        {
          "duration": 0.0916642666666121,
          "durationTicks": 128,
          "midi": 82,
          "name": "A#5",
          "ticks": 377640,
          "time": 278.974577875,
          "velocity": 0.2204724409448819
        },
        {
          "duration": 0.09166426666666894,
          "durationTicks": 128,
          "midi": 84,
          "name": "C6",
          "ticks": 377760,
          "time": 279.060513125,
          "velocity": 0.2283464566929134
        },
        {
          "duration": 0.09166426666666894,
          "durationTicks": 128,
          "midi": 86,
          "name": "D6",
          "ticks": 377880,
          "time": 279.146448375,
          "velocity": 0.2440944881889764
        },
        {
          "duration": 0.09166426666666894,
          "durationTicks": 128,
          "midi": 87,
          "name": "D#6",
          "ticks": 378000,
          "time": 279.232383625,
          "velocity": 0.25984251968503935
        },
        {
          "duration": 0.09166426666666894,
          "durationTicks": 128,
          "midi": 86,
          "name": "D6",
          "ticks": 378120,
          "time": 279.318318875,
          "velocity": 0.2755905511811024
        },
        {
          "duration": 0.09166426666666894,
          "durationTicks": 128,
          "midi": 87,
          "name": "D#6",
          "ticks": 378240,
          "time": 279.40425412499997,
          "velocity": 0.29133858267716534
        },
        {
          "duration": 0.09166426666666894,
          "durationTicks": 128,
          "midi": 86,
          "name": "D6",
          "ticks": 378360,
          "time": 279.490189375,
          "velocity": 0.30708661417322836
        },
        {
          "duration": 0.09166426666666894,
          "durationTicks": 128,
          "midi": 87,
          "name": "D#6",
          "ticks": 378480,
          "time": 279.576124625,
          "velocity": 0.3228346456692913
        },
        {
          "duration": 0.09166426666666894,
          "durationTicks": 128,
          "midi": 86,
          "name": "D6",
          "ticks": 378600,
          "time": 279.662059875,
          "velocity": 0.33858267716535434
        },
        {
          "duration": 0.08307074166668826,
          "durationTicks": 116,
          "midi": 87,
          "name": "D#6",
          "ticks": 378720,
          "time": 279.747995125,
          "velocity": 0.2677165354330709
        },
        {
          "duration": 0.1747350083333572,
          "durationTicks": 244,
          "midi": 83,
          "name": "B5",
          "ticks": 378960,
          "time": 279.919865625,
          "velocity": 0.2677165354330709
        },
        {
          "duration": 0.17473500833330036,
          "durationTicks": 244,
          "midi": 84,
          "name": "C6",
          "ticks": 379200,
          "time": 280.091736125,
          "velocity": 0.28346456692913385
        },
        {
          "duration": 0.1747350083333572,
          "durationTicks": 244,
          "midi": 86,
          "name": "D6",
          "ticks": 379440,
          "time": 280.26360662499997,
          "velocity": 0.30708661417322836
        },
        {
          "duration": 0.1747350083333572,
          "durationTicks": 244,
          "midi": 87,
          "name": "D#6",
          "ticks": 379680,
          "time": 280.435477125,
          "velocity": 0.33070866141732286
        },
        {
          "duration": 0.1747350083333572,
          "durationTicks": 244,
          "midi": 88,
          "name": "E6",
          "ticks": 379920,
          "time": 280.607347625,
          "velocity": 0.2755905511811024
        },
        {
          "duration": 2.059581491666677,
          "durationTicks": 2876,
          "midi": 89,
          "name": "F6",
          "ticks": 380160,
          "time": 280.779218125,
          "velocity": 0.2283464566929134
        },
        {
          "duration": 2.059581491666677,
          "durationTicks": 2876,
          "midi": 89,
          "name": "F6",
          "ticks": 385920,
          "time": 284.904110125,
          "velocity": 0.2283464566929134
        },
        {
          "duration": 0.16900599166672237,
          "durationTicks": 236,
          "midi": 82,
          "name": "A#5",
          "ticks": 398640,
          "time": 294.01324662499997,
          "velocity": 0.33858267716535434
        },
        {
          "duration": 0.08307074166668826,
          "durationTicks": 116,
          "midi": 81,
          "name": "A5",
          "ticks": 398880,
          "time": 294.185117125,
          "velocity": 0.25984251968503935
        },
        {
          "duration": 0.16900599166666552,
          "durationTicks": 236,
          "midi": 82,
          "name": "A#5",
          "ticks": 399360,
          "time": 294.528858125,
          "velocity": 0.33858267716535434
        },
        {
          "duration": 0.08307074166663142,
          "durationTicks": 116,
          "midi": 81,
          "name": "A5",
          "ticks": 399600,
          "time": 294.700728625,
          "velocity": 0.25984251968503935
        },
        {
          "duration": 0.08307074166668826,
          "durationTicks": 116,
          "midi": 82,
          "name": "A#5",
          "ticks": 400080,
          "time": 295.044469625,
          "velocity": 0.30708661417322836
        },
        {
          "duration": 0.08307074166668826,
          "durationTicks": 116,
          "midi": 89,
          "name": "F6",
          "ticks": 400320,
          "time": 295.216340125,
          "velocity": 0.3464566929133858
        },
        {
          "duration": 0.08307074166663142,
          "durationTicks": 116,
          "midi": 88,
          "name": "E6",
          "ticks": 400440,
          "time": 295.302275375,
          "velocity": 0.33858267716535434
        },
        {
          "duration": 0.08307074166668826,
          "durationTicks": 116,
          "midi": 89,
          "name": "F6",
          "ticks": 400560,
          "time": 295.388210625,
          "velocity": 0.3228346456692913
        },
        {
          "duration": 0.08307074166668826,
          "durationTicks": 116,
          "midi": 88,
          "name": "E6",
          "ticks": 400680,
          "time": 295.474145875,
          "velocity": 0.31496062992125984
        },
        {
          "duration": 0.08307074166663142,
          "durationTicks": 116,
          "midi": 89,
          "name": "F6",
          "ticks": 400800,
          "time": 295.560081125,
          "velocity": 0.2992125984251969
        },
        {
          "duration": 0.08307074166668826,
          "durationTicks": 116,
          "midi": 88,
          "name": "E6",
          "ticks": 400920,
          "time": 295.646016375,
          "velocity": 0.3464566929133858
        },
        {
          "duration": 0.3408764916666769,
          "durationTicks": 476,
          "midi": 87,
          "name": "D#6",
          "ticks": 401040,
          "time": 295.73195162499997,
          "velocity": 0.2992125984251969
        },
        {
          "duration": 0.16900599166666552,
          "durationTicks": 236,
          "midi": 86,
          "name": "D6",
          "ticks": 401520,
          "time": 296.075692625,
          "velocity": 0.3464566929133858
        },
        {
          "duration": 0.0601546749999784,
          "durationTicks": 84,
          "midi": 86,
          "name": "D6",
          "ticks": 401760,
          "time": 296.247563125,
          "velocity": 0.3464566929133858
        },
        {
          "duration": 0.0601546749999784,
          "durationTicks": 84,
          "midi": 84,
          "name": "C6",
          "ticks": 401852,
          "time": 296.31344681666667,
          "velocity": 0.33070866141732286
        },
        {
          "duration": 0.0601546749999784,
          "durationTicks": 84,
          "midi": 83,
          "name": "B5",
          "ticks": 401940,
          "time": 296.376466,
          "velocity": 0.31496062992125984
        },
        {
          "duration": 0.0601546749999784,
          "durationTicks": 84,
          "midi": 84,
          "name": "C6",
          "ticks": 402032,
          "time": 296.44234969166666,
          "velocity": 0.2992125984251969
        },
        {
          "duration": 0.08307074166668826,
          "durationTicks": 116,
          "midi": 86,
          "name": "D6",
          "ticks": 402120,
          "time": 296.505368875,
          "velocity": 0.28346456692913385
        },
        {
          "duration": 0.14036090833337767,
          "durationTicks": 196,
          "midi": 87,
          "name": "D#6",
          "ticks": 402240,
          "time": 296.59130412499997,
          "velocity": 0.25984251968503935
        },
        {
          "duration": 0.06015467500003524,
          "durationTicks": 84,
          "midi": 79,
          "name": "G5",
          "ticks": 402480,
          "time": 296.763174625,
          "velocity": 0.3464566929133858
        },
        {
          "duration": 0.06015467500003524,
          "durationTicks": 84,
          "midi": 77,
          "name": "F5",
          "ticks": 402572,
          "time": 296.82905831666665,
          "velocity": 0.33070866141732286
        },
        {
          "duration": 0.06015467500003524,
          "durationTicks": 84,
          "midi": 76,
          "name": "E5",
          "ticks": 402660,
          "time": 296.89207749999997,
          "velocity": 0.31496062992125984
        },
        {
          "duration": 0.06015467500003524,
          "durationTicks": 84,
          "midi": 77,
          "name": "F5",
          "ticks": 402752,
          "time": 296.95796119166664,
          "velocity": 0.2992125984251969
        },
        {
          "duration": 0.08307074166663142,
          "durationTicks": 116,
          "midi": 79,
          "name": "G5",
          "ticks": 402840,
          "time": 297.020980375,
          "velocity": 0.28346456692913385
        },
        {
          "duration": 0.16900599166666552,
          "durationTicks": 236,
          "midi": 81,
          "name": "A5",
          "ticks": 402960,
          "time": 297.106915625,
          "velocity": 0.25984251968503935
        },
        {
          "duration": 0.2835863249999875,
          "durationTicks": 396,
          "midi": 82,
          "name": "A#5",
          "ticks": 403200,
          "time": 297.278786125,
          "velocity": 0.2677165354330709
        },
        {
          "duration": 3.5479501749999827,
          "durationTicks": 4796,
          "midi": 84,
          "name": "C6",
          "ticks": 411840,
          "time": 303.46612412499996,
          "velocity": 0.4330708661417323
        },
        {
          "duration": 0.18578921666664883,
          "durationTicks": 196,
          "midi": 86,
          "name": "D6",
          "ticks": 416640,
          "time": 307.01761312499997,
          "velocity": 0.4330708661417323
        },
        {
          "duration": 0.20008169999999836,
          "durationTicks": 196,
          "midi": 87,
          "name": "D#6",
          "ticks": 416880,
          "time": 307.245110125,
          "velocity": 0.5118110236220472
        },
        {
          "duration": 0.21675680833334354,
          "durationTicks": 196,
          "midi": 86,
          "name": "D6",
          "ticks": 417120,
          "time": 307.490108125,
          "velocity": 0.4566929133858268
        },
        {
          "duration": 0.2601124166666864,
          "durationTicks": 196,
          "midi": 84,
          "name": "C6",
          "ticks": 417360,
          "time": 307.755524625,
          "velocity": 0.4566929133858268
        },
        {
          "duration": 0.902472199999977,
          "durationTicks": 476,
          "midi": 86,
          "name": "D6",
          "ticks": 417600,
          "time": 308.07402962500004,
          "velocity": 0.4645669291338583
        },
        {
          "duration": 0.9972212249999757,
          "durationTicks": 1436,
          "midi": 82,
          "name": "A#5",
          "ticks": 514080,
          "time": 383.6990776250001,
          "velocity": 0.5118110236220472
        },
        {
          "duration": 0.4972217249999744,
          "durationTicks": 716,
          "midi": 82,
          "name": "A#5",
          "ticks": 515520,
          "time": 384.6990766250001,
          "velocity": 0.4330708661417323
        },
        {
          "duration": 0.13611097500000824,
          "durationTicks": 196,
          "midi": 79,
          "name": "G5",
          "ticks": 516240,
          "time": 385.19907612500003,
          "velocity": 0.4330708661417323
        },
        {
          "duration": 1.997220225000035,
          "durationTicks": 2876,
          "midi": 82,
          "name": "A#5",
          "ticks": 522720,
          "time": 389.69907162500004,
          "velocity": 0.4251968503937008
        },
        {
          "duration": 0.08055547500003968,
          "durationTicks": 116,
          "midi": 83,
          "name": "B5",
          "ticks": 525600,
          "time": 391.69906962500005,
          "velocity": 0.2755905511811024
        },
        {
          "duration": 0.08055547499998283,
          "durationTicks": 116,
          "midi": 83,
          "name": "B5",
          "ticks": 526080,
          "time": 392.0324026250001,
          "velocity": 0.2755905511811024
        },
        {
          "duration": 0.08055547499998283,
          "durationTicks": 116,
          "midi": 83,
          "name": "B5",
          "ticks": 526320,
          "time": 392.19906912500005,
          "velocity": 0.2755905511811024
        },
        {
          "duration": 0.08055547499998283,
          "durationTicks": 116,
          "midi": 83,
          "name": "B5",
          "ticks": 526800,
          "time": 392.5324021250001,
          "velocity": 0.2677165354330709
        },
        {
          "duration": 0.6638882249999938,
          "durationTicks": 956,
          "midi": 84,
          "name": "C6",
          "ticks": 527040,
          "time": 392.69906862500005,
          "velocity": 0.2677165354330709
        },
        {
          "duration": 0.16388872499999252,
          "durationTicks": 236,
          "midi": 86,
          "name": "D6",
          "ticks": 528000,
          "time": 393.3657346250001,
          "velocity": 0.25984251968503935
        },
        {
          "duration": 0.16388872499999252,
          "durationTicks": 236,
          "midi": 87,
          "name": "D#6",
          "ticks": 528240,
          "time": 393.5324011250001,
          "velocity": 0.25984251968503935
        },
        {
          "duration": 0.08055547499998283,
          "durationTicks": 116,
          "midi": 82,
          "name": "A#5",
          "ticks": 528480,
          "time": 393.69906762500005,
          "velocity": 0.25984251968503935
        },
        {
          "duration": 0.16388872500004936,
          "durationTicks": 236,
          "midi": 82,
          "name": "A#5",
          "ticks": 528960,
          "time": 394.03240062500004,
          "velocity": 0.25196850393700787
        },
        {
          "duration": 0.08055547499998283,
          "durationTicks": 116,
          "midi": 81,
          "name": "A5",
          "ticks": 529200,
          "time": 394.19906712500006,
          "velocity": 0.25196850393700787
        },
        {
          "duration": 0.16388872499999252,
          "durationTicks": 236,
          "midi": 81,
          "name": "A5",
          "ticks": 529680,
          "time": 394.5324001250001,
          "velocity": 0.2440944881889764
        },
        {
          "duration": 0.9972212250000325,
          "durationTicks": 1436,
          "midi": 86,
          "name": "D6",
          "ticks": 529920,
          "time": 394.69906662500006,
          "velocity": 0.4566929133858268
        },
        {
          "duration": 0.08055547499998283,
          "durationTicks": 116,
          "midi": 86,
          "name": "D6",
          "ticks": 531600,
          "time": 395.8657321250001,
          "velocity": 0.4566929133858268
        },
        {
          "duration": 0.08055547500003968,
          "durationTicks": 116,
          "midi": 86,
          "name": "D6",
          "ticks": 531840,
          "time": 396.03239862500004,
          "velocity": 0.4566929133858268
        },
        {
          "duration": 0.08055547499998283,
          "durationTicks": 116,
          "midi": 86,
          "name": "D6",
          "ticks": 532080,
          "time": 396.19906512500006,
          "velocity": 0.4566929133858268
        },
        {
          "duration": 0.08055547499998283,
          "durationTicks": 116,
          "midi": 86,
          "name": "D6",
          "ticks": 532320,
          "time": 396.3657316250001,
          "velocity": 0.4566929133858268
        },
        {
          "duration": 0.08055547500003968,
          "durationTicks": 116,
          "midi": 86,
          "name": "D6",
          "ticks": 532560,
          "time": 396.53239812500004,
          "velocity": 0.4566929133858268
        },
        {
          "duration": 0.6638882249999938,
          "durationTicks": 956,
          "midi": 84,
          "name": "C6",
          "ticks": 532800,
          "time": 396.69906462500006,
          "velocity": 0.4566929133858268
        },
        {
          "duration": 0.08055547499998283,
          "durationTicks": 116,
          "midi": 86,
          "name": "D6",
          "ticks": 533760,
          "time": 397.3657306250001,
          "velocity": 0.4566929133858268
        },
        {
          "duration": 0.08055547500003968,
          "durationTicks": 116,
          "midi": 87,
          "name": "D#6",
          "ticks": 534000,
          "time": 397.53239712500005,
          "velocity": 0.4566929133858268
        },
        {
          "duration": 0.4972217249999744,
          "durationTicks": 716,
          "midi": 86,
          "name": "D6",
          "ticks": 534240,
          "time": 397.69906362500006,
          "velocity": 0.4566929133858268
        },
        {
          "duration": 0.49722172500003126,
          "durationTicks": 716,
          "midi": 84,
          "name": "C6",
          "ticks": 534960,
          "time": 398.19906312500007,
          "velocity": 0.4566929133858268
        },
        {
          "duration": 0.9972212249999757,
          "durationTicks": 1436,
          "midi": 86,
          "name": "D6",
          "ticks": 535680,
          "time": 398.69906262500007,
          "velocity": 0.4566929133858268
        },
        {
          "duration": 0.08055547500003968,
          "durationTicks": 116,
          "midi": 86,
          "name": "D6",
          "ticks": 537360,
          "time": 399.86572812500003,
          "velocity": 0.4566929133858268
        },
        {
          "duration": 0.08055547499998283,
          "durationTicks": 116,
          "midi": 86,
          "name": "D6",
          "ticks": 537600,
          "time": 400.03239462500005,
          "velocity": 0.4566929133858268
        },
        {
          "duration": 0.08055547499998283,
          "durationTicks": 116,
          "midi": 86,
          "name": "D6",
          "ticks": 537840,
          "time": 400.19906112500007,
          "velocity": 0.4566929133858268
        },
        {
          "duration": 0.08055547499998283,
          "durationTicks": 116,
          "midi": 86,
          "name": "D6",
          "ticks": 538080,
          "time": 400.3657276250001,
          "velocity": 0.4566929133858268
        },
        {
          "duration": 0.08055547500003968,
          "durationTicks": 116,
          "midi": 86,
          "name": "D6",
          "ticks": 538320,
          "time": 400.53239412500005,
          "velocity": 0.4566929133858268
        },
        {
          "duration": 0.6638882249999938,
          "durationTicks": 956,
          "midi": 91,
          "name": "G6",
          "ticks": 538560,
          "time": 400.6990606250001,
          "velocity": 0.5354330708661418
        },
        {
          "duration": 0.08055547499998283,
          "durationTicks": 116,
          "midi": 89,
          "name": "F6",
          "ticks": 539520,
          "time": 401.3657266250001,
          "velocity": 0.4566929133858268
        },
        {
          "duration": 0.08055547500003968,
          "durationTicks": 116,
          "midi": 87,
          "name": "D#6",
          "ticks": 539760,
          "time": 401.53239312500006,
          "velocity": 0.4566929133858268
        },
        {
          "duration": 0.4972217249999744,
          "durationTicks": 716,
          "midi": 86,
          "name": "D6",
          "ticks": 540000,
          "time": 401.6990596250001,
          "velocity": 0.4566929133858268
        },
        {
          "duration": 0.4972217249999744,
          "durationTicks": 716,
          "midi": 84,
          "name": "C6",
          "ticks": 540720,
          "time": 402.1990591250001,
          "velocity": 0.4566929133858268
        },
        {
          "duration": 0.16388872499999252,
          "durationTicks": 236,
          "midi": 82,
          "name": "A#5",
          "ticks": 541440,
          "time": 402.6990586250001,
          "velocity": 0.4566929133858268
        },
        {
          "duration": 0.4972217249999744,
          "durationTicks": 716,
          "midi": 84,
          "name": "C6",
          "ticks": 550800,
          "time": 409.1990521250001,
          "velocity": 0.25984251968503935
        },
        {
          "duration": 0.10833322500002396,
          "durationTicks": 156,
          "midi": 86,
          "name": "D6",
          "ticks": 551520,
          "time": 409.69905162500004,
          "velocity": 0.25984251968503935
        },
        {
          "duration": 0.49722172500003126,
          "durationTicks": 716,
          "midi": 84,
          "name": "C6",
          "ticks": 552240,
          "time": 410.19905112500004,
          "velocity": 0.25984251968503935
        },
        {
          "duration": 0.10833322500002396,
          "durationTicks": 156,
          "midi": 86,
          "name": "D6",
          "ticks": 552960,
          "time": 410.69905062500004,
          "velocity": 0.25984251968503935
        },
        {
          "duration": 0.33055522499995504,
          "durationTicks": 476,
          "midi": 89,
          "name": "F6",
          "ticks": 554160,
          "time": 411.5323831250001,
          "velocity": 0.2755905511811024
        },
        {
          "duration": 0.49722172500003126,
          "durationTicks": 716,
          "midi": 87,
          "name": "D#6",
          "ticks": 554640,
          "time": 411.86571612500006,
          "velocity": 0.25984251968503935
        },
        {
          "duration": 0.4972217249999744,
          "durationTicks": 716,
          "midi": 86,
          "name": "D6",
          "ticks": 555360,
          "time": 412.36571562500006,
          "velocity": 0.23622047244094488
        },
        {
          "duration": 0.49722172500003126,
          "durationTicks": 716,
          "midi": 84,
          "name": "C6",
          "ticks": 556080,
          "time": 412.86571512500007,
          "velocity": 0.2125984251968504
        },
        {
          "duration": 0.3305552250000119,
          "durationTicks": 476,
          "midi": 82,
          "name": "A#5",
          "ticks": 556800,
          "time": 413.36571462500007,
          "velocity": 0.1889763779527559
        },
        {
          "duration": 2.9972192249999807,
          "durationTicks": 4316,
          "midi": 86,
          "name": "D6",
          "ticks": 563040,
          "time": 417.69904362500006,
          "velocity": 0.25984251968503935
        },
        {
          "duration": 1.163887724999995,
          "durationTicks": 1676,
          "midi": 84,
          "name": "C6",
          "ticks": 567360,
          "time": 420.69904062500007,
          "velocity": 0.2047244094488189
        },
        {
          "duration": 0.21944422499996108,
          "durationTicks": 316,
          "midi": 82,
          "name": "A#5",
          "ticks": 568800,
          "time": 421.69903962500007,
          "velocity": 0.18110236220472442
        },
        {
          "duration": 0.1361109749999514,
          "durationTicks": 196,
          "midi": 70,
          "name": "A#4",
          "ticks": 580320,
          "time": 429.6990316250001,
          "velocity": 0.4251968503937008
        },
        {
          "duration": 0.16388872499999252,
          "durationTicks": 236,
          "midi": 74,
          "name": "D5",
          "ticks": 580800,
          "time": 430.03236462500007,
          "velocity": 0.3700787401574803
        },
        {
          "duration": 0.08055547500003968,
          "durationTicks": 116,
          "midi": 77,
          "name": "F5",
          "ticks": 581040,
          "time": 430.19903112500003,
          "velocity": 0.3858267716535433
        },
        {
          "duration": 0.16388872499999252,
          "durationTicks": 236,
          "midi": 82,
          "name": "A#5",
          "ticks": 581520,
          "time": 430.5323641250001,
          "velocity": 0.41732283464566927
        },
        {
          "duration": 0.6638882249999938,
          "durationTicks": 956,
          "midi": 86,
          "name": "D6",
          "ticks": 581760,
          "time": 430.6990306250001,
          "velocity": 0.4330708661417323
        },
        {
          "duration": 0.08055547499998283,
          "durationTicks": 116,
          "midi": 82,
          "name": "A#5",
          "ticks": 582720,
          "time": 431.36569662500006,
          "velocity": 0.5118110236220472
        },
        {
          "duration": 0.08055547499998283,
          "durationTicks": 116,
          "midi": 77,
          "name": "F5",
          "ticks": 582960,
          "time": 431.5323631250001,
          "velocity": 0.4645669291338583
        },
        {
          "duration": 0.6638882249999369,
          "durationTicks": 956,
          "midi": 89,
          "name": "F6",
          "ticks": 583200,
          "time": 431.6990296250001,
          "velocity": 0.5354330708661418
        },
        {
          "duration": 0.08055547499998283,
          "durationTicks": 116,
          "midi": 86,
          "name": "D6",
          "ticks": 584160,
          "time": 432.36569562500006,
          "velocity": 0.4330708661417323
        },
        {
          "duration": 0.08055547499998283,
          "durationTicks": 116,
          "midi": 82,
          "name": "A#5",
          "ticks": 584400,
          "time": 432.5323621250001,
          "velocity": 0.4330708661417323
        },
        {
          "duration": 0.08055547499998283,
          "durationTicks": 116,
          "midi": 86,
          "name": "D6",
          "ticks": 584640,
          "time": 432.6990286250001,
          "velocity": 0.5118110236220472
        },
        {
          "duration": 0.08055547500003968,
          "durationTicks": 116,
          "midi": 82,
          "name": "A#5",
          "ticks": 584880,
          "time": 432.86569512500006,
          "velocity": 0.4330708661417323
        },
        {
          "duration": 0.08055547499998283,
          "durationTicks": 116,
          "midi": 77,
          "name": "F5",
          "ticks": 585120,
          "time": 433.0323616250001,
          "velocity": 0.4330708661417323
        },
        {
          "duration": 0.08055547500003968,
          "durationTicks": 116,
          "midi": 82,
          "name": "A#5",
          "ticks": 585360,
          "time": 433.19902812500004,
          "velocity": 0.4330708661417323
        },
        {
          "duration": 0.08055547499998283,
          "durationTicks": 116,
          "midi": 89,
          "name": "F6",
          "ticks": 585600,
          "time": 433.36569462500006,
          "velocity": 0.5118110236220472
        },
        {
          "duration": 0.08055547499998283,
          "durationTicks": 116,
          "midi": 86,
          "name": "D6",
          "ticks": 585840,
          "time": 433.5323611250001,
          "velocity": 0.5118110236220472
        },
        {
          "duration": 0.13611097500000824,
          "durationTicks": 196,
          "midi": 82,
          "name": "A#5",
          "ticks": 586080,
          "time": 433.69902762500004,
          "velocity": 0.5118110236220472
        },
        {
          "duration": 0.16388872499999252,
          "durationTicks": 236,
          "midi": 86,
          "name": "D6",
          "ticks": 586800,
          "time": 434.19902712500004,
          "velocity": 0.4330708661417323
        },
        {
          "duration": 0.2472219750000022,
          "durationTicks": 356,
          "midi": 82,
          "name": "A#5",
          "ticks": 587520,
          "time": 434.69902662500004,
          "velocity": 0.4330708661417323
        }
      ]
    },
    {
      "channel": 0,
      "controlChanges": {
        "0": [
          {
            "number": 0,
            "ticks": 0,
            "time": 0,
            "value": 0
          }
        ],
        "32": [
          {
            "number": 32,
            "ticks": 0,
            "time": 0,
            "value": 0
          }
        ]
      },
      "pitchBends": [],
      "instrument": {
        "family": "piano",
        "number": 0,
        "name": "acoustic grand piano"
      },
      "name": "Oboes",
      "notes": [],
      "endOfTrackTicks": 588960
    },
    {
      "channel": 3,
      "controlChanges": {
        "7": [
          {
            "number": 7,
            "ticks": 0,
            "time": 0,
            "value": 1
          }
        ],
        "10": [
          {
            "number": 10,
            "ticks": 0,
            "time": 0,
            "value": 0.4251968503937008
          }
        ],
        "11": [
          {
            "number": 11,
            "ticks": 84,
            "time": 0.058807,
            "value": 1
          },
          {
            "number": 11,
            "ticks": 86396,
            "time": 60.48439966666667,
            "value": 0.5196850393700787
          },
          {
            "number": 11,
            "ticks": 86404,
            "time": 60.490000333333334,
            "value": 0.5275590551181102
          },
          {
            "number": 11,
            "ticks": 86432,
            "time": 60.509602666666666,
            "value": 0.5354330708661418
          },
          {
            "number": 11,
            "ticks": 86460,
            "time": 60.529205,
            "value": 0.5433070866141733
          },
          {
            "number": 11,
            "ticks": 86488,
            "time": 60.548807333333336,
            "value": 0.5511811023622047
          },
          {
            "number": 11,
            "ticks": 86516,
            "time": 60.56840966666667,
            "value": 0.5590551181102362
          },
          {
            "number": 11,
            "ticks": 86544,
            "time": 60.588012000000006,
            "value": 0.5669291338582677
          },
          {
            "number": 11,
            "ticks": 86572,
            "time": 60.60761433333333,
            "value": 0.5748031496062992
          },
          {
            "number": 11,
            "ticks": 86600,
            "time": 60.62721666666666,
            "value": 0.5826771653543307
          },
          {
            "number": 11,
            "ticks": 86628,
            "time": 60.646819,
            "value": 0.5905511811023622
          },
          {
            "number": 11,
            "ticks": 86656,
            "time": 60.66642133333333,
            "value": 0.5984251968503937
          },
          {
            "number": 11,
            "ticks": 86684,
            "time": 60.68602366666667,
            "value": 0.6062992125984252
          },
          {
            "number": 11,
            "ticks": 86712,
            "time": 60.705626,
            "value": 0.6141732283464567
          },
          {
            "number": 11,
            "ticks": 86740,
            "time": 60.72522833333334,
            "value": 0.6299212598425197
          },
          {
            "number": 11,
            "ticks": 86768,
            "time": 60.74483066666667,
            "value": 0.6456692913385826
          },
          {
            "number": 11,
            "ticks": 86796,
            "time": 60.764433,
            "value": 0.6614173228346457
          },
          {
            "number": 11,
            "ticks": 86824,
            "time": 60.78403533333333,
            "value": 0.6771653543307087
          },
          {
            "number": 11,
            "ticks": 86852,
            "time": 60.80363766666667,
            "value": 0.6929133858267716
          },
          {
            "number": 11,
            "ticks": 86880,
            "time": 60.82324,
            "value": 0.7086614173228346
          },
          {
            "number": 11,
            "ticks": 86908,
            "time": 60.84284233333334,
            "value": 0.7244094488188977
          },
          {
            "number": 11,
            "ticks": 86936,
            "time": 60.86244466666667,
            "value": 0.7401574803149606
          },
          {
            "number": 11,
            "ticks": 86964,
            "time": 60.88204700000001,
            "value": 0.7559055118110236
          },
          {
            "number": 11,
            "ticks": 86992,
            "time": 60.90164933333333,
            "value": 0.7716535433070866
          },
          {
            "number": 11,
            "ticks": 87020,
            "time": 60.92125166666666,
            "value": 0.7874015748031497
          },
          {
            "number": 11,
            "ticks": 87048,
            "time": 60.940854,
            "value": 0.8110236220472441
          },
          {
            "number": 11,
            "ticks": 87076,
            "time": 60.96045633333333,
            "value": 0.8346456692913385
          },
          {
            "number": 11,
            "ticks": 87104,
            "time": 60.98005866666667,
            "value": 0.8582677165354331
          },
          {
            "number": 11,
            "ticks": 87132,
            "time": 60.999661,
            "value": 0.8818897637795275
          },
          {
            "number": 11,
            "ticks": 87160,
            "time": 61.019263333333335,
            "value": 0.905511811023622
          },
          {
            "number": 11,
            "ticks": 87188,
            "time": 61.03886566666667,
            "value": 0.9291338582677166
          },
          {
            "number": 11,
            "ticks": 87216,
            "time": 61.058468,
            "value": 0.952755905511811
          },
          {
            "number": 11,
            "ticks": 87244,
            "time": 61.07807033333333,
            "value": 0.9763779527559056
          },
          {
            "number": 11,
            "ticks": 87272,
            "time": 61.09767266666667,
            "value": 1
          },
          {
            "number": 11,
            "ticks": 87356,
            "time": 61.15647966666667,
            "value": 1
          },
          {
            "number": 11,
            "ticks": 138236,
            "time": 96.77671966666666,
            "value": 1
          },
          {
            "number": 11,
            "ticks": 138236,
            "time": 96.77671966666666,
            "value": 0.5196850393700787
          },
          {
            "number": 11,
            "ticks": 138244,
            "time": 96.78232033333333,
            "value": 0.5275590551181102
          },
          {
            "number": 11,
            "ticks": 138332,
            "time": 96.84392766666667,
            "value": 0.5354330708661418
          },
          {
            "number": 11,
            "ticks": 138420,
            "time": 96.905535,
            "value": 0.5433070866141733
          },
          {
            "number": 11,
            "ticks": 138508,
            "time": 96.96714233333334,
            "value": 0.5511811023622047
          },
          {
            "number": 11,
            "ticks": 138596,
            "time": 97.02874966666667,
            "value": 0.5590551181102362
          },
          {
            "number": 11,
            "ticks": 138684,
            "time": 97.09035700000001,
            "value": 0.5669291338582677
          },
          {
            "number": 11,
            "ticks": 138772,
            "time": 97.15196433333334,
            "value": 0.5748031496062992
          },
          {
            "number": 11,
            "ticks": 138860,
            "time": 97.21357166666668,
            "value": 0.5826771653543307
          },
          {
            "number": 11,
            "ticks": 138948,
            "time": 97.27517900000001,
            "value": 0.5905511811023622
          },
          {
            "number": 11,
            "ticks": 139036,
            "time": 97.33678633333335,
            "value": 0.5984251968503937
          },
          {
            "number": 11,
            "ticks": 139124,
            "time": 97.39839366666666,
            "value": 0.6062992125984252
          },
          {
            "number": 11,
            "ticks": 139212,
            "time": 97.46000099999999,
            "value": 0.6141732283464567
          },
          {
            "number": 11,
            "ticks": 139300,
            "time": 97.52160833333333,
            "value": 0.6299212598425197
          },
          {
            "number": 11,
            "ticks": 139388,
            "time": 97.58321566666666,
            "value": 0.6456692913385826
          },
          {
            "number": 11,
            "ticks": 139476,
            "time": 97.644823,
            "value": 0.6614173228346457
          },
          {
            "number": 11,
            "ticks": 139564,
            "time": 97.70643033333333,
            "value": 0.6771653543307087
          },
          {
            "number": 11,
            "ticks": 139652,
            "time": 97.76803766666667,
            "value": 0.6929133858267716
          },
          {
            "number": 11,
            "ticks": 139676,
            "time": 97.78483966666667,
            "value": 1
          },
          {
            "number": 11,
            "ticks": 139676,
            "time": 97.78483966666667,
            "value": 1
          },
          {
            "number": 11,
            "ticks": 139740,
            "time": 97.829645,
            "value": 0.7086614173228346
          },
          {
            "number": 11,
            "ticks": 139828,
            "time": 97.89125233333334,
            "value": 0.7244094488188977
          },
          {
            "number": 11,
            "ticks": 139916,
            "time": 97.95285966666667,
            "value": 0.7401574803149606
          },
          {
            "number": 11,
            "ticks": 140004,
            "time": 98.01446700000001,
            "value": 0.7559055118110236
          },
          {
            "number": 11,
            "ticks": 140092,
            "time": 98.07607433333334,
            "value": 0.7716535433070866
          },
          {
            "number": 11,
            "ticks": 140180,
            "time": 98.13768166666668,
            "value": 0.7874015748031497
          },
          {
            "number": 11,
            "ticks": 140268,
            "time": 98.19928900000001,
            "value": 0.8110236220472441
          },
          {
            "number": 11,
            "ticks": 140356,
            "time": 98.26089633333335,
            "value": 0.8346456692913385
          },
          {
            "number": 11,
            "ticks": 140444,
            "time": 98.32250366666666,
            "value": 0.8582677165354331
          },
          {
            "number": 11,
            "ticks": 140532,
            "time": 98.38411099999999,
            "value": 0.8818897637795275
          },
          {
            "number": 11,
            "ticks": 140620,
            "time": 98.44571833333333,
            "value": 0.905511811023622
          },
          {
            "number": 11,
            "ticks": 140708,
            "time": 98.50732566666666,
            "value": 0.9291338582677166
          },
          {
            "number": 11,
            "ticks": 140796,
            "time": 98.568933,
            "value": 0.952755905511811
          },
          {
            "number": 11,
            "ticks": 140884,
            "time": 98.63054033333333,
            "value": 0.9763779527559056
          },
          {
            "number": 11,
            "ticks": 140972,
            "time": 98.69214766666667,
            "value": 1
          },
          {
            "number": 11,
            "ticks": 159836,
            "time": 111.89851966666667,
            "value": 0.5196850393700787
          },
          {
            "number": 11,
            "ticks": 159844,
            "time": 111.90412033333334,
            "value": 0.5275590551181102
          },
          {
            "number": 11,
            "ticks": 159888,
            "time": 111.93492400000001,
            "value": 0.5354330708661418
          },
          {
            "number": 11,
            "ticks": 159932,
            "time": 111.96572766666667,
            "value": 0.5433070866141733
          },
          {
            "number": 11,
            "ticks": 159976,
            "time": 111.99653133333334,
            "value": 0.5511811023622047
          },
          {
            "number": 11,
            "ticks": 160020,
            "time": 112.02733500000001,
            "value": 0.5590551181102362
          },
          {
            "number": 11,
            "ticks": 160064,
            "time": 112.05813866666666,
            "value": 0.5669291338582677
          },
          {
            "number": 11,
            "ticks": 160108,
            "time": 112.08894233333334,
            "value": 0.5748031496062992
          },
          {
            "number": 11,
            "ticks": 160152,
            "time": 112.11974599999999,
            "value": 0.5826771653543307
          },
          {
            "number": 11,
            "ticks": 160196,
            "time": 112.15054966666668,
            "value": 0.5905511811023622
          },
          {
            "number": 11,
            "ticks": 160240,
            "time": 112.18135333333333,
            "value": 0.5984251968503937
          },
          {
            "number": 11,
            "ticks": 160284,
            "time": 112.212157,
            "value": 0.6062992125984252
          },
          {
            "number": 11,
            "ticks": 160328,
            "time": 112.24296066666666,
            "value": 0.6141732283464567
          },
          {
            "number": 11,
            "ticks": 160372,
            "time": 112.27376433333335,
            "value": 0.6299212598425197
          },
          {
            "number": 11,
            "ticks": 160416,
            "time": 112.304568,
            "value": 0.6456692913385826
          },
          {
            "number": 11,
            "ticks": 160460,
            "time": 112.33537166666667,
            "value": 0.6614173228346457
          },
          {
            "number": 11,
            "ticks": 160504,
            "time": 112.36617533333333,
            "value": 0.6771653543307087
          },
          {
            "number": 11,
            "ticks": 160548,
            "time": 112.39697900000002,
            "value": 0.6929133858267716
          },
          {
            "number": 11,
            "ticks": 160592,
            "time": 112.42778266666667,
            "value": 0.7086614173228346
          },
          {
            "number": 11,
            "ticks": 160636,
            "time": 112.45858633333334,
            "value": 0.7244094488188977
          },
          {
            "number": 11,
            "ticks": 160680,
            "time": 112.48939,
            "value": 0.7401574803149606
          },
          {
            "number": 11,
            "ticks": 160724,
            "time": 112.52019366666666,
            "value": 0.7559055118110236
          },
          {
            "number": 11,
            "ticks": 160768,
            "time": 112.55099733333334,
            "value": 0.7716535433070866
          },
          {
            "number": 11,
            "ticks": 160812,
            "time": 112.581801,
            "value": 0.7874015748031497
          },
          {
            "number": 11,
            "ticks": 160856,
            "time": 112.61260466666667,
            "value": 0.8110236220472441
          },
          {
            "number": 11,
            "ticks": 160900,
            "time": 112.64340833333333,
            "value": 0.8346456692913385
          },
          {
            "number": 11,
            "ticks": 160944,
            "time": 112.67421200000001,
            "value": 0.8582677165354331
          },
          {
            "number": 11,
            "ticks": 160988,
            "time": 112.70501566666667,
            "value": 0.8818897637795275
          },
          {
            "number": 11,
            "ticks": 161032,
            "time": 112.73581933333334,
            "value": 0.905511811023622
          },
          {
            "number": 11,
            "ticks": 161076,
            "time": 112.766623,
            "value": 0.9291338582677166
          },
          {
            "number": 11,
            "ticks": 161120,
            "time": 112.79742666666668,
            "value": 0.952755905511811
          },
          {
            "number": 11,
            "ticks": 161164,
            "time": 112.82823033333334,
            "value": 0.9763779527559056
          },
          {
            "number": 11,
            "ticks": 161208,
            "time": 112.85903400000001,
            "value": 1
          },
          {
            "number": 11,
            "ticks": 276476,
            "time": 202.4135197916667,
            "value": 0.5196850393700787
          },
          {
            "number": 11,
            "ticks": 276484,
            "time": 202.41912045833334,
            "value": 0.5275590551181102
          },
          {
            "number": 11,
            "ticks": 276616,
            "time": 202.51153145833337,
            "value": 0.5354330708661418
          },
          {
            "number": 11,
            "ticks": 276748,
            "time": 202.60394245833334,
            "value": 0.5433070866141733
          },
          {
            "number": 11,
            "ticks": 276880,
            "time": 202.69635345833336,
            "value": 0.5511811023622047
          },
          {
            "number": 11,
            "ticks": 277012,
            "time": 202.78876445833333,
            "value": 0.5590551181102362
          },
          {
            "number": 11,
            "ticks": 277144,
            "time": 202.88117545833336,
            "value": 0.5669291338582677
          },
          {
            "number": 11,
            "ticks": 277276,
            "time": 202.97358645833336,
            "value": 0.5748031496062992
          },
          {
            "number": 11,
            "ticks": 277408,
            "time": 203.06599745833336,
            "value": 0.5826771653543307
          },
          {
            "number": 11,
            "ticks": 277540,
            "time": 203.15840845833335,
            "value": 0.5905511811023622
          },
          {
            "number": 11,
            "ticks": 277672,
            "time": 203.25081945833335,
            "value": 0.5984251968503937
          },
          {
            "number": 11,
            "ticks": 277804,
            "time": 203.34323045833335,
            "value": 0.6062992125984252
          },
          {
            "number": 11,
            "ticks": 277936,
            "time": 203.43564145833335,
            "value": 0.6141732283464567
          },
          {
            "number": 11,
            "ticks": 278068,
            "time": 203.52805245833335,
            "value": 0.6299212598425197
          },
          {
            "number": 11,
            "ticks": 278200,
            "time": 203.62046345833335,
            "value": 0.6456692913385826
          },
          {
            "number": 11,
            "ticks": 278332,
            "time": 203.71287445833335,
            "value": 0.6614173228346457
          },
          {
            "number": 11,
            "ticks": 278464,
            "time": 203.80528545833334,
            "value": 0.6771653543307087
          },
          {
            "number": 11,
            "ticks": 278596,
            "time": 203.89769645833334,
            "value": 0.6929133858267716
          },
          {
            "number": 11,
            "ticks": 278728,
            "time": 203.99010745833334,
            "value": 0.7086614173228346
          },
          {
            "number": 11,
            "ticks": 278860,
            "time": 204.08251845833337,
            "value": 0.7244094488188977
          },
          {
            "number": 11,
            "ticks": 278992,
            "time": 204.17492945833334,
            "value": 0.7401574803149606
          },
          {
            "number": 11,
            "ticks": 279124,
            "time": 204.26734045833334,
            "value": 0.7559055118110236
          },
          {
            "number": 11,
            "ticks": 279256,
            "time": 204.35975145833333,
            "value": 0.7716535433070866
          },
          {
            "number": 11,
            "ticks": 279388,
            "time": 204.45216245833336,
            "value": 0.7874015748031497
          },
          {
            "number": 11,
            "ticks": 279520,
            "time": 204.54457345833336,
            "value": 0.8110236220472441
          },
          {
            "number": 11,
            "ticks": 279652,
            "time": 204.63698445833336,
            "value": 0.8346456692913385
          },
          {
            "number": 11,
            "ticks": 279784,
            "time": 204.72939545833336,
            "value": 0.8582677165354331
          },
          {
            "number": 11,
            "ticks": 279916,
            "time": 204.82180645833336,
            "value": 0.8818897637795275
          },
          {
            "number": 11,
            "ticks": 280048,
            "time": 204.91421745833335,
            "value": 0.905511811023622
          },
          {
            "number": 11,
            "ticks": 280180,
            "time": 205.00662845833335,
            "value": 0.9291338582677166
          },
          {
            "number": 11,
            "ticks": 280312,
            "time": 205.09903945833335,
            "value": 0.952755905511811
          },
          {
            "number": 11,
            "ticks": 280444,
            "time": 205.19145045833335,
            "value": 0.9763779527559056
          },
          {
            "number": 11,
            "ticks": 280576,
            "time": 205.28386145833335,
            "value": 1
          },
          {
            "number": 11,
            "ticks": 364316,
            "time": 269.43290061666664,
            "value": 0.5196850393700787
          },
          {
            "number": 11,
            "ticks": 364324,
            "time": 269.43862963333333,
            "value": 0.5275590551181102
          },
          {
            "number": 11,
            "ticks": 364412,
            "time": 269.50164881666666,
            "value": 0.5354330708661418
          },
          {
            "number": 11,
            "ticks": 364500,
            "time": 269.564668,
            "value": 0.5433070866141733
          },
          {
            "number": 11,
            "ticks": 364588,
            "time": 269.6276871833333,
            "value": 0.5511811023622047
          },
          {
            "number": 11,
            "ticks": 364676,
            "time": 269.69070636666663,
            "value": 0.5590551181102362
          },
          {
            "number": 11,
            "ticks": 364764,
            "time": 269.75372555,
            "value": 0.5669291338582677
          },
          {
            "number": 11,
            "ticks": 364852,
            "time": 269.81674473333334,
            "value": 0.5748031496062992
          },
          {
            "number": 11,
            "ticks": 364940,
            "time": 269.87976391666666,
            "value": 0.5826771653543307
          },
          {
            "number": 11,
            "ticks": 365028,
            "time": 269.9427831,
            "value": 0.5905511811023622
          },
          {
            "number": 11,
            "ticks": 365116,
            "time": 270.0058022833333,
            "value": 0.5984251968503937
          },
          {
            "number": 11,
            "ticks": 365204,
            "time": 270.06882146666663,
            "value": 0.6062992125984252
          },
          {
            "number": 11,
            "ticks": 365292,
            "time": 270.13184065,
            "value": 0.6141732283464567
          },
          {
            "number": 11,
            "ticks": 365380,
            "time": 270.19485983333334,
            "value": 0.6299212598425197
          },
          {
            "number": 11,
            "ticks": 365468,
            "time": 270.25787901666666,
            "value": 0.6456692913385826
          },
          {
            "number": 11,
            "ticks": 365556,
            "time": 270.3208982,
            "value": 0.6614173228346457
          },
          {
            "number": 11,
            "ticks": 365644,
            "time": 270.3839173833333,
            "value": 0.6771653543307087
          },
          {
            "number": 11,
            "ticks": 365732,
            "time": 270.44693656666664,
            "value": 0.6929133858267716
          },
          {
            "number": 11,
            "ticks": 365756,
            "time": 270.46412361666665,
            "value": 1
          },
          {
            "number": 11,
            "ticks": 365756,
            "time": 270.46412361666665,
            "value": 1
          },
          {
            "number": 11,
            "ticks": 365820,
            "time": 270.50995575,
            "value": 0.7086614173228346
          },
          {
            "number": 11,
            "ticks": 365908,
            "time": 270.57297493333334,
            "value": 0.7244094488188977
          },
          {
            "number": 11,
            "ticks": 365996,
            "time": 270.63599411666667,
            "value": 0.7401574803149606
          },
          {
            "number": 11,
            "ticks": 366084,
            "time": 270.6990133,
            "value": 0.7559055118110236
          },
          {
            "number": 11,
            "ticks": 366172,
            "time": 270.7620324833333,
            "value": 0.7716535433070866
          },
          {
            "number": 11,
            "ticks": 366260,
            "time": 270.82505166666664,
            "value": 0.7874015748031497
          },
          {
            "number": 11,
            "ticks": 366348,
            "time": 270.88807084999996,
            "value": 0.8110236220472441
          },
          {
            "number": 11,
            "ticks": 366436,
            "time": 270.95109003333334,
            "value": 0.8346456692913385
          },
          {
            "number": 11,
            "ticks": 366524,
            "time": 271.01410921666667,
            "value": 0.8582677165354331
          },
          {
            "number": 11,
            "ticks": 366612,
            "time": 271.0771284,
            "value": 0.8818897637795275
          },
          {
            "number": 11,
            "ticks": 366700,
            "time": 271.1401475833333,
            "value": 0.905511811023622
          },
          {
            "number": 11,
            "ticks": 366788,
            "time": 271.20316676666664,
            "value": 0.9291338582677166
          },
          {
            "number": 11,
            "ticks": 366876,
            "time": 271.26618595,
            "value": 0.952755905511811
          },
          {
            "number": 11,
            "ticks": 366964,
            "time": 271.32920513333335,
            "value": 0.9763779527559056
          },
          {
            "number": 11,
            "ticks": 367052,
            "time": 271.39222431666667,
            "value": 1
          },
          {
            "number": 11,
            "ticks": 385916,
            "time": 284.90124561666664,
            "value": 0.5196850393700787
          },
          {
            "number": 11,
            "ticks": 385924,
            "time": 284.90697463333333,
            "value": 0.5275590551181102
          },
          {
            "number": 11,
            "ticks": 385968,
            "time": 284.93848422499997,
            "value": 0.5354330708661418
          },
          {
            "number": 11,
            "ticks": 386012,
            "time": 284.96999381666666,
            "value": 0.5433070866141733
          },
          {
            "number": 11,
            "ticks": 386056,
            "time": 285.00150340833335,
            "value": 0.5511811023622047
          },
          {
            "number": 11,
            "ticks": 386100,
            "time": 285.033013,
            "value": 0.5590551181102362
          },
          {
            "number": 11,
            "ticks": 386144,
            "time": 285.0645225916667,
            "value": 0.5669291338582677
          },
          {
            "number": 11,
            "ticks": 386188,
            "time": 285.0960321833333,
            "value": 0.5748031496062992
          },
          {
            "number": 11,
            "ticks": 386232,
            "time": 285.127541775,
            "value": 0.5826771653543307
          },
          {
            "number": 11,
            "ticks": 386276,
            "time": 285.15905136666663,
            "value": 0.5905511811023622
          },
          {
            "number": 11,
            "ticks": 386320,
            "time": 285.1905609583333,
            "value": 0.5984251968503937
          },
          {
            "number": 11,
            "ticks": 386364,
            "time": 285.22207055,
            "value": 0.6062992125984252
          },
          {
            "number": 11,
            "ticks": 386408,
            "time": 285.25358014166665,
            "value": 0.6141732283464567
          },
          {
            "number": 11,
            "ticks": 386452,
            "time": 285.28508973333334,
            "value": 0.6299212598425197
          },
          {
            "number": 11,
            "ticks": 386496,
            "time": 285.31659932499997,
            "value": 0.6456692913385826
          },
          {
            "number": 11,
            "ticks": 386540,
            "time": 285.34810891666666,
            "value": 0.6614173228346457
          },
          {
            "number": 11,
            "ticks": 386584,
            "time": 285.37961850833335,
            "value": 0.6771653543307087
          },
          {
            "number": 11,
            "ticks": 386628,
            "time": 285.4111281,
            "value": 0.6929133858267716
          },
          {
            "number": 11,
            "ticks": 386672,
            "time": 285.4426376916667,
            "value": 0.7086614173228346
          },
          {
            "number": 11,
            "ticks": 386716,
            "time": 285.4741472833333,
            "value": 0.7244094488188977
          },
          {
            "number": 11,
            "ticks": 386760,
            "time": 285.505656875,
            "value": 0.7401574803149606
          },
          {
            "number": 11,
            "ticks": 386804,
            "time": 285.5371664666667,
            "value": 0.7559055118110236
          },
          {
            "number": 11,
            "ticks": 386848,
            "time": 285.5686760583333,
            "value": 0.7716535433070866
          },
          {
            "number": 11,
            "ticks": 386892,
            "time": 285.60018565,
            "value": 0.7874015748031497
          },
          {
            "number": 11,
            "ticks": 386936,
            "time": 285.63169524166665,
            "value": 0.8110236220472441
          },
          {
            "number": 11,
            "ticks": 386980,
            "time": 285.66320483333334,
            "value": 0.8346456692913385
          },
          {
            "number": 11,
            "ticks": 387024,
            "time": 285.694714425,
            "value": 0.8582677165354331
          },
          {
            "number": 11,
            "ticks": 387068,
            "time": 285.72622401666666,
            "value": 0.8818897637795275
          },
          {
            "number": 11,
            "ticks": 387112,
            "time": 285.7577336083333,
            "value": 0.905511811023622
          },
          {
            "number": 11,
            "ticks": 387156,
            "time": 285.7892432,
            "value": 0.9291338582677166
          },
          {
            "number": 11,
            "ticks": 387200,
            "time": 285.8207527916667,
            "value": 0.952755905511811
          },
          {
            "number": 11,
            "ticks": 387244,
            "time": 285.8522623833333,
            "value": 0.9763779527559056
          },
          {
            "number": 11,
            "ticks": 387288,
            "time": 285.883771975,
            "value": 1
          }
        ],
        "91": [
          {
            "number": 91,
            "ticks": 88,
            "time": 0.06160733333333333,
            "value": 0.6220472440944882
          }
        ],
        "93": [
          {
            "number": 93,
            "ticks": 88,
            "time": 0.06160733333333333,
            "value": 0.07874015748031496
          }
        ],
        "121": [
          {
            "number": 121,
            "ticks": 80,
            "time": 0.05600666666666666,
            "value": 0
          }
        ]
      },
      "pitchBends": [
        {
          "ticks": 104,
          "time": 0.07280866666666667,
          "value": 0
        }
      ],
      "instrument": {
        "family": "reed",
        "number": 68,
        "name": "oboe"
      },
      "name": "",
      "notes": [
        {
          "duration": 0.08120966666666618,
          "durationTicks": 116,
          "midi": 70,
          "name": "A#4",
          "ticks": 12960,
          "time": 9.073080000000001,
          "velocity": 0.2992125984251969
        },
        {
          "duration": 0.08120966666666618,
          "durationTicks": 116,
          "midi": 74,
          "name": "D5",
          "ticks": 12960,
          "time": 9.073080000000001,
          "velocity": 0.2992125984251969
        },
        {
          "duration": 0.08120966666666796,
          "durationTicks": 116,
          "midi": 70,
          "name": "A#4",
          "ticks": 13200,
          "time": 9.2411,
          "velocity": 0.2992125984251969
        },
        {
          "duration": 0.08120966666666796,
          "durationTicks": 116,
          "midi": 74,
          "name": "D5",
          "ticks": 13200,
          "time": 9.2411,
          "velocity": 0.2992125984251969
        },
        {
          "duration": 0.08120966666666796,
          "durationTicks": 116,
          "midi": 70,
          "name": "A#4",
          "ticks": 13440,
          "time": 9.40912,
          "velocity": 0.2992125984251969
        },
        {
          "duration": 0.08120966666666796,
          "durationTicks": 116,
          "midi": 74,
          "name": "D5",
          "ticks": 13440,
          "time": 9.40912,
          "velocity": 0.2992125984251969
        },
        {
          "duration": 0.08120966666666618,
          "durationTicks": 116,
          "midi": 70,
          "name": "A#4",
          "ticks": 13680,
          "time": 9.57714,
          "velocity": 0.2992125984251969
        },
        {
          "duration": 0.08120966666666618,
          "durationTicks": 116,
          "midi": 74,
          "name": "D5",
          "ticks": 13680,
          "time": 9.57714,
          "velocity": 0.2992125984251969
        },
        {
          "duration": 0.08120966666666618,
          "durationTicks": 116,
          "midi": 70,
          "name": "A#4",
          "ticks": 13920,
          "time": 9.74516,
          "velocity": 0.2992125984251969
        },
        {
          "duration": 0.08120966666666618,
          "durationTicks": 116,
          "midi": 74,
          "name": "D5",
          "ticks": 13920,
          "time": 9.74516,
          "velocity": 0.2992125984251969
        },
        {
          "duration": 0.08120966666666618,
          "durationTicks": 116,
          "midi": 70,
          "name": "A#4",
          "ticks": 14160,
          "time": 9.91318,
          "velocity": 0.2992125984251969
        },
        {
          "duration": 0.08120966666666618,
          "durationTicks": 116,
          "midi": 74,
          "name": "D5",
          "ticks": 14160,
          "time": 9.91318,
          "velocity": 0.2992125984251969
        },
        {
          "duration": 0.08120966666666618,
          "durationTicks": 116,
          "midi": 70,
          "name": "A#4",
          "ticks": 14400,
          "time": 10.0812,
          "velocity": 0.2992125984251969
        },
        {
          "duration": 0.08120966666666618,
          "durationTicks": 116,
          "midi": 74,
          "name": "D5",
          "ticks": 14400,
          "time": 10.0812,
          "velocity": 0.2992125984251969
        },
        {
          "duration": 0.08120966666666796,
          "durationTicks": 116,
          "midi": 70,
          "name": "A#4",
          "ticks": 14640,
          "time": 10.24922,
          "velocity": 0.2992125984251969
        },
        {
          "duration": 0.08120966666666796,
          "durationTicks": 116,
          "midi": 74,
          "name": "D5",
          "ticks": 14640,
          "time": 10.24922,
          "velocity": 0.2992125984251969
        },
        {
          "duration": 0.08120966666666796,
          "durationTicks": 116,
          "midi": 70,
          "name": "A#4",
          "ticks": 14880,
          "time": 10.41724,
          "velocity": 0.2992125984251969
        },
        {
          "duration": 0.08120966666666796,
          "durationTicks": 116,
          "midi": 74,
          "name": "D5",
          "ticks": 14880,
          "time": 10.41724,
          "velocity": 0.2992125984251969
        },
        {
          "duration": 0.08120966666666796,
          "durationTicks": 116,
          "midi": 70,
          "name": "A#4",
          "ticks": 15120,
          "time": 10.58526,
          "velocity": 0.2992125984251969
        },
        {
          "duration": 0.08120966666666796,
          "durationTicks": 116,
          "midi": 74,
          "name": "D5",
          "ticks": 15120,
          "time": 10.58526,
          "velocity": 0.2992125984251969
        },
        {
          "duration": 0.08120966666666618,
          "durationTicks": 116,
          "midi": 70,
          "name": "A#4",
          "ticks": 15360,
          "time": 10.75328,
          "velocity": 0.2992125984251969
        },
        {
          "duration": 0.08120966666666618,
          "durationTicks": 116,
          "midi": 74,
          "name": "D5",
          "ticks": 15360,
          "time": 10.75328,
          "velocity": 0.2992125984251969
        },
        {
          "duration": 0.08120966666666618,
          "durationTicks": 116,
          "midi": 70,
          "name": "A#4",
          "ticks": 15600,
          "time": 10.9213,
          "velocity": 0.2992125984251969
        },
        {
          "duration": 0.08120966666666618,
          "durationTicks": 116,
          "midi": 74,
          "name": "D5",
          "ticks": 15600,
          "time": 10.9213,
          "velocity": 0.2992125984251969
        },
        {
          "duration": 0.08120966666666618,
          "durationTicks": 116,
          "midi": 72,
          "name": "C5",
          "ticks": 15840,
          "time": 11.08932,
          "velocity": 0.2992125984251969
        },
        {
          "duration": 0.08120966666666618,
          "durationTicks": 116,
          "midi": 75,
          "name": "D#5",
          "ticks": 15840,
          "time": 11.08932,
          "velocity": 0.2992125984251969
        },
        {
          "duration": 0.08120966666666618,
          "durationTicks": 116,
          "midi": 72,
          "name": "C5",
          "ticks": 16080,
          "time": 11.257340000000001,
          "velocity": 0.2992125984251969
        },
        {
          "duration": 0.08120966666666618,
          "durationTicks": 116,
          "midi": 75,
          "name": "D#5",
          "ticks": 16080,
          "time": 11.257340000000001,
          "velocity": 0.2992125984251969
        },
        {
          "duration": 0.08120966666666796,
          "durationTicks": 116,
          "midi": 72,
          "name": "C5",
          "ticks": 16320,
          "time": 11.42536,
          "velocity": 0.2992125984251969
        },
        {
          "duration": 0.08120966666666796,
          "durationTicks": 116,
          "midi": 75,
          "name": "D#5",
          "ticks": 16320,
          "time": 11.42536,
          "velocity": 0.2992125984251969
        },
        {
          "duration": 0.08120966666666796,
          "durationTicks": 116,
          "midi": 70,
          "name": "A#4",
          "ticks": 16560,
          "time": 11.59338,
          "velocity": 0.2992125984251969
        },
        {
          "duration": 0.08120966666666796,
          "durationTicks": 116,
          "midi": 74,
          "name": "D5",
          "ticks": 16560,
          "time": 11.59338,
          "velocity": 0.2992125984251969
        },
        {
          "duration": 0.08120966666666618,
          "durationTicks": 116,
          "midi": 70,
          "name": "A#4",
          "ticks": 16800,
          "time": 11.7614,
          "velocity": 0.2992125984251969
        },
        {
          "duration": 0.08120966666666618,
          "durationTicks": 116,
          "midi": 74,
          "name": "D5",
          "ticks": 16800,
          "time": 11.7614,
          "velocity": 0.2992125984251969
        },
        {
          "duration": 0.08120966666666618,
          "durationTicks": 116,
          "midi": 70,
          "name": "A#4",
          "ticks": 17040,
          "time": 11.92942,
          "velocity": 0.2992125984251969
        },
        {
          "duration": 0.08120966666666618,
          "durationTicks": 116,
          "midi": 74,
          "name": "D5",
          "ticks": 17040,
          "time": 11.92942,
          "velocity": 0.2992125984251969
        },
        {
          "duration": 0.08120966666666618,
          "durationTicks": 116,
          "midi": 70,
          "name": "A#4",
          "ticks": 17280,
          "time": 12.09744,
          "velocity": 0.2992125984251969
        },
        {
          "duration": 0.08120966666666618,
          "durationTicks": 116,
          "midi": 74,
          "name": "D5",
          "ticks": 17280,
          "time": 12.09744,
          "velocity": 0.2992125984251969
        },
        {
          "duration": 0.08120966666666618,
          "durationTicks": 116,
          "midi": 70,
          "name": "A#4",
          "ticks": 17520,
          "time": 12.265460000000001,
          "velocity": 0.2992125984251969
        },
        {
          "duration": 0.08120966666666618,
          "durationTicks": 116,
          "midi": 74,
          "name": "D5",
          "ticks": 17520,
          "time": 12.265460000000001,
          "velocity": 0.2992125984251969
        },
        {
          "duration": 0.08120966666666796,
          "durationTicks": 116,
          "midi": 70,
          "name": "A#4",
          "ticks": 17760,
          "time": 12.43348,
          "velocity": 0.2992125984251969
        },
        {
          "duration": 0.08120966666666796,
          "durationTicks": 116,
          "midi": 74,
          "name": "D5",
          "ticks": 17760,
          "time": 12.43348,
          "velocity": 0.2992125984251969
        },
        {
          "duration": 0.08120966666666796,
          "durationTicks": 116,
          "midi": 69,
          "name": "A4",
          "ticks": 18000,
          "time": 12.6015,
          "velocity": 0.2992125984251969
        },
        {
          "duration": 0.08120966666666796,
          "durationTicks": 116,
          "midi": 72,
          "name": "C5",
          "ticks": 18000,
          "time": 12.6015,
          "velocity": 0.2992125984251969
        },
        {
          "duration": 0.08120966666666618,
          "durationTicks": 116,
          "midi": 69,
          "name": "A4",
          "ticks": 18240,
          "time": 12.76952,
          "velocity": 0.2992125984251969
        },
        {
          "duration": 0.08120966666666618,
          "durationTicks": 116,
          "midi": 72,
          "name": "C5",
          "ticks": 18240,
          "time": 12.76952,
          "velocity": 0.2992125984251969
        },
        {
          "duration": 0.08120966666666618,
          "durationTicks": 116,
          "midi": 69,
          "name": "A4",
          "ticks": 18480,
          "time": 12.93754,
          "velocity": 0.2992125984251969
        },
        {
          "duration": 0.08120966666666618,
          "durationTicks": 116,
          "midi": 72,
          "name": "C5",
          "ticks": 18480,
          "time": 12.93754,
          "velocity": 0.2992125984251969
        },
        {
          "duration": 0.16521966666666543,
          "durationTicks": 236,
          "midi": 69,
          "name": "A4",
          "ticks": 18960,
          "time": 13.27358,
          "velocity": 0.2992125984251969
        },
        {
          "duration": 0.16521966666666543,
          "durationTicks": 236,
          "midi": 73,
          "name": "C#5",
          "ticks": 18960,
          "time": 13.27358,
          "velocity": 0.3779527559055118
        },
        {
          "duration": 0.08120966666666618,
          "durationTicks": 116,
          "midi": 70,
          "name": "A#4",
          "ticks": 19200,
          "time": 13.441600000000001,
          "velocity": 0.2992125984251969
        },
        {
          "duration": 0.08120966666666618,
          "durationTicks": 116,
          "midi": 74,
          "name": "D5",
          "ticks": 19200,
          "time": 13.441600000000001,
          "velocity": 0.2992125984251969
        },
        {
          "duration": 0.1652196666666672,
          "durationTicks": 236,
          "midi": 71,
          "name": "B4",
          "ticks": 19680,
          "time": 13.77764,
          "velocity": 0.2992125984251969
        },
        {
          "duration": 0.1652196666666672,
          "durationTicks": 236,
          "midi": 74,
          "name": "D5",
          "ticks": 19680,
          "time": 13.77764,
          "velocity": 0.3779527559055118
        },
        {
          "duration": 0.08120966666666618,
          "durationTicks": 116,
          "midi": 72,
          "name": "C5",
          "ticks": 19920,
          "time": 13.94566,
          "velocity": 0.2992125984251969
        },
        {
          "duration": 0.08120966666666618,
          "durationTicks": 116,
          "midi": 75,
          "name": "D#5",
          "ticks": 19920,
          "time": 13.94566,
          "velocity": 0.2992125984251969
        },
        {
          "duration": 0.08120966666666618,
          "durationTicks": 116,
          "midi": 74,
          "name": "D5",
          "ticks": 20400,
          "time": 14.2817,
          "velocity": 0.2992125984251969
        },
        {
          "duration": 0.08120966666666618,
          "durationTicks": 116,
          "midi": 77,
          "name": "F5",
          "ticks": 20400,
          "time": 14.2817,
          "velocity": 0.2992125984251969
        },
        {
          "duration": 0.08120966666666618,
          "durationTicks": 116,
          "midi": 74,
          "name": "D5",
          "ticks": 20640,
          "time": 14.449720000000001,
          "velocity": 0.2992125984251969
        },
        {
          "duration": 0.08120966666666618,
          "durationTicks": 116,
          "midi": 77,
          "name": "F5",
          "ticks": 20640,
          "time": 14.449720000000001,
          "velocity": 0.2992125984251969
        },
        {
          "duration": 0.08120966666666796,
          "durationTicks": 116,
          "midi": 74,
          "name": "D5",
          "ticks": 20880,
          "time": 14.61774,
          "velocity": 0.2992125984251969
        },
        {
          "duration": 0.08120966666666796,
          "durationTicks": 116,
          "midi": 77,
          "name": "F5",
          "ticks": 20880,
          "time": 14.61774,
          "velocity": 0.2992125984251969
        },
        {
          "duration": 0.08120966666666796,
          "durationTicks": 116,
          "midi": 74,
          "name": "D5",
          "ticks": 21120,
          "time": 14.78576,
          "velocity": 0.2992125984251969
        },
        {
          "duration": 0.08120966666666796,
          "durationTicks": 116,
          "midi": 77,
          "name": "F5",
          "ticks": 21120,
          "time": 14.78576,
          "velocity": 0.2992125984251969
        },
        {
          "duration": 0.08120966666666618,
          "durationTicks": 116,
          "midi": 74,
          "name": "D5",
          "ticks": 21360,
          "time": 14.95378,
          "velocity": 0.2992125984251969
        },
        {
          "duration": 0.08120966666666618,
          "durationTicks": 116,
          "midi": 77,
          "name": "F5",
          "ticks": 21360,
          "time": 14.95378,
          "velocity": 0.2992125984251969
        },
        {
          "duration": 0.08120966666666618,
          "durationTicks": 116,
          "midi": 70,
          "name": "A#4",
          "ticks": 21600,
          "time": 15.1218,
          "velocity": 0.2992125984251969
        },
        {
          "duration": 0.08120966666666618,
          "durationTicks": 116,
          "midi": 74,
          "name": "D5",
          "ticks": 21600,
          "time": 15.1218,
          "velocity": 0.2992125984251969
        },
        {
          "duration": 0.08120966666666618,
          "durationTicks": 116,
          "midi": 70,
          "name": "A#4",
          "ticks": 21840,
          "time": 15.28982,
          "velocity": 0.2992125984251969
        },
        {
          "duration": 0.08120966666666618,
          "durationTicks": 116,
          "midi": 74,
          "name": "D5",
          "ticks": 21840,
          "time": 15.28982,
          "velocity": 0.2992125984251969
        },
        {
          "duration": 0.08120966666666618,
          "durationTicks": 116,
          "midi": 70,
          "name": "A#4",
          "ticks": 22080,
          "time": 15.457840000000001,
          "velocity": 0.2992125984251969
        },
        {
          "duration": 0.08120966666666618,
          "durationTicks": 116,
          "midi": 74,
          "name": "D5",
          "ticks": 22080,
          "time": 15.457840000000001,
          "velocity": 0.2992125984251969
        },
        {
          "duration": 0.08120966666666796,
          "durationTicks": 116,
          "midi": 69,
          "name": "A4",
          "ticks": 22320,
          "time": 15.62586,
          "velocity": 0.2992125984251969
        },
        {
          "duration": 0.08120966666666796,
          "durationTicks": 116,
          "midi": 72,
          "name": "C5",
          "ticks": 22320,
          "time": 15.62586,
          "velocity": 0.2992125984251969
        },
        {
          "duration": 0.08120966666666796,
          "durationTicks": 116,
          "midi": 69,
          "name": "A4",
          "ticks": 22560,
          "time": 15.79388,
          "velocity": 0.2992125984251969
        },
        {
          "duration": 0.08120966666666796,
          "durationTicks": 116,
          "midi": 72,
          "name": "C5",
          "ticks": 22560,
          "time": 15.79388,
          "velocity": 0.2992125984251969
        },
        {
          "duration": 0.08120966666666618,
          "durationTicks": 116,
          "midi": 69,
          "name": "A4",
          "ticks": 22800,
          "time": 15.9619,
          "velocity": 0.2992125984251969
        },
        {
          "duration": 0.08120966666666618,
          "durationTicks": 116,
          "midi": 72,
          "name": "C5",
          "ticks": 22800,
          "time": 15.9619,
          "velocity": 0.2992125984251969
        },
        {
          "duration": 0.5012596666666695,
          "durationTicks": 716,
          "midi": 69,
          "name": "A4",
          "ticks": 23040,
          "time": 16.12992,
          "velocity": 0.2992125984251969
        },
        {
          "duration": 0.5012596666666695,
          "durationTicks": 716,
          "midi": 75,
          "name": "D#5",
          "ticks": 23040,
          "time": 16.12992,
          "velocity": 0.2992125984251969
        },
        {
          "duration": 0.13721633333333116,
          "durationTicks": 196,
          "midi": 70,
          "name": "A#4",
          "ticks": 23760,
          "time": 16.63398,
          "velocity": 0.2992125984251969
        },
        {
          "duration": 0.13721633333333116,
          "durationTicks": 196,
          "midi": 74,
          "name": "D5",
          "ticks": 23760,
          "time": 16.63398,
          "velocity": 0.2992125984251969
        },
        {
          "duration": 1.7614096666666583,
          "durationTicks": 2516,
          "midi": 70,
          "name": "A#4",
          "ticks": 57600,
          "time": 40.3248,
          "velocity": 0.3464566929133858
        },
        {
          "duration": 0.5012596666666624,
          "durationTicks": 716,
          "midi": 79,
          "name": "G5",
          "ticks": 57600,
          "time": 40.3248,
          "velocity": 0.3464566929133858
        },
        {
          "duration": 0.5012596666666695,
          "durationTicks": 716,
          "midi": 78,
          "name": "F#5",
          "ticks": 58320,
          "time": 40.82886,
          "velocity": 0.3464566929133858
        },
        {
          "duration": 0.5012596666666624,
          "durationTicks": 716,
          "midi": 79,
          "name": "G5",
          "ticks": 59040,
          "time": 41.33292,
          "velocity": 0.3464566929133858
        },
        {
          "duration": 0.16521966666665833,
          "durationTicks": 236,
          "midi": 75,
          "name": "D#5",
          "ticks": 59760,
          "time": 41.836980000000004,
          "velocity": 0.2677165354330709
        },
        {
          "duration": 0.08120966666666618,
          "durationTicks": 116,
          "midi": 74,
          "name": "D5",
          "ticks": 63360,
          "time": 44.35728,
          "velocity": 0.25984251968503935
        },
        {
          "duration": 0.16521966666666543,
          "durationTicks": 236,
          "midi": 69,
          "name": "A4",
          "ticks": 63600,
          "time": 44.5253,
          "velocity": 0.2677165354330709
        },
        {
          "duration": 0.16521966666667254,
          "durationTicks": 236,
          "midi": 70,
          "name": "A#4",
          "ticks": 63840,
          "time": 44.69332,
          "velocity": 0.2755905511811024
        },
        {
          "duration": 0.08120966666667329,
          "durationTicks": 116,
          "midi": 75,
          "name": "D#5",
          "ticks": 64080,
          "time": 44.86134,
          "velocity": 0.28346456692913385
        },
        {
          "duration": 0.16521966666666543,
          "durationTicks": 236,
          "midi": 71,
          "name": "B4",
          "ticks": 64320,
          "time": 45.029360000000004,
          "velocity": 0.29133858267716534
        },
        {
          "duration": 0.08120966666666618,
          "durationTicks": 116,
          "midi": 72,
          "name": "C5",
          "ticks": 64560,
          "time": 45.19738,
          "velocity": 0.30708661417322836
        },
        {
          "duration": 0.2772329999999954,
          "durationTicks": 396,
          "midi": 77,
          "name": "F5",
          "ticks": 64800,
          "time": 45.3654,
          "velocity": 0.31496062992125984
        },
        {
          "duration": 0.053206333333335465,
          "durationTicks": 76,
          "midi": 79,
          "name": "G5",
          "ticks": 65248,
          "time": 45.67903733333333,
          "velocity": 0.33070866141732286
        },
        {
          "duration": 0.053206333333335465,
          "durationTicks": 76,
          "midi": 77,
          "name": "F5",
          "ticks": 65316,
          "time": 45.726642999999996,
          "velocity": 0.33858267716535434
        },
        {
          "duration": 0.053206333333335465,
          "durationTicks": 76,
          "midi": 76,
          "name": "E5",
          "ticks": 65384,
          "time": 45.774248666666665,
          "velocity": 0.33858267716535434
        },
        {
          "duration": 0.05320633333334257,
          "durationTicks": 76,
          "midi": 77,
          "name": "F5",
          "ticks": 65452,
          "time": 45.82185433333333,
          "velocity": 0.33858267716535434
        },
        {
          "duration": 0.1372163333333276,
          "durationTicks": 196,
          "midi": 82,
          "name": "A#5",
          "ticks": 65520,
          "time": 45.869460000000004,
          "velocity": 0.2677165354330709
        },
        {
          "duration": 2.0134396666666703,
          "durationTicks": 2876,
          "midi": 70,
          "name": "A#4",
          "ticks": 66240,
          "time": 46.37352,
          "velocity": 0.3464566929133858
        },
        {
          "duration": 0.5012596666666695,
          "durationTicks": 716,
          "midi": 79,
          "name": "G5",
          "ticks": 66240,
          "time": 46.37352,
          "velocity": 0.3464566929133858
        },
        {
          "duration": 0.5012596666666695,
          "durationTicks": 716,
          "midi": 78,
          "name": "F#5",
          "ticks": 66960,
          "time": 46.87758,
          "velocity": 0.3464566929133858
        },
        {
          "duration": 0.9213096666666729,
          "durationTicks": 1316,
          "midi": 79,
          "name": "G5",
          "ticks": 67680,
          "time": 47.38164,
          "velocity": 0.3464566929133858
        },
        {
          "duration": 0.08120966666666618,
          "durationTicks": 116,
          "midi": 77,
          "name": "F5",
          "ticks": 69120,
          "time": 48.38976,
          "velocity": 0.1968503937007874
        },
        {
          "duration": 0.08120966666666618,
          "durationTicks": 116,
          "midi": 80,
          "name": "G#5",
          "ticks": 69120,
          "time": 48.38976,
          "velocity": 0.1968503937007874
        },
        {
          "duration": 0.08120966666667329,
          "durationTicks": 116,
          "midi": 77,
          "name": "F5",
          "ticks": 69600,
          "time": 48.7258,
          "velocity": 0.1968503937007874
        },
        {
          "duration": 0.08120966666667329,
          "durationTicks": 116,
          "midi": 80,
          "name": "G#5",
          "ticks": 69600,
          "time": 48.7258,
          "velocity": 0.1968503937007874
        },
        {
          "duration": 0.08120966666667329,
          "durationTicks": 116,
          "midi": 77,
          "name": "F5",
          "ticks": 69840,
          "time": 48.89382,
          "velocity": 0.1968503937007874
        },
        {
          "duration": 0.08120966666667329,
          "durationTicks": 116,
          "midi": 80,
          "name": "G#5",
          "ticks": 69840,
          "time": 48.89382,
          "velocity": 0.1968503937007874
        },
        {
          "duration": 0.08120966666666618,
          "durationTicks": 116,
          "midi": 77,
          "name": "F5",
          "ticks": 70320,
          "time": 49.22986,
          "velocity": 0.1968503937007874
        },
        {
          "duration": 0.08120966666666618,
          "durationTicks": 116,
          "midi": 80,
          "name": "G#5",
          "ticks": 70320,
          "time": 49.22986,
          "velocity": 0.1968503937007874
        },
        {
          "duration": 0.669279666666668,
          "durationTicks": 956,
          "midi": 75,
          "name": "D#5",
          "ticks": 70560,
          "time": 49.39788,
          "velocity": 0.1968503937007874
        },
        {
          "duration": 0.669279666666668,
          "durationTicks": 956,
          "midi": 79,
          "name": "G5",
          "ticks": 70560,
          "time": 49.39788,
          "velocity": 0.1968503937007874
        },
        {
          "duration": 0.08120966666666618,
          "durationTicks": 116,
          "midi": 77,
          "name": "F5",
          "ticks": 71520,
          "time": 50.06996,
          "velocity": 0.1968503937007874
        },
        {
          "duration": 0.08120966666666618,
          "durationTicks": 116,
          "midi": 83,
          "name": "B5",
          "ticks": 71520,
          "time": 50.06996,
          "velocity": 0.1968503937007874
        },
        {
          "duration": 0.08120966666666618,
          "durationTicks": 116,
          "midi": 79,
          "name": "G5",
          "ticks": 71760,
          "time": 50.23798,
          "velocity": 0.1968503937007874
        },
        {
          "duration": 0.08120966666666618,
          "durationTicks": 116,
          "midi": 84,
          "name": "C6",
          "ticks": 71760,
          "time": 50.23798,
          "velocity": 0.1968503937007874
        },
        {
          "duration": 0.08120966666667329,
          "durationTicks": 116,
          "midi": 70,
          "name": "A#4",
          "ticks": 72000,
          "time": 50.406,
          "velocity": 0.1968503937007874
        },
        {
          "duration": 0.08120966666667329,
          "durationTicks": 116,
          "midi": 74,
          "name": "D5",
          "ticks": 72000,
          "time": 50.406,
          "velocity": 0.1968503937007874
        },
        {
          "duration": 0.16521966666666543,
          "durationTicks": 236,
          "midi": 70,
          "name": "A#4",
          "ticks": 72480,
          "time": 50.74204,
          "velocity": 0.1968503937007874
        },
        {
          "duration": 0.16521966666666543,
          "durationTicks": 236,
          "midi": 74,
          "name": "D5",
          "ticks": 72480,
          "time": 50.74204,
          "velocity": 0.1968503937007874
        },
        {
          "duration": 0.08120966666666618,
          "durationTicks": 116,
          "midi": 69,
          "name": "A4",
          "ticks": 72720,
          "time": 50.91006,
          "velocity": 0.1968503937007874
        },
        {
          "duration": 0.08120966666666618,
          "durationTicks": 116,
          "midi": 72,
          "name": "C5",
          "ticks": 72720,
          "time": 50.91006,
          "velocity": 0.1968503937007874
        },
        {
          "duration": 0.08120966666667329,
          "durationTicks": 116,
          "midi": 69,
          "name": "A4",
          "ticks": 73200,
          "time": 51.2461,
          "velocity": 0.1968503937007874
        },
        {
          "duration": 0.08120966666667329,
          "durationTicks": 116,
          "midi": 72,
          "name": "C5",
          "ticks": 73200,
          "time": 51.2461,
          "velocity": 0.1968503937007874
        },
        {
          "duration": 1.0893296666666643,
          "durationTicks": 1556,
          "midi": 74,
          "name": "D5",
          "ticks": 73440,
          "time": 51.414120000000004,
          "velocity": 0.3464566929133858
        },
        {
          "duration": 1.0893296666666643,
          "durationTicks": 1556,
          "midi": 82,
          "name": "A#5",
          "ticks": 73440,
          "time": 51.414120000000004,
          "velocity": 0.3464566929133858
        },
        {
          "duration": 0.08120966666666618,
          "durationTicks": 116,
          "midi": 74,
          "name": "D5",
          "ticks": 75120,
          "time": 52.59026,
          "velocity": 0.3464566929133858
        },
        {
          "duration": 0.08120966666666618,
          "durationTicks": 116,
          "midi": 82,
          "name": "A#5",
          "ticks": 75120,
          "time": 52.59026,
          "velocity": 0.3464566929133858
        },
        {
          "duration": 0.08120966666667329,
          "durationTicks": 116,
          "midi": 74,
          "name": "D5",
          "ticks": 75360,
          "time": 52.75828,
          "velocity": 0.3464566929133858
        },
        {
          "duration": 0.08120966666667329,
          "durationTicks": 116,
          "midi": 82,
          "name": "A#5",
          "ticks": 75360,
          "time": 52.75828,
          "velocity": 0.3464566929133858
        },
        {
          "duration": 0.08120966666667329,
          "durationTicks": 116,
          "midi": 74,
          "name": "D5",
          "ticks": 75600,
          "time": 52.9263,
          "velocity": 0.3464566929133858
        },
        {
          "duration": 0.08120966666667329,
          "durationTicks": 116,
          "midi": 82,
          "name": "A#5",
          "ticks": 75600,
          "time": 52.9263,
          "velocity": 0.3464566929133858
        },
        {
          "duration": 0.08120966666666618,
          "durationTicks": 116,
          "midi": 74,
          "name": "D5",
          "ticks": 75840,
          "time": 53.09432,
          "velocity": 0.3464566929133858
        },
        {
          "duration": 0.08120966666666618,
          "durationTicks": 116,
          "midi": 82,
          "name": "A#5",
          "ticks": 75840,
          "time": 53.09432,
          "velocity": 0.3464566929133858
        },
        {
          "duration": 0.08120966666666618,
          "durationTicks": 116,
          "midi": 74,
          "name": "D5",
          "ticks": 76080,
          "time": 53.26234,
          "velocity": 0.3464566929133858
        },
        {
          "duration": 0.08120966666666618,
          "durationTicks": 116,
          "midi": 82,
          "name": "A#5",
          "ticks": 76080,
          "time": 53.26234,
          "velocity": 0.3464566929133858
        },
        {
          "duration": 0.669279666666668,
          "durationTicks": 956,
          "midi": 72,
          "name": "C5",
          "ticks": 76320,
          "time": 53.43036,
          "velocity": 0.3464566929133858
        },
        {
          "duration": 1.5093796666666677,
          "durationTicks": 2156,
          "midi": 82,
          "name": "A#5",
          "ticks": 76320,
          "time": 53.43036,
          "velocity": 0.3464566929133858
        },
        {
          "duration": 0.16521966666666543,
          "durationTicks": 236,
          "midi": 74,
          "name": "D5",
          "ticks": 77280,
          "time": 54.10244,
          "velocity": 0.3464566929133858
        },
        {
          "duration": 0.16521966666667254,
          "durationTicks": 236,
          "midi": 75,
          "name": "D#5",
          "ticks": 77520,
          "time": 54.27046,
          "velocity": 0.3464566929133858
        },
        {
          "duration": 0.5012596666666695,
          "durationTicks": 716,
          "midi": 74,
          "name": "D5",
          "ticks": 77760,
          "time": 54.43848,
          "velocity": 0.3464566929133858
        },
        {
          "duration": 0.4172496666666703,
          "durationTicks": 596,
          "midi": 72,
          "name": "C5",
          "ticks": 78480,
          "time": 54.94254,
          "velocity": 0.3464566929133858
        },
        {
          "duration": 0.4172496666666703,
          "durationTicks": 596,
          "midi": 81,
          "name": "A5",
          "ticks": 78480,
          "time": 54.94254,
          "velocity": 0.3464566929133858
        },
        {
          "duration": 1.0893296666666643,
          "durationTicks": 1556,
          "midi": 74,
          "name": "D5",
          "ticks": 79200,
          "time": 55.446600000000004,
          "velocity": 0.3464566929133858
        },
        {
          "duration": 1.0893296666666643,
          "durationTicks": 1556,
          "midi": 82,
          "name": "A#5",
          "ticks": 79200,
          "time": 55.446600000000004,
          "velocity": 0.3464566929133858
        },
        {
          "duration": 0.08120966666667329,
          "durationTicks": 116,
          "midi": 74,
          "name": "D5",
          "ticks": 80880,
          "time": 56.62274,
          "velocity": 0.3464566929133858
        },
        {
          "duration": 0.08120966666667329,
          "durationTicks": 116,
          "midi": 82,
          "name": "A#5",
          "ticks": 80880,
          "time": 56.62274,
          "velocity": 0.3464566929133858
        },
        {
          "duration": 0.08120966666667329,
          "durationTicks": 116,
          "midi": 74,
          "name": "D5",
          "ticks": 81120,
          "time": 56.79076,
          "velocity": 0.3464566929133858
        },
        {
          "duration": 0.08120966666667329,
          "durationTicks": 116,
          "midi": 82,
          "name": "A#5",
          "ticks": 81120,
          "time": 56.79076,
          "velocity": 0.3464566929133858
        },
        {
          "duration": 0.08120966666666618,
          "durationTicks": 116,
          "midi": 74,
          "name": "D5",
          "ticks": 81360,
          "time": 56.958780000000004,
          "velocity": 0.3464566929133858
        },
        {
          "duration": 0.08120966666666618,
          "durationTicks": 116,
          "midi": 82,
          "name": "A#5",
          "ticks": 81360,
          "time": 56.958780000000004,
          "velocity": 0.3464566929133858
        },
        {
          "duration": 0.08120966666666618,
          "durationTicks": 116,
          "midi": 74,
          "name": "D5",
          "ticks": 81600,
          "time": 57.1268,
          "velocity": 0.3464566929133858
        },
        {
          "duration": 0.08120966666666618,
          "durationTicks": 116,
          "midi": 82,
          "name": "A#5",
          "ticks": 81600,
          "time": 57.1268,
          "velocity": 0.3464566929133858
        },
        {
          "duration": 0.08120966666666618,
          "durationTicks": 116,
          "midi": 74,
          "name": "D5",
          "ticks": 81840,
          "time": 57.29482,
          "velocity": 0.3464566929133858
        },
        {
          "duration": 0.08120966666666618,
          "durationTicks": 116,
          "midi": 82,
          "name": "A#5",
          "ticks": 81840,
          "time": 57.29482,
          "velocity": 0.3464566929133858
        },
        {
          "duration": 0.669279666666668,
          "durationTicks": 956,
          "midi": 79,
          "name": "G5",
          "ticks": 82080,
          "time": 57.46284,
          "velocity": 0.4251968503937008
        },
        {
          "duration": 1.593389666666667,
          "durationTicks": 2276,
          "midi": 82,
          "name": "A#5",
          "ticks": 82080,
          "time": 57.46284,
          "velocity": 0.3464566929133858
        },
        {
          "duration": 0.16521966666667254,
          "durationTicks": 236,
          "midi": 77,
          "name": "F5",
          "ticks": 83040,
          "time": 58.13492,
          "velocity": 0.3464566929133858
        },
        {
          "duration": 0.16521966666667254,
          "durationTicks": 236,
          "midi": 75,
          "name": "D#5",
          "ticks": 83280,
          "time": 58.30294,
          "velocity": 0.3464566929133858
        },
        {
          "duration": 0.5012596666666695,
          "durationTicks": 716,
          "midi": 74,
          "name": "D5",
          "ticks": 83520,
          "time": 58.47096,
          "velocity": 0.3464566929133858
        },
        {
          "duration": 0.4172496666666703,
          "durationTicks": 596,
          "midi": 72,
          "name": "C5",
          "ticks": 84240,
          "time": 58.97502,
          "velocity": 0.3464566929133858
        },
        {
          "duration": 0.4172496666666703,
          "durationTicks": 596,
          "midi": 81,
          "name": "A5",
          "ticks": 84240,
          "time": 58.97502,
          "velocity": 0.3464566929133858
        },
        {
          "duration": 0.08120966666666618,
          "durationTicks": 116,
          "midi": 70,
          "name": "A#4",
          "ticks": 84960,
          "time": 59.47908,
          "velocity": 0.3464566929133858
        },
        {
          "duration": 0.16521966666667254,
          "durationTicks": 236,
          "midi": 74,
          "name": "D5",
          "ticks": 85440,
          "time": 59.81512,
          "velocity": 0.3464566929133858
        },
        {
          "duration": 0.08120966666667329,
          "durationTicks": 116,
          "midi": 77,
          "name": "F5",
          "ticks": 85680,
          "time": 59.98314,
          "velocity": 0.3464566929133858
        },
        {
          "duration": 0.16521966666666543,
          "durationTicks": 236,
          "midi": 82,
          "name": "A#5",
          "ticks": 86160,
          "time": 60.31918,
          "velocity": 0.3464566929133858
        },
        {
          "duration": 0.669279666666668,
          "durationTicks": 956,
          "midi": 77,
          "name": "F5",
          "ticks": 86400,
          "time": 60.4872,
          "velocity": 0.3464566929133858
        },
        {
          "duration": 0.16521966666666543,
          "durationTicks": 236,
          "midi": 75,
          "name": "D#5",
          "ticks": 87360,
          "time": 61.15928,
          "velocity": 0.3464566929133858
        },
        {
          "duration": 0.16521966666667254,
          "durationTicks": 236,
          "midi": 72,
          "name": "C5",
          "ticks": 87600,
          "time": 61.3273,
          "velocity": 0.3464566929133858
        },
        {
          "duration": 0.08120966666667329,
          "durationTicks": 116,
          "midi": 70,
          "name": "A#4",
          "ticks": 87840,
          "time": 61.49532,
          "velocity": 0.2755905511811024
        },
        {
          "duration": 0.16521966666666543,
          "durationTicks": 236,
          "midi": 74,
          "name": "D5",
          "ticks": 88320,
          "time": 61.831360000000004,
          "velocity": 0.2755905511811024
        },
        {
          "duration": 0.08120966666666618,
          "durationTicks": 116,
          "midi": 77,
          "name": "F5",
          "ticks": 88560,
          "time": 61.99938,
          "velocity": 0.2755905511811024
        },
        {
          "duration": 0.16521966666667254,
          "durationTicks": 236,
          "midi": 82,
          "name": "A#5",
          "ticks": 89040,
          "time": 62.33542,
          "velocity": 0.2755905511811024
        },
        {
          "duration": 0.6692796666666752,
          "durationTicks": 956,
          "midi": 77,
          "name": "F5",
          "ticks": 89280,
          "time": 62.50344,
          "velocity": 0.2755905511811024
        },
        {
          "duration": 0.16521966666667254,
          "durationTicks": 236,
          "midi": 75,
          "name": "D#5",
          "ticks": 90240,
          "time": 63.17552,
          "velocity": 0.2677165354330709
        },
        {
          "duration": 0.16521966666666543,
          "durationTicks": 236,
          "midi": 72,
          "name": "C5",
          "ticks": 90480,
          "time": 63.343540000000004,
          "velocity": 0.2677165354330709
        },
        {
          "duration": 0.1372163333333276,
          "durationTicks": 196,
          "midi": 70,
          "name": "A#4",
          "ticks": 90720,
          "time": 63.51156,
          "velocity": 0.2677165354330709
        },
        {
          "duration": 0.053206333333335465,
          "durationTicks": 76,
          "midi": 74,
          "name": "D5",
          "ticks": 91440,
          "time": 64.01562,
          "velocity": 0.1889763779527559
        },
        {
          "duration": 0.053206333333335465,
          "durationTicks": 76,
          "midi": 77,
          "name": "F5",
          "ticks": 91440,
          "time": 64.01562,
          "velocity": 0.1889763779527559
        },
        {
          "duration": 0.053206333333335465,
          "durationTicks": 76,
          "midi": 70,
          "name": "A#4",
          "ticks": 92160,
          "time": 64.51968,
          "velocity": 0.1889763779527559
        },
        {
          "duration": 0.053206333333335465,
          "durationTicks": 76,
          "midi": 74,
          "name": "D5",
          "ticks": 92160,
          "time": 64.51968,
          "velocity": 0.1889763779527559
        },
        {
          "duration": 0.08120966666666618,
          "durationTicks": 116,
          "midi": 69,
          "name": "A4",
          "ticks": 105840,
          "time": 74.09682000000001,
          "velocity": 0.2125984251968504
        },
        {
          "duration": 0.08120966666666618,
          "durationTicks": 116,
          "midi": 75,
          "name": "D#5",
          "ticks": 105840,
          "time": 74.09682000000001,
          "velocity": 0.2755905511811024
        },
        {
          "duration": 0.08120966666666618,
          "durationTicks": 116,
          "midi": 69,
          "name": "A4",
          "ticks": 106080,
          "time": 74.26484,
          "velocity": 0.2125984251968504
        },
        {
          "duration": 0.08120966666666618,
          "durationTicks": 116,
          "midi": 75,
          "name": "D#5",
          "ticks": 106080,
          "time": 74.26484,
          "velocity": 0.2755905511811024
        },
        {
          "duration": 0.08120966666666618,
          "durationTicks": 116,
          "midi": 69,
          "name": "A4",
          "ticks": 106320,
          "time": 74.43286,
          "velocity": 0.2125984251968504
        },
        {
          "duration": 0.08120966666666618,
          "durationTicks": 116,
          "midi": 75,
          "name": "D#5",
          "ticks": 106320,
          "time": 74.43286,
          "velocity": 0.2755905511811024
        },
        {
          "duration": 0.24922966666666468,
          "durationTicks": 356,
          "midi": 70,
          "name": "A#4",
          "ticks": 106560,
          "time": 74.60088,
          "velocity": 0.18110236220472442
        },
        {
          "duration": 0.24922966666666468,
          "durationTicks": 356,
          "midi": 74,
          "name": "D5",
          "ticks": 106560,
          "time": 74.60088,
          "velocity": 0.2283464566929134
        },
        {
          "duration": 0.08120966666666618,
          "durationTicks": 116,
          "midi": 72,
          "name": "C5",
          "ticks": 107280,
          "time": 75.10494,
          "velocity": 0.1889763779527559
        },
        {
          "duration": 0.08120966666666618,
          "durationTicks": 116,
          "midi": 75,
          "name": "D#5",
          "ticks": 107280,
          "time": 75.10494,
          "velocity": 0.2440944881889764
        },
        {
          "duration": 0.08120966666666618,
          "durationTicks": 116,
          "midi": 72,
          "name": "C5",
          "ticks": 107520,
          "time": 75.27296,
          "velocity": 0.1889763779527559
        },
        {
          "duration": 0.08120966666666618,
          "durationTicks": 116,
          "midi": 75,
          "name": "D#5",
          "ticks": 107520,
          "time": 75.27296,
          "velocity": 0.2440944881889764
        },
        {
          "duration": 0.08120966666668039,
          "durationTicks": 116,
          "midi": 72,
          "name": "C5",
          "ticks": 107760,
          "time": 75.44098,
          "velocity": 0.1889763779527559
        },
        {
          "duration": 0.08120966666668039,
          "durationTicks": 116,
          "midi": 75,
          "name": "D#5",
          "ticks": 107760,
          "time": 75.44098,
          "velocity": 0.2440944881889764
        },
        {
          "duration": 0.16521966666667254,
          "durationTicks": 236,
          "midi": 70,
          "name": "A#4",
          "ticks": 108000,
          "time": 75.609,
          "velocity": 0.1889763779527559
        },
        {
          "duration": 0.16521966666667254,
          "durationTicks": 236,
          "midi": 74,
          "name": "D5",
          "ticks": 108000,
          "time": 75.609,
          "velocity": 0.2440944881889764
        },
        {
          "duration": 0.16521966666665833,
          "durationTicks": 236,
          "midi": 70,
          "name": "A#4",
          "ticks": 108240,
          "time": 75.77702000000001,
          "velocity": 0.2755905511811024
        },
        {
          "duration": 0.16521966666665833,
          "durationTicks": 236,
          "midi": 72,
          "name": "C5",
          "ticks": 108480,
          "time": 75.94504,
          "velocity": 0.28346456692913385
        },
        {
          "duration": 0.33323966666667104,
          "durationTicks": 476,
          "midi": 74,
          "name": "D5",
          "ticks": 108720,
          "time": 76.11306,
          "velocity": 0.29133858267716534
        },
        {
          "duration": 0.16521966666667254,
          "durationTicks": 236,
          "midi": 76,
          "name": "E5",
          "ticks": 109200,
          "time": 76.4491,
          "velocity": 0.33070866141732286
        },
        {
          "duration": 0.24922966666666468,
          "durationTicks": 356,
          "midi": 77,
          "name": "F5",
          "ticks": 109440,
          "time": 76.61712,
          "velocity": 0.33858267716535434
        },
        {
          "duration": 0.03920466666667721,
          "durationTicks": 56,
          "midi": 72,
          "name": "C5",
          "ticks": 112560,
          "time": 78.80138,
          "velocity": 0.25196850393700787
        },
        {
          "duration": 0.03920466666667721,
          "durationTicks": 56,
          "midi": 81,
          "name": "A5",
          "ticks": 112560,
          "time": 78.80138,
          "velocity": 0.25196850393700787
        },
        {
          "duration": 0.039204666666663,
          "durationTicks": 56,
          "midi": 72,
          "name": "C5",
          "ticks": 112800,
          "time": 78.96940000000001,
          "velocity": 0.25196850393700787
        },
        {
          "duration": 0.039204666666663,
          "durationTicks": 56,
          "midi": 81,
          "name": "A5",
          "ticks": 112800,
          "time": 78.96940000000001,
          "velocity": 0.25196850393700787
        },
        {
          "duration": 0.16521966666665833,
          "durationTicks": 236,
          "midi": 72,
          "name": "C5",
          "ticks": 113040,
          "time": 79.13742,
          "velocity": 0.1732283464566929
        },
        {
          "duration": 0.16521966666665833,
          "durationTicks": 236,
          "midi": 81,
          "name": "A5",
          "ticks": 113040,
          "time": 79.13742,
          "velocity": 0.1732283464566929
        },
        {
          "duration": 0.039204666666663,
          "durationTicks": 56,
          "midi": 73,
          "name": "C#5",
          "ticks": 116160,
          "time": 81.32168,
          "velocity": 0.25196850393700787
        },
        {
          "duration": 0.039204666666663,
          "durationTicks": 56,
          "midi": 82,
          "name": "A#5",
          "ticks": 116160,
          "time": 81.32168,
          "velocity": 0.25196850393700787
        },
        {
          "duration": 0.03920466666667721,
          "durationTicks": 56,
          "midi": 73,
          "name": "C#5",
          "ticks": 116400,
          "time": 81.4897,
          "velocity": 0.25196850393700787
        },
        {
          "duration": 0.03920466666667721,
          "durationTicks": 56,
          "midi": 82,
          "name": "A#5",
          "ticks": 116400,
          "time": 81.4897,
          "velocity": 0.25196850393700787
        },
        {
          "duration": 0.16521966666667254,
          "durationTicks": 236,
          "midi": 73,
          "name": "C#5",
          "ticks": 116640,
          "time": 81.65772,
          "velocity": 0.1732283464566929
        },
        {
          "duration": 0.16521966666667254,
          "durationTicks": 236,
          "midi": 82,
          "name": "A#5",
          "ticks": 116640,
          "time": 81.65772,
          "velocity": 0.1732283464566929
        },
        {
          "duration": 0.03920466666667721,
          "durationTicks": 56,
          "midi": 72,
          "name": "C5",
          "ticks": 119040,
          "time": 83.33792,
          "velocity": 0.25196850393700787
        },
        {
          "duration": 0.03920466666667721,
          "durationTicks": 56,
          "midi": 78,
          "name": "F#5",
          "ticks": 119040,
          "time": 83.33792,
          "velocity": 0.25196850393700787
        },
        {
          "duration": 0.03920466666667721,
          "durationTicks": 56,
          "midi": 72,
          "name": "C5",
          "ticks": 119280,
          "time": 83.50594,
          "velocity": 0.25196850393700787
        },
        {
          "duration": 0.03920466666667721,
          "durationTicks": 56,
          "midi": 78,
          "name": "F#5",
          "ticks": 119280,
          "time": 83.50594,
          "velocity": 0.25196850393700787
        },
        {
          "duration": 0.16521966666665833,
          "durationTicks": 236,
          "midi": 72,
          "name": "C5",
          "ticks": 119520,
          "time": 83.67396000000001,
          "velocity": 0.1732283464566929
        },
        {
          "duration": 0.16521966666665833,
          "durationTicks": 236,
          "midi": 78,
          "name": "F#5",
          "ticks": 119520,
          "time": 83.67396000000001,
          "velocity": 0.1732283464566929
        },
        {
          "duration": 0.053206333333335465,
          "durationTicks": 76,
          "midi": 72,
          "name": "C5",
          "ticks": 122640,
          "time": 85.85822,
          "velocity": 0.1968503937007874
        },
        {
          "duration": 0.053206333333335465,
          "durationTicks": 76,
          "midi": 78,
          "name": "F#5",
          "ticks": 122640,
          "time": 85.85822,
          "velocity": 0.1968503937007874
        },
        {
          "duration": 0.053206333333335465,
          "durationTicks": 76,
          "midi": 72,
          "name": "C5",
          "ticks": 122880,
          "time": 86.02624,
          "velocity": 0.2047244094488189
        },
        {
          "duration": 0.053206333333335465,
          "durationTicks": 76,
          "midi": 78,
          "name": "F#5",
          "ticks": 122880,
          "time": 86.02624,
          "velocity": 0.2047244094488189
        },
        {
          "duration": 0.053206333333349676,
          "durationTicks": 76,
          "midi": 72,
          "name": "C5",
          "ticks": 123120,
          "time": 86.19426,
          "velocity": 0.2204724409448819
        },
        {
          "duration": 0.053206333333349676,
          "durationTicks": 76,
          "midi": 78,
          "name": "F#5",
          "ticks": 123120,
          "time": 86.19426,
          "velocity": 0.2204724409448819
        },
        {
          "duration": 0.053206333333349676,
          "durationTicks": 76,
          "midi": 72,
          "name": "C5",
          "ticks": 123360,
          "time": 86.36228,
          "velocity": 0.2283464566929134
        },
        {
          "duration": 0.053206333333349676,
          "durationTicks": 76,
          "midi": 78,
          "name": "F#5",
          "ticks": 123360,
          "time": 86.36228,
          "velocity": 0.2283464566929134
        },
        {
          "duration": 0.053206333333349676,
          "durationTicks": 76,
          "midi": 72,
          "name": "C5",
          "ticks": 123600,
          "time": 86.5303,
          "velocity": 0.2440944881889764
        },
        {
          "duration": 0.053206333333349676,
          "durationTicks": 76,
          "midi": 78,
          "name": "F#5",
          "ticks": 123600,
          "time": 86.5303,
          "velocity": 0.2440944881889764
        },
        {
          "duration": 0.22122633333334818,
          "durationTicks": 316,
          "midi": 74,
          "name": "D5",
          "ticks": 123840,
          "time": 86.69832,
          "velocity": 0.25984251968503935
        },
        {
          "duration": 0.22122633333334818,
          "durationTicks": 316,
          "midi": 79,
          "name": "G5",
          "ticks": 123840,
          "time": 86.69832,
          "velocity": 0.25984251968503935
        },
        {
          "duration": 0.053206333333349676,
          "durationTicks": 76,
          "midi": 72,
          "name": "C5",
          "ticks": 125520,
          "time": 87.87446,
          "velocity": 0.2125984251968504
        },
        {
          "duration": 0.053206333333349676,
          "durationTicks": 76,
          "midi": 78,
          "name": "F#5",
          "ticks": 125520,
          "time": 87.87446,
          "velocity": 0.2125984251968504
        },
        {
          "duration": 0.053206333333349676,
          "durationTicks": 76,
          "midi": 72,
          "name": "C5",
          "ticks": 125760,
          "time": 88.04248,
          "velocity": 0.2204724409448819
        },
        {
          "duration": 0.053206333333349676,
          "durationTicks": 76,
          "midi": 78,
          "name": "F#5",
          "ticks": 125760,
          "time": 88.04248,
          "velocity": 0.2204724409448819
        },
        {
          "duration": 0.053206333333349676,
          "durationTicks": 76,
          "midi": 72,
          "name": "C5",
          "ticks": 126000,
          "time": 88.2105,
          "velocity": 0.2283464566929134
        },
        {
          "duration": 0.053206333333349676,
          "durationTicks": 76,
          "midi": 78,
          "name": "F#5",
          "ticks": 126000,
          "time": 88.2105,
          "velocity": 0.2283464566929134
        },
        {
          "duration": 0.053206333333349676,
          "durationTicks": 76,
          "midi": 72,
          "name": "C5",
          "ticks": 126240,
          "time": 88.37852,
          "velocity": 0.23622047244094488
        },
        {
          "duration": 0.053206333333349676,
          "durationTicks": 76,
          "midi": 78,
          "name": "F#5",
          "ticks": 126240,
          "time": 88.37852,
          "velocity": 0.23622047244094488
        },
        {
          "duration": 0.053206333333335465,
          "durationTicks": 76,
          "midi": 72,
          "name": "C5",
          "ticks": 126480,
          "time": 88.54654000000001,
          "velocity": 0.25984251968503935
        },
        {
          "duration": 0.053206333333335465,
          "durationTicks": 76,
          "midi": 78,
          "name": "F#5",
          "ticks": 126480,
          "time": 88.54654000000001,
          "velocity": 0.25984251968503935
        },
        {
          "duration": 0.22122633333333397,
          "durationTicks": 316,
          "midi": 74,
          "name": "D5",
          "ticks": 126720,
          "time": 88.71456,
          "velocity": 0.1889763779527559
        },
        {
          "duration": 0.22122633333333397,
          "durationTicks": 316,
          "midi": 79,
          "name": "G5",
          "ticks": 126720,
          "time": 88.71456,
          "velocity": 0.1889763779527559
        },
        {
          "duration": 0.053206333333349676,
          "durationTicks": 76,
          "midi": 70,
          "name": "A#4",
          "ticks": 128400,
          "time": 89.8907,
          "velocity": 0.2125984251968504
        },
        {
          "duration": 0.053206333333349676,
          "durationTicks": 76,
          "midi": 76,
          "name": "E5",
          "ticks": 128400,
          "time": 89.8907,
          "velocity": 0.2125984251968504
        },
        {
          "duration": 0.053206333333335465,
          "durationTicks": 76,
          "midi": 70,
          "name": "A#4",
          "ticks": 128640,
          "time": 90.05872000000001,
          "velocity": 0.2283464566929134
        },
        {
          "duration": 0.053206333333335465,
          "durationTicks": 76,
          "midi": 76,
          "name": "E5",
          "ticks": 128640,
          "time": 90.05872000000001,
          "velocity": 0.2283464566929134
        },
        {
          "duration": 0.053206333333335465,
          "durationTicks": 76,
          "midi": 70,
          "name": "A#4",
          "ticks": 128880,
          "time": 90.22674,
          "velocity": 0.2440944881889764
        },
        {
          "duration": 0.053206333333335465,
          "durationTicks": 76,
          "midi": 76,
          "name": "E5",
          "ticks": 128880,
          "time": 90.22674,
          "velocity": 0.2440944881889764
        },
        {
          "duration": 0.053206333333335465,
          "durationTicks": 76,
          "midi": 70,
          "name": "A#4",
          "ticks": 129120,
          "time": 90.39476,
          "velocity": 0.2677165354330709
        },
        {
          "duration": 0.053206333333335465,
          "durationTicks": 76,
          "midi": 76,
          "name": "E5",
          "ticks": 129120,
          "time": 90.39476,
          "velocity": 0.2677165354330709
        },
        {
          "duration": 0.053206333333335465,
          "durationTicks": 76,
          "midi": 70,
          "name": "A#4",
          "ticks": 129360,
          "time": 90.56278,
          "velocity": 0.28346456692913385
        },
        {
          "duration": 0.053206333333335465,
          "durationTicks": 76,
          "midi": 76,
          "name": "E5",
          "ticks": 129360,
          "time": 90.56278,
          "velocity": 0.28346456692913385
        },
        {
          "duration": 0.22122633333334818,
          "durationTicks": 316,
          "midi": 72,
          "name": "C5",
          "ticks": 129600,
          "time": 90.7308,
          "velocity": 0.1968503937007874
        },
        {
          "duration": 0.22122633333334818,
          "durationTicks": 316,
          "midi": 77,
          "name": "F5",
          "ticks": 129600,
          "time": 90.7308,
          "velocity": 0.1968503937007874
        },
        {
          "duration": 1.005319666666665,
          "durationTicks": 1436,
          "midi": 76,
          "name": "E5",
          "ticks": 138240,
          "time": 96.77952,
          "velocity": 0.1889763779527559
        },
        {
          "duration": 1.005319666666665,
          "durationTicks": 1436,
          "midi": 79,
          "name": "G5",
          "ticks": 138240,
          "time": 96.77952,
          "velocity": 0.23622047244094488
        },
        {
          "duration": 0.9213096666666729,
          "durationTicks": 1316,
          "midi": 77,
          "name": "F5",
          "ticks": 139680,
          "time": 97.78764,
          "velocity": 0.1889763779527559
        },
        {
          "duration": 0.9213096666666729,
          "durationTicks": 1316,
          "midi": 80,
          "name": "G#5",
          "ticks": 139680,
          "time": 97.78764,
          "velocity": 0.1889763779527559
        },
        {
          "duration": 0.13721633333334182,
          "durationTicks": 196,
          "midi": 76,
          "name": "E5",
          "ticks": 141120,
          "time": 98.79576,
          "velocity": 0.2755905511811024
        },
        {
          "duration": 0.13721633333334182,
          "durationTicks": 196,
          "midi": 79,
          "name": "G5",
          "ticks": 141120,
          "time": 98.79576,
          "velocity": 0.2755905511811024
        },
        {
          "duration": 0.16521966666667254,
          "durationTicks": 236,
          "midi": 76,
          "name": "E5",
          "ticks": 141600,
          "time": 99.1318,
          "velocity": 0.29133858267716534
        },
        {
          "duration": 0.1092129999999969,
          "durationTicks": 156,
          "midi": 79,
          "name": "G5",
          "ticks": 141840,
          "time": 99.29982,
          "velocity": 0.30708661417322836
        },
        {
          "duration": 0.16521966666665833,
          "durationTicks": 236,
          "midi": 83,
          "name": "B5",
          "ticks": 142320,
          "time": 99.63586000000001,
          "velocity": 0.33070866141732286
        },
        {
          "duration": 0.1092129999999969,
          "durationTicks": 156,
          "midi": 84,
          "name": "C6",
          "ticks": 142560,
          "time": 99.80388,
          "velocity": 0.3464566929133858
        },
        {
          "duration": 0.16521966666667254,
          "durationTicks": 236,
          "midi": 77,
          "name": "F5",
          "ticks": 145200,
          "time": 101.6521,
          "velocity": 0.23622047244094488
        },
        {
          "duration": 0.08120966666666618,
          "durationTicks": 116,
          "midi": 76,
          "name": "E5",
          "ticks": 145440,
          "time": 101.82012,
          "velocity": 0.2283464566929134
        },
        {
          "duration": 0.16521966666667254,
          "durationTicks": 236,
          "midi": 75,
          "name": "D#5",
          "ticks": 145920,
          "time": 102.15616,
          "velocity": 0.2204724409448819
        },
        {
          "duration": 0.08120966666666618,
          "durationTicks": 116,
          "midi": 74,
          "name": "D5",
          "ticks": 146160,
          "time": 102.32418,
          "velocity": 0.2125984251968504
        },
        {
          "duration": 0.16521966666667254,
          "durationTicks": 236,
          "midi": 73,
          "name": "C#5",
          "ticks": 146640,
          "time": 102.66022,
          "velocity": 0.1968503937007874
        },
        {
          "duration": 0.24922966666666468,
          "durationTicks": 356,
          "midi": 72,
          "name": "C5",
          "ticks": 146880,
          "time": 102.82824000000001,
          "velocity": 0.1889763779527559
        },
        {
          "duration": 0.08120966666668039,
          "durationTicks": 116,
          "midi": 73,
          "name": "C#5",
          "ticks": 149040,
          "time": 104.34042,
          "velocity": 0.18110236220472442
        },
        {
          "duration": 0.08120966666668039,
          "durationTicks": 116,
          "midi": 79,
          "name": "G5",
          "ticks": 149040,
          "time": 104.34042,
          "velocity": 0.18110236220472442
        },
        {
          "duration": 0.08120966666666618,
          "durationTicks": 116,
          "midi": 73,
          "name": "C#5",
          "ticks": 149280,
          "time": 104.50844000000001,
          "velocity": 0.18110236220472442
        },
        {
          "duration": 0.08120966666666618,
          "durationTicks": 116,
          "midi": 79,
          "name": "G5",
          "ticks": 149280,
          "time": 104.50844000000001,
          "velocity": 0.18110236220472442
        },
        {
          "duration": 0.08120966666666618,
          "durationTicks": 116,
          "midi": 73,
          "name": "C#5",
          "ticks": 149520,
          "time": 104.67646,
          "velocity": 0.18110236220472442
        },
        {
          "duration": 0.08120966666666618,
          "durationTicks": 116,
          "midi": 79,
          "name": "G5",
          "ticks": 149520,
          "time": 104.67646,
          "velocity": 0.18110236220472442
        },
        {
          "duration": 0.24922966666666468,
          "durationTicks": 356,
          "midi": 72,
          "name": "C5",
          "ticks": 149760,
          "time": 104.84448,
          "velocity": 0.18110236220472442
        },
        {
          "duration": 0.24922966666666468,
          "durationTicks": 356,
          "midi": 79,
          "name": "G5",
          "ticks": 149760,
          "time": 104.84448,
          "velocity": 0.18110236220472442
        },
        {
          "duration": 0.08120966666666618,
          "durationTicks": 116,
          "midi": 73,
          "name": "C#5",
          "ticks": 151920,
          "time": 106.35666,
          "velocity": 0.18110236220472442
        },
        {
          "duration": 0.08120966666666618,
          "durationTicks": 116,
          "midi": 79,
          "name": "G5",
          "ticks": 151920,
          "time": 106.35666,
          "velocity": 0.18110236220472442
        },
        {
          "duration": 0.08120966666666618,
          "durationTicks": 116,
          "midi": 73,
          "name": "C#5",
          "ticks": 152160,
          "time": 106.52468,
          "velocity": 0.18110236220472442
        },
        {
          "duration": 0.08120966666666618,
          "durationTicks": 116,
          "midi": 79,
          "name": "G5",
          "ticks": 152160,
          "time": 106.52468,
          "velocity": 0.18110236220472442
        },
        {
          "duration": 0.08120966666666618,
          "durationTicks": 116,
          "midi": 73,
          "name": "C#5",
          "ticks": 152400,
          "time": 106.6927,
          "velocity": 0.18110236220472442
        },
        {
          "duration": 0.08120966666666618,
          "durationTicks": 116,
          "midi": 79,
          "name": "G5",
          "ticks": 152400,
          "time": 106.6927,
          "velocity": 0.18110236220472442
        },
        {
          "duration": 0.24922966666666468,
          "durationTicks": 356,
          "midi": 72,
          "name": "C5",
          "ticks": 152640,
          "time": 106.86072,
          "velocity": 0.18110236220472442
        },
        {
          "duration": 0.24922966666666468,
          "durationTicks": 356,
          "midi": 79,
          "name": "G5",
          "ticks": 152640,
          "time": 106.86072,
          "velocity": 0.18110236220472442
        },
        {
          "duration": 2.0134396666666703,
          "durationTicks": 2876,
          "midi": 72,
          "name": "C5",
          "ticks": 154080,
          "time": 107.86884,
          "velocity": 0.1889763779527559
        },
        {
          "duration": 2.0134396666666703,
          "durationTicks": 2876,
          "midi": 72,
          "name": "C5",
          "ticks": 159840,
          "time": 111.90132,
          "velocity": 0.1889763779527559
        },
        {
          "duration": 0.16521966666667254,
          "durationTicks": 236,
          "midi": 69,
          "name": "A4",
          "ticks": 166800,
          "time": 116.7739,
          "velocity": 0.2047244094488189
        },
        {
          "duration": 0.16521966666667254,
          "durationTicks": 236,
          "midi": 77,
          "name": "F5",
          "ticks": 166800,
          "time": 116.7739,
          "velocity": 0.2992125984251969
        },
        {
          "duration": 0.1092129999999969,
          "durationTicks": 156,
          "midi": 67,
          "name": "G4",
          "ticks": 167040,
          "time": 116.94192,
          "velocity": 0.2047244094488189
        },
        {
          "duration": 0.1092129999999969,
          "durationTicks": 156,
          "midi": 76,
          "name": "E5",
          "ticks": 167040,
          "time": 116.94192,
          "velocity": 0.2992125984251969
        },
        {
          "duration": 0.16521966666665833,
          "durationTicks": 236,
          "midi": 69,
          "name": "A4",
          "ticks": 167520,
          "time": 117.27796000000001,
          "velocity": 0.2047244094488189
        },
        {
          "duration": 0.16521966666665833,
          "durationTicks": 236,
          "midi": 77,
          "name": "F5",
          "ticks": 167520,
          "time": 117.27796000000001,
          "velocity": 0.2992125984251969
        },
        {
          "duration": 0.1092129999999969,
          "durationTicks": 156,
          "midi": 67,
          "name": "G4",
          "ticks": 167760,
          "time": 117.44598,
          "velocity": 0.2047244094488189
        },
        {
          "duration": 0.1092129999999969,
          "durationTicks": 156,
          "midi": 76,
          "name": "E5",
          "ticks": 167760,
          "time": 117.44598,
          "velocity": 0.2992125984251969
        },
        {
          "duration": 0.16521966666667254,
          "durationTicks": 236,
          "midi": 69,
          "name": "A4",
          "ticks": 168240,
          "time": 117.78202,
          "velocity": 0.23622047244094488
        },
        {
          "duration": 0.16521966666667254,
          "durationTicks": 236,
          "midi": 77,
          "name": "F5",
          "ticks": 168240,
          "time": 117.78202,
          "velocity": 0.2992125984251969
        },
        {
          "duration": 0.33323966666667104,
          "durationTicks": 476,
          "midi": 70,
          "name": "A#4",
          "ticks": 168480,
          "time": 117.95004,
          "velocity": 0.23622047244094488
        },
        {
          "duration": 0.9213096666666729,
          "durationTicks": 1316,
          "midi": 79,
          "name": "G5",
          "ticks": 168480,
          "time": 117.95004,
          "velocity": 0.2992125984251969
        },
        {
          "duration": 0.16521966666667254,
          "durationTicks": 236,
          "midi": 67,
          "name": "G4",
          "ticks": 168960,
          "time": 118.28608,
          "velocity": 0.23622047244094488
        },
        {
          "duration": 0.5852696666666759,
          "durationTicks": 836,
          "midi": 72,
          "name": "C5",
          "ticks": 169200,
          "time": 118.4541,
          "velocity": 0.23622047244094488
        },
        {
          "duration": 0.16521966666665833,
          "durationTicks": 236,
          "midi": 77,
          "name": "F5",
          "ticks": 169680,
          "time": 118.79014000000001,
          "velocity": 0.2992125984251969
        },
        {
          "duration": 0.16521966666665833,
          "durationTicks": 236,
          "midi": 70,
          "name": "A#4",
          "ticks": 169920,
          "time": 118.95816,
          "velocity": 0.23622047244094488
        },
        {
          "duration": 0.16521966666665833,
          "durationTicks": 236,
          "midi": 74,
          "name": "D5",
          "ticks": 169920,
          "time": 118.95816,
          "velocity": 0.25984251968503935
        },
        {
          "duration": 0.16521966666667254,
          "durationTicks": 236,
          "midi": 67,
          "name": "G4",
          "ticks": 170640,
          "time": 119.46222,
          "velocity": 0.23622047244094488
        },
        {
          "duration": 0.16521966666667254,
          "durationTicks": 236,
          "midi": 74,
          "name": "D5",
          "ticks": 170640,
          "time": 119.46222,
          "velocity": 0.25196850393700787
        },
        {
          "duration": 0.5012596666666695,
          "durationTicks": 716,
          "midi": 69,
          "name": "A4",
          "ticks": 171360,
          "time": 119.96628,
          "velocity": 0.2047244094488189
        },
        {
          "duration": 0.669279666666668,
          "durationTicks": 956,
          "midi": 72,
          "name": "C5",
          "ticks": 171360,
          "time": 119.96628,
          "velocity": 0.1968503937007874
        },
        {
          "duration": 0.16521966666665833,
          "durationTicks": 236,
          "midi": 67,
          "name": "G4",
          "ticks": 172080,
          "time": 120.47034000000001,
          "velocity": 0.18110236220472442
        },
        {
          "duration": 0.16521966666667254,
          "durationTicks": 236,
          "midi": 69,
          "name": "A4",
          "ticks": 172560,
          "time": 120.80638,
          "velocity": 0.23622047244094488
        },
        {
          "duration": 0.16521966666667254,
          "durationTicks": 236,
          "midi": 77,
          "name": "F5",
          "ticks": 172560,
          "time": 120.80638,
          "velocity": 0.31496062992125984
        },
        {
          "duration": 0.1092129999999969,
          "durationTicks": 156,
          "midi": 67,
          "name": "G4",
          "ticks": 172800,
          "time": 120.9744,
          "velocity": 0.23622047244094488
        },
        {
          "duration": 0.1092129999999969,
          "durationTicks": 156,
          "midi": 76,
          "name": "E5",
          "ticks": 172800,
          "time": 120.9744,
          "velocity": 0.31496062992125984
        },
        {
          "duration": 0.16521966666667254,
          "durationTicks": 236,
          "midi": 69,
          "name": "A4",
          "ticks": 173280,
          "time": 121.31044,
          "velocity": 0.23622047244094488
        },
        {
          "duration": 0.16521966666667254,
          "durationTicks": 236,
          "midi": 77,
          "name": "F5",
          "ticks": 173280,
          "time": 121.31044,
          "velocity": 0.31496062992125984
        },
        {
          "duration": 0.1092129999999969,
          "durationTicks": 156,
          "midi": 67,
          "name": "G4",
          "ticks": 173520,
          "time": 121.47846,
          "velocity": 0.23622047244094488
        },
        {
          "duration": 0.1092129999999969,
          "durationTicks": 156,
          "midi": 76,
          "name": "E5",
          "ticks": 173520,
          "time": 121.47846,
          "velocity": 0.31496062992125984
        },
        {
          "duration": 0.16521966666667254,
          "durationTicks": 236,
          "midi": 69,
          "name": "A4",
          "ticks": 174000,
          "time": 121.8145,
          "velocity": 0.23622047244094488
        },
        {
          "duration": 0.16521966666667254,
          "durationTicks": 236,
          "midi": 77,
          "name": "F5",
          "ticks": 174000,
          "time": 121.8145,
          "velocity": 0.2992125984251969
        },
        {
          "duration": 0.33323966666665683,
          "durationTicks": 476,
          "midi": 70,
          "name": "A#4",
          "ticks": 174240,
          "time": 121.98252000000001,
          "velocity": 0.23622047244094488
        },
        {
          "duration": 0.8372996666666666,
          "durationTicks": 1196,
          "midi": 79,
          "name": "G5",
          "ticks": 174240,
          "time": 121.98252000000001,
          "velocity": 0.25984251968503935
        },
        {
          "duration": 0.16521966666667254,
          "durationTicks": 236,
          "midi": 67,
          "name": "G4",
          "ticks": 174720,
          "time": 122.31856,
          "velocity": 0.23622047244094488
        },
        {
          "duration": 0.5852696666666617,
          "durationTicks": 836,
          "midi": 72,
          "name": "C5",
          "ticks": 174960,
          "time": 122.48658,
          "velocity": 0.23622047244094488
        },
        {
          "duration": 0.16521966666667254,
          "durationTicks": 236,
          "midi": 77,
          "name": "F5",
          "ticks": 175440,
          "time": 122.82262,
          "velocity": 0.2677165354330709
        },
        {
          "duration": 0.16521966666667254,
          "durationTicks": 236,
          "midi": 70,
          "name": "A#4",
          "ticks": 175680,
          "time": 122.99064,
          "velocity": 0.23622047244094488
        },
        {
          "duration": 0.16521966666667254,
          "durationTicks": 236,
          "midi": 74,
          "name": "D5",
          "ticks": 175680,
          "time": 122.99064,
          "velocity": 0.2677165354330709
        },
        {
          "duration": 0.16521966666665833,
          "durationTicks": 236,
          "midi": 67,
          "name": "G4",
          "ticks": 176400,
          "time": 123.49470000000001,
          "velocity": 0.23622047244094488
        },
        {
          "duration": 0.16521966666665833,
          "durationTicks": 236,
          "midi": 70,
          "name": "A#4",
          "ticks": 176400,
          "time": 123.49470000000001,
          "velocity": 0.2204724409448819
        },
        {
          "duration": 0.22122633333333397,
          "durationTicks": 316,
          "midi": 65,
          "name": "F4",
          "ticks": 177120,
          "time": 123.99876,
          "velocity": 0.1968503937007874
        },
        {
          "duration": 0.22122633333333397,
          "durationTicks": 316,
          "midi": 69,
          "name": "A4",
          "ticks": 177120,
          "time": 123.99876,
          "velocity": 0.1968503937007874
        },
        {
          "duration": 0.08120966666666618,
          "durationTicks": 116,
          "midi": 75,
          "name": "D#5",
          "ticks": 184560,
          "time": 129.20738,
          "velocity": 0.29133858267716534
        },
        {
          "duration": 0.08120966666666618,
          "durationTicks": 116,
          "midi": 81,
          "name": "A5",
          "ticks": 184560,
          "time": 129.20738,
          "velocity": 0.29133858267716534
        },
        {
          "duration": 0.08120966666666618,
          "durationTicks": 116,
          "midi": 75,
          "name": "D#5",
          "ticks": 184800,
          "time": 129.3754,
          "velocity": 0.2992125984251969
        },
        {
          "duration": 0.08120966666666618,
          "durationTicks": 116,
          "midi": 81,
          "name": "A5",
          "ticks": 184800,
          "time": 129.3754,
          "velocity": 0.2992125984251969
        },
        {
          "duration": 0.08120966666666618,
          "durationTicks": 116,
          "midi": 75,
          "name": "D#5",
          "ticks": 185040,
          "time": 129.54342,
          "velocity": 0.30708661417322836
        },
        {
          "duration": 0.08120966666666618,
          "durationTicks": 116,
          "midi": 81,
          "name": "A5",
          "ticks": 185040,
          "time": 129.54342,
          "velocity": 0.30708661417322836
        },
        {
          "duration": 0.08120966666666618,
          "durationTicks": 116,
          "midi": 75,
          "name": "D#5",
          "ticks": 185280,
          "time": 129.71144,
          "velocity": 0.31496062992125984
        },
        {
          "duration": 0.08120966666666618,
          "durationTicks": 116,
          "midi": 81,
          "name": "A5",
          "ticks": 185280,
          "time": 129.71144,
          "velocity": 0.31496062992125984
        },
        {
          "duration": 0.08120966666666618,
          "durationTicks": 116,
          "midi": 75,
          "name": "D#5",
          "ticks": 185520,
          "time": 129.87946,
          "velocity": 0.3228346456692913
        },
        {
          "duration": 0.08120966666666618,
          "durationTicks": 116,
          "midi": 81,
          "name": "A5",
          "ticks": 185520,
          "time": 129.87946,
          "velocity": 0.3228346456692913
        },
        {
          "duration": 0.09055153333332555,
          "durationTicks": 116,
          "midi": 75,
          "name": "D#5",
          "ticks": 185760,
          "time": 130.04748,
          "velocity": 0.33070866141732286
        },
        {
          "duration": 0.09055153333332555,
          "durationTicks": 116,
          "midi": 81,
          "name": "A5",
          "ticks": 185760,
          "time": 130.04748,
          "velocity": 0.33070866141732286
        },
        {
          "duration": 0.09055153333335397,
          "durationTicks": 116,
          "midi": 75,
          "name": "D#5",
          "ticks": 186000,
          "time": 130.234828,
          "velocity": 0.33858267716535434
        },
        {
          "duration": 0.09055153333335397,
          "durationTicks": 116,
          "midi": 81,
          "name": "A5",
          "ticks": 186000,
          "time": 130.234828,
          "velocity": 0.33858267716535434
        },
        {
          "duration": 0.09055153333332555,
          "durationTicks": 116,
          "midi": 75,
          "name": "D#5",
          "ticks": 186240,
          "time": 130.422176,
          "velocity": 0.3464566929133858
        },
        {
          "duration": 0.09055153333332555,
          "durationTicks": 116,
          "midi": 81,
          "name": "A5",
          "ticks": 186240,
          "time": 130.422176,
          "velocity": 0.3464566929133858
        },
        {
          "duration": 0.10262592500001233,
          "durationTicks": 116,
          "midi": 75,
          "name": "D#5",
          "ticks": 186480,
          "time": 130.609524,
          "velocity": 0.3543307086614173
        },
        {
          "duration": 0.10262592500001233,
          "durationTicks": 116,
          "midi": 81,
          "name": "A5",
          "ticks": 186480,
          "time": 130.609524,
          "velocity": 0.3543307086614173
        },
        {
          "duration": 0.10262592499998391,
          "durationTicks": 116,
          "midi": 75,
          "name": "D#5",
          "ticks": 186720,
          "time": 130.8218535,
          "velocity": 0.36220472440944884
        },
        {
          "duration": 0.10262592499998391,
          "durationTicks": 116,
          "midi": 81,
          "name": "A5",
          "ticks": 186720,
          "time": 130.8218535,
          "velocity": 0.36220472440944884
        },
        {
          "duration": 0.10262592500001233,
          "durationTicks": 116,
          "midi": 75,
          "name": "D#5",
          "ticks": 186960,
          "time": 131.03418299999998,
          "velocity": 0.3700787401574803
        },
        {
          "duration": 0.10262592500001233,
          "durationTicks": 116,
          "midi": 81,
          "name": "A5",
          "ticks": 186960,
          "time": 131.03418299999998,
          "velocity": 0.3700787401574803
        },
        {
          "duration": 0.680717808333327,
          "durationTicks": 956,
          "midi": 75,
          "name": "D#5",
          "ticks": 187200,
          "time": 131.2465125,
          "velocity": 0.3779527559055118
        },
        {
          "duration": 0.680717808333327,
          "durationTicks": 956,
          "midi": 81,
          "name": "A5",
          "ticks": 187200,
          "time": 131.2465125,
          "velocity": 0.3779527559055118
        },
        {
          "duration": 0.08120966666666618,
          "durationTicks": 116,
          "midi": 70,
          "name": "A#4",
          "ticks": 226080,
          "time": 167.13212012500003,
          "velocity": 0.2992125984251969
        },
        {
          "duration": 0.08120966666666618,
          "durationTicks": 116,
          "midi": 74,
          "name": "D5",
          "ticks": 226080,
          "time": 167.13212012500003,
          "velocity": 0.2992125984251969
        },
        {
          "duration": 0.08120966666666618,
          "durationTicks": 116,
          "midi": 70,
          "name": "A#4",
          "ticks": 226320,
          "time": 167.300140125,
          "velocity": 0.2992125984251969
        },
        {
          "duration": 0.08120966666666618,
          "durationTicks": 116,
          "midi": 74,
          "name": "D5",
          "ticks": 226320,
          "time": 167.300140125,
          "velocity": 0.2992125984251969
        },
        {
          "duration": 0.08120966666666618,
          "durationTicks": 116,
          "midi": 70,
          "name": "A#4",
          "ticks": 226560,
          "time": 167.46816012500003,
          "velocity": 0.2992125984251969
        },
        {
          "duration": 0.08120966666666618,
          "durationTicks": 116,
          "midi": 74,
          "name": "D5",
          "ticks": 226560,
          "time": 167.46816012500003,
          "velocity": 0.2992125984251969
        },
        {
          "duration": 0.08120966666666618,
          "durationTicks": 116,
          "midi": 70,
          "name": "A#4",
          "ticks": 226800,
          "time": 167.636180125,
          "velocity": 0.2992125984251969
        },
        {
          "duration": 0.08120966666666618,
          "durationTicks": 116,
          "midi": 74,
          "name": "D5",
          "ticks": 226800,
          "time": 167.636180125,
          "velocity": 0.2992125984251969
        },
        {
          "duration": 0.08120966666666618,
          "durationTicks": 116,
          "midi": 70,
          "name": "A#4",
          "ticks": 227040,
          "time": 167.80420012500002,
          "velocity": 0.2992125984251969
        },
        {
          "duration": 0.08120966666666618,
          "durationTicks": 116,
          "midi": 74,
          "name": "D5",
          "ticks": 227040,
          "time": 167.80420012500002,
          "velocity": 0.2992125984251969
        },
        {
          "duration": 0.08120966666666618,
          "durationTicks": 116,
          "midi": 70,
          "name": "A#4",
          "ticks": 227280,
          "time": 167.972220125,
          "velocity": 0.2992125984251969
        },
        {
          "duration": 0.08120966666666618,
          "durationTicks": 116,
          "midi": 74,
          "name": "D5",
          "ticks": 227280,
          "time": 167.972220125,
          "velocity": 0.2992125984251969
        },
        {
          "duration": 0.08120966666666618,
          "durationTicks": 116,
          "midi": 70,
          "name": "A#4",
          "ticks": 227520,
          "time": 168.14024012500002,
          "velocity": 0.2992125984251969
        },
        {
          "duration": 0.08120966666666618,
          "durationTicks": 116,
          "midi": 74,
          "name": "D5",
          "ticks": 227520,
          "time": 168.14024012500002,
          "velocity": 0.2992125984251969
        },
        {
          "duration": 0.08120966666666618,
          "durationTicks": 116,
          "midi": 70,
          "name": "A#4",
          "ticks": 227760,
          "time": 168.308260125,
          "velocity": 0.2992125984251969
        },
        {
          "duration": 0.08120966666666618,
          "durationTicks": 116,
          "midi": 74,
          "name": "D5",
          "ticks": 227760,
          "time": 168.308260125,
          "velocity": 0.2992125984251969
        },
        {
          "duration": 0.08120966666666618,
          "durationTicks": 116,
          "midi": 70,
          "name": "A#4",
          "ticks": 228000,
          "time": 168.47628012500002,
          "velocity": 0.2992125984251969
        },
        {
          "duration": 0.08120966666666618,
          "durationTicks": 116,
          "midi": 74,
          "name": "D5",
          "ticks": 228000,
          "time": 168.47628012500002,
          "velocity": 0.2992125984251969
        },
        {
          "duration": 0.08120966666666618,
          "durationTicks": 116,
          "midi": 70,
          "name": "A#4",
          "ticks": 228240,
          "time": 168.64430012500003,
          "velocity": 0.2992125984251969
        },
        {
          "duration": 0.08120966666666618,
          "durationTicks": 116,
          "midi": 74,
          "name": "D5",
          "ticks": 228240,
          "time": 168.64430012500003,
          "velocity": 0.2992125984251969
        },
        {
          "duration": 0.08120966666666618,
          "durationTicks": 116,
          "midi": 70,
          "name": "A#4",
          "ticks": 228480,
          "time": 168.812320125,
          "velocity": 0.2992125984251969
        },
        {
          "duration": 0.08120966666666618,
          "durationTicks": 116,
          "midi": 74,
          "name": "D5",
          "ticks": 228480,
          "time": 168.812320125,
          "velocity": 0.2992125984251969
        },
        {
          "duration": 0.08120966666666618,
          "durationTicks": 116,
          "midi": 70,
          "name": "A#4",
          "ticks": 228720,
          "time": 168.98034012500003,
          "velocity": 0.2992125984251969
        },
        {
          "duration": 0.08120966666666618,
          "durationTicks": 116,
          "midi": 74,
          "name": "D5",
          "ticks": 228720,
          "time": 168.98034012500003,
          "velocity": 0.2992125984251969
        },
        {
          "duration": 0.08120966666666618,
          "durationTicks": 116,
          "midi": 72,
          "name": "C5",
          "ticks": 228960,
          "time": 169.148360125,
          "velocity": 0.2992125984251969
        },
        {
          "duration": 0.08120966666666618,
          "durationTicks": 116,
          "midi": 75,
          "name": "D#5",
          "ticks": 228960,
          "time": 169.148360125,
          "velocity": 0.2992125984251969
        },
        {
          "duration": 0.08120966666666618,
          "durationTicks": 116,
          "midi": 72,
          "name": "C5",
          "ticks": 229200,
          "time": 169.31638012500002,
          "velocity": 0.2992125984251969
        },
        {
          "duration": 0.08120966666666618,
          "durationTicks": 116,
          "midi": 75,
          "name": "D#5",
          "ticks": 229200,
          "time": 169.31638012500002,
          "velocity": 0.2992125984251969
        },
        {
          "duration": 0.08120966666666618,
          "durationTicks": 116,
          "midi": 72,
          "name": "C5",
          "ticks": 229440,
          "time": 169.484400125,
          "velocity": 0.2992125984251969
        },
        {
          "duration": 0.08120966666666618,
          "durationTicks": 116,
          "midi": 75,
          "name": "D#5",
          "ticks": 229440,
          "time": 169.484400125,
          "velocity": 0.2992125984251969
        },
        {
          "duration": 0.08120966666666618,
          "durationTicks": 116,
          "midi": 70,
          "name": "A#4",
          "ticks": 229680,
          "time": 169.65242012500002,
          "velocity": 0.2992125984251969
        },
        {
          "duration": 0.08120966666666618,
          "durationTicks": 116,
          "midi": 74,
          "name": "D5",
          "ticks": 229680,
          "time": 169.65242012500002,
          "velocity": 0.2992125984251969
        },
        {
          "duration": 0.08120966666666618,
          "durationTicks": 116,
          "midi": 70,
          "name": "A#4",
          "ticks": 229920,
          "time": 169.820440125,
          "velocity": 0.2992125984251969
        },
        {
          "duration": 0.08120966666666618,
          "durationTicks": 116,
          "midi": 74,
          "name": "D5",
          "ticks": 229920,
          "time": 169.820440125,
          "velocity": 0.2992125984251969
        },
        {
          "duration": 0.08120966666666618,
          "durationTicks": 116,
          "midi": 70,
          "name": "A#4",
          "ticks": 230160,
          "time": 169.98846012500002,
          "velocity": 0.2992125984251969
        },
        {
          "duration": 0.08120966666666618,
          "durationTicks": 116,
          "midi": 74,
          "name": "D5",
          "ticks": 230160,
          "time": 169.98846012500002,
          "velocity": 0.2992125984251969
        },
        {
          "duration": 0.08120966666666618,
          "durationTicks": 116,
          "midi": 70,
          "name": "A#4",
          "ticks": 230400,
          "time": 170.15648012500003,
          "velocity": 0.2992125984251969
        },
        {
          "duration": 0.08120966666666618,
          "durationTicks": 116,
          "midi": 74,
          "name": "D5",
          "ticks": 230400,
          "time": 170.15648012500003,
          "velocity": 0.2992125984251969
        },
        {
          "duration": 0.08120966666666618,
          "durationTicks": 116,
          "midi": 70,
          "name": "A#4",
          "ticks": 230640,
          "time": 170.32450012500001,
          "velocity": 0.2992125984251969
        },
        {
          "duration": 0.08120966666666618,
          "durationTicks": 116,
          "midi": 74,
          "name": "D5",
          "ticks": 230640,
          "time": 170.32450012500001,
          "velocity": 0.2992125984251969
        },
        {
          "duration": 0.08120966666666618,
          "durationTicks": 116,
          "midi": 70,
          "name": "A#4",
          "ticks": 230880,
          "time": 170.49252012500003,
          "velocity": 0.2992125984251969
        },
        {
          "duration": 0.08120966666666618,
          "durationTicks": 116,
          "midi": 74,
          "name": "D5",
          "ticks": 230880,
          "time": 170.49252012500003,
          "velocity": 0.2992125984251969
        },
        {
          "duration": 0.08120966666666618,
          "durationTicks": 116,
          "midi": 69,
          "name": "A4",
          "ticks": 231120,
          "time": 170.660540125,
          "velocity": 0.2992125984251969
        },
        {
          "duration": 0.08120966666666618,
          "durationTicks": 116,
          "midi": 72,
          "name": "C5",
          "ticks": 231120,
          "time": 170.660540125,
          "velocity": 0.2992125984251969
        },
        {
          "duration": 0.08120966666666618,
          "durationTicks": 116,
          "midi": 69,
          "name": "A4",
          "ticks": 231360,
          "time": 170.82856012500002,
          "velocity": 0.2992125984251969
        },
        {
          "duration": 0.08120966666666618,
          "durationTicks": 116,
          "midi": 72,
          "name": "C5",
          "ticks": 231360,
          "time": 170.82856012500002,
          "velocity": 0.2992125984251969
        },
        {
          "duration": 0.08120966666666618,
          "durationTicks": 116,
          "midi": 69,
          "name": "A4",
          "ticks": 231600,
          "time": 170.996580125,
          "velocity": 0.2992125984251969
        },
        {
          "duration": 0.08120966666666618,
          "durationTicks": 116,
          "midi": 72,
          "name": "C5",
          "ticks": 231600,
          "time": 170.996580125,
          "velocity": 0.2992125984251969
        },
        {
          "duration": 0.16521966666667254,
          "durationTicks": 236,
          "midi": 69,
          "name": "A4",
          "ticks": 232080,
          "time": 171.332620125,
          "velocity": 0.2992125984251969
        },
        {
          "duration": 0.16521966666667254,
          "durationTicks": 236,
          "midi": 73,
          "name": "C#5",
          "ticks": 232080,
          "time": 171.332620125,
          "velocity": 0.3779527559055118
        },
        {
          "duration": 0.08120966666666618,
          "durationTicks": 116,
          "midi": 70,
          "name": "A#4",
          "ticks": 232320,
          "time": 171.50064012500002,
          "velocity": 0.2992125984251969
        },
        {
          "duration": 0.08120966666666618,
          "durationTicks": 116,
          "midi": 74,
          "name": "D5",
          "ticks": 232320,
          "time": 171.50064012500002,
          "velocity": 0.2992125984251969
        },
        {
          "duration": 0.16521966666667254,
          "durationTicks": 236,
          "midi": 71,
          "name": "B4",
          "ticks": 232800,
          "time": 171.83668012500002,
          "velocity": 0.2992125984251969
        },
        {
          "duration": 0.16521966666667254,
          "durationTicks": 236,
          "midi": 74,
          "name": "D5",
          "ticks": 232800,
          "time": 171.83668012500002,
          "velocity": 0.3779527559055118
        },
        {
          "duration": 0.08120966666666618,
          "durationTicks": 116,
          "midi": 72,
          "name": "C5",
          "ticks": 233040,
          "time": 172.00470012500003,
          "velocity": 0.2992125984251969
        },
        {
          "duration": 0.08120966666666618,
          "durationTicks": 116,
          "midi": 75,
          "name": "D#5",
          "ticks": 233040,
          "time": 172.00470012500003,
          "velocity": 0.2992125984251969
        },
        {
          "duration": 0.08120966666666618,
          "durationTicks": 116,
          "midi": 74,
          "name": "D5",
          "ticks": 233520,
          "time": 172.34074012500002,
          "velocity": 0.2992125984251969
        },
        {
          "duration": 0.08120966666666618,
          "durationTicks": 116,
          "midi": 77,
          "name": "F5",
          "ticks": 233520,
          "time": 172.34074012500002,
          "velocity": 0.2992125984251969
        },
        {
          "duration": 0.08120966666666618,
          "durationTicks": 116,
          "midi": 74,
          "name": "D5",
          "ticks": 233760,
          "time": 172.508760125,
          "velocity": 0.2992125984251969
        },
        {
          "duration": 0.08120966666666618,
          "durationTicks": 116,
          "midi": 77,
          "name": "F5",
          "ticks": 233760,
          "time": 172.508760125,
          "velocity": 0.2992125984251969
        },
        {
          "duration": 0.08120966666666618,
          "durationTicks": 116,
          "midi": 74,
          "name": "D5",
          "ticks": 234000,
          "time": 172.67678012500002,
          "velocity": 0.2992125984251969
        },
        {
          "duration": 0.08120966666666618,
          "durationTicks": 116,
          "midi": 77,
          "name": "F5",
          "ticks": 234000,
          "time": 172.67678012500002,
          "velocity": 0.2992125984251969
        },
        {
          "duration": 0.08120966666666618,
          "durationTicks": 116,
          "midi": 74,
          "name": "D5",
          "ticks": 234240,
          "time": 172.844800125,
          "velocity": 0.2992125984251969
        },
        {
          "duration": 0.08120966666666618,
          "durationTicks": 116,
          "midi": 77,
          "name": "F5",
          "ticks": 234240,
          "time": 172.844800125,
          "velocity": 0.2992125984251969
        },
        {
          "duration": 0.08120966666666618,
          "durationTicks": 116,
          "midi": 74,
          "name": "D5",
          "ticks": 234480,
          "time": 173.01282012500002,
          "velocity": 0.2992125984251969
        },
        {
          "duration": 0.08120966666666618,
          "durationTicks": 116,
          "midi": 77,
          "name": "F5",
          "ticks": 234480,
          "time": 173.01282012500002,
          "velocity": 0.2992125984251969
        },
        {
          "duration": 0.08120966666666618,
          "durationTicks": 116,
          "midi": 74,
          "name": "D5",
          "ticks": 234720,
          "time": 173.180840125,
          "velocity": 0.4251968503937008
        },
        {
          "duration": 0.16521966666667254,
          "durationTicks": 236,
          "midi": 69,
          "name": "A4",
          "ticks": 234960,
          "time": 173.34886012500002,
          "velocity": 0.33858267716535434
        },
        {
          "duration": 0.08120966666666618,
          "durationTicks": 116,
          "midi": 70,
          "name": "A#4",
          "ticks": 235200,
          "time": 173.51688012500003,
          "velocity": 0.3464566929133858
        },
        {
          "duration": 0.08120966666666618,
          "durationTicks": 116,
          "midi": 75,
          "name": "D#5",
          "ticks": 235440,
          "time": 173.684900125,
          "velocity": 0.3543307086614173
        },
        {
          "duration": 0.16521966666664412,
          "durationTicks": 236,
          "midi": 71,
          "name": "B4",
          "ticks": 235680,
          "time": 173.85292012500003,
          "velocity": 0.3464566929133858
        },
        {
          "duration": 0.08120966666666618,
          "durationTicks": 116,
          "midi": 72,
          "name": "C5",
          "ticks": 235920,
          "time": 174.020940125,
          "velocity": 0.3543307086614173
        },
        {
          "duration": 0.3052363333333403,
          "durationTicks": 436,
          "midi": 77,
          "name": "F5",
          "ticks": 236160,
          "time": 174.18896012500002,
          "velocity": 0.3543307086614173
        },
        {
          "duration": 0.053206333333321254,
          "durationTicks": 76,
          "midi": 79,
          "name": "G5",
          "ticks": 236576,
          "time": 174.4801947916667,
          "velocity": 0.4251968503937008
        },
        {
          "duration": 0.053206333333349676,
          "durationTicks": 76,
          "midi": 77,
          "name": "F5",
          "ticks": 236648,
          "time": 174.53060079166667,
          "velocity": 0.3543307086614173
        },
        {
          "duration": 0.053206333333349676,
          "durationTicks": 76,
          "midi": 76,
          "name": "E5",
          "ticks": 236728,
          "time": 174.58660745833333,
          "velocity": 0.3464566929133858
        },
        {
          "duration": 0.053206333333349676,
          "durationTicks": 76,
          "midi": 77,
          "name": "F5",
          "ticks": 236800,
          "time": 174.63701345833334,
          "velocity": 0.29133858267716534
        },
        {
          "duration": 0.2492296666666789,
          "durationTicks": 356,
          "midi": 82,
          "name": "A#5",
          "ticks": 236880,
          "time": 174.693020125,
          "velocity": 0.2047244094488189
        },
        {
          "duration": 0.08120966666666618,
          "durationTicks": 116,
          "midi": 65,
          "name": "F4",
          "ticks": 263520,
          "time": 193.34324012500002,
          "velocity": 0.2047244094488189
        },
        {
          "duration": 0.16521966666667254,
          "durationTicks": 236,
          "midi": 68,
          "name": "G#4",
          "ticks": 264000,
          "time": 193.67928012500002,
          "velocity": 0.2047244094488189
        },
        {
          "duration": 0.08120966666666618,
          "durationTicks": 116,
          "midi": 72,
          "name": "C5",
          "ticks": 264240,
          "time": 193.847300125,
          "velocity": 0.2047244094488189
        },
        {
          "duration": 0.16521966666664412,
          "durationTicks": 236,
          "midi": 77,
          "name": "F5",
          "ticks": 264720,
          "time": 194.18334012500003,
          "velocity": 0.2047244094488189
        },
        {
          "duration": 0.6692796666666538,
          "durationTicks": 956,
          "midi": 72,
          "name": "C5",
          "ticks": 264960,
          "time": 194.351360125,
          "velocity": 0.2047244094488189
        },
        {
          "duration": 0.16521966666667254,
          "durationTicks": 236,
          "midi": 70,
          "name": "A#4",
          "ticks": 265920,
          "time": 195.023440125,
          "velocity": 0.2047244094488189
        },
        {
          "duration": 0.16521966666667254,
          "durationTicks": 236,
          "midi": 67,
          "name": "G4",
          "ticks": 266160,
          "time": 195.19146012500002,
          "velocity": 0.2047244094488189
        },
        {
          "duration": 0.33323966666668525,
          "durationTicks": 476,
          "midi": 65,
          "name": "F4",
          "ticks": 266400,
          "time": 195.359480125,
          "velocity": 0.2047244094488189
        },
        {
          "duration": 0.16521966666667254,
          "durationTicks": 236,
          "midi": 67,
          "name": "G4",
          "ticks": 270480,
          "time": 198.21582012500002,
          "velocity": 0.2047244094488189
        },
        {
          "duration": 0.6692796666666823,
          "durationTicks": 956,
          "midi": 72,
          "name": "C5",
          "ticks": 270720,
          "time": 198.383840125,
          "velocity": 0.2047244094488189
        },
        {
          "duration": 0.16521966666667254,
          "durationTicks": 236,
          "midi": 69,
          "name": "A4",
          "ticks": 271680,
          "time": 199.055920125,
          "velocity": 0.2047244094488189
        },
        {
          "duration": 0.16521966666667254,
          "durationTicks": 236,
          "midi": 66,
          "name": "F#4",
          "ticks": 271920,
          "time": 199.223940125,
          "velocity": 0.2047244094488189
        },
        {
          "duration": 0.16521966666664412,
          "durationTicks": 236,
          "midi": 67,
          "name": "G4",
          "ticks": 272160,
          "time": 199.39196012500003,
          "velocity": 0.2047244094488189
        },
        {
          "duration": 0.08120966666666618,
          "durationTicks": 116,
          "midi": 62,
          "name": "D4",
          "ticks": 275040,
          "time": 201.408200125,
          "velocity": 0.25984251968503935
        },
        {
          "duration": 0.16521966666664412,
          "durationTicks": 236,
          "midi": 65,
          "name": "F4",
          "ticks": 275520,
          "time": 201.74424012500003,
          "velocity": 0.29133858267716534
        },
        {
          "duration": 0.08120966666666618,
          "durationTicks": 116,
          "midi": 69,
          "name": "A4",
          "ticks": 275760,
          "time": 201.91226012500002,
          "velocity": 0.30708661417322836
        },
        {
          "duration": 0.16521966666667254,
          "durationTicks": 236,
          "midi": 62,
          "name": "D4",
          "ticks": 276240,
          "time": 202.24830012500001,
          "velocity": 0.3464566929133858
        },
        {
          "duration": 3.1895796666666456,
          "durationTicks": 4556,
          "midi": 74,
          "name": "D5",
          "ticks": 276480,
          "time": 202.41632012500003,
          "velocity": 0.3464566929133858
        },
        {
          "duration": 0.10921299999998269,
          "durationTicks": 156,
          "midi": 74,
          "name": "D5",
          "ticks": 282240,
          "time": 206.44880012500002,
          "velocity": 0.1889763779527559
        },
        {
          "duration": 0.10921299999998269,
          "durationTicks": 156,
          "midi": 77,
          "name": "F5",
          "ticks": 282240,
          "time": 206.44880012500002,
          "velocity": 0.1889763779527559
        },
        {
          "duration": 0.10921299999998269,
          "durationTicks": 156,
          "midi": 74,
          "name": "D5",
          "ticks": 282960,
          "time": 206.95286012500003,
          "velocity": 0.1889763779527559
        },
        {
          "duration": 0.10921299999998269,
          "durationTicks": 156,
          "midi": 77,
          "name": "F5",
          "ticks": 282960,
          "time": 206.95286012500003,
          "velocity": 0.1889763779527559
        },
        {
          "duration": 0.22370538333333911,
          "durationTicks": 236,
          "midi": 74,
          "name": "D5",
          "ticks": 283680,
          "time": 207.456920125,
          "velocity": 0.1732283464566929
        },
        {
          "duration": 0.22370538333333911,
          "durationTicks": 236,
          "midi": 77,
          "name": "F5",
          "ticks": 283680,
          "time": 207.456920125,
          "velocity": 0.1732283464566929
        },
        {
          "duration": 2.11467000833332,
          "durationTicks": 956,
          "midi": 77,
          "name": "F5",
          "ticks": 286560,
          "time": 210.095879125,
          "velocity": 0.3464566929133858
        },
        {
          "duration": 2.11467000833332,
          "durationTicks": 956,
          "midi": 80,
          "name": "G#5",
          "ticks": 286560,
          "time": 210.095879125,
          "velocity": 0.4251968503937008
        },
        {
          "duration": 0.08307074166665984,
          "durationTicks": 116,
          "midi": 66,
          "name": "F#4",
          "ticks": 296640,
          "time": 220.530817125,
          "velocity": 0.1889763779527559
        },
        {
          "duration": 0.08307074166665984,
          "durationTicks": 116,
          "midi": 75,
          "name": "D#5",
          "ticks": 296640,
          "time": 220.530817125,
          "velocity": 0.1889763779527559
        },
        {
          "duration": 0.08307074166668826,
          "durationTicks": 116,
          "midi": 68,
          "name": "G#4",
          "ticks": 297360,
          "time": 221.04642862499998,
          "velocity": 0.1889763779527559
        },
        {
          "duration": 0.08307074166668826,
          "durationTicks": 116,
          "midi": 77,
          "name": "F5",
          "ticks": 297360,
          "time": 221.04642862499998,
          "velocity": 0.1889763779527559
        },
        {
          "duration": 0.5127469916666598,
          "durationTicks": 716,
          "midi": 70,
          "name": "A#4",
          "ticks": 298080,
          "time": 221.56204012499998,
          "velocity": 0.1889763779527559
        },
        {
          "duration": 0.5127469916666598,
          "durationTicks": 716,
          "midi": 78,
          "name": "F#5",
          "ticks": 298080,
          "time": 221.56204012499998,
          "velocity": 0.1889763779527559
        },
        {
          "duration": 0.14036090833332082,
          "durationTicks": 196,
          "midi": 66,
          "name": "F#4",
          "ticks": 298800,
          "time": 222.077651625,
          "velocity": 0.1889763779527559
        },
        {
          "duration": 0.14036090833332082,
          "durationTicks": 196,
          "midi": 75,
          "name": "D#5",
          "ticks": 298800,
          "time": 222.077651625,
          "velocity": 0.1889763779527559
        },
        {
          "duration": 1.0283584916666655,
          "durationTicks": 1436,
          "midi": 78,
          "name": "F#5",
          "ticks": 300960,
          "time": 223.62448612499998,
          "velocity": 0.1889763779527559
        },
        {
          "duration": 0.5127469916666598,
          "durationTicks": 716,
          "midi": 77,
          "name": "F5",
          "ticks": 302400,
          "time": 224.655709125,
          "velocity": 0.1889763779527559
        },
        {
          "duration": 0.5986822416666655,
          "durationTicks": 836,
          "midi": 79,
          "name": "G5",
          "ticks": 303120,
          "time": 225.171320625,
          "velocity": 0.1889763779527559
        },
        {
          "duration": 1.0283584916666655,
          "durationTicks": 1436,
          "midi": 80,
          "name": "G#5",
          "ticks": 303840,
          "time": 225.686932125,
          "velocity": 0.1889763779527559
        },
        {
          "duration": 0.5127469916666598,
          "durationTicks": 716,
          "midi": 79,
          "name": "G5",
          "ticks": 305280,
          "time": 226.71815512499998,
          "velocity": 0.1968503937007874
        },
        {
          "duration": 0.5127469916666598,
          "durationTicks": 716,
          "midi": 81,
          "name": "A5",
          "ticks": 306000,
          "time": 227.233766625,
          "velocity": 0.1968503937007874
        },
        {
          "duration": 1.0283584916666655,
          "durationTicks": 1436,
          "midi": 82,
          "name": "A#5",
          "ticks": 306720,
          "time": 227.749378125,
          "velocity": 0.1889763779527559
        },
        {
          "duration": 0.6846174916666712,
          "durationTicks": 956,
          "midi": 81,
          "name": "A5",
          "ticks": 308160,
          "time": 228.78060112499998,
          "velocity": 0.14173228346456693
        },
        {
          "duration": 0.08307074166665984,
          "durationTicks": 116,
          "midi": 69,
          "name": "A4",
          "ticks": 331920,
          "time": 246.233247625,
          "velocity": 0.2125984251968504
        },
        {
          "duration": 0.08307074166665984,
          "durationTicks": 116,
          "midi": 75,
          "name": "D#5",
          "ticks": 331920,
          "time": 246.233247625,
          "velocity": 0.2755905511811024
        },
        {
          "duration": 0.08307074166665984,
          "durationTicks": 116,
          "midi": 69,
          "name": "A4",
          "ticks": 332160,
          "time": 246.405118125,
          "velocity": 0.2125984251968504
        },
        {
          "duration": 0.08307074166665984,
          "durationTicks": 116,
          "midi": 75,
          "name": "D#5",
          "ticks": 332160,
          "time": 246.405118125,
          "velocity": 0.2755905511811024
        },
        {
          "duration": 0.08307074166665984,
          "durationTicks": 116,
          "midi": 69,
          "name": "A4",
          "ticks": 332400,
          "time": 246.57698862499998,
          "velocity": 0.2125984251968504
        },
        {
          "duration": 0.08307074166665984,
          "durationTicks": 116,
          "midi": 75,
          "name": "D#5",
          "ticks": 332400,
          "time": 246.57698862499998,
          "velocity": 0.2755905511811024
        },
        {
          "duration": 0.2549412416666712,
          "durationTicks": 356,
          "midi": 70,
          "name": "A#4",
          "ticks": 332640,
          "time": 246.748859125,
          "velocity": 0.18110236220472442
        },
        {
          "duration": 0.2549412416666712,
          "durationTicks": 356,
          "midi": 74,
          "name": "D5",
          "ticks": 332640,
          "time": 246.748859125,
          "velocity": 0.2283464566929134
        },
        {
          "duration": 0.08307074166665984,
          "durationTicks": 116,
          "midi": 72,
          "name": "C5",
          "ticks": 333360,
          "time": 247.264470625,
          "velocity": 0.1889763779527559
        },
        {
          "duration": 0.08307074166665984,
          "durationTicks": 116,
          "midi": 75,
          "name": "D#5",
          "ticks": 333360,
          "time": 247.264470625,
          "velocity": 0.2440944881889764
        },
        {
          "duration": 0.08307074166665984,
          "durationTicks": 116,
          "midi": 72,
          "name": "C5",
          "ticks": 333600,
          "time": 247.43634112499998,
          "velocity": 0.1889763779527559
        },
        {
          "duration": 0.08307074166665984,
          "durationTicks": 116,
          "midi": 75,
          "name": "D#5",
          "ticks": 333600,
          "time": 247.43634112499998,
          "velocity": 0.2440944881889764
        },
        {
          "duration": 0.08307074166665984,
          "durationTicks": 116,
          "midi": 72,
          "name": "C5",
          "ticks": 333840,
          "time": 247.608211625,
          "velocity": 0.1889763779527559
        },
        {
          "duration": 0.08307074166665984,
          "durationTicks": 116,
          "midi": 75,
          "name": "D#5",
          "ticks": 333840,
          "time": 247.608211625,
          "velocity": 0.2440944881889764
        },
        {
          "duration": 0.16900599166666552,
          "durationTicks": 236,
          "midi": 70,
          "name": "A#4",
          "ticks": 334080,
          "time": 247.78008212499998,
          "velocity": 0.1889763779527559
        },
        {
          "duration": 0.16900599166666552,
          "durationTicks": 236,
          "midi": 74,
          "name": "D5",
          "ticks": 334080,
          "time": 247.78008212499998,
          "velocity": 0.2440944881889764
        },
        {
          "duration": 0.16900599166666552,
          "durationTicks": 236,
          "midi": 70,
          "name": "A#4",
          "ticks": 334320,
          "time": 247.951952625,
          "velocity": 0.2755905511811024
        },
        {
          "duration": 0.16900599166666552,
          "durationTicks": 236,
          "midi": 72,
          "name": "C5",
          "ticks": 334560,
          "time": 248.123823125,
          "velocity": 0.28346456692913385
        },
        {
          "duration": 0.3408764916666769,
          "durationTicks": 476,
          "midi": 74,
          "name": "D5",
          "ticks": 334800,
          "time": 248.29569362499998,
          "velocity": 0.29133858267716534
        },
        {
          "duration": 0.16900599166666552,
          "durationTicks": 236,
          "midi": 76,
          "name": "E5",
          "ticks": 335280,
          "time": 248.63943462499998,
          "velocity": 0.33070866141732286
        },
        {
          "duration": 0.2549412416666712,
          "durationTicks": 356,
          "midi": 77,
          "name": "F5",
          "ticks": 335520,
          "time": 248.811305125,
          "velocity": 0.33858267716535434
        },
        {
          "duration": 0.04010311666667121,
          "durationTicks": 56,
          "midi": 72,
          "name": "C5",
          "ticks": 338640,
          "time": 251.045621625,
          "velocity": 0.25196850393700787
        },
        {
          "duration": 0.04010311666667121,
          "durationTicks": 56,
          "midi": 81,
          "name": "A5",
          "ticks": 338640,
          "time": 251.045621625,
          "velocity": 0.25196850393700787
        },
        {
          "duration": 0.04010311666667121,
          "durationTicks": 56,
          "midi": 72,
          "name": "C5",
          "ticks": 338880,
          "time": 251.21749212499998,
          "velocity": 0.25196850393700787
        },
        {
          "duration": 0.04010311666667121,
          "durationTicks": 56,
          "midi": 81,
          "name": "A5",
          "ticks": 338880,
          "time": 251.21749212499998,
          "velocity": 0.25196850393700787
        },
        {
          "duration": 0.16900599166666552,
          "durationTicks": 236,
          "midi": 72,
          "name": "C5",
          "ticks": 339120,
          "time": 251.389362625,
          "velocity": 0.1732283464566929
        },
        {
          "duration": 0.16900599166666552,
          "durationTicks": 236,
          "midi": 81,
          "name": "A5",
          "ticks": 339120,
          "time": 251.389362625,
          "velocity": 0.1732283464566929
        },
        {
          "duration": 0.04010311666667121,
          "durationTicks": 56,
          "midi": 69,
          "name": "A4",
          "ticks": 342240,
          "time": 253.623679125,
          "velocity": 0.25196850393700787
        },
        {
          "duration": 0.04010311666667121,
          "durationTicks": 56,
          "midi": 78,
          "name": "F#5",
          "ticks": 342240,
          "time": 253.623679125,
          "velocity": 0.25196850393700787
        },
        {
          "duration": 0.04010311666667121,
          "durationTicks": 56,
          "midi": 69,
          "name": "A4",
          "ticks": 342480,
          "time": 253.79554962499998,
          "velocity": 0.25196850393700787
        },
        {
          "duration": 0.04010311666667121,
          "durationTicks": 56,
          "midi": 78,
          "name": "F#5",
          "ticks": 342480,
          "time": 253.79554962499998,
          "velocity": 0.25196850393700787
        },
        {
          "duration": 0.16900599166666552,
          "durationTicks": 236,
          "midi": 69,
          "name": "A4",
          "ticks": 342720,
          "time": 253.967420125,
          "velocity": 0.1732283464566929
        },
        {
          "duration": 0.16900599166666552,
          "durationTicks": 236,
          "midi": 78,
          "name": "F#5",
          "ticks": 342720,
          "time": 253.967420125,
          "velocity": 0.1732283464566929
        },
        {
          "duration": 0.04010311666667121,
          "durationTicks": 56,
          "midi": 71,
          "name": "B4",
          "ticks": 345120,
          "time": 255.686125125,
          "velocity": 0.25196850393700787
        },
        {
          "duration": 0.04010311666667121,
          "durationTicks": 56,
          "midi": 80,
          "name": "G#5",
          "ticks": 345120,
          "time": 255.686125125,
          "velocity": 0.25196850393700787
        },
        {
          "duration": 0.04010311666667121,
          "durationTicks": 56,
          "midi": 71,
          "name": "B4",
          "ticks": 345360,
          "time": 255.857995625,
          "velocity": 0.25196850393700787
        },
        {
          "duration": 0.04010311666667121,
          "durationTicks": 56,
          "midi": 80,
          "name": "G#5",
          "ticks": 345360,
          "time": 255.857995625,
          "velocity": 0.25196850393700787
        },
        {
          "duration": 0.16900599166666552,
          "durationTicks": 236,
          "midi": 71,
          "name": "B4",
          "ticks": 345600,
          "time": 256.029866125,
          "velocity": 0.1732283464566929
        },
        {
          "duration": 0.16900599166666552,
          "durationTicks": 236,
          "midi": 80,
          "name": "G#5",
          "ticks": 345600,
          "time": 256.029866125,
          "velocity": 0.1732283464566929
        },
        {
          "duration": 0.05442565833334356,
          "durationTicks": 76,
          "midi": 65,
          "name": "F4",
          "ticks": 348720,
          "time": 258.264182625,
          "velocity": 0.2047244094488189
        },
        {
          "duration": 0.05442565833334356,
          "durationTicks": 76,
          "midi": 71,
          "name": "B4",
          "ticks": 348720,
          "time": 258.264182625,
          "velocity": 0.2047244094488189
        },
        {
          "duration": 0.05442565833334356,
          "durationTicks": 76,
          "midi": 65,
          "name": "F4",
          "ticks": 348960,
          "time": 258.436053125,
          "velocity": 0.2047244094488189
        },
        {
          "duration": 0.05442565833334356,
          "durationTicks": 76,
          "midi": 71,
          "name": "B4",
          "ticks": 348960,
          "time": 258.436053125,
          "velocity": 0.2047244094488189
        },
        {
          "duration": 0.05442565833328672,
          "durationTicks": 76,
          "midi": 65,
          "name": "F4",
          "ticks": 349200,
          "time": 258.607923625,
          "velocity": 0.2204724409448819
        },
        {
          "duration": 0.05442565833328672,
          "durationTicks": 76,
          "midi": 71,
          "name": "B4",
          "ticks": 349200,
          "time": 258.607923625,
          "velocity": 0.2204724409448819
        },
        {
          "duration": 0.05442565833334356,
          "durationTicks": 76,
          "midi": 65,
          "name": "F4",
          "ticks": 349440,
          "time": 258.77979412499997,
          "velocity": 0.2204724409448819
        },
        {
          "duration": 0.05442565833334356,
          "durationTicks": 76,
          "midi": 71,
          "name": "B4",
          "ticks": 349440,
          "time": 258.77979412499997,
          "velocity": 0.2204724409448819
        },
        {
          "duration": 0.05442565833334356,
          "durationTicks": 76,
          "midi": 65,
          "name": "F4",
          "ticks": 349680,
          "time": 258.951664625,
          "velocity": 0.23622047244094488
        },
        {
          "duration": 0.05442565833334356,
          "durationTicks": 76,
          "midi": 71,
          "name": "B4",
          "ticks": 349680,
          "time": 258.951664625,
          "velocity": 0.23622047244094488
        },
        {
          "duration": 0.22629615833335492,
          "durationTicks": 316,
          "midi": 67,
          "name": "G4",
          "ticks": 349920,
          "time": 259.123535125,
          "velocity": 0.2047244094488189
        },
        {
          "duration": 0.22629615833335492,
          "durationTicks": 316,
          "midi": 72,
          "name": "C5",
          "ticks": 349920,
          "time": 259.123535125,
          "velocity": 0.2047244094488189
        },
        {
          "duration": 0.05442565833328672,
          "durationTicks": 76,
          "midi": 65,
          "name": "F4",
          "ticks": 351600,
          "time": 260.326628625,
          "velocity": 0.1968503937007874
        },
        {
          "duration": 0.05442565833328672,
          "durationTicks": 76,
          "midi": 71,
          "name": "B4",
          "ticks": 351600,
          "time": 260.326628625,
          "velocity": 0.1968503937007874
        },
        {
          "duration": 0.05442565833334356,
          "durationTicks": 76,
          "midi": 65,
          "name": "F4",
          "ticks": 351840,
          "time": 260.49849912499997,
          "velocity": 0.2125984251968504
        },
        {
          "duration": 0.05442565833334356,
          "durationTicks": 76,
          "midi": 71,
          "name": "B4",
          "ticks": 351840,
          "time": 260.49849912499997,
          "velocity": 0.2125984251968504
        },
        {
          "duration": 0.05442565833334356,
          "durationTicks": 76,
          "midi": 65,
          "name": "F4",
          "ticks": 352080,
          "time": 260.670369625,
          "velocity": 0.2283464566929134
        },
        {
          "duration": 0.05442565833334356,
          "durationTicks": 76,
          "midi": 71,
          "name": "B4",
          "ticks": 352080,
          "time": 260.670369625,
          "velocity": 0.2283464566929134
        },
        {
          "duration": 0.05442565833334356,
          "durationTicks": 76,
          "midi": 65,
          "name": "F4",
          "ticks": 352320,
          "time": 260.842240125,
          "velocity": 0.2440944881889764
        },
        {
          "duration": 0.05442565833334356,
          "durationTicks": 76,
          "midi": 71,
          "name": "B4",
          "ticks": 352320,
          "time": 260.842240125,
          "velocity": 0.2440944881889764
        },
        {
          "duration": 0.05442565833334356,
          "durationTicks": 76,
          "midi": 65,
          "name": "F4",
          "ticks": 352560,
          "time": 261.014110625,
          "velocity": 0.25984251968503935
        },
        {
          "duration": 0.05442565833334356,
          "durationTicks": 76,
          "midi": 71,
          "name": "B4",
          "ticks": 352560,
          "time": 261.014110625,
          "velocity": 0.25984251968503935
        },
        {
          "duration": 0.22629615833329808,
          "durationTicks": 316,
          "midi": 67,
          "name": "G4",
          "ticks": 352800,
          "time": 261.185981125,
          "velocity": 0.25196850393700787
        },
        {
          "duration": 0.22629615833329808,
          "durationTicks": 316,
          "midi": 72,
          "name": "C5",
          "ticks": 352800,
          "time": 261.185981125,
          "velocity": 0.25196850393700787
        },
        {
          "duration": 0.05442565833334356,
          "durationTicks": 76,
          "midi": 63,
          "name": "D#4",
          "ticks": 354480,
          "time": 262.389074625,
          "velocity": 0.2204724409448819
        },
        {
          "duration": 0.05442565833334356,
          "durationTicks": 76,
          "midi": 69,
          "name": "A4",
          "ticks": 354480,
          "time": 262.389074625,
          "velocity": 0.2204724409448819
        },
        {
          "duration": 0.05442565833334356,
          "durationTicks": 76,
          "midi": 63,
          "name": "D#4",
          "ticks": 354720,
          "time": 262.560945125,
          "velocity": 0.2283464566929134
        },
        {
          "duration": 0.05442565833334356,
          "durationTicks": 76,
          "midi": 69,
          "name": "A4",
          "ticks": 354720,
          "time": 262.560945125,
          "velocity": 0.2283464566929134
        },
        {
          "duration": 0.05442565833334356,
          "durationTicks": 76,
          "midi": 63,
          "name": "D#4",
          "ticks": 354960,
          "time": 262.732815625,
          "velocity": 0.2440944881889764
        },
        {
          "duration": 0.05442565833334356,
          "durationTicks": 76,
          "midi": 69,
          "name": "A4",
          "ticks": 354960,
          "time": 262.732815625,
          "velocity": 0.2440944881889764
        },
        {
          "duration": 0.05442565833328672,
          "durationTicks": 76,
          "midi": 63,
          "name": "D#4",
          "ticks": 355200,
          "time": 262.904686125,
          "velocity": 0.25196850393700787
        },
        {
          "duration": 0.05442565833328672,
          "durationTicks": 76,
          "midi": 69,
          "name": "A4",
          "ticks": 355200,
          "time": 262.904686125,
          "velocity": 0.25196850393700787
        },
        {
          "duration": 0.05442565833334356,
          "durationTicks": 76,
          "midi": 63,
          "name": "D#4",
          "ticks": 355440,
          "time": 263.07655662499997,
          "velocity": 0.2677165354330709
        },
        {
          "duration": 0.05442565833334356,
          "durationTicks": 76,
          "midi": 69,
          "name": "A4",
          "ticks": 355440,
          "time": 263.07655662499997,
          "velocity": 0.2677165354330709
        },
        {
          "duration": 0.22629615833335492,
          "durationTicks": 316,
          "midi": 65,
          "name": "F4",
          "ticks": 355680,
          "time": 263.248427125,
          "velocity": 0.25196850393700787
        },
        {
          "duration": 0.22629615833335492,
          "durationTicks": 316,
          "midi": 70,
          "name": "A#4",
          "ticks": 355680,
          "time": 263.248427125,
          "velocity": 0.25196850393700787
        },
        {
          "duration": 1.0283584916666655,
          "durationTicks": 1436,
          "midi": 69,
          "name": "A4",
          "ticks": 364320,
          "time": 269.435765125,
          "velocity": 0.1889763779527559
        },
        {
          "duration": 1.0283584916666655,
          "durationTicks": 1436,
          "midi": 72,
          "name": "C5",
          "ticks": 364320,
          "time": 269.435765125,
          "velocity": 0.23622047244094488
        },
        {
          "duration": 1.0283584916666655,
          "durationTicks": 1436,
          "midi": 70,
          "name": "A#4",
          "ticks": 365760,
          "time": 270.466988125,
          "velocity": 0.1889763779527559
        },
        {
          "duration": 1.0283584916666655,
          "durationTicks": 1436,
          "midi": 73,
          "name": "C#5",
          "ticks": 365760,
          "time": 270.466988125,
          "velocity": 0.1889763779527559
        },
        {
          "duration": 0.14036090833332082,
          "durationTicks": 196,
          "midi": 69,
          "name": "A4",
          "ticks": 367200,
          "time": 271.498211125,
          "velocity": 0.33070866141732286
        },
        {
          "duration": 0.14036090833332082,
          "durationTicks": 196,
          "midi": 72,
          "name": "C5",
          "ticks": 367200,
          "time": 271.498211125,
          "velocity": 0.33070866141732286
        },
        {
          "duration": 0.16900599166666552,
          "durationTicks": 236,
          "midi": 69,
          "name": "A4",
          "ticks": 367680,
          "time": 271.841952125,
          "velocity": 0.3464566929133858
        },
        {
          "duration": 0.11171582500003296,
          "durationTicks": 156,
          "midi": 72,
          "name": "C5",
          "ticks": 367920,
          "time": 272.013822625,
          "velocity": 0.36220472440944884
        },
        {
          "duration": 0.16900599166666552,
          "durationTicks": 236,
          "midi": 76,
          "name": "E5",
          "ticks": 368400,
          "time": 272.357563625,
          "velocity": 0.3937007874015748
        },
        {
          "duration": 0.11171582500003296,
          "durationTicks": 156,
          "midi": 77,
          "name": "F5",
          "ticks": 368640,
          "time": 272.52943412499997,
          "velocity": 0.3464566929133858
        },
        {
          "duration": 0.16900599166666552,
          "durationTicks": 236,
          "midi": 70,
          "name": "A#4",
          "ticks": 371280,
          "time": 274.420009625,
          "velocity": 0.23622047244094488
        },
        {
          "duration": 0.16900599166666552,
          "durationTicks": 236,
          "midi": 82,
          "name": "A#5",
          "ticks": 371280,
          "time": 274.420009625,
          "velocity": 0.31496062992125984
        },
        {
          "duration": 0.08307074166668826,
          "durationTicks": 116,
          "midi": 69,
          "name": "A4",
          "ticks": 371520,
          "time": 274.591880125,
          "velocity": 0.2283464566929134
        },
        {
          "duration": 0.08307074166668826,
          "durationTicks": 116,
          "midi": 81,
          "name": "A5",
          "ticks": 371520,
          "time": 274.591880125,
          "velocity": 0.30708661417322836
        },
        {
          "duration": 0.16900599166666552,
          "durationTicks": 236,
          "midi": 68,
          "name": "G#4",
          "ticks": 372000,
          "time": 274.935621125,
          "velocity": 0.2204724409448819
        },
        {
          "duration": 0.16900599166666552,
          "durationTicks": 236,
          "midi": 80,
          "name": "G#5",
          "ticks": 372000,
          "time": 274.935621125,
          "velocity": 0.2992125984251969
        },
        {
          "duration": 0.08307074166668826,
          "durationTicks": 116,
          "midi": 67,
          "name": "G4",
          "ticks": 372240,
          "time": 275.10749162499997,
          "velocity": 0.2125984251968504
        },
        {
          "duration": 0.08307074166668826,
          "durationTicks": 116,
          "midi": 79,
          "name": "G5",
          "ticks": 372240,
          "time": 275.10749162499997,
          "velocity": 0.29133858267716534
        },
        {
          "duration": 0.16900599166666552,
          "durationTicks": 236,
          "midi": 66,
          "name": "F#4",
          "ticks": 372720,
          "time": 275.451232625,
          "velocity": 0.1968503937007874
        },
        {
          "duration": 0.16900599166666552,
          "durationTicks": 236,
          "midi": 78,
          "name": "F#5",
          "ticks": 372720,
          "time": 275.451232625,
          "velocity": 0.2755905511811024
        },
        {
          "duration": 0.16900599166666552,
          "durationTicks": 236,
          "midi": 65,
          "name": "F4",
          "ticks": 372960,
          "time": 275.623103125,
          "velocity": 0.1889763779527559
        },
        {
          "duration": 0.16900599166666552,
          "durationTicks": 236,
          "midi": 77,
          "name": "F5",
          "ticks": 372960,
          "time": 275.623103125,
          "velocity": 0.2677165354330709
        },
        {
          "duration": 0.08307074166663142,
          "durationTicks": 116,
          "midi": 65,
          "name": "F4",
          "ticks": 374400,
          "time": 276.654326125,
          "velocity": 0.1968503937007874
        },
        {
          "duration": 0.08307074166668826,
          "durationTicks": 116,
          "midi": 67,
          "name": "G4",
          "ticks": 374520,
          "time": 276.740261375,
          "velocity": 0.1968503937007874
        },
        {
          "duration": 0.08307074166668826,
          "durationTicks": 116,
          "midi": 69,
          "name": "A4",
          "ticks": 374640,
          "time": 276.82619662499997,
          "velocity": 0.2047244094488189
        },
        {
          "duration": 0.08307074166668826,
          "durationTicks": 116,
          "midi": 70,
          "name": "A#4",
          "ticks": 374760,
          "time": 276.912131875,
          "velocity": 0.2204724409448819
        },
        {
          "duration": 0.08307074166668826,
          "durationTicks": 116,
          "midi": 72,
          "name": "C5",
          "ticks": 374880,
          "time": 276.998067125,
          "velocity": 0.2283464566929134
        },
        {
          "duration": 0.08307074166663142,
          "durationTicks": 116,
          "midi": 74,
          "name": "D5",
          "ticks": 375000,
          "time": 277.084002375,
          "velocity": 0.23622047244094488
        },
        {
          "duration": 0.08307074166668826,
          "durationTicks": 116,
          "midi": 72,
          "name": "C5",
          "ticks": 375120,
          "time": 277.169937625,
          "velocity": 0.25196850393700787
        },
        {
          "duration": 0.08307074166668826,
          "durationTicks": 116,
          "midi": 75,
          "name": "D#5",
          "ticks": 375120,
          "time": 277.169937625,
          "velocity": 0.25196850393700787
        },
        {
          "duration": 0.08307074166663142,
          "durationTicks": 116,
          "midi": 74,
          "name": "D5",
          "ticks": 375240,
          "time": 277.255872875,
          "velocity": 0.25984251968503935
        },
        {
          "duration": 0.08307074166663142,
          "durationTicks": 116,
          "midi": 72,
          "name": "C5",
          "ticks": 375360,
          "time": 277.341808125,
          "velocity": 0.28346456692913385
        },
        {
          "duration": 0.08307074166663142,
          "durationTicks": 116,
          "midi": 75,
          "name": "D#5",
          "ticks": 375360,
          "time": 277.341808125,
          "velocity": 0.28346456692913385
        },
        {
          "duration": 0.08307074166668826,
          "durationTicks": 116,
          "midi": 74,
          "name": "D5",
          "ticks": 375480,
          "time": 277.427743375,
          "velocity": 0.2992125984251969
        },
        {
          "duration": 0.08307074166663142,
          "durationTicks": 116,
          "midi": 72,
          "name": "C5",
          "ticks": 375600,
          "time": 277.513678625,
          "velocity": 0.30708661417322836
        },
        {
          "duration": 0.08307074166663142,
          "durationTicks": 116,
          "midi": 75,
          "name": "D#5",
          "ticks": 375600,
          "time": 277.513678625,
          "velocity": 0.30708661417322836
        },
        {
          "duration": 0.08307074166668826,
          "durationTicks": 116,
          "midi": 74,
          "name": "D5",
          "ticks": 375720,
          "time": 277.599613875,
          "velocity": 0.3228346456692913
        },
        {
          "duration": 0.3408764916666769,
          "durationTicks": 476,
          "midi": 72,
          "name": "C5",
          "ticks": 375840,
          "time": 277.68554912499997,
          "velocity": 0.1889763779527559
        },
        {
          "duration": 0.3408764916666769,
          "durationTicks": 476,
          "midi": 75,
          "name": "D#5",
          "ticks": 375840,
          "time": 277.68554912499997,
          "velocity": 0.2283464566929134
        },
        {
          "duration": 0.05442565833334356,
          "durationTicks": 76,
          "midi": 72,
          "name": "C5",
          "ticks": 378000,
          "time": 279.232383625,
          "velocity": 0.1889763779527559
        },
        {
          "duration": 0.05442565833334356,
          "durationTicks": 76,
          "midi": 82,
          "name": "A#5",
          "ticks": 378000,
          "time": 279.232383625,
          "velocity": 0.2677165354330709
        },
        {
          "duration": 0.05442565833334356,
          "durationTicks": 76,
          "midi": 72,
          "name": "C5",
          "ticks": 378240,
          "time": 279.40425412499997,
          "velocity": 0.1889763779527559
        },
        {
          "duration": 0.05442565833334356,
          "durationTicks": 76,
          "midi": 82,
          "name": "A#5",
          "ticks": 378240,
          "time": 279.40425412499997,
          "velocity": 0.2677165354330709
        },
        {
          "duration": 0.05442565833334356,
          "durationTicks": 76,
          "midi": 72,
          "name": "C5",
          "ticks": 378480,
          "time": 279.576124625,
          "velocity": 0.1889763779527559
        },
        {
          "duration": 0.05442565833334356,
          "durationTicks": 76,
          "midi": 82,
          "name": "A#5",
          "ticks": 378480,
          "time": 279.576124625,
          "velocity": 0.2677165354330709
        },
        {
          "duration": 0.3408764916666769,
          "durationTicks": 476,
          "midi": 72,
          "name": "C5",
          "ticks": 378720,
          "time": 279.747995125,
          "velocity": 0.1889763779527559
        },
        {
          "duration": 0.3408764916666769,
          "durationTicks": 476,
          "midi": 81,
          "name": "A5",
          "ticks": 378720,
          "time": 279.747995125,
          "velocity": 0.1889763779527559
        },
        {
          "duration": 2.059581491666677,
          "durationTicks": 2876,
          "midi": 77,
          "name": "F5",
          "ticks": 380160,
          "time": 280.779218125,
          "velocity": 0.1889763779527559
        },
        {
          "duration": 2.059581491666677,
          "durationTicks": 2876,
          "midi": 65,
          "name": "F4",
          "ticks": 385920,
          "time": 284.904110125,
          "velocity": 0.1889763779527559
        },
        {
          "duration": 2.059581491666677,
          "durationTicks": 2876,
          "midi": 77,
          "name": "F5",
          "ticks": 385920,
          "time": 284.904110125,
          "velocity": 0.1889763779527559
        },
        {
          "duration": 0.08307074166668826,
          "durationTicks": 116,
          "midi": 65,
          "name": "F4",
          "ticks": 392880,
          "time": 289.888354625,
          "velocity": 0.25984251968503935
        },
        {
          "duration": 0.16900599166666552,
          "durationTicks": 236,
          "midi": 70,
          "name": "A#4",
          "ticks": 392880,
          "time": 289.888354625,
          "velocity": 0.3464566929133858
        },
        {
          "duration": 0.08307074166668826,
          "durationTicks": 116,
          "midi": 65,
          "name": "F4",
          "ticks": 393120,
          "time": 290.060225125,
          "velocity": 0.25984251968503935
        },
        {
          "duration": 0.08307074166668826,
          "durationTicks": 116,
          "midi": 69,
          "name": "A4",
          "ticks": 393120,
          "time": 290.060225125,
          "velocity": 0.3464566929133858
        },
        {
          "duration": 0.08307074166663142,
          "durationTicks": 116,
          "midi": 65,
          "name": "F4",
          "ticks": 393600,
          "time": 290.403966125,
          "velocity": 0.25984251968503935
        },
        {
          "duration": 0.16900599166666552,
          "durationTicks": 236,
          "midi": 70,
          "name": "A#4",
          "ticks": 393600,
          "time": 290.403966125,
          "velocity": 0.3464566929133858
        },
        {
          "duration": 0.08307074166668826,
          "durationTicks": 116,
          "midi": 65,
          "name": "F4",
          "ticks": 393840,
          "time": 290.57583662499997,
          "velocity": 0.25984251968503935
        },
        {
          "duration": 0.08307074166668826,
          "durationTicks": 116,
          "midi": 69,
          "name": "A4",
          "ticks": 393840,
          "time": 290.57583662499997,
          "velocity": 0.3464566929133858
        },
        {
          "duration": 0.08307074166668826,
          "durationTicks": 116,
          "midi": 65,
          "name": "F4",
          "ticks": 394320,
          "time": 290.919577625,
          "velocity": 0.25984251968503935
        },
        {
          "duration": 0.16900599166666552,
          "durationTicks": 236,
          "midi": 70,
          "name": "A#4",
          "ticks": 394320,
          "time": 290.919577625,
          "velocity": 0.3464566929133858
        },
        {
          "duration": 0.9424232416666314,
          "durationTicks": 1316,
          "midi": 72,
          "name": "C5",
          "ticks": 394560,
          "time": 291.091448125,
          "velocity": 0.25984251968503935
        },
        {
          "duration": 0.08307074166663142,
          "durationTicks": 116,
          "midi": 79,
          "name": "G5",
          "ticks": 394560,
          "time": 291.091448125,
          "velocity": 0.3858267716535433
        },
        {
          "duration": 0.08307074166668826,
          "durationTicks": 116,
          "midi": 77,
          "name": "F5",
          "ticks": 394680,
          "time": 291.177383375,
          "velocity": 0.4251968503937008
        },
        {
          "duration": 0.08307074166663142,
          "durationTicks": 116,
          "midi": 79,
          "name": "G5",
          "ticks": 394800,
          "time": 291.263318625,
          "velocity": 0.4094488188976378
        },
        {
          "duration": 0.08307074166668826,
          "durationTicks": 116,
          "midi": 77,
          "name": "F5",
          "ticks": 394920,
          "time": 291.349253875,
          "velocity": 0.3937007874015748
        },
        {
          "duration": 0.08307074166668826,
          "durationTicks": 116,
          "midi": 79,
          "name": "G5",
          "ticks": 395040,
          "time": 291.43518912499997,
          "velocity": 0.3779527559055118
        },
        {
          "duration": 0.08307074166668826,
          "durationTicks": 116,
          "midi": 77,
          "name": "F5",
          "ticks": 395160,
          "time": 291.521124375,
          "velocity": 0.36220472440944884
        },
        {
          "duration": 0.2835863250000443,
          "durationTicks": 396,
          "midi": 75,
          "name": "D#5",
          "ticks": 395280,
          "time": 291.607059625,
          "velocity": 0.3464566929133858
        },
        {
          "duration": 0.08307074166663142,
          "durationTicks": 116,
          "midi": 70,
          "name": "A#4",
          "ticks": 395760,
          "time": 291.950800625,
          "velocity": 0.25984251968503935
        },
        {
          "duration": 0.16900599166666552,
          "durationTicks": 236,
          "midi": 74,
          "name": "D5",
          "ticks": 395760,
          "time": 291.950800625,
          "velocity": 0.4251968503937008
        },
        {
          "duration": 0.08307074166663142,
          "durationTicks": 116,
          "midi": 70,
          "name": "A#4",
          "ticks": 396000,
          "time": 292.122671125,
          "velocity": 0.25984251968503935
        },
        {
          "duration": 0.08307074166663142,
          "durationTicks": 116,
          "midi": 72,
          "name": "C5",
          "ticks": 396000,
          "time": 292.122671125,
          "velocity": 0.3464566929133858
        },
        {
          "duration": 0.08307074166668826,
          "durationTicks": 116,
          "midi": 72,
          "name": "C5",
          "ticks": 396480,
          "time": 292.466412125,
          "velocity": 0.3464566929133858
        },
        {
          "duration": 0.08307074166668826,
          "durationTicks": 116,
          "midi": 67,
          "name": "G4",
          "ticks": 396720,
          "time": 292.638282625,
          "velocity": 0.25984251968503935
        },
        {
          "duration": 0.3408764916666769,
          "durationTicks": 476,
          "midi": 72,
          "name": "C5",
          "ticks": 396720,
          "time": 292.638282625,
          "velocity": 0.3464566929133858
        },
        {
          "duration": 0.08307074166663142,
          "durationTicks": 116,
          "midi": 74,
          "name": "D5",
          "ticks": 397200,
          "time": 292.982023625,
          "velocity": 0.3464566929133858
        },
        {
          "duration": 0.5986822416666655,
          "durationTicks": 836,
          "midi": 65,
          "name": "F4",
          "ticks": 397440,
          "time": 293.15389412499997,
          "velocity": 0.25984251968503935
        },
        {
          "duration": 0.5127469916666882,
          "durationTicks": 716,
          "midi": 70,
          "name": "A#4",
          "ticks": 397440,
          "time": 293.15389412499997,
          "velocity": 0.3464566929133858
        },
        {
          "duration": 0.16900599166666552,
          "durationTicks": 236,
          "midi": 69,
          "name": "A4",
          "ticks": 398160,
          "time": 293.669505625,
          "velocity": 0.2677165354330709
        },
        {
          "duration": 0.16900599166672237,
          "durationTicks": 236,
          "midi": 74,
          "name": "D5",
          "ticks": 398640,
          "time": 294.01324662499997,
          "velocity": 0.33858267716535434
        },
        {
          "duration": 0.08307074166668826,
          "durationTicks": 116,
          "midi": 77,
          "name": "F5",
          "ticks": 398640,
          "time": 294.01324662499997,
          "velocity": 0.2677165354330709
        },
        {
          "duration": 0.08307074166668826,
          "durationTicks": 116,
          "midi": 72,
          "name": "C5",
          "ticks": 398880,
          "time": 294.185117125,
          "velocity": 0.33858267716535434
        },
        {
          "duration": 0.08307074166668826,
          "durationTicks": 116,
          "midi": 77,
          "name": "F5",
          "ticks": 398880,
          "time": 294.185117125,
          "velocity": 0.2677165354330709
        },
        {
          "duration": 0.16900599166666552,
          "durationTicks": 236,
          "midi": 74,
          "name": "D5",
          "ticks": 399360,
          "time": 294.528858125,
          "velocity": 0.33858267716535434
        },
        {
          "duration": 0.08307074166663142,
          "durationTicks": 116,
          "midi": 77,
          "name": "F5",
          "ticks": 399360,
          "time": 294.528858125,
          "velocity": 0.2677165354330709
        },
        {
          "duration": 0.08307074166663142,
          "durationTicks": 116,
          "midi": 72,
          "name": "C5",
          "ticks": 399600,
          "time": 294.700728625,
          "velocity": 0.33858267716535434
        },
        {
          "duration": 0.08307074166663142,
          "durationTicks": 116,
          "midi": 77,
          "name": "F5",
          "ticks": 399600,
          "time": 294.700728625,
          "velocity": 0.2677165354330709
        },
        {
          "duration": 0.08307074166668826,
          "durationTicks": 116,
          "midi": 74,
          "name": "D5",
          "ticks": 400080,
          "time": 295.044469625,
          "velocity": 0.33858267716535434
        },
        {
          "duration": 0.08307074166668826,
          "durationTicks": 116,
          "midi": 77,
          "name": "F5",
          "ticks": 400080,
          "time": 295.044469625,
          "velocity": 0.2677165354330709
        },
        {
          "duration": 1.1142937416666996,
          "durationTicks": 1556,
          "midi": 77,
          "name": "F5",
          "ticks": 400320,
          "time": 295.216340125,
          "velocity": 0.28346456692913385
        },
        {
          "duration": 0.8564879916666541,
          "durationTicks": 1196,
          "midi": 84,
          "name": "C6",
          "ticks": 400320,
          "time": 295.216340125,
          "velocity": 0.2677165354330709
        },
        {
          "duration": 0.16900599166666552,
          "durationTicks": 236,
          "midi": 82,
          "name": "A#5",
          "ticks": 401520,
          "time": 296.075692625,
          "velocity": 0.3464566929133858
        },
        {
          "duration": 0.08307074166668826,
          "durationTicks": 116,
          "midi": 75,
          "name": "D#5",
          "ticks": 401760,
          "time": 296.247563125,
          "velocity": 0.25984251968503935
        },
        {
          "duration": 0.08307074166668826,
          "durationTicks": 116,
          "midi": 79,
          "name": "G5",
          "ticks": 401760,
          "time": 296.247563125,
          "velocity": 0.3464566929133858
        },
        {
          "duration": 0.16900599166666552,
          "durationTicks": 236,
          "midi": 69,
          "name": "A4",
          "ticks": 402480,
          "time": 296.763174625,
          "velocity": 0.25984251968503935
        },
        {
          "duration": 0.08307074166668826,
          "durationTicks": 116,
          "midi": 72,
          "name": "C5",
          "ticks": 402480,
          "time": 296.763174625,
          "velocity": 0.3464566929133858
        },
        {
          "duration": 0.2549412416666428,
          "durationTicks": 356,
          "midi": 70,
          "name": "A#4",
          "ticks": 403200,
          "time": 297.278786125,
          "velocity": 0.2677165354330709
        },
        {
          "duration": 0.5127469916666882,
          "durationTicks": 716,
          "midi": 74,
          "name": "D5",
          "ticks": 408960,
          "time": 301.403678125,
          "velocity": 0.2677165354330709
        },
        {
          "duration": 0.5127469916666882,
          "durationTicks": 716,
          "midi": 77,
          "name": "F5",
          "ticks": 408960,
          "time": 301.403678125,
          "velocity": 0.3464566929133858
        },
        {
          "duration": 1.0283584916666655,
          "durationTicks": 1436,
          "midi": 72,
          "name": "C5",
          "ticks": 409680,
          "time": 301.919289625,
          "velocity": 0.2677165354330709
        },
        {
          "duration": 1.0283584916666655,
          "durationTicks": 1436,
          "midi": 75,
          "name": "D#5",
          "ticks": 409680,
          "time": 301.919289625,
          "velocity": 0.36220472440944884
        },
        {
          "duration": 0.5127469916666882,
          "durationTicks": 716,
          "midi": 70,
          "name": "A#4",
          "ticks": 411120,
          "time": 302.950512625,
          "velocity": 0.25196850393700787
        },
        {
          "duration": 0.5127469916666882,
          "durationTicks": 716,
          "midi": 74,
          "name": "D5",
          "ticks": 411120,
          "time": 302.950512625,
          "velocity": 0.36220472440944884
        },
        {
          "duration": 2.059581491666677,
          "durationTicks": 2876,
          "midi": 72,
          "name": "C5",
          "ticks": 411840,
          "time": 303.46612412499996,
          "velocity": 0.3543307086614173
        },
        {
          "duration": 2.059581491666677,
          "durationTicks": 2876,
          "midi": 82,
          "name": "A#5",
          "ticks": 411840,
          "time": 303.46612412499996,
          "velocity": 0.4330708661417323
        },
        {
          "duration": 1.48550417499996,
          "durationTicks": 1916,
          "midi": 72,
          "name": "C5",
          "ticks": 414720,
          "time": 305.528570125,
          "velocity": 0.4330708661417323
        },
        {
          "duration": 3.4479317000000265,
          "durationTicks": 3356,
          "midi": 82,
          "name": "A#5",
          "ticks": 414720,
          "time": 305.528570125,
          "velocity": 0.4330708661417323
        },
        {
          "duration": 0.2237053833333107,
          "durationTicks": 236,
          "midi": 74,
          "name": "D5",
          "ticks": 416640,
          "time": 307.01761312499997,
          "velocity": 0.4330708661417323
        },
        {
          "duration": 0.2409147000000189,
          "durationTicks": 236,
          "midi": 75,
          "name": "D#5",
          "ticks": 416880,
          "time": 307.245110125,
          "velocity": 0.4330708661417323
        },
        {
          "duration": 0.2609928916666604,
          "durationTicks": 236,
          "midi": 74,
          "name": "D5",
          "ticks": 417120,
          "time": 307.490108125,
          "velocity": 0.4330708661417323
        },
        {
          "duration": 0.31319658333330835,
          "durationTicks": 236,
          "midi": 72,
          "name": "C5",
          "ticks": 417360,
          "time": 307.755524625,
          "velocity": 0.4330708661417323
        },
        {
          "duration": 0.902472199999977,
          "durationTicks": 476,
          "midi": 74,
          "name": "D5",
          "ticks": 417600,
          "time": 308.07402962500004,
          "velocity": 0.3543307086614173
        },
        {
          "duration": 1.7472204749999491,
          "durationTicks": 2516,
          "midi": 70,
          "name": "A#4",
          "ticks": 514080,
          "time": 383.6990776250001,
          "velocity": 0.3464566929133858
        },
        {
          "duration": 0.4972217249999744,
          "durationTicks": 716,
          "midi": 79,
          "name": "G5",
          "ticks": 514080,
          "time": 383.6990776250001,
          "velocity": 0.3464566929133858
        },
        {
          "duration": 0.4972217249999744,
          "durationTicks": 716,
          "midi": 78,
          "name": "F#5",
          "ticks": 514800,
          "time": 384.1990771250001,
          "velocity": 0.3464566929133858
        },
        {
          "duration": 0.4972217249999744,
          "durationTicks": 716,
          "midi": 79,
          "name": "G5",
          "ticks": 515520,
          "time": 384.6990766250001,
          "velocity": 0.3464566929133858
        },
        {
          "duration": 0.16388872500004936,
          "durationTicks": 236,
          "midi": 75,
          "name": "D#5",
          "ticks": 516240,
          "time": 385.19907612500003,
          "velocity": 0.2677165354330709
        },
        {
          "duration": 0.08055547500003968,
          "durationTicks": 116,
          "midi": 74,
          "name": "D5",
          "ticks": 519840,
          "time": 387.69907362500004,
          "velocity": 0.25984251968503935
        },
        {
          "duration": 0.16388872499999252,
          "durationTicks": 236,
          "midi": 69,
          "name": "A4",
          "ticks": 520080,
          "time": 387.86574012500006,
          "velocity": 0.2677165354330709
        },
        {
          "duration": 0.08055547499998283,
          "durationTicks": 116,
          "midi": 70,
          "name": "A#4",
          "ticks": 520320,
          "time": 388.0324066250001,
          "velocity": 0.2755905511811024
        },
        {
          "duration": 0.08055547500003968,
          "durationTicks": 116,
          "midi": 75,
          "name": "D#5",
          "ticks": 520560,
          "time": 388.19907312500004,
          "velocity": 0.28346456692913385
        },
        {
          "duration": 0.16388872499999252,
          "durationTicks": 236,
          "midi": 71,
          "name": "B4",
          "ticks": 520800,
          "time": 388.36573962500006,
          "velocity": 0.29133858267716534
        },
        {
          "duration": 0.08055547499998283,
          "durationTicks": 116,
          "midi": 72,
          "name": "C5",
          "ticks": 521040,
          "time": 388.5324061250001,
          "velocity": 0.30708661417322836
        },
        {
          "duration": 0.3305552250000119,
          "durationTicks": 476,
          "midi": 77,
          "name": "F5",
          "ticks": 521280,
          "time": 388.69907262500004,
          "velocity": 0.31496062992125984
        },
        {
          "duration": 0.0527777250000554,
          "durationTicks": 76,
          "midi": 79,
          "name": "G5",
          "ticks": 521728,
          "time": 389.01018342500004,
          "velocity": 0.33070866141732286
        },
        {
          "duration": 0.0527777250000554,
          "durationTicks": 76,
          "midi": 77,
          "name": "F5",
          "ticks": 521796,
          "time": 389.05740560000004,
          "velocity": 0.33858267716535434
        },
        {
          "duration": 0.0527777250000554,
          "durationTicks": 76,
          "midi": 76,
          "name": "E5",
          "ticks": 521864,
          "time": 389.10462777500004,
          "velocity": 0.33858267716535434
        },
        {
          "duration": 0.052777724999998554,
          "durationTicks": 76,
          "midi": 77,
          "name": "F5",
          "ticks": 521932,
          "time": 389.15184995000004,
          "velocity": 0.33858267716535434
        },
        {
          "duration": 0.13611097500000824,
          "durationTicks": 196,
          "midi": 82,
          "name": "A#5",
          "ticks": 522000,
          "time": 389.19907212500004,
          "velocity": 0.2677165354330709
        },
        {
          "duration": 1.997220225000035,
          "durationTicks": 2876,
          "midi": 70,
          "name": "A#4",
          "ticks": 522720,
          "time": 389.69907162500004,
          "velocity": 0.3464566929133858
        },
        {
          "duration": 0.49722172500003126,
          "durationTicks": 716,
          "midi": 79,
          "name": "G5",
          "ticks": 522720,
          "time": 389.69907162500004,
          "velocity": 0.3464566929133858
        },
        {
          "duration": 0.49722172500003126,
          "durationTicks": 716,
          "midi": 78,
          "name": "F#5",
          "ticks": 523440,
          "time": 390.19907112500005,
          "velocity": 0.3464566929133858
        },
        {
          "duration": 0.9138879750000228,
          "durationTicks": 1316,
          "midi": 79,
          "name": "G5",
          "ticks": 524160,
          "time": 390.69907062500005,
          "velocity": 0.3464566929133858
        },
        {
          "duration": 0.08055547500003968,
          "durationTicks": 116,
          "midi": 77,
          "name": "F5",
          "ticks": 525600,
          "time": 391.69906962500005,
          "velocity": 0.1968503937007874
        },
        {
          "duration": 0.08055547500003968,
          "durationTicks": 116,
          "midi": 80,
          "name": "G#5",
          "ticks": 525600,
          "time": 391.69906962500005,
          "velocity": 0.1968503937007874
        },
        {
          "duration": 0.08055547499998283,
          "durationTicks": 116,
          "midi": 77,
          "name": "F5",
          "ticks": 526080,
          "time": 392.0324026250001,
          "velocity": 0.1968503937007874
        },
        {
          "duration": 0.08055547499998283,
          "durationTicks": 116,
          "midi": 80,
          "name": "G#5",
          "ticks": 526080,
          "time": 392.0324026250001,
          "velocity": 0.1968503937007874
        },
        {
          "duration": 0.08055547499998283,
          "durationTicks": 116,
          "midi": 77,
          "name": "F5",
          "ticks": 526320,
          "time": 392.19906912500005,
          "velocity": 0.1968503937007874
        },
        {
          "duration": 0.08055547499998283,
          "durationTicks": 116,
          "midi": 80,
          "name": "G#5",
          "ticks": 526320,
          "time": 392.19906912500005,
          "velocity": 0.1968503937007874
        },
        {
          "duration": 0.08055547499998283,
          "durationTicks": 116,
          "midi": 77,
          "name": "F5",
          "ticks": 526800,
          "time": 392.5324021250001,
          "velocity": 0.1968503937007874
        },
        {
          "duration": 0.08055547499998283,
          "durationTicks": 116,
          "midi": 80,
          "name": "G#5",
          "ticks": 526800,
          "time": 392.5324021250001,
          "velocity": 0.1968503937007874
        },
        {
          "duration": 0.6638882249999938,
          "durationTicks": 956,
          "midi": 75,
          "name": "D#5",
          "ticks": 527040,
          "time": 392.69906862500005,
          "velocity": 0.1968503937007874
        },
        {
          "duration": 0.6638882249999938,
          "durationTicks": 956,
          "midi": 79,
          "name": "G5",
          "ticks": 527040,
          "time": 392.69906862500005,
          "velocity": 0.1968503937007874
        },
        {
          "duration": 0.08055547499998283,
          "durationTicks": 116,
          "midi": 77,
          "name": "F5",
          "ticks": 528000,
          "time": 393.3657346250001,
          "velocity": 0.1968503937007874
        },
        {
          "duration": 0.08055547499998283,
          "durationTicks": 116,
          "midi": 83,
          "name": "B5",
          "ticks": 528000,
          "time": 393.3657346250001,
          "velocity": 0.1968503937007874
        },
        {
          "duration": 0.08055547499998283,
          "durationTicks": 116,
          "midi": 79,
          "name": "G5",
          "ticks": 528240,
          "time": 393.5324011250001,
          "velocity": 0.1968503937007874
        },
        {
          "duration": 0.08055547499998283,
          "durationTicks": 116,
          "midi": 84,
          "name": "C6",
          "ticks": 528240,
          "time": 393.5324011250001,
          "velocity": 0.1968503937007874
        },
        {
          "duration": 0.08055547499998283,
          "durationTicks": 116,
          "midi": 70,
          "name": "A#4",
          "ticks": 528480,
          "time": 393.69906762500005,
          "velocity": 0.1968503937007874
        },
        {
          "duration": 0.08055547499998283,
          "durationTicks": 116,
          "midi": 74,
          "name": "D5",
          "ticks": 528480,
          "time": 393.69906762500005,
          "velocity": 0.1968503937007874
        },
        {
          "duration": 0.16388872500004936,
          "durationTicks": 236,
          "midi": 70,
          "name": "A#4",
          "ticks": 528960,
          "time": 394.03240062500004,
          "velocity": 0.1968503937007874
        },
        {
          "duration": 0.16388872500004936,
          "durationTicks": 236,
          "midi": 74,
          "name": "D5",
          "ticks": 528960,
          "time": 394.03240062500004,
          "velocity": 0.1968503937007874
        },
        {
          "duration": 0.08055547499998283,
          "durationTicks": 116,
          "midi": 69,
          "name": "A4",
          "ticks": 529200,
          "time": 394.19906712500006,
          "velocity": 0.1968503937007874
        },
        {
          "duration": 0.08055547499998283,
          "durationTicks": 116,
          "midi": 72,
          "name": "C5",
          "ticks": 529200,
          "time": 394.19906712500006,
          "velocity": 0.1968503937007874
        },
        {
          "duration": 0.08055547499998283,
          "durationTicks": 116,
          "midi": 69,
          "name": "A4",
          "ticks": 529680,
          "time": 394.5324001250001,
          "velocity": 0.1968503937007874
        },
        {
          "duration": 0.08055547499998283,
          "durationTicks": 116,
          "midi": 72,
          "name": "C5",
          "ticks": 529680,
          "time": 394.5324001250001,
          "velocity": 0.1968503937007874
        },
        {
          "duration": 1.0805544749999854,
          "durationTicks": 1556,
          "midi": 74,
          "name": "D5",
          "ticks": 529920,
          "time": 394.69906662500006,
          "velocity": 0.3464566929133858
        },
        {
          "duration": 1.0805544749999854,
          "durationTicks": 1556,
          "midi": 82,
          "name": "A#5",
          "ticks": 529920,
          "time": 394.69906662500006,
          "velocity": 0.4251968503937008
        },
        {
          "duration": 0.08055547499998283,
          "durationTicks": 116,
          "midi": 74,
          "name": "D5",
          "ticks": 531600,
          "time": 395.8657321250001,
          "velocity": 0.3464566929133858
        },
        {
          "duration": 0.08055547499998283,
          "durationTicks": 116,
          "midi": 82,
          "name": "A#5",
          "ticks": 531600,
          "time": 395.8657321250001,
          "velocity": 0.4251968503937008
        },
        {
          "duration": 0.08055547500003968,
          "durationTicks": 116,
          "midi": 74,
          "name": "D5",
          "ticks": 531840,
          "time": 396.03239862500004,
          "velocity": 0.3464566929133858
        },
        {
          "duration": 0.08055547500003968,
          "durationTicks": 116,
          "midi": 82,
          "name": "A#5",
          "ticks": 531840,
          "time": 396.03239862500004,
          "velocity": 0.4251968503937008
        },
        {
          "duration": 0.08055547499998283,
          "durationTicks": 116,
          "midi": 74,
          "name": "D5",
          "ticks": 532080,
          "time": 396.19906512500006,
          "velocity": 0.3464566929133858
        },
        {
          "duration": 0.08055547499998283,
          "durationTicks": 116,
          "midi": 82,
          "name": "A#5",
          "ticks": 532080,
          "time": 396.19906512500006,
          "velocity": 0.4251968503937008
        },
        {
          "duration": 0.08055547499998283,
          "durationTicks": 116,
          "midi": 74,
          "name": "D5",
          "ticks": 532320,
          "time": 396.3657316250001,
          "velocity": 0.3464566929133858
        },
        {
          "duration": 0.08055547499998283,
          "durationTicks": 116,
          "midi": 82,
          "name": "A#5",
          "ticks": 532320,
          "time": 396.3657316250001,
          "velocity": 0.4251968503937008
        },
        {
          "duration": 0.08055547500003968,
          "durationTicks": 116,
          "midi": 74,
          "name": "D5",
          "ticks": 532560,
          "time": 396.53239812500004,
          "velocity": 0.3464566929133858
        },
        {
          "duration": 0.08055547500003968,
          "durationTicks": 116,
          "midi": 82,
          "name": "A#5",
          "ticks": 532560,
          "time": 396.53239812500004,
          "velocity": 0.4251968503937008
        },
        {
          "duration": 0.6638882249999938,
          "durationTicks": 956,
          "midi": 72,
          "name": "C5",
          "ticks": 532800,
          "time": 396.69906462500006,
          "velocity": 0.3464566929133858
        },
        {
          "duration": 1.497220724999977,
          "durationTicks": 2156,
          "midi": 82,
          "name": "A#5",
          "ticks": 532800,
          "time": 396.69906462500006,
          "velocity": 0.3464566929133858
        },
        {
          "duration": 0.16388872499999252,
          "durationTicks": 236,
          "midi": 74,
          "name": "D5",
          "ticks": 533760,
          "time": 397.3657306250001,
          "velocity": 0.3464566929133858
        },
        {
          "duration": 0.16388872500004936,
          "durationTicks": 236,
          "midi": 75,
          "name": "D#5",
          "ticks": 534000,
          "time": 397.53239712500005,
          "velocity": 0.3464566929133858
        },
        {
          "duration": 0.4972217249999744,
          "durationTicks": 716,
          "midi": 74,
          "name": "D5",
          "ticks": 534240,
          "time": 397.69906362500006,
          "velocity": 0.3464566929133858
        },
        {
          "duration": 0.41388847500002157,
          "durationTicks": 596,
          "midi": 72,
          "name": "C5",
          "ticks": 534960,
          "time": 398.19906312500007,
          "velocity": 0.3464566929133858
        },
        {
          "duration": 0.41388847500002157,
          "durationTicks": 596,
          "midi": 81,
          "name": "A5",
          "ticks": 534960,
          "time": 398.19906312500007,
          "velocity": 0.3464566929133858
        },
        {
          "duration": 1.0805544749999854,
          "durationTicks": 1556,
          "midi": 74,
          "name": "D5",
          "ticks": 535680,
          "time": 398.69906262500007,
          "velocity": 0.3464566929133858
        },
        {
          "duration": 1.0805544749999854,
          "durationTicks": 1556,
          "midi": 82,
          "name": "A#5",
          "ticks": 535680,
          "time": 398.69906262500007,
          "velocity": 0.4251968503937008
        },
        {
          "duration": 0.08055547500003968,
          "durationTicks": 116,
          "midi": 74,
          "name": "D5",
          "ticks": 537360,
          "time": 399.86572812500003,
          "velocity": 0.3464566929133858
        },
        {
          "duration": 0.08055547500003968,
          "durationTicks": 116,
          "midi": 82,
          "name": "A#5",
          "ticks": 537360,
          "time": 399.86572812500003,
          "velocity": 0.4251968503937008
        },
        {
          "duration": 0.08055547499998283,
          "durationTicks": 116,
          "midi": 74,
          "name": "D5",
          "ticks": 537600,
          "time": 400.03239462500005,
          "velocity": 0.3464566929133858
        },
        {
          "duration": 0.08055547499998283,
          "durationTicks": 116,
          "midi": 82,
          "name": "A#5",
          "ticks": 537600,
          "time": 400.03239462500005,
          "velocity": 0.4251968503937008
        },
        {
          "duration": 0.08055547499998283,
          "durationTicks": 116,
          "midi": 74,
          "name": "D5",
          "ticks": 537840,
          "time": 400.19906112500007,
          "velocity": 0.3464566929133858
        },
        {
          "duration": 0.08055547499998283,
          "durationTicks": 116,
          "midi": 82,
          "name": "A#5",
          "ticks": 537840,
          "time": 400.19906112500007,
          "velocity": 0.4251968503937008
        },
        {
          "duration": 0.08055547499998283,
          "durationTicks": 116,
          "midi": 74,
          "name": "D5",
          "ticks": 538080,
          "time": 400.3657276250001,
          "velocity": 0.3464566929133858
        },
        {
          "duration": 0.08055547499998283,
          "durationTicks": 116,
          "midi": 82,
          "name": "A#5",
          "ticks": 538080,
          "time": 400.3657276250001,
          "velocity": 0.4251968503937008
        },
        {
          "duration": 0.08055547500003968,
          "durationTicks": 116,
          "midi": 74,
          "name": "D5",
          "ticks": 538320,
          "time": 400.53239412500005,
          "velocity": 0.3464566929133858
        },
        {
          "duration": 0.08055547500003968,
          "durationTicks": 116,
          "midi": 82,
          "name": "A#5",
          "ticks": 538320,
          "time": 400.53239412500005,
          "velocity": 0.4251968503937008
        },
        {
          "duration": 0.6638882249999938,
          "durationTicks": 956,
          "midi": 79,
          "name": "G5",
          "ticks": 538560,
          "time": 400.6990606250001,
          "velocity": 0.4251968503937008
        },
        {
          "duration": 1.5805539749999866,
          "durationTicks": 2276,
          "midi": 82,
          "name": "A#5",
          "ticks": 538560,
          "time": 400.6990606250001,
          "velocity": 0.3464566929133858
        },
        {
          "duration": 0.16388872499999252,
          "durationTicks": 236,
          "midi": 77,
          "name": "F5",
          "ticks": 539520,
          "time": 401.3657266250001,
          "velocity": 0.3464566929133858
        },
        {
          "duration": 0.16388872499999252,
          "durationTicks": 236,
          "midi": 75,
          "name": "D#5",
          "ticks": 539760,
          "time": 401.53239312500006,
          "velocity": 0.3464566929133858
        },
        {
          "duration": 0.4972217249999744,
          "durationTicks": 716,
          "midi": 74,
          "name": "D5",
          "ticks": 540000,
          "time": 401.6990596250001,
          "velocity": 0.3464566929133858
        },
        {
          "duration": 0.41388847500002157,
          "durationTicks": 596,
          "midi": 72,
          "name": "C5",
          "ticks": 540720,
          "time": 402.1990591250001,
          "velocity": 0.3464566929133858
        },
        {
          "duration": 0.41388847500002157,
          "durationTicks": 596,
          "midi": 81,
          "name": "A5",
          "ticks": 540720,
          "time": 402.1990591250001,
          "velocity": 0.3464566929133858
        },
        {
          "duration": 0.16388872499999252,
          "durationTicks": 236,
          "midi": 70,
          "name": "A#4",
          "ticks": 541440,
          "time": 402.6990586250001,
          "velocity": 0.29133858267716534
        },
        {
          "duration": 0.16388872499999252,
          "durationTicks": 236,
          "midi": 82,
          "name": "A#5",
          "ticks": 541440,
          "time": 402.6990586250001,
          "velocity": 0.3464566929133858
        },
        {
          "duration": 0.6638882249999938,
          "durationTicks": 956,
          "midi": 77,
          "name": "F5",
          "ticks": 550800,
          "time": 409.1990521250001,
          "velocity": 0.1889763779527559
        },
        {
          "duration": 0.4972217249999744,
          "durationTicks": 716,
          "midi": 81,
          "name": "A5",
          "ticks": 550800,
          "time": 409.1990521250001,
          "velocity": 0.1889763779527559
        },
        {
          "duration": 0.16388872500004936,
          "durationTicks": 236,
          "midi": 82,
          "name": "A#5",
          "ticks": 551520,
          "time": 409.69905162500004,
          "velocity": 0.1889763779527559
        },
        {
          "duration": 0.6638882250000506,
          "durationTicks": 956,
          "midi": 77,
          "name": "F5",
          "ticks": 552240,
          "time": 410.19905112500004,
          "velocity": 0.1889763779527559
        },
        {
          "duration": 0.49722172500003126,
          "durationTicks": 716,
          "midi": 81,
          "name": "A5",
          "ticks": 552240,
          "time": 410.19905112500004,
          "velocity": 0.1889763779527559
        },
        {
          "duration": 0.16388872500004936,
          "durationTicks": 236,
          "midi": 82,
          "name": "A#5",
          "ticks": 552960,
          "time": 410.69905062500004,
          "velocity": 0.1889763779527559
        },
        {
          "duration": 0.33055522499995504,
          "durationTicks": 476,
          "midi": 77,
          "name": "F5",
          "ticks": 554160,
          "time": 411.5323831250001,
          "velocity": 0.25984251968503935
        },
        {
          "duration": 0.16388872499999252,
          "durationTicks": 236,
          "midi": 81,
          "name": "A5",
          "ticks": 554160,
          "time": 411.5323831250001,
          "velocity": 0.25984251968503935
        },
        {
          "duration": 0.49722172500003126,
          "durationTicks": 716,
          "midi": 79,
          "name": "G5",
          "ticks": 554400,
          "time": 411.69904962500004,
          "velocity": 0.25984251968503935
        },
        {
          "duration": 0.49722172500003126,
          "durationTicks": 716,
          "midi": 75,
          "name": "D#5",
          "ticks": 554640,
          "time": 411.86571612500006,
          "velocity": 0.25196850393700787
        },
        {
          "duration": 0.49722172500003126,
          "durationTicks": 716,
          "midi": 77,
          "name": "F5",
          "ticks": 555120,
          "time": 412.19904912500004,
          "velocity": 0.23622047244094488
        },
        {
          "duration": 0.4972217249999744,
          "durationTicks": 716,
          "midi": 74,
          "name": "D5",
          "ticks": 555360,
          "time": 412.36571562500006,
          "velocity": 0.2283464566929134
        },
        {
          "duration": 0.49722172500003126,
          "durationTicks": 716,
          "midi": 75,
          "name": "D#5",
          "ticks": 555840,
          "time": 412.69904862500005,
          "velocity": 0.2125984251968504
        },
        {
          "duration": 0.49722172500003126,
          "durationTicks": 716,
          "midi": 72,
          "name": "C5",
          "ticks": 556080,
          "time": 412.86571512500007,
          "velocity": 0.2047244094488189
        },
        {
          "duration": 0.49722172500003126,
          "durationTicks": 716,
          "midi": 74,
          "name": "D5",
          "ticks": 556560,
          "time": 413.19904812500005,
          "velocity": 0.1889763779527559
        },
        {
          "duration": 0.3305552250000119,
          "durationTicks": 476,
          "midi": 70,
          "name": "A#4",
          "ticks": 556800,
          "time": 413.36571462500007,
          "velocity": 0.18110236220472442
        },
        {
          "duration": 2.4972197250000363,
          "durationTicks": 3596,
          "midi": 74,
          "name": "D5",
          "ticks": 563040,
          "time": 417.69904362500006,
          "velocity": 0.25984251968503935
        },
        {
          "duration": 3.497218725000039,
          "durationTicks": 5036,
          "midi": 82,
          "name": "A#5",
          "ticks": 563040,
          "time": 417.69904362500006,
          "velocity": 0.25984251968503935
        },
        {
          "duration": 0.9972212250000325,
          "durationTicks": 1436,
          "midi": 70,
          "name": "A#4",
          "ticks": 566640,
          "time": 420.19904112500006,
          "velocity": 0.2125984251968504
        },
        {
          "duration": 0.3305552250000119,
          "durationTicks": 476,
          "midi": 69,
          "name": "A4",
          "ticks": 568080,
          "time": 421.19904012500007,
          "velocity": 0.1968503937007874
        },
        {
          "duration": 0.4972217249999744,
          "durationTicks": 716,
          "midi": 81,
          "name": "A5",
          "ticks": 568080,
          "time": 421.19904012500007,
          "velocity": 0.1968503937007874
        },
        {
          "duration": 0.21944422499996108,
          "durationTicks": 316,
          "midi": 70,
          "name": "A#4",
          "ticks": 568800,
          "time": 421.69903962500007,
          "velocity": 0.18110236220472442
        },
        {
          "duration": 0.21944422499996108,
          "durationTicks": 316,
          "midi": 82,
          "name": "A#5",
          "ticks": 568800,
          "time": 421.69903962500007,
          "velocity": 0.18110236220472442
        },
        {
          "duration": 0.08055547499998283,
          "durationTicks": 116,
          "midi": 70,
          "name": "A#4",
          "ticks": 574560,
          "time": 425.6990356250001,
          "velocity": 0.2755905511811024
        },
        {
          "duration": 0.16388872499999252,
          "durationTicks": 236,
          "midi": 74,
          "name": "D5",
          "ticks": 575040,
          "time": 426.03236862500006,
          "velocity": 0.2992125984251969
        },
        {
          "duration": 0.08055547499998283,
          "durationTicks": 116,
          "midi": 77,
          "name": "F5",
          "ticks": 575280,
          "time": 426.1990351250001,
          "velocity": 0.31496062992125984
        },
        {
          "duration": 0.16388872499999252,
          "durationTicks": 236,
          "midi": 82,
          "name": "A#5",
          "ticks": 575760,
          "time": 426.53236812500006,
          "velocity": 0.3464566929133858
        },
        {
          "duration": 0.6638882249999938,
          "durationTicks": 956,
          "midi": 77,
          "name": "F5",
          "ticks": 576000,
          "time": 426.6990346250001,
          "velocity": 0.28346456692913385
        },
        {
          "duration": 0.16388872499999252,
          "durationTicks": 236,
          "midi": 75,
          "name": "D#5",
          "ticks": 576960,
          "time": 427.36570062500004,
          "velocity": 0.31496062992125984
        },
        {
          "duration": 0.16388872499999252,
          "durationTicks": 236,
          "midi": 72,
          "name": "C5",
          "ticks": 577200,
          "time": 427.53236712500006,
          "velocity": 0.28346456692913385
        },
        {
          "duration": 0.1361109749999514,
          "durationTicks": 196,
          "midi": 70,
          "name": "A#4",
          "ticks": 577440,
          "time": 427.6990336250001,
          "velocity": 0.2283464566929134
        },
        {
          "duration": 0.16388872499999252,
          "durationTicks": 236,
          "midi": 74,
          "name": "D5",
          "ticks": 577920,
          "time": 428.03236662500007,
          "velocity": 0.2440944881889764
        },
        {
          "duration": 0.08055547500003968,
          "durationTicks": 116,
          "midi": 77,
          "name": "F5",
          "ticks": 578160,
          "time": 428.199033125,
          "velocity": 0.25196850393700787
        },
        {
          "duration": 0.16388872499999252,
          "durationTicks": 236,
          "midi": 82,
          "name": "A#5",
          "ticks": 578640,
          "time": 428.53236612500007,
          "velocity": 0.2677165354330709
        },
        {
          "duration": 0.6638882249999938,
          "durationTicks": 956,
          "midi": 77,
          "name": "F5",
          "ticks": 578880,
          "time": 428.6990326250001,
          "velocity": 0.28346456692913385
        },
        {
          "duration": 0.16388872499999252,
          "durationTicks": 236,
          "midi": 75,
          "name": "D#5",
          "ticks": 579840,
          "time": 429.36569862500005,
          "velocity": 0.28346456692913385
        },
        {
          "duration": 0.16388872499999252,
          "durationTicks": 236,
          "midi": 72,
          "name": "C5",
          "ticks": 580080,
          "time": 429.53236512500007,
          "velocity": 0.25196850393700787
        },
        {
          "duration": 0.10833322499996711,
          "durationTicks": 156,
          "midi": 70,
          "name": "A#4",
          "ticks": 580320,
          "time": 429.6990316250001,
          "velocity": 0.4330708661417323
        },
        {
          "duration": 0.16388872499999252,
          "durationTicks": 236,
          "midi": 74,
          "name": "D5",
          "ticks": 580800,
          "time": 430.03236462500007,
          "velocity": 0.4330708661417323
        },
        {
          "duration": 0.08055547500003968,
          "durationTicks": 116,
          "midi": 77,
          "name": "F5",
          "ticks": 581040,
          "time": 430.19903112500003,
          "velocity": 0.4330708661417323
        },
        {
          "duration": 0.16388872499999252,
          "durationTicks": 236,
          "midi": 82,
          "name": "A#5",
          "ticks": 581520,
          "time": 430.5323641250001,
          "velocity": 0.4330708661417323
        },
        {
          "duration": 0.6638882249999938,
          "durationTicks": 956,
          "midi": 86,
          "name": "D6",
          "ticks": 581760,
          "time": 430.6990306250001,
          "velocity": 0.4330708661417323
        },
        {
          "duration": 0.08055547499998283,
          "durationTicks": 116,
          "midi": 82,
          "name": "A#5",
          "ticks": 582720,
          "time": 431.36569662500006,
          "velocity": 0.4330708661417323
        },
        {
          "duration": 0.08055547499998283,
          "durationTicks": 116,
          "midi": 77,
          "name": "F5",
          "ticks": 582960,
          "time": 431.5323631250001,
          "velocity": 0.4330708661417323
        },
        {
          "duration": 0.6638882249999369,
          "durationTicks": 956,
          "midi": 77,
          "name": "F5",
          "ticks": 583200,
          "time": 431.6990296250001,
          "velocity": 0.4330708661417323
        },
        {
          "duration": 0.08055547499998283,
          "durationTicks": 116,
          "midi": 74,
          "name": "D5",
          "ticks": 584160,
          "time": 432.36569562500006,
          "velocity": 0.3464566929133858
        },
        {
          "duration": 0.08055547499998283,
          "durationTicks": 116,
          "midi": 86,
          "name": "D6",
          "ticks": 584160,
          "time": 432.36569562500006,
          "velocity": 0.4330708661417323
        },
        {
          "duration": 0.08055547499998283,
          "durationTicks": 116,
          "midi": 70,
          "name": "A#4",
          "ticks": 584400,
          "time": 432.5323621250001,
          "velocity": 0.3464566929133858
        },
        {
          "duration": 0.08055547499998283,
          "durationTicks": 116,
          "midi": 82,
          "name": "A#5",
          "ticks": 584400,
          "time": 432.5323621250001,
          "velocity": 0.4330708661417323
        },
        {
          "duration": 0.08055547499998283,
          "durationTicks": 116,
          "midi": 74,
          "name": "D5",
          "ticks": 584640,
          "time": 432.6990286250001,
          "velocity": 0.3464566929133858
        },
        {
          "duration": 0.08055547499998283,
          "durationTicks": 116,
          "midi": 86,
          "name": "D6",
          "ticks": 584640,
          "time": 432.6990286250001,
          "velocity": 0.4330708661417323
        },
        {
          "duration": 0.08055547500003968,
          "durationTicks": 116,
          "midi": 70,
          "name": "A#4",
          "ticks": 584880,
          "time": 432.86569512500006,
          "velocity": 0.3464566929133858
        },
        {
          "duration": 0.08055547500003968,
          "durationTicks": 116,
          "midi": 82,
          "name": "A#5",
          "ticks": 584880,
          "time": 432.86569512500006,
          "velocity": 0.4330708661417323
        },
        {
          "duration": 0.08055547499998283,
          "durationTicks": 116,
          "midi": 65,
          "name": "F4",
          "ticks": 585120,
          "time": 433.0323616250001,
          "velocity": 0.3464566929133858
        },
        {
          "duration": 0.08055547499998283,
          "durationTicks": 116,
          "midi": 77,
          "name": "F5",
          "ticks": 585120,
          "time": 433.0323616250001,
          "velocity": 0.4330708661417323
        },
        {
          "duration": 0.08055547500003968,
          "durationTicks": 116,
          "midi": 70,
          "name": "A#4",
          "ticks": 585360,
          "time": 433.19902812500004,
          "velocity": 0.3464566929133858
        },
        {
          "duration": 0.08055547500003968,
          "durationTicks": 116,
          "midi": 82,
          "name": "A#5",
          "ticks": 585360,
          "time": 433.19902812500004,
          "velocity": 0.4330708661417323
        },
        {
          "duration": 0.08055547499998283,
          "durationTicks": 116,
          "midi": 77,
          "name": "F5",
          "ticks": 585600,
          "time": 433.36569462500006,
          "velocity": 0.4330708661417323
        },
        {
          "duration": 0.08055547499998283,
          "durationTicks": 116,
          "midi": 74,
          "name": "D5",
          "ticks": 585840,
          "time": 433.5323611250001,
          "velocity": 0.4330708661417323
        },
        {
          "duration": 0.13611097500000824,
          "durationTicks": 196,
          "midi": 70,
          "name": "A#4",
          "ticks": 586080,
          "time": 433.69902762500004,
          "velocity": 0.4330708661417323
        },
        {
          "duration": 0.16388872499999252,
          "durationTicks": 236,
          "midi": 77,
          "name": "F5",
          "ticks": 586800,
          "time": 434.19902712500004,
          "velocity": 0.3464566929133858
        },
        {
          "duration": 0.16388872499999252,
          "durationTicks": 236,
          "midi": 82,
          "name": "A#5",
          "ticks": 586800,
          "time": 434.19902712500004,
          "velocity": 0.4330708661417323
        },
        {
          "duration": 0.2472219750000022,
          "durationTicks": 356,
          "midi": 77,
          "name": "F5",
          "ticks": 587520,
          "time": 434.69902662500004,
          "velocity": 0.2755905511811024
        }
      ]
    },
    {
      "channel": 0,
      "controlChanges": {
        "0": [
          {
            "number": 0,
            "ticks": 0,
            "time": 0,
            "value": 0
          }
        ],
        "32": [
          {
            "number": 32,
            "ticks": 0,
            "time": 0,
            "value": 0
          }
        ]
      },
      "pitchBends": [],
      "instrument": {
        "family": "piano",
        "number": 0,
        "name": "acoustic grand piano"
      },
      "name": "Bassoons",
      "notes": [],
      "endOfTrackTicks": 588960
    },
    {
      "channel": 4,
      "controlChanges": {
        "7": [
          {
            "number": 7,
            "ticks": 0,
            "time": 0,
            "value": 1
          }
        ],
        "10": [
          {
            "number": 10,
            "ticks": 0,
            "time": 0,
            "value": 0.5039370078740157
          }
        ],
        "11": [
          {
            "number": 11,
            "ticks": 84,
            "time": 0.058807,
            "value": 1
          },
          {
            "number": 11,
            "ticks": 159836,
            "time": 111.89851966666667,
            "value": 0.5196850393700787
          },
          {
            "number": 11,
            "ticks": 159844,
            "time": 111.90412033333334,
            "value": 0.5275590551181102
          },
          {
            "number": 11,
            "ticks": 159888,
            "time": 111.93492400000001,
            "value": 0.5354330708661418
          },
          {
            "number": 11,
            "ticks": 159932,
            "time": 111.96572766666667,
            "value": 0.5433070866141733
          },
          {
            "number": 11,
            "ticks": 159976,
            "time": 111.99653133333334,
            "value": 0.5511811023622047
          },
          {
            "number": 11,
            "ticks": 160020,
            "time": 112.02733500000001,
            "value": 0.5590551181102362
          },
          {
            "number": 11,
            "ticks": 160064,
            "time": 112.05813866666666,
            "value": 0.5669291338582677
          },
          {
            "number": 11,
            "ticks": 160108,
            "time": 112.08894233333334,
            "value": 0.5748031496062992
          },
          {
            "number": 11,
            "ticks": 160152,
            "time": 112.11974599999999,
            "value": 0.5826771653543307
          },
          {
            "number": 11,
            "ticks": 160196,
            "time": 112.15054966666668,
            "value": 0.5905511811023622
          },
          {
            "number": 11,
            "ticks": 160240,
            "time": 112.18135333333333,
            "value": 0.5984251968503937
          },
          {
            "number": 11,
            "ticks": 160284,
            "time": 112.212157,
            "value": 0.6062992125984252
          },
          {
            "number": 11,
            "ticks": 160328,
            "time": 112.24296066666666,
            "value": 0.6141732283464567
          },
          {
            "number": 11,
            "ticks": 160372,
            "time": 112.27376433333335,
            "value": 0.6299212598425197
          },
          {
            "number": 11,
            "ticks": 160416,
            "time": 112.304568,
            "value": 0.6456692913385826
          },
          {
            "number": 11,
            "ticks": 160460,
            "time": 112.33537166666667,
            "value": 0.6614173228346457
          },
          {
            "number": 11,
            "ticks": 160504,
            "time": 112.36617533333333,
            "value": 0.6771653543307087
          },
          {
            "number": 11,
            "ticks": 160548,
            "time": 112.39697900000002,
            "value": 0.6929133858267716
          },
          {
            "number": 11,
            "ticks": 160592,
            "time": 112.42778266666667,
            "value": 0.7086614173228346
          },
          {
            "number": 11,
            "ticks": 160636,
            "time": 112.45858633333334,
            "value": 0.7244094488188977
          },
          {
            "number": 11,
            "ticks": 160680,
            "time": 112.48939,
            "value": 0.7401574803149606
          },
          {
            "number": 11,
            "ticks": 160724,
            "time": 112.52019366666666,
            "value": 0.7559055118110236
          },
          {
            "number": 11,
            "ticks": 160768,
            "time": 112.55099733333334,
            "value": 0.7716535433070866
          },
          {
            "number": 11,
            "ticks": 160812,
            "time": 112.581801,
            "value": 0.7874015748031497
          },
          {
            "number": 11,
            "ticks": 160856,
            "time": 112.61260466666667,
            "value": 0.8110236220472441
          },
          {
            "number": 11,
            "ticks": 160900,
            "time": 112.64340833333333,
            "value": 0.8346456692913385
          },
          {
            "number": 11,
            "ticks": 160944,
            "time": 112.67421200000001,
            "value": 0.8582677165354331
          },
          {
            "number": 11,
            "ticks": 160988,
            "time": 112.70501566666667,
            "value": 0.8818897637795275
          },
          {
            "number": 11,
            "ticks": 161032,
            "time": 112.73581933333334,
            "value": 0.905511811023622
          },
          {
            "number": 11,
            "ticks": 161076,
            "time": 112.766623,
            "value": 0.9291338582677166
          },
          {
            "number": 11,
            "ticks": 161120,
            "time": 112.79742666666668,
            "value": 0.952755905511811
          },
          {
            "number": 11,
            "ticks": 161164,
            "time": 112.82823033333334,
            "value": 0.9763779527559056
          },
          {
            "number": 11,
            "ticks": 161208,
            "time": 112.85903400000001,
            "value": 1
          },
          {
            "number": 11,
            "ticks": 276476,
            "time": 202.4135197916667,
            "value": 0.5196850393700787
          },
          {
            "number": 11,
            "ticks": 276484,
            "time": 202.41912045833334,
            "value": 0.5275590551181102
          },
          {
            "number": 11,
            "ticks": 276616,
            "time": 202.51153145833337,
            "value": 0.5354330708661418
          },
          {
            "number": 11,
            "ticks": 276748,
            "time": 202.60394245833334,
            "value": 0.5433070866141733
          },
          {
            "number": 11,
            "ticks": 276880,
            "time": 202.69635345833336,
            "value": 0.5511811023622047
          },
          {
            "number": 11,
            "ticks": 277012,
            "time": 202.78876445833333,
            "value": 0.5590551181102362
          },
          {
            "number": 11,
            "ticks": 277144,
            "time": 202.88117545833336,
            "value": 0.5669291338582677
          },
          {
            "number": 11,
            "ticks": 277276,
            "time": 202.97358645833336,
            "value": 0.5748031496062992
          },
          {
            "number": 11,
            "ticks": 277408,
            "time": 203.06599745833336,
            "value": 0.5826771653543307
          },
          {
            "number": 11,
            "ticks": 277540,
            "time": 203.15840845833335,
            "value": 0.5905511811023622
          },
          {
            "number": 11,
            "ticks": 277672,
            "time": 203.25081945833335,
            "value": 0.5984251968503937
          },
          {
            "number": 11,
            "ticks": 277804,
            "time": 203.34323045833335,
            "value": 0.6062992125984252
          },
          {
            "number": 11,
            "ticks": 277936,
            "time": 203.43564145833335,
            "value": 0.6141732283464567
          },
          {
            "number": 11,
            "ticks": 278068,
            "time": 203.52805245833335,
            "value": 0.6299212598425197
          },
          {
            "number": 11,
            "ticks": 278200,
            "time": 203.62046345833335,
            "value": 0.6456692913385826
          },
          {
            "number": 11,
            "ticks": 278332,
            "time": 203.71287445833335,
            "value": 0.6614173228346457
          },
          {
            "number": 11,
            "ticks": 278464,
            "time": 203.80528545833334,
            "value": 0.6771653543307087
          },
          {
            "number": 11,
            "ticks": 278596,
            "time": 203.89769645833334,
            "value": 0.6929133858267716
          },
          {
            "number": 11,
            "ticks": 278728,
            "time": 203.99010745833334,
            "value": 0.7086614173228346
          },
          {
            "number": 11,
            "ticks": 278860,
            "time": 204.08251845833337,
            "value": 0.7244094488188977
          },
          {
            "number": 11,
            "ticks": 278992,
            "time": 204.17492945833334,
            "value": 0.7401574803149606
          },
          {
            "number": 11,
            "ticks": 279124,
            "time": 204.26734045833334,
            "value": 0.7559055118110236
          },
          {
            "number": 11,
            "ticks": 279256,
            "time": 204.35975145833333,
            "value": 0.7716535433070866
          },
          {
            "number": 11,
            "ticks": 279388,
            "time": 204.45216245833336,
            "value": 0.7874015748031497
          },
          {
            "number": 11,
            "ticks": 279520,
            "time": 204.54457345833336,
            "value": 0.8110236220472441
          },
          {
            "number": 11,
            "ticks": 279652,
            "time": 204.63698445833336,
            "value": 0.8346456692913385
          },
          {
            "number": 11,
            "ticks": 279784,
            "time": 204.72939545833336,
            "value": 0.8582677165354331
          },
          {
            "number": 11,
            "ticks": 279916,
            "time": 204.82180645833336,
            "value": 0.8818897637795275
          },
          {
            "number": 11,
            "ticks": 280048,
            "time": 204.91421745833335,
            "value": 0.905511811023622
          },
          {
            "number": 11,
            "ticks": 280180,
            "time": 205.00662845833335,
            "value": 0.9291338582677166
          },
          {
            "number": 11,
            "ticks": 280312,
            "time": 205.09903945833335,
            "value": 0.952755905511811
          },
          {
            "number": 11,
            "ticks": 280444,
            "time": 205.19145045833335,
            "value": 0.9763779527559056
          },
          {
            "number": 11,
            "ticks": 280576,
            "time": 205.28386145833335,
            "value": 1
          },
          {
            "number": 11,
            "ticks": 385916,
            "time": 284.90124561666664,
            "value": 0.5196850393700787
          },
          {
            "number": 11,
            "ticks": 385924,
            "time": 284.90697463333333,
            "value": 0.5275590551181102
          },
          {
            "number": 11,
            "ticks": 385968,
            "time": 284.93848422499997,
            "value": 0.5354330708661418
          },
          {
            "number": 11,
            "ticks": 386012,
            "time": 284.96999381666666,
            "value": 0.5433070866141733
          },
          {
            "number": 11,
            "ticks": 386056,
            "time": 285.00150340833335,
            "value": 0.5511811023622047
          },
          {
            "number": 11,
            "ticks": 386100,
            "time": 285.033013,
            "value": 0.5590551181102362
          },
          {
            "number": 11,
            "ticks": 386144,
            "time": 285.0645225916667,
            "value": 0.5669291338582677
          },
          {
            "number": 11,
            "ticks": 386188,
            "time": 285.0960321833333,
            "value": 0.5748031496062992
          },
          {
            "number": 11,
            "ticks": 386232,
            "time": 285.127541775,
            "value": 0.5826771653543307
          },
          {
            "number": 11,
            "ticks": 386276,
            "time": 285.15905136666663,
            "value": 0.5905511811023622
          },
          {
            "number": 11,
            "ticks": 386320,
            "time": 285.1905609583333,
            "value": 0.5984251968503937
          },
          {
            "number": 11,
            "ticks": 386364,
            "time": 285.22207055,
            "value": 0.6062992125984252
          },
          {
            "number": 11,
            "ticks": 386408,
            "time": 285.25358014166665,
            "value": 0.6141732283464567
          },
          {
            "number": 11,
            "ticks": 386452,
            "time": 285.28508973333334,
            "value": 0.6299212598425197
          },
          {
            "number": 11,
            "ticks": 386496,
            "time": 285.31659932499997,
            "value": 0.6456692913385826
          },
          {
            "number": 11,
            "ticks": 386540,
            "time": 285.34810891666666,
            "value": 0.6614173228346457
          },
          {
            "number": 11,
            "ticks": 386584,
            "time": 285.37961850833335,
            "value": 0.6771653543307087
          },
          {
            "number": 11,
            "ticks": 386628,
            "time": 285.4111281,
            "value": 0.6929133858267716
          },
          {
            "number": 11,
            "ticks": 386672,
            "time": 285.4426376916667,
            "value": 0.7086614173228346
          },
          {
            "number": 11,
            "ticks": 386716,
            "time": 285.4741472833333,
            "value": 0.7244094488188977
          },
          {
            "number": 11,
            "ticks": 386760,
            "time": 285.505656875,
            "value": 0.7401574803149606
          },
          {
            "number": 11,
            "ticks": 386804,
            "time": 285.5371664666667,
            "value": 0.7559055118110236
          },
          {
            "number": 11,
            "ticks": 386848,
            "time": 285.5686760583333,
            "value": 0.7716535433070866
          },
          {
            "number": 11,
            "ticks": 386892,
            "time": 285.60018565,
            "value": 0.7874015748031497
          },
          {
            "number": 11,
            "ticks": 386936,
            "time": 285.63169524166665,
            "value": 0.8110236220472441
          },
          {
            "number": 11,
            "ticks": 386980,
            "time": 285.66320483333334,
            "value": 0.8346456692913385
          },
          {
            "number": 11,
            "ticks": 387024,
            "time": 285.694714425,
            "value": 0.8582677165354331
          },
          {
            "number": 11,
            "ticks": 387068,
            "time": 285.72622401666666,
            "value": 0.8818897637795275
          },
          {
            "number": 11,
            "ticks": 387112,
            "time": 285.7577336083333,
            "value": 0.905511811023622
          },
          {
            "number": 11,
            "ticks": 387156,
            "time": 285.7892432,
            "value": 0.9291338582677166
          },
          {
            "number": 11,
            "ticks": 387200,
            "time": 285.8207527916667,
            "value": 0.952755905511811
          },
          {
            "number": 11,
            "ticks": 387244,
            "time": 285.8522623833333,
            "value": 0.9763779527559056
          },
          {
            "number": 11,
            "ticks": 387288,
            "time": 285.883771975,
            "value": 1
          }
        ],
        "91": [
          {
            "number": 91,
            "ticks": 88,
            "time": 0.06160733333333333,
            "value": 0.6220472440944882
          }
        ],
        "93": [
          {
            "number": 93,
            "ticks": 88,
            "time": 0.06160733333333333,
            "value": 0.07874015748031496
          }
        ],
        "121": [
          {
            "number": 121,
            "ticks": 80,
            "time": 0.05600666666666666,
            "value": 0
          }
        ]
      },
      "pitchBends": [
        {
          "ticks": 104,
          "time": 0.07280866666666667,
          "value": 0
        }
      ],
      "instrument": {
        "family": "reed",
        "number": 70,
        "name": "bassoon"
      },
      "name": "",
      "notes": [
        {
          "duration": 0.08120966666666618,
          "durationTicks": 116,
          "midi": 62,
          "name": "D4",
          "ticks": 12960,
          "time": 9.073080000000001,
          "velocity": 0.2755905511811024
        },
        {
          "duration": 0.08120966666666618,
          "durationTicks": 116,
          "midi": 65,
          "name": "F4",
          "ticks": 12960,
          "time": 9.073080000000001,
          "velocity": 0.2755905511811024
        },
        {
          "duration": 0.08120966666666796,
          "durationTicks": 116,
          "midi": 62,
          "name": "D4",
          "ticks": 13200,
          "time": 9.2411,
          "velocity": 0.2755905511811024
        },
        {
          "duration": 0.08120966666666796,
          "durationTicks": 116,
          "midi": 65,
          "name": "F4",
          "ticks": 13200,
          "time": 9.2411,
          "velocity": 0.2755905511811024
        },
        {
          "duration": 0.08120966666666796,
          "durationTicks": 116,
          "midi": 62,
          "name": "D4",
          "ticks": 13440,
          "time": 9.40912,
          "velocity": 0.2755905511811024
        },
        {
          "duration": 0.08120966666666796,
          "durationTicks": 116,
          "midi": 65,
          "name": "F4",
          "ticks": 13440,
          "time": 9.40912,
          "velocity": 0.2755905511811024
        },
        {
          "duration": 0.08120966666666618,
          "durationTicks": 116,
          "midi": 62,
          "name": "D4",
          "ticks": 13680,
          "time": 9.57714,
          "velocity": 0.2755905511811024
        },
        {
          "duration": 0.08120966666666618,
          "durationTicks": 116,
          "midi": 65,
          "name": "F4",
          "ticks": 13680,
          "time": 9.57714,
          "velocity": 0.2755905511811024
        },
        {
          "duration": 0.08120966666666618,
          "durationTicks": 116,
          "midi": 62,
          "name": "D4",
          "ticks": 13920,
          "time": 9.74516,
          "velocity": 0.2755905511811024
        },
        {
          "duration": 0.08120966666666618,
          "durationTicks": 116,
          "midi": 65,
          "name": "F4",
          "ticks": 13920,
          "time": 9.74516,
          "velocity": 0.2755905511811024
        },
        {
          "duration": 0.08120966666666618,
          "durationTicks": 116,
          "midi": 62,
          "name": "D4",
          "ticks": 14160,
          "time": 9.91318,
          "velocity": 0.2755905511811024
        },
        {
          "duration": 0.08120966666666618,
          "durationTicks": 116,
          "midi": 65,
          "name": "F4",
          "ticks": 14160,
          "time": 9.91318,
          "velocity": 0.2755905511811024
        },
        {
          "duration": 0.08120966666666618,
          "durationTicks": 116,
          "midi": 62,
          "name": "D4",
          "ticks": 14400,
          "time": 10.0812,
          "velocity": 0.2755905511811024
        },
        {
          "duration": 0.08120966666666618,
          "durationTicks": 116,
          "midi": 65,
          "name": "F4",
          "ticks": 14400,
          "time": 10.0812,
          "velocity": 0.2755905511811024
        },
        {
          "duration": 0.08120966666666796,
          "durationTicks": 116,
          "midi": 62,
          "name": "D4",
          "ticks": 14640,
          "time": 10.24922,
          "velocity": 0.2755905511811024
        },
        {
          "duration": 0.08120966666666796,
          "durationTicks": 116,
          "midi": 65,
          "name": "F4",
          "ticks": 14640,
          "time": 10.24922,
          "velocity": 0.2755905511811024
        },
        {
          "duration": 0.08120966666666796,
          "durationTicks": 116,
          "midi": 62,
          "name": "D4",
          "ticks": 14880,
          "time": 10.41724,
          "velocity": 0.2755905511811024
        },
        {
          "duration": 0.08120966666666796,
          "durationTicks": 116,
          "midi": 65,
          "name": "F4",
          "ticks": 14880,
          "time": 10.41724,
          "velocity": 0.2755905511811024
        },
        {
          "duration": 0.08120966666666796,
          "durationTicks": 116,
          "midi": 62,
          "name": "D4",
          "ticks": 15120,
          "time": 10.58526,
          "velocity": 0.2755905511811024
        },
        {
          "duration": 0.08120966666666796,
          "durationTicks": 116,
          "midi": 65,
          "name": "F4",
          "ticks": 15120,
          "time": 10.58526,
          "velocity": 0.2755905511811024
        },
        {
          "duration": 0.08120966666666618,
          "durationTicks": 116,
          "midi": 62,
          "name": "D4",
          "ticks": 15360,
          "time": 10.75328,
          "velocity": 0.2755905511811024
        },
        {
          "duration": 0.08120966666666618,
          "durationTicks": 116,
          "midi": 65,
          "name": "F4",
          "ticks": 15360,
          "time": 10.75328,
          "velocity": 0.2755905511811024
        },
        {
          "duration": 0.08120966666666618,
          "durationTicks": 116,
          "midi": 62,
          "name": "D4",
          "ticks": 15600,
          "time": 10.9213,
          "velocity": 0.2755905511811024
        },
        {
          "duration": 0.08120966666666618,
          "durationTicks": 116,
          "midi": 65,
          "name": "F4",
          "ticks": 15600,
          "time": 10.9213,
          "velocity": 0.2755905511811024
        },
        {
          "duration": 0.08120966666666618,
          "durationTicks": 116,
          "midi": 60,
          "name": "C4",
          "ticks": 15840,
          "time": 11.08932,
          "velocity": 0.2755905511811024
        },
        {
          "duration": 0.08120966666666618,
          "durationTicks": 116,
          "midi": 63,
          "name": "D#4",
          "ticks": 15840,
          "time": 11.08932,
          "velocity": 0.2755905511811024
        },
        {
          "duration": 0.08120966666666618,
          "durationTicks": 116,
          "midi": 60,
          "name": "C4",
          "ticks": 16080,
          "time": 11.257340000000001,
          "velocity": 0.2755905511811024
        },
        {
          "duration": 0.08120966666666618,
          "durationTicks": 116,
          "midi": 63,
          "name": "D#4",
          "ticks": 16080,
          "time": 11.257340000000001,
          "velocity": 0.2755905511811024
        },
        {
          "duration": 0.08120966666666796,
          "durationTicks": 116,
          "midi": 60,
          "name": "C4",
          "ticks": 16320,
          "time": 11.42536,
          "velocity": 0.2755905511811024
        },
        {
          "duration": 0.08120966666666796,
          "durationTicks": 116,
          "midi": 63,
          "name": "D#4",
          "ticks": 16320,
          "time": 11.42536,
          "velocity": 0.2755905511811024
        },
        {
          "duration": 0.08120966666666796,
          "durationTicks": 116,
          "midi": 58,
          "name": "A#3",
          "ticks": 16560,
          "time": 11.59338,
          "velocity": 0.2755905511811024
        },
        {
          "duration": 0.08120966666666796,
          "durationTicks": 116,
          "midi": 62,
          "name": "D4",
          "ticks": 16560,
          "time": 11.59338,
          "velocity": 0.2755905511811024
        },
        {
          "duration": 0.08120966666666618,
          "durationTicks": 116,
          "midi": 58,
          "name": "A#3",
          "ticks": 16800,
          "time": 11.7614,
          "velocity": 0.2755905511811024
        },
        {
          "duration": 0.08120966666666618,
          "durationTicks": 116,
          "midi": 62,
          "name": "D4",
          "ticks": 16800,
          "time": 11.7614,
          "velocity": 0.2755905511811024
        },
        {
          "duration": 0.08120966666666618,
          "durationTicks": 116,
          "midi": 58,
          "name": "A#3",
          "ticks": 17040,
          "time": 11.92942,
          "velocity": 0.2755905511811024
        },
        {
          "duration": 0.08120966666666618,
          "durationTicks": 116,
          "midi": 62,
          "name": "D4",
          "ticks": 17040,
          "time": 11.92942,
          "velocity": 0.2755905511811024
        },
        {
          "duration": 0.08120966666666618,
          "durationTicks": 116,
          "midi": 58,
          "name": "A#3",
          "ticks": 17280,
          "time": 12.09744,
          "velocity": 0.2755905511811024
        },
        {
          "duration": 0.08120966666666618,
          "durationTicks": 116,
          "midi": 62,
          "name": "D4",
          "ticks": 17280,
          "time": 12.09744,
          "velocity": 0.2755905511811024
        },
        {
          "duration": 0.08120966666666618,
          "durationTicks": 116,
          "midi": 58,
          "name": "A#3",
          "ticks": 17520,
          "time": 12.265460000000001,
          "velocity": 0.2755905511811024
        },
        {
          "duration": 0.08120966666666618,
          "durationTicks": 116,
          "midi": 62,
          "name": "D4",
          "ticks": 17520,
          "time": 12.265460000000001,
          "velocity": 0.2755905511811024
        },
        {
          "duration": 0.08120966666666796,
          "durationTicks": 116,
          "midi": 58,
          "name": "A#3",
          "ticks": 17760,
          "time": 12.43348,
          "velocity": 0.2755905511811024
        },
        {
          "duration": 0.08120966666666796,
          "durationTicks": 116,
          "midi": 62,
          "name": "D4",
          "ticks": 17760,
          "time": 12.43348,
          "velocity": 0.2755905511811024
        },
        {
          "duration": 0.08120966666666796,
          "durationTicks": 116,
          "midi": 57,
          "name": "A3",
          "ticks": 18000,
          "time": 12.6015,
          "velocity": 0.2755905511811024
        },
        {
          "duration": 0.08120966666666796,
          "durationTicks": 116,
          "midi": 60,
          "name": "C4",
          "ticks": 18000,
          "time": 12.6015,
          "velocity": 0.2755905511811024
        },
        {
          "duration": 0.08120966666666618,
          "durationTicks": 116,
          "midi": 57,
          "name": "A3",
          "ticks": 18240,
          "time": 12.76952,
          "velocity": 0.2755905511811024
        },
        {
          "duration": 0.08120966666666618,
          "durationTicks": 116,
          "midi": 60,
          "name": "C4",
          "ticks": 18240,
          "time": 12.76952,
          "velocity": 0.2755905511811024
        },
        {
          "duration": 0.08120966666666618,
          "durationTicks": 116,
          "midi": 57,
          "name": "A3",
          "ticks": 18480,
          "time": 12.93754,
          "velocity": 0.2755905511811024
        },
        {
          "duration": 0.08120966666666618,
          "durationTicks": 116,
          "midi": 60,
          "name": "C4",
          "ticks": 18480,
          "time": 12.93754,
          "velocity": 0.2755905511811024
        },
        {
          "duration": 0.16521966666666543,
          "durationTicks": 236,
          "midi": 57,
          "name": "A3",
          "ticks": 18960,
          "time": 13.27358,
          "velocity": 0.2755905511811024
        },
        {
          "duration": 0.16521966666666543,
          "durationTicks": 236,
          "midi": 61,
          "name": "C#4",
          "ticks": 18960,
          "time": 13.27358,
          "velocity": 0.3543307086614173
        },
        {
          "duration": 0.08120966666666618,
          "durationTicks": 116,
          "midi": 58,
          "name": "A#3",
          "ticks": 19200,
          "time": 13.441600000000001,
          "velocity": 0.2755905511811024
        },
        {
          "duration": 0.08120966666666618,
          "durationTicks": 116,
          "midi": 62,
          "name": "D4",
          "ticks": 19200,
          "time": 13.441600000000001,
          "velocity": 0.2755905511811024
        },
        {
          "duration": 0.13721633333333294,
          "durationTicks": 196,
          "midi": 59,
          "name": "B3",
          "ticks": 19680,
          "time": 13.77764,
          "velocity": 0.2755905511811024
        },
        {
          "duration": 0.1652196666666672,
          "durationTicks": 236,
          "midi": 62,
          "name": "D4",
          "ticks": 19680,
          "time": 13.77764,
          "velocity": 0.3543307086614173
        },
        {
          "duration": 0.08120966666666618,
          "durationTicks": 116,
          "midi": 60,
          "name": "C4",
          "ticks": 19920,
          "time": 13.94566,
          "velocity": 0.2755905511811024
        },
        {
          "duration": 0.08120966666666618,
          "durationTicks": 116,
          "midi": 63,
          "name": "D#4",
          "ticks": 19920,
          "time": 13.94566,
          "velocity": 0.2755905511811024
        },
        {
          "duration": 0.08120966666666618,
          "durationTicks": 116,
          "midi": 62,
          "name": "D4",
          "ticks": 20400,
          "time": 14.2817,
          "velocity": 0.2755905511811024
        },
        {
          "duration": 0.08120966666666618,
          "durationTicks": 116,
          "midi": 65,
          "name": "F4",
          "ticks": 20400,
          "time": 14.2817,
          "velocity": 0.2755905511811024
        },
        {
          "duration": 0.08120966666666618,
          "durationTicks": 116,
          "midi": 62,
          "name": "D4",
          "ticks": 20640,
          "time": 14.449720000000001,
          "velocity": 0.2755905511811024
        },
        {
          "duration": 0.08120966666666618,
          "durationTicks": 116,
          "midi": 65,
          "name": "F4",
          "ticks": 20640,
          "time": 14.449720000000001,
          "velocity": 0.2755905511811024
        },
        {
          "duration": 0.08120966666666796,
          "durationTicks": 116,
          "midi": 62,
          "name": "D4",
          "ticks": 20880,
          "time": 14.61774,
          "velocity": 0.2755905511811024
        },
        {
          "duration": 0.08120966666666796,
          "durationTicks": 116,
          "midi": 65,
          "name": "F4",
          "ticks": 20880,
          "time": 14.61774,
          "velocity": 0.2755905511811024
        },
        {
          "duration": 0.08120966666666796,
          "durationTicks": 116,
          "midi": 62,
          "name": "D4",
          "ticks": 21120,
          "time": 14.78576,
          "velocity": 0.2755905511811024
        },
        {
          "duration": 0.08120966666666796,
          "durationTicks": 116,
          "midi": 65,
          "name": "F4",
          "ticks": 21120,
          "time": 14.78576,
          "velocity": 0.2755905511811024
        },
        {
          "duration": 0.08120966666666618,
          "durationTicks": 116,
          "midi": 62,
          "name": "D4",
          "ticks": 21360,
          "time": 14.95378,
          "velocity": 0.2755905511811024
        },
        {
          "duration": 0.08120966666666618,
          "durationTicks": 116,
          "midi": 65,
          "name": "F4",
          "ticks": 21360,
          "time": 14.95378,
          "velocity": 0.2755905511811024
        },
        {
          "duration": 0.08120966666666618,
          "durationTicks": 116,
          "midi": 58,
          "name": "A#3",
          "ticks": 21600,
          "time": 15.1218,
          "velocity": 0.2755905511811024
        },
        {
          "duration": 0.08120966666666618,
          "durationTicks": 116,
          "midi": 62,
          "name": "D4",
          "ticks": 21600,
          "time": 15.1218,
          "velocity": 0.2755905511811024
        },
        {
          "duration": 0.08120966666666618,
          "durationTicks": 116,
          "midi": 58,
          "name": "A#3",
          "ticks": 21840,
          "time": 15.28982,
          "velocity": 0.2755905511811024
        },
        {
          "duration": 0.08120966666666618,
          "durationTicks": 116,
          "midi": 62,
          "name": "D4",
          "ticks": 21840,
          "time": 15.28982,
          "velocity": 0.2755905511811024
        },
        {
          "duration": 0.08120966666666618,
          "durationTicks": 116,
          "midi": 58,
          "name": "A#3",
          "ticks": 22080,
          "time": 15.457840000000001,
          "velocity": 0.2755905511811024
        },
        {
          "duration": 0.08120966666666618,
          "durationTicks": 116,
          "midi": 62,
          "name": "D4",
          "ticks": 22080,
          "time": 15.457840000000001,
          "velocity": 0.2755905511811024
        },
        {
          "duration": 0.08120966666666796,
          "durationTicks": 116,
          "midi": 57,
          "name": "A3",
          "ticks": 22320,
          "time": 15.62586,
          "velocity": 0.2755905511811024
        },
        {
          "duration": 0.08120966666666796,
          "durationTicks": 116,
          "midi": 60,
          "name": "C4",
          "ticks": 22320,
          "time": 15.62586,
          "velocity": 0.2755905511811024
        },
        {
          "duration": 0.08120966666666796,
          "durationTicks": 116,
          "midi": 57,
          "name": "A3",
          "ticks": 22560,
          "time": 15.79388,
          "velocity": 0.2755905511811024
        },
        {
          "duration": 0.08120966666666796,
          "durationTicks": 116,
          "midi": 60,
          "name": "C4",
          "ticks": 22560,
          "time": 15.79388,
          "velocity": 0.2755905511811024
        },
        {
          "duration": 0.08120966666666618,
          "durationTicks": 116,
          "midi": 57,
          "name": "A3",
          "ticks": 22800,
          "time": 15.9619,
          "velocity": 0.2755905511811024
        },
        {
          "duration": 0.08120966666666618,
          "durationTicks": 116,
          "midi": 60,
          "name": "C4",
          "ticks": 22800,
          "time": 15.9619,
          "velocity": 0.2755905511811024
        },
        {
          "duration": 0.5012596666666695,
          "durationTicks": 716,
          "midi": 57,
          "name": "A3",
          "ticks": 23040,
          "time": 16.12992,
          "velocity": 0.2755905511811024
        },
        {
          "duration": 0.5012596666666695,
          "durationTicks": 716,
          "midi": 63,
          "name": "D#4",
          "ticks": 23040,
          "time": 16.12992,
          "velocity": 0.2755905511811024
        },
        {
          "duration": 0.08120966666666618,
          "durationTicks": 116,
          "midi": 58,
          "name": "A#3",
          "ticks": 23760,
          "time": 16.63398,
          "velocity": 0.2755905511811024
        },
        {
          "duration": 0.08120966666666618,
          "durationTicks": 116,
          "midi": 62,
          "name": "D4",
          "ticks": 23760,
          "time": 16.63398,
          "velocity": 0.2755905511811024
        },
        {
          "duration": 1.5093796666666606,
          "durationTicks": 2156,
          "midi": 58,
          "name": "A#3",
          "ticks": 57600,
          "time": 40.3248,
          "velocity": 0.3464566929133858
        },
        {
          "duration": 0.5012596666666624,
          "durationTicks": 716,
          "midi": 67,
          "name": "G4",
          "ticks": 57600,
          "time": 40.3248,
          "velocity": 0.3464566929133858
        },
        {
          "duration": 0.5012596666666695,
          "durationTicks": 716,
          "midi": 66,
          "name": "F#4",
          "ticks": 58320,
          "time": 40.82886,
          "velocity": 0.3464566929133858
        },
        {
          "duration": 0.5852696666666617,
          "durationTicks": 836,
          "midi": 67,
          "name": "G4",
          "ticks": 59040,
          "time": 41.33292,
          "velocity": 0.3464566929133858
        },
        {
          "duration": 0.24922966666665758,
          "durationTicks": 356,
          "midi": 55,
          "name": "G3",
          "ticks": 59760,
          "time": 41.836980000000004,
          "velocity": 0.3464566929133858
        },
        {
          "duration": 0.16521966666665833,
          "durationTicks": 236,
          "midi": 63,
          "name": "D#4",
          "ticks": 59760,
          "time": 41.836980000000004,
          "velocity": 0.3464566929133858
        },
        {
          "duration": 0.16521966666666543,
          "durationTicks": 236,
          "midi": 57,
          "name": "A3",
          "ticks": 63600,
          "time": 44.5253,
          "velocity": 0.1889763779527559
        },
        {
          "duration": 0.16521966666666543,
          "durationTicks": 236,
          "midi": 61,
          "name": "C#4",
          "ticks": 63600,
          "time": 44.5253,
          "velocity": 0.2677165354330709
        },
        {
          "duration": 0.08120966666667329,
          "durationTicks": 116,
          "midi": 58,
          "name": "A#3",
          "ticks": 63840,
          "time": 44.69332,
          "velocity": 0.1889763779527559
        },
        {
          "duration": 0.08120966666667329,
          "durationTicks": 116,
          "midi": 62,
          "name": "D4",
          "ticks": 63840,
          "time": 44.69332,
          "velocity": 0.1889763779527559
        },
        {
          "duration": 0.16521966666666543,
          "durationTicks": 236,
          "midi": 59,
          "name": "B3",
          "ticks": 64320,
          "time": 45.029360000000004,
          "velocity": 0.1968503937007874
        },
        {
          "duration": 0.16521966666666543,
          "durationTicks": 236,
          "midi": 62,
          "name": "D4",
          "ticks": 64320,
          "time": 45.029360000000004,
          "velocity": 0.1968503937007874
        },
        {
          "duration": 0.16521966666666543,
          "durationTicks": 236,
          "midi": 60,
          "name": "C4",
          "ticks": 64560,
          "time": 45.19738,
          "velocity": 0.1968503937007874
        },
        {
          "duration": 0.16521966666666543,
          "durationTicks": 236,
          "midi": 63,
          "name": "D#4",
          "ticks": 64560,
          "time": 45.19738,
          "velocity": 0.1968503937007874
        },
        {
          "duration": 0.669279666666668,
          "durationTicks": 956,
          "midi": 62,
          "name": "D4",
          "ticks": 64800,
          "time": 45.3654,
          "velocity": 0.1968503937007874
        },
        {
          "duration": 0.669279666666668,
          "durationTicks": 956,
          "midi": 65,
          "name": "F4",
          "ticks": 64800,
          "time": 45.3654,
          "velocity": 0.1968503937007874
        },
        {
          "duration": 1.929429666666671,
          "durationTicks": 2756,
          "midi": 58,
          "name": "A#3",
          "ticks": 66240,
          "time": 46.37352,
          "velocity": 0.3464566929133858
        },
        {
          "duration": 0.5012596666666695,
          "durationTicks": 716,
          "midi": 67,
          "name": "G4",
          "ticks": 66240,
          "time": 46.37352,
          "velocity": 0.3464566929133858
        },
        {
          "duration": 0.5012596666666695,
          "durationTicks": 716,
          "midi": 66,
          "name": "F#4",
          "ticks": 66960,
          "time": 46.87758,
          "velocity": 0.3464566929133858
        },
        {
          "duration": 0.9213096666666729,
          "durationTicks": 1316,
          "midi": 67,
          "name": "G4",
          "ticks": 67680,
          "time": 47.38164,
          "velocity": 0.3464566929133858
        },
        {
          "duration": 0.08120966666666618,
          "durationTicks": 116,
          "midi": 62,
          "name": "D4",
          "ticks": 69120,
          "time": 48.38976,
          "velocity": 0.25984251968503935
        },
        {
          "duration": 0.08120966666666618,
          "durationTicks": 116,
          "midi": 65,
          "name": "F4",
          "ticks": 69120,
          "time": 48.38976,
          "velocity": 0.25984251968503935
        },
        {
          "duration": 0.08120966666667329,
          "durationTicks": 116,
          "midi": 62,
          "name": "D4",
          "ticks": 69600,
          "time": 48.7258,
          "velocity": 0.25984251968503935
        },
        {
          "duration": 0.08120966666667329,
          "durationTicks": 116,
          "midi": 65,
          "name": "F4",
          "ticks": 69600,
          "time": 48.7258,
          "velocity": 0.25984251968503935
        },
        {
          "duration": 0.08120966666667329,
          "durationTicks": 116,
          "midi": 62,
          "name": "D4",
          "ticks": 69840,
          "time": 48.89382,
          "velocity": 0.25196850393700787
        },
        {
          "duration": 0.08120966666667329,
          "durationTicks": 116,
          "midi": 65,
          "name": "F4",
          "ticks": 69840,
          "time": 48.89382,
          "velocity": 0.25196850393700787
        },
        {
          "duration": 0.08120966666666618,
          "durationTicks": 116,
          "midi": 62,
          "name": "D4",
          "ticks": 70320,
          "time": 49.22986,
          "velocity": 0.2440944881889764
        },
        {
          "duration": 0.08120966666666618,
          "durationTicks": 116,
          "midi": 65,
          "name": "F4",
          "ticks": 70320,
          "time": 49.22986,
          "velocity": 0.2440944881889764
        },
        {
          "duration": 0.669279666666668,
          "durationTicks": 956,
          "midi": 63,
          "name": "D#4",
          "ticks": 70560,
          "time": 49.39788,
          "velocity": 0.2440944881889764
        },
        {
          "duration": 0.669279666666668,
          "durationTicks": 956,
          "midi": 67,
          "name": "G4",
          "ticks": 70560,
          "time": 49.39788,
          "velocity": 0.2440944881889764
        },
        {
          "duration": 0.16521966666666543,
          "durationTicks": 236,
          "midi": 62,
          "name": "D4",
          "ticks": 71520,
          "time": 50.06996,
          "velocity": 0.2283464566929134
        },
        {
          "duration": 0.16521966666666543,
          "durationTicks": 236,
          "midi": 65,
          "name": "F4",
          "ticks": 71520,
          "time": 50.06996,
          "velocity": 0.2283464566929134
        },
        {
          "duration": 0.16521966666667254,
          "durationTicks": 236,
          "midi": 60,
          "name": "C4",
          "ticks": 71760,
          "time": 50.23798,
          "velocity": 0.2204724409448819
        },
        {
          "duration": 0.16521966666667254,
          "durationTicks": 236,
          "midi": 63,
          "name": "D#4",
          "ticks": 71760,
          "time": 50.23798,
          "velocity": 0.2204724409448819
        },
        {
          "duration": 0.08120966666667329,
          "durationTicks": 116,
          "midi": 65,
          "name": "F4",
          "ticks": 72000,
          "time": 50.406,
          "velocity": 0.2204724409448819
        },
        {
          "duration": 0.08120966666666618,
          "durationTicks": 116,
          "midi": 65,
          "name": "F4",
          "ticks": 72480,
          "time": 50.74204,
          "velocity": 0.2125984251968504
        },
        {
          "duration": 0.08120966666666618,
          "durationTicks": 116,
          "midi": 53,
          "name": "F3",
          "ticks": 72720,
          "time": 50.91006,
          "velocity": 0.2047244094488189
        },
        {
          "duration": 0.08120966666667329,
          "durationTicks": 116,
          "midi": 53,
          "name": "F3",
          "ticks": 73200,
          "time": 51.2461,
          "velocity": 0.1968503937007874
        },
        {
          "duration": 0.08120966666666618,
          "durationTicks": 116,
          "midi": 58,
          "name": "A#3",
          "ticks": 73440,
          "time": 51.414120000000004,
          "velocity": 0.4330708661417323
        },
        {
          "duration": 0.08120966666666618,
          "durationTicks": 116,
          "midi": 57,
          "name": "A3",
          "ticks": 73680,
          "time": 51.58214,
          "velocity": 0.4330708661417323
        },
        {
          "duration": 0.08120966666666618,
          "durationTicks": 116,
          "midi": 55,
          "name": "G3",
          "ticks": 73920,
          "time": 51.75016,
          "velocity": 0.4330708661417323
        },
        {
          "duration": 0.08120966666667329,
          "durationTicks": 116,
          "midi": 54,
          "name": "F#3",
          "ticks": 74160,
          "time": 51.91818,
          "velocity": 0.4330708661417323
        },
        {
          "duration": 0.08120966666667329,
          "durationTicks": 116,
          "midi": 55,
          "name": "G3",
          "ticks": 74400,
          "time": 52.0862,
          "velocity": 0.4330708661417323
        },
        {
          "duration": 0.08120966666666618,
          "durationTicks": 116,
          "midi": 52,
          "name": "E3",
          "ticks": 74640,
          "time": 52.254220000000004,
          "velocity": 0.4330708661417323
        },
        {
          "duration": 0.08120966666666618,
          "durationTicks": 116,
          "midi": 53,
          "name": "F3",
          "ticks": 74880,
          "time": 52.42224,
          "velocity": 0.4330708661417323
        },
        {
          "duration": 0.08120966666666618,
          "durationTicks": 116,
          "midi": 50,
          "name": "D3",
          "ticks": 75120,
          "time": 52.59026,
          "velocity": 0.4330708661417323
        },
        {
          "duration": 0.08120966666667329,
          "durationTicks": 116,
          "midi": 51,
          "name": "D#3",
          "ticks": 75360,
          "time": 52.75828,
          "velocity": 0.4330708661417323
        },
        {
          "duration": 0.08120966666667329,
          "durationTicks": 116,
          "midi": 49,
          "name": "C#3",
          "ticks": 75600,
          "time": 52.9263,
          "velocity": 0.4330708661417323
        },
        {
          "duration": 0.08120966666666618,
          "durationTicks": 116,
          "midi": 50,
          "name": "D3",
          "ticks": 75840,
          "time": 53.09432,
          "velocity": 0.4330708661417323
        },
        {
          "duration": 0.08120966666666618,
          "durationTicks": 116,
          "midi": 46,
          "name": "A#2",
          "ticks": 76080,
          "time": 53.26234,
          "velocity": 0.4330708661417323
        },
        {
          "duration": 0.08120966666667329,
          "durationTicks": 116,
          "midi": 51,
          "name": "D#3",
          "ticks": 76320,
          "time": 53.43036,
          "velocity": 0.4330708661417323
        },
        {
          "duration": 0.08120966666667329,
          "durationTicks": 116,
          "midi": 51,
          "name": "D#3",
          "ticks": 76560,
          "time": 53.59838,
          "velocity": 0.4330708661417323
        },
        {
          "duration": 0.08120966666666618,
          "durationTicks": 116,
          "midi": 51,
          "name": "D#3",
          "ticks": 76800,
          "time": 53.766400000000004,
          "velocity": 0.4330708661417323
        },
        {
          "duration": 0.08120966666666618,
          "durationTicks": 116,
          "midi": 51,
          "name": "D#3",
          "ticks": 77040,
          "time": 53.93442,
          "velocity": 0.4330708661417323
        },
        {
          "duration": 0.08120966666666618,
          "durationTicks": 116,
          "midi": 50,
          "name": "D3",
          "ticks": 77280,
          "time": 54.10244,
          "velocity": 0.4330708661417323
        },
        {
          "duration": 0.08120966666667329,
          "durationTicks": 116,
          "midi": 48,
          "name": "C3",
          "ticks": 77520,
          "time": 54.27046,
          "velocity": 0.4330708661417323
        },
        {
          "duration": 0.08120966666667329,
          "durationTicks": 116,
          "midi": 53,
          "name": "F3",
          "ticks": 77760,
          "time": 54.43848,
          "velocity": 0.4330708661417323
        },
        {
          "duration": 0.08120966666666618,
          "durationTicks": 116,
          "midi": 53,
          "name": "F3",
          "ticks": 78000,
          "time": 54.606500000000004,
          "velocity": 0.4330708661417323
        },
        {
          "duration": 0.08120966666666618,
          "durationTicks": 116,
          "midi": 53,
          "name": "F3",
          "ticks": 78240,
          "time": 54.77452,
          "velocity": 0.4330708661417323
        },
        {
          "duration": 0.08120966666666618,
          "durationTicks": 116,
          "midi": 53,
          "name": "F3",
          "ticks": 78480,
          "time": 54.94254,
          "velocity": 0.4330708661417323
        },
        {
          "duration": 0.08120966666667329,
          "durationTicks": 116,
          "midi": 53,
          "name": "F3",
          "ticks": 78720,
          "time": 55.11056,
          "velocity": 0.4330708661417323
        },
        {
          "duration": 0.08120966666667329,
          "durationTicks": 116,
          "midi": 53,
          "name": "F3",
          "ticks": 78960,
          "time": 55.27858,
          "velocity": 0.4330708661417323
        },
        {
          "duration": 0.08120966666666618,
          "durationTicks": 116,
          "midi": 58,
          "name": "A#3",
          "ticks": 79200,
          "time": 55.446600000000004,
          "velocity": 0.4330708661417323
        },
        {
          "duration": 0.08120966666666618,
          "durationTicks": 116,
          "midi": 57,
          "name": "A3",
          "ticks": 79440,
          "time": 55.61462,
          "velocity": 0.4330708661417323
        },
        {
          "duration": 0.08120966666666618,
          "durationTicks": 116,
          "midi": 55,
          "name": "G3",
          "ticks": 79680,
          "time": 55.78264,
          "velocity": 0.4330708661417323
        },
        {
          "duration": 0.08120966666667329,
          "durationTicks": 116,
          "midi": 54,
          "name": "F#3",
          "ticks": 79920,
          "time": 55.95066,
          "velocity": 0.4330708661417323
        },
        {
          "duration": 0.08120966666667329,
          "durationTicks": 116,
          "midi": 55,
          "name": "G3",
          "ticks": 80160,
          "time": 56.11868,
          "velocity": 0.4330708661417323
        },
        {
          "duration": 0.08120966666666618,
          "durationTicks": 116,
          "midi": 52,
          "name": "E3",
          "ticks": 80400,
          "time": 56.2867,
          "velocity": 0.4330708661417323
        },
        {
          "duration": 0.08120966666666618,
          "durationTicks": 116,
          "midi": 53,
          "name": "F3",
          "ticks": 80640,
          "time": 56.45472,
          "velocity": 0.4330708661417323
        },
        {
          "duration": 0.08120966666667329,
          "durationTicks": 116,
          "midi": 50,
          "name": "D3",
          "ticks": 80880,
          "time": 56.62274,
          "velocity": 0.4330708661417323
        },
        {
          "duration": 0.08120966666667329,
          "durationTicks": 116,
          "midi": 51,
          "name": "D#3",
          "ticks": 81120,
          "time": 56.79076,
          "velocity": 0.4330708661417323
        },
        {
          "duration": 0.08120966666666618,
          "durationTicks": 116,
          "midi": 49,
          "name": "C#3",
          "ticks": 81360,
          "time": 56.958780000000004,
          "velocity": 0.4330708661417323
        },
        {
          "duration": 0.08120966666666618,
          "durationTicks": 116,
          "midi": 50,
          "name": "D3",
          "ticks": 81600,
          "time": 57.1268,
          "velocity": 0.4330708661417323
        },
        {
          "duration": 0.08120966666666618,
          "durationTicks": 116,
          "midi": 46,
          "name": "A#2",
          "ticks": 81840,
          "time": 57.29482,
          "velocity": 0.4330708661417323
        },
        {
          "duration": 0.08120966666667329,
          "durationTicks": 116,
          "midi": 51,
          "name": "D#3",
          "ticks": 82080,
          "time": 57.46284,
          "velocity": 0.4330708661417323
        },
        {
          "duration": 0.08120966666667329,
          "durationTicks": 116,
          "midi": 51,
          "name": "D#3",
          "ticks": 82320,
          "time": 57.63086,
          "velocity": 0.4330708661417323
        },
        {
          "duration": 0.08120966666666618,
          "durationTicks": 116,
          "midi": 51,
          "name": "D#3",
          "ticks": 82560,
          "time": 57.798880000000004,
          "velocity": 0.4330708661417323
        },
        {
          "duration": 0.08120966666666618,
          "durationTicks": 116,
          "midi": 51,
          "name": "D#3",
          "ticks": 82800,
          "time": 57.9669,
          "velocity": 0.4330708661417323
        },
        {
          "duration": 0.08120966666666618,
          "durationTicks": 116,
          "midi": 50,
          "name": "D3",
          "ticks": 83040,
          "time": 58.13492,
          "velocity": 0.4330708661417323
        },
        {
          "duration": 0.08120966666667329,
          "durationTicks": 116,
          "midi": 48,
          "name": "C3",
          "ticks": 83280,
          "time": 58.30294,
          "velocity": 0.4330708661417323
        },
        {
          "duration": 0.08120966666667329,
          "durationTicks": 116,
          "midi": 53,
          "name": "F3",
          "ticks": 83520,
          "time": 58.47096,
          "velocity": 0.4330708661417323
        },
        {
          "duration": 0.08120966666666618,
          "durationTicks": 116,
          "midi": 53,
          "name": "F3",
          "ticks": 83760,
          "time": 58.638980000000004,
          "velocity": 0.4330708661417323
        },
        {
          "duration": 0.08120966666666618,
          "durationTicks": 116,
          "midi": 53,
          "name": "F3",
          "ticks": 84000,
          "time": 58.807,
          "velocity": 0.4330708661417323
        },
        {
          "duration": 0.08120966666666618,
          "durationTicks": 116,
          "midi": 41,
          "name": "F2",
          "ticks": 84240,
          "time": 58.97502,
          "velocity": 0.4330708661417323
        },
        {
          "duration": 0.08120966666667329,
          "durationTicks": 116,
          "midi": 41,
          "name": "F2",
          "ticks": 84480,
          "time": 59.14304,
          "velocity": 0.4330708661417323
        },
        {
          "duration": 0.08120966666667329,
          "durationTicks": 116,
          "midi": 41,
          "name": "F2",
          "ticks": 84720,
          "time": 59.31106,
          "velocity": 0.4330708661417323
        },
        {
          "duration": 0.16521966666666543,
          "durationTicks": 236,
          "midi": 46,
          "name": "A#2",
          "ticks": 84960,
          "time": 59.47908,
          "velocity": 0.4330708661417323
        },
        {
          "duration": 0.08120966666666618,
          "durationTicks": 116,
          "midi": 41,
          "name": "F2",
          "ticks": 86400,
          "time": 60.4872,
          "velocity": 0.2677165354330709
        },
        {
          "duration": 0.16521966666667254,
          "durationTicks": 236,
          "midi": 45,
          "name": "A2",
          "ticks": 86880,
          "time": 60.82324,
          "velocity": 0.29133858267716534
        },
        {
          "duration": 0.08120966666666618,
          "durationTicks": 116,
          "midi": 48,
          "name": "C3",
          "ticks": 87120,
          "time": 60.991260000000004,
          "velocity": 0.2992125984251969
        },
        {
          "duration": 0.16521966666667254,
          "durationTicks": 236,
          "midi": 53,
          "name": "F3",
          "ticks": 87600,
          "time": 61.3273,
          "velocity": 0.33070866141732286
        },
        {
          "duration": 0.33323966666667104,
          "durationTicks": 476,
          "midi": 46,
          "name": "A#2",
          "ticks": 87840,
          "time": 61.49532,
          "velocity": 0.2204724409448819
        },
        {
          "duration": 0.16521966666667254,
          "durationTicks": 236,
          "midi": 41,
          "name": "F2",
          "ticks": 89280,
          "time": 62.50344,
          "velocity": 0.2677165354330709
        },
        {
          "duration": 0.16521966666666543,
          "durationTicks": 236,
          "midi": 45,
          "name": "A2",
          "ticks": 89760,
          "time": 62.83948,
          "velocity": 0.29133858267716534
        },
        {
          "duration": 0.08120966666667329,
          "durationTicks": 116,
          "midi": 48,
          "name": "C3",
          "ticks": 90000,
          "time": 63.0075,
          "velocity": 0.2992125984251969
        },
        {
          "duration": 0.16521966666666543,
          "durationTicks": 236,
          "midi": 53,
          "name": "F3",
          "ticks": 90480,
          "time": 63.343540000000004,
          "velocity": 0.33070866141732286
        },
        {
          "duration": 0.16521966666666543,
          "durationTicks": 236,
          "midi": 46,
          "name": "A#2",
          "ticks": 90720,
          "time": 63.51156,
          "velocity": 0.2204724409448819
        },
        {
          "duration": 0.1092129999999969,
          "durationTicks": 156,
          "midi": 50,
          "name": "D3",
          "ticks": 91440,
          "time": 64.01562,
          "velocity": 0.18110236220472442
        },
        {
          "duration": 0.1092129999999969,
          "durationTicks": 156,
          "midi": 53,
          "name": "F3",
          "ticks": 91440,
          "time": 64.01562,
          "velocity": 0.18110236220472442
        },
        {
          "duration": 0.1092129999999969,
          "durationTicks": 156,
          "midi": 46,
          "name": "A#2",
          "ticks": 92160,
          "time": 64.51968,
          "velocity": 0.18110236220472442
        },
        {
          "duration": 0.1092129999999969,
          "durationTicks": 156,
          "midi": 50,
          "name": "D3",
          "ticks": 92160,
          "time": 64.51968,
          "velocity": 0.18110236220472442
        },
        {
          "duration": 0.08120966666666618,
          "durationTicks": 116,
          "midi": 53,
          "name": "F3",
          "ticks": 105840,
          "time": 74.09682000000001,
          "velocity": 0.2204724409448819
        },
        {
          "duration": 0.08120966666666618,
          "durationTicks": 116,
          "midi": 60,
          "name": "C4",
          "ticks": 105840,
          "time": 74.09682000000001,
          "velocity": 0.2204724409448819
        },
        {
          "duration": 0.08120966666666618,
          "durationTicks": 116,
          "midi": 53,
          "name": "F3",
          "ticks": 106080,
          "time": 74.26484,
          "velocity": 0.2204724409448819
        },
        {
          "duration": 0.08120966666666618,
          "durationTicks": 116,
          "midi": 60,
          "name": "C4",
          "ticks": 106080,
          "time": 74.26484,
          "velocity": 0.2204724409448819
        },
        {
          "duration": 0.08120966666666618,
          "durationTicks": 116,
          "midi": 53,
          "name": "F3",
          "ticks": 106320,
          "time": 74.43286,
          "velocity": 0.2204724409448819
        },
        {
          "duration": 0.08120966666666618,
          "durationTicks": 116,
          "midi": 60,
          "name": "C4",
          "ticks": 106320,
          "time": 74.43286,
          "velocity": 0.2204724409448819
        },
        {
          "duration": 0.16521966666667254,
          "durationTicks": 236,
          "midi": 58,
          "name": "A#3",
          "ticks": 106560,
          "time": 74.60088,
          "velocity": 0.2204724409448819
        },
        {
          "duration": 0.16521966666667254,
          "durationTicks": 236,
          "midi": 62,
          "name": "D4",
          "ticks": 106560,
          "time": 74.60088,
          "velocity": 0.2204724409448819
        },
        {
          "duration": 0.08120966666666618,
          "durationTicks": 116,
          "midi": 65,
          "name": "F4",
          "ticks": 107280,
          "time": 75.10494,
          "velocity": 0.3464566929133858
        },
        {
          "duration": 0.08120966666666618,
          "durationTicks": 116,
          "midi": 65,
          "name": "F4",
          "ticks": 107520,
          "time": 75.27296,
          "velocity": 0.3464566929133858
        },
        {
          "duration": 0.08120966666668039,
          "durationTicks": 116,
          "midi": 65,
          "name": "F4",
          "ticks": 107760,
          "time": 75.44098,
          "velocity": 0.3464566929133858
        },
        {
          "duration": 0.33323966666667104,
          "durationTicks": 476,
          "midi": 46,
          "name": "A#2",
          "ticks": 108000,
          "time": 75.609,
          "velocity": 0.2125984251968504
        },
        {
          "duration": 0.33323966666667104,
          "durationTicks": 476,
          "midi": 58,
          "name": "A#3",
          "ticks": 108000,
          "time": 75.609,
          "velocity": 0.2755905511811024
        },
        {
          "duration": 0.16521966666665833,
          "durationTicks": 236,
          "midi": 48,
          "name": "C3",
          "ticks": 108480,
          "time": 75.94504,
          "velocity": 0.2204724409448819
        },
        {
          "duration": 0.16521966666665833,
          "durationTicks": 236,
          "midi": 60,
          "name": "C4",
          "ticks": 108480,
          "time": 75.94504,
          "velocity": 0.29133858267716534
        },
        {
          "duration": 0.33323966666667104,
          "durationTicks": 476,
          "midi": 50,
          "name": "D3",
          "ticks": 108720,
          "time": 76.11306,
          "velocity": 0.2283464566929134
        },
        {
          "duration": 0.33323966666667104,
          "durationTicks": 476,
          "midi": 62,
          "name": "D4",
          "ticks": 108720,
          "time": 76.11306,
          "velocity": 0.2992125984251969
        },
        {
          "duration": 0.16521966666667254,
          "durationTicks": 236,
          "midi": 52,
          "name": "E3",
          "ticks": 109200,
          "time": 76.4491,
          "velocity": 0.2440944881889764
        },
        {
          "duration": 0.16521966666667254,
          "durationTicks": 236,
          "midi": 64,
          "name": "E4",
          "ticks": 109200,
          "time": 76.4491,
          "velocity": 0.3228346456692913
        },
        {
          "duration": 0.24922966666666468,
          "durationTicks": 356,
          "midi": 53,
          "name": "F3",
          "ticks": 109440,
          "time": 76.61712,
          "velocity": 0.25196850393700787
        },
        {
          "duration": 0.24922966666666468,
          "durationTicks": 356,
          "midi": 65,
          "name": "F4",
          "ticks": 109440,
          "time": 76.61712,
          "velocity": 0.33070866141732286
        },
        {
          "duration": 0.03920466666667721,
          "durationTicks": 56,
          "midi": 65,
          "name": "F4",
          "ticks": 112560,
          "time": 78.80138,
          "velocity": 0.25196850393700787
        },
        {
          "duration": 0.039204666666663,
          "durationTicks": 56,
          "midi": 65,
          "name": "F4",
          "ticks": 112800,
          "time": 78.96940000000001,
          "velocity": 0.25196850393700787
        },
        {
          "duration": 0.16521966666665833,
          "durationTicks": 236,
          "midi": 65,
          "name": "F4",
          "ticks": 113040,
          "time": 79.13742,
          "velocity": 0.1732283464566929
        },
        {
          "duration": 0.039204666666663,
          "durationTicks": 56,
          "midi": 55,
          "name": "G3",
          "ticks": 116160,
          "time": 81.32168,
          "velocity": 0.25196850393700787
        },
        {
          "duration": 0.03920466666667721,
          "durationTicks": 56,
          "midi": 55,
          "name": "G3",
          "ticks": 116400,
          "time": 81.4897,
          "velocity": 0.25196850393700787
        },
        {
          "duration": 0.16521966666667254,
          "durationTicks": 236,
          "midi": 55,
          "name": "G3",
          "ticks": 116640,
          "time": 81.65772,
          "velocity": 0.1732283464566929
        },
        {
          "duration": 0.03920466666667721,
          "durationTicks": 56,
          "midi": 57,
          "name": "A3",
          "ticks": 119040,
          "time": 83.33792,
          "velocity": 0.25196850393700787
        },
        {
          "duration": 0.03920466666667721,
          "durationTicks": 56,
          "midi": 57,
          "name": "A3",
          "ticks": 119280,
          "time": 83.50594,
          "velocity": 0.25196850393700787
        },
        {
          "duration": 0.16521966666665833,
          "durationTicks": 236,
          "midi": 57,
          "name": "A3",
          "ticks": 119520,
          "time": 83.67396000000001,
          "velocity": 0.1732283464566929
        },
        {
          "duration": 0.053206333333335465,
          "durationTicks": 76,
          "midi": 57,
          "name": "A3",
          "ticks": 122640,
          "time": 85.85822,
          "velocity": 0.1968503937007874
        },
        {
          "duration": 0.053206333333335465,
          "durationTicks": 76,
          "midi": 57,
          "name": "A3",
          "ticks": 122880,
          "time": 86.02624,
          "velocity": 0.2047244094488189
        },
        {
          "duration": 0.053206333333349676,
          "durationTicks": 76,
          "midi": 57,
          "name": "A3",
          "ticks": 123120,
          "time": 86.19426,
          "velocity": 0.2204724409448819
        },
        {
          "duration": 0.053206333333349676,
          "durationTicks": 76,
          "midi": 57,
          "name": "A3",
          "ticks": 123360,
          "time": 86.36228,
          "velocity": 0.2283464566929134
        },
        {
          "duration": 0.053206333333349676,
          "durationTicks": 76,
          "midi": 57,
          "name": "A3",
          "ticks": 123600,
          "time": 86.5303,
          "velocity": 0.2440944881889764
        },
        {
          "duration": 0.22122633333334818,
          "durationTicks": 316,
          "midi": 58,
          "name": "A#3",
          "ticks": 123840,
          "time": 86.69832,
          "velocity": 0.25984251968503935
        },
        {
          "duration": 0.053206333333349676,
          "durationTicks": 76,
          "midi": 57,
          "name": "A3",
          "ticks": 125520,
          "time": 87.87446,
          "velocity": 0.2125984251968504
        },
        {
          "duration": 0.053206333333349676,
          "durationTicks": 76,
          "midi": 57,
          "name": "A3",
          "ticks": 125760,
          "time": 88.04248,
          "velocity": 0.2204724409448819
        },
        {
          "duration": 0.053206333333349676,
          "durationTicks": 76,
          "midi": 57,
          "name": "A3",
          "ticks": 126000,
          "time": 88.2105,
          "velocity": 0.2283464566929134
        },
        {
          "duration": 0.053206333333349676,
          "durationTicks": 76,
          "midi": 57,
          "name": "A3",
          "ticks": 126240,
          "time": 88.37852,
          "velocity": 0.23622047244094488
        },
        {
          "duration": 0.053206333333335465,
          "durationTicks": 76,
          "midi": 57,
          "name": "A3",
          "ticks": 126480,
          "time": 88.54654000000001,
          "velocity": 0.25984251968503935
        },
        {
          "duration": 0.22122633333333397,
          "durationTicks": 316,
          "midi": 58,
          "name": "A#3",
          "ticks": 126720,
          "time": 88.71456,
          "velocity": 0.1889763779527559
        },
        {
          "duration": 0.053206333333349676,
          "durationTicks": 76,
          "midi": 55,
          "name": "G3",
          "ticks": 128400,
          "time": 89.8907,
          "velocity": 0.2125984251968504
        },
        {
          "duration": 0.053206333333335465,
          "durationTicks": 76,
          "midi": 55,
          "name": "G3",
          "ticks": 128640,
          "time": 90.05872000000001,
          "velocity": 0.2283464566929134
        },
        {
          "duration": 0.053206333333335465,
          "durationTicks": 76,
          "midi": 55,
          "name": "G3",
          "ticks": 128880,
          "time": 90.22674,
          "velocity": 0.2440944881889764
        },
        {
          "duration": 0.053206333333335465,
          "durationTicks": 76,
          "midi": 55,
          "name": "G3",
          "ticks": 129120,
          "time": 90.39476,
          "velocity": 0.2677165354330709
        },
        {
          "duration": 0.053206333333335465,
          "durationTicks": 76,
          "midi": 55,
          "name": "G3",
          "ticks": 129360,
          "time": 90.56278,
          "velocity": 0.28346456692913385
        },
        {
          "duration": 0.22122633333334818,
          "durationTicks": 316,
          "midi": 56,
          "name": "G#3",
          "ticks": 129600,
          "time": 90.7308,
          "velocity": 0.1968503937007874
        },
        {
          "duration": 1.929429666666664,
          "durationTicks": 2756,
          "midi": 60,
          "name": "C4",
          "ticks": 138240,
          "time": 96.77952,
          "velocity": 0.1889763779527559
        },
        {
          "duration": 0.13721633333334182,
          "durationTicks": 196,
          "midi": 48,
          "name": "C3",
          "ticks": 141120,
          "time": 98.79576,
          "velocity": 0.3464566929133858
        },
        {
          "duration": 0.16521966666667254,
          "durationTicks": 236,
          "midi": 52,
          "name": "E3",
          "ticks": 141600,
          "time": 99.1318,
          "velocity": 0.3700787401574803
        },
        {
          "duration": 0.1092129999999969,
          "durationTicks": 156,
          "midi": 55,
          "name": "G3",
          "ticks": 141840,
          "time": 99.29982,
          "velocity": 0.3858267716535433
        },
        {
          "duration": 0.16521966666665833,
          "durationTicks": 236,
          "midi": 59,
          "name": "B3",
          "ticks": 142320,
          "time": 99.63586000000001,
          "velocity": 0.41732283464566927
        },
        {
          "duration": 0.1092129999999969,
          "durationTicks": 156,
          "midi": 60,
          "name": "C4",
          "ticks": 142560,
          "time": 99.80388,
          "velocity": 0.4330708661417323
        },
        {
          "duration": 0.16521966666667254,
          "durationTicks": 236,
          "midi": 53,
          "name": "F3",
          "ticks": 145200,
          "time": 101.6521,
          "velocity": 0.23622047244094488
        },
        {
          "duration": 0.16521966666667254,
          "durationTicks": 236,
          "midi": 65,
          "name": "F4",
          "ticks": 145200,
          "time": 101.6521,
          "velocity": 0.23622047244094488
        },
        {
          "duration": 0.08120966666666618,
          "durationTicks": 116,
          "midi": 52,
          "name": "E3",
          "ticks": 145440,
          "time": 101.82012,
          "velocity": 0.2283464566929134
        },
        {
          "duration": 0.08120966666666618,
          "durationTicks": 116,
          "midi": 64,
          "name": "E4",
          "ticks": 145440,
          "time": 101.82012,
          "velocity": 0.2283464566929134
        },
        {
          "duration": 0.16521966666667254,
          "durationTicks": 236,
          "midi": 51,
          "name": "D#3",
          "ticks": 145920,
          "time": 102.15616,
          "velocity": 0.2204724409448819
        },
        {
          "duration": 0.16521966666667254,
          "durationTicks": 236,
          "midi": 63,
          "name": "D#4",
          "ticks": 145920,
          "time": 102.15616,
          "velocity": 0.2204724409448819
        },
        {
          "duration": 0.08120966666666618,
          "durationTicks": 116,
          "midi": 50,
          "name": "D3",
          "ticks": 146160,
          "time": 102.32418,
          "velocity": 0.2125984251968504
        },
        {
          "duration": 0.08120966666666618,
          "durationTicks": 116,
          "midi": 62,
          "name": "D4",
          "ticks": 146160,
          "time": 102.32418,
          "velocity": 0.2125984251968504
        },
        {
          "duration": 0.16521966666667254,
          "durationTicks": 236,
          "midi": 49,
          "name": "C#3",
          "ticks": 146640,
          "time": 102.66022,
          "velocity": 0.1968503937007874
        },
        {
          "duration": 0.16521966666667254,
          "durationTicks": 236,
          "midi": 61,
          "name": "C#4",
          "ticks": 146640,
          "time": 102.66022,
          "velocity": 0.1968503937007874
        },
        {
          "duration": 0.24922966666666468,
          "durationTicks": 356,
          "midi": 48,
          "name": "C3",
          "ticks": 146880,
          "time": 102.82824000000001,
          "velocity": 0.1889763779527559
        },
        {
          "duration": 0.24922966666666468,
          "durationTicks": 356,
          "midi": 60,
          "name": "C4",
          "ticks": 146880,
          "time": 102.82824000000001,
          "velocity": 0.1889763779527559
        },
        {
          "duration": 0.08120966666668039,
          "durationTicks": 116,
          "midi": 65,
          "name": "F4",
          "ticks": 149040,
          "time": 104.34042,
          "velocity": 0.18110236220472442
        },
        {
          "duration": 0.08120966666666618,
          "durationTicks": 116,
          "midi": 65,
          "name": "F4",
          "ticks": 149280,
          "time": 104.50844000000001,
          "velocity": 0.18110236220472442
        },
        {
          "duration": 0.08120966666666618,
          "durationTicks": 116,
          "midi": 65,
          "name": "F4",
          "ticks": 149520,
          "time": 104.67646,
          "velocity": 0.18110236220472442
        },
        {
          "duration": 0.24922966666666468,
          "durationTicks": 356,
          "midi": 64,
          "name": "E4",
          "ticks": 149760,
          "time": 104.84448,
          "velocity": 0.18110236220472442
        },
        {
          "duration": 0.08120966666666618,
          "durationTicks": 116,
          "midi": 65,
          "name": "F4",
          "ticks": 151920,
          "time": 106.35666,
          "velocity": 0.18110236220472442
        },
        {
          "duration": 0.08120966666666618,
          "durationTicks": 116,
          "midi": 65,
          "name": "F4",
          "ticks": 152160,
          "time": 106.52468,
          "velocity": 0.18110236220472442
        },
        {
          "duration": 0.08120966666666618,
          "durationTicks": 116,
          "midi": 65,
          "name": "F4",
          "ticks": 152400,
          "time": 106.6927,
          "velocity": 0.18110236220472442
        },
        {
          "duration": 0.24922966666666468,
          "durationTicks": 356,
          "midi": 64,
          "name": "E4",
          "ticks": 152640,
          "time": 106.86072,
          "velocity": 0.18110236220472442
        },
        {
          "duration": 2.0134396666666703,
          "durationTicks": 2876,
          "midi": 60,
          "name": "C4",
          "ticks": 154080,
          "time": 107.86884,
          "velocity": 0.15748031496062992
        },
        {
          "duration": 2.0134396666666703,
          "durationTicks": 2876,
          "midi": 60,
          "name": "C4",
          "ticks": 159840,
          "time": 111.90132,
          "velocity": 0.15748031496062992
        },
        {
          "duration": 0.16521966666667254,
          "durationTicks": 236,
          "midi": 57,
          "name": "A3",
          "ticks": 166800,
          "time": 116.7739,
          "velocity": 0.30708661417322836
        },
        {
          "duration": 0.2772329999999954,
          "durationTicks": 396,
          "midi": 60,
          "name": "C4",
          "ticks": 166800,
          "time": 116.7739,
          "velocity": 0.30708661417322836
        },
        {
          "duration": 0.1092129999999969,
          "durationTicks": 156,
          "midi": 58,
          "name": "A#3",
          "ticks": 167040,
          "time": 116.94192,
          "velocity": 0.30708661417322836
        },
        {
          "duration": 0.16521966666665833,
          "durationTicks": 236,
          "midi": 57,
          "name": "A3",
          "ticks": 167520,
          "time": 117.27796000000001,
          "velocity": 0.30708661417322836
        },
        {
          "duration": 0.2772329999999954,
          "durationTicks": 396,
          "midi": 60,
          "name": "C4",
          "ticks": 167520,
          "time": 117.27796000000001,
          "velocity": 0.30708661417322836
        },
        {
          "duration": 0.1092129999999969,
          "durationTicks": 156,
          "midi": 58,
          "name": "A#3",
          "ticks": 167760,
          "time": 117.44598,
          "velocity": 0.30708661417322836
        },
        {
          "duration": 0.24922966666666468,
          "durationTicks": 356,
          "midi": 57,
          "name": "A3",
          "ticks": 168240,
          "time": 117.78202,
          "velocity": 0.30708661417322836
        },
        {
          "duration": 0.16521966666667254,
          "durationTicks": 236,
          "midi": 60,
          "name": "C4",
          "ticks": 168240,
          "time": 117.78202,
          "velocity": 0.30708661417322836
        },
        {
          "duration": 0.8372996666666666,
          "durationTicks": 1196,
          "midi": 52,
          "name": "E3",
          "ticks": 168480,
          "time": 117.95004,
          "velocity": 0.30708661417322836
        },
        {
          "duration": 0.669279666666668,
          "durationTicks": 956,
          "midi": 60,
          "name": "C4",
          "ticks": 168480,
          "time": 117.95004,
          "velocity": 0.30708661417322836
        },
        {
          "duration": 0.16521966666667254,
          "durationTicks": 236,
          "midi": 64,
          "name": "E4",
          "ticks": 169440,
          "time": 118.62212,
          "velocity": 0.30708661417322836
        },
        {
          "duration": 0.1092129999999969,
          "durationTicks": 156,
          "midi": 53,
          "name": "F3",
          "ticks": 169680,
          "time": 118.79014000000001,
          "velocity": 0.30708661417322836
        },
        {
          "duration": 0.1092129999999969,
          "durationTicks": 156,
          "midi": 65,
          "name": "F4",
          "ticks": 169680,
          "time": 118.79014000000001,
          "velocity": 0.30708661417322836
        },
        {
          "duration": 0.16521966666665833,
          "durationTicks": 236,
          "midi": 46,
          "name": "A#2",
          "ticks": 169920,
          "time": 118.95816,
          "velocity": 0.1889763779527559
        },
        {
          "duration": 0.16521966666665833,
          "durationTicks": 236,
          "midi": 58,
          "name": "A#3",
          "ticks": 169920,
          "time": 118.95816,
          "velocity": 0.1889763779527559
        },
        {
          "duration": 0.16521966666667254,
          "durationTicks": 236,
          "midi": 47,
          "name": "B2",
          "ticks": 170640,
          "time": 119.46222,
          "velocity": 0.23622047244094488
        },
        {
          "duration": 0.16521966666667254,
          "durationTicks": 236,
          "midi": 59,
          "name": "B3",
          "ticks": 170640,
          "time": 119.46222,
          "velocity": 0.23622047244094488
        },
        {
          "duration": 0.5852696666666759,
          "durationTicks": 836,
          "midi": 48,
          "name": "C3",
          "ticks": 171360,
          "time": 119.96628,
          "velocity": 0.29133858267716534
        },
        {
          "duration": 0.5852696666666759,
          "durationTicks": 836,
          "midi": 60,
          "name": "C4",
          "ticks": 171360,
          "time": 119.96628,
          "velocity": 0.29133858267716534
        },
        {
          "duration": 0.16521966666667254,
          "durationTicks": 236,
          "midi": 57,
          "name": "A3",
          "ticks": 172560,
          "time": 120.80638,
          "velocity": 0.30708661417322836
        },
        {
          "duration": 0.2772329999999954,
          "durationTicks": 396,
          "midi": 60,
          "name": "C4",
          "ticks": 172560,
          "time": 120.80638,
          "velocity": 0.30708661417322836
        },
        {
          "duration": 0.1092129999999969,
          "durationTicks": 156,
          "midi": 58,
          "name": "A#3",
          "ticks": 172800,
          "time": 120.9744,
          "velocity": 0.30708661417322836
        },
        {
          "duration": 0.16521966666667254,
          "durationTicks": 236,
          "midi": 57,
          "name": "A3",
          "ticks": 173280,
          "time": 121.31044,
          "velocity": 0.30708661417322836
        },
        {
          "duration": 0.2772329999999954,
          "durationTicks": 396,
          "midi": 60,
          "name": "C4",
          "ticks": 173280,
          "time": 121.31044,
          "velocity": 0.30708661417322836
        },
        {
          "duration": 0.1092129999999969,
          "durationTicks": 156,
          "midi": 58,
          "name": "A#3",
          "ticks": 173520,
          "time": 121.47846,
          "velocity": 0.30708661417322836
        },
        {
          "duration": 0.16521966666667254,
          "durationTicks": 236,
          "midi": 57,
          "name": "A3",
          "ticks": 174000,
          "time": 121.8145,
          "velocity": 0.30708661417322836
        },
        {
          "duration": 0.8372996666666808,
          "durationTicks": 1196,
          "midi": 60,
          "name": "C4",
          "ticks": 174000,
          "time": 121.8145,
          "velocity": 0.30708661417322836
        },
        {
          "duration": 0.7532896666666602,
          "durationTicks": 1076,
          "midi": 52,
          "name": "E3",
          "ticks": 174240,
          "time": 121.98252000000001,
          "velocity": 0.30708661417322836
        },
        {
          "duration": 0.16521966666667254,
          "durationTicks": 236,
          "midi": 64,
          "name": "E4",
          "ticks": 175200,
          "time": 122.6546,
          "velocity": 0.30708661417322836
        },
        {
          "duration": 0.1092129999999969,
          "durationTicks": 156,
          "midi": 53,
          "name": "F3",
          "ticks": 175440,
          "time": 122.82262,
          "velocity": 0.30708661417322836
        },
        {
          "duration": 0.1092129999999969,
          "durationTicks": 156,
          "midi": 65,
          "name": "F4",
          "ticks": 175440,
          "time": 122.82262,
          "velocity": 0.30708661417322836
        },
        {
          "duration": 0.16521966666667254,
          "durationTicks": 236,
          "midi": 46,
          "name": "A#2",
          "ticks": 175680,
          "time": 122.99064,
          "velocity": 0.2283464566929134
        },
        {
          "duration": 0.16521966666667254,
          "durationTicks": 236,
          "midi": 58,
          "name": "A#3",
          "ticks": 175680,
          "time": 122.99064,
          "velocity": 0.2283464566929134
        },
        {
          "duration": 0.16521966666665833,
          "durationTicks": 236,
          "midi": 48,
          "name": "C3",
          "ticks": 176400,
          "time": 123.49470000000001,
          "velocity": 0.2283464566929134
        },
        {
          "duration": 0.16521966666665833,
          "durationTicks": 236,
          "midi": 60,
          "name": "C4",
          "ticks": 176400,
          "time": 123.49470000000001,
          "velocity": 0.2283464566929134
        },
        {
          "duration": 0.22122633333333397,
          "durationTicks": 316,
          "midi": 53,
          "name": "F3",
          "ticks": 177120,
          "time": 123.99876,
          "velocity": 0.23622047244094488
        },
        {
          "duration": 0.22122633333333397,
          "durationTicks": 316,
          "midi": 60,
          "name": "C4",
          "ticks": 177120,
          "time": 123.99876,
          "velocity": 0.23622047244094488
        },
        {
          "duration": 0.08120966666666618,
          "durationTicks": 116,
          "midi": 57,
          "name": "A3",
          "ticks": 184560,
          "time": 129.20738,
          "velocity": 0.29133858267716534
        },
        {
          "duration": 0.08120966666666618,
          "durationTicks": 116,
          "midi": 60,
          "name": "C4",
          "ticks": 184560,
          "time": 129.20738,
          "velocity": 0.29133858267716534
        },
        {
          "duration": 0.08120966666666618,
          "durationTicks": 116,
          "midi": 57,
          "name": "A3",
          "ticks": 184800,
          "time": 129.3754,
          "velocity": 0.2992125984251969
        },
        {
          "duration": 0.08120966666666618,
          "durationTicks": 116,
          "midi": 60,
          "name": "C4",
          "ticks": 184800,
          "time": 129.3754,
          "velocity": 0.2992125984251969
        },
        {
          "duration": 0.08120966666666618,
          "durationTicks": 116,
          "midi": 57,
          "name": "A3",
          "ticks": 185040,
          "time": 129.54342,
          "velocity": 0.30708661417322836
        },
        {
          "duration": 0.08120966666666618,
          "durationTicks": 116,
          "midi": 60,
          "name": "C4",
          "ticks": 185040,
          "time": 129.54342,
          "velocity": 0.30708661417322836
        },
        {
          "duration": 0.08120966666666618,
          "durationTicks": 116,
          "midi": 57,
          "name": "A3",
          "ticks": 185280,
          "time": 129.71144,
          "velocity": 0.31496062992125984
        },
        {
          "duration": 0.08120966666666618,
          "durationTicks": 116,
          "midi": 60,
          "name": "C4",
          "ticks": 185280,
          "time": 129.71144,
          "velocity": 0.31496062992125984
        },
        {
          "duration": 0.08120966666666618,
          "durationTicks": 116,
          "midi": 57,
          "name": "A3",
          "ticks": 185520,
          "time": 129.87946,
          "velocity": 0.3228346456692913
        },
        {
          "duration": 0.08120966666666618,
          "durationTicks": 116,
          "midi": 60,
          "name": "C4",
          "ticks": 185520,
          "time": 129.87946,
          "velocity": 0.3228346456692913
        },
        {
          "duration": 0.09055153333332555,
          "durationTicks": 116,
          "midi": 57,
          "name": "A3",
          "ticks": 185760,
          "time": 130.04748,
          "velocity": 0.33070866141732286
        },
        {
          "duration": 0.09055153333332555,
          "durationTicks": 116,
          "midi": 60,
          "name": "C4",
          "ticks": 185760,
          "time": 130.04748,
          "velocity": 0.33070866141732286
        },
        {
          "duration": 0.09055153333335397,
          "durationTicks": 116,
          "midi": 57,
          "name": "A3",
          "ticks": 186000,
          "time": 130.234828,
          "velocity": 0.33858267716535434
        },
        {
          "duration": 0.09055153333335397,
          "durationTicks": 116,
          "midi": 60,
          "name": "C4",
          "ticks": 186000,
          "time": 130.234828,
          "velocity": 0.33858267716535434
        },
        {
          "duration": 0.09055153333332555,
          "durationTicks": 116,
          "midi": 57,
          "name": "A3",
          "ticks": 186240,
          "time": 130.422176,
          "velocity": 0.3464566929133858
        },
        {
          "duration": 0.09055153333332555,
          "durationTicks": 116,
          "midi": 60,
          "name": "C4",
          "ticks": 186240,
          "time": 130.422176,
          "velocity": 0.3464566929133858
        },
        {
          "duration": 0.10262592500001233,
          "durationTicks": 116,
          "midi": 57,
          "name": "A3",
          "ticks": 186480,
          "time": 130.609524,
          "velocity": 0.3543307086614173
        },
        {
          "duration": 0.10262592500001233,
          "durationTicks": 116,
          "midi": 60,
          "name": "C4",
          "ticks": 186480,
          "time": 130.609524,
          "velocity": 0.3543307086614173
        },
        {
          "duration": 0.10262592499998391,
          "durationTicks": 116,
          "midi": 57,
          "name": "A3",
          "ticks": 186720,
          "time": 130.8218535,
          "velocity": 0.36220472440944884
        },
        {
          "duration": 0.10262592499998391,
          "durationTicks": 116,
          "midi": 60,
          "name": "C4",
          "ticks": 186720,
          "time": 130.8218535,
          "velocity": 0.36220472440944884
        },
        {
          "duration": 0.10262592500001233,
          "durationTicks": 116,
          "midi": 57,
          "name": "A3",
          "ticks": 186960,
          "time": 131.03418299999998,
          "velocity": 0.3700787401574803
        },
        {
          "duration": 0.10262592500001233,
          "durationTicks": 116,
          "midi": 60,
          "name": "C4",
          "ticks": 186960,
          "time": 131.03418299999998,
          "velocity": 0.3700787401574803
        },
        {
          "duration": 0.680717808333327,
          "durationTicks": 956,
          "midi": 57,
          "name": "A3",
          "ticks": 187200,
          "time": 131.2465125,
          "velocity": 0.3779527559055118
        },
        {
          "duration": 0.680717808333327,
          "durationTicks": 956,
          "midi": 60,
          "name": "C4",
          "ticks": 187200,
          "time": 131.2465125,
          "velocity": 0.3779527559055118
        },
        {
          "duration": 0.08120966666666618,
          "durationTicks": 116,
          "midi": 62,
          "name": "D4",
          "ticks": 226080,
          "time": 167.13212012500003,
          "velocity": 0.2755905511811024
        },
        {
          "duration": 0.08120966666666618,
          "durationTicks": 116,
          "midi": 65,
          "name": "F4",
          "ticks": 226080,
          "time": 167.13212012500003,
          "velocity": 0.2755905511811024
        },
        {
          "duration": 0.08120966666666618,
          "durationTicks": 116,
          "midi": 62,
          "name": "D4",
          "ticks": 226320,
          "time": 167.300140125,
          "velocity": 0.2755905511811024
        },
        {
          "duration": 0.08120966666666618,
          "durationTicks": 116,
          "midi": 65,
          "name": "F4",
          "ticks": 226320,
          "time": 167.300140125,
          "velocity": 0.2755905511811024
        },
        {
          "duration": 0.08120966666666618,
          "durationTicks": 116,
          "midi": 62,
          "name": "D4",
          "ticks": 226560,
          "time": 167.46816012500003,
          "velocity": 0.2755905511811024
        },
        {
          "duration": 0.08120966666666618,
          "durationTicks": 116,
          "midi": 65,
          "name": "F4",
          "ticks": 226560,
          "time": 167.46816012500003,
          "velocity": 0.2755905511811024
        },
        {
          "duration": 0.08120966666666618,
          "durationTicks": 116,
          "midi": 62,
          "name": "D4",
          "ticks": 226800,
          "time": 167.636180125,
          "velocity": 0.2755905511811024
        },
        {
          "duration": 0.08120966666666618,
          "durationTicks": 116,
          "midi": 65,
          "name": "F4",
          "ticks": 226800,
          "time": 167.636180125,
          "velocity": 0.2755905511811024
        },
        {
          "duration": 0.08120966666666618,
          "durationTicks": 116,
          "midi": 62,
          "name": "D4",
          "ticks": 227040,
          "time": 167.80420012500002,
          "velocity": 0.2755905511811024
        },
        {
          "duration": 0.08120966666666618,
          "durationTicks": 116,
          "midi": 65,
          "name": "F4",
          "ticks": 227040,
          "time": 167.80420012500002,
          "velocity": 0.2755905511811024
        },
        {
          "duration": 0.08120966666666618,
          "durationTicks": 116,
          "midi": 62,
          "name": "D4",
          "ticks": 227280,
          "time": 167.972220125,
          "velocity": 0.2755905511811024
        },
        {
          "duration": 0.08120966666666618,
          "durationTicks": 116,
          "midi": 65,
          "name": "F4",
          "ticks": 227280,
          "time": 167.972220125,
          "velocity": 0.2755905511811024
        },
        {
          "duration": 0.08120966666666618,
          "durationTicks": 116,
          "midi": 62,
          "name": "D4",
          "ticks": 227520,
          "time": 168.14024012500002,
          "velocity": 0.2755905511811024
        },
        {
          "duration": 0.08120966666666618,
          "durationTicks": 116,
          "midi": 65,
          "name": "F4",
          "ticks": 227520,
          "time": 168.14024012500002,
          "velocity": 0.2755905511811024
        },
        {
          "duration": 0.08120966666666618,
          "durationTicks": 116,
          "midi": 62,
          "name": "D4",
          "ticks": 227760,
          "time": 168.308260125,
          "velocity": 0.2755905511811024
        },
        {
          "duration": 0.08120966666666618,
          "durationTicks": 116,
          "midi": 65,
          "name": "F4",
          "ticks": 227760,
          "time": 168.308260125,
          "velocity": 0.2755905511811024
        },
        {
          "duration": 0.08120966666666618,
          "durationTicks": 116,
          "midi": 62,
          "name": "D4",
          "ticks": 228000,
          "time": 168.47628012500002,
          "velocity": 0.2755905511811024
        },
        {
          "duration": 0.08120966666666618,
          "durationTicks": 116,
          "midi": 65,
          "name": "F4",
          "ticks": 228000,
          "time": 168.47628012500002,
          "velocity": 0.2755905511811024
        },
        {
          "duration": 0.08120966666666618,
          "durationTicks": 116,
          "midi": 62,
          "name": "D4",
          "ticks": 228240,
          "time": 168.64430012500003,
          "velocity": 0.2755905511811024
        },
        {
          "duration": 0.08120966666666618,
          "durationTicks": 116,
          "midi": 65,
          "name": "F4",
          "ticks": 228240,
          "time": 168.64430012500003,
          "velocity": 0.2755905511811024
        },
        {
          "duration": 0.08120966666666618,
          "durationTicks": 116,
          "midi": 62,
          "name": "D4",
          "ticks": 228480,
          "time": 168.812320125,
          "velocity": 0.2755905511811024
        },
        {
          "duration": 0.08120966666666618,
          "durationTicks": 116,
          "midi": 65,
          "name": "F4",
          "ticks": 228480,
          "time": 168.812320125,
          "velocity": 0.2755905511811024
        },
        {
          "duration": 0.08120966666666618,
          "durationTicks": 116,
          "midi": 62,
          "name": "D4",
          "ticks": 228720,
          "time": 168.98034012500003,
          "velocity": 0.2755905511811024
        },
        {
          "duration": 0.08120966666666618,
          "durationTicks": 116,
          "midi": 65,
          "name": "F4",
          "ticks": 228720,
          "time": 168.98034012500003,
          "velocity": 0.2755905511811024
        },
        {
          "duration": 0.08120966666666618,
          "durationTicks": 116,
          "midi": 60,
          "name": "C4",
          "ticks": 228960,
          "time": 169.148360125,
          "velocity": 0.2755905511811024
        },
        {
          "duration": 0.08120966666666618,
          "durationTicks": 116,
          "midi": 63,
          "name": "D#4",
          "ticks": 228960,
          "time": 169.148360125,
          "velocity": 0.2755905511811024
        },
        {
          "duration": 0.08120966666666618,
          "durationTicks": 116,
          "midi": 60,
          "name": "C4",
          "ticks": 229200,
          "time": 169.31638012500002,
          "velocity": 0.2755905511811024
        },
        {
          "duration": 0.08120966666666618,
          "durationTicks": 116,
          "midi": 63,
          "name": "D#4",
          "ticks": 229200,
          "time": 169.31638012500002,
          "velocity": 0.2755905511811024
        },
        {
          "duration": 0.08120966666666618,
          "durationTicks": 116,
          "midi": 60,
          "name": "C4",
          "ticks": 229440,
          "time": 169.484400125,
          "velocity": 0.2755905511811024
        },
        {
          "duration": 0.08120966666666618,
          "durationTicks": 116,
          "midi": 63,
          "name": "D#4",
          "ticks": 229440,
          "time": 169.484400125,
          "velocity": 0.2755905511811024
        },
        {
          "duration": 0.08120966666666618,
          "durationTicks": 116,
          "midi": 58,
          "name": "A#3",
          "ticks": 229680,
          "time": 169.65242012500002,
          "velocity": 0.2755905511811024
        },
        {
          "duration": 0.08120966666666618,
          "durationTicks": 116,
          "midi": 62,
          "name": "D4",
          "ticks": 229680,
          "time": 169.65242012500002,
          "velocity": 0.2755905511811024
        },
        {
          "duration": 0.08120966666666618,
          "durationTicks": 116,
          "midi": 58,
          "name": "A#3",
          "ticks": 229920,
          "time": 169.820440125,
          "velocity": 0.2755905511811024
        },
        {
          "duration": 0.08120966666666618,
          "durationTicks": 116,
          "midi": 62,
          "name": "D4",
          "ticks": 229920,
          "time": 169.820440125,
          "velocity": 0.2755905511811024
        },
        {
          "duration": 0.08120966666666618,
          "durationTicks": 116,
          "midi": 58,
          "name": "A#3",
          "ticks": 230160,
          "time": 169.98846012500002,
          "velocity": 0.2755905511811024
        },
        {
          "duration": 0.08120966666666618,
          "durationTicks": 116,
          "midi": 62,
          "name": "D4",
          "ticks": 230160,
          "time": 169.98846012500002,
          "velocity": 0.2755905511811024
        },
        {
          "duration": 0.08120966666666618,
          "durationTicks": 116,
          "midi": 58,
          "name": "A#3",
          "ticks": 230400,
          "time": 170.15648012500003,
          "velocity": 0.2755905511811024
        },
        {
          "duration": 0.08120966666666618,
          "durationTicks": 116,
          "midi": 62,
          "name": "D4",
          "ticks": 230400,
          "time": 170.15648012500003,
          "velocity": 0.2755905511811024
        },
        {
          "duration": 0.08120966666666618,
          "durationTicks": 116,
          "midi": 58,
          "name": "A#3",
          "ticks": 230640,
          "time": 170.32450012500001,
          "velocity": 0.2755905511811024
        },
        {
          "duration": 0.08120966666666618,
          "durationTicks": 116,
          "midi": 62,
          "name": "D4",
          "ticks": 230640,
          "time": 170.32450012500001,
          "velocity": 0.2755905511811024
        },
        {
          "duration": 0.08120966666666618,
          "durationTicks": 116,
          "midi": 58,
          "name": "A#3",
          "ticks": 230880,
          "time": 170.49252012500003,
          "velocity": 0.2755905511811024
        },
        {
          "duration": 0.08120966666666618,
          "durationTicks": 116,
          "midi": 62,
          "name": "D4",
          "ticks": 230880,
          "time": 170.49252012500003,
          "velocity": 0.2755905511811024
        },
        {
          "duration": 0.08120966666666618,
          "durationTicks": 116,
          "midi": 57,
          "name": "A3",
          "ticks": 231120,
          "time": 170.660540125,
          "velocity": 0.2755905511811024
        },
        {
          "duration": 0.08120966666666618,
          "durationTicks": 116,
          "midi": 60,
          "name": "C4",
          "ticks": 231120,
          "time": 170.660540125,
          "velocity": 0.2755905511811024
        },
        {
          "duration": 0.08120966666666618,
          "durationTicks": 116,
          "midi": 57,
          "name": "A3",
          "ticks": 231360,
          "time": 170.82856012500002,
          "velocity": 0.2755905511811024
        },
        {
          "duration": 0.08120966666666618,
          "durationTicks": 116,
          "midi": 60,
          "name": "C4",
          "ticks": 231360,
          "time": 170.82856012500002,
          "velocity": 0.2755905511811024
        },
        {
          "duration": 0.08120966666666618,
          "durationTicks": 116,
          "midi": 57,
          "name": "A3",
          "ticks": 231600,
          "time": 170.996580125,
          "velocity": 0.2755905511811024
        },
        {
          "duration": 0.08120966666666618,
          "durationTicks": 116,
          "midi": 60,
          "name": "C4",
          "ticks": 231600,
          "time": 170.996580125,
          "velocity": 0.2755905511811024
        },
        {
          "duration": 0.16521966666667254,
          "durationTicks": 236,
          "midi": 57,
          "name": "A3",
          "ticks": 232080,
          "time": 171.332620125,
          "velocity": 0.2755905511811024
        },
        {
          "duration": 0.16521966666667254,
          "durationTicks": 236,
          "midi": 61,
          "name": "C#4",
          "ticks": 232080,
          "time": 171.332620125,
          "velocity": 0.3543307086614173
        },
        {
          "duration": 0.08120966666666618,
          "durationTicks": 116,
          "midi": 58,
          "name": "A#3",
          "ticks": 232320,
          "time": 171.50064012500002,
          "velocity": 0.2755905511811024
        },
        {
          "duration": 0.08120966666666618,
          "durationTicks": 116,
          "midi": 62,
          "name": "D4",
          "ticks": 232320,
          "time": 171.50064012500002,
          "velocity": 0.2755905511811024
        },
        {
          "duration": 0.1372163333333276,
          "durationTicks": 196,
          "midi": 59,
          "name": "B3",
          "ticks": 232800,
          "time": 171.83668012500002,
          "velocity": 0.2755905511811024
        },
        {
          "duration": 0.16521966666667254,
          "durationTicks": 236,
          "midi": 62,
          "name": "D4",
          "ticks": 232800,
          "time": 171.83668012500002,
          "velocity": 0.3543307086614173
        },
        {
          "duration": 0.08120966666666618,
          "durationTicks": 116,
          "midi": 60,
          "name": "C4",
          "ticks": 233040,
          "time": 172.00470012500003,
          "velocity": 0.2755905511811024
        },
        {
          "duration": 0.08120966666666618,
          "durationTicks": 116,
          "midi": 63,
          "name": "D#4",
          "ticks": 233040,
          "time": 172.00470012500003,
          "velocity": 0.2755905511811024
        },
        {
          "duration": 0.08120966666666618,
          "durationTicks": 116,
          "midi": 62,
          "name": "D4",
          "ticks": 233520,
          "time": 172.34074012500002,
          "velocity": 0.2755905511811024
        },
        {
          "duration": 0.08120966666666618,
          "durationTicks": 116,
          "midi": 65,
          "name": "F4",
          "ticks": 233520,
          "time": 172.34074012500002,
          "velocity": 0.2755905511811024
        },
        {
          "duration": 0.08120966666666618,
          "durationTicks": 116,
          "midi": 62,
          "name": "D4",
          "ticks": 233760,
          "time": 172.508760125,
          "velocity": 0.2755905511811024
        },
        {
          "duration": 0.08120966666666618,
          "durationTicks": 116,
          "midi": 65,
          "name": "F4",
          "ticks": 233760,
          "time": 172.508760125,
          "velocity": 0.2755905511811024
        },
        {
          "duration": 0.08120966666666618,
          "durationTicks": 116,
          "midi": 62,
          "name": "D4",
          "ticks": 234000,
          "time": 172.67678012500002,
          "velocity": 0.2755905511811024
        },
        {
          "duration": 0.08120966666666618,
          "durationTicks": 116,
          "midi": 65,
          "name": "F4",
          "ticks": 234000,
          "time": 172.67678012500002,
          "velocity": 0.2755905511811024
        },
        {
          "duration": 0.08120966666666618,
          "durationTicks": 116,
          "midi": 62,
          "name": "D4",
          "ticks": 234240,
          "time": 172.844800125,
          "velocity": 0.2755905511811024
        },
        {
          "duration": 0.08120966666666618,
          "durationTicks": 116,
          "midi": 65,
          "name": "F4",
          "ticks": 234240,
          "time": 172.844800125,
          "velocity": 0.2755905511811024
        },
        {
          "duration": 0.08120966666666618,
          "durationTicks": 116,
          "midi": 62,
          "name": "D4",
          "ticks": 234480,
          "time": 173.01282012500002,
          "velocity": 0.2755905511811024
        },
        {
          "duration": 0.08120966666666618,
          "durationTicks": 116,
          "midi": 65,
          "name": "F4",
          "ticks": 234480,
          "time": 173.01282012500002,
          "velocity": 0.2755905511811024
        },
        {
          "duration": 0.16521966666667254,
          "durationTicks": 236,
          "midi": 57,
          "name": "A3",
          "ticks": 234960,
          "time": 173.34886012500002,
          "velocity": 0.2125984251968504
        },
        {
          "duration": 0.16521966666667254,
          "durationTicks": 236,
          "midi": 61,
          "name": "C#4",
          "ticks": 234960,
          "time": 173.34886012500002,
          "velocity": 0.28346456692913385
        },
        {
          "duration": 0.08120966666666618,
          "durationTicks": 116,
          "midi": 58,
          "name": "A#3",
          "ticks": 235200,
          "time": 173.51688012500003,
          "velocity": 0.2125984251968504
        },
        {
          "duration": 0.08120966666666618,
          "durationTicks": 116,
          "midi": 62,
          "name": "D4",
          "ticks": 235200,
          "time": 173.51688012500003,
          "velocity": 0.2125984251968504
        },
        {
          "duration": 0.1372163333333276,
          "durationTicks": 196,
          "midi": 59,
          "name": "B3",
          "ticks": 235680,
          "time": 173.85292012500003,
          "velocity": 0.2125984251968504
        },
        {
          "duration": 0.16521966666664412,
          "durationTicks": 236,
          "midi": 62,
          "name": "D4",
          "ticks": 235680,
          "time": 173.85292012500003,
          "velocity": 0.28346456692913385
        },
        {
          "duration": 0.08120966666666618,
          "durationTicks": 116,
          "midi": 60,
          "name": "C4",
          "ticks": 235920,
          "time": 174.020940125,
          "velocity": 0.2125984251968504
        },
        {
          "duration": 0.08120966666666618,
          "durationTicks": 116,
          "midi": 63,
          "name": "D#4",
          "ticks": 235920,
          "time": 174.020940125,
          "velocity": 0.2125984251968504
        },
        {
          "duration": 0.6692796666666538,
          "durationTicks": 956,
          "midi": 62,
          "name": "D4",
          "ticks": 236160,
          "time": 174.18896012500002,
          "velocity": 0.18110236220472442
        },
        {
          "duration": 0.6692796666666538,
          "durationTicks": 956,
          "midi": 65,
          "name": "F4",
          "ticks": 236160,
          "time": 174.18896012500002,
          "velocity": 0.18110236220472442
        },
        {
          "duration": 0.08120966666666618,
          "durationTicks": 116,
          "midi": 48,
          "name": "C3",
          "ticks": 264960,
          "time": 194.351360125,
          "velocity": 0.25984251968503935
        },
        {
          "duration": 0.16521966666667254,
          "durationTicks": 236,
          "midi": 52,
          "name": "E3",
          "ticks": 265440,
          "time": 194.687400125,
          "velocity": 0.29133858267716534
        },
        {
          "duration": 0.08120966666666618,
          "durationTicks": 116,
          "midi": 55,
          "name": "G3",
          "ticks": 265680,
          "time": 194.85542012500002,
          "velocity": 0.30708661417322836
        },
        {
          "duration": 0.16521966666667254,
          "durationTicks": 236,
          "midi": 60,
          "name": "C4",
          "ticks": 266160,
          "time": 195.19146012500002,
          "velocity": 0.3464566929133858
        },
        {
          "duration": 0.33323966666668525,
          "durationTicks": 476,
          "midi": 53,
          "name": "F3",
          "ticks": 266400,
          "time": 195.359480125,
          "velocity": 0.2677165354330709
        },
        {
          "duration": 0.08120966666666618,
          "durationTicks": 116,
          "midi": 50,
          "name": "D3",
          "ticks": 270720,
          "time": 198.383840125,
          "velocity": 0.25984251968503935
        },
        {
          "duration": 0.16521966666664412,
          "durationTicks": 236,
          "midi": 54,
          "name": "F#3",
          "ticks": 271200,
          "time": 198.71988012500003,
          "velocity": 0.29133858267716534
        },
        {
          "duration": 0.08120966666666618,
          "durationTicks": 116,
          "midi": 57,
          "name": "A3",
          "ticks": 271440,
          "time": 198.88790012500002,
          "velocity": 0.30708661417322836
        },
        {
          "duration": 0.16521966666667254,
          "durationTicks": 236,
          "midi": 62,
          "name": "D4",
          "ticks": 271920,
          "time": 199.223940125,
          "velocity": 0.3464566929133858
        },
        {
          "duration": 0.33323966666665683,
          "durationTicks": 476,
          "midi": 55,
          "name": "G3",
          "ticks": 272160,
          "time": 199.39196012500003,
          "velocity": 0.2677165354330709
        },
        {
          "duration": 0.08120966666666618,
          "durationTicks": 116,
          "midi": 50,
          "name": "D3",
          "ticks": 275040,
          "time": 201.408200125,
          "velocity": 0.25984251968503935
        },
        {
          "duration": 0.16521966666664412,
          "durationTicks": 236,
          "midi": 53,
          "name": "F3",
          "ticks": 275520,
          "time": 201.74424012500003,
          "velocity": 0.29133858267716534
        },
        {
          "duration": 0.08120966666666618,
          "durationTicks": 116,
          "midi": 57,
          "name": "A3",
          "ticks": 275760,
          "time": 201.91226012500002,
          "velocity": 0.30708661417322836
        },
        {
          "duration": 0.16521966666667254,
          "durationTicks": 236,
          "midi": 50,
          "name": "D3",
          "ticks": 276240,
          "time": 202.24830012500001,
          "velocity": 0.3464566929133858
        },
        {
          "duration": 3.1895796666666456,
          "durationTicks": 4556,
          "midi": 62,
          "name": "D4",
          "ticks": 276480,
          "time": 202.41632012500003,
          "velocity": 0.3464566929133858
        },
        {
          "duration": 0.08307074166665984,
          "durationTicks": 116,
          "midi": 51,
          "name": "D#3",
          "ticks": 296640,
          "time": 220.530817125,
          "velocity": 0.1889763779527559
        },
        {
          "duration": 0.08307074166665984,
          "durationTicks": 116,
          "midi": 63,
          "name": "D#4",
          "ticks": 296640,
          "time": 220.530817125,
          "velocity": 0.1889763779527559
        },
        {
          "duration": 0.08307074166668826,
          "durationTicks": 116,
          "midi": 51,
          "name": "D#3",
          "ticks": 297360,
          "time": 221.04642862499998,
          "velocity": 0.1889763779527559
        },
        {
          "duration": 0.08307074166668826,
          "durationTicks": 116,
          "midi": 65,
          "name": "F4",
          "ticks": 297360,
          "time": 221.04642862499998,
          "velocity": 0.1889763779527559
        },
        {
          "duration": 0.5986822416666655,
          "durationTicks": 836,
          "midi": 51,
          "name": "D#3",
          "ticks": 298080,
          "time": 221.56204012499998,
          "velocity": 0.1889763779527559
        },
        {
          "duration": 0.5127469916666598,
          "durationTicks": 716,
          "midi": 66,
          "name": "F#4",
          "ticks": 298080,
          "time": 221.56204012499998,
          "velocity": 0.1889763779527559
        },
        {
          "duration": 0.14036090833332082,
          "durationTicks": 196,
          "midi": 63,
          "name": "D#4",
          "ticks": 298800,
          "time": 222.077651625,
          "velocity": 0.1889763779527559
        },
        {
          "duration": 0.16900599166666552,
          "durationTicks": 236,
          "midi": 61,
          "name": "C#4",
          "ticks": 302640,
          "time": 224.827579625,
          "velocity": 0.2677165354330709
        },
        {
          "duration": 0.16900599166666552,
          "durationTicks": 236,
          "midi": 59,
          "name": "B3",
          "ticks": 302880,
          "time": 224.99945012499998,
          "velocity": 0.1889763779527559
        },
        {
          "duration": 0.08307074166665984,
          "durationTicks": 116,
          "midi": 58,
          "name": "A#3",
          "ticks": 303120,
          "time": 225.171320625,
          "velocity": 0.1889763779527559
        },
        {
          "duration": 0.08307074166668826,
          "durationTicks": 116,
          "midi": 63,
          "name": "D#4",
          "ticks": 303360,
          "time": 225.34319112499998,
          "velocity": 0.1968503937007874
        },
        {
          "duration": 0.08307074166665984,
          "durationTicks": 116,
          "midi": 51,
          "name": "D#3",
          "ticks": 303600,
          "time": 225.515061625,
          "velocity": 0.1968503937007874
        },
        {
          "duration": 0.2549412416666428,
          "durationTicks": 356,
          "midi": 56,
          "name": "G#3",
          "ticks": 303840,
          "time": 225.686932125,
          "velocity": 0.16535433070866143
        },
        {
          "duration": 0.16900599166666552,
          "durationTicks": 236,
          "midi": 63,
          "name": "D#4",
          "ticks": 305520,
          "time": 226.890025625,
          "velocity": 0.31496062992125984
        },
        {
          "duration": 0.16900599166666552,
          "durationTicks": 236,
          "midi": 61,
          "name": "C#4",
          "ticks": 305760,
          "time": 227.06189612499998,
          "velocity": 0.23622047244094488
        },
        {
          "duration": 0.08307074166665984,
          "durationTicks": 116,
          "midi": 60,
          "name": "C4",
          "ticks": 306000,
          "time": 227.233766625,
          "velocity": 0.23622047244094488
        },
        {
          "duration": 0.08307074166665984,
          "durationTicks": 116,
          "midi": 65,
          "name": "F4",
          "ticks": 306240,
          "time": 227.405637125,
          "velocity": 0.2440944881889764
        },
        {
          "duration": 0.08307074166665984,
          "durationTicks": 116,
          "midi": 53,
          "name": "F3",
          "ticks": 306480,
          "time": 227.57750762499998,
          "velocity": 0.2440944881889764
        },
        {
          "duration": 0.2549412416666712,
          "durationTicks": 356,
          "midi": 58,
          "name": "A#3",
          "ticks": 306720,
          "time": 227.749378125,
          "velocity": 0.2283464566929134
        },
        {
          "duration": 0.08307074166665984,
          "durationTicks": 116,
          "midi": 53,
          "name": "F3",
          "ticks": 331920,
          "time": 246.233247625,
          "velocity": 0.2204724409448819
        },
        {
          "duration": 0.08307074166665984,
          "durationTicks": 116,
          "midi": 60,
          "name": "C4",
          "ticks": 331920,
          "time": 246.233247625,
          "velocity": 0.2204724409448819
        },
        {
          "duration": 0.08307074166665984,
          "durationTicks": 116,
          "midi": 53,
          "name": "F3",
          "ticks": 332160,
          "time": 246.405118125,
          "velocity": 0.2204724409448819
        },
        {
          "duration": 0.08307074166665984,
          "durationTicks": 116,
          "midi": 60,
          "name": "C4",
          "ticks": 332160,
          "time": 246.405118125,
          "velocity": 0.2204724409448819
        },
        {
          "duration": 0.08307074166665984,
          "durationTicks": 116,
          "midi": 53,
          "name": "F3",
          "ticks": 332400,
          "time": 246.57698862499998,
          "velocity": 0.2204724409448819
        },
        {
          "duration": 0.08307074166665984,
          "durationTicks": 116,
          "midi": 60,
          "name": "C4",
          "ticks": 332400,
          "time": 246.57698862499998,
          "velocity": 0.2204724409448819
        },
        {
          "duration": 0.16900599166666552,
          "durationTicks": 236,
          "midi": 58,
          "name": "A#3",
          "ticks": 332640,
          "time": 246.748859125,
          "velocity": 0.2204724409448819
        },
        {
          "duration": 0.16900599166666552,
          "durationTicks": 236,
          "midi": 62,
          "name": "D4",
          "ticks": 332640,
          "time": 246.748859125,
          "velocity": 0.2204724409448819
        },
        {
          "duration": 0.08307074166665984,
          "durationTicks": 116,
          "midi": 65,
          "name": "F4",
          "ticks": 333360,
          "time": 247.264470625,
          "velocity": 0.3464566929133858
        },
        {
          "duration": 0.08307074166665984,
          "durationTicks": 116,
          "midi": 65,
          "name": "F4",
          "ticks": 333600,
          "time": 247.43634112499998,
          "velocity": 0.3464566929133858
        },
        {
          "duration": 0.08307074166665984,
          "durationTicks": 116,
          "midi": 65,
          "name": "F4",
          "ticks": 333840,
          "time": 247.608211625,
          "velocity": 0.3464566929133858
        },
        {
          "duration": 0.3408764916666769,
          "durationTicks": 476,
          "midi": 46,
          "name": "A#2",
          "ticks": 334080,
          "time": 247.78008212499998,
          "velocity": 0.2125984251968504
        },
        {
          "duration": 0.3408764916666769,
          "durationTicks": 476,
          "midi": 58,
          "name": "A#3",
          "ticks": 334080,
          "time": 247.78008212499998,
          "velocity": 0.2755905511811024
        },
        {
          "duration": 0.16900599166666552,
          "durationTicks": 236,
          "midi": 48,
          "name": "C3",
          "ticks": 334560,
          "time": 248.123823125,
          "velocity": 0.2204724409448819
        },
        {
          "duration": 0.16900599166666552,
          "durationTicks": 236,
          "midi": 60,
          "name": "C4",
          "ticks": 334560,
          "time": 248.123823125,
          "velocity": 0.29133858267716534
        },
        {
          "duration": 0.3408764916666769,
          "durationTicks": 476,
          "midi": 50,
          "name": "D3",
          "ticks": 334800,
          "time": 248.29569362499998,
          "velocity": 0.2283464566929134
        },
        {
          "duration": 0.3408764916666769,
          "durationTicks": 476,
          "midi": 62,
          "name": "D4",
          "ticks": 334800,
          "time": 248.29569362499998,
          "velocity": 0.2992125984251969
        },
        {
          "duration": 0.16900599166666552,
          "durationTicks": 236,
          "midi": 52,
          "name": "E3",
          "ticks": 335280,
          "time": 248.63943462499998,
          "velocity": 0.2440944881889764
        },
        {
          "duration": 0.16900599166666552,
          "durationTicks": 236,
          "midi": 64,
          "name": "E4",
          "ticks": 335280,
          "time": 248.63943462499998,
          "velocity": 0.3228346456692913
        },
        {
          "duration": 0.2549412416666712,
          "durationTicks": 356,
          "midi": 53,
          "name": "F3",
          "ticks": 335520,
          "time": 248.811305125,
          "velocity": 0.25196850393700787
        },
        {
          "duration": 0.2549412416666712,
          "durationTicks": 356,
          "midi": 65,
          "name": "F4",
          "ticks": 335520,
          "time": 248.811305125,
          "velocity": 0.33070866141732286
        },
        {
          "duration": 0.04010311666667121,
          "durationTicks": 56,
          "midi": 65,
          "name": "F4",
          "ticks": 338640,
          "time": 251.045621625,
          "velocity": 0.25196850393700787
        },
        {
          "duration": 0.04010311666667121,
          "durationTicks": 56,
          "midi": 65,
          "name": "F4",
          "ticks": 338880,
          "time": 251.21749212499998,
          "velocity": 0.25196850393700787
        },
        {
          "duration": 0.16900599166666552,
          "durationTicks": 236,
          "midi": 65,
          "name": "F4",
          "ticks": 339120,
          "time": 251.389362625,
          "velocity": 0.2047244094488189
        },
        {
          "duration": 0.04010311666667121,
          "durationTicks": 56,
          "midi": 60,
          "name": "C4",
          "ticks": 342240,
          "time": 253.623679125,
          "velocity": 0.25196850393700787
        },
        {
          "duration": 0.04010311666667121,
          "durationTicks": 56,
          "midi": 63,
          "name": "D#4",
          "ticks": 342240,
          "time": 253.623679125,
          "velocity": 0.25196850393700787
        },
        {
          "duration": 0.04010311666667121,
          "durationTicks": 56,
          "midi": 60,
          "name": "C4",
          "ticks": 342480,
          "time": 253.79554962499998,
          "velocity": 0.25196850393700787
        },
        {
          "duration": 0.04010311666667121,
          "durationTicks": 56,
          "midi": 63,
          "name": "D#4",
          "ticks": 342480,
          "time": 253.79554962499998,
          "velocity": 0.25196850393700787
        },
        {
          "duration": 0.16900599166666552,
          "durationTicks": 236,
          "midi": 60,
          "name": "C4",
          "ticks": 342720,
          "time": 253.967420125,
          "velocity": 0.2125984251968504
        },
        {
          "duration": 0.16900599166666552,
          "durationTicks": 236,
          "midi": 63,
          "name": "D#4",
          "ticks": 342720,
          "time": 253.967420125,
          "velocity": 0.2125984251968504
        },
        {
          "duration": 0.04010311666667121,
          "durationTicks": 56,
          "midi": 62,
          "name": "D4",
          "ticks": 345120,
          "time": 255.686125125,
          "velocity": 0.25196850393700787
        },
        {
          "duration": 0.04010311666667121,
          "durationTicks": 56,
          "midi": 65,
          "name": "F4",
          "ticks": 345120,
          "time": 255.686125125,
          "velocity": 0.25196850393700787
        },
        {
          "duration": 0.04010311666667121,
          "durationTicks": 56,
          "midi": 62,
          "name": "D4",
          "ticks": 345360,
          "time": 255.857995625,
          "velocity": 0.25196850393700787
        },
        {
          "duration": 0.04010311666667121,
          "durationTicks": 56,
          "midi": 65,
          "name": "F4",
          "ticks": 345360,
          "time": 255.857995625,
          "velocity": 0.25196850393700787
        },
        {
          "duration": 0.16900599166666552,
          "durationTicks": 236,
          "midi": 62,
          "name": "D4",
          "ticks": 345600,
          "time": 256.029866125,
          "velocity": 0.2125984251968504
        },
        {
          "duration": 0.16900599166666552,
          "durationTicks": 236,
          "midi": 65,
          "name": "F4",
          "ticks": 345600,
          "time": 256.029866125,
          "velocity": 0.2125984251968504
        },
        {
          "duration": 0.05442565833334356,
          "durationTicks": 76,
          "midi": 50,
          "name": "D3",
          "ticks": 348720,
          "time": 258.264182625,
          "velocity": 0.2283464566929134
        },
        {
          "duration": 0.05442565833334356,
          "durationTicks": 76,
          "midi": 53,
          "name": "F3",
          "ticks": 348960,
          "time": 258.436053125,
          "velocity": 0.23622047244094488
        },
        {
          "duration": 0.05442565833328672,
          "durationTicks": 76,
          "midi": 56,
          "name": "G#3",
          "ticks": 349200,
          "time": 258.607923625,
          "velocity": 0.2677165354330709
        },
        {
          "duration": 0.05442565833334356,
          "durationTicks": 76,
          "midi": 59,
          "name": "B3",
          "ticks": 349440,
          "time": 258.77979412499997,
          "velocity": 0.2992125984251969
        },
        {
          "duration": 0.05442565833334356,
          "durationTicks": 76,
          "midi": 62,
          "name": "D4",
          "ticks": 349680,
          "time": 258.951664625,
          "velocity": 0.3464566929133858
        },
        {
          "duration": 0.3408764916666769,
          "durationTicks": 476,
          "midi": 63,
          "name": "D#4",
          "ticks": 349920,
          "time": 259.123535125,
          "velocity": 0.2204724409448819
        },
        {
          "duration": 0.05442565833328672,
          "durationTicks": 76,
          "midi": 50,
          "name": "D3",
          "ticks": 351600,
          "time": 260.326628625,
          "velocity": 0.2047244094488189
        },
        {
          "duration": 0.05442565833334356,
          "durationTicks": 76,
          "midi": 53,
          "name": "F3",
          "ticks": 351840,
          "time": 260.49849912499997,
          "velocity": 0.23622047244094488
        },
        {
          "duration": 0.05442565833334356,
          "durationTicks": 76,
          "midi": 56,
          "name": "G#3",
          "ticks": 352080,
          "time": 260.670369625,
          "velocity": 0.25984251968503935
        },
        {
          "duration": 0.05442565833334356,
          "durationTicks": 76,
          "midi": 59,
          "name": "B3",
          "ticks": 352320,
          "time": 260.842240125,
          "velocity": 0.2992125984251969
        },
        {
          "duration": 0.05442565833334356,
          "durationTicks": 76,
          "midi": 62,
          "name": "D4",
          "ticks": 352560,
          "time": 261.014110625,
          "velocity": 0.33070866141732286
        },
        {
          "duration": 0.34087649166662004,
          "durationTicks": 476,
          "midi": 63,
          "name": "D#4",
          "ticks": 352800,
          "time": 261.185981125,
          "velocity": 0.2677165354330709
        },
        {
          "duration": 0.05442565833334356,
          "durationTicks": 76,
          "midi": 48,
          "name": "C3",
          "ticks": 354480,
          "time": 262.389074625,
          "velocity": 0.2283464566929134
        },
        {
          "duration": 0.05442565833334356,
          "durationTicks": 76,
          "midi": 51,
          "name": "D#3",
          "ticks": 354720,
          "time": 262.560945125,
          "velocity": 0.25196850393700787
        },
        {
          "duration": 0.05442565833334356,
          "durationTicks": 76,
          "midi": 54,
          "name": "F#3",
          "ticks": 354960,
          "time": 262.732815625,
          "velocity": 0.28346456692913385
        },
        {
          "duration": 0.05442565833328672,
          "durationTicks": 76,
          "midi": 57,
          "name": "A3",
          "ticks": 355200,
          "time": 262.904686125,
          "velocity": 0.31496062992125984
        },
        {
          "duration": 0.05442565833334356,
          "durationTicks": 76,
          "midi": 60,
          "name": "C4",
          "ticks": 355440,
          "time": 263.07655662499997,
          "velocity": 0.33858267716535434
        },
        {
          "duration": 0.22629615833335492,
          "durationTicks": 316,
          "midi": 61,
          "name": "C#4",
          "ticks": 355680,
          "time": 263.248427125,
          "velocity": 0.2677165354330709
        },
        {
          "duration": 2.059581491666677,
          "durationTicks": 2876,
          "midi": 65,
          "name": "F4",
          "ticks": 364320,
          "time": 269.435765125,
          "velocity": 0.1889763779527559
        },
        {
          "duration": 0.14036090833332082,
          "durationTicks": 196,
          "midi": 41,
          "name": "F2",
          "ticks": 367200,
          "time": 271.498211125,
          "velocity": 0.3464566929133858
        },
        {
          "duration": 0.16900599166666552,
          "durationTicks": 236,
          "midi": 45,
          "name": "A2",
          "ticks": 367680,
          "time": 271.841952125,
          "velocity": 0.3700787401574803
        },
        {
          "duration": 0.11171582500003296,
          "durationTicks": 156,
          "midi": 48,
          "name": "C3",
          "ticks": 367920,
          "time": 272.013822625,
          "velocity": 0.3858267716535433
        },
        {
          "duration": 0.16900599166666552,
          "durationTicks": 236,
          "midi": 52,
          "name": "E3",
          "ticks": 368400,
          "time": 272.357563625,
          "velocity": 0.41732283464566927
        },
        {
          "duration": 0.11171582500003296,
          "durationTicks": 156,
          "midi": 53,
          "name": "F3",
          "ticks": 368640,
          "time": 272.52943412499997,
          "velocity": 0.4330708661417323
        },
        {
          "duration": 0.16900599166666552,
          "durationTicks": 236,
          "midi": 46,
          "name": "A#2",
          "ticks": 371280,
          "time": 274.420009625,
          "velocity": 0.23622047244094488
        },
        {
          "duration": 0.16900599166666552,
          "durationTicks": 236,
          "midi": 58,
          "name": "A#3",
          "ticks": 371280,
          "time": 274.420009625,
          "velocity": 0.23622047244094488
        },
        {
          "duration": 0.08307074166668826,
          "durationTicks": 116,
          "midi": 45,
          "name": "A2",
          "ticks": 371520,
          "time": 274.591880125,
          "velocity": 0.2283464566929134
        },
        {
          "duration": 0.08307074166668826,
          "durationTicks": 116,
          "midi": 57,
          "name": "A3",
          "ticks": 371520,
          "time": 274.591880125,
          "velocity": 0.2283464566929134
        },
        {
          "duration": 0.16900599166666552,
          "durationTicks": 236,
          "midi": 44,
          "name": "G#2",
          "ticks": 372000,
          "time": 274.935621125,
          "velocity": 0.2204724409448819
        },
        {
          "duration": 0.16900599166666552,
          "durationTicks": 236,
          "midi": 56,
          "name": "G#3",
          "ticks": 372000,
          "time": 274.935621125,
          "velocity": 0.2204724409448819
        },
        {
          "duration": 0.08307074166668826,
          "durationTicks": 116,
          "midi": 43,
          "name": "G2",
          "ticks": 372240,
          "time": 275.10749162499997,
          "velocity": 0.2125984251968504
        },
        {
          "duration": 0.08307074166668826,
          "durationTicks": 116,
          "midi": 55,
          "name": "G3",
          "ticks": 372240,
          "time": 275.10749162499997,
          "velocity": 0.2125984251968504
        },
        {
          "duration": 0.16900599166666552,
          "durationTicks": 236,
          "midi": 42,
          "name": "F#2",
          "ticks": 372720,
          "time": 275.451232625,
          "velocity": 0.1968503937007874
        },
        {
          "duration": 0.16900599166666552,
          "durationTicks": 236,
          "midi": 54,
          "name": "F#3",
          "ticks": 372720,
          "time": 275.451232625,
          "velocity": 0.1968503937007874
        },
        {
          "duration": 0.2549412416666428,
          "durationTicks": 356,
          "midi": 41,
          "name": "F2",
          "ticks": 372960,
          "time": 275.623103125,
          "velocity": 0.1889763779527559
        },
        {
          "duration": 0.2549412416666428,
          "durationTicks": 356,
          "midi": 53,
          "name": "F3",
          "ticks": 372960,
          "time": 275.623103125,
          "velocity": 0.1889763779527559
        },
        {
          "duration": 0.08307074166668826,
          "durationTicks": 116,
          "midi": 58,
          "name": "A#3",
          "ticks": 375120,
          "time": 277.169937625,
          "velocity": 0.18110236220472442
        },
        {
          "duration": 0.08307074166668826,
          "durationTicks": 116,
          "midi": 66,
          "name": "F#4",
          "ticks": 375120,
          "time": 277.169937625,
          "velocity": 0.18110236220472442
        },
        {
          "duration": 0.08307074166663142,
          "durationTicks": 116,
          "midi": 58,
          "name": "A#3",
          "ticks": 375360,
          "time": 277.341808125,
          "velocity": 0.18110236220472442
        },
        {
          "duration": 0.08307074166663142,
          "durationTicks": 116,
          "midi": 66,
          "name": "F#4",
          "ticks": 375360,
          "time": 277.341808125,
          "velocity": 0.18110236220472442
        },
        {
          "duration": 0.08307074166663142,
          "durationTicks": 116,
          "midi": 58,
          "name": "A#3",
          "ticks": 375600,
          "time": 277.513678625,
          "velocity": 0.18110236220472442
        },
        {
          "duration": 0.08307074166663142,
          "durationTicks": 116,
          "midi": 66,
          "name": "F#4",
          "ticks": 375600,
          "time": 277.513678625,
          "velocity": 0.18110236220472442
        },
        {
          "duration": 0.2549412416666996,
          "durationTicks": 356,
          "midi": 57,
          "name": "A3",
          "ticks": 375840,
          "time": 277.68554912499997,
          "velocity": 0.18110236220472442
        },
        {
          "duration": 0.2549412416666996,
          "durationTicks": 356,
          "midi": 65,
          "name": "F4",
          "ticks": 375840,
          "time": 277.68554912499997,
          "velocity": 0.18110236220472442
        },
        {
          "duration": 0.08307074166663142,
          "durationTicks": 116,
          "midi": 66,
          "name": "F#4",
          "ticks": 378000,
          "time": 279.232383625,
          "velocity": 0.18110236220472442
        },
        {
          "duration": 0.08307074166668826,
          "durationTicks": 116,
          "midi": 66,
          "name": "F#4",
          "ticks": 378240,
          "time": 279.40425412499997,
          "velocity": 0.18110236220472442
        },
        {
          "duration": 0.08307074166668826,
          "durationTicks": 116,
          "midi": 66,
          "name": "F#4",
          "ticks": 378480,
          "time": 279.576124625,
          "velocity": 0.18110236220472442
        },
        {
          "duration": 0.2549412416666428,
          "durationTicks": 356,
          "midi": 65,
          "name": "F4",
          "ticks": 378720,
          "time": 279.747995125,
          "velocity": 0.18110236220472442
        },
        {
          "duration": 2.059581491666677,
          "durationTicks": 2876,
          "midi": 53,
          "name": "F3",
          "ticks": 380160,
          "time": 280.779218125,
          "velocity": 0.15748031496062992
        },
        {
          "duration": 2.059581491666677,
          "durationTicks": 2876,
          "midi": 65,
          "name": "F4",
          "ticks": 380160,
          "time": 280.779218125,
          "velocity": 0.15748031496062992
        },
        {
          "duration": 2.059581491666677,
          "durationTicks": 2876,
          "midi": 53,
          "name": "F3",
          "ticks": 385920,
          "time": 284.904110125,
          "velocity": 0.15748031496062992
        },
        {
          "duration": 0.16900599166666552,
          "durationTicks": 236,
          "midi": 50,
          "name": "D3",
          "ticks": 392880,
          "time": 289.888354625,
          "velocity": 0.25984251968503935
        },
        {
          "duration": 0.16900599166666552,
          "durationTicks": 236,
          "midi": 62,
          "name": "D4",
          "ticks": 392880,
          "time": 289.888354625,
          "velocity": 0.25984251968503935
        },
        {
          "duration": 0.08307074166668826,
          "durationTicks": 116,
          "midi": 51,
          "name": "D#3",
          "ticks": 393120,
          "time": 290.060225125,
          "velocity": 0.25984251968503935
        },
        {
          "duration": 0.08307074166668826,
          "durationTicks": 116,
          "midi": 60,
          "name": "C4",
          "ticks": 393120,
          "time": 290.060225125,
          "velocity": 0.25984251968503935
        },
        {
          "duration": 0.16900599166666552,
          "durationTicks": 236,
          "midi": 50,
          "name": "D3",
          "ticks": 393600,
          "time": 290.403966125,
          "velocity": 0.25984251968503935
        },
        {
          "duration": 0.16900599166666552,
          "durationTicks": 236,
          "midi": 62,
          "name": "D4",
          "ticks": 393600,
          "time": 290.403966125,
          "velocity": 0.25984251968503935
        },
        {
          "duration": 0.08307074166668826,
          "durationTicks": 116,
          "midi": 51,
          "name": "D#3",
          "ticks": 393840,
          "time": 290.57583662499997,
          "velocity": 0.25984251968503935
        },
        {
          "duration": 0.08307074166668826,
          "durationTicks": 116,
          "midi": 60,
          "name": "C4",
          "ticks": 393840,
          "time": 290.57583662499997,
          "velocity": 0.25984251968503935
        },
        {
          "duration": 0.08307074166668826,
          "durationTicks": 116,
          "midi": 50,
          "name": "D3",
          "ticks": 394320,
          "time": 290.919577625,
          "velocity": 0.25984251968503935
        },
        {
          "duration": 0.08307074166668826,
          "durationTicks": 116,
          "midi": 62,
          "name": "D4",
          "ticks": 394320,
          "time": 290.919577625,
          "velocity": 0.25984251968503935
        },
        {
          "duration": 0.9424232416666314,
          "durationTicks": 1316,
          "midi": 57,
          "name": "A3",
          "ticks": 394560,
          "time": 291.091448125,
          "velocity": 0.33858267716535434
        },
        {
          "duration": 0.5127469916666882,
          "durationTicks": 716,
          "midi": 60,
          "name": "C4",
          "ticks": 394560,
          "time": 291.091448125,
          "velocity": 0.25984251968503935
        },
        {
          "duration": 0.42681174166665414,
          "durationTicks": 596,
          "midi": 65,
          "name": "F4",
          "ticks": 395280,
          "time": 291.607059625,
          "velocity": 0.25984251968503935
        },
        {
          "duration": 0.16900599166666552,
          "durationTicks": 236,
          "midi": 58,
          "name": "A#3",
          "ticks": 395760,
          "time": 291.950800625,
          "velocity": 0.25984251968503935
        },
        {
          "duration": 0.16900599166666552,
          "durationTicks": 236,
          "midi": 51,
          "name": "D#3",
          "ticks": 396000,
          "time": 292.122671125,
          "velocity": 0.25984251968503935
        },
        {
          "duration": 0.08307074166663142,
          "durationTicks": 116,
          "midi": 67,
          "name": "G4",
          "ticks": 396000,
          "time": 292.122671125,
          "velocity": 0.25984251968503935
        },
        {
          "duration": 0.08307074166668826,
          "durationTicks": 116,
          "midi": 52,
          "name": "E3",
          "ticks": 396720,
          "time": 292.638282625,
          "velocity": 0.25984251968503935
        },
        {
          "duration": 0.16900599166666552,
          "durationTicks": 236,
          "midi": 60,
          "name": "C4",
          "ticks": 396720,
          "time": 292.638282625,
          "velocity": 0.25984251968503935
        },
        {
          "duration": 0.6846174916666996,
          "durationTicks": 956,
          "midi": 53,
          "name": "F3",
          "ticks": 397440,
          "time": 293.15389412499997,
          "velocity": 0.2204724409448819
        },
        {
          "duration": 0.5127469916666882,
          "durationTicks": 716,
          "midi": 62,
          "name": "D4",
          "ticks": 397440,
          "time": 293.15389412499997,
          "velocity": 0.25984251968503935
        },
        {
          "duration": 0.16900599166666552,
          "durationTicks": 236,
          "midi": 60,
          "name": "C4",
          "ticks": 398160,
          "time": 293.669505625,
          "velocity": 0.18110236220472442
        },
        {
          "duration": 0.16900599166672237,
          "durationTicks": 236,
          "midi": 62,
          "name": "D4",
          "ticks": 398640,
          "time": 294.01324662499997,
          "velocity": 0.25984251968503935
        },
        {
          "duration": 0.08307074166668826,
          "durationTicks": 116,
          "midi": 63,
          "name": "D#4",
          "ticks": 398880,
          "time": 294.185117125,
          "velocity": 0.25984251968503935
        },
        {
          "duration": 0.16900599166666552,
          "durationTicks": 236,
          "midi": 62,
          "name": "D4",
          "ticks": 399360,
          "time": 294.528858125,
          "velocity": 0.25984251968503935
        },
        {
          "duration": 0.08307074166663142,
          "durationTicks": 116,
          "midi": 63,
          "name": "D#4",
          "ticks": 399600,
          "time": 294.700728625,
          "velocity": 0.25984251968503935
        },
        {
          "duration": 0.08307074166668826,
          "durationTicks": 116,
          "midi": 62,
          "name": "D4",
          "ticks": 400080,
          "time": 295.044469625,
          "velocity": 0.25984251968503935
        },
        {
          "duration": 0.8564879916666541,
          "durationTicks": 1196,
          "midi": 57,
          "name": "A3",
          "ticks": 400320,
          "time": 295.216340125,
          "velocity": 0.25984251968503935
        },
        {
          "duration": 0.8564879916666541,
          "durationTicks": 1196,
          "midi": 60,
          "name": "C4",
          "ticks": 400320,
          "time": 295.216340125,
          "velocity": 0.25984251968503935
        },
        {
          "duration": 0.08307074166668826,
          "durationTicks": 116,
          "midi": 58,
          "name": "A#3",
          "ticks": 401520,
          "time": 296.075692625,
          "velocity": 0.25984251968503935
        },
        {
          "duration": 0.08307074166668826,
          "durationTicks": 116,
          "midi": 62,
          "name": "D4",
          "ticks": 401520,
          "time": 296.075692625,
          "velocity": 0.25984251968503935
        },
        {
          "duration": 0.08307074166668826,
          "durationTicks": 116,
          "midi": 51,
          "name": "D#3",
          "ticks": 401760,
          "time": 296.247563125,
          "velocity": 0.25984251968503935
        },
        {
          "duration": 0.08307074166668826,
          "durationTicks": 116,
          "midi": 63,
          "name": "D#4",
          "ticks": 401760,
          "time": 296.247563125,
          "velocity": 0.25984251968503935
        },
        {
          "duration": 0.08307074166668826,
          "durationTicks": 116,
          "midi": 53,
          "name": "F3",
          "ticks": 402480,
          "time": 296.763174625,
          "velocity": 0.2440944881889764
        },
        {
          "duration": 0.08307074166668826,
          "durationTicks": 116,
          "midi": 63,
          "name": "D#4",
          "ticks": 402480,
          "time": 296.763174625,
          "velocity": 0.25984251968503935
        },
        {
          "duration": 0.22629615833329808,
          "durationTicks": 316,
          "midi": 58,
          "name": "A#3",
          "ticks": 403200,
          "time": 297.278786125,
          "velocity": 0.1968503937007874
        },
        {
          "duration": 0.22629615833329808,
          "durationTicks": 316,
          "midi": 62,
          "name": "D4",
          "ticks": 403200,
          "time": 297.278786125,
          "velocity": 0.1968503937007874
        },
        {
          "duration": 5.510377700000049,
          "durationTicks": 6236,
          "midi": 58,
          "name": "A#3",
          "ticks": 411840,
          "time": 303.46612412499996,
          "velocity": 0.2755905511811024
        },
        {
          "duration": 3.5479501749999827,
          "durationTicks": 4796,
          "midi": 60,
          "name": "C4",
          "ticks": 411840,
          "time": 303.46612412499996,
          "velocity": 0.3543307086614173
        },
        {
          "duration": 0.18578921666664883,
          "durationTicks": 196,
          "midi": 62,
          "name": "D4",
          "ticks": 416640,
          "time": 307.01761312499997,
          "velocity": 0.3543307086614173
        },
        {
          "duration": 0.20008169999999836,
          "durationTicks": 196,
          "midi": 63,
          "name": "D#4",
          "ticks": 416880,
          "time": 307.245110125,
          "velocity": 0.3543307086614173
        },
        {
          "duration": 0.21675680833334354,
          "durationTicks": 196,
          "midi": 62,
          "name": "D4",
          "ticks": 417120,
          "time": 307.490108125,
          "velocity": 0.3543307086614173
        },
        {
          "duration": 0.2601124166666864,
          "durationTicks": 196,
          "midi": 60,
          "name": "C4",
          "ticks": 417360,
          "time": 307.755524625,
          "velocity": 0.3543307086614173
        },
        {
          "duration": 0.902472199999977,
          "durationTicks": 476,
          "midi": 62,
          "name": "D4",
          "ticks": 417600,
          "time": 308.07402962500004,
          "velocity": 0.3543307086614173
        },
        {
          "duration": 1.497220724999977,
          "durationTicks": 2156,
          "midi": 58,
          "name": "A#3",
          "ticks": 514080,
          "time": 383.6990776250001,
          "velocity": 0.3464566929133858
        },
        {
          "duration": 0.4972217249999744,
          "durationTicks": 716,
          "midi": 67,
          "name": "G4",
          "ticks": 514080,
          "time": 383.6990776250001,
          "velocity": 0.3464566929133858
        },
        {
          "duration": 0.4972217249999744,
          "durationTicks": 716,
          "midi": 66,
          "name": "F#4",
          "ticks": 514800,
          "time": 384.1990771250001,
          "velocity": 0.3464566929133858
        },
        {
          "duration": 0.5805549749999841,
          "durationTicks": 836,
          "midi": 67,
          "name": "G4",
          "ticks": 515520,
          "time": 384.6990766250001,
          "velocity": 0.3464566929133858
        },
        {
          "duration": 0.2472219750000022,
          "durationTicks": 356,
          "midi": 55,
          "name": "G3",
          "ticks": 516240,
          "time": 385.19907612500003,
          "velocity": 0.3464566929133858
        },
        {
          "duration": 0.16388872500004936,
          "durationTicks": 236,
          "midi": 63,
          "name": "D#4",
          "ticks": 516240,
          "time": 385.19907612500003,
          "velocity": 0.3464566929133858
        },
        {
          "duration": 0.16388872499999252,
          "durationTicks": 236,
          "midi": 57,
          "name": "A3",
          "ticks": 520080,
          "time": 387.86574012500006,
          "velocity": 0.1889763779527559
        },
        {
          "duration": 0.16388872499999252,
          "durationTicks": 236,
          "midi": 61,
          "name": "C#4",
          "ticks": 520080,
          "time": 387.86574012500006,
          "velocity": 0.2677165354330709
        },
        {
          "duration": 0.08055547499998283,
          "durationTicks": 116,
          "midi": 58,
          "name": "A#3",
          "ticks": 520320,
          "time": 388.0324066250001,
          "velocity": 0.1889763779527559
        },
        {
          "duration": 0.08055547499998283,
          "durationTicks": 116,
          "midi": 62,
          "name": "D4",
          "ticks": 520320,
          "time": 388.0324066250001,
          "velocity": 0.1889763779527559
        },
        {
          "duration": 0.16388872499999252,
          "durationTicks": 236,
          "midi": 59,
          "name": "B3",
          "ticks": 520800,
          "time": 388.36573962500006,
          "velocity": 0.1968503937007874
        },
        {
          "duration": 0.16388872499999252,
          "durationTicks": 236,
          "midi": 62,
          "name": "D4",
          "ticks": 520800,
          "time": 388.36573962500006,
          "velocity": 0.1968503937007874
        },
        {
          "duration": 0.16388872499999252,
          "durationTicks": 236,
          "midi": 60,
          "name": "C4",
          "ticks": 521040,
          "time": 388.5324061250001,
          "velocity": 0.1968503937007874
        },
        {
          "duration": 0.16388872499999252,
          "durationTicks": 236,
          "midi": 63,
          "name": "D#4",
          "ticks": 521040,
          "time": 388.5324061250001,
          "velocity": 0.1968503937007874
        },
        {
          "duration": 0.6638882249999938,
          "durationTicks": 956,
          "midi": 62,
          "name": "D4",
          "ticks": 521280,
          "time": 388.69907262500004,
          "velocity": 0.1968503937007874
        },
        {
          "duration": 0.6638882249999938,
          "durationTicks": 956,
          "midi": 65,
          "name": "F4",
          "ticks": 521280,
          "time": 388.69907262500004,
          "velocity": 0.1968503937007874
        },
        {
          "duration": 1.9138869750000254,
          "durationTicks": 2756,
          "midi": 58,
          "name": "A#3",
          "ticks": 522720,
          "time": 389.69907162500004,
          "velocity": 0.3464566929133858
        },
        {
          "duration": 0.49722172500003126,
          "durationTicks": 716,
          "midi": 67,
          "name": "G4",
          "ticks": 522720,
          "time": 389.69907162500004,
          "velocity": 0.3464566929133858
        },
        {
          "duration": 0.49722172500003126,
          "durationTicks": 716,
          "midi": 66,
          "name": "F#4",
          "ticks": 523440,
          "time": 390.19907112500005,
          "velocity": 0.3464566929133858
        },
        {
          "duration": 0.9138879750000228,
          "durationTicks": 1316,
          "midi": 67,
          "name": "G4",
          "ticks": 524160,
          "time": 390.69907062500005,
          "velocity": 0.3464566929133858
        },
        {
          "duration": 0.08055547500003968,
          "durationTicks": 116,
          "midi": 62,
          "name": "D4",
          "ticks": 525600,
          "time": 391.69906962500005,
          "velocity": 0.25984251968503935
        },
        {
          "duration": 0.08055547500003968,
          "durationTicks": 116,
          "midi": 65,
          "name": "F4",
          "ticks": 525600,
          "time": 391.69906962500005,
          "velocity": 0.25984251968503935
        },
        {
          "duration": 0.08055547499998283,
          "durationTicks": 116,
          "midi": 62,
          "name": "D4",
          "ticks": 526080,
          "time": 392.0324026250001,
          "velocity": 0.25984251968503935
        },
        {
          "duration": 0.08055547499998283,
          "durationTicks": 116,
          "midi": 65,
          "name": "F4",
          "ticks": 526080,
          "time": 392.0324026250001,
          "velocity": 0.25984251968503935
        },
        {
          "duration": 0.08055547499998283,
          "durationTicks": 116,
          "midi": 62,
          "name": "D4",
          "ticks": 526320,
          "time": 392.19906912500005,
          "velocity": 0.25196850393700787
        },
        {
          "duration": 0.08055547499998283,
          "durationTicks": 116,
          "midi": 65,
          "name": "F4",
          "ticks": 526320,
          "time": 392.19906912500005,
          "velocity": 0.25196850393700787
        },
        {
          "duration": 0.08055547499998283,
          "durationTicks": 116,
          "midi": 62,
          "name": "D4",
          "ticks": 526800,
          "time": 392.5324021250001,
          "velocity": 0.2440944881889764
        },
        {
          "duration": 0.08055547499998283,
          "durationTicks": 116,
          "midi": 65,
          "name": "F4",
          "ticks": 526800,
          "time": 392.5324021250001,
          "velocity": 0.2440944881889764
        },
        {
          "duration": 0.6638882249999938,
          "durationTicks": 956,
          "midi": 63,
          "name": "D#4",
          "ticks": 527040,
          "time": 392.69906862500005,
          "velocity": 0.2440944881889764
        },
        {
          "duration": 0.6638882249999938,
          "durationTicks": 956,
          "midi": 67,
          "name": "G4",
          "ticks": 527040,
          "time": 392.69906862500005,
          "velocity": 0.2440944881889764
        },
        {
          "duration": 0.16388872499999252,
          "durationTicks": 236,
          "midi": 62,
          "name": "D4",
          "ticks": 528000,
          "time": 393.3657346250001,
          "velocity": 0.2283464566929134
        },
        {
          "duration": 0.16388872499999252,
          "durationTicks": 236,
          "midi": 65,
          "name": "F4",
          "ticks": 528000,
          "time": 393.3657346250001,
          "velocity": 0.2283464566929134
        },
        {
          "duration": 0.16388872499999252,
          "durationTicks": 236,
          "midi": 60,
          "name": "C4",
          "ticks": 528240,
          "time": 393.5324011250001,
          "velocity": 0.2204724409448819
        },
        {
          "duration": 0.16388872499999252,
          "durationTicks": 236,
          "midi": 63,
          "name": "D#4",
          "ticks": 528240,
          "time": 393.5324011250001,
          "velocity": 0.2204724409448819
        },
        {
          "duration": 0.08055547499998283,
          "durationTicks": 116,
          "midi": 65,
          "name": "F4",
          "ticks": 528480,
          "time": 393.69906762500005,
          "velocity": 0.2204724409448819
        },
        {
          "duration": 0.08055547500003968,
          "durationTicks": 116,
          "midi": 65,
          "name": "F4",
          "ticks": 528960,
          "time": 394.03240062500004,
          "velocity": 0.2125984251968504
        },
        {
          "duration": 0.08055547499998283,
          "durationTicks": 116,
          "midi": 53,
          "name": "F3",
          "ticks": 529200,
          "time": 394.19906712500006,
          "velocity": 0.2047244094488189
        },
        {
          "duration": 0.08055547499998283,
          "durationTicks": 116,
          "midi": 53,
          "name": "F3",
          "ticks": 529680,
          "time": 394.5324001250001,
          "velocity": 0.1968503937007874
        },
        {
          "duration": 0.08055547499998283,
          "durationTicks": 116,
          "midi": 58,
          "name": "A#3",
          "ticks": 529920,
          "time": 394.69906662500006,
          "velocity": 0.4330708661417323
        },
        {
          "duration": 0.08055547499998283,
          "durationTicks": 116,
          "midi": 57,
          "name": "A3",
          "ticks": 530160,
          "time": 394.8657331250001,
          "velocity": 0.4330708661417323
        },
        {
          "duration": 0.08055547500003968,
          "durationTicks": 116,
          "midi": 55,
          "name": "G3",
          "ticks": 530400,
          "time": 395.03239962500004,
          "velocity": 0.4330708661417323
        },
        {
          "duration": 0.08055547499998283,
          "durationTicks": 116,
          "midi": 54,
          "name": "F#3",
          "ticks": 530640,
          "time": 395.19906612500006,
          "velocity": 0.4330708661417323
        },
        {
          "duration": 0.08055547499998283,
          "durationTicks": 116,
          "midi": 55,
          "name": "G3",
          "ticks": 530880,
          "time": 395.3657326250001,
          "velocity": 0.4330708661417323
        },
        {
          "duration": 0.08055547500003968,
          "durationTicks": 116,
          "midi": 52,
          "name": "E3",
          "ticks": 531120,
          "time": 395.53239912500004,
          "velocity": 0.4330708661417323
        },
        {
          "duration": 0.08055547499998283,
          "durationTicks": 116,
          "midi": 53,
          "name": "F3",
          "ticks": 531360,
          "time": 395.69906562500006,
          "velocity": 0.4330708661417323
        },
        {
          "duration": 0.08055547499998283,
          "durationTicks": 116,
          "midi": 50,
          "name": "D3",
          "ticks": 531600,
          "time": 395.8657321250001,
          "velocity": 0.4330708661417323
        },
        {
          "duration": 0.08055547500003968,
          "durationTicks": 116,
          "midi": 51,
          "name": "D#3",
          "ticks": 531840,
          "time": 396.03239862500004,
          "velocity": 0.4330708661417323
        },
        {
          "duration": 0.08055547499998283,
          "durationTicks": 116,
          "midi": 49,
          "name": "C#3",
          "ticks": 532080,
          "time": 396.19906512500006,
          "velocity": 0.4330708661417323
        },
        {
          "duration": 0.08055547499998283,
          "durationTicks": 116,
          "midi": 50,
          "name": "D3",
          "ticks": 532320,
          "time": 396.3657316250001,
          "velocity": 0.4330708661417323
        },
        {
          "duration": 0.08055547500003968,
          "durationTicks": 116,
          "midi": 46,
          "name": "A#2",
          "ticks": 532560,
          "time": 396.53239812500004,
          "velocity": 0.4330708661417323
        },
        {
          "duration": 0.08055547499998283,
          "durationTicks": 116,
          "midi": 51,
          "name": "D#3",
          "ticks": 532800,
          "time": 396.69906462500006,
          "velocity": 0.4330708661417323
        },
        {
          "duration": 0.08055547499998283,
          "durationTicks": 116,
          "midi": 51,
          "name": "D#3",
          "ticks": 533040,
          "time": 396.8657311250001,
          "velocity": 0.4330708661417323
        },
        {
          "duration": 0.08055547500003968,
          "durationTicks": 116,
          "midi": 51,
          "name": "D#3",
          "ticks": 533280,
          "time": 397.03239762500004,
          "velocity": 0.4330708661417323
        },
        {
          "duration": 0.08055547499998283,
          "durationTicks": 116,
          "midi": 51,
          "name": "D#3",
          "ticks": 533520,
          "time": 397.19906412500006,
          "velocity": 0.4330708661417323
        },
        {
          "duration": 0.08055547499998283,
          "durationTicks": 116,
          "midi": 50,
          "name": "D3",
          "ticks": 533760,
          "time": 397.3657306250001,
          "velocity": 0.4330708661417323
        },
        {
          "duration": 0.08055547500003968,
          "durationTicks": 116,
          "midi": 48,
          "name": "C3",
          "ticks": 534000,
          "time": 397.53239712500005,
          "velocity": 0.4330708661417323
        },
        {
          "duration": 0.08055547499998283,
          "durationTicks": 116,
          "midi": 53,
          "name": "F3",
          "ticks": 534240,
          "time": 397.69906362500006,
          "velocity": 0.4330708661417323
        },
        {
          "duration": 0.08055547499998283,
          "durationTicks": 116,
          "midi": 53,
          "name": "F3",
          "ticks": 534480,
          "time": 397.8657301250001,
          "velocity": 0.4330708661417323
        },
        {
          "duration": 0.08055547500003968,
          "durationTicks": 116,
          "midi": 53,
          "name": "F3",
          "ticks": 534720,
          "time": 398.03239662500005,
          "velocity": 0.4330708661417323
        },
        {
          "duration": 0.08055547499998283,
          "durationTicks": 116,
          "midi": 53,
          "name": "F3",
          "ticks": 534960,
          "time": 398.19906312500007,
          "velocity": 0.4330708661417323
        },
        {
          "duration": 0.08055547499998283,
          "durationTicks": 116,
          "midi": 53,
          "name": "F3",
          "ticks": 535200,
          "time": 398.3657296250001,
          "velocity": 0.4330708661417323
        },
        {
          "duration": 0.08055547500003968,
          "durationTicks": 116,
          "midi": 53,
          "name": "F3",
          "ticks": 535440,
          "time": 398.53239612500005,
          "velocity": 0.4330708661417323
        },
        {
          "duration": 0.08055547499998283,
          "durationTicks": 116,
          "midi": 58,
          "name": "A#3",
          "ticks": 535680,
          "time": 398.69906262500007,
          "velocity": 0.4330708661417323
        },
        {
          "duration": 0.08055547499998283,
          "durationTicks": 116,
          "midi": 57,
          "name": "A3",
          "ticks": 535920,
          "time": 398.8657291250001,
          "velocity": 0.4330708661417323
        },
        {
          "duration": 0.08055547500003968,
          "durationTicks": 116,
          "midi": 55,
          "name": "G3",
          "ticks": 536160,
          "time": 399.03239562500005,
          "velocity": 0.4330708661417323
        },
        {
          "duration": 0.08055547499998283,
          "durationTicks": 116,
          "midi": 54,
          "name": "F#3",
          "ticks": 536400,
          "time": 399.19906212500007,
          "velocity": 0.4330708661417323
        },
        {
          "duration": 0.08055547499998283,
          "durationTicks": 116,
          "midi": 55,
          "name": "G3",
          "ticks": 536640,
          "time": 399.3657286250001,
          "velocity": 0.4330708661417323
        },
        {
          "duration": 0.08055547500003968,
          "durationTicks": 116,
          "midi": 52,
          "name": "E3",
          "ticks": 536880,
          "time": 399.53239512500005,
          "velocity": 0.4330708661417323
        },
        {
          "duration": 0.08055547499998283,
          "durationTicks": 116,
          "midi": 53,
          "name": "F3",
          "ticks": 537120,
          "time": 399.69906162500007,
          "velocity": 0.4330708661417323
        },
        {
          "duration": 0.08055547500003968,
          "durationTicks": 116,
          "midi": 50,
          "name": "D3",
          "ticks": 537360,
          "time": 399.86572812500003,
          "velocity": 0.4330708661417323
        },
        {
          "duration": 0.08055547499998283,
          "durationTicks": 116,
          "midi": 51,
          "name": "D#3",
          "ticks": 537600,
          "time": 400.03239462500005,
          "velocity": 0.4330708661417323
        },
        {
          "duration": 0.08055547499998283,
          "durationTicks": 116,
          "midi": 49,
          "name": "C#3",
          "ticks": 537840,
          "time": 400.19906112500007,
          "velocity": 0.4330708661417323
        },
        {
          "duration": 0.08055547499998283,
          "durationTicks": 116,
          "midi": 50,
          "name": "D3",
          "ticks": 538080,
          "time": 400.3657276250001,
          "velocity": 0.4330708661417323
        },
        {
          "duration": 0.08055547500003968,
          "durationTicks": 116,
          "midi": 46,
          "name": "A#2",
          "ticks": 538320,
          "time": 400.53239412500005,
          "velocity": 0.4330708661417323
        },
        {
          "duration": 0.08055547499998283,
          "durationTicks": 116,
          "midi": 51,
          "name": "D#3",
          "ticks": 538560,
          "time": 400.6990606250001,
          "velocity": 0.4330708661417323
        },
        {
          "duration": 0.08055547500003968,
          "durationTicks": 116,
          "midi": 51,
          "name": "D#3",
          "ticks": 538800,
          "time": 400.86572712500003,
          "velocity": 0.4330708661417323
        },
        {
          "duration": 0.08055547499998283,
          "durationTicks": 116,
          "midi": 51,
          "name": "D#3",
          "ticks": 539040,
          "time": 401.03239362500005,
          "velocity": 0.4330708661417323
        },
        {
          "duration": 0.08055547499998283,
          "durationTicks": 116,
          "midi": 51,
          "name": "D#3",
          "ticks": 539280,
          "time": 401.1990601250001,
          "velocity": 0.4330708661417323
        },
        {
          "duration": 0.08055547499998283,
          "durationTicks": 116,
          "midi": 50,
          "name": "D3",
          "ticks": 539520,
          "time": 401.3657266250001,
          "velocity": 0.4330708661417323
        },
        {
          "duration": 0.08055547500003968,
          "durationTicks": 116,
          "midi": 48,
          "name": "C3",
          "ticks": 539760,
          "time": 401.53239312500006,
          "velocity": 0.4330708661417323
        },
        {
          "duration": 0.08055547499998283,
          "durationTicks": 116,
          "midi": 53,
          "name": "F3",
          "ticks": 540000,
          "time": 401.6990596250001,
          "velocity": 0.4330708661417323
        },
        {
          "duration": 0.08055547500003968,
          "durationTicks": 116,
          "midi": 53,
          "name": "F3",
          "ticks": 540240,
          "time": 401.86572612500004,
          "velocity": 0.4330708661417323
        },
        {
          "duration": 0.08055547499998283,
          "durationTicks": 116,
          "midi": 53,
          "name": "F3",
          "ticks": 540480,
          "time": 402.03239262500006,
          "velocity": 0.4330708661417323
        },
        {
          "duration": 0.08055547499998283,
          "durationTicks": 116,
          "midi": 41,
          "name": "F2",
          "ticks": 540720,
          "time": 402.1990591250001,
          "velocity": 0.4330708661417323
        },
        {
          "duration": 0.08055547500003968,
          "durationTicks": 116,
          "midi": 41,
          "name": "F2",
          "ticks": 540960,
          "time": 402.36572562500004,
          "velocity": 0.4330708661417323
        },
        {
          "duration": 0.08055547500003968,
          "durationTicks": 116,
          "midi": 41,
          "name": "F2",
          "ticks": 541200,
          "time": 402.53239212500006,
          "velocity": 0.4330708661417323
        },
        {
          "duration": 0.21944422499996108,
          "durationTicks": 316,
          "midi": 46,
          "name": "A#2",
          "ticks": 541440,
          "time": 402.6990586250001,
          "velocity": 0.4330708661417323
        },
        {
          "duration": 0.4972217249999744,
          "durationTicks": 716,
          "midi": 51,
          "name": "D#3",
          "ticks": 550800,
          "time": 409.1990521250001,
          "velocity": 0.25984251968503935
        },
        {
          "duration": 0.4972217249999744,
          "durationTicks": 716,
          "midi": 63,
          "name": "D#4",
          "ticks": 550800,
          "time": 409.1990521250001,
          "velocity": 0.25984251968503935
        },
        {
          "duration": 0.16388872500004936,
          "durationTicks": 236,
          "midi": 50,
          "name": "D3",
          "ticks": 551520,
          "time": 409.69905162500004,
          "velocity": 0.18110236220472442
        },
        {
          "duration": 0.16388872500004936,
          "durationTicks": 236,
          "midi": 62,
          "name": "D4",
          "ticks": 551520,
          "time": 409.69905162500004,
          "velocity": 0.25984251968503935
        },
        {
          "duration": 0.49722172500003126,
          "durationTicks": 716,
          "midi": 51,
          "name": "D#3",
          "ticks": 552240,
          "time": 410.19905112500004,
          "velocity": 0.25984251968503935
        },
        {
          "duration": 0.49722172500003126,
          "durationTicks": 716,
          "midi": 63,
          "name": "D#4",
          "ticks": 552240,
          "time": 410.19905112500004,
          "velocity": 0.25984251968503935
        },
        {
          "duration": 0.16388872500004936,
          "durationTicks": 236,
          "midi": 50,
          "name": "D3",
          "ticks": 552960,
          "time": 410.69905062500004,
          "velocity": 0.18110236220472442
        },
        {
          "duration": 0.16388872500004936,
          "durationTicks": 236,
          "midi": 62,
          "name": "D4",
          "ticks": 552960,
          "time": 410.69905062500004,
          "velocity": 0.25984251968503935
        },
        {
          "duration": 0.16388872499999252,
          "durationTicks": 236,
          "midi": 50,
          "name": "D3",
          "ticks": 554160,
          "time": 411.5323831250001,
          "velocity": 0.18110236220472442
        },
        {
          "duration": 0.16388872499999252,
          "durationTicks": 236,
          "midi": 62,
          "name": "D4",
          "ticks": 554160,
          "time": 411.5323831250001,
          "velocity": 0.25984251968503935
        },
        {
          "duration": 0.16388872499999252,
          "durationTicks": 236,
          "midi": 51,
          "name": "D#3",
          "ticks": 554400,
          "time": 411.69904962500004,
          "velocity": 0.18110236220472442
        },
        {
          "duration": 0.16388872499999252,
          "durationTicks": 236,
          "midi": 63,
          "name": "D#4",
          "ticks": 554400,
          "time": 411.69904962500004,
          "velocity": 0.25984251968503935
        },
        {
          "duration": 0.16388872499999252,
          "durationTicks": 236,
          "midi": 47,
          "name": "B2",
          "ticks": 554640,
          "time": 411.86571612500006,
          "velocity": 0.18110236220472442
        },
        {
          "duration": 0.16388872499999252,
          "durationTicks": 236,
          "midi": 59,
          "name": "B3",
          "ticks": 554640,
          "time": 411.86571612500006,
          "velocity": 0.25984251968503935
        },
        {
          "duration": 0.16388872499999252,
          "durationTicks": 236,
          "midi": 48,
          "name": "C3",
          "ticks": 554880,
          "time": 412.0323826250001,
          "velocity": 0.18110236220472442
        },
        {
          "duration": 0.16388872499999252,
          "durationTicks": 236,
          "midi": 60,
          "name": "C4",
          "ticks": 554880,
          "time": 412.0323826250001,
          "velocity": 0.25984251968503935
        },
        {
          "duration": 0.16388872500004936,
          "durationTicks": 236,
          "midi": 50,
          "name": "D3",
          "ticks": 555120,
          "time": 412.19904912500004,
          "velocity": 0.18110236220472442
        },
        {
          "duration": 0.16388872500004936,
          "durationTicks": 236,
          "midi": 62,
          "name": "D4",
          "ticks": 555120,
          "time": 412.19904912500004,
          "velocity": 0.25984251968503935
        },
        {
          "duration": 0.16388872499999252,
          "durationTicks": 236,
          "midi": 45,
          "name": "A2",
          "ticks": 555360,
          "time": 412.36571562500006,
          "velocity": 0.18110236220472442
        },
        {
          "duration": 0.16388872499999252,
          "durationTicks": 236,
          "midi": 57,
          "name": "A3",
          "ticks": 555360,
          "time": 412.36571562500006,
          "velocity": 0.25984251968503935
        },
        {
          "duration": 0.16388872499999252,
          "durationTicks": 236,
          "midi": 46,
          "name": "A#2",
          "ticks": 555600,
          "time": 412.5323821250001,
          "velocity": 0.18110236220472442
        },
        {
          "duration": 0.16388872499999252,
          "durationTicks": 236,
          "midi": 58,
          "name": "A#3",
          "ticks": 555600,
          "time": 412.5323821250001,
          "velocity": 0.25984251968503935
        },
        {
          "duration": 0.16388872499999252,
          "durationTicks": 236,
          "midi": 48,
          "name": "C3",
          "ticks": 555840,
          "time": 412.69904862500005,
          "velocity": 0.18110236220472442
        },
        {
          "duration": 0.16388872499999252,
          "durationTicks": 236,
          "midi": 60,
          "name": "C4",
          "ticks": 555840,
          "time": 412.69904862500005,
          "velocity": 0.25984251968503935
        },
        {
          "duration": 0.16388872499999252,
          "durationTicks": 236,
          "midi": 44,
          "name": "G#2",
          "ticks": 556080,
          "time": 412.86571512500007,
          "velocity": 0.18110236220472442
        },
        {
          "duration": 0.16388872499999252,
          "durationTicks": 236,
          "midi": 56,
          "name": "G#3",
          "ticks": 556080,
          "time": 412.86571512500007,
          "velocity": 0.25984251968503935
        },
        {
          "duration": 0.16388872499999252,
          "durationTicks": 236,
          "midi": 45,
          "name": "A2",
          "ticks": 556320,
          "time": 413.0323816250001,
          "velocity": 0.18110236220472442
        },
        {
          "duration": 0.16388872499999252,
          "durationTicks": 236,
          "midi": 57,
          "name": "A3",
          "ticks": 556320,
          "time": 413.0323816250001,
          "velocity": 0.25984251968503935
        },
        {
          "duration": 0.16388872500004936,
          "durationTicks": 236,
          "midi": 46,
          "name": "A#2",
          "ticks": 556560,
          "time": 413.19904812500005,
          "velocity": 0.18110236220472442
        },
        {
          "duration": 0.16388872500004936,
          "durationTicks": 236,
          "midi": 58,
          "name": "A#3",
          "ticks": 556560,
          "time": 413.19904812500005,
          "velocity": 0.25984251968503935
        },
        {
          "duration": 0.16388872499999252,
          "durationTicks": 236,
          "midi": 42,
          "name": "F#2",
          "ticks": 556800,
          "time": 413.36571462500007,
          "velocity": 0.1968503937007874
        },
        {
          "duration": 0.16388872499999252,
          "durationTicks": 236,
          "midi": 54,
          "name": "F#3",
          "ticks": 556800,
          "time": 413.36571462500007,
          "velocity": 0.25196850393700787
        },
        {
          "duration": 0.16388872499999252,
          "durationTicks": 236,
          "midi": 43,
          "name": "G2",
          "ticks": 557040,
          "time": 413.5323811250001,
          "velocity": 0.1889763779527559
        },
        {
          "duration": 0.16388872499999252,
          "durationTicks": 236,
          "midi": 55,
          "name": "G3",
          "ticks": 557040,
          "time": 413.5323811250001,
          "velocity": 0.2047244094488189
        },
        {
          "duration": 0.16388872499999252,
          "durationTicks": 236,
          "midi": 62,
          "name": "D4",
          "ticks": 563760,
          "time": 418.19904312500006,
          "velocity": 0.2992125984251969
        },
        {
          "duration": 0.16388872499999252,
          "durationTicks": 236,
          "midi": 58,
          "name": "A#3",
          "ticks": 564480,
          "time": 418.69904262500006,
          "velocity": 0.29133858267716534
        },
        {
          "duration": 0.16388872499999252,
          "durationTicks": 236,
          "midi": 53,
          "name": "F3",
          "ticks": 565200,
          "time": 419.19904212500006,
          "velocity": 0.28346456692913385
        },
        {
          "duration": 0.16388872499999252,
          "durationTicks": 236,
          "midi": 50,
          "name": "D3",
          "ticks": 565920,
          "time": 419.69904162500006,
          "velocity": 0.2677165354330709
        },
        {
          "duration": 0.16388872499999252,
          "durationTicks": 236,
          "midi": 46,
          "name": "A#2",
          "ticks": 566640,
          "time": 420.19904112500006,
          "velocity": 0.25196850393700787
        },
        {
          "duration": 0.9972212249999757,
          "durationTicks": 1436,
          "midi": 41,
          "name": "F2",
          "ticks": 567360,
          "time": 420.69904062500007,
          "velocity": 0.2440944881889764
        },
        {
          "duration": 0.9972212249999757,
          "durationTicks": 1436,
          "midi": 53,
          "name": "F3",
          "ticks": 567360,
          "time": 420.69904062500007,
          "velocity": 0.2440944881889764
        },
        {
          "duration": 0.3305552250000119,
          "durationTicks": 476,
          "midi": 46,
          "name": "A#2",
          "ticks": 568800,
          "time": 421.69903962500007,
          "velocity": 0.2204724409448819
        },
        {
          "duration": 0.3305552250000119,
          "durationTicks": 476,
          "midi": 58,
          "name": "A#3",
          "ticks": 568800,
          "time": 421.69903962500007,
          "velocity": 0.2204724409448819
        },
        {
          "duration": 0.16388872499999252,
          "durationTicks": 236,
          "midi": 41,
          "name": "F2",
          "ticks": 576000,
          "time": 426.6990346250001,
          "velocity": 0.3464566929133858
        },
        {
          "duration": 0.16388872499999252,
          "durationTicks": 236,
          "midi": 45,
          "name": "A2",
          "ticks": 576480,
          "time": 427.03236762500006,
          "velocity": 0.3464566929133858
        },
        {
          "duration": 0.08055547499998283,
          "durationTicks": 116,
          "midi": 48,
          "name": "C3",
          "ticks": 576720,
          "time": 427.1990341250001,
          "velocity": 0.3464566929133858
        },
        {
          "duration": 0.16388872499999252,
          "durationTicks": 236,
          "midi": 53,
          "name": "F3",
          "ticks": 577200,
          "time": 427.53236712500006,
          "velocity": 0.3228346456692913
        },
        {
          "duration": 0.2472219750000022,
          "durationTicks": 356,
          "midi": 46,
          "name": "A#2",
          "ticks": 577440,
          "time": 427.6990336250001,
          "velocity": 0.2677165354330709
        },
        {
          "duration": 0.16388872499999252,
          "durationTicks": 236,
          "midi": 41,
          "name": "F2",
          "ticks": 578880,
          "time": 428.6990326250001,
          "velocity": 0.3464566929133858
        },
        {
          "duration": 0.16388872499999252,
          "durationTicks": 236,
          "midi": 45,
          "name": "A2",
          "ticks": 579360,
          "time": 429.03236562500007,
          "velocity": 0.3228346456692913
        },
        {
          "duration": 0.08055547500003968,
          "durationTicks": 116,
          "midi": 48,
          "name": "C3",
          "ticks": 579600,
          "time": 429.19903212500003,
          "velocity": 0.33070866141732286
        },
        {
          "duration": 0.16388872499999252,
          "durationTicks": 236,
          "midi": 53,
          "name": "F3",
          "ticks": 580080,
          "time": 429.53236512500007,
          "velocity": 0.2992125984251969
        },
        {
          "duration": 0.1361109749999514,
          "durationTicks": 196,
          "midi": 46,
          "name": "A#2",
          "ticks": 580320,
          "time": 429.6990316250001,
          "velocity": 0.4330708661417323
        },
        {
          "duration": 0.16388872499999252,
          "durationTicks": 236,
          "midi": 50,
          "name": "D3",
          "ticks": 580800,
          "time": 430.03236462500007,
          "velocity": 0.3779527559055118
        },
        {
          "duration": 0.08055547500003968,
          "durationTicks": 116,
          "midi": 53,
          "name": "F3",
          "ticks": 581040,
          "time": 430.19903112500003,
          "velocity": 0.3779527559055118
        },
        {
          "duration": 0.16388872499999252,
          "durationTicks": 236,
          "midi": 58,
          "name": "A#3",
          "ticks": 581520,
          "time": 430.5323641250001,
          "velocity": 0.3779527559055118
        },
        {
          "duration": 0.08055547499998283,
          "durationTicks": 116,
          "midi": 62,
          "name": "D4",
          "ticks": 581760,
          "time": 430.6990306250001,
          "velocity": 0.4566929133858268
        },
        {
          "duration": 0.08055547500003968,
          "durationTicks": 116,
          "midi": 62,
          "name": "D4",
          "ticks": 582000,
          "time": 430.86569712500005,
          "velocity": 0.3779527559055118
        },
        {
          "duration": 0.08055547499998283,
          "durationTicks": 116,
          "midi": 62,
          "name": "D4",
          "ticks": 582240,
          "time": 431.0323636250001,
          "velocity": 0.3779527559055118
        },
        {
          "duration": 0.08055547500003968,
          "durationTicks": 116,
          "midi": 62,
          "name": "D4",
          "ticks": 582480,
          "time": 431.19903012500004,
          "velocity": 0.3779527559055118
        },
        {
          "duration": 0.08055547499998283,
          "durationTicks": 116,
          "midi": 58,
          "name": "A#3",
          "ticks": 582720,
          "time": 431.36569662500006,
          "velocity": 0.3779527559055118
        },
        {
          "duration": 0.08055547499998283,
          "durationTicks": 116,
          "midi": 53,
          "name": "F3",
          "ticks": 582960,
          "time": 431.5323631250001,
          "velocity": 0.3779527559055118
        },
        {
          "duration": 0.08055547499998283,
          "durationTicks": 116,
          "midi": 65,
          "name": "F4",
          "ticks": 583200,
          "time": 431.6990296250001,
          "velocity": 0.4566929133858268
        },
        {
          "duration": 0.08055547500003968,
          "durationTicks": 116,
          "midi": 65,
          "name": "F4",
          "ticks": 583440,
          "time": 431.86569612500006,
          "velocity": 0.3779527559055118
        },
        {
          "duration": 0.08055547499998283,
          "durationTicks": 116,
          "midi": 65,
          "name": "F4",
          "ticks": 583680,
          "time": 432.0323626250001,
          "velocity": 0.3779527559055118
        },
        {
          "duration": 0.08055547500003968,
          "durationTicks": 116,
          "midi": 65,
          "name": "F4",
          "ticks": 583920,
          "time": 432.19902912500004,
          "velocity": 0.3779527559055118
        },
        {
          "duration": 0.08055547499998283,
          "durationTicks": 116,
          "midi": 62,
          "name": "D4",
          "ticks": 584160,
          "time": 432.36569562500006,
          "velocity": 0.3779527559055118
        },
        {
          "duration": 0.08055547499998283,
          "durationTicks": 116,
          "midi": 58,
          "name": "A#3",
          "ticks": 584400,
          "time": 432.5323621250001,
          "velocity": 0.3779527559055118
        },
        {
          "duration": 0.08055547499998283,
          "durationTicks": 116,
          "midi": 62,
          "name": "D4",
          "ticks": 584640,
          "time": 432.6990286250001,
          "velocity": 0.4566929133858268
        },
        {
          "duration": 0.08055547500003968,
          "durationTicks": 116,
          "midi": 58,
          "name": "A#3",
          "ticks": 584880,
          "time": 432.86569512500006,
          "velocity": 0.3779527559055118
        },
        {
          "duration": 0.08055547499998283,
          "durationTicks": 116,
          "midi": 53,
          "name": "F3",
          "ticks": 585120,
          "time": 433.0323616250001,
          "velocity": 0.3779527559055118
        },
        {
          "duration": 0.08055547500003968,
          "durationTicks": 116,
          "midi": 58,
          "name": "A#3",
          "ticks": 585360,
          "time": 433.19902812500004,
          "velocity": 0.4566929133858268
        },
        {
          "duration": 0.08055547499998283,
          "durationTicks": 116,
          "midi": 53,
          "name": "F3",
          "ticks": 585600,
          "time": 433.36569462500006,
          "velocity": 0.3779527559055118
        },
        {
          "duration": 0.08055547499998283,
          "durationTicks": 116,
          "midi": 50,
          "name": "D3",
          "ticks": 585840,
          "time": 433.5323611250001,
          "velocity": 0.3779527559055118
        },
        {
          "duration": 0.13611097500000824,
          "durationTicks": 196,
          "midi": 46,
          "name": "A#2",
          "ticks": 586080,
          "time": 433.69902762500004,
          "velocity": 0.3779527559055118
        },
        {
          "duration": 0.16388872499999252,
          "durationTicks": 236,
          "midi": 58,
          "name": "A#3",
          "ticks": 586800,
          "time": 434.19902712500004,
          "velocity": 0.3779527559055118
        },
        {
          "duration": 0.2472219750000022,
          "durationTicks": 356,
          "midi": 46,
          "name": "A#2",
          "ticks": 587520,
          "time": 434.69902662500004,
          "velocity": 0.3779527559055118
        }
      ]
    },
    {
      "channel": 0,
      "controlChanges": {
        "0": [
          {
            "number": 0,
            "ticks": 0,
            "time": 0,
            "value": 0.007874015748031496
          }
        ],
        "32": [
          {
            "number": 32,
            "ticks": 0,
            "time": 0,
            "value": 0
          }
        ]
      },
      "pitchBends": [],
      "instrument": {
        "family": "piano",
        "number": 0,
        "name": "acoustic grand piano"
      },
      "name": "Horns",
      "notes": [],
      "endOfTrackTicks": 588960
    },
    {
      "channel": 5,
      "controlChanges": {
        "0": [
          {
            "number": 0,
            "ticks": 73388,
            "time": 51.377715666666674,
            "value": 0
          },
          {
            "number": 0,
            "ticks": 91388,
            "time": 63.979215666666676,
            "value": 0.007874015748031496
          },
          {
            "number": 0,
            "ticks": 529868,
            "time": 394.66295555000005,
            "value": 0
          },
          {
            "number": 0,
            "ticks": 550740,
            "time": 409.15738550000003,
            "value": 0.007874015748031496
          }
        ],
        "7": [
          {
            "number": 7,
            "ticks": 0,
            "time": 0,
            "value": 1
          }
        ],
        "10": [
          {
            "number": 10,
            "ticks": 0,
            "time": 0,
            "value": 0.4251968503937008
          }
        ],
        "11": [
          {
            "number": 11,
            "ticks": 84,
            "time": 0.058807,
            "value": 1
          },
          {
            "number": 11,
            "ticks": 355676,
            "time": 263.24556261666663,
            "value": 0.3700787401574803
          },
          {
            "number": 11,
            "ticks": 357244,
            "time": 264.3684498833333,
            "value": 0.3779527559055118
          },
          {
            "number": 11,
            "ticks": 357364,
            "time": 264.45438513333335,
            "value": 0.3858267716535433
          },
          {
            "number": 11,
            "ticks": 357484,
            "time": 264.5403203833333,
            "value": 0.3937007874015748
          },
          {
            "number": 11,
            "ticks": 357604,
            "time": 264.6262556333333,
            "value": 0.4015748031496063
          },
          {
            "number": 11,
            "ticks": 357724,
            "time": 264.71219088333334,
            "value": 0.4094488188976378
          },
          {
            "number": 11,
            "ticks": 357844,
            "time": 264.7981261333333,
            "value": 0.41732283464566927
          },
          {
            "number": 11,
            "ticks": 357964,
            "time": 264.88406138333335,
            "value": 0.4251968503937008
          },
          {
            "number": 11,
            "ticks": 358084,
            "time": 264.9699966333333,
            "value": 0.4330708661417323
          },
          {
            "number": 11,
            "ticks": 358204,
            "time": 265.0559318833333,
            "value": 0.4409448818897638
          },
          {
            "number": 11,
            "ticks": 358324,
            "time": 265.14186713333334,
            "value": 0.4566929133858268
          },
          {
            "number": 11,
            "ticks": 358444,
            "time": 265.2278023833333,
            "value": 0.47244094488188976
          },
          {
            "number": 11,
            "ticks": 358564,
            "time": 265.31373763333335,
            "value": 0.4881889763779528
          },
          {
            "number": 11,
            "ticks": 358684,
            "time": 265.3996728833333,
            "value": 0.5039370078740157
          },
          {
            "number": 11,
            "ticks": 358804,
            "time": 265.4856081333333,
            "value": 0.5196850393700787
          },
          {
            "number": 11,
            "ticks": 358924,
            "time": 265.57154338333333,
            "value": 0.5354330708661418
          },
          {
            "number": 11,
            "ticks": 359044,
            "time": 265.6574786333333,
            "value": 0.5511811023622047
          },
          {
            "number": 11,
            "ticks": 359164,
            "time": 265.74341388333335,
            "value": 0.5669291338582677
          },
          {
            "number": 11,
            "ticks": 359284,
            "time": 265.8293491333333,
            "value": 0.5826771653543307
          },
          {
            "number": 11,
            "ticks": 359404,
            "time": 265.9152843833333,
            "value": 0.5984251968503937
          },
          {
            "number": 11,
            "ticks": 359524,
            "time": 266.00121963333333,
            "value": 0.6220472440944882
          },
          {
            "number": 11,
            "ticks": 359644,
            "time": 266.0871548833333,
            "value": 0.6456692913385826
          },
          {
            "number": 11,
            "ticks": 359764,
            "time": 266.17309013333335,
            "value": 0.6692913385826772
          },
          {
            "number": 11,
            "ticks": 359884,
            "time": 266.2590253833333,
            "value": 0.6929133858267716
          },
          {
            "number": 11,
            "ticks": 360004,
            "time": 266.3449606333333,
            "value": 0.7165354330708661
          },
          {
            "number": 11,
            "ticks": 360124,
            "time": 266.43089588333333,
            "value": 0.7401574803149606
          },
          {
            "number": 11,
            "ticks": 360244,
            "time": 266.5168311333333,
            "value": 0.7637795275590551
          },
          {
            "number": 11,
            "ticks": 360364,
            "time": 266.60276638333335,
            "value": 0.7874015748031497
          },
          {
            "number": 11,
            "ticks": 360484,
            "time": 266.6887016333333,
            "value": 0.8110236220472441
          },
          {
            "number": 11,
            "ticks": 360604,
            "time": 266.7746368833333,
            "value": 0.8346456692913385
          },
          {
            "number": 11,
            "ticks": 360724,
            "time": 266.86057213333333,
            "value": 0.8661417322834646
          },
          {
            "number": 11,
            "ticks": 360844,
            "time": 266.9465073833333,
            "value": 0.8976377952755905
          },
          {
            "number": 11,
            "ticks": 360964,
            "time": 267.03244263333335,
            "value": 0.9291338582677166
          },
          {
            "number": 11,
            "ticks": 361084,
            "time": 267.1183778833333,
            "value": 0.9606299212598425
          },
          {
            "number": 11,
            "ticks": 361204,
            "time": 267.20431313333336,
            "value": 0.9921259842519685
          }
        ],
        "32": [
          {
            "number": 32,
            "ticks": 73388,
            "time": 51.377715666666674,
            "value": 0
          },
          {
            "number": 32,
            "ticks": 91388,
            "time": 63.979215666666676,
            "value": 0
          },
          {
            "number": 32,
            "ticks": 529868,
            "time": 394.66295555000005,
            "value": 0
          },
          {
            "number": 32,
            "ticks": 550740,
            "time": 409.15738550000003,
            "value": 0
          }
        ],
        "91": [
          {
            "number": 91,
            "ticks": 88,
            "time": 0.06160733333333333,
            "value": 0.6220472440944882
          }
        ],
        "93": [
          {
            "number": 93,
            "ticks": 88,
            "time": 0.06160733333333333,
            "value": 0.07874015748031496
          }
        ],
        "121": [
          {
            "number": 121,
            "ticks": 80,
            "time": 0.05600666666666666,
            "value": 0
          }
        ]
      },
      "pitchBends": [
        {
          "ticks": 104,
          "time": 0.07280866666666667,
          "value": 0
        }
      ],
      "instrument": {
        "family": "brass",
        "number": 60,
        "name": "french horn"
      },
      "name": "",
      "notes": [
        {
          "duration": 0.08120966666666618,
          "durationTicks": 116,
          "midi": 58,
          "name": "A#3",
          "ticks": 12960,
          "time": 9.073080000000001,
          "velocity": 0.3464566929133858
        },
        {
          "duration": 0.08120966666666796,
          "durationTicks": 116,
          "midi": 58,
          "name": "A#3",
          "ticks": 13200,
          "time": 9.2411,
          "velocity": 0.3464566929133858
        },
        {
          "duration": 0.08120966666666796,
          "durationTicks": 116,
          "midi": 58,
          "name": "A#3",
          "ticks": 13440,
          "time": 9.40912,
          "velocity": 0.3464566929133858
        },
        {
          "duration": 0.08120966666666618,
          "durationTicks": 116,
          "midi": 58,
          "name": "A#3",
          "ticks": 13680,
          "time": 9.57714,
          "velocity": 0.3464566929133858
        },
        {
          "duration": 0.08120966666666618,
          "durationTicks": 116,
          "midi": 58,
          "name": "A#3",
          "ticks": 13920,
          "time": 9.74516,
          "velocity": 0.3464566929133858
        },
        {
          "duration": 0.08120966666666618,
          "durationTicks": 116,
          "midi": 58,
          "name": "A#3",
          "ticks": 14160,
          "time": 9.91318,
          "velocity": 0.3464566929133858
        },
        {
          "duration": 0.08120966666666618,
          "durationTicks": 116,
          "midi": 58,
          "name": "A#3",
          "ticks": 14400,
          "time": 10.0812,
          "velocity": 0.3464566929133858
        },
        {
          "duration": 0.08120966666666796,
          "durationTicks": 116,
          "midi": 58,
          "name": "A#3",
          "ticks": 14640,
          "time": 10.24922,
          "velocity": 0.3464566929133858
        },
        {
          "duration": 0.08120966666666796,
          "durationTicks": 116,
          "midi": 58,
          "name": "A#3",
          "ticks": 14880,
          "time": 10.41724,
          "velocity": 0.3464566929133858
        },
        {
          "duration": 0.08120966666666796,
          "durationTicks": 116,
          "midi": 58,
          "name": "A#3",
          "ticks": 15120,
          "time": 10.58526,
          "velocity": 0.3464566929133858
        },
        {
          "duration": 0.08120966666666618,
          "durationTicks": 116,
          "midi": 58,
          "name": "A#3",
          "ticks": 15360,
          "time": 10.75328,
          "velocity": 0.3464566929133858
        },
        {
          "duration": 0.08120966666666618,
          "durationTicks": 116,
          "midi": 58,
          "name": "A#3",
          "ticks": 15600,
          "time": 10.9213,
          "velocity": 0.3464566929133858
        },
        {
          "duration": 0.08120966666666618,
          "durationTicks": 116,
          "midi": 65,
          "name": "F4",
          "ticks": 15840,
          "time": 11.08932,
          "velocity": 0.3464566929133858
        },
        {
          "duration": 0.08120966666666618,
          "durationTicks": 116,
          "midi": 65,
          "name": "F4",
          "ticks": 16080,
          "time": 11.257340000000001,
          "velocity": 0.3464566929133858
        },
        {
          "duration": 0.08120966666666796,
          "durationTicks": 116,
          "midi": 65,
          "name": "F4",
          "ticks": 16320,
          "time": 11.42536,
          "velocity": 0.3464566929133858
        },
        {
          "duration": 0.08120966666666796,
          "durationTicks": 116,
          "midi": 65,
          "name": "F4",
          "ticks": 16560,
          "time": 11.59338,
          "velocity": 0.3464566929133858
        },
        {
          "duration": 0.08120966666666618,
          "durationTicks": 116,
          "midi": 65,
          "name": "F4",
          "ticks": 16800,
          "time": 11.7614,
          "velocity": 0.3464566929133858
        },
        {
          "duration": 0.08120966666666618,
          "durationTicks": 116,
          "midi": 65,
          "name": "F4",
          "ticks": 17040,
          "time": 11.92942,
          "velocity": 0.3464566929133858
        },
        {
          "duration": 0.08120966666666618,
          "durationTicks": 116,
          "midi": 65,
          "name": "F4",
          "ticks": 17280,
          "time": 12.09744,
          "velocity": 0.3464566929133858
        },
        {
          "duration": 0.08120966666666618,
          "durationTicks": 116,
          "midi": 65,
          "name": "F4",
          "ticks": 17520,
          "time": 12.265460000000001,
          "velocity": 0.3464566929133858
        },
        {
          "duration": 0.08120966666666796,
          "durationTicks": 116,
          "midi": 65,
          "name": "F4",
          "ticks": 17760,
          "time": 12.43348,
          "velocity": 0.3464566929133858
        },
        {
          "duration": 0.08120966666666796,
          "durationTicks": 116,
          "midi": 65,
          "name": "F4",
          "ticks": 18000,
          "time": 12.6015,
          "velocity": 0.3464566929133858
        },
        {
          "duration": 0.08120966666666618,
          "durationTicks": 116,
          "midi": 65,
          "name": "F4",
          "ticks": 18240,
          "time": 12.76952,
          "velocity": 0.3464566929133858
        },
        {
          "duration": 0.08120966666666618,
          "durationTicks": 116,
          "midi": 65,
          "name": "F4",
          "ticks": 18480,
          "time": 12.93754,
          "velocity": 0.3464566929133858
        },
        {
          "duration": 0.08120966666666618,
          "durationTicks": 116,
          "midi": 58,
          "name": "A#3",
          "ticks": 18720,
          "time": 13.10556,
          "velocity": 0.3464566929133858
        },
        {
          "duration": 0.08120966666666618,
          "durationTicks": 116,
          "midi": 70,
          "name": "A#4",
          "ticks": 18720,
          "time": 13.10556,
          "velocity": 0.3464566929133858
        },
        {
          "duration": 0.08120966666666618,
          "durationTicks": 116,
          "midi": 58,
          "name": "A#3",
          "ticks": 18960,
          "time": 13.27358,
          "velocity": 0.3464566929133858
        },
        {
          "duration": 0.08120966666666618,
          "durationTicks": 116,
          "midi": 70,
          "name": "A#4",
          "ticks": 18960,
          "time": 13.27358,
          "velocity": 0.3464566929133858
        },
        {
          "duration": 0.08120966666666618,
          "durationTicks": 116,
          "midi": 58,
          "name": "A#3",
          "ticks": 19200,
          "time": 13.441600000000001,
          "velocity": 0.3464566929133858
        },
        {
          "duration": 0.08120966666666618,
          "durationTicks": 116,
          "midi": 70,
          "name": "A#4",
          "ticks": 19200,
          "time": 13.441600000000001,
          "velocity": 0.3464566929133858
        },
        {
          "duration": 0.08120966666666796,
          "durationTicks": 116,
          "midi": 58,
          "name": "A#3",
          "ticks": 19440,
          "time": 13.60962,
          "velocity": 0.3464566929133858
        },
        {
          "duration": 0.08120966666666796,
          "durationTicks": 116,
          "midi": 70,
          "name": "A#4",
          "ticks": 19440,
          "time": 13.60962,
          "velocity": 0.3464566929133858
        },
        {
          "duration": 0.08120966666666796,
          "durationTicks": 116,
          "midi": 58,
          "name": "A#3",
          "ticks": 19680,
          "time": 13.77764,
          "velocity": 0.3464566929133858
        },
        {
          "duration": 0.08120966666666796,
          "durationTicks": 116,
          "midi": 70,
          "name": "A#4",
          "ticks": 19680,
          "time": 13.77764,
          "velocity": 0.3464566929133858
        },
        {
          "duration": 0.08120966666666618,
          "durationTicks": 116,
          "midi": 58,
          "name": "A#3",
          "ticks": 19920,
          "time": 13.94566,
          "velocity": 0.3464566929133858
        },
        {
          "duration": 0.08120966666666618,
          "durationTicks": 116,
          "midi": 70,
          "name": "A#4",
          "ticks": 19920,
          "time": 13.94566,
          "velocity": 0.3464566929133858
        },
        {
          "duration": 0.08120966666666618,
          "durationTicks": 116,
          "midi": 58,
          "name": "A#3",
          "ticks": 20160,
          "time": 14.11368,
          "velocity": 0.3464566929133858
        },
        {
          "duration": 0.08120966666666618,
          "durationTicks": 116,
          "midi": 70,
          "name": "A#4",
          "ticks": 20160,
          "time": 14.11368,
          "velocity": 0.3464566929133858
        },
        {
          "duration": 0.08120966666666618,
          "durationTicks": 116,
          "midi": 58,
          "name": "A#3",
          "ticks": 20400,
          "time": 14.2817,
          "velocity": 0.3464566929133858
        },
        {
          "duration": 0.08120966666666618,
          "durationTicks": 116,
          "midi": 70,
          "name": "A#4",
          "ticks": 20400,
          "time": 14.2817,
          "velocity": 0.3464566929133858
        },
        {
          "duration": 0.08120966666666618,
          "durationTicks": 116,
          "midi": 58,
          "name": "A#3",
          "ticks": 20640,
          "time": 14.449720000000001,
          "velocity": 0.3464566929133858
        },
        {
          "duration": 0.08120966666666618,
          "durationTicks": 116,
          "midi": 70,
          "name": "A#4",
          "ticks": 20640,
          "time": 14.449720000000001,
          "velocity": 0.3464566929133858
        },
        {
          "duration": 0.08120966666666796,
          "durationTicks": 116,
          "midi": 58,
          "name": "A#3",
          "ticks": 20880,
          "time": 14.61774,
          "velocity": 0.3464566929133858
        },
        {
          "duration": 0.08120966666666796,
          "durationTicks": 116,
          "midi": 70,
          "name": "A#4",
          "ticks": 20880,
          "time": 14.61774,
          "velocity": 0.3464566929133858
        },
        {
          "duration": 0.08120966666666796,
          "durationTicks": 116,
          "midi": 58,
          "name": "A#3",
          "ticks": 21120,
          "time": 14.78576,
          "velocity": 0.3464566929133858
        },
        {
          "duration": 0.08120966666666796,
          "durationTicks": 116,
          "midi": 70,
          "name": "A#4",
          "ticks": 21120,
          "time": 14.78576,
          "velocity": 0.3464566929133858
        },
        {
          "duration": 0.08120966666666618,
          "durationTicks": 116,
          "midi": 58,
          "name": "A#3",
          "ticks": 21360,
          "time": 14.95378,
          "velocity": 0.3464566929133858
        },
        {
          "duration": 0.08120966666666618,
          "durationTicks": 116,
          "midi": 70,
          "name": "A#4",
          "ticks": 21360,
          "time": 14.95378,
          "velocity": 0.3464566929133858
        },
        {
          "duration": 0.08120966666666618,
          "durationTicks": 116,
          "midi": 53,
          "name": "F3",
          "ticks": 21600,
          "time": 15.1218,
          "velocity": 0.3464566929133858
        },
        {
          "duration": 0.08120966666666618,
          "durationTicks": 116,
          "midi": 65,
          "name": "F4",
          "ticks": 21600,
          "time": 15.1218,
          "velocity": 0.3464566929133858
        },
        {
          "duration": 0.08120966666666618,
          "durationTicks": 116,
          "midi": 53,
          "name": "F3",
          "ticks": 21840,
          "time": 15.28982,
          "velocity": 0.3464566929133858
        },
        {
          "duration": 0.08120966666666618,
          "durationTicks": 116,
          "midi": 65,
          "name": "F4",
          "ticks": 21840,
          "time": 15.28982,
          "velocity": 0.3464566929133858
        },
        {
          "duration": 0.08120966666666618,
          "durationTicks": 116,
          "midi": 53,
          "name": "F3",
          "ticks": 22080,
          "time": 15.457840000000001,
          "velocity": 0.3464566929133858
        },
        {
          "duration": 0.08120966666666618,
          "durationTicks": 116,
          "midi": 65,
          "name": "F4",
          "ticks": 22080,
          "time": 15.457840000000001,
          "velocity": 0.3464566929133858
        },
        {
          "duration": 0.08120966666666796,
          "durationTicks": 116,
          "midi": 53,
          "name": "F3",
          "ticks": 22320,
          "time": 15.62586,
          "velocity": 0.3464566929133858
        },
        {
          "duration": 0.08120966666666796,
          "durationTicks": 116,
          "midi": 65,
          "name": "F4",
          "ticks": 22320,
          "time": 15.62586,
          "velocity": 0.3464566929133858
        },
        {
          "duration": 0.08120966666666796,
          "durationTicks": 116,
          "midi": 53,
          "name": "F3",
          "ticks": 22560,
          "time": 15.79388,
          "velocity": 0.3464566929133858
        },
        {
          "duration": 0.08120966666666796,
          "durationTicks": 116,
          "midi": 65,
          "name": "F4",
          "ticks": 22560,
          "time": 15.79388,
          "velocity": 0.3464566929133858
        },
        {
          "duration": 0.08120966666666618,
          "durationTicks": 116,
          "midi": 53,
          "name": "F3",
          "ticks": 22800,
          "time": 15.9619,
          "velocity": 0.3464566929133858
        },
        {
          "duration": 0.08120966666666618,
          "durationTicks": 116,
          "midi": 65,
          "name": "F4",
          "ticks": 22800,
          "time": 15.9619,
          "velocity": 0.3464566929133858
        },
        {
          "duration": 0.5852696666666688,
          "durationTicks": 836,
          "midi": 53,
          "name": "F3",
          "ticks": 23040,
          "time": 16.12992,
          "velocity": 0.3464566929133858
        },
        {
          "duration": 0.5012596666666695,
          "durationTicks": 716,
          "midi": 65,
          "name": "F4",
          "ticks": 23040,
          "time": 16.12992,
          "velocity": 0.3464566929133858
        },
        {
          "duration": 0.16521966666666543,
          "durationTicks": 236,
          "midi": 58,
          "name": "A#3",
          "ticks": 23760,
          "time": 16.63398,
          "velocity": 0.2677165354330709
        },
        {
          "duration": 0.08120966666665907,
          "durationTicks": 116,
          "midi": 58,
          "name": "A#3",
          "ticks": 57600,
          "time": 40.3248,
          "velocity": 0.3464566929133858
        },
        {
          "duration": 0.08120966666665907,
          "durationTicks": 116,
          "midi": 70,
          "name": "A#4",
          "ticks": 57600,
          "time": 40.3248,
          "velocity": 0.5196850393700787
        },
        {
          "duration": 0.08120966666666618,
          "durationTicks": 116,
          "midi": 58,
          "name": "A#3",
          "ticks": 57840,
          "time": 40.49282,
          "velocity": 0.3464566929133858
        },
        {
          "duration": 0.08120966666666618,
          "durationTicks": 116,
          "midi": 70,
          "name": "A#4",
          "ticks": 57840,
          "time": 40.49282,
          "velocity": 0.5196850393700787
        },
        {
          "duration": 0.08120966666666618,
          "durationTicks": 116,
          "midi": 58,
          "name": "A#3",
          "ticks": 58080,
          "time": 40.66084,
          "velocity": 0.3464566929133858
        },
        {
          "duration": 0.08120966666666618,
          "durationTicks": 116,
          "midi": 70,
          "name": "A#4",
          "ticks": 58080,
          "time": 40.66084,
          "velocity": 0.5196850393700787
        },
        {
          "duration": 0.08120966666666618,
          "durationTicks": 116,
          "midi": 58,
          "name": "A#3",
          "ticks": 58320,
          "time": 40.82886,
          "velocity": 0.3464566929133858
        },
        {
          "duration": 0.08120966666666618,
          "durationTicks": 116,
          "midi": 70,
          "name": "A#4",
          "ticks": 58320,
          "time": 40.82886,
          "velocity": 0.5196850393700787
        },
        {
          "duration": 0.08120966666666618,
          "durationTicks": 116,
          "midi": 58,
          "name": "A#3",
          "ticks": 58560,
          "time": 40.99688,
          "velocity": 0.3464566929133858
        },
        {
          "duration": 0.08120966666666618,
          "durationTicks": 116,
          "midi": 70,
          "name": "A#4",
          "ticks": 58560,
          "time": 40.99688,
          "velocity": 0.5196850393700787
        },
        {
          "duration": 0.08120966666665907,
          "durationTicks": 116,
          "midi": 58,
          "name": "A#3",
          "ticks": 58800,
          "time": 41.1649,
          "velocity": 0.3464566929133858
        },
        {
          "duration": 0.08120966666665907,
          "durationTicks": 116,
          "midi": 70,
          "name": "A#4",
          "ticks": 58800,
          "time": 41.1649,
          "velocity": 0.5196850393700787
        },
        {
          "duration": 0.5852696666666617,
          "durationTicks": 836,
          "midi": 58,
          "name": "A#3",
          "ticks": 59040,
          "time": 41.33292,
          "velocity": 0.3464566929133858
        },
        {
          "duration": 0.5852696666666617,
          "durationTicks": 836,
          "midi": 70,
          "name": "A#4",
          "ticks": 59040,
          "time": 41.33292,
          "velocity": 0.5196850393700787
        },
        {
          "duration": 0.08120966666666618,
          "durationTicks": 116,
          "midi": 58,
          "name": "A#3",
          "ticks": 63360,
          "time": 44.35728,
          "velocity": 0.2677165354330709
        },
        {
          "duration": 0.08120966666666618,
          "durationTicks": 116,
          "midi": 70,
          "name": "A#4",
          "ticks": 63360,
          "time": 44.35728,
          "velocity": 0.2677165354330709
        },
        {
          "duration": 0.08120966666667329,
          "durationTicks": 116,
          "midi": 58,
          "name": "A#3",
          "ticks": 64080,
          "time": 44.86134,
          "velocity": 0.1889763779527559
        },
        {
          "duration": 0.08120966666667329,
          "durationTicks": 116,
          "midi": 70,
          "name": "A#4",
          "ticks": 64080,
          "time": 44.86134,
          "velocity": 0.2677165354330709
        },
        {
          "duration": 0.5012596666666695,
          "durationTicks": 716,
          "midi": 58,
          "name": "A#3",
          "ticks": 64800,
          "time": 45.3654,
          "velocity": 0.1889763779527559
        },
        {
          "duration": 0.5012596666666695,
          "durationTicks": 716,
          "midi": 70,
          "name": "A#4",
          "ticks": 64800,
          "time": 45.3654,
          "velocity": 0.2677165354330709
        },
        {
          "duration": 0.08120966666667329,
          "durationTicks": 116,
          "midi": 58,
          "name": "A#3",
          "ticks": 66240,
          "time": 46.37352,
          "velocity": 0.3464566929133858
        },
        {
          "duration": 0.08120966666667329,
          "durationTicks": 116,
          "midi": 70,
          "name": "A#4",
          "ticks": 66240,
          "time": 46.37352,
          "velocity": 0.5196850393700787
        },
        {
          "duration": 0.08120966666667329,
          "durationTicks": 116,
          "midi": 58,
          "name": "A#3",
          "ticks": 66480,
          "time": 46.54154,
          "velocity": 0.3464566929133858
        },
        {
          "duration": 0.08120966666667329,
          "durationTicks": 116,
          "midi": 70,
          "name": "A#4",
          "ticks": 66480,
          "time": 46.54154,
          "velocity": 0.5196850393700787
        },
        {
          "duration": 0.08120966666666618,
          "durationTicks": 116,
          "midi": 58,
          "name": "A#3",
          "ticks": 66720,
          "time": 46.70956,
          "velocity": 0.3464566929133858
        },
        {
          "duration": 0.08120966666666618,
          "durationTicks": 116,
          "midi": 70,
          "name": "A#4",
          "ticks": 66720,
          "time": 46.70956,
          "velocity": 0.5196850393700787
        },
        {
          "duration": 0.08120966666666618,
          "durationTicks": 116,
          "midi": 58,
          "name": "A#3",
          "ticks": 66960,
          "time": 46.87758,
          "velocity": 0.3464566929133858
        },
        {
          "duration": 0.08120966666666618,
          "durationTicks": 116,
          "midi": 70,
          "name": "A#4",
          "ticks": 66960,
          "time": 46.87758,
          "velocity": 0.5196850393700787
        },
        {
          "duration": 0.08120966666666618,
          "durationTicks": 116,
          "midi": 58,
          "name": "A#3",
          "ticks": 67200,
          "time": 47.0456,
          "velocity": 0.3464566929133858
        },
        {
          "duration": 0.08120966666666618,
          "durationTicks": 116,
          "midi": 70,
          "name": "A#4",
          "ticks": 67200,
          "time": 47.0456,
          "velocity": 0.5196850393700787
        },
        {
          "duration": 0.08120966666667329,
          "durationTicks": 116,
          "midi": 58,
          "name": "A#3",
          "ticks": 67440,
          "time": 47.21362,
          "velocity": 0.3464566929133858
        },
        {
          "duration": 0.08120966666667329,
          "durationTicks": 116,
          "midi": 70,
          "name": "A#4",
          "ticks": 67440,
          "time": 47.21362,
          "velocity": 0.5196850393700787
        },
        {
          "duration": 0.9213096666666729,
          "durationTicks": 1316,
          "midi": 58,
          "name": "A#3",
          "ticks": 67680,
          "time": 47.38164,
          "velocity": 0.3464566929133858
        },
        {
          "duration": 0.9213096666666729,
          "durationTicks": 1316,
          "midi": 70,
          "name": "A#4",
          "ticks": 67680,
          "time": 47.38164,
          "velocity": 0.5196850393700787
        },
        {
          "duration": 1.005319666666665,
          "durationTicks": 1436,
          "midi": 62,
          "name": "D4",
          "ticks": 73440,
          "time": 51.414120000000004,
          "velocity": 0.3464566929133858
        },
        {
          "duration": 1.005319666666665,
          "durationTicks": 1436,
          "midi": 70,
          "name": "A#4",
          "ticks": 73440,
          "time": 51.414120000000004,
          "velocity": 0.5196850393700787
        },
        {
          "duration": 0.08120966666666618,
          "durationTicks": 116,
          "midi": 62,
          "name": "D4",
          "ticks": 75120,
          "time": 52.59026,
          "velocity": 0.3464566929133858
        },
        {
          "duration": 0.08120966666666618,
          "durationTicks": 116,
          "midi": 70,
          "name": "A#4",
          "ticks": 75120,
          "time": 52.59026,
          "velocity": 0.5196850393700787
        },
        {
          "duration": 0.08120966666667329,
          "durationTicks": 116,
          "midi": 62,
          "name": "D4",
          "ticks": 75360,
          "time": 52.75828,
          "velocity": 0.3464566929133858
        },
        {
          "duration": 0.08120966666667329,
          "durationTicks": 116,
          "midi": 70,
          "name": "A#4",
          "ticks": 75360,
          "time": 52.75828,
          "velocity": 0.5196850393700787
        },
        {
          "duration": 0.08120966666667329,
          "durationTicks": 116,
          "midi": 62,
          "name": "D4",
          "ticks": 75600,
          "time": 52.9263,
          "velocity": 0.3464566929133858
        },
        {
          "duration": 0.08120966666667329,
          "durationTicks": 116,
          "midi": 70,
          "name": "A#4",
          "ticks": 75600,
          "time": 52.9263,
          "velocity": 0.5196850393700787
        },
        {
          "duration": 0.08120966666666618,
          "durationTicks": 116,
          "midi": 62,
          "name": "D4",
          "ticks": 75840,
          "time": 53.09432,
          "velocity": 0.3464566929133858
        },
        {
          "duration": 0.08120966666666618,
          "durationTicks": 116,
          "midi": 70,
          "name": "A#4",
          "ticks": 75840,
          "time": 53.09432,
          "velocity": 0.5196850393700787
        },
        {
          "duration": 0.08120966666666618,
          "durationTicks": 116,
          "midi": 62,
          "name": "D4",
          "ticks": 76080,
          "time": 53.26234,
          "velocity": 0.3464566929133858
        },
        {
          "duration": 0.08120966666666618,
          "durationTicks": 116,
          "midi": 70,
          "name": "A#4",
          "ticks": 76080,
          "time": 53.26234,
          "velocity": 0.5196850393700787
        },
        {
          "duration": 0.5852696666666688,
          "durationTicks": 836,
          "midi": 58,
          "name": "A#3",
          "ticks": 76320,
          "time": 53.43036,
          "velocity": 0.3464566929133858
        },
        {
          "duration": 0.5852696666666688,
          "durationTicks": 836,
          "midi": 70,
          "name": "A#4",
          "ticks": 76320,
          "time": 53.43036,
          "velocity": 0.5196850393700787
        },
        {
          "duration": 0.08120966666666618,
          "durationTicks": 116,
          "midi": 58,
          "name": "A#3",
          "ticks": 77280,
          "time": 54.10244,
          "velocity": 0.3464566929133858
        },
        {
          "duration": 0.08120966666666618,
          "durationTicks": 116,
          "midi": 70,
          "name": "A#4",
          "ticks": 77280,
          "time": 54.10244,
          "velocity": 0.5196850393700787
        },
        {
          "duration": 0.08120966666667329,
          "durationTicks": 116,
          "midi": 58,
          "name": "A#3",
          "ticks": 77520,
          "time": 54.27046,
          "velocity": 0.3464566929133858
        },
        {
          "duration": 0.08120966666667329,
          "durationTicks": 116,
          "midi": 70,
          "name": "A#4",
          "ticks": 77520,
          "time": 54.27046,
          "velocity": 0.5196850393700787
        },
        {
          "duration": 0.4172496666666703,
          "durationTicks": 596,
          "midi": 65,
          "name": "F4",
          "ticks": 77760,
          "time": 54.43848,
          "velocity": 0.5039370078740157
        },
        {
          "duration": 0.33323966666667104,
          "durationTicks": 476,
          "midi": 65,
          "name": "F4",
          "ticks": 78480,
          "time": 54.94254,
          "velocity": 0.5039370078740157
        },
        {
          "duration": 1.005319666666665,
          "durationTicks": 1436,
          "midi": 62,
          "name": "D4",
          "ticks": 79200,
          "time": 55.446600000000004,
          "velocity": 0.3464566929133858
        },
        {
          "duration": 1.005319666666665,
          "durationTicks": 1436,
          "midi": 70,
          "name": "A#4",
          "ticks": 79200,
          "time": 55.446600000000004,
          "velocity": 0.5196850393700787
        },
        {
          "duration": 0.08120966666667329,
          "durationTicks": 116,
          "midi": 62,
          "name": "D4",
          "ticks": 80880,
          "time": 56.62274,
          "velocity": 0.3464566929133858
        },
        {
          "duration": 0.08120966666667329,
          "durationTicks": 116,
          "midi": 70,
          "name": "A#4",
          "ticks": 80880,
          "time": 56.62274,
          "velocity": 0.5196850393700787
        },
        {
          "duration": 0.08120966666667329,
          "durationTicks": 116,
          "midi": 62,
          "name": "D4",
          "ticks": 81120,
          "time": 56.79076,
          "velocity": 0.3464566929133858
        },
        {
          "duration": 0.08120966666667329,
          "durationTicks": 116,
          "midi": 70,
          "name": "A#4",
          "ticks": 81120,
          "time": 56.79076,
          "velocity": 0.5196850393700787
        },
        {
          "duration": 0.08120966666666618,
          "durationTicks": 116,
          "midi": 62,
          "name": "D4",
          "ticks": 81360,
          "time": 56.958780000000004,
          "velocity": 0.3464566929133858
        },
        {
          "duration": 0.08120966666666618,
          "durationTicks": 116,
          "midi": 70,
          "name": "A#4",
          "ticks": 81360,
          "time": 56.958780000000004,
          "velocity": 0.5196850393700787
        },
        {
          "duration": 0.08120966666666618,
          "durationTicks": 116,
          "midi": 62,
          "name": "D4",
          "ticks": 81600,
          "time": 57.1268,
          "velocity": 0.3464566929133858
        },
        {
          "duration": 0.08120966666666618,
          "durationTicks": 116,
          "midi": 70,
          "name": "A#4",
          "ticks": 81600,
          "time": 57.1268,
          "velocity": 0.5196850393700787
        },
        {
          "duration": 0.08120966666666618,
          "durationTicks": 116,
          "midi": 62,
          "name": "D4",
          "ticks": 81840,
          "time": 57.29482,
          "velocity": 0.3464566929133858
        },
        {
          "duration": 0.08120966666666618,
          "durationTicks": 116,
          "midi": 70,
          "name": "A#4",
          "ticks": 81840,
          "time": 57.29482,
          "velocity": 0.5196850393700787
        },
        {
          "duration": 0.5012596666666695,
          "durationTicks": 716,
          "midi": 58,
          "name": "A#3",
          "ticks": 82080,
          "time": 57.46284,
          "velocity": 0.3464566929133858
        },
        {
          "duration": 0.5012596666666695,
          "durationTicks": 716,
          "midi": 70,
          "name": "A#4",
          "ticks": 82080,
          "time": 57.46284,
          "velocity": 0.5196850393700787
        },
        {
          "duration": 0.08120966666666618,
          "durationTicks": 116,
          "midi": 58,
          "name": "A#3",
          "ticks": 83040,
          "time": 58.13492,
          "velocity": 0.3464566929133858
        },
        {
          "duration": 0.08120966666666618,
          "durationTicks": 116,
          "midi": 70,
          "name": "A#4",
          "ticks": 83040,
          "time": 58.13492,
          "velocity": 0.5196850393700787
        },
        {
          "duration": 0.08120966666667329,
          "durationTicks": 116,
          "midi": 58,
          "name": "A#3",
          "ticks": 83280,
          "time": 58.30294,
          "velocity": 0.3464566929133858
        },
        {
          "duration": 0.08120966666667329,
          "durationTicks": 116,
          "midi": 70,
          "name": "A#4",
          "ticks": 83280,
          "time": 58.30294,
          "velocity": 0.5196850393700787
        },
        {
          "duration": 0.33323966666667104,
          "durationTicks": 476,
          "midi": 65,
          "name": "F4",
          "ticks": 83520,
          "time": 58.47096,
          "velocity": 0.5039370078740157
        },
        {
          "duration": 0.33323966666667104,
          "durationTicks": 476,
          "midi": 65,
          "name": "F4",
          "ticks": 84240,
          "time": 58.97502,
          "velocity": 0.5039370078740157
        },
        {
          "duration": 0.1092129999999969,
          "durationTicks": 156,
          "midi": 58,
          "name": "A#3",
          "ticks": 84960,
          "time": 59.47908,
          "velocity": 0.3464566929133858
        },
        {
          "duration": 0.1092129999999969,
          "durationTicks": 156,
          "midi": 65,
          "name": "F4",
          "ticks": 84960,
          "time": 59.47908,
          "velocity": 0.3464566929133858
        },
        {
          "duration": 0.1092129999999969,
          "durationTicks": 156,
          "midi": 58,
          "name": "A#3",
          "ticks": 91440,
          "time": 64.01562,
          "velocity": 0.1889763779527559
        },
        {
          "duration": 0.1092129999999969,
          "durationTicks": 156,
          "midi": 70,
          "name": "A#4",
          "ticks": 91440,
          "time": 64.01562,
          "velocity": 0.28346456692913385
        },
        {
          "duration": 0.1092129999999969,
          "durationTicks": 156,
          "midi": 58,
          "name": "A#3",
          "ticks": 92160,
          "time": 64.51968,
          "velocity": 0.1889763779527559
        },
        {
          "duration": 0.1092129999999969,
          "durationTicks": 156,
          "midi": 70,
          "name": "A#4",
          "ticks": 92160,
          "time": 64.51968,
          "velocity": 0.28346456692913385
        },
        {
          "duration": 0.08120966666666618,
          "durationTicks": 116,
          "midi": 65,
          "name": "F4",
          "ticks": 184560,
          "time": 129.20738,
          "velocity": 0.4330708661417323
        },
        {
          "duration": 0.08120966666666618,
          "durationTicks": 116,
          "midi": 72,
          "name": "C5",
          "ticks": 184560,
          "time": 129.20738,
          "velocity": 0.4330708661417323
        },
        {
          "duration": 0.08120966666666618,
          "durationTicks": 116,
          "midi": 65,
          "name": "F4",
          "ticks": 184800,
          "time": 129.3754,
          "velocity": 0.4409448818897638
        },
        {
          "duration": 0.08120966666666618,
          "durationTicks": 116,
          "midi": 72,
          "name": "C5",
          "ticks": 184800,
          "time": 129.3754,
          "velocity": 0.4409448818897638
        },
        {
          "duration": 0.08120966666666618,
          "durationTicks": 116,
          "midi": 65,
          "name": "F4",
          "ticks": 185040,
          "time": 129.54342,
          "velocity": 0.44881889763779526
        },
        {
          "duration": 0.08120966666666618,
          "durationTicks": 116,
          "midi": 72,
          "name": "C5",
          "ticks": 185040,
          "time": 129.54342,
          "velocity": 0.44881889763779526
        },
        {
          "duration": 0.08120966666666618,
          "durationTicks": 116,
          "midi": 65,
          "name": "F4",
          "ticks": 185280,
          "time": 129.71144,
          "velocity": 0.4566929133858268
        },
        {
          "duration": 0.08120966666666618,
          "durationTicks": 116,
          "midi": 72,
          "name": "C5",
          "ticks": 185280,
          "time": 129.71144,
          "velocity": 0.4566929133858268
        },
        {
          "duration": 0.08120966666666618,
          "durationTicks": 116,
          "midi": 65,
          "name": "F4",
          "ticks": 185520,
          "time": 129.87946,
          "velocity": 0.4645669291338583
        },
        {
          "duration": 0.08120966666666618,
          "durationTicks": 116,
          "midi": 72,
          "name": "C5",
          "ticks": 185520,
          "time": 129.87946,
          "velocity": 0.4645669291338583
        },
        {
          "duration": 0.09055153333332555,
          "durationTicks": 116,
          "midi": 65,
          "name": "F4",
          "ticks": 185760,
          "time": 130.04748,
          "velocity": 0.47244094488188976
        },
        {
          "duration": 0.09055153333332555,
          "durationTicks": 116,
          "midi": 72,
          "name": "C5",
          "ticks": 185760,
          "time": 130.04748,
          "velocity": 0.47244094488188976
        },
        {
          "duration": 0.09055153333335397,
          "durationTicks": 116,
          "midi": 65,
          "name": "F4",
          "ticks": 186000,
          "time": 130.234828,
          "velocity": 0.48031496062992124
        },
        {
          "duration": 0.09055153333335397,
          "durationTicks": 116,
          "midi": 72,
          "name": "C5",
          "ticks": 186000,
          "time": 130.234828,
          "velocity": 0.48031496062992124
        },
        {
          "duration": 0.09055153333332555,
          "durationTicks": 116,
          "midi": 65,
          "name": "F4",
          "ticks": 186240,
          "time": 130.422176,
          "velocity": 0.4881889763779528
        },
        {
          "duration": 0.09055153333332555,
          "durationTicks": 116,
          "midi": 72,
          "name": "C5",
          "ticks": 186240,
          "time": 130.422176,
          "velocity": 0.4881889763779528
        },
        {
          "duration": 0.10262592500001233,
          "durationTicks": 116,
          "midi": 65,
          "name": "F4",
          "ticks": 186480,
          "time": 130.609524,
          "velocity": 0.49606299212598426
        },
        {
          "duration": 0.10262592500001233,
          "durationTicks": 116,
          "midi": 72,
          "name": "C5",
          "ticks": 186480,
          "time": 130.609524,
          "velocity": 0.49606299212598426
        },
        {
          "duration": 0.10262592499998391,
          "durationTicks": 116,
          "midi": 65,
          "name": "F4",
          "ticks": 186720,
          "time": 130.8218535,
          "velocity": 0.5039370078740157
        },
        {
          "duration": 0.10262592499998391,
          "durationTicks": 116,
          "midi": 72,
          "name": "C5",
          "ticks": 186720,
          "time": 130.8218535,
          "velocity": 0.5039370078740157
        },
        {
          "duration": 0.10262592500001233,
          "durationTicks": 116,
          "midi": 65,
          "name": "F4",
          "ticks": 186960,
          "time": 131.03418299999998,
          "velocity": 0.5118110236220472
        },
        {
          "duration": 0.10262592500001233,
          "durationTicks": 116,
          "midi": 72,
          "name": "C5",
          "ticks": 186960,
          "time": 131.03418299999998,
          "velocity": 0.5118110236220472
        },
        {
          "duration": 0.680717808333327,
          "durationTicks": 956,
          "midi": 65,
          "name": "F4",
          "ticks": 187200,
          "time": 131.2465125,
          "velocity": 0.5196850393700787
        },
        {
          "duration": 0.680717808333327,
          "durationTicks": 956,
          "midi": 72,
          "name": "C5",
          "ticks": 187200,
          "time": 131.2465125,
          "velocity": 0.5196850393700787
        },
        {
          "duration": 0.08120966666666618,
          "durationTicks": 116,
          "midi": 58,
          "name": "A#3",
          "ticks": 226080,
          "time": 167.13212012500003,
          "velocity": 0.3464566929133858
        },
        {
          "duration": 0.08120966666666618,
          "durationTicks": 116,
          "midi": 58,
          "name": "A#3",
          "ticks": 226320,
          "time": 167.300140125,
          "velocity": 0.3464566929133858
        },
        {
          "duration": 0.08120966666666618,
          "durationTicks": 116,
          "midi": 58,
          "name": "A#3",
          "ticks": 226560,
          "time": 167.46816012500003,
          "velocity": 0.3464566929133858
        },
        {
          "duration": 0.08120966666666618,
          "durationTicks": 116,
          "midi": 58,
          "name": "A#3",
          "ticks": 226800,
          "time": 167.636180125,
          "velocity": 0.3464566929133858
        },
        {
          "duration": 0.08120966666666618,
          "durationTicks": 116,
          "midi": 58,
          "name": "A#3",
          "ticks": 227040,
          "time": 167.80420012500002,
          "velocity": 0.3464566929133858
        },
        {
          "duration": 0.08120966666666618,
          "durationTicks": 116,
          "midi": 58,
          "name": "A#3",
          "ticks": 227280,
          "time": 167.972220125,
          "velocity": 0.3464566929133858
        },
        {
          "duration": 0.08120966666666618,
          "durationTicks": 116,
          "midi": 58,
          "name": "A#3",
          "ticks": 227520,
          "time": 168.14024012500002,
          "velocity": 0.3464566929133858
        },
        {
          "duration": 0.08120966666666618,
          "durationTicks": 116,
          "midi": 58,
          "name": "A#3",
          "ticks": 227760,
          "time": 168.308260125,
          "velocity": 0.3464566929133858
        },
        {
          "duration": 0.08120966666666618,
          "durationTicks": 116,
          "midi": 58,
          "name": "A#3",
          "ticks": 228000,
          "time": 168.47628012500002,
          "velocity": 0.3464566929133858
        },
        {
          "duration": 0.08120966666666618,
          "durationTicks": 116,
          "midi": 58,
          "name": "A#3",
          "ticks": 228240,
          "time": 168.64430012500003,
          "velocity": 0.3464566929133858
        },
        {
          "duration": 0.08120966666666618,
          "durationTicks": 116,
          "midi": 58,
          "name": "A#3",
          "ticks": 228480,
          "time": 168.812320125,
          "velocity": 0.3464566929133858
        },
        {
          "duration": 0.08120966666666618,
          "durationTicks": 116,
          "midi": 58,
          "name": "A#3",
          "ticks": 228720,
          "time": 168.98034012500003,
          "velocity": 0.3464566929133858
        },
        {
          "duration": 0.08120966666666618,
          "durationTicks": 116,
          "midi": 65,
          "name": "F4",
          "ticks": 228960,
          "time": 169.148360125,
          "velocity": 0.3464566929133858
        },
        {
          "duration": 0.08120966666666618,
          "durationTicks": 116,
          "midi": 65,
          "name": "F4",
          "ticks": 229200,
          "time": 169.31638012500002,
          "velocity": 0.3464566929133858
        },
        {
          "duration": 0.08120966666666618,
          "durationTicks": 116,
          "midi": 65,
          "name": "F4",
          "ticks": 229440,
          "time": 169.484400125,
          "velocity": 0.3464566929133858
        },
        {
          "duration": 0.08120966666666618,
          "durationTicks": 116,
          "midi": 65,
          "name": "F4",
          "ticks": 229680,
          "time": 169.65242012500002,
          "velocity": 0.3464566929133858
        },
        {
          "duration": 0.08120966666666618,
          "durationTicks": 116,
          "midi": 65,
          "name": "F4",
          "ticks": 229920,
          "time": 169.820440125,
          "velocity": 0.3464566929133858
        },
        {
          "duration": 0.08120966666666618,
          "durationTicks": 116,
          "midi": 65,
          "name": "F4",
          "ticks": 230160,
          "time": 169.98846012500002,
          "velocity": 0.3464566929133858
        },
        {
          "duration": 0.08120966666666618,
          "durationTicks": 116,
          "midi": 65,
          "name": "F4",
          "ticks": 230400,
          "time": 170.15648012500003,
          "velocity": 0.3464566929133858
        },
        {
          "duration": 0.08120966666666618,
          "durationTicks": 116,
          "midi": 65,
          "name": "F4",
          "ticks": 230640,
          "time": 170.32450012500001,
          "velocity": 0.3464566929133858
        },
        {
          "duration": 0.08120966666666618,
          "durationTicks": 116,
          "midi": 65,
          "name": "F4",
          "ticks": 230880,
          "time": 170.49252012500003,
          "velocity": 0.3464566929133858
        },
        {
          "duration": 0.08120966666666618,
          "durationTicks": 116,
          "midi": 65,
          "name": "F4",
          "ticks": 231120,
          "time": 170.660540125,
          "velocity": 0.3464566929133858
        },
        {
          "duration": 0.08120966666666618,
          "durationTicks": 116,
          "midi": 65,
          "name": "F4",
          "ticks": 231360,
          "time": 170.82856012500002,
          "velocity": 0.3464566929133858
        },
        {
          "duration": 0.08120966666666618,
          "durationTicks": 116,
          "midi": 65,
          "name": "F4",
          "ticks": 231600,
          "time": 170.996580125,
          "velocity": 0.3464566929133858
        },
        {
          "duration": 0.08120966666666618,
          "durationTicks": 116,
          "midi": 58,
          "name": "A#3",
          "ticks": 231840,
          "time": 171.16460012500002,
          "velocity": 0.3464566929133858
        },
        {
          "duration": 0.08120966666666618,
          "durationTicks": 116,
          "midi": 70,
          "name": "A#4",
          "ticks": 231840,
          "time": 171.16460012500002,
          "velocity": 0.3464566929133858
        },
        {
          "duration": 0.08120966666666618,
          "durationTicks": 116,
          "midi": 58,
          "name": "A#3",
          "ticks": 232080,
          "time": 171.332620125,
          "velocity": 0.3464566929133858
        },
        {
          "duration": 0.08120966666666618,
          "durationTicks": 116,
          "midi": 70,
          "name": "A#4",
          "ticks": 232080,
          "time": 171.332620125,
          "velocity": 0.3464566929133858
        },
        {
          "duration": 0.08120966666666618,
          "durationTicks": 116,
          "midi": 58,
          "name": "A#3",
          "ticks": 232320,
          "time": 171.50064012500002,
          "velocity": 0.3464566929133858
        },
        {
          "duration": 0.08120966666666618,
          "durationTicks": 116,
          "midi": 70,
          "name": "A#4",
          "ticks": 232320,
          "time": 171.50064012500002,
          "velocity": 0.3464566929133858
        },
        {
          "duration": 0.0812096666666946,
          "durationTicks": 116,
          "midi": 58,
          "name": "A#3",
          "ticks": 232560,
          "time": 171.668660125,
          "velocity": 0.3464566929133858
        },
        {
          "duration": 0.0812096666666946,
          "durationTicks": 116,
          "midi": 70,
          "name": "A#4",
          "ticks": 232560,
          "time": 171.668660125,
          "velocity": 0.3464566929133858
        },
        {
          "duration": 0.08120966666666618,
          "durationTicks": 116,
          "midi": 58,
          "name": "A#3",
          "ticks": 232800,
          "time": 171.83668012500002,
          "velocity": 0.3464566929133858
        },
        {
          "duration": 0.08120966666666618,
          "durationTicks": 116,
          "midi": 70,
          "name": "A#4",
          "ticks": 232800,
          "time": 171.83668012500002,
          "velocity": 0.3464566929133858
        },
        {
          "duration": 0.08120966666666618,
          "durationTicks": 116,
          "midi": 58,
          "name": "A#3",
          "ticks": 233040,
          "time": 172.00470012500003,
          "velocity": 0.3464566929133858
        },
        {
          "duration": 0.08120966666666618,
          "durationTicks": 116,
          "midi": 70,
          "name": "A#4",
          "ticks": 233040,
          "time": 172.00470012500003,
          "velocity": 0.3464566929133858
        },
        {
          "duration": 0.08120966666666618,
          "durationTicks": 116,
          "midi": 58,
          "name": "A#3",
          "ticks": 233280,
          "time": 172.172720125,
          "velocity": 0.3464566929133858
        },
        {
          "duration": 0.08120966666666618,
          "durationTicks": 116,
          "midi": 70,
          "name": "A#4",
          "ticks": 233280,
          "time": 172.172720125,
          "velocity": 0.3464566929133858
        },
        {
          "duration": 0.08120966666666618,
          "durationTicks": 116,
          "midi": 58,
          "name": "A#3",
          "ticks": 233520,
          "time": 172.34074012500002,
          "velocity": 0.3464566929133858
        },
        {
          "duration": 0.08120966666666618,
          "durationTicks": 116,
          "midi": 70,
          "name": "A#4",
          "ticks": 233520,
          "time": 172.34074012500002,
          "velocity": 0.3464566929133858
        },
        {
          "duration": 0.08120966666666618,
          "durationTicks": 116,
          "midi": 58,
          "name": "A#3",
          "ticks": 233760,
          "time": 172.508760125,
          "velocity": 0.3464566929133858
        },
        {
          "duration": 0.08120966666666618,
          "durationTicks": 116,
          "midi": 70,
          "name": "A#4",
          "ticks": 233760,
          "time": 172.508760125,
          "velocity": 0.3464566929133858
        },
        {
          "duration": 0.08120966666666618,
          "durationTicks": 116,
          "midi": 58,
          "name": "A#3",
          "ticks": 234000,
          "time": 172.67678012500002,
          "velocity": 0.3464566929133858
        },
        {
          "duration": 0.08120966666666618,
          "durationTicks": 116,
          "midi": 70,
          "name": "A#4",
          "ticks": 234000,
          "time": 172.67678012500002,
          "velocity": 0.3464566929133858
        },
        {
          "duration": 0.08120966666666618,
          "durationTicks": 116,
          "midi": 58,
          "name": "A#3",
          "ticks": 234240,
          "time": 172.844800125,
          "velocity": 0.3464566929133858
        },
        {
          "duration": 0.08120966666666618,
          "durationTicks": 116,
          "midi": 70,
          "name": "A#4",
          "ticks": 234240,
          "time": 172.844800125,
          "velocity": 0.3464566929133858
        },
        {
          "duration": 0.08120966666666618,
          "durationTicks": 116,
          "midi": 58,
          "name": "A#3",
          "ticks": 234480,
          "time": 173.01282012500002,
          "velocity": 0.3464566929133858
        },
        {
          "duration": 0.08120966666666618,
          "durationTicks": 116,
          "midi": 70,
          "name": "A#4",
          "ticks": 234480,
          "time": 173.01282012500002,
          "velocity": 0.3464566929133858
        },
        {
          "duration": 0.08120966666666618,
          "durationTicks": 116,
          "midi": 58,
          "name": "A#3",
          "ticks": 234720,
          "time": 173.180840125,
          "velocity": 0.2283464566929134
        },
        {
          "duration": 0.08120966666666618,
          "durationTicks": 116,
          "midi": 70,
          "name": "A#4",
          "ticks": 234720,
          "time": 173.180840125,
          "velocity": 0.2992125984251969
        },
        {
          "duration": 0.08120966666666618,
          "durationTicks": 116,
          "midi": 58,
          "name": "A#3",
          "ticks": 235440,
          "time": 173.684900125,
          "velocity": 0.2283464566929134
        },
        {
          "duration": 0.08120966666666618,
          "durationTicks": 116,
          "midi": 70,
          "name": "A#4",
          "ticks": 235440,
          "time": 173.684900125,
          "velocity": 0.2992125984251969
        },
        {
          "duration": 0.6692796666666538,
          "durationTicks": 956,
          "midi": 58,
          "name": "A#3",
          "ticks": 236160,
          "time": 174.18896012500002,
          "velocity": 0.15748031496062992
        },
        {
          "duration": 0.6692796666666538,
          "durationTicks": 956,
          "midi": 70,
          "name": "A#4",
          "ticks": 236160,
          "time": 174.18896012500002,
          "velocity": 0.15748031496062992
        },
        {
          "duration": 4.465768491666665,
          "durationTicks": 6236,
          "midi": 65,
          "name": "F4",
          "ticks": 308160,
          "time": 228.78060112499998,
          "velocity": 0.1889763779527559
        },
        {
          "duration": 4.1220274916666995,
          "durationTicks": 5756,
          "midi": 58,
          "name": "A#3",
          "ticks": 355680,
          "time": 263.248427125,
          "velocity": 0.3464566929133858
        },
        {
          "duration": 4.1220274916666995,
          "durationTicks": 5756,
          "midi": 70,
          "name": "A#4",
          "ticks": 355680,
          "time": 263.248427125,
          "velocity": 0.3464566929133858
        },
        {
          "duration": 0.16900599166666552,
          "durationTicks": 236,
          "midi": 65,
          "name": "F4",
          "ticks": 361440,
          "time": 267.37331912499997,
          "velocity": 0.2677165354330709
        },
        {
          "duration": 2.059581491666677,
          "durationTicks": 2876,
          "midi": 65,
          "name": "F4",
          "ticks": 364320,
          "time": 269.435765125,
          "velocity": 0.1889763779527559
        },
        {
          "duration": 0.08307074166668826,
          "durationTicks": 116,
          "midi": 65,
          "name": "F4",
          "ticks": 398640,
          "time": 294.01324662499997,
          "velocity": 0.25984251968503935
        },
        {
          "duration": 0.16900599166666552,
          "durationTicks": 236,
          "midi": 65,
          "name": "F4",
          "ticks": 398880,
          "time": 294.185117125,
          "velocity": 0.25984251968503935
        },
        {
          "duration": 0.08307074166663142,
          "durationTicks": 116,
          "midi": 65,
          "name": "F4",
          "ticks": 399360,
          "time": 294.528858125,
          "velocity": 0.25984251968503935
        },
        {
          "duration": 0.16900599166666552,
          "durationTicks": 236,
          "midi": 65,
          "name": "F4",
          "ticks": 399600,
          "time": 294.700728625,
          "velocity": 0.25984251968503935
        },
        {
          "duration": 0.08307074166668826,
          "durationTicks": 116,
          "midi": 65,
          "name": "F4",
          "ticks": 400080,
          "time": 295.044469625,
          "velocity": 0.25984251968503935
        },
        {
          "duration": 0.8564879916666541,
          "durationTicks": 1196,
          "midi": 65,
          "name": "F4",
          "ticks": 400320,
          "time": 295.216340125,
          "velocity": 0.25984251968503935
        },
        {
          "duration": 0.8564879916666541,
          "durationTicks": 1196,
          "midi": 72,
          "name": "C5",
          "ticks": 400320,
          "time": 295.216340125,
          "velocity": 0.33858267716535434
        },
        {
          "duration": 0.16900599166666552,
          "durationTicks": 236,
          "midi": 70,
          "name": "A#4",
          "ticks": 401520,
          "time": 296.075692625,
          "velocity": 0.25984251968503935
        },
        {
          "duration": 0.16900599166666552,
          "durationTicks": 236,
          "midi": 74,
          "name": "D5",
          "ticks": 401520,
          "time": 296.075692625,
          "velocity": 0.33858267716535434
        },
        {
          "duration": 0.16900599166666552,
          "durationTicks": 236,
          "midi": 72,
          "name": "C5",
          "ticks": 401760,
          "time": 296.247563125,
          "velocity": 0.31496062992125984
        },
        {
          "duration": 0.16900599166666552,
          "durationTicks": 236,
          "midi": 65,
          "name": "F4",
          "ticks": 402480,
          "time": 296.763174625,
          "velocity": 0.23622047244094488
        },
        {
          "duration": 0.22629615833329808,
          "durationTicks": 316,
          "midi": 62,
          "name": "D4",
          "ticks": 403200,
          "time": 297.278786125,
          "velocity": 0.2047244094488189
        },
        {
          "duration": 0.22629615833329808,
          "durationTicks": 316,
          "midi": 65,
          "name": "F4",
          "ticks": 403200,
          "time": 297.278786125,
          "velocity": 0.2047244094488189
        },
        {
          "duration": 3.236312866666708,
          "durationTicks": 4436,
          "midi": 58,
          "name": "A#3",
          "ticks": 411840,
          "time": 303.46612412499996,
          "velocity": 0.4330708661417323
        },
        {
          "duration": 3.236312866666708,
          "durationTicks": 4436,
          "midi": 70,
          "name": "A#4",
          "ticks": 411840,
          "time": 303.46612412499996,
          "velocity": 0.4330708661417323
        },
        {
          "duration": 0.10262592499998391,
          "durationTicks": 116,
          "midi": 58,
          "name": "A#3",
          "ticks": 416400,
          "time": 306.80528362499996,
          "velocity": 0.49606299212598426
        },
        {
          "duration": 0.10262592499998391,
          "durationTicks": 116,
          "midi": 70,
          "name": "A#4",
          "ticks": 416400,
          "time": 306.80528362499996,
          "velocity": 0.5826771653543307
        },
        {
          "duration": 0.1099568833333251,
          "durationTicks": 116,
          "midi": 58,
          "name": "A#3",
          "ticks": 416640,
          "time": 307.01761312499997,
          "velocity": 0.49606299212598426
        },
        {
          "duration": 0.1099568833333251,
          "durationTicks": 116,
          "midi": 70,
          "name": "A#4",
          "ticks": 416640,
          "time": 307.01761312499997,
          "velocity": 0.5826771653543307
        },
        {
          "duration": 0.11841570000001411,
          "durationTicks": 116,
          "midi": 58,
          "name": "A#3",
          "ticks": 416880,
          "time": 307.245110125,
          "velocity": 0.49606299212598426
        },
        {
          "duration": 0.11841570000001411,
          "durationTicks": 116,
          "midi": 70,
          "name": "A#4",
          "ticks": 416880,
          "time": 307.245110125,
          "velocity": 0.5905511811023622
        },
        {
          "duration": 0.128284641666653,
          "durationTicks": 116,
          "midi": 58,
          "name": "A#3",
          "ticks": 417120,
          "time": 307.490108125,
          "velocity": 0.5039370078740157
        },
        {
          "duration": 0.128284641666653,
          "durationTicks": 116,
          "midi": 70,
          "name": "A#4",
          "ticks": 417120,
          "time": 307.490108125,
          "velocity": 0.5984251968503937
        },
        {
          "duration": 0.15394408333332876,
          "durationTicks": 116,
          "midi": 58,
          "name": "A#3",
          "ticks": 417360,
          "time": 307.755524625,
          "velocity": 0.5039370078740157
        },
        {
          "duration": 0.15394408333332876,
          "durationTicks": 116,
          "midi": 70,
          "name": "A#4",
          "ticks": 417360,
          "time": 307.755524625,
          "velocity": 0.5984251968503937
        },
        {
          "duration": 0.902472199999977,
          "durationTicks": 476,
          "midi": 58,
          "name": "A#3",
          "ticks": 417600,
          "time": 308.07402962500004,
          "velocity": 0.5118110236220472
        },
        {
          "duration": 0.902472199999977,
          "durationTicks": 476,
          "midi": 70,
          "name": "A#4",
          "ticks": 417600,
          "time": 308.07402962500004,
          "velocity": 0.6062992125984252
        },
        {
          "duration": 0.08055547499998283,
          "durationTicks": 116,
          "midi": 58,
          "name": "A#3",
          "ticks": 514080,
          "time": 383.6990776250001,
          "velocity": 0.3464566929133858
        },
        {
          "duration": 0.08055547499998283,
          "durationTicks": 116,
          "midi": 70,
          "name": "A#4",
          "ticks": 514080,
          "time": 383.6990776250001,
          "velocity": 0.5196850393700787
        },
        {
          "duration": 0.08055547500003968,
          "durationTicks": 116,
          "midi": 58,
          "name": "A#3",
          "ticks": 514320,
          "time": 383.86574412500005,
          "velocity": 0.3464566929133858
        },
        {
          "duration": 0.08055547500003968,
          "durationTicks": 116,
          "midi": 70,
          "name": "A#4",
          "ticks": 514320,
          "time": 383.86574412500005,
          "velocity": 0.5196850393700787
        },
        {
          "duration": 0.08055547499998283,
          "durationTicks": 116,
          "midi": 58,
          "name": "A#3",
          "ticks": 514560,
          "time": 384.03241062500007,
          "velocity": 0.3464566929133858
        },
        {
          "duration": 0.08055547499998283,
          "durationTicks": 116,
          "midi": 70,
          "name": "A#4",
          "ticks": 514560,
          "time": 384.03241062500007,
          "velocity": 0.5196850393700787
        },
        {
          "duration": 0.08055547499998283,
          "durationTicks": 116,
          "midi": 58,
          "name": "A#3",
          "ticks": 514800,
          "time": 384.1990771250001,
          "velocity": 0.3464566929133858
        },
        {
          "duration": 0.08055547499998283,
          "durationTicks": 116,
          "midi": 70,
          "name": "A#4",
          "ticks": 514800,
          "time": 384.1990771250001,
          "velocity": 0.5196850393700787
        },
        {
          "duration": 0.08055547499998283,
          "durationTicks": 116,
          "midi": 58,
          "name": "A#3",
          "ticks": 515040,
          "time": 384.36574362500005,
          "velocity": 0.3464566929133858
        },
        {
          "duration": 0.08055547499998283,
          "durationTicks": 116,
          "midi": 70,
          "name": "A#4",
          "ticks": 515040,
          "time": 384.36574362500005,
          "velocity": 0.5196850393700787
        },
        {
          "duration": 0.08055547499998283,
          "durationTicks": 116,
          "midi": 58,
          "name": "A#3",
          "ticks": 515280,
          "time": 384.53241012500007,
          "velocity": 0.3464566929133858
        },
        {
          "duration": 0.08055547499998283,
          "durationTicks": 116,
          "midi": 70,
          "name": "A#4",
          "ticks": 515280,
          "time": 384.53241012500007,
          "velocity": 0.5196850393700787
        },
        {
          "duration": 0.5805549749999841,
          "durationTicks": 836,
          "midi": 58,
          "name": "A#3",
          "ticks": 515520,
          "time": 384.6990766250001,
          "velocity": 0.3464566929133858
        },
        {
          "duration": 0.5805549749999841,
          "durationTicks": 836,
          "midi": 70,
          "name": "A#4",
          "ticks": 515520,
          "time": 384.6990766250001,
          "velocity": 0.5196850393700787
        },
        {
          "duration": 0.08055547500003968,
          "durationTicks": 116,
          "midi": 58,
          "name": "A#3",
          "ticks": 519840,
          "time": 387.69907362500004,
          "velocity": 0.2677165354330709
        },
        {
          "duration": 0.08055547500003968,
          "durationTicks": 116,
          "midi": 70,
          "name": "A#4",
          "ticks": 519840,
          "time": 387.69907362500004,
          "velocity": 0.2677165354330709
        },
        {
          "duration": 0.08055547500003968,
          "durationTicks": 116,
          "midi": 58,
          "name": "A#3",
          "ticks": 520560,
          "time": 388.19907312500004,
          "velocity": 0.1889763779527559
        },
        {
          "duration": 0.08055547500003968,
          "durationTicks": 116,
          "midi": 70,
          "name": "A#4",
          "ticks": 520560,
          "time": 388.19907312500004,
          "velocity": 0.2677165354330709
        },
        {
          "duration": 0.49722172500003126,
          "durationTicks": 716,
          "midi": 58,
          "name": "A#3",
          "ticks": 521280,
          "time": 388.69907262500004,
          "velocity": 0.1889763779527559
        },
        {
          "duration": 0.49722172500003126,
          "durationTicks": 716,
          "midi": 70,
          "name": "A#4",
          "ticks": 521280,
          "time": 388.69907262500004,
          "velocity": 0.2677165354330709
        },
        {
          "duration": 0.08055547500003968,
          "durationTicks": 116,
          "midi": 58,
          "name": "A#3",
          "ticks": 522720,
          "time": 389.69907162500004,
          "velocity": 0.3464566929133858
        },
        {
          "duration": 0.08055547500003968,
          "durationTicks": 116,
          "midi": 70,
          "name": "A#4",
          "ticks": 522720,
          "time": 389.69907162500004,
          "velocity": 0.5196850393700787
        },
        {
          "duration": 0.08055547499998283,
          "durationTicks": 116,
          "midi": 58,
          "name": "A#3",
          "ticks": 522960,
          "time": 389.86573812500006,
          "velocity": 0.3464566929133858
        },
        {
          "duration": 0.08055547499998283,
          "durationTicks": 116,
          "midi": 70,
          "name": "A#4",
          "ticks": 522960,
          "time": 389.86573812500006,
          "velocity": 0.5196850393700787
        },
        {
          "duration": 0.08055547499998283,
          "durationTicks": 116,
          "midi": 58,
          "name": "A#3",
          "ticks": 523200,
          "time": 390.0324046250001,
          "velocity": 0.3464566929133858
        },
        {
          "duration": 0.08055547499998283,
          "durationTicks": 116,
          "midi": 70,
          "name": "A#4",
          "ticks": 523200,
          "time": 390.0324046250001,
          "velocity": 0.5196850393700787
        },
        {
          "duration": 0.08055547500003968,
          "durationTicks": 116,
          "midi": 58,
          "name": "A#3",
          "ticks": 523440,
          "time": 390.19907112500005,
          "velocity": 0.3464566929133858
        },
        {
          "duration": 0.08055547500003968,
          "durationTicks": 116,
          "midi": 70,
          "name": "A#4",
          "ticks": 523440,
          "time": 390.19907112500005,
          "velocity": 0.5196850393700787
        },
        {
          "duration": 0.08055547499998283,
          "durationTicks": 116,
          "midi": 58,
          "name": "A#3",
          "ticks": 523680,
          "time": 390.36573762500007,
          "velocity": 0.3464566929133858
        },
        {
          "duration": 0.08055547499998283,
          "durationTicks": 116,
          "midi": 70,
          "name": "A#4",
          "ticks": 523680,
          "time": 390.36573762500007,
          "velocity": 0.5196850393700787
        },
        {
          "duration": 0.08055547499998283,
          "durationTicks": 116,
          "midi": 58,
          "name": "A#3",
          "ticks": 523920,
          "time": 390.5324041250001,
          "velocity": 0.3464566929133858
        },
        {
          "duration": 0.08055547499998283,
          "durationTicks": 116,
          "midi": 70,
          "name": "A#4",
          "ticks": 523920,
          "time": 390.5324041250001,
          "velocity": 0.5196850393700787
        },
        {
          "duration": 0.9138879750000228,
          "durationTicks": 1316,
          "midi": 58,
          "name": "A#3",
          "ticks": 524160,
          "time": 390.69907062500005,
          "velocity": 0.3464566929133858
        },
        {
          "duration": 0.9138879750000228,
          "durationTicks": 1316,
          "midi": 70,
          "name": "A#4",
          "ticks": 524160,
          "time": 390.69907062500005,
          "velocity": 0.5196850393700787
        },
        {
          "duration": 0.9972212250000325,
          "durationTicks": 1436,
          "midi": 62,
          "name": "D4",
          "ticks": 529920,
          "time": 394.69906662500006,
          "velocity": 0.3464566929133858
        },
        {
          "duration": 0.9972212250000325,
          "durationTicks": 1436,
          "midi": 70,
          "name": "A#4",
          "ticks": 529920,
          "time": 394.69906662500006,
          "velocity": 0.5196850393700787
        },
        {
          "duration": 0.08055547499998283,
          "durationTicks": 116,
          "midi": 62,
          "name": "D4",
          "ticks": 531600,
          "time": 395.8657321250001,
          "velocity": 0.3464566929133858
        },
        {
          "duration": 0.08055547499998283,
          "durationTicks": 116,
          "midi": 70,
          "name": "A#4",
          "ticks": 531600,
          "time": 395.8657321250001,
          "velocity": 0.5196850393700787
        },
        {
          "duration": 0.08055547500003968,
          "durationTicks": 116,
          "midi": 62,
          "name": "D4",
          "ticks": 531840,
          "time": 396.03239862500004,
          "velocity": 0.3464566929133858
        },
        {
          "duration": 0.08055547500003968,
          "durationTicks": 116,
          "midi": 70,
          "name": "A#4",
          "ticks": 531840,
          "time": 396.03239862500004,
          "velocity": 0.5196850393700787
        },
        {
          "duration": 0.08055547499998283,
          "durationTicks": 116,
          "midi": 62,
          "name": "D4",
          "ticks": 532080,
          "time": 396.19906512500006,
          "velocity": 0.3464566929133858
        },
        {
          "duration": 0.08055547499998283,
          "durationTicks": 116,
          "midi": 70,
          "name": "A#4",
          "ticks": 532080,
          "time": 396.19906512500006,
          "velocity": 0.5196850393700787
        },
        {
          "duration": 0.08055547499998283,
          "durationTicks": 116,
          "midi": 62,
          "name": "D4",
          "ticks": 532320,
          "time": 396.3657316250001,
          "velocity": 0.3464566929133858
        },
        {
          "duration": 0.08055547499998283,
          "durationTicks": 116,
          "midi": 70,
          "name": "A#4",
          "ticks": 532320,
          "time": 396.3657316250001,
          "velocity": 0.5196850393700787
        },
        {
          "duration": 0.08055547500003968,
          "durationTicks": 116,
          "midi": 62,
          "name": "D4",
          "ticks": 532560,
          "time": 396.53239812500004,
          "velocity": 0.3464566929133858
        },
        {
          "duration": 0.08055547500003968,
          "durationTicks": 116,
          "midi": 70,
          "name": "A#4",
          "ticks": 532560,
          "time": 396.53239812500004,
          "velocity": 0.5196850393700787
        },
        {
          "duration": 0.5805549749999841,
          "durationTicks": 836,
          "midi": 58,
          "name": "A#3",
          "ticks": 532800,
          "time": 396.69906462500006,
          "velocity": 0.3464566929133858
        },
        {
          "duration": 0.5805549749999841,
          "durationTicks": 836,
          "midi": 70,
          "name": "A#4",
          "ticks": 532800,
          "time": 396.69906462500006,
          "velocity": 0.5196850393700787
        },
        {
          "duration": 0.08055547499998283,
          "durationTicks": 116,
          "midi": 58,
          "name": "A#3",
          "ticks": 533760,
          "time": 397.3657306250001,
          "velocity": 0.3464566929133858
        },
        {
          "duration": 0.08055547499998283,
          "durationTicks": 116,
          "midi": 70,
          "name": "A#4",
          "ticks": 533760,
          "time": 397.3657306250001,
          "velocity": 0.5196850393700787
        },
        {
          "duration": 0.08055547500003968,
          "durationTicks": 116,
          "midi": 58,
          "name": "A#3",
          "ticks": 534000,
          "time": 397.53239712500005,
          "velocity": 0.3464566929133858
        },
        {
          "duration": 0.08055547500003968,
          "durationTicks": 116,
          "midi": 70,
          "name": "A#4",
          "ticks": 534000,
          "time": 397.53239712500005,
          "velocity": 0.5196850393700787
        },
        {
          "duration": 0.41388847500002157,
          "durationTicks": 596,
          "midi": 65,
          "name": "F4",
          "ticks": 534240,
          "time": 397.69906362500006,
          "velocity": 0.5039370078740157
        },
        {
          "duration": 0.3305552250000119,
          "durationTicks": 476,
          "midi": 65,
          "name": "F4",
          "ticks": 534960,
          "time": 398.19906312500007,
          "velocity": 0.5039370078740157
        },
        {
          "duration": 0.9972212249999757,
          "durationTicks": 1436,
          "midi": 62,
          "name": "D4",
          "ticks": 535680,
          "time": 398.69906262500007,
          "velocity": 0.3464566929133858
        },
        {
          "duration": 0.9972212249999757,
          "durationTicks": 1436,
          "midi": 70,
          "name": "A#4",
          "ticks": 535680,
          "time": 398.69906262500007,
          "velocity": 0.5196850393700787
        },
        {
          "duration": 0.08055547500003968,
          "durationTicks": 116,
          "midi": 62,
          "name": "D4",
          "ticks": 537360,
          "time": 399.86572812500003,
          "velocity": 0.3464566929133858
        },
        {
          "duration": 0.08055547500003968,
          "durationTicks": 116,
          "midi": 70,
          "name": "A#4",
          "ticks": 537360,
          "time": 399.86572812500003,
          "velocity": 0.5196850393700787
        },
        {
          "duration": 0.08055547499998283,
          "durationTicks": 116,
          "midi": 62,
          "name": "D4",
          "ticks": 537600,
          "time": 400.03239462500005,
          "velocity": 0.3464566929133858
        },
        {
          "duration": 0.08055547499998283,
          "durationTicks": 116,
          "midi": 70,
          "name": "A#4",
          "ticks": 537600,
          "time": 400.03239462500005,
          "velocity": 0.5196850393700787
        },
        {
          "duration": 0.08055547499998283,
          "durationTicks": 116,
          "midi": 62,
          "name": "D4",
          "ticks": 537840,
          "time": 400.19906112500007,
          "velocity": 0.3464566929133858
        },
        {
          "duration": 0.08055547499998283,
          "durationTicks": 116,
          "midi": 70,
          "name": "A#4",
          "ticks": 537840,
          "time": 400.19906112500007,
          "velocity": 0.5196850393700787
        },
        {
          "duration": 0.08055547499998283,
          "durationTicks": 116,
          "midi": 62,
          "name": "D4",
          "ticks": 538080,
          "time": 400.3657276250001,
          "velocity": 0.3464566929133858
        },
        {
          "duration": 0.08055547499998283,
          "durationTicks": 116,
          "midi": 70,
          "name": "A#4",
          "ticks": 538080,
          "time": 400.3657276250001,
          "velocity": 0.5196850393700787
        },
        {
          "duration": 0.08055547500003968,
          "durationTicks": 116,
          "midi": 62,
          "name": "D4",
          "ticks": 538320,
          "time": 400.53239412500005,
          "velocity": 0.3464566929133858
        },
        {
          "duration": 0.08055547500003968,
          "durationTicks": 116,
          "midi": 70,
          "name": "A#4",
          "ticks": 538320,
          "time": 400.53239412500005,
          "velocity": 0.5196850393700787
        },
        {
          "duration": 0.4972217249999744,
          "durationTicks": 716,
          "midi": 58,
          "name": "A#3",
          "ticks": 538560,
          "time": 400.6990606250001,
          "velocity": 0.3464566929133858
        },
        {
          "duration": 0.4972217249999744,
          "durationTicks": 716,
          "midi": 70,
          "name": "A#4",
          "ticks": 538560,
          "time": 400.6990606250001,
          "velocity": 0.5196850393700787
        },
        {
          "duration": 0.08055547499998283,
          "durationTicks": 116,
          "midi": 58,
          "name": "A#3",
          "ticks": 539520,
          "time": 401.3657266250001,
          "velocity": 0.3464566929133858
        },
        {
          "duration": 0.08055547499998283,
          "durationTicks": 116,
          "midi": 70,
          "name": "A#4",
          "ticks": 539520,
          "time": 401.3657266250001,
          "velocity": 0.5196850393700787
        },
        {
          "duration": 0.08055547500003968,
          "durationTicks": 116,
          "midi": 58,
          "name": "A#3",
          "ticks": 539760,
          "time": 401.53239312500006,
          "velocity": 0.3464566929133858
        },
        {
          "duration": 0.08055547500003968,
          "durationTicks": 116,
          "midi": 70,
          "name": "A#4",
          "ticks": 539760,
          "time": 401.53239312500006,
          "velocity": 0.5196850393700787
        },
        {
          "duration": 0.3305552250000119,
          "durationTicks": 476,
          "midi": 65,
          "name": "F4",
          "ticks": 540000,
          "time": 401.6990596250001,
          "velocity": 0.5039370078740157
        },
        {
          "duration": 0.3305552250000119,
          "durationTicks": 476,
          "midi": 65,
          "name": "F4",
          "ticks": 540720,
          "time": 402.1990591250001,
          "velocity": 0.5039370078740157
        },
        {
          "duration": 0.1916664749999768,
          "durationTicks": 276,
          "midi": 58,
          "name": "A#3",
          "ticks": 541440,
          "time": 402.6990586250001,
          "velocity": 0.3464566929133858
        },
        {
          "duration": 0.1916664749999768,
          "durationTicks": 276,
          "midi": 65,
          "name": "F4",
          "ticks": 541440,
          "time": 402.6990586250001,
          "velocity": 0.3464566929133858
        },
        {
          "duration": 0.4972217249999744,
          "durationTicks": 716,
          "midi": 65,
          "name": "F4",
          "ticks": 550800,
          "time": 409.1990521250001,
          "velocity": 0.1968503937007874
        },
        {
          "duration": 0.4972217249999744,
          "durationTicks": 716,
          "midi": 72,
          "name": "C5",
          "ticks": 550800,
          "time": 409.1990521250001,
          "velocity": 0.2755905511811024
        },
        {
          "duration": 0.16388872500004936,
          "durationTicks": 236,
          "midi": 70,
          "name": "A#4",
          "ticks": 551520,
          "time": 409.69905162500004,
          "velocity": 0.1968503937007874
        },
        {
          "duration": 0.16388872500004936,
          "durationTicks": 236,
          "midi": 74,
          "name": "D5",
          "ticks": 551520,
          "time": 409.69905162500004,
          "velocity": 0.2755905511811024
        },
        {
          "duration": 0.49722172500003126,
          "durationTicks": 716,
          "midi": 65,
          "name": "F4",
          "ticks": 552240,
          "time": 410.19905112500004,
          "velocity": 0.1968503937007874
        },
        {
          "duration": 0.49722172500003126,
          "durationTicks": 716,
          "midi": 72,
          "name": "C5",
          "ticks": 552240,
          "time": 410.19905112500004,
          "velocity": 0.2755905511811024
        },
        {
          "duration": 0.16388872500004936,
          "durationTicks": 236,
          "midi": 70,
          "name": "A#4",
          "ticks": 552960,
          "time": 410.69905062500004,
          "velocity": 0.1968503937007874
        },
        {
          "duration": 0.16388872500004936,
          "durationTicks": 236,
          "midi": 74,
          "name": "D5",
          "ticks": 552960,
          "time": 410.69905062500004,
          "velocity": 0.2755905511811024
        },
        {
          "duration": 2.4972197250000363,
          "durationTicks": 3596,
          "midi": 70,
          "name": "A#4",
          "ticks": 563040,
          "time": 417.69904362500006,
          "velocity": 0.3779527559055118
        },
        {
          "duration": 0.16388872499999252,
          "durationTicks": 236,
          "midi": 74,
          "name": "D5",
          "ticks": 563760,
          "time": 418.19904312500006,
          "velocity": 0.23622047244094488
        },
        {
          "duration": 0.16388872499999252,
          "durationTicks": 236,
          "midi": 65,
          "name": "F4",
          "ticks": 565200,
          "time": 419.19904212500006,
          "velocity": 0.23622047244094488
        },
        {
          "duration": 0.16388872499999252,
          "durationTicks": 236,
          "midi": 62,
          "name": "D4",
          "ticks": 565920,
          "time": 419.69904162500006,
          "velocity": 0.23622047244094488
        },
        {
          "duration": 0.16388872499999252,
          "durationTicks": 236,
          "midi": 58,
          "name": "A#3",
          "ticks": 566640,
          "time": 420.19904112500006,
          "velocity": 0.23622047244094488
        },
        {
          "duration": 0.9972212250000325,
          "durationTicks": 1436,
          "midi": 74,
          "name": "D5",
          "ticks": 566640,
          "time": 420.19904112500006,
          "velocity": 0.2992125984251969
        },
        {
          "duration": 0.9972212249999757,
          "durationTicks": 1436,
          "midi": 65,
          "name": "F4",
          "ticks": 567360,
          "time": 420.69904062500007,
          "velocity": 0.23622047244094488
        },
        {
          "duration": 0.6638882249999938,
          "durationTicks": 956,
          "midi": 72,
          "name": "C5",
          "ticks": 568080,
          "time": 421.19904012500007,
          "velocity": 0.2992125984251969
        },
        {
          "duration": 0.2472219750000022,
          "durationTicks": 356,
          "midi": 62,
          "name": "D4",
          "ticks": 568800,
          "time": 421.69903962500007,
          "velocity": 0.23622047244094488
        },
        {
          "duration": 0.2472219750000022,
          "durationTicks": 356,
          "midi": 70,
          "name": "A#4",
          "ticks": 568800,
          "time": 421.69903962500007,
          "velocity": 0.2992125984251969
        },
        {
          "duration": 0.10833322499996711,
          "durationTicks": 156,
          "midi": 58,
          "name": "A#3",
          "ticks": 580320,
          "time": 429.6990316250001,
          "velocity": 0.4251968503937008
        },
        {
          "duration": 0.16388872499999252,
          "durationTicks": 236,
          "midi": 62,
          "name": "D4",
          "ticks": 580800,
          "time": 430.03236462500007,
          "velocity": 0.48031496062992124
        },
        {
          "duration": 0.08055547500003968,
          "durationTicks": 116,
          "midi": 65,
          "name": "F4",
          "ticks": 581040,
          "time": 430.19903112500003,
          "velocity": 0.4330708661417323
        },
        {
          "duration": 0.16388872499999252,
          "durationTicks": 236,
          "midi": 70,
          "name": "A#4",
          "ticks": 581520,
          "time": 430.5323641250001,
          "velocity": 0.4881889763779528
        },
        {
          "duration": 0.6638882249999938,
          "durationTicks": 956,
          "midi": 74,
          "name": "D5",
          "ticks": 581760,
          "time": 430.6990306250001,
          "velocity": 0.5984251968503937
        },
        {
          "duration": 0.08055547499998283,
          "durationTicks": 116,
          "midi": 70,
          "name": "A#4",
          "ticks": 582720,
          "time": 431.36569662500006,
          "velocity": 0.5039370078740157
        },
        {
          "duration": 0.08055547499998283,
          "durationTicks": 116,
          "midi": 65,
          "name": "F4",
          "ticks": 582960,
          "time": 431.5323631250001,
          "velocity": 0.5039370078740157
        },
        {
          "duration": 0.5805549749999841,
          "durationTicks": 836,
          "midi": 65,
          "name": "F4",
          "ticks": 583200,
          "time": 431.6990296250001,
          "velocity": 0.5039370078740157
        },
        {
          "duration": 0.5805549749999841,
          "durationTicks": 836,
          "midi": 77,
          "name": "F5",
          "ticks": 583200,
          "time": 431.6990296250001,
          "velocity": 0.6614173228346457
        },
        {
          "duration": 0.08055547499998283,
          "durationTicks": 116,
          "midi": 62,
          "name": "D4",
          "ticks": 584160,
          "time": 432.36569562500006,
          "velocity": 0.4251968503937008
        },
        {
          "duration": 0.08055547499998283,
          "durationTicks": 116,
          "midi": 74,
          "name": "D5",
          "ticks": 584160,
          "time": 432.36569562500006,
          "velocity": 0.5826771653543307
        },
        {
          "duration": 0.08055547499998283,
          "durationTicks": 116,
          "midi": 58,
          "name": "A#3",
          "ticks": 584400,
          "time": 432.5323621250001,
          "velocity": 0.4251968503937008
        },
        {
          "duration": 0.08055547499998283,
          "durationTicks": 116,
          "midi": 70,
          "name": "A#4",
          "ticks": 584400,
          "time": 432.5323621250001,
          "velocity": 0.5826771653543307
        },
        {
          "duration": 0.08055547499998283,
          "durationTicks": 116,
          "midi": 62,
          "name": "D4",
          "ticks": 584640,
          "time": 432.6990286250001,
          "velocity": 0.4251968503937008
        },
        {
          "duration": 0.08055547499998283,
          "durationTicks": 116,
          "midi": 74,
          "name": "D5",
          "ticks": 584640,
          "time": 432.6990286250001,
          "velocity": 0.5826771653543307
        },
        {
          "duration": 0.08055547500003968,
          "durationTicks": 116,
          "midi": 58,
          "name": "A#3",
          "ticks": 584880,
          "time": 432.86569512500006,
          "velocity": 0.4251968503937008
        },
        {
          "duration": 0.08055547500003968,
          "durationTicks": 116,
          "midi": 70,
          "name": "A#4",
          "ticks": 584880,
          "time": 432.86569512500006,
          "velocity": 0.5826771653543307
        },
        {
          "duration": 0.08055547499998283,
          "durationTicks": 116,
          "midi": 65,
          "name": "F4",
          "ticks": 585120,
          "time": 433.0323616250001,
          "velocity": 0.5039370078740157
        },
        {
          "duration": 0.08055547500003968,
          "durationTicks": 116,
          "midi": 70,
          "name": "A#4",
          "ticks": 585360,
          "time": 433.19902812500004,
          "velocity": 0.5826771653543307
        },
        {
          "duration": 0.08055547499998283,
          "durationTicks": 116,
          "midi": 65,
          "name": "F4",
          "ticks": 585600,
          "time": 433.36569462500006,
          "velocity": 0.5039370078740157
        },
        {
          "duration": 0.08055547499998283,
          "durationTicks": 116,
          "midi": 62,
          "name": "D4",
          "ticks": 585840,
          "time": 433.5323611250001,
          "velocity": 0.5039370078740157
        },
        {
          "duration": 0.13611097500000824,
          "durationTicks": 196,
          "midi": 58,
          "name": "A#3",
          "ticks": 586080,
          "time": 433.69902762500004,
          "velocity": 0.5039370078740157
        },
        {
          "duration": 0.16388872499999252,
          "durationTicks": 236,
          "midi": 62,
          "name": "D4",
          "ticks": 586800,
          "time": 434.19902712500004,
          "velocity": 0.3464566929133858
        },
        {
          "duration": 0.16388872499999252,
          "durationTicks": 236,
          "midi": 65,
          "name": "F4",
          "ticks": 586800,
          "time": 434.19902712500004,
          "velocity": 0.4251968503937008
        },
        {
          "duration": 0.2472219750000022,
          "durationTicks": 356,
          "midi": 58,
          "name": "A#3",
          "ticks": 587520,
          "time": 434.69902662500004,
          "velocity": 0.3464566929133858
        },
        {
          "duration": 0.2472219750000022,
          "durationTicks": 356,
          "midi": 62,
          "name": "D4",
          "ticks": 587520,
          "time": 434.69902662500004,
          "velocity": 0.3464566929133858
        }
      ]
    },
    {
      "channel": 0,
      "controlChanges": {
        "0": [
          {
            "number": 0,
            "ticks": 0,
            "time": 0,
            "value": 0.12598425196850394
          }
        ],
        "32": [
          {
            "number": 32,
            "ticks": 0,
            "time": 0,
            "value": 0
          }
        ]
      },
      "pitchBends": [],
      "instrument": {
        "family": "piano",
        "number": 0,
        "name": "acoustic grand piano"
      },
      "name": "Violin I",
      "notes": [],
      "endOfTrackTicks": 588960
    },
    {
      "channel": 6,
      "controlChanges": {
        "7": [
          {
            "number": 7,
            "ticks": 0,
            "time": 0,
            "value": 1
          },
          {
            "number": 7,
            "ticks": 480720,
            "time": 360.53243412500007,
            "value": 0.7401574803149606
          },
          {
            "number": 7,
            "ticks": 513840,
            "time": 383.53241112500007,
            "value": 1
          }
        ],
        "10": [
          {
            "number": 10,
            "ticks": 0,
            "time": 0,
            "value": 0.3464566929133858
          }
        ],
        "11": [
          {
            "number": 11,
            "ticks": 84,
            "time": 0.058807,
            "value": 1
          },
          {
            "number": 11,
            "ticks": 311036,
            "time": 230.84018261666665,
            "value": 0.36220472440944884
          },
          {
            "number": 11,
            "ticks": 311044,
            "time": 230.84591163333332,
            "value": 0.3700787401574803
          },
          {
            "number": 11,
            "ticks": 311084,
            "time": 230.87455671666666,
            "value": 0.3779527559055118
          },
          {
            "number": 11,
            "ticks": 311124,
            "time": 230.90320179999998,
            "value": 0.3858267716535433
          },
          {
            "number": 11,
            "ticks": 311164,
            "time": 230.93184688333332,
            "value": 0.3937007874015748
          },
          {
            "number": 11,
            "ticks": 311204,
            "time": 230.96049196666667,
            "value": 0.4015748031496063
          },
          {
            "number": 11,
            "ticks": 311244,
            "time": 230.98913704999998,
            "value": 0.4094488188976378
          },
          {
            "number": 11,
            "ticks": 311284,
            "time": 231.01778213333333,
            "value": 0.41732283464566927
          },
          {
            "number": 11,
            "ticks": 311324,
            "time": 231.04642721666664,
            "value": 0.4251968503937008
          },
          {
            "number": 11,
            "ticks": 311364,
            "time": 231.0750723,
            "value": 0.4330708661417323
          },
          {
            "number": 11,
            "ticks": 311404,
            "time": 231.10371738333333,
            "value": 0.4409448818897638
          },
          {
            "number": 11,
            "ticks": 311444,
            "time": 231.13236246666665,
            "value": 0.4566929133858268
          },
          {
            "number": 11,
            "ticks": 311484,
            "time": 231.16100755,
            "value": 0.47244094488188976
          },
          {
            "number": 11,
            "ticks": 311524,
            "time": 231.1896526333333,
            "value": 0.4881889763779528
          },
          {
            "number": 11,
            "ticks": 311564,
            "time": 231.21829771666665,
            "value": 0.5039370078740157
          },
          {
            "number": 11,
            "ticks": 311604,
            "time": 231.2469428,
            "value": 0.5196850393700787
          },
          {
            "number": 11,
            "ticks": 311644,
            "time": 231.27558788333332,
            "value": 0.5354330708661418
          },
          {
            "number": 11,
            "ticks": 311684,
            "time": 231.30423296666666,
            "value": 0.5511811023622047
          },
          {
            "number": 11,
            "ticks": 311724,
            "time": 231.33287804999998,
            "value": 0.5669291338582677
          },
          {
            "number": 11,
            "ticks": 311764,
            "time": 231.36152313333332,
            "value": 0.5826771653543307
          },
          {
            "number": 11,
            "ticks": 311804,
            "time": 231.39016821666667,
            "value": 0.5984251968503937
          },
          {
            "number": 11,
            "ticks": 311844,
            "time": 231.41881329999998,
            "value": 0.6220472440944882
          },
          {
            "number": 11,
            "ticks": 311884,
            "time": 231.44745838333333,
            "value": 0.6456692913385826
          },
          {
            "number": 11,
            "ticks": 311924,
            "time": 231.47610346666664,
            "value": 0.6692913385826772
          },
          {
            "number": 11,
            "ticks": 311964,
            "time": 231.50474855,
            "value": 0.6929133858267716
          },
          {
            "number": 11,
            "ticks": 312004,
            "time": 231.53339363333333,
            "value": 0.7165354330708661
          },
          {
            "number": 11,
            "ticks": 312044,
            "time": 231.56203871666665,
            "value": 0.7401574803149606
          },
          {
            "number": 11,
            "ticks": 312084,
            "time": 231.5906838,
            "value": 0.7637795275590551
          },
          {
            "number": 11,
            "ticks": 312124,
            "time": 231.6193288833333,
            "value": 0.7874015748031497
          },
          {
            "number": 11,
            "ticks": 312164,
            "time": 231.64797396666665,
            "value": 0.8110236220472441
          },
          {
            "number": 11,
            "ticks": 312204,
            "time": 231.67661905,
            "value": 0.8346456692913385
          },
          {
            "number": 11,
            "ticks": 312244,
            "time": 231.70526413333332,
            "value": 0.8661417322834646
          },
          {
            "number": 11,
            "ticks": 312284,
            "time": 231.73390921666666,
            "value": 0.8976377952755905
          },
          {
            "number": 11,
            "ticks": 312324,
            "time": 231.76255429999998,
            "value": 0.9291338582677166
          },
          {
            "number": 11,
            "ticks": 312364,
            "time": 231.79119938333332,
            "value": 0.9606299212598425
          },
          {
            "number": 11,
            "ticks": 312404,
            "time": 231.81984446666667,
            "value": 0.9921259842519685
          },
          {
            "number": 11,
            "ticks": 312476,
            "time": 231.87140561666666,
            "value": 1
          },
          {
            "number": 11,
            "ticks": 312764,
            "time": 232.07765021666665,
            "value": 0.984251968503937
          },
          {
            "number": 11,
            "ticks": 312808,
            "time": 232.10915980833332,
            "value": 0.968503937007874
          },
          {
            "number": 11,
            "ticks": 312852,
            "time": 232.14066939999998,
            "value": 0.952755905511811
          },
          {
            "number": 11,
            "ticks": 312900,
            "time": 232.1750435,
            "value": 0.937007874015748
          },
          {
            "number": 11,
            "ticks": 312944,
            "time": 232.20655309166665,
            "value": 0.9212598425196851
          },
          {
            "number": 11,
            "ticks": 312988,
            "time": 232.2380626833333,
            "value": 0.905511811023622
          },
          {
            "number": 11,
            "ticks": 313032,
            "time": 232.26957227499997,
            "value": 0.889763779527559
          },
          {
            "number": 11,
            "ticks": 313080,
            "time": 232.30394637499998,
            "value": 0.8740157480314961
          },
          {
            "number": 11,
            "ticks": 313124,
            "time": 232.33545596666664,
            "value": 0.8582677165354331
          },
          {
            "number": 11,
            "ticks": 313168,
            "time": 232.36696555833333,
            "value": 0.84251968503937
          },
          {
            "number": 11,
            "ticks": 313216,
            "time": 232.4013396583333,
            "value": 0.8267716535433071
          },
          {
            "number": 11,
            "ticks": 313260,
            "time": 232.43284925,
            "value": 0.8110236220472441
          },
          {
            "number": 11,
            "ticks": 313304,
            "time": 232.46435884166667,
            "value": 0.7952755905511811
          },
          {
            "number": 11,
            "ticks": 313348,
            "time": 232.49586843333333,
            "value": 0.7795275590551181
          },
          {
            "number": 11,
            "ticks": 313396,
            "time": 232.5302425333333,
            "value": 0.7637795275590551
          },
          {
            "number": 11,
            "ticks": 313440,
            "time": 232.561752125,
            "value": 0.7480314960629921
          },
          {
            "number": 11,
            "ticks": 313484,
            "time": 232.59326171666666,
            "value": 0.7322834645669292
          },
          {
            "number": 11,
            "ticks": 313532,
            "time": 232.62763581666667,
            "value": 0.7165354330708661
          },
          {
            "number": 11,
            "ticks": 313576,
            "time": 232.65914540833333,
            "value": 0.7007874015748031
          },
          {
            "number": 11,
            "ticks": 313620,
            "time": 232.690655,
            "value": 0.6850393700787402
          },
          {
            "number": 11,
            "ticks": 313664,
            "time": 232.72216459166665,
            "value": 0.6692913385826772
          },
          {
            "number": 11,
            "ticks": 313712,
            "time": 232.75653869166666,
            "value": 0.6535433070866141
          },
          {
            "number": 11,
            "ticks": 313756,
            "time": 232.78804828333332,
            "value": 0.6377952755905512
          },
          {
            "number": 11,
            "ticks": 313800,
            "time": 232.819557875,
            "value": 0.6220472440944882
          },
          {
            "number": 11,
            "ticks": 313848,
            "time": 232.853931975,
            "value": 0.6062992125984252
          },
          {
            "number": 11,
            "ticks": 313892,
            "time": 232.88544156666666,
            "value": 0.5905511811023622
          },
          {
            "number": 11,
            "ticks": 325380,
            "time": 241.54977649999998,
            "value": 1
          },
          {
            "number": 11,
            "ticks": 486716,
            "time": 364.69631885000007,
            "value": 0.5196850393700787
          },
          {
            "number": 11,
            "ticks": 486724,
            "time": 364.70187440000007,
            "value": 0.5275590551181102
          },
          {
            "number": 11,
            "ticks": 486768,
            "time": 364.7324299250001,
            "value": 0.5354330708661418
          },
          {
            "number": 11,
            "ticks": 486812,
            "time": 364.7629854500001,
            "value": 0.5433070866141733
          },
          {
            "number": 11,
            "ticks": 486856,
            "time": 364.79354097500004,
            "value": 0.5511811023622047
          },
          {
            "number": 11,
            "ticks": 486900,
            "time": 364.82409650000005,
            "value": 0.5590551181102362
          },
          {
            "number": 11,
            "ticks": 486944,
            "time": 364.85465202500006,
            "value": 0.5669291338582677
          },
          {
            "number": 11,
            "ticks": 486988,
            "time": 364.8852075500001,
            "value": 0.5748031496062992
          },
          {
            "number": 11,
            "ticks": 487032,
            "time": 364.9157630750001,
            "value": 0.5826771653543307
          },
          {
            "number": 11,
            "ticks": 487076,
            "time": 364.94631860000004,
            "value": 0.5905511811023622
          },
          {
            "number": 11,
            "ticks": 487120,
            "time": 364.97687412500005,
            "value": 0.5984251968503937
          },
          {
            "number": 11,
            "ticks": 487164,
            "time": 365.00742965000006,
            "value": 0.6062992125984252
          },
          {
            "number": 11,
            "ticks": 487208,
            "time": 365.0379851750001,
            "value": 0.6141732283464567
          },
          {
            "number": 11,
            "ticks": 487252,
            "time": 365.0685407000001,
            "value": 0.6299212598425197
          },
          {
            "number": 11,
            "ticks": 487296,
            "time": 365.09909622500004,
            "value": 0.6456692913385826
          },
          {
            "number": 11,
            "ticks": 487340,
            "time": 365.12965175000005,
            "value": 0.6614173228346457
          },
          {
            "number": 11,
            "ticks": 487384,
            "time": 365.16020727500006,
            "value": 0.6771653543307087
          },
          {
            "number": 11,
            "ticks": 487428,
            "time": 365.1907628000001,
            "value": 0.6929133858267716
          },
          {
            "number": 11,
            "ticks": 487472,
            "time": 365.2213183250001,
            "value": 0.7086614173228346
          },
          {
            "number": 11,
            "ticks": 487516,
            "time": 365.25187385000004,
            "value": 0.7244094488188977
          },
          {
            "number": 11,
            "ticks": 487560,
            "time": 365.28242937500005,
            "value": 0.7401574803149606
          },
          {
            "number": 11,
            "ticks": 487604,
            "time": 365.31298490000006,
            "value": 0.7559055118110236
          },
          {
            "number": 11,
            "ticks": 487648,
            "time": 365.34354042500007,
            "value": 0.7716535433070866
          },
          {
            "number": 11,
            "ticks": 487692,
            "time": 365.3740959500001,
            "value": 0.7874015748031497
          },
          {
            "number": 11,
            "ticks": 487736,
            "time": 365.40465147500004,
            "value": 0.8110236220472441
          },
          {
            "number": 11,
            "ticks": 487780,
            "time": 365.43520700000005,
            "value": 0.8346456692913385
          },
          {
            "number": 11,
            "ticks": 487824,
            "time": 365.46576252500006,
            "value": 0.8582677165354331
          },
          {
            "number": 11,
            "ticks": 487868,
            "time": 365.49631805000007,
            "value": 0.8818897637795275
          },
          {
            "number": 11,
            "ticks": 487912,
            "time": 365.5268735750001,
            "value": 0.905511811023622
          },
          {
            "number": 11,
            "ticks": 487956,
            "time": 365.5574291000001,
            "value": 0.9291338582677166
          },
          {
            "number": 11,
            "ticks": 488000,
            "time": 365.58798462500005,
            "value": 0.952755905511811
          },
          {
            "number": 11,
            "ticks": 488044,
            "time": 365.61854015000006,
            "value": 0.9763779527559056
          },
          {
            "number": 11,
            "ticks": 488088,
            "time": 365.64909567500007,
            "value": 1
          },
          {
            "number": 11,
            "ticks": 488156,
            "time": 365.69631785000007,
            "value": 1
          }
        ],
        "73": [
          {
            "number": 73,
            "ticks": 73380,
            "time": 51.372115,
            "value": 0.44881889763779526
          },
          {
            "number": 73,
            "ticks": 99240,
            "time": 69.47627,
            "value": 0.5039370078740157
          },
          {
            "number": 73,
            "ticks": 502320,
            "time": 375.53241912500005,
            "value": 0.3464566929133858
          }
        ],
        "91": [
          {
            "number": 91,
            "ticks": 88,
            "time": 0.06160733333333333,
            "value": 0.6220472440944882
          }
        ],
        "93": [
          {
            "number": 93,
            "ticks": 88,
            "time": 0.06160733333333333,
            "value": 0.07874015748031496
          }
        ],
        "121": [
          {
            "number": 121,
            "ticks": 80,
            "time": 0.05600666666666666,
            "value": 0
          }
        ]
      },
      "pitchBends": [
        {
          "ticks": 104,
          "time": 0.07280866666666667,
          "value": 0
        }
      ],
      "instrument": {
        "family": "ensemble",
        "number": 48,
        "name": "string ensemble 1"
      },
      "name": "",
      "notes": [
        {
          "duration": 0.08120966666666618,
          "durationTicks": 116,
          "midi": 70,
          "name": "A#4",
          "ticks": 12960,
          "time": 9.073080000000001,
          "velocity": 0.6062992125984252
        },
        {
          "duration": 0.1652196666666672,
          "durationTicks": 236,
          "midi": 74,
          "name": "D5",
          "ticks": 13440,
          "time": 9.40912,
          "velocity": 0.6062992125984252
        },
        {
          "duration": 0.08120966666666618,
          "durationTicks": 116,
          "midi": 77,
          "name": "F5",
          "ticks": 13680,
          "time": 9.57714,
          "velocity": 0.6062992125984252
        },
        {
          "duration": 0.1652196666666672,
          "durationTicks": 236,
          "midi": 82,
          "name": "A#5",
          "ticks": 14160,
          "time": 9.91318,
          "velocity": 0.6062992125984252
        },
        {
          "duration": 0.6692796666666663,
          "durationTicks": 956,
          "midi": 77,
          "name": "F5",
          "ticks": 14400,
          "time": 10.0812,
          "velocity": 0.6062992125984252
        },
        {
          "duration": 0.1652196666666672,
          "durationTicks": 236,
          "midi": 74,
          "name": "D5",
          "ticks": 15360,
          "time": 10.75328,
          "velocity": 0.6062992125984252
        },
        {
          "duration": 0.1652196666666672,
          "durationTicks": 236,
          "midi": 70,
          "name": "A#4",
          "ticks": 15600,
          "time": 10.9213,
          "velocity": 0.6062992125984252
        },
        {
          "duration": 0.08120966666666618,
          "durationTicks": 116,
          "midi": 69,
          "name": "A4",
          "ticks": 15840,
          "time": 11.08932,
          "velocity": 0.6062992125984252
        },
        {
          "duration": 0.1652196666666672,
          "durationTicks": 236,
          "midi": 77,
          "name": "F5",
          "ticks": 16320,
          "time": 11.42536,
          "velocity": 0.6062992125984252
        },
        {
          "duration": 0.08120966666666796,
          "durationTicks": 116,
          "midi": 70,
          "name": "A#4",
          "ticks": 16560,
          "time": 11.59338,
          "velocity": 0.6062992125984252
        },
        {
          "duration": 0.1652196666666672,
          "durationTicks": 236,
          "midi": 77,
          "name": "F5",
          "ticks": 17040,
          "time": 11.92942,
          "velocity": 0.6062992125984252
        },
        {
          "duration": 0.501259666666666,
          "durationTicks": 716,
          "midi": 74,
          "name": "D5",
          "ticks": 17280,
          "time": 12.09744,
          "velocity": 0.6062992125984252
        },
        {
          "duration": 0.1652196666666672,
          "durationTicks": 236,
          "midi": 72,
          "name": "C5",
          "ticks": 18000,
          "time": 12.6015,
          "velocity": 0.44881889763779526
        },
        {
          "duration": 0.08120966666666618,
          "durationTicks": 116,
          "midi": 74,
          "name": "D5",
          "ticks": 18720,
          "time": 13.10556,
          "velocity": 0.5196850393700787
        },
        {
          "duration": 0.16521966666666543,
          "durationTicks": 236,
          "midi": 69,
          "name": "A4",
          "ticks": 18960,
          "time": 13.27358,
          "velocity": 0.5433070866141733
        },
        {
          "duration": 0.16521966666666543,
          "durationTicks": 236,
          "midi": 70,
          "name": "A#4",
          "ticks": 19200,
          "time": 13.441600000000001,
          "velocity": 0.5748031496062992
        },
        {
          "duration": 0.08120966666666796,
          "durationTicks": 116,
          "midi": 75,
          "name": "D#5",
          "ticks": 19440,
          "time": 13.60962,
          "velocity": 0.6062992125984252
        },
        {
          "duration": 0.1652196666666672,
          "durationTicks": 236,
          "midi": 71,
          "name": "B4",
          "ticks": 19680,
          "time": 13.77764,
          "velocity": 0.6377952755905512
        },
        {
          "duration": 0.1652196666666672,
          "durationTicks": 236,
          "midi": 72,
          "name": "C5",
          "ticks": 19920,
          "time": 13.94566,
          "velocity": 0.6692913385826772
        },
        {
          "duration": 0.501259666666666,
          "durationTicks": 716,
          "midi": 77,
          "name": "F5",
          "ticks": 20160,
          "time": 14.11368,
          "velocity": 0.7007874015748031
        },
        {
          "duration": 0.13721633333333294,
          "durationTicks": 196,
          "midi": 82,
          "name": "A#5",
          "ticks": 20880,
          "time": 14.61774,
          "velocity": 0.6062992125984252
        },
        {
          "duration": 0.08120966666666618,
          "durationTicks": 116,
          "midi": 74,
          "name": "D5",
          "ticks": 21600,
          "time": 15.1218,
          "velocity": 0.6062992125984252
        },
        {
          "duration": 0.08120966666666618,
          "durationTicks": 116,
          "midi": 77,
          "name": "F5",
          "ticks": 21840,
          "time": 15.28982,
          "velocity": 0.6062992125984252
        },
        {
          "duration": 0.08120966666666618,
          "durationTicks": 116,
          "midi": 70,
          "name": "A#4",
          "ticks": 22080,
          "time": 15.457840000000001,
          "velocity": 0.6062992125984252
        },
        {
          "duration": 0.08120966666666796,
          "durationTicks": 116,
          "midi": 75,
          "name": "D#5",
          "ticks": 22320,
          "time": 15.62586,
          "velocity": 0.6062992125984252
        },
        {
          "duration": 0.16521966666666543,
          "durationTicks": 236,
          "midi": 69,
          "name": "A4",
          "ticks": 22800,
          "time": 15.9619,
          "velocity": 0.6062992125984252
        },
        {
          "duration": 0.5012596666666695,
          "durationTicks": 716,
          "midi": 72,
          "name": "C5",
          "ticks": 23040,
          "time": 16.12992,
          "velocity": 0.6062992125984252
        },
        {
          "duration": 0.1932229999999997,
          "durationTicks": 276,
          "midi": 70,
          "name": "A#4",
          "ticks": 23760,
          "time": 16.63398,
          "velocity": 0.5039370078740157
        },
        {
          "duration": 0.08120966666665907,
          "durationTicks": 116,
          "midi": 70,
          "name": "A#4",
          "ticks": 57600,
          "time": 40.3248,
          "velocity": 0.6062992125984252
        },
        {
          "duration": 0.08120966666665907,
          "durationTicks": 116,
          "midi": 82,
          "name": "A#5",
          "ticks": 57600,
          "time": 40.3248,
          "velocity": 0.6850393700787402
        },
        {
          "duration": 0.08120966666666618,
          "durationTicks": 116,
          "midi": 70,
          "name": "A#4",
          "ticks": 58080,
          "time": 40.66084,
          "velocity": 0.6062992125984252
        },
        {
          "duration": 0.08120966666666618,
          "durationTicks": 116,
          "midi": 82,
          "name": "A#5",
          "ticks": 58080,
          "time": 40.66084,
          "velocity": 0.6850393700787402
        },
        {
          "duration": 0.08120966666666618,
          "durationTicks": 116,
          "midi": 70,
          "name": "A#4",
          "ticks": 58320,
          "time": 40.82886,
          "velocity": 0.6062992125984252
        },
        {
          "duration": 0.08120966666666618,
          "durationTicks": 116,
          "midi": 82,
          "name": "A#5",
          "ticks": 58320,
          "time": 40.82886,
          "velocity": 0.6850393700787402
        },
        {
          "duration": 0.08120966666665907,
          "durationTicks": 116,
          "midi": 70,
          "name": "A#4",
          "ticks": 58800,
          "time": 41.1649,
          "velocity": 0.6062992125984252
        },
        {
          "duration": 0.08120966666665907,
          "durationTicks": 116,
          "midi": 82,
          "name": "A#5",
          "ticks": 58800,
          "time": 41.1649,
          "velocity": 0.6850393700787402
        },
        {
          "duration": 0.5852696666666617,
          "durationTicks": 836,
          "midi": 70,
          "name": "A#4",
          "ticks": 59040,
          "time": 41.33292,
          "velocity": 0.6062992125984252
        },
        {
          "duration": 0.5852696666666617,
          "durationTicks": 836,
          "midi": 82,
          "name": "A#5",
          "ticks": 59040,
          "time": 41.33292,
          "velocity": 0.6850393700787402
        },
        {
          "duration": 0.08120966666665907,
          "durationTicks": 116,
          "midi": 79,
          "name": "G5",
          "ticks": 60000,
          "time": 42.005,
          "velocity": 0.3464566929133858
        },
        {
          "duration": 0.08120966666666618,
          "durationTicks": 116,
          "midi": 75,
          "name": "D#5",
          "ticks": 60240,
          "time": 42.17302,
          "velocity": 0.3464566929133858
        },
        {
          "duration": 0.08120966666666618,
          "durationTicks": 116,
          "midi": 74,
          "name": "D5",
          "ticks": 60480,
          "time": 42.34104,
          "velocity": 0.33858267716535434
        },
        {
          "duration": 0.16521966666665833,
          "durationTicks": 236,
          "midi": 77,
          "name": "F5",
          "ticks": 60960,
          "time": 42.677080000000004,
          "velocity": 0.3228346456692913
        },
        {
          "duration": 0.08120966666666618,
          "durationTicks": 116,
          "midi": 72,
          "name": "C5",
          "ticks": 61200,
          "time": 42.8451,
          "velocity": 0.31496062992125984
        },
        {
          "duration": 0.16521966666667254,
          "durationTicks": 236,
          "midi": 77,
          "name": "F5",
          "ticks": 61680,
          "time": 43.18114,
          "velocity": 0.2992125984251969
        },
        {
          "duration": 0.5012596666666695,
          "durationTicks": 716,
          "midi": 75,
          "name": "D#5",
          "ticks": 61920,
          "time": 43.34916,
          "velocity": 0.29133858267716534
        },
        {
          "duration": 0.16521966666667254,
          "durationTicks": 236,
          "midi": 74,
          "name": "D5",
          "ticks": 62640,
          "time": 43.85322,
          "velocity": 0.2440944881889764
        },
        {
          "duration": 0.08120966666667329,
          "durationTicks": 116,
          "midi": 70,
          "name": "A#4",
          "ticks": 66240,
          "time": 46.37352,
          "velocity": 0.6062992125984252
        },
        {
          "duration": 0.08120966666667329,
          "durationTicks": 116,
          "midi": 82,
          "name": "A#5",
          "ticks": 66240,
          "time": 46.37352,
          "velocity": 0.7637795275590551
        },
        {
          "duration": 0.08120966666666618,
          "durationTicks": 116,
          "midi": 70,
          "name": "A#4",
          "ticks": 66720,
          "time": 46.70956,
          "velocity": 0.6062992125984252
        },
        {
          "duration": 0.08120966666666618,
          "durationTicks": 116,
          "midi": 82,
          "name": "A#5",
          "ticks": 66720,
          "time": 46.70956,
          "velocity": 0.7637795275590551
        },
        {
          "duration": 0.08120966666666618,
          "durationTicks": 116,
          "midi": 70,
          "name": "A#4",
          "ticks": 66960,
          "time": 46.87758,
          "velocity": 0.6062992125984252
        },
        {
          "duration": 0.08120966666666618,
          "durationTicks": 116,
          "midi": 82,
          "name": "A#5",
          "ticks": 66960,
          "time": 46.87758,
          "velocity": 0.7637795275590551
        },
        {
          "duration": 0.08120966666667329,
          "durationTicks": 116,
          "midi": 70,
          "name": "A#4",
          "ticks": 67440,
          "time": 47.21362,
          "velocity": 0.6062992125984252
        },
        {
          "duration": 0.08120966666667329,
          "durationTicks": 116,
          "midi": 82,
          "name": "A#5",
          "ticks": 67440,
          "time": 47.21362,
          "velocity": 0.7637795275590551
        },
        {
          "duration": 0.9213096666666729,
          "durationTicks": 1316,
          "midi": 70,
          "name": "A#4",
          "ticks": 67680,
          "time": 47.38164,
          "velocity": 0.6062992125984252
        },
        {
          "duration": 0.9213096666666729,
          "durationTicks": 1316,
          "midi": 82,
          "name": "A#5",
          "ticks": 67680,
          "time": 47.38164,
          "velocity": 0.7637795275590551
        },
        {
          "duration": 0.05320633333332836,
          "durationTicks": 76,
          "midi": 86,
          "name": "D6",
          "ticks": 73440,
          "time": 51.414120000000004,
          "velocity": 0.6929133858267716
        },
        {
          "duration": 0.05320633333332836,
          "durationTicks": 76,
          "midi": 86,
          "name": "D6",
          "ticks": 73560,
          "time": 51.49813,
          "velocity": 0.6929133858267716
        },
        {
          "duration": 0.05320633333332836,
          "durationTicks": 76,
          "midi": 86,
          "name": "D6",
          "ticks": 73680,
          "time": 51.58214,
          "velocity": 0.6929133858267716
        },
        {
          "duration": 0.05320633333332836,
          "durationTicks": 76,
          "midi": 86,
          "name": "D6",
          "ticks": 73800,
          "time": 51.66615,
          "velocity": 0.6929133858267716
        },
        {
          "duration": 0.053206333333335465,
          "durationTicks": 76,
          "midi": 86,
          "name": "D6",
          "ticks": 73920,
          "time": 51.75016,
          "velocity": 0.6929133858267716
        },
        {
          "duration": 0.053206333333335465,
          "durationTicks": 76,
          "midi": 86,
          "name": "D6",
          "ticks": 74040,
          "time": 51.83417,
          "velocity": 0.6929133858267716
        },
        {
          "duration": 0.053206333333335465,
          "durationTicks": 76,
          "midi": 86,
          "name": "D6",
          "ticks": 74160,
          "time": 51.91818,
          "velocity": 0.6929133858267716
        },
        {
          "duration": 0.053206333333335465,
          "durationTicks": 76,
          "midi": 86,
          "name": "D6",
          "ticks": 74280,
          "time": 52.00219,
          "velocity": 0.6929133858267716
        },
        {
          "duration": 0.053206333333335465,
          "durationTicks": 76,
          "midi": 86,
          "name": "D6",
          "ticks": 74400,
          "time": 52.0862,
          "velocity": 0.6929133858267716
        },
        {
          "duration": 0.053206333333335465,
          "durationTicks": 76,
          "midi": 86,
          "name": "D6",
          "ticks": 74520,
          "time": 52.17021,
          "velocity": 0.6929133858267716
        },
        {
          "duration": 0.05320633333332836,
          "durationTicks": 76,
          "midi": 86,
          "name": "D6",
          "ticks": 74640,
          "time": 52.254220000000004,
          "velocity": 0.6929133858267716
        },
        {
          "duration": 0.05320633333332836,
          "durationTicks": 76,
          "midi": 86,
          "name": "D6",
          "ticks": 74760,
          "time": 52.33823,
          "velocity": 0.6929133858267716
        },
        {
          "duration": 0.05320633333332836,
          "durationTicks": 76,
          "midi": 86,
          "name": "D6",
          "ticks": 74880,
          "time": 52.42224,
          "velocity": 0.6929133858267716
        },
        {
          "duration": 0.053206333333335465,
          "durationTicks": 76,
          "midi": 86,
          "name": "D6",
          "ticks": 75000,
          "time": 52.50625,
          "velocity": 0.6929133858267716
        },
        {
          "duration": 0.053206333333335465,
          "durationTicks": 76,
          "midi": 86,
          "name": "D6",
          "ticks": 75120,
          "time": 52.59026,
          "velocity": 0.6929133858267716
        },
        {
          "duration": 0.053206333333335465,
          "durationTicks": 76,
          "midi": 86,
          "name": "D6",
          "ticks": 75240,
          "time": 52.67427,
          "velocity": 0.6929133858267716
        },
        {
          "duration": 0.053206333333335465,
          "durationTicks": 76,
          "midi": 86,
          "name": "D6",
          "ticks": 75360,
          "time": 52.75828,
          "velocity": 0.6929133858267716
        },
        {
          "duration": 0.053206333333335465,
          "durationTicks": 76,
          "midi": 86,
          "name": "D6",
          "ticks": 75480,
          "time": 52.84229,
          "velocity": 0.6929133858267716
        },
        {
          "duration": 0.053206333333335465,
          "durationTicks": 76,
          "midi": 86,
          "name": "D6",
          "ticks": 75600,
          "time": 52.9263,
          "velocity": 0.6929133858267716
        },
        {
          "duration": 0.05320633333332836,
          "durationTicks": 76,
          "midi": 86,
          "name": "D6",
          "ticks": 75720,
          "time": 53.010310000000004,
          "velocity": 0.6929133858267716
        },
        {
          "duration": 0.05320633333332836,
          "durationTicks": 76,
          "midi": 86,
          "name": "D6",
          "ticks": 75840,
          "time": 53.09432,
          "velocity": 0.6929133858267716
        },
        {
          "duration": 0.05320633333332836,
          "durationTicks": 76,
          "midi": 86,
          "name": "D6",
          "ticks": 75960,
          "time": 53.17833,
          "velocity": 0.6929133858267716
        },
        {
          "duration": 0.05320633333332836,
          "durationTicks": 76,
          "midi": 86,
          "name": "D6",
          "ticks": 76080,
          "time": 53.26234,
          "velocity": 0.6929133858267716
        },
        {
          "duration": 0.053206333333335465,
          "durationTicks": 76,
          "midi": 86,
          "name": "D6",
          "ticks": 76200,
          "time": 53.34635,
          "velocity": 0.6929133858267716
        },
        {
          "duration": 0.053206333333335465,
          "durationTicks": 76,
          "midi": 84,
          "name": "C6",
          "ticks": 76320,
          "time": 53.43036,
          "velocity": 0.6929133858267716
        },
        {
          "duration": 0.053206333333335465,
          "durationTicks": 76,
          "midi": 84,
          "name": "C6",
          "ticks": 76440,
          "time": 53.51437,
          "velocity": 0.6929133858267716
        },
        {
          "duration": 0.053206333333335465,
          "durationTicks": 76,
          "midi": 84,
          "name": "C6",
          "ticks": 76560,
          "time": 53.59838,
          "velocity": 0.6929133858267716
        },
        {
          "duration": 0.053206333333335465,
          "durationTicks": 76,
          "midi": 84,
          "name": "C6",
          "ticks": 76680,
          "time": 53.68239,
          "velocity": 0.6929133858267716
        },
        {
          "duration": 0.05320633333332836,
          "durationTicks": 76,
          "midi": 84,
          "name": "C6",
          "ticks": 76800,
          "time": 53.766400000000004,
          "velocity": 0.6929133858267716
        },
        {
          "duration": 0.05320633333332836,
          "durationTicks": 76,
          "midi": 84,
          "name": "C6",
          "ticks": 76920,
          "time": 53.850410000000004,
          "velocity": 0.6929133858267716
        },
        {
          "duration": 0.05320633333332836,
          "durationTicks": 76,
          "midi": 84,
          "name": "C6",
          "ticks": 77040,
          "time": 53.93442,
          "velocity": 0.6929133858267716
        },
        {
          "duration": 0.05320633333332836,
          "durationTicks": 76,
          "midi": 84,
          "name": "C6",
          "ticks": 77160,
          "time": 54.01843,
          "velocity": 0.6929133858267716
        },
        {
          "duration": 0.053206333333335465,
          "durationTicks": 76,
          "midi": 86,
          "name": "D6",
          "ticks": 77280,
          "time": 54.10244,
          "velocity": 0.6929133858267716
        },
        {
          "duration": 0.053206333333335465,
          "durationTicks": 76,
          "midi": 86,
          "name": "D6",
          "ticks": 77400,
          "time": 54.18645,
          "velocity": 0.6929133858267716
        },
        {
          "duration": 0.053206333333335465,
          "durationTicks": 76,
          "midi": 87,
          "name": "D#6",
          "ticks": 77520,
          "time": 54.27046,
          "velocity": 0.6929133858267716
        },
        {
          "duration": 0.053206333333335465,
          "durationTicks": 76,
          "midi": 87,
          "name": "D#6",
          "ticks": 77640,
          "time": 54.35447,
          "velocity": 0.6929133858267716
        },
        {
          "duration": 0.053206333333335465,
          "durationTicks": 76,
          "midi": 86,
          "name": "D6",
          "ticks": 77760,
          "time": 54.43848,
          "velocity": 0.6929133858267716
        },
        {
          "duration": 0.053206333333335465,
          "durationTicks": 76,
          "midi": 86,
          "name": "D6",
          "ticks": 77880,
          "time": 54.52249,
          "velocity": 0.6929133858267716
        },
        {
          "duration": 0.05320633333332836,
          "durationTicks": 76,
          "midi": 86,
          "name": "D6",
          "ticks": 78000,
          "time": 54.606500000000004,
          "velocity": 0.6929133858267716
        },
        {
          "duration": 0.05320633333332836,
          "durationTicks": 76,
          "midi": 86,
          "name": "D6",
          "ticks": 78120,
          "time": 54.69051,
          "velocity": 0.6929133858267716
        },
        {
          "duration": 0.05320633333332836,
          "durationTicks": 76,
          "midi": 86,
          "name": "D6",
          "ticks": 78240,
          "time": 54.77452,
          "velocity": 0.6929133858267716
        },
        {
          "duration": 0.05320633333332836,
          "durationTicks": 76,
          "midi": 86,
          "name": "D6",
          "ticks": 78360,
          "time": 54.85853,
          "velocity": 0.6929133858267716
        },
        {
          "duration": 0.053206333333335465,
          "durationTicks": 76,
          "midi": 84,
          "name": "C6",
          "ticks": 78480,
          "time": 54.94254,
          "velocity": 0.6929133858267716
        },
        {
          "duration": 0.053206333333335465,
          "durationTicks": 76,
          "midi": 84,
          "name": "C6",
          "ticks": 78600,
          "time": 55.02655,
          "velocity": 0.6929133858267716
        },
        {
          "duration": 0.053206333333335465,
          "durationTicks": 76,
          "midi": 84,
          "name": "C6",
          "ticks": 78720,
          "time": 55.11056,
          "velocity": 0.6929133858267716
        },
        {
          "duration": 0.053206333333335465,
          "durationTicks": 76,
          "midi": 84,
          "name": "C6",
          "ticks": 78840,
          "time": 55.19457,
          "velocity": 0.6929133858267716
        },
        {
          "duration": 0.053206333333335465,
          "durationTicks": 76,
          "midi": 84,
          "name": "C6",
          "ticks": 78960,
          "time": 55.27858,
          "velocity": 0.6929133858267716
        },
        {
          "duration": 0.05320633333332836,
          "durationTicks": 76,
          "midi": 84,
          "name": "C6",
          "ticks": 79080,
          "time": 55.362590000000004,
          "velocity": 0.6929133858267716
        },
        {
          "duration": 0.05320633333332836,
          "durationTicks": 76,
          "midi": 86,
          "name": "D6",
          "ticks": 79200,
          "time": 55.446600000000004,
          "velocity": 0.6929133858267716
        },
        {
          "duration": 0.05320633333332836,
          "durationTicks": 76,
          "midi": 86,
          "name": "D6",
          "ticks": 79320,
          "time": 55.53061,
          "velocity": 0.6929133858267716
        },
        {
          "duration": 0.05320633333332836,
          "durationTicks": 76,
          "midi": 86,
          "name": "D6",
          "ticks": 79440,
          "time": 55.61462,
          "velocity": 0.6929133858267716
        },
        {
          "duration": 0.053206333333335465,
          "durationTicks": 76,
          "midi": 86,
          "name": "D6",
          "ticks": 79560,
          "time": 55.69863,
          "velocity": 0.6929133858267716
        },
        {
          "duration": 0.053206333333335465,
          "durationTicks": 76,
          "midi": 86,
          "name": "D6",
          "ticks": 79680,
          "time": 55.78264,
          "velocity": 0.6929133858267716
        },
        {
          "duration": 0.053206333333335465,
          "durationTicks": 76,
          "midi": 86,
          "name": "D6",
          "ticks": 79800,
          "time": 55.86665,
          "velocity": 0.6929133858267716
        },
        {
          "duration": 0.053206333333335465,
          "durationTicks": 76,
          "midi": 86,
          "name": "D6",
          "ticks": 79920,
          "time": 55.95066,
          "velocity": 0.6929133858267716
        },
        {
          "duration": 0.053206333333335465,
          "durationTicks": 76,
          "midi": 86,
          "name": "D6",
          "ticks": 80040,
          "time": 56.03467,
          "velocity": 0.6929133858267716
        },
        {
          "duration": 0.053206333333335465,
          "durationTicks": 76,
          "midi": 86,
          "name": "D6",
          "ticks": 80160,
          "time": 56.11868,
          "velocity": 0.6929133858267716
        },
        {
          "duration": 0.05320633333332836,
          "durationTicks": 76,
          "midi": 86,
          "name": "D6",
          "ticks": 80280,
          "time": 56.202690000000004,
          "velocity": 0.6929133858267716
        },
        {
          "duration": 0.05320633333332836,
          "durationTicks": 76,
          "midi": 86,
          "name": "D6",
          "ticks": 80400,
          "time": 56.2867,
          "velocity": 0.6929133858267716
        },
        {
          "duration": 0.05320633333332836,
          "durationTicks": 76,
          "midi": 86,
          "name": "D6",
          "ticks": 80520,
          "time": 56.37071,
          "velocity": 0.6929133858267716
        },
        {
          "duration": 0.05320633333332836,
          "durationTicks": 76,
          "midi": 86,
          "name": "D6",
          "ticks": 80640,
          "time": 56.45472,
          "velocity": 0.6929133858267716
        },
        {
          "duration": 0.053206333333335465,
          "durationTicks": 76,
          "midi": 86,
          "name": "D6",
          "ticks": 80760,
          "time": 56.53873,
          "velocity": 0.6929133858267716
        },
        {
          "duration": 0.053206333333335465,
          "durationTicks": 76,
          "midi": 86,
          "name": "D6",
          "ticks": 80880,
          "time": 56.62274,
          "velocity": 0.6929133858267716
        },
        {
          "duration": 0.053206333333335465,
          "durationTicks": 76,
          "midi": 86,
          "name": "D6",
          "ticks": 81000,
          "time": 56.70675,
          "velocity": 0.6929133858267716
        },
        {
          "duration": 0.053206333333335465,
          "durationTicks": 76,
          "midi": 86,
          "name": "D6",
          "ticks": 81120,
          "time": 56.79076,
          "velocity": 0.6929133858267716
        },
        {
          "duration": 0.053206333333335465,
          "durationTicks": 76,
          "midi": 86,
          "name": "D6",
          "ticks": 81240,
          "time": 56.87477,
          "velocity": 0.6929133858267716
        },
        {
          "duration": 0.05320633333332836,
          "durationTicks": 76,
          "midi": 86,
          "name": "D6",
          "ticks": 81360,
          "time": 56.958780000000004,
          "velocity": 0.6929133858267716
        },
        {
          "duration": 0.05320633333332836,
          "durationTicks": 76,
          "midi": 86,
          "name": "D6",
          "ticks": 81480,
          "time": 57.042790000000004,
          "velocity": 0.6929133858267716
        },
        {
          "duration": 0.05320633333332836,
          "durationTicks": 76,
          "midi": 86,
          "name": "D6",
          "ticks": 81600,
          "time": 57.1268,
          "velocity": 0.6929133858267716
        },
        {
          "duration": 0.05320633333332836,
          "durationTicks": 76,
          "midi": 86,
          "name": "D6",
          "ticks": 81720,
          "time": 57.21081,
          "velocity": 0.6929133858267716
        },
        {
          "duration": 0.053206333333335465,
          "durationTicks": 76,
          "midi": 86,
          "name": "D6",
          "ticks": 81840,
          "time": 57.29482,
          "velocity": 0.6929133858267716
        },
        {
          "duration": 0.053206333333335465,
          "durationTicks": 76,
          "midi": 86,
          "name": "D6",
          "ticks": 81960,
          "time": 57.37883,
          "velocity": 0.6929133858267716
        },
        {
          "duration": 0.053206333333335465,
          "durationTicks": 76,
          "midi": 84,
          "name": "C6",
          "ticks": 82080,
          "time": 57.46284,
          "velocity": 0.6929133858267716
        },
        {
          "duration": 0.053206333333335465,
          "durationTicks": 76,
          "midi": 84,
          "name": "C6",
          "ticks": 82200,
          "time": 57.54685,
          "velocity": 0.6929133858267716
        },
        {
          "duration": 0.053206333333335465,
          "durationTicks": 76,
          "midi": 84,
          "name": "C6",
          "ticks": 82320,
          "time": 57.63086,
          "velocity": 0.6929133858267716
        },
        {
          "duration": 0.053206333333335465,
          "durationTicks": 76,
          "midi": 84,
          "name": "C6",
          "ticks": 82440,
          "time": 57.71487,
          "velocity": 0.6929133858267716
        },
        {
          "duration": 0.05320633333332836,
          "durationTicks": 76,
          "midi": 84,
          "name": "C6",
          "ticks": 82560,
          "time": 57.798880000000004,
          "velocity": 0.6929133858267716
        },
        {
          "duration": 0.05320633333332836,
          "durationTicks": 76,
          "midi": 84,
          "name": "C6",
          "ticks": 82680,
          "time": 57.88289,
          "velocity": 0.6929133858267716
        },
        {
          "duration": 0.05320633333332836,
          "durationTicks": 76,
          "midi": 84,
          "name": "C6",
          "ticks": 82800,
          "time": 57.9669,
          "velocity": 0.6929133858267716
        },
        {
          "duration": 0.05320633333332836,
          "durationTicks": 76,
          "midi": 84,
          "name": "C6",
          "ticks": 82920,
          "time": 58.05091,
          "velocity": 0.6929133858267716
        },
        {
          "duration": 0.053206333333335465,
          "durationTicks": 76,
          "midi": 86,
          "name": "D6",
          "ticks": 83040,
          "time": 58.13492,
          "velocity": 0.6929133858267716
        },
        {
          "duration": 0.053206333333335465,
          "durationTicks": 76,
          "midi": 86,
          "name": "D6",
          "ticks": 83160,
          "time": 58.21893,
          "velocity": 0.6929133858267716
        },
        {
          "duration": 0.053206333333335465,
          "durationTicks": 76,
          "midi": 87,
          "name": "D#6",
          "ticks": 83280,
          "time": 58.30294,
          "velocity": 0.6929133858267716
        },
        {
          "duration": 0.053206333333335465,
          "durationTicks": 76,
          "midi": 87,
          "name": "D#6",
          "ticks": 83400,
          "time": 58.38695,
          "velocity": 0.6929133858267716
        },
        {
          "duration": 0.053206333333335465,
          "durationTicks": 76,
          "midi": 86,
          "name": "D6",
          "ticks": 83520,
          "time": 58.47096,
          "velocity": 0.6929133858267716
        },
        {
          "duration": 0.05320633333332836,
          "durationTicks": 76,
          "midi": 86,
          "name": "D6",
          "ticks": 83640,
          "time": 58.554970000000004,
          "velocity": 0.6929133858267716
        },
        {
          "duration": 0.05320633333332836,
          "durationTicks": 76,
          "midi": 86,
          "name": "D6",
          "ticks": 83760,
          "time": 58.638980000000004,
          "velocity": 0.6929133858267716
        },
        {
          "duration": 0.05320633333332836,
          "durationTicks": 76,
          "midi": 86,
          "name": "D6",
          "ticks": 83880,
          "time": 58.72299,
          "velocity": 0.6929133858267716
        },
        {
          "duration": 0.05320633333332836,
          "durationTicks": 76,
          "midi": 86,
          "name": "D6",
          "ticks": 84000,
          "time": 58.807,
          "velocity": 0.6929133858267716
        },
        {
          "duration": 0.053206333333335465,
          "durationTicks": 76,
          "midi": 86,
          "name": "D6",
          "ticks": 84120,
          "time": 58.89101,
          "velocity": 0.6929133858267716
        },
        {
          "duration": 0.053206333333335465,
          "durationTicks": 76,
          "midi": 84,
          "name": "C6",
          "ticks": 84240,
          "time": 58.97502,
          "velocity": 0.6929133858267716
        },
        {
          "duration": 0.053206333333335465,
          "durationTicks": 76,
          "midi": 84,
          "name": "C6",
          "ticks": 84360,
          "time": 59.05903,
          "velocity": 0.6929133858267716
        },
        {
          "duration": 0.053206333333335465,
          "durationTicks": 76,
          "midi": 84,
          "name": "C6",
          "ticks": 84480,
          "time": 59.14304,
          "velocity": 0.6929133858267716
        },
        {
          "duration": 0.053206333333335465,
          "durationTicks": 76,
          "midi": 84,
          "name": "C6",
          "ticks": 84600,
          "time": 59.22705,
          "velocity": 0.6929133858267716
        },
        {
          "duration": 0.053206333333335465,
          "durationTicks": 76,
          "midi": 84,
          "name": "C6",
          "ticks": 84720,
          "time": 59.31106,
          "velocity": 0.6929133858267716
        },
        {
          "duration": 0.05320633333332836,
          "durationTicks": 76,
          "midi": 84,
          "name": "C6",
          "ticks": 84840,
          "time": 59.395070000000004,
          "velocity": 0.6929133858267716
        },
        {
          "duration": 0.1092129999999969,
          "durationTicks": 156,
          "midi": 82,
          "name": "A#5",
          "ticks": 84960,
          "time": 59.47908,
          "velocity": 0.6929133858267716
        },
        {
          "duration": 0.1092129999999969,
          "durationTicks": 156,
          "midi": 62,
          "name": "D4",
          "ticks": 85200,
          "time": 59.6471,
          "velocity": 0.3464566929133858
        },
        {
          "duration": 0.1092129999999969,
          "durationTicks": 156,
          "midi": 62,
          "name": "D4",
          "ticks": 85440,
          "time": 59.81512,
          "velocity": 0.3464566929133858
        },
        {
          "duration": 0.1092129999999969,
          "durationTicks": 156,
          "midi": 62,
          "name": "D4",
          "ticks": 85680,
          "time": 59.98314,
          "velocity": 0.3464566929133858
        },
        {
          "duration": 0.10921299999998979,
          "durationTicks": 156,
          "midi": 62,
          "name": "D4",
          "ticks": 85920,
          "time": 60.151160000000004,
          "velocity": 0.3464566929133858
        },
        {
          "duration": 0.1092129999999969,
          "durationTicks": 156,
          "midi": 62,
          "name": "D4",
          "ticks": 86160,
          "time": 60.31918,
          "velocity": 0.3464566929133858
        },
        {
          "duration": 0.1092129999999969,
          "durationTicks": 156,
          "midi": 60,
          "name": "C4",
          "ticks": 86640,
          "time": 60.65522,
          "velocity": 0.3464566929133858
        },
        {
          "duration": 0.1092129999999969,
          "durationTicks": 156,
          "midi": 60,
          "name": "C4",
          "ticks": 86880,
          "time": 60.82324,
          "velocity": 0.3464566929133858
        },
        {
          "duration": 0.08120966666666618,
          "durationTicks": 116,
          "midi": 60,
          "name": "C4",
          "ticks": 87120,
          "time": 60.991260000000004,
          "velocity": 0.3464566929133858
        },
        {
          "duration": 0.19322299999999615,
          "durationTicks": 276,
          "midi": 60,
          "name": "C4",
          "ticks": 87360,
          "time": 61.15928,
          "velocity": 0.3464566929133858
        },
        {
          "duration": 0.1092129999999969,
          "durationTicks": 156,
          "midi": 63,
          "name": "D#4",
          "ticks": 87600,
          "time": 61.3273,
          "velocity": 0.3464566929133858
        },
        {
          "duration": 0.1092129999999969,
          "durationTicks": 156,
          "midi": 62,
          "name": "D4",
          "ticks": 88080,
          "time": 61.66334,
          "velocity": 0.3464566929133858
        },
        {
          "duration": 0.1092129999999969,
          "durationTicks": 156,
          "midi": 62,
          "name": "D4",
          "ticks": 88320,
          "time": 61.831360000000004,
          "velocity": 0.3464566929133858
        },
        {
          "duration": 0.1092129999999969,
          "durationTicks": 156,
          "midi": 62,
          "name": "D4",
          "ticks": 88560,
          "time": 61.99938,
          "velocity": 0.3464566929133858
        },
        {
          "duration": 0.1092129999999969,
          "durationTicks": 156,
          "midi": 62,
          "name": "D4",
          "ticks": 88800,
          "time": 62.1674,
          "velocity": 0.3464566929133858
        },
        {
          "duration": 0.1092129999999969,
          "durationTicks": 156,
          "midi": 62,
          "name": "D4",
          "ticks": 89040,
          "time": 62.33542,
          "velocity": 0.3464566929133858
        },
        {
          "duration": 0.1092129999999969,
          "durationTicks": 156,
          "midi": 60,
          "name": "C4",
          "ticks": 89520,
          "time": 62.67146,
          "velocity": 0.3464566929133858
        },
        {
          "duration": 0.1092129999999969,
          "durationTicks": 156,
          "midi": 60,
          "name": "C4",
          "ticks": 89760,
          "time": 62.83948,
          "velocity": 0.3464566929133858
        },
        {
          "duration": 0.08120966666667329,
          "durationTicks": 116,
          "midi": 60,
          "name": "C4",
          "ticks": 90000,
          "time": 63.0075,
          "velocity": 0.3464566929133858
        },
        {
          "duration": 0.16521966666667254,
          "durationTicks": 236,
          "midi": 60,
          "name": "C4",
          "ticks": 90240,
          "time": 63.17552,
          "velocity": 0.3464566929133858
        },
        {
          "duration": 0.10921299999998979,
          "durationTicks": 156,
          "midi": 63,
          "name": "D#4",
          "ticks": 90480,
          "time": 63.343540000000004,
          "velocity": 0.3464566929133858
        },
        {
          "duration": 0.08120966666666618,
          "durationTicks": 116,
          "midi": 62,
          "name": "D4",
          "ticks": 90720,
          "time": 63.51156,
          "velocity": 0.3464566929133858
        },
        {
          "duration": 0.08120966666666618,
          "durationTicks": 116,
          "midi": 65,
          "name": "F4",
          "ticks": 91440,
          "time": 64.01562,
          "velocity": 0.3464566929133858
        },
        {
          "duration": 0.08120966666668039,
          "durationTicks": 116,
          "midi": 62,
          "name": "D4",
          "ticks": 92160,
          "time": 64.51968,
          "velocity": 0.3464566929133858
        },
        {
          "duration": 0.45925466666666637,
          "durationTicks": 656,
          "midi": 70,
          "name": "A#4",
          "ticks": 99360,
          "time": 69.56028,
          "velocity": 0.30708661417322836
        },
        {
          "duration": 0.03920466666667721,
          "durationTicks": 56,
          "midi": 74,
          "name": "D5",
          "ticks": 100020,
          "time": 70.022335,
          "velocity": 0.30708661417322836
        },
        {
          "duration": 0.08120966666666618,
          "durationTicks": 116,
          "midi": 72,
          "name": "C5",
          "ticks": 100080,
          "time": 70.06434,
          "velocity": 0.30708661417322836
        },
        {
          "duration": 0.03920466666667721,
          "durationTicks": 56,
          "midi": 70,
          "name": "A#4",
          "ticks": 100320,
          "time": 70.23236,
          "velocity": 0.30708661417322836
        },
        {
          "duration": 0.03920466666667721,
          "durationTicks": 56,
          "midi": 72,
          "name": "C5",
          "ticks": 100560,
          "time": 70.40038,
          "velocity": 0.30708661417322836
        },
        {
          "duration": 0.33323966666667104,
          "durationTicks": 476,
          "midi": 74,
          "name": "D5",
          "ticks": 100800,
          "time": 70.5684,
          "velocity": 0.30708661417322836
        },
        {
          "duration": 0.039204666666663,
          "durationTicks": 56,
          "midi": 70,
          "name": "A#4",
          "ticks": 101280,
          "time": 70.90444000000001,
          "velocity": 0.30708661417322836
        },
        {
          "duration": 0.33323966666665683,
          "durationTicks": 476,
          "midi": 75,
          "name": "D#5",
          "ticks": 101520,
          "time": 71.07246,
          "velocity": 0.30708661417322836
        },
        {
          "duration": 0.039204666666663,
          "durationTicks": 56,
          "midi": 74,
          "name": "D5",
          "ticks": 102000,
          "time": 71.4085,
          "velocity": 0.30708661417322836
        },
        {
          "duration": 0.08120966666666618,
          "durationTicks": 116,
          "midi": 74,
          "name": "D5",
          "ticks": 102180,
          "time": 71.534515,
          "velocity": 0.30708661417322836
        },
        {
          "duration": 0.039204666666663,
          "durationTicks": 56,
          "midi": 72,
          "name": "C5",
          "ticks": 102240,
          "time": 71.57652,
          "velocity": 0.30708661417322836
        },
        {
          "duration": 0.039204666666663,
          "durationTicks": 56,
          "midi": 71,
          "name": "B4",
          "ticks": 102480,
          "time": 71.74454,
          "velocity": 0.30708661417322836
        },
        {
          "duration": 0.03920466666667721,
          "durationTicks": 56,
          "midi": 72,
          "name": "C5",
          "ticks": 102720,
          "time": 71.91256,
          "velocity": 0.30708661417322836
        },
        {
          "duration": 0.16521966666667254,
          "durationTicks": 236,
          "midi": 67,
          "name": "G4",
          "ticks": 102960,
          "time": 72.08058,
          "velocity": 0.30708661417322836
        },
        {
          "duration": 0.16521966666667254,
          "durationTicks": 236,
          "midi": 72,
          "name": "C5",
          "ticks": 103200,
          "time": 72.2486,
          "velocity": 0.30708661417322836
        },
        {
          "duration": 0.12321466666666936,
          "durationTicks": 176,
          "midi": 70,
          "name": "A#4",
          "ticks": 103440,
          "time": 72.41662,
          "velocity": 0.30708661417322836
        },
        {
          "duration": 1.005319666666665,
          "durationTicks": 1436,
          "midi": 69,
          "name": "A4",
          "ticks": 103680,
          "time": 72.58464000000001,
          "velocity": 0.30708661417322836
        },
        {
          "duration": 0.16521966666667254,
          "durationTicks": 236,
          "midi": 70,
          "name": "A#4",
          "ticks": 105120,
          "time": 73.59276,
          "velocity": 0.23622047244094488
        },
        {
          "duration": 0.053206333333335465,
          "durationTicks": 76,
          "midi": 60,
          "name": "C4",
          "ticks": 110160,
          "time": 77.12118,
          "velocity": 0.3464566929133858
        },
        {
          "duration": 0.053206333333321254,
          "durationTicks": 76,
          "midi": 60,
          "name": "C4",
          "ticks": 110400,
          "time": 77.28920000000001,
          "velocity": 0.3464566929133858
        },
        {
          "duration": 0.053206333333321254,
          "durationTicks": 76,
          "midi": 60,
          "name": "C4",
          "ticks": 110640,
          "time": 77.45722,
          "velocity": 0.3464566929133858
        },
        {
          "duration": 0.24922966666666468,
          "durationTicks": 356,
          "midi": 60,
          "name": "C4",
          "ticks": 110880,
          "time": 77.62524,
          "velocity": 0.2677165354330709
        },
        {
          "duration": 0.053206333333335465,
          "durationTicks": 76,
          "midi": 72,
          "name": "C5",
          "ticks": 111600,
          "time": 78.1293,
          "velocity": 0.3464566929133858
        },
        {
          "duration": 0.053206333333335465,
          "durationTicks": 76,
          "midi": 72,
          "name": "C5",
          "ticks": 111840,
          "time": 78.29732,
          "velocity": 0.3464566929133858
        },
        {
          "duration": 0.053206333333335465,
          "durationTicks": 76,
          "midi": 72,
          "name": "C5",
          "ticks": 112080,
          "time": 78.46534,
          "velocity": 0.3464566929133858
        },
        {
          "duration": 0.2492296666666789,
          "durationTicks": 356,
          "midi": 72,
          "name": "C5",
          "ticks": 112320,
          "time": 78.63336,
          "velocity": 0.2677165354330709
        },
        {
          "duration": 1.005319666666665,
          "durationTicks": 1436,
          "midi": 74,
          "name": "D5",
          "ticks": 120960,
          "time": 84.68208,
          "velocity": 0.2047244094488189
        },
        {
          "duration": 0.16521966666667254,
          "durationTicks": 236,
          "midi": 75,
          "name": "D#5",
          "ticks": 122400,
          "time": 85.6902,
          "velocity": 0.2047244094488189
        },
        {
          "duration": 1.0053196666666793,
          "durationTicks": 1436,
          "midi": 74,
          "name": "D5",
          "ticks": 123840,
          "time": 86.69832,
          "velocity": 0.2047244094488189
        },
        {
          "duration": 0.16521966666667254,
          "durationTicks": 236,
          "midi": 75,
          "name": "D#5",
          "ticks": 125280,
          "time": 87.70644,
          "velocity": 0.2047244094488189
        },
        {
          "duration": 1.117332999999988,
          "durationTicks": 1596,
          "midi": 74,
          "name": "D5",
          "ticks": 126720,
          "time": 88.71456,
          "velocity": 0.2047244094488189
        },
        {
          "duration": 0.16521966666667254,
          "durationTicks": 236,
          "midi": 73,
          "name": "C#5",
          "ticks": 128160,
          "time": 89.72268,
          "velocity": 0.2047244094488189
        },
        {
          "duration": 1.005319666666665,
          "durationTicks": 1436,
          "midi": 65,
          "name": "F4",
          "ticks": 129600,
          "time": 90.7308,
          "velocity": 0.2047244094488189
        },
        {
          "duration": 1.005319666666665,
          "durationTicks": 1436,
          "midi": 68,
          "name": "G#4",
          "ticks": 131040,
          "time": 91.73892000000001,
          "velocity": 0.23622047244094488
        },
        {
          "duration": 1.0053196666666793,
          "durationTicks": 1436,
          "midi": 71,
          "name": "B4",
          "ticks": 132480,
          "time": 92.74704,
          "velocity": 0.28346456692913385
        },
        {
          "duration": 1.005319666666665,
          "durationTicks": 1436,
          "midi": 77,
          "name": "F5",
          "ticks": 133920,
          "time": 93.75516,
          "velocity": 0.33070866141732286
        },
        {
          "duration": 0.22122633333334818,
          "durationTicks": 316,
          "midi": 76,
          "name": "E5",
          "ticks": 135360,
          "time": 94.76328,
          "velocity": 0.25984251968503935
        },
        {
          "duration": 0.08120966666666618,
          "durationTicks": 116,
          "midi": 72,
          "name": "C5",
          "ticks": 141120,
          "time": 98.79576,
          "velocity": 0.5196850393700787
        },
        {
          "duration": 0.16521966666667254,
          "durationTicks": 236,
          "midi": 76,
          "name": "E5",
          "ticks": 141600,
          "time": 99.1318,
          "velocity": 0.5748031496062992
        },
        {
          "duration": 0.08120966666668039,
          "durationTicks": 116,
          "midi": 79,
          "name": "G5",
          "ticks": 141840,
          "time": 99.29982,
          "velocity": 0.6062992125984252
        },
        {
          "duration": 0.16521966666665833,
          "durationTicks": 236,
          "midi": 83,
          "name": "B5",
          "ticks": 142320,
          "time": 99.63586000000001,
          "velocity": 0.6614173228346457
        },
        {
          "duration": 0.08120966666666618,
          "durationTicks": 116,
          "midi": 84,
          "name": "C6",
          "ticks": 142560,
          "time": 99.80388,
          "velocity": 0.6141732283464567
        },
        {
          "duration": 0.16521966666667254,
          "durationTicks": 236,
          "midi": 85,
          "name": "C#6",
          "ticks": 143040,
          "time": 100.13992,
          "velocity": 0.30708661417322836
        },
        {
          "duration": 0.08120966666666618,
          "durationTicks": 116,
          "midi": 86,
          "name": "D6",
          "ticks": 143280,
          "time": 100.30794,
          "velocity": 0.2992125984251969
        },
        {
          "duration": 0.16521966666667254,
          "durationTicks": 236,
          "midi": 84,
          "name": "C6",
          "ticks": 143760,
          "time": 100.64398,
          "velocity": 0.28346456692913385
        },
        {
          "duration": 0.08120966666666618,
          "durationTicks": 116,
          "midi": 82,
          "name": "A#5",
          "ticks": 144000,
          "time": 100.812,
          "velocity": 0.2677165354330709
        },
        {
          "duration": 0.16521966666667254,
          "durationTicks": 236,
          "midi": 81,
          "name": "A5",
          "ticks": 144480,
          "time": 101.14804,
          "velocity": 0.2440944881889764
        },
        {
          "duration": 0.08120966666666618,
          "durationTicks": 116,
          "midi": 79,
          "name": "G5",
          "ticks": 144720,
          "time": 101.31606000000001,
          "velocity": 0.2283464566929134
        },
        {
          "duration": 0.5852696666666617,
          "durationTicks": 836,
          "midi": 65,
          "name": "F4",
          "ticks": 177120,
          "time": 123.99876,
          "velocity": 0.25984251968503935
        },
        {
          "duration": 0.08120966666666618,
          "durationTicks": 116,
          "midi": 65,
          "name": "F4",
          "ticks": 178080,
          "time": 124.67084,
          "velocity": 0.3543307086614173
        },
        {
          "duration": 0.08120966666668039,
          "durationTicks": 116,
          "midi": 65,
          "name": "F4",
          "ticks": 178320,
          "time": 124.83886,
          "velocity": 0.28346456692913385
        },
        {
          "duration": 0.5852696666666759,
          "durationTicks": 836,
          "midi": 67,
          "name": "G4",
          "ticks": 178560,
          "time": 125.00688,
          "velocity": 0.28346456692913385
        },
        {
          "duration": 0.08120966666666618,
          "durationTicks": 116,
          "midi": 67,
          "name": "G4",
          "ticks": 179520,
          "time": 125.67896,
          "velocity": 0.3858267716535433
        },
        {
          "duration": 0.08120966666666618,
          "durationTicks": 116,
          "midi": 67,
          "name": "G4",
          "ticks": 179760,
          "time": 125.84698,
          "velocity": 0.30708661417322836
        },
        {
          "duration": 0.5852696666666759,
          "durationTicks": 836,
          "midi": 69,
          "name": "A4",
          "ticks": 180000,
          "time": 126.015,
          "velocity": 0.31496062992125984
        },
        {
          "duration": 0.08120966666666618,
          "durationTicks": 116,
          "midi": 69,
          "name": "A4",
          "ticks": 180960,
          "time": 126.68708000000001,
          "velocity": 0.41732283464566927
        },
        {
          "duration": 0.08120966666666618,
          "durationTicks": 116,
          "midi": 69,
          "name": "A4",
          "ticks": 181200,
          "time": 126.85510000000001,
          "velocity": 0.33858267716535434
        },
        {
          "duration": 0.5852696666666617,
          "durationTicks": 836,
          "midi": 70,
          "name": "A#4",
          "ticks": 181440,
          "time": 127.02312,
          "velocity": 0.3464566929133858
        },
        {
          "duration": 0.08120966666666618,
          "durationTicks": 116,
          "midi": 70,
          "name": "A#4",
          "ticks": 182400,
          "time": 127.6952,
          "velocity": 0.4409448818897638
        },
        {
          "duration": 0.08120966666666618,
          "durationTicks": 116,
          "midi": 70,
          "name": "A#4",
          "ticks": 182640,
          "time": 127.86322,
          "velocity": 0.3700787401574803
        },
        {
          "duration": 0.2492296666666789,
          "durationTicks": 356,
          "midi": 72,
          "name": "C5",
          "ticks": 182880,
          "time": 128.03124,
          "velocity": 0.4094488188976378
        },
        {
          "duration": 0.2492296666666789,
          "durationTicks": 356,
          "midi": 72,
          "name": "C5",
          "ticks": 183600,
          "time": 128.5353,
          "velocity": 0.4251968503937008
        },
        {
          "duration": 0.16521966666667254,
          "durationTicks": 236,
          "midi": 72,
          "name": "C5",
          "ticks": 184320,
          "time": 129.03936,
          "velocity": 0.44881889763779526
        },
        {
          "duration": 0.08120966666666618,
          "durationTicks": 116,
          "midi": 75,
          "name": "D#5",
          "ticks": 185040,
          "time": 129.54342,
          "velocity": 0.4645669291338583
        },
        {
          "duration": 0.09055153333332555,
          "durationTicks": 116,
          "midi": 72,
          "name": "C5",
          "ticks": 185760,
          "time": 130.04748,
          "velocity": 0.4881889763779528
        },
        {
          "duration": 0.10262592500001233,
          "durationTicks": 116,
          "midi": 69,
          "name": "A4",
          "ticks": 186480,
          "time": 130.609524,
          "velocity": 0.5039370078740157
        },
        {
          "duration": 0.680717808333327,
          "durationTicks": 956,
          "midi": 63,
          "name": "D#4",
          "ticks": 187200,
          "time": 131.2465125,
          "velocity": 0.5275590551181102
        },
        {
          "duration": 0.08120966666666618,
          "durationTicks": 116,
          "midi": 70,
          "name": "A#4",
          "ticks": 226080,
          "time": 167.13212012500003,
          "velocity": 0.6062992125984252
        },
        {
          "duration": 0.16521966666664412,
          "durationTicks": 236,
          "midi": 74,
          "name": "D5",
          "ticks": 226560,
          "time": 167.46816012500003,
          "velocity": 0.6062992125984252
        },
        {
          "duration": 0.08120966666666618,
          "durationTicks": 116,
          "midi": 77,
          "name": "F5",
          "ticks": 226800,
          "time": 167.636180125,
          "velocity": 0.6062992125984252
        },
        {
          "duration": 0.16521966666667254,
          "durationTicks": 236,
          "midi": 82,
          "name": "A#5",
          "ticks": 227280,
          "time": 167.972220125,
          "velocity": 0.6062992125984252
        },
        {
          "duration": 0.6692796666666538,
          "durationTicks": 956,
          "midi": 77,
          "name": "F5",
          "ticks": 227520,
          "time": 168.14024012500002,
          "velocity": 0.6062992125984252
        },
        {
          "duration": 0.16521966666667254,
          "durationTicks": 236,
          "midi": 74,
          "name": "D5",
          "ticks": 228480,
          "time": 168.812320125,
          "velocity": 0.6062992125984252
        },
        {
          "duration": 0.16521966666664412,
          "durationTicks": 236,
          "midi": 70,
          "name": "A#4",
          "ticks": 228720,
          "time": 168.98034012500003,
          "velocity": 0.6062992125984252
        },
        {
          "duration": 0.08120966666666618,
          "durationTicks": 116,
          "midi": 69,
          "name": "A4",
          "ticks": 228960,
          "time": 169.148360125,
          "velocity": 0.6062992125984252
        },
        {
          "duration": 0.16521966666667254,
          "durationTicks": 236,
          "midi": 77,
          "name": "F5",
          "ticks": 229440,
          "time": 169.484400125,
          "velocity": 0.6062992125984252
        },
        {
          "duration": 0.08120966666666618,
          "durationTicks": 116,
          "midi": 70,
          "name": "A#4",
          "ticks": 229680,
          "time": 169.65242012500002,
          "velocity": 0.6062992125984252
        },
        {
          "duration": 0.16521966666667254,
          "durationTicks": 236,
          "midi": 77,
          "name": "F5",
          "ticks": 230160,
          "time": 169.98846012500002,
          "velocity": 0.6062992125984252
        },
        {
          "duration": 0.5012596666666411,
          "durationTicks": 716,
          "midi": 74,
          "name": "D5",
          "ticks": 230400,
          "time": 170.15648012500003,
          "velocity": 0.6062992125984252
        },
        {
          "duration": 0.16521966666667254,
          "durationTicks": 236,
          "midi": 72,
          "name": "C5",
          "ticks": 231120,
          "time": 170.660540125,
          "velocity": 0.44881889763779526
        },
        {
          "duration": 0.08120966666666618,
          "durationTicks": 116,
          "midi": 74,
          "name": "D5",
          "ticks": 231840,
          "time": 171.16460012500002,
          "velocity": 0.5196850393700787
        },
        {
          "duration": 0.16521966666667254,
          "durationTicks": 236,
          "midi": 69,
          "name": "A4",
          "ticks": 232080,
          "time": 171.332620125,
          "velocity": 0.5433070866141733
        },
        {
          "duration": 0.16521966666667254,
          "durationTicks": 236,
          "midi": 70,
          "name": "A#4",
          "ticks": 232320,
          "time": 171.50064012500002,
          "velocity": 0.5748031496062992
        },
        {
          "duration": 0.0812096666666946,
          "durationTicks": 116,
          "midi": 75,
          "name": "D#5",
          "ticks": 232560,
          "time": 171.668660125,
          "velocity": 0.6062992125984252
        },
        {
          "duration": 0.16521966666667254,
          "durationTicks": 236,
          "midi": 71,
          "name": "B4",
          "ticks": 232800,
          "time": 171.83668012500002,
          "velocity": 0.6377952755905512
        },
        {
          "duration": 0.16521966666664412,
          "durationTicks": 236,
          "midi": 72,
          "name": "C5",
          "ticks": 233040,
          "time": 172.00470012500003,
          "velocity": 0.6692913385826772
        },
        {
          "duration": 0.5012596666666695,
          "durationTicks": 716,
          "midi": 77,
          "name": "F5",
          "ticks": 233280,
          "time": 172.172720125,
          "velocity": 0.7007874015748031
        },
        {
          "duration": 0.1372163333333276,
          "durationTicks": 196,
          "midi": 82,
          "name": "A#5",
          "ticks": 234000,
          "time": 172.67678012500002,
          "velocity": 0.6062992125984252
        },
        {
          "duration": 0.08120966666666618,
          "durationTicks": 116,
          "midi": 65,
          "name": "F4",
          "ticks": 260640,
          "time": 191.327000125,
          "velocity": 0.3464566929133858
        },
        {
          "duration": 0.16521966666667254,
          "durationTicks": 236,
          "midi": 68,
          "name": "G#4",
          "ticks": 261120,
          "time": 191.663040125,
          "velocity": 0.3464566929133858
        },
        {
          "duration": 0.08120966666666618,
          "durationTicks": 116,
          "midi": 72,
          "name": "C5",
          "ticks": 261360,
          "time": 191.83106012500002,
          "velocity": 0.3464566929133858
        },
        {
          "duration": 0.16521966666667254,
          "durationTicks": 236,
          "midi": 77,
          "name": "F5",
          "ticks": 261840,
          "time": 192.16710012500002,
          "velocity": 0.3464566929133858
        },
        {
          "duration": 0.6692796666666823,
          "durationTicks": 956,
          "midi": 72,
          "name": "C5",
          "ticks": 262080,
          "time": 192.335120125,
          "velocity": 0.3464566929133858
        },
        {
          "duration": 0.16521966666664412,
          "durationTicks": 236,
          "midi": 70,
          "name": "A#4",
          "ticks": 263040,
          "time": 193.00720012500003,
          "velocity": 0.3464566929133858
        },
        {
          "duration": 0.16521966666667254,
          "durationTicks": 236,
          "midi": 67,
          "name": "G4",
          "ticks": 263280,
          "time": 193.175220125,
          "velocity": 0.3464566929133858
        },
        {
          "duration": 0.33323966666665683,
          "durationTicks": 476,
          "midi": 65,
          "name": "F4",
          "ticks": 263520,
          "time": 193.34324012500002,
          "velocity": 0.3464566929133858
        },
        {
          "duration": 0.08120966666666618,
          "durationTicks": 116,
          "midi": 65,
          "name": "F4",
          "ticks": 266400,
          "time": 195.359480125,
          "velocity": 0.3464566929133858
        },
        {
          "duration": 0.16521966666664412,
          "durationTicks": 236,
          "midi": 68,
          "name": "G#4",
          "ticks": 266880,
          "time": 195.69552012500003,
          "velocity": 0.3464566929133858
        },
        {
          "duration": 0.08120966666666618,
          "durationTicks": 116,
          "midi": 72,
          "name": "C5",
          "ticks": 267120,
          "time": 195.86354012500001,
          "velocity": 0.3464566929133858
        },
        {
          "duration": 0.16521966666667254,
          "durationTicks": 236,
          "midi": 65,
          "name": "F4",
          "ticks": 267600,
          "time": 196.199580125,
          "velocity": 0.3464566929133858
        },
        {
          "duration": 0.6692796666666538,
          "durationTicks": 956,
          "midi": 77,
          "name": "F5",
          "ticks": 267840,
          "time": 196.36760012500002,
          "velocity": 0.3464566929133858
        },
        {
          "duration": 0.2492296666666789,
          "durationTicks": 356,
          "midi": 74,
          "name": "D5",
          "ticks": 268800,
          "time": 197.03968012500002,
          "velocity": 0.3464566929133858
        },
        {
          "duration": 0.16521966666664412,
          "durationTicks": 236,
          "midi": 71,
          "name": "B4",
          "ticks": 269040,
          "time": 197.20770012500003,
          "velocity": 0.3464566929133858
        },
        {
          "duration": 0.33323966666665683,
          "durationTicks": 476,
          "midi": 72,
          "name": "C5",
          "ticks": 269280,
          "time": 197.37572012500002,
          "velocity": 0.3464566929133858
        },
        {
          "duration": 0.08120966666666618,
          "durationTicks": 116,
          "midi": 67,
          "name": "G4",
          "ticks": 272160,
          "time": 199.39196012500003,
          "velocity": 0.3464566929133858
        },
        {
          "duration": 0.16521966666667254,
          "durationTicks": 236,
          "midi": 70,
          "name": "A#4",
          "ticks": 272640,
          "time": 199.72800012500002,
          "velocity": 0.3464566929133858
        },
        {
          "duration": 0.08120966666666618,
          "durationTicks": 116,
          "midi": 74,
          "name": "D5",
          "ticks": 272880,
          "time": 199.896020125,
          "velocity": 0.3464566929133858
        },
        {
          "duration": 0.16521966666664412,
          "durationTicks": 236,
          "midi": 67,
          "name": "G4",
          "ticks": 273360,
          "time": 200.23206012500003,
          "velocity": 0.3464566929133858
        },
        {
          "duration": 0.6692796666666538,
          "durationTicks": 956,
          "midi": 79,
          "name": "G5",
          "ticks": 273600,
          "time": 200.40008012500002,
          "velocity": 0.3464566929133858
        },
        {
          "duration": 0.16521966666667254,
          "durationTicks": 236,
          "midi": 76,
          "name": "E5",
          "ticks": 274560,
          "time": 201.072160125,
          "velocity": 0.3464566929133858
        },
        {
          "duration": 0.16521966666667254,
          "durationTicks": 236,
          "midi": 73,
          "name": "C#5",
          "ticks": 274800,
          "time": 201.24018012500002,
          "velocity": 0.3464566929133858
        },
        {
          "duration": 0.33323966666665683,
          "durationTicks": 476,
          "midi": 74,
          "name": "D5",
          "ticks": 275040,
          "time": 201.408200125,
          "velocity": 0.3464566929133858
        },
        {
          "duration": 0.5012596666666695,
          "durationTicks": 716,
          "midi": 68,
          "name": "G#4",
          "ticks": 276480,
          "time": 202.41632012500003,
          "velocity": 0.2677165354330709
        },
        {
          "duration": 0.5012596666666695,
          "durationTicks": 716,
          "midi": 69,
          "name": "A4",
          "ticks": 277200,
          "time": 202.920380125,
          "velocity": 0.3464566929133858
        },
        {
          "duration": 0.5012596666666695,
          "durationTicks": 716,
          "midi": 71,
          "name": "B4",
          "ticks": 277920,
          "time": 203.42444012500002,
          "velocity": 0.3937007874015748
        },
        {
          "duration": 0.5012596666666695,
          "durationTicks": 716,
          "midi": 69,
          "name": "A4",
          "ticks": 278640,
          "time": 203.92850012500003,
          "velocity": 0.3464566929133858
        },
        {
          "duration": 0.5012596666666695,
          "durationTicks": 716,
          "midi": 68,
          "name": "G#4",
          "ticks": 279360,
          "time": 204.432560125,
          "velocity": 0.2677165354330709
        },
        {
          "duration": 0.5012596666666695,
          "durationTicks": 716,
          "midi": 69,
          "name": "A4",
          "ticks": 280080,
          "time": 204.93662012500002,
          "velocity": 0.2992125984251969
        },
        {
          "duration": 0.33323966666665683,
          "durationTicks": 476,
          "midi": 71,
          "name": "B4",
          "ticks": 280800,
          "time": 205.44068012500003,
          "velocity": 0.1889763779527559
        },
        {
          "duration": 0.10921299999998269,
          "durationTicks": 156,
          "midi": 68,
          "name": "G#4",
          "ticks": 282240,
          "time": 206.44880012500002,
          "velocity": 0.2677165354330709
        },
        {
          "duration": 0.10921299999998269,
          "durationTicks": 156,
          "midi": 68,
          "name": "G#4",
          "ticks": 282960,
          "time": 206.95286012500003,
          "velocity": 0.1889763779527559
        },
        {
          "duration": 0.22370538333333911,
          "durationTicks": 236,
          "midi": 68,
          "name": "G#4",
          "ticks": 283680,
          "time": 207.456920125,
          "velocity": 0.15748031496062992
        },
        {
          "duration": 2.11467000833332,
          "durationTicks": 956,
          "midi": 58,
          "name": "A#3",
          "ticks": 286560,
          "time": 210.095879125,
          "velocity": 0.4251968503937008
        },
        {
          "duration": 2.11467000833332,
          "durationTicks": 956,
          "midi": 68,
          "name": "G#4",
          "ticks": 286560,
          "time": 210.095879125,
          "velocity": 0.5826771653543307
        },
        {
          "duration": 0.05442565833331514,
          "durationTicks": 76,
          "midi": 78,
          "name": "F#5",
          "ticks": 299520,
          "time": 222.593263125,
          "velocity": 0.2283464566929134
        },
        {
          "duration": 0.16900599166666552,
          "durationTicks": 236,
          "midi": 74,
          "name": "D5",
          "ticks": 299760,
          "time": 222.76513362499998,
          "velocity": 0.2204724409448819
        },
        {
          "duration": 0.11171582500000454,
          "durationTicks": 156,
          "midi": 75,
          "name": "D#5",
          "ticks": 300000,
          "time": 222.937004125,
          "velocity": 0.2125984251968504
        },
        {
          "duration": 0.05442565833331514,
          "durationTicks": 76,
          "midi": 80,
          "name": "G#5",
          "ticks": 300240,
          "time": 223.108874625,
          "velocity": 0.1968503937007874
        },
        {
          "duration": 0.16900599166666552,
          "durationTicks": 236,
          "midi": 76,
          "name": "E5",
          "ticks": 300480,
          "time": 223.28074512499998,
          "velocity": 0.1889763779527559
        },
        {
          "duration": 0.11171582500000454,
          "durationTicks": 156,
          "midi": 77,
          "name": "F5",
          "ticks": 300720,
          "time": 223.452615625,
          "velocity": 0.1732283464566929
        },
        {
          "duration": 0.2549412416666712,
          "durationTicks": 356,
          "midi": 82,
          "name": "A#5",
          "ticks": 300960,
          "time": 223.62448612499998,
          "velocity": 0.15748031496062992
        },
        {
          "duration": 1.0283584916666655,
          "durationTicks": 1436,
          "midi": 72,
          "name": "C5",
          "ticks": 311040,
          "time": 230.843047125,
          "velocity": 0.3464566929133858
        },
        {
          "duration": 1.0283584916666655,
          "durationTicks": 1436,
          "midi": 73,
          "name": "C#5",
          "ticks": 312480,
          "time": 231.87427012499998,
          "velocity": 0.2677165354330709
        },
        {
          "duration": 0.34087649166664846,
          "durationTicks": 476,
          "midi": 72,
          "name": "C5",
          "ticks": 313920,
          "time": 232.905493125,
          "velocity": 0.2125984251968504
        },
        {
          "duration": 0.4697793666666712,
          "durationTicks": 656,
          "midi": 70,
          "name": "A#4",
          "ticks": 325440,
          "time": 241.592744125,
          "velocity": 0.30708661417322836
        },
        {
          "duration": 0.04010311666667121,
          "durationTicks": 56,
          "midi": 74,
          "name": "D5",
          "ticks": 326100,
          "time": 242.06538799999998,
          "velocity": 0.30708661417322836
        },
        {
          "duration": 0.08307074166665984,
          "durationTicks": 116,
          "midi": 72,
          "name": "C5",
          "ticks": 326160,
          "time": 242.108355625,
          "velocity": 0.30708661417322836
        },
        {
          "duration": 0.04010311666667121,
          "durationTicks": 56,
          "midi": 70,
          "name": "A#4",
          "ticks": 326400,
          "time": 242.28022612499998,
          "velocity": 0.30708661417322836
        },
        {
          "duration": 0.04010311666667121,
          "durationTicks": 56,
          "midi": 72,
          "name": "C5",
          "ticks": 326640,
          "time": 242.452096625,
          "velocity": 0.30708661417322836
        },
        {
          "duration": 0.3408764916666769,
          "durationTicks": 476,
          "midi": 74,
          "name": "D5",
          "ticks": 326880,
          "time": 242.62396712499998,
          "velocity": 0.30708661417322836
        },
        {
          "duration": 0.04010311666664279,
          "durationTicks": 56,
          "midi": 70,
          "name": "A#4",
          "ticks": 327360,
          "time": 242.967708125,
          "velocity": 0.30708661417322836
        },
        {
          "duration": 0.3408764916666769,
          "durationTicks": 476,
          "midi": 75,
          "name": "D#5",
          "ticks": 327600,
          "time": 243.13957862499998,
          "velocity": 0.30708661417322836
        },
        {
          "duration": 0.04010311666667121,
          "durationTicks": 56,
          "midi": 74,
          "name": "D5",
          "ticks": 328080,
          "time": 243.48331962499998,
          "velocity": 0.30708661417322836
        },
        {
          "duration": 0.08307074166665984,
          "durationTicks": 116,
          "midi": 74,
          "name": "D5",
          "ticks": 328260,
          "time": 243.6122225,
          "velocity": 0.30708661417322836
        },
        {
          "duration": 0.04010311666667121,
          "durationTicks": 56,
          "midi": 72,
          "name": "C5",
          "ticks": 328320,
          "time": 243.655190125,
          "velocity": 0.30708661417322836
        },
        {
          "duration": 0.04010311666664279,
          "durationTicks": 56,
          "midi": 71,
          "name": "B4",
          "ticks": 328560,
          "time": 243.827060625,
          "velocity": 0.30708661417322836
        },
        {
          "duration": 0.04010311666667121,
          "durationTicks": 56,
          "midi": 72,
          "name": "C5",
          "ticks": 328800,
          "time": 243.99893112499998,
          "velocity": 0.30708661417322836
        },
        {
          "duration": 0.16900599166666552,
          "durationTicks": 236,
          "midi": 67,
          "name": "G4",
          "ticks": 329040,
          "time": 244.170801625,
          "velocity": 0.30708661417322836
        },
        {
          "duration": 0.16900599166666552,
          "durationTicks": 236,
          "midi": 72,
          "name": "C5",
          "ticks": 329280,
          "time": 244.34267212499998,
          "velocity": 0.30708661417322836
        },
        {
          "duration": 0.1260383666666769,
          "durationTicks": 176,
          "midi": 70,
          "name": "A#4",
          "ticks": 329520,
          "time": 244.514542625,
          "velocity": 0.30708661417322836
        },
        {
          "duration": 1.0283584916666655,
          "durationTicks": 1436,
          "midi": 69,
          "name": "A4",
          "ticks": 329760,
          "time": 244.686413125,
          "velocity": 0.30708661417322836
        },
        {
          "duration": 0.16900599166666552,
          "durationTicks": 236,
          "midi": 70,
          "name": "A#4",
          "ticks": 331200,
          "time": 245.71763612499998,
          "velocity": 0.23622047244094488
        },
        {
          "duration": 0.05442565833331514,
          "durationTicks": 76,
          "midi": 60,
          "name": "C4",
          "ticks": 336240,
          "time": 249.326916625,
          "velocity": 0.4251968503937008
        },
        {
          "duration": 0.05442565833334356,
          "durationTicks": 76,
          "midi": 60,
          "name": "C4",
          "ticks": 336480,
          "time": 249.49878712499998,
          "velocity": 0.31496062992125984
        },
        {
          "duration": 0.05442565833334356,
          "durationTicks": 76,
          "midi": 60,
          "name": "C4",
          "ticks": 336720,
          "time": 249.670657625,
          "velocity": 0.28346456692913385
        },
        {
          "duration": 0.2549412416666428,
          "durationTicks": 356,
          "midi": 60,
          "name": "C4",
          "ticks": 336960,
          "time": 249.842528125,
          "velocity": 0.2440944881889764
        },
        {
          "duration": 0.05442565833334356,
          "durationTicks": 76,
          "midi": 72,
          "name": "C5",
          "ticks": 337680,
          "time": 250.35813962499998,
          "velocity": 0.4251968503937008
        },
        {
          "duration": 0.05442565833334356,
          "durationTicks": 76,
          "midi": 72,
          "name": "C5",
          "ticks": 337920,
          "time": 250.530010125,
          "velocity": 0.31496062992125984
        },
        {
          "duration": 0.05442565833331514,
          "durationTicks": 76,
          "midi": 72,
          "name": "C5",
          "ticks": 338160,
          "time": 250.701880625,
          "velocity": 0.25984251968503935
        },
        {
          "duration": 0.2549412416666712,
          "durationTicks": 356,
          "midi": 72,
          "name": "C5",
          "ticks": 338400,
          "time": 250.87375112499998,
          "velocity": 0.2125984251968504
        },
        {
          "duration": 1.0283584916666655,
          "durationTicks": 1436,
          "midi": 72,
          "name": "C5",
          "ticks": 347040,
          "time": 257.06108912499997,
          "velocity": 0.1732283464566929
        },
        {
          "duration": 0.16900599166666552,
          "durationTicks": 236,
          "midi": 71,
          "name": "B4",
          "ticks": 348480,
          "time": 258.092312125,
          "velocity": 0.1732283464566929
        },
        {
          "duration": 1.0283584916666655,
          "durationTicks": 1436,
          "midi": 72,
          "name": "C5",
          "ticks": 349920,
          "time": 259.123535125,
          "velocity": 0.1732283464566929
        },
        {
          "duration": 0.16900599166666552,
          "durationTicks": 236,
          "midi": 71,
          "name": "B4",
          "ticks": 351360,
          "time": 260.154758125,
          "velocity": 0.1732283464566929
        },
        {
          "duration": 1.0283584916666655,
          "durationTicks": 1436,
          "midi": 72,
          "name": "C5",
          "ticks": 352800,
          "time": 261.185981125,
          "velocity": 0.1732283464566929
        },
        {
          "duration": 0.16900599166666552,
          "durationTicks": 236,
          "midi": 75,
          "name": "D#5",
          "ticks": 354240,
          "time": 262.21720412499997,
          "velocity": 0.1732283464566929
        },
        {
          "duration": 1.0283584916666655,
          "durationTicks": 1436,
          "midi": 61,
          "name": "C#4",
          "ticks": 355680,
          "time": 263.248427125,
          "velocity": 0.1732283464566929
        },
        {
          "duration": 1.0283584916666655,
          "durationTicks": 1436,
          "midi": 66,
          "name": "F#4",
          "ticks": 357120,
          "time": 264.279650125,
          "velocity": 0.1968503937007874
        },
        {
          "duration": 1.0283584916666655,
          "durationTicks": 1436,
          "midi": 70,
          "name": "A#4",
          "ticks": 358560,
          "time": 265.310873125,
          "velocity": 0.2283464566929134
        },
        {
          "duration": 1.0283584916666655,
          "durationTicks": 1436,
          "midi": 76,
          "name": "E5",
          "ticks": 360000,
          "time": 266.342096125,
          "velocity": 0.2755905511811024
        },
        {
          "duration": 0.22629615833335492,
          "durationTicks": 316,
          "midi": 77,
          "name": "F5",
          "ticks": 361440,
          "time": 267.37331912499997,
          "velocity": 0.2125984251968504
        },
        {
          "duration": 0.08307074166663142,
          "durationTicks": 116,
          "midi": 65,
          "name": "F4",
          "ticks": 367200,
          "time": 271.498211125,
          "velocity": 0.5196850393700787
        },
        {
          "duration": 0.16900599166666552,
          "durationTicks": 236,
          "midi": 69,
          "name": "A4",
          "ticks": 367680,
          "time": 271.841952125,
          "velocity": 0.5748031496062992
        },
        {
          "duration": 0.08307074166668826,
          "durationTicks": 116,
          "midi": 72,
          "name": "C5",
          "ticks": 367920,
          "time": 272.013822625,
          "velocity": 0.6062992125984252
        },
        {
          "duration": 0.16900599166666552,
          "durationTicks": 236,
          "midi": 76,
          "name": "E5",
          "ticks": 368400,
          "time": 272.357563625,
          "velocity": 0.6614173228346457
        },
        {
          "duration": 0.08307074166668826,
          "durationTicks": 116,
          "midi": 77,
          "name": "F5",
          "ticks": 368640,
          "time": 272.52943412499997,
          "velocity": 0.6141732283464567
        },
        {
          "duration": 0.16900599166666552,
          "durationTicks": 236,
          "midi": 78,
          "name": "F#5",
          "ticks": 369120,
          "time": 272.873175125,
          "velocity": 0.30708661417322836
        },
        {
          "duration": 0.08307074166663142,
          "durationTicks": 116,
          "midi": 79,
          "name": "G5",
          "ticks": 369360,
          "time": 273.045045625,
          "velocity": 0.2992125984251969
        },
        {
          "duration": 0.16900599166672237,
          "durationTicks": 236,
          "midi": 77,
          "name": "F5",
          "ticks": 369840,
          "time": 273.38878662499997,
          "velocity": 0.28346456692913385
        },
        {
          "duration": 0.08307074166668826,
          "durationTicks": 116,
          "midi": 75,
          "name": "D#5",
          "ticks": 370080,
          "time": 273.560657125,
          "velocity": 0.2677165354330709
        },
        {
          "duration": 0.16900599166666552,
          "durationTicks": 236,
          "midi": 74,
          "name": "D5",
          "ticks": 370560,
          "time": 273.904398125,
          "velocity": 0.2440944881889764
        },
        {
          "duration": 0.08307074166663142,
          "durationTicks": 116,
          "midi": 72,
          "name": "C5",
          "ticks": 370800,
          "time": 274.076268625,
          "velocity": 0.2283464566929134
        },
        {
          "duration": 0.5986822416666655,
          "durationTicks": 836,
          "midi": 70,
          "name": "A#4",
          "ticks": 403200,
          "time": 297.278786125,
          "velocity": 0.25984251968503935
        },
        {
          "duration": 0.08307074166668826,
          "durationTicks": 116,
          "midi": 70,
          "name": "A#4",
          "ticks": 404160,
          "time": 297.966268125,
          "velocity": 0.3543307086614173
        },
        {
          "duration": 0.08307074166663142,
          "durationTicks": 116,
          "midi": 70,
          "name": "A#4",
          "ticks": 404400,
          "time": 298.138138625,
          "velocity": 0.28346456692913385
        },
        {
          "duration": 0.5986822416667223,
          "durationTicks": 836,
          "midi": 72,
          "name": "C5",
          "ticks": 404640,
          "time": 298.31000912499997,
          "velocity": 0.28346456692913385
        },
        {
          "duration": 0.08307074166663142,
          "durationTicks": 116,
          "midi": 72,
          "name": "C5",
          "ticks": 405600,
          "time": 298.997491125,
          "velocity": 0.3858267716535433
        },
        {
          "duration": 0.08307074166668826,
          "durationTicks": 116,
          "midi": 72,
          "name": "C5",
          "ticks": 405840,
          "time": 299.16936162499996,
          "velocity": 0.30708661417322836
        },
        {
          "duration": 0.5986822416666655,
          "durationTicks": 836,
          "midi": 74,
          "name": "D5",
          "ticks": 406080,
          "time": 299.341232125,
          "velocity": 0.31496062992125984
        },
        {
          "duration": 0.08307074166668826,
          "durationTicks": 116,
          "midi": 74,
          "name": "D5",
          "ticks": 407040,
          "time": 300.02871412499996,
          "velocity": 0.41732283464566927
        },
        {
          "duration": 0.08307074166668826,
          "durationTicks": 116,
          "midi": 74,
          "name": "D5",
          "ticks": 407280,
          "time": 300.200584625,
          "velocity": 0.33858267716535434
        },
        {
          "duration": 0.5986822416666655,
          "durationTicks": 836,
          "midi": 75,
          "name": "D#5",
          "ticks": 407520,
          "time": 300.372455125,
          "velocity": 0.3464566929133858
        },
        {
          "duration": 0.08307074166668826,
          "durationTicks": 116,
          "midi": 75,
          "name": "D#5",
          "ticks": 408480,
          "time": 301.059937125,
          "velocity": 0.4409448818897638
        },
        {
          "duration": 0.08307074166668826,
          "durationTicks": 116,
          "midi": 75,
          "name": "D#5",
          "ticks": 408720,
          "time": 301.231807625,
          "velocity": 0.3700787401574803
        },
        {
          "duration": 0.05442565833334356,
          "durationTicks": 76,
          "midi": 77,
          "name": "F5",
          "ticks": 408960,
          "time": 301.403678125,
          "velocity": 0.41732283464566927
        },
        {
          "duration": 0.05442565833334356,
          "durationTicks": 76,
          "midi": 77,
          "name": "F5",
          "ticks": 409200,
          "time": 301.575548625,
          "velocity": 0.3464566929133858
        },
        {
          "duration": 0.05442565833334356,
          "durationTicks": 76,
          "midi": 75,
          "name": "D#5",
          "ticks": 409680,
          "time": 301.919289625,
          "velocity": 0.4645669291338583
        },
        {
          "duration": 0.05442565833334356,
          "durationTicks": 76,
          "midi": 75,
          "name": "D#5",
          "ticks": 409920,
          "time": 302.091160125,
          "velocity": 0.4015748031496063
        },
        {
          "duration": 0.05442565833334356,
          "durationTicks": 76,
          "midi": 75,
          "name": "D#5",
          "ticks": 410400,
          "time": 302.434901125,
          "velocity": 0.5433070866141733
        },
        {
          "duration": 0.05442565833334356,
          "durationTicks": 76,
          "midi": 75,
          "name": "D#5",
          "ticks": 410640,
          "time": 302.60677162499996,
          "velocity": 0.48031496062992124
        },
        {
          "duration": 0.05442565833334356,
          "durationTicks": 76,
          "midi": 74,
          "name": "D5",
          "ticks": 411120,
          "time": 302.950512625,
          "velocity": 0.6220472440944882
        },
        {
          "duration": 0.05442565833334356,
          "durationTicks": 76,
          "midi": 74,
          "name": "D5",
          "ticks": 411360,
          "time": 303.122383125,
          "velocity": 0.5590551181102362
        },
        {
          "duration": 0.05442565833334356,
          "durationTicks": 76,
          "midi": 84,
          "name": "C6",
          "ticks": 411840,
          "time": 303.46612412499996,
          "velocity": 0.5669291338582677
        },
        {
          "duration": 0.05442565833334356,
          "durationTicks": 76,
          "midi": 84,
          "name": "C6",
          "ticks": 411960,
          "time": 303.552059375,
          "velocity": 0.5669291338582677
        },
        {
          "duration": 0.05442565833334356,
          "durationTicks": 76,
          "midi": 84,
          "name": "C6",
          "ticks": 412080,
          "time": 303.637994625,
          "velocity": 0.5669291338582677
        },
        {
          "duration": 0.05442565833328672,
          "durationTicks": 76,
          "midi": 84,
          "name": "C6",
          "ticks": 412200,
          "time": 303.723929875,
          "velocity": 0.5748031496062992
        },
        {
          "duration": 0.05442565833334356,
          "durationTicks": 76,
          "midi": 84,
          "name": "C6",
          "ticks": 412320,
          "time": 303.809865125,
          "velocity": 0.5748031496062992
        },
        {
          "duration": 0.05442565833328672,
          "durationTicks": 76,
          "midi": 84,
          "name": "C6",
          "ticks": 412440,
          "time": 303.895800375,
          "velocity": 0.5826771653543307
        },
        {
          "duration": 0.05442565833334356,
          "durationTicks": 76,
          "midi": 84,
          "name": "C6",
          "ticks": 412560,
          "time": 303.981735625,
          "velocity": 0.5826771653543307
        },
        {
          "duration": 0.05442565833334356,
          "durationTicks": 76,
          "midi": 84,
          "name": "C6",
          "ticks": 412680,
          "time": 304.067670875,
          "velocity": 0.5826771653543307
        },
        {
          "duration": 0.05442565833334356,
          "durationTicks": 76,
          "midi": 84,
          "name": "C6",
          "ticks": 412800,
          "time": 304.153606125,
          "velocity": 0.5905511811023622
        },
        {
          "duration": 0.05442565833334356,
          "durationTicks": 76,
          "midi": 84,
          "name": "C6",
          "ticks": 412920,
          "time": 304.239541375,
          "velocity": 0.5905511811023622
        },
        {
          "duration": 0.05442565833334356,
          "durationTicks": 76,
          "midi": 84,
          "name": "C6",
          "ticks": 413040,
          "time": 304.32547662499996,
          "velocity": 0.5984251968503937
        },
        {
          "duration": 0.05442565833334356,
          "durationTicks": 76,
          "midi": 84,
          "name": "C6",
          "ticks": 413160,
          "time": 304.411411875,
          "velocity": 0.5984251968503937
        },
        {
          "duration": 0.05442565833334356,
          "durationTicks": 76,
          "midi": 84,
          "name": "C6",
          "ticks": 413280,
          "time": 304.497347125,
          "velocity": 0.6062992125984252
        },
        {
          "duration": 0.05442565833328672,
          "durationTicks": 76,
          "midi": 84,
          "name": "C6",
          "ticks": 413400,
          "time": 304.583282375,
          "velocity": 0.6062992125984252
        },
        {
          "duration": 0.05442565833334356,
          "durationTicks": 76,
          "midi": 84,
          "name": "C6",
          "ticks": 413520,
          "time": 304.669217625,
          "velocity": 0.6062992125984252
        },
        {
          "duration": 0.05442565833328672,
          "durationTicks": 76,
          "midi": 84,
          "name": "C6",
          "ticks": 413640,
          "time": 304.755152875,
          "velocity": 0.6141732283464567
        },
        {
          "duration": 0.05442565833334356,
          "durationTicks": 76,
          "midi": 84,
          "name": "C6",
          "ticks": 413760,
          "time": 304.841088125,
          "velocity": 0.6141732283464567
        },
        {
          "duration": 0.05442565833334356,
          "durationTicks": 76,
          "midi": 84,
          "name": "C6",
          "ticks": 413880,
          "time": 304.927023375,
          "velocity": 0.6220472440944882
        },
        {
          "duration": 0.05442565833334356,
          "durationTicks": 76,
          "midi": 84,
          "name": "C6",
          "ticks": 414000,
          "time": 305.012958625,
          "velocity": 0.6220472440944882
        },
        {
          "duration": 0.05442565833334356,
          "durationTicks": 76,
          "midi": 84,
          "name": "C6",
          "ticks": 414120,
          "time": 305.098893875,
          "velocity": 0.6220472440944882
        },
        {
          "duration": 0.05442565833334356,
          "durationTicks": 76,
          "midi": 84,
          "name": "C6",
          "ticks": 414240,
          "time": 305.18482912499996,
          "velocity": 0.6299212598425197
        },
        {
          "duration": 0.05442565833334356,
          "durationTicks": 76,
          "midi": 84,
          "name": "C6",
          "ticks": 414360,
          "time": 305.270764375,
          "velocity": 0.6299212598425197
        },
        {
          "duration": 0.05442565833334356,
          "durationTicks": 76,
          "midi": 84,
          "name": "C6",
          "ticks": 414480,
          "time": 305.356699625,
          "velocity": 0.6377952755905512
        },
        {
          "duration": 0.05442565833328672,
          "durationTicks": 76,
          "midi": 84,
          "name": "C6",
          "ticks": 414600,
          "time": 305.442634875,
          "velocity": 0.6377952755905512
        },
        {
          "duration": 0.05442565833334356,
          "durationTicks": 76,
          "midi": 84,
          "name": "C6",
          "ticks": 414720,
          "time": 305.528570125,
          "velocity": 0.6929133858267716
        },
        {
          "duration": 0.05442565833328672,
          "durationTicks": 76,
          "midi": 84,
          "name": "C6",
          "ticks": 414840,
          "time": 305.614505375,
          "velocity": 0.6929133858267716
        },
        {
          "duration": 0.05442565833334356,
          "durationTicks": 76,
          "midi": 84,
          "name": "C6",
          "ticks": 414960,
          "time": 305.700440625,
          "velocity": 0.6929133858267716
        },
        {
          "duration": 0.05442565833334356,
          "durationTicks": 76,
          "midi": 84,
          "name": "C6",
          "ticks": 415080,
          "time": 305.786375875,
          "velocity": 0.6929133858267716
        },
        {
          "duration": 0.05442565833334356,
          "durationTicks": 76,
          "midi": 84,
          "name": "C6",
          "ticks": 415200,
          "time": 305.872311125,
          "velocity": 0.6929133858267716
        },
        {
          "duration": 0.05442565833334356,
          "durationTicks": 76,
          "midi": 84,
          "name": "C6",
          "ticks": 415320,
          "time": 305.958246375,
          "velocity": 0.6929133858267716
        },
        {
          "duration": 0.05932686666665177,
          "durationTicks": 76,
          "midi": 84,
          "name": "C6",
          "ticks": 415440,
          "time": 306.04418162499996,
          "velocity": 0.6929133858267716
        },
        {
          "duration": 0.05932686666665177,
          "durationTicks": 76,
          "midi": 84,
          "name": "C6",
          "ticks": 415560,
          "time": 306.137855625,
          "velocity": 0.6929133858267716
        },
        {
          "duration": 0.05932686666670861,
          "durationTicks": 76,
          "midi": 84,
          "name": "C6",
          "ticks": 415680,
          "time": 306.23152962499995,
          "velocity": 0.6929133858267716
        },
        {
          "duration": 0.05932686666665177,
          "durationTicks": 76,
          "midi": 84,
          "name": "C6",
          "ticks": 415800,
          "time": 306.325203625,
          "velocity": 0.6929133858267716
        },
        {
          "duration": 0.05932686666670861,
          "durationTicks": 76,
          "midi": 84,
          "name": "C6",
          "ticks": 415920,
          "time": 306.41887762499994,
          "velocity": 0.6929133858267716
        },
        {
          "duration": 0.05932686666665177,
          "durationTicks": 76,
          "midi": 84,
          "name": "C6",
          "ticks": 416040,
          "time": 306.51255162499996,
          "velocity": 0.6929133858267716
        },
        {
          "duration": 0.06303503333333538,
          "durationTicks": 76,
          "midi": 84,
          "name": "C6",
          "ticks": 416160,
          "time": 306.606225625,
          "velocity": 0.6929133858267716
        },
        {
          "duration": 0.06303503333333538,
          "durationTicks": 76,
          "midi": 84,
          "name": "C6",
          "ticks": 416280,
          "time": 306.705754625,
          "velocity": 0.6929133858267716
        },
        {
          "duration": 0.06723767500000122,
          "durationTicks": 76,
          "midi": 84,
          "name": "C6",
          "ticks": 416400,
          "time": 306.80528362499996,
          "velocity": 0.6929133858267716
        },
        {
          "duration": 0.06723767500000122,
          "durationTicks": 76,
          "midi": 84,
          "name": "C6",
          "ticks": 416520,
          "time": 306.91144837499996,
          "velocity": 0.6929133858267716
        },
        {
          "duration": 0.07204071666666323,
          "durationTicks": 76,
          "midi": 86,
          "name": "D6",
          "ticks": 416640,
          "time": 307.01761312499997,
          "velocity": 0.6929133858267716
        },
        {
          "duration": 0.07204071666666323,
          "durationTicks": 76,
          "midi": 86,
          "name": "D6",
          "ticks": 416760,
          "time": 307.13136162499995,
          "velocity": 0.6929133858267716
        },
        {
          "duration": 0.07758269999999357,
          "durationTicks": 76,
          "midi": 87,
          "name": "D#6",
          "ticks": 416880,
          "time": 307.245110125,
          "velocity": 0.6929133858267716
        },
        {
          "duration": 0.07758269999999357,
          "durationTicks": 76,
          "midi": 87,
          "name": "D#6",
          "ticks": 417000,
          "time": 307.367609125,
          "velocity": 0.6929133858267716
        },
        {
          "duration": 0.08404855833333613,
          "durationTicks": 76,
          "midi": 86,
          "name": "D6",
          "ticks": 417120,
          "time": 307.490108125,
          "velocity": 0.6929133858267716
        },
        {
          "duration": 0.08404855833333613,
          "durationTicks": 76,
          "midi": 86,
          "name": "D6",
          "ticks": 417240,
          "time": 307.622816375,
          "velocity": 0.6929133858267716
        },
        {
          "duration": 0.10085991666664995,
          "durationTicks": 76,
          "midi": 84,
          "name": "C6",
          "ticks": 417360,
          "time": 307.755524625,
          "velocity": 0.6929133858267716
        },
        {
          "duration": 0.1008599166667068,
          "durationTicks": 76,
          "midi": 84,
          "name": "C6",
          "ticks": 417480,
          "time": 307.914777125,
          "velocity": 0.6929133858267716
        },
        {
          "duration": 0.902472199999977,
          "durationTicks": 476,
          "midi": 86,
          "name": "D6",
          "ticks": 417600,
          "time": 308.07402962500004,
          "velocity": 0.6929133858267716
        },
        {
          "duration": 0.9972212249999757,
          "durationTicks": 1436,
          "midi": 63,
          "name": "D#4",
          "ticks": 480960,
          "time": 360.6991006250001,
          "velocity": 0.25984251968503935
        },
        {
          "duration": 0.9972212249999757,
          "durationTicks": 1436,
          "midi": 62,
          "name": "D4",
          "ticks": 482400,
          "time": 361.6990996250001,
          "velocity": 0.25984251968503935
        },
        {
          "duration": 0.9972212249999757,
          "durationTicks": 1436,
          "midi": 60,
          "name": "C4",
          "ticks": 483840,
          "time": 362.6990986250001,
          "velocity": 0.25984251968503935
        },
        {
          "duration": 0.8305547250000131,
          "durationTicks": 1196,
          "midi": 62,
          "name": "D4",
          "ticks": 485280,
          "time": 363.69909762500004,
          "velocity": 0.25984251968503935
        },
        {
          "duration": 0.9972212250000325,
          "durationTicks": 1436,
          "midi": 63,
          "name": "D#4",
          "ticks": 486720,
          "time": 364.69909662500004,
          "velocity": 0.41732283464566927
        },
        {
          "duration": 0.6638882250000506,
          "durationTicks": 956,
          "midi": 62,
          "name": "D4",
          "ticks": 488160,
          "time": 365.69909562500004,
          "velocity": 0.25984251968503935
        },
        {
          "duration": 0.49722172500003126,
          "durationTicks": 716,
          "midi": 76,
          "name": "E5",
          "ticks": 490320,
          "time": 367.19909412500004,
          "velocity": 0.25984251968503935
        },
        {
          "duration": 0.16388872499999252,
          "durationTicks": 236,
          "midi": 77,
          "name": "F5",
          "ticks": 491040,
          "time": 367.69909362500005,
          "velocity": 0.25984251968503935
        },
        {
          "duration": 0.49722172500003126,
          "durationTicks": 716,
          "midi": 76,
          "name": "E5",
          "ticks": 493200,
          "time": 369.19909212500005,
          "velocity": 0.25984251968503935
        },
        {
          "duration": 0.16388872499999252,
          "durationTicks": 236,
          "midi": 77,
          "name": "F5",
          "ticks": 493920,
          "time": 369.69909162500005,
          "velocity": 0.25984251968503935
        },
        {
          "duration": 0.49722172500003126,
          "durationTicks": 716,
          "midi": 76,
          "name": "E5",
          "ticks": 496080,
          "time": 371.19909012500005,
          "velocity": 0.23622047244094488
        },
        {
          "duration": 0.16388872499999252,
          "durationTicks": 236,
          "midi": 77,
          "name": "F5",
          "ticks": 496800,
          "time": 371.69908962500006,
          "velocity": 0.18110236220472442
        },
        {
          "duration": 0.16388872499999252,
          "durationTicks": 236,
          "midi": 65,
          "name": "F4",
          "ticks": 503280,
          "time": 376.19908512500007,
          "velocity": 0.25984251968503935
        },
        {
          "duration": 0.16388872499999252,
          "durationTicks": 236,
          "midi": 65,
          "name": "F4",
          "ticks": 504720,
          "time": 377.19908412500007,
          "velocity": 0.25984251968503935
        },
        {
          "duration": 0.16388872499999252,
          "durationTicks": 236,
          "midi": 63,
          "name": "D#4",
          "ticks": 505440,
          "time": 377.69908362500007,
          "velocity": 0.25984251968503935
        },
        {
          "duration": 0.16388872499999252,
          "durationTicks": 236,
          "midi": 62,
          "name": "D4",
          "ticks": 506160,
          "time": 378.1990831250001,
          "velocity": 0.25984251968503935
        },
        {
          "duration": 0.5805549749999841,
          "durationTicks": 836,
          "midi": 62,
          "name": "D4",
          "ticks": 506880,
          "time": 378.6990826250001,
          "velocity": 0.25984251968503935
        },
        {
          "duration": 0.16388872499999252,
          "durationTicks": 236,
          "midi": 60,
          "name": "C4",
          "ticks": 507600,
          "time": 379.1990821250001,
          "velocity": 0.25984251968503935
        },
        {
          "duration": 0.16388872499999252,
          "durationTicks": 236,
          "midi": 62,
          "name": "D4",
          "ticks": 508320,
          "time": 379.6990816250001,
          "velocity": 0.25984251968503935
        },
        {
          "duration": 0.16388872499999252,
          "durationTicks": 236,
          "midi": 63,
          "name": "D#4",
          "ticks": 509040,
          "time": 380.1990811250001,
          "velocity": 0.28346456692913385
        },
        {
          "duration": 0.5805549749999841,
          "durationTicks": 836,
          "midi": 65,
          "name": "F4",
          "ticks": 509760,
          "time": 380.6990806250001,
          "velocity": 0.33858267716535434
        },
        {
          "duration": 0.16388872499999252,
          "durationTicks": 236,
          "midi": 70,
          "name": "A#4",
          "ticks": 510480,
          "time": 381.1990801250001,
          "velocity": 0.25984251968503935
        },
        {
          "duration": 0.16388872499999252,
          "durationTicks": 236,
          "midi": 62,
          "name": "D4",
          "ticks": 511200,
          "time": 381.6990796250001,
          "velocity": 0.23622047244094488
        },
        {
          "duration": 0.16388872499999252,
          "durationTicks": 236,
          "midi": 60,
          "name": "C4",
          "ticks": 511920,
          "time": 382.1990791250001,
          "velocity": 0.23622047244094488
        },
        {
          "duration": 0.4972217249999744,
          "durationTicks": 716,
          "midi": 69,
          "name": "A4",
          "ticks": 512640,
          "time": 382.6990786250001,
          "velocity": 0.23622047244094488
        },
        {
          "duration": 0.16388872499999252,
          "durationTicks": 236,
          "midi": 70,
          "name": "A#4",
          "ticks": 513360,
          "time": 383.1990781250001,
          "velocity": 0.2125984251968504
        },
        {
          "duration": 0.08055547499998283,
          "durationTicks": 116,
          "midi": 70,
          "name": "A#4",
          "ticks": 514080,
          "time": 383.6990776250001,
          "velocity": 0.6062992125984252
        },
        {
          "duration": 0.08055547499998283,
          "durationTicks": 116,
          "midi": 82,
          "name": "A#5",
          "ticks": 514080,
          "time": 383.6990776250001,
          "velocity": 0.6850393700787402
        },
        {
          "duration": 0.08055547499998283,
          "durationTicks": 116,
          "midi": 70,
          "name": "A#4",
          "ticks": 514560,
          "time": 384.03241062500007,
          "velocity": 0.6062992125984252
        },
        {
          "duration": 0.08055547499998283,
          "durationTicks": 116,
          "midi": 82,
          "name": "A#5",
          "ticks": 514560,
          "time": 384.03241062500007,
          "velocity": 0.6850393700787402
        },
        {
          "duration": 0.08055547499998283,
          "durationTicks": 116,
          "midi": 70,
          "name": "A#4",
          "ticks": 514800,
          "time": 384.1990771250001,
          "velocity": 0.6062992125984252
        },
        {
          "duration": 0.08055547499998283,
          "durationTicks": 116,
          "midi": 82,
          "name": "A#5",
          "ticks": 514800,
          "time": 384.1990771250001,
          "velocity": 0.6850393700787402
        },
        {
          "duration": 0.08055547499998283,
          "durationTicks": 116,
          "midi": 70,
          "name": "A#4",
          "ticks": 515280,
          "time": 384.53241012500007,
          "velocity": 0.6062992125984252
        },
        {
          "duration": 0.08055547499998283,
          "durationTicks": 116,
          "midi": 82,
          "name": "A#5",
          "ticks": 515280,
          "time": 384.53241012500007,
          "velocity": 0.6850393700787402
        },
        {
          "duration": 0.5805549749999841,
          "durationTicks": 836,
          "midi": 70,
          "name": "A#4",
          "ticks": 515520,
          "time": 384.6990766250001,
          "velocity": 0.6062992125984252
        },
        {
          "duration": 0.5805549749999841,
          "durationTicks": 836,
          "midi": 82,
          "name": "A#5",
          "ticks": 515520,
          "time": 384.6990766250001,
          "velocity": 0.6850393700787402
        },
        {
          "duration": 0.08055547499998283,
          "durationTicks": 116,
          "midi": 79,
          "name": "G5",
          "ticks": 516480,
          "time": 385.36574262500005,
          "velocity": 0.3464566929133858
        },
        {
          "duration": 0.08055547499998283,
          "durationTicks": 116,
          "midi": 75,
          "name": "D#5",
          "ticks": 516720,
          "time": 385.5324091250001,
          "velocity": 0.3464566929133858
        },
        {
          "duration": 0.08055547499998283,
          "durationTicks": 116,
          "midi": 74,
          "name": "D5",
          "ticks": 516960,
          "time": 385.6990756250001,
          "velocity": 0.33858267716535434
        },
        {
          "duration": 0.16388872499999252,
          "durationTicks": 236,
          "midi": 77,
          "name": "F5",
          "ticks": 517440,
          "time": 386.0324086250001,
          "velocity": 0.3228346456692913
        },
        {
          "duration": 0.08055547500003968,
          "durationTicks": 116,
          "midi": 72,
          "name": "C5",
          "ticks": 517680,
          "time": 386.19907512500004,
          "velocity": 0.31496062992125984
        },
        {
          "duration": 0.16388872499999252,
          "durationTicks": 236,
          "midi": 77,
          "name": "F5",
          "ticks": 518160,
          "time": 386.5324081250001,
          "velocity": 0.2992125984251969
        },
        {
          "duration": 0.4972217249999744,
          "durationTicks": 716,
          "midi": 75,
          "name": "D#5",
          "ticks": 518400,
          "time": 386.6990746250001,
          "velocity": 0.29133858267716534
        },
        {
          "duration": 0.16388872499999252,
          "durationTicks": 236,
          "midi": 74,
          "name": "D5",
          "ticks": 519120,
          "time": 387.19907412500004,
          "velocity": 0.2204724409448819
        },
        {
          "duration": 0.08055547500003968,
          "durationTicks": 116,
          "midi": 70,
          "name": "A#4",
          "ticks": 522720,
          "time": 389.69907162500004,
          "velocity": 0.6062992125984252
        },
        {
          "duration": 0.08055547500003968,
          "durationTicks": 116,
          "midi": 82,
          "name": "A#5",
          "ticks": 522720,
          "time": 389.69907162500004,
          "velocity": 0.7637795275590551
        },
        {
          "duration": 0.08055547499998283,
          "durationTicks": 116,
          "midi": 70,
          "name": "A#4",
          "ticks": 523200,
          "time": 390.0324046250001,
          "velocity": 0.6062992125984252
        },
        {
          "duration": 0.08055547499998283,
          "durationTicks": 116,
          "midi": 82,
          "name": "A#5",
          "ticks": 523200,
          "time": 390.0324046250001,
          "velocity": 0.7637795275590551
        },
        {
          "duration": 0.08055547500003968,
          "durationTicks": 116,
          "midi": 70,
          "name": "A#4",
          "ticks": 523440,
          "time": 390.19907112500005,
          "velocity": 0.6062992125984252
        },
        {
          "duration": 0.08055547500003968,
          "durationTicks": 116,
          "midi": 82,
          "name": "A#5",
          "ticks": 523440,
          "time": 390.19907112500005,
          "velocity": 0.7637795275590551
        },
        {
          "duration": 0.08055547499998283,
          "durationTicks": 116,
          "midi": 70,
          "name": "A#4",
          "ticks": 523920,
          "time": 390.5324041250001,
          "velocity": 0.6062992125984252
        },
        {
          "duration": 0.08055547499998283,
          "durationTicks": 116,
          "midi": 82,
          "name": "A#5",
          "ticks": 523920,
          "time": 390.5324041250001,
          "velocity": 0.7637795275590551
        },
        {
          "duration": 0.8583324749999974,
          "durationTicks": 1236,
          "midi": 70,
          "name": "A#4",
          "ticks": 524160,
          "time": 390.69907062500005,
          "velocity": 0.6062992125984252
        },
        {
          "duration": 0.8583324749999974,
          "durationTicks": 1236,
          "midi": 82,
          "name": "A#5",
          "ticks": 524160,
          "time": 390.69907062500005,
          "velocity": 0.7637795275590551
        },
        {
          "duration": 0.052777724999998554,
          "durationTicks": 76,
          "midi": 86,
          "name": "D6",
          "ticks": 529920,
          "time": 394.69906662500006,
          "velocity": 0.6929133858267716
        },
        {
          "duration": 0.052777724999998554,
          "durationTicks": 76,
          "midi": 86,
          "name": "D6",
          "ticks": 530040,
          "time": 394.78239987500007,
          "velocity": 0.6929133858267716
        },
        {
          "duration": 0.052777724999998554,
          "durationTicks": 76,
          "midi": 86,
          "name": "D6",
          "ticks": 530160,
          "time": 394.8657331250001,
          "velocity": 0.6929133858267716
        },
        {
          "duration": 0.052777724999998554,
          "durationTicks": 76,
          "midi": 86,
          "name": "D6",
          "ticks": 530280,
          "time": 394.9490663750001,
          "velocity": 0.6929133858267716
        },
        {
          "duration": 0.0527777250000554,
          "durationTicks": 76,
          "midi": 86,
          "name": "D6",
          "ticks": 530400,
          "time": 395.03239962500004,
          "velocity": 0.6929133858267716
        },
        {
          "duration": 0.052777724999998554,
          "durationTicks": 76,
          "midi": 86,
          "name": "D6",
          "ticks": 530520,
          "time": 395.11573287500005,
          "velocity": 0.6929133858267716
        },
        {
          "duration": 0.052777724999998554,
          "durationTicks": 76,
          "midi": 86,
          "name": "D6",
          "ticks": 530640,
          "time": 395.19906612500006,
          "velocity": 0.6929133858267716
        },
        {
          "duration": 0.052777724999998554,
          "durationTicks": 76,
          "midi": 86,
          "name": "D6",
          "ticks": 530760,
          "time": 395.28239937500007,
          "velocity": 0.6929133858267716
        },
        {
          "duration": 0.052777724999998554,
          "durationTicks": 76,
          "midi": 86,
          "name": "D6",
          "ticks": 530880,
          "time": 395.3657326250001,
          "velocity": 0.6929133858267716
        },
        {
          "duration": 0.052777724999998554,
          "durationTicks": 76,
          "midi": 86,
          "name": "D6",
          "ticks": 531000,
          "time": 395.4490658750001,
          "velocity": 0.6929133858267716
        },
        {
          "duration": 0.052777724999998554,
          "durationTicks": 76,
          "midi": 86,
          "name": "D6",
          "ticks": 531120,
          "time": 395.53239912500004,
          "velocity": 0.6929133858267716
        },
        {
          "duration": 0.052777724999998554,
          "durationTicks": 76,
          "midi": 86,
          "name": "D6",
          "ticks": 531240,
          "time": 395.61573237500005,
          "velocity": 0.6929133858267716
        },
        {
          "duration": 0.052777724999998554,
          "durationTicks": 76,
          "midi": 86,
          "name": "D6",
          "ticks": 531360,
          "time": 395.69906562500006,
          "velocity": 0.6929133858267716
        },
        {
          "duration": 0.052777724999998554,
          "durationTicks": 76,
          "midi": 86,
          "name": "D6",
          "ticks": 531480,
          "time": 395.78239887500007,
          "velocity": 0.6929133858267716
        },
        {
          "duration": 0.052777724999998554,
          "durationTicks": 76,
          "midi": 86,
          "name": "D6",
          "ticks": 531600,
          "time": 395.8657321250001,
          "velocity": 0.6929133858267716
        },
        {
          "duration": 0.0527777250000554,
          "durationTicks": 76,
          "midi": 86,
          "name": "D6",
          "ticks": 531720,
          "time": 395.94906537500003,
          "velocity": 0.6929133858267716
        },
        {
          "duration": 0.052777724999998554,
          "durationTicks": 76,
          "midi": 86,
          "name": "D6",
          "ticks": 531840,
          "time": 396.03239862500004,
          "velocity": 0.6929133858267716
        },
        {
          "duration": 0.052777724999998554,
          "durationTicks": 76,
          "midi": 86,
          "name": "D6",
          "ticks": 531960,
          "time": 396.11573187500005,
          "velocity": 0.6929133858267716
        },
        {
          "duration": 0.052777724999998554,
          "durationTicks": 76,
          "midi": 86,
          "name": "D6",
          "ticks": 532080,
          "time": 396.19906512500006,
          "velocity": 0.6929133858267716
        },
        {
          "duration": 0.052777724999998554,
          "durationTicks": 76,
          "midi": 86,
          "name": "D6",
          "ticks": 532200,
          "time": 396.28239837500007,
          "velocity": 0.6929133858267716
        },
        {
          "duration": 0.052777724999998554,
          "durationTicks": 76,
          "midi": 86,
          "name": "D6",
          "ticks": 532320,
          "time": 396.3657316250001,
          "velocity": 0.6929133858267716
        },
        {
          "duration": 0.05277772499994171,
          "durationTicks": 76,
          "midi": 86,
          "name": "D6",
          "ticks": 532440,
          "time": 396.4490648750001,
          "velocity": 0.6929133858267716
        },
        {
          "duration": 0.052777724999998554,
          "durationTicks": 76,
          "midi": 86,
          "name": "D6",
          "ticks": 532560,
          "time": 396.53239812500004,
          "velocity": 0.6929133858267716
        },
        {
          "duration": 0.052777724999998554,
          "durationTicks": 76,
          "midi": 86,
          "name": "D6",
          "ticks": 532680,
          "time": 396.61573137500005,
          "velocity": 0.6929133858267716
        },
        {
          "duration": 0.052777724999998554,
          "durationTicks": 76,
          "midi": 84,
          "name": "C6",
          "ticks": 532800,
          "time": 396.69906462500006,
          "velocity": 0.6929133858267716
        },
        {
          "duration": 0.052777724999998554,
          "durationTicks": 76,
          "midi": 84,
          "name": "C6",
          "ticks": 532920,
          "time": 396.7823978750001,
          "velocity": 0.6929133858267716
        },
        {
          "duration": 0.052777724999998554,
          "durationTicks": 76,
          "midi": 84,
          "name": "C6",
          "ticks": 533040,
          "time": 396.8657311250001,
          "velocity": 0.6929133858267716
        },
        {
          "duration": 0.0527777250000554,
          "durationTicks": 76,
          "midi": 84,
          "name": "C6",
          "ticks": 533160,
          "time": 396.94906437500003,
          "velocity": 0.6929133858267716
        },
        {
          "duration": 0.052777724999998554,
          "durationTicks": 76,
          "midi": 84,
          "name": "C6",
          "ticks": 533280,
          "time": 397.03239762500004,
          "velocity": 0.6929133858267716
        },
        {
          "duration": 0.052777724999998554,
          "durationTicks": 76,
          "midi": 84,
          "name": "C6",
          "ticks": 533400,
          "time": 397.11573087500005,
          "velocity": 0.6929133858267716
        },
        {
          "duration": 0.052777724999998554,
          "durationTicks": 76,
          "midi": 84,
          "name": "C6",
          "ticks": 533520,
          "time": 397.19906412500006,
          "velocity": 0.6929133858267716
        },
        {
          "duration": 0.052777724999998554,
          "durationTicks": 76,
          "midi": 84,
          "name": "C6",
          "ticks": 533640,
          "time": 397.2823973750001,
          "velocity": 0.6929133858267716
        },
        {
          "duration": 0.052777724999998554,
          "durationTicks": 76,
          "midi": 86,
          "name": "D6",
          "ticks": 533760,
          "time": 397.3657306250001,
          "velocity": 0.6929133858267716
        },
        {
          "duration": 0.05277772499994171,
          "durationTicks": 76,
          "midi": 86,
          "name": "D6",
          "ticks": 533880,
          "time": 397.4490638750001,
          "velocity": 0.6929133858267716
        },
        {
          "duration": 0.052777724999998554,
          "durationTicks": 76,
          "midi": 87,
          "name": "D#6",
          "ticks": 534000,
          "time": 397.53239712500005,
          "velocity": 0.6929133858267716
        },
        {
          "duration": 0.052777724999998554,
          "durationTicks": 76,
          "midi": 87,
          "name": "D#6",
          "ticks": 534120,
          "time": 397.61573037500006,
          "velocity": 0.6929133858267716
        },
        {
          "duration": 0.052777724999998554,
          "durationTicks": 76,
          "midi": 86,
          "name": "D6",
          "ticks": 534240,
          "time": 397.69906362500006,
          "velocity": 0.6929133858267716
        },
        {
          "duration": 0.052777724999998554,
          "durationTicks": 76,
          "midi": 86,
          "name": "D6",
          "ticks": 534360,
          "time": 397.7823968750001,
          "velocity": 0.6929133858267716
        },
        {
          "duration": 0.052777724999998554,
          "durationTicks": 76,
          "midi": 86,
          "name": "D6",
          "ticks": 534480,
          "time": 397.8657301250001,
          "velocity": 0.6929133858267716
        },
        {
          "duration": 0.0527777250000554,
          "durationTicks": 76,
          "midi": 86,
          "name": "D6",
          "ticks": 534600,
          "time": 397.94906337500004,
          "velocity": 0.6929133858267716
        },
        {
          "duration": 0.052777724999998554,
          "durationTicks": 76,
          "midi": 86,
          "name": "D6",
          "ticks": 534720,
          "time": 398.03239662500005,
          "velocity": 0.6929133858267716
        },
        {
          "duration": 0.052777724999998554,
          "durationTicks": 76,
          "midi": 86,
          "name": "D6",
          "ticks": 534840,
          "time": 398.11572987500006,
          "velocity": 0.6929133858267716
        },
        {
          "duration": 0.052777724999998554,
          "durationTicks": 76,
          "midi": 84,
          "name": "C6",
          "ticks": 534960,
          "time": 398.19906312500007,
          "velocity": 0.6929133858267716
        },
        {
          "duration": 0.052777724999998554,
          "durationTicks": 76,
          "midi": 84,
          "name": "C6",
          "ticks": 535080,
          "time": 398.2823963750001,
          "velocity": 0.6929133858267716
        },
        {
          "duration": 0.052777724999998554,
          "durationTicks": 76,
          "midi": 84,
          "name": "C6",
          "ticks": 535200,
          "time": 398.3657296250001,
          "velocity": 0.6929133858267716
        },
        {
          "duration": 0.05277772499994171,
          "durationTicks": 76,
          "midi": 84,
          "name": "C6",
          "ticks": 535320,
          "time": 398.4490628750001,
          "velocity": 0.6929133858267716
        },
        {
          "duration": 0.052777724999998554,
          "durationTicks": 76,
          "midi": 84,
          "name": "C6",
          "ticks": 535440,
          "time": 398.53239612500005,
          "velocity": 0.6929133858267716
        },
        {
          "duration": 0.052777724999998554,
          "durationTicks": 76,
          "midi": 84,
          "name": "C6",
          "ticks": 535560,
          "time": 398.61572937500006,
          "velocity": 0.6929133858267716
        },
        {
          "duration": 0.052777724999998554,
          "durationTicks": 76,
          "midi": 86,
          "name": "D6",
          "ticks": 535680,
          "time": 398.69906262500007,
          "velocity": 0.6929133858267716
        },
        {
          "duration": 0.052777724999998554,
          "durationTicks": 76,
          "midi": 86,
          "name": "D6",
          "ticks": 535800,
          "time": 398.7823958750001,
          "velocity": 0.6929133858267716
        },
        {
          "duration": 0.052777724999998554,
          "durationTicks": 76,
          "midi": 86,
          "name": "D6",
          "ticks": 535920,
          "time": 398.8657291250001,
          "velocity": 0.6929133858267716
        },
        {
          "duration": 0.052777724999998554,
          "durationTicks": 76,
          "midi": 86,
          "name": "D6",
          "ticks": 536040,
          "time": 398.94906237500004,
          "velocity": 0.6929133858267716
        },
        {
          "duration": 0.052777724999998554,
          "durationTicks": 76,
          "midi": 86,
          "name": "D6",
          "ticks": 536160,
          "time": 399.03239562500005,
          "velocity": 0.6929133858267716
        },
        {
          "duration": 0.052777724999998554,
          "durationTicks": 76,
          "midi": 86,
          "name": "D6",
          "ticks": 536280,
          "time": 399.11572887500006,
          "velocity": 0.6929133858267716
        },
        {
          "duration": 0.052777724999998554,
          "durationTicks": 76,
          "midi": 86,
          "name": "D6",
          "ticks": 536400,
          "time": 399.19906212500007,
          "velocity": 0.6929133858267716
        },
        {
          "duration": 0.052777724999998554,
          "durationTicks": 76,
          "midi": 86,
          "name": "D6",
          "ticks": 536520,
          "time": 399.2823953750001,
          "velocity": 0.6929133858267716
        },
        {
          "duration": 0.052777724999998554,
          "durationTicks": 76,
          "midi": 86,
          "name": "D6",
          "ticks": 536640,
          "time": 399.3657286250001,
          "velocity": 0.6929133858267716
        },
        {
          "duration": 0.052777724999998554,
          "durationTicks": 76,
          "midi": 86,
          "name": "D6",
          "ticks": 536760,
          "time": 399.44906187500004,
          "velocity": 0.6929133858267716
        },
        {
          "duration": 0.052777724999998554,
          "durationTicks": 76,
          "midi": 86,
          "name": "D6",
          "ticks": 536880,
          "time": 399.53239512500005,
          "velocity": 0.6929133858267716
        },
        {
          "duration": 0.052777724999998554,
          "durationTicks": 76,
          "midi": 86,
          "name": "D6",
          "ticks": 537000,
          "time": 399.61572837500006,
          "velocity": 0.6929133858267716
        },
        {
          "duration": 0.052777724999998554,
          "durationTicks": 76,
          "midi": 86,
          "name": "D6",
          "ticks": 537120,
          "time": 399.69906162500007,
          "velocity": 0.6929133858267716
        },
        {
          "duration": 0.052777724999998554,
          "durationTicks": 76,
          "midi": 86,
          "name": "D6",
          "ticks": 537240,
          "time": 399.7823948750001,
          "velocity": 0.6929133858267716
        },
        {
          "duration": 0.0527777250000554,
          "durationTicks": 76,
          "midi": 86,
          "name": "D6",
          "ticks": 537360,
          "time": 399.86572812500003,
          "velocity": 0.6929133858267716
        },
        {
          "duration": 0.052777724999998554,
          "durationTicks": 76,
          "midi": 86,
          "name": "D6",
          "ticks": 537480,
          "time": 399.94906137500004,
          "velocity": 0.6929133858267716
        },
        {
          "duration": 0.052777724999998554,
          "durationTicks": 76,
          "midi": 86,
          "name": "D6",
          "ticks": 537600,
          "time": 400.03239462500005,
          "velocity": 0.6929133858267716
        },
        {
          "duration": 0.052777724999998554,
          "durationTicks": 76,
          "midi": 86,
          "name": "D6",
          "ticks": 537720,
          "time": 400.11572787500006,
          "velocity": 0.6929133858267716
        },
        {
          "duration": 0.052777724999998554,
          "durationTicks": 76,
          "midi": 86,
          "name": "D6",
          "ticks": 537840,
          "time": 400.19906112500007,
          "velocity": 0.6929133858267716
        },
        {
          "duration": 0.052777724999998554,
          "durationTicks": 76,
          "midi": 86,
          "name": "D6",
          "ticks": 537960,
          "time": 400.2823943750001,
          "velocity": 0.6929133858267716
        },
        {
          "duration": 0.05277772499994171,
          "durationTicks": 76,
          "midi": 86,
          "name": "D6",
          "ticks": 538080,
          "time": 400.3657276250001,
          "velocity": 0.6929133858267716
        },
        {
          "duration": 0.052777724999998554,
          "durationTicks": 76,
          "midi": 86,
          "name": "D6",
          "ticks": 538200,
          "time": 400.44906087500004,
          "velocity": 0.6929133858267716
        },
        {
          "duration": 0.052777724999998554,
          "durationTicks": 76,
          "midi": 86,
          "name": "D6",
          "ticks": 538320,
          "time": 400.53239412500005,
          "velocity": 0.6929133858267716
        },
        {
          "duration": 0.052777724999998554,
          "durationTicks": 76,
          "midi": 86,
          "name": "D6",
          "ticks": 538440,
          "time": 400.61572737500006,
          "velocity": 0.6929133858267716
        },
        {
          "duration": 0.052777724999998554,
          "durationTicks": 76,
          "midi": 84,
          "name": "C6",
          "ticks": 538560,
          "time": 400.6990606250001,
          "velocity": 0.6929133858267716
        },
        {
          "duration": 0.052777724999998554,
          "durationTicks": 76,
          "midi": 84,
          "name": "C6",
          "ticks": 538680,
          "time": 400.7823938750001,
          "velocity": 0.6929133858267716
        },
        {
          "duration": 0.0527777250000554,
          "durationTicks": 76,
          "midi": 84,
          "name": "C6",
          "ticks": 538800,
          "time": 400.86572712500003,
          "velocity": 0.6929133858267716
        },
        {
          "duration": 0.052777724999998554,
          "durationTicks": 76,
          "midi": 84,
          "name": "C6",
          "ticks": 538920,
          "time": 400.94906037500004,
          "velocity": 0.6929133858267716
        },
        {
          "duration": 0.052777724999998554,
          "durationTicks": 76,
          "midi": 84,
          "name": "C6",
          "ticks": 539040,
          "time": 401.03239362500005,
          "velocity": 0.6929133858267716
        },
        {
          "duration": 0.052777724999998554,
          "durationTicks": 76,
          "midi": 84,
          "name": "C6",
          "ticks": 539160,
          "time": 401.11572687500006,
          "velocity": 0.6929133858267716
        },
        {
          "duration": 0.052777724999998554,
          "durationTicks": 76,
          "midi": 84,
          "name": "C6",
          "ticks": 539280,
          "time": 401.1990601250001,
          "velocity": 0.6929133858267716
        },
        {
          "duration": 0.052777724999998554,
          "durationTicks": 76,
          "midi": 84,
          "name": "C6",
          "ticks": 539400,
          "time": 401.2823933750001,
          "velocity": 0.6929133858267716
        },
        {
          "duration": 0.05277772499994171,
          "durationTicks": 76,
          "midi": 86,
          "name": "D6",
          "ticks": 539520,
          "time": 401.3657266250001,
          "velocity": 0.6929133858267716
        },
        {
          "duration": 0.052777724999998554,
          "durationTicks": 76,
          "midi": 86,
          "name": "D6",
          "ticks": 539640,
          "time": 401.44905987500005,
          "velocity": 0.6929133858267716
        },
        {
          "duration": 0.052777724999998554,
          "durationTicks": 76,
          "midi": 87,
          "name": "D#6",
          "ticks": 539760,
          "time": 401.53239312500006,
          "velocity": 0.6929133858267716
        },
        {
          "duration": 0.052777724999998554,
          "durationTicks": 76,
          "midi": 87,
          "name": "D#6",
          "ticks": 539880,
          "time": 401.61572637500007,
          "velocity": 0.6929133858267716
        },
        {
          "duration": 0.052777724999998554,
          "durationTicks": 76,
          "midi": 86,
          "name": "D6",
          "ticks": 540000,
          "time": 401.6990596250001,
          "velocity": 0.6929133858267716
        },
        {
          "duration": 0.052777724999998554,
          "durationTicks": 76,
          "midi": 86,
          "name": "D6",
          "ticks": 540120,
          "time": 401.7823928750001,
          "velocity": 0.6929133858267716
        },
        {
          "duration": 0.0527777250000554,
          "durationTicks": 76,
          "midi": 86,
          "name": "D6",
          "ticks": 540240,
          "time": 401.86572612500004,
          "velocity": 0.6929133858267716
        },
        {
          "duration": 0.052777724999998554,
          "durationTicks": 76,
          "midi": 86,
          "name": "D6",
          "ticks": 540360,
          "time": 401.94905937500005,
          "velocity": 0.6929133858267716
        },
        {
          "duration": 0.052777724999998554,
          "durationTicks": 76,
          "midi": 86,
          "name": "D6",
          "ticks": 540480,
          "time": 402.03239262500006,
          "velocity": 0.6929133858267716
        },
        {
          "duration": 0.052777724999998554,
          "durationTicks": 76,
          "midi": 86,
          "name": "D6",
          "ticks": 540600,
          "time": 402.11572587500007,
          "velocity": 0.6929133858267716
        },
        {
          "duration": 0.052777724999998554,
          "durationTicks": 76,
          "midi": 84,
          "name": "C6",
          "ticks": 540720,
          "time": 402.1990591250001,
          "velocity": 0.6929133858267716
        },
        {
          "duration": 0.052777724999998554,
          "durationTicks": 76,
          "midi": 84,
          "name": "C6",
          "ticks": 540840,
          "time": 402.2823923750001,
          "velocity": 0.6929133858267716
        },
        {
          "duration": 0.052777724999998554,
          "durationTicks": 76,
          "midi": 84,
          "name": "C6",
          "ticks": 540960,
          "time": 402.36572562500004,
          "velocity": 0.6929133858267716
        },
        {
          "duration": 0.052777724999998554,
          "durationTicks": 76,
          "midi": 84,
          "name": "C6",
          "ticks": 541080,
          "time": 402.44905887500005,
          "velocity": 0.6929133858267716
        },
        {
          "duration": 0.052777724999998554,
          "durationTicks": 76,
          "midi": 84,
          "name": "C6",
          "ticks": 541200,
          "time": 402.53239212500006,
          "velocity": 0.6929133858267716
        },
        {
          "duration": 0.052777724999998554,
          "durationTicks": 76,
          "midi": 84,
          "name": "C6",
          "ticks": 541320,
          "time": 402.61572537500007,
          "velocity": 0.6929133858267716
        },
        {
          "duration": 0.1916664749999768,
          "durationTicks": 276,
          "midi": 82,
          "name": "A#5",
          "ticks": 541440,
          "time": 402.6990586250001,
          "velocity": 0.6929133858267716
        },
        {
          "duration": 0.9972212250000325,
          "durationTicks": 1436,
          "midi": 60,
          "name": "C4",
          "ticks": 557280,
          "time": 413.69904762500005,
          "velocity": 0.3228346456692913
        },
        {
          "duration": 0.08055547499998283,
          "durationTicks": 116,
          "midi": 60,
          "name": "C4",
          "ticks": 558960,
          "time": 414.86571312500007,
          "velocity": 0.3543307086614173
        },
        {
          "duration": 0.08055547499998283,
          "durationTicks": 116,
          "midi": 60,
          "name": "C4",
          "ticks": 559200,
          "time": 415.0323796250001,
          "velocity": 0.3543307086614173
        },
        {
          "duration": 0.08055547500003968,
          "durationTicks": 116,
          "midi": 60,
          "name": "C4",
          "ticks": 559440,
          "time": 415.19904612500005,
          "velocity": 0.3543307086614173
        },
        {
          "duration": 0.08055547499998283,
          "durationTicks": 116,
          "midi": 60,
          "name": "C4",
          "ticks": 559680,
          "time": 415.36571262500007,
          "velocity": 0.36220472440944884
        },
        {
          "duration": 0.08055547500003968,
          "durationTicks": 116,
          "midi": 60,
          "name": "C4",
          "ticks": 559920,
          "time": 415.53237912500003,
          "velocity": 0.36220472440944884
        },
        {
          "duration": 0.9972212250000325,
          "durationTicks": 1436,
          "midi": 61,
          "name": "C#4",
          "ticks": 560160,
          "time": 415.69904562500005,
          "velocity": 0.36220472440944884
        },
        {
          "duration": 0.08055547499998283,
          "durationTicks": 116,
          "midi": 61,
          "name": "C#4",
          "ticks": 561840,
          "time": 416.8657111250001,
          "velocity": 0.3937007874015748
        },
        {
          "duration": 0.08055547499998283,
          "durationTicks": 116,
          "midi": 61,
          "name": "C#4",
          "ticks": 562080,
          "time": 417.0323776250001,
          "velocity": 0.3937007874015748
        },
        {
          "duration": 0.08055547500003968,
          "durationTicks": 116,
          "midi": 61,
          "name": "C#4",
          "ticks": 562320,
          "time": 417.19904412500006,
          "velocity": 0.3937007874015748
        },
        {
          "duration": 0.08055547499998283,
          "durationTicks": 116,
          "midi": 61,
          "name": "C#4",
          "ticks": 562560,
          "time": 417.3657106250001,
          "velocity": 0.3937007874015748
        },
        {
          "duration": 0.08055547500003968,
          "durationTicks": 116,
          "midi": 61,
          "name": "C#4",
          "ticks": 562800,
          "time": 417.53237712500004,
          "velocity": 0.3937007874015748
        },
        {
          "duration": 0.16388872499999252,
          "durationTicks": 236,
          "midi": 62,
          "name": "D4",
          "ticks": 563040,
          "time": 417.69904362500006,
          "velocity": 0.4094488188976378
        },
        {
          "duration": 0.08055547499998283,
          "durationTicks": 116,
          "midi": 65,
          "name": "F4",
          "ticks": 570240,
          "time": 422.69903862500007,
          "velocity": 0.3464566929133858
        },
        {
          "duration": 0.16388872499999252,
          "durationTicks": 236,
          "midi": 69,
          "name": "A4",
          "ticks": 570720,
          "time": 423.03237162500005,
          "velocity": 0.3464566929133858
        },
        {
          "duration": 0.08055547499998283,
          "durationTicks": 116,
          "midi": 72,
          "name": "C5",
          "ticks": 570960,
          "time": 423.1990381250001,
          "velocity": 0.3464566929133858
        },
        {
          "duration": 0.16388872499999252,
          "durationTicks": 236,
          "midi": 77,
          "name": "F5",
          "ticks": 571440,
          "time": 423.53237112500005,
          "velocity": 0.30708661417322836
        },
        {
          "duration": 0.2472219750000022,
          "durationTicks": 356,
          "midi": 70,
          "name": "A#4",
          "ticks": 571680,
          "time": 423.6990376250001,
          "velocity": 0.2677165354330709
        },
        {
          "duration": 0.08055547499998283,
          "durationTicks": 116,
          "midi": 62,
          "name": "D4",
          "ticks": 574800,
          "time": 425.8657021250001,
          "velocity": 0.2677165354330709
        },
        {
          "duration": 0.08055547500003968,
          "durationTicks": 116,
          "midi": 62,
          "name": "D4",
          "ticks": 575040,
          "time": 426.03236862500006,
          "velocity": 0.2677165354330709
        },
        {
          "duration": 0.08055547499998283,
          "durationTicks": 116,
          "midi": 62,
          "name": "D4",
          "ticks": 575280,
          "time": 426.1990351250001,
          "velocity": 0.2755905511811024
        },
        {
          "duration": 0.08055547500003968,
          "durationTicks": 116,
          "midi": 62,
          "name": "D4",
          "ticks": 575520,
          "time": 426.36570162500004,
          "velocity": 0.2755905511811024
        },
        {
          "duration": 0.08055547499998283,
          "durationTicks": 116,
          "midi": 62,
          "name": "D4",
          "ticks": 575760,
          "time": 426.53236812500006,
          "velocity": 0.28346456692913385
        },
        {
          "duration": 0.08055547500003968,
          "durationTicks": 116,
          "midi": 60,
          "name": "C4",
          "ticks": 576240,
          "time": 426.86570112500004,
          "velocity": 0.28346456692913385
        },
        {
          "duration": 0.08055547499998283,
          "durationTicks": 116,
          "midi": 60,
          "name": "C4",
          "ticks": 576480,
          "time": 427.03236762500006,
          "velocity": 0.29133858267716534
        },
        {
          "duration": 0.08055547499998283,
          "durationTicks": 116,
          "midi": 60,
          "name": "C4",
          "ticks": 576720,
          "time": 427.1990341250001,
          "velocity": 0.29133858267716534
        },
        {
          "duration": 0.08055547500003968,
          "durationTicks": 116,
          "midi": 60,
          "name": "C4",
          "ticks": 576960,
          "time": 427.36570062500004,
          "velocity": 0.2992125984251969
        },
        {
          "duration": 0.08055547499998283,
          "durationTicks": 116,
          "midi": 60,
          "name": "C4",
          "ticks": 577200,
          "time": 427.53236712500006,
          "velocity": 0.2992125984251969
        },
        {
          "duration": 0.08055547500003968,
          "durationTicks": 116,
          "midi": 74,
          "name": "D5",
          "ticks": 577680,
          "time": 427.86570012500005,
          "velocity": 0.2440944881889764
        },
        {
          "duration": 0.08055547499998283,
          "durationTicks": 116,
          "midi": 74,
          "name": "D5",
          "ticks": 577920,
          "time": 428.03236662500007,
          "velocity": 0.2440944881889764
        },
        {
          "duration": 0.08055547500003968,
          "durationTicks": 116,
          "midi": 74,
          "name": "D5",
          "ticks": 578160,
          "time": 428.199033125,
          "velocity": 0.25196850393700787
        },
        {
          "duration": 0.08055547499998283,
          "durationTicks": 116,
          "midi": 74,
          "name": "D5",
          "ticks": 578400,
          "time": 428.36569962500005,
          "velocity": 0.25196850393700787
        },
        {
          "duration": 0.08055547499998283,
          "durationTicks": 116,
          "midi": 74,
          "name": "D5",
          "ticks": 578640,
          "time": 428.53236612500007,
          "velocity": 0.25196850393700787
        },
        {
          "duration": 0.08055547500003968,
          "durationTicks": 116,
          "midi": 72,
          "name": "C5",
          "ticks": 579120,
          "time": 428.86569912500005,
          "velocity": 0.25196850393700787
        },
        {
          "duration": 0.08055547499998283,
          "durationTicks": 116,
          "midi": 72,
          "name": "C5",
          "ticks": 579360,
          "time": 429.03236562500007,
          "velocity": 0.25984251968503935
        },
        {
          "duration": 0.08055547500003968,
          "durationTicks": 116,
          "midi": 72,
          "name": "C5",
          "ticks": 579600,
          "time": 429.19903212500003,
          "velocity": 0.25984251968503935
        },
        {
          "duration": 0.08055547499998283,
          "durationTicks": 116,
          "midi": 72,
          "name": "C5",
          "ticks": 579840,
          "time": 429.36569862500005,
          "velocity": 0.2677165354330709
        },
        {
          "duration": 0.08055547499998283,
          "durationTicks": 116,
          "midi": 72,
          "name": "C5",
          "ticks": 580080,
          "time": 429.53236512500007,
          "velocity": 0.2677165354330709
        },
        {
          "duration": 0.10833322499996711,
          "durationTicks": 156,
          "midi": 70,
          "name": "A#4",
          "ticks": 580320,
          "time": 429.6990316250001,
          "velocity": 0.6692913385826772
        },
        {
          "duration": 0.16388872499999252,
          "durationTicks": 236,
          "midi": 74,
          "name": "D5",
          "ticks": 580800,
          "time": 430.03236462500007,
          "velocity": 0.6141732283464567
        },
        {
          "duration": 0.08055547500003968,
          "durationTicks": 116,
          "midi": 77,
          "name": "F5",
          "ticks": 581040,
          "time": 430.19903112500003,
          "velocity": 0.6299212598425197
        },
        {
          "duration": 0.16388872499999252,
          "durationTicks": 236,
          "midi": 82,
          "name": "A#5",
          "ticks": 581520,
          "time": 430.5323641250001,
          "velocity": 0.6535433070866141
        },
        {
          "duration": 0.08055547499998283,
          "durationTicks": 116,
          "midi": 86,
          "name": "D6",
          "ticks": 581760,
          "time": 430.6990306250001,
          "velocity": 0.7480314960629921
        },
        {
          "duration": 0.08055547500003968,
          "durationTicks": 116,
          "midi": 86,
          "name": "D6",
          "ticks": 582000,
          "time": 430.86569712500005,
          "velocity": 0.6220472440944882
        },
        {
          "duration": 0.08055547499998283,
          "durationTicks": 116,
          "midi": 86,
          "name": "D6",
          "ticks": 582240,
          "time": 431.0323636250001,
          "velocity": 0.6220472440944882
        },
        {
          "duration": 0.08055547500003968,
          "durationTicks": 116,
          "midi": 86,
          "name": "D6",
          "ticks": 582480,
          "time": 431.19903012500004,
          "velocity": 0.6220472440944882
        },
        {
          "duration": 0.08055547499998283,
          "durationTicks": 116,
          "midi": 82,
          "name": "A#5",
          "ticks": 582720,
          "time": 431.36569662500006,
          "velocity": 0.6220472440944882
        },
        {
          "duration": 0.08055547499998283,
          "durationTicks": 116,
          "midi": 77,
          "name": "F5",
          "ticks": 582960,
          "time": 431.5323631250001,
          "velocity": 0.6220472440944882
        },
        {
          "duration": 0.08055547499998283,
          "durationTicks": 116,
          "midi": 89,
          "name": "F6",
          "ticks": 583200,
          "time": 431.6990296250001,
          "velocity": 0.7480314960629921
        },
        {
          "duration": 0.08055547500003968,
          "durationTicks": 116,
          "midi": 89,
          "name": "F6",
          "ticks": 583440,
          "time": 431.86569612500006,
          "velocity": 0.6614173228346457
        },
        {
          "duration": 0.08055547499998283,
          "durationTicks": 116,
          "midi": 89,
          "name": "F6",
          "ticks": 583680,
          "time": 432.0323626250001,
          "velocity": 0.6456692913385826
        },
        {
          "duration": 0.08055547500003968,
          "durationTicks": 116,
          "midi": 89,
          "name": "F6",
          "ticks": 583920,
          "time": 432.19902912500004,
          "velocity": 0.6377952755905512
        },
        {
          "duration": 0.08055547499998283,
          "durationTicks": 116,
          "midi": 86,
          "name": "D6",
          "ticks": 584160,
          "time": 432.36569562500006,
          "velocity": 0.6220472440944882
        },
        {
          "duration": 0.08055547499998283,
          "durationTicks": 116,
          "midi": 82,
          "name": "A#5",
          "ticks": 584400,
          "time": 432.5323621250001,
          "velocity": 0.6062992125984252
        },
        {
          "duration": 0.08055547499998283,
          "durationTicks": 116,
          "midi": 86,
          "name": "D6",
          "ticks": 584640,
          "time": 432.6990286250001,
          "velocity": 0.7480314960629921
        },
        {
          "duration": 0.08055547500003968,
          "durationTicks": 116,
          "midi": 82,
          "name": "A#5",
          "ticks": 584880,
          "time": 432.86569512500006,
          "velocity": 0.6850393700787402
        },
        {
          "duration": 0.08055547499998283,
          "durationTicks": 116,
          "midi": 77,
          "name": "F5",
          "ticks": 585120,
          "time": 433.0323616250001,
          "velocity": 0.6692913385826772
        },
        {
          "duration": 0.08055547500003968,
          "durationTicks": 116,
          "midi": 82,
          "name": "A#5",
          "ticks": 585360,
          "time": 433.19902812500004,
          "velocity": 0.7322834645669292
        },
        {
          "duration": 0.08055547499998283,
          "durationTicks": 116,
          "midi": 77,
          "name": "F5",
          "ticks": 585600,
          "time": 433.36569462500006,
          "velocity": 0.6456692913385826
        },
        {
          "duration": 0.08055547499998283,
          "durationTicks": 116,
          "midi": 74,
          "name": "D5",
          "ticks": 585840,
          "time": 433.5323611250001,
          "velocity": 0.6299212598425197
        },
        {
          "duration": 0.13611097500000824,
          "durationTicks": 196,
          "midi": 70,
          "name": "A#4",
          "ticks": 586080,
          "time": 433.69902762500004,
          "velocity": 0.6141732283464567
        },
        {
          "duration": 0.16388872499999252,
          "durationTicks": 236,
          "midi": 82,
          "name": "A#5",
          "ticks": 586800,
          "time": 434.19902712500004,
          "velocity": 0.5826771653543307
        },
        {
          "duration": 0.2472219750000022,
          "durationTicks": 356,
          "midi": 58,
          "name": "A#3",
          "ticks": 587520,
          "time": 434.69902662500004,
          "velocity": 0.5826771653543307
        }
      ]
    },
    {
      "channel": 0,
      "controlChanges": {
        "0": [
          {
            "number": 0,
            "ticks": 0,
            "time": 0,
            "value": 0.007874015748031496
          }
        ],
        "32": [
          {
            "number": 32,
            "ticks": 0,
            "time": 0,
            "value": 0
          }
        ]
      },
      "pitchBends": [],
      "instrument": {
        "family": "piano",
        "number": 0,
        "name": "acoustic grand piano"
      },
      "name": "Violin II",
      "notes": [],
      "endOfTrackTicks": 587520
    },
    {
      "channel": 7,
      "controlChanges": {
        "7": [
          {
            "number": 7,
            "ticks": 0,
            "time": 0,
            "value": 1
          },
          {
            "number": 7,
            "ticks": 480720,
            "time": 360.53243412500007,
            "value": 0.7401574803149606
          },
          {
            "number": 7,
            "ticks": 513840,
            "time": 383.53241112500007,
            "value": 1
          }
        ],
        "10": [
          {
            "number": 10,
            "ticks": 0,
            "time": 0,
            "value": 0.5826771653543307
          }
        ],
        "11": [
          {
            "number": 11,
            "ticks": 84,
            "time": 0.058807,
            "value": 1
          },
          {
            "number": 11,
            "ticks": 311036,
            "time": 230.84018261666665,
            "value": 0.36220472440944884
          },
          {
            "number": 11,
            "ticks": 311044,
            "time": 230.84591163333332,
            "value": 0.3700787401574803
          },
          {
            "number": 11,
            "ticks": 311084,
            "time": 230.87455671666666,
            "value": 0.3779527559055118
          },
          {
            "number": 11,
            "ticks": 311124,
            "time": 230.90320179999998,
            "value": 0.3858267716535433
          },
          {
            "number": 11,
            "ticks": 311164,
            "time": 230.93184688333332,
            "value": 0.3937007874015748
          },
          {
            "number": 11,
            "ticks": 311204,
            "time": 230.96049196666667,
            "value": 0.4015748031496063
          },
          {
            "number": 11,
            "ticks": 311244,
            "time": 230.98913704999998,
            "value": 0.4094488188976378
          },
          {
            "number": 11,
            "ticks": 311284,
            "time": 231.01778213333333,
            "value": 0.41732283464566927
          },
          {
            "number": 11,
            "ticks": 311324,
            "time": 231.04642721666664,
            "value": 0.4251968503937008
          },
          {
            "number": 11,
            "ticks": 311364,
            "time": 231.0750723,
            "value": 0.4330708661417323
          },
          {
            "number": 11,
            "ticks": 311404,
            "time": 231.10371738333333,
            "value": 0.4409448818897638
          },
          {
            "number": 11,
            "ticks": 311444,
            "time": 231.13236246666665,
            "value": 0.4566929133858268
          },
          {
            "number": 11,
            "ticks": 311484,
            "time": 231.16100755,
            "value": 0.47244094488188976
          },
          {
            "number": 11,
            "ticks": 311524,
            "time": 231.1896526333333,
            "value": 0.4881889763779528
          },
          {
            "number": 11,
            "ticks": 311564,
            "time": 231.21829771666665,
            "value": 0.5039370078740157
          },
          {
            "number": 11,
            "ticks": 311604,
            "time": 231.2469428,
            "value": 0.5196850393700787
          },
          {
            "number": 11,
            "ticks": 311644,
            "time": 231.27558788333332,
            "value": 0.5354330708661418
          },
          {
            "number": 11,
            "ticks": 311684,
            "time": 231.30423296666666,
            "value": 0.5511811023622047
          },
          {
            "number": 11,
            "ticks": 311724,
            "time": 231.33287804999998,
            "value": 0.5669291338582677
          },
          {
            "number": 11,
            "ticks": 311764,
            "time": 231.36152313333332,
            "value": 0.5826771653543307
          },
          {
            "number": 11,
            "ticks": 311804,
            "time": 231.39016821666667,
            "value": 0.5984251968503937
          },
          {
            "number": 11,
            "ticks": 311844,
            "time": 231.41881329999998,
            "value": 0.6220472440944882
          },
          {
            "number": 11,
            "ticks": 311884,
            "time": 231.44745838333333,
            "value": 0.6456692913385826
          },
          {
            "number": 11,
            "ticks": 311924,
            "time": 231.47610346666664,
            "value": 0.6692913385826772
          },
          {
            "number": 11,
            "ticks": 311964,
            "time": 231.50474855,
            "value": 0.6929133858267716
          },
          {
            "number": 11,
            "ticks": 312004,
            "time": 231.53339363333333,
            "value": 0.7165354330708661
          },
          {
            "number": 11,
            "ticks": 312044,
            "time": 231.56203871666665,
            "value": 0.7401574803149606
          },
          {
            "number": 11,
            "ticks": 312084,
            "time": 231.5906838,
            "value": 0.7637795275590551
          },
          {
            "number": 11,
            "ticks": 312124,
            "time": 231.6193288833333,
            "value": 0.7874015748031497
          },
          {
            "number": 11,
            "ticks": 312164,
            "time": 231.64797396666665,
            "value": 0.8110236220472441
          },
          {
            "number": 11,
            "ticks": 312204,
            "time": 231.67661905,
            "value": 0.8346456692913385
          },
          {
            "number": 11,
            "ticks": 312244,
            "time": 231.70526413333332,
            "value": 0.8661417322834646
          },
          {
            "number": 11,
            "ticks": 312284,
            "time": 231.73390921666666,
            "value": 0.8976377952755905
          },
          {
            "number": 11,
            "ticks": 312324,
            "time": 231.76255429999998,
            "value": 0.9291338582677166
          },
          {
            "number": 11,
            "ticks": 312364,
            "time": 231.79119938333332,
            "value": 0.9606299212598425
          },
          {
            "number": 11,
            "ticks": 312404,
            "time": 231.81984446666667,
            "value": 0.9921259842519685
          },
          {
            "number": 11,
            "ticks": 312476,
            "time": 231.87140561666666,
            "value": 1
          },
          {
            "number": 11,
            "ticks": 312784,
            "time": 232.09197275833333,
            "value": 0.984251968503937
          },
          {
            "number": 11,
            "ticks": 312828,
            "time": 232.12348235,
            "value": 0.968503937007874
          },
          {
            "number": 11,
            "ticks": 312872,
            "time": 232.15499194166665,
            "value": 0.952755905511811
          },
          {
            "number": 11,
            "ticks": 312916,
            "time": 232.1865015333333,
            "value": 0.937007874015748
          },
          {
            "number": 11,
            "ticks": 312960,
            "time": 232.21801112499998,
            "value": 0.9212598425196851
          },
          {
            "number": 11,
            "ticks": 313004,
            "time": 232.24952071666667,
            "value": 0.905511811023622
          },
          {
            "number": 11,
            "ticks": 313048,
            "time": 232.28103030833333,
            "value": 0.889763779527559
          },
          {
            "number": 11,
            "ticks": 313092,
            "time": 232.3125399,
            "value": 0.8740157480314961
          },
          {
            "number": 11,
            "ticks": 313136,
            "time": 232.34404949166665,
            "value": 0.8582677165354331
          },
          {
            "number": 11,
            "ticks": 313180,
            "time": 232.37555908333331,
            "value": 0.84251968503937
          },
          {
            "number": 11,
            "ticks": 313228,
            "time": 232.40993318333332,
            "value": 0.8267716535433071
          },
          {
            "number": 11,
            "ticks": 313272,
            "time": 232.44144277499998,
            "value": 0.8110236220472441
          },
          {
            "number": 11,
            "ticks": 313316,
            "time": 232.47295236666665,
            "value": 0.7952755905511811
          },
          {
            "number": 11,
            "ticks": 313360,
            "time": 232.5044619583333,
            "value": 0.7795275590551181
          },
          {
            "number": 11,
            "ticks": 313404,
            "time": 232.53597155,
            "value": 0.7637795275590551
          },
          {
            "number": 11,
            "ticks": 313448,
            "time": 232.56748114166666,
            "value": 0.7480314960629921
          },
          {
            "number": 11,
            "ticks": 313492,
            "time": 232.59899073333332,
            "value": 0.7322834645669292
          },
          {
            "number": 11,
            "ticks": 313536,
            "time": 232.63050032499999,
            "value": 0.7165354330708661
          },
          {
            "number": 11,
            "ticks": 313580,
            "time": 232.66200991666665,
            "value": 0.7007874015748031
          },
          {
            "number": 11,
            "ticks": 313624,
            "time": 232.6935195083333,
            "value": 0.6850393700787402
          },
          {
            "number": 11,
            "ticks": 313668,
            "time": 232.7250291,
            "value": 0.6692913385826772
          },
          {
            "number": 11,
            "ticks": 313716,
            "time": 232.75940319999998,
            "value": 0.6535433070866141
          },
          {
            "number": 11,
            "ticks": 313760,
            "time": 232.79091279166664,
            "value": 0.6377952755905512
          },
          {
            "number": 11,
            "ticks": 313804,
            "time": 232.82242238333333,
            "value": 0.6220472440944882
          },
          {
            "number": 11,
            "ticks": 313848,
            "time": 232.853931975,
            "value": 0.6062992125984252
          },
          {
            "number": 11,
            "ticks": 313892,
            "time": 232.88544156666666,
            "value": 0.5905511811023622
          },
          {
            "number": 11,
            "ticks": 325380,
            "time": 241.54977649999998,
            "value": 1
          },
          {
            "number": 11,
            "ticks": 486716,
            "time": 364.69631885000007,
            "value": 0.5196850393700787
          },
          {
            "number": 11,
            "ticks": 486724,
            "time": 364.70187440000007,
            "value": 0.5275590551181102
          },
          {
            "number": 11,
            "ticks": 486768,
            "time": 364.7324299250001,
            "value": 0.5354330708661418
          },
          {
            "number": 11,
            "ticks": 486812,
            "time": 364.7629854500001,
            "value": 0.5433070866141733
          },
          {
            "number": 11,
            "ticks": 486856,
            "time": 364.79354097500004,
            "value": 0.5511811023622047
          },
          {
            "number": 11,
            "ticks": 486900,
            "time": 364.82409650000005,
            "value": 0.5590551181102362
          },
          {
            "number": 11,
            "ticks": 486944,
            "time": 364.85465202500006,
            "value": 0.5669291338582677
          },
          {
            "number": 11,
            "ticks": 486988,
            "time": 364.8852075500001,
            "value": 0.5748031496062992
          },
          {
            "number": 11,
            "ticks": 487032,
            "time": 364.9157630750001,
            "value": 0.5826771653543307
          },
          {
            "number": 11,
            "ticks": 487076,
            "time": 364.94631860000004,
            "value": 0.5905511811023622
          },
          {
            "number": 11,
            "ticks": 487120,
            "time": 364.97687412500005,
            "value": 0.5984251968503937
          },
          {
            "number": 11,
            "ticks": 487164,
            "time": 365.00742965000006,
            "value": 0.6062992125984252
          },
          {
            "number": 11,
            "ticks": 487208,
            "time": 365.0379851750001,
            "value": 0.6141732283464567
          },
          {
            "number": 11,
            "ticks": 487252,
            "time": 365.0685407000001,
            "value": 0.6299212598425197
          },
          {
            "number": 11,
            "ticks": 487296,
            "time": 365.09909622500004,
            "value": 0.6456692913385826
          },
          {
            "number": 11,
            "ticks": 487340,
            "time": 365.12965175000005,
            "value": 0.6614173228346457
          },
          {
            "number": 11,
            "ticks": 487384,
            "time": 365.16020727500006,
            "value": 0.6771653543307087
          },
          {
            "number": 11,
            "ticks": 487428,
            "time": 365.1907628000001,
            "value": 0.6929133858267716
          },
          {
            "number": 11,
            "ticks": 487472,
            "time": 365.2213183250001,
            "value": 0.7086614173228346
          },
          {
            "number": 11,
            "ticks": 487516,
            "time": 365.25187385000004,
            "value": 0.7244094488188977
          },
          {
            "number": 11,
            "ticks": 487560,
            "time": 365.28242937500005,
            "value": 0.7401574803149606
          },
          {
            "number": 11,
            "ticks": 487604,
            "time": 365.31298490000006,
            "value": 0.7559055118110236
          },
          {
            "number": 11,
            "ticks": 487648,
            "time": 365.34354042500007,
            "value": 0.7716535433070866
          },
          {
            "number": 11,
            "ticks": 487692,
            "time": 365.3740959500001,
            "value": 0.7874015748031497
          },
          {
            "number": 11,
            "ticks": 487736,
            "time": 365.40465147500004,
            "value": 0.8110236220472441
          },
          {
            "number": 11,
            "ticks": 487780,
            "time": 365.43520700000005,
            "value": 0.8346456692913385
          },
          {
            "number": 11,
            "ticks": 487824,
            "time": 365.46576252500006,
            "value": 0.8582677165354331
          },
          {
            "number": 11,
            "ticks": 487868,
            "time": 365.49631805000007,
            "value": 0.8818897637795275
          },
          {
            "number": 11,
            "ticks": 487912,
            "time": 365.5268735750001,
            "value": 0.905511811023622
          },
          {
            "number": 11,
            "ticks": 487956,
            "time": 365.5574291000001,
            "value": 0.9291338582677166
          },
          {
            "number": 11,
            "ticks": 488000,
            "time": 365.58798462500005,
            "value": 0.952755905511811
          },
          {
            "number": 11,
            "ticks": 488044,
            "time": 365.61854015000006,
            "value": 0.9763779527559056
          },
          {
            "number": 11,
            "ticks": 488088,
            "time": 365.64909567500007,
            "value": 1
          },
          {
            "number": 11,
            "ticks": 488156,
            "time": 365.69631785000007,
            "value": 1
          }
        ],
        "73": [
          {
            "number": 73,
            "ticks": 73380,
            "time": 51.372115,
            "value": 0.44881889763779526
          },
          {
            "number": 73,
            "ticks": 99240,
            "time": 69.47627,
            "value": 0.5039370078740157
          },
          {
            "number": 73,
            "ticks": 502320,
            "time": 375.53241912500005,
            "value": 0.3464566929133858
          }
        ],
        "91": [
          {
            "number": 91,
            "ticks": 88,
            "time": 0.06160733333333333,
            "value": 0.6220472440944882
          }
        ],
        "93": [
          {
            "number": 93,
            "ticks": 88,
            "time": 0.06160733333333333,
            "value": 0.07874015748031496
          }
        ],
        "121": [
          {
            "number": 121,
            "ticks": 80,
            "time": 0.05600666666666666,
            "value": 0
          }
        ]
      },
      "pitchBends": [
        {
          "ticks": 104,
          "time": 0.07280866666666667,
          "value": 0
        }
      ],
      "instrument": {
        "family": "ensemble",
        "number": 48,
        "name": "string ensemble 1"
      },
      "name": "",
      "notes": [
        {
          "duration": 0.08120966666666618,
          "durationTicks": 116,
          "midi": 58,
          "name": "A#3",
          "ticks": 12960,
          "time": 9.073080000000001,
          "velocity": 0.48031496062992124
        },
        {
          "duration": 0.1652196666666672,
          "durationTicks": 236,
          "midi": 62,
          "name": "D4",
          "ticks": 13440,
          "time": 9.40912,
          "velocity": 0.48031496062992124
        },
        {
          "duration": 0.08120966666666618,
          "durationTicks": 116,
          "midi": 65,
          "name": "F4",
          "ticks": 13680,
          "time": 9.57714,
          "velocity": 0.48031496062992124
        },
        {
          "duration": 0.1652196666666672,
          "durationTicks": 236,
          "midi": 70,
          "name": "A#4",
          "ticks": 14160,
          "time": 9.91318,
          "velocity": 0.48031496062992124
        },
        {
          "duration": 0.6692796666666663,
          "durationTicks": 956,
          "midi": 65,
          "name": "F4",
          "ticks": 14400,
          "time": 10.0812,
          "velocity": 0.48031496062992124
        },
        {
          "duration": 0.1652196666666672,
          "durationTicks": 236,
          "midi": 62,
          "name": "D4",
          "ticks": 15360,
          "time": 10.75328,
          "velocity": 0.48031496062992124
        },
        {
          "duration": 0.1652196666666672,
          "durationTicks": 236,
          "midi": 58,
          "name": "A#3",
          "ticks": 15600,
          "time": 10.9213,
          "velocity": 0.48031496062992124
        },
        {
          "duration": 0.08120966666666618,
          "durationTicks": 116,
          "midi": 57,
          "name": "A3",
          "ticks": 15840,
          "time": 11.08932,
          "velocity": 0.48031496062992124
        },
        {
          "duration": 0.1652196666666672,
          "durationTicks": 236,
          "midi": 65,
          "name": "F4",
          "ticks": 16320,
          "time": 11.42536,
          "velocity": 0.48031496062992124
        },
        {
          "duration": 0.08120966666666796,
          "durationTicks": 116,
          "midi": 58,
          "name": "A#3",
          "ticks": 16560,
          "time": 11.59338,
          "velocity": 0.48031496062992124
        },
        {
          "duration": 0.1652196666666672,
          "durationTicks": 236,
          "midi": 65,
          "name": "F4",
          "ticks": 17040,
          "time": 11.92942,
          "velocity": 0.48031496062992124
        },
        {
          "duration": 0.501259666666666,
          "durationTicks": 716,
          "midi": 62,
          "name": "D4",
          "ticks": 17280,
          "time": 12.09744,
          "velocity": 0.48031496062992124
        },
        {
          "duration": 0.1652196666666672,
          "durationTicks": 236,
          "midi": 60,
          "name": "C4",
          "ticks": 18000,
          "time": 12.6015,
          "velocity": 0.3543307086614173
        },
        {
          "duration": 0.08120966666666618,
          "durationTicks": 116,
          "midi": 62,
          "name": "D4",
          "ticks": 18720,
          "time": 13.10556,
          "velocity": 0.4094488188976378
        },
        {
          "duration": 0.16521966666666543,
          "durationTicks": 236,
          "midi": 57,
          "name": "A3",
          "ticks": 18960,
          "time": 13.27358,
          "velocity": 0.4330708661417323
        },
        {
          "duration": 0.16521966666666543,
          "durationTicks": 236,
          "midi": 58,
          "name": "A#3",
          "ticks": 19200,
          "time": 13.441600000000001,
          "velocity": 0.4566929133858268
        },
        {
          "duration": 0.08120966666666796,
          "durationTicks": 116,
          "midi": 63,
          "name": "D#4",
          "ticks": 19440,
          "time": 13.60962,
          "velocity": 0.48031496062992124
        },
        {
          "duration": 0.1652196666666672,
          "durationTicks": 236,
          "midi": 59,
          "name": "B3",
          "ticks": 19680,
          "time": 13.77764,
          "velocity": 0.5039370078740157
        },
        {
          "duration": 0.1652196666666672,
          "durationTicks": 236,
          "midi": 60,
          "name": "C4",
          "ticks": 19920,
          "time": 13.94566,
          "velocity": 0.5354330708661418
        },
        {
          "duration": 0.501259666666666,
          "durationTicks": 716,
          "midi": 65,
          "name": "F4",
          "ticks": 20160,
          "time": 14.11368,
          "velocity": 0.5590551181102362
        },
        {
          "duration": 0.13721633333333294,
          "durationTicks": 196,
          "midi": 70,
          "name": "A#4",
          "ticks": 20880,
          "time": 14.61774,
          "velocity": 0.48031496062992124
        },
        {
          "duration": 0.08120966666666618,
          "durationTicks": 116,
          "midi": 62,
          "name": "D4",
          "ticks": 21600,
          "time": 15.1218,
          "velocity": 0.48031496062992124
        },
        {
          "duration": 0.08120966666666618,
          "durationTicks": 116,
          "midi": 65,
          "name": "F4",
          "ticks": 21840,
          "time": 15.28982,
          "velocity": 0.48031496062992124
        },
        {
          "duration": 0.08120966666666618,
          "durationTicks": 116,
          "midi": 58,
          "name": "A#3",
          "ticks": 22080,
          "time": 15.457840000000001,
          "velocity": 0.48031496062992124
        },
        {
          "duration": 0.08120966666666796,
          "durationTicks": 116,
          "midi": 63,
          "name": "D#4",
          "ticks": 22320,
          "time": 15.62586,
          "velocity": 0.48031496062992124
        },
        {
          "duration": 0.16521966666666543,
          "durationTicks": 236,
          "midi": 57,
          "name": "A3",
          "ticks": 22800,
          "time": 15.9619,
          "velocity": 0.48031496062992124
        },
        {
          "duration": 0.5012596666666695,
          "durationTicks": 716,
          "midi": 60,
          "name": "C4",
          "ticks": 23040,
          "time": 16.12992,
          "velocity": 0.48031496062992124
        },
        {
          "duration": 0.1932229999999997,
          "durationTicks": 276,
          "midi": 58,
          "name": "A#3",
          "ticks": 23760,
          "time": 16.63398,
          "velocity": 0.4015748031496063
        },
        {
          "duration": 0.08120966666665907,
          "durationTicks": 116,
          "midi": 79,
          "name": "G5",
          "ticks": 57600,
          "time": 40.3248,
          "velocity": 0.4330708661417323
        },
        {
          "duration": 0.16521966666666543,
          "durationTicks": 236,
          "midi": 79,
          "name": "G5",
          "ticks": 58080,
          "time": 40.66084,
          "velocity": 0.4330708661417323
        },
        {
          "duration": 0.08120966666666618,
          "durationTicks": 116,
          "midi": 78,
          "name": "F#5",
          "ticks": 58320,
          "time": 40.82886,
          "velocity": 0.4330708661417323
        },
        {
          "duration": 0.16521966666666543,
          "durationTicks": 236,
          "midi": 78,
          "name": "F#5",
          "ticks": 58800,
          "time": 41.1649,
          "velocity": 0.4330708661417323
        },
        {
          "duration": 0.6692796666666609,
          "durationTicks": 956,
          "midi": 79,
          "name": "G5",
          "ticks": 59040,
          "time": 41.33292,
          "velocity": 0.4330708661417323
        },
        {
          "duration": 0.16521966666666543,
          "durationTicks": 236,
          "midi": 75,
          "name": "D#5",
          "ticks": 60000,
          "time": 42.005,
          "velocity": 0.25984251968503935
        },
        {
          "duration": 0.16521966666666543,
          "durationTicks": 236,
          "midi": 72,
          "name": "C5",
          "ticks": 60240,
          "time": 42.17302,
          "velocity": 0.25984251968503935
        },
        {
          "duration": 0.08120966666666618,
          "durationTicks": 116,
          "midi": 70,
          "name": "A#4",
          "ticks": 60480,
          "time": 42.34104,
          "velocity": 0.25984251968503935
        },
        {
          "duration": 0.08120966666666618,
          "durationTicks": 116,
          "midi": 69,
          "name": "A4",
          "ticks": 61200,
          "time": 42.8451,
          "velocity": 0.25984251968503935
        },
        {
          "duration": 0.5012596666666695,
          "durationTicks": 716,
          "midi": 72,
          "name": "C5",
          "ticks": 61920,
          "time": 43.34916,
          "velocity": 0.25984251968503935
        },
        {
          "duration": 0.16521966666667254,
          "durationTicks": 236,
          "midi": 70,
          "name": "A#4",
          "ticks": 62640,
          "time": 43.85322,
          "velocity": 0.2125984251968504
        },
        {
          "duration": 0.08120966666667329,
          "durationTicks": 116,
          "midi": 79,
          "name": "G5",
          "ticks": 66240,
          "time": 46.37352,
          "velocity": 0.4330708661417323
        },
        {
          "duration": 0.16521966666666543,
          "durationTicks": 236,
          "midi": 79,
          "name": "G5",
          "ticks": 66720,
          "time": 46.70956,
          "velocity": 0.4330708661417323
        },
        {
          "duration": 0.08120966666666618,
          "durationTicks": 116,
          "midi": 78,
          "name": "F#5",
          "ticks": 66960,
          "time": 46.87758,
          "velocity": 0.4330708661417323
        },
        {
          "duration": 0.16521966666667254,
          "durationTicks": 236,
          "midi": 78,
          "name": "F#5",
          "ticks": 67440,
          "time": 47.21362,
          "velocity": 0.4330708661417323
        },
        {
          "duration": 0.9213096666666729,
          "durationTicks": 1316,
          "midi": 79,
          "name": "G5",
          "ticks": 67680,
          "time": 47.38164,
          "velocity": 0.4330708661417323
        },
        {
          "duration": 0.05320633333332836,
          "durationTicks": 76,
          "midi": 82,
          "name": "A#5",
          "ticks": 73440,
          "time": 51.414120000000004,
          "velocity": 0.5196850393700787
        },
        {
          "duration": 0.05320633333332836,
          "durationTicks": 76,
          "midi": 82,
          "name": "A#5",
          "ticks": 73560,
          "time": 51.49813,
          "velocity": 0.5196850393700787
        },
        {
          "duration": 0.05320633333332836,
          "durationTicks": 76,
          "midi": 82,
          "name": "A#5",
          "ticks": 73680,
          "time": 51.58214,
          "velocity": 0.5196850393700787
        },
        {
          "duration": 0.05320633333332836,
          "durationTicks": 76,
          "midi": 82,
          "name": "A#5",
          "ticks": 73800,
          "time": 51.66615,
          "velocity": 0.5196850393700787
        },
        {
          "duration": 0.053206333333335465,
          "durationTicks": 76,
          "midi": 82,
          "name": "A#5",
          "ticks": 73920,
          "time": 51.75016,
          "velocity": 0.5196850393700787
        },
        {
          "duration": 0.053206333333335465,
          "durationTicks": 76,
          "midi": 82,
          "name": "A#5",
          "ticks": 74040,
          "time": 51.83417,
          "velocity": 0.5196850393700787
        },
        {
          "duration": 0.053206333333335465,
          "durationTicks": 76,
          "midi": 82,
          "name": "A#5",
          "ticks": 74160,
          "time": 51.91818,
          "velocity": 0.5196850393700787
        },
        {
          "duration": 0.053206333333335465,
          "durationTicks": 76,
          "midi": 82,
          "name": "A#5",
          "ticks": 74280,
          "time": 52.00219,
          "velocity": 0.5196850393700787
        },
        {
          "duration": 0.053206333333335465,
          "durationTicks": 76,
          "midi": 82,
          "name": "A#5",
          "ticks": 74400,
          "time": 52.0862,
          "velocity": 0.5196850393700787
        },
        {
          "duration": 0.053206333333335465,
          "durationTicks": 76,
          "midi": 82,
          "name": "A#5",
          "ticks": 74520,
          "time": 52.17021,
          "velocity": 0.5196850393700787
        },
        {
          "duration": 0.05320633333332836,
          "durationTicks": 76,
          "midi": 82,
          "name": "A#5",
          "ticks": 74640,
          "time": 52.254220000000004,
          "velocity": 0.5196850393700787
        },
        {
          "duration": 0.05320633333332836,
          "durationTicks": 76,
          "midi": 82,
          "name": "A#5",
          "ticks": 74760,
          "time": 52.33823,
          "velocity": 0.5196850393700787
        },
        {
          "duration": 0.05320633333332836,
          "durationTicks": 76,
          "midi": 82,
          "name": "A#5",
          "ticks": 74880,
          "time": 52.42224,
          "velocity": 0.5196850393700787
        },
        {
          "duration": 0.053206333333335465,
          "durationTicks": 76,
          "midi": 82,
          "name": "A#5",
          "ticks": 75000,
          "time": 52.50625,
          "velocity": 0.5196850393700787
        },
        {
          "duration": 0.053206333333335465,
          "durationTicks": 76,
          "midi": 82,
          "name": "A#5",
          "ticks": 75120,
          "time": 52.59026,
          "velocity": 0.5196850393700787
        },
        {
          "duration": 0.053206333333335465,
          "durationTicks": 76,
          "midi": 82,
          "name": "A#5",
          "ticks": 75240,
          "time": 52.67427,
          "velocity": 0.5196850393700787
        },
        {
          "duration": 0.053206333333335465,
          "durationTicks": 76,
          "midi": 82,
          "name": "A#5",
          "ticks": 75360,
          "time": 52.75828,
          "velocity": 0.5196850393700787
        },
        {
          "duration": 0.053206333333335465,
          "durationTicks": 76,
          "midi": 82,
          "name": "A#5",
          "ticks": 75480,
          "time": 52.84229,
          "velocity": 0.5196850393700787
        },
        {
          "duration": 0.053206333333335465,
          "durationTicks": 76,
          "midi": 82,
          "name": "A#5",
          "ticks": 75600,
          "time": 52.9263,
          "velocity": 0.5196850393700787
        },
        {
          "duration": 0.05320633333332836,
          "durationTicks": 76,
          "midi": 82,
          "name": "A#5",
          "ticks": 75720,
          "time": 53.010310000000004,
          "velocity": 0.5196850393700787
        },
        {
          "duration": 0.05320633333332836,
          "durationTicks": 76,
          "midi": 82,
          "name": "A#5",
          "ticks": 75840,
          "time": 53.09432,
          "velocity": 0.5196850393700787
        },
        {
          "duration": 0.05320633333332836,
          "durationTicks": 76,
          "midi": 82,
          "name": "A#5",
          "ticks": 75960,
          "time": 53.17833,
          "velocity": 0.5196850393700787
        },
        {
          "duration": 0.05320633333332836,
          "durationTicks": 76,
          "midi": 82,
          "name": "A#5",
          "ticks": 76080,
          "time": 53.26234,
          "velocity": 0.5196850393700787
        },
        {
          "duration": 0.053206333333335465,
          "durationTicks": 76,
          "midi": 82,
          "name": "A#5",
          "ticks": 76200,
          "time": 53.34635,
          "velocity": 0.5196850393700787
        },
        {
          "duration": 0.053206333333335465,
          "durationTicks": 76,
          "midi": 82,
          "name": "A#5",
          "ticks": 76320,
          "time": 53.43036,
          "velocity": 0.5196850393700787
        },
        {
          "duration": 0.053206333333335465,
          "durationTicks": 76,
          "midi": 82,
          "name": "A#5",
          "ticks": 76440,
          "time": 53.51437,
          "velocity": 0.5196850393700787
        },
        {
          "duration": 0.053206333333335465,
          "durationTicks": 76,
          "midi": 82,
          "name": "A#5",
          "ticks": 76560,
          "time": 53.59838,
          "velocity": 0.5196850393700787
        },
        {
          "duration": 0.053206333333335465,
          "durationTicks": 76,
          "midi": 82,
          "name": "A#5",
          "ticks": 76680,
          "time": 53.68239,
          "velocity": 0.5196850393700787
        },
        {
          "duration": 0.05320633333332836,
          "durationTicks": 76,
          "midi": 82,
          "name": "A#5",
          "ticks": 76800,
          "time": 53.766400000000004,
          "velocity": 0.5196850393700787
        },
        {
          "duration": 0.05320633333332836,
          "durationTicks": 76,
          "midi": 82,
          "name": "A#5",
          "ticks": 76920,
          "time": 53.850410000000004,
          "velocity": 0.5196850393700787
        },
        {
          "duration": 0.05320633333332836,
          "durationTicks": 76,
          "midi": 82,
          "name": "A#5",
          "ticks": 77040,
          "time": 53.93442,
          "velocity": 0.5196850393700787
        },
        {
          "duration": 0.05320633333332836,
          "durationTicks": 76,
          "midi": 82,
          "name": "A#5",
          "ticks": 77160,
          "time": 54.01843,
          "velocity": 0.5196850393700787
        },
        {
          "duration": 0.053206333333335465,
          "durationTicks": 76,
          "midi": 82,
          "name": "A#5",
          "ticks": 77280,
          "time": 54.10244,
          "velocity": 0.5196850393700787
        },
        {
          "duration": 0.053206333333335465,
          "durationTicks": 76,
          "midi": 82,
          "name": "A#5",
          "ticks": 77400,
          "time": 54.18645,
          "velocity": 0.5196850393700787
        },
        {
          "duration": 0.053206333333335465,
          "durationTicks": 76,
          "midi": 82,
          "name": "A#5",
          "ticks": 77520,
          "time": 54.27046,
          "velocity": 0.5196850393700787
        },
        {
          "duration": 0.053206333333335465,
          "durationTicks": 76,
          "midi": 82,
          "name": "A#5",
          "ticks": 77640,
          "time": 54.35447,
          "velocity": 0.5196850393700787
        },
        {
          "duration": 0.053206333333335465,
          "durationTicks": 76,
          "midi": 82,
          "name": "A#5",
          "ticks": 77760,
          "time": 54.43848,
          "velocity": 0.5196850393700787
        },
        {
          "duration": 0.053206333333335465,
          "durationTicks": 76,
          "midi": 82,
          "name": "A#5",
          "ticks": 77880,
          "time": 54.52249,
          "velocity": 0.5196850393700787
        },
        {
          "duration": 0.05320633333332836,
          "durationTicks": 76,
          "midi": 82,
          "name": "A#5",
          "ticks": 78000,
          "time": 54.606500000000004,
          "velocity": 0.5196850393700787
        },
        {
          "duration": 0.05320633333332836,
          "durationTicks": 76,
          "midi": 82,
          "name": "A#5",
          "ticks": 78120,
          "time": 54.69051,
          "velocity": 0.5196850393700787
        },
        {
          "duration": 0.05320633333332836,
          "durationTicks": 76,
          "midi": 82,
          "name": "A#5",
          "ticks": 78240,
          "time": 54.77452,
          "velocity": 0.5196850393700787
        },
        {
          "duration": 0.05320633333332836,
          "durationTicks": 76,
          "midi": 82,
          "name": "A#5",
          "ticks": 78360,
          "time": 54.85853,
          "velocity": 0.5196850393700787
        },
        {
          "duration": 0.053206333333335465,
          "durationTicks": 76,
          "midi": 81,
          "name": "A5",
          "ticks": 78480,
          "time": 54.94254,
          "velocity": 0.5196850393700787
        },
        {
          "duration": 0.053206333333335465,
          "durationTicks": 76,
          "midi": 81,
          "name": "A5",
          "ticks": 78600,
          "time": 55.02655,
          "velocity": 0.5196850393700787
        },
        {
          "duration": 0.053206333333335465,
          "durationTicks": 76,
          "midi": 81,
          "name": "A5",
          "ticks": 78720,
          "time": 55.11056,
          "velocity": 0.5196850393700787
        },
        {
          "duration": 0.053206333333335465,
          "durationTicks": 76,
          "midi": 81,
          "name": "A5",
          "ticks": 78840,
          "time": 55.19457,
          "velocity": 0.5196850393700787
        },
        {
          "duration": 0.053206333333335465,
          "durationTicks": 76,
          "midi": 81,
          "name": "A5",
          "ticks": 78960,
          "time": 55.27858,
          "velocity": 0.5196850393700787
        },
        {
          "duration": 0.05320633333332836,
          "durationTicks": 76,
          "midi": 81,
          "name": "A5",
          "ticks": 79080,
          "time": 55.362590000000004,
          "velocity": 0.5196850393700787
        },
        {
          "duration": 0.05320633333332836,
          "durationTicks": 76,
          "midi": 82,
          "name": "A#5",
          "ticks": 79200,
          "time": 55.446600000000004,
          "velocity": 0.5196850393700787
        },
        {
          "duration": 0.05320633333332836,
          "durationTicks": 76,
          "midi": 82,
          "name": "A#5",
          "ticks": 79320,
          "time": 55.53061,
          "velocity": 0.5196850393700787
        },
        {
          "duration": 0.05320633333332836,
          "durationTicks": 76,
          "midi": 82,
          "name": "A#5",
          "ticks": 79440,
          "time": 55.61462,
          "velocity": 0.5196850393700787
        },
        {
          "duration": 0.053206333333335465,
          "durationTicks": 76,
          "midi": 82,
          "name": "A#5",
          "ticks": 79560,
          "time": 55.69863,
          "velocity": 0.5196850393700787
        },
        {
          "duration": 0.053206333333335465,
          "durationTicks": 76,
          "midi": 82,
          "name": "A#5",
          "ticks": 79680,
          "time": 55.78264,
          "velocity": 0.5196850393700787
        },
        {
          "duration": 0.053206333333335465,
          "durationTicks": 76,
          "midi": 82,
          "name": "A#5",
          "ticks": 79800,
          "time": 55.86665,
          "velocity": 0.5196850393700787
        },
        {
          "duration": 0.053206333333335465,
          "durationTicks": 76,
          "midi": 82,
          "name": "A#5",
          "ticks": 79920,
          "time": 55.95066,
          "velocity": 0.5196850393700787
        },
        {
          "duration": 0.053206333333335465,
          "durationTicks": 76,
          "midi": 82,
          "name": "A#5",
          "ticks": 80040,
          "time": 56.03467,
          "velocity": 0.5196850393700787
        },
        {
          "duration": 0.053206333333335465,
          "durationTicks": 76,
          "midi": 82,
          "name": "A#5",
          "ticks": 80160,
          "time": 56.11868,
          "velocity": 0.5196850393700787
        },
        {
          "duration": 0.05320633333332836,
          "durationTicks": 76,
          "midi": 82,
          "name": "A#5",
          "ticks": 80280,
          "time": 56.202690000000004,
          "velocity": 0.5196850393700787
        },
        {
          "duration": 0.05320633333332836,
          "durationTicks": 76,
          "midi": 82,
          "name": "A#5",
          "ticks": 80400,
          "time": 56.2867,
          "velocity": 0.5196850393700787
        },
        {
          "duration": 0.05320633333332836,
          "durationTicks": 76,
          "midi": 82,
          "name": "A#5",
          "ticks": 80520,
          "time": 56.37071,
          "velocity": 0.5196850393700787
        },
        {
          "duration": 0.05320633333332836,
          "durationTicks": 76,
          "midi": 82,
          "name": "A#5",
          "ticks": 80640,
          "time": 56.45472,
          "velocity": 0.5196850393700787
        },
        {
          "duration": 0.053206333333335465,
          "durationTicks": 76,
          "midi": 82,
          "name": "A#5",
          "ticks": 80760,
          "time": 56.53873,
          "velocity": 0.5196850393700787
        },
        {
          "duration": 0.053206333333335465,
          "durationTicks": 76,
          "midi": 82,
          "name": "A#5",
          "ticks": 80880,
          "time": 56.62274,
          "velocity": 0.5196850393700787
        },
        {
          "duration": 0.053206333333335465,
          "durationTicks": 76,
          "midi": 82,
          "name": "A#5",
          "ticks": 81000,
          "time": 56.70675,
          "velocity": 0.5196850393700787
        },
        {
          "duration": 0.053206333333335465,
          "durationTicks": 76,
          "midi": 82,
          "name": "A#5",
          "ticks": 81120,
          "time": 56.79076,
          "velocity": 0.5196850393700787
        },
        {
          "duration": 0.053206333333335465,
          "durationTicks": 76,
          "midi": 82,
          "name": "A#5",
          "ticks": 81240,
          "time": 56.87477,
          "velocity": 0.5196850393700787
        },
        {
          "duration": 0.05320633333332836,
          "durationTicks": 76,
          "midi": 82,
          "name": "A#5",
          "ticks": 81360,
          "time": 56.958780000000004,
          "velocity": 0.5196850393700787
        },
        {
          "duration": 0.05320633333332836,
          "durationTicks": 76,
          "midi": 82,
          "name": "A#5",
          "ticks": 81480,
          "time": 57.042790000000004,
          "velocity": 0.5196850393700787
        },
        {
          "duration": 0.05320633333332836,
          "durationTicks": 76,
          "midi": 82,
          "name": "A#5",
          "ticks": 81600,
          "time": 57.1268,
          "velocity": 0.5196850393700787
        },
        {
          "duration": 0.05320633333332836,
          "durationTicks": 76,
          "midi": 82,
          "name": "A#5",
          "ticks": 81720,
          "time": 57.21081,
          "velocity": 0.5196850393700787
        },
        {
          "duration": 0.053206333333335465,
          "durationTicks": 76,
          "midi": 82,
          "name": "A#5",
          "ticks": 81840,
          "time": 57.29482,
          "velocity": 0.5196850393700787
        },
        {
          "duration": 0.053206333333335465,
          "durationTicks": 76,
          "midi": 82,
          "name": "A#5",
          "ticks": 81960,
          "time": 57.37883,
          "velocity": 0.5196850393700787
        },
        {
          "duration": 0.053206333333335465,
          "durationTicks": 76,
          "midi": 82,
          "name": "A#5",
          "ticks": 82080,
          "time": 57.46284,
          "velocity": 0.5196850393700787
        },
        {
          "duration": 0.053206333333335465,
          "durationTicks": 76,
          "midi": 82,
          "name": "A#5",
          "ticks": 82200,
          "time": 57.54685,
          "velocity": 0.5196850393700787
        },
        {
          "duration": 0.053206333333335465,
          "durationTicks": 76,
          "midi": 82,
          "name": "A#5",
          "ticks": 82320,
          "time": 57.63086,
          "velocity": 0.5196850393700787
        },
        {
          "duration": 0.053206333333335465,
          "durationTicks": 76,
          "midi": 82,
          "name": "A#5",
          "ticks": 82440,
          "time": 57.71487,
          "velocity": 0.5196850393700787
        },
        {
          "duration": 0.05320633333332836,
          "durationTicks": 76,
          "midi": 82,
          "name": "A#5",
          "ticks": 82560,
          "time": 57.798880000000004,
          "velocity": 0.5196850393700787
        },
        {
          "duration": 0.05320633333332836,
          "durationTicks": 76,
          "midi": 82,
          "name": "A#5",
          "ticks": 82680,
          "time": 57.88289,
          "velocity": 0.5196850393700787
        },
        {
          "duration": 0.05320633333332836,
          "durationTicks": 76,
          "midi": 82,
          "name": "A#5",
          "ticks": 82800,
          "time": 57.9669,
          "velocity": 0.5196850393700787
        },
        {
          "duration": 0.05320633333332836,
          "durationTicks": 76,
          "midi": 82,
          "name": "A#5",
          "ticks": 82920,
          "time": 58.05091,
          "velocity": 0.5196850393700787
        },
        {
          "duration": 0.053206333333335465,
          "durationTicks": 76,
          "midi": 82,
          "name": "A#5",
          "ticks": 83040,
          "time": 58.13492,
          "velocity": 0.5196850393700787
        },
        {
          "duration": 0.053206333333335465,
          "durationTicks": 76,
          "midi": 82,
          "name": "A#5",
          "ticks": 83160,
          "time": 58.21893,
          "velocity": 0.5196850393700787
        },
        {
          "duration": 0.053206333333335465,
          "durationTicks": 76,
          "midi": 82,
          "name": "A#5",
          "ticks": 83280,
          "time": 58.30294,
          "velocity": 0.5196850393700787
        },
        {
          "duration": 0.053206333333335465,
          "durationTicks": 76,
          "midi": 82,
          "name": "A#5",
          "ticks": 83400,
          "time": 58.38695,
          "velocity": 0.5196850393700787
        },
        {
          "duration": 0.053206333333335465,
          "durationTicks": 76,
          "midi": 82,
          "name": "A#5",
          "ticks": 83520,
          "time": 58.47096,
          "velocity": 0.5196850393700787
        },
        {
          "duration": 0.05320633333332836,
          "durationTicks": 76,
          "midi": 82,
          "name": "A#5",
          "ticks": 83640,
          "time": 58.554970000000004,
          "velocity": 0.5196850393700787
        },
        {
          "duration": 0.05320633333332836,
          "durationTicks": 76,
          "midi": 82,
          "name": "A#5",
          "ticks": 83760,
          "time": 58.638980000000004,
          "velocity": 0.5196850393700787
        },
        {
          "duration": 0.05320633333332836,
          "durationTicks": 76,
          "midi": 82,
          "name": "A#5",
          "ticks": 83880,
          "time": 58.72299,
          "velocity": 0.5196850393700787
        },
        {
          "duration": 0.05320633333332836,
          "durationTicks": 76,
          "midi": 82,
          "name": "A#5",
          "ticks": 84000,
          "time": 58.807,
          "velocity": 0.5196850393700787
        },
        {
          "duration": 0.053206333333335465,
          "durationTicks": 76,
          "midi": 82,
          "name": "A#5",
          "ticks": 84120,
          "time": 58.89101,
          "velocity": 0.5196850393700787
        },
        {
          "duration": 0.053206333333335465,
          "durationTicks": 76,
          "midi": 81,
          "name": "A5",
          "ticks": 84240,
          "time": 58.97502,
          "velocity": 0.5196850393700787
        },
        {
          "duration": 0.053206333333335465,
          "durationTicks": 76,
          "midi": 81,
          "name": "A5",
          "ticks": 84360,
          "time": 59.05903,
          "velocity": 0.5196850393700787
        },
        {
          "duration": 0.053206333333335465,
          "durationTicks": 76,
          "midi": 81,
          "name": "A5",
          "ticks": 84480,
          "time": 59.14304,
          "velocity": 0.5196850393700787
        },
        {
          "duration": 0.053206333333335465,
          "durationTicks": 76,
          "midi": 81,
          "name": "A5",
          "ticks": 84600,
          "time": 59.22705,
          "velocity": 0.5196850393700787
        },
        {
          "duration": 0.053206333333335465,
          "durationTicks": 76,
          "midi": 81,
          "name": "A5",
          "ticks": 84720,
          "time": 59.31106,
          "velocity": 0.5196850393700787
        },
        {
          "duration": 0.05320633333332836,
          "durationTicks": 76,
          "midi": 81,
          "name": "A5",
          "ticks": 84840,
          "time": 59.395070000000004,
          "velocity": 0.5196850393700787
        },
        {
          "duration": 0.1092129999999969,
          "durationTicks": 156,
          "midi": 58,
          "name": "A#3",
          "ticks": 85200,
          "time": 59.6471,
          "velocity": 0.25984251968503935
        },
        {
          "duration": 0.1092129999999969,
          "durationTicks": 156,
          "midi": 58,
          "name": "A#3",
          "ticks": 85440,
          "time": 59.81512,
          "velocity": 0.25984251968503935
        },
        {
          "duration": 0.1092129999999969,
          "durationTicks": 156,
          "midi": 58,
          "name": "A#3",
          "ticks": 85680,
          "time": 59.98314,
          "velocity": 0.25984251968503935
        },
        {
          "duration": 0.10921299999998979,
          "durationTicks": 156,
          "midi": 58,
          "name": "A#3",
          "ticks": 85920,
          "time": 60.151160000000004,
          "velocity": 0.25984251968503935
        },
        {
          "duration": 0.1092129999999969,
          "durationTicks": 156,
          "midi": 58,
          "name": "A#3",
          "ticks": 86160,
          "time": 60.31918,
          "velocity": 0.25984251968503935
        },
        {
          "duration": 0.1092129999999969,
          "durationTicks": 156,
          "midi": 57,
          "name": "A3",
          "ticks": 86640,
          "time": 60.65522,
          "velocity": 0.25984251968503935
        },
        {
          "duration": 0.1092129999999969,
          "durationTicks": 156,
          "midi": 57,
          "name": "A3",
          "ticks": 86880,
          "time": 60.82324,
          "velocity": 0.25984251968503935
        },
        {
          "duration": 0.10921299999998979,
          "durationTicks": 156,
          "midi": 57,
          "name": "A3",
          "ticks": 87120,
          "time": 60.991260000000004,
          "velocity": 0.25984251968503935
        },
        {
          "duration": 0.1092129999999969,
          "durationTicks": 156,
          "midi": 57,
          "name": "A3",
          "ticks": 87360,
          "time": 61.15928,
          "velocity": 0.25984251968503935
        },
        {
          "duration": 0.1092129999999969,
          "durationTicks": 156,
          "midi": 57,
          "name": "A3",
          "ticks": 87600,
          "time": 61.3273,
          "velocity": 0.25984251968503935
        },
        {
          "duration": 0.1092129999999969,
          "durationTicks": 156,
          "midi": 58,
          "name": "A#3",
          "ticks": 88080,
          "time": 61.66334,
          "velocity": 0.25984251968503935
        },
        {
          "duration": 0.1092129999999969,
          "durationTicks": 156,
          "midi": 58,
          "name": "A#3",
          "ticks": 88320,
          "time": 61.831360000000004,
          "velocity": 0.25984251968503935
        },
        {
          "duration": 0.1092129999999969,
          "durationTicks": 156,
          "midi": 58,
          "name": "A#3",
          "ticks": 88560,
          "time": 61.99938,
          "velocity": 0.25984251968503935
        },
        {
          "duration": 0.1092129999999969,
          "durationTicks": 156,
          "midi": 58,
          "name": "A#3",
          "ticks": 88800,
          "time": 62.1674,
          "velocity": 0.25984251968503935
        },
        {
          "duration": 0.1092129999999969,
          "durationTicks": 156,
          "midi": 58,
          "name": "A#3",
          "ticks": 89040,
          "time": 62.33542,
          "velocity": 0.25984251968503935
        },
        {
          "duration": 0.1092129999999969,
          "durationTicks": 156,
          "midi": 57,
          "name": "A3",
          "ticks": 89520,
          "time": 62.67146,
          "velocity": 0.25984251968503935
        },
        {
          "duration": 0.1092129999999969,
          "durationTicks": 156,
          "midi": 57,
          "name": "A3",
          "ticks": 89760,
          "time": 62.83948,
          "velocity": 0.25984251968503935
        },
        {
          "duration": 0.1092129999999969,
          "durationTicks": 156,
          "midi": 57,
          "name": "A3",
          "ticks": 90000,
          "time": 63.0075,
          "velocity": 0.25984251968503935
        },
        {
          "duration": 0.1092129999999969,
          "durationTicks": 156,
          "midi": 57,
          "name": "A3",
          "ticks": 90240,
          "time": 63.17552,
          "velocity": 0.25984251968503935
        },
        {
          "duration": 0.10921299999998979,
          "durationTicks": 156,
          "midi": 57,
          "name": "A3",
          "ticks": 90480,
          "time": 63.343540000000004,
          "velocity": 0.25984251968503935
        },
        {
          "duration": 0.1092129999999969,
          "durationTicks": 156,
          "midi": 58,
          "name": "A#3",
          "ticks": 90720,
          "time": 63.51156,
          "velocity": 0.25984251968503935
        },
        {
          "duration": 0.1092129999999969,
          "durationTicks": 156,
          "midi": 62,
          "name": "D4",
          "ticks": 91440,
          "time": 64.01562,
          "velocity": 0.25984251968503935
        },
        {
          "duration": 0.1092129999999969,
          "durationTicks": 156,
          "midi": 58,
          "name": "A#3",
          "ticks": 92160,
          "time": 64.51968,
          "velocity": 0.25984251968503935
        },
        {
          "duration": 0.4172496666666632,
          "durationTicks": 596,
          "midi": 62,
          "name": "D4",
          "ticks": 99360,
          "time": 69.56028,
          "velocity": 0.2204724409448819
        },
        {
          "duration": 0.03920466666667721,
          "durationTicks": 56,
          "midi": 65,
          "name": "F4",
          "ticks": 100020,
          "time": 70.022335,
          "velocity": 0.2204724409448819
        },
        {
          "duration": 0.08120966666666618,
          "durationTicks": 116,
          "midi": 63,
          "name": "D#4",
          "ticks": 100080,
          "time": 70.06434,
          "velocity": 0.2204724409448819
        },
        {
          "duration": 0.03920466666667721,
          "durationTicks": 56,
          "midi": 62,
          "name": "D4",
          "ticks": 100320,
          "time": 70.23236,
          "velocity": 0.2204724409448819
        },
        {
          "duration": 0.03920466666667721,
          "durationTicks": 56,
          "midi": 63,
          "name": "D#4",
          "ticks": 100560,
          "time": 70.40038,
          "velocity": 0.2204724409448819
        },
        {
          "duration": 0.33323966666667104,
          "durationTicks": 476,
          "midi": 65,
          "name": "F4",
          "ticks": 100800,
          "time": 70.5684,
          "velocity": 0.2204724409448819
        },
        {
          "duration": 0.039204666666663,
          "durationTicks": 56,
          "midi": 62,
          "name": "D4",
          "ticks": 101280,
          "time": 70.90444000000001,
          "velocity": 0.2204724409448819
        },
        {
          "duration": 0.29123466666666786,
          "durationTicks": 416,
          "midi": 67,
          "name": "G4",
          "ticks": 101520,
          "time": 71.07246,
          "velocity": 0.2204724409448819
        },
        {
          "duration": 0.039204666666663,
          "durationTicks": 56,
          "midi": 65,
          "name": "F4",
          "ticks": 102000,
          "time": 71.4085,
          "velocity": 0.2204724409448819
        },
        {
          "duration": 1.005319666666665,
          "durationTicks": 1436,
          "midi": 63,
          "name": "D#4",
          "ticks": 102240,
          "time": 71.57652,
          "velocity": 0.2204724409448819
        },
        {
          "duration": 1.005319666666665,
          "durationTicks": 1436,
          "midi": 60,
          "name": "C4",
          "ticks": 103680,
          "time": 72.58464000000001,
          "velocity": 0.2204724409448819
        },
        {
          "duration": 1.0025193333333249,
          "durationTicks": 1432,
          "midi": 63,
          "name": "D#4",
          "ticks": 103680,
          "time": 72.58464000000001,
          "velocity": 0.2204724409448819
        },
        {
          "duration": 0.15121800000000007,
          "durationTicks": 216,
          "midi": 62,
          "name": "D4",
          "ticks": 105120,
          "time": 73.59276,
          "velocity": 0.2204724409448819
        },
        {
          "duration": 0.053206333333335465,
          "durationTicks": 76,
          "midi": 57,
          "name": "A3",
          "ticks": 110160,
          "time": 77.12118,
          "velocity": 0.1889763779527559
        },
        {
          "duration": 0.053206333333321254,
          "durationTicks": 76,
          "midi": 57,
          "name": "A3",
          "ticks": 110400,
          "time": 77.28920000000001,
          "velocity": 0.1889763779527559
        },
        {
          "duration": 0.053206333333321254,
          "durationTicks": 76,
          "midi": 57,
          "name": "A3",
          "ticks": 110640,
          "time": 77.45722,
          "velocity": 0.1889763779527559
        },
        {
          "duration": 0.24922966666666468,
          "durationTicks": 356,
          "midi": 57,
          "name": "A3",
          "ticks": 110880,
          "time": 77.62524,
          "velocity": 0.1889763779527559
        },
        {
          "duration": 0.053206333333335465,
          "durationTicks": 76,
          "midi": 69,
          "name": "A4",
          "ticks": 111600,
          "time": 78.1293,
          "velocity": 0.1889763779527559
        },
        {
          "duration": 0.053206333333335465,
          "durationTicks": 76,
          "midi": 69,
          "name": "A4",
          "ticks": 111840,
          "time": 78.29732,
          "velocity": 0.1889763779527559
        },
        {
          "duration": 0.053206333333335465,
          "durationTicks": 76,
          "midi": 69,
          "name": "A4",
          "ticks": 112080,
          "time": 78.46534,
          "velocity": 0.1889763779527559
        },
        {
          "duration": 0.2492296666666789,
          "durationTicks": 356,
          "midi": 69,
          "name": "A4",
          "ticks": 112320,
          "time": 78.63336,
          "velocity": 0.1889763779527559
        },
        {
          "duration": 1.005319666666665,
          "durationTicks": 1436,
          "midi": 67,
          "name": "G4",
          "ticks": 120960,
          "time": 84.68208,
          "velocity": 0.15748031496062992
        },
        {
          "duration": 0.16521966666667254,
          "durationTicks": 236,
          "midi": 66,
          "name": "F#4",
          "ticks": 122400,
          "time": 85.6902,
          "velocity": 0.15748031496062992
        },
        {
          "duration": 1.0053196666666793,
          "durationTicks": 1436,
          "midi": 67,
          "name": "G4",
          "ticks": 123840,
          "time": 86.69832,
          "velocity": 0.15748031496062992
        },
        {
          "duration": 0.16521966666667254,
          "durationTicks": 236,
          "midi": 66,
          "name": "F#4",
          "ticks": 125280,
          "time": 87.70644,
          "velocity": 0.15748031496062992
        },
        {
          "duration": 1.005319666666665,
          "durationTicks": 1436,
          "midi": 67,
          "name": "G4",
          "ticks": 126720,
          "time": 88.71456,
          "velocity": 0.15748031496062992
        },
        {
          "duration": 0.16521966666667254,
          "durationTicks": 236,
          "midi": 70,
          "name": "A#4",
          "ticks": 128160,
          "time": 89.72268,
          "velocity": 0.15748031496062992
        },
        {
          "duration": 1.005319666666665,
          "durationTicks": 1436,
          "midi": 60,
          "name": "C4",
          "ticks": 129600,
          "time": 90.7308,
          "velocity": 0.15748031496062992
        },
        {
          "duration": 1.005319666666665,
          "durationTicks": 1436,
          "midi": 65,
          "name": "F4",
          "ticks": 131040,
          "time": 91.73892000000001,
          "velocity": 0.18110236220472442
        },
        {
          "duration": 1.0053196666666793,
          "durationTicks": 1436,
          "midi": 68,
          "name": "G#4",
          "ticks": 132480,
          "time": 92.74704,
          "velocity": 0.2125984251968504
        },
        {
          "duration": 1.005319666666665,
          "durationTicks": 1436,
          "midi": 71,
          "name": "B4",
          "ticks": 133920,
          "time": 93.75516,
          "velocity": 0.25196850393700787
        },
        {
          "duration": 0.22122633333334818,
          "durationTicks": 316,
          "midi": 72,
          "name": "C5",
          "ticks": 135360,
          "time": 94.76328,
          "velocity": 0.1968503937007874
        },
        {
          "duration": 0.08120966666666618,
          "durationTicks": 116,
          "midi": 60,
          "name": "C4",
          "ticks": 141120,
          "time": 98.79576,
          "velocity": 0.4094488188976378
        },
        {
          "duration": 0.16521966666667254,
          "durationTicks": 236,
          "midi": 64,
          "name": "E4",
          "ticks": 141600,
          "time": 99.1318,
          "velocity": 0.4566929133858268
        },
        {
          "duration": 0.08120966666668039,
          "durationTicks": 116,
          "midi": 67,
          "name": "G4",
          "ticks": 141840,
          "time": 99.29982,
          "velocity": 0.48031496062992124
        },
        {
          "duration": 0.16521966666665833,
          "durationTicks": 236,
          "midi": 71,
          "name": "B4",
          "ticks": 142320,
          "time": 99.63586000000001,
          "velocity": 0.5275590551181102
        },
        {
          "duration": 0.08120966666666618,
          "durationTicks": 116,
          "midi": 72,
          "name": "C5",
          "ticks": 142560,
          "time": 99.80388,
          "velocity": 0.4881889763779528
        },
        {
          "duration": 0.16521966666667254,
          "durationTicks": 236,
          "midi": 73,
          "name": "C#5",
          "ticks": 143040,
          "time": 100.13992,
          "velocity": 0.2440944881889764
        },
        {
          "duration": 0.08120966666666618,
          "durationTicks": 116,
          "midi": 74,
          "name": "D5",
          "ticks": 143280,
          "time": 100.30794,
          "velocity": 0.23622047244094488
        },
        {
          "duration": 0.16521966666667254,
          "durationTicks": 236,
          "midi": 72,
          "name": "C5",
          "ticks": 143760,
          "time": 100.64398,
          "velocity": 0.2204724409448819
        },
        {
          "duration": 0.08120966666666618,
          "durationTicks": 116,
          "midi": 70,
          "name": "A#4",
          "ticks": 144000,
          "time": 100.812,
          "velocity": 0.2125984251968504
        },
        {
          "duration": 0.16521966666667254,
          "durationTicks": 236,
          "midi": 69,
          "name": "A4",
          "ticks": 144480,
          "time": 101.14804,
          "velocity": 0.1968503937007874
        },
        {
          "duration": 0.08120966666666618,
          "durationTicks": 116,
          "midi": 67,
          "name": "G4",
          "ticks": 144720,
          "time": 101.31606000000001,
          "velocity": 0.18110236220472442
        },
        {
          "duration": 0.08120966666666618,
          "durationTicks": 116,
          "midi": 60,
          "name": "C4",
          "ticks": 177360,
          "time": 124.16678,
          "velocity": 0.3464566929133858
        },
        {
          "duration": 0.08120966666666618,
          "durationTicks": 116,
          "midi": 60,
          "name": "C4",
          "ticks": 177600,
          "time": 124.3348,
          "velocity": 0.2677165354330709
        },
        {
          "duration": 0.5012596666666695,
          "durationTicks": 716,
          "midi": 60,
          "name": "C4",
          "ticks": 177840,
          "time": 124.50282,
          "velocity": 0.2755905511811024
        },
        {
          "duration": 0.08120966666666618,
          "durationTicks": 116,
          "midi": 61,
          "name": "C#4",
          "ticks": 178800,
          "time": 125.17490000000001,
          "velocity": 0.3700787401574803
        },
        {
          "duration": 0.08120966666666618,
          "durationTicks": 116,
          "midi": 61,
          "name": "C#4",
          "ticks": 179040,
          "time": 125.34292,
          "velocity": 0.29133858267716534
        },
        {
          "duration": 0.5012596666666695,
          "durationTicks": 716,
          "midi": 61,
          "name": "C#4",
          "ticks": 179280,
          "time": 125.51094,
          "velocity": 0.2992125984251969
        },
        {
          "duration": 0.08120966666666618,
          "durationTicks": 116,
          "midi": 63,
          "name": "D#4",
          "ticks": 180240,
          "time": 126.18302,
          "velocity": 0.3937007874015748
        },
        {
          "duration": 0.08120966666668039,
          "durationTicks": 116,
          "midi": 63,
          "name": "D#4",
          "ticks": 180480,
          "time": 126.35104,
          "velocity": 0.31496062992125984
        },
        {
          "duration": 0.5012596666666695,
          "durationTicks": 716,
          "midi": 63,
          "name": "D#4",
          "ticks": 180720,
          "time": 126.51906,
          "velocity": 0.3228346456692913
        },
        {
          "duration": 0.08120966666666618,
          "durationTicks": 116,
          "midi": 65,
          "name": "F4",
          "ticks": 181680,
          "time": 127.19114,
          "velocity": 0.41732283464566927
        },
        {
          "duration": 0.08120966666666618,
          "durationTicks": 116,
          "midi": 65,
          "name": "F4",
          "ticks": 181920,
          "time": 127.35916,
          "velocity": 0.33858267716535434
        },
        {
          "duration": 0.5012596666666838,
          "durationTicks": 716,
          "midi": 65,
          "name": "F4",
          "ticks": 182160,
          "time": 127.52718,
          "velocity": 0.3464566929133858
        },
        {
          "duration": 0.4172496666666632,
          "durationTicks": 596,
          "midi": 63,
          "name": "D#4",
          "ticks": 182880,
          "time": 128.03124,
          "velocity": 0.4330708661417323
        },
        {
          "duration": 0.4172496666666632,
          "durationTicks": 596,
          "midi": 63,
          "name": "D#4",
          "ticks": 183600,
          "time": 128.5353,
          "velocity": 0.4409448818897638
        },
        {
          "duration": 0.0812096666666946,
          "durationTicks": 116,
          "midi": 63,
          "name": "D#4",
          "ticks": 184320,
          "time": 129.03936,
          "velocity": 0.4566929133858268
        },
        {
          "duration": 0.08120966666666618,
          "durationTicks": 116,
          "midi": 72,
          "name": "C5",
          "ticks": 185040,
          "time": 129.54342,
          "velocity": 0.47244094488188976
        },
        {
          "duration": 0.09055153333332555,
          "durationTicks": 116,
          "midi": 69,
          "name": "A4",
          "ticks": 185760,
          "time": 130.04748,
          "velocity": 0.4881889763779528
        },
        {
          "duration": 0.10262592500001233,
          "durationTicks": 116,
          "midi": 63,
          "name": "D#4",
          "ticks": 186480,
          "time": 130.609524,
          "velocity": 0.5039370078740157
        },
        {
          "duration": 0.680717808333327,
          "durationTicks": 956,
          "midi": 60,
          "name": "C4",
          "ticks": 187200,
          "time": 131.2465125,
          "velocity": 0.5196850393700787
        },
        {
          "duration": 0.08120966666666618,
          "durationTicks": 116,
          "midi": 58,
          "name": "A#3",
          "ticks": 226080,
          "time": 167.13212012500003,
          "velocity": 0.48031496062992124
        },
        {
          "duration": 0.16521966666664412,
          "durationTicks": 236,
          "midi": 62,
          "name": "D4",
          "ticks": 226560,
          "time": 167.46816012500003,
          "velocity": 0.48031496062992124
        },
        {
          "duration": 0.08120966666666618,
          "durationTicks": 116,
          "midi": 65,
          "name": "F4",
          "ticks": 226800,
          "time": 167.636180125,
          "velocity": 0.48031496062992124
        },
        {
          "duration": 0.16521966666667254,
          "durationTicks": 236,
          "midi": 70,
          "name": "A#4",
          "ticks": 227280,
          "time": 167.972220125,
          "velocity": 0.48031496062992124
        },
        {
          "duration": 0.6692796666666538,
          "durationTicks": 956,
          "midi": 65,
          "name": "F4",
          "ticks": 227520,
          "time": 168.14024012500002,
          "velocity": 0.48031496062992124
        },
        {
          "duration": 0.16521966666667254,
          "durationTicks": 236,
          "midi": 62,
          "name": "D4",
          "ticks": 228480,
          "time": 168.812320125,
          "velocity": 0.48031496062992124
        },
        {
          "duration": 0.16521966666664412,
          "durationTicks": 236,
          "midi": 58,
          "name": "A#3",
          "ticks": 228720,
          "time": 168.98034012500003,
          "velocity": 0.48031496062992124
        },
        {
          "duration": 0.08120966666666618,
          "durationTicks": 116,
          "midi": 57,
          "name": "A3",
          "ticks": 228960,
          "time": 169.148360125,
          "velocity": 0.48031496062992124
        },
        {
          "duration": 0.16521966666667254,
          "durationTicks": 236,
          "midi": 65,
          "name": "F4",
          "ticks": 229440,
          "time": 169.484400125,
          "velocity": 0.48031496062992124
        },
        {
          "duration": 0.08120966666666618,
          "durationTicks": 116,
          "midi": 58,
          "name": "A#3",
          "ticks": 229680,
          "time": 169.65242012500002,
          "velocity": 0.48031496062992124
        },
        {
          "duration": 0.16521966666667254,
          "durationTicks": 236,
          "midi": 65,
          "name": "F4",
          "ticks": 230160,
          "time": 169.98846012500002,
          "velocity": 0.48031496062992124
        },
        {
          "duration": 0.5012596666666411,
          "durationTicks": 716,
          "midi": 62,
          "name": "D4",
          "ticks": 230400,
          "time": 170.15648012500003,
          "velocity": 0.48031496062992124
        },
        {
          "duration": 0.16521966666667254,
          "durationTicks": 236,
          "midi": 60,
          "name": "C4",
          "ticks": 231120,
          "time": 170.660540125,
          "velocity": 0.3543307086614173
        },
        {
          "duration": 0.08120966666666618,
          "durationTicks": 116,
          "midi": 62,
          "name": "D4",
          "ticks": 231840,
          "time": 171.16460012500002,
          "velocity": 0.4094488188976378
        },
        {
          "duration": 0.16521966666667254,
          "durationTicks": 236,
          "midi": 57,
          "name": "A3",
          "ticks": 232080,
          "time": 171.332620125,
          "velocity": 0.4330708661417323
        },
        {
          "duration": 0.16521966666667254,
          "durationTicks": 236,
          "midi": 58,
          "name": "A#3",
          "ticks": 232320,
          "time": 171.50064012500002,
          "velocity": 0.4566929133858268
        },
        {
          "duration": 0.0812096666666946,
          "durationTicks": 116,
          "midi": 63,
          "name": "D#4",
          "ticks": 232560,
          "time": 171.668660125,
          "velocity": 0.48031496062992124
        },
        {
          "duration": 0.16521966666667254,
          "durationTicks": 236,
          "midi": 59,
          "name": "B3",
          "ticks": 232800,
          "time": 171.83668012500002,
          "velocity": 0.5039370078740157
        },
        {
          "duration": 0.16521966666664412,
          "durationTicks": 236,
          "midi": 60,
          "name": "C4",
          "ticks": 233040,
          "time": 172.00470012500003,
          "velocity": 0.5354330708661418
        },
        {
          "duration": 0.5012596666666695,
          "durationTicks": 716,
          "midi": 65,
          "name": "F4",
          "ticks": 233280,
          "time": 172.172720125,
          "velocity": 0.5590551181102362
        },
        {
          "duration": 0.1372163333333276,
          "durationTicks": 196,
          "midi": 70,
          "name": "A#4",
          "ticks": 234000,
          "time": 172.67678012500002,
          "velocity": 0.48031496062992124
        },
        {
          "duration": 0.053206333333321254,
          "durationTicks": 76,
          "midi": 56,
          "name": "G#3",
          "ticks": 260880,
          "time": 191.49502012500002,
          "velocity": 0.25984251968503935
        },
        {
          "duration": 0.053206333333349676,
          "durationTicks": 76,
          "midi": 56,
          "name": "G#3",
          "ticks": 261120,
          "time": 191.663040125,
          "velocity": 0.25984251968503935
        },
        {
          "duration": 0.053206333333321254,
          "durationTicks": 76,
          "midi": 56,
          "name": "G#3",
          "ticks": 261360,
          "time": 191.83106012500002,
          "velocity": 0.25984251968503935
        },
        {
          "duration": 0.053206333333349676,
          "durationTicks": 76,
          "midi": 56,
          "name": "G#3",
          "ticks": 261600,
          "time": 191.999080125,
          "velocity": 0.25984251968503935
        },
        {
          "duration": 0.053206333333321254,
          "durationTicks": 76,
          "midi": 56,
          "name": "G#3",
          "ticks": 261840,
          "time": 192.16710012500002,
          "velocity": 0.25984251968503935
        },
        {
          "duration": 0.053206333333321254,
          "durationTicks": 76,
          "midi": 55,
          "name": "G3",
          "ticks": 262320,
          "time": 192.50314012500002,
          "velocity": 0.25984251968503935
        },
        {
          "duration": 0.053206333333321254,
          "durationTicks": 76,
          "midi": 55,
          "name": "G3",
          "ticks": 262560,
          "time": 192.67116012500003,
          "velocity": 0.25984251968503935
        },
        {
          "duration": 0.053206333333349676,
          "durationTicks": 76,
          "midi": 55,
          "name": "G3",
          "ticks": 262800,
          "time": 192.839180125,
          "velocity": 0.25984251968503935
        },
        {
          "duration": 0.16521966666664412,
          "durationTicks": 236,
          "midi": 55,
          "name": "G3",
          "ticks": 263040,
          "time": 193.00720012500003,
          "velocity": 0.25984251968503935
        },
        {
          "duration": 0.053206333333321254,
          "durationTicks": 76,
          "midi": 58,
          "name": "A#3",
          "ticks": 263280,
          "time": 193.175220125,
          "velocity": 0.25984251968503935
        },
        {
          "duration": 0.053206333333349676,
          "durationTicks": 76,
          "midi": 68,
          "name": "G#4",
          "ticks": 263760,
          "time": 193.511260125,
          "velocity": 0.25984251968503935
        },
        {
          "duration": 0.053206333333321254,
          "durationTicks": 76,
          "midi": 68,
          "name": "G#4",
          "ticks": 264000,
          "time": 193.67928012500002,
          "velocity": 0.25984251968503935
        },
        {
          "duration": 0.053206333333349676,
          "durationTicks": 76,
          "midi": 68,
          "name": "G#4",
          "ticks": 264240,
          "time": 193.847300125,
          "velocity": 0.25984251968503935
        },
        {
          "duration": 0.053206333333321254,
          "durationTicks": 76,
          "midi": 68,
          "name": "G#4",
          "ticks": 264480,
          "time": 194.01532012500002,
          "velocity": 0.25984251968503935
        },
        {
          "duration": 0.053206333333321254,
          "durationTicks": 76,
          "midi": 68,
          "name": "G#4",
          "ticks": 264720,
          "time": 194.18334012500003,
          "velocity": 0.25984251968503935
        },
        {
          "duration": 0.053206333333321254,
          "durationTicks": 76,
          "midi": 67,
          "name": "G4",
          "ticks": 265200,
          "time": 194.51938012500003,
          "velocity": 0.25984251968503935
        },
        {
          "duration": 0.053206333333321254,
          "durationTicks": 76,
          "midi": 67,
          "name": "G4",
          "ticks": 265440,
          "time": 194.687400125,
          "velocity": 0.25984251968503935
        },
        {
          "duration": 0.053206333333321254,
          "durationTicks": 76,
          "midi": 67,
          "name": "G4",
          "ticks": 265680,
          "time": 194.85542012500002,
          "velocity": 0.25984251968503935
        },
        {
          "duration": 0.16521966666667254,
          "durationTicks": 236,
          "midi": 67,
          "name": "G4",
          "ticks": 265920,
          "time": 195.023440125,
          "velocity": 0.25984251968503935
        },
        {
          "duration": 0.053206333333321254,
          "durationTicks": 76,
          "midi": 70,
          "name": "A#4",
          "ticks": 266160,
          "time": 195.19146012500002,
          "velocity": 0.25984251968503935
        },
        {
          "duration": 0.053206333333321254,
          "durationTicks": 76,
          "midi": 56,
          "name": "G#3",
          "ticks": 266640,
          "time": 195.52750012500002,
          "velocity": 0.25984251968503935
        },
        {
          "duration": 0.053206333333321254,
          "durationTicks": 76,
          "midi": 56,
          "name": "G#3",
          "ticks": 266880,
          "time": 195.69552012500003,
          "velocity": 0.25984251968503935
        },
        {
          "duration": 0.053206333333349676,
          "durationTicks": 76,
          "midi": 56,
          "name": "G#3",
          "ticks": 267120,
          "time": 195.86354012500001,
          "velocity": 0.25984251968503935
        },
        {
          "duration": 0.053206333333349676,
          "durationTicks": 76,
          "midi": 56,
          "name": "G#3",
          "ticks": 267360,
          "time": 196.031560125,
          "velocity": 0.25984251968503935
        },
        {
          "duration": 0.053206333333321254,
          "durationTicks": 76,
          "midi": 56,
          "name": "G#3",
          "ticks": 267600,
          "time": 196.199580125,
          "velocity": 0.25984251968503935
        },
        {
          "duration": 0.053206333333349676,
          "durationTicks": 76,
          "midi": 62,
          "name": "D4",
          "ticks": 268080,
          "time": 196.535620125,
          "velocity": 0.25984251968503935
        },
        {
          "duration": 0.053206333333321254,
          "durationTicks": 76,
          "midi": 62,
          "name": "D4",
          "ticks": 268320,
          "time": 196.70364012500002,
          "velocity": 0.25984251968503935
        },
        {
          "duration": 0.053206333333349676,
          "durationTicks": 76,
          "midi": 62,
          "name": "D4",
          "ticks": 268560,
          "time": 196.871660125,
          "velocity": 0.25984251968503935
        },
        {
          "duration": 0.16521966666667254,
          "durationTicks": 236,
          "midi": 62,
          "name": "D4",
          "ticks": 268800,
          "time": 197.03968012500002,
          "velocity": 0.25984251968503935
        },
        {
          "duration": 0.053206333333321254,
          "durationTicks": 76,
          "midi": 65,
          "name": "F4",
          "ticks": 269040,
          "time": 197.20770012500003,
          "velocity": 0.25984251968503935
        },
        {
          "duration": 0.053206333333349676,
          "durationTicks": 76,
          "midi": 63,
          "name": "D#4",
          "ticks": 269520,
          "time": 197.543740125,
          "velocity": 0.25984251968503935
        },
        {
          "duration": 0.053206333333321254,
          "durationTicks": 76,
          "midi": 63,
          "name": "D#4",
          "ticks": 269760,
          "time": 197.711760125,
          "velocity": 0.25984251968503935
        },
        {
          "duration": 0.053206333333321254,
          "durationTicks": 76,
          "midi": 63,
          "name": "D#4",
          "ticks": 270000,
          "time": 197.87978012500002,
          "velocity": 0.25984251968503935
        },
        {
          "duration": 0.053206333333349676,
          "durationTicks": 76,
          "midi": 63,
          "name": "D#4",
          "ticks": 270240,
          "time": 198.047800125,
          "velocity": 0.25984251968503935
        },
        {
          "duration": 0.053206333333321254,
          "durationTicks": 76,
          "midi": 63,
          "name": "D#4",
          "ticks": 270480,
          "time": 198.21582012500002,
          "velocity": 0.25984251968503935
        },
        {
          "duration": 0.053206333333321254,
          "durationTicks": 76,
          "midi": 69,
          "name": "A4",
          "ticks": 270960,
          "time": 198.55186012500002,
          "velocity": 0.25984251968503935
        },
        {
          "duration": 0.053206333333321254,
          "durationTicks": 76,
          "midi": 69,
          "name": "A4",
          "ticks": 271200,
          "time": 198.71988012500003,
          "velocity": 0.25984251968503935
        },
        {
          "duration": 0.053206333333349676,
          "durationTicks": 76,
          "midi": 69,
          "name": "A4",
          "ticks": 271440,
          "time": 198.88790012500002,
          "velocity": 0.25984251968503935
        },
        {
          "duration": 0.16521966666667254,
          "durationTicks": 236,
          "midi": 69,
          "name": "A4",
          "ticks": 271680,
          "time": 199.055920125,
          "velocity": 0.25984251968503935
        },
        {
          "duration": 0.053206333333321254,
          "durationTicks": 76,
          "midi": 72,
          "name": "C5",
          "ticks": 271920,
          "time": 199.223940125,
          "velocity": 0.25984251968503935
        },
        {
          "duration": 0.053206333333349676,
          "durationTicks": 76,
          "midi": 58,
          "name": "A#3",
          "ticks": 272400,
          "time": 199.559980125,
          "velocity": 0.25984251968503935
        },
        {
          "duration": 0.053206333333321254,
          "durationTicks": 76,
          "midi": 58,
          "name": "A#3",
          "ticks": 272640,
          "time": 199.72800012500002,
          "velocity": 0.25984251968503935
        },
        {
          "duration": 0.053206333333349676,
          "durationTicks": 76,
          "midi": 58,
          "name": "A#3",
          "ticks": 272880,
          "time": 199.896020125,
          "velocity": 0.25984251968503935
        },
        {
          "duration": 0.053206333333321254,
          "durationTicks": 76,
          "midi": 58,
          "name": "A#3",
          "ticks": 273120,
          "time": 200.06404012500002,
          "velocity": 0.25984251968503935
        },
        {
          "duration": 0.053206333333321254,
          "durationTicks": 76,
          "midi": 58,
          "name": "A#3",
          "ticks": 273360,
          "time": 200.23206012500003,
          "velocity": 0.25984251968503935
        },
        {
          "duration": 0.053206333333349676,
          "durationTicks": 76,
          "midi": 64,
          "name": "E4",
          "ticks": 273840,
          "time": 200.568100125,
          "velocity": 0.25984251968503935
        },
        {
          "duration": 0.053206333333321254,
          "durationTicks": 76,
          "midi": 64,
          "name": "E4",
          "ticks": 274080,
          "time": 200.736120125,
          "velocity": 0.25984251968503935
        },
        {
          "duration": 0.053206333333321254,
          "durationTicks": 76,
          "midi": 64,
          "name": "E4",
          "ticks": 274320,
          "time": 200.90414012500003,
          "velocity": 0.25984251968503935
        },
        {
          "duration": 0.16521966666667254,
          "durationTicks": 236,
          "midi": 64,
          "name": "E4",
          "ticks": 274560,
          "time": 201.072160125,
          "velocity": 0.25984251968503935
        },
        {
          "duration": 0.053206333333321254,
          "durationTicks": 76,
          "midi": 67,
          "name": "G4",
          "ticks": 274800,
          "time": 201.24018012500002,
          "velocity": 0.25984251968503935
        },
        {
          "duration": 0.053206333333321254,
          "durationTicks": 76,
          "midi": 65,
          "name": "F4",
          "ticks": 275280,
          "time": 201.57622012500002,
          "velocity": 0.25984251968503935
        },
        {
          "duration": 0.053206333333321254,
          "durationTicks": 76,
          "midi": 65,
          "name": "F4",
          "ticks": 275520,
          "time": 201.74424012500003,
          "velocity": 0.25984251968503935
        },
        {
          "duration": 0.053206333333321254,
          "durationTicks": 76,
          "midi": 65,
          "name": "F4",
          "ticks": 275760,
          "time": 201.91226012500002,
          "velocity": 0.25984251968503935
        },
        {
          "duration": 0.053206333333349676,
          "durationTicks": 76,
          "midi": 65,
          "name": "F4",
          "ticks": 276000,
          "time": 202.080280125,
          "velocity": 0.25984251968503935
        },
        {
          "duration": 0.053206333333321254,
          "durationTicks": 76,
          "midi": 65,
          "name": "F4",
          "ticks": 276240,
          "time": 202.24830012500001,
          "velocity": 0.25984251968503935
        },
        {
          "duration": 3.3575996666666583,
          "durationTicks": 4796,
          "midi": 65,
          "name": "F4",
          "ticks": 276480,
          "time": 202.41632012500003,
          "velocity": 0.1889763779527559
        },
        {
          "duration": 2.11467000833332,
          "durationTicks": 956,
          "midi": 65,
          "name": "F4",
          "ticks": 286560,
          "time": 210.095879125,
          "velocity": 0.3464566929133858
        },
        {
          "duration": 0.05442565833331514,
          "durationTicks": 76,
          "midi": 66,
          "name": "F#4",
          "ticks": 299520,
          "time": 222.593263125,
          "velocity": 0.2047244094488189
        },
        {
          "duration": 0.16900599166666552,
          "durationTicks": 236,
          "midi": 62,
          "name": "D4",
          "ticks": 299760,
          "time": 222.76513362499998,
          "velocity": 0.1732283464566929
        },
        {
          "duration": 0.11171582500000454,
          "durationTicks": 156,
          "midi": 63,
          "name": "D#4",
          "ticks": 300000,
          "time": 222.937004125,
          "velocity": 0.16535433070866143
        },
        {
          "duration": 0.05442565833331514,
          "durationTicks": 76,
          "midi": 68,
          "name": "G#4",
          "ticks": 300240,
          "time": 223.108874625,
          "velocity": 0.18110236220472442
        },
        {
          "duration": 0.16900599166666552,
          "durationTicks": 236,
          "midi": 64,
          "name": "E4",
          "ticks": 300480,
          "time": 223.28074512499998,
          "velocity": 0.14173228346456693
        },
        {
          "duration": 0.11171582500000454,
          "durationTicks": 156,
          "midi": 65,
          "name": "F4",
          "ticks": 300720,
          "time": 223.452615625,
          "velocity": 0.14173228346456693
        },
        {
          "duration": 0.2549412416666712,
          "durationTicks": 356,
          "midi": 70,
          "name": "A#4",
          "ticks": 300960,
          "time": 223.62448612499998,
          "velocity": 0.12598425196850394
        },
        {
          "duration": 1.0283584916666655,
          "durationTicks": 1436,
          "midi": 69,
          "name": "A4",
          "ticks": 311040,
          "time": 230.843047125,
          "velocity": 0.25196850393700787
        },
        {
          "duration": 1.2002289916666768,
          "durationTicks": 1676,
          "midi": 70,
          "name": "A#4",
          "ticks": 312480,
          "time": 231.87427012499998,
          "velocity": 0.25196850393700787
        },
        {
          "duration": 0.34087649166664846,
          "durationTicks": 476,
          "midi": 69,
          "name": "A4",
          "ticks": 313920,
          "time": 232.905493125,
          "velocity": 0.1732283464566929
        },
        {
          "duration": 0.42681174166665414,
          "durationTicks": 596,
          "midi": 62,
          "name": "D4",
          "ticks": 325440,
          "time": 241.592744125,
          "velocity": 0.2204724409448819
        },
        {
          "duration": 0.04010311666667121,
          "durationTicks": 56,
          "midi": 65,
          "name": "F4",
          "ticks": 326100,
          "time": 242.06538799999998,
          "velocity": 0.2204724409448819
        },
        {
          "duration": 0.08307074166665984,
          "durationTicks": 116,
          "midi": 63,
          "name": "D#4",
          "ticks": 326160,
          "time": 242.108355625,
          "velocity": 0.2204724409448819
        },
        {
          "duration": 0.04010311666667121,
          "durationTicks": 56,
          "midi": 62,
          "name": "D4",
          "ticks": 326400,
          "time": 242.28022612499998,
          "velocity": 0.2204724409448819
        },
        {
          "duration": 0.04010311666667121,
          "durationTicks": 56,
          "midi": 63,
          "name": "D#4",
          "ticks": 326640,
          "time": 242.452096625,
          "velocity": 0.2204724409448819
        },
        {
          "duration": 0.3408764916666769,
          "durationTicks": 476,
          "midi": 65,
          "name": "F4",
          "ticks": 326880,
          "time": 242.62396712499998,
          "velocity": 0.2204724409448819
        },
        {
          "duration": 0.04010311666664279,
          "durationTicks": 56,
          "midi": 62,
          "name": "D4",
          "ticks": 327360,
          "time": 242.967708125,
          "velocity": 0.2204724409448819
        },
        {
          "duration": 0.29790886666665983,
          "durationTicks": 416,
          "midi": 67,
          "name": "G4",
          "ticks": 327600,
          "time": 243.13957862499998,
          "velocity": 0.2204724409448819
        },
        {
          "duration": 0.04010311666667121,
          "durationTicks": 56,
          "midi": 65,
          "name": "F4",
          "ticks": 328080,
          "time": 243.48331962499998,
          "velocity": 0.2204724409448819
        },
        {
          "duration": 1.0283584916666655,
          "durationTicks": 1436,
          "midi": 63,
          "name": "D#4",
          "ticks": 328320,
          "time": 243.655190125,
          "velocity": 0.2204724409448819
        },
        {
          "duration": 1.0283584916666655,
          "durationTicks": 1436,
          "midi": 60,
          "name": "C4",
          "ticks": 329760,
          "time": 244.686413125,
          "velocity": 0.2204724409448819
        },
        {
          "duration": 1.0254939833333196,
          "durationTicks": 1432,
          "midi": 63,
          "name": "D#4",
          "ticks": 329760,
          "time": 244.686413125,
          "velocity": 0.2204724409448819
        },
        {
          "duration": 0.15468344999999317,
          "durationTicks": 216,
          "midi": 62,
          "name": "D4",
          "ticks": 331200,
          "time": 245.71763612499998,
          "velocity": 0.2204724409448819
        },
        {
          "duration": 0.05442565833331514,
          "durationTicks": 76,
          "midi": 57,
          "name": "A3",
          "ticks": 336240,
          "time": 249.326916625,
          "velocity": 0.2677165354330709
        },
        {
          "duration": 0.05442565833334356,
          "durationTicks": 76,
          "midi": 57,
          "name": "A3",
          "ticks": 336480,
          "time": 249.49878712499998,
          "velocity": 0.1889763779527559
        },
        {
          "duration": 0.05442565833334356,
          "durationTicks": 76,
          "midi": 57,
          "name": "A3",
          "ticks": 336720,
          "time": 249.670657625,
          "velocity": 0.1889763779527559
        },
        {
          "duration": 0.2549412416666428,
          "durationTicks": 356,
          "midi": 57,
          "name": "A3",
          "ticks": 336960,
          "time": 249.842528125,
          "velocity": 0.15748031496062992
        },
        {
          "duration": 0.05442565833334356,
          "durationTicks": 76,
          "midi": 69,
          "name": "A4",
          "ticks": 337680,
          "time": 250.35813962499998,
          "velocity": 0.2677165354330709
        },
        {
          "duration": 0.05442565833334356,
          "durationTicks": 76,
          "midi": 69,
          "name": "A4",
          "ticks": 337920,
          "time": 250.530010125,
          "velocity": 0.1889763779527559
        },
        {
          "duration": 0.05442565833331514,
          "durationTicks": 76,
          "midi": 69,
          "name": "A4",
          "ticks": 338160,
          "time": 250.701880625,
          "velocity": 0.1889763779527559
        },
        {
          "duration": 0.2549412416666712,
          "durationTicks": 356,
          "midi": 69,
          "name": "A4",
          "ticks": 338400,
          "time": 250.87375112499998,
          "velocity": 0.15748031496062992
        },
        {
          "duration": 1.0283584916666655,
          "durationTicks": 1436,
          "midi": 67,
          "name": "G4",
          "ticks": 347040,
          "time": 257.06108912499997,
          "velocity": 0.15748031496062992
        },
        {
          "duration": 0.16900599166666552,
          "durationTicks": 236,
          "midi": 68,
          "name": "G#4",
          "ticks": 348480,
          "time": 258.092312125,
          "velocity": 0.15748031496062992
        },
        {
          "duration": 1.0283584916666655,
          "durationTicks": 1436,
          "midi": 67,
          "name": "G4",
          "ticks": 349920,
          "time": 259.123535125,
          "velocity": 0.15748031496062992
        },
        {
          "duration": 0.16900599166666552,
          "durationTicks": 236,
          "midi": 68,
          "name": "G#4",
          "ticks": 351360,
          "time": 260.154758125,
          "velocity": 0.15748031496062992
        },
        {
          "duration": 1.1429388249999874,
          "durationTicks": 1596,
          "midi": 67,
          "name": "G4",
          "ticks": 352800,
          "time": 261.185981125,
          "velocity": 0.15748031496062992
        },
        {
          "duration": 0.16900599166666552,
          "durationTicks": 236,
          "midi": 69,
          "name": "A4",
          "ticks": 354240,
          "time": 262.21720412499997,
          "velocity": 0.15748031496062992
        },
        {
          "duration": 1.0283584916666655,
          "durationTicks": 1436,
          "midi": 58,
          "name": "A#3",
          "ticks": 355680,
          "time": 263.248427125,
          "velocity": 0.15748031496062992
        },
        {
          "duration": 1.0283584916666655,
          "durationTicks": 1436,
          "midi": 61,
          "name": "C#4",
          "ticks": 357120,
          "time": 264.279650125,
          "velocity": 0.1889763779527559
        },
        {
          "duration": 1.0283584916666655,
          "durationTicks": 1436,
          "midi": 64,
          "name": "E4",
          "ticks": 358560,
          "time": 265.310873125,
          "velocity": 0.2204724409448819
        },
        {
          "duration": 1.0283584916666655,
          "durationTicks": 1436,
          "midi": 70,
          "name": "A#4",
          "ticks": 360000,
          "time": 266.342096125,
          "velocity": 0.25984251968503935
        },
        {
          "duration": 0.22629615833335492,
          "durationTicks": 316,
          "midi": 69,
          "name": "A4",
          "ticks": 361440,
          "time": 267.37331912499997,
          "velocity": 0.2047244094488189
        },
        {
          "duration": 0.08307074166668826,
          "durationTicks": 116,
          "midi": 65,
          "name": "F4",
          "ticks": 403440,
          "time": 297.45065662499997,
          "velocity": 0.3464566929133858
        },
        {
          "duration": 0.08307074166668826,
          "durationTicks": 116,
          "midi": 65,
          "name": "F4",
          "ticks": 403680,
          "time": 297.622527125,
          "velocity": 0.2677165354330709
        },
        {
          "duration": 0.5127469916666882,
          "durationTicks": 716,
          "midi": 65,
          "name": "F4",
          "ticks": 403920,
          "time": 297.794397625,
          "velocity": 0.2755905511811024
        },
        {
          "duration": 0.08307074166668826,
          "durationTicks": 116,
          "midi": 66,
          "name": "F#4",
          "ticks": 404880,
          "time": 298.481879625,
          "velocity": 0.3700787401574803
        },
        {
          "duration": 0.08307074166668826,
          "durationTicks": 116,
          "midi": 66,
          "name": "F#4",
          "ticks": 405120,
          "time": 298.653750125,
          "velocity": 0.29133858267716534
        },
        {
          "duration": 0.5127469916666882,
          "durationTicks": 716,
          "midi": 66,
          "name": "F#4",
          "ticks": 405360,
          "time": 298.825620625,
          "velocity": 0.2992125984251969
        },
        {
          "duration": 0.08307074166668826,
          "durationTicks": 116,
          "midi": 68,
          "name": "G#4",
          "ticks": 406320,
          "time": 299.513102625,
          "velocity": 0.3937007874015748
        },
        {
          "duration": 0.08307074166668826,
          "durationTicks": 116,
          "midi": 68,
          "name": "G#4",
          "ticks": 406560,
          "time": 299.684973125,
          "velocity": 0.31496062992125984
        },
        {
          "duration": 0.5127469916666314,
          "durationTicks": 716,
          "midi": 68,
          "name": "G#4",
          "ticks": 406800,
          "time": 299.856843625,
          "velocity": 0.3228346456692913
        },
        {
          "duration": 0.08307074166668826,
          "durationTicks": 116,
          "midi": 70,
          "name": "A#4",
          "ticks": 407760,
          "time": 300.544325625,
          "velocity": 0.41732283464566927
        },
        {
          "duration": 0.08307074166663142,
          "durationTicks": 116,
          "midi": 70,
          "name": "A#4",
          "ticks": 408000,
          "time": 300.716196125,
          "velocity": 0.33858267716535434
        },
        {
          "duration": 0.5127469916666882,
          "durationTicks": 716,
          "midi": 70,
          "name": "A#4",
          "ticks": 408240,
          "time": 300.88806662499996,
          "velocity": 0.3464566929133858
        },
        {
          "duration": 0.05442565833334356,
          "durationTicks": 76,
          "midi": 74,
          "name": "D5",
          "ticks": 408960,
          "time": 301.403678125,
          "velocity": 0.3464566929133858
        },
        {
          "duration": 0.05442565833334356,
          "durationTicks": 76,
          "midi": 74,
          "name": "D5",
          "ticks": 409200,
          "time": 301.575548625,
          "velocity": 0.2755905511811024
        },
        {
          "duration": 0.05442565833334356,
          "durationTicks": 76,
          "midi": 72,
          "name": "C5",
          "ticks": 409680,
          "time": 301.919289625,
          "velocity": 0.3779527559055118
        },
        {
          "duration": 0.05442565833334356,
          "durationTicks": 76,
          "midi": 72,
          "name": "C5",
          "ticks": 409920,
          "time": 302.091160125,
          "velocity": 0.30708661417322836
        },
        {
          "duration": 0.05442565833334356,
          "durationTicks": 76,
          "midi": 72,
          "name": "C5",
          "ticks": 410400,
          "time": 302.434901125,
          "velocity": 0.41732283464566927
        },
        {
          "duration": 0.05442565833334356,
          "durationTicks": 76,
          "midi": 72,
          "name": "C5",
          "ticks": 410640,
          "time": 302.60677162499996,
          "velocity": 0.3464566929133858
        },
        {
          "duration": 0.05442565833334356,
          "durationTicks": 76,
          "midi": 70,
          "name": "A#4",
          "ticks": 411120,
          "time": 302.950512625,
          "velocity": 0.4566929133858268
        },
        {
          "duration": 0.05442565833334356,
          "durationTicks": 76,
          "midi": 70,
          "name": "A#4",
          "ticks": 411360,
          "time": 303.122383125,
          "velocity": 0.3937007874015748
        },
        {
          "duration": 0.05442565833334356,
          "durationTicks": 76,
          "midi": 82,
          "name": "A#5",
          "ticks": 411840,
          "time": 303.46612412499996,
          "velocity": 0.4330708661417323
        },
        {
          "duration": 0.05442565833334356,
          "durationTicks": 76,
          "midi": 82,
          "name": "A#5",
          "ticks": 411960,
          "time": 303.552059375,
          "velocity": 0.4330708661417323
        },
        {
          "duration": 0.05442565833334356,
          "durationTicks": 76,
          "midi": 82,
          "name": "A#5",
          "ticks": 412080,
          "time": 303.637994625,
          "velocity": 0.4409448818897638
        },
        {
          "duration": 0.05442565833328672,
          "durationTicks": 76,
          "midi": 82,
          "name": "A#5",
          "ticks": 412200,
          "time": 303.723929875,
          "velocity": 0.44881889763779526
        },
        {
          "duration": 0.05442565833334356,
          "durationTicks": 76,
          "midi": 82,
          "name": "A#5",
          "ticks": 412320,
          "time": 303.809865125,
          "velocity": 0.4566929133858268
        },
        {
          "duration": 0.05442565833328672,
          "durationTicks": 76,
          "midi": 82,
          "name": "A#5",
          "ticks": 412440,
          "time": 303.895800375,
          "velocity": 0.4645669291338583
        },
        {
          "duration": 0.05442565833334356,
          "durationTicks": 76,
          "midi": 82,
          "name": "A#5",
          "ticks": 412560,
          "time": 303.981735625,
          "velocity": 0.47244094488188976
        },
        {
          "duration": 0.05442565833334356,
          "durationTicks": 76,
          "midi": 82,
          "name": "A#5",
          "ticks": 412680,
          "time": 304.067670875,
          "velocity": 0.48031496062992124
        },
        {
          "duration": 0.05442565833334356,
          "durationTicks": 76,
          "midi": 82,
          "name": "A#5",
          "ticks": 412800,
          "time": 304.153606125,
          "velocity": 0.4881889763779528
        },
        {
          "duration": 0.05442565833334356,
          "durationTicks": 76,
          "midi": 82,
          "name": "A#5",
          "ticks": 412920,
          "time": 304.239541375,
          "velocity": 0.49606299212598426
        },
        {
          "duration": 0.05442565833334356,
          "durationTicks": 76,
          "midi": 82,
          "name": "A#5",
          "ticks": 413040,
          "time": 304.32547662499996,
          "velocity": 0.5039370078740157
        },
        {
          "duration": 0.05442565833334356,
          "durationTicks": 76,
          "midi": 82,
          "name": "A#5",
          "ticks": 413160,
          "time": 304.411411875,
          "velocity": 0.5118110236220472
        },
        {
          "duration": 0.05442565833334356,
          "durationTicks": 76,
          "midi": 82,
          "name": "A#5",
          "ticks": 413280,
          "time": 304.497347125,
          "velocity": 0.5196850393700787
        },
        {
          "duration": 0.05442565833328672,
          "durationTicks": 76,
          "midi": 82,
          "name": "A#5",
          "ticks": 413400,
          "time": 304.583282375,
          "velocity": 0.5196850393700787
        },
        {
          "duration": 0.05442565833334356,
          "durationTicks": 76,
          "midi": 82,
          "name": "A#5",
          "ticks": 413520,
          "time": 304.669217625,
          "velocity": 0.5196850393700787
        },
        {
          "duration": 0.05442565833328672,
          "durationTicks": 76,
          "midi": 82,
          "name": "A#5",
          "ticks": 413640,
          "time": 304.755152875,
          "velocity": 0.5196850393700787
        },
        {
          "duration": 0.05442565833334356,
          "durationTicks": 76,
          "midi": 82,
          "name": "A#5",
          "ticks": 413760,
          "time": 304.841088125,
          "velocity": 0.5196850393700787
        },
        {
          "duration": 0.05442565833334356,
          "durationTicks": 76,
          "midi": 82,
          "name": "A#5",
          "ticks": 413880,
          "time": 304.927023375,
          "velocity": 0.5196850393700787
        },
        {
          "duration": 0.05442565833334356,
          "durationTicks": 76,
          "midi": 82,
          "name": "A#5",
          "ticks": 414000,
          "time": 305.012958625,
          "velocity": 0.5196850393700787
        },
        {
          "duration": 0.05442565833334356,
          "durationTicks": 76,
          "midi": 82,
          "name": "A#5",
          "ticks": 414120,
          "time": 305.098893875,
          "velocity": 0.5196850393700787
        },
        {
          "duration": 0.05442565833334356,
          "durationTicks": 76,
          "midi": 82,
          "name": "A#5",
          "ticks": 414240,
          "time": 305.18482912499996,
          "velocity": 0.5196850393700787
        },
        {
          "duration": 0.05442565833334356,
          "durationTicks": 76,
          "midi": 82,
          "name": "A#5",
          "ticks": 414360,
          "time": 305.270764375,
          "velocity": 0.5196850393700787
        },
        {
          "duration": 0.05442565833334356,
          "durationTicks": 76,
          "midi": 82,
          "name": "A#5",
          "ticks": 414480,
          "time": 305.356699625,
          "velocity": 0.5196850393700787
        },
        {
          "duration": 0.05442565833328672,
          "durationTicks": 76,
          "midi": 82,
          "name": "A#5",
          "ticks": 414600,
          "time": 305.442634875,
          "velocity": 0.5196850393700787
        },
        {
          "duration": 0.05442565833334356,
          "durationTicks": 76,
          "midi": 82,
          "name": "A#5",
          "ticks": 414720,
          "time": 305.528570125,
          "velocity": 0.5196850393700787
        },
        {
          "duration": 0.05442565833328672,
          "durationTicks": 76,
          "midi": 82,
          "name": "A#5",
          "ticks": 414840,
          "time": 305.614505375,
          "velocity": 0.5196850393700787
        },
        {
          "duration": 0.05442565833334356,
          "durationTicks": 76,
          "midi": 82,
          "name": "A#5",
          "ticks": 414960,
          "time": 305.700440625,
          "velocity": 0.5196850393700787
        },
        {
          "duration": 0.05442565833334356,
          "durationTicks": 76,
          "midi": 82,
          "name": "A#5",
          "ticks": 415080,
          "time": 305.786375875,
          "velocity": 0.5196850393700787
        },
        {
          "duration": 0.05442565833334356,
          "durationTicks": 76,
          "midi": 82,
          "name": "A#5",
          "ticks": 415200,
          "time": 305.872311125,
          "velocity": 0.5196850393700787
        },
        {
          "duration": 0.05442565833334356,
          "durationTicks": 76,
          "midi": 82,
          "name": "A#5",
          "ticks": 415320,
          "time": 305.958246375,
          "velocity": 0.5196850393700787
        },
        {
          "duration": 0.05932686666665177,
          "durationTicks": 76,
          "midi": 82,
          "name": "A#5",
          "ticks": 415440,
          "time": 306.04418162499996,
          "velocity": 0.5196850393700787
        },
        {
          "duration": 0.05932686666665177,
          "durationTicks": 76,
          "midi": 82,
          "name": "A#5",
          "ticks": 415560,
          "time": 306.137855625,
          "velocity": 0.5196850393700787
        },
        {
          "duration": 0.05932686666670861,
          "durationTicks": 76,
          "midi": 82,
          "name": "A#5",
          "ticks": 415680,
          "time": 306.23152962499995,
          "velocity": 0.5196850393700787
        },
        {
          "duration": 0.05932686666665177,
          "durationTicks": 76,
          "midi": 82,
          "name": "A#5",
          "ticks": 415800,
          "time": 306.325203625,
          "velocity": 0.5196850393700787
        },
        {
          "duration": 0.05932686666670861,
          "durationTicks": 76,
          "midi": 82,
          "name": "A#5",
          "ticks": 415920,
          "time": 306.41887762499994,
          "velocity": 0.5196850393700787
        },
        {
          "duration": 0.05932686666665177,
          "durationTicks": 76,
          "midi": 82,
          "name": "A#5",
          "ticks": 416040,
          "time": 306.51255162499996,
          "velocity": 0.5196850393700787
        },
        {
          "duration": 0.06303503333333538,
          "durationTicks": 76,
          "midi": 82,
          "name": "A#5",
          "ticks": 416160,
          "time": 306.606225625,
          "velocity": 0.5196850393700787
        },
        {
          "duration": 0.06303503333333538,
          "durationTicks": 76,
          "midi": 82,
          "name": "A#5",
          "ticks": 416280,
          "time": 306.705754625,
          "velocity": 0.5196850393700787
        },
        {
          "duration": 0.06723767500000122,
          "durationTicks": 76,
          "midi": 82,
          "name": "A#5",
          "ticks": 416400,
          "time": 306.80528362499996,
          "velocity": 0.5196850393700787
        },
        {
          "duration": 0.06723767500000122,
          "durationTicks": 76,
          "midi": 82,
          "name": "A#5",
          "ticks": 416520,
          "time": 306.91144837499996,
          "velocity": 0.5196850393700787
        },
        {
          "duration": 0.07204071666666323,
          "durationTicks": 76,
          "midi": 82,
          "name": "A#5",
          "ticks": 416640,
          "time": 307.01761312499997,
          "velocity": 0.5196850393700787
        },
        {
          "duration": 0.07204071666666323,
          "durationTicks": 76,
          "midi": 82,
          "name": "A#5",
          "ticks": 416760,
          "time": 307.13136162499995,
          "velocity": 0.5196850393700787
        },
        {
          "duration": 0.07758269999999357,
          "durationTicks": 76,
          "midi": 82,
          "name": "A#5",
          "ticks": 416880,
          "time": 307.245110125,
          "velocity": 0.5196850393700787
        },
        {
          "duration": 0.07758269999999357,
          "durationTicks": 76,
          "midi": 82,
          "name": "A#5",
          "ticks": 417000,
          "time": 307.367609125,
          "velocity": 0.5196850393700787
        },
        {
          "duration": 0.08404855833333613,
          "durationTicks": 76,
          "midi": 82,
          "name": "A#5",
          "ticks": 417120,
          "time": 307.490108125,
          "velocity": 0.5196850393700787
        },
        {
          "duration": 0.08404855833333613,
          "durationTicks": 76,
          "midi": 82,
          "name": "A#5",
          "ticks": 417240,
          "time": 307.622816375,
          "velocity": 0.5196850393700787
        },
        {
          "duration": 0.10085991666664995,
          "durationTicks": 76,
          "midi": 82,
          "name": "A#5",
          "ticks": 417360,
          "time": 307.755524625,
          "velocity": 0.5196850393700787
        },
        {
          "duration": 0.1008599166667068,
          "durationTicks": 76,
          "midi": 82,
          "name": "A#5",
          "ticks": 417480,
          "time": 307.914777125,
          "velocity": 0.5196850393700787
        },
        {
          "duration": 0.902472199999977,
          "durationTicks": 476,
          "midi": 82,
          "name": "A#5",
          "ticks": 417600,
          "time": 308.07402962500004,
          "velocity": 0.5196850393700787
        },
        {
          "duration": 0.9972212249999757,
          "durationTicks": 1436,
          "midi": 60,
          "name": "C4",
          "ticks": 480960,
          "time": 360.6991006250001,
          "velocity": 0.18110236220472442
        },
        {
          "duration": 0.9972212249999757,
          "durationTicks": 1436,
          "midi": 58,
          "name": "A#3",
          "ticks": 482280,
          "time": 361.6157663750001,
          "velocity": 0.18110236220472442
        },
        {
          "duration": 0.9972212249999757,
          "durationTicks": 1436,
          "midi": 57,
          "name": "A3",
          "ticks": 483840,
          "time": 362.6990986250001,
          "velocity": 0.18110236220472442
        },
        {
          "duration": 0.8305547250000131,
          "durationTicks": 1196,
          "midi": 58,
          "name": "A#3",
          "ticks": 485280,
          "time": 363.69909762500004,
          "velocity": 0.18110236220472442
        },
        {
          "duration": 0.9972212250000325,
          "durationTicks": 1436,
          "midi": 60,
          "name": "C4",
          "ticks": 486720,
          "time": 364.69909662500004,
          "velocity": 0.33858267716535434
        },
        {
          "duration": 0.6638882250000506,
          "durationTicks": 956,
          "midi": 58,
          "name": "A#3",
          "ticks": 488160,
          "time": 365.69909562500004,
          "velocity": 0.2204724409448819
        },
        {
          "duration": 0.49722172500003126,
          "durationTicks": 716,
          "midi": 70,
          "name": "A#4",
          "ticks": 490320,
          "time": 367.19909412500004,
          "velocity": 0.18110236220472442
        },
        {
          "duration": 0.16388872499999252,
          "durationTicks": 236,
          "midi": 69,
          "name": "A4",
          "ticks": 491040,
          "time": 367.69909362500005,
          "velocity": 0.18110236220472442
        },
        {
          "duration": 0.49722172500003126,
          "durationTicks": 716,
          "midi": 70,
          "name": "A#4",
          "ticks": 493200,
          "time": 369.19909212500005,
          "velocity": 0.18110236220472442
        },
        {
          "duration": 0.16388872499999252,
          "durationTicks": 236,
          "midi": 69,
          "name": "A4",
          "ticks": 493920,
          "time": 369.69909162500005,
          "velocity": 0.18110236220472442
        },
        {
          "duration": 0.49722172500003126,
          "durationTicks": 716,
          "midi": 70,
          "name": "A#4",
          "ticks": 496080,
          "time": 371.19909012500005,
          "velocity": 0.18110236220472442
        },
        {
          "duration": 0.16388872499999252,
          "durationTicks": 236,
          "midi": 69,
          "name": "A4",
          "ticks": 496800,
          "time": 371.69908962500006,
          "velocity": 0.18110236220472442
        },
        {
          "duration": 0.16388872499999252,
          "durationTicks": 236,
          "midi": 62,
          "name": "D4",
          "ticks": 503280,
          "time": 376.19908512500007,
          "velocity": 0.18110236220472442
        },
        {
          "duration": 0.16388872499999252,
          "durationTicks": 236,
          "midi": 62,
          "name": "D4",
          "ticks": 504720,
          "time": 377.19908412500007,
          "velocity": 0.18110236220472442
        },
        {
          "duration": 0.16388872499999252,
          "durationTicks": 236,
          "midi": 60,
          "name": "C4",
          "ticks": 505440,
          "time": 377.69908362500007,
          "velocity": 0.18110236220472442
        },
        {
          "duration": 0.16388872499999252,
          "durationTicks": 236,
          "midi": 58,
          "name": "A#3",
          "ticks": 506040,
          "time": 378.11574987500006,
          "velocity": 0.18110236220472442
        },
        {
          "duration": 0.5805549749999841,
          "durationTicks": 836,
          "midi": 58,
          "name": "A#3",
          "ticks": 506880,
          "time": 378.6990826250001,
          "velocity": 0.18110236220472442
        },
        {
          "duration": 0.16388872499999252,
          "durationTicks": 236,
          "midi": 57,
          "name": "A3",
          "ticks": 507600,
          "time": 379.1990821250001,
          "velocity": 0.18110236220472442
        },
        {
          "duration": 0.16388872499999252,
          "durationTicks": 236,
          "midi": 58,
          "name": "A#3",
          "ticks": 508320,
          "time": 379.6990816250001,
          "velocity": 0.18110236220472442
        },
        {
          "duration": 0.16388872499999252,
          "durationTicks": 236,
          "midi": 60,
          "name": "C4",
          "ticks": 509040,
          "time": 380.1990811250001,
          "velocity": 0.18110236220472442
        },
        {
          "duration": 0.5805549749999841,
          "durationTicks": 836,
          "midi": 62,
          "name": "D4",
          "ticks": 509760,
          "time": 380.6990806250001,
          "velocity": 0.18110236220472442
        },
        {
          "duration": 0.16388872499999252,
          "durationTicks": 236,
          "midi": 58,
          "name": "A#3",
          "ticks": 511200,
          "time": 381.6990796250001,
          "velocity": 0.18110236220472442
        },
        {
          "duration": 0.16388872499999252,
          "durationTicks": 236,
          "midi": 57,
          "name": "A3",
          "ticks": 511920,
          "time": 382.1990791250001,
          "velocity": 0.18110236220472442
        },
        {
          "duration": 0.4972217249999744,
          "durationTicks": 716,
          "midi": 63,
          "name": "D#4",
          "ticks": 512640,
          "time": 382.6990786250001,
          "velocity": 0.18110236220472442
        },
        {
          "duration": 0.16388872499999252,
          "durationTicks": 236,
          "midi": 62,
          "name": "D4",
          "ticks": 513360,
          "time": 383.1990781250001,
          "velocity": 0.18110236220472442
        },
        {
          "duration": 0.08055547499998283,
          "durationTicks": 116,
          "midi": 79,
          "name": "G5",
          "ticks": 514080,
          "time": 383.6990776250001,
          "velocity": 0.4330708661417323
        },
        {
          "duration": 0.16388872499999252,
          "durationTicks": 236,
          "midi": 79,
          "name": "G5",
          "ticks": 514560,
          "time": 384.03241062500007,
          "velocity": 0.4330708661417323
        },
        {
          "duration": 0.08055547499998283,
          "durationTicks": 116,
          "midi": 78,
          "name": "F#5",
          "ticks": 514800,
          "time": 384.1990771250001,
          "velocity": 0.4330708661417323
        },
        {
          "duration": 0.16388872499999252,
          "durationTicks": 236,
          "midi": 78,
          "name": "F#5",
          "ticks": 515280,
          "time": 384.53241012500007,
          "velocity": 0.4330708661417323
        },
        {
          "duration": 0.6638882249999938,
          "durationTicks": 956,
          "midi": 79,
          "name": "G5",
          "ticks": 515520,
          "time": 384.6990766250001,
          "velocity": 0.4330708661417323
        },
        {
          "duration": 0.16388872499999252,
          "durationTicks": 236,
          "midi": 75,
          "name": "D#5",
          "ticks": 516480,
          "time": 385.36574262500005,
          "velocity": 0.25984251968503935
        },
        {
          "duration": 0.16388872499999252,
          "durationTicks": 236,
          "midi": 72,
          "name": "C5",
          "ticks": 516720,
          "time": 385.5324091250001,
          "velocity": 0.25984251968503935
        },
        {
          "duration": 0.08055547499998283,
          "durationTicks": 116,
          "midi": 70,
          "name": "A#4",
          "ticks": 516960,
          "time": 385.6990756250001,
          "velocity": 0.25984251968503935
        },
        {
          "duration": 0.08055547500003968,
          "durationTicks": 116,
          "midi": 69,
          "name": "A4",
          "ticks": 517680,
          "time": 386.19907512500004,
          "velocity": 0.25984251968503935
        },
        {
          "duration": 0.4972217249999744,
          "durationTicks": 716,
          "midi": 72,
          "name": "C5",
          "ticks": 518400,
          "time": 386.6990746250001,
          "velocity": 0.25984251968503935
        },
        {
          "duration": 0.16388872499999252,
          "durationTicks": 236,
          "midi": 70,
          "name": "A#4",
          "ticks": 519120,
          "time": 387.19907412500004,
          "velocity": 0.2125984251968504
        },
        {
          "duration": 0.08055547500003968,
          "durationTicks": 116,
          "midi": 79,
          "name": "G5",
          "ticks": 522720,
          "time": 389.69907162500004,
          "velocity": 0.4330708661417323
        },
        {
          "duration": 0.16388872499999252,
          "durationTicks": 236,
          "midi": 79,
          "name": "G5",
          "ticks": 523200,
          "time": 390.0324046250001,
          "velocity": 0.4330708661417323
        },
        {
          "duration": 0.08055547500003968,
          "durationTicks": 116,
          "midi": 78,
          "name": "F#5",
          "ticks": 523440,
          "time": 390.19907112500005,
          "velocity": 0.4330708661417323
        },
        {
          "duration": 0.16388872499999252,
          "durationTicks": 236,
          "midi": 78,
          "name": "F#5",
          "ticks": 523920,
          "time": 390.5324041250001,
          "velocity": 0.4330708661417323
        },
        {
          "duration": 0.8583324749999974,
          "durationTicks": 1236,
          "midi": 79,
          "name": "G5",
          "ticks": 524160,
          "time": 390.69907062500005,
          "velocity": 0.4330708661417323
        },
        {
          "duration": 0.052777724999998554,
          "durationTicks": 76,
          "midi": 82,
          "name": "A#5",
          "ticks": 529920,
          "time": 394.69906662500006,
          "velocity": 0.5196850393700787
        },
        {
          "duration": 0.052777724999998554,
          "durationTicks": 76,
          "midi": 82,
          "name": "A#5",
          "ticks": 530040,
          "time": 394.78239987500007,
          "velocity": 0.5196850393700787
        },
        {
          "duration": 0.052777724999998554,
          "durationTicks": 76,
          "midi": 82,
          "name": "A#5",
          "ticks": 530160,
          "time": 394.8657331250001,
          "velocity": 0.5196850393700787
        },
        {
          "duration": 0.052777724999998554,
          "durationTicks": 76,
          "midi": 82,
          "name": "A#5",
          "ticks": 530280,
          "time": 394.9490663750001,
          "velocity": 0.5196850393700787
        },
        {
          "duration": 0.0527777250000554,
          "durationTicks": 76,
          "midi": 82,
          "name": "A#5",
          "ticks": 530400,
          "time": 395.03239962500004,
          "velocity": 0.5196850393700787
        },
        {
          "duration": 0.052777724999998554,
          "durationTicks": 76,
          "midi": 82,
          "name": "A#5",
          "ticks": 530520,
          "time": 395.11573287500005,
          "velocity": 0.5196850393700787
        },
        {
          "duration": 0.052777724999998554,
          "durationTicks": 76,
          "midi": 82,
          "name": "A#5",
          "ticks": 530640,
          "time": 395.19906612500006,
          "velocity": 0.5196850393700787
        },
        {
          "duration": 0.052777724999998554,
          "durationTicks": 76,
          "midi": 82,
          "name": "A#5",
          "ticks": 530760,
          "time": 395.28239937500007,
          "velocity": 0.5196850393700787
        },
        {
          "duration": 0.052777724999998554,
          "durationTicks": 76,
          "midi": 82,
          "name": "A#5",
          "ticks": 530880,
          "time": 395.3657326250001,
          "velocity": 0.5196850393700787
        },
        {
          "duration": 0.052777724999998554,
          "durationTicks": 76,
          "midi": 82,
          "name": "A#5",
          "ticks": 531000,
          "time": 395.4490658750001,
          "velocity": 0.5196850393700787
        },
        {
          "duration": 0.052777724999998554,
          "durationTicks": 76,
          "midi": 82,
          "name": "A#5",
          "ticks": 531120,
          "time": 395.53239912500004,
          "velocity": 0.5196850393700787
        },
        {
          "duration": 0.052777724999998554,
          "durationTicks": 76,
          "midi": 82,
          "name": "A#5",
          "ticks": 531240,
          "time": 395.61573237500005,
          "velocity": 0.5196850393700787
        },
        {
          "duration": 0.052777724999998554,
          "durationTicks": 76,
          "midi": 82,
          "name": "A#5",
          "ticks": 531360,
          "time": 395.69906562500006,
          "velocity": 0.5196850393700787
        },
        {
          "duration": 0.052777724999998554,
          "durationTicks": 76,
          "midi": 82,
          "name": "A#5",
          "ticks": 531480,
          "time": 395.78239887500007,
          "velocity": 0.5196850393700787
        },
        {
          "duration": 0.052777724999998554,
          "durationTicks": 76,
          "midi": 82,
          "name": "A#5",
          "ticks": 531600,
          "time": 395.8657321250001,
          "velocity": 0.5196850393700787
        },
        {
          "duration": 0.0527777250000554,
          "durationTicks": 76,
          "midi": 82,
          "name": "A#5",
          "ticks": 531720,
          "time": 395.94906537500003,
          "velocity": 0.5196850393700787
        },
        {
          "duration": 0.052777724999998554,
          "durationTicks": 76,
          "midi": 82,
          "name": "A#5",
          "ticks": 531840,
          "time": 396.03239862500004,
          "velocity": 0.5196850393700787
        },
        {
          "duration": 0.052777724999998554,
          "durationTicks": 76,
          "midi": 82,
          "name": "A#5",
          "ticks": 531960,
          "time": 396.11573187500005,
          "velocity": 0.5196850393700787
        },
        {
          "duration": 0.052777724999998554,
          "durationTicks": 76,
          "midi": 82,
          "name": "A#5",
          "ticks": 532080,
          "time": 396.19906512500006,
          "velocity": 0.5196850393700787
        },
        {
          "duration": 0.052777724999998554,
          "durationTicks": 76,
          "midi": 82,
          "name": "A#5",
          "ticks": 532200,
          "time": 396.28239837500007,
          "velocity": 0.5196850393700787
        },
        {
          "duration": 0.052777724999998554,
          "durationTicks": 76,
          "midi": 82,
          "name": "A#5",
          "ticks": 532320,
          "time": 396.3657316250001,
          "velocity": 0.5196850393700787
        },
        {
          "duration": 0.05277772499994171,
          "durationTicks": 76,
          "midi": 82,
          "name": "A#5",
          "ticks": 532440,
          "time": 396.4490648750001,
          "velocity": 0.5196850393700787
        },
        {
          "duration": 0.052777724999998554,
          "durationTicks": 76,
          "midi": 82,
          "name": "A#5",
          "ticks": 532560,
          "time": 396.53239812500004,
          "velocity": 0.5196850393700787
        },
        {
          "duration": 0.052777724999998554,
          "durationTicks": 76,
          "midi": 82,
          "name": "A#5",
          "ticks": 532680,
          "time": 396.61573137500005,
          "velocity": 0.5196850393700787
        },
        {
          "duration": 0.052777724999998554,
          "durationTicks": 76,
          "midi": 82,
          "name": "A#5",
          "ticks": 532800,
          "time": 396.69906462500006,
          "velocity": 0.5196850393700787
        },
        {
          "duration": 0.052777724999998554,
          "durationTicks": 76,
          "midi": 82,
          "name": "A#5",
          "ticks": 532920,
          "time": 396.7823978750001,
          "velocity": 0.5196850393700787
        },
        {
          "duration": 0.052777724999998554,
          "durationTicks": 76,
          "midi": 82,
          "name": "A#5",
          "ticks": 533040,
          "time": 396.8657311250001,
          "velocity": 0.5196850393700787
        },
        {
          "duration": 0.0527777250000554,
          "durationTicks": 76,
          "midi": 82,
          "name": "A#5",
          "ticks": 533160,
          "time": 396.94906437500003,
          "velocity": 0.5196850393700787
        },
        {
          "duration": 0.052777724999998554,
          "durationTicks": 76,
          "midi": 82,
          "name": "A#5",
          "ticks": 533280,
          "time": 397.03239762500004,
          "velocity": 0.5196850393700787
        },
        {
          "duration": 0.052777724999998554,
          "durationTicks": 76,
          "midi": 82,
          "name": "A#5",
          "ticks": 533400,
          "time": 397.11573087500005,
          "velocity": 0.5196850393700787
        },
        {
          "duration": 0.052777724999998554,
          "durationTicks": 76,
          "midi": 82,
          "name": "A#5",
          "ticks": 533520,
          "time": 397.19906412500006,
          "velocity": 0.5196850393700787
        },
        {
          "duration": 0.052777724999998554,
          "durationTicks": 76,
          "midi": 82,
          "name": "A#5",
          "ticks": 533640,
          "time": 397.2823973750001,
          "velocity": 0.5196850393700787
        },
        {
          "duration": 0.052777724999998554,
          "durationTicks": 76,
          "midi": 82,
          "name": "A#5",
          "ticks": 533760,
          "time": 397.3657306250001,
          "velocity": 0.5196850393700787
        },
        {
          "duration": 0.05277772499994171,
          "durationTicks": 76,
          "midi": 82,
          "name": "A#5",
          "ticks": 533880,
          "time": 397.4490638750001,
          "velocity": 0.5196850393700787
        },
        {
          "duration": 0.052777724999998554,
          "durationTicks": 76,
          "midi": 82,
          "name": "A#5",
          "ticks": 534000,
          "time": 397.53239712500005,
          "velocity": 0.5196850393700787
        },
        {
          "duration": 0.052777724999998554,
          "durationTicks": 76,
          "midi": 82,
          "name": "A#5",
          "ticks": 534120,
          "time": 397.61573037500006,
          "velocity": 0.5196850393700787
        },
        {
          "duration": 0.052777724999998554,
          "durationTicks": 76,
          "midi": 82,
          "name": "A#5",
          "ticks": 534240,
          "time": 397.69906362500006,
          "velocity": 0.5196850393700787
        },
        {
          "duration": 0.052777724999998554,
          "durationTicks": 76,
          "midi": 82,
          "name": "A#5",
          "ticks": 534360,
          "time": 397.7823968750001,
          "velocity": 0.5196850393700787
        },
        {
          "duration": 0.052777724999998554,
          "durationTicks": 76,
          "midi": 82,
          "name": "A#5",
          "ticks": 534480,
          "time": 397.8657301250001,
          "velocity": 0.5196850393700787
        },
        {
          "duration": 0.0527777250000554,
          "durationTicks": 76,
          "midi": 82,
          "name": "A#5",
          "ticks": 534600,
          "time": 397.94906337500004,
          "velocity": 0.5196850393700787
        },
        {
          "duration": 0.052777724999998554,
          "durationTicks": 76,
          "midi": 82,
          "name": "A#5",
          "ticks": 534720,
          "time": 398.03239662500005,
          "velocity": 0.5196850393700787
        },
        {
          "duration": 0.052777724999998554,
          "durationTicks": 76,
          "midi": 82,
          "name": "A#5",
          "ticks": 534840,
          "time": 398.11572987500006,
          "velocity": 0.5196850393700787
        },
        {
          "duration": 0.052777724999998554,
          "durationTicks": 76,
          "midi": 81,
          "name": "A5",
          "ticks": 534960,
          "time": 398.19906312500007,
          "velocity": 0.5196850393700787
        },
        {
          "duration": 0.052777724999998554,
          "durationTicks": 76,
          "midi": 81,
          "name": "A5",
          "ticks": 535080,
          "time": 398.2823963750001,
          "velocity": 0.5196850393700787
        },
        {
          "duration": 0.052777724999998554,
          "durationTicks": 76,
          "midi": 81,
          "name": "A5",
          "ticks": 535200,
          "time": 398.3657296250001,
          "velocity": 0.5196850393700787
        },
        {
          "duration": 0.05277772499994171,
          "durationTicks": 76,
          "midi": 81,
          "name": "A5",
          "ticks": 535320,
          "time": 398.4490628750001,
          "velocity": 0.5196850393700787
        },
        {
          "duration": 0.052777724999998554,
          "durationTicks": 76,
          "midi": 81,
          "name": "A5",
          "ticks": 535440,
          "time": 398.53239612500005,
          "velocity": 0.5196850393700787
        },
        {
          "duration": 0.052777724999998554,
          "durationTicks": 76,
          "midi": 81,
          "name": "A5",
          "ticks": 535560,
          "time": 398.61572937500006,
          "velocity": 0.5196850393700787
        },
        {
          "duration": 0.052777724999998554,
          "durationTicks": 76,
          "midi": 82,
          "name": "A#5",
          "ticks": 535680,
          "time": 398.69906262500007,
          "velocity": 0.5196850393700787
        },
        {
          "duration": 0.052777724999998554,
          "durationTicks": 76,
          "midi": 82,
          "name": "A#5",
          "ticks": 535800,
          "time": 398.7823958750001,
          "velocity": 0.5196850393700787
        },
        {
          "duration": 0.052777724999998554,
          "durationTicks": 76,
          "midi": 82,
          "name": "A#5",
          "ticks": 535920,
          "time": 398.8657291250001,
          "velocity": 0.5196850393700787
        },
        {
          "duration": 0.052777724999998554,
          "durationTicks": 76,
          "midi": 82,
          "name": "A#5",
          "ticks": 536040,
          "time": 398.94906237500004,
          "velocity": 0.5196850393700787
        },
        {
          "duration": 0.052777724999998554,
          "durationTicks": 76,
          "midi": 82,
          "name": "A#5",
          "ticks": 536160,
          "time": 399.03239562500005,
          "velocity": 0.5196850393700787
        },
        {
          "duration": 0.052777724999998554,
          "durationTicks": 76,
          "midi": 82,
          "name": "A#5",
          "ticks": 536280,
          "time": 399.11572887500006,
          "velocity": 0.5196850393700787
        },
        {
          "duration": 0.052777724999998554,
          "durationTicks": 76,
          "midi": 82,
          "name": "A#5",
          "ticks": 536400,
          "time": 399.19906212500007,
          "velocity": 0.5196850393700787
        },
        {
          "duration": 0.052777724999998554,
          "durationTicks": 76,
          "midi": 82,
          "name": "A#5",
          "ticks": 536520,
          "time": 399.2823953750001,
          "velocity": 0.5196850393700787
        },
        {
          "duration": 0.052777724999998554,
          "durationTicks": 76,
          "midi": 82,
          "name": "A#5",
          "ticks": 536640,
          "time": 399.3657286250001,
          "velocity": 0.5196850393700787
        },
        {
          "duration": 0.052777724999998554,
          "durationTicks": 76,
          "midi": 82,
          "name": "A#5",
          "ticks": 536760,
          "time": 399.44906187500004,
          "velocity": 0.5196850393700787
        },
        {
          "duration": 0.052777724999998554,
          "durationTicks": 76,
          "midi": 82,
          "name": "A#5",
          "ticks": 536880,
          "time": 399.53239512500005,
          "velocity": 0.5196850393700787
        },
        {
          "duration": 0.052777724999998554,
          "durationTicks": 76,
          "midi": 82,
          "name": "A#5",
          "ticks": 537000,
          "time": 399.61572837500006,
          "velocity": 0.5196850393700787
        },
        {
          "duration": 0.052777724999998554,
          "durationTicks": 76,
          "midi": 82,
          "name": "A#5",
          "ticks": 537120,
          "time": 399.69906162500007,
          "velocity": 0.5196850393700787
        },
        {
          "duration": 0.052777724999998554,
          "durationTicks": 76,
          "midi": 82,
          "name": "A#5",
          "ticks": 537240,
          "time": 399.7823948750001,
          "velocity": 0.5196850393700787
        },
        {
          "duration": 0.0527777250000554,
          "durationTicks": 76,
          "midi": 82,
          "name": "A#5",
          "ticks": 537360,
          "time": 399.86572812500003,
          "velocity": 0.5196850393700787
        },
        {
          "duration": 0.052777724999998554,
          "durationTicks": 76,
          "midi": 82,
          "name": "A#5",
          "ticks": 537480,
          "time": 399.94906137500004,
          "velocity": 0.5196850393700787
        },
        {
          "duration": 0.052777724999998554,
          "durationTicks": 76,
          "midi": 82,
          "name": "A#5",
          "ticks": 537600,
          "time": 400.03239462500005,
          "velocity": 0.5196850393700787
        },
        {
          "duration": 0.052777724999998554,
          "durationTicks": 76,
          "midi": 82,
          "name": "A#5",
          "ticks": 537720,
          "time": 400.11572787500006,
          "velocity": 0.5196850393700787
        },
        {
          "duration": 0.052777724999998554,
          "durationTicks": 76,
          "midi": 82,
          "name": "A#5",
          "ticks": 537840,
          "time": 400.19906112500007,
          "velocity": 0.5196850393700787
        },
        {
          "duration": 0.052777724999998554,
          "durationTicks": 76,
          "midi": 82,
          "name": "A#5",
          "ticks": 537960,
          "time": 400.2823943750001,
          "velocity": 0.5196850393700787
        },
        {
          "duration": 0.05277772499994171,
          "durationTicks": 76,
          "midi": 82,
          "name": "A#5",
          "ticks": 538080,
          "time": 400.3657276250001,
          "velocity": 0.5196850393700787
        },
        {
          "duration": 0.052777724999998554,
          "durationTicks": 76,
          "midi": 82,
          "name": "A#5",
          "ticks": 538200,
          "time": 400.44906087500004,
          "velocity": 0.5196850393700787
        },
        {
          "duration": 0.052777724999998554,
          "durationTicks": 76,
          "midi": 82,
          "name": "A#5",
          "ticks": 538320,
          "time": 400.53239412500005,
          "velocity": 0.5196850393700787
        },
        {
          "duration": 0.052777724999998554,
          "durationTicks": 76,
          "midi": 82,
          "name": "A#5",
          "ticks": 538440,
          "time": 400.61572737500006,
          "velocity": 0.5196850393700787
        },
        {
          "duration": 0.052777724999998554,
          "durationTicks": 76,
          "midi": 82,
          "name": "A#5",
          "ticks": 538560,
          "time": 400.6990606250001,
          "velocity": 0.5196850393700787
        },
        {
          "duration": 0.052777724999998554,
          "durationTicks": 76,
          "midi": 82,
          "name": "A#5",
          "ticks": 538680,
          "time": 400.7823938750001,
          "velocity": 0.5196850393700787
        },
        {
          "duration": 0.0527777250000554,
          "durationTicks": 76,
          "midi": 82,
          "name": "A#5",
          "ticks": 538800,
          "time": 400.86572712500003,
          "velocity": 0.5196850393700787
        },
        {
          "duration": 0.052777724999998554,
          "durationTicks": 76,
          "midi": 82,
          "name": "A#5",
          "ticks": 538920,
          "time": 400.94906037500004,
          "velocity": 0.5196850393700787
        },
        {
          "duration": 0.052777724999998554,
          "durationTicks": 76,
          "midi": 82,
          "name": "A#5",
          "ticks": 539040,
          "time": 401.03239362500005,
          "velocity": 0.5196850393700787
        },
        {
          "duration": 0.052777724999998554,
          "durationTicks": 76,
          "midi": 82,
          "name": "A#5",
          "ticks": 539160,
          "time": 401.11572687500006,
          "velocity": 0.5196850393700787
        },
        {
          "duration": 0.052777724999998554,
          "durationTicks": 76,
          "midi": 82,
          "name": "A#5",
          "ticks": 539280,
          "time": 401.1990601250001,
          "velocity": 0.5196850393700787
        },
        {
          "duration": 0.052777724999998554,
          "durationTicks": 76,
          "midi": 82,
          "name": "A#5",
          "ticks": 539400,
          "time": 401.2823933750001,
          "velocity": 0.5196850393700787
        },
        {
          "duration": 0.05277772499994171,
          "durationTicks": 76,
          "midi": 82,
          "name": "A#5",
          "ticks": 539520,
          "time": 401.3657266250001,
          "velocity": 0.5196850393700787
        },
        {
          "duration": 0.052777724999998554,
          "durationTicks": 76,
          "midi": 82,
          "name": "A#5",
          "ticks": 539640,
          "time": 401.44905987500005,
          "velocity": 0.5196850393700787
        },
        {
          "duration": 0.052777724999998554,
          "durationTicks": 76,
          "midi": 82,
          "name": "A#5",
          "ticks": 539760,
          "time": 401.53239312500006,
          "velocity": 0.5196850393700787
        },
        {
          "duration": 0.052777724999998554,
          "durationTicks": 76,
          "midi": 82,
          "name": "A#5",
          "ticks": 539880,
          "time": 401.61572637500007,
          "velocity": 0.5196850393700787
        },
        {
          "duration": 0.052777724999998554,
          "durationTicks": 76,
          "midi": 82,
          "name": "A#5",
          "ticks": 540000,
          "time": 401.6990596250001,
          "velocity": 0.5196850393700787
        },
        {
          "duration": 0.052777724999998554,
          "durationTicks": 76,
          "midi": 82,
          "name": "A#5",
          "ticks": 540120,
          "time": 401.7823928750001,
          "velocity": 0.5196850393700787
        },
        {
          "duration": 0.0527777250000554,
          "durationTicks": 76,
          "midi": 82,
          "name": "A#5",
          "ticks": 540240,
          "time": 401.86572612500004,
          "velocity": 0.5196850393700787
        },
        {
          "duration": 0.052777724999998554,
          "durationTicks": 76,
          "midi": 82,
          "name": "A#5",
          "ticks": 540360,
          "time": 401.94905937500005,
          "velocity": 0.5196850393700787
        },
        {
          "duration": 0.052777724999998554,
          "durationTicks": 76,
          "midi": 82,
          "name": "A#5",
          "ticks": 540480,
          "time": 402.03239262500006,
          "velocity": 0.5196850393700787
        },
        {
          "duration": 0.052777724999998554,
          "durationTicks": 76,
          "midi": 82,
          "name": "A#5",
          "ticks": 540600,
          "time": 402.11572587500007,
          "velocity": 0.5196850393700787
        },
        {
          "duration": 0.052777724999998554,
          "durationTicks": 76,
          "midi": 81,
          "name": "A5",
          "ticks": 540720,
          "time": 402.1990591250001,
          "velocity": 0.5196850393700787
        },
        {
          "duration": 0.052777724999998554,
          "durationTicks": 76,
          "midi": 81,
          "name": "A5",
          "ticks": 540840,
          "time": 402.2823923750001,
          "velocity": 0.5196850393700787
        },
        {
          "duration": 0.052777724999998554,
          "durationTicks": 76,
          "midi": 81,
          "name": "A5",
          "ticks": 540960,
          "time": 402.36572562500004,
          "velocity": 0.5196850393700787
        },
        {
          "duration": 0.052777724999998554,
          "durationTicks": 76,
          "midi": 81,
          "name": "A5",
          "ticks": 541080,
          "time": 402.44905887500005,
          "velocity": 0.5196850393700787
        },
        {
          "duration": 0.052777724999998554,
          "durationTicks": 76,
          "midi": 81,
          "name": "A5",
          "ticks": 541200,
          "time": 402.53239212500006,
          "velocity": 0.5196850393700787
        },
        {
          "duration": 0.052777724999998554,
          "durationTicks": 76,
          "midi": 81,
          "name": "A5",
          "ticks": 541320,
          "time": 402.61572537500007,
          "velocity": 0.5196850393700787
        },
        {
          "duration": 0.9972212250000325,
          "durationTicks": 1436,
          "midi": 58,
          "name": "A#3",
          "ticks": 557280,
          "time": 413.69904762500005,
          "velocity": 0.25196850393700787
        },
        {
          "duration": 0.08055547499998283,
          "durationTicks": 116,
          "midi": 58,
          "name": "A#3",
          "ticks": 558960,
          "time": 414.86571312500007,
          "velocity": 0.23622047244094488
        },
        {
          "duration": 0.08055547499998283,
          "durationTicks": 116,
          "midi": 58,
          "name": "A#3",
          "ticks": 559200,
          "time": 415.0323796250001,
          "velocity": 0.23622047244094488
        },
        {
          "duration": 0.08055547500003968,
          "durationTicks": 116,
          "midi": 58,
          "name": "A#3",
          "ticks": 559440,
          "time": 415.19904612500005,
          "velocity": 0.23622047244094488
        },
        {
          "duration": 0.08055547499998283,
          "durationTicks": 116,
          "midi": 58,
          "name": "A#3",
          "ticks": 559680,
          "time": 415.36571262500007,
          "velocity": 0.25196850393700787
        },
        {
          "duration": 0.08055547500003968,
          "durationTicks": 116,
          "midi": 58,
          "name": "A#3",
          "ticks": 559920,
          "time": 415.53237912500003,
          "velocity": 0.25196850393700787
        },
        {
          "duration": 0.9972212250000325,
          "durationTicks": 1436,
          "midi": 58,
          "name": "A#3",
          "ticks": 560160,
          "time": 415.69904562500005,
          "velocity": 0.25984251968503935
        },
        {
          "duration": 0.08055547499998283,
          "durationTicks": 116,
          "midi": 58,
          "name": "A#3",
          "ticks": 561840,
          "time": 416.8657111250001,
          "velocity": 0.2755905511811024
        },
        {
          "duration": 0.08055547499998283,
          "durationTicks": 116,
          "midi": 58,
          "name": "A#3",
          "ticks": 562080,
          "time": 417.0323776250001,
          "velocity": 0.2755905511811024
        },
        {
          "duration": 0.08055547500003968,
          "durationTicks": 116,
          "midi": 58,
          "name": "A#3",
          "ticks": 562320,
          "time": 417.19904412500006,
          "velocity": 0.2755905511811024
        },
        {
          "duration": 0.08055547499998283,
          "durationTicks": 116,
          "midi": 58,
          "name": "A#3",
          "ticks": 562560,
          "time": 417.3657106250001,
          "velocity": 0.28346456692913385
        },
        {
          "duration": 0.08055547500003968,
          "durationTicks": 116,
          "midi": 58,
          "name": "A#3",
          "ticks": 562800,
          "time": 417.53237712500004,
          "velocity": 0.28346456692913385
        },
        {
          "duration": 0.16388872499999252,
          "durationTicks": 236,
          "midi": 58,
          "name": "A#3",
          "ticks": 563040,
          "time": 417.69904362500006,
          "velocity": 0.29133858267716534
        },
        {
          "duration": 0.08055547499998283,
          "durationTicks": 116,
          "midi": 58,
          "name": "A#3",
          "ticks": 574800,
          "time": 425.8657021250001,
          "velocity": 0.1889763779527559
        },
        {
          "duration": 0.08055547500003968,
          "durationTicks": 116,
          "midi": 58,
          "name": "A#3",
          "ticks": 575040,
          "time": 426.03236862500006,
          "velocity": 0.1889763779527559
        },
        {
          "duration": 0.08055547499998283,
          "durationTicks": 116,
          "midi": 58,
          "name": "A#3",
          "ticks": 575280,
          "time": 426.1990351250001,
          "velocity": 0.1968503937007874
        },
        {
          "duration": 0.08055547500003968,
          "durationTicks": 116,
          "midi": 58,
          "name": "A#3",
          "ticks": 575520,
          "time": 426.36570162500004,
          "velocity": 0.1968503937007874
        },
        {
          "duration": 0.08055547499998283,
          "durationTicks": 116,
          "midi": 58,
          "name": "A#3",
          "ticks": 575760,
          "time": 426.53236812500006,
          "velocity": 0.2047244094488189
        },
        {
          "duration": 0.08055547500003968,
          "durationTicks": 116,
          "midi": 57,
          "name": "A3",
          "ticks": 576240,
          "time": 426.86570112500004,
          "velocity": 0.2047244094488189
        },
        {
          "duration": 0.08055547499998283,
          "durationTicks": 116,
          "midi": 57,
          "name": "A3",
          "ticks": 576480,
          "time": 427.03236762500006,
          "velocity": 0.2125984251968504
        },
        {
          "duration": 0.08055547499998283,
          "durationTicks": 116,
          "midi": 57,
          "name": "A3",
          "ticks": 576720,
          "time": 427.1990341250001,
          "velocity": 0.2125984251968504
        },
        {
          "duration": 0.08055547500003968,
          "durationTicks": 116,
          "midi": 57,
          "name": "A3",
          "ticks": 576960,
          "time": 427.36570062500004,
          "velocity": 0.2204724409448819
        },
        {
          "duration": 0.08055547499998283,
          "durationTicks": 116,
          "midi": 57,
          "name": "A3",
          "ticks": 577200,
          "time": 427.53236712500006,
          "velocity": 0.2204724409448819
        },
        {
          "duration": 0.08055547500003968,
          "durationTicks": 116,
          "midi": 70,
          "name": "A#4",
          "ticks": 577680,
          "time": 427.86570012500005,
          "velocity": 0.18110236220472442
        },
        {
          "duration": 0.08055547499998283,
          "durationTicks": 116,
          "midi": 70,
          "name": "A#4",
          "ticks": 577920,
          "time": 428.03236662500007,
          "velocity": 0.18110236220472442
        },
        {
          "duration": 0.08055547500003968,
          "durationTicks": 116,
          "midi": 70,
          "name": "A#4",
          "ticks": 578160,
          "time": 428.199033125,
          "velocity": 0.1889763779527559
        },
        {
          "duration": 0.08055547499998283,
          "durationTicks": 116,
          "midi": 70,
          "name": "A#4",
          "ticks": 578400,
          "time": 428.36569962500005,
          "velocity": 0.1889763779527559
        },
        {
          "duration": 0.08055547499998283,
          "durationTicks": 116,
          "midi": 70,
          "name": "A#4",
          "ticks": 578640,
          "time": 428.53236612500007,
          "velocity": 0.1889763779527559
        },
        {
          "duration": 0.08055547500003968,
          "durationTicks": 116,
          "midi": 69,
          "name": "A4",
          "ticks": 579120,
          "time": 428.86569912500005,
          "velocity": 0.1889763779527559
        },
        {
          "duration": 0.08055547499998283,
          "durationTicks": 116,
          "midi": 69,
          "name": "A4",
          "ticks": 579360,
          "time": 429.03236562500007,
          "velocity": 0.1968503937007874
        },
        {
          "duration": 0.08055547500003968,
          "durationTicks": 116,
          "midi": 69,
          "name": "A4",
          "ticks": 579600,
          "time": 429.19903212500003,
          "velocity": 0.1968503937007874
        },
        {
          "duration": 0.08055547499998283,
          "durationTicks": 116,
          "midi": 69,
          "name": "A4",
          "ticks": 579840,
          "time": 429.36569862500005,
          "velocity": 0.2047244094488189
        },
        {
          "duration": 0.08055547499998283,
          "durationTicks": 116,
          "midi": 69,
          "name": "A4",
          "ticks": 580080,
          "time": 429.53236512500007,
          "velocity": 0.2047244094488189
        },
        {
          "duration": 0.16388872499999252,
          "durationTicks": 236,
          "midi": 62,
          "name": "D4",
          "ticks": 586800,
          "time": 434.19902712500004,
          "velocity": 0.3464566929133858
        }
      ]
    },
    {
      "channel": 0,
      "controlChanges": {
        "0": [
          {
            "number": 0,
            "ticks": 0,
            "time": 0,
            "value": 0.007874015748031496
          }
        ],
        "32": [
          {
            "number": 32,
            "ticks": 0,
            "time": 0,
            "value": 0
          }
        ]
      },
      "pitchBends": [],
      "instrument": {
        "family": "piano",
        "number": 0,
        "name": "acoustic grand piano"
      },
      "name": "Viola",
      "notes": [],
      "endOfTrackTicks": 587520
    },
    {
      "channel": 8,
      "controlChanges": {
        "7": [
          {
            "number": 7,
            "ticks": 0,
            "time": 0,
            "value": 1
          },
          {
            "number": 7,
            "ticks": 480720,
            "time": 360.53243412500007,
            "value": 0.7401574803149606
          },
          {
            "number": 7,
            "ticks": 513840,
            "time": 383.53241112500007,
            "value": 1
          }
        ],
        "10": [
          {
            "number": 10,
            "ticks": 0,
            "time": 0,
            "value": 0.4251968503937008
          }
        ],
        "11": [
          {
            "number": 11,
            "ticks": 84,
            "time": 0.058807,
            "value": 1
          },
          {
            "number": 11,
            "ticks": 335520,
            "time": 248.811305125,
            "value": 1
          },
          {
            "number": 11,
            "ticks": 487436,
            "time": 365.19631835000007,
            "value": 0.5196850393700787
          },
          {
            "number": 11,
            "ticks": 487444,
            "time": 365.20187390000007,
            "value": 0.5275590551181102
          },
          {
            "number": 11,
            "ticks": 487464,
            "time": 365.2157627750001,
            "value": 0.5354330708661418
          },
          {
            "number": 11,
            "ticks": 487484,
            "time": 365.22965165000005,
            "value": 0.5433070866141733
          },
          {
            "number": 11,
            "ticks": 487504,
            "time": 365.24354052500007,
            "value": 0.5511811023622047
          },
          {
            "number": 11,
            "ticks": 487524,
            "time": 365.2574294000001,
            "value": 0.5590551181102362
          },
          {
            "number": 11,
            "ticks": 487544,
            "time": 365.27131827500006,
            "value": 0.5669291338582677
          },
          {
            "number": 11,
            "ticks": 487564,
            "time": 365.2852071500001,
            "value": 0.5748031496062992
          },
          {
            "number": 11,
            "ticks": 487584,
            "time": 365.29909602500004,
            "value": 0.5826771653543307
          },
          {
            "number": 11,
            "ticks": 487604,
            "time": 365.31298490000006,
            "value": 0.5905511811023622
          },
          {
            "number": 11,
            "ticks": 487624,
            "time": 365.3268737750001,
            "value": 0.5984251968503937
          },
          {
            "number": 11,
            "ticks": 487644,
            "time": 365.34076265000004,
            "value": 0.6062992125984252
          },
          {
            "number": 11,
            "ticks": 487664,
            "time": 365.35465152500007,
            "value": 0.6141732283464567
          },
          {
            "number": 11,
            "ticks": 487684,
            "time": 365.3685404000001,
            "value": 0.6299212598425197
          },
          {
            "number": 11,
            "ticks": 487704,
            "time": 365.38242927500005,
            "value": 0.6456692913385826
          },
          {
            "number": 11,
            "ticks": 487724,
            "time": 365.39631815000007,
            "value": 0.6614173228346457
          },
          {
            "number": 11,
            "ticks": 487744,
            "time": 365.4102070250001,
            "value": 0.6771653543307087
          },
          {
            "number": 11,
            "ticks": 487764,
            "time": 365.42409590000005,
            "value": 0.6929133858267716
          },
          {
            "number": 11,
            "ticks": 487784,
            "time": 365.4379847750001,
            "value": 0.7086614173228346
          },
          {
            "number": 11,
            "ticks": 487804,
            "time": 365.45187365000004,
            "value": 0.7244094488188977
          },
          {
            "number": 11,
            "ticks": 487824,
            "time": 365.46576252500006,
            "value": 0.7401574803149606
          },
          {
            "number": 11,
            "ticks": 487844,
            "time": 365.4796514000001,
            "value": 0.7559055118110236
          },
          {
            "number": 11,
            "ticks": 487864,
            "time": 365.49354027500004,
            "value": 0.7716535433070866
          },
          {
            "number": 11,
            "ticks": 487884,
            "time": 365.50742915000006,
            "value": 0.7874015748031497
          },
          {
            "number": 11,
            "ticks": 487904,
            "time": 365.5213180250001,
            "value": 0.8110236220472441
          },
          {
            "number": 11,
            "ticks": 487924,
            "time": 365.53520690000005,
            "value": 0.8346456692913385
          },
          {
            "number": 11,
            "ticks": 487944,
            "time": 365.54909577500007,
            "value": 0.8582677165354331
          },
          {
            "number": 11,
            "ticks": 487964,
            "time": 365.5629846500001,
            "value": 0.8818897637795275
          },
          {
            "number": 11,
            "ticks": 487984,
            "time": 365.57687352500005,
            "value": 0.905511811023622
          },
          {
            "number": 11,
            "ticks": 488004,
            "time": 365.5907624000001,
            "value": 0.9291338582677166
          },
          {
            "number": 11,
            "ticks": 488024,
            "time": 365.60465127500004,
            "value": 0.952755905511811
          },
          {
            "number": 11,
            "ticks": 488044,
            "time": 365.61854015000006,
            "value": 0.9763779527559056
          },
          {
            "number": 11,
            "ticks": 488064,
            "time": 365.6324290250001,
            "value": 1
          },
          {
            "number": 11,
            "ticks": 488156,
            "time": 365.69631785000007,
            "value": 1
          }
        ],
        "73": [
          {
            "number": 73,
            "ticks": 73380,
            "time": 51.372115,
            "value": 0.44881889763779526
          },
          {
            "number": 73,
            "ticks": 99240,
            "time": 69.47627,
            "value": 0.5039370078740157
          },
          {
            "number": 73,
            "ticks": 502320,
            "time": 375.53241912500005,
            "value": 0.3464566929133858
          }
        ],
        "91": [
          {
            "number": 91,
            "ticks": 88,
            "time": 0.06160733333333333,
            "value": 0.6220472440944882
          }
        ],
        "93": [
          {
            "number": 93,
            "ticks": 88,
            "time": 0.06160733333333333,
            "value": 0.07874015748031496
          }
        ],
        "121": [
          {
            "number": 121,
            "ticks": 80,
            "time": 0.05600666666666666,
            "value": 0
          }
        ]
      },
      "pitchBends": [
        {
          "ticks": 104,
          "time": 0.07280866666666667,
          "value": 0
        }
      ],
      "instrument": {
        "family": "ensemble",
        "number": 48,
        "name": "string ensemble 1"
      },
      "name": "",
      "notes": [
        {
          "duration": 0.22122633333333397,
          "durationTicks": 316,
          "midi": 58,
          "name": "A#3",
          "ticks": 12960,
          "time": 9.073080000000001,
          "velocity": 0.4330708661417323
        },
        {
          "duration": 0.22122633333333397,
          "durationTicks": 316,
          "midi": 70,
          "name": "A#4",
          "ticks": 14400,
          "time": 10.0812,
          "velocity": 0.4330708661417323
        },
        {
          "duration": 0.2212263333333322,
          "durationTicks": 316,
          "midi": 53,
          "name": "F3",
          "ticks": 15840,
          "time": 11.08932,
          "velocity": 0.4330708661417323
        },
        {
          "duration": 0.22122633333333397,
          "durationTicks": 316,
          "midi": 65,
          "name": "F4",
          "ticks": 16560,
          "time": 11.59338,
          "velocity": 0.4330708661417323
        },
        {
          "duration": 0.501259666666666,
          "durationTicks": 716,
          "midi": 53,
          "name": "F3",
          "ticks": 17280,
          "time": 12.09744,
          "velocity": 0.4330708661417323
        },
        {
          "duration": 0.2212263333333322,
          "durationTicks": 316,
          "midi": 58,
          "name": "A#3",
          "ticks": 18720,
          "time": 13.10556,
          "velocity": 0.4330708661417323
        },
        {
          "duration": 0.22122633333333397,
          "durationTicks": 316,
          "midi": 58,
          "name": "A#3",
          "ticks": 19440,
          "time": 13.60962,
          "velocity": 0.4330708661417323
        },
        {
          "duration": 0.2212263333333322,
          "durationTicks": 316,
          "midi": 58,
          "name": "A#3",
          "ticks": 20160,
          "time": 14.11368,
          "velocity": 0.4330708661417323
        },
        {
          "duration": 0.2212263333333322,
          "durationTicks": 316,
          "midi": 65,
          "name": "F4",
          "ticks": 21600,
          "time": 15.1218,
          "velocity": 0.4330708661417323
        },
        {
          "duration": 0.22122633333333397,
          "durationTicks": 316,
          "midi": 53,
          "name": "F3",
          "ticks": 22320,
          "time": 15.62586,
          "velocity": 0.4330708661417323
        },
        {
          "duration": 0.6412763333333338,
          "durationTicks": 916,
          "midi": 53,
          "name": "F3",
          "ticks": 23040,
          "time": 16.12992,
          "velocity": 0.4330708661417323
        },
        {
          "duration": 0.08120966666665907,
          "durationTicks": 116,
          "midi": 63,
          "name": "D#4",
          "ticks": 57600,
          "time": 40.3248,
          "velocity": 0.4330708661417323
        },
        {
          "duration": 0.08120966666666618,
          "durationTicks": 116,
          "midi": 63,
          "name": "D#4",
          "ticks": 57840,
          "time": 40.49282,
          "velocity": 0.4330708661417323
        },
        {
          "duration": 0.08120966666666618,
          "durationTicks": 116,
          "midi": 63,
          "name": "D#4",
          "ticks": 58080,
          "time": 40.66084,
          "velocity": 0.4330708661417323
        },
        {
          "duration": 0.08120966666666618,
          "durationTicks": 116,
          "midi": 62,
          "name": "D4",
          "ticks": 58320,
          "time": 40.82886,
          "velocity": 0.4330708661417323
        },
        {
          "duration": 0.08120966666666618,
          "durationTicks": 116,
          "midi": 62,
          "name": "D4",
          "ticks": 58560,
          "time": 40.99688,
          "velocity": 0.4330708661417323
        },
        {
          "duration": 0.08120966666665907,
          "durationTicks": 116,
          "midi": 62,
          "name": "D4",
          "ticks": 58800,
          "time": 41.1649,
          "velocity": 0.4330708661417323
        },
        {
          "duration": 0.08120966666666618,
          "durationTicks": 116,
          "midi": 63,
          "name": "D#4",
          "ticks": 59040,
          "time": 41.33292,
          "velocity": 0.4330708661417323
        },
        {
          "duration": 0.08120966666666618,
          "durationTicks": 116,
          "midi": 63,
          "name": "D#4",
          "ticks": 59280,
          "time": 41.50094,
          "velocity": 0.4330708661417323
        },
        {
          "duration": 0.08120966666666618,
          "durationTicks": 116,
          "midi": 63,
          "name": "D#4",
          "ticks": 59520,
          "time": 41.66896,
          "velocity": 0.4330708661417323
        },
        {
          "duration": 0.16521966666665833,
          "durationTicks": 236,
          "midi": 63,
          "name": "D#4",
          "ticks": 59760,
          "time": 41.836980000000004,
          "velocity": 0.4330708661417323
        },
        {
          "duration": 0.08120966666666618,
          "durationTicks": 116,
          "midi": 65,
          "name": "F4",
          "ticks": 60480,
          "time": 42.34104,
          "velocity": 0.2677165354330709
        },
        {
          "duration": 0.08120966666666618,
          "durationTicks": 116,
          "midi": 65,
          "name": "F4",
          "ticks": 61200,
          "time": 42.8451,
          "velocity": 0.2677165354330709
        },
        {
          "duration": 0.5012596666666695,
          "durationTicks": 716,
          "midi": 69,
          "name": "A4",
          "ticks": 61920,
          "time": 43.34916,
          "velocity": 0.2677165354330709
        },
        {
          "duration": 0.16521966666667254,
          "durationTicks": 236,
          "midi": 70,
          "name": "A#4",
          "ticks": 62640,
          "time": 43.85322,
          "velocity": 0.2283464566929134
        },
        {
          "duration": 0.08120966666667329,
          "durationTicks": 116,
          "midi": 63,
          "name": "D#4",
          "ticks": 66240,
          "time": 46.37352,
          "velocity": 0.4330708661417323
        },
        {
          "duration": 0.08120966666667329,
          "durationTicks": 116,
          "midi": 63,
          "name": "D#4",
          "ticks": 66480,
          "time": 46.54154,
          "velocity": 0.4330708661417323
        },
        {
          "duration": 0.08120966666666618,
          "durationTicks": 116,
          "midi": 63,
          "name": "D#4",
          "ticks": 66720,
          "time": 46.70956,
          "velocity": 0.4330708661417323
        },
        {
          "duration": 0.08120966666666618,
          "durationTicks": 116,
          "midi": 62,
          "name": "D4",
          "ticks": 66960,
          "time": 46.87758,
          "velocity": 0.4330708661417323
        },
        {
          "duration": 0.08120966666666618,
          "durationTicks": 116,
          "midi": 62,
          "name": "D4",
          "ticks": 67200,
          "time": 47.0456,
          "velocity": 0.4330708661417323
        },
        {
          "duration": 0.08120966666667329,
          "durationTicks": 116,
          "midi": 62,
          "name": "D4",
          "ticks": 67440,
          "time": 47.21362,
          "velocity": 0.4330708661417323
        },
        {
          "duration": 0.9213096666666729,
          "durationTicks": 1316,
          "midi": 63,
          "name": "D#4",
          "ticks": 67680,
          "time": 47.38164,
          "velocity": 0.4330708661417323
        },
        {
          "duration": 0.08120966666666618,
          "durationTicks": 116,
          "midi": 70,
          "name": "A#4",
          "ticks": 73440,
          "time": 51.414120000000004,
          "velocity": 0.8582677165354331
        },
        {
          "duration": 0.08120966666666618,
          "durationTicks": 116,
          "midi": 69,
          "name": "A4",
          "ticks": 73680,
          "time": 51.58214,
          "velocity": 0.7716535433070866
        },
        {
          "duration": 0.08120966666666618,
          "durationTicks": 116,
          "midi": 67,
          "name": "G4",
          "ticks": 73920,
          "time": 51.75016,
          "velocity": 0.7637795275590551
        },
        {
          "duration": 0.08120966666667329,
          "durationTicks": 116,
          "midi": 66,
          "name": "F#4",
          "ticks": 74160,
          "time": 51.91818,
          "velocity": 0.7559055118110236
        },
        {
          "duration": 0.08120966666667329,
          "durationTicks": 116,
          "midi": 67,
          "name": "G4",
          "ticks": 74400,
          "time": 52.0862,
          "velocity": 0.7480314960629921
        },
        {
          "duration": 0.08120966666666618,
          "durationTicks": 116,
          "midi": 64,
          "name": "E4",
          "ticks": 74640,
          "time": 52.254220000000004,
          "velocity": 0.7401574803149606
        },
        {
          "duration": 0.08120966666666618,
          "durationTicks": 116,
          "midi": 65,
          "name": "F4",
          "ticks": 74880,
          "time": 52.42224,
          "velocity": 0.7322834645669292
        },
        {
          "duration": 0.08120966666666618,
          "durationTicks": 116,
          "midi": 62,
          "name": "D4",
          "ticks": 75120,
          "time": 52.59026,
          "velocity": 0.7244094488188977
        },
        {
          "duration": 0.08120966666667329,
          "durationTicks": 116,
          "midi": 63,
          "name": "D#4",
          "ticks": 75360,
          "time": 52.75828,
          "velocity": 0.7165354330708661
        },
        {
          "duration": 0.08120966666667329,
          "durationTicks": 116,
          "midi": 61,
          "name": "C#4",
          "ticks": 75600,
          "time": 52.9263,
          "velocity": 0.7086614173228346
        },
        {
          "duration": 0.08120966666666618,
          "durationTicks": 116,
          "midi": 62,
          "name": "D4",
          "ticks": 75840,
          "time": 53.09432,
          "velocity": 0.7007874015748031
        },
        {
          "duration": 0.08120966666666618,
          "durationTicks": 116,
          "midi": 58,
          "name": "A#3",
          "ticks": 76080,
          "time": 53.26234,
          "velocity": 0.6929133858267716
        },
        {
          "duration": 0.1092129999999969,
          "durationTicks": 156,
          "midi": 63,
          "name": "D#4",
          "ticks": 76320,
          "time": 53.43036,
          "velocity": 0.6929133858267716
        },
        {
          "duration": 0.1092129999999969,
          "durationTicks": 156,
          "midi": 63,
          "name": "D#4",
          "ticks": 76560,
          "time": 53.59838,
          "velocity": 0.6929133858267716
        },
        {
          "duration": 0.10921299999998979,
          "durationTicks": 156,
          "midi": 63,
          "name": "D#4",
          "ticks": 76800,
          "time": 53.766400000000004,
          "velocity": 0.6929133858267716
        },
        {
          "duration": 0.1092129999999969,
          "durationTicks": 156,
          "midi": 63,
          "name": "D#4",
          "ticks": 77040,
          "time": 53.93442,
          "velocity": 0.6929133858267716
        },
        {
          "duration": 0.1092129999999969,
          "durationTicks": 156,
          "midi": 62,
          "name": "D4",
          "ticks": 77280,
          "time": 54.10244,
          "velocity": 0.6929133858267716
        },
        {
          "duration": 0.1092129999999969,
          "durationTicks": 156,
          "midi": 60,
          "name": "C4",
          "ticks": 77520,
          "time": 54.27046,
          "velocity": 0.6929133858267716
        },
        {
          "duration": 0.1092129999999969,
          "durationTicks": 156,
          "midi": 65,
          "name": "F4",
          "ticks": 77760,
          "time": 54.43848,
          "velocity": 0.6929133858267716
        },
        {
          "duration": 0.10921299999998979,
          "durationTicks": 156,
          "midi": 65,
          "name": "F4",
          "ticks": 78000,
          "time": 54.606500000000004,
          "velocity": 0.6929133858267716
        },
        {
          "duration": 0.1092129999999969,
          "durationTicks": 156,
          "midi": 65,
          "name": "F4",
          "ticks": 78240,
          "time": 54.77452,
          "velocity": 0.6929133858267716
        },
        {
          "duration": 0.1092129999999969,
          "durationTicks": 156,
          "midi": 65,
          "name": "F4",
          "ticks": 78480,
          "time": 54.94254,
          "velocity": 0.6929133858267716
        },
        {
          "duration": 0.1092129999999969,
          "durationTicks": 156,
          "midi": 65,
          "name": "F4",
          "ticks": 78720,
          "time": 55.11056,
          "velocity": 0.6929133858267716
        },
        {
          "duration": 0.1092129999999969,
          "durationTicks": 156,
          "midi": 65,
          "name": "F4",
          "ticks": 78960,
          "time": 55.27858,
          "velocity": 0.6929133858267716
        },
        {
          "duration": 0.08120966666666618,
          "durationTicks": 116,
          "midi": 70,
          "name": "A#4",
          "ticks": 79200,
          "time": 55.446600000000004,
          "velocity": 0.8582677165354331
        },
        {
          "duration": 0.08120966666666618,
          "durationTicks": 116,
          "midi": 69,
          "name": "A4",
          "ticks": 79440,
          "time": 55.61462,
          "velocity": 0.7716535433070866
        },
        {
          "duration": 0.08120966666666618,
          "durationTicks": 116,
          "midi": 67,
          "name": "G4",
          "ticks": 79680,
          "time": 55.78264,
          "velocity": 0.7637795275590551
        },
        {
          "duration": 0.08120966666667329,
          "durationTicks": 116,
          "midi": 66,
          "name": "F#4",
          "ticks": 79920,
          "time": 55.95066,
          "velocity": 0.7559055118110236
        },
        {
          "duration": 0.08120966666667329,
          "durationTicks": 116,
          "midi": 67,
          "name": "G4",
          "ticks": 80160,
          "time": 56.11868,
          "velocity": 0.7480314960629921
        },
        {
          "duration": 0.08120966666666618,
          "durationTicks": 116,
          "midi": 64,
          "name": "E4",
          "ticks": 80400,
          "time": 56.2867,
          "velocity": 0.7401574803149606
        },
        {
          "duration": 0.08120966666666618,
          "durationTicks": 116,
          "midi": 65,
          "name": "F4",
          "ticks": 80640,
          "time": 56.45472,
          "velocity": 0.7322834645669292
        },
        {
          "duration": 0.08120966666667329,
          "durationTicks": 116,
          "midi": 62,
          "name": "D4",
          "ticks": 80880,
          "time": 56.62274,
          "velocity": 0.7244094488188977
        },
        {
          "duration": 0.08120966666667329,
          "durationTicks": 116,
          "midi": 63,
          "name": "D#4",
          "ticks": 81120,
          "time": 56.79076,
          "velocity": 0.7165354330708661
        },
        {
          "duration": 0.08120966666666618,
          "durationTicks": 116,
          "midi": 61,
          "name": "C#4",
          "ticks": 81360,
          "time": 56.958780000000004,
          "velocity": 0.7086614173228346
        },
        {
          "duration": 0.08120966666666618,
          "durationTicks": 116,
          "midi": 62,
          "name": "D4",
          "ticks": 81600,
          "time": 57.1268,
          "velocity": 0.7007874015748031
        },
        {
          "duration": 0.08120966666666618,
          "durationTicks": 116,
          "midi": 58,
          "name": "A#3",
          "ticks": 81840,
          "time": 57.29482,
          "velocity": 0.6929133858267716
        },
        {
          "duration": 0.1092129999999969,
          "durationTicks": 156,
          "midi": 63,
          "name": "D#4",
          "ticks": 82080,
          "time": 57.46284,
          "velocity": 0.6929133858267716
        },
        {
          "duration": 0.1092129999999969,
          "durationTicks": 156,
          "midi": 63,
          "name": "D#4",
          "ticks": 82320,
          "time": 57.63086,
          "velocity": 0.6929133858267716
        },
        {
          "duration": 0.10921299999998979,
          "durationTicks": 156,
          "midi": 63,
          "name": "D#4",
          "ticks": 82560,
          "time": 57.798880000000004,
          "velocity": 0.6929133858267716
        },
        {
          "duration": 0.1092129999999969,
          "durationTicks": 156,
          "midi": 63,
          "name": "D#4",
          "ticks": 82800,
          "time": 57.9669,
          "velocity": 0.6929133858267716
        },
        {
          "duration": 0.1092129999999969,
          "durationTicks": 156,
          "midi": 62,
          "name": "D4",
          "ticks": 83040,
          "time": 58.13492,
          "velocity": 0.6929133858267716
        },
        {
          "duration": 0.1092129999999969,
          "durationTicks": 156,
          "midi": 60,
          "name": "C4",
          "ticks": 83280,
          "time": 58.30294,
          "velocity": 0.6929133858267716
        },
        {
          "duration": 0.1092129999999969,
          "durationTicks": 156,
          "midi": 65,
          "name": "F4",
          "ticks": 83520,
          "time": 58.47096,
          "velocity": 0.6929133858267716
        },
        {
          "duration": 0.1092129999999969,
          "durationTicks": 156,
          "midi": 65,
          "name": "F4",
          "ticks": 83760,
          "time": 58.638980000000004,
          "velocity": 0.6929133858267716
        },
        {
          "duration": 0.1092129999999969,
          "durationTicks": 156,
          "midi": 65,
          "name": "F4",
          "ticks": 84000,
          "time": 58.807,
          "velocity": 0.6929133858267716
        },
        {
          "duration": 0.1092129999999969,
          "durationTicks": 156,
          "midi": 53,
          "name": "F3",
          "ticks": 84240,
          "time": 58.97502,
          "velocity": 0.6929133858267716
        },
        {
          "duration": 0.1092129999999969,
          "durationTicks": 156,
          "midi": 53,
          "name": "F3",
          "ticks": 84480,
          "time": 59.14304,
          "velocity": 0.6929133858267716
        },
        {
          "duration": 0.1092129999999969,
          "durationTicks": 156,
          "midi": 53,
          "name": "F3",
          "ticks": 84720,
          "time": 59.31106,
          "velocity": 0.6929133858267716
        },
        {
          "duration": 0.1092129999999969,
          "durationTicks": 156,
          "midi": 58,
          "name": "A#3",
          "ticks": 84960,
          "time": 59.47908,
          "velocity": 0.5748031496062992
        },
        {
          "duration": 0.1092129999999969,
          "durationTicks": 156,
          "midi": 53,
          "name": "F3",
          "ticks": 85200,
          "time": 59.6471,
          "velocity": 0.25984251968503935
        },
        {
          "duration": 0.1092129999999969,
          "durationTicks": 156,
          "midi": 53,
          "name": "F3",
          "ticks": 85440,
          "time": 59.81512,
          "velocity": 0.25984251968503935
        },
        {
          "duration": 0.1092129999999969,
          "durationTicks": 156,
          "midi": 53,
          "name": "F3",
          "ticks": 85680,
          "time": 59.98314,
          "velocity": 0.25984251968503935
        },
        {
          "duration": 0.10921299999998979,
          "durationTicks": 156,
          "midi": 53,
          "name": "F3",
          "ticks": 85920,
          "time": 60.151160000000004,
          "velocity": 0.25984251968503935
        },
        {
          "duration": 0.1092129999999969,
          "durationTicks": 156,
          "midi": 53,
          "name": "F3",
          "ticks": 86160,
          "time": 60.31918,
          "velocity": 0.25984251968503935
        },
        {
          "duration": 0.1092129999999969,
          "durationTicks": 156,
          "midi": 53,
          "name": "F3",
          "ticks": 86640,
          "time": 60.65522,
          "velocity": 0.25984251968503935
        },
        {
          "duration": 0.1092129999999969,
          "durationTicks": 156,
          "midi": 53,
          "name": "F3",
          "ticks": 86880,
          "time": 60.82324,
          "velocity": 0.25984251968503935
        },
        {
          "duration": 0.10921299999998979,
          "durationTicks": 156,
          "midi": 53,
          "name": "F3",
          "ticks": 87120,
          "time": 60.991260000000004,
          "velocity": 0.25984251968503935
        },
        {
          "duration": 0.1092129999999969,
          "durationTicks": 156,
          "midi": 53,
          "name": "F3",
          "ticks": 87360,
          "time": 61.15928,
          "velocity": 0.25984251968503935
        },
        {
          "duration": 0.1092129999999969,
          "durationTicks": 156,
          "midi": 53,
          "name": "F3",
          "ticks": 87600,
          "time": 61.3273,
          "velocity": 0.25984251968503935
        },
        {
          "duration": 0.1092129999999969,
          "durationTicks": 156,
          "midi": 53,
          "name": "F3",
          "ticks": 88080,
          "time": 61.66334,
          "velocity": 0.25984251968503935
        },
        {
          "duration": 0.1092129999999969,
          "durationTicks": 156,
          "midi": 53,
          "name": "F3",
          "ticks": 88320,
          "time": 61.831360000000004,
          "velocity": 0.25984251968503935
        },
        {
          "duration": 0.1092129999999969,
          "durationTicks": 156,
          "midi": 53,
          "name": "F3",
          "ticks": 88560,
          "time": 61.99938,
          "velocity": 0.25984251968503935
        },
        {
          "duration": 0.1092129999999969,
          "durationTicks": 156,
          "midi": 53,
          "name": "F3",
          "ticks": 88800,
          "time": 62.1674,
          "velocity": 0.25984251968503935
        },
        {
          "duration": 0.1092129999999969,
          "durationTicks": 156,
          "midi": 53,
          "name": "F3",
          "ticks": 89040,
          "time": 62.33542,
          "velocity": 0.25984251968503935
        },
        {
          "duration": 0.1092129999999969,
          "durationTicks": 156,
          "midi": 53,
          "name": "F3",
          "ticks": 89520,
          "time": 62.67146,
          "velocity": 0.25984251968503935
        },
        {
          "duration": 0.1092129999999969,
          "durationTicks": 156,
          "midi": 53,
          "name": "F3",
          "ticks": 89760,
          "time": 62.83948,
          "velocity": 0.25984251968503935
        },
        {
          "duration": 0.1092129999999969,
          "durationTicks": 156,
          "midi": 53,
          "name": "F3",
          "ticks": 90000,
          "time": 63.0075,
          "velocity": 0.25984251968503935
        },
        {
          "duration": 0.1092129999999969,
          "durationTicks": 156,
          "midi": 53,
          "name": "F3",
          "ticks": 90240,
          "time": 63.17552,
          "velocity": 0.25984251968503935
        },
        {
          "duration": 0.10921299999998979,
          "durationTicks": 156,
          "midi": 53,
          "name": "F3",
          "ticks": 90480,
          "time": 63.343540000000004,
          "velocity": 0.25984251968503935
        },
        {
          "duration": 0.1092129999999969,
          "durationTicks": 156,
          "midi": 53,
          "name": "F3",
          "ticks": 90720,
          "time": 63.51156,
          "velocity": 0.25984251968503935
        },
        {
          "duration": 4.197699666666665,
          "durationTicks": 5996,
          "midi": 58,
          "name": "A#3",
          "ticks": 99360,
          "time": 69.56028,
          "velocity": 0.2283464566929134
        },
        {
          "duration": 0.053206333333335465,
          "durationTicks": 76,
          "midi": 53,
          "name": "F3",
          "ticks": 110160,
          "time": 77.12118,
          "velocity": 0.1889763779527559
        },
        {
          "duration": 0.053206333333321254,
          "durationTicks": 76,
          "midi": 53,
          "name": "F3",
          "ticks": 110400,
          "time": 77.28920000000001,
          "velocity": 0.1889763779527559
        },
        {
          "duration": 0.053206333333321254,
          "durationTicks": 76,
          "midi": 53,
          "name": "F3",
          "ticks": 110640,
          "time": 77.45722,
          "velocity": 0.1889763779527559
        },
        {
          "duration": 0.24922966666666468,
          "durationTicks": 356,
          "midi": 53,
          "name": "F3",
          "ticks": 110880,
          "time": 77.62524,
          "velocity": 0.1889763779527559
        },
        {
          "duration": 0.053206333333335465,
          "durationTicks": 76,
          "midi": 65,
          "name": "F4",
          "ticks": 111600,
          "time": 78.1293,
          "velocity": 0.1889763779527559
        },
        {
          "duration": 0.053206333333335465,
          "durationTicks": 76,
          "midi": 65,
          "name": "F4",
          "ticks": 111840,
          "time": 78.29732,
          "velocity": 0.1889763779527559
        },
        {
          "duration": 0.053206333333335465,
          "durationTicks": 76,
          "midi": 65,
          "name": "F4",
          "ticks": 112080,
          "time": 78.46534,
          "velocity": 0.1889763779527559
        },
        {
          "duration": 0.2492296666666789,
          "durationTicks": 356,
          "midi": 65,
          "name": "F4",
          "ticks": 112320,
          "time": 78.63336,
          "velocity": 0.1889763779527559
        },
        {
          "duration": 1.005319666666665,
          "durationTicks": 1436,
          "midi": 62,
          "name": "D4",
          "ticks": 120960,
          "time": 84.68208,
          "velocity": 0.15748031496062992
        },
        {
          "duration": 0.16521966666667254,
          "durationTicks": 236,
          "midi": 60,
          "name": "C4",
          "ticks": 122400,
          "time": 85.6902,
          "velocity": 0.15748031496062992
        },
        {
          "duration": 1.0053196666666793,
          "durationTicks": 1436,
          "midi": 62,
          "name": "D4",
          "ticks": 123840,
          "time": 86.69832,
          "velocity": 0.15748031496062992
        },
        {
          "duration": 0.16521966666667254,
          "durationTicks": 236,
          "midi": 60,
          "name": "C4",
          "ticks": 125280,
          "time": 87.70644,
          "velocity": 0.15748031496062992
        },
        {
          "duration": 1.005319666666665,
          "durationTicks": 1436,
          "midi": 62,
          "name": "D4",
          "ticks": 126720,
          "time": 88.71456,
          "velocity": 0.15748031496062992
        },
        {
          "duration": 0.16521966666667254,
          "durationTicks": 236,
          "midi": 64,
          "name": "E4",
          "ticks": 128160,
          "time": 89.72268,
          "velocity": 0.15748031496062992
        },
        {
          "duration": 1.005319666666665,
          "durationTicks": 1436,
          "midi": 56,
          "name": "G#3",
          "ticks": 129600,
          "time": 90.7308,
          "velocity": 0.15748031496062992
        },
        {
          "duration": 1.005319666666665,
          "durationTicks": 1436,
          "midi": 61,
          "name": "C#4",
          "ticks": 131040,
          "time": 91.73892000000001,
          "velocity": 0.18110236220472442
        },
        {
          "duration": 2.0134396666666703,
          "durationTicks": 2876,
          "midi": 65,
          "name": "F4",
          "ticks": 132480,
          "time": 92.74704,
          "velocity": 0.2125984251968504
        },
        {
          "duration": 0.22122633333334818,
          "durationTicks": 316,
          "midi": 67,
          "name": "G4",
          "ticks": 135360,
          "time": 94.76328,
          "velocity": 0.1968503937007874
        },
        {
          "duration": 0.08120966666666618,
          "durationTicks": 116,
          "midi": 48,
          "name": "C3",
          "ticks": 141120,
          "time": 98.79576,
          "velocity": 0.4094488188976378
        },
        {
          "duration": 0.16521966666667254,
          "durationTicks": 236,
          "midi": 52,
          "name": "E3",
          "ticks": 141600,
          "time": 99.1318,
          "velocity": 0.4566929133858268
        },
        {
          "duration": 0.08120966666668039,
          "durationTicks": 116,
          "midi": 55,
          "name": "G3",
          "ticks": 141840,
          "time": 99.29982,
          "velocity": 0.48031496062992124
        },
        {
          "duration": 0.16521966666665833,
          "durationTicks": 236,
          "midi": 59,
          "name": "B3",
          "ticks": 142320,
          "time": 99.63586000000001,
          "velocity": 0.5275590551181102
        },
        {
          "duration": 0.08120966666666618,
          "durationTicks": 116,
          "midi": 60,
          "name": "C4",
          "ticks": 142560,
          "time": 99.80388,
          "velocity": 0.4881889763779528
        },
        {
          "duration": 0.16521966666667254,
          "durationTicks": 236,
          "midi": 61,
          "name": "C#4",
          "ticks": 143040,
          "time": 100.13992,
          "velocity": 0.2440944881889764
        },
        {
          "duration": 0.08120966666666618,
          "durationTicks": 116,
          "midi": 62,
          "name": "D4",
          "ticks": 143280,
          "time": 100.30794,
          "velocity": 0.23622047244094488
        },
        {
          "duration": 0.16521966666667254,
          "durationTicks": 236,
          "midi": 60,
          "name": "C4",
          "ticks": 143760,
          "time": 100.64398,
          "velocity": 0.2204724409448819
        },
        {
          "duration": 0.08120966666666618,
          "durationTicks": 116,
          "midi": 58,
          "name": "A#3",
          "ticks": 144000,
          "time": 100.812,
          "velocity": 0.2125984251968504
        },
        {
          "duration": 0.16521966666667254,
          "durationTicks": 236,
          "midi": 57,
          "name": "A3",
          "ticks": 144480,
          "time": 101.14804,
          "velocity": 0.1968503937007874
        },
        {
          "duration": 0.08120966666666618,
          "durationTicks": 116,
          "midi": 55,
          "name": "G3",
          "ticks": 144720,
          "time": 101.31606000000001,
          "velocity": 0.18110236220472442
        },
        {
          "duration": 0.08120966666666618,
          "durationTicks": 116,
          "midi": 57,
          "name": "A3",
          "ticks": 177360,
          "time": 124.16678,
          "velocity": 0.3464566929133858
        },
        {
          "duration": 0.08120966666666618,
          "durationTicks": 116,
          "midi": 57,
          "name": "A3",
          "ticks": 177600,
          "time": 124.3348,
          "velocity": 0.2677165354330709
        },
        {
          "duration": 0.5012596666666695,
          "durationTicks": 716,
          "midi": 57,
          "name": "A3",
          "ticks": 177840,
          "time": 124.50282,
          "velocity": 0.2755905511811024
        },
        {
          "duration": 0.08120966666666618,
          "durationTicks": 116,
          "midi": 58,
          "name": "A#3",
          "ticks": 178800,
          "time": 125.17490000000001,
          "velocity": 0.3700787401574803
        },
        {
          "duration": 0.08120966666666618,
          "durationTicks": 116,
          "midi": 58,
          "name": "A#3",
          "ticks": 179040,
          "time": 125.34292,
          "velocity": 0.29133858267716534
        },
        {
          "duration": 0.5012596666666695,
          "durationTicks": 716,
          "midi": 58,
          "name": "A#3",
          "ticks": 179280,
          "time": 125.51094,
          "velocity": 0.2992125984251969
        },
        {
          "duration": 0.08120966666666618,
          "durationTicks": 116,
          "midi": 60,
          "name": "C4",
          "ticks": 180240,
          "time": 126.18302,
          "velocity": 0.3937007874015748
        },
        {
          "duration": 0.08120966666668039,
          "durationTicks": 116,
          "midi": 60,
          "name": "C4",
          "ticks": 180480,
          "time": 126.35104,
          "velocity": 0.31496062992125984
        },
        {
          "duration": 0.5012596666666695,
          "durationTicks": 716,
          "midi": 60,
          "name": "C4",
          "ticks": 180720,
          "time": 126.51906,
          "velocity": 0.3228346456692913
        },
        {
          "duration": 0.08120966666666618,
          "durationTicks": 116,
          "midi": 62,
          "name": "D4",
          "ticks": 181680,
          "time": 127.19114,
          "velocity": 0.41732283464566927
        },
        {
          "duration": 0.08120966666666618,
          "durationTicks": 116,
          "midi": 62,
          "name": "D4",
          "ticks": 181920,
          "time": 127.35916,
          "velocity": 0.33858267716535434
        },
        {
          "duration": 0.5012596666666838,
          "durationTicks": 716,
          "midi": 62,
          "name": "D4",
          "ticks": 182160,
          "time": 127.52718,
          "velocity": 0.3464566929133858
        },
        {
          "duration": 0.4172496666666632,
          "durationTicks": 596,
          "midi": 69,
          "name": "A4",
          "ticks": 182880,
          "time": 128.03124,
          "velocity": 0.4330708661417323
        },
        {
          "duration": 0.4172496666666632,
          "durationTicks": 596,
          "midi": 69,
          "name": "A4",
          "ticks": 183600,
          "time": 128.5353,
          "velocity": 0.4409448818897638
        },
        {
          "duration": 0.0812096666666946,
          "durationTicks": 116,
          "midi": 69,
          "name": "A4",
          "ticks": 184320,
          "time": 129.03936,
          "velocity": 0.4566929133858268
        },
        {
          "duration": 0.08120966666666618,
          "durationTicks": 116,
          "midi": 69,
          "name": "A4",
          "ticks": 185040,
          "time": 129.54342,
          "velocity": 0.47244094488188976
        },
        {
          "duration": 0.09055153333332555,
          "durationTicks": 116,
          "midi": 63,
          "name": "D#4",
          "ticks": 185760,
          "time": 130.04748,
          "velocity": 0.4881889763779528
        },
        {
          "duration": 0.10262592500001233,
          "durationTicks": 116,
          "midi": 60,
          "name": "C4",
          "ticks": 186480,
          "time": 130.609524,
          "velocity": 0.5039370078740157
        },
        {
          "duration": 0.680717808333327,
          "durationTicks": 956,
          "midi": 57,
          "name": "A3",
          "ticks": 187200,
          "time": 131.2465125,
          "velocity": 0.5196850393700787
        },
        {
          "duration": 0.22122633333333397,
          "durationTicks": 316,
          "midi": 58,
          "name": "A#3",
          "ticks": 226080,
          "time": 167.13212012500003,
          "velocity": 0.4330708661417323
        },
        {
          "duration": 0.22122633333333397,
          "durationTicks": 316,
          "midi": 70,
          "name": "A#4",
          "ticks": 227520,
          "time": 168.14024012500002,
          "velocity": 0.4330708661417323
        },
        {
          "duration": 0.22122633333333397,
          "durationTicks": 316,
          "midi": 53,
          "name": "F3",
          "ticks": 228960,
          "time": 169.148360125,
          "velocity": 0.4330708661417323
        },
        {
          "duration": 0.22122633333333397,
          "durationTicks": 316,
          "midi": 65,
          "name": "F4",
          "ticks": 229680,
          "time": 169.65242012500002,
          "velocity": 0.4330708661417323
        },
        {
          "duration": 0.5012596666666411,
          "durationTicks": 716,
          "midi": 53,
          "name": "F3",
          "ticks": 230400,
          "time": 170.15648012500003,
          "velocity": 0.4330708661417323
        },
        {
          "duration": 0.22122633333333397,
          "durationTicks": 316,
          "midi": 58,
          "name": "A#3",
          "ticks": 231840,
          "time": 171.16460012500002,
          "velocity": 0.4330708661417323
        },
        {
          "duration": 0.22122633333333397,
          "durationTicks": 316,
          "midi": 58,
          "name": "A#3",
          "ticks": 232560,
          "time": 171.668660125,
          "velocity": 0.4330708661417323
        },
        {
          "duration": 0.22122633333333397,
          "durationTicks": 316,
          "midi": 58,
          "name": "A#3",
          "ticks": 233280,
          "time": 172.172720125,
          "velocity": 0.4330708661417323
        },
        {
          "duration": 0.053206333333321254,
          "durationTicks": 76,
          "midi": 53,
          "name": "F3",
          "ticks": 260880,
          "time": 191.49502012500002,
          "velocity": 0.25984251968503935
        },
        {
          "duration": 0.053206333333349676,
          "durationTicks": 76,
          "midi": 53,
          "name": "F3",
          "ticks": 261120,
          "time": 191.663040125,
          "velocity": 0.25984251968503935
        },
        {
          "duration": 0.053206333333321254,
          "durationTicks": 76,
          "midi": 53,
          "name": "F3",
          "ticks": 261360,
          "time": 191.83106012500002,
          "velocity": 0.25984251968503935
        },
        {
          "duration": 0.053206333333349676,
          "durationTicks": 76,
          "midi": 53,
          "name": "F3",
          "ticks": 261600,
          "time": 191.999080125,
          "velocity": 0.25984251968503935
        },
        {
          "duration": 0.053206333333321254,
          "durationTicks": 76,
          "midi": 53,
          "name": "F3",
          "ticks": 261840,
          "time": 192.16710012500002,
          "velocity": 0.25984251968503935
        },
        {
          "duration": 0.053206333333321254,
          "durationTicks": 76,
          "midi": 52,
          "name": "E3",
          "ticks": 262320,
          "time": 192.50314012500002,
          "velocity": 0.25984251968503935
        },
        {
          "duration": 0.053206333333321254,
          "durationTicks": 76,
          "midi": 52,
          "name": "E3",
          "ticks": 262560,
          "time": 192.67116012500003,
          "velocity": 0.25984251968503935
        },
        {
          "duration": 0.053206333333349676,
          "durationTicks": 76,
          "midi": 52,
          "name": "E3",
          "ticks": 262800,
          "time": 192.839180125,
          "velocity": 0.25984251968503935
        },
        {
          "duration": 0.053206333333321254,
          "durationTicks": 76,
          "midi": 52,
          "name": "E3",
          "ticks": 263040,
          "time": 193.00720012500003,
          "velocity": 0.25984251968503935
        },
        {
          "duration": 0.053206333333321254,
          "durationTicks": 76,
          "midi": 52,
          "name": "E3",
          "ticks": 263280,
          "time": 193.175220125,
          "velocity": 0.25984251968503935
        },
        {
          "duration": 0.053206333333349676,
          "durationTicks": 76,
          "midi": 65,
          "name": "F4",
          "ticks": 263760,
          "time": 193.511260125,
          "velocity": 0.25984251968503935
        },
        {
          "duration": 0.053206333333321254,
          "durationTicks": 76,
          "midi": 65,
          "name": "F4",
          "ticks": 264000,
          "time": 193.67928012500002,
          "velocity": 0.25984251968503935
        },
        {
          "duration": 0.053206333333349676,
          "durationTicks": 76,
          "midi": 65,
          "name": "F4",
          "ticks": 264240,
          "time": 193.847300125,
          "velocity": 0.25984251968503935
        },
        {
          "duration": 0.053206333333321254,
          "durationTicks": 76,
          "midi": 65,
          "name": "F4",
          "ticks": 264480,
          "time": 194.01532012500002,
          "velocity": 0.25984251968503935
        },
        {
          "duration": 0.053206333333321254,
          "durationTicks": 76,
          "midi": 65,
          "name": "F4",
          "ticks": 264720,
          "time": 194.18334012500003,
          "velocity": 0.25984251968503935
        },
        {
          "duration": 0.053206333333321254,
          "durationTicks": 76,
          "midi": 64,
          "name": "E4",
          "ticks": 265200,
          "time": 194.51938012500003,
          "velocity": 0.25984251968503935
        },
        {
          "duration": 0.053206333333321254,
          "durationTicks": 76,
          "midi": 64,
          "name": "E4",
          "ticks": 265440,
          "time": 194.687400125,
          "velocity": 0.25984251968503935
        },
        {
          "duration": 0.053206333333321254,
          "durationTicks": 76,
          "midi": 64,
          "name": "E4",
          "ticks": 265680,
          "time": 194.85542012500002,
          "velocity": 0.25984251968503935
        },
        {
          "duration": 0.053206333333349676,
          "durationTicks": 76,
          "midi": 64,
          "name": "E4",
          "ticks": 265920,
          "time": 195.023440125,
          "velocity": 0.25984251968503935
        },
        {
          "duration": 0.053206333333321254,
          "durationTicks": 76,
          "midi": 64,
          "name": "E4",
          "ticks": 266160,
          "time": 195.19146012500002,
          "velocity": 0.25984251968503935
        },
        {
          "duration": 0.053206333333321254,
          "durationTicks": 76,
          "midi": 53,
          "name": "F3",
          "ticks": 266640,
          "time": 195.52750012500002,
          "velocity": 0.25984251968503935
        },
        {
          "duration": 0.053206333333321254,
          "durationTicks": 76,
          "midi": 53,
          "name": "F3",
          "ticks": 266880,
          "time": 195.69552012500003,
          "velocity": 0.25984251968503935
        },
        {
          "duration": 0.053206333333349676,
          "durationTicks": 76,
          "midi": 53,
          "name": "F3",
          "ticks": 267120,
          "time": 195.86354012500001,
          "velocity": 0.25984251968503935
        },
        {
          "duration": 0.053206333333349676,
          "durationTicks": 76,
          "midi": 53,
          "name": "F3",
          "ticks": 267360,
          "time": 196.031560125,
          "velocity": 0.25984251968503935
        },
        {
          "duration": 0.053206333333321254,
          "durationTicks": 76,
          "midi": 53,
          "name": "F3",
          "ticks": 267600,
          "time": 196.199580125,
          "velocity": 0.25984251968503935
        },
        {
          "duration": 0.053206333333349676,
          "durationTicks": 76,
          "midi": 55,
          "name": "G3",
          "ticks": 268080,
          "time": 196.535620125,
          "velocity": 0.25984251968503935
        },
        {
          "duration": 0.053206333333321254,
          "durationTicks": 76,
          "midi": 55,
          "name": "G3",
          "ticks": 268320,
          "time": 196.70364012500002,
          "velocity": 0.25984251968503935
        },
        {
          "duration": 0.053206333333349676,
          "durationTicks": 76,
          "midi": 55,
          "name": "G3",
          "ticks": 268560,
          "time": 196.871660125,
          "velocity": 0.25984251968503935
        },
        {
          "duration": 0.16521966666667254,
          "durationTicks": 236,
          "midi": 55,
          "name": "G3",
          "ticks": 268800,
          "time": 197.03968012500002,
          "velocity": 0.25984251968503935
        },
        {
          "duration": 0.053206333333321254,
          "durationTicks": 76,
          "midi": 58,
          "name": "A#3",
          "ticks": 269040,
          "time": 197.20770012500003,
          "velocity": 0.25984251968503935
        },
        {
          "duration": 0.053206333333349676,
          "durationTicks": 76,
          "midi": 60,
          "name": "C4",
          "ticks": 269520,
          "time": 197.543740125,
          "velocity": 0.25984251968503935
        },
        {
          "duration": 0.053206333333321254,
          "durationTicks": 76,
          "midi": 60,
          "name": "C4",
          "ticks": 269760,
          "time": 197.711760125,
          "velocity": 0.25984251968503935
        },
        {
          "duration": 0.053206333333321254,
          "durationTicks": 76,
          "midi": 60,
          "name": "C4",
          "ticks": 270000,
          "time": 197.87978012500002,
          "velocity": 0.25984251968503935
        },
        {
          "duration": 0.053206333333349676,
          "durationTicks": 76,
          "midi": 60,
          "name": "C4",
          "ticks": 270240,
          "time": 198.047800125,
          "velocity": 0.25984251968503935
        },
        {
          "duration": 0.053206333333321254,
          "durationTicks": 76,
          "midi": 60,
          "name": "C4",
          "ticks": 270480,
          "time": 198.21582012500002,
          "velocity": 0.25984251968503935
        },
        {
          "duration": 0.053206333333321254,
          "durationTicks": 76,
          "midi": 66,
          "name": "F#4",
          "ticks": 270960,
          "time": 198.55186012500002,
          "velocity": 0.25984251968503935
        },
        {
          "duration": 0.053206333333321254,
          "durationTicks": 76,
          "midi": 66,
          "name": "F#4",
          "ticks": 271200,
          "time": 198.71988012500003,
          "velocity": 0.25984251968503935
        },
        {
          "duration": 0.053206333333349676,
          "durationTicks": 76,
          "midi": 66,
          "name": "F#4",
          "ticks": 271440,
          "time": 198.88790012500002,
          "velocity": 0.25984251968503935
        },
        {
          "duration": 0.16521966666667254,
          "durationTicks": 236,
          "midi": 66,
          "name": "F#4",
          "ticks": 271680,
          "time": 199.055920125,
          "velocity": 0.25984251968503935
        },
        {
          "duration": 0.053206333333321254,
          "durationTicks": 76,
          "midi": 69,
          "name": "A4",
          "ticks": 271920,
          "time": 199.223940125,
          "velocity": 0.25984251968503935
        },
        {
          "duration": 0.053206333333349676,
          "durationTicks": 76,
          "midi": 55,
          "name": "G3",
          "ticks": 272400,
          "time": 199.559980125,
          "velocity": 0.25984251968503935
        },
        {
          "duration": 0.053206333333321254,
          "durationTicks": 76,
          "midi": 55,
          "name": "G3",
          "ticks": 272640,
          "time": 199.72800012500002,
          "velocity": 0.25984251968503935
        },
        {
          "duration": 0.053206333333349676,
          "durationTicks": 76,
          "midi": 55,
          "name": "G3",
          "ticks": 272880,
          "time": 199.896020125,
          "velocity": 0.25984251968503935
        },
        {
          "duration": 0.053206333333321254,
          "durationTicks": 76,
          "midi": 55,
          "name": "G3",
          "ticks": 273120,
          "time": 200.06404012500002,
          "velocity": 0.25984251968503935
        },
        {
          "duration": 0.053206333333321254,
          "durationTicks": 76,
          "midi": 55,
          "name": "G3",
          "ticks": 273360,
          "time": 200.23206012500003,
          "velocity": 0.25984251968503935
        },
        {
          "duration": 0.053206333333349676,
          "durationTicks": 76,
          "midi": 61,
          "name": "C#4",
          "ticks": 273840,
          "time": 200.568100125,
          "velocity": 0.25984251968503935
        },
        {
          "duration": 0.053206333333321254,
          "durationTicks": 76,
          "midi": 61,
          "name": "C#4",
          "ticks": 274080,
          "time": 200.736120125,
          "velocity": 0.25984251968503935
        },
        {
          "duration": 0.053206333333321254,
          "durationTicks": 76,
          "midi": 61,
          "name": "C#4",
          "ticks": 274320,
          "time": 200.90414012500003,
          "velocity": 0.25984251968503935
        },
        {
          "duration": 0.16521966666667254,
          "durationTicks": 236,
          "midi": 61,
          "name": "C#4",
          "ticks": 274560,
          "time": 201.072160125,
          "velocity": 0.25984251968503935
        },
        {
          "duration": 0.053206333333321254,
          "durationTicks": 76,
          "midi": 64,
          "name": "E4",
          "ticks": 274800,
          "time": 201.24018012500002,
          "velocity": 0.25984251968503935
        },
        {
          "duration": 0.053206333333321254,
          "durationTicks": 76,
          "midi": 62,
          "name": "D4",
          "ticks": 275280,
          "time": 201.57622012500002,
          "velocity": 0.25984251968503935
        },
        {
          "duration": 0.053206333333321254,
          "durationTicks": 76,
          "midi": 62,
          "name": "D4",
          "ticks": 275520,
          "time": 201.74424012500003,
          "velocity": 0.25984251968503935
        },
        {
          "duration": 0.053206333333321254,
          "durationTicks": 76,
          "midi": 62,
          "name": "D4",
          "ticks": 275760,
          "time": 201.91226012500002,
          "velocity": 0.25984251968503935
        },
        {
          "duration": 0.053206333333349676,
          "durationTicks": 76,
          "midi": 62,
          "name": "D4",
          "ticks": 276000,
          "time": 202.080280125,
          "velocity": 0.25984251968503935
        },
        {
          "duration": 0.053206333333321254,
          "durationTicks": 76,
          "midi": 62,
          "name": "D4",
          "ticks": 276240,
          "time": 202.24830012500001,
          "velocity": 0.25984251968503935
        },
        {
          "duration": 3.3575996666666583,
          "durationTicks": 4796,
          "midi": 62,
          "name": "D4",
          "ticks": 276480,
          "time": 202.41632012500003,
          "velocity": 0.1889763779527559
        },
        {
          "duration": 2.575192991666654,
          "durationTicks": 3596,
          "midi": 65,
          "name": "F4",
          "ticks": 311040,
          "time": 230.843047125,
          "velocity": 0.1889763779527559
        },
        {
          "duration": 4.293897991666654,
          "durationTicks": 5996,
          "midi": 58,
          "name": "A#3",
          "ticks": 325440,
          "time": 241.592744125,
          "velocity": 0.2283464566929134
        },
        {
          "duration": 0.05442565833331514,
          "durationTicks": 76,
          "midi": 53,
          "name": "F3",
          "ticks": 336240,
          "time": 249.326916625,
          "velocity": 0.2677165354330709
        },
        {
          "duration": 0.05442565833334356,
          "durationTicks": 76,
          "midi": 53,
          "name": "F3",
          "ticks": 336480,
          "time": 249.49878712499998,
          "velocity": 0.1889763779527559
        },
        {
          "duration": 0.05442565833334356,
          "durationTicks": 76,
          "midi": 53,
          "name": "F3",
          "ticks": 336720,
          "time": 249.670657625,
          "velocity": 0.1889763779527559
        },
        {
          "duration": 0.2549412416666428,
          "durationTicks": 356,
          "midi": 53,
          "name": "F3",
          "ticks": 336960,
          "time": 249.842528125,
          "velocity": 0.16535433070866143
        },
        {
          "duration": 0.05442565833334356,
          "durationTicks": 76,
          "midi": 65,
          "name": "F4",
          "ticks": 337680,
          "time": 250.35813962499998,
          "velocity": 0.2677165354330709
        },
        {
          "duration": 0.05442565833334356,
          "durationTicks": 76,
          "midi": 65,
          "name": "F4",
          "ticks": 337920,
          "time": 250.530010125,
          "velocity": 0.1889763779527559
        },
        {
          "duration": 0.05442565833331514,
          "durationTicks": 76,
          "midi": 65,
          "name": "F4",
          "ticks": 338160,
          "time": 250.701880625,
          "velocity": 0.1889763779527559
        },
        {
          "duration": 0.2549412416666712,
          "durationTicks": 356,
          "midi": 65,
          "name": "F4",
          "ticks": 338400,
          "time": 250.87375112499998,
          "velocity": 0.14960629921259844
        },
        {
          "duration": 1.0283584916666655,
          "durationTicks": 1436,
          "midi": 63,
          "name": "D#4",
          "ticks": 347040,
          "time": 257.06108912499997,
          "velocity": 0.15748031496062992
        },
        {
          "duration": 0.16900599166666552,
          "durationTicks": 236,
          "midi": 65,
          "name": "F4",
          "ticks": 348480,
          "time": 258.092312125,
          "velocity": 0.15748031496062992
        },
        {
          "duration": 1.0283584916666655,
          "durationTicks": 1436,
          "midi": 63,
          "name": "D#4",
          "ticks": 349920,
          "time": 259.123535125,
          "velocity": 0.15748031496062992
        },
        {
          "duration": 0.16900599166666552,
          "durationTicks": 236,
          "midi": 65,
          "name": "F4",
          "ticks": 351360,
          "time": 260.154758125,
          "velocity": 0.15748031496062992
        },
        {
          "duration": 1.0283584916666655,
          "durationTicks": 1436,
          "midi": 63,
          "name": "D#4",
          "ticks": 352800,
          "time": 261.185981125,
          "velocity": 0.15748031496062992
        },
        {
          "duration": 0.16900599166666552,
          "durationTicks": 236,
          "midi": 66,
          "name": "F#4",
          "ticks": 354240,
          "time": 262.21720412499997,
          "velocity": 0.15748031496062992
        },
        {
          "duration": 1.0283584916666655,
          "durationTicks": 1436,
          "midi": 53,
          "name": "F3",
          "ticks": 355680,
          "time": 263.248427125,
          "velocity": 0.15748031496062992
        },
        {
          "duration": 1.0283584916666655,
          "durationTicks": 1436,
          "midi": 58,
          "name": "A#3",
          "ticks": 357120,
          "time": 264.279650125,
          "velocity": 0.18110236220472442
        },
        {
          "duration": 1.0283584916666655,
          "durationTicks": 1436,
          "midi": 61,
          "name": "C#4",
          "ticks": 358560,
          "time": 265.310873125,
          "velocity": 0.2125984251968504
        },
        {
          "duration": 1.0283584916666655,
          "durationTicks": 1436,
          "midi": 66,
          "name": "F#4",
          "ticks": 360000,
          "time": 266.342096125,
          "velocity": 0.2125984251968504
        },
        {
          "duration": 0.22629615833335492,
          "durationTicks": 316,
          "midi": 65,
          "name": "F4",
          "ticks": 361440,
          "time": 267.37331912499997,
          "velocity": 0.1968503937007874
        },
        {
          "duration": 0.08307074166663142,
          "durationTicks": 116,
          "midi": 41,
          "name": "F2",
          "ticks": 367200,
          "time": 271.498211125,
          "velocity": 0.4094488188976378
        },
        {
          "duration": 0.16900599166666552,
          "durationTicks": 236,
          "midi": 45,
          "name": "A2",
          "ticks": 367680,
          "time": 271.841952125,
          "velocity": 0.4566929133858268
        },
        {
          "duration": 0.08307074166668826,
          "durationTicks": 116,
          "midi": 48,
          "name": "C3",
          "ticks": 367920,
          "time": 272.013822625,
          "velocity": 0.48031496062992124
        },
        {
          "duration": 0.16900599166666552,
          "durationTicks": 236,
          "midi": 52,
          "name": "E3",
          "ticks": 368400,
          "time": 272.357563625,
          "velocity": 0.5275590551181102
        },
        {
          "duration": 0.08307074166668826,
          "durationTicks": 116,
          "midi": 53,
          "name": "F3",
          "ticks": 368640,
          "time": 272.52943412499997,
          "velocity": 0.4881889763779528
        },
        {
          "duration": 0.16900599166666552,
          "durationTicks": 236,
          "midi": 54,
          "name": "F#3",
          "ticks": 369120,
          "time": 272.873175125,
          "velocity": 0.2440944881889764
        },
        {
          "duration": 0.08307074166663142,
          "durationTicks": 116,
          "midi": 55,
          "name": "G3",
          "ticks": 369360,
          "time": 273.045045625,
          "velocity": 0.23622047244094488
        },
        {
          "duration": 0.16900599166672237,
          "durationTicks": 236,
          "midi": 53,
          "name": "F3",
          "ticks": 369840,
          "time": 273.38878662499997,
          "velocity": 0.2204724409448819
        },
        {
          "duration": 0.08307074166668826,
          "durationTicks": 116,
          "midi": 51,
          "name": "D#3",
          "ticks": 370080,
          "time": 273.560657125,
          "velocity": 0.2125984251968504
        },
        {
          "duration": 0.16900599166666552,
          "durationTicks": 236,
          "midi": 50,
          "name": "D3",
          "ticks": 370560,
          "time": 273.904398125,
          "velocity": 0.1968503937007874
        },
        {
          "duration": 0.08307074166663142,
          "durationTicks": 116,
          "midi": 48,
          "name": "C3",
          "ticks": 370800,
          "time": 274.076268625,
          "velocity": 0.18110236220472442
        },
        {
          "duration": 0.08307074166668826,
          "durationTicks": 116,
          "midi": 62,
          "name": "D4",
          "ticks": 403440,
          "time": 297.45065662499997,
          "velocity": 0.3464566929133858
        },
        {
          "duration": 0.08307074166668826,
          "durationTicks": 116,
          "midi": 62,
          "name": "D4",
          "ticks": 403680,
          "time": 297.622527125,
          "velocity": 0.2677165354330709
        },
        {
          "duration": 0.5127469916666882,
          "durationTicks": 716,
          "midi": 62,
          "name": "D4",
          "ticks": 403920,
          "time": 297.794397625,
          "velocity": 0.2755905511811024
        },
        {
          "duration": 0.08307074166668826,
          "durationTicks": 116,
          "midi": 63,
          "name": "D#4",
          "ticks": 404880,
          "time": 298.481879625,
          "velocity": 0.3700787401574803
        },
        {
          "duration": 0.08307074166668826,
          "durationTicks": 116,
          "midi": 63,
          "name": "D#4",
          "ticks": 405120,
          "time": 298.653750125,
          "velocity": 0.29133858267716534
        },
        {
          "duration": 0.5127469916666882,
          "durationTicks": 716,
          "midi": 63,
          "name": "D#4",
          "ticks": 405360,
          "time": 298.825620625,
          "velocity": 0.2992125984251969
        },
        {
          "duration": 0.08307074166668826,
          "durationTicks": 116,
          "midi": 65,
          "name": "F4",
          "ticks": 406320,
          "time": 299.513102625,
          "velocity": 0.3937007874015748
        },
        {
          "duration": 0.08307074166668826,
          "durationTicks": 116,
          "midi": 65,
          "name": "F4",
          "ticks": 406560,
          "time": 299.684973125,
          "velocity": 0.31496062992125984
        },
        {
          "duration": 0.5127469916666314,
          "durationTicks": 716,
          "midi": 65,
          "name": "F4",
          "ticks": 406800,
          "time": 299.856843625,
          "velocity": 0.3228346456692913
        },
        {
          "duration": 0.08307074166668826,
          "durationTicks": 116,
          "midi": 67,
          "name": "G4",
          "ticks": 407760,
          "time": 300.544325625,
          "velocity": 0.41732283464566927
        },
        {
          "duration": 0.08307074166663142,
          "durationTicks": 116,
          "midi": 67,
          "name": "G4",
          "ticks": 408000,
          "time": 300.716196125,
          "velocity": 0.33858267716535434
        },
        {
          "duration": 0.5127469916666882,
          "durationTicks": 716,
          "midi": 67,
          "name": "G4",
          "ticks": 408240,
          "time": 300.88806662499996,
          "velocity": 0.3464566929133858
        },
        {
          "duration": 0.08307074166663142,
          "durationTicks": 116,
          "midi": 67,
          "name": "G4",
          "ticks": 409200,
          "time": 301.575548625,
          "velocity": 0.4330708661417323
        },
        {
          "duration": 0.08307074166668826,
          "durationTicks": 116,
          "midi": 67,
          "name": "G4",
          "ticks": 409440,
          "time": 301.74741912499996,
          "velocity": 0.3700787401574803
        },
        {
          "duration": 0.08307074166668826,
          "durationTicks": 116,
          "midi": 67,
          "name": "G4",
          "ticks": 409920,
          "time": 302.091160125,
          "velocity": 0.48031496062992124
        },
        {
          "duration": 0.08307074166668826,
          "durationTicks": 116,
          "midi": 67,
          "name": "G4",
          "ticks": 410160,
          "time": 302.263030625,
          "velocity": 0.49606299212598426
        },
        {
          "duration": 0.08307074166668826,
          "durationTicks": 116,
          "midi": 65,
          "name": "F4",
          "ticks": 410640,
          "time": 302.60677162499996,
          "velocity": 0.5275590551181102
        },
        {
          "duration": 0.08307074166668826,
          "durationTicks": 116,
          "midi": 65,
          "name": "F4",
          "ticks": 410880,
          "time": 302.778642125,
          "velocity": 0.4645669291338583
        },
        {
          "duration": 0.08307074166663142,
          "durationTicks": 116,
          "midi": 65,
          "name": "F4",
          "ticks": 411360,
          "time": 303.122383125,
          "velocity": 0.5748031496062992
        },
        {
          "duration": 0.08307074166668826,
          "durationTicks": 116,
          "midi": 65,
          "name": "F4",
          "ticks": 411600,
          "time": 303.294253625,
          "velocity": 0.5196850393700787
        },
        {
          "duration": 0.6846174916666996,
          "durationTicks": 956,
          "midi": 67,
          "name": "G4",
          "ticks": 411840,
          "time": 303.46612412499996,
          "velocity": 0.5590551181102362
        },
        {
          "duration": 0.11171582499997612,
          "durationTicks": 156,
          "midi": 63,
          "name": "D#4",
          "ticks": 412800,
          "time": 304.153606125,
          "velocity": 0.5905511811023622
        },
        {
          "duration": 0.11171582500003296,
          "durationTicks": 156,
          "midi": 65,
          "name": "F4",
          "ticks": 413040,
          "time": 304.32547662499996,
          "velocity": 0.5984251968503937
        },
        {
          "duration": 0.6846174916666996,
          "durationTicks": 956,
          "midi": 67,
          "name": "G4",
          "ticks": 413280,
          "time": 304.497347125,
          "velocity": 0.6141732283464567
        },
        {
          "duration": 0.11171582500003296,
          "durationTicks": 156,
          "midi": 63,
          "name": "D#4",
          "ticks": 414240,
          "time": 305.18482912499996,
          "velocity": 0.6535433070866141
        },
        {
          "duration": 0.11171582500003296,
          "durationTicks": 156,
          "midi": 65,
          "name": "F4",
          "ticks": 414480,
          "time": 305.356699625,
          "velocity": 0.6614173228346457
        },
        {
          "duration": 0.11171582500003296,
          "durationTicks": 156,
          "midi": 67,
          "name": "G4",
          "ticks": 414720,
          "time": 305.528570125,
          "velocity": 0.6692913385826772
        },
        {
          "duration": 0.11171582499997612,
          "durationTicks": 156,
          "midi": 67,
          "name": "G4",
          "ticks": 414960,
          "time": 305.700440625,
          "velocity": 0.6692913385826772
        },
        {
          "duration": 0.11171582499997612,
          "durationTicks": 156,
          "midi": 65,
          "name": "F4",
          "ticks": 415200,
          "time": 305.872311125,
          "velocity": 0.6692913385826772
        },
        {
          "duration": 0.12177619999999933,
          "durationTicks": 156,
          "midi": 63,
          "name": "D#4",
          "ticks": 415440,
          "time": 306.04418162499996,
          "velocity": 0.6692913385826772
        },
        {
          "duration": 0.12177619999999933,
          "durationTicks": 156,
          "midi": 63,
          "name": "D#4",
          "ticks": 415680,
          "time": 306.23152962499995,
          "velocity": 0.6692913385826772
        },
        {
          "duration": 0.12177620000005618,
          "durationTicks": 156,
          "midi": 65,
          "name": "F4",
          "ticks": 415920,
          "time": 306.41887762499994,
          "velocity": 0.6692913385826772
        },
        {
          "duration": 0.12938769999999522,
          "durationTicks": 156,
          "midi": 67,
          "name": "G4",
          "ticks": 416160,
          "time": 306.606225625,
          "velocity": 0.6692913385826772
        },
        {
          "duration": 0.13801417500002344,
          "durationTicks": 156,
          "midi": 67,
          "name": "G4",
          "ticks": 416400,
          "time": 306.80528362499996,
          "velocity": 0.6692913385826772
        },
        {
          "duration": 0.14787304999998696,
          "durationTicks": 156,
          "midi": 65,
          "name": "F4",
          "ticks": 416640,
          "time": 307.01761312499997,
          "velocity": 0.6692913385826772
        },
        {
          "duration": 0.15924869999997782,
          "durationTicks": 156,
          "midi": 63,
          "name": "D#4",
          "ticks": 416880,
          "time": 307.245110125,
          "velocity": 0.6692913385826772
        },
        {
          "duration": 0.1725207250000267,
          "durationTicks": 156,
          "midi": 65,
          "name": "F4",
          "ticks": 417120,
          "time": 307.490108125,
          "velocity": 0.6692913385826772
        },
        {
          "duration": 0.20702825000000757,
          "durationTicks": 156,
          "midi": 67,
          "name": "G4",
          "ticks": 417360,
          "time": 307.755524625,
          "velocity": 0.6692913385826772
        },
        {
          "duration": 0.902472199999977,
          "durationTicks": 476,
          "midi": 65,
          "name": "F4",
          "ticks": 417600,
          "time": 308.07402962500004,
          "velocity": 0.6692913385826772
        },
        {
          "duration": 4.4972177249999845,
          "durationTicks": 6476,
          "midi": 53,
          "name": "F3",
          "ticks": 480960,
          "time": 360.6991006250001,
          "velocity": 0.18110236220472442
        },
        {
          "duration": 0.49722172500003126,
          "durationTicks": 716,
          "midi": 54,
          "name": "F#3",
          "ticks": 487440,
          "time": 365.19909612500004,
          "velocity": 0.33858267716535434
        },
        {
          "duration": 0.6638882250000506,
          "durationTicks": 956,
          "midi": 55,
          "name": "G3",
          "ticks": 488160,
          "time": 365.69909562500004,
          "velocity": 0.25984251968503935
        },
        {
          "duration": 0.49722172500003126,
          "durationTicks": 716,
          "midi": 67,
          "name": "G4",
          "ticks": 490320,
          "time": 367.19909412500004,
          "velocity": 0.18110236220472442
        },
        {
          "duration": 0.16388872499999252,
          "durationTicks": 236,
          "midi": 65,
          "name": "F4",
          "ticks": 491040,
          "time": 367.69909362500005,
          "velocity": 0.18110236220472442
        },
        {
          "duration": 0.49722172500003126,
          "durationTicks": 716,
          "midi": 67,
          "name": "G4",
          "ticks": 493200,
          "time": 369.19909212500005,
          "velocity": 0.18110236220472442
        },
        {
          "duration": 0.16388872499999252,
          "durationTicks": 236,
          "midi": 65,
          "name": "F4",
          "ticks": 493920,
          "time": 369.69909162500005,
          "velocity": 0.18110236220472442
        },
        {
          "duration": 0.49722172500003126,
          "durationTicks": 716,
          "midi": 67,
          "name": "G4",
          "ticks": 496080,
          "time": 371.19909012500005,
          "velocity": 0.18110236220472442
        },
        {
          "duration": 0.16388872499999252,
          "durationTicks": 236,
          "midi": 65,
          "name": "F4",
          "ticks": 496800,
          "time": 371.69908962500006,
          "velocity": 0.18110236220472442
        },
        {
          "duration": 0.16388872499999252,
          "durationTicks": 236,
          "midi": 58,
          "name": "A#3",
          "ticks": 503280,
          "time": 376.19908512500007,
          "velocity": 0.18110236220472442
        },
        {
          "duration": 0.16388872499999252,
          "durationTicks": 236,
          "midi": 58,
          "name": "A#3",
          "ticks": 504720,
          "time": 377.19908412500007,
          "velocity": 0.18110236220472442
        },
        {
          "duration": 0.16388872499999252,
          "durationTicks": 236,
          "midi": 58,
          "name": "A#3",
          "ticks": 508320,
          "time": 379.6990816250001,
          "velocity": 0.18110236220472442
        },
        {
          "duration": 0.16388872499999252,
          "durationTicks": 236,
          "midi": 58,
          "name": "A#3",
          "ticks": 509040,
          "time": 380.1990811250001,
          "velocity": 0.18110236220472442
        },
        {
          "duration": 0.5805549749999841,
          "durationTicks": 836,
          "midi": 58,
          "name": "A#3",
          "ticks": 509760,
          "time": 380.6990806250001,
          "velocity": 0.18110236220472442
        },
        {
          "duration": 0.16388872499999252,
          "durationTicks": 236,
          "midi": 53,
          "name": "F3",
          "ticks": 511920,
          "time": 382.1990791250001,
          "velocity": 0.18110236220472442
        },
        {
          "duration": 0.6361104750000095,
          "durationTicks": 916,
          "midi": 58,
          "name": "A#3",
          "ticks": 512640,
          "time": 382.6990786250001,
          "velocity": 0.18110236220472442
        },
        {
          "duration": 0.08055547499998283,
          "durationTicks": 116,
          "midi": 63,
          "name": "D#4",
          "ticks": 514080,
          "time": 383.6990776250001,
          "velocity": 0.5039370078740157
        },
        {
          "duration": 0.08055547500003968,
          "durationTicks": 116,
          "midi": 63,
          "name": "D#4",
          "ticks": 514320,
          "time": 383.86574412500005,
          "velocity": 0.5039370078740157
        },
        {
          "duration": 0.08055547499998283,
          "durationTicks": 116,
          "midi": 63,
          "name": "D#4",
          "ticks": 514560,
          "time": 384.03241062500007,
          "velocity": 0.5039370078740157
        },
        {
          "duration": 0.08055547499998283,
          "durationTicks": 116,
          "midi": 62,
          "name": "D4",
          "ticks": 514800,
          "time": 384.1990771250001,
          "velocity": 0.5039370078740157
        },
        {
          "duration": 0.08055547499998283,
          "durationTicks": 116,
          "midi": 62,
          "name": "D4",
          "ticks": 515040,
          "time": 384.36574362500005,
          "velocity": 0.5039370078740157
        },
        {
          "duration": 0.08055547499998283,
          "durationTicks": 116,
          "midi": 62,
          "name": "D4",
          "ticks": 515280,
          "time": 384.53241012500007,
          "velocity": 0.5039370078740157
        },
        {
          "duration": 0.08055547499998283,
          "durationTicks": 116,
          "midi": 63,
          "name": "D#4",
          "ticks": 515520,
          "time": 384.6990766250001,
          "velocity": 0.5039370078740157
        },
        {
          "duration": 0.08055547500003968,
          "durationTicks": 116,
          "midi": 63,
          "name": "D#4",
          "ticks": 515760,
          "time": 384.86574312500005,
          "velocity": 0.5039370078740157
        },
        {
          "duration": 0.08055547499998283,
          "durationTicks": 116,
          "midi": 63,
          "name": "D#4",
          "ticks": 516000,
          "time": 385.03240962500007,
          "velocity": 0.5039370078740157
        },
        {
          "duration": 0.16388872500004936,
          "durationTicks": 236,
          "midi": 63,
          "name": "D#4",
          "ticks": 516240,
          "time": 385.19907612500003,
          "velocity": 0.5039370078740157
        },
        {
          "duration": 0.08055547499998283,
          "durationTicks": 116,
          "midi": 65,
          "name": "F4",
          "ticks": 516960,
          "time": 385.6990756250001,
          "velocity": 0.2677165354330709
        },
        {
          "duration": 0.08055547500003968,
          "durationTicks": 116,
          "midi": 65,
          "name": "F4",
          "ticks": 517680,
          "time": 386.19907512500004,
          "velocity": 0.2677165354330709
        },
        {
          "duration": 0.4972217249999744,
          "durationTicks": 716,
          "midi": 69,
          "name": "A4",
          "ticks": 518400,
          "time": 386.6990746250001,
          "velocity": 0.2677165354330709
        },
        {
          "duration": 0.16388872499999252,
          "durationTicks": 236,
          "midi": 70,
          "name": "A#4",
          "ticks": 519120,
          "time": 387.19907412500004,
          "velocity": 0.2283464566929134
        },
        {
          "duration": 0.08055547500003968,
          "durationTicks": 116,
          "midi": 63,
          "name": "D#4",
          "ticks": 522720,
          "time": 389.69907162500004,
          "velocity": 0.5039370078740157
        },
        {
          "duration": 0.08055547499998283,
          "durationTicks": 116,
          "midi": 63,
          "name": "D#4",
          "ticks": 522960,
          "time": 389.86573812500006,
          "velocity": 0.5039370078740157
        },
        {
          "duration": 0.08055547499998283,
          "durationTicks": 116,
          "midi": 63,
          "name": "D#4",
          "ticks": 523200,
          "time": 390.0324046250001,
          "velocity": 0.5039370078740157
        },
        {
          "duration": 0.08055547500003968,
          "durationTicks": 116,
          "midi": 62,
          "name": "D4",
          "ticks": 523440,
          "time": 390.19907112500005,
          "velocity": 0.5039370078740157
        },
        {
          "duration": 0.08055547499998283,
          "durationTicks": 116,
          "midi": 62,
          "name": "D4",
          "ticks": 523680,
          "time": 390.36573762500007,
          "velocity": 0.5039370078740157
        },
        {
          "duration": 0.08055547499998283,
          "durationTicks": 116,
          "midi": 62,
          "name": "D4",
          "ticks": 523920,
          "time": 390.5324041250001,
          "velocity": 0.5039370078740157
        },
        {
          "duration": 0.8583324749999974,
          "durationTicks": 1236,
          "midi": 63,
          "name": "D#4",
          "ticks": 524160,
          "time": 390.69907062500005,
          "velocity": 0.4330708661417323
        },
        {
          "duration": 0.08055547499998283,
          "durationTicks": 116,
          "midi": 70,
          "name": "A#4",
          "ticks": 529920,
          "time": 394.69906662500006,
          "velocity": 0.8582677165354331
        },
        {
          "duration": 0.08055547499998283,
          "durationTicks": 116,
          "midi": 69,
          "name": "A4",
          "ticks": 530160,
          "time": 394.8657331250001,
          "velocity": 0.7716535433070866
        },
        {
          "duration": 0.08055547500003968,
          "durationTicks": 116,
          "midi": 67,
          "name": "G4",
          "ticks": 530400,
          "time": 395.03239962500004,
          "velocity": 0.7637795275590551
        },
        {
          "duration": 0.08055547499998283,
          "durationTicks": 116,
          "midi": 66,
          "name": "F#4",
          "ticks": 530640,
          "time": 395.19906612500006,
          "velocity": 0.7559055118110236
        },
        {
          "duration": 0.08055547499998283,
          "durationTicks": 116,
          "midi": 67,
          "name": "G4",
          "ticks": 530880,
          "time": 395.3657326250001,
          "velocity": 0.7480314960629921
        },
        {
          "duration": 0.08055547500003968,
          "durationTicks": 116,
          "midi": 64,
          "name": "E4",
          "ticks": 531120,
          "time": 395.53239912500004,
          "velocity": 0.7401574803149606
        },
        {
          "duration": 0.08055547499998283,
          "durationTicks": 116,
          "midi": 65,
          "name": "F4",
          "ticks": 531360,
          "time": 395.69906562500006,
          "velocity": 0.7322834645669292
        },
        {
          "duration": 0.08055547499998283,
          "durationTicks": 116,
          "midi": 62,
          "name": "D4",
          "ticks": 531600,
          "time": 395.8657321250001,
          "velocity": 0.7244094488188977
        },
        {
          "duration": 0.08055547500003968,
          "durationTicks": 116,
          "midi": 63,
          "name": "D#4",
          "ticks": 531840,
          "time": 396.03239862500004,
          "velocity": 0.7165354330708661
        },
        {
          "duration": 0.08055547499998283,
          "durationTicks": 116,
          "midi": 61,
          "name": "C#4",
          "ticks": 532080,
          "time": 396.19906512500006,
          "velocity": 0.7086614173228346
        },
        {
          "duration": 0.08055547499998283,
          "durationTicks": 116,
          "midi": 62,
          "name": "D4",
          "ticks": 532320,
          "time": 396.3657316250001,
          "velocity": 0.7007874015748031
        },
        {
          "duration": 0.08055547500003968,
          "durationTicks": 116,
          "midi": 58,
          "name": "A#3",
          "ticks": 532560,
          "time": 396.53239812500004,
          "velocity": 0.6929133858267716
        },
        {
          "duration": 0.10833322499996711,
          "durationTicks": 156,
          "midi": 63,
          "name": "D#4",
          "ticks": 532800,
          "time": 396.69906462500006,
          "velocity": 0.6929133858267716
        },
        {
          "duration": 0.10833322499996711,
          "durationTicks": 156,
          "midi": 63,
          "name": "D#4",
          "ticks": 533040,
          "time": 396.8657311250001,
          "velocity": 0.6929133858267716
        },
        {
          "duration": 0.10833322500002396,
          "durationTicks": 156,
          "midi": 63,
          "name": "D#4",
          "ticks": 533280,
          "time": 397.03239762500004,
          "velocity": 0.6929133858267716
        },
        {
          "duration": 0.10833322500002396,
          "durationTicks": 156,
          "midi": 63,
          "name": "D#4",
          "ticks": 533520,
          "time": 397.19906412500006,
          "velocity": 0.6929133858267716
        },
        {
          "duration": 0.10833322499996711,
          "durationTicks": 156,
          "midi": 62,
          "name": "D4",
          "ticks": 533760,
          "time": 397.3657306250001,
          "velocity": 0.6929133858267716
        },
        {
          "duration": 0.10833322500002396,
          "durationTicks": 156,
          "midi": 60,
          "name": "C4",
          "ticks": 534000,
          "time": 397.53239712500005,
          "velocity": 0.6929133858267716
        },
        {
          "duration": 0.10833322499996711,
          "durationTicks": 156,
          "midi": 65,
          "name": "F4",
          "ticks": 534240,
          "time": 397.69906362500006,
          "velocity": 0.6929133858267716
        },
        {
          "duration": 0.10833322499996711,
          "durationTicks": 156,
          "midi": 65,
          "name": "F4",
          "ticks": 534480,
          "time": 397.8657301250001,
          "velocity": 0.6929133858267716
        },
        {
          "duration": 0.10833322500002396,
          "durationTicks": 156,
          "midi": 65,
          "name": "F4",
          "ticks": 534720,
          "time": 398.03239662500005,
          "velocity": 0.6929133858267716
        },
        {
          "duration": 0.10833322500002396,
          "durationTicks": 156,
          "midi": 65,
          "name": "F4",
          "ticks": 534960,
          "time": 398.19906312500007,
          "velocity": 0.6929133858267716
        },
        {
          "duration": 0.10833322499996711,
          "durationTicks": 156,
          "midi": 65,
          "name": "F4",
          "ticks": 535200,
          "time": 398.3657296250001,
          "velocity": 0.6929133858267716
        },
        {
          "duration": 0.10833322500002396,
          "durationTicks": 156,
          "midi": 65,
          "name": "F4",
          "ticks": 535440,
          "time": 398.53239612500005,
          "velocity": 0.6929133858267716
        },
        {
          "duration": 0.08055547499998283,
          "durationTicks": 116,
          "midi": 70,
          "name": "A#4",
          "ticks": 535680,
          "time": 398.69906262500007,
          "velocity": 0.8582677165354331
        },
        {
          "duration": 0.08055547499998283,
          "durationTicks": 116,
          "midi": 69,
          "name": "A4",
          "ticks": 535920,
          "time": 398.8657291250001,
          "velocity": 0.7716535433070866
        },
        {
          "duration": 0.08055547500003968,
          "durationTicks": 116,
          "midi": 67,
          "name": "G4",
          "ticks": 536160,
          "time": 399.03239562500005,
          "velocity": 0.7637795275590551
        },
        {
          "duration": 0.08055547499998283,
          "durationTicks": 116,
          "midi": 66,
          "name": "F#4",
          "ticks": 536400,
          "time": 399.19906212500007,
          "velocity": 0.7559055118110236
        },
        {
          "duration": 0.08055547499998283,
          "durationTicks": 116,
          "midi": 67,
          "name": "G4",
          "ticks": 536640,
          "time": 399.3657286250001,
          "velocity": 0.7480314960629921
        },
        {
          "duration": 0.08055547500003968,
          "durationTicks": 116,
          "midi": 64,
          "name": "E4",
          "ticks": 536880,
          "time": 399.53239512500005,
          "velocity": 0.7401574803149606
        },
        {
          "duration": 0.08055547499998283,
          "durationTicks": 116,
          "midi": 65,
          "name": "F4",
          "ticks": 537120,
          "time": 399.69906162500007,
          "velocity": 0.7322834645669292
        },
        {
          "duration": 0.08055547500003968,
          "durationTicks": 116,
          "midi": 62,
          "name": "D4",
          "ticks": 537360,
          "time": 399.86572812500003,
          "velocity": 0.7244094488188977
        },
        {
          "duration": 0.08055547499998283,
          "durationTicks": 116,
          "midi": 63,
          "name": "D#4",
          "ticks": 537600,
          "time": 400.03239462500005,
          "velocity": 0.7165354330708661
        },
        {
          "duration": 0.08055547499998283,
          "durationTicks": 116,
          "midi": 61,
          "name": "C#4",
          "ticks": 537840,
          "time": 400.19906112500007,
          "velocity": 0.7086614173228346
        },
        {
          "duration": 0.08055547499998283,
          "durationTicks": 116,
          "midi": 62,
          "name": "D4",
          "ticks": 538080,
          "time": 400.3657276250001,
          "velocity": 0.7007874015748031
        },
        {
          "duration": 0.08055547500003968,
          "durationTicks": 116,
          "midi": 58,
          "name": "A#3",
          "ticks": 538320,
          "time": 400.53239412500005,
          "velocity": 0.6929133858267716
        },
        {
          "duration": 0.10833322499996711,
          "durationTicks": 156,
          "midi": 63,
          "name": "D#4",
          "ticks": 538560,
          "time": 400.6990606250001,
          "velocity": 0.6929133858267716
        },
        {
          "duration": 0.10833322500002396,
          "durationTicks": 156,
          "midi": 63,
          "name": "D#4",
          "ticks": 538800,
          "time": 400.86572712500003,
          "velocity": 0.6929133858267716
        },
        {
          "duration": 0.10833322500002396,
          "durationTicks": 156,
          "midi": 63,
          "name": "D#4",
          "ticks": 539040,
          "time": 401.03239362500005,
          "velocity": 0.6929133858267716
        },
        {
          "duration": 0.10833322499996711,
          "durationTicks": 156,
          "midi": 63,
          "name": "D#4",
          "ticks": 539280,
          "time": 401.1990601250001,
          "velocity": 0.6929133858267716
        },
        {
          "duration": 0.10833322499996711,
          "durationTicks": 156,
          "midi": 62,
          "name": "D4",
          "ticks": 539520,
          "time": 401.3657266250001,
          "velocity": 0.6929133858267716
        },
        {
          "duration": 0.10833322500002396,
          "durationTicks": 156,
          "midi": 60,
          "name": "C4",
          "ticks": 539760,
          "time": 401.53239312500006,
          "velocity": 0.6929133858267716
        },
        {
          "duration": 0.10833322499996711,
          "durationTicks": 156,
          "midi": 65,
          "name": "F4",
          "ticks": 540000,
          "time": 401.6990596250001,
          "velocity": 0.6929133858267716
        },
        {
          "duration": 0.10833322500002396,
          "durationTicks": 156,
          "midi": 65,
          "name": "F4",
          "ticks": 540240,
          "time": 401.86572612500004,
          "velocity": 0.6929133858267716
        },
        {
          "duration": 0.10833322500002396,
          "durationTicks": 156,
          "midi": 65,
          "name": "F4",
          "ticks": 540480,
          "time": 402.03239262500006,
          "velocity": 0.6929133858267716
        },
        {
          "duration": 0.10833322499996711,
          "durationTicks": 156,
          "midi": 53,
          "name": "F3",
          "ticks": 540720,
          "time": 402.1990591250001,
          "velocity": 0.6929133858267716
        },
        {
          "duration": 0.10833322500002396,
          "durationTicks": 156,
          "midi": 53,
          "name": "F3",
          "ticks": 540960,
          "time": 402.36572562500004,
          "velocity": 0.6929133858267716
        },
        {
          "duration": 0.10833322500002396,
          "durationTicks": 156,
          "midi": 53,
          "name": "F3",
          "ticks": 541200,
          "time": 402.53239212500006,
          "velocity": 0.6929133858267716
        },
        {
          "duration": 0.1916664749999768,
          "durationTicks": 276,
          "midi": 58,
          "name": "A#3",
          "ticks": 541440,
          "time": 402.6990586250001,
          "velocity": 0.5748031496062992
        },
        {
          "duration": 0.9972212250000325,
          "durationTicks": 1436,
          "midi": 55,
          "name": "G3",
          "ticks": 557280,
          "time": 413.69904762500005,
          "velocity": 0.25196850393700787
        },
        {
          "duration": 0.08055547499998283,
          "durationTicks": 116,
          "midi": 55,
          "name": "G3",
          "ticks": 558960,
          "time": 414.86571312500007,
          "velocity": 0.23622047244094488
        },
        {
          "duration": 0.08055547499998283,
          "durationTicks": 116,
          "midi": 55,
          "name": "G3",
          "ticks": 559200,
          "time": 415.0323796250001,
          "velocity": 0.23622047244094488
        },
        {
          "duration": 0.08055547500003968,
          "durationTicks": 116,
          "midi": 55,
          "name": "G3",
          "ticks": 559440,
          "time": 415.19904612500005,
          "velocity": 0.23622047244094488
        },
        {
          "duration": 0.08055547499998283,
          "durationTicks": 116,
          "midi": 55,
          "name": "G3",
          "ticks": 559680,
          "time": 415.36571262500007,
          "velocity": 0.25196850393700787
        },
        {
          "duration": 0.08055547500003968,
          "durationTicks": 116,
          "midi": 55,
          "name": "G3",
          "ticks": 559920,
          "time": 415.53237912500003,
          "velocity": 0.25196850393700787
        },
        {
          "duration": 0.9972212250000325,
          "durationTicks": 1436,
          "midi": 55,
          "name": "G3",
          "ticks": 560160,
          "time": 415.69904562500005,
          "velocity": 0.25984251968503935
        },
        {
          "duration": 0.08055547499998283,
          "durationTicks": 116,
          "midi": 55,
          "name": "G3",
          "ticks": 561840,
          "time": 416.8657111250001,
          "velocity": 0.2755905511811024
        },
        {
          "duration": 0.08055547499998283,
          "durationTicks": 116,
          "midi": 55,
          "name": "G3",
          "ticks": 562080,
          "time": 417.0323776250001,
          "velocity": 0.2755905511811024
        },
        {
          "duration": 0.08055547500003968,
          "durationTicks": 116,
          "midi": 55,
          "name": "G3",
          "ticks": 562320,
          "time": 417.19904412500006,
          "velocity": 0.2755905511811024
        },
        {
          "duration": 0.08055547499998283,
          "durationTicks": 116,
          "midi": 55,
          "name": "G3",
          "ticks": 562560,
          "time": 417.3657106250001,
          "velocity": 0.28346456692913385
        },
        {
          "duration": 0.08055547500003968,
          "durationTicks": 116,
          "midi": 55,
          "name": "G3",
          "ticks": 562800,
          "time": 417.53237712500004,
          "velocity": 0.28346456692913385
        },
        {
          "duration": 0.16388872499999252,
          "durationTicks": 236,
          "midi": 53,
          "name": "F3",
          "ticks": 563040,
          "time": 417.69904362500006,
          "velocity": 0.29133858267716534
        },
        {
          "duration": 0.08055547499998283,
          "durationTicks": 116,
          "midi": 53,
          "name": "F3",
          "ticks": 570240,
          "time": 422.69903862500007,
          "velocity": 0.2755905511811024
        },
        {
          "duration": 0.16388872499999252,
          "durationTicks": 236,
          "midi": 57,
          "name": "A3",
          "ticks": 570720,
          "time": 423.03237162500005,
          "velocity": 0.2755905511811024
        },
        {
          "duration": 0.08055547499998283,
          "durationTicks": 116,
          "midi": 60,
          "name": "C4",
          "ticks": 570960,
          "time": 423.1990381250001,
          "velocity": 0.2755905511811024
        },
        {
          "duration": 0.16388872499999252,
          "durationTicks": 236,
          "midi": 65,
          "name": "F4",
          "ticks": 571440,
          "time": 423.53237112500005,
          "velocity": 0.23622047244094488
        },
        {
          "duration": 0.2472219750000022,
          "durationTicks": 356,
          "midi": 58,
          "name": "A#3",
          "ticks": 571680,
          "time": 423.6990376250001,
          "velocity": 0.2283464566929134
        },
        {
          "duration": 0.16388872499999252,
          "durationTicks": 236,
          "midi": 53,
          "name": "F3",
          "ticks": 573120,
          "time": 424.6990366250001,
          "velocity": 0.2755905511811024
        },
        {
          "duration": 0.16388872499999252,
          "durationTicks": 236,
          "midi": 57,
          "name": "A3",
          "ticks": 573600,
          "time": 425.03236962500006,
          "velocity": 0.30708661417322836
        },
        {
          "duration": 0.08055547499998283,
          "durationTicks": 116,
          "midi": 60,
          "name": "C4",
          "ticks": 573840,
          "time": 425.1990361250001,
          "velocity": 0.3228346456692913
        },
        {
          "duration": 0.16388872499999252,
          "durationTicks": 236,
          "midi": 65,
          "name": "F4",
          "ticks": 574320,
          "time": 425.53236912500006,
          "velocity": 0.3543307086614173
        },
        {
          "duration": 0.1361109749999514,
          "durationTicks": 196,
          "midi": 58,
          "name": "A#3",
          "ticks": 574560,
          "time": 425.6990356250001,
          "velocity": 0.1889763779527559
        },
        {
          "duration": 0.08055547499998283,
          "durationTicks": 116,
          "midi": 53,
          "name": "F3",
          "ticks": 574800,
          "time": 425.8657021250001,
          "velocity": 0.1889763779527559
        },
        {
          "duration": 0.08055547500003968,
          "durationTicks": 116,
          "midi": 53,
          "name": "F3",
          "ticks": 575040,
          "time": 426.03236862500006,
          "velocity": 0.1889763779527559
        },
        {
          "duration": 0.08055547499998283,
          "durationTicks": 116,
          "midi": 53,
          "name": "F3",
          "ticks": 575280,
          "time": 426.1990351250001,
          "velocity": 0.1968503937007874
        },
        {
          "duration": 0.08055547500003968,
          "durationTicks": 116,
          "midi": 53,
          "name": "F3",
          "ticks": 575520,
          "time": 426.36570162500004,
          "velocity": 0.1968503937007874
        },
        {
          "duration": 0.08055547499998283,
          "durationTicks": 116,
          "midi": 53,
          "name": "F3",
          "ticks": 575760,
          "time": 426.53236812500006,
          "velocity": 0.2047244094488189
        },
        {
          "duration": 0.08055547500003968,
          "durationTicks": 116,
          "midi": 53,
          "name": "F3",
          "ticks": 576240,
          "time": 426.86570112500004,
          "velocity": 0.2047244094488189
        },
        {
          "duration": 0.08055547499998283,
          "durationTicks": 116,
          "midi": 53,
          "name": "F3",
          "ticks": 576480,
          "time": 427.03236762500006,
          "velocity": 0.2125984251968504
        },
        {
          "duration": 0.08055547499998283,
          "durationTicks": 116,
          "midi": 53,
          "name": "F3",
          "ticks": 576720,
          "time": 427.1990341250001,
          "velocity": 0.2125984251968504
        },
        {
          "duration": 0.08055547500003968,
          "durationTicks": 116,
          "midi": 53,
          "name": "F3",
          "ticks": 576960,
          "time": 427.36570062500004,
          "velocity": 0.2204724409448819
        },
        {
          "duration": 0.08055547499998283,
          "durationTicks": 116,
          "midi": 53,
          "name": "F3",
          "ticks": 577200,
          "time": 427.53236712500006,
          "velocity": 0.2204724409448819
        },
        {
          "duration": 0.08055547500003968,
          "durationTicks": 116,
          "midi": 65,
          "name": "F4",
          "ticks": 577680,
          "time": 427.86570012500005,
          "velocity": 0.18110236220472442
        },
        {
          "duration": 0.08055547499998283,
          "durationTicks": 116,
          "midi": 65,
          "name": "F4",
          "ticks": 577920,
          "time": 428.03236662500007,
          "velocity": 0.18110236220472442
        },
        {
          "duration": 0.08055547500003968,
          "durationTicks": 116,
          "midi": 65,
          "name": "F4",
          "ticks": 578160,
          "time": 428.199033125,
          "velocity": 0.1889763779527559
        },
        {
          "duration": 0.08055547499998283,
          "durationTicks": 116,
          "midi": 65,
          "name": "F4",
          "ticks": 578400,
          "time": 428.36569962500005,
          "velocity": 0.1889763779527559
        },
        {
          "duration": 0.08055547499998283,
          "durationTicks": 116,
          "midi": 65,
          "name": "F4",
          "ticks": 578640,
          "time": 428.53236612500007,
          "velocity": 0.1889763779527559
        },
        {
          "duration": 0.08055547500003968,
          "durationTicks": 116,
          "midi": 65,
          "name": "F4",
          "ticks": 579120,
          "time": 428.86569912500005,
          "velocity": 0.1889763779527559
        },
        {
          "duration": 0.08055547499998283,
          "durationTicks": 116,
          "midi": 65,
          "name": "F4",
          "ticks": 579360,
          "time": 429.03236562500007,
          "velocity": 0.1968503937007874
        },
        {
          "duration": 0.08055547500003968,
          "durationTicks": 116,
          "midi": 65,
          "name": "F4",
          "ticks": 579600,
          "time": 429.19903212500003,
          "velocity": 0.1968503937007874
        },
        {
          "duration": 0.08055547499998283,
          "durationTicks": 116,
          "midi": 65,
          "name": "F4",
          "ticks": 579840,
          "time": 429.36569862500005,
          "velocity": 0.2047244094488189
        },
        {
          "duration": 0.08055547499998283,
          "durationTicks": 116,
          "midi": 65,
          "name": "F4",
          "ticks": 580080,
          "time": 429.53236512500007,
          "velocity": 0.2047244094488189
        },
        {
          "duration": 0.08055547499998283,
          "durationTicks": 116,
          "midi": 58,
          "name": "A#3",
          "ticks": 580320,
          "time": 429.6990316250001,
          "velocity": 0.5196850393700787
        },
        {
          "duration": 0.16388872499999252,
          "durationTicks": 236,
          "midi": 62,
          "name": "D4",
          "ticks": 580800,
          "time": 430.03236462500007,
          "velocity": 0.5196850393700787
        },
        {
          "duration": 0.08055547500003968,
          "durationTicks": 116,
          "midi": 65,
          "name": "F4",
          "ticks": 581040,
          "time": 430.19903112500003,
          "velocity": 0.5196850393700787
        },
        {
          "duration": 0.16388872499999252,
          "durationTicks": 236,
          "midi": 70,
          "name": "A#4",
          "ticks": 581520,
          "time": 430.5323641250001,
          "velocity": 0.5196850393700787
        },
        {
          "duration": 0.08055547499998283,
          "durationTicks": 116,
          "midi": 74,
          "name": "D5",
          "ticks": 581760,
          "time": 430.6990306250001,
          "velocity": 0.5984251968503937
        },
        {
          "duration": 0.08055547500003968,
          "durationTicks": 116,
          "midi": 74,
          "name": "D5",
          "ticks": 582000,
          "time": 430.86569712500005,
          "velocity": 0.5196850393700787
        },
        {
          "duration": 0.08055547499998283,
          "durationTicks": 116,
          "midi": 74,
          "name": "D5",
          "ticks": 582240,
          "time": 431.0323636250001,
          "velocity": 0.5196850393700787
        },
        {
          "duration": 0.08055547500003968,
          "durationTicks": 116,
          "midi": 74,
          "name": "D5",
          "ticks": 582480,
          "time": 431.19903012500004,
          "velocity": 0.5196850393700787
        },
        {
          "duration": 0.08055547499998283,
          "durationTicks": 116,
          "midi": 70,
          "name": "A#4",
          "ticks": 582720,
          "time": 431.36569662500006,
          "velocity": 0.5196850393700787
        },
        {
          "duration": 0.08055547499998283,
          "durationTicks": 116,
          "midi": 65,
          "name": "F4",
          "ticks": 582960,
          "time": 431.5323631250001,
          "velocity": 0.5196850393700787
        },
        {
          "duration": 0.08055547499998283,
          "durationTicks": 116,
          "midi": 77,
          "name": "F5",
          "ticks": 583200,
          "time": 431.6990296250001,
          "velocity": 0.5984251968503937
        },
        {
          "duration": 0.08055547500003968,
          "durationTicks": 116,
          "midi": 77,
          "name": "F5",
          "ticks": 583440,
          "time": 431.86569612500006,
          "velocity": 0.5196850393700787
        },
        {
          "duration": 0.08055547499998283,
          "durationTicks": 116,
          "midi": 77,
          "name": "F5",
          "ticks": 583680,
          "time": 432.0323626250001,
          "velocity": 0.5196850393700787
        },
        {
          "duration": 0.08055547500003968,
          "durationTicks": 116,
          "midi": 77,
          "name": "F5",
          "ticks": 583920,
          "time": 432.19902912500004,
          "velocity": 0.5196850393700787
        },
        {
          "duration": 0.08055547499998283,
          "durationTicks": 116,
          "midi": 74,
          "name": "D5",
          "ticks": 584160,
          "time": 432.36569562500006,
          "velocity": 0.5196850393700787
        },
        {
          "duration": 0.08055547499998283,
          "durationTicks": 116,
          "midi": 70,
          "name": "A#4",
          "ticks": 584400,
          "time": 432.5323621250001,
          "velocity": 0.5196850393700787
        },
        {
          "duration": 0.08055547499998283,
          "durationTicks": 116,
          "midi": 74,
          "name": "D5",
          "ticks": 584640,
          "time": 432.6990286250001,
          "velocity": 0.5984251968503937
        },
        {
          "duration": 0.08055547500003968,
          "durationTicks": 116,
          "midi": 70,
          "name": "A#4",
          "ticks": 584880,
          "time": 432.86569512500006,
          "velocity": 0.5196850393700787
        },
        {
          "duration": 0.08055547499998283,
          "durationTicks": 116,
          "midi": 65,
          "name": "F4",
          "ticks": 585120,
          "time": 433.0323616250001,
          "velocity": 0.5196850393700787
        },
        {
          "duration": 0.08055547500003968,
          "durationTicks": 116,
          "midi": 70,
          "name": "A#4",
          "ticks": 585360,
          "time": 433.19902812500004,
          "velocity": 0.5984251968503937
        },
        {
          "duration": 0.08055547499998283,
          "durationTicks": 116,
          "midi": 65,
          "name": "F4",
          "ticks": 585600,
          "time": 433.36569462500006,
          "velocity": 0.5196850393700787
        },
        {
          "duration": 0.08055547499998283,
          "durationTicks": 116,
          "midi": 62,
          "name": "D4",
          "ticks": 585840,
          "time": 433.5323611250001,
          "velocity": 0.5196850393700787
        },
        {
          "duration": 0.13611097500000824,
          "durationTicks": 196,
          "midi": 58,
          "name": "A#3",
          "ticks": 586080,
          "time": 433.69902762500004,
          "velocity": 0.5196850393700787
        },
        {
          "duration": 0.16388872499999252,
          "durationTicks": 236,
          "midi": 70,
          "name": "A#4",
          "ticks": 586800,
          "time": 434.19902712500004,
          "velocity": 0.5039370078740157
        }
      ]
    },
    {
      "channel": 0,
      "controlChanges": {
        "0": [
          {
            "number": 0,
            "ticks": 0,
            "time": 0,
            "value": 0.007874015748031496
          }
        ],
        "32": [
          {
            "number": 32,
            "ticks": 0,
            "time": 0,
            "value": 0
          }
        ]
      },
      "pitchBends": [],
      "instrument": {
        "family": "piano",
        "number": 0,
        "name": "acoustic grand piano"
      },
      "name": "Violincello",
      "notes": [],
      "endOfTrackTicks": 588960
    },
    {
      "channel": 10,
      "controlChanges": {
        "7": [
          {
            "number": 7,
            "ticks": 0,
            "time": 0,
            "value": 1
          },
          {
            "number": 7,
            "ticks": 480720,
            "time": 360.53243412500007,
            "value": 0.8188976377952756
          },
          {
            "number": 7,
            "ticks": 513840,
            "time": 383.53241112500007,
            "value": 1
          }
        ],
        "10": [
          {
            "number": 10,
            "ticks": 0,
            "time": 0,
            "value": 0.5039370078740157
          }
        ],
        "11": [
          {
            "number": 11,
            "ticks": 84,
            "time": 0.058807,
            "value": 1
          }
        ],
        "73": [
          {
            "number": 73,
            "ticks": 73380,
            "time": 51.372115,
            "value": 0.44881889763779526
          },
          {
            "number": 73,
            "ticks": 99240,
            "time": 69.47627,
            "value": 0.5039370078740157
          }
        ],
        "91": [
          {
            "number": 91,
            "ticks": 88,
            "time": 0.06160733333333333,
            "value": 0.5433070866141733
          }
        ],
        "93": [
          {
            "number": 93,
            "ticks": 88,
            "time": 0.06160733333333333,
            "value": 0.07874015748031496
          }
        ],
        "121": [
          {
            "number": 121,
            "ticks": 80,
            "time": 0.05600666666666666,
            "value": 0
          }
        ]
      },
      "pitchBends": [
        {
          "ticks": 104,
          "time": 0.07280866666666667,
          "value": 0
        }
      ],
      "instrument": {
        "family": "ensemble",
        "number": 48,
        "name": "string ensemble 1"
      },
      "name": "",
      "notes": [
        {
          "duration": 0.22122633333333397,
          "durationTicks": 316,
          "midi": 46,
          "name": "A#2",
          "ticks": 12960,
          "time": 9.073080000000001,
          "velocity": 0.4330708661417323
        },
        {
          "duration": 0.22122633333333397,
          "durationTicks": 316,
          "midi": 58,
          "name": "A#3",
          "ticks": 14400,
          "time": 10.0812,
          "velocity": 0.4330708661417323
        },
        {
          "duration": 0.2212263333333322,
          "durationTicks": 316,
          "midi": 41,
          "name": "F2",
          "ticks": 15840,
          "time": 11.08932,
          "velocity": 0.4330708661417323
        },
        {
          "duration": 0.22122633333333397,
          "durationTicks": 316,
          "midi": 53,
          "name": "F3",
          "ticks": 16560,
          "time": 11.59338,
          "velocity": 0.4330708661417323
        },
        {
          "duration": 0.6692796666666663,
          "durationTicks": 956,
          "midi": 41,
          "name": "F2",
          "ticks": 17280,
          "time": 12.09744,
          "velocity": 0.4330708661417323
        },
        {
          "duration": 0.2212263333333322,
          "durationTicks": 316,
          "midi": 46,
          "name": "A#2",
          "ticks": 18720,
          "time": 13.10556,
          "velocity": 0.4330708661417323
        },
        {
          "duration": 0.22122633333333397,
          "durationTicks": 316,
          "midi": 46,
          "name": "A#2",
          "ticks": 19440,
          "time": 13.60962,
          "velocity": 0.4330708661417323
        },
        {
          "duration": 0.2212263333333322,
          "durationTicks": 316,
          "midi": 46,
          "name": "A#2",
          "ticks": 20160,
          "time": 14.11368,
          "velocity": 0.4330708661417323
        },
        {
          "duration": 0.2212263333333322,
          "durationTicks": 316,
          "midi": 53,
          "name": "F3",
          "ticks": 21600,
          "time": 15.1218,
          "velocity": 0.4330708661417323
        },
        {
          "duration": 0.22122633333333397,
          "durationTicks": 316,
          "midi": 41,
          "name": "F2",
          "ticks": 22320,
          "time": 15.62586,
          "velocity": 0.4330708661417323
        },
        {
          "duration": 0.6412763333333338,
          "durationTicks": 916,
          "midi": 46,
          "name": "A#2",
          "ticks": 23040,
          "time": 16.12992,
          "velocity": 0.4330708661417323
        },
        {
          "duration": 0.1092129999999969,
          "durationTicks": 156,
          "midi": 51,
          "name": "D#3",
          "ticks": 57600,
          "time": 40.3248,
          "velocity": 0.5984251968503937
        },
        {
          "duration": 0.1092129999999969,
          "durationTicks": 156,
          "midi": 51,
          "name": "D#3",
          "ticks": 57840,
          "time": 40.49282,
          "velocity": 0.5196850393700787
        },
        {
          "duration": 0.109213000000004,
          "durationTicks": 156,
          "midi": 51,
          "name": "D#3",
          "ticks": 58080,
          "time": 40.66084,
          "velocity": 0.5196850393700787
        },
        {
          "duration": 0.109213000000004,
          "durationTicks": 156,
          "midi": 50,
          "name": "D3",
          "ticks": 58320,
          "time": 40.82886,
          "velocity": 0.5196850393700787
        },
        {
          "duration": 0.109213000000004,
          "durationTicks": 156,
          "midi": 50,
          "name": "D3",
          "ticks": 58560,
          "time": 40.99688,
          "velocity": 0.5196850393700787
        },
        {
          "duration": 0.1092129999999969,
          "durationTicks": 156,
          "midi": 50,
          "name": "D3",
          "ticks": 58800,
          "time": 41.1649,
          "velocity": 0.5196850393700787
        },
        {
          "duration": 0.1092129999999969,
          "durationTicks": 156,
          "midi": 51,
          "name": "D#3",
          "ticks": 59040,
          "time": 41.33292,
          "velocity": 0.5196850393700787
        },
        {
          "duration": 0.109213000000004,
          "durationTicks": 156,
          "midi": 51,
          "name": "D#3",
          "ticks": 59280,
          "time": 41.50094,
          "velocity": 0.5196850393700787
        },
        {
          "duration": 0.109213000000004,
          "durationTicks": 156,
          "midi": 51,
          "name": "D#3",
          "ticks": 59520,
          "time": 41.66896,
          "velocity": 0.5196850393700787
        },
        {
          "duration": 0.1092129999999969,
          "durationTicks": 156,
          "midi": 51,
          "name": "D#3",
          "ticks": 59760,
          "time": 41.836980000000004,
          "velocity": 0.5196850393700787
        },
        {
          "duration": 0.109213000000004,
          "durationTicks": 156,
          "midi": 53,
          "name": "F3",
          "ticks": 60480,
          "time": 42.34104,
          "velocity": 0.28346456692913385
        },
        {
          "duration": 0.1092129999999969,
          "durationTicks": 156,
          "midi": 41,
          "name": "F2",
          "ticks": 61200,
          "time": 42.8451,
          "velocity": 0.28346456692913385
        },
        {
          "duration": 0.47325633333333883,
          "durationTicks": 676,
          "midi": 46,
          "name": "A#2",
          "ticks": 61920,
          "time": 43.34916,
          "velocity": 0.2047244094488189
        },
        {
          "duration": 0.1092129999999969,
          "durationTicks": 156,
          "midi": 46,
          "name": "A#2",
          "ticks": 62640,
          "time": 43.85322,
          "velocity": 0.28346456692913385
        },
        {
          "duration": 0.1092129999999969,
          "durationTicks": 156,
          "midi": 51,
          "name": "D#3",
          "ticks": 66240,
          "time": 46.37352,
          "velocity": 0.5984251968503937
        },
        {
          "duration": 0.1092129999999969,
          "durationTicks": 156,
          "midi": 51,
          "name": "D#3",
          "ticks": 66480,
          "time": 46.54154,
          "velocity": 0.5196850393700787
        },
        {
          "duration": 0.1092129999999969,
          "durationTicks": 156,
          "midi": 51,
          "name": "D#3",
          "ticks": 66720,
          "time": 46.70956,
          "velocity": 0.5196850393700787
        },
        {
          "duration": 0.1092129999999969,
          "durationTicks": 156,
          "midi": 50,
          "name": "D3",
          "ticks": 66960,
          "time": 46.87758,
          "velocity": 0.5196850393700787
        },
        {
          "duration": 0.1092129999999969,
          "durationTicks": 156,
          "midi": 50,
          "name": "D3",
          "ticks": 67200,
          "time": 47.0456,
          "velocity": 0.5196850393700787
        },
        {
          "duration": 0.1092129999999969,
          "durationTicks": 156,
          "midi": 50,
          "name": "D3",
          "ticks": 67440,
          "time": 47.21362,
          "velocity": 0.5196850393700787
        },
        {
          "duration": 0.9213096666666729,
          "durationTicks": 1316,
          "midi": 51,
          "name": "D#3",
          "ticks": 67680,
          "time": 47.38164,
          "velocity": 0.5196850393700787
        },
        {
          "duration": 0.08120966666666618,
          "durationTicks": 116,
          "midi": 58,
          "name": "A#3",
          "ticks": 73440,
          "time": 51.414120000000004,
          "velocity": 0.7795275590551181
        },
        {
          "duration": 0.08120966666666618,
          "durationTicks": 116,
          "midi": 57,
          "name": "A3",
          "ticks": 73680,
          "time": 51.58214,
          "velocity": 0.7716535433070866
        },
        {
          "duration": 0.08120966666666618,
          "durationTicks": 116,
          "midi": 55,
          "name": "G3",
          "ticks": 73920,
          "time": 51.75016,
          "velocity": 0.7637795275590551
        },
        {
          "duration": 0.08120966666667329,
          "durationTicks": 116,
          "midi": 54,
          "name": "F#3",
          "ticks": 74160,
          "time": 51.91818,
          "velocity": 0.7559055118110236
        },
        {
          "duration": 0.08120966666667329,
          "durationTicks": 116,
          "midi": 55,
          "name": "G3",
          "ticks": 74400,
          "time": 52.0862,
          "velocity": 0.7480314960629921
        },
        {
          "duration": 0.08120966666666618,
          "durationTicks": 116,
          "midi": 52,
          "name": "E3",
          "ticks": 74640,
          "time": 52.254220000000004,
          "velocity": 0.7401574803149606
        },
        {
          "duration": 0.08120966666666618,
          "durationTicks": 116,
          "midi": 53,
          "name": "F3",
          "ticks": 74880,
          "time": 52.42224,
          "velocity": 0.7322834645669292
        },
        {
          "duration": 0.08120966666666618,
          "durationTicks": 116,
          "midi": 50,
          "name": "D3",
          "ticks": 75120,
          "time": 52.59026,
          "velocity": 0.7244094488188977
        },
        {
          "duration": 0.08120966666667329,
          "durationTicks": 116,
          "midi": 51,
          "name": "D#3",
          "ticks": 75360,
          "time": 52.75828,
          "velocity": 0.7165354330708661
        },
        {
          "duration": 0.08120966666667329,
          "durationTicks": 116,
          "midi": 49,
          "name": "C#3",
          "ticks": 75600,
          "time": 52.9263,
          "velocity": 0.7086614173228346
        },
        {
          "duration": 0.08120966666666618,
          "durationTicks": 116,
          "midi": 50,
          "name": "D3",
          "ticks": 75840,
          "time": 53.09432,
          "velocity": 0.7007874015748031
        },
        {
          "duration": 0.08120966666666618,
          "durationTicks": 116,
          "midi": 46,
          "name": "A#2",
          "ticks": 76080,
          "time": 53.26234,
          "velocity": 0.6929133858267716
        },
        {
          "duration": 0.1092129999999969,
          "durationTicks": 156,
          "midi": 51,
          "name": "D#3",
          "ticks": 76320,
          "time": 53.43036,
          "velocity": 0.6929133858267716
        },
        {
          "duration": 0.1092129999999969,
          "durationTicks": 156,
          "midi": 51,
          "name": "D#3",
          "ticks": 76560,
          "time": 53.59838,
          "velocity": 0.6929133858267716
        },
        {
          "duration": 0.10921299999998979,
          "durationTicks": 156,
          "midi": 51,
          "name": "D#3",
          "ticks": 76800,
          "time": 53.766400000000004,
          "velocity": 0.6929133858267716
        },
        {
          "duration": 0.1092129999999969,
          "durationTicks": 156,
          "midi": 51,
          "name": "D#3",
          "ticks": 77040,
          "time": 53.93442,
          "velocity": 0.6929133858267716
        },
        {
          "duration": 0.1092129999999969,
          "durationTicks": 156,
          "midi": 50,
          "name": "D3",
          "ticks": 77280,
          "time": 54.10244,
          "velocity": 0.6929133858267716
        },
        {
          "duration": 0.1092129999999969,
          "durationTicks": 156,
          "midi": 48,
          "name": "C3",
          "ticks": 77520,
          "time": 54.27046,
          "velocity": 0.6929133858267716
        },
        {
          "duration": 0.1092129999999969,
          "durationTicks": 156,
          "midi": 53,
          "name": "F3",
          "ticks": 77760,
          "time": 54.43848,
          "velocity": 0.6929133858267716
        },
        {
          "duration": 0.10921299999998979,
          "durationTicks": 156,
          "midi": 53,
          "name": "F3",
          "ticks": 78000,
          "time": 54.606500000000004,
          "velocity": 0.6929133858267716
        },
        {
          "duration": 0.1092129999999969,
          "durationTicks": 156,
          "midi": 53,
          "name": "F3",
          "ticks": 78240,
          "time": 54.77452,
          "velocity": 0.6929133858267716
        },
        {
          "duration": 0.1092129999999969,
          "durationTicks": 156,
          "midi": 53,
          "name": "F3",
          "ticks": 78480,
          "time": 54.94254,
          "velocity": 0.6929133858267716
        },
        {
          "duration": 0.1092129999999969,
          "durationTicks": 156,
          "midi": 53,
          "name": "F3",
          "ticks": 78720,
          "time": 55.11056,
          "velocity": 0.6929133858267716
        },
        {
          "duration": 0.1092129999999969,
          "durationTicks": 156,
          "midi": 53,
          "name": "F3",
          "ticks": 78960,
          "time": 55.27858,
          "velocity": 0.6929133858267716
        },
        {
          "duration": 0.08120966666666618,
          "durationTicks": 116,
          "midi": 58,
          "name": "A#3",
          "ticks": 79200,
          "time": 55.446600000000004,
          "velocity": 0.7795275590551181
        },
        {
          "duration": 0.08120966666666618,
          "durationTicks": 116,
          "midi": 57,
          "name": "A3",
          "ticks": 79440,
          "time": 55.61462,
          "velocity": 0.7716535433070866
        },
        {
          "duration": 0.08120966666666618,
          "durationTicks": 116,
          "midi": 55,
          "name": "G3",
          "ticks": 79680,
          "time": 55.78264,
          "velocity": 0.7637795275590551
        },
        {
          "duration": 0.08120966666667329,
          "durationTicks": 116,
          "midi": 54,
          "name": "F#3",
          "ticks": 79920,
          "time": 55.95066,
          "velocity": 0.7559055118110236
        },
        {
          "duration": 0.08120966666667329,
          "durationTicks": 116,
          "midi": 55,
          "name": "G3",
          "ticks": 80160,
          "time": 56.11868,
          "velocity": 0.7480314960629921
        },
        {
          "duration": 0.08120966666666618,
          "durationTicks": 116,
          "midi": 52,
          "name": "E3",
          "ticks": 80400,
          "time": 56.2867,
          "velocity": 0.7401574803149606
        },
        {
          "duration": 0.08120966666666618,
          "durationTicks": 116,
          "midi": 53,
          "name": "F3",
          "ticks": 80640,
          "time": 56.45472,
          "velocity": 0.7322834645669292
        },
        {
          "duration": 0.08120966666667329,
          "durationTicks": 116,
          "midi": 50,
          "name": "D3",
          "ticks": 80880,
          "time": 56.62274,
          "velocity": 0.7244094488188977
        },
        {
          "duration": 0.08120966666667329,
          "durationTicks": 116,
          "midi": 51,
          "name": "D#3",
          "ticks": 81120,
          "time": 56.79076,
          "velocity": 0.7165354330708661
        },
        {
          "duration": 0.08120966666666618,
          "durationTicks": 116,
          "midi": 49,
          "name": "C#3",
          "ticks": 81360,
          "time": 56.958780000000004,
          "velocity": 0.7086614173228346
        },
        {
          "duration": 0.08120966666666618,
          "durationTicks": 116,
          "midi": 50,
          "name": "D3",
          "ticks": 81600,
          "time": 57.1268,
          "velocity": 0.7007874015748031
        },
        {
          "duration": 0.08120966666666618,
          "durationTicks": 116,
          "midi": 46,
          "name": "A#2",
          "ticks": 81840,
          "time": 57.29482,
          "velocity": 0.6929133858267716
        },
        {
          "duration": 0.1092129999999969,
          "durationTicks": 156,
          "midi": 51,
          "name": "D#3",
          "ticks": 82080,
          "time": 57.46284,
          "velocity": 0.6929133858267716
        },
        {
          "duration": 0.1092129999999969,
          "durationTicks": 156,
          "midi": 51,
          "name": "D#3",
          "ticks": 82320,
          "time": 57.63086,
          "velocity": 0.6929133858267716
        },
        {
          "duration": 0.10921299999998979,
          "durationTicks": 156,
          "midi": 51,
          "name": "D#3",
          "ticks": 82560,
          "time": 57.798880000000004,
          "velocity": 0.6929133858267716
        },
        {
          "duration": 0.1092129999999969,
          "durationTicks": 156,
          "midi": 51,
          "name": "D#3",
          "ticks": 82800,
          "time": 57.9669,
          "velocity": 0.6929133858267716
        },
        {
          "duration": 0.1092129999999969,
          "durationTicks": 156,
          "midi": 50,
          "name": "D3",
          "ticks": 83040,
          "time": 58.13492,
          "velocity": 0.6929133858267716
        },
        {
          "duration": 0.1092129999999969,
          "durationTicks": 156,
          "midi": 48,
          "name": "C3",
          "ticks": 83280,
          "time": 58.30294,
          "velocity": 0.6929133858267716
        },
        {
          "duration": 0.1092129999999969,
          "durationTicks": 156,
          "midi": 53,
          "name": "F3",
          "ticks": 83520,
          "time": 58.47096,
          "velocity": 0.6929133858267716
        },
        {
          "duration": 0.1092129999999969,
          "durationTicks": 156,
          "midi": 53,
          "name": "F3",
          "ticks": 83760,
          "time": 58.638980000000004,
          "velocity": 0.6929133858267716
        },
        {
          "duration": 0.1092129999999969,
          "durationTicks": 156,
          "midi": 53,
          "name": "F3",
          "ticks": 84000,
          "time": 58.807,
          "velocity": 0.6929133858267716
        },
        {
          "duration": 0.1092129999999969,
          "durationTicks": 156,
          "midi": 41,
          "name": "F2",
          "ticks": 84240,
          "time": 58.97502,
          "velocity": 0.6929133858267716
        },
        {
          "duration": 0.1092129999999969,
          "durationTicks": 156,
          "midi": 41,
          "name": "F2",
          "ticks": 84480,
          "time": 59.14304,
          "velocity": 0.6929133858267716
        },
        {
          "duration": 0.1092129999999969,
          "durationTicks": 156,
          "midi": 41,
          "name": "F2",
          "ticks": 84720,
          "time": 59.31106,
          "velocity": 0.6929133858267716
        },
        {
          "duration": 0.24922966666666468,
          "durationTicks": 356,
          "midi": 46,
          "name": "A#2",
          "ticks": 84960,
          "time": 59.47908,
          "velocity": 0.2677165354330709
        },
        {
          "duration": 0.2492296666666718,
          "durationTicks": 356,
          "midi": 53,
          "name": "F3",
          "ticks": 86400,
          "time": 60.4872,
          "velocity": 0.2677165354330709
        },
        {
          "duration": 0.2492296666666718,
          "durationTicks": 356,
          "midi": 58,
          "name": "A#3",
          "ticks": 87840,
          "time": 61.49532,
          "velocity": 0.2677165354330709
        },
        {
          "duration": 0.2492296666666718,
          "durationTicks": 356,
          "midi": 53,
          "name": "F3",
          "ticks": 89280,
          "time": 62.50344,
          "velocity": 0.2677165354330709
        },
        {
          "duration": 0.16521966666666543,
          "durationTicks": 236,
          "midi": 46,
          "name": "A#2",
          "ticks": 90720,
          "time": 63.51156,
          "velocity": 0.2677165354330709
        },
        {
          "duration": 0.16521966666667254,
          "durationTicks": 236,
          "midi": 58,
          "name": "A#3",
          "ticks": 91440,
          "time": 64.01562,
          "velocity": 0.2677165354330709
        },
        {
          "duration": 0.16521966666667254,
          "durationTicks": 236,
          "midi": 46,
          "name": "A#2",
          "ticks": 92160,
          "time": 64.51968,
          "velocity": 0.2677165354330709
        },
        {
          "duration": 1.005319666666665,
          "durationTicks": 1436,
          "midi": 58,
          "name": "A#3",
          "ticks": 120960,
          "time": 84.68208,
          "velocity": 0.15748031496062992
        },
        {
          "duration": 0.16521966666667254,
          "durationTicks": 236,
          "midi": 57,
          "name": "A3",
          "ticks": 122400,
          "time": 85.6902,
          "velocity": 0.15748031496062992
        },
        {
          "duration": 1.0053196666666793,
          "durationTicks": 1436,
          "midi": 58,
          "name": "A#3",
          "ticks": 123840,
          "time": 86.69832,
          "velocity": 0.15748031496062992
        },
        {
          "duration": 0.16521966666667254,
          "durationTicks": 236,
          "midi": 57,
          "name": "A3",
          "ticks": 125280,
          "time": 87.70644,
          "velocity": 0.15748031496062992
        },
        {
          "duration": 1.005319666666665,
          "durationTicks": 1436,
          "midi": 58,
          "name": "A#3",
          "ticks": 126720,
          "time": 88.71456,
          "velocity": 0.15748031496062992
        },
        {
          "duration": 0.16521966666667254,
          "durationTicks": 236,
          "midi": 55,
          "name": "G3",
          "ticks": 128160,
          "time": 89.72268,
          "velocity": 0.15748031496062992
        },
        {
          "duration": 1.005319666666665,
          "durationTicks": 1436,
          "midi": 56,
          "name": "G#3",
          "ticks": 129600,
          "time": 90.7308,
          "velocity": 0.15748031496062992
        },
        {
          "duration": 1.005319666666665,
          "durationTicks": 1436,
          "midi": 53,
          "name": "F3",
          "ticks": 131040,
          "time": 91.73892000000001,
          "velocity": 0.18110236220472442
        },
        {
          "duration": 1.0053196666666793,
          "durationTicks": 1436,
          "midi": 49,
          "name": "C#3",
          "ticks": 132480,
          "time": 92.74704,
          "velocity": 0.2125984251968504
        },
        {
          "duration": 1.005319666666665,
          "durationTicks": 1436,
          "midi": 61,
          "name": "C#4",
          "ticks": 133920,
          "time": 93.75516,
          "velocity": 0.25196850393700787
        },
        {
          "duration": 0.22122633333334818,
          "durationTicks": 316,
          "midi": 60,
          "name": "C4",
          "ticks": 135360,
          "time": 94.76328,
          "velocity": 0.1968503937007874
        },
        {
          "duration": 0.9213096666666729,
          "durationTicks": 1316,
          "midi": 53,
          "name": "F3",
          "ticks": 177120,
          "time": 123.99876,
          "velocity": 0.25984251968503935
        },
        {
          "duration": 0.9213096666666729,
          "durationTicks": 1316,
          "midi": 53,
          "name": "F3",
          "ticks": 178560,
          "time": 125.00688,
          "velocity": 0.25984251968503935
        },
        {
          "duration": 0.9213096666666729,
          "durationTicks": 1316,
          "midi": 53,
          "name": "F3",
          "ticks": 180000,
          "time": 126.015,
          "velocity": 0.25984251968503935
        },
        {
          "duration": 0.9213096666666587,
          "durationTicks": 1316,
          "midi": 53,
          "name": "F3",
          "ticks": 181440,
          "time": 127.02312,
          "velocity": 0.25984251968503935
        },
        {
          "duration": 0.33323966666668525,
          "durationTicks": 476,
          "midi": 53,
          "name": "F3",
          "ticks": 182880,
          "time": 128.03124,
          "velocity": 0.3464566929133858
        },
        {
          "duration": 0.08120966666666618,
          "durationTicks": 116,
          "midi": 54,
          "name": "F#3",
          "ticks": 183360,
          "time": 128.36728,
          "velocity": 0.3543307086614173
        },
        {
          "duration": 0.33323966666665683,
          "durationTicks": 476,
          "midi": 53,
          "name": "F3",
          "ticks": 183600,
          "time": 128.5353,
          "velocity": 0.36220472440944884
        },
        {
          "duration": 0.08120966666666618,
          "durationTicks": 116,
          "midi": 54,
          "name": "F#3",
          "ticks": 184080,
          "time": 128.87134,
          "velocity": 0.3779527559055118
        },
        {
          "duration": 0.0812096666666946,
          "durationTicks": 116,
          "midi": 53,
          "name": "F3",
          "ticks": 184320,
          "time": 129.03936,
          "velocity": 0.3858267716535433
        },
        {
          "duration": 0.08120966666666618,
          "durationTicks": 116,
          "midi": 41,
          "name": "F2",
          "ticks": 185040,
          "time": 129.54342,
          "velocity": 0.4094488188976378
        },
        {
          "duration": 0.09055153333332555,
          "durationTicks": 116,
          "midi": 45,
          "name": "A2",
          "ticks": 185760,
          "time": 130.04748,
          "velocity": 0.4330708661417323
        },
        {
          "duration": 0.10262592500001233,
          "durationTicks": 116,
          "midi": 48,
          "name": "C3",
          "ticks": 186480,
          "time": 130.609524,
          "velocity": 0.44881889763779526
        },
        {
          "duration": 0.680717808333327,
          "durationTicks": 956,
          "midi": 53,
          "name": "F3",
          "ticks": 187200,
          "time": 131.2465125,
          "velocity": 0.47244094488188976
        },
        {
          "duration": 0.22122633333333397,
          "durationTicks": 316,
          "midi": 46,
          "name": "A#2",
          "ticks": 226080,
          "time": 167.13212012500003,
          "velocity": 0.4330708661417323
        },
        {
          "duration": 0.22122633333333397,
          "durationTicks": 316,
          "midi": 58,
          "name": "A#3",
          "ticks": 227520,
          "time": 168.14024012500002,
          "velocity": 0.4330708661417323
        },
        {
          "duration": 0.22122633333333397,
          "durationTicks": 316,
          "midi": 41,
          "name": "F2",
          "ticks": 228960,
          "time": 169.148360125,
          "velocity": 0.4330708661417323
        },
        {
          "duration": 0.22122633333333397,
          "durationTicks": 316,
          "midi": 53,
          "name": "F3",
          "ticks": 229680,
          "time": 169.65242012500002,
          "velocity": 0.4330708661417323
        },
        {
          "duration": 0.6692796666666538,
          "durationTicks": 956,
          "midi": 41,
          "name": "F2",
          "ticks": 230400,
          "time": 170.15648012500003,
          "velocity": 0.4330708661417323
        },
        {
          "duration": 0.22122633333333397,
          "durationTicks": 316,
          "midi": 46,
          "name": "A#2",
          "ticks": 231840,
          "time": 171.16460012500002,
          "velocity": 0.4330708661417323
        },
        {
          "duration": 0.22122633333333397,
          "durationTicks": 316,
          "midi": 46,
          "name": "A#2",
          "ticks": 232560,
          "time": 171.668660125,
          "velocity": 0.4330708661417323
        },
        {
          "duration": 0.22122633333333397,
          "durationTicks": 316,
          "midi": 46,
          "name": "A#2",
          "ticks": 233280,
          "time": 172.172720125,
          "velocity": 0.4330708661417323
        },
        {
          "duration": 0.08120966666666618,
          "durationTicks": 116,
          "midi": 48,
          "name": "C3",
          "ticks": 262080,
          "time": 192.335120125,
          "velocity": 0.3464566929133858
        },
        {
          "duration": 0.16521966666664412,
          "durationTicks": 236,
          "midi": 52,
          "name": "E3",
          "ticks": 262560,
          "time": 192.67116012500003,
          "velocity": 0.3464566929133858
        },
        {
          "duration": 0.08120966666666618,
          "durationTicks": 116,
          "midi": 55,
          "name": "G3",
          "ticks": 262800,
          "time": 192.839180125,
          "velocity": 0.3464566929133858
        },
        {
          "duration": 0.16521966666667254,
          "durationTicks": 236,
          "midi": 60,
          "name": "C4",
          "ticks": 263280,
          "time": 193.175220125,
          "velocity": 0.3464566929133858
        },
        {
          "duration": 0.33323966666665683,
          "durationTicks": 476,
          "midi": 53,
          "name": "F3",
          "ticks": 263520,
          "time": 193.34324012500002,
          "velocity": 0.3464566929133858
        },
        {
          "duration": 0.08120966666666618,
          "durationTicks": 116,
          "midi": 43,
          "name": "G2",
          "ticks": 267840,
          "time": 196.36760012500002,
          "velocity": 0.3464566929133858
        },
        {
          "duration": 0.16521966666667254,
          "durationTicks": 236,
          "midi": 47,
          "name": "B2",
          "ticks": 268320,
          "time": 196.70364012500002,
          "velocity": 0.3464566929133858
        },
        {
          "duration": 0.08120966666666618,
          "durationTicks": 116,
          "midi": 50,
          "name": "D3",
          "ticks": 268560,
          "time": 196.871660125,
          "velocity": 0.3464566929133858
        },
        {
          "duration": 0.16521966666664412,
          "durationTicks": 236,
          "midi": 55,
          "name": "G3",
          "ticks": 269040,
          "time": 197.20770012500003,
          "velocity": 0.3464566929133858
        },
        {
          "duration": 0.33323966666665683,
          "durationTicks": 476,
          "midi": 48,
          "name": "C3",
          "ticks": 269280,
          "time": 197.37572012500002,
          "velocity": 0.3464566929133858
        },
        {
          "duration": 0.08120966666666618,
          "durationTicks": 116,
          "midi": 45,
          "name": "A2",
          "ticks": 273600,
          "time": 200.40008012500002,
          "velocity": 0.3464566929133858
        },
        {
          "duration": 0.16521966666667254,
          "durationTicks": 236,
          "midi": 49,
          "name": "C#3",
          "ticks": 274080,
          "time": 200.736120125,
          "velocity": 0.3464566929133858
        },
        {
          "duration": 0.08120966666666618,
          "durationTicks": 116,
          "midi": 52,
          "name": "E3",
          "ticks": 274320,
          "time": 200.90414012500003,
          "velocity": 0.3464566929133858
        },
        {
          "duration": 0.16521966666667254,
          "durationTicks": 236,
          "midi": 57,
          "name": "A3",
          "ticks": 274800,
          "time": 201.24018012500002,
          "velocity": 0.3464566929133858
        },
        {
          "duration": 0.33323966666665683,
          "durationTicks": 476,
          "midi": 50,
          "name": "D3",
          "ticks": 275040,
          "time": 201.408200125,
          "velocity": 0.3464566929133858
        },
        {
          "duration": 0.5012596666666695,
          "durationTicks": 716,
          "midi": 58,
          "name": "A#3",
          "ticks": 276480,
          "time": 202.41632012500003,
          "velocity": 0.2677165354330709
        },
        {
          "duration": 0.5012596666666695,
          "durationTicks": 716,
          "midi": 57,
          "name": "A3",
          "ticks": 277200,
          "time": 202.920380125,
          "velocity": 0.33070866141732286
        },
        {
          "duration": 0.5012596666666695,
          "durationTicks": 716,
          "midi": 56,
          "name": "G#3",
          "ticks": 277920,
          "time": 203.42444012500002,
          "velocity": 0.3858267716535433
        },
        {
          "duration": 0.5012596666666695,
          "durationTicks": 716,
          "midi": 57,
          "name": "A3",
          "ticks": 278640,
          "time": 203.92850012500003,
          "velocity": 0.3228346456692913
        },
        {
          "duration": 0.5012596666666695,
          "durationTicks": 716,
          "midi": 58,
          "name": "A#3",
          "ticks": 279360,
          "time": 204.432560125,
          "velocity": 0.2677165354330709
        },
        {
          "duration": 0.5012596666666695,
          "durationTicks": 716,
          "midi": 57,
          "name": "A3",
          "ticks": 280080,
          "time": 204.93662012500002,
          "velocity": 0.3228346456692913
        },
        {
          "duration": 0.33323966666665683,
          "durationTicks": 476,
          "midi": 56,
          "name": "G#3",
          "ticks": 280800,
          "time": 205.44068012500003,
          "velocity": 0.28346456692913385
        },
        {
          "duration": 2.11467000833332,
          "durationTicks": 956,
          "midi": 50,
          "name": "D3",
          "ticks": 286560,
          "time": 210.095879125,
          "velocity": 0.5826771653543307
        },
        {
          "duration": 1.0283584916666655,
          "durationTicks": 1436,
          "midi": 51,
          "name": "D#3",
          "ticks": 347040,
          "time": 257.06108912499997,
          "velocity": 0.15748031496062992
        },
        {
          "duration": 0.16900599166666552,
          "durationTicks": 236,
          "midi": 50,
          "name": "D3",
          "ticks": 348480,
          "time": 258.092312125,
          "velocity": 0.15748031496062992
        },
        {
          "duration": 1.0283584916666655,
          "durationTicks": 1436,
          "midi": 51,
          "name": "D#3",
          "ticks": 349920,
          "time": 259.123535125,
          "velocity": 0.15748031496062992
        },
        {
          "duration": 0.16900599166666552,
          "durationTicks": 236,
          "midi": 50,
          "name": "D3",
          "ticks": 351360,
          "time": 260.154758125,
          "velocity": 0.15748031496062992
        },
        {
          "duration": 1.0283584916666655,
          "durationTicks": 1436,
          "midi": 51,
          "name": "D#3",
          "ticks": 352800,
          "time": 261.185981125,
          "velocity": 0.15748031496062992
        },
        {
          "duration": 0.16900599166666552,
          "durationTicks": 236,
          "midi": 48,
          "name": "C3",
          "ticks": 354240,
          "time": 262.21720412499997,
          "velocity": 0.15748031496062992
        },
        {
          "duration": 1.0283584916666655,
          "durationTicks": 1436,
          "midi": 49,
          "name": "C#3",
          "ticks": 355680,
          "time": 263.248427125,
          "velocity": 0.15748031496062992
        },
        {
          "duration": 1.0283584916666655,
          "durationTicks": 1436,
          "midi": 46,
          "name": "A#2",
          "ticks": 357120,
          "time": 264.279650125,
          "velocity": 0.18110236220472442
        },
        {
          "duration": 1.0283584916666655,
          "durationTicks": 1436,
          "midi": 42,
          "name": "F#2",
          "ticks": 358560,
          "time": 265.310873125,
          "velocity": 0.2125984251968504
        },
        {
          "duration": 1.0283584916666655,
          "durationTicks": 1436,
          "midi": 54,
          "name": "F#3",
          "ticks": 360000,
          "time": 266.342096125,
          "velocity": 0.25196850393700787
        },
        {
          "duration": 0.22629615833335492,
          "durationTicks": 316,
          "midi": 53,
          "name": "F3",
          "ticks": 361440,
          "time": 267.37331912499997,
          "velocity": 0.1968503937007874
        },
        {
          "duration": 0.9424232416666314,
          "durationTicks": 1316,
          "midi": 46,
          "name": "A#2",
          "ticks": 403200,
          "time": 297.278786125,
          "velocity": 0.25984251968503935
        },
        {
          "duration": 0.9424232416666882,
          "durationTicks": 1316,
          "midi": 46,
          "name": "A#2",
          "ticks": 404640,
          "time": 298.31000912499997,
          "velocity": 0.25984251968503935
        },
        {
          "duration": 0.9424232416666882,
          "durationTicks": 1316,
          "midi": 46,
          "name": "A#2",
          "ticks": 406080,
          "time": 299.341232125,
          "velocity": 0.25984251968503935
        },
        {
          "duration": 0.9424232416666882,
          "durationTicks": 1316,
          "midi": 46,
          "name": "A#2",
          "ticks": 407520,
          "time": 300.372455125,
          "velocity": 0.25984251968503935
        },
        {
          "duration": 0.16900599166666552,
          "durationTicks": 236,
          "midi": 47,
          "name": "B2",
          "ticks": 408960,
          "time": 301.403678125,
          "velocity": 0.33858267716535434
        },
        {
          "duration": 0.16900599166666552,
          "durationTicks": 236,
          "midi": 48,
          "name": "C3",
          "ticks": 409680,
          "time": 301.919289625,
          "velocity": 0.36220472440944884
        },
        {
          "duration": 0.16900599166666552,
          "durationTicks": 236,
          "midi": 45,
          "name": "A2",
          "ticks": 410400,
          "time": 302.434901125,
          "velocity": 0.3858267716535433
        },
        {
          "duration": 0.16900599166666552,
          "durationTicks": 236,
          "midi": 46,
          "name": "A#2",
          "ticks": 411120,
          "time": 302.950512625,
          "velocity": 0.41732283464566927
        },
        {
          "duration": 0.6846174916666996,
          "durationTicks": 956,
          "midi": 51,
          "name": "D#3",
          "ticks": 411840,
          "time": 303.46612412499996,
          "velocity": 0.5984251968503937
        },
        {
          "duration": 0.11171582499997612,
          "durationTicks": 156,
          "midi": 55,
          "name": "G3",
          "ticks": 412800,
          "time": 304.153606125,
          "velocity": 0.5433070866141733
        },
        {
          "duration": 0.11171582500003296,
          "durationTicks": 156,
          "midi": 53,
          "name": "F3",
          "ticks": 413040,
          "time": 304.32547662499996,
          "velocity": 0.5511811023622047
        },
        {
          "duration": 0.6846174916666996,
          "durationTicks": 956,
          "midi": 51,
          "name": "D#3",
          "ticks": 413280,
          "time": 304.497347125,
          "velocity": 0.6456692913385826
        },
        {
          "duration": 0.11171582500003296,
          "durationTicks": 156,
          "midi": 55,
          "name": "G3",
          "ticks": 414240,
          "time": 305.18482912499996,
          "velocity": 0.6062992125984252
        },
        {
          "duration": 0.11171582500003296,
          "durationTicks": 156,
          "midi": 53,
          "name": "F3",
          "ticks": 414480,
          "time": 305.356699625,
          "velocity": 0.6141732283464567
        },
        {
          "duration": 0.11171582500003296,
          "durationTicks": 156,
          "midi": 51,
          "name": "D#3",
          "ticks": 414720,
          "time": 305.528570125,
          "velocity": 0.6220472440944882
        },
        {
          "duration": 0.11171582499997612,
          "durationTicks": 156,
          "midi": 51,
          "name": "D#3",
          "ticks": 414960,
          "time": 305.700440625,
          "velocity": 0.6299212598425197
        },
        {
          "duration": 0.11171582499997612,
          "durationTicks": 156,
          "midi": 53,
          "name": "F3",
          "ticks": 415200,
          "time": 305.872311125,
          "velocity": 0.6456692913385826
        },
        {
          "duration": 0.12177619999999933,
          "durationTicks": 156,
          "midi": 55,
          "name": "G3",
          "ticks": 415440,
          "time": 306.04418162499996,
          "velocity": 0.6692913385826772
        },
        {
          "duration": 0.12177619999999933,
          "durationTicks": 156,
          "midi": 55,
          "name": "G3",
          "ticks": 415680,
          "time": 306.23152962499995,
          "velocity": 0.6929133858267716
        },
        {
          "duration": 0.12177620000005618,
          "durationTicks": 156,
          "midi": 57,
          "name": "A3",
          "ticks": 415920,
          "time": 306.41887762499994,
          "velocity": 0.7086614173228346
        },
        {
          "duration": 0.12938769999999522,
          "durationTicks": 156,
          "midi": 58,
          "name": "A#3",
          "ticks": 416160,
          "time": 306.606225625,
          "velocity": 0.7244094488188977
        },
        {
          "duration": 0.13801417500002344,
          "durationTicks": 156,
          "midi": 58,
          "name": "A#3",
          "ticks": 416400,
          "time": 306.80528362499996,
          "velocity": 0.7086614173228346
        },
        {
          "duration": 0.14787304999998696,
          "durationTicks": 156,
          "midi": 57,
          "name": "A3",
          "ticks": 416640,
          "time": 307.01761312499997,
          "velocity": 0.7086614173228346
        },
        {
          "duration": 0.15924869999997782,
          "durationTicks": 156,
          "midi": 55,
          "name": "G3",
          "ticks": 416880,
          "time": 307.245110125,
          "velocity": 0.7086614173228346
        },
        {
          "duration": 0.1725207250000267,
          "durationTicks": 156,
          "midi": 53,
          "name": "F3",
          "ticks": 417120,
          "time": 307.490108125,
          "velocity": 0.7086614173228346
        },
        {
          "duration": 0.20702825000000757,
          "durationTicks": 156,
          "midi": 52,
          "name": "E3",
          "ticks": 417360,
          "time": 307.755524625,
          "velocity": 0.7086614173228346
        },
        {
          "duration": 0.902472199999977,
          "durationTicks": 476,
          "midi": 53,
          "name": "F3",
          "ticks": 417600,
          "time": 308.07402962500004,
          "velocity": 0.6456692913385826
        },
        {
          "duration": 0.49722172500003126,
          "durationTicks": 716,
          "midi": 60,
          "name": "C4",
          "ticks": 490320,
          "time": 367.19909412500004,
          "velocity": 0.25984251968503935
        },
        {
          "duration": 0.49722172500003126,
          "durationTicks": 716,
          "midi": 60,
          "name": "C4",
          "ticks": 493200,
          "time": 369.19909212500005,
          "velocity": 0.25984251968503935
        },
        {
          "duration": 0.49722172500003126,
          "durationTicks": 716,
          "midi": 60,
          "name": "C4",
          "ticks": 496080,
          "time": 371.19909012500005,
          "velocity": 0.25984251968503935
        },
        {
          "duration": 0.16388872499999252,
          "durationTicks": 236,
          "midi": 58,
          "name": "A#3",
          "ticks": 502560,
          "time": 375.69908562500007,
          "velocity": 0.25984251968503935
        },
        {
          "duration": 0.16388872499999252,
          "durationTicks": 236,
          "midi": 58,
          "name": "A#3",
          "ticks": 504000,
          "time": 376.69908462500007,
          "velocity": 0.25984251968503935
        },
        {
          "duration": 0.16388872499999252,
          "durationTicks": 236,
          "midi": 53,
          "name": "F3",
          "ticks": 505440,
          "time": 377.69908362500007,
          "velocity": 0.25984251968503935
        },
        {
          "duration": 0.16388872499999252,
          "durationTicks": 236,
          "midi": 53,
          "name": "F3",
          "ticks": 506160,
          "time": 378.1990831250001,
          "velocity": 0.25984251968503935
        },
        {
          "duration": 0.5805549749999841,
          "durationTicks": 836,
          "midi": 53,
          "name": "F3",
          "ticks": 506880,
          "time": 378.6990826250001,
          "velocity": 0.25984251968503935
        },
        {
          "duration": 0.16388872499999252,
          "durationTicks": 236,
          "midi": 46,
          "name": "A#2",
          "ticks": 508320,
          "time": 379.6990816250001,
          "velocity": 0.25984251968503935
        },
        {
          "duration": 0.16388872499999252,
          "durationTicks": 236,
          "midi": 46,
          "name": "A#2",
          "ticks": 509040,
          "time": 380.1990811250001,
          "velocity": 0.25984251968503935
        },
        {
          "duration": 0.5805549749999841,
          "durationTicks": 836,
          "midi": 46,
          "name": "A#2",
          "ticks": 509760,
          "time": 380.6990806250001,
          "velocity": 0.25984251968503935
        },
        {
          "duration": 0.16388872499999252,
          "durationTicks": 236,
          "midi": 53,
          "name": "F3",
          "ticks": 511200,
          "time": 381.6990796250001,
          "velocity": 0.25984251968503935
        },
        {
          "duration": 0.16388872499999252,
          "durationTicks": 236,
          "midi": 41,
          "name": "F2",
          "ticks": 511920,
          "time": 382.1990791250001,
          "velocity": 0.25984251968503935
        },
        {
          "duration": 0.6638882249999938,
          "durationTicks": 956,
          "midi": 46,
          "name": "A#2",
          "ticks": 512640,
          "time": 382.6990786250001,
          "velocity": 0.25984251968503935
        },
        {
          "duration": 0.10833322499996711,
          "durationTicks": 156,
          "midi": 51,
          "name": "D#3",
          "ticks": 514080,
          "time": 383.6990776250001,
          "velocity": 0.5984251968503937
        },
        {
          "duration": 0.10833322500002396,
          "durationTicks": 156,
          "midi": 51,
          "name": "D#3",
          "ticks": 514320,
          "time": 383.86574412500005,
          "velocity": 0.5196850393700787
        },
        {
          "duration": 0.10833322499996711,
          "durationTicks": 156,
          "midi": 51,
          "name": "D#3",
          "ticks": 514560,
          "time": 384.03241062500007,
          "velocity": 0.5196850393700787
        },
        {
          "duration": 0.10833322499996711,
          "durationTicks": 156,
          "midi": 50,
          "name": "D3",
          "ticks": 514800,
          "time": 384.1990771250001,
          "velocity": 0.5196850393700787
        },
        {
          "duration": 0.10833322500002396,
          "durationTicks": 156,
          "midi": 50,
          "name": "D3",
          "ticks": 515040,
          "time": 384.36574362500005,
          "velocity": 0.5196850393700787
        },
        {
          "duration": 0.10833322500002396,
          "durationTicks": 156,
          "midi": 50,
          "name": "D3",
          "ticks": 515280,
          "time": 384.53241012500007,
          "velocity": 0.5196850393700787
        },
        {
          "duration": 0.10833322499996711,
          "durationTicks": 156,
          "midi": 51,
          "name": "D#3",
          "ticks": 515520,
          "time": 384.6990766250001,
          "velocity": 0.5196850393700787
        },
        {
          "duration": 0.10833322500002396,
          "durationTicks": 156,
          "midi": 51,
          "name": "D#3",
          "ticks": 515760,
          "time": 384.86574312500005,
          "velocity": 0.5196850393700787
        },
        {
          "duration": 0.10833322499996711,
          "durationTicks": 156,
          "midi": 51,
          "name": "D#3",
          "ticks": 516000,
          "time": 385.03240962500007,
          "velocity": 0.5196850393700787
        },
        {
          "duration": 0.10833322500002396,
          "durationTicks": 156,
          "midi": 51,
          "name": "D#3",
          "ticks": 516240,
          "time": 385.19907612500003,
          "velocity": 0.5196850393700787
        },
        {
          "duration": 0.10833322499996711,
          "durationTicks": 156,
          "midi": 53,
          "name": "F3",
          "ticks": 516960,
          "time": 385.6990756250001,
          "velocity": 0.28346456692913385
        },
        {
          "duration": 0.10833322500002396,
          "durationTicks": 156,
          "midi": 41,
          "name": "F2",
          "ticks": 517680,
          "time": 386.19907512500004,
          "velocity": 0.28346456692913385
        },
        {
          "duration": 0.46944397499999013,
          "durationTicks": 676,
          "midi": 46,
          "name": "A#2",
          "ticks": 518400,
          "time": 386.6990746250001,
          "velocity": 0.2047244094488189
        },
        {
          "duration": 0.16388872499999252,
          "durationTicks": 236,
          "midi": 46,
          "name": "A#2",
          "ticks": 519120,
          "time": 387.19907412500004,
          "velocity": 0.2047244094488189
        },
        {
          "duration": 0.10833322500002396,
          "durationTicks": 156,
          "midi": 51,
          "name": "D#3",
          "ticks": 522720,
          "time": 389.69907162500004,
          "velocity": 0.5984251968503937
        },
        {
          "duration": 0.10833322500002396,
          "durationTicks": 156,
          "midi": 51,
          "name": "D#3",
          "ticks": 522960,
          "time": 389.86573812500006,
          "velocity": 0.5196850393700787
        },
        {
          "duration": 0.10833322499996711,
          "durationTicks": 156,
          "midi": 51,
          "name": "D#3",
          "ticks": 523200,
          "time": 390.0324046250001,
          "velocity": 0.5196850393700787
        },
        {
          "duration": 0.10833322500002396,
          "durationTicks": 156,
          "midi": 50,
          "name": "D3",
          "ticks": 523440,
          "time": 390.19907112500005,
          "velocity": 0.5196850393700787
        },
        {
          "duration": 0.10833322500002396,
          "durationTicks": 156,
          "midi": 50,
          "name": "D3",
          "ticks": 523680,
          "time": 390.36573762500007,
          "velocity": 0.5196850393700787
        },
        {
          "duration": 0.10833322499996711,
          "durationTicks": 156,
          "midi": 50,
          "name": "D3",
          "ticks": 523920,
          "time": 390.5324041250001,
          "velocity": 0.5196850393700787
        },
        {
          "duration": 0.8583324749999974,
          "durationTicks": 1236,
          "midi": 51,
          "name": "D#3",
          "ticks": 524160,
          "time": 390.69907062500005,
          "velocity": 0.5196850393700787
        },
        {
          "duration": 0.08055547499998283,
          "durationTicks": 116,
          "midi": 58,
          "name": "A#3",
          "ticks": 529920,
          "time": 394.69906662500006,
          "velocity": 0.7795275590551181
        },
        {
          "duration": 0.08055547499998283,
          "durationTicks": 116,
          "midi": 57,
          "name": "A3",
          "ticks": 530160,
          "time": 394.8657331250001,
          "velocity": 0.7716535433070866
        },
        {
          "duration": 0.08055547500003968,
          "durationTicks": 116,
          "midi": 55,
          "name": "G3",
          "ticks": 530400,
          "time": 395.03239962500004,
          "velocity": 0.7637795275590551
        },
        {
          "duration": 0.08055547499998283,
          "durationTicks": 116,
          "midi": 54,
          "name": "F#3",
          "ticks": 530640,
          "time": 395.19906612500006,
          "velocity": 0.7559055118110236
        },
        {
          "duration": 0.08055547499998283,
          "durationTicks": 116,
          "midi": 55,
          "name": "G3",
          "ticks": 530880,
          "time": 395.3657326250001,
          "velocity": 0.7480314960629921
        },
        {
          "duration": 0.08055547500003968,
          "durationTicks": 116,
          "midi": 52,
          "name": "E3",
          "ticks": 531120,
          "time": 395.53239912500004,
          "velocity": 0.7401574803149606
        },
        {
          "duration": 0.08055547499998283,
          "durationTicks": 116,
          "midi": 53,
          "name": "F3",
          "ticks": 531360,
          "time": 395.69906562500006,
          "velocity": 0.7322834645669292
        },
        {
          "duration": 0.08055547499998283,
          "durationTicks": 116,
          "midi": 50,
          "name": "D3",
          "ticks": 531600,
          "time": 395.8657321250001,
          "velocity": 0.7244094488188977
        },
        {
          "duration": 0.08055547500003968,
          "durationTicks": 116,
          "midi": 51,
          "name": "D#3",
          "ticks": 531840,
          "time": 396.03239862500004,
          "velocity": 0.7165354330708661
        },
        {
          "duration": 0.08055547499998283,
          "durationTicks": 116,
          "midi": 49,
          "name": "C#3",
          "ticks": 532080,
          "time": 396.19906512500006,
          "velocity": 0.7086614173228346
        },
        {
          "duration": 0.08055547499998283,
          "durationTicks": 116,
          "midi": 50,
          "name": "D3",
          "ticks": 532320,
          "time": 396.3657316250001,
          "velocity": 0.7007874015748031
        },
        {
          "duration": 0.08055547500003968,
          "durationTicks": 116,
          "midi": 46,
          "name": "A#2",
          "ticks": 532560,
          "time": 396.53239812500004,
          "velocity": 0.6929133858267716
        },
        {
          "duration": 0.10833322499996711,
          "durationTicks": 156,
          "midi": 51,
          "name": "D#3",
          "ticks": 532800,
          "time": 396.69906462500006,
          "velocity": 0.6929133858267716
        },
        {
          "duration": 0.10833322499996711,
          "durationTicks": 156,
          "midi": 51,
          "name": "D#3",
          "ticks": 533040,
          "time": 396.8657311250001,
          "velocity": 0.6929133858267716
        },
        {
          "duration": 0.10833322500002396,
          "durationTicks": 156,
          "midi": 51,
          "name": "D#3",
          "ticks": 533280,
          "time": 397.03239762500004,
          "velocity": 0.6929133858267716
        },
        {
          "duration": 0.10833322500002396,
          "durationTicks": 156,
          "midi": 51,
          "name": "D#3",
          "ticks": 533520,
          "time": 397.19906412500006,
          "velocity": 0.6929133858267716
        },
        {
          "duration": 0.10833322499996711,
          "durationTicks": 156,
          "midi": 50,
          "name": "D3",
          "ticks": 533760,
          "time": 397.3657306250001,
          "velocity": 0.6929133858267716
        },
        {
          "duration": 0.10833322500002396,
          "durationTicks": 156,
          "midi": 48,
          "name": "C3",
          "ticks": 534000,
          "time": 397.53239712500005,
          "velocity": 0.6929133858267716
        },
        {
          "duration": 0.10833322499996711,
          "durationTicks": 156,
          "midi": 53,
          "name": "F3",
          "ticks": 534240,
          "time": 397.69906362500006,
          "velocity": 0.6929133858267716
        },
        {
          "duration": 0.10833322499996711,
          "durationTicks": 156,
          "midi": 53,
          "name": "F3",
          "ticks": 534480,
          "time": 397.8657301250001,
          "velocity": 0.6929133858267716
        },
        {
          "duration": 0.10833322500002396,
          "durationTicks": 156,
          "midi": 53,
          "name": "F3",
          "ticks": 534720,
          "time": 398.03239662500005,
          "velocity": 0.6929133858267716
        },
        {
          "duration": 0.10833322500002396,
          "durationTicks": 156,
          "midi": 53,
          "name": "F3",
          "ticks": 534960,
          "time": 398.19906312500007,
          "velocity": 0.6929133858267716
        },
        {
          "duration": 0.10833322499996711,
          "durationTicks": 156,
          "midi": 53,
          "name": "F3",
          "ticks": 535200,
          "time": 398.3657296250001,
          "velocity": 0.6929133858267716
        },
        {
          "duration": 0.10833322500002396,
          "durationTicks": 156,
          "midi": 53,
          "name": "F3",
          "ticks": 535440,
          "time": 398.53239612500005,
          "velocity": 0.6929133858267716
        },
        {
          "duration": 0.08055547499998283,
          "durationTicks": 116,
          "midi": 58,
          "name": "A#3",
          "ticks": 535680,
          "time": 398.69906262500007,
          "velocity": 0.7795275590551181
        },
        {
          "duration": 0.08055547499998283,
          "durationTicks": 116,
          "midi": 57,
          "name": "A3",
          "ticks": 535920,
          "time": 398.8657291250001,
          "velocity": 0.7716535433070866
        },
        {
          "duration": 0.08055547500003968,
          "durationTicks": 116,
          "midi": 55,
          "name": "G3",
          "ticks": 536160,
          "time": 399.03239562500005,
          "velocity": 0.7637795275590551
        },
        {
          "duration": 0.08055547499998283,
          "durationTicks": 116,
          "midi": 54,
          "name": "F#3",
          "ticks": 536400,
          "time": 399.19906212500007,
          "velocity": 0.7559055118110236
        },
        {
          "duration": 0.08055547499998283,
          "durationTicks": 116,
          "midi": 55,
          "name": "G3",
          "ticks": 536640,
          "time": 399.3657286250001,
          "velocity": 0.7480314960629921
        },
        {
          "duration": 0.08055547500003968,
          "durationTicks": 116,
          "midi": 52,
          "name": "E3",
          "ticks": 536880,
          "time": 399.53239512500005,
          "velocity": 0.7401574803149606
        },
        {
          "duration": 0.08055547499998283,
          "durationTicks": 116,
          "midi": 53,
          "name": "F3",
          "ticks": 537120,
          "time": 399.69906162500007,
          "velocity": 0.7322834645669292
        },
        {
          "duration": 0.08055547500003968,
          "durationTicks": 116,
          "midi": 50,
          "name": "D3",
          "ticks": 537360,
          "time": 399.86572812500003,
          "velocity": 0.7244094488188977
        },
        {
          "duration": 0.08055547499998283,
          "durationTicks": 116,
          "midi": 51,
          "name": "D#3",
          "ticks": 537600,
          "time": 400.03239462500005,
          "velocity": 0.7165354330708661
        },
        {
          "duration": 0.08055547499998283,
          "durationTicks": 116,
          "midi": 49,
          "name": "C#3",
          "ticks": 537840,
          "time": 400.19906112500007,
          "velocity": 0.7086614173228346
        },
        {
          "duration": 0.08055547499998283,
          "durationTicks": 116,
          "midi": 50,
          "name": "D3",
          "ticks": 538080,
          "time": 400.3657276250001,
          "velocity": 0.7007874015748031
        },
        {
          "duration": 0.08055547500003968,
          "durationTicks": 116,
          "midi": 46,
          "name": "A#2",
          "ticks": 538320,
          "time": 400.53239412500005,
          "velocity": 0.6929133858267716
        },
        {
          "duration": 0.10833322499996711,
          "durationTicks": 156,
          "midi": 51,
          "name": "D#3",
          "ticks": 538560,
          "time": 400.6990606250001,
          "velocity": 0.6929133858267716
        },
        {
          "duration": 0.10833322500002396,
          "durationTicks": 156,
          "midi": 51,
          "name": "D#3",
          "ticks": 538800,
          "time": 400.86572712500003,
          "velocity": 0.6929133858267716
        },
        {
          "duration": 0.10833322500002396,
          "durationTicks": 156,
          "midi": 51,
          "name": "D#3",
          "ticks": 539040,
          "time": 401.03239362500005,
          "velocity": 0.6929133858267716
        },
        {
          "duration": 0.10833322499996711,
          "durationTicks": 156,
          "midi": 51,
          "name": "D#3",
          "ticks": 539280,
          "time": 401.1990601250001,
          "velocity": 0.6929133858267716
        },
        {
          "duration": 0.10833322499996711,
          "durationTicks": 156,
          "midi": 50,
          "name": "D3",
          "ticks": 539520,
          "time": 401.3657266250001,
          "velocity": 0.6929133858267716
        },
        {
          "duration": 0.10833322500002396,
          "durationTicks": 156,
          "midi": 48,
          "name": "C3",
          "ticks": 539760,
          "time": 401.53239312500006,
          "velocity": 0.6929133858267716
        },
        {
          "duration": 0.10833322499996711,
          "durationTicks": 156,
          "midi": 53,
          "name": "F3",
          "ticks": 540000,
          "time": 401.6990596250001,
          "velocity": 0.6929133858267716
        },
        {
          "duration": 0.10833322500002396,
          "durationTicks": 156,
          "midi": 53,
          "name": "F3",
          "ticks": 540240,
          "time": 401.86572612500004,
          "velocity": 0.6929133858267716
        },
        {
          "duration": 0.10833322500002396,
          "durationTicks": 156,
          "midi": 53,
          "name": "F3",
          "ticks": 540480,
          "time": 402.03239262500006,
          "velocity": 0.6929133858267716
        },
        {
          "duration": 0.10833322499996711,
          "durationTicks": 156,
          "midi": 41,
          "name": "F2",
          "ticks": 540720,
          "time": 402.1990591250001,
          "velocity": 0.6929133858267716
        },
        {
          "duration": 0.10833322500002396,
          "durationTicks": 156,
          "midi": 41,
          "name": "F2",
          "ticks": 540960,
          "time": 402.36572562500004,
          "velocity": 0.6929133858267716
        },
        {
          "duration": 0.10833322500002396,
          "durationTicks": 156,
          "midi": 41,
          "name": "F2",
          "ticks": 541200,
          "time": 402.53239212500006,
          "velocity": 0.6929133858267716
        },
        {
          "duration": 0.21944422499996108,
          "durationTicks": 316,
          "midi": 46,
          "name": "A#2",
          "ticks": 541440,
          "time": 402.6990586250001,
          "velocity": 0.5826771653543307
        },
        {
          "duration": 1.997220225000035,
          "durationTicks": 2876,
          "midi": 51,
          "name": "D#3",
          "ticks": 557280,
          "time": 413.69904762500005,
          "velocity": 0.2755905511811024
        },
        {
          "duration": 1.9972202249999782,
          "durationTicks": 2876,
          "midi": 52,
          "name": "E3",
          "ticks": 560160,
          "time": 415.69904562500005,
          "velocity": 0.3543307086614173
        },
        {
          "duration": 0.16388872499999252,
          "durationTicks": 236,
          "midi": 53,
          "name": "F3",
          "ticks": 563040,
          "time": 417.69904362500006,
          "velocity": 0.3543307086614173
        },
        {
          "duration": 0.16388872499999252,
          "durationTicks": 236,
          "midi": 41,
          "name": "F2",
          "ticks": 573120,
          "time": 424.6990366250001,
          "velocity": 0.28346456692913385
        },
        {
          "duration": 0.16388872499999252,
          "durationTicks": 236,
          "midi": 45,
          "name": "A2",
          "ticks": 573600,
          "time": 425.03236962500006,
          "velocity": 0.29133858267716534
        },
        {
          "duration": 0.08055547499998283,
          "durationTicks": 116,
          "midi": 48,
          "name": "C3",
          "ticks": 573840,
          "time": 425.1990361250001,
          "velocity": 0.30708661417322836
        },
        {
          "duration": 0.16388872499999252,
          "durationTicks": 236,
          "midi": 53,
          "name": "F3",
          "ticks": 574320,
          "time": 425.53236912500006,
          "velocity": 0.2755905511811024
        },
        {
          "duration": 0.21944422499996108,
          "durationTicks": 316,
          "midi": 46,
          "name": "A#2",
          "ticks": 574560,
          "time": 425.6990356250001,
          "velocity": 0.2440944881889764
        },
        {
          "duration": 0.21944422499996108,
          "durationTicks": 316,
          "midi": 53,
          "name": "F3",
          "ticks": 576000,
          "time": 426.6990346250001,
          "velocity": 0.2677165354330709
        },
        {
          "duration": 0.21944422499996108,
          "durationTicks": 316,
          "midi": 58,
          "name": "A#3",
          "ticks": 577440,
          "time": 427.6990336250001,
          "velocity": 0.30708661417322836
        },
        {
          "duration": 0.21944422499996108,
          "durationTicks": 316,
          "midi": 53,
          "name": "F3",
          "ticks": 578880,
          "time": 428.6990326250001,
          "velocity": 0.30708661417322836
        },
        {
          "duration": 0.08055547499998283,
          "durationTicks": 116,
          "midi": 46,
          "name": "A#2",
          "ticks": 580320,
          "time": 429.6990316250001,
          "velocity": 0.5196850393700787
        },
        {
          "duration": 0.16388872499999252,
          "durationTicks": 236,
          "midi": 50,
          "name": "D3",
          "ticks": 580800,
          "time": 430.03236462500007,
          "velocity": 0.5275590551181102
        },
        {
          "duration": 0.08055547500003968,
          "durationTicks": 116,
          "midi": 53,
          "name": "F3",
          "ticks": 581040,
          "time": 430.19903112500003,
          "velocity": 0.5433070866141733
        },
        {
          "duration": 0.16388872499999252,
          "durationTicks": 236,
          "midi": 58,
          "name": "A#3",
          "ticks": 581520,
          "time": 430.5323641250001,
          "velocity": 0.5590551181102362
        },
        {
          "duration": 0.08055547499998283,
          "durationTicks": 116,
          "midi": 62,
          "name": "D4",
          "ticks": 581760,
          "time": 430.6990306250001,
          "velocity": 0.5748031496062992
        },
        {
          "duration": 0.08055547500003968,
          "durationTicks": 116,
          "midi": 62,
          "name": "D4",
          "ticks": 582000,
          "time": 430.86569712500005,
          "velocity": 0.5196850393700787
        },
        {
          "duration": 0.08055547499998283,
          "durationTicks": 116,
          "midi": 62,
          "name": "D4",
          "ticks": 582240,
          "time": 431.0323636250001,
          "velocity": 0.5196850393700787
        },
        {
          "duration": 0.08055547500003968,
          "durationTicks": 116,
          "midi": 62,
          "name": "D4",
          "ticks": 582480,
          "time": 431.19903012500004,
          "velocity": 0.5196850393700787
        },
        {
          "duration": 0.08055547499998283,
          "durationTicks": 116,
          "midi": 58,
          "name": "A#3",
          "ticks": 582720,
          "time": 431.36569662500006,
          "velocity": 0.5196850393700787
        },
        {
          "duration": 0.08055547499998283,
          "durationTicks": 116,
          "midi": 53,
          "name": "F3",
          "ticks": 582960,
          "time": 431.5323631250001,
          "velocity": 0.5196850393700787
        },
        {
          "duration": 0.08055547499998283,
          "durationTicks": 116,
          "midi": 65,
          "name": "F4",
          "ticks": 583200,
          "time": 431.6990296250001,
          "velocity": 0.5984251968503937
        },
        {
          "duration": 0.08055547500003968,
          "durationTicks": 116,
          "midi": 65,
          "name": "F4",
          "ticks": 583440,
          "time": 431.86569612500006,
          "velocity": 0.5196850393700787
        },
        {
          "duration": 0.08055547499998283,
          "durationTicks": 116,
          "midi": 65,
          "name": "F4",
          "ticks": 583680,
          "time": 432.0323626250001,
          "velocity": 0.5196850393700787
        },
        {
          "duration": 0.08055547500003968,
          "durationTicks": 116,
          "midi": 65,
          "name": "F4",
          "ticks": 583920,
          "time": 432.19902912500004,
          "velocity": 0.5196850393700787
        },
        {
          "duration": 0.08055547499998283,
          "durationTicks": 116,
          "midi": 62,
          "name": "D4",
          "ticks": 584160,
          "time": 432.36569562500006,
          "velocity": 0.5196850393700787
        },
        {
          "duration": 0.08055547499998283,
          "durationTicks": 116,
          "midi": 58,
          "name": "A#3",
          "ticks": 584400,
          "time": 432.5323621250001,
          "velocity": 0.5196850393700787
        },
        {
          "duration": 0.08055547499998283,
          "durationTicks": 116,
          "midi": 62,
          "name": "D4",
          "ticks": 584640,
          "time": 432.6990286250001,
          "velocity": 0.5984251968503937
        },
        {
          "duration": 0.08055547500003968,
          "durationTicks": 116,
          "midi": 58,
          "name": "A#3",
          "ticks": 584880,
          "time": 432.86569512500006,
          "velocity": 0.5196850393700787
        },
        {
          "duration": 0.08055547499998283,
          "durationTicks": 116,
          "midi": 53,
          "name": "F3",
          "ticks": 585120,
          "time": 433.0323616250001,
          "velocity": 0.5196850393700787
        },
        {
          "duration": 0.08055547500003968,
          "durationTicks": 116,
          "midi": 58,
          "name": "A#3",
          "ticks": 585360,
          "time": 433.19902812500004,
          "velocity": 0.5984251968503937
        },
        {
          "duration": 0.08055547499998283,
          "durationTicks": 116,
          "midi": 53,
          "name": "F3",
          "ticks": 585600,
          "time": 433.36569462500006,
          "velocity": 0.5196850393700787
        },
        {
          "duration": 0.08055547499998283,
          "durationTicks": 116,
          "midi": 50,
          "name": "D3",
          "ticks": 585840,
          "time": 433.5323611250001,
          "velocity": 0.5196850393700787
        },
        {
          "duration": 0.13611097500000824,
          "durationTicks": 196,
          "midi": 46,
          "name": "A#2",
          "ticks": 586080,
          "time": 433.69902762500004,
          "velocity": 0.5196850393700787
        },
        {
          "duration": 0.16388872499999252,
          "durationTicks": 236,
          "midi": 58,
          "name": "A#3",
          "ticks": 586800,
          "time": 434.19902712500004,
          "velocity": 0.5039370078740157
        },
        {
          "duration": 0.2472219750000022,
          "durationTicks": 356,
          "midi": 46,
          "name": "A#2",
          "ticks": 587520,
          "time": 434.69902662500004,
          "velocity": 0.5039370078740157
        }
      ]
    },
    {
      "channel": 0,
      "controlChanges": {
        "0": [
          {
            "number": 0,
            "ticks": 0,
            "time": 0,
            "value": 0.007874015748031496
          }
        ],
        "32": [
          {
            "number": 32,
            "ticks": 0,
            "time": 0,
            "value": 0
          }
        ]
      },
      "pitchBends": [],
      "instrument": {
        "family": "piano",
        "number": 0,
        "name": "acoustic grand piano"
      },
      "name": "Contrabass",
      "notes": [],
      "endOfTrackTicks": 588960
    },
    {
      "channel": 11,
      "controlChanges": {
        "7": [
          {
            "number": 7,
            "ticks": 0,
            "time": 0,
            "value": 1
          },
          {
            "number": 7,
            "ticks": 480720,
            "time": 360.53243412500007,
            "value": 0.8188976377952756
          },
          {
            "number": 7,
            "ticks": 513840,
            "time": 383.53241112500007,
            "value": 1
          }
        ],
        "10": [
          {
            "number": 10,
            "ticks": 0,
            "time": 0,
            "value": 0.5826771653543307
          }
        ],
        "11": [
          {
            "number": 11,
            "ticks": 84,
            "time": 0.058807,
            "value": 1
          },
          {
            "number": 11,
            "ticks": 336180,
            "time": 249.28394899999998,
            "value": 1
          }
        ],
        "73": [
          {
            "number": 73,
            "ticks": 73380,
            "time": 51.372115,
            "value": 0.44881889763779526
          },
          {
            "number": 73,
            "ticks": 99240,
            "time": 69.47627,
            "value": 0.5039370078740157
          }
        ],
        "91": [
          {
            "number": 91,
            "ticks": 88,
            "time": 0.06160733333333333,
            "value": 0.6220472440944882
          }
        ],
        "93": [
          {
            "number": 93,
            "ticks": 88,
            "time": 0.06160733333333333,
            "value": 0.07874015748031496
          }
        ],
        "121": [
          {
            "number": 121,
            "ticks": 80,
            "time": 0.05600666666666666,
            "value": 0
          }
        ]
      },
      "pitchBends": [
        {
          "ticks": 104,
          "time": 0.07280866666666667,
          "value": 0
        }
      ],
      "instrument": {
        "family": "ensemble",
        "number": 48,
        "name": "string ensemble 1"
      },
      "name": "",
      "notes": [
        {
          "duration": 0.22122633333333397,
          "durationTicks": 316,
          "midi": 34,
          "name": "A#1",
          "ticks": 12960,
          "time": 9.073080000000001,
          "velocity": 0.4330708661417323
        },
        {
          "duration": 0.22122633333333397,
          "durationTicks": 316,
          "midi": 46,
          "name": "A#2",
          "ticks": 14400,
          "time": 10.0812,
          "velocity": 0.4330708661417323
        },
        {
          "duration": 0.2212263333333322,
          "durationTicks": 316,
          "midi": 29,
          "name": "F1",
          "ticks": 15840,
          "time": 11.08932,
          "velocity": 0.4330708661417323
        },
        {
          "duration": 0.22122633333333397,
          "durationTicks": 316,
          "midi": 41,
          "name": "F2",
          "ticks": 16560,
          "time": 11.59338,
          "velocity": 0.4330708661417323
        },
        {
          "duration": 0.6692796666666663,
          "durationTicks": 956,
          "midi": 29,
          "name": "F1",
          "ticks": 17280,
          "time": 12.09744,
          "velocity": 0.4330708661417323
        },
        {
          "duration": 0.2212263333333322,
          "durationTicks": 316,
          "midi": 34,
          "name": "A#1",
          "ticks": 18720,
          "time": 13.10556,
          "velocity": 0.4330708661417323
        },
        {
          "duration": 0.22122633333333397,
          "durationTicks": 316,
          "midi": 34,
          "name": "A#1",
          "ticks": 19440,
          "time": 13.60962,
          "velocity": 0.4330708661417323
        },
        {
          "duration": 0.2212263333333322,
          "durationTicks": 316,
          "midi": 34,
          "name": "A#1",
          "ticks": 20160,
          "time": 14.11368,
          "velocity": 0.4330708661417323
        },
        {
          "duration": 0.2212263333333322,
          "durationTicks": 316,
          "midi": 41,
          "name": "F2",
          "ticks": 21600,
          "time": 15.1218,
          "velocity": 0.4330708661417323
        },
        {
          "duration": 0.22122633333333397,
          "durationTicks": 316,
          "midi": 29,
          "name": "F1",
          "ticks": 22320,
          "time": 15.62586,
          "velocity": 0.4330708661417323
        },
        {
          "duration": 0.6412763333333338,
          "durationTicks": 916,
          "midi": 34,
          "name": "A#1",
          "ticks": 23040,
          "time": 16.12992,
          "velocity": 0.4330708661417323
        },
        {
          "duration": 0.1092129999999969,
          "durationTicks": 156,
          "midi": 39,
          "name": "D#2",
          "ticks": 57600,
          "time": 40.3248,
          "velocity": 0.5984251968503937
        },
        {
          "duration": 0.1092129999999969,
          "durationTicks": 156,
          "midi": 39,
          "name": "D#2",
          "ticks": 57840,
          "time": 40.49282,
          "velocity": 0.5196850393700787
        },
        {
          "duration": 0.109213000000004,
          "durationTicks": 156,
          "midi": 39,
          "name": "D#2",
          "ticks": 58080,
          "time": 40.66084,
          "velocity": 0.5196850393700787
        },
        {
          "duration": 0.109213000000004,
          "durationTicks": 156,
          "midi": 38,
          "name": "D2",
          "ticks": 58320,
          "time": 40.82886,
          "velocity": 0.5196850393700787
        },
        {
          "duration": 0.109213000000004,
          "durationTicks": 156,
          "midi": 38,
          "name": "D2",
          "ticks": 58560,
          "time": 40.99688,
          "velocity": 0.5196850393700787
        },
        {
          "duration": 0.1092129999999969,
          "durationTicks": 156,
          "midi": 38,
          "name": "D2",
          "ticks": 58800,
          "time": 41.1649,
          "velocity": 0.5196850393700787
        },
        {
          "duration": 0.1092129999999969,
          "durationTicks": 156,
          "midi": 39,
          "name": "D#2",
          "ticks": 59040,
          "time": 41.33292,
          "velocity": 0.5196850393700787
        },
        {
          "duration": 0.109213000000004,
          "durationTicks": 156,
          "midi": 39,
          "name": "D#2",
          "ticks": 59280,
          "time": 41.50094,
          "velocity": 0.5196850393700787
        },
        {
          "duration": 0.109213000000004,
          "durationTicks": 156,
          "midi": 39,
          "name": "D#2",
          "ticks": 59520,
          "time": 41.66896,
          "velocity": 0.5196850393700787
        },
        {
          "duration": 0.1092129999999969,
          "durationTicks": 156,
          "midi": 39,
          "name": "D#2",
          "ticks": 59760,
          "time": 41.836980000000004,
          "velocity": 0.5196850393700787
        },
        {
          "duration": 0.109213000000004,
          "durationTicks": 156,
          "midi": 41,
          "name": "F2",
          "ticks": 60480,
          "time": 42.34104,
          "velocity": 0.28346456692913385
        },
        {
          "duration": 0.1092129999999969,
          "durationTicks": 156,
          "midi": 29,
          "name": "F1",
          "ticks": 61200,
          "time": 42.8451,
          "velocity": 0.28346456692913385
        },
        {
          "duration": 0.47325633333333883,
          "durationTicks": 676,
          "midi": 34,
          "name": "A#1",
          "ticks": 61920,
          "time": 43.34916,
          "velocity": 0.2047244094488189
        },
        {
          "duration": 0.1092129999999969,
          "durationTicks": 156,
          "midi": 34,
          "name": "A#1",
          "ticks": 62640,
          "time": 43.85322,
          "velocity": 0.28346456692913385
        },
        {
          "duration": 0.1092129999999969,
          "durationTicks": 156,
          "midi": 39,
          "name": "D#2",
          "ticks": 66240,
          "time": 46.37352,
          "velocity": 0.5984251968503937
        },
        {
          "duration": 0.1092129999999969,
          "durationTicks": 156,
          "midi": 39,
          "name": "D#2",
          "ticks": 66480,
          "time": 46.54154,
          "velocity": 0.5196850393700787
        },
        {
          "duration": 0.1092129999999969,
          "durationTicks": 156,
          "midi": 39,
          "name": "D#2",
          "ticks": 66720,
          "time": 46.70956,
          "velocity": 0.5196850393700787
        },
        {
          "duration": 0.1092129999999969,
          "durationTicks": 156,
          "midi": 38,
          "name": "D2",
          "ticks": 66960,
          "time": 46.87758,
          "velocity": 0.5196850393700787
        },
        {
          "duration": 0.1092129999999969,
          "durationTicks": 156,
          "midi": 38,
          "name": "D2",
          "ticks": 67200,
          "time": 47.0456,
          "velocity": 0.5196850393700787
        },
        {
          "duration": 0.1092129999999969,
          "durationTicks": 156,
          "midi": 38,
          "name": "D2",
          "ticks": 67440,
          "time": 47.21362,
          "velocity": 0.5196850393700787
        },
        {
          "duration": 0.9213096666666729,
          "durationTicks": 1316,
          "midi": 39,
          "name": "D#2",
          "ticks": 67680,
          "time": 47.38164,
          "velocity": 0.5196850393700787
        },
        {
          "duration": 0.08120966666666618,
          "durationTicks": 116,
          "midi": 46,
          "name": "A#2",
          "ticks": 73440,
          "time": 51.414120000000004,
          "velocity": 0.6929133858267716
        },
        {
          "duration": 0.08120966666666618,
          "durationTicks": 116,
          "midi": 45,
          "name": "A2",
          "ticks": 73680,
          "time": 51.58214,
          "velocity": 0.6929133858267716
        },
        {
          "duration": 0.08120966666666618,
          "durationTicks": 116,
          "midi": 43,
          "name": "G2",
          "ticks": 73920,
          "time": 51.75016,
          "velocity": 0.6929133858267716
        },
        {
          "duration": 0.08120966666667329,
          "durationTicks": 116,
          "midi": 42,
          "name": "F#2",
          "ticks": 74160,
          "time": 51.91818,
          "velocity": 0.6929133858267716
        },
        {
          "duration": 0.08120966666667329,
          "durationTicks": 116,
          "midi": 43,
          "name": "G2",
          "ticks": 74400,
          "time": 52.0862,
          "velocity": 0.6929133858267716
        },
        {
          "duration": 0.08120966666666618,
          "durationTicks": 116,
          "midi": 40,
          "name": "E2",
          "ticks": 74640,
          "time": 52.254220000000004,
          "velocity": 0.6929133858267716
        },
        {
          "duration": 0.08120966666666618,
          "durationTicks": 116,
          "midi": 41,
          "name": "F2",
          "ticks": 74880,
          "time": 52.42224,
          "velocity": 0.6929133858267716
        },
        {
          "duration": 0.08120966666666618,
          "durationTicks": 116,
          "midi": 38,
          "name": "D2",
          "ticks": 75120,
          "time": 52.59026,
          "velocity": 0.6929133858267716
        },
        {
          "duration": 0.08120966666667329,
          "durationTicks": 116,
          "midi": 39,
          "name": "D#2",
          "ticks": 75360,
          "time": 52.75828,
          "velocity": 0.6929133858267716
        },
        {
          "duration": 0.08120966666667329,
          "durationTicks": 116,
          "midi": 37,
          "name": "C#2",
          "ticks": 75600,
          "time": 52.9263,
          "velocity": 0.6929133858267716
        },
        {
          "duration": 0.08120966666666618,
          "durationTicks": 116,
          "midi": 38,
          "name": "D2",
          "ticks": 75840,
          "time": 53.09432,
          "velocity": 0.6929133858267716
        },
        {
          "duration": 0.08120966666666618,
          "durationTicks": 116,
          "midi": 34,
          "name": "A#1",
          "ticks": 76080,
          "time": 53.26234,
          "velocity": 0.6929133858267716
        },
        {
          "duration": 0.1092129999999969,
          "durationTicks": 156,
          "midi": 39,
          "name": "D#2",
          "ticks": 76320,
          "time": 53.43036,
          "velocity": 0.6929133858267716
        },
        {
          "duration": 0.1092129999999969,
          "durationTicks": 156,
          "midi": 39,
          "name": "D#2",
          "ticks": 76560,
          "time": 53.59838,
          "velocity": 0.6929133858267716
        },
        {
          "duration": 0.10921299999998979,
          "durationTicks": 156,
          "midi": 39,
          "name": "D#2",
          "ticks": 76800,
          "time": 53.766400000000004,
          "velocity": 0.6929133858267716
        },
        {
          "duration": 0.1092129999999969,
          "durationTicks": 156,
          "midi": 39,
          "name": "D#2",
          "ticks": 77040,
          "time": 53.93442,
          "velocity": 0.6929133858267716
        },
        {
          "duration": 0.1092129999999969,
          "durationTicks": 156,
          "midi": 38,
          "name": "D2",
          "ticks": 77280,
          "time": 54.10244,
          "velocity": 0.6929133858267716
        },
        {
          "duration": 0.1092129999999969,
          "durationTicks": 156,
          "midi": 36,
          "name": "C2",
          "ticks": 77520,
          "time": 54.27046,
          "velocity": 0.6929133858267716
        },
        {
          "duration": 0.1092129999999969,
          "durationTicks": 156,
          "midi": 41,
          "name": "F2",
          "ticks": 77760,
          "time": 54.43848,
          "velocity": 0.6929133858267716
        },
        {
          "duration": 0.10921299999998979,
          "durationTicks": 156,
          "midi": 41,
          "name": "F2",
          "ticks": 78000,
          "time": 54.606500000000004,
          "velocity": 0.6929133858267716
        },
        {
          "duration": 0.1092129999999969,
          "durationTicks": 156,
          "midi": 41,
          "name": "F2",
          "ticks": 78240,
          "time": 54.77452,
          "velocity": 0.6929133858267716
        },
        {
          "duration": 0.1092129999999969,
          "durationTicks": 156,
          "midi": 41,
          "name": "F2",
          "ticks": 78480,
          "time": 54.94254,
          "velocity": 0.6929133858267716
        },
        {
          "duration": 0.1092129999999969,
          "durationTicks": 156,
          "midi": 41,
          "name": "F2",
          "ticks": 78720,
          "time": 55.11056,
          "velocity": 0.6929133858267716
        },
        {
          "duration": 0.1092129999999969,
          "durationTicks": 156,
          "midi": 41,
          "name": "F2",
          "ticks": 78960,
          "time": 55.27858,
          "velocity": 0.6929133858267716
        },
        {
          "duration": 0.08120966666666618,
          "durationTicks": 116,
          "midi": 46,
          "name": "A#2",
          "ticks": 79200,
          "time": 55.446600000000004,
          "velocity": 0.6929133858267716
        },
        {
          "duration": 0.08120966666666618,
          "durationTicks": 116,
          "midi": 45,
          "name": "A2",
          "ticks": 79440,
          "time": 55.61462,
          "velocity": 0.6929133858267716
        },
        {
          "duration": 0.08120966666666618,
          "durationTicks": 116,
          "midi": 43,
          "name": "G2",
          "ticks": 79680,
          "time": 55.78264,
          "velocity": 0.6929133858267716
        },
        {
          "duration": 0.08120966666667329,
          "durationTicks": 116,
          "midi": 42,
          "name": "F#2",
          "ticks": 79920,
          "time": 55.95066,
          "velocity": 0.6929133858267716
        },
        {
          "duration": 0.08120966666667329,
          "durationTicks": 116,
          "midi": 43,
          "name": "G2",
          "ticks": 80160,
          "time": 56.11868,
          "velocity": 0.6929133858267716
        },
        {
          "duration": 0.08120966666666618,
          "durationTicks": 116,
          "midi": 40,
          "name": "E2",
          "ticks": 80400,
          "time": 56.2867,
          "velocity": 0.6929133858267716
        },
        {
          "duration": 0.08120966666666618,
          "durationTicks": 116,
          "midi": 41,
          "name": "F2",
          "ticks": 80640,
          "time": 56.45472,
          "velocity": 0.6929133858267716
        },
        {
          "duration": 0.08120966666667329,
          "durationTicks": 116,
          "midi": 38,
          "name": "D2",
          "ticks": 80880,
          "time": 56.62274,
          "velocity": 0.6929133858267716
        },
        {
          "duration": 0.08120966666667329,
          "durationTicks": 116,
          "midi": 39,
          "name": "D#2",
          "ticks": 81120,
          "time": 56.79076,
          "velocity": 0.6929133858267716
        },
        {
          "duration": 0.08120966666666618,
          "durationTicks": 116,
          "midi": 37,
          "name": "C#2",
          "ticks": 81360,
          "time": 56.958780000000004,
          "velocity": 0.6929133858267716
        },
        {
          "duration": 0.08120966666666618,
          "durationTicks": 116,
          "midi": 38,
          "name": "D2",
          "ticks": 81600,
          "time": 57.1268,
          "velocity": 0.6929133858267716
        },
        {
          "duration": 0.08120966666666618,
          "durationTicks": 116,
          "midi": 34,
          "name": "A#1",
          "ticks": 81840,
          "time": 57.29482,
          "velocity": 0.6929133858267716
        },
        {
          "duration": 0.1092129999999969,
          "durationTicks": 156,
          "midi": 39,
          "name": "D#2",
          "ticks": 82080,
          "time": 57.46284,
          "velocity": 0.6929133858267716
        },
        {
          "duration": 0.1092129999999969,
          "durationTicks": 156,
          "midi": 39,
          "name": "D#2",
          "ticks": 82320,
          "time": 57.63086,
          "velocity": 0.6929133858267716
        },
        {
          "duration": 0.10921299999998979,
          "durationTicks": 156,
          "midi": 39,
          "name": "D#2",
          "ticks": 82560,
          "time": 57.798880000000004,
          "velocity": 0.6929133858267716
        },
        {
          "duration": 0.1092129999999969,
          "durationTicks": 156,
          "midi": 39,
          "name": "D#2",
          "ticks": 82800,
          "time": 57.9669,
          "velocity": 0.6929133858267716
        },
        {
          "duration": 0.1092129999999969,
          "durationTicks": 156,
          "midi": 38,
          "name": "D2",
          "ticks": 83040,
          "time": 58.13492,
          "velocity": 0.6929133858267716
        },
        {
          "duration": 0.1092129999999969,
          "durationTicks": 156,
          "midi": 36,
          "name": "C2",
          "ticks": 83280,
          "time": 58.30294,
          "velocity": 0.6929133858267716
        },
        {
          "duration": 0.1092129999999969,
          "durationTicks": 156,
          "midi": 41,
          "name": "F2",
          "ticks": 83520,
          "time": 58.47096,
          "velocity": 0.6929133858267716
        },
        {
          "duration": 0.1092129999999969,
          "durationTicks": 156,
          "midi": 41,
          "name": "F2",
          "ticks": 83760,
          "time": 58.638980000000004,
          "velocity": 0.6929133858267716
        },
        {
          "duration": 0.1092129999999969,
          "durationTicks": 156,
          "midi": 41,
          "name": "F2",
          "ticks": 84000,
          "time": 58.807,
          "velocity": 0.6929133858267716
        },
        {
          "duration": 0.1092129999999969,
          "durationTicks": 156,
          "midi": 29,
          "name": "F1",
          "ticks": 84240,
          "time": 58.97502,
          "velocity": 0.6929133858267716
        },
        {
          "duration": 0.1092129999999969,
          "durationTicks": 156,
          "midi": 29,
          "name": "F1",
          "ticks": 84480,
          "time": 59.14304,
          "velocity": 0.6929133858267716
        },
        {
          "duration": 0.1092129999999969,
          "durationTicks": 156,
          "midi": 29,
          "name": "F1",
          "ticks": 84720,
          "time": 59.31106,
          "velocity": 0.6929133858267716
        },
        {
          "duration": 0.24922966666666468,
          "durationTicks": 356,
          "midi": 34,
          "name": "A#1",
          "ticks": 84960,
          "time": 59.47908,
          "velocity": 0.2677165354330709
        },
        {
          "duration": 0.2492296666666718,
          "durationTicks": 356,
          "midi": 41,
          "name": "F2",
          "ticks": 86400,
          "time": 60.4872,
          "velocity": 0.2677165354330709
        },
        {
          "duration": 0.2492296666666718,
          "durationTicks": 356,
          "midi": 46,
          "name": "A#2",
          "ticks": 87840,
          "time": 61.49532,
          "velocity": 0.2677165354330709
        },
        {
          "duration": 0.2492296666666718,
          "durationTicks": 356,
          "midi": 41,
          "name": "F2",
          "ticks": 89280,
          "time": 62.50344,
          "velocity": 0.2677165354330709
        },
        {
          "duration": 0.16521966666666543,
          "durationTicks": 236,
          "midi": 34,
          "name": "A#1",
          "ticks": 90720,
          "time": 63.51156,
          "velocity": 0.2677165354330709
        },
        {
          "duration": 0.16521966666667254,
          "durationTicks": 236,
          "midi": 46,
          "name": "A#2",
          "ticks": 91440,
          "time": 64.01562,
          "velocity": 0.2677165354330709
        },
        {
          "duration": 0.16521966666667254,
          "durationTicks": 236,
          "midi": 34,
          "name": "A#1",
          "ticks": 92160,
          "time": 64.51968,
          "velocity": 0.2677165354330709
        },
        {
          "duration": 0.053206333333335465,
          "durationTicks": 76,
          "midi": 41,
          "name": "F2",
          "ticks": 110160,
          "time": 77.12118,
          "velocity": 0.1889763779527559
        },
        {
          "duration": 0.053206333333321254,
          "durationTicks": 76,
          "midi": 41,
          "name": "F2",
          "ticks": 110400,
          "time": 77.28920000000001,
          "velocity": 0.1889763779527559
        },
        {
          "duration": 0.053206333333321254,
          "durationTicks": 76,
          "midi": 41,
          "name": "F2",
          "ticks": 110640,
          "time": 77.45722,
          "velocity": 0.1889763779527559
        },
        {
          "duration": 0.24922966666666468,
          "durationTicks": 356,
          "midi": 41,
          "name": "F2",
          "ticks": 110880,
          "time": 77.62524,
          "velocity": 0.1889763779527559
        },
        {
          "duration": 0.053206333333335465,
          "durationTicks": 76,
          "midi": 53,
          "name": "F3",
          "ticks": 111600,
          "time": 78.1293,
          "velocity": 0.1889763779527559
        },
        {
          "duration": 0.053206333333335465,
          "durationTicks": 76,
          "midi": 53,
          "name": "F3",
          "ticks": 111840,
          "time": 78.29732,
          "velocity": 0.1889763779527559
        },
        {
          "duration": 0.053206333333335465,
          "durationTicks": 76,
          "midi": 53,
          "name": "F3",
          "ticks": 112080,
          "time": 78.46534,
          "velocity": 0.1889763779527559
        },
        {
          "duration": 0.2492296666666789,
          "durationTicks": 356,
          "midi": 53,
          "name": "F3",
          "ticks": 112320,
          "time": 78.63336,
          "velocity": 0.1889763779527559
        },
        {
          "duration": 1.005319666666665,
          "durationTicks": 1436,
          "midi": 46,
          "name": "A#2",
          "ticks": 120960,
          "time": 84.68208,
          "velocity": 0.15748031496062992
        },
        {
          "duration": 0.16521966666667254,
          "durationTicks": 236,
          "midi": 45,
          "name": "A2",
          "ticks": 122400,
          "time": 85.6902,
          "velocity": 0.15748031496062992
        },
        {
          "duration": 1.0053196666666793,
          "durationTicks": 1436,
          "midi": 46,
          "name": "A#2",
          "ticks": 123840,
          "time": 86.69832,
          "velocity": 0.15748031496062992
        },
        {
          "duration": 0.16521966666667254,
          "durationTicks": 236,
          "midi": 45,
          "name": "A2",
          "ticks": 125280,
          "time": 87.70644,
          "velocity": 0.15748031496062992
        },
        {
          "duration": 1.005319666666665,
          "durationTicks": 1436,
          "midi": 46,
          "name": "A#2",
          "ticks": 126720,
          "time": 88.71456,
          "velocity": 0.15748031496062992
        },
        {
          "duration": 0.16521966666667254,
          "durationTicks": 236,
          "midi": 43,
          "name": "G2",
          "ticks": 128160,
          "time": 89.72268,
          "velocity": 0.15748031496062992
        },
        {
          "duration": 1.005319666666665,
          "durationTicks": 1436,
          "midi": 44,
          "name": "G#2",
          "ticks": 129600,
          "time": 90.7308,
          "velocity": 0.15748031496062992
        },
        {
          "duration": 1.005319666666665,
          "durationTicks": 1436,
          "midi": 41,
          "name": "F2",
          "ticks": 131040,
          "time": 91.73892000000001,
          "velocity": 0.18110236220472442
        },
        {
          "duration": 1.0053196666666793,
          "durationTicks": 1436,
          "midi": 37,
          "name": "C#2",
          "ticks": 132480,
          "time": 92.74704,
          "velocity": 0.2125984251968504
        },
        {
          "duration": 1.005319666666665,
          "durationTicks": 1436,
          "midi": 49,
          "name": "C#3",
          "ticks": 133920,
          "time": 93.75516,
          "velocity": 0.25196850393700787
        },
        {
          "duration": 0.22122633333334818,
          "durationTicks": 316,
          "midi": 48,
          "name": "C3",
          "ticks": 135360,
          "time": 94.76328,
          "velocity": 0.1968503937007874
        },
        {
          "duration": 0.08120966666666618,
          "durationTicks": 116,
          "midi": 36,
          "name": "C2",
          "ticks": 141120,
          "time": 98.79576,
          "velocity": 0.4094488188976378
        },
        {
          "duration": 0.16521966666667254,
          "durationTicks": 236,
          "midi": 40,
          "name": "E2",
          "ticks": 141600,
          "time": 99.1318,
          "velocity": 0.4566929133858268
        },
        {
          "duration": 0.08120966666668039,
          "durationTicks": 116,
          "midi": 43,
          "name": "G2",
          "ticks": 141840,
          "time": 99.29982,
          "velocity": 0.48031496062992124
        },
        {
          "duration": 0.16521966666665833,
          "durationTicks": 236,
          "midi": 47,
          "name": "B2",
          "ticks": 142320,
          "time": 99.63586000000001,
          "velocity": 0.5275590551181102
        },
        {
          "duration": 0.08120966666666618,
          "durationTicks": 116,
          "midi": 48,
          "name": "C3",
          "ticks": 142560,
          "time": 99.80388,
          "velocity": 0.4881889763779528
        },
        {
          "duration": 0.16521966666667254,
          "durationTicks": 236,
          "midi": 49,
          "name": "C#3",
          "ticks": 143040,
          "time": 100.13992,
          "velocity": 0.2440944881889764
        },
        {
          "duration": 0.08120966666666618,
          "durationTicks": 116,
          "midi": 50,
          "name": "D3",
          "ticks": 143280,
          "time": 100.30794,
          "velocity": 0.23622047244094488
        },
        {
          "duration": 0.16521966666667254,
          "durationTicks": 236,
          "midi": 48,
          "name": "C3",
          "ticks": 143760,
          "time": 100.64398,
          "velocity": 0.2204724409448819
        },
        {
          "duration": 0.08120966666666618,
          "durationTicks": 116,
          "midi": 46,
          "name": "A#2",
          "ticks": 144000,
          "time": 100.812,
          "velocity": 0.2125984251968504
        },
        {
          "duration": 0.16521966666667254,
          "durationTicks": 236,
          "midi": 45,
          "name": "A2",
          "ticks": 144480,
          "time": 101.14804,
          "velocity": 0.1968503937007874
        },
        {
          "duration": 0.08120966666666618,
          "durationTicks": 116,
          "midi": 43,
          "name": "G2",
          "ticks": 144720,
          "time": 101.31606000000001,
          "velocity": 0.18110236220472442
        },
        {
          "duration": 0.9213096666666729,
          "durationTicks": 1316,
          "midi": 41,
          "name": "F2",
          "ticks": 177120,
          "time": 123.99876,
          "velocity": 0.25984251968503935
        },
        {
          "duration": 0.9213096666666729,
          "durationTicks": 1316,
          "midi": 41,
          "name": "F2",
          "ticks": 178560,
          "time": 125.00688,
          "velocity": 0.25984251968503935
        },
        {
          "duration": 0.9213096666666729,
          "durationTicks": 1316,
          "midi": 41,
          "name": "F2",
          "ticks": 180000,
          "time": 126.015,
          "velocity": 0.25984251968503935
        },
        {
          "duration": 0.9213096666666587,
          "durationTicks": 1316,
          "midi": 41,
          "name": "F2",
          "ticks": 181440,
          "time": 127.02312,
          "velocity": 0.25984251968503935
        },
        {
          "duration": 0.33323966666668525,
          "durationTicks": 476,
          "midi": 41,
          "name": "F2",
          "ticks": 182880,
          "time": 128.03124,
          "velocity": 0.3464566929133858
        },
        {
          "duration": 0.08120966666666618,
          "durationTicks": 116,
          "midi": 42,
          "name": "F#2",
          "ticks": 183360,
          "time": 128.36728,
          "velocity": 0.3543307086614173
        },
        {
          "duration": 0.33323966666665683,
          "durationTicks": 476,
          "midi": 41,
          "name": "F2",
          "ticks": 183600,
          "time": 128.5353,
          "velocity": 0.36220472440944884
        },
        {
          "duration": 0.08120966666666618,
          "durationTicks": 116,
          "midi": 42,
          "name": "F#2",
          "ticks": 184080,
          "time": 128.87134,
          "velocity": 0.3779527559055118
        },
        {
          "duration": 0.0812096666666946,
          "durationTicks": 116,
          "midi": 41,
          "name": "F2",
          "ticks": 184320,
          "time": 129.03936,
          "velocity": 0.3858267716535433
        },
        {
          "duration": 0.08120966666666618,
          "durationTicks": 116,
          "midi": 29,
          "name": "F1",
          "ticks": 185040,
          "time": 129.54342,
          "velocity": 0.4094488188976378
        },
        {
          "duration": 0.09055153333332555,
          "durationTicks": 116,
          "midi": 33,
          "name": "A1",
          "ticks": 185760,
          "time": 130.04748,
          "velocity": 0.4330708661417323
        },
        {
          "duration": 0.10262592500001233,
          "durationTicks": 116,
          "midi": 36,
          "name": "C2",
          "ticks": 186480,
          "time": 130.609524,
          "velocity": 0.44881889763779526
        },
        {
          "duration": 0.680717808333327,
          "durationTicks": 956,
          "midi": 41,
          "name": "F2",
          "ticks": 187200,
          "time": 131.2465125,
          "velocity": 0.47244094488188976
        },
        {
          "duration": 0.22122633333333397,
          "durationTicks": 316,
          "midi": 34,
          "name": "A#1",
          "ticks": 226080,
          "time": 167.13212012500003,
          "velocity": 0.4330708661417323
        },
        {
          "duration": 0.22122633333333397,
          "durationTicks": 316,
          "midi": 46,
          "name": "A#2",
          "ticks": 227520,
          "time": 168.14024012500002,
          "velocity": 0.4330708661417323
        },
        {
          "duration": 0.22122633333333397,
          "durationTicks": 316,
          "midi": 29,
          "name": "F1",
          "ticks": 228960,
          "time": 169.148360125,
          "velocity": 0.4330708661417323
        },
        {
          "duration": 0.22122633333333397,
          "durationTicks": 316,
          "midi": 41,
          "name": "F2",
          "ticks": 229680,
          "time": 169.65242012500002,
          "velocity": 0.4330708661417323
        },
        {
          "duration": 0.6692796666666538,
          "durationTicks": 956,
          "midi": 29,
          "name": "F1",
          "ticks": 230400,
          "time": 170.15648012500003,
          "velocity": 0.4330708661417323
        },
        {
          "duration": 0.22122633333333397,
          "durationTicks": 316,
          "midi": 34,
          "name": "A#1",
          "ticks": 231840,
          "time": 171.16460012500002,
          "velocity": 0.4330708661417323
        },
        {
          "duration": 0.22122633333333397,
          "durationTicks": 316,
          "midi": 34,
          "name": "A#1",
          "ticks": 232560,
          "time": 171.668660125,
          "velocity": 0.4330708661417323
        },
        {
          "duration": 0.22122633333333397,
          "durationTicks": 316,
          "midi": 34,
          "name": "A#1",
          "ticks": 233280,
          "time": 172.172720125,
          "velocity": 0.4330708661417323
        },
        {
          "duration": 0.08120966666666618,
          "durationTicks": 116,
          "midi": 36,
          "name": "C2",
          "ticks": 262080,
          "time": 192.335120125,
          "velocity": 0.2755905511811024
        },
        {
          "duration": 0.16521966666664412,
          "durationTicks": 236,
          "midi": 40,
          "name": "E2",
          "ticks": 262560,
          "time": 192.67116012500003,
          "velocity": 0.2755905511811024
        },
        {
          "duration": 0.08120966666666618,
          "durationTicks": 116,
          "midi": 43,
          "name": "G2",
          "ticks": 262800,
          "time": 192.839180125,
          "velocity": 0.2755905511811024
        },
        {
          "duration": 0.16521966666667254,
          "durationTicks": 236,
          "midi": 48,
          "name": "C3",
          "ticks": 263280,
          "time": 193.175220125,
          "velocity": 0.2755905511811024
        },
        {
          "duration": 0.33323966666665683,
          "durationTicks": 476,
          "midi": 41,
          "name": "F2",
          "ticks": 263520,
          "time": 193.34324012500002,
          "velocity": 0.2755905511811024
        },
        {
          "duration": 0.08120966666666618,
          "durationTicks": 116,
          "midi": 31,
          "name": "G1",
          "ticks": 267840,
          "time": 196.36760012500002,
          "velocity": 0.2755905511811024
        },
        {
          "duration": 0.16521966666667254,
          "durationTicks": 236,
          "midi": 35,
          "name": "B1",
          "ticks": 268320,
          "time": 196.70364012500002,
          "velocity": 0.2755905511811024
        },
        {
          "duration": 0.08120966666666618,
          "durationTicks": 116,
          "midi": 38,
          "name": "D2",
          "ticks": 268560,
          "time": 196.871660125,
          "velocity": 0.2755905511811024
        },
        {
          "duration": 0.16521966666664412,
          "durationTicks": 236,
          "midi": 43,
          "name": "G2",
          "ticks": 269040,
          "time": 197.20770012500003,
          "velocity": 0.2755905511811024
        },
        {
          "duration": 0.33323966666665683,
          "durationTicks": 476,
          "midi": 36,
          "name": "C2",
          "ticks": 269280,
          "time": 197.37572012500002,
          "velocity": 0.2755905511811024
        },
        {
          "duration": 0.08120966666666618,
          "durationTicks": 116,
          "midi": 33,
          "name": "A1",
          "ticks": 273600,
          "time": 200.40008012500002,
          "velocity": 0.2755905511811024
        },
        {
          "duration": 0.16521966666667254,
          "durationTicks": 236,
          "midi": 37,
          "name": "C#2",
          "ticks": 274080,
          "time": 200.736120125,
          "velocity": 0.2755905511811024
        },
        {
          "duration": 0.08120966666666618,
          "durationTicks": 116,
          "midi": 40,
          "name": "E2",
          "ticks": 274320,
          "time": 200.90414012500003,
          "velocity": 0.2755905511811024
        },
        {
          "duration": 0.16521966666667254,
          "durationTicks": 236,
          "midi": 45,
          "name": "A2",
          "ticks": 274800,
          "time": 201.24018012500002,
          "velocity": 0.2755905511811024
        },
        {
          "duration": 0.33323966666665683,
          "durationTicks": 476,
          "midi": 38,
          "name": "D2",
          "ticks": 275040,
          "time": 201.408200125,
          "velocity": 0.2755905511811024
        },
        {
          "duration": 0.5012596666666695,
          "durationTicks": 716,
          "midi": 46,
          "name": "A#2",
          "ticks": 276480,
          "time": 202.41632012500003,
          "velocity": 0.2677165354330709
        },
        {
          "duration": 0.5012596666666695,
          "durationTicks": 716,
          "midi": 45,
          "name": "A2",
          "ticks": 277200,
          "time": 202.920380125,
          "velocity": 0.33070866141732286
        },
        {
          "duration": 0.5012596666666695,
          "durationTicks": 716,
          "midi": 44,
          "name": "G#2",
          "ticks": 277920,
          "time": 203.42444012500002,
          "velocity": 0.3858267716535433
        },
        {
          "duration": 0.5012596666666695,
          "durationTicks": 716,
          "midi": 45,
          "name": "A2",
          "ticks": 278640,
          "time": 203.92850012500003,
          "velocity": 0.3228346456692913
        },
        {
          "duration": 0.5012596666666695,
          "durationTicks": 716,
          "midi": 46,
          "name": "A#2",
          "ticks": 279360,
          "time": 204.432560125,
          "velocity": 0.2677165354330709
        },
        {
          "duration": 0.5012596666666695,
          "durationTicks": 716,
          "midi": 45,
          "name": "A2",
          "ticks": 280080,
          "time": 204.93662012500002,
          "velocity": 0.3228346456692913
        },
        {
          "duration": 0.33323966666665683,
          "durationTicks": 476,
          "midi": 44,
          "name": "G#2",
          "ticks": 280800,
          "time": 205.44068012500003,
          "velocity": 0.28346456692913385
        },
        {
          "duration": 2.11467000833332,
          "durationTicks": 956,
          "midi": 38,
          "name": "D2",
          "ticks": 286560,
          "time": 210.095879125,
          "velocity": 0.5039370078740157
        },
        {
          "duration": 0.05442565833331514,
          "durationTicks": 76,
          "midi": 41,
          "name": "F2",
          "ticks": 336240,
          "time": 249.326916625,
          "velocity": 0.2677165354330709
        },
        {
          "duration": 0.05442565833334356,
          "durationTicks": 76,
          "midi": 41,
          "name": "F2",
          "ticks": 336480,
          "time": 249.49878712499998,
          "velocity": 0.1889763779527559
        },
        {
          "duration": 0.05442565833334356,
          "durationTicks": 76,
          "midi": 41,
          "name": "F2",
          "ticks": 336720,
          "time": 249.670657625,
          "velocity": 0.1889763779527559
        },
        {
          "duration": 0.2549412416666428,
          "durationTicks": 356,
          "midi": 41,
          "name": "F2",
          "ticks": 336960,
          "time": 249.842528125,
          "velocity": 0.15748031496062992
        },
        {
          "duration": 0.05442565833334356,
          "durationTicks": 76,
          "midi": 53,
          "name": "F3",
          "ticks": 337680,
          "time": 250.35813962499998,
          "velocity": 0.2677165354330709
        },
        {
          "duration": 0.05442565833334356,
          "durationTicks": 76,
          "midi": 53,
          "name": "F3",
          "ticks": 337920,
          "time": 250.530010125,
          "velocity": 0.1889763779527559
        },
        {
          "duration": 0.05442565833331514,
          "durationTicks": 76,
          "midi": 53,
          "name": "F3",
          "ticks": 338160,
          "time": 250.701880625,
          "velocity": 0.1889763779527559
        },
        {
          "duration": 0.2549412416666712,
          "durationTicks": 356,
          "midi": 53,
          "name": "F3",
          "ticks": 338400,
          "time": 250.87375112499998,
          "velocity": 0.14960629921259844
        },
        {
          "duration": 1.0283584916666655,
          "durationTicks": 1436,
          "midi": 39,
          "name": "D#2",
          "ticks": 347040,
          "time": 257.06108912499997,
          "velocity": 0.15748031496062992
        },
        {
          "duration": 0.16900599166666552,
          "durationTicks": 236,
          "midi": 38,
          "name": "D2",
          "ticks": 348480,
          "time": 258.092312125,
          "velocity": 0.15748031496062992
        },
        {
          "duration": 1.0283584916666655,
          "durationTicks": 1436,
          "midi": 39,
          "name": "D#2",
          "ticks": 349920,
          "time": 259.123535125,
          "velocity": 0.15748031496062992
        },
        {
          "duration": 0.16900599166666552,
          "durationTicks": 236,
          "midi": 38,
          "name": "D2",
          "ticks": 351360,
          "time": 260.154758125,
          "velocity": 0.15748031496062992
        },
        {
          "duration": 1.0283584916666655,
          "durationTicks": 1436,
          "midi": 39,
          "name": "D#2",
          "ticks": 352800,
          "time": 261.185981125,
          "velocity": 0.15748031496062992
        },
        {
          "duration": 0.16900599166666552,
          "durationTicks": 236,
          "midi": 36,
          "name": "C2",
          "ticks": 354240,
          "time": 262.21720412499997,
          "velocity": 0.15748031496062992
        },
        {
          "duration": 1.0283584916666655,
          "durationTicks": 1436,
          "midi": 37,
          "name": "C#2",
          "ticks": 355680,
          "time": 263.248427125,
          "velocity": 0.15748031496062992
        },
        {
          "duration": 1.0283584916666655,
          "durationTicks": 1436,
          "midi": 34,
          "name": "A#1",
          "ticks": 357120,
          "time": 264.279650125,
          "velocity": 0.18110236220472442
        },
        {
          "duration": 1.0283584916666655,
          "durationTicks": 1436,
          "midi": 30,
          "name": "F#1",
          "ticks": 358560,
          "time": 265.310873125,
          "velocity": 0.2125984251968504
        },
        {
          "duration": 1.0283584916666655,
          "durationTicks": 1436,
          "midi": 42,
          "name": "F#2",
          "ticks": 360000,
          "time": 266.342096125,
          "velocity": 0.25196850393700787
        },
        {
          "duration": 0.22629615833335492,
          "durationTicks": 316,
          "midi": 41,
          "name": "F2",
          "ticks": 361440,
          "time": 267.37331912499997,
          "velocity": 0.1968503937007874
        },
        {
          "duration": 0.08307074166663142,
          "durationTicks": 116,
          "midi": 29,
          "name": "F1",
          "ticks": 367200,
          "time": 271.498211125,
          "velocity": 0.4094488188976378
        },
        {
          "duration": 0.16900599166666552,
          "durationTicks": 236,
          "midi": 33,
          "name": "A1",
          "ticks": 367680,
          "time": 271.841952125,
          "velocity": 0.4566929133858268
        },
        {
          "duration": 0.08307074166668826,
          "durationTicks": 116,
          "midi": 36,
          "name": "C2",
          "ticks": 367920,
          "time": 272.013822625,
          "velocity": 0.48031496062992124
        },
        {
          "duration": 0.16900599166666552,
          "durationTicks": 236,
          "midi": 40,
          "name": "E2",
          "ticks": 368400,
          "time": 272.357563625,
          "velocity": 0.5275590551181102
        },
        {
          "duration": 0.08307074166668826,
          "durationTicks": 116,
          "midi": 41,
          "name": "F2",
          "ticks": 368640,
          "time": 272.52943412499997,
          "velocity": 0.4881889763779528
        },
        {
          "duration": 0.16900599166666552,
          "durationTicks": 236,
          "midi": 42,
          "name": "F#2",
          "ticks": 369120,
          "time": 272.873175125,
          "velocity": 0.2440944881889764
        },
        {
          "duration": 0.08307074166663142,
          "durationTicks": 116,
          "midi": 43,
          "name": "G2",
          "ticks": 369360,
          "time": 273.045045625,
          "velocity": 0.23622047244094488
        },
        {
          "duration": 0.16900599166672237,
          "durationTicks": 236,
          "midi": 41,
          "name": "F2",
          "ticks": 369840,
          "time": 273.38878662499997,
          "velocity": 0.2204724409448819
        },
        {
          "duration": 0.08307074166668826,
          "durationTicks": 116,
          "midi": 39,
          "name": "D#2",
          "ticks": 370080,
          "time": 273.560657125,
          "velocity": 0.2125984251968504
        },
        {
          "duration": 0.16900599166666552,
          "durationTicks": 236,
          "midi": 38,
          "name": "D2",
          "ticks": 370560,
          "time": 273.904398125,
          "velocity": 0.1968503937007874
        },
        {
          "duration": 0.08307074166663142,
          "durationTicks": 116,
          "midi": 36,
          "name": "C2",
          "ticks": 370800,
          "time": 274.076268625,
          "velocity": 0.18110236220472442
        },
        {
          "duration": 0.9424232416666314,
          "durationTicks": 1316,
          "midi": 34,
          "name": "A#1",
          "ticks": 403200,
          "time": 297.278786125,
          "velocity": 0.25984251968503935
        },
        {
          "duration": 0.9424232416666882,
          "durationTicks": 1316,
          "midi": 34,
          "name": "A#1",
          "ticks": 404640,
          "time": 298.31000912499997,
          "velocity": 0.25984251968503935
        },
        {
          "duration": 0.9424232416666882,
          "durationTicks": 1316,
          "midi": 34,
          "name": "A#1",
          "ticks": 406080,
          "time": 299.341232125,
          "velocity": 0.25984251968503935
        },
        {
          "duration": 0.9424232416666882,
          "durationTicks": 1316,
          "midi": 34,
          "name": "A#1",
          "ticks": 407520,
          "time": 300.372455125,
          "velocity": 0.25984251968503935
        },
        {
          "duration": 0.16900599166666552,
          "durationTicks": 236,
          "midi": 35,
          "name": "B1",
          "ticks": 408960,
          "time": 301.403678125,
          "velocity": 0.33858267716535434
        },
        {
          "duration": 0.16900599166666552,
          "durationTicks": 236,
          "midi": 36,
          "name": "C2",
          "ticks": 409680,
          "time": 301.919289625,
          "velocity": 0.36220472440944884
        },
        {
          "duration": 0.16900599166666552,
          "durationTicks": 236,
          "midi": 33,
          "name": "A1",
          "ticks": 410400,
          "time": 302.434901125,
          "velocity": 0.3858267716535433
        },
        {
          "duration": 0.16900599166666552,
          "durationTicks": 236,
          "midi": 34,
          "name": "A#1",
          "ticks": 411120,
          "time": 302.950512625,
          "velocity": 0.41732283464566927
        },
        {
          "duration": 0.6846174916666996,
          "durationTicks": 956,
          "midi": 39,
          "name": "D#2",
          "ticks": 411840,
          "time": 303.46612412499996,
          "velocity": 0.5511811023622047
        },
        {
          "duration": 0.11171582499997612,
          "durationTicks": 156,
          "midi": 43,
          "name": "G2",
          "ticks": 412800,
          "time": 304.153606125,
          "velocity": 0.49606299212598426
        },
        {
          "duration": 0.11171582500003296,
          "durationTicks": 156,
          "midi": 41,
          "name": "F2",
          "ticks": 413040,
          "time": 304.32547662499996,
          "velocity": 0.5039370078740157
        },
        {
          "duration": 0.6846174916666996,
          "durationTicks": 956,
          "midi": 39,
          "name": "D#2",
          "ticks": 413280,
          "time": 304.497347125,
          "velocity": 0.5984251968503937
        },
        {
          "duration": 0.11171582500003296,
          "durationTicks": 156,
          "midi": 43,
          "name": "G2",
          "ticks": 414240,
          "time": 305.18482912499996,
          "velocity": 0.5511811023622047
        },
        {
          "duration": 0.11171582500003296,
          "durationTicks": 156,
          "midi": 41,
          "name": "F2",
          "ticks": 414480,
          "time": 305.356699625,
          "velocity": 0.5590551181102362
        },
        {
          "duration": 0.11171582500003296,
          "durationTicks": 156,
          "midi": 39,
          "name": "D#2",
          "ticks": 414720,
          "time": 305.528570125,
          "velocity": 0.5669291338582677
        },
        {
          "duration": 0.11171582499997612,
          "durationTicks": 156,
          "midi": 39,
          "name": "D#2",
          "ticks": 414960,
          "time": 305.700440625,
          "velocity": 0.5748031496062992
        },
        {
          "duration": 0.11171582499997612,
          "durationTicks": 156,
          "midi": 41,
          "name": "F2",
          "ticks": 415200,
          "time": 305.872311125,
          "velocity": 0.5905511811023622
        },
        {
          "duration": 0.12177619999999933,
          "durationTicks": 156,
          "midi": 43,
          "name": "G2",
          "ticks": 415440,
          "time": 306.04418162499996,
          "velocity": 0.6141732283464567
        },
        {
          "duration": 0.12177619999999933,
          "durationTicks": 156,
          "midi": 43,
          "name": "G2",
          "ticks": 415680,
          "time": 306.23152962499995,
          "velocity": 0.6299212598425197
        },
        {
          "duration": 0.12177620000005618,
          "durationTicks": 156,
          "midi": 45,
          "name": "A2",
          "ticks": 415920,
          "time": 306.41887762499994,
          "velocity": 0.6456692913385826
        },
        {
          "duration": 0.12938769999999522,
          "durationTicks": 156,
          "midi": 46,
          "name": "A#2",
          "ticks": 416160,
          "time": 306.606225625,
          "velocity": 0.6614173228346457
        },
        {
          "duration": 0.13801417500002344,
          "durationTicks": 156,
          "midi": 46,
          "name": "A#2",
          "ticks": 416400,
          "time": 306.80528362499996,
          "velocity": 0.6456692913385826
        },
        {
          "duration": 0.14787304999998696,
          "durationTicks": 156,
          "midi": 45,
          "name": "A2",
          "ticks": 416640,
          "time": 307.01761312499997,
          "velocity": 0.6456692913385826
        },
        {
          "duration": 0.15924869999997782,
          "durationTicks": 156,
          "midi": 43,
          "name": "G2",
          "ticks": 416880,
          "time": 307.245110125,
          "velocity": 0.6456692913385826
        },
        {
          "duration": 0.1725207250000267,
          "durationTicks": 156,
          "midi": 41,
          "name": "F2",
          "ticks": 417120,
          "time": 307.490108125,
          "velocity": 0.6456692913385826
        },
        {
          "duration": 0.20702825000000757,
          "durationTicks": 156,
          "midi": 40,
          "name": "E2",
          "ticks": 417360,
          "time": 307.755524625,
          "velocity": 0.6456692913385826
        },
        {
          "duration": 0.902472199999977,
          "durationTicks": 476,
          "midi": 41,
          "name": "F2",
          "ticks": 417600,
          "time": 308.07402962500004,
          "velocity": 0.6456692913385826
        },
        {
          "duration": 4.4972177249999845,
          "durationTicks": 6476,
          "midi": 41,
          "name": "F2",
          "ticks": 480960,
          "time": 360.6991006250001,
          "velocity": 0.18110236220472442
        },
        {
          "duration": 0.49722172500003126,
          "durationTicks": 716,
          "midi": 42,
          "name": "F#2",
          "ticks": 487440,
          "time": 365.19909612500004,
          "velocity": 0.25984251968503935
        },
        {
          "duration": 0.6638882250000506,
          "durationTicks": 956,
          "midi": 43,
          "name": "G2",
          "ticks": 488160,
          "time": 365.69909562500004,
          "velocity": 0.33858267716535434
        },
        {
          "duration": 0.49722172500003126,
          "durationTicks": 716,
          "midi": 48,
          "name": "C3",
          "ticks": 490320,
          "time": 367.19909412500004,
          "velocity": 0.2755905511811024
        },
        {
          "duration": 0.16388872499999252,
          "durationTicks": 236,
          "midi": 53,
          "name": "F3",
          "ticks": 491040,
          "time": 367.69909362500005,
          "velocity": 0.2755905511811024
        },
        {
          "duration": 0.49722172500003126,
          "durationTicks": 716,
          "midi": 48,
          "name": "C3",
          "ticks": 493200,
          "time": 369.19909212500005,
          "velocity": 0.2755905511811024
        },
        {
          "duration": 0.16388872499999252,
          "durationTicks": 236,
          "midi": 53,
          "name": "F3",
          "ticks": 493920,
          "time": 369.69909162500005,
          "velocity": 0.2755905511811024
        },
        {
          "duration": 0.49722172500003126,
          "durationTicks": 716,
          "midi": 48,
          "name": "C3",
          "ticks": 496080,
          "time": 371.19909012500005,
          "velocity": 0.2755905511811024
        },
        {
          "duration": 0.16388872499999252,
          "durationTicks": 236,
          "midi": 53,
          "name": "F3",
          "ticks": 496800,
          "time": 371.69908962500006,
          "velocity": 0.2755905511811024
        },
        {
          "duration": 0.16388872499999252,
          "durationTicks": 236,
          "midi": 46,
          "name": "A#2",
          "ticks": 502560,
          "time": 375.69908562500007,
          "velocity": 0.25984251968503935
        },
        {
          "duration": 0.16388872499999252,
          "durationTicks": 236,
          "midi": 46,
          "name": "A#2",
          "ticks": 504000,
          "time": 376.69908462500007,
          "velocity": 0.25984251968503935
        },
        {
          "duration": 0.16388872499999252,
          "durationTicks": 236,
          "midi": 41,
          "name": "F2",
          "ticks": 505440,
          "time": 377.69908362500007,
          "velocity": 0.25984251968503935
        },
        {
          "duration": 0.16388872499999252,
          "durationTicks": 236,
          "midi": 41,
          "name": "F2",
          "ticks": 506160,
          "time": 378.1990831250001,
          "velocity": 0.25984251968503935
        },
        {
          "duration": 0.5805549749999841,
          "durationTicks": 836,
          "midi": 41,
          "name": "F2",
          "ticks": 506880,
          "time": 378.6990826250001,
          "velocity": 0.25984251968503935
        },
        {
          "duration": 0.16388872499999252,
          "durationTicks": 236,
          "midi": 34,
          "name": "A#1",
          "ticks": 508320,
          "time": 379.6990816250001,
          "velocity": 0.25984251968503935
        },
        {
          "duration": 0.16388872499999252,
          "durationTicks": 236,
          "midi": 34,
          "name": "A#1",
          "ticks": 509040,
          "time": 380.1990811250001,
          "velocity": 0.25984251968503935
        },
        {
          "duration": 0.5805549749999841,
          "durationTicks": 836,
          "midi": 34,
          "name": "A#1",
          "ticks": 509760,
          "time": 380.6990806250001,
          "velocity": 0.25984251968503935
        },
        {
          "duration": 0.16388872499999252,
          "durationTicks": 236,
          "midi": 41,
          "name": "F2",
          "ticks": 511200,
          "time": 381.6990796250001,
          "velocity": 0.25984251968503935
        },
        {
          "duration": 0.16388872499999252,
          "durationTicks": 236,
          "midi": 29,
          "name": "F1",
          "ticks": 511920,
          "time": 382.1990791250001,
          "velocity": 0.25984251968503935
        },
        {
          "duration": 0.6638882249999938,
          "durationTicks": 956,
          "midi": 34,
          "name": "A#1",
          "ticks": 512640,
          "time": 382.6990786250001,
          "velocity": 0.25984251968503935
        },
        {
          "duration": 0.10833322499996711,
          "durationTicks": 156,
          "midi": 39,
          "name": "D#2",
          "ticks": 514080,
          "time": 383.6990776250001,
          "velocity": 0.5984251968503937
        },
        {
          "duration": 0.10833322500002396,
          "durationTicks": 156,
          "midi": 39,
          "name": "D#2",
          "ticks": 514320,
          "time": 383.86574412500005,
          "velocity": 0.5196850393700787
        },
        {
          "duration": 0.10833322499996711,
          "durationTicks": 156,
          "midi": 39,
          "name": "D#2",
          "ticks": 514560,
          "time": 384.03241062500007,
          "velocity": 0.5196850393700787
        },
        {
          "duration": 0.10833322499996711,
          "durationTicks": 156,
          "midi": 38,
          "name": "D2",
          "ticks": 514800,
          "time": 384.1990771250001,
          "velocity": 0.5196850393700787
        },
        {
          "duration": 0.10833322500002396,
          "durationTicks": 156,
          "midi": 38,
          "name": "D2",
          "ticks": 515040,
          "time": 384.36574362500005,
          "velocity": 0.5196850393700787
        },
        {
          "duration": 0.10833322500002396,
          "durationTicks": 156,
          "midi": 38,
          "name": "D2",
          "ticks": 515280,
          "time": 384.53241012500007,
          "velocity": 0.5196850393700787
        },
        {
          "duration": 0.10833322499996711,
          "durationTicks": 156,
          "midi": 39,
          "name": "D#2",
          "ticks": 515520,
          "time": 384.6990766250001,
          "velocity": 0.5196850393700787
        },
        {
          "duration": 0.10833322500002396,
          "durationTicks": 156,
          "midi": 39,
          "name": "D#2",
          "ticks": 515760,
          "time": 384.86574312500005,
          "velocity": 0.5196850393700787
        },
        {
          "duration": 0.10833322499996711,
          "durationTicks": 156,
          "midi": 39,
          "name": "D#2",
          "ticks": 516000,
          "time": 385.03240962500007,
          "velocity": 0.5196850393700787
        },
        {
          "duration": 0.10833322500002396,
          "durationTicks": 156,
          "midi": 39,
          "name": "D#2",
          "ticks": 516240,
          "time": 385.19907612500003,
          "velocity": 0.5196850393700787
        },
        {
          "duration": 0.10833322499996711,
          "durationTicks": 156,
          "midi": 41,
          "name": "F2",
          "ticks": 516960,
          "time": 385.6990756250001,
          "velocity": 0.28346456692913385
        },
        {
          "duration": 0.10833322500002396,
          "durationTicks": 156,
          "midi": 29,
          "name": "F1",
          "ticks": 517680,
          "time": 386.19907512500004,
          "velocity": 0.28346456692913385
        },
        {
          "duration": 0.46944397499999013,
          "durationTicks": 676,
          "midi": 34,
          "name": "A#1",
          "ticks": 518400,
          "time": 386.6990746250001,
          "velocity": 0.2047244094488189
        },
        {
          "duration": 0.16388872499999252,
          "durationTicks": 236,
          "midi": 34,
          "name": "A#1",
          "ticks": 519120,
          "time": 387.19907412500004,
          "velocity": 0.2047244094488189
        },
        {
          "duration": 0.10833322500002396,
          "durationTicks": 156,
          "midi": 39,
          "name": "D#2",
          "ticks": 522720,
          "time": 389.69907162500004,
          "velocity": 0.5984251968503937
        },
        {
          "duration": 0.10833322500002396,
          "durationTicks": 156,
          "midi": 39,
          "name": "D#2",
          "ticks": 522960,
          "time": 389.86573812500006,
          "velocity": 0.5196850393700787
        },
        {
          "duration": 0.10833322499996711,
          "durationTicks": 156,
          "midi": 39,
          "name": "D#2",
          "ticks": 523200,
          "time": 390.0324046250001,
          "velocity": 0.5196850393700787
        },
        {
          "duration": 0.10833322500002396,
          "durationTicks": 156,
          "midi": 38,
          "name": "D2",
          "ticks": 523440,
          "time": 390.19907112500005,
          "velocity": 0.5196850393700787
        },
        {
          "duration": 0.10833322500002396,
          "durationTicks": 156,
          "midi": 38,
          "name": "D2",
          "ticks": 523680,
          "time": 390.36573762500007,
          "velocity": 0.5196850393700787
        },
        {
          "duration": 0.10833322499996711,
          "durationTicks": 156,
          "midi": 38,
          "name": "D2",
          "ticks": 523920,
          "time": 390.5324041250001,
          "velocity": 0.5196850393700787
        },
        {
          "duration": 0.8583324749999974,
          "durationTicks": 1236,
          "midi": 39,
          "name": "D#2",
          "ticks": 524160,
          "time": 390.69907062500005,
          "velocity": 0.5196850393700787
        },
        {
          "duration": 0.08055547499998283,
          "durationTicks": 116,
          "midi": 46,
          "name": "A#2",
          "ticks": 529920,
          "time": 394.69906662500006,
          "velocity": 0.6929133858267716
        },
        {
          "duration": 0.08055547499998283,
          "durationTicks": 116,
          "midi": 45,
          "name": "A2",
          "ticks": 530160,
          "time": 394.8657331250001,
          "velocity": 0.6929133858267716
        },
        {
          "duration": 0.08055547500003968,
          "durationTicks": 116,
          "midi": 43,
          "name": "G2",
          "ticks": 530400,
          "time": 395.03239962500004,
          "velocity": 0.6929133858267716
        },
        {
          "duration": 0.08055547499998283,
          "durationTicks": 116,
          "midi": 42,
          "name": "F#2",
          "ticks": 530640,
          "time": 395.19906612500006,
          "velocity": 0.6929133858267716
        },
        {
          "duration": 0.08055547499998283,
          "durationTicks": 116,
          "midi": 43,
          "name": "G2",
          "ticks": 530880,
          "time": 395.3657326250001,
          "velocity": 0.6929133858267716
        },
        {
          "duration": 0.08055547500003968,
          "durationTicks": 116,
          "midi": 40,
          "name": "E2",
          "ticks": 531120,
          "time": 395.53239912500004,
          "velocity": 0.6929133858267716
        },
        {
          "duration": 0.08055547499998283,
          "durationTicks": 116,
          "midi": 41,
          "name": "F2",
          "ticks": 531360,
          "time": 395.69906562500006,
          "velocity": 0.6929133858267716
        },
        {
          "duration": 0.08055547499998283,
          "durationTicks": 116,
          "midi": 38,
          "name": "D2",
          "ticks": 531600,
          "time": 395.8657321250001,
          "velocity": 0.6929133858267716
        },
        {
          "duration": 0.08055547500003968,
          "durationTicks": 116,
          "midi": 39,
          "name": "D#2",
          "ticks": 531840,
          "time": 396.03239862500004,
          "velocity": 0.6929133858267716
        },
        {
          "duration": 0.08055547499998283,
          "durationTicks": 116,
          "midi": 37,
          "name": "C#2",
          "ticks": 532080,
          "time": 396.19906512500006,
          "velocity": 0.6929133858267716
        },
        {
          "duration": 0.08055547499998283,
          "durationTicks": 116,
          "midi": 38,
          "name": "D2",
          "ticks": 532320,
          "time": 396.3657316250001,
          "velocity": 0.6929133858267716
        },
        {
          "duration": 0.08055547500003968,
          "durationTicks": 116,
          "midi": 34,
          "name": "A#1",
          "ticks": 532560,
          "time": 396.53239812500004,
          "velocity": 0.6929133858267716
        },
        {
          "duration": 0.10833322499996711,
          "durationTicks": 156,
          "midi": 39,
          "name": "D#2",
          "ticks": 532800,
          "time": 396.69906462500006,
          "velocity": 0.6929133858267716
        },
        {
          "duration": 0.10833322499996711,
          "durationTicks": 156,
          "midi": 39,
          "name": "D#2",
          "ticks": 533040,
          "time": 396.8657311250001,
          "velocity": 0.6929133858267716
        },
        {
          "duration": 0.10833322500002396,
          "durationTicks": 156,
          "midi": 39,
          "name": "D#2",
          "ticks": 533280,
          "time": 397.03239762500004,
          "velocity": 0.6929133858267716
        },
        {
          "duration": 0.10833322500002396,
          "durationTicks": 156,
          "midi": 39,
          "name": "D#2",
          "ticks": 533520,
          "time": 397.19906412500006,
          "velocity": 0.6929133858267716
        },
        {
          "duration": 0.10833322499996711,
          "durationTicks": 156,
          "midi": 38,
          "name": "D2",
          "ticks": 533760,
          "time": 397.3657306250001,
          "velocity": 0.6929133858267716
        },
        {
          "duration": 0.10833322500002396,
          "durationTicks": 156,
          "midi": 36,
          "name": "C2",
          "ticks": 534000,
          "time": 397.53239712500005,
          "velocity": 0.6929133858267716
        },
        {
          "duration": 0.10833322499996711,
          "durationTicks": 156,
          "midi": 41,
          "name": "F2",
          "ticks": 534240,
          "time": 397.69906362500006,
          "velocity": 0.6929133858267716
        },
        {
          "duration": 0.10833322499996711,
          "durationTicks": 156,
          "midi": 41,
          "name": "F2",
          "ticks": 534480,
          "time": 397.8657301250001,
          "velocity": 0.6929133858267716
        },
        {
          "duration": 0.10833322500002396,
          "durationTicks": 156,
          "midi": 41,
          "name": "F2",
          "ticks": 534720,
          "time": 398.03239662500005,
          "velocity": 0.6929133858267716
        },
        {
          "duration": 0.10833322500002396,
          "durationTicks": 156,
          "midi": 41,
          "name": "F2",
          "ticks": 534960,
          "time": 398.19906312500007,
          "velocity": 0.6929133858267716
        },
        {
          "duration": 0.10833322499996711,
          "durationTicks": 156,
          "midi": 41,
          "name": "F2",
          "ticks": 535200,
          "time": 398.3657296250001,
          "velocity": 0.6929133858267716
        },
        {
          "duration": 0.10833322500002396,
          "durationTicks": 156,
          "midi": 41,
          "name": "F2",
          "ticks": 535440,
          "time": 398.53239612500005,
          "velocity": 0.6929133858267716
        },
        {
          "duration": 0.08055547499998283,
          "durationTicks": 116,
          "midi": 46,
          "name": "A#2",
          "ticks": 535680,
          "time": 398.69906262500007,
          "velocity": 0.6929133858267716
        },
        {
          "duration": 0.08055547499998283,
          "durationTicks": 116,
          "midi": 45,
          "name": "A2",
          "ticks": 535920,
          "time": 398.8657291250001,
          "velocity": 0.6929133858267716
        },
        {
          "duration": 0.08055547500003968,
          "durationTicks": 116,
          "midi": 43,
          "name": "G2",
          "ticks": 536160,
          "time": 399.03239562500005,
          "velocity": 0.6929133858267716
        },
        {
          "duration": 0.08055547499998283,
          "durationTicks": 116,
          "midi": 42,
          "name": "F#2",
          "ticks": 536400,
          "time": 399.19906212500007,
          "velocity": 0.6929133858267716
        },
        {
          "duration": 0.08055547499998283,
          "durationTicks": 116,
          "midi": 43,
          "name": "G2",
          "ticks": 536640,
          "time": 399.3657286250001,
          "velocity": 0.6929133858267716
        },
        {
          "duration": 0.08055547500003968,
          "durationTicks": 116,
          "midi": 40,
          "name": "E2",
          "ticks": 536880,
          "time": 399.53239512500005,
          "velocity": 0.6929133858267716
        },
        {
          "duration": 0.08055547499998283,
          "durationTicks": 116,
          "midi": 41,
          "name": "F2",
          "ticks": 537120,
          "time": 399.69906162500007,
          "velocity": 0.6929133858267716
        },
        {
          "duration": 0.08055547500003968,
          "durationTicks": 116,
          "midi": 38,
          "name": "D2",
          "ticks": 537360,
          "time": 399.86572812500003,
          "velocity": 0.6929133858267716
        },
        {
          "duration": 0.08055547499998283,
          "durationTicks": 116,
          "midi": 39,
          "name": "D#2",
          "ticks": 537600,
          "time": 400.03239462500005,
          "velocity": 0.6929133858267716
        },
        {
          "duration": 0.08055547499998283,
          "durationTicks": 116,
          "midi": 37,
          "name": "C#2",
          "ticks": 537840,
          "time": 400.19906112500007,
          "velocity": 0.6929133858267716
        },
        {
          "duration": 0.08055547499998283,
          "durationTicks": 116,
          "midi": 38,
          "name": "D2",
          "ticks": 538080,
          "time": 400.3657276250001,
          "velocity": 0.6929133858267716
        },
        {
          "duration": 0.08055547500003968,
          "durationTicks": 116,
          "midi": 34,
          "name": "A#1",
          "ticks": 538320,
          "time": 400.53239412500005,
          "velocity": 0.6929133858267716
        },
        {
          "duration": 0.10833322499996711,
          "durationTicks": 156,
          "midi": 39,
          "name": "D#2",
          "ticks": 538560,
          "time": 400.6990606250001,
          "velocity": 0.6929133858267716
        },
        {
          "duration": 0.10833322500002396,
          "durationTicks": 156,
          "midi": 39,
          "name": "D#2",
          "ticks": 538800,
          "time": 400.86572712500003,
          "velocity": 0.6929133858267716
        },
        {
          "duration": 0.10833322500002396,
          "durationTicks": 156,
          "midi": 39,
          "name": "D#2",
          "ticks": 539040,
          "time": 401.03239362500005,
          "velocity": 0.6929133858267716
        },
        {
          "duration": 0.10833322499996711,
          "durationTicks": 156,
          "midi": 39,
          "name": "D#2",
          "ticks": 539280,
          "time": 401.1990601250001,
          "velocity": 0.6929133858267716
        },
        {
          "duration": 0.10833322499996711,
          "durationTicks": 156,
          "midi": 38,
          "name": "D2",
          "ticks": 539520,
          "time": 401.3657266250001,
          "velocity": 0.6929133858267716
        },
        {
          "duration": 0.10833322500002396,
          "durationTicks": 156,
          "midi": 36,
          "name": "C2",
          "ticks": 539760,
          "time": 401.53239312500006,
          "velocity": 0.6929133858267716
        },
        {
          "duration": 0.10833322499996711,
          "durationTicks": 156,
          "midi": 41,
          "name": "F2",
          "ticks": 540000,
          "time": 401.6990596250001,
          "velocity": 0.6929133858267716
        },
        {
          "duration": 0.10833322500002396,
          "durationTicks": 156,
          "midi": 41,
          "name": "F2",
          "ticks": 540240,
          "time": 401.86572612500004,
          "velocity": 0.6929133858267716
        },
        {
          "duration": 0.10833322500002396,
          "durationTicks": 156,
          "midi": 41,
          "name": "F2",
          "ticks": 540480,
          "time": 402.03239262500006,
          "velocity": 0.6929133858267716
        },
        {
          "duration": 0.10833322499996711,
          "durationTicks": 156,
          "midi": 29,
          "name": "F1",
          "ticks": 540720,
          "time": 402.1990591250001,
          "velocity": 0.6929133858267716
        },
        {
          "duration": 0.10833322500002396,
          "durationTicks": 156,
          "midi": 29,
          "name": "F1",
          "ticks": 540960,
          "time": 402.36572562500004,
          "velocity": 0.6929133858267716
        },
        {
          "duration": 0.10833322500002396,
          "durationTicks": 156,
          "midi": 29,
          "name": "F1",
          "ticks": 541200,
          "time": 402.53239212500006,
          "velocity": 0.6929133858267716
        },
        {
          "duration": 0.1916664749999768,
          "durationTicks": 276,
          "midi": 34,
          "name": "A#1",
          "ticks": 541440,
          "time": 402.6990586250001,
          "velocity": 0.5039370078740157
        },
        {
          "duration": 1.997220225000035,
          "durationTicks": 2876,
          "midi": 39,
          "name": "D#2",
          "ticks": 557280,
          "time": 413.69904762500005,
          "velocity": 0.2755905511811024
        },
        {
          "duration": 1.9972202249999782,
          "durationTicks": 2876,
          "midi": 40,
          "name": "E2",
          "ticks": 560160,
          "time": 415.69904562500005,
          "velocity": 0.3543307086614173
        },
        {
          "duration": 0.16388872499999252,
          "durationTicks": 236,
          "midi": 41,
          "name": "F2",
          "ticks": 563040,
          "time": 417.69904362500006,
          "velocity": 0.3543307086614173
        },
        {
          "duration": 0.08055547499998283,
          "durationTicks": 116,
          "midi": 29,
          "name": "F1",
          "ticks": 573120,
          "time": 424.6990366250001,
          "velocity": 0.31496062992125984
        },
        {
          "duration": 0.16388872499999252,
          "durationTicks": 236,
          "midi": 33,
          "name": "A1",
          "ticks": 573600,
          "time": 425.03236962500006,
          "velocity": 0.31496062992125984
        },
        {
          "duration": 0.08055547499998283,
          "durationTicks": 116,
          "midi": 36,
          "name": "C2",
          "ticks": 573840,
          "time": 425.1990361250001,
          "velocity": 0.31496062992125984
        },
        {
          "duration": 0.16388872499999252,
          "durationTicks": 236,
          "midi": 41,
          "name": "F2",
          "ticks": 574320,
          "time": 425.53236912500006,
          "velocity": 0.2755905511811024
        },
        {
          "duration": 0.21944422499996108,
          "durationTicks": 316,
          "midi": 34,
          "name": "A#1",
          "ticks": 574560,
          "time": 425.6990356250001,
          "velocity": 0.2440944881889764
        },
        {
          "duration": 0.21944422499996108,
          "durationTicks": 316,
          "midi": 41,
          "name": "F2",
          "ticks": 576000,
          "time": 426.6990346250001,
          "velocity": 0.2677165354330709
        },
        {
          "duration": 0.21944422499996108,
          "durationTicks": 316,
          "midi": 46,
          "name": "A#2",
          "ticks": 577440,
          "time": 427.6990336250001,
          "velocity": 0.30708661417322836
        },
        {
          "duration": 0.21944422499996108,
          "durationTicks": 316,
          "midi": 41,
          "name": "F2",
          "ticks": 578880,
          "time": 428.6990326250001,
          "velocity": 0.30708661417322836
        },
        {
          "duration": 0.08055547499998283,
          "durationTicks": 116,
          "midi": 34,
          "name": "A#1",
          "ticks": 580320,
          "time": 429.6990316250001,
          "velocity": 0.5196850393700787
        },
        {
          "duration": 0.16388872499999252,
          "durationTicks": 236,
          "midi": 38,
          "name": "D2",
          "ticks": 580800,
          "time": 430.03236462500007,
          "velocity": 0.5433070866141733
        },
        {
          "duration": 0.08055547500003968,
          "durationTicks": 116,
          "midi": 41,
          "name": "F2",
          "ticks": 581040,
          "time": 430.19903112500003,
          "velocity": 0.5590551181102362
        },
        {
          "duration": 0.16388872499999252,
          "durationTicks": 236,
          "midi": 46,
          "name": "A#2",
          "ticks": 581520,
          "time": 430.5323641250001,
          "velocity": 0.5826771653543307
        },
        {
          "duration": 0.08055547499998283,
          "durationTicks": 116,
          "midi": 50,
          "name": "D3",
          "ticks": 581760,
          "time": 430.6990306250001,
          "velocity": 0.6535433070866141
        },
        {
          "duration": 0.08055547500003968,
          "durationTicks": 116,
          "midi": 50,
          "name": "D3",
          "ticks": 582000,
          "time": 430.86569712500005,
          "velocity": 0.5669291338582677
        },
        {
          "duration": 0.08055547499998283,
          "durationTicks": 116,
          "midi": 50,
          "name": "D3",
          "ticks": 582240,
          "time": 431.0323636250001,
          "velocity": 0.5669291338582677
        },
        {
          "duration": 0.08055547500003968,
          "durationTicks": 116,
          "midi": 50,
          "name": "D3",
          "ticks": 582480,
          "time": 431.19903012500004,
          "velocity": 0.5669291338582677
        },
        {
          "duration": 0.08055547499998283,
          "durationTicks": 116,
          "midi": 46,
          "name": "A#2",
          "ticks": 582720,
          "time": 431.36569662500006,
          "velocity": 0.5669291338582677
        },
        {
          "duration": 0.08055547499998283,
          "durationTicks": 116,
          "midi": 41,
          "name": "F2",
          "ticks": 582960,
          "time": 431.5323631250001,
          "velocity": 0.5669291338582677
        },
        {
          "duration": 0.08055547499998283,
          "durationTicks": 116,
          "midi": 53,
          "name": "F3",
          "ticks": 583200,
          "time": 431.6990296250001,
          "velocity": 0.6535433070866141
        },
        {
          "duration": 0.08055547500003968,
          "durationTicks": 116,
          "midi": 53,
          "name": "F3",
          "ticks": 583440,
          "time": 431.86569612500006,
          "velocity": 0.5669291338582677
        },
        {
          "duration": 0.08055547499998283,
          "durationTicks": 116,
          "midi": 53,
          "name": "F3",
          "ticks": 583680,
          "time": 432.0323626250001,
          "velocity": 0.5669291338582677
        },
        {
          "duration": 0.08055547500003968,
          "durationTicks": 116,
          "midi": 53,
          "name": "F3",
          "ticks": 583920,
          "time": 432.19902912500004,
          "velocity": 0.5669291338582677
        },
        {
          "duration": 0.08055547499998283,
          "durationTicks": 116,
          "midi": 50,
          "name": "D3",
          "ticks": 584160,
          "time": 432.36569562500006,
          "velocity": 0.5669291338582677
        },
        {
          "duration": 0.08055547499998283,
          "durationTicks": 116,
          "midi": 46,
          "name": "A#2",
          "ticks": 584400,
          "time": 432.5323621250001,
          "velocity": 0.5669291338582677
        },
        {
          "duration": 0.08055547499998283,
          "durationTicks": 116,
          "midi": 50,
          "name": "D3",
          "ticks": 584640,
          "time": 432.6990286250001,
          "velocity": 0.6535433070866141
        },
        {
          "duration": 0.08055547500003968,
          "durationTicks": 116,
          "midi": 46,
          "name": "A#2",
          "ticks": 584880,
          "time": 432.86569512500006,
          "velocity": 0.5669291338582677
        },
        {
          "duration": 0.08055547499998283,
          "durationTicks": 116,
          "midi": 41,
          "name": "F2",
          "ticks": 585120,
          "time": 433.0323616250001,
          "velocity": 0.5669291338582677
        },
        {
          "duration": 0.08055547500003968,
          "durationTicks": 116,
          "midi": 46,
          "name": "A#2",
          "ticks": 585360,
          "time": 433.19902812500004,
          "velocity": 0.6535433070866141
        },
        {
          "duration": 0.08055547499998283,
          "durationTicks": 116,
          "midi": 41,
          "name": "F2",
          "ticks": 585600,
          "time": 433.36569462500006,
          "velocity": 0.5669291338582677
        },
        {
          "duration": 0.08055547499998283,
          "durationTicks": 116,
          "midi": 38,
          "name": "D2",
          "ticks": 585840,
          "time": 433.5323611250001,
          "velocity": 0.5669291338582677
        },
        {
          "duration": 0.13611097500000824,
          "durationTicks": 196,
          "midi": 34,
          "name": "A#1",
          "ticks": 586080,
          "time": 433.69902762500004,
          "velocity": 0.5669291338582677
        },
        {
          "duration": 0.16388872499999252,
          "durationTicks": 236,
          "midi": 46,
          "name": "A#2",
          "ticks": 586800,
          "time": 434.19902712500004,
          "velocity": 0.5039370078740157
        },
        {
          "duration": 0.2472219750000022,
          "durationTicks": 356,
          "midi": 34,
          "name": "A#1",
          "ticks": 587520,
          "time": 434.69902662500004,
          "velocity": 0.5039370078740157
        }
      ]
    }
  ]
}