{
    "header": {
      "keySignatures": [
        {
          "key": "C",
          "scale": "major",
          "ticks": 0
        }
      ],
      "meta": [],
      "name": "",
      "ppq": 480,
      "tempos": [
        {
          "bpm": 42.00001260000378,
          "ticks": 0
        }
      ],
      "timeSignatures": [
        {
          "ticks": 0,
          "timeSignature": [
            3,
            4
          ],
          "measures": 0
        },
        {
          "ticks": 84960,
          "timeSignature": [
            7,
            4
          ],
          "measures": 59
        },
        {
          "ticks": 88320,
          "timeSignature": [
            1,
            16
          ],
          "measures": 60
        },
        {
          "ticks": 88440,
          "timeSignature": [
            3,
            4
          ],
          "measures": 60.0625
        }
      ]
    },
    "tracks": [
      {
        "channel": 0,
        "controlChanges": {},
        "pitchBends": [],
        "instrument": {
          "family": "piano",
          "number": 0,
          "name": "acoustic grand piano"
        },
        "name": "k622_2",
        "notes": [],
        "endOfTrackTicks": 144600
      },
      {
        "channel": 3,
        "controlChanges": {
          "7": [
            {
              "number": 7,
              "ticks": 0,
              "time": 0,
              "value": 0.9606299212598425
            }
          ],
          "10": [
            {
              "number": 10,
              "ticks": 0,
              "time": 0,
              "value": 0.4409448818897638
            }
          ],
          "91": [
            {
              "number": 91,
              "ticks": 0,
              "time": 0,
              "value": 0.7086614173228346
            }
          ]
        },
        "pitchBends": [],
        "instrument": {
          "family": "reed",
          "number": 71,
          "name": "clarinet"
        },
        "name": "",
        "notes": [
          {
            "duration": 1.428571,
            "durationTicks": 480,
            "midi": 69,
            "name": "A4",
            "ticks": 0,
            "time": 0,
            "velocity": 0.5590551181102362
          },
          {
            "duration": 2.1428564999999997,
            "durationTicks": 720,
            "midi": 74,
            "name": "D5",
            "ticks": 480,
            "time": 1.428571,
            "velocity": 0.5590551181102362
          },
          {
            "duration": 0.6785712250000002,
            "durationTicks": 228,
            "midi": 78,
            "name": "F#5",
            "ticks": 1200,
            "time": 3.5714275,
            "velocity": 0.5590551181102362
          },
          {
            "duration": 0.7142854999999999,
            "durationTicks": 240,
            "midi": 78,
            "name": "F#5",
            "ticks": 1440,
            "time": 4.285713,
            "velocity": 0.5590551181102362
          },
          {
            "duration": 0.6785712249999998,
            "durationTicks": 228,
            "midi": 76,
            "name": "E5",
            "ticks": 1680,
            "time": 4.9999985,
            "velocity": 0.5590551181102362
          },
          {
            "duration": 1.1428567999999997,
            "durationTicks": 384,
            "midi": 74,
            "name": "D5",
            "ticks": 1920,
            "time": 5.714284,
            "velocity": 0.4881889763779528
          },
          {
            "duration": 2.142856499999999,
            "durationTicks": 720,
            "midi": 69,
            "name": "A4",
            "ticks": 2880,
            "time": 8.571426,
            "velocity": 0.5590551181102362
          },
          {
            "duration": 0.7142855000000008,
            "durationTicks": 240,
            "midi": 74,
            "name": "D5",
            "ticks": 3600,
            "time": 10.7142825,
            "velocity": 0.5590551181102362
          },
          {
            "duration": 0.7142855000000008,
            "durationTicks": 240,
            "midi": 78,
            "name": "F#5",
            "ticks": 3840,
            "time": 11.428568,
            "velocity": 0.5590551181102362
          },
          {
            "duration": 0.6785712249999989,
            "durationTicks": 228,
            "midi": 81,
            "name": "A5",
            "ticks": 4080,
            "time": 12.142853500000001,
            "velocity": 0.5590551181102362
          },
          {
            "duration": 0.7142855000000008,
            "durationTicks": 240,
            "midi": 81,
            "name": "A5",
            "ticks": 4320,
            "time": 12.857139,
            "velocity": 0.5590551181102362
          },
          {
            "duration": 0.6785712249999989,
            "durationTicks": 228,
            "midi": 79,
            "name": "G5",
            "ticks": 4560,
            "time": 13.571424500000001,
            "velocity": 0.5590551181102362
          },
          {
            "duration": 1.1428568000000023,
            "durationTicks": 384,
            "midi": 78,
            "name": "F#5",
            "ticks": 4800,
            "time": 14.28571,
            "velocity": 0.5590551181102362
          },
          {
            "duration": 2.1428565000000006,
            "durationTicks": 720,
            "midi": 76,
            "name": "E5",
            "ticks": 5760,
            "time": 17.142852,
            "velocity": 0.5590551181102362
          },
          {
            "duration": 0.714285499999999,
            "durationTicks": 240,
            "midi": 81,
            "name": "A5",
            "ticks": 6480,
            "time": 19.285708500000002,
            "velocity": 0.5590551181102362
          },
          {
            "duration": 0.714285499999999,
            "durationTicks": 240,
            "midi": 78,
            "name": "F#5",
            "ticks": 6720,
            "time": 19.999994,
            "velocity": 0.5590551181102362
          },
          {
            "duration": 0.6785712249999989,
            "durationTicks": 228,
            "midi": 81,
            "name": "A5",
            "ticks": 6960,
            "time": 20.7142795,
            "velocity": 0.5590551181102362
          },
          {
            "duration": 2.1428565000000006,
            "durationTicks": 720,
            "midi": 76,
            "name": "E5",
            "ticks": 7200,
            "time": 21.428565,
            "velocity": 0.5590551181102362
          },
          {
            "duration": 0.7142855000000026,
            "durationTicks": 240,
            "midi": 81,
            "name": "A5",
            "ticks": 7920,
            "time": 23.5714215,
            "velocity": 0.5590551181102362
          },
          {
            "duration": 0.714285499999999,
            "durationTicks": 240,
            "midi": 71,
            "name": "B4",
            "ticks": 8160,
            "time": 24.285707000000002,
            "velocity": 0.5590551181102362
          },
          {
            "duration": 0.6785712250000024,
            "durationTicks": 228,
            "midi": 78,
            "name": "F#5",
            "ticks": 8400,
            "time": 24.9999925,
            "velocity": 0.5590551181102362
          },
          {
            "duration": 2.714284899999999,
            "durationTicks": 912,
            "midi": 69,
            "name": "A4",
            "ticks": 8640,
            "time": 25.714278,
            "velocity": 0.5590551181102362
          },
          {
            "duration": 0.3571427500000013,
            "durationTicks": 120,
            "midi": 73,
            "name": "C#5",
            "ticks": 9600,
            "time": 28.57142,
            "velocity": 0.5590551181102362
          },
          {
            "duration": 0.714285499999999,
            "durationTicks": 240,
            "midi": 71,
            "name": "B4",
            "ticks": 9720,
            "time": 28.92856275,
            "velocity": 0.5590551181102362
          },
          {
            "duration": 0.339285612500003,
            "durationTicks": 114,
            "midi": 69,
            "name": "A4",
            "ticks": 9960,
            "time": 29.64284825,
            "velocity": 0.5590551181102362
          },
          {
            "duration": 1.1428568000000006,
            "durationTicks": 384,
            "midi": 69,
            "name": "A4",
            "ticks": 10080,
            "time": 29.999991,
            "velocity": 0.5590551181102362
          },
          {
            "duration": 2.1428564999999935,
            "durationTicks": 720,
            "midi": 78,
            "name": "F#5",
            "ticks": 23040,
            "time": 68.571408,
            "velocity": 0.5590551181102362
          },
          {
            "duration": 0.7142855000000026,
            "durationTicks": 240,
            "midi": 76,
            "name": "E5",
            "ticks": 23760,
            "time": 70.7142645,
            "velocity": 0.5590551181102362
          },
          {
            "duration": 0.7142855000000026,
            "durationTicks": 240,
            "midi": 74,
            "name": "D5",
            "ticks": 24000,
            "time": 71.42855,
            "velocity": 0.5590551181102362
          },
          {
            "duration": 0.6785712249999989,
            "durationTicks": 228,
            "midi": 73,
            "name": "C#5",
            "ticks": 24240,
            "time": 72.1428355,
            "velocity": 0.5590551181102362
          },
          {
            "duration": 1.3571424499999978,
            "durationTicks": 456,
            "midi": 71,
            "name": "B4",
            "ticks": 24480,
            "time": 72.857121,
            "velocity": 0.5590551181102362
          },
          {
            "duration": 2.1428564999999935,
            "durationTicks": 720,
            "midi": 79,
            "name": "G5",
            "ticks": 25920,
            "time": 77.14283400000001,
            "velocity": 0.5590551181102362
          },
          {
            "duration": 0.7142855000000026,
            "durationTicks": 240,
            "midi": 78,
            "name": "F#5",
            "ticks": 26640,
            "time": 79.2856905,
            "velocity": 0.5590551181102362
          },
          {
            "duration": 0.7142855000000026,
            "durationTicks": 240,
            "midi": 76,
            "name": "E5",
            "ticks": 26880,
            "time": 79.999976,
            "velocity": 0.5590551181102362
          },
          {
            "duration": 0.6785712249999989,
            "durationTicks": 228,
            "midi": 74,
            "name": "D5",
            "ticks": 27120,
            "time": 80.7142615,
            "velocity": 0.5590551181102362
          },
          {
            "duration": 1.3571424499999978,
            "durationTicks": 456,
            "midi": 73,
            "name": "C#5",
            "ticks": 27360,
            "time": 81.42854700000001,
            "velocity": 0.5590551181102362
          },
          {
            "duration": 2.1428565000000077,
            "durationTicks": 720,
            "midi": 81,
            "name": "A5",
            "ticks": 28800,
            "time": 85.71426,
            "velocity": 0.6299212598425197
          },
          {
            "duration": 0.7142855000000026,
            "durationTicks": 240,
            "midi": 79,
            "name": "G5",
            "ticks": 29520,
            "time": 87.8571165,
            "velocity": 0.6299212598425197
          },
          {
            "duration": 0.7142855000000026,
            "durationTicks": 240,
            "midi": 78,
            "name": "F#5",
            "ticks": 29760,
            "time": 88.571402,
            "velocity": 0.6299212598425197
          },
          {
            "duration": 0.6785712249999989,
            "durationTicks": 228,
            "midi": 76,
            "name": "E5",
            "ticks": 30000,
            "time": 89.28568750000001,
            "velocity": 0.6299212598425197
          },
          {
            "duration": 0.7142855000000026,
            "durationTicks": 240,
            "midi": 74,
            "name": "D5",
            "ticks": 30240,
            "time": 89.999973,
            "velocity": 0.6299212598425197
          },
          {
            "duration": 0.6785712249999989,
            "durationTicks": 228,
            "midi": 79,
            "name": "G5",
            "ticks": 30480,
            "time": 90.7142585,
            "velocity": 0.6299212598425197
          },
          {
            "duration": 2.1428564999999935,
            "durationTicks": 720,
            "midi": 79,
            "name": "G5",
            "ticks": 30720,
            "time": 91.428544,
            "velocity": 0.6299212598425197
          },
          {
            "duration": 0.6785712249999989,
            "durationTicks": 228,
            "midi": 78,
            "name": "F#5",
            "ticks": 31440,
            "time": 93.5714005,
            "velocity": 0.6299212598425197
          },
          {
            "duration": 0.3571427500000084,
            "durationTicks": 120,
            "midi": 78,
            "name": "F#5",
            "ticks": 31680,
            "time": 94.285686,
            "velocity": 0.6299212598425197
          },
          {
            "duration": 0.3571427499999942,
            "durationTicks": 120,
            "midi": 76,
            "name": "E5",
            "ticks": 31800,
            "time": 94.64282875,
            "velocity": 0.6299212598425197
          },
          {
            "duration": 0.3571427500000084,
            "durationTicks": 120,
            "midi": 79,
            "name": "G5",
            "ticks": 31920,
            "time": 94.9999715,
            "velocity": 0.6299212598425197
          },
          {
            "duration": 0.33928561249999234,
            "durationTicks": 114,
            "midi": 76,
            "name": "E5",
            "ticks": 32040,
            "time": 95.35711425000001,
            "velocity": 0.6299212598425197
          },
          {
            "duration": 1.3571424499999978,
            "durationTicks": 456,
            "midi": 74,
            "name": "D5",
            "ticks": 32160,
            "time": 95.714257,
            "velocity": 0.5590551181102362
          },
          {
            "duration": 0.3571427499999942,
            "durationTicks": 120,
            "midi": 78,
            "name": "F#5",
            "ticks": 32640,
            "time": 97.14282800000001,
            "velocity": 0.5590551181102362
          },
          {
            "duration": 0.7142855000000026,
            "durationTicks": 240,
            "midi": 76,
            "name": "E5",
            "ticks": 32760,
            "time": 97.49997075,
            "velocity": 0.5590551181102362
          },
          {
            "duration": 0.33928561249999234,
            "durationTicks": 114,
            "midi": 74,
            "name": "D5",
            "ticks": 33000,
            "time": 98.21425625,
            "velocity": 0.5590551181102362
          },
          {
            "duration": 1.1428568000000041,
            "durationTicks": 384,
            "midi": 74,
            "name": "D5",
            "ticks": 33120,
            "time": 98.571399,
            "velocity": 0.4881889763779528
          },
          {
            "duration": 1.0714282499999968,
            "durationTicks": 360,
            "midi": 78,
            "name": "F#5",
            "ticks": 46080,
            "time": 137.142816,
            "velocity": 0.6299212598425197
          },
          {
            "duration": 0.28571420000000103,
            "durationTicks": 96,
            "midi": 74,
            "name": "D5",
            "ticks": 46440,
            "time": 138.21424425,
            "velocity": 0.6299212598425197
          },
          {
            "duration": 2.1428564999999935,
            "durationTicks": 720,
            "midi": 81,
            "name": "A5",
            "ticks": 46560,
            "time": 138.57138700000002,
            "velocity": 0.6299212598425197
          },
          {
            "duration": 0.3571427500000084,
            "durationTicks": 120,
            "midi": 78,
            "name": "F#5",
            "ticks": 47280,
            "time": 140.7142435,
            "velocity": 0.6299212598425197
          },
          {
            "duration": 0.28571420000000103,
            "durationTicks": 96,
            "midi": 74,
            "name": "D5",
            "ticks": 47400,
            "time": 141.07138625000002,
            "velocity": 0.6299212598425197
          },
          {
            "duration": 1.4285710000000051,
            "durationTicks": 480,
            "midi": 73,
            "name": "C#5",
            "ticks": 47520,
            "time": 141.428529,
            "velocity": 0.6299212598425197
          },
          {
            "duration": 1.1428568000000041,
            "durationTicks": 384,
            "midi": 76,
            "name": "E5",
            "ticks": 48000,
            "time": 142.8571,
            "velocity": 0.6299212598425197
          },
          {
            "duration": 0.17857137499998998,
            "durationTicks": 60,
            "midi": 71,
            "name": "B4",
            "ticks": 48960,
            "time": 145.714242,
            "velocity": 0.6299212598425197
          },
          {
            "duration": 0.17857137499998998,
            "durationTicks": 60,
            "midi": 74,
            "name": "D5",
            "ticks": 48960,
            "time": 145.714242,
            "velocity": 0.6299212598425197
          },
          {
            "duration": 0.1785713750000184,
            "durationTicks": 60,
            "midi": 64,
            "name": "E4",
            "ticks": 49080,
            "time": 146.07138475,
            "velocity": 0.6299212598425197
          },
          {
            "duration": 0.1785713750000184,
            "durationTicks": 60,
            "midi": 68,
            "name": "G#4",
            "ticks": 49080,
            "time": 146.07138475,
            "velocity": 0.6299212598425197
          },
          {
            "duration": 0.17857137499998998,
            "durationTicks": 60,
            "midi": 59,
            "name": "B3",
            "ticks": 49200,
            "time": 146.4285275,
            "velocity": 0.6299212598425197
          },
          {
            "duration": 0.17857137499998998,
            "durationTicks": 60,
            "midi": 62,
            "name": "D4",
            "ticks": 49200,
            "time": 146.4285275,
            "velocity": 0.6299212598425197
          },
          {
            "duration": 0.17857137499998998,
            "durationTicks": 60,
            "midi": 52,
            "name": "E3",
            "ticks": 49320,
            "time": 146.78567025,
            "velocity": 0.6299212598425197
          },
          {
            "duration": 0.17857137499998998,
            "durationTicks": 60,
            "midi": 56,
            "name": "G#3",
            "ticks": 49320,
            "time": 146.78567025,
            "velocity": 0.6299212598425197
          },
          {
            "duration": 0.46428557500001943,
            "durationTicks": 156,
            "midi": 50,
            "name": "D3",
            "ticks": 49440,
            "time": 147.142813,
            "velocity": 0.6299212598425197
          },
          {
            "duration": 0.6190474333333498,
            "durationTicks": 208,
            "midi": 78,
            "name": "F#5",
            "ticks": 49680,
            "time": 147.8570985,
            "velocity": 0.6299212598425197
          },
          {
            "duration": 0.6190474333333498,
            "durationTicks": 208,
            "midi": 76,
            "name": "E5",
            "ticks": 49920,
            "time": 148.571384,
            "velocity": 0.6299212598425197
          },
          {
            "duration": 0.6190474333333214,
            "durationTicks": 208,
            "midi": 74,
            "name": "D5",
            "ticks": 50160,
            "time": 149.2856695,
            "velocity": 0.6299212598425197
          },
          {
            "duration": 1.0714282499999968,
            "durationTicks": 360,
            "midi": 71,
            "name": "B4",
            "ticks": 50400,
            "time": 149.999955,
            "velocity": 0.6299212598425197
          },
          {
            "duration": 0.33928561249999234,
            "durationTicks": 114,
            "midi": 72,
            "name": "C5",
            "ticks": 50760,
            "time": 151.07138325,
            "velocity": 0.6299212598425197
          },
          {
            "duration": 1.1428568000000041,
            "durationTicks": 384,
            "midi": 73,
            "name": "C#5",
            "ticks": 50880,
            "time": 151.428526,
            "velocity": 0.6299212598425197
          },
          {
            "duration": 2.1428564999999935,
            "durationTicks": 720,
            "midi": 76,
            "name": "E5",
            "ticks": 51840,
            "time": 154.28566800000002,
            "velocity": 0.6299212598425197
          },
          {
            "duration": 0.3571427500000084,
            "durationTicks": 120,
            "midi": 81,
            "name": "A5",
            "ticks": 52560,
            "time": 156.4285245,
            "velocity": 0.6299212598425197
          },
          {
            "duration": 0.35714274999997997,
            "durationTicks": 120,
            "midi": 80,
            "name": "G#5",
            "ticks": 52680,
            "time": 156.78566725000002,
            "velocity": 0.6299212598425197
          },
          {
            "duration": 0.3571427500000084,
            "durationTicks": 120,
            "midi": 78,
            "name": "F#5",
            "ticks": 52800,
            "time": 157.14281,
            "velocity": 0.6299212598425197
          },
          {
            "duration": 0.3571427500000084,
            "durationTicks": 120,
            "midi": 76,
            "name": "E5",
            "ticks": 52920,
            "time": 157.49995275,
            "velocity": 0.6299212598425197
          },
          {
            "duration": 0.35714274999997997,
            "durationTicks": 120,
            "midi": 74,
            "name": "D5",
            "ticks": 53040,
            "time": 157.8570955,
            "velocity": 0.6299212598425197
          },
          {
            "duration": 0.28571420000000103,
            "durationTicks": 96,
            "midi": 73,
            "name": "C#5",
            "ticks": 53160,
            "time": 158.21423825,
            "velocity": 0.6299212598425197
          },
          {
            "duration": 0.3571427500000084,
            "durationTicks": 120,
            "midi": 73,
            "name": "C#5",
            "ticks": 53280,
            "time": 158.571381,
            "velocity": 0.6299212598425197
          },
          {
            "duration": 0.35714274999997997,
            "durationTicks": 120,
            "midi": 74,
            "name": "D5",
            "ticks": 53400,
            "time": 158.92852375,
            "velocity": 0.6299212598425197
          },
          {
            "duration": 0.3571427500000084,
            "durationTicks": 120,
            "midi": 70,
            "name": "A#4",
            "ticks": 53520,
            "time": 159.2856665,
            "velocity": 0.6299212598425197
          },
          {
            "duration": 0.28571420000000103,
            "durationTicks": 96,
            "midi": 71,
            "name": "B4",
            "ticks": 53640,
            "time": 159.64280925,
            "velocity": 0.6299212598425197
          },
          {
            "duration": 1.1428568000000041,
            "durationTicks": 384,
            "midi": 71,
            "name": "B4",
            "ticks": 53760,
            "time": 159.999952,
            "velocity": 0.5590551181102362
          },
          {
            "duration": 0.7142854999999884,
            "durationTicks": 240,
            "midi": 73,
            "name": "C#5",
            "ticks": 54720,
            "time": 162.85709400000002,
            "velocity": 0.5590551181102362
          },
          {
            "duration": 0.08928568749999499,
            "durationTicks": 30,
            "midi": 71,
            "name": "B4",
            "ticks": 54960,
            "time": 163.5713795,
            "velocity": 0.5590551181102362
          },
          {
            "duration": 0.08928568749999499,
            "durationTicks": 30,
            "midi": 73,
            "name": "C#5",
            "ticks": 54960,
            "time": 163.5713795,
            "velocity": 0.5590551181102362
          },
          {
            "duration": 0.08928568749999499,
            "durationTicks": 30,
            "midi": 74,
            "name": "D5",
            "ticks": 54960,
            "time": 163.5713795,
            "velocity": 0.5590551181102362
          },
          {
            "duration": 0.08928568749999499,
            "durationTicks": 30,
            "midi": 73,
            "name": "C#5",
            "ticks": 55080,
            "time": 163.92852225000001,
            "velocity": 0.5590551181102362
          },
          {
            "duration": 0.2321427874999813,
            "durationTicks": 78,
            "midi": 74,
            "name": "D5",
            "ticks": 55080,
            "time": 163.92852225000001,
            "velocity": 0.5590551181102362
          },
          {
            "duration": 0.7142855000000168,
            "durationTicks": 240,
            "midi": 76,
            "name": "E5",
            "ticks": 55200,
            "time": 164.285665,
            "velocity": 0.5590551181102362
          },
          {
            "duration": 0.08928568749999499,
            "durationTicks": 30,
            "midi": 74,
            "name": "D5",
            "ticks": 55440,
            "time": 164.9999505,
            "velocity": 0.5590551181102362
          },
          {
            "duration": 0.08928568749999499,
            "durationTicks": 30,
            "midi": 76,
            "name": "E5",
            "ticks": 55440,
            "time": 164.9999505,
            "velocity": 0.5590551181102362
          },
          {
            "duration": 0.08928568749999499,
            "durationTicks": 30,
            "midi": 78,
            "name": "F#5",
            "ticks": 55440,
            "time": 164.9999505,
            "velocity": 0.5590551181102362
          },
          {
            "duration": 0.08928568750002341,
            "durationTicks": 30,
            "midi": 76,
            "name": "E5",
            "ticks": 55560,
            "time": 165.35709325,
            "velocity": 0.5590551181102362
          },
          {
            "duration": 0.23214278750000972,
            "durationTicks": 78,
            "midi": 78,
            "name": "F#5",
            "ticks": 55560,
            "time": 165.35709325,
            "velocity": 0.5590551181102362
          },
          {
            "duration": 0.6785712249999847,
            "durationTicks": 228,
            "midi": 79,
            "name": "G5",
            "ticks": 55680,
            "time": 165.714236,
            "velocity": 0.5590551181102362
          },
          {
            "duration": 0.6785712249999847,
            "durationTicks": 228,
            "midi": 73,
            "name": "C#5",
            "ticks": 55920,
            "time": 166.42852150000002,
            "velocity": 0.5590551181102362
          },
          {
            "duration": 1.4285710000000051,
            "durationTicks": 480,
            "midi": 76,
            "name": "E5",
            "ticks": 56160,
            "time": 167.142807,
            "velocity": 0.6299212598425197
          },
          {
            "duration": 1.1428568000000041,
            "durationTicks": 384,
            "midi": 74,
            "name": "D5",
            "ticks": 56640,
            "time": 168.571378,
            "velocity": 0.5590551181102362
          },
          {
            "duration": 1.1428568000000041,
            "durationTicks": 384,
            "midi": 52,
            "name": "E3",
            "ticks": 57600,
            "time": 171.42852,
            "velocity": 0.6299212598425197
          },
          {
            "duration": 1.7857137500000135,
            "durationTicks": 600,
            "midi": 83,
            "name": "B5",
            "ticks": 58080,
            "time": 172.857091,
            "velocity": 0.6299212598425197
          },
          {
            "duration": 0.35714274999997997,
            "durationTicks": 120,
            "midi": 80,
            "name": "G#5",
            "ticks": 58680,
            "time": 174.64280475,
            "velocity": 0.6299212598425197
          },
          {
            "duration": 0.3571427500000084,
            "durationTicks": 120,
            "midi": 76,
            "name": "E5",
            "ticks": 58800,
            "time": 174.9999475,
            "velocity": 0.6299212598425197
          },
          {
            "duration": 0.28571420000000103,
            "durationTicks": 96,
            "midi": 74,
            "name": "D5",
            "ticks": 58920,
            "time": 175.35709025,
            "velocity": 0.6299212598425197
          },
          {
            "duration": 0.3571427500000084,
            "durationTicks": 120,
            "midi": 72,
            "name": "C5",
            "ticks": 59040,
            "time": 175.714233,
            "velocity": 0.6299212598425197
          },
          {
            "duration": 0.35714274999997997,
            "durationTicks": 120,
            "midi": 73,
            "name": "C#5",
            "ticks": 59160,
            "time": 176.07137575000002,
            "velocity": 0.6299212598425197
          },
          {
            "duration": 0.3571427500000084,
            "durationTicks": 120,
            "midi": 74,
            "name": "D5",
            "ticks": 59280,
            "time": 176.4285185,
            "velocity": 0.6299212598425197
          },
          {
            "duration": 0.3571427500000084,
            "durationTicks": 120,
            "midi": 75,
            "name": "D#5",
            "ticks": 59400,
            "time": 176.78566125,
            "velocity": 0.6299212598425197
          },
          {
            "duration": 0.35714274999997997,
            "durationTicks": 120,
            "midi": 76,
            "name": "E5",
            "ticks": 59520,
            "time": 177.142804,
            "velocity": 0.6299212598425197
          },
          {
            "duration": 0.3571427500000084,
            "durationTicks": 120,
            "midi": 78,
            "name": "F#5",
            "ticks": 59640,
            "time": 177.49994675,
            "velocity": 0.6299212598425197
          },
          {
            "duration": 0.3571427500000084,
            "durationTicks": 120,
            "midi": 80,
            "name": "G#5",
            "ticks": 59760,
            "time": 177.8570895,
            "velocity": 0.6299212598425197
          },
          {
            "duration": 0.3571427500000084,
            "durationTicks": 120,
            "midi": 81,
            "name": "A5",
            "ticks": 59880,
            "time": 178.21423225,
            "velocity": 0.6299212598425197
          },
          {
            "duration": 0.35714274999997997,
            "durationTicks": 120,
            "midi": 77,
            "name": "F5",
            "ticks": 60000,
            "time": 178.57137500000002,
            "velocity": 0.6299212598425197
          },
          {
            "duration": 0.3571427500000084,
            "durationTicks": 120,
            "midi": 78,
            "name": "F#5",
            "ticks": 60120,
            "time": 178.92851775,
            "velocity": 0.6299212598425197
          },
          {
            "duration": 0.3571427500000084,
            "durationTicks": 120,
            "midi": 74,
            "name": "D5",
            "ticks": 60240,
            "time": 179.2856605,
            "velocity": 0.6299212598425197
          },
          {
            "duration": 0.28571420000000103,
            "durationTicks": 96,
            "midi": 71,
            "name": "B4",
            "ticks": 60360,
            "time": 179.64280325000001,
            "velocity": 0.6299212598425197
          },
          {
            "duration": 2.035713675000011,
            "durationTicks": 684,
            "midi": 69,
            "name": "A4",
            "ticks": 60480,
            "time": 179.999946,
            "velocity": 0.6299212598425197
          },
          {
            "duration": 0.7142854999999884,
            "durationTicks": 240,
            "midi": 70,
            "name": "A#4",
            "ticks": 61200,
            "time": 182.14280250000002,
            "velocity": 0.6299212598425197
          },
          {
            "duration": 0.7142854999999884,
            "durationTicks": 240,
            "midi": 71,
            "name": "B4",
            "ticks": 61440,
            "time": 182.857088,
            "velocity": 0.6299212598425197
          },
          {
            "duration": 0.6785712250000131,
            "durationTicks": 228,
            "midi": 76,
            "name": "E5",
            "ticks": 61680,
            "time": 183.5713735,
            "velocity": 0.6299212598425197
          },
          {
            "duration": 1.0714282499999968,
            "durationTicks": 360,
            "midi": 74,
            "name": "D5",
            "ticks": 61920,
            "time": 184.285659,
            "velocity": 0.5590551181102362
          },
          {
            "duration": 0.1428570999999863,
            "durationTicks": 48,
            "midi": 74,
            "name": "D5",
            "ticks": 62280,
            "time": 185.35708725,
            "velocity": 0.5590551181102362
          },
          {
            "duration": 0.17857137499998998,
            "durationTicks": 60,
            "midi": 76,
            "name": "E5",
            "ticks": 62280,
            "time": 185.35708725,
            "velocity": 0.5590551181102362
          },
          {
            "duration": 1.1428568000000041,
            "durationTicks": 384,
            "midi": 73,
            "name": "C#5",
            "ticks": 62400,
            "time": 185.71423000000001,
            "velocity": 0.5590551181102362
          },
          {
            "duration": 1.7142851999999777,
            "durationTicks": 576,
            "midi": 52,
            "name": "E3",
            "ticks": 63360,
            "time": 188.571372,
            "velocity": 0.6299212598425197
          },
          {
            "duration": 0.17857137499998998,
            "durationTicks": 60,
            "midi": 54,
            "name": "F#3",
            "ticks": 63960,
            "time": 190.35708575,
            "velocity": 0.6299212598425197
          },
          {
            "duration": 0.1428570999999863,
            "durationTicks": 48,
            "midi": 56,
            "name": "G#3",
            "ticks": 63960,
            "time": 190.35708575,
            "velocity": 0.6299212598425197
          },
          {
            "duration": 0.2321427874999813,
            "durationTicks": 78,
            "midi": 57,
            "name": "A3",
            "ticks": 64080,
            "time": 190.71422850000002,
            "velocity": 0.6299212598425197
          },
          {
            "duration": 0.23214278750000972,
            "durationTicks": 78,
            "midi": 56,
            "name": "G#3",
            "ticks": 64200,
            "time": 191.07137125,
            "velocity": 0.6299212598425197
          },
          {
            "duration": 0.3571427500000084,
            "durationTicks": 120,
            "midi": 54,
            "name": "F#3",
            "ticks": 64320,
            "time": 191.428514,
            "velocity": 0.6299212598425197
          },
          {
            "duration": 0.35714274999997997,
            "durationTicks": 120,
            "midi": 52,
            "name": "E3",
            "ticks": 64440,
            "time": 191.78565675000002,
            "velocity": 0.6299212598425197
          },
          {
            "duration": 0.3571427500000084,
            "durationTicks": 120,
            "midi": 62,
            "name": "D4",
            "ticks": 64560,
            "time": 192.1427995,
            "velocity": 0.6299212598425197
          },
          {
            "duration": 0.2857141999999726,
            "durationTicks": 96,
            "midi": 61,
            "name": "C#4",
            "ticks": 64680,
            "time": 192.49994225,
            "velocity": 0.6299212598425197
          },
          {
            "duration": 1.4285710000000051,
            "durationTicks": 480,
            "midi": 58,
            "name": "A#3",
            "ticks": 64800,
            "time": 192.857085,
            "velocity": 0.6299212598425197
          },
          {
            "duration": 1.1428568000000041,
            "durationTicks": 384,
            "midi": 59,
            "name": "B3",
            "ticks": 65280,
            "time": 194.28565600000002,
            "velocity": 0.6299212598425197
          },
          {
            "duration": 0.2380951666666533,
            "durationTicks": 80,
            "midi": 61,
            "name": "C#4",
            "ticks": 66240,
            "time": 197.142798,
            "velocity": 0.6299212598425197
          },
          {
            "duration": 0.2380951666666533,
            "durationTicks": 80,
            "midi": 57,
            "name": "A3",
            "ticks": 66360,
            "time": 197.49994075,
            "velocity": 0.6299212598425197
          },
          {
            "duration": 0.2380951666666533,
            "durationTicks": 80,
            "midi": 59,
            "name": "B3",
            "ticks": 66360,
            "time": 197.49994075,
            "velocity": 0.6299212598425197
          },
          {
            "duration": 0.2380951666666533,
            "durationTicks": 80,
            "midi": 59,
            "name": "B3",
            "ticks": 66480,
            "time": 197.85708350000002,
            "velocity": 0.6299212598425197
          },
          {
            "duration": 0.2380951666666533,
            "durationTicks": 80,
            "midi": 61,
            "name": "C#4",
            "ticks": 66600,
            "time": 198.21422625,
            "velocity": 0.6299212598425197
          },
          {
            "duration": 0.19047613333333402,
            "durationTicks": 64,
            "midi": 62,
            "name": "D4",
            "ticks": 66600,
            "time": 198.21422625,
            "velocity": 0.6299212598425197
          },
          {
            "duration": 0.2380951666666533,
            "durationTicks": 80,
            "midi": 64,
            "name": "E4",
            "ticks": 66720,
            "time": 198.571369,
            "velocity": 0.6299212598425197
          },
          {
            "duration": 0.2380951666666533,
            "durationTicks": 80,
            "midi": 61,
            "name": "C#4",
            "ticks": 66840,
            "time": 198.92851175,
            "velocity": 0.6299212598425197
          },
          {
            "duration": 0.2380951666666533,
            "durationTicks": 80,
            "midi": 62,
            "name": "D4",
            "ticks": 66840,
            "time": 198.92851175,
            "velocity": 0.6299212598425197
          },
          {
            "duration": 0.2380951666666533,
            "durationTicks": 80,
            "midi": 62,
            "name": "D4",
            "ticks": 66960,
            "time": 199.2856545,
            "velocity": 0.6299212598425197
          },
          {
            "duration": 0.2380951666666533,
            "durationTicks": 80,
            "midi": 64,
            "name": "E4",
            "ticks": 67080,
            "time": 199.64279725,
            "velocity": 0.6299212598425197
          },
          {
            "duration": 0.19047613333333402,
            "durationTicks": 64,
            "midi": 66,
            "name": "F#4",
            "ticks": 67080,
            "time": 199.64279725,
            "velocity": 0.6299212598425197
          },
          {
            "duration": 0.2857141999999726,
            "durationTicks": 96,
            "midi": 67,
            "name": "G4",
            "ticks": 67200,
            "time": 199.99994,
            "velocity": 0.6299212598425197
          },
          {
            "duration": 0.29166657916667305,
            "durationTicks": 98,
            "midi": 69,
            "name": "A4",
            "ticks": 67320,
            "time": 200.35708275000002,
            "velocity": 0.6299212598425197
          },
          {
            "duration": 0.29166657916670147,
            "durationTicks": 98,
            "midi": 71,
            "name": "B4",
            "ticks": 67440,
            "time": 200.7142255,
            "velocity": 0.6299212598425197
          },
          {
            "duration": 0.29166657916667305,
            "durationTicks": 98,
            "midi": 61,
            "name": "C#4",
            "ticks": 67560,
            "time": 201.07136825,
            "velocity": 0.6299212598425197
          },
          {
            "duration": 1.4285709999999767,
            "durationTicks": 480,
            "midi": 64,
            "name": "E4",
            "ticks": 67680,
            "time": 201.42851100000001,
            "velocity": 0.6299212598425197
          },
          {
            "duration": 1.1428568000000325,
            "durationTicks": 384,
            "midi": 62,
            "name": "D4",
            "ticks": 68160,
            "time": 202.857082,
            "velocity": 0.6299212598425197
          },
          {
            "duration": 1.6071423749999951,
            "durationTicks": 540,
            "midi": 62,
            "name": "D4",
            "ticks": 69120,
            "time": 205.714224,
            "velocity": 0.6299212598425197
          },
          {
            "duration": 0.17857137499998998,
            "durationTicks": 60,
            "midi": 64,
            "name": "E4",
            "ticks": 69600,
            "time": 207.142795,
            "velocity": 0.6299212598425197
          },
          {
            "duration": 0.17857137499998998,
            "durationTicks": 60,
            "midi": 64,
            "name": "E4",
            "ticks": 69720,
            "time": 207.49993775000002,
            "velocity": 0.6299212598425197
          },
          {
            "duration": 0.17857137499998998,
            "durationTicks": 60,
            "midi": 66,
            "name": "F#4",
            "ticks": 69720,
            "time": 207.49993775000002,
            "velocity": 0.6299212598425197
          },
          {
            "duration": 0.1785713750000184,
            "durationTicks": 60,
            "midi": 61,
            "name": "C#4",
            "ticks": 69840,
            "time": 207.8570805,
            "velocity": 0.6299212598425197
          },
          {
            "duration": 0.1785713750000184,
            "durationTicks": 60,
            "midi": 62,
            "name": "D4",
            "ticks": 69840,
            "time": 207.8570805,
            "velocity": 0.6299212598425197
          },
          {
            "duration": 0.1428570999999863,
            "durationTicks": 48,
            "midi": 57,
            "name": "A3",
            "ticks": 69960,
            "time": 208.21422325,
            "velocity": 0.6299212598425197
          },
          {
            "duration": 0.17857137499998998,
            "durationTicks": 60,
            "midi": 59,
            "name": "B3",
            "ticks": 69960,
            "time": 208.21422325,
            "velocity": 0.6299212598425197
          },
          {
            "duration": 0.1904761333333056,
            "durationTicks": 64,
            "midi": 56,
            "name": "G#3",
            "ticks": 70080,
            "time": 208.571366,
            "velocity": 0.6299212598425197
          },
          {
            "duration": 0.2380951666666533,
            "durationTicks": 80,
            "midi": 52,
            "name": "E3",
            "ticks": 70200,
            "time": 208.92850875,
            "velocity": 0.6299212598425197
          },
          {
            "duration": 0.2380951666666533,
            "durationTicks": 80,
            "midi": 54,
            "name": "F#3",
            "ticks": 70200,
            "time": 208.92850875,
            "velocity": 0.6299212598425197
          },
          {
            "duration": 0.2380951666666533,
            "durationTicks": 80,
            "midi": 62,
            "name": "D4",
            "ticks": 70320,
            "time": 209.2856515,
            "velocity": 0.6299212598425197
          },
          {
            "duration": 0.2380951666666533,
            "durationTicks": 80,
            "midi": 59,
            "name": "B3",
            "ticks": 70440,
            "time": 209.64279425,
            "velocity": 0.6299212598425197
          },
          {
            "duration": 0.2380951666666533,
            "durationTicks": 80,
            "midi": 61,
            "name": "C#4",
            "ticks": 70440,
            "time": 209.64279425,
            "velocity": 0.6299212598425197
          },
          {
            "duration": 0.6785712249999847,
            "durationTicks": 228,
            "midi": 57,
            "name": "A3",
            "ticks": 70560,
            "time": 209.99993700000002,
            "velocity": 0.6299212598425197
          },
          {
            "duration": 2.714284900000024,
            "durationTicks": 912,
            "midi": 79,
            "name": "G5",
            "ticks": 71040,
            "time": 211.428508,
            "velocity": 0.6299212598425197
          },
          {
            "duration": 0.6785712249999847,
            "durationTicks": 228,
            "midi": 59,
            "name": "B3",
            "ticks": 72000,
            "time": 214.28565,
            "velocity": 0.6299212598425197
          },
          {
            "duration": 2.7142848999999956,
            "durationTicks": 912,
            "midi": 78,
            "name": "F#5",
            "ticks": 72480,
            "time": 215.714221,
            "velocity": 0.6299212598425197
          },
          {
            "duration": 0.2380951666666533,
            "durationTicks": 80,
            "midi": 64,
            "name": "E4",
            "ticks": 73440,
            "time": 218.57136300000002,
            "velocity": 0.6299212598425197
          },
          {
            "duration": 0.2380951666666533,
            "durationTicks": 80,
            "midi": 65,
            "name": "F4",
            "ticks": 73560,
            "time": 218.92850575,
            "velocity": 0.6299212598425197
          },
          {
            "duration": 0.2380951666666533,
            "durationTicks": 80,
            "midi": 66,
            "name": "F#4",
            "ticks": 73560,
            "time": 218.92850575,
            "velocity": 0.6299212598425197
          },
          {
            "duration": 0.2380951666666533,
            "durationTicks": 80,
            "midi": 67,
            "name": "G4",
            "ticks": 73680,
            "time": 219.2856485,
            "velocity": 0.6299212598425197
          },
          {
            "duration": 0.2380951666666533,
            "durationTicks": 80,
            "midi": 68,
            "name": "G#4",
            "ticks": 73800,
            "time": 219.64279125000002,
            "velocity": 0.6299212598425197
          },
          {
            "duration": 0.15476185833330192,
            "durationTicks": 52,
            "midi": 69,
            "name": "A4",
            "ticks": 73800,
            "time": 219.64279125000002,
            "velocity": 0.6299212598425197
          },
          {
            "duration": 0.2380951666666533,
            "durationTicks": 80,
            "midi": 70,
            "name": "A#4",
            "ticks": 73920,
            "time": 219.999934,
            "velocity": 0.6299212598425197
          },
          {
            "duration": 0.2380951666666533,
            "durationTicks": 80,
            "midi": 71,
            "name": "B4",
            "ticks": 74040,
            "time": 220.35707675,
            "velocity": 0.6299212598425197
          },
          {
            "duration": 0.2380951666666533,
            "durationTicks": 80,
            "midi": 72,
            "name": "C5",
            "ticks": 74040,
            "time": 220.35707675,
            "velocity": 0.6299212598425197
          },
          {
            "duration": 0.2380951666666533,
            "durationTicks": 80,
            "midi": 73,
            "name": "C#5",
            "ticks": 74160,
            "time": 220.7142195,
            "velocity": 0.6299212598425197
          },
          {
            "duration": 0.2380951666666533,
            "durationTicks": 80,
            "midi": 74,
            "name": "D5",
            "ticks": 74280,
            "time": 221.07136225,
            "velocity": 0.6299212598425197
          },
          {
            "duration": 0.15476185833333034,
            "durationTicks": 52,
            "midi": 75,
            "name": "D#5",
            "ticks": 74280,
            "time": 221.07136225,
            "velocity": 0.7086614173228346
          },
          {
            "duration": 0.2380951666666533,
            "durationTicks": 80,
            "midi": 76,
            "name": "E5",
            "ticks": 74400,
            "time": 221.428505,
            "velocity": 0.7086614173228346
          },
          {
            "duration": 0.2380951666666533,
            "durationTicks": 80,
            "midi": 77,
            "name": "F5",
            "ticks": 74520,
            "time": 221.78564775,
            "velocity": 0.7086614173228346
          },
          {
            "duration": 0.2380951666666533,
            "durationTicks": 80,
            "midi": 78,
            "name": "F#5",
            "ticks": 74520,
            "time": 221.78564775,
            "velocity": 0.7086614173228346
          },
          {
            "duration": 0.2380951666666533,
            "durationTicks": 80,
            "midi": 79,
            "name": "G5",
            "ticks": 74640,
            "time": 222.14279050000002,
            "velocity": 0.7086614173228346
          },
          {
            "duration": 0.2380951666666533,
            "durationTicks": 80,
            "midi": 80,
            "name": "G#5",
            "ticks": 74760,
            "time": 222.49993325,
            "velocity": 0.7086614173228346
          },
          {
            "duration": 0.2380951666666533,
            "durationTicks": 80,
            "midi": 81,
            "name": "A5",
            "ticks": 74760,
            "time": 222.49993325,
            "velocity": 0.7086614173228346
          },
          {
            "duration": 0.08928568749999499,
            "durationTicks": 30,
            "midi": 71,
            "name": "B4",
            "ticks": 74880,
            "time": 222.857076,
            "velocity": 0.6299212598425197
          },
          {
            "duration": 0.08928568749999499,
            "durationTicks": 30,
            "midi": 73,
            "name": "C#5",
            "ticks": 74880,
            "time": 222.857076,
            "velocity": 0.6299212598425197
          },
          {
            "duration": 0.08928568749999499,
            "durationTicks": 30,
            "midi": 73,
            "name": "C#5",
            "ticks": 74880,
            "time": 222.857076,
            "velocity": 0.6299212598425197
          },
          {
            "duration": 0.08928568749999499,
            "durationTicks": 30,
            "midi": 71,
            "name": "B4",
            "ticks": 75000,
            "time": 223.21421875000001,
            "velocity": 0.6299212598425197
          },
          {
            "duration": 0.08928568749999499,
            "durationTicks": 30,
            "midi": 71,
            "name": "B4",
            "ticks": 75000,
            "time": 223.21421875000001,
            "velocity": 0.6299212598425197
          },
          {
            "duration": 0.08928568749999499,
            "durationTicks": 30,
            "midi": 73,
            "name": "C#5",
            "ticks": 75000,
            "time": 223.21421875000001,
            "velocity": 0.6299212598425197
          },
          {
            "duration": 0.08928568749999499,
            "durationTicks": 30,
            "midi": 73,
            "name": "C#5",
            "ticks": 75000,
            "time": 223.21421875000001,
            "velocity": 0.6299212598425197
          },
          {
            "duration": 0.08928568750002341,
            "durationTicks": 30,
            "midi": 71,
            "name": "B4",
            "ticks": 75120,
            "time": 223.5713615,
            "velocity": 0.6299212598425197
          },
          {
            "duration": 0.08928568750002341,
            "durationTicks": 30,
            "midi": 71,
            "name": "B4",
            "ticks": 75120,
            "time": 223.5713615,
            "velocity": 0.6299212598425197
          },
          {
            "duration": 0.08928568750002341,
            "durationTicks": 30,
            "midi": 73,
            "name": "C#5",
            "ticks": 75120,
            "time": 223.5713615,
            "velocity": 0.6299212598425197
          },
          {
            "duration": 0.08928568750002341,
            "durationTicks": 30,
            "midi": 73,
            "name": "C#5",
            "ticks": 75120,
            "time": 223.5713615,
            "velocity": 0.6299212598425197
          },
          {
            "duration": 0.08928568749999499,
            "durationTicks": 30,
            "midi": 71,
            "name": "B4",
            "ticks": 75240,
            "time": 223.92850425,
            "velocity": 0.6299212598425197
          },
          {
            "duration": 0.08928568749999499,
            "durationTicks": 30,
            "midi": 71,
            "name": "B4",
            "ticks": 75240,
            "time": 223.92850425,
            "velocity": 0.6299212598425197
          },
          {
            "duration": 0.08928568749999499,
            "durationTicks": 30,
            "midi": 73,
            "name": "C#5",
            "ticks": 75240,
            "time": 223.92850425,
            "velocity": 0.6299212598425197
          },
          {
            "duration": 0.08928568749999499,
            "durationTicks": 30,
            "midi": 73,
            "name": "C#5",
            "ticks": 75240,
            "time": 223.92850425,
            "velocity": 0.6299212598425197
          },
          {
            "duration": 0.08928568749999499,
            "durationTicks": 30,
            "midi": 71,
            "name": "B4",
            "ticks": 75360,
            "time": 224.285647,
            "velocity": 0.6299212598425197
          },
          {
            "duration": 0.08928568749999499,
            "durationTicks": 30,
            "midi": 71,
            "name": "B4",
            "ticks": 75360,
            "time": 224.285647,
            "velocity": 0.6299212598425197
          },
          {
            "duration": 0.08928568749999499,
            "durationTicks": 30,
            "midi": 73,
            "name": "C#5",
            "ticks": 75360,
            "time": 224.285647,
            "velocity": 0.6299212598425197
          },
          {
            "duration": 0.08928568749999499,
            "durationTicks": 30,
            "midi": 73,
            "name": "C#5",
            "ticks": 75360,
            "time": 224.285647,
            "velocity": 0.6299212598425197
          },
          {
            "duration": 0.08928568750002341,
            "durationTicks": 30,
            "midi": 71,
            "name": "B4",
            "ticks": 75480,
            "time": 224.64278975,
            "velocity": 0.6299212598425197
          },
          {
            "duration": 0.08928568750002341,
            "durationTicks": 30,
            "midi": 71,
            "name": "B4",
            "ticks": 75480,
            "time": 224.64278975,
            "velocity": 0.6299212598425197
          },
          {
            "duration": 0.08928568750002341,
            "durationTicks": 30,
            "midi": 73,
            "name": "C#5",
            "ticks": 75480,
            "time": 224.64278975,
            "velocity": 0.6299212598425197
          },
          {
            "duration": 0.08928568750002341,
            "durationTicks": 30,
            "midi": 73,
            "name": "C#5",
            "ticks": 75480,
            "time": 224.64278975,
            "velocity": 0.6299212598425197
          },
          {
            "duration": 0.08928568749999499,
            "durationTicks": 30,
            "midi": 71,
            "name": "B4",
            "ticks": 75600,
            "time": 224.9999325,
            "velocity": 0.6299212598425197
          },
          {
            "duration": 0.08928568749999499,
            "durationTicks": 30,
            "midi": 71,
            "name": "B4",
            "ticks": 75600,
            "time": 224.9999325,
            "velocity": 0.6299212598425197
          },
          {
            "duration": 0.08928568749999499,
            "durationTicks": 30,
            "midi": 73,
            "name": "C#5",
            "ticks": 75600,
            "time": 224.9999325,
            "velocity": 0.6299212598425197
          },
          {
            "duration": 0.08928568749999499,
            "durationTicks": 30,
            "midi": 73,
            "name": "C#5",
            "ticks": 75600,
            "time": 224.9999325,
            "velocity": 0.6299212598425197
          },
          {
            "duration": 0.08928568749999499,
            "durationTicks": 30,
            "midi": 71,
            "name": "B4",
            "ticks": 75720,
            "time": 225.35707525,
            "velocity": 0.6299212598425197
          },
          {
            "duration": 0.08928568749999499,
            "durationTicks": 30,
            "midi": 71,
            "name": "B4",
            "ticks": 75720,
            "time": 225.35707525,
            "velocity": 0.6299212598425197
          },
          {
            "duration": 0.08928568749999499,
            "durationTicks": 30,
            "midi": 73,
            "name": "C#5",
            "ticks": 75720,
            "time": 225.35707525,
            "velocity": 0.6299212598425197
          },
          {
            "duration": 0.08928568749999499,
            "durationTicks": 30,
            "midi": 73,
            "name": "C#5",
            "ticks": 75720,
            "time": 225.35707525,
            "velocity": 0.6299212598425197
          },
          {
            "duration": 0.08928568749999499,
            "durationTicks": 30,
            "midi": 71,
            "name": "B4",
            "ticks": 75840,
            "time": 225.71421800000002,
            "velocity": 0.6299212598425197
          },
          {
            "duration": 0.08928568749999499,
            "durationTicks": 30,
            "midi": 71,
            "name": "B4",
            "ticks": 75840,
            "time": 225.71421800000002,
            "velocity": 0.6299212598425197
          },
          {
            "duration": 0.08928568749999499,
            "durationTicks": 30,
            "midi": 73,
            "name": "C#5",
            "ticks": 75840,
            "time": 225.71421800000002,
            "velocity": 0.6299212598425197
          },
          {
            "duration": 0.08928568749999499,
            "durationTicks": 30,
            "midi": 73,
            "name": "C#5",
            "ticks": 75840,
            "time": 225.71421800000002,
            "velocity": 0.6299212598425197
          },
          {
            "duration": 0.08928568749999499,
            "durationTicks": 30,
            "midi": 71,
            "name": "B4",
            "ticks": 75960,
            "time": 226.07136075,
            "velocity": 0.6299212598425197
          },
          {
            "duration": 0.08928568749999499,
            "durationTicks": 30,
            "midi": 71,
            "name": "B4",
            "ticks": 75960,
            "time": 226.07136075,
            "velocity": 0.6299212598425197
          },
          {
            "duration": 0.08928568749999499,
            "durationTicks": 30,
            "midi": 73,
            "name": "C#5",
            "ticks": 75960,
            "time": 226.07136075,
            "velocity": 0.6299212598425197
          },
          {
            "duration": 0.08928568749999499,
            "durationTicks": 30,
            "midi": 73,
            "name": "C#5",
            "ticks": 75960,
            "time": 226.07136075,
            "velocity": 0.6299212598425197
          },
          {
            "duration": 0.08928568749999499,
            "durationTicks": 30,
            "midi": 71,
            "name": "B4",
            "ticks": 76080,
            "time": 226.4285035,
            "velocity": 0.6299212598425197
          },
          {
            "duration": 0.08928568749999499,
            "durationTicks": 30,
            "midi": 71,
            "name": "B4",
            "ticks": 76080,
            "time": 226.4285035,
            "velocity": 0.6299212598425197
          },
          {
            "duration": 0.08928568749999499,
            "durationTicks": 30,
            "midi": 73,
            "name": "C#5",
            "ticks": 76080,
            "time": 226.4285035,
            "velocity": 0.6299212598425197
          },
          {
            "duration": 0.08928568749999499,
            "durationTicks": 30,
            "midi": 73,
            "name": "C#5",
            "ticks": 76080,
            "time": 226.4285035,
            "velocity": 0.6299212598425197
          },
          {
            "duration": 0.17857137499998998,
            "durationTicks": 60,
            "midi": 69,
            "name": "A4",
            "ticks": 76200,
            "time": 226.78564625,
            "velocity": 0.6299212598425197
          },
          {
            "duration": 0.08928568749999499,
            "durationTicks": 30,
            "midi": 71,
            "name": "B4",
            "ticks": 76200,
            "time": 226.78564625,
            "velocity": 0.6299212598425197
          },
          {
            "duration": 1.1428568000000325,
            "durationTicks": 384,
            "midi": 69,
            "name": "A4",
            "ticks": 76320,
            "time": 227.142789,
            "velocity": 0.6299212598425197
          },
          {
            "duration": 0.1785713750000184,
            "durationTicks": 60,
            "midi": 71,
            "name": "B4",
            "ticks": 76320,
            "time": 227.142789,
            "velocity": 0.6299212598425197
          },
          {
            "duration": 1.6071423749999951,
            "durationTicks": 540,
            "midi": 57,
            "name": "A3",
            "ticks": 77760,
            "time": 231.428502,
            "velocity": 0.6299212598425197
          },
          {
            "duration": 0.1785713750000184,
            "durationTicks": 60,
            "midi": 61,
            "name": "C#4",
            "ticks": 78360,
            "time": 233.21421575,
            "velocity": 0.6299212598425197
          },
          {
            "duration": 0.1785713750000184,
            "durationTicks": 60,
            "midi": 64,
            "name": "E4",
            "ticks": 78360,
            "time": 233.21421575,
            "velocity": 0.6299212598425197
          },
          {
            "duration": 0.17857137499998998,
            "durationTicks": 60,
            "midi": 61,
            "name": "C#4",
            "ticks": 78480,
            "time": 233.5713585,
            "velocity": 0.6299212598425197
          },
          {
            "duration": 0.17857137499998998,
            "durationTicks": 60,
            "midi": 69,
            "name": "A4",
            "ticks": 78480,
            "time": 233.5713585,
            "velocity": 0.6299212598425197
          },
          {
            "duration": 0.17857137499998998,
            "durationTicks": 60,
            "midi": 64,
            "name": "E4",
            "ticks": 78600,
            "time": 233.92850125,
            "velocity": 0.6299212598425197
          },
          {
            "duration": 0.17857137499998998,
            "durationTicks": 60,
            "midi": 69,
            "name": "A4",
            "ticks": 78600,
            "time": 233.92850125,
            "velocity": 0.6299212598425197
          },
          {
            "duration": 0.1428570999999863,
            "durationTicks": 48,
            "midi": 69,
            "name": "A4",
            "ticks": 78720,
            "time": 234.28564400000002,
            "velocity": 0.6299212598425197
          },
          {
            "duration": 0.1428570999999863,
            "durationTicks": 48,
            "midi": 73,
            "name": "C#5",
            "ticks": 78720,
            "time": 234.28564400000002,
            "velocity": 0.6299212598425197
          },
          {
            "duration": 0.1785713750000184,
            "durationTicks": 60,
            "midi": 71,
            "name": "B4",
            "ticks": 78840,
            "time": 234.64278675,
            "velocity": 0.6299212598425197
          },
          {
            "duration": 0.1785713750000184,
            "durationTicks": 60,
            "midi": 73,
            "name": "C#5",
            "ticks": 78840,
            "time": 234.64278675,
            "velocity": 0.6299212598425197
          },
          {
            "duration": 0.17857137499998998,
            "durationTicks": 60,
            "midi": 74,
            "name": "D5",
            "ticks": 78960,
            "time": 234.9999295,
            "velocity": 0.6299212598425197
          },
          {
            "duration": 0.17857137499998998,
            "durationTicks": 60,
            "midi": 76,
            "name": "E5",
            "ticks": 78960,
            "time": 234.9999295,
            "velocity": 0.6299212598425197
          },
          {
            "duration": 0.17857137499998998,
            "durationTicks": 60,
            "midi": 78,
            "name": "F#5",
            "ticks": 79080,
            "time": 235.35707225000002,
            "velocity": 0.6299212598425197
          },
          {
            "duration": 0.17857137499998998,
            "durationTicks": 60,
            "midi": 80,
            "name": "G#5",
            "ticks": 79080,
            "time": 235.35707225000002,
            "velocity": 0.6299212598425197
          },
          {
            "duration": 1.1428568000000325,
            "durationTicks": 384,
            "midi": 80,
            "name": "G#5",
            "ticks": 79200,
            "time": 235.714215,
            "velocity": 0.6299212598425197
          },
          {
            "duration": 0.1785713750000184,
            "durationTicks": 60,
            "midi": 81,
            "name": "A5",
            "ticks": 79200,
            "time": 235.714215,
            "velocity": 0.6299212598425197
          },
          {
            "duration": 1.6071423749999951,
            "durationTicks": 540,
            "midi": 59,
            "name": "B3",
            "ticks": 80640,
            "time": 239.999928,
            "velocity": 0.6299212598425197
          },
          {
            "duration": 0.1785713750000184,
            "durationTicks": 60,
            "midi": 62,
            "name": "D4",
            "ticks": 81240,
            "time": 241.78564175,
            "velocity": 0.6299212598425197
          },
          {
            "duration": 0.1785713750000184,
            "durationTicks": 60,
            "midi": 64,
            "name": "E4",
            "ticks": 81240,
            "time": 241.78564175,
            "velocity": 0.6299212598425197
          },
          {
            "duration": 0.17857137499998998,
            "durationTicks": 60,
            "midi": 62,
            "name": "D4",
            "ticks": 81360,
            "time": 242.1427845,
            "velocity": 0.6299212598425197
          },
          {
            "duration": 0.17857137499998998,
            "durationTicks": 60,
            "midi": 68,
            "name": "G#4",
            "ticks": 81360,
            "time": 242.1427845,
            "velocity": 0.6299212598425197
          },
          {
            "duration": 0.17857137499998998,
            "durationTicks": 60,
            "midi": 64,
            "name": "E4",
            "ticks": 81480,
            "time": 242.49992725,
            "velocity": 0.6299212598425197
          },
          {
            "duration": 0.17857137499998998,
            "durationTicks": 60,
            "midi": 68,
            "name": "G#4",
            "ticks": 81480,
            "time": 242.49992725,
            "velocity": 0.6299212598425197
          },
          {
            "duration": 0.1785713750000184,
            "durationTicks": 60,
            "midi": 68,
            "name": "G#4",
            "ticks": 81600,
            "time": 242.85707,
            "velocity": 0.6299212598425197
          },
          {
            "duration": 0.1785713750000184,
            "durationTicks": 60,
            "midi": 71,
            "name": "B4",
            "ticks": 81600,
            "time": 242.85707,
            "velocity": 0.6299212598425197
          },
          {
            "duration": 0.1785713750000184,
            "durationTicks": 60,
            "midi": 69,
            "name": "A4",
            "ticks": 81720,
            "time": 243.21421275,
            "velocity": 0.6299212598425197
          },
          {
            "duration": 0.1785713750000184,
            "durationTicks": 60,
            "midi": 71,
            "name": "B4",
            "ticks": 81720,
            "time": 243.21421275,
            "velocity": 0.6299212598425197
          },
          {
            "duration": 0.17857137499998998,
            "durationTicks": 60,
            "midi": 73,
            "name": "C#5",
            "ticks": 81840,
            "time": 243.5713555,
            "velocity": 0.6299212598425197
          },
          {
            "duration": 0.17857137499998998,
            "durationTicks": 60,
            "midi": 74,
            "name": "D5",
            "ticks": 81840,
            "time": 243.5713555,
            "velocity": 0.6299212598425197
          },
          {
            "duration": 0.17857137499998998,
            "durationTicks": 60,
            "midi": 76,
            "name": "E5",
            "ticks": 81960,
            "time": 243.92849825000002,
            "velocity": 0.6299212598425197
          },
          {
            "duration": 0.17857137499998998,
            "durationTicks": 60,
            "midi": 78,
            "name": "F#5",
            "ticks": 81960,
            "time": 243.92849825000002,
            "velocity": 0.6299212598425197
          },
          {
            "duration": 1.1428568000000325,
            "durationTicks": 384,
            "midi": 79,
            "name": "G5",
            "ticks": 82080,
            "time": 244.285641,
            "velocity": 0.6299212598425197
          },
          {
            "duration": 0.1785713750000184,
            "durationTicks": 60,
            "midi": 80,
            "name": "G#5",
            "ticks": 82080,
            "time": 244.285641,
            "velocity": 0.6299212598425197
          },
          {
            "duration": 3.2142847499999903,
            "durationTicks": 1080,
            "midi": 79,
            "name": "G5",
            "ticks": 83520,
            "time": 248.571354,
            "velocity": 0.6299212598425197
          },
          {
            "duration": 0.3571427500000084,
            "durationTicks": 120,
            "midi": 78,
            "name": "F#5",
            "ticks": 84600,
            "time": 251.78563875,
            "velocity": 0.6299212598425197
          },
          {
            "duration": 0.35714274999997997,
            "durationTicks": 120,
            "midi": 81,
            "name": "A5",
            "ticks": 84720,
            "time": 252.1427815,
            "velocity": 0.6299212598425197
          },
          {
            "duration": 0.3571427500000084,
            "durationTicks": 120,
            "midi": 79,
            "name": "G5",
            "ticks": 84840,
            "time": 252.49992425,
            "velocity": 0.6299212598425197
          },
          {
            "duration": 0.3571427500000084,
            "durationTicks": 120,
            "midi": 78,
            "name": "F#5",
            "ticks": 84960,
            "time": 252.857067,
            "velocity": 0.6299212598425197
          },
          {
            "duration": 0.3571427500000084,
            "durationTicks": 120,
            "midi": 76,
            "name": "E5",
            "ticks": 85080,
            "time": 253.21420975,
            "velocity": 0.6299212598425197
          },
          {
            "duration": 0.35714274999997997,
            "durationTicks": 120,
            "midi": 74,
            "name": "D5",
            "ticks": 85200,
            "time": 253.57135250000002,
            "velocity": 0.6299212598425197
          },
          {
            "duration": 0.3571427500000084,
            "durationTicks": 120,
            "midi": 73,
            "name": "C#5",
            "ticks": 85320,
            "time": 253.92849525,
            "velocity": 0.6299212598425197
          },
          {
            "duration": 0.3571427500000084,
            "durationTicks": 120,
            "midi": 76,
            "name": "E5",
            "ticks": 85440,
            "time": 254.285638,
            "velocity": 0.6299212598425197
          },
          {
            "duration": 0.35714274999997997,
            "durationTicks": 120,
            "midi": 75,
            "name": "D#5",
            "ticks": 85560,
            "time": 254.64278075000001,
            "velocity": 0.6299212598425197
          },
          {
            "duration": 0.3571427500000084,
            "durationTicks": 120,
            "midi": 78,
            "name": "F#5",
            "ticks": 85680,
            "time": 254.9999235,
            "velocity": 0.6299212598425197
          },
          {
            "duration": 0.3571427500000084,
            "durationTicks": 120,
            "midi": 76,
            "name": "E5",
            "ticks": 85800,
            "time": 255.35706625,
            "velocity": 0.6299212598425197
          },
          {
            "duration": 0.3571427500000084,
            "durationTicks": 120,
            "midi": 74,
            "name": "D5",
            "ticks": 85920,
            "time": 255.714209,
            "velocity": 0.5590551181102362
          },
          {
            "duration": 0.35714274999997997,
            "durationTicks": 120,
            "midi": 73,
            "name": "C#5",
            "ticks": 86040,
            "time": 256.07135175,
            "velocity": 0.5590551181102362
          },
          {
            "duration": 0.35714274999997997,
            "durationTicks": 120,
            "midi": 71,
            "name": "B4",
            "ticks": 86160,
            "time": 256.4284945,
            "velocity": 0.5590551181102362
          },
          {
            "duration": 0.3571427500000368,
            "durationTicks": 120,
            "midi": 69,
            "name": "A4",
            "ticks": 86280,
            "time": 256.78563725,
            "velocity": 0.5590551181102362
          },
          {
            "duration": 0.35714274999997997,
            "durationTicks": 120,
            "midi": 68,
            "name": "G#4",
            "ticks": 86400,
            "time": 257.14278,
            "velocity": 0.5590551181102362
          },
          {
            "duration": 0.3571427500000368,
            "durationTicks": 120,
            "midi": 69,
            "name": "A4",
            "ticks": 86520,
            "time": 257.49992275,
            "velocity": 0.5590551181102362
          },
          {
            "duration": 0.35714274999997997,
            "durationTicks": 120,
            "midi": 71,
            "name": "B4",
            "ticks": 86640,
            "time": 257.85706550000003,
            "velocity": 0.5590551181102362
          },
          {
            "duration": 0.6428569499999526,
            "durationTicks": 216,
            "midi": 69,
            "name": "A4",
            "ticks": 86760,
            "time": 258.21420825,
            "velocity": 0.5590551181102362
          },
          {
            "duration": 1.4285709999999767,
            "durationTicks": 480,
            "midi": 69,
            "name": "A4",
            "ticks": 87000,
            "time": 258.92849375000003,
            "velocity": 0.5590551181102362
          },
          {
            "duration": 2.1428564999999935,
            "durationTicks": 720,
            "midi": 74,
            "name": "D5",
            "ticks": 87480,
            "time": 260.35706475,
            "velocity": 0.5590551181102362
          },
          {
            "duration": 0.6785712249999847,
            "durationTicks": 228,
            "midi": 78,
            "name": "F#5",
            "ticks": 88200,
            "time": 262.49992125,
            "velocity": 0.5590551181102362
          },
          {
            "duration": 0.7142855000000168,
            "durationTicks": 240,
            "midi": 78,
            "name": "F#5",
            "ticks": 88440,
            "time": 263.21420675,
            "velocity": 0.5590551181102362
          },
          {
            "duration": 0.6785712249999847,
            "durationTicks": 228,
            "midi": 76,
            "name": "E5",
            "ticks": 88680,
            "time": 263.92849225000003,
            "velocity": 0.5590551181102362
          },
          {
            "duration": 1.3571424499999694,
            "durationTicks": 456,
            "midi": 74,
            "name": "D5",
            "ticks": 88920,
            "time": 264.64277775,
            "velocity": 0.5590551181102362
          },
          {
            "duration": 2.1428564999999935,
            "durationTicks": 720,
            "midi": 69,
            "name": "A4",
            "ticks": 89880,
            "time": 267.49991975,
            "velocity": 0.5590551181102362
          },
          {
            "duration": 0.7142855000000168,
            "durationTicks": 240,
            "midi": 74,
            "name": "D5",
            "ticks": 90600,
            "time": 269.64277625,
            "velocity": 0.5590551181102362
          },
          {
            "duration": 0.7142855000000168,
            "durationTicks": 240,
            "midi": 78,
            "name": "F#5",
            "ticks": 90840,
            "time": 270.35706175,
            "velocity": 0.5590551181102362
          },
          {
            "duration": 0.6785712249999847,
            "durationTicks": 228,
            "midi": 81,
            "name": "A5",
            "ticks": 91080,
            "time": 271.07134725000003,
            "velocity": 0.5590551181102362
          },
          {
            "duration": 0.7142855000000168,
            "durationTicks": 240,
            "midi": 81,
            "name": "A5",
            "ticks": 91320,
            "time": 271.78563275,
            "velocity": 0.5590551181102362
          },
          {
            "duration": 0.6785712249999847,
            "durationTicks": 228,
            "midi": 79,
            "name": "G5",
            "ticks": 91560,
            "time": 272.49991825,
            "velocity": 0.5590551181102362
          },
          {
            "duration": 1.3571424499999694,
            "durationTicks": 456,
            "midi": 78,
            "name": "F#5",
            "ticks": 91800,
            "time": 273.21420375,
            "velocity": 0.5590551181102362
          },
          {
            "duration": 2.1428564999999935,
            "durationTicks": 720,
            "midi": 76,
            "name": "E5",
            "ticks": 92760,
            "time": 276.07134575000003,
            "velocity": 0.5590551181102362
          },
          {
            "duration": 0.7142854999999599,
            "durationTicks": 240,
            "midi": 81,
            "name": "A5",
            "ticks": 93480,
            "time": 278.21420225,
            "velocity": 0.5590551181102362
          },
          {
            "duration": 0.7142855000000168,
            "durationTicks": 240,
            "midi": 78,
            "name": "F#5",
            "ticks": 93720,
            "time": 278.92848775,
            "velocity": 0.5590551181102362
          },
          {
            "duration": 0.6785712249999847,
            "durationTicks": 228,
            "midi": 81,
            "name": "A5",
            "ticks": 93960,
            "time": 279.64277325,
            "velocity": 0.5590551181102362
          },
          {
            "duration": 2.1428564999999935,
            "durationTicks": 720,
            "midi": 76,
            "name": "E5",
            "ticks": 94200,
            "time": 280.35705875,
            "velocity": 0.5590551181102362
          },
          {
            "duration": 0.7142855000000168,
            "durationTicks": 240,
            "midi": 81,
            "name": "A5",
            "ticks": 94920,
            "time": 282.49991525,
            "velocity": 0.5590551181102362
          },
          {
            "duration": 0.7142854999999599,
            "durationTicks": 240,
            "midi": 71,
            "name": "B4",
            "ticks": 95160,
            "time": 283.21420075000003,
            "velocity": 0.5590551181102362
          },
          {
            "duration": 0.6785712249999847,
            "durationTicks": 228,
            "midi": 78,
            "name": "F#5",
            "ticks": 95400,
            "time": 283.92848625,
            "velocity": 0.5590551181102362
          },
          {
            "duration": 2.7142848999999956,
            "durationTicks": 912,
            "midi": 69,
            "name": "A4",
            "ticks": 95640,
            "time": 284.64277175,
            "velocity": 0.5590551181102362
          },
          {
            "duration": 0.35714274999997997,
            "durationTicks": 120,
            "midi": 73,
            "name": "C#5",
            "ticks": 96600,
            "time": 287.49991375,
            "velocity": 0.5590551181102362
          },
          {
            "duration": 0.7142855000000168,
            "durationTicks": 240,
            "midi": 71,
            "name": "B4",
            "ticks": 96720,
            "time": 287.8570565,
            "velocity": 0.5590551181102362
          },
          {
            "duration": 0.2857141999999726,
            "durationTicks": 96,
            "midi": 69,
            "name": "A4",
            "ticks": 96960,
            "time": 288.571342,
            "velocity": 0.5590551181102362
          },
          {
            "duration": 1.3571424499999694,
            "durationTicks": 456,
            "midi": 69,
            "name": "A4",
            "ticks": 97080,
            "time": 288.92848475,
            "velocity": 0.5590551181102362
          },
          {
            "duration": 2.1428565000000503,
            "durationTicks": 720,
            "midi": 78,
            "name": "F#5",
            "ticks": 98520,
            "time": 293.21419775,
            "velocity": 0.6299212598425197
          },
          {
            "duration": 0.7142854999999599,
            "durationTicks": 240,
            "midi": 76,
            "name": "E5",
            "ticks": 99240,
            "time": 295.35705425000003,
            "velocity": 0.6299212598425197
          },
          {
            "duration": 0.7142855000000168,
            "durationTicks": 240,
            "midi": 74,
            "name": "D5",
            "ticks": 99480,
            "time": 296.07133975,
            "velocity": 0.6299212598425197
          },
          {
            "duration": 0.6785712249999847,
            "durationTicks": 228,
            "midi": 73,
            "name": "C#5",
            "ticks": 99720,
            "time": 296.78562525,
            "velocity": 0.6299212598425197
          },
          {
            "duration": 1.3571424499999694,
            "durationTicks": 456,
            "midi": 71,
            "name": "B4",
            "ticks": 99960,
            "time": 297.49991075,
            "velocity": 0.6299212598425197
          },
          {
            "duration": 2.1428564999999935,
            "durationTicks": 720,
            "midi": 79,
            "name": "G5",
            "ticks": 101400,
            "time": 301.78562375,
            "velocity": 0.6299212598425197
          },
          {
            "duration": 0.7142855000000168,
            "durationTicks": 240,
            "midi": 78,
            "name": "F#5",
            "ticks": 102120,
            "time": 303.92848025,
            "velocity": 0.6299212598425197
          },
          {
            "duration": 0.7142854999999599,
            "durationTicks": 240,
            "midi": 76,
            "name": "E5",
            "ticks": 102360,
            "time": 304.64276575,
            "velocity": 0.6299212598425197
          },
          {
            "duration": 0.6785712250000415,
            "durationTicks": 228,
            "midi": 74,
            "name": "D5",
            "ticks": 102600,
            "time": 305.35705125,
            "velocity": 0.6299212598425197
          },
          {
            "duration": 1.3571424499999694,
            "durationTicks": 456,
            "midi": 73,
            "name": "C#5",
            "ticks": 102840,
            "time": 306.07133675,
            "velocity": 0.6299212598425197
          },
          {
            "duration": 2.1428564999999935,
            "durationTicks": 720,
            "midi": 81,
            "name": "A5",
            "ticks": 104280,
            "time": 310.35704975,
            "velocity": 0.6299212598425197
          },
          {
            "duration": 0.7142855000000168,
            "durationTicks": 240,
            "midi": 79,
            "name": "G5",
            "ticks": 105000,
            "time": 312.49990625,
            "velocity": 0.6299212598425197
          },
          {
            "duration": 0.7142855000000168,
            "durationTicks": 240,
            "midi": 78,
            "name": "F#5",
            "ticks": 105240,
            "time": 313.21419175,
            "velocity": 0.6299212598425197
          },
          {
            "duration": 0.6785712249999847,
            "durationTicks": 228,
            "midi": 76,
            "name": "E5",
            "ticks": 105480,
            "time": 313.92847725,
            "velocity": 0.6299212598425197
          },
          {
            "duration": 1.285713899999962,
            "durationTicks": 432,
            "midi": 74,
            "name": "D5",
            "ticks": 105720,
            "time": 314.64276275000003,
            "velocity": 0.6299212598425197
          },
          {
            "duration": 2.1428564999999935,
            "durationTicks": 720,
            "midi": 79,
            "name": "G5",
            "ticks": 106200,
            "time": 316.07133375,
            "velocity": 0.6299212598425197
          },
          {
            "duration": 0.6785712249999847,
            "durationTicks": 228,
            "midi": 78,
            "name": "F#5",
            "ticks": 106920,
            "time": 318.21419025,
            "velocity": 0.6299212598425197
          },
          {
            "duration": 0.35714274999997997,
            "durationTicks": 120,
            "midi": 78,
            "name": "F#5",
            "ticks": 107160,
            "time": 318.92847575,
            "velocity": 0.6299212598425197
          },
          {
            "duration": 0.3571427500000368,
            "durationTicks": 120,
            "midi": 76,
            "name": "E5",
            "ticks": 107280,
            "time": 319.2856185,
            "velocity": 0.6299212598425197
          },
          {
            "duration": 0.35714274999997997,
            "durationTicks": 120,
            "midi": 78,
            "name": "F#5",
            "ticks": 107400,
            "time": 319.64276125000004,
            "velocity": 0.6299212598425197
          },
          {
            "duration": 0.2857141999999726,
            "durationTicks": 96,
            "midi": 79,
            "name": "G5",
            "ticks": 107520,
            "time": 319.999904,
            "velocity": 0.6299212598425197
          },
          {
            "duration": 1.1428568000000041,
            "durationTicks": 384,
            "midi": 74,
            "name": "D5",
            "ticks": 107640,
            "time": 320.35704675,
            "velocity": 0.6299212598425197
          },
          {
            "duration": 0.35714274999997997,
            "durationTicks": 120,
            "midi": 78,
            "name": "F#5",
            "ticks": 108120,
            "time": 321.78561775000003,
            "velocity": 0.6299212598425197
          },
          {
            "duration": 0.7142855000000168,
            "durationTicks": 240,
            "midi": 76,
            "name": "E5",
            "ticks": 108240,
            "time": 322.1427605,
            "velocity": 0.6299212598425197
          },
          {
            "duration": 0.2857141999999726,
            "durationTicks": 96,
            "midi": 74,
            "name": "D5",
            "ticks": 108480,
            "time": 322.857046,
            "velocity": 0.6299212598425197
          },
          {
            "duration": 1.1428568000000041,
            "durationTicks": 384,
            "midi": 74,
            "name": "D5",
            "ticks": 108600,
            "time": 323.21418875,
            "velocity": 0.4881889763779528
          },
          {
            "duration": 0.35714274999997997,
            "durationTicks": 120,
            "midi": 69,
            "name": "A4",
            "ticks": 121080,
            "time": 360.35703475,
            "velocity": 0.4881889763779528
          },
          {
            "duration": 0.35714274999997997,
            "durationTicks": 120,
            "midi": 73,
            "name": "C#5",
            "ticks": 121200,
            "time": 360.7141775,
            "velocity": 0.4881889763779528
          },
          {
            "duration": 0.3571427500000368,
            "durationTicks": 120,
            "midi": 74,
            "name": "D5",
            "ticks": 121320,
            "time": 361.07132025,
            "velocity": 0.4881889763779528
          },
          {
            "duration": 0.2857141999999726,
            "durationTicks": 96,
            "midi": 78,
            "name": "F#5",
            "ticks": 121440,
            "time": 361.428463,
            "velocity": 0.4881889763779528
          },
          {
            "duration": 1.7857137500000135,
            "durationTicks": 600,
            "midi": 81,
            "name": "A5",
            "ticks": 121560,
            "time": 361.78560575,
            "velocity": 0.6299212598425197
          },
          {
            "duration": 0.35714274999997997,
            "durationTicks": 120,
            "midi": 80,
            "name": "G#5",
            "ticks": 122160,
            "time": 363.5713195,
            "velocity": 0.6299212598425197
          },
          {
            "duration": 0.3571427500000368,
            "durationTicks": 120,
            "midi": 79,
            "name": "G5",
            "ticks": 122280,
            "time": 363.92846225,
            "velocity": 0.6299212598425197
          },
          {
            "duration": 0.2857141999999726,
            "durationTicks": 96,
            "midi": 76,
            "name": "E5",
            "ticks": 122400,
            "time": 364.28560500000003,
            "velocity": 0.6299212598425197
          },
          {
            "duration": 0.35714274999997997,
            "durationTicks": 120,
            "midi": 79,
            "name": "G5",
            "ticks": 122520,
            "time": 364.64274775,
            "velocity": 0.6299212598425197
          },
          {
            "duration": 0.2857141999999726,
            "durationTicks": 96,
            "midi": 78,
            "name": "F#5",
            "ticks": 122640,
            "time": 364.9998905,
            "velocity": 0.6299212598425197
          },
          {
            "duration": 0.35714274999997997,
            "durationTicks": 120,
            "midi": 78,
            "name": "F#5",
            "ticks": 122760,
            "time": 365.35703325000003,
            "velocity": 0.6299212598425197
          },
          {
            "duration": 0.2857141999999726,
            "durationTicks": 96,
            "midi": 74,
            "name": "D5",
            "ticks": 122880,
            "time": 365.714176,
            "velocity": 0.6299212598425197
          },
          {
            "duration": 1.7857137500000135,
            "durationTicks": 600,
            "midi": 81,
            "name": "A5",
            "ticks": 123000,
            "time": 366.07131875,
            "velocity": 0.6299212598425197
          },
          {
            "duration": 0.35714274999997997,
            "durationTicks": 120,
            "midi": 80,
            "name": "G#5",
            "ticks": 123600,
            "time": 367.8570325,
            "velocity": 0.6299212598425197
          },
          {
            "duration": 0.3571427500000368,
            "durationTicks": 120,
            "midi": 79,
            "name": "G5",
            "ticks": 123720,
            "time": 368.21417525,
            "velocity": 0.6299212598425197
          },
          {
            "duration": 0.2857141999999726,
            "durationTicks": 96,
            "midi": 76,
            "name": "E5",
            "ticks": 123840,
            "time": 368.571318,
            "velocity": 0.6299212598425197
          },
          {
            "duration": 0.3571427500000368,
            "durationTicks": 120,
            "midi": 79,
            "name": "G5",
            "ticks": 123960,
            "time": 368.92846075,
            "velocity": 0.6299212598425197
          },
          {
            "duration": 0.2857141999999726,
            "durationTicks": 96,
            "midi": 78,
            "name": "F#5",
            "ticks": 124080,
            "time": 369.28560350000004,
            "velocity": 0.6299212598425197
          },
          {
            "duration": 0.35714274999997997,
            "durationTicks": 120,
            "midi": 78,
            "name": "F#5",
            "ticks": 124200,
            "time": 369.64274625,
            "velocity": 0.6299212598425197
          },
          {
            "duration": 0.2857141999999726,
            "durationTicks": 96,
            "midi": 74,
            "name": "D5",
            "ticks": 124320,
            "time": 369.999889,
            "velocity": 0.6299212598425197
          },
          {
            "duration": 0.17857137499998998,
            "durationTicks": 60,
            "midi": 71,
            "name": "B4",
            "ticks": 124440,
            "time": 370.35703175000003,
            "velocity": 0.6299212598425197
          },
          {
            "duration": 0.17857137499998998,
            "durationTicks": 60,
            "midi": 75,
            "name": "D#5",
            "ticks": 124440,
            "time": 370.35703175000003,
            "velocity": 0.6299212598425197
          },
          {
            "duration": 0.17857137499998998,
            "durationTicks": 60,
            "midi": 76,
            "name": "E5",
            "ticks": 124560,
            "time": 370.7141745,
            "velocity": 0.6299212598425197
          },
          {
            "duration": 0.17857137499998998,
            "durationTicks": 60,
            "midi": 79,
            "name": "G5",
            "ticks": 124560,
            "time": 370.7141745,
            "velocity": 0.6299212598425197
          },
          {
            "duration": 0.17857137499998998,
            "durationTicks": 60,
            "midi": 82,
            "name": "A#5",
            "ticks": 124680,
            "time": 371.07131725,
            "velocity": 0.6299212598425197
          },
          {
            "duration": 0.17857137499998998,
            "durationTicks": 60,
            "midi": 83,
            "name": "B5",
            "ticks": 124680,
            "time": 371.07131725,
            "velocity": 0.6299212598425197
          },
          {
            "duration": 0.14285710000001473,
            "durationTicks": 48,
            "midi": 76,
            "name": "E5",
            "ticks": 124800,
            "time": 371.42846000000003,
            "velocity": 0.6299212598425197
          },
          {
            "duration": 0.17857137499998998,
            "durationTicks": 60,
            "midi": 79,
            "name": "G5",
            "ticks": 124800,
            "time": 371.42846000000003,
            "velocity": 0.6299212598425197
          },
          {
            "duration": 1.3571424499999694,
            "durationTicks": 456,
            "midi": 74,
            "name": "D5",
            "ticks": 124920,
            "time": 371.78560275,
            "velocity": 0.6299212598425197
          },
          {
            "duration": 0.3571427500000368,
            "durationTicks": 120,
            "midi": 78,
            "name": "F#5",
            "ticks": 125400,
            "time": 373.21417375,
            "velocity": 0.6299212598425197
          },
          {
            "duration": 0.7142854999999599,
            "durationTicks": 240,
            "midi": 76,
            "name": "E5",
            "ticks": 125520,
            "time": 373.5713165,
            "velocity": 0.6299212598425197
          },
          {
            "duration": 0.28571420000002945,
            "durationTicks": 96,
            "midi": 74,
            "name": "D5",
            "ticks": 125760,
            "time": 374.285602,
            "velocity": 0.6299212598425197
          },
          {
            "duration": 1.1428568000000041,
            "durationTicks": 384,
            "midi": 74,
            "name": "D5",
            "ticks": 125880,
            "time": 374.64274475,
            "velocity": 0.5590551181102362
          },
          {
            "duration": 0.2380951666666533,
            "durationTicks": 80,
            "midi": 50,
            "name": "D3",
            "ticks": 126840,
            "time": 377.49988675000003,
            "velocity": 0.5590551181102362
          },
          {
            "duration": 0.23809516666671016,
            "durationTicks": 80,
            "midi": 54,
            "name": "F#3",
            "ticks": 126960,
            "time": 377.8570295,
            "velocity": 0.5590551181102362
          },
          {
            "duration": 0.23809516666671016,
            "durationTicks": 80,
            "midi": 57,
            "name": "A3",
            "ticks": 126960,
            "time": 377.8570295,
            "velocity": 0.5590551181102362
          },
          {
            "duration": 0.23809516666671016,
            "durationTicks": 80,
            "midi": 62,
            "name": "D4",
            "ticks": 127080,
            "time": 378.21417225,
            "velocity": 0.5590551181102362
          },
          {
            "duration": 0.2380951666666533,
            "durationTicks": 80,
            "midi": 66,
            "name": "F#4",
            "ticks": 127200,
            "time": 378.571315,
            "velocity": 0.5590551181102362
          },
          {
            "duration": 0.19047613333327718,
            "durationTicks": 64,
            "midi": 69,
            "name": "A4",
            "ticks": 127200,
            "time": 378.571315,
            "velocity": 0.5590551181102362
          },
          {
            "duration": 1.7857137500000135,
            "durationTicks": 600,
            "midi": 69,
            "name": "A4",
            "ticks": 127320,
            "time": 378.92845775,
            "velocity": 0.5590551181102362
          },
          {
            "duration": 0.35714274999997997,
            "durationTicks": 120,
            "midi": 68,
            "name": "G#4",
            "ticks": 127920,
            "time": 380.7141715,
            "velocity": 0.5590551181102362
          },
          {
            "duration": 0.3571427500000368,
            "durationTicks": 120,
            "midi": 67,
            "name": "G4",
            "ticks": 128040,
            "time": 381.07131425,
            "velocity": 0.5590551181102362
          },
          {
            "duration": 0.2857141999999726,
            "durationTicks": 96,
            "midi": 64,
            "name": "E4",
            "ticks": 128160,
            "time": 381.42845700000004,
            "velocity": 0.5590551181102362
          },
          {
            "duration": 0.35714274999997997,
            "durationTicks": 120,
            "midi": 67,
            "name": "G4",
            "ticks": 128280,
            "time": 381.78559975,
            "velocity": 0.5590551181102362
          },
          {
            "duration": 0.2857141999999726,
            "durationTicks": 96,
            "midi": 66,
            "name": "F#4",
            "ticks": 128400,
            "time": 382.1427425,
            "velocity": 0.5590551181102362
          },
          {
            "duration": 0.35714274999997997,
            "durationTicks": 120,
            "midi": 66,
            "name": "F#4",
            "ticks": 128520,
            "time": 382.49988525000003,
            "velocity": 0.5590551181102362
          },
          {
            "duration": 0.2857141999999726,
            "durationTicks": 96,
            "midi": 62,
            "name": "D4",
            "ticks": 128640,
            "time": 382.857028,
            "velocity": 0.5590551181102362
          },
          {
            "duration": 1.7857137500000135,
            "durationTicks": 600,
            "midi": 57,
            "name": "A3",
            "ticks": 128760,
            "time": 383.21417075,
            "velocity": 0.5590551181102362
          },
          {
            "duration": 0.35714274999997997,
            "durationTicks": 120,
            "midi": 56,
            "name": "G#3",
            "ticks": 129360,
            "time": 384.9998845,
            "velocity": 0.5590551181102362
          },
          {
            "duration": 0.3571427500000368,
            "durationTicks": 120,
            "midi": 55,
            "name": "G3",
            "ticks": 129480,
            "time": 385.35702725,
            "velocity": 0.5590551181102362
          },
          {
            "duration": 0.2857141999999726,
            "durationTicks": 96,
            "midi": 52,
            "name": "E3",
            "ticks": 129600,
            "time": 385.71417,
            "velocity": 0.5590551181102362
          },
          {
            "duration": 0.35714274999997997,
            "durationTicks": 120,
            "midi": 55,
            "name": "G3",
            "ticks": 129720,
            "time": 386.07131275,
            "velocity": 0.5590551181102362
          },
          {
            "duration": 0.28571420000002945,
            "durationTicks": 96,
            "midi": 54,
            "name": "F#3",
            "ticks": 129840,
            "time": 386.4284555,
            "velocity": 0.5590551181102362
          },
          {
            "duration": 0.35714274999997997,
            "durationTicks": 120,
            "midi": 54,
            "name": "F#3",
            "ticks": 129960,
            "time": 386.78559825,
            "velocity": 0.5590551181102362
          },
          {
            "duration": 0.2857141999999726,
            "durationTicks": 96,
            "midi": 50,
            "name": "D3",
            "ticks": 130080,
            "time": 387.142741,
            "velocity": 0.5590551181102362
          },
          {
            "duration": 0.5714283999999452,
            "durationTicks": 192,
            "midi": 52,
            "name": "E3",
            "ticks": 130200,
            "time": 387.49988375000004,
            "velocity": 0.5590551181102362
          },
          {
            "duration": 0.7142855000000168,
            "durationTicks": 240,
            "midi": 83,
            "name": "B5",
            "ticks": 130440,
            "time": 388.21416925,
            "velocity": 0.5590551181102362
          },
          {
            "duration": 0.7142855000000168,
            "durationTicks": 240,
            "midi": 81,
            "name": "A5",
            "ticks": 130680,
            "time": 388.92845475,
            "velocity": 0.5590551181102362
          },
          {
            "duration": 0.7142854999999599,
            "durationTicks": 240,
            "midi": 79,
            "name": "G5",
            "ticks": 130920,
            "time": 389.64274025000003,
            "velocity": 0.5590551181102362
          },
          {
            "duration": 0.7142855000000168,
            "durationTicks": 240,
            "midi": 78,
            "name": "F#5",
            "ticks": 131160,
            "time": 390.35702575,
            "velocity": 0.5590551181102362
          },
          {
            "duration": 0.6785712250000415,
            "durationTicks": 228,
            "midi": 76,
            "name": "E5",
            "ticks": 131400,
            "time": 391.07131125,
            "velocity": 0.5590551181102362
          },
          {
            "duration": 0.2380951666666533,
            "durationTicks": 80,
            "midi": 74,
            "name": "D5",
            "ticks": 131640,
            "time": 391.78559675,
            "velocity": 0.5590551181102362
          },
          {
            "duration": 0.23809516666671016,
            "durationTicks": 80,
            "midi": 69,
            "name": "A4",
            "ticks": 131760,
            "time": 392.1427395,
            "velocity": 0.5590551181102362
          },
          {
            "duration": 0.23809516666671016,
            "durationTicks": 80,
            "midi": 71,
            "name": "B4",
            "ticks": 131760,
            "time": 392.1427395,
            "velocity": 0.5590551181102362
          },
          {
            "duration": 0.23809516666671016,
            "durationTicks": 80,
            "midi": 72,
            "name": "C5",
            "ticks": 131880,
            "time": 392.49988225,
            "velocity": 0.5590551181102362
          },
          {
            "duration": 0.23809516666671016,
            "durationTicks": 80,
            "midi": 73,
            "name": "C#5",
            "ticks": 132000,
            "time": 392.857025,
            "velocity": 0.5590551181102362
          },
          {
            "duration": 0.23809516666671016,
            "durationTicks": 80,
            "midi": 74,
            "name": "D5",
            "ticks": 132000,
            "time": 392.857025,
            "velocity": 0.5590551181102362
          },
          {
            "duration": 0.23809516666671016,
            "durationTicks": 80,
            "midi": 75,
            "name": "D#5",
            "ticks": 132120,
            "time": 393.21416775,
            "velocity": 0.5590551181102362
          },
          {
            "duration": 0.23809516666671016,
            "durationTicks": 80,
            "midi": 76,
            "name": "E5",
            "ticks": 132240,
            "time": 393.5713105,
            "velocity": 0.5590551181102362
          },
          {
            "duration": 0.23809516666671016,
            "durationTicks": 80,
            "midi": 77,
            "name": "F5",
            "ticks": 132240,
            "time": 393.5713105,
            "velocity": 0.5590551181102362
          },
          {
            "duration": 0.23809516666671016,
            "durationTicks": 80,
            "midi": 78,
            "name": "F#5",
            "ticks": 132360,
            "time": 393.92845325,
            "velocity": 0.5590551181102362
          },
          {
            "duration": 0.23809516666671016,
            "durationTicks": 80,
            "midi": 79,
            "name": "G5",
            "ticks": 132480,
            "time": 394.285596,
            "velocity": 0.5590551181102362
          },
          {
            "duration": 0.23809516666671016,
            "durationTicks": 80,
            "midi": 80,
            "name": "G#5",
            "ticks": 132480,
            "time": 394.285596,
            "velocity": 0.5590551181102362
          },
          {
            "duration": 0.2857141999999726,
            "durationTicks": 96,
            "midi": 81,
            "name": "A5",
            "ticks": 132600,
            "time": 394.64273875000003,
            "velocity": 0.5590551181102362
          },
          {
            "duration": 0.2857141999999726,
            "durationTicks": 96,
            "midi": 80,
            "name": "G#5",
            "ticks": 132720,
            "time": 394.9998815,
            "velocity": 0.5590551181102362
          },
          {
            "duration": 0.2857141999999726,
            "durationTicks": 96,
            "midi": 79,
            "name": "G5",
            "ticks": 132840,
            "time": 395.35702425,
            "velocity": 0.5590551181102362
          },
          {
            "duration": 0.2857141999999726,
            "durationTicks": 96,
            "midi": 78,
            "name": "F#5",
            "ticks": 132960,
            "time": 395.71416700000003,
            "velocity": 0.5590551181102362
          },
          {
            "duration": 0.08928568750002341,
            "durationTicks": 30,
            "midi": 76,
            "name": "E5",
            "ticks": 133080,
            "time": 396.07130975,
            "velocity": 0.5590551181102362
          },
          {
            "duration": 0.08928568750002341,
            "durationTicks": 30,
            "midi": 78,
            "name": "F#5",
            "ticks": 133080,
            "time": 396.07130975,
            "velocity": 0.5590551181102362
          },
          {
            "duration": 0.08928568750002341,
            "durationTicks": 30,
            "midi": 78,
            "name": "F#5",
            "ticks": 133080,
            "time": 396.07130975,
            "velocity": 0.5590551181102362
          },
          {
            "duration": 0.08928568750002341,
            "durationTicks": 30,
            "midi": 76,
            "name": "E5",
            "ticks": 133200,
            "time": 396.4284525,
            "velocity": 0.5590551181102362
          },
          {
            "duration": 0.08928568750002341,
            "durationTicks": 30,
            "midi": 76,
            "name": "E5",
            "ticks": 133200,
            "time": 396.4284525,
            "velocity": 0.5590551181102362
          },
          {
            "duration": 0.08928568750002341,
            "durationTicks": 30,
            "midi": 78,
            "name": "F#5",
            "ticks": 133200,
            "time": 396.4284525,
            "velocity": 0.5590551181102362
          },
          {
            "duration": 0.08928568750002341,
            "durationTicks": 30,
            "midi": 78,
            "name": "F#5",
            "ticks": 133200,
            "time": 396.4284525,
            "velocity": 0.5590551181102362
          },
          {
            "duration": 0.08928568749996657,
            "durationTicks": 30,
            "midi": 76,
            "name": "E5",
            "ticks": 133320,
            "time": 396.78559525000003,
            "velocity": 0.5590551181102362
          },
          {
            "duration": 0.08928568749996657,
            "durationTicks": 30,
            "midi": 76,
            "name": "E5",
            "ticks": 133320,
            "time": 396.78559525000003,
            "velocity": 0.5590551181102362
          },
          {
            "duration": 0.08928568749996657,
            "durationTicks": 30,
            "midi": 78,
            "name": "F#5",
            "ticks": 133320,
            "time": 396.78559525000003,
            "velocity": 0.5590551181102362
          },
          {
            "duration": 0.08928568749996657,
            "durationTicks": 30,
            "midi": 78,
            "name": "F#5",
            "ticks": 133320,
            "time": 396.78559525000003,
            "velocity": 0.5590551181102362
          },
          {
            "duration": 0.08928568750002341,
            "durationTicks": 30,
            "midi": 76,
            "name": "E5",
            "ticks": 133440,
            "time": 397.142738,
            "velocity": 0.5590551181102362
          },
          {
            "duration": 0.08928568750002341,
            "durationTicks": 30,
            "midi": 76,
            "name": "E5",
            "ticks": 133440,
            "time": 397.142738,
            "velocity": 0.5590551181102362
          },
          {
            "duration": 0.08928568750002341,
            "durationTicks": 30,
            "midi": 78,
            "name": "F#5",
            "ticks": 133440,
            "time": 397.142738,
            "velocity": 0.5590551181102362
          },
          {
            "duration": 0.08928568750002341,
            "durationTicks": 30,
            "midi": 78,
            "name": "F#5",
            "ticks": 133440,
            "time": 397.142738,
            "velocity": 0.5590551181102362
          },
          {
            "duration": 0.08928568750002341,
            "durationTicks": 30,
            "midi": 76,
            "name": "E5",
            "ticks": 133560,
            "time": 397.49988075,
            "velocity": 0.5590551181102362
          },
          {
            "duration": 0.08928568750002341,
            "durationTicks": 30,
            "midi": 76,
            "name": "E5",
            "ticks": 133560,
            "time": 397.49988075,
            "velocity": 0.5590551181102362
          },
          {
            "duration": 0.08928568750002341,
            "durationTicks": 30,
            "midi": 78,
            "name": "F#5",
            "ticks": 133560,
            "time": 397.49988075,
            "velocity": 0.5590551181102362
          },
          {
            "duration": 0.08928568750002341,
            "durationTicks": 30,
            "midi": 78,
            "name": "F#5",
            "ticks": 133560,
            "time": 397.49988075,
            "velocity": 0.5590551181102362
          },
          {
            "duration": 0.08928568749996657,
            "durationTicks": 30,
            "midi": 76,
            "name": "E5",
            "ticks": 133680,
            "time": 397.8570235,
            "velocity": 0.5590551181102362
          },
          {
            "duration": 0.08928568749996657,
            "durationTicks": 30,
            "midi": 76,
            "name": "E5",
            "ticks": 133680,
            "time": 397.8570235,
            "velocity": 0.5590551181102362
          },
          {
            "duration": 0.08928568749996657,
            "durationTicks": 30,
            "midi": 78,
            "name": "F#5",
            "ticks": 133680,
            "time": 397.8570235,
            "velocity": 0.5590551181102362
          },
          {
            "duration": 0.08928568749996657,
            "durationTicks": 30,
            "midi": 78,
            "name": "F#5",
            "ticks": 133680,
            "time": 397.8570235,
            "velocity": 0.5590551181102362
          },
          {
            "duration": 0.08928568750002341,
            "durationTicks": 30,
            "midi": 76,
            "name": "E5",
            "ticks": 133800,
            "time": 398.21416625,
            "velocity": 0.5590551181102362
          },
          {
            "duration": 0.08928568750002341,
            "durationTicks": 30,
            "midi": 76,
            "name": "E5",
            "ticks": 133800,
            "time": 398.21416625,
            "velocity": 0.5590551181102362
          },
          {
            "duration": 0.08928568750002341,
            "durationTicks": 30,
            "midi": 78,
            "name": "F#5",
            "ticks": 133800,
            "time": 398.21416625,
            "velocity": 0.5590551181102362
          },
          {
            "duration": 0.08928568750002341,
            "durationTicks": 30,
            "midi": 78,
            "name": "F#5",
            "ticks": 133800,
            "time": 398.21416625,
            "velocity": 0.5590551181102362
          },
          {
            "duration": 0.08928568750002341,
            "durationTicks": 30,
            "midi": 76,
            "name": "E5",
            "ticks": 133920,
            "time": 398.571309,
            "velocity": 0.5590551181102362
          },
          {
            "duration": 0.08928568750002341,
            "durationTicks": 30,
            "midi": 76,
            "name": "E5",
            "ticks": 133920,
            "time": 398.571309,
            "velocity": 0.5590551181102362
          },
          {
            "duration": 0.08928568750002341,
            "durationTicks": 30,
            "midi": 78,
            "name": "F#5",
            "ticks": 133920,
            "time": 398.571309,
            "velocity": 0.5590551181102362
          },
          {
            "duration": 0.08928568750002341,
            "durationTicks": 30,
            "midi": 78,
            "name": "F#5",
            "ticks": 133920,
            "time": 398.571309,
            "velocity": 0.5590551181102362
          },
          {
            "duration": 0.08928568749996657,
            "durationTicks": 30,
            "midi": 76,
            "name": "E5",
            "ticks": 134040,
            "time": 398.92845175,
            "velocity": 0.5590551181102362
          },
          {
            "duration": 0.08928568749996657,
            "durationTicks": 30,
            "midi": 76,
            "name": "E5",
            "ticks": 134040,
            "time": 398.92845175,
            "velocity": 0.5590551181102362
          },
          {
            "duration": 0.08928568749996657,
            "durationTicks": 30,
            "midi": 78,
            "name": "F#5",
            "ticks": 134040,
            "time": 398.92845175,
            "velocity": 0.5590551181102362
          },
          {
            "duration": 0.08928568749996657,
            "durationTicks": 30,
            "midi": 78,
            "name": "F#5",
            "ticks": 134040,
            "time": 398.92845175,
            "velocity": 0.5590551181102362
          },
          {
            "duration": 0.08928568750002341,
            "durationTicks": 30,
            "midi": 76,
            "name": "E5",
            "ticks": 134160,
            "time": 399.2855945,
            "velocity": 0.5590551181102362
          },
          {
            "duration": 0.08928568750002341,
            "durationTicks": 30,
            "midi": 76,
            "name": "E5",
            "ticks": 134160,
            "time": 399.2855945,
            "velocity": 0.5590551181102362
          },
          {
            "duration": 0.08928568750002341,
            "durationTicks": 30,
            "midi": 78,
            "name": "F#5",
            "ticks": 134160,
            "time": 399.2855945,
            "velocity": 0.5590551181102362
          },
          {
            "duration": 0.08928568750002341,
            "durationTicks": 30,
            "midi": 78,
            "name": "F#5",
            "ticks": 134160,
            "time": 399.2855945,
            "velocity": 0.5590551181102362
          },
          {
            "duration": 0.08928568750002341,
            "durationTicks": 30,
            "midi": 76,
            "name": "E5",
            "ticks": 134280,
            "time": 399.64273725,
            "velocity": 0.5590551181102362
          },
          {
            "duration": 0.08928568750002341,
            "durationTicks": 30,
            "midi": 76,
            "name": "E5",
            "ticks": 134280,
            "time": 399.64273725,
            "velocity": 0.5590551181102362
          },
          {
            "duration": 0.08928568750002341,
            "durationTicks": 30,
            "midi": 78,
            "name": "F#5",
            "ticks": 134280,
            "time": 399.64273725,
            "velocity": 0.5590551181102362
          },
          {
            "duration": 0.08928568750002341,
            "durationTicks": 30,
            "midi": 78,
            "name": "F#5",
            "ticks": 134280,
            "time": 399.64273725,
            "velocity": 0.5590551181102362
          },
          {
            "duration": 0.17857137499998998,
            "durationTicks": 60,
            "midi": 74,
            "name": "D5",
            "ticks": 134400,
            "time": 399.99988,
            "velocity": 0.5590551181102362
          },
          {
            "duration": 0.08928568749996657,
            "durationTicks": 30,
            "midi": 76,
            "name": "E5",
            "ticks": 134400,
            "time": 399.99988,
            "velocity": 0.5590551181102362
          },
          {
            "duration": 1.1428568000000041,
            "durationTicks": 384,
            "midi": 74,
            "name": "D5",
            "ticks": 134520,
            "time": 400.35702275,
            "velocity": 0.5590551181102362
          },
          {
            "duration": 0.17857137499998998,
            "durationTicks": 60,
            "midi": 76,
            "name": "E5",
            "ticks": 134520,
            "time": 400.35702275,
            "velocity": 0.5590551181102362
          },
          {
            "duration": 0.35714274999997997,
            "durationTicks": 120,
            "midi": 74,
            "name": "D5",
            "ticks": 135480,
            "time": 403.21416475,
            "velocity": 0.5590551181102362
          },
          {
            "duration": 0.33928561250002076,
            "durationTicks": 114,
            "midi": 73,
            "name": "C#5",
            "ticks": 135600,
            "time": 403.5713075,
            "velocity": 0.5590551181102362
          },
          {
            "duration": 0.2380951666666533,
            "durationTicks": 80,
            "midi": 76,
            "name": "E5",
            "ticks": 135720,
            "time": 403.92845025,
            "velocity": 0.5590551181102362
          },
          {
            "duration": 0.22619040833336612,
            "durationTicks": 76,
            "midi": 71,
            "name": "B4",
            "ticks": 135840,
            "time": 404.285593,
            "velocity": 0.5590551181102362
          },
          {
            "duration": 0.23809516666671016,
            "durationTicks": 80,
            "midi": 74,
            "name": "D5",
            "ticks": 135840,
            "time": 404.285593,
            "velocity": 0.5590551181102362
          },
          {
            "duration": 2.8571420000000103,
            "durationTicks": 960,
            "midi": 69,
            "name": "A4",
            "ticks": 135960,
            "time": 404.64273575,
            "velocity": 0.5590551181102362
          },
          {
            "duration": 0.7142855000000168,
            "durationTicks": 240,
            "midi": 68,
            "name": "G#4",
            "ticks": 136920,
            "time": 407.49987775,
            "velocity": 0.4881889763779528
          },
          {
            "duration": 0.6785712250000415,
            "durationTicks": 228,
            "midi": 67,
            "name": "G4",
            "ticks": 137160,
            "time": 408.21416325,
            "velocity": 0.4881889763779528
          },
          {
            "duration": 1.1428568000000041,
            "durationTicks": 384,
            "midi": 66,
            "name": "F#4",
            "ticks": 137400,
            "time": 408.92844875000003,
            "velocity": 0.4881889763779528
          },
          {
            "duration": 0.23809516666671016,
            "durationTicks": 80,
            "midi": 52,
            "name": "E3",
            "ticks": 138360,
            "time": 411.78559075,
            "velocity": 0.4881889763779528
          },
          {
            "duration": 0.23809516666671016,
            "durationTicks": 80,
            "midi": 54,
            "name": "F#3",
            "ticks": 138480,
            "time": 412.1427335,
            "velocity": 0.4881889763779528
          },
          {
            "duration": 0.23809516666671016,
            "durationTicks": 80,
            "midi": 55,
            "name": "G3",
            "ticks": 138480,
            "time": 412.1427335,
            "velocity": 0.4881889763779528
          },
          {
            "duration": 0.23809516666671016,
            "durationTicks": 80,
            "midi": 52,
            "name": "E3",
            "ticks": 138600,
            "time": 412.49987625,
            "velocity": 0.4881889763779528
          },
          {
            "duration": 0.2380951666666533,
            "durationTicks": 80,
            "midi": 55,
            "name": "G3",
            "ticks": 138720,
            "time": 412.85701900000004,
            "velocity": 0.4881889763779528
          },
          {
            "duration": 0.22619040833336612,
            "durationTicks": 76,
            "midi": 59,
            "name": "B3",
            "ticks": 138720,
            "time": 412.85701900000004,
            "velocity": 0.4881889763779528
          },
          {
            "duration": 2.035713675000011,
            "durationTicks": 684,
            "midi": 57,
            "name": "A3",
            "ticks": 138840,
            "time": 413.21416175,
            "velocity": 0.4881889763779528
          },
          {
            "duration": 0.7142855000000168,
            "durationTicks": 240,
            "midi": 57,
            "name": "A3",
            "ticks": 139560,
            "time": 415.35701825,
            "velocity": 0.4881889763779528
          },
          {
            "duration": 0.7142854999999599,
            "durationTicks": 240,
            "midi": 59,
            "name": "B3",
            "ticks": 139800,
            "time": 416.07130375,
            "velocity": 0.4881889763779528
          },
          {
            "duration": 0.6785712250000415,
            "durationTicks": 228,
            "midi": 61,
            "name": "C#4",
            "ticks": 140040,
            "time": 416.78558925,
            "velocity": 0.4881889763779528
          },
          {
            "duration": 1.3571424499999694,
            "durationTicks": 456,
            "midi": 62,
            "name": "D4",
            "ticks": 140280,
            "time": 417.49987475,
            "velocity": 0.4881889763779528
          },
          {
            "duration": 1.3571424499999694,
            "durationTicks": 456,
            "midi": 62,
            "name": "D4",
            "ticks": 140760,
            "time": 418.92844575000004,
            "velocity": 0.4881889763779528
          },
          {
            "duration": 1.3571424499999694,
            "durationTicks": 456,
            "midi": 62,
            "name": "D4",
            "ticks": 141240,
            "time": 420.35701675,
            "velocity": 0.4881889763779528
          },
          {
            "duration": 2.7142848999999956,
            "durationTicks": 912,
            "midi": 62,
            "name": "D4",
            "ticks": 141720,
            "time": 421.78558775,
            "velocity": 0.4881889763779528
          }
        ]
      },
      {
        "channel": 0,
        "controlChanges": {},
        "pitchBends": [],
        "instrument": {
          "family": "piano",
          "number": 0,
          "name": "acoustic grand piano"
        },
        "name": "k622_2",
        "notes": [],
        "endOfTrackTicks": 144600
      },
      {
        "channel": 0,
        "controlChanges": {
          "7": [
            {
              "number": 7,
              "ticks": 0,
              "time": 0,
              "value": 0.6850393700787402
            }
          ],
          "10": [
            {
              "number": 10,
              "ticks": 0,
              "time": 0,
              "value": 0.5039370078740157
            }
          ],
          "91": [
            {
              "number": 91,
              "ticks": 0,
              "time": 0,
              "value": 0.5511811023622047
            }
          ]
        },
        "pitchBends": [],
        "instrument": {
          "family": "pipe",
          "number": 73,
          "name": "flute"
        },
        "name": "",
        "notes": [
          {
            "duration": 1.428570999999998,
            "durationTicks": 480,
            "midi": 69,
            "name": "A4",
            "ticks": 11520,
            "time": 34.285704,
            "velocity": 0.7086614173228346
          },
          {
            "duration": 4.142855899999994,
            "durationTicks": 1392,
            "midi": 81,
            "name": "A5",
            "ticks": 11520,
            "time": 34.285704,
            "velocity": 0.7086614173228346
          },
          {
            "duration": 2.1428565000000006,
            "durationTicks": 720,
            "midi": 74,
            "name": "D5",
            "ticks": 12000,
            "time": 35.714275,
            "velocity": 0.7086614173228346
          },
          {
            "duration": 0.571428399999995,
            "durationTicks": 192,
            "midi": 78,
            "name": "F#5",
            "ticks": 12720,
            "time": 37.8571315,
            "velocity": 0.7086614173228346
          },
          {
            "duration": 0.7142854999999955,
            "durationTicks": 240,
            "midi": 78,
            "name": "F#5",
            "ticks": 12960,
            "time": 38.571417000000004,
            "velocity": 0.7086614173228346
          },
          {
            "duration": 3.9999988,
            "durationTicks": 1344,
            "midi": 81,
            "name": "A5",
            "ticks": 12960,
            "time": 38.571417000000004,
            "velocity": 0.7086614173228346
          },
          {
            "duration": 0.5714284000000021,
            "durationTicks": 192,
            "midi": 76,
            "name": "E5",
            "ticks": 13200,
            "time": 39.2857025,
            "velocity": 0.7086614173228346
          },
          {
            "duration": 1.142856799999997,
            "durationTicks": 384,
            "midi": 74,
            "name": "D5",
            "ticks": 13440,
            "time": 39.999988,
            "velocity": 0.7086614173228346
          },
          {
            "duration": 2.857142000000003,
            "durationTicks": 960,
            "midi": 78,
            "name": "F#5",
            "ticks": 14400,
            "time": 42.85713,
            "velocity": 0.7086614173228346
          },
          {
            "duration": 2.1428565000000006,
            "durationTicks": 720,
            "midi": 81,
            "name": "A5",
            "ticks": 14400,
            "time": 42.85713,
            "velocity": 0.7086614173228346
          },
          {
            "duration": 0.7142855000000026,
            "durationTicks": 240,
            "midi": 86,
            "name": "D6",
            "ticks": 15120,
            "time": 44.9999865,
            "velocity": 0.7086614173228346
          },
          {
            "duration": 0.7142855000000026,
            "durationTicks": 240,
            "midi": 74,
            "name": "D5",
            "ticks": 15360,
            "time": 45.714272,
            "velocity": 0.7086614173228346
          },
          {
            "duration": 0.7142855000000026,
            "durationTicks": 240,
            "midi": 78,
            "name": "F#5",
            "ticks": 15360,
            "time": 45.714272,
            "velocity": 0.7086614173228346
          },
          {
            "duration": 0.571428399999995,
            "durationTicks": 192,
            "midi": 78,
            "name": "F#5",
            "ticks": 15600,
            "time": 46.428557500000004,
            "velocity": 0.7086614173228346
          },
          {
            "duration": 0.571428399999995,
            "durationTicks": 192,
            "midi": 81,
            "name": "A5",
            "ticks": 15600,
            "time": 46.428557500000004,
            "velocity": 0.7086614173228346
          },
          {
            "duration": 1.2857138999999975,
            "durationTicks": 432,
            "midi": 76,
            "name": "E5",
            "ticks": 15840,
            "time": 47.142843,
            "velocity": 0.7086614173228346
          },
          {
            "duration": 0.7142855000000026,
            "durationTicks": 240,
            "midi": 81,
            "name": "A5",
            "ticks": 15840,
            "time": 47.142843,
            "velocity": 0.7086614173228346
          },
          {
            "duration": 0.571428399999995,
            "durationTicks": 192,
            "midi": 79,
            "name": "G5",
            "ticks": 16080,
            "time": 47.8571285,
            "velocity": 0.7086614173228346
          },
          {
            "duration": 1.14285679999999,
            "durationTicks": 384,
            "midi": 74,
            "name": "D5",
            "ticks": 16320,
            "time": 48.571414000000004,
            "velocity": 0.7086614173228346
          },
          {
            "duration": 1.14285679999999,
            "durationTicks": 384,
            "midi": 78,
            "name": "F#5",
            "ticks": 16320,
            "time": 48.571414000000004,
            "velocity": 0.7086614173228346
          },
          {
            "duration": 2.857142000000003,
            "durationTicks": 960,
            "midi": 73,
            "name": "C#5",
            "ticks": 17280,
            "time": 51.428556,
            "velocity": 0.7086614173228346
          },
          {
            "duration": 2.857142000000003,
            "durationTicks": 960,
            "midi": 76,
            "name": "E5",
            "ticks": 17280,
            "time": 51.428556,
            "velocity": 0.7086614173228346
          },
          {
            "duration": 1.142856799999997,
            "durationTicks": 384,
            "midi": 74,
            "name": "D5",
            "ticks": 18240,
            "time": 54.285698000000004,
            "velocity": 0.7086614173228346
          },
          {
            "duration": 1.142856799999997,
            "durationTicks": 384,
            "midi": 78,
            "name": "F#5",
            "ticks": 18240,
            "time": 54.285698000000004,
            "velocity": 0.7086614173228346
          },
          {
            "duration": 2.1428565000000006,
            "durationTicks": 720,
            "midi": 73,
            "name": "C#5",
            "ticks": 18720,
            "time": 55.714269,
            "velocity": 0.7086614173228346
          },
          {
            "duration": 1.428570999999998,
            "durationTicks": 480,
            "midi": 76,
            "name": "E5",
            "ticks": 18720,
            "time": 55.714269,
            "velocity": 0.7086614173228346
          },
          {
            "duration": 0.7142855000000026,
            "durationTicks": 240,
            "midi": 81,
            "name": "A5",
            "ticks": 19200,
            "time": 57.14284,
            "velocity": 0.7086614173228346
          },
          {
            "duration": 0.7142855000000026,
            "durationTicks": 240,
            "midi": 76,
            "name": "E5",
            "ticks": 19440,
            "time": 57.8571255,
            "velocity": 0.7086614173228346
          },
          {
            "duration": 0.7142855000000026,
            "durationTicks": 240,
            "midi": 85,
            "name": "C#6",
            "ticks": 19440,
            "time": 57.8571255,
            "velocity": 0.7086614173228346
          },
          {
            "duration": 0.7142854999999955,
            "durationTicks": 240,
            "midi": 78,
            "name": "F#5",
            "ticks": 19680,
            "time": 58.571411000000005,
            "velocity": 0.7086614173228346
          },
          {
            "duration": 0.7142854999999955,
            "durationTicks": 240,
            "midi": 83,
            "name": "B5",
            "ticks": 19680,
            "time": 58.571411000000005,
            "velocity": 0.7086614173228346
          },
          {
            "duration": 0.5714284000000021,
            "durationTicks": 192,
            "midi": 74,
            "name": "D5",
            "ticks": 19920,
            "time": 59.2856965,
            "velocity": 0.7086614173228346
          },
          {
            "duration": 0.5714284000000021,
            "durationTicks": 192,
            "midi": 90,
            "name": "F#6",
            "ticks": 19920,
            "time": 59.2856965,
            "velocity": 0.7086614173228346
          },
          {
            "duration": 2.285713600000001,
            "durationTicks": 768,
            "midi": 73,
            "name": "C#5",
            "ticks": 20160,
            "time": 59.999982,
            "velocity": 0.7086614173228346
          },
          {
            "duration": 2.285713600000001,
            "durationTicks": 768,
            "midi": 81,
            "name": "A5",
            "ticks": 20160,
            "time": 59.999982,
            "velocity": 0.7086614173228346
          },
          {
            "duration": 0.3571427500000013,
            "durationTicks": 120,
            "midi": 76,
            "name": "E5",
            "ticks": 21120,
            "time": 62.857124,
            "velocity": 0.7086614173228346
          },
          {
            "duration": 0.3571427500000013,
            "durationTicks": 120,
            "midi": 85,
            "name": "C#6",
            "ticks": 21120,
            "time": 62.857124,
            "velocity": 0.7086614173228346
          },
          {
            "duration": 0.7142855000000026,
            "durationTicks": 240,
            "midi": 74,
            "name": "D5",
            "ticks": 21240,
            "time": 63.21426675,
            "velocity": 0.7086614173228346
          },
          {
            "duration": 0.7142855000000026,
            "durationTicks": 240,
            "midi": 83,
            "name": "B5",
            "ticks": 21240,
            "time": 63.21426675,
            "velocity": 0.7086614173228346
          },
          {
            "duration": 0.28571420000000813,
            "durationTicks": 96,
            "midi": 73,
            "name": "C#5",
            "ticks": 21480,
            "time": 63.92855225,
            "velocity": 0.7086614173228346
          },
          {
            "duration": 0.28571420000000813,
            "durationTicks": 96,
            "midi": 81,
            "name": "A5",
            "ticks": 21480,
            "time": 63.92855225,
            "velocity": 0.7086614173228346
          },
          {
            "duration": 1.14285679999999,
            "durationTicks": 384,
            "midi": 73,
            "name": "C#5",
            "ticks": 21600,
            "time": 64.285695,
            "velocity": 0.6299212598425197
          },
          {
            "duration": 1.14285679999999,
            "durationTicks": 384,
            "midi": 81,
            "name": "A5",
            "ticks": 21600,
            "time": 64.285695,
            "velocity": 0.6299212598425197
          },
          {
            "duration": 2.1428565000000077,
            "durationTicks": 720,
            "midi": 79,
            "name": "G5",
            "ticks": 36000,
            "time": 107.142825,
            "velocity": 0.7086614173228346
          },
          {
            "duration": 2.1428565000000077,
            "durationTicks": 720,
            "midi": 83,
            "name": "B5",
            "ticks": 36000,
            "time": 107.142825,
            "velocity": 0.7086614173228346
          },
          {
            "duration": 0.7142854999999884,
            "durationTicks": 240,
            "midi": 78,
            "name": "F#5",
            "ticks": 36720,
            "time": 109.28568150000001,
            "velocity": 0.7086614173228346
          },
          {
            "duration": 0.7142854999999884,
            "durationTicks": 240,
            "midi": 81,
            "name": "A5",
            "ticks": 36720,
            "time": 109.28568150000001,
            "velocity": 0.7086614173228346
          },
          {
            "duration": 0.7142855000000026,
            "durationTicks": 240,
            "midi": 76,
            "name": "E5",
            "ticks": 36960,
            "time": 109.999967,
            "velocity": 0.7086614173228346
          },
          {
            "duration": 0.7142855000000026,
            "durationTicks": 240,
            "midi": 79,
            "name": "G5",
            "ticks": 36960,
            "time": 109.999967,
            "velocity": 0.7086614173228346
          },
          {
            "duration": 0.7142855000000026,
            "durationTicks": 240,
            "midi": 75,
            "name": "D#5",
            "ticks": 37200,
            "time": 110.7142525,
            "velocity": 0.7086614173228346
          },
          {
            "duration": 0.7142855000000026,
            "durationTicks": 240,
            "midi": 78,
            "name": "F#5",
            "ticks": 37200,
            "time": 110.7142525,
            "velocity": 0.7086614173228346
          },
          {
            "duration": 1.14285679999999,
            "durationTicks": 384,
            "midi": 76,
            "name": "E5",
            "ticks": 37440,
            "time": 111.428538,
            "velocity": 0.7086614173228346
          },
          {
            "duration": 2.1428564999999935,
            "durationTicks": 720,
            "midi": 81,
            "name": "A5",
            "ticks": 38880,
            "time": 115.714251,
            "velocity": 0.7086614173228346
          },
          {
            "duration": 2.1428564999999935,
            "durationTicks": 720,
            "midi": 85,
            "name": "C#6",
            "ticks": 38880,
            "time": 115.714251,
            "velocity": 0.7086614173228346
          },
          {
            "duration": 0.7142855000000026,
            "durationTicks": 240,
            "midi": 80,
            "name": "G#5",
            "ticks": 39600,
            "time": 117.8571075,
            "velocity": 0.7086614173228346
          },
          {
            "duration": 0.7142855000000026,
            "durationTicks": 240,
            "midi": 83,
            "name": "B5",
            "ticks": 39600,
            "time": 117.8571075,
            "velocity": 0.7086614173228346
          },
          {
            "duration": 0.7142855000000026,
            "durationTicks": 240,
            "midi": 78,
            "name": "F#5",
            "ticks": 39840,
            "time": 118.571393,
            "velocity": 0.7086614173228346
          },
          {
            "duration": 0.7142855000000026,
            "durationTicks": 240,
            "midi": 81,
            "name": "A5",
            "ticks": 39840,
            "time": 118.571393,
            "velocity": 0.7086614173228346
          },
          {
            "duration": 0.7142855000000026,
            "durationTicks": 240,
            "midi": 77,
            "name": "F5",
            "ticks": 40080,
            "time": 119.2856785,
            "velocity": 0.7086614173228346
          },
          {
            "duration": 0.7142855000000026,
            "durationTicks": 240,
            "midi": 80,
            "name": "G#5",
            "ticks": 40080,
            "time": 119.2856785,
            "velocity": 0.7086614173228346
          },
          {
            "duration": 1.14285679999999,
            "durationTicks": 384,
            "midi": 78,
            "name": "F#5",
            "ticks": 40320,
            "time": 119.999964,
            "velocity": 0.7086614173228346
          },
          {
            "duration": 1.4285710000000051,
            "durationTicks": 480,
            "midi": 76,
            "name": "E5",
            "ticks": 42240,
            "time": 125.714248,
            "velocity": 0.7086614173228346
          },
          {
            "duration": 2.1428565000000077,
            "durationTicks": 720,
            "midi": 79,
            "name": "G5",
            "ticks": 42240,
            "time": 125.714248,
            "velocity": 0.7086614173228346
          },
          {
            "duration": 1.4285710000000051,
            "durationTicks": 480,
            "midi": 74,
            "name": "D5",
            "ticks": 42720,
            "time": 127.142819,
            "velocity": 0.7086614173228346
          },
          {
            "duration": 0.7142855000000026,
            "durationTicks": 240,
            "midi": 78,
            "name": "F#5",
            "ticks": 42960,
            "time": 127.8571045,
            "velocity": 0.7086614173228346
          },
          {
            "duration": 1.410713862499989,
            "durationTicks": 474,
            "midi": 71,
            "name": "B4",
            "ticks": 43200,
            "time": 128.57139,
            "velocity": 0.7086614173228346
          },
          {
            "duration": 0.3571427500000084,
            "durationTicks": 120,
            "midi": 76,
            "name": "E5",
            "ticks": 43200,
            "time": 128.57139,
            "velocity": 0.7086614173228346
          },
          {
            "duration": 0.35714274999997997,
            "durationTicks": 120,
            "midi": 83,
            "name": "B5",
            "ticks": 43320,
            "time": 128.92853275000002,
            "velocity": 0.7086614173228346
          },
          {
            "duration": 0.3571427500000084,
            "durationTicks": 120,
            "midi": 79,
            "name": "G5",
            "ticks": 43440,
            "time": 129.2856755,
            "velocity": 0.7086614173228346
          },
          {
            "duration": 0.33928561249999234,
            "durationTicks": 114,
            "midi": 76,
            "name": "E5",
            "ticks": 43560,
            "time": 129.64281825,
            "velocity": 0.7086614173228346
          },
          {
            "duration": 1.3571424499999978,
            "durationTicks": 456,
            "midi": 69,
            "name": "A4",
            "ticks": 43680,
            "time": 129.999961,
            "velocity": 0.7086614173228346
          },
          {
            "duration": 1.3571424499999978,
            "durationTicks": 456,
            "midi": 74,
            "name": "D5",
            "ticks": 43680,
            "time": 129.999961,
            "velocity": 0.7086614173228346
          },
          {
            "duration": 1.4107138625000175,
            "durationTicks": 474,
            "midi": 73,
            "name": "C#5",
            "ticks": 44160,
            "time": 131.428532,
            "velocity": 0.7086614173228346
          },
          {
            "duration": 0.3571427500000084,
            "durationTicks": 120,
            "midi": 78,
            "name": "F#5",
            "ticks": 44160,
            "time": 131.428532,
            "velocity": 0.7086614173228346
          },
          {
            "duration": 0.7142855000000168,
            "durationTicks": 240,
            "midi": 76,
            "name": "E5",
            "ticks": 44280,
            "time": 131.78567475,
            "velocity": 0.7086614173228346
          },
          {
            "duration": 0.33928561249999234,
            "durationTicks": 114,
            "midi": 74,
            "name": "D5",
            "ticks": 44520,
            "time": 132.49996025000002,
            "velocity": 0.7086614173228346
          },
          {
            "duration": 1.1428568000000041,
            "durationTicks": 384,
            "midi": 74,
            "name": "D5",
            "ticks": 44640,
            "time": 132.857103,
            "velocity": 0.7086614173228346
          },
          {
            "duration": 4.8571414000000175,
            "durationTicks": 1632,
            "midi": 73,
            "name": "C#5",
            "ticks": 76320,
            "time": 227.142789,
            "velocity": 0.7086614173228346
          },
          {
            "duration": 4.8571414000000175,
            "durationTicks": 1632,
            "midi": 81,
            "name": "A5",
            "ticks": 76320,
            "time": 227.142789,
            "velocity": 0.7086614173228346
          },
          {
            "duration": 4.8571414000000175,
            "durationTicks": 1632,
            "midi": 80,
            "name": "G#5",
            "ticks": 79200,
            "time": 235.714215,
            "velocity": 0.7086614173228346
          },
          {
            "duration": 4.8571414000000175,
            "durationTicks": 1632,
            "midi": 86,
            "name": "D6",
            "ticks": 79200,
            "time": 235.714215,
            "velocity": 0.7086614173228346
          },
          {
            "duration": 5.4285698000000195,
            "durationTicks": 1824,
            "midi": 79,
            "name": "G5",
            "ticks": 82080,
            "time": 244.285641,
            "velocity": 0.7086614173228346
          },
          {
            "duration": 5.4285698000000195,
            "durationTicks": 1824,
            "midi": 85,
            "name": "C#6",
            "ticks": 82080,
            "time": 244.285641,
            "velocity": 0.7086614173228346
          },
          {
            "duration": 2.1428564999999935,
            "durationTicks": 720,
            "midi": 79,
            "name": "G5",
            "ticks": 111480,
            "time": 331.78561475000004,
            "velocity": 0.7086614173228346
          },
          {
            "duration": 2.1428564999999935,
            "durationTicks": 720,
            "midi": 83,
            "name": "B5",
            "ticks": 111480,
            "time": 331.78561475000004,
            "velocity": 0.7086614173228346
          },
          {
            "duration": 0.7142854999999599,
            "durationTicks": 240,
            "midi": 78,
            "name": "F#5",
            "ticks": 112200,
            "time": 333.92847125000003,
            "velocity": 0.7086614173228346
          },
          {
            "duration": 0.7142854999999599,
            "durationTicks": 240,
            "midi": 81,
            "name": "A5",
            "ticks": 112200,
            "time": 333.92847125000003,
            "velocity": 0.7086614173228346
          },
          {
            "duration": 0.7142855000000168,
            "durationTicks": 240,
            "midi": 76,
            "name": "E5",
            "ticks": 112440,
            "time": 334.64275675,
            "velocity": 0.7086614173228346
          },
          {
            "duration": 0.7142855000000168,
            "durationTicks": 240,
            "midi": 79,
            "name": "G5",
            "ticks": 112440,
            "time": 334.64275675,
            "velocity": 0.7086614173228346
          },
          {
            "duration": 0.7142855000000168,
            "durationTicks": 240,
            "midi": 75,
            "name": "D#5",
            "ticks": 112680,
            "time": 335.35704225,
            "velocity": 0.7086614173228346
          },
          {
            "duration": 0.7142855000000168,
            "durationTicks": 240,
            "midi": 78,
            "name": "F#5",
            "ticks": 112680,
            "time": 335.35704225,
            "velocity": 0.7086614173228346
          },
          {
            "duration": 1.1428568000000041,
            "durationTicks": 384,
            "midi": 76,
            "name": "E5",
            "ticks": 112920,
            "time": 336.07132775,
            "velocity": 0.7086614173228346
          },
          {
            "duration": 2.1428564999999935,
            "durationTicks": 720,
            "midi": 81,
            "name": "A5",
            "ticks": 114360,
            "time": 340.35704075,
            "velocity": 0.7086614173228346
          },
          {
            "duration": 2.1428564999999935,
            "durationTicks": 720,
            "midi": 85,
            "name": "C#6",
            "ticks": 114360,
            "time": 340.35704075,
            "velocity": 0.7086614173228346
          },
          {
            "duration": 0.7142855000000168,
            "durationTicks": 240,
            "midi": 80,
            "name": "G#5",
            "ticks": 115080,
            "time": 342.49989725,
            "velocity": 0.7086614173228346
          },
          {
            "duration": 0.7142855000000168,
            "durationTicks": 240,
            "midi": 83,
            "name": "B5",
            "ticks": 115080,
            "time": 342.49989725,
            "velocity": 0.7086614173228346
          },
          {
            "duration": 0.7142854999999599,
            "durationTicks": 240,
            "midi": 78,
            "name": "F#5",
            "ticks": 115320,
            "time": 343.21418275,
            "velocity": 0.7086614173228346
          },
          {
            "duration": 0.7142854999999599,
            "durationTicks": 240,
            "midi": 81,
            "name": "A5",
            "ticks": 115320,
            "time": 343.21418275,
            "velocity": 0.7086614173228346
          },
          {
            "duration": 0.7142855000000168,
            "durationTicks": 240,
            "midi": 77,
            "name": "F5",
            "ticks": 115560,
            "time": 343.92846825,
            "velocity": 0.7086614173228346
          },
          {
            "duration": 0.7142855000000168,
            "durationTicks": 240,
            "midi": 80,
            "name": "G#5",
            "ticks": 115560,
            "time": 343.92846825,
            "velocity": 0.7086614173228346
          },
          {
            "duration": 1.1428568000000041,
            "durationTicks": 384,
            "midi": 78,
            "name": "F#5",
            "ticks": 115800,
            "time": 344.64275375,
            "velocity": 0.7086614173228346
          },
          {
            "duration": 1.1428568000000041,
            "durationTicks": 384,
            "midi": 70,
            "name": "A#4",
            "ticks": 117720,
            "time": 350.35703775,
            "velocity": 0.7086614173228346
          },
          {
            "duration": 1.1428568000000041,
            "durationTicks": 384,
            "midi": 74,
            "name": "D5",
            "ticks": 117720,
            "time": 350.35703775,
            "velocity": 0.7086614173228346
          },
          {
            "duration": 1.1428568000000041,
            "durationTicks": 384,
            "midi": 72,
            "name": "C5",
            "ticks": 118200,
            "time": 351.78560875,
            "velocity": 0.7086614173228346
          },
          {
            "duration": 1.1428568000000041,
            "durationTicks": 384,
            "midi": 75,
            "name": "D#5",
            "ticks": 118200,
            "time": 351.78560875,
            "velocity": 0.7086614173228346
          },
          {
            "duration": 1.4107138625000175,
            "durationTicks": 474,
            "midi": 71,
            "name": "B4",
            "ticks": 118680,
            "time": 353.21417975,
            "velocity": 0.7086614173228346
          },
          {
            "duration": 0.35714274999997997,
            "durationTicks": 120,
            "midi": 76,
            "name": "E5",
            "ticks": 118680,
            "time": 353.21417975,
            "velocity": 0.7086614173228346
          },
          {
            "duration": 0.35714274999997997,
            "durationTicks": 120,
            "midi": 83,
            "name": "B5",
            "ticks": 118800,
            "time": 353.5713225,
            "velocity": 0.7086614173228346
          },
          {
            "duration": 0.3571427500000368,
            "durationTicks": 120,
            "midi": 79,
            "name": "G5",
            "ticks": 118920,
            "time": 353.92846525,
            "velocity": 0.7086614173228346
          },
          {
            "duration": 0.33928561250002076,
            "durationTicks": 114,
            "midi": 76,
            "name": "E5",
            "ticks": 119040,
            "time": 354.285608,
            "velocity": 0.7086614173228346
          },
          {
            "duration": 1.3571424499999694,
            "durationTicks": 456,
            "midi": 69,
            "name": "A4",
            "ticks": 119160,
            "time": 354.64275075,
            "velocity": 0.7086614173228346
          },
          {
            "duration": 1.3571424499999694,
            "durationTicks": 456,
            "midi": 74,
            "name": "D5",
            "ticks": 119160,
            "time": 354.64275075,
            "velocity": 0.7086614173228346
          },
          {
            "duration": 1.3571424500000262,
            "durationTicks": 456,
            "midi": 73,
            "name": "C#5",
            "ticks": 119640,
            "time": 356.07132175,
            "velocity": 0.7086614173228346
          },
          {
            "duration": 0.3571427500000368,
            "durationTicks": 120,
            "midi": 78,
            "name": "F#5",
            "ticks": 119640,
            "time": 356.07132175,
            "velocity": 0.7086614173228346
          },
          {
            "duration": 0.7142855000000168,
            "durationTicks": 240,
            "midi": 76,
            "name": "E5",
            "ticks": 119760,
            "time": 356.4284645,
            "velocity": 0.7086614173228346
          },
          {
            "duration": 0.2857141999999726,
            "durationTicks": 96,
            "midi": 74,
            "name": "D5",
            "ticks": 120000,
            "time": 357.14275000000004,
            "velocity": 0.7086614173228346
          },
          {
            "duration": 1.1428568000000041,
            "durationTicks": 384,
            "midi": 74,
            "name": "D5",
            "ticks": 120120,
            "time": 357.49989275,
            "velocity": 0.7086614173228346
          },
          {
            "duration": 5.428569800000048,
            "durationTicks": 1824,
            "midi": 78,
            "name": "F#5",
            "ticks": 140280,
            "time": 417.49987475,
            "velocity": 0.4881889763779528
          },
          {
            "duration": 5.428569800000048,
            "durationTicks": 1824,
            "midi": 86,
            "name": "D6",
            "ticks": 140280,
            "time": 417.49987475,
            "velocity": 0.4881889763779528
          }
        ]
      },
      {
        "channel": 0,
        "controlChanges": {},
        "pitchBends": [],
        "instrument": {
          "family": "piano",
          "number": 0,
          "name": "acoustic grand piano"
        },
        "name": "k622_2",
        "notes": [],
        "endOfTrackTicks": 144600
      },
      {
        "channel": 1,
        "controlChanges": {
          "7": [
            {
              "number": 7,
              "ticks": 0,
              "time": 0,
              "value": 0.7007874015748031
            }
          ],
          "10": [
            {
              "number": 10,
              "ticks": 0,
              "time": 0,
              "value": 0.6299212598425197
            }
          ],
          "91": [
            {
              "number": 91,
              "ticks": 0,
              "time": 0,
              "value": 0.5511811023622047
            }
          ]
        },
        "pitchBends": [],
        "instrument": {
          "family": "reed",
          "number": 70,
          "name": "bassoon"
        },
        "name": "",
        "notes": [
          {
            "duration": 3.428570399999998,
            "durationTicks": 1152,
            "midi": 50,
            "name": "D3",
            "ticks": 11520,
            "time": 34.285704,
            "velocity": 0.7086614173228346
          },
          {
            "duration": 8.285711800000001,
            "durationTicks": 2784,
            "midi": 57,
            "name": "A3",
            "ticks": 11520,
            "time": 34.285704,
            "velocity": 0.7086614173228346
          },
          {
            "duration": 1.142856799999997,
            "durationTicks": 384,
            "midi": 45,
            "name": "A2",
            "ticks": 12960,
            "time": 38.571417000000004,
            "velocity": 0.7086614173228346
          },
          {
            "duration": 1.142856799999997,
            "durationTicks": 384,
            "midi": 50,
            "name": "D3",
            "ticks": 13440,
            "time": 39.999988,
            "velocity": 0.7086614173228346
          },
          {
            "duration": 3.428570399999998,
            "durationTicks": 1152,
            "midi": 50,
            "name": "D3",
            "ticks": 14400,
            "time": 42.85713,
            "velocity": 0.7086614173228346
          },
          {
            "duration": 8.285711800000001,
            "durationTicks": 2784,
            "midi": 57,
            "name": "A3",
            "ticks": 14400,
            "time": 42.85713,
            "velocity": 0.7086614173228346
          },
          {
            "duration": 1.142856799999997,
            "durationTicks": 384,
            "midi": 45,
            "name": "A2",
            "ticks": 15840,
            "time": 47.142843,
            "velocity": 0.7086614173228346
          },
          {
            "duration": 1.14285679999999,
            "durationTicks": 384,
            "midi": 50,
            "name": "D3",
            "ticks": 16320,
            "time": 48.571414000000004,
            "velocity": 0.7086614173228346
          },
          {
            "duration": 7.142855000000004,
            "durationTicks": 2400,
            "midi": 57,
            "name": "A3",
            "ticks": 17280,
            "time": 51.428556,
            "velocity": 0.7086614173228346
          },
          {
            "duration": 1.14285679999999,
            "durationTicks": 384,
            "midi": 54,
            "name": "F#3",
            "ticks": 19680,
            "time": 58.571411000000005,
            "velocity": 0.7086614173228346
          },
          {
            "duration": 1.14285679999999,
            "durationTicks": 384,
            "midi": 62,
            "name": "D4",
            "ticks": 19680,
            "time": 58.571411000000005,
            "velocity": 0.7086614173228346
          },
          {
            "duration": 2.857141999999996,
            "durationTicks": 960,
            "midi": 57,
            "name": "A3",
            "ticks": 20160,
            "time": 59.999982,
            "velocity": 0.7086614173228346
          },
          {
            "duration": 2.857141999999996,
            "durationTicks": 960,
            "midi": 61,
            "name": "C#4",
            "ticks": 20160,
            "time": 59.999982,
            "velocity": 0.7086614173228346
          },
          {
            "duration": 1.142856799999997,
            "durationTicks": 384,
            "midi": 56,
            "name": "G#3",
            "ticks": 21120,
            "time": 62.857124,
            "velocity": 0.7086614173228346
          },
          {
            "duration": 1.142856799999997,
            "durationTicks": 384,
            "midi": 59,
            "name": "B3",
            "ticks": 21120,
            "time": 62.857124,
            "velocity": 0.7086614173228346
          },
          {
            "duration": 1.14285679999999,
            "durationTicks": 384,
            "midi": 57,
            "name": "A3",
            "ticks": 21600,
            "time": 64.285695,
            "velocity": 0.6299212598425197
          },
          {
            "duration": 2.285713599999994,
            "durationTicks": 768,
            "midi": 57,
            "name": "A3",
            "ticks": 34560,
            "time": 102.857112,
            "velocity": 0.7086614173228346
          },
          {
            "duration": 1.428570999999991,
            "durationTicks": 480,
            "midi": 61,
            "name": "C#4",
            "ticks": 36480,
            "time": 108.57139600000001,
            "velocity": 0.7086614173228346
          },
          {
            "duration": 0.7142855000000026,
            "durationTicks": 240,
            "midi": 59,
            "name": "B3",
            "ticks": 36960,
            "time": 109.999967,
            "velocity": 0.7086614173228346
          },
          {
            "duration": 0.7142855000000026,
            "durationTicks": 240,
            "midi": 57,
            "name": "A3",
            "ticks": 37200,
            "time": 110.7142525,
            "velocity": 0.7086614173228346
          },
          {
            "duration": 0.7142855000000026,
            "durationTicks": 240,
            "midi": 59,
            "name": "B3",
            "ticks": 37200,
            "time": 110.7142525,
            "velocity": 0.7086614173228346
          },
          {
            "duration": 2.1428564999999935,
            "durationTicks": 720,
            "midi": 55,
            "name": "G3",
            "ticks": 37440,
            "time": 111.428538,
            "velocity": 0.7086614173228346
          },
          {
            "duration": 2.1428564999999935,
            "durationTicks": 720,
            "midi": 59,
            "name": "B3",
            "ticks": 37440,
            "time": 111.428538,
            "velocity": 0.7086614173228346
          },
          {
            "duration": 0.7142855000000026,
            "durationTicks": 240,
            "midi": 54,
            "name": "F#3",
            "ticks": 38160,
            "time": 113.5713945,
            "velocity": 0.7086614173228346
          },
          {
            "duration": 0.7142855000000026,
            "durationTicks": 240,
            "midi": 57,
            "name": "A3",
            "ticks": 38160,
            "time": 113.5713945,
            "velocity": 0.7086614173228346
          },
          {
            "duration": 0.7142855000000026,
            "durationTicks": 240,
            "midi": 52,
            "name": "E3",
            "ticks": 38400,
            "time": 114.28568,
            "velocity": 0.7086614173228346
          },
          {
            "duration": 0.7142855000000026,
            "durationTicks": 240,
            "midi": 55,
            "name": "G3",
            "ticks": 38400,
            "time": 114.28568,
            "velocity": 0.7086614173228346
          },
          {
            "duration": 0.5714284000000021,
            "durationTicks": 192,
            "midi": 50,
            "name": "D3",
            "ticks": 38640,
            "time": 114.9999655,
            "velocity": 0.7086614173228346
          },
          {
            "duration": 0.5714284000000021,
            "durationTicks": 192,
            "midi": 54,
            "name": "F#3",
            "ticks": 38640,
            "time": 114.9999655,
            "velocity": 0.7086614173228346
          },
          {
            "duration": 0.5714284000000021,
            "durationTicks": 192,
            "midi": 49,
            "name": "C#3",
            "ticks": 38880,
            "time": 115.714251,
            "velocity": 0.7086614173228346
          },
          {
            "duration": 0.5714284000000021,
            "durationTicks": 192,
            "midi": 52,
            "name": "E3",
            "ticks": 38880,
            "time": 115.714251,
            "velocity": 0.7086614173228346
          },
          {
            "duration": 1.428570999999991,
            "durationTicks": 480,
            "midi": 62,
            "name": "D4",
            "ticks": 39360,
            "time": 117.14282200000001,
            "velocity": 0.7086614173228346
          },
          {
            "duration": 1.4285710000000051,
            "durationTicks": 480,
            "midi": 61,
            "name": "C#4",
            "ticks": 39840,
            "time": 118.571393,
            "velocity": 0.7086614173228346
          },
          {
            "duration": 0.7142855000000026,
            "durationTicks": 240,
            "midi": 59,
            "name": "B3",
            "ticks": 40080,
            "time": 119.2856785,
            "velocity": 0.7086614173228346
          },
          {
            "duration": 2.1428564999999935,
            "durationTicks": 720,
            "midi": 57,
            "name": "A3",
            "ticks": 40320,
            "time": 119.999964,
            "velocity": 0.7086614173228346
          },
          {
            "duration": 2.1428564999999935,
            "durationTicks": 720,
            "midi": 61,
            "name": "C#4",
            "ticks": 40320,
            "time": 119.999964,
            "velocity": 0.7086614173228346
          },
          {
            "duration": 0.7142855000000026,
            "durationTicks": 240,
            "midi": 55,
            "name": "G3",
            "ticks": 41040,
            "time": 122.1428205,
            "velocity": 0.7086614173228346
          },
          {
            "duration": 0.7142855000000026,
            "durationTicks": 240,
            "midi": 59,
            "name": "B3",
            "ticks": 41040,
            "time": 122.1428205,
            "velocity": 0.7086614173228346
          },
          {
            "duration": 0.7142855000000026,
            "durationTicks": 240,
            "midi": 54,
            "name": "F#3",
            "ticks": 41280,
            "time": 122.857106,
            "velocity": 0.7086614173228346
          },
          {
            "duration": 0.7142855000000026,
            "durationTicks": 240,
            "midi": 57,
            "name": "A3",
            "ticks": 41280,
            "time": 122.857106,
            "velocity": 0.7086614173228346
          },
          {
            "duration": 0.5714284000000021,
            "durationTicks": 192,
            "midi": 52,
            "name": "E3",
            "ticks": 41520,
            "time": 123.5713915,
            "velocity": 0.7086614173228346
          },
          {
            "duration": 0.5714284000000021,
            "durationTicks": 192,
            "midi": 55,
            "name": "G3",
            "ticks": 41520,
            "time": 123.5713915,
            "velocity": 0.7086614173228346
          },
          {
            "duration": 1.428570999999991,
            "durationTicks": 480,
            "midi": 50,
            "name": "D3",
            "ticks": 41760,
            "time": 124.285677,
            "velocity": 0.7086614173228346
          },
          {
            "duration": 0.7142855000000026,
            "durationTicks": 240,
            "midi": 54,
            "name": "F#3",
            "ticks": 41760,
            "time": 124.285677,
            "velocity": 0.7086614173228346
          },
          {
            "duration": 0.7142854999999884,
            "durationTicks": 240,
            "midi": 55,
            "name": "G3",
            "ticks": 42000,
            "time": 124.99996250000001,
            "velocity": 0.7086614173228346
          },
          {
            "duration": 1.4285710000000051,
            "durationTicks": 480,
            "midi": 49,
            "name": "C#3",
            "ticks": 42240,
            "time": 125.714248,
            "velocity": 0.7086614173228346
          },
          {
            "duration": 1.1428568000000041,
            "durationTicks": 384,
            "midi": 50,
            "name": "D3",
            "ticks": 42720,
            "time": 127.142819,
            "velocity": 0.7086614173228346
          },
          {
            "duration": 1.1428568000000041,
            "durationTicks": 384,
            "midi": 43,
            "name": "G2",
            "ticks": 43200,
            "time": 128.57139,
            "velocity": 0.7086614173228346
          },
          {
            "duration": 1.1428567999999757,
            "durationTicks": 384,
            "midi": 45,
            "name": "A2",
            "ticks": 43680,
            "time": 129.999961,
            "velocity": 0.7086614173228346
          },
          {
            "duration": 1.1428568000000041,
            "durationTicks": 384,
            "midi": 45,
            "name": "A2",
            "ticks": 44160,
            "time": 131.428532,
            "velocity": 0.7086614173228346
          },
          {
            "duration": 1.1428568000000041,
            "durationTicks": 384,
            "midi": 50,
            "name": "D3",
            "ticks": 44640,
            "time": 132.857103,
            "velocity": 0.7086614173228346
          },
          {
            "duration": 4.8571414000000175,
            "durationTicks": 1632,
            "midi": 61,
            "name": "C#4",
            "ticks": 76320,
            "time": 227.142789,
            "velocity": 0.7086614173228346
          },
          {
            "duration": 4.8571414000000175,
            "durationTicks": 1632,
            "midi": 64,
            "name": "E4",
            "ticks": 76320,
            "time": 227.142789,
            "velocity": 0.7086614173228346
          },
          {
            "duration": 4.8571414000000175,
            "durationTicks": 1632,
            "midi": 59,
            "name": "B3",
            "ticks": 79200,
            "time": 235.714215,
            "velocity": 0.7086614173228346
          },
          {
            "duration": 4.8571414000000175,
            "durationTicks": 1632,
            "midi": 62,
            "name": "D4",
            "ticks": 79200,
            "time": 235.714215,
            "velocity": 0.7086614173228346
          },
          {
            "duration": 5.4285698000000195,
            "durationTicks": 1824,
            "midi": 61,
            "name": "C#4",
            "ticks": 82080,
            "time": 244.285641,
            "velocity": 0.7086614173228346
          },
          {
            "duration": 5.4285698000000195,
            "durationTicks": 1824,
            "midi": 64,
            "name": "E4",
            "ticks": 82080,
            "time": 244.285641,
            "velocity": 0.7086614173228346
          },
          {
            "duration": 2.1428564999999935,
            "durationTicks": 720,
            "midi": 62,
            "name": "D4",
            "ticks": 110040,
            "time": 327.49990175,
            "velocity": 0.7086614173228346
          },
          {
            "duration": 2.1428564999999935,
            "durationTicks": 720,
            "midi": 66,
            "name": "F#4",
            "ticks": 110040,
            "time": 327.49990175,
            "velocity": 0.7086614173228346
          },
          {
            "duration": 0.7142855000000168,
            "durationTicks": 240,
            "midi": 61,
            "name": "C#4",
            "ticks": 110760,
            "time": 329.64275825,
            "velocity": 0.7086614173228346
          },
          {
            "duration": 0.7142855000000168,
            "durationTicks": 240,
            "midi": 64,
            "name": "E4",
            "ticks": 110760,
            "time": 329.64275825,
            "velocity": 0.7086614173228346
          },
          {
            "duration": 0.7142855000000168,
            "durationTicks": 240,
            "midi": 59,
            "name": "B3",
            "ticks": 111000,
            "time": 330.35704375,
            "velocity": 0.7086614173228346
          },
          {
            "duration": 0.7142855000000168,
            "durationTicks": 240,
            "midi": 62,
            "name": "D4",
            "ticks": 111000,
            "time": 330.35704375,
            "velocity": 0.7086614173228346
          },
          {
            "duration": 0.7142855000000168,
            "durationTicks": 240,
            "midi": 57,
            "name": "A3",
            "ticks": 111240,
            "time": 331.07132925,
            "velocity": 0.7086614173228346
          },
          {
            "duration": 0.7142855000000168,
            "durationTicks": 240,
            "midi": 61,
            "name": "C#4",
            "ticks": 111240,
            "time": 331.07132925,
            "velocity": 0.7086614173228346
          },
          {
            "duration": 0.5714284000000021,
            "durationTicks": 192,
            "midi": 55,
            "name": "G3",
            "ticks": 111480,
            "time": 331.78561475000004,
            "velocity": 0.7086614173228346
          },
          {
            "duration": 0.5714284000000021,
            "durationTicks": 192,
            "midi": 59,
            "name": "B3",
            "ticks": 111480,
            "time": 331.78561475000004,
            "velocity": 0.7086614173228346
          },
          {
            "duration": 1.4285709999999767,
            "durationTicks": 480,
            "midi": 60,
            "name": "C4",
            "ticks": 111960,
            "time": 333.21418575,
            "velocity": 0.7086614173228346
          },
          {
            "duration": 1.2857139000000188,
            "durationTicks": 432,
            "midi": 59,
            "name": "B3",
            "ticks": 112440,
            "time": 334.64275675,
            "velocity": 0.7086614173228346
          },
          {
            "duration": 0.5714284000000021,
            "durationTicks": 192,
            "midi": 57,
            "name": "A3",
            "ticks": 112680,
            "time": 335.35704225,
            "velocity": 0.7086614173228346
          },
          {
            "duration": 0.7142854999999599,
            "durationTicks": 240,
            "midi": 55,
            "name": "G3",
            "ticks": 112920,
            "time": 336.07132775,
            "velocity": 0.7086614173228346
          },
          {
            "duration": 2.1428564999999935,
            "durationTicks": 720,
            "midi": 67,
            "name": "G4",
            "ticks": 112920,
            "time": 336.07132775,
            "velocity": 0.7086614173228346
          },
          {
            "duration": 0.7142855000000168,
            "durationTicks": 240,
            "midi": 59,
            "name": "B3",
            "ticks": 113160,
            "time": 336.78561325,
            "velocity": 0.7086614173228346
          },
          {
            "duration": 0.7142855000000168,
            "durationTicks": 240,
            "midi": 64,
            "name": "E4",
            "ticks": 113400,
            "time": 337.49989875,
            "velocity": 0.7086614173228346
          },
          {
            "duration": 0.7142855000000168,
            "durationTicks": 240,
            "midi": 62,
            "name": "D4",
            "ticks": 113640,
            "time": 338.21418425,
            "velocity": 0.7086614173228346
          },
          {
            "duration": 0.7142855000000168,
            "durationTicks": 240,
            "midi": 66,
            "name": "F#4",
            "ticks": 113640,
            "time": 338.21418425,
            "velocity": 0.7086614173228346
          },
          {
            "duration": 0.7142854999999599,
            "durationTicks": 240,
            "midi": 61,
            "name": "C#4",
            "ticks": 113880,
            "time": 338.92846975000003,
            "velocity": 0.7086614173228346
          },
          {
            "duration": 0.7142854999999599,
            "durationTicks": 240,
            "midi": 64,
            "name": "E4",
            "ticks": 113880,
            "time": 338.92846975000003,
            "velocity": 0.7086614173228346
          },
          {
            "duration": 0.7142855000000168,
            "durationTicks": 240,
            "midi": 59,
            "name": "B3",
            "ticks": 114120,
            "time": 339.64275525,
            "velocity": 0.7086614173228346
          },
          {
            "duration": 0.7142855000000168,
            "durationTicks": 240,
            "midi": 62,
            "name": "D4",
            "ticks": 114120,
            "time": 339.64275525,
            "velocity": 0.7086614173228346
          },
          {
            "duration": 0.5714284000000021,
            "durationTicks": 192,
            "midi": 57,
            "name": "A3",
            "ticks": 114360,
            "time": 340.35704075,
            "velocity": 0.7086614173228346
          },
          {
            "duration": 0.5714284000000021,
            "durationTicks": 192,
            "midi": 61,
            "name": "C#4",
            "ticks": 114360,
            "time": 340.35704075,
            "velocity": 0.7086614173228346
          },
          {
            "duration": 1.4285710000000336,
            "durationTicks": 480,
            "midi": 62,
            "name": "D4",
            "ticks": 114840,
            "time": 341.78561175,
            "velocity": 0.7086614173228346
          },
          {
            "duration": 1.2857139000000188,
            "durationTicks": 432,
            "midi": 61,
            "name": "C#4",
            "ticks": 115320,
            "time": 343.21418275,
            "velocity": 0.7086614173228346
          },
          {
            "duration": 0.5714284000000589,
            "durationTicks": 192,
            "midi": 59,
            "name": "B3",
            "ticks": 115560,
            "time": 343.92846825,
            "velocity": 0.7086614173228346
          },
          {
            "duration": 0.7142855000000168,
            "durationTicks": 240,
            "midi": 57,
            "name": "A3",
            "ticks": 115800,
            "time": 344.64275375,
            "velocity": 0.7086614173228346
          },
          {
            "duration": 0.7142855000000168,
            "durationTicks": 240,
            "midi": 61,
            "name": "C#4",
            "ticks": 115800,
            "time": 344.64275375,
            "velocity": 0.7086614173228346
          },
          {
            "duration": 1.3571424499999694,
            "durationTicks": 456,
            "midi": 54,
            "name": "F#3",
            "ticks": 116040,
            "time": 345.35703925,
            "velocity": 0.7086614173228346
          },
          {
            "duration": 1.3571424499999694,
            "durationTicks": 456,
            "midi": 57,
            "name": "A3",
            "ticks": 116040,
            "time": 345.35703925,
            "velocity": 0.7086614173228346
          },
          {
            "duration": 0.7142855000000168,
            "durationTicks": 240,
            "midi": 64,
            "name": "E4",
            "ticks": 116520,
            "time": 346.78561025,
            "velocity": 0.7086614173228346
          },
          {
            "duration": 0.7142855000000168,
            "durationTicks": 240,
            "midi": 67,
            "name": "G4",
            "ticks": 116520,
            "time": 346.78561025,
            "velocity": 0.7086614173228346
          },
          {
            "duration": 0.7142855000000168,
            "durationTicks": 240,
            "midi": 62,
            "name": "D4",
            "ticks": 116760,
            "time": 347.49989575,
            "velocity": 0.7086614173228346
          },
          {
            "duration": 0.7142855000000168,
            "durationTicks": 240,
            "midi": 66,
            "name": "F#4",
            "ticks": 116760,
            "time": 347.49989575,
            "velocity": 0.7086614173228346
          },
          {
            "duration": 0.7142854999999599,
            "durationTicks": 240,
            "midi": 61,
            "name": "C#4",
            "ticks": 117000,
            "time": 348.21418125,
            "velocity": 0.7086614173228346
          },
          {
            "duration": 0.7142854999999599,
            "durationTicks": 240,
            "midi": 64,
            "name": "E4",
            "ticks": 117000,
            "time": 348.21418125,
            "velocity": 0.7086614173228346
          },
          {
            "duration": 1.3571424500000262,
            "durationTicks": 456,
            "midi": 59,
            "name": "B3",
            "ticks": 117240,
            "time": 348.92846675,
            "velocity": 0.7086614173228346
          },
          {
            "duration": 1.0714282499999968,
            "durationTicks": 360,
            "midi": 62,
            "name": "D4",
            "ticks": 117240,
            "time": 348.92846675,
            "velocity": 0.7086614173228346
          },
          {
            "duration": 0.28571420000002945,
            "durationTicks": 96,
            "midi": 67,
            "name": "G4",
            "ticks": 117600,
            "time": 349.999895,
            "velocity": 0.7086614173228346
          },
          {
            "duration": 1.4285709999999767,
            "durationTicks": 480,
            "midi": 58,
            "name": "A#3",
            "ticks": 117720,
            "time": 350.35703775,
            "velocity": 0.7086614173228346
          },
          {
            "duration": 2.1428564999999935,
            "durationTicks": 720,
            "midi": 67,
            "name": "G4",
            "ticks": 117720,
            "time": 350.35703775,
            "velocity": 0.7086614173228346
          },
          {
            "duration": 1.4285710000000336,
            "durationTicks": 480,
            "midi": 57,
            "name": "A3",
            "ticks": 118200,
            "time": 351.78560875,
            "velocity": 0.7086614173228346
          },
          {
            "duration": 0.7142855000000168,
            "durationTicks": 240,
            "midi": 66,
            "name": "F#4",
            "ticks": 118440,
            "time": 352.49989425,
            "velocity": 0.7086614173228346
          },
          {
            "duration": 1.1428568000000041,
            "durationTicks": 384,
            "midi": 55,
            "name": "G3",
            "ticks": 118680,
            "time": 353.21417975,
            "velocity": 0.7086614173228346
          },
          {
            "duration": 1.1428568000000041,
            "durationTicks": 384,
            "midi": 64,
            "name": "E4",
            "ticks": 118680,
            "time": 353.21417975,
            "velocity": 0.7086614173228346
          },
          {
            "duration": 1.1428568000000041,
            "durationTicks": 384,
            "midi": 57,
            "name": "A3",
            "ticks": 119160,
            "time": 354.64275075,
            "velocity": 0.7086614173228346
          },
          {
            "duration": 1.142856800000061,
            "durationTicks": 384,
            "midi": 45,
            "name": "A2",
            "ticks": 119640,
            "time": 356.07132175,
            "velocity": 0.7086614173228346
          },
          {
            "duration": 1.142856800000061,
            "durationTicks": 384,
            "midi": 61,
            "name": "C#4",
            "ticks": 119640,
            "time": 356.07132175,
            "velocity": 0.7086614173228346
          },
          {
            "duration": 1.1428568000000041,
            "durationTicks": 384,
            "midi": 50,
            "name": "D3",
            "ticks": 120120,
            "time": 357.49989275,
            "velocity": 0.7086614173228346
          },
          {
            "duration": 1.1428568000000041,
            "durationTicks": 384,
            "midi": 62,
            "name": "D4",
            "ticks": 120120,
            "time": 357.49989275,
            "velocity": 0.7086614173228346
          },
          {
            "duration": 5.428569800000048,
            "durationTicks": 1824,
            "midi": 54,
            "name": "F#3",
            "ticks": 140280,
            "time": 417.49987475,
            "velocity": 0.4881889763779528
          },
          {
            "duration": 5.428569800000048,
            "durationTicks": 1824,
            "midi": 57,
            "name": "A3",
            "ticks": 140280,
            "time": 417.49987475,
            "velocity": 0.4881889763779528
          }
        ]
      },
      {
        "channel": 0,
        "controlChanges": {},
        "pitchBends": [],
        "instrument": {
          "family": "piano",
          "number": 0,
          "name": "acoustic grand piano"
        },
        "name": "k622_2",
        "notes": [],
        "endOfTrackTicks": 144600
      },
      {
        "channel": 2,
        "controlChanges": {
          "7": [
            {
              "number": 7,
              "ticks": 0,
              "time": 0,
              "value": 0.889763779527559
            }
          ],
          "10": [
            {
              "number": 10,
              "ticks": 0,
              "time": 0,
              "value": 0.7244094488188977
            }
          ],
          "91": [
            {
              "number": 91,
              "ticks": 0,
              "time": 0,
              "value": 0.5511811023622047
            }
          ]
        },
        "pitchBends": [],
        "instrument": {
          "family": "brass",
          "number": 60,
          "name": "french horn"
        },
        "name": "",
        "notes": [
          {
            "duration": 1.142856799999997,
            "durationTicks": 384,
            "midi": 54,
            "name": "F#3",
            "ticks": 11520,
            "time": 34.285704,
            "velocity": 0.7086614173228346
          },
          {
            "duration": 1.142856799999997,
            "durationTicks": 384,
            "midi": 57,
            "name": "A3",
            "ticks": 11520,
            "time": 34.285704,
            "velocity": 0.7086614173228346
          },
          {
            "duration": 2.1428565000000006,
            "durationTicks": 720,
            "midi": 54,
            "name": "F#3",
            "ticks": 12000,
            "time": 35.714275,
            "velocity": 0.7086614173228346
          },
          {
            "duration": 2.1428565000000006,
            "durationTicks": 720,
            "midi": 62,
            "name": "D4",
            "ticks": 12000,
            "time": 35.714275,
            "velocity": 0.7086614173228346
          },
          {
            "duration": 0.571428399999995,
            "durationTicks": 192,
            "midi": 57,
            "name": "A3",
            "ticks": 12720,
            "time": 37.8571315,
            "velocity": 0.7086614173228346
          },
          {
            "duration": 0.571428399999995,
            "durationTicks": 192,
            "midi": 66,
            "name": "F#4",
            "ticks": 12720,
            "time": 37.8571315,
            "velocity": 0.7086614173228346
          },
          {
            "duration": 1.2857138999999975,
            "durationTicks": 432,
            "midi": 57,
            "name": "A3",
            "ticks": 12960,
            "time": 38.571417000000004,
            "velocity": 0.7086614173228346
          },
          {
            "duration": 0.7142854999999955,
            "durationTicks": 240,
            "midi": 66,
            "name": "F#4",
            "ticks": 12960,
            "time": 38.571417000000004,
            "velocity": 0.7086614173228346
          },
          {
            "duration": 0.5714284000000021,
            "durationTicks": 192,
            "midi": 64,
            "name": "E4",
            "ticks": 13200,
            "time": 39.2857025,
            "velocity": 0.7086614173228346
          },
          {
            "duration": 1.142856799999997,
            "durationTicks": 384,
            "midi": 54,
            "name": "F#3",
            "ticks": 13440,
            "time": 39.999988,
            "velocity": 0.7086614173228346
          },
          {
            "duration": 1.142856799999997,
            "durationTicks": 384,
            "midi": 62,
            "name": "D4",
            "ticks": 13440,
            "time": 39.999988,
            "velocity": 0.7086614173228346
          },
          {
            "duration": 2.1428565000000006,
            "durationTicks": 720,
            "midi": 54,
            "name": "F#3",
            "ticks": 14400,
            "time": 42.85713,
            "velocity": 0.7086614173228346
          },
          {
            "duration": 2.1428565000000006,
            "durationTicks": 720,
            "midi": 57,
            "name": "A3",
            "ticks": 14400,
            "time": 42.85713,
            "velocity": 0.7086614173228346
          },
          {
            "duration": 0.7142855000000026,
            "durationTicks": 240,
            "midi": 57,
            "name": "A3",
            "ticks": 15120,
            "time": 44.9999865,
            "velocity": 0.7086614173228346
          },
          {
            "duration": 0.7142855000000026,
            "durationTicks": 240,
            "midi": 62,
            "name": "D4",
            "ticks": 15120,
            "time": 44.9999865,
            "velocity": 0.7086614173228346
          },
          {
            "duration": 0.7142855000000026,
            "durationTicks": 240,
            "midi": 62,
            "name": "D4",
            "ticks": 15360,
            "time": 45.714272,
            "velocity": 0.7086614173228346
          },
          {
            "duration": 0.7142855000000026,
            "durationTicks": 240,
            "midi": 66,
            "name": "F#4",
            "ticks": 15360,
            "time": 45.714272,
            "velocity": 0.7086614173228346
          },
          {
            "duration": 0.571428399999995,
            "durationTicks": 192,
            "midi": 66,
            "name": "F#4",
            "ticks": 15600,
            "time": 46.428557500000004,
            "velocity": 0.7086614173228346
          },
          {
            "duration": 0.571428399999995,
            "durationTicks": 192,
            "midi": 69,
            "name": "A4",
            "ticks": 15600,
            "time": 46.428557500000004,
            "velocity": 0.7086614173228346
          },
          {
            "duration": 1.2857138999999975,
            "durationTicks": 432,
            "midi": 64,
            "name": "E4",
            "ticks": 15840,
            "time": 47.142843,
            "velocity": 0.7086614173228346
          },
          {
            "duration": 0.7142855000000026,
            "durationTicks": 240,
            "midi": 69,
            "name": "A4",
            "ticks": 15840,
            "time": 47.142843,
            "velocity": 0.7086614173228346
          },
          {
            "duration": 0.571428399999995,
            "durationTicks": 192,
            "midi": 67,
            "name": "G4",
            "ticks": 16080,
            "time": 47.8571285,
            "velocity": 0.7086614173228346
          },
          {
            "duration": 1.14285679999999,
            "durationTicks": 384,
            "midi": 62,
            "name": "D4",
            "ticks": 16320,
            "time": 48.571414000000004,
            "velocity": 0.7086614173228346
          },
          {
            "duration": 1.14285679999999,
            "durationTicks": 384,
            "midi": 66,
            "name": "F#4",
            "ticks": 16320,
            "time": 48.571414000000004,
            "velocity": 0.7086614173228346
          },
          {
            "duration": 2.857142000000003,
            "durationTicks": 960,
            "midi": 57,
            "name": "A3",
            "ticks": 17280,
            "time": 51.428556,
            "velocity": 0.7086614173228346
          },
          {
            "duration": 2.857142000000003,
            "durationTicks": 960,
            "midi": 64,
            "name": "E4",
            "ticks": 17280,
            "time": 51.428556,
            "velocity": 0.7086614173228346
          },
          {
            "duration": 1.142856799999997,
            "durationTicks": 384,
            "midi": 62,
            "name": "D4",
            "ticks": 18240,
            "time": 54.285698000000004,
            "velocity": 0.7086614173228346
          },
          {
            "duration": 1.142856799999997,
            "durationTicks": 384,
            "midi": 66,
            "name": "F#4",
            "ticks": 18240,
            "time": 54.285698000000004,
            "velocity": 0.7086614173228346
          },
          {
            "duration": 2.857142000000003,
            "durationTicks": 960,
            "midi": 57,
            "name": "A3",
            "ticks": 18720,
            "time": 55.714269,
            "velocity": 0.7086614173228346
          },
          {
            "duration": 2.857142000000003,
            "durationTicks": 960,
            "midi": 64,
            "name": "E4",
            "ticks": 18720,
            "time": 55.714269,
            "velocity": 0.7086614173228346
          },
          {
            "duration": 1.14285679999999,
            "durationTicks": 384,
            "midi": 62,
            "name": "D4",
            "ticks": 19680,
            "time": 58.571411000000005,
            "velocity": 0.7086614173228346
          },
          {
            "duration": 1.14285679999999,
            "durationTicks": 384,
            "midi": 66,
            "name": "F#4",
            "ticks": 19680,
            "time": 58.571411000000005,
            "velocity": 0.7086614173228346
          },
          {
            "duration": 5.428569799999991,
            "durationTicks": 1824,
            "midi": 64,
            "name": "E4",
            "ticks": 20160,
            "time": 59.999982,
            "velocity": 0.7086614173228346
          },
          {
            "duration": 1.14285679999999,
            "durationTicks": 384,
            "midi": 57,
            "name": "A3",
            "ticks": 21600,
            "time": 64.285695,
            "velocity": 0.6299212598425197
          },
          {
            "duration": 5.428569799999991,
            "durationTicks": 1824,
            "midi": 50,
            "name": "D3",
            "ticks": 34560,
            "time": 102.857112,
            "velocity": 0.7086614173228346
          },
          {
            "duration": 5.428569799999991,
            "durationTicks": 1824,
            "midi": 62,
            "name": "D4",
            "ticks": 34560,
            "time": 102.857112,
            "velocity": 0.7086614173228346
          },
          {
            "duration": 2.1428564999999935,
            "durationTicks": 720,
            "midi": 66,
            "name": "F#4",
            "ticks": 40320,
            "time": 119.999964,
            "velocity": 0.7086614173228346
          },
          {
            "duration": 2.1428564999999935,
            "durationTicks": 720,
            "midi": 69,
            "name": "A4",
            "ticks": 40320,
            "time": 119.999964,
            "velocity": 0.7086614173228346
          },
          {
            "duration": 0.7142855000000026,
            "durationTicks": 240,
            "midi": 64,
            "name": "E4",
            "ticks": 41040,
            "time": 122.1428205,
            "velocity": 0.7086614173228346
          },
          {
            "duration": 0.7142855000000026,
            "durationTicks": 240,
            "midi": 67,
            "name": "G4",
            "ticks": 41040,
            "time": 122.1428205,
            "velocity": 0.7086614173228346
          },
          {
            "duration": 0.7142855000000026,
            "durationTicks": 240,
            "midi": 62,
            "name": "D4",
            "ticks": 41280,
            "time": 122.857106,
            "velocity": 0.7086614173228346
          },
          {
            "duration": 0.7142855000000026,
            "durationTicks": 240,
            "midi": 66,
            "name": "F#4",
            "ticks": 41280,
            "time": 122.857106,
            "velocity": 0.7086614173228346
          },
          {
            "duration": 0.5714284000000021,
            "durationTicks": 192,
            "midi": 64,
            "name": "E4",
            "ticks": 41520,
            "time": 123.5713915,
            "velocity": 0.7086614173228346
          },
          {
            "duration": 0.5714284000000021,
            "durationTicks": 192,
            "midi": 67,
            "name": "G4",
            "ticks": 41520,
            "time": 123.5713915,
            "velocity": 0.7086614173228346
          },
          {
            "duration": 0.5714284000000021,
            "durationTicks": 192,
            "midi": 62,
            "name": "D4",
            "ticks": 41760,
            "time": 124.285677,
            "velocity": 0.7086614173228346
          },
          {
            "duration": 0.5714284000000021,
            "durationTicks": 192,
            "midi": 66,
            "name": "F#4",
            "ticks": 41760,
            "time": 124.285677,
            "velocity": 0.7086614173228346
          },
          {
            "duration": 0.5714284000000021,
            "durationTicks": 192,
            "midi": 62,
            "name": "D4",
            "ticks": 42000,
            "time": 124.99996250000001,
            "velocity": 0.7086614173228346
          },
          {
            "duration": 2.5714278000000093,
            "durationTicks": 864,
            "midi": 57,
            "name": "A3",
            "ticks": 42240,
            "time": 125.714248,
            "velocity": 0.7086614173228346
          },
          {
            "duration": 1.1428568000000041,
            "durationTicks": 384,
            "midi": 64,
            "name": "E4",
            "ticks": 42240,
            "time": 125.714248,
            "velocity": 0.7086614173228346
          },
          {
            "duration": 1.1428568000000041,
            "durationTicks": 384,
            "midi": 62,
            "name": "D4",
            "ticks": 42720,
            "time": 127.142819,
            "velocity": 0.7086614173228346
          },
          {
            "duration": 1.1428567999999757,
            "durationTicks": 384,
            "midi": 62,
            "name": "D4",
            "ticks": 43680,
            "time": 129.999961,
            "velocity": 0.7086614173228346
          },
          {
            "duration": 1.1428567999999757,
            "durationTicks": 384,
            "midi": 66,
            "name": "F#4",
            "ticks": 43680,
            "time": 129.999961,
            "velocity": 0.7086614173228346
          },
          {
            "duration": 1.1428568000000041,
            "durationTicks": 384,
            "midi": 57,
            "name": "A3",
            "ticks": 44160,
            "time": 131.428532,
            "velocity": 0.7086614173228346
          },
          {
            "duration": 1.1428568000000041,
            "durationTicks": 384,
            "midi": 64,
            "name": "E4",
            "ticks": 44160,
            "time": 131.428532,
            "velocity": 0.7086614173228346
          },
          {
            "duration": 1.1428568000000041,
            "durationTicks": 384,
            "midi": 54,
            "name": "F#3",
            "ticks": 44640,
            "time": 132.857103,
            "velocity": 0.7086614173228346
          },
          {
            "duration": 1.1428568000000041,
            "durationTicks": 384,
            "midi": 62,
            "name": "D4",
            "ticks": 44640,
            "time": 132.857103,
            "velocity": 0.7086614173228346
          },
          {
            "duration": 16.92856635000001,
            "durationTicks": 5688,
            "midi": 45,
            "name": "A2",
            "ticks": 63360,
            "time": 188.571372,
            "velocity": 0.4881889763779528
          },
          {
            "duration": 16.92856635000001,
            "durationTicks": 5688,
            "midi": 57,
            "name": "A3",
            "ticks": 63360,
            "time": 188.571372,
            "velocity": 0.4881889763779528
          },
          {
            "duration": 4.8571414000000175,
            "durationTicks": 1632,
            "midi": 45,
            "name": "A2",
            "ticks": 76320,
            "time": 227.142789,
            "velocity": 0.7086614173228346
          },
          {
            "duration": 4.8571414000000175,
            "durationTicks": 1632,
            "midi": 57,
            "name": "A3",
            "ticks": 76320,
            "time": 227.142789,
            "velocity": 0.7086614173228346
          },
          {
            "duration": 4.8571414000000175,
            "durationTicks": 1632,
            "midi": 64,
            "name": "E4",
            "ticks": 79200,
            "time": 235.714215,
            "velocity": 0.7086614173228346
          },
          {
            "duration": 5.4285698000000195,
            "durationTicks": 1824,
            "midi": 45,
            "name": "A2",
            "ticks": 82080,
            "time": 244.285641,
            "velocity": 0.7086614173228346
          },
          {
            "duration": 5.4285698000000195,
            "durationTicks": 1824,
            "midi": 57,
            "name": "A3",
            "ticks": 82080,
            "time": 244.285641,
            "velocity": 0.7086614173228346
          },
          {
            "duration": 2.7142849000000524,
            "durationTicks": 912,
            "midi": 50,
            "name": "D3",
            "ticks": 110040,
            "time": 327.49990175,
            "velocity": 0.7086614173228346
          },
          {
            "duration": 2.7142849000000524,
            "durationTicks": 912,
            "midi": 62,
            "name": "D4",
            "ticks": 110040,
            "time": 327.49990175,
            "velocity": 0.7086614173228346
          },
          {
            "duration": 2.7142848999999956,
            "durationTicks": 912,
            "midi": 64,
            "name": "E4",
            "ticks": 112920,
            "time": 336.07132775,
            "velocity": 0.7086614173228346
          },
          {
            "duration": 4.071427350000022,
            "durationTicks": 1368,
            "midi": 57,
            "name": "A3",
            "ticks": 115800,
            "time": 344.64275375,
            "velocity": 0.7086614173228346
          },
          {
            "duration": 4.071427350000022,
            "durationTicks": 1368,
            "midi": 69,
            "name": "A4",
            "ticks": 115800,
            "time": 344.64275375,
            "velocity": 0.7086614173228346
          },
          {
            "duration": 2.7142849000000524,
            "durationTicks": 912,
            "midi": 50,
            "name": "D3",
            "ticks": 117240,
            "time": 348.92846675,
            "velocity": 0.7086614173228346
          },
          {
            "duration": 2.7142849000000524,
            "durationTicks": 912,
            "midi": 62,
            "name": "D4",
            "ticks": 117240,
            "time": 348.92846675,
            "velocity": 0.7086614173228346
          },
          {
            "duration": 1.3571424500000262,
            "durationTicks": 456,
            "midi": 57,
            "name": "A3",
            "ticks": 118200,
            "time": 351.78560875,
            "velocity": 0.7086614173228346
          },
          {
            "duration": 1.1428568000000041,
            "durationTicks": 384,
            "midi": 62,
            "name": "D4",
            "ticks": 119160,
            "time": 354.64275075,
            "velocity": 0.7086614173228346
          },
          {
            "duration": 1.1428568000000041,
            "durationTicks": 384,
            "midi": 66,
            "name": "F#4",
            "ticks": 119160,
            "time": 354.64275075,
            "velocity": 0.7086614173228346
          },
          {
            "duration": 1.142856800000061,
            "durationTicks": 384,
            "midi": 61,
            "name": "C#4",
            "ticks": 119640,
            "time": 356.07132175,
            "velocity": 0.7086614173228346
          },
          {
            "duration": 1.142856800000061,
            "durationTicks": 384,
            "midi": 64,
            "name": "E4",
            "ticks": 119640,
            "time": 356.07132175,
            "velocity": 0.7086614173228346
          },
          {
            "duration": 1.1428568000000041,
            "durationTicks": 384,
            "midi": 54,
            "name": "F#3",
            "ticks": 120120,
            "time": 357.49989275,
            "velocity": 0.7086614173228346
          },
          {
            "duration": 1.1428568000000041,
            "durationTicks": 384,
            "midi": 62,
            "name": "D4",
            "ticks": 120120,
            "time": 357.49989275,
            "velocity": 0.7086614173228346
          },
          {
            "duration": 5.428569800000048,
            "durationTicks": 1824,
            "midi": 50,
            "name": "D3",
            "ticks": 140280,
            "time": 417.49987475,
            "velocity": 0.4881889763779528
          },
          {
            "duration": 5.428569800000048,
            "durationTicks": 1824,
            "midi": 62,
            "name": "D4",
            "ticks": 140280,
            "time": 417.49987475,
            "velocity": 0.4881889763779528
          }
        ]
      },
      {
        "channel": 0,
        "controlChanges": {},
        "pitchBends": [],
        "instrument": {
          "family": "piano",
          "number": 0,
          "name": "acoustic grand piano"
        },
        "name": "k622_2",
        "notes": [],
        "endOfTrackTicks": 144600
      },
      {
        "channel": 4,
        "controlChanges": {
          "7": [
            {
              "number": 7,
              "ticks": 0,
              "time": 0,
              "value": 0.9921259842519685
            }
          ],
          "10": [
            {
              "number": 10,
              "ticks": 0,
              "time": 0,
              "value": 0.2204724409448819
            }
          ],
          "91": [
            {
              "number": 91,
              "ticks": 0,
              "time": 0,
              "value": 0.5905511811023622
            }
          ]
        },
        "pitchBends": [],
        "instrument": {
          "family": "ensemble",
          "number": 48,
          "name": "string ensemble 1"
        },
        "name": "",
        "notes": [
          {
            "duration": 0.7142855,
            "durationTicks": 240,
            "midi": 66,
            "name": "F#4",
            "ticks": 0,
            "time": 0,
            "velocity": 0.4881889763779528
          },
          {
            "duration": 0.7142855,
            "durationTicks": 240,
            "midi": 69,
            "name": "A4",
            "ticks": 240,
            "time": 0.7142855,
            "velocity": 0.4881889763779528
          },
          {
            "duration": 0.7142855000000001,
            "durationTicks": 240,
            "midi": 66,
            "name": "F#4",
            "ticks": 480,
            "time": 1.428571,
            "velocity": 0.4881889763779528
          },
          {
            "duration": 0.7142854999999999,
            "durationTicks": 240,
            "midi": 69,
            "name": "A4",
            "ticks": 720,
            "time": 2.1428565,
            "velocity": 0.4881889763779528
          },
          {
            "duration": 0.7142854999999999,
            "durationTicks": 240,
            "midi": 66,
            "name": "F#4",
            "ticks": 960,
            "time": 2.857142,
            "velocity": 0.4881889763779528
          },
          {
            "duration": 0.6785712250000002,
            "durationTicks": 228,
            "midi": 69,
            "name": "A4",
            "ticks": 1200,
            "time": 3.5714275,
            "velocity": 0.4881889763779528
          },
          {
            "duration": 0.7142854999999999,
            "durationTicks": 240,
            "midi": 67,
            "name": "G4",
            "ticks": 1440,
            "time": 4.285713,
            "velocity": 0.4881889763779528
          },
          {
            "duration": 0.7142854999999999,
            "durationTicks": 240,
            "midi": 69,
            "name": "A4",
            "ticks": 1680,
            "time": 4.9999985,
            "velocity": 0.4881889763779528
          },
          {
            "duration": 0.7142854999999999,
            "durationTicks": 240,
            "midi": 66,
            "name": "F#4",
            "ticks": 1920,
            "time": 5.714284,
            "velocity": 0.4881889763779528
          },
          {
            "duration": 0.7142854999999999,
            "durationTicks": 240,
            "midi": 69,
            "name": "A4",
            "ticks": 2160,
            "time": 6.4285695,
            "velocity": 0.4881889763779528
          },
          {
            "duration": 0.7142854999999999,
            "durationTicks": 240,
            "midi": 66,
            "name": "F#4",
            "ticks": 2400,
            "time": 7.142855,
            "velocity": 0.4881889763779528
          },
          {
            "duration": 0.6785712250000007,
            "durationTicks": 228,
            "midi": 69,
            "name": "A4",
            "ticks": 2640,
            "time": 7.8571405,
            "velocity": 0.4881889763779528
          },
          {
            "duration": 0.714285499999999,
            "durationTicks": 240,
            "midi": 66,
            "name": "F#4",
            "ticks": 2880,
            "time": 8.571426,
            "velocity": 0.4881889763779528
          },
          {
            "duration": 0.7142855000000008,
            "durationTicks": 240,
            "midi": 69,
            "name": "A4",
            "ticks": 3120,
            "time": 9.2857115,
            "velocity": 0.4881889763779528
          },
          {
            "duration": 0.714285499999999,
            "durationTicks": 240,
            "midi": 66,
            "name": "F#4",
            "ticks": 3360,
            "time": 9.999997,
            "velocity": 0.4881889763779528
          },
          {
            "duration": 0.7142855000000008,
            "durationTicks": 240,
            "midi": 69,
            "name": "A4",
            "ticks": 3600,
            "time": 10.7142825,
            "velocity": 0.4881889763779528
          },
          {
            "duration": 0.7142855000000008,
            "durationTicks": 240,
            "midi": 66,
            "name": "F#4",
            "ticks": 3840,
            "time": 11.428568,
            "velocity": 0.4881889763779528
          },
          {
            "duration": 0.6785712249999989,
            "durationTicks": 228,
            "midi": 69,
            "name": "A4",
            "ticks": 4080,
            "time": 12.142853500000001,
            "velocity": 0.4881889763779528
          },
          {
            "duration": 0.7142855000000008,
            "durationTicks": 240,
            "midi": 64,
            "name": "E4",
            "ticks": 4320,
            "time": 12.857139,
            "velocity": 0.4881889763779528
          },
          {
            "duration": 0.714285499999999,
            "durationTicks": 240,
            "midi": 69,
            "name": "A4",
            "ticks": 4560,
            "time": 13.571424500000001,
            "velocity": 0.4881889763779528
          },
          {
            "duration": 0.7142855000000008,
            "durationTicks": 240,
            "midi": 66,
            "name": "F#4",
            "ticks": 4800,
            "time": 14.28571,
            "velocity": 0.4881889763779528
          },
          {
            "duration": 0.714285499999999,
            "durationTicks": 240,
            "midi": 69,
            "name": "A4",
            "ticks": 5040,
            "time": 14.9999955,
            "velocity": 0.4881889763779528
          },
          {
            "duration": 0.714285499999999,
            "durationTicks": 240,
            "midi": 66,
            "name": "F#4",
            "ticks": 5280,
            "time": 15.714281,
            "velocity": 0.4881889763779528
          },
          {
            "duration": 0.6785712250000024,
            "durationTicks": 228,
            "midi": 69,
            "name": "A4",
            "ticks": 5520,
            "time": 16.4285665,
            "velocity": 0.4881889763779528
          },
          {
            "duration": 0.714285499999999,
            "durationTicks": 240,
            "midi": 64,
            "name": "E4",
            "ticks": 5760,
            "time": 17.142852,
            "velocity": 0.4881889763779528
          },
          {
            "duration": 0.714285499999999,
            "durationTicks": 240,
            "midi": 69,
            "name": "A4",
            "ticks": 6000,
            "time": 17.8571375,
            "velocity": 0.4881889763779528
          },
          {
            "duration": 0.7142855000000026,
            "durationTicks": 240,
            "midi": 64,
            "name": "E4",
            "ticks": 6240,
            "time": 18.571423,
            "velocity": 0.4881889763779528
          },
          {
            "duration": 0.714285499999999,
            "durationTicks": 240,
            "midi": 69,
            "name": "A4",
            "ticks": 6480,
            "time": 19.285708500000002,
            "velocity": 0.4881889763779528
          },
          {
            "duration": 0.714285499999999,
            "durationTicks": 240,
            "midi": 66,
            "name": "F#4",
            "ticks": 6720,
            "time": 19.999994,
            "velocity": 0.4881889763779528
          },
          {
            "duration": 0.6785712249999989,
            "durationTicks": 228,
            "midi": 69,
            "name": "A4",
            "ticks": 6960,
            "time": 20.7142795,
            "velocity": 0.4881889763779528
          },
          {
            "duration": 0.7142855000000026,
            "durationTicks": 240,
            "midi": 64,
            "name": "E4",
            "ticks": 7200,
            "time": 21.428565,
            "velocity": 0.4881889763779528
          },
          {
            "duration": 0.714285499999999,
            "durationTicks": 240,
            "midi": 69,
            "name": "A4",
            "ticks": 7440,
            "time": 22.1428505,
            "velocity": 0.4881889763779528
          },
          {
            "duration": 0.714285499999999,
            "durationTicks": 240,
            "midi": 64,
            "name": "E4",
            "ticks": 7680,
            "time": 22.857136,
            "velocity": 0.4881889763779528
          },
          {
            "duration": 0.7142855000000026,
            "durationTicks": 240,
            "midi": 69,
            "name": "A4",
            "ticks": 7920,
            "time": 23.5714215,
            "velocity": 0.4881889763779528
          },
          {
            "duration": 0.714285499999999,
            "durationTicks": 240,
            "midi": 62,
            "name": "D4",
            "ticks": 8160,
            "time": 24.285707000000002,
            "velocity": 0.4881889763779528
          },
          {
            "duration": 0.6785712250000024,
            "durationTicks": 228,
            "midi": 66,
            "name": "F#4",
            "ticks": 8400,
            "time": 24.9999925,
            "velocity": 0.4881889763779528
          },
          {
            "duration": 0.714285499999999,
            "durationTicks": 240,
            "midi": 61,
            "name": "C#4",
            "ticks": 8640,
            "time": 25.714278,
            "velocity": 0.4881889763779528
          },
          {
            "duration": 0.7142855000000026,
            "durationTicks": 240,
            "midi": 64,
            "name": "E4",
            "ticks": 8880,
            "time": 26.4285635,
            "velocity": 0.4881889763779528
          },
          {
            "duration": 0.714285499999999,
            "durationTicks": 240,
            "midi": 61,
            "name": "C#4",
            "ticks": 9120,
            "time": 27.142849000000002,
            "velocity": 0.4881889763779528
          },
          {
            "duration": 0.714285499999999,
            "durationTicks": 240,
            "midi": 64,
            "name": "E4",
            "ticks": 9360,
            "time": 27.8571345,
            "velocity": 0.4881889763779528
          },
          {
            "duration": 0.7142855000000026,
            "durationTicks": 240,
            "midi": 62,
            "name": "D4",
            "ticks": 9600,
            "time": 28.57142,
            "velocity": 0.4881889763779528
          },
          {
            "duration": 0.7023807416666656,
            "durationTicks": 236,
            "midi": 64,
            "name": "E4",
            "ticks": 9840,
            "time": 29.285705500000002,
            "velocity": 0.4881889763779528
          },
          {
            "duration": 1.1428568000000006,
            "durationTicks": 384,
            "midi": 61,
            "name": "C#4",
            "ticks": 10080,
            "time": 29.999991,
            "velocity": 0.4881889763779528
          },
          {
            "duration": 1.428570999999998,
            "durationTicks": 480,
            "midi": 69,
            "name": "A4",
            "ticks": 11520,
            "time": 34.285704,
            "velocity": 0.8267716535433071
          },
          {
            "duration": 2.1428565000000006,
            "durationTicks": 720,
            "midi": 74,
            "name": "D5",
            "ticks": 12000,
            "time": 35.714275,
            "velocity": 0.8267716535433071
          },
          {
            "duration": 0.6785712249999989,
            "durationTicks": 228,
            "midi": 78,
            "name": "F#5",
            "ticks": 12720,
            "time": 37.8571315,
            "velocity": 0.8267716535433071
          },
          {
            "duration": 0.7142854999999955,
            "durationTicks": 240,
            "midi": 78,
            "name": "F#5",
            "ticks": 12960,
            "time": 38.571417000000004,
            "velocity": 0.8267716535433071
          },
          {
            "duration": 0.678571225000006,
            "durationTicks": 228,
            "midi": 76,
            "name": "E5",
            "ticks": 13200,
            "time": 39.2857025,
            "velocity": 0.8267716535433071
          },
          {
            "duration": 1.142856799999997,
            "durationTicks": 384,
            "midi": 74,
            "name": "D5",
            "ticks": 13440,
            "time": 39.999988,
            "velocity": 0.8267716535433071
          },
          {
            "duration": 2.1428565000000006,
            "durationTicks": 720,
            "midi": 69,
            "name": "A4",
            "ticks": 14400,
            "time": 42.85713,
            "velocity": 0.8267716535433071
          },
          {
            "duration": 0.7142855000000026,
            "durationTicks": 240,
            "midi": 74,
            "name": "D5",
            "ticks": 15120,
            "time": 44.9999865,
            "velocity": 0.8267716535433071
          },
          {
            "duration": 0.7142855000000026,
            "durationTicks": 240,
            "midi": 78,
            "name": "F#5",
            "ticks": 15360,
            "time": 45.714272,
            "velocity": 0.8267716535433071
          },
          {
            "duration": 0.6785712249999989,
            "durationTicks": 228,
            "midi": 81,
            "name": "A5",
            "ticks": 15600,
            "time": 46.428557500000004,
            "velocity": 0.8267716535433071
          },
          {
            "duration": 0.7142855000000026,
            "durationTicks": 240,
            "midi": 81,
            "name": "A5",
            "ticks": 15840,
            "time": 47.142843,
            "velocity": 0.8267716535433071
          },
          {
            "duration": 0.6785712249999989,
            "durationTicks": 228,
            "midi": 79,
            "name": "G5",
            "ticks": 16080,
            "time": 47.8571285,
            "velocity": 0.8267716535433071
          },
          {
            "duration": 1.14285679999999,
            "durationTicks": 384,
            "midi": 78,
            "name": "F#5",
            "ticks": 16320,
            "time": 48.571414000000004,
            "velocity": 0.8267716535433071
          },
          {
            "duration": 2.0357136749999967,
            "durationTicks": 684,
            "midi": 76,
            "name": "E5",
            "ticks": 17280,
            "time": 51.428556,
            "velocity": 0.8267716535433071
          },
          {
            "duration": 0.7142855000000026,
            "durationTicks": 240,
            "midi": 81,
            "name": "A5",
            "ticks": 18000,
            "time": 53.5714125,
            "velocity": 0.8267716535433071
          },
          {
            "duration": 0.7142854999999955,
            "durationTicks": 240,
            "midi": 78,
            "name": "F#5",
            "ticks": 18240,
            "time": 54.285698000000004,
            "velocity": 0.8267716535433071
          },
          {
            "duration": 0.678571225000006,
            "durationTicks": 228,
            "midi": 81,
            "name": "A5",
            "ticks": 18480,
            "time": 54.9999835,
            "velocity": 0.8267716535433071
          },
          {
            "duration": 2.0357136749999967,
            "durationTicks": 684,
            "midi": 76,
            "name": "E5",
            "ticks": 18720,
            "time": 55.714269,
            "velocity": 0.8267716535433071
          },
          {
            "duration": 0.7142855000000026,
            "durationTicks": 240,
            "midi": 81,
            "name": "A5",
            "ticks": 19440,
            "time": 57.8571255,
            "velocity": 0.8267716535433071
          },
          {
            "duration": 0.7142854999999955,
            "durationTicks": 240,
            "midi": 71,
            "name": "B4",
            "ticks": 19680,
            "time": 58.571411000000005,
            "velocity": 0.8267716535433071
          },
          {
            "duration": 0.678571225000006,
            "durationTicks": 228,
            "midi": 78,
            "name": "F#5",
            "ticks": 19920,
            "time": 59.2856965,
            "velocity": 0.8267716535433071
          },
          {
            "duration": 2.7142848999999956,
            "durationTicks": 912,
            "midi": 69,
            "name": "A4",
            "ticks": 20160,
            "time": 59.999982,
            "velocity": 0.8267716535433071
          },
          {
            "duration": 0.3571427500000013,
            "durationTicks": 120,
            "midi": 73,
            "name": "C#5",
            "ticks": 21120,
            "time": 62.857124,
            "velocity": 0.8267716535433071
          },
          {
            "duration": 0.7142855000000026,
            "durationTicks": 240,
            "midi": 71,
            "name": "B4",
            "ticks": 21240,
            "time": 63.21426675,
            "velocity": 0.8267716535433071
          },
          {
            "duration": 0.33928561249999944,
            "durationTicks": 114,
            "midi": 69,
            "name": "A4",
            "ticks": 21480,
            "time": 63.92855225,
            "velocity": 0.8267716535433071
          },
          {
            "duration": 0.4642855750000052,
            "durationTicks": 156,
            "midi": 69,
            "name": "A4",
            "ticks": 21600,
            "time": 64.285695,
            "velocity": 0.8267716535433071
          },
          {
            "duration": 0.7142854999999884,
            "durationTicks": 240,
            "midi": 71,
            "name": "B4",
            "ticks": 21840,
            "time": 64.9999805,
            "velocity": 0.5590551181102362
          },
          {
            "duration": 0.7142855000000026,
            "durationTicks": 240,
            "midi": 69,
            "name": "A4",
            "ticks": 22080,
            "time": 65.714266,
            "velocity": 0.5590551181102362
          },
          {
            "duration": 0.7142855000000026,
            "durationTicks": 240,
            "midi": 67,
            "name": "G4",
            "ticks": 22320,
            "time": 66.4285515,
            "velocity": 0.5590551181102362
          },
          {
            "duration": 0.7142855000000026,
            "durationTicks": 240,
            "midi": 66,
            "name": "F#4",
            "ticks": 22560,
            "time": 67.142837,
            "velocity": 0.5590551181102362
          },
          {
            "duration": 0.7142855000000026,
            "durationTicks": 240,
            "midi": 64,
            "name": "E4",
            "ticks": 22800,
            "time": 67.8571225,
            "velocity": 0.5590551181102362
          },
          {
            "duration": 0.7142855000000026,
            "durationTicks": 240,
            "midi": 66,
            "name": "F#4",
            "ticks": 23040,
            "time": 68.571408,
            "velocity": 0.4881889763779528
          },
          {
            "duration": 0.7142854999999884,
            "durationTicks": 240,
            "midi": 62,
            "name": "D4",
            "ticks": 23280,
            "time": 69.28569350000001,
            "velocity": 0.4881889763779528
          },
          {
            "duration": 0.7142855000000026,
            "durationTicks": 240,
            "midi": 66,
            "name": "F#4",
            "ticks": 23520,
            "time": 69.999979,
            "velocity": 0.4881889763779528
          },
          {
            "duration": 0.7142855000000026,
            "durationTicks": 240,
            "midi": 62,
            "name": "D4",
            "ticks": 23760,
            "time": 70.7142645,
            "velocity": 0.4881889763779528
          },
          {
            "duration": 0.7142855000000026,
            "durationTicks": 240,
            "midi": 66,
            "name": "F#4",
            "ticks": 24000,
            "time": 71.42855,
            "velocity": 0.4881889763779528
          },
          {
            "duration": 0.6785712249999989,
            "durationTicks": 228,
            "midi": 62,
            "name": "D4",
            "ticks": 24240,
            "time": 72.1428355,
            "velocity": 0.4881889763779528
          },
          {
            "duration": 0.4642855750000052,
            "durationTicks": 156,
            "midi": 62,
            "name": "D4",
            "ticks": 24480,
            "time": 72.857121,
            "velocity": 0.4881889763779528
          },
          {
            "duration": 1.4285710000000051,
            "durationTicks": 480,
            "midi": 71,
            "name": "B4",
            "ticks": 24720,
            "time": 73.5714065,
            "velocity": 0.6456692913385826
          },
          {
            "duration": 0.7142855000000026,
            "durationTicks": 240,
            "midi": 69,
            "name": "A4",
            "ticks": 25200,
            "time": 74.9999775,
            "velocity": 0.4881889763779528
          },
          {
            "duration": 0.7142855000000026,
            "durationTicks": 240,
            "midi": 67,
            "name": "G4",
            "ticks": 25440,
            "time": 75.714263,
            "velocity": 0.4881889763779528
          },
          {
            "duration": 0.6785712249999989,
            "durationTicks": 228,
            "midi": 66,
            "name": "F#4",
            "ticks": 25680,
            "time": 76.4285485,
            "velocity": 0.4881889763779528
          },
          {
            "duration": 0.7142854999999884,
            "durationTicks": 240,
            "midi": 67,
            "name": "G4",
            "ticks": 25920,
            "time": 77.14283400000001,
            "velocity": 0.4881889763779528
          },
          {
            "duration": 0.7142855000000026,
            "durationTicks": 240,
            "midi": 64,
            "name": "E4",
            "ticks": 26160,
            "time": 77.8571195,
            "velocity": 0.4881889763779528
          },
          {
            "duration": 0.7142855000000026,
            "durationTicks": 240,
            "midi": 67,
            "name": "G4",
            "ticks": 26400,
            "time": 78.571405,
            "velocity": 0.4881889763779528
          },
          {
            "duration": 0.7142855000000026,
            "durationTicks": 240,
            "midi": 64,
            "name": "E4",
            "ticks": 26640,
            "time": 79.2856905,
            "velocity": 0.4881889763779528
          },
          {
            "duration": 0.7142855000000026,
            "durationTicks": 240,
            "midi": 67,
            "name": "G4",
            "ticks": 26880,
            "time": 79.999976,
            "velocity": 0.4881889763779528
          },
          {
            "duration": 0.6785712249999989,
            "durationTicks": 228,
            "midi": 64,
            "name": "E4",
            "ticks": 27120,
            "time": 80.7142615,
            "velocity": 0.4881889763779528
          },
          {
            "duration": 0.464285574999991,
            "durationTicks": 156,
            "midi": 64,
            "name": "E4",
            "ticks": 27360,
            "time": 81.42854700000001,
            "velocity": 0.4881889763779528
          },
          {
            "duration": 1.4285710000000051,
            "durationTicks": 480,
            "midi": 73,
            "name": "C#5",
            "ticks": 27600,
            "time": 82.1428325,
            "velocity": 0.6456692913385826
          },
          {
            "duration": 0.7142855000000026,
            "durationTicks": 240,
            "midi": 71,
            "name": "B4",
            "ticks": 28080,
            "time": 83.5714035,
            "velocity": 0.4881889763779528
          },
          {
            "duration": 0.7142855000000026,
            "durationTicks": 240,
            "midi": 69,
            "name": "A4",
            "ticks": 28320,
            "time": 84.285689,
            "velocity": 0.4881889763779528
          },
          {
            "duration": 0.6785712249999989,
            "durationTicks": 228,
            "midi": 68,
            "name": "G#4",
            "ticks": 28560,
            "time": 84.99997450000001,
            "velocity": 0.4881889763779528
          },
          {
            "duration": 0.7142855000000026,
            "durationTicks": 240,
            "midi": 69,
            "name": "A4",
            "ticks": 28800,
            "time": 85.71426,
            "velocity": 0.4881889763779528
          },
          {
            "duration": 0.7142855000000026,
            "durationTicks": 240,
            "midi": 61,
            "name": "C#4",
            "ticks": 29040,
            "time": 86.4285455,
            "velocity": 0.4881889763779528
          },
          {
            "duration": 0.7142855000000026,
            "durationTicks": 240,
            "midi": 59,
            "name": "B3",
            "ticks": 29280,
            "time": 87.142831,
            "velocity": 0.4881889763779528
          },
          {
            "duration": 0.7142855000000026,
            "durationTicks": 240,
            "midi": 64,
            "name": "E4",
            "ticks": 29520,
            "time": 87.8571165,
            "velocity": 0.4881889763779528
          },
          {
            "duration": 0.7142855000000026,
            "durationTicks": 240,
            "midi": 61,
            "name": "C#4",
            "ticks": 29760,
            "time": 88.571402,
            "velocity": 0.4881889763779528
          },
          {
            "duration": 0.6785712249999989,
            "durationTicks": 228,
            "midi": 67,
            "name": "G4",
            "ticks": 30000,
            "time": 89.28568750000001,
            "velocity": 0.4881889763779528
          },
          {
            "duration": 0.7142855000000026,
            "durationTicks": 240,
            "midi": 66,
            "name": "F#4",
            "ticks": 30240,
            "time": 89.999973,
            "velocity": 0.4881889763779528
          },
          {
            "duration": 0.7142855000000026,
            "durationTicks": 240,
            "midi": 62,
            "name": "D4",
            "ticks": 30480,
            "time": 90.7142585,
            "velocity": 0.4881889763779528
          },
          {
            "duration": 0.7142855000000026,
            "durationTicks": 240,
            "midi": 64,
            "name": "E4",
            "ticks": 30720,
            "time": 91.428544,
            "velocity": 0.4881889763779528
          },
          {
            "duration": 0.7142855000000026,
            "durationTicks": 240,
            "midi": 69,
            "name": "A4",
            "ticks": 30960,
            "time": 92.1428295,
            "velocity": 0.4881889763779528
          },
          {
            "duration": 0.7142854999999884,
            "durationTicks": 240,
            "midi": 62,
            "name": "D4",
            "ticks": 31200,
            "time": 92.85711500000001,
            "velocity": 0.4881889763779528
          },
          {
            "duration": 0.6785712249999989,
            "durationTicks": 228,
            "midi": 69,
            "name": "A4",
            "ticks": 31440,
            "time": 93.5714005,
            "velocity": 0.4881889763779528
          },
          {
            "duration": 0.7142855000000026,
            "durationTicks": 240,
            "midi": 64,
            "name": "E4",
            "ticks": 31680,
            "time": 94.285686,
            "velocity": 0.4881889763779528
          },
          {
            "duration": 0.7142855000000026,
            "durationTicks": 240,
            "midi": 67,
            "name": "G4",
            "ticks": 31920,
            "time": 94.9999715,
            "velocity": 0.4881889763779528
          },
          {
            "duration": 0.7142855000000026,
            "durationTicks": 240,
            "midi": 66,
            "name": "F#4",
            "ticks": 32160,
            "time": 95.714257,
            "velocity": 0.4881889763779528
          },
          {
            "duration": 0.7142855000000026,
            "durationTicks": 240,
            "midi": 69,
            "name": "A4",
            "ticks": 32400,
            "time": 96.4285425,
            "velocity": 0.4881889763779528
          },
          {
            "duration": 0.7142854999999884,
            "durationTicks": 240,
            "midi": 61,
            "name": "C#4",
            "ticks": 32640,
            "time": 97.14282800000001,
            "velocity": 0.4881889763779528
          },
          {
            "duration": 0.6785712249999989,
            "durationTicks": 228,
            "midi": 64,
            "name": "E4",
            "ticks": 32880,
            "time": 97.8571135,
            "velocity": 0.4881889763779528
          },
          {
            "duration": 1.1428568000000041,
            "durationTicks": 384,
            "midi": 62,
            "name": "D4",
            "ticks": 33120,
            "time": 98.571399,
            "velocity": 0.4881889763779528
          },
          {
            "duration": 2.1428565000000077,
            "durationTicks": 720,
            "midi": 78,
            "name": "F#5",
            "ticks": 34560,
            "time": 102.857112,
            "velocity": 0.8267716535433071
          },
          {
            "duration": 0.7142854999999884,
            "durationTicks": 240,
            "midi": 76,
            "name": "E5",
            "ticks": 35280,
            "time": 104.99996850000001,
            "velocity": 0.8267716535433071
          },
          {
            "duration": 0.7142855000000026,
            "durationTicks": 240,
            "midi": 74,
            "name": "D5",
            "ticks": 35520,
            "time": 105.714254,
            "velocity": 0.8267716535433071
          },
          {
            "duration": 0.6785712249999989,
            "durationTicks": 228,
            "midi": 73,
            "name": "C#5",
            "ticks": 35760,
            "time": 106.4285395,
            "velocity": 0.8267716535433071
          },
          {
            "duration": 1.3571424499999978,
            "durationTicks": 456,
            "midi": 71,
            "name": "B4",
            "ticks": 36000,
            "time": 107.142825,
            "velocity": 0.8267716535433071
          },
          {
            "duration": 2.1428564999999935,
            "durationTicks": 720,
            "midi": 79,
            "name": "G5",
            "ticks": 37440,
            "time": 111.428538,
            "velocity": 0.8267716535433071
          },
          {
            "duration": 0.7142855000000026,
            "durationTicks": 240,
            "midi": 78,
            "name": "F#5",
            "ticks": 38160,
            "time": 113.5713945,
            "velocity": 0.8267716535433071
          },
          {
            "duration": 0.7142855000000026,
            "durationTicks": 240,
            "midi": 76,
            "name": "E5",
            "ticks": 38400,
            "time": 114.28568,
            "velocity": 0.8267716535433071
          },
          {
            "duration": 0.6785712249999989,
            "durationTicks": 228,
            "midi": 74,
            "name": "D5",
            "ticks": 38640,
            "time": 114.9999655,
            "velocity": 0.8267716535433071
          },
          {
            "duration": 1.3571424499999978,
            "durationTicks": 456,
            "midi": 73,
            "name": "C#5",
            "ticks": 38880,
            "time": 115.714251,
            "velocity": 0.8267716535433071
          },
          {
            "duration": 2.1428564999999935,
            "durationTicks": 720,
            "midi": 81,
            "name": "A5",
            "ticks": 40320,
            "time": 119.999964,
            "velocity": 0.9212598425196851
          },
          {
            "duration": 0.7142855000000026,
            "durationTicks": 240,
            "midi": 79,
            "name": "G5",
            "ticks": 41040,
            "time": 122.1428205,
            "velocity": 0.9212598425196851
          },
          {
            "duration": 0.7142855000000026,
            "durationTicks": 240,
            "midi": 78,
            "name": "F#5",
            "ticks": 41280,
            "time": 122.857106,
            "velocity": 0.9212598425196851
          },
          {
            "duration": 0.6785712249999847,
            "durationTicks": 228,
            "midi": 76,
            "name": "E5",
            "ticks": 41520,
            "time": 123.5713915,
            "velocity": 0.9212598425196851
          },
          {
            "duration": 1.0714282499999968,
            "durationTicks": 360,
            "midi": 74,
            "name": "D5",
            "ticks": 41760,
            "time": 124.285677,
            "velocity": 0.9212598425196851
          },
          {
            "duration": 0.28571420000000103,
            "durationTicks": 96,
            "midi": 79,
            "name": "G5",
            "ticks": 42120,
            "time": 125.35710525,
            "velocity": 0.9212598425196851
          },
          {
            "duration": 2.1428565000000077,
            "durationTicks": 720,
            "midi": 79,
            "name": "G5",
            "ticks": 42240,
            "time": 125.714248,
            "velocity": 0.9212598425196851
          },
          {
            "duration": 0.6785712249999989,
            "durationTicks": 228,
            "midi": 78,
            "name": "F#5",
            "ticks": 42960,
            "time": 127.8571045,
            "velocity": 0.9212598425196851
          },
          {
            "duration": 0.3571427500000084,
            "durationTicks": 120,
            "midi": 76,
            "name": "E5",
            "ticks": 43200,
            "time": 128.57139,
            "velocity": 0.9212598425196851
          },
          {
            "duration": 0.35714274999997997,
            "durationTicks": 120,
            "midi": 83,
            "name": "B5",
            "ticks": 43320,
            "time": 128.92853275000002,
            "velocity": 0.9212598425196851
          },
          {
            "duration": 0.3571427500000084,
            "durationTicks": 120,
            "midi": 79,
            "name": "G5",
            "ticks": 43440,
            "time": 129.2856755,
            "velocity": 0.9212598425196851
          },
          {
            "duration": 0.33928561249999234,
            "durationTicks": 114,
            "midi": 76,
            "name": "E5",
            "ticks": 43560,
            "time": 129.64281825,
            "velocity": 0.9212598425196851
          },
          {
            "duration": 1.3571424499999978,
            "durationTicks": 456,
            "midi": 74,
            "name": "D5",
            "ticks": 43680,
            "time": 129.999961,
            "velocity": 0.8267716535433071
          },
          {
            "duration": 0.3571427500000084,
            "durationTicks": 120,
            "midi": 78,
            "name": "F#5",
            "ticks": 44160,
            "time": 131.428532,
            "velocity": 0.8267716535433071
          },
          {
            "duration": 0.7142855000000168,
            "durationTicks": 240,
            "midi": 76,
            "name": "E5",
            "ticks": 44280,
            "time": 131.78567475,
            "velocity": 0.8267716535433071
          },
          {
            "duration": 0.33928561249999234,
            "durationTicks": 114,
            "midi": 74,
            "name": "D5",
            "ticks": 44520,
            "time": 132.49996025000002,
            "velocity": 0.8267716535433071
          },
          {
            "duration": 0.46428557500001943,
            "durationTicks": 156,
            "midi": 74,
            "name": "D5",
            "ticks": 44640,
            "time": 132.857103,
            "velocity": 0.7086614173228346
          },
          {
            "duration": 0.7142854999999884,
            "durationTicks": 240,
            "midi": 71,
            "name": "B4",
            "ticks": 44880,
            "time": 133.5713885,
            "velocity": 0.5590551181102362
          },
          {
            "duration": 0.7142855000000168,
            "durationTicks": 240,
            "midi": 69,
            "name": "A4",
            "ticks": 45120,
            "time": 134.285674,
            "velocity": 0.5590551181102362
          },
          {
            "duration": 0.7142854999999884,
            "durationTicks": 240,
            "midi": 67,
            "name": "G4",
            "ticks": 45360,
            "time": 134.99995950000002,
            "velocity": 0.5590551181102362
          },
          {
            "duration": 0.7142854999999884,
            "durationTicks": 240,
            "midi": 66,
            "name": "F#4",
            "ticks": 45600,
            "time": 135.714245,
            "velocity": 0.5590551181102362
          },
          {
            "duration": 0.7142855000000168,
            "durationTicks": 240,
            "midi": 64,
            "name": "E4",
            "ticks": 45840,
            "time": 136.4285305,
            "velocity": 0.5590551181102362
          },
          {
            "duration": 0.5714284000000021,
            "durationTicks": 192,
            "midi": 66,
            "name": "F#4",
            "ticks": 46320,
            "time": 137.8571015,
            "velocity": 0.4881889763779528
          },
          {
            "duration": 0.5714284000000021,
            "durationTicks": 192,
            "midi": 66,
            "name": "F#4",
            "ticks": 46560,
            "time": 138.57138700000002,
            "velocity": 0.4881889763779528
          },
          {
            "duration": 0.5714284000000021,
            "durationTicks": 192,
            "midi": 66,
            "name": "F#4",
            "ticks": 46800,
            "time": 139.2856725,
            "velocity": 0.4881889763779528
          },
          {
            "duration": 0.5714284000000305,
            "durationTicks": 192,
            "midi": 66,
            "name": "F#4",
            "ticks": 47040,
            "time": 139.999958,
            "velocity": 0.4881889763779528
          },
          {
            "duration": 0.5714284000000021,
            "durationTicks": 192,
            "midi": 66,
            "name": "F#4",
            "ticks": 47280,
            "time": 140.7142435,
            "velocity": 0.4881889763779528
          },
          {
            "duration": 0.5714284000000021,
            "durationTicks": 192,
            "midi": 64,
            "name": "E4",
            "ticks": 47760,
            "time": 142.14281450000001,
            "velocity": 0.4881889763779528
          },
          {
            "duration": 0.5714284000000021,
            "durationTicks": 192,
            "midi": 64,
            "name": "E4",
            "ticks": 48000,
            "time": 142.8571,
            "velocity": 0.4881889763779528
          },
          {
            "duration": 0.5714284000000305,
            "durationTicks": 192,
            "midi": 64,
            "name": "E4",
            "ticks": 48240,
            "time": 143.5713855,
            "velocity": 0.4881889763779528
          },
          {
            "duration": 0.5714284000000021,
            "durationTicks": 192,
            "midi": 64,
            "name": "E4",
            "ticks": 48480,
            "time": 144.285671,
            "velocity": 0.4881889763779528
          },
          {
            "duration": 0.5714284000000021,
            "durationTicks": 192,
            "midi": 64,
            "name": "E4",
            "ticks": 48720,
            "time": 144.9999565,
            "velocity": 0.4881889763779528
          },
          {
            "duration": 1.3571424499999978,
            "durationTicks": 456,
            "midi": 62,
            "name": "D4",
            "ticks": 49200,
            "time": 146.4285275,
            "velocity": 0.4881889763779528
          },
          {
            "duration": 0.7142854999999884,
            "durationTicks": 240,
            "midi": 66,
            "name": "F#4",
            "ticks": 49680,
            "time": 147.8570985,
            "velocity": 0.4881889763779528
          },
          {
            "duration": 0.7142855000000168,
            "durationTicks": 240,
            "midi": 64,
            "name": "E4",
            "ticks": 49920,
            "time": 148.571384,
            "velocity": 0.4881889763779528
          },
          {
            "duration": 0.5714284000000021,
            "durationTicks": 192,
            "midi": 62,
            "name": "D4",
            "ticks": 50160,
            "time": 149.2856695,
            "velocity": 0.4881889763779528
          },
          {
            "duration": 1.0714282499999968,
            "durationTicks": 360,
            "midi": 59,
            "name": "B3",
            "ticks": 50400,
            "time": 149.999955,
            "velocity": 0.4881889763779528
          },
          {
            "duration": 0.28571420000000103,
            "durationTicks": 96,
            "midi": 60,
            "name": "C4",
            "ticks": 50760,
            "time": 151.07138325,
            "velocity": 0.4881889763779528
          },
          {
            "duration": 1.1428568000000041,
            "durationTicks": 384,
            "midi": 61,
            "name": "C#4",
            "ticks": 50880,
            "time": 151.428526,
            "velocity": 0.4881889763779528
          },
          {
            "duration": 0.42857129999998733,
            "durationTicks": 144,
            "midi": 69,
            "name": "A4",
            "ticks": 52080,
            "time": 154.9999535,
            "velocity": 0.4881889763779528
          },
          {
            "duration": 0.42857130000001575,
            "durationTicks": 144,
            "midi": 64,
            "name": "E4",
            "ticks": 52320,
            "time": 155.714239,
            "velocity": 0.4881889763779528
          },
          {
            "duration": 0.42857129999998733,
            "durationTicks": 144,
            "midi": 69,
            "name": "A4",
            "ticks": 52560,
            "time": 156.4285245,
            "velocity": 0.4881889763779528
          },
          {
            "duration": 0.42857130000001575,
            "durationTicks": 144,
            "midi": 64,
            "name": "E4",
            "ticks": 52800,
            "time": 157.14281,
            "velocity": 0.4881889763779528
          },
          {
            "duration": 0.42857129999998733,
            "durationTicks": 144,
            "midi": 69,
            "name": "A4",
            "ticks": 53040,
            "time": 157.8570955,
            "velocity": 0.4881889763779528
          },
          {
            "duration": 0.42857130000001575,
            "durationTicks": 144,
            "midi": 66,
            "name": "F#4",
            "ticks": 53520,
            "time": 159.2856665,
            "velocity": 0.4881889763779528
          },
          {
            "duration": 0.42857129999998733,
            "durationTicks": 144,
            "midi": 62,
            "name": "D4",
            "ticks": 53760,
            "time": 159.999952,
            "velocity": 0.4881889763779528
          },
          {
            "duration": 0.42857130000001575,
            "durationTicks": 144,
            "midi": 66,
            "name": "F#4",
            "ticks": 54000,
            "time": 160.7142375,
            "velocity": 0.4881889763779528
          },
          {
            "duration": 0.42857129999998733,
            "durationTicks": 144,
            "midi": 62,
            "name": "D4",
            "ticks": 54240,
            "time": 161.428523,
            "velocity": 0.4881889763779528
          },
          {
            "duration": 0.42857129999998733,
            "durationTicks": 144,
            "midi": 66,
            "name": "F#4",
            "ticks": 54480,
            "time": 162.1428085,
            "velocity": 0.4881889763779528
          },
          {
            "duration": 0.42857129999998733,
            "durationTicks": 144,
            "midi": 67,
            "name": "G4",
            "ticks": 54960,
            "time": 163.5713795,
            "velocity": 0.4881889763779528
          },
          {
            "duration": 0.42857130000001575,
            "durationTicks": 144,
            "midi": 64,
            "name": "E4",
            "ticks": 55200,
            "time": 164.285665,
            "velocity": 0.4881889763779528
          },
          {
            "duration": 0.42857129999998733,
            "durationTicks": 144,
            "midi": 67,
            "name": "G4",
            "ticks": 55440,
            "time": 164.9999505,
            "velocity": 0.4881889763779528
          },
          {
            "duration": 0.42857129999998733,
            "durationTicks": 144,
            "midi": 64,
            "name": "E4",
            "ticks": 55680,
            "time": 165.714236,
            "velocity": 0.4881889763779528
          },
          {
            "duration": 0.42857129999998733,
            "durationTicks": 144,
            "midi": 67,
            "name": "G4",
            "ticks": 55920,
            "time": 166.42852150000002,
            "velocity": 0.4881889763779528
          },
          {
            "duration": 0.42857130000001575,
            "durationTicks": 144,
            "midi": 69,
            "name": "A4",
            "ticks": 56400,
            "time": 167.8570925,
            "velocity": 0.4881889763779528
          },
          {
            "duration": 0.42857129999998733,
            "durationTicks": 144,
            "midi": 66,
            "name": "F#4",
            "ticks": 56640,
            "time": 168.571378,
            "velocity": 0.4881889763779528
          },
          {
            "duration": 0.42857130000001575,
            "durationTicks": 144,
            "midi": 69,
            "name": "A4",
            "ticks": 56880,
            "time": 169.2856635,
            "velocity": 0.4881889763779528
          },
          {
            "duration": 0.42857129999998733,
            "durationTicks": 144,
            "midi": 66,
            "name": "F#4",
            "ticks": 57120,
            "time": 169.99994900000002,
            "velocity": 0.4881889763779528
          },
          {
            "duration": 0.42857129999998733,
            "durationTicks": 144,
            "midi": 69,
            "name": "A4",
            "ticks": 57360,
            "time": 170.7142345,
            "velocity": 0.4881889763779528
          },
          {
            "duration": 0.42857129999998733,
            "durationTicks": 144,
            "midi": 71,
            "name": "B4",
            "ticks": 57840,
            "time": 172.1428055,
            "velocity": 0.4881889763779528
          },
          {
            "duration": 0.42857130000001575,
            "durationTicks": 144,
            "midi": 62,
            "name": "D4",
            "ticks": 58080,
            "time": 172.857091,
            "velocity": 0.4881889763779528
          },
          {
            "duration": 0.42857129999998733,
            "durationTicks": 144,
            "midi": 71,
            "name": "B4",
            "ticks": 58320,
            "time": 173.5713765,
            "velocity": 0.4881889763779528
          },
          {
            "duration": 0.42857129999998733,
            "durationTicks": 144,
            "midi": 62,
            "name": "D4",
            "ticks": 58560,
            "time": 174.285662,
            "velocity": 0.4881889763779528
          },
          {
            "duration": 0.42857130000001575,
            "durationTicks": 144,
            "midi": 71,
            "name": "B4",
            "ticks": 58800,
            "time": 174.9999475,
            "velocity": 0.4881889763779528
          },
          {
            "duration": 0.5714284000000021,
            "durationTicks": 192,
            "midi": 61,
            "name": "C#4",
            "ticks": 59040,
            "time": 175.714233,
            "velocity": 0.4881889763779528
          },
          {
            "duration": 0.5714284000000021,
            "durationTicks": 192,
            "midi": 69,
            "name": "A4",
            "ticks": 59520,
            "time": 177.142804,
            "velocity": 0.4881889763779528
          },
          {
            "duration": 0.5714284000000021,
            "durationTicks": 192,
            "midi": 66,
            "name": "F#4",
            "ticks": 60000,
            "time": 178.57137500000002,
            "velocity": 0.4881889763779528
          },
          {
            "duration": 0.7142854999999884,
            "durationTicks": 240,
            "midi": 64,
            "name": "E4",
            "ticks": 60720,
            "time": 180.7142315,
            "velocity": 0.4881889763779528
          },
          {
            "duration": 0.7142855000000168,
            "durationTicks": 240,
            "midi": 61,
            "name": "C#4",
            "ticks": 60960,
            "time": 181.428517,
            "velocity": 0.4881889763779528
          },
          {
            "duration": 0.7142854999999884,
            "durationTicks": 240,
            "midi": 64,
            "name": "E4",
            "ticks": 61200,
            "time": 182.14280250000002,
            "velocity": 0.4881889763779528
          },
          {
            "duration": 0.7142854999999884,
            "durationTicks": 240,
            "midi": 62,
            "name": "D4",
            "ticks": 61440,
            "time": 182.857088,
            "velocity": 0.4881889763779528
          },
          {
            "duration": 0.5714284000000305,
            "durationTicks": 192,
            "midi": 61,
            "name": "C#4",
            "ticks": 61680,
            "time": 183.5713735,
            "velocity": 0.4881889763779528
          },
          {
            "duration": 1.4285710000000051,
            "durationTicks": 480,
            "midi": 68,
            "name": "G#4",
            "ticks": 61920,
            "time": 184.285659,
            "velocity": 0.4881889763779528
          },
          {
            "duration": 0.4642855749999626,
            "durationTicks": 156,
            "midi": 69,
            "name": "A4",
            "ticks": 62400,
            "time": 185.71423000000001,
            "velocity": 0.4881889763779528
          },
          {
            "duration": 1.4285710000000051,
            "durationTicks": 480,
            "midi": 61,
            "name": "C#4",
            "ticks": 62640,
            "time": 186.4285155,
            "velocity": 0.4881889763779528
          },
          {
            "duration": 0.5714284000000021,
            "durationTicks": 192,
            "midi": 62,
            "name": "D4",
            "ticks": 63120,
            "time": 187.8570865,
            "velocity": 0.4881889763779528
          },
          {
            "duration": 0.42857130000001575,
            "durationTicks": 144,
            "midi": 64,
            "name": "E4",
            "ticks": 63360,
            "time": 188.571372,
            "velocity": 0.5590551181102362
          },
          {
            "duration": 0.42857130000001575,
            "durationTicks": 144,
            "midi": 76,
            "name": "E5",
            "ticks": 63840,
            "time": 189.999943,
            "velocity": 0.5590551181102362
          },
          {
            "duration": 0.42857130000001575,
            "durationTicks": 144,
            "midi": 81,
            "name": "A5",
            "ticks": 64320,
            "time": 191.428514,
            "velocity": 0.5590551181102362
          },
          {
            "duration": 0.42857130000001575,
            "durationTicks": 144,
            "midi": 78,
            "name": "F#5",
            "ticks": 65280,
            "time": 194.28565600000002,
            "velocity": 0.5590551181102362
          },
          {
            "duration": 0.42857130000001575,
            "durationTicks": 144,
            "midi": 83,
            "name": "B5",
            "ticks": 65760,
            "time": 195.714227,
            "velocity": 0.5590551181102362
          },
          {
            "duration": 0.42857130000001575,
            "durationTicks": 144,
            "midi": 79,
            "name": "G5",
            "ticks": 66720,
            "time": 198.571369,
            "velocity": 0.5590551181102362
          },
          {
            "duration": 0.42857130000001575,
            "durationTicks": 144,
            "midi": 85,
            "name": "C#6",
            "ticks": 67200,
            "time": 199.99994,
            "velocity": 0.5590551181102362
          },
          {
            "duration": 0.4285713000000442,
            "durationTicks": 144,
            "midi": 81,
            "name": "A5",
            "ticks": 68160,
            "time": 202.857082,
            "velocity": 0.5590551181102362
          },
          {
            "duration": 0.42857130000001575,
            "durationTicks": 144,
            "midi": 86,
            "name": "D6",
            "ticks": 68640,
            "time": 204.285653,
            "velocity": 0.5590551181102362
          },
          {
            "duration": 0.464285574999991,
            "durationTicks": 156,
            "midi": 74,
            "name": "D5",
            "ticks": 69600,
            "time": 207.142795,
            "velocity": 0.5590551181102362
          },
          {
            "duration": 0.464285574999991,
            "durationTicks": 156,
            "midi": 83,
            "name": "B5",
            "ticks": 70080,
            "time": 208.571366,
            "velocity": 0.5590551181102362
          },
          {
            "duration": 0.642856949999981,
            "durationTicks": 216,
            "midi": 61,
            "name": "C#4",
            "ticks": 70800,
            "time": 210.7142225,
            "velocity": 0.5590551181102362
          },
          {
            "duration": 0.6428569500000094,
            "durationTicks": 216,
            "midi": 64,
            "name": "E4",
            "ticks": 71040,
            "time": 211.428508,
            "velocity": 0.5590551181102362
          },
          {
            "duration": 0.642856949999981,
            "durationTicks": 216,
            "midi": 69,
            "name": "A4",
            "ticks": 71280,
            "time": 212.1427935,
            "velocity": 0.5590551181102362
          },
          {
            "duration": 0.642856949999981,
            "durationTicks": 216,
            "midi": 73,
            "name": "C#5",
            "ticks": 71520,
            "time": 212.857079,
            "velocity": 0.5590551181102362
          },
          {
            "duration": 0.642856949999981,
            "durationTicks": 216,
            "midi": 76,
            "name": "E5",
            "ticks": 71760,
            "time": 213.57136450000002,
            "velocity": 0.5590551181102362
          },
          {
            "duration": 0.6428569500000094,
            "durationTicks": 216,
            "midi": 62,
            "name": "D4",
            "ticks": 72240,
            "time": 214.9999355,
            "velocity": 0.5590551181102362
          },
          {
            "duration": 0.642856949999981,
            "durationTicks": 216,
            "midi": 66,
            "name": "F#4",
            "ticks": 72480,
            "time": 215.714221,
            "velocity": 0.5590551181102362
          },
          {
            "duration": 0.642856949999981,
            "durationTicks": 216,
            "midi": 71,
            "name": "B4",
            "ticks": 72720,
            "time": 216.4285065,
            "velocity": 0.5590551181102362
          },
          {
            "duration": 0.642856949999981,
            "durationTicks": 216,
            "midi": 74,
            "name": "D5",
            "ticks": 72960,
            "time": 217.14279200000001,
            "velocity": 0.5590551181102362
          },
          {
            "duration": 0.642856949999981,
            "durationTicks": 216,
            "midi": 78,
            "name": "F#5",
            "ticks": 73200,
            "time": 217.8570775,
            "velocity": 0.5590551181102362
          },
          {
            "duration": 0.5714284000000021,
            "durationTicks": 192,
            "midi": 61,
            "name": "C#4",
            "ticks": 73680,
            "time": 219.2856485,
            "velocity": 0.4881889763779528
          },
          {
            "duration": 0.5714284000000305,
            "durationTicks": 192,
            "midi": 61,
            "name": "C#4",
            "ticks": 73920,
            "time": 219.999934,
            "velocity": 0.4881889763779528
          },
          {
            "duration": 0.5714284000000021,
            "durationTicks": 192,
            "midi": 61,
            "name": "C#4",
            "ticks": 74160,
            "time": 220.7142195,
            "velocity": 0.4881889763779528
          },
          {
            "duration": 0.5714284000000021,
            "durationTicks": 192,
            "midi": 61,
            "name": "C#4",
            "ticks": 74400,
            "time": 221.428505,
            "velocity": 0.4881889763779528
          },
          {
            "duration": 0.5714284000000021,
            "durationTicks": 192,
            "midi": 61,
            "name": "C#4",
            "ticks": 74640,
            "time": 222.14279050000002,
            "velocity": 0.4881889763779528
          },
          {
            "duration": 0.2857141999999726,
            "durationTicks": 96,
            "midi": 59,
            "name": "B3",
            "ticks": 74880,
            "time": 222.857076,
            "velocity": 0.4881889763779528
          },
          {
            "duration": 0.2857141999999726,
            "durationTicks": 96,
            "midi": 59,
            "name": "B3",
            "ticks": 75000,
            "time": 223.21421875000001,
            "velocity": 0.4881889763779528
          },
          {
            "duration": 0.28571420000000103,
            "durationTicks": 96,
            "midi": 59,
            "name": "B3",
            "ticks": 75120,
            "time": 223.5713615,
            "velocity": 0.5590551181102362
          },
          {
            "duration": 0.2857141999999726,
            "durationTicks": 96,
            "midi": 59,
            "name": "B3",
            "ticks": 75240,
            "time": 223.92850425,
            "velocity": 0.5590551181102362
          },
          {
            "duration": 0.2857141999999726,
            "durationTicks": 96,
            "midi": 59,
            "name": "B3",
            "ticks": 75360,
            "time": 224.285647,
            "velocity": 0.5590551181102362
          },
          {
            "duration": 0.28571420000000103,
            "durationTicks": 96,
            "midi": 59,
            "name": "B3",
            "ticks": 75480,
            "time": 224.64278975,
            "velocity": 0.6299212598425197
          },
          {
            "duration": 0.28571420000000103,
            "durationTicks": 96,
            "midi": 59,
            "name": "B3",
            "ticks": 75600,
            "time": 224.9999325,
            "velocity": 0.6299212598425197
          },
          {
            "duration": 0.2857141999999726,
            "durationTicks": 96,
            "midi": 59,
            "name": "B3",
            "ticks": 75720,
            "time": 225.35707525,
            "velocity": 0.6299212598425197
          },
          {
            "duration": 0.2857141999999726,
            "durationTicks": 96,
            "midi": 59,
            "name": "B3",
            "ticks": 75840,
            "time": 225.71421800000002,
            "velocity": 0.6299212598425197
          },
          {
            "duration": 0.28571420000000103,
            "durationTicks": 96,
            "midi": 59,
            "name": "B3",
            "ticks": 75960,
            "time": 226.07136075,
            "velocity": 0.7086614173228346
          },
          {
            "duration": 0.2857141999999726,
            "durationTicks": 96,
            "midi": 59,
            "name": "B3",
            "ticks": 76080,
            "time": 226.4285035,
            "velocity": 0.8267716535433071
          },
          {
            "duration": 0.2857141999999726,
            "durationTicks": 96,
            "midi": 59,
            "name": "B3",
            "ticks": 76200,
            "time": 226.78564625,
            "velocity": 0.8267716535433071
          },
          {
            "duration": 0.5714284000000305,
            "durationTicks": 192,
            "midi": 57,
            "name": "A3",
            "ticks": 76320,
            "time": 227.142789,
            "velocity": 0.8267716535433071
          },
          {
            "duration": 1.1428568000000041,
            "durationTicks": 384,
            "midi": 69,
            "name": "A4",
            "ticks": 76560,
            "time": 227.8570745,
            "velocity": 0.8267716535433071
          },
          {
            "duration": 1.1428568000000041,
            "durationTicks": 384,
            "midi": 73,
            "name": "C#5",
            "ticks": 77040,
            "time": 229.28564550000002,
            "velocity": 0.8267716535433071
          },
          {
            "duration": 0.5714284000000305,
            "durationTicks": 192,
            "midi": 76,
            "name": "E5",
            "ticks": 77520,
            "time": 230.7142165,
            "velocity": 0.8267716535433071
          },
          {
            "duration": 0.464285574999991,
            "durationTicks": 156,
            "midi": 81,
            "name": "A5",
            "ticks": 77760,
            "time": 231.428502,
            "velocity": 0.984251968503937
          },
          {
            "duration": 0.5714284000000305,
            "durationTicks": 192,
            "midi": 61,
            "name": "C#4",
            "ticks": 78000,
            "time": 232.1427875,
            "velocity": 0.5590551181102362
          },
          {
            "duration": 0.5714284000000021,
            "durationTicks": 192,
            "midi": 61,
            "name": "C#4",
            "ticks": 78240,
            "time": 232.857073,
            "velocity": 0.5590551181102362
          },
          {
            "duration": 0.5714284000000021,
            "durationTicks": 192,
            "midi": 61,
            "name": "C#4",
            "ticks": 78480,
            "time": 233.5713585,
            "velocity": 0.5590551181102362
          },
          {
            "duration": 0.5714284000000021,
            "durationTicks": 192,
            "midi": 61,
            "name": "C#4",
            "ticks": 78720,
            "time": 234.28564400000002,
            "velocity": 0.5590551181102362
          },
          {
            "duration": 0.5714284000000021,
            "durationTicks": 192,
            "midi": 61,
            "name": "C#4",
            "ticks": 78960,
            "time": 234.9999295,
            "velocity": 0.5590551181102362
          },
          {
            "duration": 0.5714284000000305,
            "durationTicks": 192,
            "midi": 62,
            "name": "D4",
            "ticks": 79200,
            "time": 235.714215,
            "velocity": 0.8267716535433071
          },
          {
            "duration": 1.1428568000000041,
            "durationTicks": 384,
            "midi": 68,
            "name": "G#4",
            "ticks": 79440,
            "time": 236.4285005,
            "velocity": 0.8267716535433071
          },
          {
            "duration": 1.1428568000000041,
            "durationTicks": 384,
            "midi": 71,
            "name": "B4",
            "ticks": 79920,
            "time": 237.85707150000002,
            "velocity": 0.8267716535433071
          },
          {
            "duration": 0.5714284000000305,
            "durationTicks": 192,
            "midi": 74,
            "name": "D5",
            "ticks": 80400,
            "time": 239.2856425,
            "velocity": 0.8267716535433071
          },
          {
            "duration": 0.464285574999991,
            "durationTicks": 156,
            "midi": 80,
            "name": "G#5",
            "ticks": 80640,
            "time": 239.999928,
            "velocity": 0.7165354330708661
          },
          {
            "duration": 0.5714284000000021,
            "durationTicks": 192,
            "midi": 62,
            "name": "D4",
            "ticks": 80880,
            "time": 240.7142135,
            "velocity": 0.5590551181102362
          },
          {
            "duration": 0.5714284000000021,
            "durationTicks": 192,
            "midi": 62,
            "name": "D4",
            "ticks": 81120,
            "time": 241.42849900000002,
            "velocity": 0.5590551181102362
          },
          {
            "duration": 0.5714284000000021,
            "durationTicks": 192,
            "midi": 62,
            "name": "D4",
            "ticks": 81360,
            "time": 242.1427845,
            "velocity": 0.5590551181102362
          },
          {
            "duration": 0.5714284000000305,
            "durationTicks": 192,
            "midi": 62,
            "name": "D4",
            "ticks": 81600,
            "time": 242.85707,
            "velocity": 0.5590551181102362
          },
          {
            "duration": 0.5714284000000021,
            "durationTicks": 192,
            "midi": 62,
            "name": "D4",
            "ticks": 81840,
            "time": 243.5713555,
            "velocity": 0.5590551181102362
          },
          {
            "duration": 0.5714284000000021,
            "durationTicks": 192,
            "midi": 61,
            "name": "C#4",
            "ticks": 82080,
            "time": 244.285641,
            "velocity": 0.8267716535433071
          },
          {
            "duration": 1.1428568000000041,
            "durationTicks": 384,
            "midi": 67,
            "name": "G4",
            "ticks": 82320,
            "time": 244.99992650000002,
            "velocity": 0.8267716535433071
          },
          {
            "duration": 1.1428568000000041,
            "durationTicks": 384,
            "midi": 73,
            "name": "C#5",
            "ticks": 82800,
            "time": 246.42849750000002,
            "velocity": 0.8267716535433071
          },
          {
            "duration": 0.5714284000000305,
            "durationTicks": 192,
            "midi": 76,
            "name": "E5",
            "ticks": 83280,
            "time": 247.8570685,
            "velocity": 0.8267716535433071
          },
          {
            "duration": 1.1428568000000041,
            "durationTicks": 384,
            "midi": 79,
            "name": "G5",
            "ticks": 83520,
            "time": 248.571354,
            "velocity": 0.8267716535433071
          },
          {
            "duration": 0.7142854999999599,
            "durationTicks": 240,
            "midi": 66,
            "name": "F#4",
            "ticks": 87000,
            "time": 258.92849375000003,
            "velocity": 0.4881889763779528
          },
          {
            "duration": 0.7142855000000168,
            "durationTicks": 240,
            "midi": 69,
            "name": "A4",
            "ticks": 87240,
            "time": 259.64277925,
            "velocity": 0.4881889763779528
          },
          {
            "duration": 0.7142855000000168,
            "durationTicks": 240,
            "midi": 66,
            "name": "F#4",
            "ticks": 87480,
            "time": 260.35706475,
            "velocity": 0.4881889763779528
          },
          {
            "duration": 0.7142854999999599,
            "durationTicks": 240,
            "midi": 69,
            "name": "A4",
            "ticks": 87720,
            "time": 261.07135025,
            "velocity": 0.4881889763779528
          },
          {
            "duration": 0.7142855000000168,
            "durationTicks": 240,
            "midi": 66,
            "name": "F#4",
            "ticks": 87960,
            "time": 261.78563575,
            "velocity": 0.4881889763779528
          },
          {
            "duration": 0.6785712249999847,
            "durationTicks": 228,
            "midi": 69,
            "name": "A4",
            "ticks": 88200,
            "time": 262.49992125,
            "velocity": 0.4881889763779528
          },
          {
            "duration": 0.7142855000000168,
            "durationTicks": 240,
            "midi": 67,
            "name": "G4",
            "ticks": 88440,
            "time": 263.21420675,
            "velocity": 0.4881889763779528
          },
          {
            "duration": 0.7142854999999599,
            "durationTicks": 240,
            "midi": 69,
            "name": "A4",
            "ticks": 88680,
            "time": 263.92849225000003,
            "velocity": 0.4881889763779528
          },
          {
            "duration": 0.7142855000000168,
            "durationTicks": 240,
            "midi": 66,
            "name": "F#4",
            "ticks": 88920,
            "time": 264.64277775,
            "velocity": 0.4881889763779528
          },
          {
            "duration": 0.7142855000000168,
            "durationTicks": 240,
            "midi": 69,
            "name": "A4",
            "ticks": 89160,
            "time": 265.35706325,
            "velocity": 0.4881889763779528
          },
          {
            "duration": 0.7142854999999599,
            "durationTicks": 240,
            "midi": 66,
            "name": "F#4",
            "ticks": 89400,
            "time": 266.07134875,
            "velocity": 0.4881889763779528
          },
          {
            "duration": 0.6785712249999847,
            "durationTicks": 228,
            "midi": 69,
            "name": "A4",
            "ticks": 89640,
            "time": 266.78563425,
            "velocity": 0.4881889763779528
          },
          {
            "duration": 0.7142855000000168,
            "durationTicks": 240,
            "midi": 66,
            "name": "F#4",
            "ticks": 89880,
            "time": 267.49991975,
            "velocity": 0.4881889763779528
          },
          {
            "duration": 0.7142854999999599,
            "durationTicks": 240,
            "midi": 69,
            "name": "A4",
            "ticks": 90120,
            "time": 268.21420525,
            "velocity": 0.4881889763779528
          },
          {
            "duration": 0.7142855000000168,
            "durationTicks": 240,
            "midi": 66,
            "name": "F#4",
            "ticks": 90360,
            "time": 268.92849075,
            "velocity": 0.4881889763779528
          },
          {
            "duration": 0.7142855000000168,
            "durationTicks": 240,
            "midi": 69,
            "name": "A4",
            "ticks": 90600,
            "time": 269.64277625,
            "velocity": 0.4881889763779528
          },
          {
            "duration": 0.7142855000000168,
            "durationTicks": 240,
            "midi": 66,
            "name": "F#4",
            "ticks": 90840,
            "time": 270.35706175,
            "velocity": 0.4881889763779528
          },
          {
            "duration": 0.6785712249999847,
            "durationTicks": 228,
            "midi": 69,
            "name": "A4",
            "ticks": 91080,
            "time": 271.07134725000003,
            "velocity": 0.4881889763779528
          },
          {
            "duration": 0.7142855000000168,
            "durationTicks": 240,
            "midi": 64,
            "name": "E4",
            "ticks": 91320,
            "time": 271.78563275,
            "velocity": 0.4881889763779528
          },
          {
            "duration": 0.7142855000000168,
            "durationTicks": 240,
            "midi": 69,
            "name": "A4",
            "ticks": 91560,
            "time": 272.49991825,
            "velocity": 0.4881889763779528
          },
          {
            "duration": 0.7142854999999599,
            "durationTicks": 240,
            "midi": 66,
            "name": "F#4",
            "ticks": 91800,
            "time": 273.21420375,
            "velocity": 0.4881889763779528
          },
          {
            "duration": 0.7142855000000168,
            "durationTicks": 240,
            "midi": 69,
            "name": "A4",
            "ticks": 92040,
            "time": 273.92848925,
            "velocity": 0.4881889763779528
          },
          {
            "duration": 0.7142855000000168,
            "durationTicks": 240,
            "midi": 66,
            "name": "F#4",
            "ticks": 92280,
            "time": 274.64277475,
            "velocity": 0.4881889763779528
          },
          {
            "duration": 0.6785712249999847,
            "durationTicks": 228,
            "midi": 69,
            "name": "A4",
            "ticks": 92520,
            "time": 275.35706025,
            "velocity": 0.4881889763779528
          },
          {
            "duration": 0.7142854999999599,
            "durationTicks": 240,
            "midi": 64,
            "name": "E4",
            "ticks": 92760,
            "time": 276.07134575000003,
            "velocity": 0.4881889763779528
          },
          {
            "duration": 0.7142855000000168,
            "durationTicks": 240,
            "midi": 69,
            "name": "A4",
            "ticks": 93000,
            "time": 276.78563125,
            "velocity": 0.4881889763779528
          },
          {
            "duration": 0.7142855000000168,
            "durationTicks": 240,
            "midi": 64,
            "name": "E4",
            "ticks": 93240,
            "time": 277.49991675,
            "velocity": 0.4881889763779528
          },
          {
            "duration": 0.7142854999999599,
            "durationTicks": 240,
            "midi": 69,
            "name": "A4",
            "ticks": 93480,
            "time": 278.21420225,
            "velocity": 0.4881889763779528
          },
          {
            "duration": 0.7142855000000168,
            "durationTicks": 240,
            "midi": 66,
            "name": "F#4",
            "ticks": 93720,
            "time": 278.92848775,
            "velocity": 0.4881889763779528
          },
          {
            "duration": 0.6785712249999847,
            "durationTicks": 228,
            "midi": 69,
            "name": "A4",
            "ticks": 93960,
            "time": 279.64277325,
            "velocity": 0.4881889763779528
          },
          {
            "duration": 0.7142854999999599,
            "durationTicks": 240,
            "midi": 64,
            "name": "E4",
            "ticks": 94200,
            "time": 280.35705875,
            "velocity": 0.4881889763779528
          },
          {
            "duration": 0.7142855000000168,
            "durationTicks": 240,
            "midi": 69,
            "name": "A4",
            "ticks": 94440,
            "time": 281.07134425,
            "velocity": 0.4881889763779528
          },
          {
            "duration": 0.7142855000000168,
            "durationTicks": 240,
            "midi": 64,
            "name": "E4",
            "ticks": 94680,
            "time": 281.78562975,
            "velocity": 0.4881889763779528
          },
          {
            "duration": 0.7142855000000168,
            "durationTicks": 240,
            "midi": 69,
            "name": "A4",
            "ticks": 94920,
            "time": 282.49991525,
            "velocity": 0.4881889763779528
          },
          {
            "duration": 0.7142854999999599,
            "durationTicks": 240,
            "midi": 62,
            "name": "D4",
            "ticks": 95160,
            "time": 283.21420075000003,
            "velocity": 0.4881889763779528
          },
          {
            "duration": 0.6785712249999847,
            "durationTicks": 228,
            "midi": 66,
            "name": "F#4",
            "ticks": 95400,
            "time": 283.92848625,
            "velocity": 0.4881889763779528
          },
          {
            "duration": 0.7142855000000168,
            "durationTicks": 240,
            "midi": 61,
            "name": "C#4",
            "ticks": 95640,
            "time": 284.64277175,
            "velocity": 0.4881889763779528
          },
          {
            "duration": 0.7142854999999599,
            "durationTicks": 240,
            "midi": 64,
            "name": "E4",
            "ticks": 95880,
            "time": 285.35705725,
            "velocity": 0.4881889763779528
          },
          {
            "duration": 0.7142855000000168,
            "durationTicks": 240,
            "midi": 61,
            "name": "C#4",
            "ticks": 96120,
            "time": 286.07134275,
            "velocity": 0.4881889763779528
          },
          {
            "duration": 0.7142855000000168,
            "durationTicks": 240,
            "midi": 64,
            "name": "E4",
            "ticks": 96360,
            "time": 286.78562825,
            "velocity": 0.4881889763779528
          },
          {
            "duration": 0.7142854999999599,
            "durationTicks": 240,
            "midi": 62,
            "name": "D4",
            "ticks": 96600,
            "time": 287.49991375,
            "velocity": 0.4881889763779528
          },
          {
            "duration": 0.6785712250000415,
            "durationTicks": 228,
            "midi": 64,
            "name": "E4",
            "ticks": 96840,
            "time": 288.21419925,
            "velocity": 0.4881889763779528
          },
          {
            "duration": 0.46428557500001943,
            "durationTicks": 156,
            "midi": 61,
            "name": "C#4",
            "ticks": 97080,
            "time": 288.92848475,
            "velocity": 0.4881889763779528
          },
          {
            "duration": 0.7142855000000168,
            "durationTicks": 240,
            "midi": 71,
            "name": "B4",
            "ticks": 97320,
            "time": 289.64277025,
            "velocity": 0.4881889763779528
          },
          {
            "duration": 0.7142854999999599,
            "durationTicks": 240,
            "midi": 69,
            "name": "A4",
            "ticks": 97560,
            "time": 290.35705575000003,
            "velocity": 0.4881889763779528
          },
          {
            "duration": 0.7142855000000168,
            "durationTicks": 240,
            "midi": 67,
            "name": "G4",
            "ticks": 97800,
            "time": 291.07134125,
            "velocity": 0.4881889763779528
          },
          {
            "duration": 0.7142855000000168,
            "durationTicks": 240,
            "midi": 66,
            "name": "F#4",
            "ticks": 98040,
            "time": 291.78562675,
            "velocity": 0.4881889763779528
          },
          {
            "duration": 0.6785712249999847,
            "durationTicks": 228,
            "midi": 64,
            "name": "E4",
            "ticks": 98280,
            "time": 292.49991225,
            "velocity": 0.4881889763779528
          },
          {
            "duration": 0.7142855000000168,
            "durationTicks": 240,
            "midi": 66,
            "name": "F#4",
            "ticks": 98520,
            "time": 293.21419775,
            "velocity": 0.4881889763779528
          },
          {
            "duration": 0.7142855000000168,
            "durationTicks": 240,
            "midi": 62,
            "name": "D4",
            "ticks": 98760,
            "time": 293.92848325,
            "velocity": 0.4881889763779528
          },
          {
            "duration": 0.7142855000000168,
            "durationTicks": 240,
            "midi": 66,
            "name": "F#4",
            "ticks": 99000,
            "time": 294.64276875,
            "velocity": 0.4881889763779528
          },
          {
            "duration": 0.7142854999999599,
            "durationTicks": 240,
            "midi": 62,
            "name": "D4",
            "ticks": 99240,
            "time": 295.35705425000003,
            "velocity": 0.4881889763779528
          },
          {
            "duration": 0.7142855000000168,
            "durationTicks": 240,
            "midi": 66,
            "name": "F#4",
            "ticks": 99480,
            "time": 296.07133975,
            "velocity": 0.4881889763779528
          },
          {
            "duration": 0.6785712249999847,
            "durationTicks": 228,
            "midi": 62,
            "name": "D4",
            "ticks": 99720,
            "time": 296.78562525,
            "velocity": 0.4881889763779528
          },
          {
            "duration": 0.4642855749999626,
            "durationTicks": 156,
            "midi": 62,
            "name": "D4",
            "ticks": 99960,
            "time": 297.49991075,
            "velocity": 0.4881889763779528
          },
          {
            "duration": 1.4285710000000336,
            "durationTicks": 480,
            "midi": 71,
            "name": "B4",
            "ticks": 100200,
            "time": 298.21419625,
            "velocity": 0.6456692913385826
          },
          {
            "duration": 0.7142854999999599,
            "durationTicks": 240,
            "midi": 69,
            "name": "A4",
            "ticks": 100680,
            "time": 299.64276725,
            "velocity": 0.4881889763779528
          },
          {
            "duration": 0.7142855000000168,
            "durationTicks": 240,
            "midi": 67,
            "name": "G4",
            "ticks": 100920,
            "time": 300.35705275,
            "velocity": 0.4881889763779528
          },
          {
            "duration": 0.6785712249999847,
            "durationTicks": 228,
            "midi": 66,
            "name": "F#4",
            "ticks": 101160,
            "time": 301.07133825,
            "velocity": 0.4881889763779528
          },
          {
            "duration": 0.7142855000000168,
            "durationTicks": 240,
            "midi": 67,
            "name": "G4",
            "ticks": 101400,
            "time": 301.78562375,
            "velocity": 0.4881889763779528
          },
          {
            "duration": 0.7142854999999599,
            "durationTicks": 240,
            "midi": 64,
            "name": "E4",
            "ticks": 101640,
            "time": 302.49990925000003,
            "velocity": 0.4881889763779528
          },
          {
            "duration": 0.7142855000000168,
            "durationTicks": 240,
            "midi": 67,
            "name": "G4",
            "ticks": 101880,
            "time": 303.21419475,
            "velocity": 0.4881889763779528
          },
          {
            "duration": 0.7142855000000168,
            "durationTicks": 240,
            "midi": 64,
            "name": "E4",
            "ticks": 102120,
            "time": 303.92848025,
            "velocity": 0.4881889763779528
          },
          {
            "duration": 0.7142854999999599,
            "durationTicks": 240,
            "midi": 67,
            "name": "G4",
            "ticks": 102360,
            "time": 304.64276575,
            "velocity": 0.4881889763779528
          },
          {
            "duration": 0.6785712250000415,
            "durationTicks": 228,
            "midi": 64,
            "name": "E4",
            "ticks": 102600,
            "time": 305.35705125,
            "velocity": 0.4881889763779528
          },
          {
            "duration": 0.4642855749999626,
            "durationTicks": 156,
            "midi": 64,
            "name": "E4",
            "ticks": 102840,
            "time": 306.07133675,
            "velocity": 0.4881889763779528
          },
          {
            "duration": 1.4285709999999767,
            "durationTicks": 480,
            "midi": 73,
            "name": "C#5",
            "ticks": 103080,
            "time": 306.78562225,
            "velocity": 0.6456692913385826
          },
          {
            "duration": 0.7142855000000168,
            "durationTicks": 240,
            "midi": 71,
            "name": "B4",
            "ticks": 103560,
            "time": 308.21419325,
            "velocity": 0.4881889763779528
          },
          {
            "duration": 0.7142855000000168,
            "durationTicks": 240,
            "midi": 69,
            "name": "A4",
            "ticks": 103800,
            "time": 308.92847875,
            "velocity": 0.4881889763779528
          },
          {
            "duration": 0.6785712249999847,
            "durationTicks": 228,
            "midi": 68,
            "name": "G#4",
            "ticks": 104040,
            "time": 309.64276425,
            "velocity": 0.4881889763779528
          },
          {
            "duration": 0.7142855000000168,
            "durationTicks": 240,
            "midi": 69,
            "name": "A4",
            "ticks": 104280,
            "time": 310.35704975,
            "velocity": 0.4881889763779528
          },
          {
            "duration": 0.7142855000000168,
            "durationTicks": 240,
            "midi": 61,
            "name": "C#4",
            "ticks": 104520,
            "time": 311.07133525,
            "velocity": 0.4881889763779528
          },
          {
            "duration": 0.7142854999999599,
            "durationTicks": 240,
            "midi": 59,
            "name": "B3",
            "ticks": 104760,
            "time": 311.78562075,
            "velocity": 0.4881889763779528
          },
          {
            "duration": 0.7142855000000168,
            "durationTicks": 240,
            "midi": 64,
            "name": "E4",
            "ticks": 105000,
            "time": 312.49990625,
            "velocity": 0.4881889763779528
          },
          {
            "duration": 0.7142855000000168,
            "durationTicks": 240,
            "midi": 61,
            "name": "C#4",
            "ticks": 105240,
            "time": 313.21419175,
            "velocity": 0.4881889763779528
          },
          {
            "duration": 0.6785712249999847,
            "durationTicks": 228,
            "midi": 67,
            "name": "G4",
            "ticks": 105480,
            "time": 313.92847725,
            "velocity": 0.4881889763779528
          },
          {
            "duration": 0.7142854999999599,
            "durationTicks": 240,
            "midi": 66,
            "name": "F#4",
            "ticks": 105720,
            "time": 314.64276275000003,
            "velocity": 0.4881889763779528
          },
          {
            "duration": 0.7142855000000168,
            "durationTicks": 240,
            "midi": 62,
            "name": "D4",
            "ticks": 105960,
            "time": 315.35704825,
            "velocity": 0.4881889763779528
          },
          {
            "duration": 0.7142855000000168,
            "durationTicks": 240,
            "midi": 64,
            "name": "E4",
            "ticks": 106200,
            "time": 316.07133375,
            "velocity": 0.4881889763779528
          },
          {
            "duration": 0.7142854999999599,
            "durationTicks": 240,
            "midi": 69,
            "name": "A4",
            "ticks": 106440,
            "time": 316.78561925,
            "velocity": 0.4881889763779528
          },
          {
            "duration": 0.7142855000000168,
            "durationTicks": 240,
            "midi": 62,
            "name": "D4",
            "ticks": 106680,
            "time": 317.49990475,
            "velocity": 0.4881889763779528
          },
          {
            "duration": 0.6785712249999847,
            "durationTicks": 228,
            "midi": 69,
            "name": "A4",
            "ticks": 106920,
            "time": 318.21419025,
            "velocity": 0.4881889763779528
          },
          {
            "duration": 0.7142855000000168,
            "durationTicks": 240,
            "midi": 64,
            "name": "E4",
            "ticks": 107160,
            "time": 318.92847575,
            "velocity": 0.4881889763779528
          },
          {
            "duration": 0.7142854999999599,
            "durationTicks": 240,
            "midi": 67,
            "name": "G4",
            "ticks": 107400,
            "time": 319.64276125000004,
            "velocity": 0.4881889763779528
          },
          {
            "duration": 0.7142855000000168,
            "durationTicks": 240,
            "midi": 66,
            "name": "F#4",
            "ticks": 107640,
            "time": 320.35704675,
            "velocity": 0.4881889763779528
          },
          {
            "duration": 0.7142855000000168,
            "durationTicks": 240,
            "midi": 69,
            "name": "A4",
            "ticks": 107880,
            "time": 321.07133225,
            "velocity": 0.4881889763779528
          },
          {
            "duration": 0.7142854999999599,
            "durationTicks": 240,
            "midi": 61,
            "name": "C#4",
            "ticks": 108120,
            "time": 321.78561775000003,
            "velocity": 0.4881889763779528
          },
          {
            "duration": 0.6785712249999847,
            "durationTicks": 228,
            "midi": 64,
            "name": "E4",
            "ticks": 108360,
            "time": 322.49990325,
            "velocity": 0.4881889763779528
          },
          {
            "duration": 1.1428568000000041,
            "durationTicks": 384,
            "midi": 62,
            "name": "D4",
            "ticks": 108600,
            "time": 323.21418875,
            "velocity": 0.4881889763779528
          },
          {
            "duration": 2.1428564999999935,
            "durationTicks": 720,
            "midi": 78,
            "name": "F#5",
            "ticks": 110040,
            "time": 327.49990175,
            "velocity": 0.8267716535433071
          },
          {
            "duration": 0.7142855000000168,
            "durationTicks": 240,
            "midi": 76,
            "name": "E5",
            "ticks": 110760,
            "time": 329.64275825,
            "velocity": 0.8267716535433071
          },
          {
            "duration": 0.7142855000000168,
            "durationTicks": 240,
            "midi": 74,
            "name": "D5",
            "ticks": 111000,
            "time": 330.35704375,
            "velocity": 0.8267716535433071
          },
          {
            "duration": 0.6785712249999847,
            "durationTicks": 228,
            "midi": 73,
            "name": "C#5",
            "ticks": 111240,
            "time": 331.07132925,
            "velocity": 0.8267716535433071
          },
          {
            "duration": 1.1428568000000041,
            "durationTicks": 384,
            "midi": 71,
            "name": "B4",
            "ticks": 111480,
            "time": 331.78561475000004,
            "velocity": 0.8267716535433071
          },
          {
            "duration": 2.1428564999999935,
            "durationTicks": 720,
            "midi": 79,
            "name": "G5",
            "ticks": 112920,
            "time": 336.07132775,
            "velocity": 0.8267716535433071
          },
          {
            "duration": 0.7142855000000168,
            "durationTicks": 240,
            "midi": 78,
            "name": "F#5",
            "ticks": 113640,
            "time": 338.21418425,
            "velocity": 0.8267716535433071
          },
          {
            "duration": 0.7142854999999599,
            "durationTicks": 240,
            "midi": 76,
            "name": "E5",
            "ticks": 113880,
            "time": 338.92846975000003,
            "velocity": 0.8267716535433071
          },
          {
            "duration": 0.6785712249999847,
            "durationTicks": 228,
            "midi": 74,
            "name": "D5",
            "ticks": 114120,
            "time": 339.64275525,
            "velocity": 0.8267716535433071
          },
          {
            "duration": 1.1428568000000041,
            "durationTicks": 384,
            "midi": 73,
            "name": "C#5",
            "ticks": 114360,
            "time": 340.35704075,
            "velocity": 0.8267716535433071
          },
          {
            "duration": 2.1428564999999935,
            "durationTicks": 720,
            "midi": 81,
            "name": "A5",
            "ticks": 115800,
            "time": 344.64275375,
            "velocity": 0.9212598425196851
          },
          {
            "duration": 0.7142855000000168,
            "durationTicks": 240,
            "midi": 79,
            "name": "G5",
            "ticks": 116520,
            "time": 346.78561025,
            "velocity": 0.9212598425196851
          },
          {
            "duration": 0.7142855000000168,
            "durationTicks": 240,
            "midi": 78,
            "name": "F#5",
            "ticks": 116760,
            "time": 347.49989575,
            "velocity": 0.9212598425196851
          },
          {
            "duration": 0.5714284000000021,
            "durationTicks": 192,
            "midi": 76,
            "name": "E5",
            "ticks": 117000,
            "time": 348.21418125,
            "velocity": 0.9212598425196851
          },
          {
            "duration": 1.0714282499999968,
            "durationTicks": 360,
            "midi": 74,
            "name": "D5",
            "ticks": 117240,
            "time": 348.92846675,
            "velocity": 0.9212598425196851
          },
          {
            "duration": 0.28571420000002945,
            "durationTicks": 96,
            "midi": 79,
            "name": "G5",
            "ticks": 117600,
            "time": 349.999895,
            "velocity": 0.9212598425196851
          },
          {
            "duration": 2.1428564999999935,
            "durationTicks": 720,
            "midi": 79,
            "name": "G5",
            "ticks": 117720,
            "time": 350.35703775,
            "velocity": 0.9212598425196851
          },
          {
            "duration": 0.5714284000000021,
            "durationTicks": 192,
            "midi": 78,
            "name": "F#5",
            "ticks": 118440,
            "time": 352.49989425,
            "velocity": 0.9212598425196851
          },
          {
            "duration": 0.35714274999997997,
            "durationTicks": 120,
            "midi": 76,
            "name": "E5",
            "ticks": 118680,
            "time": 353.21417975,
            "velocity": 0.9212598425196851
          },
          {
            "duration": 0.35714274999997997,
            "durationTicks": 120,
            "midi": 83,
            "name": "B5",
            "ticks": 118800,
            "time": 353.5713225,
            "velocity": 0.9212598425196851
          },
          {
            "duration": 0.3571427500000368,
            "durationTicks": 120,
            "midi": 79,
            "name": "G5",
            "ticks": 118920,
            "time": 353.92846525,
            "velocity": 0.9212598425196851
          },
          {
            "duration": 0.33928561250002076,
            "durationTicks": 114,
            "midi": 76,
            "name": "E5",
            "ticks": 119040,
            "time": 354.285608,
            "velocity": 0.9212598425196851
          },
          {
            "duration": 1.3571424499999694,
            "durationTicks": 456,
            "midi": 74,
            "name": "D5",
            "ticks": 119160,
            "time": 354.64275075,
            "velocity": 0.9212598425196851
          },
          {
            "duration": 0.3571427500000368,
            "durationTicks": 120,
            "midi": 78,
            "name": "F#5",
            "ticks": 119640,
            "time": 356.07132175,
            "velocity": 0.9212598425196851
          },
          {
            "duration": 0.7142855000000168,
            "durationTicks": 240,
            "midi": 76,
            "name": "E5",
            "ticks": 119760,
            "time": 356.4284645,
            "velocity": 0.9212598425196851
          },
          {
            "duration": 0.2857141999999726,
            "durationTicks": 96,
            "midi": 74,
            "name": "D5",
            "ticks": 120000,
            "time": 357.14275000000004,
            "velocity": 0.9212598425196851
          },
          {
            "duration": 0.5714284000000021,
            "durationTicks": 192,
            "midi": 74,
            "name": "D5",
            "ticks": 120120,
            "time": 357.49989275,
            "velocity": 0.9212598425196851
          },
          {
            "duration": 0.5714284000000021,
            "durationTicks": 192,
            "midi": 69,
            "name": "A4",
            "ticks": 120360,
            "time": 358.21417825000003,
            "velocity": 0.4881889763779528
          },
          {
            "duration": 0.5714284000000021,
            "durationTicks": 192,
            "midi": 69,
            "name": "A4",
            "ticks": 120600,
            "time": 358.92846375,
            "velocity": 0.4881889763779528
          },
          {
            "duration": 0.5714284000000021,
            "durationTicks": 192,
            "midi": 69,
            "name": "A4",
            "ticks": 120840,
            "time": 359.64274925,
            "velocity": 0.4881889763779528
          },
          {
            "duration": 0.5714284000000021,
            "durationTicks": 192,
            "midi": 69,
            "name": "A4",
            "ticks": 121080,
            "time": 360.35703475,
            "velocity": 0.4881889763779528
          },
          {
            "duration": 0.5714284000000589,
            "durationTicks": 192,
            "midi": 69,
            "name": "A4",
            "ticks": 121320,
            "time": 361.07132025,
            "velocity": 0.4881889763779528
          },
          {
            "duration": 0.5714284000000021,
            "durationTicks": 192,
            "midi": 69,
            "name": "A4",
            "ticks": 121800,
            "time": 362.49989125,
            "velocity": 0.4881889763779528
          },
          {
            "duration": 0.5714284000000021,
            "durationTicks": 192,
            "midi": 69,
            "name": "A4",
            "ticks": 122040,
            "time": 363.21417675000004,
            "velocity": 0.4881889763779528
          },
          {
            "duration": 0.5714284000000021,
            "durationTicks": 192,
            "midi": 69,
            "name": "A4",
            "ticks": 122280,
            "time": 363.92846225,
            "velocity": 0.4881889763779528
          },
          {
            "duration": 0.5714284000000021,
            "durationTicks": 192,
            "midi": 69,
            "name": "A4",
            "ticks": 122520,
            "time": 364.64274775,
            "velocity": 0.4881889763779528
          },
          {
            "duration": 0.5714283999999452,
            "durationTicks": 192,
            "midi": 69,
            "name": "A4",
            "ticks": 122760,
            "time": 365.35703325000003,
            "velocity": 0.4881889763779528
          },
          {
            "duration": 0.5714283999999452,
            "durationTicks": 192,
            "midi": 69,
            "name": "A4",
            "ticks": 123240,
            "time": 366.78560425,
            "velocity": 0.4881889763779528
          },
          {
            "duration": 0.5714283999999452,
            "durationTicks": 192,
            "midi": 69,
            "name": "A4",
            "ticks": 123480,
            "time": 367.49988975,
            "velocity": 0.4881889763779528
          },
          {
            "duration": 0.5714284000000021,
            "durationTicks": 192,
            "midi": 69,
            "name": "A4",
            "ticks": 123720,
            "time": 368.21417525,
            "velocity": 0.4881889763779528
          },
          {
            "duration": 0.5714284000000021,
            "durationTicks": 192,
            "midi": 69,
            "name": "A4",
            "ticks": 123960,
            "time": 368.92846075,
            "velocity": 0.4881889763779528
          },
          {
            "duration": 0.5714283999999452,
            "durationTicks": 192,
            "midi": 69,
            "name": "A4",
            "ticks": 124200,
            "time": 369.64274625,
            "velocity": 0.4881889763779528
          },
          {
            "duration": 0.5714284000000021,
            "durationTicks": 192,
            "midi": 67,
            "name": "G4",
            "ticks": 124680,
            "time": 371.07131725,
            "velocity": 0.4881889763779528
          },
          {
            "duration": 0.5714283999999452,
            "durationTicks": 192,
            "midi": 66,
            "name": "F#4",
            "ticks": 124920,
            "time": 371.78560275,
            "velocity": 0.4881889763779528
          },
          {
            "duration": 0.5714283999999452,
            "durationTicks": 192,
            "midi": 66,
            "name": "F#4",
            "ticks": 125160,
            "time": 372.49988825,
            "velocity": 0.4881889763779528
          },
          {
            "duration": 0.5714284000000021,
            "durationTicks": 192,
            "midi": 61,
            "name": "C#4",
            "ticks": 125400,
            "time": 373.21417375,
            "velocity": 0.4881889763779528
          },
          {
            "duration": 0.5714284000000021,
            "durationTicks": 192,
            "midi": 61,
            "name": "C#4",
            "ticks": 125640,
            "time": 373.92845925,
            "velocity": 0.4881889763779528
          },
          {
            "duration": 0.5714283999999452,
            "durationTicks": 192,
            "midi": 62,
            "name": "D4",
            "ticks": 125880,
            "time": 374.64274475,
            "velocity": 0.4881889763779528
          },
          {
            "duration": 0.5714283999999452,
            "durationTicks": 192,
            "midi": 62,
            "name": "D4",
            "ticks": 126120,
            "time": 375.35703025000004,
            "velocity": 0.4881889763779528
          },
          {
            "duration": 0.5714284000000021,
            "durationTicks": 192,
            "midi": 62,
            "name": "D4",
            "ticks": 126360,
            "time": 376.07131575,
            "velocity": 0.4881889763779528
          },
          {
            "duration": 0.5714283999999452,
            "durationTicks": 192,
            "midi": 62,
            "name": "D4",
            "ticks": 126600,
            "time": 376.78560125,
            "velocity": 0.4881889763779528
          },
          {
            "duration": 0.5714283999999452,
            "durationTicks": 192,
            "midi": 62,
            "name": "D4",
            "ticks": 126840,
            "time": 377.49988675000003,
            "velocity": 0.4881889763779528
          },
          {
            "duration": 0.5714284000000021,
            "durationTicks": 192,
            "midi": 62,
            "name": "D4",
            "ticks": 127080,
            "time": 378.21417225,
            "velocity": 0.4881889763779528
          },
          {
            "duration": 0.5714283999999452,
            "durationTicks": 192,
            "midi": 64,
            "name": "E4",
            "ticks": 127560,
            "time": 379.64274325,
            "velocity": 0.4881889763779528
          },
          {
            "duration": 0.5714284000000021,
            "durationTicks": 192,
            "midi": 64,
            "name": "E4",
            "ticks": 127800,
            "time": 380.35702875,
            "velocity": 0.4881889763779528
          },
          {
            "duration": 0.5714284000000021,
            "durationTicks": 192,
            "midi": 64,
            "name": "E4",
            "ticks": 128040,
            "time": 381.07131425,
            "velocity": 0.4881889763779528
          },
          {
            "duration": 0.5714283999999452,
            "durationTicks": 192,
            "midi": 62,
            "name": "D4",
            "ticks": 128280,
            "time": 381.78559975,
            "velocity": 0.4881889763779528
          },
          {
            "duration": 0.5714283999999452,
            "durationTicks": 192,
            "midi": 62,
            "name": "D4",
            "ticks": 128520,
            "time": 382.49988525000003,
            "velocity": 0.4881889763779528
          },
          {
            "duration": 0.5714283999999452,
            "durationTicks": 192,
            "midi": 79,
            "name": "G5",
            "ticks": 129000,
            "time": 383.92845625,
            "velocity": 0.4881889763779528
          },
          {
            "duration": 0.5714283999999452,
            "durationTicks": 192,
            "midi": 79,
            "name": "G5",
            "ticks": 129240,
            "time": 384.64274175,
            "velocity": 0.4881889763779528
          },
          {
            "duration": 0.5714284000000021,
            "durationTicks": 192,
            "midi": 79,
            "name": "G5",
            "ticks": 129480,
            "time": 385.35702725,
            "velocity": 0.4881889763779528
          },
          {
            "duration": 0.5714283999999452,
            "durationTicks": 192,
            "midi": 78,
            "name": "F#5",
            "ticks": 129720,
            "time": 386.07131275,
            "velocity": 0.4881889763779528
          },
          {
            "duration": 0.5714283999999452,
            "durationTicks": 192,
            "midi": 78,
            "name": "F#5",
            "ticks": 129960,
            "time": 386.78559825,
            "velocity": 0.4881889763779528
          },
          {
            "duration": 1.1428568000000041,
            "durationTicks": 384,
            "midi": 76,
            "name": "E5",
            "ticks": 130200,
            "time": 387.49988375000004,
            "velocity": 0.4881889763779528
          },
          {
            "duration": 0.7142854999999599,
            "durationTicks": 240,
            "midi": 67,
            "name": "G4",
            "ticks": 130920,
            "time": 389.64274025000003,
            "velocity": 0.4881889763779528
          },
          {
            "duration": 0.7142855000000168,
            "durationTicks": 240,
            "midi": 69,
            "name": "A4",
            "ticks": 131160,
            "time": 390.35702575,
            "velocity": 0.4881889763779528
          },
          {
            "duration": 0.7142855000000168,
            "durationTicks": 240,
            "midi": 71,
            "name": "B4",
            "ticks": 131400,
            "time": 391.07131125,
            "velocity": 0.4881889763779528
          },
          {
            "duration": 0.5714284000000021,
            "durationTicks": 192,
            "midi": 66,
            "name": "F#4",
            "ticks": 131880,
            "time": 392.49988225,
            "velocity": 0.4881889763779528
          },
          {
            "duration": 0.5714284000000021,
            "durationTicks": 192,
            "midi": 66,
            "name": "F#4",
            "ticks": 132120,
            "time": 393.21416775,
            "velocity": 0.4881889763779528
          },
          {
            "duration": 0.5714283999999452,
            "durationTicks": 192,
            "midi": 66,
            "name": "F#4",
            "ticks": 132360,
            "time": 393.92845325,
            "velocity": 0.4881889763779528
          },
          {
            "duration": 0.5714283999999452,
            "durationTicks": 192,
            "midi": 66,
            "name": "F#4",
            "ticks": 132600,
            "time": 394.64273875000003,
            "velocity": 0.4881889763779528
          },
          {
            "duration": 0.5714284000000021,
            "durationTicks": 192,
            "midi": 66,
            "name": "F#4",
            "ticks": 132840,
            "time": 395.35702425,
            "velocity": 0.4881889763779528
          },
          {
            "duration": 0.2857141999999726,
            "durationTicks": 96,
            "midi": 64,
            "name": "E4",
            "ticks": 133080,
            "time": 396.07130975,
            "velocity": 0.4881889763779528
          },
          {
            "duration": 0.28571420000002945,
            "durationTicks": 96,
            "midi": 64,
            "name": "E4",
            "ticks": 133200,
            "time": 396.4284525,
            "velocity": 0.4881889763779528
          },
          {
            "duration": 0.2857141999999726,
            "durationTicks": 96,
            "midi": 64,
            "name": "E4",
            "ticks": 133320,
            "time": 396.78559525000003,
            "velocity": 0.4881889763779528
          },
          {
            "duration": 0.2857141999999726,
            "durationTicks": 96,
            "midi": 64,
            "name": "E4",
            "ticks": 133440,
            "time": 397.142738,
            "velocity": 0.4881889763779528
          },
          {
            "duration": 0.28571420000002945,
            "durationTicks": 96,
            "midi": 64,
            "name": "E4",
            "ticks": 133560,
            "time": 397.49988075,
            "velocity": 0.4881889763779528
          },
          {
            "duration": 0.2857141999999726,
            "durationTicks": 96,
            "midi": 64,
            "name": "E4",
            "ticks": 133680,
            "time": 397.8570235,
            "velocity": 0.4881889763779528
          },
          {
            "duration": 0.2857141999999726,
            "durationTicks": 96,
            "midi": 64,
            "name": "E4",
            "ticks": 133800,
            "time": 398.21416625,
            "velocity": 0.4881889763779528
          },
          {
            "duration": 0.28571420000002945,
            "durationTicks": 96,
            "midi": 64,
            "name": "E4",
            "ticks": 133920,
            "time": 398.571309,
            "velocity": 0.4881889763779528
          },
          {
            "duration": 0.2857141999999726,
            "durationTicks": 96,
            "midi": 64,
            "name": "E4",
            "ticks": 134040,
            "time": 398.92845175,
            "velocity": 0.4881889763779528
          },
          {
            "duration": 0.2857141999999726,
            "durationTicks": 96,
            "midi": 64,
            "name": "E4",
            "ticks": 134160,
            "time": 399.2855945,
            "velocity": 0.4881889763779528
          },
          {
            "duration": 0.28571420000002945,
            "durationTicks": 96,
            "midi": 64,
            "name": "E4",
            "ticks": 134280,
            "time": 399.64273725,
            "velocity": 0.4881889763779528
          },
          {
            "duration": 0.2857141999999726,
            "durationTicks": 96,
            "midi": 64,
            "name": "E4",
            "ticks": 134400,
            "time": 399.99988,
            "velocity": 0.4881889763779528
          },
          {
            "duration": 1.1428568000000041,
            "durationTicks": 384,
            "midi": 62,
            "name": "D4",
            "ticks": 134520,
            "time": 400.35702275,
            "velocity": 0.4881889763779528
          },
          {
            "duration": 1.0714282499999968,
            "durationTicks": 360,
            "midi": 59,
            "name": "B3",
            "ticks": 135480,
            "time": 403.21416475,
            "velocity": 0.4881889763779528
          },
          {
            "duration": 0.33928561250002076,
            "durationTicks": 114,
            "midi": 67,
            "name": "G4",
            "ticks": 135840,
            "time": 404.285593,
            "velocity": 0.4881889763779528
          },
          {
            "duration": 2.7142848999999956,
            "durationTicks": 912,
            "midi": 66,
            "name": "F#4",
            "ticks": 135960,
            "time": 404.64273575,
            "velocity": 0.4881889763779528
          },
          {
            "duration": 1.0714282499999968,
            "durationTicks": 360,
            "midi": 65,
            "name": "F4",
            "ticks": 136920,
            "time": 407.49987775,
            "velocity": 0.4881889763779528
          },
          {
            "duration": 0.33928561250002076,
            "durationTicks": 114,
            "midi": 64,
            "name": "E4",
            "ticks": 137280,
            "time": 408.571306,
            "velocity": 0.4881889763779528
          },
          {
            "duration": 1.3571424499999694,
            "durationTicks": 456,
            "midi": 62,
            "name": "D4",
            "ticks": 137400,
            "time": 408.92844875000003,
            "velocity": 0.4881889763779528
          },
          {
            "duration": 0.5714284000000021,
            "durationTicks": 192,
            "midi": 83,
            "name": "B5",
            "ticks": 138360,
            "time": 411.78559075,
            "velocity": 0.4881889763779528
          },
          {
            "duration": 0.5714283999999452,
            "durationTicks": 192,
            "midi": 81,
            "name": "A5",
            "ticks": 138840,
            "time": 413.21416175,
            "velocity": 0.4881889763779528
          },
          {
            "duration": 0.5714284000000021,
            "durationTicks": 192,
            "midi": 78,
            "name": "F#5",
            "ticks": 139320,
            "time": 414.64273275,
            "velocity": 0.4881889763779528
          },
          {
            "duration": 0.5714283999999452,
            "durationTicks": 192,
            "midi": 76,
            "name": "E5",
            "ticks": 139800,
            "time": 416.07130375,
            "velocity": 0.4881889763779528
          },
          {
            "duration": 0.6785712250000415,
            "durationTicks": 228,
            "midi": 74,
            "name": "D5",
            "ticks": 140280,
            "time": 417.49987475,
            "velocity": 0.4881889763779528
          },
          {
            "duration": 0.6785712249999847,
            "durationTicks": 228,
            "midi": 62,
            "name": "D4",
            "ticks": 140760,
            "time": 418.92844575000004,
            "velocity": 0.4881889763779528
          },
          {
            "duration": 0.6785712250000415,
            "durationTicks": 228,
            "midi": 62,
            "name": "D4",
            "ticks": 141240,
            "time": 420.35701675,
            "velocity": 0.4881889763779528
          },
          {
            "duration": 1.142856800000061,
            "durationTicks": 384,
            "midi": 62,
            "name": "D4",
            "ticks": 141720,
            "time": 421.78558775,
            "velocity": 0.4881889763779528
          }
        ]
      },
      {
        "channel": 0,
        "controlChanges": {},
        "pitchBends": [],
        "instrument": {
          "family": "piano",
          "number": 0,
          "name": "acoustic grand piano"
        },
        "name": "k622_2",
        "notes": [],
        "endOfTrackTicks": 144600
      },
      {
        "channel": 5,
        "controlChanges": {
          "7": [
            {
              "number": 7,
              "ticks": 0,
              "time": 0,
              "value": 0.968503937007874
            }
          ],
          "10": [
            {
              "number": 10,
              "ticks": 0,
              "time": 0,
              "value": 0.31496062992125984
            }
          ],
          "91": [
            {
              "number": 91,
              "ticks": 0,
              "time": 0,
              "value": 0.5905511811023622
            }
          ]
        },
        "pitchBends": [],
        "instrument": {
          "family": "ensemble",
          "number": 48,
          "name": "string ensemble 1"
        },
        "name": "",
        "notes": [
          {
            "duration": 0.7142855,
            "durationTicks": 240,
            "midi": 62,
            "name": "D4",
            "ticks": 0,
            "time": 0,
            "velocity": 0.4881889763779528
          },
          {
            "duration": 0.7142855,
            "durationTicks": 240,
            "midi": 57,
            "name": "A3",
            "ticks": 240,
            "time": 0.7142855,
            "velocity": 0.4881889763779528
          },
          {
            "duration": 0.7142855000000001,
            "durationTicks": 240,
            "midi": 62,
            "name": "D4",
            "ticks": 480,
            "time": 1.428571,
            "velocity": 0.4881889763779528
          },
          {
            "duration": 0.7142854999999999,
            "durationTicks": 240,
            "midi": 57,
            "name": "A3",
            "ticks": 720,
            "time": 2.1428565,
            "velocity": 0.4881889763779528
          },
          {
            "duration": 0.7142854999999999,
            "durationTicks": 240,
            "midi": 62,
            "name": "D4",
            "ticks": 960,
            "time": 2.857142,
            "velocity": 0.4881889763779528
          },
          {
            "duration": 0.6785712250000002,
            "durationTicks": 228,
            "midi": 57,
            "name": "A3",
            "ticks": 1200,
            "time": 3.5714275,
            "velocity": 0.4881889763779528
          },
          {
            "duration": 0.7142854999999999,
            "durationTicks": 240,
            "midi": 61,
            "name": "C#4",
            "ticks": 1440,
            "time": 4.285713,
            "velocity": 0.4881889763779528
          },
          {
            "duration": 0.7142854999999999,
            "durationTicks": 240,
            "midi": 57,
            "name": "A3",
            "ticks": 1680,
            "time": 4.9999985,
            "velocity": 0.4881889763779528
          },
          {
            "duration": 0.7142854999999999,
            "durationTicks": 240,
            "midi": 62,
            "name": "D4",
            "ticks": 1920,
            "time": 5.714284,
            "velocity": 0.4881889763779528
          },
          {
            "duration": 0.7142854999999999,
            "durationTicks": 240,
            "midi": 57,
            "name": "A3",
            "ticks": 2160,
            "time": 6.4285695,
            "velocity": 0.4881889763779528
          },
          {
            "duration": 0.7142854999999999,
            "durationTicks": 240,
            "midi": 62,
            "name": "D4",
            "ticks": 2400,
            "time": 7.142855,
            "velocity": 0.4881889763779528
          },
          {
            "duration": 0.6785712250000007,
            "durationTicks": 228,
            "midi": 57,
            "name": "A3",
            "ticks": 2640,
            "time": 7.8571405,
            "velocity": 0.4881889763779528
          },
          {
            "duration": 0.714285499999999,
            "durationTicks": 240,
            "midi": 62,
            "name": "D4",
            "ticks": 2880,
            "time": 8.571426,
            "velocity": 0.4881889763779528
          },
          {
            "duration": 0.7142855000000008,
            "durationTicks": 240,
            "midi": 57,
            "name": "A3",
            "ticks": 3120,
            "time": 9.2857115,
            "velocity": 0.4881889763779528
          },
          {
            "duration": 0.714285499999999,
            "durationTicks": 240,
            "midi": 62,
            "name": "D4",
            "ticks": 3360,
            "time": 9.999997,
            "velocity": 0.4881889763779528
          },
          {
            "duration": 0.7142855000000008,
            "durationTicks": 240,
            "midi": 57,
            "name": "A3",
            "ticks": 3600,
            "time": 10.7142825,
            "velocity": 0.4881889763779528
          },
          {
            "duration": 0.7142855000000008,
            "durationTicks": 240,
            "midi": 62,
            "name": "D4",
            "ticks": 3840,
            "time": 11.428568,
            "velocity": 0.4881889763779528
          },
          {
            "duration": 0.6785712249999989,
            "durationTicks": 228,
            "midi": 57,
            "name": "A3",
            "ticks": 4080,
            "time": 12.142853500000001,
            "velocity": 0.4881889763779528
          },
          {
            "duration": 0.7142855000000008,
            "durationTicks": 240,
            "midi": 61,
            "name": "C#4",
            "ticks": 4320,
            "time": 12.857139,
            "velocity": 0.4881889763779528
          },
          {
            "duration": 0.714285499999999,
            "durationTicks": 240,
            "midi": 57,
            "name": "A3",
            "ticks": 4560,
            "time": 13.571424500000001,
            "velocity": 0.4881889763779528
          },
          {
            "duration": 0.7142855000000008,
            "durationTicks": 240,
            "midi": 62,
            "name": "D4",
            "ticks": 4800,
            "time": 14.28571,
            "velocity": 0.4881889763779528
          },
          {
            "duration": 0.714285499999999,
            "durationTicks": 240,
            "midi": 57,
            "name": "A3",
            "ticks": 5040,
            "time": 14.9999955,
            "velocity": 0.4881889763779528
          },
          {
            "duration": 0.714285499999999,
            "durationTicks": 240,
            "midi": 62,
            "name": "D4",
            "ticks": 5280,
            "time": 15.714281,
            "velocity": 0.4881889763779528
          },
          {
            "duration": 0.6785712250000024,
            "durationTicks": 228,
            "midi": 57,
            "name": "A3",
            "ticks": 5520,
            "time": 16.4285665,
            "velocity": 0.4881889763779528
          },
          {
            "duration": 0.714285499999999,
            "durationTicks": 240,
            "midi": 61,
            "name": "C#4",
            "ticks": 5760,
            "time": 17.142852,
            "velocity": 0.4881889763779528
          },
          {
            "duration": 0.714285499999999,
            "durationTicks": 240,
            "midi": 57,
            "name": "A3",
            "ticks": 6000,
            "time": 17.8571375,
            "velocity": 0.4881889763779528
          },
          {
            "duration": 0.7142855000000026,
            "durationTicks": 240,
            "midi": 61,
            "name": "C#4",
            "ticks": 6240,
            "time": 18.571423,
            "velocity": 0.4881889763779528
          },
          {
            "duration": 0.714285499999999,
            "durationTicks": 240,
            "midi": 57,
            "name": "A3",
            "ticks": 6480,
            "time": 19.285708500000002,
            "velocity": 0.4881889763779528
          },
          {
            "duration": 0.714285499999999,
            "durationTicks": 240,
            "midi": 62,
            "name": "D4",
            "ticks": 6720,
            "time": 19.999994,
            "velocity": 0.4881889763779528
          },
          {
            "duration": 0.6785712249999989,
            "durationTicks": 228,
            "midi": 57,
            "name": "A3",
            "ticks": 6960,
            "time": 20.7142795,
            "velocity": 0.4881889763779528
          },
          {
            "duration": 0.7142855000000026,
            "durationTicks": 240,
            "midi": 61,
            "name": "C#4",
            "ticks": 7200,
            "time": 21.428565,
            "velocity": 0.4881889763779528
          },
          {
            "duration": 0.714285499999999,
            "durationTicks": 240,
            "midi": 57,
            "name": "A3",
            "ticks": 7440,
            "time": 22.1428505,
            "velocity": 0.4881889763779528
          },
          {
            "duration": 0.714285499999999,
            "durationTicks": 240,
            "midi": 61,
            "name": "C#4",
            "ticks": 7680,
            "time": 22.857136,
            "velocity": 0.4881889763779528
          },
          {
            "duration": 0.7142855000000026,
            "durationTicks": 240,
            "midi": 57,
            "name": "A3",
            "ticks": 7920,
            "time": 23.5714215,
            "velocity": 0.4881889763779528
          },
          {
            "duration": 0.714285499999999,
            "durationTicks": 240,
            "midi": 59,
            "name": "B3",
            "ticks": 8160,
            "time": 24.285707000000002,
            "velocity": 0.4881889763779528
          },
          {
            "duration": 0.6785712250000024,
            "durationTicks": 228,
            "midi": 62,
            "name": "D4",
            "ticks": 8400,
            "time": 24.9999925,
            "velocity": 0.4881889763779528
          },
          {
            "duration": 0.714285499999999,
            "durationTicks": 240,
            "midi": 57,
            "name": "A3",
            "ticks": 8640,
            "time": 25.714278,
            "velocity": 0.4881889763779528
          },
          {
            "duration": 0.7142855000000026,
            "durationTicks": 240,
            "midi": 61,
            "name": "C#4",
            "ticks": 8880,
            "time": 26.4285635,
            "velocity": 0.4881889763779528
          },
          {
            "duration": 0.714285499999999,
            "durationTicks": 240,
            "midi": 57,
            "name": "A3",
            "ticks": 9120,
            "time": 27.142849000000002,
            "velocity": 0.4881889763779528
          },
          {
            "duration": 0.714285499999999,
            "durationTicks": 240,
            "midi": 61,
            "name": "C#4",
            "ticks": 9360,
            "time": 27.8571345,
            "velocity": 0.4881889763779528
          },
          {
            "duration": 0.7142855000000026,
            "durationTicks": 240,
            "midi": 56,
            "name": "G#3",
            "ticks": 9600,
            "time": 28.57142,
            "velocity": 0.4881889763779528
          },
          {
            "duration": 0.7023807416666656,
            "durationTicks": 236,
            "midi": 59,
            "name": "B3",
            "ticks": 9840,
            "time": 29.285705500000002,
            "velocity": 0.4881889763779528
          },
          {
            "duration": 0.4642855749999981,
            "durationTicks": 156,
            "midi": 57,
            "name": "A3",
            "ticks": 10080,
            "time": 29.999991,
            "velocity": 0.4881889763779528
          },
          {
            "duration": 0.714285499999999,
            "durationTicks": 240,
            "midi": 71,
            "name": "B4",
            "ticks": 10320,
            "time": 30.7142765,
            "velocity": 0.6456692913385826
          },
          {
            "duration": 0.7142855000000026,
            "durationTicks": 240,
            "midi": 69,
            "name": "A4",
            "ticks": 10560,
            "time": 31.428562,
            "velocity": 0.6456692913385826
          },
          {
            "duration": 0.7142854999999955,
            "durationTicks": 240,
            "midi": 67,
            "name": "G4",
            "ticks": 10800,
            "time": 32.1428475,
            "velocity": 0.6456692913385826
          },
          {
            "duration": 0.7142855000000026,
            "durationTicks": 240,
            "midi": 66,
            "name": "F#4",
            "ticks": 11040,
            "time": 32.857133,
            "velocity": 0.6456692913385826
          },
          {
            "duration": 0.7142855000000026,
            "durationTicks": 240,
            "midi": 64,
            "name": "E4",
            "ticks": 11280,
            "time": 33.5714185,
            "velocity": 0.6456692913385826
          },
          {
            "duration": 0.7142854999999955,
            "durationTicks": 240,
            "midi": 66,
            "name": "F#4",
            "ticks": 11520,
            "time": 34.285704,
            "velocity": 0.7086614173228346
          },
          {
            "duration": 0.7142855000000026,
            "durationTicks": 240,
            "midi": 69,
            "name": "A4",
            "ticks": 11760,
            "time": 34.9999895,
            "velocity": 0.7086614173228346
          },
          {
            "duration": 0.7142855000000026,
            "durationTicks": 240,
            "midi": 66,
            "name": "F#4",
            "ticks": 12000,
            "time": 35.714275,
            "velocity": 0.7086614173228346
          },
          {
            "duration": 0.7142854999999955,
            "durationTicks": 240,
            "midi": 69,
            "name": "A4",
            "ticks": 12240,
            "time": 36.4285605,
            "velocity": 0.7086614173228346
          },
          {
            "duration": 0.7142855000000026,
            "durationTicks": 240,
            "midi": 66,
            "name": "F#4",
            "ticks": 12480,
            "time": 37.142846,
            "velocity": 0.7086614173228346
          },
          {
            "duration": 0.6785712249999989,
            "durationTicks": 228,
            "midi": 69,
            "name": "A4",
            "ticks": 12720,
            "time": 37.8571315,
            "velocity": 0.7086614173228346
          },
          {
            "duration": 0.7142854999999955,
            "durationTicks": 240,
            "midi": 67,
            "name": "G4",
            "ticks": 12960,
            "time": 38.571417000000004,
            "velocity": 0.7086614173228346
          },
          {
            "duration": 0.7142855000000026,
            "durationTicks": 240,
            "midi": 69,
            "name": "A4",
            "ticks": 13200,
            "time": 39.2857025,
            "velocity": 0.7086614173228346
          },
          {
            "duration": 0.7142855000000026,
            "durationTicks": 240,
            "midi": 66,
            "name": "F#4",
            "ticks": 13440,
            "time": 39.999988,
            "velocity": 0.7086614173228346
          },
          {
            "duration": 0.7142854999999955,
            "durationTicks": 240,
            "midi": 69,
            "name": "A4",
            "ticks": 13680,
            "time": 40.714273500000004,
            "velocity": 0.7086614173228346
          },
          {
            "duration": 0.7142855000000026,
            "durationTicks": 240,
            "midi": 66,
            "name": "F#4",
            "ticks": 13920,
            "time": 41.428559,
            "velocity": 0.7086614173228346
          },
          {
            "duration": 0.6785712249999989,
            "durationTicks": 228,
            "midi": 69,
            "name": "A4",
            "ticks": 14160,
            "time": 42.1428445,
            "velocity": 0.7086614173228346
          },
          {
            "duration": 0.7142855000000026,
            "durationTicks": 240,
            "midi": 66,
            "name": "F#4",
            "ticks": 14400,
            "time": 42.85713,
            "velocity": 0.7086614173228346
          },
          {
            "duration": 0.7142855000000026,
            "durationTicks": 240,
            "midi": 69,
            "name": "A4",
            "ticks": 14640,
            "time": 43.5714155,
            "velocity": 0.7086614173228346
          },
          {
            "duration": 0.7142854999999955,
            "durationTicks": 240,
            "midi": 66,
            "name": "F#4",
            "ticks": 14880,
            "time": 44.285701,
            "velocity": 0.7086614173228346
          },
          {
            "duration": 0.7142855000000026,
            "durationTicks": 240,
            "midi": 69,
            "name": "A4",
            "ticks": 15120,
            "time": 44.9999865,
            "velocity": 0.7086614173228346
          },
          {
            "duration": 0.7142855000000026,
            "durationTicks": 240,
            "midi": 66,
            "name": "F#4",
            "ticks": 15360,
            "time": 45.714272,
            "velocity": 0.7086614173228346
          },
          {
            "duration": 0.6785712249999989,
            "durationTicks": 228,
            "midi": 69,
            "name": "A4",
            "ticks": 15600,
            "time": 46.428557500000004,
            "velocity": 0.7086614173228346
          },
          {
            "duration": 0.7142855000000026,
            "durationTicks": 240,
            "midi": 64,
            "name": "E4",
            "ticks": 15840,
            "time": 47.142843,
            "velocity": 0.7086614173228346
          },
          {
            "duration": 0.7142855000000026,
            "durationTicks": 240,
            "midi": 69,
            "name": "A4",
            "ticks": 16080,
            "time": 47.8571285,
            "velocity": 0.7086614173228346
          },
          {
            "duration": 0.7142854999999955,
            "durationTicks": 240,
            "midi": 66,
            "name": "F#4",
            "ticks": 16320,
            "time": 48.571414000000004,
            "velocity": 0.7086614173228346
          },
          {
            "duration": 0.7142855000000026,
            "durationTicks": 240,
            "midi": 69,
            "name": "A4",
            "ticks": 16560,
            "time": 49.2856995,
            "velocity": 0.7086614173228346
          },
          {
            "duration": 0.7142854999999955,
            "durationTicks": 240,
            "midi": 66,
            "name": "F#4",
            "ticks": 16800,
            "time": 49.999985,
            "velocity": 0.7086614173228346
          },
          {
            "duration": 0.678571225000006,
            "durationTicks": 228,
            "midi": 69,
            "name": "A4",
            "ticks": 17040,
            "time": 50.7142705,
            "velocity": 0.7086614173228346
          },
          {
            "duration": 0.7142855000000026,
            "durationTicks": 240,
            "midi": 64,
            "name": "E4",
            "ticks": 17280,
            "time": 51.428556,
            "velocity": 0.7086614173228346
          },
          {
            "duration": 0.7142854999999955,
            "durationTicks": 240,
            "midi": 69,
            "name": "A4",
            "ticks": 17520,
            "time": 52.1428415,
            "velocity": 0.7086614173228346
          },
          {
            "duration": 0.7142855000000026,
            "durationTicks": 240,
            "midi": 64,
            "name": "E4",
            "ticks": 17760,
            "time": 52.857127,
            "velocity": 0.7086614173228346
          },
          {
            "duration": 0.7142855000000026,
            "durationTicks": 240,
            "midi": 69,
            "name": "A4",
            "ticks": 18000,
            "time": 53.5714125,
            "velocity": 0.7086614173228346
          },
          {
            "duration": 0.7142854999999955,
            "durationTicks": 240,
            "midi": 66,
            "name": "F#4",
            "ticks": 18240,
            "time": 54.285698000000004,
            "velocity": 0.7086614173228346
          },
          {
            "duration": 0.678571225000006,
            "durationTicks": 228,
            "midi": 69,
            "name": "A4",
            "ticks": 18480,
            "time": 54.9999835,
            "velocity": 0.7086614173228346
          },
          {
            "duration": 0.7142855000000026,
            "durationTicks": 240,
            "midi": 64,
            "name": "E4",
            "ticks": 18720,
            "time": 55.714269,
            "velocity": 0.7086614173228346
          },
          {
            "duration": 0.7142854999999955,
            "durationTicks": 240,
            "midi": 69,
            "name": "A4",
            "ticks": 18960,
            "time": 56.428554500000004,
            "velocity": 0.7086614173228346
          },
          {
            "duration": 0.7142855000000026,
            "durationTicks": 240,
            "midi": 64,
            "name": "E4",
            "ticks": 19200,
            "time": 57.14284,
            "velocity": 0.7086614173228346
          },
          {
            "duration": 0.7142855000000026,
            "durationTicks": 240,
            "midi": 69,
            "name": "A4",
            "ticks": 19440,
            "time": 57.8571255,
            "velocity": 0.7086614173228346
          },
          {
            "duration": 0.7142854999999955,
            "durationTicks": 240,
            "midi": 62,
            "name": "D4",
            "ticks": 19680,
            "time": 58.571411000000005,
            "velocity": 0.7086614173228346
          },
          {
            "duration": 0.678571225000006,
            "durationTicks": 228,
            "midi": 66,
            "name": "F#4",
            "ticks": 19920,
            "time": 59.2856965,
            "velocity": 0.7086614173228346
          },
          {
            "duration": 0.7142854999999955,
            "durationTicks": 240,
            "midi": 61,
            "name": "C#4",
            "ticks": 20160,
            "time": 59.999982,
            "velocity": 0.7086614173228346
          },
          {
            "duration": 0.7142855000000026,
            "durationTicks": 240,
            "midi": 64,
            "name": "E4",
            "ticks": 20400,
            "time": 60.7142675,
            "velocity": 0.7086614173228346
          },
          {
            "duration": 0.7142855000000026,
            "durationTicks": 240,
            "midi": 61,
            "name": "C#4",
            "ticks": 20640,
            "time": 61.428553,
            "velocity": 0.7086614173228346
          },
          {
            "duration": 0.7142854999999955,
            "durationTicks": 240,
            "midi": 64,
            "name": "E4",
            "ticks": 20880,
            "time": 62.1428385,
            "velocity": 0.7086614173228346
          },
          {
            "duration": 0.7142855000000026,
            "durationTicks": 240,
            "midi": 62,
            "name": "D4",
            "ticks": 21120,
            "time": 62.857124,
            "velocity": 0.7086614173228346
          },
          {
            "duration": 0.6785712249999989,
            "durationTicks": 228,
            "midi": 64,
            "name": "E4",
            "ticks": 21360,
            "time": 63.5714095,
            "velocity": 0.7086614173228346
          },
          {
            "duration": 0.4642855750000052,
            "durationTicks": 156,
            "midi": 61,
            "name": "C#4",
            "ticks": 21600,
            "time": 64.285695,
            "velocity": 0.7086614173228346
          },
          {
            "duration": 0.7142854999999884,
            "durationTicks": 240,
            "midi": 67,
            "name": "G4",
            "ticks": 21840,
            "time": 64.9999805,
            "velocity": 0.4881889763779528
          },
          {
            "duration": 0.7142855000000026,
            "durationTicks": 240,
            "midi": 66,
            "name": "F#4",
            "ticks": 22080,
            "time": 65.714266,
            "velocity": 0.4881889763779528
          },
          {
            "duration": 0.7142855000000026,
            "durationTicks": 240,
            "midi": 64,
            "name": "E4",
            "ticks": 22320,
            "time": 66.4285515,
            "velocity": 0.4881889763779528
          },
          {
            "duration": 0.7142855000000026,
            "durationTicks": 240,
            "midi": 62,
            "name": "D4",
            "ticks": 22560,
            "time": 67.142837,
            "velocity": 0.4881889763779528
          },
          {
            "duration": 0.7142855000000026,
            "durationTicks": 240,
            "midi": 61,
            "name": "C#4",
            "ticks": 22800,
            "time": 67.8571225,
            "velocity": 0.4881889763779528
          },
          {
            "duration": 0.7142855000000026,
            "durationTicks": 240,
            "midi": 62,
            "name": "D4",
            "ticks": 23040,
            "time": 68.571408,
            "velocity": 0.4881889763779528
          },
          {
            "duration": 0.7142854999999884,
            "durationTicks": 240,
            "midi": 57,
            "name": "A3",
            "ticks": 23280,
            "time": 69.28569350000001,
            "velocity": 0.4881889763779528
          },
          {
            "duration": 0.7142855000000026,
            "durationTicks": 240,
            "midi": 62,
            "name": "D4",
            "ticks": 23520,
            "time": 69.999979,
            "velocity": 0.4881889763779528
          },
          {
            "duration": 0.7142855000000026,
            "durationTicks": 240,
            "midi": 57,
            "name": "A3",
            "ticks": 23760,
            "time": 70.7142645,
            "velocity": 0.4881889763779528
          },
          {
            "duration": 0.7142855000000026,
            "durationTicks": 240,
            "midi": 62,
            "name": "D4",
            "ticks": 24000,
            "time": 71.42855,
            "velocity": 0.4881889763779528
          },
          {
            "duration": 0.6785712249999989,
            "durationTicks": 228,
            "midi": 57,
            "name": "A3",
            "ticks": 24240,
            "time": 72.1428355,
            "velocity": 0.4881889763779528
          },
          {
            "duration": 0.4642855750000052,
            "durationTicks": 156,
            "midi": 59,
            "name": "B3",
            "ticks": 24480,
            "time": 72.857121,
            "velocity": 0.4881889763779528
          },
          {
            "duration": 1.4285710000000051,
            "durationTicks": 480,
            "midi": 67,
            "name": "G4",
            "ticks": 24720,
            "time": 73.5714065,
            "velocity": 0.4881889763779528
          },
          {
            "duration": 0.7142855000000026,
            "durationTicks": 240,
            "midi": 66,
            "name": "F#4",
            "ticks": 25200,
            "time": 74.9999775,
            "velocity": 0.4881889763779528
          },
          {
            "duration": 0.7142855000000026,
            "durationTicks": 240,
            "midi": 64,
            "name": "E4",
            "ticks": 25440,
            "time": 75.714263,
            "velocity": 0.4881889763779528
          },
          {
            "duration": 0.6785712249999989,
            "durationTicks": 228,
            "midi": 63,
            "name": "D#4",
            "ticks": 25680,
            "time": 76.4285485,
            "velocity": 0.4881889763779528
          },
          {
            "duration": 0.7142854999999884,
            "durationTicks": 240,
            "midi": 64,
            "name": "E4",
            "ticks": 25920,
            "time": 77.14283400000001,
            "velocity": 0.4881889763779528
          },
          {
            "duration": 0.7142855000000026,
            "durationTicks": 240,
            "midi": 59,
            "name": "B3",
            "ticks": 26160,
            "time": 77.8571195,
            "velocity": 0.4881889763779528
          },
          {
            "duration": 0.7142855000000026,
            "durationTicks": 240,
            "midi": 64,
            "name": "E4",
            "ticks": 26400,
            "time": 78.571405,
            "velocity": 0.4881889763779528
          },
          {
            "duration": 0.7142855000000026,
            "durationTicks": 240,
            "midi": 59,
            "name": "B3",
            "ticks": 26640,
            "time": 79.2856905,
            "velocity": 0.4881889763779528
          },
          {
            "duration": 0.7142855000000026,
            "durationTicks": 240,
            "midi": 64,
            "name": "E4",
            "ticks": 26880,
            "time": 79.999976,
            "velocity": 0.4881889763779528
          },
          {
            "duration": 0.6785712249999989,
            "durationTicks": 228,
            "midi": 59,
            "name": "B3",
            "ticks": 27120,
            "time": 80.7142615,
            "velocity": 0.4881889763779528
          },
          {
            "duration": 0.464285574999991,
            "durationTicks": 156,
            "midi": 61,
            "name": "C#4",
            "ticks": 27360,
            "time": 81.42854700000001,
            "velocity": 0.4881889763779528
          },
          {
            "duration": 1.4285710000000051,
            "durationTicks": 480,
            "midi": 69,
            "name": "A4",
            "ticks": 27600,
            "time": 82.1428325,
            "velocity": 0.4881889763779528
          },
          {
            "duration": 0.7142855000000026,
            "durationTicks": 240,
            "midi": 68,
            "name": "G#4",
            "ticks": 28080,
            "time": 83.5714035,
            "velocity": 0.4881889763779528
          },
          {
            "duration": 0.7142855000000026,
            "durationTicks": 240,
            "midi": 66,
            "name": "F#4",
            "ticks": 28320,
            "time": 84.285689,
            "velocity": 0.4881889763779528
          },
          {
            "duration": 0.6785712249999989,
            "durationTicks": 228,
            "midi": 65,
            "name": "F4",
            "ticks": 28560,
            "time": 84.99997450000001,
            "velocity": 0.4881889763779528
          },
          {
            "duration": 0.7142855000000026,
            "durationTicks": 240,
            "midi": 66,
            "name": "F#4",
            "ticks": 28800,
            "time": 85.71426,
            "velocity": 0.4881889763779528
          },
          {
            "duration": 0.6785712249999989,
            "durationTicks": 228,
            "midi": 57,
            "name": "A3",
            "ticks": 29040,
            "time": 86.4285455,
            "velocity": 0.4881889763779528
          },
          {
            "duration": 1.357142450000012,
            "durationTicks": 456,
            "midi": 59,
            "name": "B3",
            "ticks": 29280,
            "time": 87.142831,
            "velocity": 0.4881889763779528
          },
          {
            "duration": 0.7142855000000026,
            "durationTicks": 240,
            "midi": 57,
            "name": "A3",
            "ticks": 29760,
            "time": 88.571402,
            "velocity": 0.4881889763779528
          },
          {
            "duration": 0.6785712249999989,
            "durationTicks": 228,
            "midi": 61,
            "name": "C#4",
            "ticks": 30000,
            "time": 89.28568750000001,
            "velocity": 0.4881889763779528
          },
          {
            "duration": 0.7142855000000026,
            "durationTicks": 240,
            "midi": 62,
            "name": "D4",
            "ticks": 30240,
            "time": 89.999973,
            "velocity": 0.4881889763779528
          },
          {
            "duration": 0.7142855000000026,
            "durationTicks": 240,
            "midi": 59,
            "name": "B3",
            "ticks": 30480,
            "time": 90.7142585,
            "velocity": 0.4881889763779528
          },
          {
            "duration": 0.7142855000000026,
            "durationTicks": 240,
            "midi": 57,
            "name": "A3",
            "ticks": 30720,
            "time": 91.428544,
            "velocity": 0.4881889763779528
          },
          {
            "duration": 0.7142855000000026,
            "durationTicks": 240,
            "midi": 64,
            "name": "E4",
            "ticks": 30960,
            "time": 92.1428295,
            "velocity": 0.4881889763779528
          },
          {
            "duration": 0.7142854999999884,
            "durationTicks": 240,
            "midi": 57,
            "name": "A3",
            "ticks": 31200,
            "time": 92.85711500000001,
            "velocity": 0.4881889763779528
          },
          {
            "duration": 0.6785712249999989,
            "durationTicks": 228,
            "midi": 62,
            "name": "D4",
            "ticks": 31440,
            "time": 93.5714005,
            "velocity": 0.4881889763779528
          },
          {
            "duration": 0.7142855000000026,
            "durationTicks": 240,
            "midi": 59,
            "name": "B3",
            "ticks": 31680,
            "time": 94.285686,
            "velocity": 0.4881889763779528
          },
          {
            "duration": 0.7142855000000026,
            "durationTicks": 240,
            "midi": 64,
            "name": "E4",
            "ticks": 31920,
            "time": 94.9999715,
            "velocity": 0.4881889763779528
          },
          {
            "duration": 0.7142855000000026,
            "durationTicks": 240,
            "midi": 62,
            "name": "D4",
            "ticks": 32160,
            "time": 95.714257,
            "velocity": 0.4881889763779528
          },
          {
            "duration": 0.7142855000000026,
            "durationTicks": 240,
            "midi": 66,
            "name": "F#4",
            "ticks": 32400,
            "time": 96.4285425,
            "velocity": 0.4881889763779528
          },
          {
            "duration": 0.7142854999999884,
            "durationTicks": 240,
            "midi": 57,
            "name": "A3",
            "ticks": 32640,
            "time": 97.14282800000001,
            "velocity": 0.4881889763779528
          },
          {
            "duration": 0.6785712249999989,
            "durationTicks": 228,
            "midi": 61,
            "name": "C#4",
            "ticks": 32880,
            "time": 97.8571135,
            "velocity": 0.4881889763779528
          },
          {
            "duration": 0.4642855750000052,
            "durationTicks": 156,
            "midi": 62,
            "name": "D4",
            "ticks": 33120,
            "time": 98.571399,
            "velocity": 0.4881889763779528
          },
          {
            "duration": 0.7142855000000026,
            "durationTicks": 240,
            "midi": 71,
            "name": "B4",
            "ticks": 33360,
            "time": 99.2856845,
            "velocity": 0.6456692913385826
          },
          {
            "duration": 0.7142855000000026,
            "durationTicks": 240,
            "midi": 69,
            "name": "A4",
            "ticks": 33600,
            "time": 99.99997,
            "velocity": 0.6456692913385826
          },
          {
            "duration": 0.7142854999999884,
            "durationTicks": 240,
            "midi": 67,
            "name": "G4",
            "ticks": 33840,
            "time": 100.71425550000001,
            "velocity": 0.6456692913385826
          },
          {
            "duration": 0.7142855000000026,
            "durationTicks": 240,
            "midi": 66,
            "name": "F#4",
            "ticks": 34080,
            "time": 101.428541,
            "velocity": 0.6456692913385826
          },
          {
            "duration": 0.5714284000000163,
            "durationTicks": 192,
            "midi": 64,
            "name": "E4",
            "ticks": 34320,
            "time": 102.1428265,
            "velocity": 0.6456692913385826
          },
          {
            "duration": 0.7142855000000026,
            "durationTicks": 240,
            "midi": 66,
            "name": "F#4",
            "ticks": 34560,
            "time": 102.857112,
            "velocity": 0.7086614173228346
          },
          {
            "duration": 0.7142855000000026,
            "durationTicks": 240,
            "midi": 62,
            "name": "D4",
            "ticks": 34800,
            "time": 103.5713975,
            "velocity": 0.7086614173228346
          },
          {
            "duration": 0.7142855000000026,
            "durationTicks": 240,
            "midi": 66,
            "name": "F#4",
            "ticks": 35040,
            "time": 104.285683,
            "velocity": 0.7086614173228346
          },
          {
            "duration": 0.7142854999999884,
            "durationTicks": 240,
            "midi": 64,
            "name": "E4",
            "ticks": 35280,
            "time": 104.99996850000001,
            "velocity": 0.7086614173228346
          },
          {
            "duration": 0.7142855000000026,
            "durationTicks": 240,
            "midi": 62,
            "name": "D4",
            "ticks": 35520,
            "time": 105.714254,
            "velocity": 0.7086614173228346
          },
          {
            "duration": 0.7142855000000026,
            "durationTicks": 240,
            "midi": 61,
            "name": "C#4",
            "ticks": 35760,
            "time": 106.4285395,
            "velocity": 0.7086614173228346
          },
          {
            "duration": 0.5714284000000021,
            "durationTicks": 192,
            "midi": 59,
            "name": "B3",
            "ticks": 36000,
            "time": 107.142825,
            "velocity": 0.7086614173228346
          },
          {
            "duration": 1.4285710000000051,
            "durationTicks": 480,
            "midi": 71,
            "name": "B4",
            "ticks": 36240,
            "time": 107.8571105,
            "velocity": 0.8661417322834646
          },
          {
            "duration": 0.7142854999999884,
            "durationTicks": 240,
            "midi": 69,
            "name": "A4",
            "ticks": 36720,
            "time": 109.28568150000001,
            "velocity": 0.7086614173228346
          },
          {
            "duration": 0.7142855000000026,
            "durationTicks": 240,
            "midi": 67,
            "name": "G4",
            "ticks": 36960,
            "time": 109.999967,
            "velocity": 0.7086614173228346
          },
          {
            "duration": 0.5714284000000163,
            "durationTicks": 192,
            "midi": 66,
            "name": "F#4",
            "ticks": 37200,
            "time": 110.7142525,
            "velocity": 0.7086614173228346
          },
          {
            "duration": 0.7142855000000026,
            "durationTicks": 240,
            "midi": 67,
            "name": "G4",
            "ticks": 37440,
            "time": 111.428538,
            "velocity": 0.7086614173228346
          },
          {
            "duration": 0.7142855000000026,
            "durationTicks": 240,
            "midi": 64,
            "name": "E4",
            "ticks": 37680,
            "time": 112.1428235,
            "velocity": 0.7086614173228346
          },
          {
            "duration": 0.7142854999999884,
            "durationTicks": 240,
            "midi": 67,
            "name": "G4",
            "ticks": 37920,
            "time": 112.85710900000001,
            "velocity": 0.7086614173228346
          },
          {
            "duration": 0.7142855000000026,
            "durationTicks": 240,
            "midi": 66,
            "name": "F#4",
            "ticks": 38160,
            "time": 113.5713945,
            "velocity": 0.7086614173228346
          },
          {
            "duration": 0.7142855000000026,
            "durationTicks": 240,
            "midi": 64,
            "name": "E4",
            "ticks": 38400,
            "time": 114.28568,
            "velocity": 0.7086614173228346
          },
          {
            "duration": 0.7142855000000026,
            "durationTicks": 240,
            "midi": 62,
            "name": "D4",
            "ticks": 38640,
            "time": 114.9999655,
            "velocity": 0.7086614173228346
          },
          {
            "duration": 0.5714284000000021,
            "durationTicks": 192,
            "midi": 61,
            "name": "C#4",
            "ticks": 38880,
            "time": 115.714251,
            "velocity": 0.7086614173228346
          },
          {
            "duration": 1.428570999999991,
            "durationTicks": 480,
            "midi": 73,
            "name": "C#5",
            "ticks": 39120,
            "time": 116.4285365,
            "velocity": 0.8661417322834646
          },
          {
            "duration": 0.7142855000000026,
            "durationTicks": 240,
            "midi": 71,
            "name": "B4",
            "ticks": 39600,
            "time": 117.8571075,
            "velocity": 0.7086614173228346
          },
          {
            "duration": 0.7142855000000026,
            "durationTicks": 240,
            "midi": 69,
            "name": "A4",
            "ticks": 39840,
            "time": 118.571393,
            "velocity": 0.7086614173228346
          },
          {
            "duration": 0.5714284000000021,
            "durationTicks": 192,
            "midi": 68,
            "name": "G#4",
            "ticks": 40080,
            "time": 119.2856785,
            "velocity": 0.7086614173228346
          },
          {
            "duration": 0.7142855000000026,
            "durationTicks": 240,
            "midi": 69,
            "name": "A4",
            "ticks": 40320,
            "time": 119.999964,
            "velocity": 0.7086614173228346
          },
          {
            "duration": 0.7142854999999884,
            "durationTicks": 240,
            "midi": 61,
            "name": "C#4",
            "ticks": 40560,
            "time": 120.71424950000001,
            "velocity": 0.7086614173228346
          },
          {
            "duration": 0.7142855000000026,
            "durationTicks": 240,
            "midi": 69,
            "name": "A4",
            "ticks": 40800,
            "time": 121.428535,
            "velocity": 0.7086614173228346
          },
          {
            "duration": 0.7142855000000026,
            "durationTicks": 240,
            "midi": 67,
            "name": "G4",
            "ticks": 41040,
            "time": 122.1428205,
            "velocity": 0.7086614173228346
          },
          {
            "duration": 0.7142855000000026,
            "durationTicks": 240,
            "midi": 66,
            "name": "F#4",
            "ticks": 41280,
            "time": 122.857106,
            "velocity": 0.7086614173228346
          },
          {
            "duration": 0.5714284000000021,
            "durationTicks": 192,
            "midi": 64,
            "name": "E4",
            "ticks": 41520,
            "time": 123.5713915,
            "velocity": 0.7086614173228346
          },
          {
            "duration": 0.7142855000000026,
            "durationTicks": 240,
            "midi": 62,
            "name": "D4",
            "ticks": 41760,
            "time": 124.285677,
            "velocity": 0.7086614173228346
          },
          {
            "duration": 0.7142854999999884,
            "durationTicks": 240,
            "midi": 59,
            "name": "B3",
            "ticks": 42000,
            "time": 124.99996250000001,
            "velocity": 0.7086614173228346
          },
          {
            "duration": 0.7142855000000026,
            "durationTicks": 240,
            "midi": 64,
            "name": "E4",
            "ticks": 42240,
            "time": 125.714248,
            "velocity": 0.7086614173228346
          },
          {
            "duration": 0.7142855000000026,
            "durationTicks": 240,
            "midi": 69,
            "name": "A4",
            "ticks": 42480,
            "time": 126.4285335,
            "velocity": 0.7086614173228346
          },
          {
            "duration": 0.7142855000000026,
            "durationTicks": 240,
            "midi": 62,
            "name": "D4",
            "ticks": 42720,
            "time": 127.142819,
            "velocity": 0.7086614173228346
          },
          {
            "duration": 0.5714284000000163,
            "durationTicks": 192,
            "midi": 69,
            "name": "A4",
            "ticks": 42960,
            "time": 127.8571045,
            "velocity": 0.7086614173228346
          },
          {
            "duration": 0.7142854999999884,
            "durationTicks": 240,
            "midi": 71,
            "name": "B4",
            "ticks": 43200,
            "time": 128.57139,
            "velocity": 0.7086614173228346
          },
          {
            "duration": 0.7142855000000168,
            "durationTicks": 240,
            "midi": 67,
            "name": "G4",
            "ticks": 43440,
            "time": 129.2856755,
            "velocity": 0.7086614173228346
          },
          {
            "duration": 0.7142854999999884,
            "durationTicks": 240,
            "midi": 66,
            "name": "F#4",
            "ticks": 43680,
            "time": 129.999961,
            "velocity": 0.7086614173228346
          },
          {
            "duration": 0.7142854999999884,
            "durationTicks": 240,
            "midi": 69,
            "name": "A4",
            "ticks": 43920,
            "time": 130.7142465,
            "velocity": 0.7086614173228346
          },
          {
            "duration": 0.7142855000000168,
            "durationTicks": 240,
            "midi": 67,
            "name": "G4",
            "ticks": 44160,
            "time": 131.428532,
            "velocity": 0.7086614173228346
          },
          {
            "duration": 0.5714284000000021,
            "durationTicks": 192,
            "midi": 69,
            "name": "A4",
            "ticks": 44400,
            "time": 132.1428175,
            "velocity": 0.7086614173228346
          },
          {
            "duration": 0.5714284000000305,
            "durationTicks": 192,
            "midi": 66,
            "name": "F#4",
            "ticks": 44640,
            "time": 132.857103,
            "velocity": 0.7086614173228346
          },
          {
            "duration": 0.7142854999999884,
            "durationTicks": 240,
            "midi": 67,
            "name": "G4",
            "ticks": 44880,
            "time": 133.5713885,
            "velocity": 0.4881889763779528
          },
          {
            "duration": 0.7142855000000168,
            "durationTicks": 240,
            "midi": 66,
            "name": "F#4",
            "ticks": 45120,
            "time": 134.285674,
            "velocity": 0.4881889763779528
          },
          {
            "duration": 0.7142854999999884,
            "durationTicks": 240,
            "midi": 64,
            "name": "E4",
            "ticks": 45360,
            "time": 134.99995950000002,
            "velocity": 0.4881889763779528
          },
          {
            "duration": 0.7142854999999884,
            "durationTicks": 240,
            "midi": 62,
            "name": "D4",
            "ticks": 45600,
            "time": 135.714245,
            "velocity": 0.4881889763779528
          },
          {
            "duration": 0.7142855000000168,
            "durationTicks": 240,
            "midi": 61,
            "name": "C#4",
            "ticks": 45840,
            "time": 136.4285305,
            "velocity": 0.4881889763779528
          },
          {
            "duration": 0.5714284000000021,
            "durationTicks": 192,
            "midi": 62,
            "name": "D4",
            "ticks": 46320,
            "time": 137.8571015,
            "velocity": 0.4881889763779528
          },
          {
            "duration": 0.5714284000000021,
            "durationTicks": 192,
            "midi": 62,
            "name": "D4",
            "ticks": 46560,
            "time": 138.57138700000002,
            "velocity": 0.4881889763779528
          },
          {
            "duration": 0.5714284000000021,
            "durationTicks": 192,
            "midi": 62,
            "name": "D4",
            "ticks": 46800,
            "time": 139.2856725,
            "velocity": 0.4881889763779528
          },
          {
            "duration": 0.5714284000000305,
            "durationTicks": 192,
            "midi": 62,
            "name": "D4",
            "ticks": 47040,
            "time": 139.999958,
            "velocity": 0.4881889763779528
          },
          {
            "duration": 0.5714284000000021,
            "durationTicks": 192,
            "midi": 62,
            "name": "D4",
            "ticks": 47280,
            "time": 140.7142435,
            "velocity": 0.4881889763779528
          },
          {
            "duration": 0.5714284000000021,
            "durationTicks": 192,
            "midi": 61,
            "name": "C#4",
            "ticks": 47760,
            "time": 142.14281450000001,
            "velocity": 0.4881889763779528
          },
          {
            "duration": 0.5714284000000021,
            "durationTicks": 192,
            "midi": 61,
            "name": "C#4",
            "ticks": 48000,
            "time": 142.8571,
            "velocity": 0.4881889763779528
          },
          {
            "duration": 0.5714284000000305,
            "durationTicks": 192,
            "midi": 61,
            "name": "C#4",
            "ticks": 48240,
            "time": 143.5713855,
            "velocity": 0.4881889763779528
          },
          {
            "duration": 0.5714284000000021,
            "durationTicks": 192,
            "midi": 61,
            "name": "C#4",
            "ticks": 48480,
            "time": 144.285671,
            "velocity": 0.4881889763779528
          },
          {
            "duration": 0.5714284000000021,
            "durationTicks": 192,
            "midi": 61,
            "name": "C#4",
            "ticks": 48720,
            "time": 144.9999565,
            "velocity": 0.4881889763779528
          },
          {
            "duration": 1.3571424499999978,
            "durationTicks": 456,
            "midi": 59,
            "name": "B3",
            "ticks": 49200,
            "time": 146.4285275,
            "velocity": 0.4881889763779528
          },
          {
            "duration": 0.7142854999999884,
            "durationTicks": 240,
            "midi": 62,
            "name": "D4",
            "ticks": 49680,
            "time": 147.8570985,
            "velocity": 0.4881889763779528
          },
          {
            "duration": 0.7142855000000168,
            "durationTicks": 240,
            "midi": 61,
            "name": "C#4",
            "ticks": 49920,
            "time": 148.571384,
            "velocity": 0.4881889763779528
          },
          {
            "duration": 0.5714284000000021,
            "durationTicks": 192,
            "midi": 59,
            "name": "B3",
            "ticks": 50160,
            "time": 149.2856695,
            "velocity": 0.4881889763779528
          },
          {
            "duration": 1.4285710000000051,
            "durationTicks": 480,
            "midi": 56,
            "name": "G#3",
            "ticks": 50400,
            "time": 149.999955,
            "velocity": 0.4881889763779528
          },
          {
            "duration": 1.1428568000000041,
            "durationTicks": 384,
            "midi": 57,
            "name": "A3",
            "ticks": 50880,
            "time": 151.428526,
            "velocity": 0.4881889763779528
          },
          {
            "duration": 0.42857129999998733,
            "durationTicks": 144,
            "midi": 64,
            "name": "E4",
            "ticks": 52080,
            "time": 154.9999535,
            "velocity": 0.4881889763779528
          },
          {
            "duration": 0.42857130000001575,
            "durationTicks": 144,
            "midi": 61,
            "name": "C#4",
            "ticks": 52320,
            "time": 155.714239,
            "velocity": 0.4881889763779528
          },
          {
            "duration": 0.42857129999998733,
            "durationTicks": 144,
            "midi": 64,
            "name": "E4",
            "ticks": 52560,
            "time": 156.4285245,
            "velocity": 0.4881889763779528
          },
          {
            "duration": 0.42857130000001575,
            "durationTicks": 144,
            "midi": 61,
            "name": "C#4",
            "ticks": 52800,
            "time": 157.14281,
            "velocity": 0.4881889763779528
          },
          {
            "duration": 0.42857129999998733,
            "durationTicks": 144,
            "midi": 64,
            "name": "E4",
            "ticks": 53040,
            "time": 157.8570955,
            "velocity": 0.4881889763779528
          },
          {
            "duration": 0.42857130000001575,
            "durationTicks": 144,
            "midi": 62,
            "name": "D4",
            "ticks": 53520,
            "time": 159.2856665,
            "velocity": 0.4881889763779528
          },
          {
            "duration": 0.42857129999998733,
            "durationTicks": 144,
            "midi": 59,
            "name": "B3",
            "ticks": 53760,
            "time": 159.999952,
            "velocity": 0.4881889763779528
          },
          {
            "duration": 0.42857130000001575,
            "durationTicks": 144,
            "midi": 62,
            "name": "D4",
            "ticks": 54000,
            "time": 160.7142375,
            "velocity": 0.4881889763779528
          },
          {
            "duration": 0.42857129999998733,
            "durationTicks": 144,
            "midi": 59,
            "name": "B3",
            "ticks": 54240,
            "time": 161.428523,
            "velocity": 0.4881889763779528
          },
          {
            "duration": 0.42857129999998733,
            "durationTicks": 144,
            "midi": 62,
            "name": "D4",
            "ticks": 54480,
            "time": 162.1428085,
            "velocity": 0.4881889763779528
          },
          {
            "duration": 0.42857129999998733,
            "durationTicks": 144,
            "midi": 57,
            "name": "A3",
            "ticks": 54960,
            "time": 163.5713795,
            "velocity": 0.4881889763779528
          },
          {
            "duration": 0.42857130000001575,
            "durationTicks": 144,
            "midi": 61,
            "name": "C#4",
            "ticks": 55200,
            "time": 164.285665,
            "velocity": 0.4881889763779528
          },
          {
            "duration": 0.42857129999998733,
            "durationTicks": 144,
            "midi": 57,
            "name": "A3",
            "ticks": 55440,
            "time": 164.9999505,
            "velocity": 0.4881889763779528
          },
          {
            "duration": 0.42857129999998733,
            "durationTicks": 144,
            "midi": 61,
            "name": "C#4",
            "ticks": 55680,
            "time": 165.714236,
            "velocity": 0.4881889763779528
          },
          {
            "duration": 0.42857129999998733,
            "durationTicks": 144,
            "midi": 57,
            "name": "A3",
            "ticks": 55920,
            "time": 166.42852150000002,
            "velocity": 0.4881889763779528
          },
          {
            "duration": 0.42857130000001575,
            "durationTicks": 144,
            "midi": 66,
            "name": "F#4",
            "ticks": 56400,
            "time": 167.8570925,
            "velocity": 0.4881889763779528
          },
          {
            "duration": 0.42857129999998733,
            "durationTicks": 144,
            "midi": 62,
            "name": "D4",
            "ticks": 56640,
            "time": 168.571378,
            "velocity": 0.4881889763779528
          },
          {
            "duration": 0.42857130000001575,
            "durationTicks": 144,
            "midi": 66,
            "name": "F#4",
            "ticks": 56880,
            "time": 169.2856635,
            "velocity": 0.4881889763779528
          },
          {
            "duration": 0.42857129999998733,
            "durationTicks": 144,
            "midi": 62,
            "name": "D4",
            "ticks": 57120,
            "time": 169.99994900000002,
            "velocity": 0.4881889763779528
          },
          {
            "duration": 0.42857129999998733,
            "durationTicks": 144,
            "midi": 66,
            "name": "F#4",
            "ticks": 57360,
            "time": 170.7142345,
            "velocity": 0.4881889763779528
          },
          {
            "duration": 0.42857129999998733,
            "durationTicks": 144,
            "midi": 62,
            "name": "D4",
            "ticks": 57840,
            "time": 172.1428055,
            "velocity": 0.4881889763779528
          },
          {
            "duration": 0.42857130000001575,
            "durationTicks": 144,
            "midi": 59,
            "name": "B3",
            "ticks": 58080,
            "time": 172.857091,
            "velocity": 0.4881889763779528
          },
          {
            "duration": 0.42857129999998733,
            "durationTicks": 144,
            "midi": 62,
            "name": "D4",
            "ticks": 58320,
            "time": 173.5713765,
            "velocity": 0.4881889763779528
          },
          {
            "duration": 0.42857129999998733,
            "durationTicks": 144,
            "midi": 59,
            "name": "B3",
            "ticks": 58560,
            "time": 174.285662,
            "velocity": 0.4881889763779528
          },
          {
            "duration": 0.42857130000001575,
            "durationTicks": 144,
            "midi": 62,
            "name": "D4",
            "ticks": 58800,
            "time": 174.9999475,
            "velocity": 0.4881889763779528
          },
          {
            "duration": 0.5714284000000021,
            "durationTicks": 192,
            "midi": 57,
            "name": "A3",
            "ticks": 59040,
            "time": 175.714233,
            "velocity": 0.4881889763779528
          },
          {
            "duration": 0.5714284000000021,
            "durationTicks": 192,
            "midi": 64,
            "name": "E4",
            "ticks": 59520,
            "time": 177.142804,
            "velocity": 0.4881889763779528
          },
          {
            "duration": 0.5714284000000021,
            "durationTicks": 192,
            "midi": 62,
            "name": "D4",
            "ticks": 60000,
            "time": 178.57137500000002,
            "velocity": 0.4881889763779528
          },
          {
            "duration": 0.7142854999999884,
            "durationTicks": 240,
            "midi": 61,
            "name": "C#4",
            "ticks": 60720,
            "time": 180.7142315,
            "velocity": 0.4881889763779528
          },
          {
            "duration": 0.7142855000000168,
            "durationTicks": 240,
            "midi": 57,
            "name": "A3",
            "ticks": 60960,
            "time": 181.428517,
            "velocity": 0.4881889763779528
          },
          {
            "duration": 0.7142854999999884,
            "durationTicks": 240,
            "midi": 61,
            "name": "C#4",
            "ticks": 61200,
            "time": 182.14280250000002,
            "velocity": 0.4881889763779528
          },
          {
            "duration": 0.7142854999999884,
            "durationTicks": 240,
            "midi": 59,
            "name": "B3",
            "ticks": 61440,
            "time": 182.857088,
            "velocity": 0.4881889763779528
          },
          {
            "duration": 0.5714284000000305,
            "durationTicks": 192,
            "midi": 56,
            "name": "G#3",
            "ticks": 61680,
            "time": 183.5713735,
            "velocity": 0.4881889763779528
          },
          {
            "duration": 1.4285710000000051,
            "durationTicks": 480,
            "midi": 62,
            "name": "D4",
            "ticks": 61920,
            "time": 184.285659,
            "velocity": 0.4881889763779528
          },
          {
            "duration": 0.4642855749999626,
            "durationTicks": 156,
            "midi": 61,
            "name": "C#4",
            "ticks": 62400,
            "time": 185.71423000000001,
            "velocity": 0.4881889763779528
          },
          {
            "duration": 1.4285710000000051,
            "durationTicks": 480,
            "midi": 57,
            "name": "A3",
            "ticks": 62640,
            "time": 186.4285155,
            "velocity": 0.4881889763779528
          },
          {
            "duration": 0.5714284000000021,
            "durationTicks": 192,
            "midi": 59,
            "name": "B3",
            "ticks": 63120,
            "time": 187.8570865,
            "velocity": 0.4881889763779528
          },
          {
            "duration": 0.42857130000001575,
            "durationTicks": 144,
            "midi": 61,
            "name": "C#4",
            "ticks": 63360,
            "time": 188.571372,
            "velocity": 0.4881889763779528
          },
          {
            "duration": 0.42857130000001575,
            "durationTicks": 144,
            "midi": 69,
            "name": "A4",
            "ticks": 63600,
            "time": 189.2856575,
            "velocity": 0.4881889763779528
          },
          {
            "duration": 0.42857130000001575,
            "durationTicks": 144,
            "midi": 64,
            "name": "E4",
            "ticks": 63840,
            "time": 189.999943,
            "velocity": 0.4881889763779528
          },
          {
            "duration": 0.42857130000001575,
            "durationTicks": 144,
            "midi": 69,
            "name": "A4",
            "ticks": 64080,
            "time": 190.71422850000002,
            "velocity": 0.4881889763779528
          },
          {
            "duration": 0.42857130000001575,
            "durationTicks": 144,
            "midi": 64,
            "name": "E4",
            "ticks": 64320,
            "time": 191.428514,
            "velocity": 0.4881889763779528
          },
          {
            "duration": 0.42857130000001575,
            "durationTicks": 144,
            "midi": 69,
            "name": "A4",
            "ticks": 64560,
            "time": 192.1427995,
            "velocity": 0.4881889763779528
          },
          {
            "duration": 0.42857130000001575,
            "durationTicks": 144,
            "midi": 66,
            "name": "F#4",
            "ticks": 65040,
            "time": 193.5713705,
            "velocity": 0.4881889763779528
          },
          {
            "duration": 0.42857130000001575,
            "durationTicks": 144,
            "midi": 62,
            "name": "D4",
            "ticks": 65280,
            "time": 194.28565600000002,
            "velocity": 0.4881889763779528
          },
          {
            "duration": 0.42857130000001575,
            "durationTicks": 144,
            "midi": 71,
            "name": "B4",
            "ticks": 65520,
            "time": 194.9999415,
            "velocity": 0.4881889763779528
          },
          {
            "duration": 0.42857130000001575,
            "durationTicks": 144,
            "midi": 66,
            "name": "F#4",
            "ticks": 65760,
            "time": 195.714227,
            "velocity": 0.4881889763779528
          },
          {
            "duration": 0.42857130000001575,
            "durationTicks": 144,
            "midi": 71,
            "name": "B4",
            "ticks": 66000,
            "time": 196.4285125,
            "velocity": 0.4881889763779528
          },
          {
            "duration": 0.42857130000001575,
            "durationTicks": 144,
            "midi": 67,
            "name": "G4",
            "ticks": 66480,
            "time": 197.85708350000002,
            "velocity": 0.4881889763779528
          },
          {
            "duration": 0.42857130000001575,
            "durationTicks": 144,
            "midi": 64,
            "name": "E4",
            "ticks": 66720,
            "time": 198.571369,
            "velocity": 0.4881889763779528
          },
          {
            "duration": 0.42857130000001575,
            "durationTicks": 144,
            "midi": 73,
            "name": "C#5",
            "ticks": 66960,
            "time": 199.2856545,
            "velocity": 0.4881889763779528
          },
          {
            "duration": 0.42857130000001575,
            "durationTicks": 144,
            "midi": 67,
            "name": "G4",
            "ticks": 67200,
            "time": 199.99994,
            "velocity": 0.4881889763779528
          },
          {
            "duration": 0.42857130000001575,
            "durationTicks": 144,
            "midi": 73,
            "name": "C#5",
            "ticks": 67440,
            "time": 200.7142255,
            "velocity": 0.4881889763779528
          },
          {
            "duration": 0.42857130000001575,
            "durationTicks": 144,
            "midi": 69,
            "name": "A4",
            "ticks": 67920,
            "time": 202.1427965,
            "velocity": 0.4881889763779528
          },
          {
            "duration": 0.4285713000000442,
            "durationTicks": 144,
            "midi": 66,
            "name": "F#4",
            "ticks": 68160,
            "time": 202.857082,
            "velocity": 0.4881889763779528
          },
          {
            "duration": 0.42857130000001575,
            "durationTicks": 144,
            "midi": 74,
            "name": "D5",
            "ticks": 68400,
            "time": 203.5713675,
            "velocity": 0.4881889763779528
          },
          {
            "duration": 0.42857130000001575,
            "durationTicks": 144,
            "midi": 69,
            "name": "A4",
            "ticks": 68640,
            "time": 204.285653,
            "velocity": 0.4881889763779528
          },
          {
            "duration": 0.42857130000001575,
            "durationTicks": 144,
            "midi": 74,
            "name": "D5",
            "ticks": 68880,
            "time": 204.9999385,
            "velocity": 0.4881889763779528
          },
          {
            "duration": 0.4642855749999626,
            "durationTicks": 156,
            "midi": 64,
            "name": "E4",
            "ticks": 69360,
            "time": 206.42850950000002,
            "velocity": 0.4881889763779528
          },
          {
            "duration": 0.464285574999991,
            "durationTicks": 156,
            "midi": 59,
            "name": "B3",
            "ticks": 69600,
            "time": 207.142795,
            "velocity": 0.4881889763779528
          },
          {
            "duration": 0.464285574999991,
            "durationTicks": 156,
            "midi": 71,
            "name": "B4",
            "ticks": 69840,
            "time": 207.8570805,
            "velocity": 0.4881889763779528
          },
          {
            "duration": 0.464285574999991,
            "durationTicks": 156,
            "midi": 64,
            "name": "E4",
            "ticks": 70080,
            "time": 208.571366,
            "velocity": 0.4881889763779528
          },
          {
            "duration": 0.464285574999991,
            "durationTicks": 156,
            "midi": 74,
            "name": "D5",
            "ticks": 70320,
            "time": 209.2856515,
            "velocity": 0.4881889763779528
          },
          {
            "duration": 0.642856949999981,
            "durationTicks": 216,
            "midi": 57,
            "name": "A3",
            "ticks": 70800,
            "time": 210.7142225,
            "velocity": 0.4881889763779528
          },
          {
            "duration": 0.6428569500000094,
            "durationTicks": 216,
            "midi": 61,
            "name": "C#4",
            "ticks": 71040,
            "time": 211.428508,
            "velocity": 0.4881889763779528
          },
          {
            "duration": 0.642856949999981,
            "durationTicks": 216,
            "midi": 64,
            "name": "E4",
            "ticks": 71280,
            "time": 212.1427935,
            "velocity": 0.4881889763779528
          },
          {
            "duration": 0.642856949999981,
            "durationTicks": 216,
            "midi": 69,
            "name": "A4",
            "ticks": 71520,
            "time": 212.857079,
            "velocity": 0.4881889763779528
          },
          {
            "duration": 0.642856949999981,
            "durationTicks": 216,
            "midi": 73,
            "name": "C#5",
            "ticks": 71760,
            "time": 213.57136450000002,
            "velocity": 0.4881889763779528
          },
          {
            "duration": 0.6428569500000094,
            "durationTicks": 216,
            "midi": 59,
            "name": "B3",
            "ticks": 72240,
            "time": 214.9999355,
            "velocity": 0.4881889763779528
          },
          {
            "duration": 0.642856949999981,
            "durationTicks": 216,
            "midi": 62,
            "name": "D4",
            "ticks": 72480,
            "time": 215.714221,
            "velocity": 0.4881889763779528
          },
          {
            "duration": 0.642856949999981,
            "durationTicks": 216,
            "midi": 66,
            "name": "F#4",
            "ticks": 72720,
            "time": 216.4285065,
            "velocity": 0.4881889763779528
          },
          {
            "duration": 0.642856949999981,
            "durationTicks": 216,
            "midi": 71,
            "name": "B4",
            "ticks": 72960,
            "time": 217.14279200000001,
            "velocity": 0.4881889763779528
          },
          {
            "duration": 0.642856949999981,
            "durationTicks": 216,
            "midi": 74,
            "name": "D5",
            "ticks": 73200,
            "time": 217.8570775,
            "velocity": 0.4881889763779528
          },
          {
            "duration": 0.5714284000000021,
            "durationTicks": 192,
            "midi": 57,
            "name": "A3",
            "ticks": 73680,
            "time": 219.2856485,
            "velocity": 0.4881889763779528
          },
          {
            "duration": 0.5714284000000305,
            "durationTicks": 192,
            "midi": 57,
            "name": "A3",
            "ticks": 73920,
            "time": 219.999934,
            "velocity": 0.4881889763779528
          },
          {
            "duration": 0.5714284000000021,
            "durationTicks": 192,
            "midi": 57,
            "name": "A3",
            "ticks": 74160,
            "time": 220.7142195,
            "velocity": 0.4881889763779528
          },
          {
            "duration": 0.5714284000000021,
            "durationTicks": 192,
            "midi": 57,
            "name": "A3",
            "ticks": 74400,
            "time": 221.428505,
            "velocity": 0.4881889763779528
          },
          {
            "duration": 0.5714284000000021,
            "durationTicks": 192,
            "midi": 57,
            "name": "A3",
            "ticks": 74640,
            "time": 222.14279050000002,
            "velocity": 0.4881889763779528
          },
          {
            "duration": 0.2857141999999726,
            "durationTicks": 96,
            "midi": 57,
            "name": "A3",
            "ticks": 74880,
            "time": 222.857076,
            "velocity": 0.5590551181102362
          },
          {
            "duration": 0.2857141999999726,
            "durationTicks": 96,
            "midi": 57,
            "name": "A3",
            "ticks": 75000,
            "time": 223.21421875000001,
            "velocity": 0.5590551181102362
          },
          {
            "duration": 0.28571420000000103,
            "durationTicks": 96,
            "midi": 57,
            "name": "A3",
            "ticks": 75120,
            "time": 223.5713615,
            "velocity": 0.5590551181102362
          },
          {
            "duration": 0.2857141999999726,
            "durationTicks": 96,
            "midi": 57,
            "name": "A3",
            "ticks": 75240,
            "time": 223.92850425,
            "velocity": 0.5590551181102362
          },
          {
            "duration": 0.2857141999999726,
            "durationTicks": 96,
            "midi": 56,
            "name": "G#3",
            "ticks": 75360,
            "time": 224.285647,
            "velocity": 0.6299212598425197
          },
          {
            "duration": 0.28571420000000103,
            "durationTicks": 96,
            "midi": 56,
            "name": "G#3",
            "ticks": 75480,
            "time": 224.64278975,
            "velocity": 0.6299212598425197
          },
          {
            "duration": 0.28571420000000103,
            "durationTicks": 96,
            "midi": 56,
            "name": "G#3",
            "ticks": 75600,
            "time": 224.9999325,
            "velocity": 0.6299212598425197
          },
          {
            "duration": 0.2857141999999726,
            "durationTicks": 96,
            "midi": 56,
            "name": "G#3",
            "ticks": 75720,
            "time": 225.35707525,
            "velocity": 0.6299212598425197
          },
          {
            "duration": 0.2857141999999726,
            "durationTicks": 96,
            "midi": 56,
            "name": "G#3",
            "ticks": 75840,
            "time": 225.71421800000002,
            "velocity": 0.7086614173228346
          },
          {
            "duration": 0.28571420000000103,
            "durationTicks": 96,
            "midi": 56,
            "name": "G#3",
            "ticks": 75960,
            "time": 226.07136075,
            "velocity": 0.7086614173228346
          },
          {
            "duration": 0.2857141999999726,
            "durationTicks": 96,
            "midi": 56,
            "name": "G#3",
            "ticks": 76080,
            "time": 226.4285035,
            "velocity": 0.7086614173228346
          },
          {
            "duration": 0.2857141999999726,
            "durationTicks": 96,
            "midi": 56,
            "name": "G#3",
            "ticks": 76200,
            "time": 226.78564625,
            "velocity": 0.7086614173228346
          },
          {
            "duration": 0.5714284000000305,
            "durationTicks": 192,
            "midi": 57,
            "name": "A3",
            "ticks": 76320,
            "time": 227.142789,
            "velocity": 0.8267716535433071
          },
          {
            "duration": 1.1428568000000041,
            "durationTicks": 384,
            "midi": 64,
            "name": "E4",
            "ticks": 76560,
            "time": 227.8570745,
            "velocity": 0.8267716535433071
          },
          {
            "duration": 1.1428568000000041,
            "durationTicks": 384,
            "midi": 69,
            "name": "A4",
            "ticks": 77040,
            "time": 229.28564550000002,
            "velocity": 0.8267716535433071
          },
          {
            "duration": 0.5714284000000305,
            "durationTicks": 192,
            "midi": 73,
            "name": "C#5",
            "ticks": 77520,
            "time": 230.7142165,
            "velocity": 0.8267716535433071
          },
          {
            "duration": 0.464285574999991,
            "durationTicks": 156,
            "midi": 76,
            "name": "E5",
            "ticks": 77760,
            "time": 231.428502,
            "velocity": 0.984251968503937
          },
          {
            "duration": 0.5714284000000305,
            "durationTicks": 192,
            "midi": 57,
            "name": "A3",
            "ticks": 78000,
            "time": 232.1427875,
            "velocity": 0.4881889763779528
          },
          {
            "duration": 0.5714284000000021,
            "durationTicks": 192,
            "midi": 57,
            "name": "A3",
            "ticks": 78240,
            "time": 232.857073,
            "velocity": 0.4881889763779528
          },
          {
            "duration": 0.5714284000000021,
            "durationTicks": 192,
            "midi": 57,
            "name": "A3",
            "ticks": 78480,
            "time": 233.5713585,
            "velocity": 0.4881889763779528
          },
          {
            "duration": 0.5714284000000021,
            "durationTicks": 192,
            "midi": 57,
            "name": "A3",
            "ticks": 78720,
            "time": 234.28564400000002,
            "velocity": 0.4881889763779528
          },
          {
            "duration": 0.5714284000000021,
            "durationTicks": 192,
            "midi": 57,
            "name": "A3",
            "ticks": 78960,
            "time": 234.9999295,
            "velocity": 0.4881889763779528
          },
          {
            "duration": 0.5714284000000305,
            "durationTicks": 192,
            "midi": 59,
            "name": "B3",
            "ticks": 79200,
            "time": 235.714215,
            "velocity": 0.8267716535433071
          },
          {
            "duration": 1.1428568000000041,
            "durationTicks": 384,
            "midi": 62,
            "name": "D4",
            "ticks": 79440,
            "time": 236.4285005,
            "velocity": 0.8267716535433071
          },
          {
            "duration": 1.1428568000000041,
            "durationTicks": 384,
            "midi": 68,
            "name": "G#4",
            "ticks": 79920,
            "time": 237.85707150000002,
            "velocity": 0.8267716535433071
          },
          {
            "duration": 0.5714284000000305,
            "durationTicks": 192,
            "midi": 71,
            "name": "B4",
            "ticks": 80400,
            "time": 239.2856425,
            "velocity": 0.8267716535433071
          },
          {
            "duration": 0.464285574999991,
            "durationTicks": 156,
            "midi": 74,
            "name": "D5",
            "ticks": 80640,
            "time": 239.999928,
            "velocity": 0.6456692913385826
          },
          {
            "duration": 0.5714284000000021,
            "durationTicks": 192,
            "midi": 56,
            "name": "G#3",
            "ticks": 80880,
            "time": 240.7142135,
            "velocity": 0.4881889763779528
          },
          {
            "duration": 0.5714284000000021,
            "durationTicks": 192,
            "midi": 56,
            "name": "G#3",
            "ticks": 81120,
            "time": 241.42849900000002,
            "velocity": 0.4881889763779528
          },
          {
            "duration": 0.5714284000000021,
            "durationTicks": 192,
            "midi": 56,
            "name": "G#3",
            "ticks": 81360,
            "time": 242.1427845,
            "velocity": 0.4881889763779528
          },
          {
            "duration": 0.5714284000000305,
            "durationTicks": 192,
            "midi": 56,
            "name": "G#3",
            "ticks": 81600,
            "time": 242.85707,
            "velocity": 0.4881889763779528
          },
          {
            "duration": 0.5714284000000021,
            "durationTicks": 192,
            "midi": 56,
            "name": "G#3",
            "ticks": 81840,
            "time": 243.5713555,
            "velocity": 0.4881889763779528
          },
          {
            "duration": 0.5714284000000021,
            "durationTicks": 192,
            "midi": 55,
            "name": "G3",
            "ticks": 82080,
            "time": 244.285641,
            "velocity": 0.8267716535433071
          },
          {
            "duration": 1.1428568000000041,
            "durationTicks": 384,
            "midi": 64,
            "name": "E4",
            "ticks": 82320,
            "time": 244.99992650000002,
            "velocity": 0.8267716535433071
          },
          {
            "duration": 1.1428568000000041,
            "durationTicks": 384,
            "midi": 67,
            "name": "G4",
            "ticks": 82800,
            "time": 246.42849750000002,
            "velocity": 0.8267716535433071
          },
          {
            "duration": 0.5714284000000305,
            "durationTicks": 192,
            "midi": 73,
            "name": "C#5",
            "ticks": 83280,
            "time": 247.8570685,
            "velocity": 0.8267716535433071
          },
          {
            "duration": 1.1428568000000041,
            "durationTicks": 384,
            "midi": 76,
            "name": "E5",
            "ticks": 83520,
            "time": 248.571354,
            "velocity": 0.8267716535433071
          },
          {
            "duration": 0.7142854999999599,
            "durationTicks": 240,
            "midi": 62,
            "name": "D4",
            "ticks": 87000,
            "time": 258.92849375000003,
            "velocity": 0.4881889763779528
          },
          {
            "duration": 0.7142855000000168,
            "durationTicks": 240,
            "midi": 57,
            "name": "A3",
            "ticks": 87240,
            "time": 259.64277925,
            "velocity": 0.4881889763779528
          },
          {
            "duration": 0.7142855000000168,
            "durationTicks": 240,
            "midi": 62,
            "name": "D4",
            "ticks": 87480,
            "time": 260.35706475,
            "velocity": 0.4881889763779528
          },
          {
            "duration": 0.7142854999999599,
            "durationTicks": 240,
            "midi": 57,
            "name": "A3",
            "ticks": 87720,
            "time": 261.07135025,
            "velocity": 0.4881889763779528
          },
          {
            "duration": 0.7142855000000168,
            "durationTicks": 240,
            "midi": 62,
            "name": "D4",
            "ticks": 87960,
            "time": 261.78563575,
            "velocity": 0.4881889763779528
          },
          {
            "duration": 0.6785712249999847,
            "durationTicks": 228,
            "midi": 57,
            "name": "A3",
            "ticks": 88200,
            "time": 262.49992125,
            "velocity": 0.4881889763779528
          },
          {
            "duration": 0.7142855000000168,
            "durationTicks": 240,
            "midi": 61,
            "name": "C#4",
            "ticks": 88440,
            "time": 263.21420675,
            "velocity": 0.4881889763779528
          },
          {
            "duration": 0.7142854999999599,
            "durationTicks": 240,
            "midi": 57,
            "name": "A3",
            "ticks": 88680,
            "time": 263.92849225000003,
            "velocity": 0.4881889763779528
          },
          {
            "duration": 0.7142855000000168,
            "durationTicks": 240,
            "midi": 62,
            "name": "D4",
            "ticks": 88920,
            "time": 264.64277775,
            "velocity": 0.4881889763779528
          },
          {
            "duration": 0.7142855000000168,
            "durationTicks": 240,
            "midi": 57,
            "name": "A3",
            "ticks": 89160,
            "time": 265.35706325,
            "velocity": 0.4881889763779528
          },
          {
            "duration": 0.7142854999999599,
            "durationTicks": 240,
            "midi": 62,
            "name": "D4",
            "ticks": 89400,
            "time": 266.07134875,
            "velocity": 0.4881889763779528
          },
          {
            "duration": 0.6785712249999847,
            "durationTicks": 228,
            "midi": 57,
            "name": "A3",
            "ticks": 89640,
            "time": 266.78563425,
            "velocity": 0.4881889763779528
          },
          {
            "duration": 0.7142855000000168,
            "durationTicks": 240,
            "midi": 62,
            "name": "D4",
            "ticks": 89880,
            "time": 267.49991975,
            "velocity": 0.4881889763779528
          },
          {
            "duration": 0.7142854999999599,
            "durationTicks": 240,
            "midi": 57,
            "name": "A3",
            "ticks": 90120,
            "time": 268.21420525,
            "velocity": 0.4881889763779528
          },
          {
            "duration": 0.7142855000000168,
            "durationTicks": 240,
            "midi": 62,
            "name": "D4",
            "ticks": 90360,
            "time": 268.92849075,
            "velocity": 0.4881889763779528
          },
          {
            "duration": 0.7142855000000168,
            "durationTicks": 240,
            "midi": 57,
            "name": "A3",
            "ticks": 90600,
            "time": 269.64277625,
            "velocity": 0.4881889763779528
          },
          {
            "duration": 0.7142855000000168,
            "durationTicks": 240,
            "midi": 62,
            "name": "D4",
            "ticks": 90840,
            "time": 270.35706175,
            "velocity": 0.4881889763779528
          },
          {
            "duration": 0.6785712249999847,
            "durationTicks": 228,
            "midi": 57,
            "name": "A3",
            "ticks": 91080,
            "time": 271.07134725000003,
            "velocity": 0.4881889763779528
          },
          {
            "duration": 0.7142855000000168,
            "durationTicks": 240,
            "midi": 61,
            "name": "C#4",
            "ticks": 91320,
            "time": 271.78563275,
            "velocity": 0.4881889763779528
          },
          {
            "duration": 0.7142855000000168,
            "durationTicks": 240,
            "midi": 57,
            "name": "A3",
            "ticks": 91560,
            "time": 272.49991825,
            "velocity": 0.4881889763779528
          },
          {
            "duration": 0.7142854999999599,
            "durationTicks": 240,
            "midi": 62,
            "name": "D4",
            "ticks": 91800,
            "time": 273.21420375,
            "velocity": 0.4881889763779528
          },
          {
            "duration": 0.7142855000000168,
            "durationTicks": 240,
            "midi": 57,
            "name": "A3",
            "ticks": 92040,
            "time": 273.92848925,
            "velocity": 0.4881889763779528
          },
          {
            "duration": 0.7142855000000168,
            "durationTicks": 240,
            "midi": 62,
            "name": "D4",
            "ticks": 92280,
            "time": 274.64277475,
            "velocity": 0.4881889763779528
          },
          {
            "duration": 0.6785712249999847,
            "durationTicks": 228,
            "midi": 57,
            "name": "A3",
            "ticks": 92520,
            "time": 275.35706025,
            "velocity": 0.4881889763779528
          },
          {
            "duration": 0.7142854999999599,
            "durationTicks": 240,
            "midi": 61,
            "name": "C#4",
            "ticks": 92760,
            "time": 276.07134575000003,
            "velocity": 0.4881889763779528
          },
          {
            "duration": 0.7142855000000168,
            "durationTicks": 240,
            "midi": 57,
            "name": "A3",
            "ticks": 93000,
            "time": 276.78563125,
            "velocity": 0.4881889763779528
          },
          {
            "duration": 0.7142855000000168,
            "durationTicks": 240,
            "midi": 61,
            "name": "C#4",
            "ticks": 93240,
            "time": 277.49991675,
            "velocity": 0.4881889763779528
          },
          {
            "duration": 0.7142854999999599,
            "durationTicks": 240,
            "midi": 57,
            "name": "A3",
            "ticks": 93480,
            "time": 278.21420225,
            "velocity": 0.4881889763779528
          },
          {
            "duration": 0.7142855000000168,
            "durationTicks": 240,
            "midi": 62,
            "name": "D4",
            "ticks": 93720,
            "time": 278.92848775,
            "velocity": 0.4881889763779528
          },
          {
            "duration": 0.6785712249999847,
            "durationTicks": 228,
            "midi": 57,
            "name": "A3",
            "ticks": 93960,
            "time": 279.64277325,
            "velocity": 0.4881889763779528
          },
          {
            "duration": 0.7142854999999599,
            "durationTicks": 240,
            "midi": 61,
            "name": "C#4",
            "ticks": 94200,
            "time": 280.35705875,
            "velocity": 0.4881889763779528
          },
          {
            "duration": 0.7142855000000168,
            "durationTicks": 240,
            "midi": 57,
            "name": "A3",
            "ticks": 94440,
            "time": 281.07134425,
            "velocity": 0.4881889763779528
          },
          {
            "duration": 0.7142855000000168,
            "durationTicks": 240,
            "midi": 61,
            "name": "C#4",
            "ticks": 94680,
            "time": 281.78562975,
            "velocity": 0.4881889763779528
          },
          {
            "duration": 0.7142855000000168,
            "durationTicks": 240,
            "midi": 57,
            "name": "A3",
            "ticks": 94920,
            "time": 282.49991525,
            "velocity": 0.4881889763779528
          },
          {
            "duration": 0.7142854999999599,
            "durationTicks": 240,
            "midi": 59,
            "name": "B3",
            "ticks": 95160,
            "time": 283.21420075000003,
            "velocity": 0.4881889763779528
          },
          {
            "duration": 0.6785712249999847,
            "durationTicks": 228,
            "midi": 62,
            "name": "D4",
            "ticks": 95400,
            "time": 283.92848625,
            "velocity": 0.4881889763779528
          },
          {
            "duration": 0.7142855000000168,
            "durationTicks": 240,
            "midi": 57,
            "name": "A3",
            "ticks": 95640,
            "time": 284.64277175,
            "velocity": 0.4881889763779528
          },
          {
            "duration": 0.7142854999999599,
            "durationTicks": 240,
            "midi": 61,
            "name": "C#4",
            "ticks": 95880,
            "time": 285.35705725,
            "velocity": 0.4881889763779528
          },
          {
            "duration": 0.7142855000000168,
            "durationTicks": 240,
            "midi": 57,
            "name": "A3",
            "ticks": 96120,
            "time": 286.07134275,
            "velocity": 0.4881889763779528
          },
          {
            "duration": 0.7142855000000168,
            "durationTicks": 240,
            "midi": 61,
            "name": "C#4",
            "ticks": 96360,
            "time": 286.78562825,
            "velocity": 0.4881889763779528
          },
          {
            "duration": 0.7142854999999599,
            "durationTicks": 240,
            "midi": 56,
            "name": "G#3",
            "ticks": 96600,
            "time": 287.49991375,
            "velocity": 0.4881889763779528
          },
          {
            "duration": 0.6785712250000415,
            "durationTicks": 228,
            "midi": 59,
            "name": "B3",
            "ticks": 96840,
            "time": 288.21419925,
            "velocity": 0.4881889763779528
          },
          {
            "duration": 0.46428557500001943,
            "durationTicks": 156,
            "midi": 57,
            "name": "A3",
            "ticks": 97080,
            "time": 288.92848475,
            "velocity": 0.4881889763779528
          },
          {
            "duration": 0.7142855000000168,
            "durationTicks": 240,
            "midi": 67,
            "name": "G4",
            "ticks": 97320,
            "time": 289.64277025,
            "velocity": 0.4881889763779528
          },
          {
            "duration": 0.7142854999999599,
            "durationTicks": 240,
            "midi": 66,
            "name": "F#4",
            "ticks": 97560,
            "time": 290.35705575000003,
            "velocity": 0.4881889763779528
          },
          {
            "duration": 0.7142855000000168,
            "durationTicks": 240,
            "midi": 64,
            "name": "E4",
            "ticks": 97800,
            "time": 291.07134125,
            "velocity": 0.4881889763779528
          },
          {
            "duration": 0.7142855000000168,
            "durationTicks": 240,
            "midi": 62,
            "name": "D4",
            "ticks": 98040,
            "time": 291.78562675,
            "velocity": 0.4881889763779528
          },
          {
            "duration": 0.6785712249999847,
            "durationTicks": 228,
            "midi": 61,
            "name": "C#4",
            "ticks": 98280,
            "time": 292.49991225,
            "velocity": 0.4881889763779528
          },
          {
            "duration": 0.7142855000000168,
            "durationTicks": 240,
            "midi": 62,
            "name": "D4",
            "ticks": 98520,
            "time": 293.21419775,
            "velocity": 0.4881889763779528
          },
          {
            "duration": 0.7142855000000168,
            "durationTicks": 240,
            "midi": 57,
            "name": "A3",
            "ticks": 98760,
            "time": 293.92848325,
            "velocity": 0.4881889763779528
          },
          {
            "duration": 0.7142855000000168,
            "durationTicks": 240,
            "midi": 62,
            "name": "D4",
            "ticks": 99000,
            "time": 294.64276875,
            "velocity": 0.4881889763779528
          },
          {
            "duration": 0.7142854999999599,
            "durationTicks": 240,
            "midi": 57,
            "name": "A3",
            "ticks": 99240,
            "time": 295.35705425000003,
            "velocity": 0.4881889763779528
          },
          {
            "duration": 0.7142855000000168,
            "durationTicks": 240,
            "midi": 62,
            "name": "D4",
            "ticks": 99480,
            "time": 296.07133975,
            "velocity": 0.4881889763779528
          },
          {
            "duration": 0.6785712249999847,
            "durationTicks": 228,
            "midi": 57,
            "name": "A3",
            "ticks": 99720,
            "time": 296.78562525,
            "velocity": 0.4881889763779528
          },
          {
            "duration": 0.4642855749999626,
            "durationTicks": 156,
            "midi": 59,
            "name": "B3",
            "ticks": 99960,
            "time": 297.49991075,
            "velocity": 0.4881889763779528
          },
          {
            "duration": 1.4285710000000336,
            "durationTicks": 480,
            "midi": 67,
            "name": "G4",
            "ticks": 100200,
            "time": 298.21419625,
            "velocity": 0.4881889763779528
          },
          {
            "duration": 0.7142854999999599,
            "durationTicks": 240,
            "midi": 66,
            "name": "F#4",
            "ticks": 100680,
            "time": 299.64276725,
            "velocity": 0.4881889763779528
          },
          {
            "duration": 0.7142855000000168,
            "durationTicks": 240,
            "midi": 64,
            "name": "E4",
            "ticks": 100920,
            "time": 300.35705275,
            "velocity": 0.4881889763779528
          },
          {
            "duration": 0.6785712249999847,
            "durationTicks": 228,
            "midi": 63,
            "name": "D#4",
            "ticks": 101160,
            "time": 301.07133825,
            "velocity": 0.4881889763779528
          },
          {
            "duration": 0.7142855000000168,
            "durationTicks": 240,
            "midi": 64,
            "name": "E4",
            "ticks": 101400,
            "time": 301.78562375,
            "velocity": 0.4881889763779528
          },
          {
            "duration": 0.7142854999999599,
            "durationTicks": 240,
            "midi": 59,
            "name": "B3",
            "ticks": 101640,
            "time": 302.49990925000003,
            "velocity": 0.4881889763779528
          },
          {
            "duration": 0.7142855000000168,
            "durationTicks": 240,
            "midi": 64,
            "name": "E4",
            "ticks": 101880,
            "time": 303.21419475,
            "velocity": 0.4881889763779528
          },
          {
            "duration": 0.7142855000000168,
            "durationTicks": 240,
            "midi": 59,
            "name": "B3",
            "ticks": 102120,
            "time": 303.92848025,
            "velocity": 0.4881889763779528
          },
          {
            "duration": 0.7142854999999599,
            "durationTicks": 240,
            "midi": 64,
            "name": "E4",
            "ticks": 102360,
            "time": 304.64276575,
            "velocity": 0.4881889763779528
          },
          {
            "duration": 0.6785712250000415,
            "durationTicks": 228,
            "midi": 59,
            "name": "B3",
            "ticks": 102600,
            "time": 305.35705125,
            "velocity": 0.4881889763779528
          },
          {
            "duration": 0.4642855749999626,
            "durationTicks": 156,
            "midi": 61,
            "name": "C#4",
            "ticks": 102840,
            "time": 306.07133675,
            "velocity": 0.4881889763779528
          },
          {
            "duration": 1.4285709999999767,
            "durationTicks": 480,
            "midi": 69,
            "name": "A4",
            "ticks": 103080,
            "time": 306.78562225,
            "velocity": 0.4881889763779528
          },
          {
            "duration": 0.7142855000000168,
            "durationTicks": 240,
            "midi": 68,
            "name": "G#4",
            "ticks": 103560,
            "time": 308.21419325,
            "velocity": 0.4881889763779528
          },
          {
            "duration": 0.7142855000000168,
            "durationTicks": 240,
            "midi": 66,
            "name": "F#4",
            "ticks": 103800,
            "time": 308.92847875,
            "velocity": 0.4881889763779528
          },
          {
            "duration": 0.6785712249999847,
            "durationTicks": 228,
            "midi": 65,
            "name": "F4",
            "ticks": 104040,
            "time": 309.64276425,
            "velocity": 0.4881889763779528
          },
          {
            "duration": 0.7142855000000168,
            "durationTicks": 240,
            "midi": 66,
            "name": "F#4",
            "ticks": 104280,
            "time": 310.35704975,
            "velocity": 0.4881889763779528
          },
          {
            "duration": 0.7142855000000168,
            "durationTicks": 240,
            "midi": 57,
            "name": "A3",
            "ticks": 104520,
            "time": 311.07133525,
            "velocity": 0.4881889763779528
          },
          {
            "duration": 1.4285709999999767,
            "durationTicks": 480,
            "midi": 59,
            "name": "B3",
            "ticks": 104760,
            "time": 311.78562075,
            "velocity": 0.4881889763779528
          },
          {
            "duration": 0.7142855000000168,
            "durationTicks": 240,
            "midi": 57,
            "name": "A3",
            "ticks": 105240,
            "time": 313.21419175,
            "velocity": 0.4881889763779528
          },
          {
            "duration": 0.6785712249999847,
            "durationTicks": 228,
            "midi": 61,
            "name": "C#4",
            "ticks": 105480,
            "time": 313.92847725,
            "velocity": 0.4881889763779528
          },
          {
            "duration": 0.7142854999999599,
            "durationTicks": 240,
            "midi": 62,
            "name": "D4",
            "ticks": 105720,
            "time": 314.64276275000003,
            "velocity": 0.4881889763779528
          },
          {
            "duration": 0.7142855000000168,
            "durationTicks": 240,
            "midi": 59,
            "name": "B3",
            "ticks": 105960,
            "time": 315.35704825,
            "velocity": 0.4881889763779528
          },
          {
            "duration": 0.7142855000000168,
            "durationTicks": 240,
            "midi": 57,
            "name": "A3",
            "ticks": 106200,
            "time": 316.07133375,
            "velocity": 0.4881889763779528
          },
          {
            "duration": 0.7142854999999599,
            "durationTicks": 240,
            "midi": 64,
            "name": "E4",
            "ticks": 106440,
            "time": 316.78561925,
            "velocity": 0.4881889763779528
          },
          {
            "duration": 0.7142855000000168,
            "durationTicks": 240,
            "midi": 57,
            "name": "A3",
            "ticks": 106680,
            "time": 317.49990475,
            "velocity": 0.4881889763779528
          },
          {
            "duration": 0.6785712249999847,
            "durationTicks": 228,
            "midi": 62,
            "name": "D4",
            "ticks": 106920,
            "time": 318.21419025,
            "velocity": 0.4881889763779528
          },
          {
            "duration": 0.7142855000000168,
            "durationTicks": 240,
            "midi": 59,
            "name": "B3",
            "ticks": 107160,
            "time": 318.92847575,
            "velocity": 0.4881889763779528
          },
          {
            "duration": 0.7142854999999599,
            "durationTicks": 240,
            "midi": 64,
            "name": "E4",
            "ticks": 107400,
            "time": 319.64276125000004,
            "velocity": 0.4881889763779528
          },
          {
            "duration": 0.7142855000000168,
            "durationTicks": 240,
            "midi": 62,
            "name": "D4",
            "ticks": 107640,
            "time": 320.35704675,
            "velocity": 0.4881889763779528
          },
          {
            "duration": 0.7142855000000168,
            "durationTicks": 240,
            "midi": 66,
            "name": "F#4",
            "ticks": 107880,
            "time": 321.07133225,
            "velocity": 0.4881889763779528
          },
          {
            "duration": 0.7142854999999599,
            "durationTicks": 240,
            "midi": 57,
            "name": "A3",
            "ticks": 108120,
            "time": 321.78561775000003,
            "velocity": 0.4881889763779528
          },
          {
            "duration": 0.6785712249999847,
            "durationTicks": 228,
            "midi": 61,
            "name": "C#4",
            "ticks": 108360,
            "time": 322.49990325,
            "velocity": 0.4881889763779528
          },
          {
            "duration": 0.4642855749999626,
            "durationTicks": 156,
            "midi": 62,
            "name": "D4",
            "ticks": 108600,
            "time": 323.21418875,
            "velocity": 0.4881889763779528
          },
          {
            "duration": 0.7142854999999599,
            "durationTicks": 240,
            "midi": 71,
            "name": "B4",
            "ticks": 108840,
            "time": 323.92847425,
            "velocity": 0.6456692913385826
          },
          {
            "duration": 0.7142855000000168,
            "durationTicks": 240,
            "midi": 69,
            "name": "A4",
            "ticks": 109080,
            "time": 324.64275975,
            "velocity": 0.6456692913385826
          },
          {
            "duration": 0.7142855000000168,
            "durationTicks": 240,
            "midi": 67,
            "name": "G4",
            "ticks": 109320,
            "time": 325.35704525,
            "velocity": 0.6456692913385826
          },
          {
            "duration": 0.7142855000000168,
            "durationTicks": 240,
            "midi": 66,
            "name": "F#4",
            "ticks": 109560,
            "time": 326.07133075,
            "velocity": 0.6456692913385826
          },
          {
            "duration": 0.6785712249999847,
            "durationTicks": 228,
            "midi": 64,
            "name": "E4",
            "ticks": 109800,
            "time": 326.78561625000003,
            "velocity": 0.6456692913385826
          },
          {
            "duration": 0.5714284000000021,
            "durationTicks": 192,
            "midi": 66,
            "name": "F#4",
            "ticks": 110040,
            "time": 327.49990175,
            "velocity": 0.4881889763779528
          },
          {
            "duration": 1.1428568000000041,
            "durationTicks": 384,
            "midi": 66,
            "name": "F#4",
            "ticks": 110280,
            "time": 328.21418725,
            "velocity": 0.7086614173228346
          },
          {
            "duration": 1.142856800000061,
            "durationTicks": 384,
            "midi": 66,
            "name": "F#4",
            "ticks": 110760,
            "time": 329.64275825,
            "velocity": 0.7086614173228346
          },
          {
            "duration": 0.5714284000000021,
            "durationTicks": 192,
            "midi": 66,
            "name": "F#4",
            "ticks": 111240,
            "time": 331.07132925,
            "velocity": 0.7086614173228346
          },
          {
            "duration": 0.5714284000000021,
            "durationTicks": 192,
            "midi": 67,
            "name": "G4",
            "ticks": 111480,
            "time": 331.78561475000004,
            "velocity": 0.7086614173228346
          },
          {
            "duration": 1.4285710000000336,
            "durationTicks": 480,
            "midi": 71,
            "name": "B4",
            "ticks": 111720,
            "time": 332.49990025,
            "velocity": 0.8661417322834646
          },
          {
            "duration": 0.7142854999999599,
            "durationTicks": 240,
            "midi": 69,
            "name": "A4",
            "ticks": 112200,
            "time": 333.92847125000003,
            "velocity": 0.7086614173228346
          },
          {
            "duration": 0.7142855000000168,
            "durationTicks": 240,
            "midi": 67,
            "name": "G4",
            "ticks": 112440,
            "time": 334.64275675,
            "velocity": 0.7086614173228346
          },
          {
            "duration": 0.6785712249999847,
            "durationTicks": 228,
            "midi": 66,
            "name": "F#4",
            "ticks": 112680,
            "time": 335.35704225,
            "velocity": 0.7086614173228346
          },
          {
            "duration": 0.5714284000000021,
            "durationTicks": 192,
            "midi": 67,
            "name": "G4",
            "ticks": 112920,
            "time": 336.07132775,
            "velocity": 0.7086614173228346
          },
          {
            "duration": 1.142856800000061,
            "durationTicks": 384,
            "midi": 67,
            "name": "G4",
            "ticks": 113160,
            "time": 336.78561325,
            "velocity": 0.7086614173228346
          },
          {
            "duration": 1.1428568000000041,
            "durationTicks": 384,
            "midi": 67,
            "name": "G4",
            "ticks": 113640,
            "time": 338.21418425,
            "velocity": 0.7086614173228346
          },
          {
            "duration": 0.5714284000000021,
            "durationTicks": 192,
            "midi": 68,
            "name": "G#4",
            "ticks": 114120,
            "time": 339.64275525,
            "velocity": 0.7086614173228346
          },
          {
            "duration": 0.5714284000000021,
            "durationTicks": 192,
            "midi": 69,
            "name": "A4",
            "ticks": 114360,
            "time": 340.35704075,
            "velocity": 0.7086614173228346
          },
          {
            "duration": 1.4285709999999767,
            "durationTicks": 480,
            "midi": 73,
            "name": "C#5",
            "ticks": 114600,
            "time": 341.07132625,
            "velocity": 0.8661417322834646
          },
          {
            "duration": 0.7142855000000168,
            "durationTicks": 240,
            "midi": 71,
            "name": "B4",
            "ticks": 115080,
            "time": 342.49989725,
            "velocity": 0.7086614173228346
          },
          {
            "duration": 0.7142854999999599,
            "durationTicks": 240,
            "midi": 69,
            "name": "A4",
            "ticks": 115320,
            "time": 343.21418275,
            "velocity": 0.7086614173228346
          },
          {
            "duration": 0.6785712250000415,
            "durationTicks": 228,
            "midi": 68,
            "name": "G#4",
            "ticks": 115560,
            "time": 343.92846825,
            "velocity": 0.7086614173228346
          },
          {
            "duration": 0.5714284000000021,
            "durationTicks": 192,
            "midi": 69,
            "name": "A4",
            "ticks": 115800,
            "time": 344.64275375,
            "velocity": 0.7086614173228346
          },
          {
            "duration": 1.1428568000000041,
            "durationTicks": 384,
            "midi": 69,
            "name": "A4",
            "ticks": 116040,
            "time": 345.35703925,
            "velocity": 0.7086614173228346
          },
          {
            "duration": 1.142856800000061,
            "durationTicks": 384,
            "midi": 69,
            "name": "A4",
            "ticks": 116520,
            "time": 346.78561025,
            "velocity": 0.7086614173228346
          },
          {
            "duration": 0.5714284000000021,
            "durationTicks": 192,
            "midi": 69,
            "name": "A4",
            "ticks": 117000,
            "time": 348.21418125,
            "velocity": 0.7086614173228346
          },
          {
            "duration": 0.7142855000000168,
            "durationTicks": 240,
            "midi": 69,
            "name": "A4",
            "ticks": 117240,
            "time": 348.92846675,
            "velocity": 0.7086614173228346
          },
          {
            "duration": 0.7142855000000168,
            "durationTicks": 240,
            "midi": 67,
            "name": "G4",
            "ticks": 117480,
            "time": 349.64275225,
            "velocity": 0.7086614173228346
          },
          {
            "duration": 0.7142855000000168,
            "durationTicks": 240,
            "midi": 74,
            "name": "D5",
            "ticks": 117720,
            "time": 350.35703775,
            "velocity": 0.7086614173228346
          },
          {
            "duration": 0.7142854999999599,
            "durationTicks": 240,
            "midi": 62,
            "name": "D4",
            "ticks": 117960,
            "time": 351.07132325000003,
            "velocity": 0.7086614173228346
          },
          {
            "duration": 0.7142855000000168,
            "durationTicks": 240,
            "midi": 63,
            "name": "D#4",
            "ticks": 118200,
            "time": 351.78560875,
            "velocity": 0.7086614173228346
          },
          {
            "duration": 0.5714284000000021,
            "durationTicks": 192,
            "midi": 72,
            "name": "C5",
            "ticks": 118440,
            "time": 352.49989425,
            "velocity": 0.7086614173228346
          },
          {
            "duration": 0.7142854999999599,
            "durationTicks": 240,
            "midi": 71,
            "name": "B4",
            "ticks": 118680,
            "time": 353.21417975,
            "velocity": 0.7086614173228346
          },
          {
            "duration": 0.3571427500000368,
            "durationTicks": 120,
            "midi": 64,
            "name": "E4",
            "ticks": 118920,
            "time": 353.92846525,
            "velocity": 0.7086614173228346
          },
          {
            "duration": 0.2857141999999726,
            "durationTicks": 96,
            "midi": 67,
            "name": "G4",
            "ticks": 119040,
            "time": 354.285608,
            "velocity": 0.7086614173228346
          },
          {
            "duration": 0.7142855000000168,
            "durationTicks": 240,
            "midi": 66,
            "name": "F#4",
            "ticks": 119160,
            "time": 354.64275075,
            "velocity": 0.7086614173228346
          },
          {
            "duration": 0.7142854999999599,
            "durationTicks": 240,
            "midi": 69,
            "name": "A4",
            "ticks": 119400,
            "time": 355.35703625,
            "velocity": 0.7086614173228346
          },
          {
            "duration": 0.7142855000000168,
            "durationTicks": 240,
            "midi": 67,
            "name": "G4",
            "ticks": 119640,
            "time": 356.07132175,
            "velocity": 0.7086614173228346
          },
          {
            "duration": 0.5714284000000021,
            "durationTicks": 192,
            "midi": 69,
            "name": "A4",
            "ticks": 119880,
            "time": 356.78560725,
            "velocity": 0.7086614173228346
          },
          {
            "duration": 0.5714284000000021,
            "durationTicks": 192,
            "midi": 66,
            "name": "F#4",
            "ticks": 120120,
            "time": 357.49989275,
            "velocity": 0.7086614173228346
          },
          {
            "duration": 0.5714284000000021,
            "durationTicks": 192,
            "midi": 66,
            "name": "F#4",
            "ticks": 120360,
            "time": 358.21417825000003,
            "velocity": 0.4881889763779528
          },
          {
            "duration": 0.5714284000000021,
            "durationTicks": 192,
            "midi": 66,
            "name": "F#4",
            "ticks": 120600,
            "time": 358.92846375,
            "velocity": 0.4881889763779528
          },
          {
            "duration": 0.5714284000000021,
            "durationTicks": 192,
            "midi": 66,
            "name": "F#4",
            "ticks": 120840,
            "time": 359.64274925,
            "velocity": 0.4881889763779528
          },
          {
            "duration": 0.5714284000000021,
            "durationTicks": 192,
            "midi": 66,
            "name": "F#4",
            "ticks": 121080,
            "time": 360.35703475,
            "velocity": 0.4881889763779528
          },
          {
            "duration": 0.5714284000000589,
            "durationTicks": 192,
            "midi": 66,
            "name": "F#4",
            "ticks": 121320,
            "time": 361.07132025,
            "velocity": 0.4881889763779528
          },
          {
            "duration": 0.5714284000000021,
            "durationTicks": 192,
            "midi": 67,
            "name": "G4",
            "ticks": 121800,
            "time": 362.49989125,
            "velocity": 0.4881889763779528
          },
          {
            "duration": 0.5714284000000021,
            "durationTicks": 192,
            "midi": 67,
            "name": "G4",
            "ticks": 122040,
            "time": 363.21417675000004,
            "velocity": 0.4881889763779528
          },
          {
            "duration": 0.5714284000000021,
            "durationTicks": 192,
            "midi": 67,
            "name": "G4",
            "ticks": 122280,
            "time": 363.92846225,
            "velocity": 0.4881889763779528
          },
          {
            "duration": 0.5714284000000021,
            "durationTicks": 192,
            "midi": 66,
            "name": "F#4",
            "ticks": 122520,
            "time": 364.64274775,
            "velocity": 0.4881889763779528
          },
          {
            "duration": 0.5714283999999452,
            "durationTicks": 192,
            "midi": 66,
            "name": "F#4",
            "ticks": 122760,
            "time": 365.35703325000003,
            "velocity": 0.4881889763779528
          },
          {
            "duration": 0.5714283999999452,
            "durationTicks": 192,
            "midi": 67,
            "name": "G4",
            "ticks": 123240,
            "time": 366.78560425,
            "velocity": 0.4881889763779528
          },
          {
            "duration": 0.5714283999999452,
            "durationTicks": 192,
            "midi": 67,
            "name": "G4",
            "ticks": 123480,
            "time": 367.49988975,
            "velocity": 0.4881889763779528
          },
          {
            "duration": 0.5714284000000021,
            "durationTicks": 192,
            "midi": 67,
            "name": "G4",
            "ticks": 123720,
            "time": 368.21417525,
            "velocity": 0.4881889763779528
          },
          {
            "duration": 0.5714284000000021,
            "durationTicks": 192,
            "midi": 66,
            "name": "F#4",
            "ticks": 123960,
            "time": 368.92846075,
            "velocity": 0.4881889763779528
          },
          {
            "duration": 0.5714283999999452,
            "durationTicks": 192,
            "midi": 66,
            "name": "F#4",
            "ticks": 124200,
            "time": 369.64274625,
            "velocity": 0.4881889763779528
          },
          {
            "duration": 0.5714284000000021,
            "durationTicks": 192,
            "midi": 64,
            "name": "E4",
            "ticks": 124680,
            "time": 371.07131725,
            "velocity": 0.4881889763779528
          },
          {
            "duration": 0.5714283999999452,
            "durationTicks": 192,
            "midi": 62,
            "name": "D4",
            "ticks": 124920,
            "time": 371.78560275,
            "velocity": 0.4881889763779528
          },
          {
            "duration": 0.5714283999999452,
            "durationTicks": 192,
            "midi": 62,
            "name": "D4",
            "ticks": 125160,
            "time": 372.49988825,
            "velocity": 0.4881889763779528
          },
          {
            "duration": 0.5714284000000021,
            "durationTicks": 192,
            "midi": 57,
            "name": "A3",
            "ticks": 125400,
            "time": 373.21417375,
            "velocity": 0.4881889763779528
          },
          {
            "duration": 0.5714284000000021,
            "durationTicks": 192,
            "midi": 57,
            "name": "A3",
            "ticks": 125640,
            "time": 373.92845925,
            "velocity": 0.4881889763779528
          },
          {
            "duration": 0.5714283999999452,
            "durationTicks": 192,
            "midi": 57,
            "name": "A3",
            "ticks": 125880,
            "time": 374.64274475,
            "velocity": 0.4881889763779528
          },
          {
            "duration": 0.5714283999999452,
            "durationTicks": 192,
            "midi": 57,
            "name": "A3",
            "ticks": 126120,
            "time": 375.35703025000004,
            "velocity": 0.4881889763779528
          },
          {
            "duration": 0.5714284000000021,
            "durationTicks": 192,
            "midi": 57,
            "name": "A3",
            "ticks": 126360,
            "time": 376.07131575,
            "velocity": 0.4881889763779528
          },
          {
            "duration": 0.5714283999999452,
            "durationTicks": 192,
            "midi": 57,
            "name": "A3",
            "ticks": 126600,
            "time": 376.78560125,
            "velocity": 0.4881889763779528
          },
          {
            "duration": 0.5714283999999452,
            "durationTicks": 192,
            "midi": 57,
            "name": "A3",
            "ticks": 126840,
            "time": 377.49988675000003,
            "velocity": 0.4881889763779528
          },
          {
            "duration": 0.5714284000000021,
            "durationTicks": 192,
            "midi": 57,
            "name": "A3",
            "ticks": 127080,
            "time": 378.21417225,
            "velocity": 0.4881889763779528
          },
          {
            "duration": 0.5714283999999452,
            "durationTicks": 192,
            "midi": 57,
            "name": "A3",
            "ticks": 127560,
            "time": 379.64274325,
            "velocity": 0.4881889763779528
          },
          {
            "duration": 0.5714284000000021,
            "durationTicks": 192,
            "midi": 57,
            "name": "A3",
            "ticks": 127800,
            "time": 380.35702875,
            "velocity": 0.4881889763779528
          },
          {
            "duration": 0.5714284000000021,
            "durationTicks": 192,
            "midi": 57,
            "name": "A3",
            "ticks": 128040,
            "time": 381.07131425,
            "velocity": 0.4881889763779528
          },
          {
            "duration": 0.5714283999999452,
            "durationTicks": 192,
            "midi": 57,
            "name": "A3",
            "ticks": 128280,
            "time": 381.78559975,
            "velocity": 0.4881889763779528
          },
          {
            "duration": 0.5714283999999452,
            "durationTicks": 192,
            "midi": 57,
            "name": "A3",
            "ticks": 128520,
            "time": 382.49988525000003,
            "velocity": 0.4881889763779528
          },
          {
            "duration": 0.5714283999999452,
            "durationTicks": 192,
            "midi": 76,
            "name": "E5",
            "ticks": 129000,
            "time": 383.92845625,
            "velocity": 0.4881889763779528
          },
          {
            "duration": 0.5714283999999452,
            "durationTicks": 192,
            "midi": 76,
            "name": "E5",
            "ticks": 129240,
            "time": 384.64274175,
            "velocity": 0.4881889763779528
          },
          {
            "duration": 0.5714284000000021,
            "durationTicks": 192,
            "midi": 76,
            "name": "E5",
            "ticks": 129480,
            "time": 385.35702725,
            "velocity": 0.4881889763779528
          },
          {
            "duration": 0.5714283999999452,
            "durationTicks": 192,
            "midi": 74,
            "name": "D5",
            "ticks": 129720,
            "time": 386.07131275,
            "velocity": 0.4881889763779528
          },
          {
            "duration": 0.5714283999999452,
            "durationTicks": 192,
            "midi": 74,
            "name": "D5",
            "ticks": 129960,
            "time": 386.78559825,
            "velocity": 0.4881889763779528
          },
          {
            "duration": 1.1428568000000041,
            "durationTicks": 384,
            "midi": 71,
            "name": "B4",
            "ticks": 130200,
            "time": 387.49988375000004,
            "velocity": 0.4881889763779528
          },
          {
            "duration": 0.7142854999999599,
            "durationTicks": 240,
            "midi": 64,
            "name": "E4",
            "ticks": 130920,
            "time": 389.64274025000003,
            "velocity": 0.4881889763779528
          },
          {
            "duration": 0.7142855000000168,
            "durationTicks": 240,
            "midi": 66,
            "name": "F#4",
            "ticks": 131160,
            "time": 390.35702575,
            "velocity": 0.4881889763779528
          },
          {
            "duration": 0.7142855000000168,
            "durationTicks": 240,
            "midi": 67,
            "name": "G4",
            "ticks": 131400,
            "time": 391.07131125,
            "velocity": 0.4881889763779528
          },
          {
            "duration": 0.5714284000000021,
            "durationTicks": 192,
            "midi": 62,
            "name": "D4",
            "ticks": 131880,
            "time": 392.49988225,
            "velocity": 0.4881889763779528
          },
          {
            "duration": 0.5714284000000021,
            "durationTicks": 192,
            "midi": 62,
            "name": "D4",
            "ticks": 132120,
            "time": 393.21416775,
            "velocity": 0.4881889763779528
          },
          {
            "duration": 0.5714283999999452,
            "durationTicks": 192,
            "midi": 62,
            "name": "D4",
            "ticks": 132360,
            "time": 393.92845325,
            "velocity": 0.4881889763779528
          },
          {
            "duration": 0.5714283999999452,
            "durationTicks": 192,
            "midi": 62,
            "name": "D4",
            "ticks": 132600,
            "time": 394.64273875000003,
            "velocity": 0.4881889763779528
          },
          {
            "duration": 0.5714284000000021,
            "durationTicks": 192,
            "midi": 62,
            "name": "D4",
            "ticks": 132840,
            "time": 395.35702425,
            "velocity": 0.4881889763779528
          },
          {
            "duration": 0.2857141999999726,
            "durationTicks": 96,
            "midi": 62,
            "name": "D4",
            "ticks": 133080,
            "time": 396.07130975,
            "velocity": 0.4881889763779528
          },
          {
            "duration": 0.28571420000002945,
            "durationTicks": 96,
            "midi": 62,
            "name": "D4",
            "ticks": 133200,
            "time": 396.4284525,
            "velocity": 0.4881889763779528
          },
          {
            "duration": 0.2857141999999726,
            "durationTicks": 96,
            "midi": 62,
            "name": "D4",
            "ticks": 133320,
            "time": 396.78559525000003,
            "velocity": 0.4881889763779528
          },
          {
            "duration": 0.2857141999999726,
            "durationTicks": 96,
            "midi": 62,
            "name": "D4",
            "ticks": 133440,
            "time": 397.142738,
            "velocity": 0.4881889763779528
          },
          {
            "duration": 0.28571420000002945,
            "durationTicks": 96,
            "midi": 61,
            "name": "C#4",
            "ticks": 133560,
            "time": 397.49988075,
            "velocity": 0.4881889763779528
          },
          {
            "duration": 0.2857141999999726,
            "durationTicks": 96,
            "midi": 61,
            "name": "C#4",
            "ticks": 133680,
            "time": 397.8570235,
            "velocity": 0.4881889763779528
          },
          {
            "duration": 0.2857141999999726,
            "durationTicks": 96,
            "midi": 61,
            "name": "C#4",
            "ticks": 133800,
            "time": 398.21416625,
            "velocity": 0.4881889763779528
          },
          {
            "duration": 0.28571420000002945,
            "durationTicks": 96,
            "midi": 61,
            "name": "C#4",
            "ticks": 133920,
            "time": 398.571309,
            "velocity": 0.4881889763779528
          },
          {
            "duration": 0.2857141999999726,
            "durationTicks": 96,
            "midi": 61,
            "name": "C#4",
            "ticks": 134040,
            "time": 398.92845175,
            "velocity": 0.4881889763779528
          },
          {
            "duration": 0.2857141999999726,
            "durationTicks": 96,
            "midi": 61,
            "name": "C#4",
            "ticks": 134160,
            "time": 399.2855945,
            "velocity": 0.4881889763779528
          },
          {
            "duration": 0.28571420000002945,
            "durationTicks": 96,
            "midi": 61,
            "name": "C#4",
            "ticks": 134280,
            "time": 399.64273725,
            "velocity": 0.4881889763779528
          },
          {
            "duration": 0.2857141999999726,
            "durationTicks": 96,
            "midi": 61,
            "name": "C#4",
            "ticks": 134400,
            "time": 399.99988,
            "velocity": 0.4881889763779528
          },
          {
            "duration": 1.1428568000000041,
            "durationTicks": 384,
            "midi": 62,
            "name": "D4",
            "ticks": 134520,
            "time": 400.35702275,
            "velocity": 0.4881889763779528
          },
          {
            "duration": 1.3571424499999694,
            "durationTicks": 456,
            "midi": 55,
            "name": "G3",
            "ticks": 135480,
            "time": 403.21416475,
            "velocity": 0.4881889763779528
          },
          {
            "duration": 2.7142848999999956,
            "durationTicks": 912,
            "midi": 57,
            "name": "A3",
            "ticks": 135960,
            "time": 404.64273575,
            "velocity": 0.4881889763779528
          },
          {
            "duration": 0.7142855000000168,
            "durationTicks": 240,
            "midi": 57,
            "name": "A3",
            "ticks": 136920,
            "time": 407.49987775,
            "velocity": 0.4881889763779528
          },
          {
            "duration": 0.6785712250000415,
            "durationTicks": 228,
            "midi": 58,
            "name": "A#3",
            "ticks": 137160,
            "time": 408.21416325,
            "velocity": 0.4881889763779528
          },
          {
            "duration": 1.3571424499999694,
            "durationTicks": 456,
            "midi": 59,
            "name": "B3",
            "ticks": 137400,
            "time": 408.92844875000003,
            "velocity": 0.4881889763779528
          },
          {
            "duration": 0.5714284000000021,
            "durationTicks": 192,
            "midi": 79,
            "name": "G5",
            "ticks": 138360,
            "time": 411.78559075,
            "velocity": 0.4881889763779528
          },
          {
            "duration": 0.5714283999999452,
            "durationTicks": 192,
            "midi": 78,
            "name": "F#5",
            "ticks": 138840,
            "time": 413.21416175,
            "velocity": 0.4881889763779528
          },
          {
            "duration": 0.5714284000000021,
            "durationTicks": 192,
            "midi": 74,
            "name": "D5",
            "ticks": 139320,
            "time": 414.64273275,
            "velocity": 0.4881889763779528
          },
          {
            "duration": 0.5714283999999452,
            "durationTicks": 192,
            "midi": 67,
            "name": "G4",
            "ticks": 139800,
            "time": 416.07130375,
            "velocity": 0.4881889763779528
          },
          {
            "duration": 0.6785712250000415,
            "durationTicks": 228,
            "midi": 66,
            "name": "F#4",
            "ticks": 140280,
            "time": 417.49987475,
            "velocity": 0.4881889763779528
          },
          {
            "duration": 0.6785712249999847,
            "durationTicks": 228,
            "midi": 57,
            "name": "A3",
            "ticks": 140760,
            "time": 418.92844575000004,
            "velocity": 0.4881889763779528
          },
          {
            "duration": 0.6785712250000415,
            "durationTicks": 228,
            "midi": 57,
            "name": "A3",
            "ticks": 141240,
            "time": 420.35701675,
            "velocity": 0.4881889763779528
          },
          {
            "duration": 1.142856800000061,
            "durationTicks": 384,
            "midi": 57,
            "name": "A3",
            "ticks": 141720,
            "time": 421.78558775,
            "velocity": 0.4881889763779528
          }
        ]
      },
      {
        "channel": 0,
        "controlChanges": {},
        "pitchBends": [],
        "instrument": {
          "family": "piano",
          "number": 0,
          "name": "acoustic grand piano"
        },
        "name": "k622_2",
        "notes": [],
        "endOfTrackTicks": 144600
      },
      {
        "channel": 6,
        "controlChanges": {
          "7": [
            {
              "number": 7,
              "ticks": 0,
              "time": 0,
              "value": 0.968503937007874
            }
          ],
          "10": [
            {
              "number": 10,
              "ticks": 0,
              "time": 0,
              "value": 0.7716535433070866
            }
          ],
          "91": [
            {
              "number": 91,
              "ticks": 0,
              "time": 0,
              "value": 0.5905511811023622
            }
          ]
        },
        "pitchBends": [],
        "instrument": {
          "family": "ensemble",
          "number": 48,
          "name": "string ensemble 1"
        },
        "name": "",
        "notes": [
          {
            "duration": 8.35714035,
            "durationTicks": 2808,
            "midi": 57,
            "name": "A3",
            "ticks": 0,
            "time": 0,
            "velocity": 0.4881889763779528
          },
          {
            "duration": 8.35714035,
            "durationTicks": 2808,
            "midi": 57,
            "name": "A3",
            "ticks": 2880,
            "time": 8.571426,
            "velocity": 0.4881889763779528
          },
          {
            "duration": 6.999997899999997,
            "durationTicks": 2352,
            "midi": 57,
            "name": "A3",
            "ticks": 5760,
            "time": 17.142852,
            "velocity": 0.4881889763779528
          },
          {
            "duration": 1.3571424499999978,
            "durationTicks": 456,
            "midi": 54,
            "name": "F#3",
            "ticks": 8160,
            "time": 24.285707000000002,
            "velocity": 0.4881889763779528
          },
          {
            "duration": 4.749998574999999,
            "durationTicks": 1596,
            "midi": 52,
            "name": "E3",
            "ticks": 8640,
            "time": 25.714278,
            "velocity": 0.4881889763779528
          },
          {
            "duration": 0.714285499999999,
            "durationTicks": 240,
            "midi": 67,
            "name": "G4",
            "ticks": 10320,
            "time": 30.7142765,
            "velocity": 0.6456692913385826
          },
          {
            "duration": 0.7142855000000026,
            "durationTicks": 240,
            "midi": 66,
            "name": "F#4",
            "ticks": 10560,
            "time": 31.428562,
            "velocity": 0.6456692913385826
          },
          {
            "duration": 0.7142854999999955,
            "durationTicks": 240,
            "midi": 64,
            "name": "E4",
            "ticks": 10800,
            "time": 32.1428475,
            "velocity": 0.6456692913385826
          },
          {
            "duration": 0.7142855000000026,
            "durationTicks": 240,
            "midi": 62,
            "name": "D4",
            "ticks": 11040,
            "time": 32.857133,
            "velocity": 0.6456692913385826
          },
          {
            "duration": 0.7142855000000026,
            "durationTicks": 240,
            "midi": 61,
            "name": "C#4",
            "ticks": 11280,
            "time": 33.5714185,
            "velocity": 0.6456692913385826
          },
          {
            "duration": 0.7142854999999955,
            "durationTicks": 240,
            "midi": 62,
            "name": "D4",
            "ticks": 11520,
            "time": 34.285704,
            "velocity": 0.7086614173228346
          },
          {
            "duration": 0.7142855000000026,
            "durationTicks": 240,
            "midi": 57,
            "name": "A3",
            "ticks": 11760,
            "time": 34.9999895,
            "velocity": 0.7086614173228346
          },
          {
            "duration": 0.7142855000000026,
            "durationTicks": 240,
            "midi": 62,
            "name": "D4",
            "ticks": 12000,
            "time": 35.714275,
            "velocity": 0.7086614173228346
          },
          {
            "duration": 0.7142854999999955,
            "durationTicks": 240,
            "midi": 57,
            "name": "A3",
            "ticks": 12240,
            "time": 36.4285605,
            "velocity": 0.7086614173228346
          },
          {
            "duration": 0.7142855000000026,
            "durationTicks": 240,
            "midi": 62,
            "name": "D4",
            "ticks": 12480,
            "time": 37.142846,
            "velocity": 0.7086614173228346
          },
          {
            "duration": 0.6785712249999989,
            "durationTicks": 228,
            "midi": 57,
            "name": "A3",
            "ticks": 12720,
            "time": 37.8571315,
            "velocity": 0.7086614173228346
          },
          {
            "duration": 0.7142854999999955,
            "durationTicks": 240,
            "midi": 61,
            "name": "C#4",
            "ticks": 12960,
            "time": 38.571417000000004,
            "velocity": 0.7086614173228346
          },
          {
            "duration": 0.7142855000000026,
            "durationTicks": 240,
            "midi": 57,
            "name": "A3",
            "ticks": 13200,
            "time": 39.2857025,
            "velocity": 0.7086614173228346
          },
          {
            "duration": 0.7142855000000026,
            "durationTicks": 240,
            "midi": 62,
            "name": "D4",
            "ticks": 13440,
            "time": 39.999988,
            "velocity": 0.7086614173228346
          },
          {
            "duration": 0.7142854999999955,
            "durationTicks": 240,
            "midi": 57,
            "name": "A3",
            "ticks": 13680,
            "time": 40.714273500000004,
            "velocity": 0.7086614173228346
          },
          {
            "duration": 0.7142855000000026,
            "durationTicks": 240,
            "midi": 62,
            "name": "D4",
            "ticks": 13920,
            "time": 41.428559,
            "velocity": 0.7086614173228346
          },
          {
            "duration": 0.6785712249999989,
            "durationTicks": 228,
            "midi": 57,
            "name": "A3",
            "ticks": 14160,
            "time": 42.1428445,
            "velocity": 0.7086614173228346
          },
          {
            "duration": 0.7142855000000026,
            "durationTicks": 240,
            "midi": 62,
            "name": "D4",
            "ticks": 14400,
            "time": 42.85713,
            "velocity": 0.7086614173228346
          },
          {
            "duration": 0.7142855000000026,
            "durationTicks": 240,
            "midi": 57,
            "name": "A3",
            "ticks": 14640,
            "time": 43.5714155,
            "velocity": 0.7086614173228346
          },
          {
            "duration": 0.7142854999999955,
            "durationTicks": 240,
            "midi": 62,
            "name": "D4",
            "ticks": 14880,
            "time": 44.285701,
            "velocity": 0.7086614173228346
          },
          {
            "duration": 0.7142855000000026,
            "durationTicks": 240,
            "midi": 57,
            "name": "A3",
            "ticks": 15120,
            "time": 44.9999865,
            "velocity": 0.7086614173228346
          },
          {
            "duration": 0.7142855000000026,
            "durationTicks": 240,
            "midi": 62,
            "name": "D4",
            "ticks": 15360,
            "time": 45.714272,
            "velocity": 0.7086614173228346
          },
          {
            "duration": 0.6785712249999989,
            "durationTicks": 228,
            "midi": 57,
            "name": "A3",
            "ticks": 15600,
            "time": 46.428557500000004,
            "velocity": 0.7086614173228346
          },
          {
            "duration": 0.7142855000000026,
            "durationTicks": 240,
            "midi": 61,
            "name": "C#4",
            "ticks": 15840,
            "time": 47.142843,
            "velocity": 0.7086614173228346
          },
          {
            "duration": 0.7142855000000026,
            "durationTicks": 240,
            "midi": 57,
            "name": "A3",
            "ticks": 16080,
            "time": 47.8571285,
            "velocity": 0.7086614173228346
          },
          {
            "duration": 0.7142854999999955,
            "durationTicks": 240,
            "midi": 62,
            "name": "D4",
            "ticks": 16320,
            "time": 48.571414000000004,
            "velocity": 0.7086614173228346
          },
          {
            "duration": 0.7142855000000026,
            "durationTicks": 240,
            "midi": 57,
            "name": "A3",
            "ticks": 16560,
            "time": 49.2856995,
            "velocity": 0.7086614173228346
          },
          {
            "duration": 0.7142854999999955,
            "durationTicks": 240,
            "midi": 62,
            "name": "D4",
            "ticks": 16800,
            "time": 49.999985,
            "velocity": 0.7086614173228346
          },
          {
            "duration": 0.678571225000006,
            "durationTicks": 228,
            "midi": 57,
            "name": "A3",
            "ticks": 17040,
            "time": 50.7142705,
            "velocity": 0.7086614173228346
          },
          {
            "duration": 0.7142855000000026,
            "durationTicks": 240,
            "midi": 61,
            "name": "C#4",
            "ticks": 17280,
            "time": 51.428556,
            "velocity": 0.7086614173228346
          },
          {
            "duration": 0.7142854999999955,
            "durationTicks": 240,
            "midi": 57,
            "name": "A3",
            "ticks": 17520,
            "time": 52.1428415,
            "velocity": 0.7086614173228346
          },
          {
            "duration": 0.7142855000000026,
            "durationTicks": 240,
            "midi": 61,
            "name": "C#4",
            "ticks": 17760,
            "time": 52.857127,
            "velocity": 0.7086614173228346
          },
          {
            "duration": 0.7142855000000026,
            "durationTicks": 240,
            "midi": 57,
            "name": "A3",
            "ticks": 18000,
            "time": 53.5714125,
            "velocity": 0.7086614173228346
          },
          {
            "duration": 0.7142854999999955,
            "durationTicks": 240,
            "midi": 62,
            "name": "D4",
            "ticks": 18240,
            "time": 54.285698000000004,
            "velocity": 0.7086614173228346
          },
          {
            "duration": 0.678571225000006,
            "durationTicks": 228,
            "midi": 57,
            "name": "A3",
            "ticks": 18480,
            "time": 54.9999835,
            "velocity": 0.7086614173228346
          },
          {
            "duration": 0.7142855000000026,
            "durationTicks": 240,
            "midi": 61,
            "name": "C#4",
            "ticks": 18720,
            "time": 55.714269,
            "velocity": 0.7086614173228346
          },
          {
            "duration": 0.7142854999999955,
            "durationTicks": 240,
            "midi": 57,
            "name": "A3",
            "ticks": 18960,
            "time": 56.428554500000004,
            "velocity": 0.7086614173228346
          },
          {
            "duration": 0.7142855000000026,
            "durationTicks": 240,
            "midi": 61,
            "name": "C#4",
            "ticks": 19200,
            "time": 57.14284,
            "velocity": 0.7086614173228346
          },
          {
            "duration": 0.7142855000000026,
            "durationTicks": 240,
            "midi": 57,
            "name": "A3",
            "ticks": 19440,
            "time": 57.8571255,
            "velocity": 0.7086614173228346
          },
          {
            "duration": 0.7142854999999955,
            "durationTicks": 240,
            "midi": 59,
            "name": "B3",
            "ticks": 19680,
            "time": 58.571411000000005,
            "velocity": 0.7086614173228346
          },
          {
            "duration": 0.678571225000006,
            "durationTicks": 228,
            "midi": 62,
            "name": "D4",
            "ticks": 19920,
            "time": 59.2856965,
            "velocity": 0.7086614173228346
          },
          {
            "duration": 0.7142854999999955,
            "durationTicks": 240,
            "midi": 57,
            "name": "A3",
            "ticks": 20160,
            "time": 59.999982,
            "velocity": 0.7086614173228346
          },
          {
            "duration": 0.7142855000000026,
            "durationTicks": 240,
            "midi": 61,
            "name": "C#4",
            "ticks": 20400,
            "time": 60.7142675,
            "velocity": 0.7086614173228346
          },
          {
            "duration": 0.7142855000000026,
            "durationTicks": 240,
            "midi": 57,
            "name": "A3",
            "ticks": 20640,
            "time": 61.428553,
            "velocity": 0.7086614173228346
          },
          {
            "duration": 0.7142854999999955,
            "durationTicks": 240,
            "midi": 61,
            "name": "C#4",
            "ticks": 20880,
            "time": 62.1428385,
            "velocity": 0.7086614173228346
          },
          {
            "duration": 0.7142855000000026,
            "durationTicks": 240,
            "midi": 56,
            "name": "G#3",
            "ticks": 21120,
            "time": 62.857124,
            "velocity": 0.7086614173228346
          },
          {
            "duration": 0.5714284000000021,
            "durationTicks": 192,
            "midi": 59,
            "name": "B3",
            "ticks": 21360,
            "time": 63.5714095,
            "velocity": 0.7086614173228346
          },
          {
            "duration": 1.14285679999999,
            "durationTicks": 384,
            "midi": 57,
            "name": "A3",
            "ticks": 21600,
            "time": 64.285695,
            "velocity": 0.6299212598425197
          },
          {
            "duration": 4.071427349999993,
            "durationTicks": 1368,
            "midi": 54,
            "name": "F#3",
            "ticks": 23040,
            "time": 68.571408,
            "velocity": 0.4881889763779528
          },
          {
            "duration": 1.3571424499999978,
            "durationTicks": 456,
            "midi": 55,
            "name": "G3",
            "ticks": 24480,
            "time": 72.857121,
            "velocity": 0.4881889763779528
          },
          {
            "duration": 1.4285710000000051,
            "durationTicks": 480,
            "midi": 60,
            "name": "C4",
            "ticks": 24960,
            "time": 74.285692,
            "velocity": 0.6456692913385826
          },
          {
            "duration": 0.7142855000000026,
            "durationTicks": 240,
            "midi": 59,
            "name": "B3",
            "ticks": 25440,
            "time": 75.714263,
            "velocity": 0.4881889763779528
          },
          {
            "duration": 0.6785712249999989,
            "durationTicks": 228,
            "midi": 57,
            "name": "A3",
            "ticks": 25680,
            "time": 76.4285485,
            "velocity": 0.4881889763779528
          },
          {
            "duration": 4.071427349999993,
            "durationTicks": 1368,
            "midi": 55,
            "name": "G3",
            "ticks": 25920,
            "time": 77.14283400000001,
            "velocity": 0.4881889763779528
          },
          {
            "duration": 1.3571424499999978,
            "durationTicks": 456,
            "midi": 57,
            "name": "A3",
            "ticks": 27360,
            "time": 81.42854700000001,
            "velocity": 0.4881889763779528
          },
          {
            "duration": 1.4285710000000051,
            "durationTicks": 480,
            "midi": 62,
            "name": "D4",
            "ticks": 27840,
            "time": 82.857118,
            "velocity": 0.6456692913385826
          },
          {
            "duration": 0.7142855000000026,
            "durationTicks": 240,
            "midi": 61,
            "name": "C#4",
            "ticks": 28320,
            "time": 84.285689,
            "velocity": 0.4881889763779528
          },
          {
            "duration": 0.6785712249999989,
            "durationTicks": 228,
            "midi": 59,
            "name": "B3",
            "ticks": 28560,
            "time": 84.99997450000001,
            "velocity": 0.4881889763779528
          },
          {
            "duration": 1.4285710000000051,
            "durationTicks": 480,
            "midi": 57,
            "name": "A3",
            "ticks": 28800,
            "time": 85.71426,
            "velocity": 0.4881889763779528
          },
          {
            "duration": 1.4285710000000051,
            "durationTicks": 480,
            "midi": 55,
            "name": "G3",
            "ticks": 29280,
            "time": 87.142831,
            "velocity": 0.4881889763779528
          },
          {
            "duration": 1.3571424499999978,
            "durationTicks": 456,
            "midi": 57,
            "name": "A3",
            "ticks": 29760,
            "time": 88.571402,
            "velocity": 0.4881889763779528
          },
          {
            "duration": 1.4285710000000051,
            "durationTicks": 480,
            "midi": 59,
            "name": "B3",
            "ticks": 30240,
            "time": 89.999973,
            "velocity": 0.4881889763779528
          },
          {
            "duration": 1.4285710000000051,
            "durationTicks": 480,
            "midi": 61,
            "name": "C#4",
            "ticks": 30720,
            "time": 91.428544,
            "velocity": 0.4881889763779528
          },
          {
            "duration": 1.3571424499999978,
            "durationTicks": 456,
            "midi": 62,
            "name": "D4",
            "ticks": 31200,
            "time": 92.85711500000001,
            "velocity": 0.4881889763779528
          },
          {
            "duration": 0.7142855000000026,
            "durationTicks": 240,
            "midi": 55,
            "name": "G3",
            "ticks": 31680,
            "time": 94.285686,
            "velocity": 0.4881889763779528
          },
          {
            "duration": 0.6785712249999989,
            "durationTicks": 228,
            "midi": 59,
            "name": "B3",
            "ticks": 31920,
            "time": 94.9999715,
            "velocity": 0.4881889763779528
          },
          {
            "duration": 2.1428564999999935,
            "durationTicks": 720,
            "midi": 57,
            "name": "A3",
            "ticks": 32160,
            "time": 95.714257,
            "velocity": 0.4881889763779528
          },
          {
            "duration": 0.6785712249999989,
            "durationTicks": 228,
            "midi": 55,
            "name": "G3",
            "ticks": 32880,
            "time": 97.8571135,
            "velocity": 0.4881889763779528
          },
          {
            "duration": 0.4642855750000052,
            "durationTicks": 156,
            "midi": 54,
            "name": "F#3",
            "ticks": 33120,
            "time": 98.571399,
            "velocity": 0.4881889763779528
          },
          {
            "duration": 0.7142855000000026,
            "durationTicks": 240,
            "midi": 67,
            "name": "G4",
            "ticks": 33360,
            "time": 99.2856845,
            "velocity": 0.6456692913385826
          },
          {
            "duration": 0.7142855000000026,
            "durationTicks": 240,
            "midi": 66,
            "name": "F#4",
            "ticks": 33600,
            "time": 99.99997,
            "velocity": 0.6456692913385826
          },
          {
            "duration": 0.7142854999999884,
            "durationTicks": 240,
            "midi": 64,
            "name": "E4",
            "ticks": 33840,
            "time": 100.71425550000001,
            "velocity": 0.6456692913385826
          },
          {
            "duration": 0.7142855000000026,
            "durationTicks": 240,
            "midi": 62,
            "name": "D4",
            "ticks": 34080,
            "time": 101.428541,
            "velocity": 0.6456692913385826
          },
          {
            "duration": 0.5714284000000163,
            "durationTicks": 192,
            "midi": 61,
            "name": "C#4",
            "ticks": 34320,
            "time": 102.1428265,
            "velocity": 0.6456692913385826
          },
          {
            "duration": 0.7142855000000026,
            "durationTicks": 240,
            "midi": 62,
            "name": "D4",
            "ticks": 34560,
            "time": 102.857112,
            "velocity": 0.7086614173228346
          },
          {
            "duration": 0.7142855000000026,
            "durationTicks": 240,
            "midi": 54,
            "name": "F#3",
            "ticks": 34800,
            "time": 103.5713975,
            "velocity": 0.7086614173228346
          },
          {
            "duration": 0.7142855000000026,
            "durationTicks": 240,
            "midi": 62,
            "name": "D4",
            "ticks": 35040,
            "time": 104.285683,
            "velocity": 0.7086614173228346
          },
          {
            "duration": 0.7142854999999884,
            "durationTicks": 240,
            "midi": 61,
            "name": "C#4",
            "ticks": 35280,
            "time": 104.99996850000001,
            "velocity": 0.7086614173228346
          },
          {
            "duration": 0.7142855000000026,
            "durationTicks": 240,
            "midi": 59,
            "name": "B3",
            "ticks": 35520,
            "time": 105.714254,
            "velocity": 0.7086614173228346
          },
          {
            "duration": 0.7142855000000026,
            "durationTicks": 240,
            "midi": 57,
            "name": "A3",
            "ticks": 35760,
            "time": 106.4285395,
            "velocity": 0.7086614173228346
          },
          {
            "duration": 0.5714284000000021,
            "durationTicks": 192,
            "midi": 55,
            "name": "G3",
            "ticks": 36000,
            "time": 107.142825,
            "velocity": 0.7086614173228346
          },
          {
            "duration": 1.4285710000000051,
            "durationTicks": 480,
            "midi": 67,
            "name": "G4",
            "ticks": 36240,
            "time": 107.8571105,
            "velocity": 0.8661417322834646
          },
          {
            "duration": 0.7142854999999884,
            "durationTicks": 240,
            "midi": 66,
            "name": "F#4",
            "ticks": 36720,
            "time": 109.28568150000001,
            "velocity": 0.7086614173228346
          },
          {
            "duration": 0.7142855000000026,
            "durationTicks": 240,
            "midi": 64,
            "name": "E4",
            "ticks": 36960,
            "time": 109.999967,
            "velocity": 0.7086614173228346
          },
          {
            "duration": 0.5714284000000163,
            "durationTicks": 192,
            "midi": 63,
            "name": "D#4",
            "ticks": 37200,
            "time": 110.7142525,
            "velocity": 0.7086614173228346
          },
          {
            "duration": 0.7142855000000026,
            "durationTicks": 240,
            "midi": 64,
            "name": "E4",
            "ticks": 37440,
            "time": 111.428538,
            "velocity": 0.7086614173228346
          },
          {
            "duration": 0.7142855000000026,
            "durationTicks": 240,
            "midi": 55,
            "name": "G3",
            "ticks": 37680,
            "time": 112.1428235,
            "velocity": 0.7086614173228346
          },
          {
            "duration": 0.7142854999999884,
            "durationTicks": 240,
            "midi": 59,
            "name": "B3",
            "ticks": 37920,
            "time": 112.85710900000001,
            "velocity": 0.7086614173228346
          },
          {
            "duration": 0.7142855000000026,
            "durationTicks": 240,
            "midi": 57,
            "name": "A3",
            "ticks": 38160,
            "time": 113.5713945,
            "velocity": 0.7086614173228346
          },
          {
            "duration": 0.7142855000000026,
            "durationTicks": 240,
            "midi": 55,
            "name": "G3",
            "ticks": 38400,
            "time": 114.28568,
            "velocity": 0.7086614173228346
          },
          {
            "duration": 0.7142855000000026,
            "durationTicks": 240,
            "midi": 54,
            "name": "F#3",
            "ticks": 38640,
            "time": 114.9999655,
            "velocity": 0.7086614173228346
          },
          {
            "duration": 0.5714284000000021,
            "durationTicks": 192,
            "midi": 52,
            "name": "E3",
            "ticks": 38880,
            "time": 115.714251,
            "velocity": 0.7086614173228346
          },
          {
            "duration": 1.428570999999991,
            "durationTicks": 480,
            "midi": 69,
            "name": "A4",
            "ticks": 39120,
            "time": 116.4285365,
            "velocity": 0.8661417322834646
          },
          {
            "duration": 0.7142855000000026,
            "durationTicks": 240,
            "midi": 68,
            "name": "G#4",
            "ticks": 39600,
            "time": 117.8571075,
            "velocity": 0.7086614173228346
          },
          {
            "duration": 0.7142855000000026,
            "durationTicks": 240,
            "midi": 66,
            "name": "F#4",
            "ticks": 39840,
            "time": 118.571393,
            "velocity": 0.7086614173228346
          },
          {
            "duration": 0.5714284000000021,
            "durationTicks": 192,
            "midi": 65,
            "name": "F4",
            "ticks": 40080,
            "time": 119.2856785,
            "velocity": 0.7086614173228346
          },
          {
            "duration": 0.7142855000000026,
            "durationTicks": 240,
            "midi": 66,
            "name": "F#4",
            "ticks": 40320,
            "time": 119.999964,
            "velocity": 0.7086614173228346
          },
          {
            "duration": 0.7142854999999884,
            "durationTicks": 240,
            "midi": 57,
            "name": "A3",
            "ticks": 40560,
            "time": 120.71424950000001,
            "velocity": 0.7086614173228346
          },
          {
            "duration": 0.7142855000000026,
            "durationTicks": 240,
            "midi": 61,
            "name": "C#4",
            "ticks": 40800,
            "time": 121.428535,
            "velocity": 0.7086614173228346
          },
          {
            "duration": 0.7142855000000026,
            "durationTicks": 240,
            "midi": 59,
            "name": "B3",
            "ticks": 41040,
            "time": 122.1428205,
            "velocity": 0.7086614173228346
          },
          {
            "duration": 0.7142855000000026,
            "durationTicks": 240,
            "midi": 57,
            "name": "A3",
            "ticks": 41280,
            "time": 122.857106,
            "velocity": 0.7086614173228346
          },
          {
            "duration": 0.5714284000000021,
            "durationTicks": 192,
            "midi": 55,
            "name": "G3",
            "ticks": 41520,
            "time": 123.5713915,
            "velocity": 0.7086614173228346
          },
          {
            "duration": 0.7142855000000026,
            "durationTicks": 240,
            "midi": 54,
            "name": "F#3",
            "ticks": 41760,
            "time": 124.285677,
            "velocity": 0.7086614173228346
          },
          {
            "duration": 0.7142854999999884,
            "durationTicks": 240,
            "midi": 62,
            "name": "D4",
            "ticks": 42000,
            "time": 124.99996250000001,
            "velocity": 0.7086614173228346
          },
          {
            "duration": 0.7142855000000026,
            "durationTicks": 240,
            "midi": 57,
            "name": "A3",
            "ticks": 42240,
            "time": 125.714248,
            "velocity": 0.7086614173228346
          },
          {
            "duration": 0.7142855000000026,
            "durationTicks": 240,
            "midi": 64,
            "name": "E4",
            "ticks": 42480,
            "time": 126.4285335,
            "velocity": 0.7086614173228346
          },
          {
            "duration": 0.7142855000000026,
            "durationTicks": 240,
            "midi": 57,
            "name": "A3",
            "ticks": 42720,
            "time": 127.142819,
            "velocity": 0.7086614173228346
          },
          {
            "duration": 0.7142855000000026,
            "durationTicks": 240,
            "midi": 62,
            "name": "D4",
            "ticks": 42960,
            "time": 127.8571045,
            "velocity": 0.7086614173228346
          },
          {
            "duration": 0.7142854999999884,
            "durationTicks": 240,
            "midi": 59,
            "name": "B3",
            "ticks": 43200,
            "time": 128.57139,
            "velocity": 0.7086614173228346
          },
          {
            "duration": 0.7142855000000168,
            "durationTicks": 240,
            "midi": 64,
            "name": "E4",
            "ticks": 43440,
            "time": 129.2856755,
            "velocity": 0.7086614173228346
          },
          {
            "duration": 0.7142854999999884,
            "durationTicks": 240,
            "midi": 57,
            "name": "A3",
            "ticks": 43680,
            "time": 129.999961,
            "velocity": 0.7086614173228346
          },
          {
            "duration": 0.7142854999999884,
            "durationTicks": 240,
            "midi": 66,
            "name": "F#4",
            "ticks": 43920,
            "time": 130.7142465,
            "velocity": 0.7086614173228346
          },
          {
            "duration": 0.7142855000000168,
            "durationTicks": 240,
            "midi": 61,
            "name": "C#4",
            "ticks": 44160,
            "time": 131.428532,
            "velocity": 0.7086614173228346
          },
          {
            "duration": 0.7142854999999884,
            "durationTicks": 240,
            "midi": 64,
            "name": "E4",
            "ticks": 44400,
            "time": 132.1428175,
            "velocity": 0.7086614173228346
          },
          {
            "duration": 1.1428568000000041,
            "durationTicks": 384,
            "midi": 62,
            "name": "D4",
            "ticks": 44640,
            "time": 132.857103,
            "velocity": 0.6299212598425197
          },
          {
            "duration": 0.5714284000000021,
            "durationTicks": 192,
            "midi": 57,
            "name": "A3",
            "ticks": 46320,
            "time": 137.8571015,
            "velocity": 0.4881889763779528
          },
          {
            "duration": 0.5714284000000021,
            "durationTicks": 192,
            "midi": 57,
            "name": "A3",
            "ticks": 46560,
            "time": 138.57138700000002,
            "velocity": 0.4881889763779528
          },
          {
            "duration": 0.5714284000000021,
            "durationTicks": 192,
            "midi": 57,
            "name": "A3",
            "ticks": 46800,
            "time": 139.2856725,
            "velocity": 0.4881889763779528
          },
          {
            "duration": 0.5714284000000305,
            "durationTicks": 192,
            "midi": 57,
            "name": "A3",
            "ticks": 47040,
            "time": 139.999958,
            "velocity": 0.4881889763779528
          },
          {
            "duration": 0.5714284000000021,
            "durationTicks": 192,
            "midi": 57,
            "name": "A3",
            "ticks": 47280,
            "time": 140.7142435,
            "velocity": 0.4881889763779528
          },
          {
            "duration": 0.5714284000000021,
            "durationTicks": 192,
            "midi": 57,
            "name": "A3",
            "ticks": 47760,
            "time": 142.14281450000001,
            "velocity": 0.4881889763779528
          },
          {
            "duration": 0.5714284000000021,
            "durationTicks": 192,
            "midi": 57,
            "name": "A3",
            "ticks": 48000,
            "time": 142.8571,
            "velocity": 0.4881889763779528
          },
          {
            "duration": 0.5714284000000305,
            "durationTicks": 192,
            "midi": 57,
            "name": "A3",
            "ticks": 48240,
            "time": 143.5713855,
            "velocity": 0.4881889763779528
          },
          {
            "duration": 0.5714284000000021,
            "durationTicks": 192,
            "midi": 57,
            "name": "A3",
            "ticks": 48480,
            "time": 144.285671,
            "velocity": 0.4881889763779528
          },
          {
            "duration": 0.5714284000000021,
            "durationTicks": 192,
            "midi": 57,
            "name": "A3",
            "ticks": 48720,
            "time": 144.9999565,
            "velocity": 0.4881889763779528
          },
          {
            "duration": 1.3571424499999978,
            "durationTicks": 456,
            "midi": 56,
            "name": "G#3",
            "ticks": 49200,
            "time": 146.4285275,
            "velocity": 0.4881889763779528
          },
          {
            "duration": 1.1428568000000041,
            "durationTicks": 384,
            "midi": 56,
            "name": "G#3",
            "ticks": 49680,
            "time": 147.8570985,
            "velocity": 0.4881889763779528
          },
          {
            "duration": 1.1785710750000078,
            "durationTicks": 396,
            "midi": 56,
            "name": "G#3",
            "ticks": 50160,
            "time": 149.2856695,
            "velocity": 0.4881889763779528
          },
          {
            "duration": 0.464285574999991,
            "durationTicks": 156,
            "midi": 52,
            "name": "E3",
            "ticks": 50640,
            "time": 150.71424050000002,
            "velocity": 0.4881889763779528
          },
          {
            "duration": 1.1428568000000041,
            "durationTicks": 384,
            "midi": 52,
            "name": "E3",
            "ticks": 50880,
            "time": 151.428526,
            "velocity": 0.4881889763779528
          },
          {
            "duration": 8.35714034999998,
            "durationTicks": 2808,
            "midi": 57,
            "name": "A3",
            "ticks": 51840,
            "time": 154.28566800000002,
            "velocity": 0.4881889763779528
          },
          {
            "duration": 8.35714034999998,
            "durationTicks": 2808,
            "midi": 57,
            "name": "A3",
            "ticks": 54720,
            "time": 162.85709400000002,
            "velocity": 0.4881889763779528
          },
          {
            "duration": 4.8571414000000175,
            "durationTicks": 1632,
            "midi": 52,
            "name": "E3",
            "ticks": 57600,
            "time": 171.42852,
            "velocity": 0.4881889763779528
          },
          {
            "duration": 0.5714284000000021,
            "durationTicks": 192,
            "midi": 57,
            "name": "A3",
            "ticks": 59520,
            "time": 177.142804,
            "velocity": 0.4881889763779528
          },
          {
            "duration": 0.5714284000000021,
            "durationTicks": 192,
            "midi": 59,
            "name": "B3",
            "ticks": 60000,
            "time": 178.57137500000002,
            "velocity": 0.4881889763779528
          },
          {
            "duration": 4.154760658333345,
            "durationTicks": 1396,
            "midi": 52,
            "name": "E3",
            "ticks": 60480,
            "time": 179.999946,
            "velocity": 0.4881889763779528
          },
          {
            "duration": 1.4285710000000051,
            "durationTicks": 480,
            "midi": 59,
            "name": "B3",
            "ticks": 61920,
            "time": 184.285659,
            "velocity": 0.4881889763779528
          },
          {
            "duration": 0.4642855749999626,
            "durationTicks": 156,
            "midi": 57,
            "name": "A3",
            "ticks": 62400,
            "time": 185.71423000000001,
            "velocity": 0.4881889763779528
          },
          {
            "duration": 0.7142854999999884,
            "durationTicks": 240,
            "midi": 57,
            "name": "A3",
            "ticks": 62640,
            "time": 186.4285155,
            "velocity": 0.4881889763779528
          },
          {
            "duration": 0.7142855000000168,
            "durationTicks": 240,
            "midi": 56,
            "name": "G#3",
            "ticks": 62880,
            "time": 187.142801,
            "velocity": 0.4881889763779528
          },
          {
            "duration": 0.7142854999999884,
            "durationTicks": 240,
            "midi": 54,
            "name": "F#3",
            "ticks": 63120,
            "time": 187.8570865,
            "velocity": 0.4881889763779528
          },
          {
            "duration": 0.42857130000001575,
            "durationTicks": 144,
            "midi": 52,
            "name": "E3",
            "ticks": 63360,
            "time": 188.571372,
            "velocity": 0.4881889763779528
          },
          {
            "duration": 0.42857130000001575,
            "durationTicks": 144,
            "midi": 64,
            "name": "E4",
            "ticks": 63600,
            "time": 189.2856575,
            "velocity": 0.4881889763779528
          },
          {
            "duration": 0.42857130000001575,
            "durationTicks": 144,
            "midi": 61,
            "name": "C#4",
            "ticks": 63840,
            "time": 189.999943,
            "velocity": 0.4881889763779528
          },
          {
            "duration": 0.42857130000001575,
            "durationTicks": 144,
            "midi": 64,
            "name": "E4",
            "ticks": 64080,
            "time": 190.71422850000002,
            "velocity": 0.4881889763779528
          },
          {
            "duration": 0.42857130000001575,
            "durationTicks": 144,
            "midi": 61,
            "name": "C#4",
            "ticks": 64320,
            "time": 191.428514,
            "velocity": 0.4881889763779528
          },
          {
            "duration": 0.42857130000001575,
            "durationTicks": 144,
            "midi": 64,
            "name": "E4",
            "ticks": 64560,
            "time": 192.1427995,
            "velocity": 0.4881889763779528
          },
          {
            "duration": 0.42857130000001575,
            "durationTicks": 144,
            "midi": 62,
            "name": "D4",
            "ticks": 65040,
            "time": 193.5713705,
            "velocity": 0.4881889763779528
          },
          {
            "duration": 0.42857130000001575,
            "durationTicks": 144,
            "midi": 59,
            "name": "B3",
            "ticks": 65280,
            "time": 194.28565600000002,
            "velocity": 0.4881889763779528
          },
          {
            "duration": 0.42857130000001575,
            "durationTicks": 144,
            "midi": 66,
            "name": "F#4",
            "ticks": 65520,
            "time": 194.9999415,
            "velocity": 0.4881889763779528
          },
          {
            "duration": 0.42857130000001575,
            "durationTicks": 144,
            "midi": 62,
            "name": "D4",
            "ticks": 65760,
            "time": 195.714227,
            "velocity": 0.4881889763779528
          },
          {
            "duration": 0.42857130000001575,
            "durationTicks": 144,
            "midi": 66,
            "name": "F#4",
            "ticks": 66000,
            "time": 196.4285125,
            "velocity": 0.4881889763779528
          },
          {
            "duration": 0.42857130000001575,
            "durationTicks": 144,
            "midi": 64,
            "name": "E4",
            "ticks": 66480,
            "time": 197.85708350000002,
            "velocity": 0.4881889763779528
          },
          {
            "duration": 0.42857130000001575,
            "durationTicks": 144,
            "midi": 61,
            "name": "C#4",
            "ticks": 66720,
            "time": 198.571369,
            "velocity": 0.4881889763779528
          },
          {
            "duration": 0.42857130000001575,
            "durationTicks": 144,
            "midi": 67,
            "name": "G4",
            "ticks": 66960,
            "time": 199.2856545,
            "velocity": 0.4881889763779528
          },
          {
            "duration": 0.42857130000001575,
            "durationTicks": 144,
            "midi": 64,
            "name": "E4",
            "ticks": 67200,
            "time": 199.99994,
            "velocity": 0.4881889763779528
          },
          {
            "duration": 0.42857130000001575,
            "durationTicks": 144,
            "midi": 67,
            "name": "G4",
            "ticks": 67440,
            "time": 200.7142255,
            "velocity": 0.4881889763779528
          },
          {
            "duration": 0.42857130000001575,
            "durationTicks": 144,
            "midi": 66,
            "name": "F#4",
            "ticks": 67920,
            "time": 202.1427965,
            "velocity": 0.4881889763779528
          },
          {
            "duration": 0.4285713000000442,
            "durationTicks": 144,
            "midi": 62,
            "name": "D4",
            "ticks": 68160,
            "time": 202.857082,
            "velocity": 0.4881889763779528
          },
          {
            "duration": 0.42857130000001575,
            "durationTicks": 144,
            "midi": 69,
            "name": "A4",
            "ticks": 68400,
            "time": 203.5713675,
            "velocity": 0.4881889763779528
          },
          {
            "duration": 0.42857130000001575,
            "durationTicks": 144,
            "midi": 66,
            "name": "F#4",
            "ticks": 68640,
            "time": 204.285653,
            "velocity": 0.4881889763779528
          },
          {
            "duration": 0.42857130000001575,
            "durationTicks": 144,
            "midi": 69,
            "name": "A4",
            "ticks": 68880,
            "time": 204.9999385,
            "velocity": 0.4881889763779528
          },
          {
            "duration": 0.4642855749999626,
            "durationTicks": 156,
            "midi": 59,
            "name": "B3",
            "ticks": 69360,
            "time": 206.42850950000002,
            "velocity": 0.4881889763779528
          },
          {
            "duration": 0.464285574999991,
            "durationTicks": 156,
            "midi": 52,
            "name": "E3",
            "ticks": 69600,
            "time": 207.142795,
            "velocity": 0.4881889763779528
          },
          {
            "duration": 0.464285574999991,
            "durationTicks": 156,
            "midi": 64,
            "name": "E4",
            "ticks": 69840,
            "time": 207.8570805,
            "velocity": 0.4881889763779528
          },
          {
            "duration": 0.464285574999991,
            "durationTicks": 156,
            "midi": 59,
            "name": "B3",
            "ticks": 70080,
            "time": 208.571366,
            "velocity": 0.4881889763779528
          },
          {
            "duration": 0.464285574999991,
            "durationTicks": 156,
            "midi": 71,
            "name": "B4",
            "ticks": 70320,
            "time": 209.2856515,
            "velocity": 0.4881889763779528
          },
          {
            "duration": 1.1428568000000041,
            "durationTicks": 384,
            "midi": 57,
            "name": "A3",
            "ticks": 70560,
            "time": 209.99993700000002,
            "velocity": 0.4881889763779528
          },
          {
            "duration": 1.1428568000000041,
            "durationTicks": 384,
            "midi": 54,
            "name": "F#3",
            "ticks": 72000,
            "time": 214.28565,
            "velocity": 0.4881889763779528
          },
          {
            "duration": 0.5714284000000021,
            "durationTicks": 192,
            "midi": 52,
            "name": "E3",
            "ticks": 73680,
            "time": 219.2856485,
            "velocity": 0.4881889763779528
          },
          {
            "duration": 0.5714284000000305,
            "durationTicks": 192,
            "midi": 52,
            "name": "E3",
            "ticks": 73920,
            "time": 219.999934,
            "velocity": 0.4881889763779528
          },
          {
            "duration": 0.5714284000000021,
            "durationTicks": 192,
            "midi": 52,
            "name": "E3",
            "ticks": 74160,
            "time": 220.7142195,
            "velocity": 0.4881889763779528
          },
          {
            "duration": 0.5714284000000021,
            "durationTicks": 192,
            "midi": 52,
            "name": "E3",
            "ticks": 74400,
            "time": 221.428505,
            "velocity": 0.4881889763779528
          },
          {
            "duration": 0.5714284000000021,
            "durationTicks": 192,
            "midi": 52,
            "name": "E3",
            "ticks": 74640,
            "time": 222.14279050000002,
            "velocity": 0.4881889763779528
          },
          {
            "duration": 0.5714284000000021,
            "durationTicks": 192,
            "midi": 52,
            "name": "E3",
            "ticks": 74880,
            "time": 222.857076,
            "velocity": 0.4881889763779528
          },
          {
            "duration": 0.5714284000000305,
            "durationTicks": 192,
            "midi": 52,
            "name": "E3",
            "ticks": 75120,
            "time": 223.5713615,
            "velocity": 0.4881889763779528
          },
          {
            "duration": 0.5714284000000021,
            "durationTicks": 192,
            "midi": 52,
            "name": "E3",
            "ticks": 75360,
            "time": 224.285647,
            "velocity": 0.4881889763779528
          },
          {
            "duration": 0.5714284000000021,
            "durationTicks": 192,
            "midi": 52,
            "name": "E3",
            "ticks": 75600,
            "time": 224.9999325,
            "velocity": 0.5590551181102362
          },
          {
            "duration": 0.4642855749999626,
            "durationTicks": 156,
            "midi": 50,
            "name": "D3",
            "ticks": 75840,
            "time": 225.71421800000002,
            "velocity": 0.6299212598425197
          },
          {
            "duration": 0.464285574999991,
            "durationTicks": 156,
            "midi": 50,
            "name": "D3",
            "ticks": 76080,
            "time": 226.4285035,
            "velocity": 0.7086614173228346
          },
          {
            "duration": 0.5714284000000305,
            "durationTicks": 192,
            "midi": 49,
            "name": "C#3",
            "ticks": 76320,
            "time": 227.142789,
            "velocity": 0.8267716535433071
          },
          {
            "duration": 1.1428568000000041,
            "durationTicks": 384,
            "midi": 61,
            "name": "C#4",
            "ticks": 76560,
            "time": 227.8570745,
            "velocity": 0.8267716535433071
          },
          {
            "duration": 1.1428568000000041,
            "durationTicks": 384,
            "midi": 64,
            "name": "E4",
            "ticks": 77040,
            "time": 229.28564550000002,
            "velocity": 0.8267716535433071
          },
          {
            "duration": 0.5714284000000305,
            "durationTicks": 192,
            "midi": 69,
            "name": "A4",
            "ticks": 77520,
            "time": 230.7142165,
            "velocity": 0.8267716535433071
          },
          {
            "duration": 1.1428568000000041,
            "durationTicks": 384,
            "midi": 73,
            "name": "C#5",
            "ticks": 77760,
            "time": 231.428502,
            "velocity": 0.7086614173228346
          },
          {
            "duration": 0.5714284000000305,
            "durationTicks": 192,
            "midi": 56,
            "name": "G#3",
            "ticks": 79200,
            "time": 235.714215,
            "velocity": 0.8267716535433071
          },
          {
            "duration": 1.1428568000000041,
            "durationTicks": 384,
            "midi": 59,
            "name": "B3",
            "ticks": 79440,
            "time": 236.4285005,
            "velocity": 0.8267716535433071
          },
          {
            "duration": 1.1428568000000041,
            "durationTicks": 384,
            "midi": 62,
            "name": "D4",
            "ticks": 79920,
            "time": 237.85707150000002,
            "velocity": 0.8267716535433071
          },
          {
            "duration": 0.5714284000000305,
            "durationTicks": 192,
            "midi": 68,
            "name": "G#4",
            "ticks": 80400,
            "time": 239.2856425,
            "velocity": 0.8267716535433071
          },
          {
            "duration": 1.1428568000000041,
            "durationTicks": 384,
            "midi": 71,
            "name": "B4",
            "ticks": 80640,
            "time": 239.999928,
            "velocity": 0.7086614173228346
          },
          {
            "duration": 0.5714284000000021,
            "durationTicks": 192,
            "midi": 52,
            "name": "E3",
            "ticks": 82080,
            "time": 244.285641,
            "velocity": 0.8267716535433071
          },
          {
            "duration": 1.1428568000000041,
            "durationTicks": 384,
            "midi": 61,
            "name": "C#4",
            "ticks": 82320,
            "time": 244.99992650000002,
            "velocity": 0.8267716535433071
          },
          {
            "duration": 1.1428568000000041,
            "durationTicks": 384,
            "midi": 64,
            "name": "E4",
            "ticks": 82800,
            "time": 246.42849750000002,
            "velocity": 0.8267716535433071
          },
          {
            "duration": 0.5714284000000305,
            "durationTicks": 192,
            "midi": 67,
            "name": "G4",
            "ticks": 83280,
            "time": 247.8570685,
            "velocity": 0.8267716535433071
          },
          {
            "duration": 1.1428568000000041,
            "durationTicks": 384,
            "midi": 73,
            "name": "C#5",
            "ticks": 83520,
            "time": 248.571354,
            "velocity": 0.8267716535433071
          },
          {
            "duration": 8.357140349999952,
            "durationTicks": 2808,
            "midi": 57,
            "name": "A3",
            "ticks": 87000,
            "time": 258.92849375000003,
            "velocity": 0.4881889763779528
          },
          {
            "duration": 8.357140350000009,
            "durationTicks": 2808,
            "midi": 57,
            "name": "A3",
            "ticks": 89880,
            "time": 267.49991975,
            "velocity": 0.4881889763779528
          },
          {
            "duration": 6.999997899999983,
            "durationTicks": 2352,
            "midi": 57,
            "name": "A3",
            "ticks": 92760,
            "time": 276.07134575000003,
            "velocity": 0.4881889763779528
          },
          {
            "duration": 1.3571424499999694,
            "durationTicks": 456,
            "midi": 54,
            "name": "F#3",
            "ticks": 95160,
            "time": 283.21420075000003,
            "velocity": 0.4881889763779528
          },
          {
            "duration": 5.428569799999991,
            "durationTicks": 1824,
            "midi": 52,
            "name": "E3",
            "ticks": 95640,
            "time": 284.64277175,
            "velocity": 0.4881889763779528
          },
          {
            "duration": 4.071427350000022,
            "durationTicks": 1368,
            "midi": 54,
            "name": "F#3",
            "ticks": 98520,
            "time": 293.21419775,
            "velocity": 0.4881889763779528
          },
          {
            "duration": 1.3571424499999694,
            "durationTicks": 456,
            "midi": 55,
            "name": "G3",
            "ticks": 99960,
            "time": 297.49991075,
            "velocity": 0.4881889763779528
          },
          {
            "duration": 1.4285709999999767,
            "durationTicks": 480,
            "midi": 60,
            "name": "C4",
            "ticks": 100440,
            "time": 298.92848175,
            "velocity": 0.6456692913385826
          },
          {
            "duration": 0.7142855000000168,
            "durationTicks": 240,
            "midi": 59,
            "name": "B3",
            "ticks": 100920,
            "time": 300.35705275,
            "velocity": 0.4881889763779528
          },
          {
            "duration": 0.6785712249999847,
            "durationTicks": 228,
            "midi": 57,
            "name": "A3",
            "ticks": 101160,
            "time": 301.07133825,
            "velocity": 0.4881889763779528
          },
          {
            "duration": 4.071427349999965,
            "durationTicks": 1368,
            "midi": 55,
            "name": "G3",
            "ticks": 101400,
            "time": 301.78562375,
            "velocity": 0.4881889763779528
          },
          {
            "duration": 1.3571424499999694,
            "durationTicks": 456,
            "midi": 57,
            "name": "A3",
            "ticks": 102840,
            "time": 306.07133675,
            "velocity": 0.4881889763779528
          },
          {
            "duration": 1.4285709999999767,
            "durationTicks": 480,
            "midi": 62,
            "name": "D4",
            "ticks": 103320,
            "time": 307.49990775000003,
            "velocity": 0.6456692913385826
          },
          {
            "duration": 0.7142855000000168,
            "durationTicks": 240,
            "midi": 61,
            "name": "C#4",
            "ticks": 103800,
            "time": 308.92847875,
            "velocity": 0.4881889763779528
          },
          {
            "duration": 0.6785712249999847,
            "durationTicks": 228,
            "midi": 59,
            "name": "B3",
            "ticks": 104040,
            "time": 309.64276425,
            "velocity": 0.4881889763779528
          },
          {
            "duration": 1.4285710000000336,
            "durationTicks": 480,
            "midi": 57,
            "name": "A3",
            "ticks": 104280,
            "time": 310.35704975,
            "velocity": 0.4881889763779528
          },
          {
            "duration": 1.4285709999999767,
            "durationTicks": 480,
            "midi": 55,
            "name": "G3",
            "ticks": 104760,
            "time": 311.78562075,
            "velocity": 0.4881889763779528
          },
          {
            "duration": 1.3571424499999694,
            "durationTicks": 456,
            "midi": 57,
            "name": "A3",
            "ticks": 105240,
            "time": 313.21419175,
            "velocity": 0.4881889763779528
          },
          {
            "duration": 1.4285709999999767,
            "durationTicks": 480,
            "midi": 59,
            "name": "B3",
            "ticks": 105720,
            "time": 314.64276275000003,
            "velocity": 0.4881889763779528
          },
          {
            "duration": 1.4285709999999767,
            "durationTicks": 480,
            "midi": 61,
            "name": "C#4",
            "ticks": 106200,
            "time": 316.07133375,
            "velocity": 0.4881889763779528
          },
          {
            "duration": 1.3571424500000262,
            "durationTicks": 456,
            "midi": 62,
            "name": "D4",
            "ticks": 106680,
            "time": 317.49990475,
            "velocity": 0.4881889763779528
          },
          {
            "duration": 0.7142855000000168,
            "durationTicks": 240,
            "midi": 55,
            "name": "G3",
            "ticks": 107160,
            "time": 318.92847575,
            "velocity": 0.4881889763779528
          },
          {
            "duration": 0.5714284000000021,
            "durationTicks": 192,
            "midi": 59,
            "name": "B3",
            "ticks": 107400,
            "time": 319.64276125000004,
            "velocity": 0.4881889763779528
          },
          {
            "duration": 2.1428564999999935,
            "durationTicks": 720,
            "midi": 57,
            "name": "A3",
            "ticks": 107640,
            "time": 320.35704675,
            "velocity": 0.4881889763779528
          },
          {
            "duration": 0.6785712249999847,
            "durationTicks": 228,
            "midi": 55,
            "name": "G3",
            "ticks": 108360,
            "time": 322.49990325,
            "velocity": 0.4881889763779528
          },
          {
            "duration": 0.4642855749999626,
            "durationTicks": 156,
            "midi": 54,
            "name": "F#3",
            "ticks": 108600,
            "time": 323.21418875,
            "velocity": 0.4881889763779528
          },
          {
            "duration": 0.7142854999999599,
            "durationTicks": 240,
            "midi": 67,
            "name": "G4",
            "ticks": 108840,
            "time": 323.92847425,
            "velocity": 0.6456692913385826
          },
          {
            "duration": 0.7142855000000168,
            "durationTicks": 240,
            "midi": 66,
            "name": "F#4",
            "ticks": 109080,
            "time": 324.64275975,
            "velocity": 0.6456692913385826
          },
          {
            "duration": 0.7142855000000168,
            "durationTicks": 240,
            "midi": 64,
            "name": "E4",
            "ticks": 109320,
            "time": 325.35704525,
            "velocity": 0.6456692913385826
          },
          {
            "duration": 0.7142855000000168,
            "durationTicks": 240,
            "midi": 62,
            "name": "D4",
            "ticks": 109560,
            "time": 326.07133075,
            "velocity": 0.6456692913385826
          },
          {
            "duration": 0.6785712249999847,
            "durationTicks": 228,
            "midi": 61,
            "name": "C#4",
            "ticks": 109800,
            "time": 326.78561625000003,
            "velocity": 0.6456692913385826
          },
          {
            "duration": 0.5714284000000021,
            "durationTicks": 192,
            "midi": 57,
            "name": "A3",
            "ticks": 110040,
            "time": 327.49990175,
            "velocity": 0.4881889763779528
          },
          {
            "duration": 1.1428568000000041,
            "durationTicks": 384,
            "midi": 57,
            "name": "A3",
            "ticks": 110280,
            "time": 328.21418725,
            "velocity": 0.7086614173228346
          },
          {
            "duration": 0.7142855000000168,
            "durationTicks": 240,
            "midi": 57,
            "name": "A3",
            "ticks": 110760,
            "time": 329.64275825,
            "velocity": 0.7086614173228346
          },
          {
            "duration": 0.7142855000000168,
            "durationTicks": 240,
            "midi": 59,
            "name": "B3",
            "ticks": 111000,
            "time": 330.35704375,
            "velocity": 0.7086614173228346
          },
          {
            "duration": 0.7142855000000168,
            "durationTicks": 240,
            "midi": 61,
            "name": "C#4",
            "ticks": 111240,
            "time": 331.07132925,
            "velocity": 0.7086614173228346
          },
          {
            "duration": 0.5714284000000021,
            "durationTicks": 192,
            "midi": 62,
            "name": "D4",
            "ticks": 111480,
            "time": 331.78561475000004,
            "velocity": 0.7086614173228346
          },
          {
            "duration": 1.4285710000000336,
            "durationTicks": 480,
            "midi": 67,
            "name": "G4",
            "ticks": 111720,
            "time": 332.49990025,
            "velocity": 0.8661417322834646
          },
          {
            "duration": 0.7142854999999599,
            "durationTicks": 240,
            "midi": 66,
            "name": "F#4",
            "ticks": 112200,
            "time": 333.92847125000003,
            "velocity": 0.7086614173228346
          },
          {
            "duration": 0.7142855000000168,
            "durationTicks": 240,
            "midi": 64,
            "name": "E4",
            "ticks": 112440,
            "time": 334.64275675,
            "velocity": 0.7086614173228346
          },
          {
            "duration": 0.6785712249999847,
            "durationTicks": 228,
            "midi": 63,
            "name": "D#4",
            "ticks": 112680,
            "time": 335.35704225,
            "velocity": 0.7086614173228346
          },
          {
            "duration": 0.5714284000000021,
            "durationTicks": 192,
            "midi": 64,
            "name": "E4",
            "ticks": 112920,
            "time": 336.07132775,
            "velocity": 0.7086614173228346
          },
          {
            "duration": 1.142856800000061,
            "durationTicks": 384,
            "midi": 59,
            "name": "B3",
            "ticks": 113160,
            "time": 336.78561325,
            "velocity": 0.7086614173228346
          },
          {
            "duration": 0.7142855000000168,
            "durationTicks": 240,
            "midi": 59,
            "name": "B3",
            "ticks": 113640,
            "time": 338.21418425,
            "velocity": 0.7086614173228346
          },
          {
            "duration": 0.7142854999999599,
            "durationTicks": 240,
            "midi": 61,
            "name": "C#4",
            "ticks": 113880,
            "time": 338.92846975000003,
            "velocity": 0.7086614173228346
          },
          {
            "duration": 0.7142855000000168,
            "durationTicks": 240,
            "midi": 62,
            "name": "D4",
            "ticks": 114120,
            "time": 339.64275525,
            "velocity": 0.7086614173228346
          },
          {
            "duration": 0.5714284000000021,
            "durationTicks": 192,
            "midi": 64,
            "name": "E4",
            "ticks": 114360,
            "time": 340.35704075,
            "velocity": 0.7086614173228346
          },
          {
            "duration": 1.4285709999999767,
            "durationTicks": 480,
            "midi": 69,
            "name": "A4",
            "ticks": 114600,
            "time": 341.07132625,
            "velocity": 0.8661417322834646
          },
          {
            "duration": 0.7142855000000168,
            "durationTicks": 240,
            "midi": 68,
            "name": "G#4",
            "ticks": 115080,
            "time": 342.49989725,
            "velocity": 0.7086614173228346
          },
          {
            "duration": 0.7142854999999599,
            "durationTicks": 240,
            "midi": 66,
            "name": "F#4",
            "ticks": 115320,
            "time": 343.21418275,
            "velocity": 0.7086614173228346
          },
          {
            "duration": 0.6785712250000415,
            "durationTicks": 228,
            "midi": 65,
            "name": "F4",
            "ticks": 115560,
            "time": 343.92846825,
            "velocity": 0.7086614173228346
          },
          {
            "duration": 0.5714284000000021,
            "durationTicks": 192,
            "midi": 66,
            "name": "F#4",
            "ticks": 115800,
            "time": 344.64275375,
            "velocity": 0.7086614173228346
          },
          {
            "duration": 1.1428568000000041,
            "durationTicks": 384,
            "midi": 61,
            "name": "C#4",
            "ticks": 116040,
            "time": 345.35703925,
            "velocity": 0.7086614173228346
          },
          {
            "duration": 0.7142855000000168,
            "durationTicks": 240,
            "midi": 61,
            "name": "C#4",
            "ticks": 116520,
            "time": 346.78561025,
            "velocity": 0.7086614173228346
          },
          {
            "duration": 0.7142855000000168,
            "durationTicks": 240,
            "midi": 62,
            "name": "D4",
            "ticks": 116760,
            "time": 347.49989575,
            "velocity": 0.7086614173228346
          },
          {
            "duration": 0.7142854999999599,
            "durationTicks": 240,
            "midi": 64,
            "name": "E4",
            "ticks": 117000,
            "time": 348.21418125,
            "velocity": 0.7086614173228346
          },
          {
            "duration": 0.7142855000000168,
            "durationTicks": 240,
            "midi": 66,
            "name": "F#4",
            "ticks": 117240,
            "time": 348.92846675,
            "velocity": 0.7086614173228346
          },
          {
            "duration": 0.7142855000000168,
            "durationTicks": 240,
            "midi": 67,
            "name": "G4",
            "ticks": 117480,
            "time": 349.64275225,
            "velocity": 0.7086614173228346
          },
          {
            "duration": 0.7142855000000168,
            "durationTicks": 240,
            "midi": 62,
            "name": "D4",
            "ticks": 117720,
            "time": 350.35703775,
            "velocity": 0.7086614173228346
          },
          {
            "duration": 0.7142854999999599,
            "durationTicks": 240,
            "midi": 58,
            "name": "A#3",
            "ticks": 117960,
            "time": 351.07132325000003,
            "velocity": 0.7086614173228346
          },
          {
            "duration": 0.7142855000000168,
            "durationTicks": 240,
            "midi": 60,
            "name": "C4",
            "ticks": 118200,
            "time": 351.78560875,
            "velocity": 0.7086614173228346
          },
          {
            "duration": 0.5714284000000021,
            "durationTicks": 192,
            "midi": 57,
            "name": "A3",
            "ticks": 118440,
            "time": 352.49989425,
            "velocity": 0.7086614173228346
          },
          {
            "duration": 0.7142854999999599,
            "durationTicks": 240,
            "midi": 55,
            "name": "G3",
            "ticks": 118680,
            "time": 353.21417975,
            "velocity": 0.7086614173228346
          },
          {
            "duration": 0.5714284000000021,
            "durationTicks": 192,
            "midi": 59,
            "name": "B3",
            "ticks": 118920,
            "time": 353.92846525,
            "velocity": 0.7086614173228346
          },
          {
            "duration": 1.4285709999999767,
            "durationTicks": 480,
            "midi": 57,
            "name": "A3",
            "ticks": 119160,
            "time": 354.64275075,
            "velocity": 0.7086614173228346
          },
          {
            "duration": 1.4285710000000336,
            "durationTicks": 480,
            "midi": 61,
            "name": "C#4",
            "ticks": 119640,
            "time": 356.07132175,
            "velocity": 0.7086614173228346
          },
          {
            "duration": 0.5714284000000021,
            "durationTicks": 192,
            "midi": 62,
            "name": "D4",
            "ticks": 120120,
            "time": 357.49989275,
            "velocity": 0.7086614173228346
          },
          {
            "duration": 0.5714284000000021,
            "durationTicks": 192,
            "midi": 62,
            "name": "D4",
            "ticks": 120360,
            "time": 358.21417825000003,
            "velocity": 0.4881889763779528
          },
          {
            "duration": 0.5714284000000021,
            "durationTicks": 192,
            "midi": 62,
            "name": "D4",
            "ticks": 120600,
            "time": 358.92846375,
            "velocity": 0.4881889763779528
          },
          {
            "duration": 0.5714284000000021,
            "durationTicks": 192,
            "midi": 62,
            "name": "D4",
            "ticks": 120840,
            "time": 359.64274925,
            "velocity": 0.4881889763779528
          },
          {
            "duration": 0.5714284000000021,
            "durationTicks": 192,
            "midi": 62,
            "name": "D4",
            "ticks": 121080,
            "time": 360.35703475,
            "velocity": 0.4881889763779528
          },
          {
            "duration": 0.5714284000000589,
            "durationTicks": 192,
            "midi": 62,
            "name": "D4",
            "ticks": 121320,
            "time": 361.07132025,
            "velocity": 0.4881889763779528
          },
          {
            "duration": 0.5714284000000021,
            "durationTicks": 192,
            "midi": 64,
            "name": "E4",
            "ticks": 121800,
            "time": 362.49989125,
            "velocity": 0.4881889763779528
          },
          {
            "duration": 0.5714284000000021,
            "durationTicks": 192,
            "midi": 64,
            "name": "E4",
            "ticks": 122040,
            "time": 363.21417675000004,
            "velocity": 0.4881889763779528
          },
          {
            "duration": 0.5714284000000021,
            "durationTicks": 192,
            "midi": 64,
            "name": "E4",
            "ticks": 122280,
            "time": 363.92846225,
            "velocity": 0.4881889763779528
          },
          {
            "duration": 0.5714284000000021,
            "durationTicks": 192,
            "midi": 62,
            "name": "D4",
            "ticks": 122520,
            "time": 364.64274775,
            "velocity": 0.4881889763779528
          },
          {
            "duration": 0.5714283999999452,
            "durationTicks": 192,
            "midi": 62,
            "name": "D4",
            "ticks": 122760,
            "time": 365.35703325000003,
            "velocity": 0.4881889763779528
          },
          {
            "duration": 0.5714283999999452,
            "durationTicks": 192,
            "midi": 64,
            "name": "E4",
            "ticks": 123240,
            "time": 366.78560425,
            "velocity": 0.4881889763779528
          },
          {
            "duration": 0.5714283999999452,
            "durationTicks": 192,
            "midi": 64,
            "name": "E4",
            "ticks": 123480,
            "time": 367.49988975,
            "velocity": 0.4881889763779528
          },
          {
            "duration": 0.5714284000000021,
            "durationTicks": 192,
            "midi": 64,
            "name": "E4",
            "ticks": 123720,
            "time": 368.21417525,
            "velocity": 0.4881889763779528
          },
          {
            "duration": 0.5714284000000021,
            "durationTicks": 192,
            "midi": 62,
            "name": "D4",
            "ticks": 123960,
            "time": 368.92846075,
            "velocity": 0.4881889763779528
          },
          {
            "duration": 0.5714283999999452,
            "durationTicks": 192,
            "midi": 62,
            "name": "D4",
            "ticks": 124200,
            "time": 369.64274625,
            "velocity": 0.4881889763779528
          },
          {
            "duration": 0.5714284000000021,
            "durationTicks": 192,
            "midi": 59,
            "name": "B3",
            "ticks": 124680,
            "time": 371.07131725,
            "velocity": 0.4881889763779528
          },
          {
            "duration": 0.5714283999999452,
            "durationTicks": 192,
            "midi": 57,
            "name": "A3",
            "ticks": 124920,
            "time": 371.78560275,
            "velocity": 0.4881889763779528
          },
          {
            "duration": 0.5714283999999452,
            "durationTicks": 192,
            "midi": 57,
            "name": "A3",
            "ticks": 125160,
            "time": 372.49988825,
            "velocity": 0.4881889763779528
          },
          {
            "duration": 0.5714284000000021,
            "durationTicks": 192,
            "midi": 55,
            "name": "G3",
            "ticks": 125400,
            "time": 373.21417375,
            "velocity": 0.4881889763779528
          },
          {
            "duration": 0.5714284000000021,
            "durationTicks": 192,
            "midi": 55,
            "name": "G3",
            "ticks": 125640,
            "time": 373.92845925,
            "velocity": 0.4881889763779528
          },
          {
            "duration": 0.5714283999999452,
            "durationTicks": 192,
            "midi": 54,
            "name": "F#3",
            "ticks": 125880,
            "time": 374.64274475,
            "velocity": 0.4881889763779528
          },
          {
            "duration": 0.5714283999999452,
            "durationTicks": 192,
            "midi": 54,
            "name": "F#3",
            "ticks": 126120,
            "time": 375.35703025000004,
            "velocity": 0.4881889763779528
          },
          {
            "duration": 0.5714284000000021,
            "durationTicks": 192,
            "midi": 54,
            "name": "F#3",
            "ticks": 126360,
            "time": 376.07131575,
            "velocity": 0.4881889763779528
          },
          {
            "duration": 0.5714283999999452,
            "durationTicks": 192,
            "midi": 54,
            "name": "F#3",
            "ticks": 126600,
            "time": 376.78560125,
            "velocity": 0.4881889763779528
          },
          {
            "duration": 0.5714283999999452,
            "durationTicks": 192,
            "midi": 54,
            "name": "F#3",
            "ticks": 126840,
            "time": 377.49988675000003,
            "velocity": 0.4881889763779528
          },
          {
            "duration": 0.5714284000000021,
            "durationTicks": 192,
            "midi": 54,
            "name": "F#3",
            "ticks": 127080,
            "time": 378.21417225,
            "velocity": 0.4881889763779528
          },
          {
            "duration": 0.5714283999999452,
            "durationTicks": 192,
            "midi": 55,
            "name": "G3",
            "ticks": 127560,
            "time": 379.64274325,
            "velocity": 0.4881889763779528
          },
          {
            "duration": 0.5714284000000021,
            "durationTicks": 192,
            "midi": 55,
            "name": "G3",
            "ticks": 127800,
            "time": 380.35702875,
            "velocity": 0.4881889763779528
          },
          {
            "duration": 0.5714284000000021,
            "durationTicks": 192,
            "midi": 55,
            "name": "G3",
            "ticks": 128040,
            "time": 381.07131425,
            "velocity": 0.4881889763779528
          },
          {
            "duration": 0.5714283999999452,
            "durationTicks": 192,
            "midi": 54,
            "name": "F#3",
            "ticks": 128280,
            "time": 381.78559975,
            "velocity": 0.4881889763779528
          },
          {
            "duration": 0.5714283999999452,
            "durationTicks": 192,
            "midi": 54,
            "name": "F#3",
            "ticks": 128520,
            "time": 382.49988525000003,
            "velocity": 0.4881889763779528
          },
          {
            "duration": 0.5714283999999452,
            "durationTicks": 192,
            "midi": 69,
            "name": "A4",
            "ticks": 129000,
            "time": 383.92845625,
            "velocity": 0.4881889763779528
          },
          {
            "duration": 0.5714283999999452,
            "durationTicks": 192,
            "midi": 69,
            "name": "A4",
            "ticks": 129240,
            "time": 384.64274175,
            "velocity": 0.4881889763779528
          },
          {
            "duration": 0.5714284000000021,
            "durationTicks": 192,
            "midi": 69,
            "name": "A4",
            "ticks": 129480,
            "time": 385.35702725,
            "velocity": 0.4881889763779528
          },
          {
            "duration": 0.5714283999999452,
            "durationTicks": 192,
            "midi": 69,
            "name": "A4",
            "ticks": 129720,
            "time": 386.07131275,
            "velocity": 0.4881889763779528
          },
          {
            "duration": 0.5714283999999452,
            "durationTicks": 192,
            "midi": 69,
            "name": "A4",
            "ticks": 129960,
            "time": 386.78559825,
            "velocity": 0.4881889763779528
          },
          {
            "duration": 1.1428568000000041,
            "durationTicks": 384,
            "midi": 67,
            "name": "G4",
            "ticks": 130200,
            "time": 387.49988375000004,
            "velocity": 0.4881889763779528
          },
          {
            "duration": 0.5714284000000021,
            "durationTicks": 192,
            "midi": 57,
            "name": "A3",
            "ticks": 131880,
            "time": 392.49988225,
            "velocity": 0.4881889763779528
          },
          {
            "duration": 0.5714284000000021,
            "durationTicks": 192,
            "midi": 57,
            "name": "A3",
            "ticks": 132120,
            "time": 393.21416775,
            "velocity": 0.4881889763779528
          },
          {
            "duration": 0.5714283999999452,
            "durationTicks": 192,
            "midi": 57,
            "name": "A3",
            "ticks": 132360,
            "time": 393.92845325,
            "velocity": 0.4881889763779528
          },
          {
            "duration": 0.5714283999999452,
            "durationTicks": 192,
            "midi": 57,
            "name": "A3",
            "ticks": 132600,
            "time": 394.64273875000003,
            "velocity": 0.4881889763779528
          },
          {
            "duration": 0.5714284000000021,
            "durationTicks": 192,
            "midi": 57,
            "name": "A3",
            "ticks": 132840,
            "time": 395.35702425,
            "velocity": 0.4881889763779528
          },
          {
            "duration": 0.2857141999999726,
            "durationTicks": 96,
            "midi": 57,
            "name": "A3",
            "ticks": 133080,
            "time": 396.07130975,
            "velocity": 0.4881889763779528
          },
          {
            "duration": 0.28571420000002945,
            "durationTicks": 96,
            "midi": 57,
            "name": "A3",
            "ticks": 133200,
            "time": 396.4284525,
            "velocity": 0.4881889763779528
          },
          {
            "duration": 0.2857141999999726,
            "durationTicks": 96,
            "midi": 57,
            "name": "A3",
            "ticks": 133320,
            "time": 396.78559525000003,
            "velocity": 0.4881889763779528
          },
          {
            "duration": 0.2857141999999726,
            "durationTicks": 96,
            "midi": 57,
            "name": "A3",
            "ticks": 133440,
            "time": 397.142738,
            "velocity": 0.4881889763779528
          },
          {
            "duration": 0.28571420000002945,
            "durationTicks": 96,
            "midi": 57,
            "name": "A3",
            "ticks": 133560,
            "time": 397.49988075,
            "velocity": 0.4881889763779528
          },
          {
            "duration": 0.2857141999999726,
            "durationTicks": 96,
            "midi": 57,
            "name": "A3",
            "ticks": 133680,
            "time": 397.8570235,
            "velocity": 0.4881889763779528
          },
          {
            "duration": 0.2857141999999726,
            "durationTicks": 96,
            "midi": 57,
            "name": "A3",
            "ticks": 133800,
            "time": 398.21416625,
            "velocity": 0.4881889763779528
          },
          {
            "duration": 0.28571420000002945,
            "durationTicks": 96,
            "midi": 57,
            "name": "A3",
            "ticks": 133920,
            "time": 398.571309,
            "velocity": 0.4881889763779528
          },
          {
            "duration": 0.2857141999999726,
            "durationTicks": 96,
            "midi": 55,
            "name": "G3",
            "ticks": 134040,
            "time": 398.92845175,
            "velocity": 0.4881889763779528
          },
          {
            "duration": 0.2857141999999726,
            "durationTicks": 96,
            "midi": 55,
            "name": "G3",
            "ticks": 134160,
            "time": 399.2855945,
            "velocity": 0.4881889763779528
          },
          {
            "duration": 0.28571420000002945,
            "durationTicks": 96,
            "midi": 55,
            "name": "G3",
            "ticks": 134280,
            "time": 399.64273725,
            "velocity": 0.4881889763779528
          },
          {
            "duration": 0.2857141999999726,
            "durationTicks": 96,
            "midi": 55,
            "name": "G3",
            "ticks": 134400,
            "time": 399.99988,
            "velocity": 0.4881889763779528
          },
          {
            "duration": 1.1428568000000041,
            "durationTicks": 384,
            "midi": 54,
            "name": "F#3",
            "ticks": 134520,
            "time": 400.35702275,
            "velocity": 0.4881889763779528
          },
          {
            "duration": 0.5714284000000021,
            "durationTicks": 192,
            "midi": 64,
            "name": "E4",
            "ticks": 138360,
            "time": 411.78559075,
            "velocity": 0.4881889763779528
          },
          {
            "duration": 0.5714283999999452,
            "durationTicks": 192,
            "midi": 66,
            "name": "F#4",
            "ticks": 138840,
            "time": 413.21416175,
            "velocity": 0.4881889763779528
          },
          {
            "duration": 0.5714284000000021,
            "durationTicks": 192,
            "midi": 69,
            "name": "A4",
            "ticks": 139320,
            "time": 414.64273275,
            "velocity": 0.4881889763779528
          },
          {
            "duration": 0.5714283999999452,
            "durationTicks": 192,
            "midi": 57,
            "name": "A3",
            "ticks": 139800,
            "time": 416.07130375,
            "velocity": 0.4881889763779528
          },
          {
            "duration": 0.6785712250000415,
            "durationTicks": 228,
            "midi": 62,
            "name": "D4",
            "ticks": 140280,
            "time": 417.49987475,
            "velocity": 0.4881889763779528
          },
          {
            "duration": 0.6785712249999847,
            "durationTicks": 228,
            "midi": 54,
            "name": "F#3",
            "ticks": 140760,
            "time": 418.92844575000004,
            "velocity": 0.4881889763779528
          },
          {
            "duration": 0.6785712250000415,
            "durationTicks": 228,
            "midi": 54,
            "name": "F#3",
            "ticks": 141240,
            "time": 420.35701675,
            "velocity": 0.4881889763779528
          },
          {
            "duration": 1.142856800000061,
            "durationTicks": 384,
            "midi": 54,
            "name": "F#3",
            "ticks": 141720,
            "time": 421.78558775,
            "velocity": 0.4881889763779528
          }
        ]
      },
      {
        "channel": 0,
        "controlChanges": {},
        "pitchBends": [],
        "instrument": {
          "family": "piano",
          "number": 0,
          "name": "acoustic grand piano"
        },
        "name": "k622_2",
        "notes": [],
        "endOfTrackTicks": 144600
      },
      {
        "channel": 7,
        "controlChanges": {
          "7": [
            {
              "number": 7,
              "ticks": 0,
              "time": 0,
              "value": 0.9763779527559056
            }
          ],
          "10": [
            {
              "number": 10,
              "ticks": 0,
              "time": 0,
              "value": 0.6614173228346457
            }
          ],
          "91": [
            {
              "number": 91,
              "ticks": 0,
              "time": 0,
              "value": 0.5905511811023622
            }
          ]
        },
        "pitchBends": [],
        "instrument": {
          "family": "ensemble",
          "number": 48,
          "name": "string ensemble 1"
        },
        "name": "",
        "notes": [
          {
            "duration": 4.0714273500000004,
            "durationTicks": 1368,
            "midi": 50,
            "name": "D3",
            "ticks": 0,
            "time": 0,
            "velocity": 0.4881889763779528
          },
          {
            "duration": 1.1428567999999997,
            "durationTicks": 384,
            "midi": 45,
            "name": "A2",
            "ticks": 1440,
            "time": 4.285713,
            "velocity": 0.4881889763779528
          },
          {
            "duration": 1.1428567999999997,
            "durationTicks": 384,
            "midi": 50,
            "name": "D3",
            "ticks": 1920,
            "time": 5.714284,
            "velocity": 0.4881889763779528
          },
          {
            "duration": 4.071427349999999,
            "durationTicks": 1368,
            "midi": 50,
            "name": "D3",
            "ticks": 2880,
            "time": 8.571426,
            "velocity": 0.4881889763779528
          },
          {
            "duration": 1.1428568000000006,
            "durationTicks": 384,
            "midi": 45,
            "name": "A2",
            "ticks": 4320,
            "time": 12.857139,
            "velocity": 0.4881889763779528
          },
          {
            "duration": 1.1428568000000023,
            "durationTicks": 384,
            "midi": 50,
            "name": "D3",
            "ticks": 4800,
            "time": 14.28571,
            "velocity": 0.4881889763779528
          },
          {
            "duration": 6.999997899999997,
            "durationTicks": 2352,
            "midi": 45,
            "name": "A2",
            "ticks": 5760,
            "time": 17.142852,
            "velocity": 0.4881889763779528
          },
          {
            "duration": 1.3571424499999978,
            "durationTicks": 456,
            "midi": 50,
            "name": "D3",
            "ticks": 8160,
            "time": 24.285707000000002,
            "velocity": 0.4881889763779528
          },
          {
            "duration": 1.1428568000000006,
            "durationTicks": 384,
            "midi": 52,
            "name": "E3",
            "ticks": 8640,
            "time": 25.714278,
            "velocity": 0.4881889763779528
          },
          {
            "duration": 1.1428568000000006,
            "durationTicks": 384,
            "midi": 52,
            "name": "E3",
            "ticks": 9120,
            "time": 27.142849000000002,
            "velocity": 0.4881889763779528
          },
          {
            "duration": 1.1428568000000006,
            "durationTicks": 384,
            "midi": 52,
            "name": "E3",
            "ticks": 9600,
            "time": 28.57142,
            "velocity": 0.4881889763779528
          },
          {
            "duration": 1.1428568000000006,
            "durationTicks": 384,
            "midi": 45,
            "name": "A2",
            "ticks": 10080,
            "time": 29.999991,
            "velocity": 0.4881889763779528
          },
          {
            "duration": 1.142856799999997,
            "durationTicks": 384,
            "midi": 50,
            "name": "D3",
            "ticks": 11520,
            "time": 34.285704,
            "velocity": 0.7086614173228346
          },
          {
            "duration": 1.1428568000000041,
            "durationTicks": 384,
            "midi": 50,
            "name": "D3",
            "ticks": 12480,
            "time": 37.142846,
            "velocity": 0.7086614173228346
          },
          {
            "duration": 1.142856799999997,
            "durationTicks": 384,
            "midi": 45,
            "name": "A2",
            "ticks": 12960,
            "time": 38.571417000000004,
            "velocity": 0.7086614173228346
          },
          {
            "duration": 1.142856799999997,
            "durationTicks": 384,
            "midi": 50,
            "name": "D3",
            "ticks": 13440,
            "time": 39.999988,
            "velocity": 0.7086614173228346
          },
          {
            "duration": 1.1428568000000041,
            "durationTicks": 384,
            "midi": 50,
            "name": "D3",
            "ticks": 14400,
            "time": 42.85713,
            "velocity": 0.7086614173228346
          },
          {
            "duration": 1.142856799999997,
            "durationTicks": 384,
            "midi": 50,
            "name": "D3",
            "ticks": 15360,
            "time": 45.714272,
            "velocity": 0.7086614173228346
          },
          {
            "duration": 1.142856799999997,
            "durationTicks": 384,
            "midi": 45,
            "name": "A2",
            "ticks": 15840,
            "time": 47.142843,
            "velocity": 0.7086614173228346
          },
          {
            "duration": 1.14285679999999,
            "durationTicks": 384,
            "midi": 50,
            "name": "D3",
            "ticks": 16320,
            "time": 48.571414000000004,
            "velocity": 0.7086614173228346
          },
          {
            "duration": 1.142856799999997,
            "durationTicks": 384,
            "midi": 57,
            "name": "A3",
            "ticks": 17280,
            "time": 51.428556,
            "velocity": 0.7086614173228346
          },
          {
            "duration": 1.142856799999997,
            "durationTicks": 384,
            "midi": 57,
            "name": "A3",
            "ticks": 18720,
            "time": 55.714269,
            "velocity": 0.7086614173228346
          },
          {
            "duration": 1.14285679999999,
            "durationTicks": 384,
            "midi": 50,
            "name": "D3",
            "ticks": 19680,
            "time": 58.571411000000005,
            "velocity": 0.7086614173228346
          },
          {
            "duration": 1.142856799999997,
            "durationTicks": 384,
            "midi": 52,
            "name": "E3",
            "ticks": 20160,
            "time": 59.999982,
            "velocity": 0.7086614173228346
          },
          {
            "duration": 1.142856799999997,
            "durationTicks": 384,
            "midi": 52,
            "name": "E3",
            "ticks": 20640,
            "time": 61.428553,
            "velocity": 0.7086614173228346
          },
          {
            "duration": 1.142856799999997,
            "durationTicks": 384,
            "midi": 52,
            "name": "E3",
            "ticks": 21120,
            "time": 62.857124,
            "velocity": 0.7086614173228346
          },
          {
            "duration": 1.14285679999999,
            "durationTicks": 384,
            "midi": 45,
            "name": "A2",
            "ticks": 21600,
            "time": 64.285695,
            "velocity": 0.6299212598425197
          },
          {
            "duration": 4.071427349999993,
            "durationTicks": 1368,
            "midi": 50,
            "name": "D3",
            "ticks": 23040,
            "time": 68.571408,
            "velocity": 0.4881889763779528
          },
          {
            "duration": 1.428570999999991,
            "durationTicks": 480,
            "midi": 55,
            "name": "G3",
            "ticks": 24480,
            "time": 72.857121,
            "velocity": 0.4881889763779528
          },
          {
            "duration": 1.4285710000000051,
            "durationTicks": 480,
            "midi": 57,
            "name": "A3",
            "ticks": 24960,
            "time": 74.285692,
            "velocity": 0.4881889763779528
          },
          {
            "duration": 1.3571424499999978,
            "durationTicks": 456,
            "midi": 59,
            "name": "B3",
            "ticks": 25440,
            "time": 75.714263,
            "velocity": 0.4881889763779528
          },
          {
            "duration": 4.071427349999993,
            "durationTicks": 1368,
            "midi": 52,
            "name": "E3",
            "ticks": 25920,
            "time": 77.14283400000001,
            "velocity": 0.4881889763779528
          },
          {
            "duration": 1.428570999999991,
            "durationTicks": 480,
            "midi": 57,
            "name": "A3",
            "ticks": 27360,
            "time": 81.42854700000001,
            "velocity": 0.4881889763779528
          },
          {
            "duration": 1.4285710000000051,
            "durationTicks": 480,
            "midi": 59,
            "name": "B3",
            "ticks": 27840,
            "time": 82.857118,
            "velocity": 0.4881889763779528
          },
          {
            "duration": 1.3571424499999978,
            "durationTicks": 456,
            "midi": 61,
            "name": "C#4",
            "ticks": 28320,
            "time": 84.285689,
            "velocity": 0.4881889763779528
          },
          {
            "duration": 1.4285710000000051,
            "durationTicks": 480,
            "midi": 54,
            "name": "F#3",
            "ticks": 28800,
            "time": 85.71426,
            "velocity": 0.4881889763779528
          },
          {
            "duration": 1.4285710000000051,
            "durationTicks": 480,
            "midi": 55,
            "name": "G3",
            "ticks": 29280,
            "time": 87.142831,
            "velocity": 0.4881889763779528
          },
          {
            "duration": 1.3571424499999978,
            "durationTicks": 456,
            "midi": 57,
            "name": "A3",
            "ticks": 29760,
            "time": 88.571402,
            "velocity": 0.4881889763779528
          },
          {
            "duration": 1.4285710000000051,
            "durationTicks": 480,
            "midi": 59,
            "name": "B3",
            "ticks": 30240,
            "time": 89.999973,
            "velocity": 0.4881889763779528
          },
          {
            "duration": 1.4285710000000051,
            "durationTicks": 480,
            "midi": 61,
            "name": "C#4",
            "ticks": 30720,
            "time": 91.428544,
            "velocity": 0.4881889763779528
          },
          {
            "duration": 1.3571424499999978,
            "durationTicks": 456,
            "midi": 62,
            "name": "D4",
            "ticks": 31200,
            "time": 92.85711500000001,
            "velocity": 0.4881889763779528
          },
          {
            "duration": 1.1428568000000041,
            "durationTicks": 384,
            "midi": 55,
            "name": "G3",
            "ticks": 31680,
            "time": 94.285686,
            "velocity": 0.4881889763779528
          },
          {
            "duration": 1.14285679999999,
            "durationTicks": 384,
            "midi": 57,
            "name": "A3",
            "ticks": 32160,
            "time": 95.714257,
            "velocity": 0.4881889763779528
          },
          {
            "duration": 1.14285679999999,
            "durationTicks": 384,
            "midi": 45,
            "name": "A2",
            "ticks": 32640,
            "time": 97.14282800000001,
            "velocity": 0.4881889763779528
          },
          {
            "duration": 1.1428568000000041,
            "durationTicks": 384,
            "midi": 50,
            "name": "D3",
            "ticks": 33120,
            "time": 98.571399,
            "velocity": 0.4881889763779528
          },
          {
            "duration": 2.1428565000000077,
            "durationTicks": 720,
            "midi": 50,
            "name": "D3",
            "ticks": 34560,
            "time": 102.857112,
            "velocity": 0.7086614173228346
          },
          {
            "duration": 0.7142854999999884,
            "durationTicks": 240,
            "midi": 52,
            "name": "E3",
            "ticks": 35280,
            "time": 104.99996850000001,
            "velocity": 0.7086614173228346
          },
          {
            "duration": 1.1428568000000041,
            "durationTicks": 384,
            "midi": 54,
            "name": "F#3",
            "ticks": 35520,
            "time": 105.714254,
            "velocity": 0.7086614173228346
          },
          {
            "duration": 1.4285710000000051,
            "durationTicks": 480,
            "midi": 55,
            "name": "G3",
            "ticks": 36000,
            "time": 107.142825,
            "velocity": 0.7086614173228346
          },
          {
            "duration": 1.428570999999991,
            "durationTicks": 480,
            "midi": 57,
            "name": "A3",
            "ticks": 36480,
            "time": 108.57139600000001,
            "velocity": 0.7086614173228346
          },
          {
            "duration": 1.1428568000000041,
            "durationTicks": 384,
            "midi": 59,
            "name": "B3",
            "ticks": 36960,
            "time": 109.999967,
            "velocity": 0.7086614173228346
          },
          {
            "duration": 1.14285679999999,
            "durationTicks": 384,
            "midi": 52,
            "name": "E3",
            "ticks": 37440,
            "time": 111.428538,
            "velocity": 0.7086614173228346
          },
          {
            "duration": 0.7142854999999884,
            "durationTicks": 240,
            "midi": 40,
            "name": "E2",
            "ticks": 37920,
            "time": 112.85710900000001,
            "velocity": 0.7086614173228346
          },
          {
            "duration": 0.7142855000000026,
            "durationTicks": 240,
            "midi": 42,
            "name": "F#2",
            "ticks": 38160,
            "time": 113.5713945,
            "velocity": 0.7086614173228346
          },
          {
            "duration": 0.7142855000000026,
            "durationTicks": 240,
            "midi": 43,
            "name": "G2",
            "ticks": 38400,
            "time": 114.28568,
            "velocity": 0.7086614173228346
          },
          {
            "duration": 0.5714284000000021,
            "durationTicks": 192,
            "midi": 44,
            "name": "G#2",
            "ticks": 38640,
            "time": 114.9999655,
            "velocity": 0.7086614173228346
          },
          {
            "duration": 1.4285710000000051,
            "durationTicks": 480,
            "midi": 45,
            "name": "A2",
            "ticks": 38880,
            "time": 115.714251,
            "velocity": 0.7086614173228346
          },
          {
            "duration": 1.428570999999991,
            "durationTicks": 480,
            "midi": 47,
            "name": "B2",
            "ticks": 39360,
            "time": 117.14282200000001,
            "velocity": 0.7086614173228346
          },
          {
            "duration": 1.1428568000000041,
            "durationTicks": 384,
            "midi": 49,
            "name": "C#3",
            "ticks": 39840,
            "time": 118.571393,
            "velocity": 0.7086614173228346
          },
          {
            "duration": 2.1428564999999935,
            "durationTicks": 720,
            "midi": 42,
            "name": "F#2",
            "ticks": 40320,
            "time": 119.999964,
            "velocity": 0.7086614173228346
          },
          {
            "duration": 0.7142855000000026,
            "durationTicks": 240,
            "midi": 43,
            "name": "G2",
            "ticks": 41040,
            "time": 122.1428205,
            "velocity": 0.7086614173228346
          },
          {
            "duration": 0.7142855000000026,
            "durationTicks": 240,
            "midi": 45,
            "name": "A2",
            "ticks": 41280,
            "time": 122.857106,
            "velocity": 0.7086614173228346
          },
          {
            "duration": 0.5714284000000021,
            "durationTicks": 192,
            "midi": 46,
            "name": "A#2",
            "ticks": 41520,
            "time": 123.5713915,
            "velocity": 0.7086614173228346
          },
          {
            "duration": 1.428570999999991,
            "durationTicks": 480,
            "midi": 47,
            "name": "B2",
            "ticks": 41760,
            "time": 124.285677,
            "velocity": 0.7086614173228346
          },
          {
            "duration": 1.4285710000000051,
            "durationTicks": 480,
            "midi": 49,
            "name": "C#3",
            "ticks": 42240,
            "time": 125.714248,
            "velocity": 0.7086614173228346
          },
          {
            "duration": 1.1428568000000041,
            "durationTicks": 384,
            "midi": 50,
            "name": "D3",
            "ticks": 42720,
            "time": 127.142819,
            "velocity": 0.7086614173228346
          },
          {
            "duration": 1.1428568000000041,
            "durationTicks": 384,
            "midi": 43,
            "name": "G2",
            "ticks": 43200,
            "time": 128.57139,
            "velocity": 0.7086614173228346
          },
          {
            "duration": 1.1428567999999757,
            "durationTicks": 384,
            "midi": 45,
            "name": "A2",
            "ticks": 43680,
            "time": 129.999961,
            "velocity": 0.7086614173228346
          },
          {
            "duration": 1.1428568000000041,
            "durationTicks": 384,
            "midi": 45,
            "name": "A2",
            "ticks": 44160,
            "time": 131.428532,
            "velocity": 0.7086614173228346
          },
          {
            "duration": 1.1428568000000041,
            "durationTicks": 384,
            "midi": 50,
            "name": "D3",
            "ticks": 44640,
            "time": 132.857103,
            "velocity": 0.7086614173228346
          },
          {
            "duration": 1.1428567999999757,
            "durationTicks": 384,
            "midi": 50,
            "name": "D3",
            "ticks": 46080,
            "time": 137.142816,
            "velocity": 0.4881889763779528
          },
          {
            "duration": 1.1428568000000041,
            "durationTicks": 384,
            "midi": 45,
            "name": "A2",
            "ticks": 47520,
            "time": 141.428529,
            "velocity": 0.4881889763779528
          },
          {
            "duration": 5.714283999999992,
            "durationTicks": 1920,
            "midi": 52,
            "name": "E3",
            "ticks": 48960,
            "time": 145.714242,
            "velocity": 0.4881889763779528
          },
          {
            "duration": 0.5714284000000021,
            "durationTicks": 192,
            "midi": 45,
            "name": "A2",
            "ticks": 50880,
            "time": 151.428526,
            "velocity": 0.4881889763779528
          },
          {
            "duration": 0.7142855000000168,
            "durationTicks": 240,
            "midi": 57,
            "name": "A3",
            "ticks": 51120,
            "time": 152.1428115,
            "velocity": 0.5590551181102362
          },
          {
            "duration": 0.7142854999999884,
            "durationTicks": 240,
            "midi": 52,
            "name": "E3",
            "ticks": 51360,
            "time": 152.857097,
            "velocity": 0.5590551181102362
          },
          {
            "duration": 0.7142855000000168,
            "durationTicks": 240,
            "midi": 50,
            "name": "D3",
            "ticks": 51600,
            "time": 153.5713825,
            "velocity": 0.5590551181102362
          },
          {
            "duration": 1.1428567999999757,
            "durationTicks": 384,
            "midi": 49,
            "name": "C#3",
            "ticks": 51840,
            "time": 154.28566800000002,
            "velocity": 0.4881889763779528
          },
          {
            "duration": 1.1428568000000041,
            "durationTicks": 384,
            "midi": 50,
            "name": "D3",
            "ticks": 53280,
            "time": 158.571381,
            "velocity": 0.4881889763779528
          },
          {
            "duration": 1.1428567999999757,
            "durationTicks": 384,
            "midi": 52,
            "name": "E3",
            "ticks": 54720,
            "time": 162.85709400000002,
            "velocity": 0.4881889763779528
          },
          {
            "duration": 1.1428568000000041,
            "durationTicks": 384,
            "midi": 54,
            "name": "F#3",
            "ticks": 56160,
            "time": 167.142807,
            "velocity": 0.4881889763779528
          },
          {
            "duration": 4.202379691666664,
            "durationTicks": 1412,
            "midi": 44,
            "name": "G#2",
            "ticks": 57600,
            "time": 171.42852,
            "velocity": 0.4881889763779528
          },
          {
            "duration": 0.5714284000000021,
            "durationTicks": 192,
            "midi": 45,
            "name": "A2",
            "ticks": 59040,
            "time": 175.714233,
            "velocity": 0.4881889763779528
          },
          {
            "duration": 0.5714284000000021,
            "durationTicks": 192,
            "midi": 49,
            "name": "C#3",
            "ticks": 59520,
            "time": 177.142804,
            "velocity": 0.4881889763779528
          },
          {
            "duration": 0.5714284000000021,
            "durationTicks": 192,
            "midi": 50,
            "name": "D3",
            "ticks": 60000,
            "time": 178.57137500000002,
            "velocity": 0.4881889763779528
          },
          {
            "duration": 4.154760658333345,
            "durationTicks": 1396,
            "midi": 52,
            "name": "E3",
            "ticks": 60480,
            "time": 179.999946,
            "velocity": 0.4881889763779528
          },
          {
            "duration": 1.4285710000000051,
            "durationTicks": 480,
            "midi": 53,
            "name": "F3",
            "ticks": 61920,
            "time": 184.285659,
            "velocity": 0.4881889763779528
          },
          {
            "duration": 0.4642855749999626,
            "durationTicks": 156,
            "midi": 54,
            "name": "F#3",
            "ticks": 62400,
            "time": 185.71423000000001,
            "velocity": 0.4881889763779528
          },
          {
            "duration": 0.7142854999999884,
            "durationTicks": 240,
            "midi": 42,
            "name": "F#2",
            "ticks": 62640,
            "time": 186.4285155,
            "velocity": 0.4881889763779528
          },
          {
            "duration": 0.7142855000000168,
            "durationTicks": 240,
            "midi": 40,
            "name": "E2",
            "ticks": 62880,
            "time": 187.142801,
            "velocity": 0.4881889763779528
          },
          {
            "duration": 0.7142854999999884,
            "durationTicks": 240,
            "midi": 38,
            "name": "D2",
            "ticks": 63120,
            "time": 187.8570865,
            "velocity": 0.4881889763779528
          },
          {
            "duration": 1.1428568000000325,
            "durationTicks": 384,
            "midi": 37,
            "name": "C#2",
            "ticks": 63360,
            "time": 188.571372,
            "velocity": 0.4881889763779528
          },
          {
            "duration": 1.1428568000000041,
            "durationTicks": 384,
            "midi": 38,
            "name": "D2",
            "ticks": 64800,
            "time": 192.857085,
            "velocity": 0.4881889763779528
          },
          {
            "duration": 1.1428568000000325,
            "durationTicks": 384,
            "midi": 40,
            "name": "E2",
            "ticks": 66240,
            "time": 197.142798,
            "velocity": 0.4881889763779528
          },
          {
            "duration": 1.1428568000000041,
            "durationTicks": 384,
            "midi": 42,
            "name": "F#2",
            "ticks": 67680,
            "time": 201.42851100000001,
            "velocity": 0.4881889763779528
          },
          {
            "duration": 4.071427349999993,
            "durationTicks": 1368,
            "midi": 44,
            "name": "G#2",
            "ticks": 69120,
            "time": 205.714224,
            "velocity": 0.4881889763779528
          },
          {
            "duration": 1.1428568000000041,
            "durationTicks": 384,
            "midi": 45,
            "name": "A2",
            "ticks": 70560,
            "time": 209.99993700000002,
            "velocity": 0.4881889763779528
          },
          {
            "duration": 1.1428568000000041,
            "durationTicks": 384,
            "midi": 50,
            "name": "D3",
            "ticks": 72000,
            "time": 214.28565,
            "velocity": 0.4881889763779528
          },
          {
            "duration": 1.1428568000000041,
            "durationTicks": 384,
            "midi": 52,
            "name": "E3",
            "ticks": 73440,
            "time": 218.57136300000002,
            "velocity": 0.4881889763779528
          },
          {
            "duration": 1.1428568000000041,
            "durationTicks": 384,
            "midi": 52,
            "name": "E3",
            "ticks": 74880,
            "time": 222.857076,
            "velocity": 0.4881889763779528
          },
          {
            "duration": 1.1428568000000041,
            "durationTicks": 384,
            "midi": 52,
            "name": "E3",
            "ticks": 75360,
            "time": 224.285647,
            "velocity": 0.6299212598425197
          },
          {
            "duration": 1.1428568000000041,
            "durationTicks": 384,
            "midi": 52,
            "name": "E3",
            "ticks": 75840,
            "time": 225.71421800000002,
            "velocity": 0.7086614173228346
          },
          {
            "duration": 1.1428568000000325,
            "durationTicks": 384,
            "midi": 57,
            "name": "A3",
            "ticks": 76320,
            "time": 227.142789,
            "velocity": 0.7086614173228346
          },
          {
            "duration": 1.1428568000000325,
            "durationTicks": 384,
            "midi": 52,
            "name": "E3",
            "ticks": 76800,
            "time": 228.57136,
            "velocity": 0.7086614173228346
          },
          {
            "duration": 1.1428568000000041,
            "durationTicks": 384,
            "midi": 49,
            "name": "C#3",
            "ticks": 77280,
            "time": 229.999931,
            "velocity": 0.7086614173228346
          },
          {
            "duration": 1.1428568000000041,
            "durationTicks": 384,
            "midi": 45,
            "name": "A2",
            "ticks": 77760,
            "time": 231.428502,
            "velocity": 0.6299212598425197
          },
          {
            "duration": 1.1428568000000325,
            "durationTicks": 384,
            "midi": 57,
            "name": "A3",
            "ticks": 79200,
            "time": 235.714215,
            "velocity": 0.7086614173228346
          },
          {
            "duration": 1.1428568000000325,
            "durationTicks": 384,
            "midi": 45,
            "name": "A2",
            "ticks": 79680,
            "time": 237.142786,
            "velocity": 0.7086614173228346
          },
          {
            "duration": 1.1428568000000041,
            "durationTicks": 384,
            "midi": 57,
            "name": "A3",
            "ticks": 80160,
            "time": 238.571357,
            "velocity": 0.7086614173228346
          },
          {
            "duration": 1.1428568000000041,
            "durationTicks": 384,
            "midi": 45,
            "name": "A2",
            "ticks": 80640,
            "time": 239.999928,
            "velocity": 0.6299212598425197
          },
          {
            "duration": 1.1428568000000325,
            "durationTicks": 384,
            "midi": 57,
            "name": "A3",
            "ticks": 82080,
            "time": 244.285641,
            "velocity": 0.7086614173228346
          },
          {
            "duration": 1.1428568000000325,
            "durationTicks": 384,
            "midi": 52,
            "name": "E3",
            "ticks": 82560,
            "time": 245.714212,
            "velocity": 0.7086614173228346
          },
          {
            "duration": 1.1428568000000041,
            "durationTicks": 384,
            "midi": 49,
            "name": "C#3",
            "ticks": 83040,
            "time": 247.142783,
            "velocity": 0.7086614173228346
          },
          {
            "duration": 1.1428568000000041,
            "durationTicks": 384,
            "midi": 45,
            "name": "A2",
            "ticks": 83520,
            "time": 248.571354,
            "velocity": 0.7086614173228346
          },
          {
            "duration": 4.071427349999965,
            "durationTicks": 1368,
            "midi": 50,
            "name": "D3",
            "ticks": 87000,
            "time": 258.92849375000003,
            "velocity": 0.4881889763779528
          },
          {
            "duration": 1.1428568000000041,
            "durationTicks": 384,
            "midi": 45,
            "name": "A2",
            "ticks": 88440,
            "time": 263.21420675,
            "velocity": 0.4881889763779528
          },
          {
            "duration": 1.1428568000000041,
            "durationTicks": 384,
            "midi": 50,
            "name": "D3",
            "ticks": 88920,
            "time": 264.64277775,
            "velocity": 0.4881889763779528
          },
          {
            "duration": 4.071427350000022,
            "durationTicks": 1368,
            "midi": 50,
            "name": "D3",
            "ticks": 89880,
            "time": 267.49991975,
            "velocity": 0.4881889763779528
          },
          {
            "duration": 1.1428568000000041,
            "durationTicks": 384,
            "midi": 45,
            "name": "A2",
            "ticks": 91320,
            "time": 271.78563275,
            "velocity": 0.4881889763779528
          },
          {
            "duration": 1.1428568000000041,
            "durationTicks": 384,
            "midi": 50,
            "name": "D3",
            "ticks": 91800,
            "time": 273.21420375,
            "velocity": 0.4881889763779528
          },
          {
            "duration": 6.999997899999983,
            "durationTicks": 2352,
            "midi": 45,
            "name": "A2",
            "ticks": 92760,
            "time": 276.07134575000003,
            "velocity": 0.4881889763779528
          },
          {
            "duration": 1.3571424499999694,
            "durationTicks": 456,
            "midi": 50,
            "name": "D3",
            "ticks": 95160,
            "time": 283.21420075000003,
            "velocity": 0.4881889763779528
          },
          {
            "duration": 1.1428568000000041,
            "durationTicks": 384,
            "midi": 52,
            "name": "E3",
            "ticks": 95640,
            "time": 284.64277175,
            "velocity": 0.4881889763779528
          },
          {
            "duration": 1.142856800000061,
            "durationTicks": 384,
            "midi": 52,
            "name": "E3",
            "ticks": 96120,
            "time": 286.07134275,
            "velocity": 0.4881889763779528
          },
          {
            "duration": 1.1428568000000041,
            "durationTicks": 384,
            "midi": 52,
            "name": "E3",
            "ticks": 96600,
            "time": 287.49991375,
            "velocity": 0.4881889763779528
          },
          {
            "duration": 1.1428568000000041,
            "durationTicks": 384,
            "midi": 45,
            "name": "A2",
            "ticks": 97080,
            "time": 288.92848475,
            "velocity": 0.4881889763779528
          },
          {
            "duration": 4.071427350000022,
            "durationTicks": 1368,
            "midi": 50,
            "name": "D3",
            "ticks": 98520,
            "time": 293.21419775,
            "velocity": 0.4881889763779528
          },
          {
            "duration": 1.4285709999999767,
            "durationTicks": 480,
            "midi": 55,
            "name": "G3",
            "ticks": 99960,
            "time": 297.49991075,
            "velocity": 0.4881889763779528
          },
          {
            "duration": 1.4285709999999767,
            "durationTicks": 480,
            "midi": 57,
            "name": "A3",
            "ticks": 100440,
            "time": 298.92848175,
            "velocity": 0.4881889763779528
          },
          {
            "duration": 1.3571424500000262,
            "durationTicks": 456,
            "midi": 59,
            "name": "B3",
            "ticks": 100920,
            "time": 300.35705275,
            "velocity": 0.4881889763779528
          },
          {
            "duration": 4.071427349999965,
            "durationTicks": 1368,
            "midi": 52,
            "name": "E3",
            "ticks": 101400,
            "time": 301.78562375,
            "velocity": 0.4881889763779528
          },
          {
            "duration": 1.4285710000000336,
            "durationTicks": 480,
            "midi": 57,
            "name": "A3",
            "ticks": 102840,
            "time": 306.07133675,
            "velocity": 0.4881889763779528
          },
          {
            "duration": 1.4285709999999767,
            "durationTicks": 480,
            "midi": 59,
            "name": "B3",
            "ticks": 103320,
            "time": 307.49990775000003,
            "velocity": 0.4881889763779528
          },
          {
            "duration": 1.3571424499999694,
            "durationTicks": 456,
            "midi": 61,
            "name": "C#4",
            "ticks": 103800,
            "time": 308.92847875,
            "velocity": 0.4881889763779528
          },
          {
            "duration": 1.4285710000000336,
            "durationTicks": 480,
            "midi": 54,
            "name": "F#3",
            "ticks": 104280,
            "time": 310.35704975,
            "velocity": 0.4881889763779528
          },
          {
            "duration": 1.4285709999999767,
            "durationTicks": 480,
            "midi": 55,
            "name": "G3",
            "ticks": 104760,
            "time": 311.78562075,
            "velocity": 0.4881889763779528
          },
          {
            "duration": 1.3571424499999694,
            "durationTicks": 456,
            "midi": 57,
            "name": "A3",
            "ticks": 105240,
            "time": 313.21419175,
            "velocity": 0.4881889763779528
          },
          {
            "duration": 1.4285709999999767,
            "durationTicks": 480,
            "midi": 59,
            "name": "B3",
            "ticks": 105720,
            "time": 314.64276275000003,
            "velocity": 0.4881889763779528
          },
          {
            "duration": 1.4285709999999767,
            "durationTicks": 480,
            "midi": 61,
            "name": "C#4",
            "ticks": 106200,
            "time": 316.07133375,
            "velocity": 0.4881889763779528
          },
          {
            "duration": 1.3571424500000262,
            "durationTicks": 456,
            "midi": 62,
            "name": "D4",
            "ticks": 106680,
            "time": 317.49990475,
            "velocity": 0.4881889763779528
          },
          {
            "duration": 1.1428568000000041,
            "durationTicks": 384,
            "midi": 55,
            "name": "G3",
            "ticks": 107160,
            "time": 318.92847575,
            "velocity": 0.4881889763779528
          },
          {
            "duration": 1.1428568000000041,
            "durationTicks": 384,
            "midi": 57,
            "name": "A3",
            "ticks": 107640,
            "time": 320.35704675,
            "velocity": 0.4881889763779528
          },
          {
            "duration": 1.1428568000000041,
            "durationTicks": 384,
            "midi": 45,
            "name": "A2",
            "ticks": 108120,
            "time": 321.78561775000003,
            "velocity": 0.4881889763779528
          },
          {
            "duration": 1.1428568000000041,
            "durationTicks": 384,
            "midi": 50,
            "name": "D3",
            "ticks": 108600,
            "time": 323.21418875,
            "velocity": 0.4881889763779528
          },
          {
            "duration": 2.1428564999999935,
            "durationTicks": 720,
            "midi": 50,
            "name": "D3",
            "ticks": 110040,
            "time": 327.49990175,
            "velocity": 0.4881889763779528
          },
          {
            "duration": 0.7142855000000168,
            "durationTicks": 240,
            "midi": 49,
            "name": "C#3",
            "ticks": 110760,
            "time": 329.64275825,
            "velocity": 0.7086614173228346
          },
          {
            "duration": 0.7142855000000168,
            "durationTicks": 240,
            "midi": 47,
            "name": "B2",
            "ticks": 111000,
            "time": 330.35704375,
            "velocity": 0.7086614173228346
          },
          {
            "duration": 0.6785712249999847,
            "durationTicks": 228,
            "midi": 45,
            "name": "A2",
            "ticks": 111240,
            "time": 331.07132925,
            "velocity": 0.7086614173228346
          },
          {
            "duration": 1.4285709999999767,
            "durationTicks": 480,
            "midi": 43,
            "name": "G2",
            "ticks": 111480,
            "time": 331.78561475000004,
            "velocity": 0.7086614173228346
          },
          {
            "duration": 1.4285709999999767,
            "durationTicks": 480,
            "midi": 45,
            "name": "A2",
            "ticks": 111960,
            "time": 333.21418575,
            "velocity": 0.7086614173228346
          },
          {
            "duration": 1.3571424500000262,
            "durationTicks": 456,
            "midi": 47,
            "name": "B2",
            "ticks": 112440,
            "time": 334.64275675,
            "velocity": 0.7086614173228346
          },
          {
            "duration": 2.1428564999999935,
            "durationTicks": 720,
            "midi": 52,
            "name": "E3",
            "ticks": 112920,
            "time": 336.07132775,
            "velocity": 0.7086614173228346
          },
          {
            "duration": 0.7142855000000168,
            "durationTicks": 240,
            "midi": 50,
            "name": "D3",
            "ticks": 113640,
            "time": 338.21418425,
            "velocity": 0.7086614173228346
          },
          {
            "duration": 0.7142854999999599,
            "durationTicks": 240,
            "midi": 49,
            "name": "C#3",
            "ticks": 113880,
            "time": 338.92846975000003,
            "velocity": 0.7086614173228346
          },
          {
            "duration": 0.6785712249999847,
            "durationTicks": 228,
            "midi": 47,
            "name": "B2",
            "ticks": 114120,
            "time": 339.64275525,
            "velocity": 0.7086614173228346
          },
          {
            "duration": 1.4285709999999767,
            "durationTicks": 480,
            "midi": 45,
            "name": "A2",
            "ticks": 114360,
            "time": 340.35704075,
            "velocity": 0.7086614173228346
          },
          {
            "duration": 1.4285710000000336,
            "durationTicks": 480,
            "midi": 47,
            "name": "B2",
            "ticks": 114840,
            "time": 341.78561175,
            "velocity": 0.7086614173228346
          },
          {
            "duration": 1.3571424499999694,
            "durationTicks": 456,
            "midi": 49,
            "name": "C#3",
            "ticks": 115320,
            "time": 343.21418275,
            "velocity": 0.7086614173228346
          },
          {
            "duration": 2.1428564999999935,
            "durationTicks": 720,
            "midi": 54,
            "name": "F#3",
            "ticks": 115800,
            "time": 344.64275375,
            "velocity": 0.7086614173228346
          },
          {
            "duration": 0.7142855000000168,
            "durationTicks": 240,
            "midi": 52,
            "name": "E3",
            "ticks": 116520,
            "time": 346.78561025,
            "velocity": 0.7086614173228346
          },
          {
            "duration": 0.7142855000000168,
            "durationTicks": 240,
            "midi": 50,
            "name": "D3",
            "ticks": 116760,
            "time": 347.49989575,
            "velocity": 0.7086614173228346
          },
          {
            "duration": 0.6785712249999847,
            "durationTicks": 228,
            "midi": 49,
            "name": "C#3",
            "ticks": 117000,
            "time": 348.21418125,
            "velocity": 0.7086614173228346
          },
          {
            "duration": 1.4285710000000336,
            "durationTicks": 480,
            "midi": 47,
            "name": "B2",
            "ticks": 117240,
            "time": 348.92846675,
            "velocity": 0.7086614173228346
          },
          {
            "duration": 1.4285709999999767,
            "durationTicks": 480,
            "midi": 46,
            "name": "A#2",
            "ticks": 117720,
            "time": 350.35703775,
            "velocity": 0.7086614173228346
          },
          {
            "duration": 1.3571424500000262,
            "durationTicks": 456,
            "midi": 45,
            "name": "A2",
            "ticks": 118200,
            "time": 351.78560875,
            "velocity": 0.7086614173228346
          },
          {
            "duration": 1.1428568000000041,
            "durationTicks": 384,
            "midi": 43,
            "name": "G2",
            "ticks": 118680,
            "time": 353.21417975,
            "velocity": 0.7086614173228346
          },
          {
            "duration": 1.1428568000000041,
            "durationTicks": 384,
            "midi": 45,
            "name": "A2",
            "ticks": 119160,
            "time": 354.64275075,
            "velocity": 0.7086614173228346
          },
          {
            "duration": 1.142856800000061,
            "durationTicks": 384,
            "midi": 45,
            "name": "A2",
            "ticks": 119640,
            "time": 356.07132175,
            "velocity": 0.7086614173228346
          },
          {
            "duration": 1.1428568000000041,
            "durationTicks": 384,
            "midi": 50,
            "name": "D3",
            "ticks": 120120,
            "time": 357.49989275,
            "velocity": 0.7086614173228346
          },
          {
            "duration": 2.8571420000000103,
            "durationTicks": 960,
            "midi": 61,
            "name": "C#4",
            "ticks": 121560,
            "time": 361.78560575,
            "velocity": 0.4881889763779528
          },
          {
            "duration": 1.3571424499999694,
            "durationTicks": 456,
            "midi": 62,
            "name": "D4",
            "ticks": 122520,
            "time": 364.64274775,
            "velocity": 0.4881889763779528
          },
          {
            "duration": 2.8571420000000103,
            "durationTicks": 960,
            "midi": 61,
            "name": "C#4",
            "ticks": 123000,
            "time": 366.07131875,
            "velocity": 0.4881889763779528
          },
          {
            "duration": 1.3571424499999694,
            "durationTicks": 456,
            "midi": 62,
            "name": "D4",
            "ticks": 123960,
            "time": 368.92846075,
            "velocity": 0.4881889763779528
          },
          {
            "duration": 1.1428568000000041,
            "durationTicks": 384,
            "midi": 55,
            "name": "G3",
            "ticks": 124440,
            "time": 370.35703175000003,
            "velocity": 0.4881889763779528
          },
          {
            "duration": 1.1428568000000041,
            "durationTicks": 384,
            "midi": 57,
            "name": "A3",
            "ticks": 124920,
            "time": 371.78560275,
            "velocity": 0.4881889763779528
          },
          {
            "duration": 1.142856800000061,
            "durationTicks": 384,
            "midi": 45,
            "name": "A2",
            "ticks": 125400,
            "time": 373.21417375,
            "velocity": 0.4881889763779528
          },
          {
            "duration": 1.1428568000000041,
            "durationTicks": 384,
            "midi": 50,
            "name": "D3",
            "ticks": 125880,
            "time": 374.64274475,
            "velocity": 0.4881889763779528
          },
          {
            "duration": 2.8571420000000103,
            "durationTicks": 960,
            "midi": 49,
            "name": "C#3",
            "ticks": 127320,
            "time": 378.92845775,
            "velocity": 0.4881889763779528
          },
          {
            "duration": 1.3571424499999694,
            "durationTicks": 456,
            "midi": 50,
            "name": "D3",
            "ticks": 128280,
            "time": 381.78559975,
            "velocity": 0.4881889763779528
          },
          {
            "duration": 2.8571420000000103,
            "durationTicks": 960,
            "midi": 49,
            "name": "C#3",
            "ticks": 128760,
            "time": 383.21417075,
            "velocity": 0.4881889763779528
          },
          {
            "duration": 1.3571424499999694,
            "durationTicks": 456,
            "midi": 50,
            "name": "D3",
            "ticks": 129720,
            "time": 386.07131275,
            "velocity": 0.4881889763779528
          },
          {
            "duration": 1.1428568000000041,
            "durationTicks": 384,
            "midi": 43,
            "name": "G2",
            "ticks": 130200,
            "time": 387.49988375000004,
            "velocity": 0.4881889763779528
          },
          {
            "duration": 1.1428568000000041,
            "durationTicks": 384,
            "midi": 45,
            "name": "A2",
            "ticks": 131640,
            "time": 391.78559675,
            "velocity": 0.4881889763779528
          },
          {
            "duration": 1.1428568000000041,
            "durationTicks": 384,
            "midi": 45,
            "name": "A2",
            "ticks": 133080,
            "time": 396.07130975,
            "velocity": 0.4881889763779528
          },
          {
            "duration": 1.142856800000061,
            "durationTicks": 384,
            "midi": 45,
            "name": "A2",
            "ticks": 133560,
            "time": 397.49988075,
            "velocity": 0.4881889763779528
          },
          {
            "duration": 1.1428568000000041,
            "durationTicks": 384,
            "midi": 45,
            "name": "A2",
            "ticks": 134040,
            "time": 398.92845175,
            "velocity": 0.4881889763779528
          },
          {
            "duration": 1.1428568000000041,
            "durationTicks": 384,
            "midi": 47,
            "name": "B2",
            "ticks": 134520,
            "time": 400.35702275,
            "velocity": 0.4881889763779528
          },
          {
            "duration": 1.4285710000000336,
            "durationTicks": 480,
            "midi": 43,
            "name": "G2",
            "ticks": 138360,
            "time": 411.78559075,
            "velocity": 0.4881889763779528
          },
          {
            "duration": 4.071427350000022,
            "durationTicks": 1368,
            "midi": 45,
            "name": "A2",
            "ticks": 138840,
            "time": 413.21416175,
            "velocity": 0.4881889763779528
          },
          {
            "duration": 0.5357141250000268,
            "durationTicks": 180,
            "midi": 50,
            "name": "D3",
            "ticks": 140280,
            "time": 417.49987475,
            "velocity": 0.4881889763779528
          },
          {
            "duration": 0.53571412499997,
            "durationTicks": 180,
            "midi": 45,
            "name": "A2",
            "ticks": 140760,
            "time": 418.92844575000004,
            "velocity": 0.4881889763779528
          },
          {
            "duration": 0.53571412499997,
            "durationTicks": 180,
            "midi": 42,
            "name": "F#2",
            "ticks": 141240,
            "time": 420.35701675,
            "velocity": 0.4881889763779528
          },
          {
            "duration": 1.142856800000061,
            "durationTicks": 384,
            "midi": 38,
            "name": "D2",
            "ticks": 141720,
            "time": 421.78558775,
            "velocity": 0.4881889763779528
          }
        ]
      },
      {
        "channel": 0,
        "controlChanges": {},
        "pitchBends": [],
        "instrument": {
          "family": "piano",
          "number": 0,
          "name": "acoustic grand piano"
        },
        "name": "k622_2",
        "notes": [],
        "endOfTrackTicks": 144600
      },
      {
        "channel": 8,
        "controlChanges": {
          "7": [
            {
              "number": 7,
              "ticks": 0,
              "time": 0,
              "value": 0.7795275590551181
            }
          ],
          "10": [
            {
              "number": 10,
              "ticks": 0,
              "time": 0,
              "value": 0.7559055118110236
            }
          ],
          "91": [
            {
              "number": 91,
              "ticks": 0,
              "time": 0,
              "value": 0.6692913385826772
            }
          ]
        },
        "pitchBends": [],
        "instrument": {
          "family": "ensemble",
          "number": 48,
          "name": "string ensemble 1"
        },
        "name": "",
        "notes": [
          {
            "duration": 1.142856799999997,
            "durationTicks": 384,
            "midi": 38,
            "name": "D2",
            "ticks": 11520,
            "time": 34.285704,
            "velocity": 0.7086614173228346
          },
          {
            "duration": 1.1428568000000041,
            "durationTicks": 384,
            "midi": 38,
            "name": "D2",
            "ticks": 12480,
            "time": 37.142846,
            "velocity": 0.7086614173228346
          },
          {
            "duration": 1.142856799999997,
            "durationTicks": 384,
            "midi": 33,
            "name": "A1",
            "ticks": 12960,
            "time": 38.571417000000004,
            "velocity": 0.7086614173228346
          },
          {
            "duration": 1.142856799999997,
            "durationTicks": 384,
            "midi": 38,
            "name": "D2",
            "ticks": 13440,
            "time": 39.999988,
            "velocity": 0.7086614173228346
          },
          {
            "duration": 1.1428568000000041,
            "durationTicks": 384,
            "midi": 38,
            "name": "D2",
            "ticks": 14400,
            "time": 42.85713,
            "velocity": 0.7086614173228346
          },
          {
            "duration": 1.142856799999997,
            "durationTicks": 384,
            "midi": 38,
            "name": "D2",
            "ticks": 15360,
            "time": 45.714272,
            "velocity": 0.7086614173228346
          },
          {
            "duration": 1.142856799999997,
            "durationTicks": 384,
            "midi": 33,
            "name": "A1",
            "ticks": 15840,
            "time": 47.142843,
            "velocity": 0.7086614173228346
          },
          {
            "duration": 1.14285679999999,
            "durationTicks": 384,
            "midi": 38,
            "name": "D2",
            "ticks": 16320,
            "time": 48.571414000000004,
            "velocity": 0.7086614173228346
          },
          {
            "duration": 1.142856799999997,
            "durationTicks": 384,
            "midi": 45,
            "name": "A2",
            "ticks": 17280,
            "time": 51.428556,
            "velocity": 0.7086614173228346
          },
          {
            "duration": 1.142856799999997,
            "durationTicks": 384,
            "midi": 45,
            "name": "A2",
            "ticks": 18720,
            "time": 55.714269,
            "velocity": 0.7086614173228346
          },
          {
            "duration": 1.14285679999999,
            "durationTicks": 384,
            "midi": 38,
            "name": "D2",
            "ticks": 19680,
            "time": 58.571411000000005,
            "velocity": 0.7086614173228346
          },
          {
            "duration": 1.142856799999997,
            "durationTicks": 384,
            "midi": 40,
            "name": "E2",
            "ticks": 20160,
            "time": 59.999982,
            "velocity": 0.7086614173228346
          },
          {
            "duration": 1.142856799999997,
            "durationTicks": 384,
            "midi": 40,
            "name": "E2",
            "ticks": 20640,
            "time": 61.428553,
            "velocity": 0.7086614173228346
          },
          {
            "duration": 1.142856799999997,
            "durationTicks": 384,
            "midi": 40,
            "name": "E2",
            "ticks": 21120,
            "time": 62.857124,
            "velocity": 0.7086614173228346
          },
          {
            "duration": 1.14285679999999,
            "durationTicks": 384,
            "midi": 33,
            "name": "A1",
            "ticks": 21600,
            "time": 64.285695,
            "velocity": 0.6299212598425197
          },
          {
            "duration": 2.1428565000000077,
            "durationTicks": 720,
            "midi": 38,
            "name": "D2",
            "ticks": 34560,
            "time": 102.857112,
            "velocity": 0.7086614173228346
          },
          {
            "duration": 0.7142854999999884,
            "durationTicks": 240,
            "midi": 40,
            "name": "E2",
            "ticks": 35280,
            "time": 104.99996850000001,
            "velocity": 0.7086614173228346
          },
          {
            "duration": 1.1428568000000041,
            "durationTicks": 384,
            "midi": 42,
            "name": "F#2",
            "ticks": 35520,
            "time": 105.714254,
            "velocity": 0.7086614173228346
          },
          {
            "duration": 1.4285710000000051,
            "durationTicks": 480,
            "midi": 43,
            "name": "G2",
            "ticks": 36000,
            "time": 107.142825,
            "velocity": 0.7086614173228346
          },
          {
            "duration": 1.428570999999991,
            "durationTicks": 480,
            "midi": 45,
            "name": "A2",
            "ticks": 36480,
            "time": 108.57139600000001,
            "velocity": 0.7086614173228346
          },
          {
            "duration": 1.1428568000000041,
            "durationTicks": 384,
            "midi": 47,
            "name": "B2",
            "ticks": 36960,
            "time": 109.999967,
            "velocity": 0.7086614173228346
          },
          {
            "duration": 1.14285679999999,
            "durationTicks": 384,
            "midi": 40,
            "name": "E2",
            "ticks": 37440,
            "time": 111.428538,
            "velocity": 0.7086614173228346
          },
          {
            "duration": 0.7142854999999884,
            "durationTicks": 240,
            "midi": 28,
            "name": "E1",
            "ticks": 37920,
            "time": 112.85710900000001,
            "velocity": 0.7086614173228346
          },
          {
            "duration": 0.7142855000000026,
            "durationTicks": 240,
            "midi": 30,
            "name": "F#1",
            "ticks": 38160,
            "time": 113.5713945,
            "velocity": 0.7086614173228346
          },
          {
            "duration": 0.7142855000000026,
            "durationTicks": 240,
            "midi": 31,
            "name": "G1",
            "ticks": 38400,
            "time": 114.28568,
            "velocity": 0.7086614173228346
          },
          {
            "duration": 0.5714284000000021,
            "durationTicks": 192,
            "midi": 32,
            "name": "G#1",
            "ticks": 38640,
            "time": 114.9999655,
            "velocity": 0.7086614173228346
          },
          {
            "duration": 1.4285710000000051,
            "durationTicks": 480,
            "midi": 33,
            "name": "A1",
            "ticks": 38880,
            "time": 115.714251,
            "velocity": 0.7086614173228346
          },
          {
            "duration": 1.428570999999991,
            "durationTicks": 480,
            "midi": 35,
            "name": "B1",
            "ticks": 39360,
            "time": 117.14282200000001,
            "velocity": 0.7086614173228346
          },
          {
            "duration": 1.1428568000000041,
            "durationTicks": 384,
            "midi": 37,
            "name": "C#2",
            "ticks": 39840,
            "time": 118.571393,
            "velocity": 0.7086614173228346
          },
          {
            "duration": 2.1428564999999935,
            "durationTicks": 720,
            "midi": 30,
            "name": "F#1",
            "ticks": 40320,
            "time": 119.999964,
            "velocity": 0.7086614173228346
          },
          {
            "duration": 0.7142855000000026,
            "durationTicks": 240,
            "midi": 31,
            "name": "G1",
            "ticks": 41040,
            "time": 122.1428205,
            "velocity": 0.7086614173228346
          },
          {
            "duration": 0.7142855000000026,
            "durationTicks": 240,
            "midi": 33,
            "name": "A1",
            "ticks": 41280,
            "time": 122.857106,
            "velocity": 0.7086614173228346
          },
          {
            "duration": 0.5714284000000021,
            "durationTicks": 192,
            "midi": 34,
            "name": "A#1",
            "ticks": 41520,
            "time": 123.5713915,
            "velocity": 0.7086614173228346
          },
          {
            "duration": 1.428570999999991,
            "durationTicks": 480,
            "midi": 35,
            "name": "B1",
            "ticks": 41760,
            "time": 124.285677,
            "velocity": 0.7086614173228346
          },
          {
            "duration": 1.4285710000000051,
            "durationTicks": 480,
            "midi": 37,
            "name": "C#2",
            "ticks": 42240,
            "time": 125.714248,
            "velocity": 0.7086614173228346
          },
          {
            "duration": 1.1428568000000041,
            "durationTicks": 384,
            "midi": 38,
            "name": "D2",
            "ticks": 42720,
            "time": 127.142819,
            "velocity": 0.7086614173228346
          },
          {
            "duration": 1.1428568000000041,
            "durationTicks": 384,
            "midi": 31,
            "name": "G1",
            "ticks": 43200,
            "time": 128.57139,
            "velocity": 0.7086614173228346
          },
          {
            "duration": 1.1428567999999757,
            "durationTicks": 384,
            "midi": 33,
            "name": "A1",
            "ticks": 43680,
            "time": 129.999961,
            "velocity": 0.7086614173228346
          },
          {
            "duration": 1.1428568000000041,
            "durationTicks": 384,
            "midi": 33,
            "name": "A1",
            "ticks": 44160,
            "time": 131.428532,
            "velocity": 0.7086614173228346
          },
          {
            "duration": 1.1428568000000041,
            "durationTicks": 384,
            "midi": 38,
            "name": "D2",
            "ticks": 44640,
            "time": 132.857103,
            "velocity": 0.7086614173228346
          },
          {
            "duration": 1.1428567999999757,
            "durationTicks": 384,
            "midi": 38,
            "name": "D2",
            "ticks": 46080,
            "time": 137.142816,
            "velocity": 0.4881889763779528
          },
          {
            "duration": 1.1428568000000041,
            "durationTicks": 384,
            "midi": 33,
            "name": "A1",
            "ticks": 47520,
            "time": 141.428529,
            "velocity": 0.4881889763779528
          },
          {
            "duration": 5.714283999999992,
            "durationTicks": 1920,
            "midi": 40,
            "name": "E2",
            "ticks": 48960,
            "time": 145.714242,
            "velocity": 0.4881889763779528
          },
          {
            "duration": 0.5714284000000021,
            "durationTicks": 192,
            "midi": 33,
            "name": "A1",
            "ticks": 50880,
            "time": 151.428526,
            "velocity": 0.4881889763779528
          },
          {
            "duration": 0.7142855000000168,
            "durationTicks": 240,
            "midi": 45,
            "name": "A2",
            "ticks": 51120,
            "time": 152.1428115,
            "velocity": 0.5590551181102362
          },
          {
            "duration": 0.7142854999999884,
            "durationTicks": 240,
            "midi": 40,
            "name": "E2",
            "ticks": 51360,
            "time": 152.857097,
            "velocity": 0.5590551181102362
          },
          {
            "duration": 0.7142855000000168,
            "durationTicks": 240,
            "midi": 38,
            "name": "D2",
            "ticks": 51600,
            "time": 153.5713825,
            "velocity": 0.5590551181102362
          },
          {
            "duration": 1.1428567999999757,
            "durationTicks": 384,
            "midi": 37,
            "name": "C#2",
            "ticks": 51840,
            "time": 154.28566800000002,
            "velocity": 0.4881889763779528
          },
          {
            "duration": 1.1428568000000041,
            "durationTicks": 384,
            "midi": 38,
            "name": "D2",
            "ticks": 53280,
            "time": 158.571381,
            "velocity": 0.4881889763779528
          },
          {
            "duration": 1.1428567999999757,
            "durationTicks": 384,
            "midi": 40,
            "name": "E2",
            "ticks": 54720,
            "time": 162.85709400000002,
            "velocity": 0.4881889763779528
          },
          {
            "duration": 1.1428568000000041,
            "durationTicks": 384,
            "midi": 42,
            "name": "F#2",
            "ticks": 56160,
            "time": 167.142807,
            "velocity": 0.4881889763779528
          },
          {
            "duration": 4.202379691666664,
            "durationTicks": 1412,
            "midi": 32,
            "name": "G#1",
            "ticks": 57600,
            "time": 171.42852,
            "velocity": 0.4881889763779528
          },
          {
            "duration": 0.5714284000000021,
            "durationTicks": 192,
            "midi": 33,
            "name": "A1",
            "ticks": 59040,
            "time": 175.714233,
            "velocity": 0.4881889763779528
          },
          {
            "duration": 0.5714284000000021,
            "durationTicks": 192,
            "midi": 37,
            "name": "C#2",
            "ticks": 59520,
            "time": 177.142804,
            "velocity": 0.4881889763779528
          },
          {
            "duration": 0.5714284000000021,
            "durationTicks": 192,
            "midi": 38,
            "name": "D2",
            "ticks": 60000,
            "time": 178.57137500000002,
            "velocity": 0.4881889763779528
          },
          {
            "duration": 4.154760658333345,
            "durationTicks": 1396,
            "midi": 40,
            "name": "E2",
            "ticks": 60480,
            "time": 179.999946,
            "velocity": 0.4881889763779528
          },
          {
            "duration": 1.4285710000000051,
            "durationTicks": 480,
            "midi": 41,
            "name": "F2",
            "ticks": 61920,
            "time": 184.285659,
            "velocity": 0.4881889763779528
          },
          {
            "duration": 0.4642855749999626,
            "durationTicks": 156,
            "midi": 42,
            "name": "F#2",
            "ticks": 62400,
            "time": 185.71423000000001,
            "velocity": 0.4881889763779528
          },
          {
            "duration": 0.7142854999999884,
            "durationTicks": 240,
            "midi": 42,
            "name": "F#2",
            "ticks": 62640,
            "time": 186.4285155,
            "velocity": 0.4881889763779528
          },
          {
            "duration": 0.7142855000000168,
            "durationTicks": 240,
            "midi": 40,
            "name": "E2",
            "ticks": 62880,
            "time": 187.142801,
            "velocity": 0.4881889763779528
          },
          {
            "duration": 0.7142854999999884,
            "durationTicks": 240,
            "midi": 38,
            "name": "D2",
            "ticks": 63120,
            "time": 187.8570865,
            "velocity": 0.4881889763779528
          },
          {
            "duration": 1.1428568000000325,
            "durationTicks": 384,
            "midi": 37,
            "name": "C#2",
            "ticks": 63360,
            "time": 188.571372,
            "velocity": 0.4881889763779528
          },
          {
            "duration": 1.1428568000000041,
            "durationTicks": 384,
            "midi": 38,
            "name": "D2",
            "ticks": 64800,
            "time": 192.857085,
            "velocity": 0.4881889763779528
          },
          {
            "duration": 1.1428568000000325,
            "durationTicks": 384,
            "midi": 40,
            "name": "E2",
            "ticks": 66240,
            "time": 197.142798,
            "velocity": 0.4881889763779528
          },
          {
            "duration": 1.1428568000000041,
            "durationTicks": 384,
            "midi": 42,
            "name": "F#2",
            "ticks": 67680,
            "time": 201.42851100000001,
            "velocity": 0.4881889763779528
          },
          {
            "duration": 4.071427349999993,
            "durationTicks": 1368,
            "midi": 44,
            "name": "G#2",
            "ticks": 69120,
            "time": 205.714224,
            "velocity": 0.4881889763779528
          },
          {
            "duration": 1.1428568000000041,
            "durationTicks": 384,
            "midi": 45,
            "name": "A2",
            "ticks": 70560,
            "time": 209.99993700000002,
            "velocity": 0.4881889763779528
          },
          {
            "duration": 1.1428568000000041,
            "durationTicks": 384,
            "midi": 38,
            "name": "D2",
            "ticks": 72000,
            "time": 214.28565,
            "velocity": 0.4881889763779528
          },
          {
            "duration": 1.1428568000000041,
            "durationTicks": 384,
            "midi": 40,
            "name": "E2",
            "ticks": 73440,
            "time": 218.57136300000002,
            "velocity": 0.4881889763779528
          },
          {
            "duration": 1.1428568000000041,
            "durationTicks": 384,
            "midi": 40,
            "name": "E2",
            "ticks": 74880,
            "time": 222.857076,
            "velocity": 0.4881889763779528
          },
          {
            "duration": 1.1428568000000041,
            "durationTicks": 384,
            "midi": 40,
            "name": "E2",
            "ticks": 75360,
            "time": 224.285647,
            "velocity": 0.6299212598425197
          },
          {
            "duration": 1.1428568000000041,
            "durationTicks": 384,
            "midi": 40,
            "name": "E2",
            "ticks": 75840,
            "time": 225.71421800000002,
            "velocity": 0.7086614173228346
          },
          {
            "duration": 1.1428568000000325,
            "durationTicks": 384,
            "midi": 45,
            "name": "A2",
            "ticks": 76320,
            "time": 227.142789,
            "velocity": 0.7086614173228346
          },
          {
            "duration": 1.1428568000000325,
            "durationTicks": 384,
            "midi": 40,
            "name": "E2",
            "ticks": 76800,
            "time": 228.57136,
            "velocity": 0.7086614173228346
          },
          {
            "duration": 1.1428568000000041,
            "durationTicks": 384,
            "midi": 37,
            "name": "C#2",
            "ticks": 77280,
            "time": 229.999931,
            "velocity": 0.7086614173228346
          },
          {
            "duration": 1.1428568000000041,
            "durationTicks": 384,
            "midi": 33,
            "name": "A1",
            "ticks": 77760,
            "time": 231.428502,
            "velocity": 0.6299212598425197
          },
          {
            "duration": 1.1428568000000325,
            "durationTicks": 384,
            "midi": 45,
            "name": "A2",
            "ticks": 79200,
            "time": 235.714215,
            "velocity": 0.7086614173228346
          },
          {
            "duration": 1.1428568000000325,
            "durationTicks": 384,
            "midi": 33,
            "name": "A1",
            "ticks": 79680,
            "time": 237.142786,
            "velocity": 0.7086614173228346
          },
          {
            "duration": 1.1428568000000041,
            "durationTicks": 384,
            "midi": 45,
            "name": "A2",
            "ticks": 80160,
            "time": 238.571357,
            "velocity": 0.7086614173228346
          },
          {
            "duration": 1.1428568000000041,
            "durationTicks": 384,
            "midi": 33,
            "name": "A1",
            "ticks": 80640,
            "time": 239.999928,
            "velocity": 0.6299212598425197
          },
          {
            "duration": 1.1428568000000325,
            "durationTicks": 384,
            "midi": 45,
            "name": "A2",
            "ticks": 82080,
            "time": 244.285641,
            "velocity": 0.7086614173228346
          },
          {
            "duration": 1.1428568000000325,
            "durationTicks": 384,
            "midi": 40,
            "name": "E2",
            "ticks": 82560,
            "time": 245.714212,
            "velocity": 0.7086614173228346
          },
          {
            "duration": 1.1428568000000041,
            "durationTicks": 384,
            "midi": 37,
            "name": "C#2",
            "ticks": 83040,
            "time": 247.142783,
            "velocity": 0.7086614173228346
          },
          {
            "duration": 1.1428568000000041,
            "durationTicks": 384,
            "midi": 33,
            "name": "A1",
            "ticks": 83520,
            "time": 248.571354,
            "velocity": 0.7086614173228346
          },
          {
            "duration": 2.1428564999999935,
            "durationTicks": 720,
            "midi": 38,
            "name": "D2",
            "ticks": 110040,
            "time": 327.49990175,
            "velocity": 0.7086614173228346
          },
          {
            "duration": 0.7142855000000168,
            "durationTicks": 240,
            "midi": 37,
            "name": "C#2",
            "ticks": 110760,
            "time": 329.64275825,
            "velocity": 0.7086614173228346
          },
          {
            "duration": 0.7142855000000168,
            "durationTicks": 240,
            "midi": 35,
            "name": "B1",
            "ticks": 111000,
            "time": 330.35704375,
            "velocity": 0.7086614173228346
          },
          {
            "duration": 0.6785712249999847,
            "durationTicks": 228,
            "midi": 33,
            "name": "A1",
            "ticks": 111240,
            "time": 331.07132925,
            "velocity": 0.7086614173228346
          },
          {
            "duration": 1.4285709999999767,
            "durationTicks": 480,
            "midi": 31,
            "name": "G1",
            "ticks": 111480,
            "time": 331.78561475000004,
            "velocity": 0.7086614173228346
          },
          {
            "duration": 1.4285709999999767,
            "durationTicks": 480,
            "midi": 33,
            "name": "A1",
            "ticks": 111960,
            "time": 333.21418575,
            "velocity": 0.7086614173228346
          },
          {
            "duration": 1.3571424500000262,
            "durationTicks": 456,
            "midi": 35,
            "name": "B1",
            "ticks": 112440,
            "time": 334.64275675,
            "velocity": 0.7086614173228346
          },
          {
            "duration": 2.1428564999999935,
            "durationTicks": 720,
            "midi": 40,
            "name": "E2",
            "ticks": 112920,
            "time": 336.07132775,
            "velocity": 0.7086614173228346
          },
          {
            "duration": 0.7142855000000168,
            "durationTicks": 240,
            "midi": 38,
            "name": "D2",
            "ticks": 113640,
            "time": 338.21418425,
            "velocity": 0.7086614173228346
          },
          {
            "duration": 0.7142854999999599,
            "durationTicks": 240,
            "midi": 37,
            "name": "C#2",
            "ticks": 113880,
            "time": 338.92846975000003,
            "velocity": 0.7086614173228346
          },
          {
            "duration": 0.6785712249999847,
            "durationTicks": 228,
            "midi": 35,
            "name": "B1",
            "ticks": 114120,
            "time": 339.64275525,
            "velocity": 0.7086614173228346
          },
          {
            "duration": 1.4285709999999767,
            "durationTicks": 480,
            "midi": 33,
            "name": "A1",
            "ticks": 114360,
            "time": 340.35704075,
            "velocity": 0.7086614173228346
          },
          {
            "duration": 1.4285710000000336,
            "durationTicks": 480,
            "midi": 35,
            "name": "B1",
            "ticks": 114840,
            "time": 341.78561175,
            "velocity": 0.7086614173228346
          },
          {
            "duration": 1.3571424499999694,
            "durationTicks": 456,
            "midi": 37,
            "name": "C#2",
            "ticks": 115320,
            "time": 343.21418275,
            "velocity": 0.7086614173228346
          },
          {
            "duration": 2.1428564999999935,
            "durationTicks": 720,
            "midi": 42,
            "name": "F#2",
            "ticks": 115800,
            "time": 344.64275375,
            "velocity": 0.7086614173228346
          },
          {
            "duration": 0.7142855000000168,
            "durationTicks": 240,
            "midi": 40,
            "name": "E2",
            "ticks": 116520,
            "time": 346.78561025,
            "velocity": 0.7086614173228346
          },
          {
            "duration": 0.7142855000000168,
            "durationTicks": 240,
            "midi": 38,
            "name": "D2",
            "ticks": 116760,
            "time": 347.49989575,
            "velocity": 0.7086614173228346
          },
          {
            "duration": 0.6785712249999847,
            "durationTicks": 228,
            "midi": 37,
            "name": "C#2",
            "ticks": 117000,
            "time": 348.21418125,
            "velocity": 0.7086614173228346
          },
          {
            "duration": 1.4285710000000336,
            "durationTicks": 480,
            "midi": 35,
            "name": "B1",
            "ticks": 117240,
            "time": 348.92846675,
            "velocity": 0.7086614173228346
          },
          {
            "duration": 1.4285709999999767,
            "durationTicks": 480,
            "midi": 34,
            "name": "A#1",
            "ticks": 117720,
            "time": 350.35703775,
            "velocity": 0.7086614173228346
          },
          {
            "duration": 1.3571424500000262,
            "durationTicks": 456,
            "midi": 33,
            "name": "A1",
            "ticks": 118200,
            "time": 351.78560875,
            "velocity": 0.7086614173228346
          },
          {
            "duration": 1.1428568000000041,
            "durationTicks": 384,
            "midi": 31,
            "name": "G1",
            "ticks": 118680,
            "time": 353.21417975,
            "velocity": 0.7086614173228346
          },
          {
            "duration": 1.1428568000000041,
            "durationTicks": 384,
            "midi": 33,
            "name": "A1",
            "ticks": 119160,
            "time": 354.64275075,
            "velocity": 0.7086614173228346
          },
          {
            "duration": 1.142856800000061,
            "durationTicks": 384,
            "midi": 33,
            "name": "A1",
            "ticks": 119640,
            "time": 356.07132175,
            "velocity": 0.7086614173228346
          },
          {
            "duration": 1.1428568000000041,
            "durationTicks": 384,
            "midi": 38,
            "name": "D2",
            "ticks": 120120,
            "time": 357.49989275,
            "velocity": 0.7086614173228346
          },
          {
            "duration": 2.8571420000000103,
            "durationTicks": 960,
            "midi": 37,
            "name": "C#2",
            "ticks": 127320,
            "time": 378.92845775,
            "velocity": 0.4881889763779528
          },
          {
            "duration": 1.3571424499999694,
            "durationTicks": 456,
            "midi": 38,
            "name": "D2",
            "ticks": 128280,
            "time": 381.78559975,
            "velocity": 0.4881889763779528
          },
          {
            "duration": 2.8571420000000103,
            "durationTicks": 960,
            "midi": 37,
            "name": "C#2",
            "ticks": 128760,
            "time": 383.21417075,
            "velocity": 0.4881889763779528
          },
          {
            "duration": 1.3571424499999694,
            "durationTicks": 456,
            "midi": 38,
            "name": "D2",
            "ticks": 129720,
            "time": 386.07131275,
            "velocity": 0.4881889763779528
          },
          {
            "duration": 1.1428568000000041,
            "durationTicks": 384,
            "midi": 31,
            "name": "G1",
            "ticks": 130200,
            "time": 387.49988375000004,
            "velocity": 0.4881889763779528
          },
          {
            "duration": 1.1428568000000041,
            "durationTicks": 384,
            "midi": 33,
            "name": "A1",
            "ticks": 131640,
            "time": 391.78559675,
            "velocity": 0.4881889763779528
          },
          {
            "duration": 1.1428568000000041,
            "durationTicks": 384,
            "midi": 33,
            "name": "A1",
            "ticks": 133080,
            "time": 396.07130975,
            "velocity": 0.4881889763779528
          },
          {
            "duration": 1.142856800000061,
            "durationTicks": 384,
            "midi": 33,
            "name": "A1",
            "ticks": 133560,
            "time": 397.49988075,
            "velocity": 0.4881889763779528
          },
          {
            "duration": 1.1428568000000041,
            "durationTicks": 384,
            "midi": 33,
            "name": "A1",
            "ticks": 134040,
            "time": 398.92845175,
            "velocity": 0.4881889763779528
          },
          {
            "duration": 1.1428568000000041,
            "durationTicks": 384,
            "midi": 35,
            "name": "B1",
            "ticks": 134520,
            "time": 400.35702275,
            "velocity": 0.4881889763779528
          },
          {
            "duration": 1.4285710000000336,
            "durationTicks": 480,
            "midi": 31,
            "name": "G1",
            "ticks": 138360,
            "time": 411.78559075,
            "velocity": 0.2677165354330709
          },
          {
            "duration": 4.071427350000022,
            "durationTicks": 1368,
            "midi": 33,
            "name": "A1",
            "ticks": 138840,
            "time": 413.21416175,
            "velocity": 0.2677165354330709
          },
          {
            "duration": 0.5357141250000268,
            "durationTicks": 180,
            "midi": 38,
            "name": "D2",
            "ticks": 140280,
            "time": 417.49987475,
            "velocity": 0.2677165354330709
          },
          {
            "duration": 0.53571412499997,
            "durationTicks": 180,
            "midi": 33,
            "name": "A1",
            "ticks": 140760,
            "time": 418.92844575000004,
            "velocity": 0.2677165354330709
          },
          {
            "duration": 0.53571412499997,
            "durationTicks": 180,
            "midi": 30,
            "name": "F#1",
            "ticks": 141240,
            "time": 420.35701675,
            "velocity": 0.2677165354330709
          },
          {
            "duration": 1.142856800000061,
            "durationTicks": 384,
            "midi": 38,
            "name": "D2",
            "ticks": 141720,
            "time": 421.78558775,
            "velocity": 0.2677165354330709
          }
        ]
      },
      {
        "channel": 0,
        "controlChanges": {},
        "pitchBends": [],
        "instrument": {
          "family": "piano",
          "number": 0,
          "name": "acoustic grand piano"
        },
        "name": "k622_2",
        "notes": [],
        "endOfTrackTicks": 147480
      },
      {
        "channel": 10,
        "controlChanges": {
          "7": [
            {
              "number": 7,
              "ticks": 0,
              "time": 0,
              "value": 0.7637795275590551
            }
          ],
          "10": [
            {
              "number": 10,
              "ticks": 0,
              "time": 0,
              "value": 0.7559055118110236
            }
          ],
          "91": [
            {
              "number": 91,
              "ticks": 0,
              "time": 0,
              "value": 0.6692913385826772
            }
          ]
        },
        "pitchBends": [],
        "instrument": {
          "family": "strings",
          "number": 43,
          "name": "contrabass"
        },
        "name": "",
        "notes": [
          {
            "duration": 1.142856799999997,
            "durationTicks": 384,
            "midi": 38,
            "name": "D2",
            "ticks": 11520,
            "time": 34.285704,
            "velocity": 0.7086614173228346
          },
          {
            "duration": 1.1428568000000041,
            "durationTicks": 384,
            "midi": 38,
            "name": "D2",
            "ticks": 12480,
            "time": 37.142846,
            "velocity": 0.7086614173228346
          },
          {
            "duration": 1.142856799999997,
            "durationTicks": 384,
            "midi": 33,
            "name": "A1",
            "ticks": 12960,
            "time": 38.571417000000004,
            "velocity": 0.7086614173228346
          },
          {
            "duration": 1.142856799999997,
            "durationTicks": 384,
            "midi": 38,
            "name": "D2",
            "ticks": 13440,
            "time": 39.999988,
            "velocity": 0.7086614173228346
          },
          {
            "duration": 1.1428568000000041,
            "durationTicks": 384,
            "midi": 38,
            "name": "D2",
            "ticks": 14400,
            "time": 42.85713,
            "velocity": 0.7086614173228346
          },
          {
            "duration": 1.142856799999997,
            "durationTicks": 384,
            "midi": 38,
            "name": "D2",
            "ticks": 15360,
            "time": 45.714272,
            "velocity": 0.7086614173228346
          },
          {
            "duration": 1.142856799999997,
            "durationTicks": 384,
            "midi": 33,
            "name": "A1",
            "ticks": 15840,
            "time": 47.142843,
            "velocity": 0.7086614173228346
          },
          {
            "duration": 1.14285679999999,
            "durationTicks": 384,
            "midi": 38,
            "name": "D2",
            "ticks": 16320,
            "time": 48.571414000000004,
            "velocity": 0.7086614173228346
          },
          {
            "duration": 1.142856799999997,
            "durationTicks": 384,
            "midi": 45,
            "name": "A2",
            "ticks": 17280,
            "time": 51.428556,
            "velocity": 0.7086614173228346
          },
          {
            "duration": 1.142856799999997,
            "durationTicks": 384,
            "midi": 45,
            "name": "A2",
            "ticks": 18720,
            "time": 55.714269,
            "velocity": 0.7086614173228346
          },
          {
            "duration": 1.14285679999999,
            "durationTicks": 384,
            "midi": 38,
            "name": "D2",
            "ticks": 19680,
            "time": 58.571411000000005,
            "velocity": 0.7086614173228346
          },
          {
            "duration": 1.142856799999997,
            "durationTicks": 384,
            "midi": 40,
            "name": "E2",
            "ticks": 20160,
            "time": 59.999982,
            "velocity": 0.7086614173228346
          },
          {
            "duration": 1.142856799999997,
            "durationTicks": 384,
            "midi": 40,
            "name": "E2",
            "ticks": 20640,
            "time": 61.428553,
            "velocity": 0.7086614173228346
          },
          {
            "duration": 1.142856799999997,
            "durationTicks": 384,
            "midi": 40,
            "name": "E2",
            "ticks": 21120,
            "time": 62.857124,
            "velocity": 0.7086614173228346
          },
          {
            "duration": 1.14285679999999,
            "durationTicks": 384,
            "midi": 33,
            "name": "A1",
            "ticks": 21600,
            "time": 64.285695,
            "velocity": 0.6299212598425197
          },
          {
            "duration": 2.1428565000000077,
            "durationTicks": 720,
            "midi": 38,
            "name": "D2",
            "ticks": 34560,
            "time": 102.857112,
            "velocity": 0.7086614173228346
          },
          {
            "duration": 0.7142854999999884,
            "durationTicks": 240,
            "midi": 40,
            "name": "E2",
            "ticks": 35280,
            "time": 104.99996850000001,
            "velocity": 0.7086614173228346
          },
          {
            "duration": 1.1428568000000041,
            "durationTicks": 384,
            "midi": 42,
            "name": "F#2",
            "ticks": 35520,
            "time": 105.714254,
            "velocity": 0.7086614173228346
          },
          {
            "duration": 1.4285710000000051,
            "durationTicks": 480,
            "midi": 43,
            "name": "G2",
            "ticks": 36000,
            "time": 107.142825,
            "velocity": 0.7086614173228346
          },
          {
            "duration": 1.428570999999991,
            "durationTicks": 480,
            "midi": 45,
            "name": "A2",
            "ticks": 36480,
            "time": 108.57139600000001,
            "velocity": 0.7086614173228346
          },
          {
            "duration": 1.1428568000000041,
            "durationTicks": 384,
            "midi": 47,
            "name": "B2",
            "ticks": 36960,
            "time": 109.999967,
            "velocity": 0.7086614173228346
          },
          {
            "duration": 1.14285679999999,
            "durationTicks": 384,
            "midi": 40,
            "name": "E2",
            "ticks": 37440,
            "time": 111.428538,
            "velocity": 0.7086614173228346
          },
          {
            "duration": 0.7142854999999884,
            "durationTicks": 240,
            "midi": 28,
            "name": "E1",
            "ticks": 37920,
            "time": 112.85710900000001,
            "velocity": 0.7086614173228346
          },
          {
            "duration": 0.7142855000000026,
            "durationTicks": 240,
            "midi": 30,
            "name": "F#1",
            "ticks": 38160,
            "time": 113.5713945,
            "velocity": 0.7086614173228346
          },
          {
            "duration": 0.7142855000000026,
            "durationTicks": 240,
            "midi": 31,
            "name": "G1",
            "ticks": 38400,
            "time": 114.28568,
            "velocity": 0.7086614173228346
          },
          {
            "duration": 0.5714284000000021,
            "durationTicks": 192,
            "midi": 32,
            "name": "G#1",
            "ticks": 38640,
            "time": 114.9999655,
            "velocity": 0.7086614173228346
          },
          {
            "duration": 1.4285710000000051,
            "durationTicks": 480,
            "midi": 33,
            "name": "A1",
            "ticks": 38880,
            "time": 115.714251,
            "velocity": 0.7086614173228346
          },
          {
            "duration": 1.428570999999991,
            "durationTicks": 480,
            "midi": 35,
            "name": "B1",
            "ticks": 39360,
            "time": 117.14282200000001,
            "velocity": 0.7086614173228346
          },
          {
            "duration": 1.1428568000000041,
            "durationTicks": 384,
            "midi": 37,
            "name": "C#2",
            "ticks": 39840,
            "time": 118.571393,
            "velocity": 0.7086614173228346
          },
          {
            "duration": 2.1428564999999935,
            "durationTicks": 720,
            "midi": 30,
            "name": "F#1",
            "ticks": 40320,
            "time": 119.999964,
            "velocity": 0.7086614173228346
          },
          {
            "duration": 0.7142855000000026,
            "durationTicks": 240,
            "midi": 31,
            "name": "G1",
            "ticks": 41040,
            "time": 122.1428205,
            "velocity": 0.7086614173228346
          },
          {
            "duration": 0.7142855000000026,
            "durationTicks": 240,
            "midi": 33,
            "name": "A1",
            "ticks": 41280,
            "time": 122.857106,
            "velocity": 0.7086614173228346
          },
          {
            "duration": 0.5714284000000021,
            "durationTicks": 192,
            "midi": 34,
            "name": "A#1",
            "ticks": 41520,
            "time": 123.5713915,
            "velocity": 0.7086614173228346
          },
          {
            "duration": 1.428570999999991,
            "durationTicks": 480,
            "midi": 35,
            "name": "B1",
            "ticks": 41760,
            "time": 124.285677,
            "velocity": 0.7086614173228346
          },
          {
            "duration": 1.4285710000000051,
            "durationTicks": 480,
            "midi": 37,
            "name": "C#2",
            "ticks": 42240,
            "time": 125.714248,
            "velocity": 0.7086614173228346
          },
          {
            "duration": 1.1428568000000041,
            "durationTicks": 384,
            "midi": 38,
            "name": "D2",
            "ticks": 42720,
            "time": 127.142819,
            "velocity": 0.7086614173228346
          },
          {
            "duration": 1.1428568000000041,
            "durationTicks": 384,
            "midi": 31,
            "name": "G1",
            "ticks": 43200,
            "time": 128.57139,
            "velocity": 0.7086614173228346
          },
          {
            "duration": 1.1428567999999757,
            "durationTicks": 384,
            "midi": 33,
            "name": "A1",
            "ticks": 43680,
            "time": 129.999961,
            "velocity": 0.7086614173228346
          },
          {
            "duration": 1.1428568000000041,
            "durationTicks": 384,
            "midi": 33,
            "name": "A1",
            "ticks": 44160,
            "time": 131.428532,
            "velocity": 0.7086614173228346
          },
          {
            "duration": 1.1428568000000041,
            "durationTicks": 384,
            "midi": 38,
            "name": "D2",
            "ticks": 44640,
            "time": 132.857103,
            "velocity": 0.7086614173228346
          },
          {
            "duration": 1.1428567999999757,
            "durationTicks": 384,
            "midi": 38,
            "name": "D2",
            "ticks": 46080,
            "time": 137.142816,
            "velocity": 0.4881889763779528
          },
          {
            "duration": 1.1428568000000041,
            "durationTicks": 384,
            "midi": 33,
            "name": "A1",
            "ticks": 47520,
            "time": 141.428529,
            "velocity": 0.4881889763779528
          },
          {
            "duration": 5.714283999999992,
            "durationTicks": 1920,
            "midi": 40,
            "name": "E2",
            "ticks": 48960,
            "time": 145.714242,
            "velocity": 0.4881889763779528
          },
          {
            "duration": 0.5714284000000021,
            "durationTicks": 192,
            "midi": 33,
            "name": "A1",
            "ticks": 50880,
            "time": 151.428526,
            "velocity": 0.4881889763779528
          },
          {
            "duration": 0.7142855000000168,
            "durationTicks": 240,
            "midi": 45,
            "name": "A2",
            "ticks": 51120,
            "time": 152.1428115,
            "velocity": 0.4881889763779528
          },
          {
            "duration": 0.7142854999999884,
            "durationTicks": 240,
            "midi": 40,
            "name": "E2",
            "ticks": 51360,
            "time": 152.857097,
            "velocity": 0.4881889763779528
          },
          {
            "duration": 0.7142855000000168,
            "durationTicks": 240,
            "midi": 38,
            "name": "D2",
            "ticks": 51600,
            "time": 153.5713825,
            "velocity": 0.4881889763779528
          },
          {
            "duration": 1.1428567999999757,
            "durationTicks": 384,
            "midi": 37,
            "name": "C#2",
            "ticks": 51840,
            "time": 154.28566800000002,
            "velocity": 0.4881889763779528
          },
          {
            "duration": 1.1428568000000041,
            "durationTicks": 384,
            "midi": 38,
            "name": "D2",
            "ticks": 53280,
            "time": 158.571381,
            "velocity": 0.4881889763779528
          },
          {
            "duration": 1.1428567999999757,
            "durationTicks": 384,
            "midi": 40,
            "name": "E2",
            "ticks": 54720,
            "time": 162.85709400000002,
            "velocity": 0.4881889763779528
          },
          {
            "duration": 1.1428568000000041,
            "durationTicks": 384,
            "midi": 42,
            "name": "F#2",
            "ticks": 56160,
            "time": 167.142807,
            "velocity": 0.4881889763779528
          },
          {
            "duration": 4.202379691666664,
            "durationTicks": 1412,
            "midi": 32,
            "name": "G#1",
            "ticks": 57600,
            "time": 171.42852,
            "velocity": 0.4881889763779528
          },
          {
            "duration": 0.5714284000000021,
            "durationTicks": 192,
            "midi": 33,
            "name": "A1",
            "ticks": 59040,
            "time": 175.714233,
            "velocity": 0.4881889763779528
          },
          {
            "duration": 0.5714284000000021,
            "durationTicks": 192,
            "midi": 37,
            "name": "C#2",
            "ticks": 59520,
            "time": 177.142804,
            "velocity": 0.4881889763779528
          },
          {
            "duration": 0.5714284000000021,
            "durationTicks": 192,
            "midi": 38,
            "name": "D2",
            "ticks": 60000,
            "time": 178.57137500000002,
            "velocity": 0.4881889763779528
          },
          {
            "duration": 4.154760658333345,
            "durationTicks": 1396,
            "midi": 40,
            "name": "E2",
            "ticks": 60480,
            "time": 179.999946,
            "velocity": 0.4881889763779528
          },
          {
            "duration": 1.4285710000000051,
            "durationTicks": 480,
            "midi": 41,
            "name": "F2",
            "ticks": 61920,
            "time": 184.285659,
            "velocity": 0.4881889763779528
          },
          {
            "duration": 0.4642855749999626,
            "durationTicks": 156,
            "midi": 42,
            "name": "F#2",
            "ticks": 62400,
            "time": 185.71423000000001,
            "velocity": 0.4881889763779528
          },
          {
            "duration": 0.7142854999999884,
            "durationTicks": 240,
            "midi": 42,
            "name": "F#2",
            "ticks": 62640,
            "time": 186.4285155,
            "velocity": 0.4881889763779528
          },
          {
            "duration": 0.7142855000000168,
            "durationTicks": 240,
            "midi": 40,
            "name": "E2",
            "ticks": 62880,
            "time": 187.142801,
            "velocity": 0.4881889763779528
          },
          {
            "duration": 0.7142854999999884,
            "durationTicks": 240,
            "midi": 38,
            "name": "D2",
            "ticks": 63120,
            "time": 187.8570865,
            "velocity": 0.4881889763779528
          },
          {
            "duration": 1.1428568000000325,
            "durationTicks": 384,
            "midi": 37,
            "name": "C#2",
            "ticks": 63360,
            "time": 188.571372,
            "velocity": 0.4881889763779528
          },
          {
            "duration": 1.1428568000000041,
            "durationTicks": 384,
            "midi": 38,
            "name": "D2",
            "ticks": 64800,
            "time": 192.857085,
            "velocity": 0.4881889763779528
          },
          {
            "duration": 1.1428568000000325,
            "durationTicks": 384,
            "midi": 40,
            "name": "E2",
            "ticks": 66240,
            "time": 197.142798,
            "velocity": 0.4881889763779528
          },
          {
            "duration": 1.1428568000000041,
            "durationTicks": 384,
            "midi": 42,
            "name": "F#2",
            "ticks": 67680,
            "time": 201.42851100000001,
            "velocity": 0.4881889763779528
          },
          {
            "duration": 4.071427349999993,
            "durationTicks": 1368,
            "midi": 44,
            "name": "G#2",
            "ticks": 69120,
            "time": 205.714224,
            "velocity": 0.4881889763779528
          },
          {
            "duration": 1.1428568000000041,
            "durationTicks": 384,
            "midi": 45,
            "name": "A2",
            "ticks": 70560,
            "time": 209.99993700000002,
            "velocity": 0.4881889763779528
          },
          {
            "duration": 1.1428568000000041,
            "durationTicks": 384,
            "midi": 38,
            "name": "D2",
            "ticks": 72000,
            "time": 214.28565,
            "velocity": 0.4881889763779528
          },
          {
            "duration": 1.1428568000000041,
            "durationTicks": 384,
            "midi": 40,
            "name": "E2",
            "ticks": 73440,
            "time": 218.57136300000002,
            "velocity": 0.4881889763779528
          },
          {
            "duration": 1.1428568000000041,
            "durationTicks": 384,
            "midi": 40,
            "name": "E2",
            "ticks": 74880,
            "time": 222.857076,
            "velocity": 0.4881889763779528
          },
          {
            "duration": 1.1428568000000041,
            "durationTicks": 384,
            "midi": 40,
            "name": "E2",
            "ticks": 75360,
            "time": 224.285647,
            "velocity": 0.4881889763779528
          },
          {
            "duration": 1.1428568000000041,
            "durationTicks": 384,
            "midi": 40,
            "name": "E2",
            "ticks": 75840,
            "time": 225.71421800000002,
            "velocity": 0.4881889763779528
          },
          {
            "duration": 1.1428568000000325,
            "durationTicks": 384,
            "midi": 45,
            "name": "A2",
            "ticks": 76320,
            "time": 227.142789,
            "velocity": 0.4881889763779528
          },
          {
            "duration": 1.1428568000000325,
            "durationTicks": 384,
            "midi": 40,
            "name": "E2",
            "ticks": 76800,
            "time": 228.57136,
            "velocity": 0.4881889763779528
          },
          {
            "duration": 1.1428568000000041,
            "durationTicks": 384,
            "midi": 37,
            "name": "C#2",
            "ticks": 77280,
            "time": 229.999931,
            "velocity": 0.4881889763779528
          },
          {
            "duration": 1.1428568000000041,
            "durationTicks": 384,
            "midi": 33,
            "name": "A1",
            "ticks": 77760,
            "time": 231.428502,
            "velocity": 0.4881889763779528
          },
          {
            "duration": 1.1428568000000325,
            "durationTicks": 384,
            "midi": 45,
            "name": "A2",
            "ticks": 79200,
            "time": 235.714215,
            "velocity": 0.7086614173228346
          },
          {
            "duration": 1.1428568000000325,
            "durationTicks": 384,
            "midi": 33,
            "name": "A1",
            "ticks": 79680,
            "time": 237.142786,
            "velocity": 0.7086614173228346
          },
          {
            "duration": 1.1428568000000041,
            "durationTicks": 384,
            "midi": 45,
            "name": "A2",
            "ticks": 80160,
            "time": 238.571357,
            "velocity": 0.7086614173228346
          },
          {
            "duration": 1.1428568000000041,
            "durationTicks": 384,
            "midi": 33,
            "name": "A1",
            "ticks": 80640,
            "time": 239.999928,
            "velocity": 0.6299212598425197
          },
          {
            "duration": 1.1428568000000325,
            "durationTicks": 384,
            "midi": 45,
            "name": "A2",
            "ticks": 82080,
            "time": 244.285641,
            "velocity": 0.7086614173228346
          },
          {
            "duration": 1.1428568000000325,
            "durationTicks": 384,
            "midi": 40,
            "name": "E2",
            "ticks": 82560,
            "time": 245.714212,
            "velocity": 0.7086614173228346
          },
          {
            "duration": 1.1428568000000041,
            "durationTicks": 384,
            "midi": 37,
            "name": "C#2",
            "ticks": 83040,
            "time": 247.142783,
            "velocity": 0.7086614173228346
          },
          {
            "duration": 1.1428568000000041,
            "durationTicks": 384,
            "midi": 33,
            "name": "A1",
            "ticks": 83520,
            "time": 248.571354,
            "velocity": 0.7086614173228346
          },
          {
            "duration": 2.1428564999999935,
            "durationTicks": 720,
            "midi": 38,
            "name": "D2",
            "ticks": 110040,
            "time": 327.49990175,
            "velocity": 0.7086614173228346
          },
          {
            "duration": 0.7142855000000168,
            "durationTicks": 240,
            "midi": 37,
            "name": "C#2",
            "ticks": 110760,
            "time": 329.64275825,
            "velocity": 0.7086614173228346
          },
          {
            "duration": 0.7142855000000168,
            "durationTicks": 240,
            "midi": 35,
            "name": "B1",
            "ticks": 111000,
            "time": 330.35704375,
            "velocity": 0.7086614173228346
          },
          {
            "duration": 0.6785712249999847,
            "durationTicks": 228,
            "midi": 33,
            "name": "A1",
            "ticks": 111240,
            "time": 331.07132925,
            "velocity": 0.7086614173228346
          },
          {
            "duration": 1.4285709999999767,
            "durationTicks": 480,
            "midi": 31,
            "name": "G1",
            "ticks": 111480,
            "time": 331.78561475000004,
            "velocity": 0.7086614173228346
          },
          {
            "duration": 1.4285709999999767,
            "durationTicks": 480,
            "midi": 33,
            "name": "A1",
            "ticks": 111960,
            "time": 333.21418575,
            "velocity": 0.7086614173228346
          },
          {
            "duration": 1.3571424500000262,
            "durationTicks": 456,
            "midi": 35,
            "name": "B1",
            "ticks": 112440,
            "time": 334.64275675,
            "velocity": 0.7086614173228346
          },
          {
            "duration": 2.1428564999999935,
            "durationTicks": 720,
            "midi": 40,
            "name": "E2",
            "ticks": 112920,
            "time": 336.07132775,
            "velocity": 0.7086614173228346
          },
          {
            "duration": 0.7142855000000168,
            "durationTicks": 240,
            "midi": 38,
            "name": "D2",
            "ticks": 113640,
            "time": 338.21418425,
            "velocity": 0.7086614173228346
          },
          {
            "duration": 0.7142854999999599,
            "durationTicks": 240,
            "midi": 37,
            "name": "C#2",
            "ticks": 113880,
            "time": 338.92846975000003,
            "velocity": 0.7086614173228346
          },
          {
            "duration": 0.6785712249999847,
            "durationTicks": 228,
            "midi": 35,
            "name": "B1",
            "ticks": 114120,
            "time": 339.64275525,
            "velocity": 0.7086614173228346
          },
          {
            "duration": 1.4285709999999767,
            "durationTicks": 480,
            "midi": 33,
            "name": "A1",
            "ticks": 114360,
            "time": 340.35704075,
            "velocity": 0.7086614173228346
          },
          {
            "duration": 1.4285710000000336,
            "durationTicks": 480,
            "midi": 35,
            "name": "B1",
            "ticks": 114840,
            "time": 341.78561175,
            "velocity": 0.7086614173228346
          },
          {
            "duration": 1.3571424499999694,
            "durationTicks": 456,
            "midi": 37,
            "name": "C#2",
            "ticks": 115320,
            "time": 343.21418275,
            "velocity": 0.7086614173228346
          },
          {
            "duration": 2.1428564999999935,
            "durationTicks": 720,
            "midi": 42,
            "name": "F#2",
            "ticks": 115800,
            "time": 344.64275375,
            "velocity": 0.7086614173228346
          },
          {
            "duration": 0.7142855000000168,
            "durationTicks": 240,
            "midi": 40,
            "name": "E2",
            "ticks": 116520,
            "time": 346.78561025,
            "velocity": 0.7086614173228346
          },
          {
            "duration": 0.7142855000000168,
            "durationTicks": 240,
            "midi": 38,
            "name": "D2",
            "ticks": 116760,
            "time": 347.49989575,
            "velocity": 0.7086614173228346
          },
          {
            "duration": 0.6785712249999847,
            "durationTicks": 228,
            "midi": 37,
            "name": "C#2",
            "ticks": 117000,
            "time": 348.21418125,
            "velocity": 0.7086614173228346
          },
          {
            "duration": 1.4285710000000336,
            "durationTicks": 480,
            "midi": 35,
            "name": "B1",
            "ticks": 117240,
            "time": 348.92846675,
            "velocity": 0.7086614173228346
          },
          {
            "duration": 1.4285709999999767,
            "durationTicks": 480,
            "midi": 34,
            "name": "A#1",
            "ticks": 117720,
            "time": 350.35703775,
            "velocity": 0.7086614173228346
          },
          {
            "duration": 1.3571424500000262,
            "durationTicks": 456,
            "midi": 33,
            "name": "A1",
            "ticks": 118200,
            "time": 351.78560875,
            "velocity": 0.7086614173228346
          },
          {
            "duration": 1.1428568000000041,
            "durationTicks": 384,
            "midi": 31,
            "name": "G1",
            "ticks": 118680,
            "time": 353.21417975,
            "velocity": 0.7086614173228346
          },
          {
            "duration": 1.1428568000000041,
            "durationTicks": 384,
            "midi": 33,
            "name": "A1",
            "ticks": 119160,
            "time": 354.64275075,
            "velocity": 0.7086614173228346
          },
          {
            "duration": 1.142856800000061,
            "durationTicks": 384,
            "midi": 33,
            "name": "A1",
            "ticks": 119640,
            "time": 356.07132175,
            "velocity": 0.7086614173228346
          },
          {
            "duration": 1.1428568000000041,
            "durationTicks": 384,
            "midi": 38,
            "name": "D2",
            "ticks": 120120,
            "time": 357.49989275,
            "velocity": 0.7086614173228346
          },
          {
            "duration": 2.8571420000000103,
            "durationTicks": 960,
            "midi": 37,
            "name": "C#2",
            "ticks": 127320,
            "time": 378.92845775,
            "velocity": 0.4881889763779528
          },
          {
            "duration": 1.3571424499999694,
            "durationTicks": 456,
            "midi": 38,
            "name": "D2",
            "ticks": 128280,
            "time": 381.78559975,
            "velocity": 0.4881889763779528
          },
          {
            "duration": 2.8571420000000103,
            "durationTicks": 960,
            "midi": 37,
            "name": "C#2",
            "ticks": 128760,
            "time": 383.21417075,
            "velocity": 0.4881889763779528
          },
          {
            "duration": 1.3571424499999694,
            "durationTicks": 456,
            "midi": 38,
            "name": "D2",
            "ticks": 129720,
            "time": 386.07131275,
            "velocity": 0.4881889763779528
          },
          {
            "duration": 1.1428568000000041,
            "durationTicks": 384,
            "midi": 31,
            "name": "G1",
            "ticks": 130200,
            "time": 387.49988375000004,
            "velocity": 0.4881889763779528
          },
          {
            "duration": 1.1428568000000041,
            "durationTicks": 384,
            "midi": 33,
            "name": "A1",
            "ticks": 131640,
            "time": 391.78559675,
            "velocity": 0.4881889763779528
          },
          {
            "duration": 1.1428568000000041,
            "durationTicks": 384,
            "midi": 33,
            "name": "A1",
            "ticks": 133080,
            "time": 396.07130975,
            "velocity": 0.4881889763779528
          },
          {
            "duration": 1.142856800000061,
            "durationTicks": 384,
            "midi": 33,
            "name": "A1",
            "ticks": 133560,
            "time": 397.49988075,
            "velocity": 0.4881889763779528
          },
          {
            "duration": 1.1428568000000041,
            "durationTicks": 384,
            "midi": 33,
            "name": "A1",
            "ticks": 134040,
            "time": 398.92845175,
            "velocity": 0.4881889763779528
          },
          {
            "duration": 1.1428568000000041,
            "durationTicks": 384,
            "midi": 35,
            "name": "B1",
            "ticks": 134520,
            "time": 400.35702275,
            "velocity": 0.4881889763779528
          },
          {
            "duration": 1.4285710000000336,
            "durationTicks": 480,
            "midi": 31,
            "name": "G1",
            "ticks": 138360,
            "time": 411.78559075,
            "velocity": 0.2677165354330709
          },
          {
            "duration": 4.071427350000022,
            "durationTicks": 1368,
            "midi": 33,
            "name": "A1",
            "ticks": 138840,
            "time": 413.21416175,
            "velocity": 0.2677165354330709
          },
          {
            "duration": 0.5357141250000268,
            "durationTicks": 180,
            "midi": 38,
            "name": "D2",
            "ticks": 140280,
            "time": 417.49987475,
            "velocity": 0.2677165354330709
          },
          {
            "duration": 0.53571412499997,
            "durationTicks": 180,
            "midi": 33,
            "name": "A1",
            "ticks": 140760,
            "time": 418.92844575000004,
            "velocity": 0.2677165354330709
          },
          {
            "duration": 0.53571412499997,
            "durationTicks": 180,
            "midi": 30,
            "name": "F#1",
            "ticks": 141240,
            "time": 420.35701675,
            "velocity": 0.2677165354330709
          },
          {
            "duration": 1.142856800000061,
            "durationTicks": 384,
            "midi": 38,
            "name": "D2",
            "ticks": 141720,
            "time": 421.78558775,
            "velocity": 0.2677165354330709
          },
          {
            "duration": 1.1428568000000041,
            "durationTicks": 384,
            "midi": 30,
            "name": "F#1",
            "ticks": 144600,
            "time": 430.35701375,
            "velocity": 0.007874015748031496
          }
        ]
      }
    ]
  }