{
  "header": {
    "keySignatures": [],
    "meta": [],
    "name": "",
    "ppq": 384,
    "tempos": [
      {
        "bpm": 106.0035087161385,
        "ticks": 0
      }
    ],
    "timeSignatures": [
      {
        "ticks": 0,
        "timeSignature": [
          4,
          4
        ],
        "measures": 0
      }
    ]
  },
  "tracks": [
    {
      "channel": 9,
      "controlChanges": {},
      "pitchBends": [],
      "instrument": {
        "family": "drums",
        "number": 0,
        "name": "standard kit"
      },
      "name": "#Bassdrum",
      "notes": [
        {
          "duration": 0.023584125000001066,
          "durationTicks": 16,
          "midi": 36,
          "name": "C2",
          "ticks": 8826,
          "time": 13.009592953125,
          "velocity": 0.6377952755905512
        },
        {
          "duration": 0.023584125000001066,
          "durationTicks": 16,
          "midi": 36,
          "name": "C2",
          "ticks": 9216,
          "time": 13.584456000000001,
          "velocity": 0.6771653543307087
        },
        {
          "duration": 0.023584125000001066,
          "durationTicks": 16,
          "midi": 36,
          "name": "C2",
          "ticks": 9800,
          "time": 14.4452765625,
          "velocity": 0.6771653543307087
        },
        {
          "duration": 0.02358412499999929,
          "durationTicks": 16,
          "midi": 36,
          "name": "C2",
          "ticks": 10752,
          "time": 15.848532000000002,
          "velocity": 0.6771653543307087
        },
        {
          "duration": 0.02358412499999929,
          "durationTicks": 16,
          "midi": 36,
          "name": "C2",
          "ticks": 11336,
          "time": 16.7093525625,
          "velocity": 0.6771653543307087
        },
        {
          "duration": 0.02358412499999929,
          "durationTicks": 16,
          "midi": 36,
          "name": "C2",
          "ticks": 12288,
          "time": 18.112608,
          "velocity": 0.6771653543307087
        },
        {
          "duration": 0.02358412499999929,
          "durationTicks": 16,
          "midi": 36,
          "name": "C2",
          "ticks": 12872,
          "time": 18.973428562500004,
          "velocity": 0.6771653543307087
        },
        {
          "duration": 0.02358412499999929,
          "durationTicks": 16,
          "midi": 36,
          "name": "C2",
          "ticks": 13632,
          "time": 20.093674500000002,
          "velocity": 0.6771653543307087
        },
        {
          "duration": 0.023584124999995737,
          "durationTicks": 16,
          "midi": 36,
          "name": "C2",
          "ticks": 14016,
          "time": 20.659693500000003,
          "velocity": 0.5984251968503937
        },
        {
          "duration": 0.02358412499999929,
          "durationTicks": 16,
          "midi": 36,
          "name": "C2",
          "ticks": 14784,
          "time": 21.7917315,
          "velocity": 0.5511811023622047
        },
        {
          "duration": 0.02358412499999929,
          "durationTicks": 16,
          "midi": 36,
          "name": "C2",
          "ticks": 14880,
          "time": 21.93323625,
          "velocity": 0.6692913385826772
        },
        {
          "duration": 0.02358412499999929,
          "durationTicks": 16,
          "midi": 36,
          "name": "C2",
          "ticks": 15072,
          "time": 22.216245750000002,
          "velocity": 0.5590551181102362
        },
        {
          "duration": 0.02358412499999929,
          "durationTicks": 16,
          "midi": 36,
          "name": "C2",
          "ticks": 15360,
          "time": 22.64076,
          "velocity": 0.6771653543307087
        },
        {
          "duration": 0.02358412499999929,
          "durationTicks": 16,
          "midi": 36,
          "name": "C2",
          "ticks": 15944,
          "time": 23.501580562500003,
          "velocity": 0.6771653543307087
        },
        {
          "duration": 0.02358412499999929,
          "durationTicks": 16,
          "midi": 36,
          "name": "C2",
          "ticks": 16896,
          "time": 24.904836000000003,
          "velocity": 0.6771653543307087
        },
        {
          "duration": 0.02358412499999929,
          "durationTicks": 16,
          "midi": 36,
          "name": "C2",
          "ticks": 17480,
          "time": 25.765656562500002,
          "velocity": 0.6771653543307087
        },
        {
          "duration": 0.02358412499999929,
          "durationTicks": 16,
          "midi": 36,
          "name": "C2",
          "ticks": 18432,
          "time": 27.168912000000002,
          "velocity": 0.6771653543307087
        },
        {
          "duration": 0.02358412499999929,
          "durationTicks": 16,
          "midi": 36,
          "name": "C2",
          "ticks": 19016,
          "time": 28.029732562500005,
          "velocity": 0.6771653543307087
        },
        {
          "duration": 0.02358412499999929,
          "durationTicks": 16,
          "midi": 36,
          "name": "C2",
          "ticks": 19776,
          "time": 29.149978500000003,
          "velocity": 0.6771653543307087
        },
        {
          "duration": 0.023584124999995737,
          "durationTicks": 16,
          "midi": 36,
          "name": "C2",
          "ticks": 20160,
          "time": 29.715997500000004,
          "velocity": 0.6614173228346457
        },
        {
          "duration": 0.02358412499999929,
          "durationTicks": 16,
          "midi": 36,
          "name": "C2",
          "ticks": 20928,
          "time": 30.8480355,
          "velocity": 0.6692913385826772
        },
        {
          "duration": 0.02358412499999929,
          "durationTicks": 16,
          "midi": 36,
          "name": "C2",
          "ticks": 21216,
          "time": 31.272549750000003,
          "velocity": 0.5354330708661418
        },
        {
          "duration": 0.023584124999995737,
          "durationTicks": 16,
          "midi": 36,
          "name": "C2",
          "ticks": 21504,
          "time": 31.697064000000005,
          "velocity": 0.6771653543307087
        },
        {
          "duration": 0.02358412499999929,
          "durationTicks": 16,
          "midi": 36,
          "name": "C2",
          "ticks": 22088,
          "time": 32.55788456250001,
          "velocity": 0.6771653543307087
        },
        {
          "duration": 0.02358412499999929,
          "durationTicks": 16,
          "midi": 36,
          "name": "C2",
          "ticks": 23040,
          "time": 33.96114,
          "velocity": 0.6771653543307087
        },
        {
          "duration": 0.02358412499999929,
          "durationTicks": 16,
          "midi": 36,
          "name": "C2",
          "ticks": 23624,
          "time": 34.8219605625,
          "velocity": 0.6771653543307087
        },
        {
          "duration": 0.02358412499999929,
          "durationTicks": 16,
          "midi": 36,
          "name": "C2",
          "ticks": 24576,
          "time": 36.225216,
          "velocity": 0.6771653543307087
        },
        {
          "duration": 0.023584125000006395,
          "durationTicks": 16,
          "midi": 36,
          "name": "C2",
          "ticks": 25160,
          "time": 37.0860365625,
          "velocity": 0.6771653543307087
        },
        {
          "duration": 0.023584125000006395,
          "durationTicks": 16,
          "midi": 36,
          "name": "C2",
          "ticks": 25920,
          "time": 38.2062825,
          "velocity": 0.6771653543307087
        },
        {
          "duration": 0.02358412499999929,
          "durationTicks": 16,
          "midi": 36,
          "name": "C2",
          "ticks": 26304,
          "time": 38.772301500000005,
          "velocity": 0.5984251968503937
        },
        {
          "duration": 0.02358412499999929,
          "durationTicks": 16,
          "midi": 36,
          "name": "C2",
          "ticks": 27072,
          "time": 39.904339500000006,
          "velocity": 0.6062992125984252
        },
        {
          "duration": 0.023584125000006395,
          "durationTicks": 16,
          "midi": 36,
          "name": "C2",
          "ticks": 27168,
          "time": 40.04584425,
          "velocity": 0.5905511811023622
        },
        {
          "duration": 0.023584125000006395,
          "durationTicks": 16,
          "midi": 36,
          "name": "C2",
          "ticks": 27360,
          "time": 40.32885375,
          "velocity": 0.5275590551181102
        },
        {
          "duration": 0.023584125000006395,
          "durationTicks": 16,
          "midi": 36,
          "name": "C2",
          "ticks": 27648,
          "time": 40.753368,
          "velocity": 0.6771653543307087
        },
        {
          "duration": 0.02358412499999929,
          "durationTicks": 16,
          "midi": 36,
          "name": "C2",
          "ticks": 28232,
          "time": 41.614188562500004,
          "velocity": 0.6771653543307087
        },
        {
          "duration": 0.02358412499999929,
          "durationTicks": 16,
          "midi": 36,
          "name": "C2",
          "ticks": 29184,
          "time": 43.017444000000005,
          "velocity": 0.6771653543307087
        },
        {
          "duration": 0.023584125000006395,
          "durationTicks": 16,
          "midi": 36,
          "name": "C2",
          "ticks": 29768,
          "time": 43.8782645625,
          "velocity": 0.6771653543307087
        },
        {
          "duration": 0.023584125000006395,
          "durationTicks": 16,
          "midi": 36,
          "name": "C2",
          "ticks": 30720,
          "time": 45.28152,
          "velocity": 0.6771653543307087
        },
        {
          "duration": 0.02358412499999929,
          "durationTicks": 16,
          "midi": 36,
          "name": "C2",
          "ticks": 31304,
          "time": 46.1423405625,
          "velocity": 0.6771653543307087
        },
        {
          "duration": 0.02358412499999929,
          "durationTicks": 16,
          "midi": 36,
          "name": "C2",
          "ticks": 32064,
          "time": 47.262586500000005,
          "velocity": 0.6771653543307087
        },
        {
          "duration": 0.023584125000006395,
          "durationTicks": 16,
          "midi": 36,
          "name": "C2",
          "ticks": 32448,
          "time": 47.8286055,
          "velocity": 0.6614173228346457
        },
        {
          "duration": 0.023584125000006395,
          "durationTicks": 16,
          "midi": 36,
          "name": "C2",
          "ticks": 33216,
          "time": 48.9606435,
          "velocity": 0.6771653543307087
        },
        {
          "duration": 0.023584125000006395,
          "durationTicks": 16,
          "midi": 36,
          "name": "C2",
          "ticks": 33500,
          "time": 49.37926171875,
          "velocity": 0.5354330708661418
        },
        {
          "duration": 0.02358412499999929,
          "durationTicks": 16,
          "midi": 36,
          "name": "C2",
          "ticks": 33792,
          "time": 49.809672000000006,
          "velocity": 0.6771653543307087
        },
        {
          "duration": 0.023584125000006395,
          "durationTicks": 16,
          "midi": 36,
          "name": "C2",
          "ticks": 34376,
          "time": 50.6704925625,
          "velocity": 0.6771653543307087
        },
        {
          "duration": 0.023584125000006395,
          "durationTicks": 16,
          "midi": 36,
          "name": "C2",
          "ticks": 35328,
          "time": 52.073748,
          "velocity": 0.6771653543307087
        },
        {
          "duration": 0.02358412499999929,
          "durationTicks": 16,
          "midi": 36,
          "name": "C2",
          "ticks": 35912,
          "time": 52.934568562500004,
          "velocity": 0.6771653543307087
        },
        {
          "duration": 0.02358412499999929,
          "durationTicks": 16,
          "midi": 36,
          "name": "C2",
          "ticks": 36864,
          "time": 54.337824000000005,
          "velocity": 0.6771653543307087
        },
        {
          "duration": 0.023584125000006395,
          "durationTicks": 16,
          "midi": 36,
          "name": "C2",
          "ticks": 37448,
          "time": 55.1986445625,
          "velocity": 0.6771653543307087
        },
        {
          "duration": 0.023584125000006395,
          "durationTicks": 16,
          "midi": 36,
          "name": "C2",
          "ticks": 38208,
          "time": 56.3188905,
          "velocity": 0.6771653543307087
        },
        {
          "duration": 0.02358412499999929,
          "durationTicks": 16,
          "midi": 36,
          "name": "C2",
          "ticks": 38592,
          "time": 56.884909500000006,
          "velocity": 0.5984251968503937
        },
        {
          "duration": 0.02358412499999929,
          "durationTicks": 16,
          "midi": 36,
          "name": "C2",
          "ticks": 39360,
          "time": 58.01694750000001,
          "velocity": 0.6062992125984252
        },
        {
          "duration": 0.023584125000006395,
          "durationTicks": 16,
          "midi": 36,
          "name": "C2",
          "ticks": 39456,
          "time": 58.15845225,
          "velocity": 0.5905511811023622
        },
        {
          "duration": 0.023584125000006395,
          "durationTicks": 16,
          "midi": 36,
          "name": "C2",
          "ticks": 39648,
          "time": 58.44146175,
          "velocity": 0.5275590551181102
        },
        {
          "duration": 0.023584125000006395,
          "durationTicks": 16,
          "midi": 36,
          "name": "C2",
          "ticks": 39936,
          "time": 58.865976,
          "velocity": 0.6771653543307087
        },
        {
          "duration": 0.02358412499999929,
          "durationTicks": 16,
          "midi": 36,
          "name": "C2",
          "ticks": 40520,
          "time": 59.726796562500006,
          "velocity": 0.6771653543307087
        },
        {
          "duration": 0.02358412499999929,
          "durationTicks": 16,
          "midi": 36,
          "name": "C2",
          "ticks": 41472,
          "time": 61.130052000000006,
          "velocity": 0.6771653543307087
        },
        {
          "duration": 0.023584125000006395,
          "durationTicks": 16,
          "midi": 36,
          "name": "C2",
          "ticks": 42056,
          "time": 61.9908725625,
          "velocity": 0.6771653543307087
        },
        {
          "duration": 0.02358412499999929,
          "durationTicks": 16,
          "midi": 36,
          "name": "C2",
          "ticks": 43008,
          "time": 63.39412800000001,
          "velocity": 0.6771653543307087
        },
        {
          "duration": 0.02358412499999929,
          "durationTicks": 16,
          "midi": 36,
          "name": "C2",
          "ticks": 43592,
          "time": 64.2549485625,
          "velocity": 0.6771653543307087
        },
        {
          "duration": 0.02358412499999929,
          "durationTicks": 16,
          "midi": 36,
          "name": "C2",
          "ticks": 44352,
          "time": 65.3751945,
          "velocity": 0.6771653543307087
        },
        {
          "duration": 0.02358412499999929,
          "durationTicks": 16,
          "midi": 36,
          "name": "C2",
          "ticks": 44736,
          "time": 65.9412135,
          "velocity": 0.6929133858267716
        },
        {
          "duration": 0.02358412499999929,
          "durationTicks": 16,
          "midi": 36,
          "name": "C2",
          "ticks": 45512,
          "time": 67.0850435625,
          "velocity": 0.4251968503937008
        },
        {
          "duration": 0.02358412499999929,
          "durationTicks": 16,
          "midi": 36,
          "name": "C2",
          "ticks": 45600,
          "time": 67.21475625000001,
          "velocity": 0.6692913385826772
        },
        {
          "duration": 0.0235841250000135,
          "durationTicks": 16,
          "midi": 36,
          "name": "C2",
          "ticks": 46080,
          "time": 67.92228,
          "velocity": 0.8346456692913385
        },
        {
          "duration": 0.02358412499999929,
          "durationTicks": 16,
          "midi": 36,
          "name": "C2",
          "ticks": 46664,
          "time": 68.78310056250001,
          "velocity": 0.7559055118110236
        },
        {
          "duration": 0.02358412499999929,
          "durationTicks": 16,
          "midi": 36,
          "name": "C2",
          "ticks": 47616,
          "time": 70.186356,
          "velocity": 0.7874015748031497
        },
        {
          "duration": 0.0235841250000135,
          "durationTicks": 16,
          "midi": 36,
          "name": "C2",
          "ticks": 48200,
          "time": 71.0471765625,
          "velocity": 0.7637795275590551
        },
        {
          "duration": 0.02358412499999929,
          "durationTicks": 16,
          "midi": 36,
          "name": "C2",
          "ticks": 49152,
          "time": 72.450432,
          "velocity": 0.8031496062992126
        },
        {
          "duration": 0.02358412499998508,
          "durationTicks": 16,
          "midi": 36,
          "name": "C2",
          "ticks": 49736,
          "time": 73.31125256250002,
          "velocity": 0.7559055118110236
        },
        {
          "duration": 0.02358412499998508,
          "durationTicks": 16,
          "midi": 36,
          "name": "C2",
          "ticks": 50886,
          "time": 75.00636154687501,
          "velocity": 0.48031496062992124
        },
        {
          "duration": 0.02358412499998508,
          "durationTicks": 16,
          "midi": 36,
          "name": "C2",
          "ticks": 50976,
          "time": 75.13902225000001,
          "velocity": 0.7401574803149606
        },
        {
          "duration": 0.02358412499999929,
          "durationTicks": 16,
          "midi": 36,
          "name": "C2",
          "ticks": 51654,
          "time": 76.13839954687501,
          "velocity": 0.5275590551181102
        },
        {
          "duration": 0.02358412499999929,
          "durationTicks": 16,
          "midi": 36,
          "name": "C2",
          "ticks": 51744,
          "time": 76.27106025,
          "velocity": 0.7322834645669292
        },
        {
          "duration": 0.02358412499998508,
          "durationTicks": 16,
          "midi": 36,
          "name": "C2",
          "ticks": 51936,
          "time": 76.55406975000001,
          "velocity": 0.7086614173228346
        },
        {
          "duration": 0.02358412499998508,
          "durationTicks": 16,
          "midi": 36,
          "name": "C2",
          "ticks": 52224,
          "time": 76.97858400000001,
          "velocity": 0.8346456692913385
        },
        {
          "duration": 0.02358412499999929,
          "durationTicks": 16,
          "midi": 36,
          "name": "C2",
          "ticks": 52808,
          "time": 77.83940456250001,
          "velocity": 0.7559055118110236
        },
        {
          "duration": 0.02358412499999929,
          "durationTicks": 16,
          "midi": 36,
          "name": "C2",
          "ticks": 53760,
          "time": 79.24266,
          "velocity": 0.7874015748031497
        },
        {
          "duration": 0.02358412499999929,
          "durationTicks": 16,
          "midi": 36,
          "name": "C2",
          "ticks": 54344,
          "time": 80.10348056250001,
          "velocity": 0.7637795275590551
        },
        {
          "duration": 0.02358412499999929,
          "durationTicks": 16,
          "midi": 36,
          "name": "C2",
          "ticks": 55296,
          "time": 81.506736,
          "velocity": 0.8031496062992126
        },
        {
          "duration": 0.02358412499999929,
          "durationTicks": 16,
          "midi": 36,
          "name": "C2",
          "ticks": 55880,
          "time": 82.36755656250001,
          "velocity": 0.7559055118110236
        },
        {
          "duration": 0.02358412499998508,
          "durationTicks": 16,
          "midi": 36,
          "name": "C2",
          "ticks": 57030,
          "time": 84.06266554687501,
          "velocity": 0.48031496062992124
        },
        {
          "duration": 0.02358412499999929,
          "durationTicks": 16,
          "midi": 36,
          "name": "C2",
          "ticks": 57120,
          "time": 84.19532625000001,
          "velocity": 0.7401574803149606
        },
        {
          "duration": 0.02358412499999929,
          "durationTicks": 16,
          "midi": 36,
          "name": "C2",
          "ticks": 57798,
          "time": 85.194703546875,
          "velocity": 0.5275590551181102
        },
        {
          "duration": 0.02358412499999929,
          "durationTicks": 16,
          "midi": 36,
          "name": "C2",
          "ticks": 57888,
          "time": 85.32736425,
          "velocity": 0.7322834645669292
        },
        {
          "duration": 0.02358412499999929,
          "durationTicks": 16,
          "midi": 36,
          "name": "C2",
          "ticks": 58080,
          "time": 85.61037375000001,
          "velocity": 0.7086614173228346
        },
        {
          "duration": 0.02358412499999929,
          "durationTicks": 16,
          "midi": 36,
          "name": "C2",
          "ticks": 58368,
          "time": 86.03488800000001,
          "velocity": 0.8346456692913385
        },
        {
          "duration": 0.02358412499998508,
          "durationTicks": 16,
          "midi": 36,
          "name": "C2",
          "ticks": 58952,
          "time": 86.89570856250002,
          "velocity": 0.7559055118110236
        },
        {
          "duration": 0.02358412499998508,
          "durationTicks": 16,
          "midi": 36,
          "name": "C2",
          "ticks": 59904,
          "time": 88.29896400000001,
          "velocity": 0.7874015748031497
        },
        {
          "duration": 0.02358412499999929,
          "durationTicks": 16,
          "midi": 36,
          "name": "C2",
          "ticks": 60488,
          "time": 89.15978456250001,
          "velocity": 0.7637795275590551
        },
        {
          "duration": 0.02358412499999929,
          "durationTicks": 16,
          "midi": 36,
          "name": "C2",
          "ticks": 61440,
          "time": 90.56304,
          "velocity": 0.8031496062992126
        },
        {
          "duration": 0.02358412499999929,
          "durationTicks": 16,
          "midi": 36,
          "name": "C2",
          "ticks": 62024,
          "time": 91.42386056250001,
          "velocity": 0.7559055118110236
        },
        {
          "duration": 0.02358412499999929,
          "durationTicks": 16,
          "midi": 36,
          "name": "C2",
          "ticks": 63174,
          "time": 93.11896954687501,
          "velocity": 0.48031496062992124
        },
        {
          "duration": 0.02358412499999929,
          "durationTicks": 16,
          "midi": 36,
          "name": "C2",
          "ticks": 63264,
          "time": 93.25163025,
          "velocity": 0.7401574803149606
        },
        {
          "duration": 0.02358412499999929,
          "durationTicks": 16,
          "midi": 36,
          "name": "C2",
          "ticks": 63942,
          "time": 94.251007546875,
          "velocity": 0.5275590551181102
        },
        {
          "duration": 0.02358412499998508,
          "durationTicks": 16,
          "midi": 36,
          "name": "C2",
          "ticks": 64032,
          "time": 94.38366825000001,
          "velocity": 0.7322834645669292
        },
        {
          "duration": 0.02358412499999929,
          "durationTicks": 16,
          "midi": 36,
          "name": "C2",
          "ticks": 64224,
          "time": 94.66667775,
          "velocity": 0.7086614173228346
        },
        {
          "duration": 0.02358412499999929,
          "durationTicks": 16,
          "midi": 36,
          "name": "C2",
          "ticks": 64512,
          "time": 95.091192,
          "velocity": 0.7874015748031497
        },
        {
          "duration": 0.02358412499999929,
          "durationTicks": 16,
          "midi": 36,
          "name": "C2",
          "ticks": 65096,
          "time": 95.95201256250002,
          "velocity": 0.7086614173228346
        },
        {
          "duration": 0.02358412499999929,
          "durationTicks": 16,
          "midi": 36,
          "name": "C2",
          "ticks": 66048,
          "time": 97.35526800000001,
          "velocity": 0.7559055118110236
        },
        {
          "duration": 0.02358412499998508,
          "durationTicks": 16,
          "midi": 36,
          "name": "C2",
          "ticks": 66632,
          "time": 98.21608856250002,
          "velocity": 0.7007874015748031
        },
        {
          "duration": 0.02358412499998508,
          "durationTicks": 16,
          "midi": 36,
          "name": "C2",
          "ticks": 67584,
          "time": 99.61934400000001,
          "velocity": 0.7559055118110236
        },
        {
          "duration": 0.02358412499999929,
          "durationTicks": 16,
          "midi": 36,
          "name": "C2",
          "ticks": 68168,
          "time": 100.48016456250001,
          "velocity": 0.7007874015748031
        },
        {
          "duration": 0.02358412499998508,
          "durationTicks": 16,
          "midi": 36,
          "name": "C2",
          "ticks": 69120,
          "time": 101.88342000000002,
          "velocity": 0.7480314960629921
        },
        {
          "duration": 0.02358412499999929,
          "durationTicks": 16,
          "midi": 36,
          "name": "C2",
          "ticks": 70656,
          "time": 104.147496,
          "velocity": 0.8031496062992126
        },
        {
          "duration": 0.02358412499999929,
          "durationTicks": 16,
          "midi": 36,
          "name": "C2",
          "ticks": 71240,
          "time": 105.00831656250001,
          "velocity": 0.8031496062992126
        },
        {
          "duration": 0.02358412499999929,
          "durationTicks": 16,
          "midi": 36,
          "name": "C2",
          "ticks": 72192,
          "time": 106.411572,
          "velocity": 0.8031496062992126
        },
        {
          "duration": 0.02358412499999929,
          "durationTicks": 16,
          "midi": 36,
          "name": "C2",
          "ticks": 72776,
          "time": 107.27239256250002,
          "velocity": 0.8031496062992126
        },
        {
          "duration": 0.02358412499999929,
          "durationTicks": 16,
          "midi": 36,
          "name": "C2",
          "ticks": 73728,
          "time": 108.67564800000001,
          "velocity": 0.8031496062992126
        },
        {
          "duration": 0.02358412499998508,
          "durationTicks": 16,
          "midi": 36,
          "name": "C2",
          "ticks": 74312,
          "time": 109.53646856250002,
          "velocity": 0.8031496062992126
        },
        {
          "duration": 0.02358412499998508,
          "durationTicks": 16,
          "midi": 36,
          "name": "C2",
          "ticks": 75264,
          "time": 110.93972400000001,
          "velocity": 0.8031496062992126
        },
        {
          "duration": 0.02358412499998508,
          "durationTicks": 16,
          "midi": 36,
          "name": "C2",
          "ticks": 75848,
          "time": 111.80054456250002,
          "velocity": 0.8031496062992126
        },
        {
          "duration": 0.02358412499998508,
          "durationTicks": 16,
          "midi": 36,
          "name": "C2",
          "ticks": 76800,
          "time": 113.20380000000002,
          "velocity": 0.8031496062992126
        },
        {
          "duration": 0.02358412499999929,
          "durationTicks": 16,
          "midi": 36,
          "name": "C2",
          "ticks": 77384,
          "time": 114.06462056250001,
          "velocity": 0.8031496062992126
        },
        {
          "duration": 0.02358412499999929,
          "durationTicks": 16,
          "midi": 36,
          "name": "C2",
          "ticks": 78336,
          "time": 115.467876,
          "velocity": 0.8031496062992126
        },
        {
          "duration": 0.02358412499999929,
          "durationTicks": 16,
          "midi": 36,
          "name": "C2",
          "ticks": 78920,
          "time": 116.32869656250001,
          "velocity": 0.8031496062992126
        },
        {
          "duration": 0.02358412499999929,
          "durationTicks": 16,
          "midi": 36,
          "name": "C2",
          "ticks": 79872,
          "time": 117.731952,
          "velocity": 0.8031496062992126
        },
        {
          "duration": 0.02358412499999929,
          "durationTicks": 16,
          "midi": 36,
          "name": "C2",
          "ticks": 80456,
          "time": 118.59277256250002,
          "velocity": 0.8031496062992126
        },
        {
          "duration": 0.02358412499999929,
          "durationTicks": 16,
          "midi": 36,
          "name": "C2",
          "ticks": 81408,
          "time": 119.99602800000001,
          "velocity": 0.8031496062992126
        },
        {
          "duration": 0.02358412499998508,
          "durationTicks": 16,
          "midi": 36,
          "name": "C2",
          "ticks": 81992,
          "time": 120.85684856250002,
          "velocity": 0.8031496062992126
        },
        {
          "duration": 0.02358412499999929,
          "durationTicks": 16,
          "midi": 36,
          "name": "C2",
          "ticks": 82944,
          "time": 122.26010400000001,
          "velocity": 0.8031496062992126
        },
        {
          "duration": 0.02358412499998508,
          "durationTicks": 16,
          "midi": 36,
          "name": "C2",
          "ticks": 83528,
          "time": 123.12092456250002,
          "velocity": 0.8031496062992126
        },
        {
          "duration": 0.02358412499998508,
          "durationTicks": 16,
          "midi": 36,
          "name": "C2",
          "ticks": 84480,
          "time": 124.52418000000002,
          "velocity": 0.8031496062992126
        },
        {
          "duration": 0.02358412499999929,
          "durationTicks": 16,
          "midi": 36,
          "name": "C2",
          "ticks": 85064,
          "time": 125.38500056250001,
          "velocity": 0.8031496062992126
        },
        {
          "duration": 0.02358412499998508,
          "durationTicks": 16,
          "midi": 36,
          "name": "C2",
          "ticks": 86016,
          "time": 126.78825600000002,
          "velocity": 0.8031496062992126
        },
        {
          "duration": 0.02358412499999929,
          "durationTicks": 16,
          "midi": 36,
          "name": "C2",
          "ticks": 86600,
          "time": 127.64907656250001,
          "velocity": 0.8031496062992126
        },
        {
          "duration": 0.02358412499998508,
          "durationTicks": 16,
          "midi": 36,
          "name": "C2",
          "ticks": 87552,
          "time": 129.052332,
          "velocity": 0.8031496062992126
        },
        {
          "duration": 0.02358412499998508,
          "durationTicks": 16,
          "midi": 36,
          "name": "C2",
          "ticks": 88136,
          "time": 129.91315256250002,
          "velocity": 0.8031496062992126
        },
        {
          "duration": 0.02358412499998508,
          "durationTicks": 16,
          "midi": 36,
          "name": "C2",
          "ticks": 89088,
          "time": 131.31640800000002,
          "velocity": 0.8031496062992126
        },
        {
          "duration": 0.0235841250000135,
          "durationTicks": 16,
          "midi": 36,
          "name": "C2",
          "ticks": 89672,
          "time": 132.1772285625,
          "velocity": 0.8031496062992126
        },
        {
          "duration": 0.02358412499998508,
          "durationTicks": 16,
          "midi": 36,
          "name": "C2",
          "ticks": 90624,
          "time": 133.580484,
          "velocity": 0.8031496062992126
        },
        {
          "duration": 0.02358412499998508,
          "durationTicks": 16,
          "midi": 36,
          "name": "C2",
          "ticks": 91208,
          "time": 134.44130456250002,
          "velocity": 0.8031496062992126
        },
        {
          "duration": 0.0235841250000135,
          "durationTicks": 16,
          "midi": 36,
          "name": "C2",
          "ticks": 92160,
          "time": 135.84456,
          "velocity": 0.8031496062992126
        },
        {
          "duration": 0.0235841250000135,
          "durationTicks": 16,
          "midi": 36,
          "name": "C2",
          "ticks": 92744,
          "time": 136.7053805625,
          "velocity": 0.8031496062992126
        },
        {
          "duration": 0.02358412499998508,
          "durationTicks": 16,
          "midi": 36,
          "name": "C2",
          "ticks": 93696,
          "time": 138.10863600000002,
          "velocity": 0.8031496062992126
        },
        {
          "duration": 0.02358412499998508,
          "durationTicks": 16,
          "midi": 36,
          "name": "C2",
          "ticks": 94280,
          "time": 138.96945656250003,
          "velocity": 0.8031496062992126
        },
        {
          "duration": 0.0235841250000135,
          "durationTicks": 16,
          "midi": 36,
          "name": "C2",
          "ticks": 95232,
          "time": 140.372712,
          "velocity": 0.8031496062992126
        },
        {
          "duration": 0.02358412499998508,
          "durationTicks": 16,
          "midi": 36,
          "name": "C2",
          "ticks": 95816,
          "time": 141.23353256250002,
          "velocity": 0.8031496062992126
        },
        {
          "duration": 0.02358412499998508,
          "durationTicks": 16,
          "midi": 36,
          "name": "C2",
          "ticks": 96768,
          "time": 142.63678800000002,
          "velocity": 0.8031496062992126
        },
        {
          "duration": 0.0235841250000135,
          "durationTicks": 16,
          "midi": 36,
          "name": "C2",
          "ticks": 97352,
          "time": 143.4976085625,
          "velocity": 0.8031496062992126
        },
        {
          "duration": 0.0235841250000135,
          "durationTicks": 16,
          "midi": 36,
          "name": "C2",
          "ticks": 98304,
          "time": 144.900864,
          "velocity": 0.8031496062992126
        },
        {
          "duration": 0.0235841250000135,
          "durationTicks": 16,
          "midi": 36,
          "name": "C2",
          "ticks": 98888,
          "time": 145.7616845625,
          "velocity": 0.8031496062992126
        },
        {
          "duration": 0.0235841250000135,
          "durationTicks": 16,
          "midi": 36,
          "name": "C2",
          "ticks": 99840,
          "time": 147.16494,
          "velocity": 0.8031496062992126
        },
        {
          "duration": 0.0235841250000135,
          "durationTicks": 16,
          "midi": 36,
          "name": "C2",
          "ticks": 100424,
          "time": 148.0257605625,
          "velocity": 0.8031496062992126
        },
        {
          "duration": 0.0235841250000135,
          "durationTicks": 16,
          "midi": 36,
          "name": "C2",
          "ticks": 101376,
          "time": 149.42901600000002,
          "velocity": 0.8031496062992126
        },
        {
          "duration": 0.0235841250000135,
          "durationTicks": 16,
          "midi": 36,
          "name": "C2",
          "ticks": 101960,
          "time": 150.2898365625,
          "velocity": 0.8031496062992126
        },
        {
          "duration": 0.0235841250000135,
          "durationTicks": 16,
          "midi": 36,
          "name": "C2",
          "ticks": 102912,
          "time": 151.693092,
          "velocity": 0.8031496062992126
        },
        {
          "duration": 0.02358412499998508,
          "durationTicks": 16,
          "midi": 36,
          "name": "C2",
          "ticks": 103496,
          "time": 152.55391256250002,
          "velocity": 0.8031496062992126
        },
        {
          "duration": 0.0235841250000135,
          "durationTicks": 16,
          "midi": 36,
          "name": "C2",
          "ticks": 104448,
          "time": 153.95716800000002,
          "velocity": 0.8031496062992126
        },
        {
          "duration": 0.0235841250000135,
          "durationTicks": 16,
          "midi": 36,
          "name": "C2",
          "ticks": 105032,
          "time": 154.8179885625,
          "velocity": 0.8031496062992126
        },
        {
          "duration": 0.0235841250000135,
          "durationTicks": 16,
          "midi": 36,
          "name": "C2",
          "ticks": 105984,
          "time": 156.221244,
          "velocity": 0.8346456692913385
        },
        {
          "duration": 0.0235841250000135,
          "durationTicks": 16,
          "midi": 36,
          "name": "C2",
          "ticks": 107520,
          "time": 158.48532,
          "velocity": 0.8031496062992126
        },
        {
          "duration": 0.02358412499998508,
          "durationTicks": 16,
          "midi": 36,
          "name": "C2",
          "ticks": 113096,
          "time": 166.70438756250002,
          "velocity": 0.5039370078740157
        },
        {
          "duration": 0.0235841250000135,
          "durationTicks": 16,
          "midi": 36,
          "name": "C2",
          "ticks": 113184,
          "time": 166.83410025,
          "velocity": 0.6771653543307087
        },
        {
          "duration": 0.0235841250000135,
          "durationTicks": 16,
          "midi": 36,
          "name": "C2",
          "ticks": 113376,
          "time": 167.11710975000003,
          "velocity": 0.6456692913385826
        },
        {
          "duration": 0.0235841250000135,
          "durationTicks": 16,
          "midi": 36,
          "name": "C2",
          "ticks": 113664,
          "time": 167.541624,
          "velocity": 0.6771653543307087
        },
        {
          "duration": 0.0235841250000135,
          "durationTicks": 16,
          "midi": 36,
          "name": "C2",
          "ticks": 114248,
          "time": 168.4024445625,
          "velocity": 0.6771653543307087
        },
        {
          "duration": 0.0235841250000135,
          "durationTicks": 16,
          "midi": 36,
          "name": "C2",
          "ticks": 115200,
          "time": 169.8057,
          "velocity": 0.6771653543307087
        },
        {
          "duration": 0.0235841250000135,
          "durationTicks": 16,
          "midi": 36,
          "name": "C2",
          "ticks": 115784,
          "time": 170.6665205625,
          "velocity": 0.6771653543307087
        },
        {
          "duration": 0.0235841250000135,
          "durationTicks": 16,
          "midi": 36,
          "name": "C2",
          "ticks": 116736,
          "time": 172.06977600000002,
          "velocity": 0.6771653543307087
        },
        {
          "duration": 0.0235841250000135,
          "durationTicks": 16,
          "midi": 36,
          "name": "C2",
          "ticks": 117320,
          "time": 172.9305965625,
          "velocity": 0.6771653543307087
        },
        {
          "duration": 0.0235841250000135,
          "durationTicks": 16,
          "midi": 36,
          "name": "C2",
          "ticks": 118080,
          "time": 174.05084250000002,
          "velocity": 0.6771653543307087
        },
        {
          "duration": 0.02358412499998508,
          "durationTicks": 16,
          "midi": 36,
          "name": "C2",
          "ticks": 118464,
          "time": 174.61686150000003,
          "velocity": 0.5984251968503937
        },
        {
          "duration": 0.0235841250000135,
          "durationTicks": 16,
          "midi": 36,
          "name": "C2",
          "ticks": 119232,
          "time": 175.74889950000002,
          "velocity": 0.6062992125984252
        },
        {
          "duration": 0.0235841250000135,
          "durationTicks": 16,
          "midi": 36,
          "name": "C2",
          "ticks": 119328,
          "time": 175.89040425000002,
          "velocity": 0.5905511811023622
        },
        {
          "duration": 0.0235841250000135,
          "durationTicks": 16,
          "midi": 36,
          "name": "C2",
          "ticks": 119520,
          "time": 176.17341375,
          "velocity": 0.5275590551181102
        },
        {
          "duration": 0.0235841250000135,
          "durationTicks": 16,
          "midi": 36,
          "name": "C2",
          "ticks": 119808,
          "time": 176.59792800000002,
          "velocity": 0.6771653543307087
        },
        {
          "duration": 0.0235841250000135,
          "durationTicks": 16,
          "midi": 36,
          "name": "C2",
          "ticks": 120392,
          "time": 177.4587485625,
          "velocity": 0.6771653543307087
        },
        {
          "duration": 0.0235841250000135,
          "durationTicks": 16,
          "midi": 36,
          "name": "C2",
          "ticks": 121344,
          "time": 178.862004,
          "velocity": 0.6771653543307087
        },
        {
          "duration": 0.0235841250000135,
          "durationTicks": 16,
          "midi": 36,
          "name": "C2",
          "ticks": 121928,
          "time": 179.7228245625,
          "velocity": 0.6771653543307087
        },
        {
          "duration": 0.0235841250000135,
          "durationTicks": 16,
          "midi": 36,
          "name": "C2",
          "ticks": 122880,
          "time": 181.12608,
          "velocity": 0.6771653543307087
        },
        {
          "duration": 0.0235841250000135,
          "durationTicks": 16,
          "midi": 36,
          "name": "C2",
          "ticks": 123464,
          "time": 181.9869005625,
          "velocity": 0.6771653543307087
        },
        {
          "duration": 0.0235841250000135,
          "durationTicks": 16,
          "midi": 36,
          "name": "C2",
          "ticks": 124224,
          "time": 183.10714650000003,
          "velocity": 0.6771653543307087
        },
        {
          "duration": 0.0235841250000135,
          "durationTicks": 16,
          "midi": 36,
          "name": "C2",
          "ticks": 124608,
          "time": 183.6731655,
          "velocity": 0.6614173228346457
        },
        {
          "duration": 0.0235841250000135,
          "durationTicks": 16,
          "midi": 36,
          "name": "C2",
          "ticks": 125376,
          "time": 184.8052035,
          "velocity": 0.6771653543307087
        },
        {
          "duration": 0.0235841250000135,
          "durationTicks": 16,
          "midi": 36,
          "name": "C2",
          "ticks": 125664,
          "time": 185.22971775000002,
          "velocity": 0.5354330708661418
        },
        {
          "duration": 0.0235841250000135,
          "durationTicks": 16,
          "midi": 36,
          "name": "C2",
          "ticks": 125952,
          "time": 185.654232,
          "velocity": 0.6771653543307087
        },
        {
          "duration": 0.0235841250000135,
          "durationTicks": 16,
          "midi": 36,
          "name": "C2",
          "ticks": 126536,
          "time": 186.51505256250002,
          "velocity": 0.6771653543307087
        },
        {
          "duration": 0.0235841250000135,
          "durationTicks": 16,
          "midi": 36,
          "name": "C2",
          "ticks": 127488,
          "time": 187.91830800000002,
          "velocity": 0.6771653543307087
        },
        {
          "duration": 0.0235841250000135,
          "durationTicks": 16,
          "midi": 36,
          "name": "C2",
          "ticks": 128072,
          "time": 188.7791285625,
          "velocity": 0.6771653543307087
        },
        {
          "duration": 0.0235841250000135,
          "durationTicks": 16,
          "midi": 36,
          "name": "C2",
          "ticks": 129024,
          "time": 190.182384,
          "velocity": 0.6771653543307087
        },
        {
          "duration": 0.0235841250000135,
          "durationTicks": 16,
          "midi": 36,
          "name": "C2",
          "ticks": 129608,
          "time": 191.0432045625,
          "velocity": 0.6771653543307087
        },
        {
          "duration": 0.0235841250000135,
          "durationTicks": 16,
          "midi": 36,
          "name": "C2",
          "ticks": 130368,
          "time": 192.1634505,
          "velocity": 0.6771653543307087
        },
        {
          "duration": 0.0235841250000135,
          "durationTicks": 16,
          "midi": 36,
          "name": "C2",
          "ticks": 130752,
          "time": 192.72946950000002,
          "velocity": 0.5984251968503937
        },
        {
          "duration": 0.0235841250000135,
          "durationTicks": 16,
          "midi": 36,
          "name": "C2",
          "ticks": 131520,
          "time": 193.86150750000002,
          "velocity": 0.6062992125984252
        },
        {
          "duration": 0.0235841250000135,
          "durationTicks": 16,
          "midi": 36,
          "name": "C2",
          "ticks": 131616,
          "time": 194.00301225,
          "velocity": 0.5905511811023622
        },
        {
          "duration": 0.0235841250000135,
          "durationTicks": 16,
          "midi": 36,
          "name": "C2",
          "ticks": 131808,
          "time": 194.28602175,
          "velocity": 0.5275590551181102
        },
        {
          "duration": 0.0235841250000135,
          "durationTicks": 16,
          "midi": 36,
          "name": "C2",
          "ticks": 132096,
          "time": 194.71053600000002,
          "velocity": 0.6771653543307087
        },
        {
          "duration": 0.0235841250000135,
          "durationTicks": 16,
          "midi": 36,
          "name": "C2",
          "ticks": 132680,
          "time": 195.5713565625,
          "velocity": 0.6771653543307087
        },
        {
          "duration": 0.0235841250000135,
          "durationTicks": 16,
          "midi": 36,
          "name": "C2",
          "ticks": 133632,
          "time": 196.974612,
          "velocity": 0.6771653543307087
        },
        {
          "duration": 0.0235841250000135,
          "durationTicks": 16,
          "midi": 36,
          "name": "C2",
          "ticks": 134216,
          "time": 197.83543256250002,
          "velocity": 0.6771653543307087
        },
        {
          "duration": 0.0235841250000135,
          "durationTicks": 16,
          "midi": 36,
          "name": "C2",
          "ticks": 135168,
          "time": 199.23868800000002,
          "velocity": 0.6771653543307087
        },
        {
          "duration": 0.0235841250000135,
          "durationTicks": 16,
          "midi": 36,
          "name": "C2",
          "ticks": 135752,
          "time": 200.0995085625,
          "velocity": 0.6771653543307087
        },
        {
          "duration": 0.0235841250000135,
          "durationTicks": 16,
          "midi": 36,
          "name": "C2",
          "ticks": 136512,
          "time": 201.21975450000002,
          "velocity": 0.6771653543307087
        },
        {
          "duration": 0.0235841250000135,
          "durationTicks": 16,
          "midi": 36,
          "name": "C2",
          "ticks": 136896,
          "time": 201.7857735,
          "velocity": 0.6929133858267716
        },
        {
          "duration": 0.0235841250000135,
          "durationTicks": 16,
          "midi": 36,
          "name": "C2",
          "ticks": 137672,
          "time": 202.9296035625,
          "velocity": 0.4251968503937008
        },
        {
          "duration": 0.0235841250000135,
          "durationTicks": 16,
          "midi": 36,
          "name": "C2",
          "ticks": 137760,
          "time": 203.05931625000002,
          "velocity": 0.6692913385826772
        },
        {
          "duration": 0.02358412499998508,
          "durationTicks": 16,
          "midi": 36,
          "name": "C2",
          "ticks": 138240,
          "time": 203.76684000000003,
          "velocity": 0.8346456692913385
        },
        {
          "duration": 0.0235841250000135,
          "durationTicks": 16,
          "midi": 36,
          "name": "C2",
          "ticks": 138824,
          "time": 204.6276605625,
          "velocity": 0.7559055118110236
        },
        {
          "duration": 0.0235841250000135,
          "durationTicks": 16,
          "midi": 36,
          "name": "C2",
          "ticks": 139776,
          "time": 206.03091600000002,
          "velocity": 0.7874015748031497
        },
        {
          "duration": 0.0235841250000135,
          "durationTicks": 16,
          "midi": 36,
          "name": "C2",
          "ticks": 140360,
          "time": 206.8917365625,
          "velocity": 0.7637795275590551
        },
        {
          "duration": 0.0235841250000135,
          "durationTicks": 16,
          "midi": 36,
          "name": "C2",
          "ticks": 141312,
          "time": 208.294992,
          "velocity": 0.8031496062992126
        },
        {
          "duration": 0.0235841250000135,
          "durationTicks": 16,
          "midi": 36,
          "name": "C2",
          "ticks": 141896,
          "time": 209.15581256250002,
          "velocity": 0.7559055118110236
        },
        {
          "duration": 0.0235841250000135,
          "durationTicks": 16,
          "midi": 36,
          "name": "C2",
          "ticks": 143040,
          "time": 210.84207750000002,
          "velocity": 0.48031496062992124
        },
        {
          "duration": 0.0235841250000135,
          "durationTicks": 16,
          "midi": 36,
          "name": "C2",
          "ticks": 143136,
          "time": 210.98358225,
          "velocity": 0.6850393700787402
        },
        {
          "duration": 0.0235841250000135,
          "durationTicks": 16,
          "midi": 36,
          "name": "C2",
          "ticks": 143814,
          "time": 211.982959546875,
          "velocity": 0.5275590551181102
        },
        {
          "duration": 0.0235841250000135,
          "durationTicks": 16,
          "midi": 36,
          "name": "C2",
          "ticks": 143904,
          "time": 212.11562025,
          "velocity": 0.7322834645669292
        },
        {
          "duration": 0.0235841250000135,
          "durationTicks": 16,
          "midi": 36,
          "name": "C2",
          "ticks": 144096,
          "time": 212.39862975000003,
          "velocity": 0.7086614173228346
        },
        {
          "duration": 0.0235841250000135,
          "durationTicks": 16,
          "midi": 36,
          "name": "C2",
          "ticks": 144384,
          "time": 212.823144,
          "velocity": 0.8346456692913385
        },
        {
          "duration": 0.0235841250000135,
          "durationTicks": 16,
          "midi": 36,
          "name": "C2",
          "ticks": 144968,
          "time": 213.6839645625,
          "velocity": 0.7559055118110236
        },
        {
          "duration": 0.02358412499998508,
          "durationTicks": 16,
          "midi": 36,
          "name": "C2",
          "ticks": 145920,
          "time": 215.08722000000003,
          "velocity": 0.7874015748031497
        },
        {
          "duration": 0.0235841250000135,
          "durationTicks": 16,
          "midi": 36,
          "name": "C2",
          "ticks": 146504,
          "time": 215.9480405625,
          "velocity": 0.7637795275590551
        },
        {
          "duration": 0.0235841250000135,
          "durationTicks": 16,
          "midi": 36,
          "name": "C2",
          "ticks": 147456,
          "time": 217.35129600000002,
          "velocity": 0.8031496062992126
        },
        {
          "duration": 0.0235841250000135,
          "durationTicks": 16,
          "midi": 36,
          "name": "C2",
          "ticks": 148040,
          "time": 218.2121165625,
          "velocity": 0.7559055118110236
        },
        {
          "duration": 0.0235841250000135,
          "durationTicks": 16,
          "midi": 36,
          "name": "C2",
          "ticks": 149190,
          "time": 219.90722554687503,
          "velocity": 0.48031496062992124
        },
        {
          "duration": 0.0235841250000135,
          "durationTicks": 16,
          "midi": 36,
          "name": "C2",
          "ticks": 149280,
          "time": 220.03988625000002,
          "velocity": 0.7401574803149606
        },
        {
          "duration": 0.0235841250000135,
          "durationTicks": 16,
          "midi": 36,
          "name": "C2",
          "ticks": 149856,
          "time": 220.88891475000003,
          "velocity": 0.6456692913385826
        },
        {
          "duration": 0.0235841250000135,
          "durationTicks": 16,
          "midi": 36,
          "name": "C2",
          "ticks": 150060,
          "time": 221.18961234375,
          "velocity": 0.7322834645669292
        },
        {
          "duration": 0.0235841250000135,
          "durationTicks": 16,
          "midi": 36,
          "name": "C2",
          "ticks": 150528,
          "time": 221.87944800000002,
          "velocity": 0.8346456692913385
        },
        {
          "duration": 0.0235841250000135,
          "durationTicks": 16,
          "midi": 36,
          "name": "C2",
          "ticks": 151112,
          "time": 222.7402685625,
          "velocity": 0.7559055118110236
        },
        {
          "duration": 0.0235841250000135,
          "durationTicks": 16,
          "midi": 36,
          "name": "C2",
          "ticks": 152064,
          "time": 224.143524,
          "velocity": 0.7874015748031497
        },
        {
          "duration": 0.02358412499998508,
          "durationTicks": 16,
          "midi": 36,
          "name": "C2",
          "ticks": 152648,
          "time": 225.00434456250002,
          "velocity": 0.7637795275590551
        },
        {
          "duration": 0.0235841250000135,
          "durationTicks": 16,
          "midi": 36,
          "name": "C2",
          "ticks": 153600,
          "time": 226.40760000000003,
          "velocity": 0.8031496062992126
        },
        {
          "duration": 0.0235841250000135,
          "durationTicks": 16,
          "midi": 36,
          "name": "C2",
          "ticks": 154184,
          "time": 227.2684205625,
          "velocity": 0.7559055118110236
        },
        {
          "duration": 0.0235841250000135,
          "durationTicks": 16,
          "midi": 36,
          "name": "C2",
          "ticks": 155334,
          "time": 228.963529546875,
          "velocity": 0.48031496062992124
        },
        {
          "duration": 0.0235841250000135,
          "durationTicks": 16,
          "midi": 36,
          "name": "C2",
          "ticks": 155424,
          "time": 229.09619025,
          "velocity": 0.7401574803149606
        },
        {
          "duration": 0.0235841250000135,
          "durationTicks": 16,
          "midi": 36,
          "name": "C2",
          "ticks": 156102,
          "time": 230.09556754687503,
          "velocity": 0.5275590551181102
        },
        {
          "duration": 0.0235841250000135,
          "durationTicks": 16,
          "midi": 36,
          "name": "C2",
          "ticks": 156192,
          "time": 230.22822825000003,
          "velocity": 0.7322834645669292
        },
        {
          "duration": 0.0235841250000135,
          "durationTicks": 16,
          "midi": 36,
          "name": "C2",
          "ticks": 156384,
          "time": 230.51123775000002,
          "velocity": 0.7086614173228346
        },
        {
          "duration": 0.0235841250000135,
          "durationTicks": 16,
          "midi": 36,
          "name": "C2",
          "ticks": 156672,
          "time": 230.935752,
          "velocity": 0.7874015748031497
        },
        {
          "duration": 0.0235841250000135,
          "durationTicks": 16,
          "midi": 36,
          "name": "C2",
          "ticks": 157256,
          "time": 231.79657256250002,
          "velocity": 0.7086614173228346
        },
        {
          "duration": 0.0235841250000135,
          "durationTicks": 16,
          "midi": 36,
          "name": "C2",
          "ticks": 158208,
          "time": 233.19982800000002,
          "velocity": 0.7559055118110236
        },
        {
          "duration": 0.0235841250000135,
          "durationTicks": 16,
          "midi": 36,
          "name": "C2",
          "ticks": 158792,
          "time": 234.0606485625,
          "velocity": 0.7007874015748031
        },
        {
          "duration": 0.0235841250000135,
          "durationTicks": 16,
          "midi": 36,
          "name": "C2",
          "ticks": 159744,
          "time": 235.463904,
          "velocity": 0.7559055118110236
        },
        {
          "duration": 0.02358412499998508,
          "durationTicks": 16,
          "midi": 36,
          "name": "C2",
          "ticks": 160328,
          "time": 236.32472456250002,
          "velocity": 0.7007874015748031
        },
        {
          "duration": 0.0235841250000135,
          "durationTicks": 16,
          "midi": 36,
          "name": "C2",
          "ticks": 161280,
          "time": 237.72798000000003,
          "velocity": 0.7480314960629921
        }
      ],
      "endOfTrackTicks": 162816
    },
    {
      "channel": 9,
      "controlChanges": {},
      "pitchBends": [],
      "instrument": {
        "family": "drums",
        "number": 0,
        "name": "standard kit"
      },
      "name": "#Snare   ",
      "notes": [
        {
          "duration": 0.02358412499999929,
          "durationTicks": 16,
          "midi": 37,
          "name": "C#2",
          "ticks": 9600,
          "time": 14.150475000000002,
          "velocity": 0.7165354330708661
        },
        {
          "duration": 0.023584125000001066,
          "durationTicks": 16,
          "midi": 37,
          "name": "C#2",
          "ticks": 10368,
          "time": 15.282513000000002,
          "velocity": 0.7716535433070866
        },
        {
          "duration": 0.02358412499999929,
          "durationTicks": 16,
          "midi": 37,
          "name": "C#2",
          "ticks": 11136,
          "time": 16.414551000000003,
          "velocity": 0.7165354330708661
        },
        {
          "duration": 0.023584125000002842,
          "durationTicks": 16,
          "midi": 37,
          "name": "C#2",
          "ticks": 11904,
          "time": 17.546589,
          "velocity": 0.7716535433070866
        },
        {
          "duration": 0.02358412499999929,
          "durationTicks": 16,
          "midi": 37,
          "name": "C#2",
          "ticks": 12672,
          "time": 18.678627000000002,
          "velocity": 0.7165354330708661
        },
        {
          "duration": 0.02358412499999929,
          "durationTicks": 16,
          "midi": 37,
          "name": "C#2",
          "ticks": 13440,
          "time": 19.810665,
          "velocity": 0.7716535433070866
        },
        {
          "duration": 0.02358412499999929,
          "durationTicks": 16,
          "midi": 37,
          "name": "C#2",
          "ticks": 14208,
          "time": 20.942703,
          "velocity": 0.8267716535433071
        },
        {
          "duration": 0.02358412499999929,
          "durationTicks": 16,
          "midi": 37,
          "name": "C#2",
          "ticks": 14976,
          "time": 22.074741000000003,
          "velocity": 0.7716535433070866
        },
        {
          "duration": 0.02358412499999929,
          "durationTicks": 16,
          "midi": 37,
          "name": "C#2",
          "ticks": 15744,
          "time": 23.206779,
          "velocity": 0.7165354330708661
        },
        {
          "duration": 0.02358412499999929,
          "durationTicks": 16,
          "midi": 37,
          "name": "C#2",
          "ticks": 16512,
          "time": 24.338817000000002,
          "velocity": 0.7716535433070866
        },
        {
          "duration": 0.023584124999995737,
          "durationTicks": 16,
          "midi": 37,
          "name": "C#2",
          "ticks": 17280,
          "time": 25.470855000000004,
          "velocity": 0.7165354330708661
        },
        {
          "duration": 0.02358412499999929,
          "durationTicks": 16,
          "midi": 37,
          "name": "C#2",
          "ticks": 18048,
          "time": 26.602893,
          "velocity": 0.7716535433070866
        },
        {
          "duration": 0.02358412499999929,
          "durationTicks": 16,
          "midi": 37,
          "name": "C#2",
          "ticks": 18816,
          "time": 27.734931000000003,
          "velocity": 0.7165354330708661
        },
        {
          "duration": 0.02358412499999929,
          "durationTicks": 16,
          "midi": 37,
          "name": "C#2",
          "ticks": 19584,
          "time": 28.866969,
          "velocity": 0.7716535433070866
        },
        {
          "duration": 0.02358412499999929,
          "durationTicks": 16,
          "midi": 37,
          "name": "C#2",
          "ticks": 20352,
          "time": 29.999007000000002,
          "velocity": 0.8267716535433071
        },
        {
          "duration": 0.02358412499999929,
          "durationTicks": 16,
          "midi": 37,
          "name": "C#2",
          "ticks": 21120,
          "time": 31.131045000000004,
          "velocity": 0.7716535433070866
        },
        {
          "duration": 0.02358412499999929,
          "durationTicks": 16,
          "midi": 37,
          "name": "C#2",
          "ticks": 21888,
          "time": 32.263083,
          "velocity": 0.7165354330708661
        },
        {
          "duration": 0.02358412499999929,
          "durationTicks": 16,
          "midi": 37,
          "name": "C#2",
          "ticks": 22656,
          "time": 33.395121,
          "velocity": 0.7716535433070866
        },
        {
          "duration": 0.02358412499999929,
          "durationTicks": 16,
          "midi": 37,
          "name": "C#2",
          "ticks": 23424,
          "time": 34.527159000000005,
          "velocity": 0.7165354330708661
        },
        {
          "duration": 0.02358412499999929,
          "durationTicks": 16,
          "midi": 37,
          "name": "C#2",
          "ticks": 24192,
          "time": 35.659197000000006,
          "velocity": 0.7716535433070866
        },
        {
          "duration": 0.023584125000006395,
          "durationTicks": 16,
          "midi": 37,
          "name": "C#2",
          "ticks": 24960,
          "time": 36.791235,
          "velocity": 0.7165354330708661
        },
        {
          "duration": 0.023584125000006395,
          "durationTicks": 16,
          "midi": 37,
          "name": "C#2",
          "ticks": 25728,
          "time": 37.923273,
          "velocity": 0.7716535433070866
        },
        {
          "duration": 0.023584125000006395,
          "durationTicks": 16,
          "midi": 37,
          "name": "C#2",
          "ticks": 26496,
          "time": 39.055311,
          "velocity": 0.8267716535433071
        },
        {
          "duration": 0.02358412499999929,
          "durationTicks": 16,
          "midi": 37,
          "name": "C#2",
          "ticks": 27264,
          "time": 40.187349000000005,
          "velocity": 0.7716535433070866
        },
        {
          "duration": 0.02358412499999929,
          "durationTicks": 16,
          "midi": 37,
          "name": "C#2",
          "ticks": 28032,
          "time": 41.319387000000006,
          "velocity": 0.7165354330708661
        },
        {
          "duration": 0.023584125000006395,
          "durationTicks": 16,
          "midi": 37,
          "name": "C#2",
          "ticks": 28800,
          "time": 42.451425,
          "velocity": 0.7716535433070866
        },
        {
          "duration": 0.023584125000006395,
          "durationTicks": 16,
          "midi": 37,
          "name": "C#2",
          "ticks": 29568,
          "time": 43.583463,
          "velocity": 0.7165354330708661
        },
        {
          "duration": 0.023584125000006395,
          "durationTicks": 16,
          "midi": 37,
          "name": "C#2",
          "ticks": 30336,
          "time": 44.715501,
          "velocity": 0.7716535433070866
        },
        {
          "duration": 0.02358412499999929,
          "durationTicks": 16,
          "midi": 37,
          "name": "C#2",
          "ticks": 31104,
          "time": 45.847539000000005,
          "velocity": 0.7165354330708661
        },
        {
          "duration": 0.02358412499999929,
          "durationTicks": 16,
          "midi": 37,
          "name": "C#2",
          "ticks": 31872,
          "time": 46.979577000000006,
          "velocity": 0.7716535433070866
        },
        {
          "duration": 0.02358412499999929,
          "durationTicks": 16,
          "midi": 37,
          "name": "C#2",
          "ticks": 32640,
          "time": 48.11161500000001,
          "velocity": 0.8267716535433071
        },
        {
          "duration": 0.023584125000006395,
          "durationTicks": 16,
          "midi": 37,
          "name": "C#2",
          "ticks": 33408,
          "time": 49.243653,
          "velocity": 0.7716535433070866
        },
        {
          "duration": 0.023584125000006395,
          "durationTicks": 16,
          "midi": 37,
          "name": "C#2",
          "ticks": 34176,
          "time": 50.375691,
          "velocity": 0.7165354330708661
        },
        {
          "duration": 0.02358412499999929,
          "durationTicks": 16,
          "midi": 37,
          "name": "C#2",
          "ticks": 34944,
          "time": 51.507729000000005,
          "velocity": 0.7716535433070866
        },
        {
          "duration": 0.02358412499999929,
          "durationTicks": 16,
          "midi": 37,
          "name": "C#2",
          "ticks": 35712,
          "time": 52.639767000000006,
          "velocity": 0.7165354330708661
        },
        {
          "duration": 0.02358412499999929,
          "durationTicks": 16,
          "midi": 37,
          "name": "C#2",
          "ticks": 36480,
          "time": 53.77180500000001,
          "velocity": 0.7716535433070866
        },
        {
          "duration": 0.023584125000006395,
          "durationTicks": 16,
          "midi": 37,
          "name": "C#2",
          "ticks": 37248,
          "time": 54.903843,
          "velocity": 0.7165354330708661
        },
        {
          "duration": 0.023584125000006395,
          "durationTicks": 16,
          "midi": 37,
          "name": "C#2",
          "ticks": 38016,
          "time": 56.035881,
          "velocity": 0.7716535433070866
        },
        {
          "duration": 0.023584125000006395,
          "durationTicks": 16,
          "midi": 37,
          "name": "C#2",
          "ticks": 38784,
          "time": 57.167919000000005,
          "velocity": 0.8267716535433071
        },
        {
          "duration": 0.02358412499999929,
          "durationTicks": 16,
          "midi": 37,
          "name": "C#2",
          "ticks": 39552,
          "time": 58.299957000000006,
          "velocity": 0.7716535433070866
        },
        {
          "duration": 0.02358412499999929,
          "durationTicks": 16,
          "midi": 37,
          "name": "C#2",
          "ticks": 40320,
          "time": 59.43199500000001,
          "velocity": 0.7165354330708661
        },
        {
          "duration": 0.023584125000006395,
          "durationTicks": 16,
          "midi": 37,
          "name": "C#2",
          "ticks": 41088,
          "time": 60.564033,
          "velocity": 0.7716535433070866
        },
        {
          "duration": 0.023584125000006395,
          "durationTicks": 16,
          "midi": 37,
          "name": "C#2",
          "ticks": 41856,
          "time": 61.696071,
          "velocity": 0.7165354330708661
        },
        {
          "duration": 0.023584125000006395,
          "durationTicks": 16,
          "midi": 37,
          "name": "C#2",
          "ticks": 42624,
          "time": 62.828109000000005,
          "velocity": 0.7716535433070866
        },
        {
          "duration": 0.02358412499999929,
          "durationTicks": 16,
          "midi": 37,
          "name": "C#2",
          "ticks": 43392,
          "time": 63.960147000000006,
          "velocity": 0.7165354330708661
        },
        {
          "duration": 0.0235841250000135,
          "durationTicks": 16,
          "midi": 37,
          "name": "C#2",
          "ticks": 44160,
          "time": 65.092185,
          "velocity": 0.7716535433070866
        },
        {
          "duration": 0.02358412499999929,
          "durationTicks": 16,
          "midi": 37,
          "name": "C#2",
          "ticks": 44928,
          "time": 66.22422300000001,
          "velocity": 0.8267716535433071
        },
        {
          "duration": 0.02358412499998508,
          "durationTicks": 16,
          "midi": 38,
          "name": "D2",
          "ticks": 45682,
          "time": 67.33562489062501,
          "velocity": 0.6299212598425197
        },
        {
          "duration": 0.020636109375004708,
          "durationTicks": 14,
          "midi": 38,
          "name": "D2",
          "ticks": 45696,
          "time": 67.356261,
          "velocity": 0.7874015748031497
        },
        {
          "duration": 0.02358412499998508,
          "durationTicks": 16,
          "midi": 38,
          "name": "D2",
          "ticks": 46468,
          "time": 68.49419503125002,
          "velocity": 0.6692913385826772
        },
        {
          "duration": 0.02358412499999929,
          "durationTicks": 16,
          "midi": 38,
          "name": "D2",
          "ticks": 47232,
          "time": 69.620337,
          "velocity": 0.6692913385826772
        },
        {
          "duration": 0.02358412499999929,
          "durationTicks": 16,
          "midi": 38,
          "name": "D2",
          "ticks": 48004,
          "time": 70.75827103125,
          "velocity": 0.6692913385826772
        },
        {
          "duration": 0.02358412499999929,
          "durationTicks": 16,
          "midi": 38,
          "name": "D2",
          "ticks": 48768,
          "time": 71.88441300000001,
          "velocity": 0.6692913385826772
        },
        {
          "duration": 0.02358412499999929,
          "durationTicks": 16,
          "midi": 38,
          "name": "D2",
          "ticks": 49540,
          "time": 73.02234703125,
          "velocity": 0.6692913385826772
        },
        {
          "duration": 0.02358412499998508,
          "durationTicks": 16,
          "midi": 38,
          "name": "D2",
          "ticks": 50304,
          "time": 74.14848900000001,
          "velocity": 0.6692913385826772
        },
        {
          "duration": 0.02358412499999929,
          "durationTicks": 16,
          "midi": 38,
          "name": "D2",
          "ticks": 51072,
          "time": 75.280527,
          "velocity": 0.7086614173228346
        },
        {
          "duration": 0.02358412499999929,
          "durationTicks": 16,
          "midi": 38,
          "name": "D2",
          "ticks": 51840,
          "time": 76.412565,
          "velocity": 0.7480314960629921
        },
        {
          "duration": 0.02358412499999929,
          "durationTicks": 16,
          "midi": 38,
          "name": "D2",
          "ticks": 52032,
          "time": 76.6955745,
          "velocity": 0.23622047244094488
        },
        {
          "duration": 0.0235841250000135,
          "durationTicks": 16,
          "midi": 38,
          "name": "D2",
          "ticks": 52096,
          "time": 76.789911,
          "velocity": 0.23622047244094488
        },
        {
          "duration": 0.02358412499998508,
          "durationTicks": 16,
          "midi": 38,
          "name": "D2",
          "ticks": 52154,
          "time": 76.87540345312502,
          "velocity": 0.23622047244094488
        },
        {
          "duration": 0.0235841250000135,
          "durationTicks": 16,
          "midi": 38,
          "name": "D2",
          "ticks": 52612,
          "time": 77.55049903125,
          "velocity": 0.6692913385826772
        },
        {
          "duration": 0.02358412499999929,
          "durationTicks": 16,
          "midi": 38,
          "name": "D2",
          "ticks": 53376,
          "time": 78.676641,
          "velocity": 0.6692913385826772
        },
        {
          "duration": 0.0235841250000135,
          "durationTicks": 16,
          "midi": 38,
          "name": "D2",
          "ticks": 54148,
          "time": 79.81457503125,
          "velocity": 0.6692913385826772
        },
        {
          "duration": 0.02358412499999929,
          "durationTicks": 16,
          "midi": 38,
          "name": "D2",
          "ticks": 54912,
          "time": 80.940717,
          "velocity": 0.6692913385826772
        },
        {
          "duration": 0.0235841250000135,
          "durationTicks": 16,
          "midi": 38,
          "name": "D2",
          "ticks": 55684,
          "time": 82.07865103125,
          "velocity": 0.6692913385826772
        },
        {
          "duration": 0.02358412499999929,
          "durationTicks": 16,
          "midi": 38,
          "name": "D2",
          "ticks": 56448,
          "time": 83.20479300000001,
          "velocity": 0.6692913385826772
        },
        {
          "duration": 0.02358412499999929,
          "durationTicks": 16,
          "midi": 38,
          "name": "D2",
          "ticks": 57216,
          "time": 84.336831,
          "velocity": 0.7086614173228346
        },
        {
          "duration": 0.02358412499998508,
          "durationTicks": 16,
          "midi": 38,
          "name": "D2",
          "ticks": 57984,
          "time": 85.46886900000001,
          "velocity": 0.7480314960629921
        },
        {
          "duration": 0.02358412499999929,
          "durationTicks": 16,
          "midi": 38,
          "name": "D2",
          "ticks": 58176,
          "time": 85.7518785,
          "velocity": 0.23622047244094488
        },
        {
          "duration": 0.0235841250000135,
          "durationTicks": 16,
          "midi": 38,
          "name": "D2",
          "ticks": 58240,
          "time": 85.846215,
          "velocity": 0.23622047244094488
        },
        {
          "duration": 0.02358412499999929,
          "durationTicks": 16,
          "midi": 38,
          "name": "D2",
          "ticks": 58298,
          "time": 85.93170745312501,
          "velocity": 0.23622047244094488
        },
        {
          "duration": 0.0235841250000135,
          "durationTicks": 16,
          "midi": 38,
          "name": "D2",
          "ticks": 58756,
          "time": 86.60680303125,
          "velocity": 0.6692913385826772
        },
        {
          "duration": 0.02358412499999929,
          "durationTicks": 16,
          "midi": 38,
          "name": "D2",
          "ticks": 59520,
          "time": 87.732945,
          "velocity": 0.6692913385826772
        },
        {
          "duration": 0.0235841250000135,
          "durationTicks": 16,
          "midi": 38,
          "name": "D2",
          "ticks": 60292,
          "time": 88.87087903125,
          "velocity": 0.6692913385826772
        },
        {
          "duration": 0.02358412499999929,
          "durationTicks": 16,
          "midi": 38,
          "name": "D2",
          "ticks": 61056,
          "time": 89.997021,
          "velocity": 0.6692913385826772
        },
        {
          "duration": 0.0235841250000135,
          "durationTicks": 16,
          "midi": 38,
          "name": "D2",
          "ticks": 61828,
          "time": 91.13495503125,
          "velocity": 0.6692913385826772
        },
        {
          "duration": 0.02358412499999929,
          "durationTicks": 16,
          "midi": 38,
          "name": "D2",
          "ticks": 62592,
          "time": 92.261097,
          "velocity": 0.6692913385826772
        },
        {
          "duration": 0.02358412499998508,
          "durationTicks": 16,
          "midi": 38,
          "name": "D2",
          "ticks": 63360,
          "time": 93.39313500000002,
          "velocity": 0.7086614173228346
        },
        {
          "duration": 0.02358412499999929,
          "durationTicks": 16,
          "midi": 38,
          "name": "D2",
          "ticks": 64128,
          "time": 94.52517300000001,
          "velocity": 0.7480314960629921
        },
        {
          "duration": 0.02358412499998508,
          "durationTicks": 16,
          "midi": 38,
          "name": "D2",
          "ticks": 64320,
          "time": 94.80818250000002,
          "velocity": 0.23622047244094488
        },
        {
          "duration": 0.0235841250000135,
          "durationTicks": 16,
          "midi": 38,
          "name": "D2",
          "ticks": 64384,
          "time": 94.902519,
          "velocity": 0.23622047244094488
        },
        {
          "duration": 0.02358412499999929,
          "durationTicks": 16,
          "midi": 38,
          "name": "D2",
          "ticks": 64442,
          "time": 94.98801145312501,
          "velocity": 0.23622047244094488
        },
        {
          "duration": 0.0235841250000135,
          "durationTicks": 16,
          "midi": 38,
          "name": "D2",
          "ticks": 64900,
          "time": 95.66310703125001,
          "velocity": 0.6692913385826772
        },
        {
          "duration": 0.02358412499998508,
          "durationTicks": 16,
          "midi": 38,
          "name": "D2",
          "ticks": 65664,
          "time": 96.78924900000001,
          "velocity": 0.6692913385826772
        },
        {
          "duration": 0.02358412499999929,
          "durationTicks": 16,
          "midi": 38,
          "name": "D2",
          "ticks": 66436,
          "time": 97.92718303125001,
          "velocity": 0.6692913385826772
        },
        {
          "duration": 0.02358412499998508,
          "durationTicks": 16,
          "midi": 38,
          "name": "D2",
          "ticks": 67200,
          "time": 99.05332500000002,
          "velocity": 0.6692913385826772
        },
        {
          "duration": 0.0235841250000135,
          "durationTicks": 16,
          "midi": 38,
          "name": "D2",
          "ticks": 67972,
          "time": 100.19125903125,
          "velocity": 0.6692913385826772
        },
        {
          "duration": 0.02358412499999929,
          "durationTicks": 16,
          "midi": 38,
          "name": "D2",
          "ticks": 68736,
          "time": 101.317401,
          "velocity": 0.6692913385826772
        },
        {
          "duration": 0.02358412499998508,
          "durationTicks": 16,
          "midi": 38,
          "name": "D2",
          "ticks": 69504,
          "time": 102.44943900000001,
          "velocity": 0.7637795275590551
        },
        {
          "duration": 0.02358412499999929,
          "durationTicks": 16,
          "midi": 38,
          "name": "D2",
          "ticks": 71042,
          "time": 104.71646301562501,
          "velocity": 0.6692913385826772
        },
        {
          "duration": 0.02358412499999929,
          "durationTicks": 16,
          "midi": 38,
          "name": "D2",
          "ticks": 71808,
          "time": 105.84555300000001,
          "velocity": 0.6692913385826772
        },
        {
          "duration": 0.02358412499999929,
          "durationTicks": 16,
          "midi": 38,
          "name": "D2",
          "ticks": 72578,
          "time": 106.98053901562501,
          "velocity": 0.6692913385826772
        },
        {
          "duration": 0.02358412499998508,
          "durationTicks": 16,
          "midi": 38,
          "name": "D2",
          "ticks": 73344,
          "time": 108.10962900000001,
          "velocity": 0.6692913385826772
        },
        {
          "duration": 0.02358412499999929,
          "durationTicks": 16,
          "midi": 38,
          "name": "D2",
          "ticks": 74114,
          "time": 109.24461501562502,
          "velocity": 0.6692913385826772
        },
        {
          "duration": 0.02358412499998508,
          "durationTicks": 16,
          "midi": 38,
          "name": "D2",
          "ticks": 74880,
          "time": 110.37370500000002,
          "velocity": 0.6692913385826772
        },
        {
          "duration": 0.02358412499999929,
          "durationTicks": 16,
          "midi": 38,
          "name": "D2",
          "ticks": 75648,
          "time": 111.50574300000001,
          "velocity": 0.7086614173228346
        },
        {
          "duration": 0.02358412499999929,
          "durationTicks": 16,
          "midi": 38,
          "name": "D2",
          "ticks": 76416,
          "time": 112.637781,
          "velocity": 0.7480314960629921
        },
        {
          "duration": 0.02358412499999929,
          "durationTicks": 16,
          "midi": 38,
          "name": "D2",
          "ticks": 76608,
          "time": 112.92079050000001,
          "velocity": 0.23622047244094488
        },
        {
          "duration": 0.0235841250000135,
          "durationTicks": 16,
          "midi": 38,
          "name": "D2",
          "ticks": 76672,
          "time": 113.015127,
          "velocity": 0.23622047244094488
        },
        {
          "duration": 0.02358412499998508,
          "durationTicks": 16,
          "midi": 38,
          "name": "D2",
          "ticks": 76730,
          "time": 113.10061945312502,
          "velocity": 0.23622047244094488
        },
        {
          "duration": 0.02358412499998508,
          "durationTicks": 16,
          "midi": 38,
          "name": "D2",
          "ticks": 77186,
          "time": 113.77276701562502,
          "velocity": 0.6692913385826772
        },
        {
          "duration": 0.02358412499999929,
          "durationTicks": 16,
          "midi": 38,
          "name": "D2",
          "ticks": 77952,
          "time": 114.901857,
          "velocity": 0.6692913385826772
        },
        {
          "duration": 0.02358412499999929,
          "durationTicks": 16,
          "midi": 38,
          "name": "D2",
          "ticks": 78722,
          "time": 116.03684301562501,
          "velocity": 0.6692913385826772
        },
        {
          "duration": 0.02358412499999929,
          "durationTicks": 16,
          "midi": 38,
          "name": "D2",
          "ticks": 79488,
          "time": 117.16593300000001,
          "velocity": 0.6692913385826772
        },
        {
          "duration": 0.02358412499999929,
          "durationTicks": 16,
          "midi": 38,
          "name": "D2",
          "ticks": 80258,
          "time": 118.30091901562501,
          "velocity": 0.6692913385826772
        },
        {
          "duration": 0.02358412499999929,
          "durationTicks": 16,
          "midi": 38,
          "name": "D2",
          "ticks": 81024,
          "time": 119.43000900000001,
          "velocity": 0.6692913385826772
        },
        {
          "duration": 0.02358412499999929,
          "durationTicks": 16,
          "midi": 38,
          "name": "D2",
          "ticks": 81792,
          "time": 120.562047,
          "velocity": 0.7086614173228346
        },
        {
          "duration": 0.02358412499998508,
          "durationTicks": 16,
          "midi": 38,
          "name": "D2",
          "ticks": 82560,
          "time": 121.69408500000002,
          "velocity": 0.7480314960629921
        },
        {
          "duration": 0.02358412499999929,
          "durationTicks": 16,
          "midi": 38,
          "name": "D2",
          "ticks": 82752,
          "time": 121.9770945,
          "velocity": 0.23622047244094488
        },
        {
          "duration": 0.0235841250000135,
          "durationTicks": 16,
          "midi": 38,
          "name": "D2",
          "ticks": 82816,
          "time": 122.071431,
          "velocity": 0.23622047244094488
        },
        {
          "duration": 0.02358412499999929,
          "durationTicks": 16,
          "midi": 38,
          "name": "D2",
          "ticks": 82874,
          "time": 122.15692345312502,
          "velocity": 0.23622047244094488
        },
        {
          "duration": 0.02358412499999929,
          "durationTicks": 16,
          "midi": 38,
          "name": "D2",
          "ticks": 83330,
          "time": 122.82907101562502,
          "velocity": 0.6692913385826772
        },
        {
          "duration": 0.02358412499999929,
          "durationTicks": 16,
          "midi": 38,
          "name": "D2",
          "ticks": 84096,
          "time": 123.958161,
          "velocity": 0.6692913385826772
        },
        {
          "duration": 0.02358412499998508,
          "durationTicks": 16,
          "midi": 38,
          "name": "D2",
          "ticks": 84866,
          "time": 125.09314701562502,
          "velocity": 0.6692913385826772
        },
        {
          "duration": 0.02358412499999929,
          "durationTicks": 16,
          "midi": 38,
          "name": "D2",
          "ticks": 85632,
          "time": 126.222237,
          "velocity": 0.6692913385826772
        },
        {
          "duration": 0.02358412499999929,
          "durationTicks": 16,
          "midi": 38,
          "name": "D2",
          "ticks": 86402,
          "time": 127.35722301562501,
          "velocity": 0.6692913385826772
        },
        {
          "duration": 0.02358412499998508,
          "durationTicks": 16,
          "midi": 38,
          "name": "D2",
          "ticks": 87168,
          "time": 128.48631300000002,
          "velocity": 0.6692913385826772
        },
        {
          "duration": 0.02358412499998508,
          "durationTicks": 16,
          "midi": 38,
          "name": "D2",
          "ticks": 87936,
          "time": 129.61835100000002,
          "velocity": 0.7086614173228346
        },
        {
          "duration": 0.02358412499998508,
          "durationTicks": 16,
          "midi": 38,
          "name": "D2",
          "ticks": 88704,
          "time": 130.750389,
          "velocity": 0.7480314960629921
        },
        {
          "duration": 0.02358412499998508,
          "durationTicks": 16,
          "midi": 38,
          "name": "D2",
          "ticks": 89474,
          "time": 131.88537501562502,
          "velocity": 0.6692913385826772
        },
        {
          "duration": 0.0235841250000135,
          "durationTicks": 16,
          "midi": 38,
          "name": "D2",
          "ticks": 90240,
          "time": 133.014465,
          "velocity": 0.6692913385826772
        },
        {
          "duration": 0.0235841250000135,
          "durationTicks": 16,
          "midi": 38,
          "name": "D2",
          "ticks": 91010,
          "time": 134.149451015625,
          "velocity": 0.6692913385826772
        },
        {
          "duration": 0.02358412499998508,
          "durationTicks": 16,
          "midi": 38,
          "name": "D2",
          "ticks": 91776,
          "time": 135.27854100000002,
          "velocity": 0.6692913385826772
        },
        {
          "duration": 0.02358412499998508,
          "durationTicks": 16,
          "midi": 38,
          "name": "D2",
          "ticks": 92546,
          "time": 136.41352701562502,
          "velocity": 0.6692913385826772
        },
        {
          "duration": 0.0235841250000135,
          "durationTicks": 16,
          "midi": 38,
          "name": "D2",
          "ticks": 93312,
          "time": 137.542617,
          "velocity": 0.6692913385826772
        },
        {
          "duration": 0.0235841250000135,
          "durationTicks": 16,
          "midi": 38,
          "name": "D2",
          "ticks": 94080,
          "time": 138.674655,
          "velocity": 0.7086614173228346
        },
        {
          "duration": 0.02358412499998508,
          "durationTicks": 16,
          "midi": 38,
          "name": "D2",
          "ticks": 94848,
          "time": 139.80669300000002,
          "velocity": 0.7480314960629921
        },
        {
          "duration": 0.02358412499998508,
          "durationTicks": 16,
          "midi": 38,
          "name": "D2",
          "ticks": 95040,
          "time": 140.08970250000002,
          "velocity": 0.23622047244094488
        },
        {
          "duration": 0.0235841250000135,
          "durationTicks": 16,
          "midi": 38,
          "name": "D2",
          "ticks": 95104,
          "time": 140.184039,
          "velocity": 0.23622047244094488
        },
        {
          "duration": 0.0235841250000135,
          "durationTicks": 16,
          "midi": 38,
          "name": "D2",
          "ticks": 95162,
          "time": 140.269531453125,
          "velocity": 0.23622047244094488
        },
        {
          "duration": 0.02358412499998508,
          "durationTicks": 16,
          "midi": 38,
          "name": "D2",
          "ticks": 95618,
          "time": 140.94167901562503,
          "velocity": 0.6692913385826772
        },
        {
          "duration": 0.02358412499998508,
          "durationTicks": 16,
          "midi": 38,
          "name": "D2",
          "ticks": 96384,
          "time": 142.070769,
          "velocity": 0.6692913385826772
        },
        {
          "duration": 0.02358412499998508,
          "durationTicks": 16,
          "midi": 38,
          "name": "D2",
          "ticks": 97154,
          "time": 143.20575501562502,
          "velocity": 0.6692913385826772
        },
        {
          "duration": 0.0235841250000135,
          "durationTicks": 16,
          "midi": 38,
          "name": "D2",
          "ticks": 97920,
          "time": 144.334845,
          "velocity": 0.6692913385826772
        },
        {
          "duration": 0.0235841250000135,
          "durationTicks": 16,
          "midi": 38,
          "name": "D2",
          "ticks": 98690,
          "time": 145.469831015625,
          "velocity": 0.6692913385826772
        },
        {
          "duration": 0.0235841250000135,
          "durationTicks": 16,
          "midi": 38,
          "name": "D2",
          "ticks": 99456,
          "time": 146.59892100000002,
          "velocity": 0.6692913385826772
        },
        {
          "duration": 0.0235841250000135,
          "durationTicks": 16,
          "midi": 38,
          "name": "D2",
          "ticks": 100224,
          "time": 147.730959,
          "velocity": 0.7086614173228346
        },
        {
          "duration": 0.0235841250000135,
          "durationTicks": 16,
          "midi": 38,
          "name": "D2",
          "ticks": 100992,
          "time": 148.862997,
          "velocity": 0.7480314960629921
        },
        {
          "duration": 0.02358412499998508,
          "durationTicks": 16,
          "midi": 38,
          "name": "D2",
          "ticks": 101184,
          "time": 149.14600650000003,
          "velocity": 0.23622047244094488
        },
        {
          "duration": 0.02358412499998508,
          "durationTicks": 16,
          "midi": 38,
          "name": "D2",
          "ticks": 101248,
          "time": 149.24034300000002,
          "velocity": 0.23622047244094488
        },
        {
          "duration": 0.0235841250000135,
          "durationTicks": 16,
          "midi": 38,
          "name": "D2",
          "ticks": 101306,
          "time": 149.325835453125,
          "velocity": 0.23622047244094488
        },
        {
          "duration": 0.0235841250000135,
          "durationTicks": 16,
          "midi": 38,
          "name": "D2",
          "ticks": 101762,
          "time": 149.997983015625,
          "velocity": 0.6692913385826772
        },
        {
          "duration": 0.0235841250000135,
          "durationTicks": 16,
          "midi": 38,
          "name": "D2",
          "ticks": 102528,
          "time": 151.12707300000002,
          "velocity": 0.6692913385826772
        },
        {
          "duration": 0.0235841250000135,
          "durationTicks": 16,
          "midi": 38,
          "name": "D2",
          "ticks": 103296,
          "time": 152.25911100000002,
          "velocity": 0.7086614173228346
        },
        {
          "duration": 0.0235841250000135,
          "durationTicks": 16,
          "midi": 38,
          "name": "D2",
          "ticks": 104064,
          "time": 153.391149,
          "velocity": 0.7480314960629921
        },
        {
          "duration": 0.0235841250000135,
          "durationTicks": 16,
          "midi": 38,
          "name": "D2",
          "ticks": 104256,
          "time": 153.6741585,
          "velocity": 0.23622047244094488
        },
        {
          "duration": 0.02358412499998508,
          "durationTicks": 16,
          "midi": 38,
          "name": "D2",
          "ticks": 104320,
          "time": 153.76849500000003,
          "velocity": 0.23622047244094488
        },
        {
          "duration": 0.0235841250000135,
          "durationTicks": 16,
          "midi": 38,
          "name": "D2",
          "ticks": 104378,
          "time": 153.853987453125,
          "velocity": 0.23622047244094488
        },
        {
          "duration": 0.0235841250000135,
          "durationTicks": 16,
          "midi": 38,
          "name": "D2",
          "ticks": 104832,
          "time": 154.523187,
          "velocity": 0.7086614173228346
        },
        {
          "duration": 0.0235841250000135,
          "durationTicks": 16,
          "midi": 38,
          "name": "D2",
          "ticks": 105600,
          "time": 155.655225,
          "velocity": 0.7480314960629921
        },
        {
          "duration": 0.0235841250000135,
          "durationTicks": 16,
          "midi": 38,
          "name": "D2",
          "ticks": 105792,
          "time": 155.93823450000002,
          "velocity": 0.23622047244094488
        },
        {
          "duration": 0.02358412499998508,
          "durationTicks": 16,
          "midi": 38,
          "name": "D2",
          "ticks": 105856,
          "time": 156.03257100000002,
          "velocity": 0.23622047244094488
        },
        {
          "duration": 0.0235841250000135,
          "durationTicks": 16,
          "midi": 38,
          "name": "D2",
          "ticks": 105914,
          "time": 156.118063453125,
          "velocity": 0.23622047244094488
        },
        {
          "duration": 0.0235841250000135,
          "durationTicks": 16,
          "midi": 37,
          "name": "C#2",
          "ticks": 107904,
          "time": 159.051339,
          "velocity": 0.7165354330708661
        },
        {
          "duration": 0.0235841250000135,
          "durationTicks": 16,
          "midi": 37,
          "name": "C#2",
          "ticks": 108672,
          "time": 160.183377,
          "velocity": 0.7716535433070866
        },
        {
          "duration": 0.0235841250000135,
          "durationTicks": 16,
          "midi": 37,
          "name": "C#2",
          "ticks": 109440,
          "time": 161.315415,
          "velocity": 0.7165354330708661
        },
        {
          "duration": 0.0235841250000135,
          "durationTicks": 16,
          "midi": 37,
          "name": "C#2",
          "ticks": 110208,
          "time": 162.44745300000002,
          "velocity": 0.7716535433070866
        },
        {
          "duration": 0.0235841250000135,
          "durationTicks": 16,
          "midi": 37,
          "name": "C#2",
          "ticks": 110976,
          "time": 163.57949100000002,
          "velocity": 0.7165354330708661
        },
        {
          "duration": 0.0235841250000135,
          "durationTicks": 16,
          "midi": 37,
          "name": "C#2",
          "ticks": 111744,
          "time": 164.711529,
          "velocity": 0.7716535433070866
        },
        {
          "duration": 0.0235841250000135,
          "durationTicks": 16,
          "midi": 37,
          "name": "C#2",
          "ticks": 112512,
          "time": 165.843567,
          "velocity": 0.7165354330708661
        },
        {
          "duration": 0.0235841250000135,
          "durationTicks": 16,
          "midi": 37,
          "name": "C#2",
          "ticks": 113280,
          "time": 166.975605,
          "velocity": 0.7716535433070866
        },
        {
          "duration": 0.0235841250000135,
          "durationTicks": 16,
          "midi": 37,
          "name": "C#2",
          "ticks": 114048,
          "time": 168.10764300000002,
          "velocity": 0.7165354330708661
        },
        {
          "duration": 0.0235841250000135,
          "durationTicks": 16,
          "midi": 37,
          "name": "C#2",
          "ticks": 114816,
          "time": 169.23968100000002,
          "velocity": 0.7716535433070866
        },
        {
          "duration": 0.0235841250000135,
          "durationTicks": 16,
          "midi": 37,
          "name": "C#2",
          "ticks": 115584,
          "time": 170.371719,
          "velocity": 0.7165354330708661
        },
        {
          "duration": 0.0235841250000135,
          "durationTicks": 16,
          "midi": 37,
          "name": "C#2",
          "ticks": 116352,
          "time": 171.503757,
          "velocity": 0.7716535433070866
        },
        {
          "duration": 0.0235841250000135,
          "durationTicks": 16,
          "midi": 37,
          "name": "C#2",
          "ticks": 117120,
          "time": 172.635795,
          "velocity": 0.7165354330708661
        },
        {
          "duration": 0.0235841250000135,
          "durationTicks": 16,
          "midi": 37,
          "name": "C#2",
          "ticks": 117888,
          "time": 173.76783300000002,
          "velocity": 0.7716535433070866
        },
        {
          "duration": 0.0235841250000135,
          "durationTicks": 16,
          "midi": 37,
          "name": "C#2",
          "ticks": 118656,
          "time": 174.89987100000002,
          "velocity": 0.8267716535433071
        },
        {
          "duration": 0.0235841250000135,
          "durationTicks": 16,
          "midi": 37,
          "name": "C#2",
          "ticks": 119424,
          "time": 176.031909,
          "velocity": 0.7716535433070866
        },
        {
          "duration": 0.0235841250000135,
          "durationTicks": 16,
          "midi": 37,
          "name": "C#2",
          "ticks": 120192,
          "time": 177.163947,
          "velocity": 0.7165354330708661
        },
        {
          "duration": 0.0235841250000135,
          "durationTicks": 16,
          "midi": 37,
          "name": "C#2",
          "ticks": 120960,
          "time": 178.295985,
          "velocity": 0.7716535433070866
        },
        {
          "duration": 0.0235841250000135,
          "durationTicks": 16,
          "midi": 37,
          "name": "C#2",
          "ticks": 121728,
          "time": 179.42802300000002,
          "velocity": 0.7165354330708661
        },
        {
          "duration": 0.0235841250000135,
          "durationTicks": 16,
          "midi": 37,
          "name": "C#2",
          "ticks": 122496,
          "time": 180.56006100000002,
          "velocity": 0.7716535433070866
        },
        {
          "duration": 0.0235841250000135,
          "durationTicks": 16,
          "midi": 37,
          "name": "C#2",
          "ticks": 123264,
          "time": 181.692099,
          "velocity": 0.7165354330708661
        },
        {
          "duration": 0.0235841250000135,
          "durationTicks": 16,
          "midi": 37,
          "name": "C#2",
          "ticks": 124032,
          "time": 182.824137,
          "velocity": 0.7716535433070866
        },
        {
          "duration": 0.02358412499998508,
          "durationTicks": 16,
          "midi": 37,
          "name": "C#2",
          "ticks": 124800,
          "time": 183.95617500000003,
          "velocity": 0.8267716535433071
        },
        {
          "duration": 0.0235841250000135,
          "durationTicks": 16,
          "midi": 37,
          "name": "C#2",
          "ticks": 125568,
          "time": 185.08821300000002,
          "velocity": 0.7716535433070866
        },
        {
          "duration": 0.0235841250000135,
          "durationTicks": 16,
          "midi": 37,
          "name": "C#2",
          "ticks": 126336,
          "time": 186.22025100000002,
          "velocity": 0.7165354330708661
        },
        {
          "duration": 0.0235841250000135,
          "durationTicks": 16,
          "midi": 37,
          "name": "C#2",
          "ticks": 127104,
          "time": 187.352289,
          "velocity": 0.7716535433070866
        },
        {
          "duration": 0.0235841250000135,
          "durationTicks": 16,
          "midi": 37,
          "name": "C#2",
          "ticks": 127872,
          "time": 188.484327,
          "velocity": 0.7165354330708661
        },
        {
          "duration": 0.02358412499998508,
          "durationTicks": 16,
          "midi": 37,
          "name": "C#2",
          "ticks": 128640,
          "time": 189.61636500000003,
          "velocity": 0.7716535433070866
        },
        {
          "duration": 0.0235841250000135,
          "durationTicks": 16,
          "midi": 37,
          "name": "C#2",
          "ticks": 129408,
          "time": 190.74840300000002,
          "velocity": 0.7165354330708661
        },
        {
          "duration": 0.0235841250000135,
          "durationTicks": 16,
          "midi": 37,
          "name": "C#2",
          "ticks": 130176,
          "time": 191.88044100000002,
          "velocity": 0.7716535433070866
        },
        {
          "duration": 0.0235841250000135,
          "durationTicks": 16,
          "midi": 37,
          "name": "C#2",
          "ticks": 130944,
          "time": 193.012479,
          "velocity": 0.8267716535433071
        },
        {
          "duration": 0.0235841250000135,
          "durationTicks": 16,
          "midi": 37,
          "name": "C#2",
          "ticks": 131712,
          "time": 194.144517,
          "velocity": 0.7716535433070866
        },
        {
          "duration": 0.02358412499998508,
          "durationTicks": 16,
          "midi": 37,
          "name": "C#2",
          "ticks": 132480,
          "time": 195.27655500000003,
          "velocity": 0.7165354330708661
        },
        {
          "duration": 0.0235841250000135,
          "durationTicks": 16,
          "midi": 37,
          "name": "C#2",
          "ticks": 133248,
          "time": 196.40859300000002,
          "velocity": 0.7716535433070866
        },
        {
          "duration": 0.0235841250000135,
          "durationTicks": 16,
          "midi": 37,
          "name": "C#2",
          "ticks": 134016,
          "time": 197.54063100000002,
          "velocity": 0.7165354330708661
        },
        {
          "duration": 0.0235841250000135,
          "durationTicks": 16,
          "midi": 37,
          "name": "C#2",
          "ticks": 134784,
          "time": 198.672669,
          "velocity": 0.7716535433070866
        },
        {
          "duration": 0.0235841250000135,
          "durationTicks": 16,
          "midi": 37,
          "name": "C#2",
          "ticks": 135552,
          "time": 199.804707,
          "velocity": 0.7165354330708661
        },
        {
          "duration": 0.02358412499998508,
          "durationTicks": 16,
          "midi": 37,
          "name": "C#2",
          "ticks": 136320,
          "time": 200.93674500000003,
          "velocity": 0.7716535433070866
        },
        {
          "duration": 0.0235841250000135,
          "durationTicks": 16,
          "midi": 37,
          "name": "C#2",
          "ticks": 137088,
          "time": 202.06878300000002,
          "velocity": 0.8267716535433071
        },
        {
          "duration": 0.023584124999956657,
          "durationTicks": 16,
          "midi": 38,
          "name": "D2",
          "ticks": 137842,
          "time": 203.18018489062504,
          "velocity": 0.6299212598425197
        },
        {
          "duration": 0.020636109374976286,
          "durationTicks": 14,
          "midi": 38,
          "name": "D2",
          "ticks": 137856,
          "time": 203.20082100000002,
          "velocity": 0.7874015748031497
        },
        {
          "duration": 0.02358412499998508,
          "durationTicks": 16,
          "midi": 38,
          "name": "D2",
          "ticks": 138628,
          "time": 204.33875503125003,
          "velocity": 0.6692913385826772
        },
        {
          "duration": 0.0235841250000135,
          "durationTicks": 16,
          "midi": 38,
          "name": "D2",
          "ticks": 139392,
          "time": 205.464897,
          "velocity": 0.6692913385826772
        },
        {
          "duration": 0.02358412499998508,
          "durationTicks": 16,
          "midi": 38,
          "name": "D2",
          "ticks": 140164,
          "time": 206.60283103125002,
          "velocity": 0.6692913385826772
        },
        {
          "duration": 0.0235841250000135,
          "durationTicks": 16,
          "midi": 38,
          "name": "D2",
          "ticks": 140928,
          "time": 207.72897300000002,
          "velocity": 0.6692913385826772
        },
        {
          "duration": 0.0235841250000135,
          "durationTicks": 16,
          "midi": 38,
          "name": "D2",
          "ticks": 141120,
          "time": 208.01198250000002,
          "velocity": 0.23622047244094488
        },
        {
          "duration": 0.023584124999956657,
          "durationTicks": 16,
          "midi": 38,
          "name": "D2",
          "ticks": 141184,
          "time": 208.10631900000004,
          "velocity": 0.23622047244094488
        },
        {
          "duration": 0.0235841250000135,
          "durationTicks": 16,
          "midi": 38,
          "name": "D2",
          "ticks": 141242,
          "time": 208.191811453125,
          "velocity": 0.18110236220472442
        },
        {
          "duration": 0.02358412499998508,
          "durationTicks": 16,
          "midi": 38,
          "name": "D2",
          "ticks": 141700,
          "time": 208.86690703125004,
          "velocity": 0.6692913385826772
        },
        {
          "duration": 0.0235841250000135,
          "durationTicks": 16,
          "midi": 38,
          "name": "D2",
          "ticks": 142464,
          "time": 209.993049,
          "velocity": 0.6692913385826772
        },
        {
          "duration": 0.0235841250000135,
          "durationTicks": 16,
          "midi": 38,
          "name": "D2",
          "ticks": 143232,
          "time": 211.125087,
          "velocity": 0.7086614173228346
        },
        {
          "duration": 0.02358412499998508,
          "durationTicks": 16,
          "midi": 38,
          "name": "D2",
          "ticks": 144000,
          "time": 212.25712500000003,
          "velocity": 0.7480314960629921
        },
        {
          "duration": 0.0235841250000135,
          "durationTicks": 16,
          "midi": 38,
          "name": "D2",
          "ticks": 144192,
          "time": 212.54013450000002,
          "velocity": 0.23622047244094488
        },
        {
          "duration": 0.02358412499998508,
          "durationTicks": 16,
          "midi": 38,
          "name": "D2",
          "ticks": 144256,
          "time": 212.63447100000002,
          "velocity": 0.23622047244094488
        },
        {
          "duration": 0.0235841250000135,
          "durationTicks": 16,
          "midi": 38,
          "name": "D2",
          "ticks": 144314,
          "time": 212.71996345312502,
          "velocity": 0.23622047244094488
        },
        {
          "duration": 0.023584124999956657,
          "durationTicks": 16,
          "midi": 38,
          "name": "D2",
          "ticks": 144772,
          "time": 213.39505903125004,
          "velocity": 0.6692913385826772
        },
        {
          "duration": 0.0235841250000135,
          "durationTicks": 16,
          "midi": 38,
          "name": "D2",
          "ticks": 145536,
          "time": 214.52120100000002,
          "velocity": 0.6692913385826772
        },
        {
          "duration": 0.02358412499998508,
          "durationTicks": 16,
          "midi": 38,
          "name": "D2",
          "ticks": 146308,
          "time": 215.65913503125003,
          "velocity": 0.6692913385826772
        },
        {
          "duration": 0.0235841250000135,
          "durationTicks": 16,
          "midi": 38,
          "name": "D2",
          "ticks": 147072,
          "time": 216.785277,
          "velocity": 0.6692913385826772
        },
        {
          "duration": 0.0235841250000135,
          "durationTicks": 16,
          "midi": 38,
          "name": "D2",
          "ticks": 147264,
          "time": 217.06828650000003,
          "velocity": 0.23622047244094488
        },
        {
          "duration": 0.02358412499998508,
          "durationTicks": 16,
          "midi": 38,
          "name": "D2",
          "ticks": 147328,
          "time": 217.16262300000002,
          "velocity": 0.23622047244094488
        },
        {
          "duration": 0.0235841250000135,
          "durationTicks": 16,
          "midi": 38,
          "name": "D2",
          "ticks": 147386,
          "time": 217.248115453125,
          "velocity": 0.18110236220472442
        },
        {
          "duration": 0.02358412499998508,
          "durationTicks": 16,
          "midi": 38,
          "name": "D2",
          "ticks": 147844,
          "time": 217.92321103125002,
          "velocity": 0.6692913385826772
        },
        {
          "duration": 0.0235841250000135,
          "durationTicks": 16,
          "midi": 38,
          "name": "D2",
          "ticks": 148608,
          "time": 219.04935300000002,
          "velocity": 0.6692913385826772
        },
        {
          "duration": 0.0235841250000135,
          "durationTicks": 16,
          "midi": 38,
          "name": "D2",
          "ticks": 149376,
          "time": 220.18139100000002,
          "velocity": 0.7086614173228346
        },
        {
          "duration": 0.0235841250000135,
          "durationTicks": 16,
          "midi": 38,
          "name": "D2",
          "ticks": 149760,
          "time": 220.74741000000003,
          "velocity": 0.7086614173228346
        },
        {
          "duration": 0.0235841250000135,
          "durationTicks": 16,
          "midi": 38,
          "name": "D2",
          "ticks": 150144,
          "time": 221.313429,
          "velocity": 0.7480314960629921
        },
        {
          "duration": 0.02358412499998508,
          "durationTicks": 16,
          "midi": 38,
          "name": "D2",
          "ticks": 150336,
          "time": 221.59643850000003,
          "velocity": 0.23622047244094488
        },
        {
          "duration": 0.02358412499998508,
          "durationTicks": 16,
          "midi": 38,
          "name": "D2",
          "ticks": 150400,
          "time": 221.69077500000003,
          "velocity": 0.23622047244094488
        },
        {
          "duration": 0.0235841250000135,
          "durationTicks": 16,
          "midi": 38,
          "name": "D2",
          "ticks": 150458,
          "time": 221.776267453125,
          "velocity": 0.1889763779527559
        },
        {
          "duration": 0.02358412499998508,
          "durationTicks": 16,
          "midi": 38,
          "name": "D2",
          "ticks": 150916,
          "time": 222.45136303125003,
          "velocity": 0.6692913385826772
        },
        {
          "duration": 0.0235841250000135,
          "durationTicks": 16,
          "midi": 38,
          "name": "D2",
          "ticks": 151680,
          "time": 223.57750500000003,
          "velocity": 0.6692913385826772
        },
        {
          "duration": 0.023584124999956657,
          "durationTicks": 16,
          "midi": 38,
          "name": "D2",
          "ticks": 152452,
          "time": 224.71543903125004,
          "velocity": 0.6692913385826772
        },
        {
          "duration": 0.0235841250000135,
          "durationTicks": 16,
          "midi": 38,
          "name": "D2",
          "ticks": 153216,
          "time": 225.84158100000002,
          "velocity": 0.6692913385826772
        },
        {
          "duration": 0.0235841250000135,
          "durationTicks": 16,
          "midi": 38,
          "name": "D2",
          "ticks": 153408,
          "time": 226.1245905,
          "velocity": 0.23622047244094488
        },
        {
          "duration": 0.02358412499998508,
          "durationTicks": 16,
          "midi": 38,
          "name": "D2",
          "ticks": 153472,
          "time": 226.21892700000004,
          "velocity": 0.23622047244094488
        },
        {
          "duration": 0.0235841250000135,
          "durationTicks": 16,
          "midi": 38,
          "name": "D2",
          "ticks": 153530,
          "time": 226.304419453125,
          "velocity": 0.1889763779527559
        },
        {
          "duration": 0.02358412499998508,
          "durationTicks": 16,
          "midi": 38,
          "name": "D2",
          "ticks": 153988,
          "time": 226.97951503125003,
          "velocity": 0.6692913385826772
        },
        {
          "duration": 0.0235841250000135,
          "durationTicks": 16,
          "midi": 38,
          "name": "D2",
          "ticks": 154752,
          "time": 228.105657,
          "velocity": 0.6692913385826772
        },
        {
          "duration": 0.0235841250000135,
          "durationTicks": 16,
          "midi": 38,
          "name": "D2",
          "ticks": 155520,
          "time": 229.23769500000003,
          "velocity": 0.7086614173228346
        },
        {
          "duration": 0.0235841250000135,
          "durationTicks": 16,
          "midi": 38,
          "name": "D2",
          "ticks": 156288,
          "time": 230.36973300000002,
          "velocity": 0.7480314960629921
        },
        {
          "duration": 0.0235841250000135,
          "durationTicks": 16,
          "midi": 38,
          "name": "D2",
          "ticks": 156480,
          "time": 230.65274250000002,
          "velocity": 0.23622047244094488
        },
        {
          "duration": 0.023584124999956657,
          "durationTicks": 16,
          "midi": 38,
          "name": "D2",
          "ticks": 156544,
          "time": 230.74707900000004,
          "velocity": 0.23622047244094488
        },
        {
          "duration": 0.0235841250000135,
          "durationTicks": 16,
          "midi": 38,
          "name": "D2",
          "ticks": 156602,
          "time": 230.832571453125,
          "velocity": 0.1889763779527559
        },
        {
          "duration": 0.0235841250000135,
          "durationTicks": 16,
          "midi": 38,
          "name": "D2",
          "ticks": 157056,
          "time": 231.50177100000002,
          "velocity": 0.6692913385826772
        },
        {
          "duration": 0.0235841250000135,
          "durationTicks": 16,
          "midi": 38,
          "name": "D2",
          "ticks": 157824,
          "time": 232.633809,
          "velocity": 0.6692913385826772
        },
        {
          "duration": 0.0235841250000135,
          "durationTicks": 16,
          "midi": 38,
          "name": "D2",
          "ticks": 158592,
          "time": 233.765847,
          "velocity": 0.6692913385826772
        },
        {
          "duration": 0.02358412499998508,
          "durationTicks": 16,
          "midi": 38,
          "name": "D2",
          "ticks": 159346,
          "time": 234.87724889062503,
          "velocity": 0.5511811023622047
        },
        {
          "duration": 0.020636109374976286,
          "durationTicks": 14,
          "midi": 38,
          "name": "D2",
          "ticks": 159360,
          "time": 234.89788500000003,
          "velocity": 0.7244094488188977
        },
        {
          "duration": 0.02358412499998508,
          "durationTicks": 16,
          "midi": 38,
          "name": "D2",
          "ticks": 160114,
          "time": 236.00928689062502,
          "velocity": 0.5511811023622047
        },
        {
          "duration": 0.020636109374976286,
          "durationTicks": 14,
          "midi": 38,
          "name": "D2",
          "ticks": 160128,
          "time": 236.02992300000003,
          "velocity": 0.7244094488188977
        }
      ],
      "endOfTrackTicks": 161280
    },
    {
      "channel": 9,
      "controlChanges": {},
      "pitchBends": [],
      "instrument": {
        "family": "drums",
        "number": 0,
        "name": "standard kit"
      },
      "name": "#Hihat   ",
      "notes": [
        {
          "duration": 0.029480156249999112,
          "durationTicks": 20,
          "midi": 46,
          "name": "A#2",
          "ticks": 9024,
          "time": 13.3014465,
          "velocity": 0.7716535433070866
        },
        {
          "duration": 0.07370039062500133,
          "durationTicks": 50,
          "midi": 46,
          "name": "A#2",
          "ticks": 9140,
          "time": 13.472431406250001,
          "velocity": 0.5039370078740157
        },
        {
          "duration": 0.1415047499999993,
          "durationTicks": 96,
          "midi": 42,
          "name": "F#2",
          "ticks": 9216,
          "time": 13.584456000000001,
          "velocity": 0.7480314960629921
        },
        {
          "duration": 0.12381665624999982,
          "durationTicks": 84,
          "midi": 42,
          "name": "F#2",
          "ticks": 9416,
          "time": 13.879257562500001,
          "velocity": 0.4409448818897638
        },
        {
          "duration": 0.11792062499999822,
          "durationTicks": 80,
          "midi": 42,
          "name": "F#2",
          "ticks": 9600,
          "time": 14.150475000000002,
          "velocity": 0.6614173228346457
        },
        {
          "duration": 0.11792062500000178,
          "durationTicks": 80,
          "midi": 42,
          "name": "F#2",
          "ticks": 9800,
          "time": 14.4452765625,
          "velocity": 0.4330708661417323
        },
        {
          "duration": 0.117920625,
          "durationTicks": 80,
          "midi": 42,
          "name": "F#2",
          "ticks": 9984,
          "time": 14.716494,
          "velocity": 0.4566929133858268
        },
        {
          "duration": 0.11792062500000178,
          "durationTicks": 80,
          "midi": 42,
          "name": "F#2",
          "ticks": 10184,
          "time": 15.0112955625,
          "velocity": 0.5905511811023622
        },
        {
          "duration": 0.10612856250000036,
          "durationTicks": 72,
          "midi": 42,
          "name": "F#2",
          "ticks": 10368,
          "time": 15.282513000000002,
          "velocity": 0.6614173228346457
        },
        {
          "duration": 0.08254443750000107,
          "durationTicks": 56,
          "midi": 42,
          "name": "F#2",
          "ticks": 10568,
          "time": 15.577314562500002,
          "velocity": 0.48031496062992124
        },
        {
          "duration": 0.07664840625000124,
          "durationTicks": 52,
          "midi": 42,
          "name": "F#2",
          "ticks": 10656,
          "time": 15.707027250000001,
          "velocity": 0.31496062992125984
        },
        {
          "duration": 0.1474007812499991,
          "durationTicks": 100,
          "midi": 42,
          "name": "F#2",
          "ticks": 10752,
          "time": 15.848532000000002,
          "velocity": 0.7322834645669292
        },
        {
          "duration": 0.13560871875000302,
          "durationTicks": 92,
          "midi": 42,
          "name": "F#2",
          "ticks": 10952,
          "time": 16.1433335625,
          "velocity": 0.44881889763779526
        },
        {
          "duration": 0.13560871874999947,
          "durationTicks": 92,
          "midi": 42,
          "name": "F#2",
          "ticks": 11136,
          "time": 16.414551000000003,
          "velocity": 0.6614173228346457
        },
        {
          "duration": 0.12971268749999965,
          "durationTicks": 88,
          "midi": 42,
          "name": "F#2",
          "ticks": 11336,
          "time": 16.7093525625,
          "velocity": 0.4330708661417323
        },
        {
          "duration": 0.14150475000000284,
          "durationTicks": 96,
          "midi": 42,
          "name": "F#2",
          "ticks": 11520,
          "time": 16.98057,
          "velocity": 0.4566929133858268
        },
        {
          "duration": 0.117920625,
          "durationTicks": 80,
          "midi": 42,
          "name": "F#2",
          "ticks": 11720,
          "time": 17.275371562500002,
          "velocity": 0.5669291338582677
        },
        {
          "duration": 0.117920625,
          "durationTicks": 80,
          "midi": 42,
          "name": "F#2",
          "ticks": 11904,
          "time": 17.546589,
          "velocity": 0.6377952755905512
        },
        {
          "duration": 0.27711346874999876,
          "durationTicks": 188,
          "midi": 46,
          "name": "A#2",
          "ticks": 12096,
          "time": 17.829598500000003,
          "velocity": 0.7480314960629921
        },
        {
          "duration": 0.10612856250000036,
          "durationTicks": 72,
          "midi": 42,
          "name": "F#2",
          "ticks": 12288,
          "time": 18.112608,
          "velocity": 0.6850393700787402
        },
        {
          "duration": 0.13560871874999592,
          "durationTicks": 92,
          "midi": 42,
          "name": "F#2",
          "ticks": 12488,
          "time": 18.407409562500003,
          "velocity": 0.5905511811023622
        },
        {
          "duration": 0.1415047499999993,
          "durationTicks": 96,
          "midi": 42,
          "name": "F#2",
          "ticks": 12672,
          "time": 18.678627000000002,
          "velocity": 0.48031496062992124
        },
        {
          "duration": 0.12381665624999982,
          "durationTicks": 84,
          "midi": 42,
          "name": "F#2",
          "ticks": 12870,
          "time": 18.970480546875002,
          "velocity": 0.6850393700787402
        },
        {
          "duration": 0.1415047499999993,
          "durationTicks": 96,
          "midi": 42,
          "name": "F#2",
          "ticks": 13056,
          "time": 19.244646000000003,
          "velocity": 0.4094488188976378
        },
        {
          "duration": 0.1415047499999993,
          "durationTicks": 96,
          "midi": 42,
          "name": "F#2",
          "ticks": 13256,
          "time": 19.539447562500005,
          "velocity": 0.4566929133858268
        },
        {
          "duration": 0.14150475000000284,
          "durationTicks": 96,
          "midi": 42,
          "name": "F#2",
          "ticks": 13440,
          "time": 19.810665,
          "velocity": 0.6614173228346457
        },
        {
          "duration": 0.12971268749999965,
          "durationTicks": 88,
          "midi": 42,
          "name": "F#2",
          "ticks": 13632,
          "time": 20.093674500000002,
          "velocity": 0.6850393700787402
        },
        {
          "duration": 0.15919284374999876,
          "durationTicks": 108,
          "midi": 42,
          "name": "F#2",
          "ticks": 13828,
          "time": 20.38258003125,
          "velocity": 0.4330708661417323
        },
        {
          "duration": 0.1415047499999993,
          "durationTicks": 96,
          "midi": 42,
          "name": "F#2",
          "ticks": 14016,
          "time": 20.659693500000003,
          "velocity": 0.5905511811023622
        },
        {
          "duration": 0.16508887499999858,
          "durationTicks": 112,
          "midi": 42,
          "name": "F#2",
          "ticks": 14208,
          "time": 20.942703,
          "velocity": 0.6614173228346457
        },
        {
          "duration": 0.14740078124999556,
          "durationTicks": 100,
          "midi": 42,
          "name": "F#2",
          "ticks": 14412,
          "time": 21.243400593750003,
          "velocity": 0.41732283464566927
        },
        {
          "duration": 0.15919284374999876,
          "durationTicks": 108,
          "midi": 42,
          "name": "F#2",
          "ticks": 14596,
          "time": 21.514618031250002,
          "velocity": 0.5669291338582677
        },
        {
          "duration": 0.1474007812499991,
          "durationTicks": 100,
          "midi": 42,
          "name": "F#2",
          "ticks": 14784,
          "time": 21.7917315,
          "velocity": 0.6614173228346457
        },
        {
          "duration": 0.1591928437500023,
          "durationTicks": 108,
          "midi": 42,
          "name": "F#2",
          "ticks": 14980,
          "time": 22.08063703125,
          "velocity": 0.5039370078740157
        },
        {
          "duration": 0.13560871875000302,
          "durationTicks": 92,
          "midi": 42,
          "name": "F#2",
          "ticks": 15168,
          "time": 22.3577505,
          "velocity": 0.6141732283464567
        },
        {
          "duration": 0.14150475000000284,
          "durationTicks": 96,
          "midi": 42,
          "name": "F#2",
          "ticks": 15360,
          "time": 22.64076,
          "velocity": 0.7480314960629921
        },
        {
          "duration": 0.12381665624999982,
          "durationTicks": 84,
          "midi": 42,
          "name": "F#2",
          "ticks": 15560,
          "time": 22.935561562500002,
          "velocity": 0.4409448818897638
        },
        {
          "duration": 0.11792062500000355,
          "durationTicks": 80,
          "midi": 42,
          "name": "F#2",
          "ticks": 15744,
          "time": 23.206779,
          "velocity": 0.6614173228346457
        },
        {
          "duration": 0.11792062499999645,
          "durationTicks": 80,
          "midi": 42,
          "name": "F#2",
          "ticks": 15944,
          "time": 23.501580562500003,
          "velocity": 0.4330708661417323
        },
        {
          "duration": 0.11792062500000355,
          "durationTicks": 80,
          "midi": 42,
          "name": "F#2",
          "ticks": 16128,
          "time": 23.772798,
          "velocity": 0.4566929133858268
        },
        {
          "duration": 0.117920625,
          "durationTicks": 80,
          "midi": 42,
          "name": "F#2",
          "ticks": 16326,
          "time": 24.064651546875,
          "velocity": 0.6377952755905512
        },
        {
          "duration": 0.10612856250000036,
          "durationTicks": 72,
          "midi": 42,
          "name": "F#2",
          "ticks": 16512,
          "time": 24.338817000000002,
          "velocity": 0.6850393700787402
        },
        {
          "duration": 0.07664840624999769,
          "durationTicks": 52,
          "midi": 42,
          "name": "F#2",
          "ticks": 16608,
          "time": 24.48032175,
          "velocity": 0.31496062992125984
        },
        {
          "duration": 0.08254443750000107,
          "durationTicks": 56,
          "midi": 42,
          "name": "F#2",
          "ticks": 16704,
          "time": 24.6218265,
          "velocity": 0.48031496062992124
        },
        {
          "duration": 0.1474007812499991,
          "durationTicks": 100,
          "midi": 42,
          "name": "F#2",
          "ticks": 16896,
          "time": 24.904836000000003,
          "velocity": 0.7322834645669292
        },
        {
          "duration": 0.13560871874999592,
          "durationTicks": 92,
          "midi": 42,
          "name": "F#2",
          "ticks": 17096,
          "time": 25.199637562500005,
          "velocity": 0.44881889763779526
        },
        {
          "duration": 0.13560871874999947,
          "durationTicks": 92,
          "midi": 42,
          "name": "F#2",
          "ticks": 17280,
          "time": 25.470855000000004,
          "velocity": 0.6614173228346457
        },
        {
          "duration": 0.12971268749999965,
          "durationTicks": 88,
          "midi": 42,
          "name": "F#2",
          "ticks": 17480,
          "time": 25.765656562500002,
          "velocity": 0.5669291338582677
        },
        {
          "duration": 0.14150475000000284,
          "durationTicks": 96,
          "midi": 42,
          "name": "F#2",
          "ticks": 17664,
          "time": 26.036874,
          "velocity": 0.4566929133858268
        },
        {
          "duration": 0.117920625,
          "durationTicks": 80,
          "midi": 42,
          "name": "F#2",
          "ticks": 17864,
          "time": 26.331675562500003,
          "velocity": 0.41732283464566927
        },
        {
          "duration": 0.11792062500000355,
          "durationTicks": 80,
          "midi": 42,
          "name": "F#2",
          "ticks": 18048,
          "time": 26.602893,
          "velocity": 0.5905511811023622
        },
        {
          "duration": 0.27711346874999876,
          "durationTicks": 188,
          "midi": 46,
          "name": "A#2",
          "ticks": 18240,
          "time": 26.885902500000004,
          "velocity": 0.7480314960629921
        },
        {
          "duration": 0.10612856250000036,
          "durationTicks": 72,
          "midi": 42,
          "name": "F#2",
          "ticks": 18432,
          "time": 27.168912000000002,
          "velocity": 0.6850393700787402
        },
        {
          "duration": 0.13560871874999592,
          "durationTicks": 92,
          "midi": 42,
          "name": "F#2",
          "ticks": 18632,
          "time": 27.463713562500004,
          "velocity": 0.5669291338582677
        },
        {
          "duration": 0.1415047499999993,
          "durationTicks": 96,
          "midi": 42,
          "name": "F#2",
          "ticks": 18816,
          "time": 27.734931000000003,
          "velocity": 0.5039370078740157
        },
        {
          "duration": 0.12381665624999982,
          "durationTicks": 84,
          "midi": 42,
          "name": "F#2",
          "ticks": 19014,
          "time": 28.026784546875003,
          "velocity": 0.6141732283464567
        },
        {
          "duration": 0.1415047499999993,
          "durationTicks": 96,
          "midi": 42,
          "name": "F#2",
          "ticks": 19200,
          "time": 28.300950000000004,
          "velocity": 0.4094488188976378
        },
        {
          "duration": 0.1415047499999993,
          "durationTicks": 96,
          "midi": 42,
          "name": "F#2",
          "ticks": 19400,
          "time": 28.595751562500006,
          "velocity": 0.5905511811023622
        },
        {
          "duration": 0.14150475000000284,
          "durationTicks": 96,
          "midi": 42,
          "name": "F#2",
          "ticks": 19584,
          "time": 28.866969,
          "velocity": 0.6614173228346457
        },
        {
          "duration": 0.12971268749999965,
          "durationTicks": 88,
          "midi": 42,
          "name": "F#2",
          "ticks": 19776,
          "time": 29.149978500000003,
          "velocity": 0.6850393700787402
        },
        {
          "duration": 0.15919284374999876,
          "durationTicks": 108,
          "midi": 42,
          "name": "F#2",
          "ticks": 19972,
          "time": 29.43888403125,
          "velocity": 0.36220472440944884
        },
        {
          "duration": 0.1415047499999993,
          "durationTicks": 96,
          "midi": 42,
          "name": "F#2",
          "ticks": 20160,
          "time": 29.715997500000004,
          "velocity": 0.5039370078740157
        },
        {
          "duration": 0.16508887499999858,
          "durationTicks": 112,
          "midi": 42,
          "name": "F#2",
          "ticks": 20352,
          "time": 29.999007000000002,
          "velocity": 0.6614173228346457
        },
        {
          "duration": 0.14740078124999556,
          "durationTicks": 100,
          "midi": 42,
          "name": "F#2",
          "ticks": 20556,
          "time": 30.299704593750004,
          "velocity": 0.41732283464566927
        },
        {
          "duration": 0.15919284374999876,
          "durationTicks": 108,
          "midi": 42,
          "name": "F#2",
          "ticks": 20740,
          "time": 30.570922031250003,
          "velocity": 0.48031496062992124
        },
        {
          "duration": 0.1474007812499991,
          "durationTicks": 100,
          "midi": 42,
          "name": "F#2",
          "ticks": 20928,
          "time": 30.8480355,
          "velocity": 0.6141732283464567
        },
        {
          "duration": 0.1591928437500023,
          "durationTicks": 108,
          "midi": 42,
          "name": "F#2",
          "ticks": 21124,
          "time": 31.13694103125,
          "velocity": 0.5196850393700787
        },
        {
          "duration": 0.13560871875000302,
          "durationTicks": 92,
          "midi": 42,
          "name": "F#2",
          "ticks": 21312,
          "time": 31.414054500000002,
          "velocity": 0.6377952755905512
        },
        {
          "duration": 0.1415047499999993,
          "durationTicks": 96,
          "midi": 42,
          "name": "F#2",
          "ticks": 21504,
          "time": 31.697064000000005,
          "velocity": 0.7480314960629921
        },
        {
          "duration": 0.12381665624999982,
          "durationTicks": 84,
          "midi": 42,
          "name": "F#2",
          "ticks": 21704,
          "time": 31.991865562500003,
          "velocity": 0.4409448818897638
        },
        {
          "duration": 0.11792062500000355,
          "durationTicks": 80,
          "midi": 42,
          "name": "F#2",
          "ticks": 21888,
          "time": 32.263083,
          "velocity": 0.6614173228346457
        },
        {
          "duration": 0.11792062499999645,
          "durationTicks": 80,
          "midi": 42,
          "name": "F#2",
          "ticks": 22088,
          "time": 32.55788456250001,
          "velocity": 0.4330708661417323
        },
        {
          "duration": 0.11792062499999645,
          "durationTicks": 80,
          "midi": 42,
          "name": "F#2",
          "ticks": 22272,
          "time": 32.829102000000006,
          "velocity": 0.4566929133858268
        },
        {
          "duration": 0.11792062499999645,
          "durationTicks": 80,
          "midi": 42,
          "name": "F#2",
          "ticks": 22472,
          "time": 33.123903562500004,
          "velocity": 0.5905511811023622
        },
        {
          "duration": 0.1061285624999968,
          "durationTicks": 72,
          "midi": 42,
          "name": "F#2",
          "ticks": 22656,
          "time": 33.395121,
          "velocity": 0.7480314960629921
        },
        {
          "duration": 0.07664840624999414,
          "durationTicks": 52,
          "midi": 42,
          "name": "F#2",
          "ticks": 22752,
          "time": 33.536625750000006,
          "velocity": 0.31496062992125984
        },
        {
          "duration": 0.08254443750000462,
          "durationTicks": 56,
          "midi": 42,
          "name": "F#2",
          "ticks": 22848,
          "time": 33.6781305,
          "velocity": 0.48031496062992124
        },
        {
          "duration": 0.1474007812499991,
          "durationTicks": 100,
          "midi": 42,
          "name": "F#2",
          "ticks": 23040,
          "time": 33.96114,
          "velocity": 0.7322834645669292
        },
        {
          "duration": 0.13560871874999947,
          "durationTicks": 92,
          "midi": 42,
          "name": "F#2",
          "ticks": 23240,
          "time": 34.255941562500006,
          "velocity": 0.44881889763779526
        },
        {
          "duration": 0.13560871874999947,
          "durationTicks": 92,
          "midi": 42,
          "name": "F#2",
          "ticks": 23424,
          "time": 34.527159000000005,
          "velocity": 0.6614173228346457
        },
        {
          "duration": 0.1297126875000032,
          "durationTicks": 88,
          "midi": 42,
          "name": "F#2",
          "ticks": 23624,
          "time": 34.8219605625,
          "velocity": 0.4330708661417323
        },
        {
          "duration": 0.14150475000000284,
          "durationTicks": 96,
          "midi": 42,
          "name": "F#2",
          "ticks": 23808,
          "time": 35.093178,
          "velocity": 0.4566929133858268
        },
        {
          "duration": 0.11792062499999645,
          "durationTicks": 80,
          "midi": 42,
          "name": "F#2",
          "ticks": 24008,
          "time": 35.38797956250001,
          "velocity": 0.5669291338582677
        },
        {
          "duration": 0.11792062499999645,
          "durationTicks": 80,
          "midi": 42,
          "name": "F#2",
          "ticks": 24192,
          "time": 35.659197000000006,
          "velocity": 0.6377952755905512
        },
        {
          "duration": 0.2771134687500023,
          "durationTicks": 188,
          "midi": 46,
          "name": "A#2",
          "ticks": 24384,
          "time": 35.942206500000005,
          "velocity": 0.7480314960629921
        },
        {
          "duration": 0.1061285624999968,
          "durationTicks": 72,
          "midi": 42,
          "name": "F#2",
          "ticks": 24576,
          "time": 36.225216,
          "velocity": 0.6850393700787402
        },
        {
          "duration": 0.13560871875000657,
          "durationTicks": 92,
          "midi": 42,
          "name": "F#2",
          "ticks": 24776,
          "time": 36.5200175625,
          "velocity": 0.5905511811023622
        },
        {
          "duration": 0.14150475000000284,
          "durationTicks": 96,
          "midi": 42,
          "name": "F#2",
          "ticks": 24960,
          "time": 36.791235,
          "velocity": 0.48031496062992124
        },
        {
          "duration": 0.12381665624999982,
          "durationTicks": 84,
          "midi": 42,
          "name": "F#2",
          "ticks": 25158,
          "time": 37.083088546875004,
          "velocity": 0.6850393700787402
        },
        {
          "duration": 0.14150474999999574,
          "durationTicks": 96,
          "midi": 42,
          "name": "F#2",
          "ticks": 25344,
          "time": 37.357254000000005,
          "velocity": 0.4094488188976378
        },
        {
          "duration": 0.14150474999999574,
          "durationTicks": 96,
          "midi": 42,
          "name": "F#2",
          "ticks": 25544,
          "time": 37.6520555625,
          "velocity": 0.4566929133858268
        },
        {
          "duration": 0.14150475000000284,
          "durationTicks": 96,
          "midi": 42,
          "name": "F#2",
          "ticks": 25728,
          "time": 37.923273,
          "velocity": 0.6614173228346457
        },
        {
          "duration": 0.1297126875000032,
          "durationTicks": 88,
          "midi": 42,
          "name": "F#2",
          "ticks": 25920,
          "time": 38.2062825,
          "velocity": 0.6850393700787402
        },
        {
          "duration": 0.15919284374999876,
          "durationTicks": 108,
          "midi": 42,
          "name": "F#2",
          "ticks": 26116,
          "time": 38.49518803125001,
          "velocity": 0.4330708661417323
        },
        {
          "duration": 0.14150474999999574,
          "durationTicks": 96,
          "midi": 42,
          "name": "F#2",
          "ticks": 26304,
          "time": 38.772301500000005,
          "velocity": 0.5905511811023622
        },
        {
          "duration": 0.16508887500000213,
          "durationTicks": 112,
          "midi": 42,
          "name": "F#2",
          "ticks": 26496,
          "time": 39.055311,
          "velocity": 0.6614173228346457
        },
        {
          "duration": 0.1474007812499991,
          "durationTicks": 100,
          "midi": 42,
          "name": "F#2",
          "ticks": 26700,
          "time": 39.356008593750005,
          "velocity": 0.41732283464566927
        },
        {
          "duration": 0.15919284375000586,
          "durationTicks": 108,
          "midi": 42,
          "name": "F#2",
          "ticks": 26884,
          "time": 39.627226031250004,
          "velocity": 0.5669291338582677
        },
        {
          "duration": 0.1474007812499991,
          "durationTicks": 100,
          "midi": 42,
          "name": "F#2",
          "ticks": 27072,
          "time": 39.904339500000006,
          "velocity": 0.6614173228346457
        },
        {
          "duration": 0.15919284374999876,
          "durationTicks": 108,
          "midi": 42,
          "name": "F#2",
          "ticks": 27268,
          "time": 40.19324503125001,
          "velocity": 0.5039370078740157
        },
        {
          "duration": 0.13560871874999947,
          "durationTicks": 92,
          "midi": 42,
          "name": "F#2",
          "ticks": 27456,
          "time": 40.4703585,
          "velocity": 0.6141732283464567
        },
        {
          "duration": 0.14150475000000284,
          "durationTicks": 96,
          "midi": 42,
          "name": "F#2",
          "ticks": 27648,
          "time": 40.753368,
          "velocity": 0.7480314960629921
        },
        {
          "duration": 0.12381665624999982,
          "durationTicks": 84,
          "midi": 42,
          "name": "F#2",
          "ticks": 27848,
          "time": 41.0481695625,
          "velocity": 0.4409448818897638
        },
        {
          "duration": 0.11792062499999645,
          "durationTicks": 80,
          "midi": 42,
          "name": "F#2",
          "ticks": 28032,
          "time": 41.319387000000006,
          "velocity": 0.6614173228346457
        },
        {
          "duration": 0.11792062500000355,
          "durationTicks": 80,
          "midi": 42,
          "name": "F#2",
          "ticks": 28232,
          "time": 41.614188562500004,
          "velocity": 0.4330708661417323
        },
        {
          "duration": 0.11792062499999645,
          "durationTicks": 80,
          "midi": 42,
          "name": "F#2",
          "ticks": 28416,
          "time": 41.885406,
          "velocity": 0.4566929133858268
        },
        {
          "duration": 0.11792062499999645,
          "durationTicks": 80,
          "midi": 42,
          "name": "F#2",
          "ticks": 28614,
          "time": 42.17725954687501,
          "velocity": 0.6377952755905512
        },
        {
          "duration": 0.10612856250000391,
          "durationTicks": 72,
          "midi": 42,
          "name": "F#2",
          "ticks": 28800,
          "time": 42.451425,
          "velocity": 0.6850393700787402
        },
        {
          "duration": 0.07664840625000124,
          "durationTicks": 52,
          "midi": 42,
          "name": "F#2",
          "ticks": 28896,
          "time": 42.59292975,
          "velocity": 0.31496062992125984
        },
        {
          "duration": 0.08254443749999751,
          "durationTicks": 56,
          "midi": 42,
          "name": "F#2",
          "ticks": 28992,
          "time": 42.734434500000006,
          "velocity": 0.48031496062992124
        },
        {
          "duration": 0.1474007812499991,
          "durationTicks": 100,
          "midi": 42,
          "name": "F#2",
          "ticks": 29184,
          "time": 43.017444000000005,
          "velocity": 0.7322834645669292
        },
        {
          "duration": 0.13560871875000657,
          "durationTicks": 92,
          "midi": 42,
          "name": "F#2",
          "ticks": 29384,
          "time": 43.3122455625,
          "velocity": 0.44881889763779526
        },
        {
          "duration": 0.13560871874999947,
          "durationTicks": 92,
          "midi": 42,
          "name": "F#2",
          "ticks": 29568,
          "time": 43.583463,
          "velocity": 0.6614173228346457
        },
        {
          "duration": 0.1297126875000032,
          "durationTicks": 88,
          "midi": 42,
          "name": "F#2",
          "ticks": 29768,
          "time": 43.8782645625,
          "velocity": 0.5669291338582677
        },
        {
          "duration": 0.14150474999999574,
          "durationTicks": 96,
          "midi": 42,
          "name": "F#2",
          "ticks": 29952,
          "time": 44.149482000000006,
          "velocity": 0.4566929133858268
        },
        {
          "duration": 0.11792062500000355,
          "durationTicks": 80,
          "midi": 42,
          "name": "F#2",
          "ticks": 30152,
          "time": 44.444283562500004,
          "velocity": 0.41732283464566927
        },
        {
          "duration": 0.11792062499999645,
          "durationTicks": 80,
          "midi": 42,
          "name": "F#2",
          "ticks": 30336,
          "time": 44.715501,
          "velocity": 0.5905511811023622
        },
        {
          "duration": 0.2771134687500023,
          "durationTicks": 188,
          "midi": 46,
          "name": "A#2",
          "ticks": 30528,
          "time": 44.9985105,
          "velocity": 0.7480314960629921
        },
        {
          "duration": 0.10612856250000391,
          "durationTicks": 72,
          "midi": 42,
          "name": "F#2",
          "ticks": 30720,
          "time": 45.28152,
          "velocity": 0.6850393700787402
        },
        {
          "duration": 0.13560871875000657,
          "durationTicks": 92,
          "midi": 42,
          "name": "F#2",
          "ticks": 30920,
          "time": 45.5763215625,
          "velocity": 0.5669291338582677
        },
        {
          "duration": 0.14150475000000284,
          "durationTicks": 96,
          "midi": 42,
          "name": "F#2",
          "ticks": 31104,
          "time": 45.847539000000005,
          "velocity": 0.5039370078740157
        },
        {
          "duration": 0.12381665624999982,
          "durationTicks": 84,
          "midi": 42,
          "name": "F#2",
          "ticks": 31302,
          "time": 46.139392546875,
          "velocity": 0.6141732283464567
        },
        {
          "duration": 0.14150475000000284,
          "durationTicks": 96,
          "midi": 42,
          "name": "F#2",
          "ticks": 31488,
          "time": 46.413558,
          "velocity": 0.4094488188976378
        },
        {
          "duration": 0.14150475000000284,
          "durationTicks": 96,
          "midi": 42,
          "name": "F#2",
          "ticks": 31688,
          "time": 46.7083595625,
          "velocity": 0.5905511811023622
        },
        {
          "duration": 0.14150474999999574,
          "durationTicks": 96,
          "midi": 42,
          "name": "F#2",
          "ticks": 31872,
          "time": 46.979577000000006,
          "velocity": 0.6614173228346457
        },
        {
          "duration": 0.1297126875000032,
          "durationTicks": 88,
          "midi": 42,
          "name": "F#2",
          "ticks": 32064,
          "time": 47.262586500000005,
          "velocity": 0.6850393700787402
        },
        {
          "duration": 0.15919284374999876,
          "durationTicks": 108,
          "midi": 42,
          "name": "F#2",
          "ticks": 32260,
          "time": 47.55149203125001,
          "velocity": 0.36220472440944884
        },
        {
          "duration": 0.14150475000000284,
          "durationTicks": 96,
          "midi": 42,
          "name": "F#2",
          "ticks": 32448,
          "time": 47.8286055,
          "velocity": 0.5039370078740157
        },
        {
          "duration": 0.16508887500000213,
          "durationTicks": 112,
          "midi": 42,
          "name": "F#2",
          "ticks": 32640,
          "time": 48.11161500000001,
          "velocity": 0.6614173228346457
        },
        {
          "duration": 0.14740078125000622,
          "durationTicks": 100,
          "midi": 42,
          "name": "F#2",
          "ticks": 32844,
          "time": 48.41231259375,
          "velocity": 0.41732283464566927
        },
        {
          "duration": 0.15919284374999876,
          "durationTicks": 108,
          "midi": 42,
          "name": "F#2",
          "ticks": 33028,
          "time": 48.68353003125001,
          "velocity": 0.48031496062992124
        },
        {
          "duration": 0.14740078125000622,
          "durationTicks": 100,
          "midi": 42,
          "name": "F#2",
          "ticks": 33216,
          "time": 48.9606435,
          "velocity": 0.6141732283464567
        },
        {
          "duration": 0.14150475000000284,
          "durationTicks": 96,
          "midi": 42,
          "name": "F#2",
          "ticks": 33412,
          "time": 49.249549031250005,
          "velocity": 0.6377952755905512
        },
        {
          "duration": 0.13560871874999236,
          "durationTicks": 92,
          "midi": 42,
          "name": "F#2",
          "ticks": 33600,
          "time": 49.52666250000001,
          "velocity": 0.6377952755905512
        },
        {
          "duration": 0.14150474999999574,
          "durationTicks": 96,
          "midi": 42,
          "name": "F#2",
          "ticks": 33792,
          "time": 49.809672000000006,
          "velocity": 0.7480314960629921
        },
        {
          "duration": 0.12381665624999982,
          "durationTicks": 84,
          "midi": 42,
          "name": "F#2",
          "ticks": 33992,
          "time": 50.104473562500004,
          "velocity": 0.4409448818897638
        },
        {
          "duration": 0.11792062499999645,
          "durationTicks": 80,
          "midi": 42,
          "name": "F#2",
          "ticks": 34176,
          "time": 50.375691,
          "velocity": 0.6614173228346457
        },
        {
          "duration": 0.11792062500000355,
          "durationTicks": 80,
          "midi": 42,
          "name": "F#2",
          "ticks": 34376,
          "time": 50.6704925625,
          "velocity": 0.4330708661417323
        },
        {
          "duration": 0.11792062499999645,
          "durationTicks": 80,
          "midi": 42,
          "name": "F#2",
          "ticks": 34560,
          "time": 50.94171000000001,
          "velocity": 0.4566929133858268
        },
        {
          "duration": 0.11792062500001066,
          "durationTicks": 80,
          "midi": 42,
          "name": "F#2",
          "ticks": 34760,
          "time": 51.2365115625,
          "velocity": 0.5905511811023622
        },
        {
          "duration": 0.1061285624999968,
          "durationTicks": 72,
          "midi": 42,
          "name": "F#2",
          "ticks": 34944,
          "time": 51.507729000000005,
          "velocity": 0.7480314960629921
        },
        {
          "duration": 0.07664840625000124,
          "durationTicks": 52,
          "midi": 42,
          "name": "F#2",
          "ticks": 35040,
          "time": 51.64923375000001,
          "velocity": 0.31496062992125984
        },
        {
          "duration": 0.08254443749999751,
          "durationTicks": 56,
          "midi": 42,
          "name": "F#2",
          "ticks": 35136,
          "time": 51.7907385,
          "velocity": 0.48031496062992124
        },
        {
          "duration": 0.14740078125000622,
          "durationTicks": 100,
          "midi": 42,
          "name": "F#2",
          "ticks": 35328,
          "time": 52.073748,
          "velocity": 0.7322834645669292
        },
        {
          "duration": 0.13560871875000657,
          "durationTicks": 92,
          "midi": 42,
          "name": "F#2",
          "ticks": 35528,
          "time": 52.3685495625,
          "velocity": 0.44881889763779526
        },
        {
          "duration": 0.13560871874999236,
          "durationTicks": 92,
          "midi": 42,
          "name": "F#2",
          "ticks": 35712,
          "time": 52.639767000000006,
          "velocity": 0.6614173228346457
        },
        {
          "duration": 0.1297126875000032,
          "durationTicks": 88,
          "midi": 42,
          "name": "F#2",
          "ticks": 35912,
          "time": 52.934568562500004,
          "velocity": 0.4330708661417323
        },
        {
          "duration": 0.14150475000000284,
          "durationTicks": 96,
          "midi": 42,
          "name": "F#2",
          "ticks": 36096,
          "time": 53.205786,
          "velocity": 0.4566929133858268
        },
        {
          "duration": 0.11792062500000355,
          "durationTicks": 80,
          "midi": 42,
          "name": "F#2",
          "ticks": 36296,
          "time": 53.5005875625,
          "velocity": 0.5669291338582677
        },
        {
          "duration": 0.11792062499999645,
          "durationTicks": 80,
          "midi": 42,
          "name": "F#2",
          "ticks": 36480,
          "time": 53.77180500000001,
          "velocity": 0.6377952755905512
        },
        {
          "duration": 0.2771134687499952,
          "durationTicks": 188,
          "midi": 46,
          "name": "A#2",
          "ticks": 36672,
          "time": 54.054814500000006,
          "velocity": 0.7480314960629921
        },
        {
          "duration": 0.1061285624999968,
          "durationTicks": 72,
          "midi": 42,
          "name": "F#2",
          "ticks": 36864,
          "time": 54.337824000000005,
          "velocity": 0.6850393700787402
        },
        {
          "duration": 0.13560871875000657,
          "durationTicks": 92,
          "midi": 42,
          "name": "F#2",
          "ticks": 37064,
          "time": 54.6326255625,
          "velocity": 0.5905511811023622
        },
        {
          "duration": 0.14150475000000284,
          "durationTicks": 96,
          "midi": 42,
          "name": "F#2",
          "ticks": 37248,
          "time": 54.903843,
          "velocity": 0.48031496062992124
        },
        {
          "duration": 0.12381665624999982,
          "durationTicks": 84,
          "midi": 42,
          "name": "F#2",
          "ticks": 37446,
          "time": 55.195696546875006,
          "velocity": 0.6850393700787402
        },
        {
          "duration": 0.14150474999999574,
          "durationTicks": 96,
          "midi": 42,
          "name": "F#2",
          "ticks": 37632,
          "time": 55.469862000000006,
          "velocity": 0.4094488188976378
        },
        {
          "duration": 0.14150474999999574,
          "durationTicks": 96,
          "midi": 42,
          "name": "F#2",
          "ticks": 37832,
          "time": 55.764663562500004,
          "velocity": 0.4566929133858268
        },
        {
          "duration": 0.14150475000000284,
          "durationTicks": 96,
          "midi": 42,
          "name": "F#2",
          "ticks": 38016,
          "time": 56.035881,
          "velocity": 0.6614173228346457
        },
        {
          "duration": 0.1297126875000032,
          "durationTicks": 88,
          "midi": 42,
          "name": "F#2",
          "ticks": 38208,
          "time": 56.3188905,
          "velocity": 0.6850393700787402
        },
        {
          "duration": 0.15919284374999876,
          "durationTicks": 108,
          "midi": 42,
          "name": "F#2",
          "ticks": 38404,
          "time": 56.60779603125001,
          "velocity": 0.4330708661417323
        },
        {
          "duration": 0.14150474999999574,
          "durationTicks": 96,
          "midi": 42,
          "name": "F#2",
          "ticks": 38592,
          "time": 56.884909500000006,
          "velocity": 0.5905511811023622
        },
        {
          "duration": 0.16508887500000213,
          "durationTicks": 112,
          "midi": 42,
          "name": "F#2",
          "ticks": 38784,
          "time": 57.167919000000005,
          "velocity": 0.6614173228346457
        },
        {
          "duration": 0.1474007812499991,
          "durationTicks": 100,
          "midi": 42,
          "name": "F#2",
          "ticks": 38988,
          "time": 57.468616593750006,
          "velocity": 0.41732283464566927
        },
        {
          "duration": 0.15919284375000586,
          "durationTicks": 108,
          "midi": 42,
          "name": "F#2",
          "ticks": 39172,
          "time": 57.739834031250005,
          "velocity": 0.5669291338582677
        },
        {
          "duration": 0.1474007812499991,
          "durationTicks": 100,
          "midi": 42,
          "name": "F#2",
          "ticks": 39360,
          "time": 58.01694750000001,
          "velocity": 0.6614173228346457
        },
        {
          "duration": 0.15919284374999876,
          "durationTicks": 108,
          "midi": 42,
          "name": "F#2",
          "ticks": 39556,
          "time": 58.30585303125001,
          "velocity": 0.5039370078740157
        },
        {
          "duration": 0.13560871874999947,
          "durationTicks": 92,
          "midi": 42,
          "name": "F#2",
          "ticks": 39744,
          "time": 58.582966500000005,
          "velocity": 0.6141732283464567
        },
        {
          "duration": 0.14150475000000284,
          "durationTicks": 96,
          "midi": 42,
          "name": "F#2",
          "ticks": 39936,
          "time": 58.865976,
          "velocity": 0.7480314960629921
        },
        {
          "duration": 0.12381665624999982,
          "durationTicks": 84,
          "midi": 42,
          "name": "F#2",
          "ticks": 40136,
          "time": 59.1607775625,
          "velocity": 0.4409448818897638
        },
        {
          "duration": 0.11792062499999645,
          "durationTicks": 80,
          "midi": 42,
          "name": "F#2",
          "ticks": 40320,
          "time": 59.43199500000001,
          "velocity": 0.6614173228346457
        },
        {
          "duration": 0.11792062500000355,
          "durationTicks": 80,
          "midi": 42,
          "name": "F#2",
          "ticks": 40520,
          "time": 59.726796562500006,
          "velocity": 0.4330708661417323
        },
        {
          "duration": 0.11792062499999645,
          "durationTicks": 80,
          "midi": 42,
          "name": "F#2",
          "ticks": 40704,
          "time": 59.998014000000005,
          "velocity": 0.4566929133858268
        },
        {
          "duration": 0.11792062499999645,
          "durationTicks": 80,
          "midi": 42,
          "name": "F#2",
          "ticks": 40902,
          "time": 60.28986754687501,
          "velocity": 0.6377952755905512
        },
        {
          "duration": 0.10612856250000391,
          "durationTicks": 72,
          "midi": 42,
          "name": "F#2",
          "ticks": 41088,
          "time": 60.564033,
          "velocity": 0.6850393700787402
        },
        {
          "duration": 0.08254443749999751,
          "durationTicks": 56,
          "midi": 46,
          "name": "A#2",
          "ticks": 41280,
          "time": 60.84704250000001,
          "velocity": 0.7322834645669292
        },
        {
          "duration": 0.1474007812499991,
          "durationTicks": 100,
          "midi": 42,
          "name": "F#2",
          "ticks": 41472,
          "time": 61.130052000000006,
          "velocity": 0.7322834645669292
        },
        {
          "duration": 0.13560871875000657,
          "durationTicks": 92,
          "midi": 42,
          "name": "F#2",
          "ticks": 41672,
          "time": 61.424853562500005,
          "velocity": 0.44881889763779526
        },
        {
          "duration": 0.13560871874999947,
          "durationTicks": 92,
          "midi": 42,
          "name": "F#2",
          "ticks": 41856,
          "time": 61.696071,
          "velocity": 0.6614173228346457
        },
        {
          "duration": 0.1297126875000032,
          "durationTicks": 88,
          "midi": 42,
          "name": "F#2",
          "ticks": 42056,
          "time": 61.9908725625,
          "velocity": 0.5669291338582677
        },
        {
          "duration": 0.14150474999999574,
          "durationTicks": 96,
          "midi": 42,
          "name": "F#2",
          "ticks": 42240,
          "time": 62.26209000000001,
          "velocity": 0.4566929133858268
        },
        {
          "duration": 0.11792062500000355,
          "durationTicks": 80,
          "midi": 42,
          "name": "F#2",
          "ticks": 42440,
          "time": 62.556891562500006,
          "velocity": 0.5669291338582677
        },
        {
          "duration": 0.11792062499999645,
          "durationTicks": 80,
          "midi": 42,
          "name": "F#2",
          "ticks": 42624,
          "time": 62.828109000000005,
          "velocity": 0.7716535433070866
        },
        {
          "duration": 0.02948015624999556,
          "durationTicks": 20,
          "midi": 42,
          "name": "F#2",
          "ticks": 42720,
          "time": 62.96961375000001,
          "velocity": 0.33858267716535434
        },
        {
          "duration": 0.029480156250002665,
          "durationTicks": 20,
          "midi": 42,
          "name": "F#2",
          "ticks": 42816,
          "time": 63.1111185,
          "velocity": 0.5669291338582677
        },
        {
          "duration": 0.1061285624999968,
          "durationTicks": 72,
          "midi": 42,
          "name": "F#2",
          "ticks": 43008,
          "time": 63.39412800000001,
          "velocity": 0.6850393700787402
        },
        {
          "duration": 0.13560871875000657,
          "durationTicks": 92,
          "midi": 42,
          "name": "F#2",
          "ticks": 43208,
          "time": 63.6889295625,
          "velocity": 0.5669291338582677
        },
        {
          "duration": 0.14150474999999574,
          "durationTicks": 96,
          "midi": 42,
          "name": "F#2",
          "ticks": 43392,
          "time": 63.960147000000006,
          "velocity": 0.5039370078740157
        },
        {
          "duration": 0.12381665624999982,
          "durationTicks": 84,
          "midi": 42,
          "name": "F#2",
          "ticks": 43590,
          "time": 64.25200054687501,
          "velocity": 0.6141732283464567
        },
        {
          "duration": 0.14150474999999574,
          "durationTicks": 96,
          "midi": 42,
          "name": "F#2",
          "ticks": 43776,
          "time": 64.526166,
          "velocity": 0.4094488188976378
        },
        {
          "duration": 0.14150474999999574,
          "durationTicks": 96,
          "midi": 42,
          "name": "F#2",
          "ticks": 43976,
          "time": 64.8209675625,
          "velocity": 0.5905511811023622
        },
        {
          "duration": 0.14150475000000995,
          "durationTicks": 96,
          "midi": 42,
          "name": "F#2",
          "ticks": 44160,
          "time": 65.092185,
          "velocity": 0.6614173228346457
        },
        {
          "duration": 0.1297126875000032,
          "durationTicks": 88,
          "midi": 42,
          "name": "F#2",
          "ticks": 44352,
          "time": 65.3751945,
          "velocity": 0.7322834645669292
        },
        {
          "duration": 0.15919284374999165,
          "durationTicks": 108,
          "midi": 42,
          "name": "F#2",
          "ticks": 44548,
          "time": 65.66410003125002,
          "velocity": 0.36220472440944884
        },
        {
          "duration": 0.14150474999999574,
          "durationTicks": 96,
          "midi": 42,
          "name": "F#2",
          "ticks": 44736,
          "time": 65.9412135,
          "velocity": 0.5669291338582677
        },
        {
          "duration": 0.16508887499999503,
          "durationTicks": 112,
          "midi": 42,
          "name": "F#2",
          "ticks": 44928,
          "time": 66.22422300000001,
          "velocity": 0.6614173228346457
        },
        {
          "duration": 0.1474007812499991,
          "durationTicks": 100,
          "midi": 42,
          "name": "F#2",
          "ticks": 45132,
          "time": 66.52492059375001,
          "velocity": 0.4566929133858268
        },
        {
          "duration": 0.15919284375000586,
          "durationTicks": 108,
          "midi": 42,
          "name": "F#2",
          "ticks": 45316,
          "time": 66.79613803125001,
          "velocity": 0.6141732283464567
        },
        {
          "duration": 0.13560871874999236,
          "durationTicks": 92,
          "midi": 44,
          "name": "G#2",
          "ticks": 45888,
          "time": 67.63927050000001,
          "velocity": 0.7322834645669292
        },
        {
          "duration": 0.2830094999999915,
          "durationTicks": 192,
          "midi": 44,
          "name": "G#2",
          "ticks": 50688,
          "time": 74.71450800000001,
          "velocity": 0.5905511811023622
        },
        {
          "duration": 0.2830095000000057,
          "durationTicks": 192,
          "midi": 44,
          "name": "G#2",
          "ticks": 51072,
          "time": 75.280527,
          "velocity": 0.29133858267716534
        },
        {
          "duration": 0.2830095000000057,
          "durationTicks": 192,
          "midi": 44,
          "name": "G#2",
          "ticks": 51456,
          "time": 75.846546,
          "velocity": 0.7086614173228346
        },
        {
          "duration": 0.2830095000000057,
          "durationTicks": 192,
          "midi": 44,
          "name": "G#2",
          "ticks": 51840,
          "time": 76.412565,
          "velocity": 0.48031496062992124
        },
        {
          "duration": 0.2830095000000057,
          "durationTicks": 192,
          "midi": 44,
          "name": "G#2",
          "ticks": 57600,
          "time": 84.90285,
          "velocity": 0.7716535433070866
        },
        {
          "duration": 0.11792062499999645,
          "durationTicks": 80,
          "midi": 46,
          "name": "A#2",
          "ticks": 73544,
          "time": 108.40443056250001,
          "velocity": 0.8188976377952756
        },
        {
          "duration": 0.24173728124998206,
          "durationTicks": 164,
          "midi": 44,
          "name": "G#2",
          "ticks": 73646,
          "time": 108.55477935937502,
          "velocity": 0.6141732283464567
        },
        {
          "duration": 0.11792062499998224,
          "durationTicks": 80,
          "midi": 46,
          "name": "A#2",
          "ticks": 85832,
          "time": 126.51703856250002,
          "velocity": 0.8188976377952756
        },
        {
          "duration": 0.24173728124999627,
          "durationTicks": 164,
          "midi": 44,
          "name": "G#2",
          "ticks": 85934,
          "time": 126.66738735937501,
          "velocity": 0.6141732283464567
        },
        {
          "duration": 0.11792062499998224,
          "durationTicks": 80,
          "midi": 42,
          "name": "F#2",
          "ticks": 107904,
          "time": 159.051339,
          "velocity": 0.6614173228346457
        },
        {
          "duration": 0.11792062500001066,
          "durationTicks": 80,
          "midi": 42,
          "name": "F#2",
          "ticks": 108096,
          "time": 159.3343485,
          "velocity": 0.2283464566929134
        },
        {
          "duration": 0.11792062499998224,
          "durationTicks": 80,
          "midi": 42,
          "name": "F#2",
          "ticks": 108288,
          "time": 159.61735800000002,
          "velocity": 0.6377952755905512
        },
        {
          "duration": 0.11792062500003908,
          "durationTicks": 80,
          "midi": 42,
          "name": "F#2",
          "ticks": 108488,
          "time": 159.9121595625,
          "velocity": 0.29133858267716534
        },
        {
          "duration": 0.10612856250000391,
          "durationTicks": 72,
          "midi": 42,
          "name": "F#2",
          "ticks": 108672,
          "time": 160.183377,
          "velocity": 0.6614173228346457
        },
        {
          "duration": 0.08254443749999041,
          "durationTicks": 56,
          "midi": 46,
          "name": "A#2",
          "ticks": 108864,
          "time": 160.46638650000003,
          "velocity": 0.6850393700787402
        },
        {
          "duration": 0.14740078125001332,
          "durationTicks": 100,
          "midi": 42,
          "name": "F#2",
          "ticks": 109056,
          "time": 160.74939600000002,
          "velocity": 0.7322834645669292
        },
        {
          "duration": 0.13560871875000657,
          "durationTicks": 92,
          "midi": 42,
          "name": "F#2",
          "ticks": 109256,
          "time": 161.04419756250002,
          "velocity": 0.3858267716535433
        },
        {
          "duration": 0.13560871875000657,
          "durationTicks": 92,
          "midi": 42,
          "name": "F#2",
          "ticks": 109440,
          "time": 161.315415,
          "velocity": 0.6614173228346457
        },
        {
          "duration": 0.1297126875000174,
          "durationTicks": 88,
          "midi": 42,
          "name": "F#2",
          "ticks": 109640,
          "time": 161.6102165625,
          "velocity": 0.36220472440944884
        },
        {
          "duration": 0.14150474999999574,
          "durationTicks": 96,
          "midi": 42,
          "name": "F#2",
          "ticks": 109824,
          "time": 161.881434,
          "velocity": 0.6614173228346457
        },
        {
          "duration": 0.11792062500001066,
          "durationTicks": 80,
          "midi": 42,
          "name": "F#2",
          "ticks": 110024,
          "time": 162.1762355625,
          "velocity": 0.36220472440944884
        },
        {
          "duration": 0.11792062499998224,
          "durationTicks": 80,
          "midi": 42,
          "name": "F#2",
          "ticks": 110208,
          "time": 162.44745300000002,
          "velocity": 0.6377952755905512
        },
        {
          "duration": 0.2771134687499739,
          "durationTicks": 188,
          "midi": 46,
          "name": "A#2",
          "ticks": 110400,
          "time": 162.73046250000002,
          "velocity": 0.7480314960629921
        },
        {
          "duration": 0.10612856250000391,
          "durationTicks": 72,
          "midi": 42,
          "name": "F#2",
          "ticks": 110592,
          "time": 163.013472,
          "velocity": 0.6850393700787402
        },
        {
          "duration": 0.13560871875000657,
          "durationTicks": 92,
          "midi": 42,
          "name": "F#2",
          "ticks": 110792,
          "time": 163.3082735625,
          "velocity": 0.33858267716535434
        },
        {
          "duration": 0.14150474999999574,
          "durationTicks": 96,
          "midi": 42,
          "name": "F#2",
          "ticks": 110976,
          "time": 163.57949100000002,
          "velocity": 0.6141732283464567
        },
        {
          "duration": 0.12381665624999982,
          "durationTicks": 84,
          "midi": 42,
          "name": "F#2",
          "ticks": 111174,
          "time": 163.871344546875,
          "velocity": 0.33858267716535434
        },
        {
          "duration": 0.12676467187500862,
          "durationTicks": 86,
          "midi": 42,
          "name": "F#2",
          "ticks": 111360,
          "time": 164.14551,
          "velocity": 0.6850393700787402
        },
        {
          "duration": 0.1267646718749802,
          "durationTicks": 86,
          "midi": 42,
          "name": "F#2",
          "ticks": 111456,
          "time": 164.28701475000003,
          "velocity": 0.31496062992125984
        },
        {
          "duration": 0.14150474999999574,
          "durationTicks": 96,
          "midi": 42,
          "name": "F#2",
          "ticks": 111552,
          "time": 164.42851950000002,
          "velocity": 0.4566929133858268
        },
        {
          "duration": 0.14150474999999574,
          "durationTicks": 96,
          "midi": 42,
          "name": "F#2",
          "ticks": 111744,
          "time": 164.711529,
          "velocity": 0.6614173228346457
        },
        {
          "duration": 0.1297126875000174,
          "durationTicks": 88,
          "midi": 46,
          "name": "A#2",
          "ticks": 111936,
          "time": 164.9945385,
          "velocity": 0.6850393700787402
        },
        {
          "duration": 0.15919284375002007,
          "durationTicks": 108,
          "midi": 42,
          "name": "F#2",
          "ticks": 112132,
          "time": 165.28344403125,
          "velocity": 0.7480314960629921
        },
        {
          "duration": 0.14150474999999574,
          "durationTicks": 96,
          "midi": 42,
          "name": "F#2",
          "ticks": 112320,
          "time": 165.56055750000002,
          "velocity": 0.3858267716535433
        },
        {
          "duration": 0.16508887500000924,
          "durationTicks": 112,
          "midi": 42,
          "name": "F#2",
          "ticks": 112512,
          "time": 165.843567,
          "velocity": 0.6614173228346457
        },
        {
          "duration": 0.14740078125001332,
          "durationTicks": 100,
          "midi": 42,
          "name": "F#2",
          "ticks": 112716,
          "time": 166.14426459375002,
          "velocity": 0.36220472440944884
        },
        {
          "duration": 0.15919284374999165,
          "durationTicks": 108,
          "midi": 42,
          "name": "F#2",
          "ticks": 112900,
          "time": 166.41548203125004,
          "velocity": 0.5669291338582677
        },
        {
          "duration": 0.14740078125001332,
          "durationTicks": 100,
          "midi": 42,
          "name": "F#2",
          "ticks": 113088,
          "time": 166.6925955,
          "velocity": 0.6614173228346457
        },
        {
          "duration": 0.15919284375002007,
          "durationTicks": 108,
          "midi": 42,
          "name": "F#2",
          "ticks": 113284,
          "time": 166.98150103125002,
          "velocity": 0.5039370078740157
        },
        {
          "duration": 0.13560871874997815,
          "durationTicks": 92,
          "midi": 42,
          "name": "F#2",
          "ticks": 113472,
          "time": 167.25861450000002,
          "velocity": 0.6141732283464567
        },
        {
          "duration": 0.14150474999999574,
          "durationTicks": 96,
          "midi": 42,
          "name": "F#2",
          "ticks": 113664,
          "time": 167.541624,
          "velocity": 0.7480314960629921
        },
        {
          "duration": 0.12381665624999982,
          "durationTicks": 84,
          "midi": 42,
          "name": "F#2",
          "ticks": 113864,
          "time": 167.8364255625,
          "velocity": 0.4409448818897638
        },
        {
          "duration": 0.11792062499998224,
          "durationTicks": 80,
          "midi": 42,
          "name": "F#2",
          "ticks": 114048,
          "time": 168.10764300000002,
          "velocity": 0.6614173228346457
        },
        {
          "duration": 0.11792062499998224,
          "durationTicks": 80,
          "midi": 42,
          "name": "F#2",
          "ticks": 114246,
          "time": 168.399496546875,
          "velocity": 0.4330708661417323
        },
        {
          "duration": 0.11792062500001066,
          "durationTicks": 80,
          "midi": 42,
          "name": "F#2",
          "ticks": 114432,
          "time": 168.673662,
          "velocity": 0.4566929133858268
        },
        {
          "duration": 0.11792062500001066,
          "durationTicks": 80,
          "midi": 42,
          "name": "F#2",
          "ticks": 114632,
          "time": 168.9684635625,
          "velocity": 0.5905511811023622
        },
        {
          "duration": 0.10612856250000391,
          "durationTicks": 72,
          "midi": 42,
          "name": "F#2",
          "ticks": 114816,
          "time": 169.23968100000002,
          "velocity": 0.7480314960629921
        },
        {
          "duration": 0.08254443749999041,
          "durationTicks": 56,
          "midi": 42,
          "name": "F#2",
          "ticks": 115008,
          "time": 169.5226905,
          "velocity": 0.48031496062992124
        },
        {
          "duration": 0.07664840625002967,
          "durationTicks": 52,
          "midi": 42,
          "name": "F#2",
          "ticks": 115104,
          "time": 169.66419525,
          "velocity": 0.31496062992125984
        },
        {
          "duration": 0.14740078125001332,
          "durationTicks": 100,
          "midi": 42,
          "name": "F#2",
          "ticks": 115200,
          "time": 169.8057,
          "velocity": 0.7322834645669292
        },
        {
          "duration": 0.135608718750035,
          "durationTicks": 92,
          "midi": 42,
          "name": "F#2",
          "ticks": 115400,
          "time": 170.1005015625,
          "velocity": 0.44881889763779526
        },
        {
          "duration": 0.13560871874997815,
          "durationTicks": 92,
          "midi": 42,
          "name": "F#2",
          "ticks": 115584,
          "time": 170.371719,
          "velocity": 0.6614173228346457
        },
        {
          "duration": 0.1297126875000174,
          "durationTicks": 88,
          "midi": 42,
          "name": "F#2",
          "ticks": 115782,
          "time": 170.663572546875,
          "velocity": 0.4330708661417323
        },
        {
          "duration": 0.14150474999999574,
          "durationTicks": 96,
          "midi": 42,
          "name": "F#2",
          "ticks": 115968,
          "time": 170.93773800000002,
          "velocity": 0.4566929133858268
        },
        {
          "duration": 0.11792062500003908,
          "durationTicks": 80,
          "midi": 42,
          "name": "F#2",
          "ticks": 116168,
          "time": 171.2325395625,
          "velocity": 0.5669291338582677
        },
        {
          "duration": 0.11792062500001066,
          "durationTicks": 80,
          "midi": 42,
          "name": "F#2",
          "ticks": 116352,
          "time": 171.503757,
          "velocity": 0.6377952755905512
        },
        {
          "duration": 0.08254443749999041,
          "durationTicks": 56,
          "midi": 42,
          "name": "F#2",
          "ticks": 116544,
          "time": 171.78676650000003,
          "velocity": 0.48031496062992124
        },
        {
          "duration": 0.05896031250000533,
          "durationTicks": 40,
          "midi": 46,
          "name": "A#2",
          "ticks": 116640,
          "time": 171.92827125000002,
          "velocity": 0.6141732283464567
        },
        {
          "duration": 0.10612856250000391,
          "durationTicks": 72,
          "midi": 42,
          "name": "F#2",
          "ticks": 116736,
          "time": 172.06977600000002,
          "velocity": 0.6850393700787402
        },
        {
          "duration": 0.13560871875000657,
          "durationTicks": 92,
          "midi": 42,
          "name": "F#2",
          "ticks": 116936,
          "time": 172.36457756250002,
          "velocity": 0.5905511811023622
        },
        {
          "duration": 0.14150475000002416,
          "durationTicks": 96,
          "midi": 42,
          "name": "F#2",
          "ticks": 117120,
          "time": 172.635795,
          "velocity": 0.48031496062992124
        },
        {
          "duration": 0.12381665624999982,
          "durationTicks": 84,
          "midi": 42,
          "name": "F#2",
          "ticks": 117318,
          "time": 172.92764854687502,
          "velocity": 0.6850393700787402
        },
        {
          "duration": 0.14150474999999574,
          "durationTicks": 96,
          "midi": 42,
          "name": "F#2",
          "ticks": 117504,
          "time": 173.201814,
          "velocity": 0.4094488188976378
        },
        {
          "duration": 0.14150474999999574,
          "durationTicks": 96,
          "midi": 42,
          "name": "F#2",
          "ticks": 117704,
          "time": 173.4966155625,
          "velocity": 0.4566929133858268
        },
        {
          "duration": 0.14150474999999574,
          "durationTicks": 96,
          "midi": 42,
          "name": "F#2",
          "ticks": 117888,
          "time": 173.76783300000002,
          "velocity": 0.6614173228346457
        },
        {
          "duration": 0.1297126875000174,
          "durationTicks": 88,
          "midi": 42,
          "name": "F#2",
          "ticks": 118080,
          "time": 174.05084250000002,
          "velocity": 0.6850393700787402
        },
        {
          "duration": 0.15919284374999165,
          "durationTicks": 108,
          "midi": 42,
          "name": "F#2",
          "ticks": 118276,
          "time": 174.33974803125002,
          "velocity": 0.4330708661417323
        },
        {
          "duration": 0.14150474999999574,
          "durationTicks": 96,
          "midi": 42,
          "name": "F#2",
          "ticks": 118464,
          "time": 174.61686150000003,
          "velocity": 0.5905511811023622
        },
        {
          "duration": 0.16508887500000924,
          "durationTicks": 112,
          "midi": 42,
          "name": "F#2",
          "ticks": 118656,
          "time": 174.89987100000002,
          "velocity": 0.6614173228346457
        },
        {
          "duration": 0.14740078125001332,
          "durationTicks": 100,
          "midi": 42,
          "name": "F#2",
          "ticks": 118860,
          "time": 175.20056859375,
          "velocity": 0.41732283464566927
        },
        {
          "duration": 0.15919284375002007,
          "durationTicks": 108,
          "midi": 42,
          "name": "F#2",
          "ticks": 119044,
          "time": 175.47178603125002,
          "velocity": 0.5669291338582677
        },
        {
          "duration": 0.14740078125001332,
          "durationTicks": 100,
          "midi": 42,
          "name": "F#2",
          "ticks": 119232,
          "time": 175.74889950000002,
          "velocity": 0.6614173228346457
        },
        {
          "duration": 0.15919284374999165,
          "durationTicks": 108,
          "midi": 42,
          "name": "F#2",
          "ticks": 119428,
          "time": 176.03780503125003,
          "velocity": 0.5039370078740157
        },
        {
          "duration": 0.13560871875000657,
          "durationTicks": 92,
          "midi": 42,
          "name": "F#2",
          "ticks": 119616,
          "time": 176.3149185,
          "velocity": 0.6141732283464567
        },
        {
          "duration": 0.14150474999999574,
          "durationTicks": 96,
          "midi": 42,
          "name": "F#2",
          "ticks": 119808,
          "time": 176.59792800000002,
          "velocity": 0.7480314960629921
        },
        {
          "duration": 0.12381665624999982,
          "durationTicks": 84,
          "midi": 42,
          "name": "F#2",
          "ticks": 120008,
          "time": 176.8927295625,
          "velocity": 0.4409448818897638
        },
        {
          "duration": 0.11792062500001066,
          "durationTicks": 80,
          "midi": 42,
          "name": "F#2",
          "ticks": 120192,
          "time": 177.163947,
          "velocity": 0.6614173228346457
        },
        {
          "duration": 0.11792062500001066,
          "durationTicks": 80,
          "midi": 42,
          "name": "F#2",
          "ticks": 120392,
          "time": 177.4587485625,
          "velocity": 0.4330708661417323
        },
        {
          "duration": 0.11792062499998224,
          "durationTicks": 80,
          "midi": 42,
          "name": "F#2",
          "ticks": 120576,
          "time": 177.72996600000002,
          "velocity": 0.4566929133858268
        },
        {
          "duration": 0.11792062500001066,
          "durationTicks": 80,
          "midi": 42,
          "name": "F#2",
          "ticks": 120774,
          "time": 178.021819546875,
          "velocity": 0.6377952755905512
        },
        {
          "duration": 0.10612856250000391,
          "durationTicks": 72,
          "midi": 42,
          "name": "F#2",
          "ticks": 120960,
          "time": 178.295985,
          "velocity": 0.6850393700787402
        },
        {
          "duration": 0.08254443749999041,
          "durationTicks": 56,
          "midi": 42,
          "name": "F#2",
          "ticks": 121152,
          "time": 178.57899450000002,
          "velocity": 0.5669291338582677
        },
        {
          "duration": 0.07664840625000124,
          "durationTicks": 52,
          "midi": 42,
          "name": "F#2",
          "ticks": 121248,
          "time": 178.72049925000002,
          "velocity": 0.31496062992125984
        },
        {
          "duration": 0.14740078125001332,
          "durationTicks": 100,
          "midi": 42,
          "name": "F#2",
          "ticks": 121344,
          "time": 178.862004,
          "velocity": 0.7322834645669292
        },
        {
          "duration": 0.13560871875000657,
          "durationTicks": 92,
          "midi": 42,
          "name": "F#2",
          "ticks": 121544,
          "time": 179.1568055625,
          "velocity": 0.44881889763779526
        },
        {
          "duration": 0.13560871874997815,
          "durationTicks": 92,
          "midi": 42,
          "name": "F#2",
          "ticks": 121728,
          "time": 179.42802300000002,
          "velocity": 0.6614173228346457
        },
        {
          "duration": 0.1297126875000174,
          "durationTicks": 88,
          "midi": 42,
          "name": "F#2",
          "ticks": 121928,
          "time": 179.7228245625,
          "velocity": 0.5669291338582677
        },
        {
          "duration": 0.14150474999999574,
          "durationTicks": 96,
          "midi": 42,
          "name": "F#2",
          "ticks": 122112,
          "time": 179.994042,
          "velocity": 0.4566929133858268
        },
        {
          "duration": 0.11792062500001066,
          "durationTicks": 80,
          "midi": 42,
          "name": "F#2",
          "ticks": 122312,
          "time": 180.2888435625,
          "velocity": 0.41732283464566927
        },
        {
          "duration": 0.11792062499998224,
          "durationTicks": 80,
          "midi": 42,
          "name": "F#2",
          "ticks": 122496,
          "time": 180.56006100000002,
          "velocity": 0.5905511811023622
        },
        {
          "duration": 0.2771134687500023,
          "durationTicks": 188,
          "midi": 46,
          "name": "A#2",
          "ticks": 122688,
          "time": 180.8430705,
          "velocity": 0.7480314960629921
        },
        {
          "duration": 0.10612856250000391,
          "durationTicks": 72,
          "midi": 42,
          "name": "F#2",
          "ticks": 122880,
          "time": 181.12608,
          "velocity": 0.6850393700787402
        },
        {
          "duration": 0.135608718750035,
          "durationTicks": 92,
          "midi": 42,
          "name": "F#2",
          "ticks": 123080,
          "time": 181.4208815625,
          "velocity": 0.5669291338582677
        },
        {
          "duration": 0.14150474999999574,
          "durationTicks": 96,
          "midi": 42,
          "name": "F#2",
          "ticks": 123264,
          "time": 181.692099,
          "velocity": 0.5039370078740157
        },
        {
          "duration": 0.12381665624999982,
          "durationTicks": 84,
          "midi": 42,
          "name": "F#2",
          "ticks": 123462,
          "time": 181.983952546875,
          "velocity": 0.6141732283464567
        },
        {
          "duration": 0.14150474999999574,
          "durationTicks": 96,
          "midi": 42,
          "name": "F#2",
          "ticks": 123648,
          "time": 182.25811800000002,
          "velocity": 0.4094488188976378
        },
        {
          "duration": 0.14150475000002416,
          "durationTicks": 96,
          "midi": 42,
          "name": "F#2",
          "ticks": 123848,
          "time": 182.5529195625,
          "velocity": 0.5905511811023622
        },
        {
          "duration": 0.14150474999999574,
          "durationTicks": 96,
          "midi": 42,
          "name": "F#2",
          "ticks": 124032,
          "time": 182.824137,
          "velocity": 0.6614173228346457
        },
        {
          "duration": 0.129712687499989,
          "durationTicks": 88,
          "midi": 42,
          "name": "F#2",
          "ticks": 124224,
          "time": 183.10714650000003,
          "velocity": 0.6850393700787402
        },
        {
          "duration": 0.15919284374999165,
          "durationTicks": 108,
          "midi": 42,
          "name": "F#2",
          "ticks": 124420,
          "time": 183.39605203125004,
          "velocity": 0.36220472440944884
        },
        {
          "duration": 0.14150474999999574,
          "durationTicks": 96,
          "midi": 42,
          "name": "F#2",
          "ticks": 124608,
          "time": 183.6731655,
          "velocity": 0.5039370078740157
        },
        {
          "duration": 0.16508887500000924,
          "durationTicks": 112,
          "midi": 42,
          "name": "F#2",
          "ticks": 124800,
          "time": 183.95617500000003,
          "velocity": 0.6614173228346457
        },
        {
          "duration": 0.14740078125001332,
          "durationTicks": 100,
          "midi": 42,
          "name": "F#2",
          "ticks": 125004,
          "time": 184.25687259375002,
          "velocity": 0.41732283464566927
        },
        {
          "duration": 0.15919284374999165,
          "durationTicks": 108,
          "midi": 42,
          "name": "F#2",
          "ticks": 125188,
          "time": 184.52809003125003,
          "velocity": 0.48031496062992124
        },
        {
          "duration": 0.14740078125001332,
          "durationTicks": 100,
          "midi": 42,
          "name": "F#2",
          "ticks": 125376,
          "time": 184.8052035,
          "velocity": 0.6141732283464567
        },
        {
          "duration": 0.14150475000002416,
          "durationTicks": 96,
          "midi": 42,
          "name": "F#2",
          "ticks": 125572,
          "time": 185.09410903125,
          "velocity": 0.6377952755905512
        },
        {
          "duration": 0.13560871874997815,
          "durationTicks": 92,
          "midi": 42,
          "name": "F#2",
          "ticks": 125760,
          "time": 185.37122250000002,
          "velocity": 0.6377952755905512
        },
        {
          "duration": 0.14150474999999574,
          "durationTicks": 96,
          "midi": 42,
          "name": "F#2",
          "ticks": 125952,
          "time": 185.654232,
          "velocity": 0.7480314960629921
        },
        {
          "duration": 0.12381665624999982,
          "durationTicks": 84,
          "midi": 42,
          "name": "F#2",
          "ticks": 126152,
          "time": 185.9490335625,
          "velocity": 0.4409448818897638
        },
        {
          "duration": 0.11792062499998224,
          "durationTicks": 80,
          "midi": 42,
          "name": "F#2",
          "ticks": 126336,
          "time": 186.22025100000002,
          "velocity": 0.6614173228346457
        },
        {
          "duration": 0.11792062500001066,
          "durationTicks": 80,
          "midi": 42,
          "name": "F#2",
          "ticks": 126536,
          "time": 186.51505256250002,
          "velocity": 0.4330708661417323
        },
        {
          "duration": 0.11792062499998224,
          "durationTicks": 80,
          "midi": 42,
          "name": "F#2",
          "ticks": 126720,
          "time": 186.78627000000003,
          "velocity": 0.4566929133858268
        },
        {
          "duration": 0.11792062500003908,
          "durationTicks": 80,
          "midi": 42,
          "name": "F#2",
          "ticks": 126920,
          "time": 187.0810715625,
          "velocity": 0.5905511811023622
        },
        {
          "duration": 0.10612856250000391,
          "durationTicks": 72,
          "midi": 42,
          "name": "F#2",
          "ticks": 127104,
          "time": 187.352289,
          "velocity": 0.7480314960629921
        },
        {
          "duration": 0.07664840625002967,
          "durationTicks": 52,
          "midi": 42,
          "name": "F#2",
          "ticks": 127200,
          "time": 187.49379375,
          "velocity": 0.31496062992125984
        },
        {
          "duration": 0.08254443749999041,
          "durationTicks": 56,
          "midi": 42,
          "name": "F#2",
          "ticks": 127296,
          "time": 187.6352985,
          "velocity": 0.48031496062992124
        },
        {
          "duration": 0.14740078125001332,
          "durationTicks": 100,
          "midi": 42,
          "name": "F#2",
          "ticks": 127488,
          "time": 187.91830800000002,
          "velocity": 0.7322834645669292
        },
        {
          "duration": 0.135608718750035,
          "durationTicks": 92,
          "midi": 42,
          "name": "F#2",
          "ticks": 127688,
          "time": 188.2131095625,
          "velocity": 0.44881889763779526
        },
        {
          "duration": 0.13560871875000657,
          "durationTicks": 92,
          "midi": 42,
          "name": "F#2",
          "ticks": 127872,
          "time": 188.484327,
          "velocity": 0.6614173228346457
        },
        {
          "duration": 0.1297126875000174,
          "durationTicks": 88,
          "midi": 42,
          "name": "F#2",
          "ticks": 128072,
          "time": 188.7791285625,
          "velocity": 0.4330708661417323
        },
        {
          "duration": 0.14150474999999574,
          "durationTicks": 96,
          "midi": 42,
          "name": "F#2",
          "ticks": 128256,
          "time": 189.05034600000002,
          "velocity": 0.4566929133858268
        },
        {
          "duration": 0.11792062500001066,
          "durationTicks": 80,
          "midi": 42,
          "name": "F#2",
          "ticks": 128456,
          "time": 189.34514756250002,
          "velocity": 0.5669291338582677
        },
        {
          "duration": 0.11792062499998224,
          "durationTicks": 80,
          "midi": 42,
          "name": "F#2",
          "ticks": 128640,
          "time": 189.61636500000003,
          "velocity": 0.6377952755905512
        },
        {
          "duration": 0.2771134687499739,
          "durationTicks": 188,
          "midi": 46,
          "name": "A#2",
          "ticks": 128832,
          "time": 189.89937450000002,
          "velocity": 0.7480314960629921
        },
        {
          "duration": 0.10612856250000391,
          "durationTicks": 72,
          "midi": 42,
          "name": "F#2",
          "ticks": 129024,
          "time": 190.182384,
          "velocity": 0.6850393700787402
        },
        {
          "duration": 0.13560871875000657,
          "durationTicks": 92,
          "midi": 42,
          "name": "F#2",
          "ticks": 129224,
          "time": 190.4771855625,
          "velocity": 0.5905511811023622
        },
        {
          "duration": 0.14150474999999574,
          "durationTicks": 96,
          "midi": 42,
          "name": "F#2",
          "ticks": 129408,
          "time": 190.74840300000002,
          "velocity": 0.48031496062992124
        },
        {
          "duration": 0.12381665624999982,
          "durationTicks": 84,
          "midi": 42,
          "name": "F#2",
          "ticks": 129606,
          "time": 191.040256546875,
          "velocity": 0.6850393700787402
        },
        {
          "duration": 0.14150474999999574,
          "durationTicks": 96,
          "midi": 42,
          "name": "F#2",
          "ticks": 129792,
          "time": 191.314422,
          "velocity": 0.4094488188976378
        },
        {
          "duration": 0.14150474999999574,
          "durationTicks": 96,
          "midi": 42,
          "name": "F#2",
          "ticks": 129992,
          "time": 191.6092235625,
          "velocity": 0.4566929133858268
        },
        {
          "duration": 0.14150474999999574,
          "durationTicks": 96,
          "midi": 42,
          "name": "F#2",
          "ticks": 130176,
          "time": 191.88044100000002,
          "velocity": 0.6614173228346457
        },
        {
          "duration": 0.1297126875000174,
          "durationTicks": 88,
          "midi": 42,
          "name": "F#2",
          "ticks": 130368,
          "time": 192.1634505,
          "velocity": 0.6850393700787402
        },
        {
          "duration": 0.15919284375002007,
          "durationTicks": 108,
          "midi": 42,
          "name": "F#2",
          "ticks": 130564,
          "time": 192.45235603125002,
          "velocity": 0.4330708661417323
        },
        {
          "duration": 0.14150474999999574,
          "durationTicks": 96,
          "midi": 42,
          "name": "F#2",
          "ticks": 130752,
          "time": 192.72946950000002,
          "velocity": 0.5905511811023622
        },
        {
          "duration": 0.16508887500000924,
          "durationTicks": 112,
          "midi": 42,
          "name": "F#2",
          "ticks": 130944,
          "time": 193.012479,
          "velocity": 0.6614173228346457
        },
        {
          "duration": 0.1474007812499849,
          "durationTicks": 100,
          "midi": 42,
          "name": "F#2",
          "ticks": 131148,
          "time": 193.31317659375003,
          "velocity": 0.41732283464566927
        },
        {
          "duration": 0.15919284375002007,
          "durationTicks": 108,
          "midi": 42,
          "name": "F#2",
          "ticks": 131332,
          "time": 193.58439403125,
          "velocity": 0.5669291338582677
        },
        {
          "duration": 0.14740078125001332,
          "durationTicks": 100,
          "midi": 42,
          "name": "F#2",
          "ticks": 131520,
          "time": 193.86150750000002,
          "velocity": 0.6614173228346457
        },
        {
          "duration": 0.15919284374999165,
          "durationTicks": 108,
          "midi": 42,
          "name": "F#2",
          "ticks": 131716,
          "time": 194.15041303125003,
          "velocity": 0.5039370078740157
        },
        {
          "duration": 0.13560871874997815,
          "durationTicks": 92,
          "midi": 42,
          "name": "F#2",
          "ticks": 131904,
          "time": 194.42752650000003,
          "velocity": 0.31496062992125984
        },
        {
          "duration": 0.14150474999999574,
          "durationTicks": 96,
          "midi": 42,
          "name": "F#2",
          "ticks": 132096,
          "time": 194.71053600000002,
          "velocity": 0.7480314960629921
        },
        {
          "duration": 0.12381665624999982,
          "durationTicks": 84,
          "midi": 42,
          "name": "F#2",
          "ticks": 132296,
          "time": 195.00533756250002,
          "velocity": 0.4409448818897638
        },
        {
          "duration": 0.11792062499998224,
          "durationTicks": 80,
          "midi": 42,
          "name": "F#2",
          "ticks": 132480,
          "time": 195.27655500000003,
          "velocity": 0.6614173228346457
        },
        {
          "duration": 0.11792062500003908,
          "durationTicks": 80,
          "midi": 42,
          "name": "F#2",
          "ticks": 132680,
          "time": 195.5713565625,
          "velocity": 0.4330708661417323
        },
        {
          "duration": 0.11792062499998224,
          "durationTicks": 80,
          "midi": 42,
          "name": "F#2",
          "ticks": 132864,
          "time": 195.842574,
          "velocity": 0.4566929133858268
        },
        {
          "duration": 0.11792062499998224,
          "durationTicks": 80,
          "midi": 42,
          "name": "F#2",
          "ticks": 133062,
          "time": 196.13442754687503,
          "velocity": 0.6377952755905512
        },
        {
          "duration": 0.10612856250000391,
          "durationTicks": 72,
          "midi": 42,
          "name": "F#2",
          "ticks": 133248,
          "time": 196.40859300000002,
          "velocity": 0.6850393700787402
        },
        {
          "duration": 0.029480156249974243,
          "durationTicks": 20,
          "midi": 42,
          "name": "F#2",
          "ticks": 133344,
          "time": 196.55009775000002,
          "velocity": 0.33858267716535434
        },
        {
          "duration": 0.029480156250002665,
          "durationTicks": 20,
          "midi": 42,
          "name": "F#2",
          "ticks": 133440,
          "time": 196.69160250000002,
          "velocity": 0.5669291338582677
        },
        {
          "duration": 0.14740078125001332,
          "durationTicks": 100,
          "midi": 42,
          "name": "F#2",
          "ticks": 133632,
          "time": 196.974612,
          "velocity": 0.7322834645669292
        },
        {
          "duration": 0.135608718750035,
          "durationTicks": 92,
          "midi": 42,
          "name": "F#2",
          "ticks": 133832,
          "time": 197.2694135625,
          "velocity": 0.44881889763779526
        },
        {
          "duration": 0.13560871874997815,
          "durationTicks": 92,
          "midi": 42,
          "name": "F#2",
          "ticks": 134016,
          "time": 197.54063100000002,
          "velocity": 0.6614173228346457
        },
        {
          "duration": 0.129712687499989,
          "durationTicks": 88,
          "midi": 42,
          "name": "F#2",
          "ticks": 134216,
          "time": 197.83543256250002,
          "velocity": 0.5669291338582677
        },
        {
          "duration": 0.14150474999999574,
          "durationTicks": 96,
          "midi": 42,
          "name": "F#2",
          "ticks": 134400,
          "time": 198.10665000000003,
          "velocity": 0.4566929133858268
        },
        {
          "duration": 0.11792062500003908,
          "durationTicks": 80,
          "midi": 42,
          "name": "F#2",
          "ticks": 134600,
          "time": 198.4014515625,
          "velocity": 0.5669291338582677
        },
        {
          "duration": 0.11792062499998224,
          "durationTicks": 80,
          "midi": 42,
          "name": "F#2",
          "ticks": 134784,
          "time": 198.672669,
          "velocity": 0.7716535433070866
        },
        {
          "duration": 0.08254443749999041,
          "durationTicks": 56,
          "midi": 46,
          "name": "A#2",
          "ticks": 134976,
          "time": 198.9556785,
          "velocity": 0.7322834645669292
        },
        {
          "duration": 0.10612856250000391,
          "durationTicks": 72,
          "midi": 42,
          "name": "F#2",
          "ticks": 135168,
          "time": 199.23868800000002,
          "velocity": 0.6850393700787402
        },
        {
          "duration": 0.135608718750035,
          "durationTicks": 92,
          "midi": 42,
          "name": "F#2",
          "ticks": 135368,
          "time": 199.5334895625,
          "velocity": 0.5669291338582677
        },
        {
          "duration": 0.14150475000002416,
          "durationTicks": 96,
          "midi": 42,
          "name": "F#2",
          "ticks": 135552,
          "time": 199.804707,
          "velocity": 0.5039370078740157
        },
        {
          "duration": 0.12381665624999982,
          "durationTicks": 84,
          "midi": 42,
          "name": "F#2",
          "ticks": 135750,
          "time": 200.09656054687503,
          "velocity": 0.6141732283464567
        },
        {
          "duration": 0.14150474999999574,
          "durationTicks": 96,
          "midi": 42,
          "name": "F#2",
          "ticks": 135936,
          "time": 200.37072600000002,
          "velocity": 0.4094488188976378
        },
        {
          "duration": 0.14150474999999574,
          "durationTicks": 96,
          "midi": 42,
          "name": "F#2",
          "ticks": 136136,
          "time": 200.66552756250002,
          "velocity": 0.5905511811023622
        },
        {
          "duration": 0.14150474999999574,
          "durationTicks": 96,
          "midi": 42,
          "name": "F#2",
          "ticks": 136320,
          "time": 200.93674500000003,
          "velocity": 0.6614173228346457
        },
        {
          "duration": 0.1297126875000174,
          "durationTicks": 88,
          "midi": 42,
          "name": "F#2",
          "ticks": 136512,
          "time": 201.21975450000002,
          "velocity": 0.7322834645669292
        },
        {
          "duration": 0.15919284374999165,
          "durationTicks": 108,
          "midi": 42,
          "name": "F#2",
          "ticks": 136708,
          "time": 201.50866003125003,
          "velocity": 0.36220472440944884
        },
        {
          "duration": 0.14150475000002416,
          "durationTicks": 96,
          "midi": 42,
          "name": "F#2",
          "ticks": 136896,
          "time": 201.7857735,
          "velocity": 0.5669291338582677
        },
        {
          "duration": 0.16508887500000924,
          "durationTicks": 112,
          "midi": 42,
          "name": "F#2",
          "ticks": 137088,
          "time": 202.06878300000002,
          "velocity": 0.6614173228346457
        },
        {
          "duration": 0.14740078125001332,
          "durationTicks": 100,
          "midi": 42,
          "name": "F#2",
          "ticks": 137292,
          "time": 202.36948059375,
          "velocity": 0.4566929133858268
        },
        {
          "duration": 0.15919284374999165,
          "durationTicks": 108,
          "midi": 42,
          "name": "F#2",
          "ticks": 137476,
          "time": 202.64069803125003,
          "velocity": 0.6141732283464567
        },
        {
          "duration": 0.13560871875000657,
          "durationTicks": 92,
          "midi": 44,
          "name": "G#2",
          "ticks": 138048,
          "time": 203.4838305,
          "velocity": 0.4094488188976378
        },
        {
          "duration": 0.2830094999999915,
          "durationTicks": 192,
          "midi": 44,
          "name": "G#2",
          "ticks": 142848,
          "time": 210.55906800000002,
          "velocity": 0.5905511811023622
        },
        {
          "duration": 0.2830095000000199,
          "durationTicks": 192,
          "midi": 44,
          "name": "G#2",
          "ticks": 143232,
          "time": 211.125087,
          "velocity": 0.29133858267716534
        },
        {
          "duration": 0.2830094999999915,
          "durationTicks": 192,
          "midi": 44,
          "name": "G#2",
          "ticks": 143616,
          "time": 211.69110600000002,
          "velocity": 0.7086614173228346
        },
        {
          "duration": 0.2830094999999915,
          "durationTicks": 192,
          "midi": 44,
          "name": "G#2",
          "ticks": 144000,
          "time": 212.25712500000003,
          "velocity": 0.48031496062992124
        },
        {
          "duration": 0.2830095000000199,
          "durationTicks": 192,
          "midi": 44,
          "name": "G#2",
          "ticks": 148992,
          "time": 219.615372,
          "velocity": 0.7716535433070866
        },
        {
          "duration": 0.2830094999999915,
          "durationTicks": 192,
          "midi": 44,
          "name": "G#2",
          "ticks": 149952,
          "time": 221.03041950000002,
          "velocity": 0.5669291338582677
        },
        {
          "duration": 0.2830094999999915,
          "durationTicks": 192,
          "midi": 44,
          "name": "G#2",
          "ticks": 150336,
          "time": 221.59643850000003,
          "velocity": 0.6850393700787402
        },
        {
          "duration": 0.2830094999999915,
          "durationTicks": 192,
          "midi": 44,
          "name": "G#2",
          "ticks": 155136,
          "time": 228.67167600000002,
          "velocity": 0.5905511811023622
        },
        {
          "duration": 0.2830094999999915,
          "durationTicks": 192,
          "midi": 44,
          "name": "G#2",
          "ticks": 155520,
          "time": 229.23769500000003,
          "velocity": 0.29133858267716534
        },
        {
          "duration": 0.2830095000000199,
          "durationTicks": 192,
          "midi": 44,
          "name": "G#2",
          "ticks": 155904,
          "time": 229.803714,
          "velocity": 0.7086614173228346
        },
        {
          "duration": 0.2830094999999915,
          "durationTicks": 192,
          "midi": 44,
          "name": "G#2",
          "ticks": 156288,
          "time": 230.36973300000002,
          "velocity": 0.48031496062992124
        }
      ],
      "endOfTrackTicks": 156672
    },
    {
      "channel": 9,
      "controlChanges": {},
      "pitchBends": [],
      "instrument": {
        "family": "drums",
        "number": 0,
        "name": "standard kit"
      },
      "name": "#Cymbals ",
      "notes": [
        {
          "duration": 0.08844046875000089,
          "durationTicks": 60,
          "midi": 53,
          "name": "F3",
          "ticks": 9024,
          "time": 13.3014465,
          "velocity": 0.5433070866141733
        },
        {
          "duration": 0.45989043750000747,
          "durationTicks": 312,
          "midi": 49,
          "name": "C#3",
          "ticks": 46080,
          "time": 67.92228,
          "velocity": 0.6299212598425197
        },
        {
          "duration": 0.05011626562499316,
          "durationTicks": 34,
          "midi": 51,
          "name": "D#3",
          "ticks": 46276,
          "time": 68.21118553125001,
          "velocity": 0.3779527559055118
        },
        {
          "duration": 0.07075237499999787,
          "durationTicks": 48,
          "midi": 51,
          "name": "D#3",
          "ticks": 46468,
          "time": 68.49419503125002,
          "velocity": 0.6456692913385826
        },
        {
          "duration": 0.05896031249999112,
          "durationTicks": 40,
          "midi": 51,
          "name": "D#3",
          "ticks": 46660,
          "time": 68.77720453125,
          "velocity": 0.6141732283464567
        },
        {
          "duration": 0.053064281250001955,
          "durationTicks": 36,
          "midi": 51,
          "name": "D#3",
          "ticks": 46848,
          "time": 69.05431800000001,
          "velocity": 0.29133858267716534
        },
        {
          "duration": 0.044220234374989786,
          "durationTicks": 30,
          "midi": 51,
          "name": "D#3",
          "ticks": 47042,
          "time": 69.34027551562501,
          "velocity": 0.5039370078740157
        },
        {
          "duration": 0.053064281250001955,
          "durationTicks": 36,
          "midi": 51,
          "name": "D#3",
          "ticks": 47234,
          "time": 69.623285015625,
          "velocity": 0.7165354330708661
        },
        {
          "duration": 0.053064281249987744,
          "durationTicks": 36,
          "midi": 51,
          "name": "D#3",
          "ticks": 47424,
          "time": 69.90334650000001,
          "velocity": 0.47244094488188976
        },
        {
          "duration": 0.0648563437500087,
          "durationTicks": 44,
          "midi": 51,
          "name": "D#3",
          "ticks": 47618,
          "time": 70.189304015625,
          "velocity": 0.6456692913385826
        },
        {
          "duration": 0.03832420312500062,
          "durationTicks": 26,
          "midi": 51,
          "name": "D#3",
          "ticks": 47810,
          "time": 70.472313515625,
          "velocity": 0.33858267716535434
        },
        {
          "duration": 0.06780435937500329,
          "durationTicks": 46,
          "midi": 51,
          "name": "D#3",
          "ticks": 48000,
          "time": 70.752375,
          "velocity": 0.6614173228346457
        },
        {
          "duration": 0.07959642187499583,
          "durationTicks": 54,
          "midi": 51,
          "name": "D#3",
          "ticks": 48196,
          "time": 71.04128053125001,
          "velocity": 0.6377952755905512
        },
        {
          "duration": 0.020636109374990497,
          "durationTicks": 14,
          "midi": 51,
          "name": "D#3",
          "ticks": 48384,
          "time": 71.31839400000001,
          "velocity": 0.29133858267716534
        },
        {
          "duration": 0.0648563437499945,
          "durationTicks": 44,
          "midi": 51,
          "name": "D#3",
          "ticks": 48574,
          "time": 71.59845548437501,
          "velocity": 0.5039370078740157
        },
        {
          "duration": 0.0854924531249992,
          "durationTicks": 58,
          "midi": 51,
          "name": "D#3",
          "ticks": 48768,
          "time": 71.88441300000001,
          "velocity": 0.6456692913385826
        },
        {
          "duration": 0.06190832812499991,
          "durationTicks": 42,
          "midi": 51,
          "name": "D#3",
          "ticks": 48958,
          "time": 72.164474484375,
          "velocity": 0.5039370078740157
        },
        {
          "duration": 0.45989043749999325,
          "durationTicks": 312,
          "midi": 49,
          "name": "C#3",
          "ticks": 49152,
          "time": 72.450432,
          "velocity": 0.6299212598425197
        },
        {
          "duration": 0.05011626562500737,
          "durationTicks": 34,
          "midi": 51,
          "name": "D#3",
          "ticks": 49348,
          "time": 72.73933753125,
          "velocity": 0.3779527559055118
        },
        {
          "duration": 0.07075237499999787,
          "durationTicks": 48,
          "midi": 51,
          "name": "D#3",
          "ticks": 49540,
          "time": 73.02234703125,
          "velocity": 0.6456692913385826
        },
        {
          "duration": 0.05896031250001954,
          "durationTicks": 40,
          "midi": 51,
          "name": "D#3",
          "ticks": 49732,
          "time": 73.30535653125,
          "velocity": 0.6141732283464567
        },
        {
          "duration": 0.053064281250001955,
          "durationTicks": 36,
          "midi": 51,
          "name": "D#3",
          "ticks": 49920,
          "time": 73.58247,
          "velocity": 0.29133858267716534
        },
        {
          "duration": 0.044220234374989786,
          "durationTicks": 30,
          "midi": 51,
          "name": "D#3",
          "ticks": 50114,
          "time": 73.86842751562502,
          "velocity": 0.5039370078740157
        },
        {
          "duration": 0.053064281250001955,
          "durationTicks": 36,
          "midi": 51,
          "name": "D#3",
          "ticks": 50306,
          "time": 74.151437015625,
          "velocity": 0.7165354330708661
        },
        {
          "duration": 0.053064281250001955,
          "durationTicks": 36,
          "midi": 51,
          "name": "D#3",
          "ticks": 50496,
          "time": 74.4314985,
          "velocity": 0.47244094488188976
        },
        {
          "duration": 0.06485634374998028,
          "durationTicks": 44,
          "midi": 51,
          "name": "D#3",
          "ticks": 50690,
          "time": 74.71745601562502,
          "velocity": 0.6456692913385826
        },
        {
          "duration": 0.03832420312498641,
          "durationTicks": 26,
          "midi": 51,
          "name": "D#3",
          "ticks": 50882,
          "time": 75.00046551562501,
          "velocity": 0.48031496062992124
        },
        {
          "duration": 0.06780435937498908,
          "durationTicks": 46,
          "midi": 51,
          "name": "D#3",
          "ticks": 51072,
          "time": 75.280527,
          "velocity": 0.5905511811023622
        },
        {
          "duration": 0.07959642187499583,
          "durationTicks": 54,
          "midi": 51,
          "name": "D#3",
          "ticks": 51268,
          "time": 75.56943253125,
          "velocity": 0.5669291338582677
        },
        {
          "duration": 0.020636109375004708,
          "durationTicks": 14,
          "midi": 51,
          "name": "D#3",
          "ticks": 51456,
          "time": 75.846546,
          "velocity": 0.6614173228346457
        },
        {
          "duration": 0.0648563437500087,
          "durationTicks": 44,
          "midi": 51,
          "name": "D#3",
          "ticks": 51646,
          "time": 76.126607484375,
          "velocity": 0.5039370078740157
        },
        {
          "duration": 0.0854924531249992,
          "durationTicks": 58,
          "midi": 51,
          "name": "D#3",
          "ticks": 51840,
          "time": 76.412565,
          "velocity": 0.6456692913385826
        },
        {
          "duration": 0.06190832812499991,
          "durationTicks": 42,
          "midi": 51,
          "name": "D#3",
          "ticks": 52030,
          "time": 76.692626484375,
          "velocity": 0.5039370078740157
        },
        {
          "duration": 0.45989043749999325,
          "durationTicks": 312,
          "midi": 49,
          "name": "C#3",
          "ticks": 52224,
          "time": 76.97858400000001,
          "velocity": 0.6299212598425197
        },
        {
          "duration": 0.05011626562500737,
          "durationTicks": 34,
          "midi": 51,
          "name": "D#3",
          "ticks": 52420,
          "time": 77.26748953125,
          "velocity": 0.3779527559055118
        },
        {
          "duration": 0.07075237499999787,
          "durationTicks": 48,
          "midi": 51,
          "name": "D#3",
          "ticks": 52612,
          "time": 77.55049903125,
          "velocity": 0.6456692913385826
        },
        {
          "duration": 0.05896031250000533,
          "durationTicks": 40,
          "midi": 51,
          "name": "D#3",
          "ticks": 52804,
          "time": 77.83350853125,
          "velocity": 0.6141732283464567
        },
        {
          "duration": 0.053064281250001955,
          "durationTicks": 36,
          "midi": 51,
          "name": "D#3",
          "ticks": 52992,
          "time": 78.110622,
          "velocity": 0.29133858267716534
        },
        {
          "duration": 0.044220234375004,
          "durationTicks": 30,
          "midi": 51,
          "name": "D#3",
          "ticks": 53186,
          "time": 78.396579515625,
          "velocity": 0.5039370078740157
        },
        {
          "duration": 0.053064281250001955,
          "durationTicks": 36,
          "midi": 51,
          "name": "D#3",
          "ticks": 53378,
          "time": 78.67958901562501,
          "velocity": 0.7165354330708661
        },
        {
          "duration": 0.053064281250001955,
          "durationTicks": 36,
          "midi": 51,
          "name": "D#3",
          "ticks": 53568,
          "time": 78.95965050000001,
          "velocity": 0.47244094488188976
        },
        {
          "duration": 0.0648563437499945,
          "durationTicks": 44,
          "midi": 51,
          "name": "D#3",
          "ticks": 53762,
          "time": 79.24560801562501,
          "velocity": 0.6456692913385826
        },
        {
          "duration": 0.03832420312498641,
          "durationTicks": 26,
          "midi": 51,
          "name": "D#3",
          "ticks": 53954,
          "time": 79.52861751562502,
          "velocity": 0.33858267716535434
        },
        {
          "duration": 0.06780435937498908,
          "durationTicks": 46,
          "midi": 51,
          "name": "D#3",
          "ticks": 54144,
          "time": 79.80867900000001,
          "velocity": 0.6614173228346457
        },
        {
          "duration": 0.07959642187499583,
          "durationTicks": 54,
          "midi": 51,
          "name": "D#3",
          "ticks": 54340,
          "time": 80.09758453125,
          "velocity": 0.6377952755905512
        },
        {
          "duration": 0.020636109375004708,
          "durationTicks": 14,
          "midi": 51,
          "name": "D#3",
          "ticks": 54528,
          "time": 80.37469800000001,
          "velocity": 0.29133858267716534
        },
        {
          "duration": 0.0648563437499945,
          "durationTicks": 44,
          "midi": 51,
          "name": "D#3",
          "ticks": 54718,
          "time": 80.654759484375,
          "velocity": 0.5039370078740157
        },
        {
          "duration": 0.0854924531249992,
          "durationTicks": 58,
          "midi": 51,
          "name": "D#3",
          "ticks": 54912,
          "time": 80.940717,
          "velocity": 0.6456692913385826
        },
        {
          "duration": 0.06190832812499991,
          "durationTicks": 42,
          "midi": 51,
          "name": "D#3",
          "ticks": 55106,
          "time": 81.226674515625,
          "velocity": 0.5039370078740157
        },
        {
          "duration": 0.03832420312500062,
          "durationTicks": 26,
          "midi": 51,
          "name": "D#3",
          "ticks": 55200,
          "time": 81.36523125000001,
          "velocity": 0.33858267716535434
        },
        {
          "duration": 0.053064281250001955,
          "durationTicks": 36,
          "midi": 51,
          "name": "D#3",
          "ticks": 55296,
          "time": 81.506736,
          "velocity": 0.7165354330708661
        },
        {
          "duration": 0.05011626562500737,
          "durationTicks": 34,
          "midi": 51,
          "name": "D#3",
          "ticks": 55492,
          "time": 81.79564153125,
          "velocity": 0.3779527559055118
        },
        {
          "duration": 0.07075237499999787,
          "durationTicks": 48,
          "midi": 51,
          "name": "D#3",
          "ticks": 55684,
          "time": 82.07865103125,
          "velocity": 0.6456692913385826
        },
        {
          "duration": 0.05896031250001954,
          "durationTicks": 40,
          "midi": 51,
          "name": "D#3",
          "ticks": 55876,
          "time": 82.36166053125,
          "velocity": 0.6141732283464567
        },
        {
          "duration": 0.053064281250001955,
          "durationTicks": 36,
          "midi": 51,
          "name": "D#3",
          "ticks": 56064,
          "time": 82.63877400000001,
          "velocity": 0.29133858267716534
        },
        {
          "duration": 0.044220234375004,
          "durationTicks": 30,
          "midi": 51,
          "name": "D#3",
          "ticks": 56258,
          "time": 82.92473151562501,
          "velocity": 0.5039370078740157
        },
        {
          "duration": 0.053064281249987744,
          "durationTicks": 36,
          "midi": 51,
          "name": "D#3",
          "ticks": 56450,
          "time": 83.20774101562502,
          "velocity": 0.7165354330708661
        },
        {
          "duration": 0.053064281250001955,
          "durationTicks": 36,
          "midi": 51,
          "name": "D#3",
          "ticks": 56640,
          "time": 83.4878025,
          "velocity": 0.47244094488188976
        },
        {
          "duration": 0.06485634374998028,
          "durationTicks": 44,
          "midi": 51,
          "name": "D#3",
          "ticks": 56834,
          "time": 83.77376001562502,
          "velocity": 0.6456692913385826
        },
        {
          "duration": 0.03832420312500062,
          "durationTicks": 26,
          "midi": 51,
          "name": "D#3",
          "ticks": 57026,
          "time": 84.056769515625,
          "velocity": 0.48031496062992124
        },
        {
          "duration": 0.06780435937500329,
          "durationTicks": 46,
          "midi": 51,
          "name": "D#3",
          "ticks": 57216,
          "time": 84.336831,
          "velocity": 0.5905511811023622
        },
        {
          "duration": 0.07959642187501004,
          "durationTicks": 54,
          "midi": 51,
          "name": "D#3",
          "ticks": 57412,
          "time": 84.62573653125,
          "velocity": 0.5669291338582677
        },
        {
          "duration": 0.02063610937501892,
          "durationTicks": 14,
          "midi": 51,
          "name": "D#3",
          "ticks": 57600,
          "time": 84.90285,
          "velocity": 0.6614173228346457
        },
        {
          "duration": 0.0648563437500087,
          "durationTicks": 44,
          "midi": 51,
          "name": "D#3",
          "ticks": 57790,
          "time": 85.182911484375,
          "velocity": 0.5039370078740157
        },
        {
          "duration": 0.08549245312498499,
          "durationTicks": 58,
          "midi": 51,
          "name": "D#3",
          "ticks": 57984,
          "time": 85.46886900000001,
          "velocity": 0.6456692913385826
        },
        {
          "duration": 0.06190832812499991,
          "durationTicks": 42,
          "midi": 51,
          "name": "D#3",
          "ticks": 58174,
          "time": 85.74893048437501,
          "velocity": 0.5039370078740157
        },
        {
          "duration": 0.45989043749999325,
          "durationTicks": 312,
          "midi": 49,
          "name": "C#3",
          "ticks": 58368,
          "time": 86.03488800000001,
          "velocity": 0.6299212598425197
        },
        {
          "duration": 0.05011626562500737,
          "durationTicks": 34,
          "midi": 51,
          "name": "D#3",
          "ticks": 58564,
          "time": 86.32379353125,
          "velocity": 0.3779527559055118
        },
        {
          "duration": 0.07075237500001208,
          "durationTicks": 48,
          "midi": 51,
          "name": "D#3",
          "ticks": 58756,
          "time": 86.60680303125,
          "velocity": 0.6456692913385826
        },
        {
          "duration": 0.05896031250000533,
          "durationTicks": 40,
          "midi": 51,
          "name": "D#3",
          "ticks": 58948,
          "time": 86.88981253125,
          "velocity": 0.6141732283464567
        },
        {
          "duration": 0.053064281250001955,
          "durationTicks": 36,
          "midi": 51,
          "name": "D#3",
          "ticks": 59136,
          "time": 87.166926,
          "velocity": 0.29133858267716534
        },
        {
          "duration": 0.044220234374989786,
          "durationTicks": 30,
          "midi": 51,
          "name": "D#3",
          "ticks": 59330,
          "time": 87.45288351562502,
          "velocity": 0.5039370078740157
        },
        {
          "duration": 0.053064281250001955,
          "durationTicks": 36,
          "midi": 51,
          "name": "D#3",
          "ticks": 59522,
          "time": 87.73589301562501,
          "velocity": 0.7165354330708661
        },
        {
          "duration": 0.053064281250001955,
          "durationTicks": 36,
          "midi": 51,
          "name": "D#3",
          "ticks": 59712,
          "time": 88.0159545,
          "velocity": 0.47244094488188976
        },
        {
          "duration": 0.053064281250001955,
          "durationTicks": 36,
          "midi": 51,
          "name": "D#3",
          "ticks": 59808,
          "time": 88.15745925,
          "velocity": 0.29133858267716534
        },
        {
          "duration": 0.0648563437499945,
          "durationTicks": 44,
          "midi": 51,
          "name": "D#3",
          "ticks": 59906,
          "time": 88.301912015625,
          "velocity": 0.6456692913385826
        },
        {
          "duration": 0.03832420312498641,
          "durationTicks": 26,
          "midi": 51,
          "name": "D#3",
          "ticks": 60098,
          "time": 88.58492151562501,
          "velocity": 0.33858267716535434
        },
        {
          "duration": 0.06780435937498908,
          "durationTicks": 46,
          "midi": 51,
          "name": "D#3",
          "ticks": 60288,
          "time": 88.86498300000001,
          "velocity": 0.6614173228346457
        },
        {
          "duration": 0.07959642187499583,
          "durationTicks": 54,
          "midi": 51,
          "name": "D#3",
          "ticks": 60484,
          "time": 89.15388853125,
          "velocity": 0.6377952755905512
        },
        {
          "duration": 0.020636109375004708,
          "durationTicks": 14,
          "midi": 51,
          "name": "D#3",
          "ticks": 60672,
          "time": 89.431002,
          "velocity": 0.29133858267716534
        },
        {
          "duration": 0.0648563437500087,
          "durationTicks": 44,
          "midi": 51,
          "name": "D#3",
          "ticks": 60862,
          "time": 89.711063484375,
          "velocity": 0.5039370078740157
        },
        {
          "duration": 0.0854924531249992,
          "durationTicks": 58,
          "midi": 51,
          "name": "D#3",
          "ticks": 61056,
          "time": 89.997021,
          "velocity": 0.6456692913385826
        },
        {
          "duration": 0.053064281249987744,
          "durationTicks": 36,
          "midi": 51,
          "name": "D#3",
          "ticks": 61152,
          "time": 90.13852575000001,
          "velocity": 0.4094488188976378
        },
        {
          "duration": 0.06190832812499991,
          "durationTicks": 42,
          "midi": 51,
          "name": "D#3",
          "ticks": 61246,
          "time": 90.277082484375,
          "velocity": 0.6141732283464567
        },
        {
          "duration": 0.053064281250001955,
          "durationTicks": 36,
          "midi": 51,
          "name": "D#3",
          "ticks": 61440,
          "time": 90.56304,
          "velocity": 0.7165354330708661
        },
        {
          "duration": 0.05011626562502158,
          "durationTicks": 34,
          "midi": 51,
          "name": "D#3",
          "ticks": 61636,
          "time": 90.85194553125,
          "velocity": 0.3779527559055118
        },
        {
          "duration": 0.07075237499999787,
          "durationTicks": 48,
          "midi": 51,
          "name": "D#3",
          "ticks": 61828,
          "time": 91.13495503125,
          "velocity": 0.6456692913385826
        },
        {
          "duration": 0.05896031250000533,
          "durationTicks": 40,
          "midi": 51,
          "name": "D#3",
          "ticks": 62020,
          "time": 91.41796453125,
          "velocity": 0.6141732283464567
        },
        {
          "duration": 0.053064281250001955,
          "durationTicks": 36,
          "midi": 51,
          "name": "D#3",
          "ticks": 62208,
          "time": 91.69507800000001,
          "velocity": 0.29133858267716534
        },
        {
          "duration": 0.044220234375004,
          "durationTicks": 30,
          "midi": 51,
          "name": "D#3",
          "ticks": 62402,
          "time": 91.98103551562501,
          "velocity": 0.5039370078740157
        },
        {
          "duration": 0.053064281250001955,
          "durationTicks": 36,
          "midi": 51,
          "name": "D#3",
          "ticks": 62594,
          "time": 92.26404501562502,
          "velocity": 0.7165354330708661
        },
        {
          "duration": 0.053064281250001955,
          "durationTicks": 36,
          "midi": 51,
          "name": "D#3",
          "ticks": 62784,
          "time": 92.54410650000001,
          "velocity": 0.47244094488188976
        },
        {
          "duration": 0.0648563437499945,
          "durationTicks": 44,
          "midi": 51,
          "name": "D#3",
          "ticks": 62978,
          "time": 92.83006401562501,
          "velocity": 0.6456692913385826
        },
        {
          "duration": 0.03832420312498641,
          "durationTicks": 26,
          "midi": 51,
          "name": "D#3",
          "ticks": 63170,
          "time": 93.11307351562502,
          "velocity": 0.48031496062992124
        },
        {
          "duration": 0.06780435937498908,
          "durationTicks": 46,
          "midi": 51,
          "name": "D#3",
          "ticks": 63360,
          "time": 93.39313500000002,
          "velocity": 0.5905511811023622
        },
        {
          "duration": 0.07959642187499583,
          "durationTicks": 54,
          "midi": 51,
          "name": "D#3",
          "ticks": 63556,
          "time": 93.68204053125001,
          "velocity": 0.5669291338582677
        },
        {
          "duration": 0.020636109375004708,
          "durationTicks": 14,
          "midi": 51,
          "name": "D#3",
          "ticks": 63744,
          "time": 93.95915400000001,
          "velocity": 0.6614173228346457
        },
        {
          "duration": 0.0648563437499945,
          "durationTicks": 44,
          "midi": 51,
          "name": "D#3",
          "ticks": 63934,
          "time": 94.23921548437501,
          "velocity": 0.5039370078740157
        },
        {
          "duration": 0.0854924531249992,
          "durationTicks": 58,
          "midi": 51,
          "name": "D#3",
          "ticks": 64128,
          "time": 94.52517300000001,
          "velocity": 0.6456692913385826
        },
        {
          "duration": 0.06190832812499991,
          "durationTicks": 42,
          "midi": 51,
          "name": "D#3",
          "ticks": 64318,
          "time": 94.805234484375,
          "velocity": 0.5039370078740157
        },
        {
          "duration": 0.45989043750000747,
          "durationTicks": 312,
          "midi": 49,
          "name": "C#3",
          "ticks": 64512,
          "time": 95.091192,
          "velocity": 0.6299212598425197
        },
        {
          "duration": 0.05011626562500737,
          "durationTicks": 34,
          "midi": 51,
          "name": "D#3",
          "ticks": 64708,
          "time": 95.38009753125,
          "velocity": 0.3779527559055118
        },
        {
          "duration": 0.07075237499999787,
          "durationTicks": 48,
          "midi": 51,
          "name": "D#3",
          "ticks": 64900,
          "time": 95.66310703125001,
          "velocity": 0.6456692913385826
        },
        {
          "duration": 0.05896031250001954,
          "durationTicks": 40,
          "midi": 51,
          "name": "D#3",
          "ticks": 65092,
          "time": 95.94611653125,
          "velocity": 0.6141732283464567
        },
        {
          "duration": 0.053064281249987744,
          "durationTicks": 36,
          "midi": 51,
          "name": "D#3",
          "ticks": 65280,
          "time": 96.22323000000002,
          "velocity": 0.29133858267716534
        },
        {
          "duration": 0.044220234375004,
          "durationTicks": 30,
          "midi": 51,
          "name": "D#3",
          "ticks": 65474,
          "time": 96.50918751562502,
          "velocity": 0.5039370078740157
        },
        {
          "duration": 0.053064281250001955,
          "durationTicks": 36,
          "midi": 51,
          "name": "D#3",
          "ticks": 65666,
          "time": 96.792197015625,
          "velocity": 0.7165354330708661
        },
        {
          "duration": 0.053064281250001955,
          "durationTicks": 36,
          "midi": 51,
          "name": "D#3",
          "ticks": 65856,
          "time": 97.0722585,
          "velocity": 0.36220472440944884
        },
        {
          "duration": 0.053064281249987744,
          "durationTicks": 36,
          "midi": 51,
          "name": "D#3",
          "ticks": 65952,
          "time": 97.21376325000001,
          "velocity": 0.5039370078740157
        },
        {
          "duration": 0.06485634374998028,
          "durationTicks": 44,
          "midi": 51,
          "name": "D#3",
          "ticks": 66050,
          "time": 97.35821601562502,
          "velocity": 0.7086614173228346
        },
        {
          "duration": 0.03832420312498641,
          "durationTicks": 26,
          "midi": 51,
          "name": "D#3",
          "ticks": 66242,
          "time": 97.64122551562501,
          "velocity": 0.33858267716535434
        },
        {
          "duration": 0.06780435937500329,
          "durationTicks": 46,
          "midi": 51,
          "name": "D#3",
          "ticks": 66432,
          "time": 97.921287,
          "velocity": 0.6614173228346457
        },
        {
          "duration": 0.07959642187499583,
          "durationTicks": 54,
          "midi": 51,
          "name": "D#3",
          "ticks": 66628,
          "time": 98.21019253125,
          "velocity": 0.6377952755905512
        },
        {
          "duration": 0.020636109375004708,
          "durationTicks": 14,
          "midi": 51,
          "name": "D#3",
          "ticks": 66816,
          "time": 98.487306,
          "velocity": 0.29133858267716534
        },
        {
          "duration": 0.0648563437500087,
          "durationTicks": 44,
          "midi": 51,
          "name": "D#3",
          "ticks": 67006,
          "time": 98.767367484375,
          "velocity": 0.5039370078740157
        },
        {
          "duration": 0.08549245312498499,
          "durationTicks": 58,
          "midi": 51,
          "name": "D#3",
          "ticks": 67200,
          "time": 99.05332500000002,
          "velocity": 0.6456692913385826
        },
        {
          "duration": 0.06190832812499991,
          "durationTicks": 42,
          "midi": 51,
          "name": "D#3",
          "ticks": 67390,
          "time": 99.333386484375,
          "velocity": 0.5039370078740157
        },
        {
          "duration": 0.45989043749999325,
          "durationTicks": 312,
          "midi": 49,
          "name": "C#3",
          "ticks": 67584,
          "time": 99.61934400000001,
          "velocity": 0.6299212598425197
        },
        {
          "duration": 0.05011626562500737,
          "durationTicks": 34,
          "midi": 51,
          "name": "D#3",
          "ticks": 67780,
          "time": 99.90824953125001,
          "velocity": 0.3779527559055118
        },
        {
          "duration": 0.07075237499999787,
          "durationTicks": 48,
          "midi": 51,
          "name": "D#3",
          "ticks": 67972,
          "time": 100.19125903125,
          "velocity": 0.6456692913385826
        },
        {
          "duration": 0.05896031250000533,
          "durationTicks": 40,
          "midi": 51,
          "name": "D#3",
          "ticks": 68164,
          "time": 100.47426853125,
          "velocity": 0.6141732283464567
        },
        {
          "duration": 0.053064281250001955,
          "durationTicks": 36,
          "midi": 51,
          "name": "D#3",
          "ticks": 68352,
          "time": 100.751382,
          "velocity": 0.29133858267716534
        },
        {
          "duration": 0.044220234374989786,
          "durationTicks": 30,
          "midi": 51,
          "name": "D#3",
          "ticks": 68546,
          "time": 101.03733951562502,
          "velocity": 0.5039370078740157
        },
        {
          "duration": 0.053064281250001955,
          "durationTicks": 36,
          "midi": 51,
          "name": "D#3",
          "ticks": 68738,
          "time": 101.32034901562501,
          "velocity": 0.7165354330708661
        },
        {
          "duration": 0.053064281250001955,
          "durationTicks": 36,
          "midi": 51,
          "name": "D#3",
          "ticks": 68928,
          "time": 101.60041050000001,
          "velocity": 0.5039370078740157
        },
        {
          "duration": 0.45989043749999325,
          "durationTicks": 312,
          "midi": 49,
          "name": "C#3",
          "ticks": 69120,
          "time": 101.88342000000002,
          "velocity": 0.6692913385826772
        },
        {
          "duration": 0.06780435937498908,
          "durationTicks": 46,
          "midi": 57,
          "name": "A3",
          "ticks": 69504,
          "time": 102.44943900000001,
          "velocity": 0.5905511811023622
        },
        {
          "duration": 0.45989043750000747,
          "durationTicks": 312,
          "midi": 49,
          "name": "C#3",
          "ticks": 70656,
          "time": 104.147496,
          "velocity": 0.6299212598425197
        },
        {
          "duration": 0.05011626562502158,
          "durationTicks": 34,
          "midi": 51,
          "name": "D#3",
          "ticks": 70852,
          "time": 104.43640153125,
          "velocity": 0.3779527559055118
        },
        {
          "duration": 0.07075237499999787,
          "durationTicks": 48,
          "midi": 51,
          "name": "D#3",
          "ticks": 71044,
          "time": 104.71941103125,
          "velocity": 0.6456692913385826
        },
        {
          "duration": 0.05896031250000533,
          "durationTicks": 40,
          "midi": 51,
          "name": "D#3",
          "ticks": 71236,
          "time": 105.00242053125001,
          "velocity": 0.6141732283464567
        },
        {
          "duration": 0.053064281250001955,
          "durationTicks": 36,
          "midi": 51,
          "name": "D#3",
          "ticks": 71424,
          "time": 105.27953400000001,
          "velocity": 0.29133858267716534
        },
        {
          "duration": 0.044220234375004,
          "durationTicks": 30,
          "midi": 51,
          "name": "D#3",
          "ticks": 71618,
          "time": 105.56549151562501,
          "velocity": 0.5039370078740157
        },
        {
          "duration": 0.053064281250001955,
          "durationTicks": 36,
          "midi": 51,
          "name": "D#3",
          "ticks": 71810,
          "time": 105.84850101562502,
          "velocity": 0.7165354330708661
        },
        {
          "duration": 0.053064281249987744,
          "durationTicks": 36,
          "midi": 51,
          "name": "D#3",
          "ticks": 72000,
          "time": 106.12856250000002,
          "velocity": 0.33858267716535434
        },
        {
          "duration": 0.053064281250001955,
          "durationTicks": 36,
          "midi": 51,
          "name": "D#3",
          "ticks": 72096,
          "time": 106.27006725000001,
          "velocity": 0.4566929133858268
        },
        {
          "duration": 0.0648563437499945,
          "durationTicks": 44,
          "midi": 51,
          "name": "D#3",
          "ticks": 72194,
          "time": 106.41452001562502,
          "velocity": 0.6456692913385826
        },
        {
          "duration": 0.03832420312498641,
          "durationTicks": 26,
          "midi": 51,
          "name": "D#3",
          "ticks": 72386,
          "time": 106.69752951562502,
          "velocity": 0.33858267716535434
        },
        {
          "duration": 0.06780435937500329,
          "durationTicks": 46,
          "midi": 51,
          "name": "D#3",
          "ticks": 72576,
          "time": 106.977591,
          "velocity": 0.6614173228346457
        },
        {
          "duration": 0.07959642187501004,
          "durationTicks": 54,
          "midi": 51,
          "name": "D#3",
          "ticks": 72772,
          "time": 107.26649653125,
          "velocity": 0.6377952755905512
        },
        {
          "duration": 0.020636109375004708,
          "durationTicks": 14,
          "midi": 51,
          "name": "D#3",
          "ticks": 72960,
          "time": 107.54361000000002,
          "velocity": 0.29133858267716534
        },
        {
          "duration": 0.0648563437500087,
          "durationTicks": 44,
          "midi": 51,
          "name": "D#3",
          "ticks": 73150,
          "time": 107.823671484375,
          "velocity": 0.5039370078740157
        },
        {
          "duration": 0.08549245312498499,
          "durationTicks": 58,
          "midi": 51,
          "name": "D#3",
          "ticks": 73344,
          "time": 108.10962900000001,
          "velocity": 0.6456692913385826
        },
        {
          "duration": 0.06190832812499991,
          "durationTicks": 42,
          "midi": 51,
          "name": "D#3",
          "ticks": 73534,
          "time": 108.38969048437501,
          "velocity": 0.5039370078740157
        },
        {
          "duration": 0.053064281250001955,
          "durationTicks": 36,
          "midi": 51,
          "name": "D#3",
          "ticks": 73728,
          "time": 108.67564800000001,
          "velocity": 0.7165354330708661
        },
        {
          "duration": 0.05011626562500737,
          "durationTicks": 34,
          "midi": 51,
          "name": "D#3",
          "ticks": 73924,
          "time": 108.96455353125,
          "velocity": 0.3779527559055118
        },
        {
          "duration": 0.07075237499999787,
          "durationTicks": 48,
          "midi": 51,
          "name": "D#3",
          "ticks": 74116,
          "time": 109.24756303125001,
          "velocity": 0.6456692913385826
        },
        {
          "duration": 0.05896031250001954,
          "durationTicks": 40,
          "midi": 51,
          "name": "D#3",
          "ticks": 74308,
          "time": 109.53057253125,
          "velocity": 0.6141732283464567
        },
        {
          "duration": 0.053064281250001955,
          "durationTicks": 36,
          "midi": 51,
          "name": "D#3",
          "ticks": 74496,
          "time": 109.807686,
          "velocity": 0.29133858267716534
        },
        {
          "duration": 0.044220234374989786,
          "durationTicks": 30,
          "midi": 51,
          "name": "D#3",
          "ticks": 74690,
          "time": 110.09364351562502,
          "velocity": 0.5039370078740157
        },
        {
          "duration": 0.053064281250001955,
          "durationTicks": 36,
          "midi": 51,
          "name": "D#3",
          "ticks": 74882,
          "time": 110.37665301562501,
          "velocity": 0.7165354330708661
        },
        {
          "duration": 0.053064281250001955,
          "durationTicks": 36,
          "midi": 51,
          "name": "D#3",
          "ticks": 75072,
          "time": 110.6567145,
          "velocity": 0.29133858267716534
        },
        {
          "duration": 0.053064281249987744,
          "durationTicks": 36,
          "midi": 51,
          "name": "D#3",
          "ticks": 75168,
          "time": 110.79821925000002,
          "velocity": 0.4566929133858268
        },
        {
          "duration": 0.06485634374998028,
          "durationTicks": 44,
          "midi": 51,
          "name": "D#3",
          "ticks": 75266,
          "time": 110.94267201562502,
          "velocity": 0.6456692913385826
        },
        {
          "duration": 0.03832420312498641,
          "durationTicks": 26,
          "midi": 51,
          "name": "D#3",
          "ticks": 75458,
          "time": 111.22568151562501,
          "velocity": 0.48031496062992124
        },
        {
          "duration": 0.06780435937498908,
          "durationTicks": 46,
          "midi": 51,
          "name": "D#3",
          "ticks": 75648,
          "time": 111.50574300000001,
          "velocity": 0.5905511811023622
        },
        {
          "duration": 0.07959642187499583,
          "durationTicks": 54,
          "midi": 51,
          "name": "D#3",
          "ticks": 75844,
          "time": 111.79464853125,
          "velocity": 0.5669291338582677
        },
        {
          "duration": 0.020636109375004708,
          "durationTicks": 14,
          "midi": 51,
          "name": "D#3",
          "ticks": 76032,
          "time": 112.071762,
          "velocity": 0.6614173228346457
        },
        {
          "duration": 0.0648563437500087,
          "durationTicks": 44,
          "midi": 51,
          "name": "D#3",
          "ticks": 76222,
          "time": 112.351823484375,
          "velocity": 0.5039370078740157
        },
        {
          "duration": 0.0854924531249992,
          "durationTicks": 58,
          "midi": 51,
          "name": "D#3",
          "ticks": 76416,
          "time": 112.637781,
          "velocity": 0.6456692913385826
        },
        {
          "duration": 0.06190832812499991,
          "durationTicks": 42,
          "midi": 51,
          "name": "D#3",
          "ticks": 76606,
          "time": 112.917842484375,
          "velocity": 0.5039370078740157
        },
        {
          "duration": 0.45989043749999325,
          "durationTicks": 312,
          "midi": 49,
          "name": "C#3",
          "ticks": 76800,
          "time": 113.20380000000002,
          "velocity": 0.6299212598425197
        },
        {
          "duration": 0.05011626562500737,
          "durationTicks": 34,
          "midi": 51,
          "name": "D#3",
          "ticks": 76996,
          "time": 113.49270553125001,
          "velocity": 0.3779527559055118
        },
        {
          "duration": 0.07075237499999787,
          "durationTicks": 48,
          "midi": 51,
          "name": "D#3",
          "ticks": 77188,
          "time": 113.77571503125,
          "velocity": 0.6456692913385826
        },
        {
          "duration": 0.05896031250000533,
          "durationTicks": 40,
          "midi": 51,
          "name": "D#3",
          "ticks": 77380,
          "time": 114.05872453125001,
          "velocity": 0.6141732283464567
        },
        {
          "duration": 0.053064281250001955,
          "durationTicks": 36,
          "midi": 51,
          "name": "D#3",
          "ticks": 77568,
          "time": 114.33583800000001,
          "velocity": 0.29133858267716534
        },
        {
          "duration": 0.044220234375004,
          "durationTicks": 30,
          "midi": 51,
          "name": "D#3",
          "ticks": 77762,
          "time": 114.62179551562501,
          "velocity": 0.5039370078740157
        },
        {
          "duration": 0.053064281250001955,
          "durationTicks": 36,
          "midi": 51,
          "name": "D#3",
          "ticks": 77954,
          "time": 114.90480501562502,
          "velocity": 0.7165354330708661
        },
        {
          "duration": 0.053064281250001955,
          "durationTicks": 36,
          "midi": 51,
          "name": "D#3",
          "ticks": 78144,
          "time": 115.18486650000001,
          "velocity": 0.33858267716535434
        },
        {
          "duration": 0.053064281250001955,
          "durationTicks": 36,
          "midi": 51,
          "name": "D#3",
          "ticks": 78240,
          "time": 115.32637125000001,
          "velocity": 0.4566929133858268
        },
        {
          "duration": 0.0648563437499945,
          "durationTicks": 44,
          "midi": 51,
          "name": "D#3",
          "ticks": 78338,
          "time": 115.47082401562501,
          "velocity": 0.6456692913385826
        },
        {
          "duration": 0.03832420312498641,
          "durationTicks": 26,
          "midi": 51,
          "name": "D#3",
          "ticks": 78530,
          "time": 115.75383351562502,
          "velocity": 0.33858267716535434
        },
        {
          "duration": 0.06780435937498908,
          "durationTicks": 46,
          "midi": 51,
          "name": "D#3",
          "ticks": 78720,
          "time": 116.03389500000002,
          "velocity": 0.6614173228346457
        },
        {
          "duration": 0.07959642187499583,
          "durationTicks": 54,
          "midi": 51,
          "name": "D#3",
          "ticks": 78916,
          "time": 116.32280053125001,
          "velocity": 0.6377952755905512
        },
        {
          "duration": 0.020636109375004708,
          "durationTicks": 14,
          "midi": 51,
          "name": "D#3",
          "ticks": 79104,
          "time": 116.59991400000001,
          "velocity": 0.29133858267716534
        },
        {
          "duration": 0.0648563437499945,
          "durationTicks": 44,
          "midi": 51,
          "name": "D#3",
          "ticks": 79294,
          "time": 116.87997548437501,
          "velocity": 0.5039370078740157
        },
        {
          "duration": 0.0854924531249992,
          "durationTicks": 58,
          "midi": 51,
          "name": "D#3",
          "ticks": 79488,
          "time": 117.16593300000001,
          "velocity": 0.6456692913385826
        },
        {
          "duration": 0.0648563437500087,
          "durationTicks": 44,
          "midi": 51,
          "name": "D#3",
          "ticks": 79584,
          "time": 117.30743775,
          "velocity": 0.33858267716535434
        },
        {
          "duration": 0.06190832812499991,
          "durationTicks": 42,
          "midi": 51,
          "name": "D#3",
          "ticks": 79678,
          "time": 117.445994484375,
          "velocity": 0.5433070866141733
        },
        {
          "duration": 0.053064281250001955,
          "durationTicks": 36,
          "midi": 51,
          "name": "D#3",
          "ticks": 79872,
          "time": 117.731952,
          "velocity": 0.7165354330708661
        },
        {
          "duration": 0.05011626562500737,
          "durationTicks": 34,
          "midi": 51,
          "name": "D#3",
          "ticks": 80068,
          "time": 118.02085753125,
          "velocity": 0.3779527559055118
        },
        {
          "duration": 0.07075237499999787,
          "durationTicks": 48,
          "midi": 51,
          "name": "D#3",
          "ticks": 80260,
          "time": 118.30386703125001,
          "velocity": 0.6456692913385826
        },
        {
          "duration": 0.05896031250001954,
          "durationTicks": 40,
          "midi": 51,
          "name": "D#3",
          "ticks": 80452,
          "time": 118.58687653125,
          "velocity": 0.6141732283464567
        },
        {
          "duration": 0.053064281250001955,
          "durationTicks": 36,
          "midi": 51,
          "name": "D#3",
          "ticks": 80640,
          "time": 118.86399000000002,
          "velocity": 0.29133858267716534
        },
        {
          "duration": 0.044220234375004,
          "durationTicks": 30,
          "midi": 51,
          "name": "D#3",
          "ticks": 80834,
          "time": 119.14994751562502,
          "velocity": 0.5039370078740157
        },
        {
          "duration": 0.053064281249987744,
          "durationTicks": 36,
          "midi": 51,
          "name": "D#3",
          "ticks": 81026,
          "time": 119.43295701562502,
          "velocity": 0.7165354330708661
        },
        {
          "duration": 0.053064281250001955,
          "durationTicks": 36,
          "midi": 51,
          "name": "D#3",
          "ticks": 81216,
          "time": 119.7130185,
          "velocity": 0.29133858267716534
        },
        {
          "duration": 0.053064281250001955,
          "durationTicks": 36,
          "midi": 51,
          "name": "D#3",
          "ticks": 81312,
          "time": 119.85452325000001,
          "velocity": 0.4566929133858268
        },
        {
          "duration": 0.06485634374998028,
          "durationTicks": 44,
          "midi": 51,
          "name": "D#3",
          "ticks": 81410,
          "time": 119.99897601562502,
          "velocity": 0.6456692913385826
        },
        {
          "duration": 0.03832420312500062,
          "durationTicks": 26,
          "midi": 51,
          "name": "D#3",
          "ticks": 81602,
          "time": 120.28198551562501,
          "velocity": 0.48031496062992124
        },
        {
          "duration": 0.06780435937500329,
          "durationTicks": 46,
          "midi": 51,
          "name": "D#3",
          "ticks": 81792,
          "time": 120.562047,
          "velocity": 0.5905511811023622
        },
        {
          "duration": 0.07959642187501004,
          "durationTicks": 54,
          "midi": 51,
          "name": "D#3",
          "ticks": 81988,
          "time": 120.85095253125,
          "velocity": 0.5669291338582677
        },
        {
          "duration": 0.02063610937501892,
          "durationTicks": 14,
          "midi": 51,
          "name": "D#3",
          "ticks": 82176,
          "time": 121.128066,
          "velocity": 0.6614173228346457
        },
        {
          "duration": 0.0648563437500087,
          "durationTicks": 44,
          "midi": 51,
          "name": "D#3",
          "ticks": 82366,
          "time": 121.408127484375,
          "velocity": 0.5039370078740157
        },
        {
          "duration": 0.08549245312498499,
          "durationTicks": 58,
          "midi": 51,
          "name": "D#3",
          "ticks": 82560,
          "time": 121.69408500000002,
          "velocity": 0.6456692913385826
        },
        {
          "duration": 0.06190832812499991,
          "durationTicks": 42,
          "midi": 51,
          "name": "D#3",
          "ticks": 82750,
          "time": 121.97414648437501,
          "velocity": 0.5039370078740157
        },
        {
          "duration": 0.45989043749999325,
          "durationTicks": 312,
          "midi": 49,
          "name": "C#3",
          "ticks": 82944,
          "time": 122.26010400000001,
          "velocity": 0.6299212598425197
        },
        {
          "duration": 0.05011626562500737,
          "durationTicks": 34,
          "midi": 51,
          "name": "D#3",
          "ticks": 83140,
          "time": 122.54900953125001,
          "velocity": 0.3779527559055118
        },
        {
          "duration": 0.07075237500001208,
          "durationTicks": 48,
          "midi": 51,
          "name": "D#3",
          "ticks": 83332,
          "time": 122.83201903125,
          "velocity": 0.6456692913385826
        },
        {
          "duration": 0.05896031250000533,
          "durationTicks": 40,
          "midi": 51,
          "name": "D#3",
          "ticks": 83524,
          "time": 123.11502853125,
          "velocity": 0.6141732283464567
        },
        {
          "duration": 0.053064281250001955,
          "durationTicks": 36,
          "midi": 51,
          "name": "D#3",
          "ticks": 83712,
          "time": 123.392142,
          "velocity": 0.29133858267716534
        },
        {
          "duration": 0.044220234374989786,
          "durationTicks": 30,
          "midi": 51,
          "name": "D#3",
          "ticks": 83906,
          "time": 123.67809951562502,
          "velocity": 0.5039370078740157
        },
        {
          "duration": 0.053064281250001955,
          "durationTicks": 36,
          "midi": 51,
          "name": "D#3",
          "ticks": 84098,
          "time": 123.96110901562501,
          "velocity": 0.7165354330708661
        },
        {
          "duration": 0.053064281250001955,
          "durationTicks": 36,
          "midi": 51,
          "name": "D#3",
          "ticks": 84288,
          "time": 124.24117050000001,
          "velocity": 0.33858267716535434
        },
        {
          "duration": 0.053064281250001955,
          "durationTicks": 36,
          "midi": 51,
          "name": "D#3",
          "ticks": 84384,
          "time": 124.38267525,
          "velocity": 0.4566929133858268
        },
        {
          "duration": 0.0648563437499945,
          "durationTicks": 44,
          "midi": 51,
          "name": "D#3",
          "ticks": 84482,
          "time": 124.52712801562501,
          "velocity": 0.6456692913385826
        },
        {
          "duration": 0.03832420312498641,
          "durationTicks": 26,
          "midi": 51,
          "name": "D#3",
          "ticks": 84674,
          "time": 124.81013751562502,
          "velocity": 0.33858267716535434
        },
        {
          "duration": 0.06780435937498908,
          "durationTicks": 46,
          "midi": 51,
          "name": "D#3",
          "ticks": 84864,
          "time": 125.09019900000001,
          "velocity": 0.6614173228346457
        },
        {
          "duration": 0.07959642187499583,
          "durationTicks": 54,
          "midi": 51,
          "name": "D#3",
          "ticks": 85060,
          "time": 125.37910453125001,
          "velocity": 0.6377952755905512
        },
        {
          "duration": 0.020636109375004708,
          "durationTicks": 14,
          "midi": 51,
          "name": "D#3",
          "ticks": 85248,
          "time": 125.65621800000001,
          "velocity": 0.29133858267716534
        },
        {
          "duration": 0.0648563437500087,
          "durationTicks": 44,
          "midi": 51,
          "name": "D#3",
          "ticks": 85438,
          "time": 125.936279484375,
          "velocity": 0.5039370078740157
        },
        {
          "duration": 0.0854924531249992,
          "durationTicks": 58,
          "midi": 51,
          "name": "D#3",
          "ticks": 85632,
          "time": 126.222237,
          "velocity": 0.6456692913385826
        },
        {
          "duration": 0.06190832812499991,
          "durationTicks": 42,
          "midi": 51,
          "name": "D#3",
          "ticks": 85822,
          "time": 126.502298484375,
          "velocity": 0.5433070866141733
        },
        {
          "duration": 0.053064281249987744,
          "durationTicks": 36,
          "midi": 51,
          "name": "D#3",
          "ticks": 86016,
          "time": 126.78825600000002,
          "velocity": 0.7165354330708661
        },
        {
          "duration": 0.05011626562502158,
          "durationTicks": 34,
          "midi": 51,
          "name": "D#3",
          "ticks": 86212,
          "time": 127.07716153125,
          "velocity": 0.3779527559055118
        },
        {
          "duration": 0.07075237499999787,
          "durationTicks": 48,
          "midi": 51,
          "name": "D#3",
          "ticks": 86404,
          "time": 127.36017103125,
          "velocity": 0.6456692913385826
        },
        {
          "duration": 0.05896031250000533,
          "durationTicks": 40,
          "midi": 51,
          "name": "D#3",
          "ticks": 86596,
          "time": 127.64318053125001,
          "velocity": 0.6141732283464567
        },
        {
          "duration": 0.053064281250001955,
          "durationTicks": 36,
          "midi": 51,
          "name": "D#3",
          "ticks": 86784,
          "time": 127.92029400000001,
          "velocity": 0.29133858267716534
        },
        {
          "duration": 0.044220234374989786,
          "durationTicks": 30,
          "midi": 51,
          "name": "D#3",
          "ticks": 86978,
          "time": 128.206251515625,
          "velocity": 0.5039370078740157
        },
        {
          "duration": 0.053064281250016165,
          "durationTicks": 36,
          "midi": 51,
          "name": "D#3",
          "ticks": 87170,
          "time": 128.489261015625,
          "velocity": 0.7165354330708661
        },
        {
          "duration": 0.053064281249987744,
          "durationTicks": 36,
          "midi": 51,
          "name": "D#3",
          "ticks": 87360,
          "time": 128.76932250000002,
          "velocity": 0.29133858267716534
        },
        {
          "duration": 0.053064281249987744,
          "durationTicks": 36,
          "midi": 51,
          "name": "D#3",
          "ticks": 87456,
          "time": 128.91082725,
          "velocity": 0.4566929133858268
        },
        {
          "duration": 0.0648563437499945,
          "durationTicks": 44,
          "midi": 51,
          "name": "D#3",
          "ticks": 87554,
          "time": 129.05528001562502,
          "velocity": 0.6456692913385826
        },
        {
          "duration": 0.03832420312500062,
          "durationTicks": 26,
          "midi": 51,
          "name": "D#3",
          "ticks": 87746,
          "time": 129.338289515625,
          "velocity": 0.48031496062992124
        },
        {
          "duration": 0.06780435937497487,
          "durationTicks": 46,
          "midi": 51,
          "name": "D#3",
          "ticks": 87936,
          "time": 129.61835100000002,
          "velocity": 0.5905511811023622
        },
        {
          "duration": 0.07959642187501004,
          "durationTicks": 54,
          "midi": 51,
          "name": "D#3",
          "ticks": 88132,
          "time": 129.90725653125,
          "velocity": 0.5669291338582677
        },
        {
          "duration": 0.020636109375004708,
          "durationTicks": 14,
          "midi": 51,
          "name": "D#3",
          "ticks": 88320,
          "time": 130.18437,
          "velocity": 0.6614173228346457
        },
        {
          "duration": 0.0648563437499945,
          "durationTicks": 44,
          "midi": 51,
          "name": "D#3",
          "ticks": 88510,
          "time": 130.464431484375,
          "velocity": 0.5039370078740157
        },
        {
          "duration": 0.0854924531249992,
          "durationTicks": 58,
          "midi": 51,
          "name": "D#3",
          "ticks": 88704,
          "time": 130.750389,
          "velocity": 0.6456692913385826
        },
        {
          "duration": 0.06190832812501412,
          "durationTicks": 42,
          "midi": 51,
          "name": "D#3",
          "ticks": 88894,
          "time": 131.030450484375,
          "velocity": 0.5039370078740157
        },
        {
          "duration": 0.06190832812501412,
          "durationTicks": 42,
          "midi": 51,
          "name": "D#3",
          "ticks": 88992,
          "time": 131.17490325,
          "velocity": 0.3858267716535433
        },
        {
          "duration": 0.053064281249987744,
          "durationTicks": 36,
          "midi": 51,
          "name": "D#3",
          "ticks": 89088,
          "time": 131.31640800000002,
          "velocity": 0.7165354330708661
        },
        {
          "duration": 0.05011626562500737,
          "durationTicks": 34,
          "midi": 51,
          "name": "D#3",
          "ticks": 89284,
          "time": 131.60531353125,
          "velocity": 0.3779527559055118
        },
        {
          "duration": 0.07075237500001208,
          "durationTicks": 48,
          "midi": 51,
          "name": "D#3",
          "ticks": 89476,
          "time": 131.88832303125,
          "velocity": 0.6456692913385826
        },
        {
          "duration": 0.05896031250000533,
          "durationTicks": 40,
          "midi": 51,
          "name": "D#3",
          "ticks": 89668,
          "time": 132.17133253125002,
          "velocity": 0.6141732283464567
        },
        {
          "duration": 0.053064281249987744,
          "durationTicks": 36,
          "midi": 51,
          "name": "D#3",
          "ticks": 89856,
          "time": 132.44844600000002,
          "velocity": 0.29133858267716534
        },
        {
          "duration": 0.044220234374989786,
          "durationTicks": 30,
          "midi": 51,
          "name": "D#3",
          "ticks": 90050,
          "time": 132.73440351562502,
          "velocity": 0.5039370078740157
        },
        {
          "duration": 0.053064281250016165,
          "durationTicks": 36,
          "midi": 51,
          "name": "D#3",
          "ticks": 90242,
          "time": 133.017413015625,
          "velocity": 0.7165354330708661
        },
        {
          "duration": 0.053064281249987744,
          "durationTicks": 36,
          "midi": 51,
          "name": "D#3",
          "ticks": 90336,
          "time": 133.15596975000003,
          "velocity": 0.33858267716535434
        },
        {
          "duration": 0.053064281249987744,
          "durationTicks": 36,
          "midi": 51,
          "name": "D#3",
          "ticks": 90432,
          "time": 133.29747450000002,
          "velocity": 0.5905511811023622
        },
        {
          "duration": 0.0648563437499945,
          "durationTicks": 44,
          "midi": 51,
          "name": "D#3",
          "ticks": 90626,
          "time": 133.58343201562502,
          "velocity": 0.6614173228346457
        },
        {
          "duration": 0.03832420312500062,
          "durationTicks": 26,
          "midi": 51,
          "name": "D#3",
          "ticks": 90720,
          "time": 133.72198875,
          "velocity": 0.4566929133858268
        },
        {
          "duration": 0.03832420312500062,
          "durationTicks": 26,
          "midi": 51,
          "name": "D#3",
          "ticks": 90816,
          "time": 133.8634935,
          "velocity": 0.6141732283464567
        },
        {
          "duration": 0.06780435937497487,
          "durationTicks": 46,
          "midi": 51,
          "name": "D#3",
          "ticks": 91008,
          "time": 134.14650300000002,
          "velocity": 0.6614173228346457
        },
        {
          "duration": 0.07959642187501004,
          "durationTicks": 54,
          "midi": 51,
          "name": "D#3",
          "ticks": 91204,
          "time": 134.43540853125,
          "velocity": 0.6377952755905512
        },
        {
          "duration": 0.020636109375004708,
          "durationTicks": 14,
          "midi": 51,
          "name": "D#3",
          "ticks": 91392,
          "time": 134.712522,
          "velocity": 0.29133858267716534
        },
        {
          "duration": 0.0648563437499945,
          "durationTicks": 44,
          "midi": 51,
          "name": "D#3",
          "ticks": 91582,
          "time": 134.99258348437502,
          "velocity": 0.5039370078740157
        },
        {
          "duration": 0.0854924531249992,
          "durationTicks": 58,
          "midi": 51,
          "name": "D#3",
          "ticks": 91776,
          "time": 135.27854100000002,
          "velocity": 0.6456692913385826
        },
        {
          "duration": 0.0648563437499945,
          "durationTicks": 44,
          "midi": 51,
          "name": "D#3",
          "ticks": 91968,
          "time": 135.5615505,
          "velocity": 0.33858267716535434
        },
        {
          "duration": 0.06190832812501412,
          "durationTicks": 42,
          "midi": 51,
          "name": "D#3",
          "ticks": 92064,
          "time": 135.70305525,
          "velocity": 0.5433070866141733
        },
        {
          "duration": 0.053064281250016165,
          "durationTicks": 36,
          "midi": 51,
          "name": "D#3",
          "ticks": 92160,
          "time": 135.84456,
          "velocity": 0.7165354330708661
        },
        {
          "duration": 0.05011626562500737,
          "durationTicks": 34,
          "midi": 51,
          "name": "D#3",
          "ticks": 92356,
          "time": 136.13346553125,
          "velocity": 0.3779527559055118
        },
        {
          "duration": 0.07075237500001208,
          "durationTicks": 48,
          "midi": 51,
          "name": "D#3",
          "ticks": 92548,
          "time": 136.41647503125,
          "velocity": 0.6456692913385826
        },
        {
          "duration": 0.05896031250003375,
          "durationTicks": 40,
          "midi": 51,
          "name": "D#3",
          "ticks": 92740,
          "time": 136.69948453125,
          "velocity": 0.6141732283464567
        },
        {
          "duration": 0.053064281249987744,
          "durationTicks": 36,
          "midi": 51,
          "name": "D#3",
          "ticks": 92928,
          "time": 136.97659800000002,
          "velocity": 0.29133858267716534
        },
        {
          "duration": 0.044220234374989786,
          "durationTicks": 30,
          "midi": 51,
          "name": "D#3",
          "ticks": 93122,
          "time": 137.26255551562502,
          "velocity": 0.5039370078740157
        },
        {
          "duration": 0.053064281249987744,
          "durationTicks": 36,
          "midi": 51,
          "name": "D#3",
          "ticks": 93314,
          "time": 137.54556501562502,
          "velocity": 0.7165354330708661
        },
        {
          "duration": 0.053064281250016165,
          "durationTicks": 36,
          "midi": 51,
          "name": "D#3",
          "ticks": 93504,
          "time": 137.8256265,
          "velocity": 0.29133858267716534
        },
        {
          "duration": 0.053064281249987744,
          "durationTicks": 36,
          "midi": 51,
          "name": "D#3",
          "ticks": 93600,
          "time": 137.96713125000002,
          "velocity": 0.4566929133858268
        },
        {
          "duration": 0.06485634374996607,
          "durationTicks": 44,
          "midi": 51,
          "name": "D#3",
          "ticks": 93698,
          "time": 138.11158401562503,
          "velocity": 0.6456692913385826
        },
        {
          "duration": 0.03832420312500062,
          "durationTicks": 26,
          "midi": 51,
          "name": "D#3",
          "ticks": 93890,
          "time": 138.39459351562502,
          "velocity": 0.48031496062992124
        },
        {
          "duration": 0.06780435937500329,
          "durationTicks": 46,
          "midi": 51,
          "name": "D#3",
          "ticks": 94080,
          "time": 138.674655,
          "velocity": 0.5905511811023622
        },
        {
          "duration": 0.07959642187501004,
          "durationTicks": 54,
          "midi": 51,
          "name": "D#3",
          "ticks": 94276,
          "time": 138.96356053125,
          "velocity": 0.5669291338582677
        },
        {
          "duration": 0.020636109375004708,
          "durationTicks": 14,
          "midi": 51,
          "name": "D#3",
          "ticks": 94464,
          "time": 139.240674,
          "velocity": 0.6614173228346457
        },
        {
          "duration": 0.06485634375002292,
          "durationTicks": 44,
          "midi": 51,
          "name": "D#3",
          "ticks": 94654,
          "time": 139.520735484375,
          "velocity": 0.5039370078740157
        },
        {
          "duration": 0.08549245312497078,
          "durationTicks": 58,
          "midi": 51,
          "name": "D#3",
          "ticks": 94848,
          "time": 139.80669300000002,
          "velocity": 0.6456692913385826
        },
        {
          "duration": 0.06190832812501412,
          "durationTicks": 42,
          "midi": 51,
          "name": "D#3",
          "ticks": 95038,
          "time": 140.086754484375,
          "velocity": 0.5039370078740157
        },
        {
          "duration": 0.45989043750000747,
          "durationTicks": 312,
          "midi": 49,
          "name": "C#3",
          "ticks": 95232,
          "time": 140.372712,
          "velocity": 0.6299212598425197
        },
        {
          "duration": 0.05011626562500737,
          "durationTicks": 34,
          "midi": 51,
          "name": "D#3",
          "ticks": 95428,
          "time": 140.66161753125002,
          "velocity": 0.3779527559055118
        },
        {
          "duration": 0.07075237500001208,
          "durationTicks": 48,
          "midi": 51,
          "name": "D#3",
          "ticks": 95620,
          "time": 140.94462703125,
          "velocity": 0.6456692913385826
        },
        {
          "duration": 0.05896031250000533,
          "durationTicks": 40,
          "midi": 57,
          "name": "A3",
          "ticks": 95812,
          "time": 141.22763653125,
          "velocity": 0.6141732283464567
        },
        {
          "duration": 0.053064281250016165,
          "durationTicks": 36,
          "midi": 51,
          "name": "D#3",
          "ticks": 96000,
          "time": 141.50475,
          "velocity": 0.29133858267716534
        },
        {
          "duration": 0.044220234374989786,
          "durationTicks": 30,
          "midi": 51,
          "name": "D#3",
          "ticks": 96194,
          "time": 141.79070751562503,
          "velocity": 0.5039370078740157
        },
        {
          "duration": 0.053064281249987744,
          "durationTicks": 36,
          "midi": 51,
          "name": "D#3",
          "ticks": 96386,
          "time": 142.07371701562502,
          "velocity": 0.7165354330708661
        },
        {
          "duration": 0.053064281250016165,
          "durationTicks": 36,
          "midi": 51,
          "name": "D#3",
          "ticks": 96576,
          "time": 142.3537785,
          "velocity": 0.33858267716535434
        },
        {
          "duration": 0.053064281250016165,
          "durationTicks": 36,
          "midi": 51,
          "name": "D#3",
          "ticks": 96672,
          "time": 142.49528325,
          "velocity": 0.4566929133858268
        },
        {
          "duration": 0.0648563437499945,
          "durationTicks": 44,
          "midi": 51,
          "name": "D#3",
          "ticks": 96770,
          "time": 142.639736015625,
          "velocity": 0.6456692913385826
        },
        {
          "duration": 0.0383242031249722,
          "durationTicks": 26,
          "midi": 51,
          "name": "D#3",
          "ticks": 96962,
          "time": 142.92274551562502,
          "velocity": 0.33858267716535434
        },
        {
          "duration": 0.06780435937500329,
          "durationTicks": 46,
          "midi": 51,
          "name": "D#3",
          "ticks": 97152,
          "time": 143.202807,
          "velocity": 0.6614173228346457
        },
        {
          "duration": 0.07959642187498162,
          "durationTicks": 54,
          "midi": 51,
          "name": "D#3",
          "ticks": 97348,
          "time": 143.49171253125002,
          "velocity": 0.6377952755905512
        },
        {
          "duration": 0.020636109375004708,
          "durationTicks": 14,
          "midi": 51,
          "name": "D#3",
          "ticks": 97536,
          "time": 143.76882600000002,
          "velocity": 0.29133858267716534
        },
        {
          "duration": 0.06485634375002292,
          "durationTicks": 44,
          "midi": 51,
          "name": "D#3",
          "ticks": 97726,
          "time": 144.048887484375,
          "velocity": 0.5039370078740157
        },
        {
          "duration": 0.0854924531249992,
          "durationTicks": 58,
          "midi": 51,
          "name": "D#3",
          "ticks": 97920,
          "time": 144.334845,
          "velocity": 0.6456692913385826
        },
        {
          "duration": 0.0619083281249857,
          "durationTicks": 42,
          "midi": 51,
          "name": "D#3",
          "ticks": 98110,
          "time": 144.614906484375,
          "velocity": 0.5433070866141733
        },
        {
          "duration": 0.053064281249987744,
          "durationTicks": 36,
          "midi": 49,
          "name": "C#3",
          "ticks": 98304,
          "time": 144.900864,
          "velocity": 0.6299212598425197
        },
        {
          "duration": 0.05011626562497895,
          "durationTicks": 34,
          "midi": 51,
          "name": "D#3",
          "ticks": 98500,
          "time": 145.18976953125002,
          "velocity": 0.3779527559055118
        },
        {
          "duration": 0.07075237500001208,
          "durationTicks": 48,
          "midi": 51,
          "name": "D#3",
          "ticks": 98692,
          "time": 145.47277903125,
          "velocity": 0.6456692913385826
        },
        {
          "duration": 0.05896031249997691,
          "durationTicks": 40,
          "midi": 57,
          "name": "A3",
          "ticks": 98884,
          "time": 145.75578853125003,
          "velocity": 0.6141732283464567
        },
        {
          "duration": 0.053064281250016165,
          "durationTicks": 36,
          "midi": 51,
          "name": "D#3",
          "ticks": 99072,
          "time": 146.032902,
          "velocity": 0.29133858267716534
        },
        {
          "duration": 0.044220234374989786,
          "durationTicks": 30,
          "midi": 51,
          "name": "D#3",
          "ticks": 99266,
          "time": 146.318859515625,
          "velocity": 0.5039370078740157
        },
        {
          "duration": 0.053064281250016165,
          "durationTicks": 36,
          "midi": 51,
          "name": "D#3",
          "ticks": 99458,
          "time": 146.601869015625,
          "velocity": 0.7165354330708661
        },
        {
          "duration": 0.053064281250016165,
          "durationTicks": 36,
          "midi": 51,
          "name": "D#3",
          "ticks": 99648,
          "time": 146.8819305,
          "velocity": 0.29133858267716534
        },
        {
          "duration": 0.053064281250016165,
          "durationTicks": 36,
          "midi": 51,
          "name": "D#3",
          "ticks": 99744,
          "time": 147.02343525,
          "velocity": 0.4566929133858268
        },
        {
          "duration": 0.06485634375002292,
          "durationTicks": 44,
          "midi": 51,
          "name": "D#3",
          "ticks": 99842,
          "time": 147.167888015625,
          "velocity": 0.6456692913385826
        },
        {
          "duration": 0.038324203125029044,
          "durationTicks": 26,
          "midi": 51,
          "name": "D#3",
          "ticks": 100034,
          "time": 147.450897515625,
          "velocity": 0.48031496062992124
        },
        {
          "duration": 0.06780435937500329,
          "durationTicks": 46,
          "midi": 51,
          "name": "D#3",
          "ticks": 100224,
          "time": 147.730959,
          "velocity": 0.5905511811023622
        },
        {
          "duration": 0.07959642187501004,
          "durationTicks": 54,
          "midi": 51,
          "name": "D#3",
          "ticks": 100420,
          "time": 148.01986453125002,
          "velocity": 0.5669291338582677
        },
        {
          "duration": 0.020636109374976286,
          "durationTicks": 14,
          "midi": 51,
          "name": "D#3",
          "ticks": 100608,
          "time": 148.29697800000002,
          "velocity": 0.6614173228346457
        },
        {
          "duration": 0.06485634374996607,
          "durationTicks": 44,
          "midi": 51,
          "name": "D#3",
          "ticks": 100798,
          "time": 148.57703948437504,
          "velocity": 0.5039370078740157
        },
        {
          "duration": 0.08549245312502762,
          "durationTicks": 58,
          "midi": 51,
          "name": "D#3",
          "ticks": 100992,
          "time": 148.862997,
          "velocity": 0.6456692913385826
        },
        {
          "duration": 0.06190832812501412,
          "durationTicks": 42,
          "midi": 51,
          "name": "D#3",
          "ticks": 101182,
          "time": 149.14305848437502,
          "velocity": 0.5039370078740157
        },
        {
          "duration": 0.45989043750000747,
          "durationTicks": 312,
          "midi": 49,
          "name": "C#3",
          "ticks": 101376,
          "time": 149.42901600000002,
          "velocity": 0.6299212598425197
        },
        {
          "duration": 0.05011626562497895,
          "durationTicks": 34,
          "midi": 51,
          "name": "D#3",
          "ticks": 101572,
          "time": 149.71792153125003,
          "velocity": 0.3779527559055118
        },
        {
          "duration": 0.07075237500001208,
          "durationTicks": 48,
          "midi": 51,
          "name": "D#3",
          "ticks": 101764,
          "time": 150.00093103125002,
          "velocity": 0.6456692913385826
        },
        {
          "duration": 0.05896031250000533,
          "durationTicks": 40,
          "midi": 51,
          "name": "D#3",
          "ticks": 101956,
          "time": 150.28394053125,
          "velocity": 0.6141732283464567
        },
        {
          "duration": 0.053064281249987744,
          "durationTicks": 36,
          "midi": 51,
          "name": "D#3",
          "ticks": 102144,
          "time": 150.561054,
          "velocity": 0.29133858267716534
        },
        {
          "duration": 0.044220234374989786,
          "durationTicks": 30,
          "midi": 51,
          "name": "D#3",
          "ticks": 102338,
          "time": 150.847011515625,
          "velocity": 0.5039370078740157
        },
        {
          "duration": 0.053064281249987744,
          "durationTicks": 36,
          "midi": 51,
          "name": "D#3",
          "ticks": 102530,
          "time": 151.130021015625,
          "velocity": 0.7165354330708661
        },
        {
          "duration": 0.053064281249987744,
          "durationTicks": 36,
          "midi": 51,
          "name": "D#3",
          "ticks": 102720,
          "time": 151.41008250000002,
          "velocity": 0.33858267716535434
        },
        {
          "duration": 0.053064281249987744,
          "durationTicks": 36,
          "midi": 51,
          "name": "D#3",
          "ticks": 102816,
          "time": 151.55158725,
          "velocity": 0.4566929133858268
        },
        {
          "duration": 0.0648563437499945,
          "durationTicks": 44,
          "midi": 51,
          "name": "D#3",
          "ticks": 102914,
          "time": 151.69604001562502,
          "velocity": 0.6456692913385826
        },
        {
          "duration": 0.038324203125029044,
          "durationTicks": 26,
          "midi": 51,
          "name": "D#3",
          "ticks": 103106,
          "time": 151.979049515625,
          "velocity": 0.33858267716535434
        },
        {
          "duration": 0.06780435937500329,
          "durationTicks": 46,
          "midi": 51,
          "name": "D#3",
          "ticks": 103296,
          "time": 152.25911100000002,
          "velocity": 0.6614173228346457
        },
        {
          "duration": 0.07959642187501004,
          "durationTicks": 54,
          "midi": 51,
          "name": "D#3",
          "ticks": 103492,
          "time": 152.54801653125003,
          "velocity": 0.6377952755905512
        },
        {
          "duration": 0.020636109375004708,
          "durationTicks": 14,
          "midi": 51,
          "name": "D#3",
          "ticks": 103680,
          "time": 152.82513,
          "velocity": 0.29133858267716534
        },
        {
          "duration": 0.0648563437499945,
          "durationTicks": 44,
          "midi": 51,
          "name": "D#3",
          "ticks": 103870,
          "time": 153.105191484375,
          "velocity": 0.5039370078740157
        },
        {
          "duration": 0.0854924531249992,
          "durationTicks": 58,
          "midi": 51,
          "name": "D#3",
          "ticks": 104064,
          "time": 153.391149,
          "velocity": 0.6456692913385826
        },
        {
          "duration": 0.06190832812501412,
          "durationTicks": 42,
          "midi": 51,
          "name": "D#3",
          "ticks": 104254,
          "time": 153.67121048437502,
          "velocity": 0.5433070866141733
        },
        {
          "duration": 0.053064281249987744,
          "durationTicks": 36,
          "midi": 57,
          "name": "A3",
          "ticks": 104448,
          "time": 153.95716800000002,
          "velocity": 0.6299212598425197
        },
        {
          "duration": 0.05011626562497895,
          "durationTicks": 34,
          "midi": 51,
          "name": "D#3",
          "ticks": 104644,
          "time": 154.24607353125003,
          "velocity": 0.3779527559055118
        },
        {
          "duration": 0.07075237500001208,
          "durationTicks": 48,
          "midi": 51,
          "name": "D#3",
          "ticks": 104836,
          "time": 154.52908303125002,
          "velocity": 0.6456692913385826
        },
        {
          "duration": 0.05896031249997691,
          "durationTicks": 40,
          "midi": 51,
          "name": "D#3",
          "ticks": 105028,
          "time": 154.81209253125002,
          "velocity": 0.6141732283464567
        },
        {
          "duration": 0.053064281249987744,
          "durationTicks": 36,
          "midi": 51,
          "name": "D#3",
          "ticks": 105216,
          "time": 155.08920600000002,
          "velocity": 0.29133858267716534
        },
        {
          "duration": 0.04422023437501821,
          "durationTicks": 30,
          "midi": 51,
          "name": "D#3",
          "ticks": 105410,
          "time": 155.375163515625,
          "velocity": 0.5039370078740157
        },
        {
          "duration": 0.053064281249987744,
          "durationTicks": 36,
          "midi": 51,
          "name": "D#3",
          "ticks": 105602,
          "time": 155.658173015625,
          "velocity": 0.7165354330708661
        },
        {
          "duration": 0.053064281249987744,
          "durationTicks": 36,
          "midi": 51,
          "name": "D#3",
          "ticks": 105792,
          "time": 155.93823450000002,
          "velocity": 0.5039370078740157
        },
        {
          "duration": 0.06485634375002292,
          "durationTicks": 44,
          "midi": 49,
          "name": "C#3",
          "ticks": 105986,
          "time": 156.224192015625,
          "velocity": 0.6299212598425197
        },
        {
          "duration": 2.2169077500000185,
          "durationTicks": 1504,
          "midi": 49,
          "name": "C#3",
          "ticks": 107520,
          "time": 158.48532,
          "velocity": 0.6299212598425197
        },
        {
          "duration": 0.45989043749997904,
          "durationTicks": 312,
          "midi": 49,
          "name": "C#3",
          "ticks": 138240,
          "time": 203.76684000000003,
          "velocity": 0.6299212598425197
        },
        {
          "duration": 0.05011626562497895,
          "durationTicks": 34,
          "midi": 51,
          "name": "D#3",
          "ticks": 138436,
          "time": 204.05574553125004,
          "velocity": 0.3779527559055118
        },
        {
          "duration": 0.07075237499998366,
          "durationTicks": 48,
          "midi": 51,
          "name": "D#3",
          "ticks": 138628,
          "time": 204.33875503125003,
          "velocity": 0.6456692913385826
        },
        {
          "duration": 0.05896031249997691,
          "durationTicks": 40,
          "midi": 51,
          "name": "D#3",
          "ticks": 138820,
          "time": 204.62176453125002,
          "velocity": 0.6141732283464567
        },
        {
          "duration": 0.053064281249987744,
          "durationTicks": 36,
          "midi": 51,
          "name": "D#3",
          "ticks": 139008,
          "time": 204.89887800000002,
          "velocity": 0.29133858267716534
        },
        {
          "duration": 0.04422023437501821,
          "durationTicks": 30,
          "midi": 51,
          "name": "D#3",
          "ticks": 139202,
          "time": 205.184835515625,
          "velocity": 0.5039370078740157
        },
        {
          "duration": 0.053064281249987744,
          "durationTicks": 36,
          "midi": 51,
          "name": "D#3",
          "ticks": 139394,
          "time": 205.46784501562502,
          "velocity": 0.7165354330708661
        },
        {
          "duration": 0.053064281249987744,
          "durationTicks": 36,
          "midi": 51,
          "name": "D#3",
          "ticks": 139584,
          "time": 205.74790650000003,
          "velocity": 0.47244094488188976
        },
        {
          "duration": 0.06485634375002292,
          "durationTicks": 44,
          "midi": 51,
          "name": "D#3",
          "ticks": 139778,
          "time": 206.033864015625,
          "velocity": 0.6456692913385826
        },
        {
          "duration": 0.03832420312500062,
          "durationTicks": 26,
          "midi": 51,
          "name": "D#3",
          "ticks": 139970,
          "time": 206.31687351562502,
          "velocity": 0.33858267716535434
        },
        {
          "duration": 0.06780435937500329,
          "durationTicks": 46,
          "midi": 51,
          "name": "D#3",
          "ticks": 140160,
          "time": 206.59693500000003,
          "velocity": 0.6614173228346457
        },
        {
          "duration": 0.07959642187498162,
          "durationTicks": 54,
          "midi": 51,
          "name": "D#3",
          "ticks": 140356,
          "time": 206.88584053125004,
          "velocity": 0.6377952755905512
        },
        {
          "duration": 0.020636109375004708,
          "durationTicks": 14,
          "midi": 51,
          "name": "D#3",
          "ticks": 140544,
          "time": 207.162954,
          "velocity": 0.29133858267716534
        },
        {
          "duration": 0.0648563437499945,
          "durationTicks": 44,
          "midi": 51,
          "name": "D#3",
          "ticks": 140734,
          "time": 207.44301548437502,
          "velocity": 0.5039370078740157
        },
        {
          "duration": 0.0854924531249992,
          "durationTicks": 58,
          "midi": 51,
          "name": "D#3",
          "ticks": 140928,
          "time": 207.72897300000002,
          "velocity": 0.6456692913385826
        },
        {
          "duration": 0.0619083281249857,
          "durationTicks": 42,
          "midi": 51,
          "name": "D#3",
          "ticks": 141118,
          "time": 208.00903448437504,
          "velocity": 0.5039370078740157
        },
        {
          "duration": 0.45989043750000747,
          "durationTicks": 312,
          "midi": 49,
          "name": "C#3",
          "ticks": 141312,
          "time": 208.294992,
          "velocity": 0.6299212598425197
        },
        {
          "duration": 0.05011626562497895,
          "durationTicks": 34,
          "midi": 51,
          "name": "D#3",
          "ticks": 141508,
          "time": 208.58389753125002,
          "velocity": 0.3779527559055118
        },
        {
          "duration": 0.07075237499998366,
          "durationTicks": 48,
          "midi": 51,
          "name": "D#3",
          "ticks": 141700,
          "time": 208.86690703125004,
          "velocity": 0.6456692913385826
        },
        {
          "duration": 0.05896031249997691,
          "durationTicks": 40,
          "midi": 51,
          "name": "D#3",
          "ticks": 141892,
          "time": 209.14991653125003,
          "velocity": 0.6141732283464567
        },
        {
          "duration": 0.053064281249987744,
          "durationTicks": 36,
          "midi": 51,
          "name": "D#3",
          "ticks": 142080,
          "time": 209.42703000000003,
          "velocity": 0.29133858267716534
        },
        {
          "duration": 0.04422023437501821,
          "durationTicks": 30,
          "midi": 51,
          "name": "D#3",
          "ticks": 142274,
          "time": 209.712987515625,
          "velocity": 0.5039370078740157
        },
        {
          "duration": 0.053064281250016165,
          "durationTicks": 36,
          "midi": 51,
          "name": "D#3",
          "ticks": 142466,
          "time": 209.995997015625,
          "velocity": 0.7165354330708661
        },
        {
          "duration": 0.053064281250016165,
          "durationTicks": 36,
          "midi": 51,
          "name": "D#3",
          "ticks": 142656,
          "time": 210.2760585,
          "velocity": 0.47244094488188976
        },
        {
          "duration": 0.06485634375002292,
          "durationTicks": 44,
          "midi": 51,
          "name": "D#3",
          "ticks": 142850,
          "time": 210.562016015625,
          "velocity": 0.6456692913385826
        },
        {
          "duration": 0.038324203125029044,
          "durationTicks": 26,
          "midi": 51,
          "name": "D#3",
          "ticks": 143042,
          "time": 210.845025515625,
          "velocity": 0.48031496062992124
        },
        {
          "duration": 0.06780435937503171,
          "durationTicks": 46,
          "midi": 51,
          "name": "D#3",
          "ticks": 143232,
          "time": 211.125087,
          "velocity": 0.5905511811023622
        },
        {
          "duration": 0.07959642187501004,
          "durationTicks": 54,
          "midi": 51,
          "name": "D#3",
          "ticks": 143428,
          "time": 211.41399253125002,
          "velocity": 0.5669291338582677
        },
        {
          "duration": 0.020636109374976286,
          "durationTicks": 14,
          "midi": 51,
          "name": "D#3",
          "ticks": 143616,
          "time": 211.69110600000002,
          "velocity": 0.6614173228346457
        },
        {
          "duration": 0.0648563437499945,
          "durationTicks": 44,
          "midi": 51,
          "name": "D#3",
          "ticks": 143806,
          "time": 211.97116748437503,
          "velocity": 0.5039370078740157
        },
        {
          "duration": 0.0854924531249992,
          "durationTicks": 58,
          "midi": 51,
          "name": "D#3",
          "ticks": 144000,
          "time": 212.25712500000003,
          "velocity": 0.6456692913385826
        },
        {
          "duration": 0.0619083281249857,
          "durationTicks": 42,
          "midi": 51,
          "name": "D#3",
          "ticks": 144190,
          "time": 212.53718648437504,
          "velocity": 0.5039370078740157
        },
        {
          "duration": 0.45989043750000747,
          "durationTicks": 312,
          "midi": 49,
          "name": "C#3",
          "ticks": 144384,
          "time": 212.823144,
          "velocity": 0.6299212598425197
        },
        {
          "duration": 0.05011626562497895,
          "durationTicks": 34,
          "midi": 51,
          "name": "D#3",
          "ticks": 144580,
          "time": 213.11204953125002,
          "velocity": 0.3779527559055118
        },
        {
          "duration": 0.07075237499998366,
          "durationTicks": 48,
          "midi": 51,
          "name": "D#3",
          "ticks": 144772,
          "time": 213.39505903125004,
          "velocity": 0.6456692913385826
        },
        {
          "duration": 0.05896031249997691,
          "durationTicks": 40,
          "midi": 51,
          "name": "D#3",
          "ticks": 144964,
          "time": 213.67806853125003,
          "velocity": 0.6141732283464567
        },
        {
          "duration": 0.053064281250016165,
          "durationTicks": 36,
          "midi": 51,
          "name": "D#3",
          "ticks": 145152,
          "time": 213.955182,
          "velocity": 0.29133858267716534
        },
        {
          "duration": 0.044220234374989786,
          "durationTicks": 30,
          "midi": 51,
          "name": "D#3",
          "ticks": 145346,
          "time": 214.241139515625,
          "velocity": 0.5039370078740157
        },
        {
          "duration": 0.053064281250016165,
          "durationTicks": 36,
          "midi": 51,
          "name": "D#3",
          "ticks": 145538,
          "time": 214.524149015625,
          "velocity": 0.7165354330708661
        },
        {
          "duration": 0.053064281250016165,
          "durationTicks": 36,
          "midi": 51,
          "name": "D#3",
          "ticks": 145632,
          "time": 214.66270575000001,
          "velocity": 0.3858267716535433
        },
        {
          "duration": 0.053064281250016165,
          "durationTicks": 36,
          "midi": 51,
          "name": "D#3",
          "ticks": 145728,
          "time": 214.8042105,
          "velocity": 0.5196850393700787
        },
        {
          "duration": 0.06485634375002292,
          "durationTicks": 44,
          "midi": 51,
          "name": "D#3",
          "ticks": 145922,
          "time": 215.090168015625,
          "velocity": 0.6456692913385826
        },
        {
          "duration": 0.038324203125029044,
          "durationTicks": 26,
          "midi": 51,
          "name": "D#3",
          "ticks": 146114,
          "time": 215.373177515625,
          "velocity": 0.33858267716535434
        },
        {
          "duration": 0.06780435937500329,
          "durationTicks": 46,
          "midi": 51,
          "name": "D#3",
          "ticks": 146304,
          "time": 215.653239,
          "velocity": 0.6614173228346457
        },
        {
          "duration": 0.07959642187501004,
          "durationTicks": 54,
          "midi": 51,
          "name": "D#3",
          "ticks": 146500,
          "time": 215.94214453125002,
          "velocity": 0.6377952755905512
        },
        {
          "duration": 0.020636109374976286,
          "durationTicks": 14,
          "midi": 51,
          "name": "D#3",
          "ticks": 146688,
          "time": 216.21925800000002,
          "velocity": 0.29133858267716534
        },
        {
          "duration": 0.0648563437499945,
          "durationTicks": 44,
          "midi": 51,
          "name": "D#3",
          "ticks": 146878,
          "time": 216.49931948437504,
          "velocity": 0.5039370078740157
        },
        {
          "duration": 0.08549245312502762,
          "durationTicks": 58,
          "midi": 51,
          "name": "D#3",
          "ticks": 147072,
          "time": 216.785277,
          "velocity": 0.6456692913385826
        },
        {
          "duration": 0.06190832812501412,
          "durationTicks": 42,
          "midi": 51,
          "name": "D#3",
          "ticks": 147266,
          "time": 217.071234515625,
          "velocity": 0.5039370078740157
        },
        {
          "duration": 0.053064281249987744,
          "durationTicks": 36,
          "midi": 57,
          "name": "A3",
          "ticks": 147456,
          "time": 217.35129600000002,
          "velocity": 0.6377952755905512
        },
        {
          "duration": 0.05011626562497895,
          "durationTicks": 34,
          "midi": 51,
          "name": "D#3",
          "ticks": 147652,
          "time": 217.64020153125003,
          "velocity": 0.3779527559055118
        },
        {
          "duration": 0.07075237500001208,
          "durationTicks": 48,
          "midi": 51,
          "name": "D#3",
          "ticks": 147844,
          "time": 217.92321103125002,
          "velocity": 0.6456692913385826
        },
        {
          "duration": 0.05896031249997691,
          "durationTicks": 40,
          "midi": 51,
          "name": "D#3",
          "ticks": 148036,
          "time": 218.20622053125004,
          "velocity": 0.6141732283464567
        },
        {
          "duration": 0.053064281250016165,
          "durationTicks": 36,
          "midi": 51,
          "name": "D#3",
          "ticks": 148224,
          "time": 218.483334,
          "velocity": 0.29133858267716534
        },
        {
          "duration": 0.044220234374989786,
          "durationTicks": 30,
          "midi": 51,
          "name": "D#3",
          "ticks": 148418,
          "time": 218.769291515625,
          "velocity": 0.5039370078740157
        },
        {
          "duration": 0.053064281250016165,
          "durationTicks": 36,
          "midi": 51,
          "name": "D#3",
          "ticks": 148610,
          "time": 219.052301015625,
          "velocity": 0.7165354330708661
        },
        {
          "duration": 0.053064281250016165,
          "durationTicks": 36,
          "midi": 51,
          "name": "D#3",
          "ticks": 148800,
          "time": 219.33236250000002,
          "velocity": 0.47244094488188976
        },
        {
          "duration": 0.06485634375002292,
          "durationTicks": 44,
          "midi": 51,
          "name": "D#3",
          "ticks": 148994,
          "time": 219.61832001562502,
          "velocity": 0.6456692913385826
        },
        {
          "duration": 0.038324203125029044,
          "durationTicks": 26,
          "midi": 51,
          "name": "D#3",
          "ticks": 149186,
          "time": 219.901329515625,
          "velocity": 0.48031496062992124
        },
        {
          "duration": 0.06780435937500329,
          "durationTicks": 46,
          "midi": 51,
          "name": "D#3",
          "ticks": 149376,
          "time": 220.18139100000002,
          "velocity": 0.5905511811023622
        },
        {
          "duration": 0.07959642187501004,
          "durationTicks": 54,
          "midi": 51,
          "name": "D#3",
          "ticks": 149572,
          "time": 220.47029653125003,
          "velocity": 0.5669291338582677
        },
        {
          "duration": 0.020636109374976286,
          "durationTicks": 14,
          "midi": 51,
          "name": "D#3",
          "ticks": 149760,
          "time": 220.74741000000003,
          "velocity": 0.6614173228346457
        },
        {
          "duration": 0.06485634374996607,
          "durationTicks": 44,
          "midi": 51,
          "name": "D#3",
          "ticks": 149950,
          "time": 221.02747148437504,
          "velocity": 0.5039370078740157
        },
        {
          "duration": 0.08549245312502762,
          "durationTicks": 58,
          "midi": 51,
          "name": "D#3",
          "ticks": 150144,
          "time": 221.313429,
          "velocity": 0.6456692913385826
        },
        {
          "duration": 0.06190832812501412,
          "durationTicks": 42,
          "midi": 51,
          "name": "D#3",
          "ticks": 150334,
          "time": 221.59349048437502,
          "velocity": 0.5039370078740157
        },
        {
          "duration": 0.45989043750000747,
          "durationTicks": 312,
          "midi": 49,
          "name": "C#3",
          "ticks": 150528,
          "time": 221.87944800000002,
          "velocity": 0.6299212598425197
        },
        {
          "duration": 0.05011626562497895,
          "durationTicks": 34,
          "midi": 51,
          "name": "D#3",
          "ticks": 150724,
          "time": 222.16835353125003,
          "velocity": 0.3779527559055118
        },
        {
          "duration": 0.07075237500001208,
          "durationTicks": 48,
          "midi": 51,
          "name": "D#3",
          "ticks": 150916,
          "time": 222.45136303125003,
          "velocity": 0.6456692913385826
        },
        {
          "duration": 0.05896031250000533,
          "durationTicks": 40,
          "midi": 51,
          "name": "D#3",
          "ticks": 151108,
          "time": 222.73437253125002,
          "velocity": 0.6141732283464567
        },
        {
          "duration": 0.053064281249987744,
          "durationTicks": 36,
          "midi": 51,
          "name": "D#3",
          "ticks": 151296,
          "time": 223.01148600000002,
          "velocity": 0.29133858267716534
        },
        {
          "duration": 0.044220234374989786,
          "durationTicks": 30,
          "midi": 51,
          "name": "D#3",
          "ticks": 151490,
          "time": 223.29744351562502,
          "velocity": 0.5039370078740157
        },
        {
          "duration": 0.053064281249987744,
          "durationTicks": 36,
          "midi": 51,
          "name": "D#3",
          "ticks": 151682,
          "time": 223.580453015625,
          "velocity": 0.7165354330708661
        },
        {
          "duration": 0.053064281249987744,
          "durationTicks": 36,
          "midi": 51,
          "name": "D#3",
          "ticks": 151872,
          "time": 223.86051450000002,
          "velocity": 0.47244094488188976
        },
        {
          "duration": 0.0648563437499945,
          "durationTicks": 44,
          "midi": 51,
          "name": "D#3",
          "ticks": 152066,
          "time": 224.14647201562502,
          "velocity": 0.6456692913385826
        },
        {
          "duration": 0.038324203125029044,
          "durationTicks": 26,
          "midi": 51,
          "name": "D#3",
          "ticks": 152258,
          "time": 224.429481515625,
          "velocity": 0.33858267716535434
        },
        {
          "duration": 0.06780435937500329,
          "durationTicks": 46,
          "midi": 51,
          "name": "D#3",
          "ticks": 152448,
          "time": 224.70954300000002,
          "velocity": 0.6614173228346457
        },
        {
          "duration": 0.07959642187501004,
          "durationTicks": 54,
          "midi": 51,
          "name": "D#3",
          "ticks": 152644,
          "time": 224.99844853125003,
          "velocity": 0.6377952755905512
        },
        {
          "duration": 0.020636109375004708,
          "durationTicks": 14,
          "midi": 51,
          "name": "D#3",
          "ticks": 152832,
          "time": 225.275562,
          "velocity": 0.29133858267716534
        },
        {
          "duration": 0.0648563437499945,
          "durationTicks": 44,
          "midi": 51,
          "name": "D#3",
          "ticks": 153022,
          "time": 225.55562348437502,
          "velocity": 0.5039370078740157
        },
        {
          "duration": 0.0854924531249992,
          "durationTicks": 58,
          "midi": 51,
          "name": "D#3",
          "ticks": 153216,
          "time": 225.84158100000002,
          "velocity": 0.6456692913385826
        },
        {
          "duration": 0.06190832812501412,
          "durationTicks": 42,
          "midi": 51,
          "name": "D#3",
          "ticks": 153406,
          "time": 226.12164248437503,
          "velocity": 0.6141732283464567
        },
        {
          "duration": 0.053064281249987744,
          "durationTicks": 36,
          "midi": 49,
          "name": "C#3",
          "ticks": 153600,
          "time": 226.40760000000003,
          "velocity": 0.6299212598425197
        },
        {
          "duration": 0.05011626562497895,
          "durationTicks": 34,
          "midi": 51,
          "name": "D#3",
          "ticks": 153796,
          "time": 226.69650553125004,
          "velocity": 0.3779527559055118
        },
        {
          "duration": 0.07075237500001208,
          "durationTicks": 48,
          "midi": 51,
          "name": "D#3",
          "ticks": 153988,
          "time": 226.97951503125003,
          "velocity": 0.6456692913385826
        },
        {
          "duration": 0.05896031249997691,
          "durationTicks": 40,
          "midi": 51,
          "name": "D#3",
          "ticks": 154180,
          "time": 227.26252453125002,
          "velocity": 0.6141732283464567
        },
        {
          "duration": 0.053064281249987744,
          "durationTicks": 36,
          "midi": 51,
          "name": "D#3",
          "ticks": 154368,
          "time": 227.53963800000002,
          "velocity": 0.29133858267716534
        },
        {
          "duration": 0.04422023437501821,
          "durationTicks": 30,
          "midi": 51,
          "name": "D#3",
          "ticks": 154562,
          "time": 227.825595515625,
          "velocity": 0.5039370078740157
        },
        {
          "duration": 0.053064281249987744,
          "durationTicks": 36,
          "midi": 51,
          "name": "D#3",
          "ticks": 154754,
          "time": 228.10860501562502,
          "velocity": 0.7165354330708661
        },
        {
          "duration": 0.053064281249987744,
          "durationTicks": 36,
          "midi": 51,
          "name": "D#3",
          "ticks": 154944,
          "time": 228.38866650000003,
          "velocity": 0.47244094488188976
        },
        {
          "duration": 0.06485634375002292,
          "durationTicks": 44,
          "midi": 51,
          "name": "D#3",
          "ticks": 155138,
          "time": 228.674624015625,
          "velocity": 0.6456692913385826
        },
        {
          "duration": 0.03832420312500062,
          "durationTicks": 26,
          "midi": 51,
          "name": "D#3",
          "ticks": 155330,
          "time": 228.95763351562502,
          "velocity": 0.48031496062992124
        },
        {
          "duration": 0.06780435937500329,
          "durationTicks": 46,
          "midi": 51,
          "name": "D#3",
          "ticks": 155520,
          "time": 229.23769500000003,
          "velocity": 0.5905511811023622
        },
        {
          "duration": 0.07959642187498162,
          "durationTicks": 54,
          "midi": 51,
          "name": "D#3",
          "ticks": 155716,
          "time": 229.52660053125004,
          "velocity": 0.5669291338582677
        },
        {
          "duration": 0.020636109375004708,
          "durationTicks": 14,
          "midi": 51,
          "name": "D#3",
          "ticks": 155904,
          "time": 229.803714,
          "velocity": 0.6614173228346457
        },
        {
          "duration": 0.0648563437499945,
          "durationTicks": 44,
          "midi": 51,
          "name": "D#3",
          "ticks": 156094,
          "time": 230.08377548437502,
          "velocity": 0.5039370078740157
        },
        {
          "duration": 0.0854924531249992,
          "durationTicks": 58,
          "midi": 51,
          "name": "D#3",
          "ticks": 156288,
          "time": 230.36973300000002,
          "velocity": 0.6456692913385826
        },
        {
          "duration": 0.0619083281249857,
          "durationTicks": 42,
          "midi": 51,
          "name": "D#3",
          "ticks": 156478,
          "time": 230.64979448437504,
          "velocity": 0.5039370078740157
        },
        {
          "duration": 0.45989043750000747,
          "durationTicks": 312,
          "midi": 49,
          "name": "C#3",
          "ticks": 156672,
          "time": 230.935752,
          "velocity": 0.6299212598425197
        },
        {
          "duration": 0.05011626562497895,
          "durationTicks": 34,
          "midi": 51,
          "name": "D#3",
          "ticks": 156868,
          "time": 231.22465753125002,
          "velocity": 0.3779527559055118
        },
        {
          "duration": 0.07075237499998366,
          "durationTicks": 48,
          "midi": 51,
          "name": "D#3",
          "ticks": 157060,
          "time": 231.50766703125004,
          "velocity": 0.6456692913385826
        },
        {
          "duration": 0.05896031249997691,
          "durationTicks": 40,
          "midi": 51,
          "name": "D#3",
          "ticks": 157252,
          "time": 231.79067653125003,
          "velocity": 0.6141732283464567
        },
        {
          "duration": 0.053064281249987744,
          "durationTicks": 36,
          "midi": 51,
          "name": "D#3",
          "ticks": 157440,
          "time": 232.06779000000003,
          "velocity": 0.29133858267716534
        },
        {
          "duration": 0.04422023437501821,
          "durationTicks": 30,
          "midi": 51,
          "name": "D#3",
          "ticks": 157634,
          "time": 232.353747515625,
          "velocity": 0.5039370078740157
        },
        {
          "duration": 0.053064281249987744,
          "durationTicks": 36,
          "midi": 51,
          "name": "D#3",
          "ticks": 157826,
          "time": 232.63675701562502,
          "velocity": 0.7165354330708661
        },
        {
          "duration": 0.053064281249987744,
          "durationTicks": 36,
          "midi": 51,
          "name": "D#3",
          "ticks": 158016,
          "time": 232.91681850000003,
          "velocity": 0.36220472440944884
        },
        {
          "duration": 0.053064281249987744,
          "durationTicks": 36,
          "midi": 51,
          "name": "D#3",
          "ticks": 158112,
          "time": 233.05832325000003,
          "velocity": 0.5039370078740157
        },
        {
          "duration": 0.06485634375002292,
          "durationTicks": 44,
          "midi": 51,
          "name": "D#3",
          "ticks": 158210,
          "time": 233.202776015625,
          "velocity": 0.7086614173228346
        },
        {
          "duration": 0.038324203125029044,
          "durationTicks": 26,
          "midi": 51,
          "name": "D#3",
          "ticks": 158402,
          "time": 233.485785515625,
          "velocity": 0.33858267716535434
        },
        {
          "duration": 0.06780435937503171,
          "durationTicks": 46,
          "midi": 51,
          "name": "D#3",
          "ticks": 158592,
          "time": 233.765847,
          "velocity": 0.6614173228346457
        },
        {
          "duration": 0.07959642187498162,
          "durationTicks": 54,
          "midi": 51,
          "name": "D#3",
          "ticks": 158788,
          "time": 234.05475253125005,
          "velocity": 0.6377952755905512
        },
        {
          "duration": 0.020636109375004708,
          "durationTicks": 14,
          "midi": 51,
          "name": "D#3",
          "ticks": 158976,
          "time": 234.33186600000002,
          "velocity": 0.3858267716535433
        },
        {
          "duration": 0.0648563437499945,
          "durationTicks": 44,
          "midi": 51,
          "name": "D#3",
          "ticks": 159166,
          "time": 234.61192748437503,
          "velocity": 0.5433070866141733
        },
        {
          "duration": 0.45989043750000747,
          "durationTicks": 312,
          "midi": 57,
          "name": "A3",
          "ticks": 159744,
          "time": 235.463904,
          "velocity": 0.3937007874015748
        },
        {
          "duration": 0.45989043750000747,
          "durationTicks": 312,
          "midi": 49,
          "name": "C#3",
          "ticks": 159744,
          "time": 235.463904,
          "velocity": 0.6299212598425197
        },
        {
          "duration": 0.45989043749997904,
          "durationTicks": 312,
          "midi": 49,
          "name": "C#3",
          "ticks": 160328,
          "time": 236.32472456250002,
          "velocity": 0.3937007874015748
        },
        {
          "duration": 0.05896031250000533,
          "durationTicks": 40,
          "midi": 57,
          "name": "A3",
          "ticks": 160328,
          "time": 236.32472456250002,
          "velocity": 0.6299212598425197
        },
        {
          "duration": 0.45989043749997904,
          "durationTicks": 312,
          "midi": 52,
          "name": "E3",
          "ticks": 161280,
          "time": 237.72798000000003,
          "velocity": 0.7086614173228346
        },
        {
          "duration": 0.45989043749997904,
          "durationTicks": 312,
          "midi": 49,
          "name": "C#3",
          "ticks": 161280,
          "time": 237.72798000000003,
          "velocity": 0.6692913385826772
        }
      ],
      "endOfTrackTicks": 162816
    },
    {
      "channel": 9,
      "controlChanges": {},
      "pitchBends": [],
      "instrument": {
        "family": "drums",
        "number": 0,
        "name": "standard kit"
      },
      "name": "#Toms    ",
      "notes": [
        {
          "duration": 0.02358412499999929,
          "durationTicks": 16,
          "midi": 45,
          "name": "A2",
          "ticks": 8640,
          "time": 12.735427500000002,
          "velocity": 0.4409448818897638
        },
        {
          "duration": 0.023584125000001066,
          "durationTicks": 16,
          "midi": 45,
          "name": "A2",
          "ticks": 8690,
          "time": 12.809127890625,
          "velocity": 0.33858267716535434
        },
        {
          "duration": 0.023584125000001066,
          "durationTicks": 16,
          "midi": 45,
          "name": "A2",
          "ticks": 8762,
          "time": 12.915256453125,
          "velocity": 0.49606299212598426
        },
        {
          "duration": 0.02358412499999929,
          "durationTicks": 16,
          "midi": 50,
          "name": "D3",
          "ticks": 69908,
          "time": 103.04493815625001,
          "velocity": 0.36220472440944884
        },
        {
          "duration": 0.0235841250000135,
          "durationTicks": 16,
          "midi": 50,
          "name": "D3",
          "ticks": 70000,
          "time": 103.180546875,
          "velocity": 0.5039370078740157
        },
        {
          "duration": 0.0235841250000135,
          "durationTicks": 16,
          "midi": 47,
          "name": "B2",
          "ticks": 70096,
          "time": 103.322051625,
          "velocity": 0.6377952755905512
        },
        {
          "duration": 0.02358412499998508,
          "durationTicks": 16,
          "midi": 47,
          "name": "B2",
          "ticks": 70184,
          "time": 103.45176431250002,
          "velocity": 0.7322834645669292
        },
        {
          "duration": 0.02358412499998508,
          "durationTicks": 16,
          "midi": 45,
          "name": "A2",
          "ticks": 70268,
          "time": 103.57558096875002,
          "velocity": 0.6850393700787402
        },
        {
          "duration": 0.02358412499999929,
          "durationTicks": 16,
          "midi": 45,
          "name": "A2",
          "ticks": 70360,
          "time": 103.71118968750001,
          "velocity": 0.5669291338582677
        },
        {
          "duration": 0.02358412499999929,
          "durationTicks": 16,
          "midi": 43,
          "name": "G2",
          "ticks": 70454,
          "time": 103.84974642187501,
          "velocity": 0.5433070866141733
        },
        {
          "duration": 0.0235841250000135,
          "durationTicks": 16,
          "midi": 43,
          "name": "G2",
          "ticks": 106556,
          "time": 157.06437646875,
          "velocity": 0.49606299212598426
        },
        {
          "duration": 0.0235841250000135,
          "durationTicks": 16,
          "midi": 45,
          "name": "A2",
          "ticks": 106574,
          "time": 157.090908609375,
          "velocity": 0.6062992125984252
        },
        {
          "duration": 0.0235841250000135,
          "durationTicks": 16,
          "midi": 48,
          "name": "C3",
          "ticks": 106952,
          "time": 157.6480835625,
          "velocity": 0.7322834645669292
        },
        {
          "duration": 0.0235841250000135,
          "durationTicks": 16,
          "midi": 41,
          "name": "F2",
          "ticks": 107126,
          "time": 157.904560921875,
          "velocity": 0.6692913385826772
        },
        {
          "duration": 0.0235841250000135,
          "durationTicks": 16,
          "midi": 43,
          "name": "G2",
          "ticks": 107144,
          "time": 157.9310930625,
          "velocity": 0.8346456692913385
        },
        {
          "duration": 0.0235841250000135,
          "durationTicks": 16,
          "midi": 48,
          "name": "C3",
          "ticks": 160700,
          "time": 236.87305546875,
          "velocity": 0.5905511811023622
        },
        {
          "duration": 0.017688093749995915,
          "durationTicks": 12,
          "midi": 48,
          "name": "C3",
          "ticks": 160712,
          "time": 236.8907435625,
          "velocity": 0.7480314960629921
        },
        {
          "duration": 0.0235841250000135,
          "durationTicks": 16,
          "midi": 45,
          "name": "A2",
          "ticks": 160896,
          "time": 237.16196100000002,
          "velocity": 0.6692913385826772
        },
        {
          "duration": 0.0235841250000135,
          "durationTicks": 16,
          "midi": 43,
          "name": "G2",
          "ticks": 161096,
          "time": 237.45676256250002,
          "velocity": 0.6062992125984252
        }
      ],
      "endOfTrackTicks": 161280
    },
    {
      "channel": 0,
      "controlChanges": {
        "11": [
          {
            "number": 11,
            "ticks": 163960,
            "time": 241.67832093750002,
            "value": 0.9921259842519685
          },
          {
            "number": 11,
            "ticks": 164008,
            "time": 241.74907331250003,
            "value": 0.984251968503937
          },
          {
            "number": 11,
            "ticks": 164050,
            "time": 241.81098164062504,
            "value": 0.9763779527559056
          },
          {
            "number": 11,
            "ticks": 164080,
            "time": 241.85520187500003,
            "value": 0.968503937007874
          },
          {
            "number": 11,
            "ticks": 164118,
            "time": 241.91121417187503,
            "value": 0.9606299212598425
          },
          {
            "number": 11,
            "ticks": 164144,
            "time": 241.949538375,
            "value": 0.952755905511811
          },
          {
            "number": 11,
            "ticks": 164170,
            "time": 241.98786257812503,
            "value": 0.9448818897637795
          },
          {
            "number": 11,
            "ticks": 164198,
            "time": 242.029134796875,
            "value": 0.937007874015748
          },
          {
            "number": 11,
            "ticks": 164250,
            "time": 242.10578320312501,
            "value": 0.9291338582677166
          },
          {
            "number": 11,
            "ticks": 164282,
            "time": 242.152951453125,
            "value": 0.9212598425196851
          },
          {
            "number": 11,
            "ticks": 164336,
            "time": 242.23254787500002,
            "value": 0.9133858267716536
          },
          {
            "number": 11,
            "ticks": 164362,
            "time": 242.27087207812502,
            "value": 0.905511811023622
          },
          {
            "number": 11,
            "ticks": 164392,
            "time": 242.31509231250004,
            "value": 0.8976377952755905
          },
          {
            "number": 11,
            "ticks": 164436,
            "time": 242.37994865625,
            "value": 0.889763779527559
          },
          {
            "number": 11,
            "ticks": 164492,
            "time": 242.46249309375,
            "value": 0.8818897637795275
          },
          {
            "number": 11,
            "ticks": 164570,
            "time": 242.577465703125,
            "value": 0.8740157480314961
          },
          {
            "number": 11,
            "ticks": 164630,
            "time": 242.665906171875,
            "value": 0.8661417322834646
          },
          {
            "number": 11,
            "ticks": 164680,
            "time": 242.73960656250003,
            "value": 0.8582677165354331
          },
          {
            "number": 11,
            "ticks": 164780,
            "time": 242.88700734375,
            "value": 0.8503937007874016
          },
          {
            "number": 11,
            "ticks": 164880,
            "time": 243.03440812500003,
            "value": 0.84251968503937
          },
          {
            "number": 11,
            "ticks": 164934,
            "time": 243.114004546875,
            "value": 0.8346456692913385
          },
          {
            "number": 11,
            "ticks": 164982,
            "time": 243.18475692187502,
            "value": 0.8267716535433071
          },
          {
            "number": 11,
            "ticks": 165030,
            "time": 243.25550929687503,
            "value": 0.8188976377952756
          },
          {
            "number": 11,
            "ticks": 165080,
            "time": 243.3292096875,
            "value": 0.8110236220472441
          },
          {
            "number": 11,
            "ticks": 165120,
            "time": 243.38817000000003,
            "value": 0.8031496062992126
          },
          {
            "number": 11,
            "ticks": 165142,
            "time": 243.42059817187504,
            "value": 0.7952755905511811
          },
          {
            "number": 11,
            "ticks": 165174,
            "time": 243.467766421875,
            "value": 0.7874015748031497
          },
          {
            "number": 11,
            "ticks": 165204,
            "time": 243.51198665625003,
            "value": 0.7795275590551181
          },
          {
            "number": 11,
            "ticks": 165230,
            "time": 243.550310859375,
            "value": 0.7716535433070866
          },
          {
            "number": 11,
            "ticks": 165250,
            "time": 243.57979101562503,
            "value": 0.7637795275590551
          },
          {
            "number": 11,
            "ticks": 165274,
            "time": 243.61516720312503,
            "value": 0.7559055118110236
          },
          {
            "number": 11,
            "ticks": 165296,
            "time": 243.647595375,
            "value": 0.7480314960629921
          },
          {
            "number": 11,
            "ticks": 165314,
            "time": 243.674127515625,
            "value": 0.7401574803149606
          },
          {
            "number": 11,
            "ticks": 165336,
            "time": 243.7065556875,
            "value": 0.7322834645669292
          },
          {
            "number": 11,
            "ticks": 165356,
            "time": 243.73603584375002,
            "value": 0.7244094488188977
          },
          {
            "number": 11,
            "ticks": 165382,
            "time": 243.77436004687505,
            "value": 0.7165354330708661
          },
          {
            "number": 11,
            "ticks": 165400,
            "time": 243.80089218750004,
            "value": 0.7086614173228346
          },
          {
            "number": 11,
            "ticks": 165432,
            "time": 243.8480604375,
            "value": 0.7007874015748031
          },
          {
            "number": 11,
            "ticks": 165460,
            "time": 243.88933265625002,
            "value": 0.6929133858267716
          },
          {
            "number": 11,
            "ticks": 165486,
            "time": 243.92765685937502,
            "value": 0.6850393700787402
          },
          {
            "number": 11,
            "ticks": 165506,
            "time": 243.95713701562502,
            "value": 0.6771653543307087
          },
          {
            "number": 11,
            "ticks": 165524,
            "time": 243.98366915625002,
            "value": 0.6692913385826772
          },
          {
            "number": 11,
            "ticks": 165554,
            "time": 244.027889390625,
            "value": 0.6614173228346457
          },
          {
            "number": 11,
            "ticks": 165580,
            "time": 244.06621359375004,
            "value": 0.6535433070866141
          },
          {
            "number": 11,
            "ticks": 165626,
            "time": 244.134017953125,
            "value": 0.6456692913385826
          },
          {
            "number": 11,
            "ticks": 165666,
            "time": 244.19297826562502,
            "value": 0.6377952755905512
          },
          {
            "number": 11,
            "ticks": 165702,
            "time": 244.24604254687503,
            "value": 0.6299212598425197
          },
          {
            "number": 11,
            "ticks": 165726,
            "time": 244.28141873437502,
            "value": 0.6220472440944882
          },
          {
            "number": 11,
            "ticks": 165754,
            "time": 244.32269095312503,
            "value": 0.6141732283464567
          },
          {
            "number": 11,
            "ticks": 165784,
            "time": 244.36691118750002,
            "value": 0.6062992125984252
          },
          {
            "number": 11,
            "ticks": 165810,
            "time": 244.40523539062502,
            "value": 0.5984251968503937
          },
          {
            "number": 11,
            "ticks": 165852,
            "time": 244.46714371875,
            "value": 0.5905511811023622
          },
          {
            "number": 11,
            "ticks": 165896,
            "time": 244.5320000625,
            "value": 0.5826771653543307
          },
          {
            "number": 11,
            "ticks": 165952,
            "time": 244.61454450000002,
            "value": 0.5748031496062992
          },
          {
            "number": 11,
            "ticks": 166014,
            "time": 244.705932984375,
            "value": 0.5669291338582677
          },
          {
            "number": 11,
            "ticks": 166048,
            "time": 244.75604925000005,
            "value": 0.5590551181102362
          },
          {
            "number": 11,
            "ticks": 166108,
            "time": 244.84448971875003,
            "value": 0.5511811023622047
          },
          {
            "number": 11,
            "ticks": 166146,
            "time": 244.90050201562502,
            "value": 0.5433070866141733
          },
          {
            "number": 11,
            "ticks": 166194,
            "time": 244.97125439062503,
            "value": 0.5354330708661418
          },
          {
            "number": 11,
            "ticks": 166234,
            "time": 245.03021470312504,
            "value": 0.5275590551181102
          },
          {
            "number": 11,
            "ticks": 166286,
            "time": 245.106863109375,
            "value": 0.5196850393700787
          },
          {
            "number": 11,
            "ticks": 166326,
            "time": 245.16582342187502,
            "value": 0.5118110236220472
          },
          {
            "number": 11,
            "ticks": 166400,
            "time": 245.2749,
            "value": 0.5039370078740157
          },
          {
            "number": 11,
            "ticks": 166452,
            "time": 245.35154840625003,
            "value": 0.49606299212598426
          },
          {
            "number": 11,
            "ticks": 166510,
            "time": 245.43704085937503,
            "value": 0.4881889763779528
          },
          {
            "number": 11,
            "ticks": 166564,
            "time": 245.51663728125004,
            "value": 0.48031496062992124
          },
          {
            "number": 11,
            "ticks": 166600,
            "time": 245.56970156250003,
            "value": 0.47244094488188976
          },
          {
            "number": 11,
            "ticks": 166638,
            "time": 245.62571385937503,
            "value": 0.4645669291338583
          },
          {
            "number": 11,
            "ticks": 166672,
            "time": 245.67583012500003,
            "value": 0.4566929133858268
          },
          {
            "number": 11,
            "ticks": 166718,
            "time": 245.743634484375,
            "value": 0.44881889763779526
          },
          {
            "number": 11,
            "ticks": 166760,
            "time": 245.80554281250002,
            "value": 0.4409448818897638
          },
          {
            "number": 11,
            "ticks": 166798,
            "time": 245.86155510937502,
            "value": 0.4330708661417323
          },
          {
            "number": 11,
            "ticks": 166836,
            "time": 245.91756740625001,
            "value": 0.4251968503937008
          },
          {
            "number": 11,
            "ticks": 166878,
            "time": 245.97947573437503,
            "value": 0.41732283464566927
          },
          {
            "number": 11,
            "ticks": 166906,
            "time": 246.02074795312504,
            "value": 0.4094488188976378
          },
          {
            "number": 11,
            "ticks": 166948,
            "time": 246.08265628125002,
            "value": 0.4015748031496063
          },
          {
            "number": 11,
            "ticks": 166984,
            "time": 246.13572056250004,
            "value": 0.3937007874015748
          },
          {
            "number": 11,
            "ticks": 167014,
            "time": 246.17994079687503,
            "value": 0.3858267716535433
          },
          {
            "number": 11,
            "ticks": 167034,
            "time": 246.20942095312503,
            "value": 0.3779527559055118
          },
          {
            "number": 11,
            "ticks": 167084,
            "time": 246.28312134375,
            "value": 0.3700787401574803
          },
          {
            "number": 11,
            "ticks": 167134,
            "time": 246.35682173437505,
            "value": 0.36220472440944884
          },
          {
            "number": 11,
            "ticks": 167190,
            "time": 246.439366171875,
            "value": 0.3543307086614173
          },
          {
            "number": 11,
            "ticks": 167222,
            "time": 246.486534421875,
            "value": 0.3464566929133858
          },
          {
            "number": 11,
            "ticks": 167250,
            "time": 246.52780664062502,
            "value": 0.33858267716535434
          },
          {
            "number": 11,
            "ticks": 167272,
            "time": 246.56023481250003,
            "value": 0.33070866141732286
          },
          {
            "number": 11,
            "ticks": 167294,
            "time": 246.592662984375,
            "value": 0.3228346456692913
          },
          {
            "number": 11,
            "ticks": 167312,
            "time": 246.619195125,
            "value": 0.31496062992125984
          },
          {
            "number": 11,
            "ticks": 167334,
            "time": 246.65162329687502,
            "value": 0.30708661417322836
          },
          {
            "number": 11,
            "ticks": 167378,
            "time": 246.716479640625,
            "value": 0.2992125984251969
          },
          {
            "number": 11,
            "ticks": 167394,
            "time": 246.74006376562502,
            "value": 0.29133858267716534
          },
          {
            "number": 11,
            "ticks": 167412,
            "time": 246.76659590625002,
            "value": 0.28346456692913385
          },
          {
            "number": 11,
            "ticks": 167442,
            "time": 246.810816140625,
            "value": 0.2755905511811024
          },
          {
            "number": 11,
            "ticks": 167458,
            "time": 246.83440026562502,
            "value": 0.2677165354330709
          },
          {
            "number": 11,
            "ticks": 167476,
            "time": 246.86093240625004,
            "value": 0.25984251968503935
          },
          {
            "number": 11,
            "ticks": 167498,
            "time": 246.893360578125,
            "value": 0.25196850393700787
          },
          {
            "number": 11,
            "ticks": 167524,
            "time": 246.93168478125003,
            "value": 0.2440944881889764
          },
          {
            "number": 11,
            "ticks": 167550,
            "time": 246.97000898437503,
            "value": 0.23622047244094488
          },
          {
            "number": 11,
            "ticks": 167596,
            "time": 247.03781334375003,
            "value": 0.2283464566929134
          },
          {
            "number": 11,
            "ticks": 167640,
            "time": 247.10266968750003,
            "value": 0.2204724409448819
          },
          {
            "number": 11,
            "ticks": 167676,
            "time": 247.15573396875,
            "value": 0.2125984251968504
          },
          {
            "number": 11,
            "ticks": 167702,
            "time": 247.194058171875,
            "value": 0.2047244094488189
          },
          {
            "number": 11,
            "ticks": 167734,
            "time": 247.24122642187504,
            "value": 0.1968503937007874
          },
          {
            "number": 11,
            "ticks": 167760,
            "time": 247.279550625,
            "value": 0.1889763779527559
          },
          {
            "number": 11,
            "ticks": 167778,
            "time": 247.30608276562504,
            "value": 0.18110236220472442
          },
          {
            "number": 11,
            "ticks": 167816,
            "time": 247.3620950625,
            "value": 0.1732283464566929
          },
          {
            "number": 11,
            "ticks": 167848,
            "time": 247.40926331250003,
            "value": 0.16535433070866143
          },
          {
            "number": 11,
            "ticks": 167886,
            "time": 247.46527560937503,
            "value": 0.15748031496062992
          },
          {
            "number": 11,
            "ticks": 168244,
            "time": 247.99297040625004,
            "value": 0.14960629921259844
          },
          {
            "number": 11,
            "ticks": 168274,
            "time": 248.03719064062503,
            "value": 0.14173228346456693
          },
          {
            "number": 11,
            "ticks": 168306,
            "time": 248.08435889062503,
            "value": 0.13385826771653545
          },
          {
            "number": 11,
            "ticks": 168326,
            "time": 248.113839046875,
            "value": 0.12598425196850394
          },
          {
            "number": 11,
            "ticks": 168346,
            "time": 248.14331920312503,
            "value": 0.11811023622047244
          },
          {
            "number": 11,
            "ticks": 168364,
            "time": 248.16985134375003,
            "value": 0.11023622047244094
          },
          {
            "number": 11,
            "ticks": 168384,
            "time": 248.19933150000003,
            "value": 0.10236220472440945
          },
          {
            "number": 11,
            "ticks": 168408,
            "time": 248.23470768750002,
            "value": 0.09448818897637795
          },
          {
            "number": 11,
            "ticks": 168424,
            "time": 248.25829181250003,
            "value": 0.08661417322834646
          },
          {
            "number": 11,
            "ticks": 168440,
            "time": 248.28187593750002,
            "value": 0.07874015748031496
          },
          {
            "number": 11,
            "ticks": 168462,
            "time": 248.31430410937503,
            "value": 0.07086614173228346
          },
          {
            "number": 11,
            "ticks": 168484,
            "time": 248.34673228125004,
            "value": 0.06299212598425197
          },
          {
            "number": 11,
            "ticks": 168510,
            "time": 248.385056484375,
            "value": 0.05511811023622047
          },
          {
            "number": 11,
            "ticks": 168526,
            "time": 248.40864060937503,
            "value": 0.047244094488188976
          },
          {
            "number": 11,
            "ticks": 168548,
            "time": 248.44106878125,
            "value": 0.03937007874015748
          },
          {
            "number": 11,
            "ticks": 168572,
            "time": 248.47644496875,
            "value": 0.031496062992125984
          },
          {
            "number": 11,
            "ticks": 168614,
            "time": 248.53835329687502,
            "value": 0.023622047244094488
          },
          {
            "number": 11,
            "ticks": 168658,
            "time": 248.60320964062504,
            "value": 0.015748031496062992
          },
          {
            "number": 11,
            "ticks": 168696,
            "time": 248.65922193750004,
            "value": 0.007874015748031496
          },
          {
            "number": 11,
            "ticks": 168918,
            "time": 248.98645167187502,
            "value": 0
          }
        ],
        "64": [
          {
            "number": 64,
            "ticks": 162776,
            "time": 239.9330956875,
            "value": 1
          },
          {
            "number": 64,
            "ticks": 164222,
            "time": 242.064510984375,
            "value": 0
          },
          {
            "number": 64,
            "ticks": 164312,
            "time": 242.1971716875,
            "value": 1
          },
          {
            "number": 64,
            "ticks": 165700,
            "time": 244.24309453125002,
            "value": 0
          },
          {
            "number": 64,
            "ticks": 165874,
            "time": 244.49957189062502,
            "value": 1
          },
          {
            "number": 64,
            "ticks": 167318,
            "time": 246.628039171875,
            "value": 0
          },
          {
            "number": 64,
            "ticks": 167408,
            "time": 246.760699875,
            "value": 1
          },
          {
            "number": 64,
            "ticks": 168864,
            "time": 248.90685525000004,
            "value": 0
          }
        ]
      },
      "pitchBends": [],
      "instrument": {
        "family": "piano",
        "number": 0,
        "name": "acoustic grand piano"
      },
      "name": "A.Piano  ",
      "notes": [
        {
          "duration": 0.2152051406250166,
          "durationTicks": 146,
          "midi": 76,
          "name": "E5",
          "ticks": 162812,
          "time": 239.98615996875,
          "velocity": 0.7086614173228346
        },
        {
          "duration": 4.451503593750033,
          "durationTicks": 3020,
          "midi": 50,
          "name": "D3",
          "ticks": 162818,
          "time": 239.995004015625,
          "velocity": 0.6456692913385826
        },
        {
          "duration": 4.451503593749976,
          "durationTicks": 3020,
          "midi": 38,
          "name": "D2",
          "ticks": 162820,
          "time": 239.99795203125004,
          "velocity": 0.7165354330708661
        },
        {
          "duration": 0.25352934375001723,
          "durationTicks": 172,
          "midi": 77,
          "name": "F5",
          "ticks": 163008,
          "time": 240.2750655,
          "velocity": 0.6456692913385826
        },
        {
          "duration": 0.24468529687499085,
          "durationTicks": 166,
          "midi": 72,
          "name": "C5",
          "ticks": 163198,
          "time": 240.55512698437502,
          "velocity": 0.5748031496062992
        },
        {
          "duration": 0.22404918749998615,
          "durationTicks": 152,
          "midi": 76,
          "name": "E5",
          "ticks": 163392,
          "time": 240.84108450000002,
          "velocity": 0.6456692913385826
        },
        {
          "duration": 0.25058132812500844,
          "durationTicks": 170,
          "midi": 77,
          "name": "F5",
          "ticks": 163586,
          "time": 241.12704201562502,
          "velocity": 0.7165354330708661
        },
        {
          "duration": 0.24468529687499085,
          "durationTicks": 166,
          "midi": 72,
          "name": "C5",
          "ticks": 163776,
          "time": 241.40710350000003,
          "velocity": 0.5748031496062992
        },
        {
          "duration": 0.22699720312502336,
          "durationTicks": 154,
          "midi": 76,
          "name": "E5",
          "ticks": 163970,
          "time": 241.693061015625,
          "velocity": 0.6456692913385826
        },
        {
          "duration": 0.25058132812498,
          "durationTicks": 170,
          "midi": 77,
          "name": "F5",
          "ticks": 164160,
          "time": 241.97312250000002,
          "velocity": 0.7165354330708661
        },
        {
          "duration": 0.24468529687499085,
          "durationTicks": 166,
          "midi": 72,
          "name": "C5",
          "ticks": 164348,
          "time": 242.25023596875002,
          "velocity": 0.5748031496062992
        },
        {
          "duration": 0.22994521875000373,
          "durationTicks": 156,
          "midi": 76,
          "name": "E5",
          "ticks": 164540,
          "time": 242.53324546875,
          "velocity": 0.6456692913385826
        },
        {
          "duration": 0.24173728124998206,
          "durationTicks": 164,
          "midi": 77,
          "name": "F5",
          "ticks": 164736,
          "time": 242.82215100000002,
          "velocity": 0.7086614173228346
        },
        {
          "duration": 0.26826942187500435,
          "durationTicks": 182,
          "midi": 72,
          "name": "C5",
          "ticks": 164924,
          "time": 243.09926446875002,
          "velocity": 0.6456692913385826
        },
        {
          "duration": 0.2152051406249882,
          "durationTicks": 146,
          "midi": 76,
          "name": "E5",
          "ticks": 165126,
          "time": 243.39701404687503,
          "velocity": 0.7165354330708661
        },
        {
          "duration": 0.2682694218750328,
          "durationTicks": 182,
          "midi": 77,
          "name": "F5",
          "ticks": 165314,
          "time": 243.674127515625,
          "velocity": 0.6456692913385826
        },
        {
          "duration": 0.2387892656250017,
          "durationTicks": 162,
          "midi": 72,
          "name": "C5",
          "ticks": 165506,
          "time": 243.95713701562502,
          "velocity": 0.5748031496062992
        },
        {
          "duration": 0.23584125000002132,
          "durationTicks": 160,
          "midi": 76,
          "name": "E5",
          "ticks": 165698,
          "time": 244.240146515625,
          "velocity": 0.5433070866141733
        },
        {
          "duration": 0.25058132812503686,
          "durationTicks": 170,
          "midi": 76,
          "name": "E5",
          "ticks": 165884,
          "time": 244.51431196875,
          "velocity": 0.7165354330708661
        },
        {
          "duration": 4.451503593749976,
          "durationTicks": 3020,
          "midi": 50,
          "name": "D3",
          "ticks": 165888,
          "time": 244.52020800000003,
          "velocity": 0.6456692913385826
        },
        {
          "duration": 4.451503593750033,
          "durationTicks": 3020,
          "midi": 38,
          "name": "D2",
          "ticks": 165890,
          "time": 244.523156015625,
          "velocity": 0.7165354330708661
        },
        {
          "duration": 0.25352934375001723,
          "durationTicks": 172,
          "midi": 77,
          "name": "F5",
          "ticks": 166080,
          "time": 244.80321750000002,
          "velocity": 0.6456692913385826
        },
        {
          "duration": 0.24468529687499085,
          "durationTicks": 166,
          "midi": 72,
          "name": "C5",
          "ticks": 166270,
          "time": 245.08327898437503,
          "velocity": 0.5748031496062992
        },
        {
          "duration": 0.22404918749998615,
          "durationTicks": 152,
          "midi": 76,
          "name": "E5",
          "ticks": 166464,
          "time": 245.36923650000003,
          "velocity": 0.6456692913385826
        },
        {
          "duration": 0.25058132812503686,
          "durationTicks": 170,
          "midi": 77,
          "name": "F5",
          "ticks": 166658,
          "time": 245.655194015625,
          "velocity": 0.7165354330708661
        },
        {
          "duration": 0.24468529687501928,
          "durationTicks": 166,
          "midi": 72,
          "name": "C5",
          "ticks": 166848,
          "time": 245.9352555,
          "velocity": 0.5748031496062992
        },
        {
          "duration": 0.22699720312502336,
          "durationTicks": 154,
          "midi": 76,
          "name": "E5",
          "ticks": 167042,
          "time": 246.221213015625,
          "velocity": 0.6456692913385826
        },
        {
          "duration": 0.25058132812498,
          "durationTicks": 170,
          "midi": 77,
          "name": "F5",
          "ticks": 167232,
          "time": 246.50127450000002,
          "velocity": 0.7165354330708661
        },
        {
          "duration": 0.24468529687499085,
          "durationTicks": 166,
          "midi": 72,
          "name": "C5",
          "ticks": 167420,
          "time": 246.77838796875002,
          "velocity": 0.5748031496062992
        },
        {
          "duration": 0.22994521875000373,
          "durationTicks": 156,
          "midi": 76,
          "name": "E5",
          "ticks": 167612,
          "time": 247.06139746875002,
          "velocity": 0.6456692913385826
        },
        {
          "duration": 0.24173728124998206,
          "durationTicks": 164,
          "midi": 77,
          "name": "F5",
          "ticks": 167808,
          "time": 247.35030300000003,
          "velocity": 0.7086614173228346
        },
        {
          "duration": 0.2682694218750328,
          "durationTicks": 182,
          "midi": 72,
          "name": "C5",
          "ticks": 167996,
          "time": 247.62741646875,
          "velocity": 0.6456692913385826
        },
        {
          "duration": 0.2152051406249882,
          "durationTicks": 146,
          "midi": 76,
          "name": "E5",
          "ticks": 168198,
          "time": 247.92516604687503,
          "velocity": 0.7165354330708661
        },
        {
          "duration": 0.2682694218750328,
          "durationTicks": 182,
          "midi": 77,
          "name": "F5",
          "ticks": 168386,
          "time": 248.202279515625,
          "velocity": 0.6456692913385826
        },
        {
          "duration": 0.2387892656250017,
          "durationTicks": 162,
          "midi": 72,
          "name": "C5",
          "ticks": 168578,
          "time": 248.485289015625,
          "velocity": 0.5748031496062992
        },
        {
          "duration": 0.2358412499999929,
          "durationTicks": 160,
          "midi": 76,
          "name": "E5",
          "ticks": 168770,
          "time": 248.76829851562502,
          "velocity": 0.5433070866141733
        }
      ],
      "endOfTrackTicks": 168960
    },
    {
      "channel": 1,
      "controlChanges": {
        "11": [
          {
            "number": 11,
            "ticks": 163672,
            "time": 241.25380668750003,
            "value": 0.9921259842519685
          },
          {
            "number": 11,
            "ticks": 163696,
            "time": 241.28918287500002,
            "value": 0.984251968503937
          },
          {
            "number": 11,
            "ticks": 163716,
            "time": 241.31866303125003,
            "value": 0.9763779527559056
          },
          {
            "number": 11,
            "ticks": 163736,
            "time": 241.3481431875,
            "value": 0.968503937007874
          },
          {
            "number": 11,
            "ticks": 163760,
            "time": 241.38351937500002,
            "value": 0.9606299212598425
          },
          {
            "number": 11,
            "ticks": 163782,
            "time": 241.41594754687503,
            "value": 0.952755905511811
          },
          {
            "number": 11,
            "ticks": 163804,
            "time": 241.44837571875004,
            "value": 0.9448818897637795
          },
          {
            "number": 11,
            "ticks": 163822,
            "time": 241.47490785937504,
            "value": 0.937007874015748
          },
          {
            "number": 11,
            "ticks": 163850,
            "time": 241.51618007812502,
            "value": 0.9291338582677166
          },
          {
            "number": 11,
            "ticks": 163874,
            "time": 241.551556265625,
            "value": 0.9212598425196851
          },
          {
            "number": 11,
            "ticks": 163910,
            "time": 241.604620546875,
            "value": 0.9133858267716536
          },
          {
            "number": 11,
            "ticks": 163932,
            "time": 241.63704871875,
            "value": 0.905511811023622
          },
          {
            "number": 11,
            "ticks": 163952,
            "time": 241.666528875,
            "value": 0.8976377952755905
          },
          {
            "number": 11,
            "ticks": 163972,
            "time": 241.69600903125004,
            "value": 0.889763779527559
          },
          {
            "number": 11,
            "ticks": 163988,
            "time": 241.71959315625,
            "value": 0.8818897637795275
          },
          {
            "number": 11,
            "ticks": 164012,
            "time": 241.75496934375002,
            "value": 0.8740157480314961
          },
          {
            "number": 11,
            "ticks": 164044,
            "time": 241.80213759375002,
            "value": 0.8661417322834646
          },
          {
            "number": 11,
            "ticks": 164066,
            "time": 241.834565765625,
            "value": 0.8582677165354331
          },
          {
            "number": 11,
            "ticks": 164094,
            "time": 241.875837984375,
            "value": 0.8503937007874016
          },
          {
            "number": 11,
            "ticks": 164120,
            "time": 241.9141621875,
            "value": 0.84251968503937
          },
          {
            "number": 11,
            "ticks": 164150,
            "time": 241.958382421875,
            "value": 0.8346456692913385
          },
          {
            "number": 11,
            "ticks": 164174,
            "time": 241.99375860937502,
            "value": 0.8267716535433071
          },
          {
            "number": 11,
            "ticks": 164198,
            "time": 242.029134796875,
            "value": 0.8188976377952756
          },
          {
            "number": 11,
            "ticks": 164224,
            "time": 242.06745900000004,
            "value": 0.8110236220472441
          },
          {
            "number": 11,
            "ticks": 164252,
            "time": 242.10873121875002,
            "value": 0.8031496062992126
          },
          {
            "number": 11,
            "ticks": 164282,
            "time": 242.152951453125,
            "value": 0.7952755905511811
          },
          {
            "number": 11,
            "ticks": 164314,
            "time": 242.20011970312504,
            "value": 0.7874015748031497
          },
          {
            "number": 11,
            "ticks": 164342,
            "time": 242.24139192187502,
            "value": 0.7795275590551181
          },
          {
            "number": 11,
            "ticks": 164376,
            "time": 242.29150818750003,
            "value": 0.7716535433070866
          },
          {
            "number": 11,
            "ticks": 164410,
            "time": 242.34162445312504,
            "value": 0.7637795275590551
          },
          {
            "number": 11,
            "ticks": 164454,
            "time": 242.40648079687503,
            "value": 0.7559055118110236
          },
          {
            "number": 11,
            "ticks": 164488,
            "time": 242.45659706250004,
            "value": 0.7480314960629921
          },
          {
            "number": 11,
            "ticks": 164510,
            "time": 242.48902523437502,
            "value": 0.7401574803149606
          },
          {
            "number": 11,
            "ticks": 164546,
            "time": 242.542089515625,
            "value": 0.7322834645669292
          },
          {
            "number": 11,
            "ticks": 164576,
            "time": 242.58630975,
            "value": 0.7244094488188977
          },
          {
            "number": 11,
            "ticks": 164610,
            "time": 242.63642601562503,
            "value": 0.7165354330708661
          },
          {
            "number": 11,
            "ticks": 164650,
            "time": 242.69538632812504,
            "value": 0.7086614173228346
          },
          {
            "number": 11,
            "ticks": 164692,
            "time": 242.75729465625002,
            "value": 0.7007874015748031
          },
          {
            "number": 11,
            "ticks": 164736,
            "time": 242.82215100000002,
            "value": 0.6929133858267716
          },
          {
            "number": 11,
            "ticks": 164760,
            "time": 242.8575271875,
            "value": 0.6850393700787402
          },
          {
            "number": 11,
            "ticks": 164784,
            "time": 242.89290337500003,
            "value": 0.6771653543307087
          },
          {
            "number": 11,
            "ticks": 164812,
            "time": 242.93417559375004,
            "value": 0.6692913385826772
          },
          {
            "number": 11,
            "ticks": 164846,
            "time": 242.98429185937502,
            "value": 0.6614173228346457
          },
          {
            "number": 11,
            "ticks": 164870,
            "time": 243.019668046875,
            "value": 0.6535433070866141
          },
          {
            "number": 11,
            "ticks": 164904,
            "time": 243.06978431250002,
            "value": 0.6456692913385826
          },
          {
            "number": 11,
            "ticks": 164936,
            "time": 243.11695256250002,
            "value": 0.6377952755905512
          },
          {
            "number": 11,
            "ticks": 164956,
            "time": 243.14643271875002,
            "value": 0.6299212598425197
          },
          {
            "number": 11,
            "ticks": 164978,
            "time": 243.178860890625,
            "value": 0.6220472440944882
          },
          {
            "number": 11,
            "ticks": 164998,
            "time": 243.20834104687503,
            "value": 0.6141732283464567
          },
          {
            "number": 11,
            "ticks": 165026,
            "time": 243.24961326562502,
            "value": 0.6062992125984252
          },
          {
            "number": 11,
            "ticks": 165044,
            "time": 243.27614540625,
            "value": 0.5984251968503937
          },
          {
            "number": 11,
            "ticks": 165072,
            "time": 243.31741762500002,
            "value": 0.5905511811023622
          },
          {
            "number": 11,
            "ticks": 165098,
            "time": 243.35574182812502,
            "value": 0.5826771653543307
          },
          {
            "number": 11,
            "ticks": 165130,
            "time": 243.40291007812505,
            "value": 0.5748031496062992
          },
          {
            "number": 11,
            "ticks": 165160,
            "time": 243.44713031250004,
            "value": 0.5669291338582677
          },
          {
            "number": 11,
            "ticks": 165178,
            "time": 243.47366245312503,
            "value": 0.5590551181102362
          },
          {
            "number": 11,
            "ticks": 165214,
            "time": 243.52672673437505,
            "value": 0.5511811023622047
          },
          {
            "number": 11,
            "ticks": 165244,
            "time": 243.57094696875004,
            "value": 0.5433070866141733
          },
          {
            "number": 11,
            "ticks": 165280,
            "time": 243.62401125000002,
            "value": 0.5354330708661418
          },
          {
            "number": 11,
            "ticks": 165306,
            "time": 243.66233545312502,
            "value": 0.5275590551181102
          },
          {
            "number": 11,
            "ticks": 165342,
            "time": 243.715399734375,
            "value": 0.5196850393700787
          },
          {
            "number": 11,
            "ticks": 165382,
            "time": 243.77436004687505,
            "value": 0.5118110236220472
          },
          {
            "number": 11,
            "ticks": 165422,
            "time": 243.83332035937502,
            "value": 0.5039370078740157
          },
          {
            "number": 11,
            "ticks": 165470,
            "time": 243.904072734375,
            "value": 0.49606299212598426
          },
          {
            "number": 11,
            "ticks": 165512,
            "time": 243.96598106250002,
            "value": 0.4881889763779528
          },
          {
            "number": 11,
            "ticks": 165562,
            "time": 244.03968145312504,
            "value": 0.48031496062992124
          },
          {
            "number": 11,
            "ticks": 165600,
            "time": 244.09569375,
            "value": 0.47244094488188976
          },
          {
            "number": 11,
            "ticks": 165686,
            "time": 244.22245842187502,
            "value": 0.4645669291338583
          },
          {
            "number": 11,
            "ticks": 165724,
            "time": 244.27847071875004,
            "value": 0.4566929133858268
          },
          {
            "number": 11,
            "ticks": 165752,
            "time": 244.31974293750002,
            "value": 0.44881889763779526
          },
          {
            "number": 11,
            "ticks": 165774,
            "time": 244.35217110937504,
            "value": 0.4409448818897638
          },
          {
            "number": 11,
            "ticks": 165790,
            "time": 244.37575523437502,
            "value": 0.4330708661417323
          },
          {
            "number": 11,
            "ticks": 165816,
            "time": 244.41407943750002,
            "value": 0.4251968503937008
          },
          {
            "number": 11,
            "ticks": 165834,
            "time": 244.44061157812502,
            "value": 0.41732283464566927
          },
          {
            "number": 11,
            "ticks": 165854,
            "time": 244.47009173437502,
            "value": 0.4094488188976378
          },
          {
            "number": 11,
            "ticks": 165868,
            "time": 244.49072784375002,
            "value": 0.4015748031496063
          },
          {
            "number": 11,
            "ticks": 165886,
            "time": 244.51725998437504,
            "value": 0.3937007874015748
          },
          {
            "number": 11,
            "ticks": 165900,
            "time": 244.53789609375002,
            "value": 0.3858267716535433
          },
          {
            "number": 11,
            "ticks": 165922,
            "time": 244.57032426562503,
            "value": 0.3779527559055118
          },
          {
            "number": 11,
            "ticks": 165948,
            "time": 244.60864846875003,
            "value": 0.3700787401574803
          },
          {
            "number": 11,
            "ticks": 165970,
            "time": 244.64107664062504,
            "value": 0.36220472440944884
          },
          {
            "number": 11,
            "ticks": 165988,
            "time": 244.66760878125004,
            "value": 0.3543307086614173
          },
          {
            "number": 11,
            "ticks": 166010,
            "time": 244.70003695312502,
            "value": 0.3464566929133858
          },
          {
            "number": 11,
            "ticks": 166042,
            "time": 244.74720520312502,
            "value": 0.33858267716535434
          },
          {
            "number": 11,
            "ticks": 166072,
            "time": 244.79142543750004,
            "value": 0.33070866141732286
          },
          {
            "number": 11,
            "ticks": 166100,
            "time": 244.83269765625002,
            "value": 0.3228346456692913
          },
          {
            "number": 11,
            "ticks": 166126,
            "time": 244.87102185937502,
            "value": 0.31496062992125984
          },
          {
            "number": 11,
            "ticks": 166154,
            "time": 244.912294078125,
            "value": 0.30708661417322836
          },
          {
            "number": 11,
            "ticks": 166202,
            "time": 244.983046453125,
            "value": 0.2992125984251969
          },
          {
            "number": 11,
            "ticks": 166230,
            "time": 245.02431867187502,
            "value": 0.29133858267716534
          },
          {
            "number": 11,
            "ticks": 166264,
            "time": 245.07443493750003,
            "value": 0.28346456692913385
          },
          {
            "number": 11,
            "ticks": 166314,
            "time": 245.14813532812502,
            "value": 0.2755905511811024
          },
          {
            "number": 11,
            "ticks": 166348,
            "time": 245.19825159375003,
            "value": 0.2677165354330709
          },
          {
            "number": 11,
            "ticks": 166380,
            "time": 245.24541984375003,
            "value": 0.25984251968503935
          },
          {
            "number": 11,
            "ticks": 166414,
            "time": 245.29553610937504,
            "value": 0.25196850393700787
          },
          {
            "number": 11,
            "ticks": 166438,
            "time": 245.33091229687503,
            "value": 0.2440944881889764
          },
          {
            "number": 11,
            "ticks": 166484,
            "time": 245.39871665625,
            "value": 0.23622047244094488
          },
          {
            "number": 11,
            "ticks": 166518,
            "time": 245.448832921875,
            "value": 0.2283464566929134
          },
          {
            "number": 11,
            "ticks": 166548,
            "time": 245.49305315625003,
            "value": 0.2204724409448819
          },
          {
            "number": 11,
            "ticks": 166574,
            "time": 245.531377359375,
            "value": 0.2125984251968504
          },
          {
            "number": 11,
            "ticks": 166592,
            "time": 245.55790950000002,
            "value": 0.2047244094488189
          },
          {
            "number": 11,
            "ticks": 166622,
            "time": 245.602129734375,
            "value": 0.1968503937007874
          },
          {
            "number": 11,
            "ticks": 166660,
            "time": 245.65814203125004,
            "value": 0.1889763779527559
          },
          {
            "number": 11,
            "ticks": 166688,
            "time": 245.69941425000002,
            "value": 0.18110236220472442
          },
          {
            "number": 11,
            "ticks": 166714,
            "time": 245.73773845312502,
            "value": 0.1732283464566929
          },
          {
            "number": 11,
            "ticks": 166744,
            "time": 245.78195868750004,
            "value": 0.16535433070866143
          },
          {
            "number": 11,
            "ticks": 166770,
            "time": 245.820282890625,
            "value": 0.15748031496062992
          },
          {
            "number": 11,
            "ticks": 166792,
            "time": 245.85271106250002,
            "value": 0.14960629921259844
          },
          {
            "number": 11,
            "ticks": 166808,
            "time": 245.8762951875,
            "value": 0.14173228346456693
          },
          {
            "number": 11,
            "ticks": 166824,
            "time": 245.89987931250002,
            "value": 0.13385826771653545
          },
          {
            "number": 11,
            "ticks": 166836,
            "time": 245.91756740625001,
            "value": 0.12598425196850394
          },
          {
            "number": 11,
            "ticks": 166850,
            "time": 245.93820351562502,
            "value": 0.11811023622047244
          },
          {
            "number": 11,
            "ticks": 166862,
            "time": 245.95589160937502,
            "value": 0.11023622047244094
          },
          {
            "number": 11,
            "ticks": 166872,
            "time": 245.97063168750003,
            "value": 0.10236220472440945
          },
          {
            "number": 11,
            "ticks": 166888,
            "time": 245.99421581250004,
            "value": 0.09448818897637795
          },
          {
            "number": 11,
            "ticks": 166900,
            "time": 246.01190390625004,
            "value": 0.08661417322834646
          },
          {
            "number": 11,
            "ticks": 166914,
            "time": 246.03254001562502,
            "value": 0.07874015748031496
          },
          {
            "number": 11,
            "ticks": 166926,
            "time": 246.050228109375,
            "value": 0.07086614173228346
          },
          {
            "number": 11,
            "ticks": 166944,
            "time": 246.07676025000004,
            "value": 0.06299212598425197
          },
          {
            "number": 11,
            "ticks": 166962,
            "time": 246.10329239062503,
            "value": 0.05511811023622047
          },
          {
            "number": 11,
            "ticks": 166978,
            "time": 246.12687651562504,
            "value": 0.047244094488188976
          },
          {
            "number": 11,
            "ticks": 166990,
            "time": 246.14456460937504,
            "value": 0.03937007874015748
          },
          {
            "number": 11,
            "ticks": 167006,
            "time": 246.16814873437502,
            "value": 0.031496062992125984
          },
          {
            "number": 11,
            "ticks": 167028,
            "time": 246.20057690625003,
            "value": 0.023622047244094488
          },
          {
            "number": 11,
            "ticks": 167036,
            "time": 246.21236896875,
            "value": 0.015748031496062992
          },
          {
            "number": 11,
            "ticks": 167056,
            "time": 246.24184912500004,
            "value": 0.007874015748031496
          },
          {
            "number": 11,
            "ticks": 167268,
            "time": 246.55433878125,
            "value": 0
          }
        ]
      },
      "pitchBends": [
        {
          "ticks": 16688,
          "time": 24.598242375000005,
          "value": -0.037109375
        },
        {
          "ticks": 16700,
          "time": 24.615930468750005,
          "value": -0.1112060546875
        },
        {
          "ticks": 16708,
          "time": 24.62772253125,
          "value": -0.2130126953125
        },
        {
          "ticks": 16720,
          "time": 24.645410625,
          "value": -0.3056640625
        },
        {
          "ticks": 16728,
          "time": 24.657202687500003,
          "value": -0.379638671875
        },
        {
          "ticks": 16740,
          "time": 24.674890781250003,
          "value": -0.435302734375
        },
        {
          "ticks": 16748,
          "time": 24.686682843750003,
          "value": -0.4908447265625
        },
        {
          "ticks": 16760,
          "time": 24.704370937500002,
          "value": -0.5185546875
        },
        {
          "ticks": 16768,
          "time": 24.716163,
          "value": -0.5833740234375
        },
        {
          "ticks": 16780,
          "time": 24.73385109375,
          "value": -0.648193359375
        },
        {
          "ticks": 16788,
          "time": 24.74564315625,
          "value": -0.7037353515625
        },
        {
          "ticks": 16800,
          "time": 24.763331250000004,
          "value": -0.75927734375
        },
        {
          "ticks": 16808,
          "time": 24.775123312500003,
          "value": -0.8240966796875
        },
        {
          "ticks": 16820,
          "time": 24.792811406250003,
          "value": -0.8612060546875
        },
        {
          "ticks": 16828,
          "time": 24.804603468750003,
          "value": -0.907470703125
        },
        {
          "ticks": 16840,
          "time": 24.822291562500002,
          "value": -0.9630126953125
        },
        {
          "ticks": 16848,
          "time": 24.834083625,
          "value": -1
        },
        {
          "ticks": 16900,
          "time": 24.91073203125,
          "value": -0.9722900390625
        },
        {
          "ticks": 16908,
          "time": 24.922524093750003,
          "value": -0.75927734375
        },
        {
          "ticks": 16920,
          "time": 24.940212187500002,
          "value": -0.4630126953125
        },
        {
          "ticks": 16928,
          "time": 24.952004250000005,
          "value": -0.0833740234375
        },
        {
          "ticks": 16940,
          "time": 24.969692343750005,
          "value": 0
        },
        {
          "ticks": 28976,
          "time": 42.710850375,
          "value": -0.037109375
        },
        {
          "ticks": 28988,
          "time": 42.72853846875,
          "value": -0.1112060546875
        },
        {
          "ticks": 28996,
          "time": 42.74033053125001,
          "value": -0.2130126953125
        },
        {
          "ticks": 29008,
          "time": 42.758018625000005,
          "value": -0.3056640625
        },
        {
          "ticks": 29016,
          "time": 42.769810687500005,
          "value": -0.379638671875
        },
        {
          "ticks": 29028,
          "time": 42.78749878125,
          "value": -0.435302734375
        },
        {
          "ticks": 29036,
          "time": 42.79929084375,
          "value": -0.4908447265625
        },
        {
          "ticks": 29048,
          "time": 42.816978937500004,
          "value": -0.5185546875
        },
        {
          "ticks": 29056,
          "time": 42.828771,
          "value": -0.5833740234375
        },
        {
          "ticks": 29068,
          "time": 42.846459093750006,
          "value": -0.648193359375
        },
        {
          "ticks": 29076,
          "time": 42.858251156250006,
          "value": -0.7037353515625
        },
        {
          "ticks": 29088,
          "time": 42.87593925,
          "value": -0.75927734375
        },
        {
          "ticks": 29096,
          "time": 42.8877313125,
          "value": -0.8240966796875
        },
        {
          "ticks": 29108,
          "time": 42.905419406250004,
          "value": -0.8612060546875
        },
        {
          "ticks": 29116,
          "time": 42.917211468750004,
          "value": -0.907470703125
        },
        {
          "ticks": 29128,
          "time": 42.93489956250001,
          "value": -0.9630126953125
        },
        {
          "ticks": 29136,
          "time": 42.94669162500001,
          "value": -1
        },
        {
          "ticks": 29188,
          "time": 43.02334003125001,
          "value": -0.9722900390625
        },
        {
          "ticks": 29196,
          "time": 43.03513209375,
          "value": -0.75927734375
        },
        {
          "ticks": 29208,
          "time": 43.052820187500004,
          "value": -0.4630126953125
        },
        {
          "ticks": 29216,
          "time": 43.06461225,
          "value": -0.0833740234375
        },
        {
          "ticks": 29228,
          "time": 43.08230034375,
          "value": 0
        },
        {
          "ticks": 35120,
          "time": 51.767154375000004,
          "value": -0.037109375
        },
        {
          "ticks": 35132,
          "time": 51.78484246875,
          "value": -0.1112060546875
        },
        {
          "ticks": 35140,
          "time": 51.79663453125001,
          "value": -0.2130126953125
        },
        {
          "ticks": 35152,
          "time": 51.81432262500001,
          "value": -0.3056640625
        },
        {
          "ticks": 35160,
          "time": 51.8261146875,
          "value": -0.379638671875
        },
        {
          "ticks": 35172,
          "time": 51.843802781250005,
          "value": -0.435302734375
        },
        {
          "ticks": 35180,
          "time": 51.855594843750005,
          "value": -0.4908447265625
        },
        {
          "ticks": 35192,
          "time": 51.8732829375,
          "value": -0.5185546875
        },
        {
          "ticks": 35200,
          "time": 51.88507500000001,
          "value": -0.5833740234375
        },
        {
          "ticks": 35212,
          "time": 51.90276309375001,
          "value": -0.648193359375
        },
        {
          "ticks": 35220,
          "time": 51.91455515625,
          "value": -0.7037353515625
        },
        {
          "ticks": 35232,
          "time": 51.932243250000006,
          "value": -0.75927734375
        },
        {
          "ticks": 35240,
          "time": 51.9440353125,
          "value": -0.8240966796875
        },
        {
          "ticks": 35252,
          "time": 51.96172340625,
          "value": -0.8612060546875
        },
        {
          "ticks": 35260,
          "time": 51.97351546875001,
          "value": -0.907470703125
        },
        {
          "ticks": 35272,
          "time": 51.991203562500004,
          "value": -0.9630126953125
        },
        {
          "ticks": 35280,
          "time": 52.002995625000004,
          "value": -1
        },
        {
          "ticks": 35332,
          "time": 52.079644031250005,
          "value": -0.9722900390625
        },
        {
          "ticks": 35340,
          "time": 52.091436093750005,
          "value": -0.75927734375
        },
        {
          "ticks": 35352,
          "time": 52.10912418750001,
          "value": -0.4630126953125
        },
        {
          "ticks": 35360,
          "time": 52.12091625,
          "value": -0.0833740234375
        },
        {
          "ticks": 35372,
          "time": 52.13860434375,
          "value": 0
        },
        {
          "ticks": 41264,
          "time": 60.823458375,
          "value": -0.037109375
        },
        {
          "ticks": 41276,
          "time": 60.841146468750004,
          "value": -0.1112060546875
        },
        {
          "ticks": 41284,
          "time": 60.85293853125001,
          "value": -0.2130126953125
        },
        {
          "ticks": 41296,
          "time": 60.87062662500001,
          "value": -0.3056640625
        },
        {
          "ticks": 41304,
          "time": 60.88241868750001,
          "value": -0.379638671875
        },
        {
          "ticks": 41316,
          "time": 60.90010678125,
          "value": -0.435302734375
        },
        {
          "ticks": 41324,
          "time": 60.91189884375,
          "value": -0.4908447265625
        },
        {
          "ticks": 41336,
          "time": 60.929586937500005,
          "value": -0.5185546875
        },
        {
          "ticks": 41344,
          "time": 60.941379000000005,
          "value": -0.5833740234375
        },
        {
          "ticks": 41356,
          "time": 60.95906709375001,
          "value": -0.648193359375
        },
        {
          "ticks": 41364,
          "time": 60.97085915625001,
          "value": -0.7037353515625
        },
        {
          "ticks": 41376,
          "time": 60.98854725,
          "value": -0.75927734375
        },
        {
          "ticks": 41384,
          "time": 61.0003393125,
          "value": -0.8240966796875
        },
        {
          "ticks": 41396,
          "time": 61.018027406250006,
          "value": -0.8612060546875
        },
        {
          "ticks": 41404,
          "time": 61.029819468750006,
          "value": -0.907470703125
        },
        {
          "ticks": 41416,
          "time": 61.04750756250001,
          "value": -0.9630126953125
        },
        {
          "ticks": 41424,
          "time": 61.05929962500001,
          "value": -1
        },
        {
          "ticks": 41476,
          "time": 61.13594803125001,
          "value": -0.9722900390625
        },
        {
          "ticks": 41484,
          "time": 61.14774009375,
          "value": -0.75927734375
        },
        {
          "ticks": 41496,
          "time": 61.165428187500005,
          "value": -0.4630126953125
        },
        {
          "ticks": 41504,
          "time": 61.177220250000005,
          "value": -0.0833740234375
        },
        {
          "ticks": 41516,
          "time": 61.19490834375,
          "value": 0
        },
        {
          "ticks": 47440,
          "time": 69.92693062500001,
          "value": -0.03125
        },
        {
          "ticks": 47444,
          "time": 69.93282665625,
          "value": -0.046875
        },
        {
          "ticks": 47448,
          "time": 69.9387226875,
          "value": -0.078125
        },
        {
          "ticks": 47452,
          "time": 69.94461871875001,
          "value": -0.09375
        },
        {
          "ticks": 47456,
          "time": 69.95051475,
          "value": -0.125
        },
        {
          "ticks": 47460,
          "time": 69.95641078125,
          "value": -0.15625
        },
        {
          "ticks": 47464,
          "time": 69.9623068125,
          "value": -0.1875
        },
        {
          "ticks": 47468,
          "time": 69.96820284375,
          "value": -0.21875
        },
        {
          "ticks": 47472,
          "time": 69.97409887500001,
          "value": -0.25
        },
        {
          "ticks": 47476,
          "time": 69.97999490625001,
          "value": -0.265625
        },
        {
          "ticks": 47478,
          "time": 69.98294292187501,
          "value": -0.296875
        },
        {
          "ticks": 47486,
          "time": 69.994734984375,
          "value": -0.34375
        },
        {
          "ticks": 47490,
          "time": 70.000631015625,
          "value": -0.359375
        },
        {
          "ticks": 47494,
          "time": 70.00652704687501,
          "value": -0.390625
        },
        {
          "ticks": 47498,
          "time": 70.01242307812501,
          "value": -0.421875
        },
        {
          "ticks": 47502,
          "time": 70.018319109375,
          "value": -0.4375
        },
        {
          "ticks": 47506,
          "time": 70.024215140625,
          "value": -0.453125
        },
        {
          "ticks": 47510,
          "time": 70.030111171875,
          "value": -0.484375
        },
        {
          "ticks": 47514,
          "time": 70.03600720312501,
          "value": -0.5
        },
        {
          "ticks": 47518,
          "time": 70.04190323437501,
          "value": -0.53125
        },
        {
          "ticks": 47520,
          "time": 70.04485125000001,
          "value": -0.5625
        },
        {
          "ticks": 47524,
          "time": 70.05074728125001,
          "value": -0.59375
        },
        {
          "ticks": 47530,
          "time": 70.05959132812501,
          "value": -0.609375
        },
        {
          "ticks": 47532,
          "time": 70.06253934375,
          "value": -0.640625
        },
        {
          "ticks": 47536,
          "time": 70.068435375,
          "value": -0.671875
        },
        {
          "ticks": 47540,
          "time": 70.07433140625001,
          "value": -0.703125
        },
        {
          "ticks": 47546,
          "time": 70.08317545312501,
          "value": -0.734375
        },
        {
          "ticks": 47548,
          "time": 70.08612346875,
          "value": -0.765625
        },
        {
          "ticks": 47552,
          "time": 70.0920195,
          "value": -0.796875
        },
        {
          "ticks": 47554,
          "time": 70.09496751562502,
          "value": -0.84375
        },
        {
          "ticks": 47560,
          "time": 70.10381156250001,
          "value": -0.875
        },
        {
          "ticks": 47564,
          "time": 70.10970759375,
          "value": -0.921875
        },
        {
          "ticks": 47566,
          "time": 70.11265560937501,
          "value": -0.96875
        },
        {
          "ticks": 47572,
          "time": 70.12149965625001,
          "value": -1
        },
        {
          "ticks": 47614,
          "time": 70.18340798437501,
          "value": 0
        },
        {
          "ticks": 54808,
          "time": 80.7874201875,
          "value": -0.03125
        },
        {
          "ticks": 54810,
          "time": 80.79036820312501,
          "value": -0.078125
        },
        {
          "ticks": 54814,
          "time": 80.796264234375,
          "value": -0.109375
        },
        {
          "ticks": 54818,
          "time": 80.80216026562502,
          "value": -0.140625
        },
        {
          "ticks": 54820,
          "time": 80.80510828125,
          "value": -0.1875
        },
        {
          "ticks": 54824,
          "time": 80.81100431250002,
          "value": -0.21875
        },
        {
          "ticks": 54830,
          "time": 80.81984835937502,
          "value": -0.25
        },
        {
          "ticks": 54832,
          "time": 80.822796375,
          "value": -0.328125
        },
        {
          "ticks": 54840,
          "time": 80.8345884375,
          "value": -0.359375
        },
        {
          "ticks": 54842,
          "time": 80.83753645312501,
          "value": -0.40625
        },
        {
          "ticks": 54846,
          "time": 80.843432484375,
          "value": -0.4375
        },
        {
          "ticks": 54850,
          "time": 80.849328515625,
          "value": -0.515625
        },
        {
          "ticks": 54858,
          "time": 80.86112057812501,
          "value": -0.5625
        },
        {
          "ticks": 54860,
          "time": 80.86406859375002,
          "value": -0.59375
        },
        {
          "ticks": 54862,
          "time": 80.867016609375,
          "value": -0.640625
        },
        {
          "ticks": 54870,
          "time": 80.878808671875,
          "value": -0.6875
        },
        {
          "ticks": 54872,
          "time": 80.88175668750002,
          "value": -0.734375
        },
        {
          "ticks": 54874,
          "time": 80.884704703125,
          "value": -0.796875
        },
        {
          "ticks": 54876,
          "time": 80.88765271875,
          "value": -0.84375
        },
        {
          "ticks": 54884,
          "time": 80.89944478125001,
          "value": -0.890625
        },
        {
          "ticks": 54888,
          "time": 80.9053408125,
          "value": -0.953125
        },
        {
          "ticks": 54890,
          "time": 80.90828882812501,
          "value": -0.984375
        },
        {
          "ticks": 54894,
          "time": 80.91418485937501,
          "value": -1
        },
        {
          "ticks": 54908,
          "time": 80.93482096875002,
          "value": 0
        },
        {
          "ticks": 59750,
          "time": 88.07196679687502,
          "value": -0.03125
        },
        {
          "ticks": 59754,
          "time": 88.077862828125,
          "value": -0.0625
        },
        {
          "ticks": 59762,
          "time": 88.08965489062501,
          "value": -0.078125
        },
        {
          "ticks": 59766,
          "time": 88.095550921875,
          "value": -0.140625
        },
        {
          "ticks": 59770,
          "time": 88.101446953125,
          "value": -0.15625
        },
        {
          "ticks": 59772,
          "time": 88.10439496875001,
          "value": -0.1875
        },
        {
          "ticks": 59776,
          "time": 88.110291,
          "value": -0.203125
        },
        {
          "ticks": 59780,
          "time": 88.11618703125,
          "value": -0.234375
        },
        {
          "ticks": 59782,
          "time": 88.119135046875,
          "value": -0.265625
        },
        {
          "ticks": 59786,
          "time": 88.12503107812502,
          "value": -0.28125
        },
        {
          "ticks": 59790,
          "time": 88.13092710937501,
          "value": -0.3125
        },
        {
          "ticks": 59794,
          "time": 88.136823140625,
          "value": -0.328125
        },
        {
          "ticks": 59796,
          "time": 88.13977115625,
          "value": -0.359375
        },
        {
          "ticks": 59802,
          "time": 88.148615203125,
          "value": -0.375
        },
        {
          "ticks": 59806,
          "time": 88.15451123437501,
          "value": -0.40625
        },
        {
          "ticks": 59810,
          "time": 88.16040726562501,
          "value": -0.4375
        },
        {
          "ticks": 59812,
          "time": 88.16335528125,
          "value": -0.46875
        },
        {
          "ticks": 59818,
          "time": 88.172199328125,
          "value": -0.515625
        },
        {
          "ticks": 59820,
          "time": 88.17514734375001,
          "value": -0.546875
        },
        {
          "ticks": 59824,
          "time": 88.181043375,
          "value": -0.59375
        },
        {
          "ticks": 59828,
          "time": 88.18693940625002,
          "value": -0.640625
        },
        {
          "ticks": 59832,
          "time": 88.19283543750001,
          "value": -0.6875
        },
        {
          "ticks": 59836,
          "time": 88.19873146875,
          "value": -0.75
        },
        {
          "ticks": 59840,
          "time": 88.20462750000002,
          "value": -0.796875
        },
        {
          "ticks": 59844,
          "time": 88.21052353125,
          "value": -0.875
        },
        {
          "ticks": 59848,
          "time": 88.21641956250001,
          "value": -0.9375
        },
        {
          "ticks": 59850,
          "time": 88.219367578125,
          "value": -1
        },
        {
          "ticks": 59900,
          "time": 88.29306796875001,
          "value": 0
        },
        {
          "ticks": 65620,
          "time": 96.72439265625,
          "value": -0.0648193359375
        },
        {
          "ticks": 65628,
          "time": 96.73618471875001,
          "value": -0.2315673828125
        },
        {
          "ticks": 65640,
          "time": 96.7538728125,
          "value": -0.388916015625
        },
        {
          "ticks": 65648,
          "time": 96.76566487500001,
          "value": -0.537109375
        },
        {
          "ticks": 65660,
          "time": 96.78335296875001,
          "value": -0.648193359375
        },
        {
          "ticks": 65668,
          "time": 96.79514503125,
          "value": -0.75
        },
        {
          "ticks": 65680,
          "time": 96.812833125,
          "value": -0.8704833984375
        },
        {
          "ticks": 65688,
          "time": 96.8246251875,
          "value": -0.9537353515625
        },
        {
          "ticks": 65708,
          "time": 96.85410534375,
          "value": -0.9815673828125
        },
        {
          "ticks": 65728,
          "time": 96.88358550000001,
          "value": -0.916748046875
        },
        {
          "ticks": 65736,
          "time": 96.8953775625,
          "value": -0.8056640625
        },
        {
          "ticks": 65748,
          "time": 96.91306565625001,
          "value": -0.6112060546875
        },
        {
          "ticks": 65760,
          "time": 96.93075375000001,
          "value": -0.3333740234375
        },
        {
          "ticks": 65768,
          "time": 96.94254581250001,
          "value": -0.037109375
        },
        {
          "ticks": 65776,
          "time": 96.95433787500001,
          "value": 0
        },
        {
          "ticks": 67360,
          "time": 99.28916625000001,
          "value": -0.0556640625
        },
        {
          "ticks": 67368,
          "time": 99.30095831250001,
          "value": -0.138916015625
        },
        {
          "ticks": 67380,
          "time": 99.31864640625001,
          "value": -0.2685546875
        },
        {
          "ticks": 67388,
          "time": 99.33043846875002,
          "value": -0.3704833984375
        },
        {
          "ticks": 67400,
          "time": 99.34812656250001,
          "value": -0.4630126953125
        },
        {
          "ticks": 67408,
          "time": 99.359918625,
          "value": -0.54638671875
        },
        {
          "ticks": 67420,
          "time": 99.37760671875,
          "value": -0.6204833984375
        },
        {
          "ticks": 67428,
          "time": 99.38939878125001,
          "value": -0.6944580078125
        },
        {
          "ticks": 67440,
          "time": 99.407086875,
          "value": -0.79638671875
        },
        {
          "ticks": 67448,
          "time": 99.41887893750001,
          "value": -0.888916015625
        },
        {
          "ticks": 67460,
          "time": 99.43656703125001,
          "value": -1
        },
        {
          "ticks": 67528,
          "time": 99.53679956250001,
          "value": -0.8333740234375
        },
        {
          "ticks": 67536,
          "time": 99.54859162500001,
          "value": -0.4722900390625
        },
        {
          "ticks": 67548,
          "time": 99.56627971875001,
          "value": -0.0185546875
        },
        {
          "ticks": 67560,
          "time": 99.5839678125,
          "value": 0
        },
        {
          "ticks": 72044,
          "time": 106.19341884375001,
          "value": -0.0833740234375
        },
        {
          "ticks": 72056,
          "time": 106.21110693750002,
          "value": -0.2222900390625
        },
        {
          "ticks": 72064,
          "time": 106.222899,
          "value": -0.398193359375
        },
        {
          "ticks": 72076,
          "time": 106.24058709375001,
          "value": -0.537109375
        },
        {
          "ticks": 72084,
          "time": 106.25237915625002,
          "value": -0.676025390625
        },
        {
          "ticks": 72092,
          "time": 106.26417121875002,
          "value": -0.787109375
        },
        {
          "ticks": 72104,
          "time": 106.28185931250002,
          "value": -0.916748046875
        },
        {
          "ticks": 72112,
          "time": 106.29365137500001,
          "value": -0.9815673828125
        },
        {
          "ticks": 72124,
          "time": 106.31133946875,
          "value": -1
        },
        {
          "ticks": 72144,
          "time": 106.34081962500001,
          "value": -0.9815673828125
        },
        {
          "ticks": 72152,
          "time": 106.35261168750002,
          "value": -0.907470703125
        },
        {
          "ticks": 72164,
          "time": 106.37029978125001,
          "value": -0.7037353515625
        },
        {
          "ticks": 72172,
          "time": 106.38209184375,
          "value": -0.4444580078125
        },
        {
          "ticks": 72184,
          "time": 106.3997799375,
          "value": -0.1112060546875
        },
        {
          "ticks": 72192,
          "time": 106.411572,
          "value": 0
        },
        {
          "ticks": 81222,
          "time": 119.72186254687502,
          "value": -0.015625
        },
        {
          "ticks": 81226,
          "time": 119.727758578125,
          "value": -0.03125
        },
        {
          "ticks": 81230,
          "time": 119.73365460937502,
          "value": -0.0625
        },
        {
          "ticks": 81234,
          "time": 119.73955064062501,
          "value": -0.078125
        },
        {
          "ticks": 81236,
          "time": 119.74249865625002,
          "value": -0.09375
        },
        {
          "ticks": 81240,
          "time": 119.74839468750001,
          "value": -0.109375
        },
        {
          "ticks": 81244,
          "time": 119.75429071875,
          "value": -0.140625
        },
        {
          "ticks": 81248,
          "time": 119.76018675000002,
          "value": -0.15625
        },
        {
          "ticks": 81252,
          "time": 119.76608278125,
          "value": -0.171875
        },
        {
          "ticks": 81256,
          "time": 119.77197881250001,
          "value": -0.1875
        },
        {
          "ticks": 81258,
          "time": 119.774926828125,
          "value": -0.21875
        },
        {
          "ticks": 81264,
          "time": 119.78377087500002,
          "value": -0.234375
        },
        {
          "ticks": 81268,
          "time": 119.78966690625,
          "value": -0.25
        },
        {
          "ticks": 81270,
          "time": 119.79261492187501,
          "value": -0.28125
        },
        {
          "ticks": 81274,
          "time": 119.798510953125,
          "value": -0.296875
        },
        {
          "ticks": 81278,
          "time": 119.80440698437502,
          "value": -0.3125
        },
        {
          "ticks": 81282,
          "time": 119.81030301562501,
          "value": -0.328125
        },
        {
          "ticks": 81286,
          "time": 119.816199046875,
          "value": -0.34375
        },
        {
          "ticks": 81292,
          "time": 119.82504309375001,
          "value": -0.359375
        },
        {
          "ticks": 81294,
          "time": 119.827991109375,
          "value": -0.375
        },
        {
          "ticks": 81298,
          "time": 119.83388714062501,
          "value": -0.390625
        },
        {
          "ticks": 81302,
          "time": 119.83978317187501,
          "value": -0.40625
        },
        {
          "ticks": 81306,
          "time": 119.84567920312502,
          "value": -0.421875
        },
        {
          "ticks": 81312,
          "time": 119.85452325000001,
          "value": -0.453125
        },
        {
          "ticks": 81316,
          "time": 119.86041928125,
          "value": -0.46875
        },
        {
          "ticks": 81320,
          "time": 119.86631531250002,
          "value": -0.484375
        },
        {
          "ticks": 81324,
          "time": 119.87221134375001,
          "value": -0.5
        },
        {
          "ticks": 81328,
          "time": 119.878107375,
          "value": -0.515625
        },
        {
          "ticks": 81332,
          "time": 119.88400340625002,
          "value": -0.53125
        },
        {
          "ticks": 81336,
          "time": 119.8898994375,
          "value": -0.546875
        },
        {
          "ticks": 81340,
          "time": 119.89579546875001,
          "value": -0.578125
        },
        {
          "ticks": 81344,
          "time": 119.90169150000001,
          "value": -0.609375
        },
        {
          "ticks": 81348,
          "time": 119.90758753125002,
          "value": -0.625
        },
        {
          "ticks": 81352,
          "time": 119.9134835625,
          "value": -0.65625
        },
        {
          "ticks": 81356,
          "time": 119.91937959375002,
          "value": -0.671875
        },
        {
          "ticks": 81358,
          "time": 119.922327609375,
          "value": -0.703125
        },
        {
          "ticks": 81362,
          "time": 119.92822364062502,
          "value": -0.734375
        },
        {
          "ticks": 81366,
          "time": 119.93411967187501,
          "value": -0.78125
        },
        {
          "ticks": 81370,
          "time": 119.940015703125,
          "value": -0.8125
        },
        {
          "ticks": 81374,
          "time": 119.94591173437502,
          "value": -0.859375
        },
        {
          "ticks": 81378,
          "time": 119.951807765625,
          "value": -0.90625
        },
        {
          "ticks": 81382,
          "time": 119.95770379687501,
          "value": -0.953125
        },
        {
          "ticks": 81386,
          "time": 119.96359982812501,
          "value": -0.984375
        },
        {
          "ticks": 81390,
          "time": 119.96949585937502,
          "value": -1
        },
        {
          "ticks": 81404,
          "time": 119.99013196875002,
          "value": 0
        },
        {
          "ticks": 84332,
          "time": 124.30602684375002,
          "value": -0.0833740234375
        },
        {
          "ticks": 84344,
          "time": 124.32371493750001,
          "value": -0.2222900390625
        },
        {
          "ticks": 84352,
          "time": 124.335507,
          "value": -0.398193359375
        },
        {
          "ticks": 84364,
          "time": 124.35319509375,
          "value": -0.537109375
        },
        {
          "ticks": 84372,
          "time": 124.36498715625001,
          "value": -0.676025390625
        },
        {
          "ticks": 84380,
          "time": 124.37677921875002,
          "value": -0.787109375
        },
        {
          "ticks": 84392,
          "time": 124.39446731250001,
          "value": -0.916748046875
        },
        {
          "ticks": 84400,
          "time": 124.406259375,
          "value": -0.9815673828125
        },
        {
          "ticks": 84412,
          "time": 124.42394746875,
          "value": -1
        },
        {
          "ticks": 84432,
          "time": 124.45342762500002,
          "value": -0.9815673828125
        },
        {
          "ticks": 84440,
          "time": 124.46521968750001,
          "value": -0.907470703125
        },
        {
          "ticks": 84452,
          "time": 124.48290778125002,
          "value": -0.7037353515625
        },
        {
          "ticks": 84460,
          "time": 124.49469984375,
          "value": -0.4444580078125
        },
        {
          "ticks": 84472,
          "time": 124.51238793750001,
          "value": -0.1112060546875
        },
        {
          "ticks": 84480,
          "time": 124.52418000000002,
          "value": 0
        },
        {
          "ticks": 90476,
          "time": 133.36233084375002,
          "value": -0.0833740234375
        },
        {
          "ticks": 90488,
          "time": 133.3800189375,
          "value": -0.2222900390625
        },
        {
          "ticks": 90496,
          "time": 133.39181100000002,
          "value": -0.398193359375
        },
        {
          "ticks": 90508,
          "time": 133.40949909375001,
          "value": -0.537109375
        },
        {
          "ticks": 90516,
          "time": 133.42129115625002,
          "value": -0.676025390625
        },
        {
          "ticks": 90524,
          "time": 133.43308321875003,
          "value": -0.787109375
        },
        {
          "ticks": 90536,
          "time": 133.45077131250002,
          "value": -0.916748046875
        },
        {
          "ticks": 90544,
          "time": 133.462563375,
          "value": -0.9815673828125
        },
        {
          "ticks": 90556,
          "time": 133.48025146875,
          "value": -1
        },
        {
          "ticks": 90576,
          "time": 133.509731625,
          "value": -0.9815673828125
        },
        {
          "ticks": 90584,
          "time": 133.5215236875,
          "value": -0.907470703125
        },
        {
          "ticks": 90596,
          "time": 133.53921178125,
          "value": -0.7037353515625
        },
        {
          "ticks": 90604,
          "time": 133.55100384375,
          "value": -0.4444580078125
        },
        {
          "ticks": 90616,
          "time": 133.5686919375,
          "value": -0.1112060546875
        },
        {
          "ticks": 90624,
          "time": 133.580484,
          "value": 0
        },
        {
          "ticks": 93526,
          "time": 137.858054671875,
          "value": -0.015625
        },
        {
          "ticks": 93530,
          "time": 137.86395070312503,
          "value": -0.03125
        },
        {
          "ticks": 93534,
          "time": 137.86984673437502,
          "value": -0.046875
        },
        {
          "ticks": 93538,
          "time": 137.875742765625,
          "value": -0.078125
        },
        {
          "ticks": 93542,
          "time": 137.88163879687502,
          "value": -0.09375
        },
        {
          "ticks": 93546,
          "time": 137.887534828125,
          "value": -0.125
        },
        {
          "ticks": 93550,
          "time": 137.893430859375,
          "value": -0.140625
        },
        {
          "ticks": 93554,
          "time": 137.89932689062502,
          "value": -0.15625
        },
        {
          "ticks": 93556,
          "time": 137.90227490625,
          "value": -0.171875
        },
        {
          "ticks": 93560,
          "time": 137.90817093750002,
          "value": -0.203125
        },
        {
          "ticks": 93564,
          "time": 137.91406696875,
          "value": -0.21875
        },
        {
          "ticks": 93568,
          "time": 137.919963,
          "value": -0.234375
        },
        {
          "ticks": 93572,
          "time": 137.92585903125,
          "value": -0.25
        },
        {
          "ticks": 93576,
          "time": 137.9317550625,
          "value": -0.28125
        },
        {
          "ticks": 93580,
          "time": 137.93765109375002,
          "value": -0.296875
        },
        {
          "ticks": 93584,
          "time": 137.943547125,
          "value": -0.3125
        },
        {
          "ticks": 93588,
          "time": 137.94944315625,
          "value": -0.328125
        },
        {
          "ticks": 93592,
          "time": 137.95533918750002,
          "value": -0.34375
        },
        {
          "ticks": 93594,
          "time": 137.95828720312502,
          "value": -0.359375
        },
        {
          "ticks": 93598,
          "time": 137.964183234375,
          "value": -0.375
        },
        {
          "ticks": 93602,
          "time": 137.97007926562503,
          "value": -0.390625
        },
        {
          "ticks": 93608,
          "time": 137.97892331250003,
          "value": -0.40625
        },
        {
          "ticks": 93610,
          "time": 137.981871328125,
          "value": -0.421875
        },
        {
          "ticks": 93614,
          "time": 137.98776735937503,
          "value": -0.4375
        },
        {
          "ticks": 93618,
          "time": 137.99366339062502,
          "value": -0.453125
        },
        {
          "ticks": 93622,
          "time": 137.999559421875,
          "value": -0.484375
        },
        {
          "ticks": 93626,
          "time": 138.00545545312502,
          "value": -0.5
        },
        {
          "ticks": 93630,
          "time": 138.011351484375,
          "value": -0.515625
        },
        {
          "ticks": 93632,
          "time": 138.01429950000002,
          "value": -0.53125
        },
        {
          "ticks": 93638,
          "time": 138.02314354687502,
          "value": -0.5625
        },
        {
          "ticks": 93642,
          "time": 138.029039578125,
          "value": -0.578125
        },
        {
          "ticks": 93644,
          "time": 138.03198759375002,
          "value": -0.609375
        },
        {
          "ticks": 93648,
          "time": 138.037883625,
          "value": -0.640625
        },
        {
          "ticks": 93652,
          "time": 138.04377965625,
          "value": -0.65625
        },
        {
          "ticks": 93656,
          "time": 138.0496756875,
          "value": -0.6875
        },
        {
          "ticks": 93660,
          "time": 138.05557171875,
          "value": -0.71875
        },
        {
          "ticks": 93664,
          "time": 138.06146775000002,
          "value": -0.75
        },
        {
          "ticks": 93670,
          "time": 138.07031179687502,
          "value": -0.8125
        },
        {
          "ticks": 93674,
          "time": 138.076207828125,
          "value": -0.859375
        },
        {
          "ticks": 93676,
          "time": 138.07915584375002,
          "value": -0.90625
        },
        {
          "ticks": 93678,
          "time": 138.08210385937502,
          "value": -0.953125
        },
        {
          "ticks": 93682,
          "time": 138.087999890625,
          "value": -0.984375
        },
        {
          "ticks": 93692,
          "time": 138.10273996875003,
          "value": 0
        },
        {
          "ticks": 96620,
          "time": 142.41863484375003,
          "value": -0.0833740234375
        },
        {
          "ticks": 96632,
          "time": 142.43632293750002,
          "value": -0.2222900390625
        },
        {
          "ticks": 96640,
          "time": 142.448115,
          "value": -0.398193359375
        },
        {
          "ticks": 96652,
          "time": 142.46580309375,
          "value": -0.537109375
        },
        {
          "ticks": 96660,
          "time": 142.47759515625,
          "value": -0.676025390625
        },
        {
          "ticks": 96668,
          "time": 142.48938721875,
          "value": -0.787109375
        },
        {
          "ticks": 96680,
          "time": 142.5070753125,
          "value": -0.916748046875
        },
        {
          "ticks": 96688,
          "time": 142.518867375,
          "value": -0.9815673828125
        },
        {
          "ticks": 96700,
          "time": 142.53655546875,
          "value": -1
        },
        {
          "ticks": 96720,
          "time": 142.566035625,
          "value": -0.9815673828125
        },
        {
          "ticks": 96728,
          "time": 142.57782768750002,
          "value": -0.907470703125
        },
        {
          "ticks": 96740,
          "time": 142.59551578125001,
          "value": -0.7037353515625
        },
        {
          "ticks": 96748,
          "time": 142.60730784375,
          "value": -0.4444580078125
        },
        {
          "ticks": 96760,
          "time": 142.62499593750002,
          "value": -0.1112060546875
        },
        {
          "ticks": 96768,
          "time": 142.63678800000002,
          "value": 0
        },
        {
          "ticks": 99670,
          "time": 146.91435867187502,
          "value": -0.015625
        },
        {
          "ticks": 99674,
          "time": 146.920254703125,
          "value": -0.03125
        },
        {
          "ticks": 99678,
          "time": 146.926150734375,
          "value": -0.046875
        },
        {
          "ticks": 99682,
          "time": 146.93204676562502,
          "value": -0.078125
        },
        {
          "ticks": 99686,
          "time": 146.937942796875,
          "value": -0.09375
        },
        {
          "ticks": 99690,
          "time": 146.94383882812502,
          "value": -0.125
        },
        {
          "ticks": 99694,
          "time": 146.949734859375,
          "value": -0.140625
        },
        {
          "ticks": 99698,
          "time": 146.955630890625,
          "value": -0.15625
        },
        {
          "ticks": 99700,
          "time": 146.95857890625,
          "value": -0.171875
        },
        {
          "ticks": 99704,
          "time": 146.9644749375,
          "value": -0.203125
        },
        {
          "ticks": 99708,
          "time": 146.97037096875002,
          "value": -0.21875
        },
        {
          "ticks": 99712,
          "time": 146.97626700000004,
          "value": -0.234375
        },
        {
          "ticks": 99716,
          "time": 146.98216303125,
          "value": -0.25
        },
        {
          "ticks": 99720,
          "time": 146.9880590625,
          "value": -0.28125
        },
        {
          "ticks": 99724,
          "time": 146.99395509375003,
          "value": -0.296875
        },
        {
          "ticks": 99728,
          "time": 146.999851125,
          "value": -0.3125
        },
        {
          "ticks": 99732,
          "time": 147.00574715625,
          "value": -0.328125
        },
        {
          "ticks": 99736,
          "time": 147.01164318750003,
          "value": -0.34375
        },
        {
          "ticks": 99738,
          "time": 147.014591203125,
          "value": -0.359375
        },
        {
          "ticks": 99742,
          "time": 147.02048723437503,
          "value": -0.375
        },
        {
          "ticks": 99746,
          "time": 147.02638326562501,
          "value": -0.390625
        },
        {
          "ticks": 99752,
          "time": 147.0352273125,
          "value": -0.40625
        },
        {
          "ticks": 99754,
          "time": 147.03817532812502,
          "value": -0.421875
        },
        {
          "ticks": 99758,
          "time": 147.044071359375,
          "value": -0.4375
        },
        {
          "ticks": 99762,
          "time": 147.049967390625,
          "value": -0.453125
        },
        {
          "ticks": 99766,
          "time": 147.05586342187502,
          "value": -0.484375
        },
        {
          "ticks": 99770,
          "time": 147.061759453125,
          "value": -0.5
        },
        {
          "ticks": 99774,
          "time": 147.06765548437502,
          "value": -0.515625
        },
        {
          "ticks": 99776,
          "time": 147.0706035,
          "value": -0.53125
        },
        {
          "ticks": 99782,
          "time": 147.079447546875,
          "value": -0.5625
        },
        {
          "ticks": 99786,
          "time": 147.08534357812502,
          "value": -0.578125
        },
        {
          "ticks": 99788,
          "time": 147.08829159375,
          "value": -0.609375
        },
        {
          "ticks": 99792,
          "time": 147.09418762500002,
          "value": -0.640625
        },
        {
          "ticks": 99796,
          "time": 147.10008365625004,
          "value": -0.65625
        },
        {
          "ticks": 99800,
          "time": 147.1059796875,
          "value": -0.6875
        },
        {
          "ticks": 99804,
          "time": 147.11187571875,
          "value": -0.71875
        },
        {
          "ticks": 99808,
          "time": 147.11777175000003,
          "value": -0.75
        },
        {
          "ticks": 99814,
          "time": 147.12661579687503,
          "value": -0.8125
        },
        {
          "ticks": 99818,
          "time": 147.132511828125,
          "value": -0.859375
        },
        {
          "ticks": 99820,
          "time": 147.13545984375003,
          "value": -0.90625
        },
        {
          "ticks": 99822,
          "time": 147.138407859375,
          "value": -0.953125
        },
        {
          "ticks": 99826,
          "time": 147.14430389062503,
          "value": -0.984375
        },
        {
          "ticks": 99836,
          "time": 147.15904396875,
          "value": 0
        },
        {
          "ticks": 133424,
          "time": 196.668018375,
          "value": -0.037109375
        },
        {
          "ticks": 133436,
          "time": 196.68570646875,
          "value": -0.1112060546875
        },
        {
          "ticks": 133444,
          "time": 196.69749853125003,
          "value": -0.2130126953125
        },
        {
          "ticks": 133456,
          "time": 196.71518662500003,
          "value": -0.3056640625
        },
        {
          "ticks": 133464,
          "time": 196.7269786875,
          "value": -0.379638671875
        },
        {
          "ticks": 133476,
          "time": 196.74466678125,
          "value": -0.435302734375
        },
        {
          "ticks": 133484,
          "time": 196.75645884375,
          "value": -0.4908447265625
        },
        {
          "ticks": 133496,
          "time": 196.7741469375,
          "value": -0.5185546875
        },
        {
          "ticks": 133504,
          "time": 196.78593900000004,
          "value": -0.5833740234375
        },
        {
          "ticks": 133516,
          "time": 196.80362709375004,
          "value": -0.648193359375
        },
        {
          "ticks": 133524,
          "time": 196.81541915625002,
          "value": -0.7037353515625
        },
        {
          "ticks": 133536,
          "time": 196.83310725,
          "value": -0.75927734375
        },
        {
          "ticks": 133544,
          "time": 196.84489931250002,
          "value": -0.8240966796875
        },
        {
          "ticks": 133556,
          "time": 196.86258740625001,
          "value": -0.8612060546875
        },
        {
          "ticks": 133564,
          "time": 196.87437946875002,
          "value": -0.907470703125
        },
        {
          "ticks": 133576,
          "time": 196.89206756250002,
          "value": -0.9630126953125
        },
        {
          "ticks": 133584,
          "time": 196.90385962500002,
          "value": -1
        },
        {
          "ticks": 133636,
          "time": 196.98050803125003,
          "value": -0.9722900390625
        },
        {
          "ticks": 133644,
          "time": 196.99230009375,
          "value": -0.75927734375
        },
        {
          "ticks": 133656,
          "time": 197.00998818750003,
          "value": -0.4630126953125
        },
        {
          "ticks": 133664,
          "time": 197.02178025,
          "value": -0.0833740234375
        },
        {
          "ticks": 133676,
          "time": 197.03946834375,
          "value": 0
        },
        {
          "ticks": 138010,
          "time": 203.42781820312504,
          "value": -0.03125
        },
        {
          "ticks": 138016,
          "time": 203.43666225000004,
          "value": -0.046875
        },
        {
          "ticks": 138020,
          "time": 203.44255828125,
          "value": -0.0625
        },
        {
          "ticks": 138024,
          "time": 203.44845431250002,
          "value": -0.09375
        },
        {
          "ticks": 138026,
          "time": 203.451402328125,
          "value": -0.125
        },
        {
          "ticks": 138032,
          "time": 203.460246375,
          "value": -0.171875
        },
        {
          "ticks": 138034,
          "time": 203.46319439062503,
          "value": -0.203125
        },
        {
          "ticks": 138040,
          "time": 203.47203843750003,
          "value": -0.21875
        },
        {
          "ticks": 138044,
          "time": 203.47793446875002,
          "value": -0.25
        },
        {
          "ticks": 138048,
          "time": 203.4838305,
          "value": -0.28125
        },
        {
          "ticks": 138052,
          "time": 203.48972653125003,
          "value": -0.296875
        },
        {
          "ticks": 138054,
          "time": 203.492674546875,
          "value": -0.328125
        },
        {
          "ticks": 138058,
          "time": 203.49857057812503,
          "value": -0.34375
        },
        {
          "ticks": 138060,
          "time": 203.50151859375,
          "value": -0.359375
        },
        {
          "ticks": 138064,
          "time": 203.50741462500002,
          "value": -0.375
        },
        {
          "ticks": 138070,
          "time": 203.51625867187502,
          "value": -0.40625
        },
        {
          "ticks": 138074,
          "time": 203.522154703125,
          "value": -0.421875
        },
        {
          "ticks": 138076,
          "time": 203.52510271875002,
          "value": -0.4375
        },
        {
          "ticks": 138080,
          "time": 203.53099875,
          "value": -0.453125
        },
        {
          "ticks": 138086,
          "time": 203.539842796875,
          "value": -0.484375
        },
        {
          "ticks": 138088,
          "time": 203.54279081250002,
          "value": -0.5
        },
        {
          "ticks": 138092,
          "time": 203.54868684375,
          "value": -0.515625
        },
        {
          "ticks": 138094,
          "time": 203.55163485937504,
          "value": -0.546875
        },
        {
          "ticks": 138100,
          "time": 203.56047890625004,
          "value": -0.5625
        },
        {
          "ticks": 138104,
          "time": 203.5663749375,
          "value": -0.578125
        },
        {
          "ticks": 138106,
          "time": 203.56932295312504,
          "value": -0.609375
        },
        {
          "ticks": 138110,
          "time": 203.575218984375,
          "value": -0.625
        },
        {
          "ticks": 138112,
          "time": 203.57816700000004,
          "value": -0.65625
        },
        {
          "ticks": 138114,
          "time": 203.58111501562502,
          "value": -0.671875
        },
        {
          "ticks": 138122,
          "time": 203.592907078125,
          "value": -0.703125
        },
        {
          "ticks": 138126,
          "time": 203.598803109375,
          "value": -0.71875
        },
        {
          "ticks": 138130,
          "time": 203.60469914062503,
          "value": -0.75
        },
        {
          "ticks": 138132,
          "time": 203.60764715625,
          "value": -0.765625
        },
        {
          "ticks": 138136,
          "time": 203.61354318750003,
          "value": -0.796875
        },
        {
          "ticks": 138142,
          "time": 203.62238723437503,
          "value": -0.8125
        },
        {
          "ticks": 138146,
          "time": 203.62828326562502,
          "value": -0.84375
        },
        {
          "ticks": 138150,
          "time": 203.634179296875,
          "value": -0.875
        },
        {
          "ticks": 138154,
          "time": 203.64007532812502,
          "value": -0.90625
        },
        {
          "ticks": 138158,
          "time": 203.645971359375,
          "value": -0.921875
        },
        {
          "ticks": 138160,
          "time": 203.64891937500002,
          "value": -1
        },
        {
          "ticks": 138236,
          "time": 203.76094396875,
          "value": 0
        },
        {
          "ticks": 139600,
          "time": 205.77149062500004,
          "value": -0.03125
        },
        {
          "ticks": 139604,
          "time": 205.77738665625,
          "value": -0.046875
        },
        {
          "ticks": 139608,
          "time": 205.78328268750002,
          "value": -0.078125
        },
        {
          "ticks": 139612,
          "time": 205.78917871875004,
          "value": -0.09375
        },
        {
          "ticks": 139616,
          "time": 205.79507475,
          "value": -0.125
        },
        {
          "ticks": 139620,
          "time": 205.80097078125002,
          "value": -0.15625
        },
        {
          "ticks": 139624,
          "time": 205.80686681250003,
          "value": -0.1875
        },
        {
          "ticks": 139628,
          "time": 205.81276284375,
          "value": -0.21875
        },
        {
          "ticks": 139632,
          "time": 205.818658875,
          "value": -0.25
        },
        {
          "ticks": 139636,
          "time": 205.82455490625003,
          "value": -0.265625
        },
        {
          "ticks": 139638,
          "time": 205.827502921875,
          "value": -0.296875
        },
        {
          "ticks": 139646,
          "time": 205.83929498437502,
          "value": -0.34375
        },
        {
          "ticks": 139650,
          "time": 205.845191015625,
          "value": -0.359375
        },
        {
          "ticks": 139654,
          "time": 205.85108704687502,
          "value": -0.390625
        },
        {
          "ticks": 139658,
          "time": 205.856983078125,
          "value": -0.421875
        },
        {
          "ticks": 139662,
          "time": 205.86287910937503,
          "value": -0.4375
        },
        {
          "ticks": 139666,
          "time": 205.86877514062502,
          "value": -0.453125
        },
        {
          "ticks": 139670,
          "time": 205.874671171875,
          "value": -0.484375
        },
        {
          "ticks": 139674,
          "time": 205.88056720312503,
          "value": -0.5
        },
        {
          "ticks": 139678,
          "time": 205.88646323437504,
          "value": -0.53125
        },
        {
          "ticks": 139680,
          "time": 205.88941125000002,
          "value": -0.5625
        },
        {
          "ticks": 139684,
          "time": 205.89530728125004,
          "value": -0.59375
        },
        {
          "ticks": 139690,
          "time": 205.90415132812504,
          "value": -0.609375
        },
        {
          "ticks": 139692,
          "time": 205.90709934375002,
          "value": -0.640625
        },
        {
          "ticks": 139696,
          "time": 205.91299537500004,
          "value": -0.671875
        },
        {
          "ticks": 139700,
          "time": 205.91889140625,
          "value": -0.703125
        },
        {
          "ticks": 139706,
          "time": 205.927735453125,
          "value": -0.734375
        },
        {
          "ticks": 139708,
          "time": 205.93068346875003,
          "value": -0.765625
        },
        {
          "ticks": 139712,
          "time": 205.9365795,
          "value": -0.796875
        },
        {
          "ticks": 139714,
          "time": 205.93952751562503,
          "value": -0.84375
        },
        {
          "ticks": 139720,
          "time": 205.94837156250003,
          "value": -0.875
        },
        {
          "ticks": 139724,
          "time": 205.95426759375002,
          "value": -0.921875
        },
        {
          "ticks": 139726,
          "time": 205.95721560937503,
          "value": -0.96875
        },
        {
          "ticks": 139732,
          "time": 205.96605965625002,
          "value": -1
        },
        {
          "ticks": 139774,
          "time": 206.02796798437504,
          "value": 0
        },
        {
          "ticks": 146968,
          "time": 216.63198018750003,
          "value": -0.03125
        },
        {
          "ticks": 146970,
          "time": 216.634928203125,
          "value": -0.078125
        },
        {
          "ticks": 146974,
          "time": 216.64082423437503,
          "value": -0.109375
        },
        {
          "ticks": 146978,
          "time": 216.64672026562502,
          "value": -0.140625
        },
        {
          "ticks": 146980,
          "time": 216.64966828125003,
          "value": -0.1875
        },
        {
          "ticks": 146984,
          "time": 216.65556431250002,
          "value": -0.21875
        },
        {
          "ticks": 146990,
          "time": 216.66440835937502,
          "value": -0.25
        },
        {
          "ticks": 146992,
          "time": 216.66735637500003,
          "value": -0.328125
        },
        {
          "ticks": 147000,
          "time": 216.67914843750003,
          "value": -0.359375
        },
        {
          "ticks": 147002,
          "time": 216.682096453125,
          "value": -0.40625
        },
        {
          "ticks": 147006,
          "time": 216.68799248437503,
          "value": -0.4375
        },
        {
          "ticks": 147010,
          "time": 216.69388851562502,
          "value": -0.515625
        },
        {
          "ticks": 147018,
          "time": 216.70568057812503,
          "value": -0.5625
        },
        {
          "ticks": 147020,
          "time": 216.70862859375,
          "value": -0.59375
        },
        {
          "ticks": 147022,
          "time": 216.71157660937504,
          "value": -0.640625
        },
        {
          "ticks": 147030,
          "time": 216.72336867187502,
          "value": -0.6875
        },
        {
          "ticks": 147032,
          "time": 216.7263166875,
          "value": -0.734375
        },
        {
          "ticks": 147034,
          "time": 216.72926470312504,
          "value": -0.796875
        },
        {
          "ticks": 147036,
          "time": 216.73221271875002,
          "value": -0.84375
        },
        {
          "ticks": 147044,
          "time": 216.74400478125,
          "value": -0.890625
        },
        {
          "ticks": 147048,
          "time": 216.74990081250002,
          "value": -0.953125
        },
        {
          "ticks": 147050,
          "time": 216.752848828125,
          "value": -0.984375
        },
        {
          "ticks": 147054,
          "time": 216.758744859375,
          "value": -1
        },
        {
          "ticks": 147068,
          "time": 216.77938096875002,
          "value": 0
        },
        {
          "ticks": 153058,
          "time": 225.60868776562504,
          "value": -0.015625
        },
        {
          "ticks": 153060,
          "time": 225.61163578125002,
          "value": -0.046875
        },
        {
          "ticks": 153064,
          "time": 225.61753181250003,
          "value": -0.0625
        },
        {
          "ticks": 153068,
          "time": 225.62342784375002,
          "value": -0.078125
        },
        {
          "ticks": 153074,
          "time": 225.63227189062502,
          "value": -0.109375
        },
        {
          "ticks": 153078,
          "time": 225.638167921875,
          "value": -0.15625
        },
        {
          "ticks": 153084,
          "time": 225.64701196875,
          "value": -0.1875
        },
        {
          "ticks": 153088,
          "time": 225.65290800000002,
          "value": -0.21875
        },
        {
          "ticks": 153092,
          "time": 225.65880403125,
          "value": -0.234375
        },
        {
          "ticks": 153096,
          "time": 225.66470006250003,
          "value": -0.296875
        },
        {
          "ticks": 153102,
          "time": 225.67354410937503,
          "value": -0.3125
        },
        {
          "ticks": 153104,
          "time": 225.676492125,
          "value": -0.34375
        },
        {
          "ticks": 153108,
          "time": 225.68238815625003,
          "value": -0.359375
        },
        {
          "ticks": 153112,
          "time": 225.68828418750002,
          "value": -0.375
        },
        {
          "ticks": 153114,
          "time": 225.69123220312503,
          "value": -0.40625
        },
        {
          "ticks": 153118,
          "time": 225.69712823437504,
          "value": -0.421875
        },
        {
          "ticks": 153126,
          "time": 225.70892029687502,
          "value": -0.453125
        },
        {
          "ticks": 153128,
          "time": 225.7118683125,
          "value": -0.46875
        },
        {
          "ticks": 153130,
          "time": 225.71481632812504,
          "value": -0.5
        },
        {
          "ticks": 153136,
          "time": 225.72366037500004,
          "value": -0.515625
        },
        {
          "ticks": 153138,
          "time": 225.72660839062502,
          "value": -0.546875
        },
        {
          "ticks": 153140,
          "time": 225.72955640625,
          "value": -0.5625
        },
        {
          "ticks": 153148,
          "time": 225.74134846875003,
          "value": -0.59375
        },
        {
          "ticks": 153150,
          "time": 225.744296484375,
          "value": -0.625
        },
        {
          "ticks": 153152,
          "time": 225.74724450000002,
          "value": -0.640625
        },
        {
          "ticks": 153158,
          "time": 225.75608854687502,
          "value": -0.671875
        },
        {
          "ticks": 153160,
          "time": 225.75903656250003,
          "value": -0.703125
        },
        {
          "ticks": 153162,
          "time": 225.761984578125,
          "value": -0.734375
        },
        {
          "ticks": 153170,
          "time": 225.77377664062502,
          "value": -0.765625
        },
        {
          "ticks": 153172,
          "time": 225.77672465625002,
          "value": -0.796875
        },
        {
          "ticks": 153174,
          "time": 225.77967267187503,
          "value": -0.828125
        },
        {
          "ticks": 153180,
          "time": 225.78851671875003,
          "value": -0.859375
        },
        {
          "ticks": 153184,
          "time": 225.79441275000002,
          "value": -0.9375
        },
        {
          "ticks": 153192,
          "time": 225.80620481250003,
          "value": -0.953125
        },
        {
          "ticks": 153194,
          "time": 225.809152828125,
          "value": -0.984375
        },
        {
          "ticks": 153196,
          "time": 225.81210084375002,
          "value": -1
        },
        {
          "ticks": 153584,
          "time": 226.38401587500002,
          "value": -0.9375
        },
        {
          "ticks": 153588,
          "time": 226.38991190625,
          "value": -0.703125
        },
        {
          "ticks": 153594,
          "time": 226.39875595312503,
          "value": -0.328125
        },
        {
          "ticks": 153596,
          "time": 226.40170396875,
          "value": 0
        }
      ],
      "instrument": {
        "family": "piano",
        "number": 0,
        "name": "acoustic grand piano"
      },
      "name": "Fing.Bass",
      "notes": [
        {
          "duration": 0.12971268749999965,
          "durationTicks": 88,
          "midi": 30,
          "name": "F#1",
          "ticks": 5960,
          "time": 8.785086562500002,
          "velocity": 0.49606299212598426
        },
        {
          "duration": 0.10907657812499849,
          "durationTicks": 74,
          "midi": 31,
          "name": "G1",
          "ticks": 6014,
          "time": 8.864682984375001,
          "velocity": 0.3700787401574803
        },
        {
          "duration": 0.11497260937500009,
          "durationTicks": 78,
          "midi": 32,
          "name": "G#1",
          "ticks": 6042,
          "time": 8.905955203125,
          "velocity": 0.3937007874015748
        },
        {
          "duration": 0.12086864062499991,
          "durationTicks": 82,
          "midi": 34,
          "name": "A#1",
          "ticks": 6096,
          "time": 8.985551625000001,
          "velocity": 0.3700787401574803
        },
        {
          "duration": 3.979821093750001,
          "durationTicks": 2700,
          "midi": 35,
          "name": "B1",
          "ticks": 6148,
          "time": 9.06220003125,
          "velocity": 0.5669291338582677
        },
        {
          "duration": 0.6072912187500012,
          "durationTicks": 412,
          "midi": 35,
          "name": "B1",
          "ticks": 9216,
          "time": 13.584456000000001,
          "velocity": 0.5826771653543307
        },
        {
          "duration": 1.3973594062500005,
          "durationTicks": 948,
          "midi": 33,
          "name": "A1",
          "ticks": 9800,
          "time": 14.4452765625,
          "velocity": 0.5590551181102362
        },
        {
          "duration": 0.5954991562499998,
          "durationTicks": 404,
          "midi": 30,
          "name": "F#1",
          "ticks": 10752,
          "time": 15.848532000000002,
          "velocity": 0.5826771653543307
        },
        {
          "duration": 0.8961967500000014,
          "durationTicks": 608,
          "midi": 31,
          "name": "G1",
          "ticks": 11336,
          "time": 16.7093525625,
          "velocity": 0.5984251968503937
        },
        {
          "duration": 0.23584125,
          "durationTicks": 160,
          "midi": 33,
          "name": "A1",
          "ticks": 11904,
          "time": 17.546589,
          "velocity": 0.5905511811023622
        },
        {
          "duration": 0.020636109374997602,
          "durationTicks": 14,
          "midi": 33,
          "name": "A1",
          "ticks": 12096,
          "time": 17.829598500000003,
          "velocity": 0.4566929133858268
        },
        {
          "duration": 0.13266070312499778,
          "durationTicks": 90,
          "midi": 33,
          "name": "A1",
          "ticks": 12192,
          "time": 17.971103250000002,
          "velocity": 0.49606299212598426
        },
        {
          "duration": 0.6013951874999997,
          "durationTicks": 408,
          "midi": 35,
          "name": "B1",
          "ticks": 12288,
          "time": 18.112608,
          "velocity": 0.6062992125984252
        },
        {
          "duration": 1.134986015624996,
          "durationTicks": 770,
          "midi": 33,
          "name": "A1",
          "ticks": 12872,
          "time": 18.973428562500004,
          "velocity": 0.5669291338582677
        },
        {
          "duration": 0.32428171874999734,
          "durationTicks": 220,
          "midi": 30,
          "name": "F#1",
          "ticks": 13632,
          "time": 20.093674500000002,
          "velocity": 0.5826771653543307
        },
        {
          "duration": 0.053064281250001955,
          "durationTicks": 36,
          "midi": 31,
          "name": "G1",
          "ticks": 14020,
          "time": 20.66558953125,
          "velocity": 0.5433070866141733
        },
        {
          "duration": 0.589603125,
          "durationTicks": 400,
          "midi": 31,
          "name": "G1",
          "ticks": 14208,
          "time": 20.942703,
          "velocity": 0.6062992125984252
        },
        {
          "duration": 0.17982895312499636,
          "durationTicks": 122,
          "midi": 43,
          "name": "G2",
          "ticks": 14792,
          "time": 21.803523562500004,
          "velocity": 0.5433070866141733
        },
        {
          "duration": 0.12381665624999982,
          "durationTicks": 84,
          "midi": 42,
          "name": "F#2",
          "ticks": 14976,
          "time": 22.074741000000003,
          "velocity": 0.5669291338582677
        },
        {
          "duration": 0.09138848437499902,
          "durationTicks": 62,
          "midi": 38,
          "name": "D2",
          "ticks": 15068,
          "time": 22.210349718750003,
          "velocity": 0.4566929133858268
        },
        {
          "duration": 0.589603125,
          "durationTicks": 400,
          "midi": 35,
          "name": "B1",
          "ticks": 15360,
          "time": 22.64076,
          "velocity": 0.5905511811023622
        },
        {
          "duration": 0.9020927812500013,
          "durationTicks": 612,
          "midi": 33,
          "name": "A1",
          "ticks": 15948,
          "time": 23.507476593750003,
          "velocity": 0.5511811023622047
        },
        {
          "duration": 0.5866551093750019,
          "durationTicks": 398,
          "midi": 40,
          "name": "E2",
          "ticks": 16512,
          "time": 24.338817000000002,
          "velocity": 0.4566929133858268
        },
        {
          "duration": 0.5896031249999965,
          "durationTicks": 400,
          "midi": 30,
          "name": "F#1",
          "ticks": 16896,
          "time": 24.904836000000003,
          "velocity": 0.5905511811023622
        },
        {
          "duration": 0.8490285000000029,
          "durationTicks": 576,
          "midi": 31,
          "name": "G1",
          "ticks": 17480,
          "time": 25.765656562500002,
          "velocity": 0.5826771653543307
        },
        {
          "duration": 0.5837070937500002,
          "durationTicks": 396,
          "midi": 33,
          "name": "A1",
          "ticks": 18048,
          "time": 26.602893,
          "velocity": 0.5826771653543307
        },
        {
          "duration": 0.6013951874999997,
          "durationTicks": 408,
          "midi": 35,
          "name": "B1",
          "ticks": 18432,
          "time": 27.168912000000002,
          "velocity": 0.6141732283464567
        },
        {
          "duration": 1.1674141875000004,
          "durationTicks": 792,
          "midi": 33,
          "name": "A1",
          "ticks": 19016,
          "time": 28.029732562500005,
          "velocity": 0.5354330708661418
        },
        {
          "duration": 0.2889055312499984,
          "durationTicks": 196,
          "midi": 30,
          "name": "F#1",
          "ticks": 19784,
          "time": 29.161770562500003,
          "velocity": 0.5590551181102362
        },
        {
          "duration": 0.04716824999999858,
          "durationTicks": 32,
          "midi": 31,
          "name": "G1",
          "ticks": 20168,
          "time": 29.727789562500003,
          "velocity": 0.6062992125984252
        },
        {
          "duration": 0.5925511406250017,
          "durationTicks": 402,
          "midi": 31,
          "name": "G1",
          "ticks": 20352,
          "time": 29.999007000000002,
          "velocity": 0.6220472440944882
        },
        {
          "duration": 0.25942537499999574,
          "durationTicks": 176,
          "midi": 31,
          "name": "G1",
          "ticks": 20936,
          "time": 30.859827562500005,
          "velocity": 0.5590551181102362
        },
        {
          "duration": 0.3979821093749969,
          "durationTicks": 270,
          "midi": 33,
          "name": "A1",
          "ticks": 21220,
          "time": 31.278445781250003,
          "velocity": 0.5433070866141733
        },
        {
          "duration": 0.6072912187499995,
          "durationTicks": 412,
          "midi": 35,
          "name": "B1",
          "ticks": 21504,
          "time": 31.697064000000005,
          "velocity": 0.5826771653543307
        },
        {
          "duration": 1.397359406249997,
          "durationTicks": 948,
          "midi": 33,
          "name": "A1",
          "ticks": 22088,
          "time": 32.55788456250001,
          "velocity": 0.5590551181102362
        },
        {
          "duration": 0.5954991562500069,
          "durationTicks": 404,
          "midi": 30,
          "name": "F#1",
          "ticks": 23040,
          "time": 33.96114,
          "velocity": 0.5826771653543307
        },
        {
          "duration": 0.8401844531250049,
          "durationTicks": 570,
          "midi": 31,
          "name": "G1",
          "ticks": 23624,
          "time": 34.8219605625,
          "velocity": 0.5984251968503937
        },
        {
          "duration": 0.10318054687499512,
          "durationTicks": 70,
          "midi": 32,
          "name": "G#1",
          "ticks": 24152,
          "time": 35.60023668750001,
          "velocity": 0.3779527559055118
        },
        {
          "duration": 0.5778110624999968,
          "durationTicks": 392,
          "midi": 33,
          "name": "A1",
          "ticks": 24194,
          "time": 35.66214501562501,
          "velocity": 0.5433070866141733
        },
        {
          "duration": 0.6013951875000032,
          "durationTicks": 408,
          "midi": 35,
          "name": "B1",
          "ticks": 24576,
          "time": 36.225216,
          "velocity": 0.6062992125984252
        },
        {
          "duration": 1.1349860156250102,
          "durationTicks": 770,
          "midi": 33,
          "name": "A1",
          "ticks": 25160,
          "time": 37.0860365625,
          "velocity": 0.5669291338582677
        },
        {
          "duration": 0.324281718750008,
          "durationTicks": 220,
          "midi": 30,
          "name": "F#1",
          "ticks": 25920,
          "time": 38.2062825,
          "velocity": 0.5826771653543307
        },
        {
          "duration": 0.05306428124999485,
          "durationTicks": 36,
          "midi": 31,
          "name": "G1",
          "ticks": 26308,
          "time": 38.77819753125001,
          "velocity": 0.5433070866141733
        },
        {
          "duration": 0.5896031250000036,
          "durationTicks": 400,
          "midi": 31,
          "name": "G1",
          "ticks": 26496,
          "time": 39.055311,
          "velocity": 0.6062992125984252
        },
        {
          "duration": 0.17982895312501057,
          "durationTicks": 122,
          "midi": 43,
          "name": "G2",
          "ticks": 27080,
          "time": 39.9161315625,
          "velocity": 0.5433070866141733
        },
        {
          "duration": 0.1474007812499991,
          "durationTicks": 100,
          "midi": 42,
          "name": "F#2",
          "ticks": 27264,
          "time": 40.187349000000005,
          "velocity": 0.4645669291338583
        },
        {
          "duration": 0.09728451562499885,
          "durationTicks": 66,
          "midi": 38,
          "name": "D2",
          "ticks": 27356,
          "time": 40.322957718750004,
          "velocity": 0.5511811023622047
        },
        {
          "duration": 0.5896031250000036,
          "durationTicks": 400,
          "midi": 35,
          "name": "B1",
          "ticks": 27648,
          "time": 40.753368,
          "velocity": 0.5905511811023622
        },
        {
          "duration": 0.9020927812500048,
          "durationTicks": 612,
          "midi": 33,
          "name": "A1",
          "ticks": 28236,
          "time": 41.62008459375,
          "velocity": 0.5511811023622047
        },
        {
          "duration": 0.5866551093750019,
          "durationTicks": 398,
          "midi": 40,
          "name": "E2",
          "ticks": 28800,
          "time": 42.451425,
          "velocity": 0.4566929133858268
        },
        {
          "duration": 0.5896031250000036,
          "durationTicks": 400,
          "midi": 30,
          "name": "F#1",
          "ticks": 29184,
          "time": 43.017444000000005,
          "velocity": 0.5905511811023622
        },
        {
          "duration": 0.8490285000000029,
          "durationTicks": 576,
          "midi": 31,
          "name": "G1",
          "ticks": 29768,
          "time": 43.8782645625,
          "velocity": 0.5826771653543307
        },
        {
          "duration": 0.5837070937500002,
          "durationTicks": 396,
          "midi": 33,
          "name": "A1",
          "ticks": 30336,
          "time": 44.715501,
          "velocity": 0.5826771653543307
        },
        {
          "duration": 0.6013951875000032,
          "durationTicks": 408,
          "midi": 35,
          "name": "B1",
          "ticks": 30720,
          "time": 45.28152,
          "velocity": 0.6141732283464567
        },
        {
          "duration": 1.1674141875000004,
          "durationTicks": 792,
          "midi": 33,
          "name": "A1",
          "ticks": 31304,
          "time": 46.1423405625,
          "velocity": 0.5354330708661418
        },
        {
          "duration": 0.28890553125000196,
          "durationTicks": 196,
          "midi": 30,
          "name": "F#1",
          "ticks": 32072,
          "time": 47.274378562500004,
          "velocity": 0.5590551181102362
        },
        {
          "duration": 0.047168250000005685,
          "durationTicks": 32,
          "midi": 31,
          "name": "G1",
          "ticks": 32456,
          "time": 47.8403975625,
          "velocity": 0.6062992125984252
        },
        {
          "duration": 0.5925511406249981,
          "durationTicks": 402,
          "midi": 31,
          "name": "G1",
          "ticks": 32640,
          "time": 48.11161500000001,
          "velocity": 0.6220472440944882
        },
        {
          "duration": 0.2594253750000064,
          "durationTicks": 176,
          "midi": 31,
          "name": "G1",
          "ticks": 33224,
          "time": 48.9724355625,
          "velocity": 0.5590551181102362
        },
        {
          "duration": 0.39798210937500045,
          "durationTicks": 270,
          "midi": 33,
          "name": "A1",
          "ticks": 33508,
          "time": 49.39105378125001,
          "velocity": 0.5433070866141733
        },
        {
          "duration": 0.5896031250000036,
          "durationTicks": 400,
          "midi": 35,
          "name": "B1",
          "ticks": 33792,
          "time": 49.809672000000006,
          "velocity": 0.5905511811023622
        },
        {
          "duration": 0.5306428124999982,
          "durationTicks": 360,
          "midi": 33,
          "name": "A1",
          "ticks": 34380,
          "time": 50.676388593750005,
          "velocity": 0.5511811023622047
        },
        {
          "duration": 0.28890553125000196,
          "durationTicks": 196,
          "midi": 33,
          "name": "A1",
          "ticks": 34752,
          "time": 51.224719500000006,
          "velocity": 0.4251968503937008
        },
        {
          "duration": 0.5866551093749948,
          "durationTicks": 398,
          "midi": 40,
          "name": "E2",
          "ticks": 34944,
          "time": 51.507729000000005,
          "velocity": 0.4566929133858268
        },
        {
          "duration": 0.5896031250000036,
          "durationTicks": 400,
          "midi": 30,
          "name": "F#1",
          "ticks": 35328,
          "time": 52.073748,
          "velocity": 0.5905511811023622
        },
        {
          "duration": 0.8313404062499998,
          "durationTicks": 564,
          "midi": 31,
          "name": "G1",
          "ticks": 35912,
          "time": 52.934568562500004,
          "velocity": 0.5826771653543307
        },
        {
          "duration": 0.0648563437500016,
          "durationTicks": 44,
          "midi": 32,
          "name": "G#1",
          "ticks": 36460,
          "time": 53.742324843750005,
          "velocity": 0.47244094488188976
        },
        {
          "duration": 0.5837070937500002,
          "durationTicks": 396,
          "midi": 33,
          "name": "A1",
          "ticks": 36480,
          "time": 53.77180500000001,
          "velocity": 0.5826771653543307
        },
        {
          "duration": 0.6013951875000032,
          "durationTicks": 408,
          "midi": 35,
          "name": "B1",
          "ticks": 36864,
          "time": 54.337824000000005,
          "velocity": 0.6062992125984252
        },
        {
          "duration": 1.1349860156250102,
          "durationTicks": 770,
          "midi": 33,
          "name": "A1",
          "ticks": 37448,
          "time": 55.1986445625,
          "velocity": 0.5669291338582677
        },
        {
          "duration": 0.324281718750008,
          "durationTicks": 220,
          "midi": 30,
          "name": "F#1",
          "ticks": 38208,
          "time": 56.3188905,
          "velocity": 0.5826771653543307
        },
        {
          "duration": 0.05306428124999485,
          "durationTicks": 36,
          "midi": 31,
          "name": "G1",
          "ticks": 38596,
          "time": 56.89080553125001,
          "velocity": 0.5433070866141733
        },
        {
          "duration": 0.5896031250000036,
          "durationTicks": 400,
          "midi": 31,
          "name": "G1",
          "ticks": 38784,
          "time": 57.167919000000005,
          "velocity": 0.6062992125984252
        },
        {
          "duration": 0.25058132812500844,
          "durationTicks": 170,
          "midi": 43,
          "name": "G2",
          "ticks": 39368,
          "time": 58.0287395625,
          "velocity": 0.5433070866141733
        },
        {
          "duration": 0.1474007812499991,
          "durationTicks": 100,
          "midi": 42,
          "name": "F#2",
          "ticks": 39552,
          "time": 58.299957000000006,
          "velocity": 0.4645669291338583
        },
        {
          "duration": 0.09728451562499885,
          "durationTicks": 66,
          "midi": 38,
          "name": "D2",
          "ticks": 39644,
          "time": 58.435565718750006,
          "velocity": 0.5511811023622047
        },
        {
          "duration": 0.5896031250000036,
          "durationTicks": 400,
          "midi": 35,
          "name": "B1",
          "ticks": 39936,
          "time": 58.865976,
          "velocity": 0.5905511811023622
        },
        {
          "duration": 0.9020927812500048,
          "durationTicks": 612,
          "midi": 33,
          "name": "A1",
          "ticks": 40524,
          "time": 59.73269259375,
          "velocity": 0.5511811023622047
        },
        {
          "duration": 0.3183856875000046,
          "durationTicks": 216,
          "midi": 40,
          "name": "E2",
          "ticks": 41088,
          "time": 60.564033,
          "velocity": 0.4566929133858268
        },
        {
          "duration": 0.5896031250000036,
          "durationTicks": 400,
          "midi": 30,
          "name": "F#1",
          "ticks": 41472,
          "time": 61.130052000000006,
          "velocity": 0.5905511811023622
        },
        {
          "duration": 0.8490285000000029,
          "durationTicks": 576,
          "midi": 31,
          "name": "G1",
          "ticks": 42056,
          "time": 61.9908725625,
          "velocity": 0.5826771653543307
        },
        {
          "duration": 0.2564773593749976,
          "durationTicks": 174,
          "midi": 33,
          "name": "A1",
          "ticks": 42624,
          "time": 62.828109000000005,
          "velocity": 0.5826771653543307
        },
        {
          "duration": 0.26826942187499725,
          "durationTicks": 182,
          "midi": 33,
          "name": "A1",
          "ticks": 42816,
          "time": 63.1111185,
          "velocity": 0.4409448818897638
        },
        {
          "duration": 0.6013951874999961,
          "durationTicks": 408,
          "midi": 35,
          "name": "B1",
          "ticks": 43008,
          "time": 63.39412800000001,
          "velocity": 0.6141732283464567
        },
        {
          "duration": 1.1674141875000004,
          "durationTicks": 792,
          "midi": 33,
          "name": "A1",
          "ticks": 43592,
          "time": 64.2549485625,
          "velocity": 0.5354330708661418
        },
        {
          "duration": 0.28890553125000906,
          "durationTicks": 196,
          "midi": 30,
          "name": "F#1",
          "ticks": 44360,
          "time": 65.3869865625,
          "velocity": 0.5590551181102362
        },
        {
          "duration": 0.04716824999999858,
          "durationTicks": 32,
          "midi": 31,
          "name": "G1",
          "ticks": 44744,
          "time": 65.95300556250001,
          "velocity": 0.6062992125984252
        },
        {
          "duration": 1.1821542656250017,
          "durationTicks": 802,
          "midi": 31,
          "name": "G1",
          "ticks": 44928,
          "time": 66.22422300000001,
          "velocity": 0.6220472440944882
        },
        {
          "duration": 0.5925511406250052,
          "durationTicks": 402,
          "midi": 38,
          "name": "D2",
          "ticks": 46080,
          "time": 67.92228,
          "velocity": 0.7480314960629921
        },
        {
          "duration": 0.8814566718750001,
          "durationTicks": 598,
          "midi": 38,
          "name": "D2",
          "ticks": 46664,
          "time": 68.78310056250001,
          "velocity": 0.6614173228346457
        },
        {
          "duration": 0.3006975937500016,
          "durationTicks": 204,
          "midi": 57,
          "name": "A3",
          "ticks": 47030,
          "time": 69.322587421875,
          "velocity": 0.47244094488188976
        },
        {
          "duration": 0.5660189999999972,
          "durationTicks": 384,
          "midi": 45,
          "name": "A2",
          "ticks": 47232,
          "time": 69.620337,
          "velocity": 0.5196850393700787
        },
        {
          "duration": 0.5896031250000107,
          "durationTicks": 400,
          "midi": 38,
          "name": "D2",
          "ticks": 47616,
          "time": 70.186356,
          "velocity": 0.7165354330708661
        },
        {
          "duration": 0.8195483437500144,
          "durationTicks": 556,
          "midi": 38,
          "name": "D2",
          "ticks": 48200,
          "time": 71.0471765625,
          "velocity": 0.6299212598425197
        },
        {
          "duration": 0.5837070937499931,
          "durationTicks": 396,
          "midi": 33,
          "name": "A1",
          "ticks": 48768,
          "time": 71.88441300000001,
          "velocity": 0.5826771653543307
        },
        {
          "duration": 0.2358412499999929,
          "durationTicks": 160,
          "midi": 36,
          "name": "C2",
          "ticks": 49152,
          "time": 72.450432,
          "velocity": 0.7244094488188977
        },
        {
          "duration": 0.23878926562498748,
          "durationTicks": 162,
          "midi": 35,
          "name": "B1",
          "ticks": 49352,
          "time": 72.74523356250002,
          "velocity": 0.6299212598425197
        },
        {
          "duration": 0.23878926562498748,
          "durationTicks": 162,
          "midi": 33,
          "name": "A1",
          "ticks": 49540,
          "time": 73.02234703125,
          "velocity": 0.6299212598425197
        },
        {
          "duration": 0.5070586874999918,
          "durationTicks": 344,
          "midi": 31,
          "name": "G1",
          "ticks": 49736,
          "time": 73.31125256250002,
          "velocity": 0.6299212598425197
        },
        {
          "duration": 0.2653214062500098,
          "durationTicks": 180,
          "midi": 31,
          "name": "G1",
          "ticks": 50124,
          "time": 73.88316759375,
          "velocity": 0.5669291338582677
        },
        {
          "duration": 0.2948015624999982,
          "durationTicks": 200,
          "midi": 43,
          "name": "G2",
          "ticks": 50304,
          "time": 74.14848900000001,
          "velocity": 0.6850393700787402
        },
        {
          "duration": 0.28890553124999485,
          "durationTicks": 196,
          "midi": 42,
          "name": "F#2",
          "ticks": 50504,
          "time": 74.44329056250001,
          "velocity": 0.48031496062992124
        },
        {
          "duration": 0.5896031249999965,
          "durationTicks": 400,
          "midi": 38,
          "name": "D2",
          "ticks": 50688,
          "time": 74.71450800000001,
          "velocity": 0.7716535433070866
        },
        {
          "duration": 0.14445276562500453,
          "durationTicks": 98,
          "midi": 50,
          "name": "D3",
          "ticks": 51076,
          "time": 75.28642303125,
          "velocity": 0.7401574803149606
        },
        {
          "duration": 0.01179206250000675,
          "durationTicks": 8,
          "midi": 38,
          "name": "D2",
          "ticks": 51264,
          "time": 75.56353650000001,
          "velocity": 0.5196850393700787
        },
        {
          "duration": 0.07370039062500666,
          "durationTicks": 50,
          "midi": 38,
          "name": "D2",
          "ticks": 51360,
          "time": 75.70504125000001,
          "velocity": 0.5905511811023622
        },
        {
          "duration": 0.31248965624999414,
          "durationTicks": 212,
          "midi": 30,
          "name": "F#1",
          "ticks": 51460,
          "time": 75.85244203125,
          "velocity": 0.7086614173228346
        },
        {
          "duration": 0.2771134687499881,
          "durationTicks": 188,
          "midi": 31,
          "name": "G1",
          "ticks": 51656,
          "time": 76.14134756250002,
          "velocity": 0.4330708661417323
        },
        {
          "duration": 0.5542269375000046,
          "durationTicks": 376,
          "midi": 33,
          "name": "A1",
          "ticks": 51840,
          "time": 76.412565,
          "velocity": 0.6299212598425197
        },
        {
          "duration": 0.6249793124999883,
          "durationTicks": 424,
          "midi": 38,
          "name": "D2",
          "ticks": 52224,
          "time": 76.97858400000001,
          "velocity": 0.7401574803149606
        },
        {
          "duration": 0.890300718749998,
          "durationTicks": 604,
          "midi": 38,
          "name": "D2",
          "ticks": 52808,
          "time": 77.83940456250001,
          "velocity": 0.6377952755905512
        },
        {
          "duration": 0.29480156250001244,
          "durationTicks": 200,
          "midi": 45,
          "name": "A2",
          "ticks": 53376,
          "time": 78.676641,
          "velocity": 0.47244094488188976
        },
        {
          "duration": 0.3006975937500016,
          "durationTicks": 204,
          "midi": 33,
          "name": "A1",
          "ticks": 53576,
          "time": 78.97144256250002,
          "velocity": 0.5905511811023622
        },
        {
          "duration": 0.604343203125012,
          "durationTicks": 410,
          "midi": 38,
          "name": "D2",
          "ticks": 53760,
          "time": 79.24266,
          "velocity": 0.7401574803149606
        },
        {
          "duration": 0.8372364374999961,
          "durationTicks": 568,
          "midi": 38,
          "name": "D2",
          "ticks": 54344,
          "time": 80.10348056250001,
          "velocity": 0.6929133858267716
        },
        {
          "duration": 0.6013951875000032,
          "durationTicks": 408,
          "midi": 33,
          "name": "A1",
          "ticks": 54912,
          "time": 80.940717,
          "velocity": 0.6377952755905512
        },
        {
          "duration": 0.2771134687500023,
          "durationTicks": 188,
          "midi": 36,
          "name": "C2",
          "ticks": 55296,
          "time": 81.506736,
          "velocity": 0.7244094488188977
        },
        {
          "duration": 0.2122571249999936,
          "durationTicks": 144,
          "midi": 35,
          "name": "B1",
          "ticks": 55496,
          "time": 81.80153756250002,
          "velocity": 0.5905511811023622
        },
        {
          "duration": 0.253529343750003,
          "durationTicks": 172,
          "midi": 33,
          "name": "A1",
          "ticks": 55680,
          "time": 82.072755,
          "velocity": 0.6614173228346457
        },
        {
          "duration": 0.5306428125000053,
          "durationTicks": 360,
          "midi": 31,
          "name": "G1",
          "ticks": 55884,
          "time": 82.37345259375,
          "velocity": 0.6614173228346457
        },
        {
          "duration": 0.1945690312499977,
          "durationTicks": 132,
          "midi": 38,
          "name": "D2",
          "ticks": 56264,
          "time": 82.93357556250001,
          "velocity": 0.5826771653543307
        },
        {
          "duration": 0.28890553124999485,
          "durationTicks": 196,
          "midi": 43,
          "name": "G2",
          "ticks": 56448,
          "time": 83.20479300000001,
          "velocity": 0.6850393700787402
        },
        {
          "duration": 0.27121743749999894,
          "durationTicks": 184,
          "midi": 42,
          "name": "F#2",
          "ticks": 56648,
          "time": 83.49959456250001,
          "velocity": 0.5196850393700787
        },
        {
          "duration": 0.3272297343749955,
          "durationTicks": 222,
          "midi": 38,
          "name": "D2",
          "ticks": 56832,
          "time": 83.770812,
          "velocity": 0.7952755905511811
        },
        {
          "duration": 0.29185354687498943,
          "durationTicks": 198,
          "midi": 30,
          "name": "F#1",
          "ticks": 57032,
          "time": 84.06561356250002,
          "velocity": 0.5826771653543307
        },
        {
          "duration": 0.30659362499999077,
          "durationTicks": 208,
          "midi": 31,
          "name": "G1",
          "ticks": 57416,
          "time": 84.63163256250002,
          "velocity": 0.5826771653543307
        },
        {
          "duration": 0.3272297343749955,
          "durationTicks": 222,
          "midi": 32,
          "name": "G#1",
          "ticks": 57800,
          "time": 85.19765156250001,
          "velocity": 0.5826771653543307
        },
        {
          "duration": 0.19751704687500649,
          "durationTicks": 134,
          "midi": 36,
          "name": "C2",
          "ticks": 58180,
          "time": 85.75777453125,
          "velocity": 0.5826771653543307
        },
        {
          "duration": 0.16803689062500382,
          "durationTicks": 114,
          "midi": 37,
          "name": "C#2",
          "ticks": 58274,
          "time": 85.89633126562501,
          "velocity": 0.4330708661417323
        },
        {
          "duration": 0.636771374999995,
          "durationTicks": 432,
          "midi": 38,
          "name": "D2",
          "ticks": 58368,
          "time": 86.03488800000001,
          "velocity": 0.7637795275590551
        },
        {
          "duration": 0.5896031249999965,
          "durationTicks": 400,
          "midi": 38,
          "name": "D2",
          "ticks": 58956,
          "time": 86.90160459375001,
          "velocity": 0.7086614173228346
        },
        {
          "duration": 0.18572498437499974,
          "durationTicks": 126,
          "midi": 45,
          "name": "A2",
          "ticks": 59340,
          "time": 87.46762359375,
          "velocity": 0.5748031496062992
        },
        {
          "duration": 0.14150474999999574,
          "durationTicks": 96,
          "midi": 47,
          "name": "B2",
          "ticks": 59426,
          "time": 87.59438826562501,
          "velocity": 0.4566929133858268
        },
        {
          "duration": 0.560122968750008,
          "durationTicks": 380,
          "midi": 50,
          "name": "D3",
          "ticks": 59520,
          "time": 87.732945,
          "velocity": 0.5433070866141733
        },
        {
          "duration": 0.6043432031249978,
          "durationTicks": 410,
          "midi": 38,
          "name": "D2",
          "ticks": 59904,
          "time": 88.29896400000001,
          "velocity": 0.7716535433070866
        },
        {
          "duration": 0.890300718749998,
          "durationTicks": 604,
          "midi": 38,
          "name": "D2",
          "ticks": 60488,
          "time": 89.15978456250001,
          "velocity": 0.7165354330708661
        },
        {
          "duration": 0.29480156250001244,
          "durationTicks": 200,
          "midi": 45,
          "name": "A2",
          "ticks": 61056,
          "time": 89.997021,
          "velocity": 0.5354330708661418
        },
        {
          "duration": 0.2535293437499888,
          "durationTicks": 172,
          "midi": 33,
          "name": "A1",
          "ticks": 61256,
          "time": 90.29182256250002,
          "velocity": 0.6220472440944882
        },
        {
          "duration": 0.31248965625000835,
          "durationTicks": 212,
          "midi": 36,
          "name": "C2",
          "ticks": 61440,
          "time": 90.56304,
          "velocity": 0.7559055118110236
        },
        {
          "duration": 0.2122571249999936,
          "durationTicks": 144,
          "midi": 35,
          "name": "B1",
          "ticks": 61640,
          "time": 90.85784156250001,
          "velocity": 0.5669291338582677
        },
        {
          "duration": 0.27121743750001315,
          "durationTicks": 184,
          "midi": 33,
          "name": "A1",
          "ticks": 61828,
          "time": 91.13495503125,
          "velocity": 0.6850393700787402
        },
        {
          "duration": 0.8136523124999968,
          "durationTicks": 552,
          "midi": 31,
          "name": "G1",
          "ticks": 62028,
          "time": 91.42975659375001,
          "velocity": 0.7007874015748031
        },
        {
          "duration": 0.11792062500001066,
          "durationTicks": 80,
          "midi": 42,
          "name": "F#2",
          "ticks": 62592,
          "time": 92.261097,
          "velocity": 0.5039370078740157
        },
        {
          "duration": 0.20046506250000107,
          "durationTicks": 136,
          "midi": 43,
          "name": "G2",
          "ticks": 62650,
          "time": 92.346589453125,
          "velocity": 0.5748031496062992
        },
        {
          "duration": 0.2712174374999847,
          "durationTicks": 184,
          "midi": 42,
          "name": "F#2",
          "ticks": 62792,
          "time": 92.55589856250002,
          "velocity": 0.5511811023622047
        },
        {
          "duration": 0.5896031249999965,
          "durationTicks": 400,
          "midi": 38,
          "name": "D2",
          "ticks": 62976,
          "time": 92.827116,
          "velocity": 0.7952755905511811
        },
        {
          "duration": 0.28890553124999485,
          "durationTicks": 196,
          "midi": 50,
          "name": "D3",
          "ticks": 63360,
          "time": 93.39313500000002,
          "velocity": 0.6141732283464567
        },
        {
          "duration": 0.10907657812499849,
          "durationTicks": 74,
          "midi": 45,
          "name": "A2",
          "ticks": 63744,
          "time": 93.95915400000001,
          "velocity": 0.7165354330708661
        },
        {
          "duration": 0.17393292187499299,
          "durationTicks": 118,
          "midi": 47,
          "name": "B2",
          "ticks": 63804,
          "time": 94.04759446875,
          "velocity": 0.4566929133858268
        },
        {
          "duration": 0.2771134687499881,
          "durationTicks": 188,
          "midi": 50,
          "name": "D3",
          "ticks": 63932,
          "time": 94.23626746875001,
          "velocity": 0.7165354330708661
        },
        {
          "duration": 0.29185354687500364,
          "durationTicks": 198,
          "midi": 47,
          "name": "B2",
          "ticks": 64128,
          "time": 94.52517300000001,
          "velocity": 0.6456692913385826
        },
        {
          "duration": 0.2771134687500023,
          "durationTicks": 188,
          "midi": 45,
          "name": "A2",
          "ticks": 64320,
          "time": 94.80818250000002,
          "velocity": 0.47244094488188976
        },
        {
          "duration": 0.595499156250014,
          "durationTicks": 404,
          "midi": 38,
          "name": "D2",
          "ticks": 64512,
          "time": 95.091192,
          "velocity": 0.7952755905511811
        },
        {
          "duration": 0.819548343749986,
          "durationTicks": 556,
          "midi": 38,
          "name": "D2",
          "ticks": 65096,
          "time": 95.95201256250002,
          "velocity": 0.6614173228346457
        },
        {
          "duration": 0.017688093749995915,
          "durationTicks": 12,
          "midi": 33,
          "name": "A1",
          "ticks": 65668,
          "time": 96.79514503125,
          "velocity": 0.5905511811023622
        },
        {
          "duration": 0.2771134687499881,
          "durationTicks": 188,
          "midi": 45,
          "name": "A2",
          "ticks": 65864,
          "time": 97.08405056250001,
          "velocity": 0.5905511811023622
        },
        {
          "duration": 0.5660189999999972,
          "durationTicks": 384,
          "midi": 50,
          "name": "D3",
          "ticks": 66048,
          "time": 97.35526800000001,
          "velocity": 0.7086614173228346
        },
        {
          "duration": 0.294801562499984,
          "durationTicks": 200,
          "midi": 55,
          "name": "G3",
          "ticks": 66632,
          "time": 98.21608856250002,
          "velocity": 0.5826771653543307
        },
        {
          "duration": 0.2771134687500023,
          "durationTicks": 188,
          "midi": 54,
          "name": "F#3",
          "ticks": 66820,
          "time": 98.49320203125001,
          "velocity": 0.4566929133858268
        },
        {
          "duration": 0.31543767187500293,
          "durationTicks": 214,
          "midi": 50,
          "name": "D3",
          "ticks": 67020,
          "time": 98.78800359375,
          "velocity": 0.5039370078740157
        },
        {
          "duration": 0.29185354687500364,
          "durationTicks": 198,
          "midi": 45,
          "name": "A2",
          "ticks": 67204,
          "time": 99.05922103125,
          "velocity": 0.47244094488188976
        },
        {
          "duration": 0.28890553124999485,
          "durationTicks": 196,
          "midi": 36,
          "name": "C2",
          "ticks": 67584,
          "time": 99.61934400000001,
          "velocity": 0.7165354330708661
        },
        {
          "duration": 0.20341307812500986,
          "durationTicks": 138,
          "midi": 35,
          "name": "B1",
          "ticks": 67784,
          "time": 99.91414556250001,
          "velocity": 0.5433070866141733
        },
        {
          "duration": 0.3242817187500009,
          "durationTicks": 220,
          "midi": 33,
          "name": "A1",
          "ticks": 67968,
          "time": 100.18536300000001,
          "velocity": 0.6614173228346457
        },
        {
          "duration": 0.507058687500006,
          "durationTicks": 344,
          "midi": 31,
          "name": "G1",
          "ticks": 68172,
          "time": 100.48606059375001,
          "velocity": 0.7007874015748031
        },
        {
          "duration": 0.18572498437499974,
          "durationTicks": 126,
          "midi": 31,
          "name": "G1",
          "ticks": 68552,
          "time": 101.04618356250002,
          "velocity": 0.5905511811023622
        },
        {
          "duration": 0.3036456093750104,
          "durationTicks": 206,
          "midi": 43,
          "name": "G2",
          "ticks": 68736,
          "time": 101.317401,
          "velocity": 0.7086614173228346
        },
        {
          "duration": 0.27121743750001315,
          "durationTicks": 184,
          "midi": 42,
          "name": "F#2",
          "ticks": 68932,
          "time": 101.60630653125,
          "velocity": 0.4566929133858268
        },
        {
          "duration": 2.2228037812499934,
          "durationTicks": 1508,
          "midi": 38,
          "name": "D2",
          "ticks": 69120,
          "time": 101.88342000000002,
          "velocity": 0.7480314960629921
        },
        {
          "duration": 0.5896031249999965,
          "durationTicks": 400,
          "midi": 35,
          "name": "B1",
          "ticks": 70656,
          "time": 104.147496,
          "velocity": 0.6850393700787402
        },
        {
          "duration": 0.8844046874999947,
          "durationTicks": 600,
          "midi": 33,
          "name": "A1",
          "ticks": 71240,
          "time": 105.00831656250001,
          "velocity": 0.6692913385826772
        },
        {
          "duration": 0.5954991562499998,
          "durationTicks": 404,
          "midi": 40,
          "name": "E2",
          "ticks": 71808,
          "time": 105.84555300000001,
          "velocity": 0.49606299212598426
        },
        {
          "duration": 0.5896031249999965,
          "durationTicks": 400,
          "midi": 30,
          "name": "F#1",
          "ticks": 72192,
          "time": 106.411572,
          "velocity": 0.6929133858267716
        },
        {
          "duration": 0.7959642187500009,
          "durationTicks": 540,
          "midi": 31,
          "name": "G1",
          "ticks": 72776,
          "time": 107.27239256250002,
          "velocity": 0.6377952755905512
        },
        {
          "duration": 0.5896031249999965,
          "durationTicks": 400,
          "midi": 33,
          "name": "A1",
          "ticks": 73344,
          "time": 108.10962900000001,
          "velocity": 0.6377952755905512
        },
        {
          "duration": 0.5896031249999965,
          "durationTicks": 400,
          "midi": 35,
          "name": "B1",
          "ticks": 73728,
          "time": 108.67564800000001,
          "velocity": 0.7007874015748031
        },
        {
          "duration": 1.3855673437499973,
          "durationTicks": 940,
          "midi": 33,
          "name": "A1",
          "ticks": 74312,
          "time": 109.53646856250002,
          "velocity": 0.6614173228346457
        },
        {
          "duration": 0.5896031249999965,
          "durationTicks": 400,
          "midi": 30,
          "name": "F#1",
          "ticks": 75264,
          "time": 110.93972400000001,
          "velocity": 0.7244094488188977
        },
        {
          "duration": 0.5837070937499931,
          "durationTicks": 396,
          "midi": 31,
          "name": "G1",
          "ticks": 75848,
          "time": 111.80054456250002,
          "velocity": 0.6614173228346457
        },
        {
          "duration": 0.0648563437499945,
          "durationTicks": 44,
          "midi": 43,
          "name": "G2",
          "ticks": 76214,
          "time": 112.34003142187501,
          "velocity": 0.4409448818897638
        },
        {
          "duration": 0.25058132812500844,
          "durationTicks": 170,
          "midi": 45,
          "name": "A2",
          "ticks": 76240,
          "time": 112.378355625,
          "velocity": 0.5748031496062992
        },
        {
          "duration": 0.3272297343749955,
          "durationTicks": 222,
          "midi": 43,
          "name": "G2",
          "ticks": 76406,
          "time": 112.62304092187502,
          "velocity": 0.5748031496062992
        },
        {
          "duration": 0.1120245937500215,
          "durationTicks": 76,
          "midi": 40,
          "name": "E2",
          "ticks": 76606,
          "time": 112.917842484375,
          "velocity": 0.47244094488188976
        },
        {
          "duration": 0.13560871875000657,
          "durationTicks": 92,
          "midi": 38,
          "name": "D2",
          "ticks": 76704,
          "time": 113.06229525,
          "velocity": 0.6141732283464567
        },
        {
          "duration": 0.5896031249999965,
          "durationTicks": 400,
          "midi": 35,
          "name": "B1",
          "ticks": 76800,
          "time": 113.20380000000002,
          "velocity": 0.7007874015748031
        },
        {
          "duration": 0.8342884218749873,
          "durationTicks": 566,
          "midi": 33,
          "name": "A1",
          "ticks": 77384,
          "time": 114.06462056250001,
          "velocity": 0.6850393700787402
        },
        {
          "duration": 0.2771134687500023,
          "durationTicks": 188,
          "midi": 37,
          "name": "C#2",
          "ticks": 77952,
          "time": 114.901857,
          "velocity": 0.7165354330708661
        },
        {
          "duration": 0.25058132812499423,
          "durationTicks": 170,
          "midi": 33,
          "name": "A1",
          "ticks": 78138,
          "time": 115.17602245312501,
          "velocity": 0.5039370078740157
        },
        {
          "duration": 0.5896031249999965,
          "durationTicks": 400,
          "midi": 30,
          "name": "F#1",
          "ticks": 78336,
          "time": 115.467876,
          "velocity": 0.7480314960629921
        },
        {
          "duration": 0.8077562812499934,
          "durationTicks": 548,
          "midi": 31,
          "name": "G1",
          "ticks": 78920,
          "time": 116.32869656250001,
          "velocity": 0.6929133858267716
        },
        {
          "duration": 0.3183856874999975,
          "durationTicks": 216,
          "midi": 33,
          "name": "A1",
          "ticks": 79488,
          "time": 117.16593300000001,
          "velocity": 0.7086614173228346
        },
        {
          "duration": 0.26237339062498677,
          "durationTicks": 178,
          "midi": 34,
          "name": "A#1",
          "ticks": 79688,
          "time": 117.46073456250002,
          "velocity": 0.5196850393700787
        },
        {
          "duration": 0.5896031249999965,
          "durationTicks": 400,
          "midi": 35,
          "name": "B1",
          "ticks": 79872,
          "time": 117.731952,
          "velocity": 0.7559055118110236
        },
        {
          "duration": 0.8490285000000029,
          "durationTicks": 576,
          "midi": 33,
          "name": "A1",
          "ticks": 80456,
          "time": 118.59277256250002,
          "velocity": 0.7480314960629921
        },
        {
          "duration": 0.5571749531249992,
          "durationTicks": 378,
          "midi": 42,
          "name": "F#2",
          "ticks": 81026,
          "time": 119.43295701562502,
          "velocity": 0.6141732283464567
        },
        {
          "duration": 0.5896031249999965,
          "durationTicks": 400,
          "midi": 30,
          "name": "F#1",
          "ticks": 81408,
          "time": 119.99602800000001,
          "velocity": 0.7480314960629921
        },
        {
          "duration": 0.4127221874999947,
          "durationTicks": 280,
          "midi": 31,
          "name": "G1",
          "ticks": 81992,
          "time": 120.85684856250002,
          "velocity": 0.7480314960629921
        },
        {
          "duration": 0.05011626562499316,
          "durationTicks": 34,
          "midi": 38,
          "name": "D2",
          "ticks": 82272,
          "time": 121.26957075000001,
          "velocity": 0.4330708661417323
        },
        {
          "duration": 0.23289323437501253,
          "durationTicks": 158,
          "midi": 43,
          "name": "G2",
          "ticks": 82366,
          "time": 121.408127484375,
          "velocity": 0.6456692913385826
        },
        {
          "duration": 0.29185354687500364,
          "durationTicks": 198,
          "midi": 42,
          "name": "F#2",
          "ticks": 82552,
          "time": 121.68229293750001,
          "velocity": 0.47244094488188976
        },
        {
          "duration": 0.24763331249999965,
          "durationTicks": 168,
          "midi": 38,
          "name": "D2",
          "ticks": 82752,
          "time": 121.9770945,
          "velocity": 0.6456692913385826
        },
        {
          "duration": 0.5896031249999965,
          "durationTicks": 400,
          "midi": 35,
          "name": "B1",
          "ticks": 82944,
          "time": 122.26010400000001,
          "velocity": 0.6850393700787402
        },
        {
          "duration": 0.6308753437499774,
          "durationTicks": 428,
          "midi": 33,
          "name": "A1",
          "ticks": 83528,
          "time": 123.12092456250002,
          "velocity": 0.6692913385826772
        },
        {
          "duration": 0.3154376718749887,
          "durationTicks": 214,
          "midi": 40,
          "name": "E2",
          "ticks": 83904,
          "time": 123.67515150000001,
          "velocity": 0.5196850393700787
        },
        {
          "duration": 0.595499156250014,
          "durationTicks": 404,
          "midi": 45,
          "name": "A2",
          "ticks": 84096,
          "time": 123.958161,
          "velocity": 0.49606299212598426
        },
        {
          "duration": 0.5896031249999965,
          "durationTicks": 400,
          "midi": 30,
          "name": "F#1",
          "ticks": 84480,
          "time": 124.52418000000002,
          "velocity": 0.6929133858267716
        },
        {
          "duration": 0.7959642187500009,
          "durationTicks": 540,
          "midi": 31,
          "name": "G1",
          "ticks": 85064,
          "time": 125.38500056250001,
          "velocity": 0.6377952755905512
        },
        {
          "duration": 0.253529343750003,
          "durationTicks": 172,
          "midi": 31,
          "name": "G1",
          "ticks": 85632,
          "time": 126.222237,
          "velocity": 0.6456692913385826
        },
        {
          "duration": 0.26826942187500435,
          "durationTicks": 182,
          "midi": 33,
          "name": "A1",
          "ticks": 85824,
          "time": 126.50524650000001,
          "velocity": 0.5354330708661418
        },
        {
          "duration": 0.5896031249999822,
          "durationTicks": 400,
          "midi": 35,
          "name": "B1",
          "ticks": 86016,
          "time": 126.78825600000002,
          "velocity": 0.7007874015748031
        },
        {
          "duration": 0.8460804843750083,
          "durationTicks": 574,
          "midi": 33,
          "name": "A1",
          "ticks": 86600,
          "time": 127.64907656250001,
          "velocity": 0.6614173228346457
        },
        {
          "duration": 0.22110117187497735,
          "durationTicks": 150,
          "midi": 40,
          "name": "E2",
          "ticks": 87166,
          "time": 128.48336498437502,
          "velocity": 0.6456692913385826
        },
        {
          "duration": 0.28890553124998064,
          "durationTicks": 196,
          "midi": 33,
          "name": "A1",
          "ticks": 87360,
          "time": 128.76932250000002,
          "velocity": 0.5039370078740157
        },
        {
          "duration": 0.5896031249999965,
          "durationTicks": 400,
          "midi": 30,
          "name": "F#1",
          "ticks": 87552,
          "time": 129.052332,
          "velocity": 0.7244094488188977
        },
        {
          "duration": 0.5159027343749756,
          "durationTicks": 350,
          "midi": 31,
          "name": "G1",
          "ticks": 88136,
          "time": 129.91315256250002,
          "velocity": 0.6614173228346457
        },
        {
          "duration": 0.28890553124998064,
          "durationTicks": 196,
          "midi": 30,
          "name": "F#1",
          "ticks": 88512,
          "time": 130.46737950000002,
          "velocity": 0.5748031496062992
        },
        {
          "duration": 0.2830095000000199,
          "durationTicks": 192,
          "midi": 33,
          "name": "A1",
          "ticks": 88896,
          "time": 131.0333985,
          "velocity": 0.5748031496062992
        },
        {
          "duration": 0.5896031249999965,
          "durationTicks": 400,
          "midi": 35,
          "name": "B1",
          "ticks": 89088,
          "time": 131.31640800000002,
          "velocity": 0.6850393700787402
        },
        {
          "duration": 0.8844046875000231,
          "durationTicks": 600,
          "midi": 33,
          "name": "A1",
          "ticks": 89672,
          "time": 132.1772285625,
          "velocity": 0.6692913385826772
        },
        {
          "duration": 0.595499156250014,
          "durationTicks": 404,
          "midi": 40,
          "name": "E2",
          "ticks": 90240,
          "time": 133.014465,
          "velocity": 0.49606299212598426
        },
        {
          "duration": 0.5896031249999965,
          "durationTicks": 400,
          "midi": 30,
          "name": "F#1",
          "ticks": 90624,
          "time": 133.580484,
          "velocity": 0.6929133858267716
        },
        {
          "duration": 0.5276947968749823,
          "durationTicks": 358,
          "midi": 31,
          "name": "G1",
          "ticks": 91208,
          "time": 134.44130456250002,
          "velocity": 0.6377952755905512
        },
        {
          "duration": 0.23584125000002132,
          "durationTicks": 160,
          "midi": 31,
          "name": "G1",
          "ticks": 91584,
          "time": 134.9955315,
          "velocity": 0.5826771653543307
        },
        {
          "duration": 0.07370039062499245,
          "durationTicks": 50,
          "midi": 31,
          "name": "G1",
          "ticks": 91770,
          "time": 135.26969695312502,
          "velocity": 0.5039370078740157
        },
        {
          "duration": 0.26826942187500435,
          "durationTicks": 182,
          "midi": 33,
          "name": "A1",
          "ticks": 91968,
          "time": 135.5615505,
          "velocity": 0.6220472440944882
        },
        {
          "duration": 0.5896031249999965,
          "durationTicks": 400,
          "midi": 35,
          "name": "B1",
          "ticks": 92160,
          "time": 135.84456,
          "velocity": 0.7007874015748031
        },
        {
          "duration": 0.5630709843750026,
          "durationTicks": 382,
          "midi": 33,
          "name": "A1",
          "ticks": 92744,
          "time": 136.7053805625,
          "velocity": 0.6614173228346457
        },
        {
          "duration": 0.2977495781249786,
          "durationTicks": 202,
          "midi": 37,
          "name": "C#2",
          "ticks": 93116,
          "time": 137.25371146875003,
          "velocity": 0.5039370078740157
        },
        {
          "duration": 0.5276947968750108,
          "durationTicks": 358,
          "midi": 40,
          "name": "E2",
          "ticks": 93318,
          "time": 137.551461046875,
          "velocity": 0.7165354330708661
        },
        {
          "duration": 0.5896031249999965,
          "durationTicks": 400,
          "midi": 30,
          "name": "F#1",
          "ticks": 93696,
          "time": 138.10863600000002,
          "velocity": 0.7244094488188977
        },
        {
          "duration": 0.21815315624999698,
          "durationTicks": 148,
          "midi": 42,
          "name": "F#2",
          "ticks": 94080,
          "time": 138.674655,
          "velocity": 0.4409448818897638
        },
        {
          "duration": 0.5837070937499789,
          "durationTicks": 396,
          "midi": 31,
          "name": "G1",
          "ticks": 94280,
          "time": 138.96945656250003,
          "velocity": 0.6614173228346457
        },
        {
          "duration": 0.2535293437499888,
          "durationTicks": 172,
          "midi": 38,
          "name": "D2",
          "ticks": 94656,
          "time": 139.5236835,
          "velocity": 0.31496062992125984
        },
        {
          "duration": 0.07075237500001208,
          "durationTicks": 48,
          "midi": 42,
          "name": "F#2",
          "ticks": 94808,
          "time": 139.74773268750002,
          "velocity": 0.31496062992125984
        },
        {
          "duration": 0.31248965625002256,
          "durationTicks": 212,
          "midi": 43,
          "name": "G2",
          "ticks": 94830,
          "time": 139.780160859375,
          "velocity": 0.6456692913385826
        },
        {
          "duration": 0.053064281249987744,
          "durationTicks": 36,
          "midi": 42,
          "name": "F#2",
          "ticks": 95040,
          "time": 140.08970250000002,
          "velocity": 0.4094488188976378
        },
        {
          "duration": 0.11792062500001066,
          "durationTicks": 80,
          "midi": 38,
          "name": "D2",
          "ticks": 95136,
          "time": 140.23120725,
          "velocity": 0.5984251968503937
        },
        {
          "duration": 0.5896031249999965,
          "durationTicks": 400,
          "midi": 35,
          "name": "B1",
          "ticks": 95232,
          "time": 140.372712,
          "velocity": 0.6850393700787402
        },
        {
          "duration": 0.5896031249999965,
          "durationTicks": 400,
          "midi": 33,
          "name": "A1",
          "ticks": 95816,
          "time": 141.23353256250002,
          "velocity": 0.6692913385826772
        },
        {
          "duration": 0.3036456093749962,
          "durationTicks": 206,
          "midi": 40,
          "name": "E2",
          "ticks": 96192,
          "time": 141.78775950000002,
          "velocity": 0.47244094488188976
        },
        {
          "duration": 0.595499156250014,
          "durationTicks": 404,
          "midi": 45,
          "name": "A2",
          "ticks": 96384,
          "time": 142.070769,
          "velocity": 0.49606299212598426
        },
        {
          "duration": 0.3154376718749745,
          "durationTicks": 214,
          "midi": 42,
          "name": "F#2",
          "ticks": 96768,
          "time": 142.63678800000002,
          "velocity": 0.6850393700787402
        },
        {
          "duration": 0.07075237500001208,
          "durationTicks": 48,
          "midi": 37,
          "name": "C#2",
          "ticks": 96964,
          "time": 142.92569353125,
          "velocity": 0.5669291338582677
        },
        {
          "duration": 0.08254443750001883,
          "durationTicks": 56,
          "midi": 30,
          "name": "F#1",
          "ticks": 97152,
          "time": 143.202807,
          "velocity": 0.6614173228346457
        },
        {
          "duration": 0.8018602500000043,
          "durationTicks": 544,
          "midi": 31,
          "name": "G1",
          "ticks": 97352,
          "time": 143.4976085625,
          "velocity": 0.6850393700787402
        },
        {
          "duration": 0.25058132812500844,
          "durationTicks": 170,
          "midi": 31,
          "name": "G1",
          "ticks": 97920,
          "time": 144.334845,
          "velocity": 0.6456692913385826
        },
        {
          "duration": 0.24468529687499085,
          "durationTicks": 166,
          "midi": 33,
          "name": "A1",
          "ticks": 98114,
          "time": 144.62080251562503,
          "velocity": 0.5748031496062992
        },
        {
          "duration": 0.5896031250000249,
          "durationTicks": 400,
          "midi": 35,
          "name": "B1",
          "ticks": 98304,
          "time": 144.900864,
          "velocity": 0.7007874015748031
        },
        {
          "duration": 0.563070984375031,
          "durationTicks": 382,
          "midi": 33,
          "name": "A1",
          "ticks": 98888,
          "time": 145.7616845625,
          "velocity": 0.6614173228346457
        },
        {
          "duration": 0.297749578125007,
          "durationTicks": 202,
          "midi": 40,
          "name": "E2",
          "ticks": 99260,
          "time": 146.31001546875,
          "velocity": 0.5039370078740157
        },
        {
          "duration": 0.43630631249999396,
          "durationTicks": 296,
          "midi": 45,
          "name": "A2",
          "ticks": 99462,
          "time": 146.60776504687502,
          "velocity": 0.7165354330708661
        },
        {
          "duration": 0.2623733906250152,
          "durationTicks": 178,
          "midi": 42,
          "name": "F#2",
          "ticks": 99840,
          "time": 147.16494,
          "velocity": 0.7086614173228346
        },
        {
          "duration": 0.22110117187500578,
          "durationTicks": 150,
          "midi": 37,
          "name": "C#2",
          "ticks": 100032,
          "time": 147.44794950000002,
          "velocity": 0.5669291338582677
        },
        {
          "duration": 0.27121743750001315,
          "durationTicks": 184,
          "midi": 30,
          "name": "F#1",
          "ticks": 100230,
          "time": 147.739803046875,
          "velocity": 0.6377952755905512
        },
        {
          "duration": 0.8195483437500002,
          "durationTicks": 556,
          "midi": 31,
          "name": "G1",
          "ticks": 100424,
          "time": 148.0257605625,
          "velocity": 0.6614173228346457
        },
        {
          "duration": 0.2387892656250017,
          "durationTicks": 162,
          "midi": 43,
          "name": "G2",
          "ticks": 100992,
          "time": 148.862997,
          "velocity": 0.7322834645669292
        },
        {
          "duration": 0.2830095000000199,
          "durationTicks": 192,
          "midi": 42,
          "name": "F#2",
          "ticks": 101188,
          "time": 149.15190253125002,
          "velocity": 0.5433070866141733
        },
        {
          "duration": 0.5896031249999965,
          "durationTicks": 400,
          "midi": 38,
          "name": "D2",
          "ticks": 101376,
          "time": 149.42901600000002,
          "velocity": 0.7322834645669292
        },
        {
          "duration": 0.8549245312500204,
          "durationTicks": 580,
          "midi": 38,
          "name": "D2",
          "ticks": 101960,
          "time": 150.2898365625,
          "velocity": 0.7322834645669292
        },
        {
          "duration": 0.5778110624999897,
          "durationTicks": 392,
          "midi": 33,
          "name": "A1",
          "ticks": 102532,
          "time": 151.13296903125,
          "velocity": 0.6220472440944882
        },
        {
          "duration": 0.5896031250000249,
          "durationTicks": 400,
          "midi": 38,
          "name": "D2",
          "ticks": 102912,
          "time": 151.693092,
          "velocity": 0.7401574803149606
        },
        {
          "duration": 0.9197808749999865,
          "durationTicks": 624,
          "midi": 38,
          "name": "D2",
          "ticks": 103496,
          "time": 152.55391256250002,
          "velocity": 0.7086614173228346
        },
        {
          "duration": 0.5188507499999844,
          "durationTicks": 352,
          "midi": 33,
          "name": "A1",
          "ticks": 104068,
          "time": 153.39704503125003,
          "velocity": 0.6535433070866141
        },
        {
          "duration": 0.3006975937499874,
          "durationTicks": 204,
          "midi": 36,
          "name": "C2",
          "ticks": 104448,
          "time": 153.95716800000002,
          "velocity": 0.7322834645669292
        },
        {
          "duration": 0.22110117187500578,
          "durationTicks": 150,
          "midi": 35,
          "name": "B1",
          "ticks": 104648,
          "time": 154.2519695625,
          "velocity": 0.5433070866141733
        },
        {
          "duration": 0.33017774999999006,
          "durationTicks": 224,
          "midi": 33,
          "name": "A1",
          "ticks": 104836,
          "time": 154.52908303125002,
          "velocity": 0.6220472440944882
        },
        {
          "duration": 0.5896031249999965,
          "durationTicks": 400,
          "midi": 31,
          "name": "G1",
          "ticks": 105032,
          "time": 154.8179885625,
          "velocity": 0.6850393700787402
        },
        {
          "duration": 0.3183856875000117,
          "durationTicks": 216,
          "midi": 43,
          "name": "G2",
          "ticks": 105408,
          "time": 155.3722155,
          "velocity": 0.6456692913385826
        },
        {
          "duration": 0.27121743750001315,
          "durationTicks": 184,
          "midi": 31,
          "name": "G1",
          "ticks": 105600,
          "time": 155.655225,
          "velocity": 0.6456692913385826
        },
        {
          "duration": 0.3183856875000117,
          "durationTicks": 216,
          "midi": 28,
          "name": "E1",
          "ticks": 105800,
          "time": 155.9500265625,
          "velocity": 0.5590551181102362
        },
        {
          "duration": 2.140259343749989,
          "durationTicks": 1452,
          "midi": 38,
          "name": "D2",
          "ticks": 105984,
          "time": 156.221244,
          "velocity": 0.6929133858267716
        },
        {
          "duration": 3.679123500000003,
          "durationTicks": 2496,
          "midi": 37,
          "name": "C#2",
          "ticks": 107520,
          "time": 158.48532,
          "velocity": 0.5905511811023622
        },
        {
          "duration": 0.1474007812499849,
          "durationTicks": 100,
          "midi": 42,
          "name": "F#2",
          "ticks": 109928,
          "time": 162.03473081250002,
          "velocity": 0.4094488188976378
        },
        {
          "duration": 0.14740078125001332,
          "durationTicks": 100,
          "midi": 44,
          "name": "G#2",
          "ticks": 110016,
          "time": 162.1644435,
          "velocity": 0.5905511811023622
        },
        {
          "duration": 0.11792062500001066,
          "durationTicks": 80,
          "midi": 49,
          "name": "C#3",
          "ticks": 110114,
          "time": 162.308896265625,
          "velocity": 0.5905511811023622
        },
        {
          "duration": 0.14150474999999574,
          "durationTicks": 96,
          "midi": 44,
          "name": "G#2",
          "ticks": 110308,
          "time": 162.59485378125004,
          "velocity": 0.5118110236220472
        },
        {
          "duration": 4.230402421875027,
          "durationTicks": 2870,
          "midi": 37,
          "name": "C#2",
          "ticks": 110408,
          "time": 162.7422545625,
          "velocity": 0.6456692913385826
        },
        {
          "duration": 0.3036456093749962,
          "durationTicks": 206,
          "midi": 32,
          "name": "G#1",
          "ticks": 113380,
          "time": 167.12300578125001,
          "velocity": 0.5984251968503937
        },
        {
          "duration": 0.6072912187500208,
          "durationTicks": 412,
          "midi": 37,
          "name": "C#2",
          "ticks": 113664,
          "time": 167.541624,
          "velocity": 0.5826771653543307
        },
        {
          "duration": 1.3973594062500183,
          "durationTicks": 948,
          "midi": 35,
          "name": "B1",
          "ticks": 114248,
          "time": 168.4024445625,
          "velocity": 0.5590551181102362
        },
        {
          "duration": 0.595499156250014,
          "durationTicks": 404,
          "midi": 32,
          "name": "G#1",
          "ticks": 115200,
          "time": 169.8057,
          "velocity": 0.5826771653543307
        },
        {
          "duration": 0.8401844531250049,
          "durationTicks": 570,
          "midi": 33,
          "name": "A1",
          "ticks": 115784,
          "time": 170.6665205625,
          "velocity": 0.5984251968503937
        },
        {
          "duration": 0.10318054687502354,
          "durationTicks": 70,
          "midi": 34,
          "name": "A#1",
          "ticks": 116312,
          "time": 171.4447966875,
          "velocity": 0.3779527559055118
        },
        {
          "duration": 0.5778110625000181,
          "durationTicks": 392,
          "midi": 35,
          "name": "B1",
          "ticks": 116354,
          "time": 171.50670501562502,
          "velocity": 0.5433070866141733
        },
        {
          "duration": 0.6013951875000032,
          "durationTicks": 408,
          "midi": 37,
          "name": "C#2",
          "ticks": 116736,
          "time": 172.06977600000002,
          "velocity": 0.6062992125984252
        },
        {
          "duration": 1.1349860156250315,
          "durationTicks": 770,
          "midi": 35,
          "name": "B1",
          "ticks": 117320,
          "time": 172.9305965625,
          "velocity": 0.5669291338582677
        },
        {
          "duration": 0.3242817187500009,
          "durationTicks": 220,
          "midi": 32,
          "name": "G#1",
          "ticks": 118080,
          "time": 174.05084250000002,
          "velocity": 0.5826771653543307
        },
        {
          "duration": 0.053064281250016165,
          "durationTicks": 36,
          "midi": 33,
          "name": "A1",
          "ticks": 118468,
          "time": 174.62275753125002,
          "velocity": 0.5433070866141733
        },
        {
          "duration": 0.5896031249999965,
          "durationTicks": 400,
          "midi": 33,
          "name": "A1",
          "ticks": 118656,
          "time": 174.89987100000002,
          "velocity": 0.6062992125984252
        },
        {
          "duration": 0.26532140624999556,
          "durationTicks": 180,
          "midi": 45,
          "name": "A2",
          "ticks": 119240,
          "time": 175.7606915625,
          "velocity": 0.5433070866141733
        },
        {
          "duration": 0.1267646718749802,
          "durationTicks": 86,
          "midi": 44,
          "name": "G#2",
          "ticks": 119424,
          "time": 176.031909,
          "velocity": 0.3858267716535433
        },
        {
          "duration": 0.09728451562500595,
          "durationTicks": 66,
          "midi": 40,
          "name": "E2",
          "ticks": 119516,
          "time": 176.16751771875,
          "velocity": 0.5511811023622047
        },
        {
          "duration": 0.5896031249999965,
          "durationTicks": 400,
          "midi": 37,
          "name": "C#2",
          "ticks": 119808,
          "time": 176.59792800000002,
          "velocity": 0.5905511811023622
        },
        {
          "duration": 0.8107042968750022,
          "durationTicks": 550,
          "midi": 35,
          "name": "B1",
          "ticks": 120396,
          "time": 177.46464459375002,
          "velocity": 0.5511811023622047
        },
        {
          "duration": 0.5866551093750161,
          "durationTicks": 398,
          "midi": 35,
          "name": "B1",
          "ticks": 120960,
          "time": 178.295985,
          "velocity": 0.4566929133858268
        },
        {
          "duration": 0.5896031250000249,
          "durationTicks": 400,
          "midi": 32,
          "name": "G#1",
          "ticks": 121344,
          "time": 178.862004,
          "velocity": 0.5905511811023622
        },
        {
          "duration": 0.8490285000000029,
          "durationTicks": 576,
          "midi": 33,
          "name": "A1",
          "ticks": 121928,
          "time": 179.7228245625,
          "velocity": 0.5826771653543307
        },
        {
          "duration": 0.07664840625000124,
          "durationTicks": 52,
          "midi": 34,
          "name": "A#1",
          "ticks": 122474,
          "time": 180.527632828125,
          "velocity": 0.3779527559055118
        },
        {
          "duration": 0.5837070937500073,
          "durationTicks": 396,
          "midi": 35,
          "name": "B1",
          "ticks": 122496,
          "time": 180.56006100000002,
          "velocity": 0.5826771653543307
        },
        {
          "duration": 0.6013951875000032,
          "durationTicks": 408,
          "midi": 37,
          "name": "C#2",
          "ticks": 122880,
          "time": 181.12608,
          "velocity": 0.6141732283464567
        },
        {
          "duration": 1.1674141874999862,
          "durationTicks": 792,
          "midi": 35,
          "name": "B1",
          "ticks": 123464,
          "time": 181.9869005625,
          "velocity": 0.5354330708661418
        },
        {
          "duration": 0.28890553125000906,
          "durationTicks": 196,
          "midi": 32,
          "name": "G#1",
          "ticks": 124232,
          "time": 183.1189385625,
          "velocity": 0.5590551181102362
        },
        {
          "duration": 0.04716824999999858,
          "durationTicks": 32,
          "midi": 33,
          "name": "A1",
          "ticks": 124616,
          "time": 183.68495756250002,
          "velocity": 0.6062992125984252
        },
        {
          "duration": 0.5925511406249768,
          "durationTicks": 402,
          "midi": 33,
          "name": "A1",
          "ticks": 124800,
          "time": 183.95617500000003,
          "velocity": 0.6220472440944882
        },
        {
          "duration": 0.2594253750000064,
          "durationTicks": 176,
          "midi": 33,
          "name": "A1",
          "ticks": 125384,
          "time": 184.8169955625,
          "velocity": 0.5590551181102362
        },
        {
          "duration": 0.39798210937499334,
          "durationTicks": 270,
          "midi": 35,
          "name": "B1",
          "ticks": 125668,
          "time": 185.23561378125004,
          "velocity": 0.5433070866141733
        },
        {
          "duration": 0.5896031250000249,
          "durationTicks": 400,
          "midi": 37,
          "name": "C#2",
          "ticks": 125952,
          "time": 185.654232,
          "velocity": 0.5905511811023622
        },
        {
          "duration": 0.8549245312500204,
          "durationTicks": 580,
          "midi": 35,
          "name": "B1",
          "ticks": 126540,
          "time": 186.52094859375,
          "velocity": 0.5511811023622047
        },
        {
          "duration": 0.5866551093749877,
          "durationTicks": 398,
          "midi": 42,
          "name": "F#2",
          "ticks": 127104,
          "time": 187.352289,
          "velocity": 0.4566929133858268
        },
        {
          "duration": 0.5896031249999965,
          "durationTicks": 400,
          "midi": 32,
          "name": "G#1",
          "ticks": 127488,
          "time": 187.91830800000002,
          "velocity": 0.5905511811023622
        },
        {
          "duration": 0.8313404062500069,
          "durationTicks": 564,
          "midi": 33,
          "name": "A1",
          "ticks": 128072,
          "time": 188.7791285625,
          "velocity": 0.5826771653543307
        },
        {
          "duration": 0.0648563437499945,
          "durationTicks": 44,
          "midi": 34,
          "name": "A#1",
          "ticks": 128620,
          "time": 189.58688484375003,
          "velocity": 0.47244094488188976
        },
        {
          "duration": 0.2830094999999915,
          "durationTicks": 192,
          "midi": 39,
          "name": "D#2",
          "ticks": 128640,
          "time": 189.61636500000003,
          "velocity": 0.5905511811023622
        },
        {
          "duration": 0.3006975937499874,
          "durationTicks": 204,
          "midi": 35,
          "name": "B1",
          "ticks": 128826,
          "time": 189.89053045312502,
          "velocity": 0.4094488188976378
        },
        {
          "duration": 0.6013951875000032,
          "durationTicks": 408,
          "midi": 37,
          "name": "C#2",
          "ticks": 129024,
          "time": 190.182384,
          "velocity": 0.6062992125984252
        },
        {
          "duration": 0.5837070937500073,
          "durationTicks": 396,
          "midi": 35,
          "name": "B1",
          "ticks": 129608,
          "time": 191.0432045625,
          "velocity": 0.5669291338582677
        },
        {
          "duration": 0.30364560937496776,
          "durationTicks": 206,
          "midi": 42,
          "name": "F#2",
          "ticks": 129984,
          "time": 191.59743150000003,
          "velocity": 0.5669291338582677
        },
        {
          "duration": 0.26826942187497593,
          "durationTicks": 182,
          "midi": 35,
          "name": "B1",
          "ticks": 130170,
          "time": 191.87159695312502,
          "velocity": 0.48031496062992124
        },
        {
          "duration": 0.3242817187500293,
          "durationTicks": 220,
          "midi": 32,
          "name": "G#1",
          "ticks": 130368,
          "time": 192.1634505,
          "velocity": 0.5826771653543307
        },
        {
          "duration": 0.053064281249987744,
          "durationTicks": 36,
          "midi": 33,
          "name": "A1",
          "ticks": 130756,
          "time": 192.73536553125004,
          "velocity": 0.5433070866141733
        },
        {
          "duration": 0.5896031250000249,
          "durationTicks": 400,
          "midi": 33,
          "name": "A1",
          "ticks": 130944,
          "time": 193.012479,
          "velocity": 0.6062992125984252
        },
        {
          "duration": 0.25058132812503686,
          "durationTicks": 170,
          "midi": 45,
          "name": "A2",
          "ticks": 131528,
          "time": 193.8732995625,
          "velocity": 0.5433070866141733
        },
        {
          "duration": 0.14740078125001332,
          "durationTicks": 100,
          "midi": 44,
          "name": "G#2",
          "ticks": 131712,
          "time": 194.144517,
          "velocity": 0.4645669291338583
        },
        {
          "duration": 0.09728451562500595,
          "durationTicks": 66,
          "midi": 40,
          "name": "E2",
          "ticks": 131804,
          "time": 194.28012571875,
          "velocity": 0.5511811023622047
        },
        {
          "duration": 0.5896031249999965,
          "durationTicks": 400,
          "midi": 37,
          "name": "C#2",
          "ticks": 132096,
          "time": 194.71053600000002,
          "velocity": 0.5905511811023622
        },
        {
          "duration": 0.9020927812499906,
          "durationTicks": 612,
          "midi": 35,
          "name": "B1",
          "ticks": 132684,
          "time": 195.57725259375002,
          "velocity": 0.5511811023622047
        },
        {
          "duration": 0.5542269375000046,
          "durationTicks": 376,
          "midi": 42,
          "name": "F#2",
          "ticks": 133248,
          "time": 196.40859300000002,
          "velocity": 0.4566929133858268
        },
        {
          "duration": 0.5896031250000249,
          "durationTicks": 400,
          "midi": 32,
          "name": "G#1",
          "ticks": 133632,
          "time": 196.974612,
          "velocity": 0.5905511811023622
        },
        {
          "duration": 0.8490285000000029,
          "durationTicks": 576,
          "midi": 33,
          "name": "A1",
          "ticks": 134216,
          "time": 197.83543256250002,
          "velocity": 0.5826771653543307
        },
        {
          "duration": 0.5866551093749877,
          "durationTicks": 398,
          "midi": 35,
          "name": "B1",
          "ticks": 134784,
          "time": 198.672669,
          "velocity": 0.5826771653543307
        },
        {
          "duration": 0.6013951875000032,
          "durationTicks": 408,
          "midi": 37,
          "name": "C#2",
          "ticks": 135168,
          "time": 199.23868800000002,
          "velocity": 0.6141732283464567
        },
        {
          "duration": 1.1674141875000146,
          "durationTicks": 792,
          "midi": 35,
          "name": "B1",
          "ticks": 135752,
          "time": 200.0995085625,
          "velocity": 0.5354330708661418
        },
        {
          "duration": 0.28890553125000906,
          "durationTicks": 196,
          "midi": 32,
          "name": "G#1",
          "ticks": 136520,
          "time": 201.2315465625,
          "velocity": 0.5590551181102362
        },
        {
          "duration": 0.047168250000027,
          "durationTicks": 32,
          "midi": 33,
          "name": "A1",
          "ticks": 136904,
          "time": 201.7975655625,
          "velocity": 0.6062992125984252
        },
        {
          "duration": 1.1821542656250017,
          "durationTicks": 802,
          "midi": 33,
          "name": "A1",
          "ticks": 137088,
          "time": 202.06878300000002,
          "velocity": 0.6220472440944882
        },
        {
          "duration": 0.29185354687498943,
          "durationTicks": 198,
          "midi": 45,
          "name": "A2",
          "ticks": 137856,
          "time": 203.20082100000002,
          "velocity": 0.5905511811023622
        },
        {
          "duration": 0.07075237500001208,
          "durationTicks": 48,
          "midi": 44,
          "name": "G#2",
          "ticks": 138030,
          "time": 203.45729835937502,
          "velocity": 0.47244094488188976
        },
        {
          "duration": 0.07075237500001208,
          "durationTicks": 48,
          "midi": 43,
          "name": "G2",
          "ticks": 138060,
          "time": 203.50151859375,
          "velocity": 0.4566929133858268
        },
        {
          "duration": 0.07370039062499245,
          "durationTicks": 50,
          "midi": 42,
          "name": "F#2",
          "ticks": 138090,
          "time": 203.54573882812502,
          "velocity": 0.4330708661417323
        },
        {
          "duration": 0.07370039062499245,
          "durationTicks": 50,
          "midi": 41,
          "name": "F2",
          "ticks": 138120,
          "time": 203.58995906250001,
          "velocity": 0.3858267716535433
        },
        {
          "duration": 0.07075237499998366,
          "durationTicks": 48,
          "midi": 40,
          "name": "E2",
          "ticks": 138152,
          "time": 203.6371273125,
          "velocity": 0.33858267716535434
        },
        {
          "duration": 0.5925511406249768,
          "durationTicks": 402,
          "midi": 38,
          "name": "D2",
          "ticks": 138240,
          "time": 203.76684000000003,
          "velocity": 0.7480314960629921
        },
        {
          "duration": 0.8814566718750143,
          "durationTicks": 598,
          "midi": 38,
          "name": "D2",
          "ticks": 138824,
          "time": 204.6276605625,
          "velocity": 0.6614173228346457
        },
        {
          "duration": 0.3006975937500158,
          "durationTicks": 204,
          "midi": 57,
          "name": "A3",
          "ticks": 139190,
          "time": 205.167147421875,
          "velocity": 0.47244094488188976
        },
        {
          "duration": 0.5660190000000114,
          "durationTicks": 384,
          "midi": 45,
          "name": "A2",
          "ticks": 139392,
          "time": 205.464897,
          "velocity": 0.5196850393700787
        },
        {
          "duration": 0.5896031249999965,
          "durationTicks": 400,
          "midi": 38,
          "name": "D2",
          "ticks": 139776,
          "time": 206.03091600000002,
          "velocity": 0.7165354330708661
        },
        {
          "duration": 0.8195483437500286,
          "durationTicks": 556,
          "midi": 38,
          "name": "D2",
          "ticks": 140360,
          "time": 206.8917365625,
          "velocity": 0.6299212598425197
        },
        {
          "duration": 0.5837070937500073,
          "durationTicks": 396,
          "midi": 33,
          "name": "A1",
          "ticks": 140928,
          "time": 207.72897300000002,
          "velocity": 0.5826771653543307
        },
        {
          "duration": 0.23584125000002132,
          "durationTicks": 160,
          "midi": 36,
          "name": "C2",
          "ticks": 141312,
          "time": 208.294992,
          "velocity": 0.7244094488188977
        },
        {
          "duration": 0.2387892656250017,
          "durationTicks": 162,
          "midi": 35,
          "name": "B1",
          "ticks": 141512,
          "time": 208.5897935625,
          "velocity": 0.6299212598425197
        },
        {
          "duration": 0.2387892656250017,
          "durationTicks": 162,
          "midi": 33,
          "name": "A1",
          "ticks": 141700,
          "time": 208.86690703125004,
          "velocity": 0.6299212598425197
        },
        {
          "duration": 0.507058687500006,
          "durationTicks": 344,
          "midi": 31,
          "name": "G1",
          "ticks": 141896,
          "time": 209.15581256250002,
          "velocity": 0.6299212598425197
        },
        {
          "duration": 0.26532140624999556,
          "durationTicks": 180,
          "midi": 38,
          "name": "D2",
          "ticks": 142284,
          "time": 209.72772759375002,
          "velocity": 0.5669291338582677
        },
        {
          "duration": 0.2948015624999982,
          "durationTicks": 200,
          "midi": 43,
          "name": "G2",
          "ticks": 142464,
          "time": 209.993049,
          "velocity": 0.6850393700787402
        },
        {
          "duration": 0.28890553125000906,
          "durationTicks": 196,
          "midi": 42,
          "name": "F#2",
          "ticks": 142664,
          "time": 210.2878505625,
          "velocity": 0.48031496062992124
        },
        {
          "duration": 0.5896031249999965,
          "durationTicks": 400,
          "midi": 38,
          "name": "D2",
          "ticks": 142848,
          "time": 210.55906800000002,
          "velocity": 0.7716535433070866
        },
        {
          "duration": 0.14445276562500453,
          "durationTicks": 98,
          "midi": 45,
          "name": "A2",
          "ticks": 143236,
          "time": 211.13098303125003,
          "velocity": 0.7401574803149606
        },
        {
          "duration": 0.011792062499978329,
          "durationTicks": 8,
          "midi": 38,
          "name": "D2",
          "ticks": 143424,
          "time": 211.40809650000003,
          "velocity": 0.5196850393700787
        },
        {
          "duration": 0.07370039062499245,
          "durationTicks": 50,
          "midi": 38,
          "name": "D2",
          "ticks": 143520,
          "time": 211.54960125000002,
          "velocity": 0.5905511811023622
        },
        {
          "duration": 0.2712174374999847,
          "durationTicks": 184,
          "midi": 42,
          "name": "F#2",
          "ticks": 143620,
          "time": 211.69700203125004,
          "velocity": 0.6614173228346457
        },
        {
          "duration": 0.3213337031250205,
          "durationTicks": 218,
          "midi": 43,
          "name": "G2",
          "ticks": 143798,
          "time": 211.959375421875,
          "velocity": 0.5039370078740157
        },
        {
          "duration": 0.30954164062498535,
          "durationTicks": 210,
          "midi": 44,
          "name": "G#2",
          "ticks": 143996,
          "time": 212.25122896875,
          "velocity": 0.6456692913385826
        },
        {
          "duration": 0.2830094999999915,
          "durationTicks": 192,
          "midi": 45,
          "name": "A2",
          "ticks": 144196,
          "time": 212.54603053125004,
          "velocity": 0.5748031496062992
        },
        {
          "duration": 0.6249793125000167,
          "durationTicks": 424,
          "midi": 38,
          "name": "D2",
          "ticks": 144384,
          "time": 212.823144,
          "velocity": 0.7401574803149606
        },
        {
          "duration": 0.8903007187500123,
          "durationTicks": 604,
          "midi": 38,
          "name": "D2",
          "ticks": 144968,
          "time": 213.6839645625,
          "velocity": 0.6377952755905512
        },
        {
          "duration": 0.2948015624999982,
          "durationTicks": 200,
          "midi": 45,
          "name": "A2",
          "ticks": 145536,
          "time": 214.52120100000002,
          "velocity": 0.47244094488188976
        },
        {
          "duration": 0.3006975937499874,
          "durationTicks": 204,
          "midi": 33,
          "name": "A1",
          "ticks": 145736,
          "time": 214.81600256250002,
          "velocity": 0.5905511811023622
        },
        {
          "duration": 0.6043432031249836,
          "durationTicks": 410,
          "midi": 38,
          "name": "D2",
          "ticks": 145920,
          "time": 215.08722000000003,
          "velocity": 0.7401574803149606
        },
        {
          "duration": 0.8372364374999961,
          "durationTicks": 568,
          "midi": 38,
          "name": "D2",
          "ticks": 146504,
          "time": 215.9480405625,
          "velocity": 0.6929133858267716
        },
        {
          "duration": 0.6013951875000032,
          "durationTicks": 408,
          "midi": 33,
          "name": "A1",
          "ticks": 147072,
          "time": 216.785277,
          "velocity": 0.6377952755905512
        },
        {
          "duration": 0.2771134687500023,
          "durationTicks": 188,
          "midi": 36,
          "name": "C2",
          "ticks": 147456,
          "time": 217.35129600000002,
          "velocity": 0.7244094488188977
        },
        {
          "duration": 0.2122571249999794,
          "durationTicks": 144,
          "midi": 35,
          "name": "B1",
          "ticks": 147656,
          "time": 217.64609756250002,
          "velocity": 0.5905511811023622
        },
        {
          "duration": 0.2535293437499888,
          "durationTicks": 172,
          "midi": 33,
          "name": "A1",
          "ticks": 147840,
          "time": 217.91731500000003,
          "velocity": 0.6614173228346457
        },
        {
          "duration": 0.8254443749999893,
          "durationTicks": 560,
          "midi": 31,
          "name": "G1",
          "ticks": 148044,
          "time": 218.21801259375002,
          "velocity": 0.6614173228346457
        },
        {
          "duration": 0.28890553125000906,
          "durationTicks": 196,
          "midi": 38,
          "name": "D2",
          "ticks": 148608,
          "time": 219.04935300000002,
          "velocity": 0.6850393700787402
        },
        {
          "duration": 0.27121743750001315,
          "durationTicks": 184,
          "midi": 35,
          "name": "B1",
          "ticks": 148808,
          "time": 219.3441545625,
          "velocity": 0.5196850393700787
        },
        {
          "duration": 0.26826942187500435,
          "durationTicks": 182,
          "midi": 38,
          "name": "D2",
          "ticks": 148992,
          "time": 219.615372,
          "velocity": 0.7952755905511811
        },
        {
          "duration": 0.29185354687498943,
          "durationTicks": 198,
          "midi": 38,
          "name": "D2",
          "ticks": 149192,
          "time": 219.9101735625,
          "velocity": 0.5826771653543307
        },
        {
          "duration": 0.26532140624999556,
          "durationTicks": 180,
          "midi": 30,
          "name": "F#1",
          "ticks": 149376,
          "time": 220.18139100000002,
          "velocity": 0.6850393700787402
        },
        {
          "duration": 0.047168250000027,
          "durationTicks": 32,
          "midi": 33,
          "name": "A1",
          "ticks": 149684,
          "time": 220.63538540625,
          "velocity": 0.5433070866141733
        },
        {
          "duration": 0.26237339062498677,
          "durationTicks": 178,
          "midi": 30,
          "name": "F#1",
          "ticks": 149760,
          "time": 220.74741000000003,
          "velocity": 0.7086614173228346
        },
        {
          "duration": 0.30954164062498535,
          "durationTicks": 210,
          "midi": 31,
          "name": "G1",
          "ticks": 149946,
          "time": 221.02157545312502,
          "velocity": 0.5905511811023622
        },
        {
          "duration": 0.26826942187497593,
          "durationTicks": 182,
          "midi": 32,
          "name": "G#1",
          "ticks": 150136,
          "time": 221.30163693750004,
          "velocity": 0.7165354330708661
        },
        {
          "duration": 0.25352934375001723,
          "durationTicks": 172,
          "midi": 33,
          "name": "A1",
          "ticks": 150338,
          "time": 221.599386515625,
          "velocity": 0.6456692913385826
        },
        {
          "duration": 0.636771374999995,
          "durationTicks": 432,
          "midi": 38,
          "name": "D2",
          "ticks": 150528,
          "time": 221.87944800000002,
          "velocity": 0.7637795275590551
        },
        {
          "duration": 0.5896031249999965,
          "durationTicks": 400,
          "midi": 38,
          "name": "D2",
          "ticks": 151116,
          "time": 222.74616459375002,
          "velocity": 0.7086614173228346
        },
        {
          "duration": 0.29185354687498943,
          "durationTicks": 198,
          "midi": 45,
          "name": "A2",
          "ticks": 151480,
          "time": 223.28270343750003,
          "velocity": 0.5748031496062992
        },
        {
          "duration": 0.4923186093749905,
          "durationTicks": 334,
          "midi": 33,
          "name": "A1",
          "ticks": 151680,
          "time": 223.57750500000003,
          "velocity": 0.7086614173228346
        },
        {
          "duration": 0.6043432031249836,
          "durationTicks": 410,
          "midi": 38,
          "name": "D2",
          "ticks": 152064,
          "time": 224.143524,
          "velocity": 0.7716535433070866
        },
        {
          "duration": 0.8903007187499838,
          "durationTicks": 604,
          "midi": 38,
          "name": "D2",
          "ticks": 152648,
          "time": 225.00434456250002,
          "velocity": 0.7165354330708661
        },
        {
          "duration": 0.4923186093750189,
          "durationTicks": 334,
          "midi": 35,
          "name": "B1",
          "ticks": 153216,
          "time": 225.84158100000002,
          "velocity": 0.6220472440944882
        },
        {
          "duration": 0.26237339062498677,
          "durationTicks": 178,
          "midi": 36,
          "name": "C2",
          "ticks": 153600,
          "time": 226.40760000000003,
          "velocity": 0.7559055118110236
        },
        {
          "duration": 0.21225712500000782,
          "durationTicks": 144,
          "midi": 35,
          "name": "B1",
          "ticks": 153800,
          "time": 226.7024015625,
          "velocity": 0.5669291338582677
        },
        {
          "duration": 0.2712174374999847,
          "durationTicks": 184,
          "midi": 33,
          "name": "A1",
          "ticks": 153988,
          "time": 226.97951503125003,
          "velocity": 0.6850393700787402
        },
        {
          "duration": 0.37439798437497984,
          "durationTicks": 254,
          "midi": 31,
          "name": "G1",
          "ticks": 154188,
          "time": 227.27431659375003,
          "velocity": 0.7007874015748031
        },
        {
          "duration": 0.24763331249999965,
          "durationTicks": 168,
          "midi": 38,
          "name": "D2",
          "ticks": 154566,
          "time": 227.83149154687501,
          "velocity": 0.6456692913385826
        },
        {
          "duration": 0.11792062500001066,
          "durationTicks": 80,
          "midi": 42,
          "name": "F#2",
          "ticks": 154752,
          "time": 228.105657,
          "velocity": 0.5039370078740157
        },
        {
          "duration": 0.20046506249997265,
          "durationTicks": 136,
          "midi": 43,
          "name": "G2",
          "ticks": 154810,
          "time": 228.19114945312504,
          "velocity": 0.5748031496062992
        },
        {
          "duration": 0.27121743750001315,
          "durationTicks": 184,
          "midi": 42,
          "name": "F#2",
          "ticks": 154952,
          "time": 228.4004585625,
          "velocity": 0.5511811023622047
        },
        {
          "duration": 0.23584125000002132,
          "durationTicks": 160,
          "midi": 38,
          "name": "D2",
          "ticks": 155136,
          "time": 228.67167600000002,
          "velocity": 0.7480314960629921
        },
        {
          "duration": 0.24763331249999965,
          "durationTicks": 168,
          "midi": 30,
          "name": "F#1",
          "ticks": 155342,
          "time": 228.97532160937502,
          "velocity": 0.5748031496062992
        },
        {
          "duration": 0.24173728124998206,
          "durationTicks": 164,
          "midi": 31,
          "name": "G1",
          "ticks": 155706,
          "time": 229.51186045312502,
          "velocity": 0.6614173228346457
        },
        {
          "duration": 0.2358412499999929,
          "durationTicks": 160,
          "midi": 33,
          "name": "A1",
          "ticks": 156094,
          "time": 230.08377548437502,
          "velocity": 0.6456692913385826
        },
        {
          "duration": 0.2623733906250152,
          "durationTicks": 178,
          "midi": 35,
          "name": "B1",
          "ticks": 156480,
          "time": 230.65274250000002,
          "velocity": 0.6456692913385826
        },
        {
          "duration": 0.595499156250014,
          "durationTicks": 404,
          "midi": 38,
          "name": "D2",
          "ticks": 156672,
          "time": 230.935752,
          "velocity": 0.7952755905511811
        },
        {
          "duration": 0.8195483437500002,
          "durationTicks": 556,
          "midi": 38,
          "name": "D2",
          "ticks": 157256,
          "time": 231.79657256250002,
          "velocity": 0.6614173228346457
        },
        {
          "duration": 0.12086864062499103,
          "durationTicks": 82,
          "midi": 50,
          "name": "D3",
          "ticks": 157828,
          "time": 232.63970503125003,
          "velocity": 0.5039370078740157
        },
        {
          "duration": 0.12676467187500862,
          "durationTicks": 86,
          "midi": 51,
          "name": "D#3",
          "ticks": 157856,
          "time": 232.68097725,
          "velocity": 0.4409448818897638
        },
        {
          "duration": 0.16803689062501803,
          "durationTicks": 114,
          "midi": 54,
          "name": "F#3",
          "ticks": 157902,
          "time": 232.74878160937502,
          "velocity": 0.36220472440944884
        },
        {
          "duration": 0.07959642187501004,
          "durationTicks": 54,
          "midi": 52,
          "name": "E3",
          "ticks": 157902,
          "time": 232.74878160937502,
          "velocity": 0.4409448818897638
        },
        {
          "duration": 0.3213337031249921,
          "durationTicks": 218,
          "midi": 57,
          "name": "A3",
          "ticks": 158010,
          "time": 232.907974453125,
          "velocity": 0.6456692913385826
        },
        {
          "duration": 0.27121743750001315,
          "durationTicks": 184,
          "midi": 55,
          "name": "G3",
          "ticks": 158208,
          "time": 233.19982800000002,
          "velocity": 0.6456692913385826
        },
        {
          "duration": 0.3183856874999833,
          "durationTicks": 216,
          "midi": 54,
          "name": "F#3",
          "ticks": 158398,
          "time": 233.47988948437504,
          "velocity": 0.5039370078740157
        },
        {
          "duration": 0.29480156250002665,
          "durationTicks": 200,
          "midi": 50,
          "name": "D3",
          "ticks": 158594,
          "time": 233.76879501562502,
          "velocity": 0.5748031496062992
        },
        {
          "duration": 0.8166003281250198,
          "durationTicks": 554,
          "midi": 45,
          "name": "A2",
          "ticks": 158786,
          "time": 234.051804515625,
          "velocity": 0.4409448818897638
        },
        {
          "duration": 0.5188507499999844,
          "durationTicks": 352,
          "midi": 38,
          "name": "D2",
          "ticks": 159352,
          "time": 234.88609293750002,
          "velocity": 0.7165354330708661
        },
        {
          "duration": 0.12381665624999982,
          "durationTicks": 84,
          "midi": 37,
          "name": "C#2",
          "ticks": 159688,
          "time": 235.38135956250002,
          "velocity": 0.47244094488188976
        },
        {
          "duration": 0.28890553125000906,
          "durationTicks": 196,
          "midi": 36,
          "name": "C2",
          "ticks": 159744,
          "time": 235.463904,
          "velocity": 0.7165354330708661
        },
        {
          "duration": 0.20341307812500986,
          "durationTicks": 138,
          "midi": 35,
          "name": "B1",
          "ticks": 159944,
          "time": 235.7587055625,
          "velocity": 0.5433070866141733
        },
        {
          "duration": 0.3242817187500009,
          "durationTicks": 220,
          "midi": 33,
          "name": "A1",
          "ticks": 160128,
          "time": 236.02992300000003,
          "velocity": 0.6614173228346457
        },
        {
          "duration": 0.507058687500006,
          "durationTicks": 344,
          "midi": 31,
          "name": "G1",
          "ticks": 160332,
          "time": 236.33062059375,
          "velocity": 0.7007874015748031
        },
        {
          "duration": 0.18572498437501395,
          "durationTicks": 126,
          "midi": 31,
          "name": "G1",
          "ticks": 160712,
          "time": 236.8907435625,
          "velocity": 0.5905511811023622
        },
        {
          "duration": 0.3036456093749962,
          "durationTicks": 206,
          "midi": 43,
          "name": "G2",
          "ticks": 160896,
          "time": 237.16196100000002,
          "velocity": 0.7086614173228346
        },
        {
          "duration": 0.2712174374999847,
          "durationTicks": 184,
          "midi": 42,
          "name": "F#2",
          "ticks": 161092,
          "time": 237.45086653125003,
          "velocity": 0.4566929133858268
        },
        {
          "duration": 1.718693109374982,
          "durationTicks": 1166,
          "midi": 38,
          "name": "D2",
          "ticks": 161280,
          "time": 237.72798000000003,
          "velocity": 0.7322834645669292
        },
        {
          "duration": 0.4068261562500197,
          "durationTicks": 276,
          "midi": 45,
          "name": "A2",
          "ticks": 162432,
          "time": 239.426037,
          "velocity": 0.48031496062992124
        },
        {
          "duration": 0.10318054687499512,
          "durationTicks": 70,
          "midi": 46,
          "name": "A#2",
          "ticks": 162676,
          "time": 239.78569490625003,
          "velocity": 0.2677165354330709
        },
        {
          "duration": 0.10023253124998632,
          "durationTicks": 68,
          "midi": 47,
          "name": "B2",
          "ticks": 162700,
          "time": 239.82107109375002,
          "velocity": 0.23622047244094488
        },
        {
          "duration": 0.11792062499998224,
          "durationTicks": 80,
          "midi": 48,
          "name": "C3",
          "ticks": 162744,
          "time": 239.88592743750002,
          "velocity": 0.33858267716535434
        },
        {
          "duration": 0.14150474999999574,
          "durationTicks": 96,
          "midi": 49,
          "name": "C#3",
          "ticks": 162778,
          "time": 239.93604370312502,
          "velocity": 0.3464566929133858
        },
        {
          "duration": 2.5176053437499775,
          "durationTicks": 1708,
          "midi": 50,
          "name": "D3",
          "ticks": 162844,
          "time": 240.03332821875003,
          "velocity": 0.6062992125984252
        },
        {
          "duration": 0.28890553124998064,
          "durationTicks": 196,
          "midi": 52,
          "name": "E3",
          "ticks": 164536,
          "time": 242.52734943750002,
          "velocity": 0.4881889763779528
        },
        {
          "duration": 0.29480156250002665,
          "durationTicks": 200,
          "midi": 53,
          "name": "F3",
          "ticks": 164732,
          "time": 242.81625496875,
          "velocity": 0.4094488188976378
        },
        {
          "duration": 1.4445276562499885,
          "durationTicks": 980,
          "midi": 60,
          "name": "C4",
          "ticks": 164926,
          "time": 243.10221248437503,
          "velocity": 0.4881889763779528
        }
      ],
      "endOfTrackTicks": 167424
    },
    {
      "channel": 2,
      "controlChanges": {},
      "pitchBends": [],
      "instrument": {
        "family": "piano",
        "number": 0,
        "name": "acoustic grand piano"
      },
      "name": "#Funk Gtr",
      "notes": [
        {
          "duration": 0.14150475000000018,
          "durationTicks": 96,
          "midi": 66,
          "name": "F#4",
          "ticks": 3072,
          "time": 4.528152,
          "velocity": 0.4645669291338583
        },
        {
          "duration": 0.09433649999999982,
          "durationTicks": 64,
          "midi": 62,
          "name": "D4",
          "ticks": 3072,
          "time": 4.528152,
          "velocity": 0.5905511811023622
        },
        {
          "duration": 0.08844046875,
          "durationTicks": 60,
          "midi": 59,
          "name": "B3",
          "ticks": 3072,
          "time": 4.528152,
          "velocity": 0.6299212598425197
        },
        {
          "duration": 1.0966618124999998,
          "durationTicks": 744,
          "midi": 64,
          "name": "E4",
          "ticks": 3656,
          "time": 5.388972562500001,
          "velocity": 0.5196850393700787
        },
        {
          "duration": 1.1320379999999997,
          "durationTicks": 768,
          "midi": 61,
          "name": "C#4",
          "ticks": 3656,
          "time": 5.388972562500001,
          "velocity": 0.6220472440944882
        },
        {
          "duration": 1.0848697499999993,
          "durationTicks": 736,
          "midi": 57,
          "name": "A3",
          "ticks": 3656,
          "time": 5.388972562500001,
          "velocity": 0.6299212598425197
        },
        {
          "duration": 0.14150475000000018,
          "durationTicks": 96,
          "midi": 59,
          "name": "B3",
          "ticks": 4612,
          "time": 6.79812403125,
          "velocity": 0.6299212598425197
        },
        {
          "duration": 0.11202459375000018,
          "durationTicks": 76,
          "midi": 62,
          "name": "D4",
          "ticks": 4612,
          "time": 6.79812403125,
          "velocity": 0.6062992125984252
        },
        {
          "duration": 0.16508887500000036,
          "durationTicks": 112,
          "midi": 66,
          "name": "F#4",
          "ticks": 4612,
          "time": 6.79812403125,
          "velocity": 0.4251968503937008
        },
        {
          "duration": 0.5954991562499989,
          "durationTicks": 404,
          "midi": 64,
          "name": "E4",
          "ticks": 5192,
          "time": 7.653048562500001,
          "velocity": 0.49606299212598426
        },
        {
          "duration": 0.5954991562499989,
          "durationTicks": 404,
          "midi": 61,
          "name": "C#4",
          "ticks": 5192,
          "time": 7.653048562500001,
          "velocity": 0.5984251968503937
        },
        {
          "duration": 0.6485634374999991,
          "durationTicks": 440,
          "midi": 57,
          "name": "A3",
          "ticks": 5192,
          "time": 7.653048562500001,
          "velocity": 0.6062992125984252
        },
        {
          "duration": 0.6485634375,
          "durationTicks": 440,
          "midi": 69,
          "name": "A4",
          "ticks": 5576,
          "time": 8.219067562500001,
          "velocity": 0.6220472440944882
        },
        {
          "duration": 0.3478658437500002,
          "durationTicks": 236,
          "midi": 64,
          "name": "E4",
          "ticks": 5760,
          "time": 8.490285,
          "velocity": 0.5590551181102362
        },
        {
          "duration": 0.1415047499999993,
          "durationTicks": 96,
          "midi": 61,
          "name": "C#4",
          "ticks": 5960,
          "time": 8.785086562500002,
          "velocity": 0.5275590551181102
        },
        {
          "duration": 0.07664840624999947,
          "durationTicks": 52,
          "midi": 62,
          "name": "D4",
          "ticks": 6148,
          "time": 9.06220003125,
          "velocity": 0.6299212598425197
        },
        {
          "duration": 0.07075237500000142,
          "durationTicks": 48,
          "midi": 66,
          "name": "F#4",
          "ticks": 6148,
          "time": 9.06220003125,
          "velocity": 0.47244094488188976
        },
        {
          "duration": 0.07075237500000142,
          "durationTicks": 48,
          "midi": 59,
          "name": "B3",
          "ticks": 6148,
          "time": 9.06220003125,
          "velocity": 0.6299212598425197
        },
        {
          "duration": 1.0789737187500013,
          "durationTicks": 732,
          "midi": 64,
          "name": "E4",
          "ticks": 6728,
          "time": 9.9171245625,
          "velocity": 0.4251968503937008
        },
        {
          "duration": 1.084869750000001,
          "durationTicks": 736,
          "midi": 61,
          "name": "C#4",
          "ticks": 6728,
          "time": 9.9171245625,
          "velocity": 0.5984251968503937
        },
        {
          "duration": 1.061285625,
          "durationTicks": 720,
          "midi": 57,
          "name": "A3",
          "ticks": 6728,
          "time": 9.9171245625,
          "velocity": 0.5984251968503937
        },
        {
          "duration": 0.12381665624999982,
          "durationTicks": 84,
          "midi": 66,
          "name": "F#4",
          "ticks": 7684,
          "time": 11.326276031250002,
          "velocity": 0.47244094488188976
        },
        {
          "duration": 0.09433649999999894,
          "durationTicks": 64,
          "midi": 62,
          "name": "D4",
          "ticks": 7684,
          "time": 11.326276031250002,
          "velocity": 0.6377952755905512
        },
        {
          "duration": 0.08844046874999911,
          "durationTicks": 60,
          "midi": 59,
          "name": "B3",
          "ticks": 7684,
          "time": 11.326276031250002,
          "velocity": 0.7007874015748031
        },
        {
          "duration": 0.589603125,
          "durationTicks": 400,
          "midi": 64,
          "name": "E4",
          "ticks": 8264,
          "time": 12.1812005625,
          "velocity": 0.4015748031496063
        },
        {
          "duration": 0.6131872500000011,
          "durationTicks": 416,
          "midi": 61,
          "name": "C#4",
          "ticks": 8264,
          "time": 12.1812005625,
          "velocity": 0.5826771653543307
        },
        {
          "duration": 0.6426674062500002,
          "durationTicks": 436,
          "midi": 57,
          "name": "A3",
          "ticks": 8264,
          "time": 12.1812005625,
          "velocity": 0.5826771653543307
        },
        {
          "duration": 0.5719150312500005,
          "durationTicks": 388,
          "midi": 69,
          "name": "A4",
          "ticks": 8648,
          "time": 12.7472195625,
          "velocity": 0.6377952755905512
        },
        {
          "duration": 0.31248965624999947,
          "durationTicks": 212,
          "midi": 64,
          "name": "E4",
          "ticks": 8832,
          "time": 13.018437,
          "velocity": 0.5748031496062992
        },
        {
          "duration": 0.1415047499999993,
          "durationTicks": 96,
          "midi": 61,
          "name": "C#4",
          "ticks": 9032,
          "time": 13.3132385625,
          "velocity": 0.5039370078740157
        },
        {
          "duration": 0.17098490625000018,
          "durationTicks": 116,
          "midi": 66,
          "name": "F#4",
          "ticks": 9216,
          "time": 13.584456000000001,
          "velocity": 0.5118110236220472
        },
        {
          "duration": 0.13560871874999947,
          "durationTicks": 92,
          "midi": 62,
          "name": "D4",
          "ticks": 9216,
          "time": 13.584456000000001,
          "velocity": 0.5196850393700787
        },
        {
          "duration": 0.12971268750000142,
          "durationTicks": 88,
          "midi": 59,
          "name": "B3",
          "ticks": 9216,
          "time": 13.584456000000001,
          "velocity": 0.5275590551181102
        },
        {
          "duration": 1.0141173750000014,
          "durationTicks": 688,
          "midi": 61,
          "name": "C#4",
          "ticks": 9800,
          "time": 14.4452765625,
          "velocity": 0.5196850393700787
        },
        {
          "duration": 0.8844046875,
          "durationTicks": 600,
          "midi": 64,
          "name": "E4",
          "ticks": 9800,
          "time": 14.4452765625,
          "velocity": 0.5433070866141733
        },
        {
          "duration": 0.9846372187499988,
          "durationTicks": 668,
          "midi": 57,
          "name": "A3",
          "ticks": 9804,
          "time": 14.451172593750002,
          "velocity": 0.5590551181102362
        },
        {
          "duration": 0.1356087187499977,
          "durationTicks": 92,
          "midi": 57,
          "name": "A3",
          "ticks": 10752,
          "time": 15.848532000000002,
          "velocity": 0.5196850393700787
        },
        {
          "duration": 0.16508887499999858,
          "durationTicks": 112,
          "midi": 61,
          "name": "C#4",
          "ticks": 10752,
          "time": 15.848532000000002,
          "velocity": 0.5039370078740157
        },
        {
          "duration": 0.15329681249999894,
          "durationTicks": 104,
          "midi": 54,
          "name": "F#3",
          "ticks": 10756,
          "time": 15.854428031250002,
          "velocity": 0.5196850393700787
        },
        {
          "duration": 0.5601229687500009,
          "durationTicks": 380,
          "midi": 59,
          "name": "B3",
          "ticks": 11336,
          "time": 16.7093525625,
          "velocity": 0.5118110236220472
        },
        {
          "duration": 0.5070586875000025,
          "durationTicks": 344,
          "midi": 55,
          "name": "G3",
          "ticks": 11336,
          "time": 16.7093525625,
          "velocity": 0.5590551181102362
        },
        {
          "duration": 0.6927836718750022,
          "durationTicks": 470,
          "midi": 62,
          "name": "D4",
          "ticks": 11336,
          "time": 16.7093525625,
          "velocity": 0.5590551181102362
        },
        {
          "duration": 0.1709849062499984,
          "durationTicks": 116,
          "midi": 55,
          "name": "G3",
          "ticks": 11712,
          "time": 17.263579500000002,
          "velocity": 0.5196850393700787
        },
        {
          "duration": 0.12086864062500169,
          "durationTicks": 82,
          "midi": 63,
          "name": "D#4",
          "ticks": 11768,
          "time": 17.3461239375,
          "velocity": 0.33070866141732286
        },
        {
          "duration": 0.13560871874999947,
          "durationTicks": 92,
          "midi": 56,
          "name": "G#3",
          "ticks": 11776,
          "time": 17.357916000000003,
          "velocity": 0.3779527559055118
        },
        {
          "duration": 0.45399440625000054,
          "durationTicks": 308,
          "midi": 64,
          "name": "E4",
          "ticks": 11812,
          "time": 17.41098028125,
          "velocity": 0.4881889763779528
        },
        {
          "duration": 0.12086864062499814,
          "durationTicks": 82,
          "midi": 57,
          "name": "A3",
          "ticks": 11836,
          "time": 17.446356468750004,
          "velocity": 0.3858267716535433
        },
        {
          "duration": 0.2712174375000025,
          "durationTicks": 184,
          "midi": 61,
          "name": "C#4",
          "ticks": 11904,
          "time": 17.546589,
          "velocity": 0.5905511811023622
        },
        {
          "duration": 0.08254443750000107,
          "durationTicks": 56,
          "midi": 57,
          "name": "A3",
          "ticks": 12104,
          "time": 17.841390562500003,
          "velocity": 0.49606299212598426
        },
        {
          "duration": 0.09138848437499902,
          "durationTicks": 62,
          "midi": 61,
          "name": "C#4",
          "ticks": 12204,
          "time": 17.98879134375,
          "velocity": 0.5039370078740157
        },
        {
          "duration": 0.04716824999999858,
          "durationTicks": 32,
          "midi": 64,
          "name": "E4",
          "ticks": 12204,
          "time": 17.98879134375,
          "velocity": 0.3700787401574803
        },
        {
          "duration": 0.1297126875000032,
          "durationTicks": 88,
          "midi": 59,
          "name": "B3",
          "ticks": 12292,
          "time": 18.11850403125,
          "velocity": 0.5669291338582677
        },
        {
          "duration": 0.12381665624999982,
          "durationTicks": 84,
          "midi": 62,
          "name": "D4",
          "ticks": 12292,
          "time": 18.11850403125,
          "velocity": 0.5669291338582677
        },
        {
          "duration": 0.8785086562499949,
          "durationTicks": 596,
          "midi": 61,
          "name": "C#4",
          "ticks": 12872,
          "time": 18.973428562500004,
          "velocity": 0.5433070866141733
        },
        {
          "duration": 0.6662515312499977,
          "durationTicks": 452,
          "midi": 64,
          "name": "E4",
          "ticks": 12872,
          "time": 18.973428562500004,
          "velocity": 0.5590551181102362
        },
        {
          "duration": 0.878508656250002,
          "durationTicks": 596,
          "midi": 57,
          "name": "A3",
          "ticks": 12876,
          "time": 18.97932459375,
          "velocity": 0.5669291338582677
        },
        {
          "duration": 0.117920625,
          "durationTicks": 80,
          "midi": 61,
          "name": "C#4",
          "ticks": 13640,
          "time": 20.105466562500002,
          "velocity": 0.5590551181102362
        },
        {
          "duration": 0.1474007812499991,
          "durationTicks": 100,
          "midi": 54,
          "name": "F#3",
          "ticks": 13644,
          "time": 20.111362593750002,
          "velocity": 0.5590551181102362
        },
        {
          "duration": 0.1474007812499991,
          "durationTicks": 100,
          "midi": 57,
          "name": "A3",
          "ticks": 13644,
          "time": 20.111362593750002,
          "velocity": 0.5590551181102362
        },
        {
          "duration": 0.21815315624999698,
          "durationTicks": 148,
          "midi": 59,
          "name": "B3",
          "ticks": 14028,
          "time": 20.677381593750003,
          "velocity": 0.5118110236220472
        },
        {
          "duration": 0.2063610937500009,
          "durationTicks": 140,
          "midi": 62,
          "name": "D4",
          "ticks": 14028,
          "time": 20.677381593750003,
          "velocity": 0.5118110236220472
        },
        {
          "duration": 0.23584124999999645,
          "durationTicks": 160,
          "midi": 55,
          "name": "G3",
          "ticks": 14028,
          "time": 20.677381593750003,
          "velocity": 0.5669291338582677
        },
        {
          "duration": 1.143830062500001,
          "durationTicks": 776,
          "midi": 55,
          "name": "G3",
          "ticks": 14212,
          "time": 20.94859903125,
          "velocity": 0.5669291338582677
        },
        {
          "duration": 1.1202459375000018,
          "durationTicks": 760,
          "midi": 62,
          "name": "D4",
          "ticks": 14212,
          "time": 20.94859903125,
          "velocity": 0.5590551181102362
        },
        {
          "duration": 1.1143499062499984,
          "durationTicks": 756,
          "midi": 59,
          "name": "B3",
          "ticks": 14212,
          "time": 20.94859903125,
          "velocity": 0.5433070866141733
        },
        {
          "duration": 0.17098490625000196,
          "durationTicks": 116,
          "midi": 66,
          "name": "F#4",
          "ticks": 15360,
          "time": 22.64076,
          "velocity": 0.5118110236220472
        },
        {
          "duration": 0.13560871875000302,
          "durationTicks": 92,
          "midi": 62,
          "name": "D4",
          "ticks": 15360,
          "time": 22.64076,
          "velocity": 0.5196850393700787
        },
        {
          "duration": 0.12971268749999965,
          "durationTicks": 88,
          "midi": 59,
          "name": "B3",
          "ticks": 15360,
          "time": 22.64076,
          "velocity": 0.5275590551181102
        },
        {
          "duration": 1.0141173749999979,
          "durationTicks": 688,
          "midi": 61,
          "name": "C#4",
          "ticks": 15944,
          "time": 23.501580562500003,
          "velocity": 0.5196850393700787
        },
        {
          "duration": 0.8844046875000018,
          "durationTicks": 600,
          "midi": 64,
          "name": "E4",
          "ticks": 15944,
          "time": 23.501580562500003,
          "velocity": 0.5433070866141733
        },
        {
          "duration": 0.9846372187500023,
          "durationTicks": 668,
          "midi": 57,
          "name": "A3",
          "ticks": 15948,
          "time": 23.507476593750003,
          "velocity": 0.5590551181102362
        },
        {
          "duration": 0.13560871874999947,
          "durationTicks": 92,
          "midi": 57,
          "name": "A3",
          "ticks": 16896,
          "time": 24.904836000000003,
          "velocity": 0.5196850393700787
        },
        {
          "duration": 0.16508887499999858,
          "durationTicks": 112,
          "midi": 61,
          "name": "C#4",
          "ticks": 16896,
          "time": 24.904836000000003,
          "velocity": 0.5039370078740157
        },
        {
          "duration": 0.1532968125000025,
          "durationTicks": 104,
          "midi": 54,
          "name": "F#3",
          "ticks": 16900,
          "time": 24.91073203125,
          "velocity": 0.5196850393700787
        },
        {
          "duration": 0.5601229687499973,
          "durationTicks": 380,
          "midi": 59,
          "name": "B3",
          "ticks": 17480,
          "time": 25.765656562500002,
          "velocity": 0.5118110236220472
        },
        {
          "duration": 0.5070586874999989,
          "durationTicks": 344,
          "midi": 55,
          "name": "G3",
          "ticks": 17480,
          "time": 25.765656562500002,
          "velocity": 0.5590551181102362
        },
        {
          "duration": 0.6927836718749987,
          "durationTicks": 470,
          "midi": 62,
          "name": "D4",
          "ticks": 17480,
          "time": 25.765656562500002,
          "velocity": 0.5590551181102362
        },
        {
          "duration": 0.17098490625000196,
          "durationTicks": 116,
          "midi": 55,
          "name": "G3",
          "ticks": 17856,
          "time": 26.319883500000003,
          "velocity": 0.5196850393700787
        },
        {
          "duration": 0.12086864062499814,
          "durationTicks": 82,
          "midi": 63,
          "name": "D#4",
          "ticks": 17912,
          "time": 26.402427937500004,
          "velocity": 0.33070866141732286
        },
        {
          "duration": 0.13560871875000302,
          "durationTicks": 92,
          "midi": 56,
          "name": "G#3",
          "ticks": 17920,
          "time": 26.41422,
          "velocity": 0.3779527559055118
        },
        {
          "duration": 0.45399440625000054,
          "durationTicks": 308,
          "midi": 64,
          "name": "E4",
          "ticks": 17956,
          "time": 26.467284281250002,
          "velocity": 0.4881889763779528
        },
        {
          "duration": 0.12086864062500169,
          "durationTicks": 82,
          "midi": 57,
          "name": "A3",
          "ticks": 17980,
          "time": 26.50266046875,
          "velocity": 0.3858267716535433
        },
        {
          "duration": 0.27121743749999894,
          "durationTicks": 184,
          "midi": 61,
          "name": "C#4",
          "ticks": 18048,
          "time": 26.602893,
          "velocity": 0.5905511811023622
        },
        {
          "duration": 0.08254443749999751,
          "durationTicks": 56,
          "midi": 57,
          "name": "A3",
          "ticks": 18248,
          "time": 26.897694562500003,
          "velocity": 0.49606299212598426
        },
        {
          "duration": 0.09138848437500258,
          "durationTicks": 62,
          "midi": 61,
          "name": "C#4",
          "ticks": 18348,
          "time": 27.045095343750003,
          "velocity": 0.5039370078740157
        },
        {
          "duration": 0.04716825000000213,
          "durationTicks": 32,
          "midi": 64,
          "name": "E4",
          "ticks": 18348,
          "time": 27.045095343750003,
          "velocity": 0.3700787401574803
        },
        {
          "duration": 0.1297126875000032,
          "durationTicks": 88,
          "midi": 59,
          "name": "B3",
          "ticks": 18436,
          "time": 27.174808031250002,
          "velocity": 0.5669291338582677
        },
        {
          "duration": 0.12381665624999982,
          "durationTicks": 84,
          "midi": 62,
          "name": "D4",
          "ticks": 18436,
          "time": 27.174808031250002,
          "velocity": 0.5669291338582677
        },
        {
          "duration": 0.8785086562499949,
          "durationTicks": 596,
          "midi": 61,
          "name": "C#4",
          "ticks": 19016,
          "time": 28.029732562500005,
          "velocity": 0.5433070866141733
        },
        {
          "duration": 0.6662515312499977,
          "durationTicks": 452,
          "midi": 64,
          "name": "E4",
          "ticks": 19016,
          "time": 28.029732562500005,
          "velocity": 0.5590551181102362
        },
        {
          "duration": 0.878508656250002,
          "durationTicks": 596,
          "midi": 57,
          "name": "A3",
          "ticks": 19020,
          "time": 28.03562859375,
          "velocity": 0.5669291338582677
        },
        {
          "duration": 0.117920625,
          "durationTicks": 80,
          "midi": 61,
          "name": "C#4",
          "ticks": 19784,
          "time": 29.161770562500003,
          "velocity": 0.5590551181102362
        },
        {
          "duration": 0.1474007812499991,
          "durationTicks": 100,
          "midi": 54,
          "name": "F#3",
          "ticks": 19788,
          "time": 29.167666593750003,
          "velocity": 0.5590551181102362
        },
        {
          "duration": 0.1474007812499991,
          "durationTicks": 100,
          "midi": 57,
          "name": "A3",
          "ticks": 19788,
          "time": 29.167666593750003,
          "velocity": 0.5590551181102362
        },
        {
          "duration": 0.21815315624999698,
          "durationTicks": 148,
          "midi": 59,
          "name": "B3",
          "ticks": 20172,
          "time": 29.733685593750003,
          "velocity": 0.5118110236220472
        },
        {
          "duration": 0.2063610937500009,
          "durationTicks": 140,
          "midi": 62,
          "name": "D4",
          "ticks": 20172,
          "time": 29.733685593750003,
          "velocity": 0.5118110236220472
        },
        {
          "duration": 0.23584124999999645,
          "durationTicks": 160,
          "midi": 55,
          "name": "G3",
          "ticks": 20172,
          "time": 29.733685593750003,
          "velocity": 0.5669291338582677
        },
        {
          "duration": 1.143830062500001,
          "durationTicks": 776,
          "midi": 55,
          "name": "G3",
          "ticks": 20356,
          "time": 30.004903031250002,
          "velocity": 0.5669291338582677
        },
        {
          "duration": 1.1202459375000018,
          "durationTicks": 760,
          "midi": 62,
          "name": "D4",
          "ticks": 20356,
          "time": 30.004903031250002,
          "velocity": 0.5590551181102362
        },
        {
          "duration": 1.1143499062499984,
          "durationTicks": 756,
          "midi": 59,
          "name": "B3",
          "ticks": 20356,
          "time": 30.004903031250002,
          "velocity": 0.5433070866141733
        },
        {
          "duration": 0.1709849062499984,
          "durationTicks": 116,
          "midi": 66,
          "name": "F#4",
          "ticks": 21504,
          "time": 31.697064000000005,
          "velocity": 0.5118110236220472
        },
        {
          "duration": 0.13560871874999947,
          "durationTicks": 92,
          "midi": 62,
          "name": "D4",
          "ticks": 21504,
          "time": 31.697064000000005,
          "velocity": 0.5196850393700787
        },
        {
          "duration": 0.1297126874999961,
          "durationTicks": 88,
          "midi": 59,
          "name": "B3",
          "ticks": 21504,
          "time": 31.697064000000005,
          "velocity": 0.5275590551181102
        },
        {
          "duration": 1.0141173749999979,
          "durationTicks": 688,
          "midi": 61,
          "name": "C#4",
          "ticks": 22088,
          "time": 32.55788456250001,
          "velocity": 0.5196850393700787
        },
        {
          "duration": 0.8844046874999947,
          "durationTicks": 600,
          "midi": 64,
          "name": "E4",
          "ticks": 22088,
          "time": 32.55788456250001,
          "velocity": 0.5433070866141733
        },
        {
          "duration": 0.9846372187500023,
          "durationTicks": 668,
          "midi": 57,
          "name": "A3",
          "ticks": 22092,
          "time": 32.56378059375,
          "velocity": 0.5590551181102362
        },
        {
          "duration": 0.13560871875000657,
          "durationTicks": 92,
          "midi": 57,
          "name": "A3",
          "ticks": 23040,
          "time": 33.96114,
          "velocity": 0.5196850393700787
        },
        {
          "duration": 0.16508887500000213,
          "durationTicks": 112,
          "midi": 61,
          "name": "C#4",
          "ticks": 23040,
          "time": 33.96114,
          "velocity": 0.5039370078740157
        },
        {
          "duration": 0.1532968125000025,
          "durationTicks": 104,
          "midi": 54,
          "name": "F#3",
          "ticks": 23044,
          "time": 33.967036031250004,
          "velocity": 0.5196850393700787
        },
        {
          "duration": 0.5601229687500009,
          "durationTicks": 380,
          "midi": 59,
          "name": "B3",
          "ticks": 23624,
          "time": 34.8219605625,
          "velocity": 0.5118110236220472
        },
        {
          "duration": 0.5070586874999989,
          "durationTicks": 344,
          "midi": 55,
          "name": "G3",
          "ticks": 23624,
          "time": 34.8219605625,
          "velocity": 0.5590551181102362
        },
        {
          "duration": 0.6927836718749987,
          "durationTicks": 470,
          "midi": 62,
          "name": "D4",
          "ticks": 23624,
          "time": 34.8219605625,
          "velocity": 0.5590551181102362
        },
        {
          "duration": 0.1709849062500055,
          "durationTicks": 116,
          "midi": 55,
          "name": "G3",
          "ticks": 24000,
          "time": 35.3761875,
          "velocity": 0.5196850393700787
        },
        {
          "duration": 0.12086864062499814,
          "durationTicks": 82,
          "midi": 63,
          "name": "D#4",
          "ticks": 24056,
          "time": 35.458731937500005,
          "velocity": 0.33070866141732286
        },
        {
          "duration": 0.13560871874999947,
          "durationTicks": 92,
          "midi": 56,
          "name": "G#3",
          "ticks": 24064,
          "time": 35.470524000000005,
          "velocity": 0.3779527559055118
        },
        {
          "duration": 0.4539944062500041,
          "durationTicks": 308,
          "midi": 64,
          "name": "E4",
          "ticks": 24100,
          "time": 35.52358828125,
          "velocity": 0.4881889763779528
        },
        {
          "duration": 0.12086864062500524,
          "durationTicks": 82,
          "midi": 57,
          "name": "A3",
          "ticks": 24124,
          "time": 35.55896446875,
          "velocity": 0.3858267716535433
        },
        {
          "duration": 0.27121743749999894,
          "durationTicks": 184,
          "midi": 61,
          "name": "C#4",
          "ticks": 24192,
          "time": 35.659197000000006,
          "velocity": 0.5905511811023622
        },
        {
          "duration": 0.08254443749999751,
          "durationTicks": 56,
          "midi": 57,
          "name": "A3",
          "ticks": 24392,
          "time": 35.953998562500004,
          "velocity": 0.49606299212598426
        },
        {
          "duration": 0.09138848437500258,
          "durationTicks": 62,
          "midi": 61,
          "name": "C#4",
          "ticks": 24492,
          "time": 36.10139934375,
          "velocity": 0.5039370078740157
        },
        {
          "duration": 0.04716824999999858,
          "durationTicks": 32,
          "midi": 64,
          "name": "E4",
          "ticks": 24492,
          "time": 36.10139934375,
          "velocity": 0.3700787401574803
        },
        {
          "duration": 0.1297126874999961,
          "durationTicks": 88,
          "midi": 59,
          "name": "B3",
          "ticks": 24580,
          "time": 36.23111203125001,
          "velocity": 0.5669291338582677
        },
        {
          "duration": 0.12381665624999982,
          "durationTicks": 84,
          "midi": 62,
          "name": "D4",
          "ticks": 24580,
          "time": 36.23111203125001,
          "velocity": 0.5669291338582677
        },
        {
          "duration": 0.8785086562500055,
          "durationTicks": 596,
          "midi": 61,
          "name": "C#4",
          "ticks": 25160,
          "time": 37.0860365625,
          "velocity": 0.5433070866141733
        },
        {
          "duration": 0.6662515312500048,
          "durationTicks": 452,
          "midi": 64,
          "name": "E4",
          "ticks": 25160,
          "time": 37.0860365625,
          "velocity": 0.5590551181102362
        },
        {
          "duration": 0.8785086562499984,
          "durationTicks": 596,
          "midi": 57,
          "name": "A3",
          "ticks": 25164,
          "time": 37.09193259375,
          "velocity": 0.5669291338582677
        },
        {
          "duration": 0.11792062500000355,
          "durationTicks": 80,
          "midi": 61,
          "name": "C#4",
          "ticks": 25928,
          "time": 38.2180745625,
          "velocity": 0.5590551181102362
        },
        {
          "duration": 0.14740078125000622,
          "durationTicks": 100,
          "midi": 54,
          "name": "F#3",
          "ticks": 25932,
          "time": 38.22397059375,
          "velocity": 0.5590551181102362
        },
        {
          "duration": 0.14740078125000622,
          "durationTicks": 100,
          "midi": 57,
          "name": "A3",
          "ticks": 25932,
          "time": 38.22397059375,
          "velocity": 0.5590551181102362
        },
        {
          "duration": 0.2181531562500041,
          "durationTicks": 148,
          "midi": 59,
          "name": "B3",
          "ticks": 26316,
          "time": 38.78998959375,
          "velocity": 0.5118110236220472
        },
        {
          "duration": 0.20636109374999734,
          "durationTicks": 140,
          "midi": 62,
          "name": "D4",
          "ticks": 26316,
          "time": 38.78998959375,
          "velocity": 0.5118110236220472
        },
        {
          "duration": 0.2358412500000071,
          "durationTicks": 160,
          "midi": 55,
          "name": "G3",
          "ticks": 26316,
          "time": 38.78998959375,
          "velocity": 0.5669291338582677
        },
        {
          "duration": 1.143830062499994,
          "durationTicks": 776,
          "midi": 55,
          "name": "G3",
          "ticks": 26500,
          "time": 39.06120703125001,
          "velocity": 0.5669291338582677
        },
        {
          "duration": 1.1202459374999947,
          "durationTicks": 760,
          "midi": 62,
          "name": "D4",
          "ticks": 26500,
          "time": 39.06120703125001,
          "velocity": 0.5590551181102362
        },
        {
          "duration": 1.1143499062499984,
          "durationTicks": 756,
          "midi": 59,
          "name": "B3",
          "ticks": 26500,
          "time": 39.06120703125001,
          "velocity": 0.5433070866141733
        },
        {
          "duration": 0.1709849062499984,
          "durationTicks": 116,
          "midi": 66,
          "name": "F#4",
          "ticks": 27648,
          "time": 40.753368,
          "velocity": 0.5118110236220472
        },
        {
          "duration": 0.13560871874999947,
          "durationTicks": 92,
          "midi": 62,
          "name": "D4",
          "ticks": 27648,
          "time": 40.753368,
          "velocity": 0.5196850393700787
        },
        {
          "duration": 0.1297126875000032,
          "durationTicks": 88,
          "midi": 59,
          "name": "B3",
          "ticks": 27648,
          "time": 40.753368,
          "velocity": 0.5275590551181102
        },
        {
          "duration": 1.0141173749999979,
          "durationTicks": 688,
          "midi": 61,
          "name": "C#4",
          "ticks": 28232,
          "time": 41.614188562500004,
          "velocity": 0.5196850393700787
        },
        {
          "duration": 0.8844046874999947,
          "durationTicks": 600,
          "midi": 64,
          "name": "E4",
          "ticks": 28232,
          "time": 41.614188562500004,
          "velocity": 0.5433070866141733
        },
        {
          "duration": 0.9846372187500023,
          "durationTicks": 668,
          "midi": 57,
          "name": "A3",
          "ticks": 28236,
          "time": 41.62008459375,
          "velocity": 0.5590551181102362
        },
        {
          "duration": 0.13560871874999947,
          "durationTicks": 92,
          "midi": 57,
          "name": "A3",
          "ticks": 29184,
          "time": 43.017444000000005,
          "velocity": 0.5196850393700787
        },
        {
          "duration": 0.16508887500000213,
          "durationTicks": 112,
          "midi": 61,
          "name": "C#4",
          "ticks": 29184,
          "time": 43.017444000000005,
          "velocity": 0.5039370078740157
        },
        {
          "duration": 0.15329681249999538,
          "durationTicks": 104,
          "midi": 54,
          "name": "F#3",
          "ticks": 29188,
          "time": 43.02334003125001,
          "velocity": 0.5196850393700787
        },
        {
          "duration": 0.560122968750008,
          "durationTicks": 380,
          "midi": 59,
          "name": "B3",
          "ticks": 29768,
          "time": 43.8782645625,
          "velocity": 0.5118110236220472
        },
        {
          "duration": 0.507058687500006,
          "durationTicks": 344,
          "midi": 55,
          "name": "G3",
          "ticks": 29768,
          "time": 43.8782645625,
          "velocity": 0.5590551181102362
        },
        {
          "duration": 0.6927836718750058,
          "durationTicks": 470,
          "midi": 62,
          "name": "D4",
          "ticks": 29768,
          "time": 43.8782645625,
          "velocity": 0.5590551181102362
        },
        {
          "duration": 0.1709849062499984,
          "durationTicks": 116,
          "midi": 55,
          "name": "G3",
          "ticks": 30144,
          "time": 44.432491500000005,
          "velocity": 0.5196850393700787
        },
        {
          "duration": 0.12086864062500524,
          "durationTicks": 82,
          "midi": 63,
          "name": "D#4",
          "ticks": 30200,
          "time": 44.5150359375,
          "velocity": 0.33070866141732286
        },
        {
          "duration": 0.13560871874999236,
          "durationTicks": 92,
          "midi": 56,
          "name": "G#3",
          "ticks": 30208,
          "time": 44.52682800000001,
          "velocity": 0.3779527559055118
        },
        {
          "duration": 0.453994406249997,
          "durationTicks": 308,
          "midi": 64,
          "name": "E4",
          "ticks": 30244,
          "time": 44.579892281250004,
          "velocity": 0.4881889763779528
        },
        {
          "duration": 0.12086864062499103,
          "durationTicks": 82,
          "midi": 57,
          "name": "A3",
          "ticks": 30268,
          "time": 44.61526846875001,
          "velocity": 0.3858267716535433
        },
        {
          "duration": 0.27121743750000604,
          "durationTicks": 184,
          "midi": 61,
          "name": "C#4",
          "ticks": 30336,
          "time": 44.715501,
          "velocity": 0.5905511811023622
        },
        {
          "duration": 0.08254443750000462,
          "durationTicks": 56,
          "midi": 57,
          "name": "A3",
          "ticks": 30536,
          "time": 45.0103025625,
          "velocity": 0.49606299212598426
        },
        {
          "duration": 0.09138848437500258,
          "durationTicks": 62,
          "midi": 61,
          "name": "C#4",
          "ticks": 30636,
          "time": 45.15770334375,
          "velocity": 0.5039370078740157
        },
        {
          "duration": 0.04716824999999858,
          "durationTicks": 32,
          "midi": 64,
          "name": "E4",
          "ticks": 30636,
          "time": 45.15770334375,
          "velocity": 0.3700787401574803
        },
        {
          "duration": 0.1297126874999961,
          "durationTicks": 88,
          "midi": 59,
          "name": "B3",
          "ticks": 30724,
          "time": 45.287416031250004,
          "velocity": 0.5669291338582677
        },
        {
          "duration": 0.12381665624999982,
          "durationTicks": 84,
          "midi": 62,
          "name": "D4",
          "ticks": 30724,
          "time": 45.287416031250004,
          "velocity": 0.5669291338582677
        },
        {
          "duration": 0.8785086562500055,
          "durationTicks": 596,
          "midi": 61,
          "name": "C#4",
          "ticks": 31304,
          "time": 46.1423405625,
          "velocity": 0.5433070866141733
        },
        {
          "duration": 0.6662515312500048,
          "durationTicks": 452,
          "midi": 64,
          "name": "E4",
          "ticks": 31304,
          "time": 46.1423405625,
          "velocity": 0.5590551181102362
        },
        {
          "duration": 0.8785086562499984,
          "durationTicks": 596,
          "midi": 57,
          "name": "A3",
          "ticks": 31308,
          "time": 46.148236593750006,
          "velocity": 0.5669291338582677
        },
        {
          "duration": 0.11792062500000355,
          "durationTicks": 80,
          "midi": 61,
          "name": "C#4",
          "ticks": 32072,
          "time": 47.274378562500004,
          "velocity": 0.5590551181102362
        },
        {
          "duration": 0.14740078125000622,
          "durationTicks": 100,
          "midi": 54,
          "name": "F#3",
          "ticks": 32076,
          "time": 47.28027459375,
          "velocity": 0.5590551181102362
        },
        {
          "duration": 0.14740078125000622,
          "durationTicks": 100,
          "midi": 57,
          "name": "A3",
          "ticks": 32076,
          "time": 47.28027459375,
          "velocity": 0.5590551181102362
        },
        {
          "duration": 0.2181531562500041,
          "durationTicks": 148,
          "midi": 59,
          "name": "B3",
          "ticks": 32460,
          "time": 47.846293593750005,
          "velocity": 0.5118110236220472
        },
        {
          "duration": 0.20636109374999734,
          "durationTicks": 140,
          "midi": 62,
          "name": "D4",
          "ticks": 32460,
          "time": 47.846293593750005,
          "velocity": 0.5118110236220472
        },
        {
          "duration": 0.23584125,
          "durationTicks": 160,
          "midi": 55,
          "name": "G3",
          "ticks": 32460,
          "time": 47.846293593750005,
          "velocity": 0.5669291338582677
        },
        {
          "duration": 1.143830062500001,
          "durationTicks": 776,
          "midi": 55,
          "name": "G3",
          "ticks": 32644,
          "time": 48.117511031250004,
          "velocity": 0.5669291338582677
        },
        {
          "duration": 1.1202459374999947,
          "durationTicks": 760,
          "midi": 62,
          "name": "D4",
          "ticks": 32644,
          "time": 48.117511031250004,
          "velocity": 0.5590551181102362
        },
        {
          "duration": 1.1143499062500055,
          "durationTicks": 756,
          "midi": 59,
          "name": "B3",
          "ticks": 32644,
          "time": 48.117511031250004,
          "velocity": 0.5433070866141733
        },
        {
          "duration": 0.1709849062499984,
          "durationTicks": 116,
          "midi": 62,
          "name": "D4",
          "ticks": 33792,
          "time": 49.809672000000006,
          "velocity": 0.5118110236220472
        },
        {
          "duration": 0.13560871874999236,
          "durationTicks": 92,
          "midi": 59,
          "name": "B3",
          "ticks": 33792,
          "time": 49.809672000000006,
          "velocity": 0.5196850393700787
        },
        {
          "duration": 0.1297126875000032,
          "durationTicks": 88,
          "midi": 54,
          "name": "F#3",
          "ticks": 33792,
          "time": 49.809672000000006,
          "velocity": 0.5275590551181102
        },
        {
          "duration": 1.3383990937500059,
          "durationTicks": 908,
          "midi": 57,
          "name": "A3",
          "ticks": 34376,
          "time": 50.6704925625,
          "velocity": 0.5196850393700787
        },
        {
          "duration": 1.3266070312499991,
          "durationTicks": 900,
          "midi": 61,
          "name": "C#4",
          "ticks": 34376,
          "time": 50.6704925625,
          "velocity": 0.5433070866141733
        },
        {
          "duration": 1.3413471093750005,
          "durationTicks": 910,
          "midi": 52,
          "name": "E3",
          "ticks": 34380,
          "time": 50.676388593750005,
          "velocity": 0.5590551181102362
        },
        {
          "duration": 0.13560871874999947,
          "durationTicks": 92,
          "midi": 54,
          "name": "F#3",
          "ticks": 35328,
          "time": 52.073748,
          "velocity": 0.5196850393700787
        },
        {
          "duration": 0.16508887500000213,
          "durationTicks": 112,
          "midi": 57,
          "name": "A3",
          "ticks": 35328,
          "time": 52.073748,
          "velocity": 0.5039370078740157
        },
        {
          "duration": 0.1532968125000025,
          "durationTicks": 104,
          "midi": 49,
          "name": "C#3",
          "ticks": 35332,
          "time": 52.079644031250005,
          "velocity": 0.5196850393700787
        },
        {
          "duration": 0.542434875000005,
          "durationTicks": 368,
          "midi": 55,
          "name": "G3",
          "ticks": 35912,
          "time": 52.934568562500004,
          "velocity": 0.5118110236220472
        },
        {
          "duration": 0.507058687500006,
          "durationTicks": 344,
          "midi": 50,
          "name": "D3",
          "ticks": 35912,
          "time": 52.934568562500004,
          "velocity": 0.5590551181102362
        },
        {
          "duration": 0.6927836718750058,
          "durationTicks": 470,
          "midi": 59,
          "name": "B3",
          "ticks": 35912,
          "time": 52.934568562500004,
          "velocity": 0.5590551181102362
        },
        {
          "duration": 0.1709849062499984,
          "durationTicks": 116,
          "midi": 50,
          "name": "D3",
          "ticks": 36288,
          "time": 53.4887955,
          "velocity": 0.4094488188976378
        },
        {
          "duration": 0.13266070312499778,
          "durationTicks": 90,
          "midi": 55,
          "name": "G3",
          "ticks": 36294,
          "time": 53.49763954687501,
          "velocity": 0.2125984251968504
        },
        {
          "duration": 0.14150475000000284,
          "durationTicks": 96,
          "midi": 56,
          "name": "G#3",
          "ticks": 36342,
          "time": 53.568391921875005,
          "velocity": 0.2283464566929134
        },
        {
          "duration": 0.12086864062500524,
          "durationTicks": 82,
          "midi": 60,
          "name": "C4",
          "ticks": 36344,
          "time": 53.5713399375,
          "velocity": 0.2440944881889764
        },
        {
          "duration": 0.13560871875000657,
          "durationTicks": 92,
          "midi": 51,
          "name": "D#3",
          "ticks": 36362,
          "time": 53.597872078125,
          "velocity": 0.3464566929133858
        },
        {
          "duration": 0.3861900468749937,
          "durationTicks": 262,
          "midi": 61,
          "name": "C#4",
          "ticks": 36388,
          "time": 53.63619628125001,
          "velocity": 0.41732283464566927
        },
        {
          "duration": 0.39798210937500045,
          "durationTicks": 270,
          "midi": 57,
          "name": "A3",
          "ticks": 36396,
          "time": 53.64798834375001,
          "velocity": 0.31496062992125984
        },
        {
          "duration": 0.39798210937500045,
          "durationTicks": 270,
          "midi": 52,
          "name": "E3",
          "ticks": 36420,
          "time": 53.68336453125001,
          "velocity": 0.48031496062992124
        },
        {
          "duration": 0.23289323437499831,
          "durationTicks": 158,
          "midi": 61,
          "name": "C#4",
          "ticks": 36672,
          "time": 54.054814500000006,
          "velocity": 0.5354330708661418
        },
        {
          "duration": 0.2181531562500041,
          "durationTicks": 148,
          "midi": 57,
          "name": "A3",
          "ticks": 36680,
          "time": 54.0666065625,
          "velocity": 0.4094488188976378
        },
        {
          "duration": 0.1297126875000032,
          "durationTicks": 88,
          "midi": 54,
          "name": "F#3",
          "ticks": 36860,
          "time": 54.33192796875,
          "velocity": 0.5669291338582677
        },
        {
          "duration": 0.1297126874999961,
          "durationTicks": 88,
          "midi": 59,
          "name": "B3",
          "ticks": 36868,
          "time": 54.34372003125001,
          "velocity": 0.5669291338582677
        },
        {
          "duration": 0.12381665624999982,
          "durationTicks": 84,
          "midi": 62,
          "name": "D4",
          "ticks": 36868,
          "time": 54.34372003125001,
          "velocity": 0.5669291338582677
        },
        {
          "duration": 0.19751704687499938,
          "durationTicks": 134,
          "midi": 59,
          "name": "B3",
          "ticks": 37242,
          "time": 54.894998953125004,
          "velocity": 0.31496062992125984
        },
        {
          "duration": 0.2152051406249953,
          "durationTicks": 146,
          "midi": 62,
          "name": "D4",
          "ticks": 37246,
          "time": 54.90089498437501,
          "velocity": 0.4409448818897638
        },
        {
          "duration": 0.22994521875000373,
          "durationTicks": 156,
          "midi": 54,
          "name": "F#3",
          "ticks": 37248,
          "time": 54.903843,
          "velocity": 0.2204724409448819
        },
        {
          "duration": 0.7399519218750044,
          "durationTicks": 502,
          "midi": 57,
          "name": "A3",
          "ticks": 37448,
          "time": 55.1986445625,
          "velocity": 0.5433070866141733
        },
        {
          "duration": 0.4333582968749994,
          "durationTicks": 294,
          "midi": 61,
          "name": "C#4",
          "ticks": 37448,
          "time": 55.1986445625,
          "velocity": 0.5590551181102362
        },
        {
          "duration": 1.0937137968750008,
          "durationTicks": 742,
          "midi": 52,
          "name": "E3",
          "ticks": 37452,
          "time": 55.20454059375,
          "velocity": 0.5669291338582677
        },
        {
          "duration": 0.2977495781249928,
          "durationTicks": 202,
          "midi": 61,
          "name": "C#4",
          "ticks": 37804,
          "time": 55.72339134375001,
          "velocity": 0.4015748031496063
        },
        {
          "duration": 0.04716824999999858,
          "durationTicks": 32,
          "midi": 59,
          "name": "B3",
          "ticks": 37986,
          "time": 55.99166076562501,
          "velocity": 0.18110236220472442
        },
        {
          "duration": 0.06780435937500329,
          "durationTicks": 46,
          "midi": 58,
          "name": "A#3",
          "ticks": 37994,
          "time": 56.003452828125,
          "velocity": 0.23622047244094488
        },
        {
          "duration": 0.26532140624999556,
          "durationTicks": 180,
          "midi": 57,
          "name": "A3",
          "ticks": 38018,
          "time": 56.038829015625005,
          "velocity": 0.33070866141732286
        },
        {
          "duration": 0.3242817187500009,
          "durationTicks": 220,
          "midi": 57,
          "name": "A3",
          "ticks": 38216,
          "time": 56.3306825625,
          "velocity": 0.5590551181102362
        },
        {
          "duration": 0.3832420312499991,
          "durationTicks": 260,
          "midi": 49,
          "name": "C#3",
          "ticks": 38220,
          "time": 56.336578593750005,
          "velocity": 0.5590551181102362
        },
        {
          "duration": 0.3242817187500009,
          "durationTicks": 220,
          "midi": 54,
          "name": "F#3",
          "ticks": 38220,
          "time": 56.336578593750005,
          "velocity": 0.5590551181102362
        },
        {
          "duration": 0.029480156250002665,
          "durationTicks": 20,
          "midi": 54,
          "name": "F#3",
          "ticks": 38604,
          "time": 56.90259759375,
          "velocity": 0.3779527559055118
        },
        {
          "duration": 0.05011626562500737,
          "durationTicks": 34,
          "midi": 57,
          "name": "A3",
          "ticks": 38604,
          "time": 56.90259759375,
          "velocity": 0.3779527559055118
        },
        {
          "duration": 0.06780435937500329,
          "durationTicks": 46,
          "midi": 50,
          "name": "D3",
          "ticks": 38604,
          "time": 56.90259759375,
          "velocity": 0.4330708661417323
        },
        {
          "duration": 1.143830062499994,
          "durationTicks": 776,
          "midi": 50,
          "name": "D3",
          "ticks": 38788,
          "time": 57.17381503125001,
          "velocity": 0.5669291338582677
        },
        {
          "duration": 1.1202459374999947,
          "durationTicks": 760,
          "midi": 59,
          "name": "B3",
          "ticks": 38788,
          "time": 57.17381503125001,
          "velocity": 0.5590551181102362
        },
        {
          "duration": 1.1143499062499984,
          "durationTicks": 756,
          "midi": 55,
          "name": "G3",
          "ticks": 38788,
          "time": 57.17381503125001,
          "velocity": 0.5433070866141733
        },
        {
          "duration": 0.1709849062499984,
          "durationTicks": 116,
          "midi": 62,
          "name": "D4",
          "ticks": 39936,
          "time": 58.865976,
          "velocity": 0.5118110236220472
        },
        {
          "duration": 0.13560871874999947,
          "durationTicks": 92,
          "midi": 59,
          "name": "B3",
          "ticks": 39936,
          "time": 58.865976,
          "velocity": 0.5196850393700787
        },
        {
          "duration": 0.1297126875000032,
          "durationTicks": 88,
          "midi": 54,
          "name": "F#3",
          "ticks": 39936,
          "time": 58.865976,
          "velocity": 0.5275590551181102
        },
        {
          "duration": 1.3383990937499988,
          "durationTicks": 908,
          "midi": 57,
          "name": "A3",
          "ticks": 40520,
          "time": 59.726796562500006,
          "velocity": 0.5196850393700787
        },
        {
          "duration": 1.3266070312499991,
          "durationTicks": 900,
          "midi": 61,
          "name": "C#4",
          "ticks": 40520,
          "time": 59.726796562500006,
          "velocity": 0.5433070866141733
        },
        {
          "duration": 1.3413471093750076,
          "durationTicks": 910,
          "midi": 52,
          "name": "E3",
          "ticks": 40524,
          "time": 59.73269259375,
          "velocity": 0.5590551181102362
        },
        {
          "duration": 0.13560871874999947,
          "durationTicks": 92,
          "midi": 54,
          "name": "F#3",
          "ticks": 41472,
          "time": 61.130052000000006,
          "velocity": 0.5196850393700787
        },
        {
          "duration": 0.16508887500000213,
          "durationTicks": 112,
          "midi": 57,
          "name": "A3",
          "ticks": 41472,
          "time": 61.130052000000006,
          "velocity": 0.5039370078740157
        },
        {
          "duration": 0.15329681249999538,
          "durationTicks": 104,
          "midi": 49,
          "name": "C#3",
          "ticks": 41476,
          "time": 61.13594803125001,
          "velocity": 0.5196850393700787
        },
        {
          "duration": 0.542434875000005,
          "durationTicks": 368,
          "midi": 55,
          "name": "G3",
          "ticks": 42056,
          "time": 61.9908725625,
          "velocity": 0.5118110236220472
        },
        {
          "duration": 0.507058687500006,
          "durationTicks": 344,
          "midi": 50,
          "name": "D3",
          "ticks": 42056,
          "time": 61.9908725625,
          "velocity": 0.5590551181102362
        },
        {
          "duration": 0.6927836718750058,
          "durationTicks": 470,
          "midi": 59,
          "name": "B3",
          "ticks": 42056,
          "time": 61.9908725625,
          "velocity": 0.5590551181102362
        },
        {
          "duration": 0.1709849062499984,
          "durationTicks": 116,
          "midi": 50,
          "name": "D3",
          "ticks": 42432,
          "time": 62.545099500000006,
          "velocity": 0.4094488188976378
        },
        {
          "duration": 0.13266070312499778,
          "durationTicks": 90,
          "midi": 55,
          "name": "G3",
          "ticks": 42438,
          "time": 62.553943546875004,
          "velocity": 0.2125984251968504
        },
        {
          "duration": 0.14150475000000284,
          "durationTicks": 96,
          "midi": 56,
          "name": "G#3",
          "ticks": 42486,
          "time": 62.624695921875,
          "velocity": 0.2283464566929134
        },
        {
          "duration": 0.12086864062500524,
          "durationTicks": 82,
          "midi": 60,
          "name": "C4",
          "ticks": 42488,
          "time": 62.627643937500004,
          "velocity": 0.2440944881889764
        },
        {
          "duration": 0.13560871875000657,
          "durationTicks": 92,
          "midi": 51,
          "name": "D#3",
          "ticks": 42506,
          "time": 62.654176078125005,
          "velocity": 0.3464566929133858
        },
        {
          "duration": 0.3861900468750008,
          "durationTicks": 262,
          "midi": 61,
          "name": "C#4",
          "ticks": 42532,
          "time": 62.692500281250005,
          "velocity": 0.41732283464566927
        },
        {
          "duration": 0.39798210937500045,
          "durationTicks": 270,
          "midi": 57,
          "name": "A3",
          "ticks": 42540,
          "time": 62.704292343750005,
          "velocity": 0.31496062992125984
        },
        {
          "duration": 0.39798210937500045,
          "durationTicks": 270,
          "midi": 52,
          "name": "E3",
          "ticks": 42564,
          "time": 62.739668531250004,
          "velocity": 0.48031496062992124
        },
        {
          "duration": 0.23289323437499831,
          "durationTicks": 158,
          "midi": 61,
          "name": "C#4",
          "ticks": 42816,
          "time": 63.1111185,
          "velocity": 0.5354330708661418
        },
        {
          "duration": 0.2181531562500041,
          "durationTicks": 148,
          "midi": 57,
          "name": "A3",
          "ticks": 42824,
          "time": 63.1229105625,
          "velocity": 0.4094488188976378
        },
        {
          "duration": 0.1297126875000032,
          "durationTicks": 88,
          "midi": 54,
          "name": "F#3",
          "ticks": 43004,
          "time": 63.388231968750006,
          "velocity": 0.5669291338582677
        },
        {
          "duration": 0.1297126874999961,
          "durationTicks": 88,
          "midi": 59,
          "name": "B3",
          "ticks": 43012,
          "time": 63.400024031250005,
          "velocity": 0.5669291338582677
        },
        {
          "duration": 0.12381665624999982,
          "durationTicks": 84,
          "midi": 62,
          "name": "D4",
          "ticks": 43012,
          "time": 63.400024031250005,
          "velocity": 0.5669291338582677
        },
        {
          "duration": 0.19751704687499227,
          "durationTicks": 134,
          "midi": 59,
          "name": "B3",
          "ticks": 43386,
          "time": 63.95130295312501,
          "velocity": 0.31496062992125984
        },
        {
          "duration": 0.2152051406249882,
          "durationTicks": 146,
          "midi": 62,
          "name": "D4",
          "ticks": 43390,
          "time": 63.95719898437501,
          "velocity": 0.4409448818897638
        },
        {
          "duration": 0.22994521875000373,
          "durationTicks": 156,
          "midi": 54,
          "name": "F#3",
          "ticks": 43392,
          "time": 63.960147000000006,
          "velocity": 0.2204724409448819
        },
        {
          "duration": 0.7399519218750044,
          "durationTicks": 502,
          "midi": 57,
          "name": "A3",
          "ticks": 43592,
          "time": 64.2549485625,
          "velocity": 0.5433070866141733
        },
        {
          "duration": 0.4333582968749994,
          "durationTicks": 294,
          "midi": 61,
          "name": "C#4",
          "ticks": 43592,
          "time": 64.2549485625,
          "velocity": 0.5590551181102362
        },
        {
          "duration": 1.0937137968749937,
          "durationTicks": 742,
          "midi": 52,
          "name": "E3",
          "ticks": 43596,
          "time": 64.26084459375001,
          "velocity": 0.5669291338582677
        },
        {
          "duration": 0.2977495781249928,
          "durationTicks": 202,
          "midi": 61,
          "name": "C#4",
          "ticks": 43948,
          "time": 64.77969534375,
          "velocity": 0.4015748031496063
        },
        {
          "duration": 0.04716824999999858,
          "durationTicks": 32,
          "midi": 59,
          "name": "B3",
          "ticks": 44130,
          "time": 65.04796476562501,
          "velocity": 0.18110236220472442
        },
        {
          "duration": 0.06780435937500329,
          "durationTicks": 46,
          "midi": 58,
          "name": "A#3",
          "ticks": 44138,
          "time": 65.059756828125,
          "velocity": 0.23622047244094488
        },
        {
          "duration": 0.26532140624999556,
          "durationTicks": 180,
          "midi": 57,
          "name": "A3",
          "ticks": 44162,
          "time": 65.09513301562501,
          "velocity": 0.33070866141732286
        },
        {
          "duration": 0.3242817187500009,
          "durationTicks": 220,
          "midi": 57,
          "name": "A3",
          "ticks": 44360,
          "time": 65.3869865625,
          "velocity": 0.5590551181102362
        },
        {
          "duration": 0.3832420312500062,
          "durationTicks": 260,
          "midi": 49,
          "name": "C#3",
          "ticks": 44364,
          "time": 65.39288259375,
          "velocity": 0.5590551181102362
        },
        {
          "duration": 0.3242817187500009,
          "durationTicks": 220,
          "midi": 54,
          "name": "F#3",
          "ticks": 44364,
          "time": 65.39288259375,
          "velocity": 0.5590551181102362
        },
        {
          "duration": 0.029480156250002665,
          "durationTicks": 20,
          "midi": 54,
          "name": "F#3",
          "ticks": 44748,
          "time": 65.95890159375,
          "velocity": 0.3779527559055118
        },
        {
          "duration": 0.05011626562500737,
          "durationTicks": 34,
          "midi": 57,
          "name": "A3",
          "ticks": 44748,
          "time": 65.95890159375,
          "velocity": 0.3779527559055118
        },
        {
          "duration": 0.06780435937500329,
          "durationTicks": 46,
          "midi": 50,
          "name": "D3",
          "ticks": 44748,
          "time": 65.95890159375,
          "velocity": 0.4330708661417323
        },
        {
          "duration": 1.1438300624999869,
          "durationTicks": 776,
          "midi": 50,
          "name": "D3",
          "ticks": 44932,
          "time": 66.23011903125001,
          "velocity": 0.5669291338582677
        },
        {
          "duration": 1.1202459374999876,
          "durationTicks": 760,
          "midi": 59,
          "name": "B3",
          "ticks": 44932,
          "time": 66.23011903125001,
          "velocity": 0.5590551181102362
        },
        {
          "duration": 1.1143499062499984,
          "durationTicks": 756,
          "midi": 55,
          "name": "G3",
          "ticks": 44932,
          "time": 66.23011903125001,
          "velocity": 0.5433070866141733
        },
        {
          "duration": 0.5896031250000107,
          "durationTicks": 400,
          "midi": 66,
          "name": "F#4",
          "ticks": 46080,
          "time": 67.92228,
          "velocity": 0.6614173228346457
        },
        {
          "duration": 0.6957316875000146,
          "durationTicks": 472,
          "midi": 62,
          "name": "D4",
          "ticks": 46080,
          "time": 67.92228,
          "velocity": 0.6614173228346457
        },
        {
          "duration": 1.1497260937499902,
          "durationTicks": 780,
          "midi": 61,
          "name": "C#4",
          "ticks": 46664,
          "time": 68.78310056250001,
          "velocity": 0.6614173228346457
        },
        {
          "duration": 1.0907657812499991,
          "durationTicks": 740,
          "midi": 64,
          "name": "E4",
          "ticks": 46664,
          "time": 68.78310056250001,
          "velocity": 0.6614173228346457
        },
        {
          "duration": 0.7370039062499956,
          "durationTicks": 500,
          "midi": 62,
          "name": "D4",
          "ticks": 47616,
          "time": 70.186356,
          "velocity": 0.6614173228346457
        },
        {
          "duration": 0.6957316875000004,
          "durationTicks": 472,
          "midi": 59,
          "name": "B3",
          "ticks": 47616,
          "time": 70.186356,
          "velocity": 0.6614173228346457
        },
        {
          "duration": 1.2204784687500023,
          "durationTicks": 828,
          "midi": 62,
          "name": "D4",
          "ticks": 48200,
          "time": 71.0471765625,
          "velocity": 0.6614173228346457
        },
        {
          "duration": 1.2204784687500023,
          "durationTicks": 828,
          "midi": 57,
          "name": "A3",
          "ticks": 48200,
          "time": 71.0471765625,
          "velocity": 0.6614173228346457
        },
        {
          "duration": 0.7605880312499949,
          "durationTicks": 516,
          "midi": 55,
          "name": "G3",
          "ticks": 49152,
          "time": 72.450432,
          "velocity": 0.6614173228346457
        },
        {
          "duration": 0.7311078749999922,
          "durationTicks": 496,
          "midi": 60,
          "name": "C4",
          "ticks": 49152,
          "time": 72.450432,
          "velocity": 0.6614173228346457
        },
        {
          "duration": 1.1792062499999787,
          "durationTicks": 800,
          "midi": 59,
          "name": "B3",
          "ticks": 49736,
          "time": 73.31125256250002,
          "velocity": 0.6614173228346457
        },
        {
          "duration": 1.126141968749991,
          "durationTicks": 764,
          "midi": 55,
          "name": "G3",
          "ticks": 49736,
          "time": 73.31125256250002,
          "velocity": 0.6614173228346457
        },
        {
          "duration": 1.7629133437500002,
          "durationTicks": 1196,
          "midi": 62,
          "name": "D4",
          "ticks": 50688,
          "time": 74.71450800000001,
          "velocity": 0.6614173228346457
        },
        {
          "duration": 1.7688093750000036,
          "durationTicks": 1200,
          "midi": 57,
          "name": "A3",
          "ticks": 50688,
          "time": 74.71450800000001,
          "velocity": 0.6614173228346457
        },
        {
          "duration": 0.5896031249999965,
          "durationTicks": 400,
          "midi": 66,
          "name": "F#4",
          "ticks": 52224,
          "time": 76.97858400000001,
          "velocity": 0.7322834645669292
        },
        {
          "duration": 0.6957316874999862,
          "durationTicks": 472,
          "midi": 62,
          "name": "D4",
          "ticks": 52224,
          "time": 76.97858400000001,
          "velocity": 0.7322834645669292
        },
        {
          "duration": 1.1497260937500045,
          "durationTicks": 780,
          "midi": 61,
          "name": "C#4",
          "ticks": 52808,
          "time": 77.83940456250001,
          "velocity": 0.7559055118110236
        },
        {
          "duration": 1.0907657812499991,
          "durationTicks": 740,
          "midi": 64,
          "name": "E4",
          "ticks": 52808,
          "time": 77.83940456250001,
          "velocity": 0.7165354330708661
        },
        {
          "duration": 0.7370039062500098,
          "durationTicks": 500,
          "midi": 62,
          "name": "D4",
          "ticks": 53760,
          "time": 79.24266,
          "velocity": 0.6929133858267716
        },
        {
          "duration": 0.6957316875000004,
          "durationTicks": 472,
          "midi": 59,
          "name": "B3",
          "ticks": 53760,
          "time": 79.24266,
          "velocity": 0.6929133858267716
        },
        {
          "duration": 1.2204784687500023,
          "durationTicks": 828,
          "midi": 62,
          "name": "D4",
          "ticks": 54344,
          "time": 80.10348056250001,
          "velocity": 0.6929133858267716
        },
        {
          "duration": 1.2204784687500023,
          "durationTicks": 828,
          "midi": 57,
          "name": "A3",
          "ticks": 54344,
          "time": 80.10348056250001,
          "velocity": 0.6850393700787402
        },
        {
          "duration": 0.7605880312500091,
          "durationTicks": 516,
          "midi": 64,
          "name": "E4",
          "ticks": 55296,
          "time": 81.506736,
          "velocity": 0.7086614173228346
        },
        {
          "duration": 0.7311078749999922,
          "durationTicks": 496,
          "midi": 60,
          "name": "C4",
          "ticks": 55296,
          "time": 81.506736,
          "velocity": 0.6929133858267716
        },
        {
          "duration": 1.179206249999993,
          "durationTicks": 800,
          "midi": 62,
          "name": "D4",
          "ticks": 55880,
          "time": 82.36755656250001,
          "velocity": 0.7086614173228346
        },
        {
          "duration": 1.126141968749991,
          "durationTicks": 764,
          "midi": 59,
          "name": "B3",
          "ticks": 55880,
          "time": 82.36755656250001,
          "velocity": 0.7244094488188977
        },
        {
          "duration": 1.7629133437500002,
          "durationTicks": 1196,
          "midi": 62,
          "name": "D4",
          "ticks": 56832,
          "time": 83.770812,
          "velocity": 0.6850393700787402
        },
        {
          "duration": 1.7688093750000036,
          "durationTicks": 1200,
          "midi": 57,
          "name": "A3",
          "ticks": 56832,
          "time": 83.770812,
          "velocity": 0.7244094488188977
        },
        {
          "duration": 0.5896031249999965,
          "durationTicks": 400,
          "midi": 66,
          "name": "F#4",
          "ticks": 58368,
          "time": 86.03488800000001,
          "velocity": 0.6614173228346457
        },
        {
          "duration": 0.6957316874999862,
          "durationTicks": 472,
          "midi": 62,
          "name": "D4",
          "ticks": 58368,
          "time": 86.03488800000001,
          "velocity": 0.6614173228346457
        },
        {
          "duration": 1.1497260937499902,
          "durationTicks": 780,
          "midi": 61,
          "name": "C#4",
          "ticks": 58952,
          "time": 86.89570856250002,
          "velocity": 0.6614173228346457
        },
        {
          "duration": 1.090765781249985,
          "durationTicks": 740,
          "midi": 64,
          "name": "E4",
          "ticks": 58952,
          "time": 86.89570856250002,
          "velocity": 0.6614173228346457
        },
        {
          "duration": 0.7370039062499956,
          "durationTicks": 500,
          "midi": 62,
          "name": "D4",
          "ticks": 59904,
          "time": 88.29896400000001,
          "velocity": 0.6614173228346457
        },
        {
          "duration": 0.6957316874999862,
          "durationTicks": 472,
          "midi": 59,
          "name": "B3",
          "ticks": 59904,
          "time": 88.29896400000001,
          "velocity": 0.6614173228346457
        },
        {
          "duration": 1.2204784687500023,
          "durationTicks": 828,
          "midi": 62,
          "name": "D4",
          "ticks": 60488,
          "time": 89.15978456250001,
          "velocity": 0.6614173228346457
        },
        {
          "duration": 1.2204784687500023,
          "durationTicks": 828,
          "midi": 57,
          "name": "A3",
          "ticks": 60488,
          "time": 89.15978456250001,
          "velocity": 0.6614173228346457
        },
        {
          "duration": 0.7605880312500091,
          "durationTicks": 516,
          "midi": 55,
          "name": "G3",
          "ticks": 61440,
          "time": 90.56304,
          "velocity": 0.6614173228346457
        },
        {
          "duration": 0.7311078750000064,
          "durationTicks": 496,
          "midi": 60,
          "name": "C4",
          "ticks": 61440,
          "time": 90.56304,
          "velocity": 0.6614173228346457
        },
        {
          "duration": 1.179206249999993,
          "durationTicks": 800,
          "midi": 59,
          "name": "B3",
          "ticks": 62024,
          "time": 91.42386056250001,
          "velocity": 0.6614173228346457
        },
        {
          "duration": 1.126141968749991,
          "durationTicks": 764,
          "midi": 55,
          "name": "G3",
          "ticks": 62024,
          "time": 91.42386056250001,
          "velocity": 0.6614173228346457
        },
        {
          "duration": 1.7629133437500144,
          "durationTicks": 1196,
          "midi": 62,
          "name": "D4",
          "ticks": 62976,
          "time": 92.827116,
          "velocity": 0.6614173228346457
        },
        {
          "duration": 1.7688093750000036,
          "durationTicks": 1200,
          "midi": 57,
          "name": "A3",
          "ticks": 62976,
          "time": 92.827116,
          "velocity": 0.6614173228346457
        },
        {
          "duration": 0.5896031249999965,
          "durationTicks": 400,
          "midi": 66,
          "name": "F#4",
          "ticks": 64512,
          "time": 95.091192,
          "velocity": 0.7322834645669292
        },
        {
          "duration": 0.6957316875000004,
          "durationTicks": 472,
          "midi": 62,
          "name": "D4",
          "ticks": 64512,
          "time": 95.091192,
          "velocity": 0.7322834645669292
        },
        {
          "duration": 1.1497260937500045,
          "durationTicks": 780,
          "midi": 61,
          "name": "C#4",
          "ticks": 65096,
          "time": 95.95201256250002,
          "velocity": 0.7559055118110236
        },
        {
          "duration": 1.090765781249985,
          "durationTicks": 740,
          "midi": 64,
          "name": "E4",
          "ticks": 65096,
          "time": 95.95201256250002,
          "velocity": 0.7165354330708661
        },
        {
          "duration": 0.7370039062500098,
          "durationTicks": 500,
          "midi": 62,
          "name": "D4",
          "ticks": 66048,
          "time": 97.35526800000001,
          "velocity": 0.6929133858267716
        },
        {
          "duration": 0.6957316875000004,
          "durationTicks": 472,
          "midi": 59,
          "name": "B3",
          "ticks": 66048,
          "time": 97.35526800000001,
          "velocity": 0.6929133858267716
        },
        {
          "duration": 1.220478468749988,
          "durationTicks": 828,
          "midi": 62,
          "name": "D4",
          "ticks": 66632,
          "time": 98.21608856250002,
          "velocity": 0.6929133858267716
        },
        {
          "duration": 1.220478468749988,
          "durationTicks": 828,
          "midi": 57,
          "name": "A3",
          "ticks": 66632,
          "time": 98.21608856250002,
          "velocity": 0.6850393700787402
        },
        {
          "duration": 0.7605880312499949,
          "durationTicks": 516,
          "midi": 64,
          "name": "E4",
          "ticks": 67584,
          "time": 99.61934400000001,
          "velocity": 0.7086614173228346
        },
        {
          "duration": 0.7311078749999922,
          "durationTicks": 496,
          "midi": 60,
          "name": "C4",
          "ticks": 67584,
          "time": 99.61934400000001,
          "velocity": 0.6929133858267716
        },
        {
          "duration": 1.179206249999993,
          "durationTicks": 800,
          "midi": 62,
          "name": "D4",
          "ticks": 68168,
          "time": 100.48016456250001,
          "velocity": 0.7086614173228346
        },
        {
          "duration": 1.126141968749991,
          "durationTicks": 764,
          "midi": 59,
          "name": "B3",
          "ticks": 68168,
          "time": 100.48016456250001,
          "velocity": 0.7244094488188977
        },
        {
          "duration": 1.7629133437500002,
          "durationTicks": 1196,
          "midi": 62,
          "name": "D4",
          "ticks": 69120,
          "time": 101.88342000000002,
          "velocity": 0.6850393700787402
        },
        {
          "duration": 1.7688093749999894,
          "durationTicks": 1200,
          "midi": 57,
          "name": "A3",
          "ticks": 69120,
          "time": 101.88342000000002,
          "velocity": 0.7244094488188977
        },
        {
          "duration": 0.1532968125000025,
          "durationTicks": 104,
          "midi": 64,
          "name": "E4",
          "ticks": 107520,
          "time": 158.48532,
          "velocity": 0.7795275590551181
        },
        {
          "duration": 0.15919284375002007,
          "durationTicks": 108,
          "midi": 73,
          "name": "C#5",
          "ticks": 107520,
          "time": 158.48532,
          "velocity": 0.6062992125984252
        },
        {
          "duration": 0.16508887500000924,
          "durationTicks": 112,
          "midi": 68,
          "name": "G#4",
          "ticks": 107520,
          "time": 158.48532,
          "velocity": 0.7244094488188977
        },
        {
          "duration": 0.9138848437500258,
          "durationTicks": 620,
          "midi": 71,
          "name": "B4",
          "ticks": 108104,
          "time": 159.3461405625,
          "velocity": 0.6062992125984252
        },
        {
          "duration": 1.0966618125000025,
          "durationTicks": 744,
          "midi": 66,
          "name": "F#4",
          "ticks": 108104,
          "time": 159.3461405625,
          "velocity": 0.6692913385826772
        },
        {
          "duration": 1.0671816562499998,
          "durationTicks": 724,
          "midi": 63,
          "name": "D#4",
          "ticks": 108104,
          "time": 159.3461405625,
          "velocity": 0.7874015748031497
        },
        {
          "duration": 0.10612856250000391,
          "durationTicks": 72,
          "midi": 68,
          "name": "G#4",
          "ticks": 109056,
          "time": 160.74939600000002,
          "velocity": 0.7086614173228346
        },
        {
          "duration": 0.11202459374999307,
          "durationTicks": 76,
          "midi": 73,
          "name": "C#5",
          "ticks": 109056,
          "time": 160.74939600000002,
          "velocity": 0.6535433070866141
        },
        {
          "duration": 0.08254443749999041,
          "durationTicks": 56,
          "midi": 64,
          "name": "E4",
          "ticks": 109056,
          "time": 160.74939600000002,
          "velocity": 0.8031496062992126
        },
        {
          "duration": 0.4363063125000224,
          "durationTicks": 296,
          "midi": 71,
          "name": "B4",
          "ticks": 109640,
          "time": 161.6102165625,
          "velocity": 0.5984251968503937
        },
        {
          "duration": 0.5424348750000263,
          "durationTicks": 368,
          "midi": 66,
          "name": "F#4",
          "ticks": 109640,
          "time": 161.6102165625,
          "velocity": 0.6614173228346457
        },
        {
          "duration": 0.6190832812499991,
          "durationTicks": 420,
          "midi": 63,
          "name": "D#4",
          "ticks": 109640,
          "time": 161.6102165625,
          "velocity": 0.8267716535433071
        },
        {
          "duration": 0.5837070937499789,
          "durationTicks": 396,
          "midi": 71,
          "name": "B4",
          "ticks": 110024,
          "time": 162.1762355625,
          "velocity": 0.7086614173228346
        },
        {
          "duration": 0.33017774999999006,
          "durationTicks": 224,
          "midi": 66,
          "name": "F#4",
          "ticks": 110208,
          "time": 162.44745300000002,
          "velocity": 0.6929133858267716
        },
        {
          "duration": 0.20636109375001865,
          "durationTicks": 140,
          "midi": 63,
          "name": "D#4",
          "ticks": 110408,
          "time": 162.7422545625,
          "velocity": 0.7874015748031497
        },
        {
          "duration": 0.1120245937500215,
          "durationTicks": 76,
          "midi": 68,
          "name": "G#4",
          "ticks": 110592,
          "time": 163.013472,
          "velocity": 0.7322834645669292
        },
        {
          "duration": 0.088440468750008,
          "durationTicks": 60,
          "midi": 73,
          "name": "C#5",
          "ticks": 110592,
          "time": 163.013472,
          "velocity": 0.5826771653543307
        },
        {
          "duration": 0.07075237500001208,
          "durationTicks": 48,
          "midi": 64,
          "name": "E4",
          "ticks": 110592,
          "time": 163.013472,
          "velocity": 0.84251968503937
        },
        {
          "duration": 0.8961967500000014,
          "durationTicks": 608,
          "midi": 71,
          "name": "B4",
          "ticks": 111176,
          "time": 163.87429256250002,
          "velocity": 0.5748031496062992
        },
        {
          "duration": 1.1202459374999876,
          "durationTicks": 760,
          "midi": 66,
          "name": "F#4",
          "ticks": 111176,
          "time": 163.87429256250002,
          "velocity": 0.7086614173228346
        },
        {
          "duration": 1.096661812499974,
          "durationTicks": 744,
          "midi": 63,
          "name": "D#4",
          "ticks": 111176,
          "time": 163.87429256250002,
          "velocity": 0.7952755905511811
        },
        {
          "duration": 0.12381665624999982,
          "durationTicks": 84,
          "midi": 73,
          "name": "C#5",
          "ticks": 112128,
          "time": 165.27754800000002,
          "velocity": 0.5669291338582677
        },
        {
          "duration": 0.10612856250000391,
          "durationTicks": 72,
          "midi": 64,
          "name": "E4",
          "ticks": 112132,
          "time": 165.28344403125,
          "velocity": 0.84251968503937
        },
        {
          "duration": 0.12381665624999982,
          "durationTicks": 84,
          "midi": 68,
          "name": "G#4",
          "ticks": 112132,
          "time": 165.28344403125,
          "velocity": 0.7322834645669292
        },
        {
          "duration": 0.48937059375001013,
          "durationTicks": 332,
          "midi": 71,
          "name": "B4",
          "ticks": 112712,
          "time": 166.1383685625,
          "velocity": 0.5669291338582677
        },
        {
          "duration": 0.6721475624999869,
          "durationTicks": 456,
          "midi": 66,
          "name": "F#4",
          "ticks": 112712,
          "time": 166.1383685625,
          "velocity": 0.6929133858267716
        },
        {
          "duration": 0.5896031249999965,
          "durationTicks": 400,
          "midi": 63,
          "name": "D#4",
          "ticks": 112712,
          "time": 166.1383685625,
          "velocity": 0.7952755905511811
        },
        {
          "duration": 0.34786584374998597,
          "durationTicks": 236,
          "midi": 71,
          "name": "B4",
          "ticks": 113100,
          "time": 166.71028359375,
          "velocity": 0.7165354330708661
        },
        {
          "duration": 0.31248965624999414,
          "durationTicks": 212,
          "midi": 66,
          "name": "F#4",
          "ticks": 113284,
          "time": 166.98150103125002,
          "velocity": 0.6456692913385826
        },
        {
          "duration": 0.176880937500016,
          "durationTicks": 120,
          "midi": 63,
          "name": "D#4",
          "ticks": 113480,
          "time": 167.2704065625,
          "velocity": 0.6456692913385826
        },
        {
          "duration": 0.1709849062499984,
          "durationTicks": 116,
          "midi": 68,
          "name": "G#4",
          "ticks": 113664,
          "time": 167.541624,
          "velocity": 0.6692913385826772
        },
        {
          "duration": 0.13560871874997815,
          "durationTicks": 92,
          "midi": 64,
          "name": "E4",
          "ticks": 113664,
          "time": 167.541624,
          "velocity": 0.6771653543307087
        },
        {
          "duration": 0.1297126875000174,
          "durationTicks": 88,
          "midi": 61,
          "name": "C#4",
          "ticks": 113664,
          "time": 167.541624,
          "velocity": 0.6850393700787402
        },
        {
          "duration": 1.014117375000012,
          "durationTicks": 688,
          "midi": 63,
          "name": "D#4",
          "ticks": 114248,
          "time": 168.4024445625,
          "velocity": 0.6771653543307087
        },
        {
          "duration": 0.8844046875000231,
          "durationTicks": 600,
          "midi": 66,
          "name": "F#4",
          "ticks": 114248,
          "time": 168.4024445625,
          "velocity": 0.7007874015748031
        },
        {
          "duration": 0.984637218749981,
          "durationTicks": 668,
          "midi": 59,
          "name": "B3",
          "ticks": 114252,
          "time": 168.40834059375,
          "velocity": 0.7165354330708661
        },
        {
          "duration": 0.13560871875000657,
          "durationTicks": 92,
          "midi": 59,
          "name": "B3",
          "ticks": 115200,
          "time": 169.8057,
          "velocity": 0.6771653543307087
        },
        {
          "duration": 0.16508887500003766,
          "durationTicks": 112,
          "midi": 63,
          "name": "D#4",
          "ticks": 115200,
          "time": 169.8057,
          "velocity": 0.6614173228346457
        },
        {
          "duration": 0.1532968125000025,
          "durationTicks": 104,
          "midi": 56,
          "name": "G#3",
          "ticks": 115204,
          "time": 169.81159603125002,
          "velocity": 0.6771653543307087
        },
        {
          "duration": 0.5601229687500222,
          "durationTicks": 380,
          "midi": 61,
          "name": "C#4",
          "ticks": 115784,
          "time": 170.6665205625,
          "velocity": 0.6692913385826772
        },
        {
          "duration": 0.507058687500006,
          "durationTicks": 344,
          "midi": 57,
          "name": "A3",
          "ticks": 115784,
          "time": 170.6665205625,
          "velocity": 0.7165354330708661
        },
        {
          "duration": 0.69278367187502,
          "durationTicks": 470,
          "midi": 64,
          "name": "E4",
          "ticks": 115784,
          "time": 170.6665205625,
          "velocity": 0.7165354330708661
        },
        {
          "duration": 0.1709849062499984,
          "durationTicks": 116,
          "midi": 57,
          "name": "A3",
          "ticks": 116160,
          "time": 171.22074750000002,
          "velocity": 0.6771653543307087
        },
        {
          "duration": 0.12086864062501945,
          "durationTicks": 82,
          "midi": 65,
          "name": "F4",
          "ticks": 116216,
          "time": 171.3032919375,
          "velocity": 0.3937007874015748
        },
        {
          "duration": 0.13560871875000657,
          "durationTicks": 92,
          "midi": 58,
          "name": "A#3",
          "ticks": 116224,
          "time": 171.315084,
          "velocity": 0.4409448818897638
        },
        {
          "duration": 0.4539944062499899,
          "durationTicks": 308,
          "midi": 66,
          "name": "F#4",
          "ticks": 116260,
          "time": 171.36814828125003,
          "velocity": 0.5511811023622047
        },
        {
          "duration": 0.12086864062499103,
          "durationTicks": 82,
          "midi": 59,
          "name": "B3",
          "ticks": 116284,
          "time": 171.40352446875002,
          "velocity": 0.44881889763779526
        },
        {
          "duration": 0.27121743750001315,
          "durationTicks": 184,
          "midi": 63,
          "name": "D#4",
          "ticks": 116352,
          "time": 171.503757,
          "velocity": 0.7480314960629921
        },
        {
          "duration": 0.08254443750001883,
          "durationTicks": 56,
          "midi": 59,
          "name": "B3",
          "ticks": 116552,
          "time": 171.7985585625,
          "velocity": 0.6535433070866141
        },
        {
          "duration": 0.09138848437498837,
          "durationTicks": 62,
          "midi": 63,
          "name": "D#4",
          "ticks": 116652,
          "time": 171.94595934375002,
          "velocity": 0.6614173228346457
        },
        {
          "duration": 0.04716824999999858,
          "durationTicks": 32,
          "midi": 66,
          "name": "F#4",
          "ticks": 116652,
          "time": 171.94595934375002,
          "velocity": 0.5275590551181102
        },
        {
          "duration": 0.12971268749996057,
          "durationTicks": 88,
          "midi": 61,
          "name": "C#4",
          "ticks": 116740,
          "time": 172.07567203125004,
          "velocity": 0.7244094488188977
        },
        {
          "duration": 0.12381665624999982,
          "durationTicks": 84,
          "midi": 64,
          "name": "E4",
          "ticks": 116740,
          "time": 172.07567203125004,
          "velocity": 0.7244094488188977
        },
        {
          "duration": 0.8785086562500339,
          "durationTicks": 596,
          "midi": 63,
          "name": "D#4",
          "ticks": 117320,
          "time": 172.9305965625,
          "velocity": 0.7007874015748031
        },
        {
          "duration": 0.6662515312500261,
          "durationTicks": 452,
          "midi": 66,
          "name": "F#4",
          "ticks": 117320,
          "time": 172.9305965625,
          "velocity": 0.7165354330708661
        },
        {
          "duration": 0.8785086562499771,
          "durationTicks": 596,
          "midi": 59,
          "name": "B3",
          "ticks": 117324,
          "time": 172.93649259375002,
          "velocity": 0.7244094488188977
        },
        {
          "duration": 0.11792062500003908,
          "durationTicks": 80,
          "midi": 63,
          "name": "D#4",
          "ticks": 118088,
          "time": 174.0626345625,
          "velocity": 0.7165354330708661
        },
        {
          "duration": 0.14740078125001332,
          "durationTicks": 100,
          "midi": 56,
          "name": "G#3",
          "ticks": 118092,
          "time": 174.06853059375,
          "velocity": 0.7165354330708661
        },
        {
          "duration": 0.14740078125001332,
          "durationTicks": 100,
          "midi": 59,
          "name": "B3",
          "ticks": 118092,
          "time": 174.06853059375,
          "velocity": 0.7165354330708661
        },
        {
          "duration": 0.21815315624999698,
          "durationTicks": 148,
          "midi": 61,
          "name": "C#4",
          "ticks": 118476,
          "time": 174.63454959375002,
          "velocity": 0.6692913385826772
        },
        {
          "duration": 0.20636109374999023,
          "durationTicks": 140,
          "midi": 64,
          "name": "E4",
          "ticks": 118476,
          "time": 174.63454959375002,
          "velocity": 0.6692913385826772
        },
        {
          "duration": 0.2358412499999929,
          "durationTicks": 160,
          "midi": 57,
          "name": "A3",
          "ticks": 118476,
          "time": 174.63454959375002,
          "velocity": 0.7244094488188977
        },
        {
          "duration": 1.1438300624999727,
          "durationTicks": 776,
          "midi": 57,
          "name": "A3",
          "ticks": 118660,
          "time": 174.90576703125004,
          "velocity": 0.7244094488188977
        },
        {
          "duration": 1.1202459374999592,
          "durationTicks": 760,
          "midi": 64,
          "name": "E4",
          "ticks": 118660,
          "time": 174.90576703125004,
          "velocity": 0.7165354330708661
        },
        {
          "duration": 1.1143499062499984,
          "durationTicks": 756,
          "midi": 61,
          "name": "C#4",
          "ticks": 118660,
          "time": 174.90576703125004,
          "velocity": 0.7007874015748031
        },
        {
          "duration": 0.17098490624996998,
          "durationTicks": 116,
          "midi": 68,
          "name": "G#4",
          "ticks": 119808,
          "time": 176.59792800000002,
          "velocity": 0.6692913385826772
        },
        {
          "duration": 0.13560871874997815,
          "durationTicks": 92,
          "midi": 64,
          "name": "E4",
          "ticks": 119808,
          "time": 176.59792800000002,
          "velocity": 0.6771653543307087
        },
        {
          "duration": 0.129712687499989,
          "durationTicks": 88,
          "midi": 61,
          "name": "C#4",
          "ticks": 119808,
          "time": 176.59792800000002,
          "velocity": 0.6850393700787402
        },
        {
          "duration": 1.014117375000012,
          "durationTicks": 688,
          "midi": 63,
          "name": "D#4",
          "ticks": 120392,
          "time": 177.4587485625,
          "velocity": 0.6771653543307087
        },
        {
          "duration": 0.8844046874999947,
          "durationTicks": 600,
          "midi": 66,
          "name": "F#4",
          "ticks": 120392,
          "time": 177.4587485625,
          "velocity": 0.7007874015748031
        },
        {
          "duration": 0.984637218749981,
          "durationTicks": 668,
          "midi": 59,
          "name": "B3",
          "ticks": 120396,
          "time": 177.46464459375002,
          "velocity": 0.7165354330708661
        },
        {
          "duration": 0.13560871874997815,
          "durationTicks": 92,
          "midi": 59,
          "name": "B3",
          "ticks": 121344,
          "time": 178.862004,
          "velocity": 0.6771653543307087
        },
        {
          "duration": 0.16508887500000924,
          "durationTicks": 112,
          "midi": 63,
          "name": "D#4",
          "ticks": 121344,
          "time": 178.862004,
          "velocity": 0.6614173228346457
        },
        {
          "duration": 0.15329681249997407,
          "durationTicks": 104,
          "midi": 56,
          "name": "G#3",
          "ticks": 121348,
          "time": 178.86790003125003,
          "velocity": 0.6771653543307087
        },
        {
          "duration": 0.5601229687500222,
          "durationTicks": 380,
          "midi": 61,
          "name": "C#4",
          "ticks": 121928,
          "time": 179.7228245625,
          "velocity": 0.6692913385826772
        },
        {
          "duration": 0.5070586875000345,
          "durationTicks": 344,
          "midi": 57,
          "name": "A3",
          "ticks": 121928,
          "time": 179.7228245625,
          "velocity": 0.7165354330708661
        },
        {
          "duration": 0.69278367187502,
          "durationTicks": 470,
          "midi": 64,
          "name": "E4",
          "ticks": 121928,
          "time": 179.7228245625,
          "velocity": 0.7165354330708661
        },
        {
          "duration": 0.17098490624996998,
          "durationTicks": 116,
          "midi": 57,
          "name": "A3",
          "ticks": 122304,
          "time": 180.27705150000003,
          "velocity": 0.6771653543307087
        },
        {
          "duration": 0.12086864062499103,
          "durationTicks": 82,
          "midi": 65,
          "name": "F4",
          "ticks": 122360,
          "time": 180.35959593750002,
          "velocity": 0.3937007874015748
        },
        {
          "duration": 0.13560871874997815,
          "durationTicks": 92,
          "midi": 58,
          "name": "A#3",
          "ticks": 122368,
          "time": 180.37138800000002,
          "velocity": 0.4409448818897638
        },
        {
          "duration": 0.45399440624996146,
          "durationTicks": 308,
          "midi": 66,
          "name": "F#4",
          "ticks": 122404,
          "time": 180.42445228125004,
          "velocity": 0.5511811023622047
        },
        {
          "duration": 0.12086864062496261,
          "durationTicks": 82,
          "midi": 59,
          "name": "B3",
          "ticks": 122428,
          "time": 180.45982846875003,
          "velocity": 0.44881889763779526
        },
        {
          "duration": 0.27121743750001315,
          "durationTicks": 184,
          "midi": 63,
          "name": "D#4",
          "ticks": 122496,
          "time": 180.56006100000002,
          "velocity": 0.7480314960629921
        },
        {
          "duration": 0.08254443750001883,
          "durationTicks": 56,
          "midi": 59,
          "name": "B3",
          "ticks": 122696,
          "time": 180.85486256250002,
          "velocity": 0.6535433070866141
        },
        {
          "duration": 0.09138848437501679,
          "durationTicks": 62,
          "midi": 63,
          "name": "D#4",
          "ticks": 122796,
          "time": 181.00226334375,
          "velocity": 0.6614173228346457
        },
        {
          "duration": 0.04716824999999858,
          "durationTicks": 32,
          "midi": 66,
          "name": "F#4",
          "ticks": 122796,
          "time": 181.00226334375,
          "velocity": 0.5275590551181102
        },
        {
          "duration": 0.129712687499989,
          "durationTicks": 88,
          "midi": 61,
          "name": "C#4",
          "ticks": 122884,
          "time": 181.13197603125002,
          "velocity": 0.7244094488188977
        },
        {
          "duration": 0.12381665624999982,
          "durationTicks": 84,
          "midi": 64,
          "name": "E4",
          "ticks": 122884,
          "time": 181.13197603125002,
          "velocity": 0.7244094488188977
        },
        {
          "duration": 0.8785086562500055,
          "durationTicks": 596,
          "midi": 63,
          "name": "D#4",
          "ticks": 123464,
          "time": 181.9869005625,
          "velocity": 0.7007874015748031
        },
        {
          "duration": 0.6662515312500261,
          "durationTicks": 452,
          "midi": 66,
          "name": "F#4",
          "ticks": 123464,
          "time": 181.9869005625,
          "velocity": 0.7165354330708661
        },
        {
          "duration": 0.8785086562499771,
          "durationTicks": 596,
          "midi": 59,
          "name": "B3",
          "ticks": 123468,
          "time": 181.99279659375003,
          "velocity": 0.7244094488188977
        },
        {
          "duration": 0.11792062500001066,
          "durationTicks": 80,
          "midi": 63,
          "name": "D#4",
          "ticks": 124232,
          "time": 183.1189385625,
          "velocity": 0.7165354330708661
        },
        {
          "duration": 0.14740078125001332,
          "durationTicks": 100,
          "midi": 56,
          "name": "G#3",
          "ticks": 124236,
          "time": 183.12483459375002,
          "velocity": 0.7165354330708661
        },
        {
          "duration": 0.14740078125001332,
          "durationTicks": 100,
          "midi": 59,
          "name": "B3",
          "ticks": 124236,
          "time": 183.12483459375002,
          "velocity": 0.7165354330708661
        },
        {
          "duration": 0.2181531562500254,
          "durationTicks": 148,
          "midi": 61,
          "name": "C#4",
          "ticks": 124620,
          "time": 183.69085359375,
          "velocity": 0.6692913385826772
        },
        {
          "duration": 0.20636109374999023,
          "durationTicks": 140,
          "midi": 64,
          "name": "E4",
          "ticks": 124620,
          "time": 183.69085359375,
          "velocity": 0.6692913385826772
        },
        {
          "duration": 0.23584125000002132,
          "durationTicks": 160,
          "midi": 57,
          "name": "A3",
          "ticks": 124620,
          "time": 183.69085359375,
          "velocity": 0.7244094488188977
        },
        {
          "duration": 1.143830062500001,
          "durationTicks": 776,
          "midi": 57,
          "name": "A3",
          "ticks": 124804,
          "time": 183.96207103125002,
          "velocity": 0.7244094488188977
        },
        {
          "duration": 1.1202459374999876,
          "durationTicks": 760,
          "midi": 64,
          "name": "E4",
          "ticks": 124804,
          "time": 183.96207103125002,
          "velocity": 0.7165354330708661
        },
        {
          "duration": 1.1143499062499984,
          "durationTicks": 756,
          "midi": 61,
          "name": "C#4",
          "ticks": 124804,
          "time": 183.96207103125002,
          "velocity": 0.7007874015748031
        },
        {
          "duration": 0.1709849062499984,
          "durationTicks": 116,
          "midi": 64,
          "name": "E4",
          "ticks": 125952,
          "time": 185.654232,
          "velocity": 0.6692913385826772
        },
        {
          "duration": 0.13560871875000657,
          "durationTicks": 92,
          "midi": 61,
          "name": "C#4",
          "ticks": 125952,
          "time": 185.654232,
          "velocity": 0.6771653543307087
        },
        {
          "duration": 0.1297126875000174,
          "durationTicks": 88,
          "midi": 56,
          "name": "G#3",
          "ticks": 125952,
          "time": 185.654232,
          "velocity": 0.6850393700787402
        },
        {
          "duration": 1.338399093750013,
          "durationTicks": 908,
          "midi": 59,
          "name": "B3",
          "ticks": 126536,
          "time": 186.51505256250002,
          "velocity": 0.6771653543307087
        },
        {
          "duration": 1.3266070312499778,
          "durationTicks": 900,
          "midi": 63,
          "name": "D#4",
          "ticks": 126536,
          "time": 186.51505256250002,
          "velocity": 0.7007874015748031
        },
        {
          "duration": 1.3413471093750218,
          "durationTicks": 910,
          "midi": 54,
          "name": "F#3",
          "ticks": 126540,
          "time": 186.52094859375,
          "velocity": 0.7165354330708661
        },
        {
          "duration": 0.13560871874997815,
          "durationTicks": 92,
          "midi": 56,
          "name": "G#3",
          "ticks": 127488,
          "time": 187.91830800000002,
          "velocity": 0.6771653543307087
        },
        {
          "duration": 0.16508887500000924,
          "durationTicks": 112,
          "midi": 59,
          "name": "B3",
          "ticks": 127488,
          "time": 187.91830800000002,
          "velocity": 0.6614173228346457
        },
        {
          "duration": 0.1532968125000025,
          "durationTicks": 104,
          "midi": 51,
          "name": "D#3",
          "ticks": 127492,
          "time": 187.92420403125,
          "velocity": 0.6771653543307087
        },
        {
          "duration": 0.5424348750000263,
          "durationTicks": 368,
          "midi": 57,
          "name": "A3",
          "ticks": 128072,
          "time": 188.7791285625,
          "velocity": 0.6692913385826772
        },
        {
          "duration": 0.5070586875000345,
          "durationTicks": 344,
          "midi": 52,
          "name": "E3",
          "ticks": 128072,
          "time": 188.7791285625,
          "velocity": 0.7165354330708661
        },
        {
          "duration": 0.69278367187502,
          "durationTicks": 470,
          "midi": 61,
          "name": "C#4",
          "ticks": 128072,
          "time": 188.7791285625,
          "velocity": 0.7165354330708661
        },
        {
          "duration": 0.1709849062499984,
          "durationTicks": 116,
          "midi": 52,
          "name": "E3",
          "ticks": 128448,
          "time": 189.3333555,
          "velocity": 0.5669291338582677
        },
        {
          "duration": 0.13266070312499778,
          "durationTicks": 90,
          "midi": 57,
          "name": "A3",
          "ticks": 128454,
          "time": 189.342199546875,
          "velocity": 0.3700787401574803
        },
        {
          "duration": 0.14150474999999574,
          "durationTicks": 96,
          "midi": 58,
          "name": "A#3",
          "ticks": 128502,
          "time": 189.41295192187502,
          "velocity": 0.3858267716535433
        },
        {
          "duration": 0.12086864062501945,
          "durationTicks": 82,
          "midi": 62,
          "name": "D4",
          "ticks": 128504,
          "time": 189.4158999375,
          "velocity": 0.4015748031496063
        },
        {
          "duration": 0.135608718750035,
          "durationTicks": 92,
          "midi": 53,
          "name": "F3",
          "ticks": 128522,
          "time": 189.442432078125,
          "velocity": 0.5039370078740157
        },
        {
          "duration": 0.3861900468749866,
          "durationTicks": 262,
          "midi": 63,
          "name": "D#4",
          "ticks": 128548,
          "time": 189.48075628125002,
          "velocity": 0.5748031496062992
        },
        {
          "duration": 0.39798210937499334,
          "durationTicks": 270,
          "midi": 59,
          "name": "B3",
          "ticks": 128556,
          "time": 189.49254834375003,
          "velocity": 0.47244094488188976
        },
        {
          "duration": 0.39798210937499334,
          "durationTicks": 270,
          "midi": 54,
          "name": "F#3",
          "ticks": 128580,
          "time": 189.52792453125002,
          "velocity": 0.6377952755905512
        },
        {
          "duration": 0.2328932343749841,
          "durationTicks": 158,
          "midi": 63,
          "name": "D#4",
          "ticks": 128832,
          "time": 189.89937450000002,
          "velocity": 0.6929133858267716
        },
        {
          "duration": 0.2181531562500254,
          "durationTicks": 148,
          "midi": 59,
          "name": "B3",
          "ticks": 128840,
          "time": 189.9111665625,
          "velocity": 0.5669291338582677
        },
        {
          "duration": 0.1297126875000174,
          "durationTicks": 88,
          "midi": 56,
          "name": "G#3",
          "ticks": 129020,
          "time": 190.17648796875,
          "velocity": 0.7244094488188977
        },
        {
          "duration": 0.129712687499989,
          "durationTicks": 88,
          "midi": 61,
          "name": "C#4",
          "ticks": 129028,
          "time": 190.18828003125003,
          "velocity": 0.7244094488188977
        },
        {
          "duration": 0.12381665624999982,
          "durationTicks": 84,
          "midi": 64,
          "name": "E4",
          "ticks": 129028,
          "time": 190.18828003125003,
          "velocity": 0.7244094488188977
        },
        {
          "duration": 0.19751704687499227,
          "durationTicks": 134,
          "midi": 61,
          "name": "C#4",
          "ticks": 129402,
          "time": 190.73955895312503,
          "velocity": 0.47244094488188976
        },
        {
          "duration": 0.2152051406249882,
          "durationTicks": 146,
          "midi": 64,
          "name": "E4",
          "ticks": 129406,
          "time": 190.74545498437502,
          "velocity": 0.5984251968503937
        },
        {
          "duration": 0.22994521875000373,
          "durationTicks": 156,
          "midi": 56,
          "name": "G#3",
          "ticks": 129408,
          "time": 190.74840300000002,
          "velocity": 0.3779527559055118
        },
        {
          "duration": 0.7399519218750186,
          "durationTicks": 502,
          "midi": 59,
          "name": "B3",
          "ticks": 129608,
          "time": 191.0432045625,
          "velocity": 0.7007874015748031
        },
        {
          "duration": 0.4333582968750136,
          "durationTicks": 294,
          "midi": 63,
          "name": "D#4",
          "ticks": 129608,
          "time": 191.0432045625,
          "velocity": 0.7165354330708661
        },
        {
          "duration": 1.0937137968750221,
          "durationTicks": 742,
          "midi": 54,
          "name": "F#3",
          "ticks": 129612,
          "time": 191.04910059375,
          "velocity": 0.7244094488188977
        },
        {
          "duration": 0.2977495781249786,
          "durationTicks": 202,
          "midi": 63,
          "name": "D#4",
          "ticks": 129964,
          "time": 191.56795134375002,
          "velocity": 0.5590551181102362
        },
        {
          "duration": 0.04716824999997016,
          "durationTicks": 32,
          "midi": 61,
          "name": "C#4",
          "ticks": 130146,
          "time": 191.83622076562503,
          "velocity": 0.33858267716535434
        },
        {
          "duration": 0.06780435937500329,
          "durationTicks": 46,
          "midi": 60,
          "name": "C4",
          "ticks": 130154,
          "time": 191.848012828125,
          "velocity": 0.3937007874015748
        },
        {
          "duration": 0.26532140624999556,
          "durationTicks": 180,
          "midi": 59,
          "name": "B3",
          "ticks": 130178,
          "time": 191.883389015625,
          "velocity": 0.4881889763779528
        },
        {
          "duration": 0.3242817187500009,
          "durationTicks": 220,
          "midi": 59,
          "name": "B3",
          "ticks": 130376,
          "time": 192.17524256250002,
          "velocity": 0.7165354330708661
        },
        {
          "duration": 0.3832420312500062,
          "durationTicks": 260,
          "midi": 51,
          "name": "D#3",
          "ticks": 130380,
          "time": 192.18113859375,
          "velocity": 0.7165354330708661
        },
        {
          "duration": 0.3242817187500293,
          "durationTicks": 220,
          "midi": 56,
          "name": "G#3",
          "ticks": 130380,
          "time": 192.18113859375,
          "velocity": 0.7165354330708661
        },
        {
          "duration": 0.029480156250002665,
          "durationTicks": 20,
          "midi": 56,
          "name": "G#3",
          "ticks": 130764,
          "time": 192.74715759375002,
          "velocity": 0.5354330708661418
        },
        {
          "duration": 0.05011626562500737,
          "durationTicks": 34,
          "midi": 59,
          "name": "B3",
          "ticks": 130764,
          "time": 192.74715759375002,
          "velocity": 0.5354330708661418
        },
        {
          "duration": 0.06780435937500329,
          "durationTicks": 46,
          "midi": 52,
          "name": "E3",
          "ticks": 130764,
          "time": 192.74715759375002,
          "velocity": 0.5905511811023622
        },
        {
          "duration": 1.1438300624999727,
          "durationTicks": 776,
          "midi": 52,
          "name": "E3",
          "ticks": 130948,
          "time": 193.01837503125003,
          "velocity": 0.7244094488188977
        },
        {
          "duration": 1.1202459374999876,
          "durationTicks": 760,
          "midi": 61,
          "name": "C#4",
          "ticks": 130948,
          "time": 193.01837503125003,
          "velocity": 0.7165354330708661
        },
        {
          "duration": 1.1143499062499984,
          "durationTicks": 756,
          "midi": 57,
          "name": "A3",
          "ticks": 130948,
          "time": 193.01837503125003,
          "velocity": 0.7007874015748031
        },
        {
          "duration": 0.1709849062499984,
          "durationTicks": 116,
          "midi": 64,
          "name": "E4",
          "ticks": 132096,
          "time": 194.71053600000002,
          "velocity": 0.6692913385826772
        },
        {
          "duration": 0.13560871874997815,
          "durationTicks": 92,
          "midi": 61,
          "name": "C#4",
          "ticks": 132096,
          "time": 194.71053600000002,
          "velocity": 0.6771653543307087
        },
        {
          "duration": 0.1297126875000174,
          "durationTicks": 88,
          "midi": 56,
          "name": "G#3",
          "ticks": 132096,
          "time": 194.71053600000002,
          "velocity": 0.6850393700787402
        },
        {
          "duration": 1.3383990937500414,
          "durationTicks": 908,
          "midi": 59,
          "name": "B3",
          "ticks": 132680,
          "time": 195.5713565625,
          "velocity": 0.6771653543307087
        },
        {
          "duration": 1.3266070312500062,
          "durationTicks": 900,
          "midi": 63,
          "name": "D#4",
          "ticks": 132680,
          "time": 195.5713565625,
          "velocity": 0.7007874015748031
        },
        {
          "duration": 1.3413471093750218,
          "durationTicks": 910,
          "midi": 54,
          "name": "F#3",
          "ticks": 132684,
          "time": 195.57725259375002,
          "velocity": 0.7165354330708661
        },
        {
          "duration": 0.13560871875000657,
          "durationTicks": 92,
          "midi": 56,
          "name": "G#3",
          "ticks": 133632,
          "time": 196.974612,
          "velocity": 0.6771653543307087
        },
        {
          "duration": 0.16508887500000924,
          "durationTicks": 112,
          "midi": 59,
          "name": "B3",
          "ticks": 133632,
          "time": 196.974612,
          "velocity": 0.6614173228346457
        },
        {
          "duration": 0.1532968125000025,
          "durationTicks": 104,
          "midi": 51,
          "name": "D#3",
          "ticks": 133636,
          "time": 196.98050803125003,
          "velocity": 0.6771653543307087
        },
        {
          "duration": 0.5424348749999979,
          "durationTicks": 368,
          "midi": 57,
          "name": "A3",
          "ticks": 134216,
          "time": 197.83543256250002,
          "velocity": 0.6692913385826772
        },
        {
          "duration": 0.507058687500006,
          "durationTicks": 344,
          "midi": 52,
          "name": "E3",
          "ticks": 134216,
          "time": 197.83543256250002,
          "velocity": 0.7165354330708661
        },
        {
          "duration": 0.69278367187502,
          "durationTicks": 470,
          "midi": 61,
          "name": "C#4",
          "ticks": 134216,
          "time": 197.83543256250002,
          "velocity": 0.7165354330708661
        },
        {
          "duration": 0.1709849062499984,
          "durationTicks": 116,
          "midi": 52,
          "name": "E3",
          "ticks": 134592,
          "time": 198.38965950000002,
          "velocity": 0.5669291338582677
        },
        {
          "duration": 0.13266070312499778,
          "durationTicks": 90,
          "midi": 57,
          "name": "A3",
          "ticks": 134598,
          "time": 198.39850354687502,
          "velocity": 0.3700787401574803
        },
        {
          "duration": 0.14150475000002416,
          "durationTicks": 96,
          "midi": 58,
          "name": "A#3",
          "ticks": 134646,
          "time": 198.469255921875,
          "velocity": 0.3858267716535433
        },
        {
          "duration": 0.12086864062501945,
          "durationTicks": 82,
          "midi": 62,
          "name": "D4",
          "ticks": 134648,
          "time": 198.4722039375,
          "velocity": 0.4015748031496063
        },
        {
          "duration": 0.135608718750035,
          "durationTicks": 92,
          "midi": 53,
          "name": "F3",
          "ticks": 134666,
          "time": 198.498736078125,
          "velocity": 0.5039370078740157
        },
        {
          "duration": 0.38619004687495817,
          "durationTicks": 262,
          "midi": 63,
          "name": "D#4",
          "ticks": 134692,
          "time": 198.53706028125004,
          "velocity": 0.5748031496062992
        },
        {
          "duration": 0.39798210937499334,
          "durationTicks": 270,
          "midi": 59,
          "name": "B3",
          "ticks": 134700,
          "time": 198.54885234375,
          "velocity": 0.47244094488188976
        },
        {
          "duration": 0.39798210937502176,
          "durationTicks": 270,
          "midi": 54,
          "name": "F#3",
          "ticks": 134724,
          "time": 198.58422853125,
          "velocity": 0.6377952755905512
        },
        {
          "duration": 0.23289323437501253,
          "durationTicks": 158,
          "midi": 63,
          "name": "D#4",
          "ticks": 134976,
          "time": 198.9556785,
          "velocity": 0.6929133858267716
        },
        {
          "duration": 0.21815315624999698,
          "durationTicks": 148,
          "midi": 59,
          "name": "B3",
          "ticks": 134984,
          "time": 198.9674705625,
          "velocity": 0.5669291338582677
        },
        {
          "duration": 0.1297126875000174,
          "durationTicks": 88,
          "midi": 56,
          "name": "G#3",
          "ticks": 135164,
          "time": 199.23279196875,
          "velocity": 0.7244094488188977
        },
        {
          "duration": 0.12971268749996057,
          "durationTicks": 88,
          "midi": 61,
          "name": "C#4",
          "ticks": 135172,
          "time": 199.24458403125004,
          "velocity": 0.7244094488188977
        },
        {
          "duration": 0.12381665624999982,
          "durationTicks": 84,
          "midi": 64,
          "name": "E4",
          "ticks": 135172,
          "time": 199.24458403125004,
          "velocity": 0.7244094488188977
        },
        {
          "duration": 0.19751704687499227,
          "durationTicks": 134,
          "midi": 61,
          "name": "C#4",
          "ticks": 135546,
          "time": 199.795862953125,
          "velocity": 0.47244094488188976
        },
        {
          "duration": 0.2152051406249882,
          "durationTicks": 146,
          "midi": 64,
          "name": "E4",
          "ticks": 135550,
          "time": 199.80175898437503,
          "velocity": 0.5984251968503937
        },
        {
          "duration": 0.22994521875000373,
          "durationTicks": 156,
          "midi": 56,
          "name": "G#3",
          "ticks": 135552,
          "time": 199.804707,
          "velocity": 0.3779527559055118
        },
        {
          "duration": 0.7399519218750186,
          "durationTicks": 502,
          "midi": 59,
          "name": "B3",
          "ticks": 135752,
          "time": 200.0995085625,
          "velocity": 0.7007874015748031
        },
        {
          "duration": 0.4333582968750136,
          "durationTicks": 294,
          "midi": 63,
          "name": "D#4",
          "ticks": 135752,
          "time": 200.0995085625,
          "velocity": 0.7165354330708661
        },
        {
          "duration": 1.0937137968749937,
          "durationTicks": 742,
          "midi": 54,
          "name": "F#3",
          "ticks": 135756,
          "time": 200.10540459375002,
          "velocity": 0.7244094488188977
        },
        {
          "duration": 0.2977495781249786,
          "durationTicks": 202,
          "midi": 63,
          "name": "D#4",
          "ticks": 136108,
          "time": 200.62425534375004,
          "velocity": 0.5590551181102362
        },
        {
          "duration": 0.04716824999999858,
          "durationTicks": 32,
          "midi": 61,
          "name": "C#4",
          "ticks": 136290,
          "time": 200.892524765625,
          "velocity": 0.33858267716535434
        },
        {
          "duration": 0.06780435937500329,
          "durationTicks": 46,
          "midi": 60,
          "name": "C4",
          "ticks": 136298,
          "time": 200.90431682812502,
          "velocity": 0.3937007874015748
        },
        {
          "duration": 0.26532140624999556,
          "durationTicks": 180,
          "midi": 59,
          "name": "B3",
          "ticks": 136322,
          "time": 200.939693015625,
          "velocity": 0.4881889763779528
        },
        {
          "duration": 0.3242817187500293,
          "durationTicks": 220,
          "midi": 59,
          "name": "B3",
          "ticks": 136520,
          "time": 201.2315465625,
          "velocity": 0.7165354330708661
        },
        {
          "duration": 0.3832420312499778,
          "durationTicks": 260,
          "midi": 51,
          "name": "D#3",
          "ticks": 136524,
          "time": 201.23744259375002,
          "velocity": 0.7165354330708661
        },
        {
          "duration": 0.3242817187500009,
          "durationTicks": 220,
          "midi": 56,
          "name": "G#3",
          "ticks": 136524,
          "time": 201.23744259375002,
          "velocity": 0.7165354330708661
        },
        {
          "duration": 0.029480156249974243,
          "durationTicks": 20,
          "midi": 56,
          "name": "G#3",
          "ticks": 136908,
          "time": 201.80346159375003,
          "velocity": 0.5354330708661418
        },
        {
          "duration": 0.05011626562500737,
          "durationTicks": 34,
          "midi": 59,
          "name": "B3",
          "ticks": 136908,
          "time": 201.80346159375003,
          "velocity": 0.5354330708661418
        },
        {
          "duration": 0.06780435937500329,
          "durationTicks": 46,
          "midi": 52,
          "name": "E3",
          "ticks": 136908,
          "time": 201.80346159375003,
          "velocity": 0.5905511811023622
        },
        {
          "duration": 1.1438300624999727,
          "durationTicks": 776,
          "midi": 52,
          "name": "E3",
          "ticks": 137092,
          "time": 202.07467903125004,
          "velocity": 0.7244094488188977
        },
        {
          "duration": 1.1202459374999592,
          "durationTicks": 760,
          "midi": 61,
          "name": "C#4",
          "ticks": 137092,
          "time": 202.07467903125004,
          "velocity": 0.7165354330708661
        },
        {
          "duration": 1.1143499062499984,
          "durationTicks": 756,
          "midi": 57,
          "name": "A3",
          "ticks": 137092,
          "time": 202.07467903125004,
          "velocity": 0.7007874015748031
        },
        {
          "duration": 0.5896031249999965,
          "durationTicks": 400,
          "midi": 66,
          "name": "F#4",
          "ticks": 138240,
          "time": 203.76684000000003,
          "velocity": 0.6614173228346457
        },
        {
          "duration": 0.6957316875000004,
          "durationTicks": 472,
          "midi": 62,
          "name": "D4",
          "ticks": 138240,
          "time": 203.76684000000003,
          "velocity": 0.6614173228346457
        },
        {
          "duration": 1.1497260937499902,
          "durationTicks": 780,
          "midi": 61,
          "name": "C#4",
          "ticks": 138824,
          "time": 204.6276605625,
          "velocity": 0.6614173228346457
        },
        {
          "duration": 1.0907657812500133,
          "durationTicks": 740,
          "midi": 64,
          "name": "E4",
          "ticks": 138824,
          "time": 204.6276605625,
          "velocity": 0.6614173228346457
        },
        {
          "duration": 0.7370039062499814,
          "durationTicks": 500,
          "midi": 62,
          "name": "D4",
          "ticks": 139776,
          "time": 206.03091600000002,
          "velocity": 0.6614173228346457
        },
        {
          "duration": 0.6957316875000004,
          "durationTicks": 472,
          "midi": 59,
          "name": "B3",
          "ticks": 139776,
          "time": 206.03091600000002,
          "velocity": 0.6614173228346457
        },
        {
          "duration": 1.2204784687500023,
          "durationTicks": 828,
          "midi": 62,
          "name": "D4",
          "ticks": 140360,
          "time": 206.8917365625,
          "velocity": 0.6614173228346457
        },
        {
          "duration": 1.2204784687500023,
          "durationTicks": 828,
          "midi": 57,
          "name": "A3",
          "ticks": 140360,
          "time": 206.8917365625,
          "velocity": 0.6614173228346457
        },
        {
          "duration": 0.7605880312500233,
          "durationTicks": 516,
          "midi": 55,
          "name": "G3",
          "ticks": 141312,
          "time": 208.294992,
          "velocity": 0.6614173228346457
        },
        {
          "duration": 0.7311078750000206,
          "durationTicks": 496,
          "midi": 60,
          "name": "C4",
          "ticks": 141312,
          "time": 208.294992,
          "velocity": 0.6614173228346457
        },
        {
          "duration": 1.1792062500000213,
          "durationTicks": 800,
          "midi": 59,
          "name": "B3",
          "ticks": 141896,
          "time": 209.15581256250002,
          "velocity": 0.6614173228346457
        },
        {
          "duration": 1.1261419687500052,
          "durationTicks": 764,
          "midi": 55,
          "name": "G3",
          "ticks": 141896,
          "time": 209.15581256250002,
          "velocity": 0.6614173228346457
        },
        {
          "duration": 1.7629133437499718,
          "durationTicks": 1196,
          "midi": 62,
          "name": "D4",
          "ticks": 142848,
          "time": 210.55906800000002,
          "velocity": 0.6614173228346457
        },
        {
          "duration": 1.7688093749999894,
          "durationTicks": 1200,
          "midi": 57,
          "name": "A3",
          "ticks": 142848,
          "time": 210.55906800000002,
          "velocity": 0.6614173228346457
        },
        {
          "duration": 0.5896031250000249,
          "durationTicks": 400,
          "midi": 66,
          "name": "F#4",
          "ticks": 144384,
          "time": 212.823144,
          "velocity": 0.7322834645669292
        },
        {
          "duration": 0.6957316875000288,
          "durationTicks": 472,
          "midi": 62,
          "name": "D4",
          "ticks": 144384,
          "time": 212.823144,
          "velocity": 0.7322834645669292
        },
        {
          "duration": 1.1497260937500187,
          "durationTicks": 780,
          "midi": 61,
          "name": "C#4",
          "ticks": 144968,
          "time": 213.6839645625,
          "velocity": 0.7559055118110236
        },
        {
          "duration": 1.0907657812500418,
          "durationTicks": 740,
          "midi": 64,
          "name": "E4",
          "ticks": 144968,
          "time": 213.6839645625,
          "velocity": 0.7165354330708661
        },
        {
          "duration": 0.7370039062499814,
          "durationTicks": 500,
          "midi": 62,
          "name": "D4",
          "ticks": 145920,
          "time": 215.08722000000003,
          "velocity": 0.6929133858267716
        },
        {
          "duration": 0.6957316875000004,
          "durationTicks": 472,
          "midi": 59,
          "name": "B3",
          "ticks": 145920,
          "time": 215.08722000000003,
          "velocity": 0.6929133858267716
        },
        {
          "duration": 1.2204784687500023,
          "durationTicks": 828,
          "midi": 62,
          "name": "D4",
          "ticks": 146504,
          "time": 215.9480405625,
          "velocity": 0.6929133858267716
        },
        {
          "duration": 1.2204784687500023,
          "durationTicks": 828,
          "midi": 57,
          "name": "A3",
          "ticks": 146504,
          "time": 215.9480405625,
          "velocity": 0.6850393700787402
        },
        {
          "duration": 0.7605880312499949,
          "durationTicks": 516,
          "midi": 64,
          "name": "E4",
          "ticks": 147456,
          "time": 217.35129600000002,
          "velocity": 0.7086614173228346
        },
        {
          "duration": 0.7311078750000206,
          "durationTicks": 496,
          "midi": 60,
          "name": "C4",
          "ticks": 147456,
          "time": 217.35129600000002,
          "velocity": 0.6929133858267716
        },
        {
          "duration": 1.1792062500000213,
          "durationTicks": 800,
          "midi": 62,
          "name": "D4",
          "ticks": 148040,
          "time": 218.2121165625,
          "velocity": 0.7086614173228346
        },
        {
          "duration": 1.1261419687500336,
          "durationTicks": 764,
          "midi": 59,
          "name": "B3",
          "ticks": 148040,
          "time": 218.2121165625,
          "velocity": 0.7244094488188977
        },
        {
          "duration": 1.7629133437500002,
          "durationTicks": 1196,
          "midi": 62,
          "name": "D4",
          "ticks": 148992,
          "time": 219.615372,
          "velocity": 0.6850393700787402
        },
        {
          "duration": 1.7688093750000178,
          "durationTicks": 1200,
          "midi": 57,
          "name": "A3",
          "ticks": 148992,
          "time": 219.615372,
          "velocity": 0.7244094488188977
        },
        {
          "duration": 0.5896031249999965,
          "durationTicks": 400,
          "midi": 66,
          "name": "F#4",
          "ticks": 150528,
          "time": 221.87944800000002,
          "velocity": 0.6614173228346457
        },
        {
          "duration": 0.6957316875000004,
          "durationTicks": 472,
          "midi": 62,
          "name": "D4",
          "ticks": 150528,
          "time": 221.87944800000002,
          "velocity": 0.6614173228346457
        },
        {
          "duration": 1.1497260937499902,
          "durationTicks": 780,
          "midi": 61,
          "name": "C#4",
          "ticks": 151112,
          "time": 222.7402685625,
          "velocity": 0.6614173228346457
        },
        {
          "duration": 1.0907657812500133,
          "durationTicks": 740,
          "midi": 64,
          "name": "E4",
          "ticks": 151112,
          "time": 222.7402685625,
          "velocity": 0.6614173228346457
        },
        {
          "duration": 0.7370039062499814,
          "durationTicks": 500,
          "midi": 62,
          "name": "D4",
          "ticks": 152064,
          "time": 224.143524,
          "velocity": 0.6614173228346457
        },
        {
          "duration": 0.6957316875000288,
          "durationTicks": 472,
          "midi": 59,
          "name": "B3",
          "ticks": 152064,
          "time": 224.143524,
          "velocity": 0.6614173228346457
        },
        {
          "duration": 1.220478468749974,
          "durationTicks": 828,
          "midi": 62,
          "name": "D4",
          "ticks": 152648,
          "time": 225.00434456250002,
          "velocity": 0.6614173228346457
        },
        {
          "duration": 1.220478468749974,
          "durationTicks": 828,
          "midi": 57,
          "name": "A3",
          "ticks": 152648,
          "time": 225.00434456250002,
          "velocity": 0.6614173228346457
        },
        {
          "duration": 0.7605880312499949,
          "durationTicks": 516,
          "midi": 55,
          "name": "G3",
          "ticks": 153600,
          "time": 226.40760000000003,
          "velocity": 0.6614173228346457
        },
        {
          "duration": 0.7311078749999922,
          "durationTicks": 496,
          "midi": 60,
          "name": "C4",
          "ticks": 153600,
          "time": 226.40760000000003,
          "velocity": 0.6614173228346457
        },
        {
          "duration": 1.1792062500000213,
          "durationTicks": 800,
          "midi": 59,
          "name": "B3",
          "ticks": 154184,
          "time": 227.2684205625,
          "velocity": 0.6614173228346457
        },
        {
          "duration": 1.1261419687500052,
          "durationTicks": 764,
          "midi": 55,
          "name": "G3",
          "ticks": 154184,
          "time": 227.2684205625,
          "velocity": 0.6614173228346457
        },
        {
          "duration": 1.7629133437500002,
          "durationTicks": 1196,
          "midi": 62,
          "name": "D4",
          "ticks": 155136,
          "time": 228.67167600000002,
          "velocity": 0.6614173228346457
        },
        {
          "duration": 1.7688093749999894,
          "durationTicks": 1200,
          "midi": 57,
          "name": "A3",
          "ticks": 155136,
          "time": 228.67167600000002,
          "velocity": 0.6614173228346457
        },
        {
          "duration": 0.5896031250000249,
          "durationTicks": 400,
          "midi": 66,
          "name": "F#4",
          "ticks": 156672,
          "time": 230.935752,
          "velocity": 0.7322834645669292
        },
        {
          "duration": 0.6957316875000288,
          "durationTicks": 472,
          "midi": 62,
          "name": "D4",
          "ticks": 156672,
          "time": 230.935752,
          "velocity": 0.7322834645669292
        },
        {
          "duration": 1.1497260937499902,
          "durationTicks": 780,
          "midi": 61,
          "name": "C#4",
          "ticks": 157256,
          "time": 231.79657256250002,
          "velocity": 0.7559055118110236
        },
        {
          "duration": 1.0907657812500133,
          "durationTicks": 740,
          "midi": 64,
          "name": "E4",
          "ticks": 157256,
          "time": 231.79657256250002,
          "velocity": 0.7165354330708661
        },
        {
          "duration": 0.7370039062499814,
          "durationTicks": 500,
          "midi": 62,
          "name": "D4",
          "ticks": 158208,
          "time": 233.19982800000002,
          "velocity": 0.6929133858267716
        },
        {
          "duration": 0.6957316875000004,
          "durationTicks": 472,
          "midi": 59,
          "name": "B3",
          "ticks": 158208,
          "time": 233.19982800000002,
          "velocity": 0.6929133858267716
        },
        {
          "duration": 1.2204784687500023,
          "durationTicks": 828,
          "midi": 62,
          "name": "D4",
          "ticks": 158792,
          "time": 234.0606485625,
          "velocity": 0.6929133858267716
        },
        {
          "duration": 1.2204784687500023,
          "durationTicks": 828,
          "midi": 57,
          "name": "A3",
          "ticks": 158792,
          "time": 234.0606485625,
          "velocity": 0.6850393700787402
        },
        {
          "duration": 0.7605880312499949,
          "durationTicks": 516,
          "midi": 64,
          "name": "E4",
          "ticks": 159744,
          "time": 235.463904,
          "velocity": 0.7086614173228346
        },
        {
          "duration": 0.7311078750000206,
          "durationTicks": 496,
          "midi": 60,
          "name": "C4",
          "ticks": 159744,
          "time": 235.463904,
          "velocity": 0.6929133858267716
        },
        {
          "duration": 1.1792062500000213,
          "durationTicks": 800,
          "midi": 62,
          "name": "D4",
          "ticks": 160328,
          "time": 236.32472456250002,
          "velocity": 0.7086614173228346
        },
        {
          "duration": 1.1261419687500052,
          "durationTicks": 764,
          "midi": 59,
          "name": "B3",
          "ticks": 160328,
          "time": 236.32472456250002,
          "velocity": 0.7244094488188977
        },
        {
          "duration": 1.7629133437499718,
          "durationTicks": 1196,
          "midi": 62,
          "name": "D4",
          "ticks": 161280,
          "time": 237.72798000000003,
          "velocity": 0.6850393700787402
        },
        {
          "duration": 1.7688093749999894,
          "durationTicks": 1200,
          "midi": 57,
          "name": "A3",
          "ticks": 161280,
          "time": 237.72798000000003,
          "velocity": 0.7244094488188977
        }
      ],
      "endOfTrackTicks": 162816
    },
    {
      "channel": 3,
      "controlChanges": {
        "1": [
          {
            "number": 1,
            "ticks": 21876,
            "time": 32.245394906250006,
            "value": 0.007874015748031496
          },
          {
            "number": 1,
            "ticks": 21938,
            "time": 32.336783390625,
            "value": 0.015748031496062992
          },
          {
            "number": 1,
            "ticks": 21946,
            "time": 32.348575453125,
            "value": 0.023622047244094488
          },
          {
            "number": 1,
            "ticks": 21950,
            "time": 32.354471484375004,
            "value": 0.031496062992125984
          },
          {
            "number": 1,
            "ticks": 21954,
            "time": 32.360367515625,
            "value": 0.03937007874015748
          },
          {
            "number": 1,
            "ticks": 21962,
            "time": 32.37215957812501,
            "value": 0.047244094488188976
          },
          {
            "number": 1,
            "ticks": 21968,
            "time": 32.381003625000005,
            "value": 0.06299212598425197
          },
          {
            "number": 1,
            "ticks": 21976,
            "time": 32.392795687500005,
            "value": 0.07086614173228346
          },
          {
            "number": 1,
            "ticks": 21978,
            "time": 32.395743703125,
            "value": 0.07874015748031496
          },
          {
            "number": 1,
            "ticks": 21986,
            "time": 32.407535765625006,
            "value": 0.08661417322834646
          },
          {
            "number": 1,
            "ticks": 21990,
            "time": 32.413431796875,
            "value": 0.09448818897637795
          },
          {
            "number": 1,
            "ticks": 21994,
            "time": 32.419327828125,
            "value": 0.10236220472440945
          },
          {
            "number": 1,
            "ticks": 22002,
            "time": 32.431119890625006,
            "value": 0.11023622047244094
          },
          {
            "number": 1,
            "ticks": 22012,
            "time": 32.44585996875,
            "value": 0.11811023622047244
          },
          {
            "number": 1,
            "ticks": 22022,
            "time": 32.460600046875,
            "value": 0.12598425196850394
          },
          {
            "number": 1,
            "ticks": 22046,
            "time": 32.49597623437501,
            "value": 0.11811023622047244
          },
          {
            "number": 1,
            "ticks": 22050,
            "time": 32.501872265625,
            "value": 0.11023622047244094
          },
          {
            "number": 1,
            "ticks": 22058,
            "time": 32.513664328125,
            "value": 0.10236220472440945
          },
          {
            "number": 1,
            "ticks": 22062,
            "time": 32.519560359375,
            "value": 0.09448818897637795
          },
          {
            "number": 1,
            "ticks": 22066,
            "time": 32.525456390625,
            "value": 0.07874015748031496
          },
          {
            "number": 1,
            "ticks": 22070,
            "time": 32.531352421875006,
            "value": 0.07086614173228346
          },
          {
            "number": 1,
            "ticks": 22074,
            "time": 32.537248453125,
            "value": 0.05511811023622047
          },
          {
            "number": 1,
            "ticks": 22078,
            "time": 32.543144484375,
            "value": 0.047244094488188976
          },
          {
            "number": 1,
            "ticks": 22084,
            "time": 32.551988531250004,
            "value": 0.007874015748031496
          },
          {
            "number": 1,
            "ticks": 22112,
            "time": 32.593260750000006,
            "value": 0
          },
          {
            "number": 1,
            "ticks": 22968,
            "time": 33.8550114375,
            "value": 0.007874015748031496
          },
          {
            "number": 1,
            "ticks": 22992,
            "time": 33.890387625,
            "value": 0.015748031496062992
          },
          {
            "number": 1,
            "ticks": 22996,
            "time": 33.89628365625,
            "value": 0.023622047244094488
          },
          {
            "number": 1,
            "ticks": 23000,
            "time": 33.9021796875,
            "value": 0.031496062992125984
          },
          {
            "number": 1,
            "ticks": 23002,
            "time": 33.905127703125004,
            "value": 0.047244094488188976
          },
          {
            "number": 1,
            "ticks": 23006,
            "time": 33.91102373437501,
            "value": 0.05511811023622047
          },
          {
            "number": 1,
            "ticks": 23010,
            "time": 33.916919765625,
            "value": 0.06299212598425197
          },
          {
            "number": 1,
            "ticks": 23014,
            "time": 33.922815796875,
            "value": 0.07086614173228346
          },
          {
            "number": 1,
            "ticks": 23020,
            "time": 33.931659843750005,
            "value": 0.07874015748031496
          },
          {
            "number": 1,
            "ticks": 23024,
            "time": 33.937555875,
            "value": 0.09448818897637795
          },
          {
            "number": 1,
            "ticks": 23030,
            "time": 33.946399921875006,
            "value": 0.10236220472440945
          },
          {
            "number": 1,
            "ticks": 23034,
            "time": 33.952295953125,
            "value": 0.11811023622047244
          },
          {
            "number": 1,
            "ticks": 23036,
            "time": 33.955243968750004,
            "value": 0.12598425196850394
          },
          {
            "number": 1,
            "ticks": 23042,
            "time": 33.964088015625,
            "value": 0.13385826771653545
          },
          {
            "number": 1,
            "ticks": 23046,
            "time": 33.969984046875005,
            "value": 0.14173228346456693
          },
          {
            "number": 1,
            "ticks": 23048,
            "time": 33.97293206250001,
            "value": 0.14960629921259844
          },
          {
            "number": 1,
            "ticks": 23052,
            "time": 33.97882809375,
            "value": 0.15748031496062992
          },
          {
            "number": 1,
            "ticks": 23056,
            "time": 33.984724125,
            "value": 0.16535433070866143
          },
          {
            "number": 1,
            "ticks": 23060,
            "time": 33.99062015625,
            "value": 0.1732283464566929
          },
          {
            "number": 1,
            "ticks": 23064,
            "time": 33.996516187500006,
            "value": 0.18110236220472442
          },
          {
            "number": 1,
            "ticks": 23068,
            "time": 34.00241221875,
            "value": 0.1968503937007874
          },
          {
            "number": 1,
            "ticks": 23072,
            "time": 34.008308250000006,
            "value": 0.2047244094488189
          },
          {
            "number": 1,
            "ticks": 23076,
            "time": 34.01420428125,
            "value": 0.2125984251968504
          },
          {
            "number": 1,
            "ticks": 23080,
            "time": 34.0201003125,
            "value": 0.2204724409448819
          },
          {
            "number": 1,
            "ticks": 23088,
            "time": 34.031892375000005,
            "value": 0.2283464566929134
          },
          {
            "number": 1,
            "ticks": 23094,
            "time": 34.040736421875,
            "value": 0.23622047244094488
          },
          {
            "number": 1,
            "ticks": 23120,
            "time": 34.079060625000004,
            "value": 0.2283464566929134
          },
          {
            "number": 1,
            "ticks": 23128,
            "time": 34.0908526875,
            "value": 0.2204724409448819
          },
          {
            "number": 1,
            "ticks": 23132,
            "time": 34.09674871875001,
            "value": 0.2125984251968504
          },
          {
            "number": 1,
            "ticks": 23136,
            "time": 34.10264475,
            "value": 0.1968503937007874
          },
          {
            "number": 1,
            "ticks": 23140,
            "time": 34.10854078125,
            "value": 0.1889763779527559
          },
          {
            "number": 1,
            "ticks": 23144,
            "time": 34.1144368125,
            "value": 0.1732283464566929
          },
          {
            "number": 1,
            "ticks": 23148,
            "time": 34.120332843750006,
            "value": 0.15748031496062992
          },
          {
            "number": 1,
            "ticks": 23152,
            "time": 34.126228875,
            "value": 0.14173228346456693
          },
          {
            "number": 1,
            "ticks": 23156,
            "time": 34.132124906250006,
            "value": 0.11811023622047244
          },
          {
            "number": 1,
            "ticks": 23160,
            "time": 34.1380209375,
            "value": 0.10236220472440945
          },
          {
            "number": 1,
            "ticks": 23162,
            "time": 34.140968953125004,
            "value": 0.07874015748031496
          },
          {
            "number": 1,
            "ticks": 23168,
            "time": 34.149813,
            "value": 0.06299212598425197
          },
          {
            "number": 1,
            "ticks": 23172,
            "time": 34.155709031250005,
            "value": 0.03937007874015748
          },
          {
            "number": 1,
            "ticks": 23176,
            "time": 34.1616050625,
            "value": 0.007874015748031496
          },
          {
            "number": 1,
            "ticks": 23198,
            "time": 34.194033234375006,
            "value": 0
          },
          {
            "number": 1,
            "ticks": 24562,
            "time": 36.204579890625,
            "value": 0.007874015748031496
          },
          {
            "number": 1,
            "ticks": 24586,
            "time": 36.239956078125005,
            "value": 0.015748031496062992
          },
          {
            "number": 1,
            "ticks": 24590,
            "time": 36.245852109375,
            "value": 0.023622047244094488
          },
          {
            "number": 1,
            "ticks": 24594,
            "time": 36.251748140625004,
            "value": 0.031496062992125984
          },
          {
            "number": 1,
            "ticks": 24596,
            "time": 36.25469615625,
            "value": 0.03937007874015748
          },
          {
            "number": 1,
            "ticks": 24600,
            "time": 36.2605921875,
            "value": 0.047244094488188976
          },
          {
            "number": 1,
            "ticks": 24604,
            "time": 36.266488218750006,
            "value": 0.06299212598425197
          },
          {
            "number": 1,
            "ticks": 24608,
            "time": 36.27238425,
            "value": 0.07086614173228346
          },
          {
            "number": 1,
            "ticks": 24612,
            "time": 36.278280281250005,
            "value": 0.07874015748031496
          },
          {
            "number": 1,
            "ticks": 24616,
            "time": 36.28417631250001,
            "value": 0.08661417322834646
          },
          {
            "number": 1,
            "ticks": 24620,
            "time": 36.29007234375,
            "value": 0.09448818897637795
          },
          {
            "number": 1,
            "ticks": 24624,
            "time": 36.295968375,
            "value": 0.10236220472440945
          },
          {
            "number": 1,
            "ticks": 24628,
            "time": 36.301864406250004,
            "value": 0.11023622047244094
          },
          {
            "number": 1,
            "ticks": 24632,
            "time": 36.3077604375,
            "value": 0.11811023622047244
          },
          {
            "number": 1,
            "ticks": 24636,
            "time": 36.313656468750004,
            "value": 0.13385826771653545
          },
          {
            "number": 1,
            "ticks": 24638,
            "time": 36.316604484375,
            "value": 0.14173228346456693
          },
          {
            "number": 1,
            "ticks": 24644,
            "time": 36.325448531250004,
            "value": 0.14960629921259844
          },
          {
            "number": 1,
            "ticks": 24648,
            "time": 36.3313445625,
            "value": 0.15748031496062992
          },
          {
            "number": 1,
            "ticks": 24652,
            "time": 36.33724059375,
            "value": 0.16535433070866143
          },
          {
            "number": 1,
            "ticks": 24656,
            "time": 36.343136625,
            "value": 0.1732283464566929
          },
          {
            "number": 1,
            "ticks": 24658,
            "time": 36.34608464062501,
            "value": 0.1889763779527559
          },
          {
            "number": 1,
            "ticks": 24662,
            "time": 36.351980671875,
            "value": 0.1968503937007874
          },
          {
            "number": 1,
            "ticks": 24666,
            "time": 36.357876703125,
            "value": 0.2047244094488189
          },
          {
            "number": 1,
            "ticks": 24670,
            "time": 36.363772734375004,
            "value": 0.2125984251968504
          },
          {
            "number": 1,
            "ticks": 24674,
            "time": 36.369668765625,
            "value": 0.2204724409448819
          },
          {
            "number": 1,
            "ticks": 24676,
            "time": 36.37261678125001,
            "value": 0.2283464566929134
          },
          {
            "number": 1,
            "ticks": 24684,
            "time": 36.38440884375,
            "value": 0.23622047244094488
          },
          {
            "number": 1,
            "ticks": 24692,
            "time": 36.39620090625,
            "value": 0.2440944881889764
          },
          {
            "number": 1,
            "ticks": 24700,
            "time": 36.40799296875001,
            "value": 0.25196850393700787
          },
          {
            "number": 1,
            "ticks": 24738,
            "time": 36.464005265625005,
            "value": 0.2440944881889764
          },
          {
            "number": 1,
            "ticks": 24742,
            "time": 36.46990129687501,
            "value": 0.23622047244094488
          },
          {
            "number": 1,
            "ticks": 24748,
            "time": 36.478745343750006,
            "value": 0.2283464566929134
          },
          {
            "number": 1,
            "ticks": 24754,
            "time": 36.487589390625004,
            "value": 0.2204724409448819
          },
          {
            "number": 1,
            "ticks": 24756,
            "time": 36.490537406250006,
            "value": 0.2047244094488189
          },
          {
            "number": 1,
            "ticks": 24760,
            "time": 36.49643343750001,
            "value": 0.1889763779527559
          },
          {
            "number": 1,
            "ticks": 24764,
            "time": 36.50232946875,
            "value": 0.18110236220472442
          },
          {
            "number": 1,
            "ticks": 24768,
            "time": 36.5082255,
            "value": 0.16535433070866143
          },
          {
            "number": 1,
            "ticks": 24774,
            "time": 36.517069546875,
            "value": 0.14173228346456693
          },
          {
            "number": 1,
            "ticks": 24776,
            "time": 36.5200175625,
            "value": 0.12598425196850394
          },
          {
            "number": 1,
            "ticks": 24780,
            "time": 36.525913593750005,
            "value": 0.10236220472440945
          },
          {
            "number": 1,
            "ticks": 24784,
            "time": 36.53180962500001,
            "value": 0.07874015748031496
          },
          {
            "number": 1,
            "ticks": 24788,
            "time": 36.53770565625,
            "value": 0.06299212598425197
          },
          {
            "number": 1,
            "ticks": 24792,
            "time": 36.5436016875,
            "value": 0.047244094488188976
          },
          {
            "number": 1,
            "ticks": 24796,
            "time": 36.549497718750004,
            "value": 0.007874015748031496
          },
          {
            "number": 1,
            "ticks": 24816,
            "time": 36.57897787500001,
            "value": 0
          },
          {
            "number": 1,
            "ticks": 25636,
            "time": 37.78766428125001,
            "value": 0.007874015748031496
          },
          {
            "number": 1,
            "ticks": 25654,
            "time": 37.814196421875,
            "value": 0.015748031496062992
          },
          {
            "number": 1,
            "ticks": 25658,
            "time": 37.820092453125,
            "value": 0.023622047244094488
          },
          {
            "number": 1,
            "ticks": 25662,
            "time": 37.825988484375,
            "value": 0.031496062992125984
          },
          {
            "number": 1,
            "ticks": 25666,
            "time": 37.831884515625006,
            "value": 0.03937007874015748
          },
          {
            "number": 1,
            "ticks": 25672,
            "time": 37.840728562500004,
            "value": 0.047244094488188976
          },
          {
            "number": 1,
            "ticks": 25674,
            "time": 37.843676578125006,
            "value": 0.06299212598425197
          },
          {
            "number": 1,
            "ticks": 25680,
            "time": 37.852520625000004,
            "value": 0.07086614173228346
          },
          {
            "number": 1,
            "ticks": 25684,
            "time": 37.85841665625001,
            "value": 0.07874015748031496
          },
          {
            "number": 1,
            "ticks": 25692,
            "time": 37.87020871875,
            "value": 0.08661417322834646
          },
          {
            "number": 1,
            "ticks": 25700,
            "time": 37.88200078125,
            "value": 0.09448818897637795
          },
          {
            "number": 1,
            "ticks": 25706,
            "time": 37.890844828125,
            "value": 0.10236220472440945
          },
          {
            "number": 1,
            "ticks": 25708,
            "time": 37.893792843750006,
            "value": 0.11811023622047244
          },
          {
            "number": 1,
            "ticks": 25714,
            "time": 37.902636890625004,
            "value": 0.12598425196850394
          },
          {
            "number": 1,
            "ticks": 25720,
            "time": 37.91148093750001,
            "value": 0.14173228346456693
          },
          {
            "number": 1,
            "ticks": 25726,
            "time": 37.92032498437501,
            "value": 0.15748031496062992
          },
          {
            "number": 1,
            "ticks": 25728,
            "time": 37.923273,
            "value": 0.16535433070866143
          },
          {
            "number": 1,
            "ticks": 25732,
            "time": 37.929169031250005,
            "value": 0.1732283464566929
          },
          {
            "number": 1,
            "ticks": 25738,
            "time": 37.938013078125,
            "value": 0.18110236220472442
          },
          {
            "number": 1,
            "ticks": 25742,
            "time": 37.943909109375,
            "value": 0.2047244094488189
          },
          {
            "number": 1,
            "ticks": 25748,
            "time": 37.95275315625,
            "value": 0.2125984251968504
          },
          {
            "number": 1,
            "ticks": 25756,
            "time": 37.964545218750004,
            "value": 0.2283464566929134
          },
          {
            "number": 1,
            "ticks": 25758,
            "time": 37.967493234375006,
            "value": 0.2440944881889764
          },
          {
            "number": 1,
            "ticks": 25764,
            "time": 37.976337281250004,
            "value": 0.25984251968503935
          },
          {
            "number": 1,
            "ticks": 25768,
            "time": 37.98223331250001,
            "value": 0.2677165354330709
          },
          {
            "number": 1,
            "ticks": 25772,
            "time": 37.98812934375,
            "value": 0.2755905511811024
          },
          {
            "number": 1,
            "ticks": 25778,
            "time": 37.996973390625,
            "value": 0.29133858267716534
          },
          {
            "number": 1,
            "ticks": 25784,
            "time": 38.0058174375,
            "value": 0.2992125984251969
          },
          {
            "number": 1,
            "ticks": 25786,
            "time": 38.00876545312501,
            "value": 0.30708661417322836
          },
          {
            "number": 1,
            "ticks": 25790,
            "time": 38.014661484375,
            "value": 0.31496062992125984
          },
          {
            "number": 1,
            "ticks": 25800,
            "time": 38.029401562500006,
            "value": 0.3228346456692913
          },
          {
            "number": 1,
            "ticks": 25804,
            "time": 38.03529759375001,
            "value": 0.33070866141732286
          },
          {
            "number": 1,
            "ticks": 25814,
            "time": 38.050037671875,
            "value": 0.33858267716535434
          },
          {
            "number": 1,
            "ticks": 25846,
            "time": 38.09720592187501,
            "value": 0.33070866141732286
          },
          {
            "number": 1,
            "ticks": 25856,
            "time": 38.111946,
            "value": 0.3228346456692913
          },
          {
            "number": 1,
            "ticks": 25860,
            "time": 38.11784203125001,
            "value": 0.31496062992125984
          },
          {
            "number": 1,
            "ticks": 25864,
            "time": 38.1237380625,
            "value": 0.30708661417322836
          },
          {
            "number": 1,
            "ticks": 25868,
            "time": 38.12963409375,
            "value": 0.29133858267716534
          },
          {
            "number": 1,
            "ticks": 25874,
            "time": 38.138478140625004,
            "value": 0.2755905511811024
          },
          {
            "number": 1,
            "ticks": 25876,
            "time": 38.141426156250006,
            "value": 0.2677165354330709
          },
          {
            "number": 1,
            "ticks": 25882,
            "time": 38.150270203125004,
            "value": 0.25196850393700787
          },
          {
            "number": 1,
            "ticks": 25886,
            "time": 38.156166234375,
            "value": 0.2440944881889764
          },
          {
            "number": 1,
            "ticks": 25890,
            "time": 38.162062265625,
            "value": 0.2283464566929134
          },
          {
            "number": 1,
            "ticks": 25894,
            "time": 38.16795829687501,
            "value": 0.2204724409448819
          },
          {
            "number": 1,
            "ticks": 25896,
            "time": 38.1709063125,
            "value": 0.2047244094488189
          },
          {
            "number": 1,
            "ticks": 25904,
            "time": 38.182698375,
            "value": 0.1889763779527559
          },
          {
            "number": 1,
            "ticks": 25910,
            "time": 38.191542421875,
            "value": 0.15748031496062992
          },
          {
            "number": 1,
            "ticks": 25914,
            "time": 38.197438453125,
            "value": 0.13385826771653545
          },
          {
            "number": 1,
            "ticks": 25918,
            "time": 38.203334484375006,
            "value": 0.11811023622047244
          },
          {
            "number": 1,
            "ticks": 25922,
            "time": 38.209230515625,
            "value": 0.09448818897637795
          },
          {
            "number": 1,
            "ticks": 25926,
            "time": 38.215126546875005,
            "value": 0.07086614173228346
          },
          {
            "number": 1,
            "ticks": 25930,
            "time": 38.22102257812501,
            "value": 0.047244094488188976
          },
          {
            "number": 1,
            "ticks": 25932,
            "time": 38.22397059375,
            "value": 0.023622047244094488
          },
          {
            "number": 1,
            "ticks": 25938,
            "time": 38.232814640625,
            "value": 0.007874015748031496
          },
          {
            "number": 1,
            "ticks": 25956,
            "time": 38.25934678125,
            "value": 0
          },
          {
            "number": 1,
            "ticks": 27710,
            "time": 40.844756484375004,
            "value": 0.007874015748031496
          },
          {
            "number": 1,
            "ticks": 27730,
            "time": 40.87423664062501,
            "value": 0.015748031496062992
          },
          {
            "number": 1,
            "ticks": 27732,
            "time": 40.87718465625,
            "value": 0.023622047244094488
          },
          {
            "number": 1,
            "ticks": 27740,
            "time": 40.88897671875,
            "value": 0.047244094488188976
          },
          {
            "number": 1,
            "ticks": 27744,
            "time": 40.894872750000005,
            "value": 0.06299212598425197
          },
          {
            "number": 1,
            "ticks": 27748,
            "time": 40.90076878125001,
            "value": 0.07086614173228346
          },
          {
            "number": 1,
            "ticks": 27752,
            "time": 40.906664812500004,
            "value": 0.08661417322834646
          },
          {
            "number": 1,
            "ticks": 27754,
            "time": 40.909612828125006,
            "value": 0.09448818897637795
          },
          {
            "number": 1,
            "ticks": 27760,
            "time": 40.918456875000004,
            "value": 0.10236220472440945
          },
          {
            "number": 1,
            "ticks": 27762,
            "time": 40.921404890625006,
            "value": 0.11811023622047244
          },
          {
            "number": 1,
            "ticks": 27764,
            "time": 40.92435290625,
            "value": 0.12598425196850394
          },
          {
            "number": 1,
            "ticks": 27768,
            "time": 40.930248937500004,
            "value": 0.13385826771653545
          },
          {
            "number": 1,
            "ticks": 27772,
            "time": 40.93614496875001,
            "value": 0.14960629921259844
          },
          {
            "number": 1,
            "ticks": 27776,
            "time": 40.942041,
            "value": 0.15748031496062992
          },
          {
            "number": 1,
            "ticks": 27780,
            "time": 40.94793703125001,
            "value": 0.16535433070866143
          },
          {
            "number": 1,
            "ticks": 27784,
            "time": 40.9538330625,
            "value": 0.1732283464566929
          },
          {
            "number": 1,
            "ticks": 27788,
            "time": 40.95972909375,
            "value": 0.1889763779527559
          },
          {
            "number": 1,
            "ticks": 27792,
            "time": 40.965625125,
            "value": 0.1968503937007874
          },
          {
            "number": 1,
            "ticks": 27794,
            "time": 40.968573140625004,
            "value": 0.2047244094488189
          },
          {
            "number": 1,
            "ticks": 27798,
            "time": 40.974469171875,
            "value": 0.2125984251968504
          },
          {
            "number": 1,
            "ticks": 27802,
            "time": 40.980365203125004,
            "value": 0.2283464566929134
          },
          {
            "number": 1,
            "ticks": 27806,
            "time": 40.986261234375,
            "value": 0.23622047244094488
          },
          {
            "number": 1,
            "ticks": 27812,
            "time": 40.99510528125,
            "value": 0.25196850393700787
          },
          {
            "number": 1,
            "ticks": 27818,
            "time": 41.003949328125,
            "value": 0.25984251968503935
          },
          {
            "number": 1,
            "ticks": 27820,
            "time": 41.006897343750005,
            "value": 0.2677165354330709
          },
          {
            "number": 1,
            "ticks": 27824,
            "time": 41.012793375,
            "value": 0.2755905511811024
          },
          {
            "number": 1,
            "ticks": 27834,
            "time": 41.027533453125,
            "value": 0.28346456692913385
          },
          {
            "number": 1,
            "ticks": 27852,
            "time": 41.05406559375,
            "value": 0.2755905511811024
          },
          {
            "number": 1,
            "ticks": 27860,
            "time": 41.06585765625,
            "value": 0.2677165354330709
          },
          {
            "number": 1,
            "ticks": 27862,
            "time": 41.068805671875005,
            "value": 0.25984251968503935
          },
          {
            "number": 1,
            "ticks": 27868,
            "time": 41.07764971875001,
            "value": 0.25196850393700787
          },
          {
            "number": 1,
            "ticks": 27874,
            "time": 41.08649376562501,
            "value": 0.23622047244094488
          },
          {
            "number": 1,
            "ticks": 27878,
            "time": 41.092389796875004,
            "value": 0.2283464566929134
          },
          {
            "number": 1,
            "ticks": 27882,
            "time": 41.098285828125,
            "value": 0.2204724409448819
          },
          {
            "number": 1,
            "ticks": 27888,
            "time": 41.107129875000005,
            "value": 0.1968503937007874
          },
          {
            "number": 1,
            "ticks": 27894,
            "time": 41.115973921875,
            "value": 0.18110236220472442
          },
          {
            "number": 1,
            "ticks": 27896,
            "time": 41.1189219375,
            "value": 0.1732283464566929
          },
          {
            "number": 1,
            "ticks": 27904,
            "time": 41.130714000000005,
            "value": 0.14960629921259844
          },
          {
            "number": 1,
            "ticks": 27910,
            "time": 41.13955804687501,
            "value": 0.13385826771653545
          },
          {
            "number": 1,
            "ticks": 27912,
            "time": 41.142506062500004,
            "value": 0.11023622047244094
          },
          {
            "number": 1,
            "ticks": 27918,
            "time": 41.151350109375,
            "value": 0.09448818897637795
          },
          {
            "number": 1,
            "ticks": 27922,
            "time": 41.157246140625006,
            "value": 0.07086614173228346
          },
          {
            "number": 1,
            "ticks": 27924,
            "time": 41.16019415625,
            "value": 0.05511811023622047
          },
          {
            "number": 1,
            "ticks": 27926,
            "time": 41.163142171875,
            "value": 0.023622047244094488
          },
          {
            "number": 1,
            "ticks": 27932,
            "time": 41.17198621875,
            "value": 0.007874015748031496
          },
          {
            "number": 1,
            "ticks": 27950,
            "time": 41.198518359375,
            "value": 0
          },
          {
            "number": 1,
            "ticks": 28752,
            "time": 42.380672625,
            "value": 0.007874015748031496
          },
          {
            "number": 1,
            "ticks": 28782,
            "time": 42.42489285937501,
            "value": 0.015748031496062992
          },
          {
            "number": 1,
            "ticks": 28786,
            "time": 42.43078889062501,
            "value": 0.023622047244094488
          },
          {
            "number": 1,
            "ticks": 28790,
            "time": 42.436684921875,
            "value": 0.03937007874015748
          },
          {
            "number": 1,
            "ticks": 28794,
            "time": 42.442580953125,
            "value": 0.047244094488188976
          },
          {
            "number": 1,
            "ticks": 28796,
            "time": 42.445528968750004,
            "value": 0.06299212598425197
          },
          {
            "number": 1,
            "ticks": 28800,
            "time": 42.451425,
            "value": 0.07086614173228346
          },
          {
            "number": 1,
            "ticks": 28808,
            "time": 42.4632170625,
            "value": 0.08661417322834646
          },
          {
            "number": 1,
            "ticks": 28812,
            "time": 42.46911309375,
            "value": 0.10236220472440945
          },
          {
            "number": 1,
            "ticks": 28816,
            "time": 42.47500912500001,
            "value": 0.11023622047244094
          },
          {
            "number": 1,
            "ticks": 28820,
            "time": 42.48090515625,
            "value": 0.11811023622047244
          },
          {
            "number": 1,
            "ticks": 28826,
            "time": 42.489749203125,
            "value": 0.14173228346456693
          },
          {
            "number": 1,
            "ticks": 28832,
            "time": 42.49859325,
            "value": 0.14960629921259844
          },
          {
            "number": 1,
            "ticks": 28838,
            "time": 42.507437296875004,
            "value": 0.15748031496062992
          },
          {
            "number": 1,
            "ticks": 28840,
            "time": 42.510385312500006,
            "value": 0.16535433070866143
          },
          {
            "number": 1,
            "ticks": 28848,
            "time": 42.522177375000005,
            "value": 0.1732283464566929
          },
          {
            "number": 1,
            "ticks": 28852,
            "time": 42.52807340625001,
            "value": 0.1889763779527559
          },
          {
            "number": 1,
            "ticks": 28856,
            "time": 42.5339694375,
            "value": 0.1968503937007874
          },
          {
            "number": 1,
            "ticks": 28858,
            "time": 42.53691745312501,
            "value": 0.2047244094488189
          },
          {
            "number": 1,
            "ticks": 28866,
            "time": 42.548709515625006,
            "value": 0.2125984251968504
          },
          {
            "number": 1,
            "ticks": 28870,
            "time": 42.55460554687501,
            "value": 0.2204724409448819
          },
          {
            "number": 1,
            "ticks": 28876,
            "time": 42.56344959375001,
            "value": 0.23622047244094488
          },
          {
            "number": 1,
            "ticks": 28878,
            "time": 42.566397609375,
            "value": 0.2440944881889764
          },
          {
            "number": 1,
            "ticks": 28884,
            "time": 42.57524165625,
            "value": 0.25196850393700787
          },
          {
            "number": 1,
            "ticks": 28890,
            "time": 42.584085703125005,
            "value": 0.2755905511811024
          },
          {
            "number": 1,
            "ticks": 28892,
            "time": 42.58703371875,
            "value": 0.28346456692913385
          },
          {
            "number": 1,
            "ticks": 28898,
            "time": 42.595877765625,
            "value": 0.2992125984251969
          },
          {
            "number": 1,
            "ticks": 28902,
            "time": 42.601773796875,
            "value": 0.30708661417322836
          },
          {
            "number": 1,
            "ticks": 28910,
            "time": 42.613565859375,
            "value": 0.31496062992125984
          },
          {
            "number": 1,
            "ticks": 28916,
            "time": 42.62240990625,
            "value": 0.3228346456692913
          },
          {
            "number": 1,
            "ticks": 28924,
            "time": 42.634201968750006,
            "value": 0.33070866141732286
          },
          {
            "number": 1,
            "ticks": 28984,
            "time": 42.72264243750001,
            "value": 0.3228346456692913
          },
          {
            "number": 1,
            "ticks": 28990,
            "time": 42.731486484375004,
            "value": 0.31496062992125984
          },
          {
            "number": 1,
            "ticks": 28994,
            "time": 42.737382515625,
            "value": 0.30708661417322836
          },
          {
            "number": 1,
            "ticks": 28998,
            "time": 42.743278546875004,
            "value": 0.29133858267716534
          },
          {
            "number": 1,
            "ticks": 29002,
            "time": 42.74917457812501,
            "value": 0.28346456692913385
          },
          {
            "number": 1,
            "ticks": 29006,
            "time": 42.755070609375004,
            "value": 0.2677165354330709
          },
          {
            "number": 1,
            "ticks": 29010,
            "time": 42.76096664062501,
            "value": 0.25196850393700787
          },
          {
            "number": 1,
            "ticks": 29012,
            "time": 42.76391465625,
            "value": 0.23622047244094488
          },
          {
            "number": 1,
            "ticks": 29016,
            "time": 42.769810687500005,
            "value": 0.2204724409448819
          },
          {
            "number": 1,
            "ticks": 29022,
            "time": 42.778654734375,
            "value": 0.1968503937007874
          },
          {
            "number": 1,
            "ticks": 29026,
            "time": 42.784550765625006,
            "value": 0.1732283464566929
          },
          {
            "number": 1,
            "ticks": 29028,
            "time": 42.78749878125,
            "value": 0.15748031496062992
          },
          {
            "number": 1,
            "ticks": 29032,
            "time": 42.793394812500004,
            "value": 0.13385826771653545
          },
          {
            "number": 1,
            "ticks": 29036,
            "time": 42.79929084375,
            "value": 0.11811023622047244
          },
          {
            "number": 1,
            "ticks": 29040,
            "time": 42.805186875000004,
            "value": 0.10236220472440945
          },
          {
            "number": 1,
            "ticks": 29044,
            "time": 42.81108290625001,
            "value": 0.07086614173228346
          },
          {
            "number": 1,
            "ticks": 29048,
            "time": 42.816978937500004,
            "value": 0.06299212598425197
          },
          {
            "number": 1,
            "ticks": 29052,
            "time": 42.82287496875001,
            "value": 0.03937007874015748
          },
          {
            "number": 1,
            "ticks": 29056,
            "time": 42.828771,
            "value": 0.007874015748031496
          },
          {
            "number": 1,
            "ticks": 29080,
            "time": 42.86414718750001,
            "value": 0
          },
          {
            "number": 1,
            "ticks": 30734,
            "time": 45.302156109375,
            "value": 0.007874015748031496
          },
          {
            "number": 1,
            "ticks": 30752,
            "time": 45.32868825,
            "value": 0.015748031496062992
          },
          {
            "number": 1,
            "ticks": 30758,
            "time": 45.337532296875004,
            "value": 0.023622047244094488
          },
          {
            "number": 1,
            "ticks": 30764,
            "time": 45.34637634375,
            "value": 0.047244094488188976
          },
          {
            "number": 1,
            "ticks": 30766,
            "time": 45.349324359375004,
            "value": 0.06299212598425197
          },
          {
            "number": 1,
            "ticks": 30770,
            "time": 45.355220390625,
            "value": 0.07874015748031496
          },
          {
            "number": 1,
            "ticks": 30774,
            "time": 45.361116421875,
            "value": 0.08661417322834646
          },
          {
            "number": 1,
            "ticks": 30778,
            "time": 45.36701245312501,
            "value": 0.10236220472440945
          },
          {
            "number": 1,
            "ticks": 30780,
            "time": 45.36996046875,
            "value": 0.11023622047244094
          },
          {
            "number": 1,
            "ticks": 30784,
            "time": 45.375856500000005,
            "value": 0.12598425196850394
          },
          {
            "number": 1,
            "ticks": 30788,
            "time": 45.38175253125,
            "value": 0.13385826771653545
          },
          {
            "number": 1,
            "ticks": 30794,
            "time": 45.390596578125,
            "value": 0.14960629921259844
          },
          {
            "number": 1,
            "ticks": 30800,
            "time": 45.399440625000004,
            "value": 0.1732283464566929
          },
          {
            "number": 1,
            "ticks": 30806,
            "time": 45.408284671875,
            "value": 0.18110236220472442
          },
          {
            "number": 1,
            "ticks": 30810,
            "time": 45.414180703125005,
            "value": 0.1968503937007874
          },
          {
            "number": 1,
            "ticks": 30816,
            "time": 45.42302475,
            "value": 0.2125984251968504
          },
          {
            "number": 1,
            "ticks": 30818,
            "time": 45.425972765625,
            "value": 0.2204724409448819
          },
          {
            "number": 1,
            "ticks": 30822,
            "time": 45.431868796875,
            "value": 0.23622047244094488
          },
          {
            "number": 1,
            "ticks": 30828,
            "time": 45.440712843750006,
            "value": 0.25196850393700787
          },
          {
            "number": 1,
            "ticks": 30834,
            "time": 45.449556890625004,
            "value": 0.25984251968503935
          },
          {
            "number": 1,
            "ticks": 30840,
            "time": 45.4584009375,
            "value": 0.2677165354330709
          },
          {
            "number": 1,
            "ticks": 30842,
            "time": 45.461348953125004,
            "value": 0.28346456692913385
          },
          {
            "number": 1,
            "ticks": 30846,
            "time": 45.46724498437501,
            "value": 0.29133858267716534
          },
          {
            "number": 1,
            "ticks": 30850,
            "time": 45.473141015625,
            "value": 0.2992125984251969
          },
          {
            "number": 1,
            "ticks": 30854,
            "time": 45.479037046875,
            "value": 0.30708661417322836
          },
          {
            "number": 1,
            "ticks": 30858,
            "time": 45.484933078125,
            "value": 0.31496062992125984
          },
          {
            "number": 1,
            "ticks": 30862,
            "time": 45.49082910937501,
            "value": 0.3228346456692913
          },
          {
            "number": 1,
            "ticks": 30870,
            "time": 45.502621171875006,
            "value": 0.33070866141732286
          },
          {
            "number": 1,
            "ticks": 30874,
            "time": 45.50851720312501,
            "value": 0.33858267716535434
          },
          {
            "number": 1,
            "ticks": 30878,
            "time": 45.514413234375,
            "value": 0.3464566929133858
          },
          {
            "number": 1,
            "ticks": 30892,
            "time": 45.53504934375,
            "value": 0.36220472440944884
          },
          {
            "number": 1,
            "ticks": 30908,
            "time": 45.55863346875,
            "value": 0.3700787401574803
          },
          {
            "number": 1,
            "ticks": 30926,
            "time": 45.585165609375004,
            "value": 0.36220472440944884
          },
          {
            "number": 1,
            "ticks": 30936,
            "time": 45.599905687500005,
            "value": 0.3543307086614173
          },
          {
            "number": 1,
            "ticks": 30944,
            "time": 45.611697750000005,
            "value": 0.33858267716535434
          },
          {
            "number": 1,
            "ticks": 30946,
            "time": 45.614645765625006,
            "value": 0.33070866141732286
          },
          {
            "number": 1,
            "ticks": 30950,
            "time": 45.620541796875,
            "value": 0.3228346456692913
          },
          {
            "number": 1,
            "ticks": 30954,
            "time": 45.626437828125006,
            "value": 0.30708661417322836
          },
          {
            "number": 1,
            "ticks": 30956,
            "time": 45.62938584375,
            "value": 0.29133858267716534
          },
          {
            "number": 1,
            "ticks": 30962,
            "time": 45.638229890625,
            "value": 0.2755905511811024
          },
          {
            "number": 1,
            "ticks": 30966,
            "time": 45.644125921875,
            "value": 0.25196850393700787
          },
          {
            "number": 1,
            "ticks": 30968,
            "time": 45.647073937500004,
            "value": 0.23622047244094488
          },
          {
            "number": 1,
            "ticks": 30972,
            "time": 45.65296996875001,
            "value": 0.2125984251968504
          },
          {
            "number": 1,
            "ticks": 30976,
            "time": 45.658866,
            "value": 0.1968503937007874
          },
          {
            "number": 1,
            "ticks": 30978,
            "time": 45.661814015625005,
            "value": 0.1732283464566929
          },
          {
            "number": 1,
            "ticks": 30990,
            "time": 45.679502109375,
            "value": 0.07874015748031496
          },
          {
            "number": 1,
            "ticks": 30998,
            "time": 45.691294171875,
            "value": 0.05511811023622047
          },
          {
            "number": 1,
            "ticks": 31004,
            "time": 45.70013821875,
            "value": 0.007874015748031496
          },
          {
            "number": 1,
            "ticks": 31018,
            "time": 45.720774328125,
            "value": 0
          },
          {
            "number": 1,
            "ticks": 31706,
            "time": 46.734891703125,
            "value": 0.007874015748031496
          },
          {
            "number": 1,
            "ticks": 31736,
            "time": 46.7791119375,
            "value": 0.015748031496062992
          },
          {
            "number": 1,
            "ticks": 31744,
            "time": 46.790904000000005,
            "value": 0.023622047244094488
          },
          {
            "number": 1,
            "ticks": 31746,
            "time": 46.793852015625006,
            "value": 0.031496062992125984
          },
          {
            "number": 1,
            "ticks": 31750,
            "time": 46.79974804687501,
            "value": 0.03937007874015748
          },
          {
            "number": 1,
            "ticks": 31756,
            "time": 46.80859209375001,
            "value": 0.047244094488188976
          },
          {
            "number": 1,
            "ticks": 31758,
            "time": 46.811540109375,
            "value": 0.06299212598425197
          },
          {
            "number": 1,
            "ticks": 31764,
            "time": 46.82038415625001,
            "value": 0.07086614173228346
          },
          {
            "number": 1,
            "ticks": 31766,
            "time": 46.823332171875,
            "value": 0.07874015748031496
          },
          {
            "number": 1,
            "ticks": 31770,
            "time": 46.829228203125005,
            "value": 0.09448818897637795
          },
          {
            "number": 1,
            "ticks": 31774,
            "time": 46.83512423437501,
            "value": 0.10236220472440945
          },
          {
            "number": 1,
            "ticks": 31778,
            "time": 46.841020265625005,
            "value": 0.11023622047244094
          },
          {
            "number": 1,
            "ticks": 31782,
            "time": 46.846916296875,
            "value": 0.12598425196850394
          },
          {
            "number": 1,
            "ticks": 31786,
            "time": 46.852812328125005,
            "value": 0.14173228346456693
          },
          {
            "number": 1,
            "ticks": 31790,
            "time": 46.858708359375,
            "value": 0.14960629921259844
          },
          {
            "number": 1,
            "ticks": 31794,
            "time": 46.864604390625004,
            "value": 0.15748031496062992
          },
          {
            "number": 1,
            "ticks": 31798,
            "time": 46.87050042187501,
            "value": 0.16535433070866143
          },
          {
            "number": 1,
            "ticks": 31802,
            "time": 46.876396453125004,
            "value": 0.1732283464566929
          },
          {
            "number": 1,
            "ticks": 31806,
            "time": 46.88229248437501,
            "value": 0.18110236220472442
          },
          {
            "number": 1,
            "ticks": 31810,
            "time": 46.888188515625004,
            "value": 0.1968503937007874
          },
          {
            "number": 1,
            "ticks": 31814,
            "time": 46.894084546875,
            "value": 0.2047244094488189
          },
          {
            "number": 1,
            "ticks": 31818,
            "time": 46.899980578125,
            "value": 0.2125984251968504
          },
          {
            "number": 1,
            "ticks": 31824,
            "time": 46.908824625,
            "value": 0.2204724409448819
          },
          {
            "number": 1,
            "ticks": 31828,
            "time": 46.914720656250005,
            "value": 0.2283464566929134
          },
          {
            "number": 1,
            "ticks": 31834,
            "time": 46.92356470312501,
            "value": 0.23622047244094488
          },
          {
            "number": 1,
            "ticks": 31838,
            "time": 46.929460734375,
            "value": 0.2440944881889764
          },
          {
            "number": 1,
            "ticks": 31846,
            "time": 46.941252796875006,
            "value": 0.25984251968503935
          },
          {
            "number": 1,
            "ticks": 31850,
            "time": 46.947148828125,
            "value": 0.2677165354330709
          },
          {
            "number": 1,
            "ticks": 31852,
            "time": 46.95009684375,
            "value": 0.2755905511811024
          },
          {
            "number": 1,
            "ticks": 31860,
            "time": 46.96188890625,
            "value": 0.29133858267716534
          },
          {
            "number": 1,
            "ticks": 31866,
            "time": 46.970732953125,
            "value": 0.2992125984251969
          },
          {
            "number": 1,
            "ticks": 31874,
            "time": 46.982525015625,
            "value": 0.30708661417322836
          },
          {
            "number": 1,
            "ticks": 31878,
            "time": 46.988421046875004,
            "value": 0.31496062992125984
          },
          {
            "number": 1,
            "ticks": 31894,
            "time": 47.012005171875,
            "value": 0.3228346456692913
          },
          {
            "number": 1,
            "ticks": 31922,
            "time": 47.053277390625,
            "value": 0.31496062992125984
          },
          {
            "number": 1,
            "ticks": 31932,
            "time": 47.06801746875001,
            "value": 0.29133858267716534
          },
          {
            "number": 1,
            "ticks": 31938,
            "time": 47.076861515625005,
            "value": 0.28346456692913385
          },
          {
            "number": 1,
            "ticks": 31940,
            "time": 47.07980953125,
            "value": 0.2755905511811024
          },
          {
            "number": 1,
            "ticks": 31948,
            "time": 47.091601593750006,
            "value": 0.2440944881889764
          },
          {
            "number": 1,
            "ticks": 31950,
            "time": 47.094549609375,
            "value": 0.23622047244094488
          },
          {
            "number": 1,
            "ticks": 31956,
            "time": 47.103393656250006,
            "value": 0.2204724409448819
          },
          {
            "number": 1,
            "ticks": 31958,
            "time": 47.106341671875,
            "value": 0.2047244094488189
          },
          {
            "number": 1,
            "ticks": 31962,
            "time": 47.112237703125004,
            "value": 0.1889763779527559
          },
          {
            "number": 1,
            "ticks": 31968,
            "time": 47.12108175,
            "value": 0.1732283464566929
          },
          {
            "number": 1,
            "ticks": 31970,
            "time": 47.124029765625004,
            "value": 0.15748031496062992
          },
          {
            "number": 1,
            "ticks": 31976,
            "time": 47.1328738125,
            "value": 0.13385826771653545
          },
          {
            "number": 1,
            "ticks": 31980,
            "time": 47.138769843750005,
            "value": 0.09448818897637795
          },
          {
            "number": 1,
            "ticks": 31984,
            "time": 47.14466587500001,
            "value": 0.07874015748031496
          },
          {
            "number": 1,
            "ticks": 31992,
            "time": 47.1564579375,
            "value": 0.03937007874015748
          },
          {
            "number": 1,
            "ticks": 31998,
            "time": 47.165301984375006,
            "value": 0.007874015748031496
          },
          {
            "number": 1,
            "ticks": 32018,
            "time": 47.194782140625,
            "value": 0
          },
          {
            "number": 1,
            "ticks": 32122,
            "time": 47.348078953125004,
            "value": 0.007874015748031496
          },
          {
            "number": 1,
            "ticks": 32144,
            "time": 47.380507125,
            "value": 0.015748031496062992
          },
          {
            "number": 1,
            "ticks": 32146,
            "time": 47.38345514062501,
            "value": 0.031496062992125984
          },
          {
            "number": 1,
            "ticks": 32150,
            "time": 47.389351171875,
            "value": 0.047244094488188976
          },
          {
            "number": 1,
            "ticks": 32152,
            "time": 47.39229918750001,
            "value": 0.06299212598425197
          },
          {
            "number": 1,
            "ticks": 32156,
            "time": 47.398195218750004,
            "value": 0.07874015748031496
          },
          {
            "number": 1,
            "ticks": 32160,
            "time": 47.40409125000001,
            "value": 0.08661417322834646
          },
          {
            "number": 1,
            "ticks": 32164,
            "time": 47.409987281250004,
            "value": 0.10236220472440945
          },
          {
            "number": 1,
            "ticks": 32168,
            "time": 47.4158833125,
            "value": 0.11811023622047244
          },
          {
            "number": 1,
            "ticks": 32172,
            "time": 47.42177934375,
            "value": 0.13385826771653545
          },
          {
            "number": 1,
            "ticks": 32176,
            "time": 47.42767537500001,
            "value": 0.14173228346456693
          },
          {
            "number": 1,
            "ticks": 32180,
            "time": 47.43357140625,
            "value": 0.14960629921259844
          },
          {
            "number": 1,
            "ticks": 32184,
            "time": 47.43946743750001,
            "value": 0.15748031496062992
          },
          {
            "number": 1,
            "ticks": 32188,
            "time": 47.44536346875001,
            "value": 0.16535433070866143
          },
          {
            "number": 1,
            "ticks": 32192,
            "time": 47.4512595,
            "value": 0.1732283464566929
          },
          {
            "number": 1,
            "ticks": 32200,
            "time": 47.463051562500006,
            "value": 0.18110236220472442
          },
          {
            "number": 1,
            "ticks": 32202,
            "time": 47.46599957812501,
            "value": 0.1889763779527559
          },
          {
            "number": 1,
            "ticks": 32204,
            "time": 47.46894759375,
            "value": 0.1968503937007874
          },
          {
            "number": 1,
            "ticks": 32210,
            "time": 47.477791640625,
            "value": 0.2047244094488189
          },
          {
            "number": 1,
            "ticks": 32214,
            "time": 47.483687671875,
            "value": 0.2204724409448819
          },
          {
            "number": 1,
            "ticks": 32220,
            "time": 47.49253171875,
            "value": 0.2283464566929134
          },
          {
            "number": 1,
            "ticks": 32224,
            "time": 47.498427750000005,
            "value": 0.23622047244094488
          },
          {
            "number": 1,
            "ticks": 32230,
            "time": 47.50727179687501,
            "value": 0.2440944881889764
          },
          {
            "number": 1,
            "ticks": 32236,
            "time": 47.51611584375001,
            "value": 0.25984251968503935
          },
          {
            "number": 1,
            "ticks": 32240,
            "time": 47.522011875000004,
            "value": 0.2677165354330709
          },
          {
            "number": 1,
            "ticks": 32248,
            "time": 47.533803937500004,
            "value": 0.2755905511811024
          },
          {
            "number": 1,
            "ticks": 32252,
            "time": 47.53969996875,
            "value": 0.28346456692913385
          },
          {
            "number": 1,
            "ticks": 32260,
            "time": 47.55149203125001,
            "value": 0.29133858267716534
          },
          {
            "number": 1,
            "ticks": 32268,
            "time": 47.563284093750006,
            "value": 0.2992125984251969
          },
          {
            "number": 1,
            "ticks": 32274,
            "time": 47.572128140625004,
            "value": 0.30708661417322836
          },
          {
            "number": 1,
            "ticks": 32284,
            "time": 47.586868218750006,
            "value": 0.31496062992125984
          },
          {
            "number": 1,
            "ticks": 32290,
            "time": 47.595712265625004,
            "value": 0.3228346456692913
          },
          {
            "number": 1,
            "ticks": 32298,
            "time": 47.607504328125,
            "value": 0.33070866141732286
          },
          {
            "number": 1,
            "ticks": 32350,
            "time": 47.684152734375004,
            "value": 0.3228346456692913
          },
          {
            "number": 1,
            "ticks": 32356,
            "time": 47.69299678125001,
            "value": 0.31496062992125984
          },
          {
            "number": 1,
            "ticks": 32360,
            "time": 47.6988928125,
            "value": 0.30708661417322836
          },
          {
            "number": 1,
            "ticks": 32366,
            "time": 47.707736859375004,
            "value": 0.29133858267716534
          },
          {
            "number": 1,
            "ticks": 32370,
            "time": 47.71363289062501,
            "value": 0.28346456692913385
          },
          {
            "number": 1,
            "ticks": 32376,
            "time": 47.722476937500005,
            "value": 0.2755905511811024
          },
          {
            "number": 1,
            "ticks": 32378,
            "time": 47.725424953125,
            "value": 0.25984251968503935
          },
          {
            "number": 1,
            "ticks": 32384,
            "time": 47.734269000000005,
            "value": 0.23622047244094488
          },
          {
            "number": 1,
            "ticks": 32392,
            "time": 47.746061062500004,
            "value": 0.1968503937007874
          },
          {
            "number": 1,
            "ticks": 32396,
            "time": 47.75195709375,
            "value": 0.1889763779527559
          },
          {
            "number": 1,
            "ticks": 32400,
            "time": 47.757853125000004,
            "value": 0.16535433070866143
          },
          {
            "number": 1,
            "ticks": 32406,
            "time": 47.766697171875,
            "value": 0.12598425196850394
          },
          {
            "number": 1,
            "ticks": 32410,
            "time": 47.772593203125005,
            "value": 0.11023622047244094
          },
          {
            "number": 1,
            "ticks": 32414,
            "time": 47.778489234375,
            "value": 0.08661417322834646
          },
          {
            "number": 1,
            "ticks": 32420,
            "time": 47.78733328125,
            "value": 0.06299212598425197
          },
          {
            "number": 1,
            "ticks": 32422,
            "time": 47.79028129687501,
            "value": 0.03937007874015748
          },
          {
            "number": 1,
            "ticks": 32428,
            "time": 47.799125343750006,
            "value": 0.007874015748031496
          },
          {
            "number": 1,
            "ticks": 32446,
            "time": 47.82565748437501,
            "value": 0
          },
          {
            "number": 1,
            "ticks": 33868,
            "time": 49.921696593750006,
            "value": 0.007874015748031496
          },
          {
            "number": 1,
            "ticks": 33888,
            "time": 49.95117675,
            "value": 0.023622047244094488
          },
          {
            "number": 1,
            "ticks": 33890,
            "time": 49.954124765625004,
            "value": 0.031496062992125984
          },
          {
            "number": 1,
            "ticks": 33894,
            "time": 49.96002079687501,
            "value": 0.03937007874015748
          },
          {
            "number": 1,
            "ticks": 33898,
            "time": 49.96591682812501,
            "value": 0.047244094488188976
          },
          {
            "number": 1,
            "ticks": 33902,
            "time": 49.971812859375,
            "value": 0.06299212598425197
          },
          {
            "number": 1,
            "ticks": 33904,
            "time": 49.97476087500001,
            "value": 0.07086614173228346
          },
          {
            "number": 1,
            "ticks": 33910,
            "time": 49.983604921875006,
            "value": 0.07874015748031496
          },
          {
            "number": 1,
            "ticks": 33914,
            "time": 49.989500953125,
            "value": 0.09448818897637795
          },
          {
            "number": 1,
            "ticks": 33918,
            "time": 49.995396984375006,
            "value": 0.10236220472440945
          },
          {
            "number": 1,
            "ticks": 33922,
            "time": 50.00129301562501,
            "value": 0.11023622047244094
          },
          {
            "number": 1,
            "ticks": 33926,
            "time": 50.007189046875,
            "value": 0.12598425196850394
          },
          {
            "number": 1,
            "ticks": 33930,
            "time": 50.013085078125,
            "value": 0.13385826771653545
          },
          {
            "number": 1,
            "ticks": 33934,
            "time": 50.018981109375005,
            "value": 0.14960629921259844
          },
          {
            "number": 1,
            "ticks": 33938,
            "time": 50.024877140625,
            "value": 0.15748031496062992
          },
          {
            "number": 1,
            "ticks": 33942,
            "time": 50.030773171875005,
            "value": 0.16535433070866143
          },
          {
            "number": 1,
            "ticks": 33946,
            "time": 50.03666920312501,
            "value": 0.18110236220472442
          },
          {
            "number": 1,
            "ticks": 33950,
            "time": 50.042565234375004,
            "value": 0.1968503937007874
          },
          {
            "number": 1,
            "ticks": 33952,
            "time": 50.045513250000006,
            "value": 0.2047244094488189
          },
          {
            "number": 1,
            "ticks": 33958,
            "time": 50.054357296875004,
            "value": 0.2125984251968504
          },
          {
            "number": 1,
            "ticks": 33962,
            "time": 50.060253328125,
            "value": 0.2283464566929134
          },
          {
            "number": 1,
            "ticks": 33966,
            "time": 50.066149359375004,
            "value": 0.23622047244094488
          },
          {
            "number": 1,
            "ticks": 33968,
            "time": 50.069097375,
            "value": 0.2440944881889764
          },
          {
            "number": 1,
            "ticks": 33974,
            "time": 50.077941421875,
            "value": 0.25984251968503935
          },
          {
            "number": 1,
            "ticks": 33978,
            "time": 50.08383745312501,
            "value": 0.2677165354330709
          },
          {
            "number": 1,
            "ticks": 33980,
            "time": 50.08678546875,
            "value": 0.2755905511811024
          },
          {
            "number": 1,
            "ticks": 33984,
            "time": 50.092681500000005,
            "value": 0.28346456692913385
          },
          {
            "number": 1,
            "ticks": 33988,
            "time": 50.09857753125001,
            "value": 0.29133858267716534
          },
          {
            "number": 1,
            "ticks": 33996,
            "time": 50.11036959375001,
            "value": 0.2992125984251969
          },
          {
            "number": 1,
            "ticks": 33998,
            "time": 50.113317609375,
            "value": 0.30708661417322836
          },
          {
            "number": 1,
            "ticks": 34006,
            "time": 50.12510967187501,
            "value": 0.31496062992125984
          },
          {
            "number": 1,
            "ticks": 34018,
            "time": 50.142797765625005,
            "value": 0.3228346456692913
          },
          {
            "number": 1,
            "ticks": 34052,
            "time": 50.192914031250005,
            "value": 0.31496062992125984
          },
          {
            "number": 1,
            "ticks": 34058,
            "time": 50.201758078125,
            "value": 0.30708661417322836
          },
          {
            "number": 1,
            "ticks": 34064,
            "time": 50.210602125,
            "value": 0.2992125984251969
          },
          {
            "number": 1,
            "ticks": 34066,
            "time": 50.21355014062501,
            "value": 0.28346456692913385
          },
          {
            "number": 1,
            "ticks": 34070,
            "time": 50.219446171875,
            "value": 0.2755905511811024
          },
          {
            "number": 1,
            "ticks": 34076,
            "time": 50.228290218750004,
            "value": 0.25984251968503935
          },
          {
            "number": 1,
            "ticks": 34078,
            "time": 50.231238234375006,
            "value": 0.25196850393700787
          },
          {
            "number": 1,
            "ticks": 34082,
            "time": 50.237134265625,
            "value": 0.23622047244094488
          },
          {
            "number": 1,
            "ticks": 34086,
            "time": 50.243030296875006,
            "value": 0.2204724409448819
          },
          {
            "number": 1,
            "ticks": 34090,
            "time": 50.24892632812501,
            "value": 0.2047244094488189
          },
          {
            "number": 1,
            "ticks": 34092,
            "time": 50.25187434375,
            "value": 0.1889763779527559
          },
          {
            "number": 1,
            "ticks": 34098,
            "time": 50.260718390625,
            "value": 0.1732283464566929
          },
          {
            "number": 1,
            "ticks": 34100,
            "time": 50.26366640625,
            "value": 0.14960629921259844
          },
          {
            "number": 1,
            "ticks": 34106,
            "time": 50.272510453125,
            "value": 0.13385826771653545
          },
          {
            "number": 1,
            "ticks": 34110,
            "time": 50.278406484375004,
            "value": 0.11023622047244094
          },
          {
            "number": 1,
            "ticks": 34114,
            "time": 50.28430251562501,
            "value": 0.09448818897637795
          },
          {
            "number": 1,
            "ticks": 34118,
            "time": 50.290198546875004,
            "value": 0.07086614173228346
          },
          {
            "number": 1,
            "ticks": 34122,
            "time": 50.29609457812501,
            "value": 0.05511811023622047
          },
          {
            "number": 1,
            "ticks": 34126,
            "time": 50.301990609375004,
            "value": 0.023622047244094488
          },
          {
            "number": 1,
            "ticks": 34130,
            "time": 50.307886640625,
            "value": 0.007874015748031496
          },
          {
            "number": 1,
            "ticks": 34144,
            "time": 50.328522750000005,
            "value": 0
          },
          {
            "number": 1,
            "ticks": 45098,
            "time": 66.474804328125,
            "value": 0.007874015748031496
          },
          {
            "number": 1,
            "ticks": 45234,
            "time": 66.675269390625,
            "value": 0.015748031496062992
          },
          {
            "number": 1,
            "ticks": 45244,
            "time": 66.69000946875,
            "value": 0.023622047244094488
          },
          {
            "number": 1,
            "ticks": 45256,
            "time": 66.7076975625,
            "value": 0.031496062992125984
          },
          {
            "number": 1,
            "ticks": 45266,
            "time": 66.722437640625,
            "value": 0.03937007874015748
          },
          {
            "number": 1,
            "ticks": 45278,
            "time": 66.740125734375,
            "value": 0.047244094488188976
          },
          {
            "number": 1,
            "ticks": 45290,
            "time": 66.75781382812501,
            "value": 0.05511811023622047
          },
          {
            "number": 1,
            "ticks": 45300,
            "time": 66.77255390625001,
            "value": 0.06299212598425197
          },
          {
            "number": 1,
            "ticks": 45312,
            "time": 66.790242,
            "value": 0.07086614173228346
          },
          {
            "number": 1,
            "ticks": 45326,
            "time": 66.810878109375,
            "value": 0.07874015748031496
          },
          {
            "number": 1,
            "ticks": 45338,
            "time": 66.828566203125,
            "value": 0.08661417322834646
          },
          {
            "number": 1,
            "ticks": 45352,
            "time": 66.84920231250001,
            "value": 0.09448818897637795
          },
          {
            "number": 1,
            "ticks": 45362,
            "time": 66.863942390625,
            "value": 0.10236220472440945
          },
          {
            "number": 1,
            "ticks": 45376,
            "time": 66.8845785,
            "value": 0.11023622047244094
          },
          {
            "number": 1,
            "ticks": 45390,
            "time": 66.90521460937501,
            "value": 0.11811023622047244
          },
          {
            "number": 1,
            "ticks": 45400,
            "time": 66.91995468750001,
            "value": 0.12598425196850394
          },
          {
            "number": 1,
            "ticks": 45412,
            "time": 66.93764278125,
            "value": 0.13385826771653545
          },
          {
            "number": 1,
            "ticks": 45426,
            "time": 66.95827889062501,
            "value": 0.14173228346456693
          },
          {
            "number": 1,
            "ticks": 45442,
            "time": 66.98186301562501,
            "value": 0.14960629921259844
          },
          {
            "number": 1,
            "ticks": 45460,
            "time": 67.00839515625,
            "value": 0.15748031496062992
          },
          {
            "number": 1,
            "ticks": 45482,
            "time": 67.040823328125,
            "value": 0.16535433070866143
          },
          {
            "number": 1,
            "ticks": 45580,
            "time": 67.18527609375,
            "value": 0.15748031496062992
          },
          {
            "number": 1,
            "ticks": 45594,
            "time": 67.20591220312501,
            "value": 0.14960629921259844
          },
          {
            "number": 1,
            "ticks": 45604,
            "time": 67.22065228125001,
            "value": 0.14173228346456693
          },
          {
            "number": 1,
            "ticks": 45614,
            "time": 67.235392359375,
            "value": 0.13385826771653545
          },
          {
            "number": 1,
            "ticks": 45620,
            "time": 67.24423640625,
            "value": 0.12598425196850394
          },
          {
            "number": 1,
            "ticks": 45626,
            "time": 67.25308045312501,
            "value": 0.11811023622047244
          },
          {
            "number": 1,
            "ticks": 45634,
            "time": 67.26487251562502,
            "value": 0.11023622047244094
          },
          {
            "number": 1,
            "ticks": 45642,
            "time": 67.27666457812501,
            "value": 0.09448818897637795
          },
          {
            "number": 1,
            "ticks": 45650,
            "time": 67.288456640625,
            "value": 0.08661417322834646
          },
          {
            "number": 1,
            "ticks": 45656,
            "time": 67.2973006875,
            "value": 0.07874015748031496
          },
          {
            "number": 1,
            "ticks": 45660,
            "time": 67.30319671875,
            "value": 0.06299212598425197
          },
          {
            "number": 1,
            "ticks": 45666,
            "time": 67.312040765625,
            "value": 0.05511811023622047
          },
          {
            "number": 1,
            "ticks": 45668,
            "time": 67.31498878125001,
            "value": 0.03937007874015748
          },
          {
            "number": 1,
            "ticks": 45672,
            "time": 67.32088481250001,
            "value": 0.031496062992125984
          },
          {
            "number": 1,
            "ticks": 45674,
            "time": 67.323832828125,
            "value": 0.007874015748031496
          },
          {
            "number": 1,
            "ticks": 45696,
            "time": 67.356261,
            "value": 0
          },
          {
            "number": 1,
            "ticks": 54214,
            "time": 79.91185954687501,
            "value": 0.007874015748031496
          },
          {
            "number": 1,
            "ticks": 54272,
            "time": 79.997352,
            "value": 0.015748031496062992
          },
          {
            "number": 1,
            "ticks": 54280,
            "time": 80.0091440625,
            "value": 0.023622047244094488
          },
          {
            "number": 1,
            "ticks": 54284,
            "time": 80.01504009375002,
            "value": 0.031496062992125984
          },
          {
            "number": 1,
            "ticks": 54288,
            "time": 80.020936125,
            "value": 0.03937007874015748
          },
          {
            "number": 1,
            "ticks": 54292,
            "time": 80.02683215625,
            "value": 0.047244094488188976
          },
          {
            "number": 1,
            "ticks": 54296,
            "time": 80.03272818750001,
            "value": 0.05511811023622047
          },
          {
            "number": 1,
            "ticks": 54298,
            "time": 80.035676203125,
            "value": 0.06299212598425197
          },
          {
            "number": 1,
            "ticks": 54306,
            "time": 80.04746826562501,
            "value": 0.07086614173228346
          },
          {
            "number": 1,
            "ticks": 54310,
            "time": 80.053364296875,
            "value": 0.07874015748031496
          },
          {
            "number": 1,
            "ticks": 54316,
            "time": 80.06220834375,
            "value": 0.08661417322834646
          },
          {
            "number": 1,
            "ticks": 54320,
            "time": 80.06810437500002,
            "value": 0.09448818897637795
          },
          {
            "number": 1,
            "ticks": 54324,
            "time": 80.07400040625001,
            "value": 0.10236220472440945
          },
          {
            "number": 1,
            "ticks": 54326,
            "time": 80.07694842187502,
            "value": 0.11023622047244094
          },
          {
            "number": 1,
            "ticks": 54330,
            "time": 80.082844453125,
            "value": 0.11811023622047244
          },
          {
            "number": 1,
            "ticks": 54336,
            "time": 80.0916885,
            "value": 0.13385826771653545
          },
          {
            "number": 1,
            "ticks": 54338,
            "time": 80.09463651562501,
            "value": 0.14173228346456693
          },
          {
            "number": 1,
            "ticks": 54340,
            "time": 80.09758453125,
            "value": 0.14960629921259844
          },
          {
            "number": 1,
            "ticks": 54346,
            "time": 80.106428578125,
            "value": 0.15748031496062992
          },
          {
            "number": 1,
            "ticks": 54350,
            "time": 80.11232460937501,
            "value": 0.1732283464566929
          },
          {
            "number": 1,
            "ticks": 54352,
            "time": 80.115272625,
            "value": 0.18110236220472442
          },
          {
            "number": 1,
            "ticks": 54358,
            "time": 80.124116671875,
            "value": 0.1968503937007874
          },
          {
            "number": 1,
            "ticks": 54360,
            "time": 80.12706468750001,
            "value": 0.2047244094488189
          },
          {
            "number": 1,
            "ticks": 54364,
            "time": 80.13296071875,
            "value": 0.2125984251968504
          },
          {
            "number": 1,
            "ticks": 54368,
            "time": 80.13885675000002,
            "value": 0.2204724409448819
          },
          {
            "number": 1,
            "ticks": 54372,
            "time": 80.14475278125,
            "value": 0.2283464566929134
          },
          {
            "number": 1,
            "ticks": 54378,
            "time": 80.153596828125,
            "value": 0.2440944881889764
          },
          {
            "number": 1,
            "ticks": 54382,
            "time": 80.159492859375,
            "value": 0.25196850393700787
          },
          {
            "number": 1,
            "ticks": 54384,
            "time": 80.162440875,
            "value": 0.25984251968503935
          },
          {
            "number": 1,
            "ticks": 54390,
            "time": 80.17128492187501,
            "value": 0.2677165354330709
          },
          {
            "number": 1,
            "ticks": 54394,
            "time": 80.177180953125,
            "value": 0.2755905511811024
          },
          {
            "number": 1,
            "ticks": 54400,
            "time": 80.186025,
            "value": 0.28346456692913385
          },
          {
            "number": 1,
            "ticks": 54404,
            "time": 80.19192103125002,
            "value": 0.29133858267716534
          },
          {
            "number": 1,
            "ticks": 54408,
            "time": 80.19781706250001,
            "value": 0.30708661417322836
          },
          {
            "number": 1,
            "ticks": 54414,
            "time": 80.206661109375,
            "value": 0.31496062992125984
          },
          {
            "number": 1,
            "ticks": 54416,
            "time": 80.20960912500001,
            "value": 0.3228346456692913
          },
          {
            "number": 1,
            "ticks": 54418,
            "time": 80.212557140625,
            "value": 0.33070866141732286
          },
          {
            "number": 1,
            "ticks": 54426,
            "time": 80.224349203125,
            "value": 0.33858267716535434
          },
          {
            "number": 1,
            "ticks": 54434,
            "time": 80.23614126562501,
            "value": 0.3464566929133858
          },
          {
            "number": 1,
            "ticks": 54450,
            "time": 80.25972539062501,
            "value": 0.33858267716535434
          },
          {
            "number": 1,
            "ticks": 54458,
            "time": 80.27151745312501,
            "value": 0.3228346456692913
          },
          {
            "number": 1,
            "ticks": 54464,
            "time": 80.28036150000001,
            "value": 0.31496062992125984
          },
          {
            "number": 1,
            "ticks": 54466,
            "time": 80.283309515625,
            "value": 0.2992125984251969
          },
          {
            "number": 1,
            "ticks": 54470,
            "time": 80.28920554687501,
            "value": 0.28346456692913385
          },
          {
            "number": 1,
            "ticks": 54474,
            "time": 80.29510157812501,
            "value": 0.2677165354330709
          },
          {
            "number": 1,
            "ticks": 54478,
            "time": 80.300997609375,
            "value": 0.25196850393700787
          },
          {
            "number": 1,
            "ticks": 54486,
            "time": 80.31278967187501,
            "value": 0.2283464566929134
          },
          {
            "number": 1,
            "ticks": 54488,
            "time": 80.31573768750002,
            "value": 0.2047244094488189
          },
          {
            "number": 1,
            "ticks": 54494,
            "time": 80.32458173437502,
            "value": 0.1968503937007874
          },
          {
            "number": 1,
            "ticks": 54498,
            "time": 80.330477765625,
            "value": 0.18110236220472442
          },
          {
            "number": 1,
            "ticks": 54502,
            "time": 80.33637379687501,
            "value": 0.16535433070866143
          },
          {
            "number": 1,
            "ticks": 54504,
            "time": 80.3393218125,
            "value": 0.14960629921259844
          },
          {
            "number": 1,
            "ticks": 54510,
            "time": 80.348165859375,
            "value": 0.14173228346456693
          },
          {
            "number": 1,
            "ticks": 54512,
            "time": 80.35111387500001,
            "value": 0.12598425196850394
          },
          {
            "number": 1,
            "ticks": 54518,
            "time": 80.35995792187501,
            "value": 0.10236220472440945
          },
          {
            "number": 1,
            "ticks": 54520,
            "time": 80.3629059375,
            "value": 0.09448818897637795
          },
          {
            "number": 1,
            "ticks": 54526,
            "time": 80.371749984375,
            "value": 0.07874015748031496
          },
          {
            "number": 1,
            "ticks": 54528,
            "time": 80.37469800000001,
            "value": 0.06299212598425197
          },
          {
            "number": 1,
            "ticks": 54534,
            "time": 80.38354204687501,
            "value": 0.047244094488188976
          },
          {
            "number": 1,
            "ticks": 54538,
            "time": 80.389438078125,
            "value": 0.031496062992125984
          },
          {
            "number": 1,
            "ticks": 54540,
            "time": 80.39238609375,
            "value": 0.007874015748031496
          },
          {
            "number": 1,
            "ticks": 54564,
            "time": 80.42776228125001,
            "value": 0
          },
          {
            "number": 1,
            "ticks": 56944,
            "time": 83.935900875,
            "value": 0.007874015748031496
          },
          {
            "number": 1,
            "ticks": 57034,
            "time": 84.068561578125,
            "value": 0.015748031496062992
          },
          {
            "number": 1,
            "ticks": 57044,
            "time": 84.08330165625001,
            "value": 0.023622047244094488
          },
          {
            "number": 1,
            "ticks": 57050,
            "time": 84.09214570312501,
            "value": 0.031496062992125984
          },
          {
            "number": 1,
            "ticks": 57060,
            "time": 84.10688578125001,
            "value": 0.03937007874015748
          },
          {
            "number": 1,
            "ticks": 57074,
            "time": 84.12752189062502,
            "value": 0.047244094488188976
          },
          {
            "number": 1,
            "ticks": 57076,
            "time": 84.13046990625,
            "value": 0.05511811023622047
          },
          {
            "number": 1,
            "ticks": 57086,
            "time": 84.14520998437501,
            "value": 0.06299212598425197
          },
          {
            "number": 1,
            "ticks": 57098,
            "time": 84.16289807812501,
            "value": 0.07086614173228346
          },
          {
            "number": 1,
            "ticks": 57104,
            "time": 84.17174212500001,
            "value": 0.07874015748031496
          },
          {
            "number": 1,
            "ticks": 57112,
            "time": 84.1835341875,
            "value": 0.08661417322834646
          },
          {
            "number": 1,
            "ticks": 57118,
            "time": 84.192378234375,
            "value": 0.09448818897637795
          },
          {
            "number": 1,
            "ticks": 57126,
            "time": 84.204170296875,
            "value": 0.10236220472440945
          },
          {
            "number": 1,
            "ticks": 57134,
            "time": 84.21596235937501,
            "value": 0.11023622047244094
          },
          {
            "number": 1,
            "ticks": 57142,
            "time": 84.227754421875,
            "value": 0.11811023622047244
          },
          {
            "number": 1,
            "ticks": 57148,
            "time": 84.23659846875,
            "value": 0.12598425196850394
          },
          {
            "number": 1,
            "ticks": 57152,
            "time": 84.2424945,
            "value": 0.13385826771653545
          },
          {
            "number": 1,
            "ticks": 57162,
            "time": 84.25723457812501,
            "value": 0.14173228346456693
          },
          {
            "number": 1,
            "ticks": 57170,
            "time": 84.26902664062501,
            "value": 0.14960629921259844
          },
          {
            "number": 1,
            "ticks": 57178,
            "time": 84.28081870312501,
            "value": 0.15748031496062992
          },
          {
            "number": 1,
            "ticks": 57184,
            "time": 84.28966275,
            "value": 0.16535433070866143
          },
          {
            "number": 1,
            "ticks": 57192,
            "time": 84.30145481250001,
            "value": 0.1732283464566929
          },
          {
            "number": 1,
            "ticks": 57198,
            "time": 84.31029885937501,
            "value": 0.18110236220472442
          },
          {
            "number": 1,
            "ticks": 57204,
            "time": 84.31914290625001,
            "value": 0.1889763779527559
          },
          {
            "number": 1,
            "ticks": 57212,
            "time": 84.33093496875001,
            "value": 0.1968503937007874
          },
          {
            "number": 1,
            "ticks": 57216,
            "time": 84.336831,
            "value": 0.2047244094488189
          },
          {
            "number": 1,
            "ticks": 57222,
            "time": 84.345675046875,
            "value": 0.2125984251968504
          },
          {
            "number": 1,
            "ticks": 57230,
            "time": 84.35746710937501,
            "value": 0.2204724409448819
          },
          {
            "number": 1,
            "ticks": 57236,
            "time": 84.36631115625,
            "value": 0.2283464566929134
          },
          {
            "number": 1,
            "ticks": 57242,
            "time": 84.37515520312502,
            "value": 0.23622047244094488
          },
          {
            "number": 1,
            "ticks": 57252,
            "time": 84.38989528125,
            "value": 0.2440944881889764
          },
          {
            "number": 1,
            "ticks": 57260,
            "time": 84.40168734375001,
            "value": 0.25196850393700787
          },
          {
            "number": 1,
            "ticks": 57264,
            "time": 84.407583375,
            "value": 0.25984251968503935
          },
          {
            "number": 1,
            "ticks": 57272,
            "time": 84.41937543750001,
            "value": 0.2677165354330709
          },
          {
            "number": 1,
            "ticks": 57278,
            "time": 84.428219484375,
            "value": 0.2755905511811024
          },
          {
            "number": 1,
            "ticks": 57288,
            "time": 84.44295956250001,
            "value": 0.28346456692913385
          },
          {
            "number": 1,
            "ticks": 57296,
            "time": 84.45475162500001,
            "value": 0.29133858267716534
          },
          {
            "number": 1,
            "ticks": 57304,
            "time": 84.4665436875,
            "value": 0.2992125984251969
          },
          {
            "number": 1,
            "ticks": 57318,
            "time": 84.48717979687501,
            "value": 0.30708661417322836
          },
          {
            "number": 1,
            "ticks": 57320,
            "time": 84.4901278125,
            "value": 0.31496062992125984
          },
          {
            "number": 1,
            "ticks": 57334,
            "time": 84.510763921875,
            "value": 0.3228346456692913
          },
          {
            "number": 1,
            "ticks": 57398,
            "time": 84.60510042187501,
            "value": 0.31496062992125984
          },
          {
            "number": 1,
            "ticks": 57408,
            "time": 84.61984050000001,
            "value": 0.30708661417322836
          },
          {
            "number": 1,
            "ticks": 57416,
            "time": 84.63163256250002,
            "value": 0.2992125984251969
          },
          {
            "number": 1,
            "ticks": 57424,
            "time": 84.64342462500001,
            "value": 0.29133858267716534
          },
          {
            "number": 1,
            "ticks": 57430,
            "time": 84.652268671875,
            "value": 0.28346456692913385
          },
          {
            "number": 1,
            "ticks": 57438,
            "time": 84.66406073437501,
            "value": 0.2755905511811024
          },
          {
            "number": 1,
            "ticks": 57442,
            "time": 84.669956765625,
            "value": 0.2677165354330709
          },
          {
            "number": 1,
            "ticks": 57450,
            "time": 84.68174882812501,
            "value": 0.25196850393700787
          },
          {
            "number": 1,
            "ticks": 57454,
            "time": 84.687644859375,
            "value": 0.2440944881889764
          },
          {
            "number": 1,
            "ticks": 57458,
            "time": 84.69354089062502,
            "value": 0.23622047244094488
          },
          {
            "number": 1,
            "ticks": 57466,
            "time": 84.70533295312501,
            "value": 0.2204724409448819
          },
          {
            "number": 1,
            "ticks": 57474,
            "time": 84.717125015625,
            "value": 0.2047244094488189
          },
          {
            "number": 1,
            "ticks": 57476,
            "time": 84.72007303125001,
            "value": 0.1968503937007874
          },
          {
            "number": 1,
            "ticks": 57480,
            "time": 84.72596906250001,
            "value": 0.1889763779527559
          },
          {
            "number": 1,
            "ticks": 57488,
            "time": 84.737761125,
            "value": 0.16535433070866143
          },
          {
            "number": 1,
            "ticks": 57492,
            "time": 84.74365715625001,
            "value": 0.15748031496062992
          },
          {
            "number": 1,
            "ticks": 57496,
            "time": 84.7495531875,
            "value": 0.14960629921259844
          },
          {
            "number": 1,
            "ticks": 57500,
            "time": 84.75544921875002,
            "value": 0.14173228346456693
          },
          {
            "number": 1,
            "ticks": 57504,
            "time": 84.76134525,
            "value": 0.13385826771653545
          },
          {
            "number": 1,
            "ticks": 57508,
            "time": 84.76724128125001,
            "value": 0.12598425196850394
          },
          {
            "number": 1,
            "ticks": 57512,
            "time": 84.77313731250001,
            "value": 0.11811023622047244
          },
          {
            "number": 1,
            "ticks": 57518,
            "time": 84.78198135937501,
            "value": 0.09448818897637795
          },
          {
            "number": 1,
            "ticks": 57522,
            "time": 84.78787739062501,
            "value": 0.08661417322834646
          },
          {
            "number": 1,
            "ticks": 57524,
            "time": 84.79082540625001,
            "value": 0.07874015748031496
          },
          {
            "number": 1,
            "ticks": 57530,
            "time": 84.79966945312502,
            "value": 0.07086614173228346
          },
          {
            "number": 1,
            "ticks": 57532,
            "time": 84.80261746875,
            "value": 0.06299212598425197
          },
          {
            "number": 1,
            "ticks": 57536,
            "time": 84.80851350000002,
            "value": 0.047244094488188976
          },
          {
            "number": 1,
            "ticks": 57540,
            "time": 84.81440953125,
            "value": 0.03937007874015748
          },
          {
            "number": 1,
            "ticks": 57546,
            "time": 84.823253578125,
            "value": 0.007874015748031496
          },
          {
            "number": 1,
            "ticks": 57582,
            "time": 84.876317859375,
            "value": 0
          },
          {
            "number": 1,
            "ticks": 66502,
            "time": 98.024467546875,
            "value": 0.007874015748031496
          },
          {
            "number": 1,
            "ticks": 66560,
            "time": 98.10996000000002,
            "value": 0.015748031496062992
          },
          {
            "number": 1,
            "ticks": 66568,
            "time": 98.12175206250001,
            "value": 0.023622047244094488
          },
          {
            "number": 1,
            "ticks": 66572,
            "time": 98.12764809375001,
            "value": 0.031496062992125984
          },
          {
            "number": 1,
            "ticks": 66576,
            "time": 98.13354412500001,
            "value": 0.03937007874015748
          },
          {
            "number": 1,
            "ticks": 66580,
            "time": 98.13944015625,
            "value": 0.047244094488188976
          },
          {
            "number": 1,
            "ticks": 66584,
            "time": 98.1453361875,
            "value": 0.05511811023622047
          },
          {
            "number": 1,
            "ticks": 66586,
            "time": 98.148284203125,
            "value": 0.06299212598425197
          },
          {
            "number": 1,
            "ticks": 66594,
            "time": 98.16007626562501,
            "value": 0.07086614173228346
          },
          {
            "number": 1,
            "ticks": 66598,
            "time": 98.165972296875,
            "value": 0.07874015748031496
          },
          {
            "number": 1,
            "ticks": 66604,
            "time": 98.17481634375001,
            "value": 0.08661417322834646
          },
          {
            "number": 1,
            "ticks": 66608,
            "time": 98.18071237500001,
            "value": 0.09448818897637795
          },
          {
            "number": 1,
            "ticks": 66612,
            "time": 98.18660840625,
            "value": 0.10236220472440945
          },
          {
            "number": 1,
            "ticks": 66614,
            "time": 98.18955642187501,
            "value": 0.11023622047244094
          },
          {
            "number": 1,
            "ticks": 66618,
            "time": 98.19545245312501,
            "value": 0.11811023622047244
          },
          {
            "number": 1,
            "ticks": 66624,
            "time": 98.20429650000001,
            "value": 0.13385826771653545
          },
          {
            "number": 1,
            "ticks": 66626,
            "time": 98.20724451562502,
            "value": 0.14173228346456693
          },
          {
            "number": 1,
            "ticks": 66628,
            "time": 98.21019253125,
            "value": 0.14960629921259844
          },
          {
            "number": 1,
            "ticks": 66634,
            "time": 98.219036578125,
            "value": 0.15748031496062992
          },
          {
            "number": 1,
            "ticks": 66638,
            "time": 98.22493260937502,
            "value": 0.1732283464566929
          },
          {
            "number": 1,
            "ticks": 66640,
            "time": 98.227880625,
            "value": 0.18110236220472442
          },
          {
            "number": 1,
            "ticks": 66646,
            "time": 98.23672467187501,
            "value": 0.1968503937007874
          },
          {
            "number": 1,
            "ticks": 66648,
            "time": 98.2396726875,
            "value": 0.2047244094488189
          },
          {
            "number": 1,
            "ticks": 66652,
            "time": 98.24556871875001,
            "value": 0.2125984251968504
          },
          {
            "number": 1,
            "ticks": 66656,
            "time": 98.25146475000001,
            "value": 0.2204724409448819
          },
          {
            "number": 1,
            "ticks": 66660,
            "time": 98.25736078125001,
            "value": 0.2283464566929134
          },
          {
            "number": 1,
            "ticks": 66666,
            "time": 98.26620482812501,
            "value": 0.2440944881889764
          },
          {
            "number": 1,
            "ticks": 66670,
            "time": 98.272100859375,
            "value": 0.25196850393700787
          },
          {
            "number": 1,
            "ticks": 66672,
            "time": 98.27504887500001,
            "value": 0.25984251968503935
          },
          {
            "number": 1,
            "ticks": 66678,
            "time": 98.28389292187501,
            "value": 0.2677165354330709
          },
          {
            "number": 1,
            "ticks": 66682,
            "time": 98.289788953125,
            "value": 0.2755905511811024
          },
          {
            "number": 1,
            "ticks": 66688,
            "time": 98.29863300000001,
            "value": 0.28346456692913385
          },
          {
            "number": 1,
            "ticks": 66692,
            "time": 98.30452903125001,
            "value": 0.29133858267716534
          },
          {
            "number": 1,
            "ticks": 66696,
            "time": 98.3104250625,
            "value": 0.30708661417322836
          },
          {
            "number": 1,
            "ticks": 66702,
            "time": 98.31926910937501,
            "value": 0.31496062992125984
          },
          {
            "number": 1,
            "ticks": 66704,
            "time": 98.32221712500001,
            "value": 0.3228346456692913
          },
          {
            "number": 1,
            "ticks": 66706,
            "time": 98.325165140625,
            "value": 0.33070866141732286
          },
          {
            "number": 1,
            "ticks": 66714,
            "time": 98.33695720312501,
            "value": 0.33858267716535434
          },
          {
            "number": 1,
            "ticks": 66722,
            "time": 98.34874926562502,
            "value": 0.3464566929133858
          },
          {
            "number": 1,
            "ticks": 66738,
            "time": 98.372333390625,
            "value": 0.33858267716535434
          },
          {
            "number": 1,
            "ticks": 66746,
            "time": 98.38412545312501,
            "value": 0.3228346456692913
          },
          {
            "number": 1,
            "ticks": 66752,
            "time": 98.39296950000002,
            "value": 0.31496062992125984
          },
          {
            "number": 1,
            "ticks": 66754,
            "time": 98.395917515625,
            "value": 0.2992125984251969
          },
          {
            "number": 1,
            "ticks": 66758,
            "time": 98.40181354687502,
            "value": 0.28346456692913385
          },
          {
            "number": 1,
            "ticks": 66762,
            "time": 98.40770957812501,
            "value": 0.2677165354330709
          },
          {
            "number": 1,
            "ticks": 66766,
            "time": 98.413605609375,
            "value": 0.25196850393700787
          },
          {
            "number": 1,
            "ticks": 66774,
            "time": 98.425397671875,
            "value": 0.2283464566929134
          },
          {
            "number": 1,
            "ticks": 66776,
            "time": 98.42834568750001,
            "value": 0.2047244094488189
          },
          {
            "number": 1,
            "ticks": 66782,
            "time": 98.43718973437501,
            "value": 0.1968503937007874
          },
          {
            "number": 1,
            "ticks": 66786,
            "time": 98.44308576562501,
            "value": 0.18110236220472442
          },
          {
            "number": 1,
            "ticks": 66790,
            "time": 98.448981796875,
            "value": 0.16535433070866143
          },
          {
            "number": 1,
            "ticks": 66792,
            "time": 98.45192981250001,
            "value": 0.14960629921259844
          },
          {
            "number": 1,
            "ticks": 66798,
            "time": 98.46077385937501,
            "value": 0.14173228346456693
          },
          {
            "number": 1,
            "ticks": 66800,
            "time": 98.46372187500002,
            "value": 0.12598425196850394
          },
          {
            "number": 1,
            "ticks": 66806,
            "time": 98.47256592187502,
            "value": 0.10236220472440945
          },
          {
            "number": 1,
            "ticks": 66808,
            "time": 98.4755139375,
            "value": 0.09448818897637795
          },
          {
            "number": 1,
            "ticks": 66814,
            "time": 98.48435798437501,
            "value": 0.07874015748031496
          },
          {
            "number": 1,
            "ticks": 66816,
            "time": 98.487306,
            "value": 0.06299212598425197
          },
          {
            "number": 1,
            "ticks": 66822,
            "time": 98.496150046875,
            "value": 0.047244094488188976
          },
          {
            "number": 1,
            "ticks": 66826,
            "time": 98.502046078125,
            "value": 0.031496062992125984
          },
          {
            "number": 1,
            "ticks": 66828,
            "time": 98.50499409375001,
            "value": 0.007874015748031496
          },
          {
            "number": 1,
            "ticks": 66852,
            "time": 98.54037028125,
            "value": 0
          },
          {
            "number": 1,
            "ticks": 69232,
            "time": 102.04850887500001,
            "value": 0.007874015748031496
          },
          {
            "number": 1,
            "ticks": 69322,
            "time": 102.18116957812501,
            "value": 0.015748031496062992
          },
          {
            "number": 1,
            "ticks": 69332,
            "time": 102.19590965625001,
            "value": 0.023622047244094488
          },
          {
            "number": 1,
            "ticks": 69338,
            "time": 102.20475370312501,
            "value": 0.031496062992125984
          },
          {
            "number": 1,
            "ticks": 69348,
            "time": 102.21949378125001,
            "value": 0.03937007874015748
          },
          {
            "number": 1,
            "ticks": 69362,
            "time": 102.24012989062501,
            "value": 0.047244094488188976
          },
          {
            "number": 1,
            "ticks": 69364,
            "time": 102.24307790625001,
            "value": 0.05511811023622047
          },
          {
            "number": 1,
            "ticks": 69374,
            "time": 102.25781798437501,
            "value": 0.06299212598425197
          },
          {
            "number": 1,
            "ticks": 69386,
            "time": 102.27550607812502,
            "value": 0.07086614173228346
          },
          {
            "number": 1,
            "ticks": 69392,
            "time": 102.28435012500002,
            "value": 0.07874015748031496
          },
          {
            "number": 1,
            "ticks": 69400,
            "time": 102.29614218750001,
            "value": 0.08661417322834646
          },
          {
            "number": 1,
            "ticks": 69406,
            "time": 102.30498623437501,
            "value": 0.09448818897637795
          },
          {
            "number": 1,
            "ticks": 69414,
            "time": 102.31677829687501,
            "value": 0.10236220472440945
          },
          {
            "number": 1,
            "ticks": 69422,
            "time": 102.32857035937502,
            "value": 0.11023622047244094
          },
          {
            "number": 1,
            "ticks": 69430,
            "time": 102.340362421875,
            "value": 0.11811023622047244
          },
          {
            "number": 1,
            "ticks": 69436,
            "time": 102.34920646875,
            "value": 0.12598425196850394
          },
          {
            "number": 1,
            "ticks": 69440,
            "time": 102.35510250000002,
            "value": 0.13385826771653545
          },
          {
            "number": 1,
            "ticks": 69450,
            "time": 102.369842578125,
            "value": 0.14173228346456693
          },
          {
            "number": 1,
            "ticks": 69458,
            "time": 102.38163464062501,
            "value": 0.14960629921259844
          },
          {
            "number": 1,
            "ticks": 69466,
            "time": 102.393426703125,
            "value": 0.15748031496062992
          },
          {
            "number": 1,
            "ticks": 69472,
            "time": 102.40227075,
            "value": 0.16535433070866143
          },
          {
            "number": 1,
            "ticks": 69480,
            "time": 102.4140628125,
            "value": 0.1732283464566929
          },
          {
            "number": 1,
            "ticks": 69486,
            "time": 102.422906859375,
            "value": 0.18110236220472442
          },
          {
            "number": 1,
            "ticks": 69492,
            "time": 102.43175090625,
            "value": 0.1889763779527559
          },
          {
            "number": 1,
            "ticks": 69500,
            "time": 102.44354296875001,
            "value": 0.1968503937007874
          },
          {
            "number": 1,
            "ticks": 69504,
            "time": 102.44943900000001,
            "value": 0.2047244094488189
          },
          {
            "number": 1,
            "ticks": 69510,
            "time": 102.45828304687501,
            "value": 0.2125984251968504
          },
          {
            "number": 1,
            "ticks": 69518,
            "time": 102.47007510937502,
            "value": 0.2204724409448819
          },
          {
            "number": 1,
            "ticks": 69524,
            "time": 102.47891915625002,
            "value": 0.2283464566929134
          },
          {
            "number": 1,
            "ticks": 69530,
            "time": 102.48776320312501,
            "value": 0.23622047244094488
          },
          {
            "number": 1,
            "ticks": 69540,
            "time": 102.50250328125001,
            "value": 0.2440944881889764
          },
          {
            "number": 1,
            "ticks": 69548,
            "time": 102.51429534375002,
            "value": 0.25196850393700787
          },
          {
            "number": 1,
            "ticks": 69552,
            "time": 102.52019137500001,
            "value": 0.25984251968503935
          },
          {
            "number": 1,
            "ticks": 69560,
            "time": 102.53198343750002,
            "value": 0.2677165354330709
          },
          {
            "number": 1,
            "ticks": 69566,
            "time": 102.54082748437501,
            "value": 0.2755905511811024
          },
          {
            "number": 1,
            "ticks": 69576,
            "time": 102.5555675625,
            "value": 0.28346456692913385
          },
          {
            "number": 1,
            "ticks": 69584,
            "time": 102.56735962500001,
            "value": 0.29133858267716534
          },
          {
            "number": 1,
            "ticks": 69592,
            "time": 102.5791516875,
            "value": 0.2992125984251969
          },
          {
            "number": 1,
            "ticks": 69606,
            "time": 102.599787796875,
            "value": 0.30708661417322836
          },
          {
            "number": 1,
            "ticks": 69608,
            "time": 102.60273581250001,
            "value": 0.31496062992125984
          },
          {
            "number": 1,
            "ticks": 69622,
            "time": 102.623371921875,
            "value": 0.3228346456692913
          },
          {
            "number": 1,
            "ticks": 69686,
            "time": 102.71770842187502,
            "value": 0.31496062992125984
          },
          {
            "number": 1,
            "ticks": 69696,
            "time": 102.7324485,
            "value": 0.30708661417322836
          },
          {
            "number": 1,
            "ticks": 69704,
            "time": 102.74424056250001,
            "value": 0.2992125984251969
          },
          {
            "number": 1,
            "ticks": 69712,
            "time": 102.756032625,
            "value": 0.29133858267716534
          },
          {
            "number": 1,
            "ticks": 69718,
            "time": 102.764876671875,
            "value": 0.28346456692913385
          },
          {
            "number": 1,
            "ticks": 69726,
            "time": 102.77666873437501,
            "value": 0.2755905511811024
          },
          {
            "number": 1,
            "ticks": 69730,
            "time": 102.782564765625,
            "value": 0.2677165354330709
          },
          {
            "number": 1,
            "ticks": 69738,
            "time": 102.794356828125,
            "value": 0.25196850393700787
          },
          {
            "number": 1,
            "ticks": 69742,
            "time": 102.80025285937501,
            "value": 0.2440944881889764
          },
          {
            "number": 1,
            "ticks": 69746,
            "time": 102.80614889062501,
            "value": 0.23622047244094488
          },
          {
            "number": 1,
            "ticks": 69754,
            "time": 102.817940953125,
            "value": 0.2204724409448819
          },
          {
            "number": 1,
            "ticks": 69762,
            "time": 102.82973301562501,
            "value": 0.2047244094488189
          },
          {
            "number": 1,
            "ticks": 69764,
            "time": 102.83268103125002,
            "value": 0.1968503937007874
          },
          {
            "number": 1,
            "ticks": 69768,
            "time": 102.83857706250001,
            "value": 0.1889763779527559
          },
          {
            "number": 1,
            "ticks": 69776,
            "time": 102.85036912500001,
            "value": 0.16535433070866143
          },
          {
            "number": 1,
            "ticks": 69780,
            "time": 102.85626515625,
            "value": 0.15748031496062992
          },
          {
            "number": 1,
            "ticks": 69784,
            "time": 102.8621611875,
            "value": 0.14960629921259844
          },
          {
            "number": 1,
            "ticks": 69788,
            "time": 102.86805721875001,
            "value": 0.14173228346456693
          },
          {
            "number": 1,
            "ticks": 69792,
            "time": 102.87395325000001,
            "value": 0.13385826771653545
          },
          {
            "number": 1,
            "ticks": 69796,
            "time": 102.87984928125,
            "value": 0.12598425196850394
          },
          {
            "number": 1,
            "ticks": 69800,
            "time": 102.88574531250002,
            "value": 0.11811023622047244
          },
          {
            "number": 1,
            "ticks": 69806,
            "time": 102.89458935937502,
            "value": 0.09448818897637795
          },
          {
            "number": 1,
            "ticks": 69810,
            "time": 102.90048539062501,
            "value": 0.08661417322834646
          },
          {
            "number": 1,
            "ticks": 69812,
            "time": 102.90343340625002,
            "value": 0.07874015748031496
          },
          {
            "number": 1,
            "ticks": 69818,
            "time": 102.91227745312501,
            "value": 0.07086614173228346
          },
          {
            "number": 1,
            "ticks": 69820,
            "time": 102.91522546875001,
            "value": 0.06299212598425197
          },
          {
            "number": 1,
            "ticks": 69824,
            "time": 102.92112150000001,
            "value": 0.047244094488188976
          },
          {
            "number": 1,
            "ticks": 69828,
            "time": 102.92701753125002,
            "value": 0.03937007874015748
          },
          {
            "number": 1,
            "ticks": 69834,
            "time": 102.93586157812501,
            "value": 0.007874015748031496
          },
          {
            "number": 1,
            "ticks": 69870,
            "time": 102.98892585937502,
            "value": 0
          },
          {
            "number": 1,
            "ticks": 114036,
            "time": 168.08995490625003,
            "value": 0.007874015748031496
          },
          {
            "number": 1,
            "ticks": 114098,
            "time": 168.18134339062502,
            "value": 0.015748031496062992
          },
          {
            "number": 1,
            "ticks": 114106,
            "time": 168.19313545312502,
            "value": 0.023622047244094488
          },
          {
            "number": 1,
            "ticks": 114110,
            "time": 168.199031484375,
            "value": 0.031496062992125984
          },
          {
            "number": 1,
            "ticks": 114114,
            "time": 168.204927515625,
            "value": 0.03937007874015748
          },
          {
            "number": 1,
            "ticks": 114122,
            "time": 168.216719578125,
            "value": 0.047244094488188976
          },
          {
            "number": 1,
            "ticks": 114128,
            "time": 168.225563625,
            "value": 0.06299212598425197
          },
          {
            "number": 1,
            "ticks": 114136,
            "time": 168.2373556875,
            "value": 0.07086614173228346
          },
          {
            "number": 1,
            "ticks": 114138,
            "time": 168.24030370312502,
            "value": 0.07874015748031496
          },
          {
            "number": 1,
            "ticks": 114146,
            "time": 168.252095765625,
            "value": 0.08661417322834646
          },
          {
            "number": 1,
            "ticks": 114150,
            "time": 168.25799179687502,
            "value": 0.09448818897637795
          },
          {
            "number": 1,
            "ticks": 114154,
            "time": 168.26388782812504,
            "value": 0.10236220472440945
          },
          {
            "number": 1,
            "ticks": 114162,
            "time": 168.275679890625,
            "value": 0.11023622047244094
          },
          {
            "number": 1,
            "ticks": 114172,
            "time": 168.29041996875003,
            "value": 0.11811023622047244
          },
          {
            "number": 1,
            "ticks": 114182,
            "time": 168.30516004687502,
            "value": 0.12598425196850394
          },
          {
            "number": 1,
            "ticks": 114206,
            "time": 168.340536234375,
            "value": 0.11811023622047244
          },
          {
            "number": 1,
            "ticks": 114210,
            "time": 168.34643226562503,
            "value": 0.11023622047244094
          },
          {
            "number": 1,
            "ticks": 114218,
            "time": 168.358224328125,
            "value": 0.10236220472440945
          },
          {
            "number": 1,
            "ticks": 114222,
            "time": 168.36412035937502,
            "value": 0.09448818897637795
          },
          {
            "number": 1,
            "ticks": 114226,
            "time": 168.37001639062504,
            "value": 0.07874015748031496
          },
          {
            "number": 1,
            "ticks": 114230,
            "time": 168.375912421875,
            "value": 0.07086614173228346
          },
          {
            "number": 1,
            "ticks": 114234,
            "time": 168.38180845312502,
            "value": 0.05511811023622047
          },
          {
            "number": 1,
            "ticks": 114238,
            "time": 168.38770448437504,
            "value": 0.047244094488188976
          },
          {
            "number": 1,
            "ticks": 114244,
            "time": 168.39654853125003,
            "value": 0.007874015748031496
          },
          {
            "number": 1,
            "ticks": 114272,
            "time": 168.43782075000001,
            "value": 0
          },
          {
            "number": 1,
            "ticks": 115128,
            "time": 169.69957143750003,
            "value": 0.007874015748031496
          },
          {
            "number": 1,
            "ticks": 115152,
            "time": 169.73494762500002,
            "value": 0.015748031496062992
          },
          {
            "number": 1,
            "ticks": 115156,
            "time": 169.74084365625004,
            "value": 0.023622047244094488
          },
          {
            "number": 1,
            "ticks": 115160,
            "time": 169.7467396875,
            "value": 0.031496062992125984
          },
          {
            "number": 1,
            "ticks": 115162,
            "time": 169.74968770312503,
            "value": 0.047244094488188976
          },
          {
            "number": 1,
            "ticks": 115166,
            "time": 169.755583734375,
            "value": 0.05511811023622047
          },
          {
            "number": 1,
            "ticks": 115170,
            "time": 169.761479765625,
            "value": 0.06299212598425197
          },
          {
            "number": 1,
            "ticks": 115174,
            "time": 169.76737579687503,
            "value": 0.07086614173228346
          },
          {
            "number": 1,
            "ticks": 115180,
            "time": 169.77621984375003,
            "value": 0.07874015748031496
          },
          {
            "number": 1,
            "ticks": 115184,
            "time": 169.78211587500002,
            "value": 0.09448818897637795
          },
          {
            "number": 1,
            "ticks": 115190,
            "time": 169.79095992187501,
            "value": 0.10236220472440945
          },
          {
            "number": 1,
            "ticks": 115194,
            "time": 169.796855953125,
            "value": 0.11811023622047244
          },
          {
            "number": 1,
            "ticks": 115196,
            "time": 169.79980396875,
            "value": 0.12598425196850394
          },
          {
            "number": 1,
            "ticks": 115202,
            "time": 169.808648015625,
            "value": 0.13385826771653545
          },
          {
            "number": 1,
            "ticks": 115206,
            "time": 169.81454404687503,
            "value": 0.14173228346456693
          },
          {
            "number": 1,
            "ticks": 115208,
            "time": 169.8174920625,
            "value": 0.14960629921259844
          },
          {
            "number": 1,
            "ticks": 115212,
            "time": 169.82338809375003,
            "value": 0.15748031496062992
          },
          {
            "number": 1,
            "ticks": 115216,
            "time": 169.82928412500002,
            "value": 0.16535433070866143
          },
          {
            "number": 1,
            "ticks": 115220,
            "time": 169.83518015625,
            "value": 0.1732283464566929
          },
          {
            "number": 1,
            "ticks": 115224,
            "time": 169.84107618750002,
            "value": 0.18110236220472442
          },
          {
            "number": 1,
            "ticks": 115228,
            "time": 169.84697221875004,
            "value": 0.1968503937007874
          },
          {
            "number": 1,
            "ticks": 115232,
            "time": 169.85286825,
            "value": 0.2047244094488189
          },
          {
            "number": 1,
            "ticks": 115236,
            "time": 169.85876428125002,
            "value": 0.2125984251968504
          },
          {
            "number": 1,
            "ticks": 115240,
            "time": 169.86466031250004,
            "value": 0.2204724409448819
          },
          {
            "number": 1,
            "ticks": 115248,
            "time": 169.876452375,
            "value": 0.2283464566929134
          },
          {
            "number": 1,
            "ticks": 115254,
            "time": 169.885296421875,
            "value": 0.23622047244094488
          },
          {
            "number": 1,
            "ticks": 115280,
            "time": 169.923620625,
            "value": 0.2283464566929134
          },
          {
            "number": 1,
            "ticks": 115288,
            "time": 169.93541268750002,
            "value": 0.2204724409448819
          },
          {
            "number": 1,
            "ticks": 115292,
            "time": 169.94130871875,
            "value": 0.2125984251968504
          },
          {
            "number": 1,
            "ticks": 115296,
            "time": 169.94720475000003,
            "value": 0.1968503937007874
          },
          {
            "number": 1,
            "ticks": 115300,
            "time": 169.95310078125001,
            "value": 0.1889763779527559
          },
          {
            "number": 1,
            "ticks": 115304,
            "time": 169.9589968125,
            "value": 0.1732283464566929
          },
          {
            "number": 1,
            "ticks": 115308,
            "time": 169.96489284375002,
            "value": 0.15748031496062992
          },
          {
            "number": 1,
            "ticks": 115312,
            "time": 169.97078887500004,
            "value": 0.14173228346456693
          },
          {
            "number": 1,
            "ticks": 115316,
            "time": 169.97668490625,
            "value": 0.11811023622047244
          },
          {
            "number": 1,
            "ticks": 115320,
            "time": 169.98258093750002,
            "value": 0.10236220472440945
          },
          {
            "number": 1,
            "ticks": 115322,
            "time": 169.985528953125,
            "value": 0.07874015748031496
          },
          {
            "number": 1,
            "ticks": 115328,
            "time": 169.994373,
            "value": 0.06299212598425197
          },
          {
            "number": 1,
            "ticks": 115332,
            "time": 170.00026903125,
            "value": 0.03937007874015748
          },
          {
            "number": 1,
            "ticks": 115336,
            "time": 170.00616506250003,
            "value": 0.007874015748031496
          },
          {
            "number": 1,
            "ticks": 115358,
            "time": 170.038593234375,
            "value": 0
          },
          {
            "number": 1,
            "ticks": 116722,
            "time": 172.049139890625,
            "value": 0.007874015748031496
          },
          {
            "number": 1,
            "ticks": 116746,
            "time": 172.08451607812503,
            "value": 0.015748031496062992
          },
          {
            "number": 1,
            "ticks": 116750,
            "time": 172.090412109375,
            "value": 0.023622047244094488
          },
          {
            "number": 1,
            "ticks": 116754,
            "time": 172.096308140625,
            "value": 0.031496062992125984
          },
          {
            "number": 1,
            "ticks": 116756,
            "time": 172.09925615625,
            "value": 0.03937007874015748
          },
          {
            "number": 1,
            "ticks": 116760,
            "time": 172.1051521875,
            "value": 0.047244094488188976
          },
          {
            "number": 1,
            "ticks": 116764,
            "time": 172.11104821875003,
            "value": 0.06299212598425197
          },
          {
            "number": 1,
            "ticks": 116768,
            "time": 172.11694425000002,
            "value": 0.07086614173228346
          },
          {
            "number": 1,
            "ticks": 116772,
            "time": 172.12284028125,
            "value": 0.07874015748031496
          },
          {
            "number": 1,
            "ticks": 116776,
            "time": 172.12873631250002,
            "value": 0.08661417322834646
          },
          {
            "number": 1,
            "ticks": 116780,
            "time": 172.13463234375,
            "value": 0.09448818897637795
          },
          {
            "number": 1,
            "ticks": 116784,
            "time": 172.140528375,
            "value": 0.10236220472440945
          },
          {
            "number": 1,
            "ticks": 116788,
            "time": 172.14642440625002,
            "value": 0.11023622047244094
          },
          {
            "number": 1,
            "ticks": 116792,
            "time": 172.1523204375,
            "value": 0.11811023622047244
          },
          {
            "number": 1,
            "ticks": 116796,
            "time": 172.15821646875003,
            "value": 0.13385826771653545
          },
          {
            "number": 1,
            "ticks": 116798,
            "time": 172.161164484375,
            "value": 0.14173228346456693
          },
          {
            "number": 1,
            "ticks": 116804,
            "time": 172.17000853125,
            "value": 0.14960629921259844
          },
          {
            "number": 1,
            "ticks": 116808,
            "time": 172.17590456250002,
            "value": 0.15748031496062992
          },
          {
            "number": 1,
            "ticks": 116812,
            "time": 172.18180059375,
            "value": 0.16535433070866143
          },
          {
            "number": 1,
            "ticks": 116816,
            "time": 172.187696625,
            "value": 0.1732283464566929
          },
          {
            "number": 1,
            "ticks": 116818,
            "time": 172.19064464062504,
            "value": 0.1889763779527559
          },
          {
            "number": 1,
            "ticks": 116822,
            "time": 172.196540671875,
            "value": 0.1968503937007874
          },
          {
            "number": 1,
            "ticks": 116826,
            "time": 172.20243670312502,
            "value": 0.2047244094488189
          },
          {
            "number": 1,
            "ticks": 116830,
            "time": 172.20833273437503,
            "value": 0.2125984251968504
          },
          {
            "number": 1,
            "ticks": 116834,
            "time": 172.214228765625,
            "value": 0.2204724409448819
          },
          {
            "number": 1,
            "ticks": 116836,
            "time": 172.21717678125003,
            "value": 0.2283464566929134
          },
          {
            "number": 1,
            "ticks": 116844,
            "time": 172.22896884375,
            "value": 0.23622047244094488
          },
          {
            "number": 1,
            "ticks": 116852,
            "time": 172.24076090625002,
            "value": 0.2440944881889764
          },
          {
            "number": 1,
            "ticks": 116860,
            "time": 172.25255296875002,
            "value": 0.25196850393700787
          },
          {
            "number": 1,
            "ticks": 116898,
            "time": 172.30856526562502,
            "value": 0.2440944881889764
          },
          {
            "number": 1,
            "ticks": 116902,
            "time": 172.31446129687504,
            "value": 0.23622047244094488
          },
          {
            "number": 1,
            "ticks": 116908,
            "time": 172.32330534375004,
            "value": 0.2283464566929134
          },
          {
            "number": 1,
            "ticks": 116914,
            "time": 172.33214939062503,
            "value": 0.2204724409448819
          },
          {
            "number": 1,
            "ticks": 116916,
            "time": 172.33509740625001,
            "value": 0.2047244094488189
          },
          {
            "number": 1,
            "ticks": 116920,
            "time": 172.34099343750003,
            "value": 0.1889763779527559
          },
          {
            "number": 1,
            "ticks": 116924,
            "time": 172.34688946875,
            "value": 0.18110236220472442
          },
          {
            "number": 1,
            "ticks": 116928,
            "time": 172.3527855,
            "value": 0.16535433070866143
          },
          {
            "number": 1,
            "ticks": 116934,
            "time": 172.361629546875,
            "value": 0.14173228346456693
          },
          {
            "number": 1,
            "ticks": 116936,
            "time": 172.36457756250002,
            "value": 0.12598425196850394
          },
          {
            "number": 1,
            "ticks": 116940,
            "time": 172.37047359375,
            "value": 0.10236220472440945
          },
          {
            "number": 1,
            "ticks": 116944,
            "time": 172.37636962500002,
            "value": 0.07874015748031496
          },
          {
            "number": 1,
            "ticks": 116948,
            "time": 172.38226565625,
            "value": 0.06299212598425197
          },
          {
            "number": 1,
            "ticks": 116952,
            "time": 172.3881616875,
            "value": 0.047244094488188976
          },
          {
            "number": 1,
            "ticks": 116956,
            "time": 172.39405771875002,
            "value": 0.007874015748031496
          },
          {
            "number": 1,
            "ticks": 116976,
            "time": 172.42353787500002,
            "value": 0
          },
          {
            "number": 1,
            "ticks": 117796,
            "time": 173.63222428125002,
            "value": 0.007874015748031496
          },
          {
            "number": 1,
            "ticks": 117814,
            "time": 173.65875642187504,
            "value": 0.015748031496062992
          },
          {
            "number": 1,
            "ticks": 117818,
            "time": 173.664652453125,
            "value": 0.023622047244094488
          },
          {
            "number": 1,
            "ticks": 117822,
            "time": 173.67054848437502,
            "value": 0.031496062992125984
          },
          {
            "number": 1,
            "ticks": 117826,
            "time": 173.67644451562504,
            "value": 0.03937007874015748
          },
          {
            "number": 1,
            "ticks": 117832,
            "time": 173.68528856250003,
            "value": 0.047244094488188976
          },
          {
            "number": 1,
            "ticks": 117834,
            "time": 173.68823657812501,
            "value": 0.06299212598425197
          },
          {
            "number": 1,
            "ticks": 117840,
            "time": 173.697080625,
            "value": 0.07086614173228346
          },
          {
            "number": 1,
            "ticks": 117844,
            "time": 173.70297665625003,
            "value": 0.07874015748031496
          },
          {
            "number": 1,
            "ticks": 117852,
            "time": 173.71476871875,
            "value": 0.08661417322834646
          },
          {
            "number": 1,
            "ticks": 117860,
            "time": 173.72656078125001,
            "value": 0.09448818897637795
          },
          {
            "number": 1,
            "ticks": 117866,
            "time": 173.735404828125,
            "value": 0.10236220472440945
          },
          {
            "number": 1,
            "ticks": 117868,
            "time": 173.73835284375002,
            "value": 0.11811023622047244
          },
          {
            "number": 1,
            "ticks": 117874,
            "time": 173.74719689062502,
            "value": 0.12598425196850394
          },
          {
            "number": 1,
            "ticks": 117880,
            "time": 173.75604093750002,
            "value": 0.14173228346456693
          },
          {
            "number": 1,
            "ticks": 117886,
            "time": 173.76488498437502,
            "value": 0.15748031496062992
          },
          {
            "number": 1,
            "ticks": 117888,
            "time": 173.76783300000002,
            "value": 0.16535433070866143
          },
          {
            "number": 1,
            "ticks": 117892,
            "time": 173.77372903125,
            "value": 0.1732283464566929
          },
          {
            "number": 1,
            "ticks": 117898,
            "time": 173.78257307812504,
            "value": 0.18110236220472442
          },
          {
            "number": 1,
            "ticks": 117902,
            "time": 173.788469109375,
            "value": 0.2047244094488189
          },
          {
            "number": 1,
            "ticks": 117908,
            "time": 173.79731315625,
            "value": 0.2125984251968504
          },
          {
            "number": 1,
            "ticks": 117916,
            "time": 173.80910521875003,
            "value": 0.2283464566929134
          },
          {
            "number": 1,
            "ticks": 117918,
            "time": 173.812053234375,
            "value": 0.2440944881889764
          },
          {
            "number": 1,
            "ticks": 117924,
            "time": 173.82089728125,
            "value": 0.25984251968503935
          },
          {
            "number": 1,
            "ticks": 117928,
            "time": 173.82679331250003,
            "value": 0.2677165354330709
          },
          {
            "number": 1,
            "ticks": 117932,
            "time": 173.83268934375,
            "value": 0.2755905511811024
          },
          {
            "number": 1,
            "ticks": 117938,
            "time": 173.84153339062502,
            "value": 0.29133858267716534
          },
          {
            "number": 1,
            "ticks": 117944,
            "time": 173.85037743750001,
            "value": 0.2992125984251969
          },
          {
            "number": 1,
            "ticks": 117946,
            "time": 173.85332545312502,
            "value": 0.30708661417322836
          },
          {
            "number": 1,
            "ticks": 117950,
            "time": 173.859221484375,
            "value": 0.31496062992125984
          },
          {
            "number": 1,
            "ticks": 117960,
            "time": 173.87396156250003,
            "value": 0.3228346456692913
          },
          {
            "number": 1,
            "ticks": 117964,
            "time": 173.87985759375002,
            "value": 0.33070866141732286
          },
          {
            "number": 1,
            "ticks": 117974,
            "time": 173.894597671875,
            "value": 0.33858267716535434
          },
          {
            "number": 1,
            "ticks": 118006,
            "time": 173.94176592187503,
            "value": 0.33070866141732286
          },
          {
            "number": 1,
            "ticks": 118016,
            "time": 173.95650600000002,
            "value": 0.3228346456692913
          },
          {
            "number": 1,
            "ticks": 118020,
            "time": 173.96240203125,
            "value": 0.31496062992125984
          },
          {
            "number": 1,
            "ticks": 118024,
            "time": 173.96829806250003,
            "value": 0.30708661417322836
          },
          {
            "number": 1,
            "ticks": 118028,
            "time": 173.97419409375001,
            "value": 0.29133858267716534
          },
          {
            "number": 1,
            "ticks": 118034,
            "time": 173.983038140625,
            "value": 0.2755905511811024
          },
          {
            "number": 1,
            "ticks": 118036,
            "time": 173.98598615625002,
            "value": 0.2677165354330709
          },
          {
            "number": 1,
            "ticks": 118042,
            "time": 173.99483020312502,
            "value": 0.25196850393700787
          },
          {
            "number": 1,
            "ticks": 118046,
            "time": 174.000726234375,
            "value": 0.2440944881889764
          },
          {
            "number": 1,
            "ticks": 118050,
            "time": 174.00662226562503,
            "value": 0.2283464566929134
          },
          {
            "number": 1,
            "ticks": 118054,
            "time": 174.01251829687502,
            "value": 0.2204724409448819
          },
          {
            "number": 1,
            "ticks": 118056,
            "time": 174.01546631250002,
            "value": 0.2047244094488189
          },
          {
            "number": 1,
            "ticks": 118064,
            "time": 174.027258375,
            "value": 0.1889763779527559
          },
          {
            "number": 1,
            "ticks": 118070,
            "time": 174.036102421875,
            "value": 0.15748031496062992
          },
          {
            "number": 1,
            "ticks": 118074,
            "time": 174.04199845312502,
            "value": 0.13385826771653545
          },
          {
            "number": 1,
            "ticks": 118078,
            "time": 174.04789448437504,
            "value": 0.11811023622047244
          },
          {
            "number": 1,
            "ticks": 118082,
            "time": 174.053790515625,
            "value": 0.09448818897637795
          },
          {
            "number": 1,
            "ticks": 118086,
            "time": 174.059686546875,
            "value": 0.07086614173228346
          },
          {
            "number": 1,
            "ticks": 118090,
            "time": 174.06558257812503,
            "value": 0.047244094488188976
          },
          {
            "number": 1,
            "ticks": 118092,
            "time": 174.06853059375,
            "value": 0.023622047244094488
          },
          {
            "number": 1,
            "ticks": 118098,
            "time": 174.077374640625,
            "value": 0.007874015748031496
          },
          {
            "number": 1,
            "ticks": 118116,
            "time": 174.10390678125,
            "value": 0
          },
          {
            "number": 1,
            "ticks": 119870,
            "time": 176.689316484375,
            "value": 0.007874015748031496
          },
          {
            "number": 1,
            "ticks": 119890,
            "time": 176.71879664062502,
            "value": 0.015748031496062992
          },
          {
            "number": 1,
            "ticks": 119892,
            "time": 176.72174465625002,
            "value": 0.023622047244094488
          },
          {
            "number": 1,
            "ticks": 119900,
            "time": 176.73353671875,
            "value": 0.047244094488188976
          },
          {
            "number": 1,
            "ticks": 119904,
            "time": 176.73943275000002,
            "value": 0.06299212598425197
          },
          {
            "number": 1,
            "ticks": 119908,
            "time": 176.74532878125004,
            "value": 0.07086614173228346
          },
          {
            "number": 1,
            "ticks": 119912,
            "time": 176.7512248125,
            "value": 0.08661417322834646
          },
          {
            "number": 1,
            "ticks": 119914,
            "time": 176.75417282812504,
            "value": 0.09448818897637795
          },
          {
            "number": 1,
            "ticks": 119920,
            "time": 176.76301687500003,
            "value": 0.10236220472440945
          },
          {
            "number": 1,
            "ticks": 119922,
            "time": 176.765964890625,
            "value": 0.11811023622047244
          },
          {
            "number": 1,
            "ticks": 119924,
            "time": 176.76891290625,
            "value": 0.12598425196850394
          },
          {
            "number": 1,
            "ticks": 119928,
            "time": 176.7748089375,
            "value": 0.13385826771653545
          },
          {
            "number": 1,
            "ticks": 119932,
            "time": 176.78070496875003,
            "value": 0.14960629921259844
          },
          {
            "number": 1,
            "ticks": 119936,
            "time": 176.78660100000002,
            "value": 0.15748031496062992
          },
          {
            "number": 1,
            "ticks": 119940,
            "time": 176.79249703125,
            "value": 0.16535433070866143
          },
          {
            "number": 1,
            "ticks": 119944,
            "time": 176.79839306250003,
            "value": 0.1732283464566929
          },
          {
            "number": 1,
            "ticks": 119948,
            "time": 176.80428909375001,
            "value": 0.1889763779527559
          },
          {
            "number": 1,
            "ticks": 119952,
            "time": 176.810185125,
            "value": 0.1968503937007874
          },
          {
            "number": 1,
            "ticks": 119954,
            "time": 176.813133140625,
            "value": 0.2047244094488189
          },
          {
            "number": 1,
            "ticks": 119958,
            "time": 176.819029171875,
            "value": 0.2125984251968504
          },
          {
            "number": 1,
            "ticks": 119962,
            "time": 176.82492520312502,
            "value": 0.2283464566929134
          },
          {
            "number": 1,
            "ticks": 119966,
            "time": 176.830821234375,
            "value": 0.23622047244094488
          },
          {
            "number": 1,
            "ticks": 119972,
            "time": 176.83966528125,
            "value": 0.25196850393700787
          },
          {
            "number": 1,
            "ticks": 119978,
            "time": 176.848509328125,
            "value": 0.25984251968503935
          },
          {
            "number": 1,
            "ticks": 119980,
            "time": 176.85145734375,
            "value": 0.2677165354330709
          },
          {
            "number": 1,
            "ticks": 119984,
            "time": 176.857353375,
            "value": 0.2755905511811024
          },
          {
            "number": 1,
            "ticks": 119994,
            "time": 176.87209345312502,
            "value": 0.28346456692913385
          },
          {
            "number": 1,
            "ticks": 120012,
            "time": 176.89862559375,
            "value": 0.2755905511811024
          },
          {
            "number": 1,
            "ticks": 120020,
            "time": 176.91041765625002,
            "value": 0.2677165354330709
          },
          {
            "number": 1,
            "ticks": 120022,
            "time": 176.91336567187503,
            "value": 0.25984251968503935
          },
          {
            "number": 1,
            "ticks": 120028,
            "time": 176.92220971875003,
            "value": 0.25196850393700787
          },
          {
            "number": 1,
            "ticks": 120034,
            "time": 176.93105376562502,
            "value": 0.23622047244094488
          },
          {
            "number": 1,
            "ticks": 120038,
            "time": 176.936949796875,
            "value": 0.2283464566929134
          },
          {
            "number": 1,
            "ticks": 120042,
            "time": 176.942845828125,
            "value": 0.2204724409448819
          },
          {
            "number": 1,
            "ticks": 120048,
            "time": 176.95168987500003,
            "value": 0.1968503937007874
          },
          {
            "number": 1,
            "ticks": 120054,
            "time": 176.96053392187503,
            "value": 0.18110236220472442
          },
          {
            "number": 1,
            "ticks": 120056,
            "time": 176.9634819375,
            "value": 0.1732283464566929
          },
          {
            "number": 1,
            "ticks": 120064,
            "time": 176.975274,
            "value": 0.14960629921259844
          },
          {
            "number": 1,
            "ticks": 120070,
            "time": 176.98411804687504,
            "value": 0.13385826771653545
          },
          {
            "number": 1,
            "ticks": 120072,
            "time": 176.98706606250002,
            "value": 0.11023622047244094
          },
          {
            "number": 1,
            "ticks": 120078,
            "time": 176.99591010937502,
            "value": 0.09448818897637795
          },
          {
            "number": 1,
            "ticks": 120082,
            "time": 177.00180614062504,
            "value": 0.07086614173228346
          },
          {
            "number": 1,
            "ticks": 120084,
            "time": 177.00475415625002,
            "value": 0.05511811023622047
          },
          {
            "number": 1,
            "ticks": 120086,
            "time": 177.007702171875,
            "value": 0.023622047244094488
          },
          {
            "number": 1,
            "ticks": 120092,
            "time": 177.01654621875,
            "value": 0.007874015748031496
          },
          {
            "number": 1,
            "ticks": 120110,
            "time": 177.04307835937502,
            "value": 0
          },
          {
            "number": 1,
            "ticks": 120912,
            "time": 178.22523262500002,
            "value": 0.007874015748031496
          },
          {
            "number": 1,
            "ticks": 120942,
            "time": 178.269452859375,
            "value": 0.015748031496062992
          },
          {
            "number": 1,
            "ticks": 120946,
            "time": 178.27534889062503,
            "value": 0.023622047244094488
          },
          {
            "number": 1,
            "ticks": 120950,
            "time": 178.28124492187501,
            "value": 0.03937007874015748
          },
          {
            "number": 1,
            "ticks": 120954,
            "time": 178.287140953125,
            "value": 0.047244094488188976
          },
          {
            "number": 1,
            "ticks": 120956,
            "time": 178.29008896875,
            "value": 0.06299212598425197
          },
          {
            "number": 1,
            "ticks": 120960,
            "time": 178.295985,
            "value": 0.07086614173228346
          },
          {
            "number": 1,
            "ticks": 120968,
            "time": 178.3077770625,
            "value": 0.08661417322834646
          },
          {
            "number": 1,
            "ticks": 120972,
            "time": 178.31367309375003,
            "value": 0.10236220472440945
          },
          {
            "number": 1,
            "ticks": 120976,
            "time": 178.31956912500002,
            "value": 0.11023622047244094
          },
          {
            "number": 1,
            "ticks": 120980,
            "time": 178.32546515625,
            "value": 0.11811023622047244
          },
          {
            "number": 1,
            "ticks": 120986,
            "time": 178.334309203125,
            "value": 0.14173228346456693
          },
          {
            "number": 1,
            "ticks": 120992,
            "time": 178.34315325,
            "value": 0.14960629921259844
          },
          {
            "number": 1,
            "ticks": 120998,
            "time": 178.351997296875,
            "value": 0.15748031496062992
          },
          {
            "number": 1,
            "ticks": 121000,
            "time": 178.35494531250004,
            "value": 0.16535433070866143
          },
          {
            "number": 1,
            "ticks": 121008,
            "time": 178.366737375,
            "value": 0.1732283464566929
          },
          {
            "number": 1,
            "ticks": 121012,
            "time": 178.37263340625003,
            "value": 0.1889763779527559
          },
          {
            "number": 1,
            "ticks": 121016,
            "time": 178.3785294375,
            "value": 0.1968503937007874
          },
          {
            "number": 1,
            "ticks": 121018,
            "time": 178.38147745312503,
            "value": 0.2047244094488189
          },
          {
            "number": 1,
            "ticks": 121026,
            "time": 178.393269515625,
            "value": 0.2125984251968504
          },
          {
            "number": 1,
            "ticks": 121030,
            "time": 178.39916554687503,
            "value": 0.2204724409448819
          },
          {
            "number": 1,
            "ticks": 121036,
            "time": 178.40800959375002,
            "value": 0.23622047244094488
          },
          {
            "number": 1,
            "ticks": 121038,
            "time": 178.410957609375,
            "value": 0.2440944881889764
          },
          {
            "number": 1,
            "ticks": 121044,
            "time": 178.41980165625,
            "value": 0.25196850393700787
          },
          {
            "number": 1,
            "ticks": 121050,
            "time": 178.42864570312503,
            "value": 0.2755905511811024
          },
          {
            "number": 1,
            "ticks": 121052,
            "time": 178.43159371875,
            "value": 0.28346456692913385
          },
          {
            "number": 1,
            "ticks": 121058,
            "time": 178.440437765625,
            "value": 0.2992125984251969
          },
          {
            "number": 1,
            "ticks": 121062,
            "time": 178.44633379687502,
            "value": 0.30708661417322836
          },
          {
            "number": 1,
            "ticks": 121070,
            "time": 178.458125859375,
            "value": 0.31496062992125984
          },
          {
            "number": 1,
            "ticks": 121076,
            "time": 178.46696990625,
            "value": 0.3228346456692913
          },
          {
            "number": 1,
            "ticks": 121084,
            "time": 178.47876196875004,
            "value": 0.33070866141732286
          },
          {
            "number": 1,
            "ticks": 121144,
            "time": 178.56720243750001,
            "value": 0.3228346456692913
          },
          {
            "number": 1,
            "ticks": 121150,
            "time": 178.576046484375,
            "value": 0.31496062992125984
          },
          {
            "number": 1,
            "ticks": 121154,
            "time": 178.581942515625,
            "value": 0.30708661417322836
          },
          {
            "number": 1,
            "ticks": 121158,
            "time": 178.58783854687502,
            "value": 0.29133858267716534
          },
          {
            "number": 1,
            "ticks": 121162,
            "time": 178.59373457812504,
            "value": 0.28346456692913385
          },
          {
            "number": 1,
            "ticks": 121166,
            "time": 178.599630609375,
            "value": 0.2677165354330709
          },
          {
            "number": 1,
            "ticks": 121170,
            "time": 178.60552664062502,
            "value": 0.25196850393700787
          },
          {
            "number": 1,
            "ticks": 121172,
            "time": 178.60847465625,
            "value": 0.23622047244094488
          },
          {
            "number": 1,
            "ticks": 121176,
            "time": 178.6143706875,
            "value": 0.2204724409448819
          },
          {
            "number": 1,
            "ticks": 121182,
            "time": 178.623214734375,
            "value": 0.1968503937007874
          },
          {
            "number": 1,
            "ticks": 121186,
            "time": 178.62911076562503,
            "value": 0.1732283464566929
          },
          {
            "number": 1,
            "ticks": 121188,
            "time": 178.63205878125,
            "value": 0.15748031496062992
          },
          {
            "number": 1,
            "ticks": 121192,
            "time": 178.63795481250003,
            "value": 0.13385826771653545
          },
          {
            "number": 1,
            "ticks": 121196,
            "time": 178.64385084375002,
            "value": 0.11811023622047244
          },
          {
            "number": 1,
            "ticks": 121200,
            "time": 178.649746875,
            "value": 0.10236220472440945
          },
          {
            "number": 1,
            "ticks": 121204,
            "time": 178.65564290625002,
            "value": 0.07086614173228346
          },
          {
            "number": 1,
            "ticks": 121208,
            "time": 178.6615389375,
            "value": 0.06299212598425197
          },
          {
            "number": 1,
            "ticks": 121212,
            "time": 178.66743496875003,
            "value": 0.03937007874015748
          },
          {
            "number": 1,
            "ticks": 121216,
            "time": 178.67333100000002,
            "value": 0.007874015748031496
          },
          {
            "number": 1,
            "ticks": 121240,
            "time": 178.70870718750004,
            "value": 0
          },
          {
            "number": 1,
            "ticks": 122894,
            "time": 181.146716109375,
            "value": 0.007874015748031496
          },
          {
            "number": 1,
            "ticks": 122912,
            "time": 181.17324825,
            "value": 0.015748031496062992
          },
          {
            "number": 1,
            "ticks": 122918,
            "time": 181.182092296875,
            "value": 0.023622047244094488
          },
          {
            "number": 1,
            "ticks": 122924,
            "time": 181.19093634375,
            "value": 0.047244094488188976
          },
          {
            "number": 1,
            "ticks": 122926,
            "time": 181.19388435937503,
            "value": 0.06299212598425197
          },
          {
            "number": 1,
            "ticks": 122930,
            "time": 181.199780390625,
            "value": 0.07874015748031496
          },
          {
            "number": 1,
            "ticks": 122934,
            "time": 181.205676421875,
            "value": 0.08661417322834646
          },
          {
            "number": 1,
            "ticks": 122938,
            "time": 181.21157245312503,
            "value": 0.10236220472440945
          },
          {
            "number": 1,
            "ticks": 122940,
            "time": 181.21452046875,
            "value": 0.11023622047244094
          },
          {
            "number": 1,
            "ticks": 122944,
            "time": 181.22041650000003,
            "value": 0.12598425196850394
          },
          {
            "number": 1,
            "ticks": 122948,
            "time": 181.22631253125002,
            "value": 0.13385826771653545
          },
          {
            "number": 1,
            "ticks": 122954,
            "time": 181.23515657812501,
            "value": 0.14960629921259844
          },
          {
            "number": 1,
            "ticks": 122960,
            "time": 181.244000625,
            "value": 0.1732283464566929
          },
          {
            "number": 1,
            "ticks": 122966,
            "time": 181.252844671875,
            "value": 0.18110236220472442
          },
          {
            "number": 1,
            "ticks": 122970,
            "time": 181.25874070312503,
            "value": 0.1968503937007874
          },
          {
            "number": 1,
            "ticks": 122976,
            "time": 181.26758475000003,
            "value": 0.2125984251968504
          },
          {
            "number": 1,
            "ticks": 122978,
            "time": 181.270532765625,
            "value": 0.2204724409448819
          },
          {
            "number": 1,
            "ticks": 122982,
            "time": 181.27642879687502,
            "value": 0.23622047244094488
          },
          {
            "number": 1,
            "ticks": 122988,
            "time": 181.28527284375002,
            "value": 0.25196850393700787
          },
          {
            "number": 1,
            "ticks": 122994,
            "time": 181.29411689062502,
            "value": 0.25984251968503935
          },
          {
            "number": 1,
            "ticks": 123000,
            "time": 181.30296093750002,
            "value": 0.2677165354330709
          },
          {
            "number": 1,
            "ticks": 123002,
            "time": 181.305908953125,
            "value": 0.28346456692913385
          },
          {
            "number": 1,
            "ticks": 123006,
            "time": 181.31180498437502,
            "value": 0.29133858267716534
          },
          {
            "number": 1,
            "ticks": 123010,
            "time": 181.31770101562503,
            "value": 0.2992125984251969
          },
          {
            "number": 1,
            "ticks": 123014,
            "time": 181.323597046875,
            "value": 0.30708661417322836
          },
          {
            "number": 1,
            "ticks": 123018,
            "time": 181.329493078125,
            "value": 0.31496062992125984
          },
          {
            "number": 1,
            "ticks": 123022,
            "time": 181.33538910937503,
            "value": 0.3228346456692913
          },
          {
            "number": 1,
            "ticks": 123030,
            "time": 181.347181171875,
            "value": 0.33070866141732286
          },
          {
            "number": 1,
            "ticks": 123034,
            "time": 181.35307720312503,
            "value": 0.33858267716535434
          },
          {
            "number": 1,
            "ticks": 123038,
            "time": 181.35897323437501,
            "value": 0.3464566929133858
          },
          {
            "number": 1,
            "ticks": 123052,
            "time": 181.37960934375002,
            "value": 0.36220472440944884
          },
          {
            "number": 1,
            "ticks": 123068,
            "time": 181.40319346875,
            "value": 0.3700787401574803
          },
          {
            "number": 1,
            "ticks": 123086,
            "time": 181.429725609375,
            "value": 0.36220472440944884
          },
          {
            "number": 1,
            "ticks": 123096,
            "time": 181.4444656875,
            "value": 0.3543307086614173
          },
          {
            "number": 1,
            "ticks": 123104,
            "time": 181.45625775,
            "value": 0.33858267716535434
          },
          {
            "number": 1,
            "ticks": 123106,
            "time": 181.45920576562503,
            "value": 0.33070866141732286
          },
          {
            "number": 1,
            "ticks": 123110,
            "time": 181.46510179687502,
            "value": 0.3228346456692913
          },
          {
            "number": 1,
            "ticks": 123114,
            "time": 181.470997828125,
            "value": 0.30708661417322836
          },
          {
            "number": 1,
            "ticks": 123116,
            "time": 181.47394584375002,
            "value": 0.29133858267716534
          },
          {
            "number": 1,
            "ticks": 123122,
            "time": 181.482789890625,
            "value": 0.2755905511811024
          },
          {
            "number": 1,
            "ticks": 123126,
            "time": 181.488685921875,
            "value": 0.25196850393700787
          },
          {
            "number": 1,
            "ticks": 123128,
            "time": 181.4916339375,
            "value": 0.23622047244094488
          },
          {
            "number": 1,
            "ticks": 123132,
            "time": 181.49752996875003,
            "value": 0.2125984251968504
          },
          {
            "number": 1,
            "ticks": 123136,
            "time": 181.50342600000002,
            "value": 0.1968503937007874
          },
          {
            "number": 1,
            "ticks": 123138,
            "time": 181.50637401562503,
            "value": 0.1732283464566929
          },
          {
            "number": 1,
            "ticks": 123150,
            "time": 181.52406210937502,
            "value": 0.07874015748031496
          },
          {
            "number": 1,
            "ticks": 123158,
            "time": 181.535854171875,
            "value": 0.05511811023622047
          },
          {
            "number": 1,
            "ticks": 123164,
            "time": 181.54469821875,
            "value": 0.007874015748031496
          },
          {
            "number": 1,
            "ticks": 123178,
            "time": 181.56533432812503,
            "value": 0
          },
          {
            "number": 1,
            "ticks": 123866,
            "time": 182.57945170312502,
            "value": 0.007874015748031496
          },
          {
            "number": 1,
            "ticks": 123896,
            "time": 182.6236719375,
            "value": 0.015748031496062992
          },
          {
            "number": 1,
            "ticks": 123904,
            "time": 182.635464,
            "value": 0.023622047244094488
          },
          {
            "number": 1,
            "ticks": 123906,
            "time": 182.63841201562502,
            "value": 0.031496062992125984
          },
          {
            "number": 1,
            "ticks": 123910,
            "time": 182.64430804687504,
            "value": 0.03937007874015748
          },
          {
            "number": 1,
            "ticks": 123916,
            "time": 182.65315209375004,
            "value": 0.047244094488188976
          },
          {
            "number": 1,
            "ticks": 123918,
            "time": 182.65610010937502,
            "value": 0.06299212598425197
          },
          {
            "number": 1,
            "ticks": 123924,
            "time": 182.66494415625002,
            "value": 0.07086614173228346
          },
          {
            "number": 1,
            "ticks": 123926,
            "time": 182.667892171875,
            "value": 0.07874015748031496
          },
          {
            "number": 1,
            "ticks": 123930,
            "time": 182.673788203125,
            "value": 0.09448818897637795
          },
          {
            "number": 1,
            "ticks": 123934,
            "time": 182.67968423437503,
            "value": 0.10236220472440945
          },
          {
            "number": 1,
            "ticks": 123938,
            "time": 182.685580265625,
            "value": 0.11023622047244094
          },
          {
            "number": 1,
            "ticks": 123942,
            "time": 182.691476296875,
            "value": 0.12598425196850394
          },
          {
            "number": 1,
            "ticks": 123946,
            "time": 182.69737232812503,
            "value": 0.14173228346456693
          },
          {
            "number": 1,
            "ticks": 123950,
            "time": 182.70326835937502,
            "value": 0.14960629921259844
          },
          {
            "number": 1,
            "ticks": 123954,
            "time": 182.709164390625,
            "value": 0.15748031496062992
          },
          {
            "number": 1,
            "ticks": 123958,
            "time": 182.71506042187502,
            "value": 0.16535433070866143
          },
          {
            "number": 1,
            "ticks": 123962,
            "time": 182.720956453125,
            "value": 0.1732283464566929
          },
          {
            "number": 1,
            "ticks": 123966,
            "time": 182.72685248437503,
            "value": 0.18110236220472442
          },
          {
            "number": 1,
            "ticks": 123970,
            "time": 182.73274851562502,
            "value": 0.1968503937007874
          },
          {
            "number": 1,
            "ticks": 123974,
            "time": 182.738644546875,
            "value": 0.2047244094488189
          },
          {
            "number": 1,
            "ticks": 123978,
            "time": 182.74454057812503,
            "value": 0.2125984251968504
          },
          {
            "number": 1,
            "ticks": 123984,
            "time": 182.75338462500002,
            "value": 0.2204724409448819
          },
          {
            "number": 1,
            "ticks": 123988,
            "time": 182.75928065625,
            "value": 0.2283464566929134
          },
          {
            "number": 1,
            "ticks": 123994,
            "time": 182.76812470312504,
            "value": 0.23622047244094488
          },
          {
            "number": 1,
            "ticks": 123998,
            "time": 182.774020734375,
            "value": 0.2440944881889764
          },
          {
            "number": 1,
            "ticks": 124006,
            "time": 182.78581279687504,
            "value": 0.25984251968503935
          },
          {
            "number": 1,
            "ticks": 124010,
            "time": 182.791708828125,
            "value": 0.2677165354330709
          },
          {
            "number": 1,
            "ticks": 124012,
            "time": 182.79465684375003,
            "value": 0.2755905511811024
          },
          {
            "number": 1,
            "ticks": 124020,
            "time": 182.80644890625,
            "value": 0.29133858267716534
          },
          {
            "number": 1,
            "ticks": 124026,
            "time": 182.815292953125,
            "value": 0.2992125984251969
          },
          {
            "number": 1,
            "ticks": 124034,
            "time": 182.82708501562502,
            "value": 0.30708661417322836
          },
          {
            "number": 1,
            "ticks": 124038,
            "time": 182.832981046875,
            "value": 0.31496062992125984
          },
          {
            "number": 1,
            "ticks": 124054,
            "time": 182.85656517187502,
            "value": 0.3228346456692913
          },
          {
            "number": 1,
            "ticks": 124082,
            "time": 182.897837390625,
            "value": 0.31496062992125984
          },
          {
            "number": 1,
            "ticks": 124092,
            "time": 182.91257746875002,
            "value": 0.29133858267716534
          },
          {
            "number": 1,
            "ticks": 124098,
            "time": 182.921421515625,
            "value": 0.28346456692913385
          },
          {
            "number": 1,
            "ticks": 124100,
            "time": 182.92436953125,
            "value": 0.2755905511811024
          },
          {
            "number": 1,
            "ticks": 124108,
            "time": 182.93616159375003,
            "value": 0.2440944881889764
          },
          {
            "number": 1,
            "ticks": 124110,
            "time": 182.939109609375,
            "value": 0.23622047244094488
          },
          {
            "number": 1,
            "ticks": 124116,
            "time": 182.94795365625,
            "value": 0.2204724409448819
          },
          {
            "number": 1,
            "ticks": 124118,
            "time": 182.95090167187502,
            "value": 0.2047244094488189
          },
          {
            "number": 1,
            "ticks": 124122,
            "time": 182.956797703125,
            "value": 0.1889763779527559
          },
          {
            "number": 1,
            "ticks": 124128,
            "time": 182.96564175,
            "value": 0.1732283464566929
          },
          {
            "number": 1,
            "ticks": 124130,
            "time": 182.968589765625,
            "value": 0.15748031496062992
          },
          {
            "number": 1,
            "ticks": 124136,
            "time": 182.9774338125,
            "value": 0.13385826771653545
          },
          {
            "number": 1,
            "ticks": 124140,
            "time": 182.98332984375003,
            "value": 0.09448818897637795
          },
          {
            "number": 1,
            "ticks": 124144,
            "time": 182.98922587500002,
            "value": 0.07874015748031496
          },
          {
            "number": 1,
            "ticks": 124152,
            "time": 183.00101793750002,
            "value": 0.03937007874015748
          },
          {
            "number": 1,
            "ticks": 124158,
            "time": 183.00986198437502,
            "value": 0.007874015748031496
          },
          {
            "number": 1,
            "ticks": 124178,
            "time": 183.039342140625,
            "value": 0
          },
          {
            "number": 1,
            "ticks": 124282,
            "time": 183.19263895312503,
            "value": 0.007874015748031496
          },
          {
            "number": 1,
            "ticks": 124304,
            "time": 183.225067125,
            "value": 0.015748031496062992
          },
          {
            "number": 1,
            "ticks": 124306,
            "time": 183.22801514062502,
            "value": 0.031496062992125984
          },
          {
            "number": 1,
            "ticks": 124310,
            "time": 183.233911171875,
            "value": 0.047244094488188976
          },
          {
            "number": 1,
            "ticks": 124312,
            "time": 183.23685918750002,
            "value": 0.06299212598425197
          },
          {
            "number": 1,
            "ticks": 124316,
            "time": 183.24275521875,
            "value": 0.07874015748031496
          },
          {
            "number": 1,
            "ticks": 124320,
            "time": 183.24865125000002,
            "value": 0.08661417322834646
          },
          {
            "number": 1,
            "ticks": 124324,
            "time": 183.25454728125004,
            "value": 0.10236220472440945
          },
          {
            "number": 1,
            "ticks": 124328,
            "time": 183.2604433125,
            "value": 0.11811023622047244
          },
          {
            "number": 1,
            "ticks": 124332,
            "time": 183.26633934375002,
            "value": 0.13385826771653545
          },
          {
            "number": 1,
            "ticks": 124336,
            "time": 183.27223537500004,
            "value": 0.14173228346456693
          },
          {
            "number": 1,
            "ticks": 124340,
            "time": 183.27813140625,
            "value": 0.14960629921259844
          },
          {
            "number": 1,
            "ticks": 124344,
            "time": 183.28402743750001,
            "value": 0.15748031496062992
          },
          {
            "number": 1,
            "ticks": 124348,
            "time": 183.28992346875003,
            "value": 0.16535433070866143
          },
          {
            "number": 1,
            "ticks": 124352,
            "time": 183.2958195,
            "value": 0.1732283464566929
          },
          {
            "number": 1,
            "ticks": 124360,
            "time": 183.30761156250003,
            "value": 0.18110236220472442
          },
          {
            "number": 1,
            "ticks": 124362,
            "time": 183.310559578125,
            "value": 0.1889763779527559
          },
          {
            "number": 1,
            "ticks": 124364,
            "time": 183.31350759375002,
            "value": 0.1968503937007874
          },
          {
            "number": 1,
            "ticks": 124370,
            "time": 183.32235164062502,
            "value": 0.2047244094488189
          },
          {
            "number": 1,
            "ticks": 124374,
            "time": 183.328247671875,
            "value": 0.2204724409448819
          },
          {
            "number": 1,
            "ticks": 124380,
            "time": 183.33709171875,
            "value": 0.2283464566929134
          },
          {
            "number": 1,
            "ticks": 124384,
            "time": 183.34298775000002,
            "value": 0.23622047244094488
          },
          {
            "number": 1,
            "ticks": 124390,
            "time": 183.35183179687502,
            "value": 0.2440944881889764
          },
          {
            "number": 1,
            "ticks": 124396,
            "time": 183.36067584375002,
            "value": 0.25984251968503935
          },
          {
            "number": 1,
            "ticks": 124400,
            "time": 183.366571875,
            "value": 0.2677165354330709
          },
          {
            "number": 1,
            "ticks": 124408,
            "time": 183.37836393750004,
            "value": 0.2755905511811024
          },
          {
            "number": 1,
            "ticks": 124412,
            "time": 183.38425996875,
            "value": 0.28346456692913385
          },
          {
            "number": 1,
            "ticks": 124420,
            "time": 183.39605203125004,
            "value": 0.29133858267716534
          },
          {
            "number": 1,
            "ticks": 124428,
            "time": 183.40784409375001,
            "value": 0.2992125984251969
          },
          {
            "number": 1,
            "ticks": 124434,
            "time": 183.416688140625,
            "value": 0.30708661417322836
          },
          {
            "number": 1,
            "ticks": 124444,
            "time": 183.43142821875003,
            "value": 0.31496062992125984
          },
          {
            "number": 1,
            "ticks": 124450,
            "time": 183.44027226562503,
            "value": 0.3228346456692913
          },
          {
            "number": 1,
            "ticks": 124458,
            "time": 183.452064328125,
            "value": 0.33070866141732286
          },
          {
            "number": 1,
            "ticks": 124510,
            "time": 183.52871273437503,
            "value": 0.3228346456692913
          },
          {
            "number": 1,
            "ticks": 124516,
            "time": 183.53755678125003,
            "value": 0.31496062992125984
          },
          {
            "number": 1,
            "ticks": 124520,
            "time": 183.5434528125,
            "value": 0.30708661417322836
          },
          {
            "number": 1,
            "ticks": 124526,
            "time": 183.55229685937502,
            "value": 0.29133858267716534
          },
          {
            "number": 1,
            "ticks": 124530,
            "time": 183.558192890625,
            "value": 0.28346456692913385
          },
          {
            "number": 1,
            "ticks": 124536,
            "time": 183.5670369375,
            "value": 0.2755905511811024
          },
          {
            "number": 1,
            "ticks": 124538,
            "time": 183.56998495312502,
            "value": 0.25984251968503935
          },
          {
            "number": 1,
            "ticks": 124544,
            "time": 183.578829,
            "value": 0.23622047244094488
          },
          {
            "number": 1,
            "ticks": 124552,
            "time": 183.59062106250002,
            "value": 0.1968503937007874
          },
          {
            "number": 1,
            "ticks": 124556,
            "time": 183.59651709375,
            "value": 0.1889763779527559
          },
          {
            "number": 1,
            "ticks": 124560,
            "time": 183.60241312500003,
            "value": 0.16535433070866143
          },
          {
            "number": 1,
            "ticks": 124566,
            "time": 183.61125717187502,
            "value": 0.12598425196850394
          },
          {
            "number": 1,
            "ticks": 124570,
            "time": 183.617153203125,
            "value": 0.11023622047244094
          },
          {
            "number": 1,
            "ticks": 124574,
            "time": 183.623049234375,
            "value": 0.08661417322834646
          },
          {
            "number": 1,
            "ticks": 124580,
            "time": 183.63189328125,
            "value": 0.06299212598425197
          },
          {
            "number": 1,
            "ticks": 124582,
            "time": 183.63484129687504,
            "value": 0.03937007874015748
          },
          {
            "number": 1,
            "ticks": 124588,
            "time": 183.64368534375004,
            "value": 0.007874015748031496
          },
          {
            "number": 1,
            "ticks": 124606,
            "time": 183.67021748437503,
            "value": 0
          },
          {
            "number": 1,
            "ticks": 126028,
            "time": 185.76625659375003,
            "value": 0.007874015748031496
          },
          {
            "number": 1,
            "ticks": 126048,
            "time": 185.79573675,
            "value": 0.023622047244094488
          },
          {
            "number": 1,
            "ticks": 126050,
            "time": 185.798684765625,
            "value": 0.031496062992125984
          },
          {
            "number": 1,
            "ticks": 126054,
            "time": 185.80458079687503,
            "value": 0.03937007874015748
          },
          {
            "number": 1,
            "ticks": 126058,
            "time": 185.81047682812502,
            "value": 0.047244094488188976
          },
          {
            "number": 1,
            "ticks": 126062,
            "time": 185.816372859375,
            "value": 0.06299212598425197
          },
          {
            "number": 1,
            "ticks": 126064,
            "time": 185.81932087500002,
            "value": 0.07086614173228346
          },
          {
            "number": 1,
            "ticks": 126070,
            "time": 185.82816492187501,
            "value": 0.07874015748031496
          },
          {
            "number": 1,
            "ticks": 126074,
            "time": 185.834060953125,
            "value": 0.09448818897637795
          },
          {
            "number": 1,
            "ticks": 126078,
            "time": 185.83995698437502,
            "value": 0.10236220472440945
          },
          {
            "number": 1,
            "ticks": 126082,
            "time": 185.84585301562504,
            "value": 0.11023622047244094
          },
          {
            "number": 1,
            "ticks": 126086,
            "time": 185.851749046875,
            "value": 0.12598425196850394
          },
          {
            "number": 1,
            "ticks": 126090,
            "time": 185.85764507812502,
            "value": 0.13385826771653545
          },
          {
            "number": 1,
            "ticks": 126094,
            "time": 185.86354110937503,
            "value": 0.14960629921259844
          },
          {
            "number": 1,
            "ticks": 126098,
            "time": 185.869437140625,
            "value": 0.15748031496062992
          },
          {
            "number": 1,
            "ticks": 126102,
            "time": 185.875333171875,
            "value": 0.16535433070866143
          },
          {
            "number": 1,
            "ticks": 126106,
            "time": 185.88122920312503,
            "value": 0.18110236220472442
          },
          {
            "number": 1,
            "ticks": 126110,
            "time": 185.887125234375,
            "value": 0.1968503937007874
          },
          {
            "number": 1,
            "ticks": 126112,
            "time": 185.89007325000003,
            "value": 0.2047244094488189
          },
          {
            "number": 1,
            "ticks": 126118,
            "time": 185.89891729687503,
            "value": 0.2125984251968504
          },
          {
            "number": 1,
            "ticks": 126122,
            "time": 185.90481332812502,
            "value": 0.2283464566929134
          },
          {
            "number": 1,
            "ticks": 126126,
            "time": 185.910709359375,
            "value": 0.23622047244094488
          },
          {
            "number": 1,
            "ticks": 126128,
            "time": 185.913657375,
            "value": 0.2440944881889764
          },
          {
            "number": 1,
            "ticks": 126134,
            "time": 185.922501421875,
            "value": 0.25984251968503935
          },
          {
            "number": 1,
            "ticks": 126138,
            "time": 185.92839745312503,
            "value": 0.2677165354330709
          },
          {
            "number": 1,
            "ticks": 126140,
            "time": 185.93134546875,
            "value": 0.2755905511811024
          },
          {
            "number": 1,
            "ticks": 126144,
            "time": 185.93724150000003,
            "value": 0.28346456692913385
          },
          {
            "number": 1,
            "ticks": 126148,
            "time": 185.94313753125002,
            "value": 0.29133858267716534
          },
          {
            "number": 1,
            "ticks": 126156,
            "time": 185.95492959375002,
            "value": 0.2992125984251969
          },
          {
            "number": 1,
            "ticks": 126158,
            "time": 185.957877609375,
            "value": 0.30708661417322836
          },
          {
            "number": 1,
            "ticks": 126166,
            "time": 185.96966967187504,
            "value": 0.31496062992125984
          },
          {
            "number": 1,
            "ticks": 126178,
            "time": 185.98735776562503,
            "value": 0.3228346456692913
          },
          {
            "number": 1,
            "ticks": 126212,
            "time": 186.03747403125,
            "value": 0.31496062992125984
          },
          {
            "number": 1,
            "ticks": 126218,
            "time": 186.046318078125,
            "value": 0.30708661417322836
          },
          {
            "number": 1,
            "ticks": 126224,
            "time": 186.055162125,
            "value": 0.2992125984251969
          },
          {
            "number": 1,
            "ticks": 126226,
            "time": 186.05811014062502,
            "value": 0.28346456692913385
          },
          {
            "number": 1,
            "ticks": 126230,
            "time": 186.064006171875,
            "value": 0.2755905511811024
          },
          {
            "number": 1,
            "ticks": 126236,
            "time": 186.07285021875,
            "value": 0.25984251968503935
          },
          {
            "number": 1,
            "ticks": 126238,
            "time": 186.07579823437501,
            "value": 0.25196850393700787
          },
          {
            "number": 1,
            "ticks": 126242,
            "time": 186.081694265625,
            "value": 0.23622047244094488
          },
          {
            "number": 1,
            "ticks": 126246,
            "time": 186.08759029687502,
            "value": 0.2204724409448819
          },
          {
            "number": 1,
            "ticks": 126250,
            "time": 186.09348632812504,
            "value": 0.2047244094488189
          },
          {
            "number": 1,
            "ticks": 126252,
            "time": 186.09643434375002,
            "value": 0.1889763779527559
          },
          {
            "number": 1,
            "ticks": 126258,
            "time": 186.10527839062502,
            "value": 0.1732283464566929
          },
          {
            "number": 1,
            "ticks": 126260,
            "time": 186.10822640625,
            "value": 0.14960629921259844
          },
          {
            "number": 1,
            "ticks": 126266,
            "time": 186.117070453125,
            "value": 0.13385826771653545
          },
          {
            "number": 1,
            "ticks": 126270,
            "time": 186.122966484375,
            "value": 0.11023622047244094
          },
          {
            "number": 1,
            "ticks": 126274,
            "time": 186.12886251562503,
            "value": 0.09448818897637795
          },
          {
            "number": 1,
            "ticks": 126278,
            "time": 186.13475854687502,
            "value": 0.07086614173228346
          },
          {
            "number": 1,
            "ticks": 126282,
            "time": 186.140654578125,
            "value": 0.05511811023622047
          },
          {
            "number": 1,
            "ticks": 126286,
            "time": 186.14655060937503,
            "value": 0.023622047244094488
          },
          {
            "number": 1,
            "ticks": 126290,
            "time": 186.15244664062502,
            "value": 0.007874015748031496
          },
          {
            "number": 1,
            "ticks": 126304,
            "time": 186.17308275000002,
            "value": 0
          },
          {
            "number": 1,
            "ticks": 137258,
            "time": 202.319364328125,
            "value": 0.007874015748031496
          },
          {
            "number": 1,
            "ticks": 137394,
            "time": 202.519829390625,
            "value": 0.015748031496062992
          },
          {
            "number": 1,
            "ticks": 137404,
            "time": 202.53456946875002,
            "value": 0.023622047244094488
          },
          {
            "number": 1,
            "ticks": 137416,
            "time": 202.55225756250002,
            "value": 0.031496062992125984
          },
          {
            "number": 1,
            "ticks": 137426,
            "time": 202.566997640625,
            "value": 0.03937007874015748
          },
          {
            "number": 1,
            "ticks": 137438,
            "time": 202.584685734375,
            "value": 0.047244094488188976
          },
          {
            "number": 1,
            "ticks": 137450,
            "time": 202.602373828125,
            "value": 0.05511811023622047
          },
          {
            "number": 1,
            "ticks": 137460,
            "time": 202.61711390625,
            "value": 0.06299212598425197
          },
          {
            "number": 1,
            "ticks": 137472,
            "time": 202.634802,
            "value": 0.07086614173228346
          },
          {
            "number": 1,
            "ticks": 137486,
            "time": 202.655438109375,
            "value": 0.07874015748031496
          },
          {
            "number": 1,
            "ticks": 137498,
            "time": 202.673126203125,
            "value": 0.08661417322834646
          },
          {
            "number": 1,
            "ticks": 137512,
            "time": 202.69376231250004,
            "value": 0.09448818897637795
          },
          {
            "number": 1,
            "ticks": 137522,
            "time": 202.708502390625,
            "value": 0.10236220472440945
          },
          {
            "number": 1,
            "ticks": 137536,
            "time": 202.72913850000003,
            "value": 0.11023622047244094
          },
          {
            "number": 1,
            "ticks": 137550,
            "time": 202.749774609375,
            "value": 0.11811023622047244
          },
          {
            "number": 1,
            "ticks": 137560,
            "time": 202.76451468750003,
            "value": 0.12598425196850394
          },
          {
            "number": 1,
            "ticks": 137572,
            "time": 202.78220278125002,
            "value": 0.13385826771653545
          },
          {
            "number": 1,
            "ticks": 137586,
            "time": 202.80283889062503,
            "value": 0.14173228346456693
          },
          {
            "number": 1,
            "ticks": 137602,
            "time": 202.82642301562504,
            "value": 0.14960629921259844
          },
          {
            "number": 1,
            "ticks": 137620,
            "time": 202.85295515625003,
            "value": 0.15748031496062992
          },
          {
            "number": 1,
            "ticks": 137642,
            "time": 202.88538332812502,
            "value": 0.16535433070866143
          },
          {
            "number": 1,
            "ticks": 137740,
            "time": 203.02983609375002,
            "value": 0.15748031496062992
          },
          {
            "number": 1,
            "ticks": 137754,
            "time": 203.05047220312503,
            "value": 0.14960629921259844
          },
          {
            "number": 1,
            "ticks": 137764,
            "time": 203.06521228125004,
            "value": 0.14173228346456693
          },
          {
            "number": 1,
            "ticks": 137774,
            "time": 203.079952359375,
            "value": 0.13385826771653545
          },
          {
            "number": 1,
            "ticks": 137780,
            "time": 203.08879640625,
            "value": 0.12598425196850394
          },
          {
            "number": 1,
            "ticks": 137786,
            "time": 203.097640453125,
            "value": 0.11811023622047244
          },
          {
            "number": 1,
            "ticks": 137794,
            "time": 203.10943251562503,
            "value": 0.11023622047244094
          },
          {
            "number": 1,
            "ticks": 137802,
            "time": 203.121224578125,
            "value": 0.09448818897637795
          },
          {
            "number": 1,
            "ticks": 137810,
            "time": 203.13301664062502,
            "value": 0.08661417322834646
          },
          {
            "number": 1,
            "ticks": 137816,
            "time": 203.1418606875,
            "value": 0.07874015748031496
          },
          {
            "number": 1,
            "ticks": 137820,
            "time": 203.14775671875003,
            "value": 0.06299212598425197
          },
          {
            "number": 1,
            "ticks": 137826,
            "time": 203.15660076562503,
            "value": 0.05511811023622047
          },
          {
            "number": 1,
            "ticks": 137828,
            "time": 203.15954878125,
            "value": 0.03937007874015748
          },
          {
            "number": 1,
            "ticks": 137832,
            "time": 203.16544481250003,
            "value": 0.031496062992125984
          },
          {
            "number": 1,
            "ticks": 137834,
            "time": 203.168392828125,
            "value": 0.007874015748031496
          },
          {
            "number": 1,
            "ticks": 137856,
            "time": 203.20082100000002,
            "value": 0
          },
          {
            "number": 1,
            "ticks": 146374,
            "time": 215.75641954687504,
            "value": 0.007874015748031496
          },
          {
            "number": 1,
            "ticks": 146432,
            "time": 215.841912,
            "value": 0.015748031496062992
          },
          {
            "number": 1,
            "ticks": 146440,
            "time": 215.85370406250004,
            "value": 0.023622047244094488
          },
          {
            "number": 1,
            "ticks": 146444,
            "time": 215.85960009375,
            "value": 0.031496062992125984
          },
          {
            "number": 1,
            "ticks": 146448,
            "time": 215.86549612500002,
            "value": 0.03937007874015748
          },
          {
            "number": 1,
            "ticks": 146452,
            "time": 215.87139215625004,
            "value": 0.047244094488188976
          },
          {
            "number": 1,
            "ticks": 146456,
            "time": 215.8772881875,
            "value": 0.05511811023622047
          },
          {
            "number": 1,
            "ticks": 146458,
            "time": 215.88023620312504,
            "value": 0.06299212598425197
          },
          {
            "number": 1,
            "ticks": 146466,
            "time": 215.89202826562502,
            "value": 0.07086614173228346
          },
          {
            "number": 1,
            "ticks": 146470,
            "time": 215.89792429687503,
            "value": 0.07874015748031496
          },
          {
            "number": 1,
            "ticks": 146476,
            "time": 215.90676834375003,
            "value": 0.08661417322834646
          },
          {
            "number": 1,
            "ticks": 146480,
            "time": 215.91266437500002,
            "value": 0.09448818897637795
          },
          {
            "number": 1,
            "ticks": 146484,
            "time": 215.91856040625,
            "value": 0.10236220472440945
          },
          {
            "number": 1,
            "ticks": 146486,
            "time": 215.92150842187502,
            "value": 0.11023622047244094
          },
          {
            "number": 1,
            "ticks": 146490,
            "time": 215.927404453125,
            "value": 0.11811023622047244
          },
          {
            "number": 1,
            "ticks": 146496,
            "time": 215.9362485,
            "value": 0.13385826771653545
          },
          {
            "number": 1,
            "ticks": 146498,
            "time": 215.939196515625,
            "value": 0.14173228346456693
          },
          {
            "number": 1,
            "ticks": 146500,
            "time": 215.94214453125002,
            "value": 0.14960629921259844
          },
          {
            "number": 1,
            "ticks": 146506,
            "time": 215.95098857812502,
            "value": 0.15748031496062992
          },
          {
            "number": 1,
            "ticks": 146510,
            "time": 215.956884609375,
            "value": 0.1732283464566929
          },
          {
            "number": 1,
            "ticks": 146512,
            "time": 215.95983262500002,
            "value": 0.18110236220472442
          },
          {
            "number": 1,
            "ticks": 146518,
            "time": 215.96867667187502,
            "value": 0.1968503937007874
          },
          {
            "number": 1,
            "ticks": 146520,
            "time": 215.97162468750003,
            "value": 0.2047244094488189
          },
          {
            "number": 1,
            "ticks": 146524,
            "time": 215.97752071875004,
            "value": 0.2125984251968504
          },
          {
            "number": 1,
            "ticks": 146528,
            "time": 215.98341675,
            "value": 0.2204724409448819
          },
          {
            "number": 1,
            "ticks": 146532,
            "time": 215.98931278125002,
            "value": 0.2283464566929134
          },
          {
            "number": 1,
            "ticks": 146538,
            "time": 215.99815682812502,
            "value": 0.2440944881889764
          },
          {
            "number": 1,
            "ticks": 146542,
            "time": 216.00405285937504,
            "value": 0.25196850393700787
          },
          {
            "number": 1,
            "ticks": 146544,
            "time": 216.00700087500002,
            "value": 0.25984251968503935
          },
          {
            "number": 1,
            "ticks": 146550,
            "time": 216.01584492187501,
            "value": 0.2677165354330709
          },
          {
            "number": 1,
            "ticks": 146554,
            "time": 216.02174095312503,
            "value": 0.2755905511811024
          },
          {
            "number": 1,
            "ticks": 146560,
            "time": 216.03058500000003,
            "value": 0.28346456692913385
          },
          {
            "number": 1,
            "ticks": 146564,
            "time": 216.03648103125002,
            "value": 0.29133858267716534
          },
          {
            "number": 1,
            "ticks": 146568,
            "time": 216.0423770625,
            "value": 0.30708661417322836
          },
          {
            "number": 1,
            "ticks": 146574,
            "time": 216.051221109375,
            "value": 0.31496062992125984
          },
          {
            "number": 1,
            "ticks": 146576,
            "time": 216.05416912500002,
            "value": 0.3228346456692913
          },
          {
            "number": 1,
            "ticks": 146578,
            "time": 216.05711714062502,
            "value": 0.33070866141732286
          },
          {
            "number": 1,
            "ticks": 146586,
            "time": 216.06890920312503,
            "value": 0.33858267716535434
          },
          {
            "number": 1,
            "ticks": 146594,
            "time": 216.080701265625,
            "value": 0.3464566929133858
          },
          {
            "number": 1,
            "ticks": 146610,
            "time": 216.10428539062502,
            "value": 0.33858267716535434
          },
          {
            "number": 1,
            "ticks": 146618,
            "time": 216.116077453125,
            "value": 0.3228346456692913
          },
          {
            "number": 1,
            "ticks": 146624,
            "time": 216.1249215,
            "value": 0.31496062992125984
          },
          {
            "number": 1,
            "ticks": 146626,
            "time": 216.12786951562504,
            "value": 0.2992125984251969
          },
          {
            "number": 1,
            "ticks": 146630,
            "time": 216.133765546875,
            "value": 0.28346456692913385
          },
          {
            "number": 1,
            "ticks": 146634,
            "time": 216.13966157812501,
            "value": 0.2677165354330709
          },
          {
            "number": 1,
            "ticks": 146638,
            "time": 216.14555760937503,
            "value": 0.25196850393700787
          },
          {
            "number": 1,
            "ticks": 146646,
            "time": 216.157349671875,
            "value": 0.2283464566929134
          },
          {
            "number": 1,
            "ticks": 146648,
            "time": 216.16029768750002,
            "value": 0.2047244094488189
          },
          {
            "number": 1,
            "ticks": 146654,
            "time": 216.16914173437502,
            "value": 0.1968503937007874
          },
          {
            "number": 1,
            "ticks": 146658,
            "time": 216.175037765625,
            "value": 0.18110236220472442
          },
          {
            "number": 1,
            "ticks": 146662,
            "time": 216.18093379687502,
            "value": 0.16535433070866143
          },
          {
            "number": 1,
            "ticks": 146664,
            "time": 216.18388181250003,
            "value": 0.14960629921259844
          },
          {
            "number": 1,
            "ticks": 146670,
            "time": 216.19272585937503,
            "value": 0.14173228346456693
          },
          {
            "number": 1,
            "ticks": 146672,
            "time": 216.195673875,
            "value": 0.12598425196850394
          },
          {
            "number": 1,
            "ticks": 146678,
            "time": 216.204517921875,
            "value": 0.10236220472440945
          },
          {
            "number": 1,
            "ticks": 146680,
            "time": 216.20746593750002,
            "value": 0.09448818897637795
          },
          {
            "number": 1,
            "ticks": 146686,
            "time": 216.21630998437502,
            "value": 0.07874015748031496
          },
          {
            "number": 1,
            "ticks": 146688,
            "time": 216.21925800000002,
            "value": 0.06299212598425197
          },
          {
            "number": 1,
            "ticks": 146694,
            "time": 216.22810204687502,
            "value": 0.047244094488188976
          },
          {
            "number": 1,
            "ticks": 146698,
            "time": 216.23399807812504,
            "value": 0.031496062992125984
          },
          {
            "number": 1,
            "ticks": 146700,
            "time": 216.23694609375002,
            "value": 0.007874015748031496
          },
          {
            "number": 1,
            "ticks": 146724,
            "time": 216.27232228125,
            "value": 0
          },
          {
            "number": 1,
            "ticks": 149104,
            "time": 219.78046087500002,
            "value": 0.007874015748031496
          },
          {
            "number": 1,
            "ticks": 149194,
            "time": 219.91312157812504,
            "value": 0.015748031496062992
          },
          {
            "number": 1,
            "ticks": 149204,
            "time": 219.92786165625,
            "value": 0.023622047244094488
          },
          {
            "number": 1,
            "ticks": 149210,
            "time": 219.936705703125,
            "value": 0.031496062992125984
          },
          {
            "number": 1,
            "ticks": 149220,
            "time": 219.95144578125002,
            "value": 0.03937007874015748
          },
          {
            "number": 1,
            "ticks": 149234,
            "time": 219.97208189062502,
            "value": 0.047244094488188976
          },
          {
            "number": 1,
            "ticks": 149236,
            "time": 219.97502990625003,
            "value": 0.05511811023622047
          },
          {
            "number": 1,
            "ticks": 149246,
            "time": 219.98976998437502,
            "value": 0.06299212598425197
          },
          {
            "number": 1,
            "ticks": 149258,
            "time": 220.007458078125,
            "value": 0.07086614173228346
          },
          {
            "number": 1,
            "ticks": 149264,
            "time": 220.016302125,
            "value": 0.07874015748031496
          },
          {
            "number": 1,
            "ticks": 149272,
            "time": 220.02809418750002,
            "value": 0.08661417322834646
          },
          {
            "number": 1,
            "ticks": 149278,
            "time": 220.03693823437504,
            "value": 0.09448818897637795
          },
          {
            "number": 1,
            "ticks": 149286,
            "time": 220.04873029687502,
            "value": 0.10236220472440945
          },
          {
            "number": 1,
            "ticks": 149294,
            "time": 220.060522359375,
            "value": 0.11023622047244094
          },
          {
            "number": 1,
            "ticks": 149302,
            "time": 220.07231442187503,
            "value": 0.11811023622047244
          },
          {
            "number": 1,
            "ticks": 149308,
            "time": 220.08115846875003,
            "value": 0.12598425196850394
          },
          {
            "number": 1,
            "ticks": 149312,
            "time": 220.08705450000002,
            "value": 0.13385826771653545
          },
          {
            "number": 1,
            "ticks": 149322,
            "time": 220.101794578125,
            "value": 0.14173228346456693
          },
          {
            "number": 1,
            "ticks": 149330,
            "time": 220.11358664062502,
            "value": 0.14960629921259844
          },
          {
            "number": 1,
            "ticks": 149338,
            "time": 220.12537870312502,
            "value": 0.15748031496062992
          },
          {
            "number": 1,
            "ticks": 149344,
            "time": 220.13422275000002,
            "value": 0.16535433070866143
          },
          {
            "number": 1,
            "ticks": 149352,
            "time": 220.14601481250003,
            "value": 0.1732283464566929
          },
          {
            "number": 1,
            "ticks": 149358,
            "time": 220.15485885937503,
            "value": 0.18110236220472442
          },
          {
            "number": 1,
            "ticks": 149364,
            "time": 220.16370290625002,
            "value": 0.1889763779527559
          },
          {
            "number": 1,
            "ticks": 149372,
            "time": 220.17549496875,
            "value": 0.1968503937007874
          },
          {
            "number": 1,
            "ticks": 149376,
            "time": 220.18139100000002,
            "value": 0.2047244094488189
          },
          {
            "number": 1,
            "ticks": 149382,
            "time": 220.19023504687502,
            "value": 0.2125984251968504
          },
          {
            "number": 1,
            "ticks": 149390,
            "time": 220.202027109375,
            "value": 0.2204724409448819
          },
          {
            "number": 1,
            "ticks": 149396,
            "time": 220.21087115625002,
            "value": 0.2283464566929134
          },
          {
            "number": 1,
            "ticks": 149402,
            "time": 220.21971520312502,
            "value": 0.23622047244094488
          },
          {
            "number": 1,
            "ticks": 149412,
            "time": 220.23445528125,
            "value": 0.2440944881889764
          },
          {
            "number": 1,
            "ticks": 149420,
            "time": 220.24624734375,
            "value": 0.25196850393700787
          },
          {
            "number": 1,
            "ticks": 149424,
            "time": 220.25214337500003,
            "value": 0.25984251968503935
          },
          {
            "number": 1,
            "ticks": 149432,
            "time": 220.2639354375,
            "value": 0.2677165354330709
          },
          {
            "number": 1,
            "ticks": 149438,
            "time": 220.272779484375,
            "value": 0.2755905511811024
          },
          {
            "number": 1,
            "ticks": 149448,
            "time": 220.28751956250002,
            "value": 0.28346456692913385
          },
          {
            "number": 1,
            "ticks": 149456,
            "time": 220.299311625,
            "value": 0.29133858267716534
          },
          {
            "number": 1,
            "ticks": 149464,
            "time": 220.31110368750004,
            "value": 0.2992125984251969
          },
          {
            "number": 1,
            "ticks": 149478,
            "time": 220.331739796875,
            "value": 0.30708661417322836
          },
          {
            "number": 1,
            "ticks": 149480,
            "time": 220.33468781250002,
            "value": 0.31496062992125984
          },
          {
            "number": 1,
            "ticks": 149494,
            "time": 220.35532392187503,
            "value": 0.3228346456692913
          },
          {
            "number": 1,
            "ticks": 149558,
            "time": 220.449660421875,
            "value": 0.31496062992125984
          },
          {
            "number": 1,
            "ticks": 149568,
            "time": 220.4644005,
            "value": 0.30708661417322836
          },
          {
            "number": 1,
            "ticks": 149576,
            "time": 220.47619256250002,
            "value": 0.2992125984251969
          },
          {
            "number": 1,
            "ticks": 149584,
            "time": 220.48798462500002,
            "value": 0.29133858267716534
          },
          {
            "number": 1,
            "ticks": 149590,
            "time": 220.49682867187502,
            "value": 0.28346456692913385
          },
          {
            "number": 1,
            "ticks": 149598,
            "time": 220.50862073437503,
            "value": 0.2755905511811024
          },
          {
            "number": 1,
            "ticks": 149602,
            "time": 220.51451676562502,
            "value": 0.2677165354330709
          },
          {
            "number": 1,
            "ticks": 149610,
            "time": 220.52630882812502,
            "value": 0.25196850393700787
          },
          {
            "number": 1,
            "ticks": 149614,
            "time": 220.53220485937504,
            "value": 0.2440944881889764
          },
          {
            "number": 1,
            "ticks": 149618,
            "time": 220.538100890625,
            "value": 0.23622047244094488
          },
          {
            "number": 1,
            "ticks": 149626,
            "time": 220.54989295312504,
            "value": 0.2204724409448819
          },
          {
            "number": 1,
            "ticks": 149634,
            "time": 220.56168501562502,
            "value": 0.2047244094488189
          },
          {
            "number": 1,
            "ticks": 149636,
            "time": 220.56463303125,
            "value": 0.1968503937007874
          },
          {
            "number": 1,
            "ticks": 149640,
            "time": 220.57052906250001,
            "value": 0.1889763779527559
          },
          {
            "number": 1,
            "ticks": 149648,
            "time": 220.58232112500002,
            "value": 0.16535433070866143
          },
          {
            "number": 1,
            "ticks": 149652,
            "time": 220.58821715625,
            "value": 0.15748031496062992
          },
          {
            "number": 1,
            "ticks": 149656,
            "time": 220.59411318750003,
            "value": 0.14960629921259844
          },
          {
            "number": 1,
            "ticks": 149660,
            "time": 220.60000921875002,
            "value": 0.14173228346456693
          },
          {
            "number": 1,
            "ticks": 149664,
            "time": 220.60590525,
            "value": 0.13385826771653545
          },
          {
            "number": 1,
            "ticks": 149668,
            "time": 220.61180128125002,
            "value": 0.12598425196850394
          },
          {
            "number": 1,
            "ticks": 149672,
            "time": 220.6176973125,
            "value": 0.11811023622047244
          },
          {
            "number": 1,
            "ticks": 149678,
            "time": 220.626541359375,
            "value": 0.09448818897637795
          },
          {
            "number": 1,
            "ticks": 149682,
            "time": 220.63243739062503,
            "value": 0.08661417322834646
          },
          {
            "number": 1,
            "ticks": 149684,
            "time": 220.63538540625,
            "value": 0.07874015748031496
          },
          {
            "number": 1,
            "ticks": 149690,
            "time": 220.644229453125,
            "value": 0.07086614173228346
          },
          {
            "number": 1,
            "ticks": 149692,
            "time": 220.64717746875004,
            "value": 0.06299212598425197
          },
          {
            "number": 1,
            "ticks": 149696,
            "time": 220.6530735,
            "value": 0.047244094488188976
          },
          {
            "number": 1,
            "ticks": 149700,
            "time": 220.65896953125002,
            "value": 0.03937007874015748
          },
          {
            "number": 1,
            "ticks": 149706,
            "time": 220.66781357812502,
            "value": 0.007874015748031496
          },
          {
            "number": 1,
            "ticks": 149742,
            "time": 220.720877859375,
            "value": 0
          },
          {
            "number": 1,
            "ticks": 158662,
            "time": 233.86902754687503,
            "value": 0.007874015748031496
          },
          {
            "number": 1,
            "ticks": 158720,
            "time": 233.95452,
            "value": 0.015748031496062992
          },
          {
            "number": 1,
            "ticks": 158728,
            "time": 233.96631206250004,
            "value": 0.023622047244094488
          },
          {
            "number": 1,
            "ticks": 158732,
            "time": 233.97220809375,
            "value": 0.031496062992125984
          },
          {
            "number": 1,
            "ticks": 158736,
            "time": 233.97810412500002,
            "value": 0.03937007874015748
          },
          {
            "number": 1,
            "ticks": 158740,
            "time": 233.98400015625003,
            "value": 0.047244094488188976
          },
          {
            "number": 1,
            "ticks": 158744,
            "time": 233.98989618750002,
            "value": 0.05511811023622047
          },
          {
            "number": 1,
            "ticks": 158746,
            "time": 233.99284420312503,
            "value": 0.06299212598425197
          },
          {
            "number": 1,
            "ticks": 158754,
            "time": 234.004636265625,
            "value": 0.07086614173228346
          },
          {
            "number": 1,
            "ticks": 158758,
            "time": 234.01053229687503,
            "value": 0.07874015748031496
          },
          {
            "number": 1,
            "ticks": 158764,
            "time": 234.01937634375003,
            "value": 0.08661417322834646
          },
          {
            "number": 1,
            "ticks": 158768,
            "time": 234.02527237500001,
            "value": 0.09448818897637795
          },
          {
            "number": 1,
            "ticks": 158772,
            "time": 234.03116840625003,
            "value": 0.10236220472440945
          },
          {
            "number": 1,
            "ticks": 158774,
            "time": 234.034116421875,
            "value": 0.11023622047244094
          },
          {
            "number": 1,
            "ticks": 158778,
            "time": 234.04001245312503,
            "value": 0.11811023622047244
          },
          {
            "number": 1,
            "ticks": 158784,
            "time": 234.04885650000003,
            "value": 0.13385826771653545
          },
          {
            "number": 1,
            "ticks": 158786,
            "time": 234.051804515625,
            "value": 0.14173228346456693
          },
          {
            "number": 1,
            "ticks": 158788,
            "time": 234.05475253125005,
            "value": 0.14960629921259844
          },
          {
            "number": 1,
            "ticks": 158794,
            "time": 234.06359657812504,
            "value": 0.15748031496062992
          },
          {
            "number": 1,
            "ticks": 158798,
            "time": 234.069492609375,
            "value": 0.1732283464566929
          },
          {
            "number": 1,
            "ticks": 158800,
            "time": 234.07244062500004,
            "value": 0.18110236220472442
          },
          {
            "number": 1,
            "ticks": 158806,
            "time": 234.08128467187504,
            "value": 0.1968503937007874
          },
          {
            "number": 1,
            "ticks": 158808,
            "time": 234.08423268750002,
            "value": 0.2047244094488189
          },
          {
            "number": 1,
            "ticks": 158812,
            "time": 234.09012871875004,
            "value": 0.2125984251968504
          },
          {
            "number": 1,
            "ticks": 158816,
            "time": 234.09602475,
            "value": 0.2204724409448819
          },
          {
            "number": 1,
            "ticks": 158820,
            "time": 234.10192078125002,
            "value": 0.2283464566929134
          },
          {
            "number": 1,
            "ticks": 158826,
            "time": 234.110764828125,
            "value": 0.2440944881889764
          },
          {
            "number": 1,
            "ticks": 158830,
            "time": 234.11666085937503,
            "value": 0.25196850393700787
          },
          {
            "number": 1,
            "ticks": 158832,
            "time": 234.119608875,
            "value": 0.25984251968503935
          },
          {
            "number": 1,
            "ticks": 158838,
            "time": 234.128452921875,
            "value": 0.2677165354330709
          },
          {
            "number": 1,
            "ticks": 158842,
            "time": 234.13434895312503,
            "value": 0.2755905511811024
          },
          {
            "number": 1,
            "ticks": 158848,
            "time": 234.14319300000002,
            "value": 0.28346456692913385
          },
          {
            "number": 1,
            "ticks": 158852,
            "time": 234.14908903125,
            "value": 0.29133858267716534
          },
          {
            "number": 1,
            "ticks": 158856,
            "time": 234.15498506250003,
            "value": 0.30708661417322836
          },
          {
            "number": 1,
            "ticks": 158862,
            "time": 234.16382910937503,
            "value": 0.31496062992125984
          },
          {
            "number": 1,
            "ticks": 158864,
            "time": 234.166777125,
            "value": 0.3228346456692913
          },
          {
            "number": 1,
            "ticks": 158866,
            "time": 234.16972514062502,
            "value": 0.33070866141732286
          },
          {
            "number": 1,
            "ticks": 158874,
            "time": 234.18151720312503,
            "value": 0.33858267716535434
          },
          {
            "number": 1,
            "ticks": 158882,
            "time": 234.193309265625,
            "value": 0.3464566929133858
          },
          {
            "number": 1,
            "ticks": 158898,
            "time": 234.21689339062502,
            "value": 0.33858267716535434
          },
          {
            "number": 1,
            "ticks": 158906,
            "time": 234.228685453125,
            "value": 0.3228346456692913
          },
          {
            "number": 1,
            "ticks": 158912,
            "time": 234.23752950000002,
            "value": 0.31496062992125984
          },
          {
            "number": 1,
            "ticks": 158914,
            "time": 234.24047751562503,
            "value": 0.2992125984251969
          },
          {
            "number": 1,
            "ticks": 158918,
            "time": 234.24637354687502,
            "value": 0.28346456692913385
          },
          {
            "number": 1,
            "ticks": 158922,
            "time": 234.252269578125,
            "value": 0.2677165354330709
          },
          {
            "number": 1,
            "ticks": 158926,
            "time": 234.25816560937503,
            "value": 0.25196850393700787
          },
          {
            "number": 1,
            "ticks": 158934,
            "time": 234.26995767187503,
            "value": 0.2283464566929134
          },
          {
            "number": 1,
            "ticks": 158936,
            "time": 234.2729056875,
            "value": 0.2047244094488189
          },
          {
            "number": 1,
            "ticks": 158942,
            "time": 234.281749734375,
            "value": 0.1968503937007874
          },
          {
            "number": 1,
            "ticks": 158946,
            "time": 234.28764576562503,
            "value": 0.18110236220472442
          },
          {
            "number": 1,
            "ticks": 158950,
            "time": 234.29354179687502,
            "value": 0.16535433070866143
          },
          {
            "number": 1,
            "ticks": 158952,
            "time": 234.29648981250003,
            "value": 0.14960629921259844
          },
          {
            "number": 1,
            "ticks": 158958,
            "time": 234.30533385937503,
            "value": 0.14173228346456693
          },
          {
            "number": 1,
            "ticks": 158960,
            "time": 234.308281875,
            "value": 0.12598425196850394
          },
          {
            "number": 1,
            "ticks": 158966,
            "time": 234.317125921875,
            "value": 0.10236220472440945
          },
          {
            "number": 1,
            "ticks": 158968,
            "time": 234.32007393750004,
            "value": 0.09448818897637795
          },
          {
            "number": 1,
            "ticks": 158974,
            "time": 234.32891798437504,
            "value": 0.07874015748031496
          },
          {
            "number": 1,
            "ticks": 158976,
            "time": 234.33186600000002,
            "value": 0.06299212598425197
          },
          {
            "number": 1,
            "ticks": 158982,
            "time": 234.34071004687502,
            "value": 0.047244094488188976
          },
          {
            "number": 1,
            "ticks": 158986,
            "time": 234.34660607812503,
            "value": 0.031496062992125984
          },
          {
            "number": 1,
            "ticks": 158988,
            "time": 234.34955409375002,
            "value": 0.007874015748031496
          },
          {
            "number": 1,
            "ticks": 159012,
            "time": 234.38493028125,
            "value": 0
          },
          {
            "number": 1,
            "ticks": 161392,
            "time": 237.89306887500004,
            "value": 0.007874015748031496
          },
          {
            "number": 1,
            "ticks": 161482,
            "time": 238.02572957812504,
            "value": 0.015748031496062992
          },
          {
            "number": 1,
            "ticks": 161492,
            "time": 238.04046965625,
            "value": 0.023622047244094488
          },
          {
            "number": 1,
            "ticks": 161498,
            "time": 238.04931370312502,
            "value": 0.031496062992125984
          },
          {
            "number": 1,
            "ticks": 161508,
            "time": 238.06405378125,
            "value": 0.03937007874015748
          },
          {
            "number": 1,
            "ticks": 161522,
            "time": 238.08468989062501,
            "value": 0.047244094488188976
          },
          {
            "number": 1,
            "ticks": 161524,
            "time": 238.08763790625002,
            "value": 0.05511811023622047
          },
          {
            "number": 1,
            "ticks": 161534,
            "time": 238.102377984375,
            "value": 0.06299212598425197
          },
          {
            "number": 1,
            "ticks": 161546,
            "time": 238.120066078125,
            "value": 0.07086614173228346
          },
          {
            "number": 1,
            "ticks": 161552,
            "time": 238.128910125,
            "value": 0.07874015748031496
          },
          {
            "number": 1,
            "ticks": 161560,
            "time": 238.14070218750004,
            "value": 0.08661417322834646
          },
          {
            "number": 1,
            "ticks": 161566,
            "time": 238.14954623437504,
            "value": 0.09448818897637795
          },
          {
            "number": 1,
            "ticks": 161574,
            "time": 238.16133829687502,
            "value": 0.10236220472440945
          },
          {
            "number": 1,
            "ticks": 161582,
            "time": 238.17313035937502,
            "value": 0.11023622047244094
          },
          {
            "number": 1,
            "ticks": 161590,
            "time": 238.18492242187503,
            "value": 0.11811023622047244
          },
          {
            "number": 1,
            "ticks": 161596,
            "time": 238.19376646875003,
            "value": 0.12598425196850394
          },
          {
            "number": 1,
            "ticks": 161600,
            "time": 238.19966250000002,
            "value": 0.13385826771653545
          },
          {
            "number": 1,
            "ticks": 161610,
            "time": 238.21440257812503,
            "value": 0.14173228346456693
          },
          {
            "number": 1,
            "ticks": 161618,
            "time": 238.226194640625,
            "value": 0.14960629921259844
          },
          {
            "number": 1,
            "ticks": 161626,
            "time": 238.23798670312505,
            "value": 0.15748031496062992
          },
          {
            "number": 1,
            "ticks": 161632,
            "time": 238.24683075000004,
            "value": 0.16535433070866143
          },
          {
            "number": 1,
            "ticks": 161640,
            "time": 238.25862281250002,
            "value": 0.1732283464566929
          },
          {
            "number": 1,
            "ticks": 161646,
            "time": 238.26746685937502,
            "value": 0.18110236220472442
          },
          {
            "number": 1,
            "ticks": 161652,
            "time": 238.27631090625002,
            "value": 0.1889763779527559
          },
          {
            "number": 1,
            "ticks": 161660,
            "time": 238.28810296875,
            "value": 0.1968503937007874
          },
          {
            "number": 1,
            "ticks": 161664,
            "time": 238.293999,
            "value": 0.2047244094488189
          },
          {
            "number": 1,
            "ticks": 161670,
            "time": 238.302843046875,
            "value": 0.2125984251968504
          },
          {
            "number": 1,
            "ticks": 161678,
            "time": 238.31463510937502,
            "value": 0.2204724409448819
          },
          {
            "number": 1,
            "ticks": 161684,
            "time": 238.32347915625002,
            "value": 0.2283464566929134
          },
          {
            "number": 1,
            "ticks": 161690,
            "time": 238.33232320312501,
            "value": 0.23622047244094488
          },
          {
            "number": 1,
            "ticks": 161700,
            "time": 238.34706328125003,
            "value": 0.2440944881889764
          },
          {
            "number": 1,
            "ticks": 161708,
            "time": 238.35885534375,
            "value": 0.25196850393700787
          },
          {
            "number": 1,
            "ticks": 161712,
            "time": 238.36475137500003,
            "value": 0.25984251968503935
          },
          {
            "number": 1,
            "ticks": 161720,
            "time": 238.3765434375,
            "value": 0.2677165354330709
          },
          {
            "number": 1,
            "ticks": 161726,
            "time": 238.385387484375,
            "value": 0.2755905511811024
          },
          {
            "number": 1,
            "ticks": 161736,
            "time": 238.40012756250002,
            "value": 0.28346456692913385
          },
          {
            "number": 1,
            "ticks": 161744,
            "time": 238.41191962500002,
            "value": 0.29133858267716534
          },
          {
            "number": 1,
            "ticks": 161752,
            "time": 238.42371168750003,
            "value": 0.2992125984251969
          },
          {
            "number": 1,
            "ticks": 161766,
            "time": 238.444347796875,
            "value": 0.30708661417322836
          },
          {
            "number": 1,
            "ticks": 161768,
            "time": 238.44729581250002,
            "value": 0.31496062992125984
          },
          {
            "number": 1,
            "ticks": 161782,
            "time": 238.46793192187502,
            "value": 0.3228346456692913
          },
          {
            "number": 1,
            "ticks": 161846,
            "time": 238.56226842187502,
            "value": 0.31496062992125984
          },
          {
            "number": 1,
            "ticks": 161856,
            "time": 238.57700850000003,
            "value": 0.30708661417322836
          },
          {
            "number": 1,
            "ticks": 161864,
            "time": 238.5888005625,
            "value": 0.2992125984251969
          },
          {
            "number": 1,
            "ticks": 161872,
            "time": 238.60059262500002,
            "value": 0.29133858267716534
          },
          {
            "number": 1,
            "ticks": 161878,
            "time": 238.60943667187505,
            "value": 0.28346456692913385
          },
          {
            "number": 1,
            "ticks": 161886,
            "time": 238.62122873437502,
            "value": 0.2755905511811024
          },
          {
            "number": 1,
            "ticks": 161890,
            "time": 238.62712476562504,
            "value": 0.2677165354330709
          },
          {
            "number": 1,
            "ticks": 161898,
            "time": 238.63891682812502,
            "value": 0.25196850393700787
          },
          {
            "number": 1,
            "ticks": 161902,
            "time": 238.64481285937504,
            "value": 0.2440944881889764
          },
          {
            "number": 1,
            "ticks": 161906,
            "time": 238.650708890625,
            "value": 0.23622047244094488
          },
          {
            "number": 1,
            "ticks": 161914,
            "time": 238.66250095312503,
            "value": 0.2204724409448819
          },
          {
            "number": 1,
            "ticks": 161922,
            "time": 238.674293015625,
            "value": 0.2047244094488189
          },
          {
            "number": 1,
            "ticks": 161924,
            "time": 238.67724103125002,
            "value": 0.1968503937007874
          },
          {
            "number": 1,
            "ticks": 161928,
            "time": 238.6831370625,
            "value": 0.1889763779527559
          },
          {
            "number": 1,
            "ticks": 161936,
            "time": 238.69492912500002,
            "value": 0.16535433070866143
          },
          {
            "number": 1,
            "ticks": 161940,
            "time": 238.70082515625003,
            "value": 0.15748031496062992
          },
          {
            "number": 1,
            "ticks": 161944,
            "time": 238.70672118750002,
            "value": 0.14960629921259844
          },
          {
            "number": 1,
            "ticks": 161948,
            "time": 238.71261721875,
            "value": 0.14173228346456693
          },
          {
            "number": 1,
            "ticks": 161952,
            "time": 238.71851325000003,
            "value": 0.13385826771653545
          },
          {
            "number": 1,
            "ticks": 161956,
            "time": 238.72440928125002,
            "value": 0.12598425196850394
          },
          {
            "number": 1,
            "ticks": 161960,
            "time": 238.7303053125,
            "value": 0.11811023622047244
          },
          {
            "number": 1,
            "ticks": 161966,
            "time": 238.739149359375,
            "value": 0.09448818897637795
          },
          {
            "number": 1,
            "ticks": 161970,
            "time": 238.74504539062502,
            "value": 0.08661417322834646
          },
          {
            "number": 1,
            "ticks": 161972,
            "time": 238.74799340625,
            "value": 0.07874015748031496
          },
          {
            "number": 1,
            "ticks": 161978,
            "time": 238.756837453125,
            "value": 0.07086614173228346
          },
          {
            "number": 1,
            "ticks": 161980,
            "time": 238.75978546875004,
            "value": 0.06299212598425197
          },
          {
            "number": 1,
            "ticks": 161984,
            "time": 238.7656815,
            "value": 0.047244094488188976
          },
          {
            "number": 1,
            "ticks": 161988,
            "time": 238.77157753125002,
            "value": 0.03937007874015748
          },
          {
            "number": 1,
            "ticks": 161994,
            "time": 238.78042157812502,
            "value": 0.007874015748031496
          },
          {
            "number": 1,
            "ticks": 162030,
            "time": 238.83348585937503,
            "value": 0
          }
        ]
      },
      "pitchBends": [
        {
          "ticks": 23782,
          "time": 35.054853796875,
          "value": -0.078125
        },
        {
          "ticks": 23784,
          "time": 35.0578018125,
          "value": -0.21875
        },
        {
          "ticks": 23786,
          "time": 35.060749828125005,
          "value": -0.3125
        },
        {
          "ticks": 23792,
          "time": 35.069593875,
          "value": -0.390625
        },
        {
          "ticks": 23796,
          "time": 35.075489906250006,
          "value": -0.484375
        },
        {
          "ticks": 23800,
          "time": 35.0813859375,
          "value": -0.5625
        },
        {
          "ticks": 23808,
          "time": 35.093178,
          "value": -0.609375
        },
        {
          "ticks": 23812,
          "time": 35.099074031250005,
          "value": -0.75
        },
        {
          "ticks": 23818,
          "time": 35.107918078125,
          "value": -0.796875
        },
        {
          "ticks": 23820,
          "time": 35.110866093750005,
          "value": -0.8125
        },
        {
          "ticks": 23826,
          "time": 35.119710140625,
          "value": -0.828125
        },
        {
          "ticks": 23848,
          "time": 35.1521383125,
          "value": -0.796875
        },
        {
          "ticks": 23852,
          "time": 35.15803434375,
          "value": -0.78125
        },
        {
          "ticks": 23856,
          "time": 35.163930375,
          "value": -0.75
        },
        {
          "ticks": 23860,
          "time": 35.16982640625,
          "value": -0.71875
        },
        {
          "ticks": 23864,
          "time": 35.175722437500006,
          "value": -0.671875
        },
        {
          "ticks": 23868,
          "time": 35.18161846875,
          "value": -0.609375
        },
        {
          "ticks": 23872,
          "time": 35.1875145,
          "value": -0.5625
        },
        {
          "ticks": 23874,
          "time": 35.190462515625,
          "value": -0.5
        },
        {
          "ticks": 23878,
          "time": 35.196358546875004,
          "value": -0.46875
        },
        {
          "ticks": 23882,
          "time": 35.20225457812501,
          "value": -0.4375
        },
        {
          "ticks": 23886,
          "time": 35.208150609375004,
          "value": -0.40625
        },
        {
          "ticks": 23890,
          "time": 35.214046640625,
          "value": -0.375
        },
        {
          "ticks": 23894,
          "time": 35.219942671875,
          "value": -0.34375
        },
        {
          "ticks": 23898,
          "time": 35.22583870312501,
          "value": -0.3125
        },
        {
          "ticks": 23902,
          "time": 35.231734734375,
          "value": -0.28125
        },
        {
          "ticks": 23906,
          "time": 35.237630765625006,
          "value": -0.234375
        },
        {
          "ticks": 23908,
          "time": 35.24057878125,
          "value": -0.1875
        },
        {
          "ticks": 23912,
          "time": 35.246474812500004,
          "value": -0.140625
        },
        {
          "ticks": 23916,
          "time": 35.25237084375,
          "value": -0.0625
        },
        {
          "ticks": 23922,
          "time": 35.261214890625006,
          "value": 0
        },
        {
          "ticks": 45830,
          "time": 67.55377804687501,
          "value": 0.03173828125
        },
        {
          "ticks": 45832,
          "time": 67.5567260625,
          "value": 0.079345703125
        },
        {
          "ticks": 45836,
          "time": 67.56262209375001,
          "value": 0.126953125
        },
        {
          "ticks": 45840,
          "time": 67.56851812500001,
          "value": 0.174560546875
        },
        {
          "ticks": 45844,
          "time": 67.57441415625001,
          "value": 0.238037109375
        },
        {
          "ticks": 45848,
          "time": 67.5803101875,
          "value": 0.3173828125
        },
        {
          "ticks": 45852,
          "time": 67.58620621875001,
          "value": 0.396728515625
        },
        {
          "ticks": 45856,
          "time": 67.59210225000001,
          "value": 0.47607421875
        },
        {
          "ticks": 45860,
          "time": 67.59799828125,
          "value": 0.555419921875
        },
        {
          "ticks": 45862,
          "time": 67.60094629687501,
          "value": 0.634765625
        },
        {
          "ticks": 45866,
          "time": 67.606842328125,
          "value": 0.6982421875
        },
        {
          "ticks": 45870,
          "time": 67.612738359375,
          "value": 0.777587890625
        },
        {
          "ticks": 45874,
          "time": 67.618634390625,
          "value": 0.85693359375
        },
        {
          "ticks": 45878,
          "time": 67.62453042187501,
          "value": 0.936279296875
        },
        {
          "ticks": 45882,
          "time": 67.63042645312501,
          "value": 0.999755859375
        },
        {
          "ticks": 46158,
          "time": 68.037252609375,
          "value": 0.98388671875
        },
        {
          "ticks": 46162,
          "time": 68.043148640625,
          "value": 0.9521484375
        },
        {
          "ticks": 46168,
          "time": 68.0519926875,
          "value": 0.92041015625
        },
        {
          "ticks": 46172,
          "time": 68.05788871875001,
          "value": 0.888671875
        },
        {
          "ticks": 46180,
          "time": 68.06968078125001,
          "value": 0.85693359375
        },
        {
          "ticks": 46182,
          "time": 68.07262879687501,
          "value": 0.8251953125
        },
        {
          "ticks": 46186,
          "time": 68.07852482812501,
          "value": 0.79345703125
        },
        {
          "ticks": 46190,
          "time": 68.084420859375,
          "value": 0.76171875
        },
        {
          "ticks": 46192,
          "time": 68.08736887500001,
          "value": 0.650634765625
        },
        {
          "ticks": 46192,
          "time": 68.08736887500001,
          "value": 0.682373046875
        },
        {
          "ticks": 46192,
          "time": 68.08736887500001,
          "value": 0.714111328125
        },
        {
          "ticks": 46202,
          "time": 68.102108953125,
          "value": 0.618896484375
        },
        {
          "ticks": 46206,
          "time": 68.108004984375,
          "value": 0.587158203125
        },
        {
          "ticks": 46208,
          "time": 68.11095300000001,
          "value": 0.555419921875
        },
        {
          "ticks": 46212,
          "time": 68.11684903125001,
          "value": 0.523681640625
        },
        {
          "ticks": 46216,
          "time": 68.1227450625,
          "value": 0.491943359375
        },
        {
          "ticks": 46222,
          "time": 68.13158910937501,
          "value": 0.428466796875
        },
        {
          "ticks": 46222,
          "time": 68.13158910937501,
          "value": 0.460205078125
        },
        {
          "ticks": 46224,
          "time": 68.13453712500001,
          "value": 0.380859375
        },
        {
          "ticks": 46230,
          "time": 68.143381171875,
          "value": 0.34912109375
        },
        {
          "ticks": 46232,
          "time": 68.1463291875,
          "value": 0.301513671875
        },
        {
          "ticks": 46236,
          "time": 68.15222521875,
          "value": 0.269775390625
        },
        {
          "ticks": 46242,
          "time": 68.161069265625,
          "value": 0.238037109375
        },
        {
          "ticks": 46246,
          "time": 68.166965296875,
          "value": 0.1904296875
        },
        {
          "ticks": 46248,
          "time": 68.1699133125,
          "value": 0.15869140625
        },
        {
          "ticks": 46252,
          "time": 68.17580934375,
          "value": 0.111083984375
        },
        {
          "ticks": 46254,
          "time": 68.17875735937501,
          "value": 0.0634765625
        },
        {
          "ticks": 46256,
          "time": 68.181705375,
          "value": 0.015869140625
        },
        {
          "ticks": 46262,
          "time": 68.190549421875,
          "value": 0
        },
        {
          "ticks": 46406,
          "time": 68.402806546875,
          "value": 0.03173828125
        },
        {
          "ticks": 46410,
          "time": 68.408702578125,
          "value": 0.0634765625
        },
        {
          "ticks": 46414,
          "time": 68.414598609375,
          "value": 0.09521484375
        },
        {
          "ticks": 46416,
          "time": 68.417546625,
          "value": 0.15869140625
        },
        {
          "ticks": 46422,
          "time": 68.42639067187501,
          "value": 0.1904296875
        },
        {
          "ticks": 46426,
          "time": 68.43228670312502,
          "value": 0.238037109375
        },
        {
          "ticks": 46428,
          "time": 68.43523471875001,
          "value": 0.28564453125
        },
        {
          "ticks": 46432,
          "time": 68.44113075000001,
          "value": 0.333251953125
        },
        {
          "ticks": 46436,
          "time": 68.44702678125,
          "value": 0.380859375
        },
        {
          "ticks": 46440,
          "time": 68.4529228125,
          "value": 0.428466796875
        },
        {
          "ticks": 46444,
          "time": 68.45881884375001,
          "value": 0.47607421875
        },
        {
          "ticks": 46448,
          "time": 68.464714875,
          "value": 0.5078125
        },
        {
          "ticks": 46452,
          "time": 68.47061090625,
          "value": 0.555419921875
        },
        {
          "ticks": 46456,
          "time": 68.4765069375,
          "value": 0.587158203125
        },
        {
          "ticks": 46458,
          "time": 68.479454953125,
          "value": 0.634765625
        },
        {
          "ticks": 46462,
          "time": 68.485350984375,
          "value": 0.650634765625
        },
        {
          "ticks": 46466,
          "time": 68.491247015625,
          "value": 0.6982421875
        },
        {
          "ticks": 46470,
          "time": 68.49714304687501,
          "value": 0.72998046875
        },
        {
          "ticks": 46474,
          "time": 68.50303907812501,
          "value": 0.76171875
        },
        {
          "ticks": 46478,
          "time": 68.508935109375,
          "value": 0.79345703125
        },
        {
          "ticks": 46482,
          "time": 68.514831140625,
          "value": 0.8251953125
        },
        {
          "ticks": 46486,
          "time": 68.52072717187501,
          "value": 0.841064453125
        },
        {
          "ticks": 46490,
          "time": 68.526623203125,
          "value": 0.888671875
        },
        {
          "ticks": 46494,
          "time": 68.532519234375,
          "value": 0.92041015625
        },
        {
          "ticks": 46496,
          "time": 68.53546725,
          "value": 0.936279296875
        },
        {
          "ticks": 46500,
          "time": 68.54136328125,
          "value": 0.968017578125
        },
        {
          "ticks": 46506,
          "time": 68.55020732812501,
          "value": 0.999755859375
        },
        {
          "ticks": 46944,
          "time": 69.19582275,
          "value": 0.015380859375
        },
        {
          "ticks": 47458,
          "time": 69.953462765625,
          "value": -0.046875
        },
        {
          "ticks": 47460,
          "time": 69.95641078125,
          "value": -0.125
        },
        {
          "ticks": 47464,
          "time": 69.9623068125,
          "value": -0.21875
        },
        {
          "ticks": 47468,
          "time": 69.96820284375,
          "value": -0.28125
        },
        {
          "ticks": 47472,
          "time": 69.97409887500001,
          "value": -0.328125
        },
        {
          "ticks": 47474,
          "time": 69.977046890625,
          "value": -0.359375
        },
        {
          "ticks": 47480,
          "time": 69.9858909375,
          "value": -0.40625
        },
        {
          "ticks": 47482,
          "time": 69.98883895312501,
          "value": -0.421875
        },
        {
          "ticks": 47486,
          "time": 69.994734984375,
          "value": -0.4375
        },
        {
          "ticks": 47492,
          "time": 70.00357903125,
          "value": -0.453125
        },
        {
          "ticks": 47500,
          "time": 70.01537109375,
          "value": -0.484375
        },
        {
          "ticks": 47504,
          "time": 70.02126712500001,
          "value": -0.5
        },
        {
          "ticks": 47524,
          "time": 70.05074728125001,
          "value": -0.515625
        },
        {
          "ticks": 47536,
          "time": 70.068435375,
          "value": -0.53125
        },
        {
          "ticks": 47562,
          "time": 70.10675957812501,
          "value": -0.515625
        },
        {
          "ticks": 47566,
          "time": 70.11265560937501,
          "value": -0.5
        },
        {
          "ticks": 47574,
          "time": 70.124447671875,
          "value": -0.484375
        },
        {
          "ticks": 47576,
          "time": 70.1273956875,
          "value": -0.46875
        },
        {
          "ticks": 47584,
          "time": 70.13918775,
          "value": -0.453125
        },
        {
          "ticks": 47590,
          "time": 70.148031796875,
          "value": -0.4375
        },
        {
          "ticks": 47600,
          "time": 70.162771875,
          "value": -0.421875
        },
        {
          "ticks": 47604,
          "time": 70.16866790625001,
          "value": -0.40625
        },
        {
          "ticks": 47606,
          "time": 70.171615921875,
          "value": -0.390625
        },
        {
          "ticks": 47612,
          "time": 70.18045996875,
          "value": -0.375
        },
        {
          "ticks": 47616,
          "time": 70.186356,
          "value": -0.359375
        },
        {
          "ticks": 47622,
          "time": 70.195200046875,
          "value": -0.328125
        },
        {
          "ticks": 47624,
          "time": 70.19814806250001,
          "value": -0.3125
        },
        {
          "ticks": 47632,
          "time": 70.209940125,
          "value": -0.296875
        },
        {
          "ticks": 47638,
          "time": 70.21878417187501,
          "value": -0.28125
        },
        {
          "ticks": 47642,
          "time": 70.224680203125,
          "value": -0.265625
        },
        {
          "ticks": 47650,
          "time": 70.23647226562501,
          "value": -0.234375
        },
        {
          "ticks": 47654,
          "time": 70.242368296875,
          "value": -0.21875
        },
        {
          "ticks": 47658,
          "time": 70.248264328125,
          "value": -0.203125
        },
        {
          "ticks": 47662,
          "time": 70.254160359375,
          "value": -0.1875
        },
        {
          "ticks": 47666,
          "time": 70.26005639062501,
          "value": -0.171875
        },
        {
          "ticks": 47670,
          "time": 70.265952421875,
          "value": -0.140625
        },
        {
          "ticks": 47674,
          "time": 70.271848453125,
          "value": -0.125
        },
        {
          "ticks": 47676,
          "time": 70.27479646875001,
          "value": -0.09375
        },
        {
          "ticks": 47680,
          "time": 70.28069250000001,
          "value": -0.0625
        },
        {
          "ticks": 47684,
          "time": 70.28658853125,
          "value": -0.03125
        },
        {
          "ticks": 47688,
          "time": 70.29248456250001,
          "value": 0
        },
        {
          "ticks": 49114,
          "time": 72.39441970312501,
          "value": -0.0625
        },
        {
          "ticks": 49118,
          "time": 72.400315734375,
          "value": -0.1875
        },
        {
          "ticks": 49122,
          "time": 72.406211765625,
          "value": -0.28125
        },
        {
          "ticks": 49128,
          "time": 72.4150558125,
          "value": -0.34375
        },
        {
          "ticks": 49134,
          "time": 72.42389985937501,
          "value": -0.390625
        },
        {
          "ticks": 49136,
          "time": 72.426847875,
          "value": -0.4375
        },
        {
          "ticks": 49140,
          "time": 72.43274390625001,
          "value": -0.46875
        },
        {
          "ticks": 49146,
          "time": 72.44158795312501,
          "value": -0.5
        },
        {
          "ticks": 49154,
          "time": 72.45338001562502,
          "value": -0.53125
        },
        {
          "ticks": 49180,
          "time": 72.49170421875,
          "value": -0.515625
        },
        {
          "ticks": 49188,
          "time": 72.50349628125001,
          "value": -0.5
        },
        {
          "ticks": 49200,
          "time": 72.521184375,
          "value": -0.484375
        },
        {
          "ticks": 49204,
          "time": 72.52708040625001,
          "value": -0.46875
        },
        {
          "ticks": 49212,
          "time": 72.53887246875,
          "value": -0.453125
        },
        {
          "ticks": 49218,
          "time": 72.54771651562501,
          "value": -0.4375
        },
        {
          "ticks": 49224,
          "time": 72.55656056250001,
          "value": -0.40625
        },
        {
          "ticks": 49228,
          "time": 72.56245659375,
          "value": -0.390625
        },
        {
          "ticks": 49232,
          "time": 72.56835262500002,
          "value": -0.375
        },
        {
          "ticks": 49236,
          "time": 72.57424865625,
          "value": -0.359375
        },
        {
          "ticks": 49240,
          "time": 72.5801446875,
          "value": -0.34375
        },
        {
          "ticks": 49248,
          "time": 72.59193675,
          "value": -0.328125
        },
        {
          "ticks": 49250,
          "time": 72.59488476562501,
          "value": -0.296875
        },
        {
          "ticks": 49254,
          "time": 72.600780796875,
          "value": -0.265625
        },
        {
          "ticks": 49258,
          "time": 72.606676828125,
          "value": -0.171875
        },
        {
          "ticks": 49264,
          "time": 72.615520875,
          "value": -0.140625
        },
        {
          "ticks": 49266,
          "time": 72.61846889062501,
          "value": -0.109375
        },
        {
          "ticks": 49272,
          "time": 72.62731293750001,
          "value": -0.09375
        },
        {
          "ticks": 49274,
          "time": 72.63026095312502,
          "value": -0.0625
        },
        {
          "ticks": 49276,
          "time": 72.63320896875,
          "value": -0.046875
        },
        {
          "ticks": 49284,
          "time": 72.64500103125,
          "value": -0.03125
        },
        {
          "ticks": 49286,
          "time": 72.64794904687501,
          "value": 0
        },
        {
          "ticks": 55266,
          "time": 81.46251576562501,
          "value": -0.1875
        },
        {
          "ticks": 55270,
          "time": 81.468411796875,
          "value": -0.28125
        },
        {
          "ticks": 55274,
          "time": 81.474307828125,
          "value": -0.359375
        },
        {
          "ticks": 55278,
          "time": 81.48020385937501,
          "value": -0.421875
        },
        {
          "ticks": 55280,
          "time": 81.48315187500002,
          "value": -0.46875
        },
        {
          "ticks": 55286,
          "time": 81.49199592187502,
          "value": -0.5
        },
        {
          "ticks": 55288,
          "time": 81.4949439375,
          "value": -0.546875
        },
        {
          "ticks": 55294,
          "time": 81.503787984375,
          "value": -0.578125
        },
        {
          "ticks": 55298,
          "time": 81.50968401562501,
          "value": -0.609375
        },
        {
          "ticks": 55300,
          "time": 81.51263203125,
          "value": -0.640625
        },
        {
          "ticks": 55308,
          "time": 81.52442409375001,
          "value": -0.6875
        },
        {
          "ticks": 55320,
          "time": 81.54211218750001,
          "value": -0.703125
        },
        {
          "ticks": 55340,
          "time": 81.57159234375001,
          "value": -0.6875
        },
        {
          "ticks": 55344,
          "time": 81.577488375,
          "value": -0.640625
        },
        {
          "ticks": 55350,
          "time": 81.58633242187501,
          "value": -0.609375
        },
        {
          "ticks": 55354,
          "time": 81.592228453125,
          "value": -0.5625
        },
        {
          "ticks": 55356,
          "time": 81.59517646875001,
          "value": -0.515625
        },
        {
          "ticks": 55360,
          "time": 81.6010725,
          "value": -0.46875
        },
        {
          "ticks": 55364,
          "time": 81.60696853125002,
          "value": -0.4375
        },
        {
          "ticks": 55368,
          "time": 81.61286456250001,
          "value": -0.390625
        },
        {
          "ticks": 55372,
          "time": 81.61876059375,
          "value": -0.34375
        },
        {
          "ticks": 55376,
          "time": 81.62465662500001,
          "value": -0.3125
        },
        {
          "ticks": 55380,
          "time": 81.63055265625,
          "value": -0.265625
        },
        {
          "ticks": 55384,
          "time": 81.6364486875,
          "value": -0.203125
        },
        {
          "ticks": 55388,
          "time": 81.64234471875001,
          "value": -0.140625
        },
        {
          "ticks": 55392,
          "time": 81.64824075000001,
          "value": -0.0625
        },
        {
          "ticks": 55396,
          "time": 81.65413678125,
          "value": 0
        },
        {
          "ticks": 58118,
          "time": 85.66638604687502,
          "value": 0.03173828125
        },
        {
          "ticks": 58120,
          "time": 85.6693340625,
          "value": 0.079345703125
        },
        {
          "ticks": 58124,
          "time": 85.67523009375002,
          "value": 0.126953125
        },
        {
          "ticks": 58128,
          "time": 85.681126125,
          "value": 0.174560546875
        },
        {
          "ticks": 58132,
          "time": 85.68702215625001,
          "value": 0.238037109375
        },
        {
          "ticks": 58136,
          "time": 85.69291818750001,
          "value": 0.3173828125
        },
        {
          "ticks": 58140,
          "time": 85.69881421875,
          "value": 0.396728515625
        },
        {
          "ticks": 58144,
          "time": 85.70471025,
          "value": 0.47607421875
        },
        {
          "ticks": 58148,
          "time": 85.71060628125001,
          "value": 0.555419921875
        },
        {
          "ticks": 58150,
          "time": 85.713554296875,
          "value": 0.634765625
        },
        {
          "ticks": 58154,
          "time": 85.719450328125,
          "value": 0.6982421875
        },
        {
          "ticks": 58158,
          "time": 85.72534635937501,
          "value": 0.777587890625
        },
        {
          "ticks": 58162,
          "time": 85.731242390625,
          "value": 0.85693359375
        },
        {
          "ticks": 58166,
          "time": 85.73713842187502,
          "value": 0.936279296875
        },
        {
          "ticks": 58170,
          "time": 85.743034453125,
          "value": 0.999755859375
        },
        {
          "ticks": 58446,
          "time": 86.14986060937501,
          "value": 0.98388671875
        },
        {
          "ticks": 58450,
          "time": 86.155756640625,
          "value": 0.9521484375
        },
        {
          "ticks": 58456,
          "time": 86.1646006875,
          "value": 0.92041015625
        },
        {
          "ticks": 58460,
          "time": 86.17049671875002,
          "value": 0.888671875
        },
        {
          "ticks": 58468,
          "time": 86.18228878125001,
          "value": 0.85693359375
        },
        {
          "ticks": 58470,
          "time": 86.185236796875,
          "value": 0.8251953125
        },
        {
          "ticks": 58474,
          "time": 86.191132828125,
          "value": 0.79345703125
        },
        {
          "ticks": 58478,
          "time": 86.19702885937501,
          "value": 0.76171875
        },
        {
          "ticks": 58480,
          "time": 86.199976875,
          "value": 0.650634765625
        },
        {
          "ticks": 58480,
          "time": 86.199976875,
          "value": 0.682373046875
        },
        {
          "ticks": 58480,
          "time": 86.199976875,
          "value": 0.714111328125
        },
        {
          "ticks": 58490,
          "time": 86.21471695312502,
          "value": 0.618896484375
        },
        {
          "ticks": 58494,
          "time": 86.22061298437501,
          "value": 0.587158203125
        },
        {
          "ticks": 58496,
          "time": 86.22356100000002,
          "value": 0.555419921875
        },
        {
          "ticks": 58500,
          "time": 86.22945703125,
          "value": 0.523681640625
        },
        {
          "ticks": 58504,
          "time": 86.2353530625,
          "value": 0.491943359375
        },
        {
          "ticks": 58510,
          "time": 86.24419710937501,
          "value": 0.428466796875
        },
        {
          "ticks": 58510,
          "time": 86.24419710937501,
          "value": 0.460205078125
        },
        {
          "ticks": 58512,
          "time": 86.247145125,
          "value": 0.380859375
        },
        {
          "ticks": 58518,
          "time": 86.255989171875,
          "value": 0.34912109375
        },
        {
          "ticks": 58520,
          "time": 86.25893718750001,
          "value": 0.301513671875
        },
        {
          "ticks": 58524,
          "time": 86.26483321875001,
          "value": 0.269775390625
        },
        {
          "ticks": 58530,
          "time": 86.27367726562501,
          "value": 0.238037109375
        },
        {
          "ticks": 58534,
          "time": 86.279573296875,
          "value": 0.1904296875
        },
        {
          "ticks": 58536,
          "time": 86.28252131250001,
          "value": 0.15869140625
        },
        {
          "ticks": 58540,
          "time": 86.28841734375,
          "value": 0.111083984375
        },
        {
          "ticks": 58542,
          "time": 86.291365359375,
          "value": 0.0634765625
        },
        {
          "ticks": 58544,
          "time": 86.29431337500002,
          "value": 0.015869140625
        },
        {
          "ticks": 58550,
          "time": 86.30315742187501,
          "value": 0
        },
        {
          "ticks": 58694,
          "time": 86.51541454687501,
          "value": 0.03173828125
        },
        {
          "ticks": 58698,
          "time": 86.52131057812501,
          "value": 0.0634765625
        },
        {
          "ticks": 58702,
          "time": 86.527206609375,
          "value": 0.09521484375
        },
        {
          "ticks": 58704,
          "time": 86.53015462500001,
          "value": 0.15869140625
        },
        {
          "ticks": 58710,
          "time": 86.538998671875,
          "value": 0.1904296875
        },
        {
          "ticks": 58714,
          "time": 86.544894703125,
          "value": 0.238037109375
        },
        {
          "ticks": 58716,
          "time": 86.54784271875,
          "value": 0.28564453125
        },
        {
          "ticks": 58720,
          "time": 86.55373875000001,
          "value": 0.333251953125
        },
        {
          "ticks": 58724,
          "time": 86.55963478125001,
          "value": 0.380859375
        },
        {
          "ticks": 58728,
          "time": 86.56553081250001,
          "value": 0.428466796875
        },
        {
          "ticks": 58732,
          "time": 86.57142684375,
          "value": 0.47607421875
        },
        {
          "ticks": 58736,
          "time": 86.57732287500001,
          "value": 0.5078125
        },
        {
          "ticks": 58740,
          "time": 86.58321890625001,
          "value": 0.555419921875
        },
        {
          "ticks": 58744,
          "time": 86.5891149375,
          "value": 0.587158203125
        },
        {
          "ticks": 58746,
          "time": 86.59206295312501,
          "value": 0.634765625
        },
        {
          "ticks": 58750,
          "time": 86.597958984375,
          "value": 0.650634765625
        },
        {
          "ticks": 58754,
          "time": 86.60385501562502,
          "value": 0.6982421875
        },
        {
          "ticks": 58758,
          "time": 86.609751046875,
          "value": 0.72998046875
        },
        {
          "ticks": 58762,
          "time": 86.61564707812501,
          "value": 0.76171875
        },
        {
          "ticks": 58766,
          "time": 86.62154310937501,
          "value": 0.79345703125
        },
        {
          "ticks": 58770,
          "time": 86.62743914062501,
          "value": 0.8251953125
        },
        {
          "ticks": 58774,
          "time": 86.633335171875,
          "value": 0.841064453125
        },
        {
          "ticks": 58778,
          "time": 86.63923120312501,
          "value": 0.888671875
        },
        {
          "ticks": 58782,
          "time": 86.64512723437501,
          "value": 0.92041015625
        },
        {
          "ticks": 58784,
          "time": 86.64807525000002,
          "value": 0.936279296875
        },
        {
          "ticks": 58788,
          "time": 86.65397128125001,
          "value": 0.968017578125
        },
        {
          "ticks": 58794,
          "time": 86.662815328125,
          "value": 0.999755859375
        },
        {
          "ticks": 59232,
          "time": 87.30843075000001,
          "value": 0.015380859375
        },
        {
          "ticks": 59746,
          "time": 88.066070765625,
          "value": -0.046875
        },
        {
          "ticks": 59748,
          "time": 88.06901878125001,
          "value": -0.125
        },
        {
          "ticks": 59752,
          "time": 88.0749148125,
          "value": -0.21875
        },
        {
          "ticks": 59756,
          "time": 88.08081084375002,
          "value": -0.28125
        },
        {
          "ticks": 59760,
          "time": 88.086706875,
          "value": -0.328125
        },
        {
          "ticks": 59762,
          "time": 88.08965489062501,
          "value": -0.359375
        },
        {
          "ticks": 59768,
          "time": 88.09849893750001,
          "value": -0.40625
        },
        {
          "ticks": 59770,
          "time": 88.101446953125,
          "value": -0.421875
        },
        {
          "ticks": 59774,
          "time": 88.10734298437501,
          "value": -0.4375
        },
        {
          "ticks": 59780,
          "time": 88.11618703125,
          "value": -0.453125
        },
        {
          "ticks": 59788,
          "time": 88.12797909375,
          "value": -0.484375
        },
        {
          "ticks": 59792,
          "time": 88.13387512500002,
          "value": -0.5
        },
        {
          "ticks": 59812,
          "time": 88.16335528125,
          "value": -0.515625
        },
        {
          "ticks": 59824,
          "time": 88.181043375,
          "value": -0.53125
        },
        {
          "ticks": 59850,
          "time": 88.219367578125,
          "value": -0.515625
        },
        {
          "ticks": 59854,
          "time": 88.225263609375,
          "value": -0.5
        },
        {
          "ticks": 59862,
          "time": 88.23705567187501,
          "value": -0.484375
        },
        {
          "ticks": 59864,
          "time": 88.2400036875,
          "value": -0.46875
        },
        {
          "ticks": 59872,
          "time": 88.25179575,
          "value": -0.453125
        },
        {
          "ticks": 59878,
          "time": 88.260639796875,
          "value": -0.4375
        },
        {
          "ticks": 59888,
          "time": 88.27537987500001,
          "value": -0.421875
        },
        {
          "ticks": 59892,
          "time": 88.28127590625,
          "value": -0.40625
        },
        {
          "ticks": 59894,
          "time": 88.28422392187501,
          "value": -0.390625
        },
        {
          "ticks": 59900,
          "time": 88.29306796875001,
          "value": -0.375
        },
        {
          "ticks": 59904,
          "time": 88.29896400000001,
          "value": -0.359375
        },
        {
          "ticks": 59910,
          "time": 88.30780804687501,
          "value": -0.328125
        },
        {
          "ticks": 59912,
          "time": 88.31075606250002,
          "value": -0.3125
        },
        {
          "ticks": 59920,
          "time": 88.322548125,
          "value": -0.296875
        },
        {
          "ticks": 59926,
          "time": 88.33139217187501,
          "value": -0.28125
        },
        {
          "ticks": 59930,
          "time": 88.33728820312501,
          "value": -0.265625
        },
        {
          "ticks": 59938,
          "time": 88.349080265625,
          "value": -0.234375
        },
        {
          "ticks": 59942,
          "time": 88.35497629687501,
          "value": -0.21875
        },
        {
          "ticks": 59946,
          "time": 88.36087232812501,
          "value": -0.203125
        },
        {
          "ticks": 59950,
          "time": 88.366768359375,
          "value": -0.1875
        },
        {
          "ticks": 59954,
          "time": 88.37266439062502,
          "value": -0.171875
        },
        {
          "ticks": 59958,
          "time": 88.37856042187501,
          "value": -0.140625
        },
        {
          "ticks": 59962,
          "time": 88.384456453125,
          "value": -0.125
        },
        {
          "ticks": 59964,
          "time": 88.38740446875,
          "value": -0.09375
        },
        {
          "ticks": 59968,
          "time": 88.39330050000001,
          "value": -0.0625
        },
        {
          "ticks": 59972,
          "time": 88.39919653125001,
          "value": -0.03125
        },
        {
          "ticks": 59976,
          "time": 88.4050925625,
          "value": 0
        },
        {
          "ticks": 61402,
          "time": 90.507027703125,
          "value": -0.0625
        },
        {
          "ticks": 61406,
          "time": 90.51292373437501,
          "value": -0.1875
        },
        {
          "ticks": 61410,
          "time": 90.51881976562501,
          "value": -0.28125
        },
        {
          "ticks": 61416,
          "time": 90.52766381250001,
          "value": -0.34375
        },
        {
          "ticks": 61422,
          "time": 90.536507859375,
          "value": -0.390625
        },
        {
          "ticks": 61424,
          "time": 90.53945587500002,
          "value": -0.4375
        },
        {
          "ticks": 61428,
          "time": 90.54535190625,
          "value": -0.46875
        },
        {
          "ticks": 61434,
          "time": 90.554195953125,
          "value": -0.5
        },
        {
          "ticks": 61442,
          "time": 90.56598801562501,
          "value": -0.53125
        },
        {
          "ticks": 61468,
          "time": 90.60431221875,
          "value": -0.515625
        },
        {
          "ticks": 61476,
          "time": 90.61610428125,
          "value": -0.5
        },
        {
          "ticks": 61488,
          "time": 90.63379237500001,
          "value": -0.484375
        },
        {
          "ticks": 61492,
          "time": 90.63968840625,
          "value": -0.46875
        },
        {
          "ticks": 61500,
          "time": 90.65148046875001,
          "value": -0.453125
        },
        {
          "ticks": 61506,
          "time": 90.660324515625,
          "value": -0.4375
        },
        {
          "ticks": 61512,
          "time": 90.6691685625,
          "value": -0.40625
        },
        {
          "ticks": 61516,
          "time": 90.67506459375001,
          "value": -0.390625
        },
        {
          "ticks": 61520,
          "time": 90.68096062500001,
          "value": -0.375
        },
        {
          "ticks": 61524,
          "time": 90.68685665625001,
          "value": -0.359375
        },
        {
          "ticks": 61528,
          "time": 90.6927526875,
          "value": -0.34375
        },
        {
          "ticks": 61536,
          "time": 90.70454475000001,
          "value": -0.328125
        },
        {
          "ticks": 61538,
          "time": 90.70749276562502,
          "value": -0.296875
        },
        {
          "ticks": 61542,
          "time": 90.71338879687501,
          "value": -0.265625
        },
        {
          "ticks": 61546,
          "time": 90.719284828125,
          "value": -0.171875
        },
        {
          "ticks": 61552,
          "time": 90.728128875,
          "value": -0.140625
        },
        {
          "ticks": 61554,
          "time": 90.731076890625,
          "value": -0.109375
        },
        {
          "ticks": 61560,
          "time": 90.7399209375,
          "value": -0.09375
        },
        {
          "ticks": 61562,
          "time": 90.74286895312501,
          "value": -0.0625
        },
        {
          "ticks": 61564,
          "time": 90.74581696875,
          "value": -0.046875
        },
        {
          "ticks": 61572,
          "time": 90.75760903125001,
          "value": -0.03125
        },
        {
          "ticks": 61574,
          "time": 90.76055704687501,
          "value": 0
        },
        {
          "ticks": 67554,
          "time": 99.57512376562501,
          "value": -0.1875
        },
        {
          "ticks": 67558,
          "time": 99.581019796875,
          "value": -0.28125
        },
        {
          "ticks": 67562,
          "time": 99.58691582812502,
          "value": -0.359375
        },
        {
          "ticks": 67566,
          "time": 99.592811859375,
          "value": -0.421875
        },
        {
          "ticks": 67568,
          "time": 99.59575987500001,
          "value": -0.46875
        },
        {
          "ticks": 67574,
          "time": 99.60460392187501,
          "value": -0.5
        },
        {
          "ticks": 67576,
          "time": 99.6075519375,
          "value": -0.546875
        },
        {
          "ticks": 67582,
          "time": 99.616395984375,
          "value": -0.578125
        },
        {
          "ticks": 67586,
          "time": 99.62229201562502,
          "value": -0.609375
        },
        {
          "ticks": 67588,
          "time": 99.62524003125,
          "value": -0.640625
        },
        {
          "ticks": 67596,
          "time": 99.63703209375001,
          "value": -0.6875
        },
        {
          "ticks": 67608,
          "time": 99.6547201875,
          "value": -0.703125
        },
        {
          "ticks": 67628,
          "time": 99.68420034375002,
          "value": -0.6875
        },
        {
          "ticks": 67632,
          "time": 99.69009637500001,
          "value": -0.640625
        },
        {
          "ticks": 67638,
          "time": 99.69894042187501,
          "value": -0.609375
        },
        {
          "ticks": 67642,
          "time": 99.704836453125,
          "value": -0.5625
        },
        {
          "ticks": 67644,
          "time": 99.70778446875,
          "value": -0.515625
        },
        {
          "ticks": 67648,
          "time": 99.71368050000001,
          "value": -0.46875
        },
        {
          "ticks": 67652,
          "time": 99.71957653125001,
          "value": -0.4375
        },
        {
          "ticks": 67656,
          "time": 99.7254725625,
          "value": -0.390625
        },
        {
          "ticks": 67660,
          "time": 99.73136859375,
          "value": -0.34375
        },
        {
          "ticks": 67664,
          "time": 99.73726462500001,
          "value": -0.3125
        },
        {
          "ticks": 67668,
          "time": 99.74316065625001,
          "value": -0.265625
        },
        {
          "ticks": 67672,
          "time": 99.7490566875,
          "value": -0.203125
        },
        {
          "ticks": 67676,
          "time": 99.75495271875002,
          "value": -0.140625
        },
        {
          "ticks": 67680,
          "time": 99.76084875000001,
          "value": -0.0625
        },
        {
          "ticks": 67684,
          "time": 99.76674478125,
          "value": 0
        },
        {
          "ticks": 115942,
          "time": 170.89941379687502,
          "value": -0.078125
        },
        {
          "ticks": 115944,
          "time": 170.9023618125,
          "value": -0.21875
        },
        {
          "ticks": 115946,
          "time": 170.905309828125,
          "value": -0.3125
        },
        {
          "ticks": 115952,
          "time": 170.914153875,
          "value": -0.390625
        },
        {
          "ticks": 115956,
          "time": 170.92004990625003,
          "value": -0.484375
        },
        {
          "ticks": 115960,
          "time": 170.92594593750002,
          "value": -0.5625
        },
        {
          "ticks": 115968,
          "time": 170.93773800000002,
          "value": -0.609375
        },
        {
          "ticks": 115972,
          "time": 170.94363403125,
          "value": -0.75
        },
        {
          "ticks": 115978,
          "time": 170.95247807812504,
          "value": -0.796875
        },
        {
          "ticks": 115980,
          "time": 170.95542609375002,
          "value": -0.8125
        },
        {
          "ticks": 115986,
          "time": 170.96427014062502,
          "value": -0.828125
        },
        {
          "ticks": 116008,
          "time": 170.99669831250003,
          "value": -0.796875
        },
        {
          "ticks": 116012,
          "time": 171.00259434375,
          "value": -0.78125
        },
        {
          "ticks": 116016,
          "time": 171.008490375,
          "value": -0.75
        },
        {
          "ticks": 116020,
          "time": 171.01438640625003,
          "value": -0.71875
        },
        {
          "ticks": 116024,
          "time": 171.02028243750001,
          "value": -0.671875
        },
        {
          "ticks": 116028,
          "time": 171.02617846875,
          "value": -0.609375
        },
        {
          "ticks": 116032,
          "time": 171.03207450000002,
          "value": -0.5625
        },
        {
          "ticks": 116034,
          "time": 171.035022515625,
          "value": -0.5
        },
        {
          "ticks": 116038,
          "time": 171.04091854687502,
          "value": -0.46875
        },
        {
          "ticks": 116042,
          "time": 171.046814578125,
          "value": -0.4375
        },
        {
          "ticks": 116046,
          "time": 171.05271060937503,
          "value": -0.40625
        },
        {
          "ticks": 116050,
          "time": 171.05860664062502,
          "value": -0.375
        },
        {
          "ticks": 116054,
          "time": 171.064502671875,
          "value": -0.34375
        },
        {
          "ticks": 116058,
          "time": 171.07039870312502,
          "value": -0.3125
        },
        {
          "ticks": 116062,
          "time": 171.07629473437504,
          "value": -0.28125
        },
        {
          "ticks": 116066,
          "time": 171.082190765625,
          "value": -0.234375
        },
        {
          "ticks": 116068,
          "time": 171.08513878125004,
          "value": -0.1875
        },
        {
          "ticks": 116072,
          "time": 171.0910348125,
          "value": -0.140625
        },
        {
          "ticks": 116076,
          "time": 171.09693084375002,
          "value": -0.0625
        },
        {
          "ticks": 116082,
          "time": 171.105774890625,
          "value": 0
        },
        {
          "ticks": 137990,
          "time": 203.398338046875,
          "value": 0.03173828125
        },
        {
          "ticks": 137992,
          "time": 203.40128606250002,
          "value": 0.079345703125
        },
        {
          "ticks": 137996,
          "time": 203.40718209375,
          "value": 0.126953125
        },
        {
          "ticks": 138000,
          "time": 203.41307812500003,
          "value": 0.174560546875
        },
        {
          "ticks": 138004,
          "time": 203.41897415625002,
          "value": 0.238037109375
        },
        {
          "ticks": 138008,
          "time": 203.4248701875,
          "value": 0.3173828125
        },
        {
          "ticks": 138012,
          "time": 203.43076621875002,
          "value": 0.396728515625
        },
        {
          "ticks": 138016,
          "time": 203.43666225000004,
          "value": 0.47607421875
        },
        {
          "ticks": 138020,
          "time": 203.44255828125,
          "value": 0.555419921875
        },
        {
          "ticks": 138022,
          "time": 203.44550629687504,
          "value": 0.634765625
        },
        {
          "ticks": 138026,
          "time": 203.451402328125,
          "value": 0.6982421875
        },
        {
          "ticks": 138030,
          "time": 203.45729835937502,
          "value": 0.777587890625
        },
        {
          "ticks": 138034,
          "time": 203.46319439062503,
          "value": 0.85693359375
        },
        {
          "ticks": 138038,
          "time": 203.469090421875,
          "value": 0.936279296875
        },
        {
          "ticks": 138042,
          "time": 203.474986453125,
          "value": 0.999755859375
        },
        {
          "ticks": 138318,
          "time": 203.881812609375,
          "value": 0.98388671875
        },
        {
          "ticks": 138322,
          "time": 203.88770864062502,
          "value": 0.9521484375
        },
        {
          "ticks": 138328,
          "time": 203.89655268750002,
          "value": 0.92041015625
        },
        {
          "ticks": 138332,
          "time": 203.90244871875,
          "value": 0.888671875
        },
        {
          "ticks": 138340,
          "time": 203.91424078125002,
          "value": 0.85693359375
        },
        {
          "ticks": 138342,
          "time": 203.91718879687502,
          "value": 0.8251953125
        },
        {
          "ticks": 138346,
          "time": 203.92308482812504,
          "value": 0.79345703125
        },
        {
          "ticks": 138350,
          "time": 203.928980859375,
          "value": 0.76171875
        },
        {
          "ticks": 138352,
          "time": 203.93192887500004,
          "value": 0.650634765625
        },
        {
          "ticks": 138352,
          "time": 203.93192887500004,
          "value": 0.682373046875
        },
        {
          "ticks": 138352,
          "time": 203.93192887500004,
          "value": 0.714111328125
        },
        {
          "ticks": 138362,
          "time": 203.946668953125,
          "value": 0.618896484375
        },
        {
          "ticks": 138366,
          "time": 203.95256498437502,
          "value": 0.587158203125
        },
        {
          "ticks": 138368,
          "time": 203.955513,
          "value": 0.555419921875
        },
        {
          "ticks": 138372,
          "time": 203.96140903125,
          "value": 0.523681640625
        },
        {
          "ticks": 138376,
          "time": 203.96730506250003,
          "value": 0.491943359375
        },
        {
          "ticks": 138382,
          "time": 203.97614910937503,
          "value": 0.428466796875
        },
        {
          "ticks": 138382,
          "time": 203.97614910937503,
          "value": 0.460205078125
        },
        {
          "ticks": 138384,
          "time": 203.979097125,
          "value": 0.380859375
        },
        {
          "ticks": 138390,
          "time": 203.987941171875,
          "value": 0.34912109375
        },
        {
          "ticks": 138392,
          "time": 203.99088918750002,
          "value": 0.301513671875
        },
        {
          "ticks": 138396,
          "time": 203.99678521875,
          "value": 0.269775390625
        },
        {
          "ticks": 138402,
          "time": 204.00562926562503,
          "value": 0.238037109375
        },
        {
          "ticks": 138406,
          "time": 204.01152529687502,
          "value": 0.1904296875
        },
        {
          "ticks": 138408,
          "time": 204.01447331250003,
          "value": 0.15869140625
        },
        {
          "ticks": 138412,
          "time": 204.02036934375002,
          "value": 0.111083984375
        },
        {
          "ticks": 138414,
          "time": 204.02331735937503,
          "value": 0.0634765625
        },
        {
          "ticks": 138416,
          "time": 204.026265375,
          "value": 0.015869140625
        },
        {
          "ticks": 138422,
          "time": 204.035109421875,
          "value": 0
        },
        {
          "ticks": 138566,
          "time": 204.247366546875,
          "value": 0.03173828125
        },
        {
          "ticks": 138570,
          "time": 204.25326257812503,
          "value": 0.0634765625
        },
        {
          "ticks": 138574,
          "time": 204.25915860937502,
          "value": 0.09521484375
        },
        {
          "ticks": 138576,
          "time": 204.26210662500003,
          "value": 0.15869140625
        },
        {
          "ticks": 138582,
          "time": 204.27095067187503,
          "value": 0.1904296875
        },
        {
          "ticks": 138586,
          "time": 204.27684670312502,
          "value": 0.238037109375
        },
        {
          "ticks": 138588,
          "time": 204.27979471875003,
          "value": 0.28564453125
        },
        {
          "ticks": 138592,
          "time": 204.28569075000001,
          "value": 0.333251953125
        },
        {
          "ticks": 138596,
          "time": 204.29158678125,
          "value": 0.380859375
        },
        {
          "ticks": 138600,
          "time": 204.29748281250002,
          "value": 0.428466796875
        },
        {
          "ticks": 138604,
          "time": 204.30337884375004,
          "value": 0.47607421875
        },
        {
          "ticks": 138608,
          "time": 204.309274875,
          "value": 0.5078125
        },
        {
          "ticks": 138612,
          "time": 204.31517090625002,
          "value": 0.555419921875
        },
        {
          "ticks": 138616,
          "time": 204.32106693750004,
          "value": 0.587158203125
        },
        {
          "ticks": 138618,
          "time": 204.32401495312502,
          "value": 0.634765625
        },
        {
          "ticks": 138622,
          "time": 204.32991098437503,
          "value": 0.650634765625
        },
        {
          "ticks": 138626,
          "time": 204.335807015625,
          "value": 0.6982421875
        },
        {
          "ticks": 138630,
          "time": 204.341703046875,
          "value": 0.72998046875
        },
        {
          "ticks": 138634,
          "time": 204.34759907812503,
          "value": 0.76171875
        },
        {
          "ticks": 138638,
          "time": 204.35349510937502,
          "value": 0.79345703125
        },
        {
          "ticks": 138642,
          "time": 204.359391140625,
          "value": 0.8251953125
        },
        {
          "ticks": 138646,
          "time": 204.36528717187502,
          "value": 0.841064453125
        },
        {
          "ticks": 138650,
          "time": 204.371183203125,
          "value": 0.888671875
        },
        {
          "ticks": 138654,
          "time": 204.37707923437503,
          "value": 0.92041015625
        },
        {
          "ticks": 138656,
          "time": 204.38002725,
          "value": 0.936279296875
        },
        {
          "ticks": 138660,
          "time": 204.38592328125003,
          "value": 0.968017578125
        },
        {
          "ticks": 138666,
          "time": 204.39476732812503,
          "value": 0.999755859375
        },
        {
          "ticks": 139104,
          "time": 205.04038275000002,
          "value": 0.015380859375
        },
        {
          "ticks": 139618,
          "time": 205.79802276562503,
          "value": -0.046875
        },
        {
          "ticks": 139620,
          "time": 205.80097078125002,
          "value": -0.125
        },
        {
          "ticks": 139624,
          "time": 205.80686681250003,
          "value": -0.21875
        },
        {
          "ticks": 139628,
          "time": 205.81276284375,
          "value": -0.28125
        },
        {
          "ticks": 139632,
          "time": 205.818658875,
          "value": -0.328125
        },
        {
          "ticks": 139634,
          "time": 205.82160689062502,
          "value": -0.359375
        },
        {
          "ticks": 139640,
          "time": 205.83045093750002,
          "value": -0.40625
        },
        {
          "ticks": 139642,
          "time": 205.83339895312503,
          "value": -0.421875
        },
        {
          "ticks": 139646,
          "time": 205.83929498437502,
          "value": -0.4375
        },
        {
          "ticks": 139652,
          "time": 205.84813903125,
          "value": -0.453125
        },
        {
          "ticks": 139660,
          "time": 205.85993109375002,
          "value": -0.484375
        },
        {
          "ticks": 139664,
          "time": 205.865827125,
          "value": -0.5
        },
        {
          "ticks": 139684,
          "time": 205.89530728125004,
          "value": -0.515625
        },
        {
          "ticks": 139696,
          "time": 205.91299537500004,
          "value": -0.53125
        },
        {
          "ticks": 139722,
          "time": 205.951319578125,
          "value": -0.515625
        },
        {
          "ticks": 139726,
          "time": 205.95721560937503,
          "value": -0.5
        },
        {
          "ticks": 139734,
          "time": 205.969007671875,
          "value": -0.484375
        },
        {
          "ticks": 139736,
          "time": 205.9719556875,
          "value": -0.46875
        },
        {
          "ticks": 139744,
          "time": 205.98374775000002,
          "value": -0.453125
        },
        {
          "ticks": 139750,
          "time": 205.99259179687502,
          "value": -0.4375
        },
        {
          "ticks": 139760,
          "time": 206.007331875,
          "value": -0.421875
        },
        {
          "ticks": 139764,
          "time": 206.01322790625002,
          "value": -0.40625
        },
        {
          "ticks": 139766,
          "time": 206.016175921875,
          "value": -0.390625
        },
        {
          "ticks": 139772,
          "time": 206.02501996875,
          "value": -0.375
        },
        {
          "ticks": 139776,
          "time": 206.03091600000002,
          "value": -0.359375
        },
        {
          "ticks": 139782,
          "time": 206.03976004687502,
          "value": -0.328125
        },
        {
          "ticks": 139784,
          "time": 206.0427080625,
          "value": -0.3125
        },
        {
          "ticks": 139792,
          "time": 206.05450012500003,
          "value": -0.296875
        },
        {
          "ticks": 139798,
          "time": 206.06334417187503,
          "value": -0.28125
        },
        {
          "ticks": 139802,
          "time": 206.06924020312502,
          "value": -0.265625
        },
        {
          "ticks": 139810,
          "time": 206.08103226562503,
          "value": -0.234375
        },
        {
          "ticks": 139814,
          "time": 206.08692829687502,
          "value": -0.21875
        },
        {
          "ticks": 139818,
          "time": 206.092824328125,
          "value": -0.203125
        },
        {
          "ticks": 139822,
          "time": 206.09872035937502,
          "value": -0.1875
        },
        {
          "ticks": 139826,
          "time": 206.104616390625,
          "value": -0.171875
        },
        {
          "ticks": 139830,
          "time": 206.11051242187503,
          "value": -0.140625
        },
        {
          "ticks": 139834,
          "time": 206.11640845312502,
          "value": -0.125
        },
        {
          "ticks": 139836,
          "time": 206.11935646875003,
          "value": -0.09375
        },
        {
          "ticks": 139840,
          "time": 206.12525250000002,
          "value": -0.0625
        },
        {
          "ticks": 139844,
          "time": 206.13114853125,
          "value": -0.03125
        },
        {
          "ticks": 139848,
          "time": 206.13704456250002,
          "value": 0
        },
        {
          "ticks": 141274,
          "time": 208.23897970312504,
          "value": -0.0625
        },
        {
          "ticks": 141278,
          "time": 208.244875734375,
          "value": -0.1875
        },
        {
          "ticks": 141282,
          "time": 208.25077176562502,
          "value": -0.28125
        },
        {
          "ticks": 141288,
          "time": 208.25961581250002,
          "value": -0.34375
        },
        {
          "ticks": 141294,
          "time": 208.268459859375,
          "value": -0.390625
        },
        {
          "ticks": 141296,
          "time": 208.271407875,
          "value": -0.4375
        },
        {
          "ticks": 141300,
          "time": 208.27730390625,
          "value": -0.46875
        },
        {
          "ticks": 141306,
          "time": 208.286147953125,
          "value": -0.5
        },
        {
          "ticks": 141314,
          "time": 208.29794001562502,
          "value": -0.53125
        },
        {
          "ticks": 141340,
          "time": 208.33626421875002,
          "value": -0.515625
        },
        {
          "ticks": 141348,
          "time": 208.34805628125002,
          "value": -0.5
        },
        {
          "ticks": 141360,
          "time": 208.36574437500002,
          "value": -0.484375
        },
        {
          "ticks": 141364,
          "time": 208.37164040625004,
          "value": -0.46875
        },
        {
          "ticks": 141372,
          "time": 208.38343246875002,
          "value": -0.453125
        },
        {
          "ticks": 141378,
          "time": 208.392276515625,
          "value": -0.4375
        },
        {
          "ticks": 141384,
          "time": 208.4011205625,
          "value": -0.40625
        },
        {
          "ticks": 141388,
          "time": 208.40701659375003,
          "value": -0.390625
        },
        {
          "ticks": 141392,
          "time": 208.41291262500002,
          "value": -0.375
        },
        {
          "ticks": 141396,
          "time": 208.41880865625,
          "value": -0.359375
        },
        {
          "ticks": 141400,
          "time": 208.42470468750003,
          "value": -0.34375
        },
        {
          "ticks": 141408,
          "time": 208.43649675000003,
          "value": -0.328125
        },
        {
          "ticks": 141410,
          "time": 208.439444765625,
          "value": -0.296875
        },
        {
          "ticks": 141414,
          "time": 208.44534079687503,
          "value": -0.265625
        },
        {
          "ticks": 141418,
          "time": 208.45123682812502,
          "value": -0.171875
        },
        {
          "ticks": 141424,
          "time": 208.46008087500002,
          "value": -0.140625
        },
        {
          "ticks": 141426,
          "time": 208.46302889062503,
          "value": -0.109375
        },
        {
          "ticks": 141432,
          "time": 208.47187293750002,
          "value": -0.09375
        },
        {
          "ticks": 141434,
          "time": 208.474820953125,
          "value": -0.0625
        },
        {
          "ticks": 141436,
          "time": 208.47776896875004,
          "value": -0.046875
        },
        {
          "ticks": 141444,
          "time": 208.48956103125002,
          "value": -0.03125
        },
        {
          "ticks": 141446,
          "time": 208.492509046875,
          "value": 0
        },
        {
          "ticks": 147426,
          "time": 217.30707576562503,
          "value": -0.1875
        },
        {
          "ticks": 147430,
          "time": 217.31297179687502,
          "value": -0.28125
        },
        {
          "ticks": 147434,
          "time": 217.318867828125,
          "value": -0.359375
        },
        {
          "ticks": 147438,
          "time": 217.32476385937503,
          "value": -0.421875
        },
        {
          "ticks": 147440,
          "time": 217.327711875,
          "value": -0.46875
        },
        {
          "ticks": 147446,
          "time": 217.336555921875,
          "value": -0.5
        },
        {
          "ticks": 147448,
          "time": 217.33950393750004,
          "value": -0.546875
        },
        {
          "ticks": 147454,
          "time": 217.34834798437504,
          "value": -0.578125
        },
        {
          "ticks": 147458,
          "time": 217.354244015625,
          "value": -0.609375
        },
        {
          "ticks": 147460,
          "time": 217.35719203125004,
          "value": -0.640625
        },
        {
          "ticks": 147468,
          "time": 217.36898409375002,
          "value": -0.6875
        },
        {
          "ticks": 147480,
          "time": 217.3866721875,
          "value": -0.703125
        },
        {
          "ticks": 147500,
          "time": 217.41615234375,
          "value": -0.6875
        },
        {
          "ticks": 147504,
          "time": 217.42204837500003,
          "value": -0.640625
        },
        {
          "ticks": 147510,
          "time": 217.43089242187503,
          "value": -0.609375
        },
        {
          "ticks": 147514,
          "time": 217.43678845312502,
          "value": -0.5625
        },
        {
          "ticks": 147516,
          "time": 217.43973646875003,
          "value": -0.515625
        },
        {
          "ticks": 147520,
          "time": 217.44563250000002,
          "value": -0.46875
        },
        {
          "ticks": 147524,
          "time": 217.45152853125,
          "value": -0.4375
        },
        {
          "ticks": 147528,
          "time": 217.45742456250002,
          "value": -0.390625
        },
        {
          "ticks": 147532,
          "time": 217.46332059375004,
          "value": -0.34375
        },
        {
          "ticks": 147536,
          "time": 217.469216625,
          "value": -0.3125
        },
        {
          "ticks": 147540,
          "time": 217.47511265625002,
          "value": -0.265625
        },
        {
          "ticks": 147544,
          "time": 217.48100868750004,
          "value": -0.203125
        },
        {
          "ticks": 147548,
          "time": 217.48690471875,
          "value": -0.140625
        },
        {
          "ticks": 147552,
          "time": 217.49280075000001,
          "value": -0.0625
        },
        {
          "ticks": 147556,
          "time": 217.49869678125003,
          "value": 0
        },
        {
          "ticks": 150278,
          "time": 221.510946046875,
          "value": 0.03173828125
        },
        {
          "ticks": 150280,
          "time": 221.51389406250004,
          "value": 0.079345703125
        },
        {
          "ticks": 150284,
          "time": 221.51979009375,
          "value": 0.126953125
        },
        {
          "ticks": 150288,
          "time": 221.52568612500002,
          "value": 0.174560546875
        },
        {
          "ticks": 150292,
          "time": 221.53158215625004,
          "value": 0.238037109375
        },
        {
          "ticks": 150296,
          "time": 221.5374781875,
          "value": 0.3173828125
        },
        {
          "ticks": 150300,
          "time": 221.54337421875002,
          "value": 0.396728515625
        },
        {
          "ticks": 150304,
          "time": 221.54927025000003,
          "value": 0.47607421875
        },
        {
          "ticks": 150308,
          "time": 221.55516628125,
          "value": 0.555419921875
        },
        {
          "ticks": 150310,
          "time": 221.55811429687503,
          "value": 0.634765625
        },
        {
          "ticks": 150314,
          "time": 221.56401032812502,
          "value": 0.6982421875
        },
        {
          "ticks": 150318,
          "time": 221.569906359375,
          "value": 0.777587890625
        },
        {
          "ticks": 150322,
          "time": 221.57580239062503,
          "value": 0.85693359375
        },
        {
          "ticks": 150326,
          "time": 221.58169842187502,
          "value": 0.936279296875
        },
        {
          "ticks": 150330,
          "time": 221.587594453125,
          "value": 0.999755859375
        },
        {
          "ticks": 150606,
          "time": 221.99442060937503,
          "value": 0.98388671875
        },
        {
          "ticks": 150610,
          "time": 222.00031664062504,
          "value": 0.9521484375
        },
        {
          "ticks": 150616,
          "time": 222.00916068750004,
          "value": 0.92041015625
        },
        {
          "ticks": 150620,
          "time": 222.01505671875,
          "value": 0.888671875
        },
        {
          "ticks": 150628,
          "time": 222.02684878125004,
          "value": 0.85693359375
        },
        {
          "ticks": 150630,
          "time": 222.02979679687502,
          "value": 0.8251953125
        },
        {
          "ticks": 150634,
          "time": 222.03569282812504,
          "value": 0.79345703125
        },
        {
          "ticks": 150638,
          "time": 222.041588859375,
          "value": 0.76171875
        },
        {
          "ticks": 150640,
          "time": 222.04453687500003,
          "value": 0.650634765625
        },
        {
          "ticks": 150640,
          "time": 222.04453687500003,
          "value": 0.682373046875
        },
        {
          "ticks": 150640,
          "time": 222.04453687500003,
          "value": 0.714111328125
        },
        {
          "ticks": 150650,
          "time": 222.05927695312502,
          "value": 0.618896484375
        },
        {
          "ticks": 150654,
          "time": 222.065172984375,
          "value": 0.587158203125
        },
        {
          "ticks": 150656,
          "time": 222.06812100000002,
          "value": 0.555419921875
        },
        {
          "ticks": 150660,
          "time": 222.07401703125,
          "value": 0.523681640625
        },
        {
          "ticks": 150664,
          "time": 222.07991306250003,
          "value": 0.491943359375
        },
        {
          "ticks": 150670,
          "time": 222.08875710937502,
          "value": 0.428466796875
        },
        {
          "ticks": 150670,
          "time": 222.08875710937502,
          "value": 0.460205078125
        },
        {
          "ticks": 150672,
          "time": 222.09170512500003,
          "value": 0.380859375
        },
        {
          "ticks": 150678,
          "time": 222.10054917187503,
          "value": 0.34912109375
        },
        {
          "ticks": 150680,
          "time": 222.1034971875,
          "value": 0.301513671875
        },
        {
          "ticks": 150684,
          "time": 222.10939321875003,
          "value": 0.269775390625
        },
        {
          "ticks": 150690,
          "time": 222.11823726562503,
          "value": 0.238037109375
        },
        {
          "ticks": 150694,
          "time": 222.12413329687504,
          "value": 0.1904296875
        },
        {
          "ticks": 150696,
          "time": 222.12708131250002,
          "value": 0.15869140625
        },
        {
          "ticks": 150700,
          "time": 222.13297734375004,
          "value": 0.111083984375
        },
        {
          "ticks": 150702,
          "time": 222.13592535937502,
          "value": 0.0634765625
        },
        {
          "ticks": 150704,
          "time": 222.138873375,
          "value": 0.015869140625
        },
        {
          "ticks": 150710,
          "time": 222.147717421875,
          "value": 0
        },
        {
          "ticks": 150854,
          "time": 222.359974546875,
          "value": 0.03173828125
        },
        {
          "ticks": 150858,
          "time": 222.36587057812503,
          "value": 0.0634765625
        },
        {
          "ticks": 150862,
          "time": 222.37176660937504,
          "value": 0.09521484375
        },
        {
          "ticks": 150864,
          "time": 222.37471462500002,
          "value": 0.15869140625
        },
        {
          "ticks": 150870,
          "time": 222.38355867187502,
          "value": 0.1904296875
        },
        {
          "ticks": 150874,
          "time": 222.38945470312504,
          "value": 0.238037109375
        },
        {
          "ticks": 150876,
          "time": 222.39240271875002,
          "value": 0.28564453125
        },
        {
          "ticks": 150880,
          "time": 222.39829875000004,
          "value": 0.333251953125
        },
        {
          "ticks": 150884,
          "time": 222.40419478125,
          "value": 0.380859375
        },
        {
          "ticks": 150888,
          "time": 222.41009081250002,
          "value": 0.428466796875
        },
        {
          "ticks": 150892,
          "time": 222.41598684375003,
          "value": 0.47607421875
        },
        {
          "ticks": 150896,
          "time": 222.42188287500002,
          "value": 0.5078125
        },
        {
          "ticks": 150900,
          "time": 222.42777890625,
          "value": 0.555419921875
        },
        {
          "ticks": 150904,
          "time": 222.43367493750003,
          "value": 0.587158203125
        },
        {
          "ticks": 150906,
          "time": 222.436622953125,
          "value": 0.634765625
        },
        {
          "ticks": 150910,
          "time": 222.44251898437503,
          "value": 0.650634765625
        },
        {
          "ticks": 150914,
          "time": 222.44841501562502,
          "value": 0.6982421875
        },
        {
          "ticks": 150918,
          "time": 222.454311046875,
          "value": 0.72998046875
        },
        {
          "ticks": 150922,
          "time": 222.46020707812502,
          "value": 0.76171875
        },
        {
          "ticks": 150926,
          "time": 222.466103109375,
          "value": 0.79345703125
        },
        {
          "ticks": 150930,
          "time": 222.47199914062503,
          "value": 0.8251953125
        },
        {
          "ticks": 150934,
          "time": 222.47789517187502,
          "value": 0.841064453125
        },
        {
          "ticks": 150938,
          "time": 222.483791203125,
          "value": 0.888671875
        },
        {
          "ticks": 150942,
          "time": 222.48968723437503,
          "value": 0.92041015625
        },
        {
          "ticks": 150944,
          "time": 222.49263525,
          "value": 0.936279296875
        },
        {
          "ticks": 150948,
          "time": 222.49853128125002,
          "value": 0.968017578125
        },
        {
          "ticks": 150954,
          "time": 222.50737532812502,
          "value": 0.999755859375
        },
        {
          "ticks": 151392,
          "time": 223.15299075000001,
          "value": 0.015380859375
        },
        {
          "ticks": 151906,
          "time": 223.91063076562503,
          "value": -0.046875
        },
        {
          "ticks": 151908,
          "time": 223.91357878125,
          "value": -0.125
        },
        {
          "ticks": 151912,
          "time": 223.91947481250003,
          "value": -0.21875
        },
        {
          "ticks": 151916,
          "time": 223.92537084375002,
          "value": -0.28125
        },
        {
          "ticks": 151920,
          "time": 223.931266875,
          "value": -0.328125
        },
        {
          "ticks": 151922,
          "time": 223.93421489062501,
          "value": -0.359375
        },
        {
          "ticks": 151928,
          "time": 223.9430589375,
          "value": -0.40625
        },
        {
          "ticks": 151930,
          "time": 223.94600695312502,
          "value": -0.421875
        },
        {
          "ticks": 151934,
          "time": 223.951902984375,
          "value": -0.4375
        },
        {
          "ticks": 151940,
          "time": 223.96074703125,
          "value": -0.453125
        },
        {
          "ticks": 151948,
          "time": 223.97253909375004,
          "value": -0.484375
        },
        {
          "ticks": 151952,
          "time": 223.978435125,
          "value": -0.5
        },
        {
          "ticks": 151972,
          "time": 224.00791528125004,
          "value": -0.515625
        },
        {
          "ticks": 151984,
          "time": 224.02560337500003,
          "value": -0.53125
        },
        {
          "ticks": 152010,
          "time": 224.06392757812503,
          "value": -0.515625
        },
        {
          "ticks": 152014,
          "time": 224.06982360937502,
          "value": -0.5
        },
        {
          "ticks": 152022,
          "time": 224.08161567187503,
          "value": -0.484375
        },
        {
          "ticks": 152024,
          "time": 224.0845636875,
          "value": -0.46875
        },
        {
          "ticks": 152032,
          "time": 224.09635575000004,
          "value": -0.453125
        },
        {
          "ticks": 152038,
          "time": 224.10519979687504,
          "value": -0.4375
        },
        {
          "ticks": 152048,
          "time": 224.119939875,
          "value": -0.421875
        },
        {
          "ticks": 152052,
          "time": 224.12583590625002,
          "value": -0.40625
        },
        {
          "ticks": 152054,
          "time": 224.128783921875,
          "value": -0.390625
        },
        {
          "ticks": 152060,
          "time": 224.13762796875,
          "value": -0.375
        },
        {
          "ticks": 152064,
          "time": 224.143524,
          "value": -0.359375
        },
        {
          "ticks": 152070,
          "time": 224.152368046875,
          "value": -0.328125
        },
        {
          "ticks": 152072,
          "time": 224.15531606250002,
          "value": -0.3125
        },
        {
          "ticks": 152080,
          "time": 224.16710812500003,
          "value": -0.296875
        },
        {
          "ticks": 152086,
          "time": 224.17595217187502,
          "value": -0.28125
        },
        {
          "ticks": 152090,
          "time": 224.181848203125,
          "value": -0.265625
        },
        {
          "ticks": 152098,
          "time": 224.19364026562502,
          "value": -0.234375
        },
        {
          "ticks": 152102,
          "time": 224.199536296875,
          "value": -0.21875
        },
        {
          "ticks": 152106,
          "time": 224.20543232812503,
          "value": -0.203125
        },
        {
          "ticks": 152110,
          "time": 224.21132835937502,
          "value": -0.1875
        },
        {
          "ticks": 152114,
          "time": 224.217224390625,
          "value": -0.171875
        },
        {
          "ticks": 152118,
          "time": 224.22312042187502,
          "value": -0.140625
        },
        {
          "ticks": 152122,
          "time": 224.22901645312504,
          "value": -0.125
        },
        {
          "ticks": 152124,
          "time": 224.23196446875002,
          "value": -0.09375
        },
        {
          "ticks": 152128,
          "time": 224.23786050000004,
          "value": -0.0625
        },
        {
          "ticks": 152132,
          "time": 224.24375653125,
          "value": -0.03125
        },
        {
          "ticks": 152136,
          "time": 224.24965256250002,
          "value": 0
        },
        {
          "ticks": 153562,
          "time": 226.35158770312503,
          "value": -0.0625
        },
        {
          "ticks": 153566,
          "time": 226.35748373437502,
          "value": -0.1875
        },
        {
          "ticks": 153570,
          "time": 226.363379765625,
          "value": -0.28125
        },
        {
          "ticks": 153576,
          "time": 226.3722238125,
          "value": -0.34375
        },
        {
          "ticks": 153582,
          "time": 226.381067859375,
          "value": -0.390625
        },
        {
          "ticks": 153584,
          "time": 226.38401587500002,
          "value": -0.4375
        },
        {
          "ticks": 153588,
          "time": 226.38991190625,
          "value": -0.46875
        },
        {
          "ticks": 153594,
          "time": 226.39875595312503,
          "value": -0.5
        },
        {
          "ticks": 153602,
          "time": 226.410548015625,
          "value": -0.53125
        },
        {
          "ticks": 153628,
          "time": 226.44887221875004,
          "value": -0.515625
        },
        {
          "ticks": 153636,
          "time": 226.46066428125002,
          "value": -0.5
        },
        {
          "ticks": 153648,
          "time": 226.47835237500001,
          "value": -0.484375
        },
        {
          "ticks": 153652,
          "time": 226.48424840625003,
          "value": -0.46875
        },
        {
          "ticks": 153660,
          "time": 226.49604046875,
          "value": -0.453125
        },
        {
          "ticks": 153666,
          "time": 226.504884515625,
          "value": -0.4375
        },
        {
          "ticks": 153672,
          "time": 226.5137285625,
          "value": -0.40625
        },
        {
          "ticks": 153676,
          "time": 226.51962459375002,
          "value": -0.390625
        },
        {
          "ticks": 153680,
          "time": 226.525520625,
          "value": -0.375
        },
        {
          "ticks": 153684,
          "time": 226.53141665625003,
          "value": -0.359375
        },
        {
          "ticks": 153688,
          "time": 226.53731268750002,
          "value": -0.34375
        },
        {
          "ticks": 153696,
          "time": 226.54910475000003,
          "value": -0.328125
        },
        {
          "ticks": 153698,
          "time": 226.552052765625,
          "value": -0.296875
        },
        {
          "ticks": 153702,
          "time": 226.55794879687502,
          "value": -0.265625
        },
        {
          "ticks": 153706,
          "time": 226.56384482812504,
          "value": -0.171875
        },
        {
          "ticks": 153712,
          "time": 226.57268887500004,
          "value": -0.140625
        },
        {
          "ticks": 153714,
          "time": 226.57563689062502,
          "value": -0.109375
        },
        {
          "ticks": 153720,
          "time": 226.58448093750002,
          "value": -0.09375
        },
        {
          "ticks": 153722,
          "time": 226.587428953125,
          "value": -0.0625
        },
        {
          "ticks": 153724,
          "time": 226.59037696875004,
          "value": -0.046875
        },
        {
          "ticks": 153732,
          "time": 226.60216903125,
          "value": -0.03125
        },
        {
          "ticks": 153734,
          "time": 226.60511704687502,
          "value": 0
        },
        {
          "ticks": 159714,
          "time": 235.41968376562502,
          "value": -0.1875
        },
        {
          "ticks": 159718,
          "time": 235.42557979687504,
          "value": -0.28125
        },
        {
          "ticks": 159722,
          "time": 235.431475828125,
          "value": -0.359375
        },
        {
          "ticks": 159726,
          "time": 235.43737185937502,
          "value": -0.421875
        },
        {
          "ticks": 159728,
          "time": 235.440319875,
          "value": -0.46875
        },
        {
          "ticks": 159734,
          "time": 235.449163921875,
          "value": -0.5
        },
        {
          "ticks": 159736,
          "time": 235.45211193750004,
          "value": -0.546875
        },
        {
          "ticks": 159742,
          "time": 235.46095598437503,
          "value": -0.578125
        },
        {
          "ticks": 159746,
          "time": 235.46685201562502,
          "value": -0.609375
        },
        {
          "ticks": 159748,
          "time": 235.46980003125003,
          "value": -0.640625
        },
        {
          "ticks": 159756,
          "time": 235.48159209375,
          "value": -0.6875
        },
        {
          "ticks": 159768,
          "time": 235.49928018750003,
          "value": -0.703125
        },
        {
          "ticks": 159788,
          "time": 235.52876034375,
          "value": -0.6875
        },
        {
          "ticks": 159792,
          "time": 235.53465637500003,
          "value": -0.640625
        },
        {
          "ticks": 159798,
          "time": 235.54350042187502,
          "value": -0.609375
        },
        {
          "ticks": 159802,
          "time": 235.54939645312504,
          "value": -0.5625
        },
        {
          "ticks": 159804,
          "time": 235.55234446875002,
          "value": -0.515625
        },
        {
          "ticks": 159808,
          "time": 235.55824050000004,
          "value": -0.46875
        },
        {
          "ticks": 159812,
          "time": 235.56413653125,
          "value": -0.4375
        },
        {
          "ticks": 159816,
          "time": 235.57003256250002,
          "value": -0.390625
        },
        {
          "ticks": 159820,
          "time": 235.57592859375004,
          "value": -0.34375
        },
        {
          "ticks": 159824,
          "time": 235.581824625,
          "value": -0.3125
        },
        {
          "ticks": 159828,
          "time": 235.58772065625,
          "value": -0.265625
        },
        {
          "ticks": 159832,
          "time": 235.59361668750003,
          "value": -0.203125
        },
        {
          "ticks": 159836,
          "time": 235.59951271875002,
          "value": -0.140625
        },
        {
          "ticks": 159840,
          "time": 235.60540875,
          "value": -0.0625
        },
        {
          "ticks": 159844,
          "time": 235.61130478125003,
          "value": 0
        }
      ],
      "instrument": {
        "family": "piano",
        "number": 0,
        "name": "acoustic grand piano"
      },
      "name": "Vocal-Lin",
      "notes": [
        {
          "duration": 0.08844046875000089,
          "durationTicks": 60,
          "midi": 59,
          "name": "B3",
          "ticks": 21112,
          "time": 31.1192529375,
          "velocity": 0.7322834645669292
        },
        {
          "duration": 0.11202459375000018,
          "durationTicks": 76,
          "midi": 61,
          "name": "C#4",
          "ticks": 21212,
          "time": 31.266653718750003,
          "velocity": 0.8740157480314961
        },
        {
          "duration": 0.1474007812499991,
          "durationTicks": 100,
          "midi": 62,
          "name": "D4",
          "ticks": 21324,
          "time": 31.431742593750002,
          "velocity": 0.8740157480314961
        },
        {
          "duration": 0.2948015624999982,
          "durationTicks": 200,
          "midi": 61,
          "name": "C#4",
          "ticks": 21460,
          "time": 31.632207656250003,
          "velocity": 0.9448818897637795
        },
        {
          "duration": 0.5601229687499973,
          "durationTicks": 380,
          "midi": 59,
          "name": "B3",
          "ticks": 21700,
          "time": 31.985969531250003,
          "velocity": 0.8031496062992126
        },
        {
          "duration": 0.5512789218750029,
          "durationTicks": 374,
          "midi": 61,
          "name": "C#4",
          "ticks": 22854,
          "time": 33.686974546875,
          "velocity": 0.9448818897637795
        },
        {
          "duration": 0.18572498437499974,
          "durationTicks": 126,
          "midi": 59,
          "name": "B3",
          "ticks": 23232,
          "time": 34.244149500000006,
          "velocity": 0.7322834645669292
        },
        {
          "duration": 0.2152051406250024,
          "durationTicks": 146,
          "midi": 61,
          "name": "C#4",
          "ticks": 23412,
          "time": 34.50947090625,
          "velocity": 0.9448818897637795
        },
        {
          "duration": 0.20636109375000444,
          "durationTicks": 140,
          "midi": 61,
          "name": "C#4",
          "ticks": 23604,
          "time": 34.79248040625,
          "velocity": 0.8740157480314961
        },
        {
          "duration": 0.2387892656250017,
          "durationTicks": 162,
          "midi": 64,
          "name": "E4",
          "ticks": 23818,
          "time": 35.107918078125,
          "velocity": 0.9448818897637795
        },
        {
          "duration": 0.18867300000000142,
          "durationTicks": 128,
          "midi": 62,
          "name": "D4",
          "ticks": 24020,
          "time": 35.40566765625,
          "velocity": 0.8740157480314961
        },
        {
          "duration": 0.13855673437500116,
          "durationTicks": 94,
          "midi": 61,
          "name": "C#4",
          "ticks": 24198,
          "time": 35.668041046875004,
          "velocity": 0.9448818897637795
        },
        {
          "duration": 0.17982895312500347,
          "durationTicks": 122,
          "midi": 62,
          "name": "D4",
          "ticks": 24330,
          "time": 35.862610078125,
          "velocity": 0.8740157480314961
        },
        {
          "duration": 0.5070586874999918,
          "durationTicks": 344,
          "midi": 59,
          "name": "B3",
          "ticks": 24486,
          "time": 36.092555296875005,
          "velocity": 0.7322834645669292
        },
        {
          "duration": 0.12086864062499103,
          "durationTicks": 82,
          "midi": 59,
          "name": "B3",
          "ticks": 24970,
          "time": 36.80597507812501,
          "velocity": 0.6614173228346457
        },
        {
          "duration": 0.1297126875000032,
          "durationTicks": 88,
          "midi": 61,
          "name": "C#4",
          "ticks": 25076,
          "time": 36.96221990625,
          "velocity": 0.9448818897637795
        },
        {
          "duration": 0.16803689062499672,
          "durationTicks": 114,
          "midi": 62,
          "name": "D4",
          "ticks": 25194,
          "time": 37.136152828125006,
          "velocity": 0.8740157480314961
        },
        {
          "duration": 0.2771134687500023,
          "durationTicks": 188,
          "midi": 61,
          "name": "C#4",
          "ticks": 25342,
          "time": 37.354305984375,
          "velocity": 0.9448818897637795
        },
        {
          "duration": 0.5247467812499949,
          "durationTicks": 356,
          "midi": 59,
          "name": "B3",
          "ticks": 25554,
          "time": 37.666795640625004,
          "velocity": 0.8031496062992126
        },
        {
          "duration": 0.5041106718749973,
          "durationTicks": 342,
          "midi": 57,
          "name": "A3",
          "ticks": 25922,
          "time": 38.209230515625,
          "velocity": 0.8031496062992126
        },
        {
          "duration": 0.24763331249999965,
          "durationTicks": 168,
          "midi": 54,
          "name": "F#3",
          "ticks": 26288,
          "time": 38.748717375,
          "velocity": 0.6614173228346457
        },
        {
          "duration": 0.22994521874999663,
          "durationTicks": 156,
          "midi": 57,
          "name": "A3",
          "ticks": 26486,
          "time": 39.040570921875,
          "velocity": 0.8740157480314961
        },
        {
          "duration": 0.20341307812500276,
          "durationTicks": 138,
          "midi": 57,
          "name": "A3",
          "ticks": 26682,
          "time": 39.329476453125004,
          "velocity": 0.8740157480314961
        },
        {
          "duration": 0.23878926562499458,
          "durationTicks": 162,
          "midi": 62,
          "name": "D4",
          "ticks": 26876,
          "time": 39.615433968750004,
          "velocity": 0.9448818897637795
        },
        {
          "duration": 0.22699720312500204,
          "durationTicks": 154,
          "midi": 61,
          "name": "C#4",
          "ticks": 27072,
          "time": 39.904339500000006,
          "velocity": 0.8740157480314961
        },
        {
          "duration": 0.1474007812499991,
          "durationTicks": 100,
          "midi": 61,
          "name": "C#4",
          "ticks": 27272,
          "time": 40.199141062500004,
          "velocity": 0.8740157480314961
        },
        {
          "duration": 0.2122571249999936,
          "durationTicks": 144,
          "midi": 59,
          "name": "B3",
          "ticks": 27398,
          "time": 40.384866046875004,
          "velocity": 0.8031496062992126
        },
        {
          "duration": 0.4982146406249939,
          "durationTicks": 338,
          "midi": 59,
          "name": "B3",
          "ticks": 27580,
          "time": 40.65313546875001,
          "velocity": 0.9448818897637795
        },
        {
          "duration": 0.09433649999999716,
          "durationTicks": 64,
          "midi": 59,
          "name": "B3",
          "ticks": 28030,
          "time": 41.316438984375004,
          "velocity": 0.8031496062992126
        },
        {
          "duration": 0.10318054687500222,
          "durationTicks": 70,
          "midi": 61,
          "name": "C#4",
          "ticks": 28134,
          "time": 41.46973579687501,
          "velocity": 0.8740157480314961
        },
        {
          "duration": 0.16214085937499334,
          "durationTicks": 110,
          "midi": 62,
          "name": "D4",
          "ticks": 28246,
          "time": 41.63482467187501,
          "velocity": 0.8740157480314961
        },
        {
          "duration": 0.26532140625000267,
          "durationTicks": 180,
          "midi": 61,
          "name": "C#4",
          "ticks": 28398,
          "time": 41.858873859375,
          "velocity": 0.9448818897637795
        },
        {
          "duration": 0.6161352656250045,
          "durationTicks": 418,
          "midi": 59,
          "name": "B3",
          "ticks": 28608,
          "time": 42.1684155,
          "velocity": 0.8740157480314961
        },
        {
          "duration": 0.2594253750000064,
          "durationTicks": 176,
          "midi": 61,
          "name": "C#4",
          "ticks": 29156,
          "time": 42.97617178125,
          "velocity": 0.8740157480314961
        },
        {
          "duration": 0.25058132812499423,
          "durationTicks": 170,
          "midi": 59,
          "name": "B3",
          "ticks": 29356,
          "time": 43.27097334375001,
          "velocity": 0.8031496062992126
        },
        {
          "duration": 0.2387892656250017,
          "durationTicks": 162,
          "midi": 61,
          "name": "C#4",
          "ticks": 29568,
          "time": 43.583463,
          "velocity": 0.8740157480314961
        },
        {
          "duration": 0.25058132812500133,
          "durationTicks": 170,
          "midi": 61,
          "name": "C#4",
          "ticks": 29758,
          "time": 43.863524484375006,
          "velocity": 0.8740157480314961
        },
        {
          "duration": 0.24173728125000338,
          "durationTicks": 164,
          "midi": 64,
          "name": "E4",
          "ticks": 29966,
          "time": 44.170118109375004,
          "velocity": 0.8031496062992126
        },
        {
          "duration": 0.2152051406249953,
          "durationTicks": 146,
          "midi": 62,
          "name": "D4",
          "ticks": 30154,
          "time": 44.447231578125006,
          "velocity": 0.8740157480314961
        },
        {
          "duration": 0.14150475000000284,
          "durationTicks": 96,
          "midi": 61,
          "name": "C#4",
          "ticks": 30346,
          "time": 44.730241078125005,
          "velocity": 0.9448818897637795
        },
        {
          "duration": 0.20046506250000107,
          "durationTicks": 136,
          "midi": 62,
          "name": "D4",
          "ticks": 30470,
          "time": 44.913018046875,
          "velocity": 0.8740157480314961
        },
        {
          "duration": 0.5306428124999982,
          "durationTicks": 360,
          "midi": 59,
          "name": "B3",
          "ticks": 30638,
          "time": 45.160651359375,
          "velocity": 0.8740157480314961
        },
        {
          "duration": 0.09138848437499547,
          "durationTicks": 62,
          "midi": 59,
          "name": "B3",
          "ticks": 31096,
          "time": 45.835746937500005,
          "velocity": 0.8031496062992126
        },
        {
          "duration": 0.10318054687500222,
          "durationTicks": 70,
          "midi": 61,
          "name": "C#4",
          "ticks": 31206,
          "time": 45.997887796875006,
          "velocity": 0.9448818897637795
        },
        {
          "duration": 0.1709849062499984,
          "durationTicks": 116,
          "midi": 62,
          "name": "D4",
          "ticks": 31320,
          "time": 46.1659246875,
          "velocity": 0.8031496062992126
        },
        {
          "duration": 0.27121743749999894,
          "durationTicks": 184,
          "midi": 61,
          "name": "C#4",
          "ticks": 31474,
          "time": 46.392921890625004,
          "velocity": 0.8740157480314961
        },
        {
          "duration": 0.41861821874999805,
          "durationTicks": 284,
          "midi": 59,
          "name": "B3",
          "ticks": 31692,
          "time": 46.71425559375,
          "velocity": 0.8740157480314961
        },
        {
          "duration": 0.5217987656250003,
          "durationTicks": 354,
          "midi": 57,
          "name": "A3",
          "ticks": 32066,
          "time": 47.265534515625,
          "velocity": 0.8740157480314961
        },
        {
          "duration": 0.24468529687499796,
          "durationTicks": 166,
          "midi": 54,
          "name": "F#3",
          "ticks": 32436,
          "time": 47.810917406250006,
          "velocity": 0.6614173228346457
        },
        {
          "duration": 0.22994521874999663,
          "durationTicks": 156,
          "midi": 57,
          "name": "A3",
          "ticks": 32632,
          "time": 48.09982293750001,
          "velocity": 0.8031496062992126
        },
        {
          "duration": 0.20046506250000107,
          "durationTicks": 136,
          "midi": 57,
          "name": "A3",
          "ticks": 32828,
          "time": 48.38872846875,
          "velocity": 0.9448818897637795
        },
        {
          "duration": 0.26532140625000267,
          "durationTicks": 180,
          "midi": 62,
          "name": "D4",
          "ticks": 33016,
          "time": 48.665841937500005,
          "velocity": 0.9448818897637795
        },
        {
          "duration": 0.20636109374999734,
          "durationTicks": 140,
          "midi": 61,
          "name": "C#4",
          "ticks": 33222,
          "time": 48.969487546875,
          "velocity": 0.8740157480314961
        },
        {
          "duration": 0.17688093750000178,
          "durationTicks": 120,
          "midi": 61,
          "name": "C#4",
          "ticks": 33420,
          "time": 49.261341093750005,
          "velocity": 0.8740157480314961
        },
        {
          "duration": 0.20636109374999734,
          "durationTicks": 140,
          "midi": 59,
          "name": "B3",
          "ticks": 33550,
          "time": 49.45296210937501,
          "velocity": 0.8031496062992126
        },
        {
          "duration": 0.6662515312499977,
          "durationTicks": 452,
          "midi": 59,
          "name": "B3",
          "ticks": 33726,
          "time": 49.71238748437501,
          "velocity": 0.8740157480314961
        },
        {
          "duration": 0.48052654687500507,
          "durationTicks": 326,
          "midi": 59,
          "name": "B3",
          "ticks": 34340,
          "time": 50.61742828125,
          "velocity": 0.9448818897637795
        },
        {
          "duration": 0.16508887499999503,
          "durationTicks": 112,
          "midi": 57,
          "name": "A3",
          "ticks": 34672,
          "time": 51.10679887500001,
          "velocity": 0.8031496062992126
        },
        {
          "duration": 0.5896031250000036,
          "durationTicks": 400,
          "midi": 57,
          "name": "A3",
          "ticks": 34806,
          "time": 51.304315921875,
          "velocity": 0.8031496062992126
        },
        {
          "duration": 0.262373390625001,
          "durationTicks": 178,
          "midi": 54,
          "name": "F#3",
          "ticks": 35340,
          "time": 52.091436093750005,
          "velocity": 0.6614173228346457
        },
        {
          "duration": 0.22699720312500204,
          "durationTicks": 154,
          "midi": 57,
          "name": "A3",
          "ticks": 35526,
          "time": 52.365601546875006,
          "velocity": 0.7322834645669292
        },
        {
          "duration": 0.23584125,
          "durationTicks": 160,
          "midi": 57,
          "name": "A3",
          "ticks": 35712,
          "time": 52.639767000000006,
          "velocity": 0.8031496062992126
        },
        {
          "duration": 0.5748630468749951,
          "durationTicks": 390,
          "midi": 62,
          "name": "D4",
          "ticks": 35916,
          "time": 52.94046459375001,
          "velocity": 0.8740157480314961
        },
        {
          "duration": 0.2358412499999929,
          "durationTicks": 160,
          "midi": 61,
          "name": "C#4",
          "ticks": 36304,
          "time": 53.51237962500001,
          "velocity": 0.8031496062992126
        },
        {
          "duration": 0.16803689062499672,
          "durationTicks": 114,
          "midi": 61,
          "name": "C#4",
          "ticks": 36508,
          "time": 53.81307721875001,
          "velocity": 0.8031496062992126
        },
        {
          "duration": 0.1739329218750072,
          "durationTicks": 118,
          "midi": 59,
          "name": "B3",
          "ticks": 36624,
          "time": 53.984062125,
          "velocity": 0.8031496062992126
        },
        {
          "duration": 0.5453828906249996,
          "durationTicks": 370,
          "midi": 59,
          "name": "B3",
          "ticks": 36780,
          "time": 54.214007343750005,
          "velocity": 0.8740157480314961
        },
        {
          "duration": 0.11202459375000728,
          "durationTicks": 76,
          "midi": 59,
          "name": "B3",
          "ticks": 37248,
          "time": 54.903843,
          "velocity": 0.8031496062992126
        },
        {
          "duration": 0.12086864062499814,
          "durationTicks": 82,
          "midi": 57,
          "name": "A3",
          "ticks": 37352,
          "time": 55.057139812500004,
          "velocity": 0.8031496062992126
        },
        {
          "duration": 0.2948015624999982,
          "durationTicks": 200,
          "midi": 59,
          "name": "B3",
          "ticks": 37470,
          "time": 55.231072734375005,
          "velocity": 0.8740157480314961
        },
        {
          "duration": 0.44220234375000445,
          "durationTicks": 300,
          "midi": 57,
          "name": "A3",
          "ticks": 37714,
          "time": 55.590730640625004,
          "velocity": 0.8740157480314961
        },
        {
          "duration": 0.280061484375004,
          "durationTicks": 190,
          "midi": 57,
          "name": "A3",
          "ticks": 38178,
          "time": 56.274670265625005,
          "velocity": 0.7244094488188977
        },
        {
          "duration": 0.1474007812499991,
          "durationTicks": 100,
          "midi": 59,
          "name": "B3",
          "ticks": 38382,
          "time": 56.57536785937501,
          "velocity": 0.8188976377952756
        },
        {
          "duration": 0.22994521874999663,
          "durationTicks": 156,
          "midi": 57,
          "name": "A3",
          "ticks": 38508,
          "time": 56.761092843750006,
          "velocity": 0.7244094488188977
        },
        {
          "duration": 0.3655539375000032,
          "durationTicks": 248,
          "midi": 59,
          "name": "B3",
          "ticks": 38684,
          "time": 57.020518218750006,
          "velocity": 0.8031496062992126
        },
        {
          "duration": 0.2830094999999986,
          "durationTicks": 192,
          "midi": 59,
          "name": "B3",
          "ticks": 38962,
          "time": 57.430292390625006,
          "velocity": 0.8740157480314961
        },
        {
          "duration": 0.24763331249999965,
          "durationTicks": 168,
          "midi": 64,
          "name": "E4",
          "ticks": 39166,
          "time": 57.73098998437501,
          "velocity": 0.8740157480314961
        },
        {
          "duration": 0.2122571250000007,
          "durationTicks": 144,
          "midi": 62,
          "name": "D4",
          "ticks": 39362,
          "time": 58.019895515625,
          "velocity": 0.8031496062992126
        },
        {
          "duration": 0.15329681249999538,
          "durationTicks": 104,
          "midi": 61,
          "name": "C#4",
          "ticks": 39544,
          "time": 58.28816493750001,
          "velocity": 0.8740157480314961
        },
        {
          "duration": 0.18867299999999432,
          "durationTicks": 128,
          "midi": 59,
          "name": "B3",
          "ticks": 39660,
          "time": 58.459149843750005,
          "velocity": 0.8740157480314961
        },
        {
          "duration": 0.6190832812499991,
          "durationTicks": 420,
          "midi": 59,
          "name": "B3",
          "ticks": 39836,
          "time": 58.718575218750004,
          "velocity": 0.8740157480314961
        },
        {
          "duration": 0.27121743750000604,
          "durationTicks": 184,
          "midi": 59,
          "name": "B3",
          "ticks": 40308,
          "time": 59.414306906250005,
          "velocity": 0.8031496062992126
        },
        {
          "duration": 0.26532140624999556,
          "durationTicks": 180,
          "midi": 59,
          "name": "B3",
          "ticks": 40520,
          "time": 59.726796562500006,
          "velocity": 0.8740157480314961
        },
        {
          "duration": 0.7723800937500016,
          "durationTicks": 524,
          "midi": 57,
          "name": "A3",
          "ticks": 40728,
          "time": 60.033390187500004,
          "velocity": 0.8031496062992126
        },
        {
          "duration": 0.262373390625001,
          "durationTicks": 178,
          "midi": 57,
          "name": "A3",
          "ticks": 41280,
          "time": 60.84704250000001,
          "velocity": 0.6614173228346457
        },
        {
          "duration": 0.15919284374999876,
          "durationTicks": 108,
          "midi": 57,
          "name": "A3",
          "ticks": 41474,
          "time": 61.133000015625,
          "velocity": 0.7322834645669292
        },
        {
          "duration": 0.17393292187499299,
          "durationTicks": 118,
          "midi": 54,
          "name": "F#3",
          "ticks": 41590,
          "time": 61.303984921875006,
          "velocity": 0.6614173228346457
        },
        {
          "duration": 0.16803689062499672,
          "durationTicks": 114,
          "midi": 54,
          "name": "F#3",
          "ticks": 41746,
          "time": 61.53393014062501,
          "velocity": 0.6299212598425197
        },
        {
          "duration": 0.16214085937500045,
          "durationTicks": 110,
          "midi": 52,
          "name": "E3",
          "ticks": 41860,
          "time": 61.70196703125001,
          "velocity": 0.7322834645669292
        },
        {
          "duration": 0.6249793125000025,
          "durationTicks": 424,
          "midi": 54,
          "name": "F#3",
          "ticks": 41988,
          "time": 61.89064003125001,
          "velocity": 0.7322834645669292
        },
        {
          "duration": 0.2564773593749976,
          "durationTicks": 174,
          "midi": 59,
          "name": "B3",
          "ticks": 42432,
          "time": 62.545099500000006,
          "velocity": 0.7322834645669292
        },
        {
          "duration": 0.15329681249999538,
          "durationTicks": 104,
          "midi": 59,
          "name": "B3",
          "ticks": 42642,
          "time": 62.854641140625006,
          "velocity": 0.8031496062992126
        },
        {
          "duration": 0.1945690312500048,
          "durationTicks": 132,
          "midi": 61,
          "name": "C#4",
          "ticks": 42746,
          "time": 63.007937953125,
          "velocity": 0.7322834645669292
        },
        {
          "duration": 0.38029401562499743,
          "durationTicks": 258,
          "midi": 61,
          "name": "C#4",
          "ticks": 42920,
          "time": 63.264415312500006,
          "velocity": 0.8740157480314961
        },
        {
          "duration": 0.4716825,
          "durationTicks": 320,
          "midi": 59,
          "name": "B3",
          "ticks": 43198,
          "time": 63.674189484375006,
          "velocity": 0.6614173228346457
        },
        {
          "duration": 0.23289323437499831,
          "durationTicks": 158,
          "midi": 54,
          "name": "F#3",
          "ticks": 43964,
          "time": 64.80327946875,
          "velocity": 0.5984251968503937
        },
        {
          "duration": 0.25058132812500844,
          "durationTicks": 170,
          "midi": 57,
          "name": "A3",
          "ticks": 44144,
          "time": 65.068600875,
          "velocity": 0.8031496062992126
        },
        {
          "duration": 0.5217987656249932,
          "durationTicks": 354,
          "midi": 61,
          "name": "C#4",
          "ticks": 44350,
          "time": 65.37224648437501,
          "velocity": 0.8740157480314961
        },
        {
          "duration": 0.24468529687500506,
          "durationTicks": 166,
          "midi": 59,
          "name": "B3",
          "ticks": 44724,
          "time": 65.92352540625001,
          "velocity": 0.8740157480314961
        },
        {
          "duration": 1.1497260937500045,
          "durationTicks": 780,
          "midi": 59,
          "name": "B3",
          "ticks": 44924,
          "time": 66.21832696875,
          "velocity": 0.8740157480314961
        },
        {
          "duration": 0.35376187500000356,
          "durationTicks": 240,
          "midi": 64,
          "name": "E4",
          "ticks": 46078,
          "time": 67.919331984375,
          "velocity": 0.9448818897637795
        },
        {
          "duration": 0.42156623437500684,
          "durationTicks": 286,
          "midi": 62,
          "name": "D4",
          "ticks": 46328,
          "time": 68.2878339375,
          "velocity": 0.9448818897637795
        },
        {
          "duration": 0.20341307812499565,
          "durationTicks": 138,
          "midi": 62,
          "name": "D4",
          "ticks": 47054,
          "time": 69.357963609375,
          "velocity": 0.8740157480314961
        },
        {
          "duration": 0.09138848437501679,
          "durationTicks": 62,
          "midi": 62,
          "name": "D4",
          "ticks": 47240,
          "time": 69.6321290625,
          "velocity": 0.8740157480314961
        },
        {
          "duration": 0.13266070312499778,
          "durationTicks": 90,
          "midi": 64,
          "name": "E4",
          "ticks": 47340,
          "time": 69.77952984375001,
          "velocity": 0.8031496062992126
        },
        {
          "duration": 0.4363063125000082,
          "durationTicks": 296,
          "midi": 66,
          "name": "F#4",
          "ticks": 47496,
          "time": 70.0094750625,
          "velocity": 0.8031496062992126
        },
        {
          "duration": 0.16214085937500045,
          "durationTicks": 110,
          "midi": 67,
          "name": "G4",
          "ticks": 47818,
          "time": 70.48410557812501,
          "velocity": 0.8740157480314961
        },
        {
          "duration": 0.12381665624999982,
          "durationTicks": 84,
          "midi": 66,
          "name": "F#4",
          "ticks": 48000,
          "time": 70.752375,
          "velocity": 0.9448818897637795
        },
        {
          "duration": 0.15624482812499707,
          "durationTicks": 106,
          "midi": 64,
          "name": "E4",
          "ticks": 48118,
          "time": 70.92630792187501,
          "velocity": 0.9448818897637795
        },
        {
          "duration": 0.28595751562500027,
          "durationTicks": 194,
          "midi": 64,
          "name": "E4",
          "ticks": 48260,
          "time": 71.13561703125,
          "velocity": 0.8740157480314961
        },
        {
          "duration": 0.4539944062500041,
          "durationTicks": 308,
          "midi": 62,
          "name": "D4",
          "ticks": 48476,
          "time": 71.45400271875,
          "velocity": 0.8740157480314961
        },
        {
          "duration": 0.20046506250000107,
          "durationTicks": 136,
          "midi": 62,
          "name": "D4",
          "ticks": 48944,
          "time": 72.143838375,
          "velocity": 0.8031496062992126
        },
        {
          "duration": 0.27416545312500773,
          "durationTicks": 186,
          "midi": 64,
          "name": "E4",
          "ticks": 49148,
          "time": 72.44453596875,
          "velocity": 0.8740157480314961
        },
        {
          "duration": 0.20636109375000444,
          "durationTicks": 140,
          "midi": 64,
          "name": "E4",
          "ticks": 49360,
          "time": 72.757025625,
          "velocity": 0.7322834645669292
        },
        {
          "duration": 0.22110117187500578,
          "durationTicks": 150,
          "midi": 64,
          "name": "E4",
          "ticks": 49538,
          "time": 73.01939901562501,
          "velocity": 0.8740157480314961
        },
        {
          "duration": 0.22699720312499494,
          "durationTicks": 154,
          "midi": 64,
          "name": "E4",
          "ticks": 49724,
          "time": 73.29356446875,
          "velocity": 0.9448818897637795
        },
        {
          "duration": 0.24468529687499085,
          "durationTicks": 166,
          "midi": 64,
          "name": "E4",
          "ticks": 49922,
          "time": 73.58541801562501,
          "velocity": 0.9448818897637795
        },
        {
          "duration": 0.23289323437501253,
          "durationTicks": 158,
          "midi": 62,
          "name": "D4",
          "ticks": 50104,
          "time": 73.8536874375,
          "velocity": 0.8740157480314961
        },
        {
          "duration": 0.23289323437499831,
          "durationTicks": 158,
          "midi": 62,
          "name": "D4",
          "ticks": 50302,
          "time": 74.145540984375,
          "velocity": 0.8740157480314961
        },
        {
          "duration": 0.21225712500000782,
          "durationTicks": 144,
          "midi": 62,
          "name": "D4",
          "ticks": 50504,
          "time": 74.44329056250001,
          "velocity": 0.9448818897637795
        },
        {
          "duration": 0.20930910937501324,
          "durationTicks": 142,
          "midi": 62,
          "name": "D4",
          "ticks": 50692,
          "time": 74.72040403125,
          "velocity": 0.9448818897637795
        },
        {
          "duration": 0.18867299999999432,
          "durationTicks": 128,
          "midi": 62,
          "name": "D4",
          "ticks": 50882,
          "time": 75.00046551562501,
          "velocity": 0.8740157480314961
        },
        {
          "duration": 0.2152051406249882,
          "durationTicks": 146,
          "midi": 69,
          "name": "A4",
          "ticks": 51080,
          "time": 75.29231906250001,
          "velocity": 0.9448818897637795
        },
        {
          "duration": 0.16214085937500045,
          "durationTicks": 110,
          "midi": 66,
          "name": "F#4",
          "ticks": 51270,
          "time": 75.57238054687501,
          "velocity": 0.8740157480314961
        },
        {
          "duration": 0.1297126875000174,
          "durationTicks": 88,
          "midi": 64,
          "name": "E4",
          "ticks": 51370,
          "time": 75.719781328125,
          "velocity": 0.5905511811023622
        },
        {
          "duration": 0.13266070312499778,
          "durationTicks": 90,
          "midi": 62,
          "name": "D4",
          "ticks": 51458,
          "time": 75.84949401562501,
          "velocity": 0.7716535433070866
        },
        {
          "duration": 0.4687344843750054,
          "durationTicks": 318,
          "midi": 64,
          "name": "E4",
          "ticks": 51562,
          "time": 76.002790828125,
          "velocity": 0.5905511811023622
        },
        {
          "duration": 0.0648563437499945,
          "durationTicks": 44,
          "midi": 62,
          "name": "D4",
          "ticks": 52622,
          "time": 77.56523910937501,
          "velocity": 0.8740157480314961
        },
        {
          "duration": 0.3685019531250049,
          "durationTicks": 250,
          "midi": 62,
          "name": "D4",
          "ticks": 52708,
          "time": 77.69200378125001,
          "velocity": 0.8740157480314961
        },
        {
          "duration": 0.22994521875000373,
          "durationTicks": 156,
          "midi": 62,
          "name": "D4",
          "ticks": 52992,
          "time": 78.110622,
          "velocity": 0.8740157480314961
        },
        {
          "duration": 0.22110117187500578,
          "durationTicks": 150,
          "midi": 64,
          "name": "E4",
          "ticks": 53186,
          "time": 78.396579515625,
          "velocity": 0.9448818897637795
        },
        {
          "duration": 0.22404918750000036,
          "durationTicks": 152,
          "midi": 66,
          "name": "F#4",
          "ticks": 53380,
          "time": 78.68253703125,
          "velocity": 0.9448818897637795
        },
        {
          "duration": 0.09138848437500258,
          "durationTicks": 62,
          "midi": 67,
          "name": "G4",
          "ticks": 53574,
          "time": 78.96849454687501,
          "velocity": 0.9448818897637795
        },
        {
          "duration": 0.350813859375009,
          "durationTicks": 238,
          "midi": 66,
          "name": "F#4",
          "ticks": 53680,
          "time": 79.124739375,
          "velocity": 0.7480314960629921
        },
        {
          "duration": 0.7723800937499874,
          "durationTicks": 524,
          "midi": 62,
          "name": "D4",
          "ticks": 53942,
          "time": 79.51092942187502,
          "velocity": 0.8740157480314961
        },
        {
          "duration": 0.06190832812499991,
          "durationTicks": 42,
          "midi": 62,
          "name": "D4",
          "ticks": 54928,
          "time": 80.964301125,
          "velocity": 0.8740157480314961
        },
        {
          "duration": 0.3449178281250056,
          "durationTicks": 234,
          "midi": 62,
          "name": "D4",
          "ticks": 55010,
          "time": 81.08516976562501,
          "velocity": 0.8031496062992126
        },
        {
          "duration": 0.2387892656250017,
          "durationTicks": 162,
          "midi": 69,
          "name": "A4",
          "ticks": 55304,
          "time": 81.51852806250001,
          "velocity": 0.9448818897637795
        },
        {
          "duration": 0.2122571249999936,
          "durationTicks": 144,
          "midi": 67,
          "name": "G4",
          "ticks": 55502,
          "time": 81.81038160937501,
          "velocity": 0.8031496062992126
        },
        {
          "duration": 0.24173728124999627,
          "durationTicks": 164,
          "midi": 66,
          "name": "F#4",
          "ticks": 55684,
          "time": 82.07865103125,
          "velocity": 0.9448818897637795
        },
        {
          "duration": 0.22994521875000373,
          "durationTicks": 156,
          "midi": 62,
          "name": "D4",
          "ticks": 55870,
          "time": 82.352816484375,
          "velocity": 0.9448818897637795
        },
        {
          "duration": 0.23289323437499831,
          "durationTicks": 158,
          "midi": 62,
          "name": "D4",
          "ticks": 56066,
          "time": 82.641722015625,
          "velocity": 0.9448818897637795
        },
        {
          "duration": 0.23289323437499831,
          "durationTicks": 158,
          "midi": 62,
          "name": "D4",
          "ticks": 56260,
          "time": 82.92767953125,
          "velocity": 0.9448818897637795
        },
        {
          "duration": 0.24763331250001386,
          "durationTicks": 168,
          "midi": 59,
          "name": "B3",
          "ticks": 56444,
          "time": 83.19889696875,
          "velocity": 0.8031496062992126
        },
        {
          "duration": 1.4356836093750047,
          "durationTicks": 974,
          "midi": 62,
          "name": "D4",
          "ticks": 56650,
          "time": 83.502542578125,
          "velocity": 0.9448818897637795
        },
        {
          "duration": 0.35376187500000356,
          "durationTicks": 240,
          "midi": 64,
          "name": "E4",
          "ticks": 58366,
          "time": 86.031939984375,
          "velocity": 0.9448818897637795
        },
        {
          "duration": 0.42156623437499263,
          "durationTicks": 286,
          "midi": 62,
          "name": "D4",
          "ticks": 58616,
          "time": 86.40044193750002,
          "velocity": 0.9448818897637795
        },
        {
          "duration": 0.20341307812499565,
          "durationTicks": 138,
          "midi": 62,
          "name": "D4",
          "ticks": 59342,
          "time": 87.47057160937501,
          "velocity": 0.8740157480314961
        },
        {
          "duration": 0.09138848437498837,
          "durationTicks": 62,
          "midi": 62,
          "name": "D4",
          "ticks": 59528,
          "time": 87.74473706250001,
          "velocity": 0.8740157480314961
        },
        {
          "duration": 0.13266070312499778,
          "durationTicks": 90,
          "midi": 64,
          "name": "E4",
          "ticks": 59628,
          "time": 87.89213784375,
          "velocity": 0.8031496062992126
        },
        {
          "duration": 0.4363063125000082,
          "durationTicks": 296,
          "midi": 66,
          "name": "F#4",
          "ticks": 59784,
          "time": 88.12208306250001,
          "velocity": 0.8031496062992126
        },
        {
          "duration": 0.16214085937500045,
          "durationTicks": 110,
          "midi": 67,
          "name": "G4",
          "ticks": 60106,
          "time": 88.596713578125,
          "velocity": 0.8740157480314961
        },
        {
          "duration": 0.12381665624999982,
          "durationTicks": 84,
          "midi": 66,
          "name": "F#4",
          "ticks": 60288,
          "time": 88.86498300000001,
          "velocity": 0.9448818897637795
        },
        {
          "duration": 0.15624482812501128,
          "durationTicks": 106,
          "midi": 64,
          "name": "E4",
          "ticks": 60406,
          "time": 89.038915921875,
          "velocity": 0.9448818897637795
        },
        {
          "duration": 0.28595751562498606,
          "durationTicks": 194,
          "midi": 64,
          "name": "E4",
          "ticks": 60548,
          "time": 89.24822503125002,
          "velocity": 0.8740157480314961
        },
        {
          "duration": 0.4539944062499899,
          "durationTicks": 308,
          "midi": 62,
          "name": "D4",
          "ticks": 60764,
          "time": 89.56661071875001,
          "velocity": 0.8740157480314961
        },
        {
          "duration": 0.20046506250000107,
          "durationTicks": 136,
          "midi": 62,
          "name": "D4",
          "ticks": 61232,
          "time": 90.25644637500001,
          "velocity": 0.8031496062992126
        },
        {
          "duration": 0.27416545312500773,
          "durationTicks": 186,
          "midi": 64,
          "name": "E4",
          "ticks": 61436,
          "time": 90.55714396875001,
          "velocity": 0.8740157480314961
        },
        {
          "duration": 0.20636109375000444,
          "durationTicks": 140,
          "midi": 64,
          "name": "E4",
          "ticks": 61648,
          "time": 90.869633625,
          "velocity": 0.7322834645669292
        },
        {
          "duration": 0.22110117187500578,
          "durationTicks": 150,
          "midi": 64,
          "name": "E4",
          "ticks": 61826,
          "time": 91.132007015625,
          "velocity": 0.8740157480314961
        },
        {
          "duration": 0.22699720312499494,
          "durationTicks": 154,
          "midi": 64,
          "name": "E4",
          "ticks": 62012,
          "time": 91.40617246875001,
          "velocity": 0.9448818897637795
        },
        {
          "duration": 0.24468529687499085,
          "durationTicks": 166,
          "midi": 64,
          "name": "E4",
          "ticks": 62210,
          "time": 91.69802601562502,
          "velocity": 0.9448818897637795
        },
        {
          "duration": 0.23289323437499831,
          "durationTicks": 158,
          "midi": 62,
          "name": "D4",
          "ticks": 62392,
          "time": 91.96629543750001,
          "velocity": 0.8740157480314961
        },
        {
          "duration": 0.23289323437501253,
          "durationTicks": 158,
          "midi": 62,
          "name": "D4",
          "ticks": 62590,
          "time": 92.258148984375,
          "velocity": 0.8740157480314961
        },
        {
          "duration": 0.2122571249999936,
          "durationTicks": 144,
          "midi": 62,
          "name": "D4",
          "ticks": 62792,
          "time": 92.55589856250002,
          "velocity": 0.9448818897637795
        },
        {
          "duration": 0.20930910937501324,
          "durationTicks": 142,
          "midi": 62,
          "name": "D4",
          "ticks": 62980,
          "time": 92.83301203125001,
          "velocity": 0.9448818897637795
        },
        {
          "duration": 0.1886729999999801,
          "durationTicks": 128,
          "midi": 62,
          "name": "D4",
          "ticks": 63170,
          "time": 93.11307351562502,
          "velocity": 0.8740157480314961
        },
        {
          "duration": 0.2152051406249882,
          "durationTicks": 146,
          "midi": 69,
          "name": "A4",
          "ticks": 63368,
          "time": 93.40492706250001,
          "velocity": 0.9448818897637795
        },
        {
          "duration": 0.16214085937501466,
          "durationTicks": 110,
          "midi": 66,
          "name": "F#4",
          "ticks": 63558,
          "time": 93.684988546875,
          "velocity": 0.8740157480314961
        },
        {
          "duration": 0.1297126875000032,
          "durationTicks": 88,
          "midi": 64,
          "name": "E4",
          "ticks": 63658,
          "time": 93.832389328125,
          "velocity": 0.5905511811023622
        },
        {
          "duration": 0.132660703125012,
          "durationTicks": 90,
          "midi": 62,
          "name": "D4",
          "ticks": 63746,
          "time": 93.962102015625,
          "velocity": 0.7716535433070866
        },
        {
          "duration": 0.4687344843749912,
          "durationTicks": 318,
          "midi": 64,
          "name": "E4",
          "ticks": 63850,
          "time": 94.11539882812501,
          "velocity": 0.5905511811023622
        },
        {
          "duration": 0.0648563437499945,
          "durationTicks": 44,
          "midi": 62,
          "name": "D4",
          "ticks": 64910,
          "time": 95.67784710937501,
          "velocity": 0.8740157480314961
        },
        {
          "duration": 0.3685019531250049,
          "durationTicks": 250,
          "midi": 62,
          "name": "D4",
          "ticks": 64996,
          "time": 95.80461178125,
          "velocity": 0.8740157480314961
        },
        {
          "duration": 0.22994521874998952,
          "durationTicks": 156,
          "midi": 62,
          "name": "D4",
          "ticks": 65280,
          "time": 96.22323000000002,
          "velocity": 0.8740157480314961
        },
        {
          "duration": 0.22110117187499156,
          "durationTicks": 150,
          "midi": 64,
          "name": "E4",
          "ticks": 65474,
          "time": 96.50918751562502,
          "velocity": 0.9448818897637795
        },
        {
          "duration": 0.22404918750000036,
          "durationTicks": 152,
          "midi": 66,
          "name": "F#4",
          "ticks": 65668,
          "time": 96.79514503125,
          "velocity": 0.9448818897637795
        },
        {
          "duration": 0.09138848437501679,
          "durationTicks": 62,
          "midi": 67,
          "name": "G4",
          "ticks": 65862,
          "time": 97.081102546875,
          "velocity": 0.9448818897637795
        },
        {
          "duration": 0.350813859375009,
          "durationTicks": 238,
          "midi": 66,
          "name": "F#4",
          "ticks": 65968,
          "time": 97.237347375,
          "velocity": 0.8188976377952756
        },
        {
          "duration": 0.7723800937499874,
          "durationTicks": 524,
          "midi": 62,
          "name": "D4",
          "ticks": 66230,
          "time": 97.62353742187501,
          "velocity": 0.8740157480314961
        },
        {
          "duration": 0.06190832812499991,
          "durationTicks": 42,
          "midi": 62,
          "name": "D4",
          "ticks": 67216,
          "time": 99.076909125,
          "velocity": 0.8740157480314961
        },
        {
          "duration": 0.3449178281249914,
          "durationTicks": 234,
          "midi": 62,
          "name": "D4",
          "ticks": 67298,
          "time": 99.19777776562502,
          "velocity": 0.8031496062992126
        },
        {
          "duration": 0.2387892656250017,
          "durationTicks": 162,
          "midi": 69,
          "name": "A4",
          "ticks": 67592,
          "time": 99.63113606250002,
          "velocity": 0.9448818897637795
        },
        {
          "duration": 0.21225712500000782,
          "durationTicks": 144,
          "midi": 67,
          "name": "G4",
          "ticks": 67790,
          "time": 99.92298960937501,
          "velocity": 0.8031496062992126
        },
        {
          "duration": 0.24173728125001048,
          "durationTicks": 164,
          "midi": 66,
          "name": "F#4",
          "ticks": 67972,
          "time": 100.19125903125,
          "velocity": 0.9448818897637795
        },
        {
          "duration": 0.22994521875000373,
          "durationTicks": 156,
          "midi": 62,
          "name": "D4",
          "ticks": 68158,
          "time": 100.465424484375,
          "velocity": 0.9448818897637795
        },
        {
          "duration": 0.2328932343749841,
          "durationTicks": 158,
          "midi": 62,
          "name": "D4",
          "ticks": 68354,
          "time": 100.75433001562502,
          "velocity": 0.9448818897637795
        },
        {
          "duration": 0.23289323437501253,
          "durationTicks": 158,
          "midi": 62,
          "name": "D4",
          "ticks": 68548,
          "time": 101.04028753125,
          "velocity": 0.9448818897637795
        },
        {
          "duration": 0.24763331249999965,
          "durationTicks": 168,
          "midi": 59,
          "name": "B3",
          "ticks": 68732,
          "time": 101.31150496875001,
          "velocity": 0.8031496062992126
        },
        {
          "duration": 1.435683609375019,
          "durationTicks": 974,
          "midi": 62,
          "name": "D4",
          "ticks": 68938,
          "time": 101.615150578125,
          "velocity": 0.9448818897637795
        },
        {
          "duration": 0.088440468750008,
          "durationTicks": 60,
          "midi": 61,
          "name": "C#4",
          "ticks": 113272,
          "time": 166.96381293750002,
          "velocity": 0.7322834645669292
        },
        {
          "duration": 0.11202459374999307,
          "durationTicks": 76,
          "midi": 63,
          "name": "D#4",
          "ticks": 113372,
          "time": 167.11121371875,
          "velocity": 0.8740157480314961
        },
        {
          "duration": 0.14740078125001332,
          "durationTicks": 100,
          "midi": 64,
          "name": "E4",
          "ticks": 113484,
          "time": 167.27630259375002,
          "velocity": 0.8740157480314961
        },
        {
          "duration": 0.2948015624999982,
          "durationTicks": 200,
          "midi": 63,
          "name": "D#4",
          "ticks": 113620,
          "time": 167.47676765625002,
          "velocity": 0.9448818897637795
        },
        {
          "duration": 0.5601229687499938,
          "durationTicks": 380,
          "midi": 61,
          "name": "C#4",
          "ticks": 113860,
          "time": 167.83052953125002,
          "velocity": 0.8031496062992126
        },
        {
          "duration": 0.5512789218749958,
          "durationTicks": 374,
          "midi": 63,
          "name": "D#4",
          "ticks": 115014,
          "time": 169.531534546875,
          "velocity": 0.9448818897637795
        },
        {
          "duration": 0.18572498437498552,
          "durationTicks": 126,
          "midi": 61,
          "name": "C#4",
          "ticks": 115392,
          "time": 170.08870950000002,
          "velocity": 0.7322834645669292
        },
        {
          "duration": 0.2152051406249882,
          "durationTicks": 146,
          "midi": 63,
          "name": "D#4",
          "ticks": 115572,
          "time": 170.35403090625002,
          "velocity": 0.9448818897637795
        },
        {
          "duration": 0.20636109374999023,
          "durationTicks": 140,
          "midi": 63,
          "name": "D#4",
          "ticks": 115764,
          "time": 170.63704040625,
          "velocity": 0.8740157480314961
        },
        {
          "duration": 0.23878926562497327,
          "durationTicks": 162,
          "midi": 66,
          "name": "F#4",
          "ticks": 115978,
          "time": 170.95247807812504,
          "velocity": 0.9448818897637795
        },
        {
          "duration": 0.18867299999999432,
          "durationTicks": 128,
          "midi": 64,
          "name": "E4",
          "ticks": 116180,
          "time": 171.25022765625002,
          "velocity": 0.8740157480314961
        },
        {
          "duration": 0.13855673437501537,
          "durationTicks": 94,
          "midi": 63,
          "name": "D#4",
          "ticks": 116358,
          "time": 171.512601046875,
          "velocity": 0.9448818897637795
        },
        {
          "duration": 0.17982895312499636,
          "durationTicks": 122,
          "midi": 64,
          "name": "E4",
          "ticks": 116490,
          "time": 171.70717007812502,
          "velocity": 0.8740157480314961
        },
        {
          "duration": 0.5070586874999776,
          "durationTicks": 344,
          "midi": 61,
          "name": "C#4",
          "ticks": 116646,
          "time": 171.93711529687502,
          "velocity": 0.7322834645669292
        },
        {
          "duration": 0.12086864062499103,
          "durationTicks": 82,
          "midi": 61,
          "name": "C#4",
          "ticks": 117130,
          "time": 172.65053507812502,
          "velocity": 0.6614173228346457
        },
        {
          "duration": 0.1297126875000174,
          "durationTicks": 88,
          "midi": 63,
          "name": "D#4",
          "ticks": 117236,
          "time": 172.80677990625,
          "velocity": 0.9448818897637795
        },
        {
          "duration": 0.16803689062501803,
          "durationTicks": 114,
          "midi": 64,
          "name": "E4",
          "ticks": 117354,
          "time": 172.980712828125,
          "velocity": 0.8740157480314961
        },
        {
          "duration": 0.2771134687499739,
          "durationTicks": 188,
          "midi": 63,
          "name": "D#4",
          "ticks": 117502,
          "time": 173.19886598437503,
          "velocity": 0.9448818897637795
        },
        {
          "duration": 0.5247467812499735,
          "durationTicks": 356,
          "midi": 61,
          "name": "C#4",
          "ticks": 117714,
          "time": 173.51135564062503,
          "velocity": 0.8031496062992126
        },
        {
          "duration": 0.5041106718749973,
          "durationTicks": 342,
          "midi": 59,
          "name": "B3",
          "ticks": 118082,
          "time": 174.053790515625,
          "velocity": 0.8031496062992126
        },
        {
          "duration": 0.24763331249999965,
          "durationTicks": 168,
          "midi": 56,
          "name": "G#3",
          "ticks": 118448,
          "time": 174.593277375,
          "velocity": 0.6614173228346457
        },
        {
          "duration": 0.22994521875000373,
          "durationTicks": 156,
          "midi": 59,
          "name": "B3",
          "ticks": 118646,
          "time": 174.885130921875,
          "velocity": 0.8740157480314961
        },
        {
          "duration": 0.20341307812500986,
          "durationTicks": 138,
          "midi": 59,
          "name": "B3",
          "ticks": 118842,
          "time": 175.174036453125,
          "velocity": 0.8740157480314961
        },
        {
          "duration": 0.2387892656250017,
          "durationTicks": 162,
          "midi": 64,
          "name": "E4",
          "ticks": 119036,
          "time": 175.45999396875,
          "velocity": 0.9448818897637795
        },
        {
          "duration": 0.22699720312499494,
          "durationTicks": 154,
          "midi": 63,
          "name": "D#4",
          "ticks": 119232,
          "time": 175.74889950000002,
          "velocity": 0.8740157480314961
        },
        {
          "duration": 0.14740078125001332,
          "durationTicks": 100,
          "midi": 63,
          "name": "D#4",
          "ticks": 119432,
          "time": 176.0437010625,
          "velocity": 0.8740157480314961
        },
        {
          "duration": 0.21225712500000782,
          "durationTicks": 144,
          "midi": 61,
          "name": "C#4",
          "ticks": 119558,
          "time": 176.229426046875,
          "velocity": 0.8031496062992126
        },
        {
          "duration": 0.49821464062497967,
          "durationTicks": 338,
          "midi": 61,
          "name": "C#4",
          "ticks": 119740,
          "time": 176.49769546875004,
          "velocity": 0.9448818897637795
        },
        {
          "duration": 0.09433649999996874,
          "durationTicks": 64,
          "midi": 61,
          "name": "C#4",
          "ticks": 120190,
          "time": 177.16099898437503,
          "velocity": 0.8031496062992126
        },
        {
          "duration": 0.10318054687499512,
          "durationTicks": 70,
          "midi": 63,
          "name": "D#4",
          "ticks": 120294,
          "time": 177.31429579687503,
          "velocity": 0.8740157480314961
        },
        {
          "duration": 0.16214085937497202,
          "durationTicks": 110,
          "midi": 64,
          "name": "E4",
          "ticks": 120406,
          "time": 177.47938467187504,
          "velocity": 0.8740157480314961
        },
        {
          "duration": 0.26532140624999556,
          "durationTicks": 180,
          "midi": 63,
          "name": "D#4",
          "ticks": 120558,
          "time": 177.70343385937502,
          "velocity": 0.9448818897637795
        },
        {
          "duration": 0.6161352656250187,
          "durationTicks": 418,
          "midi": 61,
          "name": "C#4",
          "ticks": 120768,
          "time": 178.0129755,
          "velocity": 0.8740157480314961
        },
        {
          "duration": 0.2594253750000348,
          "durationTicks": 176,
          "midi": 63,
          "name": "D#4",
          "ticks": 121316,
          "time": 178.82073178125,
          "velocity": 0.8740157480314961
        },
        {
          "duration": 0.25058132812498,
          "durationTicks": 170,
          "midi": 61,
          "name": "C#4",
          "ticks": 121516,
          "time": 179.11553334375003,
          "velocity": 0.8031496062992126
        },
        {
          "duration": 0.2387892656250017,
          "durationTicks": 162,
          "midi": 63,
          "name": "D#4",
          "ticks": 121728,
          "time": 179.42802300000002,
          "velocity": 0.8740157480314961
        },
        {
          "duration": 0.25058132812498,
          "durationTicks": 170,
          "midi": 63,
          "name": "D#4",
          "ticks": 121918,
          "time": 179.70808448437504,
          "velocity": 0.8740157480314961
        },
        {
          "duration": 0.24173728125001048,
          "durationTicks": 164,
          "midi": 66,
          "name": "F#4",
          "ticks": 122126,
          "time": 180.014678109375,
          "velocity": 0.8031496062992126
        },
        {
          "duration": 0.2152051406249882,
          "durationTicks": 146,
          "midi": 64,
          "name": "E4",
          "ticks": 122314,
          "time": 180.29179157812501,
          "velocity": 0.8740157480314961
        },
        {
          "duration": 0.14150474999999574,
          "durationTicks": 96,
          "midi": 63,
          "name": "D#4",
          "ticks": 122506,
          "time": 180.57480107812503,
          "velocity": 0.9448818897637795
        },
        {
          "duration": 0.20046506250000107,
          "durationTicks": 136,
          "midi": 64,
          "name": "E4",
          "ticks": 122630,
          "time": 180.757578046875,
          "velocity": 0.8740157480314961
        },
        {
          "duration": 0.5306428124999911,
          "durationTicks": 360,
          "midi": 61,
          "name": "C#4",
          "ticks": 122798,
          "time": 181.005211359375,
          "velocity": 0.8740157480314961
        },
        {
          "duration": 0.09138848437498837,
          "durationTicks": 62,
          "midi": 61,
          "name": "C#4",
          "ticks": 123256,
          "time": 181.68030693750003,
          "velocity": 0.8031496062992126
        },
        {
          "duration": 0.10318054687502354,
          "durationTicks": 70,
          "midi": 63,
          "name": "D#4",
          "ticks": 123366,
          "time": 181.842447796875,
          "velocity": 0.9448818897637795
        },
        {
          "duration": 0.17098490624996998,
          "durationTicks": 116,
          "midi": 64,
          "name": "E4",
          "ticks": 123480,
          "time": 182.01048468750002,
          "velocity": 0.8031496062992126
        },
        {
          "duration": 0.2712174374999847,
          "durationTicks": 184,
          "midi": 63,
          "name": "D#4",
          "ticks": 123634,
          "time": 182.23748189062502,
          "velocity": 0.8740157480314961
        },
        {
          "duration": 0.41861821874999805,
          "durationTicks": 284,
          "midi": 61,
          "name": "C#4",
          "ticks": 123852,
          "time": 182.55881559375,
          "velocity": 0.8740157480314961
        },
        {
          "duration": 0.5217987656249932,
          "durationTicks": 354,
          "midi": 59,
          "name": "B3",
          "ticks": 124226,
          "time": 183.110094515625,
          "velocity": 0.8740157480314961
        },
        {
          "duration": 0.24468529687501928,
          "durationTicks": 166,
          "midi": 56,
          "name": "G#3",
          "ticks": 124596,
          "time": 183.65547740625001,
          "velocity": 0.6614173228346457
        },
        {
          "duration": 0.22994521875000373,
          "durationTicks": 156,
          "midi": 59,
          "name": "B3",
          "ticks": 124792,
          "time": 183.94438293750002,
          "velocity": 0.8031496062992126
        },
        {
          "duration": 0.20046506250000107,
          "durationTicks": 136,
          "midi": 59,
          "name": "B3",
          "ticks": 124988,
          "time": 184.23328846875,
          "velocity": 0.9448818897637795
        },
        {
          "duration": 0.26532140624999556,
          "durationTicks": 180,
          "midi": 64,
          "name": "E4",
          "ticks": 125176,
          "time": 184.51040193750003,
          "velocity": 0.9448818897637795
        },
        {
          "duration": 0.20636109374999023,
          "durationTicks": 140,
          "midi": 63,
          "name": "D#4",
          "ticks": 125382,
          "time": 184.814047546875,
          "velocity": 0.8740157480314961
        },
        {
          "duration": 0.17688093749998757,
          "durationTicks": 120,
          "midi": 63,
          "name": "D#4",
          "ticks": 125580,
          "time": 185.10590109375002,
          "velocity": 0.8740157480314961
        },
        {
          "duration": 0.20636109374999023,
          "durationTicks": 140,
          "midi": 61,
          "name": "C#4",
          "ticks": 125710,
          "time": 185.29752210937502,
          "velocity": 0.8031496062992126
        },
        {
          "duration": 0.6662515312499693,
          "durationTicks": 452,
          "midi": 61,
          "name": "C#4",
          "ticks": 125886,
          "time": 185.55694748437503,
          "velocity": 0.8740157480314961
        },
        {
          "duration": 0.4805265468750122,
          "durationTicks": 326,
          "midi": 61,
          "name": "C#4",
          "ticks": 126500,
          "time": 186.46198828125,
          "velocity": 0.9448818897637795
        },
        {
          "duration": 0.1650888749999524,
          "durationTicks": 112,
          "midi": 59,
          "name": "B3",
          "ticks": 126832,
          "time": 186.95135887500004,
          "velocity": 0.8031496062992126
        },
        {
          "duration": 0.5896031250000249,
          "durationTicks": 400,
          "midi": 59,
          "name": "B3",
          "ticks": 126966,
          "time": 187.148875921875,
          "velocity": 0.8031496062992126
        },
        {
          "duration": 0.2623733906250152,
          "durationTicks": 178,
          "midi": 56,
          "name": "G#3",
          "ticks": 127500,
          "time": 187.93599609375002,
          "velocity": 0.6614173228346457
        },
        {
          "duration": 0.22699720312502336,
          "durationTicks": 154,
          "midi": 59,
          "name": "B3",
          "ticks": 127686,
          "time": 188.210161546875,
          "velocity": 0.7322834645669292
        },
        {
          "duration": 0.23584125000002132,
          "durationTicks": 160,
          "midi": 59,
          "name": "B3",
          "ticks": 127872,
          "time": 188.484327,
          "velocity": 0.8031496062992126
        },
        {
          "duration": 0.5748630468749809,
          "durationTicks": 390,
          "midi": 64,
          "name": "E4",
          "ticks": 128076,
          "time": 188.78502459375002,
          "velocity": 0.8740157480314961
        },
        {
          "duration": 0.2358412499999929,
          "durationTicks": 160,
          "midi": 63,
          "name": "D#4",
          "ticks": 128464,
          "time": 189.35693962500002,
          "velocity": 0.8031496062992126
        },
        {
          "duration": 0.1680368906249896,
          "durationTicks": 114,
          "midi": 63,
          "name": "D#4",
          "ticks": 128668,
          "time": 189.65763721875004,
          "velocity": 0.8031496062992126
        },
        {
          "duration": 0.1739329218750072,
          "durationTicks": 118,
          "midi": 61,
          "name": "C#4",
          "ticks": 128784,
          "time": 189.828622125,
          "velocity": 0.8031496062992126
        },
        {
          "duration": 0.5453828906250067,
          "durationTicks": 370,
          "midi": 61,
          "name": "C#4",
          "ticks": 128940,
          "time": 190.05856734375,
          "velocity": 0.8740157480314961
        },
        {
          "duration": 0.11202459374999307,
          "durationTicks": 76,
          "midi": 61,
          "name": "C#4",
          "ticks": 129408,
          "time": 190.74840300000002,
          "velocity": 0.8031496062992126
        },
        {
          "duration": 0.12086864062501945,
          "durationTicks": 82,
          "midi": 59,
          "name": "B3",
          "ticks": 129512,
          "time": 190.9016998125,
          "velocity": 0.8031496062992126
        },
        {
          "duration": 0.2948015624999982,
          "durationTicks": 200,
          "midi": 61,
          "name": "C#4",
          "ticks": 129630,
          "time": 191.075632734375,
          "velocity": 0.8740157480314961
        },
        {
          "duration": 0.44220234375001155,
          "durationTicks": 300,
          "midi": 59,
          "name": "B3",
          "ticks": 129874,
          "time": 191.43529064062503,
          "velocity": 0.8740157480314961
        },
        {
          "duration": 0.2800614843750111,
          "durationTicks": 190,
          "midi": 59,
          "name": "B3",
          "ticks": 130338,
          "time": 192.11923026562502,
          "velocity": 0.7244094488188977
        },
        {
          "duration": 0.14740078125001332,
          "durationTicks": 100,
          "midi": 61,
          "name": "C#4",
          "ticks": 130542,
          "time": 192.419927859375,
          "velocity": 0.8188976377952756
        },
        {
          "duration": 0.22994521875000373,
          "durationTicks": 156,
          "midi": 59,
          "name": "B3",
          "ticks": 130668,
          "time": 192.60565284375002,
          "velocity": 0.7244094488188977
        },
        {
          "duration": 0.36555393750003873,
          "durationTicks": 248,
          "midi": 61,
          "name": "C#4",
          "ticks": 130844,
          "time": 192.86507821875,
          "velocity": 0.8031496062992126
        },
        {
          "duration": 0.2830094999999915,
          "durationTicks": 192,
          "midi": 61,
          "name": "C#4",
          "ticks": 131122,
          "time": 193.27485239062503,
          "velocity": 0.8740157480314961
        },
        {
          "duration": 0.24763331249999965,
          "durationTicks": 168,
          "midi": 66,
          "name": "F#4",
          "ticks": 131326,
          "time": 193.57554998437502,
          "velocity": 0.8740157480314961
        },
        {
          "duration": 0.21225712500000782,
          "durationTicks": 144,
          "midi": 64,
          "name": "E4",
          "ticks": 131522,
          "time": 193.864455515625,
          "velocity": 0.8031496062992126
        },
        {
          "duration": 0.15329681249997407,
          "durationTicks": 104,
          "midi": 63,
          "name": "D#4",
          "ticks": 131704,
          "time": 194.13272493750003,
          "velocity": 0.8740157480314961
        },
        {
          "duration": 0.1886729999999659,
          "durationTicks": 128,
          "midi": 61,
          "name": "C#4",
          "ticks": 131820,
          "time": 194.30370984375003,
          "velocity": 0.8740157480314961
        },
        {
          "duration": 0.6190832812499991,
          "durationTicks": 420,
          "midi": 61,
          "name": "C#4",
          "ticks": 131996,
          "time": 194.56313521875,
          "velocity": 0.8740157480314961
        },
        {
          "duration": 0.27121743750001315,
          "durationTicks": 184,
          "midi": 61,
          "name": "C#4",
          "ticks": 132468,
          "time": 195.25886690625,
          "velocity": 0.8031496062992126
        },
        {
          "duration": 0.26532140624999556,
          "durationTicks": 180,
          "midi": 61,
          "name": "C#4",
          "ticks": 132680,
          "time": 195.5713565625,
          "velocity": 0.8740157480314961
        },
        {
          "duration": 0.7723800937500016,
          "durationTicks": 524,
          "midi": 59,
          "name": "B3",
          "ticks": 132888,
          "time": 195.8779501875,
          "velocity": 0.8031496062992126
        },
        {
          "duration": 0.2623733906250152,
          "durationTicks": 178,
          "midi": 59,
          "name": "B3",
          "ticks": 133440,
          "time": 196.69160250000002,
          "velocity": 0.6614173228346457
        },
        {
          "duration": 0.15919284374999165,
          "durationTicks": 108,
          "midi": 59,
          "name": "B3",
          "ticks": 133634,
          "time": 196.97756001562502,
          "velocity": 0.7322834645669292
        },
        {
          "duration": 0.17393292187497877,
          "durationTicks": 118,
          "midi": 56,
          "name": "G#3",
          "ticks": 133750,
          "time": 197.14854492187501,
          "velocity": 0.6614173228346457
        },
        {
          "duration": 0.16803689062501803,
          "durationTicks": 114,
          "midi": 56,
          "name": "G#3",
          "ticks": 133906,
          "time": 197.37849014062502,
          "velocity": 0.6299212598425197
        },
        {
          "duration": 0.16214085937497202,
          "durationTicks": 110,
          "midi": 54,
          "name": "F#3",
          "ticks": 134020,
          "time": 197.54652703125004,
          "velocity": 0.7322834645669292
        },
        {
          "duration": 0.6249793124999883,
          "durationTicks": 424,
          "midi": 56,
          "name": "G#3",
          "ticks": 134148,
          "time": 197.73520003125003,
          "velocity": 0.7322834645669292
        },
        {
          "duration": 0.2564773593749976,
          "durationTicks": 174,
          "midi": 61,
          "name": "C#4",
          "ticks": 134592,
          "time": 198.38965950000002,
          "velocity": 0.7322834645669292
        },
        {
          "duration": 0.1532968125000025,
          "durationTicks": 104,
          "midi": 61,
          "name": "C#4",
          "ticks": 134802,
          "time": 198.699201140625,
          "velocity": 0.8031496062992126
        },
        {
          "duration": 0.19456903124998348,
          "durationTicks": 132,
          "midi": 63,
          "name": "D#4",
          "ticks": 134906,
          "time": 198.852497953125,
          "velocity": 0.7322834645669292
        },
        {
          "duration": 0.38029401562499743,
          "durationTicks": 258,
          "midi": 63,
          "name": "D#4",
          "ticks": 135080,
          "time": 199.1089753125,
          "velocity": 0.8740157480314961
        },
        {
          "duration": 0.4716824999999858,
          "durationTicks": 320,
          "midi": 61,
          "name": "C#4",
          "ticks": 135358,
          "time": 199.51874948437504,
          "velocity": 0.6614173228346457
        },
        {
          "duration": 0.23289323437504095,
          "durationTicks": 158,
          "midi": 56,
          "name": "G#3",
          "ticks": 136124,
          "time": 200.64783946875,
          "velocity": 0.5984251968503937
        },
        {
          "duration": 0.25058132812500844,
          "durationTicks": 170,
          "midi": 59,
          "name": "B3",
          "ticks": 136304,
          "time": 200.91316087500002,
          "velocity": 0.8031496062992126
        },
        {
          "duration": 0.5217987656249932,
          "durationTicks": 354,
          "midi": 63,
          "name": "D#4",
          "ticks": 136510,
          "time": 201.21680648437504,
          "velocity": 0.8740157480314961
        },
        {
          "duration": 0.24468529687501928,
          "durationTicks": 166,
          "midi": 61,
          "name": "C#4",
          "ticks": 136884,
          "time": 201.76808540625,
          "velocity": 0.8740157480314961
        },
        {
          "duration": 1.1497260937499902,
          "durationTicks": 780,
          "midi": 61,
          "name": "C#4",
          "ticks": 137084,
          "time": 202.06288696875,
          "velocity": 0.8740157480314961
        },
        {
          "duration": 0.35376187500000356,
          "durationTicks": 240,
          "midi": 64,
          "name": "E4",
          "ticks": 138238,
          "time": 203.76389198437502,
          "velocity": 0.9448818897637795
        },
        {
          "duration": 0.42156623437500684,
          "durationTicks": 286,
          "midi": 62,
          "name": "D4",
          "ticks": 138488,
          "time": 204.1323939375,
          "velocity": 0.9448818897637795
        },
        {
          "duration": 0.20341307812498144,
          "durationTicks": 138,
          "midi": 62,
          "name": "D4",
          "ticks": 139214,
          "time": 205.20252360937502,
          "velocity": 0.8740157480314961
        },
        {
          "duration": 0.09138848437501679,
          "durationTicks": 62,
          "midi": 62,
          "name": "D4",
          "ticks": 139400,
          "time": 205.47668906250001,
          "velocity": 0.8740157480314961
        },
        {
          "duration": 0.13266070312499778,
          "durationTicks": 90,
          "midi": 64,
          "name": "E4",
          "ticks": 139500,
          "time": 205.62408984375003,
          "velocity": 0.8031496062992126
        },
        {
          "duration": 0.43630631249996554,
          "durationTicks": 296,
          "midi": 66,
          "name": "F#4",
          "ticks": 139656,
          "time": 205.85403506250003,
          "velocity": 0.8031496062992126
        },
        {
          "duration": 0.16214085937500045,
          "durationTicks": 110,
          "midi": 67,
          "name": "G4",
          "ticks": 139978,
          "time": 206.32866557812503,
          "velocity": 0.8740157480314961
        },
        {
          "duration": 0.12381665624999982,
          "durationTicks": 84,
          "midi": 66,
          "name": "F#4",
          "ticks": 140160,
          "time": 206.59693500000003,
          "velocity": 0.9448818897637795
        },
        {
          "duration": 0.15624482812498286,
          "durationTicks": 106,
          "midi": 64,
          "name": "E4",
          "ticks": 140278,
          "time": 206.77086792187504,
          "velocity": 0.9448818897637795
        },
        {
          "duration": 0.2859575156250287,
          "durationTicks": 194,
          "midi": 64,
          "name": "E4",
          "ticks": 140420,
          "time": 206.98017703125,
          "velocity": 0.8740157480314961
        },
        {
          "duration": 0.4539944062500183,
          "durationTicks": 308,
          "midi": 62,
          "name": "D4",
          "ticks": 140636,
          "time": 207.29856271875002,
          "velocity": 0.8740157480314961
        },
        {
          "duration": 0.2004650625000295,
          "durationTicks": 136,
          "midi": 62,
          "name": "D4",
          "ticks": 141104,
          "time": 207.988398375,
          "velocity": 0.8031496062992126
        },
        {
          "duration": 0.2741654531249935,
          "durationTicks": 186,
          "midi": 64,
          "name": "E4",
          "ticks": 141308,
          "time": 208.28909596875002,
          "velocity": 0.8740157480314961
        },
        {
          "duration": 0.20636109374999023,
          "durationTicks": 140,
          "midi": 64,
          "name": "E4",
          "ticks": 141520,
          "time": 208.60158562500004,
          "velocity": 0.7322834645669292
        },
        {
          "duration": 0.22110117187500578,
          "durationTicks": 150,
          "midi": 64,
          "name": "E4",
          "ticks": 141698,
          "time": 208.863959015625,
          "velocity": 0.8740157480314961
        },
        {
          "duration": 0.22699720312499494,
          "durationTicks": 154,
          "midi": 64,
          "name": "E4",
          "ticks": 141884,
          "time": 209.13812446875002,
          "velocity": 0.9448818897637795
        },
        {
          "duration": 0.24468529687501928,
          "durationTicks": 166,
          "midi": 64,
          "name": "E4",
          "ticks": 142082,
          "time": 209.429978015625,
          "velocity": 0.9448818897637795
        },
        {
          "duration": 0.23289323437501253,
          "durationTicks": 158,
          "midi": 62,
          "name": "D4",
          "ticks": 142264,
          "time": 209.69824743750002,
          "velocity": 0.8740157480314961
        },
        {
          "duration": 0.2328932343749841,
          "durationTicks": 158,
          "midi": 62,
          "name": "D4",
          "ticks": 142462,
          "time": 209.99010098437503,
          "velocity": 0.8740157480314961
        },
        {
          "duration": 0.21225712500000782,
          "durationTicks": 144,
          "midi": 62,
          "name": "D4",
          "ticks": 142664,
          "time": 210.2878505625,
          "velocity": 0.9448818897637795
        },
        {
          "duration": 0.2093091093749706,
          "durationTicks": 142,
          "midi": 62,
          "name": "D4",
          "ticks": 142852,
          "time": 210.56496403125004,
          "velocity": 0.9448818897637795
        },
        {
          "duration": 0.18867300000002274,
          "durationTicks": 128,
          "midi": 62,
          "name": "D4",
          "ticks": 143042,
          "time": 210.845025515625,
          "velocity": 0.8740157480314961
        },
        {
          "duration": 0.2152051406250166,
          "durationTicks": 146,
          "midi": 69,
          "name": "A4",
          "ticks": 143240,
          "time": 211.13687906250001,
          "velocity": 0.9448818897637795
        },
        {
          "duration": 0.16214085937497202,
          "durationTicks": 110,
          "midi": 66,
          "name": "F#4",
          "ticks": 143430,
          "time": 211.41694054687503,
          "velocity": 0.8740157480314961
        },
        {
          "duration": 0.12971268749996057,
          "durationTicks": 88,
          "midi": 64,
          "name": "E4",
          "ticks": 143530,
          "time": 211.56434132812504,
          "velocity": 0.5905511811023622
        },
        {
          "duration": 0.13266070312499778,
          "durationTicks": 90,
          "midi": 62,
          "name": "D4",
          "ticks": 143618,
          "time": 211.694054015625,
          "velocity": 0.7716535433070866
        },
        {
          "duration": 0.4687344843750054,
          "durationTicks": 318,
          "midi": 64,
          "name": "E4",
          "ticks": 143722,
          "time": 211.84735082812503,
          "velocity": 0.5905511811023622
        },
        {
          "duration": 0.06485634375002292,
          "durationTicks": 44,
          "midi": 62,
          "name": "D4",
          "ticks": 144782,
          "time": 213.409799109375,
          "velocity": 0.8740157480314961
        },
        {
          "duration": 0.36850195312496226,
          "durationTicks": 250,
          "midi": 62,
          "name": "D4",
          "ticks": 144868,
          "time": 213.53656378125004,
          "velocity": 0.8740157480314961
        },
        {
          "duration": 0.22994521875000373,
          "durationTicks": 156,
          "midi": 62,
          "name": "D4",
          "ticks": 145152,
          "time": 213.955182,
          "velocity": 0.8740157480314961
        },
        {
          "duration": 0.22110117187500578,
          "durationTicks": 150,
          "midi": 64,
          "name": "E4",
          "ticks": 145346,
          "time": 214.241139515625,
          "velocity": 0.9448818897637795
        },
        {
          "duration": 0.22404918749998615,
          "durationTicks": 152,
          "midi": 66,
          "name": "F#4",
          "ticks": 145540,
          "time": 214.52709703125004,
          "velocity": 0.9448818897637795
        },
        {
          "duration": 0.09138848437498837,
          "durationTicks": 62,
          "midi": 67,
          "name": "G4",
          "ticks": 145734,
          "time": 214.813054546875,
          "velocity": 0.9448818897637795
        },
        {
          "duration": 0.35081385937499476,
          "durationTicks": 238,
          "midi": 66,
          "name": "F#4",
          "ticks": 145840,
          "time": 214.96929937500002,
          "velocity": 0.7952755905511811
        },
        {
          "duration": 0.77238009375003,
          "durationTicks": 524,
          "midi": 62,
          "name": "D4",
          "ticks": 146102,
          "time": 215.355489421875,
          "velocity": 0.8740157480314961
        },
        {
          "duration": 0.06190832812501412,
          "durationTicks": 42,
          "midi": 62,
          "name": "D4",
          "ticks": 147088,
          "time": 216.80886112500002,
          "velocity": 0.8740157480314961
        },
        {
          "duration": 0.3449178281250056,
          "durationTicks": 234,
          "midi": 62,
          "name": "D4",
          "ticks": 147170,
          "time": 216.929729765625,
          "velocity": 0.8031496062992126
        },
        {
          "duration": 0.2387892656250017,
          "durationTicks": 162,
          "midi": 69,
          "name": "A4",
          "ticks": 147464,
          "time": 217.3630880625,
          "velocity": 0.9448818897637795
        },
        {
          "duration": 0.2122571249999794,
          "durationTicks": 144,
          "midi": 67,
          "name": "G4",
          "ticks": 147662,
          "time": 217.65494160937502,
          "velocity": 0.8031496062992126
        },
        {
          "duration": 0.24173728125001048,
          "durationTicks": 164,
          "midi": 66,
          "name": "F#4",
          "ticks": 147844,
          "time": 217.92321103125002,
          "velocity": 0.9448818897637795
        },
        {
          "duration": 0.2299452187499753,
          "durationTicks": 156,
          "midi": 62,
          "name": "D4",
          "ticks": 148030,
          "time": 218.19737648437504,
          "velocity": 0.9448818897637795
        },
        {
          "duration": 0.23289323437501253,
          "durationTicks": 158,
          "midi": 62,
          "name": "D4",
          "ticks": 148226,
          "time": 218.48628201562502,
          "velocity": 0.9448818897637795
        },
        {
          "duration": 0.2328932343749841,
          "durationTicks": 158,
          "midi": 62,
          "name": "D4",
          "ticks": 148420,
          "time": 218.77223953125002,
          "velocity": 0.9448818897637795
        },
        {
          "duration": 0.24763331249999965,
          "durationTicks": 168,
          "midi": 59,
          "name": "B3",
          "ticks": 148604,
          "time": 219.04345696875,
          "velocity": 0.8031496062992126
        },
        {
          "duration": 1.4356836093749905,
          "durationTicks": 974,
          "midi": 62,
          "name": "D4",
          "ticks": 148810,
          "time": 219.34710257812503,
          "velocity": 0.9448818897637795
        },
        {
          "duration": 0.35376187500000356,
          "durationTicks": 240,
          "midi": 64,
          "name": "E4",
          "ticks": 150526,
          "time": 221.87649998437502,
          "velocity": 0.9448818897637795
        },
        {
          "duration": 0.42156623437500684,
          "durationTicks": 286,
          "midi": 62,
          "name": "D4",
          "ticks": 150776,
          "time": 222.2450019375,
          "velocity": 0.9448818897637795
        },
        {
          "duration": 0.20341307812498144,
          "durationTicks": 138,
          "midi": 62,
          "name": "D4",
          "ticks": 151502,
          "time": 223.31513160937502,
          "velocity": 0.8740157480314961
        },
        {
          "duration": 0.09138848437501679,
          "durationTicks": 62,
          "midi": 62,
          "name": "D4",
          "ticks": 151688,
          "time": 223.5892970625,
          "velocity": 0.8740157480314961
        },
        {
          "duration": 0.13266070312499778,
          "durationTicks": 90,
          "midi": 64,
          "name": "E4",
          "ticks": 151788,
          "time": 223.73669784375002,
          "velocity": 0.8031496062992126
        },
        {
          "duration": 0.43630631249999396,
          "durationTicks": 296,
          "midi": 66,
          "name": "F#4",
          "ticks": 151944,
          "time": 223.96664306250003,
          "velocity": 0.8031496062992126
        },
        {
          "duration": 0.16214085937500045,
          "durationTicks": 110,
          "midi": 67,
          "name": "G4",
          "ticks": 152266,
          "time": 224.44127357812502,
          "velocity": 0.8740157480314961
        },
        {
          "duration": 0.12381665624999982,
          "durationTicks": 84,
          "midi": 66,
          "name": "F#4",
          "ticks": 152448,
          "time": 224.70954300000002,
          "velocity": 0.9448818897637795
        },
        {
          "duration": 0.15624482812498286,
          "durationTicks": 106,
          "midi": 64,
          "name": "E4",
          "ticks": 152566,
          "time": 224.88347592187503,
          "velocity": 0.9448818897637795
        },
        {
          "duration": 0.2859575156250287,
          "durationTicks": 194,
          "midi": 64,
          "name": "E4",
          "ticks": 152708,
          "time": 225.09278503125,
          "velocity": 0.8740157480314961
        },
        {
          "duration": 0.4539944062500183,
          "durationTicks": 308,
          "midi": 62,
          "name": "D4",
          "ticks": 152924,
          "time": 225.41117071875001,
          "velocity": 0.8740157480314961
        },
        {
          "duration": 0.2004650625000295,
          "durationTicks": 136,
          "midi": 62,
          "name": "D4",
          "ticks": 153392,
          "time": 226.101006375,
          "velocity": 0.8031496062992126
        },
        {
          "duration": 0.2741654531249935,
          "durationTicks": 186,
          "midi": 64,
          "name": "E4",
          "ticks": 153596,
          "time": 226.40170396875,
          "velocity": 0.8740157480314961
        },
        {
          "duration": 0.20636109374999023,
          "durationTicks": 140,
          "midi": 64,
          "name": "E4",
          "ticks": 153808,
          "time": 226.71419362500004,
          "velocity": 0.7322834645669292
        },
        {
          "duration": 0.22110117187497735,
          "durationTicks": 150,
          "midi": 64,
          "name": "E4",
          "ticks": 153986,
          "time": 226.97656701562502,
          "velocity": 0.8740157480314961
        },
        {
          "duration": 0.22699720312499494,
          "durationTicks": 154,
          "midi": 64,
          "name": "E4",
          "ticks": 154172,
          "time": 227.25073246875002,
          "velocity": 0.9448818897637795
        },
        {
          "duration": 0.24468529687501928,
          "durationTicks": 166,
          "midi": 64,
          "name": "E4",
          "ticks": 154370,
          "time": 227.542586015625,
          "velocity": 0.9448818897637795
        },
        {
          "duration": 0.2328932343749841,
          "durationTicks": 158,
          "midi": 62,
          "name": "D4",
          "ticks": 154552,
          "time": 227.81085543750004,
          "velocity": 0.8740157480314961
        },
        {
          "duration": 0.2328932343749841,
          "durationTicks": 158,
          "midi": 62,
          "name": "D4",
          "ticks": 154750,
          "time": 228.10270898437503,
          "velocity": 0.8740157480314961
        },
        {
          "duration": 0.21225712500000782,
          "durationTicks": 144,
          "midi": 62,
          "name": "D4",
          "ticks": 154952,
          "time": 228.4004585625,
          "velocity": 0.9448818897637795
        },
        {
          "duration": 0.2093091093749706,
          "durationTicks": 142,
          "midi": 62,
          "name": "D4",
          "ticks": 155140,
          "time": 228.67757203125004,
          "velocity": 0.9448818897637795
        },
        {
          "duration": 0.18867300000002274,
          "durationTicks": 128,
          "midi": 62,
          "name": "D4",
          "ticks": 155330,
          "time": 228.95763351562502,
          "velocity": 0.8740157480314961
        },
        {
          "duration": 0.2152051406250166,
          "durationTicks": 146,
          "midi": 69,
          "name": "A4",
          "ticks": 155528,
          "time": 229.2494870625,
          "velocity": 0.9448818897637795
        },
        {
          "duration": 0.16214085937500045,
          "durationTicks": 110,
          "midi": 66,
          "name": "F#4",
          "ticks": 155718,
          "time": 229.52954854687502,
          "velocity": 0.8740157480314961
        },
        {
          "duration": 0.129712687499989,
          "durationTicks": 88,
          "midi": 64,
          "name": "E4",
          "ticks": 155818,
          "time": 229.67694932812503,
          "velocity": 0.5905511811023622
        },
        {
          "duration": 0.13266070312499778,
          "durationTicks": 90,
          "midi": 62,
          "name": "D4",
          "ticks": 155906,
          "time": 229.80666201562502,
          "velocity": 0.7716535433070866
        },
        {
          "duration": 0.4687344843750054,
          "durationTicks": 318,
          "midi": 64,
          "name": "E4",
          "ticks": 156010,
          "time": 229.95995882812502,
          "velocity": 0.5905511811023622
        },
        {
          "duration": 0.06485634375002292,
          "durationTicks": 44,
          "midi": 62,
          "name": "D4",
          "ticks": 157070,
          "time": 231.522407109375,
          "velocity": 0.8740157480314961
        },
        {
          "duration": 0.3685019531249907,
          "durationTicks": 250,
          "midi": 62,
          "name": "D4",
          "ticks": 157156,
          "time": 231.64917178125003,
          "velocity": 0.8740157480314961
        },
        {
          "duration": 0.22994521875000373,
          "durationTicks": 156,
          "midi": 62,
          "name": "D4",
          "ticks": 157440,
          "time": 232.06779000000003,
          "velocity": 0.8740157480314961
        },
        {
          "duration": 0.22110117187500578,
          "durationTicks": 150,
          "midi": 64,
          "name": "E4",
          "ticks": 157634,
          "time": 232.353747515625,
          "velocity": 0.9448818897637795
        },
        {
          "duration": 0.22404918749998615,
          "durationTicks": 152,
          "midi": 66,
          "name": "F#4",
          "ticks": 157828,
          "time": 232.63970503125003,
          "velocity": 0.9448818897637795
        },
        {
          "duration": 0.09138848437498837,
          "durationTicks": 62,
          "midi": 67,
          "name": "G4",
          "ticks": 158022,
          "time": 232.92566254687503,
          "velocity": 0.9448818897637795
        },
        {
          "duration": 0.35081385937496634,
          "durationTicks": 238,
          "midi": 66,
          "name": "F#4",
          "ticks": 158128,
          "time": 233.08190737500004,
          "velocity": 0.7480314960629921
        },
        {
          "duration": 0.77238009375003,
          "durationTicks": 524,
          "midi": 62,
          "name": "D4",
          "ticks": 158390,
          "time": 233.468097421875,
          "velocity": 0.8740157480314961
        },
        {
          "duration": 0.0619083281249857,
          "durationTicks": 42,
          "midi": 62,
          "name": "D4",
          "ticks": 159376,
          "time": 234.92146912500004,
          "velocity": 0.8740157480314961
        },
        {
          "duration": 0.3449178281250056,
          "durationTicks": 234,
          "midi": 62,
          "name": "D4",
          "ticks": 159458,
          "time": 235.042337765625,
          "velocity": 0.8031496062992126
        },
        {
          "duration": 0.2387892656250017,
          "durationTicks": 162,
          "midi": 69,
          "name": "A4",
          "ticks": 159752,
          "time": 235.47569606250002,
          "velocity": 0.9448818897637795
        },
        {
          "duration": 0.21225712500000782,
          "durationTicks": 144,
          "midi": 67,
          "name": "G4",
          "ticks": 159950,
          "time": 235.767549609375,
          "velocity": 0.8031496062992126
        },
        {
          "duration": 0.24173728124998206,
          "durationTicks": 164,
          "midi": 66,
          "name": "F#4",
          "ticks": 160132,
          "time": 236.03581903125004,
          "velocity": 0.9448818897637795
        },
        {
          "duration": 0.22994521875000373,
          "durationTicks": 156,
          "midi": 62,
          "name": "D4",
          "ticks": 160318,
          "time": 236.30998448437504,
          "velocity": 0.9448818897637795
        },
        {
          "duration": 0.23289323437501253,
          "durationTicks": 158,
          "midi": 62,
          "name": "D4",
          "ticks": 160514,
          "time": 236.59889001562502,
          "velocity": 0.9448818897637795
        },
        {
          "duration": 0.2328932343749841,
          "durationTicks": 158,
          "midi": 62,
          "name": "D4",
          "ticks": 160708,
          "time": 236.88484753125005,
          "velocity": 0.9448818897637795
        },
        {
          "duration": 0.24763331249999965,
          "durationTicks": 168,
          "midi": 59,
          "name": "B3",
          "ticks": 160892,
          "time": 237.15606496875,
          "velocity": 0.8031496062992126
        },
        {
          "duration": 1.4356836093749905,
          "durationTicks": 974,
          "midi": 62,
          "name": "D4",
          "ticks": 161098,
          "time": 237.45971057812503,
          "velocity": 0.9448818897637795
        }
      ],
      "endOfTrackTicks": 162816
    },
    {
      "channel": 4,
      "controlChanges": {},
      "pitchBends": [],
      "instrument": {
        "family": "piano",
        "number": 0,
        "name": "acoustic grand piano"
      },
      "name": "Clean Gtr",
      "notes": [
        {
          "duration": 0.34196981250000036,
          "durationTicks": 232,
          "midi": 71,
          "name": "B4",
          "ticks": 9220,
          "time": 13.590352031250001,
          "velocity": 0.6456692913385826
        },
        {
          "duration": 0.34196981250000036,
          "durationTicks": 232,
          "midi": 66,
          "name": "F#4",
          "ticks": 9416,
          "time": 13.879257562500001,
          "velocity": 0.5826771653543307
        },
        {
          "duration": 0.41861821874999805,
          "durationTicks": 284,
          "midi": 73,
          "name": "C#5",
          "ticks": 9600,
          "time": 14.150475000000002,
          "velocity": 0.6062992125984252
        },
        {
          "duration": 0.5424348750000014,
          "durationTicks": 368,
          "midi": 69,
          "name": "A4",
          "ticks": 9800,
          "time": 14.4452765625,
          "velocity": 0.6377952755905512
        },
        {
          "duration": 0.3242817187500009,
          "durationTicks": 220,
          "midi": 64,
          "name": "E4",
          "ticks": 10184,
          "time": 15.0112955625,
          "velocity": 0.5748031496062992
        },
        {
          "duration": 0.2977495781249999,
          "durationTicks": 202,
          "midi": 61,
          "name": "C#4",
          "ticks": 10368,
          "time": 15.282513000000002,
          "velocity": 0.4251968503937008
        },
        {
          "duration": 0.18277696874999805,
          "durationTicks": 124,
          "midi": 57,
          "name": "A3",
          "ticks": 10546,
          "time": 15.544886390625003,
          "velocity": 0.31496062992125984
        },
        {
          "duration": 0.12381665624999982,
          "durationTicks": 84,
          "midi": 58,
          "name": "A#3",
          "ticks": 10616,
          "time": 15.648066937500001,
          "velocity": 0.2283464566929134
        },
        {
          "duration": 0.08844046875000089,
          "durationTicks": 60,
          "midi": 59,
          "name": "B3",
          "ticks": 10670,
          "time": 15.727663359375,
          "velocity": 0.23622047244094488
        },
        {
          "duration": 0.10612856250000036,
          "durationTicks": 72,
          "midi": 60,
          "name": "C4",
          "ticks": 10706,
          "time": 15.780727640625,
          "velocity": 0.2440944881889764
        },
        {
          "duration": 0.33607378125000054,
          "durationTicks": 228,
          "midi": 61,
          "name": "C#4",
          "ticks": 10752,
          "time": 15.848532000000002,
          "velocity": 0.6299212598425197
        },
        {
          "duration": 0.33607378125000054,
          "durationTicks": 228,
          "midi": 57,
          "name": "A3",
          "ticks": 10952,
          "time": 16.1433335625,
          "velocity": 0.48031496062992124
        },
        {
          "duration": 0.15919284374999876,
          "durationTicks": 108,
          "midi": 61,
          "name": "C#4",
          "ticks": 11140,
          "time": 16.420447031250003,
          "velocity": 0.5039370078740157
        },
        {
          "duration": 1.3089189374999997,
          "durationTicks": 888,
          "midi": 62,
          "name": "D4",
          "ticks": 11336,
          "time": 16.7093525625,
          "velocity": 0.6141732283464567
        },
        {
          "duration": 0.3006975937500016,
          "durationTicks": 204,
          "midi": 71,
          "name": "B4",
          "ticks": 12288,
          "time": 18.112608,
          "velocity": 0.6614173228346457
        },
        {
          "duration": 0.32428171874999734,
          "durationTicks": 220,
          "midi": 66,
          "name": "F#4",
          "ticks": 12488,
          "time": 18.407409562500003,
          "velocity": 0.5826771653543307
        },
        {
          "duration": 0.3301777500000007,
          "durationTicks": 224,
          "midi": 73,
          "name": "C#5",
          "ticks": 12672,
          "time": 18.678627000000002,
          "velocity": 0.5905511811023622
        },
        {
          "duration": 0.5896031249999965,
          "durationTicks": 400,
          "midi": 69,
          "name": "A4",
          "ticks": 12872,
          "time": 18.973428562500004,
          "velocity": 0.6614173228346457
        },
        {
          "duration": 0.6072912187499959,
          "durationTicks": 412,
          "midi": 64,
          "name": "E4",
          "ticks": 13256,
          "time": 19.539447562500005,
          "velocity": 0.5511811023622047
        },
        {
          "duration": 0.12971268749999965,
          "durationTicks": 88,
          "midi": 61,
          "name": "C#4",
          "ticks": 13640,
          "time": 20.105466562500002,
          "velocity": 0.4330708661417323
        },
        {
          "duration": 0.15919284374999876,
          "durationTicks": 108,
          "midi": 62,
          "name": "D4",
          "ticks": 14024,
          "time": 20.671485562500003,
          "velocity": 0.5275590551181102
        },
        {
          "duration": 1.0907657812499991,
          "durationTicks": 740,
          "midi": 62,
          "name": "D4",
          "ticks": 14212,
          "time": 20.94859903125,
          "velocity": 0.5511811023622047
        },
        {
          "duration": 0.3419698125000039,
          "durationTicks": 232,
          "midi": 71,
          "name": "B4",
          "ticks": 15364,
          "time": 22.64665603125,
          "velocity": 0.6456692913385826
        },
        {
          "duration": 0.34196981250000036,
          "durationTicks": 232,
          "midi": 66,
          "name": "F#4",
          "ticks": 15560,
          "time": 22.935561562500002,
          "velocity": 0.5826771653543307
        },
        {
          "duration": 0.4186182187500016,
          "durationTicks": 284,
          "midi": 73,
          "name": "C#5",
          "ticks": 15744,
          "time": 23.206779,
          "velocity": 0.6062992125984252
        },
        {
          "duration": 0.5424348749999979,
          "durationTicks": 368,
          "midi": 69,
          "name": "A4",
          "ticks": 15944,
          "time": 23.501580562500003,
          "velocity": 0.6377952755905512
        },
        {
          "duration": 0.32428171874999734,
          "durationTicks": 220,
          "midi": 64,
          "name": "E4",
          "ticks": 16328,
          "time": 24.067599562500003,
          "velocity": 0.5748031496062992
        },
        {
          "duration": 0.2977495781249999,
          "durationTicks": 202,
          "midi": 61,
          "name": "C#4",
          "ticks": 16512,
          "time": 24.338817000000002,
          "velocity": 0.4251968503937008
        },
        {
          "duration": 0.18277696875000515,
          "durationTicks": 124,
          "midi": 57,
          "name": "A3",
          "ticks": 16690,
          "time": 24.601190390625,
          "velocity": 0.31496062992125984
        },
        {
          "duration": 0.12381665624999982,
          "durationTicks": 84,
          "midi": 58,
          "name": "A#3",
          "ticks": 16760,
          "time": 24.704370937500002,
          "velocity": 0.2283464566929134
        },
        {
          "duration": 0.08844046874999734,
          "durationTicks": 60,
          "midi": 59,
          "name": "B3",
          "ticks": 16814,
          "time": 24.783967359375005,
          "velocity": 0.23622047244094488
        },
        {
          "duration": 0.10612856250000036,
          "durationTicks": 72,
          "midi": 60,
          "name": "C4",
          "ticks": 16850,
          "time": 24.837031640625003,
          "velocity": 0.2440944881889764
        },
        {
          "duration": 0.33607378125000054,
          "durationTicks": 228,
          "midi": 61,
          "name": "C#4",
          "ticks": 16896,
          "time": 24.904836000000003,
          "velocity": 0.6299212598425197
        },
        {
          "duration": 0.336073781249997,
          "durationTicks": 228,
          "midi": 57,
          "name": "A3",
          "ticks": 17096,
          "time": 25.199637562500005,
          "velocity": 0.48031496062992124
        },
        {
          "duration": 0.1591928437500023,
          "durationTicks": 108,
          "midi": 61,
          "name": "C#4",
          "ticks": 17284,
          "time": 25.47675103125,
          "velocity": 0.5039370078740157
        },
        {
          "duration": 1.3089189375000032,
          "durationTicks": 888,
          "midi": 62,
          "name": "D4",
          "ticks": 17480,
          "time": 25.765656562500002,
          "velocity": 0.6141732283464567
        },
        {
          "duration": 0.3006975937500016,
          "durationTicks": 204,
          "midi": 71,
          "name": "B4",
          "ticks": 18432,
          "time": 27.168912000000002,
          "velocity": 0.6614173228346457
        },
        {
          "duration": 0.32428171874999734,
          "durationTicks": 220,
          "midi": 66,
          "name": "F#4",
          "ticks": 18632,
          "time": 27.463713562500004,
          "velocity": 0.5826771653543307
        },
        {
          "duration": 0.3301777500000007,
          "durationTicks": 224,
          "midi": 73,
          "name": "C#5",
          "ticks": 18816,
          "time": 27.734931000000003,
          "velocity": 0.5905511811023622
        },
        {
          "duration": 0.5896031249999965,
          "durationTicks": 400,
          "midi": 69,
          "name": "A4",
          "ticks": 19016,
          "time": 28.029732562500005,
          "velocity": 0.6614173228346457
        },
        {
          "duration": 0.6072912187499959,
          "durationTicks": 412,
          "midi": 64,
          "name": "E4",
          "ticks": 19400,
          "time": 28.595751562500006,
          "velocity": 0.5511811023622047
        },
        {
          "duration": 0.12971268749999965,
          "durationTicks": 88,
          "midi": 61,
          "name": "C#4",
          "ticks": 19784,
          "time": 29.161770562500003,
          "velocity": 0.4330708661417323
        },
        {
          "duration": 0.15919284374999876,
          "durationTicks": 108,
          "midi": 62,
          "name": "D4",
          "ticks": 20168,
          "time": 29.727789562500003,
          "velocity": 0.5275590551181102
        },
        {
          "duration": 1.0907657812499991,
          "durationTicks": 740,
          "midi": 62,
          "name": "D4",
          "ticks": 20356,
          "time": 30.004903031250002,
          "velocity": 0.5511811023622047
        },
        {
          "duration": 0.3419698125000039,
          "durationTicks": 232,
          "midi": 71,
          "name": "B4",
          "ticks": 21508,
          "time": 31.70296003125,
          "velocity": 0.6456692913385826
        },
        {
          "duration": 0.3419698124999968,
          "durationTicks": 232,
          "midi": 66,
          "name": "F#4",
          "ticks": 21704,
          "time": 31.991865562500003,
          "velocity": 0.5826771653543307
        },
        {
          "duration": 0.41861821875000516,
          "durationTicks": 284,
          "midi": 73,
          "name": "C#5",
          "ticks": 21888,
          "time": 32.263083,
          "velocity": 0.6062992125984252
        },
        {
          "duration": 0.5424348749999979,
          "durationTicks": 368,
          "midi": 69,
          "name": "A4",
          "ticks": 22088,
          "time": 32.55788456250001,
          "velocity": 0.6377952755905512
        },
        {
          "duration": 0.3242817187500009,
          "durationTicks": 220,
          "midi": 64,
          "name": "E4",
          "ticks": 22472,
          "time": 33.123903562500004,
          "velocity": 0.5748031496062992
        },
        {
          "duration": 0.2977495781249999,
          "durationTicks": 202,
          "midi": 61,
          "name": "C#4",
          "ticks": 22656,
          "time": 33.395121,
          "velocity": 0.4251968503937008
        },
        {
          "duration": 0.18277696874999805,
          "durationTicks": 124,
          "midi": 57,
          "name": "A3",
          "ticks": 22834,
          "time": 33.657494390625004,
          "velocity": 0.31496062992125984
        },
        {
          "duration": 0.12381665624999982,
          "durationTicks": 84,
          "midi": 58,
          "name": "A#3",
          "ticks": 22904,
          "time": 33.760674937500006,
          "velocity": 0.2283464566929134
        },
        {
          "duration": 0.08844046875000089,
          "durationTicks": 60,
          "midi": 59,
          "name": "B3",
          "ticks": 22958,
          "time": 33.840271359375,
          "velocity": 0.23622047244094488
        },
        {
          "duration": 0.1061285624999968,
          "durationTicks": 72,
          "midi": 60,
          "name": "C4",
          "ticks": 22994,
          "time": 33.893335640625004,
          "velocity": 0.2440944881889764
        },
        {
          "duration": 0.33607378125000054,
          "durationTicks": 228,
          "midi": 61,
          "name": "C#4",
          "ticks": 23040,
          "time": 33.96114,
          "velocity": 0.6299212598425197
        },
        {
          "duration": 0.33607378125000054,
          "durationTicks": 228,
          "midi": 57,
          "name": "A3",
          "ticks": 23240,
          "time": 34.255941562500006,
          "velocity": 0.48031496062992124
        },
        {
          "duration": 0.15919284374999876,
          "durationTicks": 108,
          "midi": 61,
          "name": "C#4",
          "ticks": 23428,
          "time": 34.53305503125,
          "velocity": 0.5039370078740157
        },
        {
          "duration": 1.3089189375000032,
          "durationTicks": 888,
          "midi": 62,
          "name": "D4",
          "ticks": 23624,
          "time": 34.8219605625,
          "velocity": 0.6141732283464567
        },
        {
          "duration": 0.3006975937500016,
          "durationTicks": 204,
          "midi": 71,
          "name": "B4",
          "ticks": 24576,
          "time": 36.225216,
          "velocity": 0.6614173228346457
        },
        {
          "duration": 0.3242817187500009,
          "durationTicks": 220,
          "midi": 66,
          "name": "F#4",
          "ticks": 24776,
          "time": 36.5200175625,
          "velocity": 0.5826771653543307
        },
        {
          "duration": 0.33017774999999716,
          "durationTicks": 224,
          "midi": 73,
          "name": "C#5",
          "ticks": 24960,
          "time": 36.791235,
          "velocity": 0.5905511811023622
        },
        {
          "duration": 0.5896031250000036,
          "durationTicks": 400,
          "midi": 69,
          "name": "A4",
          "ticks": 25160,
          "time": 37.0860365625,
          "velocity": 0.6614173228346457
        },
        {
          "duration": 0.6072912187499995,
          "durationTicks": 412,
          "midi": 64,
          "name": "E4",
          "ticks": 25544,
          "time": 37.6520555625,
          "velocity": 0.5511811023622047
        },
        {
          "duration": 0.1297126875000032,
          "durationTicks": 88,
          "midi": 61,
          "name": "C#4",
          "ticks": 25928,
          "time": 38.2180745625,
          "velocity": 0.4330708661417323
        },
        {
          "duration": 0.15919284374999876,
          "durationTicks": 108,
          "midi": 62,
          "name": "D4",
          "ticks": 26312,
          "time": 38.784093562500004,
          "velocity": 0.5275590551181102
        },
        {
          "duration": 1.0907657812499991,
          "durationTicks": 740,
          "midi": 62,
          "name": "D4",
          "ticks": 26500,
          "time": 39.06120703125001,
          "velocity": 0.5511811023622047
        },
        {
          "duration": 0.3419698124999968,
          "durationTicks": 232,
          "midi": 71,
          "name": "B4",
          "ticks": 27652,
          "time": 40.759264031250005,
          "velocity": 0.6456692913385826
        },
        {
          "duration": 0.3419698125000039,
          "durationTicks": 232,
          "midi": 66,
          "name": "F#4",
          "ticks": 27848,
          "time": 41.0481695625,
          "velocity": 0.5826771653543307
        },
        {
          "duration": 0.41861821874999805,
          "durationTicks": 284,
          "midi": 73,
          "name": "C#5",
          "ticks": 28032,
          "time": 41.319387000000006,
          "velocity": 0.6062992125984252
        },
        {
          "duration": 0.542434875000005,
          "durationTicks": 368,
          "midi": 69,
          "name": "A4",
          "ticks": 28232,
          "time": 41.614188562500004,
          "velocity": 0.6377952755905512
        },
        {
          "duration": 0.3242817187500009,
          "durationTicks": 220,
          "midi": 64,
          "name": "E4",
          "ticks": 28616,
          "time": 42.1802075625,
          "velocity": 0.5748031496062992
        },
        {
          "duration": 0.297749578125007,
          "durationTicks": 202,
          "midi": 61,
          "name": "C#4",
          "ticks": 28800,
          "time": 42.451425,
          "velocity": 0.4251968503937008
        },
        {
          "duration": 0.18277696874999094,
          "durationTicks": 124,
          "midi": 57,
          "name": "A3",
          "ticks": 28978,
          "time": 42.71379839062501,
          "velocity": 0.31496062992125984
        },
        {
          "duration": 0.12381665624999982,
          "durationTicks": 84,
          "midi": 58,
          "name": "A#3",
          "ticks": 29048,
          "time": 42.816978937500004,
          "velocity": 0.2283464566929134
        },
        {
          "duration": 0.08844046875000089,
          "durationTicks": 60,
          "midi": 59,
          "name": "B3",
          "ticks": 29102,
          "time": 42.896575359375,
          "velocity": 0.23622047244094488
        },
        {
          "duration": 0.1061285624999968,
          "durationTicks": 72,
          "midi": 60,
          "name": "C4",
          "ticks": 29138,
          "time": 42.949639640625,
          "velocity": 0.2440944881889764
        },
        {
          "duration": 0.33607378125000054,
          "durationTicks": 228,
          "midi": 61,
          "name": "C#4",
          "ticks": 29184,
          "time": 43.017444000000005,
          "velocity": 0.6299212598425197
        },
        {
          "duration": 0.33607378125000054,
          "durationTicks": 228,
          "midi": 57,
          "name": "A3",
          "ticks": 29384,
          "time": 43.3122455625,
          "velocity": 0.48031496062992124
        },
        {
          "duration": 0.15919284374999876,
          "durationTicks": 108,
          "midi": 61,
          "name": "C#4",
          "ticks": 29572,
          "time": 43.589359031250005,
          "velocity": 0.5039370078740157
        },
        {
          "duration": 1.3089189375000032,
          "durationTicks": 888,
          "midi": 62,
          "name": "D4",
          "ticks": 29768,
          "time": 43.8782645625,
          "velocity": 0.6141732283464567
        },
        {
          "duration": 0.3006975937500016,
          "durationTicks": 204,
          "midi": 71,
          "name": "B4",
          "ticks": 30720,
          "time": 45.28152,
          "velocity": 0.6614173228346457
        },
        {
          "duration": 0.324281718750008,
          "durationTicks": 220,
          "midi": 66,
          "name": "F#4",
          "ticks": 30920,
          "time": 45.5763215625,
          "velocity": 0.5826771653543307
        },
        {
          "duration": 0.33017774999999716,
          "durationTicks": 224,
          "midi": 73,
          "name": "C#5",
          "ticks": 31104,
          "time": 45.847539000000005,
          "velocity": 0.5905511811023622
        },
        {
          "duration": 0.5896031250000036,
          "durationTicks": 400,
          "midi": 69,
          "name": "A4",
          "ticks": 31304,
          "time": 46.1423405625,
          "velocity": 0.6614173228346457
        },
        {
          "duration": 0.6072912187500066,
          "durationTicks": 412,
          "midi": 64,
          "name": "E4",
          "ticks": 31688,
          "time": 46.7083595625,
          "velocity": 0.5511811023622047
        },
        {
          "duration": 0.1297126875000032,
          "durationTicks": 88,
          "midi": 61,
          "name": "C#4",
          "ticks": 32072,
          "time": 47.274378562500004,
          "velocity": 0.4330708661417323
        },
        {
          "duration": 0.15919284374999876,
          "durationTicks": 108,
          "midi": 62,
          "name": "D4",
          "ticks": 32456,
          "time": 47.8403975625,
          "velocity": 0.5275590551181102
        },
        {
          "duration": 1.0907657812499991,
          "durationTicks": 740,
          "midi": 62,
          "name": "D4",
          "ticks": 32644,
          "time": 48.117511031250004,
          "velocity": 0.5511811023622047
        },
        {
          "duration": 0.6927836718750058,
          "durationTicks": 470,
          "midi": 78,
          "name": "F#5",
          "ticks": 46080,
          "time": 67.92228,
          "velocity": 0.47244094488188976
        },
        {
          "duration": 0.3242817187500151,
          "durationTicks": 220,
          "midi": 74,
          "name": "D5",
          "ticks": 46080,
          "time": 67.92228,
          "velocity": 0.84251968503937
        },
        {
          "duration": 0.4952666249999993,
          "durationTicks": 336,
          "midi": 69,
          "name": "A4",
          "ticks": 46280,
          "time": 68.2170815625,
          "velocity": 0.7007874015748031
        },
        {
          "duration": 0.2800614843749827,
          "durationTicks": 190,
          "midi": 66,
          "name": "F#4",
          "ticks": 46468,
          "time": 68.49419503125002,
          "velocity": 0.5039370078740157
        },
        {
          "duration": 0.548330906249987,
          "durationTicks": 372,
          "midi": 73,
          "name": "C#5",
          "ticks": 46664,
          "time": 68.78310056250001,
          "velocity": 0.7795275590551181
        },
        {
          "duration": 1.1025578437500059,
          "durationTicks": 748,
          "midi": 76,
          "name": "E5",
          "ticks": 46668,
          "time": 68.78899659375,
          "velocity": 0.47244094488188976
        },
        {
          "duration": 0.37734600000000285,
          "durationTicks": 256,
          "midi": 69,
          "name": "A4",
          "ticks": 47048,
          "time": 69.34911956250001,
          "velocity": 0.7007874015748031
        },
        {
          "duration": 0.5719150312499863,
          "durationTicks": 388,
          "midi": 64,
          "name": "E4",
          "ticks": 47230,
          "time": 69.61738898437501,
          "velocity": 0.47244094488188976
        },
        {
          "duration": 0.11497260937500187,
          "durationTicks": 78,
          "midi": 69,
          "name": "A4",
          "ticks": 47326,
          "time": 69.75889373437501,
          "velocity": 0.5039370078740157
        },
        {
          "duration": 0.3183856874999975,
          "durationTicks": 216,
          "midi": 71,
          "name": "B4",
          "ticks": 47616,
          "time": 70.186356,
          "velocity": 0.7795275590551181
        },
        {
          "duration": 0.7134197812500105,
          "durationTicks": 484,
          "midi": 74,
          "name": "D5",
          "ticks": 47618,
          "time": 70.189304015625,
          "velocity": 0.47244094488188976
        },
        {
          "duration": 0.5306428125000053,
          "durationTicks": 360,
          "midi": 67,
          "name": "G4",
          "ticks": 47816,
          "time": 70.4811575625,
          "velocity": 0.6929133858267716
        },
        {
          "duration": 0.35376187500000356,
          "durationTicks": 240,
          "midi": 62,
          "name": "D4",
          "ticks": 47998,
          "time": 70.749426984375,
          "velocity": 0.4330708661417323
        },
        {
          "duration": 0.5660190000000114,
          "durationTicks": 384,
          "midi": 69,
          "name": "A4",
          "ticks": 48200,
          "time": 71.0471765625,
          "velocity": 0.8267716535433071
        },
        {
          "duration": 1.3885153593750061,
          "durationTicks": 942,
          "midi": 74,
          "name": "D5",
          "ticks": 48204,
          "time": 71.05307259375,
          "velocity": 0.47244094488188976
        },
        {
          "duration": 0.40093012500000214,
          "durationTicks": 272,
          "midi": 66,
          "name": "F#4",
          "ticks": 48584,
          "time": 71.61319556250001,
          "velocity": 0.6850393700787402
        },
        {
          "duration": 0.4657864687499824,
          "durationTicks": 316,
          "midi": 62,
          "name": "D4",
          "ticks": 48766,
          "time": 71.88146498437501,
          "velocity": 0.4094488188976378
        },
        {
          "duration": 0.10612856250000391,
          "durationTicks": 72,
          "midi": 66,
          "name": "F#4",
          "ticks": 48868,
          "time": 72.03181378125001,
          "velocity": 0.4566929133858268
        },
        {
          "duration": 0.8195483437500002,
          "durationTicks": 556,
          "midi": 67,
          "name": "G4",
          "ticks": 49152,
          "time": 72.450432,
          "velocity": 0.7874015748031497
        },
        {
          "duration": 0.6780435937499902,
          "durationTicks": 460,
          "midi": 76,
          "name": "E5",
          "ticks": 49154,
          "time": 72.45338001562502,
          "velocity": 0.47244094488188976
        },
        {
          "duration": 0.3006975937499874,
          "durationTicks": 204,
          "midi": 64,
          "name": "E4",
          "ticks": 49344,
          "time": 72.73344150000001,
          "velocity": 0.4566929133858268
        },
        {
          "duration": 0.30954164062499956,
          "durationTicks": 210,
          "midi": 60,
          "name": "C4",
          "ticks": 49532,
          "time": 73.01055496875001,
          "velocity": 0.4330708661417323
        },
        {
          "duration": 1.361983218749998,
          "durationTicks": 924,
          "midi": 74,
          "name": "D5",
          "ticks": 49740,
          "time": 73.31714859375,
          "velocity": 0.5039370078740157
        },
        {
          "duration": 0.5542269374999904,
          "durationTicks": 376,
          "midi": 71,
          "name": "B4",
          "ticks": 49740,
          "time": 73.31714859375,
          "velocity": 0.7086614173228346
        },
        {
          "duration": 0.7959642187500009,
          "durationTicks": 540,
          "midi": 67,
          "name": "G4",
          "ticks": 50120,
          "time": 73.87727156250001,
          "velocity": 0.6929133858267716
        },
        {
          "duration": 0.5512789218749958,
          "durationTicks": 374,
          "midi": 62,
          "name": "D4",
          "ticks": 50304,
          "time": 74.14848900000001,
          "velocity": 0.36220472440944884
        },
        {
          "duration": 0.2948015624999982,
          "durationTicks": 200,
          "midi": 71,
          "name": "B4",
          "ticks": 50500,
          "time": 74.43739453125,
          "velocity": 0.4094488188976378
        },
        {
          "duration": 0.5335908281249999,
          "durationTicks": 362,
          "midi": 74,
          "name": "D5",
          "ticks": 50688,
          "time": 74.71450800000001,
          "velocity": 0.5039370078740157
        },
        {
          "duration": 0.24763331249999965,
          "durationTicks": 168,
          "midi": 69,
          "name": "A4",
          "ticks": 50692,
          "time": 74.72040403125,
          "velocity": 0.84251968503937
        },
        {
          "duration": 0.778276125000005,
          "durationTicks": 528,
          "midi": 66,
          "name": "F#4",
          "ticks": 50888,
          "time": 75.00930956250001,
          "velocity": 0.6299212598425197
        },
        {
          "duration": 0.5011626562499885,
          "durationTicks": 340,
          "midi": 74,
          "name": "D5",
          "ticks": 51072,
          "time": 75.280527,
          "velocity": 0.4094488188976378
        },
        {
          "duration": 0.7546920000000057,
          "durationTicks": 512,
          "midi": 69,
          "name": "A4",
          "ticks": 51264,
          "time": 75.56353650000001,
          "velocity": 0.4094488188976378
        },
        {
          "duration": 0.1474007812499991,
          "durationTicks": 100,
          "midi": 74,
          "name": "D5",
          "ticks": 51456,
          "time": 75.846546,
          "velocity": 0.4330708661417323
        },
        {
          "duration": 0.18867300000000853,
          "durationTicks": 128,
          "midi": 76,
          "name": "E5",
          "ticks": 51556,
          "time": 75.99394678125,
          "velocity": 0.4094488188976378
        },
        {
          "duration": 0.1886729999999801,
          "durationTicks": 128,
          "midi": 78,
          "name": "F#5",
          "ticks": 51656,
          "time": 76.14134756250002,
          "velocity": 0.4330708661417323
        },
        {
          "duration": 0.11792062500001066,
          "durationTicks": 80,
          "midi": 76,
          "name": "E5",
          "ticks": 51756,
          "time": 76.28874834375,
          "velocity": 0.3858267716535433
        },
        {
          "duration": 0.3655539375000103,
          "durationTicks": 248,
          "midi": 74,
          "name": "D5",
          "ticks": 51840,
          "time": 76.412565,
          "velocity": 0.33858267716535434
        },
        {
          "duration": 0.6927836718750058,
          "durationTicks": 470,
          "midi": 78,
          "name": "F#5",
          "ticks": 52224,
          "time": 76.97858400000001,
          "velocity": 0.47244094488188976
        },
        {
          "duration": 0.3242817187499867,
          "durationTicks": 220,
          "midi": 74,
          "name": "D5",
          "ticks": 52224,
          "time": 76.97858400000001,
          "velocity": 0.84251968503937
        },
        {
          "duration": 0.4952666249999993,
          "durationTicks": 336,
          "midi": 69,
          "name": "A4",
          "ticks": 52424,
          "time": 77.27338556250001,
          "velocity": 0.7007874015748031
        },
        {
          "duration": 0.2800614843750111,
          "durationTicks": 190,
          "midi": 66,
          "name": "F#4",
          "ticks": 52612,
          "time": 77.55049903125,
          "velocity": 0.5039370078740157
        },
        {
          "duration": 0.5483309062500012,
          "durationTicks": 372,
          "midi": 73,
          "name": "C#5",
          "ticks": 52808,
          "time": 77.83940456250001,
          "velocity": 0.7795275590551181
        },
        {
          "duration": 1.1025578437499917,
          "durationTicks": 748,
          "midi": 76,
          "name": "E5",
          "ticks": 52812,
          "time": 77.84530059375001,
          "velocity": 0.47244094488188976
        },
        {
          "duration": 0.37734599999998863,
          "durationTicks": 256,
          "midi": 69,
          "name": "A4",
          "ticks": 53192,
          "time": 78.40542356250002,
          "velocity": 0.7007874015748031
        },
        {
          "duration": 0.5719150312500147,
          "durationTicks": 388,
          "midi": 64,
          "name": "E4",
          "ticks": 53374,
          "time": 78.673692984375,
          "velocity": 0.47244094488188976
        },
        {
          "duration": 0.11497260937500187,
          "durationTicks": 78,
          "midi": 69,
          "name": "A4",
          "ticks": 53470,
          "time": 78.815197734375,
          "velocity": 0.5039370078740157
        },
        {
          "duration": 0.3183856875000117,
          "durationTicks": 216,
          "midi": 71,
          "name": "B4",
          "ticks": 53760,
          "time": 79.24266,
          "velocity": 0.7795275590551181
        },
        {
          "duration": 0.7134197812499963,
          "durationTicks": 484,
          "midi": 74,
          "name": "D5",
          "ticks": 53762,
          "time": 79.24560801562501,
          "velocity": 0.47244094488188976
        },
        {
          "duration": 0.5306428125000053,
          "durationTicks": 360,
          "midi": 67,
          "name": "G4",
          "ticks": 53960,
          "time": 79.53746156250001,
          "velocity": 0.6929133858267716
        },
        {
          "duration": 0.35376187500000356,
          "durationTicks": 240,
          "midi": 62,
          "name": "D4",
          "ticks": 54142,
          "time": 79.805730984375,
          "velocity": 0.4330708661417323
        },
        {
          "duration": 0.5660189999999972,
          "durationTicks": 384,
          "midi": 69,
          "name": "A4",
          "ticks": 54344,
          "time": 80.10348056250001,
          "velocity": 0.8267716535433071
        },
        {
          "duration": 1.388515359374992,
          "durationTicks": 942,
          "midi": 74,
          "name": "D5",
          "ticks": 54348,
          "time": 80.10937659375001,
          "velocity": 0.47244094488188976
        },
        {
          "duration": 0.4009301249999879,
          "durationTicks": 272,
          "midi": 66,
          "name": "F#4",
          "ticks": 54728,
          "time": 80.66949956250001,
          "velocity": 0.6850393700787402
        },
        {
          "duration": 0.46578646875001084,
          "durationTicks": 316,
          "midi": 62,
          "name": "D4",
          "ticks": 54910,
          "time": 80.937768984375,
          "velocity": 0.4094488188976378
        },
        {
          "duration": 0.1061285624999897,
          "durationTicks": 72,
          "midi": 66,
          "name": "F#4",
          "ticks": 55012,
          "time": 81.08811778125,
          "velocity": 0.4566929133858268
        },
        {
          "duration": 0.8195483437500002,
          "durationTicks": 556,
          "midi": 67,
          "name": "G4",
          "ticks": 55296,
          "time": 81.506736,
          "velocity": 0.7874015748031497
        },
        {
          "duration": 0.6780435937499902,
          "durationTicks": 460,
          "midi": 76,
          "name": "E5",
          "ticks": 55298,
          "time": 81.50968401562501,
          "velocity": 0.47244094488188976
        },
        {
          "duration": 0.3006975937500016,
          "durationTicks": 204,
          "midi": 64,
          "name": "E4",
          "ticks": 55488,
          "time": 81.78974550000001,
          "velocity": 0.4566929133858268
        },
        {
          "duration": 0.30954164062499956,
          "durationTicks": 210,
          "midi": 60,
          "name": "C4",
          "ticks": 55676,
          "time": 82.06685896875001,
          "velocity": 0.4330708661417323
        },
        {
          "duration": 1.361983218749998,
          "durationTicks": 924,
          "midi": 74,
          "name": "D5",
          "ticks": 55884,
          "time": 82.37345259375,
          "velocity": 0.5039370078740157
        },
        {
          "duration": 0.5542269375000046,
          "durationTicks": 376,
          "midi": 71,
          "name": "B4",
          "ticks": 55884,
          "time": 82.37345259375,
          "velocity": 0.7086614173228346
        },
        {
          "duration": 0.7959642187500009,
          "durationTicks": 540,
          "midi": 67,
          "name": "G4",
          "ticks": 56264,
          "time": 82.93357556250001,
          "velocity": 0.6929133858267716
        },
        {
          "duration": 0.55127892187501,
          "durationTicks": 374,
          "midi": 62,
          "name": "D4",
          "ticks": 56448,
          "time": 83.20479300000001,
          "velocity": 0.36220472440944884
        },
        {
          "duration": 0.2948015624999982,
          "durationTicks": 200,
          "midi": 71,
          "name": "B4",
          "ticks": 56644,
          "time": 83.49369853125,
          "velocity": 0.4094488188976378
        },
        {
          "duration": 0.3183856874999975,
          "durationTicks": 216,
          "midi": 69,
          "name": "A4",
          "ticks": 56832,
          "time": 83.770812,
          "velocity": 0.905511811023622
        },
        {
          "duration": 1.2529066406250138,
          "durationTicks": 850,
          "midi": 74,
          "name": "D5",
          "ticks": 56836,
          "time": 83.77670803125,
          "velocity": 0.5196850393700787
        },
        {
          "duration": 0.48347456249999254,
          "durationTicks": 328,
          "midi": 66,
          "name": "F#4",
          "ticks": 57032,
          "time": 84.06561356250002,
          "velocity": 0.7637795275590551
        },
        {
          "duration": 0.5306428125000053,
          "durationTicks": 360,
          "midi": 69,
          "name": "A4",
          "ticks": 57412,
          "time": 84.62573653125,
          "velocity": 0.6929133858267716
        },
        {
          "duration": 0.24468529687500506,
          "durationTicks": 166,
          "midi": 66,
          "name": "F#4",
          "ticks": 57516,
          "time": 84.77903334375,
          "velocity": 0.6771653543307087
        },
        {
          "duration": 0.37144996874999947,
          "durationTicks": 252,
          "midi": 62,
          "name": "D4",
          "ticks": 57700,
          "time": 85.05025078125,
          "velocity": 0.4566929133858268
        },
        {
          "duration": 0.3006975937500016,
          "durationTicks": 204,
          "midi": 69,
          "name": "A4",
          "ticks": 57804,
          "time": 85.20354759375,
          "velocity": 0.6377952755905512
        },
        {
          "duration": 0.3832420312500062,
          "durationTicks": 260,
          "midi": 66,
          "name": "F#4",
          "ticks": 57904,
          "time": 85.350948375,
          "velocity": 0.7401574803149606
        },
        {
          "duration": 0.22994521875000373,
          "durationTicks": 156,
          "midi": 62,
          "name": "D4",
          "ticks": 57996,
          "time": 85.48655709375001,
          "velocity": 0.6850393700787402
        },
        {
          "duration": 0.24763331249999965,
          "durationTicks": 168,
          "midi": 69,
          "name": "A4",
          "ticks": 58084,
          "time": 85.61626978125,
          "velocity": 0.5196850393700787
        },
        {
          "duration": 0.26826942187500435,
          "durationTicks": 182,
          "midi": 66,
          "name": "F#4",
          "ticks": 58174,
          "time": 85.74893048437501,
          "velocity": 0.5196850393700787
        },
        {
          "duration": 0.6927836718750058,
          "durationTicks": 470,
          "midi": 78,
          "name": "F#5",
          "ticks": 58368,
          "time": 86.03488800000001,
          "velocity": 0.47244094488188976
        },
        {
          "duration": 0.3242817187499867,
          "durationTicks": 220,
          "midi": 74,
          "name": "D5",
          "ticks": 58368,
          "time": 86.03488800000001,
          "velocity": 0.84251968503937
        },
        {
          "duration": 0.4952666249999993,
          "durationTicks": 336,
          "midi": 69,
          "name": "A4",
          "ticks": 58568,
          "time": 86.32968956250001,
          "velocity": 0.7007874015748031
        },
        {
          "duration": 0.2800614843750111,
          "durationTicks": 190,
          "midi": 66,
          "name": "F#4",
          "ticks": 58756,
          "time": 86.60680303125,
          "velocity": 0.5039370078740157
        },
        {
          "duration": 0.548330906249987,
          "durationTicks": 372,
          "midi": 73,
          "name": "C#5",
          "ticks": 58952,
          "time": 86.89570856250002,
          "velocity": 0.7795275590551181
        },
        {
          "duration": 1.1025578437499917,
          "durationTicks": 748,
          "midi": 76,
          "name": "E5",
          "ticks": 58956,
          "time": 86.90160459375001,
          "velocity": 0.47244094488188976
        },
        {
          "duration": 0.37734599999998863,
          "durationTicks": 256,
          "midi": 69,
          "name": "A4",
          "ticks": 59336,
          "time": 87.46172756250002,
          "velocity": 0.7007874015748031
        },
        {
          "duration": 0.5719150312500005,
          "durationTicks": 388,
          "midi": 64,
          "name": "E4",
          "ticks": 59518,
          "time": 87.729996984375,
          "velocity": 0.47244094488188976
        },
        {
          "duration": 0.11497260937500187,
          "durationTicks": 78,
          "midi": 69,
          "name": "A4",
          "ticks": 59614,
          "time": 87.871501734375,
          "velocity": 0.5039370078740157
        },
        {
          "duration": 0.3183856874999975,
          "durationTicks": 216,
          "midi": 71,
          "name": "B4",
          "ticks": 59904,
          "time": 88.29896400000001,
          "velocity": 0.7795275590551181
        },
        {
          "duration": 0.7134197812499963,
          "durationTicks": 484,
          "midi": 74,
          "name": "D5",
          "ticks": 59906,
          "time": 88.301912015625,
          "velocity": 0.47244094488188976
        },
        {
          "duration": 0.5306428125000053,
          "durationTicks": 360,
          "midi": 67,
          "name": "G4",
          "ticks": 60104,
          "time": 88.59376556250001,
          "velocity": 0.6929133858267716
        },
        {
          "duration": 0.35376187500000356,
          "durationTicks": 240,
          "midi": 62,
          "name": "D4",
          "ticks": 60286,
          "time": 88.862034984375,
          "velocity": 0.4330708661417323
        },
        {
          "duration": 0.5660190000000114,
          "durationTicks": 384,
          "midi": 69,
          "name": "A4",
          "ticks": 60488,
          "time": 89.15978456250001,
          "velocity": 0.8267716535433071
        },
        {
          "duration": 1.388515359374992,
          "durationTicks": 942,
          "midi": 74,
          "name": "D5",
          "ticks": 60492,
          "time": 89.16568059375001,
          "velocity": 0.47244094488188976
        },
        {
          "duration": 0.4009301249999879,
          "durationTicks": 272,
          "midi": 66,
          "name": "F#4",
          "ticks": 60872,
          "time": 89.72580356250002,
          "velocity": 0.6850393700787402
        },
        {
          "duration": 0.46578646875001084,
          "durationTicks": 316,
          "midi": 62,
          "name": "D4",
          "ticks": 61054,
          "time": 89.99407298437501,
          "velocity": 0.4094488188976378
        },
        {
          "duration": 0.10612856250000391,
          "durationTicks": 72,
          "midi": 66,
          "name": "F#4",
          "ticks": 61156,
          "time": 90.14442178125,
          "velocity": 0.4566929133858268
        },
        {
          "duration": 0.8195483437500002,
          "durationTicks": 556,
          "midi": 67,
          "name": "G4",
          "ticks": 61440,
          "time": 90.56304,
          "velocity": 0.7874015748031497
        },
        {
          "duration": 0.6780435937500044,
          "durationTicks": 460,
          "midi": 76,
          "name": "E5",
          "ticks": 61442,
          "time": 90.56598801562501,
          "velocity": 0.47244094488188976
        },
        {
          "duration": 0.3006975937500016,
          "durationTicks": 204,
          "midi": 64,
          "name": "E4",
          "ticks": 61632,
          "time": 90.8460495,
          "velocity": 0.4566929133858268
        },
        {
          "duration": 0.30954164062499956,
          "durationTicks": 210,
          "midi": 60,
          "name": "C4",
          "ticks": 61820,
          "time": 91.12316296875001,
          "velocity": 0.4330708661417323
        },
        {
          "duration": 1.361983218749998,
          "durationTicks": 924,
          "midi": 74,
          "name": "D5",
          "ticks": 62028,
          "time": 91.42975659375001,
          "velocity": 0.5039370078740157
        },
        {
          "duration": 0.5542269374999904,
          "durationTicks": 376,
          "midi": 71,
          "name": "B4",
          "ticks": 62028,
          "time": 91.42975659375001,
          "velocity": 0.7086614173228346
        },
        {
          "duration": 0.7959642187500009,
          "durationTicks": 540,
          "midi": 67,
          "name": "G4",
          "ticks": 62408,
          "time": 91.98987956250001,
          "velocity": 0.6929133858267716
        },
        {
          "duration": 0.55127892187501,
          "durationTicks": 374,
          "midi": 62,
          "name": "D4",
          "ticks": 62592,
          "time": 92.261097,
          "velocity": 0.36220472440944884
        },
        {
          "duration": 0.29480156250001244,
          "durationTicks": 200,
          "midi": 71,
          "name": "B4",
          "ticks": 62788,
          "time": 92.55000253125,
          "velocity": 0.4094488188976378
        },
        {
          "duration": 0.5335908281250141,
          "durationTicks": 362,
          "midi": 74,
          "name": "D5",
          "ticks": 62976,
          "time": 92.827116,
          "velocity": 0.5039370078740157
        },
        {
          "duration": 0.24763331249999965,
          "durationTicks": 168,
          "midi": 69,
          "name": "A4",
          "ticks": 62980,
          "time": 92.83301203125001,
          "velocity": 0.84251968503937
        },
        {
          "duration": 0.7782761249999908,
          "durationTicks": 528,
          "midi": 66,
          "name": "F#4",
          "ticks": 63176,
          "time": 93.12191756250002,
          "velocity": 0.6299212598425197
        },
        {
          "duration": 0.5011626562499885,
          "durationTicks": 340,
          "midi": 74,
          "name": "D5",
          "ticks": 63360,
          "time": 93.39313500000002,
          "velocity": 0.4094488188976378
        },
        {
          "duration": 0.7546920000000057,
          "durationTicks": 512,
          "midi": 69,
          "name": "A4",
          "ticks": 63552,
          "time": 93.6761445,
          "velocity": 0.4094488188976378
        },
        {
          "duration": 0.1474007812499849,
          "durationTicks": 100,
          "midi": 74,
          "name": "D5",
          "ticks": 63744,
          "time": 93.95915400000001,
          "velocity": 0.4330708661417323
        },
        {
          "duration": 0.18867300000000853,
          "durationTicks": 128,
          "midi": 76,
          "name": "E5",
          "ticks": 63844,
          "time": 94.10655478125,
          "velocity": 0.4094488188976378
        },
        {
          "duration": 0.18867299999999432,
          "durationTicks": 128,
          "midi": 78,
          "name": "F#5",
          "ticks": 63944,
          "time": 94.25395556250001,
          "velocity": 0.4330708661417323
        },
        {
          "duration": 0.11792062500001066,
          "durationTicks": 80,
          "midi": 76,
          "name": "E5",
          "ticks": 64044,
          "time": 94.40135634375001,
          "velocity": 0.3858267716535433
        },
        {
          "duration": 0.3655539375000103,
          "durationTicks": 248,
          "midi": 74,
          "name": "D5",
          "ticks": 64128,
          "time": 94.52517300000001,
          "velocity": 0.33858267716535434
        },
        {
          "duration": 0.6927836718750058,
          "durationTicks": 470,
          "midi": 78,
          "name": "F#5",
          "ticks": 64512,
          "time": 95.091192,
          "velocity": 0.47244094488188976
        },
        {
          "duration": 0.3242817187500009,
          "durationTicks": 220,
          "midi": 74,
          "name": "D5",
          "ticks": 64512,
          "time": 95.091192,
          "velocity": 0.84251968503937
        },
        {
          "duration": 0.4952666249999993,
          "durationTicks": 336,
          "midi": 69,
          "name": "A4",
          "ticks": 64712,
          "time": 95.38599356250002,
          "velocity": 0.7007874015748031
        },
        {
          "duration": 0.2800614843750111,
          "durationTicks": 190,
          "midi": 66,
          "name": "F#4",
          "ticks": 64900,
          "time": 95.66310703125001,
          "velocity": 0.5039370078740157
        },
        {
          "duration": 0.5483309062500012,
          "durationTicks": 372,
          "midi": 73,
          "name": "C#5",
          "ticks": 65096,
          "time": 95.95201256250002,
          "velocity": 0.7795275590551181
        },
        {
          "duration": 1.1025578437499917,
          "durationTicks": 748,
          "midi": 76,
          "name": "E5",
          "ticks": 65100,
          "time": 95.95790859375,
          "velocity": 0.47244094488188976
        },
        {
          "duration": 0.37734599999998863,
          "durationTicks": 256,
          "midi": 69,
          "name": "A4",
          "ticks": 65480,
          "time": 96.51803156250001,
          "velocity": 0.7007874015748031
        },
        {
          "duration": 0.5719150312500147,
          "durationTicks": 388,
          "midi": 64,
          "name": "E4",
          "ticks": 65662,
          "time": 96.786300984375,
          "velocity": 0.47244094488188976
        },
        {
          "duration": 0.11497260937500187,
          "durationTicks": 78,
          "midi": 69,
          "name": "A4",
          "ticks": 65758,
          "time": 96.927805734375,
          "velocity": 0.5039370078740157
        },
        {
          "duration": 0.3183856874999975,
          "durationTicks": 216,
          "midi": 71,
          "name": "B4",
          "ticks": 66048,
          "time": 97.35526800000001,
          "velocity": 0.7795275590551181
        },
        {
          "duration": 0.7134197812499963,
          "durationTicks": 484,
          "midi": 74,
          "name": "D5",
          "ticks": 66050,
          "time": 97.35821601562502,
          "velocity": 0.47244094488188976
        },
        {
          "duration": 0.5306428125000053,
          "durationTicks": 360,
          "midi": 67,
          "name": "G4",
          "ticks": 66248,
          "time": 97.65006956250001,
          "velocity": 0.6929133858267716
        },
        {
          "duration": 0.35376187500000356,
          "durationTicks": 240,
          "midi": 62,
          "name": "D4",
          "ticks": 66430,
          "time": 97.918338984375,
          "velocity": 0.4330708661417323
        },
        {
          "duration": 0.5660189999999972,
          "durationTicks": 384,
          "midi": 69,
          "name": "A4",
          "ticks": 66632,
          "time": 98.21608856250002,
          "velocity": 0.8267716535433071
        },
        {
          "duration": 1.3885153593750061,
          "durationTicks": 942,
          "midi": 74,
          "name": "D5",
          "ticks": 66636,
          "time": 98.22198459375001,
          "velocity": 0.47244094488188976
        },
        {
          "duration": 0.4009301249999879,
          "durationTicks": 272,
          "midi": 66,
          "name": "F#4",
          "ticks": 67016,
          "time": 98.78210756250002,
          "velocity": 0.6850393700787402
        },
        {
          "duration": 0.46578646875001084,
          "durationTicks": 316,
          "midi": 62,
          "name": "D4",
          "ticks": 67198,
          "time": 99.050376984375,
          "velocity": 0.4094488188976378
        },
        {
          "duration": 0.10612856250000391,
          "durationTicks": 72,
          "midi": 66,
          "name": "F#4",
          "ticks": 67300,
          "time": 99.20072578125,
          "velocity": 0.4566929133858268
        },
        {
          "duration": 0.819548343749986,
          "durationTicks": 556,
          "midi": 67,
          "name": "G4",
          "ticks": 67584,
          "time": 99.61934400000001,
          "velocity": 0.7874015748031497
        },
        {
          "duration": 0.6780435937499902,
          "durationTicks": 460,
          "midi": 76,
          "name": "E5",
          "ticks": 67586,
          "time": 99.62229201562502,
          "velocity": 0.47244094488188976
        },
        {
          "duration": 0.3006975937500016,
          "durationTicks": 204,
          "midi": 64,
          "name": "E4",
          "ticks": 67776,
          "time": 99.9023535,
          "velocity": 0.4566929133858268
        },
        {
          "duration": 0.30954164062499956,
          "durationTicks": 210,
          "midi": 60,
          "name": "C4",
          "ticks": 67964,
          "time": 100.17946696875002,
          "velocity": 0.4330708661417323
        },
        {
          "duration": 1.361983218749998,
          "durationTicks": 924,
          "midi": 74,
          "name": "D5",
          "ticks": 68172,
          "time": 100.48606059375001,
          "velocity": 0.5039370078740157
        },
        {
          "duration": 0.5542269374999904,
          "durationTicks": 376,
          "midi": 71,
          "name": "B4",
          "ticks": 68172,
          "time": 100.48606059375001,
          "velocity": 0.7559055118110236
        },
        {
          "duration": 0.7959642187500009,
          "durationTicks": 540,
          "midi": 67,
          "name": "G4",
          "ticks": 68552,
          "time": 101.04618356250002,
          "velocity": 0.6929133858267716
        },
        {
          "duration": 0.55127892187501,
          "durationTicks": 374,
          "midi": 62,
          "name": "D4",
          "ticks": 68736,
          "time": 101.317401,
          "velocity": 0.36220472440944884
        },
        {
          "duration": 0.29480156250001244,
          "durationTicks": 200,
          "midi": 71,
          "name": "B4",
          "ticks": 68932,
          "time": 101.60630653125,
          "velocity": 0.4094488188976378
        },
        {
          "duration": 0.3183856874999975,
          "durationTicks": 216,
          "midi": 69,
          "name": "A4",
          "ticks": 69120,
          "time": 101.88342000000002,
          "velocity": 0.905511811023622
        },
        {
          "duration": 1.2529066406250138,
          "durationTicks": 850,
          "midi": 74,
          "name": "D5",
          "ticks": 69124,
          "time": 101.88931603125,
          "velocity": 0.5196850393700787
        },
        {
          "duration": 0.48347456249999254,
          "durationTicks": 328,
          "midi": 66,
          "name": "F#4",
          "ticks": 69320,
          "time": 102.17822156250001,
          "velocity": 0.7637795275590551
        },
        {
          "duration": 0.5306428124999911,
          "durationTicks": 360,
          "midi": 69,
          "name": "A4",
          "ticks": 69700,
          "time": 102.73834453125001,
          "velocity": 0.6141732283464567
        },
        {
          "duration": 0.24468529687499085,
          "durationTicks": 166,
          "midi": 66,
          "name": "F#4",
          "ticks": 69804,
          "time": 102.89164134375001,
          "velocity": 0.6377952755905512
        },
        {
          "duration": 0.37144996874999947,
          "durationTicks": 252,
          "midi": 62,
          "name": "D4",
          "ticks": 69988,
          "time": 103.16285878125001,
          "velocity": 0.2204724409448819
        },
        {
          "duration": 0.3006975937500016,
          "durationTicks": 204,
          "midi": 69,
          "name": "A4",
          "ticks": 70092,
          "time": 103.31615559375001,
          "velocity": 0.4015748031496063
        },
        {
          "duration": 0.383242031249992,
          "durationTicks": 260,
          "midi": 66,
          "name": "F#4",
          "ticks": 70192,
          "time": 103.46355637500001,
          "velocity": 0.5039370078740157
        },
        {
          "duration": 0.22994521875000373,
          "durationTicks": 156,
          "midi": 62,
          "name": "D4",
          "ticks": 70284,
          "time": 103.59916509375,
          "velocity": 0.44881889763779526
        },
        {
          "duration": 0.24763331249999965,
          "durationTicks": 168,
          "midi": 69,
          "name": "A4",
          "ticks": 70372,
          "time": 103.72887778125,
          "velocity": 0.2283464566929134
        },
        {
          "duration": 0.26826942187500435,
          "durationTicks": 182,
          "midi": 66,
          "name": "F#4",
          "ticks": 70462,
          "time": 103.861538484375,
          "velocity": 0.18110236220472442
        },
        {
          "duration": 0.3419698124999684,
          "durationTicks": 232,
          "midi": 73,
          "name": "C#5",
          "ticks": 113668,
          "time": 167.54752003125003,
          "velocity": 0.7637795275590551
        },
        {
          "duration": 0.3419698124999968,
          "durationTicks": 232,
          "midi": 68,
          "name": "G#4",
          "ticks": 113864,
          "time": 167.8364255625,
          "velocity": 0.7007874015748031
        },
        {
          "duration": 0.41861821874996963,
          "durationTicks": 284,
          "midi": 75,
          "name": "D#5",
          "ticks": 114048,
          "time": 168.10764300000002,
          "velocity": 0.7244094488188977
        },
        {
          "duration": 0.5424348750000263,
          "durationTicks": 368,
          "midi": 71,
          "name": "B4",
          "ticks": 114248,
          "time": 168.4024445625,
          "velocity": 0.7559055118110236
        },
        {
          "duration": 0.3242817187500009,
          "durationTicks": 220,
          "midi": 66,
          "name": "F#4",
          "ticks": 114632,
          "time": 168.9684635625,
          "velocity": 0.6929133858267716
        },
        {
          "duration": 0.297749578125007,
          "durationTicks": 202,
          "midi": 63,
          "name": "D#4",
          "ticks": 114816,
          "time": 169.23968100000002,
          "velocity": 0.5433070866141733
        },
        {
          "duration": 0.18277696874997673,
          "durationTicks": 124,
          "midi": 59,
          "name": "B3",
          "ticks": 114994,
          "time": 169.50205439062503,
          "velocity": 0.4330708661417323
        },
        {
          "duration": 0.12381665624999982,
          "durationTicks": 84,
          "midi": 60,
          "name": "C4",
          "ticks": 115064,
          "time": 169.6052349375,
          "velocity": 0.3464566929133858
        },
        {
          "duration": 0.08844046874997957,
          "durationTicks": 60,
          "midi": 61,
          "name": "C#4",
          "ticks": 115118,
          "time": 169.684831359375,
          "velocity": 0.3543307086614173
        },
        {
          "duration": 0.10612856250000391,
          "durationTicks": 72,
          "midi": 62,
          "name": "D4",
          "ticks": 115154,
          "time": 169.737895640625,
          "velocity": 0.36220472440944884
        },
        {
          "duration": 0.33607378125000764,
          "durationTicks": 228,
          "midi": 63,
          "name": "D#4",
          "ticks": 115200,
          "time": 169.8057,
          "velocity": 0.7480314960629921
        },
        {
          "duration": 0.33607378125000764,
          "durationTicks": 228,
          "midi": 59,
          "name": "B3",
          "ticks": 115400,
          "time": 170.1005015625,
          "velocity": 0.5984251968503937
        },
        {
          "duration": 0.15919284374999165,
          "durationTicks": 108,
          "midi": 63,
          "name": "D#4",
          "ticks": 115588,
          "time": 170.37761503125003,
          "velocity": 0.6220472440944882
        },
        {
          "duration": 1.308918937499982,
          "durationTicks": 888,
          "midi": 64,
          "name": "E4",
          "ticks": 115784,
          "time": 170.6665205625,
          "velocity": 0.7322834645669292
        },
        {
          "duration": 0.3006975937499874,
          "durationTicks": 204,
          "midi": 73,
          "name": "C#5",
          "ticks": 116736,
          "time": 172.06977600000002,
          "velocity": 0.7795275590551181
        },
        {
          "duration": 0.3242817187500009,
          "durationTicks": 220,
          "midi": 68,
          "name": "G#4",
          "ticks": 116936,
          "time": 172.36457756250002,
          "velocity": 0.7007874015748031
        },
        {
          "duration": 0.33017774999999006,
          "durationTicks": 224,
          "midi": 75,
          "name": "D#5",
          "ticks": 117120,
          "time": 172.635795,
          "velocity": 0.7086614173228346
        },
        {
          "duration": 0.5896031250000249,
          "durationTicks": 400,
          "midi": 71,
          "name": "B4",
          "ticks": 117320,
          "time": 172.9305965625,
          "velocity": 0.7795275590551181
        },
        {
          "duration": 0.6072912187499924,
          "durationTicks": 412,
          "midi": 66,
          "name": "F#4",
          "ticks": 117704,
          "time": 173.4966155625,
          "velocity": 0.6692913385826772
        },
        {
          "duration": 0.1297126875000174,
          "durationTicks": 88,
          "midi": 63,
          "name": "D#4",
          "ticks": 118088,
          "time": 174.0626345625,
          "velocity": 0.5511811023622047
        },
        {
          "duration": 0.15919284374999165,
          "durationTicks": 108,
          "midi": 64,
          "name": "E4",
          "ticks": 118472,
          "time": 174.6286535625,
          "velocity": 0.6456692913385826
        },
        {
          "duration": 1.090765781249985,
          "durationTicks": 740,
          "midi": 64,
          "name": "E4",
          "ticks": 118660,
          "time": 174.90576703125004,
          "velocity": 0.6692913385826772
        },
        {
          "duration": 0.3419698124999968,
          "durationTicks": 232,
          "midi": 73,
          "name": "C#5",
          "ticks": 119812,
          "time": 176.60382403125,
          "velocity": 0.7637795275590551
        },
        {
          "duration": 0.3419698125000252,
          "durationTicks": 232,
          "midi": 68,
          "name": "G#4",
          "ticks": 120008,
          "time": 176.8927295625,
          "velocity": 0.7007874015748031
        },
        {
          "duration": 0.41861821874999805,
          "durationTicks": 284,
          "midi": 75,
          "name": "D#5",
          "ticks": 120192,
          "time": 177.163947,
          "velocity": 0.7244094488188977
        },
        {
          "duration": 0.5424348750000263,
          "durationTicks": 368,
          "midi": 71,
          "name": "B4",
          "ticks": 120392,
          "time": 177.4587485625,
          "velocity": 0.7559055118110236
        },
        {
          "duration": 0.3242817187500009,
          "durationTicks": 220,
          "midi": 66,
          "name": "F#4",
          "ticks": 120776,
          "time": 178.02476756250002,
          "velocity": 0.6929133858267716
        },
        {
          "duration": 0.29774957812503544,
          "durationTicks": 202,
          "midi": 63,
          "name": "D#4",
          "ticks": 120960,
          "time": 178.295985,
          "velocity": 0.5433070866141733
        },
        {
          "duration": 0.18277696874997673,
          "durationTicks": 124,
          "midi": 59,
          "name": "B3",
          "ticks": 121138,
          "time": 178.55835839062502,
          "velocity": 0.4330708661417323
        },
        {
          "duration": 0.12381665624999982,
          "durationTicks": 84,
          "midi": 60,
          "name": "C4",
          "ticks": 121208,
          "time": 178.6615389375,
          "velocity": 0.3464566929133858
        },
        {
          "duration": 0.088440468750008,
          "durationTicks": 60,
          "midi": 61,
          "name": "C#4",
          "ticks": 121262,
          "time": 178.741135359375,
          "velocity": 0.3543307086614173
        },
        {
          "duration": 0.10612856250000391,
          "durationTicks": 72,
          "midi": 62,
          "name": "D4",
          "ticks": 121298,
          "time": 178.794199640625,
          "velocity": 0.36220472440944884
        },
        {
          "duration": 0.33607378125000764,
          "durationTicks": 228,
          "midi": 63,
          "name": "D#4",
          "ticks": 121344,
          "time": 178.862004,
          "velocity": 0.7480314960629921
        },
        {
          "duration": 0.33607378125000764,
          "durationTicks": 228,
          "midi": 59,
          "name": "B3",
          "ticks": 121544,
          "time": 179.1568055625,
          "velocity": 0.5984251968503937
        },
        {
          "duration": 0.15919284375002007,
          "durationTicks": 108,
          "midi": 63,
          "name": "D#4",
          "ticks": 121732,
          "time": 179.43391903125,
          "velocity": 0.6220472440944882
        },
        {
          "duration": 1.3089189375000103,
          "durationTicks": 888,
          "midi": 64,
          "name": "E4",
          "ticks": 121928,
          "time": 179.7228245625,
          "velocity": 0.7322834645669292
        },
        {
          "duration": 0.3006975937500158,
          "durationTicks": 204,
          "midi": 73,
          "name": "C#5",
          "ticks": 122880,
          "time": 181.12608,
          "velocity": 0.7795275590551181
        },
        {
          "duration": 0.3242817187500293,
          "durationTicks": 220,
          "midi": 68,
          "name": "G#4",
          "ticks": 123080,
          "time": 181.4208815625,
          "velocity": 0.7007874015748031
        },
        {
          "duration": 0.33017774999999006,
          "durationTicks": 224,
          "midi": 75,
          "name": "D#5",
          "ticks": 123264,
          "time": 181.692099,
          "velocity": 0.7086614173228346
        },
        {
          "duration": 0.5896031249999965,
          "durationTicks": 400,
          "midi": 71,
          "name": "B4",
          "ticks": 123464,
          "time": 181.9869005625,
          "velocity": 0.7795275590551181
        },
        {
          "duration": 0.6072912187500208,
          "durationTicks": 412,
          "midi": 66,
          "name": "F#4",
          "ticks": 123848,
          "time": 182.5529195625,
          "velocity": 0.6692913385826772
        },
        {
          "duration": 0.1297126875000174,
          "durationTicks": 88,
          "midi": 63,
          "name": "D#4",
          "ticks": 124232,
          "time": 183.1189385625,
          "velocity": 0.5511811023622047
        },
        {
          "duration": 0.15919284374999165,
          "durationTicks": 108,
          "midi": 64,
          "name": "E4",
          "ticks": 124616,
          "time": 183.68495756250002,
          "velocity": 0.6456692913385826
        },
        {
          "duration": 1.090765781249985,
          "durationTicks": 740,
          "midi": 64,
          "name": "E4",
          "ticks": 124804,
          "time": 183.96207103125002,
          "velocity": 0.6692913385826772
        },
        {
          "duration": 0.6927836718749631,
          "durationTicks": 470,
          "midi": 78,
          "name": "F#5",
          "ticks": 138240,
          "time": 203.76684000000003,
          "velocity": 0.47244094488188976
        },
        {
          "duration": 0.3242817187500009,
          "durationTicks": 220,
          "midi": 74,
          "name": "D5",
          "ticks": 138240,
          "time": 203.76684000000003,
          "velocity": 0.84251968503937
        },
        {
          "duration": 0.4952666249999993,
          "durationTicks": 336,
          "midi": 69,
          "name": "A4",
          "ticks": 138440,
          "time": 204.0616415625,
          "velocity": 0.7007874015748031
        },
        {
          "duration": 0.2800614843749827,
          "durationTicks": 190,
          "midi": 66,
          "name": "F#4",
          "ticks": 138628,
          "time": 204.33875503125003,
          "velocity": 0.5039370078740157
        },
        {
          "duration": 0.548330906249987,
          "durationTicks": 372,
          "midi": 73,
          "name": "C#5",
          "ticks": 138824,
          "time": 204.6276605625,
          "velocity": 0.7795275590551181
        },
        {
          "duration": 1.1025578437499917,
          "durationTicks": 748,
          "midi": 76,
          "name": "E5",
          "ticks": 138828,
          "time": 204.63355659375003,
          "velocity": 0.47244094488188976
        },
        {
          "duration": 0.37734600000001706,
          "durationTicks": 256,
          "midi": 69,
          "name": "A4",
          "ticks": 139208,
          "time": 205.1936795625,
          "velocity": 0.7007874015748031
        },
        {
          "duration": 0.5719150312499721,
          "durationTicks": 388,
          "midi": 64,
          "name": "E4",
          "ticks": 139390,
          "time": 205.46194898437503,
          "velocity": 0.47244094488188976
        },
        {
          "duration": 0.11497260937500187,
          "durationTicks": 78,
          "midi": 69,
          "name": "A4",
          "ticks": 139486,
          "time": 205.60345373437502,
          "velocity": 0.5039370078740157
        },
        {
          "duration": 0.3183856875000117,
          "durationTicks": 216,
          "midi": 71,
          "name": "B4",
          "ticks": 139776,
          "time": 206.03091600000002,
          "velocity": 0.7795275590551181
        },
        {
          "duration": 0.7134197812500247,
          "durationTicks": 484,
          "midi": 74,
          "name": "D5",
          "ticks": 139778,
          "time": 206.033864015625,
          "velocity": 0.47244094488188976
        },
        {
          "duration": 0.5306428124999911,
          "durationTicks": 360,
          "midi": 67,
          "name": "G4",
          "ticks": 139976,
          "time": 206.32571756250002,
          "velocity": 0.6929133858267716
        },
        {
          "duration": 0.35376187500000356,
          "durationTicks": 240,
          "midi": 62,
          "name": "D4",
          "ticks": 140158,
          "time": 206.59398698437502,
          "velocity": 0.4330708661417323
        },
        {
          "duration": 0.5660190000000114,
          "durationTicks": 384,
          "midi": 69,
          "name": "A4",
          "ticks": 140360,
          "time": 206.8917365625,
          "velocity": 0.8267716535433071
        },
        {
          "duration": 1.388515359374992,
          "durationTicks": 942,
          "midi": 74,
          "name": "D5",
          "ticks": 140364,
          "time": 206.89763259375002,
          "velocity": 0.47244094488188976
        },
        {
          "duration": 0.40093012500003056,
          "durationTicks": 272,
          "midi": 66,
          "name": "F#4",
          "ticks": 140744,
          "time": 207.4577555625,
          "velocity": 0.6850393700787402
        },
        {
          "duration": 0.46578646874999663,
          "durationTicks": 316,
          "midi": 62,
          "name": "D4",
          "ticks": 140926,
          "time": 207.72602498437502,
          "velocity": 0.4094488188976378
        },
        {
          "duration": 0.10612856250000391,
          "durationTicks": 72,
          "midi": 66,
          "name": "F#4",
          "ticks": 141028,
          "time": 207.87637378125004,
          "velocity": 0.4566929133858268
        },
        {
          "duration": 0.8195483437500286,
          "durationTicks": 556,
          "midi": 67,
          "name": "G4",
          "ticks": 141312,
          "time": 208.294992,
          "velocity": 0.7874015748031497
        },
        {
          "duration": 0.6780435937500044,
          "durationTicks": 460,
          "midi": 76,
          "name": "E5",
          "ticks": 141314,
          "time": 208.29794001562502,
          "velocity": 0.47244094488188976
        },
        {
          "duration": 0.3006975937499874,
          "durationTicks": 204,
          "midi": 64,
          "name": "E4",
          "ticks": 141504,
          "time": 208.57800150000003,
          "velocity": 0.4566929133858268
        },
        {
          "duration": 0.30954164062501377,
          "durationTicks": 210,
          "midi": 60,
          "name": "C4",
          "ticks": 141692,
          "time": 208.85511496875,
          "velocity": 0.4330708661417323
        },
        {
          "duration": 1.361983218749998,
          "durationTicks": 924,
          "midi": 74,
          "name": "D5",
          "ticks": 141900,
          "time": 209.16170859375,
          "velocity": 0.5039370078740157
        },
        {
          "duration": 0.554226937500033,
          "durationTicks": 376,
          "midi": 71,
          "name": "B4",
          "ticks": 141900,
          "time": 209.16170859375,
          "velocity": 0.7086614173228346
        },
        {
          "duration": 0.7959642187500151,
          "durationTicks": 540,
          "midi": 67,
          "name": "G4",
          "ticks": 142280,
          "time": 209.7218315625,
          "velocity": 0.6929133858267716
        },
        {
          "duration": 0.5512789218749958,
          "durationTicks": 374,
          "midi": 62,
          "name": "D4",
          "ticks": 142464,
          "time": 209.993049,
          "velocity": 0.36220472440944884
        },
        {
          "duration": 0.2948015624999982,
          "durationTicks": 200,
          "midi": 71,
          "name": "B4",
          "ticks": 142660,
          "time": 210.28195453125002,
          "velocity": 0.4094488188976378
        },
        {
          "duration": 0.5335908281249715,
          "durationTicks": 362,
          "midi": 74,
          "name": "D5",
          "ticks": 142848,
          "time": 210.55906800000002,
          "velocity": 0.5039370078740157
        },
        {
          "duration": 0.24763331249999965,
          "durationTicks": 168,
          "midi": 69,
          "name": "A4",
          "ticks": 142852,
          "time": 210.56496403125004,
          "velocity": 0.84251968503937
        },
        {
          "duration": 0.7782761250000192,
          "durationTicks": 528,
          "midi": 66,
          "name": "F#4",
          "ticks": 143048,
          "time": 210.8538695625,
          "velocity": 0.6299212598425197
        },
        {
          "duration": 0.5011626562500169,
          "durationTicks": 340,
          "midi": 74,
          "name": "D5",
          "ticks": 143232,
          "time": 211.125087,
          "velocity": 0.4094488188976378
        },
        {
          "duration": 0.7546919999999773,
          "durationTicks": 512,
          "midi": 69,
          "name": "A4",
          "ticks": 143424,
          "time": 211.40809650000003,
          "velocity": 0.4094488188976378
        },
        {
          "duration": 0.14740078125001332,
          "durationTicks": 100,
          "midi": 74,
          "name": "D5",
          "ticks": 143616,
          "time": 211.69110600000002,
          "velocity": 0.4330708661417323
        },
        {
          "duration": 0.18867299999999432,
          "durationTicks": 128,
          "midi": 76,
          "name": "E5",
          "ticks": 143716,
          "time": 211.83850678125003,
          "velocity": 0.4094488188976378
        },
        {
          "duration": 0.18867300000002274,
          "durationTicks": 128,
          "midi": 78,
          "name": "F#5",
          "ticks": 143816,
          "time": 211.98590756250002,
          "velocity": 0.4330708661417323
        },
        {
          "duration": 0.11792062499998224,
          "durationTicks": 80,
          "midi": 76,
          "name": "E5",
          "ticks": 143916,
          "time": 212.13330834375003,
          "velocity": 0.3858267716535433
        },
        {
          "duration": 0.3655539374999819,
          "durationTicks": 248,
          "midi": 74,
          "name": "D5",
          "ticks": 144000,
          "time": 212.25712500000003,
          "velocity": 0.33858267716535434
        },
        {
          "duration": 0.6927836718749916,
          "durationTicks": 470,
          "midi": 78,
          "name": "F#5",
          "ticks": 144384,
          "time": 212.823144,
          "velocity": 0.47244094488188976
        },
        {
          "duration": 0.3242817187500293,
          "durationTicks": 220,
          "midi": 74,
          "name": "D5",
          "ticks": 144384,
          "time": 212.823144,
          "velocity": 0.84251968503937
        },
        {
          "duration": 0.4952666249999993,
          "durationTicks": 336,
          "midi": 69,
          "name": "A4",
          "ticks": 144584,
          "time": 213.1179455625,
          "velocity": 0.7007874015748031
        },
        {
          "duration": 0.28006148437495426,
          "durationTicks": 190,
          "midi": 66,
          "name": "F#4",
          "ticks": 144772,
          "time": 213.39505903125004,
          "velocity": 0.5039370078740157
        },
        {
          "duration": 0.5483309062500155,
          "durationTicks": 372,
          "midi": 73,
          "name": "C#5",
          "ticks": 144968,
          "time": 213.6839645625,
          "velocity": 0.7795275590551181
        },
        {
          "duration": 1.10255784375002,
          "durationTicks": 748,
          "midi": 76,
          "name": "E5",
          "ticks": 144972,
          "time": 213.68986059375,
          "velocity": 0.47244094488188976
        },
        {
          "duration": 0.37734600000001706,
          "durationTicks": 256,
          "midi": 69,
          "name": "A4",
          "ticks": 145352,
          "time": 214.2499835625,
          "velocity": 0.7007874015748031
        },
        {
          "duration": 0.5719150312499721,
          "durationTicks": 388,
          "midi": 64,
          "name": "E4",
          "ticks": 145534,
          "time": 214.51825298437504,
          "velocity": 0.47244094488188976
        },
        {
          "duration": 0.11497260937500187,
          "durationTicks": 78,
          "midi": 69,
          "name": "A4",
          "ticks": 145630,
          "time": 214.65975773437503,
          "velocity": 0.5039370078740157
        },
        {
          "duration": 0.3183856874999833,
          "durationTicks": 216,
          "midi": 71,
          "name": "B4",
          "ticks": 145920,
          "time": 215.08722000000003,
          "velocity": 0.7795275590551181
        },
        {
          "duration": 0.7134197812499963,
          "durationTicks": 484,
          "midi": 74,
          "name": "D5",
          "ticks": 145922,
          "time": 215.090168015625,
          "velocity": 0.47244094488188976
        },
        {
          "duration": 0.5306428125000195,
          "durationTicks": 360,
          "midi": 67,
          "name": "G4",
          "ticks": 146120,
          "time": 215.3820215625,
          "velocity": 0.6929133858267716
        },
        {
          "duration": 0.35376187500000356,
          "durationTicks": 240,
          "midi": 62,
          "name": "D4",
          "ticks": 146302,
          "time": 215.65029098437503,
          "velocity": 0.4330708661417323
        },
        {
          "duration": 0.566018999999983,
          "durationTicks": 384,
          "midi": 69,
          "name": "A4",
          "ticks": 146504,
          "time": 215.9480405625,
          "velocity": 0.8267716535433071
        },
        {
          "duration": 1.388515359374992,
          "durationTicks": 942,
          "midi": 74,
          "name": "D5",
          "ticks": 146508,
          "time": 215.95393659375003,
          "velocity": 0.47244094488188976
        },
        {
          "duration": 0.40093012500003056,
          "durationTicks": 272,
          "midi": 66,
          "name": "F#4",
          "ticks": 146888,
          "time": 216.5140595625,
          "velocity": 0.6850393700787402
        },
        {
          "duration": 0.4657864687499682,
          "durationTicks": 316,
          "midi": 62,
          "name": "D4",
          "ticks": 147070,
          "time": 216.78232898437503,
          "velocity": 0.4094488188976378
        },
        {
          "duration": 0.10612856250000391,
          "durationTicks": 72,
          "midi": 66,
          "name": "F#4",
          "ticks": 147172,
          "time": 216.93267778125002,
          "velocity": 0.4566929133858268
        },
        {
          "duration": 0.8195483437500002,
          "durationTicks": 556,
          "midi": 67,
          "name": "G4",
          "ticks": 147456,
          "time": 217.35129600000002,
          "velocity": 0.7874015748031497
        },
        {
          "duration": 0.6780435937500329,
          "durationTicks": 460,
          "midi": 76,
          "name": "E5",
          "ticks": 147458,
          "time": 217.354244015625,
          "velocity": 0.47244094488188976
        },
        {
          "duration": 0.3006975937500158,
          "durationTicks": 204,
          "midi": 64,
          "name": "E4",
          "ticks": 147648,
          "time": 217.6343055,
          "velocity": 0.4566929133858268
        },
        {
          "duration": 0.30954164062498535,
          "durationTicks": 210,
          "midi": 60,
          "name": "C4",
          "ticks": 147836,
          "time": 217.91141896875,
          "velocity": 0.4330708661417323
        },
        {
          "duration": 1.361983218749998,
          "durationTicks": 924,
          "midi": 74,
          "name": "D5",
          "ticks": 148044,
          "time": 218.21801259375002,
          "velocity": 0.5039370078740157
        },
        {
          "duration": 0.5542269375000046,
          "durationTicks": 376,
          "midi": 71,
          "name": "B4",
          "ticks": 148044,
          "time": 218.21801259375002,
          "velocity": 0.7086614173228346
        },
        {
          "duration": 0.7959642187499867,
          "durationTicks": 540,
          "midi": 67,
          "name": "G4",
          "ticks": 148424,
          "time": 218.7781355625,
          "velocity": 0.6929133858267716
        },
        {
          "duration": 0.5512789218749958,
          "durationTicks": 374,
          "midi": 62,
          "name": "D4",
          "ticks": 148608,
          "time": 219.04935300000002,
          "velocity": 0.36220472440944884
        },
        {
          "duration": 0.2948015624999982,
          "durationTicks": 200,
          "midi": 71,
          "name": "B4",
          "ticks": 148804,
          "time": 219.33825853125003,
          "velocity": 0.4094488188976378
        },
        {
          "duration": 0.3183856875000117,
          "durationTicks": 216,
          "midi": 69,
          "name": "A4",
          "ticks": 148992,
          "time": 219.615372,
          "velocity": 0.905511811023622
        },
        {
          "duration": 1.2529066406249854,
          "durationTicks": 850,
          "midi": 74,
          "name": "D5",
          "ticks": 148996,
          "time": 219.62126803125003,
          "velocity": 0.5196850393700787
        },
        {
          "duration": 0.48347456250002097,
          "durationTicks": 328,
          "midi": 66,
          "name": "F#4",
          "ticks": 149192,
          "time": 219.9101735625,
          "velocity": 0.7637795275590551
        },
        {
          "duration": 0.5306428124999911,
          "durationTicks": 360,
          "midi": 69,
          "name": "A4",
          "ticks": 149572,
          "time": 220.47029653125003,
          "velocity": 0.6929133858267716
        },
        {
          "duration": 0.24468529687499085,
          "durationTicks": 166,
          "midi": 66,
          "name": "F#4",
          "ticks": 149676,
          "time": 220.62359334375003,
          "velocity": 0.6771653543307087
        },
        {
          "duration": 0.37144996874999947,
          "durationTicks": 252,
          "midi": 62,
          "name": "D4",
          "ticks": 149860,
          "time": 220.89481078125004,
          "velocity": 0.4566929133858268
        },
        {
          "duration": 0.3006975937499874,
          "durationTicks": 204,
          "midi": 69,
          "name": "A4",
          "ticks": 149964,
          "time": 221.04810759375002,
          "velocity": 0.6377952755905512
        },
        {
          "duration": 0.3832420312499778,
          "durationTicks": 260,
          "midi": 66,
          "name": "F#4",
          "ticks": 150064,
          "time": 221.19550837500003,
          "velocity": 0.7401574803149606
        },
        {
          "duration": 0.22994521875000373,
          "durationTicks": 156,
          "midi": 62,
          "name": "D4",
          "ticks": 150156,
          "time": 221.33111709375,
          "velocity": 0.6850393700787402
        },
        {
          "duration": 0.24763331249999965,
          "durationTicks": 168,
          "midi": 69,
          "name": "A4",
          "ticks": 150244,
          "time": 221.46082978125003,
          "velocity": 0.5196850393700787
        },
        {
          "duration": 0.26826942187500435,
          "durationTicks": 182,
          "midi": 66,
          "name": "F#4",
          "ticks": 150334,
          "time": 221.59349048437502,
          "velocity": 0.5196850393700787
        },
        {
          "duration": 0.6927836718749916,
          "durationTicks": 470,
          "midi": 78,
          "name": "F#5",
          "ticks": 150528,
          "time": 221.87944800000002,
          "velocity": 0.47244094488188976
        },
        {
          "duration": 0.3242817187500009,
          "durationTicks": 220,
          "midi": 74,
          "name": "D5",
          "ticks": 150528,
          "time": 221.87944800000002,
          "velocity": 0.84251968503937
        },
        {
          "duration": 0.4952666250000277,
          "durationTicks": 336,
          "midi": 69,
          "name": "A4",
          "ticks": 150728,
          "time": 222.1742495625,
          "velocity": 0.7007874015748031
        },
        {
          "duration": 0.2800614843749827,
          "durationTicks": 190,
          "midi": 66,
          "name": "F#4",
          "ticks": 150916,
          "time": 222.45136303125003,
          "velocity": 0.5039370078740157
        },
        {
          "duration": 0.5483309062500155,
          "durationTicks": 372,
          "midi": 73,
          "name": "C#5",
          "ticks": 151112,
          "time": 222.7402685625,
          "velocity": 0.7795275590551181
        },
        {
          "duration": 1.10255784375002,
          "durationTicks": 748,
          "midi": 76,
          "name": "E5",
          "ticks": 151116,
          "time": 222.74616459375002,
          "velocity": 0.47244094488188976
        },
        {
          "duration": 0.37734599999998863,
          "durationTicks": 256,
          "midi": 69,
          "name": "A4",
          "ticks": 151496,
          "time": 223.30628756250002,
          "velocity": 0.7007874015748031
        },
        {
          "duration": 0.5719150312500005,
          "durationTicks": 388,
          "midi": 64,
          "name": "E4",
          "ticks": 151678,
          "time": 223.57455698437502,
          "velocity": 0.47244094488188976
        },
        {
          "duration": 0.11497260937500187,
          "durationTicks": 78,
          "midi": 69,
          "name": "A4",
          "ticks": 151774,
          "time": 223.71606173437502,
          "velocity": 0.5039370078740157
        },
        {
          "duration": 0.3183856875000117,
          "durationTicks": 216,
          "midi": 62,
          "name": "D4",
          "ticks": 152064,
          "time": 224.143524,
          "velocity": 0.7795275590551181
        },
        {
          "duration": 0.507058687500006,
          "durationTicks": 344,
          "midi": 74,
          "name": "D5",
          "ticks": 152066,
          "time": 224.14647201562502,
          "velocity": 0.5748031496062992
        },
        {
          "duration": 0.6721475624999869,
          "durationTicks": 456,
          "midi": 71,
          "name": "B4",
          "ticks": 152068,
          "time": 224.14942003125003,
          "velocity": 0.47244094488188976
        },
        {
          "duration": 0.5306428124999911,
          "durationTicks": 360,
          "midi": 67,
          "name": "G4",
          "ticks": 152264,
          "time": 224.4383255625,
          "velocity": 0.6929133858267716
        },
        {
          "duration": 0.23584124999996448,
          "durationTicks": 160,
          "midi": 74,
          "name": "D5",
          "ticks": 152446,
          "time": 224.70659498437504,
          "velocity": 0.5905511811023622
        },
        {
          "duration": 0.566018999999983,
          "durationTicks": 384,
          "midi": 69,
          "name": "A4",
          "ticks": 152648,
          "time": 225.00434456250002,
          "velocity": 0.8267716535433071
        },
        {
          "duration": 1.3885153593750204,
          "durationTicks": 942,
          "midi": 74,
          "name": "D5",
          "ticks": 152652,
          "time": 225.01024059375,
          "velocity": 0.47244094488188976
        },
        {
          "duration": 0.40093012500003056,
          "durationTicks": 272,
          "midi": 66,
          "name": "F#4",
          "ticks": 153032,
          "time": 225.5703635625,
          "velocity": 0.6850393700787402
        },
        {
          "duration": 0.4657864687499682,
          "durationTicks": 316,
          "midi": 62,
          "name": "D4",
          "ticks": 153214,
          "time": 225.83863298437504,
          "velocity": 0.4094488188976378
        },
        {
          "duration": 0.10612856250000391,
          "durationTicks": 72,
          "midi": 66,
          "name": "F#4",
          "ticks": 153316,
          "time": 225.98898178125003,
          "velocity": 0.4566929133858268
        },
        {
          "duration": 0.8195483437500002,
          "durationTicks": 556,
          "midi": 67,
          "name": "G4",
          "ticks": 153600,
          "time": 226.40760000000003,
          "velocity": 0.7874015748031497
        },
        {
          "duration": 0.6780435937500044,
          "durationTicks": 460,
          "midi": 76,
          "name": "E5",
          "ticks": 153602,
          "time": 226.410548015625,
          "velocity": 0.47244094488188976
        },
        {
          "duration": 0.3006975937499874,
          "durationTicks": 204,
          "midi": 64,
          "name": "E4",
          "ticks": 153792,
          "time": 226.69060950000002,
          "velocity": 0.4566929133858268
        },
        {
          "duration": 0.30954164062501377,
          "durationTicks": 210,
          "midi": 60,
          "name": "C4",
          "ticks": 153980,
          "time": 226.96772296875,
          "velocity": 0.4330708661417323
        },
        {
          "duration": 1.361983218749998,
          "durationTicks": 924,
          "midi": 74,
          "name": "D5",
          "ticks": 154188,
          "time": 227.27431659375003,
          "velocity": 0.5039370078740157
        },
        {
          "duration": 0.5542269375000046,
          "durationTicks": 376,
          "midi": 71,
          "name": "B4",
          "ticks": 154188,
          "time": 227.27431659375003,
          "velocity": 0.7086614173228346
        },
        {
          "duration": 0.7959642187499867,
          "durationTicks": 540,
          "midi": 67,
          "name": "G4",
          "ticks": 154568,
          "time": 227.83443956250002,
          "velocity": 0.6929133858267716
        },
        {
          "duration": 0.5512789218749958,
          "durationTicks": 374,
          "midi": 62,
          "name": "D4",
          "ticks": 154752,
          "time": 228.105657,
          "velocity": 0.36220472440944884
        },
        {
          "duration": 0.2948015624999982,
          "durationTicks": 200,
          "midi": 71,
          "name": "B4",
          "ticks": 154948,
          "time": 228.39456253125002,
          "velocity": 0.4094488188976378
        },
        {
          "duration": 0.5335908281249999,
          "durationTicks": 362,
          "midi": 74,
          "name": "D5",
          "ticks": 155136,
          "time": 228.67167600000002,
          "velocity": 0.5039370078740157
        },
        {
          "duration": 0.24763331249999965,
          "durationTicks": 168,
          "midi": 69,
          "name": "A4",
          "ticks": 155140,
          "time": 228.67757203125004,
          "velocity": 0.84251968503937
        },
        {
          "duration": 0.7782761249999908,
          "durationTicks": 528,
          "midi": 66,
          "name": "F#4",
          "ticks": 155336,
          "time": 228.96647756250002,
          "velocity": 0.6299212598425197
        },
        {
          "duration": 0.5011626562499885,
          "durationTicks": 340,
          "midi": 74,
          "name": "D5",
          "ticks": 155520,
          "time": 229.23769500000003,
          "velocity": 0.4094488188976378
        },
        {
          "duration": 0.7546919999999773,
          "durationTicks": 512,
          "midi": 69,
          "name": "A4",
          "ticks": 155712,
          "time": 229.52070450000002,
          "velocity": 0.4094488188976378
        },
        {
          "duration": 0.14740078125001332,
          "durationTicks": 100,
          "midi": 74,
          "name": "D5",
          "ticks": 155904,
          "time": 229.803714,
          "velocity": 0.4330708661417323
        },
        {
          "duration": 0.18867299999999432,
          "durationTicks": 128,
          "midi": 76,
          "name": "E5",
          "ticks": 156004,
          "time": 229.95111478125003,
          "velocity": 0.4094488188976378
        },
        {
          "duration": 0.18867300000002274,
          "durationTicks": 128,
          "midi": 78,
          "name": "F#5",
          "ticks": 156104,
          "time": 230.0985155625,
          "velocity": 0.4330708661417323
        },
        {
          "duration": 0.11792062499998224,
          "durationTicks": 80,
          "midi": 76,
          "name": "E5",
          "ticks": 156204,
          "time": 230.24591634375003,
          "velocity": 0.3858267716535433
        },
        {
          "duration": 0.3655539374999819,
          "durationTicks": 248,
          "midi": 74,
          "name": "D5",
          "ticks": 156288,
          "time": 230.36973300000002,
          "velocity": 0.33858267716535434
        },
        {
          "duration": 0.6927836718749916,
          "durationTicks": 470,
          "midi": 78,
          "name": "F#5",
          "ticks": 156672,
          "time": 230.935752,
          "velocity": 0.47244094488188976
        },
        {
          "duration": 0.3242817187500293,
          "durationTicks": 220,
          "midi": 74,
          "name": "D5",
          "ticks": 156672,
          "time": 230.935752,
          "velocity": 0.84251968503937
        },
        {
          "duration": 0.4952666249999993,
          "durationTicks": 336,
          "midi": 69,
          "name": "A4",
          "ticks": 156872,
          "time": 231.2305535625,
          "velocity": 0.7007874015748031
        },
        {
          "duration": 0.2800614843749827,
          "durationTicks": 190,
          "midi": 66,
          "name": "F#4",
          "ticks": 157060,
          "time": 231.50766703125004,
          "velocity": 0.5039370078740157
        },
        {
          "duration": 0.548330906249987,
          "durationTicks": 372,
          "midi": 73,
          "name": "C#5",
          "ticks": 157256,
          "time": 231.79657256250002,
          "velocity": 0.7795275590551181
        },
        {
          "duration": 1.10255784375002,
          "durationTicks": 748,
          "midi": 76,
          "name": "E5",
          "ticks": 157260,
          "time": 231.80246859375,
          "velocity": 0.47244094488188976
        },
        {
          "duration": 0.37734600000001706,
          "durationTicks": 256,
          "midi": 69,
          "name": "A4",
          "ticks": 157640,
          "time": 232.3625915625,
          "velocity": 0.7007874015748031
        },
        {
          "duration": 0.5719150312499721,
          "durationTicks": 388,
          "midi": 64,
          "name": "E4",
          "ticks": 157822,
          "time": 232.63086098437503,
          "velocity": 0.47244094488188976
        },
        {
          "duration": 0.11497260937500187,
          "durationTicks": 78,
          "midi": 69,
          "name": "A4",
          "ticks": 157918,
          "time": 232.77236573437503,
          "velocity": 0.5039370078740157
        },
        {
          "duration": 0.31248965624999414,
          "durationTicks": 212,
          "midi": 71,
          "name": "B4",
          "ticks": 158208,
          "time": 233.19982800000002,
          "velocity": 0.5039370078740157
        },
        {
          "duration": 0.3183856874999833,
          "durationTicks": 216,
          "midi": 62,
          "name": "D4",
          "ticks": 158208,
          "time": 233.19982800000002,
          "velocity": 0.7795275590551181
        },
        {
          "duration": 0.5335908281250283,
          "durationTicks": 362,
          "midi": 74,
          "name": "D5",
          "ticks": 158210,
          "time": 233.202776015625,
          "velocity": 0.47244094488188976
        },
        {
          "duration": 0.5306428124999911,
          "durationTicks": 360,
          "midi": 67,
          "name": "G4",
          "ticks": 158408,
          "time": 233.49462956250002,
          "velocity": 0.6929133858267716
        },
        {
          "duration": 0.2800614843749827,
          "durationTicks": 190,
          "midi": 74,
          "name": "D5",
          "ticks": 158590,
          "time": 233.76289898437503,
          "velocity": 0.4330708661417323
        },
        {
          "duration": 0.5660190000000114,
          "durationTicks": 384,
          "midi": 69,
          "name": "A4",
          "ticks": 158792,
          "time": 234.0606485625,
          "velocity": 0.8267716535433071
        },
        {
          "duration": 1.388515359374992,
          "durationTicks": 942,
          "midi": 74,
          "name": "D5",
          "ticks": 158796,
          "time": 234.06654459375002,
          "velocity": 0.47244094488188976
        },
        {
          "duration": 0.40093012500000214,
          "durationTicks": 272,
          "midi": 66,
          "name": "F#4",
          "ticks": 159176,
          "time": 234.62666756250002,
          "velocity": 0.6850393700787402
        },
        {
          "duration": 0.46578646874999663,
          "durationTicks": 316,
          "midi": 62,
          "name": "D4",
          "ticks": 159358,
          "time": 234.89493698437502,
          "velocity": 0.4094488188976378
        },
        {
          "duration": 0.10612856249997549,
          "durationTicks": 72,
          "midi": 66,
          "name": "F#4",
          "ticks": 159460,
          "time": 235.04528578125004,
          "velocity": 0.4566929133858268
        },
        {
          "duration": 0.5306428125000195,
          "durationTicks": 360,
          "midi": 67,
          "name": "G4",
          "ticks": 159744,
          "time": 235.463904,
          "velocity": 0.8188976377952756
        },
        {
          "duration": 0.7104717656249875,
          "durationTicks": 482,
          "midi": 72,
          "name": "C5",
          "ticks": 159744,
          "time": 235.463904,
          "velocity": 0.6141732283464567
        },
        {
          "duration": 0.6780435937500044,
          "durationTicks": 460,
          "midi": 76,
          "name": "E5",
          "ticks": 159746,
          "time": 235.46685201562502,
          "velocity": 0.7086614173228346
        },
        {
          "duration": 0.3006975937499874,
          "durationTicks": 204,
          "midi": 64,
          "name": "E4",
          "ticks": 159936,
          "time": 235.74691350000003,
          "velocity": 0.4566929133858268
        },
        {
          "duration": 0.24468529687501928,
          "durationTicks": 166,
          "midi": 67,
          "name": "G4",
          "ticks": 160124,
          "time": 236.02402696875,
          "velocity": 0.4330708661417323
        },
        {
          "duration": 0.5306428124999911,
          "durationTicks": 360,
          "midi": 67,
          "name": "G4",
          "ticks": 160320,
          "time": 236.31293250000002,
          "velocity": 0.8740157480314961
        },
        {
          "duration": 1.3619832187500265,
          "durationTicks": 924,
          "midi": 74,
          "name": "D5",
          "ticks": 160322,
          "time": 236.315880515625,
          "velocity": 0.5039370078740157
        },
        {
          "duration": 0.5542269374999762,
          "durationTicks": 376,
          "midi": 71,
          "name": "B4",
          "ticks": 160324,
          "time": 236.31882853125003,
          "velocity": 0.8110236220472441
        },
        {
          "duration": 0.7959642187500151,
          "durationTicks": 540,
          "midi": 67,
          "name": "G4",
          "ticks": 160712,
          "time": 236.8907435625,
          "velocity": 0.6929133858267716
        },
        {
          "duration": 0.5512789218749958,
          "durationTicks": 374,
          "midi": 62,
          "name": "D4",
          "ticks": 160896,
          "time": 237.16196100000002,
          "velocity": 0.36220472440944884
        },
        {
          "duration": 0.2948015624999982,
          "durationTicks": 200,
          "midi": 71,
          "name": "B4",
          "ticks": 161092,
          "time": 237.45086653125003,
          "velocity": 0.5196850393700787
        },
        {
          "duration": 2.2699720312500062,
          "durationTicks": 1540,
          "midi": 69,
          "name": "A4",
          "ticks": 161280,
          "time": 237.72798000000003,
          "velocity": 0.905511811023622
        },
        {
          "duration": 2.196271640625014,
          "durationTicks": 1490,
          "midi": 78,
          "name": "F#5",
          "ticks": 161284,
          "time": 237.73387603125002,
          "velocity": 0.5039370078740157
        },
        {
          "duration": 2.2699720312500062,
          "durationTicks": 1540,
          "midi": 74,
          "name": "D5",
          "ticks": 161286,
          "time": 237.73682404687503,
          "velocity": 0.5511811023622047
        }
      ],
      "endOfTrackTicks": 164352
    },
    {
      "channel": 5,
      "controlChanges": {
        "1": [
          {
            "number": 1,
            "ticks": 71448,
            "time": 105.3149101875,
            "value": 0.09448818897637795
          },
          {
            "number": 1,
            "ticks": 71460,
            "time": 105.33259828125001,
            "value": 0.28346456692913385
          },
          {
            "number": 1,
            "ticks": 71468,
            "time": 105.34439034375002,
            "value": 0.5590551181102362
          },
          {
            "number": 1,
            "ticks": 71480,
            "time": 105.36207843750002,
            "value": 0.8267716535433071
          },
          {
            "number": 1,
            "ticks": 71488,
            "time": 105.37387050000001,
            "value": 1
          },
          {
            "number": 1,
            "ticks": 71580,
            "time": 105.50947921875002,
            "value": 0.8110236220472441
          },
          {
            "number": 1,
            "ticks": 71588,
            "time": 105.52127128125001,
            "value": 0.49606299212598426
          },
          {
            "number": 1,
            "ticks": 71600,
            "time": 105.53895937500002,
            "value": 0.13385826771653545
          },
          {
            "number": 1,
            "ticks": 71608,
            "time": 105.5507514375,
            "value": 0
          },
          {
            "number": 1,
            "ticks": 72256,
            "time": 106.5059085,
            "value": 0.015748031496062992
          },
          {
            "number": 1,
            "ticks": 72264,
            "time": 106.51770056250001,
            "value": 0.13385826771653545
          },
          {
            "number": 1,
            "ticks": 72276,
            "time": 106.53538865625,
            "value": 0.29133858267716534
          },
          {
            "number": 1,
            "ticks": 72284,
            "time": 106.54718071875001,
            "value": 0.4645669291338583
          },
          {
            "number": 1,
            "ticks": 72296,
            "time": 106.56486881250001,
            "value": 0.6377952755905512
          },
          {
            "number": 1,
            "ticks": 72304,
            "time": 106.576660875,
            "value": 0.8110236220472441
          },
          {
            "number": 1,
            "ticks": 72316,
            "time": 106.59434896875,
            "value": 0.984251968503937
          },
          {
            "number": 1,
            "ticks": 72324,
            "time": 106.60614103125,
            "value": 1
          },
          {
            "number": 1,
            "ticks": 72384,
            "time": 106.69458150000001,
            "value": 0.968503937007874
          },
          {
            "number": 1,
            "ticks": 72396,
            "time": 106.71226959375001,
            "value": 0.7480314960629921
          },
          {
            "number": 1,
            "ticks": 72404,
            "time": 106.72406165625002,
            "value": 0.4409448818897638
          },
          {
            "number": 1,
            "ticks": 72416,
            "time": 106.74174975000001,
            "value": 0.08661417322834646
          },
          {
            "number": 1,
            "ticks": 72424,
            "time": 106.7535418125,
            "value": 0
          },
          {
            "number": 1,
            "ticks": 72842,
            "time": 107.36967707812501,
            "value": 0.007874015748031496
          },
          {
            "number": 1,
            "ticks": 72858,
            "time": 107.39326120312501,
            "value": 0.015748031496062992
          },
          {
            "number": 1,
            "ticks": 72862,
            "time": 107.39915723437501,
            "value": 0.023622047244094488
          },
          {
            "number": 1,
            "ticks": 72866,
            "time": 107.40505326562501,
            "value": 0.031496062992125984
          },
          {
            "number": 1,
            "ticks": 72870,
            "time": 107.410949296875,
            "value": 0.047244094488188976
          },
          {
            "number": 1,
            "ticks": 72872,
            "time": 107.41389731250001,
            "value": 0.06299212598425197
          },
          {
            "number": 1,
            "ticks": 72880,
            "time": 107.425689375,
            "value": 0.09448818897637795
          },
          {
            "number": 1,
            "ticks": 72884,
            "time": 107.43158540625001,
            "value": 0.11023622047244094
          },
          {
            "number": 1,
            "ticks": 72888,
            "time": 107.43748143750001,
            "value": 0.12598425196850394
          },
          {
            "number": 1,
            "ticks": 72890,
            "time": 107.44042945312502,
            "value": 0.14173228346456693
          },
          {
            "number": 1,
            "ticks": 72894,
            "time": 107.44632548437501,
            "value": 0.15748031496062992
          },
          {
            "number": 1,
            "ticks": 72900,
            "time": 107.45516953125001,
            "value": 0.1732283464566929
          },
          {
            "number": 1,
            "ticks": 72902,
            "time": 107.45811754687502,
            "value": 0.1968503937007874
          },
          {
            "number": 1,
            "ticks": 72904,
            "time": 107.46106556250001,
            "value": 0.2125984251968504
          },
          {
            "number": 1,
            "ticks": 72910,
            "time": 107.46990960937501,
            "value": 0.2283464566929134
          },
          {
            "number": 1,
            "ticks": 72914,
            "time": 107.47580564062501,
            "value": 0.25196850393700787
          },
          {
            "number": 1,
            "ticks": 72916,
            "time": 107.47875365625,
            "value": 0.2677165354330709
          },
          {
            "number": 1,
            "ticks": 72920,
            "time": 107.48464968750001,
            "value": 0.29133858267716534
          },
          {
            "number": 1,
            "ticks": 72926,
            "time": 107.49349373437501,
            "value": 0.30708661417322836
          },
          {
            "number": 1,
            "ticks": 72930,
            "time": 107.49938976562501,
            "value": 0.33858267716535434
          },
          {
            "number": 1,
            "ticks": 72934,
            "time": 107.505285796875,
            "value": 0.3464566929133858
          },
          {
            "number": 1,
            "ticks": 72938,
            "time": 107.51118182812502,
            "value": 0.36220472440944884
          },
          {
            "number": 1,
            "ticks": 72946,
            "time": 107.52297389062501,
            "value": 0.3937007874015748
          },
          {
            "number": 1,
            "ticks": 72952,
            "time": 107.53181793750001,
            "value": 0.4094488188976378
          },
          {
            "number": 1,
            "ticks": 72954,
            "time": 107.534765953125,
            "value": 0.4330708661417323
          },
          {
            "number": 1,
            "ticks": 72956,
            "time": 107.53771396875001,
            "value": 0.44881889763779526
          },
          {
            "number": 1,
            "ticks": 72960,
            "time": 107.54361000000002,
            "value": 0.4566929133858268
          },
          {
            "number": 1,
            "ticks": 72964,
            "time": 107.54950603125,
            "value": 0.4645669291338583
          },
          {
            "number": 1,
            "ticks": 72968,
            "time": 107.55540206250001,
            "value": 0.48031496062992124
          },
          {
            "number": 1,
            "ticks": 72974,
            "time": 107.56424610937502,
            "value": 0.5118110236220472
          },
          {
            "number": 1,
            "ticks": 72980,
            "time": 107.57309015625002,
            "value": 0.5196850393700787
          },
          {
            "number": 1,
            "ticks": 72982,
            "time": 107.576038171875,
            "value": 0.5354330708661418
          },
          {
            "number": 1,
            "ticks": 72990,
            "time": 107.587830234375,
            "value": 0.5590551181102362
          },
          {
            "number": 1,
            "ticks": 72996,
            "time": 107.59667428125,
            "value": 0.5748031496062992
          },
          {
            "number": 1,
            "ticks": 72998,
            "time": 107.59962229687501,
            "value": 0.5826771653543307
          },
          {
            "number": 1,
            "ticks": 73004,
            "time": 107.60846634375001,
            "value": 0.6141732283464567
          },
          {
            "number": 1,
            "ticks": 73010,
            "time": 107.61731039062502,
            "value": 0.6220472440944882
          },
          {
            "number": 1,
            "ticks": 73012,
            "time": 107.62025840625,
            "value": 0.6299212598425197
          },
          {
            "number": 1,
            "ticks": 73018,
            "time": 107.629102453125,
            "value": 0.6535433070866141
          },
          {
            "number": 1,
            "ticks": 73022,
            "time": 107.63499848437502,
            "value": 0.6614173228346457
          },
          {
            "number": 1,
            "ticks": 73026,
            "time": 107.640894515625,
            "value": 0.6692913385826772
          },
          {
            "number": 1,
            "ticks": 73030,
            "time": 107.64679054687501,
            "value": 0.6771653543307087
          },
          {
            "number": 1,
            "ticks": 73036,
            "time": 107.65563459375001,
            "value": 0.6850393700787402
          },
          {
            "number": 1,
            "ticks": 73044,
            "time": 107.66742665625002,
            "value": 0.6929133858267716
          },
          {
            "number": 1,
            "ticks": 73048,
            "time": 107.6733226875,
            "value": 0.7007874015748031
          },
          {
            "number": 1,
            "ticks": 73076,
            "time": 107.71459490625001,
            "value": 0.6929133858267716
          },
          {
            "number": 1,
            "ticks": 73084,
            "time": 107.72638696875,
            "value": 0.6850393700787402
          },
          {
            "number": 1,
            "ticks": 73088,
            "time": 107.73228300000001,
            "value": 0.6771653543307087
          },
          {
            "number": 1,
            "ticks": 73092,
            "time": 107.73817903125001,
            "value": 0.6614173228346457
          },
          {
            "number": 1,
            "ticks": 73096,
            "time": 107.7440750625,
            "value": 0.6535433070866141
          },
          {
            "number": 1,
            "ticks": 73100,
            "time": 107.74997109375002,
            "value": 0.6456692913385826
          },
          {
            "number": 1,
            "ticks": 73104,
            "time": 107.75586712500001,
            "value": 0.6299212598425197
          },
          {
            "number": 1,
            "ticks": 73108,
            "time": 107.76176315625,
            "value": 0.6062992125984252
          },
          {
            "number": 1,
            "ticks": 73110,
            "time": 107.764711171875,
            "value": 0.5905511811023622
          },
          {
            "number": 1,
            "ticks": 73114,
            "time": 107.77060720312501,
            "value": 0.5748031496062992
          },
          {
            "number": 1,
            "ticks": 73118,
            "time": 107.77650323437501,
            "value": 0.5511811023622047
          },
          {
            "number": 1,
            "ticks": 73122,
            "time": 107.782399265625,
            "value": 0.5275590551181102
          },
          {
            "number": 1,
            "ticks": 73126,
            "time": 107.788295296875,
            "value": 0.5039370078740157
          },
          {
            "number": 1,
            "ticks": 73130,
            "time": 107.79419132812501,
            "value": 0.48031496062992124
          },
          {
            "number": 1,
            "ticks": 73134,
            "time": 107.80008735937501,
            "value": 0.44881889763779526
          },
          {
            "number": 1,
            "ticks": 73138,
            "time": 107.805983390625,
            "value": 0.41732283464566927
          },
          {
            "number": 1,
            "ticks": 73140,
            "time": 107.80893140625001,
            "value": 0.3858267716535433
          },
          {
            "number": 1,
            "ticks": 73146,
            "time": 107.81777545312501,
            "value": 0.3543307086614173
          },
          {
            "number": 1,
            "ticks": 73150,
            "time": 107.823671484375,
            "value": 0.31496062992125984
          },
          {
            "number": 1,
            "ticks": 73154,
            "time": 107.82956751562502,
            "value": 0.2677165354330709
          },
          {
            "number": 1,
            "ticks": 73158,
            "time": 107.835463546875,
            "value": 0.2283464566929134
          },
          {
            "number": 1,
            "ticks": 73162,
            "time": 107.84135957812501,
            "value": 0.1889763779527559
          },
          {
            "number": 1,
            "ticks": 73166,
            "time": 107.84725560937501,
            "value": 0.14960629921259844
          },
          {
            "number": 1,
            "ticks": 73170,
            "time": 107.85315164062501,
            "value": 0.09448818897637795
          },
          {
            "number": 1,
            "ticks": 73174,
            "time": 107.859047671875,
            "value": 0.05511811023622047
          },
          {
            "number": 1,
            "ticks": 73178,
            "time": 107.86494370312502,
            "value": 0.007874015748031496
          },
          {
            "number": 1,
            "ticks": 73182,
            "time": 107.87083973437501,
            "value": 0
          },
          {
            "number": 1,
            "ticks": 73528,
            "time": 108.3808464375,
            "value": 0.015748031496062992
          },
          {
            "number": 1,
            "ticks": 73540,
            "time": 108.39853453125001,
            "value": 0.12598425196850394
          },
          {
            "number": 1,
            "ticks": 73548,
            "time": 108.41032659375001,
            "value": 0.1889763779527559
          },
          {
            "number": 1,
            "ticks": 73556,
            "time": 108.42211865625002,
            "value": 0.2677165354330709
          },
          {
            "number": 1,
            "ticks": 73568,
            "time": 108.43980675000002,
            "value": 0.3858267716535433
          },
          {
            "number": 1,
            "ticks": 73576,
            "time": 108.45159881250001,
            "value": 0.5196850393700787
          },
          {
            "number": 1,
            "ticks": 73588,
            "time": 108.46928690625,
            "value": 0.6614173228346457
          },
          {
            "number": 1,
            "ticks": 73596,
            "time": 108.48107896875001,
            "value": 0.8346456692913385
          },
          {
            "number": 1,
            "ticks": 73608,
            "time": 108.49876706250001,
            "value": 1
          },
          {
            "number": 1,
            "ticks": 73708,
            "time": 108.64616784375,
            "value": 0.8346456692913385
          },
          {
            "number": 1,
            "ticks": 73716,
            "time": 108.65795990625001,
            "value": 0.49606299212598426
          },
          {
            "number": 1,
            "ticks": 73728,
            "time": 108.67564800000001,
            "value": 0.12598425196850394
          },
          {
            "number": 1,
            "ticks": 73736,
            "time": 108.68744006250002,
            "value": 0
          },
          {
            "number": 1,
            "ticks": 74344,
            "time": 109.5836368125,
            "value": 0.007874015748031496
          },
          {
            "number": 1,
            "ticks": 74366,
            "time": 109.61606498437502,
            "value": 0.023622047244094488
          },
          {
            "number": 1,
            "ticks": 74370,
            "time": 109.621961015625,
            "value": 0.03937007874015748
          },
          {
            "number": 1,
            "ticks": 74378,
            "time": 109.63375307812501,
            "value": 0.06299212598425197
          },
          {
            "number": 1,
            "ticks": 74382,
            "time": 109.63964910937501,
            "value": 0.07086614173228346
          },
          {
            "number": 1,
            "ticks": 74388,
            "time": 109.64849315625001,
            "value": 0.07874015748031496
          },
          {
            "number": 1,
            "ticks": 74392,
            "time": 109.6543891875,
            "value": 0.10236220472440945
          },
          {
            "number": 1,
            "ticks": 74396,
            "time": 109.66028521875002,
            "value": 0.11811023622047244
          },
          {
            "number": 1,
            "ticks": 74400,
            "time": 109.66618125000001,
            "value": 0.13385826771653545
          },
          {
            "number": 1,
            "ticks": 74402,
            "time": 109.66912926562502,
            "value": 0.14173228346456693
          },
          {
            "number": 1,
            "ticks": 74408,
            "time": 109.67797331250001,
            "value": 0.15748031496062992
          },
          {
            "number": 1,
            "ticks": 74412,
            "time": 109.68386934375,
            "value": 0.16535433070866143
          },
          {
            "number": 1,
            "ticks": 74414,
            "time": 109.68681735937501,
            "value": 0.18110236220472442
          },
          {
            "number": 1,
            "ticks": 74420,
            "time": 109.69566140625001,
            "value": 0.1968503937007874
          },
          {
            "number": 1,
            "ticks": 74422,
            "time": 109.698609421875,
            "value": 0.2047244094488189
          },
          {
            "number": 1,
            "ticks": 74426,
            "time": 109.70450545312501,
            "value": 0.2204724409448819
          },
          {
            "number": 1,
            "ticks": 74430,
            "time": 109.71040148437501,
            "value": 0.23622047244094488
          },
          {
            "number": 1,
            "ticks": 74432,
            "time": 109.71334950000002,
            "value": 0.2440944881889764
          },
          {
            "number": 1,
            "ticks": 74436,
            "time": 109.71924553125001,
            "value": 0.25984251968503935
          },
          {
            "number": 1,
            "ticks": 74442,
            "time": 109.72808957812501,
            "value": 0.2755905511811024
          },
          {
            "number": 1,
            "ticks": 74444,
            "time": 109.73103759375002,
            "value": 0.29133858267716534
          },
          {
            "number": 1,
            "ticks": 74450,
            "time": 109.73988164062501,
            "value": 0.30708661417322836
          },
          {
            "number": 1,
            "ticks": 74452,
            "time": 109.74282965625001,
            "value": 0.3228346456692913
          },
          {
            "number": 1,
            "ticks": 74456,
            "time": 109.74872568750001,
            "value": 0.33070866141732286
          },
          {
            "number": 1,
            "ticks": 74458,
            "time": 109.75167370312501,
            "value": 0.33858267716535434
          },
          {
            "number": 1,
            "ticks": 74462,
            "time": 109.75756973437501,
            "value": 0.3543307086614173
          },
          {
            "number": 1,
            "ticks": 74466,
            "time": 109.76346576562501,
            "value": 0.3700787401574803
          },
          {
            "number": 1,
            "ticks": 74470,
            "time": 109.769361796875,
            "value": 0.3779527559055118
          },
          {
            "number": 1,
            "ticks": 74474,
            "time": 109.77525782812502,
            "value": 0.3937007874015748
          },
          {
            "number": 1,
            "ticks": 74480,
            "time": 109.78410187500002,
            "value": 0.4251968503937008
          },
          {
            "number": 1,
            "ticks": 74484,
            "time": 109.78999790625001,
            "value": 0.4409448818897638
          },
          {
            "number": 1,
            "ticks": 74488,
            "time": 109.79589393750001,
            "value": 0.4566929133858268
          },
          {
            "number": 1,
            "ticks": 74494,
            "time": 109.80473798437501,
            "value": 0.48031496062992124
          },
          {
            "number": 1,
            "ticks": 74498,
            "time": 109.81063401562501,
            "value": 0.4881889763779528
          },
          {
            "number": 1,
            "ticks": 74502,
            "time": 109.81653004687502,
            "value": 0.5039370078740157
          },
          {
            "number": 1,
            "ticks": 74506,
            "time": 109.822426078125,
            "value": 0.5196850393700787
          },
          {
            "number": 1,
            "ticks": 74510,
            "time": 109.82832210937501,
            "value": 0.5275590551181102
          },
          {
            "number": 1,
            "ticks": 74514,
            "time": 109.83421814062501,
            "value": 0.5433070866141733
          },
          {
            "number": 1,
            "ticks": 74518,
            "time": 109.840114171875,
            "value": 0.5590551181102362
          },
          {
            "number": 1,
            "ticks": 74524,
            "time": 109.84895821875,
            "value": 0.5748031496062992
          },
          {
            "number": 1,
            "ticks": 74530,
            "time": 109.85780226562501,
            "value": 0.5826771653543307
          },
          {
            "number": 1,
            "ticks": 74532,
            "time": 109.86075028125,
            "value": 0.5984251968503937
          },
          {
            "number": 1,
            "ticks": 74536,
            "time": 109.86664631250001,
            "value": 0.6062992125984252
          },
          {
            "number": 1,
            "ticks": 74540,
            "time": 109.87254234375001,
            "value": 0.6141732283464567
          },
          {
            "number": 1,
            "ticks": 74544,
            "time": 109.87843837500002,
            "value": 0.6220472440944882
          },
          {
            "number": 1,
            "ticks": 74546,
            "time": 109.88138639062501,
            "value": 0.6299212598425197
          },
          {
            "number": 1,
            "ticks": 74554,
            "time": 109.893178453125,
            "value": 0.6377952755905512
          },
          {
            "number": 1,
            "ticks": 74560,
            "time": 109.9020225,
            "value": 0.6456692913385826
          },
          {
            "number": 1,
            "ticks": 74590,
            "time": 109.946242734375,
            "value": 0.6377952755905512
          },
          {
            "number": 1,
            "ticks": 74596,
            "time": 109.95508678125,
            "value": 0.6299212598425197
          },
          {
            "number": 1,
            "ticks": 74600,
            "time": 109.96098281250002,
            "value": 0.6220472440944882
          },
          {
            "number": 1,
            "ticks": 74604,
            "time": 109.96687884375001,
            "value": 0.6141732283464567
          },
          {
            "number": 1,
            "ticks": 74608,
            "time": 109.972774875,
            "value": 0.5984251968503937
          },
          {
            "number": 1,
            "ticks": 74612,
            "time": 109.97867090625002,
            "value": 0.5905511811023622
          },
          {
            "number": 1,
            "ticks": 74616,
            "time": 109.9845669375,
            "value": 0.5748031496062992
          },
          {
            "number": 1,
            "ticks": 74620,
            "time": 109.99046296875001,
            "value": 0.5669291338582677
          },
          {
            "number": 1,
            "ticks": 74624,
            "time": 109.99635900000001,
            "value": 0.5511811023622047
          },
          {
            "number": 1,
            "ticks": 74628,
            "time": 110.00225503125002,
            "value": 0.5275590551181102
          },
          {
            "number": 1,
            "ticks": 74630,
            "time": 110.00520304687501,
            "value": 0.5118110236220472
          },
          {
            "number": 1,
            "ticks": 74636,
            "time": 110.01404709375001,
            "value": 0.49606299212598426
          },
          {
            "number": 1,
            "ticks": 74638,
            "time": 110.016995109375,
            "value": 0.47244094488188976
          },
          {
            "number": 1,
            "ticks": 74642,
            "time": 110.02289114062502,
            "value": 0.44881889763779526
          },
          {
            "number": 1,
            "ticks": 74646,
            "time": 110.02878717187501,
            "value": 0.4251968503937008
          },
          {
            "number": 1,
            "ticks": 74650,
            "time": 110.034683203125,
            "value": 0.4094488188976378
          },
          {
            "number": 1,
            "ticks": 74654,
            "time": 110.04057923437502,
            "value": 0.3858267716535433
          },
          {
            "number": 1,
            "ticks": 74658,
            "time": 110.046475265625,
            "value": 0.36220472440944884
          },
          {
            "number": 1,
            "ticks": 74662,
            "time": 110.05237129687501,
            "value": 0.33858267716535434
          },
          {
            "number": 1,
            "ticks": 74666,
            "time": 110.05826732812501,
            "value": 0.31496062992125984
          },
          {
            "number": 1,
            "ticks": 74668,
            "time": 110.06121534375,
            "value": 0.2992125984251969
          },
          {
            "number": 1,
            "ticks": 74674,
            "time": 110.070059390625,
            "value": 0.2755905511811024
          },
          {
            "number": 1,
            "ticks": 74678,
            "time": 110.07595542187501,
            "value": 0.25196850393700787
          },
          {
            "number": 1,
            "ticks": 74682,
            "time": 110.08185145312501,
            "value": 0.2283464566929134
          },
          {
            "number": 1,
            "ticks": 74686,
            "time": 110.087747484375,
            "value": 0.2125984251968504
          },
          {
            "number": 1,
            "ticks": 74690,
            "time": 110.09364351562502,
            "value": 0.1968503937007874
          },
          {
            "number": 1,
            "ticks": 74694,
            "time": 110.09953954687501,
            "value": 0.1732283464566929
          },
          {
            "number": 1,
            "ticks": 74698,
            "time": 110.10543557812501,
            "value": 0.15748031496062992
          },
          {
            "number": 1,
            "ticks": 74702,
            "time": 110.11133160937501,
            "value": 0.14173228346456693
          },
          {
            "number": 1,
            "ticks": 74706,
            "time": 110.117227640625,
            "value": 0.11811023622047244
          },
          {
            "number": 1,
            "ticks": 74708,
            "time": 110.12017565625001,
            "value": 0.10236220472440945
          },
          {
            "number": 1,
            "ticks": 74712,
            "time": 110.12607168750002,
            "value": 0.08661417322834646
          },
          {
            "number": 1,
            "ticks": 74718,
            "time": 110.13491573437501,
            "value": 0.06299212598425197
          },
          {
            "number": 1,
            "ticks": 74720,
            "time": 110.13786375000001,
            "value": 0.047244094488188976
          },
          {
            "number": 1,
            "ticks": 74724,
            "time": 110.14375978125001,
            "value": 0.015748031496062992
          },
          {
            "number": 1,
            "ticks": 74728,
            "time": 110.1496558125,
            "value": 0.007874015748031496
          },
          {
            "number": 1,
            "ticks": 74750,
            "time": 110.18208398437501,
            "value": 0
          },
          {
            "number": 1,
            "ticks": 75062,
            "time": 110.64197442187502,
            "value": 0.007874015748031496
          },
          {
            "number": 1,
            "ticks": 75084,
            "time": 110.67440259375,
            "value": 0.015748031496062992
          },
          {
            "number": 1,
            "ticks": 75088,
            "time": 110.680298625,
            "value": 0.023622047244094488
          },
          {
            "number": 1,
            "ticks": 75092,
            "time": 110.68619465625001,
            "value": 0.03937007874015748
          },
          {
            "number": 1,
            "ticks": 75096,
            "time": 110.69209068750001,
            "value": 0.05511811023622047
          },
          {
            "number": 1,
            "ticks": 75100,
            "time": 110.69798671875,
            "value": 0.06299212598425197
          },
          {
            "number": 1,
            "ticks": 75104,
            "time": 110.70388275000002,
            "value": 0.07874015748031496
          },
          {
            "number": 1,
            "ticks": 75108,
            "time": 110.70977878125001,
            "value": 0.08661417322834646
          },
          {
            "number": 1,
            "ticks": 75112,
            "time": 110.7156748125,
            "value": 0.10236220472440945
          },
          {
            "number": 1,
            "ticks": 75116,
            "time": 110.72157084375002,
            "value": 0.11023622047244094
          },
          {
            "number": 1,
            "ticks": 75120,
            "time": 110.727466875,
            "value": 0.12598425196850394
          },
          {
            "number": 1,
            "ticks": 75124,
            "time": 110.73336290625001,
            "value": 0.13385826771653545
          },
          {
            "number": 1,
            "ticks": 75128,
            "time": 110.73925893750001,
            "value": 0.14173228346456693
          },
          {
            "number": 1,
            "ticks": 75130,
            "time": 110.742206953125,
            "value": 0.14960629921259844
          },
          {
            "number": 1,
            "ticks": 75134,
            "time": 110.74810298437501,
            "value": 0.15748031496062992
          },
          {
            "number": 1,
            "ticks": 75138,
            "time": 110.75399901562501,
            "value": 0.16535433070866143
          },
          {
            "number": 1,
            "ticks": 75142,
            "time": 110.759895046875,
            "value": 0.1732283464566929
          },
          {
            "number": 1,
            "ticks": 75144,
            "time": 110.76284306250001,
            "value": 0.1889763779527559
          },
          {
            "number": 1,
            "ticks": 75152,
            "time": 110.77463512500002,
            "value": 0.1968503937007874
          },
          {
            "number": 1,
            "ticks": 75154,
            "time": 110.777583140625,
            "value": 0.2047244094488189
          },
          {
            "number": 1,
            "ticks": 75158,
            "time": 110.78347917187502,
            "value": 0.2204724409448819
          },
          {
            "number": 1,
            "ticks": 75162,
            "time": 110.789375203125,
            "value": 0.2283464566929134
          },
          {
            "number": 1,
            "ticks": 75170,
            "time": 110.80116726562501,
            "value": 0.23622047244094488
          },
          {
            "number": 1,
            "ticks": 75174,
            "time": 110.80706329687501,
            "value": 0.2440944881889764
          },
          {
            "number": 1,
            "ticks": 75178,
            "time": 110.812959328125,
            "value": 0.25984251968503935
          },
          {
            "number": 1,
            "ticks": 75182,
            "time": 110.81885535937502,
            "value": 0.2677165354330709
          },
          {
            "number": 1,
            "ticks": 75186,
            "time": 110.82475139062501,
            "value": 0.2755905511811024
          },
          {
            "number": 1,
            "ticks": 75190,
            "time": 110.830647421875,
            "value": 0.28346456692913385
          },
          {
            "number": 1,
            "ticks": 75194,
            "time": 110.83654345312502,
            "value": 0.2992125984251969
          },
          {
            "number": 1,
            "ticks": 75198,
            "time": 110.842439484375,
            "value": 0.30708661417322836
          },
          {
            "number": 1,
            "ticks": 75202,
            "time": 110.84833551562501,
            "value": 0.31496062992125984
          },
          {
            "number": 1,
            "ticks": 75204,
            "time": 110.85128353125,
            "value": 0.3228346456692913
          },
          {
            "number": 1,
            "ticks": 75210,
            "time": 110.86012757812502,
            "value": 0.33070866141732286
          },
          {
            "number": 1,
            "ticks": 75212,
            "time": 110.86307559375001,
            "value": 0.33858267716535434
          },
          {
            "number": 1,
            "ticks": 75218,
            "time": 110.87191964062501,
            "value": 0.3464566929133858
          },
          {
            "number": 1,
            "ticks": 75220,
            "time": 110.87486765625,
            "value": 0.36220472440944884
          },
          {
            "number": 1,
            "ticks": 75224,
            "time": 110.88076368750002,
            "value": 0.3700787401574803
          },
          {
            "number": 1,
            "ticks": 75230,
            "time": 110.88960773437502,
            "value": 0.3779527559055118
          },
          {
            "number": 1,
            "ticks": 75234,
            "time": 110.89550376562501,
            "value": 0.3858267716535433
          },
          {
            "number": 1,
            "ticks": 75236,
            "time": 110.89845178125002,
            "value": 0.3937007874015748
          },
          {
            "number": 1,
            "ticks": 75240,
            "time": 110.9043478125,
            "value": 0.4094488188976378
          },
          {
            "number": 1,
            "ticks": 75244,
            "time": 110.91024384375001,
            "value": 0.4251968503937008
          },
          {
            "number": 1,
            "ticks": 75248,
            "time": 110.91613987500001,
            "value": 0.4330708661417323
          },
          {
            "number": 1,
            "ticks": 75252,
            "time": 110.92203590625002,
            "value": 0.44881889763779526
          },
          {
            "number": 1,
            "ticks": 75256,
            "time": 110.9279319375,
            "value": 0.4566929133858268
          },
          {
            "number": 1,
            "ticks": 75260,
            "time": 110.93382796875001,
            "value": 0.4645669291338583
          },
          {
            "number": 1,
            "ticks": 75266,
            "time": 110.94267201562502,
            "value": 0.47244094488188976
          },
          {
            "number": 1,
            "ticks": 75268,
            "time": 110.94562003125,
            "value": 0.48031496062992124
          },
          {
            "number": 1,
            "ticks": 75272,
            "time": 110.95151606250002,
            "value": 0.49606299212598426
          },
          {
            "number": 1,
            "ticks": 75276,
            "time": 110.95741209375001,
            "value": 0.5039370078740157
          },
          {
            "number": 1,
            "ticks": 75280,
            "time": 110.963308125,
            "value": 0.5118110236220472
          },
          {
            "number": 1,
            "ticks": 75284,
            "time": 110.96920415625002,
            "value": 0.5196850393700787
          },
          {
            "number": 1,
            "ticks": 75288,
            "time": 110.9751001875,
            "value": 0.5354330708661418
          },
          {
            "number": 1,
            "ticks": 75290,
            "time": 110.97804820312501,
            "value": 0.5433070866141733
          },
          {
            "number": 1,
            "ticks": 75294,
            "time": 110.98394423437502,
            "value": 0.5511811023622047
          },
          {
            "number": 1,
            "ticks": 75298,
            "time": 110.989840265625,
            "value": 0.5590551181102362
          },
          {
            "number": 1,
            "ticks": 75304,
            "time": 110.9986843125,
            "value": 0.5669291338582677
          },
          {
            "number": 1,
            "ticks": 75306,
            "time": 111.00163232812501,
            "value": 0.5748031496062992
          },
          {
            "number": 1,
            "ticks": 75310,
            "time": 111.007528359375,
            "value": 0.5826771653543307
          },
          {
            "number": 1,
            "ticks": 75314,
            "time": 111.01342439062502,
            "value": 0.5905511811023622
          },
          {
            "number": 1,
            "ticks": 75322,
            "time": 111.025216453125,
            "value": 0.6062992125984252
          },
          {
            "number": 1,
            "ticks": 75328,
            "time": 111.03406050000001,
            "value": 0.6141732283464567
          },
          {
            "number": 1,
            "ticks": 75332,
            "time": 111.03995653125001,
            "value": 0.6220472440944882
          },
          {
            "number": 1,
            "ticks": 75362,
            "time": 111.08417676562502,
            "value": 0.6141732283464567
          },
          {
            "number": 1,
            "ticks": 75370,
            "time": 111.09596882812501,
            "value": 0.5984251968503937
          },
          {
            "number": 1,
            "ticks": 75376,
            "time": 111.10481287500001,
            "value": 0.5905511811023622
          },
          {
            "number": 1,
            "ticks": 75380,
            "time": 111.11070890625001,
            "value": 0.5826771653543307
          },
          {
            "number": 1,
            "ticks": 75386,
            "time": 111.11955295312501,
            "value": 0.5669291338582677
          },
          {
            "number": 1,
            "ticks": 75390,
            "time": 111.12544898437501,
            "value": 0.5590551181102362
          },
          {
            "number": 1,
            "ticks": 75394,
            "time": 111.131345015625,
            "value": 0.5511811023622047
          },
          {
            "number": 1,
            "ticks": 75398,
            "time": 111.13724104687502,
            "value": 0.5354330708661418
          },
          {
            "number": 1,
            "ticks": 75400,
            "time": 111.1401890625,
            "value": 0.5196850393700787
          },
          {
            "number": 1,
            "ticks": 75406,
            "time": 111.14903310937501,
            "value": 0.5118110236220472
          },
          {
            "number": 1,
            "ticks": 75408,
            "time": 111.151981125,
            "value": 0.49606299212598426
          },
          {
            "number": 1,
            "ticks": 75412,
            "time": 111.15787715625001,
            "value": 0.48031496062992124
          },
          {
            "number": 1,
            "ticks": 75416,
            "time": 111.16377318750001,
            "value": 0.47244094488188976
          },
          {
            "number": 1,
            "ticks": 75420,
            "time": 111.16966921875002,
            "value": 0.4566929133858268
          },
          {
            "number": 1,
            "ticks": 75426,
            "time": 111.17851326562501,
            "value": 0.4251968503937008
          },
          {
            "number": 1,
            "ticks": 75430,
            "time": 111.184409296875,
            "value": 0.4015748031496063
          },
          {
            "number": 1,
            "ticks": 75434,
            "time": 111.19030532812502,
            "value": 0.3858267716535433
          },
          {
            "number": 1,
            "ticks": 75442,
            "time": 111.202097390625,
            "value": 0.3543307086614173
          },
          {
            "number": 1,
            "ticks": 75446,
            "time": 111.20799342187502,
            "value": 0.33858267716535434
          },
          {
            "number": 1,
            "ticks": 75450,
            "time": 111.213889453125,
            "value": 0.3228346456692913
          },
          {
            "number": 1,
            "ticks": 75456,
            "time": 111.2227335,
            "value": 0.28346456692913385
          },
          {
            "number": 1,
            "ticks": 75460,
            "time": 111.22862953125001,
            "value": 0.2677165354330709
          },
          {
            "number": 1,
            "ticks": 75464,
            "time": 111.23452556250001,
            "value": 0.25196850393700787
          },
          {
            "number": 1,
            "ticks": 75468,
            "time": 111.24042159375001,
            "value": 0.23622047244094488
          },
          {
            "number": 1,
            "ticks": 75472,
            "time": 111.246317625,
            "value": 0.2125984251968504
          },
          {
            "number": 1,
            "ticks": 75478,
            "time": 111.255161671875,
            "value": 0.18110236220472442
          },
          {
            "number": 1,
            "ticks": 75486,
            "time": 111.26695373437501,
            "value": 0.14173228346456693
          },
          {
            "number": 1,
            "ticks": 75490,
            "time": 111.27284976562501,
            "value": 0.12598425196850394
          },
          {
            "number": 1,
            "ticks": 75496,
            "time": 111.28169381250001,
            "value": 0.11023622047244094
          },
          {
            "number": 1,
            "ticks": 75500,
            "time": 111.28758984375001,
            "value": 0.07086614173228346
          },
          {
            "number": 1,
            "ticks": 75506,
            "time": 111.29643389062501,
            "value": 0.05511811023622047
          },
          {
            "number": 1,
            "ticks": 75508,
            "time": 111.29938190625,
            "value": 0.03937007874015748
          },
          {
            "number": 1,
            "ticks": 75512,
            "time": 111.30527793750001,
            "value": 0.007874015748031496
          },
          {
            "number": 1,
            "ticks": 75534,
            "time": 111.337706109375,
            "value": 0
          },
          {
            "number": 1,
            "ticks": 77592,
            "time": 114.37121418750002,
            "value": 0.09448818897637795
          },
          {
            "number": 1,
            "ticks": 77604,
            "time": 114.38890228125001,
            "value": 0.28346456692913385
          },
          {
            "number": 1,
            "ticks": 77612,
            "time": 114.40069434375002,
            "value": 0.5590551181102362
          },
          {
            "number": 1,
            "ticks": 77624,
            "time": 114.41838243750001,
            "value": 0.8267716535433071
          },
          {
            "number": 1,
            "ticks": 77632,
            "time": 114.4301745,
            "value": 1
          },
          {
            "number": 1,
            "ticks": 77724,
            "time": 114.56578321875001,
            "value": 0.8110236220472441
          },
          {
            "number": 1,
            "ticks": 77732,
            "time": 114.57757528125002,
            "value": 0.49606299212598426
          },
          {
            "number": 1,
            "ticks": 77744,
            "time": 114.59526337500002,
            "value": 0.13385826771653545
          },
          {
            "number": 1,
            "ticks": 77752,
            "time": 114.60705543750001,
            "value": 0
          },
          {
            "number": 1,
            "ticks": 78400,
            "time": 115.5622125,
            "value": 0.015748031496062992
          },
          {
            "number": 1,
            "ticks": 78408,
            "time": 115.57400456250001,
            "value": 0.13385826771653545
          },
          {
            "number": 1,
            "ticks": 78420,
            "time": 115.59169265625,
            "value": 0.29133858267716534
          },
          {
            "number": 1,
            "ticks": 78428,
            "time": 115.60348471875001,
            "value": 0.4645669291338583
          },
          {
            "number": 1,
            "ticks": 78440,
            "time": 115.62117281250002,
            "value": 0.6377952755905512
          },
          {
            "number": 1,
            "ticks": 78448,
            "time": 115.632964875,
            "value": 0.8110236220472441
          },
          {
            "number": 1,
            "ticks": 78460,
            "time": 115.65065296875001,
            "value": 0.984251968503937
          },
          {
            "number": 1,
            "ticks": 78468,
            "time": 115.66244503125002,
            "value": 1
          },
          {
            "number": 1,
            "ticks": 78528,
            "time": 115.75088550000001,
            "value": 0.968503937007874
          },
          {
            "number": 1,
            "ticks": 78540,
            "time": 115.76857359375,
            "value": 0.7480314960629921
          },
          {
            "number": 1,
            "ticks": 78548,
            "time": 115.78036565625001,
            "value": 0.4409448818897638
          },
          {
            "number": 1,
            "ticks": 78560,
            "time": 115.79805375000002,
            "value": 0.08661417322834646
          },
          {
            "number": 1,
            "ticks": 78568,
            "time": 115.8098458125,
            "value": 0
          },
          {
            "number": 1,
            "ticks": 78980,
            "time": 116.41713703125002,
            "value": 0.007874015748031496
          },
          {
            "number": 1,
            "ticks": 79008,
            "time": 116.45840925000002,
            "value": 0.015748031496062992
          },
          {
            "number": 1,
            "ticks": 79016,
            "time": 116.47020131250001,
            "value": 0.023622047244094488
          },
          {
            "number": 1,
            "ticks": 79018,
            "time": 116.473149328125,
            "value": 0.031496062992125984
          },
          {
            "number": 1,
            "ticks": 79024,
            "time": 116.481993375,
            "value": 0.03937007874015748
          },
          {
            "number": 1,
            "ticks": 79026,
            "time": 116.48494139062501,
            "value": 0.05511811023622047
          },
          {
            "number": 1,
            "ticks": 79030,
            "time": 116.490837421875,
            "value": 0.06299212598425197
          },
          {
            "number": 1,
            "ticks": 79034,
            "time": 116.49673345312502,
            "value": 0.07874015748031496
          },
          {
            "number": 1,
            "ticks": 79040,
            "time": 116.50557750000002,
            "value": 0.08661417322834646
          },
          {
            "number": 1,
            "ticks": 79042,
            "time": 116.50852551562501,
            "value": 0.09448818897637795
          },
          {
            "number": 1,
            "ticks": 79046,
            "time": 116.51442154687501,
            "value": 0.11023622047244094
          },
          {
            "number": 1,
            "ticks": 79050,
            "time": 116.52031757812502,
            "value": 0.12598425196850394
          },
          {
            "number": 1,
            "ticks": 79054,
            "time": 116.526213609375,
            "value": 0.14173228346456693
          },
          {
            "number": 1,
            "ticks": 79058,
            "time": 116.53210964062501,
            "value": 0.14960629921259844
          },
          {
            "number": 1,
            "ticks": 79062,
            "time": 116.53800567187501,
            "value": 0.16535433070866143
          },
          {
            "number": 1,
            "ticks": 79066,
            "time": 116.543901703125,
            "value": 0.18110236220472442
          },
          {
            "number": 1,
            "ticks": 79070,
            "time": 116.54979773437502,
            "value": 0.1968503937007874
          },
          {
            "number": 1,
            "ticks": 79074,
            "time": 116.55569376562501,
            "value": 0.2047244094488189
          },
          {
            "number": 1,
            "ticks": 79078,
            "time": 116.56158979687501,
            "value": 0.2204724409448819
          },
          {
            "number": 1,
            "ticks": 79082,
            "time": 116.56748582812502,
            "value": 0.2283464566929134
          },
          {
            "number": 1,
            "ticks": 79086,
            "time": 116.573381859375,
            "value": 0.2440944881889764
          },
          {
            "number": 1,
            "ticks": 79090,
            "time": 116.57927789062501,
            "value": 0.25196850393700787
          },
          {
            "number": 1,
            "ticks": 79094,
            "time": 116.58517392187501,
            "value": 0.2677165354330709
          },
          {
            "number": 1,
            "ticks": 79098,
            "time": 116.59106995312501,
            "value": 0.28346456692913385
          },
          {
            "number": 1,
            "ticks": 79102,
            "time": 116.596965984375,
            "value": 0.2992125984251969
          },
          {
            "number": 1,
            "ticks": 79104,
            "time": 116.59991400000001,
            "value": 0.31496062992125984
          },
          {
            "number": 1,
            "ticks": 79108,
            "time": 116.60581003125,
            "value": 0.33070866141732286
          },
          {
            "number": 1,
            "ticks": 79114,
            "time": 116.614654078125,
            "value": 0.3464566929133858
          },
          {
            "number": 1,
            "ticks": 79116,
            "time": 116.61760209375001,
            "value": 0.36220472440944884
          },
          {
            "number": 1,
            "ticks": 79120,
            "time": 116.62349812500001,
            "value": 0.3779527559055118
          },
          {
            "number": 1,
            "ticks": 79124,
            "time": 116.62939415625002,
            "value": 0.4015748031496063
          },
          {
            "number": 1,
            "ticks": 79128,
            "time": 116.6352901875,
            "value": 0.4251968503937008
          },
          {
            "number": 1,
            "ticks": 79132,
            "time": 116.64118621875001,
            "value": 0.44881889763779526
          },
          {
            "number": 1,
            "ticks": 79136,
            "time": 116.64708225000001,
            "value": 0.4645669291338583
          },
          {
            "number": 1,
            "ticks": 79140,
            "time": 116.65297828125001,
            "value": 0.48031496062992124
          },
          {
            "number": 1,
            "ticks": 79142,
            "time": 116.65592629687501,
            "value": 0.4881889763779528
          },
          {
            "number": 1,
            "ticks": 79148,
            "time": 116.66477034375002,
            "value": 0.5039370078740157
          },
          {
            "number": 1,
            "ticks": 79152,
            "time": 116.67066637500001,
            "value": 0.5118110236220472
          },
          {
            "number": 1,
            "ticks": 79156,
            "time": 116.67656240625,
            "value": 0.5275590551181102
          },
          {
            "number": 1,
            "ticks": 79160,
            "time": 116.68245843750002,
            "value": 0.5354330708661418
          },
          {
            "number": 1,
            "ticks": 79164,
            "time": 116.68835446875,
            "value": 0.5433070866141733
          },
          {
            "number": 1,
            "ticks": 79168,
            "time": 116.69425050000001,
            "value": 0.5511811023622047
          },
          {
            "number": 1,
            "ticks": 79172,
            "time": 116.70014653125001,
            "value": 0.5590551181102362
          },
          {
            "number": 1,
            "ticks": 79178,
            "time": 116.70899057812501,
            "value": 0.5669291338582677
          },
          {
            "number": 1,
            "ticks": 79182,
            "time": 116.71488660937501,
            "value": 0.5748031496062992
          },
          {
            "number": 1,
            "ticks": 79190,
            "time": 116.72667867187502,
            "value": 0.5826771653543307
          },
          {
            "number": 1,
            "ticks": 79194,
            "time": 116.73257470312501,
            "value": 0.5905511811023622
          },
          {
            "number": 1,
            "ticks": 79204,
            "time": 116.74731478125001,
            "value": 0.5984251968503937
          },
          {
            "number": 1,
            "ticks": 79232,
            "time": 116.78858700000002,
            "value": 0.5905511811023622
          },
          {
            "number": 1,
            "ticks": 79238,
            "time": 116.79743104687502,
            "value": 0.5826771653543307
          },
          {
            "number": 1,
            "ticks": 79244,
            "time": 116.80627509375002,
            "value": 0.5748031496062992
          },
          {
            "number": 1,
            "ticks": 79252,
            "time": 116.81806715625001,
            "value": 0.5669291338582677
          },
          {
            "number": 1,
            "ticks": 79256,
            "time": 116.82396318750001,
            "value": 0.5590551181102362
          },
          {
            "number": 1,
            "ticks": 79260,
            "time": 116.82985921875002,
            "value": 0.5511811023622047
          },
          {
            "number": 1,
            "ticks": 79262,
            "time": 116.83280723437501,
            "value": 0.5354330708661418
          },
          {
            "number": 1,
            "ticks": 79268,
            "time": 116.84165128125001,
            "value": 0.5196850393700787
          },
          {
            "number": 1,
            "ticks": 79270,
            "time": 116.844599296875,
            "value": 0.5118110236220472
          },
          {
            "number": 1,
            "ticks": 79276,
            "time": 116.85344334375,
            "value": 0.48031496062992124
          },
          {
            "number": 1,
            "ticks": 79280,
            "time": 116.85933937500002,
            "value": 0.4645669291338583
          },
          {
            "number": 1,
            "ticks": 79284,
            "time": 116.86523540625001,
            "value": 0.4409448818897638
          },
          {
            "number": 1,
            "ticks": 79286,
            "time": 116.86818342187502,
            "value": 0.41732283464566927
          },
          {
            "number": 1,
            "ticks": 79292,
            "time": 116.87702746875001,
            "value": 0.4015748031496063
          },
          {
            "number": 1,
            "ticks": 79296,
            "time": 116.8829235,
            "value": 0.3779527559055118
          },
          {
            "number": 1,
            "ticks": 79298,
            "time": 116.88587151562501,
            "value": 0.3543307086614173
          },
          {
            "number": 1,
            "ticks": 79306,
            "time": 116.897663578125,
            "value": 0.30708661417322836
          },
          {
            "number": 1,
            "ticks": 79310,
            "time": 116.90355960937501,
            "value": 0.28346456692913385
          },
          {
            "number": 1,
            "ticks": 79314,
            "time": 116.90945564062501,
            "value": 0.25984251968503935
          },
          {
            "number": 1,
            "ticks": 79318,
            "time": 116.915351671875,
            "value": 0.23622047244094488
          },
          {
            "number": 1,
            "ticks": 79322,
            "time": 116.92124770312502,
            "value": 0.1889763779527559
          },
          {
            "number": 1,
            "ticks": 79328,
            "time": 116.93009175000002,
            "value": 0.1732283464566929
          },
          {
            "number": 1,
            "ticks": 79330,
            "time": 116.93303976562501,
            "value": 0.14960629921259844
          },
          {
            "number": 1,
            "ticks": 79336,
            "time": 116.94188381250001,
            "value": 0.13385826771653545
          },
          {
            "number": 1,
            "ticks": 79342,
            "time": 116.95072785937501,
            "value": 0.08661417322834646
          },
          {
            "number": 1,
            "ticks": 79348,
            "time": 116.95957190625,
            "value": 0.07086614173228346
          },
          {
            "number": 1,
            "ticks": 79352,
            "time": 116.96546793750001,
            "value": 0.047244094488188976
          },
          {
            "number": 1,
            "ticks": 79356,
            "time": 116.97136396875001,
            "value": 0.007874015748031496
          },
          {
            "number": 1,
            "ticks": 79372,
            "time": 116.99494809375001,
            "value": 0
          },
          {
            "number": 1,
            "ticks": 79672,
            "time": 117.43715043750001,
            "value": 0.015748031496062992
          },
          {
            "number": 1,
            "ticks": 79684,
            "time": 117.45483853125,
            "value": 0.12598425196850394
          },
          {
            "number": 1,
            "ticks": 79692,
            "time": 117.46663059375001,
            "value": 0.1889763779527559
          },
          {
            "number": 1,
            "ticks": 79700,
            "time": 117.47842265625002,
            "value": 0.2677165354330709
          },
          {
            "number": 1,
            "ticks": 79712,
            "time": 117.49611075000001,
            "value": 0.3858267716535433
          },
          {
            "number": 1,
            "ticks": 79720,
            "time": 117.5079028125,
            "value": 0.5196850393700787
          },
          {
            "number": 1,
            "ticks": 79732,
            "time": 117.52559090625,
            "value": 0.6614173228346457
          },
          {
            "number": 1,
            "ticks": 79740,
            "time": 117.53738296875001,
            "value": 0.8346456692913385
          },
          {
            "number": 1,
            "ticks": 79752,
            "time": 117.5550710625,
            "value": 1
          },
          {
            "number": 1,
            "ticks": 79852,
            "time": 117.70247184375,
            "value": 0.8346456692913385
          },
          {
            "number": 1,
            "ticks": 79860,
            "time": 117.71426390625001,
            "value": 0.49606299212598426
          },
          {
            "number": 1,
            "ticks": 79872,
            "time": 117.731952,
            "value": 0.12598425196850394
          },
          {
            "number": 1,
            "ticks": 79880,
            "time": 117.74374406250001,
            "value": 0
          },
          {
            "number": 1,
            "ticks": 80526,
            "time": 118.69595310937501,
            "value": 0.007874015748031496
          },
          {
            "number": 1,
            "ticks": 80534,
            "time": 118.70774517187502,
            "value": 0.023622047244094488
          },
          {
            "number": 1,
            "ticks": 80538,
            "time": 118.71364120312501,
            "value": 0.031496062992125984
          },
          {
            "number": 1,
            "ticks": 80542,
            "time": 118.71953723437501,
            "value": 0.03937007874015748
          },
          {
            "number": 1,
            "ticks": 80546,
            "time": 118.72543326562501,
            "value": 0.05511811023622047
          },
          {
            "number": 1,
            "ticks": 80550,
            "time": 118.731329296875,
            "value": 0.06299212598425197
          },
          {
            "number": 1,
            "ticks": 80554,
            "time": 118.737225328125,
            "value": 0.07086614173228346
          },
          {
            "number": 1,
            "ticks": 80558,
            "time": 118.74312135937501,
            "value": 0.08661417322834646
          },
          {
            "number": 1,
            "ticks": 80562,
            "time": 118.74901739062501,
            "value": 0.09448818897637795
          },
          {
            "number": 1,
            "ticks": 80566,
            "time": 118.754913421875,
            "value": 0.10236220472440945
          },
          {
            "number": 1,
            "ticks": 80570,
            "time": 118.76080945312502,
            "value": 0.11811023622047244
          },
          {
            "number": 1,
            "ticks": 80572,
            "time": 118.76375746875,
            "value": 0.13385826771653545
          },
          {
            "number": 1,
            "ticks": 80578,
            "time": 118.772601515625,
            "value": 0.14173228346456693
          },
          {
            "number": 1,
            "ticks": 80580,
            "time": 118.77554953125001,
            "value": 0.15748031496062992
          },
          {
            "number": 1,
            "ticks": 80584,
            "time": 118.78144556250001,
            "value": 0.1732283464566929
          },
          {
            "number": 1,
            "ticks": 80588,
            "time": 118.78734159375001,
            "value": 0.1889763779527559
          },
          {
            "number": 1,
            "ticks": 80592,
            "time": 118.79323762500002,
            "value": 0.2047244094488189
          },
          {
            "number": 1,
            "ticks": 80594,
            "time": 118.79618564062501,
            "value": 0.2204724409448819
          },
          {
            "number": 1,
            "ticks": 80602,
            "time": 118.807977703125,
            "value": 0.23622047244094488
          },
          {
            "number": 1,
            "ticks": 80604,
            "time": 118.81092571875001,
            "value": 0.25984251968503935
          },
          {
            "number": 1,
            "ticks": 80608,
            "time": 118.81682175,
            "value": 0.2677165354330709
          },
          {
            "number": 1,
            "ticks": 80612,
            "time": 118.82271778125002,
            "value": 0.29133858267716534
          },
          {
            "number": 1,
            "ticks": 80616,
            "time": 118.82861381250001,
            "value": 0.2992125984251969
          },
          {
            "number": 1,
            "ticks": 80618,
            "time": 118.83156182812502,
            "value": 0.31496062992125984
          },
          {
            "number": 1,
            "ticks": 80624,
            "time": 118.84040587500002,
            "value": 0.33070866141732286
          },
          {
            "number": 1,
            "ticks": 80628,
            "time": 118.84630190625,
            "value": 0.33858267716535434
          },
          {
            "number": 1,
            "ticks": 80632,
            "time": 118.85219793750001,
            "value": 0.3543307086614173
          },
          {
            "number": 1,
            "ticks": 80636,
            "time": 118.85809396875001,
            "value": 0.3700787401574803
          },
          {
            "number": 1,
            "ticks": 80640,
            "time": 118.86399000000002,
            "value": 0.3858267716535433
          },
          {
            "number": 1,
            "ticks": 80644,
            "time": 118.86988603125,
            "value": 0.4094488188976378
          },
          {
            "number": 1,
            "ticks": 80648,
            "time": 118.87578206250002,
            "value": 0.4251968503937008
          },
          {
            "number": 1,
            "ticks": 80652,
            "time": 118.88167809375001,
            "value": 0.44881889763779526
          },
          {
            "number": 1,
            "ticks": 80656,
            "time": 118.887574125,
            "value": 0.4645669291338583
          },
          {
            "number": 1,
            "ticks": 80660,
            "time": 118.89347015625002,
            "value": 0.47244094488188976
          },
          {
            "number": 1,
            "ticks": 80662,
            "time": 118.896418171875,
            "value": 0.4881889763779528
          },
          {
            "number": 1,
            "ticks": 80666,
            "time": 118.90231420312502,
            "value": 0.49606299212598426
          },
          {
            "number": 1,
            "ticks": 80670,
            "time": 118.908210234375,
            "value": 0.5118110236220472
          },
          {
            "number": 1,
            "ticks": 80674,
            "time": 118.91410626562501,
            "value": 0.5196850393700787
          },
          {
            "number": 1,
            "ticks": 80680,
            "time": 118.9229503125,
            "value": 0.5275590551181102
          },
          {
            "number": 1,
            "ticks": 80682,
            "time": 118.92589832812502,
            "value": 0.5354330708661418
          },
          {
            "number": 1,
            "ticks": 80692,
            "time": 118.94063840625,
            "value": 0.5433070866141733
          },
          {
            "number": 1,
            "ticks": 80738,
            "time": 119.00844276562502,
            "value": 0.5275590551181102
          },
          {
            "number": 1,
            "ticks": 80744,
            "time": 119.01728681250002,
            "value": 0.5196850393700787
          },
          {
            "number": 1,
            "ticks": 80746,
            "time": 119.020234828125,
            "value": 0.5039370078740157
          },
          {
            "number": 1,
            "ticks": 80752,
            "time": 119.02907887500001,
            "value": 0.49606299212598426
          },
          {
            "number": 1,
            "ticks": 80756,
            "time": 119.03497490625001,
            "value": 0.48031496062992124
          },
          {
            "number": 1,
            "ticks": 80760,
            "time": 119.04087093750002,
            "value": 0.4645669291338583
          },
          {
            "number": 1,
            "ticks": 80762,
            "time": 119.04381895312501,
            "value": 0.4409448818897638
          },
          {
            "number": 1,
            "ticks": 80766,
            "time": 119.04971498437502,
            "value": 0.41732283464566927
          },
          {
            "number": 1,
            "ticks": 80768,
            "time": 119.05266300000001,
            "value": 0.4015748031496063
          },
          {
            "number": 1,
            "ticks": 80772,
            "time": 119.05855903125001,
            "value": 0.3779527559055118
          },
          {
            "number": 1,
            "ticks": 80780,
            "time": 119.07035109375002,
            "value": 0.3543307086614173
          },
          {
            "number": 1,
            "ticks": 80784,
            "time": 119.07624712500001,
            "value": 0.30708661417322836
          },
          {
            "number": 1,
            "ticks": 80790,
            "time": 119.085091171875,
            "value": 0.25196850393700787
          },
          {
            "number": 1,
            "ticks": 80796,
            "time": 119.09393521875,
            "value": 0.2204724409448819
          },
          {
            "number": 1,
            "ticks": 80798,
            "time": 119.09688323437501,
            "value": 0.1968503937007874
          },
          {
            "number": 1,
            "ticks": 80802,
            "time": 119.10277926562502,
            "value": 0.16535433070866143
          },
          {
            "number": 1,
            "ticks": 80806,
            "time": 119.108675296875,
            "value": 0.13385826771653545
          },
          {
            "number": 1,
            "ticks": 80808,
            "time": 119.11162331250002,
            "value": 0.11023622047244094
          },
          {
            "number": 1,
            "ticks": 80812,
            "time": 119.11751934375,
            "value": 0.07874015748031496
          },
          {
            "number": 1,
            "ticks": 80816,
            "time": 119.12341537500002,
            "value": 0.047244094488188976
          },
          {
            "number": 1,
            "ticks": 80820,
            "time": 119.12931140625001,
            "value": 0.007874015748031496
          },
          {
            "number": 1,
            "ticks": 80834,
            "time": 119.14994751562502,
            "value": 0
          },
          {
            "number": 1,
            "ticks": 82206,
            "time": 121.17228623437501,
            "value": 0.007874015748031496
          },
          {
            "number": 1,
            "ticks": 82260,
            "time": 121.25188265625,
            "value": 0.015748031496062992
          },
          {
            "number": 1,
            "ticks": 82264,
            "time": 121.25777868750001,
            "value": 0.023622047244094488
          },
          {
            "number": 1,
            "ticks": 82266,
            "time": 121.26072670312502,
            "value": 0.031496062992125984
          },
          {
            "number": 1,
            "ticks": 82274,
            "time": 121.27251876562502,
            "value": 0.047244094488188976
          },
          {
            "number": 1,
            "ticks": 82278,
            "time": 121.27841479687501,
            "value": 0.05511811023622047
          },
          {
            "number": 1,
            "ticks": 82282,
            "time": 121.284310828125,
            "value": 0.06299212598425197
          },
          {
            "number": 1,
            "ticks": 82284,
            "time": 121.28725884375001,
            "value": 0.07086614173228346
          },
          {
            "number": 1,
            "ticks": 82290,
            "time": 121.29610289062501,
            "value": 0.07874015748031496
          },
          {
            "number": 1,
            "ticks": 82296,
            "time": 121.3049469375,
            "value": 0.09448818897637795
          },
          {
            "number": 1,
            "ticks": 82300,
            "time": 121.31084296875001,
            "value": 0.10236220472440945
          },
          {
            "number": 1,
            "ticks": 82304,
            "time": 121.31673900000001,
            "value": 0.11023622047244094
          },
          {
            "number": 1,
            "ticks": 82308,
            "time": 121.32263503125002,
            "value": 0.11811023622047244
          },
          {
            "number": 1,
            "ticks": 82310,
            "time": 121.32558304687501,
            "value": 0.12598425196850394
          },
          {
            "number": 1,
            "ticks": 82314,
            "time": 121.33147907812501,
            "value": 0.13385826771653545
          },
          {
            "number": 1,
            "ticks": 82318,
            "time": 121.337375109375,
            "value": 0.14173228346456693
          },
          {
            "number": 1,
            "ticks": 82320,
            "time": 121.34032312500001,
            "value": 0.14960629921259844
          },
          {
            "number": 1,
            "ticks": 82324,
            "time": 121.34621915625,
            "value": 0.15748031496062992
          },
          {
            "number": 1,
            "ticks": 82330,
            "time": 121.355063203125,
            "value": 0.16535433070866143
          },
          {
            "number": 1,
            "ticks": 82332,
            "time": 121.35801121875001,
            "value": 0.1732283464566929
          },
          {
            "number": 1,
            "ticks": 82338,
            "time": 121.366855265625,
            "value": 0.1968503937007874
          },
          {
            "number": 1,
            "ticks": 82346,
            "time": 121.37864732812501,
            "value": 0.2125984251968504
          },
          {
            "number": 1,
            "ticks": 82352,
            "time": 121.38749137500001,
            "value": 0.2204724409448819
          },
          {
            "number": 1,
            "ticks": 82354,
            "time": 121.390439390625,
            "value": 0.2283464566929134
          },
          {
            "number": 1,
            "ticks": 82360,
            "time": 121.3992834375,
            "value": 0.23622047244094488
          },
          {
            "number": 1,
            "ticks": 82362,
            "time": 121.40223145312501,
            "value": 0.2440944881889764
          },
          {
            "number": 1,
            "ticks": 82368,
            "time": 121.41107550000001,
            "value": 0.2677165354330709
          },
          {
            "number": 1,
            "ticks": 82374,
            "time": 121.41991954687501,
            "value": 0.2755905511811024
          },
          {
            "number": 1,
            "ticks": 82376,
            "time": 121.42286756250002,
            "value": 0.28346456692913385
          },
          {
            "number": 1,
            "ticks": 82378,
            "time": 121.42581557812501,
            "value": 0.2992125984251969
          },
          {
            "number": 1,
            "ticks": 82382,
            "time": 121.43171160937501,
            "value": 0.30708661417322836
          },
          {
            "number": 1,
            "ticks": 82386,
            "time": 121.43760764062502,
            "value": 0.31496062992125984
          },
          {
            "number": 1,
            "ticks": 82392,
            "time": 121.44645168750002,
            "value": 0.3228346456692913
          },
          {
            "number": 1,
            "ticks": 82396,
            "time": 121.45234771875,
            "value": 0.33070866141732286
          },
          {
            "number": 1,
            "ticks": 82400,
            "time": 121.45824375000002,
            "value": 0.33858267716535434
          },
          {
            "number": 1,
            "ticks": 82402,
            "time": 121.461191765625,
            "value": 0.3464566929133858
          },
          {
            "number": 1,
            "ticks": 82406,
            "time": 121.46708779687502,
            "value": 0.36220472440944884
          },
          {
            "number": 1,
            "ticks": 82410,
            "time": 121.47298382812501,
            "value": 0.3700787401574803
          },
          {
            "number": 1,
            "ticks": 82412,
            "time": 121.47593184375002,
            "value": 0.3779527559055118
          },
          {
            "number": 1,
            "ticks": 82418,
            "time": 121.48477589062502,
            "value": 0.3937007874015748
          },
          {
            "number": 1,
            "ticks": 82420,
            "time": 121.48772390625001,
            "value": 0.4015748031496063
          },
          {
            "number": 1,
            "ticks": 82422,
            "time": 121.490671921875,
            "value": 0.41732283464566927
          },
          {
            "number": 1,
            "ticks": 82428,
            "time": 121.49951596875002,
            "value": 0.4251968503937008
          },
          {
            "number": 1,
            "ticks": 82430,
            "time": 121.50246398437501,
            "value": 0.4409448818897638
          },
          {
            "number": 1,
            "ticks": 82434,
            "time": 121.50836001562502,
            "value": 0.44881889763779526
          },
          {
            "number": 1,
            "ticks": 82438,
            "time": 121.514256046875,
            "value": 0.4566929133858268
          },
          {
            "number": 1,
            "ticks": 82442,
            "time": 121.52015207812502,
            "value": 0.4645669291338583
          },
          {
            "number": 1,
            "ticks": 82448,
            "time": 121.52899612500002,
            "value": 0.47244094488188976
          },
          {
            "number": 1,
            "ticks": 82450,
            "time": 121.531944140625,
            "value": 0.48031496062992124
          },
          {
            "number": 1,
            "ticks": 82452,
            "time": 121.53489215625001,
            "value": 0.4881889763779528
          },
          {
            "number": 1,
            "ticks": 82456,
            "time": 121.5407881875,
            "value": 0.49606299212598426
          },
          {
            "number": 1,
            "ticks": 82460,
            "time": 121.54668421875002,
            "value": 0.5039370078740157
          },
          {
            "number": 1,
            "ticks": 82464,
            "time": 121.55258025,
            "value": 0.5118110236220472
          },
          {
            "number": 1,
            "ticks": 82468,
            "time": 121.55847628125001,
            "value": 0.5275590551181102
          },
          {
            "number": 1,
            "ticks": 82474,
            "time": 121.567320328125,
            "value": 0.5354330708661418
          },
          {
            "number": 1,
            "ticks": 82478,
            "time": 121.57321635937501,
            "value": 0.5433070866141733
          },
          {
            "number": 1,
            "ticks": 82482,
            "time": 121.57911239062501,
            "value": 0.5511811023622047
          },
          {
            "number": 1,
            "ticks": 82486,
            "time": 121.585008421875,
            "value": 0.5590551181102362
          },
          {
            "number": 1,
            "ticks": 82492,
            "time": 121.59385246875,
            "value": 0.5669291338582677
          },
          {
            "number": 1,
            "ticks": 82506,
            "time": 121.614488578125,
            "value": 0.5748031496062992
          },
          {
            "number": 1,
            "ticks": 82522,
            "time": 121.638072703125,
            "value": 0.5669291338582677
          },
          {
            "number": 1,
            "ticks": 82532,
            "time": 121.65281278125002,
            "value": 0.5590551181102362
          },
          {
            "number": 1,
            "ticks": 82536,
            "time": 121.65870881250001,
            "value": 0.5511811023622047
          },
          {
            "number": 1,
            "ticks": 82540,
            "time": 121.66460484375,
            "value": 0.5433070866141733
          },
          {
            "number": 1,
            "ticks": 82544,
            "time": 121.67050087500002,
            "value": 0.5275590551181102
          },
          {
            "number": 1,
            "ticks": 82548,
            "time": 121.67639690625,
            "value": 0.5118110236220472
          },
          {
            "number": 1,
            "ticks": 82552,
            "time": 121.68229293750001,
            "value": 0.4881889763779528
          },
          {
            "number": 1,
            "ticks": 82556,
            "time": 121.68818896875001,
            "value": 0.4645669291338583
          },
          {
            "number": 1,
            "ticks": 82560,
            "time": 121.69408500000002,
            "value": 0.4330708661417323
          },
          {
            "number": 1,
            "ticks": 82564,
            "time": 121.69998103125,
            "value": 0.3937007874015748
          },
          {
            "number": 1,
            "ticks": 82568,
            "time": 121.70587706250002,
            "value": 0.3543307086614173
          },
          {
            "number": 1,
            "ticks": 82572,
            "time": 121.71177309375001,
            "value": 0.30708661417322836
          },
          {
            "number": 1,
            "ticks": 82576,
            "time": 121.717669125,
            "value": 0.25196850393700787
          },
          {
            "number": 1,
            "ticks": 82580,
            "time": 121.72356515625002,
            "value": 0.2047244094488189
          },
          {
            "number": 1,
            "ticks": 82582,
            "time": 121.726513171875,
            "value": 0.14173228346456693
          },
          {
            "number": 1,
            "ticks": 82586,
            "time": 121.73240920312502,
            "value": 0.07874015748031496
          },
          {
            "number": 1,
            "ticks": 82590,
            "time": 121.738305234375,
            "value": 0.007874015748031496
          },
          {
            "number": 1,
            "ticks": 82594,
            "time": 121.74420126562501,
            "value": 0
          },
          {
            "number": 1,
            "ticks": 83448,
            "time": 123.00300393750001,
            "value": 0.007874015748031496
          },
          {
            "number": 1,
            "ticks": 83474,
            "time": 123.04132814062501,
            "value": 0.023622047244094488
          },
          {
            "number": 1,
            "ticks": 83480,
            "time": 123.05017218750001,
            "value": 0.031496062992125984
          },
          {
            "number": 1,
            "ticks": 83486,
            "time": 123.05901623437502,
            "value": 0.03937007874015748
          },
          {
            "number": 1,
            "ticks": 83492,
            "time": 123.06786028125002,
            "value": 0.05511811023622047
          },
          {
            "number": 1,
            "ticks": 83498,
            "time": 123.07670432812502,
            "value": 0.06299212598425197
          },
          {
            "number": 1,
            "ticks": 83502,
            "time": 123.08260035937501,
            "value": 0.07086614173228346
          },
          {
            "number": 1,
            "ticks": 83510,
            "time": 123.09439242187501,
            "value": 0.08661417322834646
          },
          {
            "number": 1,
            "ticks": 83514,
            "time": 123.10028845312502,
            "value": 0.09448818897637795
          },
          {
            "number": 1,
            "ticks": 83522,
            "time": 123.11208051562501,
            "value": 0.11023622047244094
          },
          {
            "number": 1,
            "ticks": 83526,
            "time": 123.11797654687501,
            "value": 0.11811023622047244
          },
          {
            "number": 1,
            "ticks": 83530,
            "time": 123.123872578125,
            "value": 0.12598425196850394
          },
          {
            "number": 1,
            "ticks": 83534,
            "time": 123.12976860937502,
            "value": 0.13385826771653545
          },
          {
            "number": 1,
            "ticks": 83538,
            "time": 123.13566464062501,
            "value": 0.14173228346456693
          },
          {
            "number": 1,
            "ticks": 83542,
            "time": 123.141560671875,
            "value": 0.14960629921259844
          },
          {
            "number": 1,
            "ticks": 83546,
            "time": 123.14745670312502,
            "value": 0.15748031496062992
          },
          {
            "number": 1,
            "ticks": 83550,
            "time": 123.153352734375,
            "value": 0.16535433070866143
          },
          {
            "number": 1,
            "ticks": 83554,
            "time": 123.15924876562501,
            "value": 0.1732283464566929
          },
          {
            "number": 1,
            "ticks": 83558,
            "time": 123.16514479687501,
            "value": 0.18110236220472442
          },
          {
            "number": 1,
            "ticks": 83562,
            "time": 123.17104082812502,
            "value": 0.1889763779527559
          },
          {
            "number": 1,
            "ticks": 83568,
            "time": 123.17988487500001,
            "value": 0.1968503937007874
          },
          {
            "number": 1,
            "ticks": 83576,
            "time": 123.19167693750002,
            "value": 0.2047244094488189
          },
          {
            "number": 1,
            "ticks": 83584,
            "time": 123.20346900000001,
            "value": 0.2125984251968504
          },
          {
            "number": 1,
            "ticks": 83596,
            "time": 123.22115709375001,
            "value": 0.2204724409448819
          },
          {
            "number": 1,
            "ticks": 83614,
            "time": 123.247689234375,
            "value": 0.2283464566929134
          },
          {
            "number": 1,
            "ticks": 83632,
            "time": 123.27422137500001,
            "value": 0.23622047244094488
          },
          {
            "number": 1,
            "ticks": 83650,
            "time": 123.300753515625,
            "value": 0.2283464566929134
          },
          {
            "number": 1,
            "ticks": 83656,
            "time": 123.3095975625,
            "value": 0.2204724409448819
          },
          {
            "number": 1,
            "ticks": 83662,
            "time": 123.318441609375,
            "value": 0.2047244094488189
          },
          {
            "number": 1,
            "ticks": 83668,
            "time": 123.32728565625001,
            "value": 0.1968503937007874
          },
          {
            "number": 1,
            "ticks": 83672,
            "time": 123.33318168750002,
            "value": 0.1889763779527559
          },
          {
            "number": 1,
            "ticks": 83676,
            "time": 123.33907771875,
            "value": 0.16535433070866143
          },
          {
            "number": 1,
            "ticks": 83684,
            "time": 123.35086978125001,
            "value": 0.14173228346456693
          },
          {
            "number": 1,
            "ticks": 83690,
            "time": 123.35971382812501,
            "value": 0.13385826771653545
          },
          {
            "number": 1,
            "ticks": 83692,
            "time": 123.36266184375,
            "value": 0.11811023622047244
          },
          {
            "number": 1,
            "ticks": 83694,
            "time": 123.36560985937501,
            "value": 0.10236220472440945
          },
          {
            "number": 1,
            "ticks": 83700,
            "time": 123.37445390625001,
            "value": 0.07874015748031496
          },
          {
            "number": 1,
            "ticks": 83704,
            "time": 123.3803499375,
            "value": 0.06299212598425197
          },
          {
            "number": 1,
            "ticks": 83706,
            "time": 123.38329795312501,
            "value": 0.03937007874015748
          },
          {
            "number": 1,
            "ticks": 83710,
            "time": 123.38919398437501,
            "value": 0.007874015748031496
          },
          {
            "number": 1,
            "ticks": 83728,
            "time": 123.415726125,
            "value": 0
          },
          {
            "number": 1,
            "ticks": 84096,
            "time": 123.958161,
            "value": 0.007874015748031496
          },
          {
            "number": 1,
            "ticks": 84118,
            "time": 123.990589171875,
            "value": 0.015748031496062992
          },
          {
            "number": 1,
            "ticks": 84122,
            "time": 123.99648520312502,
            "value": 0.023622047244094488
          },
          {
            "number": 1,
            "ticks": 84126,
            "time": 124.00238123437501,
            "value": 0.031496062992125984
          },
          {
            "number": 1,
            "ticks": 84130,
            "time": 124.00827726562501,
            "value": 0.047244094488188976
          },
          {
            "number": 1,
            "ticks": 84134,
            "time": 124.01417329687501,
            "value": 0.06299212598425197
          },
          {
            "number": 1,
            "ticks": 84136,
            "time": 124.01712131250001,
            "value": 0.07086614173228346
          },
          {
            "number": 1,
            "ticks": 84140,
            "time": 124.02301734375001,
            "value": 0.07874015748031496
          },
          {
            "number": 1,
            "ticks": 84144,
            "time": 124.02891337500002,
            "value": 0.09448818897637795
          },
          {
            "number": 1,
            "ticks": 84150,
            "time": 124.03775742187501,
            "value": 0.10236220472440945
          },
          {
            "number": 1,
            "ticks": 84152,
            "time": 124.04070543750002,
            "value": 0.11023622047244094
          },
          {
            "number": 1,
            "ticks": 84156,
            "time": 124.04660146875001,
            "value": 0.11811023622047244
          },
          {
            "number": 1,
            "ticks": 84160,
            "time": 124.0524975,
            "value": 0.12598425196850394
          },
          {
            "number": 1,
            "ticks": 84164,
            "time": 124.05839353125002,
            "value": 0.13385826771653545
          },
          {
            "number": 1,
            "ticks": 84172,
            "time": 124.07018559375001,
            "value": 0.14960629921259844
          },
          {
            "number": 1,
            "ticks": 84178,
            "time": 124.07902964062501,
            "value": 0.15748031496062992
          },
          {
            "number": 1,
            "ticks": 84182,
            "time": 124.08492567187501,
            "value": 0.16535433070866143
          },
          {
            "number": 1,
            "ticks": 84190,
            "time": 124.096717734375,
            "value": 0.1732283464566929
          },
          {
            "number": 1,
            "ticks": 84194,
            "time": 124.10261376562502,
            "value": 0.18110236220472442
          },
          {
            "number": 1,
            "ticks": 84198,
            "time": 124.10850979687501,
            "value": 0.1889763779527559
          },
          {
            "number": 1,
            "ticks": 84202,
            "time": 124.114405828125,
            "value": 0.1968503937007874
          },
          {
            "number": 1,
            "ticks": 84206,
            "time": 124.12030185937502,
            "value": 0.2047244094488189
          },
          {
            "number": 1,
            "ticks": 84212,
            "time": 124.12914590625002,
            "value": 0.2125984251968504
          },
          {
            "number": 1,
            "ticks": 84216,
            "time": 124.1350419375,
            "value": 0.2204724409448819
          },
          {
            "number": 1,
            "ticks": 84222,
            "time": 124.14388598437502,
            "value": 0.2283464566929134
          },
          {
            "number": 1,
            "ticks": 84226,
            "time": 124.14978201562501,
            "value": 0.23622047244094488
          },
          {
            "number": 1,
            "ticks": 84232,
            "time": 124.1586260625,
            "value": 0.2440944881889764
          },
          {
            "number": 1,
            "ticks": 84240,
            "time": 124.17041812500001,
            "value": 0.25196850393700787
          },
          {
            "number": 1,
            "ticks": 84246,
            "time": 124.17926217187501,
            "value": 0.2677165354330709
          },
          {
            "number": 1,
            "ticks": 84254,
            "time": 124.19105423437502,
            "value": 0.2755905511811024
          },
          {
            "number": 1,
            "ticks": 84262,
            "time": 124.20284629687501,
            "value": 0.29133858267716534
          },
          {
            "number": 1,
            "ticks": 84268,
            "time": 124.21169034375,
            "value": 0.2992125984251969
          },
          {
            "number": 1,
            "ticks": 84272,
            "time": 124.21758637500001,
            "value": 0.30708661417322836
          },
          {
            "number": 1,
            "ticks": 84278,
            "time": 124.22643042187502,
            "value": 0.31496062992125984
          },
          {
            "number": 1,
            "ticks": 84282,
            "time": 124.23232645312501,
            "value": 0.3228346456692913
          },
          {
            "number": 1,
            "ticks": 84292,
            "time": 124.24706653125,
            "value": 0.33070866141732286
          },
          {
            "number": 1,
            "ticks": 84298,
            "time": 124.25591057812501,
            "value": 0.33858267716535434
          },
          {
            "number": 1,
            "ticks": 84306,
            "time": 124.26770264062502,
            "value": 0.3464566929133858
          },
          {
            "number": 1,
            "ticks": 84318,
            "time": 124.28539073437501,
            "value": 0.3543307086614173
          },
          {
            "number": 1,
            "ticks": 84346,
            "time": 124.32666295312501,
            "value": 0.3464566929133858
          },
          {
            "number": 1,
            "ticks": 84350,
            "time": 124.33255898437501,
            "value": 0.33858267716535434
          },
          {
            "number": 1,
            "ticks": 84354,
            "time": 124.33845501562502,
            "value": 0.33070866141732286
          },
          {
            "number": 1,
            "ticks": 84356,
            "time": 124.34140303125001,
            "value": 0.3228346456692913
          },
          {
            "number": 1,
            "ticks": 84364,
            "time": 124.35319509375,
            "value": 0.31496062992125984
          },
          {
            "number": 1,
            "ticks": 84366,
            "time": 124.35614310937501,
            "value": 0.29133858267716534
          },
          {
            "number": 1,
            "ticks": 84372,
            "time": 124.36498715625001,
            "value": 0.2677165354330709
          },
          {
            "number": 1,
            "ticks": 84374,
            "time": 124.36793517187502,
            "value": 0.25196850393700787
          },
          {
            "number": 1,
            "ticks": 84378,
            "time": 124.37383120312501,
            "value": 0.2283464566929134
          },
          {
            "number": 1,
            "ticks": 84382,
            "time": 124.37972723437501,
            "value": 0.1968503937007874
          },
          {
            "number": 1,
            "ticks": 84386,
            "time": 124.38562326562501,
            "value": 0.1732283464566929
          },
          {
            "number": 1,
            "ticks": 84390,
            "time": 124.39151929687502,
            "value": 0.14173228346456693
          },
          {
            "number": 1,
            "ticks": 84394,
            "time": 124.397415328125,
            "value": 0.11023622047244094
          },
          {
            "number": 1,
            "ticks": 84396,
            "time": 124.40036334375002,
            "value": 0.07086614173228346
          },
          {
            "number": 1,
            "ticks": 84402,
            "time": 124.40920739062501,
            "value": 0.03937007874015748
          },
          {
            "number": 1,
            "ticks": 84404,
            "time": 124.41215540625002,
            "value": 0.007874015748031496
          },
          {
            "number": 1,
            "ticks": 84414,
            "time": 124.42689548437501,
            "value": 0
          },
          {
            "number": 1,
            "ticks": 85242,
            "time": 125.64737395312501,
            "value": 0.007874015748031496
          },
          {
            "number": 1,
            "ticks": 85262,
            "time": 125.67685410937501,
            "value": 0.015748031496062992
          },
          {
            "number": 1,
            "ticks": 85272,
            "time": 125.69159418750002,
            "value": 0.031496062992125984
          },
          {
            "number": 1,
            "ticks": 85282,
            "time": 125.706334265625,
            "value": 0.03937007874015748
          },
          {
            "number": 1,
            "ticks": 85284,
            "time": 125.70928228125001,
            "value": 0.047244094488188976
          },
          {
            "number": 1,
            "ticks": 85290,
            "time": 125.71812632812501,
            "value": 0.06299212598425197
          },
          {
            "number": 1,
            "ticks": 85300,
            "time": 125.73286640625001,
            "value": 0.07086614173228346
          },
          {
            "number": 1,
            "ticks": 85302,
            "time": 125.735814421875,
            "value": 0.08661417322834646
          },
          {
            "number": 1,
            "ticks": 85310,
            "time": 125.74760648437501,
            "value": 0.09448818897637795
          },
          {
            "number": 1,
            "ticks": 85316,
            "time": 125.75645053125001,
            "value": 0.10236220472440945
          },
          {
            "number": 1,
            "ticks": 85320,
            "time": 125.76234656250001,
            "value": 0.11023622047244094
          },
          {
            "number": 1,
            "ticks": 85324,
            "time": 125.76824259375,
            "value": 0.12598425196850394
          },
          {
            "number": 1,
            "ticks": 85326,
            "time": 125.77119060937501,
            "value": 0.13385826771653545
          },
          {
            "number": 1,
            "ticks": 85334,
            "time": 125.78298267187502,
            "value": 0.14173228346456693
          },
          {
            "number": 1,
            "ticks": 85338,
            "time": 125.78887870312501,
            "value": 0.14960629921259844
          },
          {
            "number": 1,
            "ticks": 85346,
            "time": 125.80067076562501,
            "value": 0.15748031496062992
          },
          {
            "number": 1,
            "ticks": 85350,
            "time": 125.80656679687502,
            "value": 0.16535433070866143
          },
          {
            "number": 1,
            "ticks": 85358,
            "time": 125.81835885937501,
            "value": 0.1732283464566929
          },
          {
            "number": 1,
            "ticks": 85364,
            "time": 125.82720290625002,
            "value": 0.1889763779527559
          },
          {
            "number": 1,
            "ticks": 85374,
            "time": 125.84194298437501,
            "value": 0.2125984251968504
          },
          {
            "number": 1,
            "ticks": 85384,
            "time": 125.85668306250001,
            "value": 0.2283464566929134
          },
          {
            "number": 1,
            "ticks": 85386,
            "time": 125.859631078125,
            "value": 0.23622047244094488
          },
          {
            "number": 1,
            "ticks": 85390,
            "time": 125.86552710937501,
            "value": 0.2440944881889764
          },
          {
            "number": 1,
            "ticks": 85398,
            "time": 125.87731917187502,
            "value": 0.25196850393700787
          },
          {
            "number": 1,
            "ticks": 85402,
            "time": 125.883215203125,
            "value": 0.25984251968503935
          },
          {
            "number": 1,
            "ticks": 85404,
            "time": 125.88616321875001,
            "value": 0.2677165354330709
          },
          {
            "number": 1,
            "ticks": 85410,
            "time": 125.89500726562501,
            "value": 0.2755905511811024
          },
          {
            "number": 1,
            "ticks": 85416,
            "time": 125.90385131250001,
            "value": 0.28346456692913385
          },
          {
            "number": 1,
            "ticks": 85420,
            "time": 125.90974734375001,
            "value": 0.29133858267716534
          },
          {
            "number": 1,
            "ticks": 85424,
            "time": 125.91564337500002,
            "value": 0.2992125984251969
          },
          {
            "number": 1,
            "ticks": 85432,
            "time": 125.92743543750001,
            "value": 0.3228346456692913
          },
          {
            "number": 1,
            "ticks": 85440,
            "time": 125.93922750000002,
            "value": 0.33070866141732286
          },
          {
            "number": 1,
            "ticks": 85446,
            "time": 125.94807154687501,
            "value": 0.3464566929133858
          },
          {
            "number": 1,
            "ticks": 85454,
            "time": 125.95986360937502,
            "value": 0.3543307086614173
          },
          {
            "number": 1,
            "ticks": 85458,
            "time": 125.96575964062501,
            "value": 0.36220472440944884
          },
          {
            "number": 1,
            "ticks": 85462,
            "time": 125.97165567187501,
            "value": 0.3700787401574803
          },
          {
            "number": 1,
            "ticks": 85470,
            "time": 125.983447734375,
            "value": 0.3779527559055118
          },
          {
            "number": 1,
            "ticks": 85476,
            "time": 125.99229178125002,
            "value": 0.3858267716535433
          },
          {
            "number": 1,
            "ticks": 85478,
            "time": 125.99523979687501,
            "value": 0.3937007874015748
          },
          {
            "number": 1,
            "ticks": 85482,
            "time": 126.00113582812502,
            "value": 0.4015748031496063
          },
          {
            "number": 1,
            "ticks": 85486,
            "time": 126.007031859375,
            "value": 0.4094488188976378
          },
          {
            "number": 1,
            "ticks": 85492,
            "time": 126.01587590625,
            "value": 0.41732283464566927
          },
          {
            "number": 1,
            "ticks": 85496,
            "time": 126.02177193750002,
            "value": 0.4251968503937008
          },
          {
            "number": 1,
            "ticks": 85500,
            "time": 126.02766796875001,
            "value": 0.4330708661417323
          },
          {
            "number": 1,
            "ticks": 85508,
            "time": 126.03946003125002,
            "value": 0.44881889763779526
          },
          {
            "number": 1,
            "ticks": 85514,
            "time": 126.04830407812501,
            "value": 0.4566929133858268
          },
          {
            "number": 1,
            "ticks": 85518,
            "time": 126.05420010937502,
            "value": 0.4645669291338583
          },
          {
            "number": 1,
            "ticks": 85522,
            "time": 126.060096140625,
            "value": 0.47244094488188976
          },
          {
            "number": 1,
            "ticks": 85530,
            "time": 126.07188820312501,
            "value": 0.48031496062992124
          },
          {
            "number": 1,
            "ticks": 85536,
            "time": 126.08073225000001,
            "value": 0.4881889763779528
          },
          {
            "number": 1,
            "ticks": 85538,
            "time": 126.08368026562502,
            "value": 0.49606299212598426
          },
          {
            "number": 1,
            "ticks": 85544,
            "time": 126.09252431250002,
            "value": 0.5039370078740157
          },
          {
            "number": 1,
            "ticks": 85552,
            "time": 126.10431637500001,
            "value": 0.5196850393700787
          },
          {
            "number": 1,
            "ticks": 85556,
            "time": 126.11021240625001,
            "value": 0.5354330708661418
          },
          {
            "number": 1,
            "ticks": 85562,
            "time": 126.11905645312501,
            "value": 0.5433070866141733
          },
          {
            "number": 1,
            "ticks": 85566,
            "time": 126.12495248437502,
            "value": 0.5511811023622047
          },
          {
            "number": 1,
            "ticks": 85574,
            "time": 126.13674454687502,
            "value": 0.5590551181102362
          },
          {
            "number": 1,
            "ticks": 85582,
            "time": 126.148536609375,
            "value": 0.5669291338582677
          },
          {
            "number": 1,
            "ticks": 85600,
            "time": 126.17506875000001,
            "value": 0.5590551181102362
          },
          {
            "number": 1,
            "ticks": 85604,
            "time": 126.18096478125001,
            "value": 0.5511811023622047
          },
          {
            "number": 1,
            "ticks": 85608,
            "time": 126.18686081250002,
            "value": 0.5354330708661418
          },
          {
            "number": 1,
            "ticks": 85612,
            "time": 126.19275684375,
            "value": 0.5275590551181102
          },
          {
            "number": 1,
            "ticks": 85614,
            "time": 126.19570485937501,
            "value": 0.5118110236220472
          },
          {
            "number": 1,
            "ticks": 85618,
            "time": 126.201600890625,
            "value": 0.48031496062992124
          },
          {
            "number": 1,
            "ticks": 85622,
            "time": 126.20749692187502,
            "value": 0.44881889763779526
          },
          {
            "number": 1,
            "ticks": 85626,
            "time": 126.21339295312501,
            "value": 0.4015748031496063
          },
          {
            "number": 1,
            "ticks": 85632,
            "time": 126.222237,
            "value": 0.2992125984251969
          },
          {
            "number": 1,
            "ticks": 85638,
            "time": 126.231081046875,
            "value": 0.23622047244094488
          },
          {
            "number": 1,
            "ticks": 85640,
            "time": 126.23402906250001,
            "value": 0.1732283464566929
          },
          {
            "number": 1,
            "ticks": 85646,
            "time": 126.24287310937501,
            "value": 0.007874015748031496
          },
          {
            "number": 1,
            "ticks": 85654,
            "time": 126.254665171875,
            "value": 0
          },
          {
            "number": 1,
            "ticks": 88456,
            "time": 130.3848350625,
            "value": 0.007874015748031496
          },
          {
            "number": 1,
            "ticks": 88490,
            "time": 130.434951328125,
            "value": 0.015748031496062992
          },
          {
            "number": 1,
            "ticks": 88498,
            "time": 130.44674339062502,
            "value": 0.023622047244094488
          },
          {
            "number": 1,
            "ticks": 88504,
            "time": 130.45558743750001,
            "value": 0.03937007874015748
          },
          {
            "number": 1,
            "ticks": 88506,
            "time": 130.45853545312502,
            "value": 0.047244094488188976
          },
          {
            "number": 1,
            "ticks": 88510,
            "time": 130.464431484375,
            "value": 0.06299212598425197
          },
          {
            "number": 1,
            "ticks": 88514,
            "time": 130.47032751562503,
            "value": 0.07874015748031496
          },
          {
            "number": 1,
            "ticks": 88518,
            "time": 130.47622354687502,
            "value": 0.08661417322834646
          },
          {
            "number": 1,
            "ticks": 88522,
            "time": 130.482119578125,
            "value": 0.10236220472440945
          },
          {
            "number": 1,
            "ticks": 88526,
            "time": 130.48801560937503,
            "value": 0.11811023622047244
          },
          {
            "number": 1,
            "ticks": 88530,
            "time": 130.49391164062502,
            "value": 0.13385826771653545
          },
          {
            "number": 1,
            "ticks": 88534,
            "time": 130.499807671875,
            "value": 0.14960629921259844
          },
          {
            "number": 1,
            "ticks": 88536,
            "time": 130.5027556875,
            "value": 0.16535433070866143
          },
          {
            "number": 1,
            "ticks": 88542,
            "time": 130.511599734375,
            "value": 0.1732283464566929
          },
          {
            "number": 1,
            "ticks": 88546,
            "time": 130.517495765625,
            "value": 0.1889763779527559
          },
          {
            "number": 1,
            "ticks": 88548,
            "time": 130.52044378125,
            "value": 0.2047244094488189
          },
          {
            "number": 1,
            "ticks": 88554,
            "time": 130.529287828125,
            "value": 0.2125984251968504
          },
          {
            "number": 1,
            "ticks": 88558,
            "time": 130.535183859375,
            "value": 0.2283464566929134
          },
          {
            "number": 1,
            "ticks": 88562,
            "time": 130.541079890625,
            "value": 0.23622047244094488
          },
          {
            "number": 1,
            "ticks": 88566,
            "time": 130.546975921875,
            "value": 0.25196850393700787
          },
          {
            "number": 1,
            "ticks": 88570,
            "time": 130.552871953125,
            "value": 0.2677165354330709
          },
          {
            "number": 1,
            "ticks": 88574,
            "time": 130.558767984375,
            "value": 0.28346456692913385
          },
          {
            "number": 1,
            "ticks": 88578,
            "time": 130.564664015625,
            "value": 0.2992125984251969
          },
          {
            "number": 1,
            "ticks": 88582,
            "time": 130.57056004687502,
            "value": 0.31496062992125984
          },
          {
            "number": 1,
            "ticks": 88584,
            "time": 130.57350806250003,
            "value": 0.33070866141732286
          },
          {
            "number": 1,
            "ticks": 88588,
            "time": 130.57940409375001,
            "value": 0.33858267716535434
          },
          {
            "number": 1,
            "ticks": 88592,
            "time": 130.585300125,
            "value": 0.3464566929133858
          },
          {
            "number": 1,
            "ticks": 88598,
            "time": 130.59414417187503,
            "value": 0.36220472440944884
          },
          {
            "number": 1,
            "ticks": 88600,
            "time": 130.5970921875,
            "value": 0.3779527559055118
          },
          {
            "number": 1,
            "ticks": 88604,
            "time": 130.60298821875003,
            "value": 0.3858267716535433
          },
          {
            "number": 1,
            "ticks": 88608,
            "time": 130.60888425000002,
            "value": 0.3937007874015748
          },
          {
            "number": 1,
            "ticks": 88612,
            "time": 130.61478028125,
            "value": 0.4015748031496063
          },
          {
            "number": 1,
            "ticks": 88616,
            "time": 130.62067631250002,
            "value": 0.4094488188976378
          },
          {
            "number": 1,
            "ticks": 88618,
            "time": 130.623624328125,
            "value": 0.41732283464566927
          },
          {
            "number": 1,
            "ticks": 88624,
            "time": 130.632468375,
            "value": 0.4251968503937008
          },
          {
            "number": 1,
            "ticks": 88650,
            "time": 130.670792578125,
            "value": 0.41732283464566927
          },
          {
            "number": 1,
            "ticks": 88654,
            "time": 130.67668860937502,
            "value": 0.4094488188976378
          },
          {
            "number": 1,
            "ticks": 88658,
            "time": 130.682584640625,
            "value": 0.3937007874015748
          },
          {
            "number": 1,
            "ticks": 88660,
            "time": 130.68553265625002,
            "value": 0.3779527559055118
          },
          {
            "number": 1,
            "ticks": 88666,
            "time": 130.69437670312502,
            "value": 0.36220472440944884
          },
          {
            "number": 1,
            "ticks": 88670,
            "time": 130.700272734375,
            "value": 0.3464566929133858
          },
          {
            "number": 1,
            "ticks": 88674,
            "time": 130.70616876562502,
            "value": 0.3228346456692913
          },
          {
            "number": 1,
            "ticks": 88678,
            "time": 130.712064796875,
            "value": 0.29133858267716534
          },
          {
            "number": 1,
            "ticks": 88682,
            "time": 130.71796082812503,
            "value": 0.25196850393700787
          },
          {
            "number": 1,
            "ticks": 88686,
            "time": 130.72385685937502,
            "value": 0.2204724409448819
          },
          {
            "number": 1,
            "ticks": 88690,
            "time": 130.729752890625,
            "value": 0.1889763779527559
          },
          {
            "number": 1,
            "ticks": 88692,
            "time": 130.73270090625002,
            "value": 0.14960629921259844
          },
          {
            "number": 1,
            "ticks": 88696,
            "time": 130.7385969375,
            "value": 0.09448818897637795
          },
          {
            "number": 1,
            "ticks": 88702,
            "time": 130.747440984375,
            "value": 0.05511811023622047
          },
          {
            "number": 1,
            "ticks": 88704,
            "time": 130.750389,
            "value": 0.007874015748031496
          },
          {
            "number": 1,
            "ticks": 88710,
            "time": 130.759233046875,
            "value": 0
          },
          {
            "number": 1,
            "ticks": 94678,
            "time": 139.55611167187502,
            "value": 0.007874015748031496
          },
          {
            "number": 1,
            "ticks": 94752,
            "time": 139.66518825,
            "value": 0.015748031496062992
          },
          {
            "number": 1,
            "ticks": 94760,
            "time": 139.6769803125,
            "value": 0.023622047244094488
          },
          {
            "number": 1,
            "ticks": 94766,
            "time": 139.685824359375,
            "value": 0.031496062992125984
          },
          {
            "number": 1,
            "ticks": 94774,
            "time": 139.697616421875,
            "value": 0.03937007874015748
          },
          {
            "number": 1,
            "ticks": 94778,
            "time": 139.70351245312503,
            "value": 0.047244094488188976
          },
          {
            "number": 1,
            "ticks": 94782,
            "time": 139.70940848437502,
            "value": 0.05511811023622047
          },
          {
            "number": 1,
            "ticks": 94784,
            "time": 139.71235650000003,
            "value": 0.06299212598425197
          },
          {
            "number": 1,
            "ticks": 94792,
            "time": 139.7241485625,
            "value": 0.07086614173228346
          },
          {
            "number": 1,
            "ticks": 94796,
            "time": 139.73004459375002,
            "value": 0.07874015748031496
          },
          {
            "number": 1,
            "ticks": 94802,
            "time": 139.73888864062502,
            "value": 0.08661417322834646
          },
          {
            "number": 1,
            "ticks": 94808,
            "time": 139.74773268750002,
            "value": 0.09448818897637795
          },
          {
            "number": 1,
            "ticks": 94814,
            "time": 139.75657673437502,
            "value": 0.11023622047244094
          },
          {
            "number": 1,
            "ticks": 94822,
            "time": 139.768368796875,
            "value": 0.11811023622047244
          },
          {
            "number": 1,
            "ticks": 94824,
            "time": 139.7713168125,
            "value": 0.12598425196850394
          },
          {
            "number": 1,
            "ticks": 94828,
            "time": 139.77721284375,
            "value": 0.13385826771653545
          },
          {
            "number": 1,
            "ticks": 94840,
            "time": 139.79490093750002,
            "value": 0.14173228346456693
          },
          {
            "number": 1,
            "ticks": 94844,
            "time": 139.80079696875,
            "value": 0.14960629921259844
          },
          {
            "number": 1,
            "ticks": 94846,
            "time": 139.80374498437502,
            "value": 0.15748031496062992
          },
          {
            "number": 1,
            "ticks": 94850,
            "time": 139.809641015625,
            "value": 0.16535433070866143
          },
          {
            "number": 1,
            "ticks": 94858,
            "time": 139.821433078125,
            "value": 0.1732283464566929
          },
          {
            "number": 1,
            "ticks": 94864,
            "time": 139.830277125,
            "value": 0.1968503937007874
          },
          {
            "number": 1,
            "ticks": 94872,
            "time": 139.84206918750002,
            "value": 0.2125984251968504
          },
          {
            "number": 1,
            "ticks": 94876,
            "time": 139.84796521875,
            "value": 0.2204724409448819
          },
          {
            "number": 1,
            "ticks": 94878,
            "time": 139.850913234375,
            "value": 0.2283464566929134
          },
          {
            "number": 1,
            "ticks": 94888,
            "time": 139.8656533125,
            "value": 0.23622047244094488
          },
          {
            "number": 1,
            "ticks": 94890,
            "time": 139.868601328125,
            "value": 0.2440944881889764
          },
          {
            "number": 1,
            "ticks": 94898,
            "time": 139.88039339062502,
            "value": 0.25984251968503935
          },
          {
            "number": 1,
            "ticks": 94906,
            "time": 139.892185453125,
            "value": 0.2755905511811024
          },
          {
            "number": 1,
            "ticks": 94912,
            "time": 139.9010295,
            "value": 0.28346456692913385
          },
          {
            "number": 1,
            "ticks": 94916,
            "time": 139.90692553125,
            "value": 0.29133858267716534
          },
          {
            "number": 1,
            "ticks": 94920,
            "time": 139.9128215625,
            "value": 0.2992125984251969
          },
          {
            "number": 1,
            "ticks": 94928,
            "time": 139.924613625,
            "value": 0.30708661417322836
          },
          {
            "number": 1,
            "ticks": 94930,
            "time": 139.92756164062502,
            "value": 0.31496062992125984
          },
          {
            "number": 1,
            "ticks": 94936,
            "time": 139.9364056875,
            "value": 0.3228346456692913
          },
          {
            "number": 1,
            "ticks": 94942,
            "time": 139.945249734375,
            "value": 0.33070866141732286
          },
          {
            "number": 1,
            "ticks": 94944,
            "time": 139.94819775000002,
            "value": 0.33858267716535434
          },
          {
            "number": 1,
            "ticks": 94948,
            "time": 139.95409378125,
            "value": 0.3464566929133858
          },
          {
            "number": 1,
            "ticks": 94952,
            "time": 139.95998981250003,
            "value": 0.7480314960629921
          },
          {
            "number": 1,
            "ticks": 94956,
            "time": 139.96588584375002,
            "value": 0.3543307086614173
          },
          {
            "number": 1,
            "ticks": 94960,
            "time": 139.971781875,
            "value": 0.36220472440944884
          },
          {
            "number": 1,
            "ticks": 94962,
            "time": 139.974729890625,
            "value": 0.3700787401574803
          },
          {
            "number": 1,
            "ticks": 94964,
            "time": 139.97767790625002,
            "value": 0.6535433070866141
          },
          {
            "number": 1,
            "ticks": 94972,
            "time": 139.98946996875,
            "value": 0.3779527559055118
          },
          {
            "number": 1,
            "ticks": 94980,
            "time": 140.00126203125,
            "value": 0.3858267716535433
          },
          {
            "number": 1,
            "ticks": 94982,
            "time": 140.00421004687502,
            "value": 0.3937007874015748
          },
          {
            "number": 1,
            "ticks": 94984,
            "time": 140.0071580625,
            "value": 0.4409448818897638
          },
          {
            "number": 1,
            "ticks": 94990,
            "time": 140.016002109375,
            "value": 0.4015748031496063
          },
          {
            "number": 1,
            "ticks": 94992,
            "time": 140.018950125,
            "value": 0.2283464566929134
          },
          {
            "number": 1,
            "ticks": 94994,
            "time": 140.021898140625,
            "value": 0.4094488188976378
          },
          {
            "number": 1,
            "ticks": 95002,
            "time": 140.03369020312502,
            "value": 0.4251968503937008
          },
          {
            "number": 1,
            "ticks": 95004,
            "time": 140.03663821875,
            "value": 0.015748031496062992
          },
          {
            "number": 1,
            "ticks": 95012,
            "time": 140.04843028125,
            "value": 0
          },
          {
            "number": 1,
            "ticks": 95014,
            "time": 140.05137829687501,
            "value": 0.4330708661417323
          },
          {
            "number": 1,
            "ticks": 95016,
            "time": 140.05432631250002,
            "value": 0.4409448818897638
          },
          {
            "number": 1,
            "ticks": 95024,
            "time": 140.06611837500003,
            "value": 0.44881889763779526
          },
          {
            "number": 1,
            "ticks": 95034,
            "time": 140.08085845312502,
            "value": 0.4566929133858268
          },
          {
            "number": 1,
            "ticks": 95046,
            "time": 140.098546546875,
            "value": 0.4645669291338583
          },
          {
            "number": 1,
            "ticks": 95084,
            "time": 140.15455884375,
            "value": 0.4566929133858268
          },
          {
            "number": 1,
            "ticks": 95092,
            "time": 140.16635090625002,
            "value": 0.44881889763779526
          },
          {
            "number": 1,
            "ticks": 95096,
            "time": 140.1722469375,
            "value": 0.4330708661417323
          },
          {
            "number": 1,
            "ticks": 95100,
            "time": 140.17814296875002,
            "value": 0.4251968503937008
          },
          {
            "number": 1,
            "ticks": 95104,
            "time": 140.184039,
            "value": 0.4094488188976378
          },
          {
            "number": 1,
            "ticks": 95106,
            "time": 140.18698701562502,
            "value": 0.3858267716535433
          },
          {
            "number": 1,
            "ticks": 95110,
            "time": 140.192883046875,
            "value": 0.3700787401574803
          },
          {
            "number": 1,
            "ticks": 95118,
            "time": 140.20467510937502,
            "value": 0.33858267716535434
          },
          {
            "number": 1,
            "ticks": 95122,
            "time": 140.210571140625,
            "value": 0.3228346456692913
          },
          {
            "number": 1,
            "ticks": 95124,
            "time": 140.21351915625002,
            "value": 0.2992125984251969
          },
          {
            "number": 1,
            "ticks": 95130,
            "time": 140.222363203125,
            "value": 0.2755905511811024
          },
          {
            "number": 1,
            "ticks": 95132,
            "time": 140.22531121875002,
            "value": 0.25984251968503935
          },
          {
            "number": 1,
            "ticks": 95136,
            "time": 140.23120725,
            "value": 0.23622047244094488
          },
          {
            "number": 1,
            "ticks": 95140,
            "time": 140.23710328125,
            "value": 0.2125984251968504
          },
          {
            "number": 1,
            "ticks": 95142,
            "time": 140.240051296875,
            "value": 0.1889763779527559
          },
          {
            "number": 1,
            "ticks": 95146,
            "time": 140.245947328125,
            "value": 0.16535433070866143
          },
          {
            "number": 1,
            "ticks": 95150,
            "time": 140.25184335937502,
            "value": 0.14960629921259844
          },
          {
            "number": 1,
            "ticks": 95154,
            "time": 140.257739390625,
            "value": 0.11811023622047244
          },
          {
            "number": 1,
            "ticks": 95160,
            "time": 140.2665834375,
            "value": 0.07086614173228346
          },
          {
            "number": 1,
            "ticks": 95166,
            "time": 140.275427484375,
            "value": 0.047244094488188976
          },
          {
            "number": 1,
            "ticks": 95172,
            "time": 140.28427153125,
            "value": 0.007874015748031496
          },
          {
            "number": 1,
            "ticks": 95182,
            "time": 140.29901160937501,
            "value": 0
          },
          {
            "number": 1,
            "ticks": 95512,
            "time": 140.78543418750002,
            "value": 0.031496062992125984
          },
          {
            "number": 1,
            "ticks": 95520,
            "time": 140.79722625000002,
            "value": 0.08661417322834646
          },
          {
            "number": 1,
            "ticks": 95532,
            "time": 140.81491434375002,
            "value": 0.13385826771653545
          },
          {
            "number": 1,
            "ticks": 95540,
            "time": 140.82670640625003,
            "value": 0.1732283464566929
          },
          {
            "number": 1,
            "ticks": 95548,
            "time": 140.83849846875,
            "value": 0.2125984251968504
          },
          {
            "number": 1,
            "ticks": 95568,
            "time": 140.867978625,
            "value": 0.29133858267716534
          },
          {
            "number": 1,
            "ticks": 95580,
            "time": 140.88566671875,
            "value": 0.33070866141732286
          },
          {
            "number": 1,
            "ticks": 95588,
            "time": 140.89745878125,
            "value": 0.3779527559055118
          },
          {
            "number": 1,
            "ticks": 95608,
            "time": 140.9269389375,
            "value": 0.4251968503937008
          },
          {
            "number": 1,
            "ticks": 95628,
            "time": 140.95641909375001,
            "value": 0.49606299212598426
          },
          {
            "number": 1,
            "ticks": 95648,
            "time": 140.98589925000002,
            "value": 0.5354330708661418
          },
          {
            "number": 1,
            "ticks": 95668,
            "time": 141.01537940625002,
            "value": 0.5984251968503937
          },
          {
            "number": 1,
            "ticks": 95688,
            "time": 141.04485956250002,
            "value": 0.6377952755905512
          },
          {
            "number": 1,
            "ticks": 95700,
            "time": 141.06254765625002,
            "value": 0.6771653543307087
          },
          {
            "number": 1,
            "ticks": 95708,
            "time": 141.07433971875002,
            "value": 0.7322834645669292
          },
          {
            "number": 1,
            "ticks": 95720,
            "time": 141.09202781250002,
            "value": 0.7874015748031497
          },
          {
            "number": 1,
            "ticks": 95740,
            "time": 141.12150796875,
            "value": 0.8503937007874016
          },
          {
            "number": 1,
            "ticks": 95748,
            "time": 141.13330003125,
            "value": 0.9133858267716536
          },
          {
            "number": 1,
            "ticks": 95760,
            "time": 141.15098812500003,
            "value": 0.968503937007874
          },
          {
            "number": 1,
            "ticks": 95768,
            "time": 141.1627801875,
            "value": 1
          },
          {
            "number": 1,
            "ticks": 95808,
            "time": 141.2217405,
            "value": 0.8503937007874016
          },
          {
            "number": 1,
            "ticks": 95820,
            "time": 141.23942859375,
            "value": 0.5039370078740157
          },
          {
            "number": 1,
            "ticks": 95828,
            "time": 141.25122065625,
            "value": 0.09448818897637795
          },
          {
            "number": 1,
            "ticks": 95840,
            "time": 141.26890875,
            "value": 0
          },
          {
            "number": 1,
            "ticks": 96276,
            "time": 141.91157615625002,
            "value": 0.007874015748031496
          },
          {
            "number": 1,
            "ticks": 96296,
            "time": 141.94105631250002,
            "value": 0.08661417322834646
          },
          {
            "number": 1,
            "ticks": 96316,
            "time": 141.97053646875,
            "value": 0.12598425196850394
          },
          {
            "number": 1,
            "ticks": 96376,
            "time": 142.0589769375,
            "value": 0.16535433070866143
          },
          {
            "number": 1,
            "ticks": 96416,
            "time": 142.11793725,
            "value": 0.2125984251968504
          },
          {
            "number": 1,
            "ticks": 96436,
            "time": 142.14741740625,
            "value": 0.2677165354330709
          },
          {
            "number": 1,
            "ticks": 96444,
            "time": 142.15920946875002,
            "value": 0.30708661417322836
          },
          {
            "number": 1,
            "ticks": 96464,
            "time": 142.18868962500002,
            "value": 0.3858267716535433
          },
          {
            "number": 1,
            "ticks": 96484,
            "time": 142.21816978125,
            "value": 0.4645669291338583
          },
          {
            "number": 1,
            "ticks": 96504,
            "time": 142.2476499375,
            "value": 0.5590551181102362
          },
          {
            "number": 1,
            "ticks": 96524,
            "time": 142.27713009375003,
            "value": 0.6141732283464567
          },
          {
            "number": 1,
            "ticks": 96544,
            "time": 142.30661025,
            "value": 0.6614173228346457
          },
          {
            "number": 1,
            "ticks": 96556,
            "time": 142.32429834375,
            "value": 0.7322834645669292
          },
          {
            "number": 1,
            "ticks": 96564,
            "time": 142.33609040625,
            "value": 0.7874015748031497
          },
          {
            "number": 1,
            "ticks": 96576,
            "time": 142.3537785,
            "value": 0.8267716535433071
          },
          {
            "number": 1,
            "ticks": 96596,
            "time": 142.38325865625,
            "value": 0.8740157480314961
          },
          {
            "number": 1,
            "ticks": 96604,
            "time": 142.39505071875,
            "value": 0.9133858267716536
          },
          {
            "number": 1,
            "ticks": 96624,
            "time": 142.42453087500002,
            "value": 0.984251968503937
          },
          {
            "number": 1,
            "ticks": 96652,
            "time": 142.46580309375,
            "value": 1
          },
          {
            "number": 1,
            "ticks": 96772,
            "time": 142.64268403125,
            "value": 0.7952755905511811
          },
          {
            "number": 1,
            "ticks": 96784,
            "time": 142.660372125,
            "value": 0.2283464566929134
          },
          {
            "number": 1,
            "ticks": 96792,
            "time": 142.67216418750002,
            "value": 0
          },
          {
            "number": 1,
            "ticks": 97172,
            "time": 143.23228715625,
            "value": 0.007874015748031496
          },
          {
            "number": 1,
            "ticks": 97180,
            "time": 143.24407921875002,
            "value": 0.07086614173228346
          },
          {
            "number": 1,
            "ticks": 97192,
            "time": 143.2617673125,
            "value": 0.14960629921259844
          },
          {
            "number": 1,
            "ticks": 97200,
            "time": 143.27355937500002,
            "value": 0.25196850393700787
          },
          {
            "number": 1,
            "ticks": 97212,
            "time": 143.29124746875002,
            "value": 0.3858267716535433
          },
          {
            "number": 1,
            "ticks": 97220,
            "time": 143.30303953125002,
            "value": 0.5196850393700787
          },
          {
            "number": 1,
            "ticks": 97232,
            "time": 143.32072762500002,
            "value": 0.6220472440944882
          },
          {
            "number": 1,
            "ticks": 97240,
            "time": 143.3325196875,
            "value": 0.7480314960629921
          },
          {
            "number": 1,
            "ticks": 97252,
            "time": 143.35020778125002,
            "value": 0.8346456692913385
          },
          {
            "number": 1,
            "ticks": 97260,
            "time": 143.36199984375,
            "value": 0.9291338582677166
          },
          {
            "number": 1,
            "ticks": 97272,
            "time": 143.37968793750002,
            "value": 1
          },
          {
            "number": 1,
            "ticks": 97332,
            "time": 143.46812840625,
            "value": 0.8503937007874016
          },
          {
            "number": 1,
            "ticks": 97344,
            "time": 143.4858165,
            "value": 0.48031496062992124
          },
          {
            "number": 1,
            "ticks": 97352,
            "time": 143.4976085625,
            "value": 0.047244094488188976
          },
          {
            "number": 1,
            "ticks": 97360,
            "time": 143.509400625,
            "value": 0
          },
          {
            "number": 1,
            "ticks": 97788,
            "time": 144.14027596875002,
            "value": 0.007874015748031496
          },
          {
            "number": 1,
            "ticks": 97796,
            "time": 144.15206803125002,
            "value": 0.047244094488188976
          },
          {
            "number": 1,
            "ticks": 97808,
            "time": 144.16975612500002,
            "value": 0.09448818897637795
          },
          {
            "number": 1,
            "ticks": 97828,
            "time": 144.19923628125,
            "value": 0.13385826771653545
          },
          {
            "number": 1,
            "ticks": 97868,
            "time": 144.25819659375003,
            "value": 0.1732283464566929
          },
          {
            "number": 1,
            "ticks": 97888,
            "time": 144.28767675,
            "value": 0.2125984251968504
          },
          {
            "number": 1,
            "ticks": 97928,
            "time": 144.3466370625,
            "value": 0.2677165354330709
          },
          {
            "number": 1,
            "ticks": 97948,
            "time": 144.37611721875,
            "value": 0.3228346456692913
          },
          {
            "number": 1,
            "ticks": 97956,
            "time": 144.38790928125002,
            "value": 0.36220472440944884
          },
          {
            "number": 1,
            "ticks": 97976,
            "time": 144.41738943750002,
            "value": 0.4015748031496063
          },
          {
            "number": 1,
            "ticks": 97996,
            "time": 144.44686959375,
            "value": 0.4566929133858268
          },
          {
            "number": 1,
            "ticks": 98016,
            "time": 144.47634975000003,
            "value": 0.5039370078740157
          },
          {
            "number": 1,
            "ticks": 98036,
            "time": 144.50582990625003,
            "value": 0.5433070866141733
          },
          {
            "number": 1,
            "ticks": 98056,
            "time": 144.5353100625,
            "value": 0.5826771653543307
          },
          {
            "number": 1,
            "ticks": 98084,
            "time": 144.57658228125,
            "value": 0.6377952755905512
          },
          {
            "number": 1,
            "ticks": 98108,
            "time": 144.61195846875003,
            "value": 0.6771653543307087
          },
          {
            "number": 1,
            "ticks": 98116,
            "time": 144.62375053125,
            "value": 0.7322834645669292
          },
          {
            "number": 1,
            "ticks": 98136,
            "time": 144.6532306875,
            "value": 0.7716535433070866
          },
          {
            "number": 1,
            "ticks": 98156,
            "time": 144.68271084375002,
            "value": 0.8267716535433071
          },
          {
            "number": 1,
            "ticks": 98176,
            "time": 144.71219100000002,
            "value": 0.8661417322834646
          },
          {
            "number": 1,
            "ticks": 98184,
            "time": 144.72398306250003,
            "value": 0.9133858267716536
          },
          {
            "number": 1,
            "ticks": 98196,
            "time": 144.74167115625002,
            "value": 0.984251968503937
          },
          {
            "number": 1,
            "ticks": 98204,
            "time": 144.75346321875003,
            "value": 1
          },
          {
            "number": 1,
            "ticks": 98316,
            "time": 144.91855209375,
            "value": 0.7480314960629921
          },
          {
            "number": 1,
            "ticks": 98324,
            "time": 144.93034415625002,
            "value": 0.4409448818897638
          },
          {
            "number": 1,
            "ticks": 98336,
            "time": 144.94803225,
            "value": 0.12598425196850394
          },
          {
            "number": 1,
            "ticks": 98344,
            "time": 144.95982431250002,
            "value": 0
          },
          {
            "number": 1,
            "ticks": 98604,
            "time": 145.34306634375002,
            "value": 0.047244094488188976
          },
          {
            "number": 1,
            "ticks": 98612,
            "time": 145.35485840625,
            "value": 0.12598425196850394
          },
          {
            "number": 1,
            "ticks": 98624,
            "time": 145.3725465,
            "value": 0.1732283464566929
          },
          {
            "number": 1,
            "ticks": 98632,
            "time": 145.38433856250003,
            "value": 0.2283464566929134
          },
          {
            "number": 1,
            "ticks": 98644,
            "time": 145.40202665625003,
            "value": 0.29133858267716534
          },
          {
            "number": 1,
            "ticks": 98652,
            "time": 145.41381871875,
            "value": 0.3464566929133858
          },
          {
            "number": 1,
            "ticks": 98672,
            "time": 145.443298875,
            "value": 0.3858267716535433
          },
          {
            "number": 1,
            "ticks": 98712,
            "time": 145.50225918750002,
            "value": 0.4409448818897638
          },
          {
            "number": 1,
            "ticks": 98744,
            "time": 145.54942743750001,
            "value": 0.48031496062992124
          },
          {
            "number": 1,
            "ticks": 98752,
            "time": 145.56121950000002,
            "value": 0.5196850393700787
          },
          {
            "number": 1,
            "ticks": 98772,
            "time": 145.59069965625002,
            "value": 0.6141732283464567
          },
          {
            "number": 1,
            "ticks": 98784,
            "time": 145.60838775000002,
            "value": 0.6771653543307087
          },
          {
            "number": 1,
            "ticks": 98792,
            "time": 145.6201798125,
            "value": 0.7716535433070866
          },
          {
            "number": 1,
            "ticks": 98804,
            "time": 145.63786790625,
            "value": 0.889763779527559
          },
          {
            "number": 1,
            "ticks": 98812,
            "time": 145.64965996875003,
            "value": 1
          },
          {
            "number": 1,
            "ticks": 98892,
            "time": 145.76758059375,
            "value": 0.7952755905511811
          },
          {
            "number": 1,
            "ticks": 98900,
            "time": 145.77937265625,
            "value": 0.4409448818897638
          },
          {
            "number": 1,
            "ticks": 98912,
            "time": 145.79706075,
            "value": 0.047244094488188976
          },
          {
            "number": 1,
            "ticks": 98920,
            "time": 145.80885281250002,
            "value": 0
          },
          {
            "number": 1,
            "ticks": 99360,
            "time": 146.45741625000002,
            "value": 0.015748031496062992
          },
          {
            "number": 1,
            "ticks": 99368,
            "time": 146.4692083125,
            "value": 0.05511811023622047
          },
          {
            "number": 1,
            "ticks": 99380,
            "time": 146.48689640625,
            "value": 0.11023622047244094
          },
          {
            "number": 1,
            "ticks": 99400,
            "time": 146.51637656250003,
            "value": 0.1732283464566929
          },
          {
            "number": 1,
            "ticks": 99500,
            "time": 146.66377734375,
            "value": 0.2125984251968504
          },
          {
            "number": 1,
            "ticks": 99520,
            "time": 146.69325750000002,
            "value": 0.2677165354330709
          },
          {
            "number": 1,
            "ticks": 99540,
            "time": 146.72273765625002,
            "value": 0.33070866141732286
          },
          {
            "number": 1,
            "ticks": 99560,
            "time": 146.7522178125,
            "value": 0.3858267716535433
          },
          {
            "number": 1,
            "ticks": 99568,
            "time": 146.76400987500003,
            "value": 0.4251968503937008
          },
          {
            "number": 1,
            "ticks": 99576,
            "time": 146.7758019375,
            "value": 0.4645669291338583
          },
          {
            "number": 1,
            "ticks": 99588,
            "time": 146.79349003125,
            "value": 0.5039370078740157
          },
          {
            "number": 1,
            "ticks": 99596,
            "time": 146.80528209375,
            "value": 0.5590551181102362
          },
          {
            "number": 1,
            "ticks": 99608,
            "time": 146.8229701875,
            "value": 0.5984251968503937
          },
          {
            "number": 1,
            "ticks": 99636,
            "time": 146.86424240625,
            "value": 0.6377952755905512
          },
          {
            "number": 1,
            "ticks": 99668,
            "time": 146.91141065625,
            "value": 0.7086614173228346
          },
          {
            "number": 1,
            "ticks": 99688,
            "time": 146.94089081250002,
            "value": 0.7559055118110236
          },
          {
            "number": 1,
            "ticks": 99708,
            "time": 146.97037096875002,
            "value": 0.8346456692913385
          },
          {
            "number": 1,
            "ticks": 99716,
            "time": 146.98216303125,
            "value": 0.905511811023622
          },
          {
            "number": 1,
            "ticks": 99728,
            "time": 146.999851125,
            "value": 0.968503937007874
          },
          {
            "number": 1,
            "ticks": 99736,
            "time": 147.01164318750003,
            "value": 1
          },
          {
            "number": 1,
            "ticks": 99808,
            "time": 147.11777175000003,
            "value": 0.8110236220472441
          },
          {
            "number": 1,
            "ticks": 99816,
            "time": 147.1295638125,
            "value": 0.48031496062992124
          },
          {
            "number": 1,
            "ticks": 99828,
            "time": 147.14725190625,
            "value": 0.08661417322834646
          },
          {
            "number": 1,
            "ticks": 99836,
            "time": 147.15904396875,
            "value": 0
          },
          {
            "number": 1,
            "ticks": 100244,
            "time": 147.76043915625002,
            "value": 0.031496062992125984
          },
          {
            "number": 1,
            "ticks": 100264,
            "time": 147.78991931250002,
            "value": 0.08661417322834646
          },
          {
            "number": 1,
            "ticks": 100296,
            "time": 147.83708756250002,
            "value": 0.13385826771653545
          },
          {
            "number": 1,
            "ticks": 100312,
            "time": 147.86067168750003,
            "value": 0.1732283464566929
          },
          {
            "number": 1,
            "ticks": 100332,
            "time": 147.89015184375,
            "value": 0.2125984251968504
          },
          {
            "number": 1,
            "ticks": 100364,
            "time": 147.93732009375,
            "value": 0.25196850393700787
          },
          {
            "number": 1,
            "ticks": 100452,
            "time": 148.06703278125002,
            "value": 0.29133858267716534
          },
          {
            "number": 1,
            "ticks": 100472,
            "time": 148.0965129375,
            "value": 0.3464566929133858
          },
          {
            "number": 1,
            "ticks": 100492,
            "time": 148.12599309375003,
            "value": 0.3858267716535433
          },
          {
            "number": 1,
            "ticks": 100524,
            "time": 148.17316134375002,
            "value": 0.4409448818897638
          },
          {
            "number": 1,
            "ticks": 100572,
            "time": 148.24391371875,
            "value": 0.48031496062992124
          },
          {
            "number": 1,
            "ticks": 100612,
            "time": 148.30287403125,
            "value": 0.5354330708661418
          },
          {
            "number": 1,
            "ticks": 100652,
            "time": 148.36183434375,
            "value": 0.5748031496062992
          },
          {
            "number": 1,
            "ticks": 100720,
            "time": 148.46206687500003,
            "value": 0.6141732283464567
          },
          {
            "number": 1,
            "ticks": 100800,
            "time": 148.57998750000002,
            "value": 0.5354330708661418
          },
          {
            "number": 1,
            "ticks": 100820,
            "time": 148.60946765625,
            "value": 0.4409448818897638
          },
          {
            "number": 1,
            "ticks": 100832,
            "time": 148.62715575000001,
            "value": 0.3858267716535433
          },
          {
            "number": 1,
            "ticks": 100852,
            "time": 148.65663590625002,
            "value": 0.28346456692913385
          },
          {
            "number": 1,
            "ticks": 100860,
            "time": 148.66842796875002,
            "value": 0.2283464566929134
          },
          {
            "number": 1,
            "ticks": 100872,
            "time": 148.68611606250002,
            "value": 0.13385826771653545
          },
          {
            "number": 1,
            "ticks": 100880,
            "time": 148.697908125,
            "value": 0.09448818897637795
          },
          {
            "number": 1,
            "ticks": 100892,
            "time": 148.71559621875,
            "value": 0.047244094488188976
          },
          {
            "number": 1,
            "ticks": 100900,
            "time": 148.72738828125003,
            "value": 0
          },
          {
            "number": 1,
            "ticks": 101628,
            "time": 149.80046596875002,
            "value": 0.047244094488188976
          },
          {
            "number": 1,
            "ticks": 101636,
            "time": 149.81225803125,
            "value": 0.08661417322834646
          },
          {
            "number": 1,
            "ticks": 101656,
            "time": 149.84173818750003,
            "value": 0.13385826771653545
          },
          {
            "number": 1,
            "ticks": 101676,
            "time": 149.87121834375,
            "value": 0.1732283464566929
          },
          {
            "number": 1,
            "ticks": 101696,
            "time": 149.9006985,
            "value": 0.2125984251968504
          },
          {
            "number": 1,
            "ticks": 101716,
            "time": 149.93017865625004,
            "value": 0.25196850393700787
          },
          {
            "number": 1,
            "ticks": 101728,
            "time": 149.94786675000003,
            "value": 0.29133858267716534
          },
          {
            "number": 1,
            "ticks": 101748,
            "time": 149.97734690625,
            "value": 0.33070866141732286
          },
          {
            "number": 1,
            "ticks": 101756,
            "time": 149.98913896875,
            "value": 0.3779527559055118
          },
          {
            "number": 1,
            "ticks": 101776,
            "time": 150.01861912500001,
            "value": 0.4409448818897638
          },
          {
            "number": 1,
            "ticks": 101796,
            "time": 150.04809928125002,
            "value": 0.5196850393700787
          },
          {
            "number": 1,
            "ticks": 101816,
            "time": 150.0775794375,
            "value": 0.5984251968503937
          },
          {
            "number": 1,
            "ticks": 101828,
            "time": 150.09526753125002,
            "value": 0.6377952755905512
          },
          {
            "number": 1,
            "ticks": 101848,
            "time": 150.12474768750002,
            "value": 0.7086614173228346
          },
          {
            "number": 1,
            "ticks": 101856,
            "time": 150.13653975000003,
            "value": 0.7480314960629921
          },
          {
            "number": 1,
            "ticks": 101876,
            "time": 150.16601990625,
            "value": 0.7874015748031497
          },
          {
            "number": 1,
            "ticks": 101928,
            "time": 150.2426683125,
            "value": 0.7322834645669292
          },
          {
            "number": 1,
            "ticks": 101936,
            "time": 150.254460375,
            "value": 0.5748031496062992
          },
          {
            "number": 1,
            "ticks": 101948,
            "time": 150.27214846875,
            "value": 0.30708661417322836
          },
          {
            "number": 1,
            "ticks": 101956,
            "time": 150.28394053125,
            "value": 0.047244094488188976
          },
          {
            "number": 1,
            "ticks": 101964,
            "time": 150.29573259375002,
            "value": 0
          },
          {
            "number": 1,
            "ticks": 103200,
            "time": 152.11760625000002,
            "value": 0.007874015748031496
          },
          {
            "number": 1,
            "ticks": 103220,
            "time": 152.14708640625,
            "value": 0.05511811023622047
          },
          {
            "number": 1,
            "ticks": 103228,
            "time": 152.15887846875003,
            "value": 0.09448818897637795
          },
          {
            "number": 1,
            "ticks": 103248,
            "time": 152.188358625,
            "value": 0.14960629921259844
          },
          {
            "number": 1,
            "ticks": 103268,
            "time": 152.21783878125,
            "value": 0.1889763779527559
          },
          {
            "number": 1,
            "ticks": 103288,
            "time": 152.2473189375,
            "value": 0.25196850393700787
          },
          {
            "number": 1,
            "ticks": 103308,
            "time": 152.27679909375001,
            "value": 0.30708661417322836
          },
          {
            "number": 1,
            "ticks": 103320,
            "time": 152.2944871875,
            "value": 0.3464566929133858
          },
          {
            "number": 1,
            "ticks": 103340,
            "time": 152.32396734375,
            "value": 0.41732283464566927
          },
          {
            "number": 1,
            "ticks": 103360,
            "time": 152.35344750000002,
            "value": 0.5039370078740157
          },
          {
            "number": 1,
            "ticks": 103380,
            "time": 152.38292765625002,
            "value": 0.5826771653543307
          },
          {
            "number": 1,
            "ticks": 103400,
            "time": 152.4124078125,
            "value": 0.6377952755905512
          },
          {
            "number": 1,
            "ticks": 103408,
            "time": 152.42419987500003,
            "value": 0.6771653543307087
          },
          {
            "number": 1,
            "ticks": 103420,
            "time": 152.44188796875002,
            "value": 0.7559055118110236
          },
          {
            "number": 1,
            "ticks": 103428,
            "time": 152.45368003125,
            "value": 0.7952755905511811
          },
          {
            "number": 1,
            "ticks": 103436,
            "time": 152.46547209375,
            "value": 0.8346456692913385
          },
          {
            "number": 1,
            "ticks": 103456,
            "time": 152.49495225,
            "value": 0.8740157480314961
          },
          {
            "number": 1,
            "ticks": 103476,
            "time": 152.52443240625,
            "value": 0.7559055118110236
          },
          {
            "number": 1,
            "ticks": 103488,
            "time": 152.5421205,
            "value": 0.5748031496062992
          },
          {
            "number": 1,
            "ticks": 103496,
            "time": 152.55391256250002,
            "value": 0.25196850393700787
          },
          {
            "number": 1,
            "ticks": 103508,
            "time": 152.57160065625,
            "value": 0
          },
          {
            "number": 1,
            "ticks": 104660,
            "time": 154.26965765625,
            "value": 0.007874015748031496
          },
          {
            "number": 1,
            "ticks": 104680,
            "time": 154.29913781250002,
            "value": 0.05511811023622047
          },
          {
            "number": 1,
            "ticks": 104692,
            "time": 154.31682590625002,
            "value": 0.09448818897637795
          },
          {
            "number": 1,
            "ticks": 104720,
            "time": 154.358098125,
            "value": 0.14960629921259844
          },
          {
            "number": 1,
            "ticks": 104732,
            "time": 154.37578621875,
            "value": 0.1889763779527559
          },
          {
            "number": 1,
            "ticks": 104752,
            "time": 154.40526637500002,
            "value": 0.2440944881889764
          },
          {
            "number": 1,
            "ticks": 104760,
            "time": 154.4170584375,
            "value": 0.28346456692913385
          },
          {
            "number": 1,
            "ticks": 104772,
            "time": 154.43474653125003,
            "value": 0.3228346456692913
          },
          {
            "number": 1,
            "ticks": 104792,
            "time": 154.4642266875,
            "value": 0.3779527559055118
          },
          {
            "number": 1,
            "ticks": 104800,
            "time": 154.47601875000004,
            "value": 0.41732283464566927
          },
          {
            "number": 1,
            "ticks": 104812,
            "time": 154.49370684375003,
            "value": 0.48031496062992124
          },
          {
            "number": 1,
            "ticks": 104820,
            "time": 154.50549890625,
            "value": 0.5433070866141733
          },
          {
            "number": 1,
            "ticks": 104832,
            "time": 154.523187,
            "value": 0.5984251968503937
          },
          {
            "number": 1,
            "ticks": 104848,
            "time": 154.54677112500002,
            "value": 0.6377952755905512
          },
          {
            "number": 1,
            "ticks": 104872,
            "time": 154.5821473125,
            "value": 0.7086614173228346
          },
          {
            "number": 1,
            "ticks": 104880,
            "time": 154.59393937500002,
            "value": 0.7559055118110236
          },
          {
            "number": 1,
            "ticks": 104900,
            "time": 154.62341953125,
            "value": 0.8267716535433071
          },
          {
            "number": 1,
            "ticks": 104920,
            "time": 154.65289968750002,
            "value": 0.905511811023622
          },
          {
            "number": 1,
            "ticks": 104948,
            "time": 154.69417190625,
            "value": 0.952755905511811
          },
          {
            "number": 1,
            "ticks": 104972,
            "time": 154.72954809375,
            "value": 0.9133858267716536
          },
          {
            "number": 1,
            "ticks": 104980,
            "time": 154.74134015625003,
            "value": 0.8346456692913385
          },
          {
            "number": 1,
            "ticks": 104988,
            "time": 154.75313221875,
            "value": 0.7165354330708661
          },
          {
            "number": 1,
            "ticks": 105000,
            "time": 154.7708203125,
            "value": 0.5590551181102362
          },
          {
            "number": 1,
            "ticks": 105008,
            "time": 154.782612375,
            "value": 0.25196850393700787
          },
          {
            "number": 1,
            "ticks": 105020,
            "time": 154.80030046875,
            "value": 0
          },
          {
            "number": 1,
            "ticks": 106828,
            "time": 157.46530659375003,
            "value": 0.047244094488188976
          },
          {
            "number": 1,
            "ticks": 106848,
            "time": 157.49478675,
            "value": 0.08661417322834646
          },
          {
            "number": 1,
            "ticks": 106888,
            "time": 157.55374706250004,
            "value": 0.12598425196850394
          },
          {
            "number": 1,
            "ticks": 107128,
            "time": 157.9075089375,
            "value": 0.05511811023622047
          },
          {
            "number": 1,
            "ticks": 107148,
            "time": 157.93698909375001,
            "value": 0.015748031496062992
          },
          {
            "number": 1,
            "ticks": 107176,
            "time": 157.97826131250002,
            "value": 0
          }
        ]
      },
      "pitchBends": [
        {
          "ticks": 75826,
          "time": 111.76811639062501,
          "value": -0.03125
        },
        {
          "ticks": 75830,
          "time": 111.77401242187501,
          "value": -0.0625
        },
        {
          "ticks": 75834,
          "time": 111.779908453125,
          "value": -0.09375
        },
        {
          "ticks": 75840,
          "time": 111.78875250000002,
          "value": -0.109375
        },
        {
          "ticks": 75844,
          "time": 111.79464853125,
          "value": -0.140625
        },
        {
          "ticks": 75850,
          "time": 111.803492578125,
          "value": -0.15625
        },
        {
          "ticks": 75852,
          "time": 111.80644059375001,
          "value": -0.21875
        },
        {
          "ticks": 75860,
          "time": 111.81823265625002,
          "value": -0.234375
        },
        {
          "ticks": 75886,
          "time": 111.856556859375,
          "value": -0.203125
        },
        {
          "ticks": 75890,
          "time": 111.86245289062502,
          "value": -0.1875
        },
        {
          "ticks": 75894,
          "time": 111.86834892187501,
          "value": -0.125
        },
        {
          "ticks": 75900,
          "time": 111.87719296875001,
          "value": -0.078125
        },
        {
          "ticks": 75904,
          "time": 111.883089,
          "value": -0.015625
        },
        {
          "ticks": 75994,
          "time": 112.01574970312501,
          "value": -0.03125
        },
        {
          "ticks": 75998,
          "time": 112.02164573437501,
          "value": -0.0625
        },
        {
          "ticks": 76002,
          "time": 112.027541765625,
          "value": -0.09375
        },
        {
          "ticks": 76006,
          "time": 112.033437796875,
          "value": -0.125
        },
        {
          "ticks": 76010,
          "time": 112.03933382812501,
          "value": -0.15625
        },
        {
          "ticks": 76012,
          "time": 112.04228184375,
          "value": -0.171875
        },
        {
          "ticks": 76018,
          "time": 112.051125890625,
          "value": -0.1875
        },
        {
          "ticks": 76022,
          "time": 112.05702192187502,
          "value": -0.21875
        },
        {
          "ticks": 76028,
          "time": 112.06586596875002,
          "value": -0.234375
        },
        {
          "ticks": 76036,
          "time": 112.07765803125001,
          "value": -0.25
        },
        {
          "ticks": 76062,
          "time": 112.11598223437501,
          "value": -0.234375
        },
        {
          "ticks": 76066,
          "time": 112.121878265625,
          "value": -0.203125
        },
        {
          "ticks": 76070,
          "time": 112.12777429687502,
          "value": -0.1875
        },
        {
          "ticks": 76074,
          "time": 112.133670328125,
          "value": -0.15625
        },
        {
          "ticks": 76078,
          "time": 112.13956635937501,
          "value": -0.125
        },
        {
          "ticks": 76082,
          "time": 112.14546239062501,
          "value": -0.09375
        },
        {
          "ticks": 76086,
          "time": 112.15135842187502,
          "value": -0.0625
        },
        {
          "ticks": 76090,
          "time": 112.157254453125,
          "value": -0.03125
        },
        {
          "ticks": 76092,
          "time": 112.16020246875001,
          "value": -0.015625
        },
        {
          "ticks": 76174,
          "time": 112.281071109375,
          "value": -0.03125
        },
        {
          "ticks": 76176,
          "time": 112.28401912500001,
          "value": -0.0625
        },
        {
          "ticks": 76180,
          "time": 112.28991515625,
          "value": -0.09375
        },
        {
          "ticks": 76184,
          "time": 112.29581118750002,
          "value": -0.125
        },
        {
          "ticks": 76188,
          "time": 112.30170721875001,
          "value": -0.140625
        },
        {
          "ticks": 76192,
          "time": 112.30760325,
          "value": -0.171875
        },
        {
          "ticks": 76196,
          "time": 112.31349928125002,
          "value": -0.1875
        },
        {
          "ticks": 76200,
          "time": 112.3193953125,
          "value": -0.21875
        },
        {
          "ticks": 76204,
          "time": 112.32529134375001,
          "value": -0.234375
        },
        {
          "ticks": 76212,
          "time": 112.33708340625002,
          "value": -0.25
        },
        {
          "ticks": 76218,
          "time": 112.34592745312501,
          "value": -0.265625
        },
        {
          "ticks": 76242,
          "time": 112.381303640625,
          "value": -0.25
        },
        {
          "ticks": 76244,
          "time": 112.38425165625002,
          "value": -0.234375
        },
        {
          "ticks": 76248,
          "time": 112.3901476875,
          "value": -0.203125
        },
        {
          "ticks": 76252,
          "time": 112.39604371875001,
          "value": -0.171875
        },
        {
          "ticks": 76256,
          "time": 112.40193975000001,
          "value": -0.140625
        },
        {
          "ticks": 76260,
          "time": 112.40783578125001,
          "value": -0.09375
        },
        {
          "ticks": 76264,
          "time": 112.4137318125,
          "value": -0.046875
        },
        {
          "ticks": 76268,
          "time": 112.41962784375002,
          "value": -0.015625
        },
        {
          "ticks": 76272,
          "time": 112.42552387500001,
          "value": 0
        },
        {
          "ticks": 76330,
          "time": 112.51101632812501,
          "value": -0.03125
        },
        {
          "ticks": 76334,
          "time": 112.51691235937501,
          "value": -0.0625
        },
        {
          "ticks": 76338,
          "time": 112.52280839062502,
          "value": -0.09375
        },
        {
          "ticks": 76342,
          "time": 112.528704421875,
          "value": -0.140625
        },
        {
          "ticks": 76344,
          "time": 112.53165243750001,
          "value": -0.171875
        },
        {
          "ticks": 76350,
          "time": 112.54049648437501,
          "value": -0.203125
        },
        {
          "ticks": 76354,
          "time": 112.546392515625,
          "value": -0.21875
        },
        {
          "ticks": 76356,
          "time": 112.54934053125001,
          "value": -0.25
        },
        {
          "ticks": 76360,
          "time": 112.5552365625,
          "value": -0.28125
        },
        {
          "ticks": 76364,
          "time": 112.56113259375002,
          "value": -0.296875
        },
        {
          "ticks": 76372,
          "time": 112.57292465625001,
          "value": -0.3125
        },
        {
          "ticks": 76378,
          "time": 112.58176870312501,
          "value": -0.328125
        },
        {
          "ticks": 76402,
          "time": 112.617144890625,
          "value": -0.3125
        },
        {
          "ticks": 76406,
          "time": 112.62304092187502,
          "value": -0.28125
        },
        {
          "ticks": 76410,
          "time": 112.628936953125,
          "value": -0.25
        },
        {
          "ticks": 76412,
          "time": 112.63188496875001,
          "value": -0.21875
        },
        {
          "ticks": 76416,
          "time": 112.637781,
          "value": -0.171875
        },
        {
          "ticks": 76422,
          "time": 112.64662504687502,
          "value": -0.125
        },
        {
          "ticks": 76424,
          "time": 112.64957306250001,
          "value": -0.09375
        },
        {
          "ticks": 76428,
          "time": 112.65546909375001,
          "value": -0.0625
        },
        {
          "ticks": 76432,
          "time": 112.661365125,
          "value": -0.046875
        },
        {
          "ticks": 76436,
          "time": 112.66726115625002,
          "value": -0.03125
        },
        {
          "ticks": 76444,
          "time": 112.67905321875,
          "value": -0.015625
        },
        {
          "ticks": 76448,
          "time": 112.68494925000002,
          "value": 0
        },
        {
          "ticks": 81346,
          "time": 119.90463951562501,
          "value": 0.015869140625
        },
        {
          "ticks": 81348,
          "time": 119.90758753125002,
          "value": 0.03173828125
        },
        {
          "ticks": 81356,
          "time": 119.91937959375002,
          "value": 0.047607421875
        },
        {
          "ticks": 81360,
          "time": 119.92527562500001,
          "value": 0.0634765625
        },
        {
          "ticks": 81364,
          "time": 119.93117165625,
          "value": 0.079345703125
        },
        {
          "ticks": 81372,
          "time": 119.94296371875001,
          "value": 0.111083984375
        },
        {
          "ticks": 81376,
          "time": 119.94885975000001,
          "value": 0.126953125
        },
        {
          "ticks": 81378,
          "time": 119.951807765625,
          "value": 0.142822265625
        },
        {
          "ticks": 81384,
          "time": 119.9606518125,
          "value": 0.15869140625
        },
        {
          "ticks": 81388,
          "time": 119.96654784375,
          "value": 0.174560546875
        },
        {
          "ticks": 81394,
          "time": 119.975391890625,
          "value": 0.1904296875
        },
        {
          "ticks": 81398,
          "time": 119.98128792187502,
          "value": 0.206298828125
        },
        {
          "ticks": 81406,
          "time": 119.993079984375,
          "value": 0.238037109375
        },
        {
          "ticks": 81410,
          "time": 119.99897601562502,
          "value": 0.25390625
        },
        {
          "ticks": 81412,
          "time": 120.00192403125,
          "value": 0.269775390625
        },
        {
          "ticks": 81416,
          "time": 120.00782006250002,
          "value": 0.28564453125
        },
        {
          "ticks": 81422,
          "time": 120.01666410937501,
          "value": 0.3173828125
        },
        {
          "ticks": 81424,
          "time": 120.01961212500001,
          "value": 0.333251953125
        },
        {
          "ticks": 81428,
          "time": 120.02550815625001,
          "value": 0.34912109375
        },
        {
          "ticks": 81432,
          "time": 120.03140418750002,
          "value": 0.364990234375
        },
        {
          "ticks": 81436,
          "time": 120.03730021875,
          "value": 0.396728515625
        },
        {
          "ticks": 81440,
          "time": 120.04319625000002,
          "value": 0.41259765625
        },
        {
          "ticks": 81444,
          "time": 120.04909228125001,
          "value": 0.4443359375
        },
        {
          "ticks": 81446,
          "time": 120.05204029687502,
          "value": 0.460205078125
        },
        {
          "ticks": 81452,
          "time": 120.06088434375002,
          "value": 0.47607421875
        },
        {
          "ticks": 81454,
          "time": 120.063832359375,
          "value": 0.491943359375
        },
        {
          "ticks": 81460,
          "time": 120.07267640625001,
          "value": 0.5078125
        },
        {
          "ticks": 81464,
          "time": 120.07857243750001,
          "value": 0.53955078125
        },
        {
          "ticks": 81468,
          "time": 120.08446846875002,
          "value": 0.555419921875
        },
        {
          "ticks": 81470,
          "time": 120.08741648437501,
          "value": 0.5712890625
        },
        {
          "ticks": 81474,
          "time": 120.09331251562502,
          "value": 0.60302734375
        },
        {
          "ticks": 81478,
          "time": 120.099208546875,
          "value": 0.618896484375
        },
        {
          "ticks": 81482,
          "time": 120.10510457812502,
          "value": 0.634765625
        },
        {
          "ticks": 81486,
          "time": 120.11100060937501,
          "value": 0.650634765625
        },
        {
          "ticks": 81490,
          "time": 120.116896640625,
          "value": 0.682373046875
        },
        {
          "ticks": 81494,
          "time": 120.12279267187502,
          "value": 0.6982421875
        },
        {
          "ticks": 81498,
          "time": 120.12868870312501,
          "value": 0.714111328125
        },
        {
          "ticks": 81500,
          "time": 120.13163671875002,
          "value": 0.745849609375
        },
        {
          "ticks": 81506,
          "time": 120.14048076562501,
          "value": 0.76171875
        },
        {
          "ticks": 81508,
          "time": 120.14342878125001,
          "value": 0.777587890625
        },
        {
          "ticks": 81512,
          "time": 120.14932481250001,
          "value": 0.809326171875
        },
        {
          "ticks": 81516,
          "time": 120.15522084375002,
          "value": 0.8251953125
        },
        {
          "ticks": 81520,
          "time": 120.161116875,
          "value": 0.841064453125
        },
        {
          "ticks": 81524,
          "time": 120.16701290625002,
          "value": 0.872802734375
        },
        {
          "ticks": 81526,
          "time": 120.169960921875,
          "value": 0.888671875
        },
        {
          "ticks": 81532,
          "time": 120.17880496875,
          "value": 0.92041015625
        },
        {
          "ticks": 81536,
          "time": 120.18470100000002,
          "value": 0.9521484375
        },
        {
          "ticks": 81540,
          "time": 120.19059703125001,
          "value": 0.968017578125
        },
        {
          "ticks": 81544,
          "time": 120.19649306250001,
          "value": 0.999755859375
        },
        {
          "ticks": 81600,
          "time": 120.27903750000002,
          "value": 0
        },
        {
          "ticks": 81972,
          "time": 120.82736840625002,
          "value": 0.015869140625
        },
        {
          "ticks": 81982,
          "time": 120.842108484375,
          "value": 0.03173828125
        },
        {
          "ticks": 81986,
          "time": 120.84800451562502,
          "value": 0.047607421875
        },
        {
          "ticks": 81992,
          "time": 120.85684856250002,
          "value": 0.0634765625
        },
        {
          "ticks": 81996,
          "time": 120.86274459375001,
          "value": 0.079345703125
        },
        {
          "ticks": 82004,
          "time": 120.87453665625002,
          "value": 0.111083984375
        },
        {
          "ticks": 82008,
          "time": 120.8804326875,
          "value": 0.126953125
        },
        {
          "ticks": 82012,
          "time": 120.88632871875001,
          "value": 0.142822265625
        },
        {
          "ticks": 82016,
          "time": 120.89222475000001,
          "value": 0.174560546875
        },
        {
          "ticks": 82016,
          "time": 120.89222475000001,
          "value": 0.15869140625
        },
        {
          "ticks": 82020,
          "time": 120.89812078125001,
          "value": 0.206298828125
        },
        {
          "ticks": 82022,
          "time": 120.90106879687501,
          "value": 0.22216796875
        },
        {
          "ticks": 82026,
          "time": 120.90696482812501,
          "value": 0.238037109375
        },
        {
          "ticks": 82030,
          "time": 120.912860859375,
          "value": 0.269775390625
        },
        {
          "ticks": 82032,
          "time": 120.91580887500001,
          "value": 0.28564453125
        },
        {
          "ticks": 82036,
          "time": 120.92170490625,
          "value": 0.3173828125
        },
        {
          "ticks": 82044,
          "time": 120.93349696875,
          "value": 0.364990234375
        },
        {
          "ticks": 82044,
          "time": 120.93349696875,
          "value": 0.333251953125
        },
        {
          "ticks": 82048,
          "time": 120.93939300000001,
          "value": 0.380859375
        },
        {
          "ticks": 82050,
          "time": 120.942341015625,
          "value": 0.396728515625
        },
        {
          "ticks": 82056,
          "time": 120.95118506250002,
          "value": 0.428466796875
        },
        {
          "ticks": 82060,
          "time": 120.95708109375,
          "value": 0.460205078125
        },
        {
          "ticks": 82062,
          "time": 120.96002910937501,
          "value": 0.47607421875
        },
        {
          "ticks": 82066,
          "time": 120.965925140625,
          "value": 0.491943359375
        },
        {
          "ticks": 82070,
          "time": 120.97182117187502,
          "value": 0.523681640625
        },
        {
          "ticks": 82074,
          "time": 120.97771720312501,
          "value": 0.53955078125
        },
        {
          "ticks": 82078,
          "time": 120.983613234375,
          "value": 0.555419921875
        },
        {
          "ticks": 82082,
          "time": 120.98950926562502,
          "value": 0.587158203125
        },
        {
          "ticks": 82086,
          "time": 120.995405296875,
          "value": 0.60302734375
        },
        {
          "ticks": 82088,
          "time": 120.99835331250002,
          "value": 0.618896484375
        },
        {
          "ticks": 82098,
          "time": 121.01309339062502,
          "value": 0.634765625
        },
        {
          "ticks": 82100,
          "time": 121.01604140625001,
          "value": 0.650634765625
        },
        {
          "ticks": 82108,
          "time": 121.02783346875,
          "value": 0.682373046875
        },
        {
          "ticks": 82116,
          "time": 121.03962553125001,
          "value": 0.6982421875
        },
        {
          "ticks": 82120,
          "time": 121.0455215625,
          "value": 0.714111328125
        },
        {
          "ticks": 82124,
          "time": 121.05141759375002,
          "value": 0.745849609375
        },
        {
          "ticks": 82128,
          "time": 121.057313625,
          "value": 0.76171875
        },
        {
          "ticks": 82132,
          "time": 121.06320965625001,
          "value": 0.777587890625
        },
        {
          "ticks": 82136,
          "time": 121.06910568750001,
          "value": 0.79345703125
        },
        {
          "ticks": 82138,
          "time": 121.07205370312501,
          "value": 0.809326171875
        },
        {
          "ticks": 82142,
          "time": 121.07794973437501,
          "value": 0.8251953125
        },
        {
          "ticks": 82146,
          "time": 121.08384576562501,
          "value": 0.841064453125
        },
        {
          "ticks": 82150,
          "time": 121.089741796875,
          "value": 0.872802734375
        },
        {
          "ticks": 82154,
          "time": 121.09563782812502,
          "value": 0.888671875
        },
        {
          "ticks": 82158,
          "time": 121.10153385937501,
          "value": 0.904541015625
        },
        {
          "ticks": 82162,
          "time": 121.107429890625,
          "value": 0.936279296875
        },
        {
          "ticks": 82166,
          "time": 121.11332592187502,
          "value": 0.9521484375
        },
        {
          "ticks": 82170,
          "time": 121.119221953125,
          "value": 0.968017578125
        },
        {
          "ticks": 82174,
          "time": 121.12511798437501,
          "value": 0.999755859375
        },
        {
          "ticks": 82560,
          "time": 121.69408500000002,
          "value": 0
        },
        {
          "ticks": 86886,
          "time": 128.070642796875,
          "value": 0.015869140625
        },
        {
          "ticks": 86888,
          "time": 128.07359081250002,
          "value": 0.047607421875
        },
        {
          "ticks": 86894,
          "time": 128.082434859375,
          "value": 0.0634765625
        },
        {
          "ticks": 86900,
          "time": 128.09127890625,
          "value": 0.09521484375
        },
        {
          "ticks": 86902,
          "time": 128.09422692187502,
          "value": 0.142822265625
        },
        {
          "ticks": 86906,
          "time": 128.100122953125,
          "value": 0.174560546875
        },
        {
          "ticks": 86910,
          "time": 128.106018984375,
          "value": 0.22216796875
        },
        {
          "ticks": 86914,
          "time": 128.11191501562502,
          "value": 0.269775390625
        },
        {
          "ticks": 86920,
          "time": 128.1207590625,
          "value": 0.3173828125
        },
        {
          "ticks": 86926,
          "time": 128.129603109375,
          "value": 0.364990234375
        },
        {
          "ticks": 86928,
          "time": 128.13255112500002,
          "value": 0.5078125
        },
        {
          "ticks": 86928,
          "time": 128.13255112500002,
          "value": 0.460205078125
        },
        {
          "ticks": 86928,
          "time": 128.13255112500002,
          "value": 0.41259765625
        },
        {
          "ticks": 86936,
          "time": 128.14434318750003,
          "value": 0.53955078125
        },
        {
          "ticks": 86940,
          "time": 128.15023921875002,
          "value": 0.5712890625
        },
        {
          "ticks": 86944,
          "time": 128.15613525,
          "value": 0.60302734375
        },
        {
          "ticks": 86946,
          "time": 128.15908326562501,
          "value": 0.618896484375
        },
        {
          "ticks": 86950,
          "time": 128.164979296875,
          "value": 0.650634765625
        },
        {
          "ticks": 86954,
          "time": 128.17087532812502,
          "value": 0.682373046875
        },
        {
          "ticks": 86958,
          "time": 128.176771359375,
          "value": 0.6982421875
        },
        {
          "ticks": 86960,
          "time": 128.17971937500002,
          "value": 0.72998046875
        },
        {
          "ticks": 86964,
          "time": 128.18561540625,
          "value": 0.76171875
        },
        {
          "ticks": 86966,
          "time": 128.18856342187502,
          "value": 0.79345703125
        },
        {
          "ticks": 86974,
          "time": 128.200355484375,
          "value": 0.809326171875
        },
        {
          "ticks": 86976,
          "time": 128.2033035,
          "value": 0.841064453125
        },
        {
          "ticks": 86980,
          "time": 128.20919953125,
          "value": 0.85693359375
        },
        {
          "ticks": 86984,
          "time": 128.2150955625,
          "value": 0.888671875
        },
        {
          "ticks": 86986,
          "time": 128.21804357812502,
          "value": 0.904541015625
        },
        {
          "ticks": 86988,
          "time": 128.22099159375,
          "value": 0.92041015625
        },
        {
          "ticks": 86994,
          "time": 128.229835640625,
          "value": 0.936279296875
        },
        {
          "ticks": 86998,
          "time": 128.23573167187502,
          "value": 0.9521484375
        },
        {
          "ticks": 87002,
          "time": 128.241627703125,
          "value": 0.98388671875
        },
        {
          "ticks": 87006,
          "time": 128.24752373437502,
          "value": 0.999755859375
        },
        {
          "ticks": 87314,
          "time": 128.701518140625,
          "value": 0.9521484375
        },
        {
          "ticks": 87320,
          "time": 128.7103621875,
          "value": 0.92041015625
        },
        {
          "ticks": 87322,
          "time": 128.71331020312502,
          "value": 0.888671875
        },
        {
          "ticks": 87324,
          "time": 128.71625821875,
          "value": 0.85693359375
        },
        {
          "ticks": 87330,
          "time": 128.725102265625,
          "value": 0.8251953125
        },
        {
          "ticks": 87334,
          "time": 128.73099829687501,
          "value": 0.777587890625
        },
        {
          "ticks": 87338,
          "time": 128.736894328125,
          "value": 0.745849609375
        },
        {
          "ticks": 87342,
          "time": 128.74279035937502,
          "value": 0.6982421875
        },
        {
          "ticks": 87346,
          "time": 128.748686390625,
          "value": 0.66650390625
        },
        {
          "ticks": 87350,
          "time": 128.75458242187503,
          "value": 0.634765625
        },
        {
          "ticks": 87354,
          "time": 128.76047845312502,
          "value": 0.60302734375
        },
        {
          "ticks": 87360,
          "time": 128.76932250000002,
          "value": 0.5712890625
        },
        {
          "ticks": 87364,
          "time": 128.77521853125,
          "value": 0.460205078125
        },
        {
          "ticks": 87364,
          "time": 128.77521853125,
          "value": 0.5078125
        },
        {
          "ticks": 87364,
          "time": 128.77521853125,
          "value": 0.53955078125
        },
        {
          "ticks": 87370,
          "time": 128.784062578125,
          "value": 0.428466796875
        },
        {
          "ticks": 87372,
          "time": 128.78701059375,
          "value": 0.380859375
        },
        {
          "ticks": 87374,
          "time": 128.78995860937502,
          "value": 0.333251953125
        },
        {
          "ticks": 87378,
          "time": 128.795854640625,
          "value": 0.301513671875
        },
        {
          "ticks": 87386,
          "time": 128.80764670312502,
          "value": 0.25390625
        },
        {
          "ticks": 87388,
          "time": 128.81059471875,
          "value": 0.206298828125
        },
        {
          "ticks": 87390,
          "time": 128.813542734375,
          "value": 0.15869140625
        },
        {
          "ticks": 87396,
          "time": 128.82238678125,
          "value": 0.111083984375
        },
        {
          "ticks": 87400,
          "time": 128.8282828125,
          "value": 0.0634765625
        },
        {
          "ticks": 87404,
          "time": 128.83417884375,
          "value": 0.03173828125
        },
        {
          "ticks": 87408,
          "time": 128.840074875,
          "value": 0
        },
        {
          "ticks": 87632,
          "time": 129.17025262500002,
          "value": 0.015869140625
        },
        {
          "ticks": 87636,
          "time": 129.17614865625,
          "value": 0.0634765625
        },
        {
          "ticks": 87640,
          "time": 129.1820446875,
          "value": 0.079345703125
        },
        {
          "ticks": 87644,
          "time": 129.18794071875,
          "value": 0.111083984375
        },
        {
          "ticks": 87648,
          "time": 129.19383675,
          "value": 0.142822265625
        },
        {
          "ticks": 87652,
          "time": 129.19973278125,
          "value": 0.174560546875
        },
        {
          "ticks": 87656,
          "time": 129.2056288125,
          "value": 0.206298828125
        },
        {
          "ticks": 87658,
          "time": 129.20857682812502,
          "value": 0.22216796875
        },
        {
          "ticks": 87662,
          "time": 129.214472859375,
          "value": 0.238037109375
        },
        {
          "ticks": 87670,
          "time": 129.226264921875,
          "value": 0.25390625
        },
        {
          "ticks": 87688,
          "time": 129.2527970625,
          "value": 0.238037109375
        },
        {
          "ticks": 87692,
          "time": 129.25869309375003,
          "value": 0.22216796875
        },
        {
          "ticks": 87696,
          "time": 129.26458912500001,
          "value": 0.1904296875
        },
        {
          "ticks": 87700,
          "time": 129.27048515625,
          "value": 0.142822265625
        },
        {
          "ticks": 87704,
          "time": 129.27638118750002,
          "value": 0.111083984375
        },
        {
          "ticks": 87708,
          "time": 129.28227721875,
          "value": 0.0634765625
        },
        {
          "ticks": 87712,
          "time": 129.28817325,
          "value": 0.03173828125
        },
        {
          "ticks": 87714,
          "time": 129.291121265625,
          "value": 0
        },
        {
          "ticks": 87766,
          "time": 129.367769671875,
          "value": 0.047607421875
        },
        {
          "ticks": 87770,
          "time": 129.37366570312503,
          "value": 0.111083984375
        },
        {
          "ticks": 87770,
          "time": 129.37366570312503,
          "value": 0.079345703125
        },
        {
          "ticks": 87776,
          "time": 129.38250975000003,
          "value": 0.142822265625
        },
        {
          "ticks": 87780,
          "time": 129.38840578125001,
          "value": 0.1904296875
        },
        {
          "ticks": 87786,
          "time": 129.397249828125,
          "value": 0.22216796875
        },
        {
          "ticks": 87790,
          "time": 129.403145859375,
          "value": 0.25390625
        },
        {
          "ticks": 87792,
          "time": 129.406093875,
          "value": 0.269775390625
        },
        {
          "ticks": 87796,
          "time": 129.41198990625,
          "value": 0.28564453125
        },
        {
          "ticks": 87818,
          "time": 129.444418078125,
          "value": 0.269775390625
        },
        {
          "ticks": 87822,
          "time": 129.450314109375,
          "value": 0.25390625
        },
        {
          "ticks": 87826,
          "time": 129.45621014062502,
          "value": 0.22216796875
        },
        {
          "ticks": 87828,
          "time": 129.45915815625,
          "value": 0.1904296875
        },
        {
          "ticks": 87832,
          "time": 129.46505418750002,
          "value": 0.15869140625
        },
        {
          "ticks": 87836,
          "time": 129.47095021875,
          "value": 0.142822265625
        },
        {
          "ticks": 87840,
          "time": 129.47684625000002,
          "value": 0.111083984375
        },
        {
          "ticks": 87842,
          "time": 129.479794265625,
          "value": 0.079345703125
        },
        {
          "ticks": 87848,
          "time": 129.48863831250003,
          "value": 0.047607421875
        },
        {
          "ticks": 87852,
          "time": 129.49453434375002,
          "value": 0.015869140625
        },
        {
          "ticks": 87856,
          "time": 129.500430375,
          "value": 0
        },
        {
          "ticks": 88212,
          "time": 130.02517715625,
          "value": 0.015869140625
        },
        {
          "ticks": 88216,
          "time": 130.0310731875,
          "value": 0.03173828125
        },
        {
          "ticks": 88222,
          "time": 130.039917234375,
          "value": 0.047607421875
        },
        {
          "ticks": 88226,
          "time": 130.04581326562501,
          "value": 0.079345703125
        },
        {
          "ticks": 88230,
          "time": 130.051709296875,
          "value": 0.09521484375
        },
        {
          "ticks": 88234,
          "time": 130.057605328125,
          "value": 0.126953125
        },
        {
          "ticks": 88238,
          "time": 130.063501359375,
          "value": 0.142822265625
        },
        {
          "ticks": 88242,
          "time": 130.069397390625,
          "value": 0.174560546875
        },
        {
          "ticks": 88244,
          "time": 130.07234540625,
          "value": 0.238037109375
        },
        {
          "ticks": 88244,
          "time": 130.07234540625,
          "value": 0.206298828125
        },
        {
          "ticks": 88248,
          "time": 130.0782414375,
          "value": 0.269775390625
        },
        {
          "ticks": 88252,
          "time": 130.08413746875001,
          "value": 0.301513671875
        },
        {
          "ticks": 88256,
          "time": 130.0900335,
          "value": 0.333251953125
        },
        {
          "ticks": 88260,
          "time": 130.09592953125002,
          "value": 0.364990234375
        },
        {
          "ticks": 88264,
          "time": 130.1018255625,
          "value": 0.396728515625
        },
        {
          "ticks": 88268,
          "time": 130.10772159375003,
          "value": 0.428466796875
        },
        {
          "ticks": 88272,
          "time": 130.11361762500002,
          "value": 0.47607421875
        },
        {
          "ticks": 88278,
          "time": 130.12246167187502,
          "value": 0.5078125
        },
        {
          "ticks": 88284,
          "time": 130.13130571875,
          "value": 0.53955078125
        },
        {
          "ticks": 88288,
          "time": 130.13720175,
          "value": 0.587158203125
        },
        {
          "ticks": 88292,
          "time": 130.14309778125002,
          "value": 0.618896484375
        },
        {
          "ticks": 88296,
          "time": 130.1489938125,
          "value": 0.650634765625
        },
        {
          "ticks": 88300,
          "time": 130.15488984375,
          "value": 0.682373046875
        },
        {
          "ticks": 88304,
          "time": 130.16078587500002,
          "value": 0.714111328125
        },
        {
          "ticks": 88306,
          "time": 130.163733890625,
          "value": 0.76171875
        },
        {
          "ticks": 88308,
          "time": 130.16668190625,
          "value": 0.8251953125
        },
        {
          "ticks": 88308,
          "time": 130.16668190625,
          "value": 0.809326171875
        },
        {
          "ticks": 88308,
          "time": 130.16668190625,
          "value": 0.777587890625
        },
        {
          "ticks": 88314,
          "time": 130.175525953125,
          "value": 0.85693359375
        },
        {
          "ticks": 88316,
          "time": 130.17847396875,
          "value": 0.872802734375
        },
        {
          "ticks": 88318,
          "time": 130.181421984375,
          "value": 0.888671875
        },
        {
          "ticks": 88322,
          "time": 130.187318015625,
          "value": 0.904541015625
        },
        {
          "ticks": 88328,
          "time": 130.1961620625,
          "value": 0.936279296875
        },
        {
          "ticks": 88332,
          "time": 130.20205809375003,
          "value": 0.9521484375
        },
        {
          "ticks": 88334,
          "time": 130.205006109375,
          "value": 0.968017578125
        },
        {
          "ticks": 88338,
          "time": 130.21090214062502,
          "value": 0.999755859375
        },
        {
          "ticks": 88700,
          "time": 130.74449296875002,
          "value": 0.92041015625
        },
        {
          "ticks": 88708,
          "time": 130.75628503125,
          "value": 0.269775390625
        },
        {
          "ticks": 88716,
          "time": 130.76807709375,
          "value": -0.328125
        },
        {
          "ticks": 88720,
          "time": 130.773973125,
          "value": -0.296875
        },
        {
          "ticks": 88724,
          "time": 130.77986915625002,
          "value": -0.046875
        },
        {
          "ticks": 88726,
          "time": 130.782817171875,
          "value": 0
        },
        {
          "ticks": 88730,
          "time": 130.788713203125,
          "value": 0.142822265625
        },
        {
          "ticks": 88734,
          "time": 130.794609234375,
          "value": 0.111083984375
        },
        {
          "ticks": 88738,
          "time": 130.80050526562502,
          "value": 0
        },
        {
          "ticks": 89392,
          "time": 131.764506375,
          "value": -0.0625
        },
        {
          "ticks": 89394,
          "time": 131.767454390625,
          "value": -0.125
        },
        {
          "ticks": 89400,
          "time": 131.7762984375,
          "value": -0.1875
        },
        {
          "ticks": 89404,
          "time": 131.78219446875,
          "value": -0.265625
        },
        {
          "ticks": 89408,
          "time": 131.7880905,
          "value": -0.34375
        },
        {
          "ticks": 89410,
          "time": 131.79103851562502,
          "value": -0.421875
        },
        {
          "ticks": 89414,
          "time": 131.796934546875,
          "value": -0.5
        },
        {
          "ticks": 89418,
          "time": 131.80283057812503,
          "value": -0.59375
        },
        {
          "ticks": 89420,
          "time": 131.80577859375,
          "value": -0.6875
        },
        {
          "ticks": 89424,
          "time": 131.81167462500002,
          "value": -0.828125
        },
        {
          "ticks": 89426,
          "time": 131.814622640625,
          "value": -0.953125
        },
        {
          "ticks": 89432,
          "time": 131.82346668750003,
          "value": -1
        },
        {
          "ticks": 89546,
          "time": 131.99150357812502,
          "value": -0.984375
        },
        {
          "ticks": 89550,
          "time": 131.997399609375,
          "value": -0.96875
        },
        {
          "ticks": 89554,
          "time": 132.003295640625,
          "value": -0.9375
        },
        {
          "ticks": 89558,
          "time": 132.00919167187502,
          "value": -0.921875
        },
        {
          "ticks": 89562,
          "time": 132.015087703125,
          "value": -0.875
        },
        {
          "ticks": 89568,
          "time": 132.02393175,
          "value": -0.84375
        },
        {
          "ticks": 89570,
          "time": 132.026879765625,
          "value": -0.8125
        },
        {
          "ticks": 89576,
          "time": 132.0357238125,
          "value": -0.78125
        },
        {
          "ticks": 89580,
          "time": 132.04161984375,
          "value": -0.65625
        },
        {
          "ticks": 89586,
          "time": 132.05046389062502,
          "value": -0.5625
        },
        {
          "ticks": 89594,
          "time": 132.062255953125,
          "value": -0.515625
        },
        {
          "ticks": 89598,
          "time": 132.06815198437502,
          "value": -0.4375
        },
        {
          "ticks": 89606,
          "time": 132.07994404687503,
          "value": -0.375
        },
        {
          "ticks": 89608,
          "time": 132.0828920625,
          "value": -0.296875
        },
        {
          "ticks": 89612,
          "time": 132.08878809375003,
          "value": -0.203125
        },
        {
          "ticks": 89616,
          "time": 132.09468412500001,
          "value": -0.109375
        },
        {
          "ticks": 89620,
          "time": 132.10058015625,
          "value": 0
        },
        {
          "ticks": 91262,
          "time": 134.520900984375,
          "value": 0.03173828125
        },
        {
          "ticks": 91264,
          "time": 134.523849,
          "value": 0.0634765625
        },
        {
          "ticks": 91264,
          "time": 134.523849,
          "value": 0.047607421875
        },
        {
          "ticks": 91268,
          "time": 134.52974503125003,
          "value": 0.079345703125
        },
        {
          "ticks": 91272,
          "time": 134.53564106250002,
          "value": 0.09521484375
        },
        {
          "ticks": 91276,
          "time": 134.54153709375,
          "value": 0.126953125
        },
        {
          "ticks": 91280,
          "time": 134.54743312500003,
          "value": 0.15869140625
        },
        {
          "ticks": 91282,
          "time": 134.550381140625,
          "value": 0.174560546875
        },
        {
          "ticks": 91286,
          "time": 134.55627717187502,
          "value": 0.206298828125
        },
        {
          "ticks": 91290,
          "time": 134.562173203125,
          "value": 0.22216796875
        },
        {
          "ticks": 91294,
          "time": 134.568069234375,
          "value": 0.238037109375
        },
        {
          "ticks": 91298,
          "time": 134.57396526562502,
          "value": 0.269775390625
        },
        {
          "ticks": 91302,
          "time": 134.579861296875,
          "value": 0.301513671875
        },
        {
          "ticks": 91306,
          "time": 134.585757328125,
          "value": 0.3173828125
        },
        {
          "ticks": 91310,
          "time": 134.59165335937502,
          "value": 0.34912109375
        },
        {
          "ticks": 91314,
          "time": 134.597549390625,
          "value": 0.364990234375
        },
        {
          "ticks": 91318,
          "time": 134.603445421875,
          "value": 0.396728515625
        },
        {
          "ticks": 91322,
          "time": 134.609341453125,
          "value": 0.428466796875
        },
        {
          "ticks": 91326,
          "time": 134.615237484375,
          "value": 0.460205078125
        },
        {
          "ticks": 91328,
          "time": 134.6181855,
          "value": 0.47607421875
        },
        {
          "ticks": 91332,
          "time": 134.62408153125,
          "value": 0.491943359375
        },
        {
          "ticks": 91336,
          "time": 134.62997756250002,
          "value": 0.523681640625
        },
        {
          "ticks": 91340,
          "time": 134.63587359375,
          "value": 0.53955078125
        },
        {
          "ticks": 91344,
          "time": 134.64176962500002,
          "value": 0.5712890625
        },
        {
          "ticks": 91348,
          "time": 134.64766565625,
          "value": 0.60302734375
        },
        {
          "ticks": 91352,
          "time": 134.65356168750003,
          "value": 0.634765625
        },
        {
          "ticks": 91356,
          "time": 134.65945771875002,
          "value": 0.66650390625
        },
        {
          "ticks": 91360,
          "time": 134.66535375,
          "value": 0.682373046875
        },
        {
          "ticks": 91362,
          "time": 134.66830176562502,
          "value": 0.72998046875
        },
        {
          "ticks": 91366,
          "time": 134.674197796875,
          "value": 0.76171875
        },
        {
          "ticks": 91370,
          "time": 134.68009382812502,
          "value": 0.79345703125
        },
        {
          "ticks": 91376,
          "time": 134.68893787500002,
          "value": 0.8251953125
        },
        {
          "ticks": 91378,
          "time": 134.691885890625,
          "value": 0.841064453125
        },
        {
          "ticks": 91382,
          "time": 134.69778192187502,
          "value": 0.85693359375
        },
        {
          "ticks": 91386,
          "time": 134.703677953125,
          "value": 0.872802734375
        },
        {
          "ticks": 91390,
          "time": 134.709573984375,
          "value": 0.904541015625
        },
        {
          "ticks": 91394,
          "time": 134.71547001562502,
          "value": 0.92041015625
        },
        {
          "ticks": 91398,
          "time": 134.721366046875,
          "value": 0.936279296875
        },
        {
          "ticks": 91402,
          "time": 134.727262078125,
          "value": 0.9521484375
        },
        {
          "ticks": 91408,
          "time": 134.73610612500002,
          "value": 0.968017578125
        },
        {
          "ticks": 91414,
          "time": 134.74495017187502,
          "value": 0.98388671875
        },
        {
          "ticks": 91418,
          "time": 134.750846203125,
          "value": 0.999755859375
        },
        {
          "ticks": 91792,
          "time": 135.302125125,
          "value": 0.872802734375
        },
        {
          "ticks": 91794,
          "time": 135.305073140625,
          "value": 0.809326171875
        },
        {
          "ticks": 91798,
          "time": 135.310969171875,
          "value": 0.745849609375
        },
        {
          "ticks": 91804,
          "time": 135.31981321875,
          "value": 0.682373046875
        },
        {
          "ticks": 91808,
          "time": 135.32570925000002,
          "value": 0.5078125
        },
        {
          "ticks": 91812,
          "time": 135.33160528125,
          "value": 0.15869140625
        },
        {
          "ticks": 91818,
          "time": 135.340449328125,
          "value": -0.0625
        },
        {
          "ticks": 91822,
          "time": 135.346345359375,
          "value": 0
        },
        {
          "ticks": 91832,
          "time": 135.3610854375,
          "value": 0.0634765625
        },
        {
          "ticks": 91836,
          "time": 135.36698146875,
          "value": 0
        },
        {
          "ticks": 94236,
          "time": 138.90460021875,
          "value": 0.015869140625
        },
        {
          "ticks": 94240,
          "time": 138.91049625,
          "value": 0.111083984375
        },
        {
          "ticks": 94244,
          "time": 138.91639228125,
          "value": 0.206298828125
        },
        {
          "ticks": 94250,
          "time": 138.925236328125,
          "value": 0.301513671875
        },
        {
          "ticks": 94254,
          "time": 138.931132359375,
          "value": 0.41259765625
        },
        {
          "ticks": 94258,
          "time": 138.93702839062502,
          "value": 0.491943359375
        },
        {
          "ticks": 94262,
          "time": 138.942924421875,
          "value": 0.5712890625
        },
        {
          "ticks": 94268,
          "time": 138.95176846875,
          "value": 0.650634765625
        },
        {
          "ticks": 94268,
          "time": 138.95176846875,
          "value": 0.618896484375
        },
        {
          "ticks": 94274,
          "time": 138.96061251562503,
          "value": 0.66650390625
        },
        {
          "ticks": 94286,
          "time": 138.97830060937503,
          "value": 0.650634765625
        },
        {
          "ticks": 94298,
          "time": 138.99598870312502,
          "value": 0.634765625
        },
        {
          "ticks": 94300,
          "time": 138.99893671875,
          "value": 0.618896484375
        },
        {
          "ticks": 94304,
          "time": 139.00483275000002,
          "value": 0.60302734375
        },
        {
          "ticks": 94310,
          "time": 139.01367679687502,
          "value": 0.587158203125
        },
        {
          "ticks": 94314,
          "time": 139.019572828125,
          "value": 0.5712890625
        },
        {
          "ticks": 94318,
          "time": 139.025468859375,
          "value": 0.5078125
        },
        {
          "ticks": 94318,
          "time": 139.025468859375,
          "value": 0.53955078125
        },
        {
          "ticks": 94324,
          "time": 139.03431290625,
          "value": 0.47607421875
        },
        {
          "ticks": 94328,
          "time": 139.0402089375,
          "value": 0.428466796875
        },
        {
          "ticks": 94332,
          "time": 139.04610496875,
          "value": 0.380859375
        },
        {
          "ticks": 94338,
          "time": 139.054949015625,
          "value": 0.301513671875
        },
        {
          "ticks": 94342,
          "time": 139.06084504687502,
          "value": 0.09521484375
        },
        {
          "ticks": 94344,
          "time": 139.06379306250003,
          "value": 0
        },
        {
          "ticks": 105992,
          "time": 156.2330360625,
          "value": -0.04638671875
        },
        {
          "ticks": 106004,
          "time": 156.25072415625002,
          "value": -0.1112060546875
        },
        {
          "ticks": 106012,
          "time": 156.26251621875002,
          "value": -0.2130126953125
        },
        {
          "ticks": 106024,
          "time": 156.28020431250002,
          "value": -0.3056640625
        },
        {
          "ticks": 106032,
          "time": 156.29199637500002,
          "value": -0.379638671875
        },
        {
          "ticks": 106044,
          "time": 156.30968446875002,
          "value": -0.426025390625
        },
        {
          "ticks": 106052,
          "time": 156.32147653125,
          "value": -0.4537353515625
        },
        {
          "ticks": 106072,
          "time": 156.35095668750003,
          "value": -0.4815673828125
        },
        {
          "ticks": 106092,
          "time": 156.38043684375,
          "value": -0.435302734375
        },
        {
          "ticks": 106104,
          "time": 156.3981249375,
          "value": -0.3704833984375
        },
        {
          "ticks": 106112,
          "time": 156.409917,
          "value": -0.2315673828125
        },
        {
          "ticks": 106124,
          "time": 156.42760509375,
          "value": -0.1019287109375
        },
        {
          "ticks": 106132,
          "time": 156.43939715625004,
          "value": -0.04638671875
        },
        {
          "ticks": 106152,
          "time": 156.4688773125,
          "value": -0.0185546875
        },
        {
          "ticks": 106192,
          "time": 156.52783762500002,
          "value": 0
        }
      ],
      "instrument": {
        "family": "piano",
        "number": 0,
        "name": "acoustic grand piano"
      },
      "name": "Overdr.Gt",
      "notes": [
        {
          "duration": 0.05896031249999112,
          "durationTicks": 40,
          "midi": 47,
          "name": "B2",
          "ticks": 70596,
          "time": 104.05905553125001,
          "velocity": 0.5984251968503937
        },
        {
          "duration": 0.053064281250001955,
          "durationTicks": 36,
          "midi": 54,
          "name": "F#3",
          "ticks": 70616,
          "time": 104.08853568750001,
          "velocity": 0.7244094488188977
        },
        {
          "duration": 0.04716824999998437,
          "durationTicks": 32,
          "midi": 59,
          "name": "B3",
          "ticks": 70640,
          "time": 104.12391187500002,
          "velocity": 0.7165354330708661
        },
        {
          "duration": 0.31248965625000835,
          "durationTicks": 212,
          "midi": 61,
          "name": "C#4",
          "ticks": 70656,
          "time": 104.147496,
          "velocity": 0.84251968503937
        },
        {
          "duration": 0.2594253749999922,
          "durationTicks": 176,
          "midi": 62,
          "name": "D4",
          "ticks": 70856,
          "time": 104.44229756250002,
          "velocity": 0.6692913385826772
        },
        {
          "duration": 0.26532140624999556,
          "durationTicks": 180,
          "midi": 59,
          "name": "B3",
          "ticks": 71040,
          "time": 104.71351500000002,
          "velocity": 0.5984251968503937
        },
        {
          "duration": 0.5660189999999972,
          "durationTicks": 384,
          "midi": 61,
          "name": "C#4",
          "ticks": 71240,
          "time": 105.00831656250001,
          "velocity": 0.889763779527559
        },
        {
          "duration": 0.2594253749999922,
          "durationTicks": 176,
          "midi": 62,
          "name": "D4",
          "ticks": 71624,
          "time": 105.57433556250001,
          "velocity": 0.6456692913385826
        },
        {
          "duration": 0.2771134687500023,
          "durationTicks": 188,
          "midi": 59,
          "name": "B3",
          "ticks": 71808,
          "time": 105.84555300000001,
          "velocity": 0.6299212598425197
        },
        {
          "duration": 0.6072912187500066,
          "durationTicks": 412,
          "midi": 61,
          "name": "C#4",
          "ticks": 72008,
          "time": 106.14035456250001,
          "velocity": 0.889763779527559
        },
        {
          "duration": 0.3006975937500016,
          "durationTicks": 204,
          "midi": 62,
          "name": "D4",
          "ticks": 72392,
          "time": 106.70637356250002,
          "velocity": 0.7007874015748031
        },
        {
          "duration": 0.3183856875000117,
          "durationTicks": 216,
          "midi": 59,
          "name": "B3",
          "ticks": 72576,
          "time": 106.977591,
          "velocity": 0.5590551181102362
        },
        {
          "duration": 0.5837070937499931,
          "durationTicks": 396,
          "midi": 61,
          "name": "C#4",
          "ticks": 72776,
          "time": 107.27239256250002,
          "velocity": 0.8976377952755905
        },
        {
          "duration": 0.2771134687499881,
          "durationTicks": 188,
          "midi": 62,
          "name": "D4",
          "ticks": 73160,
          "time": 107.83841156250001,
          "velocity": 0.6850393700787402
        },
        {
          "duration": 0.5542269375000188,
          "durationTicks": 376,
          "midi": 69,
          "name": "A4",
          "ticks": 73348,
          "time": 108.11552503125,
          "velocity": 0.8031496062992126
        },
        {
          "duration": 0.3242817187500151,
          "durationTicks": 220,
          "midi": 61,
          "name": "C#4",
          "ticks": 73732,
          "time": 108.68154403125,
          "velocity": 0.8818897637795275
        },
        {
          "duration": 0.2712174374999847,
          "durationTicks": 184,
          "midi": 62,
          "name": "D4",
          "ticks": 73928,
          "time": 108.97044956250002,
          "velocity": 0.6929133858267716
        },
        {
          "duration": 0.3006975937500016,
          "durationTicks": 204,
          "midi": 59,
          "name": "B3",
          "ticks": 74112,
          "time": 109.241667,
          "velocity": 0.6456692913385826
        },
        {
          "duration": 0.5660189999999972,
          "durationTicks": 384,
          "midi": 61,
          "name": "C#4",
          "ticks": 74312,
          "time": 109.53646856250002,
          "velocity": 0.889763779527559
        },
        {
          "duration": 0.3006975937500016,
          "durationTicks": 204,
          "midi": 62,
          "name": "D4",
          "ticks": 74696,
          "time": 110.10248756250002,
          "velocity": 0.7165354330708661
        },
        {
          "duration": 0.33017775000000427,
          "durationTicks": 224,
          "midi": 59,
          "name": "B3",
          "ticks": 74884,
          "time": 110.37960103125,
          "velocity": 0.6299212598425197
        },
        {
          "duration": 0.6603554999999943,
          "durationTicks": 448,
          "midi": 61,
          "name": "C#4",
          "ticks": 75080,
          "time": 110.66850656250001,
          "velocity": 0.937007874015748
        },
        {
          "duration": 0.2771134687499881,
          "durationTicks": 188,
          "midi": 62,
          "name": "D4",
          "ticks": 75464,
          "time": 111.23452556250001,
          "velocity": 0.6929133858267716
        },
        {
          "duration": 1.397359406250004,
          "durationTicks": 948,
          "midi": 57,
          "name": "A3",
          "ticks": 75648,
          "time": 111.50574300000001,
          "velocity": 0.8031496062992126
        },
        {
          "duration": 0.05896031249999112,
          "durationTicks": 40,
          "midi": 59,
          "name": "B3",
          "ticks": 76740,
          "time": 113.11535953125001,
          "velocity": 0.5984251968503937
        },
        {
          "duration": 0.053064281250001955,
          "durationTicks": 36,
          "midi": 66,
          "name": "F#4",
          "ticks": 76760,
          "time": 113.14483968750001,
          "velocity": 0.7244094488188977
        },
        {
          "duration": 0.04716824999998437,
          "durationTicks": 32,
          "midi": 71,
          "name": "B4",
          "ticks": 76784,
          "time": 113.18021587500002,
          "velocity": 0.7165354330708661
        },
        {
          "duration": 0.31248965624999414,
          "durationTicks": 212,
          "midi": 73,
          "name": "C#5",
          "ticks": 76800,
          "time": 113.20380000000002,
          "velocity": 0.84251968503937
        },
        {
          "duration": 0.2594253749999922,
          "durationTicks": 176,
          "midi": 74,
          "name": "D5",
          "ticks": 77000,
          "time": 113.49860156250001,
          "velocity": 0.6692913385826772
        },
        {
          "duration": 0.26532140624999556,
          "durationTicks": 180,
          "midi": 71,
          "name": "B4",
          "ticks": 77184,
          "time": 113.76981900000001,
          "velocity": 0.5984251968503937
        },
        {
          "duration": 0.5660190000000114,
          "durationTicks": 384,
          "midi": 73,
          "name": "C#5",
          "ticks": 77384,
          "time": 114.06462056250001,
          "velocity": 0.889763779527559
        },
        {
          "duration": 0.259425374999978,
          "durationTicks": 176,
          "midi": 74,
          "name": "D5",
          "ticks": 77768,
          "time": 114.63063956250002,
          "velocity": 0.6456692913385826
        },
        {
          "duration": 0.2771134687500023,
          "durationTicks": 188,
          "midi": 71,
          "name": "B4",
          "ticks": 77952,
          "time": 114.901857,
          "velocity": 0.6299212598425197
        },
        {
          "duration": 0.6072912187499924,
          "durationTicks": 412,
          "midi": 73,
          "name": "C#5",
          "ticks": 78152,
          "time": 115.19665856250002,
          "velocity": 0.889763779527559
        },
        {
          "duration": 0.3006975937500016,
          "durationTicks": 204,
          "midi": 74,
          "name": "D5",
          "ticks": 78536,
          "time": 115.76267756250002,
          "velocity": 0.7007874015748031
        },
        {
          "duration": 0.3183856874999975,
          "durationTicks": 216,
          "midi": 71,
          "name": "B4",
          "ticks": 78720,
          "time": 116.03389500000002,
          "velocity": 0.5590551181102362
        },
        {
          "duration": 0.5837070937500073,
          "durationTicks": 396,
          "midi": 73,
          "name": "C#5",
          "ticks": 78920,
          "time": 116.32869656250001,
          "velocity": 0.8976377952755905
        },
        {
          "duration": 0.2771134687499881,
          "durationTicks": 188,
          "midi": 74,
          "name": "D5",
          "ticks": 79304,
          "time": 116.89471556250001,
          "velocity": 0.6850393700787402
        },
        {
          "duration": 0.5542269375000188,
          "durationTicks": 376,
          "midi": 81,
          "name": "A5",
          "ticks": 79492,
          "time": 117.17182903125,
          "velocity": 0.8031496062992126
        },
        {
          "duration": 0.3242817187500009,
          "durationTicks": 220,
          "midi": 73,
          "name": "C#5",
          "ticks": 79876,
          "time": 117.73784803125001,
          "velocity": 0.8818897637795275
        },
        {
          "duration": 0.2712174374999847,
          "durationTicks": 184,
          "midi": 74,
          "name": "D5",
          "ticks": 80072,
          "time": 118.02675356250002,
          "velocity": 0.6929133858267716
        },
        {
          "duration": 0.3006975937500016,
          "durationTicks": 204,
          "midi": 71,
          "name": "B4",
          "ticks": 80256,
          "time": 118.297971,
          "velocity": 0.6456692913385826
        },
        {
          "duration": 0.5660189999999972,
          "durationTicks": 384,
          "midi": 73,
          "name": "C#5",
          "ticks": 80456,
          "time": 118.59277256250002,
          "velocity": 0.889763779527559
        },
        {
          "duration": 0.3006975937500016,
          "durationTicks": 204,
          "midi": 74,
          "name": "D5",
          "ticks": 80840,
          "time": 119.15879156250001,
          "velocity": 0.7165354330708661
        },
        {
          "duration": 0.2800614843750111,
          "durationTicks": 190,
          "midi": 76,
          "name": "E5",
          "ticks": 81028,
          "time": 119.43590503125,
          "velocity": 0.7086614173228346
        },
        {
          "duration": 0.5365388437499945,
          "durationTicks": 364,
          "midi": 76,
          "name": "E5",
          "ticks": 81224,
          "time": 119.72481056250001,
          "velocity": 0.7480314960629921
        },
        {
          "duration": 0.2771134687499881,
          "durationTicks": 188,
          "midi": 78,
          "name": "F#5",
          "ticks": 81608,
          "time": 120.29082956250002,
          "velocity": 0.6929133858267716
        },
        {
          "duration": 1.1055058593750005,
          "durationTicks": 750,
          "midi": 81,
          "name": "A5",
          "ticks": 81792,
          "time": 120.562047,
          "velocity": 0.8031496062992126
        },
        {
          "duration": 0.14445276562499032,
          "durationTicks": 98,
          "midi": 81,
          "name": "A5",
          "ticks": 82568,
          "time": 121.70587706250002,
          "velocity": 0.6850393700787402
        },
        {
          "duration": 0.10318054687499512,
          "durationTicks": 70,
          "midi": 78,
          "name": "F#5",
          "ticks": 82650,
          "time": 121.82674570312501,
          "velocity": 0.6141732283464567
        },
        {
          "duration": 0.2859575156250145,
          "durationTicks": 194,
          "midi": 76,
          "name": "E5",
          "ticks": 82744,
          "time": 121.9653024375,
          "velocity": 0.5669291338582677
        },
        {
          "duration": 0.5601229687499796,
          "durationTicks": 380,
          "midi": 78,
          "name": "F#5",
          "ticks": 82946,
          "time": 122.26305201562502,
          "velocity": 0.7952755905511811
        },
        {
          "duration": 0.5660189999999972,
          "durationTicks": 384,
          "midi": 76,
          "name": "E5",
          "ticks": 83338,
          "time": 122.84086307812501,
          "velocity": 0.7716535433070866
        },
        {
          "duration": 0.5542269375000046,
          "durationTicks": 376,
          "midi": 73,
          "name": "C#5",
          "ticks": 83726,
          "time": 123.41277810937501,
          "velocity": 0.7874015748031497
        },
        {
          "duration": 0.5778110625000039,
          "durationTicks": 392,
          "midi": 69,
          "name": "A4",
          "ticks": 84094,
          "time": 123.95521298437501,
          "velocity": 0.6456692913385826
        },
        {
          "duration": 0.2830095000000057,
          "durationTicks": 192,
          "midi": 66,
          "name": "F#4",
          "ticks": 84482,
          "time": 124.52712801562501,
          "velocity": 0.7952755905511811
        },
        {
          "duration": 0.22404918749998615,
          "durationTicks": 152,
          "midi": 69,
          "name": "A4",
          "ticks": 84674,
          "time": 124.81013751562502,
          "velocity": 0.6535433070866141
        },
        {
          "duration": 0.15919284375000586,
          "durationTicks": 108,
          "midi": 73,
          "name": "C#5",
          "ticks": 84862,
          "time": 125.087250984375,
          "velocity": 0.8582677165354331
        },
        {
          "duration": 0.15329681249998828,
          "durationTicks": 104,
          "midi": 74,
          "name": "D5",
          "ticks": 84944,
          "time": 125.20811962500002,
          "velocity": 0.6377952755905512
        },
        {
          "duration": 0.9404169843750054,
          "durationTicks": 638,
          "midi": 71,
          "name": "B4",
          "ticks": 85048,
          "time": 125.36141643750001,
          "velocity": 0.7480314960629921
        },
        {
          "duration": 0.14740078125001332,
          "durationTicks": 100,
          "midi": 57,
          "name": "A3",
          "ticks": 85828,
          "time": 126.51114253125,
          "velocity": 0.7874015748031497
        },
        {
          "duration": 0.19751704687497806,
          "durationTicks": 134,
          "midi": 59,
          "name": "B3",
          "ticks": 85904,
          "time": 126.62316712500002,
          "velocity": 0.5748031496062992
        },
        {
          "duration": 0.29185354687500364,
          "durationTicks": 198,
          "midi": 62,
          "name": "D4",
          "ticks": 86006,
          "time": 126.77351592187502,
          "velocity": 0.7480314960629921
        },
        {
          "duration": 0.26826942187499014,
          "durationTicks": 182,
          "midi": 64,
          "name": "E4",
          "ticks": 86198,
          "time": 127.05652542187502,
          "velocity": 0.6377952755905512
        },
        {
          "duration": 0.262373390625001,
          "durationTicks": 178,
          "midi": 66,
          "name": "F#4",
          "ticks": 86388,
          "time": 127.33658690625,
          "velocity": 0.7165354330708661
        },
        {
          "duration": 0.22994521875000373,
          "durationTicks": 156,
          "midi": 71,
          "name": "B4",
          "ticks": 86586,
          "time": 127.62844045312501,
          "velocity": 0.7480314960629921
        },
        {
          "duration": 1.161518156249997,
          "durationTicks": 788,
          "midi": 74,
          "name": "D5",
          "ticks": 86798,
          "time": 127.94093010937502,
          "velocity": 0.8188976377952756
        },
        {
          "duration": 0.6013951875000032,
          "durationTicks": 408,
          "midi": 73,
          "name": "C#5",
          "ticks": 87544,
          "time": 129.0405399375,
          "velocity": 0.7874015748031497
        },
        {
          "duration": 0.2152051406249882,
          "durationTicks": 146,
          "midi": 69,
          "name": "A4",
          "ticks": 87928,
          "time": 129.6065589375,
          "velocity": 0.7322834645669292
        },
        {
          "duration": 0.7871201718750171,
          "durationTicks": 534,
          "midi": 69,
          "name": "A4",
          "ticks": 88134,
          "time": 129.910204546875,
          "velocity": 0.8188976377952756
        },
        {
          "duration": 0.15624482812498286,
          "durationTicks": 106,
          "midi": 69,
          "name": "A4",
          "ticks": 88706,
          "time": 130.75333701562502,
          "velocity": 0.7874015748031497
        },
        {
          "duration": 0.14150474999999574,
          "durationTicks": 96,
          "midi": 66,
          "name": "F#4",
          "ticks": 88808,
          "time": 130.90368581250002,
          "velocity": 0.6141732283464567
        },
        {
          "duration": 0.3183856875000117,
          "durationTicks": 216,
          "midi": 64,
          "name": "E4",
          "ticks": 88890,
          "time": 131.024554453125,
          "velocity": 0.7086614173228346
        },
        {
          "duration": 0.13855673437501537,
          "durationTicks": 94,
          "midi": 66,
          "name": "F#4",
          "ticks": 89078,
          "time": 131.301667921875,
          "velocity": 0.8582677165354331
        },
        {
          "duration": 0.18867299999999432,
          "durationTicks": 128,
          "midi": 66,
          "name": "F#4",
          "ticks": 89182,
          "time": 131.454964734375,
          "velocity": 0.6141732283464567
        },
        {
          "duration": 0.20046506249997265,
          "durationTicks": 136,
          "midi": 69,
          "name": "A4",
          "ticks": 89276,
          "time": 131.59352146875003,
          "velocity": 0.7165354330708661
        },
        {
          "duration": 0.28890553125000906,
          "durationTicks": 196,
          "midi": 73,
          "name": "C#5",
          "ticks": 89472,
          "time": 131.882427,
          "velocity": 0.7874015748031497
        },
        {
          "duration": 0.1532968125000025,
          "durationTicks": 104,
          "midi": 74,
          "name": "D5",
          "ticks": 89680,
          "time": 132.189020625,
          "velocity": 0.7874015748031497
        },
        {
          "duration": 0.2152051406250166,
          "durationTicks": 146,
          "midi": 76,
          "name": "E5",
          "ticks": 89866,
          "time": 132.463186078125,
          "velocity": 0.7874015748031497
        },
        {
          "duration": 0.05011626562497895,
          "durationTicks": 34,
          "midi": 76,
          "name": "E5",
          "ticks": 90014,
          "time": 132.68133923437503,
          "velocity": 0.6141732283464567
        },
        {
          "duration": 0.22994521875000373,
          "durationTicks": 156,
          "midi": 74,
          "name": "D5",
          "ticks": 90062,
          "time": 132.75209160937501,
          "velocity": 0.8582677165354331
        },
        {
          "duration": 0.22110117187500578,
          "durationTicks": 150,
          "midi": 74,
          "name": "D5",
          "ticks": 90212,
          "time": 132.97319278125002,
          "velocity": 0.5748031496062992
        },
        {
          "duration": 0.10907657812498428,
          "durationTicks": 74,
          "midi": 76,
          "name": "E5",
          "ticks": 90250,
          "time": 133.02920507812502,
          "velocity": 0.7165354330708661
        },
        {
          "duration": 0.08844046874997957,
          "durationTicks": 60,
          "midi": 74,
          "name": "D5",
          "ticks": 90350,
          "time": 133.17660585937503,
          "velocity": 0.7165354330708661
        },
        {
          "duration": 0.17982895312496794,
          "durationTicks": 122,
          "midi": 76,
          "name": "E5",
          "ticks": 90440,
          "time": 133.30926656250003,
          "velocity": 0.7874015748031497
        },
        {
          "duration": 0.05011626562500737,
          "durationTicks": 34,
          "midi": 74,
          "name": "D5",
          "ticks": 90598,
          "time": 133.542159796875,
          "velocity": 0.5748031496062992
        },
        {
          "duration": 0.22699720312499494,
          "durationTicks": 154,
          "midi": 76,
          "name": "E5",
          "ticks": 90626,
          "time": 133.58343201562502,
          "velocity": 0.7874015748031497
        },
        {
          "duration": 0.24173728124998206,
          "durationTicks": 164,
          "midi": 74,
          "name": "D5",
          "ticks": 90812,
          "time": 133.85759746875001,
          "velocity": 0.7165354330708661
        },
        {
          "duration": 0.2358412499999929,
          "durationTicks": 160,
          "midi": 76,
          "name": "E5",
          "ticks": 91006,
          "time": 134.14355498437502,
          "velocity": 0.7874015748031497
        },
        {
          "duration": 0.7370039062500098,
          "durationTicks": 500,
          "midi": 76,
          "name": "E5",
          "ticks": 91212,
          "time": 134.44720059375,
          "velocity": 0.7952755905511811
        },
        {
          "duration": 0.15919284374999165,
          "durationTicks": 108,
          "midi": 76,
          "name": "E5",
          "ticks": 91768,
          "time": 135.2667489375,
          "velocity": 0.8582677165354331
        },
        {
          "duration": 0.12381665624999982,
          "durationTicks": 84,
          "midi": 74,
          "name": "D5",
          "ticks": 91868,
          "time": 135.41414971875002,
          "velocity": 0.7165354330708661
        },
        {
          "duration": 0.16508887500000924,
          "durationTicks": 112,
          "midi": 71,
          "name": "B4",
          "ticks": 91954,
          "time": 135.540914390625,
          "velocity": 0.6456692913385826
        },
        {
          "duration": 0.17688093749998757,
          "durationTicks": 120,
          "midi": 71,
          "name": "B4",
          "ticks": 92164,
          "time": 135.85045603125002,
          "velocity": 0.7874015748031497
        },
        {
          "duration": 0.1680368906249896,
          "durationTicks": 114,
          "midi": 74,
          "name": "D5",
          "ticks": 92370,
          "time": 136.15410164062502,
          "velocity": 0.8582677165354331
        },
        {
          "duration": 0.15329681249997407,
          "durationTicks": 104,
          "midi": 73,
          "name": "C#5",
          "ticks": 92552,
          "time": 136.42237106250002,
          "velocity": 0.8582677165354331
        },
        {
          "duration": 0.1090765781250127,
          "durationTicks": 74,
          "midi": 74,
          "name": "D5",
          "ticks": 92650,
          "time": 136.566823828125,
          "velocity": 0.7165354330708661
        },
        {
          "duration": 0.10612856250000391,
          "durationTicks": 72,
          "midi": 73,
          "name": "C#5",
          "ticks": 92710,
          "time": 136.655264296875,
          "velocity": 0.7952755905511811
        },
        {
          "duration": 0.20046506249997265,
          "durationTicks": 136,
          "midi": 71,
          "name": "B4",
          "ticks": 92766,
          "time": 136.73780873437502,
          "velocity": 0.6614173228346457
        },
        {
          "duration": 0.26237339062498677,
          "durationTicks": 178,
          "midi": 73,
          "name": "C#5",
          "ticks": 92940,
          "time": 136.99428609375002,
          "velocity": 0.8188976377952756
        },
        {
          "duration": 0.27121743750001315,
          "durationTicks": 184,
          "midi": 69,
          "name": "A4",
          "ticks": 93136,
          "time": 137.283191625,
          "velocity": 0.7874015748031497
        },
        {
          "duration": 0.1945690312500119,
          "durationTicks": 132,
          "midi": 66,
          "name": "F#4",
          "ticks": 93332,
          "time": 137.57209715625,
          "velocity": 0.7716535433070866
        },
        {
          "duration": 0.2358412499999929,
          "durationTicks": 160,
          "midi": 64,
          "name": "E4",
          "ticks": 93516,
          "time": 137.84331459375002,
          "velocity": 0.6614173228346457
        },
        {
          "duration": 0.24468529687501928,
          "durationTicks": 166,
          "midi": 62,
          "name": "D4",
          "ticks": 93688,
          "time": 138.0968439375,
          "velocity": 0.8188976377952756
        },
        {
          "duration": 0.2387892656250017,
          "durationTicks": 162,
          "midi": 64,
          "name": "E4",
          "ticks": 93882,
          "time": 138.382801453125,
          "velocity": 0.7874015748031497
        },
        {
          "duration": 0.265321406250024,
          "durationTicks": 180,
          "midi": 69,
          "name": "A4",
          "ticks": 94072,
          "time": 138.6628629375,
          "velocity": 0.7874015748031497
        },
        {
          "duration": 0.22994521875000373,
          "durationTicks": 156,
          "midi": 64,
          "name": "E4",
          "ticks": 94256,
          "time": 138.934080375,
          "velocity": 0.7874015748031497
        },
        {
          "duration": 0.1090765781250127,
          "durationTicks": 74,
          "midi": 62,
          "name": "D4",
          "ticks": 94390,
          "time": 139.131597421875,
          "velocity": 0.7165354330708661
        },
        {
          "duration": 1.0288574531249708,
          "durationTicks": 698,
          "midi": 59,
          "name": "B3",
          "ticks": 94460,
          "time": 139.23477796875002,
          "velocity": 0.7086614173228346
        },
        {
          "duration": 0.053064281250016165,
          "durationTicks": 36,
          "midi": 59,
          "name": "B3",
          "ticks": 95180,
          "time": 140.29606359375,
          "velocity": 0.5748031496062992
        },
        {
          "duration": 0.03537618749999183,
          "durationTicks": 24,
          "midi": 62,
          "name": "D4",
          "ticks": 95208,
          "time": 140.33733581250002,
          "velocity": 0.6850393700787402
        },
        {
          "duration": 0.8785086562500055,
          "durationTicks": 596,
          "midi": 73,
          "name": "C#5",
          "ticks": 95232,
          "time": 140.372712,
          "velocity": 0.84251968503937
        },
        {
          "duration": 1.468111781250002,
          "durationTicks": 996,
          "midi": 69,
          "name": "A4",
          "ticks": 95816,
          "time": 141.23353256250002,
          "velocity": 0.7322834645669292
        },
        {
          "duration": 0.8667165937499988,
          "durationTicks": 588,
          "midi": 66,
          "name": "F#4",
          "ticks": 96772,
          "time": 142.64268403125,
          "velocity": 0.8582677165354331
        },
        {
          "duration": 1.468111781250002,
          "durationTicks": 996,
          "midi": 62,
          "name": "D4",
          "ticks": 97352,
          "time": 143.4976085625,
          "velocity": 0.7795275590551181
        },
        {
          "duration": 0.9020927812499906,
          "durationTicks": 612,
          "midi": 73,
          "name": "C#5",
          "ticks": 98308,
          "time": 144.90676003125003,
          "velocity": 0.9212598425196851
        },
        {
          "duration": 1.4563197187500236,
          "durationTicks": 988,
          "midi": 69,
          "name": "A4",
          "ticks": 98888,
          "time": 145.7616845625,
          "velocity": 0.8110236220472441
        },
        {
          "duration": 2.0282347499999958,
          "durationTicks": 1376,
          "midi": 66,
          "name": "F#4",
          "ticks": 99840,
          "time": 147.16494,
          "velocity": 0.8582677165354331
        },
        {
          "duration": 0.03537618749999183,
          "durationTicks": 24,
          "midi": 69,
          "name": "A4",
          "ticks": 101332,
          "time": 149.36415965625002,
          "velocity": 0.3858267716535433
        },
        {
          "duration": 0.04127221874998099,
          "durationTicks": 28,
          "midi": 74,
          "name": "D5",
          "ticks": 101344,
          "time": 149.38184775000002,
          "velocity": 0.3858267716535433
        },
        {
          "duration": 0.017688093749995915,
          "durationTicks": 12,
          "midi": 76,
          "name": "E5",
          "ticks": 101360,
          "time": 149.405431875,
          "velocity": 0.30708661417322836
        },
        {
          "duration": 0.9256769062500041,
          "durationTicks": 628,
          "midi": 74,
          "name": "D5",
          "ticks": 101376,
          "time": 149.42901600000002,
          "velocity": 0.8110236220472441
        },
        {
          "duration": 0.781224140625028,
          "durationTicks": 530,
          "midi": 78,
          "name": "F#5",
          "ticks": 101396,
          "time": 149.45849615625,
          "velocity": 0.5748031496062992
        },
        {
          "duration": 0.8166003281249914,
          "durationTicks": 554,
          "midi": 76,
          "name": "E5",
          "ticks": 101956,
          "time": 150.28394053125,
          "velocity": 0.5748031496062992
        },
        {
          "duration": 0.8283923906250266,
          "durationTicks": 562,
          "midi": 73,
          "name": "C#5",
          "ticks": 101960,
          "time": 150.2898365625,
          "velocity": 0.7480314960629921
        },
        {
          "duration": 0.5954991562499856,
          "durationTicks": 404,
          "midi": 62,
          "name": "D4",
          "ticks": 102528,
          "time": 151.12707300000002,
          "velocity": 0.6299212598425197
        },
        {
          "duration": 0.3920860781250042,
          "durationTicks": 266,
          "midi": 73,
          "name": "C#5",
          "ticks": 102532,
          "time": 151.13296903125,
          "velocity": 0.5039370078740157
        },
        {
          "duration": 0.9079888125000082,
          "durationTicks": 616,
          "midi": 67,
          "name": "G4",
          "ticks": 102912,
          "time": 151.693092,
          "velocity": 0.8582677165354331
        },
        {
          "duration": 0.7664840625000124,
          "durationTicks": 520,
          "midi": 74,
          "name": "D5",
          "ticks": 102918,
          "time": 151.701936046875,
          "velocity": 0.5748031496062992
        },
        {
          "duration": 0.8549245312500204,
          "durationTicks": 580,
          "midi": 74,
          "name": "D5",
          "ticks": 103482,
          "time": 152.533276453125,
          "velocity": 0.5748031496062992
        },
        {
          "duration": 0.9138848437499973,
          "durationTicks": 620,
          "midi": 66,
          "name": "F#4",
          "ticks": 103496,
          "time": 152.55391256250002,
          "velocity": 0.6850393700787402
        },
        {
          "duration": 0.2948015624999982,
          "durationTicks": 200,
          "midi": 62,
          "name": "D4",
          "ticks": 104064,
          "time": 153.391149,
          "velocity": 0.6141732283464567
        },
        {
          "duration": 0.4127221875000373,
          "durationTicks": 280,
          "midi": 69,
          "name": "A4",
          "ticks": 104078,
          "time": 153.411785109375,
          "velocity": 0.47244094488188976
        },
        {
          "duration": 0.8342884218749873,
          "durationTicks": 566,
          "midi": 64,
          "name": "E4",
          "ticks": 104440,
          "time": 153.94537593750002,
          "velocity": 0.5748031496062992
        },
        {
          "duration": 0.8785086562499771,
          "durationTicks": 596,
          "midi": 60,
          "name": "C4",
          "ticks": 104448,
          "time": 153.95716800000002,
          "velocity": 0.7952755905511811
        },
        {
          "duration": 1.202790374999978,
          "durationTicks": 816,
          "midi": 62,
          "name": "D4",
          "ticks": 105014,
          "time": 154.791456421875,
          "velocity": 0.5039370078740157
        },
        {
          "duration": 0.5896031249999965,
          "durationTicks": 400,
          "midi": 59,
          "name": "B3",
          "ticks": 105032,
          "time": 154.8179885625,
          "velocity": 0.7874015748031497
        },
        {
          "duration": 0.35376187499997513,
          "durationTicks": 240,
          "midi": 55,
          "name": "G3",
          "ticks": 105416,
          "time": 155.38400756250002,
          "velocity": 0.7086614173228346
        },
        {
          "duration": 0.27121743750001315,
          "durationTicks": 184,
          "midi": 50,
          "name": "D3",
          "ticks": 105600,
          "time": 155.655225,
          "velocity": 0.7874015748031497
        },
        {
          "duration": 0.3242817187500009,
          "durationTicks": 220,
          "midi": 59,
          "name": "B3",
          "ticks": 105796,
          "time": 155.94413053125,
          "velocity": 0.7559055118110236
        },
        {
          "duration": 2.2640759999999887,
          "durationTicks": 1536,
          "midi": 57,
          "name": "A3",
          "ticks": 105984,
          "time": 156.221244,
          "velocity": 0.7480314960629921
        },
        {
          "duration": 2.228699812499997,
          "durationTicks": 1512,
          "midi": 62,
          "name": "D4",
          "ticks": 105988,
          "time": 156.22714003125003,
          "velocity": 0.4409448818897638
        }
      ],
      "endOfTrackTicks": 107520
    },
    {
      "channel": 6,
      "controlChanges": {
        "11": [
          {
            "number": 11,
            "ticks": 163918,
            "time": 241.61641260937503,
            "value": 0.9921259842519685
          },
          {
            "number": 11,
            "ticks": 163954,
            "time": 241.66947689062502,
            "value": 0.984251968503937
          },
          {
            "number": 11,
            "ticks": 163990,
            "time": 241.72254117187504,
            "value": 0.9763779527559056
          },
          {
            "number": 11,
            "ticks": 164016,
            "time": 241.760865375,
            "value": 0.968503937007874
          },
          {
            "number": 11,
            "ticks": 164040,
            "time": 241.79624156250003,
            "value": 0.9606299212598425
          },
          {
            "number": 11,
            "ticks": 164064,
            "time": 241.83161775000002,
            "value": 0.952755905511811
          },
          {
            "number": 11,
            "ticks": 164082,
            "time": 241.85814989062501,
            "value": 0.9448818897637795
          },
          {
            "number": 11,
            "ticks": 164094,
            "time": 241.875837984375,
            "value": 0.937007874015748
          },
          {
            "number": 11,
            "ticks": 164116,
            "time": 241.90826615625002,
            "value": 0.9291338582677166
          },
          {
            "number": 11,
            "ticks": 164130,
            "time": 241.92890226562503,
            "value": 0.9212598425196851
          },
          {
            "number": 11,
            "ticks": 164152,
            "time": 241.96133043750004,
            "value": 0.9133858267716536
          },
          {
            "number": 11,
            "ticks": 164170,
            "time": 241.98786257812503,
            "value": 0.905511811023622
          },
          {
            "number": 11,
            "ticks": 164186,
            "time": 242.01144670312502,
            "value": 0.8976377952755905
          },
          {
            "number": 11,
            "ticks": 164200,
            "time": 242.03208281250002,
            "value": 0.889763779527559
          },
          {
            "number": 11,
            "ticks": 164216,
            "time": 242.0556669375,
            "value": 0.8818897637795275
          },
          {
            "number": 11,
            "ticks": 164234,
            "time": 242.082199078125,
            "value": 0.8740157480314961
          },
          {
            "number": 11,
            "ticks": 164256,
            "time": 242.11462725,
            "value": 0.8661417322834646
          },
          {
            "number": 11,
            "ticks": 164276,
            "time": 242.14410740625001,
            "value": 0.8582677165354331
          },
          {
            "number": 11,
            "ticks": 164300,
            "time": 242.17948359375,
            "value": 0.8503937007874016
          },
          {
            "number": 11,
            "ticks": 164318,
            "time": 242.206015734375,
            "value": 0.84251968503937
          },
          {
            "number": 11,
            "ticks": 164340,
            "time": 242.23844390625,
            "value": 0.8346456692913385
          },
          {
            "number": 11,
            "ticks": 164358,
            "time": 242.26497604687503,
            "value": 0.8267716535433071
          },
          {
            "number": 11,
            "ticks": 164384,
            "time": 242.30330025,
            "value": 0.8188976377952756
          },
          {
            "number": 11,
            "ticks": 164408,
            "time": 242.3386764375,
            "value": 0.8110236220472441
          },
          {
            "number": 11,
            "ticks": 164428,
            "time": 242.36815659375003,
            "value": 0.8031496062992126
          },
          {
            "number": 11,
            "ticks": 164450,
            "time": 242.400584765625,
            "value": 0.7952755905511811
          },
          {
            "number": 11,
            "ticks": 164500,
            "time": 242.47428515625003,
            "value": 0.7874015748031497
          },
          {
            "number": 11,
            "ticks": 164540,
            "time": 242.53324546875,
            "value": 0.7795275590551181
          },
          {
            "number": 11,
            "ticks": 164584,
            "time": 242.59810181250003,
            "value": 0.7716535433070866
          },
          {
            "number": 11,
            "ticks": 164618,
            "time": 242.648218078125,
            "value": 0.7637795275590551
          },
          {
            "number": 11,
            "ticks": 164650,
            "time": 242.69538632812504,
            "value": 0.7559055118110236
          },
          {
            "number": 11,
            "ticks": 164676,
            "time": 242.73371053125,
            "value": 0.7480314960629921
          },
          {
            "number": 11,
            "ticks": 164694,
            "time": 242.76024267187503,
            "value": 0.7401574803149606
          },
          {
            "number": 11,
            "ticks": 164724,
            "time": 242.80446290625002,
            "value": 0.7322834645669292
          },
          {
            "number": 11,
            "ticks": 164744,
            "time": 242.8339430625,
            "value": 0.7244094488188977
          },
          {
            "number": 11,
            "ticks": 164772,
            "time": 242.87521528125004,
            "value": 0.7165354330708661
          },
          {
            "number": 11,
            "ticks": 164792,
            "time": 242.9046954375,
            "value": 0.7086614173228346
          },
          {
            "number": 11,
            "ticks": 164816,
            "time": 242.940071625,
            "value": 0.7007874015748031
          },
          {
            "number": 11,
            "ticks": 164834,
            "time": 242.96660376562502,
            "value": 0.6929133858267716
          },
          {
            "number": 11,
            "ticks": 164858,
            "time": 243.00197995312502,
            "value": 0.6850393700787402
          },
          {
            "number": 11,
            "ticks": 164878,
            "time": 243.03146010937502,
            "value": 0.6771653543307087
          },
          {
            "number": 11,
            "ticks": 164900,
            "time": 243.06388828125,
            "value": 0.6692913385826772
          },
          {
            "number": 11,
            "ticks": 164926,
            "time": 243.10221248437503,
            "value": 0.6614173228346457
          },
          {
            "number": 11,
            "ticks": 164946,
            "time": 243.13169264062503,
            "value": 0.6535433070866141
          },
          {
            "number": 11,
            "ticks": 164976,
            "time": 243.17591287500002,
            "value": 0.6456692913385826
          },
          {
            "number": 11,
            "ticks": 165004,
            "time": 243.21718509375003,
            "value": 0.6377952755905512
          },
          {
            "number": 11,
            "ticks": 165030,
            "time": 243.25550929687503,
            "value": 0.6299212598425197
          },
          {
            "number": 11,
            "ticks": 165048,
            "time": 243.28204143750003,
            "value": 0.6220472440944882
          },
          {
            "number": 11,
            "ticks": 165070,
            "time": 243.31446960937504,
            "value": 0.6141732283464567
          },
          {
            "number": 11,
            "ticks": 165100,
            "time": 243.35868984375003,
            "value": 0.6062992125984252
          },
          {
            "number": 11,
            "ticks": 165126,
            "time": 243.39701404687503,
            "value": 0.5984251968503937
          },
          {
            "number": 11,
            "ticks": 165152,
            "time": 243.43533825,
            "value": 0.5905511811023622
          },
          {
            "number": 11,
            "ticks": 165176,
            "time": 243.47071443750002,
            "value": 0.5826771653543307
          },
          {
            "number": 11,
            "ticks": 165202,
            "time": 243.50903864062502,
            "value": 0.5748031496062992
          },
          {
            "number": 11,
            "ticks": 165236,
            "time": 243.55915490625,
            "value": 0.5669291338582677
          },
          {
            "number": 11,
            "ticks": 165258,
            "time": 243.591583078125,
            "value": 0.5590551181102362
          },
          {
            "number": 11,
            "ticks": 165290,
            "time": 243.638751328125,
            "value": 0.5511811023622047
          },
          {
            "number": 11,
            "ticks": 165318,
            "time": 243.68002354687502,
            "value": 0.5433070866141733
          },
          {
            "number": 11,
            "ticks": 165346,
            "time": 243.72129576562503,
            "value": 0.5354330708661418
          },
          {
            "number": 11,
            "ticks": 165380,
            "time": 243.77141203125,
            "value": 0.5275590551181102
          },
          {
            "number": 11,
            "ticks": 165412,
            "time": 243.81858028125004,
            "value": 0.5196850393700787
          },
          {
            "number": 11,
            "ticks": 165438,
            "time": 243.856904484375,
            "value": 0.5118110236220472
          },
          {
            "number": 11,
            "ticks": 165462,
            "time": 243.89228067187503,
            "value": 0.5039370078740157
          },
          {
            "number": 11,
            "ticks": 165494,
            "time": 243.939448921875,
            "value": 0.49606299212598426
          },
          {
            "number": 11,
            "ticks": 165520,
            "time": 243.97777312500003,
            "value": 0.4881889763779528
          },
          {
            "number": 11,
            "ticks": 165550,
            "time": 244.02199335937505,
            "value": 0.48031496062992124
          },
          {
            "number": 11,
            "ticks": 165578,
            "time": 244.063265578125,
            "value": 0.47244094488188976
          },
          {
            "number": 11,
            "ticks": 165620,
            "time": 244.12517390625,
            "value": 0.4645669291338583
          },
          {
            "number": 11,
            "ticks": 165650,
            "time": 244.169394140625,
            "value": 0.4566929133858268
          },
          {
            "number": 11,
            "ticks": 165690,
            "time": 244.22835445312504,
            "value": 0.44881889763779526
          },
          {
            "number": 11,
            "ticks": 165714,
            "time": 244.26373064062503,
            "value": 0.4409448818897638
          },
          {
            "number": 11,
            "ticks": 165740,
            "time": 244.30205484375,
            "value": 0.4330708661417323
          },
          {
            "number": 11,
            "ticks": 165762,
            "time": 244.334483015625,
            "value": 0.4251968503937008
          },
          {
            "number": 11,
            "ticks": 165790,
            "time": 244.37575523437502,
            "value": 0.41732283464566927
          },
          {
            "number": 11,
            "ticks": 165814,
            "time": 244.41113142187504,
            "value": 0.4094488188976378
          },
          {
            "number": 11,
            "ticks": 165840,
            "time": 244.449455625,
            "value": 0.4015748031496063
          },
          {
            "number": 11,
            "ticks": 165862,
            "time": 244.48188379687502,
            "value": 0.3937007874015748
          },
          {
            "number": 11,
            "ticks": 165888,
            "time": 244.52020800000003,
            "value": 0.3858267716535433
          },
          {
            "number": 11,
            "ticks": 165910,
            "time": 244.55263617187504,
            "value": 0.3779527559055118
          },
          {
            "number": 11,
            "ticks": 165936,
            "time": 244.590960375,
            "value": 0.3700787401574803
          },
          {
            "number": 11,
            "ticks": 165958,
            "time": 244.62338854687502,
            "value": 0.36220472440944884
          },
          {
            "number": 11,
            "ticks": 165982,
            "time": 244.65876473437504,
            "value": 0.3543307086614173
          },
          {
            "number": 11,
            "ticks": 166008,
            "time": 244.6970889375,
            "value": 0.3464566929133858
          },
          {
            "number": 11,
            "ticks": 166036,
            "time": 244.73836115625002,
            "value": 0.33858267716535434
          },
          {
            "number": 11,
            "ticks": 166062,
            "time": 244.77668535937502,
            "value": 0.33070866141732286
          },
          {
            "number": 11,
            "ticks": 166090,
            "time": 244.81795757812503,
            "value": 0.3228346456692913
          },
          {
            "number": 11,
            "ticks": 166118,
            "time": 244.859229796875,
            "value": 0.31496062992125984
          },
          {
            "number": 11,
            "ticks": 166138,
            "time": 244.88870995312504,
            "value": 0.30708661417322836
          },
          {
            "number": 11,
            "ticks": 166166,
            "time": 244.929982171875,
            "value": 0.2992125984251969
          },
          {
            "number": 11,
            "ticks": 166184,
            "time": 244.95651431250002,
            "value": 0.29133858267716534
          },
          {
            "number": 11,
            "ticks": 166206,
            "time": 244.98894248437503,
            "value": 0.28346456692913385
          },
          {
            "number": 11,
            "ticks": 166242,
            "time": 245.04200676562502,
            "value": 0.2755905511811024
          },
          {
            "number": 11,
            "ticks": 166260,
            "time": 245.06853890625,
            "value": 0.2677165354330709
          },
          {
            "number": 11,
            "ticks": 166286,
            "time": 245.106863109375,
            "value": 0.25984251968503935
          },
          {
            "number": 11,
            "ticks": 166312,
            "time": 245.14518731250004,
            "value": 0.25196850393700787
          },
          {
            "number": 11,
            "ticks": 166342,
            "time": 245.18940754687503,
            "value": 0.2440944881889764
          },
          {
            "number": 11,
            "ticks": 166372,
            "time": 245.23362778125002,
            "value": 0.23622047244094488
          },
          {
            "number": 11,
            "ticks": 166406,
            "time": 245.283744046875,
            "value": 0.2283464566929134
          },
          {
            "number": 11,
            "ticks": 166438,
            "time": 245.33091229687503,
            "value": 0.2204724409448819
          },
          {
            "number": 11,
            "ticks": 166452,
            "time": 245.35154840625003,
            "value": 0.2125984251968504
          },
          {
            "number": 11,
            "ticks": 166472,
            "time": 245.3810285625,
            "value": 0.2047244094488189
          },
          {
            "number": 11,
            "ticks": 166494,
            "time": 245.41345673437502,
            "value": 0.1968503937007874
          },
          {
            "number": 11,
            "ticks": 166528,
            "time": 245.46357300000003,
            "value": 0.1889763779527559
          },
          {
            "number": 11,
            "ticks": 166562,
            "time": 245.513689265625,
            "value": 0.18110236220472442
          },
          {
            "number": 11,
            "ticks": 166590,
            "time": 245.554961484375,
            "value": 0.1732283464566929
          },
          {
            "number": 11,
            "ticks": 166634,
            "time": 245.619817828125,
            "value": 0.16535433070866143
          },
          {
            "number": 11,
            "ticks": 166680,
            "time": 245.6876221875,
            "value": 0.15748031496062992
          },
          {
            "number": 11,
            "ticks": 166736,
            "time": 245.770166625,
            "value": 0.14960629921259844
          },
          {
            "number": 11,
            "ticks": 166784,
            "time": 245.840919,
            "value": 0.14173228346456693
          },
          {
            "number": 11,
            "ticks": 166842,
            "time": 245.926411453125,
            "value": 0.13385826771653545
          },
          {
            "number": 11,
            "ticks": 166884,
            "time": 245.98831978125003,
            "value": 0.12598425196850394
          },
          {
            "number": 11,
            "ticks": 166920,
            "time": 246.04138406250001,
            "value": 0.11811023622047244
          },
          {
            "number": 11,
            "ticks": 166956,
            "time": 246.09444834375003,
            "value": 0.11023622047244094
          },
          {
            "number": 11,
            "ticks": 167002,
            "time": 246.16225270312503,
            "value": 0.10236220472440945
          },
          {
            "number": 11,
            "ticks": 167060,
            "time": 246.24774515625,
            "value": 0.09448818897637795
          },
          {
            "number": 11,
            "ticks": 167096,
            "time": 246.30080943750002,
            "value": 0.08661417322834646
          },
          {
            "number": 11,
            "ticks": 167128,
            "time": 246.34797768750002,
            "value": 0.07874015748031496
          },
          {
            "number": 11,
            "ticks": 167158,
            "time": 246.39219792187504,
            "value": 0.07086614173228346
          },
          {
            "number": 11,
            "ticks": 167184,
            "time": 246.430522125,
            "value": 0.06299212598425197
          },
          {
            "number": 11,
            "ticks": 167226,
            "time": 246.49243045312502,
            "value": 0.05511811023622047
          },
          {
            "number": 11,
            "ticks": 167256,
            "time": 246.5366506875,
            "value": 0.047244094488188976
          },
          {
            "number": 11,
            "ticks": 167276,
            "time": 246.56613084375002,
            "value": 0.03937007874015748
          },
          {
            "number": 11,
            "ticks": 167300,
            "time": 246.60150703125,
            "value": 0.031496062992125984
          },
          {
            "number": 11,
            "ticks": 167328,
            "time": 246.64277925000002,
            "value": 0.023622047244094488
          },
          {
            "number": 11,
            "ticks": 167350,
            "time": 246.67520742187503,
            "value": 0.015748031496062992
          },
          {
            "number": 11,
            "ticks": 167378,
            "time": 246.716479640625,
            "value": 0.007874015748031496
          },
          {
            "number": 11,
            "ticks": 167792,
            "time": 247.326718875,
            "value": 0
          }
        ]
      },
      "pitchBends": [],
      "instrument": {
        "family": "piano",
        "number": 0,
        "name": "acoustic grand piano"
      },
      "name": "Syn.Strin",
      "notes": [
        {
          "duration": 8.844046875,
          "durationTicks": 6000,
          "midi": 59,
          "name": "B3",
          "ticks": 3072,
          "time": 4.528152,
          "velocity": 0.5118110236220472
        },
        {
          "duration": 9.01503178125,
          "durationTicks": 6116,
          "midi": 47,
          "name": "B2",
          "ticks": 3072,
          "time": 4.528152,
          "velocity": 0.5511811023622047
        },
        {
          "duration": 2.88315928125,
          "durationTicks": 1956,
          "midi": 71,
          "name": "B4",
          "ticks": 3072,
          "time": 4.528152,
          "velocity": 0.4566929133858268
        },
        {
          "duration": 6.131872500000001,
          "durationTicks": 4160,
          "midi": 35,
          "name": "B1",
          "ticks": 3080,
          "time": 4.539944062500001,
          "velocity": 0.5511811023622047
        },
        {
          "duration": 2.741654531250001,
          "durationTicks": 1860,
          "midi": 35,
          "name": "B1",
          "ticks": 7288,
          "time": 10.742568937500002,
          "velocity": 0.6062992125984252
        },
        {
          "duration": 0.8313404062500016,
          "durationTicks": 564,
          "midi": 59,
          "name": "B3",
          "ticks": 9220,
          "time": 13.590352031250001,
          "velocity": 0.3937007874015748
        },
        {
          "duration": 1.4150475,
          "durationTicks": 960,
          "midi": 57,
          "name": "A3",
          "ticks": 9800,
          "time": 14.4452765625,
          "velocity": 0.3937007874015748
        },
        {
          "duration": 0.8490284999999993,
          "durationTicks": 576,
          "midi": 54,
          "name": "F#3",
          "ticks": 10756,
          "time": 15.854428031250002,
          "velocity": 0.3937007874015748
        },
        {
          "duration": 1.4209435312499998,
          "durationTicks": 964,
          "midi": 55,
          "name": "G3",
          "ticks": 11336,
          "time": 16.7093525625,
          "velocity": 0.3937007874015748
        },
        {
          "duration": 0.8549245312499991,
          "durationTicks": 580,
          "midi": 59,
          "name": "B3",
          "ticks": 12288,
          "time": 18.112608,
          "velocity": 0.3937007874015748
        },
        {
          "duration": 1.0848697499999993,
          "durationTicks": 736,
          "midi": 57,
          "name": "A3",
          "ticks": 12872,
          "time": 18.973428562500004,
          "velocity": 0.3937007874015748
        },
        {
          "duration": 0.5247467812499984,
          "durationTicks": 356,
          "midi": 54,
          "name": "F#3",
          "ticks": 13640,
          "time": 20.105466562500002,
          "velocity": 0.3937007874015748
        },
        {
          "duration": 1.9338982499999986,
          "durationTicks": 1312,
          "midi": 55,
          "name": "G3",
          "ticks": 14016,
          "time": 20.659693500000003,
          "velocity": 0.3937007874015748
        },
        {
          "duration": 0.8313404062499998,
          "durationTicks": 564,
          "midi": 59,
          "name": "B3",
          "ticks": 15364,
          "time": 22.64665603125,
          "velocity": 0.3937007874015748
        },
        {
          "duration": 1.4150475,
          "durationTicks": 960,
          "midi": 57,
          "name": "A3",
          "ticks": 15944,
          "time": 23.501580562500003,
          "velocity": 0.3937007874015748
        },
        {
          "duration": 0.8490285000000029,
          "durationTicks": 576,
          "midi": 54,
          "name": "F#3",
          "ticks": 16900,
          "time": 24.91073203125,
          "velocity": 0.3937007874015748
        },
        {
          "duration": 1.4209435312499998,
          "durationTicks": 964,
          "midi": 55,
          "name": "G3",
          "ticks": 17480,
          "time": 25.765656562500002,
          "velocity": 0.3937007874015748
        },
        {
          "duration": 0.8549245312499991,
          "durationTicks": 580,
          "midi": 59,
          "name": "B3",
          "ticks": 18432,
          "time": 27.168912000000002,
          "velocity": 0.3937007874015748
        },
        {
          "duration": 1.0848697499999993,
          "durationTicks": 736,
          "midi": 57,
          "name": "A3",
          "ticks": 19016,
          "time": 28.029732562500005,
          "velocity": 0.3937007874015748
        },
        {
          "duration": 0.5247467812499984,
          "durationTicks": 356,
          "midi": 54,
          "name": "F#3",
          "ticks": 19784,
          "time": 29.161770562500003,
          "velocity": 0.3937007874015748
        },
        {
          "duration": 1.9338982499999986,
          "durationTicks": 1312,
          "midi": 55,
          "name": "G3",
          "ticks": 20160,
          "time": 29.715997500000004,
          "velocity": 0.3937007874015748
        },
        {
          "duration": 0.8313404062499998,
          "durationTicks": 564,
          "midi": 59,
          "name": "B3",
          "ticks": 21508,
          "time": 31.70296003125,
          "velocity": 0.3937007874015748
        },
        {
          "duration": 1.4150475,
          "durationTicks": 960,
          "midi": 57,
          "name": "A3",
          "ticks": 22088,
          "time": 32.55788456250001,
          "velocity": 0.3937007874015748
        },
        {
          "duration": 0.8490284999999957,
          "durationTicks": 576,
          "midi": 54,
          "name": "F#3",
          "ticks": 23044,
          "time": 33.967036031250004,
          "velocity": 0.3937007874015748
        },
        {
          "duration": 1.4209435312500034,
          "durationTicks": 964,
          "midi": 55,
          "name": "G3",
          "ticks": 23624,
          "time": 34.8219605625,
          "velocity": 0.3937007874015748
        },
        {
          "duration": 0.8549245312500062,
          "durationTicks": 580,
          "midi": 59,
          "name": "B3",
          "ticks": 24576,
          "time": 36.225216,
          "velocity": 0.3937007874015748
        },
        {
          "duration": 1.0848697500000029,
          "durationTicks": 736,
          "midi": 57,
          "name": "A3",
          "ticks": 25160,
          "time": 37.0860365625,
          "velocity": 0.3937007874015748
        },
        {
          "duration": 0.5247467812500091,
          "durationTicks": 356,
          "midi": 54,
          "name": "F#3",
          "ticks": 25928,
          "time": 38.2180745625,
          "velocity": 0.3937007874015748
        },
        {
          "duration": 1.9338982499999986,
          "durationTicks": 1312,
          "midi": 55,
          "name": "G3",
          "ticks": 26304,
          "time": 38.772301500000005,
          "velocity": 0.3937007874015748
        },
        {
          "duration": 0.8313404062499998,
          "durationTicks": 564,
          "midi": 59,
          "name": "B3",
          "ticks": 27652,
          "time": 40.759264031250005,
          "velocity": 0.3937007874015748
        },
        {
          "duration": 1.4150475,
          "durationTicks": 960,
          "midi": 57,
          "name": "A3",
          "ticks": 28232,
          "time": 41.614188562500004,
          "velocity": 0.3937007874015748
        },
        {
          "duration": 0.8490284999999957,
          "durationTicks": 576,
          "midi": 54,
          "name": "F#3",
          "ticks": 29188,
          "time": 43.02334003125001,
          "velocity": 0.3937007874015748
        },
        {
          "duration": 1.4209435312500034,
          "durationTicks": 964,
          "midi": 55,
          "name": "G3",
          "ticks": 29768,
          "time": 43.8782645625,
          "velocity": 0.3937007874015748
        },
        {
          "duration": 0.8549245312500062,
          "durationTicks": 580,
          "midi": 59,
          "name": "B3",
          "ticks": 30720,
          "time": 45.28152,
          "velocity": 0.3937007874015748
        },
        {
          "duration": 1.0848697500000029,
          "durationTicks": 736,
          "midi": 57,
          "name": "A3",
          "ticks": 31304,
          "time": 46.1423405625,
          "velocity": 0.3937007874015748
        },
        {
          "duration": 0.524746781250002,
          "durationTicks": 356,
          "midi": 54,
          "name": "F#3",
          "ticks": 32072,
          "time": 47.274378562500004,
          "velocity": 0.3937007874015748
        },
        {
          "duration": 1.9338982500000057,
          "durationTicks": 1312,
          "midi": 55,
          "name": "G3",
          "ticks": 32448,
          "time": 47.8286055,
          "velocity": 0.3937007874015748
        },
        {
          "duration": 0.8313404062499998,
          "durationTicks": 564,
          "midi": 59,
          "name": "B3",
          "ticks": 33796,
          "time": 49.81556803125001,
          "velocity": 0.3937007874015748
        },
        {
          "duration": 1.4150475,
          "durationTicks": 960,
          "midi": 57,
          "name": "A3",
          "ticks": 34376,
          "time": 50.6704925625,
          "velocity": 0.3937007874015748
        },
        {
          "duration": 0.8490285000000029,
          "durationTicks": 576,
          "midi": 54,
          "name": "F#3",
          "ticks": 35332,
          "time": 52.079644031250005,
          "velocity": 0.3937007874015748
        },
        {
          "duration": 1.4209435312500034,
          "durationTicks": 964,
          "midi": 55,
          "name": "G3",
          "ticks": 35912,
          "time": 52.934568562500004,
          "velocity": 0.3937007874015748
        },
        {
          "duration": 0.8549245312500062,
          "durationTicks": 580,
          "midi": 59,
          "name": "B3",
          "ticks": 36864,
          "time": 54.337824000000005,
          "velocity": 0.3937007874015748
        },
        {
          "duration": 1.0848697500000029,
          "durationTicks": 736,
          "midi": 57,
          "name": "A3",
          "ticks": 37448,
          "time": 55.1986445625,
          "velocity": 0.3937007874015748
        },
        {
          "duration": 0.5247467812500091,
          "durationTicks": 356,
          "midi": 54,
          "name": "F#3",
          "ticks": 38216,
          "time": 56.3306825625,
          "velocity": 0.3937007874015748
        },
        {
          "duration": 1.9338982499999986,
          "durationTicks": 1312,
          "midi": 55,
          "name": "G3",
          "ticks": 38592,
          "time": 56.884909500000006,
          "velocity": 0.3937007874015748
        },
        {
          "duration": 0.8313404062499998,
          "durationTicks": 564,
          "midi": 59,
          "name": "B3",
          "ticks": 39940,
          "time": 58.87187203125001,
          "velocity": 0.3937007874015748
        },
        {
          "duration": 1.4150475,
          "durationTicks": 960,
          "midi": 57,
          "name": "A3",
          "ticks": 40520,
          "time": 59.726796562500006,
          "velocity": 0.3937007874015748
        },
        {
          "duration": 0.8490284999999957,
          "durationTicks": 576,
          "midi": 54,
          "name": "F#3",
          "ticks": 41476,
          "time": 61.13594803125001,
          "velocity": 0.3937007874015748
        },
        {
          "duration": 1.4209435312500034,
          "durationTicks": 964,
          "midi": 55,
          "name": "G3",
          "ticks": 42056,
          "time": 61.9908725625,
          "velocity": 0.3937007874015748
        },
        {
          "duration": 0.8549245312500062,
          "durationTicks": 580,
          "midi": 59,
          "name": "B3",
          "ticks": 43008,
          "time": 63.39412800000001,
          "velocity": 0.3937007874015748
        },
        {
          "duration": 1.0848697499999957,
          "durationTicks": 736,
          "midi": 57,
          "name": "A3",
          "ticks": 43592,
          "time": 64.2549485625,
          "velocity": 0.3937007874015748
        },
        {
          "duration": 0.5247467812500162,
          "durationTicks": 356,
          "midi": 54,
          "name": "F#3",
          "ticks": 44360,
          "time": 65.3869865625,
          "velocity": 0.3937007874015748
        },
        {
          "duration": 1.9338982499999986,
          "durationTicks": 1312,
          "midi": 55,
          "name": "G3",
          "ticks": 44736,
          "time": 65.9412135,
          "velocity": 0.3937007874015748
        },
        {
          "duration": 0.5896031249999965,
          "durationTicks": 400,
          "midi": 57,
          "name": "A3",
          "ticks": 46084,
          "time": 67.92817603125,
          "velocity": 0.3937007874015748
        },
        {
          "duration": 1.3678792500000014,
          "durationTicks": 928,
          "midi": 57,
          "name": "A3",
          "ticks": 46664,
          "time": 68.78310056250001,
          "velocity": 0.3937007874015748
        },
        {
          "duration": 0.5837070937500073,
          "durationTicks": 396,
          "midi": 50,
          "name": "D3",
          "ticks": 47620,
          "time": 70.19225203125,
          "velocity": 0.3937007874015748
        },
        {
          "duration": 1.3413471093750076,
          "durationTicks": 910,
          "midi": 57,
          "name": "A3",
          "ticks": 48200,
          "time": 71.0471765625,
          "velocity": 0.3937007874015748
        },
        {
          "duration": 0.5896031249999965,
          "durationTicks": 400,
          "midi": 55,
          "name": "G3",
          "ticks": 49152,
          "time": 72.450432,
          "velocity": 0.3937007874015748
        },
        {
          "duration": 1.0848697499999957,
          "durationTicks": 736,
          "midi": 55,
          "name": "G3",
          "ticks": 49736,
          "time": 73.31125256250002,
          "velocity": 0.3937007874015748
        },
        {
          "duration": 2.4409569375000046,
          "durationTicks": 1656,
          "midi": 57,
          "name": "A3",
          "ticks": 50504,
          "time": 74.44329056250001,
          "velocity": 0.3937007874015748
        },
        {
          "duration": 0.5896031250000107,
          "durationTicks": 400,
          "midi": 57,
          "name": "A3",
          "ticks": 52228,
          "time": 76.98448003125,
          "velocity": 0.3937007874015748
        },
        {
          "duration": 1.3678792500000014,
          "durationTicks": 928,
          "midi": 57,
          "name": "A3",
          "ticks": 52808,
          "time": 77.83940456250001,
          "velocity": 0.3937007874015748
        },
        {
          "duration": 0.5837070937499931,
          "durationTicks": 396,
          "midi": 50,
          "name": "D3",
          "ticks": 53764,
          "time": 79.24855603125,
          "velocity": 0.3937007874015748
        },
        {
          "duration": 1.3413471093749934,
          "durationTicks": 910,
          "midi": 57,
          "name": "A3",
          "ticks": 54344,
          "time": 80.10348056250001,
          "velocity": 0.3937007874015748
        },
        {
          "duration": 0.5896031249999965,
          "durationTicks": 400,
          "midi": 55,
          "name": "G3",
          "ticks": 55296,
          "time": 81.506736,
          "velocity": 0.3937007874015748
        },
        {
          "duration": 1.0848697499999957,
          "durationTicks": 736,
          "midi": 55,
          "name": "G3",
          "ticks": 55880,
          "time": 82.36755656250001,
          "velocity": 0.3937007874015748
        },
        {
          "duration": 2.4409569375000046,
          "durationTicks": 1656,
          "midi": 57,
          "name": "A3",
          "ticks": 56648,
          "time": 83.49959456250001,
          "velocity": 0.3937007874015748
        },
        {
          "duration": 0.5896031250000107,
          "durationTicks": 400,
          "midi": 57,
          "name": "A3",
          "ticks": 58372,
          "time": 86.04078403125,
          "velocity": 0.3937007874015748
        },
        {
          "duration": 1.3678792499999872,
          "durationTicks": 928,
          "midi": 57,
          "name": "A3",
          "ticks": 58952,
          "time": 86.89570856250002,
          "velocity": 0.3937007874015748
        },
        {
          "duration": 0.5837070937500073,
          "durationTicks": 396,
          "midi": 50,
          "name": "D3",
          "ticks": 59908,
          "time": 88.30486003125,
          "velocity": 0.3937007874015748
        },
        {
          "duration": 1.3413471093749934,
          "durationTicks": 910,
          "midi": 57,
          "name": "A3",
          "ticks": 60488,
          "time": 89.15978456250001,
          "velocity": 0.3937007874015748
        },
        {
          "duration": 0.5896031249999965,
          "durationTicks": 400,
          "midi": 55,
          "name": "G3",
          "ticks": 61440,
          "time": 90.56304,
          "velocity": 0.3937007874015748
        },
        {
          "duration": 1.0848697499999957,
          "durationTicks": 736,
          "midi": 55,
          "name": "G3",
          "ticks": 62024,
          "time": 91.42386056250001,
          "velocity": 0.3937007874015748
        },
        {
          "duration": 2.4409569374999904,
          "durationTicks": 1656,
          "midi": 57,
          "name": "A3",
          "ticks": 62792,
          "time": 92.55589856250002,
          "velocity": 0.3937007874015748
        },
        {
          "duration": 0.5896031250000107,
          "durationTicks": 400,
          "midi": 57,
          "name": "A3",
          "ticks": 64516,
          "time": 95.09708803125001,
          "velocity": 0.3937007874015748
        },
        {
          "duration": 1.3678792499999872,
          "durationTicks": 928,
          "midi": 57,
          "name": "A3",
          "ticks": 65096,
          "time": 95.95201256250002,
          "velocity": 0.3937007874015748
        },
        {
          "duration": 0.5837070937500073,
          "durationTicks": 396,
          "midi": 50,
          "name": "D3",
          "ticks": 66052,
          "time": 97.36116403125,
          "velocity": 0.3937007874015748
        },
        {
          "duration": 1.3413471093749934,
          "durationTicks": 910,
          "midi": 57,
          "name": "A3",
          "ticks": 66632,
          "time": 98.21608856250002,
          "velocity": 0.3937007874015748
        },
        {
          "duration": 0.5896031249999965,
          "durationTicks": 400,
          "midi": 55,
          "name": "G3",
          "ticks": 67584,
          "time": 99.61934400000001,
          "velocity": 0.3937007874015748
        },
        {
          "duration": 1.0848697499999957,
          "durationTicks": 736,
          "midi": 55,
          "name": "G3",
          "ticks": 68168,
          "time": 100.48016456250001,
          "velocity": 0.3937007874015748
        },
        {
          "duration": 2.4409569375000046,
          "durationTicks": 1656,
          "midi": 57,
          "name": "A3",
          "ticks": 68936,
          "time": 101.61220256250002,
          "velocity": 0.3937007874015748
        },
        {
          "duration": 0.6839396250000078,
          "durationTicks": 464,
          "midi": 74,
          "name": "D5",
          "ticks": 70656,
          "time": 104.147496,
          "velocity": 0.4251968503937008
        },
        {
          "duration": 0.6780435937500044,
          "durationTicks": 460,
          "midi": 71,
          "name": "B4",
          "ticks": 70656,
          "time": 104.147496,
          "velocity": 0.4251968503937008
        },
        {
          "duration": 0.7487959687500023,
          "durationTicks": 508,
          "midi": 66,
          "name": "F#4",
          "ticks": 70660,
          "time": 104.15339203125001,
          "velocity": 0.4251968503937008
        },
        {
          "duration": 1.2735427500000043,
          "durationTicks": 864,
          "midi": 73,
          "name": "C#5",
          "ticks": 71240,
          "time": 105.00831656250001,
          "velocity": 0.4251968503937008
        },
        {
          "duration": 1.2617506874999975,
          "durationTicks": 856,
          "midi": 69,
          "name": "A4",
          "ticks": 71240,
          "time": 105.00831656250001,
          "velocity": 0.4251968503937008
        },
        {
          "duration": 1.073077687499989,
          "durationTicks": 728,
          "midi": 76,
          "name": "E5",
          "ticks": 71240,
          "time": 105.00831656250001,
          "velocity": 0.4251968503937008
        },
        {
          "duration": 0.8195483437500002,
          "durationTicks": 556,
          "midi": 73,
          "name": "C#5",
          "ticks": 72192,
          "time": 106.411572,
          "velocity": 0.4251968503937008
        },
        {
          "duration": 0.8136523124999968,
          "durationTicks": 552,
          "midi": 69,
          "name": "A4",
          "ticks": 72196,
          "time": 106.41746803125001,
          "velocity": 0.4251968503937008
        },
        {
          "duration": 0.8136523124999968,
          "durationTicks": 552,
          "midi": 66,
          "name": "F#4",
          "ticks": 72196,
          "time": 106.41746803125001,
          "velocity": 0.4251968503937008
        },
        {
          "duration": 1.3678792499999872,
          "durationTicks": 928,
          "midi": 74,
          "name": "D5",
          "ticks": 72776,
          "time": 107.27239256250002,
          "velocity": 0.4251968503937008
        },
        {
          "duration": 1.3737752812499906,
          "durationTicks": 932,
          "midi": 71,
          "name": "B4",
          "ticks": 72776,
          "time": 107.27239256250002,
          "velocity": 0.4251968503937008
        },
        {
          "duration": 1.361983218749998,
          "durationTicks": 924,
          "midi": 67,
          "name": "G4",
          "ticks": 72776,
          "time": 107.27239256250002,
          "velocity": 0.4251968503937008
        },
        {
          "duration": 0.8254443750000036,
          "durationTicks": 560,
          "midi": 74,
          "name": "D5",
          "ticks": 73728,
          "time": 108.67564800000001,
          "velocity": 0.4251968503937008
        },
        {
          "duration": 0.8254443750000178,
          "durationTicks": 560,
          "midi": 71,
          "name": "B4",
          "ticks": 73732,
          "time": 108.68154403125,
          "velocity": 0.4251968503937008
        },
        {
          "duration": 0.8490285000000029,
          "durationTicks": 576,
          "midi": 66,
          "name": "F#4",
          "ticks": 73732,
          "time": 108.68154403125,
          "velocity": 0.4251968503937008
        },
        {
          "duration": 1.3442951250000021,
          "durationTicks": 912,
          "midi": 69,
          "name": "A4",
          "ticks": 74312,
          "time": 109.53646856250002,
          "velocity": 0.4251968503937008
        },
        {
          "duration": 1.379671312499994,
          "durationTicks": 936,
          "midi": 73,
          "name": "C#5",
          "ticks": 74312,
          "time": 109.53646856250002,
          "velocity": 0.4251968503937008
        },
        {
          "duration": 1.4032554374999933,
          "durationTicks": 952,
          "midi": 76,
          "name": "E5",
          "ticks": 74312,
          "time": 109.53646856250002,
          "velocity": 0.4251968503937008
        },
        {
          "duration": 0.8136523124999968,
          "durationTicks": 552,
          "midi": 73,
          "name": "C#5",
          "ticks": 75264,
          "time": 110.93972400000001,
          "velocity": 0.4251968503937008
        },
        {
          "duration": 0.819548343749986,
          "durationTicks": 556,
          "midi": 69,
          "name": "A4",
          "ticks": 75264,
          "time": 110.93972400000001,
          "velocity": 0.4251968503937008
        },
        {
          "duration": 0.8372364374999961,
          "durationTicks": 568,
          "midi": 66,
          "name": "F#4",
          "ticks": 75264,
          "time": 110.93972400000001,
          "velocity": 0.4251968503937008
        },
        {
          "duration": 1.3737752812499764,
          "durationTicks": 932,
          "midi": 67,
          "name": "G4",
          "ticks": 75848,
          "time": 111.80054456250002,
          "velocity": 0.4251968503937008
        },
        {
          "duration": 1.361983218749998,
          "durationTicks": 924,
          "midi": 71,
          "name": "B4",
          "ticks": 75852,
          "time": 111.80644059375001,
          "velocity": 0.4251968503937008
        },
        {
          "duration": 1.3737752812500048,
          "durationTicks": 932,
          "midi": 74,
          "name": "D5",
          "ticks": 75852,
          "time": 111.80644059375001,
          "velocity": 0.4251968503937008
        },
        {
          "duration": 0.6839396249999936,
          "durationTicks": 464,
          "midi": 74,
          "name": "D5",
          "ticks": 76800,
          "time": 113.20380000000002,
          "velocity": 0.4251968503937008
        },
        {
          "duration": 0.6780435937499902,
          "durationTicks": 460,
          "midi": 71,
          "name": "B4",
          "ticks": 76800,
          "time": 113.20380000000002,
          "velocity": 0.4251968503937008
        },
        {
          "duration": 0.7487959687500165,
          "durationTicks": 508,
          "midi": 66,
          "name": "F#4",
          "ticks": 76804,
          "time": 113.20969603125,
          "velocity": 0.4251968503937008
        },
        {
          "duration": 1.2735427500000043,
          "durationTicks": 864,
          "midi": 73,
          "name": "C#5",
          "ticks": 77384,
          "time": 114.06462056250001,
          "velocity": 0.4251968503937008
        },
        {
          "duration": 1.2617506874999975,
          "durationTicks": 856,
          "midi": 69,
          "name": "A4",
          "ticks": 77384,
          "time": 114.06462056250001,
          "velocity": 0.4251968503937008
        },
        {
          "duration": 1.073077687499989,
          "durationTicks": 728,
          "midi": 76,
          "name": "E5",
          "ticks": 77384,
          "time": 114.06462056250001,
          "velocity": 0.4251968503937008
        },
        {
          "duration": 0.8195483437500002,
          "durationTicks": 556,
          "midi": 73,
          "name": "C#5",
          "ticks": 78336,
          "time": 115.467876,
          "velocity": 0.4251968503937008
        },
        {
          "duration": 0.8136523124999968,
          "durationTicks": 552,
          "midi": 69,
          "name": "A4",
          "ticks": 78340,
          "time": 115.47377203125001,
          "velocity": 0.4251968503937008
        },
        {
          "duration": 0.8136523124999968,
          "durationTicks": 552,
          "midi": 66,
          "name": "F#4",
          "ticks": 78340,
          "time": 115.47377203125001,
          "velocity": 0.4251968503937008
        },
        {
          "duration": 1.3678792500000014,
          "durationTicks": 928,
          "midi": 74,
          "name": "D5",
          "ticks": 78920,
          "time": 116.32869656250001,
          "velocity": 0.4251968503937008
        },
        {
          "duration": 1.3737752812499906,
          "durationTicks": 932,
          "midi": 71,
          "name": "B4",
          "ticks": 78920,
          "time": 116.32869656250001,
          "velocity": 0.4251968503937008
        },
        {
          "duration": 1.361983218749998,
          "durationTicks": 924,
          "midi": 67,
          "name": "G4",
          "ticks": 78920,
          "time": 116.32869656250001,
          "velocity": 0.4251968503937008
        },
        {
          "duration": 0.8254443750000036,
          "durationTicks": 560,
          "midi": 74,
          "name": "D5",
          "ticks": 79872,
          "time": 117.731952,
          "velocity": 0.4251968503937008
        },
        {
          "duration": 0.8254443750000036,
          "durationTicks": 560,
          "midi": 71,
          "name": "B4",
          "ticks": 79876,
          "time": 117.73784803125001,
          "velocity": 0.4251968503937008
        },
        {
          "duration": 0.8490284999999886,
          "durationTicks": 576,
          "midi": 66,
          "name": "F#4",
          "ticks": 79876,
          "time": 117.73784803125001,
          "velocity": 0.4251968503937008
        },
        {
          "duration": 1.3442951250000021,
          "durationTicks": 912,
          "midi": 69,
          "name": "A4",
          "ticks": 80456,
          "time": 118.59277256250002,
          "velocity": 0.4251968503937008
        },
        {
          "duration": 1.379671312499994,
          "durationTicks": 936,
          "midi": 73,
          "name": "C#5",
          "ticks": 80456,
          "time": 118.59277256250002,
          "velocity": 0.4251968503937008
        },
        {
          "duration": 1.4032554374999933,
          "durationTicks": 952,
          "midi": 76,
          "name": "E5",
          "ticks": 80456,
          "time": 118.59277256250002,
          "velocity": 0.4251968503937008
        },
        {
          "duration": 0.8136523124999968,
          "durationTicks": 552,
          "midi": 73,
          "name": "C#5",
          "ticks": 81408,
          "time": 119.99602800000001,
          "velocity": 0.4251968503937008
        },
        {
          "duration": 0.8195483437500002,
          "durationTicks": 556,
          "midi": 69,
          "name": "A4",
          "ticks": 81408,
          "time": 119.99602800000001,
          "velocity": 0.4251968503937008
        },
        {
          "duration": 0.8372364374999961,
          "durationTicks": 568,
          "midi": 66,
          "name": "F#4",
          "ticks": 81408,
          "time": 119.99602800000001,
          "velocity": 0.4251968503937008
        },
        {
          "duration": 1.3737752812499906,
          "durationTicks": 932,
          "midi": 67,
          "name": "G4",
          "ticks": 81992,
          "time": 120.85684856250002,
          "velocity": 0.4251968503937008
        },
        {
          "duration": 1.361983218749998,
          "durationTicks": 924,
          "midi": 71,
          "name": "B4",
          "ticks": 81996,
          "time": 120.86274459375001,
          "velocity": 0.4251968503937008
        },
        {
          "duration": 1.3737752812500048,
          "durationTicks": 932,
          "midi": 74,
          "name": "D5",
          "ticks": 81996,
          "time": 120.86274459375001,
          "velocity": 0.4251968503937008
        },
        {
          "duration": 0.6839396250000078,
          "durationTicks": 464,
          "midi": 74,
          "name": "D5",
          "ticks": 82944,
          "time": 122.26010400000001,
          "velocity": 0.4251968503937008
        },
        {
          "duration": 0.6780435937499902,
          "durationTicks": 460,
          "midi": 71,
          "name": "B4",
          "ticks": 82944,
          "time": 122.26010400000001,
          "velocity": 0.4251968503937008
        },
        {
          "duration": 0.7487959687500165,
          "durationTicks": 508,
          "midi": 66,
          "name": "F#4",
          "ticks": 82948,
          "time": 122.26600003125,
          "velocity": 0.4251968503937008
        },
        {
          "duration": 1.27354274999999,
          "durationTicks": 864,
          "midi": 73,
          "name": "C#5",
          "ticks": 83528,
          "time": 123.12092456250002,
          "velocity": 0.4251968503937008
        },
        {
          "duration": 1.2617506874999833,
          "durationTicks": 856,
          "midi": 69,
          "name": "A4",
          "ticks": 83528,
          "time": 123.12092456250002,
          "velocity": 0.4251968503937008
        },
        {
          "duration": 1.073077687499989,
          "durationTicks": 728,
          "midi": 76,
          "name": "E5",
          "ticks": 83528,
          "time": 123.12092456250002,
          "velocity": 0.4251968503937008
        },
        {
          "duration": 0.819548343749986,
          "durationTicks": 556,
          "midi": 73,
          "name": "C#5",
          "ticks": 84480,
          "time": 124.52418000000002,
          "velocity": 0.4251968503937008
        },
        {
          "duration": 0.8136523124999968,
          "durationTicks": 552,
          "midi": 69,
          "name": "A4",
          "ticks": 84484,
          "time": 124.53007603125,
          "velocity": 0.4251968503937008
        },
        {
          "duration": 0.8136523124999968,
          "durationTicks": 552,
          "midi": 66,
          "name": "F#4",
          "ticks": 84484,
          "time": 124.53007603125,
          "velocity": 0.4251968503937008
        },
        {
          "duration": 1.3678792500000014,
          "durationTicks": 928,
          "midi": 74,
          "name": "D5",
          "ticks": 85064,
          "time": 125.38500056250001,
          "velocity": 0.4251968503937008
        },
        {
          "duration": 1.3737752812499906,
          "durationTicks": 932,
          "midi": 71,
          "name": "B4",
          "ticks": 85064,
          "time": 125.38500056250001,
          "velocity": 0.4251968503937008
        },
        {
          "duration": 1.3619832187500123,
          "durationTicks": 924,
          "midi": 67,
          "name": "G4",
          "ticks": 85064,
          "time": 125.38500056250001,
          "velocity": 0.4251968503937008
        },
        {
          "duration": 0.8254443750000036,
          "durationTicks": 560,
          "midi": 74,
          "name": "D5",
          "ticks": 86016,
          "time": 126.78825600000002,
          "velocity": 0.4251968503937008
        },
        {
          "duration": 0.8254443750000036,
          "durationTicks": 560,
          "midi": 71,
          "name": "B4",
          "ticks": 86020,
          "time": 126.79415203125001,
          "velocity": 0.4251968503937008
        },
        {
          "duration": 0.8490285000000029,
          "durationTicks": 576,
          "midi": 66,
          "name": "F#4",
          "ticks": 86020,
          "time": 126.79415203125001,
          "velocity": 0.4251968503937008
        },
        {
          "duration": 1.3442951250000164,
          "durationTicks": 912,
          "midi": 69,
          "name": "A4",
          "ticks": 86600,
          "time": 127.64907656250001,
          "velocity": 0.4251968503937008
        },
        {
          "duration": 1.3796713125000082,
          "durationTicks": 936,
          "midi": 73,
          "name": "C#5",
          "ticks": 86600,
          "time": 127.64907656250001,
          "velocity": 0.4251968503937008
        },
        {
          "duration": 1.4032554374999933,
          "durationTicks": 952,
          "midi": 76,
          "name": "E5",
          "ticks": 86600,
          "time": 127.64907656250001,
          "velocity": 0.4251968503937008
        },
        {
          "duration": 0.813652312500011,
          "durationTicks": 552,
          "midi": 73,
          "name": "C#5",
          "ticks": 87552,
          "time": 129.052332,
          "velocity": 0.4251968503937008
        },
        {
          "duration": 0.8195483437500002,
          "durationTicks": 556,
          "midi": 69,
          "name": "A4",
          "ticks": 87552,
          "time": 129.052332,
          "velocity": 0.4251968503937008
        },
        {
          "duration": 0.8372364374999961,
          "durationTicks": 568,
          "midi": 66,
          "name": "F#4",
          "ticks": 87552,
          "time": 129.052332,
          "velocity": 0.4251968503937008
        },
        {
          "duration": 1.3737752812499764,
          "durationTicks": 932,
          "midi": 67,
          "name": "G4",
          "ticks": 88136,
          "time": 129.91315256250002,
          "velocity": 0.4251968503937008
        },
        {
          "duration": 1.361983218749998,
          "durationTicks": 924,
          "midi": 71,
          "name": "B4",
          "ticks": 88140,
          "time": 129.91904859375,
          "velocity": 0.4251968503937008
        },
        {
          "duration": 1.3737752812500048,
          "durationTicks": 932,
          "midi": 74,
          "name": "D5",
          "ticks": 88140,
          "time": 129.91904859375,
          "velocity": 0.4251968503937008
        },
        {
          "duration": 0.6839396249999936,
          "durationTicks": 464,
          "midi": 74,
          "name": "D5",
          "ticks": 89088,
          "time": 131.31640800000002,
          "velocity": 0.4251968503937008
        },
        {
          "duration": 0.678043593749976,
          "durationTicks": 460,
          "midi": 71,
          "name": "B4",
          "ticks": 89088,
          "time": 131.31640800000002,
          "velocity": 0.4251968503937008
        },
        {
          "duration": 0.7487959687500165,
          "durationTicks": 508,
          "midi": 66,
          "name": "F#4",
          "ticks": 89092,
          "time": 131.32230403125,
          "velocity": 0.4251968503937008
        },
        {
          "duration": 1.2735427500000185,
          "durationTicks": 864,
          "midi": 73,
          "name": "C#5",
          "ticks": 89672,
          "time": 132.1772285625,
          "velocity": 0.4251968503937008
        },
        {
          "duration": 1.2617506875000117,
          "durationTicks": 856,
          "midi": 69,
          "name": "A4",
          "ticks": 89672,
          "time": 132.1772285625,
          "velocity": 0.4251968503937008
        },
        {
          "duration": 1.073077687499989,
          "durationTicks": 728,
          "midi": 76,
          "name": "E5",
          "ticks": 89672,
          "time": 132.1772285625,
          "velocity": 0.4251968503937008
        },
        {
          "duration": 0.8195483437500002,
          "durationTicks": 556,
          "midi": 73,
          "name": "C#5",
          "ticks": 90624,
          "time": 133.580484,
          "velocity": 0.4251968503937008
        },
        {
          "duration": 0.813652312500011,
          "durationTicks": 552,
          "midi": 69,
          "name": "A4",
          "ticks": 90628,
          "time": 133.58638003125,
          "velocity": 0.4251968503937008
        },
        {
          "duration": 0.813652312500011,
          "durationTicks": 552,
          "midi": 66,
          "name": "F#4",
          "ticks": 90628,
          "time": 133.58638003125,
          "velocity": 0.4251968503937008
        },
        {
          "duration": 1.3678792499999872,
          "durationTicks": 928,
          "midi": 74,
          "name": "D5",
          "ticks": 91208,
          "time": 134.44130456250002,
          "velocity": 0.4251968503937008
        },
        {
          "duration": 1.3737752812499764,
          "durationTicks": 932,
          "midi": 71,
          "name": "B4",
          "ticks": 91208,
          "time": 134.44130456250002,
          "velocity": 0.4251968503937008
        },
        {
          "duration": 1.361983218749998,
          "durationTicks": 924,
          "midi": 67,
          "name": "G4",
          "ticks": 91208,
          "time": 134.44130456250002,
          "velocity": 0.4251968503937008
        },
        {
          "duration": 0.8254443750000178,
          "durationTicks": 560,
          "midi": 74,
          "name": "D5",
          "ticks": 92160,
          "time": 135.84456,
          "velocity": 0.4251968503937008
        },
        {
          "duration": 0.8254443749999893,
          "durationTicks": 560,
          "midi": 71,
          "name": "B4",
          "ticks": 92164,
          "time": 135.85045603125002,
          "velocity": 0.4251968503937008
        },
        {
          "duration": 0.8490284999999744,
          "durationTicks": 576,
          "midi": 66,
          "name": "F#4",
          "ticks": 92164,
          "time": 135.85045603125002,
          "velocity": 0.4251968503937008
        },
        {
          "duration": 1.3442951250000021,
          "durationTicks": 912,
          "midi": 69,
          "name": "A4",
          "ticks": 92744,
          "time": 136.7053805625,
          "velocity": 0.4251968503937008
        },
        {
          "duration": 1.379671312499994,
          "durationTicks": 936,
          "midi": 73,
          "name": "C#5",
          "ticks": 92744,
          "time": 136.7053805625,
          "velocity": 0.4251968503937008
        },
        {
          "duration": 1.4032554375000075,
          "durationTicks": 952,
          "midi": 76,
          "name": "E5",
          "ticks": 92744,
          "time": 136.7053805625,
          "velocity": 0.4251968503937008
        },
        {
          "duration": 0.8136523124999826,
          "durationTicks": 552,
          "midi": 73,
          "name": "C#5",
          "ticks": 93696,
          "time": 138.10863600000002,
          "velocity": 0.4251968503937008
        },
        {
          "duration": 0.8195483437500002,
          "durationTicks": 556,
          "midi": 69,
          "name": "A4",
          "ticks": 93696,
          "time": 138.10863600000002,
          "velocity": 0.4251968503937008
        },
        {
          "duration": 0.8372364374999961,
          "durationTicks": 568,
          "midi": 66,
          "name": "F#4",
          "ticks": 93696,
          "time": 138.10863600000002,
          "velocity": 0.4251968503937008
        },
        {
          "duration": 1.3737752812499764,
          "durationTicks": 932,
          "midi": 67,
          "name": "G4",
          "ticks": 94280,
          "time": 138.96945656250003,
          "velocity": 0.4251968503937008
        },
        {
          "duration": 1.361983218749998,
          "durationTicks": 924,
          "midi": 71,
          "name": "B4",
          "ticks": 94284,
          "time": 138.97535259375002,
          "velocity": 0.4251968503937008
        },
        {
          "duration": 1.3737752812500048,
          "durationTicks": 932,
          "midi": 74,
          "name": "D5",
          "ticks": 94284,
          "time": 138.97535259375002,
          "velocity": 0.4251968503937008
        },
        {
          "duration": 0.813652312500011,
          "durationTicks": 552,
          "midi": 71,
          "name": "B4",
          "ticks": 95232,
          "time": 140.372712,
          "velocity": 0.4251968503937008
        },
        {
          "duration": 0.813652312500011,
          "durationTicks": 552,
          "midi": 66,
          "name": "F#4",
          "ticks": 95232,
          "time": 140.372712,
          "velocity": 0.4251968503937008
        },
        {
          "duration": 0.8254443750000178,
          "durationTicks": 560,
          "midi": 74,
          "name": "D5",
          "ticks": 95232,
          "time": 140.372712,
          "velocity": 0.4251968503937008
        },
        {
          "duration": 1.3855673437499831,
          "durationTicks": 940,
          "midi": 69,
          "name": "A4",
          "ticks": 95816,
          "time": 141.23353256250002,
          "velocity": 0.4251968503937008
        },
        {
          "duration": 1.3678792499999872,
          "durationTicks": 928,
          "midi": 73,
          "name": "C#5",
          "ticks": 95816,
          "time": 141.23353256250002,
          "velocity": 0.4251968503937008
        },
        {
          "duration": 1.361983218749998,
          "durationTicks": 924,
          "midi": 76,
          "name": "E5",
          "ticks": 95816,
          "time": 141.23353256250002,
          "velocity": 0.4251968503937008
        },
        {
          "duration": 0.8313404062499785,
          "durationTicks": 564,
          "midi": 73,
          "name": "C#5",
          "ticks": 96768,
          "time": 142.63678800000002,
          "velocity": 0.4251968503937008
        },
        {
          "duration": 0.8283923906249697,
          "durationTicks": 562,
          "midi": 69,
          "name": "A4",
          "ticks": 96768,
          "time": 142.63678800000002,
          "velocity": 0.4251968503937008
        },
        {
          "duration": 0.8342884218749873,
          "durationTicks": 566,
          "midi": 66,
          "name": "F#4",
          "ticks": 96768,
          "time": 142.63678800000002,
          "velocity": 0.4251968503937008
        },
        {
          "duration": 1.3737752812500048,
          "durationTicks": 932,
          "midi": 66,
          "name": "F#4",
          "ticks": 97352,
          "time": 143.4976085625,
          "velocity": 0.4251968503937008
        },
        {
          "duration": 1.3796713125000224,
          "durationTicks": 936,
          "midi": 67,
          "name": "G4",
          "ticks": 97352,
          "time": 143.4976085625,
          "velocity": 0.4251968503937008
        },
        {
          "duration": 1.3678792500000156,
          "durationTicks": 928,
          "midi": 74,
          "name": "D5",
          "ticks": 97352,
          "time": 143.4976085625,
          "velocity": 0.4251968503937008
        },
        {
          "duration": 0.8195483437499718,
          "durationTicks": 556,
          "midi": 74,
          "name": "D5",
          "ticks": 98308,
          "time": 144.90676003125003,
          "velocity": 0.4251968503937008
        },
        {
          "duration": 0.8254443749999893,
          "durationTicks": 560,
          "midi": 71,
          "name": "B4",
          "ticks": 98308,
          "time": 144.90676003125003,
          "velocity": 0.4251968503937008
        },
        {
          "duration": 0.8195483437499718,
          "durationTicks": 556,
          "midi": 66,
          "name": "F#4",
          "ticks": 98308,
          "time": 144.90676003125003,
          "velocity": 0.4251968503937008
        },
        {
          "duration": 1.3737752812500332,
          "durationTicks": 932,
          "midi": 69,
          "name": "A4",
          "ticks": 98888,
          "time": 145.7616845625,
          "velocity": 0.4251968503937008
        },
        {
          "duration": 1.379671312499994,
          "durationTicks": 936,
          "midi": 73,
          "name": "C#5",
          "ticks": 98892,
          "time": 145.76758059375,
          "velocity": 0.4251968503937008
        },
        {
          "duration": 1.361983218749998,
          "durationTicks": 924,
          "midi": 76,
          "name": "E5",
          "ticks": 98892,
          "time": 145.76758059375,
          "velocity": 0.4251968503937008
        },
        {
          "duration": 0.8313404062500069,
          "durationTicks": 564,
          "midi": 66,
          "name": "F#4",
          "ticks": 99844,
          "time": 147.17083603125002,
          "velocity": 0.4251968503937008
        },
        {
          "duration": 0.8195483437499718,
          "durationTicks": 556,
          "midi": 73,
          "name": "C#5",
          "ticks": 99844,
          "time": 147.17083603125002,
          "velocity": 0.4251968503937008
        },
        {
          "duration": 0.8254443749999893,
          "durationTicks": 560,
          "midi": 69,
          "name": "A4",
          "ticks": 99844,
          "time": 147.17083603125002,
          "velocity": 0.4251968503937008
        },
        {
          "duration": 1.3973594062499899,
          "durationTicks": 948,
          "midi": 71,
          "name": "B4",
          "ticks": 100424,
          "time": 148.0257605625,
          "velocity": 0.4251968503937008
        },
        {
          "duration": 1.3914633750000007,
          "durationTicks": 944,
          "midi": 74,
          "name": "D5",
          "ticks": 100428,
          "time": 148.03165659375,
          "velocity": 0.4251968503937008
        },
        {
          "duration": 1.3855673437500116,
          "durationTicks": 940,
          "midi": 67,
          "name": "G4",
          "ticks": 100428,
          "time": 148.03165659375,
          "velocity": 0.4251968503937008
        },
        {
          "duration": 0.8195483437499718,
          "durationTicks": 556,
          "midi": 78,
          "name": "F#5",
          "ticks": 101380,
          "time": 149.43491203125004,
          "velocity": 0.5905511811023622
        },
        {
          "duration": 0.8254443749999893,
          "durationTicks": 560,
          "midi": 74,
          "name": "D5",
          "ticks": 101380,
          "time": 149.43491203125004,
          "velocity": 0.5905511811023622
        },
        {
          "duration": 0.8313404062499785,
          "durationTicks": 564,
          "midi": 69,
          "name": "A4",
          "ticks": 101380,
          "time": 149.43491203125004,
          "velocity": 0.5905511811023622
        },
        {
          "duration": 1.379671312499994,
          "durationTicks": 936,
          "midi": 69,
          "name": "A4",
          "ticks": 101960,
          "time": 150.2898365625,
          "velocity": 0.5905511811023622
        },
        {
          "duration": 1.3737752812500332,
          "durationTicks": 932,
          "midi": 73,
          "name": "C#5",
          "ticks": 101960,
          "time": 150.2898365625,
          "velocity": 0.5905511811023622
        },
        {
          "duration": 1.3855673437500116,
          "durationTicks": 940,
          "midi": 76,
          "name": "E5",
          "ticks": 101960,
          "time": 150.2898365625,
          "velocity": 0.5905511811023622
        },
        {
          "duration": 2.2581799687499995,
          "durationTicks": 1532,
          "midi": 74,
          "name": "D5",
          "ticks": 102912,
          "time": 151.693092,
          "velocity": 0.5905511811023622
        },
        {
          "duration": 0.8313404062500069,
          "durationTicks": 564,
          "midi": 71,
          "name": "B4",
          "ticks": 102916,
          "time": 151.69898803125002,
          "velocity": 0.5905511811023622
        },
        {
          "duration": 0.813652312500011,
          "durationTicks": 552,
          "midi": 67,
          "name": "G4",
          "ticks": 102916,
          "time": 151.69898803125002,
          "velocity": 0.5905511811023622
        },
        {
          "duration": 1.3973594062499899,
          "durationTicks": 948,
          "midi": 69,
          "name": "A4",
          "ticks": 103496,
          "time": 152.55391256250002,
          "velocity": 0.5905511811023622
        },
        {
          "duration": 1.3973594062499899,
          "durationTicks": 948,
          "midi": 66,
          "name": "F#4",
          "ticks": 103496,
          "time": 152.55391256250002,
          "velocity": 0.5905511811023622
        },
        {
          "duration": 0.8313404062500069,
          "durationTicks": 564,
          "midi": 76,
          "name": "E5",
          "ticks": 104452,
          "time": 153.96306403125,
          "velocity": 0.5905511811023622
        },
        {
          "duration": 0.8254443749999893,
          "durationTicks": 560,
          "midi": 72,
          "name": "C5",
          "ticks": 104452,
          "time": 153.96306403125,
          "velocity": 0.5905511811023622
        },
        {
          "duration": 0.8313404062500069,
          "durationTicks": 564,
          "midi": 79,
          "name": "G5",
          "ticks": 104452,
          "time": 153.96306403125,
          "velocity": 0.5905511811023622
        },
        {
          "duration": 1.3737752812500332,
          "durationTicks": 932,
          "midi": 79,
          "name": "G5",
          "ticks": 105032,
          "time": 154.8179885625,
          "velocity": 0.5905511811023622
        },
        {
          "duration": 1.3855673437500116,
          "durationTicks": 940,
          "midi": 74,
          "name": "D5",
          "ticks": 105036,
          "time": 154.82388459375002,
          "velocity": 0.5905511811023622
        },
        {
          "duration": 1.3914633749999723,
          "durationTicks": 944,
          "midi": 71,
          "name": "B4",
          "ticks": 105036,
          "time": 154.82388459375002,
          "velocity": 0.5905511811023622
        },
        {
          "duration": 2.228699812499997,
          "durationTicks": 1512,
          "midi": 74,
          "name": "D5",
          "ticks": 105988,
          "time": 156.22714003125003,
          "velocity": 0.5905511811023622
        },
        {
          "duration": 2.211011718750001,
          "durationTicks": 1500,
          "midi": 78,
          "name": "F#5",
          "ticks": 105988,
          "time": 156.22714003125003,
          "velocity": 0.5905511811023622
        },
        {
          "duration": 2.211011718750001,
          "durationTicks": 1500,
          "midi": 69,
          "name": "A4",
          "ticks": 105988,
          "time": 156.22714003125003,
          "velocity": 0.5905511811023622
        },
        {
          "duration": 9.056304000000011,
          "durationTicks": 6144,
          "midi": 37,
          "name": "C#2",
          "ticks": 107520,
          "time": 158.48532,
          "velocity": 0.5748031496062992
        },
        {
          "duration": 9.038615906250016,
          "durationTicks": 6132,
          "midi": 49,
          "name": "C#3",
          "ticks": 107524,
          "time": 158.49121603125002,
          "velocity": 0.5433070866141733
        },
        {
          "duration": 0.8313404062500069,
          "durationTicks": 564,
          "midi": 61,
          "name": "C#4",
          "ticks": 113668,
          "time": 167.54752003125003,
          "velocity": 0.3937007874015748
        },
        {
          "duration": 1.4150475000000142,
          "durationTicks": 960,
          "midi": 59,
          "name": "B3",
          "ticks": 114248,
          "time": 168.4024445625,
          "velocity": 0.3937007874015748
        },
        {
          "duration": 0.8490285000000029,
          "durationTicks": 576,
          "midi": 56,
          "name": "G#3",
          "ticks": 115204,
          "time": 169.81159603125002,
          "velocity": 0.3937007874015748
        },
        {
          "duration": 1.4209435312500034,
          "durationTicks": 964,
          "midi": 57,
          "name": "A3",
          "ticks": 115784,
          "time": 170.6665205625,
          "velocity": 0.3937007874015748
        },
        {
          "duration": 0.8549245312500204,
          "durationTicks": 580,
          "midi": 61,
          "name": "C#4",
          "ticks": 116736,
          "time": 172.06977600000002,
          "velocity": 0.3937007874015748
        },
        {
          "duration": 1.0848697500000242,
          "durationTicks": 736,
          "midi": 59,
          "name": "B3",
          "ticks": 117320,
          "time": 172.9305965625,
          "velocity": 0.3937007874015748
        },
        {
          "duration": 0.5247467812500304,
          "durationTicks": 356,
          "midi": 56,
          "name": "G#3",
          "ticks": 118088,
          "time": 174.0626345625,
          "velocity": 0.3937007874015748
        },
        {
          "duration": 1.9338982499999986,
          "durationTicks": 1312,
          "midi": 57,
          "name": "A3",
          "ticks": 118464,
          "time": 174.61686150000003,
          "velocity": 0.3937007874015748
        },
        {
          "duration": 0.8313404062500069,
          "durationTicks": 564,
          "midi": 61,
          "name": "C#4",
          "ticks": 119812,
          "time": 176.60382403125,
          "velocity": 0.3937007874015748
        },
        {
          "duration": 1.4150474999999858,
          "durationTicks": 960,
          "midi": 59,
          "name": "B3",
          "ticks": 120392,
          "time": 177.4587485625,
          "velocity": 0.3937007874015748
        },
        {
          "duration": 0.8490285000000029,
          "durationTicks": 576,
          "midi": 56,
          "name": "G#3",
          "ticks": 121348,
          "time": 178.86790003125003,
          "velocity": 0.3937007874015748
        },
        {
          "duration": 1.4209435312500318,
          "durationTicks": 964,
          "midi": 57,
          "name": "A3",
          "ticks": 121928,
          "time": 179.7228245625,
          "velocity": 0.3937007874015748
        },
        {
          "duration": 0.8549245312500204,
          "durationTicks": 580,
          "midi": 61,
          "name": "C#4",
          "ticks": 122880,
          "time": 181.12608,
          "velocity": 0.3937007874015748
        },
        {
          "duration": 1.0848697499999957,
          "durationTicks": 736,
          "midi": 59,
          "name": "B3",
          "ticks": 123464,
          "time": 181.9869005625,
          "velocity": 0.3937007874015748
        },
        {
          "duration": 0.5247467812500304,
          "durationTicks": 356,
          "midi": 56,
          "name": "G#3",
          "ticks": 124232,
          "time": 183.1189385625,
          "velocity": 0.3937007874015748
        },
        {
          "duration": 1.933898250000027,
          "durationTicks": 1312,
          "midi": 57,
          "name": "A3",
          "ticks": 124608,
          "time": 183.6731655,
          "velocity": 0.3937007874015748
        },
        {
          "duration": 0.8313404062500069,
          "durationTicks": 564,
          "midi": 61,
          "name": "C#4",
          "ticks": 125956,
          "time": 185.66012803125003,
          "velocity": 0.3937007874015748
        },
        {
          "duration": 1.4150474999999858,
          "durationTicks": 960,
          "midi": 59,
          "name": "B3",
          "ticks": 126536,
          "time": 186.51505256250002,
          "velocity": 0.3937007874015748
        },
        {
          "duration": 0.8490285000000029,
          "durationTicks": 576,
          "midi": 56,
          "name": "G#3",
          "ticks": 127492,
          "time": 187.92420403125,
          "velocity": 0.3937007874015748
        },
        {
          "duration": 1.4209435312500034,
          "durationTicks": 964,
          "midi": 57,
          "name": "A3",
          "ticks": 128072,
          "time": 188.7791285625,
          "velocity": 0.3937007874015748
        },
        {
          "duration": 0.8549245312500204,
          "durationTicks": 580,
          "midi": 61,
          "name": "C#4",
          "ticks": 129024,
          "time": 190.182384,
          "velocity": 0.3937007874015748
        },
        {
          "duration": 1.0848697500000242,
          "durationTicks": 736,
          "midi": 59,
          "name": "B3",
          "ticks": 129608,
          "time": 191.0432045625,
          "velocity": 0.3937007874015748
        },
        {
          "duration": 0.524746781250002,
          "durationTicks": 356,
          "midi": 56,
          "name": "G#3",
          "ticks": 130376,
          "time": 192.17524256250002,
          "velocity": 0.3937007874015748
        },
        {
          "duration": 1.9338982499999986,
          "durationTicks": 1312,
          "midi": 57,
          "name": "A3",
          "ticks": 130752,
          "time": 192.72946950000002,
          "velocity": 0.3937007874015748
        },
        {
          "duration": 0.8313404062499785,
          "durationTicks": 564,
          "midi": 61,
          "name": "C#4",
          "ticks": 132100,
          "time": 194.71643203125004,
          "velocity": 0.3937007874015748
        },
        {
          "duration": 1.4150475000000142,
          "durationTicks": 960,
          "midi": 59,
          "name": "B3",
          "ticks": 132680,
          "time": 195.5713565625,
          "velocity": 0.3937007874015748
        },
        {
          "duration": 0.8490285000000029,
          "durationTicks": 576,
          "midi": 56,
          "name": "G#3",
          "ticks": 133636,
          "time": 196.98050803125003,
          "velocity": 0.3937007874015748
        },
        {
          "duration": 1.4209435312500034,
          "durationTicks": 964,
          "midi": 57,
          "name": "A3",
          "ticks": 134216,
          "time": 197.83543256250002,
          "velocity": 0.3937007874015748
        },
        {
          "duration": 0.854924531249992,
          "durationTicks": 580,
          "midi": 61,
          "name": "C#4",
          "ticks": 135168,
          "time": 199.23868800000002,
          "velocity": 0.3937007874015748
        },
        {
          "duration": 1.0848697500000242,
          "durationTicks": 736,
          "midi": 59,
          "name": "B3",
          "ticks": 135752,
          "time": 200.0995085625,
          "velocity": 0.3937007874015748
        },
        {
          "duration": 0.5247467812500304,
          "durationTicks": 356,
          "midi": 56,
          "name": "G#3",
          "ticks": 136520,
          "time": 201.2315465625,
          "velocity": 0.3937007874015748
        },
        {
          "duration": 1.933898250000027,
          "durationTicks": 1312,
          "midi": 57,
          "name": "A3",
          "ticks": 136896,
          "time": 201.7857735,
          "velocity": 0.3937007874015748
        },
        {
          "duration": 0.5896031249999965,
          "durationTicks": 400,
          "midi": 57,
          "name": "A3",
          "ticks": 138244,
          "time": 203.77273603125002,
          "velocity": 0.3937007874015748
        },
        {
          "duration": 1.3678792500000156,
          "durationTicks": 928,
          "midi": 57,
          "name": "A3",
          "ticks": 138824,
          "time": 204.6276605625,
          "velocity": 0.3937007874015748
        },
        {
          "duration": 0.5837070937499789,
          "durationTicks": 396,
          "midi": 50,
          "name": "D3",
          "ticks": 139780,
          "time": 206.03681203125004,
          "velocity": 0.3937007874015748
        },
        {
          "duration": 1.3413471093750218,
          "durationTicks": 910,
          "midi": 57,
          "name": "A3",
          "ticks": 140360,
          "time": 206.8917365625,
          "velocity": 0.3937007874015748
        },
        {
          "duration": 0.5896031250000249,
          "durationTicks": 400,
          "midi": 55,
          "name": "G3",
          "ticks": 141312,
          "time": 208.294992,
          "velocity": 0.3937007874015748
        },
        {
          "duration": 1.0848697499999957,
          "durationTicks": 736,
          "midi": 55,
          "name": "G3",
          "ticks": 141896,
          "time": 209.15581256250002,
          "velocity": 0.3937007874015748
        },
        {
          "duration": 2.4409569375000046,
          "durationTicks": 1656,
          "midi": 57,
          "name": "A3",
          "ticks": 142664,
          "time": 210.2878505625,
          "velocity": 0.3937007874015748
        },
        {
          "duration": 0.589603124999968,
          "durationTicks": 400,
          "midi": 57,
          "name": "A3",
          "ticks": 144388,
          "time": 212.82904003125003,
          "velocity": 0.3937007874015748
        },
        {
          "duration": 1.3678792500000156,
          "durationTicks": 928,
          "midi": 57,
          "name": "A3",
          "ticks": 144968,
          "time": 213.6839645625,
          "velocity": 0.3937007874015748
        },
        {
          "duration": 0.5837070937500073,
          "durationTicks": 396,
          "midi": 50,
          "name": "D3",
          "ticks": 145924,
          "time": 215.09311603125002,
          "velocity": 0.3937007874015748
        },
        {
          "duration": 1.3413471093749934,
          "durationTicks": 910,
          "midi": 57,
          "name": "A3",
          "ticks": 146504,
          "time": 215.9480405625,
          "velocity": 0.3937007874015748
        },
        {
          "duration": 0.5896031250000249,
          "durationTicks": 400,
          "midi": 55,
          "name": "G3",
          "ticks": 147456,
          "time": 217.35129600000002,
          "velocity": 0.3937007874015748
        },
        {
          "duration": 1.0848697500000242,
          "durationTicks": 736,
          "midi": 55,
          "name": "G3",
          "ticks": 148040,
          "time": 218.2121165625,
          "velocity": 0.3937007874015748
        },
        {
          "duration": 2.4409569375000046,
          "durationTicks": 1656,
          "midi": 57,
          "name": "A3",
          "ticks": 148808,
          "time": 219.3441545625,
          "velocity": 0.3937007874015748
        },
        {
          "duration": 0.589603124999968,
          "durationTicks": 400,
          "midi": 57,
          "name": "A3",
          "ticks": 150532,
          "time": 221.88534403125004,
          "velocity": 0.3937007874015748
        },
        {
          "duration": 1.3678792500000156,
          "durationTicks": 928,
          "midi": 57,
          "name": "A3",
          "ticks": 151112,
          "time": 222.7402685625,
          "velocity": 0.3937007874015748
        },
        {
          "duration": 0.5837070937500073,
          "durationTicks": 396,
          "midi": 50,
          "name": "D3",
          "ticks": 152068,
          "time": 224.14942003125003,
          "velocity": 0.3937007874015748
        },
        {
          "duration": 1.3413471093749934,
          "durationTicks": 910,
          "midi": 57,
          "name": "A3",
          "ticks": 152648,
          "time": 225.00434456250002,
          "velocity": 0.3937007874015748
        },
        {
          "duration": 0.5896031249999965,
          "durationTicks": 400,
          "midi": 55,
          "name": "G3",
          "ticks": 153600,
          "time": 226.40760000000003,
          "velocity": 0.3937007874015748
        },
        {
          "duration": 1.0848697499999957,
          "durationTicks": 736,
          "midi": 55,
          "name": "G3",
          "ticks": 154184,
          "time": 227.2684205625,
          "velocity": 0.3937007874015748
        },
        {
          "duration": 2.4409569375000046,
          "durationTicks": 1656,
          "midi": 57,
          "name": "A3",
          "ticks": 154952,
          "time": 228.4004585625,
          "velocity": 0.3937007874015748
        },
        {
          "duration": 0.5896031249999965,
          "durationTicks": 400,
          "midi": 57,
          "name": "A3",
          "ticks": 156676,
          "time": 230.94164803125003,
          "velocity": 0.3937007874015748
        },
        {
          "duration": 1.3678792500000156,
          "durationTicks": 928,
          "midi": 57,
          "name": "A3",
          "ticks": 157256,
          "time": 231.79657256250002,
          "velocity": 0.3937007874015748
        },
        {
          "duration": 0.5837070937499789,
          "durationTicks": 396,
          "midi": 50,
          "name": "D3",
          "ticks": 158212,
          "time": 233.20572403125004,
          "velocity": 0.3937007874015748
        },
        {
          "duration": 1.3413471093750218,
          "durationTicks": 910,
          "midi": 57,
          "name": "A3",
          "ticks": 158792,
          "time": 234.0606485625,
          "velocity": 0.3937007874015748
        },
        {
          "duration": 0.5896031250000249,
          "durationTicks": 400,
          "midi": 55,
          "name": "G3",
          "ticks": 159744,
          "time": 235.463904,
          "velocity": 0.3937007874015748
        },
        {
          "duration": 1.0848697499999957,
          "durationTicks": 736,
          "midi": 55,
          "name": "G3",
          "ticks": 160328,
          "time": 236.32472456250002,
          "velocity": 0.3937007874015748
        },
        {
          "duration": 11.290899843749997,
          "durationTicks": 7660,
          "midi": 26,
          "name": "D1",
          "ticks": 161280,
          "time": 237.72798000000003,
          "velocity": 0.47244094488188976
        },
        {
          "duration": 11.290899843749997,
          "durationTicks": 7660,
          "midi": 50,
          "name": "D3",
          "ticks": 161280,
          "time": 237.72798000000003,
          "velocity": 0.3464566929133858
        },
        {
          "duration": 11.290899843749997,
          "durationTicks": 7660,
          "midi": 74,
          "name": "D5",
          "ticks": 161280,
          "time": 237.72798000000003,
          "velocity": 0.3464566929133858
        }
      ],
      "endOfTrackTicks": 168960
    },
    {
      "channel": 7,
      "controlChanges": {},
      "pitchBends": [],
      "instrument": {
        "family": "piano",
        "number": 0,
        "name": "acoustic grand piano"
      },
      "name": "Celesta  ",
      "notes": [
        {
          "duration": 0.6898356562500005,
          "durationTicks": 468,
          "midi": 78,
          "name": "F#5",
          "ticks": 9216,
          "time": 13.584456000000001,
          "velocity": 0.47244094488188976
        },
        {
          "duration": 0.6898356562500005,
          "durationTicks": 468,
          "midi": 86,
          "name": "D6",
          "ticks": 9216,
          "time": 13.584456000000001,
          "velocity": 0.6299212598425197
        },
        {
          "duration": 0.6898356562500005,
          "durationTicks": 468,
          "midi": 83,
          "name": "B5",
          "ticks": 9220,
          "time": 13.590352031250001,
          "velocity": 0.47244094488188976
        },
        {
          "duration": 0.8961967499999997,
          "durationTicks": 608,
          "midi": 81,
          "name": "A5",
          "ticks": 9792,
          "time": 14.4334845,
          "velocity": 0.47244094488188976
        },
        {
          "duration": 0.8961967499999997,
          "durationTicks": 608,
          "midi": 85,
          "name": "C#6",
          "ticks": 9792,
          "time": 14.4334845,
          "velocity": 0.47244094488188976
        },
        {
          "duration": 0.9374689687500002,
          "durationTicks": 636,
          "midi": 88,
          "name": "E6",
          "ticks": 9800,
          "time": 14.4452765625,
          "velocity": 0.6299212598425197
        },
        {
          "duration": 0.6898356562500005,
          "durationTicks": 468,
          "midi": 78,
          "name": "F#5",
          "ticks": 10752,
          "time": 15.848532000000002,
          "velocity": 0.47244094488188976
        },
        {
          "duration": 0.7959642187500009,
          "durationTicks": 540,
          "midi": 85,
          "name": "C#6",
          "ticks": 10752,
          "time": 15.848532000000002,
          "velocity": 0.6299212598425197
        },
        {
          "duration": 0.6898356562500005,
          "durationTicks": 468,
          "midi": 81,
          "name": "A5",
          "ticks": 10756,
          "time": 15.854428031250002,
          "velocity": 0.47244094488188976
        },
        {
          "duration": 0.8961967499999979,
          "durationTicks": 608,
          "midi": 79,
          "name": "G5",
          "ticks": 11328,
          "time": 16.6975605,
          "velocity": 0.47244094488188976
        },
        {
          "duration": 0.8961967499999979,
          "durationTicks": 608,
          "midi": 83,
          "name": "B5",
          "ticks": 11328,
          "time": 16.6975605,
          "velocity": 0.47244094488188976
        },
        {
          "duration": 0.8431324687499995,
          "durationTicks": 572,
          "midi": 86,
          "name": "D6",
          "ticks": 11336,
          "time": 16.7093525625,
          "velocity": 0.6299212598425197
        },
        {
          "duration": 0.6898356562500005,
          "durationTicks": 468,
          "midi": 78,
          "name": "F#5",
          "ticks": 12288,
          "time": 18.112608,
          "velocity": 0.47244094488188976
        },
        {
          "duration": 0.6898356562500005,
          "durationTicks": 468,
          "midi": 86,
          "name": "D6",
          "ticks": 12288,
          "time": 18.112608,
          "velocity": 0.6299212598425197
        },
        {
          "duration": 0.6898356562500005,
          "durationTicks": 468,
          "midi": 83,
          "name": "B5",
          "ticks": 12292,
          "time": 18.11850403125,
          "velocity": 0.47244094488188976
        },
        {
          "duration": 0.8961967500000014,
          "durationTicks": 608,
          "midi": 81,
          "name": "A5",
          "ticks": 12864,
          "time": 18.9616365,
          "velocity": 0.47244094488188976
        },
        {
          "duration": 0.8961967500000014,
          "durationTicks": 608,
          "midi": 85,
          "name": "C#6",
          "ticks": 12864,
          "time": 18.9616365,
          "velocity": 0.47244094488188976
        },
        {
          "duration": 0.9374689687500002,
          "durationTicks": 636,
          "midi": 88,
          "name": "E6",
          "ticks": 12872,
          "time": 18.973428562500004,
          "velocity": 0.6299212598425197
        },
        {
          "duration": 0.5100067031249971,
          "durationTicks": 346,
          "midi": 78,
          "name": "F#5",
          "ticks": 13632,
          "time": 20.093674500000002,
          "velocity": 0.47244094488188976
        },
        {
          "duration": 0.7959642187500009,
          "durationTicks": 540,
          "midi": 85,
          "name": "C#6",
          "ticks": 13632,
          "time": 20.093674500000002,
          "velocity": 0.6299212598425197
        },
        {
          "duration": 0.689835656249997,
          "durationTicks": 468,
          "midi": 81,
          "name": "A5",
          "ticks": 13636,
          "time": 20.099570531250002,
          "velocity": 0.47244094488188976
        },
        {
          "duration": 0.27121743749999894,
          "durationTicks": 184,
          "midi": 78,
          "name": "F#5",
          "ticks": 14016,
          "time": 20.659693500000003,
          "velocity": 0.4409448818897638
        },
        {
          "duration": 0.8961967500000014,
          "durationTicks": 608,
          "midi": 79,
          "name": "G5",
          "ticks": 14208,
          "time": 20.942703,
          "velocity": 0.47244094488188976
        },
        {
          "duration": 0.8961967500000014,
          "durationTicks": 608,
          "midi": 83,
          "name": "B5",
          "ticks": 14208,
          "time": 20.942703,
          "velocity": 0.47244094488188976
        },
        {
          "duration": 0.8431324687499959,
          "durationTicks": 572,
          "midi": 86,
          "name": "D6",
          "ticks": 14216,
          "time": 20.954495062500005,
          "velocity": 0.6299212598425197
        },
        {
          "duration": 0.6898356562500005,
          "durationTicks": 468,
          "midi": 78,
          "name": "F#5",
          "ticks": 15360,
          "time": 22.64076,
          "velocity": 0.47244094488188976
        },
        {
          "duration": 0.6898356562500005,
          "durationTicks": 468,
          "midi": 86,
          "name": "D6",
          "ticks": 15360,
          "time": 22.64076,
          "velocity": 0.6299212598425197
        },
        {
          "duration": 0.6898356562500005,
          "durationTicks": 468,
          "midi": 83,
          "name": "B5",
          "ticks": 15364,
          "time": 22.64665603125,
          "velocity": 0.47244094488188976
        },
        {
          "duration": 0.8961967500000014,
          "durationTicks": 608,
          "midi": 81,
          "name": "A5",
          "ticks": 15936,
          "time": 23.489788500000003,
          "velocity": 0.47244094488188976
        },
        {
          "duration": 0.8961967500000014,
          "durationTicks": 608,
          "midi": 85,
          "name": "C#6",
          "ticks": 15936,
          "time": 23.489788500000003,
          "velocity": 0.47244094488188976
        },
        {
          "duration": 0.9374689687500002,
          "durationTicks": 636,
          "midi": 88,
          "name": "E6",
          "ticks": 15944,
          "time": 23.501580562500003,
          "velocity": 0.6299212598425197
        },
        {
          "duration": 0.6898356562500005,
          "durationTicks": 468,
          "midi": 78,
          "name": "F#5",
          "ticks": 16896,
          "time": 24.904836000000003,
          "velocity": 0.47244094488188976
        },
        {
          "duration": 0.7959642187500009,
          "durationTicks": 540,
          "midi": 85,
          "name": "C#6",
          "ticks": 16896,
          "time": 24.904836000000003,
          "velocity": 0.6299212598425197
        },
        {
          "duration": 0.6898356562500005,
          "durationTicks": 468,
          "midi": 81,
          "name": "A5",
          "ticks": 16900,
          "time": 24.91073203125,
          "velocity": 0.47244094488188976
        },
        {
          "duration": 0.8961967500000014,
          "durationTicks": 608,
          "midi": 79,
          "name": "G5",
          "ticks": 17472,
          "time": 25.753864500000002,
          "velocity": 0.47244094488188976
        },
        {
          "duration": 0.8961967500000014,
          "durationTicks": 608,
          "midi": 83,
          "name": "B5",
          "ticks": 17472,
          "time": 25.753864500000002,
          "velocity": 0.47244094488188976
        },
        {
          "duration": 0.8431324687499995,
          "durationTicks": 572,
          "midi": 86,
          "name": "D6",
          "ticks": 17480,
          "time": 25.765656562500002,
          "velocity": 0.6299212598425197
        },
        {
          "duration": 0.6898356562500005,
          "durationTicks": 468,
          "midi": 78,
          "name": "F#5",
          "ticks": 18432,
          "time": 27.168912000000002,
          "velocity": 0.47244094488188976
        },
        {
          "duration": 0.6898356562500005,
          "durationTicks": 468,
          "midi": 86,
          "name": "D6",
          "ticks": 18432,
          "time": 27.168912000000002,
          "velocity": 0.6299212598425197
        },
        {
          "duration": 0.6898356562500005,
          "durationTicks": 468,
          "midi": 83,
          "name": "B5",
          "ticks": 18436,
          "time": 27.174808031250002,
          "velocity": 0.47244094488188976
        },
        {
          "duration": 0.8961967500000014,
          "durationTicks": 608,
          "midi": 81,
          "name": "A5",
          "ticks": 19008,
          "time": 28.0179405,
          "velocity": 0.47244094488188976
        },
        {
          "duration": 0.8961967500000014,
          "durationTicks": 608,
          "midi": 85,
          "name": "C#6",
          "ticks": 19008,
          "time": 28.0179405,
          "velocity": 0.47244094488188976
        },
        {
          "duration": 0.9374689687500002,
          "durationTicks": 636,
          "midi": 88,
          "name": "E6",
          "ticks": 19016,
          "time": 28.029732562500005,
          "velocity": 0.6299212598425197
        },
        {
          "duration": 0.5100067031249971,
          "durationTicks": 346,
          "midi": 78,
          "name": "F#5",
          "ticks": 19776,
          "time": 29.149978500000003,
          "velocity": 0.47244094488188976
        },
        {
          "duration": 0.7959642187500009,
          "durationTicks": 540,
          "midi": 85,
          "name": "C#6",
          "ticks": 19776,
          "time": 29.149978500000003,
          "velocity": 0.6299212598425197
        },
        {
          "duration": 0.689835656249997,
          "durationTicks": 468,
          "midi": 81,
          "name": "A5",
          "ticks": 19780,
          "time": 29.155874531250003,
          "velocity": 0.47244094488188976
        },
        {
          "duration": 0.27121743749999894,
          "durationTicks": 184,
          "midi": 78,
          "name": "F#5",
          "ticks": 20160,
          "time": 29.715997500000004,
          "velocity": 0.4409448818897638
        },
        {
          "duration": 0.8961967500000014,
          "durationTicks": 608,
          "midi": 79,
          "name": "G5",
          "ticks": 20352,
          "time": 29.999007000000002,
          "velocity": 0.47244094488188976
        },
        {
          "duration": 0.8961967500000014,
          "durationTicks": 608,
          "midi": 83,
          "name": "B5",
          "ticks": 20352,
          "time": 29.999007000000002,
          "velocity": 0.47244094488188976
        },
        {
          "duration": 0.8431324687499959,
          "durationTicks": 572,
          "midi": 86,
          "name": "D6",
          "ticks": 20360,
          "time": 30.010799062500006,
          "velocity": 0.6299212598425197
        },
        {
          "duration": 0.689835656249997,
          "durationTicks": 468,
          "midi": 78,
          "name": "F#5",
          "ticks": 21504,
          "time": 31.697064000000005,
          "velocity": 0.47244094488188976
        },
        {
          "duration": 0.689835656249997,
          "durationTicks": 468,
          "midi": 86,
          "name": "D6",
          "ticks": 21504,
          "time": 31.697064000000005,
          "velocity": 0.6299212598425197
        },
        {
          "duration": 0.6898356562500041,
          "durationTicks": 468,
          "midi": 83,
          "name": "B5",
          "ticks": 21508,
          "time": 31.70296003125,
          "velocity": 0.47244094488188976
        },
        {
          "duration": 0.8961967500000014,
          "durationTicks": 608,
          "midi": 81,
          "name": "A5",
          "ticks": 22080,
          "time": 32.5460925,
          "velocity": 0.47244094488188976
        },
        {
          "duration": 0.8961967500000014,
          "durationTicks": 608,
          "midi": 85,
          "name": "C#6",
          "ticks": 22080,
          "time": 32.5460925,
          "velocity": 0.47244094488188976
        },
        {
          "duration": 0.9374689687499966,
          "durationTicks": 636,
          "midi": 88,
          "name": "E6",
          "ticks": 22088,
          "time": 32.55788456250001,
          "velocity": 0.6299212598425197
        },
        {
          "duration": 0.6898356562500041,
          "durationTicks": 468,
          "midi": 78,
          "name": "F#5",
          "ticks": 23040,
          "time": 33.96114,
          "velocity": 0.47244094488188976
        },
        {
          "duration": 0.7959642187500009,
          "durationTicks": 540,
          "midi": 85,
          "name": "C#6",
          "ticks": 23040,
          "time": 33.96114,
          "velocity": 0.6299212598425197
        },
        {
          "duration": 0.689835656249997,
          "durationTicks": 468,
          "midi": 81,
          "name": "A5",
          "ticks": 23044,
          "time": 33.967036031250004,
          "velocity": 0.47244094488188976
        },
        {
          "duration": 0.8961967500000014,
          "durationTicks": 608,
          "midi": 79,
          "name": "G5",
          "ticks": 23616,
          "time": 34.8101685,
          "velocity": 0.47244094488188976
        },
        {
          "duration": 0.8961967500000014,
          "durationTicks": 608,
          "midi": 83,
          "name": "B5",
          "ticks": 23616,
          "time": 34.8101685,
          "velocity": 0.47244094488188976
        },
        {
          "duration": 0.8431324687499995,
          "durationTicks": 572,
          "midi": 86,
          "name": "D6",
          "ticks": 23624,
          "time": 34.8219605625,
          "velocity": 0.6299212598425197
        },
        {
          "duration": 0.689835656249997,
          "durationTicks": 468,
          "midi": 78,
          "name": "F#5",
          "ticks": 24576,
          "time": 36.225216,
          "velocity": 0.47244094488188976
        },
        {
          "duration": 0.689835656249997,
          "durationTicks": 468,
          "midi": 86,
          "name": "D6",
          "ticks": 24576,
          "time": 36.225216,
          "velocity": 0.6299212598425197
        },
        {
          "duration": 0.689835656249997,
          "durationTicks": 468,
          "midi": 83,
          "name": "B5",
          "ticks": 24580,
          "time": 36.23111203125001,
          "velocity": 0.47244094488188976
        },
        {
          "duration": 0.8961967499999943,
          "durationTicks": 608,
          "midi": 81,
          "name": "A5",
          "ticks": 25152,
          "time": 37.074244500000006,
          "velocity": 0.47244094488188976
        },
        {
          "duration": 0.8961967499999943,
          "durationTicks": 608,
          "midi": 85,
          "name": "C#6",
          "ticks": 25152,
          "time": 37.074244500000006,
          "velocity": 0.47244094488188976
        },
        {
          "duration": 0.9374689687500037,
          "durationTicks": 636,
          "midi": 88,
          "name": "E6",
          "ticks": 25160,
          "time": 37.0860365625,
          "velocity": 0.6299212598425197
        },
        {
          "duration": 0.5100067031250077,
          "durationTicks": 346,
          "midi": 78,
          "name": "F#5",
          "ticks": 25920,
          "time": 38.2062825,
          "velocity": 0.47244094488188976
        },
        {
          "duration": 0.7959642187500009,
          "durationTicks": 540,
          "midi": 85,
          "name": "C#6",
          "ticks": 25920,
          "time": 38.2062825,
          "velocity": 0.6299212598425197
        },
        {
          "duration": 0.6898356562500041,
          "durationTicks": 468,
          "midi": 81,
          "name": "A5",
          "ticks": 25924,
          "time": 38.212178531250004,
          "velocity": 0.47244094488188976
        },
        {
          "duration": 0.27121743749999894,
          "durationTicks": 184,
          "midi": 78,
          "name": "F#5",
          "ticks": 26304,
          "time": 38.772301500000005,
          "velocity": 0.4409448818897638
        },
        {
          "duration": 0.8961967499999943,
          "durationTicks": 608,
          "midi": 79,
          "name": "G5",
          "ticks": 26496,
          "time": 39.055311,
          "velocity": 0.47244094488188976
        },
        {
          "duration": 0.8961967499999943,
          "durationTicks": 608,
          "midi": 83,
          "name": "B5",
          "ticks": 26496,
          "time": 39.055311,
          "velocity": 0.47244094488188976
        },
        {
          "duration": 0.8431324687500066,
          "durationTicks": 572,
          "midi": 86,
          "name": "D6",
          "ticks": 26504,
          "time": 39.0671030625,
          "velocity": 0.6299212598425197
        },
        {
          "duration": 0.6898356562500041,
          "durationTicks": 468,
          "midi": 78,
          "name": "F#5",
          "ticks": 27648,
          "time": 40.753368,
          "velocity": 0.47244094488188976
        },
        {
          "duration": 0.6898356562500041,
          "durationTicks": 468,
          "midi": 86,
          "name": "D6",
          "ticks": 27648,
          "time": 40.753368,
          "velocity": 0.6299212598425197
        },
        {
          "duration": 0.6898356562500041,
          "durationTicks": 468,
          "midi": 83,
          "name": "B5",
          "ticks": 27652,
          "time": 40.759264031250005,
          "velocity": 0.47244094488188976
        },
        {
          "duration": 0.8961967499999943,
          "durationTicks": 608,
          "midi": 81,
          "name": "A5",
          "ticks": 28224,
          "time": 41.602396500000005,
          "velocity": 0.47244094488188976
        },
        {
          "duration": 0.8961967499999943,
          "durationTicks": 608,
          "midi": 85,
          "name": "C#6",
          "ticks": 28224,
          "time": 41.602396500000005,
          "velocity": 0.47244094488188976
        },
        {
          "duration": 0.9374689687499966,
          "durationTicks": 636,
          "midi": 88,
          "name": "E6",
          "ticks": 28232,
          "time": 41.614188562500004,
          "velocity": 0.6299212598425197
        },
        {
          "duration": 0.689835656249997,
          "durationTicks": 468,
          "midi": 78,
          "name": "F#5",
          "ticks": 29184,
          "time": 43.017444000000005,
          "velocity": 0.47244094488188976
        },
        {
          "duration": 0.7959642187500009,
          "durationTicks": 540,
          "midi": 85,
          "name": "C#6",
          "ticks": 29184,
          "time": 43.017444000000005,
          "velocity": 0.6299212598425197
        },
        {
          "duration": 0.689835656249997,
          "durationTicks": 468,
          "midi": 81,
          "name": "A5",
          "ticks": 29188,
          "time": 43.02334003125001,
          "velocity": 0.47244094488188976
        },
        {
          "duration": 0.8961967500000014,
          "durationTicks": 608,
          "midi": 79,
          "name": "G5",
          "ticks": 29760,
          "time": 43.8664725,
          "velocity": 0.47244094488188976
        },
        {
          "duration": 0.8961967500000014,
          "durationTicks": 608,
          "midi": 83,
          "name": "B5",
          "ticks": 29760,
          "time": 43.8664725,
          "velocity": 0.47244094488188976
        },
        {
          "duration": 0.8431324687500066,
          "durationTicks": 572,
          "midi": 86,
          "name": "D6",
          "ticks": 29768,
          "time": 43.8782645625,
          "velocity": 0.6299212598425197
        },
        {
          "duration": 0.6898356562500041,
          "durationTicks": 468,
          "midi": 78,
          "name": "F#5",
          "ticks": 30720,
          "time": 45.28152,
          "velocity": 0.47244094488188976
        },
        {
          "duration": 0.6898356562500041,
          "durationTicks": 468,
          "midi": 86,
          "name": "D6",
          "ticks": 30720,
          "time": 45.28152,
          "velocity": 0.6299212598425197
        },
        {
          "duration": 0.6898356562500041,
          "durationTicks": 468,
          "midi": 83,
          "name": "B5",
          "ticks": 30724,
          "time": 45.287416031250004,
          "velocity": 0.47244094488188976
        },
        {
          "duration": 0.8961967500000014,
          "durationTicks": 608,
          "midi": 81,
          "name": "A5",
          "ticks": 31296,
          "time": 46.1305485,
          "velocity": 0.47244094488188976
        },
        {
          "duration": 0.8961967500000014,
          "durationTicks": 608,
          "midi": 85,
          "name": "C#6",
          "ticks": 31296,
          "time": 46.1305485,
          "velocity": 0.47244094488188976
        },
        {
          "duration": 0.9374689687499966,
          "durationTicks": 636,
          "midi": 88,
          "name": "E6",
          "ticks": 31304,
          "time": 46.1423405625,
          "velocity": 0.6299212598425197
        },
        {
          "duration": 0.5100067031250006,
          "durationTicks": 346,
          "midi": 78,
          "name": "F#5",
          "ticks": 32064,
          "time": 47.262586500000005,
          "velocity": 0.47244094488188976
        },
        {
          "duration": 0.7959642187500009,
          "durationTicks": 540,
          "midi": 85,
          "name": "C#6",
          "ticks": 32064,
          "time": 47.262586500000005,
          "velocity": 0.6299212598425197
        },
        {
          "duration": 0.689835656249997,
          "durationTicks": 468,
          "midi": 81,
          "name": "A5",
          "ticks": 32068,
          "time": 47.26848253125001,
          "velocity": 0.47244094488188976
        },
        {
          "duration": 0.27121743750000604,
          "durationTicks": 184,
          "midi": 78,
          "name": "F#5",
          "ticks": 32448,
          "time": 47.8286055,
          "velocity": 0.4409448818897638
        },
        {
          "duration": 0.8961967499999943,
          "durationTicks": 608,
          "midi": 79,
          "name": "G5",
          "ticks": 32640,
          "time": 48.11161500000001,
          "velocity": 0.47244094488188976
        },
        {
          "duration": 0.8961967499999943,
          "durationTicks": 608,
          "midi": 83,
          "name": "B5",
          "ticks": 32640,
          "time": 48.11161500000001,
          "velocity": 0.47244094488188976
        },
        {
          "duration": 0.8431324687500066,
          "durationTicks": 572,
          "midi": 86,
          "name": "D6",
          "ticks": 32648,
          "time": 48.1234070625,
          "velocity": 0.6299212598425197
        },
        {
          "duration": 0.689835656249997,
          "durationTicks": 468,
          "midi": 78,
          "name": "F#5",
          "ticks": 33792,
          "time": 49.809672000000006,
          "velocity": 0.47244094488188976
        },
        {
          "duration": 0.689835656249997,
          "durationTicks": 468,
          "midi": 86,
          "name": "D6",
          "ticks": 33792,
          "time": 49.809672000000006,
          "velocity": 0.6299212598425197
        },
        {
          "duration": 0.689835656249997,
          "durationTicks": 468,
          "midi": 83,
          "name": "B5",
          "ticks": 33796,
          "time": 49.81556803125001,
          "velocity": 0.47244094488188976
        },
        {
          "duration": 0.8961967500000014,
          "durationTicks": 608,
          "midi": 81,
          "name": "A5",
          "ticks": 34368,
          "time": 50.6587005,
          "velocity": 0.47244094488188976
        },
        {
          "duration": 0.8961967500000014,
          "durationTicks": 608,
          "midi": 85,
          "name": "C#6",
          "ticks": 34368,
          "time": 50.6587005,
          "velocity": 0.47244094488188976
        },
        {
          "duration": 0.9374689687500037,
          "durationTicks": 636,
          "midi": 88,
          "name": "E6",
          "ticks": 34376,
          "time": 50.6704925625,
          "velocity": 0.6299212598425197
        },
        {
          "duration": 0.6898356562500041,
          "durationTicks": 468,
          "midi": 78,
          "name": "F#5",
          "ticks": 35328,
          "time": 52.073748,
          "velocity": 0.47244094488188976
        },
        {
          "duration": 0.7959642187500009,
          "durationTicks": 540,
          "midi": 85,
          "name": "C#6",
          "ticks": 35328,
          "time": 52.073748,
          "velocity": 0.6299212598425197
        },
        {
          "duration": 0.6898356562500041,
          "durationTicks": 468,
          "midi": 81,
          "name": "A5",
          "ticks": 35332,
          "time": 52.079644031250005,
          "velocity": 0.47244094488188976
        },
        {
          "duration": 0.8961967499999943,
          "durationTicks": 608,
          "midi": 79,
          "name": "G5",
          "ticks": 35904,
          "time": 52.922776500000005,
          "velocity": 0.47244094488188976
        },
        {
          "duration": 0.8961967499999943,
          "durationTicks": 608,
          "midi": 83,
          "name": "B5",
          "ticks": 35904,
          "time": 52.922776500000005,
          "velocity": 0.47244094488188976
        },
        {
          "duration": 0.8431324687499995,
          "durationTicks": 572,
          "midi": 86,
          "name": "D6",
          "ticks": 35912,
          "time": 52.934568562500004,
          "velocity": 0.6299212598425197
        },
        {
          "duration": 0.689835656249997,
          "durationTicks": 468,
          "midi": 78,
          "name": "F#5",
          "ticks": 36864,
          "time": 54.337824000000005,
          "velocity": 0.47244094488188976
        },
        {
          "duration": 0.689835656249997,
          "durationTicks": 468,
          "midi": 86,
          "name": "D6",
          "ticks": 36864,
          "time": 54.337824000000005,
          "velocity": 0.6299212598425197
        },
        {
          "duration": 0.689835656249997,
          "durationTicks": 468,
          "midi": 83,
          "name": "B5",
          "ticks": 36868,
          "time": 54.34372003125001,
          "velocity": 0.47244094488188976
        },
        {
          "duration": 0.8961967499999943,
          "durationTicks": 608,
          "midi": 81,
          "name": "A5",
          "ticks": 37440,
          "time": 55.18685250000001,
          "velocity": 0.47244094488188976
        },
        {
          "duration": 0.8961967499999943,
          "durationTicks": 608,
          "midi": 85,
          "name": "C#6",
          "ticks": 37440,
          "time": 55.18685250000001,
          "velocity": 0.47244094488188976
        },
        {
          "duration": 0.9374689687500037,
          "durationTicks": 636,
          "midi": 88,
          "name": "E6",
          "ticks": 37448,
          "time": 55.1986445625,
          "velocity": 0.6299212598425197
        },
        {
          "duration": 0.5100067031250077,
          "durationTicks": 346,
          "midi": 78,
          "name": "F#5",
          "ticks": 38208,
          "time": 56.3188905,
          "velocity": 0.47244094488188976
        },
        {
          "duration": 0.7959642187500009,
          "durationTicks": 540,
          "midi": 85,
          "name": "C#6",
          "ticks": 38208,
          "time": 56.3188905,
          "velocity": 0.6299212598425197
        },
        {
          "duration": 0.6898356562500041,
          "durationTicks": 468,
          "midi": 81,
          "name": "A5",
          "ticks": 38212,
          "time": 56.324786531250005,
          "velocity": 0.47244094488188976
        },
        {
          "duration": 0.27121743749999894,
          "durationTicks": 184,
          "midi": 78,
          "name": "F#5",
          "ticks": 38592,
          "time": 56.884909500000006,
          "velocity": 0.4409448818897638
        },
        {
          "duration": 0.8961967499999943,
          "durationTicks": 608,
          "midi": 79,
          "name": "G5",
          "ticks": 38784,
          "time": 57.167919000000005,
          "velocity": 0.47244094488188976
        },
        {
          "duration": 0.8961967499999943,
          "durationTicks": 608,
          "midi": 83,
          "name": "B5",
          "ticks": 38784,
          "time": 57.167919000000005,
          "velocity": 0.47244094488188976
        },
        {
          "duration": 0.8431324687500066,
          "durationTicks": 572,
          "midi": 86,
          "name": "D6",
          "ticks": 38792,
          "time": 57.179711062500004,
          "velocity": 0.6299212598425197
        },
        {
          "duration": 0.6898356562500041,
          "durationTicks": 468,
          "midi": 78,
          "name": "F#5",
          "ticks": 39936,
          "time": 58.865976,
          "velocity": 0.47244094488188976
        },
        {
          "duration": 0.6898356562500041,
          "durationTicks": 468,
          "midi": 86,
          "name": "D6",
          "ticks": 39936,
          "time": 58.865976,
          "velocity": 0.6299212598425197
        },
        {
          "duration": 0.6898356562500041,
          "durationTicks": 468,
          "midi": 83,
          "name": "B5",
          "ticks": 39940,
          "time": 58.87187203125001,
          "velocity": 0.47244094488188976
        },
        {
          "duration": 0.8961967499999943,
          "durationTicks": 608,
          "midi": 81,
          "name": "A5",
          "ticks": 40512,
          "time": 59.715004500000006,
          "velocity": 0.47244094488188976
        },
        {
          "duration": 0.8961967499999943,
          "durationTicks": 608,
          "midi": 85,
          "name": "C#6",
          "ticks": 40512,
          "time": 59.715004500000006,
          "velocity": 0.47244094488188976
        },
        {
          "duration": 0.9374689687499966,
          "durationTicks": 636,
          "midi": 88,
          "name": "E6",
          "ticks": 40520,
          "time": 59.726796562500006,
          "velocity": 0.6299212598425197
        },
        {
          "duration": 0.689835656249997,
          "durationTicks": 468,
          "midi": 78,
          "name": "F#5",
          "ticks": 41472,
          "time": 61.130052000000006,
          "velocity": 0.47244094488188976
        },
        {
          "duration": 0.7959642187500009,
          "durationTicks": 540,
          "midi": 85,
          "name": "C#6",
          "ticks": 41472,
          "time": 61.130052000000006,
          "velocity": 0.6299212598425197
        },
        {
          "duration": 0.689835656249997,
          "durationTicks": 468,
          "midi": 81,
          "name": "A5",
          "ticks": 41476,
          "time": 61.13594803125001,
          "velocity": 0.47244094488188976
        },
        {
          "duration": 0.8961967500000014,
          "durationTicks": 608,
          "midi": 79,
          "name": "G5",
          "ticks": 42048,
          "time": 61.9790805,
          "velocity": 0.47244094488188976
        },
        {
          "duration": 0.8961967500000014,
          "durationTicks": 608,
          "midi": 83,
          "name": "B5",
          "ticks": 42048,
          "time": 61.9790805,
          "velocity": 0.47244094488188976
        },
        {
          "duration": 0.8431324687500066,
          "durationTicks": 572,
          "midi": 86,
          "name": "D6",
          "ticks": 42056,
          "time": 61.9908725625,
          "velocity": 0.6299212598425197
        },
        {
          "duration": 0.689835656249997,
          "durationTicks": 468,
          "midi": 78,
          "name": "F#5",
          "ticks": 43008,
          "time": 63.39412800000001,
          "velocity": 0.47244094488188976
        },
        {
          "duration": 0.689835656249997,
          "durationTicks": 468,
          "midi": 86,
          "name": "D6",
          "ticks": 43008,
          "time": 63.39412800000001,
          "velocity": 0.6299212598425197
        },
        {
          "duration": 0.6898356562500041,
          "durationTicks": 468,
          "midi": 83,
          "name": "B5",
          "ticks": 43012,
          "time": 63.400024031250005,
          "velocity": 0.47244094488188976
        },
        {
          "duration": 0.8961967499999872,
          "durationTicks": 608,
          "midi": 81,
          "name": "A5",
          "ticks": 43584,
          "time": 64.24315650000001,
          "velocity": 0.47244094488188976
        },
        {
          "duration": 0.8961967499999872,
          "durationTicks": 608,
          "midi": 85,
          "name": "C#6",
          "ticks": 43584,
          "time": 64.24315650000001,
          "velocity": 0.47244094488188976
        },
        {
          "duration": 0.9374689687499966,
          "durationTicks": 636,
          "midi": 88,
          "name": "E6",
          "ticks": 43592,
          "time": 64.2549485625,
          "velocity": 0.6299212598425197
        },
        {
          "duration": 0.5100067031250006,
          "durationTicks": 346,
          "midi": 78,
          "name": "F#5",
          "ticks": 44352,
          "time": 65.3751945,
          "velocity": 0.47244094488188976
        },
        {
          "duration": 0.7959642187500009,
          "durationTicks": 540,
          "midi": 85,
          "name": "C#6",
          "ticks": 44352,
          "time": 65.3751945,
          "velocity": 0.6299212598425197
        },
        {
          "duration": 0.689835656249997,
          "durationTicks": 468,
          "midi": 81,
          "name": "A5",
          "ticks": 44356,
          "time": 65.38109053125001,
          "velocity": 0.47244094488188976
        },
        {
          "duration": 0.27121743749999894,
          "durationTicks": 184,
          "midi": 78,
          "name": "F#5",
          "ticks": 44736,
          "time": 65.9412135,
          "velocity": 0.4409448818897638
        },
        {
          "duration": 0.8961967499999872,
          "durationTicks": 608,
          "midi": 79,
          "name": "G5",
          "ticks": 44928,
          "time": 66.22422300000001,
          "velocity": 0.47244094488188976
        },
        {
          "duration": 0.8961967499999872,
          "durationTicks": 608,
          "midi": 83,
          "name": "B5",
          "ticks": 44928,
          "time": 66.22422300000001,
          "velocity": 0.47244094488188976
        },
        {
          "duration": 0.8431324687500137,
          "durationTicks": 572,
          "midi": 86,
          "name": "D6",
          "ticks": 44936,
          "time": 66.2360150625,
          "velocity": 0.6299212598425197
        },
        {
          "duration": 0.6898356562500112,
          "durationTicks": 468,
          "midi": 80,
          "name": "G#5",
          "ticks": 113664,
          "time": 167.541624,
          "velocity": 0.47244094488188976
        },
        {
          "duration": 0.6898356562500112,
          "durationTicks": 468,
          "midi": 88,
          "name": "E6",
          "ticks": 113664,
          "time": 167.541624,
          "velocity": 0.6299212598425197
        },
        {
          "duration": 0.6898356562499828,
          "durationTicks": 468,
          "midi": 85,
          "name": "C#6",
          "ticks": 113668,
          "time": 167.54752003125003,
          "velocity": 0.47244094488188976
        },
        {
          "duration": 0.8961967500000014,
          "durationTicks": 608,
          "midi": 83,
          "name": "B5",
          "ticks": 114240,
          "time": 168.39065250000002,
          "velocity": 0.47244094488188976
        },
        {
          "duration": 0.8961967500000014,
          "durationTicks": 608,
          "midi": 87,
          "name": "D#6",
          "ticks": 114240,
          "time": 168.39065250000002,
          "velocity": 0.47244094488188976
        },
        {
          "duration": 0.9374689687500108,
          "durationTicks": 636,
          "midi": 90,
          "name": "F#6",
          "ticks": 114248,
          "time": 168.4024445625,
          "velocity": 0.6299212598425197
        },
        {
          "duration": 0.6898356562500112,
          "durationTicks": 468,
          "midi": 80,
          "name": "G#5",
          "ticks": 115200,
          "time": 169.8057,
          "velocity": 0.47244094488188976
        },
        {
          "duration": 0.7959642187500151,
          "durationTicks": 540,
          "midi": 87,
          "name": "D#6",
          "ticks": 115200,
          "time": 169.8057,
          "velocity": 0.6299212598425197
        },
        {
          "duration": 0.6898356562500112,
          "durationTicks": 468,
          "midi": 83,
          "name": "B5",
          "ticks": 115204,
          "time": 169.81159603125002,
          "velocity": 0.47244094488188976
        },
        {
          "duration": 0.8961967500000014,
          "durationTicks": 608,
          "midi": 81,
          "name": "A5",
          "ticks": 115776,
          "time": 170.6547285,
          "velocity": 0.47244094488188976
        },
        {
          "duration": 0.8961967500000014,
          "durationTicks": 608,
          "midi": 85,
          "name": "C#6",
          "ticks": 115776,
          "time": 170.6547285,
          "velocity": 0.47244094488188976
        },
        {
          "duration": 0.8431324687500137,
          "durationTicks": 572,
          "midi": 88,
          "name": "E6",
          "ticks": 115784,
          "time": 170.6665205625,
          "velocity": 0.6299212598425197
        },
        {
          "duration": 0.6898356562499828,
          "durationTicks": 468,
          "midi": 80,
          "name": "G#5",
          "ticks": 116736,
          "time": 172.06977600000002,
          "velocity": 0.47244094488188976
        },
        {
          "duration": 0.6898356562499828,
          "durationTicks": 468,
          "midi": 88,
          "name": "E6",
          "ticks": 116736,
          "time": 172.06977600000002,
          "velocity": 0.6299212598425197
        },
        {
          "duration": 0.6898356562499828,
          "durationTicks": 468,
          "midi": 85,
          "name": "C#6",
          "ticks": 116740,
          "time": 172.07567203125004,
          "velocity": 0.47244094488188976
        },
        {
          "duration": 0.896196749999973,
          "durationTicks": 608,
          "midi": 83,
          "name": "B5",
          "ticks": 117312,
          "time": 172.91880450000002,
          "velocity": 0.47244094488188976
        },
        {
          "duration": 0.896196749999973,
          "durationTicks": 608,
          "midi": 87,
          "name": "D#6",
          "ticks": 117312,
          "time": 172.91880450000002,
          "velocity": 0.47244094488188976
        },
        {
          "duration": 0.9374689687500108,
          "durationTicks": 636,
          "midi": 90,
          "name": "F#6",
          "ticks": 117320,
          "time": 172.9305965625,
          "velocity": 0.6299212598425197
        },
        {
          "duration": 0.5100067031250148,
          "durationTicks": 346,
          "midi": 80,
          "name": "G#5",
          "ticks": 118080,
          "time": 174.05084250000002,
          "velocity": 0.47244094488188976
        },
        {
          "duration": 0.7959642187499867,
          "durationTicks": 540,
          "midi": 87,
          "name": "D#6",
          "ticks": 118080,
          "time": 174.05084250000002,
          "velocity": 0.6299212598425197
        },
        {
          "duration": 0.6898356562499828,
          "durationTicks": 468,
          "midi": 83,
          "name": "B5",
          "ticks": 118084,
          "time": 174.05673853125003,
          "velocity": 0.47244094488188976
        },
        {
          "duration": 0.2712174374999847,
          "durationTicks": 184,
          "midi": 80,
          "name": "G#5",
          "ticks": 118464,
          "time": 174.61686150000003,
          "velocity": 0.4409448818897638
        },
        {
          "duration": 0.896196749999973,
          "durationTicks": 608,
          "midi": 81,
          "name": "A5",
          "ticks": 118656,
          "time": 174.89987100000002,
          "velocity": 0.47244094488188976
        },
        {
          "duration": 0.896196749999973,
          "durationTicks": 608,
          "midi": 85,
          "name": "C#6",
          "ticks": 118656,
          "time": 174.89987100000002,
          "velocity": 0.47244094488188976
        },
        {
          "duration": 0.8431324687500421,
          "durationTicks": 572,
          "midi": 88,
          "name": "E6",
          "ticks": 118664,
          "time": 174.9116630625,
          "velocity": 0.6299212598425197
        },
        {
          "duration": 0.6898356562499828,
          "durationTicks": 468,
          "midi": 80,
          "name": "G#5",
          "ticks": 119808,
          "time": 176.59792800000002,
          "velocity": 0.47244094488188976
        },
        {
          "duration": 0.6898356562499828,
          "durationTicks": 468,
          "midi": 88,
          "name": "E6",
          "ticks": 119808,
          "time": 176.59792800000002,
          "velocity": 0.6299212598425197
        },
        {
          "duration": 0.6898356562500112,
          "durationTicks": 468,
          "midi": 85,
          "name": "C#6",
          "ticks": 119812,
          "time": 176.60382403125,
          "velocity": 0.47244094488188976
        },
        {
          "duration": 0.896196749999973,
          "durationTicks": 608,
          "midi": 83,
          "name": "B5",
          "ticks": 120384,
          "time": 177.44695650000003,
          "velocity": 0.47244094488188976
        },
        {
          "duration": 0.896196749999973,
          "durationTicks": 608,
          "midi": 87,
          "name": "D#6",
          "ticks": 120384,
          "time": 177.44695650000003,
          "velocity": 0.47244094488188976
        },
        {
          "duration": 0.9374689687500108,
          "durationTicks": 636,
          "midi": 90,
          "name": "F#6",
          "ticks": 120392,
          "time": 177.4587485625,
          "velocity": 0.6299212598425197
        },
        {
          "duration": 0.6898356562500112,
          "durationTicks": 468,
          "midi": 80,
          "name": "G#5",
          "ticks": 121344,
          "time": 178.862004,
          "velocity": 0.47244094488188976
        },
        {
          "duration": 0.7959642187500151,
          "durationTicks": 540,
          "midi": 87,
          "name": "D#6",
          "ticks": 121344,
          "time": 178.862004,
          "velocity": 0.6299212598425197
        },
        {
          "duration": 0.6898356562499828,
          "durationTicks": 468,
          "midi": 83,
          "name": "B5",
          "ticks": 121348,
          "time": 178.86790003125003,
          "velocity": 0.47244094488188976
        },
        {
          "duration": 0.8961967500000014,
          "durationTicks": 608,
          "midi": 81,
          "name": "A5",
          "ticks": 121920,
          "time": 179.71103250000002,
          "velocity": 0.47244094488188976
        },
        {
          "duration": 0.8961967500000014,
          "durationTicks": 608,
          "midi": 85,
          "name": "C#6",
          "ticks": 121920,
          "time": 179.71103250000002,
          "velocity": 0.47244094488188976
        },
        {
          "duration": 0.8431324687500421,
          "durationTicks": 572,
          "midi": 88,
          "name": "E6",
          "ticks": 121928,
          "time": 179.7228245625,
          "velocity": 0.6299212598425197
        },
        {
          "duration": 0.6898356562500112,
          "durationTicks": 468,
          "midi": 80,
          "name": "G#5",
          "ticks": 122880,
          "time": 181.12608,
          "velocity": 0.47244094488188976
        },
        {
          "duration": 0.6898356562500112,
          "durationTicks": 468,
          "midi": 88,
          "name": "E6",
          "ticks": 122880,
          "time": 181.12608,
          "velocity": 0.6299212598425197
        },
        {
          "duration": 0.6898356562500112,
          "durationTicks": 468,
          "midi": 85,
          "name": "C#6",
          "ticks": 122884,
          "time": 181.13197603125002,
          "velocity": 0.47244094488188976
        },
        {
          "duration": 0.8961967500000014,
          "durationTicks": 608,
          "midi": 83,
          "name": "B5",
          "ticks": 123456,
          "time": 181.9751085,
          "velocity": 0.47244094488188976
        },
        {
          "duration": 0.8961967500000014,
          "durationTicks": 608,
          "midi": 87,
          "name": "D#6",
          "ticks": 123456,
          "time": 181.9751085,
          "velocity": 0.47244094488188976
        },
        {
          "duration": 0.9374689687499824,
          "durationTicks": 636,
          "midi": 90,
          "name": "F#6",
          "ticks": 123464,
          "time": 181.9869005625,
          "velocity": 0.6299212598425197
        },
        {
          "duration": 0.5100067031249864,
          "durationTicks": 346,
          "midi": 80,
          "name": "G#5",
          "ticks": 124224,
          "time": 183.10714650000003,
          "velocity": 0.47244094488188976
        },
        {
          "duration": 0.7959642187499867,
          "durationTicks": 540,
          "midi": 87,
          "name": "D#6",
          "ticks": 124224,
          "time": 183.10714650000003,
          "velocity": 0.6299212598425197
        },
        {
          "duration": 0.6898356562500112,
          "durationTicks": 468,
          "midi": 83,
          "name": "B5",
          "ticks": 124228,
          "time": 183.11304253125002,
          "velocity": 0.47244094488188976
        },
        {
          "duration": 0.27121743750001315,
          "durationTicks": 184,
          "midi": 80,
          "name": "G#5",
          "ticks": 124608,
          "time": 183.6731655,
          "velocity": 0.4409448818897638
        },
        {
          "duration": 0.896196749999973,
          "durationTicks": 608,
          "midi": 81,
          "name": "A5",
          "ticks": 124800,
          "time": 183.95617500000003,
          "velocity": 0.47244094488188976
        },
        {
          "duration": 0.896196749999973,
          "durationTicks": 608,
          "midi": 85,
          "name": "C#6",
          "ticks": 124800,
          "time": 183.95617500000003,
          "velocity": 0.47244094488188976
        },
        {
          "duration": 0.8431324687500137,
          "durationTicks": 572,
          "midi": 88,
          "name": "E6",
          "ticks": 124808,
          "time": 183.9679670625,
          "velocity": 0.6299212598425197
        },
        {
          "duration": 0.6898356562500112,
          "durationTicks": 468,
          "midi": 80,
          "name": "G#5",
          "ticks": 125952,
          "time": 185.654232,
          "velocity": 0.47244094488188976
        },
        {
          "duration": 0.6898356562500112,
          "durationTicks": 468,
          "midi": 88,
          "name": "E6",
          "ticks": 125952,
          "time": 185.654232,
          "velocity": 0.6299212598425197
        },
        {
          "duration": 0.6898356562500112,
          "durationTicks": 468,
          "midi": 85,
          "name": "C#6",
          "ticks": 125956,
          "time": 185.66012803125003,
          "velocity": 0.47244094488188976
        },
        {
          "duration": 0.8961967500000014,
          "durationTicks": 608,
          "midi": 83,
          "name": "B5",
          "ticks": 126528,
          "time": 186.5032605,
          "velocity": 0.47244094488188976
        },
        {
          "duration": 0.8961967500000014,
          "durationTicks": 608,
          "midi": 87,
          "name": "D#6",
          "ticks": 126528,
          "time": 186.5032605,
          "velocity": 0.47244094488188976
        },
        {
          "duration": 0.9374689687499824,
          "durationTicks": 636,
          "midi": 90,
          "name": "F#6",
          "ticks": 126536,
          "time": 186.51505256250002,
          "velocity": 0.6299212598425197
        },
        {
          "duration": 0.6898356562499828,
          "durationTicks": 468,
          "midi": 80,
          "name": "G#5",
          "ticks": 127488,
          "time": 187.91830800000002,
          "velocity": 0.47244094488188976
        },
        {
          "duration": 0.7959642187499867,
          "durationTicks": 540,
          "midi": 87,
          "name": "D#6",
          "ticks": 127488,
          "time": 187.91830800000002,
          "velocity": 0.6299212598425197
        },
        {
          "duration": 0.6898356562500112,
          "durationTicks": 468,
          "midi": 83,
          "name": "B5",
          "ticks": 127492,
          "time": 187.92420403125,
          "velocity": 0.47244094488188976
        },
        {
          "duration": 0.896196749999973,
          "durationTicks": 608,
          "midi": 81,
          "name": "A5",
          "ticks": 128064,
          "time": 188.76733650000003,
          "velocity": 0.47244094488188976
        },
        {
          "duration": 0.896196749999973,
          "durationTicks": 608,
          "midi": 85,
          "name": "C#6",
          "ticks": 128064,
          "time": 188.76733650000003,
          "velocity": 0.47244094488188976
        },
        {
          "duration": 0.8431324687500137,
          "durationTicks": 572,
          "midi": 88,
          "name": "E6",
          "ticks": 128072,
          "time": 188.7791285625,
          "velocity": 0.6299212598425197
        },
        {
          "duration": 0.6898356562500112,
          "durationTicks": 468,
          "midi": 80,
          "name": "G#5",
          "ticks": 129024,
          "time": 190.182384,
          "velocity": 0.47244094488188976
        },
        {
          "duration": 0.6898356562500112,
          "durationTicks": 468,
          "midi": 88,
          "name": "E6",
          "ticks": 129024,
          "time": 190.182384,
          "velocity": 0.6299212598425197
        },
        {
          "duration": 0.6898356562499828,
          "durationTicks": 468,
          "midi": 85,
          "name": "C#6",
          "ticks": 129028,
          "time": 190.18828003125003,
          "velocity": 0.47244094488188976
        },
        {
          "duration": 0.8961967500000014,
          "durationTicks": 608,
          "midi": 83,
          "name": "B5",
          "ticks": 129600,
          "time": 191.03141250000002,
          "velocity": 0.47244094488188976
        },
        {
          "duration": 0.8961967500000014,
          "durationTicks": 608,
          "midi": 87,
          "name": "D#6",
          "ticks": 129600,
          "time": 191.03141250000002,
          "velocity": 0.47244094488188976
        },
        {
          "duration": 0.9374689687500108,
          "durationTicks": 636,
          "midi": 90,
          "name": "F#6",
          "ticks": 129608,
          "time": 191.0432045625,
          "velocity": 0.6299212598425197
        },
        {
          "duration": 0.5100067031250148,
          "durationTicks": 346,
          "midi": 80,
          "name": "G#5",
          "ticks": 130368,
          "time": 192.1634505,
          "velocity": 0.47244094488188976
        },
        {
          "duration": 0.7959642187500151,
          "durationTicks": 540,
          "midi": 87,
          "name": "D#6",
          "ticks": 130368,
          "time": 192.1634505,
          "velocity": 0.6299212598425197
        },
        {
          "duration": 0.6898356562500112,
          "durationTicks": 468,
          "midi": 83,
          "name": "B5",
          "ticks": 130372,
          "time": 192.16934653125003,
          "velocity": 0.47244094488188976
        },
        {
          "duration": 0.27121743750001315,
          "durationTicks": 184,
          "midi": 80,
          "name": "G#5",
          "ticks": 130752,
          "time": 192.72946950000002,
          "velocity": 0.4409448818897638
        },
        {
          "duration": 0.8961967500000014,
          "durationTicks": 608,
          "midi": 81,
          "name": "A5",
          "ticks": 130944,
          "time": 193.012479,
          "velocity": 0.47244094488188976
        },
        {
          "duration": 0.8961967500000014,
          "durationTicks": 608,
          "midi": 85,
          "name": "C#6",
          "ticks": 130944,
          "time": 193.012479,
          "velocity": 0.47244094488188976
        },
        {
          "duration": 0.8431324687500137,
          "durationTicks": 572,
          "midi": 88,
          "name": "E6",
          "ticks": 130952,
          "time": 193.02427106250002,
          "velocity": 0.6299212598425197
        },
        {
          "duration": 0.6898356562500112,
          "durationTicks": 468,
          "midi": 80,
          "name": "G#5",
          "ticks": 132096,
          "time": 194.71053600000002,
          "velocity": 0.47244094488188976
        },
        {
          "duration": 0.6898356562500112,
          "durationTicks": 468,
          "midi": 88,
          "name": "E6",
          "ticks": 132096,
          "time": 194.71053600000002,
          "velocity": 0.6299212598425197
        },
        {
          "duration": 0.6898356562499828,
          "durationTicks": 468,
          "midi": 85,
          "name": "C#6",
          "ticks": 132100,
          "time": 194.71643203125004,
          "velocity": 0.47244094488188976
        },
        {
          "duration": 0.896196749999973,
          "durationTicks": 608,
          "midi": 83,
          "name": "B5",
          "ticks": 132672,
          "time": 195.55956450000002,
          "velocity": 0.47244094488188976
        },
        {
          "duration": 0.896196749999973,
          "durationTicks": 608,
          "midi": 87,
          "name": "D#6",
          "ticks": 132672,
          "time": 195.55956450000002,
          "velocity": 0.47244094488188976
        },
        {
          "duration": 0.9374689687500108,
          "durationTicks": 636,
          "midi": 90,
          "name": "F#6",
          "ticks": 132680,
          "time": 195.5713565625,
          "velocity": 0.6299212598425197
        },
        {
          "duration": 0.6898356562500112,
          "durationTicks": 468,
          "midi": 80,
          "name": "G#5",
          "ticks": 133632,
          "time": 196.974612,
          "velocity": 0.47244094488188976
        },
        {
          "duration": 0.7959642187500151,
          "durationTicks": 540,
          "midi": 87,
          "name": "D#6",
          "ticks": 133632,
          "time": 196.974612,
          "velocity": 0.6299212598425197
        },
        {
          "duration": 0.6898356562500112,
          "durationTicks": 468,
          "midi": 83,
          "name": "B5",
          "ticks": 133636,
          "time": 196.98050803125003,
          "velocity": 0.47244094488188976
        },
        {
          "duration": 0.8961967500000014,
          "durationTicks": 608,
          "midi": 81,
          "name": "A5",
          "ticks": 134208,
          "time": 197.8236405,
          "velocity": 0.47244094488188976
        },
        {
          "duration": 0.8961967500000014,
          "durationTicks": 608,
          "midi": 85,
          "name": "C#6",
          "ticks": 134208,
          "time": 197.8236405,
          "velocity": 0.47244094488188976
        },
        {
          "duration": 0.8431324687500137,
          "durationTicks": 572,
          "midi": 88,
          "name": "E6",
          "ticks": 134216,
          "time": 197.83543256250002,
          "velocity": 0.6299212598425197
        },
        {
          "duration": 0.6898356562499828,
          "durationTicks": 468,
          "midi": 80,
          "name": "G#5",
          "ticks": 135168,
          "time": 199.23868800000002,
          "velocity": 0.47244094488188976
        },
        {
          "duration": 0.6898356562499828,
          "durationTicks": 468,
          "midi": 88,
          "name": "E6",
          "ticks": 135168,
          "time": 199.23868800000002,
          "velocity": 0.6299212598425197
        },
        {
          "duration": 0.6898356562499828,
          "durationTicks": 468,
          "midi": 85,
          "name": "C#6",
          "ticks": 135172,
          "time": 199.24458403125004,
          "velocity": 0.47244094488188976
        },
        {
          "duration": 0.896196749999973,
          "durationTicks": 608,
          "midi": 83,
          "name": "B5",
          "ticks": 135744,
          "time": 200.08771650000003,
          "velocity": 0.47244094488188976
        },
        {
          "duration": 0.896196749999973,
          "durationTicks": 608,
          "midi": 87,
          "name": "D#6",
          "ticks": 135744,
          "time": 200.08771650000003,
          "velocity": 0.47244094488188976
        },
        {
          "duration": 0.9374689687500108,
          "durationTicks": 636,
          "midi": 90,
          "name": "F#6",
          "ticks": 135752,
          "time": 200.0995085625,
          "velocity": 0.6299212598425197
        },
        {
          "duration": 0.5100067031250148,
          "durationTicks": 346,
          "midi": 80,
          "name": "G#5",
          "ticks": 136512,
          "time": 201.21975450000002,
          "velocity": 0.47244094488188976
        },
        {
          "duration": 0.7959642187499867,
          "durationTicks": 540,
          "midi": 87,
          "name": "D#6",
          "ticks": 136512,
          "time": 201.21975450000002,
          "velocity": 0.6299212598425197
        },
        {
          "duration": 0.6898356562499828,
          "durationTicks": 468,
          "midi": 83,
          "name": "B5",
          "ticks": 136516,
          "time": 201.22565053125004,
          "velocity": 0.47244094488188976
        },
        {
          "duration": 0.27121743750001315,
          "durationTicks": 184,
          "midi": 80,
          "name": "G#5",
          "ticks": 136896,
          "time": 201.7857735,
          "velocity": 0.4409448818897638
        },
        {
          "duration": 0.896196749999973,
          "durationTicks": 608,
          "midi": 81,
          "name": "A5",
          "ticks": 137088,
          "time": 202.06878300000002,
          "velocity": 0.47244094488188976
        },
        {
          "duration": 0.896196749999973,
          "durationTicks": 608,
          "midi": 85,
          "name": "C#6",
          "ticks": 137088,
          "time": 202.06878300000002,
          "velocity": 0.47244094488188976
        },
        {
          "duration": 0.8431324687500137,
          "durationTicks": 572,
          "midi": 88,
          "name": "E6",
          "ticks": 137096,
          "time": 202.0805750625,
          "velocity": 0.6299212598425197
        }
      ],
      "endOfTrackTicks": 138240
    },
    {
      "channel": 8,
      "controlChanges": {},
      "pitchBends": [],
      "instrument": {
        "family": "piano",
        "number": 0,
        "name": "acoustic grand piano"
      },
      "name": "#Funk Gtr",
      "notes": [
        {
          "duration": 0.1415047499999993,
          "durationTicks": 96,
          "midi": 66,
          "name": "F#4",
          "ticks": 3352,
          "time": 4.9408741875,
          "velocity": 0.33858267716535434
        },
        {
          "duration": 0.10612856249999947,
          "durationTicks": 72,
          "midi": 62,
          "name": "D4",
          "ticks": 3352,
          "time": 4.9408741875,
          "velocity": 0.4330708661417323
        },
        {
          "duration": 0.08844046875,
          "durationTicks": 60,
          "midi": 59,
          "name": "B3",
          "ticks": 3352,
          "time": 4.9408741875,
          "velocity": 0.47244094488188976
        },
        {
          "duration": 1.0966618125000007,
          "durationTicks": 744,
          "midi": 64,
          "name": "E4",
          "ticks": 3936,
          "time": 5.80169475,
          "velocity": 0.3464566929133858
        },
        {
          "duration": 1.1320380000000005,
          "durationTicks": 768,
          "midi": 61,
          "name": "C#4",
          "ticks": 3936,
          "time": 5.80169475,
          "velocity": 0.48031496062992124
        },
        {
          "duration": 1.0848697500000002,
          "durationTicks": 736,
          "midi": 57,
          "name": "A3",
          "ticks": 3936,
          "time": 5.80169475,
          "velocity": 0.4566929133858268
        },
        {
          "duration": 0.1415047499999993,
          "durationTicks": 96,
          "midi": 59,
          "name": "B3",
          "ticks": 4892,
          "time": 7.210846218750001,
          "velocity": 0.5118110236220472
        },
        {
          "duration": 0.11202459374999929,
          "durationTicks": 76,
          "midi": 62,
          "name": "D4",
          "ticks": 4892,
          "time": 7.210846218750001,
          "velocity": 0.48031496062992124
        },
        {
          "duration": 0.16508887499999947,
          "durationTicks": 112,
          "midi": 66,
          "name": "F#4",
          "ticks": 4892,
          "time": 7.210846218750001,
          "velocity": 0.4094488188976378
        },
        {
          "duration": 0.5954991562499998,
          "durationTicks": 404,
          "midi": 64,
          "name": "E4",
          "ticks": 5472,
          "time": 8.06577075,
          "velocity": 0.4251968503937008
        },
        {
          "duration": 0.5954991562499998,
          "durationTicks": 404,
          "midi": 61,
          "name": "C#4",
          "ticks": 5472,
          "time": 8.06577075,
          "velocity": 0.4566929133858268
        },
        {
          "duration": 0.6485634375,
          "durationTicks": 440,
          "midi": 57,
          "name": "A3",
          "ticks": 5472,
          "time": 8.06577075,
          "velocity": 0.48031496062992124
        },
        {
          "duration": 0.6485634374999982,
          "durationTicks": 440,
          "midi": 69,
          "name": "A4",
          "ticks": 5856,
          "time": 8.631789750000001,
          "velocity": 0.47244094488188976
        },
        {
          "duration": 0.3478658437500002,
          "durationTicks": 236,
          "midi": 64,
          "name": "E4",
          "ticks": 6040,
          "time": 8.9030071875,
          "velocity": 0.4251968503937008
        },
        {
          "duration": 0.14150475000000107,
          "durationTicks": 96,
          "midi": 61,
          "name": "C#4",
          "ticks": 6240,
          "time": 9.19780875,
          "velocity": 0.36220472440944884
        },
        {
          "duration": 0.07664840624999947,
          "durationTicks": 52,
          "midi": 62,
          "name": "D4",
          "ticks": 6428,
          "time": 9.47492221875,
          "velocity": 0.4881889763779528
        },
        {
          "duration": 0.07075237499999965,
          "durationTicks": 48,
          "midi": 66,
          "name": "F#4",
          "ticks": 6428,
          "time": 9.47492221875,
          "velocity": 0.4094488188976378
        },
        {
          "duration": 0.07075237499999965,
          "durationTicks": 48,
          "midi": 59,
          "name": "B3",
          "ticks": 6428,
          "time": 9.47492221875,
          "velocity": 0.4881889763779528
        },
        {
          "duration": 1.0789737187499995,
          "durationTicks": 732,
          "midi": 64,
          "name": "E4",
          "ticks": 7008,
          "time": 10.329846750000002,
          "velocity": 0.3543307086614173
        },
        {
          "duration": 1.0848697499999993,
          "durationTicks": 736,
          "midi": 61,
          "name": "C#4",
          "ticks": 7008,
          "time": 10.329846750000002,
          "velocity": 0.48031496062992124
        },
        {
          "duration": 1.061285625,
          "durationTicks": 720,
          "midi": 57,
          "name": "A3",
          "ticks": 7008,
          "time": 10.329846750000002,
          "velocity": 0.47244094488188976
        },
        {
          "duration": 0.12381665624999982,
          "durationTicks": 84,
          "midi": 66,
          "name": "F#4",
          "ticks": 7964,
          "time": 11.73899821875,
          "velocity": 0.3937007874015748
        },
        {
          "duration": 0.09433650000000071,
          "durationTicks": 64,
          "midi": 62,
          "name": "D4",
          "ticks": 7964,
          "time": 11.73899821875,
          "velocity": 0.47244094488188976
        },
        {
          "duration": 0.08844046875000089,
          "durationTicks": 60,
          "midi": 59,
          "name": "B3",
          "ticks": 7964,
          "time": 11.73899821875,
          "velocity": 0.47244094488188976
        },
        {
          "duration": 0.5896031250000018,
          "durationTicks": 400,
          "midi": 64,
          "name": "E4",
          "ticks": 8544,
          "time": 12.59392275,
          "velocity": 0.33858267716535434
        },
        {
          "duration": 0.6131872499999993,
          "durationTicks": 416,
          "midi": 61,
          "name": "C#4",
          "ticks": 8544,
          "time": 12.59392275,
          "velocity": 0.3937007874015748
        },
        {
          "duration": 0.6426674062500002,
          "durationTicks": 436,
          "midi": 57,
          "name": "A3",
          "ticks": 8544,
          "time": 12.59392275,
          "velocity": 0.4330708661417323
        },
        {
          "duration": 0.5719150312500005,
          "durationTicks": 388,
          "midi": 69,
          "name": "A4",
          "ticks": 8928,
          "time": 13.159941750000002,
          "velocity": 0.4645669291338583
        },
        {
          "duration": 0.31248965624999947,
          "durationTicks": 212,
          "midi": 64,
          "name": "E4",
          "ticks": 9112,
          "time": 13.431159187500002,
          "velocity": 0.4330708661417323
        },
        {
          "duration": 0.14150475000000107,
          "durationTicks": 96,
          "midi": 61,
          "name": "C#4",
          "ticks": 9312,
          "time": 13.72596075,
          "velocity": 0.3937007874015748
        },
        {
          "duration": 0.17098490625000018,
          "durationTicks": 116,
          "midi": 66,
          "name": "F#4",
          "ticks": 9496,
          "time": 13.997178187500001,
          "velocity": 0.3700787401574803
        },
        {
          "duration": 0.13560871874999947,
          "durationTicks": 92,
          "midi": 62,
          "name": "D4",
          "ticks": 9496,
          "time": 13.997178187500001,
          "velocity": 0.3543307086614173
        },
        {
          "duration": 0.12971268749999965,
          "durationTicks": 88,
          "midi": 59,
          "name": "B3",
          "ticks": 9496,
          "time": 13.997178187500001,
          "velocity": 0.3937007874015748
        },
        {
          "duration": 1.0141173749999997,
          "durationTicks": 688,
          "midi": 61,
          "name": "C#4",
          "ticks": 10080,
          "time": 14.857998750000002,
          "velocity": 0.3779527559055118
        },
        {
          "duration": 0.8844046875,
          "durationTicks": 600,
          "midi": 64,
          "name": "E4",
          "ticks": 10080,
          "time": 14.857998750000002,
          "velocity": 0.3858267716535433
        },
        {
          "duration": 0.9846372187500005,
          "durationTicks": 668,
          "midi": 57,
          "name": "A3",
          "ticks": 10084,
          "time": 14.863894781250002,
          "velocity": 0.41732283464566927
        },
        {
          "duration": 0.13560871874999947,
          "durationTicks": 92,
          "midi": 57,
          "name": "A3",
          "ticks": 11032,
          "time": 16.2612541875,
          "velocity": 0.41732283464566927
        },
        {
          "duration": 0.16508887499999858,
          "durationTicks": 112,
          "midi": 61,
          "name": "C#4",
          "ticks": 11032,
          "time": 16.2612541875,
          "velocity": 0.3937007874015748
        },
        {
          "duration": 0.1532968125000025,
          "durationTicks": 104,
          "midi": 54,
          "name": "F#3",
          "ticks": 11036,
          "time": 16.26715021875,
          "velocity": 0.4094488188976378
        },
        {
          "duration": 0.5424348749999979,
          "durationTicks": 368,
          "midi": 59,
          "name": "B3",
          "ticks": 11616,
          "time": 17.122074750000003,
          "velocity": 0.3779527559055118
        },
        {
          "duration": 0.6780435937500009,
          "durationTicks": 460,
          "midi": 62,
          "name": "D4",
          "ticks": 11616,
          "time": 17.122074750000003,
          "velocity": 0.3858267716535433
        },
        {
          "duration": 0.5453828906249996,
          "durationTicks": 370,
          "midi": 55,
          "name": "G3",
          "ticks": 11620,
          "time": 17.127970781250003,
          "velocity": 0.41732283464566927
        },
        {
          "duration": 0.17098490625000196,
          "durationTicks": 116,
          "midi": 55,
          "name": "G3",
          "ticks": 11992,
          "time": 17.6763016875,
          "velocity": 0.3858267716535433
        },
        {
          "duration": 0.12971268749999965,
          "durationTicks": 88,
          "midi": 63,
          "name": "D#4",
          "ticks": 12052,
          "time": 17.76474215625,
          "velocity": 0.2677165354330709
        },
        {
          "duration": 0.13560871874999947,
          "durationTicks": 92,
          "midi": 56,
          "name": "G#3",
          "ticks": 12056,
          "time": 17.7706381875,
          "velocity": 0.2755905511811024
        },
        {
          "duration": 0.3920860781249971,
          "durationTicks": 266,
          "midi": 64,
          "name": "E4",
          "ticks": 12100,
          "time": 17.835494531250003,
          "velocity": 0.2992125984251969
        },
        {
          "duration": 0.12086864062499814,
          "durationTicks": 82,
          "midi": 57,
          "name": "A3",
          "ticks": 12116,
          "time": 17.859078656250002,
          "velocity": 0.29133858267716534
        },
        {
          "duration": 0.27121743749999894,
          "durationTicks": 184,
          "midi": 61,
          "name": "C#4",
          "ticks": 12184,
          "time": 17.959311187500003,
          "velocity": 0.4409448818897638
        },
        {
          "duration": 0.08254443750000107,
          "durationTicks": 56,
          "midi": 57,
          "name": "A3",
          "ticks": 12384,
          "time": 18.25411275,
          "velocity": 0.2992125984251969
        },
        {
          "duration": 0.0648563437500016,
          "durationTicks": 44,
          "midi": 61,
          "name": "C#4",
          "ticks": 12484,
          "time": 18.40151353125,
          "velocity": 0.29133858267716534
        },
        {
          "duration": 0.04716825000000213,
          "durationTicks": 32,
          "midi": 64,
          "name": "E4",
          "ticks": 12484,
          "time": 18.40151353125,
          "velocity": 0.33858267716535434
        },
        {
          "duration": 0.12971268749999965,
          "durationTicks": 88,
          "midi": 59,
          "name": "B3",
          "ticks": 12572,
          "time": 18.531226218750003,
          "velocity": 0.4409448818897638
        },
        {
          "duration": 0.12381665624999982,
          "durationTicks": 84,
          "midi": 62,
          "name": "D4",
          "ticks": 12572,
          "time": 18.531226218750003,
          "velocity": 0.4251968503937008
        },
        {
          "duration": 0.878508656250002,
          "durationTicks": 596,
          "midi": 61,
          "name": "C#4",
          "ticks": 13152,
          "time": 19.386150750000002,
          "velocity": 0.41732283464566927
        },
        {
          "duration": 0.6662515312500012,
          "durationTicks": 452,
          "midi": 64,
          "name": "E4",
          "ticks": 13152,
          "time": 19.386150750000002,
          "velocity": 0.4094488188976378
        },
        {
          "duration": 0.8785086562499984,
          "durationTicks": 596,
          "midi": 57,
          "name": "A3",
          "ticks": 13156,
          "time": 19.392046781250002,
          "velocity": 0.4094488188976378
        },
        {
          "duration": 0.11792062500000355,
          "durationTicks": 80,
          "midi": 61,
          "name": "C#4",
          "ticks": 13920,
          "time": 20.51818875,
          "velocity": 0.4094488188976378
        },
        {
          "duration": 0.14740078125000267,
          "durationTicks": 100,
          "midi": 54,
          "name": "F#3",
          "ticks": 13924,
          "time": 20.52408478125,
          "velocity": 0.4094488188976378
        },
        {
          "duration": 0.14740078125000267,
          "durationTicks": 100,
          "midi": 57,
          "name": "A3",
          "ticks": 13924,
          "time": 20.52408478125,
          "velocity": 0.4094488188976378
        },
        {
          "duration": 0.2181531562500041,
          "durationTicks": 148,
          "midi": 59,
          "name": "B3",
          "ticks": 14308,
          "time": 21.09010378125,
          "velocity": 0.4094488188976378
        },
        {
          "duration": 0.2063610937500009,
          "durationTicks": 140,
          "midi": 62,
          "name": "D4",
          "ticks": 14308,
          "time": 21.09010378125,
          "velocity": 0.4094488188976378
        },
        {
          "duration": 0.23584125000000355,
          "durationTicks": 160,
          "midi": 55,
          "name": "G3",
          "ticks": 14308,
          "time": 21.09010378125,
          "velocity": 0.4094488188976378
        },
        {
          "duration": 1.1438300624999975,
          "durationTicks": 776,
          "midi": 55,
          "name": "G3",
          "ticks": 14492,
          "time": 21.361321218750003,
          "velocity": 0.4094488188976378
        },
        {
          "duration": 1.1202459374999982,
          "durationTicks": 760,
          "midi": 62,
          "name": "D4",
          "ticks": 14492,
          "time": 21.361321218750003,
          "velocity": 0.4094488188976378
        },
        {
          "duration": 1.1143499062499984,
          "durationTicks": 756,
          "midi": 59,
          "name": "B3",
          "ticks": 14492,
          "time": 21.361321218750003,
          "velocity": 0.4094488188976378
        },
        {
          "duration": 0.1415047499999993,
          "durationTicks": 96,
          "midi": 61,
          "name": "C#4",
          "ticks": 15456,
          "time": 22.782264750000003,
          "velocity": 0.3937007874015748
        },
        {
          "duration": 0.1709849062499984,
          "durationTicks": 116,
          "midi": 66,
          "name": "F#4",
          "ticks": 15640,
          "time": 23.053482187500002,
          "velocity": 0.3700787401574803
        },
        {
          "duration": 0.13560871874999947,
          "durationTicks": 92,
          "midi": 62,
          "name": "D4",
          "ticks": 15640,
          "time": 23.053482187500002,
          "velocity": 0.3543307086614173
        },
        {
          "duration": 0.12971268749999965,
          "durationTicks": 88,
          "midi": 59,
          "name": "B3",
          "ticks": 15640,
          "time": 23.053482187500002,
          "velocity": 0.3937007874015748
        },
        {
          "duration": 1.0141173750000014,
          "durationTicks": 688,
          "midi": 61,
          "name": "C#4",
          "ticks": 16224,
          "time": 23.91430275,
          "velocity": 0.3779527559055118
        },
        {
          "duration": 0.8844046875000018,
          "durationTicks": 600,
          "midi": 64,
          "name": "E4",
          "ticks": 16224,
          "time": 23.91430275,
          "velocity": 0.3858267716535433
        },
        {
          "duration": 0.9846372187500023,
          "durationTicks": 668,
          "midi": 57,
          "name": "A3",
          "ticks": 16228,
          "time": 23.92019878125,
          "velocity": 0.41732283464566927
        },
        {
          "duration": 0.13560871874999947,
          "durationTicks": 92,
          "midi": 57,
          "name": "A3",
          "ticks": 17176,
          "time": 25.3175581875,
          "velocity": 0.41732283464566927
        },
        {
          "duration": 0.16508887500000213,
          "durationTicks": 112,
          "midi": 61,
          "name": "C#4",
          "ticks": 17176,
          "time": 25.3175581875,
          "velocity": 0.3937007874015748
        },
        {
          "duration": 0.15329681249999538,
          "durationTicks": 104,
          "midi": 54,
          "name": "F#3",
          "ticks": 17180,
          "time": 25.323454218750005,
          "velocity": 0.4094488188976378
        },
        {
          "duration": 0.5424348750000014,
          "durationTicks": 368,
          "midi": 59,
          "name": "B3",
          "ticks": 17760,
          "time": 26.178378750000004,
          "velocity": 0.3779527559055118
        },
        {
          "duration": 0.6780435937499973,
          "durationTicks": 460,
          "midi": 62,
          "name": "D4",
          "ticks": 17760,
          "time": 26.178378750000004,
          "velocity": 0.3858267716535433
        },
        {
          "duration": 0.5453828906250031,
          "durationTicks": 370,
          "midi": 55,
          "name": "G3",
          "ticks": 17764,
          "time": 26.18427478125,
          "velocity": 0.41732283464566927
        },
        {
          "duration": 0.17098490625000196,
          "durationTicks": 116,
          "midi": 55,
          "name": "G3",
          "ticks": 18136,
          "time": 26.7326056875,
          "velocity": 0.3858267716535433
        },
        {
          "duration": 0.1297126875000032,
          "durationTicks": 88,
          "midi": 63,
          "name": "D#4",
          "ticks": 18196,
          "time": 26.821046156250002,
          "velocity": 0.2677165354330709
        },
        {
          "duration": 0.13560871874999947,
          "durationTicks": 92,
          "midi": 56,
          "name": "G#3",
          "ticks": 18200,
          "time": 26.826942187500002,
          "velocity": 0.2755905511811024
        },
        {
          "duration": 0.3920860781250006,
          "durationTicks": 266,
          "midi": 64,
          "name": "E4",
          "ticks": 18244,
          "time": 26.89179853125,
          "velocity": 0.2992125984251969
        },
        {
          "duration": 0.12086864062499814,
          "durationTicks": 82,
          "midi": 57,
          "name": "A3",
          "ticks": 18260,
          "time": 26.915382656250003,
          "velocity": 0.29133858267716534
        },
        {
          "duration": 0.2712174375000025,
          "durationTicks": 184,
          "midi": 61,
          "name": "C#4",
          "ticks": 18328,
          "time": 27.0156151875,
          "velocity": 0.4409448818897638
        },
        {
          "duration": 0.08254443750000107,
          "durationTicks": 56,
          "midi": 57,
          "name": "A3",
          "ticks": 18528,
          "time": 27.31041675,
          "velocity": 0.2992125984251969
        },
        {
          "duration": 0.0648563437500016,
          "durationTicks": 44,
          "midi": 61,
          "name": "C#4",
          "ticks": 18628,
          "time": 27.45781753125,
          "velocity": 0.29133858267716534
        },
        {
          "duration": 0.04716825000000213,
          "durationTicks": 32,
          "midi": 64,
          "name": "E4",
          "ticks": 18628,
          "time": 27.45781753125,
          "velocity": 0.33858267716535434
        },
        {
          "duration": 0.12971268749999965,
          "durationTicks": 88,
          "midi": 59,
          "name": "B3",
          "ticks": 18716,
          "time": 27.587530218750004,
          "velocity": 0.4409448818897638
        },
        {
          "duration": 0.12381665624999982,
          "durationTicks": 84,
          "midi": 62,
          "name": "D4",
          "ticks": 18716,
          "time": 27.587530218750004,
          "velocity": 0.4251968503937008
        },
        {
          "duration": 0.878508656250002,
          "durationTicks": 596,
          "midi": 61,
          "name": "C#4",
          "ticks": 19296,
          "time": 28.442454750000003,
          "velocity": 0.41732283464566927
        },
        {
          "duration": 0.6662515312500012,
          "durationTicks": 452,
          "midi": 64,
          "name": "E4",
          "ticks": 19296,
          "time": 28.442454750000003,
          "velocity": 0.4094488188976378
        },
        {
          "duration": 0.8785086562499984,
          "durationTicks": 596,
          "midi": 57,
          "name": "A3",
          "ticks": 19300,
          "time": 28.448350781250003,
          "velocity": 0.4094488188976378
        },
        {
          "duration": 0.11792062500000355,
          "durationTicks": 80,
          "midi": 61,
          "name": "C#4",
          "ticks": 20064,
          "time": 29.57449275,
          "velocity": 0.4094488188976378
        },
        {
          "duration": 0.14740078125000267,
          "durationTicks": 100,
          "midi": 54,
          "name": "F#3",
          "ticks": 20068,
          "time": 29.58038878125,
          "velocity": 0.4094488188976378
        },
        {
          "duration": 0.14740078125000267,
          "durationTicks": 100,
          "midi": 57,
          "name": "A3",
          "ticks": 20068,
          "time": 29.58038878125,
          "velocity": 0.4094488188976378
        },
        {
          "duration": 0.2181531562500041,
          "durationTicks": 148,
          "midi": 59,
          "name": "B3",
          "ticks": 20452,
          "time": 30.14640778125,
          "velocity": 0.4094488188976378
        },
        {
          "duration": 0.2063610937500009,
          "durationTicks": 140,
          "midi": 62,
          "name": "D4",
          "ticks": 20452,
          "time": 30.14640778125,
          "velocity": 0.4094488188976378
        },
        {
          "duration": 0.23584125000000355,
          "durationTicks": 160,
          "midi": 55,
          "name": "G3",
          "ticks": 20452,
          "time": 30.14640778125,
          "velocity": 0.4094488188976378
        },
        {
          "duration": 1.1438300624999975,
          "durationTicks": 776,
          "midi": 55,
          "name": "G3",
          "ticks": 20636,
          "time": 30.417625218750004,
          "velocity": 0.4094488188976378
        },
        {
          "duration": 1.1202459374999982,
          "durationTicks": 760,
          "midi": 62,
          "name": "D4",
          "ticks": 20636,
          "time": 30.417625218750004,
          "velocity": 0.4094488188976378
        },
        {
          "duration": 1.1143499062499984,
          "durationTicks": 756,
          "midi": 59,
          "name": "B3",
          "ticks": 20636,
          "time": 30.417625218750004,
          "velocity": 0.4094488188976378
        },
        {
          "duration": 0.1415047499999993,
          "durationTicks": 96,
          "midi": 61,
          "name": "C#4",
          "ticks": 21600,
          "time": 31.838568750000004,
          "velocity": 0.3937007874015748
        },
        {
          "duration": 0.1709849062500055,
          "durationTicks": 116,
          "midi": 66,
          "name": "F#4",
          "ticks": 21784,
          "time": 32.1097861875,
          "velocity": 0.3700787401574803
        },
        {
          "duration": 0.13560871875000657,
          "durationTicks": 92,
          "midi": 62,
          "name": "D4",
          "ticks": 21784,
          "time": 32.1097861875,
          "velocity": 0.3543307086614173
        },
        {
          "duration": 0.1297126875000032,
          "durationTicks": 88,
          "midi": 59,
          "name": "B3",
          "ticks": 21784,
          "time": 32.1097861875,
          "velocity": 0.3937007874015748
        },
        {
          "duration": 1.0141173749999979,
          "durationTicks": 688,
          "midi": 61,
          "name": "C#4",
          "ticks": 22368,
          "time": 32.97060675,
          "velocity": 0.3779527559055118
        },
        {
          "duration": 0.8844046875000018,
          "durationTicks": 600,
          "midi": 64,
          "name": "E4",
          "ticks": 22368,
          "time": 32.97060675,
          "velocity": 0.3858267716535433
        },
        {
          "duration": 0.9846372187499952,
          "durationTicks": 668,
          "midi": 57,
          "name": "A3",
          "ticks": 22372,
          "time": 32.976502781250005,
          "velocity": 0.41732283464566927
        },
        {
          "duration": 0.13560871874999947,
          "durationTicks": 92,
          "midi": 57,
          "name": "A3",
          "ticks": 23320,
          "time": 34.3738621875,
          "velocity": 0.41732283464566927
        },
        {
          "duration": 0.16508887500000213,
          "durationTicks": 112,
          "midi": 61,
          "name": "C#4",
          "ticks": 23320,
          "time": 34.3738621875,
          "velocity": 0.3937007874015748
        },
        {
          "duration": 0.15329681249999538,
          "durationTicks": 104,
          "midi": 54,
          "name": "F#3",
          "ticks": 23324,
          "time": 34.379758218750005,
          "velocity": 0.4094488188976378
        },
        {
          "duration": 0.5424348749999979,
          "durationTicks": 368,
          "midi": 59,
          "name": "B3",
          "ticks": 23904,
          "time": 35.234682750000005,
          "velocity": 0.3779527559055118
        },
        {
          "duration": 0.6780435937499973,
          "durationTicks": 460,
          "midi": 62,
          "name": "D4",
          "ticks": 23904,
          "time": 35.234682750000005,
          "velocity": 0.3858267716535433
        },
        {
          "duration": 0.5453828906250067,
          "durationTicks": 370,
          "midi": 55,
          "name": "G3",
          "ticks": 23908,
          "time": 35.24057878125,
          "velocity": 0.41732283464566927
        },
        {
          "duration": 0.1709849062499984,
          "durationTicks": 116,
          "midi": 55,
          "name": "G3",
          "ticks": 24280,
          "time": 35.7889096875,
          "velocity": 0.3858267716535433
        },
        {
          "duration": 0.1297126875000032,
          "durationTicks": 88,
          "midi": 63,
          "name": "D#4",
          "ticks": 24340,
          "time": 35.87735015625,
          "velocity": 0.2677165354330709
        },
        {
          "duration": 0.13560871874999236,
          "durationTicks": 92,
          "midi": 56,
          "name": "G#3",
          "ticks": 24344,
          "time": 35.883246187500006,
          "velocity": 0.2755905511811024
        },
        {
          "duration": 0.3920860781250042,
          "durationTicks": 266,
          "midi": 64,
          "name": "E4",
          "ticks": 24388,
          "time": 35.94810253125,
          "velocity": 0.2992125984251969
        },
        {
          "duration": 0.12086864062499814,
          "durationTicks": 82,
          "midi": 57,
          "name": "A3",
          "ticks": 24404,
          "time": 35.97168665625001,
          "velocity": 0.29133858267716534
        },
        {
          "duration": 0.27121743749999894,
          "durationTicks": 184,
          "midi": 61,
          "name": "C#4",
          "ticks": 24472,
          "time": 36.0719191875,
          "velocity": 0.4409448818897638
        },
        {
          "duration": 0.08254443749999751,
          "durationTicks": 56,
          "midi": 57,
          "name": "A3",
          "ticks": 24672,
          "time": 36.366720750000006,
          "velocity": 0.2992125984251969
        },
        {
          "duration": 0.0648563437500016,
          "durationTicks": 44,
          "midi": 61,
          "name": "C#4",
          "ticks": 24772,
          "time": 36.514121531250005,
          "velocity": 0.29133858267716534
        },
        {
          "duration": 0.04716824999999858,
          "durationTicks": 32,
          "midi": 64,
          "name": "E4",
          "ticks": 24772,
          "time": 36.514121531250005,
          "velocity": 0.33858267716535434
        },
        {
          "duration": 0.1297126875000032,
          "durationTicks": 88,
          "midi": 59,
          "name": "B3",
          "ticks": 24860,
          "time": 36.64383421875,
          "velocity": 0.4409448818897638
        },
        {
          "duration": 0.12381665624999982,
          "durationTicks": 84,
          "midi": 62,
          "name": "D4",
          "ticks": 24860,
          "time": 36.64383421875,
          "velocity": 0.4251968503937008
        },
        {
          "duration": 0.8785086562499984,
          "durationTicks": 596,
          "midi": 61,
          "name": "C#4",
          "ticks": 25440,
          "time": 37.49875875,
          "velocity": 0.41732283464566927
        },
        {
          "duration": 0.6662515312499977,
          "durationTicks": 452,
          "midi": 64,
          "name": "E4",
          "ticks": 25440,
          "time": 37.49875875,
          "velocity": 0.4094488188976378
        },
        {
          "duration": 0.8785086562499984,
          "durationTicks": 596,
          "midi": 57,
          "name": "A3",
          "ticks": 25444,
          "time": 37.504654781250004,
          "velocity": 0.4094488188976378
        },
        {
          "duration": 0.11792062499999645,
          "durationTicks": 80,
          "midi": 61,
          "name": "C#4",
          "ticks": 26208,
          "time": 38.63079675,
          "velocity": 0.4094488188976378
        },
        {
          "duration": 0.1474007812499991,
          "durationTicks": 100,
          "midi": 54,
          "name": "F#3",
          "ticks": 26212,
          "time": 38.636692781250005,
          "velocity": 0.4094488188976378
        },
        {
          "duration": 0.1474007812499991,
          "durationTicks": 100,
          "midi": 57,
          "name": "A3",
          "ticks": 26212,
          "time": 38.636692781250005,
          "velocity": 0.4094488188976378
        },
        {
          "duration": 0.21815315624998988,
          "durationTicks": 148,
          "midi": 59,
          "name": "B3",
          "ticks": 26596,
          "time": 39.20271178125001,
          "velocity": 0.4094488188976378
        },
        {
          "duration": 0.20636109374999734,
          "durationTicks": 140,
          "midi": 62,
          "name": "D4",
          "ticks": 26596,
          "time": 39.20271178125001,
          "velocity": 0.4094488188976378
        },
        {
          "duration": 0.2358412499999929,
          "durationTicks": 160,
          "midi": 55,
          "name": "G3",
          "ticks": 26596,
          "time": 39.20271178125001,
          "velocity": 0.4094488188976378
        },
        {
          "duration": 1.1438300625000082,
          "durationTicks": 776,
          "midi": 55,
          "name": "G3",
          "ticks": 26780,
          "time": 39.47392921875,
          "velocity": 0.4094488188976378
        },
        {
          "duration": 1.1202459375000018,
          "durationTicks": 760,
          "midi": 62,
          "name": "D4",
          "ticks": 26780,
          "time": 39.47392921875,
          "velocity": 0.4094488188976378
        },
        {
          "duration": 1.1143499062499984,
          "durationTicks": 756,
          "midi": 59,
          "name": "B3",
          "ticks": 26780,
          "time": 39.47392921875,
          "velocity": 0.4094488188976378
        },
        {
          "duration": 0.14150474999999574,
          "durationTicks": 96,
          "midi": 61,
          "name": "C#4",
          "ticks": 27744,
          "time": 40.894872750000005,
          "velocity": 0.3937007874015748
        },
        {
          "duration": 0.1709849062499984,
          "durationTicks": 116,
          "midi": 66,
          "name": "F#4",
          "ticks": 27928,
          "time": 41.166090187500004,
          "velocity": 0.3700787401574803
        },
        {
          "duration": 0.13560871874999947,
          "durationTicks": 92,
          "midi": 62,
          "name": "D4",
          "ticks": 27928,
          "time": 41.166090187500004,
          "velocity": 0.3543307086614173
        },
        {
          "duration": 0.1297126874999961,
          "durationTicks": 88,
          "midi": 59,
          "name": "B3",
          "ticks": 27928,
          "time": 41.166090187500004,
          "velocity": 0.3937007874015748
        },
        {
          "duration": 1.0141173749999979,
          "durationTicks": 688,
          "midi": 61,
          "name": "C#4",
          "ticks": 28512,
          "time": 42.026910750000006,
          "velocity": 0.3779527559055118
        },
        {
          "duration": 0.8844046874999947,
          "durationTicks": 600,
          "midi": 64,
          "name": "E4",
          "ticks": 28512,
          "time": 42.026910750000006,
          "velocity": 0.3858267716535433
        },
        {
          "duration": 0.9846372187499952,
          "durationTicks": 668,
          "midi": 57,
          "name": "A3",
          "ticks": 28516,
          "time": 42.03280678125001,
          "velocity": 0.41732283464566927
        },
        {
          "duration": 0.13560871874999947,
          "durationTicks": 92,
          "midi": 57,
          "name": "A3",
          "ticks": 29464,
          "time": 43.43016618750001,
          "velocity": 0.41732283464566927
        },
        {
          "duration": 0.16508887499999503,
          "durationTicks": 112,
          "midi": 61,
          "name": "C#4",
          "ticks": 29464,
          "time": 43.43016618750001,
          "velocity": 0.3937007874015748
        },
        {
          "duration": 0.1532968125000025,
          "durationTicks": 104,
          "midi": 54,
          "name": "F#3",
          "ticks": 29468,
          "time": 43.43606221875,
          "velocity": 0.4094488188976378
        },
        {
          "duration": 0.5424348749999979,
          "durationTicks": 368,
          "midi": 59,
          "name": "B3",
          "ticks": 30048,
          "time": 44.29098675,
          "velocity": 0.3779527559055118
        },
        {
          "duration": 0.6780435937500044,
          "durationTicks": 460,
          "midi": 62,
          "name": "D4",
          "ticks": 30048,
          "time": 44.29098675,
          "velocity": 0.3858267716535433
        },
        {
          "duration": 0.5453828906249996,
          "durationTicks": 370,
          "midi": 55,
          "name": "G3",
          "ticks": 30052,
          "time": 44.296882781250005,
          "velocity": 0.41732283464566927
        },
        {
          "duration": 0.1709849062499984,
          "durationTicks": 116,
          "midi": 55,
          "name": "G3",
          "ticks": 30424,
          "time": 44.84521368750001,
          "velocity": 0.3858267716535433
        },
        {
          "duration": 0.1297126874999961,
          "durationTicks": 88,
          "midi": 63,
          "name": "D#4",
          "ticks": 30484,
          "time": 44.93365415625001,
          "velocity": 0.2677165354330709
        },
        {
          "duration": 0.13560871875000657,
          "durationTicks": 92,
          "midi": 56,
          "name": "G#3",
          "ticks": 30488,
          "time": 44.939550187500004,
          "velocity": 0.2755905511811024
        },
        {
          "duration": 0.3920860781249971,
          "durationTicks": 266,
          "midi": 64,
          "name": "E4",
          "ticks": 30532,
          "time": 45.004406531250005,
          "velocity": 0.2992125984251969
        },
        {
          "duration": 0.12086864062499814,
          "durationTicks": 82,
          "midi": 57,
          "name": "A3",
          "ticks": 30548,
          "time": 45.027990656250005,
          "velocity": 0.29133858267716534
        },
        {
          "duration": 0.27121743749999894,
          "durationTicks": 184,
          "midi": 61,
          "name": "C#4",
          "ticks": 30616,
          "time": 45.128223187500005,
          "velocity": 0.4409448818897638
        },
        {
          "duration": 0.08254443749999751,
          "durationTicks": 56,
          "midi": 57,
          "name": "A3",
          "ticks": 30816,
          "time": 45.42302475,
          "velocity": 0.2992125984251969
        },
        {
          "duration": 0.0648563437499945,
          "durationTicks": 44,
          "midi": 61,
          "name": "C#4",
          "ticks": 30916,
          "time": 45.57042553125001,
          "velocity": 0.29133858267716534
        },
        {
          "duration": 0.047168249999991474,
          "durationTicks": 32,
          "midi": 64,
          "name": "E4",
          "ticks": 30916,
          "time": 45.57042553125001,
          "velocity": 0.33858267716535434
        },
        {
          "duration": 0.1297126875000032,
          "durationTicks": 88,
          "midi": 59,
          "name": "B3",
          "ticks": 31004,
          "time": 45.70013821875,
          "velocity": 0.4409448818897638
        },
        {
          "duration": 0.12381665624999982,
          "durationTicks": 84,
          "midi": 62,
          "name": "D4",
          "ticks": 31004,
          "time": 45.70013821875,
          "velocity": 0.4251968503937008
        },
        {
          "duration": 0.8785086562499984,
          "durationTicks": 596,
          "midi": 61,
          "name": "C#4",
          "ticks": 31584,
          "time": 46.555062750000005,
          "velocity": 0.41732283464566927
        },
        {
          "duration": 0.6662515312499977,
          "durationTicks": 452,
          "midi": 64,
          "name": "E4",
          "ticks": 31584,
          "time": 46.555062750000005,
          "velocity": 0.4094488188976378
        },
        {
          "duration": 0.8785086562499984,
          "durationTicks": 596,
          "midi": 57,
          "name": "A3",
          "ticks": 31588,
          "time": 46.56095878125001,
          "velocity": 0.4094488188976378
        },
        {
          "duration": 0.11792062499999645,
          "durationTicks": 80,
          "midi": 61,
          "name": "C#4",
          "ticks": 32352,
          "time": 47.687100750000006,
          "velocity": 0.4094488188976378
        },
        {
          "duration": 0.147400781249992,
          "durationTicks": 100,
          "midi": 54,
          "name": "F#3",
          "ticks": 32356,
          "time": 47.69299678125001,
          "velocity": 0.4094488188976378
        },
        {
          "duration": 0.147400781249992,
          "durationTicks": 100,
          "midi": 57,
          "name": "A3",
          "ticks": 32356,
          "time": 47.69299678125001,
          "velocity": 0.4094488188976378
        },
        {
          "duration": 0.21815315624999698,
          "durationTicks": 148,
          "midi": 59,
          "name": "B3",
          "ticks": 32740,
          "time": 48.25901578125001,
          "velocity": 0.4094488188976378
        },
        {
          "duration": 0.20636109374999734,
          "durationTicks": 140,
          "midi": 62,
          "name": "D4",
          "ticks": 32740,
          "time": 48.25901578125001,
          "velocity": 0.4094488188976378
        },
        {
          "duration": 0.2358412499999929,
          "durationTicks": 160,
          "midi": 55,
          "name": "G3",
          "ticks": 32740,
          "time": 48.25901578125001,
          "velocity": 0.4094488188976378
        },
        {
          "duration": 1.1438300625000082,
          "durationTicks": 776,
          "midi": 55,
          "name": "G3",
          "ticks": 32924,
          "time": 48.53023321875,
          "velocity": 0.4094488188976378
        },
        {
          "duration": 1.120245937500009,
          "durationTicks": 760,
          "midi": 62,
          "name": "D4",
          "ticks": 32924,
          "time": 48.53023321875,
          "velocity": 0.4094488188976378
        },
        {
          "duration": 1.1143499062500055,
          "durationTicks": 756,
          "midi": 59,
          "name": "B3",
          "ticks": 32924,
          "time": 48.53023321875,
          "velocity": 0.4094488188976378
        },
        {
          "duration": 0.1297126874999961,
          "durationTicks": 88,
          "midi": 59,
          "name": "B3",
          "ticks": 33976,
          "time": 50.080889437500005,
          "velocity": 0.28346456692913385
        },
        {
          "duration": 0.1709849062499984,
          "durationTicks": 116,
          "midi": 66,
          "name": "F#4",
          "ticks": 34072,
          "time": 50.22239418750001,
          "velocity": 0.3700787401574803
        },
        {
          "duration": 0.13560871874999947,
          "durationTicks": 92,
          "midi": 62,
          "name": "D4",
          "ticks": 34072,
          "time": 50.22239418750001,
          "velocity": 0.3543307086614173
        },
        {
          "duration": 0.1297126874999961,
          "durationTicks": 88,
          "midi": 59,
          "name": "B3",
          "ticks": 34072,
          "time": 50.22239418750001,
          "velocity": 0.3937007874015748
        },
        {
          "duration": 1.014117375000005,
          "durationTicks": 688,
          "midi": 61,
          "name": "C#4",
          "ticks": 34656,
          "time": 51.08321475,
          "velocity": 0.3779527559055118
        },
        {
          "duration": 0.8844046875000018,
          "durationTicks": 600,
          "midi": 64,
          "name": "E4",
          "ticks": 34656,
          "time": 51.08321475,
          "velocity": 0.3858267716535433
        },
        {
          "duration": 0.9846372187499952,
          "durationTicks": 668,
          "midi": 57,
          "name": "A3",
          "ticks": 34660,
          "time": 51.08911078125001,
          "velocity": 0.41732283464566927
        },
        {
          "duration": 0.13560871874999236,
          "durationTicks": 92,
          "midi": 57,
          "name": "A3",
          "ticks": 35608,
          "time": 52.48647018750001,
          "velocity": 0.41732283464566927
        },
        {
          "duration": 0.16508887499998792,
          "durationTicks": 112,
          "midi": 61,
          "name": "C#4",
          "ticks": 35608,
          "time": 52.48647018750001,
          "velocity": 0.3937007874015748
        },
        {
          "duration": 0.1532968125000096,
          "durationTicks": 104,
          "midi": 54,
          "name": "F#3",
          "ticks": 35612,
          "time": 52.49236621875,
          "velocity": 0.4094488188976378
        },
        {
          "duration": 0.5424348749999979,
          "durationTicks": 368,
          "midi": 55,
          "name": "G3",
          "ticks": 36192,
          "time": 53.347290750000006,
          "velocity": 0.3779527559055118
        },
        {
          "duration": 0.6780435937500044,
          "durationTicks": 460,
          "midi": 59,
          "name": "B3",
          "ticks": 36192,
          "time": 53.347290750000006,
          "velocity": 0.3858267716535433
        },
        {
          "duration": 0.5453828906249925,
          "durationTicks": 370,
          "midi": 50,
          "name": "D3",
          "ticks": 36196,
          "time": 53.35318678125001,
          "velocity": 0.33858267716535434
        },
        {
          "duration": 0.1709849062499913,
          "durationTicks": 116,
          "midi": 50,
          "name": "D3",
          "ticks": 36568,
          "time": 53.90151768750001,
          "velocity": 0.25984251968503935
        },
        {
          "duration": 0.1474007812499991,
          "durationTicks": 100,
          "midi": 55,
          "name": "G3",
          "ticks": 36578,
          "time": 53.916257765625005,
          "velocity": 0.2283464566929134
        },
        {
          "duration": 0.1297126874999961,
          "durationTicks": 88,
          "midi": 60,
          "name": "C4",
          "ticks": 36628,
          "time": 53.989958156250005,
          "velocity": 0.2677165354330709
        },
        {
          "duration": 0.13560871875000657,
          "durationTicks": 92,
          "midi": 51,
          "name": "D#3",
          "ticks": 36632,
          "time": 53.9958541875,
          "velocity": 0.2755905511811024
        },
        {
          "duration": 0.14740078125000622,
          "durationTicks": 100,
          "midi": 56,
          "name": "G#3",
          "ticks": 36638,
          "time": 54.004698234375,
          "velocity": 0.2755905511811024
        },
        {
          "duration": 0.409774171874993,
          "durationTicks": 278,
          "midi": 61,
          "name": "C#4",
          "ticks": 36676,
          "time": 54.06071053125001,
          "velocity": 0.29133858267716534
        },
        {
          "duration": 0.3861900468750008,
          "durationTicks": 262,
          "midi": 52,
          "name": "E3",
          "ticks": 36692,
          "time": 54.08429465625,
          "velocity": 0.2755905511811024
        },
        {
          "duration": 0.30659362499999787,
          "durationTicks": 208,
          "midi": 57,
          "name": "A3",
          "ticks": 36704,
          "time": 54.101982750000005,
          "velocity": 0.23622047244094488
        },
        {
          "duration": 0.12381665624999982,
          "durationTicks": 84,
          "midi": 61,
          "name": "C#4",
          "ticks": 36968,
          "time": 54.4911208125,
          "velocity": 0.2677165354330709
        },
        {
          "duration": 0.1297126875000032,
          "durationTicks": 88,
          "midi": 57,
          "name": "A3",
          "ticks": 36968,
          "time": 54.4911208125,
          "velocity": 0.28346456692913385
        },
        {
          "duration": 0.1297126874999961,
          "durationTicks": 88,
          "midi": 59,
          "name": "B3",
          "ticks": 37144,
          "time": 54.75054618750001,
          "velocity": 0.28346456692913385
        },
        {
          "duration": 0.1297126874999961,
          "durationTicks": 88,
          "midi": 62,
          "name": "D4",
          "ticks": 37144,
          "time": 54.75054618750001,
          "velocity": 0.4409448818897638
        },
        {
          "duration": 0.12381665624999982,
          "durationTicks": 84,
          "midi": 66,
          "name": "F#4",
          "ticks": 37144,
          "time": 54.75054618750001,
          "velocity": 0.4251968503937008
        },
        {
          "duration": 0.8785086562499984,
          "durationTicks": 596,
          "midi": 61,
          "name": "C#4",
          "ticks": 37728,
          "time": 55.61136675,
          "velocity": 0.41732283464566927
        },
        {
          "duration": 0.6662515312499977,
          "durationTicks": 452,
          "midi": 64,
          "name": "E4",
          "ticks": 37728,
          "time": 55.61136675,
          "velocity": 0.4094488188976378
        },
        {
          "duration": 0.8785086562499984,
          "durationTicks": 596,
          "midi": 57,
          "name": "A3",
          "ticks": 37732,
          "time": 55.617262781250005,
          "velocity": 0.4094488188976378
        },
        {
          "duration": 0.3242817187500009,
          "durationTicks": 220,
          "midi": 61,
          "name": "C#4",
          "ticks": 38496,
          "time": 56.74340475,
          "velocity": 0.29133858267716534
        },
        {
          "duration": 0.35376187500000356,
          "durationTicks": 240,
          "midi": 54,
          "name": "F#3",
          "ticks": 38500,
          "time": 56.74930078125001,
          "velocity": 0.29133858267716534
        },
        {
          "duration": 0.35376187500000356,
          "durationTicks": 240,
          "midi": 57,
          "name": "A3",
          "ticks": 38500,
          "time": 56.74930078125001,
          "velocity": 0.29133858267716534
        },
        {
          "duration": 0.05896031249999112,
          "durationTicks": 40,
          "midi": 59,
          "name": "B3",
          "ticks": 38884,
          "time": 57.31531978125001,
          "velocity": 0.13385826771653545
        },
        {
          "duration": 0.05896031249999112,
          "durationTicks": 40,
          "midi": 62,
          "name": "D4",
          "ticks": 38884,
          "time": 57.31531978125001,
          "velocity": 0.13385826771653545
        },
        {
          "duration": 0.05896031249999112,
          "durationTicks": 40,
          "midi": 55,
          "name": "G3",
          "ticks": 38884,
          "time": 57.31531978125001,
          "velocity": 0.13385826771653545
        },
        {
          "duration": 1.1438300625000082,
          "durationTicks": 776,
          "midi": 55,
          "name": "G3",
          "ticks": 39068,
          "time": 57.58653721875,
          "velocity": 0.29133858267716534
        },
        {
          "duration": 1.1202459375000018,
          "durationTicks": 760,
          "midi": 62,
          "name": "D4",
          "ticks": 39068,
          "time": 57.58653721875,
          "velocity": 0.29133858267716534
        },
        {
          "duration": 1.1143499062499984,
          "durationTicks": 756,
          "midi": 59,
          "name": "B3",
          "ticks": 39068,
          "time": 57.58653721875,
          "velocity": 0.29133858267716534
        },
        {
          "duration": 0.1297126874999961,
          "durationTicks": 88,
          "midi": 59,
          "name": "B3",
          "ticks": 40120,
          "time": 59.13719343750001,
          "velocity": 0.28346456692913385
        },
        {
          "duration": 0.1709849062499984,
          "durationTicks": 116,
          "midi": 66,
          "name": "F#4",
          "ticks": 40216,
          "time": 59.278698187500005,
          "velocity": 0.3700787401574803
        },
        {
          "duration": 0.13560871874999947,
          "durationTicks": 92,
          "midi": 62,
          "name": "D4",
          "ticks": 40216,
          "time": 59.278698187500005,
          "velocity": 0.3543307086614173
        },
        {
          "duration": 0.1297126874999961,
          "durationTicks": 88,
          "midi": 59,
          "name": "B3",
          "ticks": 40216,
          "time": 59.278698187500005,
          "velocity": 0.3937007874015748
        },
        {
          "duration": 1.0141173749999979,
          "durationTicks": 688,
          "midi": 61,
          "name": "C#4",
          "ticks": 40800,
          "time": 60.13951875000001,
          "velocity": 0.3779527559055118
        },
        {
          "duration": 0.8844046874999947,
          "durationTicks": 600,
          "midi": 64,
          "name": "E4",
          "ticks": 40800,
          "time": 60.13951875000001,
          "velocity": 0.3858267716535433
        },
        {
          "duration": 0.9846372187499952,
          "durationTicks": 668,
          "midi": 57,
          "name": "A3",
          "ticks": 40804,
          "time": 60.14541478125001,
          "velocity": 0.41732283464566927
        },
        {
          "duration": 0.13560871874999947,
          "durationTicks": 92,
          "midi": 57,
          "name": "A3",
          "ticks": 41752,
          "time": 61.54277418750001,
          "velocity": 0.41732283464566927
        },
        {
          "duration": 0.16508887499999503,
          "durationTicks": 112,
          "midi": 61,
          "name": "C#4",
          "ticks": 41752,
          "time": 61.54277418750001,
          "velocity": 0.3937007874015748
        },
        {
          "duration": 0.1532968125000025,
          "durationTicks": 104,
          "midi": 54,
          "name": "F#3",
          "ticks": 41756,
          "time": 61.548670218750004,
          "velocity": 0.4094488188976378
        },
        {
          "duration": 0.5424348749999979,
          "durationTicks": 368,
          "midi": 55,
          "name": "G3",
          "ticks": 42336,
          "time": 62.40359475,
          "velocity": 0.3779527559055118
        },
        {
          "duration": 0.6780435937500044,
          "durationTicks": 460,
          "midi": 59,
          "name": "B3",
          "ticks": 42336,
          "time": 62.40359475,
          "velocity": 0.3858267716535433
        },
        {
          "duration": 0.5453828906249996,
          "durationTicks": 370,
          "midi": 50,
          "name": "D3",
          "ticks": 42340,
          "time": 62.40949078125001,
          "velocity": 0.33858267716535434
        },
        {
          "duration": 0.1709849062499984,
          "durationTicks": 116,
          "midi": 50,
          "name": "D3",
          "ticks": 42712,
          "time": 62.95782168750001,
          "velocity": 0.25984251968503935
        },
        {
          "duration": 0.14740078125000622,
          "durationTicks": 100,
          "midi": 55,
          "name": "G3",
          "ticks": 42722,
          "time": 62.972561765625,
          "velocity": 0.2283464566929134
        },
        {
          "duration": 0.1297126874999961,
          "durationTicks": 88,
          "midi": 60,
          "name": "C4",
          "ticks": 42772,
          "time": 63.04626215625001,
          "velocity": 0.2677165354330709
        },
        {
          "duration": 0.13560871875000657,
          "durationTicks": 92,
          "midi": 51,
          "name": "D#3",
          "ticks": 42776,
          "time": 63.052158187500005,
          "velocity": 0.2755905511811024
        },
        {
          "duration": 0.1474007812499991,
          "durationTicks": 100,
          "midi": 56,
          "name": "G#3",
          "ticks": 42782,
          "time": 63.061002234375,
          "velocity": 0.2755905511811024
        },
        {
          "duration": 0.4097741718750001,
          "durationTicks": 278,
          "midi": 61,
          "name": "C#4",
          "ticks": 42820,
          "time": 63.11701453125001,
          "velocity": 0.29133858267716534
        },
        {
          "duration": 0.3861900468750008,
          "durationTicks": 262,
          "midi": 52,
          "name": "E3",
          "ticks": 42836,
          "time": 63.140598656250006,
          "velocity": 0.2755905511811024
        },
        {
          "duration": 0.306593625000005,
          "durationTicks": 208,
          "midi": 57,
          "name": "A3",
          "ticks": 42848,
          "time": 63.15828675,
          "velocity": 0.23622047244094488
        },
        {
          "duration": 0.12381665624999982,
          "durationTicks": 84,
          "midi": 61,
          "name": "C#4",
          "ticks": 43112,
          "time": 63.547424812500005,
          "velocity": 0.2677165354330709
        },
        {
          "duration": 0.1297126875000032,
          "durationTicks": 88,
          "midi": 57,
          "name": "A3",
          "ticks": 43112,
          "time": 63.547424812500005,
          "velocity": 0.28346456692913385
        },
        {
          "duration": 0.129712687499989,
          "durationTicks": 88,
          "midi": 59,
          "name": "B3",
          "ticks": 43288,
          "time": 63.80685018750001,
          "velocity": 0.28346456692913385
        },
        {
          "duration": 0.129712687499989,
          "durationTicks": 88,
          "midi": 62,
          "name": "D4",
          "ticks": 43288,
          "time": 63.80685018750001,
          "velocity": 0.4409448818897638
        },
        {
          "duration": 0.12381665624999982,
          "durationTicks": 84,
          "midi": 66,
          "name": "F#4",
          "ticks": 43288,
          "time": 63.80685018750001,
          "velocity": 0.4251968503937008
        },
        {
          "duration": 0.8785086562500055,
          "durationTicks": 596,
          "midi": 61,
          "name": "C#4",
          "ticks": 43872,
          "time": 64.66767075,
          "velocity": 0.41732283464566927
        },
        {
          "duration": 0.6662515312499977,
          "durationTicks": 452,
          "midi": 64,
          "name": "E4",
          "ticks": 43872,
          "time": 64.66767075,
          "velocity": 0.4094488188976378
        },
        {
          "duration": 0.8785086562500055,
          "durationTicks": 596,
          "midi": 57,
          "name": "A3",
          "ticks": 43876,
          "time": 64.67356678125,
          "velocity": 0.4094488188976378
        },
        {
          "duration": 0.3242817187500009,
          "durationTicks": 220,
          "midi": 61,
          "name": "C#4",
          "ticks": 44640,
          "time": 65.79970875000001,
          "velocity": 0.29133858267716534
        },
        {
          "duration": 0.35376187500000356,
          "durationTicks": 240,
          "midi": 54,
          "name": "F#3",
          "ticks": 44644,
          "time": 65.80560478125001,
          "velocity": 0.29133858267716534
        },
        {
          "duration": 0.35376187500000356,
          "durationTicks": 240,
          "midi": 57,
          "name": "A3",
          "ticks": 44644,
          "time": 65.80560478125001,
          "velocity": 0.29133858267716534
        },
        {
          "duration": 0.05896031249999112,
          "durationTicks": 40,
          "midi": 59,
          "name": "B3",
          "ticks": 45028,
          "time": 66.37162378125001,
          "velocity": 0.13385826771653545
        },
        {
          "duration": 0.05896031249999112,
          "durationTicks": 40,
          "midi": 62,
          "name": "D4",
          "ticks": 45028,
          "time": 66.37162378125001,
          "velocity": 0.13385826771653545
        },
        {
          "duration": 0.05896031249999112,
          "durationTicks": 40,
          "midi": 55,
          "name": "G3",
          "ticks": 45028,
          "time": 66.37162378125001,
          "velocity": 0.13385826771653545
        },
        {
          "duration": 1.143830062500001,
          "durationTicks": 776,
          "midi": 55,
          "name": "G3",
          "ticks": 45212,
          "time": 66.64284121875001,
          "velocity": 0.29133858267716534
        },
        {
          "duration": 1.1202459375000018,
          "durationTicks": 760,
          "midi": 62,
          "name": "D4",
          "ticks": 45212,
          "time": 66.64284121875001,
          "velocity": 0.29133858267716534
        },
        {
          "duration": 1.1143499062499984,
          "durationTicks": 756,
          "midi": 59,
          "name": "B3",
          "ticks": 45212,
          "time": 66.64284121875001,
          "velocity": 0.29133858267716534
        },
        {
          "duration": 0.5896031249999965,
          "durationTicks": 400,
          "midi": 66,
          "name": "F#4",
          "ticks": 46360,
          "time": 68.33500218750001,
          "velocity": 0.5118110236220472
        },
        {
          "duration": 0.6957316875000004,
          "durationTicks": 472,
          "midi": 62,
          "name": "D4",
          "ticks": 46360,
          "time": 68.33500218750001,
          "velocity": 0.5118110236220472
        },
        {
          "duration": 1.1497260937500045,
          "durationTicks": 780,
          "midi": 61,
          "name": "C#4",
          "ticks": 46944,
          "time": 69.19582275,
          "velocity": 0.5118110236220472
        },
        {
          "duration": 1.0907657812499991,
          "durationTicks": 740,
          "midi": 64,
          "name": "E4",
          "ticks": 46944,
          "time": 69.19582275,
          "velocity": 0.5118110236220472
        },
        {
          "duration": 0.7370039062499956,
          "durationTicks": 500,
          "midi": 62,
          "name": "D4",
          "ticks": 47896,
          "time": 70.59907818750001,
          "velocity": 0.5118110236220472
        },
        {
          "duration": 0.6957316874999862,
          "durationTicks": 472,
          "midi": 59,
          "name": "B3",
          "ticks": 47896,
          "time": 70.59907818750001,
          "velocity": 0.5118110236220472
        },
        {
          "duration": 1.2204784687500023,
          "durationTicks": 828,
          "midi": 62,
          "name": "D4",
          "ticks": 48480,
          "time": 71.45989875000001,
          "velocity": 0.5118110236220472
        },
        {
          "duration": 1.2204784687500023,
          "durationTicks": 828,
          "midi": 57,
          "name": "A3",
          "ticks": 48480,
          "time": 71.45989875000001,
          "velocity": 0.5118110236220472
        },
        {
          "duration": 0.7605880312499949,
          "durationTicks": 516,
          "midi": 55,
          "name": "G3",
          "ticks": 49432,
          "time": 72.8631541875,
          "velocity": 0.5118110236220472
        },
        {
          "duration": 0.7311078750000064,
          "durationTicks": 496,
          "midi": 60,
          "name": "C4",
          "ticks": 49432,
          "time": 72.8631541875,
          "velocity": 0.5118110236220472
        },
        {
          "duration": 1.1792062500000071,
          "durationTicks": 800,
          "midi": 59,
          "name": "B3",
          "ticks": 50016,
          "time": 73.72397475000001,
          "velocity": 0.5118110236220472
        },
        {
          "duration": 1.1261419687500052,
          "durationTicks": 764,
          "midi": 55,
          "name": "G3",
          "ticks": 50016,
          "time": 73.72397475000001,
          "velocity": 0.5118110236220472
        },
        {
          "duration": 1.7629133437500002,
          "durationTicks": 1196,
          "midi": 62,
          "name": "D4",
          "ticks": 50968,
          "time": 75.1272301875,
          "velocity": 0.5118110236220472
        },
        {
          "duration": 1.7688093750000036,
          "durationTicks": 1200,
          "midi": 57,
          "name": "A3",
          "ticks": 50968,
          "time": 75.1272301875,
          "velocity": 0.5118110236220472
        },
        {
          "duration": 0.5896031250000107,
          "durationTicks": 400,
          "midi": 66,
          "name": "F#4",
          "ticks": 52504,
          "time": 77.3913061875,
          "velocity": 0.5118110236220472
        },
        {
          "duration": 0.6957316875000004,
          "durationTicks": 472,
          "midi": 62,
          "name": "D4",
          "ticks": 52504,
          "time": 77.3913061875,
          "velocity": 0.5118110236220472
        },
        {
          "duration": 1.1497260937500045,
          "durationTicks": 780,
          "midi": 61,
          "name": "C#4",
          "ticks": 53088,
          "time": 78.25212675,
          "velocity": 0.5118110236220472
        },
        {
          "duration": 1.0907657812500133,
          "durationTicks": 740,
          "midi": 64,
          "name": "E4",
          "ticks": 53088,
          "time": 78.25212675,
          "velocity": 0.5118110236220472
        },
        {
          "duration": 0.7370039062500098,
          "durationTicks": 500,
          "midi": 62,
          "name": "D4",
          "ticks": 54040,
          "time": 79.6553821875,
          "velocity": 0.5118110236220472
        },
        {
          "duration": 0.6957316875000146,
          "durationTicks": 472,
          "midi": 59,
          "name": "B3",
          "ticks": 54040,
          "time": 79.6553821875,
          "velocity": 0.5118110236220472
        },
        {
          "duration": 1.2204784687500023,
          "durationTicks": 828,
          "midi": 62,
          "name": "D4",
          "ticks": 54624,
          "time": 80.51620275,
          "velocity": 0.5118110236220472
        },
        {
          "duration": 1.2204784687500023,
          "durationTicks": 828,
          "midi": 57,
          "name": "A3",
          "ticks": 54624,
          "time": 80.51620275,
          "velocity": 0.5118110236220472
        },
        {
          "duration": 0.7605880312500091,
          "durationTicks": 516,
          "midi": 64,
          "name": "E4",
          "ticks": 55576,
          "time": 81.9194581875,
          "velocity": 0.5118110236220472
        },
        {
          "duration": 0.7311078750000206,
          "durationTicks": 496,
          "midi": 60,
          "name": "C4",
          "ticks": 55576,
          "time": 81.9194581875,
          "velocity": 0.5118110236220472
        },
        {
          "duration": 1.1792062500000071,
          "durationTicks": 800,
          "midi": 62,
          "name": "D4",
          "ticks": 56160,
          "time": 82.78027875000001,
          "velocity": 0.5118110236220472
        },
        {
          "duration": 1.1261419687500052,
          "durationTicks": 764,
          "midi": 59,
          "name": "B3",
          "ticks": 56160,
          "time": 82.78027875000001,
          "velocity": 0.5118110236220472
        },
        {
          "duration": 1.7629133437500002,
          "durationTicks": 1196,
          "midi": 62,
          "name": "D4",
          "ticks": 57112,
          "time": 84.1835341875,
          "velocity": 0.5118110236220472
        },
        {
          "duration": 1.7688093750000036,
          "durationTicks": 1200,
          "midi": 57,
          "name": "A3",
          "ticks": 57112,
          "time": 84.1835341875,
          "velocity": 0.5118110236220472
        },
        {
          "duration": 0.5896031250000107,
          "durationTicks": 400,
          "midi": 66,
          "name": "F#4",
          "ticks": 58648,
          "time": 86.4476101875,
          "velocity": 0.5118110236220472
        },
        {
          "duration": 0.6957316875000146,
          "durationTicks": 472,
          "midi": 62,
          "name": "D4",
          "ticks": 58648,
          "time": 86.4476101875,
          "velocity": 0.5118110236220472
        },
        {
          "duration": 1.1497260937499902,
          "durationTicks": 780,
          "midi": 61,
          "name": "C#4",
          "ticks": 59232,
          "time": 87.30843075000001,
          "velocity": 0.5118110236220472
        },
        {
          "duration": 1.0907657812499991,
          "durationTicks": 740,
          "midi": 64,
          "name": "E4",
          "ticks": 59232,
          "time": 87.30843075000001,
          "velocity": 0.5118110236220472
        },
        {
          "duration": 0.7370039062499956,
          "durationTicks": 500,
          "midi": 62,
          "name": "D4",
          "ticks": 60184,
          "time": 88.7116861875,
          "velocity": 0.5118110236220472
        },
        {
          "duration": 0.6957316875000004,
          "durationTicks": 472,
          "midi": 59,
          "name": "B3",
          "ticks": 60184,
          "time": 88.7116861875,
          "velocity": 0.5118110236220472
        },
        {
          "duration": 1.2204784687500023,
          "durationTicks": 828,
          "midi": 62,
          "name": "D4",
          "ticks": 60768,
          "time": 89.57250675,
          "velocity": 0.5118110236220472
        },
        {
          "duration": 1.2204784687500023,
          "durationTicks": 828,
          "midi": 57,
          "name": "A3",
          "ticks": 60768,
          "time": 89.57250675,
          "velocity": 0.5118110236220472
        },
        {
          "duration": 0.7605880312500091,
          "durationTicks": 516,
          "midi": 55,
          "name": "G3",
          "ticks": 61720,
          "time": 90.9757621875,
          "velocity": 0.5118110236220472
        },
        {
          "duration": 0.7311078750000206,
          "durationTicks": 496,
          "midi": 60,
          "name": "C4",
          "ticks": 61720,
          "time": 90.9757621875,
          "velocity": 0.5118110236220472
        },
        {
          "duration": 1.1792062500000071,
          "durationTicks": 800,
          "midi": 59,
          "name": "B3",
          "ticks": 62304,
          "time": 91.83658275,
          "velocity": 0.5118110236220472
        },
        {
          "duration": 1.1261419687500052,
          "durationTicks": 764,
          "midi": 55,
          "name": "G3",
          "ticks": 62304,
          "time": 91.83658275,
          "velocity": 0.5118110236220472
        },
        {
          "duration": 1.7629133437500144,
          "durationTicks": 1196,
          "midi": 62,
          "name": "D4",
          "ticks": 63256,
          "time": 93.2398381875,
          "velocity": 0.5118110236220472
        },
        {
          "duration": 1.7688093750000036,
          "durationTicks": 1200,
          "midi": 57,
          "name": "A3",
          "ticks": 63256,
          "time": 93.2398381875,
          "velocity": 0.5118110236220472
        },
        {
          "duration": 0.5896031250000107,
          "durationTicks": 400,
          "midi": 66,
          "name": "F#4",
          "ticks": 64792,
          "time": 95.5039141875,
          "velocity": 0.5118110236220472
        },
        {
          "duration": 0.6957316875000146,
          "durationTicks": 472,
          "midi": 62,
          "name": "D4",
          "ticks": 64792,
          "time": 95.5039141875,
          "velocity": 0.5118110236220472
        },
        {
          "duration": 1.1497260937500045,
          "durationTicks": 780,
          "midi": 61,
          "name": "C#4",
          "ticks": 65376,
          "time": 96.36473475000001,
          "velocity": 0.5118110236220472
        },
        {
          "duration": 1.0907657812499991,
          "durationTicks": 740,
          "midi": 64,
          "name": "E4",
          "ticks": 65376,
          "time": 96.36473475000001,
          "velocity": 0.5118110236220472
        },
        {
          "duration": 0.7370039062500098,
          "durationTicks": 500,
          "midi": 62,
          "name": "D4",
          "ticks": 66328,
          "time": 97.7679901875,
          "velocity": 0.5118110236220472
        },
        {
          "duration": 0.6957316875000146,
          "durationTicks": 472,
          "midi": 59,
          "name": "B3",
          "ticks": 66328,
          "time": 97.7679901875,
          "velocity": 0.5118110236220472
        },
        {
          "duration": 1.220478468749988,
          "durationTicks": 828,
          "midi": 62,
          "name": "D4",
          "ticks": 66912,
          "time": 98.62881075000001,
          "velocity": 0.5118110236220472
        },
        {
          "duration": 1.220478468749988,
          "durationTicks": 828,
          "midi": 57,
          "name": "A3",
          "ticks": 66912,
          "time": 98.62881075000001,
          "velocity": 0.5118110236220472
        },
        {
          "duration": 0.7605880312499949,
          "durationTicks": 516,
          "midi": 64,
          "name": "E4",
          "ticks": 67864,
          "time": 100.0320661875,
          "velocity": 0.5118110236220472
        },
        {
          "duration": 0.7311078750000064,
          "durationTicks": 496,
          "midi": 60,
          "name": "C4",
          "ticks": 67864,
          "time": 100.0320661875,
          "velocity": 0.5118110236220472
        },
        {
          "duration": 1.1792062500000071,
          "durationTicks": 800,
          "midi": 62,
          "name": "D4",
          "ticks": 68448,
          "time": 100.89288675,
          "velocity": 0.5118110236220472
        },
        {
          "duration": 1.1261419687500052,
          "durationTicks": 764,
          "midi": 59,
          "name": "B3",
          "ticks": 68448,
          "time": 100.89288675,
          "velocity": 0.5118110236220472
        },
        {
          "duration": 1.7629133437500002,
          "durationTicks": 1196,
          "midi": 62,
          "name": "D4",
          "ticks": 69400,
          "time": 102.29614218750001,
          "velocity": 0.5118110236220472
        },
        {
          "duration": 1.7688093749999894,
          "durationTicks": 1200,
          "midi": 57,
          "name": "A3",
          "ticks": 69400,
          "time": 102.29614218750001,
          "velocity": 0.5118110236220472
        },
        {
          "duration": 0.15329681249997407,
          "durationTicks": 104,
          "midi": 64,
          "name": "E4",
          "ticks": 107800,
          "time": 158.89804218750004,
          "velocity": 0.5433070866141733
        },
        {
          "duration": 0.15919284374999165,
          "durationTicks": 108,
          "midi": 73,
          "name": "C#5",
          "ticks": 107800,
          "time": 158.89804218750004,
          "velocity": 0.4566929133858268
        },
        {
          "duration": 0.1650888749999524,
          "durationTicks": 112,
          "midi": 68,
          "name": "G#4",
          "ticks": 107800,
          "time": 158.89804218750004,
          "velocity": 0.5196850393700787
        },
        {
          "duration": 0.9138848437499973,
          "durationTicks": 620,
          "midi": 71,
          "name": "B4",
          "ticks": 108384,
          "time": 159.75886275000002,
          "velocity": 0.4881889763779528
        },
        {
          "duration": 1.0966618125000025,
          "durationTicks": 744,
          "midi": 66,
          "name": "F#4",
          "ticks": 108384,
          "time": 159.75886275000002,
          "velocity": 0.5039370078740157
        },
        {
          "duration": 1.0671816562499998,
          "durationTicks": 724,
          "midi": 63,
          "name": "D#4",
          "ticks": 108384,
          "time": 159.75886275000002,
          "velocity": 0.5748031496062992
        },
        {
          "duration": 0.10612856250000391,
          "durationTicks": 72,
          "midi": 68,
          "name": "G#4",
          "ticks": 109336,
          "time": 161.16211818750003,
          "velocity": 0.5039370078740157
        },
        {
          "duration": 0.11202459374996465,
          "durationTicks": 76,
          "midi": 73,
          "name": "C#5",
          "ticks": 109336,
          "time": 161.16211818750003,
          "velocity": 0.5039370078740157
        },
        {
          "duration": 0.08254443749999041,
          "durationTicks": 56,
          "midi": 64,
          "name": "E4",
          "ticks": 109336,
          "time": 161.16211818750003,
          "velocity": 0.5748031496062992
        },
        {
          "duration": 0.43630631249999396,
          "durationTicks": 296,
          "midi": 71,
          "name": "B4",
          "ticks": 109920,
          "time": 162.02293875,
          "velocity": 0.5039370078740157
        },
        {
          "duration": 0.5424348749999979,
          "durationTicks": 368,
          "midi": 66,
          "name": "F#4",
          "ticks": 109920,
          "time": 162.02293875,
          "velocity": 0.5039370078740157
        },
        {
          "duration": 0.6190832812499991,
          "durationTicks": 420,
          "midi": 63,
          "name": "D#4",
          "ticks": 109920,
          "time": 162.02293875,
          "velocity": 0.5748031496062992
        },
        {
          "duration": 0.5837070937500073,
          "durationTicks": 396,
          "midi": 71,
          "name": "B4",
          "ticks": 110304,
          "time": 162.58895775000002,
          "velocity": 0.4015748031496063
        },
        {
          "duration": 0.33017774999999006,
          "durationTicks": 224,
          "midi": 66,
          "name": "F#4",
          "ticks": 110488,
          "time": 162.86017518750003,
          "velocity": 0.41732283464566927
        },
        {
          "duration": 0.20636109374999023,
          "durationTicks": 140,
          "midi": 63,
          "name": "D#4",
          "ticks": 110688,
          "time": 163.15497675,
          "velocity": 0.3779527559055118
        },
        {
          "duration": 0.11202459374999307,
          "durationTicks": 76,
          "midi": 68,
          "name": "G#4",
          "ticks": 110872,
          "time": 163.42619418750002,
          "velocity": 0.5275590551181102
        },
        {
          "duration": 0.088440468750008,
          "durationTicks": 60,
          "midi": 73,
          "name": "C#5",
          "ticks": 110872,
          "time": 163.42619418750002,
          "velocity": 0.5196850393700787
        },
        {
          "duration": 0.07075237500001208,
          "durationTicks": 48,
          "midi": 64,
          "name": "E4",
          "ticks": 110872,
          "time": 163.42619418750002,
          "velocity": 0.6220472440944882
        },
        {
          "duration": 0.896196749999973,
          "durationTicks": 608,
          "midi": 71,
          "name": "B4",
          "ticks": 111456,
          "time": 164.28701475000003,
          "velocity": 0.5196850393700787
        },
        {
          "duration": 1.1202459374999876,
          "durationTicks": 760,
          "midi": 66,
          "name": "F#4",
          "ticks": 111456,
          "time": 164.28701475000003,
          "velocity": 0.5196850393700787
        },
        {
          "duration": 1.0966618125000025,
          "durationTicks": 744,
          "midi": 63,
          "name": "D#4",
          "ticks": 111456,
          "time": 164.28701475000003,
          "velocity": 0.6220472440944882
        },
        {
          "duration": 0.12381665624999982,
          "durationTicks": 84,
          "midi": 73,
          "name": "C#5",
          "ticks": 112408,
          "time": 165.69027018750003,
          "velocity": 0.5354330708661418
        },
        {
          "duration": 0.10612856250000391,
          "durationTicks": 72,
          "midi": 64,
          "name": "E4",
          "ticks": 112412,
          "time": 165.69616621875,
          "velocity": 0.6141732283464567
        },
        {
          "duration": 0.12381665624999982,
          "durationTicks": 84,
          "midi": 68,
          "name": "G#4",
          "ticks": 112412,
          "time": 165.69616621875,
          "velocity": 0.5590551181102362
        },
        {
          "duration": 0.4893705937499817,
          "durationTicks": 332,
          "midi": 71,
          "name": "B4",
          "ticks": 112992,
          "time": 166.55109075000001,
          "velocity": 0.5354330708661418
        },
        {
          "duration": 0.6721475624999869,
          "durationTicks": 456,
          "midi": 66,
          "name": "F#4",
          "ticks": 112992,
          "time": 166.55109075000001,
          "velocity": 0.5354330708661418
        },
        {
          "duration": 0.5896031250000249,
          "durationTicks": 400,
          "midi": 63,
          "name": "D#4",
          "ticks": 112992,
          "time": 166.55109075000001,
          "velocity": 0.6141732283464567
        },
        {
          "duration": 0.34786584374998597,
          "durationTicks": 236,
          "midi": 71,
          "name": "B4",
          "ticks": 113380,
          "time": 167.12300578125001,
          "velocity": 0.4094488188976378
        },
        {
          "duration": 0.31248965625002256,
          "durationTicks": 212,
          "midi": 66,
          "name": "F#4",
          "ticks": 113564,
          "time": 167.39422321875,
          "velocity": 0.3543307086614173
        },
        {
          "duration": 0.14150474999999574,
          "durationTicks": 96,
          "midi": 63,
          "name": "D#4",
          "ticks": 113760,
          "time": 167.68312875,
          "velocity": 0.47244094488188976
        },
        {
          "duration": 0.1709849062499984,
          "durationTicks": 116,
          "midi": 68,
          "name": "G#4",
          "ticks": 113944,
          "time": 167.95434618750002,
          "velocity": 0.44881889763779526
        },
        {
          "duration": 0.13560871875000657,
          "durationTicks": 92,
          "midi": 64,
          "name": "E4",
          "ticks": 113944,
          "time": 167.95434618750002,
          "velocity": 0.4330708661417323
        },
        {
          "duration": 0.129712687499989,
          "durationTicks": 88,
          "midi": 61,
          "name": "C#4",
          "ticks": 113944,
          "time": 167.95434618750002,
          "velocity": 0.47244094488188976
        },
        {
          "duration": 1.014117375000012,
          "durationTicks": 688,
          "midi": 63,
          "name": "D#4",
          "ticks": 114528,
          "time": 168.81516675,
          "velocity": 0.4566929133858268
        },
        {
          "duration": 0.8844046875000231,
          "durationTicks": 600,
          "midi": 66,
          "name": "F#4",
          "ticks": 114528,
          "time": 168.81516675,
          "velocity": 0.4645669291338583
        },
        {
          "duration": 0.984637218749981,
          "durationTicks": 668,
          "midi": 59,
          "name": "B3",
          "ticks": 114532,
          "time": 168.82106278125002,
          "velocity": 0.49606299212598426
        },
        {
          "duration": 0.13560871874997815,
          "durationTicks": 92,
          "midi": 59,
          "name": "B3",
          "ticks": 115480,
          "time": 170.21842218750004,
          "velocity": 0.49606299212598426
        },
        {
          "duration": 0.1650888749999524,
          "durationTicks": 112,
          "midi": 63,
          "name": "D#4",
          "ticks": 115480,
          "time": 170.21842218750004,
          "velocity": 0.47244094488188976
        },
        {
          "duration": 0.1532968125000309,
          "durationTicks": 104,
          "midi": 56,
          "name": "G#3",
          "ticks": 115484,
          "time": 170.22431821875,
          "velocity": 0.4881889763779528
        },
        {
          "duration": 0.5424348749999979,
          "durationTicks": 368,
          "midi": 61,
          "name": "C#4",
          "ticks": 116064,
          "time": 171.07924275000002,
          "velocity": 0.4566929133858268
        },
        {
          "duration": 0.6780435937500044,
          "durationTicks": 460,
          "midi": 64,
          "name": "E4",
          "ticks": 116064,
          "time": 171.07924275000002,
          "velocity": 0.4645669291338583
        },
        {
          "duration": 0.5453828906249782,
          "durationTicks": 370,
          "midi": 57,
          "name": "A3",
          "ticks": 116068,
          "time": 171.08513878125004,
          "velocity": 0.49606299212598426
        },
        {
          "duration": 0.1709849062499984,
          "durationTicks": 116,
          "midi": 57,
          "name": "A3",
          "ticks": 116440,
          "time": 171.63346968750002,
          "velocity": 0.4645669291338583
        },
        {
          "duration": 0.12971268749996057,
          "durationTicks": 88,
          "midi": 65,
          "name": "F4",
          "ticks": 116500,
          "time": 171.72191015625003,
          "velocity": 0.2677165354330709
        },
        {
          "duration": 0.135608718750035,
          "durationTicks": 92,
          "midi": 58,
          "name": "A#3",
          "ticks": 116504,
          "time": 171.7278061875,
          "velocity": 0.2755905511811024
        },
        {
          "duration": 0.3920860781250042,
          "durationTicks": 266,
          "midi": 66,
          "name": "F#4",
          "ticks": 116548,
          "time": 171.79266253125002,
          "velocity": 0.2992125984251969
        },
        {
          "duration": 0.12086864062501945,
          "durationTicks": 82,
          "midi": 59,
          "name": "B3",
          "ticks": 116564,
          "time": 171.81624665625,
          "velocity": 0.29133858267716534
        },
        {
          "duration": 0.2712174374999847,
          "durationTicks": 184,
          "midi": 63,
          "name": "D#4",
          "ticks": 116632,
          "time": 171.91647918750002,
          "velocity": 0.5196850393700787
        },
        {
          "duration": 0.08254443749999041,
          "durationTicks": 56,
          "midi": 59,
          "name": "B3",
          "ticks": 116832,
          "time": 172.21128075000001,
          "velocity": 0.3779527559055118
        },
        {
          "duration": 0.0648563437499945,
          "durationTicks": 44,
          "midi": 63,
          "name": "D#4",
          "ticks": 116932,
          "time": 172.35868153125003,
          "velocity": 0.3700787401574803
        },
        {
          "duration": 0.04716824999999858,
          "durationTicks": 32,
          "midi": 66,
          "name": "F#4",
          "ticks": 116932,
          "time": 172.35868153125003,
          "velocity": 0.41732283464566927
        },
        {
          "duration": 0.129712687499989,
          "durationTicks": 88,
          "midi": 61,
          "name": "C#4",
          "ticks": 117020,
          "time": 172.48839421875002,
          "velocity": 0.5196850393700787
        },
        {
          "duration": 0.12381665624999982,
          "durationTicks": 84,
          "midi": 64,
          "name": "E4",
          "ticks": 117020,
          "time": 172.48839421875002,
          "velocity": 0.5039370078740157
        },
        {
          "duration": 0.8785086562500055,
          "durationTicks": 596,
          "midi": 63,
          "name": "D#4",
          "ticks": 117600,
          "time": 173.34331875,
          "velocity": 0.49606299212598426
        },
        {
          "duration": 0.6662515312499977,
          "durationTicks": 452,
          "midi": 66,
          "name": "F#4",
          "ticks": 117600,
          "time": 173.34331875,
          "velocity": 0.4881889763779528
        },
        {
          "duration": 0.8785086562499771,
          "durationTicks": 596,
          "midi": 59,
          "name": "B3",
          "ticks": 117604,
          "time": 173.34921478125003,
          "velocity": 0.4881889763779528
        },
        {
          "duration": 0.11792062500001066,
          "durationTicks": 80,
          "midi": 63,
          "name": "D#4",
          "ticks": 118368,
          "time": 174.47535675,
          "velocity": 0.4881889763779528
        },
        {
          "duration": 0.1474007812499849,
          "durationTicks": 100,
          "midi": 56,
          "name": "G#3",
          "ticks": 118372,
          "time": 174.48125278125002,
          "velocity": 0.4881889763779528
        },
        {
          "duration": 0.1474007812499849,
          "durationTicks": 100,
          "midi": 59,
          "name": "B3",
          "ticks": 118372,
          "time": 174.48125278125002,
          "velocity": 0.4881889763779528
        },
        {
          "duration": 0.21815315624996856,
          "durationTicks": 148,
          "midi": 61,
          "name": "C#4",
          "ticks": 118756,
          "time": 175.04727178125003,
          "velocity": 0.4881889763779528
        },
        {
          "duration": 0.20636109374999023,
          "durationTicks": 140,
          "midi": 64,
          "name": "E4",
          "ticks": 118756,
          "time": 175.04727178125003,
          "velocity": 0.4881889763779528
        },
        {
          "duration": 0.23584124999996448,
          "durationTicks": 160,
          "midi": 57,
          "name": "A3",
          "ticks": 118756,
          "time": 175.04727178125003,
          "velocity": 0.4881889763779528
        },
        {
          "duration": 1.143830062500001,
          "durationTicks": 776,
          "midi": 57,
          "name": "A3",
          "ticks": 118940,
          "time": 175.31848921875002,
          "velocity": 0.4881889763779528
        },
        {
          "duration": 1.1202459374999876,
          "durationTicks": 760,
          "midi": 64,
          "name": "E4",
          "ticks": 118940,
          "time": 175.31848921875002,
          "velocity": 0.4881889763779528
        },
        {
          "duration": 1.1143499062499984,
          "durationTicks": 756,
          "midi": 61,
          "name": "C#4",
          "ticks": 118940,
          "time": 175.31848921875002,
          "velocity": 0.4881889763779528
        },
        {
          "duration": 0.14150474999999574,
          "durationTicks": 96,
          "midi": 63,
          "name": "D#4",
          "ticks": 119904,
          "time": 176.73943275000002,
          "velocity": 0.47244094488188976
        },
        {
          "duration": 0.17098490624996998,
          "durationTicks": 116,
          "midi": 68,
          "name": "G#4",
          "ticks": 120088,
          "time": 177.01065018750003,
          "velocity": 0.44881889763779526
        },
        {
          "duration": 0.13560871874997815,
          "durationTicks": 92,
          "midi": 64,
          "name": "E4",
          "ticks": 120088,
          "time": 177.01065018750003,
          "velocity": 0.4330708661417323
        },
        {
          "duration": 0.12971268749996057,
          "durationTicks": 88,
          "midi": 61,
          "name": "C#4",
          "ticks": 120088,
          "time": 177.01065018750003,
          "velocity": 0.47244094488188976
        },
        {
          "duration": 1.014117375000012,
          "durationTicks": 688,
          "midi": 63,
          "name": "D#4",
          "ticks": 120672,
          "time": 177.87147075000001,
          "velocity": 0.4566929133858268
        },
        {
          "duration": 0.8844046874999947,
          "durationTicks": 600,
          "midi": 66,
          "name": "F#4",
          "ticks": 120672,
          "time": 177.87147075000001,
          "velocity": 0.4645669291338583
        },
        {
          "duration": 0.984637218749981,
          "durationTicks": 668,
          "midi": 59,
          "name": "B3",
          "ticks": 120676,
          "time": 177.87736678125003,
          "velocity": 0.49606299212598426
        },
        {
          "duration": 0.13560871875000657,
          "durationTicks": 92,
          "midi": 59,
          "name": "B3",
          "ticks": 121624,
          "time": 179.27472618750002,
          "velocity": 0.49606299212598426
        },
        {
          "duration": 0.16508887499998082,
          "durationTicks": 112,
          "midi": 63,
          "name": "D#4",
          "ticks": 121624,
          "time": 179.27472618750002,
          "velocity": 0.47244094488188976
        },
        {
          "duration": 0.1532968125000025,
          "durationTicks": 104,
          "midi": 56,
          "name": "G#3",
          "ticks": 121628,
          "time": 179.28062221875,
          "velocity": 0.4881889763779528
        },
        {
          "duration": 0.5424348749999979,
          "durationTicks": 368,
          "midi": 61,
          "name": "C#4",
          "ticks": 122208,
          "time": 180.13554675,
          "velocity": 0.4566929133858268
        },
        {
          "duration": 0.6780435937500329,
          "durationTicks": 460,
          "midi": 64,
          "name": "E4",
          "ticks": 122208,
          "time": 180.13554675,
          "velocity": 0.4645669291338583
        },
        {
          "duration": 0.5453828906249782,
          "durationTicks": 370,
          "midi": 57,
          "name": "A3",
          "ticks": 122212,
          "time": 180.14144278125002,
          "velocity": 0.49606299212598426
        },
        {
          "duration": 0.17098490624996998,
          "durationTicks": 116,
          "midi": 57,
          "name": "A3",
          "ticks": 122584,
          "time": 180.68977368750004,
          "velocity": 0.4645669291338583
        },
        {
          "duration": 0.129712687499989,
          "durationTicks": 88,
          "midi": 65,
          "name": "F4",
          "ticks": 122644,
          "time": 180.77821415625002,
          "velocity": 0.2677165354330709
        },
        {
          "duration": 0.135608718750035,
          "durationTicks": 92,
          "midi": 58,
          "name": "A#3",
          "ticks": 122648,
          "time": 180.7841101875,
          "velocity": 0.2755905511811024
        },
        {
          "duration": 0.39208607812497576,
          "durationTicks": 266,
          "midi": 66,
          "name": "F#4",
          "ticks": 122692,
          "time": 180.84896653125003,
          "velocity": 0.2992125984251969
        },
        {
          "duration": 0.12086864062499103,
          "durationTicks": 82,
          "midi": 59,
          "name": "B3",
          "ticks": 122708,
          "time": 180.87255065625,
          "velocity": 0.29133858267716534
        },
        {
          "duration": 0.2712174374999847,
          "durationTicks": 184,
          "midi": 63,
          "name": "D#4",
          "ticks": 122776,
          "time": 180.97278318750003,
          "velocity": 0.5196850393700787
        },
        {
          "duration": 0.08254443749999041,
          "durationTicks": 56,
          "midi": 59,
          "name": "B3",
          "ticks": 122976,
          "time": 181.26758475000003,
          "velocity": 0.3779527559055118
        },
        {
          "duration": 0.06485634374996607,
          "durationTicks": 44,
          "midi": 63,
          "name": "D#4",
          "ticks": 123076,
          "time": 181.41498553125004,
          "velocity": 0.3700787401574803
        },
        {
          "duration": 0.04716824999997016,
          "durationTicks": 32,
          "midi": 66,
          "name": "F#4",
          "ticks": 123076,
          "time": 181.41498553125004,
          "velocity": 0.41732283464566927
        },
        {
          "duration": 0.1297126875000174,
          "durationTicks": 88,
          "midi": 61,
          "name": "C#4",
          "ticks": 123164,
          "time": 181.54469821875,
          "velocity": 0.5196850393700787
        },
        {
          "duration": 0.12381665624999982,
          "durationTicks": 84,
          "midi": 64,
          "name": "E4",
          "ticks": 123164,
          "time": 181.54469821875,
          "velocity": 0.5039370078740157
        },
        {
          "duration": 0.8785086562499771,
          "durationTicks": 596,
          "midi": 63,
          "name": "D#4",
          "ticks": 123744,
          "time": 182.39962275000002,
          "velocity": 0.49606299212598426
        },
        {
          "duration": 0.6662515312499977,
          "durationTicks": 452,
          "midi": 66,
          "name": "F#4",
          "ticks": 123744,
          "time": 182.39962275000002,
          "velocity": 0.4881889763779528
        },
        {
          "duration": 0.8785086562499771,
          "durationTicks": 596,
          "midi": 59,
          "name": "B3",
          "ticks": 123748,
          "time": 182.40551878125004,
          "velocity": 0.4881889763779528
        },
        {
          "duration": 0.11792062499998224,
          "durationTicks": 80,
          "midi": 63,
          "name": "D#4",
          "ticks": 124512,
          "time": 183.53166075000001,
          "velocity": 0.4881889763779528
        },
        {
          "duration": 0.1474007812499849,
          "durationTicks": 100,
          "midi": 56,
          "name": "G#3",
          "ticks": 124516,
          "time": 183.53755678125003,
          "velocity": 0.4881889763779528
        },
        {
          "duration": 0.1474007812499849,
          "durationTicks": 100,
          "midi": 59,
          "name": "B3",
          "ticks": 124516,
          "time": 183.53755678125003,
          "velocity": 0.4881889763779528
        },
        {
          "duration": 0.21815315624999698,
          "durationTicks": 148,
          "midi": 61,
          "name": "C#4",
          "ticks": 124900,
          "time": 184.10357578125002,
          "velocity": 0.4881889763779528
        },
        {
          "duration": 0.20636109374999023,
          "durationTicks": 140,
          "midi": 64,
          "name": "E4",
          "ticks": 124900,
          "time": 184.10357578125002,
          "velocity": 0.4881889763779528
        },
        {
          "duration": 0.2358412499999929,
          "durationTicks": 160,
          "midi": 57,
          "name": "A3",
          "ticks": 124900,
          "time": 184.10357578125002,
          "velocity": 0.4881889763779528
        },
        {
          "duration": 1.1438300625000295,
          "durationTicks": 776,
          "midi": 57,
          "name": "A3",
          "ticks": 125084,
          "time": 184.37479321875,
          "velocity": 0.4881889763779528
        },
        {
          "duration": 1.120245937500016,
          "durationTicks": 760,
          "midi": 64,
          "name": "E4",
          "ticks": 125084,
          "time": 184.37479321875,
          "velocity": 0.4881889763779528
        },
        {
          "duration": 1.1143499062499984,
          "durationTicks": 756,
          "midi": 61,
          "name": "C#4",
          "ticks": 125084,
          "time": 184.37479321875,
          "velocity": 0.4881889763779528
        },
        {
          "duration": 0.129712687499989,
          "durationTicks": 88,
          "midi": 61,
          "name": "C#4",
          "ticks": 126136,
          "time": 185.92544943750002,
          "velocity": 0.28346456692913385
        },
        {
          "duration": 0.1709849062499984,
          "durationTicks": 116,
          "midi": 68,
          "name": "G#4",
          "ticks": 126232,
          "time": 186.06695418750002,
          "velocity": 0.3700787401574803
        },
        {
          "duration": 0.13560871875000657,
          "durationTicks": 92,
          "midi": 64,
          "name": "E4",
          "ticks": 126232,
          "time": 186.06695418750002,
          "velocity": 0.3543307086614173
        },
        {
          "duration": 0.129712687499989,
          "durationTicks": 88,
          "midi": 61,
          "name": "C#4",
          "ticks": 126232,
          "time": 186.06695418750002,
          "velocity": 0.3937007874015748
        },
        {
          "duration": 1.014117375000012,
          "durationTicks": 688,
          "midi": 63,
          "name": "D#4",
          "ticks": 126816,
          "time": 186.92777475000003,
          "velocity": 0.3779527559055118
        },
        {
          "duration": 0.8844046874999947,
          "durationTicks": 600,
          "midi": 66,
          "name": "F#4",
          "ticks": 126816,
          "time": 186.92777475000003,
          "velocity": 0.3858267716535433
        },
        {
          "duration": 0.9846372187500094,
          "durationTicks": 668,
          "midi": 59,
          "name": "B3",
          "ticks": 126820,
          "time": 186.93367078125002,
          "velocity": 0.41732283464566927
        },
        {
          "duration": 0.13560871874997815,
          "durationTicks": 92,
          "midi": 59,
          "name": "B3",
          "ticks": 127768,
          "time": 188.33103018750003,
          "velocity": 0.41732283464566927
        },
        {
          "duration": 0.16508887499998082,
          "durationTicks": 112,
          "midi": 63,
          "name": "D#4",
          "ticks": 127768,
          "time": 188.33103018750003,
          "velocity": 0.3937007874015748
        },
        {
          "duration": 0.1532968125000309,
          "durationTicks": 104,
          "midi": 56,
          "name": "G#3",
          "ticks": 127772,
          "time": 188.33692621875,
          "velocity": 0.4094488188976378
        },
        {
          "duration": 0.5424348749999979,
          "durationTicks": 368,
          "midi": 57,
          "name": "A3",
          "ticks": 128352,
          "time": 189.19185075000001,
          "velocity": 0.3779527559055118
        },
        {
          "duration": 0.6780435937500044,
          "durationTicks": 460,
          "midi": 61,
          "name": "C#4",
          "ticks": 128352,
          "time": 189.19185075000001,
          "velocity": 0.3858267716535433
        },
        {
          "duration": 0.5453828906249782,
          "durationTicks": 370,
          "midi": 52,
          "name": "E3",
          "ticks": 128356,
          "time": 189.19774678125003,
          "velocity": 0.33858267716535434
        },
        {
          "duration": 0.1709849062499984,
          "durationTicks": 116,
          "midi": 52,
          "name": "E3",
          "ticks": 128728,
          "time": 189.74607768750002,
          "velocity": 0.25984251968503935
        },
        {
          "duration": 0.14740078125001332,
          "durationTicks": 100,
          "midi": 57,
          "name": "A3",
          "ticks": 128738,
          "time": 189.760817765625,
          "velocity": 0.2283464566929134
        },
        {
          "duration": 0.129712687499989,
          "durationTicks": 88,
          "midi": 62,
          "name": "D4",
          "ticks": 128788,
          "time": 189.83451815625003,
          "velocity": 0.2677165354330709
        },
        {
          "duration": 0.13560871875000657,
          "durationTicks": 92,
          "midi": 53,
          "name": "F3",
          "ticks": 128792,
          "time": 189.84041418750002,
          "velocity": 0.2755905511811024
        },
        {
          "duration": 0.14740078125001332,
          "durationTicks": 100,
          "midi": 58,
          "name": "A#3",
          "ticks": 128798,
          "time": 189.84925823437501,
          "velocity": 0.2755905511811024
        },
        {
          "duration": 0.40977417187497167,
          "durationTicks": 278,
          "midi": 63,
          "name": "D#4",
          "ticks": 128836,
          "time": 189.90527053125004,
          "velocity": 0.29133858267716534
        },
        {
          "duration": 0.386190046875015,
          "durationTicks": 262,
          "midi": 54,
          "name": "F#3",
          "ticks": 128852,
          "time": 189.92885465625,
          "velocity": 0.2755905511811024
        },
        {
          "duration": 0.3065936250000334,
          "durationTicks": 208,
          "midi": 59,
          "name": "B3",
          "ticks": 128864,
          "time": 189.94654275,
          "velocity": 0.23622047244094488
        },
        {
          "duration": 0.12381665624999982,
          "durationTicks": 84,
          "midi": 63,
          "name": "D#4",
          "ticks": 129128,
          "time": 190.33568081250002,
          "velocity": 0.2677165354330709
        },
        {
          "duration": 0.129712687499989,
          "durationTicks": 88,
          "midi": 59,
          "name": "B3",
          "ticks": 129128,
          "time": 190.33568081250002,
          "velocity": 0.28346456692913385
        },
        {
          "duration": 0.129712687499989,
          "durationTicks": 88,
          "midi": 61,
          "name": "C#4",
          "ticks": 129304,
          "time": 190.59510618750002,
          "velocity": 0.28346456692913385
        },
        {
          "duration": 0.129712687499989,
          "durationTicks": 88,
          "midi": 64,
          "name": "E4",
          "ticks": 129304,
          "time": 190.59510618750002,
          "velocity": 0.4409448818897638
        },
        {
          "duration": 0.12381665624999982,
          "durationTicks": 84,
          "midi": 68,
          "name": "G#4",
          "ticks": 129304,
          "time": 190.59510618750002,
          "velocity": 0.4251968503937008
        },
        {
          "duration": 0.8785086562500055,
          "durationTicks": 596,
          "midi": 63,
          "name": "D#4",
          "ticks": 129888,
          "time": 191.45592675,
          "velocity": 0.41732283464566927
        },
        {
          "duration": 0.6662515312499977,
          "durationTicks": 452,
          "midi": 66,
          "name": "F#4",
          "ticks": 129888,
          "time": 191.45592675,
          "velocity": 0.4094488188976378
        },
        {
          "duration": 0.8785086562500055,
          "durationTicks": 596,
          "midi": 59,
          "name": "B3",
          "ticks": 129892,
          "time": 191.46182278125002,
          "velocity": 0.4094488188976378
        },
        {
          "duration": 0.3242817187500009,
          "durationTicks": 220,
          "midi": 63,
          "name": "D#4",
          "ticks": 130656,
          "time": 192.58796475000003,
          "velocity": 0.29133858267716534
        },
        {
          "duration": 0.35376187500000356,
          "durationTicks": 240,
          "midi": 56,
          "name": "G#3",
          "ticks": 130660,
          "time": 192.59386078125002,
          "velocity": 0.29133858267716534
        },
        {
          "duration": 0.35376187500000356,
          "durationTicks": 240,
          "midi": 59,
          "name": "B3",
          "ticks": 130660,
          "time": 192.59386078125002,
          "velocity": 0.29133858267716534
        },
        {
          "duration": 0.05896031249997691,
          "durationTicks": 40,
          "midi": 61,
          "name": "C#4",
          "ticks": 131044,
          "time": 193.15987978125003,
          "velocity": 0.13385826771653545
        },
        {
          "duration": 0.05896031249997691,
          "durationTicks": 40,
          "midi": 64,
          "name": "E4",
          "ticks": 131044,
          "time": 193.15987978125003,
          "velocity": 0.13385826771653545
        },
        {
          "duration": 0.05896031249997691,
          "durationTicks": 40,
          "midi": 57,
          "name": "A3",
          "ticks": 131044,
          "time": 193.15987978125003,
          "velocity": 0.13385826771653545
        },
        {
          "duration": 1.1438300625000295,
          "durationTicks": 776,
          "midi": 57,
          "name": "A3",
          "ticks": 131228,
          "time": 193.43109721875,
          "velocity": 0.29133858267716534
        },
        {
          "duration": 1.120245937500016,
          "durationTicks": 760,
          "midi": 64,
          "name": "E4",
          "ticks": 131228,
          "time": 193.43109721875,
          "velocity": 0.29133858267716534
        },
        {
          "duration": 1.1143499062499984,
          "durationTicks": 756,
          "midi": 61,
          "name": "C#4",
          "ticks": 131228,
          "time": 193.43109721875,
          "velocity": 0.29133858267716534
        },
        {
          "duration": 0.12971268749996057,
          "durationTicks": 88,
          "midi": 61,
          "name": "C#4",
          "ticks": 132280,
          "time": 194.98175343750003,
          "velocity": 0.28346456692913385
        },
        {
          "duration": 0.1709849062499984,
          "durationTicks": 116,
          "midi": 68,
          "name": "G#4",
          "ticks": 132376,
          "time": 195.12325818750003,
          "velocity": 0.3700787401574803
        },
        {
          "duration": 0.13560871874997815,
          "durationTicks": 92,
          "midi": 64,
          "name": "E4",
          "ticks": 132376,
          "time": 195.12325818750003,
          "velocity": 0.3543307086614173
        },
        {
          "duration": 0.129712687499989,
          "durationTicks": 88,
          "midi": 61,
          "name": "C#4",
          "ticks": 132376,
          "time": 195.12325818750003,
          "velocity": 0.3937007874015748
        },
        {
          "duration": 1.014117375000012,
          "durationTicks": 688,
          "midi": 63,
          "name": "D#4",
          "ticks": 132960,
          "time": 195.98407875,
          "velocity": 0.3779527559055118
        },
        {
          "duration": 0.8844046874999947,
          "durationTicks": 600,
          "midi": 66,
          "name": "F#4",
          "ticks": 132960,
          "time": 195.98407875,
          "velocity": 0.3858267716535433
        },
        {
          "duration": 0.984637218749981,
          "durationTicks": 668,
          "midi": 59,
          "name": "B3",
          "ticks": 132964,
          "time": 195.98997478125003,
          "velocity": 0.41732283464566927
        },
        {
          "duration": 0.13560871875000657,
          "durationTicks": 92,
          "midi": 59,
          "name": "B3",
          "ticks": 133912,
          "time": 197.38733418750002,
          "velocity": 0.41732283464566927
        },
        {
          "duration": 0.16508887499998082,
          "durationTicks": 112,
          "midi": 63,
          "name": "D#4",
          "ticks": 133912,
          "time": 197.38733418750002,
          "velocity": 0.3937007874015748
        },
        {
          "duration": 0.1532968125000309,
          "durationTicks": 104,
          "midi": 56,
          "name": "G#3",
          "ticks": 133916,
          "time": 197.39323021875,
          "velocity": 0.4094488188976378
        },
        {
          "duration": 0.5424348749999695,
          "durationTicks": 368,
          "midi": 57,
          "name": "A3",
          "ticks": 134496,
          "time": 198.24815475000003,
          "velocity": 0.3779527559055118
        },
        {
          "duration": 0.6780435937500044,
          "durationTicks": 460,
          "midi": 61,
          "name": "C#4",
          "ticks": 134496,
          "time": 198.24815475000003,
          "velocity": 0.3858267716535433
        },
        {
          "duration": 0.5453828906249782,
          "durationTicks": 370,
          "midi": 52,
          "name": "E3",
          "ticks": 134500,
          "time": 198.25405078125002,
          "velocity": 0.33858267716535434
        },
        {
          "duration": 0.1709849062499984,
          "durationTicks": 116,
          "midi": 52,
          "name": "E3",
          "ticks": 134872,
          "time": 198.80238168750003,
          "velocity": 0.25984251968503935
        },
        {
          "duration": 0.14740078125001332,
          "durationTicks": 100,
          "midi": 57,
          "name": "A3",
          "ticks": 134882,
          "time": 198.81712176562502,
          "velocity": 0.2283464566929134
        },
        {
          "duration": 0.12971268749996057,
          "durationTicks": 88,
          "midi": 62,
          "name": "D4",
          "ticks": 134932,
          "time": 198.89082215625004,
          "velocity": 0.2677165354330709
        },
        {
          "duration": 0.135608718750035,
          "durationTicks": 92,
          "midi": 53,
          "name": "F3",
          "ticks": 134936,
          "time": 198.8967181875,
          "velocity": 0.2755905511811024
        },
        {
          "duration": 0.14740078125001332,
          "durationTicks": 100,
          "midi": 58,
          "name": "A#3",
          "ticks": 134942,
          "time": 198.905562234375,
          "velocity": 0.2755905511811024
        },
        {
          "duration": 0.4097741718750001,
          "durationTicks": 278,
          "midi": 63,
          "name": "D#4",
          "ticks": 134980,
          "time": 198.96157453125002,
          "velocity": 0.29133858267716534
        },
        {
          "duration": 0.386190046875015,
          "durationTicks": 262,
          "midi": 54,
          "name": "F#3",
          "ticks": 134996,
          "time": 198.98515865625,
          "velocity": 0.2755905511811024
        },
        {
          "duration": 0.306593625000005,
          "durationTicks": 208,
          "midi": 59,
          "name": "B3",
          "ticks": 135008,
          "time": 199.00284675,
          "velocity": 0.23622047244094488
        },
        {
          "duration": 0.12381665624999982,
          "durationTicks": 84,
          "midi": 63,
          "name": "D#4",
          "ticks": 135272,
          "time": 199.3919848125,
          "velocity": 0.2677165354330709
        },
        {
          "duration": 0.1297126875000174,
          "durationTicks": 88,
          "midi": 59,
          "name": "B3",
          "ticks": 135272,
          "time": 199.3919848125,
          "velocity": 0.28346456692913385
        },
        {
          "duration": 0.12971268749996057,
          "durationTicks": 88,
          "midi": 61,
          "name": "C#4",
          "ticks": 135448,
          "time": 199.65141018750003,
          "velocity": 0.28346456692913385
        },
        {
          "duration": 0.12971268749996057,
          "durationTicks": 88,
          "midi": 64,
          "name": "E4",
          "ticks": 135448,
          "time": 199.65141018750003,
          "velocity": 0.4409448818897638
        },
        {
          "duration": 0.12381665624999982,
          "durationTicks": 84,
          "midi": 68,
          "name": "G#4",
          "ticks": 135448,
          "time": 199.65141018750003,
          "velocity": 0.4251968503937008
        },
        {
          "duration": 0.8785086562500055,
          "durationTicks": 596,
          "midi": 63,
          "name": "D#4",
          "ticks": 136032,
          "time": 200.51223075000001,
          "velocity": 0.41732283464566927
        },
        {
          "duration": 0.6662515312499977,
          "durationTicks": 452,
          "midi": 66,
          "name": "F#4",
          "ticks": 136032,
          "time": 200.51223075000001,
          "velocity": 0.4094488188976378
        },
        {
          "duration": 0.8785086562499771,
          "durationTicks": 596,
          "midi": 59,
          "name": "B3",
          "ticks": 136036,
          "time": 200.51812678125003,
          "velocity": 0.4094488188976378
        },
        {
          "duration": 0.3242817187500293,
          "durationTicks": 220,
          "midi": 63,
          "name": "D#4",
          "ticks": 136800,
          "time": 201.64426875,
          "velocity": 0.29133858267716534
        },
        {
          "duration": 0.35376187500000356,
          "durationTicks": 240,
          "midi": 56,
          "name": "G#3",
          "ticks": 136804,
          "time": 201.65016478125003,
          "velocity": 0.29133858267716534
        },
        {
          "duration": 0.35376187500000356,
          "durationTicks": 240,
          "midi": 59,
          "name": "B3",
          "ticks": 136804,
          "time": 201.65016478125003,
          "velocity": 0.29133858267716534
        },
        {
          "duration": 0.05896031249997691,
          "durationTicks": 40,
          "midi": 61,
          "name": "C#4",
          "ticks": 137188,
          "time": 202.21618378125004,
          "velocity": 0.13385826771653545
        },
        {
          "duration": 0.05896031249997691,
          "durationTicks": 40,
          "midi": 64,
          "name": "E4",
          "ticks": 137188,
          "time": 202.21618378125004,
          "velocity": 0.13385826771653545
        },
        {
          "duration": 0.05896031249997691,
          "durationTicks": 40,
          "midi": 57,
          "name": "A3",
          "ticks": 137188,
          "time": 202.21618378125004,
          "velocity": 0.13385826771653545
        },
        {
          "duration": 1.1438300625000295,
          "durationTicks": 776,
          "midi": 57,
          "name": "A3",
          "ticks": 137372,
          "time": 202.48740121875,
          "velocity": 0.29133858267716534
        },
        {
          "duration": 1.120245937500016,
          "durationTicks": 760,
          "midi": 64,
          "name": "E4",
          "ticks": 137372,
          "time": 202.48740121875,
          "velocity": 0.29133858267716534
        },
        {
          "duration": 1.1143499062500268,
          "durationTicks": 756,
          "midi": 61,
          "name": "C#4",
          "ticks": 137372,
          "time": 202.48740121875,
          "velocity": 0.29133858267716534
        },
        {
          "duration": 0.589603124999968,
          "durationTicks": 400,
          "midi": 66,
          "name": "F#4",
          "ticks": 138520,
          "time": 204.17956218750004,
          "velocity": 0.5118110236220472
        },
        {
          "duration": 0.6957316874999719,
          "durationTicks": 472,
          "midi": 62,
          "name": "D4",
          "ticks": 138520,
          "time": 204.17956218750004,
          "velocity": 0.5118110236220472
        },
        {
          "duration": 1.1497260937499902,
          "durationTicks": 780,
          "midi": 61,
          "name": "C#4",
          "ticks": 139104,
          "time": 205.04038275000002,
          "velocity": 0.5118110236220472
        },
        {
          "duration": 1.090765781249985,
          "durationTicks": 740,
          "midi": 64,
          "name": "E4",
          "ticks": 139104,
          "time": 205.04038275000002,
          "velocity": 0.5118110236220472
        },
        {
          "duration": 0.7370039062499814,
          "durationTicks": 500,
          "midi": 62,
          "name": "D4",
          "ticks": 140056,
          "time": 206.44363818750003,
          "velocity": 0.5118110236220472
        },
        {
          "duration": 0.6957316874999719,
          "durationTicks": 472,
          "midi": 59,
          "name": "B3",
          "ticks": 140056,
          "time": 206.44363818750003,
          "velocity": 0.5118110236220472
        },
        {
          "duration": 1.2204784687500023,
          "durationTicks": 828,
          "midi": 62,
          "name": "D4",
          "ticks": 140640,
          "time": 207.30445875,
          "velocity": 0.5118110236220472
        },
        {
          "duration": 1.2204784687500023,
          "durationTicks": 828,
          "midi": 57,
          "name": "A3",
          "ticks": 140640,
          "time": 207.30445875,
          "velocity": 0.5118110236220472
        },
        {
          "duration": 0.7605880312500233,
          "durationTicks": 516,
          "midi": 55,
          "name": "G3",
          "ticks": 141592,
          "time": 208.70771418750002,
          "velocity": 0.5118110236220472
        },
        {
          "duration": 0.7311078749999922,
          "durationTicks": 496,
          "midi": 60,
          "name": "C4",
          "ticks": 141592,
          "time": 208.70771418750002,
          "velocity": 0.5118110236220472
        },
        {
          "duration": 1.179206249999993,
          "durationTicks": 800,
          "midi": 59,
          "name": "B3",
          "ticks": 142176,
          "time": 209.56853475000003,
          "velocity": 0.5118110236220472
        },
        {
          "duration": 1.1261419687499767,
          "durationTicks": 764,
          "midi": 55,
          "name": "G3",
          "ticks": 142176,
          "time": 209.56853475000003,
          "velocity": 0.5118110236220472
        },
        {
          "duration": 1.7629133437499718,
          "durationTicks": 1196,
          "midi": 62,
          "name": "D4",
          "ticks": 143128,
          "time": 210.97179018750003,
          "velocity": 0.5118110236220472
        },
        {
          "duration": 1.7688093749999894,
          "durationTicks": 1200,
          "midi": 57,
          "name": "A3",
          "ticks": 143128,
          "time": 210.97179018750003,
          "velocity": 0.5118110236220472
        },
        {
          "duration": 0.5896031249999965,
          "durationTicks": 400,
          "midi": 66,
          "name": "F#4",
          "ticks": 144664,
          "time": 213.23586618750002,
          "velocity": 0.5118110236220472
        },
        {
          "duration": 0.6957316874999719,
          "durationTicks": 472,
          "midi": 62,
          "name": "D4",
          "ticks": 144664,
          "time": 213.23586618750002,
          "velocity": 0.5118110236220472
        },
        {
          "duration": 1.1497260937499902,
          "durationTicks": 780,
          "midi": 61,
          "name": "C#4",
          "ticks": 145248,
          "time": 214.09668675000003,
          "velocity": 0.5118110236220472
        },
        {
          "duration": 1.090765781249985,
          "durationTicks": 740,
          "midi": 64,
          "name": "E4",
          "ticks": 145248,
          "time": 214.09668675000003,
          "velocity": 0.5118110236220472
        },
        {
          "duration": 0.7370039062499814,
          "durationTicks": 500,
          "midi": 62,
          "name": "D4",
          "ticks": 146200,
          "time": 215.49994218750004,
          "velocity": 0.5118110236220472
        },
        {
          "duration": 0.6957316874999719,
          "durationTicks": 472,
          "midi": 59,
          "name": "B3",
          "ticks": 146200,
          "time": 215.49994218750004,
          "velocity": 0.5118110236220472
        },
        {
          "duration": 1.2204784687500023,
          "durationTicks": 828,
          "midi": 62,
          "name": "D4",
          "ticks": 146784,
          "time": 216.36076275000002,
          "velocity": 0.5118110236220472
        },
        {
          "duration": 1.2204784687500023,
          "durationTicks": 828,
          "midi": 57,
          "name": "A3",
          "ticks": 146784,
          "time": 216.36076275000002,
          "velocity": 0.5118110236220472
        },
        {
          "duration": 0.7605880312499949,
          "durationTicks": 516,
          "midi": 64,
          "name": "E4",
          "ticks": 147736,
          "time": 217.76401818750003,
          "velocity": 0.5118110236220472
        },
        {
          "duration": 0.7311078749999922,
          "durationTicks": 496,
          "midi": 60,
          "name": "C4",
          "ticks": 147736,
          "time": 217.76401818750003,
          "velocity": 0.5118110236220472
        },
        {
          "duration": 1.179206249999993,
          "durationTicks": 800,
          "midi": 62,
          "name": "D4",
          "ticks": 148320,
          "time": 218.62483875,
          "velocity": 0.5118110236220472
        },
        {
          "duration": 1.1261419687500052,
          "durationTicks": 764,
          "midi": 59,
          "name": "B3",
          "ticks": 148320,
          "time": 218.62483875,
          "velocity": 0.5118110236220472
        },
        {
          "duration": 1.7629133437500002,
          "durationTicks": 1196,
          "midi": 62,
          "name": "D4",
          "ticks": 149272,
          "time": 220.02809418750002,
          "velocity": 0.5118110236220472
        },
        {
          "duration": 1.7688093750000178,
          "durationTicks": 1200,
          "midi": 57,
          "name": "A3",
          "ticks": 149272,
          "time": 220.02809418750002,
          "velocity": 0.5118110236220472
        },
        {
          "duration": 0.589603124999968,
          "durationTicks": 400,
          "midi": 66,
          "name": "F#4",
          "ticks": 150808,
          "time": 222.29217018750003,
          "velocity": 0.5118110236220472
        },
        {
          "duration": 0.6957316874999719,
          "durationTicks": 472,
          "midi": 62,
          "name": "D4",
          "ticks": 150808,
          "time": 222.29217018750003,
          "velocity": 0.5118110236220472
        },
        {
          "duration": 1.1497260937500187,
          "durationTicks": 780,
          "midi": 61,
          "name": "C#4",
          "ticks": 151392,
          "time": 223.15299075000001,
          "velocity": 0.5118110236220472
        },
        {
          "duration": 1.090765781249985,
          "durationTicks": 740,
          "midi": 64,
          "name": "E4",
          "ticks": 151392,
          "time": 223.15299075000001,
          "velocity": 0.5118110236220472
        },
        {
          "duration": 0.7370039062500098,
          "durationTicks": 500,
          "midi": 62,
          "name": "D4",
          "ticks": 152344,
          "time": 224.55624618750002,
          "velocity": 0.5118110236220472
        },
        {
          "duration": 0.6957316875000004,
          "durationTicks": 472,
          "midi": 59,
          "name": "B3",
          "ticks": 152344,
          "time": 224.55624618750002,
          "velocity": 0.5118110236220472
        },
        {
          "duration": 1.220478468749974,
          "durationTicks": 828,
          "midi": 62,
          "name": "D4",
          "ticks": 152928,
          "time": 225.41706675000003,
          "velocity": 0.5118110236220472
        },
        {
          "duration": 1.220478468749974,
          "durationTicks": 828,
          "midi": 57,
          "name": "A3",
          "ticks": 152928,
          "time": 225.41706675000003,
          "velocity": 0.5118110236220472
        },
        {
          "duration": 0.7605880312499949,
          "durationTicks": 516,
          "midi": 55,
          "name": "G3",
          "ticks": 153880,
          "time": 226.82032218750004,
          "velocity": 0.5118110236220472
        },
        {
          "duration": 0.7311078749999638,
          "durationTicks": 496,
          "midi": 60,
          "name": "C4",
          "ticks": 153880,
          "time": 226.82032218750004,
          "velocity": 0.5118110236220472
        },
        {
          "duration": 1.179206249999993,
          "durationTicks": 800,
          "midi": 59,
          "name": "B3",
          "ticks": 154464,
          "time": 227.68114275000002,
          "velocity": 0.5118110236220472
        },
        {
          "duration": 1.1261419687499767,
          "durationTicks": 764,
          "midi": 55,
          "name": "G3",
          "ticks": 154464,
          "time": 227.68114275000002,
          "velocity": 0.5118110236220472
        },
        {
          "duration": 1.7629133437500002,
          "durationTicks": 1196,
          "midi": 62,
          "name": "D4",
          "ticks": 155416,
          "time": 229.08439818750003,
          "velocity": 0.5118110236220472
        },
        {
          "duration": 1.7688093749999894,
          "durationTicks": 1200,
          "midi": 57,
          "name": "A3",
          "ticks": 155416,
          "time": 229.08439818750003,
          "velocity": 0.5118110236220472
        },
        {
          "duration": 0.589603124999968,
          "durationTicks": 400,
          "midi": 66,
          "name": "F#4",
          "ticks": 156952,
          "time": 231.34847418750005,
          "velocity": 0.5118110236220472
        },
        {
          "duration": 0.6957316874999719,
          "durationTicks": 472,
          "midi": 62,
          "name": "D4",
          "ticks": 156952,
          "time": 231.34847418750005,
          "velocity": 0.5118110236220472
        },
        {
          "duration": 1.1497260937499902,
          "durationTicks": 780,
          "midi": 61,
          "name": "C#4",
          "ticks": 157536,
          "time": 232.20929475000003,
          "velocity": 0.5118110236220472
        },
        {
          "duration": 1.090765781249985,
          "durationTicks": 740,
          "midi": 64,
          "name": "E4",
          "ticks": 157536,
          "time": 232.20929475000003,
          "velocity": 0.5118110236220472
        },
        {
          "duration": 0.7370039062499814,
          "durationTicks": 500,
          "midi": 62,
          "name": "D4",
          "ticks": 158488,
          "time": 233.61255018750003,
          "velocity": 0.5118110236220472
        },
        {
          "duration": 0.6957316874999719,
          "durationTicks": 472,
          "midi": 59,
          "name": "B3",
          "ticks": 158488,
          "time": 233.61255018750003,
          "velocity": 0.5118110236220472
        },
        {
          "duration": 1.2204784687500023,
          "durationTicks": 828,
          "midi": 62,
          "name": "D4",
          "ticks": 159072,
          "time": 234.47337075000002,
          "velocity": 0.5118110236220472
        },
        {
          "duration": 1.2204784687500023,
          "durationTicks": 828,
          "midi": 57,
          "name": "A3",
          "ticks": 159072,
          "time": 234.47337075000002,
          "velocity": 0.5118110236220472
        },
        {
          "duration": 0.7605880312499949,
          "durationTicks": 516,
          "midi": 64,
          "name": "E4",
          "ticks": 160024,
          "time": 235.87662618750002,
          "velocity": 0.5118110236220472
        },
        {
          "duration": 0.7311078749999922,
          "durationTicks": 496,
          "midi": 60,
          "name": "C4",
          "ticks": 160024,
          "time": 235.87662618750002,
          "velocity": 0.5118110236220472
        },
        {
          "duration": 1.1792062499999645,
          "durationTicks": 800,
          "midi": 62,
          "name": "D4",
          "ticks": 160608,
          "time": 236.73744675000003,
          "velocity": 0.5118110236220472
        },
        {
          "duration": 1.1261419687499767,
          "durationTicks": 764,
          "midi": 59,
          "name": "B3",
          "ticks": 160608,
          "time": 236.73744675000003,
          "velocity": 0.5118110236220472
        },
        {
          "duration": 1.7629133437499718,
          "durationTicks": 1196,
          "midi": 62,
          "name": "D4",
          "ticks": 161560,
          "time": 238.14070218750004,
          "velocity": 0.5118110236220472
        },
        {
          "duration": 1.7688093749999894,
          "durationTicks": 1200,
          "midi": 57,
          "name": "A3",
          "ticks": 161560,
          "time": 238.14070218750004,
          "velocity": 0.5118110236220472
        }
      ],
      "endOfTrackTicks": 162816
    },
    {
      "channel": 10,
      "controlChanges": {},
      "pitchBends": [],
      "instrument": {
        "family": "piano",
        "number": 0,
        "name": "acoustic grand piano"
      },
      "name": "#Funk Gtr",
      "notes": [
        {
          "duration": 0.14150475000000018,
          "durationTicks": 96,
          "midi": 66,
          "name": "F#4",
          "ticks": 3616,
          "time": 5.33001225,
          "velocity": 0.31496062992125984
        },
        {
          "duration": 0.09433650000000071,
          "durationTicks": 64,
          "midi": 62,
          "name": "D4",
          "ticks": 3616,
          "time": 5.33001225,
          "velocity": 0.4015748031496063
        },
        {
          "duration": 0.08844046875,
          "durationTicks": 60,
          "midi": 59,
          "name": "B3",
          "ticks": 3616,
          "time": 5.33001225,
          "velocity": 0.4015748031496063
        },
        {
          "duration": 1.0966618124999998,
          "durationTicks": 744,
          "midi": 64,
          "name": "E4",
          "ticks": 4200,
          "time": 6.190832812500001,
          "velocity": 0.33858267716535434
        },
        {
          "duration": 1.1320379999999997,
          "durationTicks": 768,
          "midi": 61,
          "name": "C#4",
          "ticks": 4200,
          "time": 6.190832812500001,
          "velocity": 0.4015748031496063
        },
        {
          "duration": 1.0848697499999993,
          "durationTicks": 736,
          "midi": 57,
          "name": "A3",
          "ticks": 4200,
          "time": 6.190832812500001,
          "velocity": 0.4015748031496063
        },
        {
          "duration": 0.14150475000000018,
          "durationTicks": 96,
          "midi": 59,
          "name": "B3",
          "ticks": 5156,
          "time": 7.599984281250001,
          "velocity": 0.3700787401574803
        },
        {
          "duration": 0.11202459374999929,
          "durationTicks": 76,
          "midi": 62,
          "name": "D4",
          "ticks": 5156,
          "time": 7.599984281250001,
          "velocity": 0.3937007874015748
        },
        {
          "duration": 0.16508887499999947,
          "durationTicks": 112,
          "midi": 66,
          "name": "F#4",
          "ticks": 5156,
          "time": 7.599984281250001,
          "velocity": 0.31496062992125984
        },
        {
          "duration": 0.5954991562499998,
          "durationTicks": 404,
          "midi": 64,
          "name": "E4",
          "ticks": 5736,
          "time": 8.454908812500001,
          "velocity": 0.31496062992125984
        },
        {
          "duration": 0.5954991562499998,
          "durationTicks": 404,
          "midi": 61,
          "name": "C#4",
          "ticks": 5736,
          "time": 8.454908812500001,
          "velocity": 0.3700787401574803
        },
        {
          "duration": 0.6485634374999982,
          "durationTicks": 440,
          "midi": 57,
          "name": "A3",
          "ticks": 5736,
          "time": 8.454908812500001,
          "velocity": 0.3937007874015748
        },
        {
          "duration": 0.6485634375,
          "durationTicks": 440,
          "midi": 69,
          "name": "A4",
          "ticks": 6120,
          "time": 9.0209278125,
          "velocity": 0.4881889763779528
        },
        {
          "duration": 0.3478658437500002,
          "durationTicks": 236,
          "midi": 64,
          "name": "E4",
          "ticks": 6304,
          "time": 9.29214525,
          "velocity": 0.3779527559055118
        },
        {
          "duration": 0.1415047499999993,
          "durationTicks": 96,
          "midi": 61,
          "name": "C#4",
          "ticks": 6504,
          "time": 9.5869468125,
          "velocity": 0.4015748031496063
        },
        {
          "duration": 0.07664840625000124,
          "durationTicks": 52,
          "midi": 62,
          "name": "D4",
          "ticks": 6692,
          "time": 9.86406028125,
          "velocity": 0.4094488188976378
        },
        {
          "duration": 0.07075237500000142,
          "durationTicks": 48,
          "midi": 66,
          "name": "F#4",
          "ticks": 6692,
          "time": 9.86406028125,
          "velocity": 0.29133858267716534
        },
        {
          "duration": 0.07075237500000142,
          "durationTicks": 48,
          "midi": 59,
          "name": "B3",
          "ticks": 6692,
          "time": 9.86406028125,
          "velocity": 0.4094488188976378
        },
        {
          "duration": 1.0789737187500013,
          "durationTicks": 732,
          "midi": 64,
          "name": "E4",
          "ticks": 7272,
          "time": 10.7189848125,
          "velocity": 0.31496062992125984
        },
        {
          "duration": 1.084869750000001,
          "durationTicks": 736,
          "midi": 61,
          "name": "C#4",
          "ticks": 7272,
          "time": 10.7189848125,
          "velocity": 0.4094488188976378
        },
        {
          "duration": 1.061285625,
          "durationTicks": 720,
          "midi": 57,
          "name": "A3",
          "ticks": 7272,
          "time": 10.7189848125,
          "velocity": 0.4094488188976378
        },
        {
          "duration": 0.12381665624999982,
          "durationTicks": 84,
          "midi": 66,
          "name": "F#4",
          "ticks": 8228,
          "time": 12.12813628125,
          "velocity": 0.31496062992125984
        },
        {
          "duration": 0.09433650000000071,
          "durationTicks": 64,
          "midi": 62,
          "name": "D4",
          "ticks": 8228,
          "time": 12.12813628125,
          "velocity": 0.4094488188976378
        },
        {
          "duration": 0.08844046874999911,
          "durationTicks": 60,
          "midi": 59,
          "name": "B3",
          "ticks": 8228,
          "time": 12.12813628125,
          "velocity": 0.4094488188976378
        },
        {
          "duration": 0.589603125,
          "durationTicks": 400,
          "midi": 64,
          "name": "E4",
          "ticks": 8808,
          "time": 12.983060812500002,
          "velocity": 0.30708661417322836
        },
        {
          "duration": 0.6131872499999993,
          "durationTicks": 416,
          "midi": 61,
          "name": "C#4",
          "ticks": 8808,
          "time": 12.983060812500002,
          "velocity": 0.4094488188976378
        },
        {
          "duration": 0.6426674062500002,
          "durationTicks": 436,
          "midi": 57,
          "name": "A3",
          "ticks": 8808,
          "time": 12.983060812500002,
          "velocity": 0.4094488188976378
        },
        {
          "duration": 0.5719150312500023,
          "durationTicks": 388,
          "midi": 69,
          "name": "A4",
          "ticks": 9192,
          "time": 13.5490798125,
          "velocity": 0.4645669291338583
        },
        {
          "duration": 0.31248965624999947,
          "durationTicks": 212,
          "midi": 64,
          "name": "E4",
          "ticks": 9376,
          "time": 13.820297250000001,
          "velocity": 0.4015748031496063
        },
        {
          "duration": 0.1415047499999993,
          "durationTicks": 96,
          "midi": 61,
          "name": "C#4",
          "ticks": 9576,
          "time": 14.115098812500001,
          "velocity": 0.3228346456692913
        },
        {
          "duration": 0.15329681249997407,
          "durationTicks": 104,
          "midi": 64,
          "name": "E4",
          "ticks": 108064,
          "time": 159.28718025000003,
          "velocity": 0.4566929133858268
        },
        {
          "duration": 0.15919284374999165,
          "durationTicks": 108,
          "midi": 73,
          "name": "C#5",
          "ticks": 108064,
          "time": 159.28718025000003,
          "velocity": 0.4566929133858268
        },
        {
          "duration": 0.16508887499998082,
          "durationTicks": 112,
          "midi": 68,
          "name": "G#4",
          "ticks": 108064,
          "time": 159.28718025000003,
          "velocity": 0.4566929133858268
        },
        {
          "duration": 0.9138848437499973,
          "durationTicks": 620,
          "midi": 71,
          "name": "B4",
          "ticks": 108648,
          "time": 160.14800081250002,
          "velocity": 0.4566929133858268
        },
        {
          "duration": 1.0966618125000025,
          "durationTicks": 744,
          "midi": 66,
          "name": "F#4",
          "ticks": 108648,
          "time": 160.14800081250002,
          "velocity": 0.4566929133858268
        },
        {
          "duration": 1.0671816562499998,
          "durationTicks": 724,
          "midi": 63,
          "name": "D#4",
          "ticks": 108648,
          "time": 160.14800081250002,
          "velocity": 0.4566929133858268
        },
        {
          "duration": 0.10612856250000391,
          "durationTicks": 72,
          "midi": 68,
          "name": "G#4",
          "ticks": 109600,
          "time": 161.55125625000002,
          "velocity": 0.4566929133858268
        },
        {
          "duration": 0.11202459374999307,
          "durationTicks": 76,
          "midi": 73,
          "name": "C#5",
          "ticks": 109600,
          "time": 161.55125625000002,
          "velocity": 0.4566929133858268
        },
        {
          "duration": 0.08254443749999041,
          "durationTicks": 56,
          "midi": 64,
          "name": "E4",
          "ticks": 109600,
          "time": 161.55125625000002,
          "velocity": 0.4566929133858268
        },
        {
          "duration": 0.43630631249999396,
          "durationTicks": 296,
          "midi": 71,
          "name": "B4",
          "ticks": 110184,
          "time": 162.4120768125,
          "velocity": 0.4566929133858268
        },
        {
          "duration": 0.5424348749999979,
          "durationTicks": 368,
          "midi": 66,
          "name": "F#4",
          "ticks": 110184,
          "time": 162.4120768125,
          "velocity": 0.4566929133858268
        },
        {
          "duration": 0.6190832812499991,
          "durationTicks": 420,
          "midi": 63,
          "name": "D#4",
          "ticks": 110184,
          "time": 162.4120768125,
          "velocity": 0.4566929133858268
        },
        {
          "duration": 0.5837070937500073,
          "durationTicks": 396,
          "midi": 71,
          "name": "B4",
          "ticks": 110568,
          "time": 162.97809581250002,
          "velocity": 0.4566929133858268
        },
        {
          "duration": 0.33017774999999006,
          "durationTicks": 224,
          "midi": 66,
          "name": "F#4",
          "ticks": 110752,
          "time": 163.24931325000003,
          "velocity": 0.4566929133858268
        },
        {
          "duration": 0.20636109374999023,
          "durationTicks": 140,
          "midi": 63,
          "name": "D#4",
          "ticks": 110952,
          "time": 163.54411481250003,
          "velocity": 0.4566929133858268
        },
        {
          "duration": 0.11202459374999307,
          "durationTicks": 76,
          "midi": 68,
          "name": "G#4",
          "ticks": 111136,
          "time": 163.81533225,
          "velocity": 0.44881889763779526
        },
        {
          "duration": 0.088440468750008,
          "durationTicks": 60,
          "midi": 73,
          "name": "C#5",
          "ticks": 111136,
          "time": 163.81533225,
          "velocity": 0.44881889763779526
        },
        {
          "duration": 0.07075237500001208,
          "durationTicks": 48,
          "midi": 64,
          "name": "E4",
          "ticks": 111136,
          "time": 163.81533225,
          "velocity": 0.44881889763779526
        },
        {
          "duration": 0.896196749999973,
          "durationTicks": 608,
          "midi": 71,
          "name": "B4",
          "ticks": 111720,
          "time": 164.67615281250002,
          "velocity": 0.44881889763779526
        },
        {
          "duration": 1.120245937500016,
          "durationTicks": 760,
          "midi": 66,
          "name": "F#4",
          "ticks": 111720,
          "time": 164.67615281250002,
          "velocity": 0.44881889763779526
        },
        {
          "duration": 1.0966618125000025,
          "durationTicks": 744,
          "midi": 63,
          "name": "D#4",
          "ticks": 111720,
          "time": 164.67615281250002,
          "velocity": 0.44881889763779526
        },
        {
          "duration": 0.12381665624999982,
          "durationTicks": 84,
          "midi": 73,
          "name": "C#5",
          "ticks": 112672,
          "time": 166.07940825000003,
          "velocity": 0.44881889763779526
        },
        {
          "duration": 0.10612856249997549,
          "durationTicks": 72,
          "midi": 64,
          "name": "E4",
          "ticks": 112676,
          "time": 166.08530428125002,
          "velocity": 0.44881889763779526
        },
        {
          "duration": 0.12381665624999982,
          "durationTicks": 84,
          "midi": 68,
          "name": "G#4",
          "ticks": 112676,
          "time": 166.08530428125002,
          "velocity": 0.44881889763779526
        },
        {
          "duration": 0.4893705937499817,
          "durationTicks": 332,
          "midi": 71,
          "name": "B4",
          "ticks": 113256,
          "time": 166.9402288125,
          "velocity": 0.44881889763779526
        },
        {
          "duration": 0.6721475625000153,
          "durationTicks": 456,
          "midi": 66,
          "name": "F#4",
          "ticks": 113256,
          "time": 166.9402288125,
          "velocity": 0.44881889763779526
        },
        {
          "duration": 0.5896031250000249,
          "durationTicks": 400,
          "midi": 63,
          "name": "D#4",
          "ticks": 113256,
          "time": 166.9402288125,
          "velocity": 0.44881889763779526
        },
        {
          "duration": 0.34786584374998597,
          "durationTicks": 236,
          "midi": 71,
          "name": "B4",
          "ticks": 113644,
          "time": 167.51214384375004,
          "velocity": 0.44881889763779526
        }
      ],
      "endOfTrackTicks": 115200
    },
    {
      "channel": 11,
      "controlChanges": {},
      "pitchBends": [],
      "instrument": {
        "family": "piano",
        "number": 0,
        "name": "acoustic grand piano"
      },
      "name": "Overdr.Gt",
      "notes": [
        {
          "duration": 0.29185354687500364,
          "durationTicks": 198,
          "midi": 57,
          "name": "A3",
          "ticks": 70656,
          "time": 104.147496,
          "velocity": 0.5433070866141733
        },
        {
          "duration": 0.8578725468750008,
          "durationTicks": 582,
          "midi": 54,
          "name": "F#3",
          "ticks": 70660,
          "time": 104.15339203125001,
          "velocity": 0.47244094488188976
        },
        {
          "duration": 0.29185354687500364,
          "durationTicks": 198,
          "midi": 59,
          "name": "B3",
          "ticks": 70838,
          "time": 104.41576542187501,
          "velocity": 0.4330708661417323
        },
        {
          "duration": 1.423891546874998,
          "durationTicks": 966,
          "midi": 57,
          "name": "A3",
          "ticks": 71232,
          "time": 104.9965245,
          "velocity": 0.5433070866141733
        },
        {
          "duration": 1.379671312499994,
          "durationTicks": 936,
          "midi": 52,
          "name": "E3",
          "ticks": 71236,
          "time": 105.00242053125001,
          "velocity": 0.47244094488188976
        },
        {
          "duration": 0.8637685781250042,
          "durationTicks": 586,
          "midi": 49,
          "name": "C#3",
          "ticks": 72170,
          "time": 106.37914382812501,
          "velocity": 0.4409448818897638
        },
        {
          "duration": 0.8814566718749859,
          "durationTicks": 598,
          "midi": 54,
          "name": "F#3",
          "ticks": 72176,
          "time": 106.38798787500002,
          "velocity": 0.47244094488188976
        },
        {
          "duration": 1.4415796406249939,
          "durationTicks": 978,
          "midi": 50,
          "name": "D3",
          "ticks": 72748,
          "time": 107.23112034375,
          "velocity": 0.47244094488188976
        },
        {
          "duration": 1.4386316249999993,
          "durationTicks": 976,
          "midi": 55,
          "name": "G3",
          "ticks": 72768,
          "time": 107.26060050000001,
          "velocity": 0.5433070866141733
        },
        {
          "duration": 0.29185354687500364,
          "durationTicks": 198,
          "midi": 57,
          "name": "A3",
          "ticks": 73728,
          "time": 108.67564800000001,
          "velocity": 0.5433070866141733
        },
        {
          "duration": 0.8578725468750008,
          "durationTicks": 582,
          "midi": 54,
          "name": "F#3",
          "ticks": 73732,
          "time": 108.68154403125,
          "velocity": 0.47244094488188976
        },
        {
          "duration": 0.29185354687500364,
          "durationTicks": 198,
          "midi": 59,
          "name": "B3",
          "ticks": 73910,
          "time": 108.94391742187501,
          "velocity": 0.4330708661417323
        },
        {
          "duration": 1.423891546874998,
          "durationTicks": 966,
          "midi": 57,
          "name": "A3",
          "ticks": 74304,
          "time": 109.52467650000001,
          "velocity": 0.5433070866141733
        },
        {
          "duration": 1.3796713125000082,
          "durationTicks": 936,
          "midi": 52,
          "name": "E3",
          "ticks": 74308,
          "time": 109.53057253125,
          "velocity": 0.47244094488188976
        },
        {
          "duration": 0.86376857812499,
          "durationTicks": 586,
          "midi": 49,
          "name": "C#3",
          "ticks": 75242,
          "time": 110.90729582812502,
          "velocity": 0.4409448818897638
        },
        {
          "duration": 0.8814566718750001,
          "durationTicks": 598,
          "midi": 54,
          "name": "F#3",
          "ticks": 75248,
          "time": 110.91613987500001,
          "velocity": 0.47244094488188976
        },
        {
          "duration": 1.441579640625008,
          "durationTicks": 978,
          "midi": 50,
          "name": "D3",
          "ticks": 75820,
          "time": 111.75927234375,
          "velocity": 0.47244094488188976
        },
        {
          "duration": 1.438631624999985,
          "durationTicks": 976,
          "midi": 55,
          "name": "G3",
          "ticks": 75840,
          "time": 111.78875250000002,
          "velocity": 0.5433070866141733
        },
        {
          "duration": 0.8519765156249974,
          "durationTicks": 578,
          "midi": 59,
          "name": "B3",
          "ticks": 76800,
          "time": 113.20380000000002,
          "velocity": 0.5433070866141733
        },
        {
          "duration": 0.8578725468750008,
          "durationTicks": 582,
          "midi": 54,
          "name": "F#3",
          "ticks": 76804,
          "time": 113.20969603125,
          "velocity": 0.47244094488188976
        },
        {
          "duration": 1.4238915468750122,
          "durationTicks": 966,
          "midi": 57,
          "name": "A3",
          "ticks": 77376,
          "time": 114.0528285,
          "velocity": 0.5433070866141733
        },
        {
          "duration": 1.379671312499994,
          "durationTicks": 936,
          "midi": 52,
          "name": "E3",
          "ticks": 77380,
          "time": 114.05872453125001,
          "velocity": 0.47244094488188976
        },
        {
          "duration": 0.86376857812499,
          "durationTicks": 586,
          "midi": 49,
          "name": "C#3",
          "ticks": 78314,
          "time": 115.43544782812502,
          "velocity": 0.4409448818897638
        },
        {
          "duration": 0.8814566718749859,
          "durationTicks": 598,
          "midi": 54,
          "name": "F#3",
          "ticks": 78320,
          "time": 115.44429187500002,
          "velocity": 0.47244094488188976
        },
        {
          "duration": 1.4415796406249939,
          "durationTicks": 978,
          "midi": 50,
          "name": "D3",
          "ticks": 78892,
          "time": 116.28742434375,
          "velocity": 0.47244094488188976
        },
        {
          "duration": 1.4386316249999993,
          "durationTicks": 976,
          "midi": 55,
          "name": "G3",
          "ticks": 78912,
          "time": 116.3169045,
          "velocity": 0.5433070866141733
        },
        {
          "duration": 0.8519765156250116,
          "durationTicks": 578,
          "midi": 59,
          "name": "B3",
          "ticks": 79872,
          "time": 117.731952,
          "velocity": 0.5433070866141733
        },
        {
          "duration": 0.8578725468750008,
          "durationTicks": 582,
          "midi": 54,
          "name": "F#3",
          "ticks": 79876,
          "time": 117.73784803125001,
          "velocity": 0.47244094488188976
        },
        {
          "duration": 1.423891546874998,
          "durationTicks": 966,
          "midi": 57,
          "name": "A3",
          "ticks": 80448,
          "time": 118.58098050000001,
          "velocity": 0.5433070866141733
        },
        {
          "duration": 1.3796713125000082,
          "durationTicks": 936,
          "midi": 52,
          "name": "E3",
          "ticks": 80452,
          "time": 118.58687653125,
          "velocity": 0.47244094488188976
        },
        {
          "duration": 0.8637685781250042,
          "durationTicks": 586,
          "midi": 49,
          "name": "C#3",
          "ticks": 81386,
          "time": 119.96359982812501,
          "velocity": 0.4409448818897638
        },
        {
          "duration": 0.8814566718750001,
          "durationTicks": 598,
          "midi": 54,
          "name": "F#3",
          "ticks": 81392,
          "time": 119.97244387500001,
          "velocity": 0.47244094488188976
        },
        {
          "duration": 1.4415796406249939,
          "durationTicks": 978,
          "midi": 50,
          "name": "D3",
          "ticks": 81964,
          "time": 120.81557634375001,
          "velocity": 0.47244094488188976
        },
        {
          "duration": 1.4386316249999993,
          "durationTicks": 976,
          "midi": 55,
          "name": "G3",
          "ticks": 81984,
          "time": 120.84505650000001,
          "velocity": 0.5433070866141733
        },
        {
          "duration": 0.8519765156249974,
          "durationTicks": 578,
          "midi": 59,
          "name": "B3",
          "ticks": 82944,
          "time": 122.26010400000001,
          "velocity": 0.5433070866141733
        },
        {
          "duration": 0.8578725468750008,
          "durationTicks": 582,
          "midi": 54,
          "name": "F#3",
          "ticks": 82948,
          "time": 122.26600003125,
          "velocity": 0.47244094488188976
        },
        {
          "duration": 1.423891546874998,
          "durationTicks": 966,
          "midi": 57,
          "name": "A3",
          "ticks": 83520,
          "time": 123.10913250000002,
          "velocity": 0.5433070866141733
        },
        {
          "duration": 1.379671312499994,
          "durationTicks": 936,
          "midi": 52,
          "name": "E3",
          "ticks": 83524,
          "time": 123.11502853125,
          "velocity": 0.47244094488188976
        },
        {
          "duration": 0.86376857812499,
          "durationTicks": 586,
          "midi": 49,
          "name": "C#3",
          "ticks": 84458,
          "time": 124.49175182812502,
          "velocity": 0.4409448818897638
        },
        {
          "duration": 0.8814566718750001,
          "durationTicks": 598,
          "midi": 54,
          "name": "F#3",
          "ticks": 84464,
          "time": 124.50059587500002,
          "velocity": 0.47244094488188976
        },
        {
          "duration": 1.441579640625008,
          "durationTicks": 978,
          "midi": 50,
          "name": "D3",
          "ticks": 85036,
          "time": 125.34372834375,
          "velocity": 0.47244094488188976
        },
        {
          "duration": 1.4386316249999993,
          "durationTicks": 976,
          "midi": 55,
          "name": "G3",
          "ticks": 85056,
          "time": 125.3732085,
          "velocity": 0.5433070866141733
        },
        {
          "duration": 0.8519765156249974,
          "durationTicks": 578,
          "midi": 59,
          "name": "B3",
          "ticks": 86016,
          "time": 126.78825600000002,
          "velocity": 0.5433070866141733
        },
        {
          "duration": 0.8578725468750008,
          "durationTicks": 582,
          "midi": 54,
          "name": "F#3",
          "ticks": 86020,
          "time": 126.79415203125001,
          "velocity": 0.47244094488188976
        },
        {
          "duration": 1.423891546874998,
          "durationTicks": 966,
          "midi": 57,
          "name": "A3",
          "ticks": 86592,
          "time": 127.6372845,
          "velocity": 0.5433070866141733
        },
        {
          "duration": 1.379671312499994,
          "durationTicks": 936,
          "midi": 52,
          "name": "E3",
          "ticks": 86596,
          "time": 127.64318053125001,
          "velocity": 0.47244094488188976
        },
        {
          "duration": 0.86376857812499,
          "durationTicks": 586,
          "midi": 49,
          "name": "C#3",
          "ticks": 87530,
          "time": 129.01990382812502,
          "velocity": 0.4409448818897638
        },
        {
          "duration": 0.8814566718749859,
          "durationTicks": 598,
          "midi": 54,
          "name": "F#3",
          "ticks": 87536,
          "time": 129.02874787500002,
          "velocity": 0.47244094488188976
        },
        {
          "duration": 1.441579640625008,
          "durationTicks": 978,
          "midi": 50,
          "name": "D3",
          "ticks": 88108,
          "time": 129.87188034375,
          "velocity": 0.47244094488188976
        },
        {
          "duration": 1.4386316249999993,
          "durationTicks": 976,
          "midi": 55,
          "name": "G3",
          "ticks": 88128,
          "time": 129.9013605,
          "velocity": 0.5433070866141733
        },
        {
          "duration": 0.8519765156249832,
          "durationTicks": 578,
          "midi": 59,
          "name": "B3",
          "ticks": 89088,
          "time": 131.31640800000002,
          "velocity": 0.5433070866141733
        },
        {
          "duration": 0.8578725468750008,
          "durationTicks": 582,
          "midi": 54,
          "name": "F#3",
          "ticks": 89092,
          "time": 131.32230403125,
          "velocity": 0.47244094488188976
        },
        {
          "duration": 1.4238915468750122,
          "durationTicks": 966,
          "midi": 57,
          "name": "A3",
          "ticks": 89664,
          "time": 132.1654365,
          "velocity": 0.5433070866141733
        },
        {
          "duration": 1.379671312499994,
          "durationTicks": 936,
          "midi": 52,
          "name": "E3",
          "ticks": 89668,
          "time": 132.17133253125002,
          "velocity": 0.47244094488188976
        },
        {
          "duration": 0.86376857812499,
          "durationTicks": 586,
          "midi": 49,
          "name": "C#3",
          "ticks": 90602,
          "time": 133.54805582812503,
          "velocity": 0.4409448818897638
        },
        {
          "duration": 0.8814566718749859,
          "durationTicks": 598,
          "midi": 54,
          "name": "F#3",
          "ticks": 90608,
          "time": 133.55689987500003,
          "velocity": 0.47244094488188976
        },
        {
          "duration": 1.4415796406249797,
          "durationTicks": 978,
          "midi": 50,
          "name": "D3",
          "ticks": 91180,
          "time": 134.40003234375,
          "velocity": 0.47244094488188976
        },
        {
          "duration": 1.4386316249999993,
          "durationTicks": 976,
          "midi": 55,
          "name": "G3",
          "ticks": 91200,
          "time": 134.42951250000002,
          "velocity": 0.5433070866141733
        },
        {
          "duration": 0.8519765156250116,
          "durationTicks": 578,
          "midi": 59,
          "name": "B3",
          "ticks": 92160,
          "time": 135.84456,
          "velocity": 0.5433070866141733
        },
        {
          "duration": 0.8578725468750008,
          "durationTicks": 582,
          "midi": 54,
          "name": "F#3",
          "ticks": 92164,
          "time": 135.85045603125002,
          "velocity": 0.47244094488188976
        },
        {
          "duration": 1.4238915468750122,
          "durationTicks": 966,
          "midi": 57,
          "name": "A3",
          "ticks": 92736,
          "time": 136.6935885,
          "velocity": 0.5433070866141733
        },
        {
          "duration": 1.3796713125000224,
          "durationTicks": 936,
          "midi": 52,
          "name": "E3",
          "ticks": 92740,
          "time": 136.69948453125,
          "velocity": 0.47244094488188976
        },
        {
          "duration": 0.8637685781250184,
          "durationTicks": 586,
          "midi": 49,
          "name": "C#3",
          "ticks": 93674,
          "time": 138.076207828125,
          "velocity": 0.4409448818897638
        },
        {
          "duration": 0.8814566718750143,
          "durationTicks": 598,
          "midi": 54,
          "name": "F#3",
          "ticks": 93680,
          "time": 138.085051875,
          "velocity": 0.47244094488188976
        },
        {
          "duration": 1.4415796406249797,
          "durationTicks": 978,
          "midi": 50,
          "name": "D3",
          "ticks": 94252,
          "time": 138.92818434375002,
          "velocity": 0.47244094488188976
        },
        {
          "duration": 1.4386316249999993,
          "durationTicks": 976,
          "midi": 55,
          "name": "G3",
          "ticks": 94272,
          "time": 138.95766450000002,
          "velocity": 0.5433070866141733
        },
        {
          "duration": 0.8519765156250116,
          "durationTicks": 578,
          "midi": 59,
          "name": "B3",
          "ticks": 95232,
          "time": 140.372712,
          "velocity": 0.5433070866141733
        },
        {
          "duration": 0.8578725468750008,
          "durationTicks": 582,
          "midi": 54,
          "name": "F#3",
          "ticks": 95236,
          "time": 140.37860803125,
          "velocity": 0.47244094488188976
        },
        {
          "duration": 1.4238915468750122,
          "durationTicks": 966,
          "midi": 57,
          "name": "A3",
          "ticks": 95808,
          "time": 141.2217405,
          "velocity": 0.5433070866141733
        },
        {
          "duration": 1.379671312499994,
          "durationTicks": 936,
          "midi": 52,
          "name": "E3",
          "ticks": 95812,
          "time": 141.22763653125,
          "velocity": 0.47244094488188976
        },
        {
          "duration": 0.86376857812499,
          "durationTicks": 586,
          "midi": 49,
          "name": "C#3",
          "ticks": 96746,
          "time": 142.604359828125,
          "velocity": 0.4409448818897638
        },
        {
          "duration": 0.8814566718750143,
          "durationTicks": 598,
          "midi": 54,
          "name": "F#3",
          "ticks": 96752,
          "time": 142.613203875,
          "velocity": 0.47244094488188976
        },
        {
          "duration": 1.441579640625008,
          "durationTicks": 978,
          "midi": 50,
          "name": "D3",
          "ticks": 97324,
          "time": 143.45633634375,
          "velocity": 0.47244094488188976
        },
        {
          "duration": 1.4386316250000277,
          "durationTicks": 976,
          "midi": 55,
          "name": "G3",
          "ticks": 97344,
          "time": 143.4858165,
          "velocity": 0.5433070866141733
        },
        {
          "duration": 0.8519765156249832,
          "durationTicks": 578,
          "midi": 59,
          "name": "B3",
          "ticks": 98304,
          "time": 144.900864,
          "velocity": 0.5433070866141733
        },
        {
          "duration": 0.8578725468750008,
          "durationTicks": 582,
          "midi": 54,
          "name": "F#3",
          "ticks": 98308,
          "time": 144.90676003125003,
          "velocity": 0.47244094488188976
        },
        {
          "duration": 1.4238915468749838,
          "durationTicks": 966,
          "midi": 57,
          "name": "A3",
          "ticks": 98880,
          "time": 145.74989250000002,
          "velocity": 0.5433070866141733
        },
        {
          "duration": 1.379671312499994,
          "durationTicks": 936,
          "midi": 52,
          "name": "E3",
          "ticks": 98884,
          "time": 145.75578853125003,
          "velocity": 0.47244094488188976
        },
        {
          "duration": 0.8637685781250184,
          "durationTicks": 586,
          "midi": 49,
          "name": "C#3",
          "ticks": 99818,
          "time": 147.132511828125,
          "velocity": 0.4409448818897638
        },
        {
          "duration": 0.8814566718749859,
          "durationTicks": 598,
          "midi": 54,
          "name": "F#3",
          "ticks": 99824,
          "time": 147.14135587500002,
          "velocity": 0.47244094488188976
        },
        {
          "duration": 1.4415796406249797,
          "durationTicks": 978,
          "midi": 50,
          "name": "D3",
          "ticks": 100396,
          "time": 147.98448834375003,
          "velocity": 0.47244094488188976
        },
        {
          "duration": 1.4386316250000277,
          "durationTicks": 976,
          "midi": 55,
          "name": "G3",
          "ticks": 100416,
          "time": 148.0139685,
          "velocity": 0.5433070866141733
        },
        {
          "duration": 0.6397193906249754,
          "durationTicks": 434,
          "midi": 57,
          "name": "A3",
          "ticks": 101376,
          "time": 149.42901600000002,
          "velocity": 0.5433070866141733
        },
        {
          "duration": 0.645615421874993,
          "durationTicks": 438,
          "midi": 50,
          "name": "D3",
          "ticks": 101380,
          "time": 149.43491203125004,
          "velocity": 0.47244094488188976
        },
        {
          "duration": 1.2470106093749962,
          "durationTicks": 846,
          "midi": 57,
          "name": "A3",
          "ticks": 101952,
          "time": 150.27804450000002,
          "velocity": 0.5433070866141733
        },
        {
          "duration": 1.329555046875015,
          "durationTicks": 902,
          "midi": 50,
          "name": "D3",
          "ticks": 101956,
          "time": 150.28394053125,
          "velocity": 0.47244094488188976
        },
        {
          "duration": 0.6574074843750282,
          "durationTicks": 446,
          "midi": 50,
          "name": "D3",
          "ticks": 102890,
          "time": 151.660663828125,
          "velocity": 0.4409448818897638
        },
        {
          "duration": 0.6456154218750214,
          "durationTicks": 438,
          "midi": 57,
          "name": "A3",
          "ticks": 102896,
          "time": 151.669507875,
          "velocity": 0.47244094488188976
        },
        {
          "duration": 1.4268395624999641,
          "durationTicks": 968,
          "midi": 50,
          "name": "D3",
          "ticks": 103468,
          "time": 152.51264034375004,
          "velocity": 0.47244094488188976
        },
        {
          "duration": 1.3501911562500197,
          "durationTicks": 916,
          "midi": 57,
          "name": "A3",
          "ticks": 103488,
          "time": 152.5421205,
          "velocity": 0.5433070866141733
        },
        {
          "duration": 0.6397193906249754,
          "durationTicks": 434,
          "midi": 55,
          "name": "G3",
          "ticks": 104448,
          "time": 153.95716800000002,
          "velocity": 0.5433070866141733
        },
        {
          "duration": 0.6456154218750214,
          "durationTicks": 438,
          "midi": 48,
          "name": "C3",
          "ticks": 104452,
          "time": 153.96306403125,
          "velocity": 0.47244094488188976
        },
        {
          "duration": 1.2470106093749962,
          "durationTicks": 846,
          "midi": 55,
          "name": "G3",
          "ticks": 105024,
          "time": 154.80619650000003,
          "velocity": 0.5433070866141733
        },
        {
          "duration": 1.3295550468749866,
          "durationTicks": 902,
          "midi": 50,
          "name": "D3",
          "ticks": 105028,
          "time": 154.81209253125002,
          "velocity": 0.47244094488188976
        },
        {
          "duration": 2.2699720312500062,
          "durationTicks": 1540,
          "midi": 50,
          "name": "D3",
          "ticks": 105962,
          "time": 156.188815828125,
          "velocity": 0.4409448818897638
        },
        {
          "duration": 2.2699720312500062,
          "durationTicks": 1540,
          "midi": 57,
          "name": "A3",
          "ticks": 105968,
          "time": 156.197659875,
          "velocity": 0.47244094488188976
        }
      ],
      "endOfTrackTicks": 107520
    },
    {
      "channel": 12,
      "controlChanges": {},
      "pitchBends": [],
      "instrument": {
        "family": "piano",
        "number": 0,
        "name": "acoustic grand piano"
      },
      "name": "#St.Sect.",
      "notes": [
        {
          "duration": 0.7782761250000014,
          "durationTicks": 528,
          "midi": 74,
          "name": "D5",
          "ticks": 9220,
          "time": 13.590352031250001,
          "velocity": 0.31496062992125984
        },
        {
          "duration": 0.8313404062500016,
          "durationTicks": 564,
          "midi": 71,
          "name": "B4",
          "ticks": 9220,
          "time": 13.590352031250001,
          "velocity": 0.31496062992125984
        },
        {
          "duration": 1.244062593749998,
          "durationTicks": 844,
          "midi": 76,
          "name": "E5",
          "ticks": 9796,
          "time": 14.439380531250002,
          "velocity": 0.31496062992125984
        },
        {
          "duration": 1.2971268750000018,
          "durationTicks": 880,
          "midi": 73,
          "name": "C#5",
          "ticks": 9800,
          "time": 14.4452765625,
          "velocity": 0.31496062992125984
        },
        {
          "duration": 0.7605880312499984,
          "durationTicks": 516,
          "midi": 73,
          "name": "C#5",
          "ticks": 10752,
          "time": 15.848532000000002,
          "velocity": 0.31496062992125984
        },
        {
          "duration": 0.7016277187500002,
          "durationTicks": 476,
          "midi": 69,
          "name": "A4",
          "ticks": 10756,
          "time": 15.854428031250002,
          "velocity": 0.31496062992125984
        },
        {
          "duration": 1.2794387812500005,
          "durationTicks": 868,
          "midi": 74,
          "name": "D5",
          "ticks": 11336,
          "time": 16.7093525625,
          "velocity": 0.31496062992125984
        },
        {
          "duration": 1.2440625937500016,
          "durationTicks": 844,
          "midi": 71,
          "name": "B4",
          "ticks": 11336,
          "time": 16.7093525625,
          "velocity": 0.31496062992125984
        },
        {
          "duration": 0.7664840624999982,
          "durationTicks": 520,
          "midi": 71,
          "name": "B4",
          "ticks": 12288,
          "time": 18.112608,
          "velocity": 0.31496062992125984
        },
        {
          "duration": 0.7428999374999989,
          "durationTicks": 504,
          "midi": 74,
          "name": "D5",
          "ticks": 12288,
          "time": 18.112608,
          "velocity": 0.31496062992125984
        },
        {
          "duration": 1.0848697499999993,
          "durationTicks": 736,
          "midi": 73,
          "name": "C#5",
          "ticks": 12872,
          "time": 18.973428562500004,
          "velocity": 0.31496062992125984
        },
        {
          "duration": 1.0671816562499963,
          "durationTicks": 724,
          "midi": 76,
          "name": "E5",
          "ticks": 12872,
          "time": 18.973428562500004,
          "velocity": 0.31496062992125984
        },
        {
          "duration": 0.48937059374999947,
          "durationTicks": 332,
          "midi": 73,
          "name": "C#5",
          "ticks": 13640,
          "time": 20.105466562500002,
          "velocity": 0.31496062992125984
        },
        {
          "duration": 0.4363063124999975,
          "durationTicks": 296,
          "midi": 69,
          "name": "A4",
          "ticks": 13640,
          "time": 20.105466562500002,
          "velocity": 0.31496062992125984
        },
        {
          "duration": 0.11792062499999645,
          "durationTicks": 80,
          "midi": 74,
          "name": "D5",
          "ticks": 14024,
          "time": 20.671485562500003,
          "velocity": 0.31496062992125984
        },
        {
          "duration": 0.11792062499999645,
          "durationTicks": 80,
          "midi": 71,
          "name": "B4",
          "ticks": 14024,
          "time": 20.671485562500003,
          "velocity": 0.31496062992125984
        },
        {
          "duration": 1.503487968750001,
          "durationTicks": 1020,
          "midi": 74,
          "name": "D5",
          "ticks": 14208,
          "time": 20.942703,
          "velocity": 0.31496062992125984
        },
        {
          "duration": 1.4916959062499977,
          "durationTicks": 1012,
          "midi": 71,
          "name": "B4",
          "ticks": 14208,
          "time": 20.942703,
          "velocity": 0.31496062992125984
        },
        {
          "duration": 0.8549245312500027,
          "durationTicks": 580,
          "midi": 74,
          "name": "D5",
          "ticks": 15364,
          "time": 22.64665603125,
          "velocity": 0.31496062992125984
        },
        {
          "duration": 0.8313404062499998,
          "durationTicks": 564,
          "midi": 71,
          "name": "B4",
          "ticks": 15364,
          "time": 22.64665603125,
          "velocity": 0.31496062992125984
        },
        {
          "duration": 1.2912308437500002,
          "durationTicks": 876,
          "midi": 73,
          "name": "C#5",
          "ticks": 15944,
          "time": 23.501580562500003,
          "velocity": 0.31496062992125984
        },
        {
          "duration": 1.2204784687500023,
          "durationTicks": 828,
          "midi": 76,
          "name": "E5",
          "ticks": 15944,
          "time": 23.501580562500003,
          "velocity": 0.31496062992125984
        },
        {
          "duration": 0.6662515312500012,
          "durationTicks": 452,
          "midi": 69,
          "name": "A4",
          "ticks": 16896,
          "time": 24.904836000000003,
          "velocity": 0.31496062992125984
        },
        {
          "duration": 0.7546920000000021,
          "durationTicks": 512,
          "midi": 73,
          "name": "C#5",
          "ticks": 16896,
          "time": 24.904836000000003,
          "velocity": 0.31496062992125984
        },
        {
          "duration": 1.2912308437500002,
          "durationTicks": 876,
          "midi": 71,
          "name": "B4",
          "ticks": 17480,
          "time": 25.765656562500002,
          "velocity": 0.31496062992125984
        },
        {
          "duration": 1.2853348125000004,
          "durationTicks": 872,
          "midi": 74,
          "name": "D5",
          "ticks": 17480,
          "time": 25.765656562500002,
          "velocity": 0.31496062992125984
        },
        {
          "duration": 0.7546920000000021,
          "durationTicks": 512,
          "midi": 74,
          "name": "D5",
          "ticks": 18432,
          "time": 27.168912000000002,
          "velocity": 0.31496062992125984
        },
        {
          "duration": 0.7723800937500016,
          "durationTicks": 524,
          "midi": 71,
          "name": "B4",
          "ticks": 18432,
          "time": 27.168912000000002,
          "velocity": 0.31496062992125984
        },
        {
          "duration": 0.9905332499999986,
          "durationTicks": 672,
          "midi": 73,
          "name": "C#5",
          "ticks": 19016,
          "time": 28.029732562500005,
          "velocity": 0.31496062992125984
        },
        {
          "duration": 0.9433649999999965,
          "durationTicks": 640,
          "midi": 76,
          "name": "E5",
          "ticks": 19016,
          "time": 28.029732562500005,
          "velocity": 0.31496062992125984
        },
        {
          "duration": 0.4657864687500002,
          "durationTicks": 316,
          "midi": 69,
          "name": "A4",
          "ticks": 19784,
          "time": 29.161770562500003,
          "velocity": 0.31496062992125984
        },
        {
          "duration": 0.5011626562499991,
          "durationTicks": 340,
          "midi": 73,
          "name": "C#5",
          "ticks": 19784,
          "time": 29.161770562500003,
          "velocity": 0.31496062992125984
        },
        {
          "duration": 0.15329681249999894,
          "durationTicks": 104,
          "midi": 71,
          "name": "B4",
          "ticks": 20168,
          "time": 29.727789562500003,
          "velocity": 0.31496062992125984
        },
        {
          "duration": 0.1415047499999993,
          "durationTicks": 96,
          "midi": 74,
          "name": "D5",
          "ticks": 20172,
          "time": 29.733685593750003,
          "velocity": 0.31496062992125984
        },
        {
          "duration": 1.6626808124999997,
          "durationTicks": 1128,
          "midi": 71,
          "name": "B4",
          "ticks": 20352,
          "time": 29.999007000000002,
          "velocity": 0.31496062992125984
        },
        {
          "duration": 1.6567847812500034,
          "durationTicks": 1124,
          "midi": 74,
          "name": "D5",
          "ticks": 20352,
          "time": 29.999007000000002,
          "velocity": 0.31496062992125984
        },
        {
          "duration": 0.7782761249999979,
          "durationTicks": 528,
          "midi": 74,
          "name": "D5",
          "ticks": 21508,
          "time": 31.70296003125,
          "velocity": 0.31496062992125984
        },
        {
          "duration": 0.8313404062499998,
          "durationTicks": 564,
          "midi": 71,
          "name": "B4",
          "ticks": 21508,
          "time": 31.70296003125,
          "velocity": 0.31496062992125984
        },
        {
          "duration": 1.2440625937500016,
          "durationTicks": 844,
          "midi": 76,
          "name": "E5",
          "ticks": 22084,
          "time": 32.551988531250004,
          "velocity": 0.31496062992125984
        },
        {
          "duration": 1.2971268749999965,
          "durationTicks": 880,
          "midi": 73,
          "name": "C#5",
          "ticks": 22088,
          "time": 32.55788456250001,
          "velocity": 0.31496062992125984
        },
        {
          "duration": 0.760588031250002,
          "durationTicks": 516,
          "midi": 73,
          "name": "C#5",
          "ticks": 23040,
          "time": 33.96114,
          "velocity": 0.31496062992125984
        },
        {
          "duration": 0.7016277187499966,
          "durationTicks": 476,
          "midi": 69,
          "name": "A4",
          "ticks": 23044,
          "time": 33.967036031250004,
          "velocity": 0.31496062992125984
        },
        {
          "duration": 1.2794387812500005,
          "durationTicks": 868,
          "midi": 74,
          "name": "D5",
          "ticks": 23624,
          "time": 34.8219605625,
          "velocity": 0.31496062992125984
        },
        {
          "duration": 1.2440625937500016,
          "durationTicks": 844,
          "midi": 71,
          "name": "B4",
          "ticks": 23624,
          "time": 34.8219605625,
          "velocity": 0.31496062992125984
        },
        {
          "duration": 0.7664840625000053,
          "durationTicks": 520,
          "midi": 71,
          "name": "B4",
          "ticks": 24576,
          "time": 36.225216,
          "velocity": 0.31496062992125984
        },
        {
          "duration": 0.7428999374999989,
          "durationTicks": 504,
          "midi": 74,
          "name": "D5",
          "ticks": 24576,
          "time": 36.225216,
          "velocity": 0.31496062992125984
        },
        {
          "duration": 1.0848697500000029,
          "durationTicks": 736,
          "midi": 73,
          "name": "C#5",
          "ticks": 25160,
          "time": 37.0860365625,
          "velocity": 0.31496062992125984
        },
        {
          "duration": 1.067181656250007,
          "durationTicks": 724,
          "midi": 76,
          "name": "E5",
          "ticks": 25160,
          "time": 37.0860365625,
          "velocity": 0.31496062992125984
        },
        {
          "duration": 0.489370593750003,
          "durationTicks": 332,
          "midi": 73,
          "name": "C#5",
          "ticks": 25928,
          "time": 38.2180745625,
          "velocity": 0.31496062992125984
        },
        {
          "duration": 0.4363063125000082,
          "durationTicks": 296,
          "midi": 69,
          "name": "A4",
          "ticks": 25928,
          "time": 38.2180745625,
          "velocity": 0.31496062992125984
        },
        {
          "duration": 0.11792062500000355,
          "durationTicks": 80,
          "midi": 74,
          "name": "D5",
          "ticks": 26312,
          "time": 38.784093562500004,
          "velocity": 0.31496062992125984
        },
        {
          "duration": 0.11792062500000355,
          "durationTicks": 80,
          "midi": 71,
          "name": "B4",
          "ticks": 26312,
          "time": 38.784093562500004,
          "velocity": 0.31496062992125984
        },
        {
          "duration": 1.503487968750001,
          "durationTicks": 1020,
          "midi": 74,
          "name": "D5",
          "ticks": 26496,
          "time": 39.055311,
          "velocity": 0.31496062992125984
        },
        {
          "duration": 1.4916959062500013,
          "durationTicks": 1012,
          "midi": 71,
          "name": "B4",
          "ticks": 26496,
          "time": 39.055311,
          "velocity": 0.31496062992125984
        },
        {
          "duration": 0.8549245312499991,
          "durationTicks": 580,
          "midi": 74,
          "name": "D5",
          "ticks": 27652,
          "time": 40.759264031250005,
          "velocity": 0.31496062992125984
        },
        {
          "duration": 0.8313404062499998,
          "durationTicks": 564,
          "midi": 71,
          "name": "B4",
          "ticks": 27652,
          "time": 40.759264031250005,
          "velocity": 0.31496062992125984
        },
        {
          "duration": 1.2912308437500002,
          "durationTicks": 876,
          "midi": 73,
          "name": "C#5",
          "ticks": 28232,
          "time": 41.614188562500004,
          "velocity": 0.31496062992125984
        },
        {
          "duration": 1.2204784687499952,
          "durationTicks": 828,
          "midi": 76,
          "name": "E5",
          "ticks": 28232,
          "time": 41.614188562500004,
          "velocity": 0.31496062992125984
        },
        {
          "duration": 0.6662515312499977,
          "durationTicks": 452,
          "midi": 69,
          "name": "A4",
          "ticks": 29184,
          "time": 43.017444000000005,
          "velocity": 0.31496062992125984
        },
        {
          "duration": 0.7546919999999986,
          "durationTicks": 512,
          "midi": 73,
          "name": "C#5",
          "ticks": 29184,
          "time": 43.017444000000005,
          "velocity": 0.31496062992125984
        },
        {
          "duration": 1.2912308437500002,
          "durationTicks": 876,
          "midi": 71,
          "name": "B4",
          "ticks": 29768,
          "time": 43.8782645625,
          "velocity": 0.31496062992125984
        },
        {
          "duration": 1.285334812500004,
          "durationTicks": 872,
          "midi": 74,
          "name": "D5",
          "ticks": 29768,
          "time": 43.8782645625,
          "velocity": 0.31496062992125984
        },
        {
          "duration": 0.7546919999999986,
          "durationTicks": 512,
          "midi": 74,
          "name": "D5",
          "ticks": 30720,
          "time": 45.28152,
          "velocity": 0.31496062992125984
        },
        {
          "duration": 0.7723800937500016,
          "durationTicks": 524,
          "midi": 71,
          "name": "B4",
          "ticks": 30720,
          "time": 45.28152,
          "velocity": 0.31496062992125984
        },
        {
          "duration": 0.9905332499999986,
          "durationTicks": 672,
          "midi": 73,
          "name": "C#5",
          "ticks": 31304,
          "time": 46.1423405625,
          "velocity": 0.31496062992125984
        },
        {
          "duration": 0.943365,
          "durationTicks": 640,
          "midi": 76,
          "name": "E5",
          "ticks": 31304,
          "time": 46.1423405625,
          "velocity": 0.31496062992125984
        },
        {
          "duration": 0.46578646874999663,
          "durationTicks": 316,
          "midi": 69,
          "name": "A4",
          "ticks": 32072,
          "time": 47.274378562500004,
          "velocity": 0.31496062992125984
        },
        {
          "duration": 0.5011626562500027,
          "durationTicks": 340,
          "midi": 73,
          "name": "C#5",
          "ticks": 32072,
          "time": 47.274378562500004,
          "velocity": 0.31496062992125984
        },
        {
          "duration": 0.1532968125000025,
          "durationTicks": 104,
          "midi": 71,
          "name": "B4",
          "ticks": 32456,
          "time": 47.8403975625,
          "velocity": 0.31496062992125984
        },
        {
          "duration": 0.14150475000000284,
          "durationTicks": 96,
          "midi": 74,
          "name": "D5",
          "ticks": 32460,
          "time": 47.846293593750005,
          "velocity": 0.31496062992125984
        },
        {
          "duration": 1.6626808124999997,
          "durationTicks": 1128,
          "midi": 71,
          "name": "B4",
          "ticks": 32640,
          "time": 48.11161500000001,
          "velocity": 0.31496062992125984
        },
        {
          "duration": 1.6567847812499963,
          "durationTicks": 1124,
          "midi": 74,
          "name": "D5",
          "ticks": 32640,
          "time": 48.11161500000001,
          "velocity": 0.31496062992125984
        },
        {
          "duration": 0.7782761249999979,
          "durationTicks": 528,
          "midi": 74,
          "name": "D5",
          "ticks": 33796,
          "time": 49.81556803125001,
          "velocity": 0.31496062992125984
        },
        {
          "duration": 0.8313404062499998,
          "durationTicks": 564,
          "midi": 71,
          "name": "B4",
          "ticks": 33796,
          "time": 49.81556803125001,
          "velocity": 0.31496062992125984
        },
        {
          "duration": 1.2440625937499945,
          "durationTicks": 844,
          "midi": 76,
          "name": "E5",
          "ticks": 34372,
          "time": 50.664596531250005,
          "velocity": 0.31496062992125984
        },
        {
          "duration": 1.2971268750000036,
          "durationTicks": 880,
          "midi": 73,
          "name": "C#5",
          "ticks": 34376,
          "time": 50.6704925625,
          "velocity": 0.31496062992125984
        },
        {
          "duration": 0.760588031250002,
          "durationTicks": 516,
          "midi": 73,
          "name": "C#5",
          "ticks": 35328,
          "time": 52.073748,
          "velocity": 0.31496062992125984
        },
        {
          "duration": 0.7016277187499966,
          "durationTicks": 476,
          "midi": 69,
          "name": "A4",
          "ticks": 35332,
          "time": 52.079644031250005,
          "velocity": 0.31496062992125984
        },
        {
          "duration": 1.2794387812500005,
          "durationTicks": 868,
          "midi": 74,
          "name": "D5",
          "ticks": 35912,
          "time": 52.934568562500004,
          "velocity": 0.31496062992125984
        },
        {
          "duration": 1.2440625937500016,
          "durationTicks": 844,
          "midi": 71,
          "name": "B4",
          "ticks": 35912,
          "time": 52.934568562500004,
          "velocity": 0.31496062992125984
        },
        {
          "duration": 0.7664840625000053,
          "durationTicks": 520,
          "midi": 71,
          "name": "B4",
          "ticks": 36864,
          "time": 54.337824000000005,
          "velocity": 0.31496062992125984
        },
        {
          "duration": 0.7428999374999989,
          "durationTicks": 504,
          "midi": 74,
          "name": "D5",
          "ticks": 36864,
          "time": 54.337824000000005,
          "velocity": 0.31496062992125984
        },
        {
          "duration": 1.0848697500000029,
          "durationTicks": 736,
          "midi": 73,
          "name": "C#5",
          "ticks": 37448,
          "time": 55.1986445625,
          "velocity": 0.31496062992125984
        },
        {
          "duration": 1.067181656250007,
          "durationTicks": 724,
          "midi": 76,
          "name": "E5",
          "ticks": 37448,
          "time": 55.1986445625,
          "velocity": 0.31496062992125984
        },
        {
          "duration": 0.489370593750003,
          "durationTicks": 332,
          "midi": 73,
          "name": "C#5",
          "ticks": 38216,
          "time": 56.3306825625,
          "velocity": 0.31496062992125984
        },
        {
          "duration": 0.4363063125000082,
          "durationTicks": 296,
          "midi": 69,
          "name": "A4",
          "ticks": 38216,
          "time": 56.3306825625,
          "velocity": 0.31496062992125984
        },
        {
          "duration": 0.11792062500000355,
          "durationTicks": 80,
          "midi": 74,
          "name": "D5",
          "ticks": 38600,
          "time": 56.896701562500006,
          "velocity": 0.31496062992125984
        },
        {
          "duration": 0.11792062500000355,
          "durationTicks": 80,
          "midi": 71,
          "name": "B4",
          "ticks": 38600,
          "time": 56.896701562500006,
          "velocity": 0.31496062992125984
        },
        {
          "duration": 1.503487968750001,
          "durationTicks": 1020,
          "midi": 74,
          "name": "D5",
          "ticks": 38784,
          "time": 57.167919000000005,
          "velocity": 0.31496062992125984
        },
        {
          "duration": 1.4916959062500013,
          "durationTicks": 1012,
          "midi": 71,
          "name": "B4",
          "ticks": 38784,
          "time": 57.167919000000005,
          "velocity": 0.31496062992125984
        },
        {
          "duration": 0.8549245312499991,
          "durationTicks": 580,
          "midi": 74,
          "name": "D5",
          "ticks": 39940,
          "time": 58.87187203125001,
          "velocity": 0.31496062992125984
        },
        {
          "duration": 0.8313404062499998,
          "durationTicks": 564,
          "midi": 71,
          "name": "B4",
          "ticks": 39940,
          "time": 58.87187203125001,
          "velocity": 0.31496062992125984
        },
        {
          "duration": 1.2912308437500002,
          "durationTicks": 876,
          "midi": 73,
          "name": "C#5",
          "ticks": 40520,
          "time": 59.726796562500006,
          "velocity": 0.31496062992125984
        },
        {
          "duration": 1.2204784687499952,
          "durationTicks": 828,
          "midi": 76,
          "name": "E5",
          "ticks": 40520,
          "time": 59.726796562500006,
          "velocity": 0.31496062992125984
        },
        {
          "duration": 0.6662515312499977,
          "durationTicks": 452,
          "midi": 69,
          "name": "A4",
          "ticks": 41472,
          "time": 61.130052000000006,
          "velocity": 0.31496062992125984
        },
        {
          "duration": 0.7546919999999986,
          "durationTicks": 512,
          "midi": 73,
          "name": "C#5",
          "ticks": 41472,
          "time": 61.130052000000006,
          "velocity": 0.31496062992125984
        },
        {
          "duration": 1.2912308437500002,
          "durationTicks": 876,
          "midi": 71,
          "name": "B4",
          "ticks": 42056,
          "time": 61.9908725625,
          "velocity": 0.31496062992125984
        },
        {
          "duration": 1.285334812500004,
          "durationTicks": 872,
          "midi": 74,
          "name": "D5",
          "ticks": 42056,
          "time": 61.9908725625,
          "velocity": 0.31496062992125984
        },
        {
          "duration": 0.7546919999999915,
          "durationTicks": 512,
          "midi": 74,
          "name": "D5",
          "ticks": 43008,
          "time": 63.39412800000001,
          "velocity": 0.31496062992125984
        },
        {
          "duration": 0.7723800937499874,
          "durationTicks": 524,
          "midi": 71,
          "name": "B4",
          "ticks": 43008,
          "time": 63.39412800000001,
          "velocity": 0.31496062992125984
        },
        {
          "duration": 0.9905332499999986,
          "durationTicks": 672,
          "midi": 73,
          "name": "C#5",
          "ticks": 43592,
          "time": 64.2549485625,
          "velocity": 0.31496062992125984
        },
        {
          "duration": 0.943365,
          "durationTicks": 640,
          "midi": 76,
          "name": "E5",
          "ticks": 43592,
          "time": 64.2549485625,
          "velocity": 0.31496062992125984
        },
        {
          "duration": 0.46578646875001084,
          "durationTicks": 316,
          "midi": 69,
          "name": "A4",
          "ticks": 44360,
          "time": 65.3869865625,
          "velocity": 0.31496062992125984
        },
        {
          "duration": 0.5011626562500027,
          "durationTicks": 340,
          "midi": 73,
          "name": "C#5",
          "ticks": 44360,
          "time": 65.3869865625,
          "velocity": 0.31496062992125984
        },
        {
          "duration": 0.1532968125000025,
          "durationTicks": 104,
          "midi": 71,
          "name": "B4",
          "ticks": 44744,
          "time": 65.95300556250001,
          "velocity": 0.31496062992125984
        },
        {
          "duration": 0.14150475000000995,
          "durationTicks": 96,
          "midi": 74,
          "name": "D5",
          "ticks": 44748,
          "time": 65.95890159375,
          "velocity": 0.31496062992125984
        },
        {
          "duration": 1.6626808124999997,
          "durationTicks": 1128,
          "midi": 71,
          "name": "B4",
          "ticks": 44928,
          "time": 66.22422300000001,
          "velocity": 0.31496062992125984
        },
        {
          "duration": 1.6567847812499963,
          "durationTicks": 1124,
          "midi": 74,
          "name": "D5",
          "ticks": 44928,
          "time": 66.22422300000001,
          "velocity": 0.31496062992125984
        },
        {
          "duration": 0.7782761249999908,
          "durationTicks": 528,
          "midi": 76,
          "name": "E5",
          "ticks": 113668,
          "time": 167.54752003125003,
          "velocity": 0.31496062992125984
        },
        {
          "duration": 0.8313404062500069,
          "durationTicks": 564,
          "midi": 73,
          "name": "C#5",
          "ticks": 113668,
          "time": 167.54752003125003,
          "velocity": 0.31496062992125984
        },
        {
          "duration": 1.244062593749959,
          "durationTicks": 844,
          "midi": 78,
          "name": "F#5",
          "ticks": 114244,
          "time": 168.39654853125003,
          "velocity": 0.31496062992125984
        },
        {
          "duration": 1.297126875000032,
          "durationTicks": 880,
          "midi": 75,
          "name": "D#5",
          "ticks": 114248,
          "time": 168.4024445625,
          "velocity": 0.31496062992125984
        },
        {
          "duration": 0.7605880312500233,
          "durationTicks": 516,
          "midi": 75,
          "name": "D#5",
          "ticks": 115200,
          "time": 169.8057,
          "velocity": 0.31496062992125984
        },
        {
          "duration": 0.7016277187499895,
          "durationTicks": 476,
          "midi": 71,
          "name": "B4",
          "ticks": 115204,
          "time": 169.81159603125002,
          "velocity": 0.31496062992125984
        },
        {
          "duration": 1.2794387812500077,
          "durationTicks": 868,
          "midi": 76,
          "name": "E5",
          "ticks": 115784,
          "time": 170.6665205625,
          "velocity": 0.31496062992125984
        },
        {
          "duration": 1.2440625937500158,
          "durationTicks": 844,
          "midi": 73,
          "name": "C#5",
          "ticks": 115784,
          "time": 170.6665205625,
          "velocity": 0.31496062992125984
        },
        {
          "duration": 0.7664840625000124,
          "durationTicks": 520,
          "midi": 73,
          "name": "C#5",
          "ticks": 116736,
          "time": 172.06977600000002,
          "velocity": 0.31496062992125984
        },
        {
          "duration": 0.7428999374999989,
          "durationTicks": 504,
          "midi": 76,
          "name": "E5",
          "ticks": 116736,
          "time": 172.06977600000002,
          "velocity": 0.31496062992125984
        },
        {
          "duration": 1.0848697500000242,
          "durationTicks": 736,
          "midi": 75,
          "name": "D#5",
          "ticks": 117320,
          "time": 172.9305965625,
          "velocity": 0.31496062992125984
        },
        {
          "duration": 1.0671816562500283,
          "durationTicks": 724,
          "midi": 78,
          "name": "F#5",
          "ticks": 117320,
          "time": 172.9305965625,
          "velocity": 0.31496062992125984
        },
        {
          "duration": 0.48937059375003855,
          "durationTicks": 332,
          "midi": 75,
          "name": "D#5",
          "ticks": 118088,
          "time": 174.0626345625,
          "velocity": 0.31496062992125984
        },
        {
          "duration": 0.4363063125000224,
          "durationTicks": 296,
          "midi": 71,
          "name": "B4",
          "ticks": 118088,
          "time": 174.0626345625,
          "velocity": 0.31496062992125984
        },
        {
          "duration": 0.11792062500001066,
          "durationTicks": 80,
          "midi": 76,
          "name": "E5",
          "ticks": 118472,
          "time": 174.6286535625,
          "velocity": 0.31496062992125984
        },
        {
          "duration": 0.11792062500001066,
          "durationTicks": 80,
          "midi": 73,
          "name": "C#5",
          "ticks": 118472,
          "time": 174.6286535625,
          "velocity": 0.31496062992125984
        },
        {
          "duration": 1.5034879687499938,
          "durationTicks": 1020,
          "midi": 76,
          "name": "E5",
          "ticks": 118656,
          "time": 174.89987100000002,
          "velocity": 0.31496062992125984
        },
        {
          "duration": 1.4916959062500155,
          "durationTicks": 1012,
          "midi": 73,
          "name": "C#5",
          "ticks": 118656,
          "time": 174.89987100000002,
          "velocity": 0.31496062992125984
        },
        {
          "duration": 0.854924531249992,
          "durationTicks": 580,
          "midi": 76,
          "name": "E5",
          "ticks": 119812,
          "time": 176.60382403125,
          "velocity": 0.31496062992125984
        },
        {
          "duration": 0.8313404062500069,
          "durationTicks": 564,
          "midi": 73,
          "name": "C#5",
          "ticks": 119812,
          "time": 176.60382403125,
          "velocity": 0.31496062992125984
        },
        {
          "duration": 1.291230843749986,
          "durationTicks": 876,
          "midi": 75,
          "name": "D#5",
          "ticks": 120392,
          "time": 177.4587485625,
          "velocity": 0.31496062992125984
        },
        {
          "duration": 1.2204784687500023,
          "durationTicks": 828,
          "midi": 78,
          "name": "F#5",
          "ticks": 120392,
          "time": 177.4587485625,
          "velocity": 0.31496062992125984
        },
        {
          "duration": 0.6662515312499977,
          "durationTicks": 452,
          "midi": 71,
          "name": "B4",
          "ticks": 121344,
          "time": 178.862004,
          "velocity": 0.31496062992125984
        },
        {
          "duration": 0.7546920000000057,
          "durationTicks": 512,
          "midi": 75,
          "name": "D#5",
          "ticks": 121344,
          "time": 178.862004,
          "velocity": 0.31496062992125984
        },
        {
          "duration": 1.2912308437500144,
          "durationTicks": 876,
          "midi": 73,
          "name": "C#5",
          "ticks": 121928,
          "time": 179.7228245625,
          "velocity": 0.31496062992125984
        },
        {
          "duration": 1.2853348125000252,
          "durationTicks": 872,
          "midi": 76,
          "name": "E5",
          "ticks": 121928,
          "time": 179.7228245625,
          "velocity": 0.31496062992125984
        },
        {
          "duration": 0.7546920000000057,
          "durationTicks": 512,
          "midi": 76,
          "name": "E5",
          "ticks": 122880,
          "time": 181.12608,
          "velocity": 0.31496062992125984
        },
        {
          "duration": 0.7723800937500016,
          "durationTicks": 524,
          "midi": 73,
          "name": "C#5",
          "ticks": 122880,
          "time": 181.12608,
          "velocity": 0.31496062992125984
        },
        {
          "duration": 0.9905332499999986,
          "durationTicks": 672,
          "midi": 75,
          "name": "D#5",
          "ticks": 123464,
          "time": 181.9869005625,
          "velocity": 0.31496062992125984
        },
        {
          "duration": 0.943365,
          "durationTicks": 640,
          "midi": 78,
          "name": "F#5",
          "ticks": 123464,
          "time": 181.9869005625,
          "velocity": 0.31496062992125984
        },
        {
          "duration": 0.46578646874999663,
          "durationTicks": 316,
          "midi": 71,
          "name": "B4",
          "ticks": 124232,
          "time": 183.1189385625,
          "velocity": 0.31496062992125984
        },
        {
          "duration": 0.5011626562500169,
          "durationTicks": 340,
          "midi": 75,
          "name": "D#5",
          "ticks": 124232,
          "time": 183.1189385625,
          "velocity": 0.31496062992125984
        },
        {
          "duration": 0.1532968125000025,
          "durationTicks": 104,
          "midi": 73,
          "name": "C#5",
          "ticks": 124616,
          "time": 183.68495756250002,
          "velocity": 0.31496062992125984
        },
        {
          "duration": 0.14150475000002416,
          "durationTicks": 96,
          "midi": 76,
          "name": "E5",
          "ticks": 124620,
          "time": 183.69085359375,
          "velocity": 0.31496062992125984
        },
        {
          "duration": 1.6626808124999854,
          "durationTicks": 1128,
          "midi": 73,
          "name": "C#5",
          "ticks": 124800,
          "time": 183.95617500000003,
          "velocity": 0.31496062992125984
        },
        {
          "duration": 1.6567847812499679,
          "durationTicks": 1124,
          "midi": 76,
          "name": "E5",
          "ticks": 124800,
          "time": 183.95617500000003,
          "velocity": 0.31496062992125984
        },
        {
          "duration": 0.7782761249999908,
          "durationTicks": 528,
          "midi": 76,
          "name": "E5",
          "ticks": 125956,
          "time": 185.66012803125003,
          "velocity": 0.31496062992125984
        },
        {
          "duration": 0.8313404062500069,
          "durationTicks": 564,
          "midi": 73,
          "name": "C#5",
          "ticks": 125956,
          "time": 185.66012803125003,
          "velocity": 0.31496062992125984
        },
        {
          "duration": 1.2440625937499874,
          "durationTicks": 844,
          "midi": 78,
          "name": "F#5",
          "ticks": 126532,
          "time": 186.50915653125003,
          "velocity": 0.31496062992125984
        },
        {
          "duration": 1.2971268750000036,
          "durationTicks": 880,
          "midi": 75,
          "name": "D#5",
          "ticks": 126536,
          "time": 186.51505256250002,
          "velocity": 0.31496062992125984
        },
        {
          "duration": 0.7605880312499949,
          "durationTicks": 516,
          "midi": 75,
          "name": "D#5",
          "ticks": 127488,
          "time": 187.91830800000002,
          "velocity": 0.31496062992125984
        },
        {
          "duration": 0.7016277187499895,
          "durationTicks": 476,
          "midi": 71,
          "name": "B4",
          "ticks": 127492,
          "time": 187.92420403125,
          "velocity": 0.31496062992125984
        },
        {
          "duration": 1.2794387812500077,
          "durationTicks": 868,
          "midi": 76,
          "name": "E5",
          "ticks": 128072,
          "time": 188.7791285625,
          "velocity": 0.31496062992125984
        },
        {
          "duration": 1.2440625937500158,
          "durationTicks": 844,
          "midi": 73,
          "name": "C#5",
          "ticks": 128072,
          "time": 188.7791285625,
          "velocity": 0.31496062992125984
        },
        {
          "duration": 0.7664840625000124,
          "durationTicks": 520,
          "midi": 73,
          "name": "C#5",
          "ticks": 129024,
          "time": 190.182384,
          "velocity": 0.31496062992125984
        },
        {
          "duration": 0.7428999374999989,
          "durationTicks": 504,
          "midi": 76,
          "name": "E5",
          "ticks": 129024,
          "time": 190.182384,
          "velocity": 0.31496062992125984
        },
        {
          "duration": 1.0848697500000242,
          "durationTicks": 736,
          "midi": 75,
          "name": "D#5",
          "ticks": 129608,
          "time": 191.0432045625,
          "velocity": 0.31496062992125984
        },
        {
          "duration": 1.0671816562500283,
          "durationTicks": 724,
          "midi": 78,
          "name": "F#5",
          "ticks": 129608,
          "time": 191.0432045625,
          "velocity": 0.31496062992125984
        },
        {
          "duration": 0.48937059375001013,
          "durationTicks": 332,
          "midi": 75,
          "name": "D#5",
          "ticks": 130376,
          "time": 192.17524256250002,
          "velocity": 0.31496062992125984
        },
        {
          "duration": 0.4363063125000224,
          "durationTicks": 296,
          "midi": 71,
          "name": "B4",
          "ticks": 130376,
          "time": 192.17524256250002,
          "velocity": 0.31496062992125984
        },
        {
          "duration": 0.11792062500003908,
          "durationTicks": 80,
          "midi": 76,
          "name": "E5",
          "ticks": 130760,
          "time": 192.7412615625,
          "velocity": 0.31496062992125984
        },
        {
          "duration": 0.11792062500003908,
          "durationTicks": 80,
          "midi": 73,
          "name": "C#5",
          "ticks": 130760,
          "time": 192.7412615625,
          "velocity": 0.31496062992125984
        },
        {
          "duration": 1.5034879687499938,
          "durationTicks": 1020,
          "midi": 76,
          "name": "E5",
          "ticks": 130944,
          "time": 193.012479,
          "velocity": 0.31496062992125984
        },
        {
          "duration": 1.4916959062500155,
          "durationTicks": 1012,
          "midi": 73,
          "name": "C#5",
          "ticks": 130944,
          "time": 193.012479,
          "velocity": 0.31496062992125984
        },
        {
          "duration": 0.8549245312499636,
          "durationTicks": 580,
          "midi": 76,
          "name": "E5",
          "ticks": 132100,
          "time": 194.71643203125004,
          "velocity": 0.31496062992125984
        },
        {
          "duration": 0.8313404062499785,
          "durationTicks": 564,
          "midi": 73,
          "name": "C#5",
          "ticks": 132100,
          "time": 194.71643203125004,
          "velocity": 0.31496062992125984
        },
        {
          "duration": 1.2912308437500144,
          "durationTicks": 876,
          "midi": 75,
          "name": "D#5",
          "ticks": 132680,
          "time": 195.5713565625,
          "velocity": 0.31496062992125984
        },
        {
          "duration": 1.2204784687500023,
          "durationTicks": 828,
          "midi": 78,
          "name": "F#5",
          "ticks": 132680,
          "time": 195.5713565625,
          "velocity": 0.31496062992125984
        },
        {
          "duration": 0.6662515312499977,
          "durationTicks": 452,
          "midi": 71,
          "name": "B4",
          "ticks": 133632,
          "time": 196.974612,
          "velocity": 0.31496062992125984
        },
        {
          "duration": 0.7546920000000057,
          "durationTicks": 512,
          "midi": 75,
          "name": "D#5",
          "ticks": 133632,
          "time": 196.974612,
          "velocity": 0.31496062992125984
        },
        {
          "duration": 1.291230843749986,
          "durationTicks": 876,
          "midi": 73,
          "name": "C#5",
          "ticks": 134216,
          "time": 197.83543256250002,
          "velocity": 0.31496062992125984
        },
        {
          "duration": 1.2853348125000252,
          "durationTicks": 872,
          "midi": 76,
          "name": "E5",
          "ticks": 134216,
          "time": 197.83543256250002,
          "velocity": 0.31496062992125984
        },
        {
          "duration": 0.7546919999999773,
          "durationTicks": 512,
          "midi": 76,
          "name": "E5",
          "ticks": 135168,
          "time": 199.23868800000002,
          "velocity": 0.31496062992125984
        },
        {
          "duration": 0.7723800937499732,
          "durationTicks": 524,
          "midi": 73,
          "name": "C#5",
          "ticks": 135168,
          "time": 199.23868800000002,
          "velocity": 0.31496062992125984
        },
        {
          "duration": 0.9905332499999986,
          "durationTicks": 672,
          "midi": 75,
          "name": "D#5",
          "ticks": 135752,
          "time": 200.0995085625,
          "velocity": 0.31496062992125984
        },
        {
          "duration": 0.943365,
          "durationTicks": 640,
          "midi": 78,
          "name": "F#5",
          "ticks": 135752,
          "time": 200.0995085625,
          "velocity": 0.31496062992125984
        },
        {
          "duration": 0.46578646875002505,
          "durationTicks": 316,
          "midi": 71,
          "name": "B4",
          "ticks": 136520,
          "time": 201.2315465625,
          "velocity": 0.31496062992125984
        },
        {
          "duration": 0.5011626562500169,
          "durationTicks": 340,
          "midi": 75,
          "name": "D#5",
          "ticks": 136520,
          "time": 201.2315465625,
          "velocity": 0.31496062992125984
        },
        {
          "duration": 0.1532968125000309,
          "durationTicks": 104,
          "midi": 73,
          "name": "C#5",
          "ticks": 136904,
          "time": 201.7975655625,
          "velocity": 0.31496062992125984
        },
        {
          "duration": 0.14150474999999574,
          "durationTicks": 96,
          "midi": 76,
          "name": "E5",
          "ticks": 136908,
          "time": 201.80346159375003,
          "velocity": 0.31496062992125984
        },
        {
          "duration": 1.6626808124999854,
          "durationTicks": 1128,
          "midi": 73,
          "name": "C#5",
          "ticks": 137088,
          "time": 202.06878300000002,
          "velocity": 0.31496062992125984
        },
        {
          "duration": 1.6567847812499963,
          "durationTicks": 1124,
          "midi": 76,
          "name": "E5",
          "ticks": 137088,
          "time": 202.06878300000002,
          "velocity": 0.31496062992125984
        }
      ],
      "endOfTrackTicks": 138240
    },
    {
      "channel": 13,
      "controlChanges": {},
      "pitchBends": [],
      "instrument": {
        "family": "piano",
        "number": 0,
        "name": "acoustic grand piano"
      },
      "name": "Halo Pad ",
      "notes": [
        {
          "duration": 0.8254443750000036,
          "durationTicks": 560,
          "midi": 78,
          "name": "F#5",
          "ticks": 46080,
          "time": 67.92228,
          "velocity": 0.3937007874015748
        },
        {
          "duration": 0.8077562812500076,
          "durationTicks": 548,
          "midi": 74,
          "name": "D5",
          "ticks": 46080,
          "time": 67.92228,
          "velocity": 0.3937007874015748
        },
        {
          "duration": 1.344295124999988,
          "durationTicks": 912,
          "midi": 76,
          "name": "E5",
          "ticks": 46664,
          "time": 68.78310056250001,
          "velocity": 0.3937007874015748
        },
        {
          "duration": 1.3560871874999947,
          "durationTicks": 920,
          "midi": 73,
          "name": "C#5",
          "ticks": 46664,
          "time": 68.78310056250001,
          "velocity": 0.3937007874015748
        },
        {
          "duration": 0.8018602500000043,
          "durationTicks": 544,
          "midi": 74,
          "name": "D5",
          "ticks": 47616,
          "time": 70.186356,
          "velocity": 0.3858267716535433
        },
        {
          "duration": 0.7664840625000124,
          "durationTicks": 520,
          "midi": 71,
          "name": "B4",
          "ticks": 47616,
          "time": 70.186356,
          "velocity": 0.3858267716535433
        },
        {
          "duration": 1.4032554375000075,
          "durationTicks": 952,
          "midi": 74,
          "name": "D5",
          "ticks": 48192,
          "time": 71.0353845,
          "velocity": 0.3858267716535433
        },
        {
          "duration": 1.4032554375000075,
          "durationTicks": 952,
          "midi": 69,
          "name": "A4",
          "ticks": 48200,
          "time": 71.0471765625,
          "velocity": 0.3858267716535433
        },
        {
          "duration": 0.8254443750000036,
          "durationTicks": 560,
          "midi": 76,
          "name": "E5",
          "ticks": 49152,
          "time": 72.450432,
          "velocity": 0.3937007874015748
        },
        {
          "duration": 0.8077562812500076,
          "durationTicks": 548,
          "midi": 72,
          "name": "C5",
          "ticks": 49152,
          "time": 72.450432,
          "velocity": 0.3937007874015748
        },
        {
          "duration": 1.3442951250000021,
          "durationTicks": 912,
          "midi": 74,
          "name": "D5",
          "ticks": 49736,
          "time": 73.31125256250002,
          "velocity": 0.3937007874015748
        },
        {
          "duration": 1.3560871874999805,
          "durationTicks": 920,
          "midi": 71,
          "name": "B4",
          "ticks": 49736,
          "time": 73.31125256250002,
          "velocity": 0.3937007874015748
        },
        {
          "duration": 2.1874275937500016,
          "durationTicks": 1484,
          "midi": 74,
          "name": "D5",
          "ticks": 50688,
          "time": 74.71450800000001,
          "velocity": 0.3858267716535433
        },
        {
          "duration": 2.163843468749988,
          "durationTicks": 1468,
          "midi": 69,
          "name": "A4",
          "ticks": 50688,
          "time": 74.71450800000001,
          "velocity": 0.3858267716535433
        },
        {
          "duration": 0.8254443750000036,
          "durationTicks": 560,
          "midi": 78,
          "name": "F#5",
          "ticks": 52224,
          "time": 76.97858400000001,
          "velocity": 0.3937007874015748
        },
        {
          "duration": 0.8077562812499934,
          "durationTicks": 548,
          "midi": 74,
          "name": "D5",
          "ticks": 52224,
          "time": 76.97858400000001,
          "velocity": 0.3937007874015748
        },
        {
          "duration": 1.3442951250000021,
          "durationTicks": 912,
          "midi": 76,
          "name": "E5",
          "ticks": 52808,
          "time": 77.83940456250001,
          "velocity": 0.3937007874015748
        },
        {
          "duration": 1.3560871874999947,
          "durationTicks": 920,
          "midi": 73,
          "name": "C#5",
          "ticks": 52808,
          "time": 77.83940456250001,
          "velocity": 0.3937007874015748
        },
        {
          "duration": 0.8018602500000043,
          "durationTicks": 544,
          "midi": 74,
          "name": "D5",
          "ticks": 53760,
          "time": 79.24266,
          "velocity": 0.3858267716535433
        },
        {
          "duration": 0.7664840624999982,
          "durationTicks": 520,
          "midi": 71,
          "name": "B4",
          "ticks": 53760,
          "time": 79.24266,
          "velocity": 0.3858267716535433
        },
        {
          "duration": 1.4032554374999933,
          "durationTicks": 952,
          "midi": 74,
          "name": "D5",
          "ticks": 54336,
          "time": 80.0916885,
          "velocity": 0.3858267716535433
        },
        {
          "duration": 1.4032554374999933,
          "durationTicks": 952,
          "midi": 69,
          "name": "A4",
          "ticks": 54344,
          "time": 80.10348056250001,
          "velocity": 0.3858267716535433
        },
        {
          "duration": 0.8254443750000036,
          "durationTicks": 560,
          "midi": 76,
          "name": "E5",
          "ticks": 55296,
          "time": 81.506736,
          "velocity": 0.3937007874015748
        },
        {
          "duration": 0.8077562812500076,
          "durationTicks": 548,
          "midi": 72,
          "name": "C5",
          "ticks": 55296,
          "time": 81.506736,
          "velocity": 0.3937007874015748
        },
        {
          "duration": 1.3442951250000021,
          "durationTicks": 912,
          "midi": 74,
          "name": "D5",
          "ticks": 55880,
          "time": 82.36755656250001,
          "velocity": 0.3937007874015748
        },
        {
          "duration": 1.3560871874999947,
          "durationTicks": 920,
          "midi": 71,
          "name": "B4",
          "ticks": 55880,
          "time": 82.36755656250001,
          "velocity": 0.3937007874015748
        },
        {
          "duration": 2.1874275937500016,
          "durationTicks": 1484,
          "midi": 74,
          "name": "D5",
          "ticks": 56832,
          "time": 83.770812,
          "velocity": 0.3858267716535433
        },
        {
          "duration": 2.1638434687500023,
          "durationTicks": 1468,
          "midi": 69,
          "name": "A4",
          "ticks": 56832,
          "time": 83.770812,
          "velocity": 0.3858267716535433
        },
        {
          "duration": 0.8254443750000036,
          "durationTicks": 560,
          "midi": 78,
          "name": "F#5",
          "ticks": 58368,
          "time": 86.03488800000001,
          "velocity": 0.3937007874015748
        },
        {
          "duration": 0.8077562812500076,
          "durationTicks": 548,
          "midi": 74,
          "name": "D5",
          "ticks": 58368,
          "time": 86.03488800000001,
          "velocity": 0.3937007874015748
        },
        {
          "duration": 1.344295124999988,
          "durationTicks": 912,
          "midi": 76,
          "name": "E5",
          "ticks": 58952,
          "time": 86.89570856250002,
          "velocity": 0.3937007874015748
        },
        {
          "duration": 1.3560871874999805,
          "durationTicks": 920,
          "midi": 73,
          "name": "C#5",
          "ticks": 58952,
          "time": 86.89570856250002,
          "velocity": 0.3937007874015748
        },
        {
          "duration": 0.8018602499999901,
          "durationTicks": 544,
          "midi": 74,
          "name": "D5",
          "ticks": 59904,
          "time": 88.29896400000001,
          "velocity": 0.3858267716535433
        },
        {
          "duration": 0.766484062499984,
          "durationTicks": 520,
          "midi": 71,
          "name": "B4",
          "ticks": 59904,
          "time": 88.29896400000001,
          "velocity": 0.3858267716535433
        },
        {
          "duration": 1.4032554375000075,
          "durationTicks": 952,
          "midi": 74,
          "name": "D5",
          "ticks": 60480,
          "time": 89.1479925,
          "velocity": 0.3858267716535433
        },
        {
          "duration": 1.4032554374999933,
          "durationTicks": 952,
          "midi": 69,
          "name": "A4",
          "ticks": 60488,
          "time": 89.15978456250001,
          "velocity": 0.3858267716535433
        },
        {
          "duration": 0.8254443750000178,
          "durationTicks": 560,
          "midi": 76,
          "name": "E5",
          "ticks": 61440,
          "time": 90.56304,
          "velocity": 0.3937007874015748
        },
        {
          "duration": 0.8077562812500076,
          "durationTicks": 548,
          "midi": 72,
          "name": "C5",
          "ticks": 61440,
          "time": 90.56304,
          "velocity": 0.3937007874015748
        },
        {
          "duration": 1.3442951250000021,
          "durationTicks": 912,
          "midi": 74,
          "name": "D5",
          "ticks": 62024,
          "time": 91.42386056250001,
          "velocity": 0.3937007874015748
        },
        {
          "duration": 1.3560871874999947,
          "durationTicks": 920,
          "midi": 71,
          "name": "B4",
          "ticks": 62024,
          "time": 91.42386056250001,
          "velocity": 0.3937007874015748
        },
        {
          "duration": 2.187427593750016,
          "durationTicks": 1484,
          "midi": 74,
          "name": "D5",
          "ticks": 62976,
          "time": 92.827116,
          "velocity": 0.3858267716535433
        },
        {
          "duration": 2.1638434687500023,
          "durationTicks": 1468,
          "midi": 69,
          "name": "A4",
          "ticks": 62976,
          "time": 92.827116,
          "velocity": 0.3858267716535433
        },
        {
          "duration": 0.8254443750000036,
          "durationTicks": 560,
          "midi": 78,
          "name": "F#5",
          "ticks": 64512,
          "time": 95.091192,
          "velocity": 0.3937007874015748
        },
        {
          "duration": 0.8077562812500076,
          "durationTicks": 548,
          "midi": 74,
          "name": "D5",
          "ticks": 64512,
          "time": 95.091192,
          "velocity": 0.3937007874015748
        },
        {
          "duration": 1.3442951250000021,
          "durationTicks": 912,
          "midi": 76,
          "name": "E5",
          "ticks": 65096,
          "time": 95.95201256250002,
          "velocity": 0.3937007874015748
        },
        {
          "duration": 1.3560871874999805,
          "durationTicks": 920,
          "midi": 73,
          "name": "C#5",
          "ticks": 65096,
          "time": 95.95201256250002,
          "velocity": 0.3937007874015748
        },
        {
          "duration": 0.8018602499999901,
          "durationTicks": 544,
          "midi": 74,
          "name": "D5",
          "ticks": 66048,
          "time": 97.35526800000001,
          "velocity": 0.3858267716535433
        },
        {
          "duration": 0.7664840624999982,
          "durationTicks": 520,
          "midi": 71,
          "name": "B4",
          "ticks": 66048,
          "time": 97.35526800000001,
          "velocity": 0.3858267716535433
        },
        {
          "duration": 1.4032554374999933,
          "durationTicks": 952,
          "midi": 74,
          "name": "D5",
          "ticks": 66624,
          "time": 98.20429650000001,
          "velocity": 0.3858267716535433
        },
        {
          "duration": 1.4032554374999933,
          "durationTicks": 952,
          "midi": 69,
          "name": "A4",
          "ticks": 66632,
          "time": 98.21608856250002,
          "velocity": 0.3858267716535433
        },
        {
          "duration": 0.8254443750000036,
          "durationTicks": 560,
          "midi": 76,
          "name": "E5",
          "ticks": 67584,
          "time": 99.61934400000001,
          "velocity": 0.3937007874015748
        },
        {
          "duration": 0.8077562812500076,
          "durationTicks": 548,
          "midi": 72,
          "name": "C5",
          "ticks": 67584,
          "time": 99.61934400000001,
          "velocity": 0.3937007874015748
        },
        {
          "duration": 1.3442951250000021,
          "durationTicks": 912,
          "midi": 74,
          "name": "D5",
          "ticks": 68168,
          "time": 100.48016456250001,
          "velocity": 0.3937007874015748
        },
        {
          "duration": 1.3560871874999947,
          "durationTicks": 920,
          "midi": 71,
          "name": "B4",
          "ticks": 68168,
          "time": 100.48016456250001,
          "velocity": 0.3937007874015748
        },
        {
          "duration": 2.1874275937500016,
          "durationTicks": 1484,
          "midi": 74,
          "name": "D5",
          "ticks": 69120,
          "time": 101.88342000000002,
          "velocity": 0.3858267716535433
        },
        {
          "duration": 2.163843468749988,
          "durationTicks": 1468,
          "midi": 69,
          "name": "A4",
          "ticks": 69120,
          "time": 101.88342000000002,
          "velocity": 0.3858267716535433
        },
        {
          "duration": 0.8254443750000178,
          "durationTicks": 560,
          "midi": 74,
          "name": "D5",
          "ticks": 70656,
          "time": 104.147496,
          "velocity": 0.3937007874015748
        },
        {
          "duration": 0.8077562812500076,
          "durationTicks": 548,
          "midi": 71,
          "name": "B4",
          "ticks": 70656,
          "time": 104.147496,
          "velocity": 0.3937007874015748
        },
        {
          "duration": 1.3442951250000021,
          "durationTicks": 912,
          "midi": 76,
          "name": "E5",
          "ticks": 71240,
          "time": 105.00831656250001,
          "velocity": 0.3937007874015748
        },
        {
          "duration": 1.3560871874999947,
          "durationTicks": 920,
          "midi": 73,
          "name": "C#5",
          "ticks": 71240,
          "time": 105.00831656250001,
          "velocity": 0.3937007874015748
        },
        {
          "duration": 0.8018602500000043,
          "durationTicks": 544,
          "midi": 73,
          "name": "C#5",
          "ticks": 72192,
          "time": 106.411572,
          "velocity": 0.3858267716535433
        },
        {
          "duration": 0.7664840624999982,
          "durationTicks": 520,
          "midi": 69,
          "name": "A4",
          "ticks": 72192,
          "time": 106.411572,
          "velocity": 0.3858267716535433
        },
        {
          "duration": 1.4032554374999933,
          "durationTicks": 952,
          "midi": 74,
          "name": "D5",
          "ticks": 72768,
          "time": 107.26060050000001,
          "velocity": 0.3858267716535433
        },
        {
          "duration": 1.4032554374999933,
          "durationTicks": 952,
          "midi": 71,
          "name": "B4",
          "ticks": 72776,
          "time": 107.27239256250002,
          "velocity": 0.3858267716535433
        },
        {
          "duration": 0.8254443750000036,
          "durationTicks": 560,
          "midi": 74,
          "name": "D5",
          "ticks": 73728,
          "time": 108.67564800000001,
          "velocity": 0.3937007874015748
        },
        {
          "duration": 0.8077562812500076,
          "durationTicks": 548,
          "midi": 71,
          "name": "B4",
          "ticks": 73728,
          "time": 108.67564800000001,
          "velocity": 0.3937007874015748
        },
        {
          "duration": 1.3442951250000021,
          "durationTicks": 912,
          "midi": 76,
          "name": "E5",
          "ticks": 74312,
          "time": 109.53646856250002,
          "velocity": 0.3937007874015748
        },
        {
          "duration": 1.3560871874999805,
          "durationTicks": 920,
          "midi": 73,
          "name": "C#5",
          "ticks": 74312,
          "time": 109.53646856250002,
          "velocity": 0.3937007874015748
        },
        {
          "duration": 0.8018602499999901,
          "durationTicks": 544,
          "midi": 73,
          "name": "C#5",
          "ticks": 75264,
          "time": 110.93972400000001,
          "velocity": 0.3858267716535433
        },
        {
          "duration": 0.7664840624999982,
          "durationTicks": 520,
          "midi": 69,
          "name": "A4",
          "ticks": 75264,
          "time": 110.93972400000001,
          "velocity": 0.3858267716535433
        },
        {
          "duration": 1.4032554374999933,
          "durationTicks": 952,
          "midi": 74,
          "name": "D5",
          "ticks": 75840,
          "time": 111.78875250000002,
          "velocity": 0.3858267716535433
        },
        {
          "duration": 1.4032554374999933,
          "durationTicks": 952,
          "midi": 71,
          "name": "B4",
          "ticks": 75848,
          "time": 111.80054456250002,
          "velocity": 0.3858267716535433
        },
        {
          "duration": 0.8254443750000036,
          "durationTicks": 560,
          "midi": 74,
          "name": "D5",
          "ticks": 76800,
          "time": 113.20380000000002,
          "velocity": 0.3937007874015748
        },
        {
          "duration": 0.8077562812499934,
          "durationTicks": 548,
          "midi": 71,
          "name": "B4",
          "ticks": 76800,
          "time": 113.20380000000002,
          "velocity": 0.3937007874015748
        },
        {
          "duration": 1.3442951250000021,
          "durationTicks": 912,
          "midi": 76,
          "name": "E5",
          "ticks": 77384,
          "time": 114.06462056250001,
          "velocity": 0.3937007874015748
        },
        {
          "duration": 1.3560871874999947,
          "durationTicks": 920,
          "midi": 73,
          "name": "C#5",
          "ticks": 77384,
          "time": 114.06462056250001,
          "velocity": 0.3937007874015748
        },
        {
          "duration": 0.8018602500000043,
          "durationTicks": 544,
          "midi": 73,
          "name": "C#5",
          "ticks": 78336,
          "time": 115.467876,
          "velocity": 0.3858267716535433
        },
        {
          "duration": 0.7664840624999982,
          "durationTicks": 520,
          "midi": 69,
          "name": "A4",
          "ticks": 78336,
          "time": 115.467876,
          "velocity": 0.3858267716535433
        },
        {
          "duration": 1.4032554374999933,
          "durationTicks": 952,
          "midi": 74,
          "name": "D5",
          "ticks": 78912,
          "time": 116.3169045,
          "velocity": 0.3858267716535433
        },
        {
          "duration": 1.4032554374999933,
          "durationTicks": 952,
          "midi": 71,
          "name": "B4",
          "ticks": 78920,
          "time": 116.32869656250001,
          "velocity": 0.3858267716535433
        },
        {
          "duration": 0.8254443750000036,
          "durationTicks": 560,
          "midi": 74,
          "name": "D5",
          "ticks": 79872,
          "time": 117.731952,
          "velocity": 0.3937007874015748
        },
        {
          "duration": 0.8077562812500076,
          "durationTicks": 548,
          "midi": 71,
          "name": "B4",
          "ticks": 79872,
          "time": 117.731952,
          "velocity": 0.3937007874015748
        },
        {
          "duration": 1.3442951250000021,
          "durationTicks": 912,
          "midi": 76,
          "name": "E5",
          "ticks": 80456,
          "time": 118.59277256250002,
          "velocity": 0.3937007874015748
        },
        {
          "duration": 1.3560871874999947,
          "durationTicks": 920,
          "midi": 73,
          "name": "C#5",
          "ticks": 80456,
          "time": 118.59277256250002,
          "velocity": 0.3937007874015748
        },
        {
          "duration": 0.8018602499999901,
          "durationTicks": 544,
          "midi": 73,
          "name": "C#5",
          "ticks": 81408,
          "time": 119.99602800000001,
          "velocity": 0.3858267716535433
        },
        {
          "duration": 0.7664840624999982,
          "durationTicks": 520,
          "midi": 69,
          "name": "A4",
          "ticks": 81408,
          "time": 119.99602800000001,
          "velocity": 0.3858267716535433
        },
        {
          "duration": 1.4032554374999933,
          "durationTicks": 952,
          "midi": 74,
          "name": "D5",
          "ticks": 81984,
          "time": 120.84505650000001,
          "velocity": 0.3858267716535433
        },
        {
          "duration": 1.4032554374999933,
          "durationTicks": 952,
          "midi": 71,
          "name": "B4",
          "ticks": 81992,
          "time": 120.85684856250002,
          "velocity": 0.3858267716535433
        },
        {
          "duration": 0.8254443750000036,
          "durationTicks": 560,
          "midi": 74,
          "name": "D5",
          "ticks": 82944,
          "time": 122.26010400000001,
          "velocity": 0.3937007874015748
        },
        {
          "duration": 0.8077562812500076,
          "durationTicks": 548,
          "midi": 71,
          "name": "B4",
          "ticks": 82944,
          "time": 122.26010400000001,
          "velocity": 0.3937007874015748
        },
        {
          "duration": 1.344295124999988,
          "durationTicks": 912,
          "midi": 76,
          "name": "E5",
          "ticks": 83528,
          "time": 123.12092456250002,
          "velocity": 0.3937007874015748
        },
        {
          "duration": 1.3560871874999805,
          "durationTicks": 920,
          "midi": 73,
          "name": "C#5",
          "ticks": 83528,
          "time": 123.12092456250002,
          "velocity": 0.3937007874015748
        },
        {
          "duration": 0.8018602499999901,
          "durationTicks": 544,
          "midi": 73,
          "name": "C#5",
          "ticks": 84480,
          "time": 124.52418000000002,
          "velocity": 0.3858267716535433
        },
        {
          "duration": 0.766484062499984,
          "durationTicks": 520,
          "midi": 69,
          "name": "A4",
          "ticks": 84480,
          "time": 124.52418000000002,
          "velocity": 0.3858267716535433
        },
        {
          "duration": 1.4032554375000075,
          "durationTicks": 952,
          "midi": 74,
          "name": "D5",
          "ticks": 85056,
          "time": 125.3732085,
          "velocity": 0.3858267716535433
        },
        {
          "duration": 1.4032554375000075,
          "durationTicks": 952,
          "midi": 71,
          "name": "B4",
          "ticks": 85064,
          "time": 125.38500056250001,
          "velocity": 0.3858267716535433
        },
        {
          "duration": 0.8254443750000036,
          "durationTicks": 560,
          "midi": 74,
          "name": "D5",
          "ticks": 86016,
          "time": 126.78825600000002,
          "velocity": 0.3937007874015748
        },
        {
          "duration": 0.8077562812499934,
          "durationTicks": 548,
          "midi": 71,
          "name": "B4",
          "ticks": 86016,
          "time": 126.78825600000002,
          "velocity": 0.3937007874015748
        },
        {
          "duration": 1.3442951250000164,
          "durationTicks": 912,
          "midi": 76,
          "name": "E5",
          "ticks": 86600,
          "time": 127.64907656250001,
          "velocity": 0.3937007874015748
        },
        {
          "duration": 1.3560871874999947,
          "durationTicks": 920,
          "midi": 73,
          "name": "C#5",
          "ticks": 86600,
          "time": 127.64907656250001,
          "velocity": 0.3937007874015748
        },
        {
          "duration": 0.8018602500000043,
          "durationTicks": 544,
          "midi": 73,
          "name": "C#5",
          "ticks": 87552,
          "time": 129.052332,
          "velocity": 0.3858267716535433
        },
        {
          "duration": 0.7664840625000124,
          "durationTicks": 520,
          "midi": 69,
          "name": "A4",
          "ticks": 87552,
          "time": 129.052332,
          "velocity": 0.3858267716535433
        },
        {
          "duration": 1.4032554375000075,
          "durationTicks": 952,
          "midi": 74,
          "name": "D5",
          "ticks": 88128,
          "time": 129.9013605,
          "velocity": 0.3858267716535433
        },
        {
          "duration": 1.4032554375000075,
          "durationTicks": 952,
          "midi": 71,
          "name": "B4",
          "ticks": 88136,
          "time": 129.91315256250002,
          "velocity": 0.3858267716535433
        },
        {
          "duration": 0.8254443749999893,
          "durationTicks": 560,
          "midi": 74,
          "name": "D5",
          "ticks": 89088,
          "time": 131.31640800000002,
          "velocity": 0.3937007874015748
        },
        {
          "duration": 0.8077562812499934,
          "durationTicks": 548,
          "midi": 71,
          "name": "B4",
          "ticks": 89088,
          "time": 131.31640800000002,
          "velocity": 0.3937007874015748
        },
        {
          "duration": 1.3442951250000021,
          "durationTicks": 912,
          "midi": 76,
          "name": "E5",
          "ticks": 89672,
          "time": 132.1772285625,
          "velocity": 0.3937007874015748
        },
        {
          "duration": 1.356087187500009,
          "durationTicks": 920,
          "midi": 73,
          "name": "C#5",
          "ticks": 89672,
          "time": 132.1772285625,
          "velocity": 0.3937007874015748
        },
        {
          "duration": 0.8018602500000043,
          "durationTicks": 544,
          "midi": 73,
          "name": "C#5",
          "ticks": 90624,
          "time": 133.580484,
          "velocity": 0.3858267716535433
        },
        {
          "duration": 0.766484062499984,
          "durationTicks": 520,
          "midi": 69,
          "name": "A4",
          "ticks": 90624,
          "time": 133.580484,
          "velocity": 0.3858267716535433
        },
        {
          "duration": 1.403255437499979,
          "durationTicks": 952,
          "midi": 74,
          "name": "D5",
          "ticks": 91200,
          "time": 134.42951250000002,
          "velocity": 0.3858267716535433
        },
        {
          "duration": 1.403255437499979,
          "durationTicks": 952,
          "midi": 71,
          "name": "B4",
          "ticks": 91208,
          "time": 134.44130456250002,
          "velocity": 0.3858267716535433
        },
        {
          "duration": 0.8254443750000178,
          "durationTicks": 560,
          "midi": 74,
          "name": "D5",
          "ticks": 92160,
          "time": 135.84456,
          "velocity": 0.3937007874015748
        },
        {
          "duration": 0.8077562812500219,
          "durationTicks": 548,
          "midi": 71,
          "name": "B4",
          "ticks": 92160,
          "time": 135.84456,
          "velocity": 0.3937007874015748
        },
        {
          "duration": 1.3442951250000021,
          "durationTicks": 912,
          "midi": 76,
          "name": "E5",
          "ticks": 92744,
          "time": 136.7053805625,
          "velocity": 0.3937007874015748
        },
        {
          "duration": 1.356087187500009,
          "durationTicks": 920,
          "midi": 73,
          "name": "C#5",
          "ticks": 92744,
          "time": 136.7053805625,
          "velocity": 0.3937007874015748
        },
        {
          "duration": 0.8018602499999758,
          "durationTicks": 544,
          "midi": 73,
          "name": "C#5",
          "ticks": 93696,
          "time": 138.10863600000002,
          "velocity": 0.3858267716535433
        },
        {
          "duration": 0.766484062499984,
          "durationTicks": 520,
          "midi": 69,
          "name": "A4",
          "ticks": 93696,
          "time": 138.10863600000002,
          "velocity": 0.3858267716535433
        },
        {
          "duration": 1.403255437499979,
          "durationTicks": 952,
          "midi": 74,
          "name": "D5",
          "ticks": 94272,
          "time": 138.95766450000002,
          "velocity": 0.3858267716535433
        },
        {
          "duration": 1.403255437499979,
          "durationTicks": 952,
          "midi": 71,
          "name": "B4",
          "ticks": 94280,
          "time": 138.96945656250003,
          "velocity": 0.3858267716535433
        },
        {
          "duration": 0.8254443750000178,
          "durationTicks": 560,
          "midi": 74,
          "name": "D5",
          "ticks": 95232,
          "time": 140.372712,
          "velocity": 0.3937007874015748
        },
        {
          "duration": 0.8077562812500219,
          "durationTicks": 548,
          "midi": 71,
          "name": "B4",
          "ticks": 95232,
          "time": 140.372712,
          "velocity": 0.3937007874015748
        },
        {
          "duration": 1.3442951250000021,
          "durationTicks": 912,
          "midi": 76,
          "name": "E5",
          "ticks": 95816,
          "time": 141.23353256250002,
          "velocity": 0.3937007874015748
        },
        {
          "duration": 1.3560871874999805,
          "durationTicks": 920,
          "midi": 73,
          "name": "C#5",
          "ticks": 95816,
          "time": 141.23353256250002,
          "velocity": 0.3937007874015748
        },
        {
          "duration": 0.8018602499999758,
          "durationTicks": 544,
          "midi": 73,
          "name": "C#5",
          "ticks": 96768,
          "time": 142.63678800000002,
          "velocity": 0.3858267716535433
        },
        {
          "duration": 0.766484062499984,
          "durationTicks": 520,
          "midi": 69,
          "name": "A4",
          "ticks": 96768,
          "time": 142.63678800000002,
          "velocity": 0.3858267716535433
        },
        {
          "duration": 1.4032554375000075,
          "durationTicks": 952,
          "midi": 74,
          "name": "D5",
          "ticks": 97344,
          "time": 143.4858165,
          "velocity": 0.3858267716535433
        },
        {
          "duration": 1.4032554375000075,
          "durationTicks": 952,
          "midi": 71,
          "name": "B4",
          "ticks": 97352,
          "time": 143.4976085625,
          "velocity": 0.3858267716535433
        },
        {
          "duration": 0.8254443749999893,
          "durationTicks": 560,
          "midi": 74,
          "name": "D5",
          "ticks": 98304,
          "time": 144.900864,
          "velocity": 0.3937007874015748
        },
        {
          "duration": 0.8077562812499934,
          "durationTicks": 548,
          "midi": 71,
          "name": "B4",
          "ticks": 98304,
          "time": 144.900864,
          "velocity": 0.3937007874015748
        },
        {
          "duration": 1.3442951250000021,
          "durationTicks": 912,
          "midi": 76,
          "name": "E5",
          "ticks": 98888,
          "time": 145.7616845625,
          "velocity": 0.3937007874015748
        },
        {
          "duration": 1.3560871875000373,
          "durationTicks": 920,
          "midi": 73,
          "name": "C#5",
          "ticks": 98888,
          "time": 145.7616845625,
          "velocity": 0.3937007874015748
        },
        {
          "duration": 0.8018602500000327,
          "durationTicks": 544,
          "midi": 73,
          "name": "C#5",
          "ticks": 99840,
          "time": 147.16494,
          "velocity": 0.3858267716535433
        },
        {
          "duration": 0.7664840625000124,
          "durationTicks": 520,
          "midi": 69,
          "name": "A4",
          "ticks": 99840,
          "time": 147.16494,
          "velocity": 0.3858267716535433
        },
        {
          "duration": 1.4032554375000075,
          "durationTicks": 952,
          "midi": 74,
          "name": "D5",
          "ticks": 100416,
          "time": 148.0139685,
          "velocity": 0.3858267716535433
        },
        {
          "duration": 1.4032554375000075,
          "durationTicks": 952,
          "midi": 71,
          "name": "B4",
          "ticks": 100424,
          "time": 148.0257605625,
          "velocity": 0.3858267716535433
        },
        {
          "duration": 0.8254443749999893,
          "durationTicks": 560,
          "midi": 78,
          "name": "F#5",
          "ticks": 101376,
          "time": 149.42901600000002,
          "velocity": 0.3937007874015748
        },
        {
          "duration": 0.8077562812499934,
          "durationTicks": 548,
          "midi": 74,
          "name": "D5",
          "ticks": 101376,
          "time": 149.42901600000002,
          "velocity": 0.3937007874015748
        },
        {
          "duration": 1.3442951250000021,
          "durationTicks": 912,
          "midi": 76,
          "name": "E5",
          "ticks": 101960,
          "time": 150.2898365625,
          "velocity": 0.3937007874015748
        },
        {
          "duration": 1.3560871875000373,
          "durationTicks": 920,
          "midi": 73,
          "name": "C#5",
          "ticks": 101960,
          "time": 150.2898365625,
          "velocity": 0.3937007874015748
        },
        {
          "duration": 0.8018602500000043,
          "durationTicks": 544,
          "midi": 74,
          "name": "D5",
          "ticks": 102912,
          "time": 151.693092,
          "velocity": 0.3858267716535433
        },
        {
          "duration": 0.7664840625000124,
          "durationTicks": 520,
          "midi": 71,
          "name": "B4",
          "ticks": 102912,
          "time": 151.693092,
          "velocity": 0.3858267716535433
        },
        {
          "duration": 1.4032554375000075,
          "durationTicks": 952,
          "midi": 74,
          "name": "D5",
          "ticks": 103488,
          "time": 152.5421205,
          "velocity": 0.3858267716535433
        },
        {
          "duration": 1.4032554375000075,
          "durationTicks": 952,
          "midi": 69,
          "name": "A4",
          "ticks": 103496,
          "time": 152.55391256250002,
          "velocity": 0.3858267716535433
        },
        {
          "duration": 0.8254443749999893,
          "durationTicks": 560,
          "midi": 76,
          "name": "E5",
          "ticks": 104448,
          "time": 153.95716800000002,
          "velocity": 0.3937007874015748
        },
        {
          "duration": 0.807756281249965,
          "durationTicks": 548,
          "midi": 72,
          "name": "C5",
          "ticks": 104448,
          "time": 153.95716800000002,
          "velocity": 0.3937007874015748
        },
        {
          "duration": 1.3442951250000021,
          "durationTicks": 912,
          "midi": 74,
          "name": "D5",
          "ticks": 105032,
          "time": 154.8179885625,
          "velocity": 0.3937007874015748
        },
        {
          "duration": 1.356087187500009,
          "durationTicks": 920,
          "midi": 71,
          "name": "B4",
          "ticks": 105032,
          "time": 154.8179885625,
          "velocity": 0.3937007874015748
        },
        {
          "duration": 2.1874275937499874,
          "durationTicks": 1484,
          "midi": 74,
          "name": "D5",
          "ticks": 105984,
          "time": 156.221244,
          "velocity": 0.3858267716535433
        },
        {
          "duration": 2.1638434687500023,
          "durationTicks": 1468,
          "midi": 69,
          "name": "A4",
          "ticks": 105984,
          "time": 156.221244,
          "velocity": 0.3858267716535433
        },
        {
          "duration": 0.8254443749999893,
          "durationTicks": 560,
          "midi": 78,
          "name": "F#5",
          "ticks": 138240,
          "time": 203.76684000000003,
          "velocity": 0.3937007874015748
        },
        {
          "duration": 0.807756281249965,
          "durationTicks": 548,
          "midi": 74,
          "name": "D5",
          "ticks": 138240,
          "time": 203.76684000000003,
          "velocity": 0.3937007874015748
        },
        {
          "duration": 1.3442951250000021,
          "durationTicks": 912,
          "midi": 76,
          "name": "E5",
          "ticks": 138824,
          "time": 204.6276605625,
          "velocity": 0.3937007874015748
        },
        {
          "duration": 1.356087187500009,
          "durationTicks": 920,
          "midi": 73,
          "name": "C#5",
          "ticks": 138824,
          "time": 204.6276605625,
          "velocity": 0.3937007874015748
        },
        {
          "duration": 0.8018602500000043,
          "durationTicks": 544,
          "midi": 74,
          "name": "D5",
          "ticks": 139776,
          "time": 206.03091600000002,
          "velocity": 0.3858267716535433
        },
        {
          "duration": 0.7664840625000124,
          "durationTicks": 520,
          "midi": 71,
          "name": "B4",
          "ticks": 139776,
          "time": 206.03091600000002,
          "velocity": 0.3858267716535433
        },
        {
          "duration": 1.4032554375000075,
          "durationTicks": 952,
          "midi": 74,
          "name": "D5",
          "ticks": 140352,
          "time": 206.87994450000002,
          "velocity": 0.3858267716535433
        },
        {
          "duration": 1.4032554375000075,
          "durationTicks": 952,
          "midi": 69,
          "name": "A4",
          "ticks": 140360,
          "time": 206.8917365625,
          "velocity": 0.3858267716535433
        },
        {
          "duration": 0.8254443749999893,
          "durationTicks": 560,
          "midi": 76,
          "name": "E5",
          "ticks": 141312,
          "time": 208.294992,
          "velocity": 0.3937007874015748
        },
        {
          "duration": 0.8077562812499934,
          "durationTicks": 548,
          "midi": 72,
          "name": "C5",
          "ticks": 141312,
          "time": 208.294992,
          "velocity": 0.3937007874015748
        },
        {
          "duration": 1.3442951250000021,
          "durationTicks": 912,
          "midi": 74,
          "name": "D5",
          "ticks": 141896,
          "time": 209.15581256250002,
          "velocity": 0.3937007874015748
        },
        {
          "duration": 1.356087187500009,
          "durationTicks": 920,
          "midi": 71,
          "name": "B4",
          "ticks": 141896,
          "time": 209.15581256250002,
          "velocity": 0.3937007874015748
        },
        {
          "duration": 2.1874275937499874,
          "durationTicks": 1484,
          "midi": 74,
          "name": "D5",
          "ticks": 142848,
          "time": 210.55906800000002,
          "velocity": 0.3858267716535433
        },
        {
          "duration": 2.1638434687500023,
          "durationTicks": 1468,
          "midi": 69,
          "name": "A4",
          "ticks": 142848,
          "time": 210.55906800000002,
          "velocity": 0.3858267716535433
        },
        {
          "duration": 0.8254443749999893,
          "durationTicks": 560,
          "midi": 78,
          "name": "F#5",
          "ticks": 144384,
          "time": 212.823144,
          "velocity": 0.3937007874015748
        },
        {
          "duration": 0.8077562812499934,
          "durationTicks": 548,
          "midi": 74,
          "name": "D5",
          "ticks": 144384,
          "time": 212.823144,
          "velocity": 0.3937007874015748
        },
        {
          "duration": 1.3442951250000021,
          "durationTicks": 912,
          "midi": 76,
          "name": "E5",
          "ticks": 144968,
          "time": 213.6839645625,
          "velocity": 0.3937007874015748
        },
        {
          "duration": 1.3560871875000373,
          "durationTicks": 920,
          "midi": 73,
          "name": "C#5",
          "ticks": 144968,
          "time": 213.6839645625,
          "velocity": 0.3937007874015748
        },
        {
          "duration": 0.8018602500000043,
          "durationTicks": 544,
          "midi": 74,
          "name": "D5",
          "ticks": 145920,
          "time": 215.08722000000003,
          "velocity": 0.3858267716535433
        },
        {
          "duration": 0.7664840625000124,
          "durationTicks": 520,
          "midi": 71,
          "name": "B4",
          "ticks": 145920,
          "time": 215.08722000000003,
          "velocity": 0.3858267716535433
        },
        {
          "duration": 1.403255437500036,
          "durationTicks": 952,
          "midi": 74,
          "name": "D5",
          "ticks": 146496,
          "time": 215.9362485,
          "velocity": 0.3858267716535433
        },
        {
          "duration": 1.4032554375000075,
          "durationTicks": 952,
          "midi": 69,
          "name": "A4",
          "ticks": 146504,
          "time": 215.9480405625,
          "velocity": 0.3858267716535433
        },
        {
          "duration": 0.8254443749999893,
          "durationTicks": 560,
          "midi": 76,
          "name": "E5",
          "ticks": 147456,
          "time": 217.35129600000002,
          "velocity": 0.3937007874015748
        },
        {
          "duration": 0.8077562812499934,
          "durationTicks": 548,
          "midi": 72,
          "name": "C5",
          "ticks": 147456,
          "time": 217.35129600000002,
          "velocity": 0.3937007874015748
        },
        {
          "duration": 1.3442951250000021,
          "durationTicks": 912,
          "midi": 74,
          "name": "D5",
          "ticks": 148040,
          "time": 218.2121165625,
          "velocity": 0.3937007874015748
        },
        {
          "duration": 1.3560871875000373,
          "durationTicks": 920,
          "midi": 71,
          "name": "B4",
          "ticks": 148040,
          "time": 218.2121165625,
          "velocity": 0.3937007874015748
        },
        {
          "duration": 2.1874275937499874,
          "durationTicks": 1484,
          "midi": 74,
          "name": "D5",
          "ticks": 148992,
          "time": 219.615372,
          "velocity": 0.3858267716535433
        },
        {
          "duration": 2.1638434687500308,
          "durationTicks": 1468,
          "midi": 69,
          "name": "A4",
          "ticks": 148992,
          "time": 219.615372,
          "velocity": 0.3858267716535433
        },
        {
          "duration": 0.8254443749999893,
          "durationTicks": 560,
          "midi": 78,
          "name": "F#5",
          "ticks": 150528,
          "time": 221.87944800000002,
          "velocity": 0.3937007874015748
        },
        {
          "duration": 0.8077562812499934,
          "durationTicks": 548,
          "midi": 74,
          "name": "D5",
          "ticks": 150528,
          "time": 221.87944800000002,
          "velocity": 0.3937007874015748
        },
        {
          "duration": 1.3442951250000021,
          "durationTicks": 912,
          "midi": 76,
          "name": "E5",
          "ticks": 151112,
          "time": 222.7402685625,
          "velocity": 0.3937007874015748
        },
        {
          "duration": 1.3560871875000373,
          "durationTicks": 920,
          "midi": 73,
          "name": "C#5",
          "ticks": 151112,
          "time": 222.7402685625,
          "velocity": 0.3937007874015748
        },
        {
          "duration": 0.8018602500000043,
          "durationTicks": 544,
          "midi": 74,
          "name": "D5",
          "ticks": 152064,
          "time": 224.143524,
          "velocity": 0.3858267716535433
        },
        {
          "duration": 0.7664840625000124,
          "durationTicks": 520,
          "midi": 71,
          "name": "B4",
          "ticks": 152064,
          "time": 224.143524,
          "velocity": 0.3858267716535433
        },
        {
          "duration": 1.4032554375000075,
          "durationTicks": 952,
          "midi": 74,
          "name": "D5",
          "ticks": 152640,
          "time": 224.99255250000002,
          "velocity": 0.3858267716535433
        },
        {
          "duration": 1.4032554375000075,
          "durationTicks": 952,
          "midi": 69,
          "name": "A4",
          "ticks": 152648,
          "time": 225.00434456250002,
          "velocity": 0.3858267716535433
        },
        {
          "duration": 0.8254443749999893,
          "durationTicks": 560,
          "midi": 76,
          "name": "E5",
          "ticks": 153600,
          "time": 226.40760000000003,
          "velocity": 0.3937007874015748
        },
        {
          "duration": 0.807756281249965,
          "durationTicks": 548,
          "midi": 72,
          "name": "C5",
          "ticks": 153600,
          "time": 226.40760000000003,
          "velocity": 0.3937007874015748
        },
        {
          "duration": 1.3442951250000021,
          "durationTicks": 912,
          "midi": 74,
          "name": "D5",
          "ticks": 154184,
          "time": 227.2684205625,
          "velocity": 0.3937007874015748
        },
        {
          "duration": 1.356087187500009,
          "durationTicks": 920,
          "midi": 71,
          "name": "B4",
          "ticks": 154184,
          "time": 227.2684205625,
          "velocity": 0.3937007874015748
        },
        {
          "duration": 2.1874275937499874,
          "durationTicks": 1484,
          "midi": 74,
          "name": "D5",
          "ticks": 155136,
          "time": 228.67167600000002,
          "velocity": 0.3858267716535433
        },
        {
          "duration": 2.1638434687500023,
          "durationTicks": 1468,
          "midi": 69,
          "name": "A4",
          "ticks": 155136,
          "time": 228.67167600000002,
          "velocity": 0.3858267716535433
        },
        {
          "duration": 0.8254443749999893,
          "durationTicks": 560,
          "midi": 78,
          "name": "F#5",
          "ticks": 156672,
          "time": 230.935752,
          "velocity": 0.3937007874015748
        },
        {
          "duration": 0.8077562812499934,
          "durationTicks": 548,
          "midi": 74,
          "name": "D5",
          "ticks": 156672,
          "time": 230.935752,
          "velocity": 0.3937007874015748
        },
        {
          "duration": 1.3442951250000021,
          "durationTicks": 912,
          "midi": 76,
          "name": "E5",
          "ticks": 157256,
          "time": 231.79657256250002,
          "velocity": 0.3937007874015748
        },
        {
          "duration": 1.356087187500009,
          "durationTicks": 920,
          "midi": 73,
          "name": "C#5",
          "ticks": 157256,
          "time": 231.79657256250002,
          "velocity": 0.3937007874015748
        },
        {
          "duration": 0.8018602500000043,
          "durationTicks": 544,
          "midi": 74,
          "name": "D5",
          "ticks": 158208,
          "time": 233.19982800000002,
          "velocity": 0.3858267716535433
        },
        {
          "duration": 0.7664840625000124,
          "durationTicks": 520,
          "midi": 71,
          "name": "B4",
          "ticks": 158208,
          "time": 233.19982800000002,
          "velocity": 0.3858267716535433
        },
        {
          "duration": 1.4032554375000075,
          "durationTicks": 952,
          "midi": 74,
          "name": "D5",
          "ticks": 158784,
          "time": 234.04885650000003,
          "velocity": 0.3858267716535433
        },
        {
          "duration": 1.4032554375000075,
          "durationTicks": 952,
          "midi": 69,
          "name": "A4",
          "ticks": 158792,
          "time": 234.0606485625,
          "velocity": 0.3858267716535433
        },
        {
          "duration": 0.8254443749999893,
          "durationTicks": 560,
          "midi": 76,
          "name": "E5",
          "ticks": 159744,
          "time": 235.463904,
          "velocity": 0.3937007874015748
        },
        {
          "duration": 0.8077562812499934,
          "durationTicks": 548,
          "midi": 72,
          "name": "C5",
          "ticks": 159744,
          "time": 235.463904,
          "velocity": 0.3937007874015748
        },
        {
          "duration": 1.3442951249999737,
          "durationTicks": 912,
          "midi": 74,
          "name": "D5",
          "ticks": 160328,
          "time": 236.32472456250002,
          "velocity": 0.3937007874015748
        },
        {
          "duration": 1.356087187500009,
          "durationTicks": 920,
          "midi": 71,
          "name": "B4",
          "ticks": 160328,
          "time": 236.32472456250002,
          "velocity": 0.3937007874015748
        },
        {
          "duration": 2.1874275937499874,
          "durationTicks": 1484,
          "midi": 74,
          "name": "D5",
          "ticks": 161280,
          "time": 237.72798000000003,
          "velocity": 0.3858267716535433
        },
        {
          "duration": 2.1638434687500023,
          "durationTicks": 1468,
          "midi": 69,
          "name": "A4",
          "ticks": 161280,
          "time": 237.72798000000003,
          "velocity": 0.3858267716535433
        }
      ],
      "endOfTrackTicks": 162816
    },
    {
      "channel": 0,
      "controlChanges": {
        "0": [
          {
            "number": 0,
            "ticks": 384,
            "time": 0.566019,
            "value": 0
          }
        ],
        "7": [
          {
            "number": 7,
            "ticks": 396,
            "time": 0.5837070937500001,
            "value": 0.7874015748031497
          }
        ],
        "10": [
          {
            "number": 10,
            "ticks": 396,
            "time": 0.5837070937500001,
            "value": 0.5039370078740157
          }
        ],
        "11": [
          {
            "number": 11,
            "ticks": 396,
            "time": 0.5837070937500001,
            "value": 1
          }
        ],
        "91": [
          {
            "number": 91,
            "ticks": 400,
            "time": 0.5896031250000001,
            "value": 1
          }
        ],
        "93": [
          {
            "number": 93,
            "ticks": 400,
            "time": 0.5896031250000001,
            "value": 0
          }
        ],
        "121": [
          {
            "number": 121,
            "ticks": 169728,
            "time": 250.18039800000003,
            "value": 1
          }
        ]
      },
      "pitchBends": [],
      "instrument": {
        "family": "piano",
        "number": 0,
        "name": "acoustic grand piano"
      },
      "name": "(c)92056G",
      "notes": [],
      "endOfTrackTicks": 170496
    },
    {
      "channel": 0,
      "controlChanges": {
        "0": [
          {
            "number": 0,
            "ticks": 404,
            "time": 0.59549915625,
            "value": 0
          }
        ]
      },
      "pitchBends": [],
      "instrument": {
        "family": "piano",
        "number": 0,
        "name": "acoustic grand piano"
      },
      "name": "",
      "notes": []
    },
    {
      "channel": 0,
      "controlChanges": {
        "7": [
          {
            "number": 7,
            "ticks": 416,
            "time": 0.61318725,
            "value": 1
          }
        ],
        "10": [
          {
            "number": 10,
            "ticks": 416,
            "time": 0.61318725,
            "value": 0.5039370078740157
          }
        ],
        "11": [
          {
            "number": 11,
            "ticks": 416,
            "time": 0.61318725,
            "value": 1
          }
        ],
        "91": [
          {
            "number": 91,
            "ticks": 420,
            "time": 0.61908328125,
            "value": 0.5511811023622047
          }
        ],
        "93": [
          {
            "number": 93,
            "ticks": 420,
            "time": 0.61908328125,
            "value": 0
          }
        ],
        "121": [
          {
            "number": 121,
            "ticks": 169748,
            "time": 250.20987815625,
            "value": 1
          }
        ]
      },
      "pitchBends": [],
      "instrument": {
        "family": "bass",
        "number": 33,
        "name": "electric bass (finger)"
      },
      "name": "",
      "notes": []
    },
    {
      "channel": 0,
      "controlChanges": {
        "0": [
          {
            "number": 0,
            "ticks": 424,
            "time": 0.6249793125,
            "value": 0.06299212598425197
          }
        ]
      },
      "pitchBends": [],
      "instrument": {
        "family": "piano",
        "number": 0,
        "name": "acoustic grand piano"
      },
      "name": "",
      "notes": []
    },
    {
      "channel": 0,
      "controlChanges": {
        "7": [
          {
            "number": 7,
            "ticks": 436,
            "time": 0.6426674062500001,
            "value": 1
          }
        ],
        "10": [
          {
            "number": 10,
            "ticks": 436,
            "time": 0.6426674062500001,
            "value": 0.5039370078740157
          }
        ],
        "11": [
          {
            "number": 11,
            "ticks": 436,
            "time": 0.6426674062500001,
            "value": 1
          }
        ],
        "91": [
          {
            "number": 91,
            "ticks": 440,
            "time": 0.6485634375,
            "value": 0.7874015748031497
          }
        ],
        "93": [
          {
            "number": 93,
            "ticks": 440,
            "time": 0.6485634375,
            "value": 0.15748031496062992
          }
        ],
        "121": [
          {
            "number": 121,
            "ticks": 169768,
            "time": 250.23935831250003,
            "value": 1
          }
        ]
      },
      "pitchBends": [],
      "instrument": {
        "family": "guitar",
        "number": 28,
        "name": "electric guitar (muted)"
      },
      "name": "",
      "notes": []
    },
    {
      "channel": 0,
      "controlChanges": {
        "0": [
          {
            "number": 0,
            "ticks": 444,
            "time": 0.65445946875,
            "value": 0
          }
        ]
      },
      "pitchBends": [],
      "instrument": {
        "family": "piano",
        "number": 0,
        "name": "acoustic grand piano"
      },
      "name": "",
      "notes": []
    },
    {
      "channel": 0,
      "controlChanges": {
        "7": [
          {
            "number": 7,
            "ticks": 456,
            "time": 0.6721475625000001,
            "value": 0.7874015748031497
          }
        ],
        "10": [
          {
            "number": 10,
            "ticks": 456,
            "time": 0.6721475625000001,
            "value": 0.5039370078740157
          }
        ],
        "11": [
          {
            "number": 11,
            "ticks": 456,
            "time": 0.6721475625000001,
            "value": 1
          }
        ],
        "91": [
          {
            "number": 91,
            "ticks": 460,
            "time": 0.6780435937500001,
            "value": 0.7874015748031497
          }
        ],
        "93": [
          {
            "number": 93,
            "ticks": 460,
            "time": 0.6780435937500001,
            "value": 0.31496062992125984
          }
        ],
        "121": [
          {
            "number": 121,
            "ticks": 169788,
            "time": 250.26883846875003,
            "value": 1
          }
        ]
      },
      "pitchBends": [],
      "instrument": {
        "family": "bass",
        "number": 35,
        "name": "fretless bass"
      },
      "name": "",
      "notes": []
    },
    {
      "channel": 0,
      "controlChanges": {
        "0": [
          {
            "number": 0,
            "ticks": 464,
            "time": 0.683939625,
            "value": 0
          }
        ]
      },
      "pitchBends": [],
      "instrument": {
        "family": "piano",
        "number": 0,
        "name": "acoustic grand piano"
      },
      "name": "",
      "notes": []
    },
    {
      "channel": 0,
      "controlChanges": {
        "7": [
          {
            "number": 7,
            "ticks": 476,
            "time": 0.7016277187500001,
            "value": 1
          }
        ],
        "10": [
          {
            "number": 10,
            "ticks": 476,
            "time": 0.7016277187500001,
            "value": 0.7559055118110236
          }
        ],
        "11": [
          {
            "number": 11,
            "ticks": 476,
            "time": 0.7016277187500001,
            "value": 1
          }
        ],
        "91": [
          {
            "number": 91,
            "ticks": 480,
            "time": 0.70752375,
            "value": 0.7874015748031497
          }
        ],
        "93": [
          {
            "number": 93,
            "ticks": 480,
            "time": 0.70752375,
            "value": 0.15748031496062992
          }
        ],
        "121": [
          {
            "number": 121,
            "ticks": 169808,
            "time": 250.298318625,
            "value": 1
          }
        ]
      },
      "pitchBends": [],
      "instrument": {
        "family": "guitar",
        "number": 27,
        "name": "electric guitar (clean)"
      },
      "name": "",
      "notes": []
    },
    {
      "channel": 0,
      "controlChanges": {
        "0": [
          {
            "number": 0,
            "ticks": 484,
            "time": 0.71341978125,
            "value": 0
          }
        ]
      },
      "pitchBends": [],
      "instrument": {
        "family": "piano",
        "number": 0,
        "name": "acoustic grand piano"
      },
      "name": "",
      "notes": []
    },
    {
      "channel": 0,
      "controlChanges": {
        "7": [
          {
            "number": 7,
            "ticks": 496,
            "time": 0.7311078750000001,
            "value": 1
          }
        ],
        "10": [
          {
            "number": 10,
            "ticks": 496,
            "time": 0.7311078750000001,
            "value": 0.5039370078740157
          }
        ],
        "11": [
          {
            "number": 11,
            "ticks": 496,
            "time": 0.7311078750000001,
            "value": 1
          }
        ],
        "91": [
          {
            "number": 91,
            "ticks": 500,
            "time": 0.73700390625,
            "value": 0.7874015748031497
          }
        ],
        "93": [
          {
            "number": 93,
            "ticks": 500,
            "time": 0.73700390625,
            "value": 0
          }
        ],
        "121": [
          {
            "number": 121,
            "ticks": 169828,
            "time": 250.32779878125004,
            "value": 1
          }
        ]
      },
      "pitchBends": [],
      "instrument": {
        "family": "guitar",
        "number": 29,
        "name": "overdriven guitar"
      },
      "name": "",
      "notes": []
    },
    {
      "channel": 0,
      "controlChanges": {
        "0": [
          {
            "number": 0,
            "ticks": 504,
            "time": 0.7428999375,
            "value": 0
          }
        ]
      },
      "pitchBends": [],
      "instrument": {
        "family": "piano",
        "number": 0,
        "name": "acoustic grand piano"
      },
      "name": "",
      "notes": []
    },
    {
      "channel": 0,
      "controlChanges": {
        "7": [
          {
            "number": 7,
            "ticks": 516,
            "time": 0.7605880312500001,
            "value": 1
          }
        ],
        "10": [
          {
            "number": 10,
            "ticks": 516,
            "time": 0.7605880312500001,
            "value": 0.5039370078740157
          }
        ],
        "11": [
          {
            "number": 11,
            "ticks": 516,
            "time": 0.7605880312500001,
            "value": 1
          }
        ],
        "91": [
          {
            "number": 91,
            "ticks": 520,
            "time": 0.7664840625000001,
            "value": 0.7874015748031497
          }
        ],
        "93": [
          {
            "number": 93,
            "ticks": 520,
            "time": 0.7664840625000001,
            "value": 0
          }
        ],
        "121": [
          {
            "number": 121,
            "ticks": 169848,
            "time": 250.3572789375,
            "value": 1
          }
        ]
      },
      "pitchBends": [],
      "instrument": {
        "family": "ensemble",
        "number": 50,
        "name": "synthstrings 1"
      },
      "name": "",
      "notes": []
    },
    {
      "channel": 0,
      "controlChanges": {
        "0": [
          {
            "number": 0,
            "ticks": 524,
            "time": 0.77238009375,
            "value": 0
          }
        ]
      },
      "pitchBends": [],
      "instrument": {
        "family": "piano",
        "number": 0,
        "name": "acoustic grand piano"
      },
      "name": "",
      "notes": []
    },
    {
      "channel": 0,
      "controlChanges": {
        "7": [
          {
            "number": 7,
            "ticks": 536,
            "time": 0.7900681875000001,
            "value": 0.7874015748031497
          }
        ],
        "10": [
          {
            "number": 10,
            "ticks": 536,
            "time": 0.7900681875000001,
            "value": 0.7559055118110236
          }
        ],
        "11": [
          {
            "number": 11,
            "ticks": 536,
            "time": 0.7900681875000001,
            "value": 1
          }
        ],
        "91": [
          {
            "number": 91,
            "ticks": 540,
            "time": 0.7959642187500001,
            "value": 0.7874015748031497
          }
        ],
        "93": [
          {
            "number": 93,
            "ticks": 540,
            "time": 0.7959642187500001,
            "value": 0
          }
        ],
        "121": [
          {
            "number": 121,
            "ticks": 169868,
            "time": 250.38675909375002,
            "value": 1
          }
        ]
      },
      "pitchBends": [],
      "instrument": {
        "family": "chromatic percussion",
        "number": 8,
        "name": "celesta"
      },
      "name": "",
      "notes": []
    },
    {
      "channel": 0,
      "controlChanges": {
        "0": [
          {
            "number": 0,
            "ticks": 544,
            "time": 0.8018602500000002,
            "value": 0.06299212598425197
          }
        ]
      },
      "pitchBends": [],
      "instrument": {
        "family": "piano",
        "number": 0,
        "name": "acoustic grand piano"
      },
      "name": "",
      "notes": []
    },
    {
      "channel": 0,
      "controlChanges": {
        "7": [
          {
            "number": 7,
            "ticks": 556,
            "time": 0.8195483437500001,
            "value": 1
          }
        ],
        "10": [
          {
            "number": 10,
            "ticks": 556,
            "time": 0.8195483437500001,
            "value": 0.25196850393700787
          }
        ],
        "11": [
          {
            "number": 11,
            "ticks": 556,
            "time": 0.8195483437500001,
            "value": 1
          }
        ],
        "91": [
          {
            "number": 91,
            "ticks": 560,
            "time": 0.825444375,
            "value": 0.7874015748031497
          }
        ],
        "93": [
          {
            "number": 93,
            "ticks": 560,
            "time": 0.825444375,
            "value": 0.15748031496062992
          }
        ],
        "121": [
          {
            "number": 121,
            "ticks": 169888,
            "time": 250.41623925000005,
            "value": 1
          }
        ]
      },
      "pitchBends": [],
      "instrument": {
        "family": "guitar",
        "number": 28,
        "name": "electric guitar (muted)"
      },
      "name": "",
      "notes": []
    },
    {
      "channel": 0,
      "controlChanges": {
        "0": [
          {
            "number": 0,
            "ticks": 564,
            "time": 0.83134040625,
            "value": 0
          }
        ]
      },
      "pitchBends": [],
      "instrument": {
        "family": "piano",
        "number": 0,
        "name": "acoustic grand piano"
      },
      "name": "",
      "notes": []
    },
    {
      "channel": 0,
      "controlChanges": {
        "7": [
          {
            "number": 7,
            "ticks": 576,
            "time": 0.8490285000000001,
            "value": 1
          }
        ],
        "10": [
          {
            "number": 10,
            "ticks": 576,
            "time": 0.8490285000000001,
            "value": 0.5039370078740157
          }
        ],
        "11": [
          {
            "number": 11,
            "ticks": 576,
            "time": 0.8490285000000001,
            "value": 1
          }
        ],
        "91": [
          {
            "number": 91,
            "ticks": 580,
            "time": 0.8549245312500001,
            "value": 0.47244094488188976
          }
        ],
        "93": [
          {
            "number": 93,
            "ticks": 580,
            "time": 0.8549245312500001,
            "value": 0
          }
        ],
        "121": [
          {
            "number": 121,
            "ticks": 169908,
            "time": 250.44571940625002,
            "value": 1
          }
        ]
      },
      "pitchBends": [],
      "instrument": {
        "family": "organ",
        "number": 16,
        "name": "drawbar organ"
      },
      "name": "",
      "notes": []
    },
    {
      "channel": 0,
      "controlChanges": {
        "0": [
          {
            "number": 0,
            "ticks": 584,
            "time": 0.8608205625,
            "value": 0.06299212598425197
          }
        ]
      },
      "pitchBends": [],
      "instrument": {
        "family": "piano",
        "number": 0,
        "name": "acoustic grand piano"
      },
      "name": "",
      "notes": []
    },
    {
      "channel": 0,
      "controlChanges": {
        "7": [
          {
            "number": 7,
            "ticks": 596,
            "time": 0.8785086562500001,
            "value": 1
          }
        ],
        "10": [
          {
            "number": 10,
            "ticks": 596,
            "time": 0.8785086562500001,
            "value": 0.7559055118110236
          }
        ],
        "11": [
          {
            "number": 11,
            "ticks": 596,
            "time": 0.8785086562500001,
            "value": 1
          }
        ],
        "91": [
          {
            "number": 91,
            "ticks": 600,
            "time": 0.8844046875000001,
            "value": 0.7874015748031497
          }
        ],
        "93": [
          {
            "number": 93,
            "ticks": 600,
            "time": 0.8844046875000001,
            "value": 0.15748031496062992
          }
        ],
        "121": [
          {
            "number": 121,
            "ticks": 169928,
            "time": 250.47519956250002,
            "value": 1
          }
        ]
      },
      "pitchBends": [],
      "instrument": {
        "family": "guitar",
        "number": 28,
        "name": "electric guitar (muted)"
      },
      "name": "",
      "notes": []
    },
    {
      "channel": 0,
      "controlChanges": {
        "0": [
          {
            "number": 0,
            "ticks": 604,
            "time": 0.8903007187500002,
            "value": 0
          }
        ]
      },
      "pitchBends": [],
      "instrument": {
        "family": "piano",
        "number": 0,
        "name": "acoustic grand piano"
      },
      "name": "",
      "notes": []
    },
    {
      "channel": 0,
      "controlChanges": {
        "7": [
          {
            "number": 7,
            "ticks": 616,
            "time": 0.9079888125000001,
            "value": 1
          }
        ],
        "10": [
          {
            "number": 10,
            "ticks": 616,
            "time": 0.9079888125000001,
            "value": 0.5039370078740157
          }
        ],
        "11": [
          {
            "number": 11,
            "ticks": 616,
            "time": 0.9079888125000001,
            "value": 1
          }
        ],
        "91": [
          {
            "number": 91,
            "ticks": 620,
            "time": 0.91388484375,
            "value": 0.7874015748031497
          }
        ],
        "93": [
          {
            "number": 93,
            "ticks": 620,
            "time": 0.91388484375,
            "value": 0
          }
        ],
        "121": [
          {
            "number": 121,
            "ticks": 169948,
            "time": 250.50467971875003,
            "value": 1
          }
        ]
      },
      "pitchBends": [],
      "instrument": {
        "family": "guitar",
        "number": 29,
        "name": "overdriven guitar"
      },
      "name": "",
      "notes": []
    },
    {
      "channel": 0,
      "controlChanges": {
        "0": [
          {
            "number": 0,
            "ticks": 624,
            "time": 0.919780875,
            "value": 1
          }
        ]
      },
      "pitchBends": [],
      "instrument": {
        "family": "piano",
        "number": 0,
        "name": "acoustic grand piano"
      },
      "name": "",
      "notes": []
    },
    {
      "channel": 0,
      "controlChanges": {
        "7": [
          {
            "number": 7,
            "ticks": 636,
            "time": 0.9374689687500001,
            "value": 0.3937007874015748
          }
        ],
        "10": [
          {
            "number": 10,
            "ticks": 636,
            "time": 0.9374689687500001,
            "value": 0.5039370078740157
          }
        ],
        "11": [
          {
            "number": 11,
            "ticks": 636,
            "time": 0.9374689687500001,
            "value": 1
          }
        ],
        "91": [
          {
            "number": 91,
            "ticks": 640,
            "time": 0.9433650000000001,
            "value": 0.7874015748031497
          }
        ],
        "93": [
          {
            "number": 93,
            "ticks": 640,
            "time": 0.9433650000000001,
            "value": 0
          }
        ],
        "121": [
          {
            "number": 121,
            "ticks": 169968,
            "time": 250.53415987500003,
            "value": 1
          }
        ]
      },
      "pitchBends": [],
      "instrument": {
        "family": "ensemble",
        "number": 50,
        "name": "synthstrings 1"
      },
      "name": "",
      "notes": []
    },
    {
      "channel": 0,
      "controlChanges": {
        "0": [
          {
            "number": 0,
            "ticks": 644,
            "time": 0.94926103125,
            "value": 0
          }
        ]
      },
      "pitchBends": [],
      "instrument": {
        "family": "piano",
        "number": 0,
        "name": "acoustic grand piano"
      },
      "name": "",
      "notes": []
    },
    {
      "channel": 0,
      "controlChanges": {
        "7": [
          {
            "number": 7,
            "ticks": 656,
            "time": 0.9669491250000001,
            "value": 0.8661417322834646
          }
        ],
        "10": [
          {
            "number": 10,
            "ticks": 656,
            "time": 0.9669491250000001,
            "value": 0.5039370078740157
          }
        ],
        "11": [
          {
            "number": 11,
            "ticks": 656,
            "time": 0.9669491250000001,
            "value": 1
          }
        ],
        "91": [
          {
            "number": 91,
            "ticks": 660,
            "time": 0.9728451562500001,
            "value": 0.7874015748031497
          }
        ],
        "93": [
          {
            "number": 93,
            "ticks": 660,
            "time": 0.9728451562500001,
            "value": 0.6929133858267716
          }
        ],
        "121": [
          {
            "number": 121,
            "ticks": 169988,
            "time": 250.56364003125,
            "value": 1
          }
        ]
      },
      "pitchBends": [],
      "instrument": {
        "family": "synth pad",
        "number": 94,
        "name": "pad 7 (halo)"
      },
      "name": "",
      "notes": []
    }
  ]
}