{
    "header": {
      "keySignatures": [
        {
          "key": "G",
          "scale": "major",
          "ticks": 0
        }
      ],
      "meta": [],
      "name": "流沙-陶喆",
      "ppq": 480,
      "tempos": [
        {
          "bpm": 120,
          "ticks": 0
        },
        {
          "bpm": 30,
          "ticks": 143520
        }
      ],
      "timeSignatures": [
        {
          "ticks": 0,
          "timeSignature": [
            4,
            4
          ],
          "measures": 0
        },
        {
          "ticks": 49920,
          "timeSignature": [
            2,
            4
          ],
          "measures": 26
        }
      ]
    },
    "tracks": [
      {
        "channel": 1,
        "controlChanges": {
          "6": [
            {
              "number": 6,
              "ticks": 0,
              "time": 0,
              "value": 0.06299212598425197
            }
          ],
          "7": [
            {
              "number": 7,
              "ticks": 0,
              "time": 0,
              "value": 0.8031496062992126
            },
            {
              "number": 7,
              "ticks": 0,
              "time": 0,
              "value": 0.8031496062992126
            }
          ],
          "10": [
            {
              "number": 10,
              "ticks": 0,
              "time": 0,
              "value": 0.5039370078740157
            },
            {
              "number": 10,
              "ticks": 0,
              "time": 0,
              "value": 0.5039370078740157
            }
          ],
          "91": [
            {
              "number": 91,
              "ticks": 0,
              "time": 0,
              "value": 0
            },
            {
              "number": 91,
              "ticks": 0,
              "time": 0,
              "value": 0
            }
          ],
          "93": [
            {
              "number": 93,
              "ticks": 0,
              "time": 0,
              "value": 0
            },
            {
              "number": 93,
              "ticks": 0,
              "time": 0,
              "value": 0
            }
          ],
          "100": [
            {
              "number": 100,
              "ticks": 0,
              "time": 0,
              "value": 0
            },
            {
              "number": 100,
              "ticks": 0,
              "time": 0,
              "value": 0
            }
          ],
          "101": [
            {
              "number": 101,
              "ticks": 0,
              "time": 0,
              "value": 0
            },
            {
              "number": 101,
              "ticks": 0,
              "time": 0,
              "value": 0
            }
          ]
        },
        "pitchBends": [
          {
            "ticks": 0,
            "time": 0,
            "value": 0
          },
          {
            "ticks": 10800,
            "time": 11.25,
            "value": 0.125
          },
          {
            "ticks": 10800,
            "time": 11.25,
            "value": 0.125
          },
          {
            "ticks": 10800,
            "time": 11.25,
            "value": 0.125
          },
          {
            "ticks": 10860,
            "time": 11.3125,
            "value": 0.25
          },
          {
            "ticks": 10920,
            "time": 11.375,
            "value": 0.375
          },
          {
            "ticks": 10980,
            "time": 11.4375,
            "value": 0.5
          },
          {
            "ticks": 11040,
            "time": 11.5,
            "value": 0
          },
          {
            "ticks": 11040,
            "time": 11.5,
            "value": 0
          },
          {
            "ticks": 11040,
            "time": 11.5,
            "value": 0
          },
          {
            "ticks": 37680,
            "time": 39.25,
            "value": 0.125
          },
          {
            "ticks": 37680,
            "time": 39.25,
            "value": 0.125
          },
          {
            "ticks": 37680,
            "time": 39.25,
            "value": 0.125
          },
          {
            "ticks": 37740,
            "time": 39.3125,
            "value": 0.25
          },
          {
            "ticks": 37800,
            "time": 39.375,
            "value": 0.375
          },
          {
            "ticks": 37860,
            "time": 39.4375,
            "value": 0.5
          },
          {
            "ticks": 37920,
            "time": 39.5,
            "value": 0
          },
          {
            "ticks": 37920,
            "time": 39.5,
            "value": 0
          },
          {
            "ticks": 37920,
            "time": 39.5,
            "value": 0
          }
        ],
        "instrument": {
          "family": "piano",
          "number": 0,
          "name": "acoustic guitar (steel)"
        },
        "name": "14339_",
        "notes": [
          {
            "duration": 1,
            "durationTicks": 960,
            "midi": 43,
            "name": "G2",
            "ticks": 0,
            "time": 0,
            "velocity": 0.7480314960629921
          },
          {
            "duration": 0.75,
            "durationTicks": 720,
            "midi": 59,
            "name": "B3",
            "ticks": 0,
            "time": 0,
            "velocity": 0.7480314960629921
          },
          {
            "duration": 1.25,
            "durationTicks": 1200,
            "midi": 50,
            "name": "D3",
            "ticks": 240,
            "time": 0.25,
            "velocity": 0.7480314960629921
          },
          {
            "duration": 0.5,
            "durationTicks": 480,
            "midi": 55,
            "name": "G3",
            "ticks": 480,
            "time": 0.5,
            "velocity": 0.7480314960629921
          },
          {
            "duration": 2,
            "durationTicks": 1920,
            "midi": 59,
            "name": "B3",
            "ticks": 720,
            "time": 0.75,
            "velocity": 0.7480314960629921
          },
          {
            "duration": 1,
            "durationTicks": 960,
            "midi": 42,
            "name": "F#2",
            "ticks": 960,
            "time": 1,
            "velocity": 0.7480314960629921
          },
          {
            "duration": 0.75,
            "durationTicks": 720,
            "midi": 57,
            "name": "A3",
            "ticks": 960,
            "time": 1,
            "velocity": 0.7480314960629921
          },
          {
            "duration": 2,
            "durationTicks": 1920,
            "midi": 50,
            "name": "D3",
            "ticks": 1200,
            "time": 1.25,
            "velocity": 0.7480314960629921
          },
          {
            "duration": 0.75,
            "durationTicks": 720,
            "midi": 54,
            "name": "F#3",
            "ticks": 1440,
            "time": 1.5,
            "velocity": 0.7480314960629921
          },
          {
            "duration": 0.25,
            "durationTicks": 240,
            "midi": 57,
            "name": "A3",
            "ticks": 1680,
            "time": 1.75,
            "velocity": 0.7480314960629921
          },
          {
            "duration": 2.25,
            "durationTicks": 2160,
            "midi": 40,
            "name": "E2",
            "ticks": 1920,
            "time": 2,
            "velocity": 0.7480314960629921
          },
          {
            "duration": 0.5,
            "durationTicks": 480,
            "midi": 55,
            "name": "G3",
            "ticks": 1920,
            "time": 2,
            "velocity": 0.7480314960629921
          },
          {
            "duration": 1.25,
            "durationTicks": 1200,
            "midi": 50,
            "name": "D3",
            "ticks": 2160,
            "time": 2.25,
            "velocity": 0.7480314960629921
          },
          {
            "duration": 0.5,
            "durationTicks": 480,
            "midi": 55,
            "name": "G3",
            "ticks": 2400,
            "time": 2.5,
            "velocity": 0.7480314960629921
          },
          {
            "duration": 1,
            "durationTicks": 960,
            "midi": 59,
            "name": "B3",
            "ticks": 2640,
            "time": 2.75,
            "velocity": 0.7480314960629921
          },
          {
            "duration": 0.5,
            "durationTicks": 480,
            "midi": 55,
            "name": "G3",
            "ticks": 2880,
            "time": 3,
            "velocity": 0.7480314960629921
          },
          {
            "duration": 2,
            "durationTicks": 1920,
            "midi": 50,
            "name": "D3",
            "ticks": 3120,
            "time": 3.25,
            "velocity": 0.7480314960629921
          },
          {
            "duration": 0.75,
            "durationTicks": 720,
            "midi": 55,
            "name": "G3",
            "ticks": 3360,
            "time": 3.5,
            "velocity": 0.7480314960629921
          },
          {
            "duration": 0.25,
            "durationTicks": 240,
            "midi": 59,
            "name": "B3",
            "ticks": 3600,
            "time": 3.75,
            "velocity": 0.7480314960629921
          },
          {
            "duration": 1,
            "durationTicks": 960,
            "midi": 48,
            "name": "C3",
            "ticks": 3840,
            "time": 4,
            "velocity": 0.7480314960629921
          },
          {
            "duration": 0.75,
            "durationTicks": 720,
            "midi": 60,
            "name": "C4",
            "ticks": 3840,
            "time": 4,
            "velocity": 0.7480314960629921
          },
          {
            "duration": 1.25,
            "durationTicks": 1200,
            "midi": 55,
            "name": "G3",
            "ticks": 4080,
            "time": 4.25,
            "velocity": 0.7480314960629921
          },
          {
            "duration": 2.25,
            "durationTicks": 2160,
            "midi": 64,
            "name": "E4",
            "ticks": 4320,
            "time": 4.5,
            "velocity": 0.7480314960629921
          },
          {
            "duration": 0.25,
            "durationTicks": 240,
            "midi": 60,
            "name": "C4",
            "ticks": 4560,
            "time": 4.75,
            "velocity": 0.7480314960629921
          },
          {
            "duration": 1,
            "durationTicks": 960,
            "midi": 47,
            "name": "B2",
            "ticks": 4800,
            "time": 5,
            "velocity": 0.7480314960629921
          },
          {
            "duration": 0.75,
            "durationTicks": 720,
            "midi": 62,
            "name": "D4",
            "ticks": 4800,
            "time": 5,
            "velocity": 0.7480314960629921
          },
          {
            "duration": 1,
            "durationTicks": 960,
            "midi": 54,
            "name": "F#3",
            "ticks": 5040,
            "time": 5.25,
            "velocity": 0.7480314960629921
          },
          {
            "duration": 0.5,
            "durationTicks": 480,
            "midi": 57,
            "name": "A3",
            "ticks": 5280,
            "time": 5.5,
            "velocity": 0.7480314960629921
          },
          {
            "duration": 1,
            "durationTicks": 960,
            "midi": 62,
            "name": "D4",
            "ticks": 5520,
            "time": 5.75,
            "velocity": 0.7480314960629921
          },
          {
            "duration": 2.25,
            "durationTicks": 2160,
            "midi": 45,
            "name": "A2",
            "ticks": 5760,
            "time": 6,
            "velocity": 0.7480314960629921
          },
          {
            "duration": 0.5,
            "durationTicks": 480,
            "midi": 55,
            "name": "G3",
            "ticks": 5760,
            "time": 6,
            "velocity": 0.7480314960629921
          },
          {
            "duration": 1,
            "durationTicks": 960,
            "midi": 52,
            "name": "E3",
            "ticks": 6000,
            "time": 6.25,
            "velocity": 0.7480314960629921
          },
          {
            "duration": 0.5,
            "durationTicks": 480,
            "midi": 55,
            "name": "G3",
            "ticks": 6240,
            "time": 6.5,
            "velocity": 0.7480314960629921
          },
          {
            "duration": 1.25,
            "durationTicks": 1200,
            "midi": 60,
            "name": "C4",
            "ticks": 6480,
            "time": 6.75,
            "velocity": 0.7480314960629921
          },
          {
            "duration": 0.5,
            "durationTicks": 480,
            "midi": 55,
            "name": "G3",
            "ticks": 6720,
            "time": 7,
            "velocity": 0.7480314960629921
          },
          {
            "duration": 1,
            "durationTicks": 960,
            "midi": 52,
            "name": "E3",
            "ticks": 6960,
            "time": 7.25,
            "velocity": 0.7480314960629921
          },
          {
            "duration": 0.25,
            "durationTicks": 240,
            "midi": 55,
            "name": "G3",
            "ticks": 7200,
            "time": 7.5,
            "velocity": 0.7480314960629921
          },
          {
            "duration": 0.125,
            "durationTicks": 120,
            "midi": 55,
            "name": "G3",
            "ticks": 7440,
            "time": 7.75,
            "velocity": 0.7480314960629921
          },
          {
            "duration": 0.625,
            "durationTicks": 600,
            "midi": 57,
            "name": "A3",
            "ticks": 7560,
            "time": 7.875,
            "velocity": 0.5590551181102362
          },
          {
            "duration": 1,
            "durationTicks": 960,
            "midi": 43,
            "name": "G2",
            "ticks": 7680,
            "time": 8,
            "velocity": 0.7480314960629921
          },
          {
            "duration": 0.75,
            "durationTicks": 720,
            "midi": 59,
            "name": "B3",
            "ticks": 7680,
            "time": 8,
            "velocity": 0.7480314960629921
          },
          {
            "duration": 1.25,
            "durationTicks": 1200,
            "midi": 50,
            "name": "D3",
            "ticks": 7920,
            "time": 8.25,
            "velocity": 0.7480314960629921
          },
          {
            "duration": 0.5,
            "durationTicks": 480,
            "midi": 55,
            "name": "G3",
            "ticks": 8160,
            "time": 8.5,
            "velocity": 0.7480314960629921
          },
          {
            "duration": 1.25,
            "durationTicks": 1200,
            "midi": 59,
            "name": "B3",
            "ticks": 8400,
            "time": 8.75,
            "velocity": 0.7480314960629921
          },
          {
            "duration": 1,
            "durationTicks": 960,
            "midi": 42,
            "name": "F#2",
            "ticks": 8640,
            "time": 9,
            "velocity": 0.7480314960629921
          },
          {
            "duration": 0.75,
            "durationTicks": 720,
            "midi": 57,
            "name": "A3",
            "ticks": 8640,
            "time": 9,
            "velocity": 0.7480314960629921
          },
          {
            "duration": 2.25,
            "durationTicks": 2160,
            "midi": 50,
            "name": "D3",
            "ticks": 8880,
            "time": 9.25,
            "velocity": 0.7480314960629921
          },
          {
            "duration": 0.75,
            "durationTicks": 720,
            "midi": 54,
            "name": "F#3",
            "ticks": 9120,
            "time": 9.5,
            "velocity": 0.7480314960629921
          },
          {
            "duration": 0.75,
            "durationTicks": 720,
            "midi": 57,
            "name": "A3",
            "ticks": 9360,
            "time": 9.75,
            "velocity": 0.7480314960629921
          },
          {
            "duration": 2.25,
            "durationTicks": 2160,
            "midi": 40,
            "name": "E2",
            "ticks": 9600,
            "time": 10,
            "velocity": 0.7480314960629921
          },
          {
            "duration": 0.75,
            "durationTicks": 720,
            "midi": 59,
            "name": "B3",
            "ticks": 9600,
            "time": 10,
            "velocity": 0.7480314960629921
          },
          {
            "duration": 0.75,
            "durationTicks": 720,
            "midi": 52,
            "name": "E3",
            "ticks": 9840,
            "time": 10.25,
            "velocity": 0.7480314960629921
          },
          {
            "duration": 0.5,
            "durationTicks": 480,
            "midi": 55,
            "name": "G3",
            "ticks": 10080,
            "time": 10.5,
            "velocity": 0.7480314960629921
          },
          {
            "duration": 0.25,
            "durationTicks": 240,
            "midi": 59,
            "name": "B3",
            "ticks": 10320,
            "time": 10.75,
            "velocity": 0.7480314960629921
          },
          {
            "duration": 0.5,
            "durationTicks": 480,
            "midi": 50,
            "name": "D3",
            "ticks": 10560,
            "time": 11,
            "velocity": 0.7480314960629921
          },
          {
            "duration": 0.5,
            "durationTicks": 480,
            "midi": 57,
            "name": "A3",
            "ticks": 10560,
            "time": 11,
            "velocity": 0.7480314960629921
          },
          {
            "duration": 0.5,
            "durationTicks": 480,
            "midi": 60,
            "name": "C4",
            "ticks": 10560,
            "time": 11,
            "velocity": 0.7480314960629921
          },
          {
            "duration": 1.75,
            "durationTicks": 1680,
            "midi": 55,
            "name": "G3",
            "ticks": 11040,
            "time": 11.5,
            "velocity": 0.7480314960629921
          },
          {
            "duration": 0.75,
            "durationTicks": 720,
            "midi": 59,
            "name": "B3",
            "ticks": 11040,
            "time": 11.5,
            "velocity": 0.7480314960629921
          },
          {
            "duration": 0.5,
            "durationTicks": 480,
            "midi": 62,
            "name": "D4",
            "ticks": 11040,
            "time": 11.5,
            "velocity": 0.7480314960629921
          },
          {
            "duration": 1,
            "durationTicks": 960,
            "midi": 48,
            "name": "C3",
            "ticks": 11520,
            "time": 12,
            "velocity": 0.7480314960629921
          },
          {
            "duration": 0.75,
            "durationTicks": 720,
            "midi": 64,
            "name": "E4",
            "ticks": 11520,
            "time": 12,
            "velocity": 0.7480314960629921
          },
          {
            "duration": 0.75,
            "durationTicks": 720,
            "midi": 59,
            "name": "B3",
            "ticks": 11760,
            "time": 12.25,
            "velocity": 0.7480314960629921
          },
          {
            "duration": 2.25,
            "durationTicks": 2160,
            "midi": 67,
            "name": "G4",
            "ticks": 12000,
            "time": 12.5,
            "velocity": 0.7480314960629921
          },
          {
            "duration": 0.25,
            "durationTicks": 240,
            "midi": 64,
            "name": "E4",
            "ticks": 12240,
            "time": 12.75,
            "velocity": 0.7480314960629921
          },
          {
            "duration": 1,
            "durationTicks": 960,
            "midi": 47,
            "name": "B2",
            "ticks": 12480,
            "time": 13,
            "velocity": 0.7480314960629921
          },
          {
            "duration": 0.75,
            "durationTicks": 720,
            "midi": 59,
            "name": "B3",
            "ticks": 12480,
            "time": 13,
            "velocity": 0.7480314960629921
          },
          {
            "duration": 0.5,
            "durationTicks": 480,
            "midi": 62,
            "name": "D4",
            "ticks": 12480,
            "time": 13,
            "velocity": 0.7480314960629921
          },
          {
            "duration": 1,
            "durationTicks": 960,
            "midi": 54,
            "name": "F#3",
            "ticks": 12720,
            "time": 13.25,
            "velocity": 0.7480314960629921
          },
          {
            "duration": 0.5,
            "durationTicks": 480,
            "midi": 62,
            "name": "D4",
            "ticks": 12960,
            "time": 13.5,
            "velocity": 0.7480314960629921
          },
          {
            "duration": 0.75,
            "durationTicks": 720,
            "midi": 59,
            "name": "B3",
            "ticks": 13200,
            "time": 13.75,
            "velocity": 0.7480314960629921
          },
          {
            "duration": 2,
            "durationTicks": 1920,
            "midi": 45,
            "name": "A2",
            "ticks": 13440,
            "time": 14,
            "velocity": 0.7480314960629921
          },
          {
            "duration": 0.75,
            "durationTicks": 720,
            "midi": 60,
            "name": "C4",
            "ticks": 13440,
            "time": 14,
            "velocity": 0.7480314960629921
          },
          {
            "duration": 0.75,
            "durationTicks": 720,
            "midi": 52,
            "name": "E3",
            "ticks": 13680,
            "time": 14.25,
            "velocity": 0.7480314960629921
          },
          {
            "duration": 0.5,
            "durationTicks": 480,
            "midi": 55,
            "name": "G3",
            "ticks": 13920,
            "time": 14.5,
            "velocity": 0.7480314960629921
          },
          {
            "duration": 0.25,
            "durationTicks": 240,
            "midi": 60,
            "name": "C4",
            "ticks": 14160,
            "time": 14.75,
            "velocity": 0.7480314960629921
          },
          {
            "duration": 2.25,
            "durationTicks": 2160,
            "midi": 50,
            "name": "D3",
            "ticks": 14400,
            "time": 15,
            "velocity": 0.7480314960629921
          },
          {
            "duration": 0.5,
            "durationTicks": 480,
            "midi": 55,
            "name": "G3",
            "ticks": 14400,
            "time": 15,
            "velocity": 0.7480314960629921
          },
          {
            "duration": 0.5,
            "durationTicks": 480,
            "midi": 60,
            "name": "C4",
            "ticks": 14400,
            "time": 15,
            "velocity": 0.7480314960629921
          },
          {
            "duration": 2.25,
            "durationTicks": 2160,
            "midi": 55,
            "name": "G3",
            "ticks": 14880,
            "time": 15.5,
            "velocity": 0.7480314960629921
          },
          {
            "duration": 0.75,
            "durationTicks": 720,
            "midi": 60,
            "name": "C4",
            "ticks": 14880,
            "time": 15.5,
            "velocity": 0.7480314960629921
          },
          {
            "duration": 0.5,
            "durationTicks": 480,
            "midi": 64,
            "name": "E4",
            "ticks": 14880,
            "time": 15.5,
            "velocity": 0.7480314960629921
          },
          {
            "duration": 2,
            "durationTicks": 1920,
            "midi": 48,
            "name": "C3",
            "ticks": 15360,
            "time": 16,
            "velocity": 0.7480314960629921
          },
          {
            "duration": 0.5,
            "durationTicks": 480,
            "midi": 67,
            "name": "G4",
            "ticks": 15360,
            "time": 16,
            "velocity": 0.7480314960629921
          },
          {
            "duration": 1,
            "durationTicks": 960,
            "midi": 59,
            "name": "B3",
            "ticks": 15600,
            "time": 16.25,
            "velocity": 0.7480314960629921
          },
          {
            "duration": 0.25,
            "durationTicks": 240,
            "midi": 66,
            "name": "F#4",
            "ticks": 15840,
            "time": 16.5,
            "velocity": 0.7480314960629921
          },
          {
            "duration": 2.25,
            "durationTicks": 2160,
            "midi": 64,
            "name": "E4",
            "ticks": 16080,
            "time": 16.75,
            "velocity": 0.7480314960629921
          },
          {
            "duration": 1.5,
            "durationTicks": 1440,
            "midi": 62,
            "name": "D4",
            "ticks": 16560,
            "time": 17.25,
            "velocity": 0.7480314960629921
          },
          {
            "duration": 0.125,
            "durationTicks": 120,
            "midi": 57,
            "name": "A3",
            "ticks": 17040,
            "time": 17.75,
            "velocity": 0.7480314960629921
          },
          {
            "duration": 0.625,
            "durationTicks": 600,
            "midi": 59,
            "name": "B3",
            "ticks": 17160,
            "time": 17.875,
            "velocity": 0.5590551181102362
          },
          {
            "duration": 2.25,
            "durationTicks": 2160,
            "midi": 47,
            "name": "B2",
            "ticks": 17280,
            "time": 18,
            "velocity": 0.7480314960629921
          },
          {
            "duration": 1.75,
            "durationTicks": 1680,
            "midi": 54,
            "name": "F#3",
            "ticks": 17520,
            "time": 18.25,
            "velocity": 0.7480314960629921
          },
          {
            "duration": 0.75,
            "durationTicks": 720,
            "midi": 59,
            "name": "B3",
            "ticks": 17760,
            "time": 18.5,
            "velocity": 0.7480314960629921
          },
          {
            "duration": 0.75,
            "durationTicks": 720,
            "midi": 63,
            "name": "D#4",
            "ticks": 18000,
            "time": 18.75,
            "velocity": 0.7480314960629921
          },
          {
            "duration": 0.75,
            "durationTicks": 720,
            "midi": 66,
            "name": "F#4",
            "ticks": 18240,
            "time": 19,
            "velocity": 0.7480314960629921
          },
          {
            "duration": 1,
            "durationTicks": 960,
            "midi": 59,
            "name": "B3",
            "ticks": 18480,
            "time": 19.25,
            "velocity": 0.7480314960629921
          },
          {
            "duration": 1,
            "durationTicks": 960,
            "midi": 63,
            "name": "D#4",
            "ticks": 18720,
            "time": 19.5,
            "velocity": 0.7480314960629921
          },
          {
            "duration": 0.25,
            "durationTicks": 240,
            "midi": 66,
            "name": "F#4",
            "ticks": 18960,
            "time": 19.75,
            "velocity": 0.7480314960629921
          },
          {
            "duration": 1,
            "durationTicks": 960,
            "midi": 52,
            "name": "E3",
            "ticks": 19200,
            "time": 20,
            "velocity": 0.7480314960629921
          },
          {
            "duration": 1,
            "durationTicks": 960,
            "midi": 64,
            "name": "E4",
            "ticks": 19200,
            "time": 20,
            "velocity": 0.7480314960629921
          },
          {
            "duration": 0.5,
            "durationTicks": 480,
            "midi": 55,
            "name": "G3",
            "ticks": 19440,
            "time": 20.25,
            "velocity": 0.7480314960629921
          },
          {
            "duration": 1,
            "durationTicks": 960,
            "midi": 59,
            "name": "B3",
            "ticks": 19680,
            "time": 20.5,
            "velocity": 0.7480314960629921
          },
          {
            "duration": 0.5,
            "durationTicks": 480,
            "midi": 55,
            "name": "G3",
            "ticks": 19920,
            "time": 20.75,
            "velocity": 0.7480314960629921
          },
          {
            "duration": 0.125,
            "durationTicks": 120,
            "midi": 64,
            "name": "E4",
            "ticks": 20160,
            "time": 21,
            "velocity": 0.7480314960629921
          },
          {
            "duration": 2.5,
            "durationTicks": 2400,
            "midi": 50,
            "name": "D3",
            "ticks": 20160,
            "time": 21,
            "velocity": 0.7480314960629921
          },
          {
            "duration": 0.875,
            "durationTicks": 840,
            "midi": 66,
            "name": "F#4",
            "ticks": 20280,
            "time": 21.125,
            "velocity": 0.5590551181102362
          },
          {
            "duration": 0.5,
            "durationTicks": 480,
            "midi": 55,
            "name": "G3",
            "ticks": 20400,
            "time": 21.25,
            "velocity": 0.7480314960629921
          },
          {
            "duration": 1,
            "durationTicks": 960,
            "midi": 59,
            "name": "B3",
            "ticks": 20640,
            "time": 21.5,
            "velocity": 0.7480314960629921
          },
          {
            "duration": 0.5,
            "durationTicks": 480,
            "midi": 55,
            "name": "G3",
            "ticks": 20880,
            "time": 21.75,
            "velocity": 0.7480314960629921
          },
          {
            "duration": 2,
            "durationTicks": 1920,
            "midi": 45,
            "name": "A2",
            "ticks": 21120,
            "time": 22,
            "velocity": 0.7480314960629921
          },
          {
            "duration": 0.75,
            "durationTicks": 720,
            "midi": 64,
            "name": "E4",
            "ticks": 21120,
            "time": 22,
            "velocity": 0.7480314960629921
          },
          {
            "duration": 2.25,
            "durationTicks": 2160,
            "midi": 55,
            "name": "G3",
            "ticks": 21360,
            "time": 22.25,
            "velocity": 0.7480314960629921
          },
          {
            "duration": 1.5,
            "durationTicks": 1440,
            "midi": 61,
            "name": "C#4",
            "ticks": 21600,
            "time": 22.5,
            "velocity": 0.7480314960629921
          },
          {
            "duration": 2.25,
            "durationTicks": 2160,
            "midi": 64,
            "name": "E4",
            "ticks": 21840,
            "time": 22.75,
            "velocity": 0.7480314960629921
          },
          {
            "duration": 2.5,
            "durationTicks": 2400,
            "midi": 45,
            "name": "A2",
            "ticks": 23040,
            "time": 24,
            "velocity": 0.7480314960629921
          },
          {
            "duration": 0.5,
            "durationTicks": 480,
            "midi": 60,
            "name": "C4",
            "ticks": 23040,
            "time": 24,
            "velocity": 0.7480314960629921
          },
          {
            "duration": 1.75,
            "durationTicks": 1680,
            "midi": 52,
            "name": "E3",
            "ticks": 23280,
            "time": 24.25,
            "velocity": 0.7480314960629921
          },
          {
            "duration": 0.75,
            "durationTicks": 720,
            "midi": 59,
            "name": "B3",
            "ticks": 23520,
            "time": 24.5,
            "velocity": 0.7480314960629921
          },
          {
            "duration": 1,
            "durationTicks": 960,
            "midi": 57,
            "name": "A3",
            "ticks": 23760,
            "time": 24.75,
            "velocity": 0.7480314960629921
          },
          {
            "duration": 0.25,
            "durationTicks": 240,
            "midi": 60,
            "name": "C4",
            "ticks": 24240,
            "time": 25.25,
            "velocity": 0.7480314960629921
          },
          {
            "duration": 0.5,
            "durationTicks": 480,
            "midi": 59,
            "name": "B3",
            "ticks": 24480,
            "time": 25.5,
            "velocity": 0.7480314960629921
          },
          {
            "duration": 0.25,
            "durationTicks": 240,
            "midi": 57,
            "name": "A3",
            "ticks": 24720,
            "time": 25.75,
            "velocity": 0.7480314960629921
          },
          {
            "duration": 2.25,
            "durationTicks": 2160,
            "midi": 50,
            "name": "D3",
            "ticks": 24960,
            "time": 26,
            "velocity": 0.7480314960629921
          },
          {
            "duration": 2.25,
            "durationTicks": 2160,
            "midi": 55,
            "name": "G3",
            "ticks": 24960,
            "time": 26,
            "velocity": 0.7480314960629921
          },
          {
            "duration": 2,
            "durationTicks": 1920,
            "midi": 60,
            "name": "C4",
            "ticks": 24960,
            "time": 26,
            "velocity": 0.7480314960629921
          },
          {
            "duration": 2.25,
            "durationTicks": 2160,
            "midi": 64,
            "name": "E4",
            "ticks": 24960,
            "time": 26,
            "velocity": 0.7480314960629921
          },
          {
            "duration": 1,
            "durationTicks": 960,
            "midi": 43,
            "name": "G2",
            "ticks": 26880,
            "time": 28,
            "velocity": 0.7480314960629921
          },
          {
            "duration": 0.75,
            "durationTicks": 720,
            "midi": 59,
            "name": "B3",
            "ticks": 26880,
            "time": 28,
            "velocity": 0.7480314960629921
          },
          {
            "duration": 1.25,
            "durationTicks": 1200,
            "midi": 50,
            "name": "D3",
            "ticks": 27120,
            "time": 28.25,
            "velocity": 0.7480314960629921
          },
          {
            "duration": 0.5,
            "durationTicks": 480,
            "midi": 55,
            "name": "G3",
            "ticks": 27360,
            "time": 28.5,
            "velocity": 0.7480314960629921
          },
          {
            "duration": 2,
            "durationTicks": 1920,
            "midi": 59,
            "name": "B3",
            "ticks": 27600,
            "time": 28.75,
            "velocity": 0.7480314960629921
          },
          {
            "duration": 1,
            "durationTicks": 960,
            "midi": 42,
            "name": "F#2",
            "ticks": 27840,
            "time": 29,
            "velocity": 0.7480314960629921
          },
          {
            "duration": 0.75,
            "durationTicks": 720,
            "midi": 57,
            "name": "A3",
            "ticks": 27840,
            "time": 29,
            "velocity": 0.7480314960629921
          },
          {
            "duration": 2,
            "durationTicks": 1920,
            "midi": 50,
            "name": "D3",
            "ticks": 28080,
            "time": 29.25,
            "velocity": 0.7480314960629921
          },
          {
            "duration": 0.75,
            "durationTicks": 720,
            "midi": 54,
            "name": "F#3",
            "ticks": 28320,
            "time": 29.5,
            "velocity": 0.7480314960629921
          },
          {
            "duration": 0.25,
            "durationTicks": 240,
            "midi": 57,
            "name": "A3",
            "ticks": 28560,
            "time": 29.75,
            "velocity": 0.7480314960629921
          },
          {
            "duration": 2.25,
            "durationTicks": 2160,
            "midi": 40,
            "name": "E2",
            "ticks": 28800,
            "time": 30,
            "velocity": 0.7480314960629921
          },
          {
            "duration": 0.5,
            "durationTicks": 480,
            "midi": 55,
            "name": "G3",
            "ticks": 28800,
            "time": 30,
            "velocity": 0.7480314960629921
          },
          {
            "duration": 1.25,
            "durationTicks": 1200,
            "midi": 50,
            "name": "D3",
            "ticks": 29040,
            "time": 30.25,
            "velocity": 0.7480314960629921
          },
          {
            "duration": 0.5,
            "durationTicks": 480,
            "midi": 55,
            "name": "G3",
            "ticks": 29280,
            "time": 30.5,
            "velocity": 0.7480314960629921
          },
          {
            "duration": 1,
            "durationTicks": 960,
            "midi": 59,
            "name": "B3",
            "ticks": 29520,
            "time": 30.75,
            "velocity": 0.7480314960629921
          },
          {
            "duration": 0.5,
            "durationTicks": 480,
            "midi": 55,
            "name": "G3",
            "ticks": 29760,
            "time": 31,
            "velocity": 0.7480314960629921
          },
          {
            "duration": 2,
            "durationTicks": 1920,
            "midi": 50,
            "name": "D3",
            "ticks": 30000,
            "time": 31.25,
            "velocity": 0.7480314960629921
          },
          {
            "duration": 0.75,
            "durationTicks": 720,
            "midi": 55,
            "name": "G3",
            "ticks": 30240,
            "time": 31.5,
            "velocity": 0.7480314960629921
          },
          {
            "duration": 0.25,
            "durationTicks": 240,
            "midi": 59,
            "name": "B3",
            "ticks": 30480,
            "time": 31.75,
            "velocity": 0.7480314960629921
          },
          {
            "duration": 1,
            "durationTicks": 960,
            "midi": 48,
            "name": "C3",
            "ticks": 30720,
            "time": 32,
            "velocity": 0.7480314960629921
          },
          {
            "duration": 0.75,
            "durationTicks": 720,
            "midi": 60,
            "name": "C4",
            "ticks": 30720,
            "time": 32,
            "velocity": 0.7480314960629921
          },
          {
            "duration": 1.25,
            "durationTicks": 1200,
            "midi": 55,
            "name": "G3",
            "ticks": 30960,
            "time": 32.25,
            "velocity": 0.7480314960629921
          },
          {
            "duration": 2.25,
            "durationTicks": 2160,
            "midi": 64,
            "name": "E4",
            "ticks": 31200,
            "time": 32.5,
            "velocity": 0.7480314960629921
          },
          {
            "duration": 0.25,
            "durationTicks": 240,
            "midi": 60,
            "name": "C4",
            "ticks": 31440,
            "time": 32.75,
            "velocity": 0.7480314960629921
          },
          {
            "duration": 1,
            "durationTicks": 960,
            "midi": 47,
            "name": "B2",
            "ticks": 31680,
            "time": 33,
            "velocity": 0.7480314960629921
          },
          {
            "duration": 0.75,
            "durationTicks": 720,
            "midi": 62,
            "name": "D4",
            "ticks": 31680,
            "time": 33,
            "velocity": 0.7480314960629921
          },
          {
            "duration": 1,
            "durationTicks": 960,
            "midi": 54,
            "name": "F#3",
            "ticks": 31920,
            "time": 33.25,
            "velocity": 0.7480314960629921
          },
          {
            "duration": 0.5,
            "durationTicks": 480,
            "midi": 57,
            "name": "A3",
            "ticks": 32160,
            "time": 33.5,
            "velocity": 0.7480314960629921
          },
          {
            "duration": 1,
            "durationTicks": 960,
            "midi": 62,
            "name": "D4",
            "ticks": 32400,
            "time": 33.75,
            "velocity": 0.7480314960629921
          },
          {
            "duration": 2.25,
            "durationTicks": 2160,
            "midi": 45,
            "name": "A2",
            "ticks": 32640,
            "time": 34,
            "velocity": 0.7480314960629921
          },
          {
            "duration": 0.5,
            "durationTicks": 480,
            "midi": 55,
            "name": "G3",
            "ticks": 32640,
            "time": 34,
            "velocity": 0.7480314960629921
          },
          {
            "duration": 1,
            "durationTicks": 960,
            "midi": 52,
            "name": "E3",
            "ticks": 32880,
            "time": 34.25,
            "velocity": 0.7480314960629921
          },
          {
            "duration": 0.5,
            "durationTicks": 480,
            "midi": 55,
            "name": "G3",
            "ticks": 33120,
            "time": 34.5,
            "velocity": 0.7480314960629921
          },
          {
            "duration": 1.25,
            "durationTicks": 1200,
            "midi": 60,
            "name": "C4",
            "ticks": 33360,
            "time": 34.75,
            "velocity": 0.7480314960629921
          },
          {
            "duration": 0.5,
            "durationTicks": 480,
            "midi": 55,
            "name": "G3",
            "ticks": 33600,
            "time": 35,
            "velocity": 0.7480314960629921
          },
          {
            "duration": 1,
            "durationTicks": 960,
            "midi": 52,
            "name": "E3",
            "ticks": 33840,
            "time": 35.25,
            "velocity": 0.7480314960629921
          },
          {
            "duration": 0.25,
            "durationTicks": 240,
            "midi": 55,
            "name": "G3",
            "ticks": 34080,
            "time": 35.5,
            "velocity": 0.7480314960629921
          },
          {
            "duration": 0.125,
            "durationTicks": 120,
            "midi": 55,
            "name": "G3",
            "ticks": 34320,
            "time": 35.75,
            "velocity": 0.7480314960629921
          },
          {
            "duration": 0.625,
            "durationTicks": 600,
            "midi": 57,
            "name": "A3",
            "ticks": 34440,
            "time": 35.875,
            "velocity": 0.5590551181102362
          },
          {
            "duration": 1,
            "durationTicks": 960,
            "midi": 43,
            "name": "G2",
            "ticks": 34560,
            "time": 36,
            "velocity": 0.7480314960629921
          },
          {
            "duration": 0.75,
            "durationTicks": 720,
            "midi": 59,
            "name": "B3",
            "ticks": 34560,
            "time": 36,
            "velocity": 0.7480314960629921
          },
          {
            "duration": 1.25,
            "durationTicks": 1200,
            "midi": 50,
            "name": "D3",
            "ticks": 34800,
            "time": 36.25,
            "velocity": 0.7480314960629921
          },
          {
            "duration": 0.5,
            "durationTicks": 480,
            "midi": 55,
            "name": "G3",
            "ticks": 35040,
            "time": 36.5,
            "velocity": 0.7480314960629921
          },
          {
            "duration": 1.25,
            "durationTicks": 1200,
            "midi": 59,
            "name": "B3",
            "ticks": 35280,
            "time": 36.75,
            "velocity": 0.7480314960629921
          },
          {
            "duration": 1,
            "durationTicks": 960,
            "midi": 42,
            "name": "F#2",
            "ticks": 35520,
            "time": 37,
            "velocity": 0.7480314960629921
          },
          {
            "duration": 0.75,
            "durationTicks": 720,
            "midi": 57,
            "name": "A3",
            "ticks": 35520,
            "time": 37,
            "velocity": 0.7480314960629921
          },
          {
            "duration": 2.25,
            "durationTicks": 2160,
            "midi": 50,
            "name": "D3",
            "ticks": 35760,
            "time": 37.25,
            "velocity": 0.7480314960629921
          },
          {
            "duration": 0.75,
            "durationTicks": 720,
            "midi": 54,
            "name": "F#3",
            "ticks": 36000,
            "time": 37.5,
            "velocity": 0.7480314960629921
          },
          {
            "duration": 0.75,
            "durationTicks": 720,
            "midi": 57,
            "name": "A3",
            "ticks": 36240,
            "time": 37.75,
            "velocity": 0.7480314960629921
          },
          {
            "duration": 2.25,
            "durationTicks": 2160,
            "midi": 40,
            "name": "E2",
            "ticks": 36480,
            "time": 38,
            "velocity": 0.7480314960629921
          },
          {
            "duration": 0.75,
            "durationTicks": 720,
            "midi": 59,
            "name": "B3",
            "ticks": 36480,
            "time": 38,
            "velocity": 0.7480314960629921
          },
          {
            "duration": 0.75,
            "durationTicks": 720,
            "midi": 52,
            "name": "E3",
            "ticks": 36720,
            "time": 38.25,
            "velocity": 0.7480314960629921
          },
          {
            "duration": 0.5,
            "durationTicks": 480,
            "midi": 55,
            "name": "G3",
            "ticks": 36960,
            "time": 38.5,
            "velocity": 0.7480314960629921
          },
          {
            "duration": 0.25,
            "durationTicks": 240,
            "midi": 59,
            "name": "B3",
            "ticks": 37200,
            "time": 38.75,
            "velocity": 0.7480314960629921
          },
          {
            "duration": 0.5,
            "durationTicks": 480,
            "midi": 50,
            "name": "D3",
            "ticks": 37440,
            "time": 39,
            "velocity": 0.7480314960629921
          },
          {
            "duration": 0.5,
            "durationTicks": 480,
            "midi": 57,
            "name": "A3",
            "ticks": 37440,
            "time": 39,
            "velocity": 0.7480314960629921
          },
          {
            "duration": 0.5,
            "durationTicks": 480,
            "midi": 60,
            "name": "C4",
            "ticks": 37440,
            "time": 39,
            "velocity": 0.7480314960629921
          },
          {
            "duration": 1.75,
            "durationTicks": 1680,
            "midi": 55,
            "name": "G3",
            "ticks": 37920,
            "time": 39.5,
            "velocity": 0.7480314960629921
          },
          {
            "duration": 0.75,
            "durationTicks": 720,
            "midi": 59,
            "name": "B3",
            "ticks": 37920,
            "time": 39.5,
            "velocity": 0.7480314960629921
          },
          {
            "duration": 0.5,
            "durationTicks": 480,
            "midi": 62,
            "name": "D4",
            "ticks": 37920,
            "time": 39.5,
            "velocity": 0.7480314960629921
          },
          {
            "duration": 1,
            "durationTicks": 960,
            "midi": 48,
            "name": "C3",
            "ticks": 38400,
            "time": 40,
            "velocity": 0.7480314960629921
          },
          {
            "duration": 0.75,
            "durationTicks": 720,
            "midi": 64,
            "name": "E4",
            "ticks": 38400,
            "time": 40,
            "velocity": 0.7480314960629921
          },
          {
            "duration": 0.75,
            "durationTicks": 720,
            "midi": 59,
            "name": "B3",
            "ticks": 38640,
            "time": 40.25,
            "velocity": 0.7480314960629921
          },
          {
            "duration": 2.25,
            "durationTicks": 2160,
            "midi": 67,
            "name": "G4",
            "ticks": 38880,
            "time": 40.5,
            "velocity": 0.7480314960629921
          },
          {
            "duration": 0.25,
            "durationTicks": 240,
            "midi": 64,
            "name": "E4",
            "ticks": 39120,
            "time": 40.75,
            "velocity": 0.7480314960629921
          },
          {
            "duration": 1,
            "durationTicks": 960,
            "midi": 47,
            "name": "B2",
            "ticks": 39360,
            "time": 41,
            "velocity": 0.7480314960629921
          },
          {
            "duration": 0.75,
            "durationTicks": 720,
            "midi": 59,
            "name": "B3",
            "ticks": 39360,
            "time": 41,
            "velocity": 0.7480314960629921
          },
          {
            "duration": 0.5,
            "durationTicks": 480,
            "midi": 62,
            "name": "D4",
            "ticks": 39360,
            "time": 41,
            "velocity": 0.7480314960629921
          },
          {
            "duration": 1,
            "durationTicks": 960,
            "midi": 54,
            "name": "F#3",
            "ticks": 39600,
            "time": 41.25,
            "velocity": 0.7480314960629921
          },
          {
            "duration": 0.5,
            "durationTicks": 480,
            "midi": 62,
            "name": "D4",
            "ticks": 39840,
            "time": 41.5,
            "velocity": 0.7480314960629921
          },
          {
            "duration": 0.75,
            "durationTicks": 720,
            "midi": 59,
            "name": "B3",
            "ticks": 40080,
            "time": 41.75,
            "velocity": 0.7480314960629921
          },
          {
            "duration": 2.25,
            "durationTicks": 2160,
            "midi": 45,
            "name": "A2",
            "ticks": 40320,
            "time": 42,
            "velocity": 0.7480314960629921
          },
          {
            "duration": 0.75,
            "durationTicks": 720,
            "midi": 60,
            "name": "C4",
            "ticks": 40320,
            "time": 42,
            "velocity": 0.7480314960629921
          },
          {
            "duration": 0.25,
            "durationTicks": 240,
            "midi": 52,
            "name": "E3",
            "ticks": 40560,
            "time": 42.25,
            "velocity": 0.7480314960629921
          },
          {
            "duration": 0.25,
            "durationTicks": 240,
            "midi": 55,
            "name": "G3",
            "ticks": 40800,
            "time": 42.5,
            "velocity": 0.7480314960629921
          },
          {
            "duration": 0.25,
            "durationTicks": 240,
            "midi": 60,
            "name": "C4",
            "ticks": 41040,
            "time": 42.75,
            "velocity": 0.7480314960629921
          },
          {
            "duration": 0.25,
            "durationTicks": 240,
            "midi": 50,
            "name": "D3",
            "ticks": 41280,
            "time": 43,
            "velocity": 0.7480314960629921
          },
          {
            "duration": 0.25,
            "durationTicks": 240,
            "midi": 55,
            "name": "G3",
            "ticks": 41280,
            "time": 43,
            "velocity": 0.7480314960629921
          },
          {
            "duration": 0.25,
            "durationTicks": 240,
            "midi": 60,
            "name": "C4",
            "ticks": 41280,
            "time": 43,
            "velocity": 0.7480314960629921
          },
          {
            "duration": 0.125,
            "durationTicks": 120,
            "midi": 60,
            "name": "C4",
            "ticks": 41760,
            "time": 43.5,
            "velocity": 0.7480314960629921
          },
          {
            "duration": 0.75,
            "durationTicks": 720,
            "midi": 50,
            "name": "D3",
            "ticks": 41760,
            "time": 43.5,
            "velocity": 0.7480314960629921
          },
          {
            "duration": 1,
            "durationTicks": 960,
            "midi": 55,
            "name": "G3",
            "ticks": 41760,
            "time": 43.5,
            "velocity": 0.7480314960629921
          },
          {
            "duration": 0.375,
            "durationTicks": 360,
            "midi": 62,
            "name": "D4",
            "ticks": 41880,
            "time": 43.625,
            "velocity": 0.5590551181102362
          },
          {
            "duration": 1,
            "durationTicks": 960,
            "midi": 43,
            "name": "G2",
            "ticks": 42240,
            "time": 44,
            "velocity": 0.7480314960629921
          },
          {
            "duration": 0.75,
            "durationTicks": 720,
            "midi": 59,
            "name": "B3",
            "ticks": 42240,
            "time": 44,
            "velocity": 0.7480314960629921
          },
          {
            "duration": 1,
            "durationTicks": 960,
            "midi": 50,
            "name": "D3",
            "ticks": 42480,
            "time": 44.25,
            "velocity": 0.7480314960629921
          },
          {
            "duration": 0.5,
            "durationTicks": 480,
            "midi": 55,
            "name": "G3",
            "ticks": 42720,
            "time": 44.5,
            "velocity": 0.7480314960629921
          },
          {
            "duration": 0.75,
            "durationTicks": 720,
            "midi": 59,
            "name": "B3",
            "ticks": 42960,
            "time": 44.75,
            "velocity": 0.7480314960629921
          },
          {
            "duration": 2.5,
            "durationTicks": 2400,
            "midi": 41,
            "name": "F2",
            "ticks": 43200,
            "time": 45,
            "velocity": 0.7480314960629921
          },
          {
            "duration": 0.75,
            "durationTicks": 720,
            "midi": 57,
            "name": "A3",
            "ticks": 43200,
            "time": 45,
            "velocity": 0.7480314960629921
          },
          {
            "duration": 1,
            "durationTicks": 960,
            "midi": 53,
            "name": "F3",
            "ticks": 43440,
            "time": 45.25,
            "velocity": 0.7480314960629921
          },
          {
            "duration": 2.25,
            "durationTicks": 2160,
            "midi": 59,
            "name": "B3",
            "ticks": 43680,
            "time": 45.5,
            "velocity": 0.7480314960629921
          },
          {
            "duration": 0.25,
            "durationTicks": 240,
            "midi": 55,
            "name": "G3",
            "ticks": 43920,
            "time": 45.75,
            "velocity": 0.7480314960629921
          },
          {
            "duration": 1,
            "durationTicks": 960,
            "midi": 48,
            "name": "C3",
            "ticks": 44160,
            "time": 46,
            "velocity": 0.7480314960629921
          },
          {
            "duration": 0.75,
            "durationTicks": 720,
            "midi": 55,
            "name": "G3",
            "ticks": 44160,
            "time": 46,
            "velocity": 0.7480314960629921
          },
          {
            "duration": 0.25,
            "durationTicks": 240,
            "midi": 51,
            "name": "D#3",
            "ticks": 44400,
            "time": 46.25,
            "velocity": 0.7480314960629921
          },
          {
            "duration": 0.5,
            "durationTicks": 480,
            "midi": 52,
            "name": "E3",
            "ticks": 44640,
            "time": 46.5,
            "velocity": 0.5590551181102362
          },
          {
            "duration": 0.75,
            "durationTicks": 720,
            "midi": 55,
            "name": "G3",
            "ticks": 44880,
            "time": 46.75,
            "velocity": 0.7480314960629921
          },
          {
            "duration": 2.25,
            "durationTicks": 2160,
            "midi": 48,
            "name": "C3",
            "ticks": 45120,
            "time": 47,
            "velocity": 0.7480314960629921
          },
          {
            "duration": 1.25,
            "durationTicks": 1200,
            "midi": 51,
            "name": "D#3",
            "ticks": 45120,
            "time": 47,
            "velocity": 0.7480314960629921
          },
          {
            "duration": 0.25,
            "durationTicks": 240,
            "midi": 55,
            "name": "G3",
            "ticks": 45600,
            "time": 47.5,
            "velocity": 0.7480314960629921
          },
          {
            "duration": 0.75,
            "durationTicks": 720,
            "midi": 57,
            "name": "A3",
            "ticks": 45840,
            "time": 47.75,
            "velocity": 0.7480314960629921
          },
          {
            "duration": 1,
            "durationTicks": 960,
            "midi": 43,
            "name": "G2",
            "ticks": 46080,
            "time": 48,
            "velocity": 0.7480314960629921
          },
          {
            "duration": 0.75,
            "durationTicks": 720,
            "midi": 59,
            "name": "B3",
            "ticks": 46080,
            "time": 48,
            "velocity": 0.7480314960629921
          },
          {
            "duration": 2,
            "durationTicks": 1920,
            "midi": 50,
            "name": "D3",
            "ticks": 46320,
            "time": 48.25,
            "velocity": 0.7480314960629921
          },
          {
            "duration": 0.5,
            "durationTicks": 480,
            "midi": 55,
            "name": "G3",
            "ticks": 46560,
            "time": 48.5,
            "velocity": 0.7480314960629921
          },
          {
            "duration": 1,
            "durationTicks": 960,
            "midi": 59,
            "name": "B3",
            "ticks": 46800,
            "time": 48.75,
            "velocity": 0.7480314960629921
          },
          {
            "duration": 2.5,
            "durationTicks": 2400,
            "midi": 41,
            "name": "F2",
            "ticks": 47040,
            "time": 49,
            "velocity": 0.7480314960629921
          },
          {
            "duration": 0.5,
            "durationTicks": 480,
            "midi": 57,
            "name": "A3",
            "ticks": 47040,
            "time": 49,
            "velocity": 0.7480314960629921
          },
          {
            "duration": 0.75,
            "durationTicks": 720,
            "midi": 48,
            "name": "C3",
            "ticks": 47280,
            "time": 49.25,
            "velocity": 0.7480314960629921
          },
          {
            "duration": 0.5,
            "durationTicks": 480,
            "midi": 57,
            "name": "A3",
            "ticks": 47520,
            "time": 49.5,
            "velocity": 0.7480314960629921
          },
          {
            "duration": 1,
            "durationTicks": 960,
            "midi": 59,
            "name": "B3",
            "ticks": 47760,
            "time": 49.75,
            "velocity": 0.7480314960629921
          },
          {
            "duration": 1,
            "durationTicks": 960,
            "midi": 48,
            "name": "C3",
            "ticks": 48000,
            "time": 50,
            "velocity": 0.7480314960629921
          },
          {
            "duration": 0.5,
            "durationTicks": 480,
            "midi": 55,
            "name": "G3",
            "ticks": 48000,
            "time": 50,
            "velocity": 0.7480314960629921
          },
          {
            "duration": 0.75,
            "durationTicks": 720,
            "midi": 52,
            "name": "E3",
            "ticks": 48240,
            "time": 50.25,
            "velocity": 0.7480314960629921
          },
          {
            "duration": 0.5,
            "durationTicks": 480,
            "midi": 55,
            "name": "G3",
            "ticks": 48480,
            "time": 50.5,
            "velocity": 0.7480314960629921
          },
          {
            "duration": 1.25,
            "durationTicks": 1200,
            "midi": 59,
            "name": "B3",
            "ticks": 48720,
            "time": 50.75,
            "velocity": 0.7480314960629921
          },
          {
            "duration": 1,
            "durationTicks": 960,
            "midi": 48,
            "name": "C3",
            "ticks": 48960,
            "time": 51,
            "velocity": 0.7480314960629921
          },
          {
            "duration": 0.9583333333333357,
            "durationTicks": 920,
            "midi": 51,
            "name": "D#3",
            "ticks": 48960,
            "time": 51,
            "velocity": 0.7480314960629921
          },
          {
            "duration": 0.9166666666666643,
            "durationTicks": 880,
            "midi": 57,
            "name": "A3",
            "ticks": 49080,
            "time": 51.125,
            "velocity": 0.7480314960629921
          },
          {
            "duration": 1,
            "durationTicks": 960,
            "midi": 43,
            "name": "G2",
            "ticks": 49920,
            "time": 52,
            "velocity": 0.7480314960629921
          },
          {
            "duration": 0.9583333333333357,
            "durationTicks": 920,
            "midi": 47,
            "name": "B2",
            "ticks": 49920,
            "time": 52,
            "velocity": 0.7480314960629921
          },
          {
            "duration": 0.9166666666666643,
            "durationTicks": 880,
            "midi": 50,
            "name": "D3",
            "ticks": 50040,
            "time": 52.125,
            "velocity": 0.7480314960629921
          },
          {
            "duration": 0.875,
            "durationTicks": 840,
            "midi": 55,
            "name": "G3",
            "ticks": 50040,
            "time": 52.125,
            "velocity": 0.7480314960629921
          },
          {
            "duration": 0.8333333333333357,
            "durationTicks": 800,
            "midi": 59,
            "name": "B3",
            "ticks": 50040,
            "time": 52.125,
            "velocity": 0.7480314960629921
          },
          {
            "duration": 0.7916666666666643,
            "durationTicks": 760,
            "midi": 67,
            "name": "G4",
            "ticks": 50160,
            "time": 52.25,
            "velocity": 0.7480314960629921
          }
        ],
        "endOfTrackTicks": 50920
      },
      {
        "channel": 2,
        "controlChanges": {
          "6": [
            {
              "number": 6,
              "ticks": 0,
              "time": 0,
              "value": 0.06299212598425197
            }
          ],
          "7": [
            {
              "number": 7,
              "ticks": 0,
              "time": 0,
              "value": 1
            },
            {
              "number": 7,
              "ticks": 0,
              "time": 0,
              "value": 1
            },
            {
              "number": 7,
              "ticks": 1800,
              "time": 1.875,
              "value": 0.937007874015748
            },
            {
              "number": 7,
              "ticks": 1800,
              "time": 1.875,
              "value": 0.937007874015748
            },
            {
              "number": 7,
              "ticks": 1920,
              "time": 2,
              "value": 0.8740157480314961
            },
            {
              "number": 7,
              "ticks": 1920,
              "time": 2,
              "value": 0.8740157480314961
            },
            {
              "number": 7,
              "ticks": 2040,
              "time": 2.125,
              "value": 0.8110236220472441
            },
            {
              "number": 7,
              "ticks": 2040,
              "time": 2.125,
              "value": 0.8110236220472441
            },
            {
              "number": 7,
              "ticks": 2160,
              "time": 2.25,
              "value": 0.7559055118110236
            },
            {
              "number": 7,
              "ticks": 2160,
              "time": 2.25,
              "value": 0.7559055118110236
            },
            {
              "number": 7,
              "ticks": 2280,
              "time": 2.375,
              "value": 0.6929133858267716
            },
            {
              "number": 7,
              "ticks": 2280,
              "time": 2.375,
              "value": 0.6929133858267716
            },
            {
              "number": 7,
              "ticks": 2400,
              "time": 2.5,
              "value": 0.6299212598425197
            },
            {
              "number": 7,
              "ticks": 2400,
              "time": 2.5,
              "value": 0.6299212598425197
            },
            {
              "number": 7,
              "ticks": 2520,
              "time": 2.625,
              "value": 0.5669291338582677
            },
            {
              "number": 7,
              "ticks": 2520,
              "time": 2.625,
              "value": 0.5669291338582677
            },
            {
              "number": 7,
              "ticks": 2640,
              "time": 2.75,
              "value": 0.5039370078740157
            },
            {
              "number": 7,
              "ticks": 2640,
              "time": 2.75,
              "value": 0.5039370078740157
            },
            {
              "number": 7,
              "ticks": 2880,
              "time": 3,
              "value": 1
            },
            {
              "number": 7,
              "ticks": 2880,
              "time": 3,
              "value": 1
            },
            {
              "number": 7,
              "ticks": 9480,
              "time": 9.875,
              "value": 0.937007874015748
            },
            {
              "number": 7,
              "ticks": 9480,
              "time": 9.875,
              "value": 0.937007874015748
            },
            {
              "number": 7,
              "ticks": 9600,
              "time": 10,
              "value": 0.8740157480314961
            },
            {
              "number": 7,
              "ticks": 9600,
              "time": 10,
              "value": 0.8740157480314961
            },
            {
              "number": 7,
              "ticks": 9720,
              "time": 10.125,
              "value": 0.8110236220472441
            },
            {
              "number": 7,
              "ticks": 9720,
              "time": 10.125,
              "value": 0.8110236220472441
            },
            {
              "number": 7,
              "ticks": 9840,
              "time": 10.25,
              "value": 0.7559055118110236
            },
            {
              "number": 7,
              "ticks": 9840,
              "time": 10.25,
              "value": 0.7559055118110236
            },
            {
              "number": 7,
              "ticks": 9960,
              "time": 10.375,
              "value": 0.6929133858267716
            },
            {
              "number": 7,
              "ticks": 9960,
              "time": 10.375,
              "value": 0.6929133858267716
            },
            {
              "number": 7,
              "ticks": 10080,
              "time": 10.5,
              "value": 0.6299212598425197
            },
            {
              "number": 7,
              "ticks": 10080,
              "time": 10.5,
              "value": 0.6299212598425197
            },
            {
              "number": 7,
              "ticks": 10200,
              "time": 10.625,
              "value": 0.5669291338582677
            },
            {
              "number": 7,
              "ticks": 10200,
              "time": 10.625,
              "value": 0.5669291338582677
            },
            {
              "number": 7,
              "ticks": 10320,
              "time": 10.75,
              "value": 0.5039370078740157
            },
            {
              "number": 7,
              "ticks": 10320,
              "time": 10.75,
              "value": 0.5039370078740157
            },
            {
              "number": 7,
              "ticks": 10560,
              "time": 11,
              "value": 1
            },
            {
              "number": 7,
              "ticks": 10560,
              "time": 11,
              "value": 1
            },
            {
              "number": 7,
              "ticks": 15480,
              "time": 16.125,
              "value": 0.952755905511811
            },
            {
              "number": 7,
              "ticks": 15480,
              "time": 16.125,
              "value": 0.952755905511811
            },
            {
              "number": 7,
              "ticks": 15600,
              "time": 16.25,
              "value": 0.8976377952755905
            },
            {
              "number": 7,
              "ticks": 15600,
              "time": 16.25,
              "value": 0.8976377952755905
            },
            {
              "number": 7,
              "ticks": 15720,
              "time": 16.375,
              "value": 0.8503937007874016
            },
            {
              "number": 7,
              "ticks": 15720,
              "time": 16.375,
              "value": 0.8503937007874016
            },
            {
              "number": 7,
              "ticks": 15840,
              "time": 16.5,
              "value": 0.8031496062992126
            },
            {
              "number": 7,
              "ticks": 15840,
              "time": 16.5,
              "value": 0.8031496062992126
            },
            {
              "number": 7,
              "ticks": 15960,
              "time": 16.625,
              "value": 0.7480314960629921
            },
            {
              "number": 7,
              "ticks": 15960,
              "time": 16.625,
              "value": 0.7480314960629921
            },
            {
              "number": 7,
              "ticks": 16080,
              "time": 16.75,
              "value": 0.7007874015748031
            },
            {
              "number": 7,
              "ticks": 16080,
              "time": 16.75,
              "value": 0.7007874015748031
            },
            {
              "number": 7,
              "ticks": 16200,
              "time": 16.875,
              "value": 0.6535433070866141
            },
            {
              "number": 7,
              "ticks": 16200,
              "time": 16.875,
              "value": 0.6535433070866141
            },
            {
              "number": 7,
              "ticks": 16320,
              "time": 17,
              "value": 0.5984251968503937
            },
            {
              "number": 7,
              "ticks": 16320,
              "time": 17,
              "value": 0.5984251968503937
            },
            {
              "number": 7,
              "ticks": 16440,
              "time": 17.125,
              "value": 0.5511811023622047
            },
            {
              "number": 7,
              "ticks": 16440,
              "time": 17.125,
              "value": 0.5511811023622047
            },
            {
              "number": 7,
              "ticks": 16560,
              "time": 17.25,
              "value": 0.5039370078740157
            },
            {
              "number": 7,
              "ticks": 16560,
              "time": 17.25,
              "value": 0.5039370078740157
            },
            {
              "number": 7,
              "ticks": 16680,
              "time": 17.375,
              "value": 0.44881889763779526
            },
            {
              "number": 7,
              "ticks": 16680,
              "time": 17.375,
              "value": 0.44881889763779526
            },
            {
              "number": 7,
              "ticks": 16800,
              "time": 17.5,
              "value": 0.4015748031496063
            },
            {
              "number": 7,
              "ticks": 16800,
              "time": 17.5,
              "value": 0.4015748031496063
            },
            {
              "number": 7,
              "ticks": 16920,
              "time": 17.625,
              "value": 0.3464566929133858
            },
            {
              "number": 7,
              "ticks": 16920,
              "time": 17.625,
              "value": 0.3464566929133858
            },
            {
              "number": 7,
              "ticks": 17040,
              "time": 17.75,
              "value": 0.2992125984251969
            },
            {
              "number": 7,
              "ticks": 17040,
              "time": 17.75,
              "value": 0.2992125984251969
            },
            {
              "number": 7,
              "ticks": 17160,
              "time": 17.875,
              "value": 0.25196850393700787
            },
            {
              "number": 7,
              "ticks": 17160,
              "time": 17.875,
              "value": 0.25196850393700787
            },
            {
              "number": 7,
              "ticks": 17280,
              "time": 18,
              "value": 0.1968503937007874
            },
            {
              "number": 7,
              "ticks": 17280,
              "time": 18,
              "value": 0.1968503937007874
            },
            {
              "number": 7,
              "ticks": 17400,
              "time": 18.125,
              "value": 0.14960629921259844
            },
            {
              "number": 7,
              "ticks": 17400,
              "time": 18.125,
              "value": 0.14960629921259844
            },
            {
              "number": 7,
              "ticks": 17520,
              "time": 18.25,
              "value": 0.10236220472440945
            },
            {
              "number": 7,
              "ticks": 17520,
              "time": 18.25,
              "value": 0.10236220472440945
            },
            {
              "number": 7,
              "ticks": 17640,
              "time": 18.375,
              "value": 0.047244094488188976
            },
            {
              "number": 7,
              "ticks": 17640,
              "time": 18.375,
              "value": 0.047244094488188976
            },
            {
              "number": 7,
              "ticks": 17760,
              "time": 18.5,
              "value": 0
            },
            {
              "number": 7,
              "ticks": 17760,
              "time": 18.5,
              "value": 1
            },
            {
              "number": 7,
              "ticks": 17760,
              "time": 18.5,
              "value": 0
            },
            {
              "number": 7,
              "ticks": 17760,
              "time": 18.5,
              "value": 1
            },
            {
              "number": 7,
              "ticks": 28680,
              "time": 29.875,
              "value": 0.937007874015748
            },
            {
              "number": 7,
              "ticks": 28680,
              "time": 29.875,
              "value": 0.937007874015748
            },
            {
              "number": 7,
              "ticks": 28800,
              "time": 30,
              "value": 0.8740157480314961
            },
            {
              "number": 7,
              "ticks": 28800,
              "time": 30,
              "value": 0.8740157480314961
            },
            {
              "number": 7,
              "ticks": 28920,
              "time": 30.125,
              "value": 0.8110236220472441
            },
            {
              "number": 7,
              "ticks": 28920,
              "time": 30.125,
              "value": 0.8110236220472441
            },
            {
              "number": 7,
              "ticks": 29040,
              "time": 30.25,
              "value": 0.7559055118110236
            },
            {
              "number": 7,
              "ticks": 29040,
              "time": 30.25,
              "value": 0.7559055118110236
            },
            {
              "number": 7,
              "ticks": 29160,
              "time": 30.375,
              "value": 0.6929133858267716
            },
            {
              "number": 7,
              "ticks": 29160,
              "time": 30.375,
              "value": 0.6929133858267716
            },
            {
              "number": 7,
              "ticks": 29280,
              "time": 30.5,
              "value": 0.6299212598425197
            },
            {
              "number": 7,
              "ticks": 29280,
              "time": 30.5,
              "value": 0.6299212598425197
            },
            {
              "number": 7,
              "ticks": 29400,
              "time": 30.625,
              "value": 0.5669291338582677
            },
            {
              "number": 7,
              "ticks": 29400,
              "time": 30.625,
              "value": 0.5669291338582677
            },
            {
              "number": 7,
              "ticks": 29520,
              "time": 30.75,
              "value": 0.5039370078740157
            },
            {
              "number": 7,
              "ticks": 29520,
              "time": 30.75,
              "value": 0.5039370078740157
            },
            {
              "number": 7,
              "ticks": 29760,
              "time": 31,
              "value": 1
            },
            {
              "number": 7,
              "ticks": 29760,
              "time": 31,
              "value": 1
            },
            {
              "number": 7,
              "ticks": 36360,
              "time": 37.875,
              "value": 0.937007874015748
            },
            {
              "number": 7,
              "ticks": 36360,
              "time": 37.875,
              "value": 0.937007874015748
            },
            {
              "number": 7,
              "ticks": 36480,
              "time": 38,
              "value": 0.8740157480314961
            },
            {
              "number": 7,
              "ticks": 36480,
              "time": 38,
              "value": 0.8740157480314961
            },
            {
              "number": 7,
              "ticks": 36600,
              "time": 38.125,
              "value": 0.8110236220472441
            },
            {
              "number": 7,
              "ticks": 36600,
              "time": 38.125,
              "value": 0.8110236220472441
            },
            {
              "number": 7,
              "ticks": 36720,
              "time": 38.25,
              "value": 0.7559055118110236
            },
            {
              "number": 7,
              "ticks": 36720,
              "time": 38.25,
              "value": 0.7559055118110236
            },
            {
              "number": 7,
              "ticks": 36840,
              "time": 38.375,
              "value": 0.6929133858267716
            },
            {
              "number": 7,
              "ticks": 36840,
              "time": 38.375,
              "value": 0.6929133858267716
            },
            {
              "number": 7,
              "ticks": 36960,
              "time": 38.5,
              "value": 0.6299212598425197
            },
            {
              "number": 7,
              "ticks": 36960,
              "time": 38.5,
              "value": 0.6299212598425197
            },
            {
              "number": 7,
              "ticks": 37080,
              "time": 38.625,
              "value": 0.5669291338582677
            },
            {
              "number": 7,
              "ticks": 37080,
              "time": 38.625,
              "value": 0.5669291338582677
            },
            {
              "number": 7,
              "ticks": 37200,
              "time": 38.75,
              "value": 0.5039370078740157
            },
            {
              "number": 7,
              "ticks": 37200,
              "time": 38.75,
              "value": 0.5039370078740157
            },
            {
              "number": 7,
              "ticks": 37440,
              "time": 39,
              "value": 1
            },
            {
              "number": 7,
              "ticks": 37440,
              "time": 39,
              "value": 1
            },
            {
              "number": 7,
              "ticks": 42360,
              "time": 44.125,
              "value": 0.952755905511811
            },
            {
              "number": 7,
              "ticks": 42360,
              "time": 44.125,
              "value": 0.952755905511811
            },
            {
              "number": 7,
              "ticks": 42480,
              "time": 44.25,
              "value": 0.8976377952755905
            },
            {
              "number": 7,
              "ticks": 42480,
              "time": 44.25,
              "value": 0.8976377952755905
            },
            {
              "number": 7,
              "ticks": 42600,
              "time": 44.375,
              "value": 0.8503937007874016
            },
            {
              "number": 7,
              "ticks": 42600,
              "time": 44.375,
              "value": 0.8503937007874016
            },
            {
              "number": 7,
              "ticks": 42720,
              "time": 44.5,
              "value": 0.8031496062992126
            },
            {
              "number": 7,
              "ticks": 42720,
              "time": 44.5,
              "value": 0.8031496062992126
            },
            {
              "number": 7,
              "ticks": 42840,
              "time": 44.625,
              "value": 0.7480314960629921
            },
            {
              "number": 7,
              "ticks": 42840,
              "time": 44.625,
              "value": 0.7480314960629921
            },
            {
              "number": 7,
              "ticks": 42960,
              "time": 44.75,
              "value": 0.7007874015748031
            },
            {
              "number": 7,
              "ticks": 42960,
              "time": 44.75,
              "value": 0.7007874015748031
            },
            {
              "number": 7,
              "ticks": 43080,
              "time": 44.875,
              "value": 0.6535433070866141
            },
            {
              "number": 7,
              "ticks": 43080,
              "time": 44.875,
              "value": 0.6535433070866141
            },
            {
              "number": 7,
              "ticks": 43200,
              "time": 45,
              "value": 0.5984251968503937
            },
            {
              "number": 7,
              "ticks": 43200,
              "time": 45,
              "value": 0.5984251968503937
            },
            {
              "number": 7,
              "ticks": 43320,
              "time": 45.125,
              "value": 0.5511811023622047
            },
            {
              "number": 7,
              "ticks": 43320,
              "time": 45.125,
              "value": 0.5511811023622047
            },
            {
              "number": 7,
              "ticks": 43440,
              "time": 45.25,
              "value": 0.5039370078740157
            },
            {
              "number": 7,
              "ticks": 43440,
              "time": 45.25,
              "value": 0.5039370078740157
            },
            {
              "number": 7,
              "ticks": 43560,
              "time": 45.375,
              "value": 0.44881889763779526
            },
            {
              "number": 7,
              "ticks": 43560,
              "time": 45.375,
              "value": 0.44881889763779526
            },
            {
              "number": 7,
              "ticks": 43680,
              "time": 45.5,
              "value": 0.4015748031496063
            },
            {
              "number": 7,
              "ticks": 43680,
              "time": 45.5,
              "value": 0.4015748031496063
            },
            {
              "number": 7,
              "ticks": 43800,
              "time": 45.625,
              "value": 0.3464566929133858
            },
            {
              "number": 7,
              "ticks": 43800,
              "time": 45.625,
              "value": 0.3464566929133858
            },
            {
              "number": 7,
              "ticks": 43920,
              "time": 45.75,
              "value": 0.2992125984251969
            },
            {
              "number": 7,
              "ticks": 43920,
              "time": 45.75,
              "value": 0.2992125984251969
            },
            {
              "number": 7,
              "ticks": 44040,
              "time": 45.875,
              "value": 0.25196850393700787
            },
            {
              "number": 7,
              "ticks": 44040,
              "time": 45.875,
              "value": 0.25196850393700787
            },
            {
              "number": 7,
              "ticks": 44160,
              "time": 46,
              "value": 0.1968503937007874
            },
            {
              "number": 7,
              "ticks": 44160,
              "time": 46,
              "value": 0.1968503937007874
            },
            {
              "number": 7,
              "ticks": 44280,
              "time": 46.125,
              "value": 0.14960629921259844
            },
            {
              "number": 7,
              "ticks": 44280,
              "time": 46.125,
              "value": 0.14960629921259844
            },
            {
              "number": 7,
              "ticks": 44400,
              "time": 46.25,
              "value": 0.10236220472440945
            },
            {
              "number": 7,
              "ticks": 44400,
              "time": 46.25,
              "value": 0.10236220472440945
            },
            {
              "number": 7,
              "ticks": 44520,
              "time": 46.375,
              "value": 0.047244094488188976
            },
            {
              "number": 7,
              "ticks": 44520,
              "time": 46.375,
              "value": 0.047244094488188976
            },
            {
              "number": 7,
              "ticks": 44640,
              "time": 46.5,
              "value": 0
            },
            {
              "number": 7,
              "ticks": 44640,
              "time": 46.5,
              "value": 0
            }
          ],
          "10": [
            {
              "number": 10,
              "ticks": 0,
              "time": 0,
              "value": 0.5039370078740157
            },
            {
              "number": 10,
              "ticks": 0,
              "time": 0,
              "value": 0.5039370078740157
            }
          ],
          "91": [
            {
              "number": 91,
              "ticks": 0,
              "time": 0,
              "value": 0
            },
            {
              "number": 91,
              "ticks": 0,
              "time": 0,
              "value": 0
            }
          ],
          "93": [
            {
              "number": 93,
              "ticks": 0,
              "time": 0,
              "value": 0
            },
            {
              "number": 93,
              "ticks": 0,
              "time": 0,
              "value": 0
            }
          ],
          "100": [
            {
              "number": 100,
              "ticks": 0,
              "time": 0,
              "value": 0
            },
            {
              "number": 100,
              "ticks": 0,
              "time": 0,
              "value": 0
            }
          ],
          "101": [
            {
              "number": 101,
              "ticks": 0,
              "time": 0,
              "value": 0
            },
            {
              "number": 101,
              "ticks": 0,
              "time": 0,
              "value": 0
            }
          ]
        },
        "pitchBends": [],
        "instrument": {
          "family": "piano",
          "number": 0,
          "name": "flute"
        },
        "name": "14339_",
        "notes": [
          {
            "duration": 0.25,
            "durationTicks": 240,
            "midi": 86,
            "name": "D6",
            "ticks": 0,
            "time": 0,
            "velocity": 0.7480314960629921
          },
          {
            "duration": 0.25,
            "durationTicks": 240,
            "midi": 86,
            "name": "D6",
            "ticks": 480,
            "time": 0.5,
            "velocity": 0.7480314960629921
          },
          {
            "duration": 0.25,
            "durationTicks": 240,
            "midi": 86,
            "name": "D6",
            "ticks": 960,
            "time": 1,
            "velocity": 0.7480314960629921
          },
          {
            "duration": 0.125,
            "durationTicks": 120,
            "midi": 88,
            "name": "E6",
            "ticks": 1200,
            "time": 1.25,
            "velocity": 0.7480314960629921
          },
          {
            "duration": 0.375,
            "durationTicks": 360,
            "midi": 90,
            "name": "F#6",
            "ticks": 1320,
            "time": 1.375,
            "velocity": 0.7480314960629921
          },
          {
            "duration": 1,
            "durationTicks": 960,
            "midi": 91,
            "name": "G6",
            "ticks": 1680,
            "time": 1.75,
            "velocity": 0.7480314960629921
          },
          {
            "duration": 0.25,
            "durationTicks": 240,
            "midi": 83,
            "name": "B5",
            "ticks": 2880,
            "time": 3,
            "velocity": 0.7480314960629921
          },
          {
            "duration": 0.125,
            "durationTicks": 120,
            "midi": 84,
            "name": "C6",
            "ticks": 3120,
            "time": 3.25,
            "velocity": 0.7480314960629921
          },
          {
            "duration": 0.375,
            "durationTicks": 360,
            "midi": 86,
            "name": "D6",
            "ticks": 3240,
            "time": 3.375,
            "velocity": 0.7480314960629921
          },
          {
            "duration": 0.375,
            "durationTicks": 360,
            "midi": 88,
            "name": "E6",
            "ticks": 3600,
            "time": 3.75,
            "velocity": 0.7480314960629921
          },
          {
            "duration": 0.125,
            "durationTicks": 120,
            "midi": 86,
            "name": "D6",
            "ticks": 3960,
            "time": 4.125,
            "velocity": 0.7480314960629921
          },
          {
            "duration": 0.5,
            "durationTicks": 480,
            "midi": 84,
            "name": "C6",
            "ticks": 4080,
            "time": 4.25,
            "velocity": 0.7480314960629921
          },
          {
            "duration": 0.25,
            "durationTicks": 240,
            "midi": 79,
            "name": "G5",
            "ticks": 4800,
            "time": 5,
            "velocity": 0.7480314960629921
          },
          {
            "duration": 0.25,
            "durationTicks": 240,
            "midi": 81,
            "name": "A5",
            "ticks": 5040,
            "time": 5.25,
            "velocity": 0.7480314960629921
          },
          {
            "duration": 0.25,
            "durationTicks": 240,
            "midi": 83,
            "name": "B5",
            "ticks": 5280,
            "time": 5.5,
            "velocity": 0.7480314960629921
          },
          {
            "duration": 0.5,
            "durationTicks": 480,
            "midi": 84,
            "name": "C6",
            "ticks": 5520,
            "time": 5.75,
            "velocity": 0.7480314960629921
          },
          {
            "duration": 0.25,
            "durationTicks": 240,
            "midi": 83,
            "name": "B5",
            "ticks": 6000,
            "time": 6.25,
            "velocity": 0.7480314960629921
          },
          {
            "duration": 0.25,
            "durationTicks": 240,
            "midi": 76,
            "name": "E5",
            "ticks": 6240,
            "time": 6.5,
            "velocity": 0.7480314960629921
          },
          {
            "duration": 0.5,
            "durationTicks": 480,
            "midi": 79,
            "name": "G5",
            "ticks": 6480,
            "time": 6.75,
            "velocity": 0.7480314960629921
          },
          {
            "duration": 0.25,
            "durationTicks": 240,
            "midi": 81,
            "name": "A5",
            "ticks": 6960,
            "time": 7.25,
            "velocity": 0.7480314960629921
          },
          {
            "duration": 0.25,
            "durationTicks": 240,
            "midi": 79,
            "name": "G5",
            "ticks": 7440,
            "time": 7.75,
            "velocity": 0.7480314960629921
          },
          {
            "duration": 0.25,
            "durationTicks": 240,
            "midi": 86,
            "name": "D6",
            "ticks": 7680,
            "time": 8,
            "velocity": 0.7480314960629921
          },
          {
            "duration": 0.25,
            "durationTicks": 240,
            "midi": 86,
            "name": "D6",
            "ticks": 8160,
            "time": 8.5,
            "velocity": 0.7480314960629921
          },
          {
            "duration": 0.25,
            "durationTicks": 240,
            "midi": 86,
            "name": "D6",
            "ticks": 8640,
            "time": 9,
            "velocity": 0.7480314960629921
          },
          {
            "duration": 0.125,
            "durationTicks": 120,
            "midi": 88,
            "name": "E6",
            "ticks": 8880,
            "time": 9.25,
            "velocity": 0.7480314960629921
          },
          {
            "duration": 0.375,
            "durationTicks": 360,
            "midi": 90,
            "name": "F#6",
            "ticks": 9000,
            "time": 9.375,
            "velocity": 0.7480314960629921
          },
          {
            "duration": 1,
            "durationTicks": 960,
            "midi": 91,
            "name": "G6",
            "ticks": 9360,
            "time": 9.75,
            "velocity": 0.7480314960629921
          },
          {
            "duration": 0.25,
            "durationTicks": 240,
            "midi": 83,
            "name": "B5",
            "ticks": 10560,
            "time": 11,
            "velocity": 0.7480314960629921
          },
          {
            "duration": 0.125,
            "durationTicks": 120,
            "midi": 84,
            "name": "C6",
            "ticks": 10800,
            "time": 11.25,
            "velocity": 0.7480314960629921
          },
          {
            "duration": 0.375,
            "durationTicks": 360,
            "midi": 86,
            "name": "D6",
            "ticks": 10920,
            "time": 11.375,
            "velocity": 0.7480314960629921
          },
          {
            "duration": 0.25,
            "durationTicks": 240,
            "midi": 79,
            "name": "G5",
            "ticks": 11280,
            "time": 11.75,
            "velocity": 0.7480314960629921
          },
          {
            "duration": 0.75,
            "durationTicks": 720,
            "midi": 88,
            "name": "E6",
            "ticks": 11520,
            "time": 12,
            "velocity": 0.7480314960629921
          },
          {
            "duration": 0.25,
            "durationTicks": 240,
            "midi": 79,
            "name": "G5",
            "ticks": 12480,
            "time": 13,
            "velocity": 0.7480314960629921
          },
          {
            "duration": 0.25,
            "durationTicks": 240,
            "midi": 81,
            "name": "A5",
            "ticks": 12720,
            "time": 13.25,
            "velocity": 0.7480314960629921
          },
          {
            "duration": 0.25,
            "durationTicks": 240,
            "midi": 83,
            "name": "B5",
            "ticks": 12960,
            "time": 13.5,
            "velocity": 0.7480314960629921
          },
          {
            "duration": 0.5,
            "durationTicks": 480,
            "midi": 84,
            "name": "C6",
            "ticks": 13200,
            "time": 13.75,
            "velocity": 0.7480314960629921
          },
          {
            "duration": 0.25,
            "durationTicks": 240,
            "midi": 83,
            "name": "B5",
            "ticks": 13680,
            "time": 14.25,
            "velocity": 0.7480314960629921
          },
          {
            "duration": 0.25,
            "durationTicks": 240,
            "midi": 81,
            "name": "A5",
            "ticks": 13920,
            "time": 14.5,
            "velocity": 0.7480314960629921
          },
          {
            "duration": 0.25,
            "durationTicks": 240,
            "midi": 79,
            "name": "G5",
            "ticks": 14160,
            "time": 14.75,
            "velocity": 0.7480314960629921
          },
          {
            "duration": 0.25,
            "durationTicks": 240,
            "midi": 81,
            "name": "A5",
            "ticks": 14400,
            "time": 15,
            "velocity": 0.7480314960629921
          },
          {
            "duration": 0.125,
            "durationTicks": 120,
            "midi": 76,
            "name": "E5",
            "ticks": 14640,
            "time": 15.25,
            "velocity": 0.7480314960629921
          },
          {
            "duration": 0.125,
            "durationTicks": 120,
            "midi": 79,
            "name": "G5",
            "ticks": 14760,
            "time": 15.375,
            "velocity": 0.7480314960629921
          },
          {
            "duration": 0.25,
            "durationTicks": 240,
            "midi": 81,
            "name": "A5",
            "ticks": 15120,
            "time": 15.75,
            "velocity": 0.7480314960629921
          },
          {
            "duration": 2,
            "durationTicks": 1920,
            "midi": 79,
            "name": "G5",
            "ticks": 15360,
            "time": 16,
            "velocity": 0.7480314960629921
          },
          {
            "duration": 0.25,
            "durationTicks": 240,
            "midi": 91,
            "name": "G6",
            "ticks": 17760,
            "time": 18.5,
            "velocity": 0.7480314960629921
          },
          {
            "duration": 0.125,
            "durationTicks": 120,
            "midi": 90,
            "name": "F#6",
            "ticks": 18000,
            "time": 18.75,
            "velocity": 0.7480314960629921
          },
          {
            "duration": 0.25,
            "durationTicks": 240,
            "midi": 90,
            "name": "F#6",
            "ticks": 18120,
            "time": 18.875,
            "velocity": 0.7480314960629921
          },
          {
            "duration": 0.125,
            "durationTicks": 120,
            "midi": 88,
            "name": "E6",
            "ticks": 18360,
            "time": 19.125,
            "velocity": 0.7480314960629921
          },
          {
            "duration": 0.25,
            "durationTicks": 240,
            "midi": 88,
            "name": "E6",
            "ticks": 18480,
            "time": 19.25,
            "velocity": 0.7480314960629921
          },
          {
            "duration": 0.25,
            "durationTicks": 240,
            "midi": 86,
            "name": "D6",
            "ticks": 18720,
            "time": 19.5,
            "velocity": 0.7480314960629921
          },
          {
            "duration": 0.125,
            "durationTicks": 120,
            "midi": 83,
            "name": "B5",
            "ticks": 18960,
            "time": 19.75,
            "velocity": 0.7480314960629921
          },
          {
            "duration": 0.125,
            "durationTicks": 120,
            "midi": 81,
            "name": "A5",
            "ticks": 19080,
            "time": 19.875,
            "velocity": 0.7480314960629921
          },
          {
            "duration": 0.25,
            "durationTicks": 240,
            "midi": 83,
            "name": "B5",
            "ticks": 19200,
            "time": 20,
            "velocity": 0.7480314960629921
          },
          {
            "duration": 0.25,
            "durationTicks": 240,
            "midi": 88,
            "name": "E6",
            "ticks": 19440,
            "time": 20.25,
            "velocity": 0.7480314960629921
          },
          {
            "duration": 0.25,
            "durationTicks": 240,
            "midi": 88,
            "name": "E6",
            "ticks": 19680,
            "time": 20.5,
            "velocity": 0.7480314960629921
          },
          {
            "duration": 0.25,
            "durationTicks": 240,
            "midi": 83,
            "name": "B5",
            "ticks": 19920,
            "time": 20.75,
            "velocity": 0.7480314960629921
          },
          {
            "duration": 0.25,
            "durationTicks": 240,
            "midi": 83,
            "name": "B5",
            "ticks": 20160,
            "time": 21,
            "velocity": 0.7480314960629921
          },
          {
            "duration": 0.25,
            "durationTicks": 240,
            "midi": 90,
            "name": "F#6",
            "ticks": 20400,
            "time": 21.25,
            "velocity": 0.7480314960629921
          },
          {
            "duration": 0.25,
            "durationTicks": 240,
            "midi": 90,
            "name": "F#6",
            "ticks": 20640,
            "time": 21.5,
            "velocity": 0.7480314960629921
          },
          {
            "duration": 0.25,
            "durationTicks": 240,
            "midi": 83,
            "name": "B5",
            "ticks": 20880,
            "time": 21.75,
            "velocity": 0.7480314960629921
          },
          {
            "duration": 0.25,
            "durationTicks": 240,
            "midi": 95,
            "name": "B6",
            "ticks": 21120,
            "time": 22,
            "velocity": 0.7480314960629921
          },
          {
            "duration": 0.125,
            "durationTicks": 120,
            "midi": 93,
            "name": "A6",
            "ticks": 21360,
            "time": 22.25,
            "velocity": 0.7480314960629921
          },
          {
            "duration": 0.125,
            "durationTicks": 120,
            "midi": 95,
            "name": "B6",
            "ticks": 21480,
            "time": 22.375,
            "velocity": 0.7480314960629921
          },
          {
            "duration": 0.25,
            "durationTicks": 240,
            "midi": 93,
            "name": "A6",
            "ticks": 21600,
            "time": 22.5,
            "velocity": 0.7480314960629921
          },
          {
            "duration": 0.375,
            "durationTicks": 360,
            "midi": 91,
            "name": "G6",
            "ticks": 21840,
            "time": 22.75,
            "velocity": 0.7480314960629921
          },
          {
            "duration": 0.125,
            "durationTicks": 120,
            "midi": 93,
            "name": "A6",
            "ticks": 22200,
            "time": 23.125,
            "velocity": 0.7480314960629921
          },
          {
            "duration": 0.25,
            "durationTicks": 240,
            "midi": 95,
            "name": "B6",
            "ticks": 22320,
            "time": 23.25,
            "velocity": 0.7480314960629921
          },
          {
            "duration": 0.25,
            "durationTicks": 240,
            "midi": 79,
            "name": "G5",
            "ticks": 22800,
            "time": 23.75,
            "velocity": 0.7480314960629921
          },
          {
            "duration": 0.25,
            "durationTicks": 240,
            "midi": 88,
            "name": "E6",
            "ticks": 23040,
            "time": 24,
            "velocity": 0.7480314960629921
          },
          {
            "duration": 0.125,
            "durationTicks": 120,
            "midi": 88,
            "name": "E6",
            "ticks": 23280,
            "time": 24.25,
            "velocity": 0.7480314960629921
          },
          {
            "duration": 0.375,
            "durationTicks": 360,
            "midi": 86,
            "name": "D6",
            "ticks": 23400,
            "time": 24.375,
            "velocity": 0.7480314960629921
          },
          {
            "duration": 0.125,
            "durationTicks": 120,
            "midi": 86,
            "name": "D6",
            "ticks": 23760,
            "time": 24.75,
            "velocity": 0.7480314960629921
          },
          {
            "duration": 0.125,
            "durationTicks": 120,
            "midi": 84,
            "name": "C6",
            "ticks": 23880,
            "time": 24.875,
            "velocity": 0.7480314960629921
          },
          {
            "duration": 0.125,
            "durationTicks": 120,
            "midi": 84,
            "name": "C6",
            "ticks": 24000,
            "time": 25,
            "velocity": 0.7480314960629921
          },
          {
            "duration": 0.25,
            "durationTicks": 240,
            "midi": 83,
            "name": "B5",
            "ticks": 24120,
            "time": 25.125,
            "velocity": 0.7480314960629921
          },
          {
            "duration": 0.125,
            "durationTicks": 120,
            "midi": 83,
            "name": "B5",
            "ticks": 24360,
            "time": 25.375,
            "velocity": 0.7480314960629921
          },
          {
            "duration": 0.25,
            "durationTicks": 240,
            "midi": 81,
            "name": "A5",
            "ticks": 24480,
            "time": 25.5,
            "velocity": 0.7480314960629921
          },
          {
            "duration": 0.25,
            "durationTicks": 240,
            "midi": 79,
            "name": "G5",
            "ticks": 24720,
            "time": 25.75,
            "velocity": 0.7480314960629921
          },
          {
            "duration": 0.25,
            "durationTicks": 240,
            "midi": 79,
            "name": "G5",
            "ticks": 24960,
            "time": 26,
            "velocity": 0.7480314960629921
          },
          {
            "duration": 0.25,
            "durationTicks": 240,
            "midi": 81,
            "name": "A5",
            "ticks": 25200,
            "time": 26.25,
            "velocity": 0.7480314960629921
          },
          {
            "duration": 0.25,
            "durationTicks": 240,
            "midi": 83,
            "name": "B5",
            "ticks": 25440,
            "time": 26.5,
            "velocity": 0.7480314960629921
          },
          {
            "duration": 0.5,
            "durationTicks": 480,
            "midi": 81,
            "name": "A5",
            "ticks": 25680,
            "time": 26.75,
            "velocity": 0.7480314960629921
          },
          {
            "duration": 0.5,
            "durationTicks": 480,
            "midi": 79,
            "name": "G5",
            "ticks": 26160,
            "time": 27.25,
            "velocity": 0.7480314960629921
          },
          {
            "duration": 0.25,
            "durationTicks": 240,
            "midi": 86,
            "name": "D6",
            "ticks": 26880,
            "time": 28,
            "velocity": 0.7480314960629921
          },
          {
            "duration": 0.25,
            "durationTicks": 240,
            "midi": 86,
            "name": "D6",
            "ticks": 27360,
            "time": 28.5,
            "velocity": 0.7480314960629921
          },
          {
            "duration": 0.25,
            "durationTicks": 240,
            "midi": 86,
            "name": "D6",
            "ticks": 27840,
            "time": 29,
            "velocity": 0.7480314960629921
          },
          {
            "duration": 0.125,
            "durationTicks": 120,
            "midi": 88,
            "name": "E6",
            "ticks": 28080,
            "time": 29.25,
            "velocity": 0.7480314960629921
          },
          {
            "duration": 0.375,
            "durationTicks": 360,
            "midi": 90,
            "name": "F#6",
            "ticks": 28200,
            "time": 29.375,
            "velocity": 0.7480314960629921
          },
          {
            "duration": 1,
            "durationTicks": 960,
            "midi": 91,
            "name": "G6",
            "ticks": 28560,
            "time": 29.75,
            "velocity": 0.7480314960629921
          },
          {
            "duration": 0.25,
            "durationTicks": 240,
            "midi": 83,
            "name": "B5",
            "ticks": 29760,
            "time": 31,
            "velocity": 0.7480314960629921
          },
          {
            "duration": 0.125,
            "durationTicks": 120,
            "midi": 84,
            "name": "C6",
            "ticks": 30000,
            "time": 31.25,
            "velocity": 0.7480314960629921
          },
          {
            "duration": 0.375,
            "durationTicks": 360,
            "midi": 86,
            "name": "D6",
            "ticks": 30120,
            "time": 31.375,
            "velocity": 0.7480314960629921
          },
          {
            "duration": 0.375,
            "durationTicks": 360,
            "midi": 88,
            "name": "E6",
            "ticks": 30480,
            "time": 31.75,
            "velocity": 0.7480314960629921
          },
          {
            "duration": 0.125,
            "durationTicks": 120,
            "midi": 86,
            "name": "D6",
            "ticks": 30840,
            "time": 32.125,
            "velocity": 0.7480314960629921
          },
          {
            "duration": 0.5,
            "durationTicks": 480,
            "midi": 84,
            "name": "C6",
            "ticks": 30960,
            "time": 32.25,
            "velocity": 0.7480314960629921
          },
          {
            "duration": 0.25,
            "durationTicks": 240,
            "midi": 79,
            "name": "G5",
            "ticks": 31680,
            "time": 33,
            "velocity": 0.7480314960629921
          },
          {
            "duration": 0.25,
            "durationTicks": 240,
            "midi": 81,
            "name": "A5",
            "ticks": 31920,
            "time": 33.25,
            "velocity": 0.7480314960629921
          },
          {
            "duration": 0.25,
            "durationTicks": 240,
            "midi": 83,
            "name": "B5",
            "ticks": 32160,
            "time": 33.5,
            "velocity": 0.7480314960629921
          },
          {
            "duration": 0.5,
            "durationTicks": 480,
            "midi": 84,
            "name": "C6",
            "ticks": 32400,
            "time": 33.75,
            "velocity": 0.7480314960629921
          },
          {
            "duration": 0.25,
            "durationTicks": 240,
            "midi": 83,
            "name": "B5",
            "ticks": 32880,
            "time": 34.25,
            "velocity": 0.7480314960629921
          },
          {
            "duration": 0.25,
            "durationTicks": 240,
            "midi": 76,
            "name": "E5",
            "ticks": 33120,
            "time": 34.5,
            "velocity": 0.7480314960629921
          },
          {
            "duration": 0.5,
            "durationTicks": 480,
            "midi": 79,
            "name": "G5",
            "ticks": 33360,
            "time": 34.75,
            "velocity": 0.7480314960629921
          },
          {
            "duration": 0.25,
            "durationTicks": 240,
            "midi": 81,
            "name": "A5",
            "ticks": 33840,
            "time": 35.25,
            "velocity": 0.7480314960629921
          },
          {
            "duration": 0.25,
            "durationTicks": 240,
            "midi": 79,
            "name": "G5",
            "ticks": 34320,
            "time": 35.75,
            "velocity": 0.7480314960629921
          },
          {
            "duration": 0.25,
            "durationTicks": 240,
            "midi": 86,
            "name": "D6",
            "ticks": 34560,
            "time": 36,
            "velocity": 0.7480314960629921
          },
          {
            "duration": 0.25,
            "durationTicks": 240,
            "midi": 86,
            "name": "D6",
            "ticks": 35040,
            "time": 36.5,
            "velocity": 0.7480314960629921
          },
          {
            "duration": 0.25,
            "durationTicks": 240,
            "midi": 86,
            "name": "D6",
            "ticks": 35520,
            "time": 37,
            "velocity": 0.7480314960629921
          },
          {
            "duration": 0.125,
            "durationTicks": 120,
            "midi": 88,
            "name": "E6",
            "ticks": 35760,
            "time": 37.25,
            "velocity": 0.7480314960629921
          },
          {
            "duration": 0.375,
            "durationTicks": 360,
            "midi": 90,
            "name": "F#6",
            "ticks": 35880,
            "time": 37.375,
            "velocity": 0.7480314960629921
          },
          {
            "duration": 1,
            "durationTicks": 960,
            "midi": 91,
            "name": "G6",
            "ticks": 36240,
            "time": 37.75,
            "velocity": 0.7480314960629921
          },
          {
            "duration": 0.25,
            "durationTicks": 240,
            "midi": 83,
            "name": "B5",
            "ticks": 37440,
            "time": 39,
            "velocity": 0.7480314960629921
          },
          {
            "duration": 0.125,
            "durationTicks": 120,
            "midi": 84,
            "name": "C6",
            "ticks": 37680,
            "time": 39.25,
            "velocity": 0.7480314960629921
          },
          {
            "duration": 0.375,
            "durationTicks": 360,
            "midi": 86,
            "name": "D6",
            "ticks": 37800,
            "time": 39.375,
            "velocity": 0.7480314960629921
          },
          {
            "duration": 0.25,
            "durationTicks": 240,
            "midi": 79,
            "name": "G5",
            "ticks": 38160,
            "time": 39.75,
            "velocity": 0.7480314960629921
          },
          {
            "duration": 0.75,
            "durationTicks": 720,
            "midi": 88,
            "name": "E6",
            "ticks": 38400,
            "time": 40,
            "velocity": 0.7480314960629921
          },
          {
            "duration": 0.25,
            "durationTicks": 240,
            "midi": 79,
            "name": "G5",
            "ticks": 39360,
            "time": 41,
            "velocity": 0.7480314960629921
          },
          {
            "duration": 0.25,
            "durationTicks": 240,
            "midi": 81,
            "name": "A5",
            "ticks": 39600,
            "time": 41.25,
            "velocity": 0.7480314960629921
          },
          {
            "duration": 0.25,
            "durationTicks": 240,
            "midi": 83,
            "name": "B5",
            "ticks": 39840,
            "time": 41.5,
            "velocity": 0.7480314960629921
          },
          {
            "duration": 0.5,
            "durationTicks": 480,
            "midi": 84,
            "name": "C6",
            "ticks": 40080,
            "time": 41.75,
            "velocity": 0.7480314960629921
          },
          {
            "duration": 0.25,
            "durationTicks": 240,
            "midi": 83,
            "name": "B5",
            "ticks": 40560,
            "time": 42.25,
            "velocity": 0.7480314960629921
          },
          {
            "duration": 0.25,
            "durationTicks": 240,
            "midi": 81,
            "name": "A5",
            "ticks": 40800,
            "time": 42.5,
            "velocity": 0.7480314960629921
          },
          {
            "duration": 0.25,
            "durationTicks": 240,
            "midi": 79,
            "name": "G5",
            "ticks": 41040,
            "time": 42.75,
            "velocity": 0.7480314960629921
          },
          {
            "duration": 0.25,
            "durationTicks": 240,
            "midi": 81,
            "name": "A5",
            "ticks": 41280,
            "time": 43,
            "velocity": 0.7480314960629921
          },
          {
            "duration": 0.125,
            "durationTicks": 120,
            "midi": 76,
            "name": "E5",
            "ticks": 41520,
            "time": 43.25,
            "velocity": 0.7480314960629921
          },
          {
            "duration": 0.125,
            "durationTicks": 120,
            "midi": 79,
            "name": "G5",
            "ticks": 41640,
            "time": 43.375,
            "velocity": 0.7480314960629921
          },
          {
            "duration": 0.25,
            "durationTicks": 240,
            "midi": 81,
            "name": "A5",
            "ticks": 42000,
            "time": 43.75,
            "velocity": 0.7480314960629921
          },
          {
            "duration": 3,
            "durationTicks": 2880,
            "midi": 79,
            "name": "G5",
            "ticks": 42240,
            "time": 44,
            "velocity": 0.7480314960629921
          }
        ],
        "endOfTrackTicks": 46080
      }
    ]
  }