{
    "header": {
      "keySignatures": [
        {
          "key": "C",
          "scale": "major",
          "ticks": 0
        }
      ],
      "meta": [],
      "name": "",
      "ppq": 480,
      "tempos": [
        {
          "bpm": 93.99998120000376,
          "ticks": 0
        },
        {
          "bpm": 93.00004185001883,
          "ticks": 7680
        },
        {
          "bpm": 93.99998120000376,
          "ticks": 11520
        },
        {
          "bpm": 93.00004185001883,
          "ticks": 17280
        },
        {
          "bpm": 93.99998120000376,
          "ticks": 24960
        },
        {
          "bpm": 93.00004185001883,
          "ticks": 30720
        },
        {
          "bpm": 93.99998120000376,
          "ticks": 36480
        }
      ],
      "timeSignatures": [
        {
          "ticks": 0,
          "timeSignature": [
            4,
            4
          ],
          "measures": 0
        }
      ]
    },
    "tracks": [
      {
        "channel": 0,
        "controlChanges": {},
        "pitchBends": [],
        "instrument": {
          "family": "piano",
          "number": 0,
          "name": "acoustic grand piano"
        },
        "name": "Magic",
        "notes": [],
        "endOfTrackTicks": 38400
      },
      {
        "channel": 0,
        "controlChanges": {
          "121": [
            {
              "number": 121,
              "ticks": 250,
              "time": 0.33244687500000003,
              "value": 0
            }
          ]
        },
        "pitchBends": [],
        "instrument": {
          "family": "piano",
          "number": 0,
          "name": "acoustic grand piano"
        },
        "name": "Magic",
        "notes": [],
        "endOfTrackTicks": 38400
      },
      {
        "channel": 0,
        "controlChanges": {
          "1": [
            {
              "number": 1,
              "ticks": 540,
              "time": 0.71808525,
              "value": 0
            }
          ],
          "7": [
            {
              "number": 7,
              "ticks": 380,
              "time": 0.50531925,
              "value": 0.7874015748031497
            },
            {
              "number": 7,
              "ticks": 33683,
              "time": 44.99830908958334,
              "value": 0.6850393700787402
            },
            {
              "number": 7,
              "ticks": 34241,
              "time": 45.74830875208334,
              "value": 0.5905511811023622
            },
            {
              "number": 7,
              "ticks": 34799,
              "time": 46.498308414583335,
              "value": 0.4881889763779528
            },
            {
              "number": 7,
              "ticks": 35357,
              "time": 47.24830807708334,
              "value": 0.3937007874015748
            },
            {
              "number": 7,
              "ticks": 35915,
              "time": 47.99830773958334,
              "value": 0.29133858267716534
            },
            {
              "number": 7,
              "ticks": 36473,
              "time": 48.748307402083334,
              "value": 0.1968503937007874
            },
            {
              "number": 7,
              "ticks": 37037,
              "time": 49.4984076375,
              "value": 0.09448818897637795
            },
            {
              "number": 7,
              "ticks": 37601,
              "time": 50.2484077875,
              "value": 0
            }
          ],
          "10": [
            {
              "number": 10,
              "ticks": 412,
              "time": 0.54787245,
              "value": 0.5039370078740157
            }
          ],
          "11": [
            {
              "number": 11,
              "ticks": 444,
              "time": 0.59042565,
              "value": 1
            }
          ],
          "64": [
            {
              "number": 64,
              "ticks": 572,
              "time": 0.7606384500000001,
              "value": 0
            }
          ],
          "71": [
            {
              "number": 71,
              "ticks": 604,
              "time": 0.80319165,
              "value": 0.5039370078740157
            }
          ],
          "72": [
            {
              "number": 72,
              "ticks": 636,
              "time": 0.84574485,
              "value": 0.5039370078740157
            }
          ],
          "73": [
            {
              "number": 73,
              "ticks": 668,
              "time": 0.8882980500000001,
              "value": 0.5039370078740157
            }
          ],
          "74": [
            {
              "number": 74,
              "ticks": 700,
              "time": 0.93085125,
              "value": 0.5039370078740157
            }
          ],
          "91": [
            {
              "number": 91,
              "ticks": 476,
              "time": 0.6329788500000001,
              "value": 0.9921259842519685
            }
          ],
          "93": [
            {
              "number": 93,
              "ticks": 508,
              "time": 0.67553205,
              "value": 0
            }
          ],
          "94": [
            {
              "number": 94,
              "ticks": 732,
              "time": 0.97340445,
              "value": 0
            }
          ],
          "120": [
            {
              "number": 120,
              "ticks": 38165,
              "time": 50.998407937500005,
              "value": 0
            }
          ],
          "123": [
            {
              "number": 123,
              "ticks": 38165,
              "time": 50.998407937500005,
              "value": 0
            }
          ]
        },
        "pitchBends": [
          {
            "ticks": 764,
            "time": 1.01595765,
            "value": 0
          }
        ],
        "instrument": {
          "family": "piano",
          "number": 2,
          "name": "electric grand piano"
        },
        "name": "",
        "notes": [
          {
            "duration": 0.6276878895833278,
            "durationTicks": 467,
            "midi": 64,
            "name": "E4",
            "ticks": 33480,
            "time": 44.725459750000006,
            "velocity": 0.6377952755905512
          },
          {
            "duration": 0.4677417249999962,
            "durationTicks": 348,
            "midi": 52,
            "name": "E3",
            "ticks": 33600,
            "time": 44.886750000000006,
            "velocity": 0.6220472440944882
          },
          {
            "duration": 0.46639763958332736,
            "durationTicks": 347,
            "midi": 57,
            "name": "A3",
            "ticks": 33600,
            "time": 44.886750000000006,
            "velocity": 0.6141732283464567
          },
          {
            "duration": 0.47042989583333394,
            "durationTicks": 350,
            "midi": 71,
            "name": "B4",
            "ticks": 33600,
            "time": 44.886750000000006,
            "velocity": 0.6220472440944882
          },
          {
            "duration": 0.4650535541666727,
            "durationTicks": 346,
            "midi": 52,
            "name": "E3",
            "ticks": 33960,
            "time": 45.37062075,
            "velocity": 0.6456692913385826
          },
          {
            "duration": 0.47042989583333394,
            "durationTicks": 350,
            "midi": 57,
            "name": "A3",
            "ticks": 33960,
            "time": 45.37062075,
            "velocity": 0.6377952755905512
          },
          {
            "duration": 0.47042989583333394,
            "durationTicks": 350,
            "midi": 64,
            "name": "E4",
            "ticks": 33960,
            "time": 45.37062075,
            "velocity": 0.6377952755905512
          },
          {
            "duration": 0.46639763958333447,
            "durationTicks": 347,
            "midi": 73,
            "name": "C#5",
            "ticks": 33960,
            "time": 45.37062075,
            "velocity": 0.6220472440944882
          },
          {
            "duration": 4.163863050000003,
            "durationTicks": 3108,
            "midi": 50,
            "name": "D3",
            "ticks": 34320,
            "time": 45.8544915,
            "velocity": 0.6141732283464567
          },
          {
            "duration": 4.161203475000001,
            "durationTicks": 3106,
            "midi": 57,
            "name": "A3",
            "ticks": 34320,
            "time": 45.8544915,
            "velocity": 0.6220472440944882
          },
          {
            "duration": 4.162533262499998,
            "durationTicks": 3107,
            "midi": 64,
            "name": "E4",
            "ticks": 34320,
            "time": 45.8544915,
            "velocity": 0.6456692913385826
          },
          {
            "duration": 4.165192837500001,
            "durationTicks": 3109,
            "midi": 69,
            "name": "A4",
            "ticks": 34320,
            "time": 45.8544915,
            "velocity": 0.6377952755905512
          },
          {
            "duration": 2.872211262499995,
            "durationTicks": 2147,
            "midi": 66,
            "name": "F#4",
            "ticks": 35280,
            "time": 47.144813500000005,
            "velocity": 0.6141732283464567
          },
          {
            "duration": 0.46143626250000125,
            "durationTicks": 347,
            "midi": 57,
            "name": "A3",
            "ticks": 37440,
            "time": 50.034312,
            "velocity": 0.6377952755905512
          },
          {
            "duration": 0.46010647500000346,
            "durationTicks": 346,
            "midi": 64,
            "name": "E4",
            "ticks": 37440,
            "time": 50.034312,
            "velocity": 0.6220472440944882
          },
          {
            "duration": 0.46409583750000394,
            "durationTicks": 349,
            "midi": 69,
            "name": "A4",
            "ticks": 37440,
            "time": 50.034312,
            "velocity": 0.6456692913385826
          },
          {
            "duration": 0.46542562500000173,
            "durationTicks": 350,
            "midi": 74,
            "name": "D5",
            "ticks": 37440,
            "time": 50.034312,
            "velocity": 0.6377952755905512
          },
          {
            "duration": 0.46276604999999904,
            "durationTicks": 348,
            "midi": 57,
            "name": "A3",
            "ticks": 37800,
            "time": 50.5130355,
            "velocity": 0.6220472440944882
          },
          {
            "duration": 0.46276604999999904,
            "durationTicks": 348,
            "midi": 64,
            "name": "E4",
            "ticks": 37800,
            "time": 50.5130355,
            "velocity": 0.6456692913385826
          },
          {
            "duration": 0.46542562500000173,
            "durationTicks": 350,
            "midi": 69,
            "name": "A4",
            "ticks": 37800,
            "time": 50.5130355,
            "velocity": 0.6299212598425197
          },
          {
            "duration": 0.46143626250000125,
            "durationTicks": 347,
            "midi": 73,
            "name": "C#5",
            "ticks": 37800,
            "time": 50.5130355,
            "velocity": 0.6141732283464567
          },
          {
            "duration": 0.009308512499998756,
            "durationTicks": 7,
            "midi": 52,
            "name": "E3",
            "ticks": 38160,
            "time": 50.991759,
            "velocity": 0.6141732283464567
          },
          {
            "duration": 0.006648937500003171,
            "durationTicks": 5,
            "midi": 64,
            "name": "E4",
            "ticks": 38160,
            "time": 50.991759,
            "velocity": 0.6377952755905512
          },
          {
            "duration": 0.009308512499998756,
            "durationTicks": 7,
            "midi": 68,
            "name": "G#4",
            "ticks": 38160,
            "time": 50.991759,
            "velocity": 0.6220472440944882
          },
          {
            "duration": 0.005319149999998274,
            "durationTicks": 4,
            "midi": 71,
            "name": "B4",
            "ticks": 38160,
            "time": 50.991759,
            "velocity": 0.6141732283464567
          }
        ]
      },
      {
        "channel": 0,
        "controlChanges": {
          "121": [
            {
              "number": 121,
              "ticks": 252,
              "time": 0.33510645000000006,
              "value": 0
            }
          ]
        },
        "pitchBends": [],
        "instrument": {
          "family": "piano",
          "number": 0,
          "name": "acoustic grand piano"
        },
        "name": "Magic",
        "notes": [],
        "endOfTrackTicks": 38400
      },
      {
        "channel": 1,
        "controlChanges": {
          "1": [
            {
              "number": 1,
              "ticks": 542,
              "time": 0.720744825,
              "value": 0
            }
          ],
          "6": [
            {
              "number": 6,
              "ticks": 6430,
              "time": 8.550533625000002,
              "value": 0.03937007874015748
            },
            {
              "number": 6,
              "ticks": 7055,
              "time": 9.3816508125,
              "value": 0.05511811023622047
            },
            {
              "number": 6,
              "ticks": 10270,
              "time": 13.693949229166666,
              "value": 0.031496062992125984
            },
            {
              "number": 6,
              "ticks": 14110,
              "time": 18.818205625,
              "value": 0.03937007874015748
            },
            {
              "number": 6,
              "ticks": 14735,
              "time": 19.6493228125,
              "value": 0.05511811023622047
            },
            {
              "number": 6,
              "ticks": 17950,
              "time": 23.934169229166667,
              "value": 0.031496062992125984
            },
            {
              "number": 6,
              "ticks": 18210,
              "time": 24.283631437500002,
              "value": 0.015748031496062992
            },
            {
              "number": 6,
              "ticks": 21790,
              "time": 29.09545722916667,
              "value": 0.03937007874015748
            },
            {
              "number": 6,
              "ticks": 22415,
              "time": 29.935510614583333,
              "value": 0.05511811023622047
            },
            {
              "number": 6,
              "ticks": 25630,
              "time": 34.247165625,
              "value": 0.031496062992125984
            },
            {
              "number": 6,
              "ticks": 29470,
              "time": 39.353549625,
              "value": 0.03937007874015748
            },
            {
              "number": 6,
              "ticks": 30095,
              "time": 40.184666812500005,
              "value": 0.05511811023622047
            },
            {
              "number": 6,
              "ticks": 33310,
              "time": 44.49696522916667,
              "value": 0.031496062992125984
            },
            {
              "number": 6,
              "ticks": 33570,
              "time": 44.846427437500004,
              "value": 0.015748031496062992
            },
            {
              "number": 6,
              "ticks": 37150,
              "time": 49.648673625,
              "value": 0.03937007874015748
            },
            {
              "number": 6,
              "ticks": 37775,
              "time": 50.4797908125,
              "value": 0.05511811023622047
            }
          ],
          "7": [
            {
              "number": 7,
              "ticks": 382,
              "time": 0.507978825,
              "value": 0.84251968503937
            },
            {
              "number": 7,
              "ticks": 33683,
              "time": 44.99830908958334,
              "value": 0.7322834645669292
            },
            {
              "number": 7,
              "ticks": 34241,
              "time": 45.74830875208334,
              "value": 0.6299212598425197
            },
            {
              "number": 7,
              "ticks": 34799,
              "time": 46.498308414583335,
              "value": 0.5196850393700787
            },
            {
              "number": 7,
              "ticks": 35357,
              "time": 47.24830807708334,
              "value": 0.41732283464566927
            },
            {
              "number": 7,
              "ticks": 35915,
              "time": 47.99830773958334,
              "value": 0.31496062992125984
            },
            {
              "number": 7,
              "ticks": 36473,
              "time": 48.748307402083334,
              "value": 0.2047244094488189
            },
            {
              "number": 7,
              "ticks": 37037,
              "time": 49.4984076375,
              "value": 0.10236220472440945
            },
            {
              "number": 7,
              "ticks": 37601,
              "time": 50.2484077875,
              "value": 0
            }
          ],
          "10": [
            {
              "number": 10,
              "ticks": 414,
              "time": 0.5505320250000001,
              "value": 0.5039370078740157
            }
          ],
          "11": [
            {
              "number": 11,
              "ticks": 446,
              "time": 0.593085225,
              "value": 1
            }
          ],
          "38": [
            {
              "number": 38,
              "ticks": 6430,
              "time": 8.550533625000002,
              "value": 0
            },
            {
              "number": 38,
              "ticks": 7055,
              "time": 9.3816508125,
              "value": 0
            },
            {
              "number": 38,
              "ticks": 10270,
              "time": 13.693949229166666,
              "value": 0
            },
            {
              "number": 38,
              "ticks": 14110,
              "time": 18.818205625,
              "value": 0
            },
            {
              "number": 38,
              "ticks": 14735,
              "time": 19.6493228125,
              "value": 0
            },
            {
              "number": 38,
              "ticks": 17950,
              "time": 23.934169229166667,
              "value": 0
            },
            {
              "number": 38,
              "ticks": 18210,
              "time": 24.283631437500002,
              "value": 0
            },
            {
              "number": 38,
              "ticks": 21790,
              "time": 29.09545722916667,
              "value": 0
            },
            {
              "number": 38,
              "ticks": 22415,
              "time": 29.935510614583333,
              "value": 0
            },
            {
              "number": 38,
              "ticks": 25630,
              "time": 34.247165625,
              "value": 0
            },
            {
              "number": 38,
              "ticks": 29470,
              "time": 39.353549625,
              "value": 0
            },
            {
              "number": 38,
              "ticks": 30095,
              "time": 40.184666812500005,
              "value": 0
            },
            {
              "number": 38,
              "ticks": 33310,
              "time": 44.49696522916667,
              "value": 0
            },
            {
              "number": 38,
              "ticks": 33570,
              "time": 44.846427437500004,
              "value": 0
            },
            {
              "number": 38,
              "ticks": 37150,
              "time": 49.648673625,
              "value": 0
            },
            {
              "number": 38,
              "ticks": 37775,
              "time": 50.4797908125,
              "value": 0
            }
          ],
          "64": [
            {
              "number": 64,
              "ticks": 574,
              "time": 0.763298025,
              "value": 0
            }
          ],
          "71": [
            {
              "number": 71,
              "ticks": 606,
              "time": 0.8058512250000001,
              "value": 0.5039370078740157
            }
          ],
          "72": [
            {
              "number": 72,
              "ticks": 638,
              "time": 0.848404425,
              "value": 0.5039370078740157
            }
          ],
          "73": [
            {
              "number": 73,
              "ticks": 670,
              "time": 0.890957625,
              "value": 0.5039370078740157
            }
          ],
          "74": [
            {
              "number": 74,
              "ticks": 702,
              "time": 0.933510825,
              "value": 0.5039370078740157
            }
          ],
          "91": [
            {
              "number": 91,
              "ticks": 478,
              "time": 0.635638425,
              "value": 0.12598425196850394
            }
          ],
          "93": [
            {
              "number": 93,
              "ticks": 510,
              "time": 0.6781916250000001,
              "value": 0
            }
          ],
          "94": [
            {
              "number": 94,
              "ticks": 734,
              "time": 0.976064025,
              "value": 0
            }
          ],
          "100": [
            {
              "number": 100,
              "ticks": 6430,
              "time": 8.550533625000002,
              "value": 0
            },
            {
              "number": 100,
              "ticks": 7055,
              "time": 9.3816508125,
              "value": 0
            },
            {
              "number": 100,
              "ticks": 10270,
              "time": 13.693949229166666,
              "value": 0
            },
            {
              "number": 100,
              "ticks": 14110,
              "time": 18.818205625,
              "value": 0
            },
            {
              "number": 100,
              "ticks": 14735,
              "time": 19.6493228125,
              "value": 0
            },
            {
              "number": 100,
              "ticks": 17950,
              "time": 23.934169229166667,
              "value": 0
            },
            {
              "number": 100,
              "ticks": 18210,
              "time": 24.283631437500002,
              "value": 0
            },
            {
              "number": 100,
              "ticks": 21790,
              "time": 29.09545722916667,
              "value": 0
            },
            {
              "number": 100,
              "ticks": 22415,
              "time": 29.935510614583333,
              "value": 0
            },
            {
              "number": 100,
              "ticks": 25630,
              "time": 34.247165625,
              "value": 0
            },
            {
              "number": 100,
              "ticks": 29470,
              "time": 39.353549625,
              "value": 0
            },
            {
              "number": 100,
              "ticks": 30095,
              "time": 40.184666812500005,
              "value": 0
            },
            {
              "number": 100,
              "ticks": 33310,
              "time": 44.49696522916667,
              "value": 0
            },
            {
              "number": 100,
              "ticks": 33570,
              "time": 44.846427437500004,
              "value": 0
            },
            {
              "number": 100,
              "ticks": 37150,
              "time": 49.648673625,
              "value": 0
            },
            {
              "number": 100,
              "ticks": 37775,
              "time": 50.4797908125,
              "value": 0
            }
          ],
          "101": [
            {
              "number": 101,
              "ticks": 6430,
              "time": 8.550533625000002,
              "value": 0
            },
            {
              "number": 101,
              "ticks": 7055,
              "time": 9.3816508125,
              "value": 0
            },
            {
              "number": 101,
              "ticks": 10270,
              "time": 13.693949229166666,
              "value": 0
            },
            {
              "number": 101,
              "ticks": 14110,
              "time": 18.818205625,
              "value": 0
            },
            {
              "number": 101,
              "ticks": 14735,
              "time": 19.6493228125,
              "value": 0
            },
            {
              "number": 101,
              "ticks": 17950,
              "time": 23.934169229166667,
              "value": 0
            },
            {
              "number": 101,
              "ticks": 18210,
              "time": 24.283631437500002,
              "value": 0
            },
            {
              "number": 101,
              "ticks": 21790,
              "time": 29.09545722916667,
              "value": 0
            },
            {
              "number": 101,
              "ticks": 22415,
              "time": 29.935510614583333,
              "value": 0
            },
            {
              "number": 101,
              "ticks": 25630,
              "time": 34.247165625,
              "value": 0
            },
            {
              "number": 101,
              "ticks": 29470,
              "time": 39.353549625,
              "value": 0
            },
            {
              "number": 101,
              "ticks": 30095,
              "time": 40.184666812500005,
              "value": 0
            },
            {
              "number": 101,
              "ticks": 33310,
              "time": 44.49696522916667,
              "value": 0
            },
            {
              "number": 101,
              "ticks": 33570,
              "time": 44.846427437500004,
              "value": 0
            },
            {
              "number": 101,
              "ticks": 37150,
              "time": 49.648673625,
              "value": 0
            },
            {
              "number": 101,
              "ticks": 37775,
              "time": 50.4797908125,
              "value": 0
            }
          ],
          "120": [
            {
              "number": 120,
              "ticks": 38165,
              "time": 50.998407937500005,
              "value": 0
            }
          ],
          "123": [
            {
              "number": 123,
              "ticks": 38165,
              "time": 50.998407937500005,
              "value": 0
            }
          ]
        },
        "pitchBends": [
          {
            "ticks": 766,
            "time": 1.018617225,
            "value": 0
          },
          {
            "ticks": 6465,
            "time": 8.5970761875,
            "value": 0.9998779296875
          },
          {
            "ticks": 6595,
            "time": 8.769948562500002,
            "value": 0.7081298828125
          },
          {
            "ticks": 6615,
            "time": 8.7965443125,
            "value": 0.54150390625
          },
          {
            "ticks": 6655,
            "time": 8.8497358125,
            "value": 0.208251953125
          },
          {
            "ticks": 6675,
            "time": 8.8763315625,
            "value": 0.0416259765625
          },
          {
            "ticks": 6680,
            "time": 8.8829805,
            "value": 0
          },
          {
            "ticks": 7065,
            "time": 9.394948687500001,
            "value": -1
          },
          {
            "ticks": 7295,
            "time": 9.7007998125,
            "value": -0.874755859375
          },
          {
            "ticks": 7315,
            "time": 9.727395562500002,
            "value": -0.7081298828125
          },
          {
            "ticks": 7335,
            "time": 9.7539913125,
            "value": -0.54150390625
          },
          {
            "ticks": 7355,
            "time": 9.7805870625,
            "value": -0.3748779296875
          },
          {
            "ticks": 7375,
            "time": 9.8071828125,
            "value": -0.208251953125
          },
          {
            "ticks": 7395,
            "time": 9.833778562500001,
            "value": -0.0416259765625
          },
          {
            "ticks": 7400,
            "time": 9.8404275,
            "value": 0
          },
          {
            "ticks": 10305,
            "time": 13.74099221875,
            "value": 0.9998779296875
          },
          {
            "ticks": 10435,
            "time": 13.915723322916667,
            "value": 0.7081298828125
          },
          {
            "ticks": 10455,
            "time": 13.94260503125,
            "value": 0.54150390625
          },
          {
            "ticks": 10495,
            "time": 13.996368447916666,
            "value": 0.208251953125
          },
          {
            "ticks": 10515,
            "time": 14.02325015625,
            "value": 0.0416259765625
          },
          {
            "ticks": 10520,
            "time": 14.029970583333334,
            "value": 0
          },
          {
            "ticks": 14145,
            "time": 18.8647481875,
            "value": 0.9998779296875
          },
          {
            "ticks": 14275,
            "time": 19.0376205625,
            "value": 0.7081298828125
          },
          {
            "ticks": 14295,
            "time": 19.0642163125,
            "value": 0.54150390625
          },
          {
            "ticks": 14335,
            "time": 19.117407812499998,
            "value": 0.208251953125
          },
          {
            "ticks": 14355,
            "time": 19.1440035625,
            "value": 0.0416259765625
          },
          {
            "ticks": 14360,
            "time": 19.1506525,
            "value": 0
          },
          {
            "ticks": 14745,
            "time": 19.6626206875,
            "value": -1
          },
          {
            "ticks": 14975,
            "time": 19.9684718125,
            "value": -0.874755859375
          },
          {
            "ticks": 14995,
            "time": 19.995067562499997,
            "value": -0.7081298828125
          },
          {
            "ticks": 15015,
            "time": 20.0216633125,
            "value": -0.54150390625
          },
          {
            "ticks": 15035,
            "time": 20.0482590625,
            "value": -0.3748779296875
          },
          {
            "ticks": 15055,
            "time": 20.0748548125,
            "value": -0.208251953125
          },
          {
            "ticks": 15075,
            "time": 20.1014505625,
            "value": -0.0416259765625
          },
          {
            "ticks": 15080,
            "time": 20.1080995,
            "value": 0
          },
          {
            "ticks": 17985,
            "time": 23.981212218750002,
            "value": 0.9998779296875
          },
          {
            "ticks": 18115,
            "time": 24.155943322916666,
            "value": 0.7081298828125
          },
          {
            "ticks": 18135,
            "time": 24.18282503125,
            "value": 0.54150390625
          },
          {
            "ticks": 18175,
            "time": 24.236588447916667,
            "value": 0.208251953125
          },
          {
            "ticks": 18195,
            "time": 24.26347015625,
            "value": 0.0416259765625
          },
          {
            "ticks": 18200,
            "time": 24.270190583333335,
            "value": 0
          },
          {
            "ticks": 21825,
            "time": 29.14250021875,
            "value": 0.9998779296875
          },
          {
            "ticks": 21955,
            "time": 29.31723132291667,
            "value": 0.7081298828125
          },
          {
            "ticks": 21975,
            "time": 29.34411303125,
            "value": 0.54150390625
          },
          {
            "ticks": 22015,
            "time": 29.397876447916666,
            "value": 0.208251953125
          },
          {
            "ticks": 22035,
            "time": 29.42475815625,
            "value": 0.0416259765625
          },
          {
            "ticks": 22040,
            "time": 29.431478583333334,
            "value": 0
          },
          {
            "ticks": 22425,
            "time": 29.94895146875,
            "value": -1
          },
          {
            "ticks": 22655,
            "time": 30.258091114583333,
            "value": -0.874755859375
          },
          {
            "ticks": 22675,
            "time": 30.284972822916668,
            "value": -0.7081298828125
          },
          {
            "ticks": 22695,
            "time": 30.31185453125,
            "value": -0.54150390625
          },
          {
            "ticks": 22715,
            "time": 30.338736239583334,
            "value": -0.3748779296875
          },
          {
            "ticks": 22735,
            "time": 30.365617947916668,
            "value": -0.208251953125
          },
          {
            "ticks": 22755,
            "time": 30.392499656250003,
            "value": -0.0416259765625
          },
          {
            "ticks": 22760,
            "time": 30.399220083333333,
            "value": 0
          },
          {
            "ticks": 25665,
            "time": 34.2937081875,
            "value": 0.9998779296875
          },
          {
            "ticks": 25795,
            "time": 34.4665805625,
            "value": 0.7081298828125
          },
          {
            "ticks": 25815,
            "time": 34.493176312500005,
            "value": 0.54150390625
          },
          {
            "ticks": 25855,
            "time": 34.5463678125,
            "value": 0.208251953125
          },
          {
            "ticks": 25875,
            "time": 34.5729635625,
            "value": 0.0416259765625
          },
          {
            "ticks": 25880,
            "time": 34.5796125,
            "value": 0
          },
          {
            "ticks": 29505,
            "time": 39.4000921875,
            "value": 0.9998779296875
          },
          {
            "ticks": 29635,
            "time": 39.572964562500005,
            "value": 0.7081298828125
          },
          {
            "ticks": 29655,
            "time": 39.5995603125,
            "value": 0.54150390625
          },
          {
            "ticks": 29695,
            "time": 39.6527518125,
            "value": 0.208251953125
          },
          {
            "ticks": 29715,
            "time": 39.679347562500006,
            "value": 0.0416259765625
          },
          {
            "ticks": 29720,
            "time": 39.6859965,
            "value": 0
          },
          {
            "ticks": 30105,
            "time": 40.197964687500004,
            "value": -1
          },
          {
            "ticks": 30335,
            "time": 40.5038158125,
            "value": -0.874755859375
          },
          {
            "ticks": 30355,
            "time": 40.53041156250001,
            "value": -0.7081298828125
          },
          {
            "ticks": 30375,
            "time": 40.557007312500005,
            "value": -0.54150390625
          },
          {
            "ticks": 30395,
            "time": 40.5836030625,
            "value": -0.3748779296875
          },
          {
            "ticks": 30415,
            "time": 40.6101988125,
            "value": -0.208251953125
          },
          {
            "ticks": 30435,
            "time": 40.6367945625,
            "value": -0.0416259765625
          },
          {
            "ticks": 30440,
            "time": 40.643443500000004,
            "value": 0
          },
          {
            "ticks": 33345,
            "time": 44.54400821875,
            "value": 0.9998779296875
          },
          {
            "ticks": 33475,
            "time": 44.71873932291667,
            "value": 0.7081298828125
          },
          {
            "ticks": 33495,
            "time": 44.74562103125,
            "value": 0.54150390625
          },
          {
            "ticks": 33535,
            "time": 44.79938444791667,
            "value": 0.208251953125
          },
          {
            "ticks": 33555,
            "time": 44.82626615625,
            "value": 0.0416259765625
          },
          {
            "ticks": 33560,
            "time": 44.83298658333334,
            "value": 0
          },
          {
            "ticks": 37185,
            "time": 49.6952161875,
            "value": 0.9998779296875
          },
          {
            "ticks": 37315,
            "time": 49.8680885625,
            "value": 0.7081298828125
          },
          {
            "ticks": 37335,
            "time": 49.894684312500004,
            "value": 0.54150390625
          },
          {
            "ticks": 37375,
            "time": 49.9478758125,
            "value": 0.208251953125
          },
          {
            "ticks": 37395,
            "time": 49.9744715625,
            "value": 0.0416259765625
          },
          {
            "ticks": 37400,
            "time": 49.9811205,
            "value": 0
          },
          {
            "ticks": 37785,
            "time": 50.493088687500006,
            "value": -1
          },
          {
            "ticks": 38015,
            "time": 50.7989398125,
            "value": -0.874755859375
          },
          {
            "ticks": 38035,
            "time": 50.8255355625,
            "value": -0.7081298828125
          },
          {
            "ticks": 38055,
            "time": 50.8521313125,
            "value": -0.54150390625
          },
          {
            "ticks": 38075,
            "time": 50.878727062500005,
            "value": -0.3748779296875
          },
          {
            "ticks": 38095,
            "time": 50.9053228125,
            "value": -0.208251953125
          },
          {
            "ticks": 38115,
            "time": 50.9319185625,
            "value": -0.0416259765625
          },
          {
            "ticks": 38120,
            "time": 50.938567500000005,
            "value": 0
          }
        ],
        "instrument": {
          "family": "bass",
          "number": 33,
          "name": "electric bass (finger)"
        },
        "name": "",
        "notes": [
          {
            "duration": 0.6196809749999996,
            "durationTicks": 466,
            "midi": 38,
            "name": "D2",
            "ticks": 3840,
            "time": 5.106384,
            "velocity": 0.6141732283464567
          },
          {
            "duration": 0.4454788125000002,
            "durationTicks": 335,
            "midi": 54,
            "name": "F#3",
            "ticks": 3960,
            "time": 5.2659585,
            "velocity": 0.6377952755905512
          },
          {
            "duration": 0.4521277500000007,
            "durationTicks": 340,
            "midi": 38,
            "name": "D2",
            "ticks": 4320,
            "time": 5.744682,
            "velocity": 0.6377952755905512
          },
          {
            "duration": 0.4534575375000003,
            "durationTicks": 341,
            "midi": 54,
            "name": "F#3",
            "ticks": 4320,
            "time": 5.744682,
            "velocity": 0.6141732283464567
          },
          {
            "duration": 0.44414902499999975,
            "durationTicks": 334,
            "midi": 38,
            "name": "D2",
            "ticks": 4680,
            "time": 6.2234055,
            "velocity": 0.6377952755905512
          },
          {
            "duration": 0.4534575375000003,
            "durationTicks": 341,
            "midi": 54,
            "name": "F#3",
            "ticks": 4680,
            "time": 6.2234055,
            "velocity": 0.6220472440944882
          },
          {
            "duration": 0.4468085999999998,
            "durationTicks": 336,
            "midi": 38,
            "name": "D2",
            "ticks": 5040,
            "time": 6.702129,
            "velocity": 0.6377952755905512
          },
          {
            "duration": 0.45079796250000026,
            "durationTicks": 339,
            "midi": 54,
            "name": "F#3",
            "ticks": 5040,
            "time": 6.702129,
            "velocity": 0.6456692913385826
          },
          {
            "duration": 0.4601064749999999,
            "durationTicks": 346,
            "midi": 38,
            "name": "D2",
            "ticks": 5400,
            "time": 7.1808525,
            "velocity": 0.6377952755905512
          },
          {
            "duration": 0.4574468999999999,
            "durationTicks": 344,
            "midi": 54,
            "name": "F#3",
            "ticks": 5400,
            "time": 7.1808525,
            "velocity": 0.6377952755905512
          },
          {
            "duration": 0.4494681750000007,
            "durationTicks": 338,
            "midi": 38,
            "name": "D2",
            "ticks": 5760,
            "time": 7.659576,
            "velocity": 0.6299212598425197
          },
          {
            "duration": 0.45212774999999983,
            "durationTicks": 340,
            "midi": 54,
            "name": "F#3",
            "ticks": 5760,
            "time": 7.659576,
            "velocity": 0.6220472440944882
          },
          {
            "duration": 0.4175532749999995,
            "durationTicks": 314,
            "midi": 38,
            "name": "D2",
            "ticks": 6120,
            "time": 8.1382995,
            "velocity": 0.6141732283464567
          },
          {
            "duration": 0.4135639125000008,
            "durationTicks": 311,
            "midi": 54,
            "name": "F#3",
            "ticks": 6120,
            "time": 8.1382995,
            "velocity": 0.6141732283464567
          },
          {
            "duration": 0.29787240000000104,
            "durationTicks": 224,
            "midi": 33,
            "name": "A1",
            "ticks": 6480,
            "time": 8.617023,
            "velocity": 0.6220472440944882
          },
          {
            "duration": 0.29787240000000104,
            "durationTicks": 224,
            "midi": 49,
            "name": "C#3",
            "ticks": 6480,
            "time": 8.617023,
            "velocity": 0.6220472440944882
          },
          {
            "duration": 0.4175532749999995,
            "durationTicks": 314,
            "midi": 33,
            "name": "A1",
            "ticks": 6720,
            "time": 8.936172000000001,
            "velocity": 0.6141732283464567
          },
          {
            "duration": 0.413563912499999,
            "durationTicks": 311,
            "midi": 49,
            "name": "C#3",
            "ticks": 6720,
            "time": 8.936172000000001,
            "velocity": 0.6456692913385826
          },
          {
            "duration": 0.44813838750000023,
            "durationTicks": 337,
            "midi": 40,
            "name": "E2",
            "ticks": 7080,
            "time": 9.4148955,
            "velocity": 0.6141732283464567
          },
          {
            "duration": 0.45079796250000115,
            "durationTicks": 339,
            "midi": 56,
            "name": "G#3",
            "ticks": 7080,
            "time": 9.4148955,
            "velocity": 0.6141732283464567
          },
          {
            "duration": 0.45624571249999946,
            "durationTicks": 342,
            "midi": 40,
            "name": "E2",
            "ticks": 7440,
            "time": 9.893619000000001,
            "velocity": 0.6456692913385826
          },
          {
            "duration": 0.4589338833333336,
            "durationTicks": 344,
            "midi": 56,
            "name": "G#3",
            "ticks": 7440,
            "time": 9.893619000000001,
            "velocity": 0.6456692913385826
          },
          {
            "duration": 0.45833312708333374,
            "durationTicks": 341,
            "midi": 40,
            "name": "E2",
            "ticks": 7800,
            "time": 10.374058250000001,
            "velocity": 0.6299212598425197
          },
          {
            "duration": 0.4516127000000001,
            "durationTicks": 336,
            "midi": 56,
            "name": "G#3",
            "ticks": 7800,
            "time": 10.374058250000001,
            "velocity": 0.6377952755905512
          },
          {
            "duration": 0.47042989583333394,
            "durationTicks": 350,
            "midi": 40,
            "name": "E2",
            "ticks": 8160,
            "time": 10.857929,
            "velocity": 0.6456692913385826
          },
          {
            "duration": 0.45698904166666665,
            "durationTicks": 340,
            "midi": 56,
            "name": "G#3",
            "ticks": 8160,
            "time": 10.857929,
            "velocity": 0.6141732283464567
          },
          {
            "duration": 0.462365383333335,
            "durationTicks": 344,
            "midi": 40,
            "name": "E2",
            "ticks": 8520,
            "time": 11.34179975,
            "velocity": 0.6141732283464567
          },
          {
            "duration": 0.45698904166666665,
            "durationTicks": 340,
            "midi": 56,
            "name": "G#3",
            "ticks": 8520,
            "time": 11.34179975,
            "velocity": 0.6299212598425197
          },
          {
            "duration": 0.4690858104166651,
            "durationTicks": 349,
            "midi": 40,
            "name": "E2",
            "ticks": 8880,
            "time": 11.825670500000001,
            "velocity": 0.6377952755905512
          },
          {
            "duration": 0.45833312708333196,
            "durationTicks": 341,
            "midi": 56,
            "name": "G#3",
            "ticks": 8880,
            "time": 11.825670500000001,
            "velocity": 0.6299212598425197
          },
          {
            "duration": 0.4516127000000001,
            "durationTicks": 336,
            "midi": 40,
            "name": "E2",
            "ticks": 9240,
            "time": 12.30954125,
            "velocity": 0.6377952755905512
          },
          {
            "duration": 0.4677417249999998,
            "durationTicks": 348,
            "midi": 56,
            "name": "G#3",
            "ticks": 9240,
            "time": 12.30954125,
            "velocity": 0.6141732283464567
          },
          {
            "duration": 0.4637094687500003,
            "durationTicks": 345,
            "midi": 40,
            "name": "E2",
            "ticks": 9600,
            "time": 12.793412,
            "velocity": 0.6220472440944882
          },
          {
            "duration": 0.45564495625000134,
            "durationTicks": 339,
            "midi": 56,
            "name": "G#3",
            "ticks": 9600,
            "time": 12.793412,
            "velocity": 0.6220472440944882
          },
          {
            "duration": 0.43145141874999915,
            "durationTicks": 321,
            "midi": 40,
            "name": "E2",
            "ticks": 9960,
            "time": 13.277282750000001,
            "velocity": 0.6456692913385826
          },
          {
            "duration": 0.43010733333333206,
            "durationTicks": 320,
            "midi": 56,
            "name": "G#3",
            "ticks": 9960,
            "time": 13.277282750000001,
            "velocity": 0.6141732283464567
          },
          {
            "duration": 0.2970428770833333,
            "durationTicks": 221,
            "midi": 36,
            "name": "C2",
            "ticks": 10320,
            "time": 13.7611535,
            "velocity": 0.6299212598425197
          },
          {
            "duration": 0.2876342791666673,
            "durationTicks": 214,
            "midi": 52,
            "name": "E3",
            "ticks": 10320,
            "time": 13.7611535,
            "velocity": 0.6299212598425197
          },
          {
            "duration": 0.462365383333335,
            "durationTicks": 344,
            "midi": 37,
            "name": "C#2",
            "ticks": 10560,
            "time": 14.083734,
            "velocity": 0.6299212598425197
          },
          {
            "duration": 0.45564495625000134,
            "durationTicks": 339,
            "midi": 52,
            "name": "E3",
            "ticks": 10560,
            "time": 14.083734,
            "velocity": 0.6299212598425197
          },
          {
            "duration": 0.29704287708333155,
            "durationTicks": 221,
            "midi": 37,
            "name": "C#2",
            "ticks": 10920,
            "time": 14.567604750000001,
            "velocity": 0.6220472440944882
          },
          {
            "duration": 0.29435470624999915,
            "durationTicks": 219,
            "midi": 52,
            "name": "E3",
            "ticks": 10920,
            "time": 14.567604750000001,
            "velocity": 0.6456692913385826
          },
          {
            "duration": 0.46885712499999954,
            "durationTicks": 350,
            "midi": 38,
            "name": "D2",
            "ticks": 11280,
            "time": 15.0514755,
            "velocity": 0.6377952755905512
          },
          {
            "duration": 0.45821882499999944,
            "durationTicks": 342,
            "midi": 54,
            "name": "F#3",
            "ticks": 11280,
            "time": 15.0514755,
            "velocity": 0.6299212598425197
          },
          {
            "duration": 0.4640958375000004,
            "durationTicks": 349,
            "midi": 38,
            "name": "D2",
            "ticks": 11640,
            "time": 15.5336305,
            "velocity": 0.6141732283464567
          },
          {
            "duration": 0.46542562499999995,
            "durationTicks": 350,
            "midi": 54,
            "name": "F#3",
            "ticks": 11640,
            "time": 15.5336305,
            "velocity": 0.6141732283464567
          },
          {
            "duration": 0.4640958375000004,
            "durationTicks": 349,
            "midi": 38,
            "name": "D2",
            "ticks": 12000,
            "time": 16.012354,
            "velocity": 0.6220472440944882
          },
          {
            "duration": 0.4587766875000021,
            "durationTicks": 345,
            "midi": 54,
            "name": "F#3",
            "ticks": 12000,
            "time": 16.012354,
            "velocity": 0.6299212598425197
          },
          {
            "duration": 0.45079796250000115,
            "durationTicks": 339,
            "midi": 38,
            "name": "D2",
            "ticks": 12360,
            "time": 16.4910775,
            "velocity": 0.6220472440944882
          },
          {
            "duration": 0.45744690000000077,
            "durationTicks": 344,
            "midi": 54,
            "name": "F#3",
            "ticks": 12360,
            "time": 16.4910775,
            "velocity": 0.6377952755905512
          },
          {
            "duration": 0.46276604999999904,
            "durationTicks": 348,
            "midi": 38,
            "name": "D2",
            "ticks": 12720,
            "time": 16.969801,
            "velocity": 0.6220472440944882
          },
          {
            "duration": 0.444149024999998,
            "durationTicks": 334,
            "midi": 54,
            "name": "F#3",
            "ticks": 12720,
            "time": 16.969801,
            "velocity": 0.6299212598425197
          },
          {
            "duration": 0.45079796250000115,
            "durationTicks": 339,
            "midi": 38,
            "name": "D2",
            "ticks": 13080,
            "time": 17.448524499999998,
            "velocity": 0.6141732283464567
          },
          {
            "duration": 0.46143626250000125,
            "durationTicks": 347,
            "midi": 54,
            "name": "F#3",
            "ticks": 13080,
            "time": 17.448524499999998,
            "velocity": 0.6299212598425197
          },
          {
            "duration": 0.4587766875000021,
            "durationTicks": 345,
            "midi": 38,
            "name": "D2",
            "ticks": 13440,
            "time": 17.927248,
            "velocity": 0.6456692913385826
          },
          {
            "duration": 0.46542562500000173,
            "durationTicks": 350,
            "midi": 54,
            "name": "F#3",
            "ticks": 13440,
            "time": 17.927248,
            "velocity": 0.6377952755905512
          },
          {
            "duration": 0.42553200000000047,
            "durationTicks": 320,
            "midi": 38,
            "name": "D2",
            "ticks": 13800,
            "time": 18.4059715,
            "velocity": 0.6220472440944882
          },
          {
            "duration": 0.42021284999999864,
            "durationTicks": 316,
            "midi": 54,
            "name": "F#3",
            "ticks": 13800,
            "time": 18.4059715,
            "velocity": 0.6456692913385826
          },
          {
            "duration": 0.29255324999999743,
            "durationTicks": 220,
            "midi": 33,
            "name": "A1",
            "ticks": 14160,
            "time": 18.884695,
            "velocity": 0.6299212598425197
          },
          {
            "duration": 0.2992021875000006,
            "durationTicks": 225,
            "midi": 49,
            "name": "C#3",
            "ticks": 14160,
            "time": 18.884695,
            "velocity": 0.6299212598425197
          },
          {
            "duration": 0.41888306250000085,
            "durationTicks": 315,
            "midi": 33,
            "name": "A1",
            "ticks": 14400,
            "time": 19.203844,
            "velocity": 0.6299212598425197
          },
          {
            "duration": 0.4228724249999978,
            "durationTicks": 318,
            "midi": 49,
            "name": "C#3",
            "ticks": 14400,
            "time": 19.203844,
            "velocity": 0.6456692913385826
          },
          {
            "duration": 0.46010647500000346,
            "durationTicks": 346,
            "midi": 40,
            "name": "E2",
            "ticks": 14760,
            "time": 19.682567499999998,
            "velocity": 0.6377952755905512
          },
          {
            "duration": 0.4521277500000025,
            "durationTicks": 340,
            "midi": 56,
            "name": "G#3",
            "ticks": 14760,
            "time": 19.682567499999998,
            "velocity": 0.6141732283464567
          },
          {
            "duration": 0.45744690000000077,
            "durationTicks": 344,
            "midi": 40,
            "name": "E2",
            "ticks": 15120,
            "time": 20.161291,
            "velocity": 0.6456692913385826
          },
          {
            "duration": 0.4534575375000003,
            "durationTicks": 341,
            "midi": 56,
            "name": "G#3",
            "ticks": 15120,
            "time": 20.161291,
            "velocity": 0.6220472440944882
          },
          {
            "duration": 0.45478732500000163,
            "durationTicks": 342,
            "midi": 40,
            "name": "E2",
            "ticks": 15480,
            "time": 20.6400145,
            "velocity": 0.6141732283464567
          },
          {
            "duration": 0.4534575375000003,
            "durationTicks": 341,
            "midi": 56,
            "name": "G#3",
            "ticks": 15480,
            "time": 20.6400145,
            "velocity": 0.6141732283464567
          },
          {
            "duration": 0.46143626250000125,
            "durationTicks": 347,
            "midi": 40,
            "name": "E2",
            "ticks": 15840,
            "time": 21.118738,
            "velocity": 0.6456692913385826
          },
          {
            "duration": 0.46276604999999904,
            "durationTicks": 348,
            "midi": 56,
            "name": "G#3",
            "ticks": 15840,
            "time": 21.118738,
            "velocity": 0.6220472440944882
          },
          {
            "duration": 0.4574468999999972,
            "durationTicks": 344,
            "midi": 40,
            "name": "E2",
            "ticks": 16200,
            "time": 21.5974615,
            "velocity": 0.6220472440944882
          },
          {
            "duration": 0.4574468999999972,
            "durationTicks": 344,
            "midi": 56,
            "name": "G#3",
            "ticks": 16200,
            "time": 21.5974615,
            "velocity": 0.6220472440944882
          },
          {
            "duration": 0.45478732500000163,
            "durationTicks": 342,
            "midi": 40,
            "name": "E2",
            "ticks": 16560,
            "time": 22.076185,
            "velocity": 0.6141732283464567
          },
          {
            "duration": 0.4587766875000021,
            "durationTicks": 345,
            "midi": 56,
            "name": "G#3",
            "ticks": 16560,
            "time": 22.076185,
            "velocity": 0.6141732283464567
          },
          {
            "duration": 0.45079796250000115,
            "durationTicks": 339,
            "midi": 40,
            "name": "E2",
            "ticks": 16920,
            "time": 22.5549085,
            "velocity": 0.6456692913385826
          },
          {
            "duration": 0.44813838749999846,
            "durationTicks": 337,
            "midi": 56,
            "name": "G#3",
            "ticks": 16920,
            "time": 22.5549085,
            "velocity": 0.6299212598425197
          },
          {
            "duration": 0.45833312708333196,
            "durationTicks": 341,
            "midi": 40,
            "name": "E2",
            "ticks": 17280,
            "time": 23.033632,
            "velocity": 0.6141732283464567
          },
          {
            "duration": 0.45564495625000134,
            "durationTicks": 339,
            "midi": 56,
            "name": "G#3",
            "ticks": 17280,
            "time": 23.033632,
            "velocity": 0.6299212598425197
          },
          {
            "duration": 0.41935464999999894,
            "durationTicks": 312,
            "midi": 40,
            "name": "E2",
            "ticks": 17640,
            "time": 23.517502750000002,
            "velocity": 0.6220472440944882
          },
          {
            "duration": 0.42876324791666676,
            "durationTicks": 319,
            "midi": 56,
            "name": "G#3",
            "ticks": 17640,
            "time": 23.517502750000002,
            "velocity": 0.6220472440944882
          },
          {
            "duration": 0.29569879166666624,
            "durationTicks": 220,
            "midi": 36,
            "name": "C2",
            "ticks": 18000,
            "time": 24.0013735,
            "velocity": 0.6377952755905512
          },
          {
            "duration": 0.28897836458333614,
            "durationTicks": 215,
            "midi": 52,
            "name": "E3",
            "ticks": 18000,
            "time": 24.0013735,
            "velocity": 0.6456692913385826
          },
          {
            "duration": 0.4650535541666656,
            "durationTicks": 346,
            "midi": 37,
            "name": "C#2",
            "ticks": 18240,
            "time": 24.323954,
            "velocity": 0.6141732283464567
          },
          {
            "duration": 0.45698904166666665,
            "durationTicks": 340,
            "midi": 52,
            "name": "E3",
            "ticks": 18240,
            "time": 24.323954,
            "velocity": 0.6220472440944882
          },
          {
            "duration": 0.29569879166666624,
            "durationTicks": 220,
            "midi": 37,
            "name": "C#2",
            "ticks": 18600,
            "time": 24.80782475,
            "velocity": 0.6456692913385826
          },
          {
            "duration": 0.3024192187499999,
            "durationTicks": 225,
            "midi": 52,
            "name": "E3",
            "ticks": 18600,
            "time": 24.80782475,
            "velocity": 0.6377952755905512
          },
          {
            "duration": 0.45698904166666665,
            "durationTicks": 340,
            "midi": 38,
            "name": "D2",
            "ticks": 18960,
            "time": 25.2916955,
            "velocity": 0.6141732283464567
          },
          {
            "duration": 0.4596772125000008,
            "durationTicks": 342,
            "midi": 54,
            "name": "F#3",
            "ticks": 18960,
            "time": 25.2916955,
            "velocity": 0.6456692913385826
          },
          {
            "duration": 0.45833312708333196,
            "durationTicks": 341,
            "midi": 38,
            "name": "D2",
            "ticks": 19320,
            "time": 25.77556625,
            "velocity": 0.6220472440944882
          },
          {
            "duration": 0.46908581041666864,
            "durationTicks": 349,
            "midi": 54,
            "name": "F#3",
            "ticks": 19320,
            "time": 25.77556625,
            "velocity": 0.6141732283464567
          },
          {
            "duration": 0.4529567854166636,
            "durationTicks": 337,
            "midi": 38,
            "name": "D2",
            "ticks": 19680,
            "time": 26.259437000000002,
            "velocity": 0.6141732283464567
          },
          {
            "duration": 0.46102129791666613,
            "durationTicks": 343,
            "midi": 54,
            "name": "F#3",
            "ticks": 19680,
            "time": 26.259437000000002,
            "velocity": 0.6299212598425197
          },
          {
            "duration": 0.4637094687500003,
            "durationTicks": 345,
            "midi": 38,
            "name": "D2",
            "ticks": 20040,
            "time": 26.74330775,
            "velocity": 0.6456692913385826
          },
          {
            "duration": 0.462365383333335,
            "durationTicks": 344,
            "midi": 54,
            "name": "F#3",
            "ticks": 20040,
            "time": 26.74330775,
            "velocity": 0.6141732283464567
          },
          {
            "duration": 0.45698904166666665,
            "durationTicks": 340,
            "midi": 38,
            "name": "D2",
            "ticks": 20400,
            "time": 27.2271785,
            "velocity": 0.6141732283464567
          },
          {
            "duration": 0.462365383333335,
            "durationTicks": 344,
            "midi": 54,
            "name": "F#3",
            "ticks": 20400,
            "time": 27.2271785,
            "velocity": 0.6377952755905512
          },
          {
            "duration": 0.4516126999999983,
            "durationTicks": 336,
            "midi": 38,
            "name": "D2",
            "ticks": 20760,
            "time": 27.711049250000002,
            "velocity": 0.6456692913385826
          },
          {
            "duration": 0.4556449562499978,
            "durationTicks": 339,
            "midi": 54,
            "name": "F#3",
            "ticks": 20760,
            "time": 27.711049250000002,
            "velocity": 0.6377952755905512
          },
          {
            "duration": 0.462365383333335,
            "durationTicks": 344,
            "midi": 38,
            "name": "D2",
            "ticks": 21120,
            "time": 28.19492,
            "velocity": 0.6456692913385826
          },
          {
            "duration": 0.4583331270833355,
            "durationTicks": 341,
            "midi": 54,
            "name": "F#3",
            "ticks": 21120,
            "time": 28.19492,
            "velocity": 0.6220472440944882
          },
          {
            "duration": 0.4314514187499974,
            "durationTicks": 321,
            "midi": 38,
            "name": "D2",
            "ticks": 21480,
            "time": 28.67879075,
            "velocity": 0.6220472440944882
          },
          {
            "duration": 0.4233869062499984,
            "durationTicks": 315,
            "midi": 54,
            "name": "F#3",
            "ticks": 21480,
            "time": 28.67879075,
            "velocity": 0.6456692913385826
          },
          {
            "duration": 0.30241921875000344,
            "durationTicks": 225,
            "midi": 33,
            "name": "A1",
            "ticks": 21840,
            "time": 29.1626615,
            "velocity": 0.6141732283464567
          },
          {
            "duration": 0.3077955604166682,
            "durationTicks": 229,
            "midi": 49,
            "name": "C#3",
            "ticks": 21840,
            "time": 29.1626615,
            "velocity": 0.6220472440944882
          },
          {
            "duration": 0.42876324791666676,
            "durationTicks": 319,
            "midi": 33,
            "name": "A1",
            "ticks": 22080,
            "time": 29.485242,
            "velocity": 0.6377952755905512
          },
          {
            "duration": 0.4260750770833326,
            "durationTicks": 317,
            "midi": 49,
            "name": "C#3",
            "ticks": 22080,
            "time": 29.485242,
            "velocity": 0.6456692913385826
          },
          {
            "duration": 0.4543008708333325,
            "durationTicks": 338,
            "midi": 40,
            "name": "E2",
            "ticks": 22440,
            "time": 29.96911275,
            "velocity": 0.6377952755905512
          },
          {
            "duration": 0.450268614583333,
            "durationTicks": 335,
            "midi": 56,
            "name": "G#3",
            "ticks": 22440,
            "time": 29.96911275,
            "velocity": 0.6456692913385826
          },
          {
            "duration": 0.4690858104166651,
            "durationTicks": 349,
            "midi": 40,
            "name": "E2",
            "ticks": 22800,
            "time": 30.452983500000002,
            "velocity": 0.6456692913385826
          },
          {
            "duration": 0.4690858104166651,
            "durationTicks": 349,
            "midi": 56,
            "name": "G#3",
            "ticks": 22800,
            "time": 30.452983500000002,
            "velocity": 0.6141732283464567
          },
          {
            "duration": 0.462365383333335,
            "durationTicks": 344,
            "midi": 40,
            "name": "E2",
            "ticks": 23160,
            "time": 30.93685425,
            "velocity": 0.6456692913385826
          },
          {
            "duration": 0.4569890416666702,
            "durationTicks": 340,
            "midi": 56,
            "name": "G#3",
            "ticks": 23160,
            "time": 30.93685425,
            "velocity": 0.6456692913385826
          },
          {
            "duration": 0.45833312708333196,
            "durationTicks": 341,
            "midi": 40,
            "name": "E2",
            "ticks": 23520,
            "time": 31.420725,
            "velocity": 0.6456692913385826
          },
          {
            "duration": 0.45564495625000134,
            "durationTicks": 339,
            "midi": 56,
            "name": "G#3",
            "ticks": 23520,
            "time": 31.420725,
            "velocity": 0.6220472440944882
          },
          {
            "duration": 0.46370946875000385,
            "durationTicks": 345,
            "midi": 40,
            "name": "E2",
            "ticks": 23880,
            "time": 31.90459575,
            "velocity": 0.6456692913385826
          },
          {
            "duration": 0.4529567854166672,
            "durationTicks": 337,
            "midi": 56,
            "name": "G#3",
            "ticks": 23880,
            "time": 31.90459575,
            "velocity": 0.6299212598425197
          },
          {
            "duration": 0.46102129791666613,
            "durationTicks": 343,
            "midi": 40,
            "name": "E2",
            "ticks": 24240,
            "time": 32.3884665,
            "velocity": 0.6220472440944882
          },
          {
            "duration": 0.45698904166666665,
            "durationTicks": 340,
            "midi": 56,
            "name": "G#3",
            "ticks": 24240,
            "time": 32.3884665,
            "velocity": 0.6299212598425197
          },
          {
            "duration": 0.45430087083333603,
            "durationTicks": 338,
            "midi": 40,
            "name": "E2",
            "ticks": 24600,
            "time": 32.87233725,
            "velocity": 0.6377952755905512
          },
          {
            "duration": 0.4529567854166672,
            "durationTicks": 337,
            "midi": 56,
            "name": "G#3",
            "ticks": 24600,
            "time": 32.87233725,
            "velocity": 0.6299212598425197
          },
          {
            "duration": 0.46143626250000125,
            "durationTicks": 347,
            "midi": 40,
            "name": "E2",
            "ticks": 24960,
            "time": 33.356208,
            "velocity": 0.6299212598425197
          },
          {
            "duration": 0.46010647500000346,
            "durationTicks": 346,
            "midi": 56,
            "name": "G#3",
            "ticks": 24960,
            "time": 33.356208,
            "velocity": 0.6220472440944882
          },
          {
            "duration": 0.41489370000000036,
            "durationTicks": 312,
            "midi": 40,
            "name": "E2",
            "ticks": 25320,
            "time": 33.8349315,
            "velocity": 0.6456692913385826
          },
          {
            "duration": 0.4268617875000018,
            "durationTicks": 321,
            "midi": 56,
            "name": "G#3",
            "ticks": 25320,
            "time": 33.8349315,
            "velocity": 0.6220472440944882
          },
          {
            "duration": 0.28723409999999916,
            "durationTicks": 216,
            "midi": 36,
            "name": "C2",
            "ticks": 25680,
            "time": 34.313655000000004,
            "velocity": 0.6141732283464567
          },
          {
            "duration": 0.3018617624999962,
            "durationTicks": 227,
            "midi": 52,
            "name": "E3",
            "ticks": 25680,
            "time": 34.313655000000004,
            "velocity": 0.6220472440944882
          },
          {
            "duration": 0.45744690000000077,
            "durationTicks": 344,
            "midi": 37,
            "name": "C#2",
            "ticks": 25920,
            "time": 34.632804,
            "velocity": 0.6220472440944882
          },
          {
            "duration": 0.4468086000000042,
            "durationTicks": 336,
            "midi": 52,
            "name": "E3",
            "ticks": 25920,
            "time": 34.632804,
            "velocity": 0.6141732283464567
          },
          {
            "duration": 0.2845745250000036,
            "durationTicks": 214,
            "midi": 37,
            "name": "C#2",
            "ticks": 26280,
            "time": 35.1115275,
            "velocity": 0.6377952755905512
          },
          {
            "duration": 0.29388303750000233,
            "durationTicks": 221,
            "midi": 52,
            "name": "E3",
            "ticks": 26280,
            "time": 35.1115275,
            "velocity": 0.6141732283464567
          },
          {
            "duration": 0.4468086000000042,
            "durationTicks": 336,
            "midi": 38,
            "name": "D2",
            "ticks": 26640,
            "time": 35.590251,
            "velocity": 0.6377952755905512
          },
          {
            "duration": 0.45744690000000077,
            "durationTicks": 344,
            "midi": 54,
            "name": "F#3",
            "ticks": 26640,
            "time": 35.590251,
            "velocity": 0.6377952755905512
          },
          {
            "duration": 0.4521277500000025,
            "durationTicks": 340,
            "midi": 38,
            "name": "D2",
            "ticks": 27000,
            "time": 36.0689745,
            "velocity": 0.6456692913385826
          },
          {
            "duration": 0.45877668749999856,
            "durationTicks": 345,
            "midi": 54,
            "name": "F#3",
            "ticks": 27000,
            "time": 36.0689745,
            "velocity": 0.6141732283464567
          },
          {
            "duration": 0.29122346249999964,
            "durationTicks": 219,
            "midi": 38,
            "name": "D2",
            "ticks": 27360,
            "time": 36.547698000000004,
            "velocity": 0.6141732283464567
          },
          {
            "duration": 0.4494681749999998,
            "durationTicks": 338,
            "midi": 54,
            "name": "F#3",
            "ticks": 27360,
            "time": 36.547698000000004,
            "velocity": 0.6141732283464567
          },
          {
            "duration": 0.6250001249999997,
            "durationTicks": 470,
            "midi": 38,
            "name": "D2",
            "ticks": 27600,
            "time": 36.866847,
            "velocity": 0.6141732283464567
          },
          {
            "duration": 0.4507979624999976,
            "durationTicks": 339,
            "midi": 54,
            "name": "F#3",
            "ticks": 27720,
            "time": 37.026421500000005,
            "velocity": 0.6141732283464567
          },
          {
            "duration": 0.46409583750000394,
            "durationTicks": 349,
            "midi": 38,
            "name": "D2",
            "ticks": 28080,
            "time": 37.505145,
            "velocity": 0.6220472440944882
          },
          {
            "duration": 0.45877668750000566,
            "durationTicks": 345,
            "midi": 54,
            "name": "F#3",
            "ticks": 28080,
            "time": 37.505145,
            "velocity": 0.6299212598425197
          },
          {
            "duration": 0.46143626250000125,
            "durationTicks": 347,
            "midi": 38,
            "name": "D2",
            "ticks": 28440,
            "time": 37.9838685,
            "velocity": 0.6299212598425197
          },
          {
            "duration": 0.45877668750000566,
            "durationTicks": 345,
            "midi": 54,
            "name": "F#3",
            "ticks": 28440,
            "time": 37.9838685,
            "velocity": 0.6220472440944882
          },
          {
            "duration": 0.45877668750000566,
            "durationTicks": 345,
            "midi": 38,
            "name": "D2",
            "ticks": 28800,
            "time": 38.462592,
            "velocity": 0.6299212598425197
          },
          {
            "duration": 0.4507979625000047,
            "durationTicks": 339,
            "midi": 54,
            "name": "F#3",
            "ticks": 28800,
            "time": 38.462592,
            "velocity": 0.6220472440944882
          },
          {
            "duration": 0.4321809375000001,
            "durationTicks": 325,
            "midi": 38,
            "name": "D2",
            "ticks": 29160,
            "time": 38.9413155,
            "velocity": 0.6141732283464567
          },
          {
            "duration": 0.41755327500000305,
            "durationTicks": 314,
            "midi": 54,
            "name": "F#3",
            "ticks": 29160,
            "time": 38.9413155,
            "velocity": 0.6456692913385826
          },
          {
            "duration": 0.2978724000000028,
            "durationTicks": 224,
            "midi": 33,
            "name": "A1",
            "ticks": 29520,
            "time": 39.420039,
            "velocity": 0.6220472440944882
          },
          {
            "duration": 0.2952128250000001,
            "durationTicks": 222,
            "midi": 49,
            "name": "C#3",
            "ticks": 29520,
            "time": 39.420039,
            "velocity": 0.6377952755905512
          },
          {
            "duration": 0.425532000000004,
            "durationTicks": 320,
            "midi": 33,
            "name": "A1",
            "ticks": 29760,
            "time": 39.739188,
            "velocity": 0.6299212598425197
          },
          {
            "duration": 0.41622348750000526,
            "durationTicks": 313,
            "midi": 49,
            "name": "C#3",
            "ticks": 29760,
            "time": 39.739188,
            "velocity": 0.6299212598425197
          },
          {
            "duration": 0.4521277500000025,
            "durationTicks": 340,
            "midi": 40,
            "name": "E2",
            "ticks": 30120,
            "time": 40.2179115,
            "velocity": 0.6456692913385826
          },
          {
            "duration": 0.4507979625000047,
            "durationTicks": 339,
            "midi": 56,
            "name": "G#3",
            "ticks": 30120,
            "time": 40.2179115,
            "velocity": 0.6141732283464567
          },
          {
            "duration": 0.4508693708333382,
            "durationTicks": 338,
            "midi": 40,
            "name": "E2",
            "ticks": 30480,
            "time": 40.696635,
            "velocity": 0.6456692913385826
          },
          {
            "duration": 0.4575897979166683,
            "durationTicks": 343,
            "midi": 56,
            "name": "G#3",
            "ticks": 30480,
            "time": 40.696635,
            "velocity": 0.6299212598425197
          },
          {
            "duration": 0.4583331270833355,
            "durationTicks": 341,
            "midi": 40,
            "name": "E2",
            "ticks": 30840,
            "time": 41.177074250000004,
            "velocity": 0.6456692913385826
          },
          {
            "duration": 0.4529567854166672,
            "durationTicks": 337,
            "midi": 56,
            "name": "G#3",
            "ticks": 30840,
            "time": 41.177074250000004,
            "velocity": 0.6220472440944882
          },
          {
            "duration": 0.4677417249999962,
            "durationTicks": 348,
            "midi": 40,
            "name": "E2",
            "ticks": 31200,
            "time": 41.660945000000005,
            "velocity": 0.6377952755905512
          },
          {
            "duration": 0.462365383333335,
            "durationTicks": 344,
            "midi": 56,
            "name": "G#3",
            "ticks": 31200,
            "time": 41.660945000000005,
            "velocity": 0.6299212598425197
          },
          {
            "duration": 0.45698904166666665,
            "durationTicks": 340,
            "midi": 40,
            "name": "E2",
            "ticks": 31560,
            "time": 42.14481575000001,
            "velocity": 0.6220472440944882
          },
          {
            "duration": 0.45967721249999727,
            "durationTicks": 342,
            "midi": 56,
            "name": "G#3",
            "ticks": 31560,
            "time": 42.14481575000001,
            "velocity": 0.6377952755905512
          },
          {
            "duration": 0.4556449562500049,
            "durationTicks": 339,
            "midi": 40,
            "name": "E2",
            "ticks": 31920,
            "time": 42.6286865,
            "velocity": 0.6456692913385826
          },
          {
            "duration": 0.462365383333335,
            "durationTicks": 344,
            "midi": 56,
            "name": "G#3",
            "ticks": 31920,
            "time": 42.6286865,
            "velocity": 0.6299212598425197
          },
          {
            "duration": 0.4583331270833355,
            "durationTicks": 341,
            "midi": 40,
            "name": "E2",
            "ticks": 32280,
            "time": 43.11255725,
            "velocity": 0.6299212598425197
          },
          {
            "duration": 0.4556449562500049,
            "durationTicks": 339,
            "midi": 56,
            "name": "G#3",
            "ticks": 32280,
            "time": 43.11255725,
            "velocity": 0.6220472440944882
          },
          {
            "duration": 0.4583331270833355,
            "durationTicks": 341,
            "midi": 40,
            "name": "E2",
            "ticks": 32640,
            "time": 43.596428,
            "velocity": 0.6299212598425197
          },
          {
            "duration": 0.47042989583333394,
            "durationTicks": 350,
            "midi": 56,
            "name": "G#3",
            "ticks": 32640,
            "time": 43.596428,
            "velocity": 0.6456692913385826
          },
          {
            "duration": 0.4327955041666627,
            "durationTicks": 322,
            "midi": 40,
            "name": "E2",
            "ticks": 33000,
            "time": 44.080298750000004,
            "velocity": 0.6141732283464567
          },
          {
            "duration": 0.43682776041666926,
            "durationTicks": 325,
            "midi": 56,
            "name": "G#3",
            "ticks": 33000,
            "time": 44.080298750000004,
            "velocity": 0.6141732283464567
          },
          {
            "duration": 0.3010751333333346,
            "durationTicks": 224,
            "midi": 36,
            "name": "C2",
            "ticks": 33360,
            "time": 44.564169500000006,
            "velocity": 0.6377952755905512
          },
          {
            "duration": 0.297042877083328,
            "durationTicks": 221,
            "midi": 52,
            "name": "E3",
            "ticks": 33360,
            "time": 44.564169500000006,
            "velocity": 0.6220472440944882
          },
          {
            "duration": 0.46370946874999674,
            "durationTicks": 345,
            "midi": 37,
            "name": "C#2",
            "ticks": 33600,
            "time": 44.886750000000006,
            "velocity": 0.6141732283464567
          },
          {
            "duration": 0.4556449562499978,
            "durationTicks": 339,
            "midi": 52,
            "name": "E3",
            "ticks": 33600,
            "time": 44.886750000000006,
            "velocity": 0.6456692913385826
          },
          {
            "duration": 0.29166653541666676,
            "durationTicks": 217,
            "midi": 37,
            "name": "C#2",
            "ticks": 33960,
            "time": 45.37062075,
            "velocity": 0.6220472440944882
          },
          {
            "duration": 0.30241921875000344,
            "durationTicks": 225,
            "midi": 52,
            "name": "E3",
            "ticks": 33960,
            "time": 45.37062075,
            "velocity": 0.6220472440944882
          },
          {
            "duration": 0.4556449562500049,
            "durationTicks": 339,
            "midi": 38,
            "name": "D2",
            "ticks": 34320,
            "time": 45.8544915,
            "velocity": 0.6456692913385826
          },
          {
            "duration": 0.47042989583333394,
            "durationTicks": 350,
            "midi": 54,
            "name": "F#3",
            "ticks": 34320,
            "time": 45.8544915,
            "velocity": 0.6377952755905512
          },
          {
            "duration": 0.4489245291666677,
            "durationTicks": 334,
            "midi": 38,
            "name": "D2",
            "ticks": 34680,
            "time": 46.33836225,
            "velocity": 0.6220472440944882
          },
          {
            "duration": 0.4690858104166651,
            "durationTicks": 349,
            "midi": 54,
            "name": "F#3",
            "ticks": 34680,
            "time": 46.33836225,
            "velocity": 0.6220472440944882
          },
          {
            "duration": 0.462365383333335,
            "durationTicks": 344,
            "midi": 38,
            "name": "D2",
            "ticks": 35040,
            "time": 46.822233000000004,
            "velocity": 0.6141732283464567
          },
          {
            "duration": 0.46370946874999674,
            "durationTicks": 345,
            "midi": 54,
            "name": "F#3",
            "ticks": 35040,
            "time": 46.822233000000004,
            "velocity": 0.6299212598425197
          },
          {
            "duration": 0.45698904166666665,
            "durationTicks": 340,
            "midi": 38,
            "name": "D2",
            "ticks": 35400,
            "time": 47.306103750000005,
            "velocity": 0.6220472440944882
          },
          {
            "duration": 0.4556449562499978,
            "durationTicks": 339,
            "midi": 54,
            "name": "F#3",
            "ticks": 35400,
            "time": 47.306103750000005,
            "velocity": 0.6456692913385826
          },
          {
            "duration": 0.4596772125000044,
            "durationTicks": 342,
            "midi": 38,
            "name": "D2",
            "ticks": 35760,
            "time": 47.7899745,
            "velocity": 0.6220472440944882
          },
          {
            "duration": 0.46370946875000385,
            "durationTicks": 345,
            "midi": 54,
            "name": "F#3",
            "ticks": 35760,
            "time": 47.7899745,
            "velocity": 0.6456692913385826
          },
          {
            "duration": 0.4650535541666656,
            "durationTicks": 346,
            "midi": 38,
            "name": "D2",
            "ticks": 36120,
            "time": 48.27384525,
            "velocity": 0.6377952755905512
          },
          {
            "duration": 0.4677417250000033,
            "durationTicks": 348,
            "midi": 54,
            "name": "F#3",
            "ticks": 36120,
            "time": 48.27384525,
            "velocity": 0.6220472440944882
          },
          {
            "duration": 0.4507979624999976,
            "durationTicks": 339,
            "midi": 38,
            "name": "D2",
            "ticks": 36480,
            "time": 48.757716,
            "velocity": 0.6456692913385826
          },
          {
            "duration": 0.4547873249999981,
            "durationTicks": 342,
            "midi": 54,
            "name": "F#3",
            "ticks": 36480,
            "time": 48.757716,
            "velocity": 0.6220472440944882
          },
          {
            "duration": 0.4242022124999991,
            "durationTicks": 319,
            "midi": 38,
            "name": "D2",
            "ticks": 36840,
            "time": 49.2364395,
            "velocity": 0.6299212598425197
          },
          {
            "duration": 0.4109043374999999,
            "durationTicks": 309,
            "midi": 54,
            "name": "F#3",
            "ticks": 36840,
            "time": 49.2364395,
            "velocity": 0.6220472440944882
          },
          {
            "duration": 0.2965426124999979,
            "durationTicks": 223,
            "midi": 33,
            "name": "A1",
            "ticks": 37200,
            "time": 49.715163000000004,
            "velocity": 0.6141732283464567
          },
          {
            "duration": 0.29122346249999964,
            "durationTicks": 219,
            "midi": 49,
            "name": "C#3",
            "ticks": 37200,
            "time": 49.715163000000004,
            "velocity": 0.6299212598425197
          },
          {
            "duration": 0.4242022124999991,
            "durationTicks": 319,
            "midi": 33,
            "name": "A1",
            "ticks": 37440,
            "time": 50.034312,
            "velocity": 0.6141732283464567
          },
          {
            "duration": 0.4281915749999996,
            "durationTicks": 322,
            "midi": 49,
            "name": "C#3",
            "ticks": 37440,
            "time": 50.034312,
            "velocity": 0.6141732283464567
          },
          {
            "duration": 0.4494681749999998,
            "durationTicks": 338,
            "midi": 40,
            "name": "E2",
            "ticks": 37800,
            "time": 50.5130355,
            "velocity": 0.6377952755905512
          },
          {
            "duration": 0.45877668749999856,
            "durationTicks": 345,
            "midi": 56,
            "name": "G#3",
            "ticks": 37800,
            "time": 50.5130355,
            "velocity": 0.6299212598425197
          },
          {
            "duration": 0.009308512499998756,
            "durationTicks": 7,
            "midi": 40,
            "name": "E2",
            "ticks": 38160,
            "time": 50.991759,
            "velocity": 0.6377952755905512
          },
          {
            "duration": 0.013297874999999237,
            "durationTicks": 10,
            "midi": 56,
            "name": "G#3",
            "ticks": 38160,
            "time": 50.991759,
            "velocity": 0.6377952755905512
          }
        ]
      },
      {
        "channel": 0,
        "controlChanges": {
          "121": [
            {
              "number": 121,
              "ticks": 254,
              "time": 0.337766025,
              "value": 0
            }
          ]
        },
        "pitchBends": [],
        "instrument": {
          "family": "piano",
          "number": 0,
          "name": "acoustic grand piano"
        },
        "name": "Magic",
        "notes": [],
        "endOfTrackTicks": 38400
      },
      {
        "channel": 0,
        "controlChanges": {
          "1": [
            {
              "number": 1,
              "ticks": 544,
              "time": 0.7234044000000001,
              "value": 0
            }
          ],
          "7": [
            {
              "number": 7,
              "ticks": 384,
              "time": 0.5106384,
              "value": 0.7874015748031497
            }
          ],
          "10": [
            {
              "number": 10,
              "ticks": 416,
              "time": 0.5531916,
              "value": 0.5669291338582677
            }
          ],
          "11": [
            {
              "number": 11,
              "ticks": 448,
              "time": 0.5957448000000001,
              "value": 1
            }
          ],
          "64": [
            {
              "number": 64,
              "ticks": 576,
              "time": 0.7659576,
              "value": 0
            }
          ],
          "71": [
            {
              "number": 71,
              "ticks": 608,
              "time": 0.8085108,
              "value": 0.5039370078740157
            }
          ],
          "72": [
            {
              "number": 72,
              "ticks": 640,
              "time": 0.851064,
              "value": 0.5039370078740157
            }
          ],
          "73": [
            {
              "number": 73,
              "ticks": 672,
              "time": 0.8936172,
              "value": 0.5039370078740157
            }
          ],
          "74": [
            {
              "number": 74,
              "ticks": 704,
              "time": 0.9361704,
              "value": 0.5039370078740157
            }
          ],
          "91": [
            {
              "number": 91,
              "ticks": 480,
              "time": 0.638298,
              "value": 0.6614173228346457
            }
          ],
          "93": [
            {
              "number": 93,
              "ticks": 512,
              "time": 0.6808512,
              "value": 0
            }
          ],
          "94": [
            {
              "number": 94,
              "ticks": 736,
              "time": 0.9787236000000001,
              "value": 0
            }
          ]
        },
        "pitchBends": [
          {
            "ticks": 768,
            "time": 1.0212768,
            "value": 0
          }
        ],
        "instrument": {
          "family": "guitar",
          "number": 27,
          "name": "electric guitar (clean)"
        },
        "name": "",
        "notes": []
      },
      {
        "channel": 0,
        "controlChanges": {
          "121": [
            {
              "number": 121,
              "ticks": 256,
              "time": 0.3404256,
              "value": 0
            }
          ]
        },
        "pitchBends": [],
        "instrument": {
          "family": "piano",
          "number": 0,
          "name": "acoustic grand piano"
        },
        "name": "Magic",
        "notes": [],
        "endOfTrackTicks": 38400
      },
      {
        "channel": 3,
        "controlChanges": {
          "1": [
            {
              "number": 1,
              "ticks": 546,
              "time": 0.726063975,
              "value": 0
            }
          ],
          "7": [
            {
              "number": 7,
              "ticks": 386,
              "time": 0.5132979750000001,
              "value": 0.9921259842519685
            },
            {
              "number": 7,
              "ticks": 33683,
              "time": 44.99830908958334,
              "value": 0.8661417322834646
            },
            {
              "number": 7,
              "ticks": 34241,
              "time": 45.74830875208334,
              "value": 0.7401574803149606
            },
            {
              "number": 7,
              "ticks": 34799,
              "time": 46.498308414583335,
              "value": 0.6141732283464567
            },
            {
              "number": 7,
              "ticks": 35357,
              "time": 47.24830807708334,
              "value": 0.49606299212598426
            },
            {
              "number": 7,
              "ticks": 35915,
              "time": 47.99830773958334,
              "value": 0.3700787401574803
            },
            {
              "number": 7,
              "ticks": 36473,
              "time": 48.748307402083334,
              "value": 0.2440944881889764
            },
            {
              "number": 7,
              "ticks": 37037,
              "time": 49.4984076375,
              "value": 0.11811023622047244
            },
            {
              "number": 7,
              "ticks": 37601,
              "time": 50.2484077875,
              "value": 0
            }
          ],
          "10": [
            {
              "number": 10,
              "ticks": 418,
              "time": 0.555851175,
              "value": 0.5433070866141733
            }
          ],
          "11": [
            {
              "number": 11,
              "ticks": 450,
              "time": 0.598404375,
              "value": 1
            }
          ],
          "64": [
            {
              "number": 64,
              "ticks": 578,
              "time": 0.768617175,
              "value": 0
            }
          ],
          "71": [
            {
              "number": 71,
              "ticks": 610,
              "time": 0.811170375,
              "value": 0.5039370078740157
            }
          ],
          "72": [
            {
              "number": 72,
              "ticks": 642,
              "time": 0.853723575,
              "value": 0.5039370078740157
            }
          ],
          "73": [
            {
              "number": 73,
              "ticks": 674,
              "time": 0.896276775,
              "value": 0.5039370078740157
            }
          ],
          "74": [
            {
              "number": 74,
              "ticks": 706,
              "time": 0.9388299750000001,
              "value": 0.5039370078740157
            }
          ],
          "91": [
            {
              "number": 91,
              "ticks": 482,
              "time": 0.6409575750000001,
              "value": 0.31496062992125984
            }
          ],
          "93": [
            {
              "number": 93,
              "ticks": 514,
              "time": 0.683510775,
              "value": 0
            }
          ],
          "94": [
            {
              "number": 94,
              "ticks": 738,
              "time": 0.981383175,
              "value": 0
            }
          ],
          "120": [
            {
              "number": 120,
              "ticks": 38165,
              "time": 50.998407937500005,
              "value": 0
            }
          ],
          "123": [
            {
              "number": 123,
              "ticks": 38165,
              "time": 50.998407937500005,
              "value": 0
            }
          ]
        },
        "pitchBends": [
          {
            "ticks": 770,
            "time": 1.0239363750000001,
            "value": 0
          }
        ],
        "instrument": {
          "family": "pipe",
          "number": 73,
          "name": "flute"
        },
        "name": "",
        "notes": [
          {
            "duration": 0.47580623749999873,
            "durationTicks": 354,
            "midi": 68,
            "name": "G#4",
            "ticks": 18240,
            "time": 24.323954,
            "velocity": 0.6771653543307087
          },
          {
            "duration": 0.14381713958333364,
            "durationTicks": 107,
            "midi": 69,
            "name": "A4",
            "ticks": 18600,
            "time": 24.80782475,
            "velocity": 0.6299212598425197
          },
          {
            "duration": 1.2809134020833355,
            "durationTicks": 953,
            "midi": 66,
            "name": "F#4",
            "ticks": 18960,
            "time": 25.2916955,
            "velocity": 0.6220472440944882
          },
          {
            "duration": 0.3077955604166682,
            "durationTicks": 229,
            "midi": 64,
            "name": "E4",
            "ticks": 19920,
            "time": 26.5820175,
            "velocity": 0.6299212598425197
          },
          {
            "duration": 0.4650535541666656,
            "durationTicks": 346,
            "midi": 66,
            "name": "F#4",
            "ticks": 22080,
            "time": 29.485242,
            "velocity": 0.6771653543307087
          },
          {
            "duration": 0.15456982291666677,
            "durationTicks": 115,
            "midi": 69,
            "name": "A4",
            "ticks": 22440,
            "time": 29.96911275,
            "velocity": 0.6141732283464567
          },
          {
            "duration": 0.47177398124999925,
            "durationTicks": 351,
            "midi": 68,
            "name": "G#4",
            "ticks": 22800,
            "time": 30.452983500000002,
            "velocity": 0.5984251968503937
          },
          {
            "duration": 0.46276604999999904,
            "durationTicks": 348,
            "midi": 68,
            "name": "G#4",
            "ticks": 25920,
            "time": 34.632804,
            "velocity": 0.6850393700787402
          },
          {
            "duration": 0.13829790000000486,
            "durationTicks": 104,
            "midi": 69,
            "name": "A4",
            "ticks": 26280,
            "time": 35.1115275,
            "velocity": 0.6062992125984252
          },
          {
            "duration": 1.260638550000003,
            "durationTicks": 948,
            "midi": 66,
            "name": "F#4",
            "ticks": 26640,
            "time": 35.590251,
            "velocity": 0.5984251968503937
          },
          {
            "duration": 0.13829790000000486,
            "durationTicks": 104,
            "midi": 64,
            "name": "E4",
            "ticks": 27600,
            "time": 36.866847,
            "velocity": 0.6141732283464567
          },
          {
            "duration": 0.14228726249999823,
            "durationTicks": 107,
            "midi": 66,
            "name": "F#4",
            "ticks": 29640,
            "time": 39.5796135,
            "velocity": 0.6692913385826772
          },
          {
            "duration": 0.46542562500000173,
            "durationTicks": 350,
            "midi": 66,
            "name": "F#4",
            "ticks": 29760,
            "time": 39.739188,
            "velocity": 0.6850393700787402
          },
          {
            "duration": 0.4547873250000052,
            "durationTicks": 342,
            "midi": 69,
            "name": "A4",
            "ticks": 30120,
            "time": 40.2179115,
            "velocity": 0.6141732283464567
          },
          {
            "duration": 0.46296613958333666,
            "durationTicks": 347,
            "midi": 68,
            "name": "G#4",
            "ticks": 30480,
            "time": 40.696635,
            "velocity": 0.6220472440944882
          },
          {
            "duration": 0.1357526270833347,
            "durationTicks": 101,
            "midi": 64,
            "name": "E4",
            "ticks": 33360,
            "time": 44.564169500000006,
            "velocity": 0.6456692913385826
          },
          {
            "duration": 0.13440854166666583,
            "durationTicks": 100,
            "midi": 64,
            "name": "E4",
            "ticks": 33480,
            "time": 44.725459750000006,
            "velocity": 0.6850393700787402
          },
          {
            "duration": 0.47042989583333394,
            "durationTicks": 350,
            "midi": 71,
            "name": "B4",
            "ticks": 33600,
            "time": 44.886750000000006,
            "velocity": 0.6614173228346457
          },
          {
            "duration": 0.13978488333333416,
            "durationTicks": 104,
            "midi": 73,
            "name": "C#5",
            "ticks": 33960,
            "time": 45.37062075,
            "velocity": 0.6220472440944882
          },
          {
            "duration": 1.2674725479166682,
            "durationTicks": 943,
            "midi": 69,
            "name": "A4",
            "ticks": 34320,
            "time": 45.8544915,
            "velocity": 0.6220472440944882
          },
          {
            "duration": 0.3064514749999958,
            "durationTicks": 228,
            "midi": 66,
            "name": "F#4",
            "ticks": 35280,
            "time": 47.144813500000005,
            "velocity": 0.6220472440944882
          },
          {
            "duration": 0.13297874999999948,
            "durationTicks": 100,
            "midi": 66,
            "name": "F#4",
            "ticks": 37200,
            "time": 49.715163000000004,
            "velocity": 0.6220472440944882
          },
          {
            "duration": 0.13829789999999775,
            "durationTicks": 104,
            "midi": 66,
            "name": "F#4",
            "ticks": 37320,
            "time": 49.8747375,
            "velocity": 0.6850393700787402
          },
          {
            "duration": 0.46542562500000173,
            "durationTicks": 350,
            "midi": 74,
            "name": "D5",
            "ticks": 37440,
            "time": 50.034312,
            "velocity": 0.6692913385826772
          },
          {
            "duration": 0.46143626250000125,
            "durationTicks": 347,
            "midi": 73,
            "name": "C#5",
            "ticks": 37800,
            "time": 50.5130355,
            "velocity": 0.6299212598425197
          },
          {
            "duration": 0.005319149999998274,
            "durationTicks": 4,
            "midi": 71,
            "name": "B4",
            "ticks": 38160,
            "time": 50.991759,
            "velocity": 0.6220472440944882
          }
        ]
      },
      {
        "channel": 0,
        "controlChanges": {
          "121": [
            {
              "number": 121,
              "ticks": 258,
              "time": 0.343085175,
              "value": 0
            }
          ]
        },
        "pitchBends": [],
        "instrument": {
          "family": "piano",
          "number": 0,
          "name": "acoustic grand piano"
        },
        "name": "Magic",
        "notes": [],
        "endOfTrackTicks": 38400
      },
      {
        "channel": 0,
        "controlChanges": {
          "1": [
            {
              "number": 1,
              "ticks": 548,
              "time": 0.72872355,
              "value": 0
            }
          ],
          "7": [
            {
              "number": 7,
              "ticks": 388,
              "time": 0.51595755,
              "value": 0.84251968503937
            }
          ],
          "10": [
            {
              "number": 10,
              "ticks": 420,
              "time": 0.5585107500000001,
              "value": 0.48031496062992124
            }
          ],
          "11": [
            {
              "number": 11,
              "ticks": 452,
              "time": 0.60106395,
              "value": 1
            }
          ],
          "64": [
            {
              "number": 64,
              "ticks": 580,
              "time": 0.77127675,
              "value": 0
            }
          ],
          "71": [
            {
              "number": 71,
              "ticks": 612,
              "time": 0.81382995,
              "value": 0.5039370078740157
            }
          ],
          "72": [
            {
              "number": 72,
              "ticks": 644,
              "time": 0.85638315,
              "value": 0.5039370078740157
            }
          ],
          "73": [
            {
              "number": 73,
              "ticks": 676,
              "time": 0.8989363500000002,
              "value": 0.5039370078740157
            }
          ],
          "74": [
            {
              "number": 74,
              "ticks": 708,
              "time": 0.9414895500000001,
              "value": 0.5039370078740157
            }
          ],
          "91": [
            {
              "number": 91,
              "ticks": 484,
              "time": 0.64361715,
              "value": 0.5826771653543307
            }
          ],
          "93": [
            {
              "number": 93,
              "ticks": 516,
              "time": 0.68617035,
              "value": 0
            }
          ],
          "94": [
            {
              "number": 94,
              "ticks": 740,
              "time": 0.9840427500000001,
              "value": 0
            }
          ]
        },
        "pitchBends": [
          {
            "ticks": 772,
            "time": 1.0265959500000001,
            "value": 0
          }
        ],
        "instrument": {
          "family": "ensemble",
          "number": 53,
          "name": "voice oohs"
        },
        "name": "",
        "notes": []
      },
      {
        "channel": 0,
        "controlChanges": {
          "121": [
            {
              "number": 121,
              "ticks": 262,
              "time": 0.34840432499999996,
              "value": 0
            }
          ]
        },
        "pitchBends": [],
        "instrument": {
          "family": "piano",
          "number": 0,
          "name": "acoustic grand piano"
        },
        "name": "Magic",
        "notes": [],
        "endOfTrackTicks": 38400
      },
      {
        "channel": 0,
        "controlChanges": {
          "1": [
            {
              "number": 1,
              "ticks": 552,
              "time": 0.7340426999999999,
              "value": 0
            }
          ],
          "6": [
            {
              "number": 6,
              "ticks": 970,
              "time": 1.2898938750000002,
              "value": 0.5196850393700787
            }
          ],
          "7": [
            {
              "number": 7,
              "ticks": 392,
              "time": 0.5212767,
              "value": 0.6377952755905512
            }
          ],
          "10": [
            {
              "number": 10,
              "ticks": 424,
              "time": 0.5638299,
              "value": 0.2677165354330709
            }
          ],
          "11": [
            {
              "number": 11,
              "ticks": 456,
              "time": 0.6063831,
              "value": 1
            }
          ],
          "38": [
            {
              "number": 38,
              "ticks": 970,
              "time": 1.2898938750000002,
              "value": 0
            }
          ],
          "64": [
            {
              "number": 64,
              "ticks": 584,
              "time": 0.7765959,
              "value": 0
            }
          ],
          "71": [
            {
              "number": 71,
              "ticks": 616,
              "time": 0.8191491000000001,
              "value": 0.5039370078740157
            }
          ],
          "72": [
            {
              "number": 72,
              "ticks": 648,
              "time": 0.8617023000000001,
              "value": 0.5039370078740157
            }
          ],
          "73": [
            {
              "number": 73,
              "ticks": 680,
              "time": 0.9042555000000001,
              "value": 0.5039370078740157
            }
          ],
          "74": [
            {
              "number": 74,
              "ticks": 712,
              "time": 0.9468087000000001,
              "value": 0.5039370078740157
            }
          ],
          "91": [
            {
              "number": 91,
              "ticks": 488,
              "time": 0.6489363,
              "value": 0.6614173228346457
            }
          ],
          "93": [
            {
              "number": 93,
              "ticks": 520,
              "time": 0.6914895,
              "value": 0
            }
          ],
          "94": [
            {
              "number": 94,
              "ticks": 744,
              "time": 0.9893619000000001,
              "value": 0
            }
          ],
          "100": [
            {
              "number": 100,
              "ticks": 970,
              "time": 1.2898938750000002,
              "value": 0.007874015748031496
            }
          ],
          "101": [
            {
              "number": 101,
              "ticks": 970,
              "time": 1.2898938750000002,
              "value": 0
            }
          ]
        },
        "pitchBends": [
          {
            "ticks": 776,
            "time": 1.0319151,
            "value": 0
          }
        ],
        "instrument": {
          "family": "guitar",
          "number": 25,
          "name": "acoustic guitar (steel)"
        },
        "name": "",
        "notes": []
      },
      {
        "channel": 0,
        "controlChanges": {
          "121": [
            {
              "number": 121,
              "ticks": 264,
              "time": 0.35106390000000004,
              "value": 0
            }
          ]
        },
        "pitchBends": [],
        "instrument": {
          "family": "piano",
          "number": 0,
          "name": "acoustic grand piano"
        },
        "name": "Magic",
        "notes": [],
        "endOfTrackTicks": 38400
      },
      {
        "channel": 0,
        "controlChanges": {
          "1": [
            {
              "number": 1,
              "ticks": 554,
              "time": 0.736702275,
              "value": 0
            }
          ],
          "6": [
            {
              "number": 6,
              "ticks": 995,
              "time": 1.3231385625,
              "value": 0.4881889763779528
            }
          ],
          "7": [
            {
              "number": 7,
              "ticks": 394,
              "time": 0.5239362750000001,
              "value": 0.6377952755905512
            }
          ],
          "10": [
            {
              "number": 10,
              "ticks": 426,
              "time": 0.566489475,
              "value": 0.7401574803149606
            }
          ],
          "11": [
            {
              "number": 11,
              "ticks": 458,
              "time": 0.6090426750000001,
              "value": 1
            }
          ],
          "38": [
            {
              "number": 38,
              "ticks": 995,
              "time": 1.3231385625,
              "value": 0
            }
          ],
          "64": [
            {
              "number": 64,
              "ticks": 586,
              "time": 0.7792554750000001,
              "value": 0
            }
          ],
          "71": [
            {
              "number": 71,
              "ticks": 618,
              "time": 0.8218086750000001,
              "value": 0.5039370078740157
            }
          ],
          "72": [
            {
              "number": 72,
              "ticks": 650,
              "time": 0.8643618750000001,
              "value": 0.5039370078740157
            }
          ],
          "73": [
            {
              "number": 73,
              "ticks": 682,
              "time": 0.9069150750000001,
              "value": 0.5039370078740157
            }
          ],
          "74": [
            {
              "number": 74,
              "ticks": 714,
              "time": 0.9494682750000001,
              "value": 0.5039370078740157
            }
          ],
          "91": [
            {
              "number": 91,
              "ticks": 490,
              "time": 0.6515958749999999,
              "value": 0.6614173228346457
            }
          ],
          "93": [
            {
              "number": 93,
              "ticks": 522,
              "time": 0.694149075,
              "value": 0
            }
          ],
          "94": [
            {
              "number": 94,
              "ticks": 746,
              "time": 0.992021475,
              "value": 0
            }
          ],
          "100": [
            {
              "number": 100,
              "ticks": 995,
              "time": 1.3231385625,
              "value": 0.007874015748031496
            }
          ],
          "101": [
            {
              "number": 101,
              "ticks": 995,
              "time": 1.3231385625,
              "value": 0
            }
          ]
        },
        "pitchBends": [
          {
            "ticks": 778,
            "time": 1.034574675,
            "value": 0
          }
        ],
        "instrument": {
          "family": "guitar",
          "number": 25,
          "name": "acoustic guitar (steel)"
        },
        "name": "",
        "notes": []
      },
      {
        "channel": 0,
        "controlChanges": {
          "121": [
            {
              "number": 121,
              "ticks": 266,
              "time": 0.353723475,
              "value": 0
            }
          ]
        },
        "pitchBends": [],
        "instrument": {
          "family": "piano",
          "number": 0,
          "name": "acoustic grand piano"
        },
        "name": "Magic",
        "notes": [],
        "endOfTrackTicks": 38400
      },
      {
        "channel": 0,
        "controlChanges": {
          "1": [
            {
              "number": 1,
              "ticks": 556,
              "time": 0.7393618500000001,
              "value": 0
            }
          ],
          "7": [
            {
              "number": 7,
              "ticks": 396,
              "time": 0.52659585,
              "value": 0.84251968503937
            }
          ],
          "10": [
            {
              "number": 10,
              "ticks": 428,
              "time": 0.56914905,
              "value": 0.5039370078740157
            }
          ],
          "11": [
            {
              "number": 11,
              "ticks": 460,
              "time": 0.61170225,
              "value": 1
            }
          ],
          "64": [
            {
              "number": 64,
              "ticks": 588,
              "time": 0.7819150500000001,
              "value": 0
            }
          ],
          "71": [
            {
              "number": 71,
              "ticks": 620,
              "time": 0.8244682500000001,
              "value": 0.5039370078740157
            }
          ],
          "72": [
            {
              "number": 72,
              "ticks": 652,
              "time": 0.8670214500000001,
              "value": 0.5039370078740157
            }
          ],
          "73": [
            {
              "number": 73,
              "ticks": 684,
              "time": 0.90957465,
              "value": 0.5039370078740157
            }
          ],
          "74": [
            {
              "number": 74,
              "ticks": 716,
              "time": 0.9521278500000001,
              "value": 0.5039370078740157
            }
          ],
          "91": [
            {
              "number": 91,
              "ticks": 492,
              "time": 0.65425545,
              "value": 0.6614173228346457
            }
          ],
          "93": [
            {
              "number": 93,
              "ticks": 524,
              "time": 0.6968086499999999,
              "value": 0
            }
          ],
          "94": [
            {
              "number": 94,
              "ticks": 748,
              "time": 0.9946810500000001,
              "value": 0
            }
          ]
        },
        "pitchBends": [
          {
            "ticks": 780,
            "time": 1.03723425,
            "value": -1
          }
        ],
        "instrument": {
          "family": "guitar",
          "number": 29,
          "name": "overdriven guitar"
        },
        "name": "",
        "notes": []
      },
      {
        "channel": 9,
        "controlChanges": {
          "1": [
            {
              "number": 1,
              "ticks": 558,
              "time": 0.7420214250000001,
              "value": 0
            }
          ],
          "7": [
            {
              "number": 7,
              "ticks": 398,
              "time": 0.5292554250000001,
              "value": 0.9921259842519685
            },
            {
              "number": 7,
              "ticks": 33683,
              "time": 44.99830908958334,
              "value": 0.8661417322834646
            },
            {
              "number": 7,
              "ticks": 34241,
              "time": 45.74830875208334,
              "value": 0.7401574803149606
            },
            {
              "number": 7,
              "ticks": 34799,
              "time": 46.498308414583335,
              "value": 0.6141732283464567
            },
            {
              "number": 7,
              "ticks": 35357,
              "time": 47.24830807708334,
              "value": 0.49606299212598426
            },
            {
              "number": 7,
              "ticks": 35915,
              "time": 47.99830773958334,
              "value": 0.3700787401574803
            },
            {
              "number": 7,
              "ticks": 36473,
              "time": 48.748307402083334,
              "value": 0.2440944881889764
            },
            {
              "number": 7,
              "ticks": 37037,
              "time": 49.4984076375,
              "value": 0.11811023622047244
            },
            {
              "number": 7,
              "ticks": 37601,
              "time": 50.2484077875,
              "value": 0
            }
          ],
          "10": [
            {
              "number": 10,
              "ticks": 430,
              "time": 0.5718086250000001,
              "value": 0.5039370078740157
            }
          ],
          "11": [
            {
              "number": 11,
              "ticks": 462,
              "time": 0.614361825,
              "value": 1
            }
          ],
          "64": [
            {
              "number": 64,
              "ticks": 590,
              "time": 0.7845746250000001,
              "value": 0
            }
          ],
          "71": [
            {
              "number": 71,
              "ticks": 622,
              "time": 0.827127825,
              "value": 0.5039370078740157
            }
          ],
          "72": [
            {
              "number": 72,
              "ticks": 654,
              "time": 0.8696810250000001,
              "value": 0.5039370078740157
            }
          ],
          "73": [
            {
              "number": 73,
              "ticks": 686,
              "time": 0.9122342250000001,
              "value": 0.5039370078740157
            }
          ],
          "74": [
            {
              "number": 74,
              "ticks": 718,
              "time": 0.954787425,
              "value": 0.5039370078740157
            }
          ],
          "91": [
            {
              "number": 91,
              "ticks": 494,
              "time": 0.656915025,
              "value": 0.1889763779527559
            }
          ],
          "93": [
            {
              "number": 93,
              "ticks": 526,
              "time": 0.699468225,
              "value": 0
            }
          ],
          "94": [
            {
              "number": 94,
              "ticks": 750,
              "time": 0.9973406250000001,
              "value": 0
            }
          ],
          "120": [
            {
              "number": 120,
              "ticks": 38165,
              "time": 50.998407937500005,
              "value": 0
            }
          ],
          "121": [
            {
              "number": 121,
              "ticks": 268,
              "time": 0.35638305000000003,
              "value": 0
            }
          ],
          "123": [
            {
              "number": 123,
              "ticks": 38165,
              "time": 50.998407937500005,
              "value": 0
            }
          ]
        },
        "pitchBends": [
          {
            "ticks": 782,
            "time": 1.039893825,
            "value": 0
          }
        ],
        "instrument": {
          "family": "drums",
          "number": 0,
          "name": "standard kit"
        },
        "name": "Magic",
        "notes": [
          {
            "duration": 0.02659575000000025,
            "durationTicks": 20,
            "midi": 42,
            "name": "F#2",
            "ticks": 1920,
            "time": 2.553192,
            "velocity": 0.5905511811023622
          },
          {
            "duration": 0.02659575000000025,
            "durationTicks": 20,
            "midi": 42,
            "name": "F#2",
            "ticks": 2400,
            "time": 3.19149,
            "velocity": 0.5905511811023622
          },
          {
            "duration": 0.02659575000000025,
            "durationTicks": 20,
            "midi": 42,
            "name": "F#2",
            "ticks": 2880,
            "time": 3.829788,
            "velocity": 0.5905511811023622
          },
          {
            "duration": 0.02659575000000025,
            "durationTicks": 20,
            "midi": 42,
            "name": "F#2",
            "ticks": 3360,
            "time": 4.4680860000000004,
            "velocity": 0.5905511811023622
          },
          {
            "duration": 0.026595749999999363,
            "durationTicks": 20,
            "midi": 36,
            "name": "C2",
            "ticks": 3840,
            "time": 5.106384,
            "velocity": 0.905511811023622
          },
          {
            "duration": 0.026595749999999363,
            "durationTicks": 20,
            "midi": 36,
            "name": "C2",
            "ticks": 4200,
            "time": 5.5851075,
            "velocity": 0.905511811023622
          },
          {
            "duration": 0.02659575000000025,
            "durationTicks": 20,
            "midi": 28,
            "name": "E1",
            "ticks": 4320,
            "time": 5.744682,
            "velocity": 0.7874015748031497
          },
          {
            "duration": 0.02659575000000025,
            "durationTicks": 20,
            "midi": 38,
            "name": "D2",
            "ticks": 4320,
            "time": 5.744682,
            "velocity": 0.905511811023622
          },
          {
            "duration": 0.02659575000000025,
            "durationTicks": 20,
            "midi": 36,
            "name": "C2",
            "ticks": 4800,
            "time": 6.38298,
            "velocity": 0.905511811023622
          },
          {
            "duration": 0.02659575000000025,
            "durationTicks": 20,
            "midi": 36,
            "name": "C2",
            "ticks": 5160,
            "time": 6.8617035,
            "velocity": 0.905511811023622
          },
          {
            "duration": 0.026595749999999363,
            "durationTicks": 20,
            "midi": 28,
            "name": "E1",
            "ticks": 5280,
            "time": 7.021278000000001,
            "velocity": 0.7874015748031497
          },
          {
            "duration": 0.026595749999999363,
            "durationTicks": 20,
            "midi": 38,
            "name": "D2",
            "ticks": 5280,
            "time": 7.021278000000001,
            "velocity": 0.905511811023622
          },
          {
            "duration": 0.026595749999999363,
            "durationTicks": 20,
            "midi": 36,
            "name": "C2",
            "ticks": 5760,
            "time": 7.659576,
            "velocity": 0.905511811023622
          },
          {
            "duration": 0.02659575000000025,
            "durationTicks": 20,
            "midi": 36,
            "name": "C2",
            "ticks": 6120,
            "time": 8.1382995,
            "velocity": 0.905511811023622
          },
          {
            "duration": 0.02659575000000025,
            "durationTicks": 20,
            "midi": 28,
            "name": "E1",
            "ticks": 6240,
            "time": 8.297874,
            "velocity": 0.7874015748031497
          },
          {
            "duration": 0.02659575000000025,
            "durationTicks": 20,
            "midi": 38,
            "name": "D2",
            "ticks": 6240,
            "time": 8.297874,
            "velocity": 0.905511811023622
          },
          {
            "duration": 0.026595749999998475,
            "durationTicks": 20,
            "midi": 36,
            "name": "C2",
            "ticks": 6720,
            "time": 8.936172000000001,
            "velocity": 0.905511811023622
          },
          {
            "duration": 0.02659575000000025,
            "durationTicks": 20,
            "midi": 36,
            "name": "C2",
            "ticks": 7080,
            "time": 9.4148955,
            "velocity": 0.905511811023622
          },
          {
            "duration": 0.02659575000000025,
            "durationTicks": 20,
            "midi": 28,
            "name": "E1",
            "ticks": 7200,
            "time": 9.57447,
            "velocity": 0.7874015748031497
          },
          {
            "duration": 0.02659575000000025,
            "durationTicks": 20,
            "midi": 38,
            "name": "D2",
            "ticks": 7200,
            "time": 9.57447,
            "velocity": 0.905511811023622
          },
          {
            "duration": 0.026595749999998475,
            "durationTicks": 20,
            "midi": 36,
            "name": "C2",
            "ticks": 7440,
            "time": 9.893619000000001,
            "velocity": 0.905511811023622
          },
          {
            "duration": 0.02688170833333281,
            "durationTicks": 20,
            "midi": 36,
            "name": "C2",
            "ticks": 7680,
            "time": 10.212768,
            "velocity": 0.905511811023622
          },
          {
            "duration": 0.026881708333334586,
            "durationTicks": 20,
            "midi": 36,
            "name": "C2",
            "ticks": 8040,
            "time": 10.69663875,
            "velocity": 0.905511811023622
          },
          {
            "duration": 0.02688170833333281,
            "durationTicks": 20,
            "midi": 28,
            "name": "E1",
            "ticks": 8160,
            "time": 10.857929,
            "velocity": 0.7874015748031497
          },
          {
            "duration": 0.02688170833333281,
            "durationTicks": 20,
            "midi": 38,
            "name": "D2",
            "ticks": 8160,
            "time": 10.857929,
            "velocity": 0.905511811023622
          },
          {
            "duration": 0.02688170833333281,
            "durationTicks": 20,
            "midi": 36,
            "name": "C2",
            "ticks": 8640,
            "time": 11.50309,
            "velocity": 0.905511811023622
          },
          {
            "duration": 0.026881708333334586,
            "durationTicks": 20,
            "midi": 36,
            "name": "C2",
            "ticks": 9000,
            "time": 11.98696075,
            "velocity": 0.905511811023622
          },
          {
            "duration": 0.02688170833333281,
            "durationTicks": 20,
            "midi": 28,
            "name": "E1",
            "ticks": 9120,
            "time": 12.148251,
            "velocity": 0.7874015748031497
          },
          {
            "duration": 0.02688170833333281,
            "durationTicks": 20,
            "midi": 38,
            "name": "D2",
            "ticks": 9120,
            "time": 12.148251,
            "velocity": 0.905511811023622
          },
          {
            "duration": 0.026881708333334586,
            "durationTicks": 20,
            "midi": 36,
            "name": "C2",
            "ticks": 9600,
            "time": 12.793412,
            "velocity": 0.905511811023622
          },
          {
            "duration": 0.02688170833333281,
            "durationTicks": 20,
            "midi": 36,
            "name": "C2",
            "ticks": 9960,
            "time": 13.277282750000001,
            "velocity": 0.905511811023622
          },
          {
            "duration": 0.026881708333334586,
            "durationTicks": 20,
            "midi": 28,
            "name": "E1",
            "ticks": 10080,
            "time": 13.438573,
            "velocity": 0.7874015748031497
          },
          {
            "duration": 0.026881708333334586,
            "durationTicks": 20,
            "midi": 38,
            "name": "D2",
            "ticks": 10080,
            "time": 13.438573,
            "velocity": 0.905511811023622
          },
          {
            "duration": 0.026881708333334586,
            "durationTicks": 20,
            "midi": 36,
            "name": "C2",
            "ticks": 10560,
            "time": 14.083734,
            "velocity": 0.905511811023622
          },
          {
            "duration": 0.02688170833333281,
            "durationTicks": 20,
            "midi": 36,
            "name": "C2",
            "ticks": 10920,
            "time": 14.567604750000001,
            "velocity": 0.905511811023622
          },
          {
            "duration": 0.02688170833333281,
            "durationTicks": 20,
            "midi": 28,
            "name": "E1",
            "ticks": 11040,
            "time": 14.728895000000001,
            "velocity": 0.7874015748031497
          },
          {
            "duration": 0.02688170833333281,
            "durationTicks": 20,
            "midi": 38,
            "name": "D2",
            "ticks": 11040,
            "time": 14.728895000000001,
            "velocity": 0.905511811023622
          },
          {
            "duration": 0.02688170833333281,
            "durationTicks": 20,
            "midi": 36,
            "name": "C2",
            "ticks": 11280,
            "time": 15.0514755,
            "velocity": 0.905511811023622
          },
          {
            "duration": 0.02659575000000025,
            "durationTicks": 20,
            "midi": 36,
            "name": "C2",
            "ticks": 11520,
            "time": 15.374056,
            "velocity": 0.905511811023622
          },
          {
            "duration": 0.02659575000000025,
            "durationTicks": 20,
            "midi": 36,
            "name": "C2",
            "ticks": 11880,
            "time": 15.852779499999999,
            "velocity": 0.905511811023622
          },
          {
            "duration": 0.026595750000002027,
            "durationTicks": 20,
            "midi": 28,
            "name": "E1",
            "ticks": 12000,
            "time": 16.012354,
            "velocity": 0.7874015748031497
          },
          {
            "duration": 0.026595750000002027,
            "durationTicks": 20,
            "midi": 38,
            "name": "D2",
            "ticks": 12000,
            "time": 16.012354,
            "velocity": 0.905511811023622
          },
          {
            "duration": 0.026595749999998475,
            "durationTicks": 20,
            "midi": 36,
            "name": "C2",
            "ticks": 12480,
            "time": 16.650652,
            "velocity": 0.905511811023622
          },
          {
            "duration": 0.026595750000002027,
            "durationTicks": 20,
            "midi": 36,
            "name": "C2",
            "ticks": 12840,
            "time": 17.1293755,
            "velocity": 0.905511811023622
          },
          {
            "duration": 0.026595749999998475,
            "durationTicks": 20,
            "midi": 28,
            "name": "E1",
            "ticks": 12960,
            "time": 17.28895,
            "velocity": 0.7874015748031497
          },
          {
            "duration": 0.026595749999998475,
            "durationTicks": 20,
            "midi": 38,
            "name": "D2",
            "ticks": 12960,
            "time": 17.28895,
            "velocity": 0.905511811023622
          },
          {
            "duration": 0.026595750000002027,
            "durationTicks": 20,
            "midi": 36,
            "name": "C2",
            "ticks": 13440,
            "time": 17.927248,
            "velocity": 0.905511811023622
          },
          {
            "duration": 0.026595749999998475,
            "durationTicks": 20,
            "midi": 36,
            "name": "C2",
            "ticks": 13800,
            "time": 18.4059715,
            "velocity": 0.905511811023622
          },
          {
            "duration": 0.026595750000002027,
            "durationTicks": 20,
            "midi": 28,
            "name": "E1",
            "ticks": 13920,
            "time": 18.565545999999998,
            "velocity": 0.7874015748031497
          },
          {
            "duration": 0.026595750000002027,
            "durationTicks": 20,
            "midi": 38,
            "name": "D2",
            "ticks": 13920,
            "time": 18.565545999999998,
            "velocity": 0.905511811023622
          },
          {
            "duration": 0.026595749999998475,
            "durationTicks": 20,
            "midi": 36,
            "name": "C2",
            "ticks": 14400,
            "time": 19.203844,
            "velocity": 0.905511811023622
          },
          {
            "duration": 0.026595750000002027,
            "durationTicks": 20,
            "midi": 36,
            "name": "C2",
            "ticks": 14760,
            "time": 19.682567499999998,
            "velocity": 0.905511811023622
          },
          {
            "duration": 0.026595750000002027,
            "durationTicks": 20,
            "midi": 28,
            "name": "E1",
            "ticks": 14880,
            "time": 19.842142,
            "velocity": 0.7874015748031497
          },
          {
            "duration": 0.026595750000002027,
            "durationTicks": 20,
            "midi": 38,
            "name": "D2",
            "ticks": 14880,
            "time": 19.842142,
            "velocity": 0.905511811023622
          },
          {
            "duration": 0.026595750000002027,
            "durationTicks": 20,
            "midi": 36,
            "name": "C2",
            "ticks": 15120,
            "time": 20.161291,
            "velocity": 0.905511811023622
          },
          {
            "duration": 0.026595749999998475,
            "durationTicks": 20,
            "midi": 36,
            "name": "C2",
            "ticks": 15360,
            "time": 20.48044,
            "velocity": 0.905511811023622
          },
          {
            "duration": 0.026595750000002027,
            "durationTicks": 20,
            "midi": 36,
            "name": "C2",
            "ticks": 15720,
            "time": 20.9591635,
            "velocity": 0.905511811023622
          },
          {
            "duration": 0.026595749999998475,
            "durationTicks": 20,
            "midi": 28,
            "name": "E1",
            "ticks": 15840,
            "time": 21.118738,
            "velocity": 0.7874015748031497
          },
          {
            "duration": 0.026595749999998475,
            "durationTicks": 20,
            "midi": 38,
            "name": "D2",
            "ticks": 15840,
            "time": 21.118738,
            "velocity": 0.905511811023622
          },
          {
            "duration": 0.026595749999998475,
            "durationTicks": 20,
            "midi": 36,
            "name": "C2",
            "ticks": 16320,
            "time": 21.757036,
            "velocity": 0.905511811023622
          },
          {
            "duration": 0.026595749999998475,
            "durationTicks": 20,
            "midi": 36,
            "name": "C2",
            "ticks": 16680,
            "time": 22.2357595,
            "velocity": 0.905511811023622
          },
          {
            "duration": 0.026595750000002027,
            "durationTicks": 20,
            "midi": 28,
            "name": "E1",
            "ticks": 16800,
            "time": 22.395334,
            "velocity": 0.7874015748031497
          },
          {
            "duration": 0.026595750000002027,
            "durationTicks": 20,
            "midi": 38,
            "name": "D2",
            "ticks": 16800,
            "time": 22.395334,
            "velocity": 0.905511811023622
          },
          {
            "duration": 0.026881708333334586,
            "durationTicks": 20,
            "midi": 36,
            "name": "C2",
            "ticks": 17280,
            "time": 23.033632,
            "velocity": 0.905511811023622
          },
          {
            "duration": 0.026881708333331034,
            "durationTicks": 20,
            "midi": 36,
            "name": "C2",
            "ticks": 17640,
            "time": 23.517502750000002,
            "velocity": 0.905511811023622
          },
          {
            "duration": 0.026881708333331034,
            "durationTicks": 20,
            "midi": 28,
            "name": "E1",
            "ticks": 17760,
            "time": 23.678793000000002,
            "velocity": 0.7874015748031497
          },
          {
            "duration": 0.026881708333331034,
            "durationTicks": 20,
            "midi": 38,
            "name": "D2",
            "ticks": 17760,
            "time": 23.678793000000002,
            "velocity": 0.905511811023622
          },
          {
            "duration": 0.026881708333334586,
            "durationTicks": 20,
            "midi": 36,
            "name": "C2",
            "ticks": 18240,
            "time": 24.323954,
            "velocity": 0.905511811023622
          },
          {
            "duration": 0.026881708333331034,
            "durationTicks": 20,
            "midi": 36,
            "name": "C2",
            "ticks": 18600,
            "time": 24.80782475,
            "velocity": 0.905511811023622
          },
          {
            "duration": 0.026881708333331034,
            "durationTicks": 20,
            "midi": 28,
            "name": "E1",
            "ticks": 18720,
            "time": 24.969115000000002,
            "velocity": 0.7874015748031497
          },
          {
            "duration": 0.026881708333331034,
            "durationTicks": 20,
            "midi": 38,
            "name": "D2",
            "ticks": 18720,
            "time": 24.969115000000002,
            "velocity": 0.905511811023622
          },
          {
            "duration": 0.026881708333334586,
            "durationTicks": 20,
            "midi": 36,
            "name": "C2",
            "ticks": 18960,
            "time": 25.2916955,
            "velocity": 0.905511811023622
          },
          {
            "duration": 0.026881708333334586,
            "durationTicks": 20,
            "midi": 36,
            "name": "C2",
            "ticks": 19200,
            "time": 25.614276,
            "velocity": 0.905511811023622
          },
          {
            "duration": 0.026881708333331034,
            "durationTicks": 20,
            "midi": 36,
            "name": "C2",
            "ticks": 19560,
            "time": 26.09814675,
            "velocity": 0.905511811023622
          },
          {
            "duration": 0.026881708333331034,
            "durationTicks": 20,
            "midi": 28,
            "name": "E1",
            "ticks": 19680,
            "time": 26.259437000000002,
            "velocity": 0.7874015748031497
          },
          {
            "duration": 0.026881708333331034,
            "durationTicks": 20,
            "midi": 38,
            "name": "D2",
            "ticks": 19680,
            "time": 26.259437000000002,
            "velocity": 0.905511811023622
          },
          {
            "duration": 0.026881708333334586,
            "durationTicks": 20,
            "midi": 36,
            "name": "C2",
            "ticks": 20160,
            "time": 26.904598,
            "velocity": 0.905511811023622
          },
          {
            "duration": 0.026881708333334586,
            "durationTicks": 20,
            "midi": 36,
            "name": "C2",
            "ticks": 20520,
            "time": 27.38846875,
            "velocity": 0.905511811023622
          },
          {
            "duration": 0.026881708333334586,
            "durationTicks": 20,
            "midi": 28,
            "name": "E1",
            "ticks": 20640,
            "time": 27.549759,
            "velocity": 0.7874015748031497
          },
          {
            "duration": 0.026881708333334586,
            "durationTicks": 20,
            "midi": 38,
            "name": "D2",
            "ticks": 20640,
            "time": 27.549759,
            "velocity": 0.905511811023622
          },
          {
            "duration": 0.026881708333334586,
            "durationTicks": 20,
            "midi": 36,
            "name": "C2",
            "ticks": 21120,
            "time": 28.19492,
            "velocity": 0.905511811023622
          },
          {
            "duration": 0.026881708333331034,
            "durationTicks": 20,
            "midi": 36,
            "name": "C2",
            "ticks": 21480,
            "time": 28.67879075,
            "velocity": 0.905511811023622
          },
          {
            "duration": 0.026881708333331034,
            "durationTicks": 20,
            "midi": 28,
            "name": "E1",
            "ticks": 21600,
            "time": 28.840081,
            "velocity": 0.7874015748031497
          },
          {
            "duration": 0.026881708333331034,
            "durationTicks": 20,
            "midi": 38,
            "name": "D2",
            "ticks": 21600,
            "time": 28.840081,
            "velocity": 0.905511811023622
          },
          {
            "duration": 0.026881708333334586,
            "durationTicks": 20,
            "midi": 36,
            "name": "C2",
            "ticks": 22080,
            "time": 29.485242,
            "velocity": 0.905511811023622
          },
          {
            "duration": 0.026881708333334586,
            "durationTicks": 20,
            "midi": 36,
            "name": "C2",
            "ticks": 22440,
            "time": 29.96911275,
            "velocity": 0.905511811023622
          },
          {
            "duration": 0.026881708333334586,
            "durationTicks": 20,
            "midi": 28,
            "name": "E1",
            "ticks": 22560,
            "time": 30.130403,
            "velocity": 0.7874015748031497
          },
          {
            "duration": 0.026881708333334586,
            "durationTicks": 20,
            "midi": 38,
            "name": "D2",
            "ticks": 22560,
            "time": 30.130403,
            "velocity": 0.905511811023622
          },
          {
            "duration": 0.026881708333331034,
            "durationTicks": 20,
            "midi": 36,
            "name": "C2",
            "ticks": 22800,
            "time": 30.452983500000002,
            "velocity": 0.905511811023622
          },
          {
            "duration": 0.026881708333331034,
            "durationTicks": 20,
            "midi": 36,
            "name": "C2",
            "ticks": 23040,
            "time": 30.775564000000003,
            "velocity": 0.905511811023622
          },
          {
            "duration": 0.026881708333331034,
            "durationTicks": 20,
            "midi": 36,
            "name": "C2",
            "ticks": 23400,
            "time": 31.25943475,
            "velocity": 0.905511811023622
          },
          {
            "duration": 0.026881708333331034,
            "durationTicks": 20,
            "midi": 28,
            "name": "E1",
            "ticks": 23520,
            "time": 31.420725,
            "velocity": 0.7874015748031497
          },
          {
            "duration": 0.026881708333331034,
            "durationTicks": 20,
            "midi": 38,
            "name": "D2",
            "ticks": 23520,
            "time": 31.420725,
            "velocity": 0.905511811023622
          },
          {
            "duration": 0.026881708333334586,
            "durationTicks": 20,
            "midi": 36,
            "name": "C2",
            "ticks": 24000,
            "time": 32.065886,
            "velocity": 0.905511811023622
          },
          {
            "duration": 0.026881708333334586,
            "durationTicks": 20,
            "midi": 36,
            "name": "C2",
            "ticks": 24360,
            "time": 32.54975675,
            "velocity": 0.905511811023622
          },
          {
            "duration": 0.026881708333334586,
            "durationTicks": 20,
            "midi": 28,
            "name": "E1",
            "ticks": 24480,
            "time": 32.711047,
            "velocity": 0.7874015748031497
          },
          {
            "duration": 0.026881708333334586,
            "durationTicks": 20,
            "midi": 38,
            "name": "D2",
            "ticks": 24480,
            "time": 32.711047,
            "velocity": 0.905511811023622
          },
          {
            "duration": 0.026595749999998475,
            "durationTicks": 20,
            "midi": 36,
            "name": "C2",
            "ticks": 24960,
            "time": 33.356208,
            "velocity": 0.905511811023622
          },
          {
            "duration": 0.026595749999998475,
            "durationTicks": 20,
            "midi": 36,
            "name": "C2",
            "ticks": 25320,
            "time": 33.8349315,
            "velocity": 0.905511811023622
          },
          {
            "duration": 0.026595749999998475,
            "durationTicks": 20,
            "midi": 28,
            "name": "E1",
            "ticks": 25440,
            "time": 33.994506,
            "velocity": 0.7874015748031497
          },
          {
            "duration": 0.026595749999998475,
            "durationTicks": 20,
            "midi": 38,
            "name": "D2",
            "ticks": 25440,
            "time": 33.994506,
            "velocity": 0.905511811023622
          },
          {
            "duration": 0.02659575000000558,
            "durationTicks": 20,
            "midi": 36,
            "name": "C2",
            "ticks": 25920,
            "time": 34.632804,
            "velocity": 0.905511811023622
          },
          {
            "duration": 0.026595749999998475,
            "durationTicks": 20,
            "midi": 36,
            "name": "C2",
            "ticks": 26280,
            "time": 35.1115275,
            "velocity": 0.905511811023622
          },
          {
            "duration": 0.02659575000000558,
            "durationTicks": 20,
            "midi": 28,
            "name": "E1",
            "ticks": 26400,
            "time": 35.271102,
            "velocity": 0.7874015748031497
          },
          {
            "duration": 0.02659575000000558,
            "durationTicks": 20,
            "midi": 38,
            "name": "D2",
            "ticks": 26400,
            "time": 35.271102,
            "velocity": 0.905511811023622
          },
          {
            "duration": 0.026595749999998475,
            "durationTicks": 20,
            "midi": 36,
            "name": "C2",
            "ticks": 26640,
            "time": 35.590251,
            "velocity": 0.905511811023622
          },
          {
            "duration": 0.026595749999998475,
            "durationTicks": 20,
            "midi": 36,
            "name": "C2",
            "ticks": 26880,
            "time": 35.909400000000005,
            "velocity": 0.905511811023622
          },
          {
            "duration": 0.026595749999998475,
            "durationTicks": 20,
            "midi": 36,
            "name": "C2",
            "ticks": 27240,
            "time": 36.388123500000006,
            "velocity": 0.905511811023622
          },
          {
            "duration": 0.026595749999998475,
            "durationTicks": 20,
            "midi": 28,
            "name": "E1",
            "ticks": 27360,
            "time": 36.547698000000004,
            "velocity": 0.7874015748031497
          },
          {
            "duration": 0.026595749999998475,
            "durationTicks": 20,
            "midi": 38,
            "name": "D2",
            "ticks": 27360,
            "time": 36.547698000000004,
            "velocity": 0.905511811023622
          },
          {
            "duration": 0.026595749999998475,
            "durationTicks": 20,
            "midi": 36,
            "name": "C2",
            "ticks": 27840,
            "time": 37.185996,
            "velocity": 0.905511811023622
          },
          {
            "duration": 0.026595749999998475,
            "durationTicks": 20,
            "midi": 36,
            "name": "C2",
            "ticks": 28200,
            "time": 37.664719500000004,
            "velocity": 0.905511811023622
          },
          {
            "duration": 0.026595749999998475,
            "durationTicks": 20,
            "midi": 28,
            "name": "E1",
            "ticks": 28320,
            "time": 37.824294,
            "velocity": 0.7874015748031497
          },
          {
            "duration": 0.026595749999998475,
            "durationTicks": 20,
            "midi": 38,
            "name": "D2",
            "ticks": 28320,
            "time": 37.824294,
            "velocity": 0.905511811023622
          },
          {
            "duration": 0.026595749999998475,
            "durationTicks": 20,
            "midi": 36,
            "name": "C2",
            "ticks": 28800,
            "time": 38.462592,
            "velocity": 0.905511811023622
          },
          {
            "duration": 0.026595749999998475,
            "durationTicks": 20,
            "midi": 36,
            "name": "C2",
            "ticks": 29160,
            "time": 38.9413155,
            "velocity": 0.905511811023622
          },
          {
            "duration": 0.02659575000000558,
            "durationTicks": 20,
            "midi": 28,
            "name": "E1",
            "ticks": 29280,
            "time": 39.10089,
            "velocity": 0.7874015748031497
          },
          {
            "duration": 0.02659575000000558,
            "durationTicks": 20,
            "midi": 38,
            "name": "D2",
            "ticks": 29280,
            "time": 39.10089,
            "velocity": 0.905511811023622
          },
          {
            "duration": 0.02659575000000558,
            "durationTicks": 20,
            "midi": 36,
            "name": "C2",
            "ticks": 29760,
            "time": 39.739188,
            "velocity": 0.905511811023622
          },
          {
            "duration": 0.02659575000000558,
            "durationTicks": 20,
            "midi": 36,
            "name": "C2",
            "ticks": 30120,
            "time": 40.2179115,
            "velocity": 0.905511811023622
          },
          {
            "duration": 0.026595749999998475,
            "durationTicks": 20,
            "midi": 28,
            "name": "E1",
            "ticks": 30240,
            "time": 40.377486000000005,
            "velocity": 0.7874015748031497
          },
          {
            "duration": 0.026595749999998475,
            "durationTicks": 20,
            "midi": 38,
            "name": "D2",
            "ticks": 30240,
            "time": 40.377486000000005,
            "velocity": 0.905511811023622
          },
          {
            "duration": 0.026595749999998475,
            "durationTicks": 20,
            "midi": 36,
            "name": "C2",
            "ticks": 30480,
            "time": 40.696635,
            "velocity": 0.905511811023622
          },
          {
            "duration": 0.026881708333334586,
            "durationTicks": 20,
            "midi": 36,
            "name": "C2",
            "ticks": 30720,
            "time": 41.015784000000004,
            "velocity": 0.905511811023622
          },
          {
            "duration": 0.026881708333334586,
            "durationTicks": 20,
            "midi": 36,
            "name": "C2",
            "ticks": 31080,
            "time": 41.499654750000005,
            "velocity": 0.905511811023622
          },
          {
            "duration": 0.026881708333334586,
            "durationTicks": 20,
            "midi": 28,
            "name": "E1",
            "ticks": 31200,
            "time": 41.660945000000005,
            "velocity": 0.7874015748031497
          },
          {
            "duration": 0.026881708333334586,
            "durationTicks": 20,
            "midi": 38,
            "name": "D2",
            "ticks": 31200,
            "time": 41.660945000000005,
            "velocity": 0.905511811023622
          },
          {
            "duration": 0.02688170833332748,
            "durationTicks": 20,
            "midi": 36,
            "name": "C2",
            "ticks": 31680,
            "time": 42.30610600000001,
            "velocity": 0.905511811023622
          },
          {
            "duration": 0.026881708333334586,
            "durationTicks": 20,
            "midi": 36,
            "name": "C2",
            "ticks": 32040,
            "time": 42.78997675,
            "velocity": 0.905511811023622
          },
          {
            "duration": 0.026881708333334586,
            "durationTicks": 20,
            "midi": 28,
            "name": "E1",
            "ticks": 32160,
            "time": 42.951267,
            "velocity": 0.7874015748031497
          },
          {
            "duration": 0.026881708333334586,
            "durationTicks": 20,
            "midi": 38,
            "name": "D2",
            "ticks": 32160,
            "time": 42.951267,
            "velocity": 0.905511811023622
          },
          {
            "duration": 0.026881708333334586,
            "durationTicks": 20,
            "midi": 36,
            "name": "C2",
            "ticks": 32640,
            "time": 43.596428,
            "velocity": 0.905511811023622
          },
          {
            "duration": 0.026881708333334586,
            "durationTicks": 20,
            "midi": 36,
            "name": "C2",
            "ticks": 33000,
            "time": 44.080298750000004,
            "velocity": 0.905511811023622
          },
          {
            "duration": 0.026881708333334586,
            "durationTicks": 20,
            "midi": 28,
            "name": "E1",
            "ticks": 33120,
            "time": 44.241589000000005,
            "velocity": 0.7874015748031497
          },
          {
            "duration": 0.026881708333334586,
            "durationTicks": 20,
            "midi": 38,
            "name": "D2",
            "ticks": 33120,
            "time": 44.241589000000005,
            "velocity": 0.905511811023622
          },
          {
            "duration": 0.02688170833332748,
            "durationTicks": 20,
            "midi": 36,
            "name": "C2",
            "ticks": 33600,
            "time": 44.886750000000006,
            "velocity": 0.905511811023622
          },
          {
            "duration": 0.026881708333334586,
            "durationTicks": 20,
            "midi": 36,
            "name": "C2",
            "ticks": 33960,
            "time": 45.37062075,
            "velocity": 0.905511811023622
          },
          {
            "duration": 0.026881708333334586,
            "durationTicks": 20,
            "midi": 28,
            "name": "E1",
            "ticks": 34080,
            "time": 45.531911,
            "velocity": 0.7874015748031497
          },
          {
            "duration": 0.026881708333334586,
            "durationTicks": 20,
            "midi": 38,
            "name": "D2",
            "ticks": 34080,
            "time": 45.531911,
            "velocity": 0.905511811023622
          },
          {
            "duration": 0.026881708333334586,
            "durationTicks": 20,
            "midi": 36,
            "name": "C2",
            "ticks": 34320,
            "time": 45.8544915,
            "velocity": 0.905511811023622
          },
          {
            "duration": 0.026881708333334586,
            "durationTicks": 20,
            "midi": 36,
            "name": "C2",
            "ticks": 34560,
            "time": 46.177072,
            "velocity": 0.905511811023622
          },
          {
            "duration": 0.026881708333334586,
            "durationTicks": 20,
            "midi": 36,
            "name": "C2",
            "ticks": 34920,
            "time": 46.660942750000004,
            "velocity": 0.905511811023622
          },
          {
            "duration": 0.026881708333334586,
            "durationTicks": 20,
            "midi": 28,
            "name": "E1",
            "ticks": 35040,
            "time": 46.822233000000004,
            "velocity": 0.7874015748031497
          },
          {
            "duration": 0.026881708333334586,
            "durationTicks": 20,
            "midi": 38,
            "name": "D2",
            "ticks": 35040,
            "time": 46.822233000000004,
            "velocity": 0.905511811023622
          },
          {
            "duration": 0.02688170833332748,
            "durationTicks": 20,
            "midi": 36,
            "name": "C2",
            "ticks": 35520,
            "time": 47.467394000000006,
            "velocity": 0.905511811023622
          },
          {
            "duration": 0.02688170833332748,
            "durationTicks": 20,
            "midi": 36,
            "name": "C2",
            "ticks": 35880,
            "time": 47.95126475000001,
            "velocity": 0.905511811023622
          },
          {
            "duration": 0.026881708333334586,
            "durationTicks": 20,
            "midi": 28,
            "name": "E1",
            "ticks": 36000,
            "time": 48.112555,
            "velocity": 0.7874015748031497
          },
          {
            "duration": 0.026881708333334586,
            "durationTicks": 20,
            "midi": 38,
            "name": "D2",
            "ticks": 36000,
            "time": 48.112555,
            "velocity": 0.905511811023622
          },
          {
            "duration": 0.026595749999998475,
            "durationTicks": 20,
            "midi": 36,
            "name": "C2",
            "ticks": 36480,
            "time": 48.757716,
            "velocity": 0.905511811023622
          },
          {
            "duration": 0.026595749999998475,
            "durationTicks": 20,
            "midi": 36,
            "name": "C2",
            "ticks": 36840,
            "time": 49.2364395,
            "velocity": 0.905511811023622
          },
          {
            "duration": 0.026595749999998475,
            "durationTicks": 20,
            "midi": 28,
            "name": "E1",
            "ticks": 36960,
            "time": 49.396014,
            "velocity": 0.7874015748031497
          },
          {
            "duration": 0.026595749999998475,
            "durationTicks": 20,
            "midi": 38,
            "name": "D2",
            "ticks": 36960,
            "time": 49.396014,
            "velocity": 0.905511811023622
          },
          {
            "duration": 0.026595749999998475,
            "durationTicks": 20,
            "midi": 36,
            "name": "C2",
            "ticks": 37440,
            "time": 50.034312,
            "velocity": 0.905511811023622
          },
          {
            "duration": 0.026595749999998475,
            "durationTicks": 20,
            "midi": 36,
            "name": "C2",
            "ticks": 37800,
            "time": 50.5130355,
            "velocity": 0.905511811023622
          },
          {
            "duration": 0.02659575000000558,
            "durationTicks": 20,
            "midi": 28,
            "name": "E1",
            "ticks": 37920,
            "time": 50.67261,
            "velocity": 0.7874015748031497
          },
          {
            "duration": 0.02659575000000558,
            "durationTicks": 20,
            "midi": 38,
            "name": "D2",
            "ticks": 37920,
            "time": 50.67261,
            "velocity": 0.905511811023622
          },
          {
            "duration": 0.0026595750000026896,
            "durationTicks": 2,
            "midi": 36,
            "name": "C2",
            "ticks": 38160,
            "time": 50.991759,
            "velocity": 0.905511811023622
          }
        ],
        "endOfTrackTicks": 38400
      },
      {
        "channel": 0,
        "controlChanges": {
          "121": [
            {
              "number": 121,
              "ticks": 270,
              "time": 0.359042625,
              "value": 0
            }
          ]
        },
        "pitchBends": [],
        "instrument": {
          "family": "piano",
          "number": 0,
          "name": "acoustic grand piano"
        },
        "name": "Magic",
        "notes": [],
        "endOfTrackTicks": 38400
      },
      {
        "channel": 0,
        "controlChanges": {
          "1": [
            {
              "number": 1,
              "ticks": 560,
              "time": 0.744681,
              "value": 0
            }
          ],
          "7": [
            {
              "number": 7,
              "ticks": 400,
              "time": 0.531915,
              "value": 0.3937007874015748
            }
          ],
          "10": [
            {
              "number": 10,
              "ticks": 432,
              "time": 0.5744682000000001,
              "value": 0.5039370078740157
            }
          ],
          "11": [
            {
              "number": 11,
              "ticks": 464,
              "time": 0.6170214,
              "value": 1
            }
          ],
          "64": [
            {
              "number": 64,
              "ticks": 592,
              "time": 0.7872342000000001,
              "value": 0
            }
          ],
          "71": [
            {
              "number": 71,
              "ticks": 624,
              "time": 0.8297874000000001,
              "value": 0.5039370078740157
            }
          ],
          "72": [
            {
              "number": 72,
              "ticks": 656,
              "time": 0.8723406,
              "value": 0.5039370078740157
            }
          ],
          "73": [
            {
              "number": 73,
              "ticks": 688,
              "time": 0.9148938000000001,
              "value": 0.5039370078740157
            }
          ],
          "74": [
            {
              "number": 74,
              "ticks": 720,
              "time": 0.957447,
              "value": 0.5039370078740157
            }
          ],
          "91": [
            {
              "number": 91,
              "ticks": 496,
              "time": 0.6595746000000001,
              "value": 0
            }
          ],
          "93": [
            {
              "number": 93,
              "ticks": 528,
              "time": 0.7021278000000001,
              "value": 0.9921259842519685
            }
          ],
          "94": [
            {
              "number": 94,
              "ticks": 752,
              "time": 1.0000002000000001,
              "value": 0
            }
          ]
        },
        "pitchBends": [
          {
            "ticks": 784,
            "time": 1.0425534,
            "value": 0
          }
        ],
        "instrument": {
          "family": "synth pad",
          "number": 91,
          "name": "pad 4 (choir)"
        },
        "name": "",
        "notes": []
      },
      {
        "channel": 0,
        "controlChanges": {
          "121": [
            {
              "number": 121,
              "ticks": 272,
              "time": 0.36170220000000003,
              "value": 0
            }
          ]
        },
        "pitchBends": [],
        "instrument": {
          "family": "piano",
          "number": 0,
          "name": "acoustic grand piano"
        },
        "name": "Magic",
        "notes": [],
        "endOfTrackTicks": 38400
      },
      {
        "channel": 0,
        "controlChanges": {
          "1": [
            {
              "number": 1,
              "ticks": 562,
              "time": 0.7473405750000001,
              "value": 0
            }
          ],
          "7": [
            {
              "number": 7,
              "ticks": 402,
              "time": 0.534574575,
              "value": 0.6929133858267716
            }
          ],
          "10": [
            {
              "number": 10,
              "ticks": 434,
              "time": 0.577127775,
              "value": 0.5039370078740157
            }
          ],
          "11": [
            {
              "number": 11,
              "ticks": 466,
              "time": 0.6196809750000001,
              "value": 1
            }
          ],
          "64": [
            {
              "number": 64,
              "ticks": 594,
              "time": 0.789893775,
              "value": 0
            }
          ],
          "71": [
            {
              "number": 71,
              "ticks": 626,
              "time": 0.8324469750000001,
              "value": 0.5039370078740157
            }
          ],
          "72": [
            {
              "number": 72,
              "ticks": 658,
              "time": 0.875000175,
              "value": 0.5039370078740157
            }
          ],
          "73": [
            {
              "number": 73,
              "ticks": 690,
              "time": 0.917553375,
              "value": 0.5039370078740157
            }
          ],
          "74": [
            {
              "number": 74,
              "ticks": 722,
              "time": 0.9601065750000001,
              "value": 0.5039370078740157
            }
          ],
          "91": [
            {
              "number": 91,
              "ticks": 498,
              "time": 0.662234175,
              "value": 0.6614173228346457
            }
          ],
          "93": [
            {
              "number": 93,
              "ticks": 530,
              "time": 0.7047873750000001,
              "value": 0
            }
          ],
          "94": [
            {
              "number": 94,
              "ticks": 754,
              "time": 1.0026597750000001,
              "value": 0
            }
          ]
        },
        "pitchBends": [
          {
            "ticks": 786,
            "time": 1.045212975,
            "value": 0
          }
        ],
        "instrument": {
          "family": "ensemble",
          "number": 51,
          "name": "synthstrings 2"
        },
        "name": "",
        "notes": []
      },
      {
        "channel": 0,
        "controlChanges": {
          "121": [
            {
              "number": 121,
              "ticks": 274,
              "time": 0.364361775,
              "value": 0
            }
          ]
        },
        "pitchBends": [],
        "instrument": {
          "family": "piano",
          "number": 0,
          "name": "acoustic grand piano"
        },
        "name": "Magic",
        "notes": [],
        "endOfTrackTicks": 38400
      },
      {
        "channel": 0,
        "controlChanges": {
          "1": [
            {
              "number": 1,
              "ticks": 564,
              "time": 0.7500001500000001,
              "value": 0
            }
          ],
          "7": [
            {
              "number": 7,
              "ticks": 404,
              "time": 0.5372341500000001,
              "value": 0.49606299212598426
            }
          ],
          "10": [
            {
              "number": 10,
              "ticks": 436,
              "time": 0.57978735,
              "value": 0.5039370078740157
            }
          ],
          "11": [
            {
              "number": 11,
              "ticks": 468,
              "time": 0.62234055,
              "value": 1
            }
          ],
          "64": [
            {
              "number": 64,
              "ticks": 596,
              "time": 0.79255335,
              "value": 0
            }
          ],
          "71": [
            {
              "number": 71,
              "ticks": 628,
              "time": 0.83510655,
              "value": 0.5039370078740157
            }
          ],
          "72": [
            {
              "number": 72,
              "ticks": 660,
              "time": 0.8776597500000001,
              "value": 0.5039370078740157
            }
          ],
          "73": [
            {
              "number": 73,
              "ticks": 692,
              "time": 0.92021295,
              "value": 0.5039370078740157
            }
          ],
          "74": [
            {
              "number": 74,
              "ticks": 724,
              "time": 0.96276615,
              "value": 0.5039370078740157
            }
          ],
          "91": [
            {
              "number": 91,
              "ticks": 500,
              "time": 0.6648937500000001,
              "value": 0.9921259842519685
            }
          ],
          "93": [
            {
              "number": 93,
              "ticks": 532,
              "time": 0.70744695,
              "value": 0
            }
          ],
          "94": [
            {
              "number": 94,
              "ticks": 756,
              "time": 1.00531935,
              "value": 0
            }
          ]
        },
        "pitchBends": [
          {
            "ticks": 788,
            "time": 1.0478725500000001,
            "value": 0
          }
        ],
        "instrument": {
          "family": "synth effects",
          "number": 102,
          "name": "fx 7 (echoes)"
        },
        "name": "",
        "notes": []
      },
      {
        "channel": 0,
        "controlChanges": {
          "121": [
            {
              "number": 121,
              "ticks": 276,
              "time": 0.36702134999999997,
              "value": 0
            }
          ]
        },
        "pitchBends": [],
        "instrument": {
          "family": "piano",
          "number": 0,
          "name": "acoustic grand piano"
        },
        "name": "Magic",
        "notes": [],
        "endOfTrackTicks": 38400
      },
      {
        "channel": 0,
        "controlChanges": {
          "1": [
            {
              "number": 1,
              "ticks": 566,
              "time": 0.752659725,
              "value": 0
            }
          ],
          "7": [
            {
              "number": 7,
              "ticks": 406,
              "time": 0.539893725,
              "value": 0.6929133858267716
            }
          ],
          "10": [
            {
              "number": 10,
              "ticks": 438,
              "time": 0.5824469250000001,
              "value": 0.5039370078740157
            }
          ],
          "11": [
            {
              "number": 11,
              "ticks": 470,
              "time": 0.625000125,
              "value": 1
            }
          ],
          "64": [
            {
              "number": 64,
              "ticks": 598,
              "time": 0.7952129250000001,
              "value": 0
            }
          ],
          "71": [
            {
              "number": 71,
              "ticks": 630,
              "time": 0.837766125,
              "value": 0.5039370078740157
            }
          ],
          "72": [
            {
              "number": 72,
              "ticks": 662,
              "time": 0.880319325,
              "value": 0.5039370078740157
            }
          ],
          "73": [
            {
              "number": 73,
              "ticks": 694,
              "time": 0.922872525,
              "value": 0.5039370078740157
            }
          ],
          "74": [
            {
              "number": 74,
              "ticks": 726,
              "time": 0.965425725,
              "value": 0.5039370078740157
            }
          ],
          "91": [
            {
              "number": 91,
              "ticks": 502,
              "time": 0.6675533250000001,
              "value": 0.6614173228346457
            }
          ],
          "93": [
            {
              "number": 93,
              "ticks": 534,
              "time": 0.710106525,
              "value": 0
            }
          ],
          "94": [
            {
              "number": 94,
              "ticks": 758,
              "time": 1.007978925,
              "value": 0
            }
          ]
        },
        "pitchBends": [
          {
            "ticks": 790,
            "time": 1.050532125,
            "value": 0
          }
        ],
        "instrument": {
          "family": "synth lead",
          "number": 82,
          "name": "lead 3 (calliope)"
        },
        "name": "",
        "notes": []
      },
      {
        "channel": 0,
        "controlChanges": {
          "121": [
            {
              "number": 121,
              "ticks": 278,
              "time": 0.36968092500000005,
              "value": 0
            }
          ]
        },
        "pitchBends": [],
        "instrument": {
          "family": "piano",
          "number": 0,
          "name": "acoustic grand piano"
        },
        "name": "Magic",
        "notes": [],
        "endOfTrackTicks": 38400
      },
      {
        "channel": 0,
        "controlChanges": {
          "1": [
            {
              "number": 1,
              "ticks": 568,
              "time": 0.7553193,
              "value": 0
            }
          ],
          "7": [
            {
              "number": 7,
              "ticks": 408,
              "time": 0.5425533,
              "value": 0.7874015748031497
            }
          ],
          "10": [
            {
              "number": 10,
              "ticks": 440,
              "time": 0.5851065,
              "value": 0.5669291338582677
            }
          ],
          "11": [
            {
              "number": 11,
              "ticks": 472,
              "time": 0.6276597,
              "value": 1
            }
          ],
          "64": [
            {
              "number": 64,
              "ticks": 600,
              "time": 0.7978725,
              "value": 0
            }
          ],
          "71": [
            {
              "number": 71,
              "ticks": 632,
              "time": 0.8404257,
              "value": 0.5039370078740157
            }
          ],
          "72": [
            {
              "number": 72,
              "ticks": 664,
              "time": 0.8829789,
              "value": 0.5039370078740157
            }
          ],
          "73": [
            {
              "number": 73,
              "ticks": 696,
              "time": 0.9255321,
              "value": 0.5039370078740157
            }
          ],
          "74": [
            {
              "number": 74,
              "ticks": 728,
              "time": 0.9680853,
              "value": 0.5039370078740157
            }
          ],
          "91": [
            {
              "number": 91,
              "ticks": 504,
              "time": 0.6702129000000001,
              "value": 0.6614173228346457
            }
          ],
          "93": [
            {
              "number": 93,
              "ticks": 536,
              "time": 0.7127661000000001,
              "value": 0
            }
          ],
          "94": [
            {
              "number": 94,
              "ticks": 760,
              "time": 1.0106385,
              "value": 0
            }
          ]
        },
        "pitchBends": [
          {
            "ticks": 792,
            "time": 1.0531917,
            "value": 0
          }
        ],
        "instrument": {
          "family": "piano",
          "number": 4,
          "name": "electric piano 1"
        },
        "name": "",
        "notes": []
      },
      {
        "channel": 0,
        "controlChanges": {
          "1": [
            {
              "number": 1,
              "ticks": 570,
              "time": 0.757978875,
              "value": 0
            }
          ],
          "7": [
            {
              "number": 7,
              "ticks": 410,
              "time": 0.545212875,
              "value": 0.9921259842519685
            }
          ],
          "10": [
            {
              "number": 10,
              "ticks": 442,
              "time": 0.587766075,
              "value": 0.5039370078740157
            }
          ],
          "11": [
            {
              "number": 11,
              "ticks": 474,
              "time": 0.6303192750000001,
              "value": 1
            }
          ],
          "64": [
            {
              "number": 64,
              "ticks": 602,
              "time": 0.800532075,
              "value": 0
            }
          ],
          "71": [
            {
              "number": 71,
              "ticks": 634,
              "time": 0.8430852750000001,
              "value": 0.5039370078740157
            }
          ],
          "72": [
            {
              "number": 72,
              "ticks": 666,
              "time": 0.885638475,
              "value": 0.5039370078740157
            }
          ],
          "73": [
            {
              "number": 73,
              "ticks": 698,
              "time": 0.928191675,
              "value": 0.5039370078740157
            }
          ],
          "74": [
            {
              "number": 74,
              "ticks": 730,
              "time": 0.970744875,
              "value": 0.5039370078740157
            }
          ],
          "91": [
            {
              "number": 91,
              "ticks": 506,
              "time": 0.672872475,
              "value": 0
            }
          ],
          "93": [
            {
              "number": 93,
              "ticks": 538,
              "time": 0.7154256750000001,
              "value": 0
            }
          ],
          "94": [
            {
              "number": 94,
              "ticks": 762,
              "time": 1.013298075,
              "value": 0
            }
          ],
          "121": [
            {
              "number": 121,
              "ticks": 280,
              "time": 0.3723405,
              "value": 0
            }
          ]
        },
        "pitchBends": [
          {
            "ticks": 794,
            "time": 1.055851275,
            "value": 0
          }
        ],
        "instrument": {
          "family": "piano",
          "number": 0,
          "name": "acoustic grand piano"
        },
        "name": "Magic",
        "notes": [],
        "endOfTrackTicks": 38400
      }
    ]
  }