{
  "header": {
    "keySignatures": [
      {
        "key": "A",
        "scale": "major",
        "ticks": 0
      }
    ],
    "meta": [
      {
        "text": "Intro",
        "ticks": 2133,
        "type": "marker"
      },
      {
        "text": "Verse 1",
        "ticks": 3387,
        "type": "marker"
      }
    ],
    "name": "Magic",
    "ppq": 480,
    "tempos": [
      {
        "bpm": 150,
        "ticks": 0
      },
      {
        "bpm": 94.00012846684224,
        "ticks": 1800
      }
    ],
    "timeSignatures": [
      {
        "ticks": 0,
        "timeSignature": [
          4,
          4
        ],
        "measures": 0
      }
    ]
  },
  "tracks": [
    {
      "channel": 0,
      "controlChanges": {
        "0": [
          {
            "number": 0,
            "ticks": 481,
            "time": 0.4008333333333334,
            "value": 0
          }
        ],
        "6": [
          {
            "number": 6,
            "ticks": 502,
            "time": 0.4183333333333334,
            "value": 0.015748031496062992
          }
        ],
        "7": [
          {
            "number": 7,
            "ticks": 484,
            "time": 0.4033333333333333,
            "value": 0.7874015748031497
          }
        ],
        "10": [
          {
            "number": 10,
            "ticks": 485,
            "time": 0.40416666666666673,
            "value": 0.3464566929133858
          }
        ],
        "11": [
          {
            "number": 11,
            "ticks": 486,
            "time": 0.405,
            "value": 1
          }
        ],
        "32": [
          {
            "number": 32,
            "ticks": 482,
            "time": 0.40166666666666667,
            "value": 0
          }
        ],
        "91": [
          {
            "number": 91,
            "ticks": 487,
            "time": 0.4058333333333334,
            "value": 0.4330708661417323
          }
        ],
        "93": [
          {
            "number": 93,
            "ticks": 488,
            "time": 0.4066666666666667,
            "value": 0.15748031496062992
          }
        ],
        "100": [
          {
            "number": 100,
            "ticks": 498,
            "time": 0.41500000000000004,
            "value": 0
          },
          {
            "number": 100,
            "ticks": 510,
            "time": 0.42500000000000004,
            "value": 1
          }
        ],
        "101": [
          {
            "number": 101,
            "ticks": 494,
            "time": 0.4116666666666666,
            "value": 0
          },
          {
            "number": 101,
            "ticks": 506,
            "time": 0.4216666666666667,
            "value": 1
          }
        ]
      },
      "pitchBends": [],
      "instrument": {
        "family": "piano",
        "number": 0,
        "name": "acoustic grand piano"
      },
      "name": "Magic",
      "notes": [
        {
          "duration": 0.3909569125000001,
          "durationTicks": 294,
          "midi": 64,
          "name": "E4",
          "ticks": 1920,
          "time": 1.65957425,
          "velocity": 0.6692913385826772
        },
        {
          "duration": 0.4268611187500002,
          "durationTicks": 321,
          "midi": 71,
          "name": "B4",
          "ticks": 1920,
          "time": 1.65957425,
          "velocity": 0.6929133858267716
        },
        {
          "duration": 0.3497335645833335,
          "durationTicks": 263,
          "midi": 64,
          "name": "E4",
          "ticks": 2278,
          "time": 2.1356374291666667,
          "velocity": 0.6929133858267716
        },
        {
          "duration": 0.3404250666666666,
          "durationTicks": 256,
          "midi": 73,
          "name": "C#5",
          "ticks": 2279,
          "time": 2.1369672145833336,
          "velocity": 0.6929133858267716
        },
        {
          "duration": 1.2007962312499996,
          "durationTicks": 903,
          "midi": 64,
          "name": "E4",
          "ticks": 2638,
          "time": 2.614360179166667,
          "velocity": 0.6456692913385826
        },
        {
          "duration": 1.1702111666666664,
          "durationTicks": 880,
          "midi": 66,
          "name": "F#4",
          "ticks": 2639,
          "time": 2.6156899645833334,
          "velocity": 0.6850393700787402
        },
        {
          "duration": 1.1742005229166668,
          "durationTicks": 883,
          "midi": 69,
          "name": "A4",
          "ticks": 2639,
          "time": 2.6156899645833334,
          "velocity": 0.6771653543307087
        },
        {
          "duration": 2.7260601041666668,
          "durationTicks": 2050,
          "midi": 66,
          "name": "F#4",
          "ticks": 3600,
          "time": 3.89361375,
          "velocity": 0.6692913385826772
        },
        {
          "duration": 2.67685804375,
          "durationTicks": 2013,
          "midi": 62,
          "name": "D4",
          "ticks": 3602,
          "time": 3.8962733208333336,
          "velocity": 0.6535433070866141
        },
        {
          "duration": 0.4295206895833328,
          "durationTicks": 323,
          "midi": 74,
          "name": "D5",
          "ticks": 5758,
          "time": 6.7632906791666665,
          "velocity": 0.6929133858267716
        },
        {
          "duration": 0.40292498125,
          "durationTicks": 303,
          "midi": 64,
          "name": "E4",
          "ticks": 5759,
          "time": 6.764620464583333,
          "velocity": 0.6692913385826772
        },
        {
          "duration": 0.42420154791666587,
          "durationTicks": 319,
          "midi": 69,
          "name": "A4",
          "ticks": 5762,
          "time": 6.768609820833333,
          "velocity": 0.6692913385826772
        },
        {
          "duration": 0.47340360833333417,
          "durationTicks": 356,
          "midi": 64,
          "name": "E4",
          "ticks": 6118,
          "time": 7.242013429166667,
          "velocity": 0.6692913385826772
        },
        {
          "duration": 0.4720738229166672,
          "durationTicks": 355,
          "midi": 69,
          "name": "A4",
          "ticks": 6119,
          "time": 7.243343214583334,
          "velocity": 0.6692913385826772
        },
        {
          "duration": 0.4720738229166672,
          "durationTicks": 355,
          "midi": 73,
          "name": "C#5",
          "ticks": 6119,
          "time": 7.243343214583334,
          "velocity": 0.6850393700787402
        },
        {
          "duration": 4.039888095833333,
          "durationTicks": 3038,
          "midi": 68,
          "name": "G#4",
          "ticks": 6478,
          "time": 7.720736179166667,
          "velocity": 0.6614173228346457
        },
        {
          "duration": 3.9281861208333337,
          "durationTicks": 2954,
          "midi": 71,
          "name": "B4",
          "ticks": 6479,
          "time": 7.722065964583334,
          "velocity": 0.6850393700787402
        },
        {
          "duration": 4.045207237499999,
          "durationTicks": 3042,
          "midi": 64,
          "name": "E4",
          "ticks": 6482,
          "time": 7.726055320833333,
          "velocity": 0.6614173228346457
        },
        {
          "duration": 0.4109036937500008,
          "durationTicks": 309,
          "midi": 64,
          "name": "E4",
          "ticks": 9599,
          "time": 11.870996464583332,
          "velocity": 0.6692913385826772
        },
        {
          "duration": 0.4521270416666674,
          "durationTicks": 340,
          "midi": 68,
          "name": "G#4",
          "ticks": 9602,
          "time": 11.874985820833333,
          "velocity": 0.6456692913385826
        },
        {
          "duration": 0.34042506666666483,
          "durationTicks": 256,
          "midi": 69,
          "name": "A4",
          "ticks": 9958,
          "time": 12.348389429166668,
          "velocity": 0.6692913385826772
        },
        {
          "duration": 0.3470739937499996,
          "durationTicks": 261,
          "midi": 64,
          "name": "E4",
          "ticks": 9960,
          "time": 12.351049,
          "velocity": 0.6692913385826772
        },
        {
          "duration": 1.1941473041666661,
          "durationTicks": 898,
          "midi": 66,
          "name": "F#4",
          "ticks": 10320,
          "time": 12.82977175,
          "velocity": 0.6929133858267716
        },
        {
          "duration": 1.198136660416667,
          "durationTicks": 901,
          "midi": 64,
          "name": "E4",
          "ticks": 10320,
          "time": 12.82977175,
          "velocity": 0.6614173228346457
        },
        {
          "duration": 1.1888281625000001,
          "durationTicks": 894,
          "midi": 62,
          "name": "D4",
          "ticks": 10322,
          "time": 12.832431320833333,
          "velocity": 0.6692913385826772
        },
        {
          "duration": 2.579783708333334,
          "durationTicks": 1940,
          "midi": 62,
          "name": "D4",
          "ticks": 11279,
          "time": 14.105035964583333,
          "velocity": 0.6850393700787402
        },
        {
          "duration": 2.5837730645833314,
          "durationTicks": 1943,
          "midi": 64,
          "name": "E4",
          "ticks": 11282,
          "time": 14.109025320833334,
          "velocity": 0.6929133858267716
        },
        {
          "duration": 2.5864326354166653,
          "durationTicks": 1945,
          "midi": 66,
          "name": "F#4",
          "ticks": 11282,
          "time": 14.109025320833334,
          "velocity": 0.6456692913385826
        },
        {
          "duration": 0.11436154583333291,
          "durationTicks": 86,
          "midi": 64,
          "name": "E4",
          "ticks": 13424,
          "time": 16.957425683333334,
          "velocity": 0.6692913385826772
        },
        {
          "duration": 0.39494626875000094,
          "durationTicks": 297,
          "midi": 66,
          "name": "F#4",
          "ticks": 13439,
          "time": 16.977372464583333,
          "velocity": 0.6614173228346457
        },
        {
          "duration": 0.3962760541666661,
          "durationTicks": 298,
          "midi": 61,
          "name": "C#4",
          "ticks": 13439,
          "time": 16.977372464583333,
          "velocity": 0.6535433070866141
        },
        {
          "duration": 0.05186163124999865,
          "durationTicks": 39,
          "midi": 64,
          "name": "E4",
          "ticks": 13785,
          "time": 17.43747821875,
          "velocity": 0.6929133858267716
        },
        {
          "duration": 0.33776549583333093,
          "durationTicks": 254,
          "midi": 61,
          "name": "C#4",
          "ticks": 13798,
          "time": 17.454765429166667,
          "velocity": 0.6535433070866141
        },
        {
          "duration": 0.3710101312499994,
          "durationTicks": 279,
          "midi": 66,
          "name": "F#4",
          "ticks": 13799,
          "time": 17.456095214583332,
          "velocity": 0.6614173228346457
        },
        {
          "duration": 3.7366970208333363,
          "durationTicks": 2810,
          "midi": 64,
          "name": "E4",
          "ticks": 14159,
          "time": 17.93481796458333,
          "velocity": 0.6929133858267716
        },
        {
          "duration": 3.68217581875,
          "durationTicks": 2769,
          "midi": 59,
          "name": "B3",
          "ticks": 14159,
          "time": 17.93481796458333,
          "velocity": 0.6929133858267716
        },
        {
          "duration": 3.746005518750003,
          "durationTicks": 2817,
          "midi": 68,
          "name": "G#4",
          "ticks": 14159,
          "time": 17.93481796458333,
          "velocity": 0.6850393700787402
        },
        {
          "duration": 1.2686152875000012,
          "durationTicks": 954,
          "midi": 71,
          "name": "B4",
          "ticks": 17038,
          "time": 21.763270179166668,
          "velocity": 0.6850393700787402
        },
        {
          "duration": 1.260636575000003,
          "durationTicks": 948,
          "midi": 64,
          "name": "E4",
          "ticks": 17039,
          "time": 21.764599964583333,
          "velocity": 0.6614173228346457
        },
        {
          "duration": 1.2433493645833344,
          "durationTicks": 935,
          "midi": 61,
          "name": "C#4",
          "ticks": 17041,
          "time": 21.767259535416667,
          "velocity": 0.6456692913385826
        },
        {
          "duration": 1.2606365749999995,
          "durationTicks": 948,
          "midi": 66,
          "name": "F#4",
          "ticks": 17041,
          "time": 21.767259535416667,
          "velocity": 0.6771653543307087
        },
        {
          "duration": 1.2579770041666691,
          "durationTicks": 946,
          "midi": 68,
          "name": "G#4",
          "ticks": 17041,
          "time": 21.767259535416667,
          "velocity": 0.6771653543307087
        },
        {
          "duration": 3.658239681249995,
          "durationTicks": 2751,
          "midi": 66,
          "name": "F#4",
          "ticks": 17999,
          "time": 23.041193964583336,
          "velocity": 0.6929133858267716
        },
        {
          "duration": 3.667548179166662,
          "durationTicks": 2758,
          "midi": 62,
          "name": "D4",
          "ticks": 17999,
          "time": 23.041193964583336,
          "velocity": 0.6456692913385826
        },
        {
          "duration": 3.636963114583331,
          "durationTicks": 2735,
          "midi": 69,
          "name": "A4",
          "ticks": 18002,
          "time": 23.045183320833335,
          "velocity": 0.6456692913385826
        },
        {
          "duration": 1.1436154583333362,
          "durationTicks": 860,
          "midi": 62,
          "name": "D4",
          "ticks": 20878,
          "time": 26.869646179166665,
          "velocity": 0.6692913385826772
        },
        {
          "duration": 1.1343069604166693,
          "durationTicks": 853,
          "midi": 57,
          "name": "A3",
          "ticks": 20878,
          "time": 26.869646179166665,
          "velocity": 0.6614173228346457
        },
        {
          "duration": 1.168881381250003,
          "durationTicks": 879,
          "midi": 66,
          "name": "F#4",
          "ticks": 20878,
          "time": 26.869646179166665,
          "velocity": 0.6850393700787402
        },
        {
          "duration": 3.68217581875,
          "durationTicks": 2769,
          "midi": 68,
          "name": "G#4",
          "ticks": 21839,
          "time": 28.147569964583333,
          "velocity": 0.6771653543307087
        },
        {
          "duration": 3.68217581875,
          "durationTicks": 2769,
          "midi": 59,
          "name": "B3",
          "ticks": 21839,
          "time": 28.147569964583333,
          "velocity": 0.6535433070866141
        },
        {
          "duration": 3.6861651749999993,
          "durationTicks": 2772,
          "midi": 64,
          "name": "E4",
          "ticks": 21839,
          "time": 28.147569964583333,
          "velocity": 0.6535433070866141
        },
        {
          "duration": 1.1170197499999972,
          "durationTicks": 840,
          "midi": 68,
          "name": "G#4",
          "ticks": 24719,
          "time": 31.977351964583335,
          "velocity": 0.6771653543307087
        },
        {
          "duration": 1.135636745833331,
          "durationTicks": 854,
          "midi": 64,
          "name": "E4",
          "ticks": 24719,
          "time": 31.977351964583335,
          "velocity": 0.6771653543307087
        },
        {
          "duration": 1.109041037499999,
          "durationTicks": 834,
          "midi": 59,
          "name": "B3",
          "ticks": 24719,
          "time": 31.977351964583335,
          "velocity": 0.6929133858267716
        },
        {
          "duration": 3.670207749999996,
          "durationTicks": 2760,
          "midi": 62,
          "name": "D4",
          "ticks": 25679,
          "time": 33.25394596458334,
          "velocity": 0.6929133858267716
        },
        {
          "duration": 3.65690989583333,
          "durationTicks": 2750,
          "midi": 66,
          "name": "F#4",
          "ticks": 25679,
          "time": 33.25394596458334,
          "velocity": 0.6614173228346457
        },
        {
          "duration": 3.644941827083329,
          "durationTicks": 2741,
          "midi": 69,
          "name": "A4",
          "ticks": 25681,
          "time": 33.25660553541667,
          "velocity": 0.6771653543307087
        },
        {
          "duration": 1.1316473895833283,
          "durationTicks": 851,
          "midi": 66,
          "name": "F#4",
          "ticks": 28558,
          "time": 37.08239817916667,
          "velocity": 0.6535433070866141
        },
        {
          "duration": 1.101062325000001,
          "durationTicks": 828,
          "midi": 57,
          "name": "A3",
          "ticks": 28558,
          "time": 37.08239817916667,
          "velocity": 0.6929133858267716
        },
        {
          "duration": 1.1183495354166695,
          "durationTicks": 841,
          "midi": 62,
          "name": "D4",
          "ticks": 28558,
          "time": 37.08239817916667,
          "velocity": 0.6456692913385826
        },
        {
          "duration": 3.6276546166666677,
          "durationTicks": 2728,
          "midi": 59,
          "name": "B3",
          "ticks": 29519,
          "time": 38.360321964583335,
          "velocity": 0.6692913385826772
        },
        {
          "duration": 3.631643972916663,
          "durationTicks": 2731,
          "midi": 68,
          "name": "G#4",
          "ticks": 29519,
          "time": 38.360321964583335,
          "velocity": 0.6692913385826772
        },
        {
          "duration": 3.635633329166666,
          "durationTicks": 2734,
          "midi": 64,
          "name": "E4",
          "ticks": 29519,
          "time": 38.360321964583335,
          "velocity": 0.6535433070866141
        },
        {
          "duration": 1.3603704812499942,
          "durationTicks": 1023,
          "midi": 59,
          "name": "B3",
          "ticks": 32399,
          "time": 42.19010396458334,
          "velocity": 0.6614173228346457
        },
        {
          "duration": 1.3417534854166675,
          "durationTicks": 1009,
          "midi": 68,
          "name": "G#4",
          "ticks": 32400,
          "time": 42.19143375,
          "velocity": 0.6692913385826772
        },
        {
          "duration": 1.3577109104166638,
          "durationTicks": 1021,
          "midi": 64,
          "name": "E4",
          "ticks": 32400,
          "time": 42.19143375,
          "velocity": 0.6929133858267716
        },
        {
          "duration": 3.6130269770833294,
          "durationTicks": 2717,
          "midi": 57,
          "name": "A3",
          "ticks": 33600,
          "time": 43.78717625,
          "velocity": 0.6456692913385826
        },
        {
          "duration": 0.9215412937499963,
          "durationTicks": 693,
          "midi": 66,
          "name": "F#4",
          "ticks": 33600,
          "time": 43.78717625,
          "velocity": 0.6850393700787402
        },
        {
          "duration": 3.6130269770833294,
          "durationTicks": 2717,
          "midi": 62,
          "name": "D4",
          "ticks": 33600,
          "time": 43.78717625,
          "velocity": 0.6692913385826772
        },
        {
          "duration": 2.656911262499996,
          "durationTicks": 1998,
          "midi": 64,
          "name": "E4",
          "ticks": 34319,
          "time": 44.743291964583335,
          "velocity": 0.6692913385826772
        },
        {
          "duration": 0.8470733104166683,
          "durationTicks": 637,
          "midi": 57,
          "name": "A3",
          "ticks": 36478,
          "time": 47.614298679166666,
          "velocity": 0.6614173228346457
        },
        {
          "duration": 0.8736690187500002,
          "durationTicks": 657,
          "midi": 64,
          "name": "E4",
          "ticks": 36478,
          "time": 47.614298679166666,
          "velocity": 0.6771653543307087
        },
        {
          "duration": 0.8590413791666691,
          "durationTicks": 646,
          "midi": 61,
          "name": "C#4",
          "ticks": 36478,
          "time": 47.614298679166666,
          "velocity": 0.6535433070866141
        },
        {
          "duration": 4.027920027083333,
          "durationTicks": 3029,
          "midi": 59,
          "name": "B3",
          "ticks": 37199,
          "time": 48.57307396458334,
          "velocity": 0.6850393700787402
        },
        {
          "duration": 4.025260456249995,
          "durationTicks": 3027,
          "midi": 68,
          "name": "G#4",
          "ticks": 37199,
          "time": 48.57307396458334,
          "velocity": 0.6929133858267716
        },
        {
          "duration": 4.0332391687499936,
          "durationTicks": 3033,
          "midi": 64,
          "name": "E4",
          "ticks": 37199,
          "time": 48.57307396458334,
          "velocity": 0.6692913385826772
        }
      ],
      "endOfTrackTicks": 40320
    },
    {
      "channel": 0,
      "controlChanges": {
        "0": [
          {
            "number": 0,
            "ticks": 489,
            "time": 0.40750000000000003,
            "value": 0
          }
        ],
        "32": [
          {
            "number": 32,
            "ticks": 490,
            "time": 0.4083333333333333,
            "value": 0
          }
        ]
      },
      "pitchBends": [],
      "instrument": {
        "family": "piano",
        "number": 0,
        "name": "acoustic grand piano"
      },
      "name": "",
      "notes": []
    },
    {
      "channel": 1,
      "controlChanges": {
        "6": [
          {
            "number": 6,
            "ticks": 510,
            "time": 0.42500000000000004,
            "value": 0.015748031496062992
          }
        ],
        "7": [
          {
            "number": 7,
            "ticks": 492,
            "time": 0.41,
            "value": 0.8661417322834646
          }
        ],
        "10": [
          {
            "number": 10,
            "ticks": 493,
            "time": 0.4108333333333334,
            "value": 0.5039370078740157
          }
        ],
        "11": [
          {
            "number": 11,
            "ticks": 494,
            "time": 0.4116666666666666,
            "value": 1
          }
        ],
        "91": [
          {
            "number": 91,
            "ticks": 495,
            "time": 0.41250000000000003,
            "value": 0.4330708661417323
          }
        ],
        "93": [
          {
            "number": 93,
            "ticks": 496,
            "time": 0.4133333333333334,
            "value": 0.07874015748031496
          }
        ],
        "100": [
          {
            "number": 100,
            "ticks": 506,
            "time": 0.4216666666666667,
            "value": 0
          },
          {
            "number": 100,
            "ticks": 518,
            "time": 0.43166666666666664,
            "value": 1
          }
        ],
        "101": [
          {
            "number": 101,
            "ticks": 502,
            "time": 0.4183333333333334,
            "value": 0
          },
          {
            "number": 101,
            "ticks": 514,
            "time": 0.42833333333333334,
            "value": 1
          }
        ]
      },
      "pitchBends": [],
      "instrument": {
        "family": "bass",
        "number": 39,
        "name": "synth bass 2"
      },
      "name": "",
      "notes": [
        {
          "duration": 0.5864353687500001,
          "durationTicks": 441,
          "midi": 37,
          "name": "C#2",
          "ticks": 1920,
          "time": 1.65957425,
          "velocity": 0.6535433070866141
        },
        {
          "duration": 0.28324429375000015,
          "durationTicks": 213,
          "midi": 37,
          "name": "C#2",
          "ticks": 2399,
          "time": 2.296541464583333,
          "velocity": 0.6456692913385826
        },
        {
          "duration": 0.23803158958333315,
          "durationTicks": 179,
          "midi": 38,
          "name": "D2",
          "ticks": 2639,
          "time": 2.6156899645833334,
          "velocity": 0.6456692913385826
        },
        {
          "duration": 0.5731375145833333,
          "durationTicks": 431,
          "midi": 38,
          "name": "D2",
          "ticks": 2879,
          "time": 2.9348384645833336,
          "velocity": 0.6929133858267716
        },
        {
          "duration": 0.5598396604166664,
          "durationTicks": 421,
          "midi": 38,
          "name": "D2",
          "ticks": 3359,
          "time": 3.5731354645833333,
          "velocity": 0.6692913385826772
        },
        {
          "duration": 0.5837757979166653,
          "durationTicks": 439,
          "midi": 38,
          "name": "D2",
          "ticks": 3839,
          "time": 4.211432464583334,
          "velocity": 0.6771653543307087
        },
        {
          "duration": 0.5611694458333334,
          "durationTicks": 422,
          "midi": 38,
          "name": "D2",
          "ticks": 4318,
          "time": 4.848399679166667,
          "velocity": 0.6929133858267716
        },
        {
          "duration": 0.5704779437499994,
          "durationTicks": 429,
          "midi": 38,
          "name": "D2",
          "ticks": 4800,
          "time": 5.48935625,
          "velocity": 0.6929133858267716
        },
        {
          "duration": 0.6795203479166663,
          "durationTicks": 511,
          "midi": 38,
          "name": "D2",
          "ticks": 5279,
          "time": 6.126323464583334,
          "velocity": 0.6456692913385826
        },
        {
          "duration": 0.5571800895833334,
          "durationTicks": 419,
          "midi": 33,
          "name": "A1",
          "ticks": 5759,
          "time": 6.764620464583333,
          "velocity": 0.6456692913385826
        },
        {
          "duration": 0.3351059250000006,
          "durationTicks": 252,
          "midi": 33,
          "name": "A1",
          "ticks": 6239,
          "time": 7.402917464583333,
          "velocity": 0.6535433070866141
        },
        {
          "duration": 0.2925527916666679,
          "durationTicks": 220,
          "midi": 40,
          "name": "E2",
          "ticks": 6479,
          "time": 7.722065964583334,
          "velocity": 0.6850393700787402
        },
        {
          "duration": 0.579786441666668,
          "durationTicks": 436,
          "midi": 40,
          "name": "E2",
          "ticks": 6720,
          "time": 8.042544249999999,
          "velocity": 0.6456692913385826
        },
        {
          "duration": 0.5797864416666663,
          "durationTicks": 436,
          "midi": 40,
          "name": "E2",
          "ticks": 7199,
          "time": 8.679511464583333,
          "velocity": 0.6692913385826772
        },
        {
          "duration": 0.5691481583333324,
          "durationTicks": 428,
          "midi": 40,
          "name": "E2",
          "ticks": 7679,
          "time": 9.317808464583333,
          "velocity": 0.6456692913385826
        },
        {
          "duration": 0.5731375145833333,
          "durationTicks": 431,
          "midi": 40,
          "name": "E2",
          "ticks": 8160,
          "time": 9.95743525,
          "velocity": 0.6692913385826772
        },
        {
          "duration": 0.5611694458333325,
          "durationTicks": 422,
          "midi": 40,
          "name": "E2",
          "ticks": 8639,
          "time": 10.594402464583334,
          "velocity": 0.6850393700787402
        },
        {
          "duration": 0.6728714208333315,
          "durationTicks": 506,
          "midi": 40,
          "name": "E2",
          "ticks": 9119,
          "time": 11.232699464583334,
          "velocity": 0.6614173228346457
        },
        {
          "duration": 0.5718077291666681,
          "durationTicks": 430,
          "midi": 37,
          "name": "C#2",
          "ticks": 9599,
          "time": 11.870996464583332,
          "velocity": 0.6771653543307087
        },
        {
          "duration": 0.3045208604166678,
          "durationTicks": 229,
          "midi": 37,
          "name": "C#2",
          "ticks": 10079,
          "time": 12.509293464583333,
          "velocity": 0.6535433070866141
        },
        {
          "duration": 0.2526592291666656,
          "durationTicks": 190,
          "midi": 38,
          "name": "D2",
          "ticks": 10320,
          "time": 12.82977175,
          "velocity": 0.6692913385826772
        },
        {
          "duration": 0.591754510416667,
          "durationTicks": 445,
          "midi": 38,
          "name": "D2",
          "ticks": 10560,
          "time": 13.14892025,
          "velocity": 0.6456692913385826
        },
        {
          "duration": 0.5731375145833351,
          "durationTicks": 431,
          "midi": 38,
          "name": "D2",
          "ticks": 11040,
          "time": 13.78721725,
          "velocity": 0.6535433070866141
        },
        {
          "duration": 0.5478715916666665,
          "durationTicks": 412,
          "midi": 38,
          "name": "D2",
          "ticks": 11520,
          "time": 14.42551425,
          "velocity": 0.6614173228346457
        },
        {
          "duration": 0.5226056687500016,
          "durationTicks": 393,
          "midi": 38,
          "name": "D2",
          "ticks": 11999,
          "time": 15.062481464583332,
          "velocity": 0.6929133858267716
        },
        {
          "duration": 0.5784566562499993,
          "durationTicks": 435,
          "midi": 38,
          "name": "D2",
          "ticks": 12480,
          "time": 15.70210825,
          "velocity": 0.6692913385826772
        },
        {
          "duration": 0.6303182875000033,
          "durationTicks": 474,
          "midi": 38,
          "name": "D2",
          "ticks": 12959,
          "time": 16.33907546458333,
          "velocity": 0.6692913385826772
        },
        {
          "duration": 0.5930842958333322,
          "durationTicks": 446,
          "midi": 33,
          "name": "A1",
          "ticks": 13439,
          "time": 16.977372464583333,
          "velocity": 0.6614173228346457
        },
        {
          "duration": 0.3364357104166693,
          "durationTicks": 253,
          "midi": 33,
          "name": "A1",
          "ticks": 13920,
          "time": 17.61699925,
          "velocity": 0.6771653543307087
        },
        {
          "duration": 0.27659536666666895,
          "durationTicks": 208,
          "midi": 40,
          "name": "E2",
          "ticks": 14159,
          "time": 17.93481796458333,
          "velocity": 0.6850393700787402
        },
        {
          "duration": 0.4986695312500018,
          "durationTicks": 375,
          "midi": 40,
          "name": "E2",
          "ticks": 14399,
          "time": 18.253966464583332,
          "velocity": 0.6771653543307087
        },
        {
          "duration": 0.5651588020833316,
          "durationTicks": 425,
          "midi": 40,
          "name": "E2",
          "ticks": 14879,
          "time": 18.892263464583333,
          "velocity": 0.6692913385826772
        },
        {
          "duration": 0.493350389583334,
          "durationTicks": 371,
          "midi": 40,
          "name": "E2",
          "ticks": 15360,
          "time": 19.53189025,
          "velocity": 0.6535433070866141
        },
        {
          "duration": 0.5292545958333363,
          "durationTicks": 398,
          "midi": 40,
          "name": "E2",
          "ticks": 15839,
          "time": 20.168857464583333,
          "velocity": 0.6929133858267716
        },
        {
          "duration": 1.2712748583333386,
          "durationTicks": 956,
          "midi": 40,
          "name": "E2",
          "ticks": 16319,
          "time": 20.80715446458333,
          "velocity": 0.6929133858267716
        },
        {
          "duration": 0.47340360833333506,
          "durationTicks": 356,
          "midi": 37,
          "name": "C#2",
          "ticks": 17279,
          "time": 22.083748464583334,
          "velocity": 0.6614173228346457
        },
        {
          "duration": 0.4734036083333315,
          "durationTicks": 356,
          "midi": 37,
          "name": "C#2",
          "ticks": 17640,
          "time": 22.563801,
          "velocity": 0.6535433070866141
        },
        {
          "duration": 3.639622685416665,
          "durationTicks": 2737,
          "midi": 38,
          "name": "D2",
          "ticks": 17999,
          "time": 23.041193964583336,
          "velocity": 0.6614173228346457
        },
        {
          "duration": 0.30718043124999994,
          "durationTicks": 231,
          "midi": 38,
          "name": "D2",
          "ticks": 20878,
          "time": 26.869646179166665,
          "velocity": 0.6850393700787402
        },
        {
          "duration": 0.5624992312500012,
          "durationTicks": 423,
          "midi": 33,
          "name": "A1",
          "ticks": 21120,
          "time": 27.19145425,
          "velocity": 0.6850393700787402
        },
        {
          "duration": 0.3018612895833286,
          "durationTicks": 227,
          "midi": 33,
          "name": "A1",
          "ticks": 21599,
          "time": 27.828421464583336,
          "velocity": 0.6929133858267716
        },
        {
          "duration": 4.143611358333338,
          "durationTicks": 3116,
          "midi": 40,
          "name": "E2",
          "ticks": 21839,
          "time": 28.147569964583333,
          "velocity": 0.6614173228346457
        },
        {
          "duration": 0.561169445833329,
          "durationTicks": 422,
          "midi": 37,
          "name": "C#2",
          "ticks": 24959,
          "time": 32.29650046458333,
          "velocity": 0.6692913385826772
        },
        {
          "duration": 0.26595708333333334,
          "durationTicks": 200,
          "midi": 37,
          "name": "C#2",
          "ticks": 25440,
          "time": 32.93612725,
          "velocity": 0.6692913385826772
        },
        {
          "duration": 3.664888608333328,
          "durationTicks": 2756,
          "midi": 38,
          "name": "D2",
          "ticks": 25679,
          "time": 33.25394596458334,
          "velocity": 0.6692913385826772
        },
        {
          "duration": 0.2859038645833323,
          "durationTicks": 215,
          "midi": 38,
          "name": "D2",
          "ticks": 28558,
          "time": 37.08239817916667,
          "velocity": 0.6771653543307087
        },
        {
          "duration": 0.5585098749999986,
          "durationTicks": 420,
          "midi": 33,
          "name": "A1",
          "ticks": 28801,
          "time": 37.40553603541667,
          "velocity": 0.6614173228346457
        },
        {
          "duration": 0.2619677270833307,
          "durationTicks": 197,
          "midi": 33,
          "name": "A1",
          "ticks": 29279,
          "time": 38.04117346458334,
          "velocity": 0.6929133858267716
        },
        {
          "duration": 4.109036937500001,
          "durationTicks": 3090,
          "midi": 40,
          "name": "E2",
          "ticks": 29519,
          "time": 38.360321964583335,
          "velocity": 0.6771653543307087
        },
        {
          "duration": 0.5624992312499941,
          "durationTicks": 423,
          "midi": 37,
          "name": "C#2",
          "ticks": 32639,
          "time": 42.509252464583334,
          "velocity": 0.6692913385826772
        },
        {
          "duration": 0.24468051666666213,
          "durationTicks": 184,
          "midi": 37,
          "name": "C#2",
          "ticks": 33119,
          "time": 43.147549464583335,
          "velocity": 0.6692913385826772
        },
        {
          "duration": 3.642282256249999,
          "durationTicks": 2739,
          "midi": 38,
          "name": "D2",
          "ticks": 33359,
          "time": 43.46669796458333,
          "velocity": 0.6456692913385826
        },
        {
          "duration": 0.30319107500000086,
          "durationTicks": 228,
          "midi": 38,
          "name": "D2",
          "ticks": 36239,
          "time": 47.296479964583334,
          "velocity": 0.6614173228346457
        },
        {
          "duration": 0.5359035229166622,
          "durationTicks": 403,
          "midi": 33,
          "name": "A1",
          "ticks": 36478,
          "time": 47.614298679166666,
          "velocity": 0.6692913385826772
        },
        {
          "duration": 0.24468051666667634,
          "durationTicks": 184,
          "midi": 33,
          "name": "A1",
          "ticks": 36960,
          "time": 48.25525525,
          "velocity": 0.6456692913385826
        },
        {
          "duration": 4.111696508333331,
          "durationTicks": 3092,
          "midi": 40,
          "name": "E2",
          "ticks": 37199,
          "time": 48.57307396458334,
          "velocity": 0.6850393700787402
        }
      ]
    },
    {
      "channel": 0,
      "controlChanges": {
        "0": [
          {
            "number": 0,
            "ticks": 497,
            "time": 0.4141666666666667,
            "value": 0
          }
        ],
        "32": [
          {
            "number": 32,
            "ticks": 498,
            "time": 0.41500000000000004,
            "value": 0
          }
        ]
      },
      "pitchBends": [],
      "instrument": {
        "family": "piano",
        "number": 0,
        "name": "acoustic grand piano"
      },
      "name": "",
      "notes": []
    },
    {
      "channel": 2,
      "controlChanges": {
        "6": [
          {
            "number": 6,
            "ticks": 632,
            "time": 0.5266666666666667,
            "value": 0.015748031496062992
          }
        ],
        "7": [
          {
            "number": 7,
            "ticks": 500,
            "time": 0.41666666666666674,
            "value": 0.5511811023622047
          }
        ],
        "10": [
          {
            "number": 10,
            "ticks": 501,
            "time": 0.4175,
            "value": 0.5039370078740157
          }
        ],
        "11": [
          {
            "number": 11,
            "ticks": 502,
            "time": 0.4183333333333334,
            "value": 1
          }
        ],
        "91": [
          {
            "number": 91,
            "ticks": 503,
            "time": 0.4191666666666667,
            "value": 0.7874015748031497
          }
        ],
        "93": [
          {
            "number": 93,
            "ticks": 504,
            "time": 0.42000000000000004,
            "value": 0.15748031496062992
          }
        ],
        "100": [
          {
            "number": 100,
            "ticks": 628,
            "time": 0.5233333333333333,
            "value": 0
          },
          {
            "number": 100,
            "ticks": 640,
            "time": 0.5333333333333333,
            "value": 1
          }
        ],
        "101": [
          {
            "number": 101,
            "ticks": 624,
            "time": 0.52,
            "value": 0
          },
          {
            "number": 101,
            "ticks": 636,
            "time": 0.53,
            "value": 1
          }
        ]
      },
      "pitchBends": [],
      "instrument": {
        "family": "guitar",
        "number": 26,
        "name": "electric guitar (jazz)"
      },
      "name": "",
      "notes": [
        {
          "duration": 0.4734036083333333,
          "durationTicks": 356,
          "midi": 52,
          "name": "E3",
          "ticks": 1920,
          "time": 1.65957425,
          "velocity": 0.5905511811023622
        },
        {
          "duration": 0.6343076437500001,
          "durationTicks": 477,
          "midi": 49,
          "name": "C#3",
          "ticks": 1920,
          "time": 1.65957425,
          "velocity": 0.3464566929133858
        },
        {
          "duration": 0.154255108333333,
          "durationTicks": 116,
          "midi": 52,
          "name": "E3",
          "ticks": 2280,
          "time": 2.138297,
          "velocity": 0.5826771653543307
        },
        {
          "duration": 0.3138293583333338,
          "durationTicks": 236,
          "midi": 52,
          "name": "E3",
          "ticks": 2399,
          "time": 2.296541464583333,
          "velocity": 0.5669291338582677
        },
        {
          "duration": 0.3151591437500003,
          "durationTicks": 237,
          "midi": 49,
          "name": "C#3",
          "ticks": 2399,
          "time": 2.296541464583333,
          "velocity": 0.3543307086614173
        },
        {
          "duration": 0.26728686874999985,
          "durationTicks": 201,
          "midi": 50,
          "name": "D3",
          "ticks": 2639,
          "time": 2.6156899645833334,
          "velocity": 0.3464566929133858
        },
        {
          "duration": 0.3151591437500003,
          "durationTicks": 237,
          "midi": 54,
          "name": "F#3",
          "ticks": 2639,
          "time": 2.6156899645833334,
          "velocity": 0.5905511811023622
        },
        {
          "duration": 0.15425510833333345,
          "durationTicks": 116,
          "midi": 54,
          "name": "F#3",
          "ticks": 2879,
          "time": 2.9348384645833336,
          "velocity": 0.5748031496062992
        },
        {
          "duration": 0.6343076437499997,
          "durationTicks": 477,
          "midi": 50,
          "name": "D3",
          "ticks": 2879,
          "time": 2.9348384645833336,
          "velocity": 0.33070866141732286
        },
        {
          "duration": 0.4734036083333337,
          "durationTicks": 356,
          "midi": 54,
          "name": "F#3",
          "ticks": 2999,
          "time": 3.094412714583333,
          "velocity": 0.6141732283464567
        },
        {
          "duration": 0.6343076437499997,
          "durationTicks": 477,
          "midi": 50,
          "name": "D3",
          "ticks": 3359,
          "time": 3.5731354645833333,
          "velocity": 0.3700787401574803
        },
        {
          "duration": 0.47473339375000023,
          "durationTicks": 357,
          "midi": 54,
          "name": "F#3",
          "ticks": 3359,
          "time": 3.5731354645833333,
          "velocity": 0.5748031496062992
        },
        {
          "duration": 0.4734036083333333,
          "durationTicks": 356,
          "midi": 54,
          "name": "F#3",
          "ticks": 3719,
          "time": 4.0518582145833335,
          "velocity": 0.6141732283464567
        },
        {
          "duration": 0.6329778583333328,
          "durationTicks": 476,
          "midi": 50,
          "name": "D3",
          "ticks": 3839,
          "time": 4.211432464583334,
          "velocity": 0.3464566929133858
        },
        {
          "duration": 0.4734036083333333,
          "durationTicks": 356,
          "midi": 54,
          "name": "F#3",
          "ticks": 4080,
          "time": 4.53191075,
          "velocity": 0.6062992125984252
        },
        {
          "duration": 0.6316480729166667,
          "durationTicks": 475,
          "midi": 50,
          "name": "D3",
          "ticks": 4321,
          "time": 4.8523890354166666,
          "velocity": 0.33070866141732286
        },
        {
          "duration": 0.4734036083333333,
          "durationTicks": 356,
          "midi": 54,
          "name": "F#3",
          "ticks": 4440,
          "time": 5.0106335,
          "velocity": 0.5669291338582677
        },
        {
          "duration": 0.6329778583333328,
          "durationTicks": 476,
          "midi": 50,
          "name": "D3",
          "ticks": 4800,
          "time": 5.48935625,
          "velocity": 0.3779527559055118
        },
        {
          "duration": 0.4734036083333333,
          "durationTicks": 356,
          "midi": 54,
          "name": "F#3",
          "ticks": 4800,
          "time": 5.48935625,
          "velocity": 0.5905511811023622
        },
        {
          "duration": 0.47340360833333417,
          "durationTicks": 356,
          "midi": 54,
          "name": "F#3",
          "ticks": 5161,
          "time": 5.969408785416666,
          "velocity": 0.5984251968503937
        },
        {
          "duration": 0.6329778583333336,
          "durationTicks": 476,
          "midi": 50,
          "name": "D3",
          "ticks": 5279,
          "time": 6.126323464583334,
          "velocity": 0.3779527559055118
        },
        {
          "duration": 0.3138293583333338,
          "durationTicks": 236,
          "midi": 54,
          "name": "F#3",
          "ticks": 5519,
          "time": 6.445471964583334,
          "velocity": 0.6062992125984252
        },
        {
          "duration": 0.47473339375000023,
          "durationTicks": 357,
          "midi": 49,
          "name": "C#3",
          "ticks": 5759,
          "time": 6.764620464583333,
          "velocity": 0.6141732283464567
        },
        {
          "duration": 0.6356374291666667,
          "durationTicks": 478,
          "midi": 45,
          "name": "A2",
          "ticks": 5759,
          "time": 6.764620464583333,
          "velocity": 0.33070866141732286
        },
        {
          "duration": 0.4720738229166672,
          "durationTicks": 355,
          "midi": 49,
          "name": "C#3",
          "ticks": 6119,
          "time": 7.243343214583334,
          "velocity": 0.5748031496062992
        },
        {
          "duration": 0.31249957291666774,
          "durationTicks": 235,
          "midi": 45,
          "name": "A2",
          "ticks": 6239,
          "time": 7.402917464583333,
          "velocity": 0.3779527559055118
        },
        {
          "duration": 0.47340360833333417,
          "durationTicks": 356,
          "midi": 56,
          "name": "G#3",
          "ticks": 6479,
          "time": 7.722065964583334,
          "velocity": 0.5669291338582677
        },
        {
          "duration": 0.31515914375000076,
          "durationTicks": 237,
          "midi": 52,
          "name": "E3",
          "ticks": 6479,
          "time": 7.722065964583334,
          "velocity": 0.33070866141732286
        },
        {
          "duration": 0.6329778583333336,
          "durationTicks": 476,
          "midi": 52,
          "name": "E3",
          "ticks": 6720,
          "time": 8.042544249999999,
          "velocity": 0.3543307086614173
        },
        {
          "duration": 0.4734036083333315,
          "durationTicks": 356,
          "midi": 56,
          "name": "G#3",
          "ticks": 6840,
          "time": 8.202118500000001,
          "velocity": 0.6062992125984252
        },
        {
          "duration": 0.6343076437500006,
          "durationTicks": 477,
          "midi": 52,
          "name": "E3",
          "ticks": 7199,
          "time": 8.679511464583333,
          "velocity": 0.33858267716535434
        },
        {
          "duration": 0.47473339375000023,
          "durationTicks": 357,
          "midi": 56,
          "name": "G#3",
          "ticks": 7199,
          "time": 8.679511464583333,
          "velocity": 0.5669291338582677
        },
        {
          "duration": 0.4734036083333333,
          "durationTicks": 356,
          "midi": 56,
          "name": "G#3",
          "ticks": 7560,
          "time": 9.159564,
          "velocity": 0.5669291338582677
        },
        {
          "duration": 0.6343076437500006,
          "durationTicks": 477,
          "midi": 52,
          "name": "E3",
          "ticks": 7679,
          "time": 9.317808464583333,
          "velocity": 0.3543307086614173
        },
        {
          "duration": 0.4734036083333333,
          "durationTicks": 356,
          "midi": 56,
          "name": "G#3",
          "ticks": 7919,
          "time": 9.636956964583334,
          "velocity": 0.5826771653543307
        },
        {
          "duration": 0.6329778583333336,
          "durationTicks": 476,
          "midi": 52,
          "name": "E3",
          "ticks": 8160,
          "time": 9.95743525,
          "velocity": 0.33070866141732286
        },
        {
          "duration": 0.4734036083333333,
          "durationTicks": 356,
          "midi": 56,
          "name": "G#3",
          "ticks": 8280,
          "time": 10.1170095,
          "velocity": 0.5748031496062992
        },
        {
          "duration": 0.6329778583333336,
          "durationTicks": 476,
          "midi": 52,
          "name": "E3",
          "ticks": 8639,
          "time": 10.594402464583334,
          "velocity": 0.33070866141732286
        },
        {
          "duration": 0.4734036083333333,
          "durationTicks": 356,
          "midi": 56,
          "name": "G#3",
          "ticks": 8641,
          "time": 10.597062035416666,
          "velocity": 0.6141732283464567
        },
        {
          "duration": 0.4734036083333333,
          "durationTicks": 356,
          "midi": 56,
          "name": "G#3",
          "ticks": 9001,
          "time": 11.075784785416667,
          "velocity": 0.6141732283464567
        },
        {
          "duration": 0.6329778583333319,
          "durationTicks": 476,
          "midi": 52,
          "name": "E3",
          "ticks": 9119,
          "time": 11.232699464583334,
          "velocity": 0.3779527559055118
        },
        {
          "duration": 0.3138293583333329,
          "durationTicks": 236,
          "midi": 56,
          "name": "G#3",
          "ticks": 9359,
          "time": 11.551847964583333,
          "velocity": 0.5905511811023622
        },
        {
          "duration": 0.6329778583333336,
          "durationTicks": 476,
          "midi": 49,
          "name": "C#3",
          "ticks": 9599,
          "time": 11.870996464583332,
          "velocity": 0.33070866141732286
        },
        {
          "duration": 0.474733393750002,
          "durationTicks": 357,
          "midi": 52,
          "name": "E3",
          "ticks": 9599,
          "time": 11.870996464583332,
          "velocity": 0.5669291338582677
        },
        {
          "duration": 0.1529253229166656,
          "durationTicks": 115,
          "midi": 52,
          "name": "E3",
          "ticks": 9960,
          "time": 12.351049,
          "velocity": 0.6141732283464567
        },
        {
          "duration": 0.3138293583333329,
          "durationTicks": 236,
          "midi": 49,
          "name": "C#3",
          "ticks": 10079,
          "time": 12.509293464583333,
          "velocity": 0.3543307086614173
        },
        {
          "duration": 0.3138293583333329,
          "durationTicks": 236,
          "midi": 52,
          "name": "E3",
          "ticks": 10079,
          "time": 12.509293464583333,
          "velocity": 0.5748031496062992
        },
        {
          "duration": 0.31249957291666597,
          "durationTicks": 235,
          "midi": 50,
          "name": "D3",
          "ticks": 10320,
          "time": 12.82977175,
          "velocity": 0.33070866141732286
        },
        {
          "duration": 0.47207382291666455,
          "durationTicks": 355,
          "midi": 54,
          "name": "F#3",
          "ticks": 10320,
          "time": 12.82977175,
          "velocity": 0.5748031496062992
        },
        {
          "duration": 0.6329778583333336,
          "durationTicks": 476,
          "midi": 50,
          "name": "D3",
          "ticks": 10559,
          "time": 13.147590464583333,
          "velocity": 0.33070866141732286
        },
        {
          "duration": 0.4734036083333333,
          "durationTicks": 356,
          "midi": 54,
          "name": "F#3",
          "ticks": 10680,
          "time": 13.3084945,
          "velocity": 0.5826771653543307
        },
        {
          "duration": 0.6329778583333336,
          "durationTicks": 476,
          "midi": 50,
          "name": "D3",
          "ticks": 11039,
          "time": 13.785887464583332,
          "velocity": 0.33070866141732286
        },
        {
          "duration": 0.47340360833333506,
          "durationTicks": 356,
          "midi": 54,
          "name": "F#3",
          "ticks": 11040,
          "time": 13.78721725,
          "velocity": 0.5905511811023622
        },
        {
          "duration": 0.47340360833333506,
          "durationTicks": 356,
          "midi": 54,
          "name": "F#3",
          "ticks": 11399,
          "time": 14.264610214583332,
          "velocity": 0.5669291338582677
        },
        {
          "duration": 0.6329778583333336,
          "durationTicks": 476,
          "midi": 50,
          "name": "D3",
          "ticks": 11520,
          "time": 14.42551425,
          "velocity": 0.33070866141732286
        },
        {
          "duration": 0.4734036083333333,
          "durationTicks": 356,
          "midi": 54,
          "name": "F#3",
          "ticks": 11760,
          "time": 14.74466275,
          "velocity": 0.5984251968503937
        },
        {
          "duration": 0.6316480729166649,
          "durationTicks": 475,
          "midi": 50,
          "name": "D3",
          "ticks": 12000,
          "time": 15.06381125,
          "velocity": 0.36220472440944884
        },
        {
          "duration": 0.4734036083333333,
          "durationTicks": 356,
          "midi": 54,
          "name": "F#3",
          "ticks": 12119,
          "time": 15.222055714583332,
          "velocity": 0.6062992125984252
        },
        {
          "duration": 0.6329778583333319,
          "durationTicks": 476,
          "midi": 50,
          "name": "D3",
          "ticks": 12479,
          "time": 15.700778464583331,
          "velocity": 0.3464566929133858
        },
        {
          "duration": 0.47473339374999846,
          "durationTicks": 357,
          "midi": 54,
          "name": "F#3",
          "ticks": 12480,
          "time": 15.70210825,
          "velocity": 0.5748031496062992
        },
        {
          "duration": 0.47473339375000023,
          "durationTicks": 357,
          "midi": 54,
          "name": "F#3",
          "ticks": 12839,
          "time": 16.179501214583333,
          "velocity": 0.5984251968503937
        },
        {
          "duration": 0.6343076437500024,
          "durationTicks": 477,
          "midi": 50,
          "name": "D3",
          "ticks": 12959,
          "time": 16.33907546458333,
          "velocity": 0.3464566929133858
        },
        {
          "duration": 0.3138293583333329,
          "durationTicks": 236,
          "midi": 54,
          "name": "F#3",
          "ticks": 13200,
          "time": 16.65955375,
          "velocity": 0.6062992125984252
        },
        {
          "duration": 0.6343076437500024,
          "durationTicks": 477,
          "midi": 45,
          "name": "A2",
          "ticks": 13439,
          "time": 16.977372464583333,
          "velocity": 0.3543307086614173
        },
        {
          "duration": 0.4760631791666654,
          "durationTicks": 358,
          "midi": 49,
          "name": "C#3",
          "ticks": 13439,
          "time": 16.977372464583333,
          "velocity": 0.5905511811023622
        },
        {
          "duration": 0.47473339375000023,
          "durationTicks": 357,
          "midi": 49,
          "name": "C#3",
          "ticks": 13799,
          "time": 17.456095214583332,
          "velocity": 0.5669291338582677
        },
        {
          "duration": 0.3138293583333329,
          "durationTicks": 236,
          "midi": 45,
          "name": "A2",
          "ticks": 13920,
          "time": 17.61699925,
          "velocity": 0.33858267716535434
        },
        {
          "duration": 0.31382935833333647,
          "durationTicks": 236,
          "midi": 52,
          "name": "E3",
          "ticks": 14159,
          "time": 17.93481796458333,
          "velocity": 0.3464566929133858
        },
        {
          "duration": 0.47340360833333506,
          "durationTicks": 356,
          "midi": 56,
          "name": "G#3",
          "ticks": 14159,
          "time": 17.93481796458333,
          "velocity": 0.5826771653543307
        },
        {
          "duration": 0.6329778583333336,
          "durationTicks": 476,
          "midi": 52,
          "name": "E3",
          "ticks": 14399,
          "time": 18.253966464583332,
          "velocity": 0.3779527559055118
        },
        {
          "duration": 0.4734036083333315,
          "durationTicks": 356,
          "midi": 56,
          "name": "G#3",
          "ticks": 14519,
          "time": 18.413540714583334,
          "velocity": 0.5748031496062992
        },
        {
          "duration": 0.6343076437499988,
          "durationTicks": 477,
          "midi": 52,
          "name": "E3",
          "ticks": 14879,
          "time": 18.892263464583333,
          "velocity": 0.36220472440944884
        },
        {
          "duration": 0.47473339375000023,
          "durationTicks": 357,
          "midi": 56,
          "name": "G#3",
          "ticks": 14879,
          "time": 18.892263464583333,
          "velocity": 0.5984251968503937
        },
        {
          "duration": 0.47340360833333506,
          "durationTicks": 356,
          "midi": 56,
          "name": "G#3",
          "ticks": 15239,
          "time": 19.370986214583333,
          "velocity": 0.6062992125984252
        },
        {
          "duration": 0.6329778583333336,
          "durationTicks": 476,
          "midi": 52,
          "name": "E3",
          "ticks": 15360,
          "time": 19.53189025,
          "velocity": 0.33070866141732286
        },
        {
          "duration": 0.4734036083333315,
          "durationTicks": 356,
          "midi": 56,
          "name": "G#3",
          "ticks": 15601,
          "time": 19.85236853541667,
          "velocity": 0.5748031496062992
        },
        {
          "duration": 0.6329778583333336,
          "durationTicks": 476,
          "midi": 52,
          "name": "E3",
          "ticks": 15839,
          "time": 20.168857464583333,
          "velocity": 0.3464566929133858
        },
        {
          "duration": 0.4734036083333315,
          "durationTicks": 356,
          "midi": 56,
          "name": "G#3",
          "ticks": 15961,
          "time": 20.33109128541667,
          "velocity": 0.6062992125984252
        },
        {
          "duration": 0.4747333937500038,
          "durationTicks": 357,
          "midi": 56,
          "name": "G#3",
          "ticks": 16319,
          "time": 20.80715446458333,
          "velocity": 0.5748031496062992
        },
        {
          "duration": 0.6343076437500024,
          "durationTicks": 477,
          "midi": 52,
          "name": "E3",
          "ticks": 16319,
          "time": 20.80715446458333,
          "velocity": 0.33070866141732286
        },
        {
          "duration": 0.4734036083333315,
          "durationTicks": 356,
          "midi": 56,
          "name": "G#3",
          "ticks": 16679,
          "time": 21.285877214583333,
          "velocity": 0.5669291338582677
        },
        {
          "duration": 0.6316480729166685,
          "durationTicks": 475,
          "midi": 52,
          "name": "E3",
          "ticks": 16800,
          "time": 21.44678125,
          "velocity": 0.3779527559055118
        },
        {
          "duration": 0.31382935833333647,
          "durationTicks": 236,
          "midi": 56,
          "name": "G#3",
          "ticks": 17039,
          "time": 21.764599964583333,
          "velocity": 0.6062992125984252
        },
        {
          "duration": 0.9521263583333344,
          "durationTicks": 716,
          "midi": 49,
          "name": "C#3",
          "ticks": 17279,
          "time": 22.083748464583334,
          "velocity": 0.3464566929133858
        },
        {
          "duration": 0.47340360833333506,
          "durationTicks": 356,
          "midi": 52,
          "name": "E3",
          "ticks": 17279,
          "time": 22.083748464583334,
          "velocity": 0.5905511811023622
        },
        {
          "duration": 0.4734036083333315,
          "durationTicks": 356,
          "midi": 52,
          "name": "E3",
          "ticks": 17639,
          "time": 22.562471214583336,
          "velocity": 0.5826771653543307
        },
        {
          "duration": 0.26728686874999497,
          "durationTicks": 201,
          "midi": 50,
          "name": "D3",
          "ticks": 17999,
          "time": 23.041193964583336,
          "velocity": 0.3464566929133858
        },
        {
          "duration": 0.3151591437499981,
          "durationTicks": 237,
          "midi": 54,
          "name": "F#3",
          "ticks": 17999,
          "time": 23.041193964583336,
          "velocity": 0.5905511811023622
        },
        {
          "duration": 0.47340360833333506,
          "durationTicks": 356,
          "midi": 54,
          "name": "F#3",
          "ticks": 18359,
          "time": 23.519916714583335,
          "velocity": 0.6141732283464567
        },
        {
          "duration": 0.6316480729166685,
          "durationTicks": 475,
          "midi": 50,
          "name": "D3",
          "ticks": 18720,
          "time": 23.99996925,
          "velocity": 0.3700787401574803
        },
        {
          "duration": 0.4720738229166699,
          "durationTicks": 355,
          "midi": 54,
          "name": "F#3",
          "ticks": 18720,
          "time": 23.99996925,
          "velocity": 0.5748031496062992
        },
        {
          "duration": 0.47340360833333506,
          "durationTicks": 356,
          "midi": 54,
          "name": "F#3",
          "ticks": 19080,
          "time": 24.478692,
          "velocity": 0.6141732283464567
        },
        {
          "duration": 0.6316480729166685,
          "durationTicks": 475,
          "midi": 50,
          "name": "D3",
          "ticks": 19200,
          "time": 24.63826625,
          "velocity": 0.3464566929133858
        },
        {
          "duration": 0.4734036083333315,
          "durationTicks": 356,
          "midi": 54,
          "name": "F#3",
          "ticks": 19440,
          "time": 24.95741475,
          "velocity": 0.6062992125984252
        },
        {
          "duration": 0.6329778583333336,
          "durationTicks": 476,
          "midi": 50,
          "name": "D3",
          "ticks": 19679,
          "time": 25.275233464583334,
          "velocity": 0.33070866141732286
        },
        {
          "duration": 0.4734036083333315,
          "durationTicks": 356,
          "midi": 54,
          "name": "F#3",
          "ticks": 19799,
          "time": 25.434807714583336,
          "velocity": 0.5669291338582677
        },
        {
          "duration": 0.6329778583333336,
          "durationTicks": 476,
          "midi": 50,
          "name": "D3",
          "ticks": 20159,
          "time": 25.913530464583335,
          "velocity": 0.3779527559055118
        },
        {
          "duration": 0.4734036083333315,
          "durationTicks": 356,
          "midi": 54,
          "name": "F#3",
          "ticks": 20159,
          "time": 25.913530464583335,
          "velocity": 0.5905511811023622
        },
        {
          "duration": 0.47340360833333506,
          "durationTicks": 356,
          "midi": 54,
          "name": "F#3",
          "ticks": 20519,
          "time": 26.392253214583334,
          "velocity": 0.5984251968503937
        },
        {
          "duration": 0.6329778583333336,
          "durationTicks": 476,
          "midi": 50,
          "name": "D3",
          "ticks": 20639,
          "time": 26.551827464583333,
          "velocity": 0.3779527559055118
        },
        {
          "duration": 0.31515914375000165,
          "durationTicks": 237,
          "midi": 54,
          "name": "F#3",
          "ticks": 20878,
          "time": 26.869646179166665,
          "velocity": 0.6062992125984252
        },
        {
          "duration": 0.6329778583333336,
          "durationTicks": 476,
          "midi": 45,
          "name": "A2",
          "ticks": 21120,
          "time": 27.19145425,
          "velocity": 0.33070866141732286
        },
        {
          "duration": 0.47340360833333506,
          "durationTicks": 356,
          "midi": 49,
          "name": "C#3",
          "ticks": 21120,
          "time": 27.19145425,
          "velocity": 0.6141732283464567
        },
        {
          "duration": 0.47340360833333506,
          "durationTicks": 356,
          "midi": 49,
          "name": "C#3",
          "ticks": 21479,
          "time": 27.668847214583334,
          "velocity": 0.5748031496062992
        },
        {
          "duration": 0.3138293583333329,
          "durationTicks": 236,
          "midi": 45,
          "name": "A2",
          "ticks": 21599,
          "time": 27.828421464583336,
          "velocity": 0.3779527559055118
        },
        {
          "duration": 0.31382935833333647,
          "durationTicks": 236,
          "midi": 52,
          "name": "E3",
          "ticks": 21839,
          "time": 28.147569964583333,
          "velocity": 0.33070866141732286
        },
        {
          "duration": 0.47473339375000023,
          "durationTicks": 357,
          "midi": 56,
          "name": "G#3",
          "ticks": 21839,
          "time": 28.147569964583333,
          "velocity": 0.5669291338582677
        },
        {
          "duration": 0.6316480729166685,
          "durationTicks": 475,
          "midi": 52,
          "name": "E3",
          "ticks": 22080,
          "time": 28.46804825,
          "velocity": 0.3543307086614173
        },
        {
          "duration": 0.4734036083333315,
          "durationTicks": 356,
          "midi": 56,
          "name": "G#3",
          "ticks": 22199,
          "time": 28.626292714583336,
          "velocity": 0.6062992125984252
        },
        {
          "duration": 0.47473339375000023,
          "durationTicks": 357,
          "midi": 56,
          "name": "G#3",
          "ticks": 22559,
          "time": 29.105015464583335,
          "velocity": 0.5669291338582677
        },
        {
          "duration": 0.635637429166664,
          "durationTicks": 478,
          "midi": 52,
          "name": "E3",
          "ticks": 22559,
          "time": 29.105015464583335,
          "velocity": 0.33858267716535434
        },
        {
          "duration": 0.47340360833333506,
          "durationTicks": 356,
          "midi": 56,
          "name": "G#3",
          "ticks": 22920,
          "time": 29.585068,
          "velocity": 0.5669291338582677
        },
        {
          "duration": 0.6329778583333336,
          "durationTicks": 476,
          "midi": 52,
          "name": "E3",
          "ticks": 23041,
          "time": 29.745972035416667,
          "velocity": 0.3543307086614173
        },
        {
          "duration": 0.47340360833333506,
          "durationTicks": 356,
          "midi": 56,
          "name": "G#3",
          "ticks": 23280,
          "time": 30.06379075,
          "velocity": 0.5826771653543307
        },
        {
          "duration": 0.6329778583333336,
          "durationTicks": 476,
          "midi": 52,
          "name": "E3",
          "ticks": 23520,
          "time": 30.38293925,
          "velocity": 0.33070866141732286
        },
        {
          "duration": 0.47340360833333506,
          "durationTicks": 356,
          "midi": 56,
          "name": "G#3",
          "ticks": 23639,
          "time": 30.541183714583333,
          "velocity": 0.5748031496062992
        },
        {
          "duration": 0.6329778583333336,
          "durationTicks": 476,
          "midi": 52,
          "name": "E3",
          "ticks": 23999,
          "time": 31.019906464583336,
          "velocity": 0.33070866141732286
        },
        {
          "duration": 0.4747333937499967,
          "durationTicks": 357,
          "midi": 56,
          "name": "G#3",
          "ticks": 23999,
          "time": 31.019906464583336,
          "velocity": 0.6141732283464567
        },
        {
          "duration": 0.47340360833333506,
          "durationTicks": 356,
          "midi": 56,
          "name": "G#3",
          "ticks": 24360,
          "time": 31.499959,
          "velocity": 0.6141732283464567
        },
        {
          "duration": 0.631648072916672,
          "durationTicks": 475,
          "midi": 52,
          "name": "E3",
          "ticks": 24480,
          "time": 31.65953325,
          "velocity": 0.3779527559055118
        },
        {
          "duration": 0.31382935833333647,
          "durationTicks": 236,
          "midi": 56,
          "name": "G#3",
          "ticks": 24719,
          "time": 31.977351964583335,
          "velocity": 0.5905511811023622
        },
        {
          "duration": 0.6329778583333336,
          "durationTicks": 476,
          "midi": 49,
          "name": "C#3",
          "ticks": 24959,
          "time": 32.29650046458333,
          "velocity": 0.33070866141732286
        },
        {
          "duration": 0.47340360833333506,
          "durationTicks": 356,
          "midi": 52,
          "name": "E3",
          "ticks": 24959,
          "time": 32.29650046458333,
          "velocity": 0.5669291338582677
        },
        {
          "duration": 0.15425510833333078,
          "durationTicks": 116,
          "midi": 52,
          "name": "E3",
          "ticks": 25321,
          "time": 32.777882785416665,
          "velocity": 0.6141732283464567
        },
        {
          "duration": 0.31382935833333647,
          "durationTicks": 236,
          "midi": 49,
          "name": "C#3",
          "ticks": 25439,
          "time": 32.93479746458333,
          "velocity": 0.3543307086614173
        },
        {
          "duration": 0.31382935833333647,
          "durationTicks": 236,
          "midi": 52,
          "name": "E3",
          "ticks": 25440,
          "time": 32.93612725,
          "velocity": 0.5748031496062992
        },
        {
          "duration": 0.31382935833332937,
          "durationTicks": 236,
          "midi": 50,
          "name": "D3",
          "ticks": 25679,
          "time": 33.25394596458334,
          "velocity": 0.33070866141732286
        },
        {
          "duration": 0.4747333937499931,
          "durationTicks": 357,
          "midi": 54,
          "name": "F#3",
          "ticks": 25679,
          "time": 33.25394596458334,
          "velocity": 0.5748031496062992
        },
        {
          "duration": 0.6316480729166685,
          "durationTicks": 475,
          "midi": 50,
          "name": "D3",
          "ticks": 25920,
          "time": 33.57442425,
          "velocity": 0.33070866141732286
        },
        {
          "duration": 0.47340360833333506,
          "durationTicks": 356,
          "midi": 54,
          "name": "F#3",
          "ticks": 26041,
          "time": 33.735328285416664,
          "velocity": 0.5826771653543307
        },
        {
          "duration": 0.6329778583333336,
          "durationTicks": 476,
          "midi": 50,
          "name": "D3",
          "ticks": 26400,
          "time": 34.21272125,
          "velocity": 0.33070866141732286
        },
        {
          "duration": 0.47340360833333506,
          "durationTicks": 356,
          "midi": 54,
          "name": "F#3",
          "ticks": 26400,
          "time": 34.21272125,
          "velocity": 0.5905511811023622
        },
        {
          "duration": 0.47340360833333506,
          "durationTicks": 356,
          "midi": 54,
          "name": "F#3",
          "ticks": 26760,
          "time": 34.691444,
          "velocity": 0.5669291338582677
        },
        {
          "duration": 0.6329778583333336,
          "durationTicks": 476,
          "midi": 50,
          "name": "D3",
          "ticks": 26880,
          "time": 34.85101825,
          "velocity": 0.33070866141732286
        },
        {
          "duration": 0.47340360833333506,
          "durationTicks": 356,
          "midi": 54,
          "name": "F#3",
          "ticks": 27121,
          "time": 35.171496535416665,
          "velocity": 0.5984251968503937
        },
        {
          "duration": 0.6329778583333336,
          "durationTicks": 476,
          "midi": 50,
          "name": "D3",
          "ticks": 27359,
          "time": 35.48798546458333,
          "velocity": 0.36220472440944884
        },
        {
          "duration": 0.47340360833332795,
          "durationTicks": 356,
          "midi": 54,
          "name": "F#3",
          "ticks": 27480,
          "time": 35.6488895,
          "velocity": 0.6062992125984252
        },
        {
          "duration": 0.47340360833333506,
          "durationTicks": 356,
          "midi": 54,
          "name": "F#3",
          "ticks": 27839,
          "time": 36.12628246458333,
          "velocity": 0.5748031496062992
        },
        {
          "duration": 0.6329778583333336,
          "durationTicks": 476,
          "midi": 50,
          "name": "D3",
          "ticks": 27840,
          "time": 36.12761225,
          "velocity": 0.3464566929133858
        },
        {
          "duration": 0.47340360833333506,
          "durationTicks": 356,
          "midi": 54,
          "name": "F#3",
          "ticks": 28200,
          "time": 36.606335,
          "velocity": 0.5984251968503937
        },
        {
          "duration": 0.6329778583333336,
          "durationTicks": 476,
          "midi": 50,
          "name": "D3",
          "ticks": 28319,
          "time": 36.764579464583335,
          "velocity": 0.3464566929133858
        },
        {
          "duration": 0.3164889291666668,
          "durationTicks": 238,
          "midi": 54,
          "name": "F#3",
          "ticks": 28558,
          "time": 37.08239817916667,
          "velocity": 0.6062992125984252
        },
        {
          "duration": 0.6329778583333336,
          "durationTicks": 476,
          "midi": 45,
          "name": "A2",
          "ticks": 28799,
          "time": 37.402876464583336,
          "velocity": 0.3543307086614173
        },
        {
          "duration": 0.47340360833333506,
          "durationTicks": 356,
          "midi": 49,
          "name": "C#3",
          "ticks": 28799,
          "time": 37.402876464583336,
          "velocity": 0.5905511811023622
        },
        {
          "duration": 0.4720738229166699,
          "durationTicks": 355,
          "midi": 49,
          "name": "C#3",
          "ticks": 29160,
          "time": 37.882929,
          "velocity": 0.5669291338582677
        },
        {
          "duration": 0.31382935833332937,
          "durationTicks": 236,
          "midi": 45,
          "name": "A2",
          "ticks": 29279,
          "time": 38.04117346458334,
          "velocity": 0.33858267716535434
        },
        {
          "duration": 0.31382935833333647,
          "durationTicks": 236,
          "midi": 52,
          "name": "E3",
          "ticks": 29519,
          "time": 38.360321964583335,
          "velocity": 0.3464566929133858
        },
        {
          "duration": 0.47340360833333506,
          "durationTicks": 356,
          "midi": 56,
          "name": "G#3",
          "ticks": 29519,
          "time": 38.360321964583335,
          "velocity": 0.5826771653543307
        },
        {
          "duration": 0.6329778583333336,
          "durationTicks": 476,
          "midi": 52,
          "name": "E3",
          "ticks": 29760,
          "time": 38.68080025,
          "velocity": 0.3779527559055118
        },
        {
          "duration": 0.47340360833332795,
          "durationTicks": 356,
          "midi": 56,
          "name": "G#3",
          "ticks": 29879,
          "time": 38.83904471458334,
          "velocity": 0.5748031496062992
        },
        {
          "duration": 0.6343076437499988,
          "durationTicks": 477,
          "midi": 52,
          "name": "E3",
          "ticks": 30239,
          "time": 39.31776746458333,
          "velocity": 0.36220472440944884
        },
        {
          "duration": 0.47473339375000023,
          "durationTicks": 357,
          "midi": 56,
          "name": "G#3",
          "ticks": 30239,
          "time": 39.31776746458333,
          "velocity": 0.5984251968503937
        },
        {
          "duration": 0.47340360833333506,
          "durationTicks": 356,
          "midi": 56,
          "name": "G#3",
          "ticks": 30600,
          "time": 39.79782,
          "velocity": 0.6062992125984252
        },
        {
          "duration": 0.6343076437499988,
          "durationTicks": 477,
          "midi": 52,
          "name": "E3",
          "ticks": 30719,
          "time": 39.956064464583335,
          "velocity": 0.33070866141732286
        },
        {
          "duration": 0.47340360833333506,
          "durationTicks": 356,
          "midi": 56,
          "name": "G#3",
          "ticks": 30960,
          "time": 40.27654275,
          "velocity": 0.5748031496062992
        },
        {
          "duration": 0.6329778583333336,
          "durationTicks": 476,
          "midi": 52,
          "name": "E3",
          "ticks": 31199,
          "time": 40.594361464583336,
          "velocity": 0.3464566929133858
        },
        {
          "duration": 0.47340360833333506,
          "durationTicks": 356,
          "midi": 56,
          "name": "G#3",
          "ticks": 31319,
          "time": 40.753935714583335,
          "velocity": 0.6062992125984252
        },
        {
          "duration": 0.4720738229166628,
          "durationTicks": 355,
          "midi": 56,
          "name": "G#3",
          "ticks": 31680,
          "time": 41.23398825,
          "velocity": 0.5748031496062992
        },
        {
          "duration": 0.6329778583333336,
          "durationTicks": 476,
          "midi": 52,
          "name": "E3",
          "ticks": 31680,
          "time": 41.23398825,
          "velocity": 0.33070866141732286
        },
        {
          "duration": 0.47340360833333506,
          "durationTicks": 356,
          "midi": 56,
          "name": "G#3",
          "ticks": 32040,
          "time": 41.712711,
          "velocity": 0.5669291338582677
        },
        {
          "duration": 0.6329778583333336,
          "durationTicks": 476,
          "midi": 52,
          "name": "E3",
          "ticks": 32159,
          "time": 41.87095546458333,
          "velocity": 0.3779527559055118
        },
        {
          "duration": 0.3124995729166642,
          "durationTicks": 235,
          "midi": 56,
          "name": "G#3",
          "ticks": 32400,
          "time": 42.19143375,
          "velocity": 0.6062992125984252
        },
        {
          "duration": 0.4747333937499931,
          "durationTicks": 357,
          "midi": 52,
          "name": "E3",
          "ticks": 32639,
          "time": 42.509252464583334,
          "velocity": 0.5905511811023622
        },
        {
          "duration": 0.6343076437499988,
          "durationTicks": 477,
          "midi": 49,
          "name": "C#3",
          "ticks": 32639,
          "time": 42.509252464583334,
          "velocity": 0.3464566929133858
        },
        {
          "duration": 0.15425510833333078,
          "durationTicks": 116,
          "midi": 52,
          "name": "E3",
          "ticks": 32999,
          "time": 42.98797521458334,
          "velocity": 0.5826771653543307
        },
        {
          "duration": 0.31515914374999454,
          "durationTicks": 237,
          "midi": 49,
          "name": "C#3",
          "ticks": 33119,
          "time": 43.147549464583335,
          "velocity": 0.3543307086614173
        },
        {
          "duration": 0.31515914374999454,
          "durationTicks": 237,
          "midi": 52,
          "name": "E3",
          "ticks": 33119,
          "time": 43.147549464583335,
          "velocity": 0.5669291338582677
        },
        {
          "duration": 0.2672868687500056,
          "durationTicks": 201,
          "midi": 50,
          "name": "D3",
          "ticks": 33359,
          "time": 43.46669796458333,
          "velocity": 0.3464566929133858
        },
        {
          "duration": 0.31382935833332937,
          "durationTicks": 236,
          "midi": 54,
          "name": "F#3",
          "ticks": 33359,
          "time": 43.46669796458333,
          "velocity": 0.5905511811023622
        },
        {
          "duration": 0.47340360833332795,
          "durationTicks": 356,
          "midi": 54,
          "name": "F#3",
          "ticks": 33720,
          "time": 43.9467505,
          "velocity": 0.6141732283464567
        },
        {
          "duration": 0.6329778583333265,
          "durationTicks": 476,
          "midi": 50,
          "name": "D3",
          "ticks": 34079,
          "time": 44.42414346458334,
          "velocity": 0.3700787401574803
        },
        {
          "duration": 0.47340360833332795,
          "durationTicks": 356,
          "midi": 54,
          "name": "F#3",
          "ticks": 34080,
          "time": 44.42547325,
          "velocity": 0.5748031496062992
        },
        {
          "duration": 0.47340360833332795,
          "durationTicks": 356,
          "midi": 54,
          "name": "F#3",
          "ticks": 34440,
          "time": 44.904196,
          "velocity": 0.6141732283464567
        },
        {
          "duration": 0.6329778583333336,
          "durationTicks": 476,
          "midi": 50,
          "name": "D3",
          "ticks": 34559,
          "time": 45.06244046458333,
          "velocity": 0.3464566929133858
        },
        {
          "duration": 0.47340360833332795,
          "durationTicks": 356,
          "midi": 54,
          "name": "F#3",
          "ticks": 34799,
          "time": 45.38158896458334,
          "velocity": 0.6062992125984252
        },
        {
          "duration": 0.6329778583333336,
          "durationTicks": 476,
          "midi": 50,
          "name": "D3",
          "ticks": 35040,
          "time": 45.70206725,
          "velocity": 0.33070866141732286
        },
        {
          "duration": 0.47340360833333506,
          "durationTicks": 356,
          "midi": 54,
          "name": "F#3",
          "ticks": 35160,
          "time": 45.8616415,
          "velocity": 0.5669291338582677
        },
        {
          "duration": 0.6329778583333265,
          "durationTicks": 476,
          "midi": 50,
          "name": "D3",
          "ticks": 35519,
          "time": 46.339034464583335,
          "velocity": 0.3779527559055118
        },
        {
          "duration": 0.47340360833332795,
          "durationTicks": 356,
          "midi": 54,
          "name": "F#3",
          "ticks": 35519,
          "time": 46.339034464583335,
          "velocity": 0.5905511811023622
        },
        {
          "duration": 0.47340360833332795,
          "durationTicks": 356,
          "midi": 54,
          "name": "F#3",
          "ticks": 35879,
          "time": 46.81775721458334,
          "velocity": 0.5984251968503937
        },
        {
          "duration": 0.6329778583333265,
          "durationTicks": 476,
          "midi": 50,
          "name": "D3",
          "ticks": 36000,
          "time": 46.97866125,
          "velocity": 0.3779527559055118
        },
        {
          "duration": 0.31382935833332937,
          "durationTicks": 236,
          "midi": 54,
          "name": "F#3",
          "ticks": 36239,
          "time": 47.296479964583334,
          "velocity": 0.6062992125984252
        },
        {
          "duration": 0.47473339375000023,
          "durationTicks": 357,
          "midi": 49,
          "name": "C#3",
          "ticks": 36478,
          "time": 47.614298679166666,
          "velocity": 0.6141732283464567
        },
        {
          "duration": 0.635637429166664,
          "durationTicks": 478,
          "midi": 45,
          "name": "A2",
          "ticks": 36478,
          "time": 47.614298679166666,
          "velocity": 0.33070866141732286
        },
        {
          "duration": 0.47340360833334216,
          "durationTicks": 356,
          "midi": 49,
          "name": "C#3",
          "ticks": 36841,
          "time": 48.097010785416664,
          "velocity": 0.5748031496062992
        },
        {
          "duration": 0.31382935833332937,
          "durationTicks": 236,
          "midi": 45,
          "name": "A2",
          "ticks": 36960,
          "time": 48.25525525,
          "velocity": 0.3779527559055118
        },
        {
          "duration": 0.4747333937499931,
          "durationTicks": 357,
          "midi": 56,
          "name": "G#3",
          "ticks": 37199,
          "time": 48.57307396458334,
          "velocity": 0.5669291338582677
        },
        {
          "duration": 0.3164889291666668,
          "durationTicks": 238,
          "midi": 52,
          "name": "E3",
          "ticks": 37199,
          "time": 48.57307396458334,
          "velocity": 0.33070866141732286
        },
        {
          "duration": 0.6329778583333265,
          "durationTicks": 476,
          "midi": 52,
          "name": "E3",
          "ticks": 37439,
          "time": 48.892222464583334,
          "velocity": 0.3543307086614173
        },
        {
          "duration": 0.47340360833333506,
          "durationTicks": 356,
          "midi": 56,
          "name": "G#3",
          "ticks": 37560,
          "time": 49.0531265,
          "velocity": 0.6062992125984252
        },
        {
          "duration": 0.6329778583333265,
          "durationTicks": 476,
          "midi": 52,
          "name": "E3",
          "ticks": 37920,
          "time": 49.53184925,
          "velocity": 0.33858267716535434
        },
        {
          "duration": 0.47340360833332795,
          "durationTicks": 356,
          "midi": 56,
          "name": "G#3",
          "ticks": 37920,
          "time": 49.53184925,
          "velocity": 0.5669291338582677
        },
        {
          "duration": 0.47340360833332795,
          "durationTicks": 356,
          "midi": 56,
          "name": "G#3",
          "ticks": 38280,
          "time": 50.010572,
          "velocity": 0.5669291338582677
        },
        {
          "duration": 0.6329778583333265,
          "durationTicks": 476,
          "midi": 52,
          "name": "E3",
          "ticks": 38399,
          "time": 50.16881646458334,
          "velocity": 0.3543307086614173
        },
        {
          "duration": 0.47340360833332795,
          "durationTicks": 356,
          "midi": 56,
          "name": "G#3",
          "ticks": 38640,
          "time": 50.48929475,
          "velocity": 0.5826771653543307
        },
        {
          "duration": 0.6329778583333265,
          "durationTicks": 476,
          "midi": 52,
          "name": "E3",
          "ticks": 38880,
          "time": 50.80844325,
          "velocity": 0.33070866141732286
        },
        {
          "duration": 0.47340360833332795,
          "durationTicks": 356,
          "midi": 56,
          "name": "G#3",
          "ticks": 38999,
          "time": 50.96668771458334,
          "velocity": 0.5748031496062992
        },
        {
          "duration": 0.47340360833332795,
          "durationTicks": 356,
          "midi": 56,
          "name": "G#3",
          "ticks": 39359,
          "time": 51.44541046458333,
          "velocity": 0.6141732283464567
        },
        {
          "duration": 0.6329778583333407,
          "durationTicks": 476,
          "midi": 52,
          "name": "E3",
          "ticks": 39361,
          "time": 51.44807003541666,
          "velocity": 0.33070866141732286
        },
        {
          "duration": 0.47340360833332795,
          "durationTicks": 356,
          "midi": 56,
          "name": "G#3",
          "ticks": 39719,
          "time": 51.924133214583335,
          "velocity": 0.6141732283464567
        },
        {
          "duration": 0.6329778583333265,
          "durationTicks": 476,
          "midi": 52,
          "name": "E3",
          "ticks": 39839,
          "time": 52.083707464583334,
          "velocity": 0.3779527559055118
        },
        {
          "duration": 0.31382935833332226,
          "durationTicks": 236,
          "midi": 56,
          "name": "G#3",
          "ticks": 40079,
          "time": 52.40285596458334,
          "velocity": 0.5905511811023622
        }
      ]
    },
    {
      "channel": 0,
      "controlChanges": {
        "0": [
          {
            "number": 0,
            "ticks": 505,
            "time": 0.42083333333333334,
            "value": 0
          }
        ],
        "32": [
          {
            "number": 32,
            "ticks": 506,
            "time": 0.4216666666666667,
            "value": 0
          }
        ]
      },
      "pitchBends": [],
      "instrument": {
        "family": "piano",
        "number": 0,
        "name": "acoustic grand piano"
      },
      "name": "",
      "notes": []
    },
    {
      "channel": 3,
      "controlChanges": {
        "6": [
          {
            "number": 6,
            "ticks": 641,
            "time": 0.5341666666666667,
            "value": 0.015748031496062992
          }
        ],
        "7": [
          {
            "number": 7,
            "ticks": 508,
            "time": 0.42333333333333334,
            "value": 0.9448818897637795
          }
        ],
        "10": [
          {
            "number": 10,
            "ticks": 509,
            "time": 0.42416666666666664,
            "value": 0.5039370078740157
          }
        ],
        "11": [
          {
            "number": 11,
            "ticks": 510,
            "time": 0.42500000000000004,
            "value": 1
          }
        ],
        "91": [
          {
            "number": 91,
            "ticks": 511,
            "time": 0.4258333333333334,
            "value": 0.7874015748031497
          }
        ],
        "93": [
          {
            "number": 93,
            "ticks": 512,
            "time": 0.4266666666666667,
            "value": 0.5039370078740157
          }
        ],
        "100": [
          {
            "number": 100,
            "ticks": 637,
            "time": 0.5308333333333334,
            "value": 0
          },
          {
            "number": 100,
            "ticks": 649,
            "time": 0.5408333333333334,
            "value": 1
          }
        ],
        "101": [
          {
            "number": 101,
            "ticks": 633,
            "time": 0.5275000000000001,
            "value": 0
          },
          {
            "number": 101,
            "ticks": 645,
            "time": 0.5375,
            "value": 1
          }
        ]
      },
      "pitchBends": [],
      "instrument": {
        "family": "reed",
        "number": 66,
        "name": "tenor sax"
      },
      "name": "",
      "notes": [
        {
          "duration": 0.4680844666666668,
          "durationTicks": 352,
          "midi": 59,
          "name": "B3",
          "ticks": 1920,
          "time": 1.65957425,
          "velocity": 0.8818897637795275
        },
        {
          "duration": 0.3218080708333333,
          "durationTicks": 242,
          "midi": 61,
          "name": "C#4",
          "ticks": 2280,
          "time": 2.138297,
          "velocity": 0.8976377952755905
        },
        {
          "duration": 1.2885620687500001,
          "durationTicks": 969,
          "midi": 57,
          "name": "A3",
          "ticks": 2639,
          "time": 2.6156899645833334,
          "velocity": 0.9133858267716536
        },
        {
          "duration": 0.48936103333333314,
          "durationTicks": 368,
          "midi": 54,
          "name": "F#3",
          "ticks": 3600,
          "time": 3.89361375,
          "velocity": 0.8976377952755905
        },
        {
          "duration": 0.11303176041666596,
          "durationTicks": 85,
          "midi": 52,
          "name": "E3",
          "ticks": 5519,
          "time": 6.445471964583334,
          "velocity": 0.937007874015748
        },
        {
          "duration": 0.16888274791666635,
          "durationTicks": 127,
          "midi": 52,
          "name": "E3",
          "ticks": 5640,
          "time": 6.606376,
          "velocity": 0.937007874015748
        },
        {
          "duration": 0.5319141666666667,
          "durationTicks": 400,
          "midi": 62,
          "name": "D4",
          "ticks": 5759,
          "time": 6.764620464583333,
          "velocity": 0.937007874015748
        },
        {
          "duration": 0.5119673854166669,
          "durationTicks": 385,
          "midi": 61,
          "name": "C#4",
          "ticks": 6119,
          "time": 7.243343214583334,
          "velocity": 0.9133858267716536
        },
        {
          "duration": 0.9720731395833324,
          "durationTicks": 731,
          "midi": 59,
          "name": "B3",
          "ticks": 6479,
          "time": 7.722065964583334,
          "velocity": 0.8818897637795275
        },
        {
          "duration": 0.07845733958333412,
          "durationTicks": 59,
          "midi": 52,
          "name": "E3",
          "ticks": 9359,
          "time": 11.551847964583333,
          "velocity": 0.9133858267716536
        },
        {
          "duration": 0.12765939999999887,
          "durationTicks": 96,
          "midi": 52,
          "name": "E3",
          "ticks": 9480,
          "time": 11.712752,
          "velocity": 0.8818897637795275
        },
        {
          "duration": 0.5146269562500017,
          "durationTicks": 387,
          "midi": 56,
          "name": "G#3",
          "ticks": 9599,
          "time": 11.870996464583332,
          "velocity": 0.937007874015748
        },
        {
          "duration": 0.5026588875000009,
          "durationTicks": 378,
          "midi": 57,
          "name": "A3",
          "ticks": 9960,
          "time": 12.351049,
          "velocity": 0.8740157480314961
        },
        {
          "duration": 1.2513280770833326,
          "durationTicks": 941,
          "midi": 54,
          "name": "F#3",
          "ticks": 10320,
          "time": 12.82977175,
          "velocity": 0.8976377952755905
        },
        {
          "duration": 0.386967556250001,
          "durationTicks": 291,
          "midi": 52,
          "name": "E3",
          "ticks": 11279,
          "time": 14.105035964583333,
          "velocity": 0.9212598425196851
        },
        {
          "duration": 0.06781905624999851,
          "durationTicks": 51,
          "midi": 52,
          "name": "E3",
          "ticks": 13200,
          "time": 16.65955375,
          "velocity": 0.889763779527559
        },
        {
          "duration": 0.16622317708333512,
          "durationTicks": 125,
          "midi": 52,
          "name": "E3",
          "ticks": 13320,
          "time": 16.819128,
          "velocity": 0.889763779527559
        },
        {
          "duration": 0.5319141666666667,
          "durationTicks": 400,
          "midi": 54,
          "name": "F#3",
          "ticks": 13439,
          "time": 16.977372464583333,
          "velocity": 0.937007874015748
        },
        {
          "duration": 0.5013291020833357,
          "durationTicks": 377,
          "midi": 57,
          "name": "A3",
          "ticks": 13799,
          "time": 17.456095214583332,
          "velocity": 0.905511811023622
        },
        {
          "duration": 0.48138232083333676,
          "durationTicks": 362,
          "midi": 56,
          "name": "G#3",
          "ticks": 14159,
          "time": 17.93481796458333,
          "velocity": 0.9133858267716536
        },
        {
          "duration": 0.10771261874999638,
          "durationTicks": 81,
          "midi": 64,
          "name": "E4",
          "ticks": 17999,
          "time": 23.041193964583336,
          "velocity": 0.9212598425196851
        },
        {
          "duration": 0.08377648125000192,
          "durationTicks": 63,
          "midi": 64,
          "name": "E4",
          "ticks": 18120,
          "time": 23.202098,
          "velocity": 0.9133858267716536
        },
        {
          "duration": 0.3138293583333329,
          "durationTicks": 236,
          "midi": 64,
          "name": "E4",
          "ticks": 18240,
          "time": 23.36167225,
          "velocity": 0.8818897637795275
        },
        {
          "duration": 0.08244669583333675,
          "durationTicks": 62,
          "midi": 61,
          "name": "C#4",
          "ticks": 18480,
          "time": 23.68082075,
          "velocity": 0.889763779527559
        },
        {
          "duration": 0.09042540833333135,
          "durationTicks": 68,
          "midi": 61,
          "name": "C#4",
          "ticks": 18600,
          "time": 23.840395,
          "velocity": 0.937007874015748
        },
        {
          "duration": 0.2699464395833324,
          "durationTicks": 203,
          "midi": 61,
          "name": "C#4",
          "ticks": 18720,
          "time": 23.99996925,
          "velocity": 0.905511811023622
        },
        {
          "duration": 0.09707433541666433,
          "durationTicks": 73,
          "midi": 59,
          "name": "B3",
          "ticks": 18960,
          "time": 24.31911775,
          "velocity": 0.905511811023622
        },
        {
          "duration": 0.07845733958333412,
          "durationTicks": 59,
          "midi": 59,
          "name": "B3",
          "ticks": 19080,
          "time": 24.478692,
          "velocity": 0.8976377952755905
        },
        {
          "duration": 0.21143588124999724,
          "durationTicks": 159,
          "midi": 59,
          "name": "B3",
          "ticks": 19200,
          "time": 24.63826625,
          "velocity": 0.9133858267716536
        },
        {
          "duration": 0.08510626666666354,
          "durationTicks": 64,
          "midi": 59,
          "name": "B3",
          "ticks": 19440,
          "time": 24.95741475,
          "velocity": 0.9133858267716536
        },
        {
          "duration": 0.08909562291666617,
          "durationTicks": 67,
          "midi": 59,
          "name": "B3",
          "ticks": 19560,
          "time": 25.116989,
          "velocity": 0.8740157480314961
        },
        {
          "duration": 0.1555848937499995,
          "durationTicks": 117,
          "midi": 59,
          "name": "B3",
          "ticks": 19679,
          "time": 25.275233464583334,
          "velocity": 0.8740157480314961
        },
        {
          "duration": 0.5545205187499995,
          "durationTicks": 417,
          "midi": 57,
          "name": "A3",
          "ticks": 19800,
          "time": 25.4361375,
          "velocity": 0.8976377952755905
        },
        {
          "duration": 0.15691467916666824,
          "durationTicks": 118,
          "midi": 57,
          "name": "A3",
          "ticks": 20878,
          "time": 26.869646179166665,
          "velocity": 0.9133858267716536
        },
        {
          "duration": 0.1529253229166656,
          "durationTicks": 115,
          "midi": 59,
          "name": "B3",
          "ticks": 21000,
          "time": 27.03188,
          "velocity": 0.889763779527559
        },
        {
          "duration": 0.3138293583333329,
          "durationTicks": 236,
          "midi": 61,
          "name": "C#4",
          "ticks": 21120,
          "time": 27.19145425,
          "velocity": 0.8976377952755905
        },
        {
          "duration": 0.2885634354166662,
          "durationTicks": 217,
          "midi": 57,
          "name": "A3",
          "ticks": 21360,
          "time": 27.51060275,
          "velocity": 0.8740157480314961
        },
        {
          "duration": 0.38164841458333143,
          "durationTicks": 287,
          "midi": 59,
          "name": "B3",
          "ticks": 21599,
          "time": 27.828421464583336,
          "velocity": 0.8976377952755905
        },
        {
          "duration": 0.09441476458333398,
          "durationTicks": 71,
          "midi": 59,
          "name": "B3",
          "ticks": 21960,
          "time": 28.308474,
          "velocity": 0.905511811023622
        },
        {
          "duration": 0.31382935833333647,
          "durationTicks": 236,
          "midi": 59,
          "name": "B3",
          "ticks": 22080,
          "time": 28.46804825,
          "velocity": 0.905511811023622
        },
        {
          "duration": 0.0930849791666688,
          "durationTicks": 70,
          "midi": 57,
          "name": "A3",
          "ticks": 22320,
          "time": 28.78719675,
          "velocity": 0.905511811023622
        },
        {
          "duration": 0.09707433541666433,
          "durationTicks": 73,
          "midi": 57,
          "name": "A3",
          "ticks": 22440,
          "time": 28.946771000000002,
          "velocity": 0.889763779527559
        },
        {
          "duration": 0.2925527916666617,
          "durationTicks": 220,
          "midi": 57,
          "name": "A3",
          "ticks": 22559,
          "time": 29.105015464583335,
          "velocity": 0.937007874015748
        },
        {
          "duration": 0.08643605208333227,
          "durationTicks": 65,
          "midi": 56,
          "name": "G#3",
          "ticks": 22800,
          "time": 29.42549375,
          "velocity": 0.9133858267716536
        },
        {
          "duration": 0.08377648125000192,
          "durationTicks": 63,
          "midi": 56,
          "name": "G#3",
          "ticks": 22920,
          "time": 29.585068,
          "velocity": 0.8740157480314961
        },
        {
          "duration": 0.2593081562499968,
          "durationTicks": 195,
          "midi": 56,
          "name": "G#3",
          "ticks": 23040,
          "time": 29.744642250000002,
          "velocity": 0.905511811023622
        },
        {
          "duration": 0.08111691041666802,
          "durationTicks": 61,
          "midi": 54,
          "name": "F#3",
          "ticks": 23280,
          "time": 30.06379075,
          "velocity": 0.905511811023622
        },
        {
          "duration": 0.08377648124999837,
          "durationTicks": 63,
          "midi": 54,
          "name": "F#3",
          "ticks": 23400,
          "time": 30.223365,
          "velocity": 0.9133858267716536
        },
        {
          "duration": 0.15425510833333433,
          "durationTicks": 116,
          "midi": 54,
          "name": "F#3",
          "ticks": 23520,
          "time": 30.38293925,
          "velocity": 0.889763779527559
        },
        {
          "duration": 0.46941425208333243,
          "durationTicks": 353,
          "midi": 52,
          "name": "E3",
          "ticks": 23640,
          "time": 30.542513500000002,
          "velocity": 0.8740157480314961
        },
        {
          "duration": 0.15292532291666916,
          "durationTicks": 115,
          "midi": 52,
          "name": "E3",
          "ticks": 24360,
          "time": 31.499959,
          "velocity": 0.889763779527559
        },
        {
          "duration": 0.15425510833333433,
          "durationTicks": 116,
          "midi": 56,
          "name": "G#3",
          "ticks": 24480,
          "time": 31.65953325,
          "velocity": 0.8976377952755905
        },
        {
          "duration": 0.08643605208333227,
          "durationTicks": 65,
          "midi": 57,
          "name": "A3",
          "ticks": 24600,
          "time": 31.8191075,
          "velocity": 0.937007874015748
        },
        {
          "duration": 0.15558489375000306,
          "durationTicks": 117,
          "midi": 57,
          "name": "A3",
          "ticks": 24719,
          "time": 31.977351964583335,
          "velocity": 0.8976377952755905
        },
        {
          "duration": 0.1529253229166727,
          "durationTicks": 115,
          "midi": 59,
          "name": "B3",
          "ticks": 24840,
          "time": 32.138256,
          "velocity": 0.8976377952755905
        },
        {
          "duration": 0.2952123625000027,
          "durationTicks": 222,
          "midi": 61,
          "name": "C#4",
          "ticks": 24959,
          "time": 32.29650046458333,
          "velocity": 0.905511811023622
        },
        {
          "duration": 0.3071804312500035,
          "durationTicks": 231,
          "midi": 57,
          "name": "A3",
          "ticks": 25200,
          "time": 32.61697875,
          "velocity": 0.8740157480314961
        },
        {
          "duration": 0.4268611187500042,
          "durationTicks": 321,
          "midi": 59,
          "name": "B3",
          "ticks": 25440,
          "time": 32.93612725,
          "velocity": 0.9133858267716536
        },
        {
          "duration": 0.15026575208332815,
          "durationTicks": 113,
          "midi": 64,
          "name": "E4",
          "ticks": 25800,
          "time": 33.41485,
          "velocity": 0.937007874015748
        },
        {
          "duration": 0.31382935833333647,
          "durationTicks": 236,
          "midi": 64,
          "name": "E4",
          "ticks": 25920,
          "time": 33.57442425,
          "velocity": 0.8740157480314961
        },
        {
          "duration": 0.0824466958333403,
          "durationTicks": 62,
          "midi": 61,
          "name": "C#4",
          "ticks": 26160,
          "time": 33.89357275,
          "velocity": 0.8740157480314961
        },
        {
          "duration": 0.09042540833333135,
          "durationTicks": 68,
          "midi": 61,
          "name": "C#4",
          "ticks": 26280,
          "time": 34.053147,
          "velocity": 0.8818897637795275
        },
        {
          "duration": 0.26994643958332887,
          "durationTicks": 203,
          "midi": 61,
          "name": "C#4",
          "ticks": 26400,
          "time": 34.21272125,
          "velocity": 0.8740157480314961
        },
        {
          "duration": 0.09707433541666433,
          "durationTicks": 73,
          "midi": 59,
          "name": "B3",
          "ticks": 26640,
          "time": 34.53186975,
          "velocity": 0.937007874015748
        },
        {
          "duration": 0.07845733958333767,
          "durationTicks": 59,
          "midi": 59,
          "name": "B3",
          "ticks": 26760,
          "time": 34.691444,
          "velocity": 0.8740157480314961
        },
        {
          "duration": 0.21143588124999724,
          "durationTicks": 159,
          "midi": 59,
          "name": "B3",
          "ticks": 26880,
          "time": 34.85101825,
          "velocity": 0.889763779527559
        },
        {
          "duration": 0.08510626666666354,
          "durationTicks": 64,
          "midi": 59,
          "name": "B3",
          "ticks": 27120,
          "time": 35.17016675,
          "velocity": 0.8740157480314961
        },
        {
          "duration": 0.08909562291666617,
          "durationTicks": 67,
          "midi": 59,
          "name": "B3",
          "ticks": 27240,
          "time": 35.329741,
          "velocity": 0.889763779527559
        },
        {
          "duration": 0.1542551083333379,
          "durationTicks": 116,
          "midi": 59,
          "name": "B3",
          "ticks": 27360,
          "time": 35.48931525,
          "velocity": 0.8740157480314961
        },
        {
          "duration": 0.554520518749996,
          "durationTicks": 417,
          "midi": 57,
          "name": "A3",
          "ticks": 27480,
          "time": 35.6488895,
          "velocity": 0.8976377952755905
        },
        {
          "duration": 0.15691467916666824,
          "durationTicks": 118,
          "midi": 57,
          "name": "A3",
          "ticks": 28558,
          "time": 37.08239817916667,
          "velocity": 0.8976377952755905
        },
        {
          "duration": 0.15425510833333078,
          "durationTicks": 116,
          "midi": 59,
          "name": "B3",
          "ticks": 28680,
          "time": 37.244632,
          "velocity": 0.8818897637795275
        },
        {
          "duration": 0.31515914374999454,
          "durationTicks": 237,
          "midi": 61,
          "name": "C#4",
          "ticks": 28799,
          "time": 37.402876464583336,
          "velocity": 0.9212598425196851
        },
        {
          "duration": 0.28856343541666973,
          "durationTicks": 217,
          "midi": 57,
          "name": "A3",
          "ticks": 29040,
          "time": 37.72335475,
          "velocity": 0.9212598425196851
        },
        {
          "duration": 0.38164841458333143,
          "durationTicks": 287,
          "midi": 59,
          "name": "B3",
          "ticks": 29279,
          "time": 38.04117346458334,
          "velocity": 0.905511811023622
        },
        {
          "duration": 0.09441476458333398,
          "durationTicks": 71,
          "midi": 59,
          "name": "B3",
          "ticks": 29640,
          "time": 38.521226,
          "velocity": 0.9133858267716536
        },
        {
          "duration": 0.31382935833333647,
          "durationTicks": 236,
          "midi": 59,
          "name": "B3",
          "ticks": 29760,
          "time": 38.68080025,
          "velocity": 0.9133858267716536
        },
        {
          "duration": 0.09441476458333398,
          "durationTicks": 71,
          "midi": 57,
          "name": "A3",
          "ticks": 29999,
          "time": 38.998618964583336,
          "velocity": 0.8740157480314961
        },
        {
          "duration": 0.09707433541666433,
          "durationTicks": 73,
          "midi": 57,
          "name": "A3",
          "ticks": 30120,
          "time": 39.159523,
          "velocity": 0.889763779527559
        },
        {
          "duration": 0.29255279166666526,
          "durationTicks": 220,
          "midi": 57,
          "name": "A3",
          "ticks": 30239,
          "time": 39.31776746458333,
          "velocity": 0.937007874015748
        },
        {
          "duration": 0.08643605208332872,
          "durationTicks": 65,
          "midi": 56,
          "name": "G#3",
          "ticks": 30480,
          "time": 39.63824575,
          "velocity": 0.937007874015748
        },
        {
          "duration": 0.0824466958333332,
          "durationTicks": 62,
          "midi": 56,
          "name": "G#3",
          "ticks": 30600,
          "time": 39.79782,
          "velocity": 0.8740157480314961
        },
        {
          "duration": 0.26063794166666554,
          "durationTicks": 196,
          "midi": 56,
          "name": "G#3",
          "ticks": 30719,
          "time": 39.956064464583335,
          "velocity": 0.8976377952755905
        },
        {
          "duration": 0.08111691041666802,
          "durationTicks": 61,
          "midi": 54,
          "name": "F#3",
          "ticks": 30960,
          "time": 40.27654275,
          "velocity": 0.905511811023622
        },
        {
          "duration": 0.08377648124999837,
          "durationTicks": 63,
          "midi": 54,
          "name": "F#3",
          "ticks": 31080,
          "time": 40.436117,
          "velocity": 0.9212598425196851
        },
        {
          "duration": 0.15558489374999596,
          "durationTicks": 117,
          "midi": 54,
          "name": "F#3",
          "ticks": 31199,
          "time": 40.594361464583336,
          "velocity": 0.905511811023622
        },
        {
          "duration": 0.4720738229166628,
          "durationTicks": 355,
          "midi": 52,
          "name": "E3",
          "ticks": 31319,
          "time": 40.753935714583335,
          "velocity": 0.9133858267716536
        },
        {
          "duration": 0.1542551083333379,
          "durationTicks": 116,
          "midi": 52,
          "name": "E3",
          "ticks": 32040,
          "time": 41.712711,
          "velocity": 0.937007874015748
        },
        {
          "duration": 0.15558489375000306,
          "durationTicks": 117,
          "midi": 56,
          "name": "G#3",
          "ticks": 32159,
          "time": 41.87095546458333,
          "velocity": 0.8976377952755905
        },
        {
          "duration": 0.08643605208332872,
          "durationTicks": 65,
          "midi": 57,
          "name": "A3",
          "ticks": 32280,
          "time": 42.0318595,
          "velocity": 0.9212598425196851
        },
        {
          "duration": 0.15425510833333078,
          "durationTicks": 116,
          "midi": 57,
          "name": "A3",
          "ticks": 32400,
          "time": 42.19143375,
          "velocity": 0.905511811023622
        },
        {
          "duration": 0.1529253229166656,
          "durationTicks": 115,
          "midi": 59,
          "name": "B3",
          "ticks": 32520,
          "time": 42.351008,
          "velocity": 0.8976377952755905
        },
        {
          "duration": 0.2952123624999956,
          "durationTicks": 222,
          "midi": 61,
          "name": "C#4",
          "ticks": 32639,
          "time": 42.509252464583334,
          "velocity": 0.9212598425196851
        },
        {
          "duration": 0.3071804312499964,
          "durationTicks": 231,
          "midi": 57,
          "name": "A3",
          "ticks": 32880,
          "time": 42.82973075,
          "velocity": 0.905511811023622
        },
        {
          "duration": 0.6196800041666677,
          "durationTicks": 466,
          "midi": 59,
          "name": "B3",
          "ticks": 33119,
          "time": 43.147549464583335,
          "velocity": 0.8740157480314961
        },
        {
          "duration": 0.21542523749999276,
          "durationTicks": 162,
          "midi": 69,
          "name": "A4",
          "ticks": 36239,
          "time": 47.296479964583334,
          "velocity": 0.8740157480314961
        },
        {
          "duration": 0.20611673958333654,
          "durationTicks": 155,
          "midi": 71,
          "name": "B4",
          "ticks": 36360,
          "time": 47.457384,
          "velocity": 0.9291338582677166
        },
        {
          "duration": 0.3497335645833388,
          "durationTicks": 263,
          "midi": 73,
          "name": "C#5",
          "ticks": 36478,
          "time": 47.614298679166666,
          "velocity": 0.8976377952755905
        },
        {
          "duration": 0.3497335645833317,
          "durationTicks": 263,
          "midi": 69,
          "name": "A4",
          "ticks": 36720,
          "time": 47.93610675,
          "velocity": 0.8740157480314961
        },
        {
          "duration": 0.6170204333333373,
          "durationTicks": 464,
          "midi": 71,
          "name": "B4",
          "ticks": 36960,
          "time": 48.25525525,
          "velocity": 0.9133858267716536
        }
      ]
    },
    {
      "channel": 0,
      "controlChanges": {
        "0": [
          {
            "number": 0,
            "ticks": 513,
            "time": 0.42750000000000005,
            "value": 0
          }
        ],
        "32": [
          {
            "number": 32,
            "ticks": 514,
            "time": 0.42833333333333334,
            "value": 0
          }
        ]
      },
      "pitchBends": [],
      "instrument": {
        "family": "piano",
        "number": 0,
        "name": "acoustic grand piano"
      },
      "name": "",
      "notes": []
    },
    {
      "channel": 0,
      "controlChanges": {
        "6": [
          {
            "number": 6,
            "ticks": 658,
            "time": 0.5483333333333333,
            "value": 0.015748031496062992
          }
        ],
        "7": [
          {
            "number": 7,
            "ticks": 516,
            "time": 0.43,
            "value": 0.7874015748031497
          }
        ],
        "10": [
          {
            "number": 10,
            "ticks": 517,
            "time": 0.4308333333333334,
            "value": 0.5039370078740157
          }
        ],
        "11": [
          {
            "number": 11,
            "ticks": 518,
            "time": 0.43166666666666664,
            "value": 1
          }
        ],
        "91": [
          {
            "number": 91,
            "ticks": 519,
            "time": 0.43250000000000005,
            "value": 0.6299212598425197
          }
        ],
        "93": [
          {
            "number": 93,
            "ticks": 520,
            "time": 0.43333333333333335,
            "value": 0.31496062992125984
          }
        ],
        "100": [
          {
            "number": 100,
            "ticks": 654,
            "time": 0.545,
            "value": 0
          },
          {
            "number": 100,
            "ticks": 666,
            "time": 0.555,
            "value": 1
          }
        ],
        "101": [
          {
            "number": 101,
            "ticks": 650,
            "time": 0.5416666666666667,
            "value": 0
          },
          {
            "number": 101,
            "ticks": 662,
            "time": 0.5516666666666666,
            "value": 1
          }
        ]
      },
      "pitchBends": [],
      "instrument": {
        "family": "ensemble",
        "number": 54,
        "name": "synth voice"
      },
      "name": "",
      "notes": []
    },
    {
      "channel": 0,
      "controlChanges": {
        "0": [
          {
            "number": 0,
            "ticks": 521,
            "time": 0.4341666666666667,
            "value": 0
          }
        ],
        "32": [
          {
            "number": 32,
            "ticks": 522,
            "time": 0.435,
            "value": 0
          }
        ]
      },
      "pitchBends": [],
      "instrument": {
        "family": "piano",
        "number": 0,
        "name": "acoustic grand piano"
      },
      "name": "",
      "notes": []
    },
    {
      "channel": 0,
      "controlChanges": {
        "6": [
          {
            "number": 6,
            "ticks": 655,
            "time": 0.5458333333333333,
            "value": 0.015748031496062992
          }
        ],
        "7": [
          {
            "number": 7,
            "ticks": 524,
            "time": 0.43666666666666665,
            "value": 0.7874015748031497
          }
        ],
        "10": [
          {
            "number": 10,
            "ticks": 525,
            "time": 0.4375,
            "value": 0.5039370078740157
          }
        ],
        "11": [
          {
            "number": 11,
            "ticks": 526,
            "time": 0.4383333333333334,
            "value": 1
          }
        ],
        "91": [
          {
            "number": 91,
            "ticks": 527,
            "time": 0.4391666666666667,
            "value": 0.4330708661417323
          }
        ],
        "93": [
          {
            "number": 93,
            "ticks": 528,
            "time": 0.44000000000000006,
            "value": 0
          }
        ],
        "100": [
          {
            "number": 100,
            "ticks": 651,
            "time": 0.5425,
            "value": 0
          },
          {
            "number": 100,
            "ticks": 663,
            "time": 0.5525000000000001,
            "value": 1
          }
        ],
        "101": [
          {
            "number": 101,
            "ticks": 647,
            "time": 0.5391666666666667,
            "value": 0
          },
          {
            "number": 101,
            "ticks": 659,
            "time": 0.5491666666666667,
            "value": 1
          }
        ]
      },
      "pitchBends": [],
      "instrument": {
        "family": "guitar",
        "number": 29,
        "name": "overdriven guitar"
      },
      "name": "",
      "notes": []
    },
    {
      "channel": 0,
      "controlChanges": {
        "0": [
          {
            "number": 0,
            "ticks": 529,
            "time": 0.44083333333333335,
            "value": 0
          }
        ],
        "32": [
          {
            "number": 32,
            "ticks": 530,
            "time": 0.4416666666666667,
            "value": 0
          }
        ]
      },
      "pitchBends": [],
      "instrument": {
        "family": "piano",
        "number": 0,
        "name": "acoustic grand piano"
      },
      "name": "",
      "notes": []
    },
    {
      "channel": 6,
      "controlChanges": {
        "6": [
          {
            "number": 6,
            "ticks": 651,
            "time": 0.5425,
            "value": 0.015748031496062992
          }
        ],
        "7": [
          {
            "number": 7,
            "ticks": 532,
            "time": 0.44333333333333336,
            "value": 0.7874015748031497
          }
        ],
        "10": [
          {
            "number": 10,
            "ticks": 533,
            "time": 0.44416666666666665,
            "value": 0.3464566929133858
          }
        ],
        "11": [
          {
            "number": 11,
            "ticks": 534,
            "time": 0.44500000000000006,
            "value": 1
          }
        ],
        "91": [
          {
            "number": 91,
            "ticks": 535,
            "time": 0.4458333333333333,
            "value": 0.4330708661417323
          }
        ],
        "93": [
          {
            "number": 93,
            "ticks": 536,
            "time": 0.4466666666666667,
            "value": 0
          }
        ],
        "100": [
          {
            "number": 100,
            "ticks": 647,
            "time": 0.5391666666666667,
            "value": 0
          },
          {
            "number": 100,
            "ticks": 659,
            "time": 0.5491666666666667,
            "value": 1
          }
        ],
        "101": [
          {
            "number": 101,
            "ticks": 643,
            "time": 0.5358333333333334,
            "value": 0
          },
          {
            "number": 101,
            "ticks": 655,
            "time": 0.5458333333333333,
            "value": 1
          }
        ]
      },
      "pitchBends": [],
      "instrument": {
        "family": "guitar",
        "number": 27,
        "name": "electric guitar (clean)"
      },
      "name": "",
      "notes": [
        {
          "duration": 0.4321802604166578,
          "durationTicks": 325,
          "midi": 71,
          "name": "B4",
          "ticks": 34079,
          "time": 44.42414346458334,
          "velocity": 0.6614173228346457
        },
        {
          "duration": 0.41888240624999895,
          "durationTicks": 315,
          "midi": 71,
          "name": "B4",
          "ticks": 35039,
          "time": 45.700737464583334,
          "velocity": 0.6614173228346457
        },
        {
          "duration": 0.36303141874999767,
          "durationTicks": 273,
          "midi": 71,
          "name": "B4",
          "ticks": 36000,
          "time": 46.97866125,
          "velocity": 0.6771653543307087
        },
        {
          "duration": 0.3563824916666718,
          "durationTicks": 268,
          "midi": 71,
          "name": "B4",
          "ticks": 36961,
          "time": 48.25658503541666,
          "velocity": 0.6692913385826772
        },
        {
          "duration": 0.37366970208332617,
          "durationTicks": 281,
          "midi": 71,
          "name": "B4",
          "ticks": 37920,
          "time": 49.53184925,
          "velocity": 0.6692913385826772
        },
        {
          "duration": 0.3936164833333322,
          "durationTicks": 296,
          "midi": 71,
          "name": "B4",
          "ticks": 38881,
          "time": 50.80977303541667,
          "velocity": 0.6850393700787402
        }
      ]
    },
    {
      "channel": 0,
      "controlChanges": {
        "0": [
          {
            "number": 0,
            "ticks": 537,
            "time": 0.4475,
            "value": 0
          }
        ],
        "32": [
          {
            "number": 32,
            "ticks": 538,
            "time": 0.44833333333333336,
            "value": 0
          }
        ]
      },
      "pitchBends": [],
      "instrument": {
        "family": "piano",
        "number": 0,
        "name": "acoustic grand piano"
      },
      "name": "",
      "notes": []
    },
    {
      "channel": 7,
      "controlChanges": {
        "6": [
          {
            "number": 6,
            "ticks": 652,
            "time": 0.5433333333333333,
            "value": 0.015748031496062992
          }
        ],
        "7": [
          {
            "number": 7,
            "ticks": 540,
            "time": 0.45,
            "value": 0.7874015748031497
          }
        ],
        "10": [
          {
            "number": 10,
            "ticks": 541,
            "time": 0.4508333333333334,
            "value": 0.5039370078740157
          }
        ],
        "11": [
          {
            "number": 11,
            "ticks": 542,
            "time": 0.45166666666666666,
            "value": 1
          }
        ],
        "91": [
          {
            "number": 91,
            "ticks": 543,
            "time": 0.45250000000000007,
            "value": 0.4330708661417323
          }
        ],
        "93": [
          {
            "number": 93,
            "ticks": 544,
            "time": 0.45333333333333337,
            "value": 0.15748031496062992
          }
        ],
        "100": [
          {
            "number": 100,
            "ticks": 649,
            "time": 0.5408333333333334,
            "value": 0
          },
          {
            "number": 100,
            "ticks": 668,
            "time": 0.5566666666666666,
            "value": 1
          }
        ],
        "101": [
          {
            "number": 101,
            "ticks": 645,
            "time": 0.5375,
            "value": 0
          },
          {
            "number": 101,
            "ticks": 664,
            "time": 0.5533333333333333,
            "value": 1
          }
        ]
      },
      "pitchBends": [],
      "instrument": {
        "family": "pipe",
        "number": 79,
        "name": "ocarina"
      },
      "name": "",
      "notes": [
        {
          "duration": 0.3204782854166659,
          "durationTicks": 241,
          "midi": 69,
          "name": "A4",
          "ticks": 17999,
          "time": 23.041193964583336,
          "velocity": 0.6456692913385826
        },
        {
          "duration": 0.3191485000000007,
          "durationTicks": 240,
          "midi": 66,
          "name": "F#4",
          "ticks": 18480,
          "time": 23.68082075,
          "velocity": 0.6220472440944882
        },
        {
          "duration": 0.3271272124999953,
          "durationTicks": 246,
          "midi": 68,
          "name": "G#4",
          "ticks": 21599,
          "time": 27.828421464583336,
          "velocity": 0.6220472440944882
        },
        {
          "duration": 0.26861665416666725,
          "durationTicks": 202,
          "midi": 68,
          "name": "G#4",
          "ticks": 22321,
          "time": 28.788526535416665,
          "velocity": 0.6535433070866141
        },
        {
          "duration": 0.3071804312499964,
          "durationTicks": 231,
          "midi": 68,
          "name": "G#4",
          "ticks": 24719,
          "time": 31.977351964583335,
          "velocity": 0.6535433070866141
        },
        {
          "duration": 0.34707399375000136,
          "durationTicks": 261,
          "midi": 69,
          "name": "A4",
          "ticks": 25440,
          "time": 32.93612725,
          "velocity": 0.6456692913385826
        },
        {
          "duration": 0.26462729791666817,
          "durationTicks": 199,
          "midi": 66,
          "name": "F#4",
          "ticks": 26160,
          "time": 33.89357275,
          "velocity": 0.6062992125984252
        },
        {
          "duration": 0.3071804312500035,
          "durationTicks": 231,
          "midi": 66,
          "name": "F#4",
          "ticks": 26640,
          "time": 34.53186975,
          "velocity": 0.6535433070866141
        },
        {
          "duration": 0.2952123625000027,
          "durationTicks": 222,
          "midi": 66,
          "name": "F#4",
          "ticks": 27121,
          "time": 35.171496535416665,
          "velocity": 0.6220472440944882
        },
        {
          "duration": 0.3404250666666684,
          "durationTicks": 256,
          "midi": 66,
          "name": "F#4",
          "ticks": 28558,
          "time": 37.08239817916667,
          "velocity": 0.6141732283464567
        },
        {
          "duration": 0.2792549374999993,
          "durationTicks": 210,
          "midi": 68,
          "name": "G#4",
          "ticks": 29279,
          "time": 38.04117346458334,
          "velocity": 0.6456692913385826
        },
        {
          "duration": 0.2898932208333278,
          "durationTicks": 218,
          "midi": 68,
          "name": "G#4",
          "ticks": 29999,
          "time": 38.998618964583336,
          "velocity": 0.6220472440944882
        },
        {
          "duration": 0.3351059250000006,
          "durationTicks": 252,
          "midi": 68,
          "name": "G#4",
          "ticks": 32400,
          "time": 42.19143375,
          "velocity": 0.6062992125984252
        },
        {
          "duration": 0.3683505604166655,
          "durationTicks": 277,
          "midi": 69,
          "name": "A4",
          "ticks": 33119,
          "time": 43.147549464583335,
          "velocity": 0.6377952755905512
        }
      ]
    },
    {
      "channel": 0,
      "controlChanges": {
        "0": [
          {
            "number": 0,
            "ticks": 545,
            "time": 0.4541666666666667,
            "value": 0
          }
        ],
        "32": [
          {
            "number": 32,
            "ticks": 546,
            "time": 0.455,
            "value": 0
          }
        ]
      },
      "pitchBends": [],
      "instrument": {
        "family": "piano",
        "number": 0,
        "name": "acoustic grand piano"
      },
      "name": "",
      "notes": []
    },
    {
      "channel": 8,
      "controlChanges": {
        "6": [
          {
            "number": 6,
            "ticks": 665,
            "time": 0.5541666666666667,
            "value": 0.015748031496062992
          }
        ],
        "7": [
          {
            "number": 7,
            "ticks": 548,
            "time": 0.45666666666666667,
            "value": 0.7874015748031497
          }
        ],
        "10": [
          {
            "number": 10,
            "ticks": 549,
            "time": 0.4575,
            "value": 0.5039370078740157
          }
        ],
        "11": [
          {
            "number": 11,
            "ticks": 550,
            "time": 0.4583333333333333,
            "value": 1
          }
        ],
        "91": [
          {
            "number": 91,
            "ticks": 551,
            "time": 0.4591666666666667,
            "value": 0.4330708661417323
          }
        ],
        "93": [
          {
            "number": 93,
            "ticks": 552,
            "time": 0.45999999999999996,
            "value": 0.15748031496062992
          }
        ],
        "100": [
          {
            "number": 100,
            "ticks": 661,
            "time": 0.5508333333333334,
            "value": 0
          },
          {
            "number": 100,
            "ticks": 673,
            "time": 0.5608333333333334,
            "value": 1
          }
        ],
        "101": [
          {
            "number": 101,
            "ticks": 657,
            "time": 0.5475,
            "value": 0
          },
          {
            "number": 101,
            "ticks": 669,
            "time": 0.5575,
            "value": 1
          }
        ]
      },
      "pitchBends": [],
      "instrument": {
        "family": "synth pad",
        "number": 89,
        "name": "pad 2 (warm)"
      },
      "name": "",
      "notes": [
        {
          "duration": 4.9787166,
          "durationTicks": 3744,
          "midi": 62,
          "name": "D4",
          "ticks": 2639,
          "time": 2.6156899645833334,
          "velocity": 0.6535433070866141
        },
        {
          "duration": 5.087759004166667,
          "durationTicks": 3826,
          "midi": 66,
          "name": "F#4",
          "ticks": 2639,
          "time": 2.6156899645833334,
          "velocity": 0.6929133858267716
        },
        {
          "duration": 5.158237631249999,
          "durationTicks": 3879,
          "midi": 64,
          "name": "E4",
          "ticks": 6479,
          "time": 7.722065964583334,
          "velocity": 0.7007874015748031
        },
        {
          "duration": 5.061163295833333,
          "durationTicks": 3806,
          "midi": 68,
          "name": "G#4",
          "ticks": 6479,
          "time": 7.722065964583334,
          "velocity": 0.6771653543307087
        },
        {
          "duration": 5.067812222916666,
          "durationTicks": 3811,
          "midi": 62,
          "name": "D4",
          "ticks": 10320,
          "time": 12.82977175,
          "velocity": 0.6535433070866141
        },
        {
          "duration": 5.171535485416667,
          "durationTicks": 3889,
          "midi": 66,
          "name": "F#4",
          "ticks": 10320,
          "time": 12.82977175,
          "velocity": 0.6377952755905512
        },
        {
          "duration": 4.941482608333338,
          "durationTicks": 3716,
          "midi": 64,
          "name": "E4",
          "ticks": 14159,
          "time": 17.93481796458333,
          "velocity": 0.6377952755905512
        },
        {
          "duration": 4.941482608333338,
          "durationTicks": 3716,
          "midi": 68,
          "name": "G#4",
          "ticks": 14159,
          "time": 17.93481796458333,
          "velocity": 0.6299212598425197
        },
        {
          "duration": 4.585100116666663,
          "durationTicks": 3448,
          "midi": 62,
          "name": "D4",
          "ticks": 17999,
          "time": 23.041193964583336,
          "velocity": 0.6614173228346457
        },
        {
          "duration": 4.643610674999998,
          "durationTicks": 3492,
          "midi": 66,
          "name": "F#4",
          "ticks": 17999,
          "time": 23.041193964583336,
          "velocity": 0.6377952755905512
        },
        {
          "duration": 4.581110760416664,
          "durationTicks": 3445,
          "midi": 69,
          "name": "A4",
          "ticks": 17999,
          "time": 23.041193964583336,
          "velocity": 0.6850393700787402
        },
        {
          "duration": 5.372333083333331,
          "durationTicks": 4040,
          "midi": 64,
          "name": "E4",
          "ticks": 21599,
          "time": 27.828421464583336,
          "velocity": 0.6614173228346457
        },
        {
          "duration": 5.31914166666666,
          "durationTicks": 4000,
          "midi": 59,
          "name": "B3",
          "ticks": 21599,
          "time": 27.828421464583336,
          "velocity": 0.7244094488188977
        },
        {
          "duration": 5.356375658333327,
          "durationTicks": 4028,
          "midi": 68,
          "name": "G#4",
          "ticks": 21599,
          "time": 27.828421464583336,
          "velocity": 0.5433070866141733
        },
        {
          "duration": 4.590419258333327,
          "durationTicks": 3452,
          "midi": 62,
          "name": "D4",
          "ticks": 25679,
          "time": 33.25394596458334,
          "velocity": 0.6299212598425197
        },
        {
          "duration": 4.654248958333326,
          "durationTicks": 3500,
          "midi": 66,
          "name": "F#4",
          "ticks": 25679,
          "time": 33.25394596458334,
          "velocity": 0.6929133858267716
        },
        {
          "duration": 4.587759687499997,
          "durationTicks": 3450,
          "midi": 69,
          "name": "A4",
          "ticks": 25679,
          "time": 33.25394596458334,
          "velocity": 0.7322834645669292
        },
        {
          "duration": 5.69281136875,
          "durationTicks": 4281,
          "midi": 64,
          "name": "E4",
          "ticks": 29279,
          "time": 38.04117346458334,
          "velocity": 0.6535433070866141
        },
        {
          "duration": 5.678183729166662,
          "durationTicks": 4270,
          "midi": 59,
          "name": "B3",
          "ticks": 29279,
          "time": 38.04117346458334,
          "velocity": 0.6535433070866141
        },
        {
          "duration": 5.68882201249999,
          "durationTicks": 4278,
          "midi": 68,
          "name": "G#4",
          "ticks": 29279,
          "time": 38.04117346458334,
          "velocity": 0.6062992125984252
        },
        {
          "duration": 3.5997291229166635,
          "durationTicks": 2707,
          "midi": 57,
          "name": "A3",
          "ticks": 33600,
          "time": 43.78717625,
          "velocity": 0.3779527559055118
        },
        {
          "duration": 3.650260968749997,
          "durationTicks": 2745,
          "midi": 54,
          "name": "F#3",
          "ticks": 33600,
          "time": 43.78717625,
          "velocity": 0.33070866141732286
        },
        {
          "duration": 3.6795162479166663,
          "durationTicks": 2767,
          "midi": 62,
          "name": "D4",
          "ticks": 33600,
          "time": 43.78717625,
          "velocity": 0.3700787401574803
        },
        {
          "duration": 0.9521263583333308,
          "durationTicks": 716,
          "midi": 57,
          "name": "A3",
          "ticks": 36478,
          "time": 47.614298679166666,
          "velocity": 0.36220472440944884
        },
        {
          "duration": 0.9202115083333311,
          "durationTicks": 692,
          "midi": 64,
          "name": "E4",
          "ticks": 36478,
          "time": 47.614298679166666,
          "velocity": 0.3700787401574803
        },
        {
          "duration": 0.9202115083333311,
          "durationTicks": 692,
          "midi": 61,
          "name": "C#4",
          "ticks": 36478,
          "time": 47.614298679166666,
          "velocity": 0.3779527559055118
        },
        {
          "duration": 4.150260285416664,
          "durationTicks": 3121,
          "midi": 64,
          "name": "E4",
          "ticks": 37199,
          "time": 48.57307396458334,
          "velocity": 0.36220472440944884
        },
        {
          "duration": 4.150260285416664,
          "durationTicks": 3121,
          "midi": 68,
          "name": "G#4",
          "ticks": 37199,
          "time": 48.57307396458334,
          "velocity": 0.33858267716535434
        },
        {
          "duration": 4.150260285416664,
          "durationTicks": 3121,
          "midi": 59,
          "name": "B3",
          "ticks": 37199,
          "time": 48.57307396458334,
          "velocity": 0.3700787401574803
        }
      ]
    },
    {
      "channel": 0,
      "controlChanges": {
        "0": [
          {
            "number": 0,
            "ticks": 553,
            "time": 0.4608333333333334,
            "value": 0
          }
        ],
        "32": [
          {
            "number": 32,
            "ticks": 554,
            "time": 0.46166666666666667,
            "value": 0
          }
        ]
      },
      "pitchBends": [],
      "instrument": {
        "family": "piano",
        "number": 0,
        "name": "acoustic grand piano"
      },
      "name": "",
      "notes": []
    },
    {
      "channel": 9,
      "controlChanges": {
        "7": [
          {
            "number": 7,
            "ticks": 556,
            "time": 0.4633333333333334,
            "value": 1
          }
        ],
        "10": [
          {
            "number": 10,
            "ticks": 557,
            "time": 0.46416666666666667,
            "value": 0.5039370078740157
          }
        ],
        "11": [
          {
            "number": 11,
            "ticks": 558,
            "time": 0.4650000000000001,
            "value": 1
          }
        ],
        "91": [
          {
            "number": 91,
            "ticks": 559,
            "time": 0.4658333333333333,
            "value": 0.36220472440944884
          }
        ],
        "93": [
          {
            "number": 93,
            "ticks": 560,
            "time": 0.46666666666666673,
            "value": 0
          }
        ]
      },
      "pitchBends": [],
      "instrument": {
        "family": "drums",
        "number": 25,
        "name": "tr-808 kit"
      },
      "name": "",
      "notes": [
        {
          "duration": 0.006648927083333422,
          "durationTicks": 5,
          "midi": 36,
          "name": "C2",
          "ticks": 1920,
          "time": 1.65957425,
          "velocity": 0.7874015748031497
        },
        {
          "duration": 0.006648927083333422,
          "durationTicks": 5,
          "midi": 36,
          "name": "C2",
          "ticks": 2280,
          "time": 2.138297,
          "velocity": 0.7874015748031497
        },
        {
          "duration": 0.007978712500000373,
          "durationTicks": 6,
          "midi": 40,
          "name": "E2",
          "ticks": 2399,
          "time": 2.296541464583333,
          "velocity": 0.7716535433070866
        },
        {
          "duration": 0.007978712500000373,
          "durationTicks": 6,
          "midi": 42,
          "name": "F#2",
          "ticks": 2399,
          "time": 2.296541464583333,
          "velocity": 0.6614173228346457
        },
        {
          "duration": 0.00797871249999993,
          "durationTicks": 6,
          "midi": 36,
          "name": "C2",
          "ticks": 2639,
          "time": 2.6156899645833334,
          "velocity": 0.7874015748031497
        },
        {
          "duration": 0.00797871249999993,
          "durationTicks": 6,
          "midi": 36,
          "name": "C2",
          "ticks": 2879,
          "time": 2.9348384645833336,
          "velocity": 0.7874015748031497
        },
        {
          "duration": 0.006648927083333422,
          "durationTicks": 5,
          "midi": 36,
          "name": "C2",
          "ticks": 3240,
          "time": 3.414891,
          "velocity": 0.7874015748031497
        },
        {
          "duration": 0.006648927083333422,
          "durationTicks": 5,
          "midi": 40,
          "name": "E2",
          "ticks": 3359,
          "time": 3.5731354645833333,
          "velocity": 0.7322834645669292
        },
        {
          "duration": 0.00797871249999993,
          "durationTicks": 6,
          "midi": 42,
          "name": "F#2",
          "ticks": 3359,
          "time": 3.5731354645833333,
          "velocity": 0.6771653543307087
        },
        {
          "duration": 0.00797871249999993,
          "durationTicks": 6,
          "midi": 36,
          "name": "C2",
          "ticks": 3839,
          "time": 4.211432464583334,
          "velocity": 0.7874015748031497
        },
        {
          "duration": 0.006648927083332978,
          "durationTicks": 5,
          "midi": 36,
          "name": "C2",
          "ticks": 4200,
          "time": 4.691485,
          "velocity": 0.7874015748031497
        },
        {
          "duration": 0.00797871249999993,
          "durationTicks": 6,
          "midi": 42,
          "name": "F#2",
          "ticks": 4318,
          "time": 4.848399679166667,
          "velocity": 0.6692913385826772
        },
        {
          "duration": 0.0066489270833338665,
          "durationTicks": 5,
          "midi": 40,
          "name": "E2",
          "ticks": 4321,
          "time": 4.8523890354166666,
          "velocity": 0.7716535433070866
        },
        {
          "duration": 0.006648927083332978,
          "durationTicks": 5,
          "midi": 36,
          "name": "C2",
          "ticks": 4800,
          "time": 5.48935625,
          "velocity": 0.7874015748031497
        },
        {
          "duration": 0.006648927083332978,
          "durationTicks": 5,
          "midi": 36,
          "name": "C2",
          "ticks": 5160,
          "time": 5.968079,
          "velocity": 0.7874015748031497
        },
        {
          "duration": 0.00797871249999993,
          "durationTicks": 6,
          "midi": 42,
          "name": "F#2",
          "ticks": 5279,
          "time": 6.126323464583334,
          "velocity": 0.6614173228346457
        },
        {
          "duration": 0.00797871249999993,
          "durationTicks": 6,
          "midi": 40,
          "name": "E2",
          "ticks": 5279,
          "time": 6.126323464583334,
          "velocity": 0.7322834645669292
        },
        {
          "duration": 0.00797871249999993,
          "durationTicks": 6,
          "midi": 36,
          "name": "C2",
          "ticks": 5759,
          "time": 6.764620464583333,
          "velocity": 0.7874015748031497
        },
        {
          "duration": 0.007978712499999041,
          "durationTicks": 6,
          "midi": 36,
          "name": "C2",
          "ticks": 6119,
          "time": 7.243343214583334,
          "velocity": 0.7874015748031497
        },
        {
          "duration": 0.006648927083332978,
          "durationTicks": 5,
          "midi": 40,
          "name": "E2",
          "ticks": 6239,
          "time": 7.402917464583333,
          "velocity": 0.7637795275590551
        },
        {
          "duration": 0.006648927083332978,
          "durationTicks": 5,
          "midi": 42,
          "name": "F#2",
          "ticks": 6239,
          "time": 7.402917464583333,
          "velocity": 0.6771653543307087
        },
        {
          "duration": 0.007978712499999041,
          "durationTicks": 6,
          "midi": 36,
          "name": "C2",
          "ticks": 6479,
          "time": 7.722065964583334,
          "velocity": 0.7874015748031497
        },
        {
          "duration": 0.006648927083332978,
          "durationTicks": 5,
          "midi": 36,
          "name": "C2",
          "ticks": 6720,
          "time": 8.042544249999999,
          "velocity": 0.7874015748031497
        },
        {
          "duration": 0.006648927083332978,
          "durationTicks": 5,
          "midi": 36,
          "name": "C2",
          "ticks": 7080,
          "time": 8.521267,
          "velocity": 0.7874015748031497
        },
        {
          "duration": 0.006648927083332978,
          "durationTicks": 5,
          "midi": 40,
          "name": "E2",
          "ticks": 7199,
          "time": 8.679511464583333,
          "velocity": 0.7401574803149606
        },
        {
          "duration": 0.006648927083332978,
          "durationTicks": 5,
          "midi": 42,
          "name": "F#2",
          "ticks": 7202,
          "time": 8.683500820833334,
          "velocity": 0.6614173228346457
        },
        {
          "duration": 0.00797871249999993,
          "durationTicks": 6,
          "midi": 36,
          "name": "C2",
          "ticks": 7679,
          "time": 9.317808464583333,
          "velocity": 0.7874015748031497
        },
        {
          "duration": 0.006648927083332978,
          "durationTicks": 5,
          "midi": 36,
          "name": "C2",
          "ticks": 8040,
          "time": 9.797861,
          "velocity": 0.7874015748031497
        },
        {
          "duration": 0.006648927083332978,
          "durationTicks": 5,
          "midi": 40,
          "name": "E2",
          "ticks": 8160,
          "time": 9.95743525,
          "velocity": 0.7401574803149606
        },
        {
          "duration": 0.006648927083332978,
          "durationTicks": 5,
          "midi": 42,
          "name": "F#2",
          "ticks": 8160,
          "time": 9.95743525,
          "velocity": 0.6771653543307087
        },
        {
          "duration": 0.007978712499998153,
          "durationTicks": 6,
          "midi": 36,
          "name": "C2",
          "ticks": 8639,
          "time": 10.594402464583334,
          "velocity": 0.7874015748031497
        },
        {
          "duration": 0.006648927083332978,
          "durationTicks": 5,
          "midi": 36,
          "name": "C2",
          "ticks": 9000,
          "time": 11.074455,
          "velocity": 0.7874015748031497
        },
        {
          "duration": 0.006648927083332978,
          "durationTicks": 5,
          "midi": 40,
          "name": "E2",
          "ticks": 9119,
          "time": 11.232699464583334,
          "velocity": 0.7244094488188977
        },
        {
          "duration": 0.006648927083332978,
          "durationTicks": 5,
          "midi": 42,
          "name": "F#2",
          "ticks": 9119,
          "time": 11.232699464583334,
          "velocity": 0.6535433070866141
        },
        {
          "duration": 0.007978712500001706,
          "durationTicks": 6,
          "midi": 36,
          "name": "C2",
          "ticks": 9599,
          "time": 11.870996464583332,
          "velocity": 0.7874015748031497
        },
        {
          "duration": 0.006648927083334755,
          "durationTicks": 5,
          "midi": 36,
          "name": "C2",
          "ticks": 9960,
          "time": 12.351049,
          "velocity": 0.7874015748031497
        },
        {
          "duration": 0.006648927083332978,
          "durationTicks": 5,
          "midi": 40,
          "name": "E2",
          "ticks": 10079,
          "time": 12.509293464583333,
          "velocity": 0.7716535433070866
        },
        {
          "duration": 0.006648927083332978,
          "durationTicks": 5,
          "midi": 42,
          "name": "F#2",
          "ticks": 10079,
          "time": 12.509293464583333,
          "velocity": 0.6929133858267716
        },
        {
          "duration": 0.006648927083332978,
          "durationTicks": 5,
          "midi": 36,
          "name": "C2",
          "ticks": 10320,
          "time": 12.82977175,
          "velocity": 0.7874015748031497
        },
        {
          "duration": 0.006648927083334755,
          "durationTicks": 5,
          "midi": 36,
          "name": "C2",
          "ticks": 10560,
          "time": 13.14892025,
          "velocity": 0.7874015748031497
        },
        {
          "duration": 0.006648927083332978,
          "durationTicks": 5,
          "midi": 36,
          "name": "C2",
          "ticks": 10920,
          "time": 13.627643,
          "velocity": 0.7874015748031497
        },
        {
          "duration": 0.006648927083334755,
          "durationTicks": 5,
          "midi": 40,
          "name": "E2",
          "ticks": 11039,
          "time": 13.785887464583332,
          "velocity": 0.7322834645669292
        },
        {
          "duration": 0.006648927083334755,
          "durationTicks": 5,
          "midi": 42,
          "name": "F#2",
          "ticks": 11040,
          "time": 13.78721725,
          "velocity": 0.6771653543307087
        },
        {
          "duration": 0.006648927083332978,
          "durationTicks": 5,
          "midi": 36,
          "name": "C2",
          "ticks": 11520,
          "time": 14.42551425,
          "velocity": 0.7874015748031497
        },
        {
          "duration": 0.006648927083334755,
          "durationTicks": 5,
          "midi": 36,
          "name": "C2",
          "ticks": 11880,
          "time": 14.904237,
          "velocity": 0.7874015748031497
        },
        {
          "duration": 0.006648927083334755,
          "durationTicks": 5,
          "midi": 40,
          "name": "E2",
          "ticks": 11999,
          "time": 15.062481464583332,
          "velocity": 0.7559055118110236
        },
        {
          "duration": 0.006648927083334755,
          "durationTicks": 5,
          "midi": 42,
          "name": "F#2",
          "ticks": 11999,
          "time": 15.062481464583332,
          "velocity": 0.6850393700787402
        },
        {
          "duration": 0.006648927083334755,
          "durationTicks": 5,
          "midi": 36,
          "name": "C2",
          "ticks": 12480,
          "time": 15.70210825,
          "velocity": 0.7874015748031497
        },
        {
          "duration": 0.007978712500001706,
          "durationTicks": 6,
          "midi": 36,
          "name": "C2",
          "ticks": 12839,
          "time": 16.179501214583333,
          "velocity": 0.7874015748031497
        },
        {
          "duration": 0.006648927083332978,
          "durationTicks": 5,
          "midi": 42,
          "name": "F#2",
          "ticks": 12959,
          "time": 16.33907546458333,
          "velocity": 0.6692913385826772
        },
        {
          "duration": 0.006648927083332978,
          "durationTicks": 5,
          "midi": 40,
          "name": "E2",
          "ticks": 12959,
          "time": 16.33907546458333,
          "velocity": 0.7716535433070866
        },
        {
          "duration": 0.007978712500001706,
          "durationTicks": 6,
          "midi": 36,
          "name": "C2",
          "ticks": 13439,
          "time": 16.977372464583333,
          "velocity": 0.7874015748031497
        },
        {
          "duration": 0.007978712500001706,
          "durationTicks": 6,
          "midi": 36,
          "name": "C2",
          "ticks": 13799,
          "time": 17.456095214583332,
          "velocity": 0.7874015748031497
        },
        {
          "duration": 0.007978712500001706,
          "durationTicks": 6,
          "midi": 42,
          "name": "F#2",
          "ticks": 13918,
          "time": 17.614339679166665,
          "velocity": 0.6929133858267716
        },
        {
          "duration": 0.006648927083336531,
          "durationTicks": 5,
          "midi": 40,
          "name": "E2",
          "ticks": 13920,
          "time": 17.61699925,
          "velocity": 0.7244094488188977
        },
        {
          "duration": 0.007978712500001706,
          "durationTicks": 6,
          "midi": 36,
          "name": "C2",
          "ticks": 14159,
          "time": 17.93481796458333,
          "velocity": 0.7874015748031497
        },
        {
          "duration": 0.007978712500001706,
          "durationTicks": 6,
          "midi": 36,
          "name": "C2",
          "ticks": 14399,
          "time": 18.253966464583332,
          "velocity": 0.7874015748031497
        },
        {
          "duration": 0.006648927083332978,
          "durationTicks": 5,
          "midi": 36,
          "name": "C2",
          "ticks": 14760,
          "time": 18.734019,
          "velocity": 0.7874015748031497
        },
        {
          "duration": 0.006648927083332978,
          "durationTicks": 5,
          "midi": 40,
          "name": "E2",
          "ticks": 14879,
          "time": 18.892263464583333,
          "velocity": 0.7322834645669292
        },
        {
          "duration": 0.005319141666667804,
          "durationTicks": 4,
          "midi": 42,
          "name": "F#2",
          "ticks": 14882,
          "time": 18.896252820833332,
          "velocity": 0.6771653543307087
        },
        {
          "duration": 0.006648927083332978,
          "durationTicks": 5,
          "midi": 36,
          "name": "C2",
          "ticks": 15360,
          "time": 19.53189025,
          "velocity": 0.7874015748031497
        },
        {
          "duration": 0.006648927083336531,
          "durationTicks": 5,
          "midi": 36,
          "name": "C2",
          "ticks": 15720,
          "time": 20.010613,
          "velocity": 0.7874015748031497
        },
        {
          "duration": 0.007978712500001706,
          "durationTicks": 6,
          "midi": 42,
          "name": "F#2",
          "ticks": 15839,
          "time": 20.168857464583333,
          "velocity": 0.6850393700787402
        },
        {
          "duration": 0.007978712500001706,
          "durationTicks": 6,
          "midi": 40,
          "name": "E2",
          "ticks": 15839,
          "time": 20.168857464583333,
          "velocity": 0.7716535433070866
        },
        {
          "duration": 0.007978712500005258,
          "durationTicks": 6,
          "midi": 36,
          "name": "C2",
          "ticks": 16319,
          "time": 20.80715446458333,
          "velocity": 0.7874015748031497
        },
        {
          "duration": 0.006648927083329426,
          "durationTicks": 5,
          "midi": 36,
          "name": "C2",
          "ticks": 18240,
          "time": 23.36167225,
          "velocity": 0.7874015748031497
        },
        {
          "duration": 0.006648927083329426,
          "durationTicks": 5,
          "midi": 36,
          "name": "C2",
          "ticks": 18600,
          "time": 23.840395,
          "velocity": 0.7874015748031497
        },
        {
          "duration": 0.005319141666667804,
          "durationTicks": 4,
          "midi": 40,
          "name": "E2",
          "ticks": 18720,
          "time": 23.99996925,
          "velocity": 0.7559055118110236
        },
        {
          "duration": 0.005319141666667804,
          "durationTicks": 4,
          "midi": 42,
          "name": "F#2",
          "ticks": 18720,
          "time": 23.99996925,
          "velocity": 0.6929133858267716
        },
        {
          "duration": 0.006648927083329426,
          "durationTicks": 5,
          "midi": 36,
          "name": "C2",
          "ticks": 19200,
          "time": 24.63826625,
          "velocity": 0.7874015748031497
        },
        {
          "duration": 0.006648927083332978,
          "durationTicks": 5,
          "midi": 36,
          "name": "C2",
          "ticks": 19560,
          "time": 25.116989,
          "velocity": 0.7874015748031497
        },
        {
          "duration": 0.007978712500001706,
          "durationTicks": 6,
          "midi": 42,
          "name": "F#2",
          "ticks": 19678,
          "time": 25.273903679166665,
          "velocity": 0.6929133858267716
        },
        {
          "duration": 0.00930849791666688,
          "durationTicks": 7,
          "midi": 40,
          "name": "E2",
          "ticks": 19679,
          "time": 25.275233464583334,
          "velocity": 0.7480314960629921
        },
        {
          "duration": 0.007978712499998153,
          "durationTicks": 6,
          "midi": 36,
          "name": "C2",
          "ticks": 20159,
          "time": 25.913530464583335,
          "velocity": 0.7874015748031497
        },
        {
          "duration": 0.007978712499998153,
          "durationTicks": 6,
          "midi": 36,
          "name": "C2",
          "ticks": 20519,
          "time": 26.392253214583334,
          "velocity": 0.7874015748031497
        },
        {
          "duration": 0.006648927083332978,
          "durationTicks": 5,
          "midi": 42,
          "name": "F#2",
          "ticks": 20639,
          "time": 26.551827464583333,
          "velocity": 0.6771653543307087
        },
        {
          "duration": 0.006648927083336531,
          "durationTicks": 5,
          "midi": 40,
          "name": "E2",
          "ticks": 20641,
          "time": 26.554487035416667,
          "velocity": 0.7322834645669292
        },
        {
          "duration": 0.006648927083332978,
          "durationTicks": 5,
          "midi": 36,
          "name": "C2",
          "ticks": 21120,
          "time": 27.19145425,
          "velocity": 0.7874015748031497
        },
        {
          "duration": 0.007978712499998153,
          "durationTicks": 6,
          "midi": 36,
          "name": "C2",
          "ticks": 21479,
          "time": 27.668847214583334,
          "velocity": 0.7874015748031497
        },
        {
          "duration": 0.00930849791666688,
          "durationTicks": 7,
          "midi": 40,
          "name": "E2",
          "ticks": 21599,
          "time": 27.828421464583336,
          "velocity": 0.7637795275590551
        },
        {
          "duration": 0.00930849791666688,
          "durationTicks": 7,
          "midi": 42,
          "name": "F#2",
          "ticks": 21599,
          "time": 27.828421464583336,
          "velocity": 0.6535433070866141
        },
        {
          "duration": 0.007978712499998153,
          "durationTicks": 6,
          "midi": 36,
          "name": "C2",
          "ticks": 21839,
          "time": 28.147569964583333,
          "velocity": 0.7874015748031497
        },
        {
          "duration": 0.006648927083332978,
          "durationTicks": 5,
          "midi": 36,
          "name": "C2",
          "ticks": 22080,
          "time": 28.46804825,
          "velocity": 0.7874015748031497
        },
        {
          "duration": 0.006648927083329426,
          "durationTicks": 5,
          "midi": 36,
          "name": "C2",
          "ticks": 22440,
          "time": 28.946771000000002,
          "velocity": 0.7874015748031497
        },
        {
          "duration": 0.006648927083336531,
          "durationTicks": 5,
          "midi": 42,
          "name": "F#2",
          "ticks": 22558,
          "time": 29.103685679166663,
          "velocity": 0.6456692913385826
        },
        {
          "duration": 0.007978712499998153,
          "durationTicks": 6,
          "midi": 40,
          "name": "E2",
          "ticks": 22559,
          "time": 29.105015464583335,
          "velocity": 0.7559055118110236
        },
        {
          "duration": 0.006648927083329426,
          "durationTicks": 5,
          "midi": 36,
          "name": "C2",
          "ticks": 23040,
          "time": 29.744642250000002,
          "velocity": 0.7874015748031497
        },
        {
          "duration": 0.006648927083329426,
          "durationTicks": 5,
          "midi": 36,
          "name": "C2",
          "ticks": 23400,
          "time": 30.223365,
          "velocity": 0.7874015748031497
        },
        {
          "duration": 0.006648927083332978,
          "durationTicks": 5,
          "midi": 40,
          "name": "E2",
          "ticks": 23520,
          "time": 30.38293925,
          "velocity": 0.7480314960629921
        },
        {
          "duration": 0.006648927083336531,
          "durationTicks": 5,
          "midi": 42,
          "name": "F#2",
          "ticks": 23521,
          "time": 30.384269035416665,
          "velocity": 0.6535433070866141
        },
        {
          "duration": 0.0079787124999946,
          "durationTicks": 6,
          "midi": 36,
          "name": "C2",
          "ticks": 23999,
          "time": 31.019906464583336,
          "velocity": 0.7874015748031497
        },
        {
          "duration": 0.006648927083332978,
          "durationTicks": 5,
          "midi": 36,
          "name": "C2",
          "ticks": 24360,
          "time": 31.499959,
          "velocity": 0.7874015748031497
        },
        {
          "duration": 0.005319141666667804,
          "durationTicks": 4,
          "midi": 42,
          "name": "F#2",
          "ticks": 24479,
          "time": 31.658203464583334,
          "velocity": 0.6614173228346457
        },
        {
          "duration": 0.006648927083332978,
          "durationTicks": 5,
          "midi": 40,
          "name": "E2",
          "ticks": 24480,
          "time": 31.65953325,
          "velocity": 0.7559055118110236
        },
        {
          "duration": 0.007978712500005258,
          "durationTicks": 6,
          "midi": 36,
          "name": "C2",
          "ticks": 24959,
          "time": 32.29650046458333,
          "velocity": 0.7874015748031497
        },
        {
          "duration": 0.006648927083332978,
          "durationTicks": 5,
          "midi": 36,
          "name": "C2",
          "ticks": 25320,
          "time": 32.776553,
          "velocity": 0.7874015748031497
        },
        {
          "duration": 0.006648927083332978,
          "durationTicks": 5,
          "midi": 42,
          "name": "F#2",
          "ticks": 25439,
          "time": 32.93479746458333,
          "velocity": 0.6929133858267716
        },
        {
          "duration": 0.006648927083332978,
          "durationTicks": 5,
          "midi": 40,
          "name": "E2",
          "ticks": 25440,
          "time": 32.93612725,
          "velocity": 0.7244094488188977
        },
        {
          "duration": 0.007978712499991047,
          "durationTicks": 6,
          "midi": 36,
          "name": "C2",
          "ticks": 25679,
          "time": 33.25394596458334,
          "velocity": 0.7874015748031497
        },
        {
          "duration": 0.006648927083332978,
          "durationTicks": 5,
          "midi": 36,
          "name": "C2",
          "ticks": 25920,
          "time": 33.57442425,
          "velocity": 0.7874015748031497
        },
        {
          "duration": 0.006648927083325873,
          "durationTicks": 5,
          "midi": 36,
          "name": "C2",
          "ticks": 26280,
          "time": 34.053147,
          "velocity": 0.7874015748031497
        },
        {
          "duration": 0.007978712499998153,
          "durationTicks": 6,
          "midi": 40,
          "name": "E2",
          "ticks": 26400,
          "time": 34.21272125,
          "velocity": 0.7637795275590551
        },
        {
          "duration": 0.007978712499998153,
          "durationTicks": 6,
          "midi": 42,
          "name": "F#2",
          "ticks": 26400,
          "time": 34.21272125,
          "velocity": 0.6850393700787402
        },
        {
          "duration": 0.006648927083325873,
          "durationTicks": 5,
          "midi": 36,
          "name": "C2",
          "ticks": 26880,
          "time": 34.85101825,
          "velocity": 0.7874015748031497
        },
        {
          "duration": 0.006648927083332978,
          "durationTicks": 5,
          "midi": 36,
          "name": "C2",
          "ticks": 27240,
          "time": 35.329741,
          "velocity": 0.7874015748031497
        },
        {
          "duration": 0.006648927083332978,
          "durationTicks": 5,
          "midi": 42,
          "name": "F#2",
          "ticks": 27358,
          "time": 35.48665567916667,
          "velocity": 0.6614173228346457
        },
        {
          "duration": 0.006648927083332978,
          "durationTicks": 5,
          "midi": 40,
          "name": "E2",
          "ticks": 27360,
          "time": 35.48931525,
          "velocity": 0.7716535433070866
        },
        {
          "duration": 0.006648927083332978,
          "durationTicks": 5,
          "midi": 36,
          "name": "C2",
          "ticks": 27840,
          "time": 36.12761225,
          "velocity": 0.7874015748031497
        },
        {
          "duration": 0.006648927083332978,
          "durationTicks": 5,
          "midi": 36,
          "name": "C2",
          "ticks": 28200,
          "time": 36.606335,
          "velocity": 0.7874015748031497
        },
        {
          "duration": 0.006648927083332978,
          "durationTicks": 5,
          "midi": 40,
          "name": "E2",
          "ticks": 28319,
          "time": 36.764579464583335,
          "velocity": 0.7637795275590551
        },
        {
          "duration": 0.006648927083332978,
          "durationTicks": 5,
          "midi": 42,
          "name": "F#2",
          "ticks": 28322,
          "time": 36.76856882083334,
          "velocity": 0.6535433070866141
        },
        {
          "duration": 0.007978712499998153,
          "durationTicks": 6,
          "midi": 36,
          "name": "C2",
          "ticks": 28799,
          "time": 37.402876464583336,
          "velocity": 0.7874015748031497
        },
        {
          "duration": 0.006648927083332978,
          "durationTicks": 5,
          "midi": 36,
          "name": "C2",
          "ticks": 29160,
          "time": 37.882929,
          "velocity": 0.7874015748031497
        },
        {
          "duration": 0.006648927083325873,
          "durationTicks": 5,
          "midi": 42,
          "name": "F#2",
          "ticks": 29279,
          "time": 38.04117346458334,
          "velocity": 0.6535433070866141
        },
        {
          "duration": 0.009308497916663327,
          "durationTicks": 7,
          "midi": 40,
          "name": "E2",
          "ticks": 29279,
          "time": 38.04117346458334,
          "velocity": 0.7716535433070866
        },
        {
          "duration": 0.007978712499998153,
          "durationTicks": 6,
          "midi": 36,
          "name": "C2",
          "ticks": 29519,
          "time": 38.360321964583335,
          "velocity": 0.7874015748031497
        },
        {
          "duration": 0.006648927083332978,
          "durationTicks": 5,
          "midi": 36,
          "name": "C2",
          "ticks": 29760,
          "time": 38.68080025,
          "velocity": 0.7874015748031497
        },
        {
          "duration": 0.006648927083332978,
          "durationTicks": 5,
          "midi": 36,
          "name": "C2",
          "ticks": 30120,
          "time": 39.159523,
          "velocity": 0.7874015748031497
        },
        {
          "duration": 0.007978712499998153,
          "durationTicks": 6,
          "midi": 40,
          "name": "E2",
          "ticks": 30239,
          "time": 39.31776746458333,
          "velocity": 0.7244094488188977
        },
        {
          "duration": 0.007978712499998153,
          "durationTicks": 6,
          "midi": 42,
          "name": "F#2",
          "ticks": 30239,
          "time": 39.31776746458333,
          "velocity": 0.6929133858267716
        },
        {
          "duration": 0.007978712499998153,
          "durationTicks": 6,
          "midi": 36,
          "name": "C2",
          "ticks": 30719,
          "time": 39.956064464583335,
          "velocity": 0.7874015748031497
        },
        {
          "duration": 0.006648927083325873,
          "durationTicks": 5,
          "midi": 36,
          "name": "C2",
          "ticks": 31080,
          "time": 40.436117,
          "velocity": 0.7874015748031497
        },
        {
          "duration": 0.007978712499998153,
          "durationTicks": 6,
          "midi": 40,
          "name": "E2",
          "ticks": 31199,
          "time": 40.594361464583336,
          "velocity": 0.7637795275590551
        },
        {
          "duration": 0.007978712499998153,
          "durationTicks": 6,
          "midi": 42,
          "name": "F#2",
          "ticks": 31199,
          "time": 40.594361464583336,
          "velocity": 0.6692913385826772
        },
        {
          "duration": 0.006648927083325873,
          "durationTicks": 5,
          "midi": 36,
          "name": "C2",
          "ticks": 31680,
          "time": 41.23398825,
          "velocity": 0.7874015748031497
        },
        {
          "duration": 0.006648927083332978,
          "durationTicks": 5,
          "midi": 36,
          "name": "C2",
          "ticks": 32040,
          "time": 41.712711,
          "velocity": 0.7874015748031497
        },
        {
          "duration": 0.006648927083340084,
          "durationTicks": 5,
          "midi": 40,
          "name": "E2",
          "ticks": 32161,
          "time": 41.87361503541666,
          "velocity": 0.7559055118110236
        },
        {
          "duration": 0.006648927083340084,
          "durationTicks": 5,
          "midi": 42,
          "name": "F#2",
          "ticks": 32161,
          "time": 41.87361503541666,
          "velocity": 0.6692913385826772
        },
        {
          "duration": 0.007978712500005258,
          "durationTicks": 6,
          "midi": 36,
          "name": "C2",
          "ticks": 32639,
          "time": 42.509252464583334,
          "velocity": 0.7874015748031497
        },
        {
          "duration": 0.007978712499998153,
          "durationTicks": 6,
          "midi": 36,
          "name": "C2",
          "ticks": 32999,
          "time": 42.98797521458334,
          "velocity": 0.7874015748031497
        },
        {
          "duration": 0.006648927083332978,
          "durationTicks": 5,
          "midi": 40,
          "name": "E2",
          "ticks": 33119,
          "time": 43.147549464583335,
          "velocity": 0.7480314960629921
        },
        {
          "duration": 0.009308497916670433,
          "durationTicks": 7,
          "midi": 42,
          "name": "F#2",
          "ticks": 33119,
          "time": 43.147549464583335,
          "velocity": 0.6456692913385826
        },
        {
          "duration": 0.007978712500005258,
          "durationTicks": 6,
          "midi": 36,
          "name": "C2",
          "ticks": 33359,
          "time": 43.46669796458333,
          "velocity": 0.7874015748031497
        },
        {
          "duration": 0.006648927083332978,
          "durationTicks": 5,
          "midi": 36,
          "name": "C2",
          "ticks": 33600,
          "time": 43.78717625,
          "velocity": 0.7874015748031497
        },
        {
          "duration": 0.006648927083340084,
          "durationTicks": 5,
          "midi": 36,
          "name": "C2",
          "ticks": 33960,
          "time": 44.265899,
          "velocity": 0.7874015748031497
        },
        {
          "duration": 0.006648927083332978,
          "durationTicks": 5,
          "midi": 40,
          "name": "E2",
          "ticks": 34080,
          "time": 44.42547325,
          "velocity": 0.7559055118110236
        },
        {
          "duration": 0.006648927083332978,
          "durationTicks": 5,
          "midi": 42,
          "name": "F#2",
          "ticks": 34082,
          "time": 44.42813282083333,
          "velocity": 0.6850393700787402
        },
        {
          "duration": 0.007978712500005258,
          "durationTicks": 6,
          "midi": 36,
          "name": "C2",
          "ticks": 34559,
          "time": 45.06244046458333,
          "velocity": 0.7874015748031497
        },
        {
          "duration": 0.006648927083332978,
          "durationTicks": 5,
          "midi": 36,
          "name": "C2",
          "ticks": 34920,
          "time": 45.542493,
          "velocity": 0.7874015748031497
        },
        {
          "duration": 0.006648927083340084,
          "durationTicks": 5,
          "midi": 42,
          "name": "F#2",
          "ticks": 35039,
          "time": 45.700737464583334,
          "velocity": 0.6456692913385826
        },
        {
          "duration": 0.006648927083340084,
          "durationTicks": 5,
          "midi": 40,
          "name": "E2",
          "ticks": 35040,
          "time": 45.70206725,
          "velocity": 0.7716535433070866
        },
        {
          "duration": 0.007978712499998153,
          "durationTicks": 6,
          "midi": 36,
          "name": "C2",
          "ticks": 35519,
          "time": 46.339034464583335,
          "velocity": 0.7874015748031497
        },
        {
          "duration": 0.006648927083332978,
          "durationTicks": 5,
          "midi": 36,
          "name": "C2",
          "ticks": 35880,
          "time": 46.819087,
          "velocity": 0.7874015748031497
        },
        {
          "duration": 0.006648927083332978,
          "durationTicks": 5,
          "midi": 42,
          "name": "F#2",
          "ticks": 36000,
          "time": 46.97866125,
          "velocity": 0.6929133858267716
        },
        {
          "duration": 0.007978712499998153,
          "durationTicks": 6,
          "midi": 40,
          "name": "E2",
          "ticks": 36000,
          "time": 46.97866125,
          "velocity": 0.7244094488188977
        },
        {
          "duration": 0.009308497916670433,
          "durationTicks": 7,
          "midi": 36,
          "name": "C2",
          "ticks": 36478,
          "time": 47.614298679166666,
          "velocity": 0.7874015748031497
        },
        {
          "duration": 0.006648927083340084,
          "durationTicks": 5,
          "midi": 36,
          "name": "C2",
          "ticks": 36840,
          "time": 48.095681,
          "velocity": 0.7874015748031497
        },
        {
          "duration": 0.006648927083340084,
          "durationTicks": 5,
          "midi": 40,
          "name": "E2",
          "ticks": 36961,
          "time": 48.25658503541666,
          "velocity": 0.7716535433070866
        },
        {
          "duration": 0.006648927083340084,
          "durationTicks": 5,
          "midi": 42,
          "name": "F#2",
          "ticks": 36961,
          "time": 48.25658503541666,
          "velocity": 0.6692913385826772
        },
        {
          "duration": 0.007978712499998153,
          "durationTicks": 6,
          "midi": 36,
          "name": "C2",
          "ticks": 37199,
          "time": 48.57307396458334,
          "velocity": 0.7874015748031497
        },
        {
          "duration": 0.007978712500005258,
          "durationTicks": 6,
          "midi": 36,
          "name": "C2",
          "ticks": 37439,
          "time": 48.892222464583334,
          "velocity": 0.7874015748031497
        },
        {
          "duration": 0.006648927083332978,
          "durationTicks": 5,
          "midi": 36,
          "name": "C2",
          "ticks": 37800,
          "time": 49.372275,
          "velocity": 0.7874015748031497
        },
        {
          "duration": 0.006648927083332978,
          "durationTicks": 5,
          "midi": 40,
          "name": "E2",
          "ticks": 37920,
          "time": 49.53184925,
          "velocity": 0.7559055118110236
        },
        {
          "duration": 0.006648927083340084,
          "durationTicks": 5,
          "midi": 42,
          "name": "F#2",
          "ticks": 37922,
          "time": 49.53450882083333,
          "velocity": 0.6771653543307087
        },
        {
          "duration": 0.007978712499998153,
          "durationTicks": 6,
          "midi": 36,
          "name": "C2",
          "ticks": 38399,
          "time": 50.16881646458334,
          "velocity": 0.7874015748031497
        },
        {
          "duration": 0.006648927083340084,
          "durationTicks": 5,
          "midi": 36,
          "name": "C2",
          "ticks": 38760,
          "time": 50.648869,
          "velocity": 0.7874015748031497
        },
        {
          "duration": 0.006648927083332978,
          "durationTicks": 5,
          "midi": 42,
          "name": "F#2",
          "ticks": 38878,
          "time": 50.805783679166666,
          "velocity": 0.6929133858267716
        },
        {
          "duration": 0.006648927083332978,
          "durationTicks": 5,
          "midi": 40,
          "name": "E2",
          "ticks": 38879,
          "time": 50.80711346458334,
          "velocity": 0.7322834645669292
        },
        {
          "duration": 0.006648927083332978,
          "durationTicks": 5,
          "midi": 36,
          "name": "C2",
          "ticks": 39120,
          "time": 51.12759175,
          "velocity": 0.7874015748031497
        },
        {
          "duration": 0.007978712500005258,
          "durationTicks": 6,
          "midi": 36,
          "name": "C2",
          "ticks": 39359,
          "time": 51.44541046458333,
          "velocity": 0.7874015748031497
        },
        {
          "duration": 0.007978712499998153,
          "durationTicks": 6,
          "midi": 36,
          "name": "C2",
          "ticks": 39719,
          "time": 51.924133214583335,
          "velocity": 0.7874015748031497
        },
        {
          "duration": 0.007978712500005258,
          "durationTicks": 6,
          "midi": 42,
          "name": "F#2",
          "ticks": 39839,
          "time": 52.083707464583334,
          "velocity": 0.6535433070866141
        },
        {
          "duration": 0.009308497916670433,
          "durationTicks": 7,
          "midi": 40,
          "name": "E2",
          "ticks": 39839,
          "time": 52.083707464583334,
          "velocity": 0.7480314960629921
        }
      ]
    },
    {
      "channel": 0,
      "controlChanges": {
        "0": [
          {
            "number": 0,
            "ticks": 561,
            "time": 0.4675,
            "value": 0
          }
        ],
        "32": [
          {
            "number": 32,
            "ticks": 562,
            "time": 0.4683333333333334,
            "value": 0
          }
        ]
      },
      "pitchBends": [],
      "instrument": {
        "family": "piano",
        "number": 0,
        "name": "acoustic grand piano"
      },
      "name": "",
      "notes": []
    },
    {
      "channel": 10,
      "controlChanges": {
        "6": [
          {
            "number": 6,
            "ticks": 657,
            "time": 0.5475,
            "value": 0.015748031496062992
          }
        ],
        "7": [
          {
            "number": 7,
            "ticks": 564,
            "time": 0.47000000000000003,
            "value": 0.7086614173228346
          }
        ],
        "10": [
          {
            "number": 10,
            "ticks": 565,
            "time": 0.4708333333333333,
            "value": 0.5039370078740157
          }
        ],
        "11": [
          {
            "number": 11,
            "ticks": 566,
            "time": 0.4716666666666667,
            "value": 1
          }
        ],
        "91": [
          {
            "number": 91,
            "ticks": 567,
            "time": 0.4725,
            "value": 0.4330708661417323
          }
        ],
        "93": [
          {
            "number": 93,
            "ticks": 568,
            "time": 0.4733333333333334,
            "value": 0.15748031496062992
          }
        ],
        "100": [
          {
            "number": 100,
            "ticks": 653,
            "time": 0.5441666666666667,
            "value": 0
          },
          {
            "number": 100,
            "ticks": 665,
            "time": 0.5541666666666667,
            "value": 1
          }
        ],
        "101": [
          {
            "number": 101,
            "ticks": 649,
            "time": 0.5408333333333334,
            "value": 0
          },
          {
            "number": 101,
            "ticks": 661,
            "time": 0.5508333333333334,
            "value": 1
          }
        ]
      },
      "pitchBends": [],
      "instrument": {
        "family": "guitar",
        "number": 24,
        "name": "acoustic guitar (nylon)"
      },
      "name": "",
      "notes": [
        {
          "duration": 0.6329778583333332,
          "durationTicks": 476,
          "midi": 49,
          "name": "C#3",
          "ticks": 1919,
          "time": 1.6582444645833334,
          "velocity": 0.4251968503937008
        },
        {
          "duration": 0.4734036083333333,
          "durationTicks": 356,
          "midi": 52,
          "name": "E3",
          "ticks": 1920,
          "time": 1.65957425,
          "velocity": 0.6692913385826772
        },
        {
          "duration": 0.15558489374999995,
          "durationTicks": 117,
          "midi": 52,
          "name": "E3",
          "ticks": 2280,
          "time": 2.138297,
          "velocity": 0.6614173228346457
        },
        {
          "duration": 0.3138293583333338,
          "durationTicks": 236,
          "midi": 49,
          "name": "C#3",
          "ticks": 2399,
          "time": 2.296541464583333,
          "velocity": 0.4330708661417323
        },
        {
          "duration": 0.3151591437500003,
          "durationTicks": 237,
          "midi": 52,
          "name": "E3",
          "ticks": 2399,
          "time": 2.296541464583333,
          "velocity": 0.6456692913385826
        },
        {
          "duration": 0.3151591437500003,
          "durationTicks": 237,
          "midi": 54,
          "name": "F#3",
          "ticks": 2639,
          "time": 2.6156899645833334,
          "velocity": 0.6692913385826772
        },
        {
          "duration": 0.2699464395833333,
          "durationTicks": 203,
          "midi": 50,
          "name": "D3",
          "ticks": 2639,
          "time": 2.6156899645833334,
          "velocity": 0.4251968503937008
        },
        {
          "duration": 0.6343076437499997,
          "durationTicks": 477,
          "midi": 50,
          "name": "D3",
          "ticks": 2879,
          "time": 2.9348384645833336,
          "velocity": 0.4094488188976378
        },
        {
          "duration": 0.15425510833333345,
          "durationTicks": 116,
          "midi": 54,
          "name": "F#3",
          "ticks": 2881,
          "time": 2.9374980354166667,
          "velocity": 0.6535433070866141
        },
        {
          "duration": 0.4734036083333333,
          "durationTicks": 356,
          "midi": 54,
          "name": "F#3",
          "ticks": 3000,
          "time": 3.0957425,
          "velocity": 0.6929133858267716
        },
        {
          "duration": 0.6343076437499997,
          "durationTicks": 477,
          "midi": 50,
          "name": "D3",
          "ticks": 3359,
          "time": 3.5731354645833333,
          "velocity": 0.44881889763779526
        },
        {
          "duration": 0.47473339375000023,
          "durationTicks": 357,
          "midi": 54,
          "name": "F#3",
          "ticks": 3359,
          "time": 3.5731354645833333,
          "velocity": 0.6535433070866141
        },
        {
          "duration": 0.4734036083333333,
          "durationTicks": 356,
          "midi": 54,
          "name": "F#3",
          "ticks": 3719,
          "time": 4.0518582145833335,
          "velocity": 0.6929133858267716
        },
        {
          "duration": 0.6329778583333328,
          "durationTicks": 476,
          "midi": 50,
          "name": "D3",
          "ticks": 3839,
          "time": 4.211432464583334,
          "velocity": 0.4251968503937008
        },
        {
          "duration": 0.4734036083333333,
          "durationTicks": 356,
          "midi": 54,
          "name": "F#3",
          "ticks": 4080,
          "time": 4.53191075,
          "velocity": 0.6850393700787402
        },
        {
          "duration": 0.6343076437499997,
          "durationTicks": 477,
          "midi": 50,
          "name": "D3",
          "ticks": 4318,
          "time": 4.848399679166667,
          "velocity": 0.4094488188976378
        },
        {
          "duration": 0.4734036083333333,
          "durationTicks": 356,
          "midi": 54,
          "name": "F#3",
          "ticks": 4440,
          "time": 5.0106335,
          "velocity": 0.6456692913385826
        },
        {
          "duration": 0.4734036083333333,
          "durationTicks": 356,
          "midi": 54,
          "name": "F#3",
          "ticks": 4799,
          "time": 5.488026464583333,
          "velocity": 0.6692913385826772
        },
        {
          "duration": 0.6329778583333328,
          "durationTicks": 476,
          "midi": 50,
          "name": "D3",
          "ticks": 4800,
          "time": 5.48935625,
          "velocity": 0.4566929133858268
        },
        {
          "duration": 0.4734036083333324,
          "durationTicks": 356,
          "midi": 54,
          "name": "F#3",
          "ticks": 5160,
          "time": 5.968079,
          "velocity": 0.6771653543307087
        },
        {
          "duration": 0.6329778583333336,
          "durationTicks": 476,
          "midi": 50,
          "name": "D3",
          "ticks": 5279,
          "time": 6.126323464583334,
          "velocity": 0.4566929133858268
        },
        {
          "duration": 0.3138293583333338,
          "durationTicks": 236,
          "midi": 54,
          "name": "F#3",
          "ticks": 5519,
          "time": 6.445471964583334,
          "velocity": 0.6850393700787402
        },
        {
          "duration": 0.6343076437500006,
          "durationTicks": 477,
          "midi": 45,
          "name": "A2",
          "ticks": 5759,
          "time": 6.764620464583333,
          "velocity": 0.4094488188976378
        },
        {
          "duration": 0.47473339375000023,
          "durationTicks": 357,
          "midi": 49,
          "name": "C#3",
          "ticks": 5759,
          "time": 6.764620464583333,
          "velocity": 0.6929133858267716
        },
        {
          "duration": 0.4720738229166672,
          "durationTicks": 355,
          "midi": 49,
          "name": "C#3",
          "ticks": 6119,
          "time": 7.243343214583334,
          "velocity": 0.6535433070866141
        },
        {
          "duration": 0.3111697875000008,
          "durationTicks": 234,
          "midi": 45,
          "name": "A2",
          "ticks": 6240,
          "time": 7.40424725,
          "velocity": 0.4566929133858268
        },
        {
          "duration": 0.31515914375000076,
          "durationTicks": 237,
          "midi": 52,
          "name": "E3",
          "ticks": 6479,
          "time": 7.722065964583334,
          "velocity": 0.4094488188976378
        },
        {
          "duration": 0.47473339374999934,
          "durationTicks": 357,
          "midi": 56,
          "name": "G#3",
          "ticks": 6479,
          "time": 7.722065964583334,
          "velocity": 0.6456692913385826
        },
        {
          "duration": 0.6329778583333336,
          "durationTicks": 476,
          "midi": 52,
          "name": "E3",
          "ticks": 6720,
          "time": 8.042544249999999,
          "velocity": 0.4330708661417323
        },
        {
          "duration": 0.47207382291666633,
          "durationTicks": 355,
          "midi": 56,
          "name": "G#3",
          "ticks": 6841,
          "time": 8.203448285416666,
          "velocity": 0.6850393700787402
        },
        {
          "duration": 0.4734036083333333,
          "durationTicks": 356,
          "midi": 56,
          "name": "G#3",
          "ticks": 7199,
          "time": 8.679511464583333,
          "velocity": 0.6456692913385826
        },
        {
          "duration": 0.6343076437500006,
          "durationTicks": 477,
          "midi": 52,
          "name": "E3",
          "ticks": 7199,
          "time": 8.679511464583333,
          "velocity": 0.41732283464566927
        },
        {
          "duration": 0.4734036083333333,
          "durationTicks": 356,
          "midi": 56,
          "name": "G#3",
          "ticks": 7560,
          "time": 9.159564,
          "velocity": 0.6456692913385826
        },
        {
          "duration": 0.6329778583333336,
          "durationTicks": 476,
          "midi": 52,
          "name": "E3",
          "ticks": 7679,
          "time": 9.317808464583333,
          "velocity": 0.4330708661417323
        },
        {
          "duration": 0.4734036083333333,
          "durationTicks": 356,
          "midi": 56,
          "name": "G#3",
          "ticks": 7920,
          "time": 9.63828675,
          "velocity": 0.6614173228346457
        },
        {
          "duration": 0.6329778583333336,
          "durationTicks": 476,
          "midi": 52,
          "name": "E3",
          "ticks": 8160,
          "time": 9.95743525,
          "velocity": 0.4094488188976378
        },
        {
          "duration": 0.4734036083333333,
          "durationTicks": 356,
          "midi": 56,
          "name": "G#3",
          "ticks": 8280,
          "time": 10.1170095,
          "velocity": 0.6535433070866141
        },
        {
          "duration": 0.4734036083333333,
          "durationTicks": 356,
          "midi": 56,
          "name": "G#3",
          "ticks": 8639,
          "time": 10.594402464583334,
          "velocity": 0.6929133858267716
        },
        {
          "duration": 0.6329778583333336,
          "durationTicks": 476,
          "midi": 52,
          "name": "E3",
          "ticks": 8639,
          "time": 10.594402464583334,
          "velocity": 0.4094488188976378
        },
        {
          "duration": 0.4734036083333333,
          "durationTicks": 356,
          "midi": 56,
          "name": "G#3",
          "ticks": 9000,
          "time": 11.074455,
          "velocity": 0.6929133858267716
        },
        {
          "duration": 0.6329778583333319,
          "durationTicks": 476,
          "midi": 52,
          "name": "E3",
          "ticks": 9119,
          "time": 11.232699464583334,
          "velocity": 0.4566929133858268
        },
        {
          "duration": 0.3138293583333329,
          "durationTicks": 236,
          "midi": 56,
          "name": "G#3",
          "ticks": 9359,
          "time": 11.551847964583333,
          "velocity": 0.6692913385826772
        },
        {
          "duration": 0.6329778583333336,
          "durationTicks": 476,
          "midi": 49,
          "name": "C#3",
          "ticks": 9599,
          "time": 11.870996464583332,
          "velocity": 0.4094488188976378
        },
        {
          "duration": 0.474733393750002,
          "durationTicks": 357,
          "midi": 52,
          "name": "E3",
          "ticks": 9599,
          "time": 11.870996464583332,
          "velocity": 0.6456692913385826
        },
        {
          "duration": 0.1529253229166656,
          "durationTicks": 115,
          "midi": 52,
          "name": "E3",
          "ticks": 9960,
          "time": 12.351049,
          "velocity": 0.6929133858267716
        },
        {
          "duration": 0.3138293583333329,
          "durationTicks": 236,
          "midi": 52,
          "name": "E3",
          "ticks": 10079,
          "time": 12.509293464583333,
          "velocity": 0.6535433070866141
        },
        {
          "duration": 0.3138293583333329,
          "durationTicks": 236,
          "midi": 49,
          "name": "C#3",
          "ticks": 10079,
          "time": 12.509293464583333,
          "velocity": 0.4330708661417323
        },
        {
          "duration": 0.31249957291666597,
          "durationTicks": 235,
          "midi": 50,
          "name": "D3",
          "ticks": 10320,
          "time": 12.82977175,
          "velocity": 0.4094488188976378
        },
        {
          "duration": 0.47473339374999846,
          "durationTicks": 357,
          "midi": 54,
          "name": "F#3",
          "ticks": 10320,
          "time": 12.82977175,
          "velocity": 0.6535433070866141
        },
        {
          "duration": 0.6329778583333336,
          "durationTicks": 476,
          "midi": 50,
          "name": "D3",
          "ticks": 10560,
          "time": 13.14892025,
          "velocity": 0.4094488188976378
        },
        {
          "duration": 0.4734036083333333,
          "durationTicks": 356,
          "midi": 54,
          "name": "F#3",
          "ticks": 10679,
          "time": 13.307164714583333,
          "velocity": 0.6614173228346457
        },
        {
          "duration": 0.6329778583333336,
          "durationTicks": 476,
          "midi": 50,
          "name": "D3",
          "ticks": 11040,
          "time": 13.78721725,
          "velocity": 0.4094488188976378
        },
        {
          "duration": 0.47340360833333506,
          "durationTicks": 356,
          "midi": 54,
          "name": "F#3",
          "ticks": 11040,
          "time": 13.78721725,
          "velocity": 0.6692913385826772
        },
        {
          "duration": 0.47340360833333506,
          "durationTicks": 356,
          "midi": 54,
          "name": "F#3",
          "ticks": 11399,
          "time": 14.264610214583332,
          "velocity": 0.6456692913385826
        },
        {
          "duration": 0.6329778583333336,
          "durationTicks": 476,
          "midi": 50,
          "name": "D3",
          "ticks": 11519,
          "time": 14.424184464583332,
          "velocity": 0.4094488188976378
        },
        {
          "duration": 0.4734036083333333,
          "durationTicks": 356,
          "midi": 54,
          "name": "F#3",
          "ticks": 11759,
          "time": 14.743332964583333,
          "velocity": 0.6771653543307087
        },
        {
          "duration": 0.6316480729166649,
          "durationTicks": 475,
          "midi": 50,
          "name": "D3",
          "ticks": 12000,
          "time": 15.06381125,
          "velocity": 0.4409448818897638
        },
        {
          "duration": 0.4734036083333333,
          "durationTicks": 356,
          "midi": 54,
          "name": "F#3",
          "ticks": 12119,
          "time": 15.222055714583332,
          "velocity": 0.6850393700787402
        },
        {
          "duration": 0.6329778583333354,
          "durationTicks": 476,
          "midi": 50,
          "name": "D3",
          "ticks": 12480,
          "time": 15.70210825,
          "velocity": 0.4251968503937008
        },
        {
          "duration": 0.47473339374999846,
          "durationTicks": 357,
          "midi": 54,
          "name": "F#3",
          "ticks": 12480,
          "time": 15.70210825,
          "velocity": 0.6535433070866141
        },
        {
          "duration": 0.47473339375000023,
          "durationTicks": 357,
          "midi": 54,
          "name": "F#3",
          "ticks": 12839,
          "time": 16.179501214583333,
          "velocity": 0.6771653543307087
        },
        {
          "duration": 0.6329778583333301,
          "durationTicks": 476,
          "midi": 50,
          "name": "D3",
          "ticks": 12961,
          "time": 16.34173503541667,
          "velocity": 0.4251968503937008
        },
        {
          "duration": 0.3138293583333329,
          "durationTicks": 236,
          "midi": 54,
          "name": "F#3",
          "ticks": 13201,
          "time": 16.660883535416666,
          "velocity": 0.6850393700787402
        },
        {
          "duration": 0.47473339375000023,
          "durationTicks": 357,
          "midi": 49,
          "name": "C#3",
          "ticks": 13439,
          "time": 16.977372464583333,
          "velocity": 0.6692913385826772
        },
        {
          "duration": 0.6356374291666675,
          "durationTicks": 478,
          "midi": 45,
          "name": "A2",
          "ticks": 13439,
          "time": 16.977372464583333,
          "velocity": 0.4330708661417323
        },
        {
          "duration": 0.47473339375000023,
          "durationTicks": 357,
          "midi": 49,
          "name": "C#3",
          "ticks": 13799,
          "time": 17.456095214583332,
          "velocity": 0.6456692913385826
        },
        {
          "duration": 0.3138293583333329,
          "durationTicks": 236,
          "midi": 45,
          "name": "A2",
          "ticks": 13920,
          "time": 17.61699925,
          "velocity": 0.41732283464566927
        },
        {
          "duration": 0.31382935833333647,
          "durationTicks": 236,
          "midi": 52,
          "name": "E3",
          "ticks": 14159,
          "time": 17.93481796458333,
          "velocity": 0.4251968503937008
        },
        {
          "duration": 0.47606317916666896,
          "durationTicks": 358,
          "midi": 56,
          "name": "G#3",
          "ticks": 14159,
          "time": 17.93481796458333,
          "velocity": 0.6614173228346457
        },
        {
          "duration": 0.6329778583333336,
          "durationTicks": 476,
          "midi": 52,
          "name": "E3",
          "ticks": 14399,
          "time": 18.253966464583332,
          "velocity": 0.4566929133858268
        },
        {
          "duration": 0.4734036083333315,
          "durationTicks": 356,
          "midi": 56,
          "name": "G#3",
          "ticks": 14519,
          "time": 18.413540714583334,
          "velocity": 0.6535433070866141
        },
        {
          "duration": 0.47473339375000023,
          "durationTicks": 357,
          "midi": 56,
          "name": "G#3",
          "ticks": 14879,
          "time": 18.892263464583333,
          "velocity": 0.6771653543307087
        },
        {
          "duration": 0.6343076437499988,
          "durationTicks": 477,
          "midi": 52,
          "name": "E3",
          "ticks": 14879,
          "time": 18.892263464583333,
          "velocity": 0.4409448818897638
        },
        {
          "duration": 0.47340360833333506,
          "durationTicks": 356,
          "midi": 56,
          "name": "G#3",
          "ticks": 15239,
          "time": 19.370986214583333,
          "velocity": 0.6850393700787402
        },
        {
          "duration": 0.6329778583333336,
          "durationTicks": 476,
          "midi": 52,
          "name": "E3",
          "ticks": 15360,
          "time": 19.53189025,
          "velocity": 0.4094488188976378
        },
        {
          "duration": 0.4734036083333315,
          "durationTicks": 356,
          "midi": 56,
          "name": "G#3",
          "ticks": 15601,
          "time": 19.85236853541667,
          "velocity": 0.6535433070866141
        },
        {
          "duration": 0.6329778583333336,
          "durationTicks": 476,
          "midi": 52,
          "name": "E3",
          "ticks": 15839,
          "time": 20.168857464583333,
          "velocity": 0.4251968503937008
        },
        {
          "duration": 0.47340360833333506,
          "durationTicks": 356,
          "midi": 56,
          "name": "G#3",
          "ticks": 15959,
          "time": 20.32843171458333,
          "velocity": 0.6850393700787402
        },
        {
          "duration": 0.6343076437500024,
          "durationTicks": 477,
          "midi": 52,
          "name": "E3",
          "ticks": 16319,
          "time": 20.80715446458333,
          "velocity": 0.4094488188976378
        },
        {
          "duration": 0.4747333937500038,
          "durationTicks": 357,
          "midi": 56,
          "name": "G#3",
          "ticks": 16319,
          "time": 20.80715446458333,
          "velocity": 0.6535433070866141
        },
        {
          "duration": 0.47340360833333506,
          "durationTicks": 356,
          "midi": 56,
          "name": "G#3",
          "ticks": 16680,
          "time": 21.287207,
          "velocity": 0.6456692913385826
        },
        {
          "duration": 0.6316480729166685,
          "durationTicks": 475,
          "midi": 52,
          "name": "E3",
          "ticks": 16800,
          "time": 21.44678125,
          "velocity": 0.4566929133858268
        },
        {
          "duration": 0.31382935833333647,
          "durationTicks": 236,
          "midi": 56,
          "name": "G#3",
          "ticks": 17039,
          "time": 21.764599964583333,
          "velocity": 0.6850393700787402
        },
        {
          "duration": 0.47340360833333506,
          "durationTicks": 356,
          "midi": 52,
          "name": "E3",
          "ticks": 17279,
          "time": 22.083748464583334,
          "velocity": 0.6692913385826772
        },
        {
          "duration": 0.9507965729166692,
          "durationTicks": 715,
          "midi": 49,
          "name": "C#3",
          "ticks": 17281,
          "time": 22.086408035416664,
          "velocity": 0.4251968503937008
        },
        {
          "duration": 0.4734036083333315,
          "durationTicks": 356,
          "midi": 52,
          "name": "E3",
          "ticks": 17640,
          "time": 22.563801,
          "velocity": 0.6614173228346457
        },
        {
          "duration": 0.26728686874999497,
          "durationTicks": 201,
          "midi": 50,
          "name": "D3",
          "ticks": 17999,
          "time": 23.041193964583336,
          "velocity": 0.4251968503937008
        },
        {
          "duration": 0.3151591437499981,
          "durationTicks": 237,
          "midi": 54,
          "name": "F#3",
          "ticks": 17999,
          "time": 23.041193964583336,
          "velocity": 0.6692913385826772
        },
        {
          "duration": 0.47340360833333506,
          "durationTicks": 356,
          "midi": 54,
          "name": "F#3",
          "ticks": 18359,
          "time": 23.519916714583335,
          "velocity": 0.6929133858267716
        },
        {
          "duration": 0.4720738229166699,
          "durationTicks": 355,
          "midi": 54,
          "name": "F#3",
          "ticks": 18720,
          "time": 23.99996925,
          "velocity": 0.6535433070866141
        },
        {
          "duration": 0.6316480729166685,
          "durationTicks": 475,
          "midi": 50,
          "name": "D3",
          "ticks": 18720,
          "time": 23.99996925,
          "velocity": 0.44881889763779526
        },
        {
          "duration": 0.47340360833333506,
          "durationTicks": 356,
          "midi": 54,
          "name": "F#3",
          "ticks": 19080,
          "time": 24.478692,
          "velocity": 0.6929133858267716
        },
        {
          "duration": 0.6329778583333336,
          "durationTicks": 476,
          "midi": 50,
          "name": "D3",
          "ticks": 19200,
          "time": 24.63826625,
          "velocity": 0.4251968503937008
        },
        {
          "duration": 0.4734036083333315,
          "durationTicks": 356,
          "midi": 54,
          "name": "F#3",
          "ticks": 19440,
          "time": 24.95741475,
          "velocity": 0.6850393700787402
        },
        {
          "duration": 0.6329778583333336,
          "durationTicks": 476,
          "midi": 50,
          "name": "D3",
          "ticks": 19679,
          "time": 25.275233464583334,
          "velocity": 0.4094488188976378
        },
        {
          "duration": 0.4734036083333315,
          "durationTicks": 356,
          "midi": 54,
          "name": "F#3",
          "ticks": 19799,
          "time": 25.434807714583336,
          "velocity": 0.6456692913385826
        },
        {
          "duration": 0.6329778583333336,
          "durationTicks": 476,
          "midi": 50,
          "name": "D3",
          "ticks": 20161,
          "time": 25.916190035416665,
          "velocity": 0.4566929133858268
        },
        {
          "duration": 0.47340360833333506,
          "durationTicks": 356,
          "midi": 54,
          "name": "F#3",
          "ticks": 20161,
          "time": 25.916190035416665,
          "velocity": 0.6692913385826772
        },
        {
          "duration": 0.47340360833333506,
          "durationTicks": 356,
          "midi": 54,
          "name": "F#3",
          "ticks": 20519,
          "time": 26.392253214583334,
          "velocity": 0.6771653543307087
        },
        {
          "duration": 0.6329778583333336,
          "durationTicks": 476,
          "midi": 50,
          "name": "D3",
          "ticks": 20639,
          "time": 26.551827464583333,
          "velocity": 0.4566929133858268
        },
        {
          "duration": 0.31515914375000165,
          "durationTicks": 237,
          "midi": 54,
          "name": "F#3",
          "ticks": 20878,
          "time": 26.869646179166665,
          "velocity": 0.6850393700787402
        },
        {
          "duration": 0.6329778583333336,
          "durationTicks": 476,
          "midi": 45,
          "name": "A2",
          "ticks": 21120,
          "time": 27.19145425,
          "velocity": 0.4094488188976378
        },
        {
          "duration": 0.47473339375000023,
          "durationTicks": 357,
          "midi": 49,
          "name": "C#3",
          "ticks": 21120,
          "time": 27.19145425,
          "velocity": 0.6929133858267716
        },
        {
          "duration": 0.47340360833333506,
          "durationTicks": 356,
          "midi": 49,
          "name": "C#3",
          "ticks": 21479,
          "time": 27.668847214583334,
          "velocity": 0.6535433070866141
        },
        {
          "duration": 0.3138293583333329,
          "durationTicks": 236,
          "midi": 45,
          "name": "A2",
          "ticks": 21599,
          "time": 27.828421464583336,
          "velocity": 0.4566929133858268
        },
        {
          "duration": 0.31382935833333647,
          "durationTicks": 236,
          "midi": 52,
          "name": "E3",
          "ticks": 21839,
          "time": 28.147569964583333,
          "velocity": 0.4094488188976378
        },
        {
          "duration": 0.4760631791666654,
          "durationTicks": 358,
          "midi": 56,
          "name": "G#3",
          "ticks": 21839,
          "time": 28.147569964583333,
          "velocity": 0.6456692913385826
        },
        {
          "duration": 0.6329778583333336,
          "durationTicks": 476,
          "midi": 52,
          "name": "E3",
          "ticks": 22079,
          "time": 28.466718464583334,
          "velocity": 0.4330708661417323
        },
        {
          "duration": 0.4734036083333315,
          "durationTicks": 356,
          "midi": 56,
          "name": "G#3",
          "ticks": 22199,
          "time": 28.626292714583336,
          "velocity": 0.6850393700787402
        },
        {
          "duration": 0.4734036083333315,
          "durationTicks": 356,
          "midi": 56,
          "name": "G#3",
          "ticks": 22559,
          "time": 29.105015464583335,
          "velocity": 0.6456692913385826
        },
        {
          "duration": 0.635637429166664,
          "durationTicks": 478,
          "midi": 52,
          "name": "E3",
          "ticks": 22559,
          "time": 29.105015464583335,
          "velocity": 0.41732283464566927
        },
        {
          "duration": 0.47340360833333506,
          "durationTicks": 356,
          "midi": 56,
          "name": "G#3",
          "ticks": 22920,
          "time": 29.585068,
          "velocity": 0.6456692913385826
        },
        {
          "duration": 0.6329778583333336,
          "durationTicks": 476,
          "midi": 52,
          "name": "E3",
          "ticks": 23041,
          "time": 29.745972035416667,
          "velocity": 0.4330708661417323
        },
        {
          "duration": 0.47340360833333506,
          "durationTicks": 356,
          "midi": 56,
          "name": "G#3",
          "ticks": 23281,
          "time": 30.065120535416664,
          "velocity": 0.6614173228346457
        },
        {
          "duration": 0.6329778583333336,
          "durationTicks": 476,
          "midi": 52,
          "name": "E3",
          "ticks": 23519,
          "time": 30.381609464583335,
          "velocity": 0.4094488188976378
        },
        {
          "duration": 0.4734036083333315,
          "durationTicks": 356,
          "midi": 56,
          "name": "G#3",
          "ticks": 23640,
          "time": 30.542513500000002,
          "velocity": 0.6535433070866141
        },
        {
          "duration": 0.6329778583333336,
          "durationTicks": 476,
          "midi": 52,
          "name": "E3",
          "ticks": 23999,
          "time": 31.019906464583336,
          "velocity": 0.4094488188976378
        },
        {
          "duration": 0.4747333937499967,
          "durationTicks": 357,
          "midi": 56,
          "name": "G#3",
          "ticks": 23999,
          "time": 31.019906464583336,
          "velocity": 0.6929133858267716
        },
        {
          "duration": 0.47340360833333506,
          "durationTicks": 356,
          "midi": 56,
          "name": "G#3",
          "ticks": 24360,
          "time": 31.499959,
          "velocity": 0.6929133858267716
        },
        {
          "duration": 0.6329778583333372,
          "durationTicks": 476,
          "midi": 52,
          "name": "E3",
          "ticks": 24481,
          "time": 31.660863035416664,
          "velocity": 0.4566929133858268
        },
        {
          "duration": 0.31382935833333647,
          "durationTicks": 236,
          "midi": 56,
          "name": "G#3",
          "ticks": 24719,
          "time": 31.977351964583335,
          "velocity": 0.6692913385826772
        },
        {
          "duration": 0.6329778583333336,
          "durationTicks": 476,
          "midi": 49,
          "name": "C#3",
          "ticks": 24959,
          "time": 32.29650046458333,
          "velocity": 0.4094488188976378
        },
        {
          "duration": 0.47340360833334216,
          "durationTicks": 356,
          "midi": 52,
          "name": "E3",
          "ticks": 24961,
          "time": 32.29916003541666,
          "velocity": 0.6456692913385826
        },
        {
          "duration": 0.1529253229166656,
          "durationTicks": 115,
          "midi": 52,
          "name": "E3",
          "ticks": 25320,
          "time": 32.776553,
          "velocity": 0.6929133858267716
        },
        {
          "duration": 0.31382935833333647,
          "durationTicks": 236,
          "midi": 52,
          "name": "E3",
          "ticks": 25439,
          "time": 32.93479746458333,
          "velocity": 0.6535433070866141
        },
        {
          "duration": 0.31382935833333647,
          "durationTicks": 236,
          "midi": 49,
          "name": "C#3",
          "ticks": 25440,
          "time": 32.93612725,
          "velocity": 0.4330708661417323
        },
        {
          "duration": 0.31382935833332937,
          "durationTicks": 236,
          "midi": 50,
          "name": "D3",
          "ticks": 25679,
          "time": 33.25394596458334,
          "velocity": 0.4094488188976378
        },
        {
          "duration": 0.47340360833332795,
          "durationTicks": 356,
          "midi": 54,
          "name": "F#3",
          "ticks": 25681,
          "time": 33.25660553541667,
          "velocity": 0.6535433070866141
        },
        {
          "duration": 0.6316480729166685,
          "durationTicks": 475,
          "midi": 50,
          "name": "D3",
          "ticks": 25920,
          "time": 33.57442425,
          "velocity": 0.4094488188976378
        },
        {
          "duration": 0.47340360833333506,
          "durationTicks": 356,
          "midi": 54,
          "name": "F#3",
          "ticks": 26039,
          "time": 33.73266871458333,
          "velocity": 0.6614173228346457
        },
        {
          "duration": 0.47340360833333506,
          "durationTicks": 356,
          "midi": 54,
          "name": "F#3",
          "ticks": 26400,
          "time": 34.21272125,
          "velocity": 0.6692913385826772
        },
        {
          "duration": 0.6329778583333336,
          "durationTicks": 476,
          "midi": 50,
          "name": "D3",
          "ticks": 26400,
          "time": 34.21272125,
          "velocity": 0.4094488188976378
        },
        {
          "duration": 0.47340360833333506,
          "durationTicks": 356,
          "midi": 54,
          "name": "F#3",
          "ticks": 26760,
          "time": 34.691444,
          "velocity": 0.6456692913385826
        },
        {
          "duration": 0.6329778583333336,
          "durationTicks": 476,
          "midi": 50,
          "name": "D3",
          "ticks": 26880,
          "time": 34.85101825,
          "velocity": 0.4094488188976378
        },
        {
          "duration": 0.47340360833333506,
          "durationTicks": 356,
          "midi": 54,
          "name": "F#3",
          "ticks": 27120,
          "time": 35.17016675,
          "velocity": 0.6771653543307087
        },
        {
          "duration": 0.6329778583333336,
          "durationTicks": 476,
          "midi": 50,
          "name": "D3",
          "ticks": 27361,
          "time": 35.49064503541666,
          "velocity": 0.4409448818897638
        },
        {
          "duration": 0.47340360833332795,
          "durationTicks": 356,
          "midi": 54,
          "name": "F#3",
          "ticks": 27480,
          "time": 35.6488895,
          "velocity": 0.6850393700787402
        },
        {
          "duration": 0.47340360833333506,
          "durationTicks": 356,
          "midi": 54,
          "name": "F#3",
          "ticks": 27839,
          "time": 36.12628246458333,
          "velocity": 0.6535433070866141
        },
        {
          "duration": 0.6329778583333336,
          "durationTicks": 476,
          "midi": 50,
          "name": "D3",
          "ticks": 27840,
          "time": 36.12761225,
          "velocity": 0.4251968503937008
        },
        {
          "duration": 0.47340360833333506,
          "durationTicks": 356,
          "midi": 54,
          "name": "F#3",
          "ticks": 28200,
          "time": 36.606335,
          "velocity": 0.6771653543307087
        },
        {
          "duration": 0.6329778583333336,
          "durationTicks": 476,
          "midi": 50,
          "name": "D3",
          "ticks": 28320,
          "time": 36.76590925,
          "velocity": 0.4251968503937008
        },
        {
          "duration": 0.3164889291666668,
          "durationTicks": 238,
          "midi": 54,
          "name": "F#3",
          "ticks": 28558,
          "time": 37.08239817916667,
          "velocity": 0.6850393700787402
        },
        {
          "duration": 0.6329778583333336,
          "durationTicks": 476,
          "midi": 45,
          "name": "A2",
          "ticks": 28799,
          "time": 37.402876464583336,
          "velocity": 0.4330708661417323
        },
        {
          "duration": 0.47340360833333506,
          "durationTicks": 356,
          "midi": 49,
          "name": "C#3",
          "ticks": 28799,
          "time": 37.402876464583336,
          "velocity": 0.6692913385826772
        },
        {
          "duration": 0.47340360833333506,
          "durationTicks": 356,
          "midi": 49,
          "name": "C#3",
          "ticks": 29161,
          "time": 37.88425878541666,
          "velocity": 0.6456692913385826
        },
        {
          "duration": 0.31382935833332937,
          "durationTicks": 236,
          "midi": 45,
          "name": "A2",
          "ticks": 29279,
          "time": 38.04117346458334,
          "velocity": 0.41732283464566927
        },
        {
          "duration": 0.47340360833333506,
          "durationTicks": 356,
          "midi": 56,
          "name": "G#3",
          "ticks": 29519,
          "time": 38.360321964583335,
          "velocity": 0.6614173228346457
        },
        {
          "duration": 0.3164889291666668,
          "durationTicks": 238,
          "midi": 52,
          "name": "E3",
          "ticks": 29519,
          "time": 38.360321964583335,
          "velocity": 0.4251968503937008
        },
        {
          "duration": 0.6329778583333336,
          "durationTicks": 476,
          "midi": 52,
          "name": "E3",
          "ticks": 29759,
          "time": 38.67947046458333,
          "velocity": 0.4566929133858268
        },
        {
          "duration": 0.4747333937499931,
          "durationTicks": 357,
          "midi": 56,
          "name": "G#3",
          "ticks": 29879,
          "time": 38.83904471458334,
          "velocity": 0.6535433070866141
        },
        {
          "duration": 0.6343076437499988,
          "durationTicks": 477,
          "midi": 52,
          "name": "E3",
          "ticks": 30239,
          "time": 39.31776746458333,
          "velocity": 0.4409448818897638
        },
        {
          "duration": 0.47473339375000023,
          "durationTicks": 357,
          "midi": 56,
          "name": "G#3",
          "ticks": 30239,
          "time": 39.31776746458333,
          "velocity": 0.6771653543307087
        },
        {
          "duration": 0.47340360833333506,
          "durationTicks": 356,
          "midi": 56,
          "name": "G#3",
          "ticks": 30600,
          "time": 39.79782,
          "velocity": 0.6850393700787402
        },
        {
          "duration": 0.6329778583333336,
          "durationTicks": 476,
          "midi": 52,
          "name": "E3",
          "ticks": 30719,
          "time": 39.956064464583335,
          "velocity": 0.4094488188976378
        },
        {
          "duration": 0.47340360833333506,
          "durationTicks": 356,
          "midi": 56,
          "name": "G#3",
          "ticks": 30959,
          "time": 40.27521296458333,
          "velocity": 0.6535433070866141
        },
        {
          "duration": 0.6329778583333336,
          "durationTicks": 476,
          "midi": 52,
          "name": "E3",
          "ticks": 31199,
          "time": 40.594361464583336,
          "velocity": 0.4251968503937008
        },
        {
          "duration": 0.47340360833333506,
          "durationTicks": 356,
          "midi": 56,
          "name": "G#3",
          "ticks": 31319,
          "time": 40.753935714583335,
          "velocity": 0.6850393700787402
        },
        {
          "duration": 0.4720738229166628,
          "durationTicks": 355,
          "midi": 56,
          "name": "G#3",
          "ticks": 31680,
          "time": 41.23398825,
          "velocity": 0.6535433070866141
        },
        {
          "duration": 0.6329778583333336,
          "durationTicks": 476,
          "midi": 52,
          "name": "E3",
          "ticks": 31680,
          "time": 41.23398825,
          "velocity": 0.4094488188976378
        },
        {
          "duration": 0.47340360833333506,
          "durationTicks": 356,
          "midi": 56,
          "name": "G#3",
          "ticks": 32040,
          "time": 41.712711,
          "velocity": 0.6456692913385826
        },
        {
          "duration": 0.6329778583333407,
          "durationTicks": 476,
          "midi": 52,
          "name": "E3",
          "ticks": 32161,
          "time": 41.87361503541666,
          "velocity": 0.4566929133858268
        },
        {
          "duration": 0.31382935833332937,
          "durationTicks": 236,
          "midi": 56,
          "name": "G#3",
          "ticks": 32399,
          "time": 42.19010396458334,
          "velocity": 0.6850393700787402
        },
        {
          "duration": 0.47340360833332795,
          "durationTicks": 356,
          "midi": 52,
          "name": "E3",
          "ticks": 32639,
          "time": 42.509252464583334,
          "velocity": 0.6692913385826772
        },
        {
          "duration": 0.6343076437499988,
          "durationTicks": 477,
          "midi": 49,
          "name": "C#3",
          "ticks": 32639,
          "time": 42.509252464583334,
          "velocity": 0.4251968503937008
        },
        {
          "duration": 0.1529253229166656,
          "durationTicks": 115,
          "midi": 52,
          "name": "E3",
          "ticks": 33001,
          "time": 42.99063478541667,
          "velocity": 0.6614173228346457
        },
        {
          "duration": 0.31515914374999454,
          "durationTicks": 237,
          "midi": 49,
          "name": "C#3",
          "ticks": 33119,
          "time": 43.147549464583335,
          "velocity": 0.4330708661417323
        },
        {
          "duration": 0.31515914374999454,
          "durationTicks": 237,
          "midi": 52,
          "name": "E3",
          "ticks": 33119,
          "time": 43.147549464583335,
          "velocity": 0.6456692913385826
        },
        {
          "duration": 0.31382935833332937,
          "durationTicks": 236,
          "midi": 54,
          "name": "F#3",
          "ticks": 33359,
          "time": 43.46669796458333,
          "velocity": 0.6692913385826772
        },
        {
          "duration": 0.2686166541666708,
          "durationTicks": 202,
          "midi": 50,
          "name": "D3",
          "ticks": 33359,
          "time": 43.46669796458333,
          "velocity": 0.4251968503937008
        },
        {
          "duration": 0.47340360833332795,
          "durationTicks": 356,
          "midi": 54,
          "name": "F#3",
          "ticks": 33720,
          "time": 43.9467505,
          "velocity": 0.6929133858267716
        },
        {
          "duration": 0.6329778583333265,
          "durationTicks": 476,
          "midi": 50,
          "name": "D3",
          "ticks": 34079,
          "time": 44.42414346458334,
          "velocity": 0.44881889763779526
        },
        {
          "duration": 0.47340360833332795,
          "durationTicks": 356,
          "midi": 54,
          "name": "F#3",
          "ticks": 34080,
          "time": 44.42547325,
          "velocity": 0.6535433070866141
        },
        {
          "duration": 0.47340360833332795,
          "durationTicks": 356,
          "midi": 54,
          "name": "F#3",
          "ticks": 34440,
          "time": 44.904196,
          "velocity": 0.6929133858267716
        },
        {
          "duration": 0.6329778583333336,
          "durationTicks": 476,
          "midi": 50,
          "name": "D3",
          "ticks": 34559,
          "time": 45.06244046458333,
          "velocity": 0.4251968503937008
        },
        {
          "duration": 0.47340360833333506,
          "durationTicks": 356,
          "midi": 54,
          "name": "F#3",
          "ticks": 34801,
          "time": 45.38424853541667,
          "velocity": 0.6850393700787402
        },
        {
          "duration": 0.6329778583333336,
          "durationTicks": 476,
          "midi": 50,
          "name": "D3",
          "ticks": 35040,
          "time": 45.70206725,
          "velocity": 0.4094488188976378
        },
        {
          "duration": 0.47340360833333506,
          "durationTicks": 356,
          "midi": 54,
          "name": "F#3",
          "ticks": 35159,
          "time": 45.86031171458333,
          "velocity": 0.6456692913385826
        },
        {
          "duration": 0.47340360833332795,
          "durationTicks": 356,
          "midi": 54,
          "name": "F#3",
          "ticks": 35519,
          "time": 46.339034464583335,
          "velocity": 0.6692913385826772
        },
        {
          "duration": 0.6343076437499917,
          "durationTicks": 477,
          "midi": 50,
          "name": "D3",
          "ticks": 35519,
          "time": 46.339034464583335,
          "velocity": 0.4566929133858268
        },
        {
          "duration": 0.47340360833332795,
          "durationTicks": 356,
          "midi": 54,
          "name": "F#3",
          "ticks": 35880,
          "time": 46.819087,
          "velocity": 0.6771653543307087
        },
        {
          "duration": 0.6329778583333265,
          "durationTicks": 476,
          "midi": 50,
          "name": "D3",
          "ticks": 36000,
          "time": 46.97866125,
          "velocity": 0.4566929133858268
        },
        {
          "duration": 0.31515914374999454,
          "durationTicks": 237,
          "midi": 54,
          "name": "F#3",
          "ticks": 36239,
          "time": 47.296479964583334,
          "velocity": 0.6850393700787402
        },
        {
          "duration": 0.47473339375000023,
          "durationTicks": 357,
          "midi": 49,
          "name": "C#3",
          "ticks": 36478,
          "time": 47.614298679166666,
          "velocity": 0.6929133858267716
        },
        {
          "duration": 0.6369672145833363,
          "durationTicks": 479,
          "midi": 45,
          "name": "A2",
          "ticks": 36478,
          "time": 47.614298679166666,
          "velocity": 0.4094488188976378
        },
        {
          "duration": 0.47340360833334216,
          "durationTicks": 356,
          "midi": 49,
          "name": "C#3",
          "ticks": 36841,
          "time": 48.097010785416664,
          "velocity": 0.6535433070866141
        },
        {
          "duration": 0.31382935833332937,
          "durationTicks": 236,
          "midi": 45,
          "name": "A2",
          "ticks": 36960,
          "time": 48.25525525,
          "velocity": 0.4566929133858268
        },
        {
          "duration": 0.31515914374999454,
          "durationTicks": 237,
          "midi": 52,
          "name": "E3",
          "ticks": 37199,
          "time": 48.57307396458334,
          "velocity": 0.4094488188976378
        },
        {
          "duration": 0.4747333937499931,
          "durationTicks": 357,
          "midi": 56,
          "name": "G#3",
          "ticks": 37199,
          "time": 48.57307396458334,
          "velocity": 0.6456692913385826
        },
        {
          "duration": 0.6343076437499988,
          "durationTicks": 477,
          "midi": 52,
          "name": "E3",
          "ticks": 37439,
          "time": 48.892222464583334,
          "velocity": 0.4330708661417323
        },
        {
          "duration": 0.47340360833332795,
          "durationTicks": 356,
          "midi": 56,
          "name": "G#3",
          "ticks": 37559,
          "time": 49.05179671458333,
          "velocity": 0.6850393700787402
        },
        {
          "duration": 0.6329778583333265,
          "durationTicks": 476,
          "midi": 52,
          "name": "E3",
          "ticks": 37920,
          "time": 49.53184925,
          "velocity": 0.41732283464566927
        },
        {
          "duration": 0.47340360833332795,
          "durationTicks": 356,
          "midi": 56,
          "name": "G#3",
          "ticks": 37920,
          "time": 49.53184925,
          "velocity": 0.6456692913385826
        },
        {
          "duration": 0.47340360833332795,
          "durationTicks": 356,
          "midi": 56,
          "name": "G#3",
          "ticks": 38280,
          "time": 50.010572,
          "velocity": 0.6456692913385826
        },
        {
          "duration": 0.6329778583333265,
          "durationTicks": 476,
          "midi": 52,
          "name": "E3",
          "ticks": 38399,
          "time": 50.16881646458334,
          "velocity": 0.4330708661417323
        },
        {
          "duration": 0.47340360833332795,
          "durationTicks": 356,
          "midi": 56,
          "name": "G#3",
          "ticks": 38639,
          "time": 50.487964964583334,
          "velocity": 0.6614173228346457
        },
        {
          "duration": 0.6329778583333336,
          "durationTicks": 476,
          "midi": 52,
          "name": "E3",
          "ticks": 38881,
          "time": 50.80977303541667,
          "velocity": 0.4094488188976378
        },
        {
          "duration": 0.47340360833332795,
          "durationTicks": 356,
          "midi": 56,
          "name": "G#3",
          "ticks": 38999,
          "time": 50.96668771458334,
          "velocity": 0.6535433070866141
        },
        {
          "duration": 0.47340360833332795,
          "durationTicks": 356,
          "midi": 56,
          "name": "G#3",
          "ticks": 39359,
          "time": 51.44541046458333,
          "velocity": 0.6929133858267716
        },
        {
          "duration": 0.6343076437499988,
          "durationTicks": 477,
          "midi": 52,
          "name": "E3",
          "ticks": 39359,
          "time": 51.44541046458333,
          "velocity": 0.4094488188976378
        },
        {
          "duration": 0.47340360833332795,
          "durationTicks": 356,
          "midi": 56,
          "name": "G#3",
          "ticks": 39719,
          "time": 51.924133214583335,
          "velocity": 0.6929133858267716
        },
        {
          "duration": 0.6329778583333265,
          "durationTicks": 476,
          "midi": 52,
          "name": "E3",
          "ticks": 39839,
          "time": 52.083707464583334,
          "velocity": 0.4566929133858268
        },
        {
          "duration": 0.31382935833332226,
          "durationTicks": 236,
          "midi": 56,
          "name": "G#3",
          "ticks": 40079,
          "time": 52.40285596458334,
          "velocity": 0.6692913385826772
        }
      ]
    },
    {
      "channel": 0,
      "controlChanges": {
        "0": [
          {
            "number": 0,
            "ticks": 569,
            "time": 0.4741666666666666,
            "value": 0
          }
        ],
        "32": [
          {
            "number": 32,
            "ticks": 570,
            "time": 0.47500000000000003,
            "value": 0
          }
        ]
      },
      "pitchBends": [],
      "instrument": {
        "family": "piano",
        "number": 0,
        "name": "acoustic grand piano"
      },
      "name": "",
      "notes": []
    },
    {
      "channel": 11,
      "controlChanges": {
        "6": [
          {
            "number": 6,
            "ticks": 665,
            "time": 0.5541666666666667,
            "value": 0.015748031496062992
          }
        ],
        "7": [
          {
            "number": 7,
            "ticks": 572,
            "time": 0.4766666666666667,
            "value": 0.7086614173228346
          }
        ],
        "10": [
          {
            "number": 10,
            "ticks": 573,
            "time": 0.47750000000000004,
            "value": 0.5039370078740157
          }
        ],
        "11": [
          {
            "number": 11,
            "ticks": 574,
            "time": 0.47833333333333333,
            "value": 1
          }
        ],
        "91": [
          {
            "number": 91,
            "ticks": 575,
            "time": 0.47916666666666674,
            "value": 0.4330708661417323
          }
        ],
        "93": [
          {
            "number": 93,
            "ticks": 576,
            "time": 0.48,
            "value": 0.15748031496062992
          }
        ],
        "100": [
          {
            "number": 100,
            "ticks": 661,
            "time": 0.5508333333333334,
            "value": 0
          },
          {
            "number": 100,
            "ticks": 673,
            "time": 0.5608333333333334,
            "value": 1
          }
        ],
        "101": [
          {
            "number": 101,
            "ticks": 657,
            "time": 0.5475,
            "value": 0
          },
          {
            "number": 101,
            "ticks": 669,
            "time": 0.5575,
            "value": 1
          }
        ]
      },
      "pitchBends": [],
      "instrument": {
        "family": "bass",
        "number": 35,
        "name": "fretless bass"
      },
      "name": "",
      "notes": [
        {
          "duration": 0.5864353687500001,
          "durationTicks": 441,
          "midi": 37,
          "name": "C#2",
          "ticks": 1920,
          "time": 1.65957425,
          "velocity": 0.6850393700787402
        },
        {
          "duration": 0.2845740791666671,
          "durationTicks": 214,
          "midi": 37,
          "name": "C#2",
          "ticks": 2399,
          "time": 2.296541464583333,
          "velocity": 0.6456692913385826
        },
        {
          "duration": 0.2393613750000001,
          "durationTicks": 180,
          "midi": 38,
          "name": "D2",
          "ticks": 2639,
          "time": 2.6156899645833334,
          "velocity": 0.6692913385826772
        },
        {
          "duration": 0.5731375145833333,
          "durationTicks": 431,
          "midi": 38,
          "name": "D2",
          "ticks": 2879,
          "time": 2.9348384645833336,
          "velocity": 0.6850393700787402
        },
        {
          "duration": 0.5598396604166664,
          "durationTicks": 421,
          "midi": 38,
          "name": "D2",
          "ticks": 3359,
          "time": 3.5731354645833333,
          "velocity": 0.6929133858267716
        },
        {
          "duration": 0.5837757979166653,
          "durationTicks": 439,
          "midi": 38,
          "name": "D2",
          "ticks": 3839,
          "time": 4.211432464583334,
          "velocity": 0.6929133858267716
        },
        {
          "duration": 0.5585098749999995,
          "durationTicks": 420,
          "midi": 38,
          "name": "D2",
          "ticks": 4321,
          "time": 4.8523890354166666,
          "velocity": 0.6614173228346457
        },
        {
          "duration": 0.5704779437499994,
          "durationTicks": 429,
          "midi": 38,
          "name": "D2",
          "ticks": 4800,
          "time": 5.48935625,
          "velocity": 0.6535433070866141
        },
        {
          "duration": 0.6795203479166663,
          "durationTicks": 511,
          "midi": 38,
          "name": "D2",
          "ticks": 5279,
          "time": 6.126323464583334,
          "velocity": 0.6535433070866141
        },
        {
          "duration": 0.5571800895833334,
          "durationTicks": 419,
          "midi": 33,
          "name": "A1",
          "ticks": 5759,
          "time": 6.764620464583333,
          "velocity": 0.6771653543307087
        },
        {
          "duration": 0.3351059250000006,
          "durationTicks": 252,
          "midi": 33,
          "name": "A1",
          "ticks": 6240,
          "time": 7.40424725,
          "velocity": 0.6771653543307087
        },
        {
          "duration": 0.2925527916666679,
          "durationTicks": 220,
          "midi": 40,
          "name": "E2",
          "ticks": 6479,
          "time": 7.722065964583334,
          "velocity": 0.6535433070866141
        },
        {
          "duration": 0.579786441666668,
          "durationTicks": 436,
          "midi": 40,
          "name": "E2",
          "ticks": 6720,
          "time": 8.042544249999999,
          "velocity": 0.6535433070866141
        },
        {
          "duration": 0.5797864416666663,
          "durationTicks": 436,
          "midi": 40,
          "name": "E2",
          "ticks": 7199,
          "time": 8.679511464583333,
          "velocity": 0.6850393700787402
        },
        {
          "duration": 0.5691481583333324,
          "durationTicks": 428,
          "midi": 40,
          "name": "E2",
          "ticks": 7679,
          "time": 9.317808464583333,
          "velocity": 0.6771653543307087
        },
        {
          "duration": 0.5731375145833333,
          "durationTicks": 431,
          "midi": 40,
          "name": "E2",
          "ticks": 8160,
          "time": 9.95743525,
          "velocity": 0.6929133858267716
        },
        {
          "duration": 0.5611694458333325,
          "durationTicks": 422,
          "midi": 40,
          "name": "E2",
          "ticks": 8639,
          "time": 10.594402464583334,
          "velocity": 0.6929133858267716
        },
        {
          "duration": 0.6728714208333315,
          "durationTicks": 506,
          "midi": 40,
          "name": "E2",
          "ticks": 9119,
          "time": 11.232699464583334,
          "velocity": 0.6535433070866141
        },
        {
          "duration": 0.5731375145833351,
          "durationTicks": 431,
          "midi": 37,
          "name": "C#2",
          "ticks": 9599,
          "time": 11.870996464583332,
          "velocity": 0.6692913385826772
        },
        {
          "duration": 0.3045208604166678,
          "durationTicks": 229,
          "midi": 37,
          "name": "C#2",
          "ticks": 10079,
          "time": 12.509293464583333,
          "velocity": 0.6929133858267716
        },
        {
          "duration": 0.25132944375000044,
          "durationTicks": 189,
          "midi": 38,
          "name": "D2",
          "ticks": 10320,
          "time": 12.82977175,
          "velocity": 0.6929133858267716
        },
        {
          "duration": 0.591754510416667,
          "durationTicks": 445,
          "midi": 38,
          "name": "D2",
          "ticks": 10560,
          "time": 13.14892025,
          "velocity": 0.6850393700787402
        },
        {
          "duration": 0.5731375145833333,
          "durationTicks": 431,
          "midi": 38,
          "name": "D2",
          "ticks": 11039,
          "time": 13.785887464583332,
          "velocity": 0.6456692913385826
        },
        {
          "duration": 0.5465418062500014,
          "durationTicks": 411,
          "midi": 38,
          "name": "D2",
          "ticks": 11519,
          "time": 14.424184464583332,
          "velocity": 0.6535433070866141
        },
        {
          "duration": 0.5226056687499998,
          "durationTicks": 393,
          "midi": 38,
          "name": "D2",
          "ticks": 12000,
          "time": 15.06381125,
          "velocity": 0.6850393700787402
        },
        {
          "duration": 0.5784566562499993,
          "durationTicks": 435,
          "midi": 38,
          "name": "D2",
          "ticks": 12480,
          "time": 15.70210825,
          "velocity": 0.6850393700787402
        },
        {
          "duration": 0.6303182875000033,
          "durationTicks": 474,
          "midi": 38,
          "name": "D2",
          "ticks": 12959,
          "time": 16.33907546458333,
          "velocity": 0.6535433070866141
        },
        {
          "duration": 0.5930842958333322,
          "durationTicks": 446,
          "midi": 33,
          "name": "A1",
          "ticks": 13439,
          "time": 16.977372464583333,
          "velocity": 0.6456692913385826
        },
        {
          "duration": 0.3377654958333345,
          "durationTicks": 254,
          "midi": 33,
          "name": "A1",
          "ticks": 13918,
          "time": 17.614339679166665,
          "velocity": 0.6535433070866141
        },
        {
          "duration": 0.27659536666666895,
          "durationTicks": 208,
          "midi": 40,
          "name": "E2",
          "ticks": 14159,
          "time": 17.93481796458333,
          "velocity": 0.6771653543307087
        },
        {
          "duration": 0.4986695312500018,
          "durationTicks": 375,
          "midi": 40,
          "name": "E2",
          "ticks": 14399,
          "time": 18.253966464583332,
          "velocity": 0.6535433070866141
        },
        {
          "duration": 0.5651588020833316,
          "durationTicks": 425,
          "midi": 40,
          "name": "E2",
          "ticks": 14879,
          "time": 18.892263464583333,
          "velocity": 0.6614173228346457
        },
        {
          "duration": 0.49335038958333044,
          "durationTicks": 371,
          "midi": 40,
          "name": "E2",
          "ticks": 15361,
          "time": 19.53322003541667,
          "velocity": 0.6535433070866141
        },
        {
          "duration": 0.5319141666666667,
          "durationTicks": 400,
          "midi": 40,
          "name": "E2",
          "ticks": 15839,
          "time": 20.168857464583333,
          "velocity": 0.6456692913385826
        },
        {
          "duration": 1.2712748583333386,
          "durationTicks": 956,
          "midi": 40,
          "name": "E2",
          "ticks": 16319,
          "time": 20.80715446458333,
          "velocity": 0.6614173228346457
        },
        {
          "duration": 0.47340360833333506,
          "durationTicks": 356,
          "midi": 37,
          "name": "C#2",
          "ticks": 17279,
          "time": 22.083748464583334,
          "velocity": 0.6850393700787402
        },
        {
          "duration": 0.4734036083333315,
          "durationTicks": 356,
          "midi": 37,
          "name": "C#2",
          "ticks": 17639,
          "time": 22.562471214583336,
          "velocity": 0.6456692913385826
        },
        {
          "duration": 3.639622685416665,
          "durationTicks": 2737,
          "midi": 38,
          "name": "D2",
          "ticks": 17999,
          "time": 23.041193964583336,
          "velocity": 0.6614173228346457
        },
        {
          "duration": 0.30851021666666867,
          "durationTicks": 232,
          "midi": 38,
          "name": "D2",
          "ticks": 20878,
          "time": 26.869646179166665,
          "velocity": 0.6850393700787402
        },
        {
          "duration": 0.5624992312500012,
          "durationTicks": 423,
          "midi": 33,
          "name": "A1",
          "ticks": 21120,
          "time": 27.19145425,
          "velocity": 0.6692913385826772
        },
        {
          "duration": 0.30319107500000086,
          "durationTicks": 228,
          "midi": 33,
          "name": "A1",
          "ticks": 21599,
          "time": 27.828421464583336,
          "velocity": 0.6771653543307087
        },
        {
          "duration": 4.146270929166668,
          "durationTicks": 3118,
          "midi": 40,
          "name": "E2",
          "ticks": 21839,
          "time": 28.147569964583333,
          "velocity": 0.6535433070866141
        },
        {
          "duration": 0.561169445833329,
          "durationTicks": 422,
          "midi": 37,
          "name": "C#2",
          "ticks": 24959,
          "time": 32.29650046458333,
          "velocity": 0.6929133858267716
        },
        {
          "duration": 0.26595708333333334,
          "durationTicks": 200,
          "midi": 37,
          "name": "C#2",
          "ticks": 25440,
          "time": 32.93612725,
          "velocity": 0.6456692913385826
        },
        {
          "duration": 3.663558822916663,
          "durationTicks": 2755,
          "midi": 38,
          "name": "D2",
          "ticks": 25679,
          "time": 33.25394596458334,
          "velocity": 0.6850393700787402
        },
        {
          "duration": 0.2859038645833323,
          "durationTicks": 215,
          "midi": 38,
          "name": "D2",
          "ticks": 28558,
          "time": 37.08239817916667,
          "velocity": 0.6614173228346457
        },
        {
          "duration": 0.5585098749999986,
          "durationTicks": 420,
          "midi": 33,
          "name": "A1",
          "ticks": 28799,
          "time": 37.402876464583336,
          "velocity": 0.6456692913385826
        },
        {
          "duration": 0.2619677270833307,
          "durationTicks": 197,
          "midi": 33,
          "name": "A1",
          "ticks": 29279,
          "time": 38.04117346458334,
          "velocity": 0.6692913385826772
        },
        {
          "duration": 4.110366722916666,
          "durationTicks": 3091,
          "midi": 40,
          "name": "E2",
          "ticks": 29519,
          "time": 38.360321964583335,
          "velocity": 0.6850393700787402
        },
        {
          "duration": 0.5624992312499941,
          "durationTicks": 423,
          "midi": 37,
          "name": "C#2",
          "ticks": 32639,
          "time": 42.509252464583334,
          "velocity": 0.6614173228346457
        },
        {
          "duration": 0.24468051666666213,
          "durationTicks": 184,
          "midi": 37,
          "name": "C#2",
          "ticks": 33119,
          "time": 43.147549464583335,
          "velocity": 0.6456692913385826
        },
        {
          "duration": 3.642282256249999,
          "durationTicks": 2739,
          "midi": 38,
          "name": "D2",
          "ticks": 33359,
          "time": 43.46669796458333,
          "velocity": 0.6771653543307087
        },
        {
          "duration": 0.30319107500000086,
          "durationTicks": 228,
          "midi": 38,
          "name": "D2",
          "ticks": 36239,
          "time": 47.296479964583334,
          "velocity": 0.6929133858267716
        },
        {
          "duration": 0.5359035229166622,
          "durationTicks": 403,
          "midi": 33,
          "name": "A1",
          "ticks": 36478,
          "time": 47.614298679166666,
          "velocity": 0.6771653543307087
        },
        {
          "duration": 0.24468051666667634,
          "durationTicks": 184,
          "midi": 33,
          "name": "A1",
          "ticks": 36960,
          "time": 48.25525525,
          "velocity": 0.6456692913385826
        },
        {
          "duration": 4.111696508333331,
          "durationTicks": 3092,
          "midi": 40,
          "name": "E2",
          "ticks": 37199,
          "time": 48.57307396458334,
          "velocity": 0.6535433070866141
        }
      ]
    },
    {
      "channel": 0,
      "controlChanges": {
        "0": [
          {
            "number": 0,
            "ticks": 577,
            "time": 0.4808333333333334,
            "value": 0
          }
        ],
        "32": [
          {
            "number": 32,
            "ticks": 578,
            "time": 0.4816666666666667,
            "value": 0
          }
        ]
      },
      "pitchBends": [],
      "instrument": {
        "family": "piano",
        "number": 0,
        "name": "acoustic grand piano"
      },
      "name": "",
      "notes": []
    },
    {
      "channel": 0,
      "controlChanges": {
        "0": [
          {
            "number": 0,
            "ticks": 577,
            "time": 0.4808333333333334,
            "value": 0
          }
        ],
        "32": [
          {
            "number": 32,
            "ticks": 578,
            "time": 0.4816666666666667,
            "value": 0
          }
        ]
      },
      "pitchBends": [],
      "instrument": {
        "family": "piano",
        "number": 0,
        "name": "acoustic grand piano"
      },
      "name": "",
      "notes": []
    },
    {
      "channel": 12,
      "controlChanges": {
        "6": [
          {
            "number": 6,
            "ticks": 658,
            "time": 0.5483333333333333,
            "value": 0.015748031496062992
          }
        ],
        "7": [
          {
            "number": 7,
            "ticks": 580,
            "time": 0.48333333333333334,
            "value": 0.5039370078740157
          }
        ],
        "10": [
          {
            "number": 10,
            "ticks": 581,
            "time": 0.4841666666666667,
            "value": 0.5039370078740157
          }
        ],
        "11": [
          {
            "number": 11,
            "ticks": 582,
            "time": 0.485,
            "value": 1
          }
        ],
        "91": [
          {
            "number": 91,
            "ticks": 583,
            "time": 0.48583333333333334,
            "value": 0.4330708661417323
          }
        ],
        "93": [
          {
            "number": 93,
            "ticks": 584,
            "time": 0.48666666666666664,
            "value": 0
          }
        ],
        "100": [
          {
            "number": 100,
            "ticks": 654,
            "time": 0.545,
            "value": 0
          },
          {
            "number": 100,
            "ticks": 666,
            "time": 0.555,
            "value": 1
          }
        ],
        "101": [
          {
            "number": 101,
            "ticks": 650,
            "time": 0.5416666666666667,
            "value": 0
          },
          {
            "number": 101,
            "ticks": 662,
            "time": 0.5516666666666666,
            "value": 1
          }
        ]
      },
      "pitchBends": [],
      "instrument": {
        "family": "synth effects",
        "number": 99,
        "name": "fx 4 (atmosphere)"
      },
      "name": "",
      "notes": [
        {
          "duration": 0.4268611187500002,
          "durationTicks": 321,
          "midi": 71,
          "name": "B4",
          "ticks": 1920,
          "time": 1.65957425,
          "velocity": 0.6929133858267716
        },
        {
          "duration": 0.3909569125000001,
          "durationTicks": 294,
          "midi": 64,
          "name": "E4",
          "ticks": 1920,
          "time": 1.65957425,
          "velocity": 0.6535433070866141
        },
        {
          "duration": 0.35106335,
          "durationTicks": 264,
          "midi": 64,
          "name": "E4",
          "ticks": 2280,
          "time": 2.138297,
          "velocity": 0.6929133858267716
        },
        {
          "duration": 0.3417548520833331,
          "durationTicks": 257,
          "midi": 73,
          "name": "C#5",
          "ticks": 2280,
          "time": 2.138297,
          "velocity": 0.6614173228346457
        },
        {
          "duration": 1.20079623125,
          "durationTicks": 903,
          "midi": 64,
          "name": "E4",
          "ticks": 2639,
          "time": 2.6156899645833334,
          "velocity": 0.6929133858267716
        },
        {
          "duration": 1.1742005229166668,
          "durationTicks": 883,
          "midi": 69,
          "name": "A4",
          "ticks": 2639,
          "time": 2.6156899645833334,
          "velocity": 0.6456692913385826
        },
        {
          "duration": 1.1715409520833333,
          "durationTicks": 881,
          "midi": 66,
          "name": "F#4",
          "ticks": 2639,
          "time": 2.6156899645833334,
          "velocity": 0.6771653543307087
        },
        {
          "duration": 2.6768580437499994,
          "durationTicks": 2013,
          "midi": 62,
          "name": "D4",
          "ticks": 3600,
          "time": 3.89361375,
          "velocity": 0.6456692913385826
        },
        {
          "duration": 2.7260601041666668,
          "durationTicks": 2050,
          "midi": 66,
          "name": "F#4",
          "ticks": 3600,
          "time": 3.89361375,
          "velocity": 0.6614173228346457
        },
        {
          "duration": 0.42819090416666583,
          "durationTicks": 322,
          "midi": 74,
          "name": "D5",
          "ticks": 5759,
          "time": 6.764620464583333,
          "velocity": 0.6771653543307087
        },
        {
          "duration": 0.4255313333333328,
          "durationTicks": 320,
          "midi": 69,
          "name": "A4",
          "ticks": 5759,
          "time": 6.764620464583333,
          "velocity": 0.6850393700787402
        },
        {
          "duration": 0.40292498125,
          "durationTicks": 303,
          "midi": 64,
          "name": "E4",
          "ticks": 5759,
          "time": 6.764620464583333,
          "velocity": 0.6692913385826772
        },
        {
          "duration": 0.3297867833333328,
          "durationTicks": 248,
          "midi": 73,
          "name": "C#5",
          "ticks": 6119,
          "time": 7.243343214583334,
          "velocity": 0.6614173228346457
        },
        {
          "duration": 0.308510216666666,
          "durationTicks": 232,
          "midi": 64,
          "name": "E4",
          "ticks": 6119,
          "time": 7.243343214583334,
          "velocity": 0.6535433070866141
        },
        {
          "duration": 0.3324463541666667,
          "durationTicks": 250,
          "midi": 69,
          "name": "A4",
          "ticks": 6119,
          "time": 7.243343214583334,
          "velocity": 0.6535433070866141
        },
        {
          "duration": 4.046537022916665,
          "durationTicks": 3043,
          "midi": 64,
          "name": "E4",
          "ticks": 6458,
          "time": 7.694140470833334,
          "velocity": 0.6456692913385826
        },
        {
          "duration": 4.04121788125,
          "durationTicks": 3039,
          "midi": 68,
          "name": "G#4",
          "ticks": 6474,
          "time": 7.715417037500001,
          "velocity": 0.6929133858267716
        },
        {
          "duration": 3.928186120833333,
          "durationTicks": 2954,
          "midi": 71,
          "name": "B4",
          "ticks": 6494,
          "time": 7.742012745833334,
          "velocity": 0.6535433070866141
        },
        {
          "duration": 0.45212704166666917,
          "durationTicks": 340,
          "midi": 68,
          "name": "G#4",
          "ticks": 9599,
          "time": 11.870996464583332,
          "velocity": 0.6456692913385826
        },
        {
          "duration": 0.4122334791666695,
          "durationTicks": 310,
          "midi": 64,
          "name": "E4",
          "ticks": 9599,
          "time": 11.870996464583332,
          "velocity": 0.6929133858267716
        },
        {
          "duration": 0.3404250666666684,
          "durationTicks": 256,
          "midi": 69,
          "name": "A4",
          "ticks": 9960,
          "time": 12.351049,
          "velocity": 0.6929133858267716
        },
        {
          "duration": 0.3470739937499996,
          "durationTicks": 261,
          "midi": 64,
          "name": "E4",
          "ticks": 9961,
          "time": 12.352378785416668,
          "velocity": 0.6850393700787402
        },
        {
          "duration": 1.196806875,
          "durationTicks": 900,
          "midi": 64,
          "name": "E4",
          "ticks": 10320,
          "time": 12.82977175,
          "velocity": 0.6850393700787402
        },
        {
          "duration": 1.1888281625000001,
          "durationTicks": 894,
          "midi": 62,
          "name": "D4",
          "ticks": 10320,
          "time": 12.82977175,
          "velocity": 0.6535433070866141
        },
        {
          "duration": 1.1954770895833313,
          "durationTicks": 899,
          "midi": 66,
          "name": "F#4",
          "ticks": 10320,
          "time": 12.82977175,
          "velocity": 0.6692913385826772
        },
        {
          "duration": 2.579783708333334,
          "durationTicks": 1940,
          "midi": 62,
          "name": "D4",
          "ticks": 11279,
          "time": 14.105035964583333,
          "velocity": 0.6535433070866141
        },
        {
          "duration": 2.586432635416667,
          "durationTicks": 1945,
          "midi": 64,
          "name": "E4",
          "ticks": 11279,
          "time": 14.105035964583333,
          "velocity": 0.6692913385826772
        },
        {
          "duration": 2.589092206250001,
          "durationTicks": 1947,
          "midi": 66,
          "name": "F#4",
          "ticks": 11279,
          "time": 14.105035964583333,
          "velocity": 0.6771653543307087
        },
        {
          "duration": 0.11436154583333291,
          "durationTicks": 86,
          "midi": 64,
          "name": "E4",
          "ticks": 13424,
          "time": 16.957425683333334,
          "velocity": 0.6614173228346457
        },
        {
          "duration": 0.39494626875000094,
          "durationTicks": 297,
          "midi": 61,
          "name": "C#4",
          "ticks": 13439,
          "time": 16.977372464583333,
          "velocity": 0.6614173228346457
        },
        {
          "duration": 0.39494626875000094,
          "durationTicks": 297,
          "midi": 66,
          "name": "F#4",
          "ticks": 13439,
          "time": 16.977372464583333,
          "velocity": 0.6456692913385826
        },
        {
          "duration": 0.05186163124999865,
          "durationTicks": 39,
          "midi": 64,
          "name": "E4",
          "ticks": 13785,
          "time": 17.43747821875,
          "velocity": 0.6771653543307087
        },
        {
          "duration": 0.33909528124999966,
          "durationTicks": 255,
          "midi": 61,
          "name": "C#4",
          "ticks": 13799,
          "time": 17.456095214583332,
          "velocity": 0.6850393700787402
        },
        {
          "duration": 0.3723399166666681,
          "durationTicks": 280,
          "midi": 66,
          "name": "F#4",
          "ticks": 13799,
          "time": 17.456095214583332,
          "velocity": 0.6850393700787402
        },
        {
          "duration": 3.68217581875,
          "durationTicks": 2769,
          "midi": 59,
          "name": "B3",
          "ticks": 14159,
          "time": 17.93481796458333,
          "velocity": 0.6692913385826772
        },
        {
          "duration": 3.7433459479166693,
          "durationTicks": 2815,
          "midi": 68,
          "name": "G#4",
          "ticks": 14159,
          "time": 17.93481796458333,
          "velocity": 0.6850393700787402
        },
        {
          "duration": 3.7380268062500015,
          "durationTicks": 2811,
          "midi": 64,
          "name": "E4",
          "ticks": 14159,
          "time": 17.93481796458333,
          "velocity": 0.6535433070866141
        },
        {
          "duration": 1.2686152875000012,
          "durationTicks": 954,
          "midi": 71,
          "name": "B4",
          "ticks": 17039,
          "time": 21.764599964583333,
          "velocity": 0.6535433070866141
        },
        {
          "duration": 1.260636575000003,
          "durationTicks": 948,
          "midi": 64,
          "name": "E4",
          "ticks": 17039,
          "time": 21.764599964583333,
          "velocity": 0.6614173228346457
        },
        {
          "duration": 1.2579770041666656,
          "durationTicks": 946,
          "midi": 68,
          "name": "G#4",
          "ticks": 17039,
          "time": 21.764599964583333,
          "velocity": 0.6456692913385826
        },
        {
          "duration": 1.2433493645833344,
          "durationTicks": 935,
          "midi": 61,
          "name": "C#4",
          "ticks": 17041,
          "time": 21.767259535416667,
          "velocity": 0.6535433070866141
        },
        {
          "duration": 1.2606365749999995,
          "durationTicks": 948,
          "midi": 66,
          "name": "F#4",
          "ticks": 17041,
          "time": 21.767259535416667,
          "velocity": 0.6850393700787402
        },
        {
          "duration": 3.658239681249995,
          "durationTicks": 2751,
          "midi": 66,
          "name": "F#4",
          "ticks": 17999,
          "time": 23.041193964583336,
          "velocity": 0.6456692913385826
        },
        {
          "duration": 3.636963114583331,
          "durationTicks": 2735,
          "midi": 69,
          "name": "A4",
          "ticks": 17999,
          "time": 23.041193964583336,
          "velocity": 0.6850393700787402
        },
        {
          "duration": 3.667548179166662,
          "durationTicks": 2758,
          "midi": 62,
          "name": "D4",
          "ticks": 17999,
          "time": 23.041193964583336,
          "velocity": 0.6456692913385826
        },
        {
          "duration": 1.1675515958333378,
          "durationTicks": 878,
          "midi": 66,
          "name": "F#4",
          "ticks": 20878,
          "time": 26.869646179166665,
          "velocity": 0.6614173228346457
        },
        {
          "duration": 1.1462750291666666,
          "durationTicks": 862,
          "midi": 62,
          "name": "D4",
          "ticks": 20878,
          "time": 26.869646179166665,
          "velocity": 0.6614173228346457
        },
        {
          "duration": 1.1356367458333345,
          "durationTicks": 854,
          "midi": 57,
          "name": "A3",
          "ticks": 20878,
          "time": 26.869646179166665,
          "velocity": 0.6771653543307087
        },
        {
          "duration": 3.68217581875,
          "durationTicks": 2769,
          "midi": 59,
          "name": "B3",
          "ticks": 21839,
          "time": 28.147569964583333,
          "velocity": 0.6850393700787402
        },
        {
          "duration": 3.6861651749999993,
          "durationTicks": 2772,
          "midi": 64,
          "name": "E4",
          "ticks": 21839,
          "time": 28.147569964583333,
          "velocity": 0.6456692913385826
        },
        {
          "duration": 3.68217581875,
          "durationTicks": 2769,
          "midi": 68,
          "name": "G#4",
          "ticks": 21839,
          "time": 28.147569964583333,
          "velocity": 0.6771653543307087
        },
        {
          "duration": 1.1077112520833339,
          "durationTicks": 833,
          "midi": 59,
          "name": "B3",
          "ticks": 24719,
          "time": 31.977351964583335,
          "velocity": 0.6456692913385826
        },
        {
          "duration": 1.1170197499999972,
          "durationTicks": 840,
          "midi": 68,
          "name": "G#4",
          "ticks": 24719,
          "time": 31.977351964583335,
          "velocity": 0.6692913385826772
        },
        {
          "duration": 1.135636745833331,
          "durationTicks": 854,
          "midi": 64,
          "name": "E4",
          "ticks": 24719,
          "time": 31.977351964583335,
          "velocity": 0.6850393700787402
        },
        {
          "duration": 3.65690989583333,
          "durationTicks": 2750,
          "midi": 66,
          "name": "F#4",
          "ticks": 25679,
          "time": 33.25394596458334,
          "velocity": 0.6692913385826772
        },
        {
          "duration": 3.671537535416661,
          "durationTicks": 2761,
          "midi": 62,
          "name": "D4",
          "ticks": 25679,
          "time": 33.25394596458334,
          "velocity": 0.6771653543307087
        },
        {
          "duration": 3.6462716124999943,
          "durationTicks": 2742,
          "midi": 69,
          "name": "A4",
          "ticks": 25679,
          "time": 33.25394596458334,
          "velocity": 0.6850393700787402
        },
        {
          "duration": 1.0997325395833357,
          "durationTicks": 827,
          "midi": 57,
          "name": "A3",
          "ticks": 28558,
          "time": 37.08239817916667,
          "velocity": 0.6692913385826772
        },
        {
          "duration": 1.1183495354166695,
          "durationTicks": 841,
          "midi": 62,
          "name": "D4",
          "ticks": 28558,
          "time": 37.08239817916667,
          "velocity": 0.6771653543307087
        },
        {
          "duration": 1.1343069604166658,
          "durationTicks": 853,
          "midi": 66,
          "name": "F#4",
          "ticks": 28558,
          "time": 37.08239817916667,
          "velocity": 0.6692913385826772
        },
        {
          "duration": 3.631643972916663,
          "durationTicks": 2731,
          "midi": 64,
          "name": "E4",
          "ticks": 29519,
          "time": 38.360321964583335,
          "velocity": 0.6614173228346457
        },
        {
          "duration": 3.6276546166666677,
          "durationTicks": 2728,
          "midi": 59,
          "name": "B3",
          "ticks": 29519,
          "time": 38.360321964583335,
          "velocity": 0.6456692913385826
        },
        {
          "duration": 3.631643972916663,
          "durationTicks": 2731,
          "midi": 68,
          "name": "G#4",
          "ticks": 29519,
          "time": 38.360321964583335,
          "velocity": 0.6929133858267716
        },
        {
          "duration": 1.3563811249999986,
          "durationTicks": 1020,
          "midi": 64,
          "name": "E4",
          "ticks": 32400,
          "time": 42.19143375,
          "velocity": 0.6771653543307087
        },
        {
          "duration": 1.3417534854166675,
          "durationTicks": 1009,
          "midi": 68,
          "name": "G#4",
          "ticks": 32400,
          "time": 42.19143375,
          "velocity": 0.6456692913385826
        },
        {
          "duration": 1.3617002666666664,
          "durationTicks": 1024,
          "midi": 59,
          "name": "B3",
          "ticks": 32400,
          "time": 42.19143375,
          "velocity": 0.6771653543307087
        },
        {
          "duration": 3.610367406249999,
          "durationTicks": 2715,
          "midi": 62,
          "name": "D4",
          "ticks": 33600,
          "time": 43.78717625,
          "velocity": 0.6692913385826772
        },
        {
          "duration": 3.6130269770833294,
          "durationTicks": 2717,
          "midi": 57,
          "name": "A3",
          "ticks": 33600,
          "time": 43.78717625,
          "velocity": 0.6456692913385826
        },
        {
          "duration": 0.9215412937499963,
          "durationTicks": 693,
          "midi": 66,
          "name": "F#4",
          "ticks": 33600,
          "time": 43.78717625,
          "velocity": 0.6929133858267716
        },
        {
          "duration": 2.6582410479166683,
          "durationTicks": 1999,
          "midi": 64,
          "name": "E4",
          "ticks": 34320,
          "time": 44.74462175,
          "velocity": 0.6692913385826772
        },
        {
          "duration": 0.8470733104166683,
          "durationTicks": 637,
          "midi": 57,
          "name": "A3",
          "ticks": 36478,
          "time": 47.614298679166666,
          "velocity": 0.6456692913385826
        },
        {
          "duration": 0.8577115937500039,
          "durationTicks": 645,
          "midi": 61,
          "name": "C#4",
          "ticks": 36478,
          "time": 47.614298679166666,
          "velocity": 0.6771653543307087
        },
        {
          "duration": 0.8749988041666654,
          "durationTicks": 658,
          "midi": 64,
          "name": "E4",
          "ticks": 36478,
          "time": 47.614298679166666,
          "velocity": 0.6850393700787402
        },
        {
          "duration": 4.031909383333328,
          "durationTicks": 3032,
          "midi": 64,
          "name": "E4",
          "ticks": 37199,
          "time": 48.57307396458334,
          "velocity": 0.6456692913385826
        },
        {
          "duration": 4.025260456249995,
          "durationTicks": 3027,
          "midi": 68,
          "name": "G#4",
          "ticks": 37199,
          "time": 48.57307396458334,
          "velocity": 0.6614173228346457
        },
        {
          "duration": 4.029249812499998,
          "durationTicks": 3030,
          "midi": 59,
          "name": "B3",
          "ticks": 37199,
          "time": 48.57307396458334,
          "velocity": 0.6535433070866141
        }
      ]
    },
    {
      "channel": 13,
      "controlChanges": {
        "6": [
          {
            "number": 6,
            "ticks": 658,
            "time": 0.5483333333333333,
            "value": 0.015748031496062992
          }
        ],
        "7": [
          {
            "number": 7,
            "ticks": 580,
            "time": 0.48333333333333334,
            "value": 0.7874015748031497
          }
        ],
        "10": [
          {
            "number": 10,
            "ticks": 581,
            "time": 0.4841666666666667,
            "value": 0.5039370078740157
          }
        ],
        "11": [
          {
            "number": 11,
            "ticks": 582,
            "time": 0.485,
            "value": 1
          }
        ],
        "91": [
          {
            "number": 91,
            "ticks": 583,
            "time": 0.48583333333333334,
            "value": 0.4330708661417323
          }
        ],
        "93": [
          {
            "number": 93,
            "ticks": 584,
            "time": 0.48666666666666664,
            "value": 0
          }
        ],
        "100": [
          {
            "number": 100,
            "ticks": 654,
            "time": 0.545,
            "value": 0
          },
          {
            "number": 100,
            "ticks": 666,
            "time": 0.555,
            "value": 1
          }
        ],
        "101": [
          {
            "number": 101,
            "ticks": 650,
            "time": 0.5416666666666667,
            "value": 0
          },
          {
            "number": 101,
            "ticks": 662,
            "time": 0.5516666666666666,
            "value": 1
          }
        ]
      },
      "pitchBends": [],
      "instrument": {
        "family": "synth effects",
        "number": 100,
        "name": "fx 5 (brightness)"
      },
      "name": "",
      "notes": [
        {
          "duration": 0.14760618124999425,
          "durationTicks": 111,
          "midi": 93,
          "name": "A6",
          "ticks": 17718,
          "time": 22.667524262500002,
          "velocity": 0.2755905511811024
        },
        {
          "duration": 0.13829768333333448,
          "durationTicks": 104,
          "midi": 90,
          "name": "F#6",
          "ticks": 17767,
          "time": 22.732683747916667,
          "velocity": 0.30708661417322836
        },
        {
          "duration": 0.11968068750000072,
          "durationTicks": 90,
          "midi": 86,
          "name": "D6",
          "ticks": 17819,
          "time": 22.801832589583334,
          "velocity": 0.2755905511811024
        },
        {
          "duration": 0.09042540833333135,
          "durationTicks": 68,
          "midi": 81,
          "name": "A5",
          "ticks": 17867,
          "time": 22.865662289583337,
          "velocity": 0.28346456692913385
        },
        {
          "duration": 3.33377203958333,
          "durationTicks": 2507,
          "midi": 85,
          "name": "C#6",
          "ticks": 37199,
          "time": 48.57307396458334,
          "velocity": 0.2755905511811024
        },
        {
          "duration": 3.3218039708333293,
          "durationTicks": 2498,
          "midi": 88,
          "name": "E6",
          "ticks": 37199,
          "time": 48.57307396458334,
          "velocity": 0.30708661417322836
        },
        {
          "duration": 3.292548691666667,
          "durationTicks": 2476,
          "midi": 83,
          "name": "B5",
          "ticks": 37199,
          "time": 48.57307396458334,
          "velocity": 0.2755905511811024
        }
      ]
    },
    {
      "channel": 0,
      "controlChanges": {
        "0": [
          {
            "number": 0,
            "ticks": 585,
            "time": 0.48750000000000004,
            "value": 0
          }
        ],
        "32": [
          {
            "number": 32,
            "ticks": 586,
            "time": 0.4883333333333334,
            "value": 0
          }
        ]
      },
      "pitchBends": [],
      "instrument": {
        "family": "piano",
        "number": 0,
        "name": "acoustic grand piano"
      },
      "name": "",
      "notes": []
    },
    {
      "channel": 14,
      "controlChanges": {
        "6": [
          {
            "number": 6,
            "ticks": 657,
            "time": 0.5475,
            "value": 0.015748031496062992
          }
        ],
        "7": [
          {
            "number": 7,
            "ticks": 588,
            "time": 0.49000000000000005,
            "value": 0.7086614173228346
          }
        ],
        "10": [
          {
            "number": 10,
            "ticks": 589,
            "time": 0.49083333333333334,
            "value": 0.5039370078740157
          }
        ],
        "11": [
          {
            "number": 11,
            "ticks": 590,
            "time": 0.4916666666666667,
            "value": 1
          }
        ],
        "91": [
          {
            "number": 91,
            "ticks": 591,
            "time": 0.4925,
            "value": 0.4330708661417323
          }
        ],
        "93": [
          {
            "number": 93,
            "ticks": 592,
            "time": 0.4933333333333334,
            "value": 0
          }
        ],
        "100": [
          {
            "number": 100,
            "ticks": 653,
            "time": 0.5441666666666667,
            "value": 0
          },
          {
            "number": 100,
            "ticks": 665,
            "time": 0.5541666666666667,
            "value": 1
          }
        ],
        "101": [
          {
            "number": 101,
            "ticks": 649,
            "time": 0.5408333333333334,
            "value": 0
          },
          {
            "number": 101,
            "ticks": 661,
            "time": 0.5508333333333334,
            "value": 1
          }
        ]
      },
      "pitchBends": [],
      "instrument": {
        "family": "synth pad",
        "number": 94,
        "name": "pad 7 (halo)"
      },
      "name": "",
      "notes": [
        {
          "duration": 0.07712755416666184,
          "durationTicks": 58,
          "midi": 37,
          "name": "C#2",
          "ticks": 18240,
          "time": 23.36167225,
          "velocity": 0.5275590551181102
        },
        {
          "duration": 0.06648927083333689,
          "durationTicks": 50,
          "midi": 37,
          "name": "C#2",
          "ticks": 18361,
          "time": 23.522576285416665,
          "velocity": 0.4881889763779528
        },
        {
          "duration": 0.06117012916666553,
          "durationTicks": 46,
          "midi": 37,
          "name": "C#2",
          "ticks": 18480,
          "time": 23.68082075,
          "velocity": 0.4881889763779528
        },
        {
          "duration": 0.07047862708333241,
          "durationTicks": 53,
          "midi": 37,
          "name": "C#2",
          "ticks": 18600,
          "time": 23.840395,
          "velocity": 0.5275590551181102
        }
      ]
    },
    {
      "channel": 0,
      "controlChanges": {
        "0": [
          {
            "number": 0,
            "ticks": 593,
            "time": 0.49416666666666664,
            "value": 0
          }
        ],
        "32": [
          {
            "number": 32,
            "ticks": 594,
            "time": 0.49500000000000005,
            "value": 0
          }
        ]
      },
      "pitchBends": [],
      "instrument": {
        "family": "piano",
        "number": 0,
        "name": "acoustic grand piano"
      },
      "name": "",
      "notes": []
    },
    {
      "channel": 15,
      "controlChanges": {
        "6": [
          {
            "number": 6,
            "ticks": 661,
            "time": 0.5508333333333334,
            "value": 0.015748031496062992
          }
        ],
        "7": [
          {
            "number": 7,
            "ticks": 596,
            "time": 0.4966666666666667,
            "value": 0.7874015748031497
          }
        ],
        "10": [
          {
            "number": 10,
            "ticks": 597,
            "time": 0.4975,
            "value": 0.5039370078740157
          }
        ],
        "11": [
          {
            "number": 11,
            "ticks": 598,
            "time": 0.49833333333333335,
            "value": 1
          }
        ],
        "91": [
          {
            "number": 91,
            "ticks": 599,
            "time": 0.49916666666666665,
            "value": 0.4330708661417323
          }
        ],
        "93": [
          {
            "number": 93,
            "ticks": 600,
            "time": 0.5,
            "value": 0
          }
        ],
        "100": [
          {
            "number": 100,
            "ticks": 669,
            "time": 0.5575,
            "value": 1
          }
        ],
        "101": [
          {
            "number": 101,
            "ticks": 665,
            "time": 0.5541666666666667,
            "value": 1
          }
        ]
      },
      "pitchBends": [],
      "instrument": {
        "family": "piano",
        "number": 1,
        "name": "bright acoustic piano"
      },
      "name": "",
      "notes": [
        {
          "duration": 0.9521263583333335,
          "durationTicks": 716,
          "midi": 49,
          "name": "C#3",
          "ticks": 1920,
          "time": 1.65957425,
          "velocity": 0.007874015748031496
        },
        {
          "duration": 0.9521263583333335,
          "durationTicks": 716,
          "midi": 61,
          "name": "C#4",
          "ticks": 1920,
          "time": 1.65957425,
          "velocity": 0.007874015748031496
        },
        {
          "duration": 0.9521263583333335,
          "durationTicks": 716,
          "midi": 64,
          "name": "E4",
          "ticks": 1920,
          "time": 1.65957425,
          "velocity": 0.007874015748031496
        },
        {
          "duration": 0.9521263583333335,
          "durationTicks": 716,
          "midi": 68,
          "name": "G#4",
          "ticks": 1920,
          "time": 1.65957425,
          "velocity": 0.007874015748031496
        },
        {
          "duration": 4.1436113583333345,
          "durationTicks": 3116,
          "midi": 50,
          "name": "D3",
          "ticks": 2639,
          "time": 2.6156899645833334,
          "velocity": 0.007874015748031496
        },
        {
          "duration": 4.1436113583333345,
          "durationTicks": 3116,
          "midi": 62,
          "name": "D4",
          "ticks": 2639,
          "time": 2.6156899645833334,
          "velocity": 0.007874015748031496
        },
        {
          "duration": 4.1436113583333345,
          "durationTicks": 3116,
          "midi": 66,
          "name": "F#4",
          "ticks": 2639,
          "time": 2.6156899645833334,
          "velocity": 0.007874015748031496
        },
        {
          "duration": 4.1436113583333345,
          "durationTicks": 3116,
          "midi": 69,
          "name": "A4",
          "ticks": 2639,
          "time": 2.6156899645833334,
          "velocity": 0.007874015748031496
        },
        {
          "duration": 0.9507965729166674,
          "durationTicks": 715,
          "midi": 45,
          "name": "A2",
          "ticks": 5759,
          "time": 6.764620464583333,
          "velocity": 0.007874015748031496
        },
        {
          "duration": 0.9507965729166674,
          "durationTicks": 715,
          "midi": 57,
          "name": "A3",
          "ticks": 5759,
          "time": 6.764620464583333,
          "velocity": 0.007874015748031496
        },
        {
          "duration": 0.9507965729166674,
          "durationTicks": 715,
          "midi": 61,
          "name": "C#4",
          "ticks": 5759,
          "time": 6.764620464583333,
          "velocity": 0.007874015748031496
        },
        {
          "duration": 0.9507965729166674,
          "durationTicks": 715,
          "midi": 64,
          "name": "E4",
          "ticks": 5759,
          "time": 6.764620464583333,
          "velocity": 0.007874015748031496
        },
        {
          "duration": 4.143611358333332,
          "durationTicks": 3116,
          "midi": 52,
          "name": "E3",
          "ticks": 6479,
          "time": 7.722065964583334,
          "velocity": 0.007874015748031496
        },
        {
          "duration": 4.143611358333332,
          "durationTicks": 3116,
          "midi": 64,
          "name": "E4",
          "ticks": 6479,
          "time": 7.722065964583334,
          "velocity": 0.007874015748031496
        },
        {
          "duration": 4.143611358333332,
          "durationTicks": 3116,
          "midi": 68,
          "name": "G#4",
          "ticks": 6479,
          "time": 7.722065964583334,
          "velocity": 0.007874015748031496
        },
        {
          "duration": 4.143611358333332,
          "durationTicks": 3116,
          "midi": 71,
          "name": "B4",
          "ticks": 6479,
          "time": 7.722065964583334,
          "velocity": 0.007874015748031496
        },
        {
          "duration": 0.9521263583333344,
          "durationTicks": 716,
          "midi": 49,
          "name": "C#3",
          "ticks": 9599,
          "time": 11.870996464583332,
          "velocity": 0.007874015748031496
        },
        {
          "duration": 0.9521263583333344,
          "durationTicks": 716,
          "midi": 61,
          "name": "C#4",
          "ticks": 9599,
          "time": 11.870996464583332,
          "velocity": 0.007874015748031496
        },
        {
          "duration": 0.9521263583333344,
          "durationTicks": 716,
          "midi": 64,
          "name": "E4",
          "ticks": 9599,
          "time": 11.870996464583332,
          "velocity": 0.007874015748031496
        },
        {
          "duration": 0.9521263583333344,
          "durationTicks": 716,
          "midi": 68,
          "name": "G#4",
          "ticks": 9599,
          "time": 11.870996464583332,
          "velocity": 0.007874015748031496
        },
        {
          "duration": 4.143611358333333,
          "durationTicks": 3116,
          "midi": 50,
          "name": "D3",
          "ticks": 10320,
          "time": 12.82977175,
          "velocity": 0.007874015748031496
        },
        {
          "duration": 4.143611358333333,
          "durationTicks": 3116,
          "midi": 62,
          "name": "D4",
          "ticks": 10320,
          "time": 12.82977175,
          "velocity": 0.007874015748031496
        },
        {
          "duration": 4.143611358333333,
          "durationTicks": 3116,
          "midi": 66,
          "name": "F#4",
          "ticks": 10320,
          "time": 12.82977175,
          "velocity": 0.007874015748031496
        },
        {
          "duration": 4.143611358333333,
          "durationTicks": 3116,
          "midi": 69,
          "name": "A4",
          "ticks": 10320,
          "time": 12.82977175,
          "velocity": 0.007874015748031496
        },
        {
          "duration": 0.9534561437499995,
          "durationTicks": 717,
          "midi": 45,
          "name": "A2",
          "ticks": 13439,
          "time": 16.977372464583333,
          "velocity": 0.007874015748031496
        },
        {
          "duration": 0.9534561437499995,
          "durationTicks": 717,
          "midi": 57,
          "name": "A3",
          "ticks": 13439,
          "time": 16.977372464583333,
          "velocity": 0.007874015748031496
        },
        {
          "duration": 0.9534561437499995,
          "durationTicks": 717,
          "midi": 61,
          "name": "C#4",
          "ticks": 13439,
          "time": 16.977372464583333,
          "velocity": 0.007874015748031496
        },
        {
          "duration": 0.9534561437499995,
          "durationTicks": 717,
          "midi": 64,
          "name": "E4",
          "ticks": 13439,
          "time": 16.977372464583333,
          "velocity": 0.007874015748031496
        },
        {
          "duration": 3.8257926437500025,
          "durationTicks": 2877,
          "midi": 52,
          "name": "E3",
          "ticks": 14159,
          "time": 17.93481796458333,
          "velocity": 0.007874015748031496
        },
        {
          "duration": 3.8257926437500025,
          "durationTicks": 2877,
          "midi": 64,
          "name": "E4",
          "ticks": 14159,
          "time": 17.93481796458333,
          "velocity": 0.007874015748031496
        },
        {
          "duration": 3.8257926437500025,
          "durationTicks": 2877,
          "midi": 68,
          "name": "G#4",
          "ticks": 14159,
          "time": 17.93481796458333,
          "velocity": 0.007874015748031496
        },
        {
          "duration": 3.8257926437500025,
          "durationTicks": 2877,
          "midi": 71,
          "name": "B4",
          "ticks": 14159,
          "time": 17.93481796458333,
          "velocity": 0.007874015748031496
        },
        {
          "duration": 1.2726046437500003,
          "durationTicks": 957,
          "midi": 49,
          "name": "C#3",
          "ticks": 17039,
          "time": 21.764599964583333,
          "velocity": 0.007874015748031496
        },
        {
          "duration": 1.2726046437500003,
          "durationTicks": 957,
          "midi": 61,
          "name": "C#4",
          "ticks": 17039,
          "time": 21.764599964583333,
          "velocity": 0.007874015748031496
        },
        {
          "duration": 1.2726046437500003,
          "durationTicks": 957,
          "midi": 64,
          "name": "E4",
          "ticks": 17039,
          "time": 21.764599964583333,
          "velocity": 0.007874015748031496
        },
        {
          "duration": 1.2726046437500003,
          "durationTicks": 957,
          "midi": 68,
          "name": "G#4",
          "ticks": 17039,
          "time": 21.764599964583333,
          "velocity": 0.007874015748031496
        },
        {
          "duration": 4.143611358333331,
          "durationTicks": 3116,
          "midi": 50,
          "name": "D3",
          "ticks": 17999,
          "time": 23.041193964583336,
          "velocity": 0.007874015748031496
        },
        {
          "duration": 4.143611358333331,
          "durationTicks": 3116,
          "midi": 62,
          "name": "D4",
          "ticks": 17999,
          "time": 23.041193964583336,
          "velocity": 0.007874015748031496
        },
        {
          "duration": 4.143611358333331,
          "durationTicks": 3116,
          "midi": 66,
          "name": "F#4",
          "ticks": 17999,
          "time": 23.041193964583336,
          "velocity": 0.007874015748031496
        },
        {
          "duration": 4.143611358333331,
          "durationTicks": 3116,
          "midi": 69,
          "name": "A4",
          "ticks": 17999,
          "time": 23.041193964583336,
          "velocity": 0.007874015748031496
        },
        {
          "duration": 0.6329778583333336,
          "durationTicks": 476,
          "midi": 45,
          "name": "A2",
          "ticks": 21120,
          "time": 27.19145425,
          "velocity": 0.007874015748031496
        },
        {
          "duration": 0.6329778583333336,
          "durationTicks": 476,
          "midi": 62,
          "name": "D4",
          "ticks": 21120,
          "time": 27.19145425,
          "velocity": 0.007874015748031496
        },
        {
          "duration": 0.6329778583333336,
          "durationTicks": 476,
          "midi": 66,
          "name": "F#4",
          "ticks": 21120,
          "time": 27.19145425,
          "velocity": 0.007874015748031496
        },
        {
          "duration": 0.6329778583333336,
          "durationTicks": 476,
          "midi": 69,
          "name": "A4",
          "ticks": 21120,
          "time": 27.19145425,
          "velocity": 0.007874015748031496
        },
        {
          "duration": 0.6329778583333336,
          "durationTicks": 476,
          "midi": 45,
          "name": "A2",
          "ticks": 21599,
          "time": 27.828421464583336,
          "velocity": 0.007874015748031496
        },
        {
          "duration": 0.6329778583333336,
          "durationTicks": 476,
          "midi": 64,
          "name": "E4",
          "ticks": 21599,
          "time": 27.828421464583336,
          "velocity": 0.007874015748031496
        },
        {
          "duration": 0.6329778583333336,
          "durationTicks": 476,
          "midi": 68,
          "name": "G#4",
          "ticks": 21599,
          "time": 27.828421464583336,
          "velocity": 0.007874015748031496
        },
        {
          "duration": 0.6329778583333336,
          "durationTicks": 476,
          "midi": 71,
          "name": "B4",
          "ticks": 21599,
          "time": 27.828421464583336,
          "velocity": 0.007874015748031496
        },
        {
          "duration": 3.823133072916672,
          "durationTicks": 2875,
          "midi": 52,
          "name": "E3",
          "ticks": 22080,
          "time": 28.46804825,
          "velocity": 0.007874015748031496
        },
        {
          "duration": 3.823133072916672,
          "durationTicks": 2875,
          "midi": 64,
          "name": "E4",
          "ticks": 22080,
          "time": 28.46804825,
          "velocity": 0.007874015748031496
        },
        {
          "duration": 3.823133072916672,
          "durationTicks": 2875,
          "midi": 68,
          "name": "G#4",
          "ticks": 22080,
          "time": 28.46804825,
          "velocity": 0.007874015748031496
        },
        {
          "duration": 3.823133072916672,
          "durationTicks": 2875,
          "midi": 71,
          "name": "B4",
          "ticks": 22080,
          "time": 28.46804825,
          "velocity": 0.007874015748031496
        },
        {
          "duration": 0.9534561437500031,
          "durationTicks": 717,
          "midi": 49,
          "name": "C#3",
          "ticks": 24959,
          "time": 32.29650046458333,
          "velocity": 0.007874015748031496
        },
        {
          "duration": 0.9534561437500031,
          "durationTicks": 717,
          "midi": 61,
          "name": "C#4",
          "ticks": 24959,
          "time": 32.29650046458333,
          "velocity": 0.007874015748031496
        },
        {
          "duration": 0.9534561437500031,
          "durationTicks": 717,
          "midi": 64,
          "name": "E4",
          "ticks": 24959,
          "time": 32.29650046458333,
          "velocity": 0.007874015748031496
        },
        {
          "duration": 0.9534561437500031,
          "durationTicks": 717,
          "midi": 68,
          "name": "G#4",
          "ticks": 24959,
          "time": 32.29650046458333,
          "velocity": 0.007874015748031496
        },
        {
          "duration": 0.9534561437500031,
          "durationTicks": 717,
          "midi": 71,
          "name": "B4",
          "ticks": 24959,
          "time": 32.29650046458333,
          "velocity": 0.007874015748031496
        },
        {
          "duration": 4.144941143749996,
          "durationTicks": 3117,
          "midi": 50,
          "name": "D3",
          "ticks": 25679,
          "time": 33.25394596458334,
          "velocity": 0.007874015748031496
        },
        {
          "duration": 4.144941143749996,
          "durationTicks": 3117,
          "midi": 62,
          "name": "D4",
          "ticks": 25679,
          "time": 33.25394596458334,
          "velocity": 0.007874015748031496
        },
        {
          "duration": 4.144941143749996,
          "durationTicks": 3117,
          "midi": 66,
          "name": "F#4",
          "ticks": 25679,
          "time": 33.25394596458334,
          "velocity": 0.007874015748031496
        },
        {
          "duration": 4.144941143749996,
          "durationTicks": 3117,
          "midi": 69,
          "name": "A4",
          "ticks": 25679,
          "time": 33.25394596458334,
          "velocity": 0.007874015748031496
        },
        {
          "duration": 0.6329778583333336,
          "durationTicks": 476,
          "midi": 45,
          "name": "A2",
          "ticks": 28799,
          "time": 37.402876464583336,
          "velocity": 0.007874015748031496
        },
        {
          "duration": 0.6329778583333336,
          "durationTicks": 476,
          "midi": 62,
          "name": "D4",
          "ticks": 28799,
          "time": 37.402876464583336,
          "velocity": 0.007874015748031496
        },
        {
          "duration": 0.6329778583333336,
          "durationTicks": 476,
          "midi": 66,
          "name": "F#4",
          "ticks": 28799,
          "time": 37.402876464583336,
          "velocity": 0.007874015748031496
        },
        {
          "duration": 0.6329778583333336,
          "durationTicks": 476,
          "midi": 69,
          "name": "A4",
          "ticks": 28799,
          "time": 37.402876464583336,
          "velocity": 0.007874015748031496
        },
        {
          "duration": 0.6329778583333336,
          "durationTicks": 476,
          "midi": 45,
          "name": "A2",
          "ticks": 29279,
          "time": 38.04117346458334,
          "velocity": 0.007874015748031496
        },
        {
          "duration": 0.6329778583333336,
          "durationTicks": 476,
          "midi": 64,
          "name": "E4",
          "ticks": 29279,
          "time": 38.04117346458334,
          "velocity": 0.007874015748031496
        },
        {
          "duration": 0.6329778583333336,
          "durationTicks": 476,
          "midi": 68,
          "name": "G#4",
          "ticks": 29279,
          "time": 38.04117346458334,
          "velocity": 0.007874015748031496
        },
        {
          "duration": 0.6329778583333336,
          "durationTicks": 476,
          "midi": 71,
          "name": "B4",
          "ticks": 29279,
          "time": 38.04117346458334,
          "velocity": 0.007874015748031496
        },
        {
          "duration": 3.8231330729166686,
          "durationTicks": 2875,
          "midi": 52,
          "name": "E3",
          "ticks": 29760,
          "time": 38.68080025,
          "velocity": 0.007874015748031496
        },
        {
          "duration": 3.8231330729166686,
          "durationTicks": 2875,
          "midi": 64,
          "name": "E4",
          "ticks": 29760,
          "time": 38.68080025,
          "velocity": 0.007874015748031496
        },
        {
          "duration": 3.8231330729166686,
          "durationTicks": 2875,
          "midi": 68,
          "name": "G#4",
          "ticks": 29760,
          "time": 38.68080025,
          "velocity": 0.007874015748031496
        },
        {
          "duration": 3.8231330729166686,
          "durationTicks": 2875,
          "midi": 71,
          "name": "B4",
          "ticks": 29760,
          "time": 38.68080025,
          "velocity": 0.007874015748031496
        },
        {
          "duration": 1.271274858333328,
          "durationTicks": 956,
          "midi": 49,
          "name": "C#3",
          "ticks": 32639,
          "time": 42.509252464583334,
          "velocity": 0.007874015748031496
        },
        {
          "duration": 1.271274858333328,
          "durationTicks": 956,
          "midi": 61,
          "name": "C#4",
          "ticks": 32639,
          "time": 42.509252464583334,
          "velocity": 0.007874015748031496
        },
        {
          "duration": 1.271274858333328,
          "durationTicks": 956,
          "midi": 64,
          "name": "E4",
          "ticks": 32639,
          "time": 42.509252464583334,
          "velocity": 0.007874015748031496
        },
        {
          "duration": 1.271274858333328,
          "durationTicks": 956,
          "midi": 68,
          "name": "G#4",
          "ticks": 32639,
          "time": 42.509252464583334,
          "velocity": 0.007874015748031496
        },
        {
          "duration": 3.8244628583333267,
          "durationTicks": 2876,
          "midi": 50,
          "name": "D3",
          "ticks": 33600,
          "time": 43.78717625,
          "velocity": 0.007874015748031496
        },
        {
          "duration": 3.8244628583333267,
          "durationTicks": 2876,
          "midi": 62,
          "name": "D4",
          "ticks": 33600,
          "time": 43.78717625,
          "velocity": 0.007874015748031496
        },
        {
          "duration": 3.8244628583333267,
          "durationTicks": 2876,
          "midi": 66,
          "name": "F#4",
          "ticks": 33600,
          "time": 43.78717625,
          "velocity": 0.007874015748031496
        },
        {
          "duration": 3.8244628583333267,
          "durationTicks": 2876,
          "midi": 69,
          "name": "A4",
          "ticks": 33600,
          "time": 43.78717625,
          "velocity": 0.007874015748031496
        },
        {
          "duration": 0.9547859291666612,
          "durationTicks": 718,
          "midi": 45,
          "name": "A2",
          "ticks": 36478,
          "time": 47.614298679166666,
          "velocity": 0.007874015748031496
        },
        {
          "duration": 0.9547859291666612,
          "durationTicks": 718,
          "midi": 57,
          "name": "A3",
          "ticks": 36478,
          "time": 47.614298679166666,
          "velocity": 0.007874015748031496
        },
        {
          "duration": 0.9547859291666612,
          "durationTicks": 718,
          "midi": 61,
          "name": "C#4",
          "ticks": 36478,
          "time": 47.614298679166666,
          "velocity": 0.007874015748031496
        },
        {
          "duration": 0.9547859291666612,
          "durationTicks": 718,
          "midi": 64,
          "name": "E4",
          "ticks": 36478,
          "time": 47.614298679166666,
          "velocity": 0.007874015748031496
        },
        {
          "duration": 4.143611358333324,
          "durationTicks": 3116,
          "midi": 52,
          "name": "E3",
          "ticks": 37199,
          "time": 48.57307396458334,
          "velocity": 0.007874015748031496
        },
        {
          "duration": 4.143611358333324,
          "durationTicks": 3116,
          "midi": 64,
          "name": "E4",
          "ticks": 37199,
          "time": 48.57307396458334,
          "velocity": 0.007874015748031496
        },
        {
          "duration": 4.143611358333324,
          "durationTicks": 3116,
          "midi": 68,
          "name": "G#4",
          "ticks": 37199,
          "time": 48.57307396458334,
          "velocity": 0.007874015748031496
        },
        {
          "duration": 4.143611358333324,
          "durationTicks": 3116,
          "midi": 71,
          "name": "B4",
          "ticks": 37199,
          "time": 48.57307396458334,
          "velocity": 0.007874015748031496
        }
      ]
    },
    {
      "channel": 14,
      "controlChanges": {},
      "pitchBends": [],
      "instrument": {
        "family": "percussive",
        "number": 117,
        "name": "melodic tom"
      },
      "name": "",
      "notes": [
        {
          "duration": 0.07579776875000022,
          "durationTicks": 57,
          "midi": 37,
          "name": "C#2",
          "ticks": 22080,
          "time": 28.46804825,
          "velocity": 0.2677165354330709
        },
        {
          "duration": 0.06781905624999496,
          "durationTicks": 51,
          "midi": 37,
          "name": "C#2",
          "ticks": 22199,
          "time": 28.626292714583336,
          "velocity": 0.2677165354330709
        },
        {
          "duration": 0.06117012916666553,
          "durationTicks": 46,
          "midi": 37,
          "name": "C#2",
          "ticks": 22320,
          "time": 28.78719675,
          "velocity": 0.25984251968503935
        },
        {
          "duration": 0.07047862708333241,
          "durationTicks": 53,
          "midi": 37,
          "name": "C#2",
          "ticks": 22440,
          "time": 28.946771000000002,
          "velocity": 0.25984251968503935
        },
        {
          "duration": 0.07579776875000022,
          "durationTicks": 57,
          "midi": 37,
          "name": "C#2",
          "ticks": 25920,
          "time": 33.57442425,
          "velocity": 0.2755905511811024
        },
        {
          "duration": 0.06781905625000206,
          "durationTicks": 51,
          "midi": 37,
          "name": "C#2",
          "ticks": 26039,
          "time": 33.73266871458333,
          "velocity": 0.2677165354330709
        },
        {
          "duration": 0.061170129166669085,
          "durationTicks": 46,
          "midi": 37,
          "name": "C#2",
          "ticks": 26160,
          "time": 33.89357275,
          "velocity": 0.28346456692913385
        },
        {
          "duration": 0.07047862708333241,
          "durationTicks": 53,
          "midi": 37,
          "name": "C#2",
          "ticks": 26281,
          "time": 34.05447678541667,
          "velocity": 0.25196850393700787
        },
        {
          "duration": 0.07579776875000022,
          "durationTicks": 57,
          "midi": 37,
          "name": "C#2",
          "ticks": 29761,
          "time": 38.68213003541666,
          "velocity": 0.2677165354330709
        },
        {
          "duration": 0.06781905624999496,
          "durationTicks": 51,
          "midi": 37,
          "name": "C#2",
          "ticks": 29879,
          "time": 38.83904471458334,
          "velocity": 0.25196850393700787
        },
        {
          "duration": 0.062499914583327154,
          "durationTicks": 47,
          "midi": 37,
          "name": "C#2",
          "ticks": 29999,
          "time": 38.998618964583336,
          "velocity": 0.25196850393700787
        },
        {
          "duration": 0.07047862708333241,
          "durationTicks": 53,
          "midi": 37,
          "name": "C#2",
          "ticks": 30121,
          "time": 39.160852785416665,
          "velocity": 0.23622047244094488
        },
        {
          "duration": 0.07845733958333767,
          "durationTicks": 59,
          "midi": 37,
          "name": "C#2",
          "ticks": 37439,
          "time": 48.892222464583334,
          "velocity": 0.28346456692913385
        },
        {
          "duration": 0.06648927083333689,
          "durationTicks": 50,
          "midi": 37,
          "name": "C#2",
          "ticks": 37560,
          "time": 49.0531265,
          "velocity": 0.2677165354330709
        },
        {
          "duration": 0.06117012916666198,
          "durationTicks": 46,
          "midi": 37,
          "name": "C#2",
          "ticks": 37680,
          "time": 49.21270075,
          "velocity": 0.25984251968503935
        },
        {
          "duration": 0.07047862708333241,
          "durationTicks": 53,
          "midi": 37,
          "name": "C#2",
          "ticks": 37799,
          "time": 49.37094521458334,
          "velocity": 0.25984251968503935
        },
        {
          "duration": 0.07579776875000022,
          "durationTicks": 57,
          "midi": 37,
          "name": "C#2",
          "ticks": 37920,
          "time": 49.53184925,
          "velocity": 0.25984251968503935
        },
        {
          "duration": 0.058510558333338736,
          "durationTicks": 44,
          "midi": 37,
          "name": "C#2",
          "ticks": 38039,
          "time": 49.690093714583334,
          "velocity": 0.2677165354330709
        },
        {
          "duration": 0.07180841249999759,
          "durationTicks": 54,
          "midi": 37,
          "name": "C#2",
          "ticks": 38160,
          "time": 49.85099775,
          "velocity": 0.2755905511811024
        },
        {
          "duration": 0.0930849791666617,
          "durationTicks": 70,
          "midi": 37,
          "name": "C#2",
          "ticks": 38280,
          "time": 50.010572,
          "velocity": 0.2677165354330709
        },
        {
          "duration": 0.07845733958333057,
          "durationTicks": 59,
          "midi": 37,
          "name": "C#2",
          "ticks": 38399,
          "time": 50.16881646458334,
          "velocity": 0.25984251968503935
        },
        {
          "duration": 0.08111691041666802,
          "durationTicks": 61,
          "midi": 37,
          "name": "C#2",
          "ticks": 38520,
          "time": 50.3297205,
          "velocity": 0.25196850393700787
        },
        {
          "duration": 0.08377648124999837,
          "durationTicks": 63,
          "midi": 37,
          "name": "C#2",
          "ticks": 38639,
          "time": 50.487964964583334,
          "velocity": 0.2440944881889764
        },
        {
          "duration": 0.08643605208333582,
          "durationTicks": 65,
          "midi": 37,
          "name": "C#2",
          "ticks": 38760,
          "time": 50.648869,
          "velocity": 0.2440944881889764
        },
        {
          "duration": 0.09441476458332687,
          "durationTicks": 71,
          "midi": 37,
          "name": "C#2",
          "ticks": 38879,
          "time": 50.80711346458334,
          "velocity": 0.2755905511811024
        },
        {
          "duration": 0.043882918749993394,
          "durationTicks": 33,
          "midi": 37,
          "name": "C#2",
          "ticks": 39000,
          "time": 50.9680175,
          "velocity": 0.2440944881889764
        },
        {
          "duration": 0.0824466958333332,
          "durationTicks": 62,
          "midi": 37,
          "name": "C#2",
          "ticks": 39121,
          "time": 51.128921535416666,
          "velocity": 0.2440944881889764
        },
        {
          "duration": 0.07845733958333057,
          "durationTicks": 59,
          "midi": 37,
          "name": "C#2",
          "ticks": 39479,
          "time": 51.60498471458334,
          "velocity": 0.23622047244094488
        },
        {
          "duration": 0.07180841249999759,
          "durationTicks": 54,
          "midi": 37,
          "name": "C#2",
          "ticks": 39599,
          "time": 51.76455896458334,
          "velocity": 0.25984251968503935
        },
        {
          "duration": 0.07845733958333057,
          "durationTicks": 59,
          "midi": 37,
          "name": "C#2",
          "ticks": 39719,
          "time": 51.924133214583335,
          "velocity": 0.23622047244094488
        },
        {
          "duration": 0.08377648124999837,
          "durationTicks": 63,
          "midi": 37,
          "name": "C#2",
          "ticks": 39839,
          "time": 52.083707464583334,
          "velocity": 0.25984251968503935
        },
        {
          "duration": 0.05053184583333348,
          "durationTicks": 38,
          "midi": 37,
          "name": "C#2",
          "ticks": 39960,
          "time": 52.2446115,
          "velocity": 0.2440944881889764
        },
        {
          "duration": 0.087765837500001,
          "durationTicks": 66,
          "midi": 37,
          "name": "C#2",
          "ticks": 40079,
          "time": 52.40285596458334,
          "velocity": 0.23622047244094488
        }
      ]
    }
  ]
}