{
  "header": {
    "keySignatures": [
      {
        "key": "C",
        "scale": "major",
        "ticks": 0
      }
    ],
    "meta": [],
    "name": "Merry Christmas Mr.Lawrence",
    "ppq": 480,
    "tempos": [
      {
        "bpm": 114.0001710002565,
        "ticks": 0
      }
    ],
    "timeSignatures": [
      {
        "ticks": 0,
        "timeSignature": [
          4,
          4
        ],
        "measures": 0
      }
    ]
  },
  "tracks": [
    {
      "channel": 0,
      "controlChanges": {},
      "pitchBends": [],
      "instrument": {
        "family": "piano",
        "number": 0,
        "name": "acoustic grand piano"
      },
      "name": "Merry Christmas Mr.Lawrence",
      "notes": [],
      "endOfTrackTicks": 217920
    },
    {
      "channel": 0,
      "controlChanges": {
        "0": [
          {
            "number": 0,
            "ticks": 480,
            "time": 0.526315,
            "value": 0
          }
        ],
        "32": [
          {
            "number": 32,
            "ticks": 485,
            "time": 0.5317974479166667,
            "value": 0
          }
        ]
      },
      "pitchBends": [],
      "instrument": {
        "family": "piano",
        "number": 0,
        "name": "acoustic grand piano"
      },
      "name": "Merry Christmas Mr.Lawrence",
      "notes": [],
      "endOfTrackTicks": 217920
    },
    {
      "channel": 0,
      "controlChanges": {
        "6": [
          {
            "number": 6,
            "ticks": 970,
            "time": 1.0635948958333334,
            "value": 0.09448818897637795
          },
          {
            "number": 6,
            "ticks": 985,
            "time": 1.0800422395833333,
            "value": 0.3543307086614173
          },
          {
            "number": 6,
            "ticks": 1000,
            "time": 1.0964895833333335,
            "value": 0.6299212598425197
          }
        ],
        "7": [
          {
            "number": 7,
            "ticks": 495,
            "time": 0.54276234375,
            "value": 0.5511811023622047
          }
        ],
        "10": [
          {
            "number": 10,
            "ticks": 495,
            "time": 0.54276234375,
            "value": 0.3464566929133858
          }
        ],
        "11": [
          {
            "number": 11,
            "ticks": 495,
            "time": 0.54276234375,
            "value": 1
          }
        ],
        "91": [
          {
            "number": 91,
            "ticks": 500,
            "time": 0.5482447916666667,
            "value": 0.6299212598425197
          }
        ],
        "93": [
          {
            "number": 93,
            "ticks": 500,
            "time": 0.5482447916666667,
            "value": 1
          }
        ],
        "98": [
          {
            "number": 98,
            "ticks": 980,
            "time": 1.0745597916666665,
            "value": 0.8031496062992126
          },
          {
            "number": 98,
            "ticks": 995,
            "time": 1.0910071354166666,
            "value": 0.25984251968503935
          }
        ],
        "99": [
          {
            "number": 99,
            "ticks": 975,
            "time": 1.0690773437499999,
            "value": 0.007874015748031496
          },
          {
            "number": 99,
            "ticks": 990,
            "time": 1.0855246875,
            "value": 0.007874015748031496
          }
        ],
        "100": [
          {
            "number": 100,
            "ticks": 965,
            "time": 1.0581124479166666,
            "value": 0
          },
          {
            "number": 100,
            "ticks": 980,
            "time": 1.0745597916666665,
            "value": 0.33070866141732286
          },
          {
            "number": 100,
            "ticks": 995,
            "time": 1.0910071354166666,
            "value": 0.6614173228346457
          },
          {
            "number": 100,
            "ticks": 1010,
            "time": 1.1074544791666665,
            "value": 1
          }
        ],
        "101": [
          {
            "number": 101,
            "ticks": 960,
            "time": 1.05263,
            "value": 0
          },
          {
            "number": 101,
            "ticks": 975,
            "time": 1.0690773437499999,
            "value": 0.33070866141732286
          },
          {
            "number": 101,
            "ticks": 990,
            "time": 1.0855246875,
            "value": 0.6614173228346457
          },
          {
            "number": 101,
            "ticks": 1005,
            "time": 1.1019720312499999,
            "value": 1
          }
        ]
      },
      "pitchBends": [],
      "instrument": {
        "family": "synth effects",
        "number": 98,
        "name": "fx 3 (crystal)"
      },
      "name": "",
      "notes": [
        {
          "duration": 0.17543833333331804,
          "durationTicks": 160,
          "midi": 75,
          "name": "D#5",
          "ticks": 156480,
          "time": 171.57869,
          "velocity": 0.7874015748031497
        },
        {
          "duration": 0.17543833333331804,
          "durationTicks": 160,
          "midi": 77,
          "name": "F5",
          "ticks": 156720,
          "time": 171.8418475,
          "velocity": 0.7716535433070866
        },
        {
          "duration": 0.17543833333331804,
          "durationTicks": 160,
          "midi": 75,
          "name": "D#5",
          "ticks": 156960,
          "time": 172.105005,
          "velocity": 0.7480314960629921
        },
        {
          "duration": 0.17543833333334646,
          "durationTicks": 160,
          "midi": 70,
          "name": "A#4",
          "ticks": 157200,
          "time": 172.36816249999998,
          "velocity": 0.7559055118110236
        },
        {
          "duration": 0.17543833333331804,
          "durationTicks": 160,
          "midi": 75,
          "name": "D#5",
          "ticks": 157440,
          "time": 172.63132,
          "velocity": 0.7480314960629921
        },
        {
          "duration": 0.17543833333331804,
          "durationTicks": 160,
          "midi": 75,
          "name": "D#5",
          "ticks": 158880,
          "time": 174.210265,
          "velocity": 0.7559055118110236
        },
        {
          "duration": 0.17543833333331804,
          "durationTicks": 160,
          "midi": 77,
          "name": "F5",
          "ticks": 159120,
          "time": 174.4734225,
          "velocity": 0.7874015748031497
        },
        {
          "duration": 0.17543833333331804,
          "durationTicks": 160,
          "midi": 75,
          "name": "D#5",
          "ticks": 159360,
          "time": 174.73658,
          "velocity": 0.7874015748031497
        },
        {
          "duration": 0.17543833333334646,
          "durationTicks": 160,
          "midi": 77,
          "name": "F5",
          "ticks": 159600,
          "time": 174.99973749999998,
          "velocity": 0.7716535433070866
        },
        {
          "duration": 0.17543833333331804,
          "durationTicks": 160,
          "midi": 80,
          "name": "G#5",
          "ticks": 159840,
          "time": 175.262895,
          "velocity": 0.7559055118110236
        },
        {
          "duration": 0.17543833333331804,
          "durationTicks": 160,
          "midi": 77,
          "name": "F5",
          "ticks": 160080,
          "time": 175.5260525,
          "velocity": 0.7637795275590551
        },
        {
          "duration": 0.17543833333331804,
          "durationTicks": 160,
          "midi": 75,
          "name": "D#5",
          "ticks": 160320,
          "time": 175.78921,
          "velocity": 0.7874015748031497
        },
        {
          "duration": 0.17543833333331804,
          "durationTicks": 160,
          "midi": 77,
          "name": "F5",
          "ticks": 160560,
          "time": 176.0523675,
          "velocity": 0.7952755905511811
        },
        {
          "duration": 0.17543833333334646,
          "durationTicks": 160,
          "midi": 75,
          "name": "D#5",
          "ticks": 160800,
          "time": 176.31552499999998,
          "velocity": 0.7007874015748031
        },
        {
          "duration": 0.17543833333331804,
          "durationTicks": 160,
          "midi": 70,
          "name": "A#4",
          "ticks": 161040,
          "time": 176.57868249999999,
          "velocity": 0.7007874015748031
        },
        {
          "duration": 0.17543833333331804,
          "durationTicks": 160,
          "midi": 73,
          "name": "C#5",
          "ticks": 161280,
          "time": 176.84184,
          "velocity": 0.7165354330708661
        },
        {
          "duration": 0.17543833333331804,
          "durationTicks": 160,
          "midi": 73,
          "name": "C#5",
          "ticks": 162720,
          "time": 178.420785,
          "velocity": 0.6614173228346457
        },
        {
          "duration": 0.17543833333331804,
          "durationTicks": 160,
          "midi": 77,
          "name": "F5",
          "ticks": 162720,
          "time": 178.420785,
          "velocity": 0.7244094488188977
        },
        {
          "duration": 0.17543833333331804,
          "durationTicks": 160,
          "midi": 85,
          "name": "C#6",
          "ticks": 162720,
          "time": 178.420785,
          "velocity": 0.6692913385826772
        },
        {
          "duration": 0.17543833333331804,
          "durationTicks": 160,
          "midi": 72,
          "name": "C5",
          "ticks": 163200,
          "time": 178.9471,
          "velocity": 0.6692913385826772
        },
        {
          "duration": 0.17543833333331804,
          "durationTicks": 160,
          "midi": 77,
          "name": "F5",
          "ticks": 163200,
          "time": 178.9471,
          "velocity": 0.7401574803149606
        },
        {
          "duration": 0.17543833333331804,
          "durationTicks": 160,
          "midi": 84,
          "name": "C6",
          "ticks": 163200,
          "time": 178.9471,
          "velocity": 0.6377952755905512
        },
        {
          "duration": 0.17543833333334646,
          "durationTicks": 160,
          "midi": 80,
          "name": "G#5",
          "ticks": 163440,
          "time": 179.21025749999998,
          "velocity": 0.7480314960629921
        },
        {
          "duration": 0.17543833333331804,
          "durationTicks": 160,
          "midi": 72,
          "name": "C5",
          "ticks": 163680,
          "time": 179.473415,
          "velocity": 0.6771653543307087
        },
        {
          "duration": 0.17543833333331804,
          "durationTicks": 160,
          "midi": 77,
          "name": "F5",
          "ticks": 163680,
          "time": 179.473415,
          "velocity": 0.7480314960629921
        },
        {
          "duration": 0.17543833333331804,
          "durationTicks": 160,
          "midi": 75,
          "name": "D#5",
          "ticks": 164160,
          "time": 179.99973,
          "velocity": 0.7480314960629921
        },
        {
          "duration": 0.17543833333331804,
          "durationTicks": 160,
          "midi": 77,
          "name": "F5",
          "ticks": 164400,
          "time": 180.2628875,
          "velocity": 0.7795275590551181
        },
        {
          "duration": 0.17543833333334646,
          "durationTicks": 160,
          "midi": 75,
          "name": "D#5",
          "ticks": 164640,
          "time": 180.52604499999998,
          "velocity": 0.7559055118110236
        },
        {
          "duration": 0.17543833333331804,
          "durationTicks": 160,
          "midi": 70,
          "name": "A#4",
          "ticks": 164880,
          "time": 180.7892025,
          "velocity": 0.7401574803149606
        },
        {
          "duration": 0.17543833333331804,
          "durationTicks": 160,
          "midi": 75,
          "name": "D#5",
          "ticks": 165120,
          "time": 181.05236,
          "velocity": 0.7165354330708661
        },
        {
          "duration": 0.17543833333331804,
          "durationTicks": 160,
          "midi": 75,
          "name": "D#5",
          "ticks": 166560,
          "time": 182.631305,
          "velocity": 0.7716535433070866
        },
        {
          "duration": 0.17543833333331804,
          "durationTicks": 160,
          "midi": 77,
          "name": "F5",
          "ticks": 166800,
          "time": 182.8944625,
          "velocity": 0.8346456692913385
        },
        {
          "duration": 0.17543833333334646,
          "durationTicks": 160,
          "midi": 75,
          "name": "D#5",
          "ticks": 167040,
          "time": 183.15761999999998,
          "velocity": 0.7716535433070866
        },
        {
          "duration": 0.17543833333331804,
          "durationTicks": 160,
          "midi": 77,
          "name": "F5",
          "ticks": 167280,
          "time": 183.42077749999999,
          "velocity": 0.8031496062992126
        },
        {
          "duration": 0.17543833333331804,
          "durationTicks": 160,
          "midi": 80,
          "name": "G#5",
          "ticks": 167520,
          "time": 183.683935,
          "velocity": 0.7559055118110236
        },
        {
          "duration": 0.17543833333331804,
          "durationTicks": 160,
          "midi": 77,
          "name": "F5",
          "ticks": 167760,
          "time": 183.9470925,
          "velocity": 0.7874015748031497
        },
        {
          "duration": 0.17543833333331804,
          "durationTicks": 160,
          "midi": 75,
          "name": "D#5",
          "ticks": 168000,
          "time": 184.21025,
          "velocity": 0.7086614173228346
        },
        {
          "duration": 0.17543833333334646,
          "durationTicks": 160,
          "midi": 77,
          "name": "F5",
          "ticks": 168240,
          "time": 184.47340749999998,
          "velocity": 0.8188976377952756
        },
        {
          "duration": 0.17543833333331804,
          "durationTicks": 160,
          "midi": 75,
          "name": "D#5",
          "ticks": 168480,
          "time": 184.73656499999998,
          "velocity": 0.7165354330708661
        },
        {
          "duration": 0.17543833333331804,
          "durationTicks": 160,
          "midi": 73,
          "name": "C#5",
          "ticks": 168720,
          "time": 184.9997225,
          "velocity": 0.7952755905511811
        },
        {
          "duration": 0.17543833333331804,
          "durationTicks": 160,
          "midi": 70,
          "name": "A#4",
          "ticks": 168960,
          "time": 185.26288,
          "velocity": 0.7637795275590551
        },
        {
          "duration": 0.17543833333331804,
          "durationTicks": 160,
          "midi": 61,
          "name": "C#4",
          "ticks": 170400,
          "time": 186.841825,
          "velocity": 0.6377952755905512
        },
        {
          "duration": 0.17543833333331804,
          "durationTicks": 160,
          "midi": 65,
          "name": "F4",
          "ticks": 170400,
          "time": 186.841825,
          "velocity": 0.7086614173228346
        },
        {
          "duration": 0.17543833333331804,
          "durationTicks": 160,
          "midi": 70,
          "name": "A#4",
          "ticks": 170400,
          "time": 186.841825,
          "velocity": 0.5905511811023622
        },
        {
          "duration": 0.17543833333331804,
          "durationTicks": 160,
          "midi": 70,
          "name": "A#4",
          "ticks": 171840,
          "time": 188.42077,
          "velocity": 0.6850393700787402
        },
        {
          "duration": 0.17543833333331804,
          "durationTicks": 160,
          "midi": 75,
          "name": "D#5",
          "ticks": 171840,
          "time": 188.42077,
          "velocity": 0.7480314960629921
        },
        {
          "duration": 0.17543833333334646,
          "durationTicks": 160,
          "midi": 73,
          "name": "C#5",
          "ticks": 172080,
          "time": 188.68392749999998,
          "velocity": 0.6850393700787402
        },
        {
          "duration": 0.17543833333334646,
          "durationTicks": 160,
          "midi": 77,
          "name": "F5",
          "ticks": 172080,
          "time": 188.68392749999998,
          "velocity": 0.7322834645669292
        },
        {
          "duration": 0.17543833333331804,
          "durationTicks": 160,
          "midi": 70,
          "name": "A#4",
          "ticks": 172320,
          "time": 188.947085,
          "velocity": 0.6377952755905512
        },
        {
          "duration": 0.17543833333331804,
          "durationTicks": 160,
          "midi": 75,
          "name": "D#5",
          "ticks": 172320,
          "time": 188.947085,
          "velocity": 0.7086614173228346
        },
        {
          "duration": 0.17543833333331804,
          "durationTicks": 160,
          "midi": 65,
          "name": "F4",
          "ticks": 172560,
          "time": 189.2102425,
          "velocity": 0.6850393700787402
        },
        {
          "duration": 0.17543833333331804,
          "durationTicks": 160,
          "midi": 70,
          "name": "A#4",
          "ticks": 172560,
          "time": 189.2102425,
          "velocity": 0.7165354330708661
        },
        {
          "duration": 0.17543833333331804,
          "durationTicks": 160,
          "midi": 65,
          "name": "F4",
          "ticks": 172800,
          "time": 189.4734,
          "velocity": 0.7165354330708661
        },
        {
          "duration": 0.17543833333331804,
          "durationTicks": 160,
          "midi": 70,
          "name": "A#4",
          "ticks": 172800,
          "time": 189.4734,
          "velocity": 0.6299212598425197
        },
        {
          "duration": 0.17543833333331804,
          "durationTicks": 160,
          "midi": 75,
          "name": "D#5",
          "ticks": 172800,
          "time": 189.4734,
          "velocity": 0.6692913385826772
        },
        {
          "duration": 0.17543833333331804,
          "durationTicks": 160,
          "midi": 70,
          "name": "A#4",
          "ticks": 174240,
          "time": 191.052345,
          "velocity": 0.6850393700787402
        },
        {
          "duration": 0.17543833333331804,
          "durationTicks": 160,
          "midi": 75,
          "name": "D#5",
          "ticks": 174240,
          "time": 191.052345,
          "velocity": 0.7165354330708661
        },
        {
          "duration": 0.17543833333334646,
          "durationTicks": 160,
          "midi": 73,
          "name": "C#5",
          "ticks": 174480,
          "time": 191.31550249999998,
          "velocity": 0.7716535433070866
        },
        {
          "duration": 0.17543833333334646,
          "durationTicks": 160,
          "midi": 77,
          "name": "F5",
          "ticks": 174480,
          "time": 191.31550249999998,
          "velocity": 0.7480314960629921
        },
        {
          "duration": 0.17543833333331804,
          "durationTicks": 160,
          "midi": 70,
          "name": "A#4",
          "ticks": 174720,
          "time": 191.57865999999999,
          "velocity": 0.7559055118110236
        },
        {
          "duration": 0.17543833333331804,
          "durationTicks": 160,
          "midi": 75,
          "name": "D#5",
          "ticks": 174720,
          "time": 191.57865999999999,
          "velocity": 0.7480314960629921
        },
        {
          "duration": 0.17543833333331804,
          "durationTicks": 160,
          "midi": 73,
          "name": "C#5",
          "ticks": 174960,
          "time": 191.8418175,
          "velocity": 0.7559055118110236
        },
        {
          "duration": 0.17543833333331804,
          "durationTicks": 160,
          "midi": 77,
          "name": "F5",
          "ticks": 174960,
          "time": 191.8418175,
          "velocity": 0.7322834645669292
        },
        {
          "duration": 0.17543833333331804,
          "durationTicks": 160,
          "midi": 75,
          "name": "D#5",
          "ticks": 175200,
          "time": 192.104975,
          "velocity": 0.7165354330708661
        },
        {
          "duration": 0.17543833333331804,
          "durationTicks": 160,
          "midi": 80,
          "name": "G#5",
          "ticks": 175200,
          "time": 192.104975,
          "velocity": 0.7165354330708661
        },
        {
          "duration": 0.17543833333331804,
          "durationTicks": 160,
          "midi": 73,
          "name": "C#5",
          "ticks": 175440,
          "time": 192.3681325,
          "velocity": 0.7322834645669292
        },
        {
          "duration": 0.17543833333331804,
          "durationTicks": 160,
          "midi": 77,
          "name": "F5",
          "ticks": 175440,
          "time": 192.3681325,
          "velocity": 0.7244094488188977
        },
        {
          "duration": 0.17543833333334646,
          "durationTicks": 160,
          "midi": 70,
          "name": "A#4",
          "ticks": 175680,
          "time": 192.63128999999998,
          "velocity": 0.7322834645669292
        },
        {
          "duration": 0.17543833333334646,
          "durationTicks": 160,
          "midi": 75,
          "name": "D#5",
          "ticks": 175680,
          "time": 192.63128999999998,
          "velocity": 0.7480314960629921
        },
        {
          "duration": 0.17543833333331804,
          "durationTicks": 160,
          "midi": 72,
          "name": "C5",
          "ticks": 175920,
          "time": 192.89444749999998,
          "velocity": 0.6614173228346457
        },
        {
          "duration": 0.17543833333331804,
          "durationTicks": 160,
          "midi": 77,
          "name": "F5",
          "ticks": 175920,
          "time": 192.89444749999998,
          "velocity": 0.7559055118110236
        },
        {
          "duration": 0.17543833333331804,
          "durationTicks": 160,
          "midi": 70,
          "name": "A#4",
          "ticks": 176160,
          "time": 193.157605,
          "velocity": 0.7322834645669292
        },
        {
          "duration": 0.17543833333331804,
          "durationTicks": 160,
          "midi": 75,
          "name": "D#5",
          "ticks": 176160,
          "time": 193.157605,
          "velocity": 0.6614173228346457
        },
        {
          "duration": 0.17543833333331804,
          "durationTicks": 160,
          "midi": 65,
          "name": "F4",
          "ticks": 176400,
          "time": 193.4207625,
          "velocity": 0.6614173228346457
        },
        {
          "duration": 0.17543833333331804,
          "durationTicks": 160,
          "midi": 70,
          "name": "A#4",
          "ticks": 176400,
          "time": 193.4207625,
          "velocity": 0.6614173228346457
        },
        {
          "duration": 0.17543833333331804,
          "durationTicks": 160,
          "midi": 68,
          "name": "G#4",
          "ticks": 176640,
          "time": 193.68392,
          "velocity": 0.7401574803149606
        },
        {
          "duration": 0.17543833333331804,
          "durationTicks": 160,
          "midi": 73,
          "name": "C#5",
          "ticks": 176640,
          "time": 193.68392,
          "velocity": 0.7244094488188977
        },
        {
          "duration": 0.17543833333331804,
          "durationTicks": 160,
          "midi": 73,
          "name": "C#5",
          "ticks": 178080,
          "time": 195.262865,
          "velocity": 0.6614173228346457
        },
        {
          "duration": 0.17543833333331804,
          "durationTicks": 160,
          "midi": 77,
          "name": "F5",
          "ticks": 178080,
          "time": 195.262865,
          "velocity": 0.7244094488188977
        },
        {
          "duration": 0.17543833333331804,
          "durationTicks": 160,
          "midi": 85,
          "name": "C#6",
          "ticks": 178080,
          "time": 195.262865,
          "velocity": 0.6692913385826772
        },
        {
          "duration": 0.17543833333331804,
          "durationTicks": 160,
          "midi": 72,
          "name": "C5",
          "ticks": 178560,
          "time": 195.78918,
          "velocity": 0.6692913385826772
        },
        {
          "duration": 0.17543833333331804,
          "durationTicks": 160,
          "midi": 77,
          "name": "F5",
          "ticks": 178560,
          "time": 195.78918,
          "velocity": 0.7401574803149606
        },
        {
          "duration": 0.17543833333331804,
          "durationTicks": 160,
          "midi": 84,
          "name": "C6",
          "ticks": 178560,
          "time": 195.78918,
          "velocity": 0.6377952755905512
        },
        {
          "duration": 0.17543833333331804,
          "durationTicks": 160,
          "midi": 80,
          "name": "G#5",
          "ticks": 178800,
          "time": 196.0523375,
          "velocity": 0.7480314960629921
        },
        {
          "duration": 0.17543833333331804,
          "durationTicks": 160,
          "midi": 72,
          "name": "C5",
          "ticks": 179040,
          "time": 196.315495,
          "velocity": 0.6771653543307087
        },
        {
          "duration": 0.17543833333331804,
          "durationTicks": 160,
          "midi": 77,
          "name": "F5",
          "ticks": 179040,
          "time": 196.315495,
          "velocity": 0.7480314960629921
        },
        {
          "duration": 0.17543833333334646,
          "durationTicks": 160,
          "midi": 70,
          "name": "A#4",
          "ticks": 179520,
          "time": 196.84180999999998,
          "velocity": 0.7480314960629921
        },
        {
          "duration": 0.17543833333334646,
          "durationTicks": 160,
          "midi": 75,
          "name": "D#5",
          "ticks": 179520,
          "time": 196.84180999999998,
          "velocity": 0.7086614173228346
        },
        {
          "duration": 0.17543833333331804,
          "durationTicks": 160,
          "midi": 72,
          "name": "C5",
          "ticks": 179760,
          "time": 197.1049675,
          "velocity": 0.7007874015748031
        },
        {
          "duration": 0.17543833333331804,
          "durationTicks": 160,
          "midi": 77,
          "name": "F5",
          "ticks": 179760,
          "time": 197.1049675,
          "velocity": 0.7401574803149606
        },
        {
          "duration": 0.17543833333331804,
          "durationTicks": 160,
          "midi": 70,
          "name": "A#4",
          "ticks": 180000,
          "time": 197.368125,
          "velocity": 0.7480314960629921
        },
        {
          "duration": 0.17543833333331804,
          "durationTicks": 160,
          "midi": 75,
          "name": "D#5",
          "ticks": 180000,
          "time": 197.368125,
          "velocity": 0.7165354330708661
        },
        {
          "duration": 0.17543833333331804,
          "durationTicks": 160,
          "midi": 65,
          "name": "F4",
          "ticks": 180240,
          "time": 197.6312825,
          "velocity": 0.7007874015748031
        },
        {
          "duration": 0.17543833333331804,
          "durationTicks": 160,
          "midi": 70,
          "name": "A#4",
          "ticks": 180240,
          "time": 197.6312825,
          "velocity": 0.7007874015748031
        },
        {
          "duration": 0.17543833333331804,
          "durationTicks": 160,
          "midi": 70,
          "name": "A#4",
          "ticks": 180480,
          "time": 197.89444,
          "velocity": 0.7165354330708661
        },
        {
          "duration": 0.17543833333331804,
          "durationTicks": 160,
          "midi": 75,
          "name": "D#5",
          "ticks": 180480,
          "time": 197.89444,
          "velocity": 0.6771653543307087
        },
        {
          "duration": 0.17543833333334646,
          "durationTicks": 160,
          "midi": 70,
          "name": "A#4",
          "ticks": 181920,
          "time": 199.47338499999998,
          "velocity": 0.7007874015748031
        },
        {
          "duration": 0.17543833333334646,
          "durationTicks": 160,
          "midi": 75,
          "name": "D#5",
          "ticks": 181920,
          "time": 199.47338499999998,
          "velocity": 0.7322834645669292
        },
        {
          "duration": 0.17543833333331804,
          "durationTicks": 160,
          "midi": 73,
          "name": "C#5",
          "ticks": 182160,
          "time": 199.73654249999998,
          "velocity": 0.7716535433070866
        },
        {
          "duration": 0.17543833333331804,
          "durationTicks": 160,
          "midi": 77,
          "name": "F5",
          "ticks": 182160,
          "time": 199.73654249999998,
          "velocity": 0.7952755905511811
        },
        {
          "duration": 0.17543833333331804,
          "durationTicks": 160,
          "midi": 70,
          "name": "A#4",
          "ticks": 182400,
          "time": 199.9997,
          "velocity": 0.7322834645669292
        },
        {
          "duration": 0.17543833333331804,
          "durationTicks": 160,
          "midi": 75,
          "name": "D#5",
          "ticks": 182400,
          "time": 199.9997,
          "velocity": 0.7322834645669292
        },
        {
          "duration": 0.17543833333331804,
          "durationTicks": 160,
          "midi": 73,
          "name": "C#5",
          "ticks": 182640,
          "time": 200.2628575,
          "velocity": 0.7716535433070866
        },
        {
          "duration": 0.17543833333331804,
          "durationTicks": 160,
          "midi": 77,
          "name": "F5",
          "ticks": 182640,
          "time": 200.2628575,
          "velocity": 0.7637795275590551
        },
        {
          "duration": 0.17543833333331804,
          "durationTicks": 160,
          "midi": 75,
          "name": "D#5",
          "ticks": 182880,
          "time": 200.526015,
          "velocity": 0.6850393700787402
        },
        {
          "duration": 0.17543833333331804,
          "durationTicks": 160,
          "midi": 80,
          "name": "G#5",
          "ticks": 182880,
          "time": 200.526015,
          "velocity": 0.7165354330708661
        },
        {
          "duration": 0.17543833333334646,
          "durationTicks": 160,
          "midi": 73,
          "name": "C#5",
          "ticks": 183120,
          "time": 200.78917249999998,
          "velocity": 0.7716535433070866
        },
        {
          "duration": 0.17543833333334646,
          "durationTicks": 160,
          "midi": 77,
          "name": "F5",
          "ticks": 183120,
          "time": 200.78917249999998,
          "velocity": 0.7480314960629921
        },
        {
          "duration": 0.17543833333331804,
          "durationTicks": 160,
          "midi": 70,
          "name": "A#4",
          "ticks": 183360,
          "time": 201.05232999999998,
          "velocity": 0.6850393700787402
        },
        {
          "duration": 0.17543833333331804,
          "durationTicks": 160,
          "midi": 75,
          "name": "D#5",
          "ticks": 183360,
          "time": 201.05232999999998,
          "velocity": 0.6692913385826772
        },
        {
          "duration": 0.17543833333331804,
          "durationTicks": 160,
          "midi": 72,
          "name": "C5",
          "ticks": 183600,
          "time": 201.3154875,
          "velocity": 0.6141732283464567
        },
        {
          "duration": 0.17543833333331804,
          "durationTicks": 160,
          "midi": 77,
          "name": "F5",
          "ticks": 183600,
          "time": 201.3154875,
          "velocity": 0.7795275590551181
        },
        {
          "duration": 0.17543833333331804,
          "durationTicks": 160,
          "midi": 70,
          "name": "A#4",
          "ticks": 183840,
          "time": 201.578645,
          "velocity": 0.6850393700787402
        },
        {
          "duration": 0.17543833333331804,
          "durationTicks": 160,
          "midi": 75,
          "name": "D#5",
          "ticks": 183840,
          "time": 201.578645,
          "velocity": 0.6771653543307087
        },
        {
          "duration": 0.17543833333331804,
          "durationTicks": 160,
          "midi": 68,
          "name": "G#4",
          "ticks": 184080,
          "time": 201.8418025,
          "velocity": 0.5669291338582677
        },
        {
          "duration": 0.17543833333331804,
          "durationTicks": 160,
          "midi": 73,
          "name": "C#5",
          "ticks": 184080,
          "time": 201.8418025,
          "velocity": 0.7559055118110236
        },
        {
          "duration": 0.17543833333331804,
          "durationTicks": 160,
          "midi": 65,
          "name": "F4",
          "ticks": 184320,
          "time": 202.10496,
          "velocity": 0.7007874015748031
        },
        {
          "duration": 0.17543833333331804,
          "durationTicks": 160,
          "midi": 70,
          "name": "A#4",
          "ticks": 184320,
          "time": 202.10496,
          "velocity": 0.7244094488188977
        },
        {
          "duration": 0.17543833333334646,
          "durationTicks": 160,
          "midi": 60,
          "name": "C4",
          "ticks": 185760,
          "time": 203.68390499999998,
          "velocity": 0.6692913385826772
        },
        {
          "duration": 0.17543833333334646,
          "durationTicks": 160,
          "midi": 65,
          "name": "F4",
          "ticks": 185760,
          "time": 203.68390499999998,
          "velocity": 0.7401574803149606
        },
        {
          "duration": 0.17543833333334646,
          "durationTicks": 160,
          "midi": 72,
          "name": "C5",
          "ticks": 185760,
          "time": 203.68390499999998,
          "velocity": 0.6220472440944882
        },
        {
          "duration": 0.17543833333331804,
          "durationTicks": 160,
          "midi": 61,
          "name": "C#4",
          "ticks": 186240,
          "time": 204.21022,
          "velocity": 0.6692913385826772
        },
        {
          "duration": 0.17543833333331804,
          "durationTicks": 160,
          "midi": 65,
          "name": "F4",
          "ticks": 186240,
          "time": 204.21022,
          "velocity": 0.7322834645669292
        },
        {
          "duration": 0.17543833333331804,
          "durationTicks": 160,
          "midi": 68,
          "name": "G#4",
          "ticks": 186240,
          "time": 204.21022,
          "velocity": 0.6929133858267716
        },
        {
          "duration": 0.17543833333331804,
          "durationTicks": 160,
          "midi": 73,
          "name": "C#5",
          "ticks": 186240,
          "time": 204.21022,
          "velocity": 0.7322834645669292
        },
        {
          "duration": 0.17543833333331804,
          "durationTicks": 160,
          "midi": 63,
          "name": "D#4",
          "ticks": 186720,
          "time": 204.736535,
          "velocity": 0.7322834645669292
        },
        {
          "duration": 0.17543833333331804,
          "durationTicks": 160,
          "midi": 75,
          "name": "D#5",
          "ticks": 186720,
          "time": 204.736535,
          "velocity": 0.7559055118110236
        },
        {
          "duration": 0.17543833333331804,
          "durationTicks": 160,
          "midi": 70,
          "name": "A#4",
          "ticks": 187200,
          "time": 205.26285,
          "velocity": 0.7007874015748031
        },
        {
          "duration": 0.17543833333331804,
          "durationTicks": 160,
          "midi": 75,
          "name": "D#5",
          "ticks": 187200,
          "time": 205.26285,
          "velocity": 0.7480314960629921
        },
        {
          "duration": 0.17543833333331804,
          "durationTicks": 160,
          "midi": 72,
          "name": "C5",
          "ticks": 187440,
          "time": 205.5260075,
          "velocity": 0.7244094488188977
        },
        {
          "duration": 0.17543833333331804,
          "durationTicks": 160,
          "midi": 77,
          "name": "F5",
          "ticks": 187440,
          "time": 205.5260075,
          "velocity": 0.7795275590551181
        },
        {
          "duration": 0.17543833333331804,
          "durationTicks": 160,
          "midi": 70,
          "name": "A#4",
          "ticks": 187680,
          "time": 205.789165,
          "velocity": 0.7007874015748031
        },
        {
          "duration": 0.17543833333331804,
          "durationTicks": 160,
          "midi": 75,
          "name": "D#5",
          "ticks": 187680,
          "time": 205.789165,
          "velocity": 0.6850393700787402
        },
        {
          "duration": 0.17543833333331804,
          "durationTicks": 160,
          "midi": 65,
          "name": "F4",
          "ticks": 187920,
          "time": 206.0523225,
          "velocity": 0.6299212598425197
        },
        {
          "duration": 0.17543833333331804,
          "durationTicks": 160,
          "midi": 70,
          "name": "A#4",
          "ticks": 187920,
          "time": 206.0523225,
          "velocity": 0.7007874015748031
        },
        {
          "duration": 0.17543833333334646,
          "durationTicks": 160,
          "midi": 70,
          "name": "A#4",
          "ticks": 188160,
          "time": 206.31547999999998,
          "velocity": 0.7322834645669292
        },
        {
          "duration": 0.17543833333334646,
          "durationTicks": 160,
          "midi": 75,
          "name": "D#5",
          "ticks": 188160,
          "time": 206.31547999999998,
          "velocity": 0.8031496062992126
        },
        {
          "duration": 0.17543833333331804,
          "durationTicks": 160,
          "midi": 70,
          "name": "A#4",
          "ticks": 189600,
          "time": 207.89442499999998,
          "velocity": 0.7165354330708661
        },
        {
          "duration": 0.17543833333331804,
          "durationTicks": 160,
          "midi": 75,
          "name": "D#5",
          "ticks": 189600,
          "time": 207.89442499999998,
          "velocity": 0.7480314960629921
        },
        {
          "duration": 0.17543833333331804,
          "durationTicks": 160,
          "midi": 73,
          "name": "C#5",
          "ticks": 189840,
          "time": 208.1575825,
          "velocity": 0.7716535433070866
        },
        {
          "duration": 0.17543833333331804,
          "durationTicks": 160,
          "midi": 77,
          "name": "F5",
          "ticks": 189840,
          "time": 208.1575825,
          "velocity": 0.7952755905511811
        },
        {
          "duration": 0.17543833333331804,
          "durationTicks": 160,
          "midi": 70,
          "name": "A#4",
          "ticks": 190080,
          "time": 208.42074,
          "velocity": 0.7559055118110236
        },
        {
          "duration": 0.17543833333331804,
          "durationTicks": 160,
          "midi": 75,
          "name": "D#5",
          "ticks": 190080,
          "time": 208.42074,
          "velocity": 0.7480314960629921
        },
        {
          "duration": 0.17543833333331804,
          "durationTicks": 160,
          "midi": 73,
          "name": "C#5",
          "ticks": 190320,
          "time": 208.6838975,
          "velocity": 0.7480314960629921
        },
        {
          "duration": 0.17543833333331804,
          "durationTicks": 160,
          "midi": 77,
          "name": "F5",
          "ticks": 190320,
          "time": 208.6838975,
          "velocity": 0.7637795275590551
        },
        {
          "duration": 0.17543833333334646,
          "durationTicks": 160,
          "midi": 75,
          "name": "D#5",
          "ticks": 190560,
          "time": 208.94705499999998,
          "velocity": 0.7165354330708661
        },
        {
          "duration": 0.17543833333334646,
          "durationTicks": 160,
          "midi": 80,
          "name": "G#5",
          "ticks": 190560,
          "time": 208.94705499999998,
          "velocity": 0.7165354330708661
        },
        {
          "duration": 0.17543833333331804,
          "durationTicks": 160,
          "midi": 73,
          "name": "C#5",
          "ticks": 190800,
          "time": 209.21021249999998,
          "velocity": 0.7716535433070866
        },
        {
          "duration": 0.17543833333331804,
          "durationTicks": 160,
          "midi": 77,
          "name": "F5",
          "ticks": 190800,
          "time": 209.21021249999998,
          "velocity": 0.7480314960629921
        },
        {
          "duration": 0.17543833333331804,
          "durationTicks": 160,
          "midi": 70,
          "name": "A#4",
          "ticks": 191040,
          "time": 209.47337,
          "velocity": 0.7007874015748031
        },
        {
          "duration": 0.17543833333331804,
          "durationTicks": 160,
          "midi": 75,
          "name": "D#5",
          "ticks": 191040,
          "time": 209.47337,
          "velocity": 0.7165354330708661
        },
        {
          "duration": 0.17543833333331804,
          "durationTicks": 160,
          "midi": 72,
          "name": "C5",
          "ticks": 191280,
          "time": 209.7365275,
          "velocity": 0.7007874015748031
        },
        {
          "duration": 0.17543833333331804,
          "durationTicks": 160,
          "midi": 77,
          "name": "F5",
          "ticks": 191280,
          "time": 209.7365275,
          "velocity": 0.8031496062992126
        },
        {
          "duration": 0.17543833333331804,
          "durationTicks": 160,
          "midi": 70,
          "name": "A#4",
          "ticks": 191520,
          "time": 209.999685,
          "velocity": 0.7322834645669292
        },
        {
          "duration": 0.17543833333331804,
          "durationTicks": 160,
          "midi": 75,
          "name": "D#5",
          "ticks": 191520,
          "time": 209.999685,
          "velocity": 0.7322834645669292
        },
        {
          "duration": 0.17543833333331804,
          "durationTicks": 160,
          "midi": 65,
          "name": "F4",
          "ticks": 191760,
          "time": 210.2628425,
          "velocity": 0.6850393700787402
        },
        {
          "duration": 0.17543833333331804,
          "durationTicks": 160,
          "midi": 70,
          "name": "A#4",
          "ticks": 191760,
          "time": 210.2628425,
          "velocity": 0.7322834645669292
        },
        {
          "duration": 0.17543833333331804,
          "durationTicks": 160,
          "midi": 68,
          "name": "G#4",
          "ticks": 192000,
          "time": 210.52599999999998,
          "velocity": 0.7086614173228346
        },
        {
          "duration": 0.17543833333331804,
          "durationTicks": 160,
          "midi": 73,
          "name": "C#5",
          "ticks": 192000,
          "time": 210.52599999999998,
          "velocity": 0.7244094488188977
        },
        {
          "duration": 0.17543833333331804,
          "durationTicks": 160,
          "midi": 73,
          "name": "C#5",
          "ticks": 193440,
          "time": 212.104945,
          "velocity": 0.6614173228346457
        },
        {
          "duration": 0.17543833333331804,
          "durationTicks": 160,
          "midi": 77,
          "name": "F5",
          "ticks": 193440,
          "time": 212.104945,
          "velocity": 0.7244094488188977
        },
        {
          "duration": 0.17543833333331804,
          "durationTicks": 160,
          "midi": 85,
          "name": "C#6",
          "ticks": 193440,
          "time": 212.104945,
          "velocity": 0.6771653543307087
        },
        {
          "duration": 0.17543833333331804,
          "durationTicks": 160,
          "midi": 72,
          "name": "C5",
          "ticks": 193920,
          "time": 212.63126,
          "velocity": 0.6062992125984252
        },
        {
          "duration": 0.17543833333331804,
          "durationTicks": 160,
          "midi": 77,
          "name": "F5",
          "ticks": 193920,
          "time": 212.63126,
          "velocity": 0.7165354330708661
        },
        {
          "duration": 0.17543833333331804,
          "durationTicks": 160,
          "midi": 84,
          "name": "C6",
          "ticks": 193920,
          "time": 212.63126,
          "velocity": 0.6220472440944882
        },
        {
          "duration": 0.17543833333331804,
          "durationTicks": 160,
          "midi": 80,
          "name": "G#5",
          "ticks": 194160,
          "time": 212.8944175,
          "velocity": 0.7165354330708661
        },
        {
          "duration": 0.17543833333334646,
          "durationTicks": 160,
          "midi": 72,
          "name": "C5",
          "ticks": 194400,
          "time": 213.15757499999998,
          "velocity": 0.6535433070866141
        },
        {
          "duration": 0.17543833333334646,
          "durationTicks": 160,
          "midi": 77,
          "name": "F5",
          "ticks": 194400,
          "time": 213.15757499999998,
          "velocity": 0.7795275590551181
        },
        {
          "duration": 0.17543833333331804,
          "durationTicks": 160,
          "midi": 75,
          "name": "D#5",
          "ticks": 194880,
          "time": 213.68389,
          "velocity": 0.7165354330708661
        },
        {
          "duration": 0.17543833333331804,
          "durationTicks": 160,
          "midi": 77,
          "name": "F5",
          "ticks": 195120,
          "time": 213.9470475,
          "velocity": 0.7952755905511811
        },
        {
          "duration": 0.17543833333331804,
          "durationTicks": 160,
          "midi": 75,
          "name": "D#5",
          "ticks": 195360,
          "time": 214.210205,
          "velocity": 0.7086614173228346
        },
        {
          "duration": 0.17543833333334646,
          "durationTicks": 160,
          "midi": 70,
          "name": "A#4",
          "ticks": 195600,
          "time": 214.47336249999998,
          "velocity": 0.7007874015748031
        },
        {
          "duration": 0.17543833333331804,
          "durationTicks": 160,
          "midi": 75,
          "name": "D#5",
          "ticks": 195840,
          "time": 214.73651999999998,
          "velocity": 0.7716535433070866
        },
        {
          "duration": 0.17543833333331804,
          "durationTicks": 160,
          "midi": 75,
          "name": "D#5",
          "ticks": 197280,
          "time": 216.315465,
          "velocity": 0.6771653543307087
        },
        {
          "duration": 0.17543833333331804,
          "durationTicks": 160,
          "midi": 77,
          "name": "F5",
          "ticks": 197520,
          "time": 216.5786225,
          "velocity": 0.8031496062992126
        },
        {
          "duration": 0.17543833333331804,
          "durationTicks": 160,
          "midi": 75,
          "name": "D#5",
          "ticks": 197760,
          "time": 216.84178,
          "velocity": 0.7716535433070866
        },
        {
          "duration": 0.17543833333334646,
          "durationTicks": 160,
          "midi": 77,
          "name": "F5",
          "ticks": 198000,
          "time": 217.10493749999998,
          "velocity": 0.7716535433070866
        },
        {
          "duration": 0.17543833333331804,
          "durationTicks": 160,
          "midi": 80,
          "name": "G#5",
          "ticks": 198240,
          "time": 217.36809499999998,
          "velocity": 0.8188976377952756
        },
        {
          "duration": 0.17543833333331804,
          "durationTicks": 160,
          "midi": 77,
          "name": "F5",
          "ticks": 198480,
          "time": 217.6312525,
          "velocity": 0.8031496062992126
        },
        {
          "duration": 0.17543833333331804,
          "durationTicks": 160,
          "midi": 75,
          "name": "D#5",
          "ticks": 198720,
          "time": 217.89441,
          "velocity": 0.7874015748031497
        },
        {
          "duration": 0.17543833333331804,
          "durationTicks": 160,
          "midi": 77,
          "name": "F5",
          "ticks": 198960,
          "time": 218.1575675,
          "velocity": 0.7952755905511811
        },
        {
          "duration": 0.17543833333331804,
          "durationTicks": 160,
          "midi": 75,
          "name": "D#5",
          "ticks": 199200,
          "time": 218.420725,
          "velocity": 0.7007874015748031
        },
        {
          "duration": 0.17543833333334646,
          "durationTicks": 160,
          "midi": 73,
          "name": "C#5",
          "ticks": 199440,
          "time": 218.68388249999998,
          "velocity": 0.6771653543307087
        },
        {
          "duration": 0.17543833333331804,
          "durationTicks": 160,
          "midi": 70,
          "name": "A#4",
          "ticks": 199680,
          "time": 218.94704,
          "velocity": 0.7874015748031497
        },
        {
          "duration": 0.17543833333331804,
          "durationTicks": 160,
          "midi": 73,
          "name": "C#5",
          "ticks": 200400,
          "time": 219.7365125,
          "velocity": 0.7480314960629921
        },
        {
          "duration": 0.17543833333334646,
          "durationTicks": 160,
          "midi": 70,
          "name": "A#4",
          "ticks": 200640,
          "time": 219.99966999999998,
          "velocity": 0.6456692913385826
        },
        {
          "duration": 0.17543833333331804,
          "durationTicks": 160,
          "midi": 68,
          "name": "G#4",
          "ticks": 201360,
          "time": 220.7891425,
          "velocity": 0.6692913385826772
        },
        {
          "duration": 0.17543833333331804,
          "durationTicks": 160,
          "midi": 68,
          "name": "G#4",
          "ticks": 201600,
          "time": 221.0523,
          "velocity": 0.6771653543307087
        },
        {
          "duration": 0.17543833333331804,
          "durationTicks": 160,
          "midi": 65,
          "name": "F4",
          "ticks": 202080,
          "time": 221.57861499999999,
          "velocity": 0.8818897637795275
        },
        {
          "duration": 0.17543833333331804,
          "durationTicks": 160,
          "midi": 63,
          "name": "D#4",
          "ticks": 202320,
          "time": 221.8417725,
          "velocity": 0.889763779527559
        },
        {
          "duration": 0.18640322916667174,
          "durationTicks": 170,
          "midi": 58,
          "name": "A#3",
          "ticks": 202560,
          "time": 222.10493,
          "velocity": 0.7559055118110236
        },
        {
          "duration": 0.18640322916667174,
          "durationTicks": 170,
          "midi": 61,
          "name": "C#4",
          "ticks": 202560,
          "time": 222.10493,
          "velocity": 0.7244094488188977
        },
        {
          "duration": 0.20833302083332228,
          "durationTicks": 190,
          "midi": 65,
          "name": "F4",
          "ticks": 202560,
          "time": 222.10493,
          "velocity": 0.7480314960629921
        }
      ]
    },
    {
      "channel": 0,
      "controlChanges": {
        "0": [
          {
            "number": 0,
            "ticks": 505,
            "time": 0.5537272395833333,
            "value": 0
          }
        ],
        "32": [
          {
            "number": 32,
            "ticks": 510,
            "time": 0.5592096875,
            "value": 0
          }
        ]
      },
      "pitchBends": [],
      "instrument": {
        "family": "piano",
        "number": 0,
        "name": "acoustic grand piano"
      },
      "name": "Merry Christmas Mr.Lawrence",
      "notes": [],
      "endOfTrackTicks": 217920
    },
    {
      "channel": 1,
      "controlChanges": {
        "6": [
          {
            "number": 6,
            "ticks": 1025,
            "time": 1.1239018229166666,
            "value": 0.5039370078740157
          }
        ],
        "7": [
          {
            "number": 7,
            "ticks": 520,
            "time": 0.5701745833333333,
            "value": 0.6299212598425197
          }
        ],
        "10": [
          {
            "number": 10,
            "ticks": 520,
            "time": 0.5701745833333333,
            "value": 0.3858267716535433
          }
        ],
        "11": [
          {
            "number": 11,
            "ticks": 520,
            "time": 0.5701745833333333,
            "value": 0.6299212598425197
          },
          {
            "number": 11,
            "ticks": 107295,
            "time": 117.64784984375,
            "value": 0.6220472440944882
          },
          {
            "number": 11,
            "ticks": 214070,
            "time": 234.72552510416668,
            "value": 0.6141732283464567
          },
          {
            "number": 11,
            "ticks": 214085,
            "time": 234.74197244791668,
            "value": 0.5669291338582677
          },
          {
            "number": 11,
            "ticks": 214095,
            "time": 234.75293734374998,
            "value": 0.5354330708661418
          },
          {
            "number": 11,
            "ticks": 214110,
            "time": 234.76938468749998,
            "value": 0.4881889763779528
          },
          {
            "number": 11,
            "ticks": 214120,
            "time": 234.7803495833333,
            "value": 0.4566929133858268
          },
          {
            "number": 11,
            "ticks": 214430,
            "time": 235.12026135416667,
            "value": 0.44881889763779526
          },
          {
            "number": 11,
            "ticks": 214740,
            "time": 235.46017312499998,
            "value": 0.4409448818897638
          },
          {
            "number": 11,
            "ticks": 215070,
            "time": 235.8220146875,
            "value": 0.44881889763779526
          },
          {
            "number": 11,
            "ticks": 215235,
            "time": 236.00293546875,
            "value": 0.4566929133858268
          },
          {
            "number": 11,
            "ticks": 215315,
            "time": 236.09065463541666,
            "value": 0.4645669291338583
          },
          {
            "number": 11,
            "ticks": 215400,
            "time": 236.18385625,
            "value": 0.47244094488188976
          },
          {
            "number": 11,
            "ticks": 215480,
            "time": 236.27157541666668,
            "value": 0.48031496062992124
          },
          {
            "number": 11,
            "ticks": 215565,
            "time": 236.36477703125,
            "value": 0.4881889763779528
          },
          {
            "number": 11,
            "ticks": 215605,
            "time": 236.40863661458332,
            "value": 0.49606299212598426
          },
          {
            "number": 11,
            "ticks": 215690,
            "time": 236.50183822916668,
            "value": 0.5039370078740157
          },
          {
            "number": 11,
            "ticks": 215730,
            "time": 236.54569781249998,
            "value": 0.5118110236220472
          },
          {
            "number": 11,
            "ticks": 215770,
            "time": 236.5895573958333,
            "value": 0.5196850393700787
          },
          {
            "number": 11,
            "ticks": 215815,
            "time": 236.63889942708332,
            "value": 0.5275590551181102
          },
          {
            "number": 11,
            "ticks": 215895,
            "time": 236.72661859374998,
            "value": 0.5354330708661418
          },
          {
            "number": 11,
            "ticks": 215935,
            "time": 236.7704781770833,
            "value": 0.5433070866141733
          },
          {
            "number": 11,
            "ticks": 215980,
            "time": 236.8198202083333,
            "value": 0.5511811023622047
          },
          {
            "number": 11,
            "ticks": 216020,
            "time": 236.86367979166667,
            "value": 0.5590551181102362
          },
          {
            "number": 11,
            "ticks": 216060,
            "time": 236.907539375,
            "value": 0.5669291338582677
          },
          {
            "number": 11,
            "ticks": 216105,
            "time": 236.95688140624998,
            "value": 0.5748031496062992
          },
          {
            "number": 11,
            "ticks": 216145,
            "time": 237.0007409895833,
            "value": 0.5826771653543307
          },
          {
            "number": 11,
            "ticks": 216175,
            "time": 237.0336356770833,
            "value": 0.5905511811023622
          },
          {
            "number": 11,
            "ticks": 216185,
            "time": 237.04460057291666,
            "value": 0.5984251968503937
          },
          {
            "number": 11,
            "ticks": 216225,
            "time": 237.08846015625,
            "value": 0.6062992125984252
          },
          {
            "number": 11,
            "ticks": 216270,
            "time": 237.1378021875,
            "value": 0.6141732283464567
          },
          {
            "number": 11,
            "ticks": 216310,
            "time": 237.1816617708333,
            "value": 0.6220472440944882
          },
          {
            "number": 11,
            "ticks": 216350,
            "time": 237.22552135416666,
            "value": 0.6299212598425197
          },
          {
            "number": 11,
            "ticks": 216380,
            "time": 237.25841604166666,
            "value": 0.6377952755905512
          },
          {
            "number": 11,
            "ticks": 216390,
            "time": 237.2693809375,
            "value": 0.6456692913385826
          },
          {
            "number": 11,
            "ticks": 216435,
            "time": 237.31872296875,
            "value": 0.6535433070866141
          },
          {
            "number": 11,
            "ticks": 216475,
            "time": 237.36258255208332,
            "value": 0.6614173228346457
          },
          {
            "number": 11,
            "ticks": 216505,
            "time": 237.3954772395833,
            "value": 0.6692913385826772
          },
          {
            "number": 11,
            "ticks": 216515,
            "time": 237.40644213541665,
            "value": 0.6771653543307087
          },
          {
            "number": 11,
            "ticks": 216560,
            "time": 237.45578416666666,
            "value": 0.6850393700787402
          },
          {
            "number": 11,
            "ticks": 216590,
            "time": 237.48867885416666,
            "value": 0.6929133858267716
          },
          {
            "number": 11,
            "ticks": 216600,
            "time": 237.49964375,
            "value": 0.7007874015748031
          },
          {
            "number": 11,
            "ticks": 216640,
            "time": 237.54350333333332,
            "value": 0.7086614173228346
          },
          {
            "number": 11,
            "ticks": 216670,
            "time": 237.57639802083332,
            "value": 0.7165354330708661
          },
          {
            "number": 11,
            "ticks": 216680,
            "time": 237.58736291666668,
            "value": 0.7244094488188977
          },
          {
            "number": 11,
            "ticks": 216725,
            "time": 237.63670494791666,
            "value": 0.7322834645669292
          },
          {
            "number": 11,
            "ticks": 216755,
            "time": 237.66959963541666,
            "value": 0.7401574803149606
          },
          {
            "number": 11,
            "ticks": 216765,
            "time": 237.68056453124998,
            "value": 0.7480314960629921
          },
          {
            "number": 11,
            "ticks": 216795,
            "time": 237.71345921875,
            "value": 0.7559055118110236
          },
          {
            "number": 11,
            "ticks": 216805,
            "time": 237.72442411458331,
            "value": 0.7637795275590551
          },
          {
            "number": 11,
            "ticks": 216845,
            "time": 237.76828369791667,
            "value": 0.7716535433070866
          },
          {
            "number": 11,
            "ticks": 216890,
            "time": 237.81762572916668,
            "value": 0.7874015748031497
          },
          {
            "number": 11,
            "ticks": 216920,
            "time": 237.85052041666665,
            "value": 0.7952755905511811
          },
          {
            "number": 11,
            "ticks": 216930,
            "time": 237.86148531249998,
            "value": 0.8031496062992126
          },
          {
            "number": 11,
            "ticks": 216970,
            "time": 237.9053448958333,
            "value": 0.8110236220472441
          },
          {
            "number": 11,
            "ticks": 217015,
            "time": 237.95468692708332,
            "value": 0.8267716535433071
          },
          {
            "number": 11,
            "ticks": 217045,
            "time": 237.98758161458332,
            "value": 0.8346456692913385
          },
          {
            "number": 11,
            "ticks": 217055,
            "time": 237.99854651041667,
            "value": 0.84251968503937
          },
          {
            "number": 11,
            "ticks": 217085,
            "time": 238.03144119791668,
            "value": 0.8503937007874016
          },
          {
            "number": 11,
            "ticks": 217095,
            "time": 238.04240609375,
            "value": 0.8582677165354331
          },
          {
            "number": 11,
            "ticks": 217125,
            "time": 238.07530078124998,
            "value": 0.8661417322834646
          },
          {
            "number": 11,
            "ticks": 217135,
            "time": 238.0862656770833,
            "value": 0.8740157480314961
          },
          {
            "number": 11,
            "ticks": 217180,
            "time": 238.1356077083333,
            "value": 0.889763779527559
          },
          {
            "number": 11,
            "ticks": 217210,
            "time": 238.16850239583331,
            "value": 0.8976377952755905
          },
          {
            "number": 11,
            "ticks": 217220,
            "time": 238.17946729166667,
            "value": 0.905511811023622
          },
          {
            "number": 11,
            "ticks": 217250,
            "time": 238.21236197916667,
            "value": 0.9133858267716536
          },
          {
            "number": 11,
            "ticks": 217260,
            "time": 238.223326875,
            "value": 0.9212598425196851
          },
          {
            "number": 11,
            "ticks": 217290,
            "time": 238.2562215625,
            "value": 0.9291338582677166
          },
          {
            "number": 11,
            "ticks": 217300,
            "time": 238.2671864583333,
            "value": 0.937007874015748
          },
          {
            "number": 11,
            "ticks": 217345,
            "time": 238.3165284895833,
            "value": 0.952755905511811
          },
          {
            "number": 11,
            "ticks": 217375,
            "time": 238.3494231770833,
            "value": 0.9606299212598425
          },
          {
            "number": 11,
            "ticks": 217385,
            "time": 238.36038807291666,
            "value": 0.968503937007874
          },
          {
            "number": 11,
            "ticks": 217415,
            "time": 238.39328276041667,
            "value": 0.9763779527559056
          },
          {
            "number": 11,
            "ticks": 217425,
            "time": 238.40424765625,
            "value": 0.984251968503937
          },
          {
            "number": 11,
            "ticks": 217455,
            "time": 238.43714234375,
            "value": 1
          }
        ],
        "91": [
          {
            "number": 91,
            "ticks": 525,
            "time": 0.57565703125,
            "value": 0.5511811023622047
          }
        ],
        "93": [
          {
            "number": 93,
            "ticks": 525,
            "time": 0.57565703125,
            "value": 0.7874015748031497
          }
        ],
        "98": [
          {
            "number": 98,
            "ticks": 1020,
            "time": 1.118419375,
            "value": 0.7795275590551181
          }
        ],
        "99": [
          {
            "number": 99,
            "ticks": 1015,
            "time": 1.1129369270833334,
            "value": 0.007874015748031496
          }
        ],
        "100": [
          {
            "number": 100,
            "ticks": 1035,
            "time": 1.13486671875,
            "value": 1
          }
        ],
        "101": [
          {
            "number": 101,
            "ticks": 1030,
            "time": 1.1293842708333333,
            "value": 1
          }
        ]
      },
      "pitchBends": [],
      "instrument": {
        "family": "ensemble",
        "number": 50,
        "name": "synthstrings 1"
      },
      "name": "",
      "notes": [
        {
          "duration": 0.504385208333332,
          "durationTicks": 460,
          "midi": 56,
          "name": "G#3",
          "ticks": 147840,
          "time": 162.10502,
          "velocity": 0.8661417322834646
        },
        {
          "duration": 0.5208325520833341,
          "durationTicks": 475,
          "midi": 60,
          "name": "C4",
          "ticks": 147840,
          "time": 162.10502,
          "velocity": 0.8661417322834646
        },
        {
          "duration": 0.5098676562500088,
          "durationTicks": 465,
          "midi": 61,
          "name": "C#4",
          "ticks": 147840,
          "time": 162.10502,
          "velocity": 0.8661417322834646
        },
        {
          "duration": 0.48793786458330146,
          "durationTicks": 445,
          "midi": 56,
          "name": "G#3",
          "ticks": 148320,
          "time": 162.631335,
          "velocity": 0.8267716535433071
        },
        {
          "duration": 0.5153501041666573,
          "durationTicks": 470,
          "midi": 60,
          "name": "C4",
          "ticks": 148320,
          "time": 162.631335,
          "velocity": 0.8267716535433071
        },
        {
          "duration": 0.4934203124999783,
          "durationTicks": 450,
          "midi": 63,
          "name": "D#4",
          "ticks": 148320,
          "time": 162.631335,
          "velocity": 0.8267716535433071
        },
        {
          "duration": 0.49342031250000673,
          "durationTicks": 450,
          "midi": 58,
          "name": "A#3",
          "ticks": 151680,
          "time": 166.31554,
          "velocity": 0.8661417322834646
        },
        {
          "duration": 0.5098676562499804,
          "durationTicks": 465,
          "midi": 60,
          "name": "C4",
          "ticks": 151680,
          "time": 166.31554,
          "velocity": 0.8661417322834646
        },
        {
          "duration": 0.4989027604166836,
          "durationTicks": 455,
          "midi": 63,
          "name": "D#4",
          "ticks": 151680,
          "time": 166.31554,
          "velocity": 0.8661417322834646
        },
        {
          "duration": 0.564692135416692,
          "durationTicks": 515,
          "midi": 60,
          "name": "C4",
          "ticks": 152160,
          "time": 166.84185499999998,
          "velocity": 0.8267716535433071
        },
        {
          "duration": 0.5427623437500131,
          "durationTicks": 495,
          "midi": 63,
          "name": "D#4",
          "ticks": 152160,
          "time": 166.84185499999998,
          "velocity": 0.8267716535433071
        },
        {
          "duration": 0.5427623437500131,
          "durationTicks": 495,
          "midi": 68,
          "name": "G#4",
          "ticks": 152160,
          "time": 166.84185499999998,
          "velocity": 0.8267716535433071
        },
        {
          "duration": 0.5372798958333362,
          "durationTicks": 490,
          "midi": 70,
          "name": "A#4",
          "ticks": 152160,
          "time": 166.84185499999998,
          "velocity": 0.8267716535433071
        },
        {
          "duration": 0.5263149999999825,
          "durationTicks": 480,
          "midi": 61,
          "name": "C#4",
          "ticks": 154080,
          "time": 168.947115,
          "velocity": 0.8267716535433071
        },
        {
          "duration": 0.5098676562500088,
          "durationTicks": 465,
          "midi": 63,
          "name": "D#4",
          "ticks": 154080,
          "time": 168.947115,
          "velocity": 0.8267716535433071
        },
        {
          "duration": 0.4989027604166836,
          "durationTicks": 455,
          "midi": 72,
          "name": "C5",
          "ticks": 154080,
          "time": 168.947115,
          "velocity": 0.8267716535433071
        },
        {
          "duration": 0.5153501041666573,
          "durationTicks": 470,
          "midi": 65,
          "name": "F4",
          "ticks": 155520,
          "time": 170.52606,
          "velocity": 0.8661417322834646
        },
        {
          "duration": 0.5098676562499804,
          "durationTicks": 465,
          "midi": 68,
          "name": "G#4",
          "ticks": 155520,
          "time": 170.52606,
          "velocity": 0.8661417322834646
        },
        {
          "duration": 0.5208325520833057,
          "durationTicks": 475,
          "midi": 72,
          "name": "C5",
          "ticks": 155520,
          "time": 170.52606,
          "velocity": 0.8661417322834646
        },
        {
          "duration": 0.5153501041666573,
          "durationTicks": 470,
          "midi": 73,
          "name": "C#5",
          "ticks": 155520,
          "time": 170.52606,
          "velocity": 0.8661417322834646
        },
        {
          "duration": 0.5098676562500088,
          "durationTicks": 465,
          "midi": 65,
          "name": "F4",
          "ticks": 156000,
          "time": 171.05237499999998,
          "velocity": 0.8267716535433071
        },
        {
          "duration": 0.49342031250000673,
          "durationTicks": 450,
          "midi": 68,
          "name": "G#4",
          "ticks": 156000,
          "time": 171.05237499999998,
          "velocity": 0.8267716535433071
        },
        {
          "duration": 0.5208325520833341,
          "durationTicks": 475,
          "midi": 72,
          "name": "C5",
          "ticks": 156000,
          "time": 171.05237499999998,
          "velocity": 0.8267716535433071
        },
        {
          "duration": 0.4989027604166836,
          "durationTicks": 455,
          "midi": 75,
          "name": "D#5",
          "ticks": 156000,
          "time": 171.05237499999998,
          "velocity": 0.8267716535433071
        },
        {
          "duration": 0.5098676562500088,
          "durationTicks": 465,
          "midi": 58,
          "name": "A#3",
          "ticks": 162720,
          "time": 178.420785,
          "velocity": 0.8661417322834646
        },
        {
          "duration": 0.526315000000011,
          "durationTicks": 480,
          "midi": 61,
          "name": "C#4",
          "ticks": 162720,
          "time": 178.420785,
          "velocity": 0.8661417322834646
        },
        {
          "duration": 0.5153501041666857,
          "durationTicks": 470,
          "midi": 65,
          "name": "F4",
          "ticks": 162720,
          "time": 178.420785,
          "velocity": 0.8661417322834646
        },
        {
          "duration": 0.4934203124999783,
          "durationTicks": 450,
          "midi": 56,
          "name": "G#3",
          "ticks": 163200,
          "time": 178.9471,
          "velocity": 0.8267716535433071
        },
        {
          "duration": 0.5208325520833057,
          "durationTicks": 475,
          "midi": 60,
          "name": "C4",
          "ticks": 163200,
          "time": 178.9471,
          "velocity": 0.8267716535433071
        },
        {
          "duration": 0.49890276041665516,
          "durationTicks": 455,
          "midi": 65,
          "name": "F4",
          "ticks": 163200,
          "time": 178.9471,
          "velocity": 0.8267716535433071
        },
        {
          "duration": 0.49342031250000673,
          "durationTicks": 450,
          "midi": 56,
          "name": "G#3",
          "ticks": 163680,
          "time": 179.473415,
          "velocity": 0.8267716535433071
        },
        {
          "duration": 0.5208325520833341,
          "durationTicks": 475,
          "midi": 60,
          "name": "C4",
          "ticks": 163680,
          "time": 179.473415,
          "velocity": 0.8267716535433071
        },
        {
          "duration": 0.4989027604166836,
          "durationTicks": 455,
          "midi": 65,
          "name": "F4",
          "ticks": 163680,
          "time": 179.473415,
          "velocity": 0.8267716535433071
        },
        {
          "duration": 0.4989027604166836,
          "durationTicks": 455,
          "midi": 56,
          "name": "G#3",
          "ticks": 170880,
          "time": 187.36813999999998,
          "velocity": 0.8267716535433071
        },
        {
          "duration": 0.5208325520833341,
          "durationTicks": 475,
          "midi": 60,
          "name": "C4",
          "ticks": 170880,
          "time": 187.36813999999998,
          "velocity": 0.8267716535433071
        },
        {
          "duration": 0.504385208333332,
          "durationTicks": 460,
          "midi": 63,
          "name": "D#4",
          "ticks": 170880,
          "time": 187.36813999999998,
          "velocity": 0.8267716535433071
        },
        {
          "duration": 0.504385208333332,
          "durationTicks": 460,
          "midi": 65,
          "name": "F4",
          "ticks": 170880,
          "time": 187.36813999999998,
          "velocity": 0.8267716535433071
        },
        {
          "duration": 0.4989027604166836,
          "durationTicks": 455,
          "midi": 56,
          "name": "G#3",
          "ticks": 171360,
          "time": 187.894455,
          "velocity": 0.8267716535433071
        },
        {
          "duration": 0.5208325520833341,
          "durationTicks": 475,
          "midi": 60,
          "name": "C4",
          "ticks": 171360,
          "time": 187.894455,
          "velocity": 0.8267716535433071
        },
        {
          "duration": 0.504385208333332,
          "durationTicks": 460,
          "midi": 63,
          "name": "D#4",
          "ticks": 171360,
          "time": 187.894455,
          "velocity": 0.8267716535433071
        },
        {
          "duration": 0.504385208333332,
          "durationTicks": 460,
          "midi": 65,
          "name": "F4",
          "ticks": 171360,
          "time": 187.894455,
          "velocity": 0.8267716535433071
        },
        {
          "duration": 0.5098676562499804,
          "durationTicks": 465,
          "midi": 58,
          "name": "A#3",
          "ticks": 178080,
          "time": 195.262865,
          "velocity": 0.8661417322834646
        },
        {
          "duration": 0.5263149999999825,
          "durationTicks": 480,
          "midi": 61,
          "name": "C#4",
          "ticks": 178080,
          "time": 195.262865,
          "velocity": 0.8661417322834646
        },
        {
          "duration": 0.5153501041666573,
          "durationTicks": 470,
          "midi": 65,
          "name": "F4",
          "ticks": 178080,
          "time": 195.262865,
          "velocity": 0.8661417322834646
        },
        {
          "duration": 0.49342031250000673,
          "durationTicks": 450,
          "midi": 56,
          "name": "G#3",
          "ticks": 178560,
          "time": 195.78918,
          "velocity": 0.8267716535433071
        },
        {
          "duration": 0.5208325520833341,
          "durationTicks": 475,
          "midi": 60,
          "name": "C4",
          "ticks": 178560,
          "time": 195.78918,
          "velocity": 0.8267716535433071
        },
        {
          "duration": 0.4989027604166836,
          "durationTicks": 455,
          "midi": 65,
          "name": "F4",
          "ticks": 178560,
          "time": 195.78918,
          "velocity": 0.8267716535433071
        },
        {
          "duration": 0.49342031250000673,
          "durationTicks": 450,
          "midi": 56,
          "name": "G#3",
          "ticks": 179040,
          "time": 196.315495,
          "velocity": 0.8267716535433071
        },
        {
          "duration": 0.5208325520833057,
          "durationTicks": 475,
          "midi": 60,
          "name": "C4",
          "ticks": 179040,
          "time": 196.315495,
          "velocity": 0.8267716535433071
        },
        {
          "duration": 0.4989027604166836,
          "durationTicks": 455,
          "midi": 65,
          "name": "F4",
          "ticks": 179040,
          "time": 196.315495,
          "velocity": 0.8267716535433071
        },
        {
          "duration": 0.49342031250000673,
          "durationTicks": 450,
          "midi": 56,
          "name": "G#3",
          "ticks": 186240,
          "time": 204.21022,
          "velocity": 0.8267716535433071
        },
        {
          "duration": 0.5153501041666857,
          "durationTicks": 470,
          "midi": 60,
          "name": "C4",
          "ticks": 186240,
          "time": 204.21022,
          "velocity": 0.8267716535433071
        },
        {
          "duration": 0.4989027604166836,
          "durationTicks": 455,
          "midi": 63,
          "name": "D#4",
          "ticks": 186240,
          "time": 204.21022,
          "velocity": 0.8267716535433071
        },
        {
          "duration": 0.4989027604166836,
          "durationTicks": 455,
          "midi": 65,
          "name": "F4",
          "ticks": 186240,
          "time": 204.21022,
          "velocity": 0.8267716535433071
        },
        {
          "duration": 0.4934203124999783,
          "durationTicks": 450,
          "midi": 56,
          "name": "G#3",
          "ticks": 186720,
          "time": 204.736535,
          "velocity": 0.8267716535433071
        },
        {
          "duration": 0.5153501041666573,
          "durationTicks": 470,
          "midi": 60,
          "name": "C4",
          "ticks": 186720,
          "time": 204.736535,
          "velocity": 0.8267716535433071
        },
        {
          "duration": 0.49890276041665516,
          "durationTicks": 455,
          "midi": 63,
          "name": "D#4",
          "ticks": 186720,
          "time": 204.736535,
          "velocity": 0.8267716535433071
        },
        {
          "duration": 0.49890276041665516,
          "durationTicks": 455,
          "midi": 65,
          "name": "F4",
          "ticks": 186720,
          "time": 204.736535,
          "velocity": 0.8267716535433071
        },
        {
          "duration": 0.5098676562500088,
          "durationTicks": 465,
          "midi": 58,
          "name": "A#3",
          "ticks": 193440,
          "time": 212.104945,
          "velocity": 0.8661417322834646
        },
        {
          "duration": 0.526315000000011,
          "durationTicks": 480,
          "midi": 61,
          "name": "C#4",
          "ticks": 193440,
          "time": 212.104945,
          "velocity": 0.8661417322834646
        },
        {
          "duration": 0.5153501041666857,
          "durationTicks": 470,
          "midi": 65,
          "name": "F4",
          "ticks": 193440,
          "time": 212.104945,
          "velocity": 0.8661417322834646
        },
        {
          "duration": 0.49342031250000673,
          "durationTicks": 450,
          "midi": 56,
          "name": "G#3",
          "ticks": 193920,
          "time": 212.63126,
          "velocity": 0.8267716535433071
        },
        {
          "duration": 0.5208325520833057,
          "durationTicks": 475,
          "midi": 60,
          "name": "C4",
          "ticks": 193920,
          "time": 212.63126,
          "velocity": 0.8267716535433071
        },
        {
          "duration": 0.4989027604166836,
          "durationTicks": 455,
          "midi": 65,
          "name": "F4",
          "ticks": 193920,
          "time": 212.63126,
          "velocity": 0.8267716535433071
        },
        {
          "duration": 0.49342031250000673,
          "durationTicks": 450,
          "midi": 56,
          "name": "G#3",
          "ticks": 194400,
          "time": 213.15757499999998,
          "velocity": 0.8267716535433071
        },
        {
          "duration": 0.5208325520833341,
          "durationTicks": 475,
          "midi": 60,
          "name": "C4",
          "ticks": 194400,
          "time": 213.15757499999998,
          "velocity": 0.8267716535433071
        },
        {
          "duration": 0.4989027604166836,
          "durationTicks": 455,
          "midi": 65,
          "name": "F4",
          "ticks": 194400,
          "time": 213.15757499999998,
          "velocity": 0.8267716535433071
        },
        {
          "duration": 2.061400416666686,
          "durationTicks": 1880,
          "midi": 55,
          "name": "G3",
          "ticks": 194880,
          "time": 213.68389,
          "velocity": 0.8661417322834646
        },
        {
          "duration": 2.072365312500011,
          "durationTicks": 1890,
          "midi": 58,
          "name": "A#3",
          "ticks": 194880,
          "time": 213.68389,
          "velocity": 0.8661417322834646
        },
        {
          "duration": 5.2960446875,
          "durationTicks": 4830,
          "midi": 63,
          "name": "D#4",
          "ticks": 194880,
          "time": 213.68389,
          "velocity": 0.8661417322834646
        },
        {
          "duration": 2.061400416666686,
          "durationTicks": 1880,
          "midi": 54,
          "name": "F#3",
          "ticks": 196800,
          "time": 215.78914999999998,
          "velocity": 0.8661417322834646
        },
        {
          "duration": 2.072365312500011,
          "durationTicks": 1890,
          "midi": 58,
          "name": "A#3",
          "ticks": 196800,
          "time": 215.78914999999998,
          "velocity": 0.8661417322834646
        },
        {
          "duration": 2.0668828645833344,
          "durationTicks": 1885,
          "midi": 60,
          "name": "C4",
          "ticks": 196800,
          "time": 215.78914999999998,
          "velocity": 0.8661417322834646
        },
        {
          "duration": 1.0745597916666725,
          "durationTicks": 980,
          "midi": 56,
          "name": "G#3",
          "ticks": 198720,
          "time": 217.89441,
          "velocity": 0.8661417322834646
        },
        {
          "duration": 1.0361826562499914,
          "durationTicks": 945,
          "midi": 61,
          "name": "C#4",
          "ticks": 198720,
          "time": 217.89441,
          "velocity": 0.8661417322834646
        },
        {
          "duration": 1.1019720312499999,
          "durationTicks": 1005,
          "midi": 55,
          "name": "G3",
          "ticks": 199680,
          "time": 218.94704,
          "velocity": 0.8661417322834646
        },
        {
          "duration": 1.0361826562499914,
          "durationTicks": 945,
          "midi": 61,
          "name": "C#4",
          "ticks": 199680,
          "time": 218.94704,
          "velocity": 0.8661417322834646
        },
        {
          "duration": 2.09429510416669,
          "durationTicks": 1910,
          "midi": 54,
          "name": "F#3",
          "ticks": 200640,
          "time": 219.99966999999998,
          "velocity": 0.8661417322834646
        },
        {
          "duration": 1.030700208333343,
          "durationTicks": 940,
          "midi": 60,
          "name": "C4",
          "ticks": 200640,
          "time": 219.99966999999998,
          "velocity": 0.8661417322834646
        },
        {
          "duration": 1.0361826562500198,
          "durationTicks": 945,
          "midi": 66,
          "name": "F#4",
          "ticks": 200640,
          "time": 219.99966999999998,
          "velocity": 0.8661417322834646
        },
        {
          "duration": 1.1019720312499999,
          "durationTicks": 1005,
          "midi": 60,
          "name": "C4",
          "ticks": 201600,
          "time": 221.0523,
          "velocity": 0.8661417322834646
        },
        {
          "duration": 1.0690773437499956,
          "durationTicks": 975,
          "midi": 66,
          "name": "F#4",
          "ticks": 201600,
          "time": 221.0523,
          "velocity": 0.8661417322834646
        },
        {
          "duration": 16.535062916666675,
          "durationTicks": 15080,
          "midi": 53,
          "name": "F3",
          "ticks": 202560,
          "time": 222.10493,
          "velocity": 0.8661417322834646
        },
        {
          "duration": 16.535062916666675,
          "durationTicks": 15080,
          "midi": 54,
          "name": "F#3",
          "ticks": 202560,
          "time": 222.10493,
          "velocity": 0.8661417322834646
        },
        {
          "duration": 16.5460278125,
          "durationTicks": 15090,
          "midi": 58,
          "name": "A#3",
          "ticks": 202560,
          "time": 222.10493,
          "velocity": 0.8661417322834646
        },
        {
          "duration": 16.540545364583323,
          "durationTicks": 15085,
          "midi": 61,
          "name": "C#4",
          "ticks": 202560,
          "time": 222.10493,
          "velocity": 0.8661417322834646
        }
      ]
    },
    {
      "channel": 2,
      "controlChanges": {
        "0": [
          {
            "number": 0,
            "ticks": 530,
            "time": 0.5811394791666666,
            "value": 0
          }
        ],
        "7": [
          {
            "number": 7,
            "ticks": 545,
            "time": 0.5975868229166666,
            "value": 0.7874015748031497
          }
        ],
        "10": [
          {
            "number": 10,
            "ticks": 545,
            "time": 0.5975868229166666,
            "value": 0.4645669291338583
          }
        ],
        "11": [
          {
            "number": 11,
            "ticks": 545,
            "time": 0.5975868229166666,
            "value": 1
          }
        ],
        "32": [
          {
            "number": 32,
            "ticks": 535,
            "time": 0.5866219270833333,
            "value": 0
          }
        ],
        "64": [
          {
            "number": 64,
            "ticks": 2880,
            "time": 3.15789,
            "value": 1
          },
          {
            "number": 64,
            "ticks": 5760,
            "time": 6.31578,
            "value": 0
          },
          {
            "number": 64,
            "ticks": 5865,
            "time": 6.43091140625,
            "value": 1
          },
          {
            "number": 64,
            "ticks": 8630,
            "time": 9.462705104166666,
            "value": 0
          },
          {
            "number": 64,
            "ticks": 8765,
            "time": 9.610731197916667,
            "value": 1
          },
          {
            "number": 64,
            "ticks": 11465,
            "time": 12.571253072916667,
            "value": 0
          },
          {
            "number": 64,
            "ticks": 11635,
            "time": 12.757656302083332,
            "value": 1
          },
          {
            "number": 64,
            "ticks": 12950,
            "time": 14.199540104166667,
            "value": 0
          },
          {
            "number": 64,
            "ticks": 13060,
            "time": 14.320153958333332,
            "value": 1
          },
          {
            "number": 64,
            "ticks": 14365,
            "time": 15.751072864583332,
            "value": 0
          },
          {
            "number": 64,
            "ticks": 14480,
            "time": 15.877169166666667,
            "value": 1
          },
          {
            "number": 64,
            "ticks": 17240,
            "time": 18.903480416666664,
            "value": 0
          },
          {
            "number": 64,
            "ticks": 17350,
            "time": 19.024094270833334,
            "value": 1
          },
          {
            "number": 64,
            "ticks": 20180,
            "time": 22.127159791666664,
            "value": 0
          },
          {
            "number": 64,
            "ticks": 20300,
            "time": 22.258738541666663,
            "value": 1
          },
          {
            "number": 64,
            "ticks": 22990,
            "time": 25.208295520833335,
            "value": 0
          },
          {
            "number": 64,
            "ticks": 23125,
            "time": 25.356321614583333,
            "value": 1
          },
          {
            "number": 64,
            "ticks": 25875,
            "time": 28.37166796875,
            "value": 0
          },
          {
            "number": 64,
            "ticks": 26010,
            "time": 28.519694062499998,
            "value": 1
          },
          {
            "number": 64,
            "ticks": 28760,
            "time": 31.535040416666664,
            "value": 0
          },
          {
            "number": 64,
            "ticks": 28890,
            "time": 31.6775840625,
            "value": 1
          },
          {
            "number": 64,
            "ticks": 31625,
            "time": 34.67648307291667,
            "value": 0
          },
          {
            "number": 64,
            "ticks": 31785,
            "time": 34.85192140625,
            "value": 1
          },
          {
            "number": 64,
            "ticks": 34515,
            "time": 37.84533796875,
            "value": 0
          },
          {
            "number": 64,
            "ticks": 34685,
            "time": 38.031741197916666,
            "value": 1
          },
          {
            "number": 64,
            "ticks": 36000,
            "time": 39.473625,
            "value": 0
          },
          {
            "number": 64,
            "ticks": 36130,
            "time": 39.616168645833326,
            "value": 1
          },
          {
            "number": 64,
            "ticks": 37440,
            "time": 41.052569999999996,
            "value": 0
          },
          {
            "number": 64,
            "ticks": 37520,
            "time": 41.14028916666667,
            "value": 1
          },
          {
            "number": 64,
            "ticks": 40295,
            "time": 44.18304776041667,
            "value": 0
          },
          {
            "number": 64,
            "ticks": 40450,
            "time": 44.353003645833326,
            "value": 1
          },
          {
            "number": 64,
            "ticks": 43195,
            "time": 47.36286755208333,
            "value": 0
          },
          {
            "number": 64,
            "ticks": 43345,
            "time": 47.52734098958333,
            "value": 1
          },
          {
            "number": 64,
            "ticks": 46100,
            "time": 50.548169791666666,
            "value": 0
          },
          {
            "number": 64,
            "ticks": 46230,
            "time": 50.6907134375,
            "value": 1
          },
          {
            "number": 64,
            "ticks": 48990,
            "time": 53.7170246875,
            "value": 0
          },
          {
            "number": 64,
            "ticks": 49680,
            "time": 54.4736025,
            "value": 1
          },
          {
            "number": 64,
            "ticks": 50820,
            "time": 55.723600624999996,
            "value": 0
          },
          {
            "number": 64,
            "ticks": 51005,
            "time": 55.92645119791667,
            "value": 1
          },
          {
            "number": 64,
            "ticks": 51780,
            "time": 56.776230625,
            "value": 0
          },
          {
            "number": 64,
            "ticks": 51975,
            "time": 56.990046093749996,
            "value": 1
          },
          {
            "number": 64,
            "ticks": 52265,
            "time": 57.30802807291667,
            "value": 0
          },
          {
            "number": 64,
            "ticks": 52460,
            "time": 57.52184354166667,
            "value": 1
          },
          {
            "number": 64,
            "ticks": 52755,
            "time": 57.84530796875,
            "value": 0
          },
          {
            "number": 64,
            "ticks": 52930,
            "time": 58.03719364583333,
            "value": 1
          },
          {
            "number": 64,
            "ticks": 53180,
            "time": 58.311316041666664,
            "value": 0
          },
          {
            "number": 64,
            "ticks": 53305,
            "time": 58.44837723958333,
            "value": 1
          },
          {
            "number": 64,
            "ticks": 53755,
            "time": 58.94179755208333,
            "value": 0
          },
          {
            "number": 64,
            "ticks": 53995,
            "time": 59.20495505208333,
            "value": 1
          },
          {
            "number": 64,
            "ticks": 54695,
            "time": 59.972497760416665,
            "value": 0
          },
          {
            "number": 64,
            "ticks": 54855,
            "time": 60.14793609375,
            "value": 1
          },
          {
            "number": 64,
            "ticks": 55745,
            "time": 61.123811822916664,
            "value": 0
          },
          {
            "number": 64,
            "ticks": 55960,
            "time": 61.35955708333333,
            "value": 1
          },
          {
            "number": 64,
            "ticks": 56630,
            "time": 62.09420510416667,
            "value": 0
          },
          {
            "number": 64,
            "ticks": 57360,
            "time": 62.894642499999996,
            "value": 1
          },
          {
            "number": 64,
            "ticks": 58520,
            "time": 64.16657041666667,
            "value": 0
          },
          {
            "number": 64,
            "ticks": 58680,
            "time": 64.34200874999999,
            "value": 1
          },
          {
            "number": 64,
            "ticks": 59475,
            "time": 65.21371796875,
            "value": 0
          },
          {
            "number": 64,
            "ticks": 59665,
            "time": 65.42205098958333,
            "value": 1
          },
          {
            "number": 64,
            "ticks": 59950,
            "time": 65.73455052083332,
            "value": 0
          },
          {
            "number": 64,
            "ticks": 60140,
            "time": 65.94288354166666,
            "value": 1
          },
          {
            "number": 64,
            "ticks": 60425,
            "time": 66.25538307291667,
            "value": 0
          },
          {
            "number": 64,
            "ticks": 60595,
            "time": 66.44178630208333,
            "value": 1
          },
          {
            "number": 64,
            "ticks": 60905,
            "time": 66.78169807291667,
            "value": 0
          },
          {
            "number": 64,
            "ticks": 61095,
            "time": 66.99003109374999,
            "value": 1
          },
          {
            "number": 64,
            "ticks": 61470,
            "time": 67.4012146875,
            "value": 0
          },
          {
            "number": 64,
            "ticks": 61560,
            "time": 67.49989875,
            "value": 1
          },
          {
            "number": 64,
            "ticks": 63330,
            "time": 69.4406853125,
            "value": 0
          },
          {
            "number": 64,
            "ticks": 63555,
            "time": 69.68739546875,
            "value": 1
          },
          {
            "number": 64,
            "ticks": 64270,
            "time": 70.47138552083334,
            "value": 0
          },
          {
            "number": 64,
            "ticks": 65040,
            "time": 71.3156825,
            "value": 1
          },
          {
            "number": 64,
            "ticks": 66200,
            "time": 72.58761041666666,
            "value": 0
          },
          {
            "number": 64,
            "ticks": 66315,
            "time": 72.71370671875,
            "value": 1
          },
          {
            "number": 64,
            "ticks": 67160,
            "time": 73.64024041666666,
            "value": 0
          },
          {
            "number": 64,
            "ticks": 67335,
            "time": 73.83212609374999,
            "value": 1
          },
          {
            "number": 64,
            "ticks": 67650,
            "time": 74.1775203125,
            "value": 0
          },
          {
            "number": 64,
            "ticks": 67825,
            "time": 74.36940598958334,
            "value": 1
          },
          {
            "number": 64,
            "ticks": 68125,
            "time": 74.69835286458334,
            "value": 0
          },
          {
            "number": 64,
            "ticks": 68270,
            "time": 74.85734385416666,
            "value": 1
          },
          {
            "number": 64,
            "ticks": 68595,
            "time": 75.21370296875,
            "value": 0
          },
          {
            "number": 64,
            "ticks": 68740,
            "time": 75.37269395833333,
            "value": 1
          },
          {
            "number": 64,
            "ticks": 69115,
            "time": 75.78387755208334,
            "value": 0
          },
          {
            "number": 64,
            "ticks": 69325,
            "time": 76.01414036458334,
            "value": 1
          },
          {
            "number": 64,
            "ticks": 70055,
            "time": 76.81457776041665,
            "value": 0
          },
          {
            "number": 64,
            "ticks": 70215,
            "time": 76.99001609375,
            "value": 1
          },
          {
            "number": 64,
            "ticks": 71035,
            "time": 77.88913755208334,
            "value": 0
          },
          {
            "number": 64,
            "ticks": 71210,
            "time": 78.08102322916666,
            "value": 1
          },
          {
            "number": 64,
            "ticks": 71965,
            "time": 78.90887286458333,
            "value": 0
          },
          {
            "number": 64,
            "ticks": 73335,
            "time": 80.41106359375,
            "value": 1
          },
          {
            "number": 64,
            "ticks": 73875,
            "time": 81.00316796874999,
            "value": 0
          },
          {
            "number": 64,
            "ticks": 74015,
            "time": 81.15667651041666,
            "value": 1
          },
          {
            "number": 64,
            "ticks": 74830,
            "time": 82.05031552083334,
            "value": 0
          },
          {
            "number": 64,
            "ticks": 74990,
            "time": 82.22575385416665,
            "value": 1
          },
          {
            "number": 64,
            "ticks": 75305,
            "time": 82.57114807291666,
            "value": 0
          },
          {
            "number": 64,
            "ticks": 75465,
            "time": 82.74658640625,
            "value": 1
          },
          {
            "number": 64,
            "ticks": 75810,
            "time": 83.1248753125,
            "value": 0
          },
          {
            "number": 64,
            "ticks": 75985,
            "time": 83.31676098958333,
            "value": 1
          },
          {
            "number": 64,
            "ticks": 76320,
            "time": 83.684085,
            "value": 0
          },
          {
            "number": 64,
            "ticks": 76495,
            "time": 83.87597067708333,
            "value": 1
          },
          {
            "number": 64,
            "ticks": 76820,
            "time": 84.23232979166666,
            "value": 0
          },
          {
            "number": 64,
            "ticks": 76900,
            "time": 84.32004895833333,
            "value": 1
          },
          {
            "number": 64,
            "ticks": 77710,
            "time": 85.20820552083333,
            "value": 0
          },
          {
            "number": 64,
            "ticks": 77870,
            "time": 85.38364385416666,
            "value": 1
          },
          {
            "number": 64,
            "ticks": 78690,
            "time": 86.28276531249999,
            "value": 0
          },
          {
            "number": 64,
            "ticks": 78850,
            "time": 86.45820364583334,
            "value": 1
          },
          {
            "number": 64,
            "ticks": 79670,
            "time": 87.35732510416666,
            "value": 0
          },
          {
            "number": 64,
            "ticks": 79815,
            "time": 87.51631609374999,
            "value": 1
          },
          {
            "number": 64,
            "ticks": 80665,
            "time": 88.44833223958334,
            "value": 0
          },
          {
            "number": 64,
            "ticks": 80760,
            "time": 88.55249875,
            "value": 1
          },
          {
            "number": 64,
            "ticks": 81590,
            "time": 89.46258510416666,
            "value": 0
          },
          {
            "number": 64,
            "ticks": 81715,
            "time": 89.59964630208333,
            "value": 1
          },
          {
            "number": 64,
            "ticks": 82605,
            "time": 90.57552203125,
            "value": 0
          },
          {
            "number": 64,
            "ticks": 82760,
            "time": 90.74547791666666,
            "value": 1
          },
          {
            "number": 64,
            "ticks": 83085,
            "time": 91.10183703125,
            "value": 0
          },
          {
            "number": 64,
            "ticks": 83240,
            "time": 91.27179291666666,
            "value": 1
          },
          {
            "number": 64,
            "ticks": 83505,
            "time": 91.56236265625,
            "value": 0
          },
          {
            "number": 64,
            "ticks": 83605,
            "time": 91.67201161458334,
            "value": 1
          },
          {
            "number": 64,
            "ticks": 84525,
            "time": 92.68078203124999,
            "value": 0
          },
          {
            "number": 64,
            "ticks": 84790,
            "time": 92.97135177083334,
            "value": 1
          },
          {
            "number": 64,
            "ticks": 85410,
            "time": 93.6511753125,
            "value": 0
          },
          {
            "number": 64,
            "ticks": 85520,
            "time": 93.77178916666666,
            "value": 1
          },
          {
            "number": 64,
            "ticks": 86455,
            "time": 94.79700692708333,
            "value": 0
          },
          {
            "number": 64,
            "ticks": 86585,
            "time": 94.93955057291666,
            "value": 1
          },
          {
            "number": 64,
            "ticks": 87350,
            "time": 95.77836510416665,
            "value": 0
          },
          {
            "number": 64,
            "ticks": 87470,
            "time": 95.90994385416666,
            "value": 1
          },
          {
            "number": 64,
            "ticks": 88345,
            "time": 96.86937223958333,
            "value": 0
          },
          {
            "number": 64,
            "ticks": 88625,
            "time": 97.17638932291666,
            "value": 1
          },
          {
            "number": 64,
            "ticks": 89215,
            "time": 97.82331817708334,
            "value": 0
          },
          {
            "number": 64,
            "ticks": 89375,
            "time": 97.99875651041665,
            "value": 1
          },
          {
            "number": 64,
            "ticks": 90275,
            "time": 98.98559713541665,
            "value": 0
          },
          {
            "number": 64,
            "ticks": 90455,
            "time": 99.18296526041665,
            "value": 1
          },
          {
            "number": 64,
            "ticks": 90765,
            "time": 99.52287703124999,
            "value": 0
          },
          {
            "number": 64,
            "ticks": 90920,
            "time": 99.69283291666666,
            "value": 1
          },
          {
            "number": 64,
            "ticks": 91165,
            "time": 99.96147286458333,
            "value": 0
          },
          {
            "number": 64,
            "ticks": 91320,
            "time": 100.13142875,
            "value": 1
          },
          {
            "number": 64,
            "ticks": 92235,
            "time": 101.13471671875,
            "value": 0
          },
          {
            "number": 64,
            "ticks": 92490,
            "time": 101.41432156249999,
            "value": 1
          },
          {
            "number": 64,
            "ticks": 93015,
            "time": 101.98997859375,
            "value": 0
          },
          {
            "number": 64,
            "ticks": 93180,
            "time": 102.17089937499999,
            "value": 1
          },
          {
            "number": 64,
            "ticks": 94545,
            "time": 103.66760765625,
            "value": 0
          },
          {
            "number": 64,
            "ticks": 94710,
            "time": 103.8485284375,
            "value": 1
          },
          {
            "number": 64,
            "ticks": 95000,
            "time": 104.16651041666665,
            "value": 0
          },
          {
            "number": 64,
            "ticks": 95160,
            "time": 104.34194875,
            "value": 1
          },
          {
            "number": 64,
            "ticks": 95990,
            "time": 105.25203510416665,
            "value": 0
          },
          {
            "number": 64,
            "ticks": 96150,
            "time": 105.4274734375,
            "value": 1
          },
          {
            "number": 64,
            "ticks": 96895,
            "time": 106.24435817708333,
            "value": 0
          },
          {
            "number": 64,
            "ticks": 96985,
            "time": 106.34304223958334,
            "value": 1
          },
          {
            "number": 64,
            "ticks": 97730,
            "time": 107.15992697916666,
            "value": 0
          },
          {
            "number": 64,
            "ticks": 97885,
            "time": 107.32988286458334,
            "value": 1
          },
          {
            "number": 64,
            "ticks": 98840,
            "time": 108.37703041666666,
            "value": 0
          },
          {
            "number": 64,
            "ticks": 98990,
            "time": 108.54150385416666,
            "value": 1
          },
          {
            "number": 64,
            "ticks": 99705,
            "time": 109.32549390624999,
            "value": 0
          },
          {
            "number": 64,
            "ticks": 99885,
            "time": 109.52286203125,
            "value": 1
          },
          {
            "number": 64,
            "ticks": 100720,
            "time": 110.43843083333333,
            "value": 0
          },
          {
            "number": 64,
            "ticks": 100875,
            "time": 110.60838671875,
            "value": 1
          },
          {
            "number": 64,
            "ticks": 101505,
            "time": 111.29917515625,
            "value": 0
          },
          {
            "number": 64,
            "ticks": 101675,
            "time": 111.48557838541666,
            "value": 1
          },
          {
            "number": 64,
            "ticks": 102700,
            "time": 112.60948020833334,
            "value": 0
          },
          {
            "number": 64,
            "ticks": 102850,
            "time": 112.77395364583333,
            "value": 1
          },
          {
            "number": 64,
            "ticks": 103565,
            "time": 113.55794369791666,
            "value": 0
          },
          {
            "number": 64,
            "ticks": 103725,
            "time": 113.73338203124999,
            "value": 1
          },
          {
            "number": 64,
            "ticks": 104085,
            "time": 114.12811828125,
            "value": 0
          },
          {
            "number": 64,
            "ticks": 104220,
            "time": 114.276144375,
            "value": 1
          },
          {
            "number": 64,
            "ticks": 104560,
            "time": 114.64895083333333,
            "value": 0
          },
          {
            "number": 64,
            "ticks": 104690,
            "time": 114.79149447916666,
            "value": 1
          },
          {
            "number": 64,
            "ticks": 105340,
            "time": 115.50421270833333,
            "value": 0
          },
          {
            "number": 64,
            "ticks": 105480,
            "time": 115.65772125,
            "value": 1
          },
          {
            "number": 64,
            "ticks": 106505,
            "time": 116.78162307291666,
            "value": 0
          },
          {
            "number": 64,
            "ticks": 106665,
            "time": 116.95706140624999,
            "value": 1
          },
          {
            "number": 64,
            "ticks": 108275,
            "time": 118.72240963541665,
            "value": 0
          },
          {
            "number": 64,
            "ticks": 108420,
            "time": 118.881400625,
            "value": 1
          },
          {
            "number": 64,
            "ticks": 110420,
            "time": 121.07437979166666,
            "value": 0
          },
          {
            "number": 64,
            "ticks": 110540,
            "time": 121.20595854166666,
            "value": 1
          },
          {
            "number": 64,
            "ticks": 111410,
            "time": 122.15990447916666,
            "value": 0
          },
          {
            "number": 64,
            "ticks": 111515,
            "time": 122.27503588541666,
            "value": 1
          },
          {
            "number": 64,
            "ticks": 112315,
            "time": 123.15222755208333,
            "value": 0
          },
          {
            "number": 64,
            "ticks": 112440,
            "time": 123.28928875,
            "value": 1
          },
          {
            "number": 64,
            "ticks": 113330,
            "time": 124.26516447916666,
            "value": 0
          },
          {
            "number": 64,
            "ticks": 113485,
            "time": 124.43512036458333,
            "value": 1
          },
          {
            "number": 64,
            "ticks": 113810,
            "time": 124.79147947916665,
            "value": 0
          },
          {
            "number": 64,
            "ticks": 113965,
            "time": 124.96143536458334,
            "value": 1
          },
          {
            "number": 64,
            "ticks": 114230,
            "time": 125.25200510416666,
            "value": 0
          },
          {
            "number": 64,
            "ticks": 114330,
            "time": 125.3616540625,
            "value": 1
          },
          {
            "number": 64,
            "ticks": 115210,
            "time": 126.32656489583333,
            "value": 0
          },
          {
            "number": 64,
            "ticks": 115310,
            "time": 126.43621385416665,
            "value": 1
          },
          {
            "number": 64,
            "ticks": 116150,
            "time": 127.35726510416666,
            "value": 0
          },
          {
            "number": 64,
            "ticks": 116245,
            "time": 127.46143161458333,
            "value": 1
          },
          {
            "number": 64,
            "ticks": 117180,
            "time": 128.48664937499998,
            "value": 0
          },
          {
            "number": 64,
            "ticks": 117310,
            "time": 128.62919302083333,
            "value": 1
          },
          {
            "number": 64,
            "ticks": 118080,
            "time": 129.47349,
            "value": 0
          },
          {
            "number": 64,
            "ticks": 118170,
            "time": 129.57217406249998,
            "value": 1
          },
          {
            "number": 64,
            "ticks": 119070,
            "time": 130.5590146875,
            "value": 0
          },
          {
            "number": 64,
            "ticks": 119215,
            "time": 130.71800567708334,
            "value": 1
          },
          {
            "number": 64,
            "ticks": 119950,
            "time": 131.52392552083333,
            "value": 0
          },
          {
            "number": 64,
            "ticks": 120095,
            "time": 131.68291651041665,
            "value": 1
          },
          {
            "number": 64,
            "ticks": 120970,
            "time": 132.64234489583333,
            "value": 0
          },
          {
            "number": 64,
            "ticks": 121080,
            "time": 132.76295875,
            "value": 1
          },
          {
            "number": 64,
            "ticks": 121490,
            "time": 133.21251947916664,
            "value": 0
          },
          {
            "number": 64,
            "ticks": 121645,
            "time": 133.38247536458334,
            "value": 1
          },
          {
            "number": 64,
            "ticks": 121835,
            "time": 133.59080838541666,
            "value": 0
          },
          {
            "number": 64,
            "ticks": 121960,
            "time": 133.72786958333333,
            "value": 1
          },
          {
            "number": 64,
            "ticks": 122865,
            "time": 134.72019265625,
            "value": 0
          },
          {
            "number": 64,
            "ticks": 123010,
            "time": 134.8791836458333,
            "value": 1
          },
          {
            "number": 64,
            "ticks": 123705,
            "time": 135.64124390625,
            "value": 0
          },
          {
            "number": 64,
            "ticks": 123880,
            "time": 135.83312958333332,
            "value": 1
          },
          {
            "number": 64,
            "ticks": 124750,
            "time": 136.78707552083333,
            "value": 0
          },
          {
            "number": 64,
            "ticks": 124870,
            "time": 136.91865427083331,
            "value": 1
          },
          {
            "number": 64,
            "ticks": 125760,
            "time": 137.89453,
            "value": 0
          },
          {
            "number": 64,
            "ticks": 125890,
            "time": 138.03707364583332,
            "value": 1
          },
          {
            "number": 64,
            "ticks": 126760,
            "time": 138.99101958333333,
            "value": 0
          },
          {
            "number": 64,
            "ticks": 126860,
            "time": 139.10066854166666,
            "value": 1
          },
          {
            "number": 64,
            "ticks": 127630,
            "time": 139.9449655208333,
            "value": 0
          },
          {
            "number": 64,
            "ticks": 127735,
            "time": 140.06009692708332,
            "value": 1
          },
          {
            "number": 64,
            "ticks": 128640,
            "time": 141.05241999999998,
            "value": 0
          },
          {
            "number": 64,
            "ticks": 128790,
            "time": 141.2168934375,
            "value": 1
          },
          {
            "number": 64,
            "ticks": 129160,
            "time": 141.62259458333332,
            "value": 0
          },
          {
            "number": 64,
            "ticks": 129315,
            "time": 141.79255046875,
            "value": 1
          },
          {
            "number": 64,
            "ticks": 129600,
            "time": 142.10505,
            "value": 0
          },
          {
            "number": 64,
            "ticks": 129675,
            "time": 142.18728671875,
            "value": 1
          },
          {
            "number": 64,
            "ticks": 130550,
            "time": 143.14671510416667,
            "value": 0
          },
          {
            "number": 64,
            "ticks": 130685,
            "time": 143.29474119791666,
            "value": 1
          },
          {
            "number": 64,
            "ticks": 131505,
            "time": 144.19386265625,
            "value": 0
          },
          {
            "number": 64,
            "ticks": 131620,
            "time": 144.31995895833333,
            "value": 1
          },
          {
            "number": 64,
            "ticks": 132465,
            "time": 145.24649265624998,
            "value": 0
          },
          {
            "number": 64,
            "ticks": 132625,
            "time": 145.42193098958333,
            "value": 1
          },
          {
            "number": 64,
            "ticks": 133430,
            "time": 146.30460510416668,
            "value": 0
          },
          {
            "number": 64,
            "ticks": 133565,
            "time": 146.45263119791667,
            "value": 1
          },
          {
            "number": 64,
            "ticks": 135310,
            "time": 148.3660055208333,
            "value": 0
          },
          {
            "number": 64,
            "ticks": 135450,
            "time": 148.51951406249998,
            "value": 1
          },
          {
            "number": 64,
            "ticks": 136370,
            "time": 149.52828447916667,
            "value": 0
          },
          {
            "number": 64,
            "ticks": 136525,
            "time": 149.6982403645833,
            "value": 1
          },
          {
            "number": 64,
            "ticks": 136850,
            "time": 150.05459947916668,
            "value": 0
          },
          {
            "number": 64,
            "ticks": 137005,
            "time": 150.22455536458332,
            "value": 1
          },
          {
            "number": 64,
            "ticks": 137255,
            "time": 150.49867776041668,
            "value": 0
          },
          {
            "number": 64,
            "ticks": 137420,
            "time": 150.67959854166668,
            "value": 1
          },
          {
            "number": 64,
            "ticks": 138250,
            "time": 151.58968489583333,
            "value": 0
          },
          {
            "number": 64,
            "ticks": 138365,
            "time": 151.71578119791667,
            "value": 1
          },
          {
            "number": 64,
            "ticks": 139150,
            "time": 152.57652552083331,
            "value": 0
          },
          {
            "number": 64,
            "ticks": 139340,
            "time": 152.78485854166667,
            "value": 1
          },
          {
            "number": 64,
            "ticks": 141130,
            "time": 154.7475748958333,
            "value": 0
          },
          {
            "number": 64,
            "ticks": 147925,
            "time": 162.1982216145833,
            "value": 1
          },
          {
            "number": 64,
            "ticks": 148810,
            "time": 163.16861489583331,
            "value": 0
          },
          {
            "number": 64,
            "ticks": 151740,
            "time": 166.38132937499998,
            "value": 1
          },
          {
            "number": 64,
            "ticks": 152585,
            "time": 167.30786307291666,
            "value": 0
          },
          {
            "number": 64,
            "ticks": 155630,
            "time": 170.64667385416666,
            "value": 1
          },
          {
            "number": 64,
            "ticks": 156485,
            "time": 171.58417244791667,
            "value": 0
          },
          {
            "number": 64,
            "ticks": 156620,
            "time": 171.73219854166666,
            "value": 1
          },
          {
            "number": 64,
            "ticks": 158395,
            "time": 173.6784675520833,
            "value": 0
          },
          {
            "number": 64,
            "ticks": 158520,
            "time": 173.81552875,
            "value": 1
          },
          {
            "number": 64,
            "ticks": 159410,
            "time": 174.79140447916666,
            "value": 0
          },
          {
            "number": 64,
            "ticks": 159565,
            "time": 174.96136036458333,
            "value": 1
          },
          {
            "number": 64,
            "ticks": 159890,
            "time": 175.31771947916667,
            "value": 0
          },
          {
            "number": 64,
            "ticks": 160045,
            "time": 175.4876753645833,
            "value": 1
          },
          {
            "number": 64,
            "ticks": 160310,
            "time": 175.77824510416667,
            "value": 0
          },
          {
            "number": 64,
            "ticks": 160410,
            "time": 175.88789406249998,
            "value": 1
          },
          {
            "number": 64,
            "ticks": 161290,
            "time": 176.85280489583332,
            "value": 0
          },
          {
            "number": 64,
            "ticks": 161390,
            "time": 176.96245385416668,
            "value": 1
          },
          {
            "number": 64,
            "ticks": 162230,
            "time": 177.88350510416666,
            "value": 0
          },
          {
            "number": 64,
            "ticks": 162325,
            "time": 177.98767161458332,
            "value": 1
          },
          {
            "number": 64,
            "ticks": 163260,
            "time": 179.012889375,
            "value": 0
          },
          {
            "number": 64,
            "ticks": 163390,
            "time": 179.15543302083333,
            "value": 1
          },
          {
            "number": 64,
            "ticks": 164160,
            "time": 179.99973,
            "value": 0
          },
          {
            "number": 64,
            "ticks": 164250,
            "time": 180.09841406249998,
            "value": 1
          },
          {
            "number": 64,
            "ticks": 166030,
            "time": 182.0501655208333,
            "value": 0
          },
          {
            "number": 64,
            "ticks": 166175,
            "time": 182.20915651041668,
            "value": 1
          },
          {
            "number": 64,
            "ticks": 167050,
            "time": 183.1685848958333,
            "value": 0
          },
          {
            "number": 64,
            "ticks": 167160,
            "time": 183.28919875,
            "value": 1
          },
          {
            "number": 64,
            "ticks": 167570,
            "time": 183.73875947916667,
            "value": 0
          },
          {
            "number": 64,
            "ticks": 167725,
            "time": 183.90871536458332,
            "value": 1
          },
          {
            "number": 64,
            "ticks": 167915,
            "time": 184.11704838541667,
            "value": 0
          },
          {
            "number": 64,
            "ticks": 168040,
            "time": 184.2541095833333,
            "value": 1
          },
          {
            "number": 64,
            "ticks": 168945,
            "time": 185.24643265625,
            "value": 0
          },
          {
            "number": 64,
            "ticks": 169090,
            "time": 185.4054236458333,
            "value": 1
          },
          {
            "number": 64,
            "ticks": 169785,
            "time": 186.16748390625,
            "value": 0
          },
          {
            "number": 64,
            "ticks": 169960,
            "time": 186.35936958333332,
            "value": 1
          },
          {
            "number": 64,
            "ticks": 170830,
            "time": 187.31331552083333,
            "value": 0
          },
          {
            "number": 64,
            "ticks": 170950,
            "time": 187.44489427083332,
            "value": 1
          },
          {
            "number": 64,
            "ticks": 171850,
            "time": 188.4317348958333,
            "value": 0
          },
          {
            "number": 64,
            "ticks": 171980,
            "time": 188.57427854166667,
            "value": 1
          },
          {
            "number": 64,
            "ticks": 173755,
            "time": 190.52054755208331,
            "value": 0
          },
          {
            "number": 64,
            "ticks": 174010,
            "time": 190.80015239583332,
            "value": 1
          },
          {
            "number": 64,
            "ticks": 175670,
            "time": 192.62032510416668,
            "value": 0
          },
          {
            "number": 64,
            "ticks": 175770,
            "time": 192.7299740625,
            "value": 1
          },
          {
            "number": 64,
            "ticks": 177590,
            "time": 194.72558510416667,
            "value": 0
          },
          {
            "number": 64,
            "ticks": 177685,
            "time": 194.8297516145833,
            "value": 1
          },
          {
            "number": 64,
            "ticks": 178620,
            "time": 195.854969375,
            "value": 0
          },
          {
            "number": 64,
            "ticks": 178750,
            "time": 195.9975130208333,
            "value": 1
          },
          {
            "number": 64,
            "ticks": 179520,
            "time": 196.84180999999998,
            "value": 0
          },
          {
            "number": 64,
            "ticks": 179610,
            "time": 196.9404940625,
            "value": 1
          },
          {
            "number": 64,
            "ticks": 181450,
            "time": 198.95803489583332,
            "value": 0
          },
          {
            "number": 64,
            "ticks": 181690,
            "time": 199.22119239583333,
            "value": 1
          },
          {
            "number": 64,
            "ticks": 183275,
            "time": 200.95912838541668,
            "value": 0
          },
          {
            "number": 64,
            "ticks": 183480,
            "time": 201.18390875,
            "value": 1
          },
          {
            "number": 64,
            "ticks": 186190,
            "time": 204.1553955208333,
            "value": 0
          },
          {
            "number": 64,
            "ticks": 186310,
            "time": 204.28697427083333,
            "value": 1
          },
          {
            "number": 64,
            "ticks": 187200,
            "time": 205.26285,
            "value": 0
          },
          {
            "number": 64,
            "ticks": 187330,
            "time": 205.40539364583333,
            "value": 1
          },
          {
            "number": 64,
            "ticks": 189070,
            "time": 207.31328552083332,
            "value": 0
          },
          {
            "number": 64,
            "ticks": 189370,
            "time": 207.6422323958333,
            "value": 1
          },
          {
            "number": 64,
            "ticks": 191040,
            "time": 209.47337,
            "value": 0
          },
          {
            "number": 64,
            "ticks": 191140,
            "time": 209.58301895833333,
            "value": 1
          },
          {
            "number": 64,
            "ticks": 192945,
            "time": 211.56218265625,
            "value": 0
          },
          {
            "number": 64,
            "ticks": 193060,
            "time": 211.6882789583333,
            "value": 1
          },
          {
            "number": 64,
            "ticks": 193905,
            "time": 212.61481265625,
            "value": 0
          },
          {
            "number": 64,
            "ticks": 194065,
            "time": 212.7902509895833,
            "value": 1
          },
          {
            "number": 64,
            "ticks": 194870,
            "time": 213.67292510416667,
            "value": 0
          },
          {
            "number": 64,
            "ticks": 195005,
            "time": 213.82095119791666,
            "value": 1
          },
          {
            "number": 64,
            "ticks": 196750,
            "time": 215.73432552083332,
            "value": 0
          },
          {
            "number": 64,
            "ticks": 196890,
            "time": 215.8878340625,
            "value": 1
          },
          {
            "number": 64,
            "ticks": 197810,
            "time": 216.89660447916665,
            "value": 0
          },
          {
            "number": 64,
            "ticks": 197965,
            "time": 217.06656036458332,
            "value": 1
          },
          {
            "number": 64,
            "ticks": 198290,
            "time": 217.42291947916667,
            "value": 0
          },
          {
            "number": 64,
            "ticks": 198445,
            "time": 217.5928753645833,
            "value": 1
          },
          {
            "number": 64,
            "ticks": 198695,
            "time": 217.86699776041667,
            "value": 0
          },
          {
            "number": 64,
            "ticks": 198860,
            "time": 218.04791854166666,
            "value": 1
          },
          {
            "number": 64,
            "ticks": 199690,
            "time": 218.9580048958333,
            "value": 0
          },
          {
            "number": 64,
            "ticks": 199805,
            "time": 219.08410119791668,
            "value": 1
          },
          {
            "number": 64,
            "ticks": 200590,
            "time": 219.94484552083333,
            "value": 0
          },
          {
            "number": 64,
            "ticks": 200780,
            "time": 220.15317854166668,
            "value": 1
          },
          {
            "number": 64,
            "ticks": 202570,
            "time": 222.11589489583332,
            "value": 0
          },
          {
            "number": 64,
            "ticks": 202680,
            "time": 222.23650874999998,
            "value": 1
          },
          {
            "number": 64,
            "ticks": 217665,
            "time": 238.66740515625,
            "value": 0
          }
        ],
        "91": [
          {
            "number": 91,
            "ticks": 550,
            "time": 0.6030692708333333,
            "value": 0.1968503937007874
          }
        ],
        "93": [
          {
            "number": 93,
            "ticks": 550,
            "time": 0.6030692708333333,
            "value": 0
          }
        ]
      },
      "pitchBends": [],
      "instrument": {
        "family": "piano",
        "number": 0,
        "name": "acoustic grand piano"
      },
      "name": "Merry Christmas Mr.Lawrence",
      "notes": [
        {
          "duration": 2.7467064062499995,
          "durationTicks": 2505,
          "midi": 78,
          "name": "F#5",
          "ticks": 2880,
          "time": 3.15789,
          "velocity": 0.5669291338582677
        },
        {
          "duration": 2.81249578125,
          "durationTicks": 2565,
          "midi": 80,
          "name": "G#5",
          "ticks": 2880,
          "time": 3.15789,
          "velocity": 0.5669291338582677
        },
        {
          "duration": 2.7412239583333333,
          "durationTicks": 2500,
          "midi": 85,
          "name": "C#6",
          "ticks": 2880,
          "time": 3.15789,
          "velocity": 0.5354330708661418
        },
        {
          "duration": 2.801530885416666,
          "durationTicks": 2555,
          "midi": 78,
          "name": "F#5",
          "ticks": 5760,
          "time": 6.31578,
          "velocity": 0.5118110236220472
        },
        {
          "duration": 2.8563553645833313,
          "durationTicks": 2605,
          "midi": 80,
          "name": "G#5",
          "ticks": 5760,
          "time": 6.31578,
          "velocity": 0.5511811023622047
        },
        {
          "duration": 2.8289431249999986,
          "durationTicks": 2580,
          "midi": 84,
          "name": "C6",
          "ticks": 5760,
          "time": 6.31578,
          "velocity": 0.48031496062992124
        },
        {
          "duration": 2.6315749999999998,
          "durationTicks": 2400,
          "midi": 77,
          "name": "F5",
          "ticks": 8640,
          "time": 9.47367,
          "velocity": 0.5590551181102362
        },
        {
          "duration": 2.6206101041666674,
          "durationTicks": 2390,
          "midi": 80,
          "name": "G#5",
          "ticks": 8640,
          "time": 9.47367,
          "velocity": 0.6062992125984252
        },
        {
          "duration": 2.516443593749999,
          "durationTicks": 2295,
          "midi": 84,
          "name": "C6",
          "ticks": 8640,
          "time": 9.47367,
          "velocity": 0.5511811023622047
        },
        {
          "duration": 0.882674114583331,
          "durationTicks": 805,
          "midi": 70,
          "name": "A#4",
          "ticks": 11520,
          "time": 12.63156,
          "velocity": 0.48031496062992124
        },
        {
          "duration": 0.7949549479166667,
          "durationTicks": 725,
          "midi": 77,
          "name": "F5",
          "ticks": 11520,
          "time": 12.63156,
          "velocity": 0.6535433070866141
        },
        {
          "duration": 0.7730251562499983,
          "durationTicks": 705,
          "midi": 80,
          "name": "G#5",
          "ticks": 11520,
          "time": 12.63156,
          "velocity": 0.5039370078740157
        },
        {
          "duration": 0.7949549479166667,
          "durationTicks": 725,
          "midi": 84,
          "name": "C6",
          "ticks": 11520,
          "time": 12.63156,
          "velocity": 0.6535433070866141
        },
        {
          "duration": 1.014252864583332,
          "durationTicks": 925,
          "midi": 68,
          "name": "G#4",
          "ticks": 12960,
          "time": 14.210505,
          "velocity": 0.5433070866141733
        },
        {
          "duration": 1.0745597916666672,
          "durationTicks": 980,
          "midi": 73,
          "name": "C#5",
          "ticks": 12960,
          "time": 14.210505,
          "velocity": 0.5905511811023622
        },
        {
          "duration": 1.0471475520833327,
          "durationTicks": 955,
          "midi": 77,
          "name": "F5",
          "ticks": 12960,
          "time": 14.210505,
          "velocity": 0.48031496062992124
        },
        {
          "duration": 2.7850835416666655,
          "durationTicks": 2540,
          "midi": 78,
          "name": "F#5",
          "ticks": 14400,
          "time": 15.789449999999999,
          "velocity": 0.4645669291338583
        },
        {
          "duration": 2.741223958333336,
          "durationTicks": 2500,
          "midi": 80,
          "name": "G#5",
          "ticks": 14400,
          "time": 15.789449999999999,
          "velocity": 0.5196850393700787
        },
        {
          "duration": 2.81249578125,
          "durationTicks": 2565,
          "midi": 85,
          "name": "C#6",
          "ticks": 14400,
          "time": 15.789449999999999,
          "velocity": 0.5354330708661418
        },
        {
          "duration": 2.801530885416664,
          "durationTicks": 2555,
          "midi": 78,
          "name": "F#5",
          "ticks": 17280,
          "time": 18.94734,
          "velocity": 0.5511811023622047
        },
        {
          "duration": 3.009863906249997,
          "durationTicks": 2745,
          "midi": 80,
          "name": "G#5",
          "ticks": 17280,
          "time": 18.94734,
          "velocity": 0.4881889763779528
        },
        {
          "duration": 2.845390468749997,
          "durationTicks": 2595,
          "midi": 84,
          "name": "C6",
          "ticks": 17280,
          "time": 18.94734,
          "velocity": 0.5275590551181102
        },
        {
          "duration": 2.6315750000000016,
          "durationTicks": 2400,
          "midi": 77,
          "name": "F5",
          "ticks": 20160,
          "time": 22.10523,
          "velocity": 0.4094488188976378
        },
        {
          "duration": 2.6206101041666656,
          "durationTicks": 2390,
          "midi": 80,
          "name": "G#5",
          "ticks": 20160,
          "time": 22.10523,
          "velocity": 0.3700787401574803
        },
        {
          "duration": 2.5328909374999995,
          "durationTicks": 2310,
          "midi": 84,
          "name": "C6",
          "ticks": 20160,
          "time": 22.10523,
          "velocity": 0.5039370078740157
        },
        {
          "duration": 2.7467064062499986,
          "durationTicks": 2505,
          "midi": 70,
          "name": "A#4",
          "ticks": 23040,
          "time": 25.26312,
          "velocity": 0.44881889763779526
        },
        {
          "duration": 2.675434583333331,
          "durationTicks": 2440,
          "midi": 77,
          "name": "F5",
          "ticks": 23040,
          "time": 25.26312,
          "velocity": 0.5826771653543307
        },
        {
          "duration": 2.6480223437499966,
          "durationTicks": 2415,
          "midi": 80,
          "name": "G#5",
          "ticks": 23040,
          "time": 25.26312,
          "velocity": 0.3543307086614173
        },
        {
          "duration": 2.6151276562499994,
          "durationTicks": 2385,
          "midi": 84,
          "name": "C6",
          "ticks": 23040,
          "time": 25.26312,
          "velocity": 0.5826771653543307
        },
        {
          "duration": 2.801530885416664,
          "durationTicks": 2555,
          "midi": 66,
          "name": "F#4",
          "ticks": 25920,
          "time": 28.42101,
          "velocity": 0.2677165354330709
        },
        {
          "duration": 2.955039427083335,
          "durationTicks": 2695,
          "midi": 68,
          "name": "G#4",
          "ticks": 25920,
          "time": 28.42101,
          "velocity": 0.5196850393700787
        },
        {
          "duration": 2.7905659895833352,
          "durationTicks": 2545,
          "midi": 73,
          "name": "C#5",
          "ticks": 25920,
          "time": 28.42101,
          "velocity": 0.6535433070866141
        },
        {
          "duration": 2.856355364583333,
          "durationTicks": 2605,
          "midi": 77,
          "name": "F5",
          "ticks": 25920,
          "time": 28.42101,
          "velocity": 0.47244094488188976
        },
        {
          "duration": 2.6589872395833325,
          "durationTicks": 2425,
          "midi": 66,
          "name": "F#4",
          "ticks": 28800,
          "time": 31.578899999999997,
          "velocity": 0.5118110236220472
        },
        {
          "duration": 2.741223958333329,
          "durationTicks": 2500,
          "midi": 72,
          "name": "C5",
          "ticks": 28800,
          "time": 31.578899999999997,
          "velocity": 0.7165354330708661
        },
        {
          "duration": 2.686399479166667,
          "durationTicks": 2450,
          "midi": 77,
          "name": "F5",
          "ticks": 28800,
          "time": 31.578899999999997,
          "velocity": 0.5196850393700787
        },
        {
          "duration": 2.6754345833333275,
          "durationTicks": 2440,
          "midi": 65,
          "name": "F4",
          "ticks": 31680,
          "time": 34.73679,
          "velocity": 0.4330708661417323
        },
        {
          "duration": 2.7083292708333317,
          "durationTicks": 2470,
          "midi": 68,
          "name": "G#4",
          "ticks": 31680,
          "time": 34.73679,
          "velocity": 0.5669291338582677
        },
        {
          "duration": 2.576750520833329,
          "durationTicks": 2350,
          "midi": 72,
          "name": "C5",
          "ticks": 31680,
          "time": 34.73679,
          "velocity": 0.5669291338582677
        },
        {
          "duration": 2.6589872395833325,
          "durationTicks": 2425,
          "midi": 75,
          "name": "D#5",
          "ticks": 31680,
          "time": 34.73679,
          "velocity": 0.4881889763779528
        },
        {
          "duration": 1.008770416666664,
          "durationTicks": 920,
          "midi": 70,
          "name": "A#4",
          "ticks": 34560,
          "time": 37.89468,
          "velocity": 0.4330708661417323
        },
        {
          "duration": 0.93749859375,
          "durationTicks": 855,
          "midi": 73,
          "name": "C#5",
          "ticks": 34560,
          "time": 37.89468,
          "velocity": 0.6062992125984252
        },
        {
          "duration": 0.93749859375,
          "durationTicks": 855,
          "midi": 77,
          "name": "F5",
          "ticks": 34560,
          "time": 37.89468,
          "velocity": 0.6062992125984252
        },
        {
          "duration": 0.5427623437499989,
          "durationTicks": 495,
          "midi": 84,
          "name": "C6",
          "ticks": 34560,
          "time": 37.89468,
          "velocity": 0.48031496062992124
        },
        {
          "duration": 1.1293842708333273,
          "durationTicks": 1030,
          "midi": 68,
          "name": "G#4",
          "ticks": 36000,
          "time": 39.473625,
          "velocity": 0.5196850393700787
        },
        {
          "duration": 1.189691197916666,
          "durationTicks": 1085,
          "midi": 73,
          "name": "C#5",
          "ticks": 36000,
          "time": 39.473625,
          "velocity": 0.5196850393700787
        },
        {
          "duration": 0.7127182291666685,
          "durationTicks": 650,
          "midi": 77,
          "name": "F5",
          "ticks": 36000,
          "time": 39.473625,
          "velocity": 0.4015748031496063
        },
        {
          "duration": 2.867320260416669,
          "durationTicks": 2615,
          "midi": 66,
          "name": "F#4",
          "ticks": 37440,
          "time": 41.052569999999996,
          "velocity": 0.30708661417322836
        },
        {
          "duration": 2.834425572916672,
          "durationTicks": 2585,
          "midi": 68,
          "name": "G#4",
          "ticks": 37440,
          "time": 41.052569999999996,
          "velocity": 0.5748031496062992
        },
        {
          "duration": 2.828943125000002,
          "durationTicks": 2580,
          "midi": 73,
          "name": "C#5",
          "ticks": 37440,
          "time": 41.052569999999996,
          "velocity": 0.5905511811023622
        },
        {
          "duration": 2.883767604166671,
          "durationTicks": 2630,
          "midi": 77,
          "name": "F5",
          "ticks": 37440,
          "time": 41.052569999999996,
          "velocity": 0.47244094488188976
        },
        {
          "duration": 2.790565989583328,
          "durationTicks": 2545,
          "midi": 66,
          "name": "F#4",
          "ticks": 40320,
          "time": 44.21046,
          "velocity": 0.4330708661417323
        },
        {
          "duration": 2.9166622916666682,
          "durationTicks": 2660,
          "midi": 72,
          "name": "C5",
          "ticks": 40320,
          "time": 44.21046,
          "velocity": 0.6535433070866141
        },
        {
          "duration": 2.8234606770833324,
          "durationTicks": 2575,
          "midi": 77,
          "name": "F5",
          "ticks": 40320,
          "time": 44.21046,
          "velocity": 0.5196850393700787
        },
        {
          "duration": 2.6206101041666656,
          "durationTicks": 2390,
          "midi": 65,
          "name": "F4",
          "ticks": 43200,
          "time": 47.36835,
          "velocity": 0.4251968503937008
        },
        {
          "duration": 2.631574999999998,
          "durationTicks": 2400,
          "midi": 68,
          "name": "G#4",
          "ticks": 43200,
          "time": 47.36835,
          "velocity": 0.6062992125984252
        },
        {
          "duration": 2.5657856249999966,
          "durationTicks": 2340,
          "midi": 72,
          "name": "C5",
          "ticks": 43200,
          "time": 47.36835,
          "velocity": 0.5196850393700787
        },
        {
          "duration": 2.6260925520833283,
          "durationTicks": 2395,
          "midi": 75,
          "name": "D#5",
          "ticks": 43200,
          "time": 47.36835,
          "velocity": 0.5196850393700787
        },
        {
          "duration": 1.2280683333333258,
          "durationTicks": 1120,
          "midi": 70,
          "name": "A#4",
          "ticks": 46080,
          "time": 50.52624,
          "velocity": 0.5354330708661418
        },
        {
          "duration": 1.0745597916666654,
          "durationTicks": 980,
          "midi": 77,
          "name": "F5",
          "ticks": 46080,
          "time": 50.52624,
          "velocity": 0.5354330708661418
        },
        {
          "duration": 1.080042239583328,
          "durationTicks": 985,
          "midi": 84,
          "name": "C6",
          "ticks": 46080,
          "time": 50.52624,
          "velocity": 0.4566929133858268
        },
        {
          "duration": 0.09320161458332876,
          "durationTicks": 85,
          "midi": 60,
          "name": "C4",
          "ticks": 47520,
          "time": 52.105185,
          "velocity": 0.6535433070866141
        },
        {
          "duration": 0.07675427083333375,
          "durationTicks": 70,
          "midi": 58,
          "name": "A#3",
          "ticks": 47760,
          "time": 52.3683425,
          "velocity": 0.4881889763779528
        },
        {
          "duration": 0.06030692708333163,
          "durationTicks": 55,
          "midi": 56,
          "name": "G#3",
          "ticks": 48000,
          "time": 52.631499999999996,
          "velocity": 0.47244094488188976
        },
        {
          "duration": 0.07675427083332664,
          "durationTicks": 70,
          "midi": 53,
          "name": "F3",
          "ticks": 48240,
          "time": 52.8946575,
          "velocity": 0.6299212598425197
        },
        {
          "duration": 0.04934203124999925,
          "durationTicks": 45,
          "midi": 51,
          "name": "D#3",
          "ticks": 48480,
          "time": 53.157815,
          "velocity": 0.5118110236220472
        },
        {
          "duration": 0.06030692708333163,
          "durationTicks": 55,
          "midi": 49,
          "name": "C#3",
          "ticks": 48720,
          "time": 53.4209725,
          "velocity": 0.4566929133858268
        },
        {
          "duration": 1.4583311458333341,
          "durationTicks": 1330,
          "midi": 42,
          "name": "F#2",
          "ticks": 48960,
          "time": 53.684129999999996,
          "velocity": 0.5748031496062992
        },
        {
          "duration": 0.42763093749999825,
          "durationTicks": 390,
          "midi": 49,
          "name": "C#3",
          "ticks": 49440,
          "time": 54.210445,
          "velocity": 0.47244094488188976
        },
        {
          "duration": 0.4495607291666701,
          "durationTicks": 410,
          "midi": 54,
          "name": "F#3",
          "ticks": 49920,
          "time": 54.73676,
          "velocity": 0.41732283464566927
        },
        {
          "duration": 1.3212699479166687,
          "durationTicks": 1205,
          "midi": 44,
          "name": "G#2",
          "ticks": 50880,
          "time": 55.78939,
          "velocity": 0.6062992125984252
        },
        {
          "duration": 0.28508729166667024,
          "durationTicks": 260,
          "midi": 51,
          "name": "D#3",
          "ticks": 51360,
          "time": 56.315704999999994,
          "velocity": 0.5354330708661418
        },
        {
          "duration": 0.2796048437500005,
          "durationTicks": 255,
          "midi": 56,
          "name": "G#3",
          "ticks": 51840,
          "time": 56.84202,
          "velocity": 0.5196850393700787
        },
        {
          "duration": 0.25767505208333574,
          "durationTicks": 235,
          "midi": 44,
          "name": "G#2",
          "ticks": 52320,
          "time": 57.368334999999995,
          "velocity": 0.7007874015748031
        },
        {
          "duration": 1.370611979166668,
          "durationTicks": 1250,
          "midi": 46,
          "name": "A#2",
          "ticks": 52800,
          "time": 57.89465,
          "velocity": 0.5118110236220472
        },
        {
          "duration": 1.0416651041666682,
          "durationTicks": 950,
          "midi": 53,
          "name": "F3",
          "ticks": 53280,
          "time": 58.420964999999995,
          "velocity": 0.6299212598425197
        },
        {
          "duration": 0.27412239583333076,
          "durationTicks": 250,
          "midi": 46,
          "name": "A#2",
          "ticks": 54720,
          "time": 59.99991,
          "velocity": 0.6377952755905512
        },
        {
          "duration": 0.2796048437500005,
          "durationTicks": 255,
          "midi": 53,
          "name": "F3",
          "ticks": 54960,
          "time": 60.2630675,
          "velocity": 0.6692913385826772
        },
        {
          "duration": 0.23026281250000125,
          "durationTicks": 210,
          "midi": 58,
          "name": "A#3",
          "ticks": 55200,
          "time": 60.526225,
          "velocity": 0.5118110236220472
        },
        {
          "duration": 0.23026281249999414,
          "durationTicks": 210,
          "midi": 56,
          "name": "G#3",
          "ticks": 55680,
          "time": 61.05254,
          "velocity": 0.6220472440944882
        },
        {
          "duration": 0.31249953124999763,
          "durationTicks": 285,
          "midi": 53,
          "name": "F3",
          "ticks": 55920,
          "time": 61.3156975,
          "velocity": 0.6929133858267716
        },
        {
          "duration": 0.15899098958333013,
          "durationTicks": 145,
          "midi": 44,
          "name": "G#2",
          "ticks": 56160,
          "time": 61.578855,
          "velocity": 0.6220472440944882
        },
        {
          "duration": 1.1293842708333344,
          "durationTicks": 1030,
          "midi": 42,
          "name": "F#2",
          "ticks": 56640,
          "time": 62.105169999999994,
          "velocity": 0.5433070866141733
        },
        {
          "duration": 0.4769729687499975,
          "durationTicks": 435,
          "midi": 49,
          "name": "C#3",
          "ticks": 57120,
          "time": 62.631485,
          "velocity": 0.5354330708661418
        },
        {
          "duration": 0.2247803645833315,
          "durationTicks": 205,
          "midi": 54,
          "name": "F#3",
          "ticks": 57600,
          "time": 63.157799999999995,
          "velocity": 0.3937007874015748
        },
        {
          "duration": 1.441883802083325,
          "durationTicks": 1315,
          "midi": 44,
          "name": "G#2",
          "ticks": 58560,
          "time": 64.21043,
          "velocity": 0.6850393700787402
        },
        {
          "duration": 0.23026281250000125,
          "durationTicks": 210,
          "midi": 51,
          "name": "D#3",
          "ticks": 59040,
          "time": 64.736745,
          "velocity": 0.5748031496062992
        },
        {
          "duration": 0.3179819791666745,
          "durationTicks": 290,
          "midi": 54,
          "name": "F#3",
          "ticks": 59520,
          "time": 65.26306,
          "velocity": 0.6062992125984252
        },
        {
          "duration": 0.2357452604166781,
          "durationTicks": 215,
          "midi": 44,
          "name": "G#2",
          "ticks": 60000,
          "time": 65.78937499999999,
          "velocity": 0.6850393700787402
        },
        {
          "duration": 1.6831115104166514,
          "durationTicks": 1535,
          "midi": 46,
          "name": "A#2",
          "ticks": 60480,
          "time": 66.31569,
          "velocity": 0.4881889763779528
        },
        {
          "duration": 0.2247803645833244,
          "durationTicks": 205,
          "midi": 53,
          "name": "F3",
          "ticks": 60960,
          "time": 66.842005,
          "velocity": 0.6692913385826772
        },
        {
          "duration": 0.471490520833342,
          "durationTicks": 430,
          "midi": 44,
          "name": "G#2",
          "ticks": 63360,
          "time": 69.47358,
          "velocity": 0.31496062992125984
        },
        {
          "duration": 0.4057011458333335,
          "durationTicks": 370,
          "midi": 51,
          "name": "D#3",
          "ticks": 63360,
          "time": 69.47358,
          "velocity": 0.2677165354330709
        },
        {
          "duration": 1.2116209895833379,
          "durationTicks": 1105,
          "midi": 42,
          "name": "F#2",
          "ticks": 64320,
          "time": 70.52620999999999,
          "velocity": 0.6062992125984252
        },
        {
          "duration": 0.4660080729166509,
          "durationTicks": 425,
          "midi": 49,
          "name": "C#3",
          "ticks": 64800,
          "time": 71.052525,
          "velocity": 0.5511811023622047
        },
        {
          "duration": 0.30153463541665815,
          "durationTicks": 275,
          "midi": 56,
          "name": "G#3",
          "ticks": 65280,
          "time": 71.57884,
          "velocity": 0.4409448818897638
        },
        {
          "duration": 0.11513140625000062,
          "durationTicks": 105,
          "midi": 42,
          "name": "F#2",
          "ticks": 65760,
          "time": 72.105155,
          "velocity": 0.7480314960629921
        },
        {
          "duration": 1.392541770833347,
          "durationTicks": 1270,
          "midi": 44,
          "name": "G#2",
          "ticks": 66240,
          "time": 72.63147,
          "velocity": 0.6377952755905512
        },
        {
          "duration": 0.24122770833334073,
          "durationTicks": 220,
          "midi": 51,
          "name": "D#3",
          "ticks": 66720,
          "time": 73.15778499999999,
          "velocity": 0.5118110236220472
        },
        {
          "duration": 0.2521926041666518,
          "durationTicks": 230,
          "midi": 54,
          "name": "F#3",
          "ticks": 67200,
          "time": 73.6841,
          "velocity": 0.6220472440944882
        },
        {
          "duration": 0.24122770833334073,
          "durationTicks": 220,
          "midi": 44,
          "name": "G#2",
          "ticks": 67680,
          "time": 74.210415,
          "velocity": 0.84251968503937
        },
        {
          "duration": 1.282892812500009,
          "durationTicks": 1170,
          "midi": 46,
          "name": "A#2",
          "ticks": 68160,
          "time": 74.73673,
          "velocity": 0.5511811023622047
        },
        {
          "duration": 0.921051250000005,
          "durationTicks": 840,
          "midi": 53,
          "name": "F3",
          "ticks": 68640,
          "time": 75.26304499999999,
          "velocity": 0.6535433070866141
        },
        {
          "duration": 0.24671015625000337,
          "durationTicks": 225,
          "midi": 53,
          "name": "F3",
          "ticks": 69840,
          "time": 76.57883249999999,
          "velocity": 0.6692913385826772
        },
        {
          "duration": 0.21381546874999913,
          "durationTicks": 195,
          "midi": 46,
          "name": "A#2",
          "ticks": 70080,
          "time": 76.84199,
          "velocity": 0.7244094488188977
        },
        {
          "duration": 0.23026281250000125,
          "durationTicks": 210,
          "midi": 53,
          "name": "F3",
          "ticks": 70320,
          "time": 77.1051475,
          "velocity": 0.6692913385826772
        },
        {
          "duration": 0.2083330208333365,
          "durationTicks": 190,
          "midi": 58,
          "name": "A#3",
          "ticks": 70560,
          "time": 77.36830499999999,
          "velocity": 0.6377952755905512
        },
        {
          "duration": 0.21381546874999913,
          "durationTicks": 195,
          "midi": 56,
          "name": "G#3",
          "ticks": 71040,
          "time": 77.89462,
          "velocity": 0.6535433070866141
        },
        {
          "duration": 0.30153463541665815,
          "durationTicks": 275,
          "midi": 53,
          "name": "F3",
          "ticks": 71280,
          "time": 78.1577775,
          "velocity": 0.7007874015748031
        },
        {
          "duration": 0.13157875000000274,
          "durationTicks": 120,
          "midi": 44,
          "name": "G#2",
          "ticks": 71520,
          "time": 78.420935,
          "velocity": 0.6692913385826772
        },
        {
          "duration": 1.4747784895833433,
          "durationTicks": 1345,
          "midi": 42,
          "name": "F#2",
          "ticks": 72000,
          "time": 78.94725,
          "velocity": 0.6377952755905512
        },
        {
          "duration": 1.2335507812500026,
          "durationTicks": 1125,
          "midi": 49,
          "name": "C#3",
          "ticks": 72480,
          "time": 79.473565,
          "velocity": 0.5118110236220472
        },
        {
          "duration": 0.668858645833339,
          "durationTicks": 610,
          "midi": 54,
          "name": "F#3",
          "ticks": 72960,
          "time": 79.99987999999999,
          "velocity": 0.4409448818897638
        },
        {
          "duration": 0.1809207812499949,
          "durationTicks": 165,
          "midi": 42,
          "name": "F#2",
          "ticks": 73440,
          "time": 80.526195,
          "velocity": 0.7480314960629921
        },
        {
          "duration": 1.403506666666658,
          "durationTicks": 1280,
          "midi": 44,
          "name": "G#2",
          "ticks": 73920,
          "time": 81.05251,
          "velocity": 0.7244094488188977
        },
        {
          "duration": 0.2631575000000055,
          "durationTicks": 240,
          "midi": 51,
          "name": "D#3",
          "ticks": 74400,
          "time": 81.578825,
          "velocity": 0.5196850393700787
        },
        {
          "duration": 0.2686399479166681,
          "durationTicks": 245,
          "midi": 54,
          "name": "F#3",
          "ticks": 74880,
          "time": 82.10513999999999,
          "velocity": 0.5669291338582677
        },
        {
          "duration": 0.2631575000000055,
          "durationTicks": 240,
          "midi": 51,
          "name": "D#3",
          "ticks": 75120,
          "time": 82.3682975,
          "velocity": 0.5196850393700787
        },
        {
          "duration": 0.197368124999997,
          "durationTicks": 180,
          "midi": 44,
          "name": "G#2",
          "ticks": 75360,
          "time": 82.631455,
          "velocity": 0.7874015748031497
        },
        {
          "duration": 1.2719279166666553,
          "durationTicks": 1160,
          "midi": 46,
          "name": "A#2",
          "ticks": 75840,
          "time": 83.15777,
          "velocity": 0.49606299212598426
        },
        {
          "duration": 0.8388145312499944,
          "durationTicks": 765,
          "midi": 53,
          "name": "F3",
          "ticks": 76320,
          "time": 83.684085,
          "velocity": 0.6771653543307087
        },
        {
          "duration": 0.17543833333334646,
          "durationTicks": 160,
          "midi": 53,
          "name": "F3",
          "ticks": 77280,
          "time": 84.73671499999999,
          "velocity": 0.5275590551181102
        },
        {
          "duration": 0.2631574999999913,
          "durationTicks": 240,
          "midi": 46,
          "name": "A#2",
          "ticks": 77760,
          "time": 85.26303,
          "velocity": 0.7480314960629921
        },
        {
          "duration": 0.21381546874999913,
          "durationTicks": 195,
          "midi": 53,
          "name": "F3",
          "ticks": 78000,
          "time": 85.52618749999999,
          "velocity": 0.6299212598425197
        },
        {
          "duration": 0.23026281250000125,
          "durationTicks": 210,
          "midi": 58,
          "name": "A#3",
          "ticks": 78240,
          "time": 85.789345,
          "velocity": 0.5511811023622047
        },
        {
          "duration": 0.2521926041666518,
          "durationTicks": 230,
          "midi": 53,
          "name": "F3",
          "ticks": 78480,
          "time": 86.0525025,
          "velocity": 0.6299212598425197
        },
        {
          "duration": 0.6578937499999995,
          "durationTicks": 600,
          "midi": 44,
          "name": "G#2",
          "ticks": 78720,
          "time": 86.31566,
          "velocity": 0.7244094488188977
        },
        {
          "duration": 0.4221484895833356,
          "durationTicks": 385,
          "midi": 51,
          "name": "D#3",
          "ticks": 78960,
          "time": 86.5788175,
          "velocity": 0.5511811023622047
        },
        {
          "duration": 0.10964895833333799,
          "durationTicks": 100,
          "midi": 56,
          "name": "G#3",
          "ticks": 79200,
          "time": 86.84197499999999,
          "velocity": 0.5905511811023622
        },
        {
          "duration": 0.6140341666666558,
          "durationTicks": 560,
          "midi": 42,
          "name": "F#2",
          "ticks": 79680,
          "time": 87.36829,
          "velocity": 0.8031496062992126
        },
        {
          "duration": 0.31798197916666027,
          "durationTicks": 290,
          "midi": 49,
          "name": "C#3",
          "ticks": 80160,
          "time": 87.894605,
          "velocity": 0.6456692913385826
        },
        {
          "duration": 0.4331133854166609,
          "durationTicks": 395,
          "midi": 58,
          "name": "A#3",
          "ticks": 80640,
          "time": 88.42092,
          "velocity": 0.6299212598425197
        },
        {
          "duration": 0.07127182291667111,
          "durationTicks": 65,
          "midi": 42,
          "name": "F#2",
          "ticks": 81120,
          "time": 88.94723499999999,
          "velocity": 0.7401574803149606
        },
        {
          "duration": 0.197368124999997,
          "durationTicks": 180,
          "midi": 44,
          "name": "G#2",
          "ticks": 81600,
          "time": 89.47355,
          "velocity": 0.8031496062992126
        },
        {
          "duration": 0.17543833333333225,
          "durationTicks": 160,
          "midi": 54,
          "name": "F#3",
          "ticks": 82080,
          "time": 89.999865,
          "velocity": 0.7401574803149606
        },
        {
          "duration": 0.25767505208334285,
          "durationTicks": 235,
          "midi": 60,
          "name": "C4",
          "ticks": 82560,
          "time": 90.52618,
          "velocity": 0.6850393700787402
        },
        {
          "duration": 0.24671015624998915,
          "durationTicks": 225,
          "midi": 54,
          "name": "F#3",
          "ticks": 82800,
          "time": 90.7893375,
          "velocity": 0.6614173228346457
        },
        {
          "duration": 0.2631575000000055,
          "durationTicks": 240,
          "midi": 44,
          "name": "G#2",
          "ticks": 83040,
          "time": 91.052495,
          "velocity": 0.7874015748031497
        },
        {
          "duration": 0.24671015625000337,
          "durationTicks": 225,
          "midi": 54,
          "name": "F#3",
          "ticks": 83280,
          "time": 91.3156525,
          "velocity": 0.6456692913385826
        },
        {
          "duration": 0.5701745833333405,
          "durationTicks": 520,
          "midi": 46,
          "name": "A#2",
          "ticks": 83520,
          "time": 91.57880999999999,
          "velocity": 0.6929133858267716
        },
        {
          "duration": 0.307017083333335,
          "durationTicks": 280,
          "midi": 53,
          "name": "F3",
          "ticks": 84000,
          "time": 92.105125,
          "velocity": 0.6692913385826772
        },
        {
          "duration": 0.7346480208333332,
          "durationTicks": 670,
          "midi": 58,
          "name": "A#3",
          "ticks": 84480,
          "time": 92.63144,
          "velocity": 0.5275590551181102
        },
        {
          "duration": 0.361841562500004,
          "durationTicks": 330,
          "midi": 53,
          "name": "F3",
          "ticks": 84960,
          "time": 93.157755,
          "velocity": 0.6220472440944882
        },
        {
          "duration": 0.252192604166666,
          "durationTicks": 230,
          "midi": 46,
          "name": "A#2",
          "ticks": 85440,
          "time": 93.68406999999999,
          "velocity": 0.7874015748031497
        },
        {
          "duration": 0.0712718229166569,
          "durationTicks": 65,
          "midi": 53,
          "name": "F3",
          "ticks": 85680,
          "time": 93.9472275,
          "velocity": 0.7322834645669292
        },
        {
          "duration": 0.13157874999998853,
          "durationTicks": 120,
          "midi": 58,
          "name": "A#3",
          "ticks": 85920,
          "time": 94.210385,
          "velocity": 0.5433070866141733
        },
        {
          "duration": 0.16447343749999277,
          "durationTicks": 150,
          "midi": 65,
          "name": "F4",
          "ticks": 85920,
          "time": 94.210385,
          "velocity": 0.7795275590551181
        },
        {
          "duration": 0.32894687499999975,
          "durationTicks": 300,
          "midi": 56,
          "name": "G#3",
          "ticks": 86400,
          "time": 94.7367,
          "velocity": 0.6299212598425197
        },
        {
          "duration": 0.25767505208332864,
          "durationTicks": 235,
          "midi": 65,
          "name": "F4",
          "ticks": 86400,
          "time": 94.7367,
          "velocity": 0.5275590551181102
        },
        {
          "duration": 0.13157875000000274,
          "durationTicks": 120,
          "midi": 44,
          "name": "G#2",
          "ticks": 86880,
          "time": 95.263015,
          "velocity": 0.5905511811023622
        },
        {
          "duration": 0.12061385416666326,
          "durationTicks": 110,
          "midi": 53,
          "name": "F3",
          "ticks": 86880,
          "time": 95.263015,
          "velocity": 0.4881889763779528
        },
        {
          "duration": 0.5701745833333405,
          "durationTicks": 520,
          "midi": 42,
          "name": "F#2",
          "ticks": 87360,
          "time": 95.78932999999999,
          "velocity": 0.7874015748031497
        },
        {
          "duration": 0.23574526041666388,
          "durationTicks": 215,
          "midi": 49,
          "name": "C#3",
          "ticks": 87840,
          "time": 96.31564499999999,
          "velocity": 0.6929133858267716
        },
        {
          "duration": 0.38377135416665453,
          "durationTicks": 350,
          "midi": 58,
          "name": "A#3",
          "ticks": 88320,
          "time": 96.84196,
          "velocity": 0.6456692913385826
        },
        {
          "duration": 0.08223671874999638,
          "durationTicks": 75,
          "midi": 42,
          "name": "F#2",
          "ticks": 88800,
          "time": 97.368275,
          "velocity": 0.6535433070866141
        },
        {
          "duration": 0.1809207812499949,
          "durationTicks": 165,
          "midi": 44,
          "name": "G#2",
          "ticks": 89280,
          "time": 97.89459,
          "velocity": 0.7401574803149606
        },
        {
          "duration": 0.21381546874999913,
          "durationTicks": 195,
          "midi": 54,
          "name": "F#3",
          "ticks": 89760,
          "time": 98.42090499999999,
          "velocity": 0.5826771653543307
        },
        {
          "duration": 0.2521926041666518,
          "durationTicks": 230,
          "midi": 60,
          "name": "C4",
          "ticks": 90240,
          "time": 98.94722,
          "velocity": 0.48031496062992124
        },
        {
          "duration": 0.24671015625000337,
          "durationTicks": 225,
          "midi": 54,
          "name": "F#3",
          "ticks": 90480,
          "time": 99.21037749999999,
          "velocity": 0.7244094488188977
        },
        {
          "duration": 0.24671015625000337,
          "durationTicks": 225,
          "midi": 44,
          "name": "G#2",
          "ticks": 90720,
          "time": 99.473535,
          "velocity": 0.7244094488188977
        },
        {
          "duration": 0.2631575000000055,
          "durationTicks": 240,
          "midi": 54,
          "name": "F#3",
          "ticks": 90960,
          "time": 99.73669249999999,
          "velocity": 0.7637795275590551
        },
        {
          "duration": 0.5482447916666615,
          "durationTicks": 500,
          "midi": 46,
          "name": "A#2",
          "ticks": 91200,
          "time": 99.99985,
          "velocity": 0.6062992125984252
        },
        {
          "duration": 0.28508729166667024,
          "durationTicks": 260,
          "midi": 53,
          "name": "F3",
          "ticks": 91680,
          "time": 100.52616499999999,
          "velocity": 0.7165354330708661
        },
        {
          "duration": 1.041665104166654,
          "durationTicks": 950,
          "midi": 58,
          "name": "A#3",
          "ticks": 92160,
          "time": 101.05248,
          "velocity": 0.5905511811023622
        },
        {
          "duration": 0.25767505208334285,
          "durationTicks": 235,
          "midi": 46,
          "name": "A#2",
          "ticks": 93120,
          "time": 102.10511,
          "velocity": 0.7637795275590551
        },
        {
          "duration": 0.5208325520833341,
          "durationTicks": 475,
          "midi": 53,
          "name": "F3",
          "ticks": 93360,
          "time": 102.3682675,
          "velocity": 0.6692913385826772
        },
        {
          "duration": 0.866226770833336,
          "durationTicks": 790,
          "midi": 48,
          "name": "C3",
          "ticks": 93840,
          "time": 102.8945825,
          "velocity": 0.5590551181102362
        },
        {
          "duration": 0.49890276041665516,
          "durationTicks": 455,
          "midi": 49,
          "name": "C#3",
          "ticks": 94560,
          "time": 103.684055,
          "velocity": 0.6299212598425197
        },
        {
          "duration": 0.5811394791666658,
          "durationTicks": 530,
          "midi": 44,
          "name": "G#2",
          "ticks": 95040,
          "time": 104.21037,
          "velocity": 0.5905511811023622
        },
        {
          "duration": 0.32894687499999975,
          "durationTicks": 300,
          "midi": 51,
          "name": "D#3",
          "ticks": 95520,
          "time": 104.736685,
          "velocity": 0.7086614173228346
        },
        {
          "duration": 0.31798197916666027,
          "durationTicks": 290,
          "midi": 56,
          "name": "G#3",
          "ticks": 96000,
          "time": 105.26299999999999,
          "velocity": 0.6062992125984252
        },
        {
          "duration": 0.2631574999999913,
          "durationTicks": 240,
          "midi": 58,
          "name": "A#3",
          "ticks": 96480,
          "time": 105.789315,
          "velocity": 0.7401574803149606
        },
        {
          "duration": 0.2796048437500076,
          "durationTicks": 255,
          "midi": 51,
          "name": "D#3",
          "ticks": 96720,
          "time": 106.0524725,
          "velocity": 0.6929133858267716
        },
        {
          "duration": 0.46600807291666513,
          "durationTicks": 425,
          "midi": 44,
          "name": "G#2",
          "ticks": 96960,
          "time": 106.31563,
          "velocity": 0.8267716535433071
        },
        {
          "duration": 0.25767505208334285,
          "durationTicks": 235,
          "midi": 51,
          "name": "D#3",
          "ticks": 97440,
          "time": 106.841945,
          "velocity": 0.6614173228346457
        },
        {
          "duration": 0.3892538020833314,
          "durationTicks": 355,
          "midi": 56,
          "name": "G#3",
          "ticks": 97680,
          "time": 107.1051025,
          "velocity": 0.6299212598425197
        },
        {
          "duration": 0.09320161458333587,
          "durationTicks": 85,
          "midi": 58,
          "name": "A#3",
          "ticks": 98160,
          "time": 107.6314175,
          "velocity": 0.7086614173228346
        },
        {
          "duration": 0.08771916666667323,
          "durationTicks": 80,
          "midi": 56,
          "name": "G#3",
          "ticks": 98400,
          "time": 107.89457499999999,
          "velocity": 0.6535433070866141
        },
        {
          "duration": 0.08771916666665902,
          "durationTicks": 80,
          "midi": 54,
          "name": "F#3",
          "ticks": 98640,
          "time": 108.1577325,
          "velocity": 0.5433070866141733
        },
        {
          "duration": 0.2960521874999955,
          "durationTicks": 270,
          "midi": 39,
          "name": "D#2",
          "ticks": 98880,
          "time": 108.42089,
          "velocity": 0.8582677165354331
        },
        {
          "duration": 0.27412239583333076,
          "durationTicks": 250,
          "midi": 46,
          "name": "A#2",
          "ticks": 99360,
          "time": 108.947205,
          "velocity": 0.7244094488188977
        },
        {
          "duration": 0.307017083333335,
          "durationTicks": 280,
          "midi": 51,
          "name": "D#3",
          "ticks": 99840,
          "time": 109.47352,
          "velocity": 0.7086614173228346
        },
        {
          "duration": 0.24671015625000337,
          "durationTicks": 225,
          "midi": 53,
          "name": "F3",
          "ticks": 100320,
          "time": 109.99983499999999,
          "velocity": 0.8031496062992126
        },
        {
          "duration": 0.2905697395833329,
          "durationTicks": 265,
          "midi": 46,
          "name": "A#2",
          "ticks": 100560,
          "time": 110.2629925,
          "velocity": 0.6771653543307087
        },
        {
          "duration": 0.559209687500001,
          "durationTicks": 510,
          "midi": 39,
          "name": "D#2",
          "ticks": 100800,
          "time": 110.52615,
          "velocity": 0.7874015748031497
        },
        {
          "duration": 0.27412239583333076,
          "durationTicks": 250,
          "midi": 46,
          "name": "A#2",
          "ticks": 101280,
          "time": 111.052465,
          "velocity": 0.6614173228346457
        },
        {
          "duration": 0.3234644270833513,
          "durationTicks": 295,
          "midi": 51,
          "name": "D#3",
          "ticks": 101520,
          "time": 111.31562249999999,
          "velocity": 0.7086614173228346
        },
        {
          "duration": 0.08771916666665902,
          "durationTicks": 80,
          "midi": 53,
          "name": "F3",
          "ticks": 102240,
          "time": 112.10509499999999,
          "velocity": 0.7637795275590551
        },
        {
          "duration": 0.0712718229166569,
          "durationTicks": 65,
          "midi": 54,
          "name": "F#3",
          "ticks": 102480,
          "time": 112.3682525,
          "velocity": 0.5905511811023622
        },
        {
          "duration": 0.5537272395833384,
          "durationTicks": 505,
          "midi": 44,
          "name": "G#2",
          "ticks": 102720,
          "time": 112.63140999999999,
          "velocity": 0.7401574803149606
        },
        {
          "duration": 0.32894687499999975,
          "durationTicks": 300,
          "midi": 51,
          "name": "D#3",
          "ticks": 103200,
          "time": 113.157725,
          "velocity": 0.6614173228346457
        },
        {
          "duration": 0.2686399479166539,
          "durationTicks": 245,
          "midi": 56,
          "name": "G#3",
          "ticks": 103680,
          "time": 113.68404,
          "velocity": 0.6062992125984252
        },
        {
          "duration": 0.2686399479166681,
          "durationTicks": 245,
          "midi": 58,
          "name": "A#3",
          "ticks": 104160,
          "time": 114.21035499999999,
          "velocity": 0.7401574803149606
        },
        {
          "duration": 0.28508729166665603,
          "durationTicks": 260,
          "midi": 51,
          "name": "D#3",
          "ticks": 104400,
          "time": 114.4735125,
          "velocity": 0.7244094488188977
        },
        {
          "duration": 0.5098676562500088,
          "durationTicks": 465,
          "midi": 44,
          "name": "G#2",
          "ticks": 104640,
          "time": 114.73666999999999,
          "velocity": 0.7637795275590551
        },
        {
          "duration": 0.2796048437499934,
          "durationTicks": 255,
          "midi": 51,
          "name": "D#3",
          "ticks": 105120,
          "time": 115.262985,
          "velocity": 0.6614173228346457
        },
        {
          "duration": 0.31798197916666027,
          "durationTicks": 290,
          "midi": 56,
          "name": "G#3",
          "ticks": 105360,
          "time": 115.52614249999999,
          "velocity": 0.5748031496062992
        },
        {
          "duration": 0.10964895833333799,
          "durationTicks": 100,
          "midi": 58,
          "name": "A#3",
          "ticks": 105840,
          "time": 116.05245749999999,
          "velocity": 0.7086614173228346
        },
        {
          "duration": 0.09320161458333587,
          "durationTicks": 85,
          "midi": 56,
          "name": "G#3",
          "ticks": 106080,
          "time": 116.315615,
          "velocity": 0.6614173228346457
        },
        {
          "duration": 0.06578937499999427,
          "durationTicks": 60,
          "midi": 54,
          "name": "F#3",
          "ticks": 106320,
          "time": 116.5787725,
          "velocity": 0.4645669291338583
        },
        {
          "duration": 1.3212699479166616,
          "durationTicks": 1205,
          "midi": 48,
          "name": "C3",
          "ticks": 106560,
          "time": 116.84192999999999,
          "velocity": 0.4566929133858268
        },
        {
          "duration": 1.3486821875000032,
          "durationTicks": 1230,
          "midi": 51,
          "name": "D#3",
          "ticks": 106560,
          "time": 116.84192999999999,
          "velocity": 0.44881889763779526
        },
        {
          "duration": 1.2719279166666695,
          "durationTicks": 1160,
          "midi": 53,
          "name": "F3",
          "ticks": 106560,
          "time": 116.84192999999999,
          "velocity": 0.4881889763779528
        },
        {
          "duration": 1.3212699479166616,
          "durationTicks": 1205,
          "midi": 58,
          "name": "A#3",
          "ticks": 106560,
          "time": 116.84192999999999,
          "velocity": 0.4251968503937008
        },
        {
          "duration": 1.74890088541666,
          "durationTicks": 1595,
          "midi": 41,
          "name": "F2",
          "ticks": 108240,
          "time": 118.6840325,
          "velocity": 0.5669291338582677
        },
        {
          "duration": 1.7269710937499951,
          "durationTicks": 1575,
          "midi": 53,
          "name": "F3",
          "ticks": 108240,
          "time": 118.6840325,
          "velocity": 0.4566929133858268
        },
        {
          "duration": 0.25767505208334285,
          "durationTicks": 235,
          "midi": 42,
          "name": "F#2",
          "ticks": 110400,
          "time": 121.05245,
          "velocity": 0.8267716535433071
        },
        {
          "duration": 0.15899098958334434,
          "durationTicks": 145,
          "midi": 49,
          "name": "C#3",
          "ticks": 110880,
          "time": 121.57876499999999,
          "velocity": 0.7401574803149606
        },
        {
          "duration": 0.25767505208332864,
          "durationTicks": 235,
          "midi": 58,
          "name": "A#3",
          "ticks": 111360,
          "time": 122.10508,
          "velocity": 0.6141732283464567
        },
        {
          "duration": 0.08223671874999638,
          "durationTicks": 75,
          "midi": 42,
          "name": "F#2",
          "ticks": 111840,
          "time": 122.631395,
          "velocity": 0.8582677165354331
        },
        {
          "duration": 1.425436458333337,
          "durationTicks": 1300,
          "midi": 44,
          "name": "G#2",
          "ticks": 112320,
          "time": 123.15771,
          "velocity": 0.8582677165354331
        },
        {
          "duration": 0.13157875000000274,
          "durationTicks": 120,
          "midi": 54,
          "name": "F#3",
          "ticks": 112800,
          "time": 123.68402499999999,
          "velocity": 0.7401574803149606
        },
        {
          "duration": 0.19736812500001122,
          "durationTicks": 180,
          "midi": 60,
          "name": "C4",
          "ticks": 113280,
          "time": 124.21033999999999,
          "velocity": 0.7401574803149606
        },
        {
          "duration": 0.1260963020833401,
          "durationTicks": 115,
          "midi": 54,
          "name": "F#3",
          "ticks": 113520,
          "time": 124.4734975,
          "velocity": 0.7086614173228346
        },
        {
          "duration": 0.2521926041666518,
          "durationTicks": 230,
          "midi": 44,
          "name": "G#2",
          "ticks": 113760,
          "time": 124.736655,
          "velocity": 0.7244094488188977
        },
        {
          "duration": 0.2631575000000055,
          "durationTicks": 240,
          "midi": 54,
          "name": "F#3",
          "ticks": 114000,
          "time": 124.99981249999999,
          "velocity": 0.6614173228346457
        },
        {
          "duration": 0.49890276041665516,
          "durationTicks": 455,
          "midi": 46,
          "name": "A#2",
          "ticks": 114240,
          "time": 125.26297,
          "velocity": 0.7874015748031497
        },
        {
          "duration": 0.18640322916665752,
          "durationTicks": 170,
          "midi": 53,
          "name": "F3",
          "ticks": 114720,
          "time": 125.78928499999999,
          "velocity": 0.7637795275590551
        },
        {
          "duration": 0.7949549479166649,
          "durationTicks": 725,
          "midi": 58,
          "name": "A#3",
          "ticks": 115200,
          "time": 126.31559999999999,
          "velocity": 0.5826771653543307
        },
        {
          "duration": 0.504385208333332,
          "durationTicks": 460,
          "midi": 53,
          "name": "F3",
          "ticks": 115680,
          "time": 126.841915,
          "velocity": 0.7874015748031497
        },
        {
          "duration": 0.24671015625000337,
          "durationTicks": 225,
          "midi": 46,
          "name": "A#2",
          "ticks": 116160,
          "time": 127.36823,
          "velocity": 0.8582677165354331
        },
        {
          "duration": 0.10964895833333799,
          "durationTicks": 100,
          "midi": 58,
          "name": "A#3",
          "ticks": 116640,
          "time": 127.894545,
          "velocity": 0.7244094488188977
        },
        {
          "duration": 0.11513140625001483,
          "durationTicks": 105,
          "midi": 65,
          "name": "F4",
          "ticks": 116640,
          "time": 127.894545,
          "velocity": 0.7401574803149606
        },
        {
          "duration": 0.2960521874999813,
          "durationTicks": 270,
          "midi": 56,
          "name": "G#3",
          "ticks": 117120,
          "time": 128.42086,
          "velocity": 0.6929133858267716
        },
        {
          "duration": 0.25767505208332864,
          "durationTicks": 235,
          "midi": 65,
          "name": "F4",
          "ticks": 117120,
          "time": 128.42086,
          "velocity": 0.5984251968503937
        },
        {
          "duration": 0.0822367187500106,
          "durationTicks": 75,
          "midi": 44,
          "name": "G#2",
          "ticks": 117600,
          "time": 128.947175,
          "velocity": 0.7401574803149606
        },
        {
          "duration": 0.09320161458333587,
          "durationTicks": 85,
          "midi": 53,
          "name": "F3",
          "ticks": 117600,
          "time": 128.947175,
          "velocity": 0.6692913385826772
        },
        {
          "duration": 0.504385208333332,
          "durationTicks": 460,
          "midi": 42,
          "name": "F#2",
          "ticks": 118080,
          "time": 129.47349,
          "velocity": 0.8818897637795275
        },
        {
          "duration": 0.13157875000001695,
          "durationTicks": 120,
          "midi": 49,
          "name": "C#3",
          "ticks": 118560,
          "time": 129.99980499999998,
          "velocity": 0.7637795275590551
        },
        {
          "duration": 0.2521926041666518,
          "durationTicks": 230,
          "midi": 58,
          "name": "A#3",
          "ticks": 119040,
          "time": 130.52612,
          "velocity": 0.7086614173228346
        },
        {
          "duration": 0.3124995312499834,
          "durationTicks": 285,
          "midi": 42,
          "name": "F#2",
          "ticks": 119520,
          "time": 131.052435,
          "velocity": 0.7322834645669292
        },
        {
          "duration": 0.37280645833334347,
          "durationTicks": 340,
          "midi": 49,
          "name": "C#3",
          "ticks": 119520,
          "time": 131.052435,
          "velocity": 0.7401574803149606
        },
        {
          "duration": 0.16995588541666962,
          "durationTicks": 155,
          "midi": 44,
          "name": "G#2",
          "ticks": 120000,
          "time": 131.57874999999999,
          "velocity": 0.8582677165354331
        },
        {
          "duration": 0.16447343749999277,
          "durationTicks": 150,
          "midi": 54,
          "name": "F#3",
          "ticks": 120480,
          "time": 132.105065,
          "velocity": 0.7244094488188977
        },
        {
          "duration": 0.24122770833332652,
          "durationTicks": 220,
          "midi": 60,
          "name": "C4",
          "ticks": 120960,
          "time": 132.63138,
          "velocity": 0.7637795275590551
        },
        {
          "duration": 0.2357452604166781,
          "durationTicks": 215,
          "midi": 54,
          "name": "F#3",
          "ticks": 121200,
          "time": 132.89453749999998,
          "velocity": 0.7401574803149606
        },
        {
          "duration": 0.2521926041666802,
          "durationTicks": 230,
          "midi": 44,
          "name": "G#2",
          "ticks": 121440,
          "time": 133.157695,
          "velocity": 0.7637795275590551
        },
        {
          "duration": 0.27412239583333076,
          "durationTicks": 250,
          "midi": 54,
          "name": "F#3",
          "ticks": 121680,
          "time": 133.4208525,
          "velocity": 0.7874015748031497
        },
        {
          "duration": 0.49890276041665516,
          "durationTicks": 455,
          "midi": 46,
          "name": "A#2",
          "ticks": 121920,
          "time": 133.68401,
          "velocity": 0.6771653543307087
        },
        {
          "duration": 0.14802609375001907,
          "durationTicks": 135,
          "midi": 53,
          "name": "F3",
          "ticks": 122400,
          "time": 134.21032499999998,
          "velocity": 0.7795275590551181
        },
        {
          "duration": 1.0471475520833167,
          "durationTicks": 955,
          "midi": 58,
          "name": "A#3",
          "ticks": 122880,
          "time": 134.73664,
          "velocity": 0.5826771653543307
        },
        {
          "duration": 0.48793786458330146,
          "durationTicks": 445,
          "midi": 53,
          "name": "F3",
          "ticks": 123360,
          "time": 135.262955,
          "velocity": 0.7322834645669292
        },
        {
          "duration": 0.3234644270833371,
          "durationTicks": 295,
          "midi": 46,
          "name": "A#2",
          "ticks": 123840,
          "time": 135.78927,
          "velocity": 0.8267716535433071
        },
        {
          "duration": 0.26863994791668233,
          "durationTicks": 245,
          "midi": 53,
          "name": "F3",
          "ticks": 124080,
          "time": 136.0524275,
          "velocity": 0.7086614173228346
        },
        {
          "duration": 0.2357452604166781,
          "durationTicks": 215,
          "midi": 58,
          "name": "A#3",
          "ticks": 124320,
          "time": 136.315585,
          "velocity": 0.7244094488188977
        },
        {
          "duration": 0.28508729166665603,
          "durationTicks": 260,
          "midi": 53,
          "name": "F3",
          "ticks": 124560,
          "time": 136.5787425,
          "velocity": 0.7401574803149606
        },
        {
          "duration": 0.6085517187500216,
          "durationTicks": 555,
          "midi": 44,
          "name": "G#2",
          "ticks": 124800,
          "time": 136.84189999999998,
          "velocity": 0.7637795275590551
        },
        {
          "duration": 0.3782889062500203,
          "durationTicks": 345,
          "midi": 53,
          "name": "F3",
          "ticks": 125040,
          "time": 137.1050575,
          "velocity": 0.6771653543307087
        },
        {
          "duration": 0.09868406250001271,
          "durationTicks": 90,
          "midi": 56,
          "name": "G#3",
          "ticks": 125280,
          "time": 137.368215,
          "velocity": 0.7637795275590551
        },
        {
          "duration": 0.15899098958331592,
          "durationTicks": 145,
          "midi": 53,
          "name": "F3",
          "ticks": 125520,
          "time": 137.6313725,
          "velocity": 0.6771653543307087
        },
        {
          "duration": 0.5975868229166679,
          "durationTicks": 545,
          "midi": 42,
          "name": "F#2",
          "ticks": 125760,
          "time": 137.89453,
          "velocity": 0.8818897637795275
        },
        {
          "duration": 0.23026281250000125,
          "durationTicks": 210,
          "midi": 49,
          "name": "C#3",
          "ticks": 126240,
          "time": 138.42084499999999,
          "velocity": 0.7401574803149606
        },
        {
          "duration": 0.2796048437500076,
          "durationTicks": 255,
          "midi": 58,
          "name": "A#3",
          "ticks": 126720,
          "time": 138.94716,
          "velocity": 0.6299212598425197
        },
        {
          "duration": 0.07675427083330533,
          "durationTicks": 70,
          "midi": 42,
          "name": "F#2",
          "ticks": 127200,
          "time": 139.473475,
          "velocity": 0.8267716535433071
        },
        {
          "duration": 0.1535085416666675,
          "durationTicks": 140,
          "midi": 44,
          "name": "G#2",
          "ticks": 127680,
          "time": 139.99979,
          "velocity": 0.8267716535433071
        },
        {
          "duration": 0.21381546874999913,
          "durationTicks": 195,
          "midi": 51,
          "name": "D#3",
          "ticks": 127680,
          "time": 139.99979,
          "velocity": 0.7086614173228346
        },
        {
          "duration": 0.21929791666667597,
          "durationTicks": 200,
          "midi": 54,
          "name": "F#3",
          "ticks": 128160,
          "time": 140.526105,
          "velocity": 0.7086614173228346
        },
        {
          "duration": 0.2521926041666802,
          "durationTicks": 230,
          "midi": 60,
          "name": "C4",
          "ticks": 128640,
          "time": 141.05241999999998,
          "velocity": 0.7165354330708661
        },
        {
          "duration": 0.21381546874999913,
          "durationTicks": 195,
          "midi": 54,
          "name": "F#3",
          "ticks": 128880,
          "time": 141.3155775,
          "velocity": 0.7086614173228346
        },
        {
          "duration": 0.25767505208332864,
          "durationTicks": 235,
          "midi": 44,
          "name": "G#2",
          "ticks": 129120,
          "time": 141.578735,
          "velocity": 0.7244094488188977
        },
        {
          "duration": 0.2796048437500076,
          "durationTicks": 255,
          "midi": 54,
          "name": "F#3",
          "ticks": 129360,
          "time": 141.8418925,
          "velocity": 0.7637795275590551
        },
        {
          "duration": 0.5646921354166636,
          "durationTicks": 515,
          "midi": 46,
          "name": "A#2",
          "ticks": 129600,
          "time": 142.10505,
          "velocity": 0.7244094488188977
        },
        {
          "duration": 0.2247803645833244,
          "durationTicks": 205,
          "midi": 53,
          "name": "F3",
          "ticks": 130080,
          "time": 142.631365,
          "velocity": 0.7874015748031497
        },
        {
          "duration": 0.8168847395833154,
          "durationTicks": 745,
          "midi": 58,
          "name": "A#3",
          "ticks": 130560,
          "time": 143.15768,
          "velocity": 0.6299212598425197
        },
        {
          "duration": 0.4221484895833214,
          "durationTicks": 385,
          "midi": 53,
          "name": "F3",
          "ticks": 131040,
          "time": 143.68399499999998,
          "velocity": 0.7874015748031497
        },
        {
          "duration": 0.23026281250000125,
          "durationTicks": 210,
          "midi": 46,
          "name": "A#2",
          "ticks": 131520,
          "time": 144.21031,
          "velocity": 0.8267716535433071
        },
        {
          "duration": 0.21929791666667597,
          "durationTicks": 200,
          "midi": 53,
          "name": "F3",
          "ticks": 131760,
          "time": 144.4734675,
          "velocity": 0.6299212598425197
        },
        {
          "duration": 0.08223671874998217,
          "durationTicks": 75,
          "midi": 58,
          "name": "A#3",
          "ticks": 132000,
          "time": 144.736625,
          "velocity": 0.7086614173228346
        },
        {
          "duration": 0.09868406249998429,
          "durationTicks": 90,
          "midi": 65,
          "name": "F4",
          "ticks": 132000,
          "time": 144.736625,
          "velocity": 0.6299212598425197
        },
        {
          "duration": 0.1809207812499949,
          "durationTicks": 165,
          "midi": 56,
          "name": "G#3",
          "ticks": 132480,
          "time": 145.26294,
          "velocity": 0.6929133858267716
        },
        {
          "duration": 0.13157874999998853,
          "durationTicks": 120,
          "midi": 44,
          "name": "G#2",
          "ticks": 132960,
          "time": 145.789255,
          "velocity": 0.7086614173228346
        },
        {
          "duration": 0.11513140624998641,
          "durationTicks": 105,
          "midi": 53,
          "name": "F3",
          "ticks": 132960,
          "time": 145.789255,
          "velocity": 0.6299212598425197
        },
        {
          "duration": 0.46600807291667934,
          "durationTicks": 425,
          "midi": 43,
          "name": "G2",
          "ticks": 133440,
          "time": 146.31556999999998,
          "velocity": 0.8503937007874016
        },
        {
          "duration": 0.1425436458333138,
          "durationTicks": 130,
          "midi": 51,
          "name": "D#3",
          "ticks": 133920,
          "time": 146.841885,
          "velocity": 0.7401574803149606
        },
        {
          "duration": 0.10416651041666114,
          "durationTicks": 95,
          "midi": 58,
          "name": "A#3",
          "ticks": 134400,
          "time": 147.3682,
          "velocity": 0.6456692913385826
        },
        {
          "duration": 0.07675427083333375,
          "durationTicks": 70,
          "midi": 43,
          "name": "G2",
          "ticks": 134880,
          "time": 147.89451499999998,
          "velocity": 0.8188976377952756
        },
        {
          "duration": 0.13157874999998853,
          "durationTicks": 120,
          "midi": 42,
          "name": "F#2",
          "ticks": 135360,
          "time": 148.42083,
          "velocity": 0.8267716535433071
        },
        {
          "duration": 0.18640322916667174,
          "durationTicks": 170,
          "midi": 51,
          "name": "D#3",
          "ticks": 135840,
          "time": 148.947145,
          "velocity": 0.5354330708661418
        },
        {
          "duration": 0.3179819791666887,
          "durationTicks": 290,
          "midi": 60,
          "name": "C4",
          "ticks": 136320,
          "time": 149.47346,
          "velocity": 0.7401574803149606
        },
        {
          "duration": 0.28508729166668445,
          "durationTicks": 260,
          "midi": 51,
          "name": "D#3",
          "ticks": 136800,
          "time": 149.999775,
          "velocity": 0.5354330708661418
        },
        {
          "duration": 0.6030692708333447,
          "durationTicks": 550,
          "midi": 41,
          "name": "F2",
          "ticks": 137280,
          "time": 150.52608999999998,
          "velocity": 0.8267716535433071
        },
        {
          "duration": 0.3453942187500161,
          "durationTicks": 315,
          "midi": 49,
          "name": "C#3",
          "ticks": 137520,
          "time": 150.7892475,
          "velocity": 0.7637795275590551
        },
        {
          "duration": 0.08771916666668744,
          "durationTicks": 80,
          "midi": 56,
          "name": "G#3",
          "ticks": 137760,
          "time": 151.052405,
          "velocity": 0.8267716535433071
        },
        {
          "duration": 0.6030692708333163,
          "durationTicks": 550,
          "midi": 39,
          "name": "D#2",
          "ticks": 138240,
          "time": 151.57872,
          "velocity": 0.8188976377952756
        },
        {
          "duration": 0.3508766666666929,
          "durationTicks": 320,
          "midi": 46,
          "name": "A#2",
          "ticks": 138480,
          "time": 151.84187749999998,
          "velocity": 0.6299212598425197
        },
        {
          "duration": 0.1370611979166938,
          "durationTicks": 125,
          "midi": 55,
          "name": "G3",
          "ticks": 138720,
          "time": 152.105035,
          "velocity": 0.8661417322834646
        },
        {
          "duration": 0.6853059895833269,
          "durationTicks": 625,
          "midi": 32,
          "name": "G#1",
          "ticks": 139200,
          "time": 152.63135,
          "velocity": 0.889763779527559
        },
        {
          "duration": 0.6798235416666785,
          "durationTicks": 620,
          "midi": 44,
          "name": "G#2",
          "ticks": 139200,
          "time": 152.63135,
          "velocity": 0.7401574803149606
        },
        {
          "duration": 0.38925380208331717,
          "durationTicks": 355,
          "midi": 51,
          "name": "D#3",
          "ticks": 139440,
          "time": 152.8945075,
          "velocity": 0.6456692913385826
        },
        {
          "duration": 0.12061385416669168,
          "durationTicks": 110,
          "midi": 56,
          "name": "G#3",
          "ticks": 139680,
          "time": 153.15766499999998,
          "velocity": 0.8031496062992126
        },
        {
          "duration": 0.6798235416666785,
          "durationTicks": 620,
          "midi": 32,
          "name": "G#1",
          "ticks": 140160,
          "time": 153.68398,
          "velocity": 0.7874015748031497
        },
        {
          "duration": 0.6853059895833269,
          "durationTicks": 625,
          "midi": 44,
          "name": "G#2",
          "ticks": 140400,
          "time": 153.9471375,
          "velocity": 0.8661417322834646
        },
        {
          "duration": 0.10416651041668956,
          "durationTicks": 95,
          "midi": 30,
          "name": "F#1",
          "ticks": 141120,
          "time": 154.73660999999998,
          "velocity": 0.8976377952755905
        },
        {
          "duration": 0.10416651041668956,
          "durationTicks": 95,
          "midi": 42,
          "name": "F#2",
          "ticks": 141120,
          "time": 154.73660999999998,
          "velocity": 0.9763779527559056
        },
        {
          "duration": 0.08771916666668744,
          "durationTicks": 80,
          "midi": 30,
          "name": "F#1",
          "ticks": 141360,
          "time": 154.9997675,
          "velocity": 0.5905511811023622
        },
        {
          "duration": 0.08771916666668744,
          "durationTicks": 80,
          "midi": 42,
          "name": "F#2",
          "ticks": 141360,
          "time": 154.9997675,
          "velocity": 0.6692913385826772
        },
        {
          "duration": 0.07675427083333375,
          "durationTicks": 70,
          "midi": 30,
          "name": "F#1",
          "ticks": 141600,
          "time": 155.262925,
          "velocity": 0.5433070866141733
        },
        {
          "duration": 0.07675427083333375,
          "durationTicks": 70,
          "midi": 42,
          "name": "F#2",
          "ticks": 141600,
          "time": 155.262925,
          "velocity": 0.6220472440944882
        },
        {
          "duration": 0.08223671874998217,
          "durationTicks": 75,
          "midi": 30,
          "name": "F#1",
          "ticks": 141840,
          "time": 155.5260825,
          "velocity": 0.49606299212598426
        },
        {
          "duration": 0.08223671874998217,
          "durationTicks": 75,
          "midi": 42,
          "name": "F#2",
          "ticks": 141840,
          "time": 155.5260825,
          "velocity": 0.5748031496062992
        },
        {
          "duration": 0.07675427083330533,
          "durationTicks": 70,
          "midi": 30,
          "name": "F#1",
          "ticks": 142080,
          "time": 155.78924,
          "velocity": 0.4094488188976378
        },
        {
          "duration": 0.07675427083330533,
          "durationTicks": 70,
          "midi": 42,
          "name": "F#2",
          "ticks": 142080,
          "time": 155.78924,
          "velocity": 0.4881889763779528
        },
        {
          "duration": 0.07127182291668532,
          "durationTicks": 65,
          "midi": 30,
          "name": "F#1",
          "ticks": 142320,
          "time": 156.05239749999998,
          "velocity": 0.4094488188976378
        },
        {
          "duration": 0.07127182291668532,
          "durationTicks": 65,
          "midi": 42,
          "name": "F#2",
          "ticks": 142320,
          "time": 156.05239749999998,
          "velocity": 0.4881889763779528
        },
        {
          "duration": 0.07675427083333375,
          "durationTicks": 70,
          "midi": 30,
          "name": "F#1",
          "ticks": 142560,
          "time": 156.315555,
          "velocity": 0.5590551181102362
        },
        {
          "duration": 0.07675427083333375,
          "durationTicks": 70,
          "midi": 42,
          "name": "F#2",
          "ticks": 142560,
          "time": 156.315555,
          "velocity": 0.6377952755905512
        },
        {
          "duration": 0.07127182291668532,
          "durationTicks": 65,
          "midi": 30,
          "name": "F#1",
          "ticks": 142800,
          "time": 156.5787125,
          "velocity": 0.6062992125984252
        },
        {
          "duration": 0.07127182291668532,
          "durationTicks": 65,
          "midi": 42,
          "name": "F#2",
          "ticks": 142800,
          "time": 156.5787125,
          "velocity": 0.6850393700787402
        },
        {
          "duration": 0.09868406249998429,
          "durationTicks": 90,
          "midi": 30,
          "name": "F#1",
          "ticks": 143040,
          "time": 156.84187,
          "velocity": 0.8976377952755905
        },
        {
          "duration": 0.09868406249998429,
          "durationTicks": 90,
          "midi": 42,
          "name": "F#2",
          "ticks": 143040,
          "time": 156.84187,
          "velocity": 0.9763779527559056
        },
        {
          "duration": 0.08771916666665902,
          "durationTicks": 80,
          "midi": 30,
          "name": "F#1",
          "ticks": 143280,
          "time": 157.1050275,
          "velocity": 0.6692913385826772
        },
        {
          "duration": 0.08771916666665902,
          "durationTicks": 80,
          "midi": 42,
          "name": "F#2",
          "ticks": 143280,
          "time": 157.1050275,
          "velocity": 0.7480314960629921
        },
        {
          "duration": 0.0822367187500106,
          "durationTicks": 75,
          "midi": 30,
          "name": "F#1",
          "ticks": 143520,
          "time": 157.36818499999998,
          "velocity": 0.5905511811023622
        },
        {
          "duration": 0.0822367187500106,
          "durationTicks": 75,
          "midi": 42,
          "name": "F#2",
          "ticks": 143520,
          "time": 157.36818499999998,
          "velocity": 0.6692913385826772
        },
        {
          "duration": 0.07675427083333375,
          "durationTicks": 70,
          "midi": 30,
          "name": "F#1",
          "ticks": 143760,
          "time": 157.6313425,
          "velocity": 0.5590551181102362
        },
        {
          "duration": 0.07675427083333375,
          "durationTicks": 70,
          "midi": 42,
          "name": "F#2",
          "ticks": 143760,
          "time": 157.6313425,
          "velocity": 0.6377952755905512
        },
        {
          "duration": 0.0822367187500106,
          "durationTicks": 75,
          "midi": 30,
          "name": "F#1",
          "ticks": 144000,
          "time": 157.8945,
          "velocity": 0.4881889763779528
        },
        {
          "duration": 0.0822367187500106,
          "durationTicks": 75,
          "midi": 42,
          "name": "F#2",
          "ticks": 144000,
          "time": 157.8945,
          "velocity": 0.5669291338582677
        },
        {
          "duration": 0.07675427083330533,
          "durationTicks": 70,
          "midi": 30,
          "name": "F#1",
          "ticks": 144240,
          "time": 158.1576575,
          "velocity": 0.3937007874015748
        },
        {
          "duration": 0.07675427083330533,
          "durationTicks": 70,
          "midi": 42,
          "name": "F#2",
          "ticks": 144240,
          "time": 158.1576575,
          "velocity": 0.47244094488188976
        },
        {
          "duration": 0.0712718229166569,
          "durationTicks": 65,
          "midi": 30,
          "name": "F#1",
          "ticks": 144480,
          "time": 158.420815,
          "velocity": 0.49606299212598426
        },
        {
          "duration": 0.0712718229166569,
          "durationTicks": 65,
          "midi": 42,
          "name": "F#2",
          "ticks": 144480,
          "time": 158.420815,
          "velocity": 0.5748031496062992
        },
        {
          "duration": 0.07675427083333375,
          "durationTicks": 70,
          "midi": 30,
          "name": "F#1",
          "ticks": 144720,
          "time": 158.68397249999998,
          "velocity": 0.5590551181102362
        },
        {
          "duration": 0.07675427083333375,
          "durationTicks": 70,
          "midi": 42,
          "name": "F#2",
          "ticks": 144720,
          "time": 158.68397249999998,
          "velocity": 0.6377952755905512
        },
        {
          "duration": 0.10964895833333799,
          "durationTicks": 100,
          "midi": 29,
          "name": "F1",
          "ticks": 144960,
          "time": 158.94713,
          "velocity": 0.7795275590551181
        },
        {
          "duration": 0.10964895833333799,
          "durationTicks": 100,
          "midi": 41,
          "name": "F2",
          "ticks": 144960,
          "time": 158.94713,
          "velocity": 0.8582677165354331
        },
        {
          "duration": 0.07675427083333375,
          "durationTicks": 70,
          "midi": 29,
          "name": "F1",
          "ticks": 145200,
          "time": 159.2102875,
          "velocity": 0.3779527559055118
        },
        {
          "duration": 0.07675427083333375,
          "durationTicks": 70,
          "midi": 41,
          "name": "F2",
          "ticks": 145200,
          "time": 159.2102875,
          "velocity": 0.4566929133858268
        },
        {
          "duration": 0.06030692708333163,
          "durationTicks": 55,
          "midi": 29,
          "name": "F1",
          "ticks": 145440,
          "time": 159.473445,
          "velocity": 0.36220472440944884
        },
        {
          "duration": 0.06578937500000848,
          "durationTicks": 60,
          "midi": 41,
          "name": "F2",
          "ticks": 145440,
          "time": 159.473445,
          "velocity": 0.4409448818897638
        },
        {
          "duration": 0.06030692708330321,
          "durationTicks": 55,
          "midi": 29,
          "name": "F1",
          "ticks": 145680,
          "time": 159.7366025,
          "velocity": 0.33858267716535434
        },
        {
          "duration": 0.06030692708330321,
          "durationTicks": 55,
          "midi": 41,
          "name": "F2",
          "ticks": 145680,
          "time": 159.7366025,
          "velocity": 0.41732283464566927
        },
        {
          "duration": 0.07675427083333375,
          "durationTicks": 70,
          "midi": 29,
          "name": "F1",
          "ticks": 145920,
          "time": 159.99975999999998,
          "velocity": 0.6456692913385826
        },
        {
          "duration": 0.07675427083333375,
          "durationTicks": 70,
          "midi": 41,
          "name": "F2",
          "ticks": 145920,
          "time": 159.99975999999998,
          "velocity": 0.7244094488188977
        },
        {
          "duration": 0.06030692708333163,
          "durationTicks": 55,
          "midi": 29,
          "name": "F1",
          "ticks": 146160,
          "time": 160.2629175,
          "velocity": 0.5433070866141733
        },
        {
          "duration": 0.06030692708333163,
          "durationTicks": 55,
          "midi": 41,
          "name": "F2",
          "ticks": 146160,
          "time": 160.2629175,
          "velocity": 0.6220472440944882
        },
        {
          "duration": 0.09320161458333587,
          "durationTicks": 85,
          "midi": 29,
          "name": "F1",
          "ticks": 146400,
          "time": 160.526075,
          "velocity": 0.5275590551181102
        },
        {
          "duration": 0.09320161458333587,
          "durationTicks": 85,
          "midi": 41,
          "name": "F2",
          "ticks": 146400,
          "time": 160.526075,
          "velocity": 0.6062992125984252
        },
        {
          "duration": 0.07127182291668532,
          "durationTicks": 65,
          "midi": 29,
          "name": "F1",
          "ticks": 146640,
          "time": 160.7892325,
          "velocity": 0.6220472440944882
        },
        {
          "duration": 0.07127182291668532,
          "durationTicks": 65,
          "midi": 41,
          "name": "F2",
          "ticks": 146640,
          "time": 160.7892325,
          "velocity": 0.7007874015748031
        },
        {
          "duration": 0.07675427083330533,
          "durationTicks": 70,
          "midi": 34,
          "name": "A#1",
          "ticks": 146880,
          "time": 161.05239,
          "velocity": 0.8740157480314961
        },
        {
          "duration": 0.07675427083330533,
          "durationTicks": 70,
          "midi": 46,
          "name": "A#2",
          "ticks": 146880,
          "time": 161.05239,
          "velocity": 0.952755905511811
        },
        {
          "duration": 0.04385958333332951,
          "durationTicks": 40,
          "midi": 34,
          "name": "A#1",
          "ticks": 147120,
          "time": 161.31554749999998,
          "velocity": 0.31496062992125984
        },
        {
          "duration": 0.04385958333332951,
          "durationTicks": 40,
          "midi": 46,
          "name": "A#2",
          "ticks": 147120,
          "time": 161.31554749999998,
          "velocity": 0.3937007874015748
        },
        {
          "duration": 0.06030692708333163,
          "durationTicks": 55,
          "midi": 34,
          "name": "A#1",
          "ticks": 147360,
          "time": 161.57870499999999,
          "velocity": 0.47244094488188976
        },
        {
          "duration": 0.06030692708333163,
          "durationTicks": 55,
          "midi": 46,
          "name": "A#2",
          "ticks": 147360,
          "time": 161.57870499999999,
          "velocity": 0.5511811023622047
        },
        {
          "duration": 0.06578937500000848,
          "durationTicks": 60,
          "midi": 34,
          "name": "A#1",
          "ticks": 147600,
          "time": 161.8418625,
          "velocity": 0.5905511811023622
        },
        {
          "duration": 0.06578937500000848,
          "durationTicks": 60,
          "midi": 46,
          "name": "A#2",
          "ticks": 147600,
          "time": 161.8418625,
          "velocity": 0.6692913385826772
        },
        {
          "duration": 0.20833302083332228,
          "durationTicks": 190,
          "midi": 34,
          "name": "A#1",
          "ticks": 147840,
          "time": 162.10502,
          "velocity": 0.8503937007874016
        },
        {
          "duration": 0.20833302083332228,
          "durationTicks": 190,
          "midi": 46,
          "name": "A#2",
          "ticks": 147840,
          "time": 162.10502,
          "velocity": 0.9291338582677166
        },
        {
          "duration": 0.07675427083330533,
          "durationTicks": 70,
          "midi": 34,
          "name": "A#1",
          "ticks": 148080,
          "time": 162.3681775,
          "velocity": 0.7952755905511811
        },
        {
          "duration": 0.07675427083330533,
          "durationTicks": 70,
          "midi": 46,
          "name": "A#2",
          "ticks": 148080,
          "time": 162.3681775,
          "velocity": 0.8740157480314961
        },
        {
          "duration": 0.2412277083332981,
          "durationTicks": 220,
          "midi": 32,
          "name": "G#1",
          "ticks": 148320,
          "time": 162.631335,
          "velocity": 0.8188976377952756
        },
        {
          "duration": 0.2412277083332981,
          "durationTicks": 220,
          "midi": 44,
          "name": "G#2",
          "ticks": 148320,
          "time": 162.631335,
          "velocity": 0.8976377952755905
        },
        {
          "duration": 0.13157875000001695,
          "durationTicks": 120,
          "midi": 32,
          "name": "G#1",
          "ticks": 148560,
          "time": 162.89449249999998,
          "velocity": 0.7952755905511811
        },
        {
          "duration": 0.13157875000001695,
          "durationTicks": 120,
          "midi": 44,
          "name": "G#2",
          "ticks": 148560,
          "time": 162.89449249999998,
          "velocity": 0.8740157480314961
        },
        {
          "duration": 0.07127182291668532,
          "durationTicks": 65,
          "midi": 30,
          "name": "F#1",
          "ticks": 148800,
          "time": 163.15765,
          "velocity": 0.8503937007874016
        },
        {
          "duration": 0.07127182291668532,
          "durationTicks": 65,
          "midi": 42,
          "name": "F#2",
          "ticks": 148800,
          "time": 163.15765,
          "velocity": 0.9291338582677166
        },
        {
          "duration": 0.07127182291668532,
          "durationTicks": 65,
          "midi": 30,
          "name": "F#1",
          "ticks": 149040,
          "time": 163.4208075,
          "velocity": 0.3700787401574803
        },
        {
          "duration": 0.07127182291668532,
          "durationTicks": 65,
          "midi": 42,
          "name": "F#2",
          "ticks": 149040,
          "time": 163.4208075,
          "velocity": 0.44881889763779526
        },
        {
          "duration": 0.05482447916665478,
          "durationTicks": 50,
          "midi": 30,
          "name": "F#1",
          "ticks": 149280,
          "time": 163.683965,
          "velocity": 0.4409448818897638
        },
        {
          "duration": 0.05482447916665478,
          "durationTicks": 50,
          "midi": 42,
          "name": "F#2",
          "ticks": 149280,
          "time": 163.683965,
          "velocity": 0.5196850393700787
        },
        {
          "duration": 0.0712718229166569,
          "durationTicks": 65,
          "midi": 30,
          "name": "F#1",
          "ticks": 149520,
          "time": 163.9471225,
          "velocity": 0.5590551181102362
        },
        {
          "duration": 0.0712718229166569,
          "durationTicks": 65,
          "midi": 42,
          "name": "F#2",
          "ticks": 149520,
          "time": 163.9471225,
          "velocity": 0.6377952755905512
        },
        {
          "duration": 0.04934203125000636,
          "durationTicks": 45,
          "midi": 30,
          "name": "F#1",
          "ticks": 149760,
          "time": 164.21027999999998,
          "velocity": 0.3937007874015748
        },
        {
          "duration": 0.054824479166683204,
          "durationTicks": 50,
          "midi": 42,
          "name": "F#2",
          "ticks": 149760,
          "time": 164.21027999999998,
          "velocity": 0.47244094488188976
        },
        {
          "duration": 0.06030692708333163,
          "durationTicks": 55,
          "midi": 30,
          "name": "F#1",
          "ticks": 150000,
          "time": 164.4734375,
          "velocity": 0.4645669291338583
        },
        {
          "duration": 0.06030692708333163,
          "durationTicks": 55,
          "midi": 42,
          "name": "F#2",
          "ticks": 150000,
          "time": 164.4734375,
          "velocity": 0.5433070866141733
        },
        {
          "duration": 0.07127182291668532,
          "durationTicks": 65,
          "midi": 30,
          "name": "F#1",
          "ticks": 150240,
          "time": 164.736595,
          "velocity": 0.5118110236220472
        },
        {
          "duration": 0.07127182291668532,
          "durationTicks": 65,
          "midi": 42,
          "name": "F#2",
          "ticks": 150240,
          "time": 164.736595,
          "velocity": 0.5905511811023622
        },
        {
          "duration": 0.06030692708330321,
          "durationTicks": 55,
          "midi": 30,
          "name": "F#1",
          "ticks": 150480,
          "time": 164.9997525,
          "velocity": 0.5590551181102362
        },
        {
          "duration": 0.06030692708330321,
          "durationTicks": 55,
          "midi": 42,
          "name": "F#2",
          "ticks": 150480,
          "time": 164.9997525,
          "velocity": 0.6377952755905512
        },
        {
          "duration": 0.08771916666665902,
          "durationTicks": 80,
          "midi": 30,
          "name": "F#1",
          "ticks": 150720,
          "time": 165.26291,
          "velocity": 0.7952755905511811
        },
        {
          "duration": 0.08771916666665902,
          "durationTicks": 80,
          "midi": 42,
          "name": "F#2",
          "ticks": 150720,
          "time": 165.26291,
          "velocity": 0.8740157480314961
        },
        {
          "duration": 0.07127182291668532,
          "durationTicks": 65,
          "midi": 30,
          "name": "F#1",
          "ticks": 150960,
          "time": 165.52606749999998,
          "velocity": 0.49606299212598426
        },
        {
          "duration": 0.07127182291668532,
          "durationTicks": 65,
          "midi": 42,
          "name": "F#2",
          "ticks": 150960,
          "time": 165.52606749999998,
          "velocity": 0.5748031496062992
        },
        {
          "duration": 0.06578937500000848,
          "durationTicks": 60,
          "midi": 30,
          "name": "F#1",
          "ticks": 151200,
          "time": 165.789225,
          "velocity": 0.49606299212598426
        },
        {
          "duration": 0.06578937500000848,
          "durationTicks": 60,
          "midi": 42,
          "name": "F#2",
          "ticks": 151200,
          "time": 165.789225,
          "velocity": 0.5748031496062992
        },
        {
          "duration": 0.07127182291668532,
          "durationTicks": 65,
          "midi": 30,
          "name": "F#1",
          "ticks": 151440,
          "time": 166.0523825,
          "velocity": 0.6220472440944882
        },
        {
          "duration": 0.07127182291668532,
          "durationTicks": 65,
          "midi": 42,
          "name": "F#2",
          "ticks": 151440,
          "time": 166.0523825,
          "velocity": 0.7007874015748031
        },
        {
          "duration": 0.0712718229166569,
          "durationTicks": 65,
          "midi": 30,
          "name": "F#1",
          "ticks": 151680,
          "time": 166.31554,
          "velocity": 0.7086614173228346
        },
        {
          "duration": 0.06578937499998005,
          "durationTicks": 60,
          "midi": 42,
          "name": "F#2",
          "ticks": 151680,
          "time": 166.31554,
          "velocity": 0.7874015748031497
        },
        {
          "duration": 0.21381546874999913,
          "durationTicks": 195,
          "midi": 30,
          "name": "F#1",
          "ticks": 151920,
          "time": 166.5786975,
          "velocity": 0.7401574803149606
        },
        {
          "duration": 0.21381546874999913,
          "durationTicks": 195,
          "midi": 42,
          "name": "F#2",
          "ticks": 151920,
          "time": 166.5786975,
          "velocity": 0.8188976377952756
        },
        {
          "duration": 0.0822367187500106,
          "durationTicks": 75,
          "midi": 30,
          "name": "F#1",
          "ticks": 152160,
          "time": 166.84185499999998,
          "velocity": 0.6220472440944882
        },
        {
          "duration": 0.0822367187500106,
          "durationTicks": 75,
          "midi": 42,
          "name": "F#2",
          "ticks": 152160,
          "time": 166.84185499999998,
          "velocity": 0.7007874015748031
        },
        {
          "duration": 0.1370611979166938,
          "durationTicks": 125,
          "midi": 30,
          "name": "F#1",
          "ticks": 152400,
          "time": 167.1050125,
          "velocity": 0.7086614173228346
        },
        {
          "duration": 0.1370611979166938,
          "durationTicks": 125,
          "midi": 42,
          "name": "F#2",
          "ticks": 152400,
          "time": 167.1050125,
          "velocity": 0.7874015748031497
        },
        {
          "duration": 0.08771916666668744,
          "durationTicks": 80,
          "midi": 29,
          "name": "F1",
          "ticks": 152640,
          "time": 167.36817,
          "velocity": 0.7795275590551181
        },
        {
          "duration": 0.08771916666668744,
          "durationTicks": 80,
          "midi": 41,
          "name": "F2",
          "ticks": 152640,
          "time": 167.36817,
          "velocity": 0.8582677165354331
        },
        {
          "duration": 0.09320161458330745,
          "durationTicks": 85,
          "midi": 29,
          "name": "F1",
          "ticks": 152880,
          "time": 167.6313275,
          "velocity": 0.5433070866141733
        },
        {
          "duration": 0.08771916666665902,
          "durationTicks": 80,
          "midi": 41,
          "name": "F2",
          "ticks": 152880,
          "time": 167.6313275,
          "velocity": 0.6220472440944882
        },
        {
          "duration": 0.06578937499998005,
          "durationTicks": 60,
          "midi": 29,
          "name": "F1",
          "ticks": 153120,
          "time": 167.894485,
          "velocity": 0.3858267716535433
        },
        {
          "duration": 0.06578937499998005,
          "durationTicks": 60,
          "midi": 41,
          "name": "F2",
          "ticks": 153120,
          "time": 167.894485,
          "velocity": 0.4645669291338583
        },
        {
          "duration": 0.08771916666668744,
          "durationTicks": 80,
          "midi": 29,
          "name": "F1",
          "ticks": 153360,
          "time": 168.15764249999998,
          "velocity": 0.5118110236220472
        },
        {
          "duration": 0.08771916666668744,
          "durationTicks": 80,
          "midi": 41,
          "name": "F2",
          "ticks": 153360,
          "time": 168.15764249999998,
          "velocity": 0.5905511811023622
        },
        {
          "duration": 0.07675427083333375,
          "durationTicks": 70,
          "midi": 29,
          "name": "F1",
          "ticks": 153600,
          "time": 168.42079999999999,
          "velocity": 0.5984251968503937
        },
        {
          "duration": 0.0822367187500106,
          "durationTicks": 75,
          "midi": 41,
          "name": "F2",
          "ticks": 153600,
          "time": 168.42079999999999,
          "velocity": 0.6771653543307087
        },
        {
          "duration": 0.07675427083333375,
          "durationTicks": 70,
          "midi": 29,
          "name": "F1",
          "ticks": 153840,
          "time": 168.6839575,
          "velocity": 0.5984251968503937
        },
        {
          "duration": 0.07675427083333375,
          "durationTicks": 70,
          "midi": 41,
          "name": "F2",
          "ticks": 153840,
          "time": 168.6839575,
          "velocity": 0.6771653543307087
        },
        {
          "duration": 0.09320161458330745,
          "durationTicks": 85,
          "midi": 29,
          "name": "F1",
          "ticks": 154080,
          "time": 168.947115,
          "velocity": 0.7165354330708661
        },
        {
          "duration": 0.09320161458330745,
          "durationTicks": 85,
          "midi": 41,
          "name": "F2",
          "ticks": 154080,
          "time": 168.947115,
          "velocity": 0.7952755905511811
        },
        {
          "duration": 0.09320161458330745,
          "durationTicks": 85,
          "midi": 29,
          "name": "F1",
          "ticks": 154320,
          "time": 169.2102725,
          "velocity": 0.6692913385826772
        },
        {
          "duration": 0.09320161458330745,
          "durationTicks": 85,
          "midi": 41,
          "name": "F2",
          "ticks": 154320,
          "time": 169.2102725,
          "velocity": 0.7480314960629921
        },
        {
          "duration": 0.08771916666668744,
          "durationTicks": 80,
          "midi": 34,
          "name": "A#1",
          "ticks": 154560,
          "time": 169.47342999999998,
          "velocity": 0.8976377952755905
        },
        {
          "duration": 0.0822367187500106,
          "durationTicks": 75,
          "midi": 46,
          "name": "A#2",
          "ticks": 154560,
          "time": 169.47342999999998,
          "velocity": 0.9763779527559056
        },
        {
          "duration": 0.07675427083333375,
          "durationTicks": 70,
          "midi": 34,
          "name": "A#1",
          "ticks": 154800,
          "time": 169.73658749999998,
          "velocity": 0.3937007874015748
        },
        {
          "duration": 0.07127182291668532,
          "durationTicks": 65,
          "midi": 46,
          "name": "A#2",
          "ticks": 154800,
          "time": 169.73658749999998,
          "velocity": 0.47244094488188976
        },
        {
          "duration": 0.0822367187500106,
          "durationTicks": 75,
          "midi": 34,
          "name": "A#1",
          "ticks": 155040,
          "time": 169.999745,
          "velocity": 0.6456692913385826
        },
        {
          "duration": 0.0822367187500106,
          "durationTicks": 75,
          "midi": 46,
          "name": "A#2",
          "ticks": 155040,
          "time": 169.999745,
          "velocity": 0.7244094488188977
        },
        {
          "duration": 0.0822367187500106,
          "durationTicks": 75,
          "midi": 34,
          "name": "A#1",
          "ticks": 155280,
          "time": 170.2629025,
          "velocity": 0.6850393700787402
        },
        {
          "duration": 0.08771916666668744,
          "durationTicks": 80,
          "midi": 46,
          "name": "A#2",
          "ticks": 155280,
          "time": 170.2629025,
          "velocity": 0.7637795275590551
        },
        {
          "duration": 0.17543833333331804,
          "durationTicks": 160,
          "midi": 34,
          "name": "A#1",
          "ticks": 155520,
          "time": 170.52606,
          "velocity": 0.8503937007874016
        },
        {
          "duration": 0.1809207812499949,
          "durationTicks": 165,
          "midi": 46,
          "name": "A#2",
          "ticks": 155520,
          "time": 170.52606,
          "velocity": 0.9291338582677166
        },
        {
          "duration": 0.08771916666665902,
          "durationTicks": 80,
          "midi": 34,
          "name": "A#1",
          "ticks": 155760,
          "time": 170.7892175,
          "velocity": 0.6850393700787402
        },
        {
          "duration": 0.08771916666665902,
          "durationTicks": 80,
          "midi": 46,
          "name": "A#2",
          "ticks": 155760,
          "time": 170.7892175,
          "velocity": 0.7637795275590551
        },
        {
          "duration": 0.23026281250000125,
          "durationTicks": 210,
          "midi": 32,
          "name": "G#1",
          "ticks": 156000,
          "time": 171.05237499999998,
          "velocity": 0.8976377952755905
        },
        {
          "duration": 0.23026281250000125,
          "durationTicks": 210,
          "midi": 44,
          "name": "G#2",
          "ticks": 156000,
          "time": 171.05237499999998,
          "velocity": 0.9763779527559056
        },
        {
          "duration": 0.08771916666668744,
          "durationTicks": 80,
          "midi": 32,
          "name": "G#1",
          "ticks": 156240,
          "time": 171.3155325,
          "velocity": 0.7637795275590551
        },
        {
          "duration": 0.08771916666668744,
          "durationTicks": 80,
          "midi": 44,
          "name": "G#2",
          "ticks": 156240,
          "time": 171.3155325,
          "velocity": 0.84251968503937
        },
        {
          "duration": 0.2631575000000055,
          "durationTicks": 240,
          "midi": 42,
          "name": "F#2",
          "ticks": 156480,
          "time": 171.57869,
          "velocity": 0.8267716535433071
        },
        {
          "duration": 0.15899098958331592,
          "durationTicks": 145,
          "midi": 49,
          "name": "C#3",
          "ticks": 156960,
          "time": 172.105005,
          "velocity": 0.7401574803149606
        },
        {
          "duration": 0.10416651041668956,
          "durationTicks": 95,
          "midi": 58,
          "name": "A#3",
          "ticks": 157440,
          "time": 172.63132,
          "velocity": 0.6141732283464567
        },
        {
          "duration": 0.08223671874998217,
          "durationTicks": 75,
          "midi": 42,
          "name": "F#2",
          "ticks": 157920,
          "time": 173.157635,
          "velocity": 0.8582677165354331
        },
        {
          "duration": 1.425436458333337,
          "durationTicks": 1300,
          "midi": 44,
          "name": "G#2",
          "ticks": 158400,
          "time": 173.68394999999998,
          "velocity": 0.8582677165354331
        },
        {
          "duration": 0.13157874999998853,
          "durationTicks": 120,
          "midi": 54,
          "name": "F#3",
          "ticks": 158880,
          "time": 174.210265,
          "velocity": 0.7401574803149606
        },
        {
          "duration": 0.197368124999997,
          "durationTicks": 180,
          "midi": 60,
          "name": "C4",
          "ticks": 159360,
          "time": 174.73658,
          "velocity": 0.7401574803149606
        },
        {
          "duration": 0.13157875000001695,
          "durationTicks": 120,
          "midi": 54,
          "name": "F#3",
          "ticks": 159600,
          "time": 174.99973749999998,
          "velocity": 0.7086614173228346
        },
        {
          "duration": 0.2521926041666802,
          "durationTicks": 230,
          "midi": 44,
          "name": "G#2",
          "ticks": 159840,
          "time": 175.262895,
          "velocity": 0.7244094488188977
        },
        {
          "duration": 0.2631575000000055,
          "durationTicks": 240,
          "midi": 54,
          "name": "F#3",
          "ticks": 160080,
          "time": 175.5260525,
          "velocity": 0.6614173228346457
        },
        {
          "duration": 0.4989027604166836,
          "durationTicks": 455,
          "midi": 46,
          "name": "A#2",
          "ticks": 160320,
          "time": 175.78921,
          "velocity": 0.7874015748031497
        },
        {
          "duration": 0.18640322916670016,
          "durationTicks": 170,
          "midi": 53,
          "name": "F3",
          "ticks": 160800,
          "time": 176.31552499999998,
          "velocity": 0.7637795275590551
        },
        {
          "duration": 0.8004373958333133,
          "durationTicks": 730,
          "midi": 58,
          "name": "A#3",
          "ticks": 161280,
          "time": 176.84184,
          "velocity": 0.5826771653543307
        },
        {
          "duration": 0.49890276041665516,
          "durationTicks": 455,
          "midi": 53,
          "name": "F3",
          "ticks": 161760,
          "time": 177.368155,
          "velocity": 0.7874015748031497
        },
        {
          "duration": 0.2521926041666802,
          "durationTicks": 230,
          "midi": 46,
          "name": "A#2",
          "ticks": 162240,
          "time": 177.89446999999998,
          "velocity": 0.8582677165354331
        },
        {
          "duration": 0.24671015625000337,
          "durationTicks": 225,
          "midi": 53,
          "name": "F3",
          "ticks": 162480,
          "time": 178.1576275,
          "velocity": 0.8582677165354331
        },
        {
          "duration": 0.10964895833330957,
          "durationTicks": 100,
          "midi": 58,
          "name": "A#3",
          "ticks": 162720,
          "time": 178.420785,
          "velocity": 0.7244094488188977
        },
        {
          "duration": 0.11513140624998641,
          "durationTicks": 105,
          "midi": 65,
          "name": "F4",
          "ticks": 162720,
          "time": 178.420785,
          "velocity": 0.7401574803149606
        },
        {
          "duration": 0.2960521874999813,
          "durationTicks": 270,
          "midi": 56,
          "name": "G#3",
          "ticks": 163200,
          "time": 178.9471,
          "velocity": 0.6929133858267716
        },
        {
          "duration": 0.2576750520833002,
          "durationTicks": 235,
          "midi": 65,
          "name": "F4",
          "ticks": 163200,
          "time": 178.9471,
          "velocity": 0.5984251968503937
        },
        {
          "duration": 0.0822367187500106,
          "durationTicks": 75,
          "midi": 44,
          "name": "G#2",
          "ticks": 163680,
          "time": 179.473415,
          "velocity": 0.7401574803149606
        },
        {
          "duration": 0.09320161458333587,
          "durationTicks": 85,
          "midi": 53,
          "name": "F3",
          "ticks": 163680,
          "time": 179.473415,
          "velocity": 0.6692913385826772
        },
        {
          "duration": 0.5043852083333036,
          "durationTicks": 460,
          "midi": 42,
          "name": "F#2",
          "ticks": 164160,
          "time": 179.99973,
          "velocity": 0.8818897637795275
        },
        {
          "duration": 0.13157875000001695,
          "durationTicks": 120,
          "midi": 49,
          "name": "C#3",
          "ticks": 164640,
          "time": 180.52604499999998,
          "velocity": 0.7637795275590551
        },
        {
          "duration": 0.09868406250001271,
          "durationTicks": 90,
          "midi": 58,
          "name": "A#3",
          "ticks": 165120,
          "time": 181.05236,
          "velocity": 0.7086614173228346
        },
        {
          "duration": 0.31798197916666027,
          "durationTicks": 290,
          "midi": 42,
          "name": "F#2",
          "ticks": 165600,
          "time": 181.578675,
          "velocity": 0.8582677165354331
        },
        {
          "duration": 0.16995588541666962,
          "durationTicks": 155,
          "midi": 44,
          "name": "G#2",
          "ticks": 166080,
          "time": 182.10499,
          "velocity": 0.8582677165354331
        },
        {
          "duration": 0.16447343749999277,
          "durationTicks": 150,
          "midi": 54,
          "name": "F#3",
          "ticks": 166560,
          "time": 182.631305,
          "velocity": 0.7244094488188977
        },
        {
          "duration": 0.24122770833332652,
          "durationTicks": 220,
          "midi": 60,
          "name": "C4",
          "ticks": 167040,
          "time": 183.15761999999998,
          "velocity": 0.7637795275590551
        },
        {
          "duration": 0.24122770833332652,
          "durationTicks": 220,
          "midi": 54,
          "name": "F#3",
          "ticks": 167280,
          "time": 183.42077749999999,
          "velocity": 0.7401574803149606
        },
        {
          "duration": 0.2521926041666802,
          "durationTicks": 230,
          "midi": 44,
          "name": "G#2",
          "ticks": 167520,
          "time": 183.683935,
          "velocity": 0.7637795275590551
        },
        {
          "duration": 0.26863994791668233,
          "durationTicks": 245,
          "midi": 54,
          "name": "F#3",
          "ticks": 167760,
          "time": 183.9470925,
          "velocity": 0.7874015748031497
        },
        {
          "duration": 0.49890276041665516,
          "durationTicks": 455,
          "midi": 46,
          "name": "A#2",
          "ticks": 168000,
          "time": 184.21025,
          "velocity": 0.6771653543307087
        },
        {
          "duration": 0.14802609375001907,
          "durationTicks": 135,
          "midi": 53,
          "name": "F3",
          "ticks": 168480,
          "time": 184.73656499999998,
          "velocity": 0.7795275590551181
        },
        {
          "duration": 1.0471475520833167,
          "durationTicks": 955,
          "midi": 58,
          "name": "A#3",
          "ticks": 168960,
          "time": 185.26288,
          "velocity": 0.5826771653543307
        },
        {
          "duration": 0.4879378645833299,
          "durationTicks": 445,
          "midi": 53,
          "name": "F3",
          "ticks": 169440,
          "time": 185.78919499999998,
          "velocity": 0.7322834645669292
        },
        {
          "duration": 0.3234644270833371,
          "durationTicks": 295,
          "midi": 46,
          "name": "A#2",
          "ticks": 169920,
          "time": 186.31551,
          "velocity": 0.8267716535433071
        },
        {
          "duration": 0.2631575000000055,
          "durationTicks": 240,
          "midi": 53,
          "name": "F3",
          "ticks": 170160,
          "time": 186.5786675,
          "velocity": 0.7086614173228346
        },
        {
          "duration": 0.2357452604166781,
          "durationTicks": 215,
          "midi": 58,
          "name": "A#3",
          "ticks": 170400,
          "time": 186.841825,
          "velocity": 0.7244094488188977
        },
        {
          "duration": 0.2796048437499792,
          "durationTicks": 255,
          "midi": 53,
          "name": "F3",
          "ticks": 170640,
          "time": 187.1049825,
          "velocity": 0.7401574803149606
        },
        {
          "duration": 0.6140341666666984,
          "durationTicks": 560,
          "midi": 44,
          "name": "G#2",
          "ticks": 170880,
          "time": 187.36813999999998,
          "velocity": 0.7637795275590551
        },
        {
          "duration": 0.3782889062499919,
          "durationTicks": 345,
          "midi": 51,
          "name": "D#3",
          "ticks": 171120,
          "time": 187.6312975,
          "velocity": 0.6771653543307087
        },
        {
          "duration": 0.09868406249998429,
          "durationTicks": 90,
          "midi": 56,
          "name": "G#3",
          "ticks": 171360,
          "time": 187.894455,
          "velocity": 0.7637795275590551
        },
        {
          "duration": 0.15899098958331592,
          "durationTicks": 145,
          "midi": 51,
          "name": "D#3",
          "ticks": 171600,
          "time": 188.1576125,
          "velocity": 0.6771653543307087
        },
        {
          "duration": 0.10416651041666114,
          "durationTicks": 95,
          "midi": 42,
          "name": "F#2",
          "ticks": 171840,
          "time": 188.42077,
          "velocity": 0.8582677165354331
        },
        {
          "duration": 0.10416651041666114,
          "durationTicks": 95,
          "midi": 49,
          "name": "C#3",
          "ticks": 171840,
          "time": 188.42077,
          "velocity": 0.889763779527559
        },
        {
          "duration": 0.054824479166683204,
          "durationTicks": 50,
          "midi": 42,
          "name": "F#2",
          "ticks": 172080,
          "time": 188.68392749999998,
          "velocity": 0.5826771653543307
        },
        {
          "duration": 0.054824479166683204,
          "durationTicks": 50,
          "midi": 49,
          "name": "C#3",
          "ticks": 172080,
          "time": 188.68392749999998,
          "velocity": 0.7086614173228346
        },
        {
          "duration": 0.054824479166683204,
          "durationTicks": 50,
          "midi": 42,
          "name": "F#2",
          "ticks": 172320,
          "time": 188.947085,
          "velocity": 0.6929133858267716
        },
        {
          "duration": 0.054824479166683204,
          "durationTicks": 50,
          "midi": 49,
          "name": "C#3",
          "ticks": 172320,
          "time": 188.947085,
          "velocity": 0.7401574803149606
        },
        {
          "duration": 0.06030692708333163,
          "durationTicks": 55,
          "midi": 42,
          "name": "F#2",
          "ticks": 172560,
          "time": 189.2102425,
          "velocity": 0.5905511811023622
        },
        {
          "duration": 0.054824479166683204,
          "durationTicks": 50,
          "midi": 49,
          "name": "C#3",
          "ticks": 172560,
          "time": 189.2102425,
          "velocity": 0.6614173228346457
        },
        {
          "duration": 0.06030692708330321,
          "durationTicks": 55,
          "midi": 42,
          "name": "F#2",
          "ticks": 172800,
          "time": 189.4734,
          "velocity": 0.6614173228346457
        },
        {
          "duration": 0.054824479166683204,
          "durationTicks": 50,
          "midi": 49,
          "name": "C#3",
          "ticks": 172800,
          "time": 189.4734,
          "velocity": 0.7244094488188977
        },
        {
          "duration": 0.04385958333330109,
          "durationTicks": 40,
          "midi": 42,
          "name": "F#2",
          "ticks": 173040,
          "time": 189.7365575,
          "velocity": 0.5433070866141733
        },
        {
          "duration": 0.04385958333330109,
          "durationTicks": 40,
          "midi": 49,
          "name": "C#3",
          "ticks": 173040,
          "time": 189.7365575,
          "velocity": 0.5905511811023622
        },
        {
          "duration": 0.06578937500000848,
          "durationTicks": 60,
          "midi": 42,
          "name": "F#2",
          "ticks": 173280,
          "time": 189.99971499999998,
          "velocity": 0.6614173228346457
        },
        {
          "duration": 0.054824479166683204,
          "durationTicks": 50,
          "midi": 49,
          "name": "C#3",
          "ticks": 173280,
          "time": 189.99971499999998,
          "velocity": 0.7244094488188977
        },
        {
          "duration": 0.04934203125000636,
          "durationTicks": 45,
          "midi": 42,
          "name": "F#2",
          "ticks": 173520,
          "time": 190.2628725,
          "velocity": 0.7086614173228346
        },
        {
          "duration": 0.04385958333332951,
          "durationTicks": 40,
          "midi": 49,
          "name": "C#3",
          "ticks": 173520,
          "time": 190.2628725,
          "velocity": 0.7086614173228346
        },
        {
          "duration": 0.14802609374999065,
          "durationTicks": 135,
          "midi": 44,
          "name": "G#2",
          "ticks": 173760,
          "time": 190.52603,
          "velocity": 0.8582677165354331
        },
        {
          "duration": 0.1425436458333138,
          "durationTicks": 130,
          "midi": 51,
          "name": "D#3",
          "ticks": 173760,
          "time": 190.52603,
          "velocity": 0.8110236220472441
        },
        {
          "duration": 0.1535085416666675,
          "durationTicks": 140,
          "midi": 54,
          "name": "F#3",
          "ticks": 173760,
          "time": 190.52603,
          "velocity": 0.7244094488188977
        },
        {
          "duration": 0.06030692708333163,
          "durationTicks": 55,
          "midi": 44,
          "name": "G#2",
          "ticks": 174000,
          "time": 190.7891875,
          "velocity": 0.5905511811023622
        },
        {
          "duration": 0.038377135416681085,
          "durationTicks": 35,
          "midi": 51,
          "name": "D#3",
          "ticks": 174000,
          "time": 190.7891875,
          "velocity": 0.5433070866141733
        },
        {
          "duration": 0.021929791666678966,
          "durationTicks": 20,
          "midi": 54,
          "name": "F#3",
          "ticks": 174000,
          "time": 190.7891875,
          "velocity": 0.5433070866141733
        },
        {
          "duration": 0.06030692708330321,
          "durationTicks": 55,
          "midi": 44,
          "name": "G#2",
          "ticks": 174240,
          "time": 191.052345,
          "velocity": 0.7637795275590551
        },
        {
          "duration": 0.02741223958329897,
          "durationTicks": 25,
          "midi": 51,
          "name": "D#3",
          "ticks": 174240,
          "time": 191.052345,
          "velocity": 0.5433070866141733
        },
        {
          "duration": 0.03289468749997582,
          "durationTicks": 30,
          "midi": 54,
          "name": "F#3",
          "ticks": 174240,
          "time": 191.052345,
          "velocity": 0.5433070866141733
        },
        {
          "duration": 0.06030692708333163,
          "durationTicks": 55,
          "midi": 44,
          "name": "G#2",
          "ticks": 174480,
          "time": 191.31550249999998,
          "velocity": 0.6141732283464567
        },
        {
          "duration": 0.04934203125000636,
          "durationTicks": 45,
          "midi": 51,
          "name": "D#3",
          "ticks": 174480,
          "time": 191.31550249999998,
          "velocity": 0.5433070866141733
        },
        {
          "duration": 0.03289468750000424,
          "durationTicks": 30,
          "midi": 54,
          "name": "F#3",
          "ticks": 174480,
          "time": 191.31550249999998,
          "velocity": 0.5433070866141733
        },
        {
          "duration": 0.054824479166683204,
          "durationTicks": 50,
          "midi": 44,
          "name": "G#2",
          "ticks": 174720,
          "time": 191.57865999999999,
          "velocity": 0.6929133858267716
        },
        {
          "duration": 0.038377135416681085,
          "durationTicks": 35,
          "midi": 51,
          "name": "D#3",
          "ticks": 174720,
          "time": 191.57865999999999,
          "velocity": 0.5433070866141733
        },
        {
          "duration": 0.02741223958332739,
          "durationTicks": 25,
          "midi": 54,
          "name": "F#3",
          "ticks": 174720,
          "time": 191.57865999999999,
          "velocity": 0.5433070866141733
        },
        {
          "duration": 0.054824479166683204,
          "durationTicks": 50,
          "midi": 44,
          "name": "G#2",
          "ticks": 174960,
          "time": 191.8418175,
          "velocity": 0.6614173228346457
        },
        {
          "duration": 0.038377135416681085,
          "durationTicks": 35,
          "midi": 51,
          "name": "D#3",
          "ticks": 174960,
          "time": 191.8418175,
          "velocity": 0.5433070866141733
        },
        {
          "duration": 0.021929791666678966,
          "durationTicks": 20,
          "midi": 54,
          "name": "F#3",
          "ticks": 174960,
          "time": 191.8418175,
          "velocity": 0.5433070866141733
        },
        {
          "duration": 0.06030692708333163,
          "durationTicks": 55,
          "midi": 44,
          "name": "G#2",
          "ticks": 175200,
          "time": 192.104975,
          "velocity": 0.7401574803149606
        },
        {
          "duration": 0.02741223958332739,
          "durationTicks": 25,
          "midi": 51,
          "name": "D#3",
          "ticks": 175200,
          "time": 192.104975,
          "velocity": 0.5433070866141733
        },
        {
          "duration": 0.02741223958332739,
          "durationTicks": 25,
          "midi": 54,
          "name": "F#3",
          "ticks": 175200,
          "time": 192.104975,
          "velocity": 0.5433070866141733
        },
        {
          "duration": 0.06578937499998005,
          "durationTicks": 60,
          "midi": 44,
          "name": "G#2",
          "ticks": 175440,
          "time": 192.3681325,
          "velocity": 0.7874015748031497
        },
        {
          "duration": 0.01644734375000212,
          "durationTicks": 15,
          "midi": 51,
          "name": "D#3",
          "ticks": 175440,
          "time": 192.3681325,
          "velocity": 0.5433070866141733
        },
        {
          "duration": 0.038377135416652663,
          "durationTicks": 35,
          "midi": 54,
          "name": "F#3",
          "ticks": 175440,
          "time": 192.3681325,
          "velocity": 0.5433070866141733
        },
        {
          "duration": 0.09320161458333587,
          "durationTicks": 85,
          "midi": 46,
          "name": "A#2",
          "ticks": 175680,
          "time": 192.63128999999998,
          "velocity": 0.9133858267716536
        },
        {
          "duration": 0.0822367187500106,
          "durationTicks": 75,
          "midi": 53,
          "name": "F3",
          "ticks": 175680,
          "time": 192.63128999999998,
          "velocity": 0.905511811023622
        },
        {
          "duration": 0.0822367187500106,
          "durationTicks": 75,
          "midi": 46,
          "name": "A#2",
          "ticks": 175920,
          "time": 192.89444749999998,
          "velocity": 0.5433070866141733
        },
        {
          "duration": 0.06030692708333163,
          "durationTicks": 55,
          "midi": 53,
          "name": "F3",
          "ticks": 175920,
          "time": 192.89444749999998,
          "velocity": 0.5433070866141733
        },
        {
          "duration": 0.07675427083333375,
          "durationTicks": 70,
          "midi": 46,
          "name": "A#2",
          "ticks": 176160,
          "time": 193.157605,
          "velocity": 0.6141732283464567
        },
        {
          "duration": 0.06578937500000848,
          "durationTicks": 60,
          "midi": 53,
          "name": "F3",
          "ticks": 176160,
          "time": 193.157605,
          "velocity": 0.8031496062992126
        },
        {
          "duration": 0.07127182291668532,
          "durationTicks": 65,
          "midi": 46,
          "name": "A#2",
          "ticks": 176400,
          "time": 193.4207625,
          "velocity": 0.6929133858267716
        },
        {
          "duration": 0.054824479166683204,
          "durationTicks": 50,
          "midi": 53,
          "name": "F3",
          "ticks": 176400,
          "time": 193.4207625,
          "velocity": 0.8346456692913385
        },
        {
          "duration": 0.06030692708330321,
          "durationTicks": 55,
          "midi": 46,
          "name": "A#2",
          "ticks": 176640,
          "time": 193.68392,
          "velocity": 0.5826771653543307
        },
        {
          "duration": 0.04385958333330109,
          "durationTicks": 40,
          "midi": 53,
          "name": "F3",
          "ticks": 176640,
          "time": 193.68392,
          "velocity": 0.7401574803149606
        },
        {
          "duration": 0.04934203125000636,
          "durationTicks": 45,
          "midi": 46,
          "name": "A#2",
          "ticks": 176880,
          "time": 193.94707749999998,
          "velocity": 0.5433070866141733
        },
        {
          "duration": 0.04934203125000636,
          "durationTicks": 45,
          "midi": 53,
          "name": "F3",
          "ticks": 176880,
          "time": 193.94707749999998,
          "velocity": 0.7401574803149606
        },
        {
          "duration": 0.054824479166683204,
          "durationTicks": 50,
          "midi": 46,
          "name": "A#2",
          "ticks": 177120,
          "time": 194.21023499999998,
          "velocity": 0.5748031496062992
        },
        {
          "duration": 0.04934203125000636,
          "durationTicks": 45,
          "midi": 53,
          "name": "F3",
          "ticks": 177120,
          "time": 194.21023499999998,
          "velocity": 0.6692913385826772
        },
        {
          "duration": 0.054824479166683204,
          "durationTicks": 50,
          "midi": 46,
          "name": "A#2",
          "ticks": 177360,
          "time": 194.4733925,
          "velocity": 0.5433070866141733
        },
        {
          "duration": 0.04385958333332951,
          "durationTicks": 40,
          "midi": 53,
          "name": "F3",
          "ticks": 177360,
          "time": 194.4733925,
          "velocity": 0.6614173228346457
        },
        {
          "duration": 0.1535085416666675,
          "durationTicks": 140,
          "midi": 46,
          "name": "A#2",
          "ticks": 177600,
          "time": 194.73655,
          "velocity": 0.6141732283464567
        },
        {
          "duration": 0.13706119791666538,
          "durationTicks": 125,
          "midi": 53,
          "name": "F3",
          "ticks": 177600,
          "time": 194.73655,
          "velocity": 0.7086614173228346
        },
        {
          "duration": 0.06030692708330321,
          "durationTicks": 55,
          "midi": 46,
          "name": "A#2",
          "ticks": 177840,
          "time": 194.9997075,
          "velocity": 0.5748031496062992
        },
        {
          "duration": 0.05482447916665478,
          "durationTicks": 50,
          "midi": 58,
          "name": "A#3",
          "ticks": 178080,
          "time": 195.262865,
          "velocity": 0.8346456692913385
        },
        {
          "duration": 0.04385958333332951,
          "durationTicks": 40,
          "midi": 58,
          "name": "A#3",
          "ticks": 178320,
          "time": 195.52602249999998,
          "velocity": 0.6299212598425197
        },
        {
          "duration": 0.06030692708333163,
          "durationTicks": 55,
          "midi": 56,
          "name": "G#3",
          "ticks": 178560,
          "time": 195.78918,
          "velocity": 0.7874015748031497
        },
        {
          "duration": 0.04934203125000636,
          "durationTicks": 45,
          "midi": 56,
          "name": "G#3",
          "ticks": 178800,
          "time": 196.0523375,
          "velocity": 0.6062992125984252
        },
        {
          "duration": 0.06578937499998005,
          "durationTicks": 60,
          "midi": 44,
          "name": "G#2",
          "ticks": 179040,
          "time": 196.315495,
          "velocity": 0.6299212598425197
        },
        {
          "duration": 0.054824479166683204,
          "durationTicks": 50,
          "midi": 53,
          "name": "F3",
          "ticks": 179040,
          "time": 196.315495,
          "velocity": 0.7559055118110236
        },
        {
          "duration": 0.05482447916665478,
          "durationTicks": 50,
          "midi": 44,
          "name": "G#2",
          "ticks": 179280,
          "time": 196.5786525,
          "velocity": 0.5433070866141733
        },
        {
          "duration": 0.04385958333330109,
          "durationTicks": 40,
          "midi": 53,
          "name": "F3",
          "ticks": 179280,
          "time": 196.5786525,
          "velocity": 0.5984251968503937
        },
        {
          "duration": 0.08771916666668744,
          "durationTicks": 80,
          "midi": 42,
          "name": "F#2",
          "ticks": 179520,
          "time": 196.84180999999998,
          "velocity": 0.8582677165354331
        },
        {
          "duration": 0.08771916666668744,
          "durationTicks": 80,
          "midi": 49,
          "name": "C#3",
          "ticks": 179520,
          "time": 196.84180999999998,
          "velocity": 0.889763779527559
        },
        {
          "duration": 0.06030692708333163,
          "durationTicks": 55,
          "midi": 42,
          "name": "F#2",
          "ticks": 179760,
          "time": 197.1049675,
          "velocity": 0.5433070866141733
        },
        {
          "duration": 0.06578937500000848,
          "durationTicks": 60,
          "midi": 49,
          "name": "C#3",
          "ticks": 179760,
          "time": 197.1049675,
          "velocity": 0.5748031496062992
        },
        {
          "duration": 0.06578937500000848,
          "durationTicks": 60,
          "midi": 42,
          "name": "F#2",
          "ticks": 180000,
          "time": 197.368125,
          "velocity": 0.6062992125984252
        },
        {
          "duration": 0.06578937500000848,
          "durationTicks": 60,
          "midi": 49,
          "name": "C#3",
          "ticks": 180000,
          "time": 197.368125,
          "velocity": 0.7401574803149606
        },
        {
          "duration": 0.06030692708330321,
          "durationTicks": 55,
          "midi": 42,
          "name": "F#2",
          "ticks": 180240,
          "time": 197.6312825,
          "velocity": 0.5433070866141733
        },
        {
          "duration": 0.06030692708330321,
          "durationTicks": 55,
          "midi": 49,
          "name": "C#3",
          "ticks": 180240,
          "time": 197.6312825,
          "velocity": 0.6456692913385826
        },
        {
          "duration": 0.06578937499998005,
          "durationTicks": 60,
          "midi": 42,
          "name": "F#2",
          "ticks": 180480,
          "time": 197.89444,
          "velocity": 0.5590551181102362
        },
        {
          "duration": 0.06030692708330321,
          "durationTicks": 55,
          "midi": 49,
          "name": "C#3",
          "ticks": 180480,
          "time": 197.89444,
          "velocity": 0.6929133858267716
        },
        {
          "duration": 0.06030692708333163,
          "durationTicks": 55,
          "midi": 42,
          "name": "F#2",
          "ticks": 180720,
          "time": 198.15759749999998,
          "velocity": 0.5511811023622047
        },
        {
          "duration": 0.04934203125000636,
          "durationTicks": 45,
          "midi": 49,
          "name": "C#3",
          "ticks": 180720,
          "time": 198.15759749999998,
          "velocity": 0.5511811023622047
        },
        {
          "duration": 0.06578937500000848,
          "durationTicks": 60,
          "midi": 42,
          "name": "F#2",
          "ticks": 180960,
          "time": 198.42075499999999,
          "velocity": 0.5511811023622047
        },
        {
          "duration": 0.06030692708333163,
          "durationTicks": 55,
          "midi": 49,
          "name": "C#3",
          "ticks": 180960,
          "time": 198.42075499999999,
          "velocity": 0.6141732283464567
        },
        {
          "duration": 0.054824479166683204,
          "durationTicks": 50,
          "midi": 42,
          "name": "F#2",
          "ticks": 181200,
          "time": 198.6839125,
          "velocity": 0.5433070866141733
        },
        {
          "duration": 0.038377135416681085,
          "durationTicks": 35,
          "midi": 49,
          "name": "C#3",
          "ticks": 181200,
          "time": 198.6839125,
          "velocity": 0.5433070866141733
        },
        {
          "duration": 0.13157874999998853,
          "durationTicks": 120,
          "midi": 44,
          "name": "G#2",
          "ticks": 181440,
          "time": 198.94707,
          "velocity": 0.8110236220472441
        },
        {
          "duration": 0.12609630208331168,
          "durationTicks": 115,
          "midi": 51,
          "name": "D#3",
          "ticks": 181440,
          "time": 198.94707,
          "velocity": 0.8346456692913385
        },
        {
          "duration": 0.12609630208331168,
          "durationTicks": 115,
          "midi": 54,
          "name": "F#3",
          "ticks": 181440,
          "time": 198.94707,
          "velocity": 0.7007874015748031
        },
        {
          "duration": 0.03289468749997582,
          "durationTicks": 30,
          "midi": 44,
          "name": "G#2",
          "ticks": 181680,
          "time": 199.2102275,
          "velocity": 0.5433070866141733
        },
        {
          "duration": 0.05482447916665478,
          "durationTicks": 50,
          "midi": 51,
          "name": "D#3",
          "ticks": 181680,
          "time": 199.2102275,
          "velocity": 0.5433070866141733
        },
        {
          "duration": 0.02741223958329897,
          "durationTicks": 25,
          "midi": 54,
          "name": "F#3",
          "ticks": 181680,
          "time": 199.2102275,
          "velocity": 0.5433070866141733
        },
        {
          "duration": 0.07127182291668532,
          "durationTicks": 65,
          "midi": 44,
          "name": "G#2",
          "ticks": 181920,
          "time": 199.47338499999998,
          "velocity": 0.6141732283464567
        },
        {
          "duration": 0.06030692708333163,
          "durationTicks": 55,
          "midi": 51,
          "name": "D#3",
          "ticks": 181920,
          "time": 199.47338499999998,
          "velocity": 0.5433070866141733
        },
        {
          "duration": 0.02741223958332739,
          "durationTicks": 25,
          "midi": 54,
          "name": "F#3",
          "ticks": 181920,
          "time": 199.47338499999998,
          "velocity": 0.5433070866141733
        },
        {
          "duration": 0.06578937500000848,
          "durationTicks": 60,
          "midi": 44,
          "name": "G#2",
          "ticks": 182160,
          "time": 199.73654249999998,
          "velocity": 0.6299212598425197
        },
        {
          "duration": 0.06578937500000848,
          "durationTicks": 60,
          "midi": 51,
          "name": "D#3",
          "ticks": 182160,
          "time": 199.73654249999998,
          "velocity": 0.5433070866141733
        },
        {
          "duration": 0.02741223958332739,
          "durationTicks": 25,
          "midi": 54,
          "name": "F#3",
          "ticks": 182160,
          "time": 199.73654249999998,
          "velocity": 0.5433070866141733
        },
        {
          "duration": 0.07127182291668532,
          "durationTicks": 65,
          "midi": 44,
          "name": "G#2",
          "ticks": 182400,
          "time": 199.9997,
          "velocity": 0.6929133858267716
        },
        {
          "duration": 0.06030692708333163,
          "durationTicks": 55,
          "midi": 51,
          "name": "D#3",
          "ticks": 182400,
          "time": 199.9997,
          "velocity": 0.6062992125984252
        },
        {
          "duration": 0.02741223958332739,
          "durationTicks": 25,
          "midi": 54,
          "name": "F#3",
          "ticks": 182400,
          "time": 199.9997,
          "velocity": 0.5433070866141733
        },
        {
          "duration": 0.054824479166683204,
          "durationTicks": 50,
          "midi": 44,
          "name": "G#2",
          "ticks": 182640,
          "time": 200.2628575,
          "velocity": 0.6614173228346457
        },
        {
          "duration": 0.03289468750000424,
          "durationTicks": 30,
          "midi": 51,
          "name": "D#3",
          "ticks": 182640,
          "time": 200.2628575,
          "velocity": 0.5433070866141733
        },
        {
          "duration": 0.02741223958332739,
          "durationTicks": 25,
          "midi": 54,
          "name": "F#3",
          "ticks": 182640,
          "time": 200.2628575,
          "velocity": 0.5433070866141733
        },
        {
          "duration": 0.06578937499998005,
          "durationTicks": 60,
          "midi": 44,
          "name": "G#2",
          "ticks": 182880,
          "time": 200.526015,
          "velocity": 0.7086614173228346
        },
        {
          "duration": 0.04385958333330109,
          "durationTicks": 40,
          "midi": 51,
          "name": "D#3",
          "ticks": 182880,
          "time": 200.526015,
          "velocity": 0.5433070866141733
        },
        {
          "duration": 0.03289468750000424,
          "durationTicks": 30,
          "midi": 54,
          "name": "F#3",
          "ticks": 182880,
          "time": 200.526015,
          "velocity": 0.5433070866141733
        },
        {
          "duration": 0.06578937500000848,
          "durationTicks": 60,
          "midi": 44,
          "name": "G#2",
          "ticks": 183120,
          "time": 200.78917249999998,
          "velocity": 0.7637795275590551
        },
        {
          "duration": 0.04385958333332951,
          "durationTicks": 40,
          "midi": 51,
          "name": "D#3",
          "ticks": 183120,
          "time": 200.78917249999998,
          "velocity": 0.5433070866141733
        },
        {
          "duration": 0.021929791666678966,
          "durationTicks": 20,
          "midi": 54,
          "name": "F#3",
          "ticks": 183120,
          "time": 200.78917249999998,
          "velocity": 0.5433070866141733
        },
        {
          "duration": 0.12061385416669168,
          "durationTicks": 110,
          "midi": 46,
          "name": "A#2",
          "ticks": 183360,
          "time": 201.05232999999998,
          "velocity": 0.7795275590551181
        },
        {
          "duration": 0.12061385416669168,
          "durationTicks": 110,
          "midi": 53,
          "name": "F3",
          "ticks": 183360,
          "time": 201.05232999999998,
          "velocity": 0.8267716535433071
        },
        {
          "duration": 0.12061385416669168,
          "durationTicks": 110,
          "midi": 58,
          "name": "A#3",
          "ticks": 183360,
          "time": 201.05232999999998,
          "velocity": 0.7795275590551181
        },
        {
          "duration": 0.07127182291668532,
          "durationTicks": 65,
          "midi": 46,
          "name": "A#2",
          "ticks": 183600,
          "time": 201.3154875,
          "velocity": 0.5905511811023622
        },
        {
          "duration": 0.07127182291668532,
          "durationTicks": 65,
          "midi": 53,
          "name": "F3",
          "ticks": 183600,
          "time": 201.3154875,
          "velocity": 0.6929133858267716
        },
        {
          "duration": 0.07127182291668532,
          "durationTicks": 65,
          "midi": 58,
          "name": "A#3",
          "ticks": 183600,
          "time": 201.3154875,
          "velocity": 0.5905511811023622
        },
        {
          "duration": 0.06578937500000848,
          "durationTicks": 60,
          "midi": 46,
          "name": "A#2",
          "ticks": 183840,
          "time": 201.578645,
          "velocity": 0.5433070866141733
        },
        {
          "duration": 0.06030692708333163,
          "durationTicks": 55,
          "midi": 53,
          "name": "F3",
          "ticks": 183840,
          "time": 201.578645,
          "velocity": 0.6850393700787402
        },
        {
          "duration": 0.06578937500000848,
          "durationTicks": 60,
          "midi": 58,
          "name": "A#3",
          "ticks": 183840,
          "time": 201.578645,
          "velocity": 0.5433070866141733
        },
        {
          "duration": 0.06578937499998005,
          "durationTicks": 60,
          "midi": 46,
          "name": "A#2",
          "ticks": 184080,
          "time": 201.8418025,
          "velocity": 0.5905511811023622
        },
        {
          "duration": 0.06030692708330321,
          "durationTicks": 55,
          "midi": 53,
          "name": "F3",
          "ticks": 184080,
          "time": 201.8418025,
          "velocity": 0.7401574803149606
        },
        {
          "duration": 0.06578937499998005,
          "durationTicks": 60,
          "midi": 58,
          "name": "A#3",
          "ticks": 184080,
          "time": 201.8418025,
          "velocity": 0.5905511811023622
        },
        {
          "duration": 0.0712718229166569,
          "durationTicks": 65,
          "midi": 46,
          "name": "A#2",
          "ticks": 184320,
          "time": 202.10496,
          "velocity": 0.6456692913385826
        },
        {
          "duration": 0.06030692708330321,
          "durationTicks": 55,
          "midi": 53,
          "name": "F3",
          "ticks": 184320,
          "time": 202.10496,
          "velocity": 0.8031496062992126
        },
        {
          "duration": 0.0712718229166569,
          "durationTicks": 65,
          "midi": 58,
          "name": "A#3",
          "ticks": 184320,
          "time": 202.10496,
          "velocity": 0.6456692913385826
        },
        {
          "duration": 0.06578937500000848,
          "durationTicks": 60,
          "midi": 46,
          "name": "A#2",
          "ticks": 184560,
          "time": 202.36811749999998,
          "velocity": 0.5433070866141733
        },
        {
          "duration": 0.06578937500000848,
          "durationTicks": 60,
          "midi": 53,
          "name": "F3",
          "ticks": 184560,
          "time": 202.36811749999998,
          "velocity": 0.7165354330708661
        },
        {
          "duration": 0.06578937500000848,
          "durationTicks": 60,
          "midi": 58,
          "name": "A#3",
          "ticks": 184560,
          "time": 202.36811749999998,
          "velocity": 0.5433070866141733
        },
        {
          "duration": 0.06030692708333163,
          "durationTicks": 55,
          "midi": 46,
          "name": "A#2",
          "ticks": 184800,
          "time": 202.631275,
          "velocity": 0.5433070866141733
        },
        {
          "duration": 0.07127182291668532,
          "durationTicks": 65,
          "midi": 53,
          "name": "F3",
          "ticks": 184800,
          "time": 202.631275,
          "velocity": 0.7637795275590551
        },
        {
          "duration": 0.06030692708333163,
          "durationTicks": 55,
          "midi": 58,
          "name": "A#3",
          "ticks": 184800,
          "time": 202.631275,
          "velocity": 0.5433070866141733
        },
        {
          "duration": 0.06578937500000848,
          "durationTicks": 60,
          "midi": 46,
          "name": "A#2",
          "ticks": 185040,
          "time": 202.8944325,
          "velocity": 0.5748031496062992
        },
        {
          "duration": 0.054824479166683204,
          "durationTicks": 50,
          "midi": 53,
          "name": "F3",
          "ticks": 185040,
          "time": 202.8944325,
          "velocity": 0.7795275590551181
        },
        {
          "duration": 0.06578937500000848,
          "durationTicks": 60,
          "midi": 58,
          "name": "A#3",
          "ticks": 185040,
          "time": 202.8944325,
          "velocity": 0.5748031496062992
        },
        {
          "duration": 0.0712718229166569,
          "durationTicks": 65,
          "midi": 46,
          "name": "A#2",
          "ticks": 185280,
          "time": 203.15759,
          "velocity": 0.5511811023622047
        },
        {
          "duration": 0.06578937499998005,
          "durationTicks": 60,
          "midi": 53,
          "name": "F3",
          "ticks": 185280,
          "time": 203.15759,
          "velocity": 0.7322834645669292
        },
        {
          "duration": 0.0712718229166569,
          "durationTicks": 65,
          "midi": 58,
          "name": "A#3",
          "ticks": 185280,
          "time": 203.15759,
          "velocity": 0.5511811023622047
        },
        {
          "duration": 0.0712718229166569,
          "durationTicks": 65,
          "midi": 46,
          "name": "A#2",
          "ticks": 185520,
          "time": 203.4207475,
          "velocity": 0.5433070866141733
        },
        {
          "duration": 0.0712718229166569,
          "durationTicks": 65,
          "midi": 53,
          "name": "F3",
          "ticks": 185520,
          "time": 203.4207475,
          "velocity": 0.7165354330708661
        },
        {
          "duration": 0.0712718229166569,
          "durationTicks": 65,
          "midi": 58,
          "name": "A#3",
          "ticks": 185520,
          "time": 203.4207475,
          "velocity": 0.5433070866141733
        },
        {
          "duration": 0.06578937500000848,
          "durationTicks": 60,
          "midi": 46,
          "name": "A#2",
          "ticks": 185760,
          "time": 203.68390499999998,
          "velocity": 0.6299212598425197
        },
        {
          "duration": 0.06578937500000848,
          "durationTicks": 60,
          "midi": 53,
          "name": "F3",
          "ticks": 185760,
          "time": 203.68390499999998,
          "velocity": 0.8188976377952756
        },
        {
          "duration": 0.06578937500000848,
          "durationTicks": 60,
          "midi": 58,
          "name": "A#3",
          "ticks": 185760,
          "time": 203.68390499999998,
          "velocity": 0.6299212598425197
        },
        {
          "duration": 0.07675427083333375,
          "durationTicks": 70,
          "midi": 46,
          "name": "A#2",
          "ticks": 186000,
          "time": 203.9470625,
          "velocity": 0.6220472440944882
        },
        {
          "duration": 0.0822367187500106,
          "durationTicks": 75,
          "midi": 53,
          "name": "F3",
          "ticks": 186000,
          "time": 203.9470625,
          "velocity": 0.84251968503937
        },
        {
          "duration": 0.07675427083333375,
          "durationTicks": 70,
          "midi": 58,
          "name": "A#3",
          "ticks": 186000,
          "time": 203.9470625,
          "velocity": 0.6220472440944882
        },
        {
          "duration": 0.07675427083333375,
          "durationTicks": 70,
          "midi": 44,
          "name": "G#2",
          "ticks": 186240,
          "time": 204.21022,
          "velocity": 0.8031496062992126
        },
        {
          "duration": 0.06578937500000848,
          "durationTicks": 60,
          "midi": 51,
          "name": "D#3",
          "ticks": 186240,
          "time": 204.21022,
          "velocity": 0.8582677165354331
        },
        {
          "duration": 0.07675427083333375,
          "durationTicks": 70,
          "midi": 56,
          "name": "G#3",
          "ticks": 186240,
          "time": 204.21022,
          "velocity": 0.8031496062992126
        },
        {
          "duration": 0.07675427083330533,
          "durationTicks": 70,
          "midi": 44,
          "name": "G#2",
          "ticks": 186480,
          "time": 204.4733775,
          "velocity": 0.5433070866141733
        },
        {
          "duration": 0.038377135416681085,
          "durationTicks": 35,
          "midi": 51,
          "name": "D#3",
          "ticks": 186480,
          "time": 204.4733775,
          "velocity": 0.5433070866141733
        },
        {
          "duration": 0.07675427083330533,
          "durationTicks": 70,
          "midi": 56,
          "name": "G#3",
          "ticks": 186480,
          "time": 204.4733775,
          "velocity": 0.5433070866141733
        },
        {
          "duration": 0.0712718229166569,
          "durationTicks": 65,
          "midi": 44,
          "name": "G#2",
          "ticks": 186720,
          "time": 204.736535,
          "velocity": 0.6929133858267716
        },
        {
          "duration": 0.07675427083330533,
          "durationTicks": 70,
          "midi": 51,
          "name": "D#3",
          "ticks": 186720,
          "time": 204.736535,
          "velocity": 0.7637795275590551
        },
        {
          "duration": 0.0712718229166569,
          "durationTicks": 65,
          "midi": 56,
          "name": "G#3",
          "ticks": 186720,
          "time": 204.736535,
          "velocity": 0.6929133858267716
        },
        {
          "duration": 0.07675427083333375,
          "durationTicks": 70,
          "midi": 44,
          "name": "G#2",
          "ticks": 186960,
          "time": 204.99969249999998,
          "velocity": 0.7637795275590551
        },
        {
          "duration": 0.07127182291668532,
          "durationTicks": 65,
          "midi": 51,
          "name": "D#3",
          "ticks": 186960,
          "time": 204.99969249999998,
          "velocity": 0.7637795275590551
        },
        {
          "duration": 0.07675427083333375,
          "durationTicks": 70,
          "midi": 56,
          "name": "G#3",
          "ticks": 186960,
          "time": 204.99969249999998,
          "velocity": 0.7637795275590551
        },
        {
          "duration": 0.08771916666668744,
          "durationTicks": 80,
          "midi": 42,
          "name": "F#2",
          "ticks": 187200,
          "time": 205.26285,
          "velocity": 0.8582677165354331
        },
        {
          "duration": 0.09320161458333587,
          "durationTicks": 85,
          "midi": 49,
          "name": "C#3",
          "ticks": 187200,
          "time": 205.26285,
          "velocity": 0.889763779527559
        },
        {
          "duration": 0.054824479166683204,
          "durationTicks": 50,
          "midi": 42,
          "name": "F#2",
          "ticks": 187440,
          "time": 205.5260075,
          "velocity": 0.5826771653543307
        },
        {
          "duration": 0.054824479166683204,
          "durationTicks": 50,
          "midi": 49,
          "name": "C#3",
          "ticks": 187440,
          "time": 205.5260075,
          "velocity": 0.7086614173228346
        },
        {
          "duration": 0.054824479166683204,
          "durationTicks": 50,
          "midi": 42,
          "name": "F#2",
          "ticks": 187680,
          "time": 205.789165,
          "velocity": 0.6929133858267716
        },
        {
          "duration": 0.054824479166683204,
          "durationTicks": 50,
          "midi": 49,
          "name": "C#3",
          "ticks": 187680,
          "time": 205.789165,
          "velocity": 0.7401574803149606
        },
        {
          "duration": 0.06030692708330321,
          "durationTicks": 55,
          "midi": 42,
          "name": "F#2",
          "ticks": 187920,
          "time": 206.0523225,
          "velocity": 0.5905511811023622
        },
        {
          "duration": 0.05482447916665478,
          "durationTicks": 50,
          "midi": 49,
          "name": "C#3",
          "ticks": 187920,
          "time": 206.0523225,
          "velocity": 0.6614173228346457
        },
        {
          "duration": 0.06030692708333163,
          "durationTicks": 55,
          "midi": 42,
          "name": "F#2",
          "ticks": 188160,
          "time": 206.31547999999998,
          "velocity": 0.6614173228346457
        },
        {
          "duration": 0.054824479166683204,
          "durationTicks": 50,
          "midi": 49,
          "name": "C#3",
          "ticks": 188160,
          "time": 206.31547999999998,
          "velocity": 0.7244094488188977
        },
        {
          "duration": 0.04385958333332951,
          "durationTicks": 40,
          "midi": 42,
          "name": "F#2",
          "ticks": 188400,
          "time": 206.57863749999999,
          "velocity": 0.5433070866141733
        },
        {
          "duration": 0.04385958333332951,
          "durationTicks": 40,
          "midi": 49,
          "name": "C#3",
          "ticks": 188400,
          "time": 206.57863749999999,
          "velocity": 0.5905511811023622
        },
        {
          "duration": 0.06578937500000848,
          "durationTicks": 60,
          "midi": 42,
          "name": "F#2",
          "ticks": 188640,
          "time": 206.841795,
          "velocity": 0.6614173228346457
        },
        {
          "duration": 0.054824479166683204,
          "durationTicks": 50,
          "midi": 49,
          "name": "C#3",
          "ticks": 188640,
          "time": 206.841795,
          "velocity": 0.7244094488188977
        },
        {
          "duration": 0.04934203125000636,
          "durationTicks": 45,
          "midi": 42,
          "name": "F#2",
          "ticks": 188880,
          "time": 207.1049525,
          "velocity": 0.7086614173228346
        },
        {
          "duration": 0.04385958333332951,
          "durationTicks": 40,
          "midi": 49,
          "name": "C#3",
          "ticks": 188880,
          "time": 207.1049525,
          "velocity": 0.7086614173228346
        },
        {
          "duration": 0.1425436458333138,
          "durationTicks": 130,
          "midi": 44,
          "name": "G#2",
          "ticks": 189120,
          "time": 207.36811,
          "velocity": 0.8582677165354331
        },
        {
          "duration": 0.1425436458333138,
          "durationTicks": 130,
          "midi": 51,
          "name": "D#3",
          "ticks": 189120,
          "time": 207.36811,
          "velocity": 0.8110236220472441
        },
        {
          "duration": 0.1535085416666675,
          "durationTicks": 140,
          "midi": 54,
          "name": "F#3",
          "ticks": 189120,
          "time": 207.36811,
          "velocity": 0.7244094488188977
        },
        {
          "duration": 0.06030692708333163,
          "durationTicks": 55,
          "midi": 44,
          "name": "G#2",
          "ticks": 189360,
          "time": 207.63126749999998,
          "velocity": 0.5905511811023622
        },
        {
          "duration": 0.038377135416681085,
          "durationTicks": 35,
          "midi": 51,
          "name": "D#3",
          "ticks": 189360,
          "time": 207.63126749999998,
          "velocity": 0.5433070866141733
        },
        {
          "duration": 0.021929791666678966,
          "durationTicks": 20,
          "midi": 54,
          "name": "F#3",
          "ticks": 189360,
          "time": 207.63126749999998,
          "velocity": 0.5433070866141733
        },
        {
          "duration": 0.06030692708333163,
          "durationTicks": 55,
          "midi": 44,
          "name": "G#2",
          "ticks": 189600,
          "time": 207.89442499999998,
          "velocity": 0.7637795275590551
        },
        {
          "duration": 0.02741223958332739,
          "durationTicks": 25,
          "midi": 51,
          "name": "D#3",
          "ticks": 189600,
          "time": 207.89442499999998,
          "velocity": 0.5433070866141733
        },
        {
          "duration": 0.03289468750000424,
          "durationTicks": 30,
          "midi": 54,
          "name": "F#3",
          "ticks": 189600,
          "time": 207.89442499999998,
          "velocity": 0.5433070866141733
        },
        {
          "duration": 0.06030692708333163,
          "durationTicks": 55,
          "midi": 44,
          "name": "G#2",
          "ticks": 189840,
          "time": 208.1575825,
          "velocity": 0.6141732283464567
        },
        {
          "duration": 0.04934203125000636,
          "durationTicks": 45,
          "midi": 51,
          "name": "D#3",
          "ticks": 189840,
          "time": 208.1575825,
          "velocity": 0.5433070866141733
        },
        {
          "duration": 0.03289468750000424,
          "durationTicks": 30,
          "midi": 54,
          "name": "F#3",
          "ticks": 189840,
          "time": 208.1575825,
          "velocity": 0.5433070866141733
        },
        {
          "duration": 0.054824479166683204,
          "durationTicks": 50,
          "midi": 44,
          "name": "G#2",
          "ticks": 190080,
          "time": 208.42074,
          "velocity": 0.6929133858267716
        },
        {
          "duration": 0.038377135416681085,
          "durationTicks": 35,
          "midi": 51,
          "name": "D#3",
          "ticks": 190080,
          "time": 208.42074,
          "velocity": 0.5433070866141733
        },
        {
          "duration": 0.02741223958332739,
          "durationTicks": 25,
          "midi": 54,
          "name": "F#3",
          "ticks": 190080,
          "time": 208.42074,
          "velocity": 0.5433070866141733
        },
        {
          "duration": 0.05482447916665478,
          "durationTicks": 50,
          "midi": 44,
          "name": "G#2",
          "ticks": 190320,
          "time": 208.6838975,
          "velocity": 0.6614173228346457
        },
        {
          "duration": 0.038377135416681085,
          "durationTicks": 35,
          "midi": 51,
          "name": "D#3",
          "ticks": 190320,
          "time": 208.6838975,
          "velocity": 0.5433070866141733
        },
        {
          "duration": 0.021929791666678966,
          "durationTicks": 20,
          "midi": 54,
          "name": "F#3",
          "ticks": 190320,
          "time": 208.6838975,
          "velocity": 0.5433070866141733
        },
        {
          "duration": 0.06030692708333163,
          "durationTicks": 55,
          "midi": 44,
          "name": "G#2",
          "ticks": 190560,
          "time": 208.94705499999998,
          "velocity": 0.7401574803149606
        },
        {
          "duration": 0.02741223958332739,
          "durationTicks": 25,
          "midi": 51,
          "name": "D#3",
          "ticks": 190560,
          "time": 208.94705499999998,
          "velocity": 0.5433070866141733
        },
        {
          "duration": 0.02741223958332739,
          "durationTicks": 25,
          "midi": 54,
          "name": "F#3",
          "ticks": 190560,
          "time": 208.94705499999998,
          "velocity": 0.5433070866141733
        },
        {
          "duration": 0.06578937500000848,
          "durationTicks": 60,
          "midi": 44,
          "name": "G#2",
          "ticks": 190800,
          "time": 209.21021249999998,
          "velocity": 0.7874015748031497
        },
        {
          "duration": 0.01644734375000212,
          "durationTicks": 15,
          "midi": 51,
          "name": "D#3",
          "ticks": 190800,
          "time": 209.21021249999998,
          "velocity": 0.5433070866141733
        },
        {
          "duration": 0.038377135416681085,
          "durationTicks": 35,
          "midi": 54,
          "name": "F#3",
          "ticks": 190800,
          "time": 209.21021249999998,
          "velocity": 0.5433070866141733
        },
        {
          "duration": 0.09320161458333587,
          "durationTicks": 85,
          "midi": 46,
          "name": "A#2",
          "ticks": 191040,
          "time": 209.47337,
          "velocity": 0.9133858267716536
        },
        {
          "duration": 0.0822367187500106,
          "durationTicks": 75,
          "midi": 53,
          "name": "F3",
          "ticks": 191040,
          "time": 209.47337,
          "velocity": 0.905511811023622
        },
        {
          "duration": 0.0822367187500106,
          "durationTicks": 75,
          "midi": 46,
          "name": "A#2",
          "ticks": 191280,
          "time": 209.7365275,
          "velocity": 0.5433070866141733
        },
        {
          "duration": 0.06030692708333163,
          "durationTicks": 55,
          "midi": 53,
          "name": "F3",
          "ticks": 191280,
          "time": 209.7365275,
          "velocity": 0.5433070866141733
        },
        {
          "duration": 0.07675427083330533,
          "durationTicks": 70,
          "midi": 46,
          "name": "A#2",
          "ticks": 191520,
          "time": 209.999685,
          "velocity": 0.6141732283464567
        },
        {
          "duration": 0.06578937499998005,
          "durationTicks": 60,
          "midi": 53,
          "name": "F3",
          "ticks": 191520,
          "time": 209.999685,
          "velocity": 0.8031496062992126
        },
        {
          "duration": 0.0712718229166569,
          "durationTicks": 65,
          "midi": 46,
          "name": "A#2",
          "ticks": 191760,
          "time": 210.2628425,
          "velocity": 0.6929133858267716
        },
        {
          "duration": 0.05482447916665478,
          "durationTicks": 50,
          "midi": 53,
          "name": "F3",
          "ticks": 191760,
          "time": 210.2628425,
          "velocity": 0.8346456692913385
        },
        {
          "duration": 0.06030692708333163,
          "durationTicks": 55,
          "midi": 46,
          "name": "A#2",
          "ticks": 192000,
          "time": 210.52599999999998,
          "velocity": 0.5826771653543307
        },
        {
          "duration": 0.04385958333332951,
          "durationTicks": 40,
          "midi": 53,
          "name": "F3",
          "ticks": 192000,
          "time": 210.52599999999998,
          "velocity": 0.7401574803149606
        },
        {
          "duration": 0.04934203125000636,
          "durationTicks": 45,
          "midi": 46,
          "name": "A#2",
          "ticks": 192240,
          "time": 210.7891575,
          "velocity": 0.5433070866141733
        },
        {
          "duration": 0.04934203125000636,
          "durationTicks": 45,
          "midi": 53,
          "name": "F3",
          "ticks": 192240,
          "time": 210.7891575,
          "velocity": 0.7401574803149606
        },
        {
          "duration": 0.054824479166683204,
          "durationTicks": 50,
          "midi": 46,
          "name": "A#2",
          "ticks": 192480,
          "time": 211.052315,
          "velocity": 0.5748031496062992
        },
        {
          "duration": 0.04934203125000636,
          "durationTicks": 45,
          "midi": 53,
          "name": "F3",
          "ticks": 192480,
          "time": 211.052315,
          "velocity": 0.6692913385826772
        },
        {
          "duration": 0.054824479166683204,
          "durationTicks": 50,
          "midi": 46,
          "name": "A#2",
          "ticks": 192720,
          "time": 211.3154725,
          "velocity": 0.5433070866141733
        },
        {
          "duration": 0.04385958333332951,
          "durationTicks": 40,
          "midi": 53,
          "name": "F3",
          "ticks": 192720,
          "time": 211.3154725,
          "velocity": 0.6614173228346457
        },
        {
          "duration": 0.23026281249997282,
          "durationTicks": 210,
          "midi": 46,
          "name": "A#2",
          "ticks": 192960,
          "time": 211.57863,
          "velocity": 0.8267716535433071
        },
        {
          "duration": 0.17543833333334646,
          "durationTicks": 160,
          "midi": 53,
          "name": "F3",
          "ticks": 193200,
          "time": 211.84178749999998,
          "velocity": 0.6929133858267716
        },
        {
          "duration": 0.07675427083333375,
          "durationTicks": 70,
          "midi": 58,
          "name": "A#3",
          "ticks": 193440,
          "time": 212.104945,
          "velocity": 0.7086614173228346
        },
        {
          "duration": 0.09868406250001271,
          "durationTicks": 90,
          "midi": 65,
          "name": "F4",
          "ticks": 193440,
          "time": 212.104945,
          "velocity": 0.6299212598425197
        },
        {
          "duration": 0.2796048437499792,
          "durationTicks": 255,
          "midi": 56,
          "name": "G#3",
          "ticks": 193920,
          "time": 212.63126,
          "velocity": 0.6929133858267716
        },
        {
          "duration": 0.24122770833332652,
          "durationTicks": 220,
          "midi": 65,
          "name": "F4",
          "ticks": 193920,
          "time": 212.63126,
          "velocity": 0.6299212598425197
        },
        {
          "duration": 0.1260963020833401,
          "durationTicks": 115,
          "midi": 44,
          "name": "G#2",
          "ticks": 194400,
          "time": 213.15757499999998,
          "velocity": 0.7086614173228346
        },
        {
          "duration": 0.11513140625001483,
          "durationTicks": 105,
          "midi": 53,
          "name": "F3",
          "ticks": 194400,
          "time": 213.15757499999998,
          "velocity": 0.6299212598425197
        },
        {
          "duration": 0.46600807291667934,
          "durationTicks": 425,
          "midi": 43,
          "name": "G2",
          "ticks": 194880,
          "time": 213.68389,
          "velocity": 0.8503937007874016
        },
        {
          "duration": 0.1425436458333138,
          "durationTicks": 130,
          "midi": 51,
          "name": "D#3",
          "ticks": 195360,
          "time": 214.210205,
          "velocity": 0.7401574803149606
        },
        {
          "duration": 0.10416651041668956,
          "durationTicks": 95,
          "midi": 58,
          "name": "A#3",
          "ticks": 195840,
          "time": 214.73651999999998,
          "velocity": 0.6456692913385826
        },
        {
          "duration": 0.08223671874998217,
          "durationTicks": 75,
          "midi": 43,
          "name": "G2",
          "ticks": 196320,
          "time": 215.262835,
          "velocity": 0.8188976377952756
        },
        {
          "duration": 0.13157875000001695,
          "durationTicks": 120,
          "midi": 42,
          "name": "F#2",
          "ticks": 196800,
          "time": 215.78914999999998,
          "velocity": 0.8267716535433071
        },
        {
          "duration": 0.18640322916667174,
          "durationTicks": 170,
          "midi": 54,
          "name": "F#3",
          "ticks": 197280,
          "time": 216.315465,
          "velocity": 0.5748031496062992
        },
        {
          "duration": 0.31798197916666027,
          "durationTicks": 290,
          "midi": 60,
          "name": "C4",
          "ticks": 197760,
          "time": 216.84178,
          "velocity": 0.7401574803149606
        },
        {
          "duration": 0.28508729166668445,
          "durationTicks": 260,
          "midi": 54,
          "name": "F#3",
          "ticks": 198240,
          "time": 217.36809499999998,
          "velocity": 0.7637795275590551
        },
        {
          "duration": 0.6085517187499931,
          "durationTicks": 555,
          "midi": 42,
          "name": "F#2",
          "ticks": 198720,
          "time": 217.89441,
          "velocity": 0.7874015748031497
        },
        {
          "duration": 0.34539421874998766,
          "durationTicks": 315,
          "midi": 49,
          "name": "C#3",
          "ticks": 198960,
          "time": 218.1575675,
          "velocity": 0.7244094488188977
        },
        {
          "duration": 0.08771916666665902,
          "durationTicks": 80,
          "midi": 56,
          "name": "G#3",
          "ticks": 199200,
          "time": 218.420725,
          "velocity": 0.7874015748031497
        },
        {
          "duration": 0.6030692708333163,
          "durationTicks": 550,
          "midi": 39,
          "name": "D#2",
          "ticks": 199680,
          "time": 218.94704,
          "velocity": 0.7795275590551181
        },
        {
          "duration": 0.3508766666666645,
          "durationTicks": 320,
          "midi": 46,
          "name": "A#2",
          "ticks": 199920,
          "time": 219.2101975,
          "velocity": 0.5905511811023622
        },
        {
          "duration": 0.13706119791666538,
          "durationTicks": 125,
          "midi": 55,
          "name": "G3",
          "ticks": 200160,
          "time": 219.473355,
          "velocity": 0.7874015748031497
        },
        {
          "duration": 0.6798235416666785,
          "durationTicks": 620,
          "midi": 32,
          "name": "G#1",
          "ticks": 200640,
          "time": 219.99966999999998,
          "velocity": 0.84251968503937
        },
        {
          "duration": 0.6853059895833269,
          "durationTicks": 625,
          "midi": 44,
          "name": "G#2",
          "ticks": 200640,
          "time": 219.99966999999998,
          "velocity": 0.7480314960629921
        },
        {
          "duration": 0.38377135416666874,
          "durationTicks": 350,
          "midi": 51,
          "name": "D#3",
          "ticks": 200880,
          "time": 220.2628275,
          "velocity": 0.5275590551181102
        },
        {
          "duration": 0.12061385416666326,
          "durationTicks": 110,
          "midi": 56,
          "name": "G#3",
          "ticks": 201120,
          "time": 220.525985,
          "velocity": 0.7637795275590551
        },
        {
          "duration": 0.6798235416666785,
          "durationTicks": 620,
          "midi": 32,
          "name": "G#1",
          "ticks": 201600,
          "time": 221.0523,
          "velocity": 0.7480314960629921
        },
        {
          "duration": 0.6798235416666785,
          "durationTicks": 620,
          "midi": 44,
          "name": "G#2",
          "ticks": 201600,
          "time": 221.0523,
          "velocity": 0.8267716535433071
        },
        {
          "duration": 0.16447343749999277,
          "durationTicks": 150,
          "midi": 30,
          "name": "F#1",
          "ticks": 202560,
          "time": 222.10493,
          "velocity": 1
        },
        {
          "duration": 0.21929791666667597,
          "durationTicks": 200,
          "midi": 42,
          "name": "F#2",
          "ticks": 202560,
          "time": 222.10493,
          "velocity": 1
        },
        {
          "duration": 0.10964895833330957,
          "durationTicks": 100,
          "midi": 30,
          "name": "F#1",
          "ticks": 202800,
          "time": 222.3680875,
          "velocity": 0.6692913385826772
        },
        {
          "duration": 0.04934203125000636,
          "durationTicks": 45,
          "midi": 30,
          "name": "F#1",
          "ticks": 203040,
          "time": 222.63124499999998,
          "velocity": 0.5039370078740157
        },
        {
          "duration": 0.10416651041668956,
          "durationTicks": 95,
          "midi": 42,
          "name": "F#2",
          "ticks": 203040,
          "time": 222.63124499999998,
          "velocity": 0.5196850393700787
        },
        {
          "duration": 0.10964895833333799,
          "durationTicks": 100,
          "midi": 42,
          "name": "F#2",
          "ticks": 203040,
          "time": 222.63124499999998,
          "velocity": 0.49606299212598426
        },
        {
          "duration": 0.06578937500000848,
          "durationTicks": 60,
          "midi": 30,
          "name": "F#1",
          "ticks": 203280,
          "time": 222.89440249999998,
          "velocity": 0.5826771653543307
        },
        {
          "duration": 0.07675427083333375,
          "durationTicks": 70,
          "midi": 30,
          "name": "F#1",
          "ticks": 203280,
          "time": 222.89440249999998,
          "velocity": 0.7480314960629921
        },
        {
          "duration": 0.09868406250001271,
          "durationTicks": 90,
          "midi": 42,
          "name": "F#2",
          "ticks": 203280,
          "time": 222.89440249999998,
          "velocity": 0.5275590551181102
        },
        {
          "duration": 0.06578937500000848,
          "durationTicks": 60,
          "midi": 30,
          "name": "F#1",
          "ticks": 203520,
          "time": 223.15756,
          "velocity": 0.7322834645669292
        },
        {
          "duration": 0.09868406250001271,
          "durationTicks": 90,
          "midi": 42,
          "name": "F#2",
          "ticks": 203520,
          "time": 223.15756,
          "velocity": 0.5433070866141733
        },
        {
          "duration": 0.10416651041668956,
          "durationTicks": 95,
          "midi": 42,
          "name": "F#2",
          "ticks": 203520,
          "time": 223.15756,
          "velocity": 0.6220472440944882
        },
        {
          "duration": 0.06030692708333163,
          "durationTicks": 55,
          "midi": 30,
          "name": "F#1",
          "ticks": 203760,
          "time": 223.4207175,
          "velocity": 0.8267716535433071
        },
        {
          "duration": 0.06030692708333163,
          "durationTicks": 55,
          "midi": 30,
          "name": "F#1",
          "ticks": 203760,
          "time": 223.4207175,
          "velocity": 0.7322834645669292
        },
        {
          "duration": 0.09868406249998429,
          "durationTicks": 90,
          "midi": 42,
          "name": "F#2",
          "ticks": 203760,
          "time": 223.4207175,
          "velocity": 0.5196850393700787
        },
        {
          "duration": 0.06030692708330321,
          "durationTicks": 55,
          "midi": 30,
          "name": "F#1",
          "ticks": 204000,
          "time": 223.683875,
          "velocity": 0.6141732283464567
        },
        {
          "duration": 0.10416651041666114,
          "durationTicks": 95,
          "midi": 42,
          "name": "F#2",
          "ticks": 204000,
          "time": 223.683875,
          "velocity": 0.6220472440944882
        },
        {
          "duration": 0.17543833333331804,
          "durationTicks": 160,
          "midi": 42,
          "name": "F#2",
          "ticks": 204000,
          "time": 223.683875,
          "velocity": 0.3543307086614173
        },
        {
          "duration": 0.09868406250001271,
          "durationTicks": 90,
          "midi": 30,
          "name": "F#1",
          "ticks": 204240,
          "time": 223.94703249999998,
          "velocity": 0.7637795275590551
        },
        {
          "duration": 0.1260963020833401,
          "durationTicks": 115,
          "midi": 42,
          "name": "F#2",
          "ticks": 204240,
          "time": 223.94703249999998,
          "velocity": 0.5039370078740157
        },
        {
          "duration": 0.09320161458333587,
          "durationTicks": 85,
          "midi": 30,
          "name": "F#1",
          "ticks": 204480,
          "time": 224.21018999999998,
          "velocity": 0.5118110236220472
        },
        {
          "duration": 0.10416651041668956,
          "durationTicks": 95,
          "midi": 30,
          "name": "F#1",
          "ticks": 204480,
          "time": 224.21018999999998,
          "velocity": 0.8031496062992126
        },
        {
          "duration": 0.10964895833333799,
          "durationTicks": 100,
          "midi": 42,
          "name": "F#2",
          "ticks": 204480,
          "time": 224.21018999999998,
          "velocity": 0.6141732283464567
        },
        {
          "duration": 0.09320161458333587,
          "durationTicks": 85,
          "midi": 30,
          "name": "F#1",
          "ticks": 204720,
          "time": 224.4733475,
          "velocity": 0.84251968503937
        },
        {
          "duration": 0.12061385416669168,
          "durationTicks": 110,
          "midi": 42,
          "name": "F#2",
          "ticks": 204720,
          "time": 224.4733475,
          "velocity": 0.5748031496062992
        },
        {
          "duration": 0.2521926041666802,
          "durationTicks": 230,
          "midi": 42,
          "name": "F#2",
          "ticks": 204720,
          "time": 224.4733475,
          "velocity": 0.7007874015748031
        },
        {
          "duration": 0.07127182291668532,
          "durationTicks": 65,
          "midi": 30,
          "name": "F#1",
          "ticks": 204960,
          "time": 224.736505,
          "velocity": 0.8031496062992126
        },
        {
          "duration": 0.07675427083333375,
          "durationTicks": 70,
          "midi": 30,
          "name": "F#1",
          "ticks": 204960,
          "time": 224.736505,
          "velocity": 0.7637795275590551
        },
        {
          "duration": 0.06578937499998005,
          "durationTicks": 60,
          "midi": 30,
          "name": "F#1",
          "ticks": 205200,
          "time": 224.9996625,
          "velocity": 0.7480314960629921
        },
        {
          "duration": 0.09868406249998429,
          "durationTicks": 90,
          "midi": 42,
          "name": "F#2",
          "ticks": 205200,
          "time": 224.9996625,
          "velocity": 0.7322834645669292
        },
        {
          "duration": 0.10416651041666114,
          "durationTicks": 95,
          "midi": 42,
          "name": "F#2",
          "ticks": 205200,
          "time": 224.9996625,
          "velocity": 0.6535433070866141
        },
        {
          "duration": 0.054824479166683204,
          "durationTicks": 50,
          "midi": 30,
          "name": "F#1",
          "ticks": 205440,
          "time": 225.26281999999998,
          "velocity": 0.8267716535433071
        },
        {
          "duration": 0.06578937500000848,
          "durationTicks": 60,
          "midi": 30,
          "name": "F#1",
          "ticks": 205440,
          "time": 225.26281999999998,
          "velocity": 0.5275590551181102
        },
        {
          "duration": 0.08771916666668744,
          "durationTicks": 80,
          "midi": 30,
          "name": "F#1",
          "ticks": 205440,
          "time": 225.26281999999998,
          "velocity": 0.44881889763779526
        },
        {
          "duration": 0.11513140625001483,
          "durationTicks": 105,
          "midi": 42,
          "name": "F#2",
          "ticks": 205440,
          "time": 225.26281999999998,
          "velocity": 0.6220472440944882
        },
        {
          "duration": 0.09320161458333587,
          "durationTicks": 85,
          "midi": 30,
          "name": "F#1",
          "ticks": 205680,
          "time": 225.52597749999998,
          "velocity": 0.6220472440944882
        },
        {
          "duration": 0.09868406250001271,
          "durationTicks": 90,
          "midi": 42,
          "name": "F#2",
          "ticks": 205680,
          "time": 225.52597749999998,
          "velocity": 0.6535433070866141
        },
        {
          "duration": 0.11513140625001483,
          "durationTicks": 105,
          "midi": 42,
          "name": "F#2",
          "ticks": 205680,
          "time": 225.52597749999998,
          "velocity": 0.7322834645669292
        },
        {
          "duration": 0.09320161458333587,
          "durationTicks": 85,
          "midi": 30,
          "name": "F#1",
          "ticks": 205920,
          "time": 225.789135,
          "velocity": 0.6141732283464567
        },
        {
          "duration": 0.09868406250001271,
          "durationTicks": 90,
          "midi": 30,
          "name": "F#1",
          "ticks": 205920,
          "time": 225.789135,
          "velocity": 0.952755905511811
        },
        {
          "duration": 0.09868406250001271,
          "durationTicks": 90,
          "midi": 42,
          "name": "F#2",
          "ticks": 205920,
          "time": 225.789135,
          "velocity": 0.7795275590551181
        },
        {
          "duration": 0.08771916666668744,
          "durationTicks": 80,
          "midi": 30,
          "name": "F#1",
          "ticks": 206160,
          "time": 226.0522925,
          "velocity": 0.9212598425196851
        },
        {
          "duration": 0.09868406249998429,
          "durationTicks": 90,
          "midi": 42,
          "name": "F#2",
          "ticks": 206160,
          "time": 226.0522925,
          "velocity": 0.6141732283464567
        },
        {
          "duration": 0.10416651041666114,
          "durationTicks": 95,
          "midi": 42,
          "name": "F#2",
          "ticks": 206160,
          "time": 226.0522925,
          "velocity": 0.4251968503937008
        },
        {
          "duration": 0.09320161458330745,
          "durationTicks": 85,
          "midi": 30,
          "name": "F#1",
          "ticks": 206400,
          "time": 226.31545,
          "velocity": 0.6456692913385826
        },
        {
          "duration": 0.10416651041666114,
          "durationTicks": 95,
          "midi": 30,
          "name": "F#1",
          "ticks": 206400,
          "time": 226.31545,
          "velocity": 0.7795275590551181
        },
        {
          "duration": 0.10964895833330957,
          "durationTicks": 100,
          "midi": 42,
          "name": "F#2",
          "ticks": 206400,
          "time": 226.31545,
          "velocity": 0.6456692913385826
        },
        {
          "duration": 0.10964895833330957,
          "durationTicks": 100,
          "midi": 30,
          "name": "F#1",
          "ticks": 206640,
          "time": 226.5786075,
          "velocity": 0.7165354330708661
        },
        {
          "duration": 0.12609630208331168,
          "durationTicks": 115,
          "midi": 42,
          "name": "F#2",
          "ticks": 206640,
          "time": 226.5786075,
          "velocity": 0.5275590551181102
        },
        {
          "duration": 0.09320161458333587,
          "durationTicks": 85,
          "midi": 30,
          "name": "F#1",
          "ticks": 206880,
          "time": 226.84176499999998,
          "velocity": 0.5905511811023622
        },
        {
          "duration": 0.11513140625001483,
          "durationTicks": 105,
          "midi": 42,
          "name": "F#2",
          "ticks": 206880,
          "time": 226.84176499999998,
          "velocity": 0.7007874015748031
        },
        {
          "duration": 0.11513140625001483,
          "durationTicks": 105,
          "midi": 42,
          "name": "F#2",
          "ticks": 206880,
          "time": 226.84176499999998,
          "velocity": 0.6535433070866141
        },
        {
          "duration": 0.09868406250001271,
          "durationTicks": 90,
          "midi": 30,
          "name": "F#1",
          "ticks": 207120,
          "time": 227.1049225,
          "velocity": 0.7480314960629921
        },
        {
          "duration": 0.10964895833333799,
          "durationTicks": 100,
          "midi": 42,
          "name": "F#2",
          "ticks": 207120,
          "time": 227.1049225,
          "velocity": 0.7165354330708661
        },
        {
          "duration": 0.09868406249998429,
          "durationTicks": 90,
          "midi": 30,
          "name": "F#1",
          "ticks": 207360,
          "time": 227.36808,
          "velocity": 0.7165354330708661
        },
        {
          "duration": 0.10416651041666114,
          "durationTicks": 95,
          "midi": 30,
          "name": "F#1",
          "ticks": 207360,
          "time": 227.36808,
          "velocity": 0.7165354330708661
        },
        {
          "duration": 0.10416651041666114,
          "durationTicks": 95,
          "midi": 42,
          "name": "F#2",
          "ticks": 207360,
          "time": 227.36808,
          "velocity": 0.6850393700787402
        },
        {
          "duration": 0.13157874999998853,
          "durationTicks": 120,
          "midi": 42,
          "name": "F#2",
          "ticks": 207360,
          "time": 227.36808,
          "velocity": 0.6692913385826772
        },
        {
          "duration": 0.10964895833330957,
          "durationTicks": 100,
          "midi": 30,
          "name": "F#1",
          "ticks": 207600,
          "time": 227.6312375,
          "velocity": 0.7637795275590551
        },
        {
          "duration": 0.12061385416666326,
          "durationTicks": 110,
          "midi": 42,
          "name": "F#2",
          "ticks": 207600,
          "time": 227.6312375,
          "velocity": 0.8031496062992126
        },
        {
          "duration": 0.12061385416666326,
          "durationTicks": 110,
          "midi": 30,
          "name": "F#1",
          "ticks": 207840,
          "time": 227.894395,
          "velocity": 0.8031496062992126
        },
        {
          "duration": 0.10416651041666114,
          "durationTicks": 95,
          "midi": 42,
          "name": "F#2",
          "ticks": 207840,
          "time": 227.894395,
          "velocity": 0.7322834645669292
        },
        {
          "duration": 0.10964895833333799,
          "durationTicks": 100,
          "midi": 30,
          "name": "F#1",
          "ticks": 208080,
          "time": 228.15755249999998,
          "velocity": 0.5826771653543307
        },
        {
          "duration": 0.11513140625001483,
          "durationTicks": 105,
          "midi": 42,
          "name": "F#2",
          "ticks": 208080,
          "time": 228.15755249999998,
          "velocity": 0.7637795275590551
        },
        {
          "duration": 0.10416651041668956,
          "durationTicks": 95,
          "midi": 30,
          "name": "F#1",
          "ticks": 208320,
          "time": 228.42070999999999,
          "velocity": 0.6220472440944882
        },
        {
          "duration": 0.10964895833333799,
          "durationTicks": 100,
          "midi": 42,
          "name": "F#2",
          "ticks": 208320,
          "time": 228.42070999999999,
          "velocity": 0.6456692913385826
        },
        {
          "duration": 0.12061385416666326,
          "durationTicks": 110,
          "midi": 30,
          "name": "F#1",
          "ticks": 208560,
          "time": 228.6838675,
          "velocity": 0.7165354330708661
        },
        {
          "duration": 0.12609630208331168,
          "durationTicks": 115,
          "midi": 42,
          "name": "F#2",
          "ticks": 208560,
          "time": 228.6838675,
          "velocity": 0.6850393700787402
        },
        {
          "duration": 0.10964895833330957,
          "durationTicks": 100,
          "midi": 30,
          "name": "F#1",
          "ticks": 208800,
          "time": 228.947025,
          "velocity": 0.5984251968503937
        },
        {
          "duration": 0.11513140624998641,
          "durationTicks": 105,
          "midi": 30,
          "name": "F#1",
          "ticks": 208800,
          "time": 228.947025,
          "velocity": 0.7795275590551181
        },
        {
          "duration": 0.10964895833330957,
          "durationTicks": 100,
          "midi": 42,
          "name": "F#2",
          "ticks": 208800,
          "time": 228.947025,
          "velocity": 0.5826771653543307
        },
        {
          "duration": 0.12609630208331168,
          "durationTicks": 115,
          "midi": 30,
          "name": "F#1",
          "ticks": 209040,
          "time": 229.2101825,
          "velocity": 0.6535433070866141
        },
        {
          "duration": 0.08771916666665902,
          "durationTicks": 80,
          "midi": 42,
          "name": "F#2",
          "ticks": 209040,
          "time": 229.2101825,
          "velocity": 0.8267716535433071
        },
        {
          "duration": 0.10416651041666114,
          "durationTicks": 95,
          "midi": 42,
          "name": "F#2",
          "ticks": 209040,
          "time": 229.2101825,
          "velocity": 0.7637795275590551
        },
        {
          "duration": 0.08771916666668744,
          "durationTicks": 80,
          "midi": 30,
          "name": "F#1",
          "ticks": 209280,
          "time": 229.47333999999998,
          "velocity": 0.7795275590551181
        },
        {
          "duration": 0.06030692708333163,
          "durationTicks": 55,
          "midi": 42,
          "name": "F#2",
          "ticks": 209280,
          "time": 229.47333999999998,
          "velocity": 0.5039370078740157
        },
        {
          "duration": 0.09320161458333587,
          "durationTicks": 85,
          "midi": 30,
          "name": "F#1",
          "ticks": 209520,
          "time": 229.73649749999998,
          "velocity": 0.5354330708661418
        },
        {
          "duration": 0.09868406250001271,
          "durationTicks": 90,
          "midi": 42,
          "name": "F#2",
          "ticks": 209520,
          "time": 229.73649749999998,
          "velocity": 0.6141732283464567
        },
        {
          "duration": 0.12061385416669168,
          "durationTicks": 110,
          "midi": 42,
          "name": "F#2",
          "ticks": 209520,
          "time": 229.73649749999998,
          "velocity": 0.7795275590551181
        },
        {
          "duration": 0.07127182291668532,
          "durationTicks": 65,
          "midi": 30,
          "name": "F#1",
          "ticks": 209760,
          "time": 229.999655,
          "velocity": 0.6850393700787402
        },
        {
          "duration": 0.10416651041668956,
          "durationTicks": 95,
          "midi": 42,
          "name": "F#2",
          "ticks": 209760,
          "time": 229.999655,
          "velocity": 0.6141732283464567
        },
        {
          "duration": 0.09320161458330745,
          "durationTicks": 85,
          "midi": 30,
          "name": "F#1",
          "ticks": 210000,
          "time": 230.2628125,
          "velocity": 0.7322834645669292
        },
        {
          "duration": 0.10416651041666114,
          "durationTicks": 95,
          "midi": 30,
          "name": "F#1",
          "ticks": 210000,
          "time": 230.2628125,
          "velocity": 0.7007874015748031
        },
        {
          "duration": 0.13706119791666538,
          "durationTicks": 125,
          "midi": 42,
          "name": "F#2",
          "ticks": 210000,
          "time": 230.2628125,
          "velocity": 0.6850393700787402
        },
        {
          "duration": 0.12061385416666326,
          "durationTicks": 110,
          "midi": 30,
          "name": "F#1",
          "ticks": 210240,
          "time": 230.52597,
          "velocity": 0.6692913385826772
        },
        {
          "duration": 0.10964895833330957,
          "durationTicks": 100,
          "midi": 42,
          "name": "F#2",
          "ticks": 210240,
          "time": 230.52597,
          "velocity": 0.6850393700787402
        },
        {
          "duration": 0.038377135416681085,
          "durationTicks": 35,
          "midi": 30,
          "name": "F#1",
          "ticks": 210480,
          "time": 230.78912749999998,
          "velocity": 0.6141732283464567
        },
        {
          "duration": 0.07675427083333375,
          "durationTicks": 70,
          "midi": 30,
          "name": "F#1",
          "ticks": 210480,
          "time": 230.78912749999998,
          "velocity": 0.5748031496062992
        },
        {
          "duration": 0.10964895833333799,
          "durationTicks": 100,
          "midi": 42,
          "name": "F#2",
          "ticks": 210480,
          "time": 230.78912749999998,
          "velocity": 0.6692913385826772
        },
        {
          "duration": 0.11513140625001483,
          "durationTicks": 105,
          "midi": 42,
          "name": "F#2",
          "ticks": 210480,
          "time": 230.78912749999998,
          "velocity": 0.6220472440944882
        },
        {
          "duration": 0.07675427083333375,
          "durationTicks": 70,
          "midi": 30,
          "name": "F#1",
          "ticks": 210720,
          "time": 231.05228499999998,
          "velocity": 0.7637795275590551
        },
        {
          "duration": 0.11513140625001483,
          "durationTicks": 105,
          "midi": 42,
          "name": "F#2",
          "ticks": 210720,
          "time": 231.05228499999998,
          "velocity": 0.5669291338582677
        },
        {
          "duration": 0.10964895833333799,
          "durationTicks": 100,
          "midi": 30,
          "name": "F#1",
          "ticks": 210960,
          "time": 231.3154425,
          "velocity": 0.47244094488188976
        },
        {
          "duration": 0.09320161458333587,
          "durationTicks": 85,
          "midi": 42,
          "name": "F#2",
          "ticks": 210960,
          "time": 231.3154425,
          "velocity": 0.6377952755905512
        },
        {
          "duration": 0.14802609374999065,
          "durationTicks": 135,
          "midi": 42,
          "name": "F#2",
          "ticks": 210960,
          "time": 231.3154425,
          "velocity": 0.8267716535433071
        },
        {
          "duration": 0.08223671874998217,
          "durationTicks": 75,
          "midi": 30,
          "name": "F#1",
          "ticks": 211200,
          "time": 231.5786,
          "velocity": 0.47244094488188976
        },
        {
          "duration": 0.12609630208331168,
          "durationTicks": 115,
          "midi": 42,
          "name": "F#2",
          "ticks": 211200,
          "time": 231.5786,
          "velocity": 0.7086614173228346
        },
        {
          "duration": 0.049342031249977936,
          "durationTicks": 45,
          "midi": 30,
          "name": "F#1",
          "ticks": 211440,
          "time": 231.8417575,
          "velocity": 0.5511811023622047
        },
        {
          "duration": 0.049342031249977936,
          "durationTicks": 45,
          "midi": 30,
          "name": "F#1",
          "ticks": 211440,
          "time": 231.8417575,
          "velocity": 0.47244094488188976
        },
        {
          "duration": 0.12609630208331168,
          "durationTicks": 115,
          "midi": 42,
          "name": "F#2",
          "ticks": 211440,
          "time": 231.8417575,
          "velocity": 0.6535433070866141
        },
        {
          "duration": 0.10416651041668956,
          "durationTicks": 95,
          "midi": 42,
          "name": "F#2",
          "ticks": 211680,
          "time": 232.10491499999998,
          "velocity": 0.6456692913385826
        },
        {
          "duration": 0.13157875000001695,
          "durationTicks": 120,
          "midi": 30,
          "name": "F#1",
          "ticks": 211920,
          "time": 232.36807249999998,
          "velocity": 0.8661417322834646
        },
        {
          "duration": 0.10416651041668956,
          "durationTicks": 95,
          "midi": 42,
          "name": "F#2",
          "ticks": 211920,
          "time": 232.36807249999998,
          "velocity": 0.7165354330708661
        },
        {
          "duration": 0.11513140625001483,
          "durationTicks": 105,
          "midi": 30,
          "name": "F#1",
          "ticks": 212160,
          "time": 232.63123,
          "velocity": 0.84251968503937
        },
        {
          "duration": 0.10964895833333799,
          "durationTicks": 100,
          "midi": 42,
          "name": "F#2",
          "ticks": 212160,
          "time": 232.63123,
          "velocity": 0.7007874015748031
        },
        {
          "duration": 0.12061385416666326,
          "durationTicks": 110,
          "midi": 30,
          "name": "F#1",
          "ticks": 212400,
          "time": 232.8943875,
          "velocity": 0.6850393700787402
        },
        {
          "duration": 0.10416651041666114,
          "durationTicks": 95,
          "midi": 42,
          "name": "F#2",
          "ticks": 212400,
          "time": 232.8943875,
          "velocity": 0.6535433070866141
        },
        {
          "duration": 0.09868406249998429,
          "durationTicks": 90,
          "midi": 30,
          "name": "F#1",
          "ticks": 212640,
          "time": 233.157545,
          "velocity": 0.8031496062992126
        },
        {
          "duration": 0.10964895833330957,
          "durationTicks": 100,
          "midi": 30,
          "name": "F#1",
          "ticks": 212640,
          "time": 233.157545,
          "velocity": 0.8976377952755905
        },
        {
          "duration": 0.10416651041666114,
          "durationTicks": 95,
          "midi": 42,
          "name": "F#2",
          "ticks": 212640,
          "time": 233.157545,
          "velocity": 0.7322834645669292
        },
        {
          "duration": 0.10964895833333799,
          "durationTicks": 100,
          "midi": 30,
          "name": "F#1",
          "ticks": 212880,
          "time": 233.42070249999998,
          "velocity": 0.7637795275590551
        },
        {
          "duration": 0.1260963020833401,
          "durationTicks": 115,
          "midi": 42,
          "name": "F#2",
          "ticks": 212880,
          "time": 233.42070249999998,
          "velocity": 0.6141732283464567
        },
        {
          "duration": 0.09868406250001271,
          "durationTicks": 90,
          "midi": 30,
          "name": "F#1",
          "ticks": 213120,
          "time": 233.68385999999998,
          "velocity": 0.7322834645669292
        },
        {
          "duration": 0.1260963020833401,
          "durationTicks": 115,
          "midi": 42,
          "name": "F#2",
          "ticks": 213120,
          "time": 233.68385999999998,
          "velocity": 0.2440944881889764
        },
        {
          "duration": 0.10416651041668956,
          "durationTicks": 95,
          "midi": 30,
          "name": "F#1",
          "ticks": 213360,
          "time": 233.9470175,
          "velocity": 0.7165354330708661
        },
        {
          "duration": 0.11513140625001483,
          "durationTicks": 105,
          "midi": 42,
          "name": "F#2",
          "ticks": 213360,
          "time": 233.9470175,
          "velocity": 0.6141732283464567
        },
        {
          "duration": 0.09868406249998429,
          "durationTicks": 90,
          "midi": 30,
          "name": "F#1",
          "ticks": 213600,
          "time": 234.210175,
          "velocity": 0.7322834645669292
        },
        {
          "duration": 0.09320161458330745,
          "durationTicks": 85,
          "midi": 42,
          "name": "F#2",
          "ticks": 213600,
          "time": 234.210175,
          "velocity": 0.8031496062992126
        },
        {
          "duration": 0.09320161458330745,
          "durationTicks": 85,
          "midi": 42,
          "name": "F#2",
          "ticks": 213600,
          "time": 234.210175,
          "velocity": 0.6299212598425197
        },
        {
          "duration": 0.07675427083330533,
          "durationTicks": 70,
          "midi": 30,
          "name": "F#1",
          "ticks": 213840,
          "time": 234.4733325,
          "velocity": 0.7637795275590551
        },
        {
          "duration": 0.13157874999998853,
          "durationTicks": 120,
          "midi": 42,
          "name": "F#2",
          "ticks": 213840,
          "time": 234.4733325,
          "velocity": 0.7007874015748031
        },
        {
          "duration": 0.06578937499998005,
          "durationTicks": 60,
          "midi": 30,
          "name": "F#1",
          "ticks": 214080,
          "time": 234.73649,
          "velocity": 0.7637795275590551
        },
        {
          "duration": 0.08223671874998217,
          "durationTicks": 75,
          "midi": 30,
          "name": "F#1",
          "ticks": 214080,
          "time": 234.73649,
          "velocity": 0.3858267716535433
        },
        {
          "duration": 0.10416651041666114,
          "durationTicks": 95,
          "midi": 42,
          "name": "F#2",
          "ticks": 214080,
          "time": 234.73649,
          "velocity": 0.5039370078740157
        },
        {
          "duration": 0.11513140624998641,
          "durationTicks": 105,
          "midi": 42,
          "name": "F#2",
          "ticks": 214080,
          "time": 234.73649,
          "velocity": 0.3464566929133858
        },
        {
          "duration": 0.054824479166683204,
          "durationTicks": 50,
          "midi": 30,
          "name": "F#1",
          "ticks": 214320,
          "time": 234.99964749999998,
          "velocity": 0.6535433070866141
        },
        {
          "duration": 0.10416651041668956,
          "durationTicks": 95,
          "midi": 42,
          "name": "F#2",
          "ticks": 214320,
          "time": 234.99964749999998,
          "velocity": 0.5905511811023622
        },
        {
          "duration": 0.07127182291668532,
          "durationTicks": 65,
          "midi": 30,
          "name": "F#1",
          "ticks": 214560,
          "time": 235.262805,
          "velocity": 0.5196850393700787
        },
        {
          "duration": 0.10964895833333799,
          "durationTicks": 100,
          "midi": 42,
          "name": "F#2",
          "ticks": 214560,
          "time": 235.262805,
          "velocity": 0.23622047244094488
        },
        {
          "duration": 0.12061385416666326,
          "durationTicks": 110,
          "midi": 42,
          "name": "F#2",
          "ticks": 214800,
          "time": 235.5259625,
          "velocity": 0.7165354330708661
        },
        {
          "duration": 0.08223671874998217,
          "durationTicks": 75,
          "midi": 30,
          "name": "F#1",
          "ticks": 215040,
          "time": 235.78912,
          "velocity": 0.5354330708661418
        },
        {
          "duration": 0.09320161458330745,
          "durationTicks": 85,
          "midi": 30,
          "name": "F#1",
          "ticks": 215040,
          "time": 235.78912,
          "velocity": 0.6692913385826772
        },
        {
          "duration": 0.11513140624998641,
          "durationTicks": 105,
          "midi": 42,
          "name": "F#2",
          "ticks": 215040,
          "time": 235.78912,
          "velocity": 0.4330708661417323
        },
        {
          "duration": 0.08771916666665902,
          "durationTicks": 80,
          "midi": 30,
          "name": "F#1",
          "ticks": 215280,
          "time": 236.0522775,
          "velocity": 0.6535433070866141
        },
        {
          "duration": 0.09320161458330745,
          "durationTicks": 85,
          "midi": 42,
          "name": "F#2",
          "ticks": 215280,
          "time": 236.0522775,
          "velocity": 0.6220472440944882
        },
        {
          "duration": 0.1535085416666675,
          "durationTicks": 140,
          "midi": 42,
          "name": "F#2",
          "ticks": 215280,
          "time": 236.0522775,
          "velocity": 0.4015748031496063
        },
        {
          "duration": 0.06030692708333163,
          "durationTicks": 55,
          "midi": 30,
          "name": "F#1",
          "ticks": 215520,
          "time": 236.31543499999998,
          "velocity": 0.7795275590551181
        },
        {
          "duration": 0.07675427083333375,
          "durationTicks": 70,
          "midi": 30,
          "name": "F#1",
          "ticks": 215520,
          "time": 236.31543499999998,
          "velocity": 0.7637795275590551
        },
        {
          "duration": 0.20285057291667385,
          "durationTicks": 185,
          "midi": 42,
          "name": "F#2",
          "ticks": 215520,
          "time": 236.31543499999998,
          "velocity": 0.4330708661417323
        },
        {
          "duration": 0.13157875000001695,
          "durationTicks": 120,
          "midi": 30,
          "name": "F#1",
          "ticks": 215760,
          "time": 236.57859249999998,
          "velocity": 0.7165354330708661
        },
        {
          "duration": 0.16995588541666962,
          "durationTicks": 155,
          "midi": 42,
          "name": "F#2",
          "ticks": 215760,
          "time": 236.57859249999998,
          "velocity": 0.7322834645669292
        },
        {
          "duration": 0.038377135416681085,
          "durationTicks": 35,
          "midi": 30,
          "name": "F#1",
          "ticks": 216000,
          "time": 236.84175,
          "velocity": 0.8661417322834646
        },
        {
          "duration": 0.08771916666668744,
          "durationTicks": 80,
          "midi": 30,
          "name": "F#1",
          "ticks": 216000,
          "time": 236.84175,
          "velocity": 0.7007874015748031
        },
        {
          "duration": 0.19188567708332016,
          "durationTicks": 175,
          "midi": 42,
          "name": "F#2",
          "ticks": 216000,
          "time": 236.84175,
          "velocity": 0.5748031496062992
        },
        {
          "duration": 0.12061385416666326,
          "durationTicks": 110,
          "midi": 30,
          "name": "F#1",
          "ticks": 216240,
          "time": 237.1049075,
          "velocity": 0.6220472440944882
        },
        {
          "duration": 0.10416651041666114,
          "durationTicks": 95,
          "midi": 42,
          "name": "F#2",
          "ticks": 216240,
          "time": 237.1049075,
          "velocity": 0.7165354330708661
        },
        {
          "duration": 0.42763093749999825,
          "durationTicks": 390,
          "midi": 30,
          "name": "F#1",
          "ticks": 216480,
          "time": 237.368065,
          "velocity": 0.48031496062992124
        },
        {
          "duration": 0.049342031249977936,
          "durationTicks": 45,
          "midi": 42,
          "name": "F#2",
          "ticks": 216480,
          "time": 237.368065,
          "velocity": 0.3858267716535433
        },
        {
          "duration": 0.09320161458330745,
          "durationTicks": 85,
          "midi": 42,
          "name": "F#2",
          "ticks": 216480,
          "time": 237.368065,
          "velocity": 0.7322834645669292
        },
        {
          "duration": 0.19736812500002543,
          "durationTicks": 180,
          "midi": 30,
          "name": "F#1",
          "ticks": 216720,
          "time": 237.63122249999998,
          "velocity": 0.7637795275590551
        },
        {
          "duration": 0.054824479166683204,
          "durationTicks": 50,
          "midi": 42,
          "name": "F#2",
          "ticks": 216720,
          "time": 237.63122249999998,
          "velocity": 0.5826771653543307
        },
        {
          "duration": 0.0822367187500106,
          "durationTicks": 75,
          "midi": 42,
          "name": "F#2",
          "ticks": 216720,
          "time": 237.63122249999998,
          "velocity": 0.6220472440944882
        },
        {
          "duration": 0.10964895833333799,
          "durationTicks": 100,
          "midi": 30,
          "name": "F#1",
          "ticks": 216960,
          "time": 237.89437999999998,
          "velocity": 0.7007874015748031
        },
        {
          "duration": 0.21929791666667597,
          "durationTicks": 200,
          "midi": 42,
          "name": "F#2",
          "ticks": 216960,
          "time": 237.89437999999998,
          "velocity": 0.6535433070866141
        },
        {
          "duration": 0.04385958333332951,
          "durationTicks": 40,
          "midi": 30,
          "name": "F#1",
          "ticks": 217200,
          "time": 238.1575375,
          "velocity": 0.48031496062992124
        },
        {
          "duration": 0.08771916666668744,
          "durationTicks": 80,
          "midi": 30,
          "name": "F#1",
          "ticks": 217200,
          "time": 238.1575375,
          "velocity": 0.41732283464566927
        },
        {
          "duration": 0.0822367187500106,
          "durationTicks": 75,
          "midi": 42,
          "name": "F#2",
          "ticks": 217200,
          "time": 238.1575375,
          "velocity": 0.7480314960629921
        },
        {
          "duration": 0.06578937500000848,
          "durationTicks": 60,
          "midi": 30,
          "name": "F#1",
          "ticks": 217440,
          "time": 238.420695,
          "velocity": 0.9212598425196851
        },
        {
          "duration": 0.09320161458330745,
          "durationTicks": 85,
          "midi": 30,
          "name": "F#1",
          "ticks": 217440,
          "time": 238.420695,
          "velocity": 0.9763779527559056
        },
        {
          "duration": 0.07127182291668532,
          "durationTicks": 65,
          "midi": 42,
          "name": "F#2",
          "ticks": 217440,
          "time": 238.420695,
          "velocity": 0.8267716535433071
        },
        {
          "duration": 0.07675427083330533,
          "durationTicks": 70,
          "midi": 42,
          "name": "F#2",
          "ticks": 217440,
          "time": 238.420695,
          "velocity": 0.6535433070866141
        }
      ],
      "endOfTrackTicks": 217920
    },
    {
      "channel": 3,
      "controlChanges": {
        "0": [
          {
            "number": 0,
            "ticks": 555,
            "time": 0.60855171875,
            "value": 0
          }
        ],
        "7": [
          {
            "number": 7,
            "ticks": 570,
            "time": 0.6249990624999999,
            "value": 0.7874015748031497
          }
        ],
        "10": [
          {
            "number": 10,
            "ticks": 570,
            "time": 0.6249990624999999,
            "value": 0.5039370078740157
          }
        ],
        "11": [
          {
            "number": 11,
            "ticks": 570,
            "time": 0.6249990624999999,
            "value": 1
          }
        ],
        "32": [
          {
            "number": 32,
            "ticks": 560,
            "time": 0.6140341666666667,
            "value": 0
          }
        ],
        "64": [
          {
            "number": 64,
            "ticks": 2880,
            "time": 3.15789,
            "value": 1
          },
          {
            "number": 64,
            "ticks": 5760,
            "time": 6.31578,
            "value": 0
          },
          {
            "number": 64,
            "ticks": 5865,
            "time": 6.43091140625,
            "value": 1
          },
          {
            "number": 64,
            "ticks": 8630,
            "time": 9.462705104166666,
            "value": 0
          },
          {
            "number": 64,
            "ticks": 8765,
            "time": 9.610731197916667,
            "value": 1
          },
          {
            "number": 64,
            "ticks": 11465,
            "time": 12.571253072916667,
            "value": 0
          },
          {
            "number": 64,
            "ticks": 11635,
            "time": 12.757656302083332,
            "value": 1
          },
          {
            "number": 64,
            "ticks": 12950,
            "time": 14.199540104166667,
            "value": 0
          },
          {
            "number": 64,
            "ticks": 13060,
            "time": 14.320153958333332,
            "value": 1
          },
          {
            "number": 64,
            "ticks": 14365,
            "time": 15.751072864583332,
            "value": 0
          },
          {
            "number": 64,
            "ticks": 14480,
            "time": 15.877169166666667,
            "value": 1
          },
          {
            "number": 64,
            "ticks": 17240,
            "time": 18.903480416666664,
            "value": 0
          },
          {
            "number": 64,
            "ticks": 17350,
            "time": 19.024094270833334,
            "value": 1
          },
          {
            "number": 64,
            "ticks": 20180,
            "time": 22.127159791666664,
            "value": 0
          },
          {
            "number": 64,
            "ticks": 20300,
            "time": 22.258738541666663,
            "value": 1
          },
          {
            "number": 64,
            "ticks": 22990,
            "time": 25.208295520833335,
            "value": 0
          },
          {
            "number": 64,
            "ticks": 23125,
            "time": 25.356321614583333,
            "value": 1
          },
          {
            "number": 64,
            "ticks": 25875,
            "time": 28.37166796875,
            "value": 0
          },
          {
            "number": 64,
            "ticks": 26010,
            "time": 28.519694062499998,
            "value": 1
          },
          {
            "number": 64,
            "ticks": 28760,
            "time": 31.535040416666664,
            "value": 0
          },
          {
            "number": 64,
            "ticks": 28890,
            "time": 31.6775840625,
            "value": 1
          },
          {
            "number": 64,
            "ticks": 31625,
            "time": 34.67648307291667,
            "value": 0
          },
          {
            "number": 64,
            "ticks": 31785,
            "time": 34.85192140625,
            "value": 1
          },
          {
            "number": 64,
            "ticks": 34515,
            "time": 37.84533796875,
            "value": 0
          },
          {
            "number": 64,
            "ticks": 34685,
            "time": 38.031741197916666,
            "value": 1
          },
          {
            "number": 64,
            "ticks": 36000,
            "time": 39.473625,
            "value": 0
          },
          {
            "number": 64,
            "ticks": 36130,
            "time": 39.616168645833326,
            "value": 1
          },
          {
            "number": 64,
            "ticks": 37440,
            "time": 41.052569999999996,
            "value": 0
          },
          {
            "number": 64,
            "ticks": 37520,
            "time": 41.14028916666667,
            "value": 1
          },
          {
            "number": 64,
            "ticks": 40295,
            "time": 44.18304776041667,
            "value": 0
          },
          {
            "number": 64,
            "ticks": 40450,
            "time": 44.353003645833326,
            "value": 1
          },
          {
            "number": 64,
            "ticks": 43195,
            "time": 47.36286755208333,
            "value": 0
          },
          {
            "number": 64,
            "ticks": 43345,
            "time": 47.52734098958333,
            "value": 1
          },
          {
            "number": 64,
            "ticks": 46100,
            "time": 50.548169791666666,
            "value": 0
          },
          {
            "number": 64,
            "ticks": 46230,
            "time": 50.6907134375,
            "value": 1
          },
          {
            "number": 64,
            "ticks": 48990,
            "time": 53.7170246875,
            "value": 0
          },
          {
            "number": 64,
            "ticks": 49680,
            "time": 54.4736025,
            "value": 1
          },
          {
            "number": 64,
            "ticks": 50820,
            "time": 55.723600624999996,
            "value": 0
          },
          {
            "number": 64,
            "ticks": 51005,
            "time": 55.92645119791667,
            "value": 1
          },
          {
            "number": 64,
            "ticks": 51780,
            "time": 56.776230625,
            "value": 0
          },
          {
            "number": 64,
            "ticks": 51975,
            "time": 56.990046093749996,
            "value": 1
          },
          {
            "number": 64,
            "ticks": 52265,
            "time": 57.30802807291667,
            "value": 0
          },
          {
            "number": 64,
            "ticks": 52460,
            "time": 57.52184354166667,
            "value": 1
          },
          {
            "number": 64,
            "ticks": 52755,
            "time": 57.84530796875,
            "value": 0
          },
          {
            "number": 64,
            "ticks": 52930,
            "time": 58.03719364583333,
            "value": 1
          },
          {
            "number": 64,
            "ticks": 53180,
            "time": 58.311316041666664,
            "value": 0
          },
          {
            "number": 64,
            "ticks": 53305,
            "time": 58.44837723958333,
            "value": 1
          },
          {
            "number": 64,
            "ticks": 53755,
            "time": 58.94179755208333,
            "value": 0
          },
          {
            "number": 64,
            "ticks": 53995,
            "time": 59.20495505208333,
            "value": 1
          },
          {
            "number": 64,
            "ticks": 54695,
            "time": 59.972497760416665,
            "value": 0
          },
          {
            "number": 64,
            "ticks": 54855,
            "time": 60.14793609375,
            "value": 1
          },
          {
            "number": 64,
            "ticks": 55745,
            "time": 61.123811822916664,
            "value": 0
          },
          {
            "number": 64,
            "ticks": 55960,
            "time": 61.35955708333333,
            "value": 1
          },
          {
            "number": 64,
            "ticks": 56630,
            "time": 62.09420510416667,
            "value": 0
          },
          {
            "number": 64,
            "ticks": 57360,
            "time": 62.894642499999996,
            "value": 1
          },
          {
            "number": 64,
            "ticks": 58520,
            "time": 64.16657041666667,
            "value": 0
          },
          {
            "number": 64,
            "ticks": 58680,
            "time": 64.34200874999999,
            "value": 1
          },
          {
            "number": 64,
            "ticks": 59475,
            "time": 65.21371796875,
            "value": 0
          },
          {
            "number": 64,
            "ticks": 59665,
            "time": 65.42205098958333,
            "value": 1
          },
          {
            "number": 64,
            "ticks": 59950,
            "time": 65.73455052083332,
            "value": 0
          },
          {
            "number": 64,
            "ticks": 60140,
            "time": 65.94288354166666,
            "value": 1
          },
          {
            "number": 64,
            "ticks": 60425,
            "time": 66.25538307291667,
            "value": 0
          },
          {
            "number": 64,
            "ticks": 60595,
            "time": 66.44178630208333,
            "value": 1
          },
          {
            "number": 64,
            "ticks": 60905,
            "time": 66.78169807291667,
            "value": 0
          },
          {
            "number": 64,
            "ticks": 61095,
            "time": 66.99003109374999,
            "value": 1
          },
          {
            "number": 64,
            "ticks": 61470,
            "time": 67.4012146875,
            "value": 0
          },
          {
            "number": 64,
            "ticks": 61560,
            "time": 67.49989875,
            "value": 1
          },
          {
            "number": 64,
            "ticks": 63330,
            "time": 69.4406853125,
            "value": 0
          },
          {
            "number": 64,
            "ticks": 63555,
            "time": 69.68739546875,
            "value": 1
          },
          {
            "number": 64,
            "ticks": 64270,
            "time": 70.47138552083334,
            "value": 0
          },
          {
            "number": 64,
            "ticks": 65040,
            "time": 71.3156825,
            "value": 1
          },
          {
            "number": 64,
            "ticks": 66200,
            "time": 72.58761041666666,
            "value": 0
          },
          {
            "number": 64,
            "ticks": 66315,
            "time": 72.71370671875,
            "value": 1
          },
          {
            "number": 64,
            "ticks": 67160,
            "time": 73.64024041666666,
            "value": 0
          },
          {
            "number": 64,
            "ticks": 67335,
            "time": 73.83212609374999,
            "value": 1
          },
          {
            "number": 64,
            "ticks": 67650,
            "time": 74.1775203125,
            "value": 0
          },
          {
            "number": 64,
            "ticks": 67825,
            "time": 74.36940598958334,
            "value": 1
          },
          {
            "number": 64,
            "ticks": 68125,
            "time": 74.69835286458334,
            "value": 0
          },
          {
            "number": 64,
            "ticks": 68270,
            "time": 74.85734385416666,
            "value": 1
          },
          {
            "number": 64,
            "ticks": 68595,
            "time": 75.21370296875,
            "value": 0
          },
          {
            "number": 64,
            "ticks": 68740,
            "time": 75.37269395833333,
            "value": 1
          },
          {
            "number": 64,
            "ticks": 69115,
            "time": 75.78387755208334,
            "value": 0
          },
          {
            "number": 64,
            "ticks": 69325,
            "time": 76.01414036458334,
            "value": 1
          },
          {
            "number": 64,
            "ticks": 70055,
            "time": 76.81457776041665,
            "value": 0
          },
          {
            "number": 64,
            "ticks": 70215,
            "time": 76.99001609375,
            "value": 1
          },
          {
            "number": 64,
            "ticks": 71035,
            "time": 77.88913755208334,
            "value": 0
          },
          {
            "number": 64,
            "ticks": 71210,
            "time": 78.08102322916666,
            "value": 1
          },
          {
            "number": 64,
            "ticks": 71965,
            "time": 78.90887286458333,
            "value": 0
          },
          {
            "number": 64,
            "ticks": 73335,
            "time": 80.41106359375,
            "value": 1
          },
          {
            "number": 64,
            "ticks": 73875,
            "time": 81.00316796874999,
            "value": 0
          },
          {
            "number": 64,
            "ticks": 74015,
            "time": 81.15667651041666,
            "value": 1
          },
          {
            "number": 64,
            "ticks": 74830,
            "time": 82.05031552083334,
            "value": 0
          },
          {
            "number": 64,
            "ticks": 74990,
            "time": 82.22575385416665,
            "value": 1
          },
          {
            "number": 64,
            "ticks": 75305,
            "time": 82.57114807291666,
            "value": 0
          },
          {
            "number": 64,
            "ticks": 75465,
            "time": 82.74658640625,
            "value": 1
          },
          {
            "number": 64,
            "ticks": 75810,
            "time": 83.1248753125,
            "value": 0
          },
          {
            "number": 64,
            "ticks": 75985,
            "time": 83.31676098958333,
            "value": 1
          },
          {
            "number": 64,
            "ticks": 76320,
            "time": 83.684085,
            "value": 0
          },
          {
            "number": 64,
            "ticks": 76495,
            "time": 83.87597067708333,
            "value": 1
          },
          {
            "number": 64,
            "ticks": 76820,
            "time": 84.23232979166666,
            "value": 0
          },
          {
            "number": 64,
            "ticks": 76900,
            "time": 84.32004895833333,
            "value": 1
          },
          {
            "number": 64,
            "ticks": 77710,
            "time": 85.20820552083333,
            "value": 0
          },
          {
            "number": 64,
            "ticks": 77870,
            "time": 85.38364385416666,
            "value": 1
          },
          {
            "number": 64,
            "ticks": 78690,
            "time": 86.28276531249999,
            "value": 0
          },
          {
            "number": 64,
            "ticks": 78850,
            "time": 86.45820364583334,
            "value": 1
          },
          {
            "number": 64,
            "ticks": 79670,
            "time": 87.35732510416666,
            "value": 0
          },
          {
            "number": 64,
            "ticks": 79815,
            "time": 87.51631609374999,
            "value": 1
          },
          {
            "number": 64,
            "ticks": 80665,
            "time": 88.44833223958334,
            "value": 0
          },
          {
            "number": 64,
            "ticks": 80760,
            "time": 88.55249875,
            "value": 1
          },
          {
            "number": 64,
            "ticks": 81590,
            "time": 89.46258510416666,
            "value": 0
          },
          {
            "number": 64,
            "ticks": 81715,
            "time": 89.59964630208333,
            "value": 1
          },
          {
            "number": 64,
            "ticks": 82605,
            "time": 90.57552203125,
            "value": 0
          },
          {
            "number": 64,
            "ticks": 82760,
            "time": 90.74547791666666,
            "value": 1
          },
          {
            "number": 64,
            "ticks": 83085,
            "time": 91.10183703125,
            "value": 0
          },
          {
            "number": 64,
            "ticks": 83240,
            "time": 91.27179291666666,
            "value": 1
          },
          {
            "number": 64,
            "ticks": 83505,
            "time": 91.56236265625,
            "value": 0
          },
          {
            "number": 64,
            "ticks": 83605,
            "time": 91.67201161458334,
            "value": 1
          },
          {
            "number": 64,
            "ticks": 84525,
            "time": 92.68078203124999,
            "value": 0
          },
          {
            "number": 64,
            "ticks": 84790,
            "time": 92.97135177083334,
            "value": 1
          },
          {
            "number": 64,
            "ticks": 85410,
            "time": 93.6511753125,
            "value": 0
          },
          {
            "number": 64,
            "ticks": 85520,
            "time": 93.77178916666666,
            "value": 1
          },
          {
            "number": 64,
            "ticks": 86455,
            "time": 94.79700692708333,
            "value": 0
          },
          {
            "number": 64,
            "ticks": 86585,
            "time": 94.93955057291666,
            "value": 1
          },
          {
            "number": 64,
            "ticks": 87350,
            "time": 95.77836510416665,
            "value": 0
          },
          {
            "number": 64,
            "ticks": 87470,
            "time": 95.90994385416666,
            "value": 1
          },
          {
            "number": 64,
            "ticks": 88345,
            "time": 96.86937223958333,
            "value": 0
          },
          {
            "number": 64,
            "ticks": 88625,
            "time": 97.17638932291666,
            "value": 1
          },
          {
            "number": 64,
            "ticks": 89215,
            "time": 97.82331817708334,
            "value": 0
          },
          {
            "number": 64,
            "ticks": 89375,
            "time": 97.99875651041665,
            "value": 1
          },
          {
            "number": 64,
            "ticks": 90275,
            "time": 98.98559713541665,
            "value": 0
          },
          {
            "number": 64,
            "ticks": 90455,
            "time": 99.18296526041665,
            "value": 1
          },
          {
            "number": 64,
            "ticks": 90765,
            "time": 99.52287703124999,
            "value": 0
          },
          {
            "number": 64,
            "ticks": 90920,
            "time": 99.69283291666666,
            "value": 1
          },
          {
            "number": 64,
            "ticks": 91165,
            "time": 99.96147286458333,
            "value": 0
          },
          {
            "number": 64,
            "ticks": 91320,
            "time": 100.13142875,
            "value": 1
          },
          {
            "number": 64,
            "ticks": 92235,
            "time": 101.13471671875,
            "value": 0
          },
          {
            "number": 64,
            "ticks": 92490,
            "time": 101.41432156249999,
            "value": 1
          },
          {
            "number": 64,
            "ticks": 93015,
            "time": 101.98997859375,
            "value": 0
          },
          {
            "number": 64,
            "ticks": 93180,
            "time": 102.17089937499999,
            "value": 1
          },
          {
            "number": 64,
            "ticks": 94545,
            "time": 103.66760765625,
            "value": 0
          },
          {
            "number": 64,
            "ticks": 94710,
            "time": 103.8485284375,
            "value": 1
          },
          {
            "number": 64,
            "ticks": 95000,
            "time": 104.16651041666665,
            "value": 0
          },
          {
            "number": 64,
            "ticks": 95160,
            "time": 104.34194875,
            "value": 1
          },
          {
            "number": 64,
            "ticks": 95990,
            "time": 105.25203510416665,
            "value": 0
          },
          {
            "number": 64,
            "ticks": 96150,
            "time": 105.4274734375,
            "value": 1
          },
          {
            "number": 64,
            "ticks": 96895,
            "time": 106.24435817708333,
            "value": 0
          },
          {
            "number": 64,
            "ticks": 96985,
            "time": 106.34304223958334,
            "value": 1
          },
          {
            "number": 64,
            "ticks": 97730,
            "time": 107.15992697916666,
            "value": 0
          },
          {
            "number": 64,
            "ticks": 97885,
            "time": 107.32988286458334,
            "value": 1
          },
          {
            "number": 64,
            "ticks": 98840,
            "time": 108.37703041666666,
            "value": 0
          },
          {
            "number": 64,
            "ticks": 98990,
            "time": 108.54150385416666,
            "value": 1
          },
          {
            "number": 64,
            "ticks": 99705,
            "time": 109.32549390624999,
            "value": 0
          },
          {
            "number": 64,
            "ticks": 99885,
            "time": 109.52286203125,
            "value": 1
          },
          {
            "number": 64,
            "ticks": 100720,
            "time": 110.43843083333333,
            "value": 0
          },
          {
            "number": 64,
            "ticks": 100875,
            "time": 110.60838671875,
            "value": 1
          },
          {
            "number": 64,
            "ticks": 101505,
            "time": 111.29917515625,
            "value": 0
          },
          {
            "number": 64,
            "ticks": 101675,
            "time": 111.48557838541666,
            "value": 1
          },
          {
            "number": 64,
            "ticks": 102700,
            "time": 112.60948020833334,
            "value": 0
          },
          {
            "number": 64,
            "ticks": 102850,
            "time": 112.77395364583333,
            "value": 1
          },
          {
            "number": 64,
            "ticks": 103565,
            "time": 113.55794369791666,
            "value": 0
          },
          {
            "number": 64,
            "ticks": 103725,
            "time": 113.73338203124999,
            "value": 1
          },
          {
            "number": 64,
            "ticks": 104085,
            "time": 114.12811828125,
            "value": 0
          },
          {
            "number": 64,
            "ticks": 104220,
            "time": 114.276144375,
            "value": 1
          },
          {
            "number": 64,
            "ticks": 104560,
            "time": 114.64895083333333,
            "value": 0
          },
          {
            "number": 64,
            "ticks": 104690,
            "time": 114.79149447916666,
            "value": 1
          },
          {
            "number": 64,
            "ticks": 105340,
            "time": 115.50421270833333,
            "value": 0
          },
          {
            "number": 64,
            "ticks": 105480,
            "time": 115.65772125,
            "value": 1
          },
          {
            "number": 64,
            "ticks": 106505,
            "time": 116.78162307291666,
            "value": 0
          },
          {
            "number": 64,
            "ticks": 106665,
            "time": 116.95706140624999,
            "value": 1
          },
          {
            "number": 64,
            "ticks": 108275,
            "time": 118.72240963541665,
            "value": 0
          },
          {
            "number": 64,
            "ticks": 108420,
            "time": 118.881400625,
            "value": 1
          },
          {
            "number": 64,
            "ticks": 110420,
            "time": 121.07437979166666,
            "value": 0
          },
          {
            "number": 64,
            "ticks": 110540,
            "time": 121.20595854166666,
            "value": 1
          },
          {
            "number": 64,
            "ticks": 111410,
            "time": 122.15990447916666,
            "value": 0
          },
          {
            "number": 64,
            "ticks": 111515,
            "time": 122.27503588541666,
            "value": 1
          },
          {
            "number": 64,
            "ticks": 112315,
            "time": 123.15222755208333,
            "value": 0
          },
          {
            "number": 64,
            "ticks": 112440,
            "time": 123.28928875,
            "value": 1
          },
          {
            "number": 64,
            "ticks": 113330,
            "time": 124.26516447916666,
            "value": 0
          },
          {
            "number": 64,
            "ticks": 113485,
            "time": 124.43512036458333,
            "value": 1
          },
          {
            "number": 64,
            "ticks": 113810,
            "time": 124.79147947916665,
            "value": 0
          },
          {
            "number": 64,
            "ticks": 113965,
            "time": 124.96143536458334,
            "value": 1
          },
          {
            "number": 64,
            "ticks": 114230,
            "time": 125.25200510416666,
            "value": 0
          },
          {
            "number": 64,
            "ticks": 114330,
            "time": 125.3616540625,
            "value": 1
          },
          {
            "number": 64,
            "ticks": 115210,
            "time": 126.32656489583333,
            "value": 0
          },
          {
            "number": 64,
            "ticks": 115310,
            "time": 126.43621385416665,
            "value": 1
          },
          {
            "number": 64,
            "ticks": 116150,
            "time": 127.35726510416666,
            "value": 0
          },
          {
            "number": 64,
            "ticks": 116245,
            "time": 127.46143161458333,
            "value": 1
          },
          {
            "number": 64,
            "ticks": 117180,
            "time": 128.48664937499998,
            "value": 0
          },
          {
            "number": 64,
            "ticks": 117310,
            "time": 128.62919302083333,
            "value": 1
          },
          {
            "number": 64,
            "ticks": 118080,
            "time": 129.47349,
            "value": 0
          },
          {
            "number": 64,
            "ticks": 118170,
            "time": 129.57217406249998,
            "value": 1
          },
          {
            "number": 64,
            "ticks": 119070,
            "time": 130.5590146875,
            "value": 0
          },
          {
            "number": 64,
            "ticks": 119215,
            "time": 130.71800567708334,
            "value": 1
          },
          {
            "number": 64,
            "ticks": 119950,
            "time": 131.52392552083333,
            "value": 0
          },
          {
            "number": 64,
            "ticks": 120095,
            "time": 131.68291651041665,
            "value": 1
          },
          {
            "number": 64,
            "ticks": 120970,
            "time": 132.64234489583333,
            "value": 0
          },
          {
            "number": 64,
            "ticks": 121080,
            "time": 132.76295875,
            "value": 1
          },
          {
            "number": 64,
            "ticks": 121490,
            "time": 133.21251947916664,
            "value": 0
          },
          {
            "number": 64,
            "ticks": 121645,
            "time": 133.38247536458334,
            "value": 1
          },
          {
            "number": 64,
            "ticks": 121835,
            "time": 133.59080838541666,
            "value": 0
          },
          {
            "number": 64,
            "ticks": 121960,
            "time": 133.72786958333333,
            "value": 1
          },
          {
            "number": 64,
            "ticks": 122865,
            "time": 134.72019265625,
            "value": 0
          },
          {
            "number": 64,
            "ticks": 123010,
            "time": 134.8791836458333,
            "value": 1
          },
          {
            "number": 64,
            "ticks": 123705,
            "time": 135.64124390625,
            "value": 0
          },
          {
            "number": 64,
            "ticks": 123880,
            "time": 135.83312958333332,
            "value": 1
          },
          {
            "number": 64,
            "ticks": 124750,
            "time": 136.78707552083333,
            "value": 0
          },
          {
            "number": 64,
            "ticks": 124870,
            "time": 136.91865427083331,
            "value": 1
          },
          {
            "number": 64,
            "ticks": 125760,
            "time": 137.89453,
            "value": 0
          },
          {
            "number": 64,
            "ticks": 125890,
            "time": 138.03707364583332,
            "value": 1
          },
          {
            "number": 64,
            "ticks": 126760,
            "time": 138.99101958333333,
            "value": 0
          },
          {
            "number": 64,
            "ticks": 126860,
            "time": 139.10066854166666,
            "value": 1
          },
          {
            "number": 64,
            "ticks": 127630,
            "time": 139.9449655208333,
            "value": 0
          },
          {
            "number": 64,
            "ticks": 127735,
            "time": 140.06009692708332,
            "value": 1
          },
          {
            "number": 64,
            "ticks": 128640,
            "time": 141.05241999999998,
            "value": 0
          },
          {
            "number": 64,
            "ticks": 128790,
            "time": 141.2168934375,
            "value": 1
          },
          {
            "number": 64,
            "ticks": 129160,
            "time": 141.62259458333332,
            "value": 0
          },
          {
            "number": 64,
            "ticks": 129315,
            "time": 141.79255046875,
            "value": 1
          },
          {
            "number": 64,
            "ticks": 129600,
            "time": 142.10505,
            "value": 0
          },
          {
            "number": 64,
            "ticks": 129675,
            "time": 142.18728671875,
            "value": 1
          },
          {
            "number": 64,
            "ticks": 130550,
            "time": 143.14671510416667,
            "value": 0
          },
          {
            "number": 64,
            "ticks": 130685,
            "time": 143.29474119791666,
            "value": 1
          },
          {
            "number": 64,
            "ticks": 131505,
            "time": 144.19386265625,
            "value": 0
          },
          {
            "number": 64,
            "ticks": 131620,
            "time": 144.31995895833333,
            "value": 1
          },
          {
            "number": 64,
            "ticks": 132465,
            "time": 145.24649265624998,
            "value": 0
          },
          {
            "number": 64,
            "ticks": 132625,
            "time": 145.42193098958333,
            "value": 1
          },
          {
            "number": 64,
            "ticks": 133430,
            "time": 146.30460510416668,
            "value": 0
          },
          {
            "number": 64,
            "ticks": 133565,
            "time": 146.45263119791667,
            "value": 1
          },
          {
            "number": 64,
            "ticks": 135310,
            "time": 148.3660055208333,
            "value": 0
          },
          {
            "number": 64,
            "ticks": 135450,
            "time": 148.51951406249998,
            "value": 1
          },
          {
            "number": 64,
            "ticks": 136370,
            "time": 149.52828447916667,
            "value": 0
          },
          {
            "number": 64,
            "ticks": 136525,
            "time": 149.6982403645833,
            "value": 1
          },
          {
            "number": 64,
            "ticks": 136850,
            "time": 150.05459947916668,
            "value": 0
          },
          {
            "number": 64,
            "ticks": 137005,
            "time": 150.22455536458332,
            "value": 1
          },
          {
            "number": 64,
            "ticks": 137255,
            "time": 150.49867776041668,
            "value": 0
          },
          {
            "number": 64,
            "ticks": 137420,
            "time": 150.67959854166668,
            "value": 1
          },
          {
            "number": 64,
            "ticks": 138250,
            "time": 151.58968489583333,
            "value": 0
          },
          {
            "number": 64,
            "ticks": 138365,
            "time": 151.71578119791667,
            "value": 1
          },
          {
            "number": 64,
            "ticks": 139150,
            "time": 152.57652552083331,
            "value": 0
          },
          {
            "number": 64,
            "ticks": 139340,
            "time": 152.78485854166667,
            "value": 1
          },
          {
            "number": 64,
            "ticks": 141130,
            "time": 154.7475748958333,
            "value": 0
          },
          {
            "number": 64,
            "ticks": 147925,
            "time": 162.1982216145833,
            "value": 1
          },
          {
            "number": 64,
            "ticks": 148810,
            "time": 163.16861489583331,
            "value": 0
          },
          {
            "number": 64,
            "ticks": 151740,
            "time": 166.38132937499998,
            "value": 1
          },
          {
            "number": 64,
            "ticks": 152585,
            "time": 167.30786307291666,
            "value": 0
          },
          {
            "number": 64,
            "ticks": 155630,
            "time": 170.64667385416666,
            "value": 1
          },
          {
            "number": 64,
            "ticks": 156485,
            "time": 171.58417244791667,
            "value": 0
          },
          {
            "number": 64,
            "ticks": 156620,
            "time": 171.73219854166666,
            "value": 1
          },
          {
            "number": 64,
            "ticks": 158395,
            "time": 173.6784675520833,
            "value": 0
          },
          {
            "number": 64,
            "ticks": 158520,
            "time": 173.81552875,
            "value": 1
          },
          {
            "number": 64,
            "ticks": 159410,
            "time": 174.79140447916666,
            "value": 0
          },
          {
            "number": 64,
            "ticks": 159565,
            "time": 174.96136036458333,
            "value": 1
          },
          {
            "number": 64,
            "ticks": 159890,
            "time": 175.31771947916667,
            "value": 0
          },
          {
            "number": 64,
            "ticks": 160045,
            "time": 175.4876753645833,
            "value": 1
          },
          {
            "number": 64,
            "ticks": 160310,
            "time": 175.77824510416667,
            "value": 0
          },
          {
            "number": 64,
            "ticks": 160410,
            "time": 175.88789406249998,
            "value": 1
          },
          {
            "number": 64,
            "ticks": 161290,
            "time": 176.85280489583332,
            "value": 0
          },
          {
            "number": 64,
            "ticks": 161390,
            "time": 176.96245385416668,
            "value": 1
          },
          {
            "number": 64,
            "ticks": 162230,
            "time": 177.88350510416666,
            "value": 0
          },
          {
            "number": 64,
            "ticks": 162325,
            "time": 177.98767161458332,
            "value": 1
          },
          {
            "number": 64,
            "ticks": 163260,
            "time": 179.012889375,
            "value": 0
          },
          {
            "number": 64,
            "ticks": 163390,
            "time": 179.15543302083333,
            "value": 1
          },
          {
            "number": 64,
            "ticks": 164160,
            "time": 179.99973,
            "value": 0
          },
          {
            "number": 64,
            "ticks": 164250,
            "time": 180.09841406249998,
            "value": 1
          },
          {
            "number": 64,
            "ticks": 166030,
            "time": 182.0501655208333,
            "value": 0
          },
          {
            "number": 64,
            "ticks": 166175,
            "time": 182.20915651041668,
            "value": 1
          },
          {
            "number": 64,
            "ticks": 167050,
            "time": 183.1685848958333,
            "value": 0
          },
          {
            "number": 64,
            "ticks": 167160,
            "time": 183.28919875,
            "value": 1
          },
          {
            "number": 64,
            "ticks": 167570,
            "time": 183.73875947916667,
            "value": 0
          },
          {
            "number": 64,
            "ticks": 167725,
            "time": 183.90871536458332,
            "value": 1
          },
          {
            "number": 64,
            "ticks": 167915,
            "time": 184.11704838541667,
            "value": 0
          },
          {
            "number": 64,
            "ticks": 168040,
            "time": 184.2541095833333,
            "value": 1
          },
          {
            "number": 64,
            "ticks": 168945,
            "time": 185.24643265625,
            "value": 0
          },
          {
            "number": 64,
            "ticks": 169090,
            "time": 185.4054236458333,
            "value": 1
          },
          {
            "number": 64,
            "ticks": 169785,
            "time": 186.16748390625,
            "value": 0
          },
          {
            "number": 64,
            "ticks": 169960,
            "time": 186.35936958333332,
            "value": 1
          },
          {
            "number": 64,
            "ticks": 170830,
            "time": 187.31331552083333,
            "value": 0
          },
          {
            "number": 64,
            "ticks": 170950,
            "time": 187.44489427083332,
            "value": 1
          },
          {
            "number": 64,
            "ticks": 171850,
            "time": 188.4317348958333,
            "value": 0
          },
          {
            "number": 64,
            "ticks": 171980,
            "time": 188.57427854166667,
            "value": 1
          },
          {
            "number": 64,
            "ticks": 173755,
            "time": 190.52054755208331,
            "value": 0
          },
          {
            "number": 64,
            "ticks": 174010,
            "time": 190.80015239583332,
            "value": 1
          },
          {
            "number": 64,
            "ticks": 175670,
            "time": 192.62032510416668,
            "value": 0
          },
          {
            "number": 64,
            "ticks": 175770,
            "time": 192.7299740625,
            "value": 1
          },
          {
            "number": 64,
            "ticks": 177590,
            "time": 194.72558510416667,
            "value": 0
          },
          {
            "number": 64,
            "ticks": 177685,
            "time": 194.8297516145833,
            "value": 1
          },
          {
            "number": 64,
            "ticks": 178620,
            "time": 195.854969375,
            "value": 0
          },
          {
            "number": 64,
            "ticks": 178750,
            "time": 195.9975130208333,
            "value": 1
          },
          {
            "number": 64,
            "ticks": 179520,
            "time": 196.84180999999998,
            "value": 0
          },
          {
            "number": 64,
            "ticks": 179610,
            "time": 196.9404940625,
            "value": 1
          },
          {
            "number": 64,
            "ticks": 181450,
            "time": 198.95803489583332,
            "value": 0
          },
          {
            "number": 64,
            "ticks": 181690,
            "time": 199.22119239583333,
            "value": 1
          },
          {
            "number": 64,
            "ticks": 183275,
            "time": 200.95912838541668,
            "value": 0
          },
          {
            "number": 64,
            "ticks": 183480,
            "time": 201.18390875,
            "value": 1
          },
          {
            "number": 64,
            "ticks": 186190,
            "time": 204.1553955208333,
            "value": 0
          },
          {
            "number": 64,
            "ticks": 186310,
            "time": 204.28697427083333,
            "value": 1
          },
          {
            "number": 64,
            "ticks": 187200,
            "time": 205.26285,
            "value": 0
          },
          {
            "number": 64,
            "ticks": 187330,
            "time": 205.40539364583333,
            "value": 1
          },
          {
            "number": 64,
            "ticks": 189070,
            "time": 207.31328552083332,
            "value": 0
          },
          {
            "number": 64,
            "ticks": 189370,
            "time": 207.6422323958333,
            "value": 1
          },
          {
            "number": 64,
            "ticks": 191040,
            "time": 209.47337,
            "value": 0
          },
          {
            "number": 64,
            "ticks": 191140,
            "time": 209.58301895833333,
            "value": 1
          },
          {
            "number": 64,
            "ticks": 192945,
            "time": 211.56218265625,
            "value": 0
          },
          {
            "number": 64,
            "ticks": 193060,
            "time": 211.6882789583333,
            "value": 1
          },
          {
            "number": 64,
            "ticks": 193905,
            "time": 212.61481265625,
            "value": 0
          },
          {
            "number": 64,
            "ticks": 194065,
            "time": 212.7902509895833,
            "value": 1
          },
          {
            "number": 64,
            "ticks": 194870,
            "time": 213.67292510416667,
            "value": 0
          },
          {
            "number": 64,
            "ticks": 195005,
            "time": 213.82095119791666,
            "value": 1
          },
          {
            "number": 64,
            "ticks": 196750,
            "time": 215.73432552083332,
            "value": 0
          },
          {
            "number": 64,
            "ticks": 196890,
            "time": 215.8878340625,
            "value": 1
          },
          {
            "number": 64,
            "ticks": 197810,
            "time": 216.89660447916665,
            "value": 0
          },
          {
            "number": 64,
            "ticks": 197965,
            "time": 217.06656036458332,
            "value": 1
          },
          {
            "number": 64,
            "ticks": 198290,
            "time": 217.42291947916667,
            "value": 0
          },
          {
            "number": 64,
            "ticks": 198445,
            "time": 217.5928753645833,
            "value": 1
          },
          {
            "number": 64,
            "ticks": 198695,
            "time": 217.86699776041667,
            "value": 0
          },
          {
            "number": 64,
            "ticks": 198860,
            "time": 218.04791854166666,
            "value": 1
          },
          {
            "number": 64,
            "ticks": 199690,
            "time": 218.9580048958333,
            "value": 0
          },
          {
            "number": 64,
            "ticks": 199805,
            "time": 219.08410119791668,
            "value": 1
          },
          {
            "number": 64,
            "ticks": 200590,
            "time": 219.94484552083333,
            "value": 0
          },
          {
            "number": 64,
            "ticks": 200780,
            "time": 220.15317854166668,
            "value": 1
          },
          {
            "number": 64,
            "ticks": 202570,
            "time": 222.11589489583332,
            "value": 0
          },
          {
            "number": 64,
            "ticks": 202680,
            "time": 222.23650874999998,
            "value": 1
          },
          {
            "number": 64,
            "ticks": 217665,
            "time": 238.66740515625,
            "value": 0
          }
        ],
        "91": [
          {
            "number": 91,
            "ticks": 575,
            "time": 0.6304815104166667,
            "value": 0.1968503937007874
          }
        ],
        "93": [
          {
            "number": 93,
            "ticks": 575,
            "time": 0.6304815104166667,
            "value": 0
          }
        ]
      },
      "pitchBends": [],
      "instrument": {
        "family": "piano",
        "number": 0,
        "name": "acoustic grand piano"
      },
      "name": "Merry Christmas Mr.Lawrence",
      "notes": [
        {
          "duration": 0.126096302083333,
          "durationTicks": 115,
          "midi": 89,
          "name": "F6",
          "ticks": 2880,
          "time": 3.15789,
          "velocity": 0.8110236220472441
        },
        {
          "duration": 0.15350854166666705,
          "durationTicks": 140,
          "midi": 87,
          "name": "D#6",
          "ticks": 3120,
          "time": 3.4210475,
          "velocity": 0.49606299212598426
        },
        {
          "duration": 0.08771916666666657,
          "durationTicks": 80,
          "midi": 89,
          "name": "F6",
          "ticks": 3360,
          "time": 3.684205,
          "velocity": 0.5511811023622047
        },
        {
          "duration": 0.14802609375000042,
          "durationTicks": 135,
          "midi": 94,
          "name": "A#6",
          "ticks": 3600,
          "time": 3.9473624999999997,
          "velocity": 0.7637795275590551
        },
        {
          "duration": 0.16995588541666606,
          "durationTicks": 155,
          "midi": 89,
          "name": "F6",
          "ticks": 3840,
          "time": 4.21052,
          "velocity": 0.6456692913385826
        },
        {
          "duration": 0.1260963020833339,
          "durationTicks": 115,
          "midi": 87,
          "name": "D#6",
          "ticks": 4080,
          "time": 4.4736775,
          "velocity": 0.5118110236220472
        },
        {
          "duration": 0.14254364583333334,
          "durationTicks": 130,
          "midi": 89,
          "name": "F6",
          "ticks": 4320,
          "time": 4.736835,
          "velocity": 0.7795275590551181
        },
        {
          "duration": 0.10964895833333443,
          "durationTicks": 100,
          "midi": 87,
          "name": "D#6",
          "ticks": 4560,
          "time": 4.999992499999999,
          "velocity": 0.47244094488188976
        },
        {
          "duration": 0.07675427083333375,
          "durationTicks": 70,
          "midi": 89,
          "name": "F6",
          "ticks": 4800,
          "time": 5.2631499999999996,
          "velocity": 0.6614173228346457
        },
        {
          "duration": 0.13706119791666627,
          "durationTicks": 125,
          "midi": 94,
          "name": "A#6",
          "ticks": 5040,
          "time": 5.5263075,
          "velocity": 0.7480314960629921
        },
        {
          "duration": 0.1535085416666666,
          "durationTicks": 140,
          "midi": 89,
          "name": "F6",
          "ticks": 5280,
          "time": 5.789465,
          "velocity": 0.6850393700787402
        },
        {
          "duration": 0.17543833333333314,
          "durationTicks": 160,
          "midi": 87,
          "name": "D#6",
          "ticks": 5520,
          "time": 6.0526225,
          "velocity": 0.5511811023622047
        },
        {
          "duration": 0.2467101562499998,
          "durationTicks": 225,
          "midi": 89,
          "name": "F6",
          "ticks": 5760,
          "time": 6.31578,
          "velocity": 0.8110236220472441
        },
        {
          "duration": 0.1589909895833337,
          "durationTicks": 145,
          "midi": 87,
          "name": "D#6",
          "ticks": 6000,
          "time": 6.578937499999999,
          "velocity": 0.4881889763779528
        },
        {
          "duration": 0.08771916666666613,
          "durationTicks": 80,
          "midi": 89,
          "name": "F6",
          "ticks": 6240,
          "time": 6.842095,
          "velocity": 0.7480314960629921
        },
        {
          "duration": 0.14802609374999953,
          "durationTicks": 135,
          "midi": 92,
          "name": "G#6",
          "ticks": 6480,
          "time": 7.1052525,
          "velocity": 0.7007874015748031
        },
        {
          "duration": 0.126096302083333,
          "durationTicks": 115,
          "midi": 89,
          "name": "F6",
          "ticks": 6720,
          "time": 7.36841,
          "velocity": 0.7401574803149606
        },
        {
          "duration": 0.10964895833333355,
          "durationTicks": 100,
          "midi": 87,
          "name": "D#6",
          "ticks": 6960,
          "time": 7.6315675,
          "velocity": 0.4881889763779528
        },
        {
          "duration": 0.10964895833333443,
          "durationTicks": 100,
          "midi": 89,
          "name": "F6",
          "ticks": 7200,
          "time": 7.894724999999999,
          "velocity": 0.7795275590551181
        },
        {
          "duration": 0.14254364583333334,
          "durationTicks": 130,
          "midi": 87,
          "name": "D#6",
          "ticks": 7440,
          "time": 8.1578825,
          "velocity": 0.5039370078740157
        },
        {
          "duration": 0.0877191666666679,
          "durationTicks": 80,
          "midi": 89,
          "name": "F6",
          "ticks": 7680,
          "time": 8.42104,
          "velocity": 0.6456692913385826
        },
        {
          "duration": 0.10964895833333266,
          "durationTicks": 100,
          "midi": 92,
          "name": "G#6",
          "ticks": 7920,
          "time": 8.6841975,
          "velocity": 0.7244094488188977
        },
        {
          "duration": 0.10416651041666647,
          "durationTicks": 95,
          "midi": 89,
          "name": "F6",
          "ticks": 8160,
          "time": 8.947355,
          "velocity": 0.6456692913385826
        },
        {
          "duration": 0.08771916666666613,
          "durationTicks": 80,
          "midi": 87,
          "name": "D#6",
          "ticks": 8400,
          "time": 9.2105125,
          "velocity": 0.5433070866141733
        },
        {
          "duration": 0.1864032291666664,
          "durationTicks": 170,
          "midi": 87,
          "name": "D#6",
          "ticks": 8640,
          "time": 9.47367,
          "velocity": 0.6850393700787402
        },
        {
          "duration": 0.15350854166666572,
          "durationTicks": 140,
          "midi": 85,
          "name": "C#6",
          "ticks": 8880,
          "time": 9.7368275,
          "velocity": 0.5039370078740157
        },
        {
          "duration": 0.07675427083333375,
          "durationTicks": 70,
          "midi": 87,
          "name": "D#6",
          "ticks": 9120,
          "time": 9.999984999999999,
          "velocity": 0.6220472440944882
        },
        {
          "duration": 0.126096302083333,
          "durationTicks": 115,
          "midi": 92,
          "name": "G#6",
          "ticks": 9360,
          "time": 10.263142499999999,
          "velocity": 0.6692913385826772
        },
        {
          "duration": 0.0877191666666679,
          "durationTicks": 80,
          "midi": 87,
          "name": "D#6",
          "ticks": 9600,
          "time": 10.526299999999999,
          "velocity": 0.5118110236220472
        },
        {
          "duration": 0.10964895833333266,
          "durationTicks": 100,
          "midi": 85,
          "name": "C#6",
          "ticks": 9840,
          "time": 10.7894575,
          "velocity": 0.5748031496062992
        },
        {
          "duration": 0.0877191666666679,
          "durationTicks": 80,
          "midi": 87,
          "name": "D#6",
          "ticks": 10080,
          "time": 11.052615,
          "velocity": 0.6850393700787402
        },
        {
          "duration": 0.12061385416666681,
          "durationTicks": 110,
          "midi": 85,
          "name": "C#6",
          "ticks": 10320,
          "time": 11.3157725,
          "velocity": 0.5433070866141733
        },
        {
          "duration": 0.05482447916666722,
          "durationTicks": 50,
          "midi": 87,
          "name": "D#6",
          "ticks": 10560,
          "time": 11.57893,
          "velocity": 0.5039370078740157
        },
        {
          "duration": 0.11513140624999885,
          "durationTicks": 105,
          "midi": 92,
          "name": "G#6",
          "ticks": 10800,
          "time": 11.8420875,
          "velocity": 0.7244094488188977
        },
        {
          "duration": 0.0657893749999996,
          "durationTicks": 60,
          "midi": 87,
          "name": "D#6",
          "ticks": 11040,
          "time": 12.105245,
          "velocity": 0.6062992125984252
        },
        {
          "duration": 0.07127182291666578,
          "durationTicks": 65,
          "midi": 85,
          "name": "C#6",
          "ticks": 11280,
          "time": 12.3684025,
          "velocity": 0.6692913385826772
        },
        {
          "duration": 0.13706119791666715,
          "durationTicks": 125,
          "midi": 87,
          "name": "D#6",
          "ticks": 11520,
          "time": 12.63156,
          "velocity": 0.5669291338582677
        },
        {
          "duration": 0.11513140625000062,
          "durationTicks": 105,
          "midi": 85,
          "name": "C#6",
          "ticks": 11760,
          "time": 12.894717499999999,
          "velocity": 0.6062992125984252
        },
        {
          "duration": 0.07127182291666756,
          "durationTicks": 65,
          "midi": 87,
          "name": "D#6",
          "ticks": 12000,
          "time": 13.157874999999999,
          "velocity": 0.5669291338582677
        },
        {
          "duration": 0.09868406250000028,
          "durationTicks": 90,
          "midi": 92,
          "name": "G#6",
          "ticks": 12240,
          "time": 13.421032499999999,
          "velocity": 0.6850393700787402
        },
        {
          "duration": 0.0877191666666679,
          "durationTicks": 80,
          "midi": 87,
          "name": "D#6",
          "ticks": 12480,
          "time": 13.68419,
          "velocity": 0.5196850393700787
        },
        {
          "duration": 0.22478036458333328,
          "durationTicks": 205,
          "midi": 85,
          "name": "C#6",
          "ticks": 12720,
          "time": 13.9473475,
          "velocity": 0.5039370078740157
        },
        {
          "duration": 0.24122770833333185,
          "durationTicks": 220,
          "midi": 84,
          "name": "C6",
          "ticks": 12960,
          "time": 14.210505,
          "velocity": 0.5905511811023622
        },
        {
          "duration": 0.19736812500000056,
          "durationTicks": 180,
          "midi": 82,
          "name": "A#5",
          "ticks": 13200,
          "time": 14.4736625,
          "velocity": 0.47244094488188976
        },
        {
          "duration": 0.10416651041666647,
          "durationTicks": 95,
          "midi": 84,
          "name": "C6",
          "ticks": 13440,
          "time": 14.73682,
          "velocity": 0.5354330708661418
        },
        {
          "duration": 0.1315787499999992,
          "durationTicks": 120,
          "midi": 89,
          "name": "F6",
          "ticks": 13680,
          "time": 14.9999775,
          "velocity": 0.7244094488188977
        },
        {
          "duration": 0.19736812499999878,
          "durationTicks": 180,
          "midi": 84,
          "name": "C6",
          "ticks": 13920,
          "time": 15.263135,
          "velocity": 0.5196850393700787
        },
        {
          "duration": 0.07675427083333375,
          "durationTicks": 70,
          "midi": 82,
          "name": "A#5",
          "ticks": 14160,
          "time": 15.526292499999998,
          "velocity": 0.5748031496062992
        },
        {
          "duration": 0.21929791666666887,
          "durationTicks": 200,
          "midi": 89,
          "name": "F6",
          "ticks": 14400,
          "time": 15.789449999999999,
          "velocity": 0.7244094488188977
        },
        {
          "duration": 0.1535085416666675,
          "durationTicks": 140,
          "midi": 87,
          "name": "D#6",
          "ticks": 14640,
          "time": 16.0526075,
          "velocity": 0.4409448818897638
        },
        {
          "duration": 0.07127182291666756,
          "durationTicks": 65,
          "midi": 89,
          "name": "F6",
          "ticks": 14880,
          "time": 16.315765,
          "velocity": 0.6535433070866141
        },
        {
          "duration": 0.2247803645833315,
          "durationTicks": 205,
          "midi": 94,
          "name": "A#6",
          "ticks": 15120,
          "time": 16.5789225,
          "velocity": 0.7637795275590551
        },
        {
          "duration": 0.2467101562499998,
          "durationTicks": 225,
          "midi": 89,
          "name": "F6",
          "ticks": 15360,
          "time": 16.84208,
          "velocity": 0.5354330708661418
        },
        {
          "duration": 0.10416651041666825,
          "durationTicks": 95,
          "midi": 87,
          "name": "D#6",
          "ticks": 15600,
          "time": 17.105237499999998,
          "velocity": 0.47244094488188976
        },
        {
          "duration": 0.20285057291666675,
          "durationTicks": 185,
          "midi": 89,
          "name": "F6",
          "ticks": 15840,
          "time": 17.368395,
          "velocity": 0.7559055118110236
        },
        {
          "duration": 0.16995588541666606,
          "durationTicks": 155,
          "midi": 87,
          "name": "D#6",
          "ticks": 16080,
          "time": 17.631552499999998,
          "velocity": 0.5039370078740157
        },
        {
          "duration": 0.08771916666666613,
          "durationTicks": 80,
          "midi": 89,
          "name": "F6",
          "ticks": 16320,
          "time": 17.89471,
          "velocity": 0.7401574803149606
        },
        {
          "duration": 0.13706119791666538,
          "durationTicks": 125,
          "midi": 94,
          "name": "A#6",
          "ticks": 16560,
          "time": 18.1578675,
          "velocity": 0.7244094488188977
        },
        {
          "duration": 0.17543833333333225,
          "durationTicks": 160,
          "midi": 89,
          "name": "F6",
          "ticks": 16800,
          "time": 18.421025,
          "velocity": 0.6456692913385826
        },
        {
          "duration": 0.1535085416666675,
          "durationTicks": 140,
          "midi": 87,
          "name": "D#6",
          "ticks": 17040,
          "time": 18.6841825,
          "velocity": 0.5354330708661418
        },
        {
          "duration": 0.16447343749999987,
          "durationTicks": 150,
          "midi": 89,
          "name": "F6",
          "ticks": 17280,
          "time": 18.94734,
          "velocity": 0.7637795275590551
        },
        {
          "duration": 0.18640322916666463,
          "durationTicks": 170,
          "midi": 87,
          "name": "D#6",
          "ticks": 17520,
          "time": 19.2104975,
          "velocity": 0.4409448818897638
        },
        {
          "duration": 0.08223671874999994,
          "durationTicks": 75,
          "midi": 89,
          "name": "F6",
          "ticks": 17760,
          "time": 19.473655,
          "velocity": 0.7244094488188977
        },
        {
          "duration": 0.1480260937500013,
          "durationTicks": 135,
          "midi": 92,
          "name": "G#6",
          "ticks": 18000,
          "time": 19.7368125,
          "velocity": 0.7244094488188977
        },
        {
          "duration": 0.18640322916666818,
          "durationTicks": 170,
          "midi": 89,
          "name": "F6",
          "ticks": 18240,
          "time": 19.999969999999998,
          "velocity": 0.6535433070866141
        },
        {
          "duration": 0.14254364583333512,
          "durationTicks": 130,
          "midi": 87,
          "name": "D#6",
          "ticks": 18480,
          "time": 20.2631275,
          "velocity": 0.4645669291338583
        },
        {
          "duration": 0.19188567708333437,
          "durationTicks": 175,
          "midi": 89,
          "name": "F6",
          "ticks": 18720,
          "time": 20.526284999999998,
          "velocity": 0.7795275590551181
        },
        {
          "duration": 0.14802609374999776,
          "durationTicks": 135,
          "midi": 87,
          "name": "D#6",
          "ticks": 18960,
          "time": 20.7894425,
          "velocity": 0.4409448818897638
        },
        {
          "duration": 0.07675427083333375,
          "durationTicks": 70,
          "midi": 89,
          "name": "F6",
          "ticks": 19200,
          "time": 21.052599999999998,
          "velocity": 0.7244094488188977
        },
        {
          "duration": 0.14802609374999776,
          "durationTicks": 135,
          "midi": 92,
          "name": "G#6",
          "ticks": 19440,
          "time": 21.3157575,
          "velocity": 0.7480314960629921
        },
        {
          "duration": 0.1535085416666675,
          "durationTicks": 140,
          "midi": 89,
          "name": "F6",
          "ticks": 19680,
          "time": 21.578915,
          "velocity": 0.7401574803149606
        },
        {
          "duration": 0.10964895833333443,
          "durationTicks": 100,
          "midi": 87,
          "name": "D#6",
          "ticks": 19920,
          "time": 21.8420725,
          "velocity": 0.5905511811023622
        },
        {
          "duration": 0.16447343749999987,
          "durationTicks": 150,
          "midi": 87,
          "name": "D#6",
          "ticks": 20160,
          "time": 22.10523,
          "velocity": 0.7480314960629921
        },
        {
          "duration": 0.13706119791666538,
          "durationTicks": 125,
          "midi": 85,
          "name": "C#6",
          "ticks": 20400,
          "time": 22.3683875,
          "velocity": 0.5354330708661418
        },
        {
          "duration": 0.07675427083333375,
          "durationTicks": 70,
          "midi": 87,
          "name": "D#6",
          "ticks": 20640,
          "time": 22.631545,
          "velocity": 0.5669291338582677
        },
        {
          "duration": 0.13706119791666538,
          "durationTicks": 125,
          "midi": 96,
          "name": "C7",
          "ticks": 20880,
          "time": 22.894702499999998,
          "velocity": 0.7401574803149606
        },
        {
          "duration": 0.10964895833333443,
          "durationTicks": 100,
          "midi": 87,
          "name": "D#6",
          "ticks": 21120,
          "time": 23.15786,
          "velocity": 0.6062992125984252
        },
        {
          "duration": 0.09320161458333587,
          "durationTicks": 85,
          "midi": 85,
          "name": "C#6",
          "ticks": 21360,
          "time": 23.421017499999998,
          "velocity": 0.6062992125984252
        },
        {
          "duration": 0.10416651041666469,
          "durationTicks": 95,
          "midi": 92,
          "name": "G#6",
          "ticks": 21600,
          "time": 23.684175,
          "velocity": 0.7480314960629921
        },
        {
          "duration": 0.06030692708333518,
          "durationTicks": 55,
          "midi": 87,
          "name": "D#6",
          "ticks": 21840,
          "time": 23.947332499999998,
          "velocity": 0.49606299212598426
        },
        {
          "duration": 0.07675427083333375,
          "durationTicks": 70,
          "midi": 85,
          "name": "C#6",
          "ticks": 22080,
          "time": 24.21049,
          "velocity": 0.6377952755905512
        },
        {
          "duration": 0.09868406250000206,
          "durationTicks": 90,
          "midi": 96,
          "name": "C7",
          "ticks": 22320,
          "time": 24.4736475,
          "velocity": 0.8346456692913385
        },
        {
          "duration": 0.08771916666666257,
          "durationTicks": 80,
          "midi": 87,
          "name": "D#6",
          "ticks": 22560,
          "time": 24.736805,
          "velocity": 0.4881889763779528
        },
        {
          "duration": 0.16995588541666606,
          "durationTicks": 155,
          "midi": 85,
          "name": "C#6",
          "ticks": 22800,
          "time": 24.9999625,
          "velocity": 0.5748031496062992
        },
        {
          "duration": 0.14254364583333157,
          "durationTicks": 130,
          "midi": 87,
          "name": "D#6",
          "ticks": 23040,
          "time": 25.26312,
          "velocity": 0.6771653543307087
        },
        {
          "duration": 0.13706119791666538,
          "durationTicks": 125,
          "midi": 85,
          "name": "C#6",
          "ticks": 23280,
          "time": 25.5262775,
          "velocity": 0.5669291338582677
        },
        {
          "duration": 0.06578937500000137,
          "durationTicks": 60,
          "midi": 87,
          "name": "D#6",
          "ticks": 23520,
          "time": 25.789434999999997,
          "velocity": 0.4566929133858268
        },
        {
          "duration": 0.10416651041666469,
          "durationTicks": 95,
          "midi": 96,
          "name": "C7",
          "ticks": 23760,
          "time": 26.0525925,
          "velocity": 0.7165354330708661
        },
        {
          "duration": 0.038377135416666874,
          "durationTicks": 35,
          "midi": 87,
          "name": "D#6",
          "ticks": 24000,
          "time": 26.315749999999998,
          "velocity": 0.4566929133858268
        },
        {
          "duration": 0.10964895833333443,
          "durationTicks": 100,
          "midi": 85,
          "name": "C#6",
          "ticks": 24240,
          "time": 26.5789075,
          "velocity": 0.4251968503937008
        },
        {
          "duration": 0.09868406250000206,
          "durationTicks": 90,
          "midi": 92,
          "name": "G#6",
          "ticks": 24480,
          "time": 26.842064999999998,
          "velocity": 0.6850393700787402
        },
        {
          "duration": 0.03837713541666332,
          "durationTicks": 35,
          "midi": 87,
          "name": "D#6",
          "ticks": 24720,
          "time": 27.1052225,
          "velocity": 0.33858267716535434
        },
        {
          "duration": 0.09320161458333587,
          "durationTicks": 85,
          "midi": 85,
          "name": "C#6",
          "ticks": 24960,
          "time": 27.36838,
          "velocity": 0.5669291338582677
        },
        {
          "duration": 0.12061385416666326,
          "durationTicks": 110,
          "midi": 96,
          "name": "C7",
          "ticks": 25200,
          "time": 27.6315375,
          "velocity": 0.7952755905511811
        },
        {
          "duration": 0.07675427083333375,
          "durationTicks": 70,
          "midi": 87,
          "name": "D#6",
          "ticks": 25440,
          "time": 27.894695,
          "velocity": 0.5196850393700787
        },
        {
          "duration": 0.12609630208333655,
          "durationTicks": 115,
          "midi": 85,
          "name": "C#6",
          "ticks": 25680,
          "time": 28.157852499999997,
          "velocity": 0.5196850393700787
        },
        {
          "duration": 0.18640322916666463,
          "durationTicks": 170,
          "midi": 89,
          "name": "F6",
          "ticks": 25920,
          "time": 28.42101,
          "velocity": 0.5511811023622047
        },
        {
          "duration": 0.14254364583333512,
          "durationTicks": 130,
          "midi": 87,
          "name": "D#6",
          "ticks": 26160,
          "time": 28.684167499999997,
          "velocity": 0.3937007874015748
        },
        {
          "duration": 0.08771916666666613,
          "durationTicks": 80,
          "midi": 89,
          "name": "F6",
          "ticks": 26400,
          "time": 28.947325,
          "velocity": 0.49606299212598426
        },
        {
          "duration": 0.10416651041666825,
          "durationTicks": 95,
          "midi": 82,
          "name": "A#5",
          "ticks": 26640,
          "time": 29.210482499999998,
          "velocity": 0.7244094488188977
        },
        {
          "duration": 0.18640322916666818,
          "durationTicks": 170,
          "midi": 94,
          "name": "A#6",
          "ticks": 26640,
          "time": 29.210482499999998,
          "velocity": 0.7480314960629921
        },
        {
          "duration": 0.11513140625000062,
          "durationTicks": 105,
          "midi": 89,
          "name": "F6",
          "ticks": 26880,
          "time": 29.47364,
          "velocity": 0.5826771653543307
        },
        {
          "duration": 0.12609630208333655,
          "durationTicks": 115,
          "midi": 87,
          "name": "D#6",
          "ticks": 27120,
          "time": 29.736797499999998,
          "velocity": 0.49606299212598426
        },
        {
          "duration": 0.09320161458333232,
          "durationTicks": 85,
          "midi": 89,
          "name": "F6",
          "ticks": 27360,
          "time": 29.999955,
          "velocity": 0.7637795275590551
        },
        {
          "duration": 0.13706119791666538,
          "durationTicks": 125,
          "midi": 87,
          "name": "D#6",
          "ticks": 27600,
          "time": 30.2631125,
          "velocity": 0.5196850393700787
        },
        {
          "duration": 0.07127182291666401,
          "durationTicks": 65,
          "midi": 89,
          "name": "F6",
          "ticks": 27840,
          "time": 30.52627,
          "velocity": 0.6929133858267716
        },
        {
          "duration": 0.09320161458333587,
          "durationTicks": 85,
          "midi": 82,
          "name": "A#5",
          "ticks": 28080,
          "time": 30.7894275,
          "velocity": 0.7007874015748031
        },
        {
          "duration": 0.1754383333333358,
          "durationTicks": 160,
          "midi": 94,
          "name": "A#6",
          "ticks": 28080,
          "time": 30.7894275,
          "velocity": 0.7637795275590551
        },
        {
          "duration": 0.12609630208333655,
          "durationTicks": 115,
          "midi": 89,
          "name": "F6",
          "ticks": 28320,
          "time": 31.052584999999997,
          "velocity": 0.5196850393700787
        },
        {
          "duration": 0.1589909895833337,
          "durationTicks": 145,
          "midi": 87,
          "name": "D#6",
          "ticks": 28560,
          "time": 31.3157425,
          "velocity": 0.5669291338582677
        },
        {
          "duration": 0.16447343749999987,
          "durationTicks": 150,
          "midi": 89,
          "name": "F6",
          "ticks": 28800,
          "time": 31.578899999999997,
          "velocity": 0.7952755905511811
        },
        {
          "duration": 0.20833302083333294,
          "durationTicks": 190,
          "midi": 87,
          "name": "D#6",
          "ticks": 29040,
          "time": 31.8420575,
          "velocity": 0.4251968503937008
        },
        {
          "duration": 0.07127182291666401,
          "durationTicks": 65,
          "midi": 89,
          "name": "F6",
          "ticks": 29280,
          "time": 32.105215,
          "velocity": 0.6535433070866141
        },
        {
          "duration": 0.09320161458333587,
          "durationTicks": 85,
          "midi": 80,
          "name": "G#5",
          "ticks": 29520,
          "time": 32.3683725,
          "velocity": 0.6692913385826772
        },
        {
          "duration": 0.17543833333333225,
          "durationTicks": 160,
          "midi": 92,
          "name": "G#6",
          "ticks": 29520,
          "time": 32.3683725,
          "velocity": 0.6692913385826772
        },
        {
          "duration": 0.13706119791666538,
          "durationTicks": 125,
          "midi": 89,
          "name": "F6",
          "ticks": 29760,
          "time": 32.63153,
          "velocity": 0.6535433070866141
        },
        {
          "duration": 0.12061385416667036,
          "durationTicks": 110,
          "midi": 87,
          "name": "D#6",
          "ticks": 30000,
          "time": 32.894687499999996,
          "velocity": 0.4645669291338583
        },
        {
          "duration": 0.11513140624999352,
          "durationTicks": 105,
          "midi": 89,
          "name": "F6",
          "ticks": 30240,
          "time": 33.157845,
          "velocity": 0.6771653543307087
        },
        {
          "duration": 0.126096302083333,
          "durationTicks": 115,
          "midi": 87,
          "name": "D#6",
          "ticks": 30480,
          "time": 33.4210025,
          "velocity": 0.44881889763779526
        },
        {
          "duration": 0.07127182291667111,
          "durationTicks": 65,
          "midi": 89,
          "name": "F6",
          "ticks": 30720,
          "time": 33.68416,
          "velocity": 0.5905511811023622
        },
        {
          "duration": 0.11513140625000062,
          "durationTicks": 105,
          "midi": 80,
          "name": "G#5",
          "ticks": 30960,
          "time": 33.9473175,
          "velocity": 0.6535433070866141
        },
        {
          "duration": 0.14802609375000486,
          "durationTicks": 135,
          "midi": 92,
          "name": "G#6",
          "ticks": 30960,
          "time": 33.9473175,
          "velocity": 0.7007874015748031
        },
        {
          "duration": 0.1973681250000041,
          "durationTicks": 180,
          "midi": 89,
          "name": "F6",
          "ticks": 31200,
          "time": 34.210474999999995,
          "velocity": 0.5669291338582677
        },
        {
          "duration": 0.09320161458332876,
          "durationTicks": 85,
          "midi": 87,
          "name": "D#6",
          "ticks": 31440,
          "time": 34.4736325,
          "velocity": 0.5748031496062992
        },
        {
          "duration": 0.15899098958333013,
          "durationTicks": 145,
          "midi": 87,
          "name": "D#6",
          "ticks": 31680,
          "time": 34.73679,
          "velocity": 0.5433070866141733
        },
        {
          "duration": 0.11513140625000062,
          "durationTicks": 105,
          "midi": 85,
          "name": "C#6",
          "ticks": 31920,
          "time": 34.9999475,
          "velocity": 0.5433070866141733
        },
        {
          "duration": 0.07127182291667111,
          "durationTicks": 65,
          "midi": 87,
          "name": "D#6",
          "ticks": 32160,
          "time": 35.263104999999996,
          "velocity": 0.5748031496062992
        },
        {
          "duration": 0.07675427083332664,
          "durationTicks": 70,
          "midi": 80,
          "name": "G#5",
          "ticks": 32400,
          "time": 35.5262625,
          "velocity": 0.7480314960629921
        },
        {
          "duration": 0.09320161458332876,
          "durationTicks": 85,
          "midi": 92,
          "name": "G#6",
          "ticks": 32400,
          "time": 35.5262625,
          "velocity": 0.7007874015748031
        },
        {
          "duration": 0.0986840624999985,
          "durationTicks": 90,
          "midi": 87,
          "name": "D#6",
          "ticks": 32640,
          "time": 35.78942,
          "velocity": 0.5905511811023622
        },
        {
          "duration": 0.08771916666666613,
          "durationTicks": 80,
          "midi": 85,
          "name": "C#6",
          "ticks": 32880,
          "time": 36.0525775,
          "velocity": 0.5118110236220472
        },
        {
          "duration": 0.08223671875000349,
          "durationTicks": 75,
          "midi": 87,
          "name": "D#6",
          "ticks": 33120,
          "time": 36.315735,
          "velocity": 0.6535433070866141
        },
        {
          "duration": 0.06578937500000137,
          "durationTicks": 60,
          "midi": 85,
          "name": "C#6",
          "ticks": 33360,
          "time": 36.578892499999995,
          "velocity": 0.48031496062992124
        },
        {
          "duration": 0.08771916666666613,
          "durationTicks": 80,
          "midi": 87,
          "name": "D#6",
          "ticks": 33600,
          "time": 36.84205,
          "velocity": 0.4881889763779528
        },
        {
          "duration": 0.07675427083333375,
          "durationTicks": 70,
          "midi": 80,
          "name": "G#5",
          "ticks": 33840,
          "time": 37.1052075,
          "velocity": 0.6692913385826772
        },
        {
          "duration": 0.11513140625000062,
          "durationTicks": 105,
          "midi": 92,
          "name": "G#6",
          "ticks": 33840,
          "time": 37.1052075,
          "velocity": 0.7007874015748031
        },
        {
          "duration": 0.0986840624999985,
          "durationTicks": 90,
          "midi": 87,
          "name": "D#6",
          "ticks": 34080,
          "time": 37.368365,
          "velocity": 0.5826771653543307
        },
        {
          "duration": 0.10416651041667535,
          "durationTicks": 95,
          "midi": 85,
          "name": "C#6",
          "ticks": 34320,
          "time": 37.631522499999996,
          "velocity": 0.5196850393700787
        },
        {
          "duration": 0.13706119791666538,
          "durationTicks": 125,
          "midi": 87,
          "name": "D#6",
          "ticks": 34560,
          "time": 37.89468,
          "velocity": 0.6062992125984252
        },
        {
          "duration": 0.09320161458332876,
          "durationTicks": 85,
          "midi": 85,
          "name": "C#6",
          "ticks": 34800,
          "time": 38.1578375,
          "velocity": 0.4881889763779528
        },
        {
          "duration": 0.07127182291667111,
          "durationTicks": 65,
          "midi": 87,
          "name": "D#6",
          "ticks": 35040,
          "time": 38.420995,
          "velocity": 0.47244094488188976
        },
        {
          "duration": 0.08771916666667323,
          "durationTicks": 80,
          "midi": 80,
          "name": "G#5",
          "ticks": 35280,
          "time": 38.684152499999996,
          "velocity": 0.7637795275590551
        },
        {
          "duration": 0.16447343749999987,
          "durationTicks": 150,
          "midi": 92,
          "name": "G#6",
          "ticks": 35280,
          "time": 38.684152499999996,
          "velocity": 0.7637795275590551
        },
        {
          "duration": 0.23574526041666388,
          "durationTicks": 215,
          "midi": 87,
          "name": "D#6",
          "ticks": 35520,
          "time": 38.94731,
          "velocity": 0.5905511811023622
        },
        {
          "duration": 0.23574526041666388,
          "durationTicks": 215,
          "midi": 85,
          "name": "C#6",
          "ticks": 35760,
          "time": 39.2104675,
          "velocity": 0.5433070866141733
        },
        {
          "duration": 0.235745260416671,
          "durationTicks": 215,
          "midi": 84,
          "name": "C6",
          "ticks": 36000,
          "time": 39.473625,
          "velocity": 0.6614173228346457
        },
        {
          "duration": 0.21381546874999913,
          "durationTicks": 195,
          "midi": 82,
          "name": "A#5",
          "ticks": 36240,
          "time": 39.7367825,
          "velocity": 0.48031496062992124
        },
        {
          "duration": 0.07675427083333375,
          "durationTicks": 70,
          "midi": 84,
          "name": "C6",
          "ticks": 36480,
          "time": 39.999939999999995,
          "velocity": 0.5275590551181102
        },
        {
          "duration": 0.14802609374999776,
          "durationTicks": 135,
          "midi": 77,
          "name": "F5",
          "ticks": 36720,
          "time": 40.2630975,
          "velocity": 0.5433070866141733
        },
        {
          "duration": 0.14802609374999776,
          "durationTicks": 135,
          "midi": 89,
          "name": "F6",
          "ticks": 36720,
          "time": 40.2630975,
          "velocity": 0.5826771653543307
        },
        {
          "duration": 0.10964895833333088,
          "durationTicks": 100,
          "midi": 84,
          "name": "C6",
          "ticks": 36960,
          "time": 40.526255,
          "velocity": 0.4015748031496063
        },
        {
          "duration": 0.14802609374999776,
          "durationTicks": 135,
          "midi": 82,
          "name": "A#5",
          "ticks": 37200,
          "time": 40.7894125,
          "velocity": 0.44881889763779526
        },
        {
          "duration": 0.14802609375000486,
          "durationTicks": 135,
          "midi": 89,
          "name": "F6",
          "ticks": 37440,
          "time": 41.052569999999996,
          "velocity": 0.7165354330708661
        },
        {
          "duration": 0.16995588541666962,
          "durationTicks": 155,
          "midi": 87,
          "name": "D#6",
          "ticks": 37680,
          "time": 41.3157275,
          "velocity": 0.5196850393700787
        },
        {
          "duration": 0.12061385416667036,
          "durationTicks": 110,
          "midi": 89,
          "name": "F6",
          "ticks": 37920,
          "time": 41.578885,
          "velocity": 0.5511811023622047
        },
        {
          "duration": 0.13157875000000274,
          "durationTicks": 120,
          "midi": 82,
          "name": "A#5",
          "ticks": 38160,
          "time": 41.8420425,
          "velocity": 0.7244094488188977
        },
        {
          "duration": 0.197368124999997,
          "durationTicks": 180,
          "midi": 94,
          "name": "A#6",
          "ticks": 38160,
          "time": 41.8420425,
          "velocity": 0.7874015748031497
        },
        {
          "duration": 0.126096302083333,
          "durationTicks": 115,
          "midi": 89,
          "name": "F6",
          "ticks": 38400,
          "time": 42.105199999999996,
          "velocity": 0.5433070866141733
        },
        {
          "duration": 0.13706119791667248,
          "durationTicks": 125,
          "midi": 87,
          "name": "D#6",
          "ticks": 38640,
          "time": 42.368357499999995,
          "velocity": 0.4409448818897638
        },
        {
          "duration": 0.10964895833333088,
          "durationTicks": 100,
          "midi": 89,
          "name": "F6",
          "ticks": 38880,
          "time": 42.631515,
          "velocity": 0.7165354330708661
        },
        {
          "duration": 0.2247803645833315,
          "durationTicks": 205,
          "midi": 87,
          "name": "D#6",
          "ticks": 39120,
          "time": 42.8946725,
          "velocity": 0.4881889763779528
        },
        {
          "duration": 0.07127182291667111,
          "durationTicks": 65,
          "midi": 89,
          "name": "F6",
          "ticks": 39360,
          "time": 43.15783,
          "velocity": 0.5905511811023622
        },
        {
          "duration": 0.17543833333333225,
          "durationTicks": 160,
          "midi": 82,
          "name": "A#5",
          "ticks": 39600,
          "time": 43.420987499999995,
          "velocity": 0.6850393700787402
        },
        {
          "duration": 0.1973681250000041,
          "durationTicks": 180,
          "midi": 94,
          "name": "A#6",
          "ticks": 39600,
          "time": 43.420987499999995,
          "velocity": 0.7480314960629921
        },
        {
          "duration": 0.14254364583332801,
          "durationTicks": 130,
          "midi": 89,
          "name": "F6",
          "ticks": 39840,
          "time": 43.684145,
          "velocity": 0.5905511811023622
        },
        {
          "duration": 0.17543833333333225,
          "durationTicks": 160,
          "midi": 87,
          "name": "D#6",
          "ticks": 40080,
          "time": 43.9473025,
          "velocity": 0.5826771653543307
        },
        {
          "duration": 0.197368124999997,
          "durationTicks": 180,
          "midi": 89,
          "name": "F6",
          "ticks": 40320,
          "time": 44.21046,
          "velocity": 0.7795275590551181
        },
        {
          "duration": 0.17543833333333225,
          "durationTicks": 160,
          "midi": 87,
          "name": "D#6",
          "ticks": 40560,
          "time": 44.473617499999996,
          "velocity": 0.5826771653543307
        },
        {
          "duration": 0.13706119791666538,
          "durationTicks": 125,
          "midi": 89,
          "name": "F6",
          "ticks": 40800,
          "time": 44.736775,
          "velocity": 0.6141732283464567
        },
        {
          "duration": 0.13157874999999564,
          "durationTicks": 120,
          "midi": 80,
          "name": "G#5",
          "ticks": 41040,
          "time": 44.9999325,
          "velocity": 0.7007874015748031
        },
        {
          "duration": 0.17543833333333225,
          "durationTicks": 160,
          "midi": 92,
          "name": "G#6",
          "ticks": 41040,
          "time": 44.9999325,
          "velocity": 0.6535433070866141
        },
        {
          "duration": 0.12061385416667036,
          "durationTicks": 110,
          "midi": 89,
          "name": "F6",
          "ticks": 41280,
          "time": 45.26309,
          "velocity": 0.5984251968503937
        },
        {
          "duration": 0.11513140625000062,
          "durationTicks": 105,
          "midi": 87,
          "name": "D#6",
          "ticks": 41520,
          "time": 45.5262475,
          "velocity": 0.5748031496062992
        },
        {
          "duration": 0.13706119791667248,
          "durationTicks": 125,
          "midi": 89,
          "name": "F6",
          "ticks": 41760,
          "time": 45.789404999999995,
          "velocity": 0.6377952755905512
        },
        {
          "duration": 0.10416651041666825,
          "durationTicks": 95,
          "midi": 87,
          "name": "D#6",
          "ticks": 42000,
          "time": 46.0525625,
          "velocity": 0.5354330708661418
        },
        {
          "duration": 0.10416651041666825,
          "durationTicks": 95,
          "midi": 89,
          "name": "F6",
          "ticks": 42240,
          "time": 46.31572,
          "velocity": 0.5905511811023622
        },
        {
          "duration": 0.08223671875000349,
          "durationTicks": 75,
          "midi": 80,
          "name": "G#5",
          "ticks": 42480,
          "time": 46.5788775,
          "velocity": 0.7637795275590551
        },
        {
          "duration": 0.13706119791667248,
          "durationTicks": 125,
          "midi": 92,
          "name": "G#6",
          "ticks": 42480,
          "time": 46.5788775,
          "velocity": 0.7244094488188977
        },
        {
          "duration": 0.10964895833333088,
          "durationTicks": 100,
          "midi": 89,
          "name": "F6",
          "ticks": 42720,
          "time": 46.842034999999996,
          "velocity": 0.5984251968503937
        },
        {
          "duration": 0.09320161458332876,
          "durationTicks": 85,
          "midi": 87,
          "name": "D#6",
          "ticks": 42960,
          "time": 47.1051925,
          "velocity": 0.5748031496062992
        },
        {
          "duration": 0.18640322916666463,
          "durationTicks": 170,
          "midi": 87,
          "name": "D#6",
          "ticks": 43200,
          "time": 47.36835,
          "velocity": 0.5511811023622047
        },
        {
          "duration": 0.12061385416667036,
          "durationTicks": 110,
          "midi": 85,
          "name": "C#6",
          "ticks": 43440,
          "time": 47.6315075,
          "velocity": 0.5433070866141733
        },
        {
          "duration": 0.08771916666667323,
          "durationTicks": 80,
          "midi": 87,
          "name": "D#6",
          "ticks": 43680,
          "time": 47.894664999999996,
          "velocity": 0.5669291338582677
        },
        {
          "duration": 0.11513140625000062,
          "durationTicks": 105,
          "midi": 96,
          "name": "C7",
          "ticks": 43920,
          "time": 48.157822499999995,
          "velocity": 0.8267716535433071
        },
        {
          "duration": 0.08771916666666613,
          "durationTicks": 80,
          "midi": 87,
          "name": "D#6",
          "ticks": 44160,
          "time": 48.42098,
          "velocity": 0.5433070866141733
        },
        {
          "duration": 0.09320161458332876,
          "durationTicks": 85,
          "midi": 85,
          "name": "C#6",
          "ticks": 44400,
          "time": 48.6841375,
          "velocity": 0.5433070866141733
        },
        {
          "duration": 0.10416651041666825,
          "durationTicks": 95,
          "midi": 92,
          "name": "G#6",
          "ticks": 44640,
          "time": 48.947295,
          "velocity": 0.7480314960629921
        },
        {
          "duration": 0.07127182291667111,
          "durationTicks": 65,
          "midi": 87,
          "name": "D#6",
          "ticks": 44880,
          "time": 49.210452499999995,
          "velocity": 0.49606299212598426
        },
        {
          "duration": 0.07127182291666401,
          "durationTicks": 65,
          "midi": 85,
          "name": "C#6",
          "ticks": 45120,
          "time": 49.47361,
          "velocity": 0.6220472440944882
        },
        {
          "duration": 0.10416651041666825,
          "durationTicks": 95,
          "midi": 96,
          "name": "C7",
          "ticks": 45360,
          "time": 49.7367675,
          "velocity": 0.7795275590551181
        },
        {
          "duration": 0.09320161458332876,
          "durationTicks": 85,
          "midi": 87,
          "name": "D#6",
          "ticks": 45600,
          "time": 49.999925,
          "velocity": 0.49606299212598426
        },
        {
          "duration": 0.180920781250002,
          "durationTicks": 165,
          "midi": 85,
          "name": "C#6",
          "ticks": 45840,
          "time": 50.263082499999996,
          "velocity": 0.6062992125984252
        },
        {
          "duration": 0.2247803645833244,
          "durationTicks": 205,
          "midi": 87,
          "name": "D#6",
          "ticks": 46080,
          "time": 50.52624,
          "velocity": 0.6614173228346457
        },
        {
          "duration": 0.10416651041666825,
          "durationTicks": 95,
          "midi": 85,
          "name": "C#6",
          "ticks": 46320,
          "time": 50.7893975,
          "velocity": 0.5748031496062992
        },
        {
          "duration": 0.09320161458332876,
          "durationTicks": 85,
          "midi": 87,
          "name": "D#6",
          "ticks": 46560,
          "time": 51.052555,
          "velocity": 0.5433070866141733
        },
        {
          "duration": 0.12061385416667036,
          "durationTicks": 110,
          "midi": 96,
          "name": "C7",
          "ticks": 46800,
          "time": 51.3157125,
          "velocity": 0.7952755905511811
        },
        {
          "duration": 0.11513140625000062,
          "durationTicks": 105,
          "midi": 87,
          "name": "D#6",
          "ticks": 47040,
          "time": 51.578869999999995,
          "velocity": 0.5118110236220472
        },
        {
          "duration": 0.2631574999999984,
          "durationTicks": 240,
          "midi": 85,
          "name": "C#6",
          "ticks": 47280,
          "time": 51.8420275,
          "velocity": 0.5354330708661418
        },
        {
          "duration": 0.24122770833332652,
          "durationTicks": 220,
          "midi": 92,
          "name": "G#6",
          "ticks": 47520,
          "time": 52.105185,
          "velocity": 0.6377952755905512
        },
        {
          "duration": 0.2631574999999984,
          "durationTicks": 240,
          "midi": 87,
          "name": "D#6",
          "ticks": 47760,
          "time": 52.3683425,
          "velocity": 0.5433070866141733
        },
        {
          "duration": 0.25767505208333574,
          "durationTicks": 235,
          "midi": 85,
          "name": "C#6",
          "ticks": 48000,
          "time": 52.631499999999996,
          "velocity": 0.4251968503937008
        },
        {
          "duration": 0.24671015624999626,
          "durationTicks": 225,
          "midi": 96,
          "name": "C7",
          "ticks": 48240,
          "time": 52.8946575,
          "velocity": 0.6535433070866141
        },
        {
          "duration": 0.07127182291666401,
          "durationTicks": 65,
          "midi": 87,
          "name": "D#6",
          "ticks": 48480,
          "time": 53.157815,
          "velocity": 0.5196850393700787
        },
        {
          "duration": 0.06578937500000137,
          "durationTicks": 60,
          "midi": 85,
          "name": "C#6",
          "ticks": 48720,
          "time": 53.4209725,
          "velocity": 0.5118110236220472
        },
        {
          "duration": 0.2686399479166681,
          "durationTicks": 245,
          "midi": 63,
          "name": "D#4",
          "ticks": 48960,
          "time": 53.684129999999996,
          "velocity": 0.47244094488188976
        },
        {
          "duration": 0.28508729166667024,
          "durationTicks": 260,
          "midi": 65,
          "name": "F4",
          "ticks": 49200,
          "time": 53.947287499999995,
          "velocity": 0.6614173228346457
        },
        {
          "duration": 0.21929791666666887,
          "durationTicks": 200,
          "midi": 63,
          "name": "D#4",
          "ticks": 49440,
          "time": 54.210445,
          "velocity": 0.6062992125984252
        },
        {
          "duration": 0.2960521875000026,
          "durationTicks": 270,
          "midi": 58,
          "name": "A#3",
          "ticks": 49680,
          "time": 54.4736025,
          "velocity": 0.5354330708661418
        },
        {
          "duration": 0.4440782812500004,
          "durationTicks": 405,
          "midi": 63,
          "name": "D#4",
          "ticks": 49920,
          "time": 54.73676,
          "velocity": 0.6062992125984252
        },
        {
          "duration": 0.1973681250000041,
          "durationTicks": 180,
          "midi": 58,
          "name": "A#3",
          "ticks": 51360,
          "time": 56.315704999999994,
          "velocity": 0.4881889763779528
        },
        {
          "duration": 0.2686399479166752,
          "durationTicks": 245,
          "midi": 63,
          "name": "D#4",
          "ticks": 51360,
          "time": 56.315704999999994,
          "velocity": 0.5433070866141733
        },
        {
          "duration": 0.2631574999999984,
          "durationTicks": 240,
          "midi": 61,
          "name": "C#4",
          "ticks": 51600,
          "time": 56.5788625,
          "velocity": 0.7480314960629921
        },
        {
          "duration": 0.20833302083332939,
          "durationTicks": 190,
          "midi": 65,
          "name": "F4",
          "ticks": 51600,
          "time": 56.5788625,
          "velocity": 0.6850393700787402
        },
        {
          "duration": 0.23026281250000125,
          "durationTicks": 210,
          "midi": 58,
          "name": "A#3",
          "ticks": 51840,
          "time": 56.84202,
          "velocity": 0.5511811023622047
        },
        {
          "duration": 0.2796048437500005,
          "durationTicks": 255,
          "midi": 63,
          "name": "D#4",
          "ticks": 51840,
          "time": 56.84202,
          "velocity": 0.7007874015748031
        },
        {
          "duration": 0.23026281250000125,
          "durationTicks": 210,
          "midi": 61,
          "name": "C#4",
          "ticks": 52080,
          "time": 57.105177499999996,
          "velocity": 0.7244094488188977
        },
        {
          "duration": 0.20833302083332939,
          "durationTicks": 190,
          "midi": 65,
          "name": "F4",
          "ticks": 52080,
          "time": 57.105177499999996,
          "velocity": 0.7165354330708661
        },
        {
          "duration": 0.23026281250000125,
          "durationTicks": 210,
          "midi": 63,
          "name": "D#4",
          "ticks": 52320,
          "time": 57.368334999999995,
          "velocity": 0.6377952755905512
        },
        {
          "duration": 0.24671015625000337,
          "durationTicks": 225,
          "midi": 68,
          "name": "G#4",
          "ticks": 52320,
          "time": 57.368334999999995,
          "velocity": 0.7165354330708661
        },
        {
          "duration": 0.3179819791666674,
          "durationTicks": 290,
          "midi": 61,
          "name": "C#4",
          "ticks": 52560,
          "time": 57.6314925,
          "velocity": 0.6535433070866141
        },
        {
          "duration": 0.28508729166666313,
          "durationTicks": 260,
          "midi": 65,
          "name": "F4",
          "ticks": 52560,
          "time": 57.6314925,
          "velocity": 0.7007874015748031
        },
        {
          "duration": 0.235745260416671,
          "durationTicks": 215,
          "midi": 58,
          "name": "A#3",
          "ticks": 52800,
          "time": 57.89465,
          "velocity": 0.5905511811023622
        },
        {
          "duration": 0.2686399479166681,
          "durationTicks": 245,
          "midi": 63,
          "name": "D#4",
          "ticks": 52800,
          "time": 57.89465,
          "velocity": 0.7637795275590551
        },
        {
          "duration": 0.24122770833333362,
          "durationTicks": 220,
          "midi": 60,
          "name": "C4",
          "ticks": 53040,
          "time": 58.1578075,
          "velocity": 0.5905511811023622
        },
        {
          "duration": 0.2905697395833329,
          "durationTicks": 265,
          "midi": 65,
          "name": "F4",
          "ticks": 53040,
          "time": 58.1578075,
          "velocity": 0.7244094488188977
        },
        {
          "duration": 0.16447343749999987,
          "durationTicks": 150,
          "midi": 58,
          "name": "A#3",
          "ticks": 53280,
          "time": 58.420964999999995,
          "velocity": 0.5118110236220472
        },
        {
          "duration": 0.2686399479166681,
          "durationTicks": 245,
          "midi": 63,
          "name": "D#4",
          "ticks": 53280,
          "time": 58.420964999999995,
          "velocity": 0.6535433070866141
        },
        {
          "duration": 0.16447343749999987,
          "durationTicks": 150,
          "midi": 58,
          "name": "A#3",
          "ticks": 53520,
          "time": 58.6841225,
          "velocity": 0.5905511811023622
        },
        {
          "duration": 0.5975868229166679,
          "durationTicks": 545,
          "midi": 56,
          "name": "G#3",
          "ticks": 53760,
          "time": 58.94728,
          "velocity": 0.5433070866141733
        },
        {
          "duration": 0.6743410937500016,
          "durationTicks": 615,
          "midi": 61,
          "name": "C#4",
          "ticks": 53760,
          "time": 58.94728,
          "velocity": 0.5748031496062992
        },
        {
          "duration": 0.20833302083332939,
          "durationTicks": 190,
          "midi": 61,
          "name": "C#4",
          "ticks": 55200,
          "time": 60.526225,
          "velocity": 0.5511811023622047
        },
        {
          "duration": 0.18640322916667174,
          "durationTicks": 170,
          "midi": 65,
          "name": "F4",
          "ticks": 55200,
          "time": 60.526225,
          "velocity": 0.7637795275590551
        },
        {
          "duration": 0.19188567708333437,
          "durationTicks": 175,
          "midi": 73,
          "name": "C#5",
          "ticks": 55200,
          "time": 60.526225,
          "velocity": 0.6456692913385826
        },
        {
          "duration": 0.25767505208332864,
          "durationTicks": 235,
          "midi": 60,
          "name": "C4",
          "ticks": 55680,
          "time": 61.05254,
          "velocity": 0.6771653543307087
        },
        {
          "duration": 0.2686399479166681,
          "durationTicks": 245,
          "midi": 65,
          "name": "F4",
          "ticks": 55680,
          "time": 61.05254,
          "velocity": 0.8110236220472441
        },
        {
          "duration": 0.32346442708333,
          "durationTicks": 295,
          "midi": 72,
          "name": "C5",
          "ticks": 55680,
          "time": 61.05254,
          "velocity": 0.6929133858267716
        },
        {
          "duration": 0.32346442708333,
          "durationTicks": 295,
          "midi": 68,
          "name": "G#4",
          "ticks": 55920,
          "time": 61.3156975,
          "velocity": 0.7480314960629921
        },
        {
          "duration": 0.1535085416666675,
          "durationTicks": 140,
          "midi": 60,
          "name": "C4",
          "ticks": 56160,
          "time": 61.578855,
          "velocity": 0.6220472440944882
        },
        {
          "duration": 0.126096302083333,
          "durationTicks": 115,
          "midi": 65,
          "name": "F4",
          "ticks": 56160,
          "time": 61.578855,
          "velocity": 0.7637795275590551
        },
        {
          "duration": 0.2686399479166752,
          "durationTicks": 245,
          "midi": 63,
          "name": "D#4",
          "ticks": 56640,
          "time": 62.105169999999994,
          "velocity": 0.5748031496062992
        },
        {
          "duration": 0.25767505208332864,
          "durationTicks": 235,
          "midi": 65,
          "name": "F4",
          "ticks": 56880,
          "time": 62.3683275,
          "velocity": 0.7007874015748031
        },
        {
          "duration": 0.23026281250000125,
          "durationTicks": 210,
          "midi": 63,
          "name": "D#4",
          "ticks": 57120,
          "time": 62.631485,
          "velocity": 0.6692913385826772
        },
        {
          "duration": 0.16447343749999987,
          "durationTicks": 150,
          "midi": 58,
          "name": "A#3",
          "ticks": 57360,
          "time": 62.894642499999996,
          "velocity": 0.5433070866141733
        },
        {
          "duration": 0.2905697395833329,
          "durationTicks": 265,
          "midi": 63,
          "name": "D#4",
          "ticks": 57600,
          "time": 63.157799999999995,
          "velocity": 0.5905511811023622
        },
        {
          "duration": 0.16447343749999277,
          "durationTicks": 150,
          "midi": 58,
          "name": "A#3",
          "ticks": 59040,
          "time": 64.736745,
          "velocity": 0.5433070866141733
        },
        {
          "duration": 0.2247803645833244,
          "durationTicks": 205,
          "midi": 63,
          "name": "D#4",
          "ticks": 59040,
          "time": 64.736745,
          "velocity": 0.5905511811023622
        },
        {
          "duration": 0.24122770833334073,
          "durationTicks": 220,
          "midi": 61,
          "name": "C#4",
          "ticks": 59280,
          "time": 64.99990249999999,
          "velocity": 0.7007874015748031
        },
        {
          "duration": 0.20285057291667385,
          "durationTicks": 185,
          "midi": 65,
          "name": "F4",
          "ticks": 59280,
          "time": 64.99990249999999,
          "velocity": 0.7244094488188977
        },
        {
          "duration": 0.24122770833332652,
          "durationTicks": 220,
          "midi": 58,
          "name": "A#3",
          "ticks": 59520,
          "time": 65.26306,
          "velocity": 0.6692913385826772
        },
        {
          "duration": 0.30153463541667236,
          "durationTicks": 275,
          "midi": 63,
          "name": "D#4",
          "ticks": 59520,
          "time": 65.26306,
          "velocity": 0.7480314960629921
        },
        {
          "duration": 0.25767505208332864,
          "durationTicks": 235,
          "midi": 61,
          "name": "C#4",
          "ticks": 59760,
          "time": 65.5262175,
          "velocity": 0.5275590551181102
        },
        {
          "duration": 0.24671015624998915,
          "durationTicks": 225,
          "midi": 65,
          "name": "F4",
          "ticks": 59760,
          "time": 65.5262175,
          "velocity": 0.7637795275590551
        },
        {
          "duration": 0.16995588541666962,
          "durationTicks": 155,
          "midi": 63,
          "name": "D#4",
          "ticks": 60000,
          "time": 65.78937499999999,
          "velocity": 0.6850393700787402
        },
        {
          "duration": 0.17543833333333225,
          "durationTicks": 160,
          "midi": 68,
          "name": "G#4",
          "ticks": 60000,
          "time": 65.78937499999999,
          "velocity": 0.8031496062992126
        },
        {
          "duration": 0.307017083333335,
          "durationTicks": 280,
          "midi": 61,
          "name": "C#4",
          "ticks": 60240,
          "time": 66.0525325,
          "velocity": 0.5905511811023622
        },
        {
          "duration": 0.27412239583333076,
          "durationTicks": 250,
          "midi": 65,
          "name": "F4",
          "ticks": 60240,
          "time": 66.0525325,
          "velocity": 0.7401574803149606
        },
        {
          "duration": 0.2796048437499934,
          "durationTicks": 255,
          "midi": 58,
          "name": "A#3",
          "ticks": 60480,
          "time": 66.31569,
          "velocity": 0.6220472440944882
        },
        {
          "duration": 0.2686399479166681,
          "durationTicks": 245,
          "midi": 63,
          "name": "D#4",
          "ticks": 60480,
          "time": 66.31569,
          "velocity": 0.7244094488188977
        },
        {
          "duration": 0.23026281250000125,
          "durationTicks": 210,
          "midi": 60,
          "name": "C4",
          "ticks": 60720,
          "time": 66.5788475,
          "velocity": 0.5354330708661418
        },
        {
          "duration": 0.20285057291667385,
          "durationTicks": 185,
          "midi": 65,
          "name": "F4",
          "ticks": 60720,
          "time": 66.5788475,
          "velocity": 0.7480314960629921
        },
        {
          "duration": 0.16447343749999277,
          "durationTicks": 150,
          "midi": 58,
          "name": "A#3",
          "ticks": 60960,
          "time": 66.842005,
          "velocity": 0.5905511811023622
        },
        {
          "duration": 0.24671015625000337,
          "durationTicks": 225,
          "midi": 63,
          "name": "D#4",
          "ticks": 60960,
          "time": 66.842005,
          "velocity": 0.6062992125984252
        },
        {
          "duration": 0.1535085416666817,
          "durationTicks": 140,
          "midi": 56,
          "name": "G#3",
          "ticks": 61200,
          "time": 67.10516249999999,
          "velocity": 0.5354330708661418
        },
        {
          "duration": 0.12061385416667747,
          "durationTicks": 110,
          "midi": 61,
          "name": "C#4",
          "ticks": 61200,
          "time": 67.10516249999999,
          "velocity": 0.6692913385826772
        },
        {
          "duration": 0.5646921354166636,
          "durationTicks": 515,
          "midi": 53,
          "name": "F3",
          "ticks": 61440,
          "time": 67.36832,
          "velocity": 0.5748031496062992
        },
        {
          "duration": 0.64692885416666,
          "durationTicks": 590,
          "midi": 58,
          "name": "A#3",
          "ticks": 61440,
          "time": 67.36832,
          "velocity": 0.5433070866141733
        },
        {
          "duration": 0.5153501041666573,
          "durationTicks": 470,
          "midi": 56,
          "name": "G#3",
          "ticks": 63360,
          "time": 69.47358,
          "velocity": 0.2440944881889764
        },
        {
          "duration": 0.5208325520833341,
          "durationTicks": 475,
          "midi": 60,
          "name": "C4",
          "ticks": 63360,
          "time": 69.47358,
          "velocity": 0.3700787401574803
        },
        {
          "duration": 0.4934203124999925,
          "durationTicks": 450,
          "midi": 63,
          "name": "D#4",
          "ticks": 63360,
          "time": 69.47358,
          "velocity": 0.3858267716535433
        },
        {
          "duration": 0.5153501041666573,
          "durationTicks": 470,
          "midi": 65,
          "name": "F4",
          "ticks": 63360,
          "time": 69.47358,
          "velocity": 0.4094488188976378
        },
        {
          "duration": 0.2631575000000055,
          "durationTicks": 240,
          "midi": 63,
          "name": "D#4",
          "ticks": 64320,
          "time": 70.52620999999999,
          "velocity": 0.6377952755905512
        },
        {
          "duration": 0.252192604166666,
          "durationTicks": 230,
          "midi": 65,
          "name": "F4",
          "ticks": 64560,
          "time": 70.7893675,
          "velocity": 0.7165354330708661
        },
        {
          "duration": 0.2083330208333365,
          "durationTicks": 190,
          "midi": 63,
          "name": "D#4",
          "ticks": 64800,
          "time": 71.052525,
          "velocity": 0.6220472440944882
        },
        {
          "duration": 0.1535085416666675,
          "durationTicks": 140,
          "midi": 58,
          "name": "A#3",
          "ticks": 65040,
          "time": 71.3156825,
          "velocity": 0.6141732283464567
        },
        {
          "duration": 0.5263149999999968,
          "durationTicks": 480,
          "midi": 63,
          "name": "D#4",
          "ticks": 65280,
          "time": 71.57884,
          "velocity": 0.7244094488188977
        },
        {
          "duration": 0.1809207812500091,
          "durationTicks": 165,
          "midi": 58,
          "name": "A#3",
          "ticks": 66720,
          "time": 73.15778499999999,
          "velocity": 0.5433070866141733
        },
        {
          "duration": 0.24671015625000337,
          "durationTicks": 225,
          "midi": 63,
          "name": "D#4",
          "ticks": 66720,
          "time": 73.15778499999999,
          "velocity": 0.7086614173228346
        },
        {
          "duration": 0.24122770833334073,
          "durationTicks": 220,
          "midi": 61,
          "name": "C#4",
          "ticks": 66960,
          "time": 73.4209425,
          "velocity": 0.6850393700787402
        },
        {
          "duration": 0.20285057291665964,
          "durationTicks": 185,
          "midi": 65,
          "name": "F4",
          "ticks": 66960,
          "time": 73.4209425,
          "velocity": 0.6929133858267716
        },
        {
          "duration": 0.2247803645833386,
          "durationTicks": 205,
          "midi": 58,
          "name": "A#3",
          "ticks": 67200,
          "time": 73.6841,
          "velocity": 0.7244094488188977
        },
        {
          "duration": 0.27412239583333076,
          "durationTicks": 250,
          "midi": 63,
          "name": "D#4",
          "ticks": 67200,
          "time": 73.6841,
          "velocity": 0.7244094488188977
        },
        {
          "duration": 0.24671015625000337,
          "durationTicks": 225,
          "midi": 61,
          "name": "C#4",
          "ticks": 67440,
          "time": 73.94725749999999,
          "velocity": 0.7480314960629921
        },
        {
          "duration": 0.19736812500001122,
          "durationTicks": 180,
          "midi": 65,
          "name": "F4",
          "ticks": 67440,
          "time": 73.94725749999999,
          "velocity": 0.7637795275590551
        },
        {
          "duration": 0.2686399479166539,
          "durationTicks": 245,
          "midi": 63,
          "name": "D#4",
          "ticks": 67680,
          "time": 74.210415,
          "velocity": 0.5905511811023622
        },
        {
          "duration": 0.17543833333333225,
          "durationTicks": 160,
          "midi": 68,
          "name": "G#4",
          "ticks": 67680,
          "time": 74.210415,
          "velocity": 0.7322834645669292
        },
        {
          "duration": 0.307017083333335,
          "durationTicks": 280,
          "midi": 61,
          "name": "C#4",
          "ticks": 67920,
          "time": 74.4735725,
          "velocity": 0.7637795275590551
        },
        {
          "duration": 0.27412239583333076,
          "durationTicks": 250,
          "midi": 65,
          "name": "F4",
          "ticks": 67920,
          "time": 74.4735725,
          "velocity": 0.7480314960629921
        },
        {
          "duration": 0.2686399479166681,
          "durationTicks": 245,
          "midi": 58,
          "name": "A#3",
          "ticks": 68160,
          "time": 74.73673,
          "velocity": 0.4645669291338583
        },
        {
          "duration": 0.25767505208334285,
          "durationTicks": 235,
          "midi": 63,
          "name": "D#4",
          "ticks": 68160,
          "time": 74.73673,
          "velocity": 0.6850393700787402
        },
        {
          "duration": 0.1809207812499949,
          "durationTicks": 165,
          "midi": 60,
          "name": "C4",
          "ticks": 68400,
          "time": 74.9998875,
          "velocity": 0.5905511811023622
        },
        {
          "duration": 0.2631574999999913,
          "durationTicks": 240,
          "midi": 65,
          "name": "F4",
          "ticks": 68400,
          "time": 74.9998875,
          "velocity": 0.7480314960629921
        },
        {
          "duration": 0.21381546874999913,
          "durationTicks": 195,
          "midi": 58,
          "name": "A#3",
          "ticks": 68640,
          "time": 75.26304499999999,
          "velocity": 0.4645669291338583
        },
        {
          "duration": 0.2796048437500076,
          "durationTicks": 255,
          "midi": 63,
          "name": "D#4",
          "ticks": 68640,
          "time": 75.26304499999999,
          "velocity": 0.6850393700787402
        },
        {
          "duration": 0.15899098958334434,
          "durationTicks": 145,
          "midi": 58,
          "name": "A#3",
          "ticks": 68880,
          "time": 75.5262025,
          "velocity": 0.5905511811023622
        },
        {
          "duration": 0.5372798958333362,
          "durationTicks": 490,
          "midi": 56,
          "name": "G#3",
          "ticks": 69120,
          "time": 75.78936,
          "velocity": 0.5039370078740157
        },
        {
          "duration": 0.6195166145833326,
          "durationTicks": 565,
          "midi": 61,
          "name": "C#4",
          "ticks": 69120,
          "time": 75.78936,
          "velocity": 0.5748031496062992
        },
        {
          "duration": 0.19188567708334858,
          "durationTicks": 175,
          "midi": 61,
          "name": "C#4",
          "ticks": 70560,
          "time": 77.36830499999999,
          "velocity": 0.6850393700787402
        },
        {
          "duration": 0.1809207812500091,
          "durationTicks": 165,
          "midi": 65,
          "name": "F4",
          "ticks": 70560,
          "time": 77.36830499999999,
          "velocity": 0.8188976377952756
        },
        {
          "duration": 0.1809207812500091,
          "durationTicks": 165,
          "midi": 73,
          "name": "C#5",
          "ticks": 70560,
          "time": 77.36830499999999,
          "velocity": 0.7244094488188977
        },
        {
          "duration": 0.24122770833332652,
          "durationTicks": 220,
          "midi": 60,
          "name": "C4",
          "ticks": 71040,
          "time": 77.89462,
          "velocity": 0.7244094488188977
        },
        {
          "duration": 0.2521926041666518,
          "durationTicks": 230,
          "midi": 65,
          "name": "F4",
          "ticks": 71040,
          "time": 77.89462,
          "velocity": 0.7716535433070866
        },
        {
          "duration": 0.27412239583333076,
          "durationTicks": 250,
          "midi": 72,
          "name": "C5",
          "ticks": 71040,
          "time": 77.89462,
          "velocity": 0.6850393700787402
        },
        {
          "duration": 0.307017083333335,
          "durationTicks": 280,
          "midi": 68,
          "name": "G#4",
          "ticks": 71280,
          "time": 78.1577775,
          "velocity": 0.7086614173228346
        },
        {
          "duration": 0.0986840624999985,
          "durationTicks": 90,
          "midi": 60,
          "name": "C4",
          "ticks": 71520,
          "time": 78.420935,
          "velocity": 0.7244094488188977
        },
        {
          "duration": 0.09320161458333587,
          "durationTicks": 85,
          "midi": 65,
          "name": "F4",
          "ticks": 71520,
          "time": 78.420935,
          "velocity": 0.7716535433070866
        },
        {
          "duration": 0.25767505208334285,
          "durationTicks": 235,
          "midi": 63,
          "name": "D#4",
          "ticks": 72000,
          "time": 78.94725,
          "velocity": 0.6850393700787402
        },
        {
          "duration": 0.24671015624998915,
          "durationTicks": 225,
          "midi": 65,
          "name": "F4",
          "ticks": 72240,
          "time": 79.2104075,
          "velocity": 0.6692913385826772
        },
        {
          "duration": 0.21929791666666176,
          "durationTicks": 200,
          "midi": 63,
          "name": "D#4",
          "ticks": 72480,
          "time": 79.473565,
          "velocity": 0.6220472440944882
        },
        {
          "duration": 0.30153463541665815,
          "durationTicks": 275,
          "midi": 58,
          "name": "A#3",
          "ticks": 72720,
          "time": 79.7367225,
          "velocity": 0.5826771653543307
        },
        {
          "duration": 0.7127182291666685,
          "durationTicks": 650,
          "midi": 63,
          "name": "D#4",
          "ticks": 72960,
          "time": 79.99987999999999,
          "velocity": 0.6535433070866141
        },
        {
          "duration": 0.16447343750000698,
          "durationTicks": 150,
          "midi": 58,
          "name": "A#3",
          "ticks": 74400,
          "time": 81.578825,
          "velocity": 0.5905511811023622
        },
        {
          "duration": 0.2247803645833386,
          "durationTicks": 205,
          "midi": 63,
          "name": "D#4",
          "ticks": 74400,
          "time": 81.578825,
          "velocity": 0.6535433070866141
        },
        {
          "duration": 0.23574526041666388,
          "durationTicks": 215,
          "midi": 61,
          "name": "C#4",
          "ticks": 74640,
          "time": 81.8419825,
          "velocity": 0.7244094488188977
        },
        {
          "duration": 0.19188567708333437,
          "durationTicks": 175,
          "midi": 65,
          "name": "F4",
          "ticks": 74640,
          "time": 81.8419825,
          "velocity": 0.6692913385826772
        },
        {
          "duration": 0.2083330208333365,
          "durationTicks": 190,
          "midi": 58,
          "name": "A#3",
          "ticks": 74880,
          "time": 82.10513999999999,
          "velocity": 0.6535433070866141
        },
        {
          "duration": 0.27412239583334497,
          "durationTicks": 250,
          "midi": 63,
          "name": "D#4",
          "ticks": 74880,
          "time": 82.10513999999999,
          "velocity": 0.6850393700787402
        },
        {
          "duration": 0.20285057291665964,
          "durationTicks": 185,
          "midi": 61,
          "name": "C#4",
          "ticks": 75120,
          "time": 82.3682975,
          "velocity": 0.7559055118110236
        },
        {
          "duration": 0.27412239583333076,
          "durationTicks": 250,
          "midi": 65,
          "name": "F4",
          "ticks": 75120,
          "time": 82.3682975,
          "velocity": 0.7637795275590551
        },
        {
          "duration": 0.23026281249998704,
          "durationTicks": 210,
          "midi": 63,
          "name": "D#4",
          "ticks": 75360,
          "time": 82.631455,
          "velocity": 0.7480314960629921
        },
        {
          "duration": 0.27412239583333076,
          "durationTicks": 250,
          "midi": 68,
          "name": "G#4",
          "ticks": 75360,
          "time": 82.631455,
          "velocity": 0.7322834645669292
        },
        {
          "duration": 0.2905697395833471,
          "durationTicks": 265,
          "midi": 61,
          "name": "C#4",
          "ticks": 75600,
          "time": 82.8946125,
          "velocity": 0.7637795275590551
        },
        {
          "duration": 0.23574526041666388,
          "durationTicks": 215,
          "midi": 65,
          "name": "F4",
          "ticks": 75600,
          "time": 82.8946125,
          "velocity": 0.8110236220472441
        },
        {
          "duration": 0.2521926041666518,
          "durationTicks": 230,
          "midi": 58,
          "name": "A#3",
          "ticks": 75840,
          "time": 83.15777,
          "velocity": 0.6692913385826772
        },
        {
          "duration": 0.2521926041666518,
          "durationTicks": 230,
          "midi": 63,
          "name": "D#4",
          "ticks": 75840,
          "time": 83.15777,
          "velocity": 0.7007874015748031
        },
        {
          "duration": 0.13706119791666538,
          "durationTicks": 125,
          "midi": 60,
          "name": "C4",
          "ticks": 76080,
          "time": 83.42092749999999,
          "velocity": 0.5511811023622047
        },
        {
          "duration": 0.21381546874999913,
          "durationTicks": 195,
          "midi": 65,
          "name": "F4",
          "ticks": 76080,
          "time": 83.42092749999999,
          "velocity": 0.7795275590551181
        },
        {
          "duration": 0.23026281250000125,
          "durationTicks": 210,
          "midi": 58,
          "name": "A#3",
          "ticks": 76320,
          "time": 83.684085,
          "velocity": 0.6692913385826772
        },
        {
          "duration": 0.2686399479166681,
          "durationTicks": 245,
          "midi": 63,
          "name": "D#4",
          "ticks": 76320,
          "time": 83.684085,
          "velocity": 0.5905511811023622
        },
        {
          "duration": 0.13157874999998853,
          "durationTicks": 120,
          "midi": 56,
          "name": "G#3",
          "ticks": 76560,
          "time": 83.9472425,
          "velocity": 0.5511811023622047
        },
        {
          "duration": 0.10964895833333799,
          "durationTicks": 100,
          "midi": 61,
          "name": "C#4",
          "ticks": 76560,
          "time": 83.9472425,
          "velocity": 0.7007874015748031
        },
        {
          "duration": 0.6359639583333347,
          "durationTicks": 580,
          "midi": 53,
          "name": "F3",
          "ticks": 76800,
          "time": 84.21039999999999,
          "velocity": 0.5905511811023622
        },
        {
          "duration": 0.7182006770833453,
          "durationTicks": 655,
          "midi": 58,
          "name": "A#3",
          "ticks": 76800,
          "time": 84.21039999999999,
          "velocity": 0.6850393700787402
        },
        {
          "duration": 0.197368124999997,
          "durationTicks": 180,
          "midi": 61,
          "name": "C#4",
          "ticks": 78240,
          "time": 85.789345,
          "velocity": 0.6614173228346457
        },
        {
          "duration": 0.21381546874999913,
          "durationTicks": 195,
          "midi": 65,
          "name": "F4",
          "ticks": 78240,
          "time": 85.789345,
          "velocity": 0.7716535433070866
        },
        {
          "duration": 0.21381546874999913,
          "durationTicks": 195,
          "midi": 70,
          "name": "A#4",
          "ticks": 78240,
          "time": 85.789345,
          "velocity": 0.7716535433070866
        },
        {
          "duration": 0.2083330208333365,
          "durationTicks": 190,
          "midi": 60,
          "name": "C4",
          "ticks": 78720,
          "time": 86.31566,
          "velocity": 0.7795275590551181
        },
        {
          "duration": 0.24671015625000337,
          "durationTicks": 225,
          "midi": 65,
          "name": "F4",
          "ticks": 78720,
          "time": 86.31566,
          "velocity": 0.7401574803149606
        },
        {
          "duration": 0.21929791666666176,
          "durationTicks": 200,
          "midi": 72,
          "name": "C5",
          "ticks": 78720,
          "time": 86.31566,
          "velocity": 0.7637795275590551
        },
        {
          "duration": 0.11513140625000062,
          "durationTicks": 105,
          "midi": 61,
          "name": "C#4",
          "ticks": 79200,
          "time": 86.84197499999999,
          "velocity": 0.7480314960629921
        },
        {
          "duration": 0.1260963020833401,
          "durationTicks": 115,
          "midi": 65,
          "name": "F4",
          "ticks": 79200,
          "time": 86.84197499999999,
          "velocity": 0.8582677165354331
        },
        {
          "duration": 0.1809207812500091,
          "durationTicks": 165,
          "midi": 73,
          "name": "C#5",
          "ticks": 79200,
          "time": 86.84197499999999,
          "velocity": 0.7874015748031497
        },
        {
          "duration": 0.2247803645833386,
          "durationTicks": 205,
          "midi": 75,
          "name": "D#5",
          "ticks": 79680,
          "time": 87.36829,
          "velocity": 0.8661417322834646
        },
        {
          "duration": 0.18640322916667174,
          "durationTicks": 170,
          "midi": 77,
          "name": "F5",
          "ticks": 79920,
          "time": 87.6314475,
          "velocity": 0.7480314960629921
        },
        {
          "duration": 0.25767505208334285,
          "durationTicks": 235,
          "midi": 75,
          "name": "D#5",
          "ticks": 80160,
          "time": 87.894605,
          "velocity": 0.7480314960629921
        },
        {
          "duration": 0.11513140625000062,
          "durationTicks": 105,
          "midi": 70,
          "name": "A#4",
          "ticks": 80400,
          "time": 88.15776249999999,
          "velocity": 0.6456692913385826
        },
        {
          "duration": 0.48245541666666725,
          "durationTicks": 440,
          "midi": 65,
          "name": "F4",
          "ticks": 80640,
          "time": 88.42092,
          "velocity": 0.6614173228346457
        },
        {
          "duration": 0.5372798958333362,
          "durationTicks": 490,
          "midi": 70,
          "name": "A#4",
          "ticks": 80640,
          "time": 88.42092,
          "velocity": 0.6929133858267716
        },
        {
          "duration": 0.5317974479166594,
          "durationTicks": 485,
          "midi": 75,
          "name": "D#5",
          "ticks": 80640,
          "time": 88.42092,
          "velocity": 0.6929133858267716
        },
        {
          "duration": 0.15899098958333013,
          "durationTicks": 145,
          "midi": 70,
          "name": "A#4",
          "ticks": 82080,
          "time": 89.999865,
          "velocity": 0.5905511811023622
        },
        {
          "duration": 0.2247803645833386,
          "durationTicks": 205,
          "midi": 75,
          "name": "D#5",
          "ticks": 82080,
          "time": 89.999865,
          "velocity": 0.7007874015748031
        },
        {
          "duration": 0.23026281250000125,
          "durationTicks": 210,
          "midi": 73,
          "name": "C#5",
          "ticks": 82320,
          "time": 90.26302249999999,
          "velocity": 0.7637795275590551
        },
        {
          "duration": 0.19736812500001122,
          "durationTicks": 180,
          "midi": 77,
          "name": "F5",
          "ticks": 82320,
          "time": 90.26302249999999,
          "velocity": 0.8267716535433071
        },
        {
          "duration": 0.24671015625000337,
          "durationTicks": 225,
          "midi": 70,
          "name": "A#4",
          "ticks": 82560,
          "time": 90.52618,
          "velocity": 0.7874015748031497
        },
        {
          "duration": 0.24122770833334073,
          "durationTicks": 220,
          "midi": 75,
          "name": "D#5",
          "ticks": 82560,
          "time": 90.52618,
          "velocity": 0.7007874015748031
        },
        {
          "duration": 0.27412239583333076,
          "durationTicks": 250,
          "midi": 73,
          "name": "C#5",
          "ticks": 82800,
          "time": 90.7893375,
          "velocity": 0.8188976377952756
        },
        {
          "duration": 0.24122770833332652,
          "durationTicks": 220,
          "midi": 77,
          "name": "F5",
          "ticks": 82800,
          "time": 90.7893375,
          "velocity": 0.8110236220472441
        },
        {
          "duration": 0.23574526041666388,
          "durationTicks": 215,
          "midi": 75,
          "name": "D#5",
          "ticks": 83040,
          "time": 91.052495,
          "velocity": 0.6535433070866141
        },
        {
          "duration": 0.252192604166666,
          "durationTicks": 230,
          "midi": 80,
          "name": "G#5",
          "ticks": 83040,
          "time": 91.052495,
          "velocity": 0.7874015748031497
        },
        {
          "duration": 0.23574526041666388,
          "durationTicks": 215,
          "midi": 73,
          "name": "C#5",
          "ticks": 83280,
          "time": 91.3156525,
          "velocity": 0.7244094488188977
        },
        {
          "duration": 0.24671015625000337,
          "durationTicks": 225,
          "midi": 77,
          "name": "F5",
          "ticks": 83280,
          "time": 91.3156525,
          "velocity": 0.6850393700787402
        },
        {
          "duration": 0.2631575000000055,
          "durationTicks": 240,
          "midi": 70,
          "name": "A#4",
          "ticks": 83520,
          "time": 91.57880999999999,
          "velocity": 0.7401574803149606
        },
        {
          "duration": 0.24671015625000337,
          "durationTicks": 225,
          "midi": 75,
          "name": "D#5",
          "ticks": 83520,
          "time": 91.57880999999999,
          "velocity": 0.7244094488188977
        },
        {
          "duration": 0.14254364583334223,
          "durationTicks": 130,
          "midi": 72,
          "name": "C5",
          "ticks": 83760,
          "time": 91.8419675,
          "velocity": 0.5905511811023622
        },
        {
          "duration": 0.2905697395833329,
          "durationTicks": 265,
          "midi": 77,
          "name": "F5",
          "ticks": 83760,
          "time": 91.8419675,
          "velocity": 0.7559055118110236
        },
        {
          "duration": 0.14254364583332801,
          "durationTicks": 130,
          "midi": 70,
          "name": "A#4",
          "ticks": 84000,
          "time": 92.105125,
          "velocity": 0.5905511811023622
        },
        {
          "duration": 0.0986840624999985,
          "durationTicks": 90,
          "midi": 75,
          "name": "D#5",
          "ticks": 84000,
          "time": 92.105125,
          "velocity": 0.6929133858267716
        },
        {
          "duration": 0.14254364583334223,
          "durationTicks": 130,
          "midi": 65,
          "name": "F4",
          "ticks": 84240,
          "time": 92.36828249999999,
          "velocity": 0.5905511811023622
        },
        {
          "duration": 0.13706119791666538,
          "durationTicks": 125,
          "midi": 70,
          "name": "A#4",
          "ticks": 84240,
          "time": 92.36828249999999,
          "velocity": 0.7165354330708661
        },
        {
          "duration": 0.668858645833339,
          "durationTicks": 610,
          "midi": 68,
          "name": "G#4",
          "ticks": 84480,
          "time": 92.63144,
          "velocity": 0.5590551181102362
        },
        {
          "duration": 0.7401304687499959,
          "durationTicks": 675,
          "midi": 73,
          "name": "C#5",
          "ticks": 84480,
          "time": 92.63144,
          "velocity": 0.7244094488188977
        },
        {
          "duration": 0.13706119791665117,
          "durationTicks": 125,
          "midi": 73,
          "name": "C#5",
          "ticks": 85920,
          "time": 94.210385,
          "velocity": 0.7007874015748031
        },
        {
          "duration": 0.1535085416666533,
          "durationTicks": 140,
          "midi": 77,
          "name": "F5",
          "ticks": 85920,
          "time": 94.210385,
          "velocity": 0.84251968503937
        },
        {
          "duration": 0.15899098958333013,
          "durationTicks": 145,
          "midi": 85,
          "name": "C#6",
          "ticks": 85920,
          "time": 94.210385,
          "velocity": 0.7559055118110236
        },
        {
          "duration": 0.30153463541665815,
          "durationTicks": 275,
          "midi": 72,
          "name": "C5",
          "ticks": 86400,
          "time": 94.7367,
          "velocity": 0.6929133858267716
        },
        {
          "duration": 0.24122770833334073,
          "durationTicks": 220,
          "midi": 77,
          "name": "F5",
          "ticks": 86400,
          "time": 94.7367,
          "velocity": 0.7952755905511811
        },
        {
          "duration": 0.30153463541665815,
          "durationTicks": 275,
          "midi": 84,
          "name": "C6",
          "ticks": 86400,
          "time": 94.7367,
          "velocity": 0.5590551181102362
        },
        {
          "duration": 0.2960521875000097,
          "durationTicks": 270,
          "midi": 80,
          "name": "G#5",
          "ticks": 86640,
          "time": 94.99985749999999,
          "velocity": 0.6456692913385826
        },
        {
          "duration": 0.12061385416666326,
          "durationTicks": 110,
          "midi": 72,
          "name": "C5",
          "ticks": 86880,
          "time": 95.263015,
          "velocity": 0.4881889763779528
        },
        {
          "duration": 0.1260963020833401,
          "durationTicks": 115,
          "midi": 77,
          "name": "F5",
          "ticks": 86880,
          "time": 95.263015,
          "velocity": 0.7401574803149606
        },
        {
          "duration": 0.15899098958334434,
          "durationTicks": 145,
          "midi": 70,
          "name": "A#4",
          "ticks": 87360,
          "time": 95.78932999999999,
          "velocity": 0.5905511811023622
        },
        {
          "duration": 0.24122770833334073,
          "durationTicks": 220,
          "midi": 75,
          "name": "D#5",
          "ticks": 87360,
          "time": 95.78932999999999,
          "velocity": 0.7795275590551181
        },
        {
          "duration": 0.17543833333333225,
          "durationTicks": 160,
          "midi": 73,
          "name": "C#5",
          "ticks": 87600,
          "time": 96.0524875,
          "velocity": 0.6850393700787402
        },
        {
          "duration": 0.24122770833334073,
          "durationTicks": 220,
          "midi": 77,
          "name": "F5",
          "ticks": 87600,
          "time": 96.0524875,
          "velocity": 0.7559055118110236
        },
        {
          "duration": 0.19188567708334858,
          "durationTicks": 175,
          "midi": 70,
          "name": "A#4",
          "ticks": 87840,
          "time": 96.31564499999999,
          "velocity": 0.7086614173228346
        },
        {
          "duration": 0.23026281250000125,
          "durationTicks": 210,
          "midi": 75,
          "name": "D#5",
          "ticks": 87840,
          "time": 96.31564499999999,
          "velocity": 0.7165354330708661
        },
        {
          "duration": 0.13157875000000274,
          "durationTicks": 120,
          "midi": 65,
          "name": "F4",
          "ticks": 88080,
          "time": 96.5788025,
          "velocity": 0.6062992125984252
        },
        {
          "duration": 0.13157875000000274,
          "durationTicks": 120,
          "midi": 70,
          "name": "A#4",
          "ticks": 88080,
          "time": 96.5788025,
          "velocity": 0.6062992125984252
        },
        {
          "duration": 0.6962708854166522,
          "durationTicks": 635,
          "midi": 70,
          "name": "A#4",
          "ticks": 88320,
          "time": 96.84196,
          "velocity": 0.7637795275590551
        },
        {
          "duration": 0.7182006770833311,
          "durationTicks": 655,
          "midi": 75,
          "name": "D#5",
          "ticks": 88320,
          "time": 96.84196,
          "velocity": 0.7637795275590551
        },
        {
          "duration": 0.16995588541666962,
          "durationTicks": 155,
          "midi": 70,
          "name": "A#4",
          "ticks": 89760,
          "time": 98.42090499999999,
          "velocity": 0.6299212598425197
        },
        {
          "duration": 0.2247803645833386,
          "durationTicks": 205,
          "midi": 75,
          "name": "D#5",
          "ticks": 89760,
          "time": 98.42090499999999,
          "velocity": 0.6614173228346457
        },
        {
          "duration": 0.23574526041666388,
          "durationTicks": 215,
          "midi": 73,
          "name": "C#5",
          "ticks": 90000,
          "time": 98.6840625,
          "velocity": 0.6692913385826772
        },
        {
          "duration": 0.1809207812499949,
          "durationTicks": 165,
          "midi": 77,
          "name": "F5",
          "ticks": 90000,
          "time": 98.6840625,
          "velocity": 0.7086614173228346
        },
        {
          "duration": 0.23026281250000125,
          "durationTicks": 210,
          "midi": 70,
          "name": "A#4",
          "ticks": 90240,
          "time": 98.94722,
          "velocity": 0.6456692913385826
        },
        {
          "duration": 0.24671015624998915,
          "durationTicks": 225,
          "midi": 75,
          "name": "D#5",
          "ticks": 90240,
          "time": 98.94722,
          "velocity": 0.7637795275590551
        },
        {
          "duration": 0.2686399479166681,
          "durationTicks": 245,
          "midi": 73,
          "name": "C#5",
          "ticks": 90480,
          "time": 99.21037749999999,
          "velocity": 0.6614173228346457
        },
        {
          "duration": 0.23026281250000125,
          "durationTicks": 210,
          "midi": 77,
          "name": "F5",
          "ticks": 90480,
          "time": 99.21037749999999,
          "velocity": 0.7086614173228346
        },
        {
          "duration": 0.25767505208334285,
          "durationTicks": 235,
          "midi": 75,
          "name": "D#5",
          "ticks": 90720,
          "time": 99.473535,
          "velocity": 0.6299212598425197
        },
        {
          "duration": 0.252192604166666,
          "durationTicks": 230,
          "midi": 80,
          "name": "G#5",
          "ticks": 90720,
          "time": 99.473535,
          "velocity": 0.6299212598425197
        },
        {
          "duration": 0.23026281250000125,
          "durationTicks": 210,
          "midi": 73,
          "name": "C#5",
          "ticks": 90960,
          "time": 99.73669249999999,
          "velocity": 0.6456692913385826
        },
        {
          "duration": 0.2631575000000055,
          "durationTicks": 240,
          "midi": 77,
          "name": "F5",
          "ticks": 90960,
          "time": 99.73669249999999,
          "velocity": 0.7086614173228346
        },
        {
          "duration": 0.2631575000000055,
          "durationTicks": 240,
          "midi": 70,
          "name": "A#4",
          "ticks": 91200,
          "time": 99.99985,
          "velocity": 0.6141732283464567
        },
        {
          "duration": 0.2247803645833386,
          "durationTicks": 205,
          "midi": 75,
          "name": "D#5",
          "ticks": 91200,
          "time": 99.99985,
          "velocity": 0.7086614173228346
        },
        {
          "duration": 0.13706119791665117,
          "durationTicks": 125,
          "midi": 72,
          "name": "C5",
          "ticks": 91440,
          "time": 100.2630075,
          "velocity": 0.5905511811023622
        },
        {
          "duration": 0.21929791666666176,
          "durationTicks": 200,
          "midi": 77,
          "name": "F5",
          "ticks": 91440,
          "time": 100.2630075,
          "velocity": 0.7322834645669292
        },
        {
          "duration": 0.13157875000000274,
          "durationTicks": 120,
          "midi": 70,
          "name": "A#4",
          "ticks": 91680,
          "time": 100.52616499999999,
          "velocity": 0.5905511811023622
        },
        {
          "duration": 0.23026281250000125,
          "durationTicks": 210,
          "midi": 75,
          "name": "D#5",
          "ticks": 91680,
          "time": 100.52616499999999,
          "velocity": 0.6614173228346457
        },
        {
          "duration": 0.13157875000000274,
          "durationTicks": 120,
          "midi": 68,
          "name": "G#4",
          "ticks": 91920,
          "time": 100.7893225,
          "velocity": 0.6062992125984252
        },
        {
          "duration": 0.10416651041666114,
          "durationTicks": 95,
          "midi": 73,
          "name": "C#5",
          "ticks": 91920,
          "time": 100.7893225,
          "velocity": 0.6062992125984252
        },
        {
          "duration": 1.063594895833333,
          "durationTicks": 970,
          "midi": 65,
          "name": "F4",
          "ticks": 92160,
          "time": 101.05248,
          "velocity": 0.6220472440944882
        },
        {
          "duration": 1.0581124479166562,
          "durationTicks": 965,
          "midi": 70,
          "name": "A#4",
          "ticks": 92160,
          "time": 101.05248,
          "velocity": 0.6456692913385826
        },
        {
          "duration": 0.30153463541665815,
          "durationTicks": 275,
          "midi": 60,
          "name": "C4",
          "ticks": 93600,
          "time": 102.631425,
          "velocity": 0.7165354330708661
        },
        {
          "duration": 0.4769729687500046,
          "durationTicks": 435,
          "midi": 60,
          "name": "C4",
          "ticks": 94080,
          "time": 103.15773999999999,
          "velocity": 0.7322834645669292
        },
        {
          "duration": 0.25767505208332864,
          "durationTicks": 235,
          "midi": 61,
          "name": "C#4",
          "ticks": 94560,
          "time": 103.684055,
          "velocity": 0.7874015748031497
        },
        {
          "duration": 0.24122770833334073,
          "durationTicks": 220,
          "midi": 59,
          "name": "B3",
          "ticks": 95040,
          "time": 104.21037,
          "velocity": 0.6614173228346457
        },
        {
          "duration": 0.27412239583333076,
          "durationTicks": 250,
          "midi": 63,
          "name": "D#4",
          "ticks": 95040,
          "time": 104.21037,
          "velocity": 0.7637795275590551
        },
        {
          "duration": 0.23574526041666388,
          "durationTicks": 215,
          "midi": 66,
          "name": "F#4",
          "ticks": 95040,
          "time": 104.21037,
          "velocity": 0.6692913385826772
        },
        {
          "duration": 0.2083330208333365,
          "durationTicks": 190,
          "midi": 70,
          "name": "A#4",
          "ticks": 95040,
          "time": 104.21037,
          "velocity": 0.5984251968503937
        },
        {
          "duration": 0.17543833333334646,
          "durationTicks": 160,
          "midi": 68,
          "name": "G#4",
          "ticks": 95280,
          "time": 104.47352749999999,
          "velocity": 0.6692913385826772
        },
        {
          "duration": 0.13157875000000274,
          "durationTicks": 120,
          "midi": 70,
          "name": "A#4",
          "ticks": 95520,
          "time": 104.736685,
          "velocity": 0.6771653543307087
        },
        {
          "duration": 0.449560729166663,
          "durationTicks": 410,
          "midi": 59,
          "name": "B3",
          "ticks": 95760,
          "time": 104.9998425,
          "velocity": 0.7165354330708661
        },
        {
          "duration": 0.43859583333333774,
          "durationTicks": 400,
          "midi": 63,
          "name": "D#4",
          "ticks": 95760,
          "time": 104.9998425,
          "velocity": 0.7401574803149606
        },
        {
          "duration": 0.4605256250000025,
          "durationTicks": 420,
          "midi": 66,
          "name": "F#4",
          "ticks": 95760,
          "time": 104.9998425,
          "velocity": 0.6771653543307087
        },
        {
          "duration": 0.41666604166665877,
          "durationTicks": 380,
          "midi": 68,
          "name": "G#4",
          "ticks": 95760,
          "time": 104.9998425,
          "velocity": 0.7874015748031497
        },
        {
          "duration": 0.33991177083333923,
          "durationTicks": 310,
          "midi": 59,
          "name": "B3",
          "ticks": 96240,
          "time": 105.5261575,
          "velocity": 0.7637795275590551
        },
        {
          "duration": 0.33991177083333923,
          "durationTicks": 310,
          "midi": 63,
          "name": "D#4",
          "ticks": 96240,
          "time": 105.5261575,
          "velocity": 0.7401574803149606
        },
        {
          "duration": 0.3508766666666645,
          "durationTicks": 320,
          "midi": 66,
          "name": "F#4",
          "ticks": 96240,
          "time": 105.5261575,
          "velocity": 0.6614173228346457
        },
        {
          "duration": 0.33991177083333923,
          "durationTicks": 310,
          "midi": 70,
          "name": "A#4",
          "ticks": 96240,
          "time": 105.5261575,
          "velocity": 0.6929133858267716
        },
        {
          "duration": 0.49342031250000673,
          "durationTicks": 450,
          "midi": 59,
          "name": "B3",
          "ticks": 96720,
          "time": 106.0524725,
          "velocity": 0.8661417322834646
        },
        {
          "duration": 0.5372798958333362,
          "durationTicks": 490,
          "midi": 63,
          "name": "D#4",
          "ticks": 96720,
          "time": 106.0524725,
          "velocity": 0.8267716535433071
        },
        {
          "duration": 0.5098676562500088,
          "durationTicks": 465,
          "midi": 66,
          "name": "F#4",
          "ticks": 96720,
          "time": 106.0524725,
          "velocity": 0.7244094488188977
        },
        {
          "duration": 0.4057011458333335,
          "durationTicks": 370,
          "midi": 70,
          "name": "A#4",
          "ticks": 96720,
          "time": 106.0524725,
          "velocity": 0.7086614173228346
        },
        {
          "duration": 0.19188567708334858,
          "durationTicks": 175,
          "midi": 68,
          "name": "G#4",
          "ticks": 97200,
          "time": 106.57878749999999,
          "velocity": 0.7401574803149606
        },
        {
          "duration": 0.13706119791666538,
          "durationTicks": 125,
          "midi": 70,
          "name": "A#4",
          "ticks": 97440,
          "time": 106.841945,
          "velocity": 0.5511811023622047
        },
        {
          "duration": 0.307017083333335,
          "durationTicks": 280,
          "midi": 59,
          "name": "B3",
          "ticks": 97680,
          "time": 107.1051025,
          "velocity": 0.8031496062992126
        },
        {
          "duration": 0.31249953124999763,
          "durationTicks": 285,
          "midi": 63,
          "name": "D#4",
          "ticks": 97680,
          "time": 107.1051025,
          "velocity": 0.7637795275590551
        },
        {
          "duration": 0.34539421874998766,
          "durationTicks": 315,
          "midi": 66,
          "name": "F#4",
          "ticks": 97680,
          "time": 107.1051025,
          "velocity": 0.7086614173228346
        },
        {
          "duration": 0.37280645833332926,
          "durationTicks": 340,
          "midi": 68,
          "name": "G#4",
          "ticks": 97680,
          "time": 107.1051025,
          "velocity": 0.8188976377952756
        },
        {
          "duration": 0.08223671874999638,
          "durationTicks": 75,
          "midi": 70,
          "name": "A#4",
          "ticks": 98160,
          "time": 107.6314175,
          "velocity": 0.8267716535433071
        },
        {
          "duration": 0.09320161458335008,
          "durationTicks": 85,
          "midi": 68,
          "name": "G#4",
          "ticks": 98400,
          "time": 107.89457499999999,
          "velocity": 0.905511811023622
        },
        {
          "duration": 0.07675427083333375,
          "durationTicks": 70,
          "midi": 66,
          "name": "F#4",
          "ticks": 98640,
          "time": 108.1577325,
          "velocity": 0.7874015748031497
        },
        {
          "duration": 0.2960521874999955,
          "durationTicks": 270,
          "midi": 54,
          "name": "F#3",
          "ticks": 98880,
          "time": 108.42089,
          "velocity": 0.8582677165354331
        },
        {
          "duration": 0.25767505208332864,
          "durationTicks": 235,
          "midi": 58,
          "name": "A#3",
          "ticks": 98880,
          "time": 108.42089,
          "velocity": 0.6929133858267716
        },
        {
          "duration": 0.197368124999997,
          "durationTicks": 180,
          "midi": 61,
          "name": "C#4",
          "ticks": 98880,
          "time": 108.42089,
          "velocity": 0.5275590551181102
        },
        {
          "duration": 0.20285057291665964,
          "durationTicks": 185,
          "midi": 65,
          "name": "F4",
          "ticks": 98880,
          "time": 108.42089,
          "velocity": 0.5748031496062992
        },
        {
          "duration": 0.15899098958334434,
          "durationTicks": 145,
          "midi": 63,
          "name": "D#4",
          "ticks": 99120,
          "time": 108.68404749999999,
          "velocity": 0.6614173228346457
        },
        {
          "duration": 0.14802609375000486,
          "durationTicks": 135,
          "midi": 65,
          "name": "F4",
          "ticks": 99360,
          "time": 108.947205,
          "velocity": 0.5590551181102362
        },
        {
          "duration": 0.4057011458333335,
          "durationTicks": 370,
          "midi": 54,
          "name": "F#3",
          "ticks": 99600,
          "time": 109.2103625,
          "velocity": 0.7637795275590551
        },
        {
          "duration": 0.41118359374999613,
          "durationTicks": 375,
          "midi": 58,
          "name": "A#3",
          "ticks": 99600,
          "time": 109.2103625,
          "velocity": 0.7637795275590551
        },
        {
          "duration": 0.3892538020833314,
          "durationTicks": 355,
          "midi": 61,
          "name": "C#4",
          "ticks": 99600,
          "time": 109.2103625,
          "velocity": 0.7086614173228346
        },
        {
          "duration": 0.38377135416665453,
          "durationTicks": 350,
          "midi": 63,
          "name": "D#4",
          "ticks": 99600,
          "time": 109.2103625,
          "velocity": 0.6771653543307087
        },
        {
          "duration": 0.32894687499999975,
          "durationTicks": 300,
          "midi": 54,
          "name": "F#3",
          "ticks": 100080,
          "time": 109.7366775,
          "velocity": 0.7637795275590551
        },
        {
          "duration": 0.3344293229166624,
          "durationTicks": 305,
          "midi": 58,
          "name": "A#3",
          "ticks": 100080,
          "time": 109.7366775,
          "velocity": 0.7637795275590551
        },
        {
          "duration": 0.3234644270833371,
          "durationTicks": 295,
          "midi": 61,
          "name": "C#4",
          "ticks": 100080,
          "time": 109.7366775,
          "velocity": 0.6929133858267716
        },
        {
          "duration": 0.30153463541665815,
          "durationTicks": 275,
          "midi": 65,
          "name": "F4",
          "ticks": 100080,
          "time": 109.7366775,
          "velocity": 0.8661417322834646
        },
        {
          "duration": 0.49890276041665516,
          "durationTicks": 455,
          "midi": 54,
          "name": "F#3",
          "ticks": 100560,
          "time": 110.2629925,
          "velocity": 0.7401574803149606
        },
        {
          "duration": 0.504385208333332,
          "durationTicks": 460,
          "midi": 58,
          "name": "A#3",
          "ticks": 100560,
          "time": 110.2629925,
          "velocity": 0.7637795275590551
        },
        {
          "duration": 0.449560729166663,
          "durationTicks": 410,
          "midi": 61,
          "name": "C#4",
          "ticks": 100560,
          "time": 110.2629925,
          "velocity": 0.6929133858267716
        },
        {
          "duration": 0.4221484895833356,
          "durationTicks": 385,
          "midi": 65,
          "name": "F4",
          "ticks": 100560,
          "time": 110.2629925,
          "velocity": 0.7874015748031497
        },
        {
          "duration": 0.2247803645833386,
          "durationTicks": 205,
          "midi": 63,
          "name": "D#4",
          "ticks": 101040,
          "time": 110.78930749999999,
          "velocity": 0.6614173228346457
        },
        {
          "duration": 0.14254364583334223,
          "durationTicks": 130,
          "midi": 65,
          "name": "F4",
          "ticks": 101280,
          "time": 111.052465,
          "velocity": 0.6614173228346457
        },
        {
          "duration": 0.2960521875000097,
          "durationTicks": 270,
          "midi": 54,
          "name": "F#3",
          "ticks": 101520,
          "time": 111.31562249999999,
          "velocity": 0.6850393700787402
        },
        {
          "duration": 0.31249953125001184,
          "durationTicks": 285,
          "midi": 58,
          "name": "A#3",
          "ticks": 101520,
          "time": 111.31562249999999,
          "velocity": 0.7244094488188977
        },
        {
          "duration": 0.31249953125001184,
          "durationTicks": 285,
          "midi": 61,
          "name": "C#4",
          "ticks": 101520,
          "time": 111.31562249999999,
          "velocity": 0.6850393700787402
        },
        {
          "duration": 0.40021869791667086,
          "durationTicks": 365,
          "midi": 63,
          "name": "D#4",
          "ticks": 101520,
          "time": 111.31562249999999,
          "velocity": 0.6456692913385826
        },
        {
          "duration": 0.07675427083334796,
          "durationTicks": 70,
          "midi": 65,
          "name": "F4",
          "ticks": 102240,
          "time": 112.10509499999999,
          "velocity": 0.7401574803149606
        },
        {
          "duration": 0.08223671874999638,
          "durationTicks": 75,
          "midi": 66,
          "name": "F#4",
          "ticks": 102480,
          "time": 112.3682525,
          "velocity": 0.7086614173228346
        },
        {
          "duration": 0.24671015625000337,
          "durationTicks": 225,
          "midi": 59,
          "name": "B3",
          "ticks": 102720,
          "time": 112.63140999999999,
          "velocity": 0.6692913385826772
        },
        {
          "duration": 0.252192604166666,
          "durationTicks": 230,
          "midi": 63,
          "name": "D#4",
          "ticks": 102720,
          "time": 112.63140999999999,
          "velocity": 0.7637795275590551
        },
        {
          "duration": 0.2247803645833386,
          "durationTicks": 205,
          "midi": 66,
          "name": "F#4",
          "ticks": 102720,
          "time": 112.63140999999999,
          "velocity": 0.7874015748031497
        },
        {
          "duration": 0.19736812500001122,
          "durationTicks": 180,
          "midi": 70,
          "name": "A#4",
          "ticks": 102720,
          "time": 112.63140999999999,
          "velocity": 0.5196850393700787
        },
        {
          "duration": 0.14802609375000486,
          "durationTicks": 135,
          "midi": 68,
          "name": "G#4",
          "ticks": 102960,
          "time": 112.8945675,
          "velocity": 0.7874015748031497
        },
        {
          "duration": 0.11513140625000062,
          "durationTicks": 105,
          "midi": 70,
          "name": "A#4",
          "ticks": 103200,
          "time": 113.157725,
          "velocity": 0.5511811023622047
        },
        {
          "duration": 0.42763093749999825,
          "durationTicks": 390,
          "midi": 59,
          "name": "B3",
          "ticks": 103440,
          "time": 113.42088249999999,
          "velocity": 0.6456692913385826
        },
        {
          "duration": 0.42763093749999825,
          "durationTicks": 390,
          "midi": 63,
          "name": "D#4",
          "ticks": 103440,
          "time": 113.42088249999999,
          "velocity": 0.7401574803149606
        },
        {
          "duration": 0.42214848958334983,
          "durationTicks": 385,
          "midi": 66,
          "name": "F#4",
          "ticks": 103440,
          "time": 113.42088249999999,
          "velocity": 0.7401574803149606
        },
        {
          "duration": 0.40021869791667086,
          "durationTicks": 365,
          "midi": 68,
          "name": "G#4",
          "ticks": 103440,
          "time": 113.42088249999999,
          "velocity": 0.7716535433070866
        },
        {
          "duration": 0.41666604166665877,
          "durationTicks": 380,
          "midi": 59,
          "name": "B3",
          "ticks": 103920,
          "time": 113.9471975,
          "velocity": 0.7637795275590551
        },
        {
          "duration": 0.42763093749999825,
          "durationTicks": 390,
          "midi": 63,
          "name": "D#4",
          "ticks": 103920,
          "time": 113.9471975,
          "velocity": 0.7874015748031497
        },
        {
          "duration": 0.42763093749999825,
          "durationTicks": 390,
          "midi": 66,
          "name": "F#4",
          "ticks": 103920,
          "time": 113.9471975,
          "velocity": 0.7874015748031497
        },
        {
          "duration": 0.4057011458333335,
          "durationTicks": 370,
          "midi": 70,
          "name": "A#4",
          "ticks": 103920,
          "time": 113.9471975,
          "velocity": 0.7401574803149606
        },
        {
          "duration": 0.4605256250000025,
          "durationTicks": 420,
          "midi": 59,
          "name": "B3",
          "ticks": 104400,
          "time": 114.4735125,
          "velocity": 0.84251968503937
        },
        {
          "duration": 0.4934203124999925,
          "durationTicks": 450,
          "midi": 63,
          "name": "D#4",
          "ticks": 104400,
          "time": 114.4735125,
          "velocity": 0.8188976377952756
        },
        {
          "duration": 0.42763093749999825,
          "durationTicks": 390,
          "midi": 66,
          "name": "F#4",
          "ticks": 104400,
          "time": 114.4735125,
          "velocity": 0.7874015748031497
        },
        {
          "duration": 0.41666604166665877,
          "durationTicks": 380,
          "midi": 70,
          "name": "A#4",
          "ticks": 104400,
          "time": 114.4735125,
          "velocity": 0.7480314960629921
        },
        {
          "duration": 0.18640322916665752,
          "durationTicks": 170,
          "midi": 68,
          "name": "G#4",
          "ticks": 104880,
          "time": 114.9998275,
          "velocity": 0.7559055118110236
        },
        {
          "duration": 0.10964895833333799,
          "durationTicks": 100,
          "midi": 70,
          "name": "A#4",
          "ticks": 105120,
          "time": 115.262985,
          "velocity": 0.5511811023622047
        },
        {
          "duration": 0.27412239583334497,
          "durationTicks": 250,
          "midi": 59,
          "name": "B3",
          "ticks": 105360,
          "time": 115.52614249999999,
          "velocity": 0.7401574803149606
        },
        {
          "duration": 0.2686399479166681,
          "durationTicks": 245,
          "midi": 63,
          "name": "D#4",
          "ticks": 105360,
          "time": 115.52614249999999,
          "velocity": 0.7637795275590551
        },
        {
          "duration": 0.307017083333335,
          "durationTicks": 280,
          "midi": 66,
          "name": "F#4",
          "ticks": 105360,
          "time": 115.52614249999999,
          "velocity": 0.7480314960629921
        },
        {
          "duration": 0.3234644270833371,
          "durationTicks": 295,
          "midi": 68,
          "name": "G#4",
          "ticks": 105360,
          "time": 115.52614249999999,
          "velocity": 0.8031496062992126
        },
        {
          "duration": 0.06578937500000848,
          "durationTicks": 60,
          "midi": 70,
          "name": "A#4",
          "ticks": 105840,
          "time": 116.05245749999999,
          "velocity": 0.8267716535433071
        },
        {
          "duration": 0.06030692708334584,
          "durationTicks": 55,
          "midi": 68,
          "name": "G#4",
          "ticks": 106080,
          "time": 116.315615,
          "velocity": 0.8188976377952756
        },
        {
          "duration": 0.0712718229166569,
          "durationTicks": 65,
          "midi": 66,
          "name": "F#4",
          "ticks": 106320,
          "time": 116.5787725,
          "velocity": 0.6614173228346457
        },
        {
          "duration": 0.19736812500001122,
          "durationTicks": 180,
          "midi": 62,
          "name": "D4",
          "ticks": 106560,
          "time": 116.84192999999999,
          "velocity": 0.5826771653543307
        },
        {
          "duration": 0.28508729166667024,
          "durationTicks": 260,
          "midi": 65,
          "name": "F4",
          "ticks": 106560,
          "time": 116.84192999999999,
          "velocity": 0.6456692913385826
        },
        {
          "duration": 0.23574526041666388,
          "durationTicks": 215,
          "midi": 63,
          "name": "D#4",
          "ticks": 106800,
          "time": 117.1050875,
          "velocity": 0.4881889763779528
        },
        {
          "duration": 0.1535085416666533,
          "durationTicks": 140,
          "midi": 65,
          "name": "F4",
          "ticks": 107040,
          "time": 117.368245,
          "velocity": 0.5118110236220472
        },
        {
          "duration": 0.11513140625000062,
          "durationTicks": 105,
          "midi": 70,
          "name": "A#4",
          "ticks": 107280,
          "time": 117.6314025,
          "velocity": 0.44881889763779526
        },
        {
          "duration": 0.0822367187500106,
          "durationTicks": 75,
          "midi": 65,
          "name": "F4",
          "ticks": 107760,
          "time": 118.15771749999999,
          "velocity": 0.7007874015748031
        },
        {
          "duration": 0.31798197916666027,
          "durationTicks": 290,
          "midi": 57,
          "name": "A3",
          "ticks": 108240,
          "time": 118.6840325,
          "velocity": 0.5984251968503937
        },
        {
          "duration": 0.30153463541665815,
          "durationTicks": 275,
          "midi": 65,
          "name": "F4",
          "ticks": 108240,
          "time": 118.6840325,
          "velocity": 0.6850393700787402
        },
        {
          "duration": 0.17543833333333225,
          "durationTicks": 160,
          "midi": 63,
          "name": "D#4",
          "ticks": 108720,
          "time": 119.2103475,
          "velocity": 0.5748031496062992
        },
        {
          "duration": 0.12061385416666326,
          "durationTicks": 110,
          "midi": 65,
          "name": "F4",
          "ticks": 108960,
          "time": 119.47350499999999,
          "velocity": 0.6062992125984252
        },
        {
          "duration": 0.07675427083333375,
          "durationTicks": 70,
          "midi": 69,
          "name": "A4",
          "ticks": 109200,
          "time": 119.7366625,
          "velocity": 0.5433070866141733
        },
        {
          "duration": 0.21929791666666176,
          "durationTicks": 200,
          "midi": 70,
          "name": "A#4",
          "ticks": 110400,
          "time": 121.05245,
          "velocity": 0.6535433070866141
        },
        {
          "duration": 0.197368124999997,
          "durationTicks": 180,
          "midi": 75,
          "name": "D#5",
          "ticks": 110400,
          "time": 121.05245,
          "velocity": 0.7480314960629921
        },
        {
          "duration": 0.10964895833333799,
          "durationTicks": 100,
          "midi": 77,
          "name": "F5",
          "ticks": 110640,
          "time": 121.3156075,
          "velocity": 0.7244094488188977
        },
        {
          "duration": 0.1260963020833401,
          "durationTicks": 115,
          "midi": 75,
          "name": "D#5",
          "ticks": 110880,
          "time": 121.57876499999999,
          "velocity": 0.6850393700787402
        },
        {
          "duration": 0.08771916666665902,
          "durationTicks": 80,
          "midi": 70,
          "name": "A#4",
          "ticks": 111120,
          "time": 121.8419225,
          "velocity": 0.7007874015748031
        },
        {
          "duration": 0.21929791666666176,
          "durationTicks": 200,
          "midi": 65,
          "name": "F4",
          "ticks": 111360,
          "time": 122.10508,
          "velocity": 0.7637795275590551
        },
        {
          "duration": 0.2083330208333365,
          "durationTicks": 190,
          "midi": 70,
          "name": "A#4",
          "ticks": 111360,
          "time": 122.10508,
          "velocity": 0.6220472440944882
        },
        {
          "duration": 0.21381546874999913,
          "durationTicks": 195,
          "midi": 75,
          "name": "D#5",
          "ticks": 111360,
          "time": 122.10508,
          "velocity": 0.6850393700787402
        },
        {
          "duration": 0.11513140625000062,
          "durationTicks": 105,
          "midi": 70,
          "name": "A#4",
          "ticks": 112800,
          "time": 123.68402499999999,
          "velocity": 0.6535433070866141
        },
        {
          "duration": 0.17543833333334646,
          "durationTicks": 160,
          "midi": 75,
          "name": "D#5",
          "ticks": 112800,
          "time": 123.68402499999999,
          "velocity": 0.7007874015748031
        },
        {
          "duration": 0.2083330208333365,
          "durationTicks": 190,
          "midi": 73,
          "name": "C#5",
          "ticks": 113040,
          "time": 123.9471825,
          "velocity": 0.7874015748031497
        },
        {
          "duration": 0.1535085416666533,
          "durationTicks": 140,
          "midi": 77,
          "name": "F5",
          "ticks": 113040,
          "time": 123.9471825,
          "velocity": 0.7480314960629921
        },
        {
          "duration": 0.2247803645833386,
          "durationTicks": 205,
          "midi": 70,
          "name": "A#4",
          "ticks": 113280,
          "time": 124.21033999999999,
          "velocity": 0.7637795275590551
        },
        {
          "duration": 0.25767505208334285,
          "durationTicks": 235,
          "midi": 75,
          "name": "D#5",
          "ticks": 113280,
          "time": 124.21033999999999,
          "velocity": 0.7480314960629921
        },
        {
          "duration": 0.17543833333334646,
          "durationTicks": 160,
          "midi": 73,
          "name": "C#5",
          "ticks": 113520,
          "time": 124.4734975,
          "velocity": 0.7637795275590551
        },
        {
          "duration": 0.14254364583334223,
          "durationTicks": 130,
          "midi": 77,
          "name": "F5",
          "ticks": 113520,
          "time": 124.4734975,
          "velocity": 0.7244094488188977
        },
        {
          "duration": 0.24671015624998915,
          "durationTicks": 225,
          "midi": 75,
          "name": "D#5",
          "ticks": 113760,
          "time": 124.736655,
          "velocity": 0.7007874015748031
        },
        {
          "duration": 0.25767505208332864,
          "durationTicks": 235,
          "midi": 80,
          "name": "G#5",
          "ticks": 113760,
          "time": 124.736655,
          "velocity": 0.7007874015748031
        },
        {
          "duration": 0.25767505208334285,
          "durationTicks": 235,
          "midi": 73,
          "name": "C#5",
          "ticks": 114000,
          "time": 124.99981249999999,
          "velocity": 0.7244094488188977
        },
        {
          "duration": 0.20285057291665964,
          "durationTicks": 185,
          "midi": 77,
          "name": "F5",
          "ticks": 114000,
          "time": 124.99981249999999,
          "velocity": 0.7165354330708661
        },
        {
          "duration": 0.24671015625000337,
          "durationTicks": 225,
          "midi": 70,
          "name": "A#4",
          "ticks": 114240,
          "time": 125.26297,
          "velocity": 0.7244094488188977
        },
        {
          "duration": 0.252192604166666,
          "durationTicks": 230,
          "midi": 75,
          "name": "D#5",
          "ticks": 114240,
          "time": 125.26297,
          "velocity": 0.7480314960629921
        },
        {
          "duration": 0.13706119791665117,
          "durationTicks": 125,
          "midi": 72,
          "name": "C5",
          "ticks": 114480,
          "time": 125.5261275,
          "velocity": 0.6062992125984252
        },
        {
          "duration": 0.18640322916665752,
          "durationTicks": 170,
          "midi": 77,
          "name": "F5",
          "ticks": 114480,
          "time": 125.5261275,
          "velocity": 0.7637795275590551
        },
        {
          "duration": 0.24671015625000337,
          "durationTicks": 225,
          "midi": 70,
          "name": "A#4",
          "ticks": 114720,
          "time": 125.78928499999999,
          "velocity": 0.7244094488188977
        },
        {
          "duration": 0.23574526041666388,
          "durationTicks": 215,
          "midi": 75,
          "name": "D#5",
          "ticks": 114720,
          "time": 125.78928499999999,
          "velocity": 0.6062992125984252
        },
        {
          "duration": 0.13706119791666538,
          "durationTicks": 125,
          "midi": 65,
          "name": "F4",
          "ticks": 114960,
          "time": 126.0524425,
          "velocity": 0.6062992125984252
        },
        {
          "duration": 0.13157875000000274,
          "durationTicks": 120,
          "midi": 70,
          "name": "A#4",
          "ticks": 114960,
          "time": 126.0524425,
          "velocity": 0.6062992125984252
        },
        {
          "duration": 0.5043852083333462,
          "durationTicks": 460,
          "midi": 68,
          "name": "G#4",
          "ticks": 115200,
          "time": 126.31559999999999,
          "velocity": 0.6614173228346457
        },
        {
          "duration": 0.559209687500001,
          "durationTicks": 510,
          "midi": 73,
          "name": "C#5",
          "ticks": 115200,
          "time": 126.31559999999999,
          "velocity": 0.6299212598425197
        },
        {
          "duration": 0.10964895833333799,
          "durationTicks": 100,
          "midi": 73,
          "name": "C#5",
          "ticks": 116640,
          "time": 127.894545,
          "velocity": 0.6692913385826772
        },
        {
          "duration": 0.10416651041666114,
          "durationTicks": 95,
          "midi": 77,
          "name": "F5",
          "ticks": 116640,
          "time": 127.894545,
          "velocity": 0.7795275590551181
        },
        {
          "duration": 0.10416651041666114,
          "durationTicks": 95,
          "midi": 85,
          "name": "C#6",
          "ticks": 116640,
          "time": 127.894545,
          "velocity": 0.6850393700787402
        },
        {
          "duration": 0.27412239583333076,
          "durationTicks": 250,
          "midi": 72,
          "name": "C5",
          "ticks": 117120,
          "time": 128.42086,
          "velocity": 0.6929133858267716
        },
        {
          "duration": 0.2796048437499792,
          "durationTicks": 255,
          "midi": 77,
          "name": "F5",
          "ticks": 117120,
          "time": 128.42086,
          "velocity": 0.8110236220472441
        },
        {
          "duration": 0.2905697395833329,
          "durationTicks": 265,
          "midi": 84,
          "name": "C6",
          "ticks": 117120,
          "time": 128.42086,
          "velocity": 0.6299212598425197
        },
        {
          "duration": 0.2905697395833613,
          "durationTicks": 265,
          "midi": 80,
          "name": "G#5",
          "ticks": 117360,
          "time": 128.68401749999998,
          "velocity": 0.6850393700787402
        },
        {
          "duration": 0.09320161458333587,
          "durationTicks": 85,
          "midi": 72,
          "name": "C5",
          "ticks": 117600,
          "time": 128.947175,
          "velocity": 0.6299212598425197
        },
        {
          "duration": 0.06578937500000848,
          "durationTicks": 60,
          "midi": 77,
          "name": "F5",
          "ticks": 117600,
          "time": 128.947175,
          "velocity": 0.7480314960629921
        },
        {
          "duration": 0.28508729166665603,
          "durationTicks": 260,
          "midi": 70,
          "name": "A#4",
          "ticks": 118080,
          "time": 129.47349,
          "velocity": 0.7480314960629921
        },
        {
          "duration": 0.2796048437500076,
          "durationTicks": 255,
          "midi": 75,
          "name": "D#5",
          "ticks": 118080,
          "time": 129.47349,
          "velocity": 0.6850393700787402
        },
        {
          "duration": 0.21929791666664755,
          "durationTicks": 200,
          "midi": 72,
          "name": "C5",
          "ticks": 118320,
          "time": 129.7366475,
          "velocity": 0.6692913385826772
        },
        {
          "duration": 0.20833302083332228,
          "durationTicks": 190,
          "midi": 77,
          "name": "F5",
          "ticks": 118320,
          "time": 129.7366475,
          "velocity": 0.7401574803149606
        },
        {
          "duration": 0.09868406250001271,
          "durationTicks": 90,
          "midi": 70,
          "name": "A#4",
          "ticks": 118560,
          "time": 129.99980499999998,
          "velocity": 0.7480314960629921
        },
        {
          "duration": 0.17543833333334646,
          "durationTicks": 160,
          "midi": 75,
          "name": "D#5",
          "ticks": 118560,
          "time": 129.99980499999998,
          "velocity": 0.7007874015748031
        },
        {
          "duration": 0.09320161458333587,
          "durationTicks": 85,
          "midi": 65,
          "name": "F4",
          "ticks": 118800,
          "time": 130.2629625,
          "velocity": 0.6692913385826772
        },
        {
          "duration": 0.10416651041666114,
          "durationTicks": 95,
          "midi": 70,
          "name": "A#4",
          "ticks": 118800,
          "time": 130.2629625,
          "velocity": 0.6692913385826772
        },
        {
          "duration": 0.24671015625000337,
          "durationTicks": 225,
          "midi": 65,
          "name": "F4",
          "ticks": 119040,
          "time": 130.52612,
          "velocity": 0.7244094488188977
        },
        {
          "duration": 0.2796048437500076,
          "durationTicks": 255,
          "midi": 70,
          "name": "A#4",
          "ticks": 119040,
          "time": 130.52612,
          "velocity": 0.7007874015748031
        },
        {
          "duration": 0.27412239583333076,
          "durationTicks": 250,
          "midi": 75,
          "name": "D#5",
          "ticks": 119040,
          "time": 130.52612,
          "velocity": 0.6377952755905512
        },
        {
          "duration": 0.14802609374999065,
          "durationTicks": 135,
          "midi": 70,
          "name": "A#4",
          "ticks": 120480,
          "time": 132.105065,
          "velocity": 0.6692913385826772
        },
        {
          "duration": 0.2247803645833244,
          "durationTicks": 205,
          "midi": 75,
          "name": "D#5",
          "ticks": 120480,
          "time": 132.105065,
          "velocity": 0.7244094488188977
        },
        {
          "duration": 0.2247803645833244,
          "durationTicks": 205,
          "midi": 73,
          "name": "C#5",
          "ticks": 120720,
          "time": 132.3682225,
          "velocity": 0.7874015748031497
        },
        {
          "duration": 0.19188567708332016,
          "durationTicks": 175,
          "midi": 77,
          "name": "F5",
          "ticks": 120720,
          "time": 132.3682225,
          "velocity": 0.8267716535433071
        },
        {
          "duration": 0.20833302083332228,
          "durationTicks": 190,
          "midi": 70,
          "name": "A#4",
          "ticks": 120960,
          "time": 132.63138,
          "velocity": 0.7244094488188977
        },
        {
          "duration": 0.2521926041666518,
          "durationTicks": 230,
          "midi": 75,
          "name": "D#5",
          "ticks": 120960,
          "time": 132.63138,
          "velocity": 0.7244094488188977
        },
        {
          "duration": 0.23026281250000125,
          "durationTicks": 210,
          "midi": 73,
          "name": "C#5",
          "ticks": 121200,
          "time": 132.89453749999998,
          "velocity": 0.7874015748031497
        },
        {
          "duration": 0.22478036458335282,
          "durationTicks": 205,
          "midi": 77,
          "name": "F5",
          "ticks": 121200,
          "time": 132.89453749999998,
          "velocity": 0.7795275590551181
        },
        {
          "duration": 0.2521926041666802,
          "durationTicks": 230,
          "midi": 75,
          "name": "D#5",
          "ticks": 121440,
          "time": 133.157695,
          "velocity": 0.6535433070866141
        },
        {
          "duration": 0.2631575000000055,
          "durationTicks": 240,
          "midi": 80,
          "name": "G#5",
          "ticks": 121440,
          "time": 133.157695,
          "velocity": 0.7007874015748031
        },
        {
          "duration": 0.2631575000000055,
          "durationTicks": 240,
          "midi": 73,
          "name": "C#5",
          "ticks": 121680,
          "time": 133.4208525,
          "velocity": 0.7874015748031497
        },
        {
          "duration": 0.23574526041664967,
          "durationTicks": 215,
          "midi": 77,
          "name": "F5",
          "ticks": 121680,
          "time": 133.4208525,
          "velocity": 0.7480314960629921
        },
        {
          "duration": 0.24671015625000337,
          "durationTicks": 225,
          "midi": 70,
          "name": "A#4",
          "ticks": 121920,
          "time": 133.68401,
          "velocity": 0.6535433070866141
        },
        {
          "duration": 0.21929791666664755,
          "durationTicks": 200,
          "midi": 75,
          "name": "D#5",
          "ticks": 121920,
          "time": 133.68401,
          "velocity": 0.6220472440944882
        },
        {
          "duration": 0.197368124999997,
          "durationTicks": 180,
          "midi": 72,
          "name": "C5",
          "ticks": 122160,
          "time": 133.9471675,
          "velocity": 0.5275590551181102
        },
        {
          "duration": 0.20833302083332228,
          "durationTicks": 190,
          "midi": 77,
          "name": "F5",
          "ticks": 122160,
          "time": 133.9471675,
          "velocity": 0.8110236220472441
        },
        {
          "duration": 0.2521926041666802,
          "durationTicks": 230,
          "midi": 70,
          "name": "A#4",
          "ticks": 122400,
          "time": 134.21032499999998,
          "velocity": 0.6535433070866141
        },
        {
          "duration": 0.16995588541666962,
          "durationTicks": 155,
          "midi": 75,
          "name": "D#5",
          "ticks": 122400,
          "time": 134.21032499999998,
          "velocity": 0.6377952755905512
        },
        {
          "duration": 0.10416651041666114,
          "durationTicks": 95,
          "midi": 68,
          "name": "G#4",
          "ticks": 122640,
          "time": 134.4734825,
          "velocity": 0.44881889763779526
        },
        {
          "duration": 0.09320161458333587,
          "durationTicks": 85,
          "midi": 73,
          "name": "C#5",
          "ticks": 122640,
          "time": 134.4734825,
          "velocity": 0.7637795275590551
        },
        {
          "duration": 1.0526299999999935,
          "durationTicks": 960,
          "midi": 65,
          "name": "F4",
          "ticks": 122880,
          "time": 134.73664,
          "velocity": 0.6692913385826772
        },
        {
          "duration": 1.0635948958333188,
          "durationTicks": 970,
          "midi": 70,
          "name": "A#4",
          "ticks": 122880,
          "time": 134.73664,
          "velocity": 0.7086614173228346
        },
        {
          "duration": 0.5427623437499847,
          "durationTicks": 495,
          "midi": 61,
          "name": "C#4",
          "ticks": 124320,
          "time": 136.315585,
          "velocity": 0.7637795275590551
        },
        {
          "duration": 0.5208325520833057,
          "durationTicks": 475,
          "midi": 65,
          "name": "F4",
          "ticks": 124320,
          "time": 136.315585,
          "velocity": 0.8818897637795275
        },
        {
          "duration": 0.5317974479166594,
          "durationTicks": 485,
          "midi": 70,
          "name": "A#4",
          "ticks": 124320,
          "time": 136.315585,
          "velocity": 0.6850393700787402
        },
        {
          "duration": 0.12061385416669168,
          "durationTicks": 110,
          "midi": 60,
          "name": "C4",
          "ticks": 125280,
          "time": 137.368215,
          "velocity": 0.7244094488188977
        },
        {
          "duration": 0.09868406250001271,
          "durationTicks": 90,
          "midi": 63,
          "name": "D#4",
          "ticks": 125280,
          "time": 137.368215,
          "velocity": 0.6850393700787402
        },
        {
          "duration": 0.10964895833333799,
          "durationTicks": 100,
          "midi": 65,
          "name": "F4",
          "ticks": 125280,
          "time": 137.368215,
          "velocity": 0.7952755905511811
        },
        {
          "duration": 0.26315749999997706,
          "durationTicks": 240,
          "midi": 70,
          "name": "A#4",
          "ticks": 125760,
          "time": 137.89453,
          "velocity": 0.6692913385826772
        },
        {
          "duration": 0.2796048437499792,
          "durationTicks": 255,
          "midi": 75,
          "name": "D#5",
          "ticks": 125760,
          "time": 137.89453,
          "velocity": 0.7480314960629921
        },
        {
          "duration": 0.09868406250001271,
          "durationTicks": 90,
          "midi": 72,
          "name": "C5",
          "ticks": 126000,
          "time": 138.15768749999998,
          "velocity": 0.7086614173228346
        },
        {
          "duration": 0.14802609375001907,
          "durationTicks": 135,
          "midi": 77,
          "name": "F5",
          "ticks": 126000,
          "time": 138.15768749999998,
          "velocity": 0.8110236220472441
        },
        {
          "duration": 0.09320161458333587,
          "durationTicks": 85,
          "midi": 70,
          "name": "A#4",
          "ticks": 126240,
          "time": 138.42084499999999,
          "velocity": 0.6692913385826772
        },
        {
          "duration": 0.12061385416669168,
          "durationTicks": 110,
          "midi": 75,
          "name": "D#5",
          "ticks": 126240,
          "time": 138.42084499999999,
          "velocity": 0.6535433070866141
        },
        {
          "duration": 0.09868406250001271,
          "durationTicks": 90,
          "midi": 65,
          "name": "F4",
          "ticks": 126480,
          "time": 138.6840025,
          "velocity": 0.5511811023622047
        },
        {
          "duration": 0.08771916666668744,
          "durationTicks": 80,
          "midi": 70,
          "name": "A#4",
          "ticks": 126480,
          "time": 138.6840025,
          "velocity": 0.6692913385826772
        },
        {
          "duration": 0.24671015625000337,
          "durationTicks": 225,
          "midi": 70,
          "name": "A#4",
          "ticks": 126720,
          "time": 138.94716,
          "velocity": 0.5748031496062992
        },
        {
          "duration": 0.23026281250000125,
          "durationTicks": 210,
          "midi": 75,
          "name": "D#5",
          "ticks": 126720,
          "time": 138.94716,
          "velocity": 0.6850393700787402
        },
        {
          "duration": 0.16995588541666962,
          "durationTicks": 155,
          "midi": 70,
          "name": "A#4",
          "ticks": 128160,
          "time": 140.526105,
          "velocity": 0.7007874015748031
        },
        {
          "duration": 0.2357452604166781,
          "durationTicks": 215,
          "midi": 75,
          "name": "D#5",
          "ticks": 128160,
          "time": 140.526105,
          "velocity": 0.7480314960629921
        },
        {
          "duration": 0.24671015624997494,
          "durationTicks": 225,
          "midi": 73,
          "name": "C#5",
          "ticks": 128400,
          "time": 140.7892625,
          "velocity": 0.7874015748031497
        },
        {
          "duration": 0.21381546874999913,
          "durationTicks": 195,
          "midi": 77,
          "name": "F5",
          "ticks": 128400,
          "time": 140.7892625,
          "velocity": 0.8267716535433071
        },
        {
          "duration": 0.21929791666667597,
          "durationTicks": 200,
          "midi": 70,
          "name": "A#4",
          "ticks": 128640,
          "time": 141.05241999999998,
          "velocity": 0.7637795275590551
        },
        {
          "duration": 0.24122770833332652,
          "durationTicks": 220,
          "midi": 75,
          "name": "D#5",
          "ticks": 128640,
          "time": 141.05241999999998,
          "velocity": 0.7480314960629921
        },
        {
          "duration": 0.2247803645833244,
          "durationTicks": 205,
          "midi": 73,
          "name": "C#5",
          "ticks": 128880,
          "time": 141.3155775,
          "velocity": 0.7480314960629921
        },
        {
          "duration": 0.21381546874999913,
          "durationTicks": 195,
          "midi": 77,
          "name": "F5",
          "ticks": 128880,
          "time": 141.3155775,
          "velocity": 0.7795275590551181
        },
        {
          "duration": 0.2631575000000055,
          "durationTicks": 240,
          "midi": 75,
          "name": "D#5",
          "ticks": 129120,
          "time": 141.578735,
          "velocity": 0.7007874015748031
        },
        {
          "duration": 0.27412239583333076,
          "durationTicks": 250,
          "midi": 80,
          "name": "G#5",
          "ticks": 129120,
          "time": 141.578735,
          "velocity": 0.7007874015748031
        },
        {
          "duration": 0.2960521874999813,
          "durationTicks": 270,
          "midi": 73,
          "name": "C#5",
          "ticks": 129360,
          "time": 141.8418925,
          "velocity": 0.7874015748031497
        },
        {
          "duration": 0.24671015625000337,
          "durationTicks": 225,
          "midi": 77,
          "name": "F5",
          "ticks": 129360,
          "time": 141.8418925,
          "velocity": 0.7480314960629921
        },
        {
          "duration": 0.27412239583330233,
          "durationTicks": 250,
          "midi": 70,
          "name": "A#4",
          "ticks": 129600,
          "time": 142.10505,
          "velocity": 0.6692913385826772
        },
        {
          "duration": 0.2412277083332981,
          "durationTicks": 220,
          "midi": 75,
          "name": "D#5",
          "ticks": 129600,
          "time": 142.10505,
          "velocity": 0.7007874015748031
        },
        {
          "duration": 0.27412239583333076,
          "durationTicks": 250,
          "midi": 72,
          "name": "C5",
          "ticks": 129840,
          "time": 142.36820749999998,
          "velocity": 0.6692913385826772
        },
        {
          "duration": 0.24122770833332652,
          "durationTicks": 220,
          "midi": 77,
          "name": "F5",
          "ticks": 129840,
          "time": 142.36820749999998,
          "velocity": 0.84251968503937
        },
        {
          "duration": 0.1260963020833401,
          "durationTicks": 115,
          "midi": 70,
          "name": "A#4",
          "ticks": 130080,
          "time": 142.631365,
          "velocity": 0.7244094488188977
        },
        {
          "duration": 0.21929791666667597,
          "durationTicks": 200,
          "midi": 75,
          "name": "D#5",
          "ticks": 130080,
          "time": 142.631365,
          "velocity": 0.7244094488188977
        },
        {
          "duration": 0.13157874999998853,
          "durationTicks": 120,
          "midi": 65,
          "name": "F4",
          "ticks": 130320,
          "time": 142.8945225,
          "velocity": 0.6456692913385826
        },
        {
          "duration": 0.13157874999998853,
          "durationTicks": 120,
          "midi": 70,
          "name": "A#4",
          "ticks": 130320,
          "time": 142.8945225,
          "velocity": 0.7244094488188977
        },
        {
          "duration": 0.7730251562499859,
          "durationTicks": 705,
          "midi": 68,
          "name": "G#4",
          "ticks": 130560,
          "time": 143.15768,
          "velocity": 0.6850393700787402
        },
        {
          "duration": 0.8223671874999923,
          "durationTicks": 750,
          "midi": 73,
          "name": "C#5",
          "ticks": 130560,
          "time": 143.15768,
          "velocity": 0.7165354330708661
        },
        {
          "duration": 0.13706119791666538,
          "durationTicks": 125,
          "midi": 73,
          "name": "C#5",
          "ticks": 132000,
          "time": 144.736625,
          "velocity": 0.6692913385826772
        },
        {
          "duration": 0.13706119791666538,
          "durationTicks": 125,
          "midi": 77,
          "name": "F5",
          "ticks": 132000,
          "time": 144.736625,
          "velocity": 0.7795275590551181
        },
        {
          "duration": 0.1425436458333138,
          "durationTicks": 130,
          "midi": 85,
          "name": "C#6",
          "ticks": 132000,
          "time": 144.736625,
          "velocity": 0.7007874015748031
        },
        {
          "duration": 0.26863994791668233,
          "durationTicks": 245,
          "midi": 72,
          "name": "C5",
          "ticks": 132480,
          "time": 145.26294,
          "velocity": 0.5826771653543307
        },
        {
          "duration": 0.2357452604166781,
          "durationTicks": 215,
          "midi": 77,
          "name": "F5",
          "ticks": 132480,
          "time": 145.26294,
          "velocity": 0.7637795275590551
        },
        {
          "duration": 0.2905697395833329,
          "durationTicks": 265,
          "midi": 84,
          "name": "C6",
          "ticks": 132480,
          "time": 145.26294,
          "velocity": 0.6062992125984252
        },
        {
          "duration": 0.307017083333335,
          "durationTicks": 280,
          "midi": 80,
          "name": "G#5",
          "ticks": 132720,
          "time": 145.5260975,
          "velocity": 0.6377952755905512
        },
        {
          "duration": 0.11513140624998641,
          "durationTicks": 105,
          "midi": 72,
          "name": "C5",
          "ticks": 132960,
          "time": 145.789255,
          "velocity": 0.5905511811023622
        },
        {
          "duration": 0.12061385416666326,
          "durationTicks": 110,
          "midi": 77,
          "name": "F5",
          "ticks": 132960,
          "time": 145.789255,
          "velocity": 0.8031496062992126
        },
        {
          "duration": 0.2796048437500076,
          "durationTicks": 255,
          "midi": 75,
          "name": "D#5",
          "ticks": 133440,
          "time": 146.31556999999998,
          "velocity": 0.6377952755905512
        },
        {
          "duration": 0.19188567708332016,
          "durationTicks": 175,
          "midi": 77,
          "name": "F5",
          "ticks": 133680,
          "time": 146.57872749999999,
          "velocity": 0.7637795275590551
        },
        {
          "duration": 0.1370611979166938,
          "durationTicks": 125,
          "midi": 75,
          "name": "D#5",
          "ticks": 133920,
          "time": 146.841885,
          "velocity": 0.6220472440944882
        },
        {
          "duration": 0.10416651041666114,
          "durationTicks": 95,
          "midi": 70,
          "name": "A#4",
          "ticks": 134160,
          "time": 147.1050425,
          "velocity": 0.6062992125984252
        },
        {
          "duration": 0.5427623437499847,
          "durationTicks": 495,
          "midi": 63,
          "name": "D#4",
          "ticks": 134400,
          "time": 147.3682,
          "velocity": 0.84251968503937
        },
        {
          "duration": 0.5537272395833099,
          "durationTicks": 505,
          "midi": 75,
          "name": "D#5",
          "ticks": 134400,
          "time": 147.3682,
          "velocity": 0.7244094488188977
        },
        {
          "duration": 0.17543833333331804,
          "durationTicks": 160,
          "midi": 70,
          "name": "A#4",
          "ticks": 135840,
          "time": 148.947145,
          "velocity": 0.5433070866141733
        },
        {
          "duration": 0.2247803645833244,
          "durationTicks": 205,
          "midi": 75,
          "name": "D#5",
          "ticks": 135840,
          "time": 148.947145,
          "velocity": 0.5748031496062992
        },
        {
          "duration": 0.2357452604166781,
          "durationTicks": 215,
          "midi": 73,
          "name": "C#5",
          "ticks": 136080,
          "time": 149.21030249999998,
          "velocity": 0.7874015748031497
        },
        {
          "duration": 0.20833302083332228,
          "durationTicks": 190,
          "midi": 77,
          "name": "F5",
          "ticks": 136080,
          "time": 149.21030249999998,
          "velocity": 0.7795275590551181
        },
        {
          "duration": 0.24671015625000337,
          "durationTicks": 225,
          "midi": 70,
          "name": "A#4",
          "ticks": 136320,
          "time": 149.47346,
          "velocity": 0.7637795275590551
        },
        {
          "duration": 0.24671015625000337,
          "durationTicks": 225,
          "midi": 75,
          "name": "D#5",
          "ticks": 136320,
          "time": 149.47346,
          "velocity": 0.7244094488188977
        },
        {
          "duration": 0.23026281250000125,
          "durationTicks": 210,
          "midi": 73,
          "name": "C#5",
          "ticks": 136560,
          "time": 149.7366175,
          "velocity": 0.6692913385826772
        },
        {
          "duration": 0.24671015625000337,
          "durationTicks": 225,
          "midi": 77,
          "name": "F5",
          "ticks": 136560,
          "time": 149.7366175,
          "velocity": 0.7244094488188977
        },
        {
          "duration": 0.24671015625000337,
          "durationTicks": 225,
          "midi": 75,
          "name": "D#5",
          "ticks": 136800,
          "time": 149.999775,
          "velocity": 0.6692913385826772
        },
        {
          "duration": 0.2521926041666802,
          "durationTicks": 230,
          "midi": 80,
          "name": "G#5",
          "ticks": 136800,
          "time": 149.999775,
          "velocity": 0.5669291338582677
        },
        {
          "duration": 0.27412239583330233,
          "durationTicks": 250,
          "midi": 73,
          "name": "C#5",
          "ticks": 137040,
          "time": 150.2629325,
          "velocity": 0.6692913385826772
        },
        {
          "duration": 0.23026281250000125,
          "durationTicks": 210,
          "midi": 77,
          "name": "F5",
          "ticks": 137040,
          "time": 150.2629325,
          "velocity": 0.7795275590551181
        },
        {
          "duration": 0.2631575000000055,
          "durationTicks": 240,
          "midi": 70,
          "name": "A#4",
          "ticks": 137280,
          "time": 150.52608999999998,
          "velocity": 0.6377952755905512
        },
        {
          "duration": 0.24671015625000337,
          "durationTicks": 225,
          "midi": 75,
          "name": "D#5",
          "ticks": 137280,
          "time": 150.52608999999998,
          "velocity": 0.7480314960629921
        },
        {
          "duration": 0.2357452604166781,
          "durationTicks": 215,
          "midi": 72,
          "name": "C5",
          "ticks": 137520,
          "time": 150.7892475,
          "velocity": 0.6377952755905512
        },
        {
          "duration": 0.21381546874999913,
          "durationTicks": 195,
          "midi": 77,
          "name": "F5",
          "ticks": 137520,
          "time": 150.7892475,
          "velocity": 0.7637795275590551
        },
        {
          "duration": 0.2357452604166781,
          "durationTicks": 215,
          "midi": 70,
          "name": "A#4",
          "ticks": 137760,
          "time": 151.052405,
          "velocity": 0.6377952755905512
        },
        {
          "duration": 0.16995588541666962,
          "durationTicks": 155,
          "midi": 75,
          "name": "D#5",
          "ticks": 137760,
          "time": 151.052405,
          "velocity": 0.6062992125984252
        },
        {
          "duration": 0.12061385416666326,
          "durationTicks": 110,
          "midi": 68,
          "name": "G#4",
          "ticks": 138000,
          "time": 151.3155625,
          "velocity": 0.6692913385826772
        },
        {
          "duration": 0.06578937500000848,
          "durationTicks": 60,
          "midi": 73,
          "name": "C#5",
          "ticks": 138000,
          "time": 151.3155625,
          "velocity": 0.5669291338582677
        },
        {
          "duration": 0.7182006770833027,
          "durationTicks": 655,
          "midi": 67,
          "name": "G4",
          "ticks": 138240,
          "time": 151.57872,
          "velocity": 0.7244094488188977
        },
        {
          "duration": 0.7291655729166564,
          "durationTicks": 665,
          "midi": 70,
          "name": "A#4",
          "ticks": 138240,
          "time": 151.57872,
          "velocity": 0.7480314960629921
        },
        {
          "duration": 0.04385958333332951,
          "durationTicks": 40,
          "midi": 73,
          "name": "C#5",
          "ticks": 138960,
          "time": 152.3681925,
          "velocity": 0.6850393700787402
        },
        {
          "duration": 0.6688586458333248,
          "durationTicks": 610,
          "midi": 60,
          "name": "C4",
          "ticks": 139200,
          "time": 152.63135,
          "velocity": 0.7244094488188977
        },
        {
          "duration": 0.6578937499999995,
          "durationTicks": 600,
          "midi": 66,
          "name": "F#4",
          "ticks": 139200,
          "time": 152.63135,
          "velocity": 0.6535433070866141
        },
        {
          "duration": 0.6304815104166721,
          "durationTicks": 575,
          "midi": 70,
          "name": "A#4",
          "ticks": 139200,
          "time": 152.63135,
          "velocity": 0.5118110236220472
        },
        {
          "duration": 0.07675427083333375,
          "durationTicks": 70,
          "midi": 60,
          "name": "C4",
          "ticks": 139920,
          "time": 153.42082249999999,
          "velocity": 0.8110236220472441
        },
        {
          "duration": 0.04934203125000636,
          "durationTicks": 45,
          "midi": 68,
          "name": "G#4",
          "ticks": 139920,
          "time": 153.42082249999999,
          "velocity": 0.5511811023622047
        },
        {
          "duration": 0.20285057291667385,
          "durationTicks": 185,
          "midi": 60,
          "name": "C4",
          "ticks": 140160,
          "time": 153.68398,
          "velocity": 0.8267716535433071
        },
        {
          "duration": 0.16447343749999277,
          "durationTicks": 150,
          "midi": 68,
          "name": "G#4",
          "ticks": 140160,
          "time": 153.68398,
          "velocity": 0.5748031496062992
        },
        {
          "duration": 0.05482447916665478,
          "durationTicks": 50,
          "midi": 53,
          "name": "F3",
          "ticks": 140640,
          "time": 154.210295,
          "velocity": 0.84251968503937
        },
        {
          "duration": 0.07675427083330533,
          "durationTicks": 70,
          "midi": 60,
          "name": "C4",
          "ticks": 140640,
          "time": 154.210295,
          "velocity": 0.8110236220472441
        },
        {
          "duration": 0.08223671874998217,
          "durationTicks": 75,
          "midi": 65,
          "name": "F4",
          "ticks": 140640,
          "time": 154.210295,
          "velocity": 0.905511811023622
        },
        {
          "duration": 0.06578937500000848,
          "durationTicks": 60,
          "midi": 63,
          "name": "D#4",
          "ticks": 140880,
          "time": 154.47345249999998,
          "velocity": 0.9291338582677166
        },
        {
          "duration": 0.06578937500000848,
          "durationTicks": 60,
          "midi": 58,
          "name": "A#3",
          "ticks": 141120,
          "time": 154.73660999999998,
          "velocity": 0.9291338582677166
        },
        {
          "duration": 0.06030692708333163,
          "durationTicks": 55,
          "midi": 61,
          "name": "C#4",
          "ticks": 141120,
          "time": 154.73660999999998,
          "velocity": 0.8976377952755905
        },
        {
          "duration": 0.0822367187500106,
          "durationTicks": 75,
          "midi": 63,
          "name": "D#4",
          "ticks": 141120,
          "time": 154.73660999999998,
          "velocity": 0.8740157480314961
        },
        {
          "duration": 0.0822367187500106,
          "durationTicks": 75,
          "midi": 65,
          "name": "F4",
          "ticks": 141120,
          "time": 154.73660999999998,
          "velocity": 0.9212598425196851
        },
        {
          "duration": 0.06578937500000848,
          "durationTicks": 60,
          "midi": 61,
          "name": "C#4",
          "ticks": 141360,
          "time": 154.9997675,
          "velocity": 0.5511811023622047
        },
        {
          "duration": 0.04934203125000636,
          "durationTicks": 45,
          "midi": 63,
          "name": "D#4",
          "ticks": 141360,
          "time": 154.9997675,
          "velocity": 0.4094488188976378
        },
        {
          "duration": 0.06578937500000848,
          "durationTicks": 60,
          "midi": 65,
          "name": "F4",
          "ticks": 141360,
          "time": 154.9997675,
          "velocity": 0.6535433070866141
        },
        {
          "duration": 0.04385958333332951,
          "durationTicks": 40,
          "midi": 58,
          "name": "A#3",
          "ticks": 141600,
          "time": 155.262925,
          "velocity": 0.4015748031496063
        },
        {
          "duration": 0.06578937500000848,
          "durationTicks": 60,
          "midi": 61,
          "name": "C#4",
          "ticks": 141600,
          "time": 155.262925,
          "velocity": 0.5511811023622047
        },
        {
          "duration": 0.06578937500000848,
          "durationTicks": 60,
          "midi": 63,
          "name": "D#4",
          "ticks": 141600,
          "time": 155.262925,
          "velocity": 0.4645669291338583
        },
        {
          "duration": 0.03289468750000424,
          "durationTicks": 30,
          "midi": 65,
          "name": "F4",
          "ticks": 141600,
          "time": 155.262925,
          "velocity": 0.3779527559055118
        },
        {
          "duration": 0.06030692708330321,
          "durationTicks": 55,
          "midi": 61,
          "name": "C#4",
          "ticks": 141840,
          "time": 155.5260825,
          "velocity": 0.4645669291338583
        },
        {
          "duration": 0.05482447916665478,
          "durationTicks": 50,
          "midi": 63,
          "name": "D#4",
          "ticks": 141840,
          "time": 155.5260825,
          "velocity": 0.36220472440944884
        },
        {
          "duration": 0.03289468750000424,
          "durationTicks": 30,
          "midi": 65,
          "name": "F4",
          "ticks": 141840,
          "time": 155.5260825,
          "velocity": 0.3779527559055118
        },
        {
          "duration": 0.04385958333330109,
          "durationTicks": 40,
          "midi": 58,
          "name": "A#3",
          "ticks": 142080,
          "time": 155.78924,
          "velocity": 0.4015748031496063
        },
        {
          "duration": 0.05482447916665478,
          "durationTicks": 50,
          "midi": 61,
          "name": "C#4",
          "ticks": 142080,
          "time": 155.78924,
          "velocity": 0.3937007874015748
        },
        {
          "duration": 0.0712718229166569,
          "durationTicks": 65,
          "midi": 63,
          "name": "D#4",
          "ticks": 142080,
          "time": 155.78924,
          "velocity": 0.4094488188976378
        },
        {
          "duration": 0.02741223958329897,
          "durationTicks": 25,
          "midi": 65,
          "name": "F4",
          "ticks": 142080,
          "time": 155.78924,
          "velocity": 0.3779527559055118
        },
        {
          "duration": 0.04934203125000636,
          "durationTicks": 45,
          "midi": 61,
          "name": "C#4",
          "ticks": 142320,
          "time": 156.05239749999998,
          "velocity": 0.4409448818897638
        },
        {
          "duration": 0.06578937500000848,
          "durationTicks": 60,
          "midi": 63,
          "name": "D#4",
          "ticks": 142320,
          "time": 156.05239749999998,
          "velocity": 0.5039370078740157
        },
        {
          "duration": 0.02741223958332739,
          "durationTicks": 25,
          "midi": 65,
          "name": "F4",
          "ticks": 142320,
          "time": 156.05239749999998,
          "velocity": 0.3779527559055118
        },
        {
          "duration": 0.04385958333332951,
          "durationTicks": 40,
          "midi": 58,
          "name": "A#3",
          "ticks": 142560,
          "time": 156.315555,
          "velocity": 0.4015748031496063
        },
        {
          "duration": 0.054824479166683204,
          "durationTicks": 50,
          "midi": 61,
          "name": "C#4",
          "ticks": 142560,
          "time": 156.315555,
          "velocity": 0.5748031496062992
        },
        {
          "duration": 0.06578937500000848,
          "durationTicks": 60,
          "midi": 63,
          "name": "D#4",
          "ticks": 142560,
          "time": 156.315555,
          "velocity": 0.7480314960629921
        },
        {
          "duration": 0.038377135416681085,
          "durationTicks": 35,
          "midi": 65,
          "name": "F4",
          "ticks": 142560,
          "time": 156.315555,
          "velocity": 0.5826771653543307
        },
        {
          "duration": 0.04385958333332951,
          "durationTicks": 40,
          "midi": 58,
          "name": "A#3",
          "ticks": 142800,
          "time": 156.5787125,
          "velocity": 0.4015748031496063
        },
        {
          "duration": 0.03289468750000424,
          "durationTicks": 30,
          "midi": 61,
          "name": "C#4",
          "ticks": 142800,
          "time": 156.5787125,
          "velocity": 0.4566929133858268
        },
        {
          "duration": 0.06030692708333163,
          "durationTicks": 55,
          "midi": 63,
          "name": "D#4",
          "ticks": 142800,
          "time": 156.5787125,
          "velocity": 0.7244094488188977
        },
        {
          "duration": 0.038377135416681085,
          "durationTicks": 35,
          "midi": 65,
          "name": "F4",
          "ticks": 142800,
          "time": 156.5787125,
          "velocity": 0.5669291338582677
        },
        {
          "duration": 0.06030692708330321,
          "durationTicks": 55,
          "midi": 58,
          "name": "A#3",
          "ticks": 143040,
          "time": 156.84187,
          "velocity": 1
        },
        {
          "duration": 0.0712718229166569,
          "durationTicks": 65,
          "midi": 60,
          "name": "C4",
          "ticks": 143040,
          "time": 156.84187,
          "velocity": 1
        },
        {
          "duration": 0.08223671874998217,
          "durationTicks": 75,
          "midi": 65,
          "name": "F4",
          "ticks": 143040,
          "time": 156.84187,
          "velocity": 1
        },
        {
          "duration": 0.04385958333330109,
          "durationTicks": 40,
          "midi": 58,
          "name": "A#3",
          "ticks": 143280,
          "time": 157.1050275,
          "velocity": 0.3700787401574803
        },
        {
          "duration": 0.0712718229166569,
          "durationTicks": 65,
          "midi": 60,
          "name": "C4",
          "ticks": 143280,
          "time": 157.1050275,
          "velocity": 0.6535433070866141
        },
        {
          "duration": 0.03289468749997582,
          "durationTicks": 30,
          "midi": 65,
          "name": "F4",
          "ticks": 143280,
          "time": 157.1050275,
          "velocity": 0.41732283464566927
        },
        {
          "duration": 0.04385958333332951,
          "durationTicks": 40,
          "midi": 58,
          "name": "A#3",
          "ticks": 143520,
          "time": 157.36818499999998,
          "velocity": 0.44881889763779526
        },
        {
          "duration": 0.07127182291668532,
          "durationTicks": 65,
          "midi": 60,
          "name": "C4",
          "ticks": 143520,
          "time": 157.36818499999998,
          "velocity": 0.7401574803149606
        },
        {
          "duration": 0.04385958333332951,
          "durationTicks": 40,
          "midi": 65,
          "name": "F4",
          "ticks": 143520,
          "time": 157.36818499999998,
          "velocity": 0.47244094488188976
        },
        {
          "duration": 0.04934203125000636,
          "durationTicks": 45,
          "midi": 58,
          "name": "A#3",
          "ticks": 143760,
          "time": 157.6313425,
          "velocity": 0.3700787401574803
        },
        {
          "duration": 0.06030692708333163,
          "durationTicks": 55,
          "midi": 60,
          "name": "C4",
          "ticks": 143760,
          "time": 157.6313425,
          "velocity": 0.5196850393700787
        },
        {
          "duration": 0.06030692708333163,
          "durationTicks": 55,
          "midi": 65,
          "name": "F4",
          "ticks": 143760,
          "time": 157.6313425,
          "velocity": 0.5196850393700787
        },
        {
          "duration": 0.06030692708333163,
          "durationTicks": 55,
          "midi": 58,
          "name": "A#3",
          "ticks": 144000,
          "time": 157.8945,
          "velocity": 0.1889763779527559
        },
        {
          "duration": 0.06030692708333163,
          "durationTicks": 55,
          "midi": 60,
          "name": "C4",
          "ticks": 144000,
          "time": 157.8945,
          "velocity": 0.4645669291338583
        },
        {
          "duration": 0.07675427083333375,
          "durationTicks": 70,
          "midi": 63,
          "name": "D#4",
          "ticks": 144000,
          "time": 157.8945,
          "velocity": 0.47244094488188976
        },
        {
          "duration": 0.054824479166683204,
          "durationTicks": 50,
          "midi": 58,
          "name": "A#3",
          "ticks": 144240,
          "time": 158.1576575,
          "velocity": 0.41732283464566927
        },
        {
          "duration": 0.038377135416681085,
          "durationTicks": 35,
          "midi": 60,
          "name": "C4",
          "ticks": 144240,
          "time": 158.1576575,
          "velocity": 0.3700787401574803
        },
        {
          "duration": 0.06578937499998005,
          "durationTicks": 60,
          "midi": 63,
          "name": "D#4",
          "ticks": 144240,
          "time": 158.1576575,
          "velocity": 0.4881889763779528
        },
        {
          "duration": 0.05482447916665478,
          "durationTicks": 50,
          "midi": 58,
          "name": "A#3",
          "ticks": 144480,
          "time": 158.420815,
          "velocity": 0.49606299212598426
        },
        {
          "duration": 0.04385958333330109,
          "durationTicks": 40,
          "midi": 60,
          "name": "C4",
          "ticks": 144480,
          "time": 158.420815,
          "velocity": 0.5669291338582677
        },
        {
          "duration": 0.05482447916665478,
          "durationTicks": 50,
          "midi": 63,
          "name": "D#4",
          "ticks": 144480,
          "time": 158.420815,
          "velocity": 0.6062992125984252
        },
        {
          "duration": 0.054824479166683204,
          "durationTicks": 50,
          "midi": 58,
          "name": "A#3",
          "ticks": 144720,
          "time": 158.68397249999998,
          "velocity": 0.48031496062992124
        },
        {
          "duration": 0.038377135416681085,
          "durationTicks": 35,
          "midi": 60,
          "name": "C4",
          "ticks": 144720,
          "time": 158.68397249999998,
          "velocity": 0.5590551181102362
        },
        {
          "duration": 0.054824479166683204,
          "durationTicks": 50,
          "midi": 63,
          "name": "D#4",
          "ticks": 144720,
          "time": 158.68397249999998,
          "velocity": 0.5354330708661418
        },
        {
          "duration": 0.06030692708333163,
          "durationTicks": 55,
          "midi": 56,
          "name": "G#3",
          "ticks": 144960,
          "time": 158.94713,
          "velocity": 1
        },
        {
          "duration": 0.06578937500000848,
          "durationTicks": 60,
          "midi": 60,
          "name": "C4",
          "ticks": 144960,
          "time": 158.94713,
          "velocity": 0.984251968503937
        },
        {
          "duration": 0.07127182291668532,
          "durationTicks": 65,
          "midi": 63,
          "name": "D#4",
          "ticks": 144960,
          "time": 158.94713,
          "velocity": 0.9291338582677166
        },
        {
          "duration": 0.06030692708333163,
          "durationTicks": 55,
          "midi": 56,
          "name": "G#3",
          "ticks": 145200,
          "time": 159.2102875,
          "velocity": 0.3700787401574803
        },
        {
          "duration": 0.054824479166683204,
          "durationTicks": 50,
          "midi": 60,
          "name": "C4",
          "ticks": 145200,
          "time": 159.2102875,
          "velocity": 0.5590551181102362
        },
        {
          "duration": 0.038377135416681085,
          "durationTicks": 35,
          "midi": 63,
          "name": "D#4",
          "ticks": 145200,
          "time": 159.2102875,
          "velocity": 0.3779527559055118
        },
        {
          "duration": 0.03289468750000424,
          "durationTicks": 30,
          "midi": 56,
          "name": "G#3",
          "ticks": 145440,
          "time": 159.473445,
          "velocity": 0.3700787401574803
        },
        {
          "duration": 0.04385958333332951,
          "durationTicks": 40,
          "midi": 60,
          "name": "C4",
          "ticks": 145440,
          "time": 159.473445,
          "velocity": 0.6692913385826772
        },
        {
          "duration": 0.06578937500000848,
          "durationTicks": 60,
          "midi": 63,
          "name": "D#4",
          "ticks": 145440,
          "time": 159.473445,
          "velocity": 0.6377952755905512
        },
        {
          "duration": 0.03289468749997582,
          "durationTicks": 30,
          "midi": 56,
          "name": "G#3",
          "ticks": 145680,
          "time": 159.7366025,
          "velocity": 0.3700787401574803
        },
        {
          "duration": 0.04385958333330109,
          "durationTicks": 40,
          "midi": 60,
          "name": "C4",
          "ticks": 145680,
          "time": 159.7366025,
          "velocity": 0.6771653543307087
        },
        {
          "duration": 0.03289468749997582,
          "durationTicks": 30,
          "midi": 63,
          "name": "D#4",
          "ticks": 145680,
          "time": 159.7366025,
          "velocity": 0.44881889763779526
        },
        {
          "duration": 0.038377135416681085,
          "durationTicks": 35,
          "midi": 56,
          "name": "G#3",
          "ticks": 145920,
          "time": 159.99975999999998,
          "velocity": 0.3543307086614173
        },
        {
          "duration": 0.054824479166683204,
          "durationTicks": 50,
          "midi": 60,
          "name": "C4",
          "ticks": 145920,
          "time": 159.99975999999998,
          "velocity": 0.7244094488188977
        },
        {
          "duration": 0.02741223958332739,
          "durationTicks": 25,
          "midi": 63,
          "name": "D#4",
          "ticks": 145920,
          "time": 159.99975999999998,
          "velocity": 0.36220472440944884
        },
        {
          "duration": 0.038377135416681085,
          "durationTicks": 35,
          "midi": 56,
          "name": "G#3",
          "ticks": 146160,
          "time": 160.2629175,
          "velocity": 0.3858267716535433
        },
        {
          "duration": 0.04385958333332951,
          "durationTicks": 40,
          "midi": 60,
          "name": "C4",
          "ticks": 146160,
          "time": 160.2629175,
          "velocity": 0.6929133858267716
        },
        {
          "duration": 0.04934203125000636,
          "durationTicks": 45,
          "midi": 63,
          "name": "D#4",
          "ticks": 146160,
          "time": 160.2629175,
          "velocity": 0.4566929133858268
        },
        {
          "duration": 0.03289468750000424,
          "durationTicks": 30,
          "midi": 56,
          "name": "G#3",
          "ticks": 146400,
          "time": 160.526075,
          "velocity": 0.4251968503937008
        },
        {
          "duration": 0.03289468750000424,
          "durationTicks": 30,
          "midi": 60,
          "name": "C4",
          "ticks": 146400,
          "time": 160.526075,
          "velocity": 0.5511811023622047
        },
        {
          "duration": 0.054824479166683204,
          "durationTicks": 50,
          "midi": 63,
          "name": "D#4",
          "ticks": 146400,
          "time": 160.526075,
          "velocity": 0.5196850393700787
        },
        {
          "duration": 0.03289468750000424,
          "durationTicks": 30,
          "midi": 56,
          "name": "G#3",
          "ticks": 146640,
          "time": 160.7892325,
          "velocity": 0.36220472440944884
        },
        {
          "duration": 0.054824479166683204,
          "durationTicks": 50,
          "midi": 60,
          "name": "C4",
          "ticks": 146640,
          "time": 160.7892325,
          "velocity": 0.7637795275590551
        },
        {
          "duration": 0.06030692708333163,
          "durationTicks": 55,
          "midi": 63,
          "name": "D#4",
          "ticks": 146640,
          "time": 160.7892325,
          "velocity": 0.6062992125984252
        },
        {
          "duration": 0.05482447916665478,
          "durationTicks": 50,
          "midi": 56,
          "name": "G#3",
          "ticks": 146880,
          "time": 161.05239,
          "velocity": 0.8188976377952756
        },
        {
          "duration": 0.06578937499998005,
          "durationTicks": 60,
          "midi": 60,
          "name": "C4",
          "ticks": 146880,
          "time": 161.05239,
          "velocity": 0.84251968503937
        },
        {
          "duration": 0.07675427083330533,
          "durationTicks": 70,
          "midi": 61,
          "name": "C#4",
          "ticks": 146880,
          "time": 161.05239,
          "velocity": 0.8188976377952756
        },
        {
          "duration": 0.04385958333332951,
          "durationTicks": 40,
          "midi": 56,
          "name": "G#3",
          "ticks": 147120,
          "time": 161.31554749999998,
          "velocity": 0.3937007874015748
        },
        {
          "duration": 0.038377135416681085,
          "durationTicks": 35,
          "midi": 60,
          "name": "C4",
          "ticks": 147120,
          "time": 161.31554749999998,
          "velocity": 0.7007874015748031
        },
        {
          "duration": 0.04934203125000636,
          "durationTicks": 45,
          "midi": 61,
          "name": "C#4",
          "ticks": 147120,
          "time": 161.31554749999998,
          "velocity": 0.5511811023622047
        },
        {
          "duration": 0.04934203125000636,
          "durationTicks": 45,
          "midi": 56,
          "name": "G#3",
          "ticks": 147360,
          "time": 161.57870499999999,
          "velocity": 0.3937007874015748
        },
        {
          "duration": 0.04385958333332951,
          "durationTicks": 40,
          "midi": 60,
          "name": "C4",
          "ticks": 147360,
          "time": 161.57870499999999,
          "velocity": 0.6456692913385826
        },
        {
          "duration": 0.04934203125000636,
          "durationTicks": 45,
          "midi": 61,
          "name": "C#4",
          "ticks": 147360,
          "time": 161.57870499999999,
          "velocity": 0.5118110236220472
        },
        {
          "duration": 0.04934203125000636,
          "durationTicks": 45,
          "midi": 56,
          "name": "G#3",
          "ticks": 147600,
          "time": 161.8418625,
          "velocity": 0.3937007874015748
        },
        {
          "duration": 0.04934203125000636,
          "durationTicks": 45,
          "midi": 60,
          "name": "C4",
          "ticks": 147600,
          "time": 161.8418625,
          "velocity": 0.7480314960629921
        },
        {
          "duration": 0.054824479166683204,
          "durationTicks": 50,
          "midi": 61,
          "name": "C#4",
          "ticks": 147600,
          "time": 161.8418625,
          "velocity": 0.5511811023622047
        },
        {
          "duration": 0.30153463541668657,
          "durationTicks": 275,
          "midi": 56,
          "name": "G#3",
          "ticks": 147840,
          "time": 162.10502,
          "velocity": 0.952755905511811
        },
        {
          "duration": 0.3234644270833087,
          "durationTicks": 295,
          "midi": 60,
          "name": "C4",
          "ticks": 147840,
          "time": 162.10502,
          "velocity": 1
        },
        {
          "duration": 0.34539421874998766,
          "durationTicks": 315,
          "midi": 61,
          "name": "C#4",
          "ticks": 147840,
          "time": 162.10502,
          "velocity": 0.9763779527559056
        },
        {
          "duration": 0.28508729166665603,
          "durationTicks": 260,
          "midi": 56,
          "name": "G#3",
          "ticks": 148320,
          "time": 162.631335,
          "velocity": 0.8976377952755905
        },
        {
          "duration": 0.29056973958330445,
          "durationTicks": 265,
          "midi": 60,
          "name": "C4",
          "ticks": 148320,
          "time": 162.631335,
          "velocity": 0.984251968503937
        },
        {
          "duration": 0.3234644270833087,
          "durationTicks": 295,
          "midi": 63,
          "name": "D#4",
          "ticks": 148320,
          "time": 162.631335,
          "velocity": 0.8976377952755905
        },
        {
          "duration": 0.06578937500000848,
          "durationTicks": 60,
          "midi": 58,
          "name": "A#3",
          "ticks": 148800,
          "time": 163.15765,
          "velocity": 0.952755905511811
        },
        {
          "duration": 0.06578937500000848,
          "durationTicks": 60,
          "midi": 61,
          "name": "C#4",
          "ticks": 148800,
          "time": 163.15765,
          "velocity": 0.9763779527559056
        },
        {
          "duration": 0.07127182291668532,
          "durationTicks": 65,
          "midi": 63,
          "name": "D#4",
          "ticks": 148800,
          "time": 163.15765,
          "velocity": 0.952755905511811
        },
        {
          "duration": 0.07675427083333375,
          "durationTicks": 70,
          "midi": 65,
          "name": "F4",
          "ticks": 148800,
          "time": 163.15765,
          "velocity": 0.968503937007874
        },
        {
          "duration": 0.06030692708333163,
          "durationTicks": 55,
          "midi": 61,
          "name": "C#4",
          "ticks": 149040,
          "time": 163.4208075,
          "velocity": 0.5905511811023622
        },
        {
          "duration": 0.04934203125000636,
          "durationTicks": 45,
          "midi": 63,
          "name": "D#4",
          "ticks": 149040,
          "time": 163.4208075,
          "velocity": 0.4330708661417323
        },
        {
          "duration": 0.04934203125000636,
          "durationTicks": 45,
          "midi": 65,
          "name": "F4",
          "ticks": 149040,
          "time": 163.4208075,
          "velocity": 0.5118110236220472
        },
        {
          "duration": 0.04385958333332951,
          "durationTicks": 40,
          "midi": 58,
          "name": "A#3",
          "ticks": 149280,
          "time": 163.683965,
          "velocity": 0.4015748031496063
        },
        {
          "duration": 0.06030692708330321,
          "durationTicks": 55,
          "midi": 61,
          "name": "C#4",
          "ticks": 149280,
          "time": 163.683965,
          "velocity": 0.5905511811023622
        },
        {
          "duration": 0.04934203125000636,
          "durationTicks": 45,
          "midi": 63,
          "name": "D#4",
          "ticks": 149280,
          "time": 163.683965,
          "velocity": 0.4330708661417323
        },
        {
          "duration": 0.04385958333332951,
          "durationTicks": 40,
          "midi": 65,
          "name": "F4",
          "ticks": 149280,
          "time": 163.683965,
          "velocity": 0.5118110236220472
        },
        {
          "duration": 0.06578937499998005,
          "durationTicks": 60,
          "midi": 61,
          "name": "C#4",
          "ticks": 149520,
          "time": 163.9471225,
          "velocity": 0.5511811023622047
        },
        {
          "duration": 0.049342031249977936,
          "durationTicks": 45,
          "midi": 63,
          "name": "D#4",
          "ticks": 149520,
          "time": 163.9471225,
          "velocity": 0.3700787401574803
        },
        {
          "duration": 0.049342031249977936,
          "durationTicks": 45,
          "midi": 65,
          "name": "F4",
          "ticks": 149520,
          "time": 163.9471225,
          "velocity": 0.5118110236220472
        },
        {
          "duration": 0.06030692708333163,
          "durationTicks": 55,
          "midi": 61,
          "name": "C#4",
          "ticks": 149760,
          "time": 164.21027999999998,
          "velocity": 0.6850393700787402
        },
        {
          "duration": 0.06030692708333163,
          "durationTicks": 55,
          "midi": 63,
          "name": "D#4",
          "ticks": 149760,
          "time": 164.21027999999998,
          "velocity": 0.5748031496062992
        },
        {
          "duration": 0.04934203125000636,
          "durationTicks": 45,
          "midi": 65,
          "name": "F4",
          "ticks": 149760,
          "time": 164.21027999999998,
          "velocity": 0.36220472440944884
        },
        {
          "duration": 0.054824479166683204,
          "durationTicks": 50,
          "midi": 61,
          "name": "C#4",
          "ticks": 150000,
          "time": 164.4734375,
          "velocity": 0.5905511811023622
        },
        {
          "duration": 0.04934203125000636,
          "durationTicks": 45,
          "midi": 63,
          "name": "D#4",
          "ticks": 150000,
          "time": 164.4734375,
          "velocity": 0.4015748031496063
        },
        {
          "duration": 0.038377135416681085,
          "durationTicks": 35,
          "midi": 65,
          "name": "F4",
          "ticks": 150000,
          "time": 164.4734375,
          "velocity": 0.4881889763779528
        },
        {
          "duration": 0.04385958333332951,
          "durationTicks": 40,
          "midi": 58,
          "name": "A#3",
          "ticks": 150240,
          "time": 164.736595,
          "velocity": 0.4015748031496063
        },
        {
          "duration": 0.054824479166683204,
          "durationTicks": 50,
          "midi": 61,
          "name": "C#4",
          "ticks": 150240,
          "time": 164.736595,
          "velocity": 0.6062992125984252
        },
        {
          "duration": 0.054824479166683204,
          "durationTicks": 50,
          "midi": 63,
          "name": "D#4",
          "ticks": 150240,
          "time": 164.736595,
          "velocity": 0.5433070866141733
        },
        {
          "duration": 0.03289468750000424,
          "durationTicks": 30,
          "midi": 65,
          "name": "F4",
          "ticks": 150240,
          "time": 164.736595,
          "velocity": 0.5669291338582677
        },
        {
          "duration": 0.04385958333332951,
          "durationTicks": 40,
          "midi": 58,
          "name": "A#3",
          "ticks": 150480,
          "time": 164.9997525,
          "velocity": 0.4015748031496063
        },
        {
          "duration": 0.054824479166683204,
          "durationTicks": 50,
          "midi": 61,
          "name": "C#4",
          "ticks": 150480,
          "time": 164.9997525,
          "velocity": 0.5196850393700787
        },
        {
          "duration": 0.06030692708330321,
          "durationTicks": 55,
          "midi": 63,
          "name": "D#4",
          "ticks": 150480,
          "time": 164.9997525,
          "velocity": 0.4251968503937008
        },
        {
          "duration": 0.038377135416681085,
          "durationTicks": 35,
          "midi": 65,
          "name": "F4",
          "ticks": 150480,
          "time": 164.9997525,
          "velocity": 0.5669291338582677
        },
        {
          "duration": 0.05482447916665478,
          "durationTicks": 50,
          "midi": 58,
          "name": "A#3",
          "ticks": 150720,
          "time": 165.26291,
          "velocity": 0.952755905511811
        },
        {
          "duration": 0.0712718229166569,
          "durationTicks": 65,
          "midi": 60,
          "name": "C4",
          "ticks": 150720,
          "time": 165.26291,
          "velocity": 1
        },
        {
          "duration": 0.08223671874998217,
          "durationTicks": 75,
          "midi": 65,
          "name": "F4",
          "ticks": 150720,
          "time": 165.26291,
          "velocity": 0.9448818897637795
        },
        {
          "duration": 0.038377135416681085,
          "durationTicks": 35,
          "midi": 58,
          "name": "A#3",
          "ticks": 150960,
          "time": 165.52606749999998,
          "velocity": 0.4094488188976378
        },
        {
          "duration": 0.06030692708333163,
          "durationTicks": 55,
          "midi": 60,
          "name": "C4",
          "ticks": 150960,
          "time": 165.52606749999998,
          "velocity": 0.6692913385826772
        },
        {
          "duration": 0.04934203125000636,
          "durationTicks": 45,
          "midi": 65,
          "name": "F4",
          "ticks": 150960,
          "time": 165.52606749999998,
          "velocity": 0.44881889763779526
        },
        {
          "duration": 0.04385958333332951,
          "durationTicks": 40,
          "midi": 58,
          "name": "A#3",
          "ticks": 151200,
          "time": 165.789225,
          "velocity": 0.4409448818897638
        },
        {
          "duration": 0.06030692708333163,
          "durationTicks": 55,
          "midi": 60,
          "name": "C4",
          "ticks": 151200,
          "time": 165.789225,
          "velocity": 0.7401574803149606
        },
        {
          "duration": 0.06578937500000848,
          "durationTicks": 60,
          "midi": 65,
          "name": "F4",
          "ticks": 151200,
          "time": 165.789225,
          "velocity": 0.7007874015748031
        },
        {
          "duration": 0.04934203125000636,
          "durationTicks": 45,
          "midi": 58,
          "name": "A#3",
          "ticks": 151440,
          "time": 166.0523825,
          "velocity": 0.4409448818897638
        },
        {
          "duration": 0.06578937500000848,
          "durationTicks": 60,
          "midi": 60,
          "name": "C4",
          "ticks": 151440,
          "time": 166.0523825,
          "velocity": 0.7480314960629921
        },
        {
          "duration": 0.06578937500000848,
          "durationTicks": 60,
          "midi": 65,
          "name": "F4",
          "ticks": 151440,
          "time": 166.0523825,
          "velocity": 0.6456692913385826
        },
        {
          "duration": 0.21381546874999913,
          "durationTicks": 195,
          "midi": 58,
          "name": "A#3",
          "ticks": 151680,
          "time": 166.31554,
          "velocity": 0.7480314960629921
        },
        {
          "duration": 0.21929791666667597,
          "durationTicks": 200,
          "midi": 60,
          "name": "C4",
          "ticks": 151680,
          "time": 166.31554,
          "velocity": 0.8110236220472441
        },
        {
          "duration": 0.2960521874999813,
          "durationTicks": 270,
          "midi": 63,
          "name": "D#4",
          "ticks": 151680,
          "time": 166.31554,
          "velocity": 0.7637795275590551
        },
        {
          "duration": 0.3618415625000182,
          "durationTicks": 330,
          "midi": 60,
          "name": "C4",
          "ticks": 152160,
          "time": 166.84185499999998,
          "velocity": 0.8110236220472441
        },
        {
          "duration": 0.4221484895833214,
          "durationTicks": 385,
          "midi": 63,
          "name": "D#4",
          "ticks": 152160,
          "time": 166.84185499999998,
          "velocity": 0.9291338582677166
        },
        {
          "duration": 0.4002186979166993,
          "durationTicks": 365,
          "midi": 68,
          "name": "G#4",
          "ticks": 152160,
          "time": 166.84185499999998,
          "velocity": 0.8188976377952756
        },
        {
          "duration": 0.3782889062500203,
          "durationTicks": 345,
          "midi": 70,
          "name": "A#4",
          "ticks": 152160,
          "time": 166.84185499999998,
          "velocity": 0.8188976377952756
        },
        {
          "duration": 0.09868406250001271,
          "durationTicks": 90,
          "midi": 60,
          "name": "C4",
          "ticks": 152640,
          "time": 167.36817,
          "velocity": 0.9448818897637795
        },
        {
          "duration": 0.09320161458333587,
          "durationTicks": 85,
          "midi": 61,
          "name": "C#4",
          "ticks": 152640,
          "time": 167.36817,
          "velocity": 0.8582677165354331
        },
        {
          "duration": 0.10964895833333799,
          "durationTicks": 100,
          "midi": 63,
          "name": "D#4",
          "ticks": 152640,
          "time": 167.36817,
          "velocity": 0.8740157480314961
        },
        {
          "duration": 0.08771916666668744,
          "durationTicks": 80,
          "midi": 68,
          "name": "G#4",
          "ticks": 152640,
          "time": 167.36817,
          "velocity": 0.9291338582677166
        },
        {
          "duration": 0.07675427083330533,
          "durationTicks": 70,
          "midi": 60,
          "name": "C4",
          "ticks": 152880,
          "time": 167.6313275,
          "velocity": 0.4015748031496063
        },
        {
          "duration": 0.04934203125000636,
          "durationTicks": 45,
          "midi": 61,
          "name": "C#4",
          "ticks": 152880,
          "time": 167.6313275,
          "velocity": 0.4881889763779528
        },
        {
          "duration": 0.07127182291668532,
          "durationTicks": 65,
          "midi": 63,
          "name": "D#4",
          "ticks": 152880,
          "time": 167.6313275,
          "velocity": 0.4881889763779528
        },
        {
          "duration": 0.08223671874998217,
          "durationTicks": 75,
          "midi": 68,
          "name": "G#4",
          "ticks": 152880,
          "time": 167.6313275,
          "velocity": 0.5118110236220472
        },
        {
          "duration": 0.0712718229166569,
          "durationTicks": 65,
          "midi": 60,
          "name": "C4",
          "ticks": 153120,
          "time": 167.894485,
          "velocity": 0.3779527559055118
        },
        {
          "duration": 0.049342031249977936,
          "durationTicks": 45,
          "midi": 61,
          "name": "C#4",
          "ticks": 153120,
          "time": 167.894485,
          "velocity": 0.4881889763779528
        },
        {
          "duration": 0.06578937499998005,
          "durationTicks": 60,
          "midi": 63,
          "name": "D#4",
          "ticks": 153120,
          "time": 167.894485,
          "velocity": 0.5354330708661418
        },
        {
          "duration": 0.08223671874998217,
          "durationTicks": 75,
          "midi": 68,
          "name": "G#4",
          "ticks": 153120,
          "time": 167.894485,
          "velocity": 0.5118110236220472
        },
        {
          "duration": 0.04934203125000636,
          "durationTicks": 45,
          "midi": 60,
          "name": "C4",
          "ticks": 153360,
          "time": 168.15764249999998,
          "velocity": 0.1889763779527559
        },
        {
          "duration": 0.04934203125000636,
          "durationTicks": 45,
          "midi": 61,
          "name": "C#4",
          "ticks": 153360,
          "time": 168.15764249999998,
          "velocity": 0.4881889763779528
        },
        {
          "duration": 0.06030692708333163,
          "durationTicks": 55,
          "midi": 63,
          "name": "D#4",
          "ticks": 153360,
          "time": 168.15764249999998,
          "velocity": 0.47244094488188976
        },
        {
          "duration": 0.038377135416681085,
          "durationTicks": 35,
          "midi": 68,
          "name": "G#4",
          "ticks": 153360,
          "time": 168.15764249999998,
          "velocity": 0.14960629921259844
        },
        {
          "duration": 0.06578937500000848,
          "durationTicks": 60,
          "midi": 60,
          "name": "C4",
          "ticks": 153600,
          "time": 168.42079999999999,
          "velocity": 0.6299212598425197
        },
        {
          "duration": 0.04385958333332951,
          "durationTicks": 40,
          "midi": 61,
          "name": "C#4",
          "ticks": 153600,
          "time": 168.42079999999999,
          "velocity": 0.5511811023622047
        },
        {
          "duration": 0.06578937500000848,
          "durationTicks": 60,
          "midi": 63,
          "name": "D#4",
          "ticks": 153600,
          "time": 168.42079999999999,
          "velocity": 0.6535433070866141
        },
        {
          "duration": 0.06030692708333163,
          "durationTicks": 55,
          "midi": 68,
          "name": "G#4",
          "ticks": 153600,
          "time": 168.42079999999999,
          "velocity": 0.5196850393700787
        },
        {
          "duration": 0.06578937500000848,
          "durationTicks": 60,
          "midi": 60,
          "name": "C4",
          "ticks": 153840,
          "time": 168.6839575,
          "velocity": 0.6692913385826772
        },
        {
          "duration": 0.038377135416681085,
          "durationTicks": 35,
          "midi": 61,
          "name": "C#4",
          "ticks": 153840,
          "time": 168.6839575,
          "velocity": 0.5511811023622047
        },
        {
          "duration": 0.04385958333332951,
          "durationTicks": 40,
          "midi": 63,
          "name": "D#4",
          "ticks": 153840,
          "time": 168.6839575,
          "velocity": 0.5039370078740157
        },
        {
          "duration": 0.04934203125000636,
          "durationTicks": 45,
          "midi": 68,
          "name": "G#4",
          "ticks": 153840,
          "time": 168.6839575,
          "velocity": 0.14173228346456693
        },
        {
          "duration": 0.42763093749999825,
          "durationTicks": 390,
          "midi": 61,
          "name": "C#4",
          "ticks": 154080,
          "time": 168.947115,
          "velocity": 0.952755905511811
        },
        {
          "duration": 0.46600807291667934,
          "durationTicks": 425,
          "midi": 63,
          "name": "D#4",
          "ticks": 154080,
          "time": 168.947115,
          "velocity": 0.968503937007874
        },
        {
          "duration": 0.42763093749999825,
          "durationTicks": 390,
          "midi": 72,
          "name": "C5",
          "ticks": 154080,
          "time": 168.947115,
          "velocity": 0.9448818897637795
        },
        {
          "duration": 0.09320161458333587,
          "durationTicks": 85,
          "midi": 61,
          "name": "C#4",
          "ticks": 154560,
          "time": 169.47342999999998,
          "velocity": 0.984251968503937
        },
        {
          "duration": 0.08771916666668744,
          "durationTicks": 80,
          "midi": 65,
          "name": "F4",
          "ticks": 154560,
          "time": 169.47342999999998,
          "velocity": 0.984251968503937
        },
        {
          "duration": 0.07127182291668532,
          "durationTicks": 65,
          "midi": 68,
          "name": "G#4",
          "ticks": 154560,
          "time": 169.47342999999998,
          "velocity": 0.9291338582677166
        },
        {
          "duration": 0.09868406250001271,
          "durationTicks": 90,
          "midi": 72,
          "name": "C5",
          "ticks": 154560,
          "time": 169.47342999999998,
          "velocity": 0.984251968503937
        },
        {
          "duration": 0.06030692708333163,
          "durationTicks": 55,
          "midi": 61,
          "name": "C#4",
          "ticks": 154800,
          "time": 169.73658749999998,
          "velocity": 0.6929133858267716
        },
        {
          "duration": 0.06578937500000848,
          "durationTicks": 60,
          "midi": 65,
          "name": "F4",
          "ticks": 154800,
          "time": 169.73658749999998,
          "velocity": 0.6929133858267716
        },
        {
          "duration": 0.06578937500000848,
          "durationTicks": 60,
          "midi": 68,
          "name": "G#4",
          "ticks": 154800,
          "time": 169.73658749999998,
          "velocity": 0.6535433070866141
        },
        {
          "duration": 0.07675427083333375,
          "durationTicks": 70,
          "midi": 72,
          "name": "C5",
          "ticks": 154800,
          "time": 169.73658749999998,
          "velocity": 0.33070866141732286
        },
        {
          "duration": 0.07127182291668532,
          "durationTicks": 65,
          "midi": 61,
          "name": "C#4",
          "ticks": 155040,
          "time": 169.999745,
          "velocity": 0.8267716535433071
        },
        {
          "duration": 0.07127182291668532,
          "durationTicks": 65,
          "midi": 65,
          "name": "F4",
          "ticks": 155040,
          "time": 169.999745,
          "velocity": 0.8267716535433071
        },
        {
          "duration": 0.06578937500000848,
          "durationTicks": 60,
          "midi": 68,
          "name": "G#4",
          "ticks": 155040,
          "time": 169.999745,
          "velocity": 0.6535433070866141
        },
        {
          "duration": 0.07127182291668532,
          "durationTicks": 65,
          "midi": 72,
          "name": "C5",
          "ticks": 155040,
          "time": 169.999745,
          "velocity": 0.7795275590551181
        },
        {
          "duration": 0.08771916666668744,
          "durationTicks": 80,
          "midi": 61,
          "name": "C#4",
          "ticks": 155280,
          "time": 170.2629025,
          "velocity": 0.6692913385826772
        },
        {
          "duration": 0.08771916666668744,
          "durationTicks": 80,
          "midi": 65,
          "name": "F4",
          "ticks": 155280,
          "time": 170.2629025,
          "velocity": 0.6692913385826772
        },
        {
          "duration": 0.06578937500000848,
          "durationTicks": 60,
          "midi": 68,
          "name": "G#4",
          "ticks": 155280,
          "time": 170.2629025,
          "velocity": 0.6535433070866141
        },
        {
          "duration": 0.07675427083333375,
          "durationTicks": 70,
          "midi": 72,
          "name": "C5",
          "ticks": 155280,
          "time": 170.2629025,
          "velocity": 0.33070866141732286
        },
        {
          "duration": 0.1535085416666675,
          "durationTicks": 140,
          "midi": 65,
          "name": "F4",
          "ticks": 155520,
          "time": 170.52606,
          "velocity": 0.9448818897637795
        },
        {
          "duration": 0.19188567708332016,
          "durationTicks": 175,
          "midi": 68,
          "name": "G#4",
          "ticks": 155520,
          "time": 170.52606,
          "velocity": 0.952755905511811
        },
        {
          "duration": 0.15899098958331592,
          "durationTicks": 145,
          "midi": 72,
          "name": "C5",
          "ticks": 155520,
          "time": 170.52606,
          "velocity": 0.9448818897637795
        },
        {
          "duration": 0.20285057291667385,
          "durationTicks": 185,
          "midi": 73,
          "name": "C#5",
          "ticks": 155520,
          "time": 170.52606,
          "velocity": 0.9291338582677166
        },
        {
          "duration": 0.3892538020833456,
          "durationTicks": 355,
          "midi": 65,
          "name": "F4",
          "ticks": 156000,
          "time": 171.05237499999998,
          "velocity": 0.9212598425196851
        },
        {
          "duration": 0.37280645833334347,
          "durationTicks": 340,
          "midi": 68,
          "name": "G#4",
          "ticks": 156000,
          "time": 171.05237499999998,
          "velocity": 0.8188976377952756
        },
        {
          "duration": 0.38377135416669717,
          "durationTicks": 350,
          "midi": 72,
          "name": "C5",
          "ticks": 156000,
          "time": 171.05237499999998,
          "velocity": 0.8188976377952756
        },
        {
          "duration": 0.38377135416669717,
          "durationTicks": 350,
          "midi": 75,
          "name": "D#5",
          "ticks": 156000,
          "time": 171.05237499999998,
          "velocity": 0.8188976377952756
        },
        {
          "duration": 0.20285057291667385,
          "durationTicks": 185,
          "midi": 75,
          "name": "D#5",
          "ticks": 156480,
          "time": 171.57869,
          "velocity": 0.7874015748031497
        },
        {
          "duration": 0.10964895833330957,
          "durationTicks": 100,
          "midi": 77,
          "name": "F5",
          "ticks": 156720,
          "time": 171.8418475,
          "velocity": 0.7637795275590551
        },
        {
          "duration": 0.12609630208331168,
          "durationTicks": 115,
          "midi": 75,
          "name": "D#5",
          "ticks": 156960,
          "time": 172.105005,
          "velocity": 0.7244094488188977
        },
        {
          "duration": 0.0822367187500106,
          "durationTicks": 75,
          "midi": 70,
          "name": "A#4",
          "ticks": 157200,
          "time": 172.36816249999998,
          "velocity": 0.7401574803149606
        },
        {
          "duration": 0.20833302083332228,
          "durationTicks": 190,
          "midi": 75,
          "name": "D#5",
          "ticks": 157440,
          "time": 172.63132,
          "velocity": 0.7244094488188977
        },
        {
          "duration": 0.1809207812499949,
          "durationTicks": 165,
          "midi": 75,
          "name": "D#5",
          "ticks": 158880,
          "time": 174.210265,
          "velocity": 0.7401574803149606
        },
        {
          "duration": 0.1535085416666675,
          "durationTicks": 140,
          "midi": 77,
          "name": "F5",
          "ticks": 159120,
          "time": 174.4734225,
          "velocity": 0.7874015748031497
        },
        {
          "duration": 0.2576750520833002,
          "durationTicks": 235,
          "midi": 75,
          "name": "D#5",
          "ticks": 159360,
          "time": 174.73658,
          "velocity": 0.7874015748031497
        },
        {
          "duration": 0.14254364583334223,
          "durationTicks": 130,
          "midi": 77,
          "name": "F5",
          "ticks": 159600,
          "time": 174.99973749999998,
          "velocity": 0.7637795275590551
        },
        {
          "duration": 0.2521926041666802,
          "durationTicks": 230,
          "midi": 80,
          "name": "G#5",
          "ticks": 159840,
          "time": 175.262895,
          "velocity": 0.7401574803149606
        },
        {
          "duration": 0.20285057291667385,
          "durationTicks": 185,
          "midi": 77,
          "name": "F5",
          "ticks": 160080,
          "time": 175.5260525,
          "velocity": 0.7559055118110236
        },
        {
          "duration": 0.2521926041666802,
          "durationTicks": 230,
          "midi": 75,
          "name": "D#5",
          "ticks": 160320,
          "time": 175.78921,
          "velocity": 0.7874015748031497
        },
        {
          "duration": 0.1809207812499949,
          "durationTicks": 165,
          "midi": 77,
          "name": "F5",
          "ticks": 160560,
          "time": 176.0523675,
          "velocity": 0.8031496062992126
        },
        {
          "duration": 0.2357452604166781,
          "durationTicks": 215,
          "midi": 75,
          "name": "D#5",
          "ticks": 160800,
          "time": 176.31552499999998,
          "velocity": 0.6456692913385826
        },
        {
          "duration": 0.1370611979166938,
          "durationTicks": 125,
          "midi": 70,
          "name": "A#4",
          "ticks": 161040,
          "time": 176.57868249999999,
          "velocity": 0.6456692913385826
        },
        {
          "duration": 0.564692135416692,
          "durationTicks": 515,
          "midi": 73,
          "name": "C#5",
          "ticks": 161280,
          "time": 176.84184,
          "velocity": 0.6692913385826772
        },
        {
          "duration": 0.10416651041666114,
          "durationTicks": 95,
          "midi": 73,
          "name": "C#5",
          "ticks": 162720,
          "time": 178.420785,
          "velocity": 0.7086614173228346
        },
        {
          "duration": 0.10416651041666114,
          "durationTicks": 95,
          "midi": 77,
          "name": "F5",
          "ticks": 162720,
          "time": 178.420785,
          "velocity": 0.8188976377952756
        },
        {
          "duration": 0.10416651041666114,
          "durationTicks": 95,
          "midi": 85,
          "name": "C#6",
          "ticks": 162720,
          "time": 178.420785,
          "velocity": 0.7244094488188977
        },
        {
          "duration": 0.27412239583330233,
          "durationTicks": 250,
          "midi": 72,
          "name": "C5",
          "ticks": 163200,
          "time": 178.9471,
          "velocity": 0.7322834645669292
        },
        {
          "duration": 0.27412239583330233,
          "durationTicks": 250,
          "midi": 77,
          "name": "F5",
          "ticks": 163200,
          "time": 178.9471,
          "velocity": 0.8503937007874016
        },
        {
          "duration": 0.29056973958330445,
          "durationTicks": 265,
          "midi": 84,
          "name": "C6",
          "ticks": 163200,
          "time": 178.9471,
          "velocity": 0.6692913385826772
        },
        {
          "duration": 0.2905697395833329,
          "durationTicks": 265,
          "midi": 80,
          "name": "G#5",
          "ticks": 163440,
          "time": 179.21025749999998,
          "velocity": 0.7244094488188977
        },
        {
          "duration": 0.09320161458333587,
          "durationTicks": 85,
          "midi": 72,
          "name": "C5",
          "ticks": 163680,
          "time": 179.473415,
          "velocity": 0.6692913385826772
        },
        {
          "duration": 0.07127182291668532,
          "durationTicks": 65,
          "midi": 77,
          "name": "F5",
          "ticks": 163680,
          "time": 179.473415,
          "velocity": 0.7874015748031497
        },
        {
          "duration": 0.27412239583330233,
          "durationTicks": 250,
          "midi": 75,
          "name": "D#5",
          "ticks": 164160,
          "time": 179.99973,
          "velocity": 0.7244094488188977
        },
        {
          "duration": 0.20833302083332228,
          "durationTicks": 190,
          "midi": 77,
          "name": "F5",
          "ticks": 164400,
          "time": 180.2628875,
          "velocity": 0.7795275590551181
        },
        {
          "duration": 0.17543833333334646,
          "durationTicks": 160,
          "midi": 75,
          "name": "D#5",
          "ticks": 164640,
          "time": 180.52604499999998,
          "velocity": 0.7401574803149606
        },
        {
          "duration": 0.10416651041668956,
          "durationTicks": 95,
          "midi": 70,
          "name": "A#4",
          "ticks": 164880,
          "time": 180.7892025,
          "velocity": 0.7086614173228346
        },
        {
          "duration": 0.26863994791668233,
          "durationTicks": 245,
          "midi": 75,
          "name": "D#5",
          "ticks": 165120,
          "time": 181.05236,
          "velocity": 0.6771653543307087
        },
        {
          "duration": 0.2247803645833244,
          "durationTicks": 205,
          "midi": 75,
          "name": "D#5",
          "ticks": 166560,
          "time": 182.631305,
          "velocity": 0.7637795275590551
        },
        {
          "duration": 0.19188567708332016,
          "durationTicks": 175,
          "midi": 77,
          "name": "F5",
          "ticks": 166800,
          "time": 182.8944625,
          "velocity": 0.8661417322834646
        },
        {
          "duration": 0.25767505208332864,
          "durationTicks": 235,
          "midi": 75,
          "name": "D#5",
          "ticks": 167040,
          "time": 183.15761999999998,
          "velocity": 0.7637795275590551
        },
        {
          "duration": 0.23026281250000125,
          "durationTicks": 210,
          "midi": 77,
          "name": "F5",
          "ticks": 167280,
          "time": 183.42077749999999,
          "velocity": 0.8188976377952756
        },
        {
          "duration": 0.26863994791668233,
          "durationTicks": 245,
          "midi": 80,
          "name": "G#5",
          "ticks": 167520,
          "time": 183.683935,
          "velocity": 0.7401574803149606
        },
        {
          "duration": 0.2357452604166781,
          "durationTicks": 215,
          "midi": 77,
          "name": "F5",
          "ticks": 167760,
          "time": 183.9470925,
          "velocity": 0.7874015748031497
        },
        {
          "duration": 0.21929791666667597,
          "durationTicks": 200,
          "midi": 75,
          "name": "D#5",
          "ticks": 168000,
          "time": 184.21025,
          "velocity": 0.6614173228346457
        },
        {
          "duration": 0.20833302083332228,
          "durationTicks": 190,
          "midi": 77,
          "name": "F5",
          "ticks": 168240,
          "time": 184.47340749999998,
          "velocity": 0.8503937007874016
        },
        {
          "duration": 0.17543833333331804,
          "durationTicks": 160,
          "midi": 75,
          "name": "D#5",
          "ticks": 168480,
          "time": 184.73656499999998,
          "velocity": 0.6771653543307087
        },
        {
          "duration": 0.08771916666668744,
          "durationTicks": 80,
          "midi": 73,
          "name": "C#5",
          "ticks": 168720,
          "time": 184.9997225,
          "velocity": 0.8031496062992126
        },
        {
          "duration": 1.0581124479166704,
          "durationTicks": 965,
          "midi": 70,
          "name": "A#4",
          "ticks": 168960,
          "time": 185.26288,
          "velocity": 0.7480314960629921
        },
        {
          "duration": 0.5427623437499847,
          "durationTicks": 495,
          "midi": 61,
          "name": "C#4",
          "ticks": 170400,
          "time": 186.841825,
          "velocity": 0.8031496062992126
        },
        {
          "duration": 0.5208325520833057,
          "durationTicks": 475,
          "midi": 65,
          "name": "F4",
          "ticks": 170400,
          "time": 186.841825,
          "velocity": 0.9212598425196851
        },
        {
          "duration": 0.5263149999999825,
          "durationTicks": 480,
          "midi": 70,
          "name": "A#4",
          "ticks": 170400,
          "time": 186.841825,
          "velocity": 0.7244094488188977
        },
        {
          "duration": 0.21929791666667597,
          "durationTicks": 200,
          "midi": 70,
          "name": "A#4",
          "ticks": 171840,
          "time": 188.42077,
          "velocity": 0.6929133858267716
        },
        {
          "duration": 0.197368124999997,
          "durationTicks": 180,
          "midi": 75,
          "name": "D#5",
          "ticks": 171840,
          "time": 188.42077,
          "velocity": 0.7874015748031497
        },
        {
          "duration": 0.10964895833333799,
          "durationTicks": 100,
          "midi": 73,
          "name": "C#5",
          "ticks": 172080,
          "time": 188.68392749999998,
          "velocity": 0.6929133858267716
        },
        {
          "duration": 0.10964895833333799,
          "durationTicks": 100,
          "midi": 77,
          "name": "F5",
          "ticks": 172080,
          "time": 188.68392749999998,
          "velocity": 0.7637795275590551
        },
        {
          "duration": 0.1260963020833401,
          "durationTicks": 115,
          "midi": 70,
          "name": "A#4",
          "ticks": 172320,
          "time": 188.947085,
          "velocity": 0.6141732283464567
        },
        {
          "duration": 0.1260963020833401,
          "durationTicks": 115,
          "midi": 75,
          "name": "D#5",
          "ticks": 172320,
          "time": 188.947085,
          "velocity": 0.7244094488188977
        },
        {
          "duration": 0.10964895833330957,
          "durationTicks": 100,
          "midi": 65,
          "name": "F4",
          "ticks": 172560,
          "time": 189.2102425,
          "velocity": 0.6929133858267716
        },
        {
          "duration": 0.0822367187500106,
          "durationTicks": 75,
          "midi": 70,
          "name": "A#4",
          "ticks": 172560,
          "time": 189.2102425,
          "velocity": 0.7401574803149606
        },
        {
          "duration": 0.21381546874999913,
          "durationTicks": 195,
          "midi": 65,
          "name": "F4",
          "ticks": 172800,
          "time": 189.4734,
          "velocity": 0.8031496062992126
        },
        {
          "duration": 0.20833302083332228,
          "durationTicks": 190,
          "midi": 70,
          "name": "A#4",
          "ticks": 172800,
          "time": 189.4734,
          "velocity": 0.6614173228346457
        },
        {
          "duration": 0.20833302083332228,
          "durationTicks": 190,
          "midi": 75,
          "name": "D#5",
          "ticks": 172800,
          "time": 189.4734,
          "velocity": 0.7244094488188977
        },
        {
          "duration": 0.11513140624998641,
          "durationTicks": 105,
          "midi": 70,
          "name": "A#4",
          "ticks": 174240,
          "time": 191.052345,
          "velocity": 0.6929133858267716
        },
        {
          "duration": 0.1809207812499949,
          "durationTicks": 165,
          "midi": 75,
          "name": "D#5",
          "ticks": 174240,
          "time": 191.052345,
          "velocity": 0.7401574803149606
        },
        {
          "duration": 0.20833302083332228,
          "durationTicks": 190,
          "midi": 73,
          "name": "C#5",
          "ticks": 174480,
          "time": 191.31550249999998,
          "velocity": 0.8267716535433071
        },
        {
          "duration": 0.15350854166669592,
          "durationTicks": 140,
          "midi": 77,
          "name": "F5",
          "ticks": 174480,
          "time": 191.31550249999998,
          "velocity": 0.7874015748031497
        },
        {
          "duration": 0.2247803645833244,
          "durationTicks": 205,
          "midi": 70,
          "name": "A#4",
          "ticks": 174720,
          "time": 191.57865999999999,
          "velocity": 0.8031496062992126
        },
        {
          "duration": 0.25767505208332864,
          "durationTicks": 235,
          "midi": 75,
          "name": "D#5",
          "ticks": 174720,
          "time": 191.57865999999999,
          "velocity": 0.7874015748031497
        },
        {
          "duration": 0.1809207812499949,
          "durationTicks": 165,
          "midi": 73,
          "name": "C#5",
          "ticks": 174960,
          "time": 191.8418175,
          "velocity": 0.8031496062992126
        },
        {
          "duration": 0.1425436458333138,
          "durationTicks": 130,
          "midi": 77,
          "name": "F5",
          "ticks": 174960,
          "time": 191.8418175,
          "velocity": 0.7637795275590551
        },
        {
          "duration": 0.2521926041666802,
          "durationTicks": 230,
          "midi": 75,
          "name": "D#5",
          "ticks": 175200,
          "time": 192.104975,
          "velocity": 0.7401574803149606
        },
        {
          "duration": 0.2521926041666802,
          "durationTicks": 230,
          "midi": 80,
          "name": "G#5",
          "ticks": 175200,
          "time": 192.104975,
          "velocity": 0.7401574803149606
        },
        {
          "duration": 0.2521926041666802,
          "durationTicks": 230,
          "midi": 73,
          "name": "C#5",
          "ticks": 175440,
          "time": 192.3681325,
          "velocity": 0.7637795275590551
        },
        {
          "duration": 0.20285057291667385,
          "durationTicks": 185,
          "midi": 77,
          "name": "F5",
          "ticks": 175440,
          "time": 192.3681325,
          "velocity": 0.7559055118110236
        },
        {
          "duration": 0.24671015625000337,
          "durationTicks": 225,
          "midi": 70,
          "name": "A#4",
          "ticks": 175680,
          "time": 192.63128999999998,
          "velocity": 0.7637795275590551
        },
        {
          "duration": 0.2521926041666802,
          "durationTicks": 230,
          "midi": 75,
          "name": "D#5",
          "ticks": 175680,
          "time": 192.63128999999998,
          "velocity": 0.7874015748031497
        },
        {
          "duration": 0.1370611979166938,
          "durationTicks": 125,
          "midi": 72,
          "name": "C5",
          "ticks": 175920,
          "time": 192.89444749999998,
          "velocity": 0.6456692913385826
        },
        {
          "duration": 0.1809207812499949,
          "durationTicks": 165,
          "midi": 77,
          "name": "F5",
          "ticks": 175920,
          "time": 192.89444749999998,
          "velocity": 0.8031496062992126
        },
        {
          "duration": 0.24671015625000337,
          "durationTicks": 225,
          "midi": 70,
          "name": "A#4",
          "ticks": 176160,
          "time": 193.157605,
          "velocity": 0.7637795275590551
        },
        {
          "duration": 0.2357452604166781,
          "durationTicks": 215,
          "midi": 75,
          "name": "D#5",
          "ticks": 176160,
          "time": 193.157605,
          "velocity": 0.6456692913385826
        },
        {
          "duration": 0.13706119791666538,
          "durationTicks": 125,
          "midi": 65,
          "name": "F4",
          "ticks": 176400,
          "time": 193.4207625,
          "velocity": 0.6456692913385826
        },
        {
          "duration": 0.13706119791666538,
          "durationTicks": 125,
          "midi": 70,
          "name": "A#4",
          "ticks": 176400,
          "time": 193.4207625,
          "velocity": 0.6456692913385826
        },
        {
          "duration": 0.5043852083333036,
          "durationTicks": 460,
          "midi": 68,
          "name": "G#4",
          "ticks": 176640,
          "time": 193.68392,
          "velocity": 0.7795275590551181
        },
        {
          "duration": 0.5646921354166636,
          "durationTicks": 515,
          "midi": 73,
          "name": "C#5",
          "ticks": 176640,
          "time": 193.68392,
          "velocity": 0.7480314960629921
        },
        {
          "duration": 0.10416651041666114,
          "durationTicks": 95,
          "midi": 73,
          "name": "C#5",
          "ticks": 178080,
          "time": 195.262865,
          "velocity": 0.7086614173228346
        },
        {
          "duration": 0.10416651041666114,
          "durationTicks": 95,
          "midi": 77,
          "name": "F5",
          "ticks": 178080,
          "time": 195.262865,
          "velocity": 0.8188976377952756
        },
        {
          "duration": 0.10416651041666114,
          "durationTicks": 95,
          "midi": 85,
          "name": "C#6",
          "ticks": 178080,
          "time": 195.262865,
          "velocity": 0.7244094488188977
        },
        {
          "duration": 0.27412239583333076,
          "durationTicks": 250,
          "midi": 72,
          "name": "C5",
          "ticks": 178560,
          "time": 195.78918,
          "velocity": 0.7322834645669292
        },
        {
          "duration": 0.27412239583333076,
          "durationTicks": 250,
          "midi": 77,
          "name": "F5",
          "ticks": 178560,
          "time": 195.78918,
          "velocity": 0.8503937007874016
        },
        {
          "duration": 0.2905697395833329,
          "durationTicks": 265,
          "midi": 84,
          "name": "C6",
          "ticks": 178560,
          "time": 195.78918,
          "velocity": 0.6692913385826772
        },
        {
          "duration": 0.2905697395833329,
          "durationTicks": 265,
          "midi": 80,
          "name": "G#5",
          "ticks": 178800,
          "time": 196.0523375,
          "velocity": 0.7244094488188977
        },
        {
          "duration": 0.09320161458330745,
          "durationTicks": 85,
          "midi": 72,
          "name": "C5",
          "ticks": 179040,
          "time": 196.315495,
          "velocity": 0.6692913385826772
        },
        {
          "duration": 0.0712718229166569,
          "durationTicks": 65,
          "midi": 77,
          "name": "F5",
          "ticks": 179040,
          "time": 196.315495,
          "velocity": 0.7874015748031497
        },
        {
          "duration": 0.28508729166668445,
          "durationTicks": 260,
          "midi": 70,
          "name": "A#4",
          "ticks": 179520,
          "time": 196.84180999999998,
          "velocity": 0.7874015748031497
        },
        {
          "duration": 0.27412239583333076,
          "durationTicks": 250,
          "midi": 75,
          "name": "D#5",
          "ticks": 179520,
          "time": 196.84180999999998,
          "velocity": 0.7244094488188977
        },
        {
          "duration": 0.21929791666667597,
          "durationTicks": 200,
          "midi": 72,
          "name": "C5",
          "ticks": 179760,
          "time": 197.1049675,
          "velocity": 0.7086614173228346
        },
        {
          "duration": 0.20833302083332228,
          "durationTicks": 190,
          "midi": 77,
          "name": "F5",
          "ticks": 179760,
          "time": 197.1049675,
          "velocity": 0.7795275590551181
        },
        {
          "duration": 0.09320161458333587,
          "durationTicks": 85,
          "midi": 70,
          "name": "A#4",
          "ticks": 180000,
          "time": 197.368125,
          "velocity": 0.7874015748031497
        },
        {
          "duration": 0.17543833333331804,
          "durationTicks": 160,
          "midi": 75,
          "name": "D#5",
          "ticks": 180000,
          "time": 197.368125,
          "velocity": 0.7401574803149606
        },
        {
          "duration": 0.09320161458330745,
          "durationTicks": 85,
          "midi": 65,
          "name": "F4",
          "ticks": 180240,
          "time": 197.6312825,
          "velocity": 0.7086614173228346
        },
        {
          "duration": 0.10416651041666114,
          "durationTicks": 95,
          "midi": 70,
          "name": "A#4",
          "ticks": 180240,
          "time": 197.6312825,
          "velocity": 0.7086614173228346
        },
        {
          "duration": 0.2796048437499792,
          "durationTicks": 255,
          "midi": 70,
          "name": "A#4",
          "ticks": 180480,
          "time": 197.89444,
          "velocity": 0.7401574803149606
        },
        {
          "duration": 0.2686399479166539,
          "durationTicks": 245,
          "midi": 75,
          "name": "D#5",
          "ticks": 180480,
          "time": 197.89444,
          "velocity": 0.6771653543307087
        },
        {
          "duration": 0.14802609375001907,
          "durationTicks": 135,
          "midi": 70,
          "name": "A#4",
          "ticks": 181920,
          "time": 199.47338499999998,
          "velocity": 0.7086614173228346
        },
        {
          "duration": 0.2247803645833244,
          "durationTicks": 205,
          "midi": 75,
          "name": "D#5",
          "ticks": 181920,
          "time": 199.47338499999998,
          "velocity": 0.7637795275590551
        },
        {
          "duration": 0.2247803645833244,
          "durationTicks": 205,
          "midi": 73,
          "name": "C#5",
          "ticks": 182160,
          "time": 199.73654249999998,
          "velocity": 0.8267716535433071
        },
        {
          "duration": 0.19188567708332016,
          "durationTicks": 175,
          "midi": 77,
          "name": "F5",
          "ticks": 182160,
          "time": 199.73654249999998,
          "velocity": 0.8661417322834646
        },
        {
          "duration": 0.20833302083332228,
          "durationTicks": 190,
          "midi": 70,
          "name": "A#4",
          "ticks": 182400,
          "time": 199.9997,
          "velocity": 0.7637795275590551
        },
        {
          "duration": 0.25767505208332864,
          "durationTicks": 235,
          "midi": 75,
          "name": "D#5",
          "ticks": 182400,
          "time": 199.9997,
          "velocity": 0.7637795275590551
        },
        {
          "duration": 0.2357452604166781,
          "durationTicks": 215,
          "midi": 73,
          "name": "C#5",
          "ticks": 182640,
          "time": 200.2628575,
          "velocity": 0.8267716535433071
        },
        {
          "duration": 0.23026281250000125,
          "durationTicks": 210,
          "midi": 77,
          "name": "F5",
          "ticks": 182640,
          "time": 200.2628575,
          "velocity": 0.8188976377952756
        },
        {
          "duration": 0.2576750520833002,
          "durationTicks": 235,
          "midi": 75,
          "name": "D#5",
          "ticks": 182880,
          "time": 200.526015,
          "velocity": 0.6929133858267716
        },
        {
          "duration": 0.2686399479166539,
          "durationTicks": 245,
          "midi": 80,
          "name": "G#5",
          "ticks": 182880,
          "time": 200.526015,
          "velocity": 0.7401574803149606
        },
        {
          "duration": 0.2631575000000055,
          "durationTicks": 240,
          "midi": 73,
          "name": "C#5",
          "ticks": 183120,
          "time": 200.78917249999998,
          "velocity": 0.8267716535433071
        },
        {
          "duration": 0.2357452604166781,
          "durationTicks": 215,
          "midi": 77,
          "name": "F5",
          "ticks": 183120,
          "time": 200.78917249999998,
          "velocity": 0.7874015748031497
        },
        {
          "duration": 0.24671015625000337,
          "durationTicks": 225,
          "midi": 70,
          "name": "A#4",
          "ticks": 183360,
          "time": 201.05232999999998,
          "velocity": 0.6929133858267716
        },
        {
          "duration": 0.21929791666667597,
          "durationTicks": 200,
          "midi": 75,
          "name": "D#5",
          "ticks": 183360,
          "time": 201.05232999999998,
          "velocity": 0.6614173228346457
        },
        {
          "duration": 0.197368124999997,
          "durationTicks": 180,
          "midi": 72,
          "name": "C5",
          "ticks": 183600,
          "time": 201.3154875,
          "velocity": 0.5669291338582677
        },
        {
          "duration": 0.20833302083332228,
          "durationTicks": 190,
          "midi": 77,
          "name": "F5",
          "ticks": 183600,
          "time": 201.3154875,
          "velocity": 0.8503937007874016
        },
        {
          "duration": 0.24671015625000337,
          "durationTicks": 225,
          "midi": 70,
          "name": "A#4",
          "ticks": 183840,
          "time": 201.578645,
          "velocity": 0.6929133858267716
        },
        {
          "duration": 0.17543833333331804,
          "durationTicks": 160,
          "midi": 75,
          "name": "D#5",
          "ticks": 183840,
          "time": 201.578645,
          "velocity": 0.6771653543307087
        },
        {
          "duration": 0.10416651041666114,
          "durationTicks": 95,
          "midi": 68,
          "name": "G#4",
          "ticks": 184080,
          "time": 201.8418025,
          "velocity": 0.4881889763779528
        },
        {
          "duration": 0.08771916666665902,
          "durationTicks": 80,
          "midi": 73,
          "name": "C#5",
          "ticks": 184080,
          "time": 201.8418025,
          "velocity": 0.8031496062992126
        },
        {
          "duration": 1.0581124479166704,
          "durationTicks": 965,
          "midi": 65,
          "name": "F4",
          "ticks": 184320,
          "time": 202.10496,
          "velocity": 0.7086614173228346
        },
        {
          "duration": 1.0581124479166704,
          "durationTicks": 965,
          "midi": 70,
          "name": "A#4",
          "ticks": 184320,
          "time": 202.10496,
          "velocity": 0.7480314960629921
        },
        {
          "duration": 0.4002186979166993,
          "durationTicks": 365,
          "midi": 60,
          "name": "C4",
          "ticks": 185760,
          "time": 203.68390499999998,
          "velocity": 0.7244094488188977
        },
        {
          "duration": 0.3782889062500203,
          "durationTicks": 345,
          "midi": 65,
          "name": "F4",
          "ticks": 185760,
          "time": 203.68390499999998,
          "velocity": 0.84251968503937
        },
        {
          "duration": 0.38377135416669717,
          "durationTicks": 350,
          "midi": 72,
          "name": "C5",
          "ticks": 185760,
          "time": 203.68390499999998,
          "velocity": 0.6456692913385826
        },
        {
          "duration": 0.09868406250001271,
          "durationTicks": 90,
          "midi": 61,
          "name": "C#4",
          "ticks": 186240,
          "time": 204.21022,
          "velocity": 0.7244094488188977
        },
        {
          "duration": 0.11513140624998641,
          "durationTicks": 105,
          "midi": 65,
          "name": "F4",
          "ticks": 186240,
          "time": 204.21022,
          "velocity": 0.8346456692913385
        },
        {
          "duration": 0.12061385416666326,
          "durationTicks": 110,
          "midi": 68,
          "name": "G#4",
          "ticks": 186240,
          "time": 204.21022,
          "velocity": 0.7637795275590551
        },
        {
          "duration": 0.11513140624998641,
          "durationTicks": 105,
          "midi": 73,
          "name": "C#5",
          "ticks": 186240,
          "time": 204.21022,
          "velocity": 0.8346456692913385
        },
        {
          "duration": 0.12061385416666326,
          "durationTicks": 110,
          "midi": 63,
          "name": "D#4",
          "ticks": 186720,
          "time": 204.736535,
          "velocity": 0.7637795275590551
        },
        {
          "duration": 0.09868406249998429,
          "durationTicks": 90,
          "midi": 75,
          "name": "D#5",
          "ticks": 186720,
          "time": 204.736535,
          "velocity": 0.8031496062992126
        },
        {
          "duration": 0.2631575000000055,
          "durationTicks": 240,
          "midi": 70,
          "name": "A#4",
          "ticks": 187200,
          "time": 205.26285,
          "velocity": 0.7086614173228346
        },
        {
          "duration": 0.2796048437500076,
          "durationTicks": 255,
          "midi": 75,
          "name": "D#5",
          "ticks": 187200,
          "time": 205.26285,
          "velocity": 0.7874015748031497
        },
        {
          "duration": 0.09868406250001271,
          "durationTicks": 90,
          "midi": 72,
          "name": "C5",
          "ticks": 187440,
          "time": 205.5260075,
          "velocity": 0.7480314960629921
        },
        {
          "duration": 0.14802609374999065,
          "durationTicks": 135,
          "midi": 77,
          "name": "F5",
          "ticks": 187440,
          "time": 205.5260075,
          "velocity": 0.8503937007874016
        },
        {
          "duration": 0.08771916666665902,
          "durationTicks": 80,
          "midi": 70,
          "name": "A#4",
          "ticks": 187680,
          "time": 205.789165,
          "velocity": 0.7086614173228346
        },
        {
          "duration": 0.12061385416666326,
          "durationTicks": 110,
          "midi": 75,
          "name": "D#5",
          "ticks": 187680,
          "time": 205.789165,
          "velocity": 0.6929133858267716
        },
        {
          "duration": 0.10416651041666114,
          "durationTicks": 95,
          "midi": 65,
          "name": "F4",
          "ticks": 187920,
          "time": 206.0523225,
          "velocity": 0.5905511811023622
        },
        {
          "duration": 0.08771916666665902,
          "durationTicks": 80,
          "midi": 70,
          "name": "A#4",
          "ticks": 187920,
          "time": 206.0523225,
          "velocity": 0.7086614173228346
        },
        {
          "duration": 0.24671015625000337,
          "durationTicks": 225,
          "midi": 70,
          "name": "A#4",
          "ticks": 188160,
          "time": 206.31547999999998,
          "velocity": 0.7716535433070866
        },
        {
          "duration": 0.23026281250000125,
          "durationTicks": 210,
          "midi": 75,
          "name": "D#5",
          "ticks": 188160,
          "time": 206.31547999999998,
          "velocity": 0.8818897637795275
        },
        {
          "duration": 0.17543833333331804,
          "durationTicks": 160,
          "midi": 70,
          "name": "A#4",
          "ticks": 189600,
          "time": 207.89442499999998,
          "velocity": 0.7401574803149606
        },
        {
          "duration": 0.2357452604166781,
          "durationTicks": 215,
          "midi": 75,
          "name": "D#5",
          "ticks": 189600,
          "time": 207.89442499999998,
          "velocity": 0.7874015748031497
        },
        {
          "duration": 0.24671015625000337,
          "durationTicks": 225,
          "midi": 73,
          "name": "C#5",
          "ticks": 189840,
          "time": 208.1575825,
          "velocity": 0.8267716535433071
        },
        {
          "duration": 0.21381546874999913,
          "durationTicks": 195,
          "midi": 77,
          "name": "F5",
          "ticks": 189840,
          "time": 208.1575825,
          "velocity": 0.8661417322834646
        },
        {
          "duration": 0.21929791666667597,
          "durationTicks": 200,
          "midi": 70,
          "name": "A#4",
          "ticks": 190080,
          "time": 208.42074,
          "velocity": 0.8031496062992126
        },
        {
          "duration": 0.24122770833332652,
          "durationTicks": 220,
          "midi": 75,
          "name": "D#5",
          "ticks": 190080,
          "time": 208.42074,
          "velocity": 0.7874015748031497
        },
        {
          "duration": 0.21929791666667597,
          "durationTicks": 200,
          "midi": 73,
          "name": "C#5",
          "ticks": 190320,
          "time": 208.6838975,
          "velocity": 0.7874015748031497
        },
        {
          "duration": 0.21381546874999913,
          "durationTicks": 195,
          "midi": 77,
          "name": "F5",
          "ticks": 190320,
          "time": 208.6838975,
          "velocity": 0.8188976377952756
        },
        {
          "duration": 0.2631575000000055,
          "durationTicks": 240,
          "midi": 75,
          "name": "D#5",
          "ticks": 190560,
          "time": 208.94705499999998,
          "velocity": 0.7401574803149606
        },
        {
          "duration": 0.27412239583333076,
          "durationTicks": 250,
          "midi": 80,
          "name": "G#5",
          "ticks": 190560,
          "time": 208.94705499999998,
          "velocity": 0.7401574803149606
        },
        {
          "duration": 0.30153463541668657,
          "durationTicks": 275,
          "midi": 73,
          "name": "C#5",
          "ticks": 190800,
          "time": 209.21021249999998,
          "velocity": 0.8267716535433071
        },
        {
          "duration": 0.24671015625000337,
          "durationTicks": 225,
          "midi": 77,
          "name": "F5",
          "ticks": 190800,
          "time": 209.21021249999998,
          "velocity": 0.7874015748031497
        },
        {
          "duration": 0.27412239583333076,
          "durationTicks": 250,
          "midi": 70,
          "name": "A#4",
          "ticks": 191040,
          "time": 209.47337,
          "velocity": 0.7086614173228346
        },
        {
          "duration": 0.24122770833332652,
          "durationTicks": 220,
          "midi": 75,
          "name": "D#5",
          "ticks": 191040,
          "time": 209.47337,
          "velocity": 0.7401574803149606
        },
        {
          "duration": 0.27412239583333076,
          "durationTicks": 250,
          "midi": 72,
          "name": "C5",
          "ticks": 191280,
          "time": 209.7365275,
          "velocity": 0.7086614173228346
        },
        {
          "duration": 0.24122770833332652,
          "durationTicks": 220,
          "midi": 77,
          "name": "F5",
          "ticks": 191280,
          "time": 209.7365275,
          "velocity": 0.8818897637795275
        },
        {
          "duration": 0.13157874999998853,
          "durationTicks": 120,
          "midi": 70,
          "name": "A#4",
          "ticks": 191520,
          "time": 209.999685,
          "velocity": 0.7637795275590551
        },
        {
          "duration": 0.21929791666667597,
          "durationTicks": 200,
          "midi": 75,
          "name": "D#5",
          "ticks": 191520,
          "time": 209.999685,
          "velocity": 0.7637795275590551
        },
        {
          "duration": 0.12609630208331168,
          "durationTicks": 115,
          "midi": 65,
          "name": "F4",
          "ticks": 191760,
          "time": 210.2628425,
          "velocity": 0.6850393700787402
        },
        {
          "duration": 0.12609630208331168,
          "durationTicks": 115,
          "midi": 70,
          "name": "A#4",
          "ticks": 191760,
          "time": 210.2628425,
          "velocity": 0.7637795275590551
        },
        {
          "duration": 0.7730251562500143,
          "durationTicks": 705,
          "midi": 68,
          "name": "G#4",
          "ticks": 192000,
          "time": 210.52599999999998,
          "velocity": 0.7244094488188977
        },
        {
          "duration": 0.8223671875000207,
          "durationTicks": 750,
          "midi": 73,
          "name": "C#5",
          "ticks": 192000,
          "time": 210.52599999999998,
          "velocity": 0.7559055118110236
        },
        {
          "duration": 0.1425436458333138,
          "durationTicks": 130,
          "midi": 73,
          "name": "C#5",
          "ticks": 193440,
          "time": 212.104945,
          "velocity": 0.7086614173228346
        },
        {
          "duration": 0.13157875000001695,
          "durationTicks": 120,
          "midi": 77,
          "name": "F5",
          "ticks": 193440,
          "time": 212.104945,
          "velocity": 0.8188976377952756
        },
        {
          "duration": 0.1425436458333138,
          "durationTicks": 130,
          "midi": 85,
          "name": "C#6",
          "ticks": 193440,
          "time": 212.104945,
          "velocity": 0.7401574803149606
        },
        {
          "duration": 0.26863994791668233,
          "durationTicks": 245,
          "midi": 72,
          "name": "C5",
          "ticks": 193920,
          "time": 212.63126,
          "velocity": 0.6220472440944882
        },
        {
          "duration": 0.2357452604166781,
          "durationTicks": 215,
          "midi": 77,
          "name": "F5",
          "ticks": 193920,
          "time": 212.63126,
          "velocity": 0.8031496062992126
        },
        {
          "duration": 0.29056973958330445,
          "durationTicks": 265,
          "midi": 84,
          "name": "C6",
          "ticks": 193920,
          "time": 212.63126,
          "velocity": 0.6456692913385826
        },
        {
          "duration": 0.3070170833333066,
          "durationTicks": 280,
          "midi": 80,
          "name": "G#5",
          "ticks": 194160,
          "time": 212.8944175,
          "velocity": 0.6771653543307087
        },
        {
          "duration": 0.11513140625001483,
          "durationTicks": 105,
          "midi": 72,
          "name": "C5",
          "ticks": 194400,
          "time": 213.15757499999998,
          "velocity": 0.6299212598425197
        },
        {
          "duration": 0.12061385416669168,
          "durationTicks": 110,
          "midi": 77,
          "name": "F5",
          "ticks": 194400,
          "time": 213.15757499999998,
          "velocity": 0.84251968503937
        },
        {
          "duration": 0.27412239583333076,
          "durationTicks": 250,
          "midi": 75,
          "name": "D#5",
          "ticks": 194880,
          "time": 213.68389,
          "velocity": 0.6771653543307087
        },
        {
          "duration": 0.19188567708332016,
          "durationTicks": 175,
          "midi": 77,
          "name": "F5",
          "ticks": 195120,
          "time": 213.9470475,
          "velocity": 0.8031496062992126
        },
        {
          "duration": 0.13706119791666538,
          "durationTicks": 125,
          "midi": 75,
          "name": "D#5",
          "ticks": 195360,
          "time": 214.210205,
          "velocity": 0.6614173228346457
        },
        {
          "duration": 0.10416651041668956,
          "durationTicks": 95,
          "midi": 70,
          "name": "A#4",
          "ticks": 195600,
          "time": 214.47336249999998,
          "velocity": 0.6456692913385826
        },
        {
          "duration": 0.5537272395833384,
          "durationTicks": 505,
          "midi": 75,
          "name": "D#5",
          "ticks": 195840,
          "time": 214.73651999999998,
          "velocity": 0.7637795275590551
        },
        {
          "duration": 0.2247803645833244,
          "durationTicks": 205,
          "midi": 75,
          "name": "D#5",
          "ticks": 197280,
          "time": 216.315465,
          "velocity": 0.6141732283464567
        },
        {
          "duration": 0.20833302083332228,
          "durationTicks": 190,
          "midi": 77,
          "name": "F5",
          "ticks": 197520,
          "time": 216.5786225,
          "velocity": 0.8188976377952756
        },
        {
          "duration": 0.24122770833332652,
          "durationTicks": 220,
          "midi": 75,
          "name": "D#5",
          "ticks": 197760,
          "time": 216.84178,
          "velocity": 0.7637795275590551
        },
        {
          "duration": 0.24671015625000337,
          "durationTicks": 225,
          "midi": 77,
          "name": "F5",
          "ticks": 198000,
          "time": 217.10493749999998,
          "velocity": 0.7637795275590551
        },
        {
          "duration": 0.2521926041666802,
          "durationTicks": 230,
          "midi": 80,
          "name": "G#5",
          "ticks": 198240,
          "time": 217.36809499999998,
          "velocity": 0.6062992125984252
        },
        {
          "duration": 0.2357452604166781,
          "durationTicks": 215,
          "midi": 77,
          "name": "F5",
          "ticks": 198480,
          "time": 217.6312525,
          "velocity": 0.8188976377952756
        },
        {
          "duration": 0.24671015625000337,
          "durationTicks": 225,
          "midi": 75,
          "name": "D#5",
          "ticks": 198720,
          "time": 217.89441,
          "velocity": 0.7874015748031497
        },
        {
          "duration": 0.21381546874999913,
          "durationTicks": 195,
          "midi": 77,
          "name": "F5",
          "ticks": 198960,
          "time": 218.1575675,
          "velocity": 0.8031496062992126
        },
        {
          "duration": 0.16995588541666962,
          "durationTicks": 155,
          "midi": 75,
          "name": "D#5",
          "ticks": 199200,
          "time": 218.420725,
          "velocity": 0.6456692913385826
        },
        {
          "duration": 0.06578937500000848,
          "durationTicks": 60,
          "midi": 73,
          "name": "C#5",
          "ticks": 199440,
          "time": 218.68388249999998,
          "velocity": 0.6062992125984252
        },
        {
          "duration": 0.723683125000008,
          "durationTicks": 660,
          "midi": 70,
          "name": "A#4",
          "ticks": 199680,
          "time": 218.94704,
          "velocity": 0.7874015748031497
        },
        {
          "duration": 0.04385958333330109,
          "durationTicks": 40,
          "midi": 73,
          "name": "C#5",
          "ticks": 200400,
          "time": 219.7365125,
          "velocity": 0.7244094488188977
        },
        {
          "duration": 0.6304815104167005,
          "durationTicks": 575,
          "midi": 70,
          "name": "A#4",
          "ticks": 200640,
          "time": 219.99966999999998,
          "velocity": 0.5511811023622047
        },
        {
          "duration": 0.054824479166683204,
          "durationTicks": 50,
          "midi": 68,
          "name": "G#4",
          "ticks": 201360,
          "time": 220.7891425,
          "velocity": 0.5905511811023622
        },
        {
          "duration": 0.15899098958331592,
          "durationTicks": 145,
          "midi": 68,
          "name": "G#4",
          "ticks": 201600,
          "time": 221.0523,
          "velocity": 0.6141732283464567
        },
        {
          "duration": 0.08771916666668744,
          "durationTicks": 80,
          "midi": 65,
          "name": "F4",
          "ticks": 202080,
          "time": 221.57861499999999,
          "velocity": 0.9448818897637795
        },
        {
          "duration": 0.06578937500000848,
          "durationTicks": 60,
          "midi": 63,
          "name": "D#4",
          "ticks": 202320,
          "time": 221.8417725,
          "velocity": 0.968503937007874
        },
        {
          "duration": 0.1425436458333138,
          "durationTicks": 130,
          "midi": 58,
          "name": "A#3",
          "ticks": 202560,
          "time": 222.10493,
          "velocity": 0.937007874015748
        },
        {
          "duration": 0.1425436458333138,
          "durationTicks": 130,
          "midi": 61,
          "name": "C#4",
          "ticks": 202560,
          "time": 222.10493,
          "velocity": 0.8818897637795275
        },
        {
          "duration": 0.1425436458333138,
          "durationTicks": 130,
          "midi": 63,
          "name": "D#4",
          "ticks": 202560,
          "time": 222.10493,
          "velocity": 0.8582677165354331
        },
        {
          "duration": 0.16447343749999277,
          "durationTicks": 150,
          "midi": 65,
          "name": "F4",
          "ticks": 202560,
          "time": 222.10493,
          "velocity": 0.9212598425196851
        },
        {
          "duration": 0.10416651041666114,
          "durationTicks": 95,
          "midi": 65,
          "name": "F4",
          "ticks": 207360,
          "time": 227.36808,
          "velocity": 0.6062992125984252
        },
        {
          "duration": 0.12061385416666326,
          "durationTicks": 110,
          "midi": 70,
          "name": "A#4",
          "ticks": 207360,
          "time": 227.36808,
          "velocity": 0.5669291338582677
        },
        {
          "duration": 0.09320161458330745,
          "durationTicks": 85,
          "midi": 77,
          "name": "F5",
          "ticks": 207600,
          "time": 227.6312375,
          "velocity": 0.7795275590551181
        },
        {
          "duration": 1.5241205208333213,
          "durationTicks": 1390,
          "midi": 65,
          "name": "F4",
          "ticks": 209040,
          "time": 229.2101825,
          "velocity": 0.7165354330708661
        },
        {
          "duration": 1.535085416666675,
          "durationTicks": 1400,
          "midi": 70,
          "name": "A#4",
          "ticks": 209040,
          "time": 229.2101825,
          "velocity": 0.7244094488188977
        },
        {
          "duration": 1.0800422395833493,
          "durationTicks": 985,
          "midi": 65,
          "name": "F4",
          "ticks": 210480,
          "time": 230.78912749999998,
          "velocity": 0.7480314960629921
        },
        {
          "duration": 1.1019720312499999,
          "durationTicks": 1005,
          "midi": 72,
          "name": "C5",
          "ticks": 210480,
          "time": 230.78912749999998,
          "velocity": 0.8031496062992126
        },
        {
          "duration": 0.1260963020833401,
          "durationTicks": 115,
          "midi": 75,
          "name": "D#5",
          "ticks": 211680,
          "time": 232.10491499999998,
          "velocity": 0.47244094488188976
        },
        {
          "duration": 0.09320161458333587,
          "durationTicks": 85,
          "midi": 72,
          "name": "C5",
          "ticks": 211920,
          "time": 232.36807249999998,
          "velocity": 0.7244094488188977
        },
        {
          "duration": 0.09868406250001271,
          "durationTicks": 90,
          "midi": 73,
          "name": "C#5",
          "ticks": 211920,
          "time": 232.36807249999998,
          "velocity": 0.6062992125984252
        },
        {
          "duration": 0.1260963020833401,
          "durationTicks": 115,
          "midi": 74,
          "name": "D5",
          "ticks": 211920,
          "time": 232.36807249999998,
          "velocity": 0.4409448818897638
        },
        {
          "duration": 0.07675427083333375,
          "durationTicks": 70,
          "midi": 65,
          "name": "F4",
          "ticks": 212880,
          "time": 233.42070249999998,
          "velocity": 0.84251968503937
        },
        {
          "duration": 0.16447343749999277,
          "durationTicks": 150,
          "midi": 77,
          "name": "F5",
          "ticks": 213840,
          "time": 234.4733325,
          "velocity": 0.5905511811023622
        },
        {
          "duration": 0.06030692708330321,
          "durationTicks": 55,
          "midi": 89,
          "name": "F6",
          "ticks": 213840,
          "time": 234.4733325,
          "velocity": 0.47244094488188976
        },
        {
          "duration": 0.12609630208331168,
          "durationTicks": 115,
          "midi": 77,
          "name": "F5",
          "ticks": 214080,
          "time": 234.73649,
          "velocity": 0.15748031496062992
        },
        {
          "duration": 0.038377135416681085,
          "durationTicks": 35,
          "midi": 77,
          "name": "F5",
          "ticks": 214320,
          "time": 234.99964749999998,
          "velocity": 0.33858267716535434
        },
        {
          "duration": 0.03289468750000424,
          "durationTicks": 30,
          "midi": 77,
          "name": "F5",
          "ticks": 214560,
          "time": 235.262805,
          "velocity": 0.4015748031496063
        },
        {
          "duration": 0.03289468750000424,
          "durationTicks": 30,
          "midi": 89,
          "name": "F6",
          "ticks": 214560,
          "time": 235.262805,
          "velocity": 0.5511811023622047
        },
        {
          "duration": 0.038377135416681085,
          "durationTicks": 35,
          "midi": 89,
          "name": "F6",
          "ticks": 214560,
          "time": 235.262805,
          "velocity": 0.5196850393700787
        },
        {
          "duration": 0.054824479166683204,
          "durationTicks": 50,
          "midi": 89,
          "name": "F6",
          "ticks": 214560,
          "time": 235.262805,
          "velocity": 0.7165354330708661
        },
        {
          "duration": 0.021929791666678966,
          "durationTicks": 20,
          "midi": 77,
          "name": "F5",
          "ticks": 214800,
          "time": 235.5259625,
          "velocity": 0.5511811023622047
        },
        {
          "duration": 0.04385958333332951,
          "durationTicks": 40,
          "midi": 77,
          "name": "F5",
          "ticks": 214800,
          "time": 235.5259625,
          "velocity": 0.3858267716535433
        },
        {
          "duration": 0.04385958333332951,
          "durationTicks": 40,
          "midi": 77,
          "name": "F5",
          "ticks": 214800,
          "time": 235.5259625,
          "velocity": 0.6535433070866141
        },
        {
          "duration": 0.021929791666678966,
          "durationTicks": 20,
          "midi": 89,
          "name": "F6",
          "ticks": 214800,
          "time": 235.5259625,
          "velocity": 0.5905511811023622
        },
        {
          "duration": 0.02741223958332739,
          "durationTicks": 25,
          "midi": 89,
          "name": "F6",
          "ticks": 214800,
          "time": 235.5259625,
          "velocity": 0.7244094488188977
        },
        {
          "duration": 0.04385958333332951,
          "durationTicks": 40,
          "midi": 89,
          "name": "F6",
          "ticks": 214800,
          "time": 235.5259625,
          "velocity": 0.6299212598425197
        },
        {
          "duration": 0.03289468750000424,
          "durationTicks": 30,
          "midi": 77,
          "name": "F5",
          "ticks": 215040,
          "time": 235.78912,
          "velocity": 0.5354330708661418
        },
        {
          "duration": 0.038377135416681085,
          "durationTicks": 35,
          "midi": 77,
          "name": "F5",
          "ticks": 215040,
          "time": 235.78912,
          "velocity": 0.6535433070866141
        },
        {
          "duration": 0.04934203125000636,
          "durationTicks": 45,
          "midi": 77,
          "name": "F5",
          "ticks": 215040,
          "time": 235.78912,
          "velocity": 0.7007874015748031
        },
        {
          "duration": 0.038377135416681085,
          "durationTicks": 35,
          "midi": 89,
          "name": "F6",
          "ticks": 215040,
          "time": 235.78912,
          "velocity": 0.7244094488188977
        },
        {
          "duration": 0.04385958333332951,
          "durationTicks": 40,
          "midi": 89,
          "name": "F6",
          "ticks": 215040,
          "time": 235.78912,
          "velocity": 0.6692913385826772
        },
        {
          "duration": 0.038377135416652663,
          "durationTicks": 35,
          "midi": 77,
          "name": "F5",
          "ticks": 215280,
          "time": 236.0522775,
          "velocity": 0.6535433070866141
        },
        {
          "duration": 0.04385958333330109,
          "durationTicks": 40,
          "midi": 77,
          "name": "F5",
          "ticks": 215280,
          "time": 236.0522775,
          "velocity": 0.7244094488188977
        },
        {
          "duration": 0.04385958333330109,
          "durationTicks": 40,
          "midi": 77,
          "name": "F5",
          "ticks": 215280,
          "time": 236.0522775,
          "velocity": 0.7244094488188977
        },
        {
          "duration": 0.02741223958329897,
          "durationTicks": 25,
          "midi": 89,
          "name": "F6",
          "ticks": 215280,
          "time": 236.0522775,
          "velocity": 0.6456692913385826
        },
        {
          "duration": 0.03289468749997582,
          "durationTicks": 30,
          "midi": 89,
          "name": "F6",
          "ticks": 215280,
          "time": 236.0522775,
          "velocity": 0.6535433070866141
        },
        {
          "duration": 0.03289468749997582,
          "durationTicks": 30,
          "midi": 89,
          "name": "F6",
          "ticks": 215280,
          "time": 236.0522775,
          "velocity": 0.5826771653543307
        },
        {
          "duration": 0.038377135416681085,
          "durationTicks": 35,
          "midi": 77,
          "name": "F5",
          "ticks": 215520,
          "time": 236.31543499999998,
          "velocity": 0.6929133858267716
        },
        {
          "duration": 0.04934203125000636,
          "durationTicks": 45,
          "midi": 77,
          "name": "F5",
          "ticks": 215520,
          "time": 236.31543499999998,
          "velocity": 0.6692913385826772
        },
        {
          "duration": 0.04385958333332951,
          "durationTicks": 40,
          "midi": 89,
          "name": "F6",
          "ticks": 215520,
          "time": 236.31543499999998,
          "velocity": 0.6771653543307087
        },
        {
          "duration": 0.06578937500000848,
          "durationTicks": 60,
          "midi": 89,
          "name": "F6",
          "ticks": 215520,
          "time": 236.31543499999998,
          "velocity": 0.6692913385826772
        },
        {
          "duration": 0.038377135416681085,
          "durationTicks": 35,
          "midi": 77,
          "name": "F5",
          "ticks": 215760,
          "time": 236.57859249999998,
          "velocity": 0.6299212598425197
        },
        {
          "duration": 0.04385958333332951,
          "durationTicks": 40,
          "midi": 77,
          "name": "F5",
          "ticks": 215760,
          "time": 236.57859249999998,
          "velocity": 0.6929133858267716
        },
        {
          "duration": 0.04385958333332951,
          "durationTicks": 40,
          "midi": 89,
          "name": "F6",
          "ticks": 215760,
          "time": 236.57859249999998,
          "velocity": 0.7007874015748031
        },
        {
          "duration": 0.04934203125000636,
          "durationTicks": 45,
          "midi": 89,
          "name": "F6",
          "ticks": 215760,
          "time": 236.57859249999998,
          "velocity": 0.6692913385826772
        },
        {
          "duration": 0.04934203125000636,
          "durationTicks": 45,
          "midi": 89,
          "name": "F6",
          "ticks": 215760,
          "time": 236.57859249999998,
          "velocity": 0.6929133858267716
        },
        {
          "duration": 0.04385958333332951,
          "durationTicks": 40,
          "midi": 77,
          "name": "F5",
          "ticks": 216000,
          "time": 236.84175,
          "velocity": 0.6692913385826772
        },
        {
          "duration": 0.04385958333332951,
          "durationTicks": 40,
          "midi": 77,
          "name": "F5",
          "ticks": 216000,
          "time": 236.84175,
          "velocity": 0.6771653543307087
        },
        {
          "duration": 0.04385958333332951,
          "durationTicks": 40,
          "midi": 77,
          "name": "F5",
          "ticks": 216000,
          "time": 236.84175,
          "velocity": 0.6299212598425197
        },
        {
          "duration": 0.04934203125000636,
          "durationTicks": 45,
          "midi": 89,
          "name": "F6",
          "ticks": 216000,
          "time": 236.84175,
          "velocity": 0.7165354330708661
        },
        {
          "duration": 0.054824479166683204,
          "durationTicks": 50,
          "midi": 89,
          "name": "F6",
          "ticks": 216000,
          "time": 236.84175,
          "velocity": 0.7480314960629921
        },
        {
          "duration": 0.04385958333332951,
          "durationTicks": 40,
          "midi": 77,
          "name": "F5",
          "ticks": 216240,
          "time": 237.1049075,
          "velocity": 0.6456692913385826
        },
        {
          "duration": 0.04385958333332951,
          "durationTicks": 40,
          "midi": 77,
          "name": "F5",
          "ticks": 216240,
          "time": 237.1049075,
          "velocity": 0.5354330708661418
        },
        {
          "duration": 0.04385958333332951,
          "durationTicks": 40,
          "midi": 89,
          "name": "F6",
          "ticks": 216240,
          "time": 237.1049075,
          "velocity": 0.6929133858267716
        },
        {
          "duration": 0.04385958333332951,
          "durationTicks": 40,
          "midi": 89,
          "name": "F6",
          "ticks": 216240,
          "time": 237.1049075,
          "velocity": 0.7244094488188977
        },
        {
          "duration": 0.04934203125000636,
          "durationTicks": 45,
          "midi": 89,
          "name": "F6",
          "ticks": 216240,
          "time": 237.1049075,
          "velocity": 0.7480314960629921
        },
        {
          "duration": 0.038377135416652663,
          "durationTicks": 35,
          "midi": 77,
          "name": "F5",
          "ticks": 216480,
          "time": 237.368065,
          "velocity": 0.6062992125984252
        },
        {
          "duration": 0.04385958333330109,
          "durationTicks": 40,
          "midi": 77,
          "name": "F5",
          "ticks": 216480,
          "time": 237.368065,
          "velocity": 0.6535433070866141
        },
        {
          "duration": 0.049342031249977936,
          "durationTicks": 45,
          "midi": 77,
          "name": "F5",
          "ticks": 216480,
          "time": 237.368065,
          "velocity": 0.5590551181102362
        },
        {
          "duration": 0.049342031249977936,
          "durationTicks": 45,
          "midi": 89,
          "name": "F6",
          "ticks": 216480,
          "time": 237.368065,
          "velocity": 0.6771653543307087
        },
        {
          "duration": 0.049342031249977936,
          "durationTicks": 45,
          "midi": 89,
          "name": "F6",
          "ticks": 216480,
          "time": 237.368065,
          "velocity": 0.6929133858267716
        },
        {
          "duration": 0.04385958333332951,
          "durationTicks": 40,
          "midi": 77,
          "name": "F5",
          "ticks": 216720,
          "time": 237.63122249999998,
          "velocity": 0.5590551181102362
        },
        {
          "duration": 0.06578937500000848,
          "durationTicks": 60,
          "midi": 77,
          "name": "F5",
          "ticks": 216720,
          "time": 237.63122249999998,
          "velocity": 0.6771653543307087
        },
        {
          "duration": 0.04385958333332951,
          "durationTicks": 40,
          "midi": 89,
          "name": "F6",
          "ticks": 216720,
          "time": 237.63122249999998,
          "velocity": 0.6220472440944882
        },
        {
          "duration": 0.04934203125000636,
          "durationTicks": 45,
          "midi": 89,
          "name": "F6",
          "ticks": 216720,
          "time": 237.63122249999998,
          "velocity": 0.6771653543307087
        },
        {
          "duration": 0.038377135416681085,
          "durationTicks": 35,
          "midi": 77,
          "name": "F5",
          "ticks": 216960,
          "time": 237.89437999999998,
          "velocity": 0.4566929133858268
        },
        {
          "duration": 0.04385958333332951,
          "durationTicks": 40,
          "midi": 77,
          "name": "F5",
          "ticks": 216960,
          "time": 237.89437999999998,
          "velocity": 0.4409448818897638
        },
        {
          "duration": 0.04934203125000636,
          "durationTicks": 45,
          "midi": 77,
          "name": "F5",
          "ticks": 216960,
          "time": 237.89437999999998,
          "velocity": 0.6220472440944882
        },
        {
          "duration": 0.03289468750000424,
          "durationTicks": 30,
          "midi": 89,
          "name": "F6",
          "ticks": 216960,
          "time": 237.89437999999998,
          "velocity": 0.6456692913385826
        },
        {
          "duration": 0.04385958333332951,
          "durationTicks": 40,
          "midi": 89,
          "name": "F6",
          "ticks": 216960,
          "time": 237.89437999999998,
          "velocity": 0.5511811023622047
        },
        {
          "duration": 0.04934203125000636,
          "durationTicks": 45,
          "midi": 89,
          "name": "F6",
          "ticks": 216960,
          "time": 237.89437999999998,
          "velocity": 0.5354330708661418
        },
        {
          "duration": 0.04934203125000636,
          "durationTicks": 45,
          "midi": 77,
          "name": "F5",
          "ticks": 217200,
          "time": 238.1575375,
          "velocity": 0.44881889763779526
        },
        {
          "duration": 0.06578937500000848,
          "durationTicks": 60,
          "midi": 77,
          "name": "F5",
          "ticks": 217200,
          "time": 238.1575375,
          "velocity": 0.4566929133858268
        },
        {
          "duration": 0.04385958333332951,
          "durationTicks": 40,
          "midi": 89,
          "name": "F6",
          "ticks": 217200,
          "time": 238.1575375,
          "velocity": 0.6062992125984252
        },
        {
          "duration": 0.04934203125000636,
          "durationTicks": 45,
          "midi": 89,
          "name": "F6",
          "ticks": 217200,
          "time": 238.1575375,
          "velocity": 0.6062992125984252
        },
        {
          "duration": 0.26863994791668233,
          "durationTicks": 245,
          "midi": 77,
          "name": "F5",
          "ticks": 217440,
          "time": 238.420695,
          "velocity": 0.6220472440944882
        },
        {
          "duration": 0.038377135416681085,
          "durationTicks": 35,
          "midi": 89,
          "name": "F6",
          "ticks": 217440,
          "time": 238.420695,
          "velocity": 0.6220472440944882
        },
        {
          "duration": 0.06030692708333163,
          "durationTicks": 55,
          "midi": 89,
          "name": "F6",
          "ticks": 217440,
          "time": 238.420695,
          "velocity": 0.5039370078740157
        },
        {
          "duration": 0.09868406249998429,
          "durationTicks": 90,
          "midi": 89,
          "name": "F6",
          "ticks": 217440,
          "time": 238.420695,
          "velocity": 0.8110236220472441
        }
      ],
      "endOfTrackTicks": 217920
    },
    {
      "channel": 0,
      "controlChanges": {
        "0": [
          {
            "number": 0,
            "ticks": 580,
            "time": 0.6359639583333333,
            "value": 0
          }
        ],
        "32": [
          {
            "number": 32,
            "ticks": 585,
            "time": 0.6414464062499999,
            "value": 0
          }
        ]
      },
      "pitchBends": [],
      "instrument": {
        "family": "piano",
        "number": 0,
        "name": "acoustic grand piano"
      },
      "name": "Merry Christmas Mr.Lawrence",
      "notes": [],
      "endOfTrackTicks": 217920
    },
    {
      "channel": 4,
      "controlChanges": {
        "6": [
          {
            "number": 6,
            "ticks": 1050,
            "time": 1.1513140625,
            "value": 0.4881889763779528
          }
        ],
        "7": [
          {
            "number": 7,
            "ticks": 595,
            "time": 0.6524113020833333,
            "value": 0.47244094488188976
          }
        ],
        "10": [
          {
            "number": 10,
            "ticks": 595,
            "time": 0.6524113020833333,
            "value": 0.6614173228346457
          }
        ],
        "11": [
          {
            "number": 11,
            "ticks": 595,
            "time": 0.6524113020833333,
            "value": 0.8661417322834646
          },
          {
            "number": 11,
            "ticks": 18934,
            "time": 20.760933770833333,
            "value": 0.8740157480314961
          },
          {
            "number": 11,
            "ticks": 28105,
            "time": 30.816839739583333,
            "value": 0.8818897637795275
          },
          {
            "number": 11,
            "ticks": 37274,
            "time": 40.87055272916667,
            "value": 0.889763779527559
          },
          {
            "number": 11,
            "ticks": 46444,
            "time": 50.92536220833333,
            "value": 0.8976377952755905
          },
          {
            "number": 11,
            "ticks": 55613,
            "time": 60.979075197916664,
            "value": 0.905511811023622
          },
          {
            "number": 11,
            "ticks": 64783,
            "time": 71.03388467708334,
            "value": 0.9133858267716536
          },
          {
            "number": 11,
            "ticks": 73953,
            "time": 81.08869415625,
            "value": 0.9212598425196851
          },
          {
            "number": 11,
            "ticks": 83122,
            "time": 91.14240714583332,
            "value": 0.9291338582677166
          },
          {
            "number": 11,
            "ticks": 92293,
            "time": 101.19831311458333,
            "value": 0.937007874015748
          },
          {
            "number": 11,
            "ticks": 101462,
            "time": 111.25202610416666,
            "value": 0.9448818897637795
          },
          {
            "number": 11,
            "ticks": 110631,
            "time": 121.30573909374999,
            "value": 0.952755905511811
          },
          {
            "number": 11,
            "ticks": 119802,
            "time": 131.3616450625,
            "value": 0.9606299212598425
          },
          {
            "number": 11,
            "ticks": 128971,
            "time": 141.41535805208335,
            "value": 0.968503937007874
          },
          {
            "number": 11,
            "ticks": 138141,
            "time": 151.47016753124998,
            "value": 0.9763779527559056
          },
          {
            "number": 11,
            "ticks": 147310,
            "time": 161.52388052083333,
            "value": 0.984251968503937
          },
          {
            "number": 11,
            "ticks": 156480,
            "time": 171.57869,
            "value": 0.9921259842519685
          },
          {
            "number": 11,
            "ticks": 156480,
            "time": 171.57869,
            "value": 1
          }
        ],
        "91": [
          {
            "number": 91,
            "ticks": 600,
            "time": 0.6578937499999999,
            "value": 0.23622047244094488
          }
        ],
        "93": [
          {
            "number": 93,
            "ticks": 600,
            "time": 0.6578937499999999,
            "value": 0.11811023622047244
          }
        ],
        "98": [
          {
            "number": 98,
            "ticks": 1045,
            "time": 1.1458316145833334,
            "value": 0.7795275590551181
          }
        ],
        "99": [
          {
            "number": 99,
            "ticks": 1040,
            "time": 1.1403491666666665,
            "value": 0.007874015748031496
          }
        ],
        "100": [
          {
            "number": 100,
            "ticks": 1060,
            "time": 1.1622789583333333,
            "value": 1
          }
        ],
        "101": [
          {
            "number": 101,
            "ticks": 1055,
            "time": 1.1567965104166666,
            "value": 1
          }
        ]
      },
      "pitchBends": [],
      "instrument": {
        "family": "brass",
        "number": 63,
        "name": "synthbrass 2"
      },
      "name": "",
      "notes": [
        {
          "duration": 0.13157875000001695,
          "durationTicks": 120,
          "midi": 58,
          "name": "A#3",
          "ticks": 141120,
          "time": 154.73660999999998,
          "velocity": 1
        },
        {
          "duration": 0.11513140625001483,
          "durationTicks": 105,
          "midi": 61,
          "name": "C#4",
          "ticks": 141120,
          "time": 154.73660999999998,
          "velocity": 1
        },
        {
          "duration": 0.1260963020833401,
          "durationTicks": 115,
          "midi": 65,
          "name": "F4",
          "ticks": 141120,
          "time": 154.73660999999998,
          "velocity": 1
        },
        {
          "duration": 0.11513140625001483,
          "durationTicks": 105,
          "midi": 58,
          "name": "A#3",
          "ticks": 141360,
          "time": 154.9997675,
          "velocity": 0.905511811023622
        },
        {
          "duration": 0.09320161458333587,
          "durationTicks": 85,
          "midi": 61,
          "name": "C#4",
          "ticks": 141360,
          "time": 154.9997675,
          "velocity": 0.905511811023622
        },
        {
          "duration": 0.10964895833333799,
          "durationTicks": 100,
          "midi": 63,
          "name": "D#4",
          "ticks": 141360,
          "time": 154.9997675,
          "velocity": 0.905511811023622
        },
        {
          "duration": 0.11513140625001483,
          "durationTicks": 105,
          "midi": 65,
          "name": "F4",
          "ticks": 141360,
          "time": 154.9997675,
          "velocity": 0.905511811023622
        },
        {
          "duration": 0.10964895833330957,
          "durationTicks": 100,
          "midi": 58,
          "name": "A#3",
          "ticks": 141600,
          "time": 155.262925,
          "velocity": 0.905511811023622
        },
        {
          "duration": 0.11513140624998641,
          "durationTicks": 105,
          "midi": 61,
          "name": "C#4",
          "ticks": 141600,
          "time": 155.262925,
          "velocity": 0.905511811023622
        },
        {
          "duration": 0.11513140624998641,
          "durationTicks": 105,
          "midi": 63,
          "name": "D#4",
          "ticks": 141600,
          "time": 155.262925,
          "velocity": 0.905511811023622
        },
        {
          "duration": 0.11513140624998641,
          "durationTicks": 105,
          "midi": 65,
          "name": "F4",
          "ticks": 141600,
          "time": 155.262925,
          "velocity": 0.905511811023622
        },
        {
          "duration": 0.10416651041666114,
          "durationTicks": 95,
          "midi": 58,
          "name": "A#3",
          "ticks": 141840,
          "time": 155.5260825,
          "velocity": 0.905511811023622
        },
        {
          "duration": 0.08771916666665902,
          "durationTicks": 80,
          "midi": 61,
          "name": "C#4",
          "ticks": 141840,
          "time": 155.5260825,
          "velocity": 0.905511811023622
        },
        {
          "duration": 0.10964895833330957,
          "durationTicks": 100,
          "midi": 63,
          "name": "D#4",
          "ticks": 141840,
          "time": 155.5260825,
          "velocity": 0.905511811023622
        },
        {
          "duration": 0.09868406249998429,
          "durationTicks": 90,
          "midi": 65,
          "name": "F4",
          "ticks": 141840,
          "time": 155.5260825,
          "velocity": 0.905511811023622
        },
        {
          "duration": 0.11513140624998641,
          "durationTicks": 105,
          "midi": 58,
          "name": "A#3",
          "ticks": 142080,
          "time": 155.78924,
          "velocity": 0.9448818897637795
        },
        {
          "duration": 0.10964895833330957,
          "durationTicks": 100,
          "midi": 61,
          "name": "C#4",
          "ticks": 142080,
          "time": 155.78924,
          "velocity": 0.9448818897637795
        },
        {
          "duration": 0.12609630208331168,
          "durationTicks": 115,
          "midi": 63,
          "name": "D#4",
          "ticks": 142080,
          "time": 155.78924,
          "velocity": 0.9448818897637795
        },
        {
          "duration": 0.11513140624998641,
          "durationTicks": 105,
          "midi": 65,
          "name": "F4",
          "ticks": 142080,
          "time": 155.78924,
          "velocity": 0.9448818897637795
        },
        {
          "duration": 0.09868406250001271,
          "durationTicks": 90,
          "midi": 58,
          "name": "A#3",
          "ticks": 142320,
          "time": 156.05239749999998,
          "velocity": 0.905511811023622
        },
        {
          "duration": 0.09868406250001271,
          "durationTicks": 90,
          "midi": 61,
          "name": "C#4",
          "ticks": 142320,
          "time": 156.05239749999998,
          "velocity": 0.905511811023622
        },
        {
          "duration": 0.10964895833333799,
          "durationTicks": 100,
          "midi": 63,
          "name": "D#4",
          "ticks": 142320,
          "time": 156.05239749999998,
          "velocity": 0.905511811023622
        },
        {
          "duration": 0.09868406250001271,
          "durationTicks": 90,
          "midi": 65,
          "name": "F4",
          "ticks": 142320,
          "time": 156.05239749999998,
          "velocity": 0.905511811023622
        },
        {
          "duration": 0.10964895833333799,
          "durationTicks": 100,
          "midi": 58,
          "name": "A#3",
          "ticks": 142560,
          "time": 156.315555,
          "velocity": 0.905511811023622
        },
        {
          "duration": 0.09320161458333587,
          "durationTicks": 85,
          "midi": 61,
          "name": "C#4",
          "ticks": 142560,
          "time": 156.315555,
          "velocity": 0.905511811023622
        },
        {
          "duration": 0.12061385416669168,
          "durationTicks": 110,
          "midi": 63,
          "name": "D#4",
          "ticks": 142560,
          "time": 156.315555,
          "velocity": 0.905511811023622
        },
        {
          "duration": 0.09868406250001271,
          "durationTicks": 90,
          "midi": 65,
          "name": "F4",
          "ticks": 142560,
          "time": 156.315555,
          "velocity": 0.905511811023622
        },
        {
          "duration": 0.11513140624998641,
          "durationTicks": 105,
          "midi": 58,
          "name": "A#3",
          "ticks": 142800,
          "time": 156.5787125,
          "velocity": 0.905511811023622
        },
        {
          "duration": 0.10964895833330957,
          "durationTicks": 100,
          "midi": 61,
          "name": "C#4",
          "ticks": 142800,
          "time": 156.5787125,
          "velocity": 0.905511811023622
        },
        {
          "duration": 0.13157874999998853,
          "durationTicks": 120,
          "midi": 63,
          "name": "D#4",
          "ticks": 142800,
          "time": 156.5787125,
          "velocity": 0.905511811023622
        },
        {
          "duration": 0.10964895833330957,
          "durationTicks": 100,
          "midi": 65,
          "name": "F4",
          "ticks": 142800,
          "time": 156.5787125,
          "velocity": 0.905511811023622
        },
        {
          "duration": 0.11513140624998641,
          "durationTicks": 105,
          "midi": 58,
          "name": "A#3",
          "ticks": 143040,
          "time": 156.84187,
          "velocity": 1
        },
        {
          "duration": 0.11513140624998641,
          "durationTicks": 105,
          "midi": 60,
          "name": "C4",
          "ticks": 143040,
          "time": 156.84187,
          "velocity": 1
        },
        {
          "duration": 0.11513140624998641,
          "durationTicks": 105,
          "midi": 63,
          "name": "D#4",
          "ticks": 143040,
          "time": 156.84187,
          "velocity": 1
        },
        {
          "duration": 0.12609630208331168,
          "durationTicks": 115,
          "midi": 65,
          "name": "F4",
          "ticks": 143040,
          "time": 156.84187,
          "velocity": 1
        },
        {
          "duration": 0.09320161458330745,
          "durationTicks": 85,
          "midi": 58,
          "name": "A#3",
          "ticks": 143280,
          "time": 157.1050275,
          "velocity": 0.905511811023622
        },
        {
          "duration": 0.10964895833330957,
          "durationTicks": 100,
          "midi": 60,
          "name": "C4",
          "ticks": 143280,
          "time": 157.1050275,
          "velocity": 0.905511811023622
        },
        {
          "duration": 0.11513140624998641,
          "durationTicks": 105,
          "midi": 65,
          "name": "F4",
          "ticks": 143280,
          "time": 157.1050275,
          "velocity": 0.905511811023622
        },
        {
          "duration": 0.11513140625001483,
          "durationTicks": 105,
          "midi": 58,
          "name": "A#3",
          "ticks": 143520,
          "time": 157.36818499999998,
          "velocity": 0.905511811023622
        },
        {
          "duration": 0.11513140625001483,
          "durationTicks": 105,
          "midi": 60,
          "name": "C4",
          "ticks": 143520,
          "time": 157.36818499999998,
          "velocity": 0.905511811023622
        },
        {
          "duration": 0.11513140625001483,
          "durationTicks": 105,
          "midi": 65,
          "name": "F4",
          "ticks": 143520,
          "time": 157.36818499999998,
          "velocity": 0.905511811023622
        },
        {
          "duration": 0.08771916666668744,
          "durationTicks": 80,
          "midi": 58,
          "name": "A#3",
          "ticks": 143760,
          "time": 157.6313425,
          "velocity": 0.905511811023622
        },
        {
          "duration": 0.10964895833333799,
          "durationTicks": 100,
          "midi": 60,
          "name": "C4",
          "ticks": 143760,
          "time": 157.6313425,
          "velocity": 0.905511811023622
        },
        {
          "duration": 0.09868406250001271,
          "durationTicks": 90,
          "midi": 65,
          "name": "F4",
          "ticks": 143760,
          "time": 157.6313425,
          "velocity": 0.905511811023622
        },
        {
          "duration": 0.10964895833330957,
          "durationTicks": 100,
          "midi": 58,
          "name": "A#3",
          "ticks": 144000,
          "time": 157.8945,
          "velocity": 0.9448818897637795
        },
        {
          "duration": 0.12609630208331168,
          "durationTicks": 115,
          "midi": 60,
          "name": "C4",
          "ticks": 144000,
          "time": 157.8945,
          "velocity": 0.9448818897637795
        },
        {
          "duration": 0.11513140624998641,
          "durationTicks": 105,
          "midi": 63,
          "name": "D#4",
          "ticks": 144000,
          "time": 157.8945,
          "velocity": 0.9448818897637795
        },
        {
          "duration": 0.09868406249998429,
          "durationTicks": 90,
          "midi": 58,
          "name": "A#3",
          "ticks": 144240,
          "time": 158.1576575,
          "velocity": 0.905511811023622
        },
        {
          "duration": 0.10964895833330957,
          "durationTicks": 100,
          "midi": 60,
          "name": "C4",
          "ticks": 144240,
          "time": 158.1576575,
          "velocity": 0.905511811023622
        },
        {
          "duration": 0.09868406249998429,
          "durationTicks": 90,
          "midi": 63,
          "name": "D#4",
          "ticks": 144240,
          "time": 158.1576575,
          "velocity": 0.905511811023622
        },
        {
          "duration": 0.09320161458330745,
          "durationTicks": 85,
          "midi": 58,
          "name": "A#3",
          "ticks": 144480,
          "time": 158.420815,
          "velocity": 0.905511811023622
        },
        {
          "duration": 0.12061385416666326,
          "durationTicks": 110,
          "midi": 60,
          "name": "C4",
          "ticks": 144480,
          "time": 158.420815,
          "velocity": 0.905511811023622
        },
        {
          "duration": 0.09868406249998429,
          "durationTicks": 90,
          "midi": 63,
          "name": "D#4",
          "ticks": 144480,
          "time": 158.420815,
          "velocity": 0.905511811023622
        },
        {
          "duration": 0.10964895833333799,
          "durationTicks": 100,
          "midi": 58,
          "name": "A#3",
          "ticks": 144720,
          "time": 158.68397249999998,
          "velocity": 0.905511811023622
        },
        {
          "duration": 0.13157875000001695,
          "durationTicks": 120,
          "midi": 60,
          "name": "C4",
          "ticks": 144720,
          "time": 158.68397249999998,
          "velocity": 0.905511811023622
        },
        {
          "duration": 0.10964895833333799,
          "durationTicks": 100,
          "midi": 63,
          "name": "D#4",
          "ticks": 144720,
          "time": 158.68397249999998,
          "velocity": 0.905511811023622
        },
        {
          "duration": 0.12061385416669168,
          "durationTicks": 110,
          "midi": 56,
          "name": "G#3",
          "ticks": 144960,
          "time": 158.94713,
          "velocity": 1
        },
        {
          "duration": 0.11513140625001483,
          "durationTicks": 105,
          "midi": 60,
          "name": "C4",
          "ticks": 144960,
          "time": 158.94713,
          "velocity": 1
        },
        {
          "duration": 0.1260963020833401,
          "durationTicks": 115,
          "midi": 63,
          "name": "D#4",
          "ticks": 144960,
          "time": 158.94713,
          "velocity": 1
        },
        {
          "duration": 0.09868406250001271,
          "durationTicks": 90,
          "midi": 56,
          "name": "G#3",
          "ticks": 145200,
          "time": 159.2102875,
          "velocity": 0.905511811023622
        },
        {
          "duration": 0.10964895833333799,
          "durationTicks": 100,
          "midi": 60,
          "name": "C4",
          "ticks": 145200,
          "time": 159.2102875,
          "velocity": 0.905511811023622
        },
        {
          "duration": 0.12061385416666326,
          "durationTicks": 110,
          "midi": 63,
          "name": "D#4",
          "ticks": 145200,
          "time": 159.2102875,
          "velocity": 0.905511811023622
        },
        {
          "duration": 0.11513140624998641,
          "durationTicks": 105,
          "midi": 56,
          "name": "G#3",
          "ticks": 145440,
          "time": 159.473445,
          "velocity": 0.905511811023622
        },
        {
          "duration": 0.12061385416666326,
          "durationTicks": 110,
          "midi": 60,
          "name": "C4",
          "ticks": 145440,
          "time": 159.473445,
          "velocity": 0.905511811023622
        },
        {
          "duration": 0.12061385416666326,
          "durationTicks": 110,
          "midi": 63,
          "name": "D#4",
          "ticks": 145440,
          "time": 159.473445,
          "velocity": 0.905511811023622
        },
        {
          "duration": 0.09320161458330745,
          "durationTicks": 85,
          "midi": 56,
          "name": "G#3",
          "ticks": 145680,
          "time": 159.7366025,
          "velocity": 0.905511811023622
        },
        {
          "duration": 0.11513140624998641,
          "durationTicks": 105,
          "midi": 60,
          "name": "C4",
          "ticks": 145680,
          "time": 159.7366025,
          "velocity": 0.905511811023622
        },
        {
          "duration": 0.10416651041666114,
          "durationTicks": 95,
          "midi": 63,
          "name": "D#4",
          "ticks": 145680,
          "time": 159.7366025,
          "velocity": 0.905511811023622
        },
        {
          "duration": 0.11513140625001483,
          "durationTicks": 105,
          "midi": 56,
          "name": "G#3",
          "ticks": 145920,
          "time": 159.99975999999998,
          "velocity": 0.9448818897637795
        },
        {
          "duration": 0.1260963020833401,
          "durationTicks": 115,
          "midi": 60,
          "name": "C4",
          "ticks": 145920,
          "time": 159.99975999999998,
          "velocity": 0.9448818897637795
        },
        {
          "duration": 0.12061385416669168,
          "durationTicks": 110,
          "midi": 63,
          "name": "D#4",
          "ticks": 145920,
          "time": 159.99975999999998,
          "velocity": 0.9448818897637795
        },
        {
          "duration": 0.10416651041668956,
          "durationTicks": 95,
          "midi": 56,
          "name": "G#3",
          "ticks": 146160,
          "time": 160.2629175,
          "velocity": 0.905511811023622
        },
        {
          "duration": 0.11513140625001483,
          "durationTicks": 105,
          "midi": 60,
          "name": "C4",
          "ticks": 146160,
          "time": 160.2629175,
          "velocity": 0.905511811023622
        },
        {
          "duration": 0.10416651041668956,
          "durationTicks": 95,
          "midi": 63,
          "name": "D#4",
          "ticks": 146160,
          "time": 160.2629175,
          "velocity": 0.905511811023622
        },
        {
          "duration": 0.09320161458333587,
          "durationTicks": 85,
          "midi": 56,
          "name": "G#3",
          "ticks": 146400,
          "time": 160.526075,
          "velocity": 0.905511811023622
        },
        {
          "duration": 0.12061385416669168,
          "durationTicks": 110,
          "midi": 60,
          "name": "C4",
          "ticks": 146400,
          "time": 160.526075,
          "velocity": 0.905511811023622
        },
        {
          "duration": 0.10416651041668956,
          "durationTicks": 95,
          "midi": 63,
          "name": "D#4",
          "ticks": 146400,
          "time": 160.526075,
          "velocity": 0.905511811023622
        },
        {
          "duration": 0.10964895833330957,
          "durationTicks": 100,
          "midi": 56,
          "name": "G#3",
          "ticks": 146640,
          "time": 160.7892325,
          "velocity": 0.905511811023622
        },
        {
          "duration": 0.13706119791666538,
          "durationTicks": 125,
          "midi": 60,
          "name": "C4",
          "ticks": 146640,
          "time": 160.7892325,
          "velocity": 0.905511811023622
        },
        {
          "duration": 0.10964895833330957,
          "durationTicks": 100,
          "midi": 63,
          "name": "D#4",
          "ticks": 146640,
          "time": 160.7892325,
          "velocity": 0.905511811023622
        },
        {
          "duration": 0.11513140624998641,
          "durationTicks": 105,
          "midi": 56,
          "name": "G#3",
          "ticks": 146880,
          "time": 161.05239,
          "velocity": 1
        },
        {
          "duration": 0.11513140624998641,
          "durationTicks": 105,
          "midi": 60,
          "name": "C4",
          "ticks": 146880,
          "time": 161.05239,
          "velocity": 1
        },
        {
          "duration": 0.12609630208331168,
          "durationTicks": 115,
          "midi": 61,
          "name": "C#4",
          "ticks": 146880,
          "time": 161.05239,
          "velocity": 1
        },
        {
          "duration": 0.09320161458333587,
          "durationTicks": 85,
          "midi": 56,
          "name": "G#3",
          "ticks": 147120,
          "time": 161.31554749999998,
          "velocity": 0.905511811023622
        },
        {
          "duration": 0.10964895833333799,
          "durationTicks": 100,
          "midi": 60,
          "name": "C4",
          "ticks": 147120,
          "time": 161.31554749999998,
          "velocity": 0.905511811023622
        },
        {
          "duration": 0.11513140625001483,
          "durationTicks": 105,
          "midi": 61,
          "name": "C#4",
          "ticks": 147120,
          "time": 161.31554749999998,
          "velocity": 0.905511811023622
        },
        {
          "duration": 0.11513140625001483,
          "durationTicks": 105,
          "midi": 56,
          "name": "G#3",
          "ticks": 147360,
          "time": 161.57870499999999,
          "velocity": 0.905511811023622
        },
        {
          "duration": 0.11513140625001483,
          "durationTicks": 105,
          "midi": 60,
          "name": "C4",
          "ticks": 147360,
          "time": 161.57870499999999,
          "velocity": 0.905511811023622
        },
        {
          "duration": 0.11513140625001483,
          "durationTicks": 105,
          "midi": 61,
          "name": "C#4",
          "ticks": 147360,
          "time": 161.57870499999999,
          "velocity": 0.905511811023622
        },
        {
          "duration": 0.08771916666668744,
          "durationTicks": 80,
          "midi": 56,
          "name": "G#3",
          "ticks": 147600,
          "time": 161.8418625,
          "velocity": 0.905511811023622
        },
        {
          "duration": 0.10964895833333799,
          "durationTicks": 100,
          "midi": 60,
          "name": "C4",
          "ticks": 147600,
          "time": 161.8418625,
          "velocity": 0.905511811023622
        },
        {
          "duration": 0.09868406250001271,
          "durationTicks": 90,
          "midi": 61,
          "name": "C#4",
          "ticks": 147600,
          "time": 161.8418625,
          "velocity": 0.905511811023622
        },
        {
          "duration": 0.4385958333333235,
          "durationTicks": 400,
          "midi": 56,
          "name": "G#3",
          "ticks": 147840,
          "time": 162.10502,
          "velocity": 0.9448818897637795
        },
        {
          "duration": 0.45504317708332565,
          "durationTicks": 415,
          "midi": 60,
          "name": "C4",
          "ticks": 147840,
          "time": 162.10502,
          "velocity": 0.9448818897637795
        },
        {
          "duration": 0.4440782812500004,
          "durationTicks": 405,
          "midi": 61,
          "name": "C#4",
          "ticks": 147840,
          "time": 162.10502,
          "velocity": 0.9448818897637795
        },
        {
          "duration": 0.4221484895833214,
          "durationTicks": 385,
          "midi": 56,
          "name": "G#3",
          "ticks": 148320,
          "time": 162.631335,
          "velocity": 0.905511811023622
        },
        {
          "duration": 0.4495607291666488,
          "durationTicks": 410,
          "midi": 60,
          "name": "C4",
          "ticks": 148320,
          "time": 162.631335,
          "velocity": 0.905511811023622
        },
        {
          "duration": 0.42763093749999825,
          "durationTicks": 390,
          "midi": 63,
          "name": "D#4",
          "ticks": 148320,
          "time": 162.631335,
          "velocity": 0.905511811023622
        },
        {
          "duration": 0.13157875000001695,
          "durationTicks": 120,
          "midi": 58,
          "name": "A#3",
          "ticks": 148800,
          "time": 163.15765,
          "velocity": 1
        },
        {
          "duration": 0.11513140625001483,
          "durationTicks": 105,
          "midi": 61,
          "name": "C#4",
          "ticks": 148800,
          "time": 163.15765,
          "velocity": 1
        },
        {
          "duration": 0.11513140625001483,
          "durationTicks": 105,
          "midi": 63,
          "name": "D#4",
          "ticks": 148800,
          "time": 163.15765,
          "velocity": 1
        },
        {
          "duration": 0.1260963020833401,
          "durationTicks": 115,
          "midi": 65,
          "name": "F4",
          "ticks": 148800,
          "time": 163.15765,
          "velocity": 1
        },
        {
          "duration": 0.11513140624998641,
          "durationTicks": 105,
          "midi": 58,
          "name": "A#3",
          "ticks": 149040,
          "time": 163.4208075,
          "velocity": 0.905511811023622
        },
        {
          "duration": 0.09320161458330745,
          "durationTicks": 85,
          "midi": 61,
          "name": "C#4",
          "ticks": 149040,
          "time": 163.4208075,
          "velocity": 0.905511811023622
        },
        {
          "duration": 0.10964895833330957,
          "durationTicks": 100,
          "midi": 63,
          "name": "D#4",
          "ticks": 149040,
          "time": 163.4208075,
          "velocity": 0.905511811023622
        },
        {
          "duration": 0.11513140624998641,
          "durationTicks": 105,
          "midi": 65,
          "name": "F4",
          "ticks": 149040,
          "time": 163.4208075,
          "velocity": 0.905511811023622
        },
        {
          "duration": 0.10964895833330957,
          "durationTicks": 100,
          "midi": 58,
          "name": "A#3",
          "ticks": 149280,
          "time": 163.683965,
          "velocity": 0.905511811023622
        },
        {
          "duration": 0.11513140624998641,
          "durationTicks": 105,
          "midi": 61,
          "name": "C#4",
          "ticks": 149280,
          "time": 163.683965,
          "velocity": 0.905511811023622
        },
        {
          "duration": 0.11513140624998641,
          "durationTicks": 105,
          "midi": 63,
          "name": "D#4",
          "ticks": 149280,
          "time": 163.683965,
          "velocity": 0.905511811023622
        },
        {
          "duration": 0.11513140624998641,
          "durationTicks": 105,
          "midi": 65,
          "name": "F4",
          "ticks": 149280,
          "time": 163.683965,
          "velocity": 0.905511811023622
        },
        {
          "duration": 0.10416651041666114,
          "durationTicks": 95,
          "midi": 58,
          "name": "A#3",
          "ticks": 149520,
          "time": 163.9471225,
          "velocity": 0.905511811023622
        },
        {
          "duration": 0.08771916666665902,
          "durationTicks": 80,
          "midi": 61,
          "name": "C#4",
          "ticks": 149520,
          "time": 163.9471225,
          "velocity": 0.905511811023622
        },
        {
          "duration": 0.10964895833330957,
          "durationTicks": 100,
          "midi": 63,
          "name": "D#4",
          "ticks": 149520,
          "time": 163.9471225,
          "velocity": 0.905511811023622
        },
        {
          "duration": 0.09868406249998429,
          "durationTicks": 90,
          "midi": 65,
          "name": "F4",
          "ticks": 149520,
          "time": 163.9471225,
          "velocity": 0.905511811023622
        },
        {
          "duration": 0.11513140625001483,
          "durationTicks": 105,
          "midi": 58,
          "name": "A#3",
          "ticks": 149760,
          "time": 164.21027999999998,
          "velocity": 0.9448818897637795
        },
        {
          "duration": 0.10964895833333799,
          "durationTicks": 100,
          "midi": 61,
          "name": "C#4",
          "ticks": 149760,
          "time": 164.21027999999998,
          "velocity": 0.9448818897637795
        },
        {
          "duration": 0.1260963020833401,
          "durationTicks": 115,
          "midi": 63,
          "name": "D#4",
          "ticks": 149760,
          "time": 164.21027999999998,
          "velocity": 0.9448818897637795
        },
        {
          "duration": 0.11513140625001483,
          "durationTicks": 105,
          "midi": 65,
          "name": "F4",
          "ticks": 149760,
          "time": 164.21027999999998,
          "velocity": 0.9448818897637795
        },
        {
          "duration": 0.09868406250001271,
          "durationTicks": 90,
          "midi": 58,
          "name": "A#3",
          "ticks": 150000,
          "time": 164.4734375,
          "velocity": 0.905511811023622
        },
        {
          "duration": 0.09868406250001271,
          "durationTicks": 90,
          "midi": 61,
          "name": "C#4",
          "ticks": 150000,
          "time": 164.4734375,
          "velocity": 0.905511811023622
        },
        {
          "duration": 0.10964895833333799,
          "durationTicks": 100,
          "midi": 63,
          "name": "D#4",
          "ticks": 150000,
          "time": 164.4734375,
          "velocity": 0.905511811023622
        },
        {
          "duration": 0.09868406250001271,
          "durationTicks": 90,
          "midi": 65,
          "name": "F4",
          "ticks": 150000,
          "time": 164.4734375,
          "velocity": 0.905511811023622
        },
        {
          "duration": 0.10964895833330957,
          "durationTicks": 100,
          "midi": 58,
          "name": "A#3",
          "ticks": 150240,
          "time": 164.736595,
          "velocity": 0.905511811023622
        },
        {
          "duration": 0.09320161458333587,
          "durationTicks": 85,
          "midi": 61,
          "name": "C#4",
          "ticks": 150240,
          "time": 164.736595,
          "velocity": 0.905511811023622
        },
        {
          "duration": 0.12061385416666326,
          "durationTicks": 110,
          "midi": 63,
          "name": "D#4",
          "ticks": 150240,
          "time": 164.736595,
          "velocity": 0.905511811023622
        },
        {
          "duration": 0.09868406250001271,
          "durationTicks": 90,
          "midi": 65,
          "name": "F4",
          "ticks": 150240,
          "time": 164.736595,
          "velocity": 0.905511811023622
        },
        {
          "duration": 0.11513140624998641,
          "durationTicks": 105,
          "midi": 58,
          "name": "A#3",
          "ticks": 150480,
          "time": 164.9997525,
          "velocity": 0.905511811023622
        },
        {
          "duration": 0.10964895833330957,
          "durationTicks": 100,
          "midi": 61,
          "name": "C#4",
          "ticks": 150480,
          "time": 164.9997525,
          "velocity": 0.905511811023622
        },
        {
          "duration": 0.13157874999998853,
          "durationTicks": 120,
          "midi": 63,
          "name": "D#4",
          "ticks": 150480,
          "time": 164.9997525,
          "velocity": 0.905511811023622
        },
        {
          "duration": 0.10964895833330957,
          "durationTicks": 100,
          "midi": 65,
          "name": "F4",
          "ticks": 150480,
          "time": 164.9997525,
          "velocity": 0.905511811023622
        },
        {
          "duration": 0.11513140624998641,
          "durationTicks": 105,
          "midi": 58,
          "name": "A#3",
          "ticks": 150720,
          "time": 165.26291,
          "velocity": 1
        },
        {
          "duration": 0.11513140624998641,
          "durationTicks": 105,
          "midi": 60,
          "name": "C4",
          "ticks": 150720,
          "time": 165.26291,
          "velocity": 1
        },
        {
          "duration": 0.12609630208331168,
          "durationTicks": 115,
          "midi": 65,
          "name": "F4",
          "ticks": 150720,
          "time": 165.26291,
          "velocity": 1
        },
        {
          "duration": 0.09320161458333587,
          "durationTicks": 85,
          "midi": 58,
          "name": "A#3",
          "ticks": 150960,
          "time": 165.52606749999998,
          "velocity": 0.905511811023622
        },
        {
          "duration": 0.10964895833333799,
          "durationTicks": 100,
          "midi": 60,
          "name": "C4",
          "ticks": 150960,
          "time": 165.52606749999998,
          "velocity": 0.905511811023622
        },
        {
          "duration": 0.11513140625001483,
          "durationTicks": 105,
          "midi": 65,
          "name": "F4",
          "ticks": 150960,
          "time": 165.52606749999998,
          "velocity": 0.905511811023622
        },
        {
          "duration": 0.11513140625001483,
          "durationTicks": 105,
          "midi": 58,
          "name": "A#3",
          "ticks": 151200,
          "time": 165.789225,
          "velocity": 0.905511811023622
        },
        {
          "duration": 0.11513140625001483,
          "durationTicks": 105,
          "midi": 60,
          "name": "C4",
          "ticks": 151200,
          "time": 165.789225,
          "velocity": 0.905511811023622
        },
        {
          "duration": 0.11513140625001483,
          "durationTicks": 105,
          "midi": 65,
          "name": "F4",
          "ticks": 151200,
          "time": 165.789225,
          "velocity": 0.905511811023622
        },
        {
          "duration": 0.08771916666668744,
          "durationTicks": 80,
          "midi": 58,
          "name": "A#3",
          "ticks": 151440,
          "time": 166.0523825,
          "velocity": 0.905511811023622
        },
        {
          "duration": 0.10964895833330957,
          "durationTicks": 100,
          "midi": 60,
          "name": "C4",
          "ticks": 151440,
          "time": 166.0523825,
          "velocity": 0.905511811023622
        },
        {
          "duration": 0.09868406250001271,
          "durationTicks": 90,
          "midi": 65,
          "name": "F4",
          "ticks": 151440,
          "time": 166.0523825,
          "velocity": 0.905511811023622
        },
        {
          "duration": 0.42763093749999825,
          "durationTicks": 390,
          "midi": 58,
          "name": "A#3",
          "ticks": 151680,
          "time": 166.31554,
          "velocity": 0.9448818897637795
        },
        {
          "duration": 0.4440782812500004,
          "durationTicks": 405,
          "midi": 60,
          "name": "C4",
          "ticks": 151680,
          "time": 166.31554,
          "velocity": 0.9448818897637795
        },
        {
          "duration": 0.4331133854166751,
          "durationTicks": 395,
          "midi": 63,
          "name": "D#4",
          "ticks": 151680,
          "time": 166.31554,
          "velocity": 0.9448818897637795
        },
        {
          "duration": 0.4989027604166836,
          "durationTicks": 455,
          "midi": 60,
          "name": "C4",
          "ticks": 152160,
          "time": 166.84185499999998,
          "velocity": 0.905511811023622
        },
        {
          "duration": 0.4769729687500046,
          "durationTicks": 435,
          "midi": 63,
          "name": "D#4",
          "ticks": 152160,
          "time": 166.84185499999998,
          "velocity": 0.905511811023622
        },
        {
          "duration": 0.4769729687500046,
          "durationTicks": 435,
          "midi": 68,
          "name": "G#4",
          "ticks": 152160,
          "time": 166.84185499999998,
          "velocity": 0.905511811023622
        },
        {
          "duration": 0.47149052083332776,
          "durationTicks": 430,
          "midi": 70,
          "name": "A#4",
          "ticks": 152160,
          "time": 166.84185499999998,
          "velocity": 0.905511811023622
        },
        {
          "duration": 0.13157874999998853,
          "durationTicks": 120,
          "midi": 60,
          "name": "C4",
          "ticks": 152640,
          "time": 167.36817,
          "velocity": 1
        },
        {
          "duration": 0.11513140625001483,
          "durationTicks": 105,
          "midi": 61,
          "name": "C#4",
          "ticks": 152640,
          "time": 167.36817,
          "velocity": 1
        },
        {
          "duration": 0.12609630208331168,
          "durationTicks": 115,
          "midi": 63,
          "name": "D#4",
          "ticks": 152640,
          "time": 167.36817,
          "velocity": 1
        },
        {
          "duration": 0.11513140625001483,
          "durationTicks": 105,
          "midi": 68,
          "name": "G#4",
          "ticks": 152640,
          "time": 167.36817,
          "velocity": 1
        },
        {
          "duration": 0.11513140624998641,
          "durationTicks": 105,
          "midi": 60,
          "name": "C4",
          "ticks": 152880,
          "time": 167.6313275,
          "velocity": 0.905511811023622
        },
        {
          "duration": 0.10964895833330957,
          "durationTicks": 100,
          "midi": 61,
          "name": "C#4",
          "ticks": 152880,
          "time": 167.6313275,
          "velocity": 0.905511811023622
        },
        {
          "duration": 0.11513140624998641,
          "durationTicks": 105,
          "midi": 63,
          "name": "D#4",
          "ticks": 152880,
          "time": 167.6313275,
          "velocity": 0.905511811023622
        },
        {
          "duration": 0.09320161458330745,
          "durationTicks": 85,
          "midi": 68,
          "name": "G#4",
          "ticks": 152880,
          "time": 167.6313275,
          "velocity": 0.905511811023622
        },
        {
          "duration": 0.10964895833330957,
          "durationTicks": 100,
          "midi": 60,
          "name": "C4",
          "ticks": 153120,
          "time": 167.894485,
          "velocity": 0.905511811023622
        },
        {
          "duration": 0.11513140624998641,
          "durationTicks": 105,
          "midi": 61,
          "name": "C#4",
          "ticks": 153120,
          "time": 167.894485,
          "velocity": 0.905511811023622
        },
        {
          "duration": 0.11513140624998641,
          "durationTicks": 105,
          "midi": 63,
          "name": "D#4",
          "ticks": 153120,
          "time": 167.894485,
          "velocity": 0.905511811023622
        },
        {
          "duration": 0.11513140624998641,
          "durationTicks": 105,
          "midi": 68,
          "name": "G#4",
          "ticks": 153120,
          "time": 167.894485,
          "velocity": 0.905511811023622
        },
        {
          "duration": 0.10416651041668956,
          "durationTicks": 95,
          "midi": 60,
          "name": "C4",
          "ticks": 153360,
          "time": 168.15764249999998,
          "velocity": 0.905511811023622
        },
        {
          "duration": 0.10964895833333799,
          "durationTicks": 100,
          "midi": 61,
          "name": "C#4",
          "ticks": 153360,
          "time": 168.15764249999998,
          "velocity": 0.905511811023622
        },
        {
          "duration": 0.09868406250001271,
          "durationTicks": 90,
          "midi": 63,
          "name": "D#4",
          "ticks": 153360,
          "time": 168.15764249999998,
          "velocity": 0.905511811023622
        },
        {
          "duration": 0.08771916666668744,
          "durationTicks": 80,
          "midi": 68,
          "name": "G#4",
          "ticks": 153360,
          "time": 168.15764249999998,
          "velocity": 0.905511811023622
        },
        {
          "duration": 0.11513140625001483,
          "durationTicks": 105,
          "midi": 60,
          "name": "C4",
          "ticks": 153600,
          "time": 168.42079999999999,
          "velocity": 0.9448818897637795
        },
        {
          "duration": 0.1260963020833401,
          "durationTicks": 115,
          "midi": 61,
          "name": "C#4",
          "ticks": 153600,
          "time": 168.42079999999999,
          "velocity": 0.9448818897637795
        },
        {
          "duration": 0.11513140625001483,
          "durationTicks": 105,
          "midi": 63,
          "name": "D#4",
          "ticks": 153600,
          "time": 168.42079999999999,
          "velocity": 0.9448818897637795
        },
        {
          "duration": 0.10964895833333799,
          "durationTicks": 100,
          "midi": 68,
          "name": "G#4",
          "ticks": 153600,
          "time": 168.42079999999999,
          "velocity": 0.9448818897637795
        },
        {
          "duration": 0.09868406250001271,
          "durationTicks": 90,
          "midi": 60,
          "name": "C4",
          "ticks": 153840,
          "time": 168.6839575,
          "velocity": 0.905511811023622
        },
        {
          "duration": 0.10964895833333799,
          "durationTicks": 100,
          "midi": 61,
          "name": "C#4",
          "ticks": 153840,
          "time": 168.6839575,
          "velocity": 0.905511811023622
        },
        {
          "duration": 0.09868406250001271,
          "durationTicks": 90,
          "midi": 63,
          "name": "D#4",
          "ticks": 153840,
          "time": 168.6839575,
          "velocity": 0.905511811023622
        },
        {
          "duration": 0.09868406250001271,
          "durationTicks": 90,
          "midi": 68,
          "name": "G#4",
          "ticks": 153840,
          "time": 168.6839575,
          "velocity": 0.905511811023622
        },
        {
          "duration": 0.40021869791667086,
          "durationTicks": 365,
          "midi": 61,
          "name": "C#4",
          "ticks": 154080,
          "time": 168.947115,
          "velocity": 0.905511811023622
        },
        {
          "duration": 0.38377135416666874,
          "durationTicks": 350,
          "midi": 63,
          "name": "D#4",
          "ticks": 154080,
          "time": 168.947115,
          "velocity": 0.905511811023622
        },
        {
          "duration": 0.37280645833331505,
          "durationTicks": 340,
          "midi": 72,
          "name": "C5",
          "ticks": 154080,
          "time": 168.947115,
          "velocity": 0.905511811023622
        },
        {
          "duration": 0.13157875000001695,
          "durationTicks": 120,
          "midi": 61,
          "name": "C#4",
          "ticks": 154560,
          "time": 169.47342999999998,
          "velocity": 1
        },
        {
          "duration": 0.11513140625001483,
          "durationTicks": 105,
          "midi": 65,
          "name": "F4",
          "ticks": 154560,
          "time": 169.47342999999998,
          "velocity": 1
        },
        {
          "duration": 0.11513140625001483,
          "durationTicks": 105,
          "midi": 68,
          "name": "G#4",
          "ticks": 154560,
          "time": 169.47342999999998,
          "velocity": 1
        },
        {
          "duration": 0.1260963020833401,
          "durationTicks": 115,
          "midi": 72,
          "name": "C5",
          "ticks": 154560,
          "time": 169.47342999999998,
          "velocity": 1
        },
        {
          "duration": 0.11513140625001483,
          "durationTicks": 105,
          "midi": 61,
          "name": "C#4",
          "ticks": 154800,
          "time": 169.73658749999998,
          "velocity": 0.905511811023622
        },
        {
          "duration": 0.09320161458333587,
          "durationTicks": 85,
          "midi": 65,
          "name": "F4",
          "ticks": 154800,
          "time": 169.73658749999998,
          "velocity": 0.905511811023622
        },
        {
          "duration": 0.10964895833333799,
          "durationTicks": 100,
          "midi": 68,
          "name": "G#4",
          "ticks": 154800,
          "time": 169.73658749999998,
          "velocity": 0.905511811023622
        },
        {
          "duration": 0.11513140625001483,
          "durationTicks": 105,
          "midi": 72,
          "name": "C5",
          "ticks": 154800,
          "time": 169.73658749999998,
          "velocity": 0.905511811023622
        },
        {
          "duration": 0.10964895833333799,
          "durationTicks": 100,
          "midi": 61,
          "name": "C#4",
          "ticks": 155040,
          "time": 169.999745,
          "velocity": 0.905511811023622
        },
        {
          "duration": 0.11513140625001483,
          "durationTicks": 105,
          "midi": 65,
          "name": "F4",
          "ticks": 155040,
          "time": 169.999745,
          "velocity": 0.905511811023622
        },
        {
          "duration": 0.11513140625001483,
          "durationTicks": 105,
          "midi": 68,
          "name": "G#4",
          "ticks": 155040,
          "time": 169.999745,
          "velocity": 0.905511811023622
        },
        {
          "duration": 0.11513140625001483,
          "durationTicks": 105,
          "midi": 72,
          "name": "C5",
          "ticks": 155040,
          "time": 169.999745,
          "velocity": 0.905511811023622
        },
        {
          "duration": 0.10416651041666114,
          "durationTicks": 95,
          "midi": 61,
          "name": "C#4",
          "ticks": 155280,
          "time": 170.2629025,
          "velocity": 0.905511811023622
        },
        {
          "duration": 0.08771916666668744,
          "durationTicks": 80,
          "midi": 65,
          "name": "F4",
          "ticks": 155280,
          "time": 170.2629025,
          "velocity": 0.905511811023622
        },
        {
          "duration": 0.10964895833330957,
          "durationTicks": 100,
          "midi": 68,
          "name": "G#4",
          "ticks": 155280,
          "time": 170.2629025,
          "velocity": 0.905511811023622
        },
        {
          "duration": 0.09868406249998429,
          "durationTicks": 90,
          "midi": 72,
          "name": "C5",
          "ticks": 155280,
          "time": 170.2629025,
          "velocity": 0.905511811023622
        },
        {
          "duration": 0.41118359374999613,
          "durationTicks": 375,
          "midi": 65,
          "name": "F4",
          "ticks": 155520,
          "time": 170.52606,
          "velocity": 0.9448818897637795
        },
        {
          "duration": 0.4057011458333193,
          "durationTicks": 370,
          "midi": 68,
          "name": "G#4",
          "ticks": 155520,
          "time": 170.52606,
          "velocity": 0.9448818897637795
        },
        {
          "duration": 0.4221484895833214,
          "durationTicks": 385,
          "midi": 72,
          "name": "C5",
          "ticks": 155520,
          "time": 170.52606,
          "velocity": 0.9448818897637795
        },
        {
          "duration": 0.41118359374999613,
          "durationTicks": 375,
          "midi": 73,
          "name": "C#5",
          "ticks": 155520,
          "time": 170.52606,
          "velocity": 0.9448818897637795
        },
        {
          "duration": 0.4057011458333193,
          "durationTicks": 370,
          "midi": 65,
          "name": "F4",
          "ticks": 156000,
          "time": 171.05237499999998,
          "velocity": 0.905511811023622
        },
        {
          "duration": 0.3892538020833456,
          "durationTicks": 355,
          "midi": 68,
          "name": "G#4",
          "ticks": 156000,
          "time": 171.05237499999998,
          "velocity": 0.905511811023622
        },
        {
          "duration": 0.416666041666673,
          "durationTicks": 380,
          "midi": 72,
          "name": "C5",
          "ticks": 156000,
          "time": 171.05237499999998,
          "velocity": 0.905511811023622
        },
        {
          "duration": 0.39473625000002244,
          "durationTicks": 360,
          "midi": 75,
          "name": "D#5",
          "ticks": 156000,
          "time": 171.05237499999998,
          "velocity": 0.905511811023622
        },
        {
          "duration": 0.11513140624998641,
          "durationTicks": 105,
          "midi": 58,
          "name": "A#3",
          "ticks": 156480,
          "time": 171.57869,
          "velocity": 1
        },
        {
          "duration": 0.11513140624998641,
          "durationTicks": 105,
          "midi": 63,
          "name": "D#4",
          "ticks": 156480,
          "time": 171.57869,
          "velocity": 1
        },
        {
          "duration": 0.12609630208331168,
          "durationTicks": 115,
          "midi": 65,
          "name": "F4",
          "ticks": 156480,
          "time": 171.57869,
          "velocity": 1
        },
        {
          "duration": 0.09320161458330745,
          "durationTicks": 85,
          "midi": 58,
          "name": "A#3",
          "ticks": 156720,
          "time": 171.8418475,
          "velocity": 0.905511811023622
        },
        {
          "duration": 0.10964895833330957,
          "durationTicks": 100,
          "midi": 63,
          "name": "D#4",
          "ticks": 156720,
          "time": 171.8418475,
          "velocity": 0.905511811023622
        },
        {
          "duration": 0.11513140624998641,
          "durationTicks": 105,
          "midi": 65,
          "name": "F4",
          "ticks": 156720,
          "time": 171.8418475,
          "velocity": 0.905511811023622
        },
        {
          "duration": 0.11513140624998641,
          "durationTicks": 105,
          "midi": 58,
          "name": "A#3",
          "ticks": 156960,
          "time": 172.105005,
          "velocity": 0.905511811023622
        },
        {
          "duration": 0.11513140624998641,
          "durationTicks": 105,
          "midi": 63,
          "name": "D#4",
          "ticks": 156960,
          "time": 172.105005,
          "velocity": 0.905511811023622
        },
        {
          "duration": 0.11513140624998641,
          "durationTicks": 105,
          "midi": 65,
          "name": "F4",
          "ticks": 156960,
          "time": 172.105005,
          "velocity": 0.905511811023622
        },
        {
          "duration": 0.08771916666668744,
          "durationTicks": 80,
          "midi": 58,
          "name": "A#3",
          "ticks": 157200,
          "time": 172.36816249999998,
          "velocity": 0.905511811023622
        },
        {
          "duration": 0.10964895833333799,
          "durationTicks": 100,
          "midi": 63,
          "name": "D#4",
          "ticks": 157200,
          "time": 172.36816249999998,
          "velocity": 0.905511811023622
        },
        {
          "duration": 0.09868406250001271,
          "durationTicks": 90,
          "midi": 65,
          "name": "F4",
          "ticks": 157200,
          "time": 172.36816249999998,
          "velocity": 0.905511811023622
        },
        {
          "duration": 0.10964895833333799,
          "durationTicks": 100,
          "midi": 58,
          "name": "A#3",
          "ticks": 157440,
          "time": 172.63132,
          "velocity": 0.9448818897637795
        },
        {
          "duration": 0.1260963020833401,
          "durationTicks": 115,
          "midi": 63,
          "name": "D#4",
          "ticks": 157440,
          "time": 172.63132,
          "velocity": 0.9448818897637795
        },
        {
          "duration": 0.11513140625001483,
          "durationTicks": 105,
          "midi": 65,
          "name": "F4",
          "ticks": 157440,
          "time": 172.63132,
          "velocity": 0.9448818897637795
        },
        {
          "duration": 0.09868406250001271,
          "durationTicks": 90,
          "midi": 58,
          "name": "A#3",
          "ticks": 157680,
          "time": 172.8944775,
          "velocity": 0.905511811023622
        },
        {
          "duration": 0.10964895833330957,
          "durationTicks": 100,
          "midi": 63,
          "name": "D#4",
          "ticks": 157680,
          "time": 172.8944775,
          "velocity": 0.905511811023622
        },
        {
          "duration": 0.09868406250001271,
          "durationTicks": 90,
          "midi": 65,
          "name": "F4",
          "ticks": 157680,
          "time": 172.8944775,
          "velocity": 0.905511811023622
        },
        {
          "duration": 0.09320161458330745,
          "durationTicks": 85,
          "midi": 58,
          "name": "A#3",
          "ticks": 157920,
          "time": 173.157635,
          "velocity": 0.905511811023622
        },
        {
          "duration": 0.12061385416666326,
          "durationTicks": 110,
          "midi": 63,
          "name": "D#4",
          "ticks": 157920,
          "time": 173.157635,
          "velocity": 0.905511811023622
        },
        {
          "duration": 0.09868406249998429,
          "durationTicks": 90,
          "midi": 65,
          "name": "F4",
          "ticks": 157920,
          "time": 173.157635,
          "velocity": 0.905511811023622
        },
        {
          "duration": 0.10964895833330957,
          "durationTicks": 100,
          "midi": 58,
          "name": "A#3",
          "ticks": 158160,
          "time": 173.4207925,
          "velocity": 0.905511811023622
        },
        {
          "duration": 0.13157874999998853,
          "durationTicks": 120,
          "midi": 63,
          "name": "D#4",
          "ticks": 158160,
          "time": 173.4207925,
          "velocity": 0.905511811023622
        },
        {
          "duration": 0.10964895833330957,
          "durationTicks": 100,
          "midi": 65,
          "name": "F4",
          "ticks": 158160,
          "time": 173.4207925,
          "velocity": 0.905511811023622
        },
        {
          "duration": 0.11513140625001483,
          "durationTicks": 105,
          "midi": 58,
          "name": "A#3",
          "ticks": 158400,
          "time": 173.68394999999998,
          "velocity": 1
        },
        {
          "duration": 0.11513140625001483,
          "durationTicks": 105,
          "midi": 60,
          "name": "C4",
          "ticks": 158400,
          "time": 173.68394999999998,
          "velocity": 1
        },
        {
          "duration": 0.1260963020833401,
          "durationTicks": 115,
          "midi": 65,
          "name": "F4",
          "ticks": 158400,
          "time": 173.68394999999998,
          "velocity": 1
        },
        {
          "duration": 0.09320161458333587,
          "durationTicks": 85,
          "midi": 58,
          "name": "A#3",
          "ticks": 158640,
          "time": 173.9471075,
          "velocity": 0.905511811023622
        },
        {
          "duration": 0.10964895833333799,
          "durationTicks": 100,
          "midi": 60,
          "name": "C4",
          "ticks": 158640,
          "time": 173.9471075,
          "velocity": 0.905511811023622
        },
        {
          "duration": 0.11513140625001483,
          "durationTicks": 105,
          "midi": 65,
          "name": "F4",
          "ticks": 158640,
          "time": 173.9471075,
          "velocity": 0.905511811023622
        },
        {
          "duration": 0.11513140624998641,
          "durationTicks": 105,
          "midi": 58,
          "name": "A#3",
          "ticks": 158880,
          "time": 174.210265,
          "velocity": 0.905511811023622
        },
        {
          "duration": 0.11513140624998641,
          "durationTicks": 105,
          "midi": 60,
          "name": "C4",
          "ticks": 158880,
          "time": 174.210265,
          "velocity": 0.905511811023622
        },
        {
          "duration": 0.11513140624998641,
          "durationTicks": 105,
          "midi": 65,
          "name": "F4",
          "ticks": 158880,
          "time": 174.210265,
          "velocity": 0.905511811023622
        },
        {
          "duration": 0.08771916666665902,
          "durationTicks": 80,
          "midi": 58,
          "name": "A#3",
          "ticks": 159120,
          "time": 174.4734225,
          "velocity": 0.905511811023622
        },
        {
          "duration": 0.10964895833330957,
          "durationTicks": 100,
          "midi": 60,
          "name": "C4",
          "ticks": 159120,
          "time": 174.4734225,
          "velocity": 0.905511811023622
        },
        {
          "duration": 0.09868406249998429,
          "durationTicks": 90,
          "midi": 65,
          "name": "F4",
          "ticks": 159120,
          "time": 174.4734225,
          "velocity": 0.905511811023622
        },
        {
          "duration": 0.10964895833330957,
          "durationTicks": 100,
          "midi": 58,
          "name": "A#3",
          "ticks": 159360,
          "time": 174.73658,
          "velocity": 0.9448818897637795
        },
        {
          "duration": 0.12609630208331168,
          "durationTicks": 115,
          "midi": 60,
          "name": "C4",
          "ticks": 159360,
          "time": 174.73658,
          "velocity": 0.9448818897637795
        },
        {
          "duration": 0.11513140624998641,
          "durationTicks": 105,
          "midi": 65,
          "name": "F4",
          "ticks": 159360,
          "time": 174.73658,
          "velocity": 0.9448818897637795
        },
        {
          "duration": 0.09868406250001271,
          "durationTicks": 90,
          "midi": 58,
          "name": "A#3",
          "ticks": 159600,
          "time": 174.99973749999998,
          "velocity": 0.905511811023622
        },
        {
          "duration": 0.10964895833333799,
          "durationTicks": 100,
          "midi": 60,
          "name": "C4",
          "ticks": 159600,
          "time": 174.99973749999998,
          "velocity": 0.905511811023622
        },
        {
          "duration": 0.09868406250001271,
          "durationTicks": 90,
          "midi": 65,
          "name": "F4",
          "ticks": 159600,
          "time": 174.99973749999998,
          "velocity": 0.905511811023622
        },
        {
          "duration": 0.09320161458333587,
          "durationTicks": 85,
          "midi": 58,
          "name": "A#3",
          "ticks": 159840,
          "time": 175.262895,
          "velocity": 0.905511811023622
        },
        {
          "duration": 0.12061385416669168,
          "durationTicks": 110,
          "midi": 60,
          "name": "C4",
          "ticks": 159840,
          "time": 175.262895,
          "velocity": 0.905511811023622
        },
        {
          "duration": 0.09868406250001271,
          "durationTicks": 90,
          "midi": 65,
          "name": "F4",
          "ticks": 159840,
          "time": 175.262895,
          "velocity": 0.905511811023622
        },
        {
          "duration": 0.10964895833333799,
          "durationTicks": 100,
          "midi": 58,
          "name": "A#3",
          "ticks": 160080,
          "time": 175.5260525,
          "velocity": 0.905511811023622
        },
        {
          "duration": 0.13157874999998853,
          "durationTicks": 120,
          "midi": 60,
          "name": "C4",
          "ticks": 160080,
          "time": 175.5260525,
          "velocity": 0.905511811023622
        },
        {
          "duration": 0.10964895833333799,
          "durationTicks": 100,
          "midi": 65,
          "name": "F4",
          "ticks": 160080,
          "time": 175.5260525,
          "velocity": 0.905511811023622
        },
        {
          "duration": 0.11513140624998641,
          "durationTicks": 105,
          "midi": 60,
          "name": "C4",
          "ticks": 160320,
          "time": 175.78921,
          "velocity": 1
        },
        {
          "duration": 0.11513140624998641,
          "durationTicks": 105,
          "midi": 61,
          "name": "C#4",
          "ticks": 160320,
          "time": 175.78921,
          "velocity": 1
        },
        {
          "duration": 0.12609630208331168,
          "durationTicks": 115,
          "midi": 65,
          "name": "F4",
          "ticks": 160320,
          "time": 175.78921,
          "velocity": 1
        },
        {
          "duration": 0.09320161458330745,
          "durationTicks": 85,
          "midi": 60,
          "name": "C4",
          "ticks": 160560,
          "time": 176.0523675,
          "velocity": 0.905511811023622
        },
        {
          "duration": 0.10964895833330957,
          "durationTicks": 100,
          "midi": 61,
          "name": "C#4",
          "ticks": 160560,
          "time": 176.0523675,
          "velocity": 0.905511811023622
        },
        {
          "duration": 0.11513140624998641,
          "durationTicks": 105,
          "midi": 65,
          "name": "F4",
          "ticks": 160560,
          "time": 176.0523675,
          "velocity": 0.905511811023622
        },
        {
          "duration": 0.11513140625001483,
          "durationTicks": 105,
          "midi": 60,
          "name": "C4",
          "ticks": 160800,
          "time": 176.31552499999998,
          "velocity": 0.905511811023622
        },
        {
          "duration": 0.11513140625001483,
          "durationTicks": 105,
          "midi": 61,
          "name": "C#4",
          "ticks": 160800,
          "time": 176.31552499999998,
          "velocity": 0.905511811023622
        },
        {
          "duration": 0.11513140625001483,
          "durationTicks": 105,
          "midi": 65,
          "name": "F4",
          "ticks": 160800,
          "time": 176.31552499999998,
          "velocity": 0.905511811023622
        },
        {
          "duration": 0.08771916666668744,
          "durationTicks": 80,
          "midi": 60,
          "name": "C4",
          "ticks": 161040,
          "time": 176.57868249999999,
          "velocity": 0.905511811023622
        },
        {
          "duration": 0.10964895833333799,
          "durationTicks": 100,
          "midi": 61,
          "name": "C#4",
          "ticks": 161040,
          "time": 176.57868249999999,
          "velocity": 0.905511811023622
        },
        {
          "duration": 0.09868406250001271,
          "durationTicks": 90,
          "midi": 65,
          "name": "F4",
          "ticks": 161040,
          "time": 176.57868249999999,
          "velocity": 0.905511811023622
        },
        {
          "duration": 0.10964895833333799,
          "durationTicks": 100,
          "midi": 60,
          "name": "C4",
          "ticks": 161280,
          "time": 176.84184,
          "velocity": 0.9448818897637795
        },
        {
          "duration": 0.12609630208331168,
          "durationTicks": 115,
          "midi": 61,
          "name": "C#4",
          "ticks": 161280,
          "time": 176.84184,
          "velocity": 0.9448818897637795
        },
        {
          "duration": 0.11513140625001483,
          "durationTicks": 105,
          "midi": 65,
          "name": "F4",
          "ticks": 161280,
          "time": 176.84184,
          "velocity": 0.9448818897637795
        },
        {
          "duration": 0.09868406249998429,
          "durationTicks": 90,
          "midi": 60,
          "name": "C4",
          "ticks": 161520,
          "time": 177.1049975,
          "velocity": 0.905511811023622
        },
        {
          "duration": 0.10964895833330957,
          "durationTicks": 100,
          "midi": 61,
          "name": "C#4",
          "ticks": 161520,
          "time": 177.1049975,
          "velocity": 0.905511811023622
        },
        {
          "duration": 0.09868406249998429,
          "durationTicks": 90,
          "midi": 65,
          "name": "F4",
          "ticks": 161520,
          "time": 177.1049975,
          "velocity": 0.905511811023622
        },
        {
          "duration": 0.09320161458330745,
          "durationTicks": 85,
          "midi": 60,
          "name": "C4",
          "ticks": 161760,
          "time": 177.368155,
          "velocity": 0.905511811023622
        },
        {
          "duration": 0.12061385416666326,
          "durationTicks": 110,
          "midi": 61,
          "name": "C#4",
          "ticks": 161760,
          "time": 177.368155,
          "velocity": 0.905511811023622
        },
        {
          "duration": 0.09868406249998429,
          "durationTicks": 90,
          "midi": 65,
          "name": "F4",
          "ticks": 161760,
          "time": 177.368155,
          "velocity": 0.905511811023622
        },
        {
          "duration": 0.10964895833333799,
          "durationTicks": 100,
          "midi": 60,
          "name": "C4",
          "ticks": 162000,
          "time": 177.63131249999998,
          "velocity": 0.905511811023622
        },
        {
          "duration": 0.13157875000001695,
          "durationTicks": 120,
          "midi": 61,
          "name": "C#4",
          "ticks": 162000,
          "time": 177.63131249999998,
          "velocity": 0.905511811023622
        },
        {
          "duration": 0.10964895833333799,
          "durationTicks": 100,
          "midi": 65,
          "name": "F4",
          "ticks": 162000,
          "time": 177.63131249999998,
          "velocity": 0.905511811023622
        },
        {
          "duration": 0.4385958333333235,
          "durationTicks": 400,
          "midi": 58,
          "name": "A#3",
          "ticks": 162720,
          "time": 178.420785,
          "velocity": 0.9448818897637795
        },
        {
          "duration": 0.45504317708332565,
          "durationTicks": 415,
          "midi": 61,
          "name": "C#4",
          "ticks": 162720,
          "time": 178.420785,
          "velocity": 0.9448818897637795
        },
        {
          "duration": 0.4440782812500004,
          "durationTicks": 405,
          "midi": 65,
          "name": "F4",
          "ticks": 162720,
          "time": 178.420785,
          "velocity": 0.9448818897637795
        },
        {
          "duration": 0.4221484895833214,
          "durationTicks": 385,
          "midi": 56,
          "name": "G#3",
          "ticks": 163200,
          "time": 178.9471,
          "velocity": 0.905511811023622
        },
        {
          "duration": 0.4495607291666488,
          "durationTicks": 410,
          "midi": 60,
          "name": "C4",
          "ticks": 163200,
          "time": 178.9471,
          "velocity": 0.905511811023622
        },
        {
          "duration": 0.42763093749999825,
          "durationTicks": 390,
          "midi": 65,
          "name": "F4",
          "ticks": 163200,
          "time": 178.9471,
          "velocity": 0.905511811023622
        },
        {
          "duration": 0.4221484895833214,
          "durationTicks": 385,
          "midi": 56,
          "name": "G#3",
          "ticks": 163680,
          "time": 179.473415,
          "velocity": 0.905511811023622
        },
        {
          "duration": 0.4495607291666772,
          "durationTicks": 410,
          "midi": 60,
          "name": "C4",
          "ticks": 163680,
          "time": 179.473415,
          "velocity": 0.905511811023622
        },
        {
          "duration": 0.42763093749999825,
          "durationTicks": 390,
          "midi": 65,
          "name": "F4",
          "ticks": 163680,
          "time": 179.473415,
          "velocity": 0.905511811023622
        },
        {
          "duration": 0.12061385416666326,
          "durationTicks": 110,
          "midi": 58,
          "name": "A#3",
          "ticks": 164160,
          "time": 179.99973,
          "velocity": 1
        },
        {
          "duration": 0.12061385416666326,
          "durationTicks": 110,
          "midi": 63,
          "name": "D#4",
          "ticks": 164160,
          "time": 179.99973,
          "velocity": 1
        },
        {
          "duration": 0.13157874999998853,
          "durationTicks": 120,
          "midi": 65,
          "name": "F4",
          "ticks": 164160,
          "time": 179.99973,
          "velocity": 1
        },
        {
          "duration": 0.09868406249998429,
          "durationTicks": 90,
          "midi": 58,
          "name": "A#3",
          "ticks": 164400,
          "time": 180.2628875,
          "velocity": 0.905511811023622
        },
        {
          "duration": 0.11513140624998641,
          "durationTicks": 105,
          "midi": 63,
          "name": "D#4",
          "ticks": 164400,
          "time": 180.2628875,
          "velocity": 0.905511811023622
        },
        {
          "duration": 0.12061385416666326,
          "durationTicks": 110,
          "midi": 65,
          "name": "F4",
          "ticks": 164400,
          "time": 180.2628875,
          "velocity": 0.905511811023622
        },
        {
          "duration": 0.11513140625001483,
          "durationTicks": 105,
          "midi": 58,
          "name": "A#3",
          "ticks": 164640,
          "time": 180.52604499999998,
          "velocity": 0.905511811023622
        },
        {
          "duration": 0.12061385416669168,
          "durationTicks": 110,
          "midi": 63,
          "name": "D#4",
          "ticks": 164640,
          "time": 180.52604499999998,
          "velocity": 0.905511811023622
        },
        {
          "duration": 0.12061385416669168,
          "durationTicks": 110,
          "midi": 65,
          "name": "F4",
          "ticks": 164640,
          "time": 180.52604499999998,
          "velocity": 0.905511811023622
        },
        {
          "duration": 0.09320161458333587,
          "durationTicks": 85,
          "midi": 58,
          "name": "A#3",
          "ticks": 164880,
          "time": 180.7892025,
          "velocity": 0.905511811023622
        },
        {
          "duration": 0.11513140625001483,
          "durationTicks": 105,
          "midi": 63,
          "name": "D#4",
          "ticks": 164880,
          "time": 180.7892025,
          "velocity": 0.905511811023622
        },
        {
          "duration": 0.10416651041668956,
          "durationTicks": 95,
          "midi": 65,
          "name": "F4",
          "ticks": 164880,
          "time": 180.7892025,
          "velocity": 0.905511811023622
        },
        {
          "duration": 0.11513140624998641,
          "durationTicks": 105,
          "midi": 58,
          "name": "A#3",
          "ticks": 165120,
          "time": 181.05236,
          "velocity": 0.9448818897637795
        },
        {
          "duration": 0.13157874999998853,
          "durationTicks": 120,
          "midi": 63,
          "name": "D#4",
          "ticks": 165120,
          "time": 181.05236,
          "velocity": 0.9448818897637795
        },
        {
          "duration": 0.12061385416666326,
          "durationTicks": 110,
          "midi": 65,
          "name": "F4",
          "ticks": 165120,
          "time": 181.05236,
          "velocity": 0.9448818897637795
        },
        {
          "duration": 0.10416651041666114,
          "durationTicks": 95,
          "midi": 58,
          "name": "A#3",
          "ticks": 165360,
          "time": 181.3155175,
          "velocity": 0.905511811023622
        },
        {
          "duration": 0.11513140624998641,
          "durationTicks": 105,
          "midi": 63,
          "name": "D#4",
          "ticks": 165360,
          "time": 181.3155175,
          "velocity": 0.905511811023622
        },
        {
          "duration": 0.10416651041666114,
          "durationTicks": 95,
          "midi": 65,
          "name": "F4",
          "ticks": 165360,
          "time": 181.3155175,
          "velocity": 0.905511811023622
        },
        {
          "duration": 0.09868406249998429,
          "durationTicks": 90,
          "midi": 58,
          "name": "A#3",
          "ticks": 165600,
          "time": 181.578675,
          "velocity": 0.905511811023622
        },
        {
          "duration": 0.12061385416666326,
          "durationTicks": 110,
          "midi": 63,
          "name": "D#4",
          "ticks": 165600,
          "time": 181.578675,
          "velocity": 0.905511811023622
        },
        {
          "duration": 0.10416651041666114,
          "durationTicks": 95,
          "midi": 65,
          "name": "F4",
          "ticks": 165600,
          "time": 181.578675,
          "velocity": 0.905511811023622
        },
        {
          "duration": 0.10964895833333799,
          "durationTicks": 100,
          "midi": 58,
          "name": "A#3",
          "ticks": 165840,
          "time": 181.84183249999998,
          "velocity": 0.905511811023622
        },
        {
          "duration": 0.1370611979166938,
          "durationTicks": 125,
          "midi": 63,
          "name": "D#4",
          "ticks": 165840,
          "time": 181.84183249999998,
          "velocity": 0.905511811023622
        },
        {
          "duration": 0.10964895833333799,
          "durationTicks": 100,
          "midi": 65,
          "name": "F4",
          "ticks": 165840,
          "time": 181.84183249999998,
          "velocity": 0.905511811023622
        },
        {
          "duration": 0.12061385416669168,
          "durationTicks": 110,
          "midi": 58,
          "name": "A#3",
          "ticks": 166080,
          "time": 182.10499,
          "velocity": 1
        },
        {
          "duration": 0.12061385416669168,
          "durationTicks": 110,
          "midi": 60,
          "name": "C4",
          "ticks": 166080,
          "time": 182.10499,
          "velocity": 1
        },
        {
          "duration": 0.13157875000001695,
          "durationTicks": 120,
          "midi": 65,
          "name": "F4",
          "ticks": 166080,
          "time": 182.10499,
          "velocity": 1
        },
        {
          "duration": 0.09868406250001271,
          "durationTicks": 90,
          "midi": 58,
          "name": "A#3",
          "ticks": 166320,
          "time": 182.3681475,
          "velocity": 0.905511811023622
        },
        {
          "duration": 0.11513140624998641,
          "durationTicks": 105,
          "midi": 60,
          "name": "C4",
          "ticks": 166320,
          "time": 182.3681475,
          "velocity": 0.905511811023622
        },
        {
          "duration": 0.12061385416666326,
          "durationTicks": 110,
          "midi": 65,
          "name": "F4",
          "ticks": 166320,
          "time": 182.3681475,
          "velocity": 0.905511811023622
        },
        {
          "duration": 0.11513140624998641,
          "durationTicks": 105,
          "midi": 58,
          "name": "A#3",
          "ticks": 166560,
          "time": 182.631305,
          "velocity": 0.905511811023622
        },
        {
          "duration": 0.12061385416666326,
          "durationTicks": 110,
          "midi": 60,
          "name": "C4",
          "ticks": 166560,
          "time": 182.631305,
          "velocity": 0.905511811023622
        },
        {
          "duration": 0.12061385416666326,
          "durationTicks": 110,
          "midi": 65,
          "name": "F4",
          "ticks": 166560,
          "time": 182.631305,
          "velocity": 0.905511811023622
        },
        {
          "duration": 0.09320161458330745,
          "durationTicks": 85,
          "midi": 58,
          "name": "A#3",
          "ticks": 166800,
          "time": 182.8944625,
          "velocity": 0.905511811023622
        },
        {
          "duration": 0.11513140624998641,
          "durationTicks": 105,
          "midi": 60,
          "name": "C4",
          "ticks": 166800,
          "time": 182.8944625,
          "velocity": 0.905511811023622
        },
        {
          "duration": 0.10416651041666114,
          "durationTicks": 95,
          "midi": 65,
          "name": "F4",
          "ticks": 166800,
          "time": 182.8944625,
          "velocity": 0.905511811023622
        },
        {
          "duration": 0.11513140625001483,
          "durationTicks": 105,
          "midi": 58,
          "name": "A#3",
          "ticks": 167040,
          "time": 183.15761999999998,
          "velocity": 0.9448818897637795
        },
        {
          "duration": 0.13157875000001695,
          "durationTicks": 120,
          "midi": 60,
          "name": "C4",
          "ticks": 167040,
          "time": 183.15761999999998,
          "velocity": 0.9448818897637795
        },
        {
          "duration": 0.12061385416669168,
          "durationTicks": 110,
          "midi": 65,
          "name": "F4",
          "ticks": 167040,
          "time": 183.15761999999998,
          "velocity": 0.9448818897637795
        },
        {
          "duration": 0.10416651041668956,
          "durationTicks": 95,
          "midi": 58,
          "name": "A#3",
          "ticks": 167280,
          "time": 183.42077749999999,
          "velocity": 0.905511811023622
        },
        {
          "duration": 0.11513140625001483,
          "durationTicks": 105,
          "midi": 60,
          "name": "C4",
          "ticks": 167280,
          "time": 183.42077749999999,
          "velocity": 0.905511811023622
        },
        {
          "duration": 0.10416651041668956,
          "durationTicks": 95,
          "midi": 65,
          "name": "F4",
          "ticks": 167280,
          "time": 183.42077749999999,
          "velocity": 0.905511811023622
        },
        {
          "duration": 0.09868406250001271,
          "durationTicks": 90,
          "midi": 58,
          "name": "A#3",
          "ticks": 167520,
          "time": 183.683935,
          "velocity": 0.905511811023622
        },
        {
          "duration": 0.12061385416669168,
          "durationTicks": 110,
          "midi": 60,
          "name": "C4",
          "ticks": 167520,
          "time": 183.683935,
          "velocity": 0.905511811023622
        },
        {
          "duration": 0.10416651041668956,
          "durationTicks": 95,
          "midi": 65,
          "name": "F4",
          "ticks": 167520,
          "time": 183.683935,
          "velocity": 0.905511811023622
        },
        {
          "duration": 0.10964895833330957,
          "durationTicks": 100,
          "midi": 58,
          "name": "A#3",
          "ticks": 167760,
          "time": 183.9470925,
          "velocity": 0.905511811023622
        },
        {
          "duration": 0.13706119791666538,
          "durationTicks": 125,
          "midi": 60,
          "name": "C4",
          "ticks": 167760,
          "time": 183.9470925,
          "velocity": 0.905511811023622
        },
        {
          "duration": 0.10964895833330957,
          "durationTicks": 100,
          "midi": 65,
          "name": "F4",
          "ticks": 167760,
          "time": 183.9470925,
          "velocity": 0.905511811023622
        },
        {
          "duration": 0.12061385416666326,
          "durationTicks": 110,
          "midi": 60,
          "name": "C4",
          "ticks": 168000,
          "time": 184.21025,
          "velocity": 1
        },
        {
          "duration": 0.12061385416666326,
          "durationTicks": 110,
          "midi": 61,
          "name": "C#4",
          "ticks": 168000,
          "time": 184.21025,
          "velocity": 1
        },
        {
          "duration": 0.13157874999998853,
          "durationTicks": 120,
          "midi": 65,
          "name": "F4",
          "ticks": 168000,
          "time": 184.21025,
          "velocity": 1
        },
        {
          "duration": 0.09868406250001271,
          "durationTicks": 90,
          "midi": 60,
          "name": "C4",
          "ticks": 168240,
          "time": 184.47340749999998,
          "velocity": 0.905511811023622
        },
        {
          "duration": 0.11513140625001483,
          "durationTicks": 105,
          "midi": 61,
          "name": "C#4",
          "ticks": 168240,
          "time": 184.47340749999998,
          "velocity": 0.905511811023622
        },
        {
          "duration": 0.12061385416669168,
          "durationTicks": 110,
          "midi": 65,
          "name": "F4",
          "ticks": 168240,
          "time": 184.47340749999998,
          "velocity": 0.905511811023622
        },
        {
          "duration": 0.11513140625001483,
          "durationTicks": 105,
          "midi": 60,
          "name": "C4",
          "ticks": 168480,
          "time": 184.73656499999998,
          "velocity": 0.905511811023622
        },
        {
          "duration": 0.12061385416669168,
          "durationTicks": 110,
          "midi": 61,
          "name": "C#4",
          "ticks": 168480,
          "time": 184.73656499999998,
          "velocity": 0.905511811023622
        },
        {
          "duration": 0.12061385416669168,
          "durationTicks": 110,
          "midi": 65,
          "name": "F4",
          "ticks": 168480,
          "time": 184.73656499999998,
          "velocity": 0.905511811023622
        },
        {
          "duration": 0.09320161458333587,
          "durationTicks": 85,
          "midi": 60,
          "name": "C4",
          "ticks": 168720,
          "time": 184.9997225,
          "velocity": 0.905511811023622
        },
        {
          "duration": 0.11513140625001483,
          "durationTicks": 105,
          "midi": 61,
          "name": "C#4",
          "ticks": 168720,
          "time": 184.9997225,
          "velocity": 0.905511811023622
        },
        {
          "duration": 0.10416651041668956,
          "durationTicks": 95,
          "midi": 65,
          "name": "F4",
          "ticks": 168720,
          "time": 184.9997225,
          "velocity": 0.905511811023622
        },
        {
          "duration": 0.11513140624998641,
          "durationTicks": 105,
          "midi": 60,
          "name": "C4",
          "ticks": 168960,
          "time": 185.26288,
          "velocity": 0.9448818897637795
        },
        {
          "duration": 0.13157874999998853,
          "durationTicks": 120,
          "midi": 61,
          "name": "C#4",
          "ticks": 168960,
          "time": 185.26288,
          "velocity": 0.9448818897637795
        },
        {
          "duration": 0.12061385416666326,
          "durationTicks": 110,
          "midi": 65,
          "name": "F4",
          "ticks": 168960,
          "time": 185.26288,
          "velocity": 0.9448818897637795
        },
        {
          "duration": 0.10416651041666114,
          "durationTicks": 95,
          "midi": 60,
          "name": "C4",
          "ticks": 169200,
          "time": 185.5260375,
          "velocity": 0.905511811023622
        },
        {
          "duration": 0.11513140624998641,
          "durationTicks": 105,
          "midi": 61,
          "name": "C#4",
          "ticks": 169200,
          "time": 185.5260375,
          "velocity": 0.905511811023622
        },
        {
          "duration": 0.10416651041666114,
          "durationTicks": 95,
          "midi": 65,
          "name": "F4",
          "ticks": 169200,
          "time": 185.5260375,
          "velocity": 0.905511811023622
        },
        {
          "duration": 0.09868406250001271,
          "durationTicks": 90,
          "midi": 60,
          "name": "C4",
          "ticks": 169440,
          "time": 185.78919499999998,
          "velocity": 0.905511811023622
        },
        {
          "duration": 0.12061385416669168,
          "durationTicks": 110,
          "midi": 61,
          "name": "C#4",
          "ticks": 169440,
          "time": 185.78919499999998,
          "velocity": 0.905511811023622
        },
        {
          "duration": 0.10416651041668956,
          "durationTicks": 95,
          "midi": 65,
          "name": "F4",
          "ticks": 169440,
          "time": 185.78919499999998,
          "velocity": 0.905511811023622
        },
        {
          "duration": 0.10964895833333799,
          "durationTicks": 100,
          "midi": 60,
          "name": "C4",
          "ticks": 169680,
          "time": 186.05235249999998,
          "velocity": 0.905511811023622
        },
        {
          "duration": 0.1370611979166938,
          "durationTicks": 125,
          "midi": 61,
          "name": "C#4",
          "ticks": 169680,
          "time": 186.05235249999998,
          "velocity": 0.905511811023622
        },
        {
          "duration": 0.10964895833333799,
          "durationTicks": 100,
          "midi": 65,
          "name": "F4",
          "ticks": 169680,
          "time": 186.05235249999998,
          "velocity": 0.905511811023622
        },
        {
          "duration": 0.11513140625001483,
          "durationTicks": 105,
          "midi": 60,
          "name": "C4",
          "ticks": 169920,
          "time": 186.31551,
          "velocity": 0.9448818897637795
        },
        {
          "duration": 0.1260963020833401,
          "durationTicks": 115,
          "midi": 61,
          "name": "C#4",
          "ticks": 169920,
          "time": 186.31551,
          "velocity": 0.9448818897637795
        },
        {
          "duration": 0.12061385416669168,
          "durationTicks": 110,
          "midi": 65,
          "name": "F4",
          "ticks": 169920,
          "time": 186.31551,
          "velocity": 0.9448818897637795
        },
        {
          "duration": 0.10416651041666114,
          "durationTicks": 95,
          "midi": 60,
          "name": "C4",
          "ticks": 170160,
          "time": 186.5786675,
          "velocity": 0.905511811023622
        },
        {
          "duration": 0.11513140624998641,
          "durationTicks": 105,
          "midi": 61,
          "name": "C#4",
          "ticks": 170160,
          "time": 186.5786675,
          "velocity": 0.905511811023622
        },
        {
          "duration": 0.10416651041666114,
          "durationTicks": 95,
          "midi": 65,
          "name": "F4",
          "ticks": 170160,
          "time": 186.5786675,
          "velocity": 0.905511811023622
        },
        {
          "duration": 0.09320161458330745,
          "durationTicks": 85,
          "midi": 60,
          "name": "C4",
          "ticks": 170400,
          "time": 186.841825,
          "velocity": 0.905511811023622
        },
        {
          "duration": 0.12061385416666326,
          "durationTicks": 110,
          "midi": 61,
          "name": "C#4",
          "ticks": 170400,
          "time": 186.841825,
          "velocity": 0.905511811023622
        },
        {
          "duration": 0.10416651041666114,
          "durationTicks": 95,
          "midi": 65,
          "name": "F4",
          "ticks": 170400,
          "time": 186.841825,
          "velocity": 0.905511811023622
        },
        {
          "duration": 0.10964895833330957,
          "durationTicks": 100,
          "midi": 60,
          "name": "C4",
          "ticks": 170640,
          "time": 187.1049825,
          "velocity": 0.905511811023622
        },
        {
          "duration": 0.13706119791666538,
          "durationTicks": 125,
          "midi": 61,
          "name": "C#4",
          "ticks": 170640,
          "time": 187.1049825,
          "velocity": 0.905511811023622
        },
        {
          "duration": 0.10964895833330957,
          "durationTicks": 100,
          "midi": 65,
          "name": "F4",
          "ticks": 170640,
          "time": 187.1049825,
          "velocity": 0.905511811023622
        },
        {
          "duration": 0.42763093749999825,
          "durationTicks": 390,
          "midi": 56,
          "name": "G#3",
          "ticks": 170880,
          "time": 187.36813999999998,
          "velocity": 0.905511811023622
        },
        {
          "duration": 0.4495607291666772,
          "durationTicks": 410,
          "midi": 60,
          "name": "C4",
          "ticks": 170880,
          "time": 187.36813999999998,
          "velocity": 0.905511811023622
        },
        {
          "duration": 0.4331133854166751,
          "durationTicks": 395,
          "midi": 63,
          "name": "D#4",
          "ticks": 170880,
          "time": 187.36813999999998,
          "velocity": 0.905511811023622
        },
        {
          "duration": 0.4331133854166751,
          "durationTicks": 395,
          "midi": 65,
          "name": "F4",
          "ticks": 170880,
          "time": 187.36813999999998,
          "velocity": 0.905511811023622
        },
        {
          "duration": 0.42763093749999825,
          "durationTicks": 390,
          "midi": 56,
          "name": "G#3",
          "ticks": 171360,
          "time": 187.894455,
          "velocity": 0.905511811023622
        },
        {
          "duration": 0.4495607291666772,
          "durationTicks": 410,
          "midi": 60,
          "name": "C4",
          "ticks": 171360,
          "time": 187.894455,
          "velocity": 0.905511811023622
        },
        {
          "duration": 0.4331133854166751,
          "durationTicks": 395,
          "midi": 63,
          "name": "D#4",
          "ticks": 171360,
          "time": 187.894455,
          "velocity": 0.905511811023622
        },
        {
          "duration": 0.4331133854166751,
          "durationTicks": 395,
          "midi": 65,
          "name": "F4",
          "ticks": 171360,
          "time": 187.894455,
          "velocity": 0.905511811023622
        },
        {
          "duration": 0.11513140624998641,
          "durationTicks": 105,
          "midi": 58,
          "name": "A#3",
          "ticks": 171840,
          "time": 188.42077,
          "velocity": 1
        },
        {
          "duration": 0.11513140624998641,
          "durationTicks": 105,
          "midi": 63,
          "name": "D#4",
          "ticks": 171840,
          "time": 188.42077,
          "velocity": 1
        },
        {
          "duration": 0.12609630208331168,
          "durationTicks": 115,
          "midi": 65,
          "name": "F4",
          "ticks": 171840,
          "time": 188.42077,
          "velocity": 1
        },
        {
          "duration": 0.09320161458333587,
          "durationTicks": 85,
          "midi": 58,
          "name": "A#3",
          "ticks": 172080,
          "time": 188.68392749999998,
          "velocity": 0.905511811023622
        },
        {
          "duration": 0.10964895833333799,
          "durationTicks": 100,
          "midi": 63,
          "name": "D#4",
          "ticks": 172080,
          "time": 188.68392749999998,
          "velocity": 0.905511811023622
        },
        {
          "duration": 0.11513140625001483,
          "durationTicks": 105,
          "midi": 65,
          "name": "F4",
          "ticks": 172080,
          "time": 188.68392749999998,
          "velocity": 0.905511811023622
        },
        {
          "duration": 0.11513140625001483,
          "durationTicks": 105,
          "midi": 58,
          "name": "A#3",
          "ticks": 172320,
          "time": 188.947085,
          "velocity": 0.905511811023622
        },
        {
          "duration": 0.11513140625001483,
          "durationTicks": 105,
          "midi": 63,
          "name": "D#4",
          "ticks": 172320,
          "time": 188.947085,
          "velocity": 0.905511811023622
        },
        {
          "duration": 0.11513140625001483,
          "durationTicks": 105,
          "midi": 65,
          "name": "F4",
          "ticks": 172320,
          "time": 188.947085,
          "velocity": 0.905511811023622
        },
        {
          "duration": 0.08771916666668744,
          "durationTicks": 80,
          "midi": 58,
          "name": "A#3",
          "ticks": 172560,
          "time": 189.2102425,
          "velocity": 0.905511811023622
        },
        {
          "duration": 0.10964895833330957,
          "durationTicks": 100,
          "midi": 63,
          "name": "D#4",
          "ticks": 172560,
          "time": 189.2102425,
          "velocity": 0.905511811023622
        },
        {
          "duration": 0.09868406250001271,
          "durationTicks": 90,
          "midi": 65,
          "name": "F4",
          "ticks": 172560,
          "time": 189.2102425,
          "velocity": 0.905511811023622
        },
        {
          "duration": 0.10964895833330957,
          "durationTicks": 100,
          "midi": 58,
          "name": "A#3",
          "ticks": 172800,
          "time": 189.4734,
          "velocity": 0.9448818897637795
        },
        {
          "duration": 0.12609630208331168,
          "durationTicks": 115,
          "midi": 63,
          "name": "D#4",
          "ticks": 172800,
          "time": 189.4734,
          "velocity": 0.9448818897637795
        },
        {
          "duration": 0.11513140624998641,
          "durationTicks": 105,
          "midi": 65,
          "name": "F4",
          "ticks": 172800,
          "time": 189.4734,
          "velocity": 0.9448818897637795
        },
        {
          "duration": 0.09868406249998429,
          "durationTicks": 90,
          "midi": 58,
          "name": "A#3",
          "ticks": 173040,
          "time": 189.7365575,
          "velocity": 0.905511811023622
        },
        {
          "duration": 0.10964895833330957,
          "durationTicks": 100,
          "midi": 63,
          "name": "D#4",
          "ticks": 173040,
          "time": 189.7365575,
          "velocity": 0.905511811023622
        },
        {
          "duration": 0.09868406249998429,
          "durationTicks": 90,
          "midi": 65,
          "name": "F4",
          "ticks": 173040,
          "time": 189.7365575,
          "velocity": 0.905511811023622
        },
        {
          "duration": 0.09320161458333587,
          "durationTicks": 85,
          "midi": 58,
          "name": "A#3",
          "ticks": 173280,
          "time": 189.99971499999998,
          "velocity": 0.905511811023622
        },
        {
          "duration": 0.12061385416669168,
          "durationTicks": 110,
          "midi": 63,
          "name": "D#4",
          "ticks": 173280,
          "time": 189.99971499999998,
          "velocity": 0.905511811023622
        },
        {
          "duration": 0.09868406250001271,
          "durationTicks": 90,
          "midi": 65,
          "name": "F4",
          "ticks": 173280,
          "time": 189.99971499999998,
          "velocity": 0.905511811023622
        },
        {
          "duration": 0.10964895833333799,
          "durationTicks": 100,
          "midi": 58,
          "name": "A#3",
          "ticks": 173520,
          "time": 190.2628725,
          "velocity": 0.905511811023622
        },
        {
          "duration": 0.13157875000001695,
          "durationTicks": 120,
          "midi": 63,
          "name": "D#4",
          "ticks": 173520,
          "time": 190.2628725,
          "velocity": 0.905511811023622
        },
        {
          "duration": 0.10964895833333799,
          "durationTicks": 100,
          "midi": 65,
          "name": "F4",
          "ticks": 173520,
          "time": 190.2628725,
          "velocity": 0.905511811023622
        },
        {
          "duration": 0.11513140624998641,
          "durationTicks": 105,
          "midi": 58,
          "name": "A#3",
          "ticks": 173760,
          "time": 190.52603,
          "velocity": 1
        },
        {
          "duration": 0.11513140624998641,
          "durationTicks": 105,
          "midi": 60,
          "name": "C4",
          "ticks": 173760,
          "time": 190.52603,
          "velocity": 1
        },
        {
          "duration": 0.12609630208331168,
          "durationTicks": 115,
          "midi": 65,
          "name": "F4",
          "ticks": 173760,
          "time": 190.52603,
          "velocity": 1
        },
        {
          "duration": 0.09320161458330745,
          "durationTicks": 85,
          "midi": 58,
          "name": "A#3",
          "ticks": 174000,
          "time": 190.7891875,
          "velocity": 0.905511811023622
        },
        {
          "duration": 0.10964895833330957,
          "durationTicks": 100,
          "midi": 60,
          "name": "C4",
          "ticks": 174000,
          "time": 190.7891875,
          "velocity": 0.905511811023622
        },
        {
          "duration": 0.11513140624998641,
          "durationTicks": 105,
          "midi": 65,
          "name": "F4",
          "ticks": 174000,
          "time": 190.7891875,
          "velocity": 0.905511811023622
        },
        {
          "duration": 0.11513140624998641,
          "durationTicks": 105,
          "midi": 58,
          "name": "A#3",
          "ticks": 174240,
          "time": 191.052345,
          "velocity": 0.905511811023622
        },
        {
          "duration": 0.11513140624998641,
          "durationTicks": 105,
          "midi": 60,
          "name": "C4",
          "ticks": 174240,
          "time": 191.052345,
          "velocity": 0.905511811023622
        },
        {
          "duration": 0.11513140624998641,
          "durationTicks": 105,
          "midi": 65,
          "name": "F4",
          "ticks": 174240,
          "time": 191.052345,
          "velocity": 0.905511811023622
        },
        {
          "duration": 0.08771916666668744,
          "durationTicks": 80,
          "midi": 58,
          "name": "A#3",
          "ticks": 174480,
          "time": 191.31550249999998,
          "velocity": 0.905511811023622
        },
        {
          "duration": 0.10964895833333799,
          "durationTicks": 100,
          "midi": 60,
          "name": "C4",
          "ticks": 174480,
          "time": 191.31550249999998,
          "velocity": 0.905511811023622
        },
        {
          "duration": 0.09868406250001271,
          "durationTicks": 90,
          "midi": 65,
          "name": "F4",
          "ticks": 174480,
          "time": 191.31550249999998,
          "velocity": 0.905511811023622
        },
        {
          "duration": 0.10964895833333799,
          "durationTicks": 100,
          "midi": 58,
          "name": "A#3",
          "ticks": 174720,
          "time": 191.57865999999999,
          "velocity": 0.9448818897637795
        },
        {
          "duration": 0.1260963020833401,
          "durationTicks": 115,
          "midi": 60,
          "name": "C4",
          "ticks": 174720,
          "time": 191.57865999999999,
          "velocity": 0.9448818897637795
        },
        {
          "duration": 0.11513140625001483,
          "durationTicks": 105,
          "midi": 65,
          "name": "F4",
          "ticks": 174720,
          "time": 191.57865999999999,
          "velocity": 0.9448818897637795
        },
        {
          "duration": 0.09868406250001271,
          "durationTicks": 90,
          "midi": 58,
          "name": "A#3",
          "ticks": 174960,
          "time": 191.8418175,
          "velocity": 0.905511811023622
        },
        {
          "duration": 0.10964895833333799,
          "durationTicks": 100,
          "midi": 60,
          "name": "C4",
          "ticks": 174960,
          "time": 191.8418175,
          "velocity": 0.905511811023622
        },
        {
          "duration": 0.09868406250001271,
          "durationTicks": 90,
          "midi": 65,
          "name": "F4",
          "ticks": 174960,
          "time": 191.8418175,
          "velocity": 0.905511811023622
        },
        {
          "duration": 0.09320161458330745,
          "durationTicks": 85,
          "midi": 58,
          "name": "A#3",
          "ticks": 175200,
          "time": 192.104975,
          "velocity": 0.905511811023622
        },
        {
          "duration": 0.12061385416666326,
          "durationTicks": 110,
          "midi": 60,
          "name": "C4",
          "ticks": 175200,
          "time": 192.104975,
          "velocity": 0.905511811023622
        },
        {
          "duration": 0.09868406249998429,
          "durationTicks": 90,
          "midi": 65,
          "name": "F4",
          "ticks": 175200,
          "time": 192.104975,
          "velocity": 0.905511811023622
        },
        {
          "duration": 0.10964895833330957,
          "durationTicks": 100,
          "midi": 58,
          "name": "A#3",
          "ticks": 175440,
          "time": 192.3681325,
          "velocity": 0.905511811023622
        },
        {
          "duration": 0.13157874999998853,
          "durationTicks": 120,
          "midi": 60,
          "name": "C4",
          "ticks": 175440,
          "time": 192.3681325,
          "velocity": 0.905511811023622
        },
        {
          "duration": 0.10964895833330957,
          "durationTicks": 100,
          "midi": 65,
          "name": "F4",
          "ticks": 175440,
          "time": 192.3681325,
          "velocity": 0.905511811023622
        },
        {
          "duration": 0.11513140625001483,
          "durationTicks": 105,
          "midi": 60,
          "name": "C4",
          "ticks": 175680,
          "time": 192.63128999999998,
          "velocity": 1
        },
        {
          "duration": 0.11513140625001483,
          "durationTicks": 105,
          "midi": 61,
          "name": "C#4",
          "ticks": 175680,
          "time": 192.63128999999998,
          "velocity": 1
        },
        {
          "duration": 0.1260963020833401,
          "durationTicks": 115,
          "midi": 65,
          "name": "F4",
          "ticks": 175680,
          "time": 192.63128999999998,
          "velocity": 1
        },
        {
          "duration": 0.09320161458333587,
          "durationTicks": 85,
          "midi": 60,
          "name": "C4",
          "ticks": 175920,
          "time": 192.89444749999998,
          "velocity": 0.905511811023622
        },
        {
          "duration": 0.10964895833333799,
          "durationTicks": 100,
          "midi": 61,
          "name": "C#4",
          "ticks": 175920,
          "time": 192.89444749999998,
          "velocity": 0.905511811023622
        },
        {
          "duration": 0.11513140625001483,
          "durationTicks": 105,
          "midi": 65,
          "name": "F4",
          "ticks": 175920,
          "time": 192.89444749999998,
          "velocity": 0.905511811023622
        },
        {
          "duration": 0.11513140625001483,
          "durationTicks": 105,
          "midi": 60,
          "name": "C4",
          "ticks": 176160,
          "time": 193.157605,
          "velocity": 0.905511811023622
        },
        {
          "duration": 0.11513140625001483,
          "durationTicks": 105,
          "midi": 61,
          "name": "C#4",
          "ticks": 176160,
          "time": 193.157605,
          "velocity": 0.905511811023622
        },
        {
          "duration": 0.11513140625001483,
          "durationTicks": 105,
          "midi": 65,
          "name": "F4",
          "ticks": 176160,
          "time": 193.157605,
          "velocity": 0.905511811023622
        },
        {
          "duration": 0.08771916666668744,
          "durationTicks": 80,
          "midi": 60,
          "name": "C4",
          "ticks": 176400,
          "time": 193.4207625,
          "velocity": 0.905511811023622
        },
        {
          "duration": 0.10964895833330957,
          "durationTicks": 100,
          "midi": 61,
          "name": "C#4",
          "ticks": 176400,
          "time": 193.4207625,
          "velocity": 0.905511811023622
        },
        {
          "duration": 0.09868406249998429,
          "durationTicks": 90,
          "midi": 65,
          "name": "F4",
          "ticks": 176400,
          "time": 193.4207625,
          "velocity": 0.905511811023622
        },
        {
          "duration": 0.10964895833330957,
          "durationTicks": 100,
          "midi": 60,
          "name": "C4",
          "ticks": 176640,
          "time": 193.68392,
          "velocity": 0.9448818897637795
        },
        {
          "duration": 0.12609630208331168,
          "durationTicks": 115,
          "midi": 61,
          "name": "C#4",
          "ticks": 176640,
          "time": 193.68392,
          "velocity": 0.9448818897637795
        },
        {
          "duration": 0.11513140624998641,
          "durationTicks": 105,
          "midi": 65,
          "name": "F4",
          "ticks": 176640,
          "time": 193.68392,
          "velocity": 0.9448818897637795
        },
        {
          "duration": 0.09868406250001271,
          "durationTicks": 90,
          "midi": 60,
          "name": "C4",
          "ticks": 176880,
          "time": 193.94707749999998,
          "velocity": 0.905511811023622
        },
        {
          "duration": 0.10964895833333799,
          "durationTicks": 100,
          "midi": 61,
          "name": "C#4",
          "ticks": 176880,
          "time": 193.94707749999998,
          "velocity": 0.905511811023622
        },
        {
          "duration": 0.09868406250001271,
          "durationTicks": 90,
          "midi": 65,
          "name": "F4",
          "ticks": 176880,
          "time": 193.94707749999998,
          "velocity": 0.905511811023622
        },
        {
          "duration": 0.09320161458333587,
          "durationTicks": 85,
          "midi": 60,
          "name": "C4",
          "ticks": 177120,
          "time": 194.21023499999998,
          "velocity": 0.905511811023622
        },
        {
          "duration": 0.12061385416669168,
          "durationTicks": 110,
          "midi": 61,
          "name": "C#4",
          "ticks": 177120,
          "time": 194.21023499999998,
          "velocity": 0.905511811023622
        },
        {
          "duration": 0.09868406250001271,
          "durationTicks": 90,
          "midi": 65,
          "name": "F4",
          "ticks": 177120,
          "time": 194.21023499999998,
          "velocity": 0.905511811023622
        },
        {
          "duration": 0.10964895833333799,
          "durationTicks": 100,
          "midi": 60,
          "name": "C4",
          "ticks": 177360,
          "time": 194.4733925,
          "velocity": 0.905511811023622
        },
        {
          "duration": 0.13157875000001695,
          "durationTicks": 120,
          "midi": 61,
          "name": "C#4",
          "ticks": 177360,
          "time": 194.4733925,
          "velocity": 0.905511811023622
        },
        {
          "duration": 0.10964895833333799,
          "durationTicks": 100,
          "midi": 65,
          "name": "F4",
          "ticks": 177360,
          "time": 194.4733925,
          "velocity": 0.905511811023622
        },
        {
          "duration": 0.4385958333333235,
          "durationTicks": 400,
          "midi": 58,
          "name": "A#3",
          "ticks": 178080,
          "time": 195.262865,
          "velocity": 0.9448818897637795
        },
        {
          "duration": 0.4550431770832972,
          "durationTicks": 415,
          "midi": 61,
          "name": "C#4",
          "ticks": 178080,
          "time": 195.262865,
          "velocity": 0.9448818897637795
        },
        {
          "duration": 0.4440782812500004,
          "durationTicks": 405,
          "midi": 65,
          "name": "F4",
          "ticks": 178080,
          "time": 195.262865,
          "velocity": 0.9448818897637795
        },
        {
          "duration": 0.4221484895833214,
          "durationTicks": 385,
          "midi": 56,
          "name": "G#3",
          "ticks": 178560,
          "time": 195.78918,
          "velocity": 0.905511811023622
        },
        {
          "duration": 0.4495607291666772,
          "durationTicks": 410,
          "midi": 60,
          "name": "C4",
          "ticks": 178560,
          "time": 195.78918,
          "velocity": 0.905511811023622
        },
        {
          "duration": 0.42763093749999825,
          "durationTicks": 390,
          "midi": 65,
          "name": "F4",
          "ticks": 178560,
          "time": 195.78918,
          "velocity": 0.905511811023622
        },
        {
          "duration": 0.4221484895833214,
          "durationTicks": 385,
          "midi": 56,
          "name": "G#3",
          "ticks": 179040,
          "time": 196.315495,
          "velocity": 0.905511811023622
        },
        {
          "duration": 0.4495607291666772,
          "durationTicks": 410,
          "midi": 60,
          "name": "C4",
          "ticks": 179040,
          "time": 196.315495,
          "velocity": 0.905511811023622
        },
        {
          "duration": 0.42763093749999825,
          "durationTicks": 390,
          "midi": 65,
          "name": "F4",
          "ticks": 179040,
          "time": 196.315495,
          "velocity": 0.905511811023622
        },
        {
          "duration": 0.12061385416669168,
          "durationTicks": 110,
          "midi": 58,
          "name": "A#3",
          "ticks": 179520,
          "time": 196.84180999999998,
          "velocity": 1
        },
        {
          "duration": 0.12061385416669168,
          "durationTicks": 110,
          "midi": 63,
          "name": "D#4",
          "ticks": 179520,
          "time": 196.84180999999998,
          "velocity": 1
        },
        {
          "duration": 0.13157875000001695,
          "durationTicks": 120,
          "midi": 65,
          "name": "F4",
          "ticks": 179520,
          "time": 196.84180999999998,
          "velocity": 1
        },
        {
          "duration": 0.09868406250001271,
          "durationTicks": 90,
          "midi": 58,
          "name": "A#3",
          "ticks": 179760,
          "time": 197.1049675,
          "velocity": 0.905511811023622
        },
        {
          "duration": 0.11513140625001483,
          "durationTicks": 105,
          "midi": 63,
          "name": "D#4",
          "ticks": 179760,
          "time": 197.1049675,
          "velocity": 0.905511811023622
        },
        {
          "duration": 0.12061385416669168,
          "durationTicks": 110,
          "midi": 65,
          "name": "F4",
          "ticks": 179760,
          "time": 197.1049675,
          "velocity": 0.905511811023622
        },
        {
          "duration": 0.11513140624998641,
          "durationTicks": 105,
          "midi": 58,
          "name": "A#3",
          "ticks": 180000,
          "time": 197.368125,
          "velocity": 0.905511811023622
        },
        {
          "duration": 0.12061385416666326,
          "durationTicks": 110,
          "midi": 63,
          "name": "D#4",
          "ticks": 180000,
          "time": 197.368125,
          "velocity": 0.905511811023622
        },
        {
          "duration": 0.12061385416666326,
          "durationTicks": 110,
          "midi": 65,
          "name": "F4",
          "ticks": 180000,
          "time": 197.368125,
          "velocity": 0.905511811023622
        },
        {
          "duration": 0.09320161458330745,
          "durationTicks": 85,
          "midi": 58,
          "name": "A#3",
          "ticks": 180240,
          "time": 197.6312825,
          "velocity": 0.905511811023622
        },
        {
          "duration": 0.11513140624998641,
          "durationTicks": 105,
          "midi": 63,
          "name": "D#4",
          "ticks": 180240,
          "time": 197.6312825,
          "velocity": 0.905511811023622
        },
        {
          "duration": 0.10416651041666114,
          "durationTicks": 95,
          "midi": 65,
          "name": "F4",
          "ticks": 180240,
          "time": 197.6312825,
          "velocity": 0.905511811023622
        },
        {
          "duration": 0.11513140624998641,
          "durationTicks": 105,
          "midi": 58,
          "name": "A#3",
          "ticks": 180480,
          "time": 197.89444,
          "velocity": 0.9448818897637795
        },
        {
          "duration": 0.13157874999998853,
          "durationTicks": 120,
          "midi": 63,
          "name": "D#4",
          "ticks": 180480,
          "time": 197.89444,
          "velocity": 0.9448818897637795
        },
        {
          "duration": 0.12061385416666326,
          "durationTicks": 110,
          "midi": 65,
          "name": "F4",
          "ticks": 180480,
          "time": 197.89444,
          "velocity": 0.9448818897637795
        },
        {
          "duration": 0.10416651041668956,
          "durationTicks": 95,
          "midi": 58,
          "name": "A#3",
          "ticks": 180720,
          "time": 198.15759749999998,
          "velocity": 0.905511811023622
        },
        {
          "duration": 0.11513140625001483,
          "durationTicks": 105,
          "midi": 63,
          "name": "D#4",
          "ticks": 180720,
          "time": 198.15759749999998,
          "velocity": 0.905511811023622
        },
        {
          "duration": 0.10416651041668956,
          "durationTicks": 95,
          "midi": 65,
          "name": "F4",
          "ticks": 180720,
          "time": 198.15759749999998,
          "velocity": 0.905511811023622
        },
        {
          "duration": 0.09868406250001271,
          "durationTicks": 90,
          "midi": 58,
          "name": "A#3",
          "ticks": 180960,
          "time": 198.42075499999999,
          "velocity": 0.905511811023622
        },
        {
          "duration": 0.12061385416669168,
          "durationTicks": 110,
          "midi": 63,
          "name": "D#4",
          "ticks": 180960,
          "time": 198.42075499999999,
          "velocity": 0.905511811023622
        },
        {
          "duration": 0.10416651041668956,
          "durationTicks": 95,
          "midi": 65,
          "name": "F4",
          "ticks": 180960,
          "time": 198.42075499999999,
          "velocity": 0.905511811023622
        },
        {
          "duration": 0.10964895833330957,
          "durationTicks": 100,
          "midi": 58,
          "name": "A#3",
          "ticks": 181200,
          "time": 198.6839125,
          "velocity": 0.905511811023622
        },
        {
          "duration": 0.13706119791666538,
          "durationTicks": 125,
          "midi": 63,
          "name": "D#4",
          "ticks": 181200,
          "time": 198.6839125,
          "velocity": 0.905511811023622
        },
        {
          "duration": 0.10964895833330957,
          "durationTicks": 100,
          "midi": 65,
          "name": "F4",
          "ticks": 181200,
          "time": 198.6839125,
          "velocity": 0.905511811023622
        },
        {
          "duration": 0.12061385416666326,
          "durationTicks": 110,
          "midi": 58,
          "name": "A#3",
          "ticks": 181440,
          "time": 198.94707,
          "velocity": 1
        },
        {
          "duration": 0.12061385416666326,
          "durationTicks": 110,
          "midi": 60,
          "name": "C4",
          "ticks": 181440,
          "time": 198.94707,
          "velocity": 1
        },
        {
          "duration": 0.13157874999998853,
          "durationTicks": 120,
          "midi": 65,
          "name": "F4",
          "ticks": 181440,
          "time": 198.94707,
          "velocity": 1
        },
        {
          "duration": 0.09868406249998429,
          "durationTicks": 90,
          "midi": 58,
          "name": "A#3",
          "ticks": 181680,
          "time": 199.2102275,
          "velocity": 0.905511811023622
        },
        {
          "duration": 0.11513140624998641,
          "durationTicks": 105,
          "midi": 60,
          "name": "C4",
          "ticks": 181680,
          "time": 199.2102275,
          "velocity": 0.905511811023622
        },
        {
          "duration": 0.12061385416666326,
          "durationTicks": 110,
          "midi": 65,
          "name": "F4",
          "ticks": 181680,
          "time": 199.2102275,
          "velocity": 0.905511811023622
        },
        {
          "duration": 0.11513140625001483,
          "durationTicks": 105,
          "midi": 58,
          "name": "A#3",
          "ticks": 181920,
          "time": 199.47338499999998,
          "velocity": 0.905511811023622
        },
        {
          "duration": 0.12061385416669168,
          "durationTicks": 110,
          "midi": 60,
          "name": "C4",
          "ticks": 181920,
          "time": 199.47338499999998,
          "velocity": 0.905511811023622
        },
        {
          "duration": 0.12061385416669168,
          "durationTicks": 110,
          "midi": 65,
          "name": "F4",
          "ticks": 181920,
          "time": 199.47338499999998,
          "velocity": 0.905511811023622
        },
        {
          "duration": 0.09320161458333587,
          "durationTicks": 85,
          "midi": 58,
          "name": "A#3",
          "ticks": 182160,
          "time": 199.73654249999998,
          "velocity": 0.905511811023622
        },
        {
          "duration": 0.11513140625001483,
          "durationTicks": 105,
          "midi": 60,
          "name": "C4",
          "ticks": 182160,
          "time": 199.73654249999998,
          "velocity": 0.905511811023622
        },
        {
          "duration": 0.10416651041668956,
          "durationTicks": 95,
          "midi": 65,
          "name": "F4",
          "ticks": 182160,
          "time": 199.73654249999998,
          "velocity": 0.905511811023622
        },
        {
          "duration": 0.11513140625001483,
          "durationTicks": 105,
          "midi": 58,
          "name": "A#3",
          "ticks": 182400,
          "time": 199.9997,
          "velocity": 0.9448818897637795
        },
        {
          "duration": 0.13157874999998853,
          "durationTicks": 120,
          "midi": 60,
          "name": "C4",
          "ticks": 182400,
          "time": 199.9997,
          "velocity": 0.9448818897637795
        },
        {
          "duration": 0.12061385416669168,
          "durationTicks": 110,
          "midi": 65,
          "name": "F4",
          "ticks": 182400,
          "time": 199.9997,
          "velocity": 0.9448818897637795
        },
        {
          "duration": 0.10416651041666114,
          "durationTicks": 95,
          "midi": 58,
          "name": "A#3",
          "ticks": 182640,
          "time": 200.2628575,
          "velocity": 0.905511811023622
        },
        {
          "duration": 0.11513140624998641,
          "durationTicks": 105,
          "midi": 60,
          "name": "C4",
          "ticks": 182640,
          "time": 200.2628575,
          "velocity": 0.905511811023622
        },
        {
          "duration": 0.10416651041666114,
          "durationTicks": 95,
          "midi": 65,
          "name": "F4",
          "ticks": 182640,
          "time": 200.2628575,
          "velocity": 0.905511811023622
        },
        {
          "duration": 0.09868406249998429,
          "durationTicks": 90,
          "midi": 58,
          "name": "A#3",
          "ticks": 182880,
          "time": 200.526015,
          "velocity": 0.905511811023622
        },
        {
          "duration": 0.12061385416666326,
          "durationTicks": 110,
          "midi": 60,
          "name": "C4",
          "ticks": 182880,
          "time": 200.526015,
          "velocity": 0.905511811023622
        },
        {
          "duration": 0.10416651041666114,
          "durationTicks": 95,
          "midi": 65,
          "name": "F4",
          "ticks": 182880,
          "time": 200.526015,
          "velocity": 0.905511811023622
        },
        {
          "duration": 0.10964895833333799,
          "durationTicks": 100,
          "midi": 58,
          "name": "A#3",
          "ticks": 183120,
          "time": 200.78917249999998,
          "velocity": 0.905511811023622
        },
        {
          "duration": 0.1370611979166938,
          "durationTicks": 125,
          "midi": 60,
          "name": "C4",
          "ticks": 183120,
          "time": 200.78917249999998,
          "velocity": 0.905511811023622
        },
        {
          "duration": 0.10964895833333799,
          "durationTicks": 100,
          "midi": 65,
          "name": "F4",
          "ticks": 183120,
          "time": 200.78917249999998,
          "velocity": 0.905511811023622
        },
        {
          "duration": 0.12061385416669168,
          "durationTicks": 110,
          "midi": 60,
          "name": "C4",
          "ticks": 183360,
          "time": 201.05232999999998,
          "velocity": 1
        },
        {
          "duration": 0.12061385416669168,
          "durationTicks": 110,
          "midi": 61,
          "name": "C#4",
          "ticks": 183360,
          "time": 201.05232999999998,
          "velocity": 1
        },
        {
          "duration": 0.13157875000001695,
          "durationTicks": 120,
          "midi": 65,
          "name": "F4",
          "ticks": 183360,
          "time": 201.05232999999998,
          "velocity": 1
        },
        {
          "duration": 0.09868406250001271,
          "durationTicks": 90,
          "midi": 60,
          "name": "C4",
          "ticks": 183600,
          "time": 201.3154875,
          "velocity": 0.905511811023622
        },
        {
          "duration": 0.11513140625001483,
          "durationTicks": 105,
          "midi": 61,
          "name": "C#4",
          "ticks": 183600,
          "time": 201.3154875,
          "velocity": 0.905511811023622
        },
        {
          "duration": 0.12061385416669168,
          "durationTicks": 110,
          "midi": 65,
          "name": "F4",
          "ticks": 183600,
          "time": 201.3154875,
          "velocity": 0.905511811023622
        },
        {
          "duration": 0.11513140624998641,
          "durationTicks": 105,
          "midi": 60,
          "name": "C4",
          "ticks": 183840,
          "time": 201.578645,
          "velocity": 0.905511811023622
        },
        {
          "duration": 0.12061385416666326,
          "durationTicks": 110,
          "midi": 61,
          "name": "C#4",
          "ticks": 183840,
          "time": 201.578645,
          "velocity": 0.905511811023622
        },
        {
          "duration": 0.12061385416666326,
          "durationTicks": 110,
          "midi": 65,
          "name": "F4",
          "ticks": 183840,
          "time": 201.578645,
          "velocity": 0.905511811023622
        },
        {
          "duration": 0.09320161458330745,
          "durationTicks": 85,
          "midi": 60,
          "name": "C4",
          "ticks": 184080,
          "time": 201.8418025,
          "velocity": 0.905511811023622
        },
        {
          "duration": 0.11513140624998641,
          "durationTicks": 105,
          "midi": 61,
          "name": "C#4",
          "ticks": 184080,
          "time": 201.8418025,
          "velocity": 0.905511811023622
        },
        {
          "duration": 0.10416651041666114,
          "durationTicks": 95,
          "midi": 65,
          "name": "F4",
          "ticks": 184080,
          "time": 201.8418025,
          "velocity": 0.905511811023622
        },
        {
          "duration": 0.11513140624998641,
          "durationTicks": 105,
          "midi": 60,
          "name": "C4",
          "ticks": 184320,
          "time": 202.10496,
          "velocity": 0.9448818897637795
        },
        {
          "duration": 0.13157874999998853,
          "durationTicks": 120,
          "midi": 61,
          "name": "C#4",
          "ticks": 184320,
          "time": 202.10496,
          "velocity": 0.9448818897637795
        },
        {
          "duration": 0.12061385416666326,
          "durationTicks": 110,
          "midi": 65,
          "name": "F4",
          "ticks": 184320,
          "time": 202.10496,
          "velocity": 0.9448818897637795
        },
        {
          "duration": 0.10416651041668956,
          "durationTicks": 95,
          "midi": 60,
          "name": "C4",
          "ticks": 184560,
          "time": 202.36811749999998,
          "velocity": 0.905511811023622
        },
        {
          "duration": 0.11513140625001483,
          "durationTicks": 105,
          "midi": 61,
          "name": "C#4",
          "ticks": 184560,
          "time": 202.36811749999998,
          "velocity": 0.905511811023622
        },
        {
          "duration": 0.10416651041668956,
          "durationTicks": 95,
          "midi": 65,
          "name": "F4",
          "ticks": 184560,
          "time": 202.36811749999998,
          "velocity": 0.905511811023622
        },
        {
          "duration": 0.09868406250001271,
          "durationTicks": 90,
          "midi": 60,
          "name": "C4",
          "ticks": 184800,
          "time": 202.631275,
          "velocity": 0.905511811023622
        },
        {
          "duration": 0.12061385416669168,
          "durationTicks": 110,
          "midi": 61,
          "name": "C#4",
          "ticks": 184800,
          "time": 202.631275,
          "velocity": 0.905511811023622
        },
        {
          "duration": 0.10416651041668956,
          "durationTicks": 95,
          "midi": 65,
          "name": "F4",
          "ticks": 184800,
          "time": 202.631275,
          "velocity": 0.905511811023622
        },
        {
          "duration": 0.10964895833330957,
          "durationTicks": 100,
          "midi": 60,
          "name": "C4",
          "ticks": 185040,
          "time": 202.8944325,
          "velocity": 0.905511811023622
        },
        {
          "duration": 0.13706119791666538,
          "durationTicks": 125,
          "midi": 61,
          "name": "C#4",
          "ticks": 185040,
          "time": 202.8944325,
          "velocity": 0.905511811023622
        },
        {
          "duration": 0.10964895833330957,
          "durationTicks": 100,
          "midi": 65,
          "name": "F4",
          "ticks": 185040,
          "time": 202.8944325,
          "velocity": 0.905511811023622
        },
        {
          "duration": 0.11513140624998641,
          "durationTicks": 105,
          "midi": 60,
          "name": "C4",
          "ticks": 185280,
          "time": 203.15759,
          "velocity": 0.9448818897637795
        },
        {
          "duration": 0.12609630208331168,
          "durationTicks": 115,
          "midi": 61,
          "name": "C#4",
          "ticks": 185280,
          "time": 203.15759,
          "velocity": 0.9448818897637795
        },
        {
          "duration": 0.12061385416666326,
          "durationTicks": 110,
          "midi": 65,
          "name": "F4",
          "ticks": 185280,
          "time": 203.15759,
          "velocity": 0.9448818897637795
        },
        {
          "duration": 0.10416651041666114,
          "durationTicks": 95,
          "midi": 60,
          "name": "C4",
          "ticks": 185520,
          "time": 203.4207475,
          "velocity": 0.905511811023622
        },
        {
          "duration": 0.11513140624998641,
          "durationTicks": 105,
          "midi": 61,
          "name": "C#4",
          "ticks": 185520,
          "time": 203.4207475,
          "velocity": 0.905511811023622
        },
        {
          "duration": 0.10416651041666114,
          "durationTicks": 95,
          "midi": 65,
          "name": "F4",
          "ticks": 185520,
          "time": 203.4207475,
          "velocity": 0.905511811023622
        },
        {
          "duration": 0.09320161458333587,
          "durationTicks": 85,
          "midi": 60,
          "name": "C4",
          "ticks": 185760,
          "time": 203.68390499999998,
          "velocity": 0.905511811023622
        },
        {
          "duration": 0.12061385416669168,
          "durationTicks": 110,
          "midi": 61,
          "name": "C#4",
          "ticks": 185760,
          "time": 203.68390499999998,
          "velocity": 0.905511811023622
        },
        {
          "duration": 0.10416651041668956,
          "durationTicks": 95,
          "midi": 65,
          "name": "F4",
          "ticks": 185760,
          "time": 203.68390499999998,
          "velocity": 0.905511811023622
        },
        {
          "duration": 0.10964895833333799,
          "durationTicks": 100,
          "midi": 60,
          "name": "C4",
          "ticks": 186000,
          "time": 203.9470625,
          "velocity": 0.905511811023622
        },
        {
          "duration": 0.1370611979166938,
          "durationTicks": 125,
          "midi": 61,
          "name": "C#4",
          "ticks": 186000,
          "time": 203.9470625,
          "velocity": 0.905511811023622
        },
        {
          "duration": 0.10964895833333799,
          "durationTicks": 100,
          "midi": 65,
          "name": "F4",
          "ticks": 186000,
          "time": 203.9470625,
          "velocity": 0.905511811023622
        },
        {
          "duration": 0.42763093749999825,
          "durationTicks": 390,
          "midi": 56,
          "name": "G#3",
          "ticks": 186240,
          "time": 204.21022,
          "velocity": 0.905511811023622
        },
        {
          "duration": 0.4495607291666772,
          "durationTicks": 410,
          "midi": 60,
          "name": "C4",
          "ticks": 186240,
          "time": 204.21022,
          "velocity": 0.905511811023622
        },
        {
          "duration": 0.4331133854166751,
          "durationTicks": 395,
          "midi": 63,
          "name": "D#4",
          "ticks": 186240,
          "time": 204.21022,
          "velocity": 0.905511811023622
        },
        {
          "duration": 0.4331133854166751,
          "durationTicks": 395,
          "midi": 65,
          "name": "F4",
          "ticks": 186240,
          "time": 204.21022,
          "velocity": 0.905511811023622
        },
        {
          "duration": 0.42763093749999825,
          "durationTicks": 390,
          "midi": 56,
          "name": "G#3",
          "ticks": 186720,
          "time": 204.736535,
          "velocity": 0.905511811023622
        },
        {
          "duration": 0.4495607291666772,
          "durationTicks": 410,
          "midi": 60,
          "name": "C4",
          "ticks": 186720,
          "time": 204.736535,
          "velocity": 0.905511811023622
        },
        {
          "duration": 0.4331133854166751,
          "durationTicks": 395,
          "midi": 63,
          "name": "D#4",
          "ticks": 186720,
          "time": 204.736535,
          "velocity": 0.905511811023622
        },
        {
          "duration": 0.4331133854166751,
          "durationTicks": 395,
          "midi": 65,
          "name": "F4",
          "ticks": 186720,
          "time": 204.736535,
          "velocity": 0.905511811023622
        },
        {
          "duration": 0.11513140625001483,
          "durationTicks": 105,
          "midi": 58,
          "name": "A#3",
          "ticks": 187200,
          "time": 205.26285,
          "velocity": 1
        },
        {
          "duration": 0.11513140625001483,
          "durationTicks": 105,
          "midi": 63,
          "name": "D#4",
          "ticks": 187200,
          "time": 205.26285,
          "velocity": 1
        },
        {
          "duration": 0.1260963020833401,
          "durationTicks": 115,
          "midi": 65,
          "name": "F4",
          "ticks": 187200,
          "time": 205.26285,
          "velocity": 1
        },
        {
          "duration": 0.09320161458333587,
          "durationTicks": 85,
          "midi": 58,
          "name": "A#3",
          "ticks": 187440,
          "time": 205.5260075,
          "velocity": 0.905511811023622
        },
        {
          "duration": 0.10964895833330957,
          "durationTicks": 100,
          "midi": 63,
          "name": "D#4",
          "ticks": 187440,
          "time": 205.5260075,
          "velocity": 0.905511811023622
        },
        {
          "duration": 0.11513140624998641,
          "durationTicks": 105,
          "midi": 65,
          "name": "F4",
          "ticks": 187440,
          "time": 205.5260075,
          "velocity": 0.905511811023622
        },
        {
          "duration": 0.11513140624998641,
          "durationTicks": 105,
          "midi": 58,
          "name": "A#3",
          "ticks": 187680,
          "time": 205.789165,
          "velocity": 0.905511811023622
        },
        {
          "duration": 0.11513140624998641,
          "durationTicks": 105,
          "midi": 63,
          "name": "D#4",
          "ticks": 187680,
          "time": 205.789165,
          "velocity": 0.905511811023622
        },
        {
          "duration": 0.11513140624998641,
          "durationTicks": 105,
          "midi": 65,
          "name": "F4",
          "ticks": 187680,
          "time": 205.789165,
          "velocity": 0.905511811023622
        },
        {
          "duration": 0.08771916666665902,
          "durationTicks": 80,
          "midi": 58,
          "name": "A#3",
          "ticks": 187920,
          "time": 206.0523225,
          "velocity": 0.905511811023622
        },
        {
          "duration": 0.10964895833330957,
          "durationTicks": 100,
          "midi": 63,
          "name": "D#4",
          "ticks": 187920,
          "time": 206.0523225,
          "velocity": 0.905511811023622
        },
        {
          "duration": 0.09868406249998429,
          "durationTicks": 90,
          "midi": 65,
          "name": "F4",
          "ticks": 187920,
          "time": 206.0523225,
          "velocity": 0.905511811023622
        },
        {
          "duration": 0.10964895833333799,
          "durationTicks": 100,
          "midi": 58,
          "name": "A#3",
          "ticks": 188160,
          "time": 206.31547999999998,
          "velocity": 0.9448818897637795
        },
        {
          "duration": 0.1260963020833401,
          "durationTicks": 115,
          "midi": 63,
          "name": "D#4",
          "ticks": 188160,
          "time": 206.31547999999998,
          "velocity": 0.9448818897637795
        },
        {
          "duration": 0.11513140625001483,
          "durationTicks": 105,
          "midi": 65,
          "name": "F4",
          "ticks": 188160,
          "time": 206.31547999999998,
          "velocity": 0.9448818897637795
        },
        {
          "duration": 0.09868406250001271,
          "durationTicks": 90,
          "midi": 58,
          "name": "A#3",
          "ticks": 188400,
          "time": 206.57863749999999,
          "velocity": 0.905511811023622
        },
        {
          "duration": 0.10964895833333799,
          "durationTicks": 100,
          "midi": 63,
          "name": "D#4",
          "ticks": 188400,
          "time": 206.57863749999999,
          "velocity": 0.905511811023622
        },
        {
          "duration": 0.09868406250001271,
          "durationTicks": 90,
          "midi": 65,
          "name": "F4",
          "ticks": 188400,
          "time": 206.57863749999999,
          "velocity": 0.905511811023622
        },
        {
          "duration": 0.09320161458333587,
          "durationTicks": 85,
          "midi": 58,
          "name": "A#3",
          "ticks": 188640,
          "time": 206.841795,
          "velocity": 0.905511811023622
        },
        {
          "duration": 0.12061385416666326,
          "durationTicks": 110,
          "midi": 63,
          "name": "D#4",
          "ticks": 188640,
          "time": 206.841795,
          "velocity": 0.905511811023622
        },
        {
          "duration": 0.09868406250001271,
          "durationTicks": 90,
          "midi": 65,
          "name": "F4",
          "ticks": 188640,
          "time": 206.841795,
          "velocity": 0.905511811023622
        },
        {
          "duration": 0.10964895833330957,
          "durationTicks": 100,
          "midi": 58,
          "name": "A#3",
          "ticks": 188880,
          "time": 207.1049525,
          "velocity": 0.905511811023622
        },
        {
          "duration": 0.13157874999998853,
          "durationTicks": 120,
          "midi": 63,
          "name": "D#4",
          "ticks": 188880,
          "time": 207.1049525,
          "velocity": 0.905511811023622
        },
        {
          "duration": 0.10964895833330957,
          "durationTicks": 100,
          "midi": 65,
          "name": "F4",
          "ticks": 188880,
          "time": 207.1049525,
          "velocity": 0.905511811023622
        },
        {
          "duration": 0.11513140624998641,
          "durationTicks": 105,
          "midi": 58,
          "name": "A#3",
          "ticks": 189120,
          "time": 207.36811,
          "velocity": 1
        },
        {
          "duration": 0.11513140624998641,
          "durationTicks": 105,
          "midi": 60,
          "name": "C4",
          "ticks": 189120,
          "time": 207.36811,
          "velocity": 1
        },
        {
          "duration": 0.12609630208331168,
          "durationTicks": 115,
          "midi": 65,
          "name": "F4",
          "ticks": 189120,
          "time": 207.36811,
          "velocity": 1
        },
        {
          "duration": 0.09320161458333587,
          "durationTicks": 85,
          "midi": 58,
          "name": "A#3",
          "ticks": 189360,
          "time": 207.63126749999998,
          "velocity": 0.905511811023622
        },
        {
          "duration": 0.10964895833333799,
          "durationTicks": 100,
          "midi": 60,
          "name": "C4",
          "ticks": 189360,
          "time": 207.63126749999998,
          "velocity": 0.905511811023622
        },
        {
          "duration": 0.11513140625001483,
          "durationTicks": 105,
          "midi": 65,
          "name": "F4",
          "ticks": 189360,
          "time": 207.63126749999998,
          "velocity": 0.905511811023622
        },
        {
          "duration": 0.11513140625001483,
          "durationTicks": 105,
          "midi": 58,
          "name": "A#3",
          "ticks": 189600,
          "time": 207.89442499999998,
          "velocity": 0.905511811023622
        },
        {
          "duration": 0.11513140625001483,
          "durationTicks": 105,
          "midi": 60,
          "name": "C4",
          "ticks": 189600,
          "time": 207.89442499999998,
          "velocity": 0.905511811023622
        },
        {
          "duration": 0.11513140625001483,
          "durationTicks": 105,
          "midi": 65,
          "name": "F4",
          "ticks": 189600,
          "time": 207.89442499999998,
          "velocity": 0.905511811023622
        },
        {
          "duration": 0.08771916666668744,
          "durationTicks": 80,
          "midi": 58,
          "name": "A#3",
          "ticks": 189840,
          "time": 208.1575825,
          "velocity": 0.905511811023622
        },
        {
          "duration": 0.10964895833333799,
          "durationTicks": 100,
          "midi": 60,
          "name": "C4",
          "ticks": 189840,
          "time": 208.1575825,
          "velocity": 0.905511811023622
        },
        {
          "duration": 0.09868406250001271,
          "durationTicks": 90,
          "midi": 65,
          "name": "F4",
          "ticks": 189840,
          "time": 208.1575825,
          "velocity": 0.905511811023622
        },
        {
          "duration": 0.10964895833330957,
          "durationTicks": 100,
          "midi": 58,
          "name": "A#3",
          "ticks": 190080,
          "time": 208.42074,
          "velocity": 0.9448818897637795
        },
        {
          "duration": 0.12609630208331168,
          "durationTicks": 115,
          "midi": 60,
          "name": "C4",
          "ticks": 190080,
          "time": 208.42074,
          "velocity": 0.9448818897637795
        },
        {
          "duration": 0.11513140624998641,
          "durationTicks": 105,
          "midi": 65,
          "name": "F4",
          "ticks": 190080,
          "time": 208.42074,
          "velocity": 0.9448818897637795
        },
        {
          "duration": 0.09868406249998429,
          "durationTicks": 90,
          "midi": 58,
          "name": "A#3",
          "ticks": 190320,
          "time": 208.6838975,
          "velocity": 0.905511811023622
        },
        {
          "duration": 0.10964895833330957,
          "durationTicks": 100,
          "midi": 60,
          "name": "C4",
          "ticks": 190320,
          "time": 208.6838975,
          "velocity": 0.905511811023622
        },
        {
          "duration": 0.09868406249998429,
          "durationTicks": 90,
          "midi": 65,
          "name": "F4",
          "ticks": 190320,
          "time": 208.6838975,
          "velocity": 0.905511811023622
        },
        {
          "duration": 0.09320161458333587,
          "durationTicks": 85,
          "midi": 58,
          "name": "A#3",
          "ticks": 190560,
          "time": 208.94705499999998,
          "velocity": 0.905511811023622
        },
        {
          "duration": 0.12061385416669168,
          "durationTicks": 110,
          "midi": 60,
          "name": "C4",
          "ticks": 190560,
          "time": 208.94705499999998,
          "velocity": 0.905511811023622
        },
        {
          "duration": 0.09868406250001271,
          "durationTicks": 90,
          "midi": 65,
          "name": "F4",
          "ticks": 190560,
          "time": 208.94705499999998,
          "velocity": 0.905511811023622
        },
        {
          "duration": 0.10964895833333799,
          "durationTicks": 100,
          "midi": 58,
          "name": "A#3",
          "ticks": 190800,
          "time": 209.21021249999998,
          "velocity": 0.905511811023622
        },
        {
          "duration": 0.13157875000001695,
          "durationTicks": 120,
          "midi": 60,
          "name": "C4",
          "ticks": 190800,
          "time": 209.21021249999998,
          "velocity": 0.905511811023622
        },
        {
          "duration": 0.10964895833333799,
          "durationTicks": 100,
          "midi": 65,
          "name": "F4",
          "ticks": 190800,
          "time": 209.21021249999998,
          "velocity": 0.905511811023622
        },
        {
          "duration": 0.11513140625001483,
          "durationTicks": 105,
          "midi": 60,
          "name": "C4",
          "ticks": 191040,
          "time": 209.47337,
          "velocity": 1
        },
        {
          "duration": 0.11513140625001483,
          "durationTicks": 105,
          "midi": 61,
          "name": "C#4",
          "ticks": 191040,
          "time": 209.47337,
          "velocity": 1
        },
        {
          "duration": 0.12609630208331168,
          "durationTicks": 115,
          "midi": 65,
          "name": "F4",
          "ticks": 191040,
          "time": 209.47337,
          "velocity": 1
        },
        {
          "duration": 0.09320161458330745,
          "durationTicks": 85,
          "midi": 60,
          "name": "C4",
          "ticks": 191280,
          "time": 209.7365275,
          "velocity": 0.905511811023622
        },
        {
          "duration": 0.10964895833330957,
          "durationTicks": 100,
          "midi": 61,
          "name": "C#4",
          "ticks": 191280,
          "time": 209.7365275,
          "velocity": 0.905511811023622
        },
        {
          "duration": 0.11513140624998641,
          "durationTicks": 105,
          "midi": 65,
          "name": "F4",
          "ticks": 191280,
          "time": 209.7365275,
          "velocity": 0.905511811023622
        },
        {
          "duration": 0.11513140624998641,
          "durationTicks": 105,
          "midi": 60,
          "name": "C4",
          "ticks": 191520,
          "time": 209.999685,
          "velocity": 0.905511811023622
        },
        {
          "duration": 0.11513140624998641,
          "durationTicks": 105,
          "midi": 61,
          "name": "C#4",
          "ticks": 191520,
          "time": 209.999685,
          "velocity": 0.905511811023622
        },
        {
          "duration": 0.11513140624998641,
          "durationTicks": 105,
          "midi": 65,
          "name": "F4",
          "ticks": 191520,
          "time": 209.999685,
          "velocity": 0.905511811023622
        },
        {
          "duration": 0.08771916666665902,
          "durationTicks": 80,
          "midi": 60,
          "name": "C4",
          "ticks": 191760,
          "time": 210.2628425,
          "velocity": 0.905511811023622
        },
        {
          "duration": 0.10964895833330957,
          "durationTicks": 100,
          "midi": 61,
          "name": "C#4",
          "ticks": 191760,
          "time": 210.2628425,
          "velocity": 0.905511811023622
        },
        {
          "duration": 0.09868406249998429,
          "durationTicks": 90,
          "midi": 65,
          "name": "F4",
          "ticks": 191760,
          "time": 210.2628425,
          "velocity": 0.905511811023622
        },
        {
          "duration": 0.10964895833333799,
          "durationTicks": 100,
          "midi": 60,
          "name": "C4",
          "ticks": 192000,
          "time": 210.52599999999998,
          "velocity": 0.9448818897637795
        },
        {
          "duration": 0.1260963020833401,
          "durationTicks": 115,
          "midi": 61,
          "name": "C#4",
          "ticks": 192000,
          "time": 210.52599999999998,
          "velocity": 0.9448818897637795
        },
        {
          "duration": 0.11513140625001483,
          "durationTicks": 105,
          "midi": 65,
          "name": "F4",
          "ticks": 192000,
          "time": 210.52599999999998,
          "velocity": 0.9448818897637795
        },
        {
          "duration": 0.09868406250001271,
          "durationTicks": 90,
          "midi": 60,
          "name": "C4",
          "ticks": 192240,
          "time": 210.7891575,
          "velocity": 0.905511811023622
        },
        {
          "duration": 0.10964895833333799,
          "durationTicks": 100,
          "midi": 61,
          "name": "C#4",
          "ticks": 192240,
          "time": 210.7891575,
          "velocity": 0.905511811023622
        },
        {
          "duration": 0.09868406250001271,
          "durationTicks": 90,
          "midi": 65,
          "name": "F4",
          "ticks": 192240,
          "time": 210.7891575,
          "velocity": 0.905511811023622
        },
        {
          "duration": 0.09320161458330745,
          "durationTicks": 85,
          "midi": 60,
          "name": "C4",
          "ticks": 192480,
          "time": 211.052315,
          "velocity": 0.905511811023622
        },
        {
          "duration": 0.12061385416666326,
          "durationTicks": 110,
          "midi": 61,
          "name": "C#4",
          "ticks": 192480,
          "time": 211.052315,
          "velocity": 0.905511811023622
        },
        {
          "duration": 0.09868406249998429,
          "durationTicks": 90,
          "midi": 65,
          "name": "F4",
          "ticks": 192480,
          "time": 211.052315,
          "velocity": 0.905511811023622
        },
        {
          "duration": 0.10964895833330957,
          "durationTicks": 100,
          "midi": 60,
          "name": "C4",
          "ticks": 192720,
          "time": 211.3154725,
          "velocity": 0.905511811023622
        },
        {
          "duration": 0.13157874999998853,
          "durationTicks": 120,
          "midi": 61,
          "name": "C#4",
          "ticks": 192720,
          "time": 211.3154725,
          "velocity": 0.905511811023622
        },
        {
          "duration": 0.10964895833330957,
          "durationTicks": 100,
          "midi": 65,
          "name": "F4",
          "ticks": 192720,
          "time": 211.3154725,
          "velocity": 0.905511811023622
        },
        {
          "duration": 0.4385958333333235,
          "durationTicks": 400,
          "midi": 58,
          "name": "A#3",
          "ticks": 193440,
          "time": 212.104945,
          "velocity": 0.9448818897637795
        },
        {
          "duration": 0.45504317708332565,
          "durationTicks": 415,
          "midi": 61,
          "name": "C#4",
          "ticks": 193440,
          "time": 212.104945,
          "velocity": 0.9448818897637795
        },
        {
          "duration": 0.4440782812500004,
          "durationTicks": 405,
          "midi": 65,
          "name": "F4",
          "ticks": 193440,
          "time": 212.104945,
          "velocity": 0.9448818897637795
        },
        {
          "duration": 0.4221484895833214,
          "durationTicks": 385,
          "midi": 56,
          "name": "G#3",
          "ticks": 193920,
          "time": 212.63126,
          "velocity": 0.905511811023622
        },
        {
          "duration": 0.4495607291666772,
          "durationTicks": 410,
          "midi": 60,
          "name": "C4",
          "ticks": 193920,
          "time": 212.63126,
          "velocity": 0.905511811023622
        },
        {
          "duration": 0.42763093749999825,
          "durationTicks": 390,
          "midi": 65,
          "name": "F4",
          "ticks": 193920,
          "time": 212.63126,
          "velocity": 0.905511811023622
        },
        {
          "duration": 0.4221484895833214,
          "durationTicks": 385,
          "midi": 56,
          "name": "G#3",
          "ticks": 194400,
          "time": 213.15757499999998,
          "velocity": 0.905511811023622
        },
        {
          "duration": 0.4495607291666772,
          "durationTicks": 410,
          "midi": 60,
          "name": "C4",
          "ticks": 194400,
          "time": 213.15757499999998,
          "velocity": 0.905511811023622
        },
        {
          "duration": 0.42763093749999825,
          "durationTicks": 390,
          "midi": 65,
          "name": "F4",
          "ticks": 194400,
          "time": 213.15757499999998,
          "velocity": 0.905511811023622
        },
        {
          "duration": 2.061400416666686,
          "durationTicks": 1880,
          "midi": 55,
          "name": "G3",
          "ticks": 194880,
          "time": 213.68389,
          "velocity": 0.9448818897637795
        },
        {
          "duration": 2.072365312500011,
          "durationTicks": 1890,
          "midi": 58,
          "name": "A#3",
          "ticks": 194880,
          "time": 213.68389,
          "velocity": 0.9448818897637795
        },
        {
          "duration": 5.2960446875,
          "durationTicks": 4830,
          "midi": 63,
          "name": "D#4",
          "ticks": 194880,
          "time": 213.68389,
          "velocity": 0.9448818897637795
        },
        {
          "duration": 2.061400416666686,
          "durationTicks": 1880,
          "midi": 54,
          "name": "F#3",
          "ticks": 196800,
          "time": 215.78914999999998,
          "velocity": 0.9448818897637795
        },
        {
          "duration": 2.072365312500011,
          "durationTicks": 1890,
          "midi": 58,
          "name": "A#3",
          "ticks": 196800,
          "time": 215.78914999999998,
          "velocity": 0.9448818897637795
        },
        {
          "duration": 2.0668828645833344,
          "durationTicks": 1885,
          "midi": 60,
          "name": "C4",
          "ticks": 196800,
          "time": 215.78914999999998,
          "velocity": 0.9448818897637795
        },
        {
          "duration": 1.0745597916666725,
          "durationTicks": 980,
          "midi": 56,
          "name": "G#3",
          "ticks": 198720,
          "time": 217.89441,
          "velocity": 0.9448818897637795
        },
        {
          "duration": 1.0361826562499914,
          "durationTicks": 945,
          "midi": 61,
          "name": "C#4",
          "ticks": 198720,
          "time": 217.89441,
          "velocity": 0.9448818897637795
        },
        {
          "duration": 1.1019720312499999,
          "durationTicks": 1005,
          "midi": 55,
          "name": "G3",
          "ticks": 199680,
          "time": 218.94704,
          "velocity": 0.9448818897637795
        },
        {
          "duration": 1.0361826562499914,
          "durationTicks": 945,
          "midi": 61,
          "name": "C#4",
          "ticks": 199680,
          "time": 218.94704,
          "velocity": 0.9448818897637795
        },
        {
          "duration": 1.030700208333343,
          "durationTicks": 940,
          "midi": 60,
          "name": "C4",
          "ticks": 200640,
          "time": 219.99966999999998,
          "velocity": 0.9448818897637795
        },
        {
          "duration": 1.0361826562500198,
          "durationTicks": 945,
          "midi": 66,
          "name": "F#4",
          "ticks": 200640,
          "time": 219.99966999999998,
          "velocity": 0.9448818897637795
        },
        {
          "duration": 1.1019720312499999,
          "durationTicks": 1005,
          "midi": 60,
          "name": "C4",
          "ticks": 201600,
          "time": 221.0523,
          "velocity": 0.9448818897637795
        },
        {
          "duration": 1.0690773437499956,
          "durationTicks": 975,
          "midi": 66,
          "name": "F#4",
          "ticks": 201600,
          "time": 221.0523,
          "velocity": 0.9448818897637795
        },
        {
          "duration": 16.535062916666675,
          "durationTicks": 15080,
          "midi": 53,
          "name": "F3",
          "ticks": 202560,
          "time": 222.10493,
          "velocity": 0.9448818897637795
        },
        {
          "duration": 16.535062916666675,
          "durationTicks": 15080,
          "midi": 54,
          "name": "F#3",
          "ticks": 202560,
          "time": 222.10493,
          "velocity": 0.9448818897637795
        },
        {
          "duration": 16.5460278125,
          "durationTicks": 15090,
          "midi": 58,
          "name": "A#3",
          "ticks": 202560,
          "time": 222.10493,
          "velocity": 0.9448818897637795
        },
        {
          "duration": 16.540545364583323,
          "durationTicks": 15085,
          "midi": 61,
          "name": "C#4",
          "ticks": 202560,
          "time": 222.10493,
          "velocity": 0.9448818897637795
        }
      ]
    },
    {
      "channel": 9,
      "controlChanges": {
        "0": [
          {
            "number": 0,
            "ticks": 705,
            "time": 0.77302515625,
            "value": 0
          }
        ],
        "6": [
          {
            "number": 6,
            "ticks": 1075,
            "time": 1.1787263020833334,
            "value": 0.11811023622047244
          },
          {
            "number": 6,
            "ticks": 1090,
            "time": 1.1951736458333333,
            "value": 0.4881889763779528
          },
          {
            "number": 6,
            "ticks": 1105,
            "time": 1.2116209895833334,
            "value": 0.007874015748031496
          },
          {
            "number": 6,
            "ticks": 1120,
            "time": 1.2280683333333333,
            "value": 0.9921259842519685
          },
          {
            "number": 6,
            "ticks": 1135,
            "time": 1.2445156770833334,
            "value": 0.41732283464566927
          },
          {
            "number": 6,
            "ticks": 1150,
            "time": 1.2609630208333333,
            "value": 1
          },
          {
            "number": 6,
            "ticks": 1165,
            "time": 1.2774103645833335,
            "value": 0.47244094488188976
          }
        ],
        "7": [
          {
            "number": 7,
            "ticks": 720,
            "time": 0.7894725,
            "value": 0.6299212598425197
          }
        ],
        "10": [
          {
            "number": 10,
            "ticks": 720,
            "time": 0.7894725,
            "value": 0.5039370078740157
          }
        ],
        "11": [
          {
            "number": 11,
            "ticks": 720,
            "time": 0.7894725,
            "value": 1
          }
        ],
        "32": [
          {
            "number": 32,
            "ticks": 710,
            "time": 0.7785076041666666,
            "value": 0
          }
        ],
        "91": [
          {
            "number": 91,
            "ticks": 725,
            "time": 0.7949549479166667,
            "value": 1
          }
        ],
        "93": [
          {
            "number": 93,
            "ticks": 725,
            "time": 0.7949549479166667,
            "value": 0
          }
        ],
        "98": [
          {
            "number": 98,
            "ticks": 1070,
            "time": 1.1732438541666665,
            "value": 0.28346456692913385
          },
          {
            "number": 98,
            "ticks": 1085,
            "time": 1.1896911979166664,
            "value": 0.28346456692913385
          },
          {
            "number": 98,
            "ticks": 1100,
            "time": 1.2061385416666666,
            "value": 0.28346456692913385
          },
          {
            "number": 98,
            "ticks": 1115,
            "time": 1.2225858854166665,
            "value": 0.2440944881889764
          },
          {
            "number": 98,
            "ticks": 1130,
            "time": 1.2390332291666666,
            "value": 0.2440944881889764
          },
          {
            "number": 98,
            "ticks": 1145,
            "time": 1.2554805729166665,
            "value": 0.2440944881889764
          },
          {
            "number": 98,
            "ticks": 1160,
            "time": 1.2719279166666666,
            "value": 0.3858267716535433
          }
        ],
        "99": [
          {
            "number": 99,
            "ticks": 1065,
            "time": 1.16776140625,
            "value": 0.2283464566929134
          },
          {
            "number": 99,
            "ticks": 1080,
            "time": 1.18420875,
            "value": 0.1889763779527559
          },
          {
            "number": 99,
            "ticks": 1095,
            "time": 1.20065609375,
            "value": 0.2204724409448819
          },
          {
            "number": 99,
            "ticks": 1110,
            "time": 1.2171034375,
            "value": 0.2204724409448819
          },
          {
            "number": 99,
            "ticks": 1125,
            "time": 1.23355078125,
            "value": 0.1889763779527559
          },
          {
            "number": 99,
            "ticks": 1140,
            "time": 1.2499981249999998,
            "value": 0.2283464566929134
          },
          {
            "number": 99,
            "ticks": 1155,
            "time": 1.26644546875,
            "value": 0.2283464566929134
          }
        ],
        "100": [
          {
            "number": 100,
            "ticks": 1175,
            "time": 1.2883752604166665,
            "value": 1
          }
        ],
        "101": [
          {
            "number": 101,
            "ticks": 1170,
            "time": 1.2828928124999999,
            "value": 1
          }
        ]
      },
      "pitchBends": [],
      "instrument": {
        "family": "drums",
        "number": 0,
        "name": "standard kit"
      },
      "name": "Merry Christmas Mr.Lawrence",
      "notes": [
        {
          "duration": 0.15899098958334434,
          "durationTicks": 145,
          "midi": 36,
          "name": "C2",
          "ticks": 110400,
          "time": 121.05245,
          "velocity": 0.6692913385826772
        },
        {
          "duration": 0.1535085416666675,
          "durationTicks": 140,
          "midi": 36,
          "name": "C2",
          "ticks": 110880,
          "time": 121.57876499999999,
          "velocity": 0.7007874015748031
        },
        {
          "duration": 0.14254364583332801,
          "durationTicks": 130,
          "midi": 31,
          "name": "G1",
          "ticks": 111360,
          "time": 122.10508,
          "velocity": 0.7244094488188977
        },
        {
          "duration": 0.15899098958334434,
          "durationTicks": 145,
          "midi": 36,
          "name": "C2",
          "ticks": 112320,
          "time": 123.15771,
          "velocity": 0.6692913385826772
        },
        {
          "duration": 0.1535085416666675,
          "durationTicks": 140,
          "midi": 36,
          "name": "C2",
          "ticks": 112800,
          "time": 123.68402499999999,
          "velocity": 0.7007874015748031
        },
        {
          "duration": 0.14254364583334223,
          "durationTicks": 130,
          "midi": 31,
          "name": "G1",
          "ticks": 113280,
          "time": 124.21033999999999,
          "velocity": 0.7244094488188977
        },
        {
          "duration": 0.15899098958333013,
          "durationTicks": 145,
          "midi": 36,
          "name": "C2",
          "ticks": 114240,
          "time": 125.26297,
          "velocity": 0.6692913385826772
        },
        {
          "duration": 0.1535085416666675,
          "durationTicks": 140,
          "midi": 36,
          "name": "C2",
          "ticks": 114720,
          "time": 125.78928499999999,
          "velocity": 0.7007874015748031
        },
        {
          "duration": 0.14254364583334223,
          "durationTicks": 130,
          "midi": 31,
          "name": "G1",
          "ticks": 115200,
          "time": 126.31559999999999,
          "velocity": 0.7244094488188977
        },
        {
          "duration": 0.15899098958333013,
          "durationTicks": 145,
          "midi": 36,
          "name": "C2",
          "ticks": 116160,
          "time": 127.36823,
          "velocity": 0.6692913385826772
        },
        {
          "duration": 0.1535085416666675,
          "durationTicks": 140,
          "midi": 36,
          "name": "C2",
          "ticks": 116640,
          "time": 127.894545,
          "velocity": 0.7007874015748031
        },
        {
          "duration": 0.14254364583334223,
          "durationTicks": 130,
          "midi": 31,
          "name": "G1",
          "ticks": 117120,
          "time": 128.42086,
          "velocity": 0.7244094488188977
        },
        {
          "duration": 0.15899098958334434,
          "durationTicks": 145,
          "midi": 36,
          "name": "C2",
          "ticks": 118080,
          "time": 129.47349,
          "velocity": 0.6692913385826772
        },
        {
          "duration": 0.1535085416666675,
          "durationTicks": 140,
          "midi": 36,
          "name": "C2",
          "ticks": 118560,
          "time": 129.99980499999998,
          "velocity": 0.7007874015748031
        },
        {
          "duration": 0.14254364583334223,
          "durationTicks": 130,
          "midi": 31,
          "name": "G1",
          "ticks": 119040,
          "time": 130.52612,
          "velocity": 0.7244094488188977
        },
        {
          "duration": 0.15899098958334434,
          "durationTicks": 145,
          "midi": 36,
          "name": "C2",
          "ticks": 120000,
          "time": 131.57874999999999,
          "velocity": 0.6692913385826772
        },
        {
          "duration": 0.1535085416666675,
          "durationTicks": 140,
          "midi": 36,
          "name": "C2",
          "ticks": 120480,
          "time": 132.105065,
          "velocity": 0.7007874015748031
        },
        {
          "duration": 0.1425436458333138,
          "durationTicks": 130,
          "midi": 31,
          "name": "G1",
          "ticks": 120960,
          "time": 132.63138,
          "velocity": 0.7244094488188977
        },
        {
          "duration": 0.15899098958334434,
          "durationTicks": 145,
          "midi": 36,
          "name": "C2",
          "ticks": 121920,
          "time": 133.68401,
          "velocity": 0.6692913385826772
        },
        {
          "duration": 0.1535085416666675,
          "durationTicks": 140,
          "midi": 36,
          "name": "C2",
          "ticks": 122400,
          "time": 134.21032499999998,
          "velocity": 0.7007874015748031
        },
        {
          "duration": 0.1425436458333138,
          "durationTicks": 130,
          "midi": 31,
          "name": "G1",
          "ticks": 122880,
          "time": 134.73664,
          "velocity": 0.7244094488188977
        },
        {
          "duration": 0.15899098958331592,
          "durationTicks": 145,
          "midi": 36,
          "name": "C2",
          "ticks": 123840,
          "time": 135.78927,
          "velocity": 0.6692913385826772
        },
        {
          "duration": 0.1535085416666675,
          "durationTicks": 140,
          "midi": 36,
          "name": "C2",
          "ticks": 124320,
          "time": 136.315585,
          "velocity": 0.7007874015748031
        },
        {
          "duration": 0.14254364583334223,
          "durationTicks": 130,
          "midi": 31,
          "name": "G1",
          "ticks": 124800,
          "time": 136.84189999999998,
          "velocity": 0.7244094488188977
        },
        {
          "duration": 0.15899098958331592,
          "durationTicks": 145,
          "midi": 36,
          "name": "C2",
          "ticks": 125760,
          "time": 137.89453,
          "velocity": 0.6692913385826772
        },
        {
          "duration": 0.15350854166669592,
          "durationTicks": 140,
          "midi": 36,
          "name": "C2",
          "ticks": 126240,
          "time": 138.42084499999999,
          "velocity": 0.7007874015748031
        },
        {
          "duration": 0.1425436458333138,
          "durationTicks": 130,
          "midi": 31,
          "name": "G1",
          "ticks": 126720,
          "time": 138.94716,
          "velocity": 0.7244094488188977
        },
        {
          "duration": 0.15899098958331592,
          "durationTicks": 145,
          "midi": 36,
          "name": "C2",
          "ticks": 127680,
          "time": 139.99979,
          "velocity": 0.6692913385826772
        },
        {
          "duration": 0.1535085416666675,
          "durationTicks": 140,
          "midi": 36,
          "name": "C2",
          "ticks": 128160,
          "time": 140.526105,
          "velocity": 0.7007874015748031
        },
        {
          "duration": 0.14254364583334223,
          "durationTicks": 130,
          "midi": 31,
          "name": "G1",
          "ticks": 128640,
          "time": 141.05241999999998,
          "velocity": 0.7244094488188977
        },
        {
          "duration": 0.15899098958331592,
          "durationTicks": 145,
          "midi": 36,
          "name": "C2",
          "ticks": 129600,
          "time": 142.10505,
          "velocity": 0.6692913385826772
        },
        {
          "duration": 0.15350854166669592,
          "durationTicks": 140,
          "midi": 36,
          "name": "C2",
          "ticks": 130080,
          "time": 142.631365,
          "velocity": 0.7007874015748031
        },
        {
          "duration": 0.1425436458333138,
          "durationTicks": 130,
          "midi": 31,
          "name": "G1",
          "ticks": 130560,
          "time": 143.15768,
          "velocity": 0.7244094488188977
        },
        {
          "duration": 0.15899098958331592,
          "durationTicks": 145,
          "midi": 36,
          "name": "C2",
          "ticks": 131520,
          "time": 144.21031,
          "velocity": 0.6692913385826772
        },
        {
          "duration": 0.1535085416666675,
          "durationTicks": 140,
          "midi": 36,
          "name": "C2",
          "ticks": 132000,
          "time": 144.736625,
          "velocity": 0.7007874015748031
        },
        {
          "duration": 0.14254364583334223,
          "durationTicks": 130,
          "midi": 31,
          "name": "G1",
          "ticks": 132480,
          "time": 145.26294,
          "velocity": 0.7244094488188977
        },
        {
          "duration": 0.15899098958334434,
          "durationTicks": 145,
          "midi": 36,
          "name": "C2",
          "ticks": 133440,
          "time": 146.31556999999998,
          "velocity": 0.6692913385826772
        },
        {
          "duration": 0.1535085416666675,
          "durationTicks": 140,
          "midi": 36,
          "name": "C2",
          "ticks": 133920,
          "time": 146.841885,
          "velocity": 0.7007874015748031
        },
        {
          "duration": 0.1425436458333138,
          "durationTicks": 130,
          "midi": 31,
          "name": "G1",
          "ticks": 134400,
          "time": 147.3682,
          "velocity": 0.7244094488188977
        },
        {
          "duration": 0.15899098958331592,
          "durationTicks": 145,
          "midi": 36,
          "name": "C2",
          "ticks": 135360,
          "time": 148.42083,
          "velocity": 0.6692913385826772
        },
        {
          "duration": 0.1535085416666675,
          "durationTicks": 140,
          "midi": 36,
          "name": "C2",
          "ticks": 135840,
          "time": 148.947145,
          "velocity": 0.7007874015748031
        },
        {
          "duration": 0.14254364583334223,
          "durationTicks": 130,
          "midi": 31,
          "name": "G1",
          "ticks": 136320,
          "time": 149.47346,
          "velocity": 0.7244094488188977
        },
        {
          "duration": 0.15899098958334434,
          "durationTicks": 145,
          "midi": 36,
          "name": "C2",
          "ticks": 137280,
          "time": 150.52608999999998,
          "velocity": 0.6692913385826772
        },
        {
          "duration": 0.1535085416666675,
          "durationTicks": 140,
          "midi": 36,
          "name": "C2",
          "ticks": 137760,
          "time": 151.052405,
          "velocity": 0.7007874015748031
        },
        {
          "duration": 0.1425436458333138,
          "durationTicks": 130,
          "midi": 31,
          "name": "G1",
          "ticks": 138240,
          "time": 151.57872,
          "velocity": 0.7244094488188977
        },
        {
          "duration": 0.15899098958331592,
          "durationTicks": 145,
          "midi": 36,
          "name": "C2",
          "ticks": 139200,
          "time": 152.63135,
          "velocity": 0.6692913385826772
        },
        {
          "duration": 0.15350854166669592,
          "durationTicks": 140,
          "midi": 36,
          "name": "C2",
          "ticks": 139680,
          "time": 153.15766499999998,
          "velocity": 0.7007874015748031
        },
        {
          "duration": 0.1425436458333138,
          "durationTicks": 130,
          "midi": 31,
          "name": "G1",
          "ticks": 140160,
          "time": 153.68398,
          "velocity": 0.7244094488188977
        },
        {
          "duration": 0.15899098958334434,
          "durationTicks": 145,
          "midi": 36,
          "name": "C2",
          "ticks": 141120,
          "time": 154.73660999999998,
          "velocity": 0.6692913385826772
        },
        {
          "duration": 0.1535085416666675,
          "durationTicks": 140,
          "midi": 36,
          "name": "C2",
          "ticks": 141600,
          "time": 155.262925,
          "velocity": 0.7007874015748031
        },
        {
          "duration": 0.1425436458333138,
          "durationTicks": 130,
          "midi": 31,
          "name": "G1",
          "ticks": 142080,
          "time": 155.78924,
          "velocity": 0.7244094488188977
        },
        {
          "duration": 0.15899098958331592,
          "durationTicks": 145,
          "midi": 36,
          "name": "C2",
          "ticks": 143040,
          "time": 156.84187,
          "velocity": 0.6692913385826772
        },
        {
          "duration": 0.15350854166669592,
          "durationTicks": 140,
          "midi": 36,
          "name": "C2",
          "ticks": 143520,
          "time": 157.36818499999998,
          "velocity": 0.7007874015748031
        },
        {
          "duration": 0.1425436458333138,
          "durationTicks": 130,
          "midi": 31,
          "name": "G1",
          "ticks": 144000,
          "time": 157.8945,
          "velocity": 0.7244094488188977
        },
        {
          "duration": 0.15899098958331592,
          "durationTicks": 145,
          "midi": 36,
          "name": "C2",
          "ticks": 144960,
          "time": 158.94713,
          "velocity": 0.6692913385826772
        },
        {
          "duration": 0.1535085416666675,
          "durationTicks": 140,
          "midi": 36,
          "name": "C2",
          "ticks": 145440,
          "time": 159.473445,
          "velocity": 0.7007874015748031
        },
        {
          "duration": 0.14254364583334223,
          "durationTicks": 130,
          "midi": 31,
          "name": "G1",
          "ticks": 145920,
          "time": 159.99975999999998,
          "velocity": 0.7244094488188977
        },
        {
          "duration": 0.15899098958331592,
          "durationTicks": 145,
          "midi": 36,
          "name": "C2",
          "ticks": 146880,
          "time": 161.05239,
          "velocity": 0.6692913385826772
        },
        {
          "duration": 0.15350854166669592,
          "durationTicks": 140,
          "midi": 36,
          "name": "C2",
          "ticks": 147360,
          "time": 161.57870499999999,
          "velocity": 0.7007874015748031
        },
        {
          "duration": 0.1425436458333138,
          "durationTicks": 130,
          "midi": 31,
          "name": "G1",
          "ticks": 147840,
          "time": 162.10502,
          "velocity": 0.7244094488188977
        },
        {
          "duration": 0.15899098958331592,
          "durationTicks": 145,
          "midi": 36,
          "name": "C2",
          "ticks": 148800,
          "time": 163.15765,
          "velocity": 0.6692913385826772
        },
        {
          "duration": 0.1535085416666675,
          "durationTicks": 140,
          "midi": 36,
          "name": "C2",
          "ticks": 149280,
          "time": 163.683965,
          "velocity": 0.7007874015748031
        },
        {
          "duration": 0.14254364583334223,
          "durationTicks": 130,
          "midi": 31,
          "name": "G1",
          "ticks": 149760,
          "time": 164.21027999999998,
          "velocity": 0.7244094488188977
        },
        {
          "duration": 0.15899098958331592,
          "durationTicks": 145,
          "midi": 36,
          "name": "C2",
          "ticks": 150720,
          "time": 165.26291,
          "velocity": 0.6692913385826772
        },
        {
          "duration": 0.15350854166669592,
          "durationTicks": 140,
          "midi": 36,
          "name": "C2",
          "ticks": 151200,
          "time": 165.789225,
          "velocity": 0.7007874015748031
        },
        {
          "duration": 0.1425436458333138,
          "durationTicks": 130,
          "midi": 31,
          "name": "G1",
          "ticks": 151680,
          "time": 166.31554,
          "velocity": 0.7244094488188977
        },
        {
          "duration": 0.15899098958331592,
          "durationTicks": 145,
          "midi": 36,
          "name": "C2",
          "ticks": 152640,
          "time": 167.36817,
          "velocity": 0.6692913385826772
        },
        {
          "duration": 0.1535085416666675,
          "durationTicks": 140,
          "midi": 36,
          "name": "C2",
          "ticks": 153120,
          "time": 167.894485,
          "velocity": 0.7007874015748031
        },
        {
          "duration": 0.14254364583334223,
          "durationTicks": 130,
          "midi": 31,
          "name": "G1",
          "ticks": 153600,
          "time": 168.42079999999999,
          "velocity": 0.7244094488188977
        },
        {
          "duration": 0.15899098958334434,
          "durationTicks": 145,
          "midi": 36,
          "name": "C2",
          "ticks": 154560,
          "time": 169.47342999999998,
          "velocity": 0.6692913385826772
        },
        {
          "duration": 0.1535085416666675,
          "durationTicks": 140,
          "midi": 36,
          "name": "C2",
          "ticks": 155040,
          "time": 169.999745,
          "velocity": 0.7007874015748031
        },
        {
          "duration": 0.1425436458333138,
          "durationTicks": 130,
          "midi": 31,
          "name": "G1",
          "ticks": 155520,
          "time": 170.52606,
          "velocity": 0.7244094488188977
        },
        {
          "duration": 0.15899098958331592,
          "durationTicks": 145,
          "midi": 36,
          "name": "C2",
          "ticks": 156480,
          "time": 171.57869,
          "velocity": 0.6692913385826772
        },
        {
          "duration": 0.1535085416666675,
          "durationTicks": 140,
          "midi": 36,
          "name": "C2",
          "ticks": 156960,
          "time": 172.105005,
          "velocity": 0.7007874015748031
        },
        {
          "duration": 0.1425436458333138,
          "durationTicks": 130,
          "midi": 31,
          "name": "G1",
          "ticks": 157440,
          "time": 172.63132,
          "velocity": 0.7244094488188977
        },
        {
          "duration": 0.15899098958334434,
          "durationTicks": 145,
          "midi": 36,
          "name": "C2",
          "ticks": 158400,
          "time": 173.68394999999998,
          "velocity": 0.6692913385826772
        },
        {
          "duration": 0.1535085416666675,
          "durationTicks": 140,
          "midi": 36,
          "name": "C2",
          "ticks": 158880,
          "time": 174.210265,
          "velocity": 0.7007874015748031
        },
        {
          "duration": 0.1425436458333138,
          "durationTicks": 130,
          "midi": 31,
          "name": "G1",
          "ticks": 159360,
          "time": 174.73658,
          "velocity": 0.7244094488188977
        },
        {
          "duration": 0.15899098958331592,
          "durationTicks": 145,
          "midi": 36,
          "name": "C2",
          "ticks": 160320,
          "time": 175.78921,
          "velocity": 0.6692913385826772
        },
        {
          "duration": 0.15350854166669592,
          "durationTicks": 140,
          "midi": 36,
          "name": "C2",
          "ticks": 160800,
          "time": 176.31552499999998,
          "velocity": 0.7007874015748031
        },
        {
          "duration": 0.1425436458333138,
          "durationTicks": 130,
          "midi": 31,
          "name": "G1",
          "ticks": 161280,
          "time": 176.84184,
          "velocity": 0.7244094488188977
        },
        {
          "duration": 0.15899098958334434,
          "durationTicks": 145,
          "midi": 36,
          "name": "C2",
          "ticks": 162240,
          "time": 177.89446999999998,
          "velocity": 0.6692913385826772
        },
        {
          "duration": 0.1535085416666675,
          "durationTicks": 140,
          "midi": 36,
          "name": "C2",
          "ticks": 162720,
          "time": 178.420785,
          "velocity": 0.7007874015748031
        },
        {
          "duration": 0.1425436458333138,
          "durationTicks": 130,
          "midi": 31,
          "name": "G1",
          "ticks": 163200,
          "time": 178.9471,
          "velocity": 0.7244094488188977
        },
        {
          "duration": 0.15899098958331592,
          "durationTicks": 145,
          "midi": 36,
          "name": "C2",
          "ticks": 164160,
          "time": 179.99973,
          "velocity": 0.6692913385826772
        },
        {
          "duration": 0.15350854166669592,
          "durationTicks": 140,
          "midi": 36,
          "name": "C2",
          "ticks": 164640,
          "time": 180.52604499999998,
          "velocity": 0.7007874015748031
        },
        {
          "duration": 0.1425436458333138,
          "durationTicks": 130,
          "midi": 31,
          "name": "G1",
          "ticks": 165120,
          "time": 181.05236,
          "velocity": 0.7244094488188977
        },
        {
          "duration": 0.15899098958331592,
          "durationTicks": 145,
          "midi": 36,
          "name": "C2",
          "ticks": 166080,
          "time": 182.10499,
          "velocity": 0.6692913385826772
        },
        {
          "duration": 0.1535085416666675,
          "durationTicks": 140,
          "midi": 36,
          "name": "C2",
          "ticks": 166560,
          "time": 182.631305,
          "velocity": 0.7007874015748031
        },
        {
          "duration": 0.14254364583334223,
          "durationTicks": 130,
          "midi": 31,
          "name": "G1",
          "ticks": 167040,
          "time": 183.15761999999998,
          "velocity": 0.7244094488188977
        },
        {
          "duration": 0.15899098958331592,
          "durationTicks": 145,
          "midi": 36,
          "name": "C2",
          "ticks": 168000,
          "time": 184.21025,
          "velocity": 0.6692913385826772
        },
        {
          "duration": 0.15350854166669592,
          "durationTicks": 140,
          "midi": 36,
          "name": "C2",
          "ticks": 168480,
          "time": 184.73656499999998,
          "velocity": 0.7007874015748031
        },
        {
          "duration": 0.1425436458333138,
          "durationTicks": 130,
          "midi": 31,
          "name": "G1",
          "ticks": 168960,
          "time": 185.26288,
          "velocity": 0.7244094488188977
        },
        {
          "duration": 0.15899098958331592,
          "durationTicks": 145,
          "midi": 36,
          "name": "C2",
          "ticks": 169920,
          "time": 186.31551,
          "velocity": 0.6692913385826772
        },
        {
          "duration": 0.1535085416666675,
          "durationTicks": 140,
          "midi": 36,
          "name": "C2",
          "ticks": 170400,
          "time": 186.841825,
          "velocity": 0.7007874015748031
        },
        {
          "duration": 0.14254364583334223,
          "durationTicks": 130,
          "midi": 31,
          "name": "G1",
          "ticks": 170880,
          "time": 187.36813999999998,
          "velocity": 0.7244094488188977
        },
        {
          "duration": 0.15899098958331592,
          "durationTicks": 145,
          "midi": 36,
          "name": "C2",
          "ticks": 171840,
          "time": 188.42077,
          "velocity": 0.6692913385826772
        },
        {
          "duration": 0.1535085416666675,
          "durationTicks": 140,
          "midi": 36,
          "name": "C2",
          "ticks": 172320,
          "time": 188.947085,
          "velocity": 0.7007874015748031
        },
        {
          "duration": 0.1425436458333138,
          "durationTicks": 130,
          "midi": 31,
          "name": "G1",
          "ticks": 172800,
          "time": 189.4734,
          "velocity": 0.7244094488188977
        },
        {
          "duration": 0.15899098958331592,
          "durationTicks": 145,
          "midi": 36,
          "name": "C2",
          "ticks": 173760,
          "time": 190.52603,
          "velocity": 0.6692913385826772
        },
        {
          "duration": 0.1535085416666675,
          "durationTicks": 140,
          "midi": 36,
          "name": "C2",
          "ticks": 174240,
          "time": 191.052345,
          "velocity": 0.7007874015748031
        },
        {
          "duration": 0.14254364583334223,
          "durationTicks": 130,
          "midi": 31,
          "name": "G1",
          "ticks": 174720,
          "time": 191.57865999999999,
          "velocity": 0.7244094488188977
        },
        {
          "duration": 0.15899098958334434,
          "durationTicks": 145,
          "midi": 36,
          "name": "C2",
          "ticks": 175680,
          "time": 192.63128999999998,
          "velocity": 0.6692913385826772
        },
        {
          "duration": 0.1535085416666675,
          "durationTicks": 140,
          "midi": 36,
          "name": "C2",
          "ticks": 176160,
          "time": 193.157605,
          "velocity": 0.7007874015748031
        },
        {
          "duration": 0.1425436458333138,
          "durationTicks": 130,
          "midi": 31,
          "name": "G1",
          "ticks": 176640,
          "time": 193.68392,
          "velocity": 0.7244094488188977
        },
        {
          "duration": 0.15899098958331592,
          "durationTicks": 145,
          "midi": 36,
          "name": "C2",
          "ticks": 177600,
          "time": 194.73655,
          "velocity": 0.6692913385826772
        },
        {
          "duration": 0.1535085416666675,
          "durationTicks": 140,
          "midi": 36,
          "name": "C2",
          "ticks": 178080,
          "time": 195.262865,
          "velocity": 0.7007874015748031
        },
        {
          "duration": 0.1425436458333138,
          "durationTicks": 130,
          "midi": 31,
          "name": "G1",
          "ticks": 178560,
          "time": 195.78918,
          "velocity": 0.7244094488188977
        },
        {
          "duration": 0.15899098958334434,
          "durationTicks": 145,
          "midi": 36,
          "name": "C2",
          "ticks": 179520,
          "time": 196.84180999999998,
          "velocity": 0.6692913385826772
        },
        {
          "duration": 0.1535085416666675,
          "durationTicks": 140,
          "midi": 36,
          "name": "C2",
          "ticks": 180000,
          "time": 197.368125,
          "velocity": 0.7007874015748031
        },
        {
          "duration": 0.1425436458333138,
          "durationTicks": 130,
          "midi": 31,
          "name": "G1",
          "ticks": 180480,
          "time": 197.89444,
          "velocity": 0.7244094488188977
        },
        {
          "duration": 0.15899098958331592,
          "durationTicks": 145,
          "midi": 36,
          "name": "C2",
          "ticks": 181440,
          "time": 198.94707,
          "velocity": 0.6692913385826772
        },
        {
          "duration": 0.15350854166669592,
          "durationTicks": 140,
          "midi": 36,
          "name": "C2",
          "ticks": 181920,
          "time": 199.47338499999998,
          "velocity": 0.7007874015748031
        },
        {
          "duration": 0.1425436458333138,
          "durationTicks": 130,
          "midi": 31,
          "name": "G1",
          "ticks": 182400,
          "time": 199.9997,
          "velocity": 0.7244094488188977
        },
        {
          "duration": 0.15899098958334434,
          "durationTicks": 145,
          "midi": 36,
          "name": "C2",
          "ticks": 183360,
          "time": 201.05232999999998,
          "velocity": 0.6692913385826772
        },
        {
          "duration": 0.1535085416666675,
          "durationTicks": 140,
          "midi": 36,
          "name": "C2",
          "ticks": 183840,
          "time": 201.578645,
          "velocity": 0.7007874015748031
        },
        {
          "duration": 0.1425436458333138,
          "durationTicks": 130,
          "midi": 31,
          "name": "G1",
          "ticks": 184320,
          "time": 202.10496,
          "velocity": 0.7244094488188977
        },
        {
          "duration": 0.15899098958331592,
          "durationTicks": 145,
          "midi": 36,
          "name": "C2",
          "ticks": 185280,
          "time": 203.15759,
          "velocity": 0.6692913385826772
        },
        {
          "duration": 0.15350854166669592,
          "durationTicks": 140,
          "midi": 36,
          "name": "C2",
          "ticks": 185760,
          "time": 203.68390499999998,
          "velocity": 0.7007874015748031
        },
        {
          "duration": 0.1425436458333138,
          "durationTicks": 130,
          "midi": 31,
          "name": "G1",
          "ticks": 186240,
          "time": 204.21022,
          "velocity": 0.7244094488188977
        },
        {
          "duration": 0.15899098958331592,
          "durationTicks": 145,
          "midi": 36,
          "name": "C2",
          "ticks": 187200,
          "time": 205.26285,
          "velocity": 0.6692913385826772
        },
        {
          "duration": 0.1535085416666675,
          "durationTicks": 140,
          "midi": 36,
          "name": "C2",
          "ticks": 187680,
          "time": 205.789165,
          "velocity": 0.7007874015748031
        },
        {
          "duration": 0.14254364583334223,
          "durationTicks": 130,
          "midi": 31,
          "name": "G1",
          "ticks": 188160,
          "time": 206.31547999999998,
          "velocity": 0.7244094488188977
        },
        {
          "duration": 0.15899098958331592,
          "durationTicks": 145,
          "midi": 36,
          "name": "C2",
          "ticks": 189120,
          "time": 207.36811,
          "velocity": 0.6692913385826772
        },
        {
          "duration": 0.15350854166669592,
          "durationTicks": 140,
          "midi": 36,
          "name": "C2",
          "ticks": 189600,
          "time": 207.89442499999998,
          "velocity": 0.7007874015748031
        },
        {
          "duration": 0.1425436458333138,
          "durationTicks": 130,
          "midi": 31,
          "name": "G1",
          "ticks": 190080,
          "time": 208.42074,
          "velocity": 0.7244094488188977
        },
        {
          "duration": 0.15899098958331592,
          "durationTicks": 145,
          "midi": 36,
          "name": "C2",
          "ticks": 191040,
          "time": 209.47337,
          "velocity": 0.6692913385826772
        },
        {
          "duration": 0.1535085416666675,
          "durationTicks": 140,
          "midi": 36,
          "name": "C2",
          "ticks": 191520,
          "time": 209.999685,
          "velocity": 0.7007874015748031
        },
        {
          "duration": 0.14254364583334223,
          "durationTicks": 130,
          "midi": 31,
          "name": "G1",
          "ticks": 192000,
          "time": 210.52599999999998,
          "velocity": 0.7244094488188977
        },
        {
          "duration": 0.15899098958331592,
          "durationTicks": 145,
          "midi": 36,
          "name": "C2",
          "ticks": 192960,
          "time": 211.57863,
          "velocity": 0.6692913385826772
        },
        {
          "duration": 0.1535085416666675,
          "durationTicks": 140,
          "midi": 36,
          "name": "C2",
          "ticks": 193440,
          "time": 212.104945,
          "velocity": 0.7007874015748031
        },
        {
          "duration": 0.1425436458333138,
          "durationTicks": 130,
          "midi": 31,
          "name": "G1",
          "ticks": 193920,
          "time": 212.63126,
          "velocity": 0.7244094488188977
        },
        {
          "duration": 0.15899098958331592,
          "durationTicks": 145,
          "midi": 36,
          "name": "C2",
          "ticks": 194880,
          "time": 213.68389,
          "velocity": 0.6692913385826772
        },
        {
          "duration": 0.1535085416666675,
          "durationTicks": 140,
          "midi": 36,
          "name": "C2",
          "ticks": 195360,
          "time": 214.210205,
          "velocity": 0.7007874015748031
        },
        {
          "duration": 0.14254364583334223,
          "durationTicks": 130,
          "midi": 31,
          "name": "G1",
          "ticks": 195840,
          "time": 214.73651999999998,
          "velocity": 0.7244094488188977
        },
        {
          "duration": 0.15899098958334434,
          "durationTicks": 145,
          "midi": 36,
          "name": "C2",
          "ticks": 196800,
          "time": 215.78914999999998,
          "velocity": 0.6692913385826772
        },
        {
          "duration": 0.1535085416666675,
          "durationTicks": 140,
          "midi": 36,
          "name": "C2",
          "ticks": 197280,
          "time": 216.315465,
          "velocity": 0.7007874015748031
        },
        {
          "duration": 0.1425436458333138,
          "durationTicks": 130,
          "midi": 31,
          "name": "G1",
          "ticks": 197760,
          "time": 216.84178,
          "velocity": 0.7244094488188977
        },
        {
          "duration": 0.15899098958331592,
          "durationTicks": 145,
          "midi": 36,
          "name": "C2",
          "ticks": 198720,
          "time": 217.89441,
          "velocity": 0.6692913385826772
        },
        {
          "duration": 0.1535085416666675,
          "durationTicks": 140,
          "midi": 36,
          "name": "C2",
          "ticks": 199200,
          "time": 218.420725,
          "velocity": 0.7007874015748031
        },
        {
          "duration": 0.1425436458333138,
          "durationTicks": 130,
          "midi": 31,
          "name": "G1",
          "ticks": 199680,
          "time": 218.94704,
          "velocity": 0.7244094488188977
        },
        {
          "duration": 0.15899098958334434,
          "durationTicks": 145,
          "midi": 36,
          "name": "C2",
          "ticks": 200640,
          "time": 219.99966999999998,
          "velocity": 0.6692913385826772
        },
        {
          "duration": 0.1535085416666675,
          "durationTicks": 140,
          "midi": 36,
          "name": "C2",
          "ticks": 201120,
          "time": 220.525985,
          "velocity": 0.7007874015748031
        },
        {
          "duration": 0.1425436458333138,
          "durationTicks": 130,
          "midi": 31,
          "name": "G1",
          "ticks": 201600,
          "time": 221.0523,
          "velocity": 0.7244094488188977
        },
        {
          "duration": 0.021929791666678966,
          "durationTicks": 20,
          "midi": 49,
          "name": "C#3",
          "ticks": 203760,
          "time": 223.4207175,
          "velocity": 0.11023622047244094
        },
        {
          "duration": 0.021929791666678966,
          "durationTicks": 20,
          "midi": 49,
          "name": "C#3",
          "ticks": 203760,
          "time": 223.4207175,
          "velocity": 0.16535433070866143
        },
        {
          "duration": 0.021929791666678966,
          "durationTicks": 20,
          "midi": 49,
          "name": "C#3",
          "ticks": 204000,
          "time": 223.683875,
          "velocity": 0.1968503937007874
        },
        {
          "duration": 0.021929791666678966,
          "durationTicks": 20,
          "midi": 49,
          "name": "C#3",
          "ticks": 204000,
          "time": 223.683875,
          "velocity": 0.2440944881889764
        },
        {
          "duration": 0.021929791666678966,
          "durationTicks": 20,
          "midi": 49,
          "name": "C#3",
          "ticks": 204240,
          "time": 223.94703249999998,
          "velocity": 0.30708661417322836
        },
        {
          "duration": 0.021929791666678966,
          "durationTicks": 20,
          "midi": 49,
          "name": "C#3",
          "ticks": 204240,
          "time": 223.94703249999998,
          "velocity": 0.3779527559055118
        },
        {
          "duration": 0.021929791666678966,
          "durationTicks": 20,
          "midi": 49,
          "name": "C#3",
          "ticks": 204240,
          "time": 223.94703249999998,
          "velocity": 0.4645669291338583
        },
        {
          "duration": 0.021929791666678966,
          "durationTicks": 20,
          "midi": 49,
          "name": "C#3",
          "ticks": 204240,
          "time": 223.94703249999998,
          "velocity": 0.5669291338582677
        },
        {
          "duration": 0.021929791666678966,
          "durationTicks": 20,
          "midi": 49,
          "name": "C#3",
          "ticks": 205680,
          "time": 225.52597749999998,
          "velocity": 0.07874015748031496
        },
        {
          "duration": 0.021929791666678966,
          "durationTicks": 20,
          "midi": 49,
          "name": "C#3",
          "ticks": 205680,
          "time": 225.52597749999998,
          "velocity": 0.08661417322834646
        },
        {
          "duration": 0.021929791666678966,
          "durationTicks": 20,
          "midi": 49,
          "name": "C#3",
          "ticks": 205920,
          "time": 225.789135,
          "velocity": 0.10236220472440945
        },
        {
          "duration": 0.021929791666678966,
          "durationTicks": 20,
          "midi": 49,
          "name": "C#3",
          "ticks": 205920,
          "time": 225.789135,
          "velocity": 0.13385826771653545
        },
        {
          "duration": 0.021929791666678966,
          "durationTicks": 20,
          "midi": 49,
          "name": "C#3",
          "ticks": 206160,
          "time": 226.0522925,
          "velocity": 0.18110236220472442
        },
        {
          "duration": 0.021929791666678966,
          "durationTicks": 20,
          "midi": 49,
          "name": "C#3",
          "ticks": 206160,
          "time": 226.0522925,
          "velocity": 0.2204724409448819
        },
        {
          "duration": 0.021929791666678966,
          "durationTicks": 20,
          "midi": 49,
          "name": "C#3",
          "ticks": 206160,
          "time": 226.0522925,
          "velocity": 0.28346456692913385
        },
        {
          "duration": 0.021929791666678966,
          "durationTicks": 20,
          "midi": 49,
          "name": "C#3",
          "ticks": 206400,
          "time": 226.31545,
          "velocity": 0.3464566929133858
        },
        {
          "duration": 0.021929791666678966,
          "durationTicks": 20,
          "midi": 49,
          "name": "C#3",
          "ticks": 206400,
          "time": 226.31545,
          "velocity": 0.4251968503937008
        },
        {
          "duration": 0.021929791666678966,
          "durationTicks": 20,
          "midi": 49,
          "name": "C#3",
          "ticks": 206400,
          "time": 226.31545,
          "velocity": 0.3937007874015748
        },
        {
          "duration": 0.021929791666650544,
          "durationTicks": 20,
          "midi": 49,
          "name": "C#3",
          "ticks": 206640,
          "time": 226.5786075,
          "velocity": 0.28346456692913385
        },
        {
          "duration": 0.021929791666650544,
          "durationTicks": 20,
          "midi": 49,
          "name": "C#3",
          "ticks": 206640,
          "time": 226.5786075,
          "velocity": 0.05511811023622047
        },
        {
          "duration": 0.021929791666650544,
          "durationTicks": 20,
          "midi": 49,
          "name": "C#3",
          "ticks": 206640,
          "time": 226.5786075,
          "velocity": 0.06299212598425197
        },
        {
          "duration": 0.021929791666678966,
          "durationTicks": 20,
          "midi": 49,
          "name": "C#3",
          "ticks": 206880,
          "time": 226.84176499999998,
          "velocity": 0.07086614173228346
        },
        {
          "duration": 0.021929791666678966,
          "durationTicks": 20,
          "midi": 49,
          "name": "C#3",
          "ticks": 206880,
          "time": 226.84176499999998,
          "velocity": 0.08661417322834646
        },
        {
          "duration": 0.021929791666678966,
          "durationTicks": 20,
          "midi": 49,
          "name": "C#3",
          "ticks": 206880,
          "time": 226.84176499999998,
          "velocity": 0.11023622047244094
        },
        {
          "duration": 0.021929791666678966,
          "durationTicks": 20,
          "midi": 49,
          "name": "C#3",
          "ticks": 207120,
          "time": 227.1049225,
          "velocity": 0.14173228346456693
        },
        {
          "duration": 0.021929791666678966,
          "durationTicks": 20,
          "midi": 49,
          "name": "C#3",
          "ticks": 207120,
          "time": 227.1049225,
          "velocity": 0.2204724409448819
        },
        {
          "duration": 0.021929791666678966,
          "durationTicks": 20,
          "midi": 49,
          "name": "C#3",
          "ticks": 207360,
          "time": 227.36808,
          "velocity": 0.2755905511811024
        },
        {
          "duration": 0.021929791666678966,
          "durationTicks": 20,
          "midi": 49,
          "name": "C#3",
          "ticks": 207360,
          "time": 227.36808,
          "velocity": 0.3543307086614173
        },
        {
          "duration": 0.021929791666678966,
          "durationTicks": 20,
          "midi": 49,
          "name": "C#3",
          "ticks": 207360,
          "time": 227.36808,
          "velocity": 0.44881889763779526
        },
        {
          "duration": 0.021929791666678966,
          "durationTicks": 20,
          "midi": 49,
          "name": "C#3",
          "ticks": 207600,
          "time": 227.6312375,
          "velocity": 0.5433070866141733
        },
        {
          "duration": 0.021929791666678966,
          "durationTicks": 20,
          "midi": 49,
          "name": "C#3",
          "ticks": 209760,
          "time": 229.999655,
          "velocity": 0.07874015748031496
        },
        {
          "duration": 0.021929791666678966,
          "durationTicks": 20,
          "midi": 49,
          "name": "C#3",
          "ticks": 209760,
          "time": 229.999655,
          "velocity": 0.08661417322834646
        },
        {
          "duration": 0.021929791666678966,
          "durationTicks": 20,
          "midi": 49,
          "name": "C#3",
          "ticks": 209760,
          "time": 229.999655,
          "velocity": 0.10236220472440945
        },
        {
          "duration": 0.021929791666678966,
          "durationTicks": 20,
          "midi": 49,
          "name": "C#3",
          "ticks": 210000,
          "time": 230.2628125,
          "velocity": 0.13385826771653545
        },
        {
          "duration": 0.021929791666678966,
          "durationTicks": 20,
          "midi": 49,
          "name": "C#3",
          "ticks": 210000,
          "time": 230.2628125,
          "velocity": 0.11023622047244094
        },
        {
          "duration": 0.021929791666678966,
          "durationTicks": 20,
          "midi": 49,
          "name": "C#3",
          "ticks": 210000,
          "time": 230.2628125,
          "velocity": 0.16535433070866143
        },
        {
          "duration": 0.021929791666678966,
          "durationTicks": 20,
          "midi": 49,
          "name": "C#3",
          "ticks": 210240,
          "time": 230.52597,
          "velocity": 0.1968503937007874
        },
        {
          "duration": 0.021929791666678966,
          "durationTicks": 20,
          "midi": 49,
          "name": "C#3",
          "ticks": 210240,
          "time": 230.52597,
          "velocity": 0.2440944881889764
        },
        {
          "duration": 0.021929791666678966,
          "durationTicks": 20,
          "midi": 49,
          "name": "C#3",
          "ticks": 210480,
          "time": 230.78912749999998,
          "velocity": 0.30708661417322836
        },
        {
          "duration": 0.021929791666678966,
          "durationTicks": 20,
          "midi": 49,
          "name": "C#3",
          "ticks": 210480,
          "time": 230.78912749999998,
          "velocity": 0.3779527559055118
        },
        {
          "duration": 0.021929791666678966,
          "durationTicks": 20,
          "midi": 49,
          "name": "C#3",
          "ticks": 210480,
          "time": 230.78912749999998,
          "velocity": 0.4645669291338583
        },
        {
          "duration": 0.021929791666678966,
          "durationTicks": 20,
          "midi": 49,
          "name": "C#3",
          "ticks": 210480,
          "time": 230.78912749999998,
          "velocity": 0.5669291338582677
        },
        {
          "duration": 0.021929791666678966,
          "durationTicks": 20,
          "midi": 49,
          "name": "C#3",
          "ticks": 211200,
          "time": 231.5786,
          "velocity": 0.11023622047244094
        },
        {
          "duration": 0.021929791666678966,
          "durationTicks": 20,
          "midi": 49,
          "name": "C#3",
          "ticks": 211440,
          "time": 231.8417575,
          "velocity": 0.16535433070866143
        },
        {
          "duration": 0.021929791666678966,
          "durationTicks": 20,
          "midi": 49,
          "name": "C#3",
          "ticks": 211440,
          "time": 231.8417575,
          "velocity": 0.1968503937007874
        },
        {
          "duration": 0.021929791666678966,
          "durationTicks": 20,
          "midi": 49,
          "name": "C#3",
          "ticks": 211680,
          "time": 232.10491499999998,
          "velocity": 0.2440944881889764
        },
        {
          "duration": 0.021929791666678966,
          "durationTicks": 20,
          "midi": 49,
          "name": "C#3",
          "ticks": 211680,
          "time": 232.10491499999998,
          "velocity": 0.30708661417322836
        },
        {
          "duration": 0.021929791666678966,
          "durationTicks": 20,
          "midi": 49,
          "name": "C#3",
          "ticks": 211680,
          "time": 232.10491499999998,
          "velocity": 0.3779527559055118
        },
        {
          "duration": 0.021929791666678966,
          "durationTicks": 20,
          "midi": 49,
          "name": "C#3",
          "ticks": 211920,
          "time": 232.36807249999998,
          "velocity": 0.4645669291338583
        },
        {
          "duration": 0.021929791666678966,
          "durationTicks": 20,
          "midi": 49,
          "name": "C#3",
          "ticks": 211920,
          "time": 232.36807249999998,
          "velocity": 0.5669291338582677
        },
        {
          "duration": 0.021929791666678966,
          "durationTicks": 20,
          "midi": 49,
          "name": "C#3",
          "ticks": 213360,
          "time": 233.9470175,
          "velocity": 0.07874015748031496
        },
        {
          "duration": 0.021929791666678966,
          "durationTicks": 20,
          "midi": 49,
          "name": "C#3",
          "ticks": 213600,
          "time": 234.210175,
          "velocity": 0.08661417322834646
        },
        {
          "duration": 0.021929791666678966,
          "durationTicks": 20,
          "midi": 49,
          "name": "C#3",
          "ticks": 213600,
          "time": 234.210175,
          "velocity": 0.10236220472440945
        },
        {
          "duration": 0.021929791666678966,
          "durationTicks": 20,
          "midi": 49,
          "name": "C#3",
          "ticks": 213600,
          "time": 234.210175,
          "velocity": 0.13385826771653545
        },
        {
          "duration": 0.021929791666678966,
          "durationTicks": 20,
          "midi": 49,
          "name": "C#3",
          "ticks": 213840,
          "time": 234.4733325,
          "velocity": 0.1968503937007874
        },
        {
          "duration": 0.021929791666678966,
          "durationTicks": 20,
          "midi": 49,
          "name": "C#3",
          "ticks": 213840,
          "time": 234.4733325,
          "velocity": 0.2440944881889764
        },
        {
          "duration": 0.021929791666678966,
          "durationTicks": 20,
          "midi": 49,
          "name": "C#3",
          "ticks": 213840,
          "time": 234.4733325,
          "velocity": 0.30708661417322836
        },
        {
          "duration": 0.021929791666650544,
          "durationTicks": 20,
          "midi": 49,
          "name": "C#3",
          "ticks": 214080,
          "time": 234.73649,
          "velocity": 0.4015748031496063
        },
        {
          "duration": 0.021929791666650544,
          "durationTicks": 20,
          "midi": 49,
          "name": "C#3",
          "ticks": 214080,
          "time": 234.73649,
          "velocity": 0.3228346456692913
        },
        {
          "duration": 0.021929791666650544,
          "durationTicks": 20,
          "midi": 49,
          "name": "C#3",
          "ticks": 214080,
          "time": 234.73649,
          "velocity": 0.14960629921259844
        },
        {
          "duration": 0.021929791666678966,
          "durationTicks": 20,
          "midi": 49,
          "name": "C#3",
          "ticks": 214320,
          "time": 234.99964749999998,
          "velocity": 0.07874015748031496
        },
        {
          "duration": 0.021929791666678966,
          "durationTicks": 20,
          "midi": 49,
          "name": "C#3",
          "ticks": 214320,
          "time": 234.99964749999998,
          "velocity": 0.08661417322834646
        },
        {
          "duration": 0.021929791666678966,
          "durationTicks": 20,
          "midi": 49,
          "name": "C#3",
          "ticks": 214320,
          "time": 234.99964749999998,
          "velocity": 0.10236220472440945
        },
        {
          "duration": 0.021929791666678966,
          "durationTicks": 20,
          "midi": 49,
          "name": "C#3",
          "ticks": 214560,
          "time": 235.262805,
          "velocity": 0.13385826771653545
        },
        {
          "duration": 0.021929791666678966,
          "durationTicks": 20,
          "midi": 49,
          "name": "C#3",
          "ticks": 214560,
          "time": 235.262805,
          "velocity": 0.07874015748031496
        },
        {
          "duration": 0.021929791666678966,
          "durationTicks": 20,
          "midi": 49,
          "name": "C#3",
          "ticks": 214560,
          "time": 235.262805,
          "velocity": 0.08661417322834646
        },
        {
          "duration": 0.021929791666678966,
          "durationTicks": 20,
          "midi": 49,
          "name": "C#3",
          "ticks": 214800,
          "time": 235.5259625,
          "velocity": 0.09448818897637795
        },
        {
          "duration": 0.021929791666678966,
          "durationTicks": 20,
          "midi": 49,
          "name": "C#3",
          "ticks": 214800,
          "time": 235.5259625,
          "velocity": 0.09448818897637795
        },
        {
          "duration": 0.021929791666678966,
          "durationTicks": 20,
          "midi": 49,
          "name": "C#3",
          "ticks": 214800,
          "time": 235.5259625,
          "velocity": 0.09448818897637795
        },
        {
          "duration": 0.021929791666678966,
          "durationTicks": 20,
          "midi": 49,
          "name": "C#3",
          "ticks": 215040,
          "time": 235.78912,
          "velocity": 0.10236220472440945
        },
        {
          "duration": 0.021929791666678966,
          "durationTicks": 20,
          "midi": 49,
          "name": "C#3",
          "ticks": 215040,
          "time": 235.78912,
          "velocity": 0.11023622047244094
        },
        {
          "duration": 0.021929791666678966,
          "durationTicks": 20,
          "midi": 49,
          "name": "C#3",
          "ticks": 215040,
          "time": 235.78912,
          "velocity": 0.11811023622047244
        },
        {
          "duration": 0.021929791666650544,
          "durationTicks": 20,
          "midi": 49,
          "name": "C#3",
          "ticks": 215280,
          "time": 236.0522775,
          "velocity": 0.12598425196850394
        },
        {
          "duration": 0.021929791666650544,
          "durationTicks": 20,
          "midi": 49,
          "name": "C#3",
          "ticks": 215280,
          "time": 236.0522775,
          "velocity": 0.13385826771653545
        },
        {
          "duration": 0.021929791666678966,
          "durationTicks": 20,
          "midi": 49,
          "name": "C#3",
          "ticks": 215520,
          "time": 236.31543499999998,
          "velocity": 0.15748031496062992
        },
        {
          "duration": 0.021929791666678966,
          "durationTicks": 20,
          "midi": 49,
          "name": "C#3",
          "ticks": 215520,
          "time": 236.31543499999998,
          "velocity": 0.1732283464566929
        },
        {
          "duration": 0.021929791666678966,
          "durationTicks": 20,
          "midi": 49,
          "name": "C#3",
          "ticks": 215520,
          "time": 236.31543499999998,
          "velocity": 0.1889763779527559
        },
        {
          "duration": 0.021929791666678966,
          "durationTicks": 20,
          "midi": 49,
          "name": "C#3",
          "ticks": 215760,
          "time": 236.57859249999998,
          "velocity": 0.2125984251968504
        },
        {
          "duration": 0.021929791666678966,
          "durationTicks": 20,
          "midi": 49,
          "name": "C#3",
          "ticks": 215760,
          "time": 236.57859249999998,
          "velocity": 0.23622047244094488
        },
        {
          "duration": 0.021929791666678966,
          "durationTicks": 20,
          "midi": 49,
          "name": "C#3",
          "ticks": 215760,
          "time": 236.57859249999998,
          "velocity": 0.25984251968503935
        },
        {
          "duration": 0.021929791666678966,
          "durationTicks": 20,
          "midi": 49,
          "name": "C#3",
          "ticks": 216000,
          "time": 236.84175,
          "velocity": 0.28346456692913385
        },
        {
          "duration": 0.021929791666678966,
          "durationTicks": 20,
          "midi": 49,
          "name": "C#3",
          "ticks": 216000,
          "time": 236.84175,
          "velocity": 0.30708661417322836
        },
        {
          "duration": 0.021929791666678966,
          "durationTicks": 20,
          "midi": 49,
          "name": "C#3",
          "ticks": 216000,
          "time": 236.84175,
          "velocity": 0.33858267716535434
        },
        {
          "duration": 0.021929791666678966,
          "durationTicks": 20,
          "midi": 49,
          "name": "C#3",
          "ticks": 216240,
          "time": 237.1049075,
          "velocity": 0.3700787401574803
        },
        {
          "duration": 0.021929791666678966,
          "durationTicks": 20,
          "midi": 49,
          "name": "C#3",
          "ticks": 216240,
          "time": 237.1049075,
          "velocity": 0.4015748031496063
        },
        {
          "duration": 0.021929791666678966,
          "durationTicks": 20,
          "midi": 49,
          "name": "C#3",
          "ticks": 216240,
          "time": 237.1049075,
          "velocity": 0.44881889763779526
        },
        {
          "duration": 0.021929791666678966,
          "durationTicks": 20,
          "midi": 49,
          "name": "C#3",
          "ticks": 216480,
          "time": 237.368065,
          "velocity": 0.48031496062992124
        },
        {
          "duration": 0.021929791666678966,
          "durationTicks": 20,
          "midi": 49,
          "name": "C#3",
          "ticks": 216480,
          "time": 237.368065,
          "velocity": 0.5196850393700787
        },
        {
          "duration": 0.021929791666678966,
          "durationTicks": 20,
          "midi": 49,
          "name": "C#3",
          "ticks": 216480,
          "time": 237.368065,
          "velocity": 0.5039370078740157
        },
        {
          "duration": 0.021929791666678966,
          "durationTicks": 20,
          "midi": 49,
          "name": "C#3",
          "ticks": 216720,
          "time": 237.63122249999998,
          "velocity": 0.5039370078740157
        },
        {
          "duration": 0.021929791666678966,
          "durationTicks": 20,
          "midi": 49,
          "name": "C#3",
          "ticks": 216720,
          "time": 237.63122249999998,
          "velocity": 0.5118110236220472
        },
        {
          "duration": 0.021929791666678966,
          "durationTicks": 20,
          "midi": 49,
          "name": "C#3",
          "ticks": 216720,
          "time": 237.63122249999998,
          "velocity": 0.5196850393700787
        },
        {
          "duration": 0.021929791666678966,
          "durationTicks": 20,
          "midi": 49,
          "name": "C#3",
          "ticks": 216960,
          "time": 237.89437999999998,
          "velocity": 0.5275590551181102
        },
        {
          "duration": 0.021929791666678966,
          "durationTicks": 20,
          "midi": 49,
          "name": "C#3",
          "ticks": 216960,
          "time": 237.89437999999998,
          "velocity": 0.5433070866141733
        },
        {
          "duration": 0.021929791666678966,
          "durationTicks": 20,
          "midi": 49,
          "name": "C#3",
          "ticks": 217200,
          "time": 238.1575375,
          "velocity": 0.5669291338582677
        },
        {
          "duration": 0.021929791666678966,
          "durationTicks": 20,
          "midi": 49,
          "name": "C#3",
          "ticks": 217200,
          "time": 238.1575375,
          "velocity": 0.5826771653543307
        },
        {
          "duration": 0.021929791666678966,
          "durationTicks": 20,
          "midi": 49,
          "name": "C#3",
          "ticks": 217200,
          "time": 238.1575375,
          "velocity": 0.6062992125984252
        },
        {
          "duration": 0.021929791666678966,
          "durationTicks": 20,
          "midi": 49,
          "name": "C#3",
          "ticks": 217200,
          "time": 238.1575375,
          "velocity": 0.6299212598425197
        },
        {
          "duration": 0.021929791666678966,
          "durationTicks": 20,
          "midi": 49,
          "name": "C#3",
          "ticks": 217440,
          "time": 238.420695,
          "velocity": 0.6535433070866141
        },
        {
          "duration": 0.021929791666678966,
          "durationTicks": 20,
          "midi": 49,
          "name": "C#3",
          "ticks": 217440,
          "time": 238.420695,
          "velocity": 0.6850393700787402
        },
        {
          "duration": 0.021929791666678966,
          "durationTicks": 20,
          "midi": 49,
          "name": "C#3",
          "ticks": 217440,
          "time": 238.420695,
          "velocity": 0.7165354330708661
        }
      ],
      "endOfTrackTicks": 217920
    }
  ]
}