{
    "header": {
      "keySignatures": [
        {
          "key": "C",
          "scale": "major",
          "ticks": 0
        }
      ],
      "meta": [],
      "name": "",
      "ppq": 480,
      "tempos": [
        {
          "bpm": 98.25837038492716,
          "ticks": 0
        },
        {
          "bpm": 100.276596278067,
          "ticks": 3840
        },
        {
          "bpm": 102.27737624437475,
          "ticks": 5760
        },
        {
          "bpm": 103.60815396171678,
          "ticks": 13440
        },
        {
          "bpm": 105.27774902135559,
          "ticks": 15360
        },
        {
          "bpm": 102.53728512030187,
          "ticks": 17280
        },
        {
          "bpm": 103.96235176701344,
          "ticks": 19200
        },
        {
          "bpm": 103.39818122599223,
          "ticks": 23040
        },
        {
          "bpm": 103.9960481501703,
          "ticks": 26880
        },
        {
          "bpm": 105.66449760934074,
          "ticks": 28800
        },
        {
          "bpm": 104.55038108613905,
          "ticks": 30720
        },
        {
          "bpm": 103.01737903184267,
          "ticks": 34560
        },
        {
          "bpm": 105.58491402748375,
          "ticks": 36480
        },
        {
          "bpm": 104.26187803445508,
          "ticks": 40320
        },
        {
          "bpm": 105.30287740112499,
          "ticks": 44160
        },
        {
          "bpm": 103.83083879743123,
          "ticks": 46080
        },
        {
          "bpm": 100.60260963169385,
          "ticks": 48000
        },
        {
          "bpm": 98.68989168784387,
          "ticks": 49920
        },
        {
          "bpm": 101.43856795792328,
          "ticks": 51840
        },
        {
          "bpm": 98.76998446018911,
          "ticks": 53760
        },
        {
          "bpm": 97.76907270922989,
          "ticks": 55680
        },
        {
          "bpm": 100.43740489833223,
          "ticks": 57600
        },
        {
          "bpm": 102.02034285636556,
          "ticks": 59520
        },
        {
          "bpm": 97.4056017961593,
          "ticks": 61440
        },
        {
          "bpm": 94.67156855010492,
          "ticks": 63360
        },
        {
          "bpm": 99.82447529760172,
          "ticks": 65280
        },
        {
          "bpm": 102.23711854905082,
          "ticks": 67200
        },
        {
          "bpm": 98.80414055218341,
          "ticks": 69120
        },
        {
          "bpm": 101.62154105679627,
          "ticks": 72960
        },
        {
          "bpm": 102.83252181334869,
          "ticks": 74880
        },
        {
          "bpm": 97.31160473323645,
          "ticks": 78720
        },
        {
          "bpm": 94.63767178709047,
          "ticks": 80640
        },
        {
          "bpm": 98.21735500662967,
          "ticks": 82560
        },
        {
          "bpm": 96.63454105035304,
          "ticks": 86400
        },
        {
          "bpm": 94.4974154956862,
          "ticks": 88320
        },
        {
          "bpm": 96.79714383894246,
          "ticks": 90240
        },
        {
          "bpm": 100.10210414622915,
          "ticks": 92160
        },
        {
          "bpm": 97.6004919064792,
          "ticks": 94080
        },
        {
          "bpm": 95.90332944392053,
          "ticks": 96000
        },
        {
          "bpm": 96.03657072613251,
          "ticks": 99840
        },
        {
          "bpm": 98.09483481647274,
          "ticks": 101760
        },
        {
          "bpm": 99.29911375540973,
          "ticks": 105600
        },
        {
          "bpm": 96.06009519555434,
          "ticks": 107520
        },
        {
          "bpm": 98.28106418736301,
          "ticks": 111360
        },
        {
          "bpm": 100.80187894702357,
          "ticks": 113280
        },
        {
          "bpm": 98.09932556713673,
          "ticks": 115200
        },
        {
          "bpm": 100.30123805161502,
          "ticks": 119040
        },
        {
          "bpm": 103.67725960267418,
          "ticks": 120960
        },
        {
          "bpm": 101.56168010102002,
          "ticks": 122880
        },
        {
          "bpm": 99.500837465382,
          "ticks": 126720
        },
        {
          "bpm": 102.77228231545952,
          "ticks": 128640
        },
        {
          "bpm": 98.86405204203699,
          "ticks": 130560
        },
        {
          "bpm": 96.09763519736052,
          "ticks": 132480
        },
        {
          "bpm": 98.04898854297569,
          "ticks": 134400
        },
        {
          "bpm": 102.87007509515482,
          "ticks": 136320
        },
        {
          "bpm": 98.06437272306785,
          "ticks": 138240
        },
        {
          "bpm": 101.10337483065184,
          "ticks": 140160
        },
        {
          "bpm": 107.42003920831431,
          "ticks": 142080
        },
        {
          "bpm": 109.09190083546214,
          "ticks": 144000
        },
        {
          "bpm": 112.09003071266841,
          "ticks": 145920
        },
        {
          "bpm": 108.59060256925366,
          "ticks": 147840
        },
        {
          "bpm": 110.12144560092355,
          "ticks": 151680
        },
        {
          "bpm": 109.0909090909091,
          "ticks": 155520
        },
        {
          "bpm": 111.03749736285944,
          "ticks": 157440
        },
        {
          "bpm": 112.69277507836843,
          "ticks": 159360
        },
        {
          "bpm": 110.12144560092355,
          "ticks": 161280
        },
        {
          "bpm": 113.1639897096212,
          "ticks": 165120
        },
        {
          "bpm": 112.17259623473986,
          "ticks": 167040
        },
        {
          "bpm": 111.62832233794359,
          "ticks": 170880
        },
        {
          "bpm": 112.94202685761398,
          "ticks": 174720
        },
        {
          "bpm": 113.16270911525622,
          "ticks": 182400
        },
        {
          "bpm": 114.28680273145459,
          "ticks": 184320
        },
        {
          "bpm": 111.62894538553847,
          "ticks": 186240
        },
        {
          "bpm": 115.42989942208096,
          "ticks": 188160
        },
        {
          "bpm": 113.37782783198918,
          "ticks": 190080
        },
        {
          "bpm": 113.40632920723306,
          "ticks": 197760
        },
        {
          "bpm": 112.15896664205401,
          "ticks": 201600
        },
        {
          "bpm": 112.58239624124906,
          "ticks": 205440
        },
        {
          "bpm": 113.70613785732154,
          "ticks": 207360
        },
        {
          "bpm": 111.24068591006932,
          "ticks": 209280
        },
        {
          "bpm": 110.34543638861456,
          "ticks": 211200
        },
        {
          "bpm": 106.66761482324287,
          "ticks": 215040
        },
        {
          "bpm": 104.27075639744537,
          "ticks": 216960
        },
        {
          "bpm": 108.78137662832123,
          "ticks": 218880
        },
        {
          "bpm": 116.3588973830884,
          "ticks": 219840
        },
        {
          "bpm": 112.43303207527016,
          "ticks": 220320
        },
        {
          "bpm": 121.0206884866968,
          "ticks": 220800
        },
        {
          "bpm": 119.24825897541896,
          "ticks": 221280
        },
        {
          "bpm": 124.13801664690803,
          "ticks": 221760
        },
        {
          "bpm": 128.00682703077499,
          "ticks": 222720
        },
        {
          "bpm": 131.50944347395347,
          "ticks": 224640
        },
        {
          "bpm": 129.368058595106,
          "ticks": 228480
        },
        {
          "bpm": 132.12483154083978,
          "ticks": 230400
        },
        {
          "bpm": 128.4738801895418,
          "ticks": 234240
        },
        {
          "bpm": 127.75579904864514,
          "ticks": 238080
        },
        {
          "bpm": 128.00546156636017,
          "ticks": 241920
        },
        {
          "bpm": 128,
          "ticks": 242400
        }
      ],
      "timeSignatures": [
        {
          "ticks": 0,
          "timeSignature": [
            4,
            4
          ],
          "measures": 0
        }
      ]
    },
    "tracks": [
      {
        "channel": 0,
        "controlChanges": {},
        "pitchBends": [],
        "instrument": {
          "family": "piano",
          "number": 0,
          "name": "acoustic grand piano"
        },
        "name": "transcribed (4)",
        "notes": [
          {
            "duration": 1.5596635625,
            "durationTicks": 1226,
            "midi": 80,
            "name": "G#5",
            "ticks": 1920,
            "time": 2.44254,
            "velocity": 1
          },
          {
            "duration": 0.64116675,
            "durationTicks": 504,
            "midi": 85,
            "name": "C#6",
            "ticks": 1920,
            "time": 2.44254,
            "velocity": 1
          },
          {
            "duration": 0.32058337500000045,
            "durationTicks": 252,
            "midi": 89,
            "name": "F6",
            "ticks": 1920,
            "time": 2.44254,
            "velocity": 1
          },
          {
            "duration": 0.320583375,
            "durationTicks": 252,
            "midi": 87,
            "name": "D#6",
            "ticks": 2160,
            "time": 2.7478575000000003,
            "velocity": 1
          },
          {
            "duration": 0.3154947499999996,
            "durationTicks": 248,
            "midi": 89,
            "name": "F6",
            "ticks": 2400,
            "time": 3.0531750000000004,
            "velocity": 1
          },
          {
            "duration": 0.30531750000000013,
            "durationTicks": 240,
            "midi": 94,
            "name": "A#6",
            "ticks": 2640,
            "time": 3.3584925,
            "velocity": 1
          },
          {
            "duration": 0.29768456249999975,
            "durationTicks": 234,
            "midi": 89,
            "name": "F6",
            "ticks": 2880,
            "time": 3.6638100000000002,
            "velocity": 1
          },
          {
            "duration": 0.5813754062499998,
            "durationTicks": 457,
            "midi": 87,
            "name": "D#6",
            "ticks": 3120,
            "time": 3.9691275000000004,
            "velocity": 1
          },
          {
            "duration": 0.5915526562500002,
            "durationTicks": 465,
            "midi": 89,
            "name": "F6",
            "ticks": 3360,
            "time": 4.274445,
            "velocity": 1
          },
          {
            "duration": 0.5857917187500004,
            "durationTicks": 465,
            "midi": 87,
            "name": "D#6",
            "ticks": 3600,
            "time": 4.5797625,
            "velocity": 1
          },
          {
            "duration": 0.6320019062500002,
            "durationTicks": 507,
            "midi": 89,
            "name": "F6",
            "ticks": 3840,
            "time": 4.88508,
            "velocity": 1
          },
          {
            "duration": 0.6270156979166668,
            "durationTicks": 503,
            "midi": 94,
            "name": "A#6",
            "ticks": 4080,
            "time": 5.1842525,
            "velocity": 1
          },
          {
            "duration": 0.5509760208333336,
            "durationTicks": 442,
            "midi": 89,
            "name": "F6",
            "ticks": 4320,
            "time": 5.483425,
            "velocity": 1
          },
          {
            "duration": 0.24557076041666637,
            "durationTicks": 197,
            "midi": 87,
            "name": "D#6",
            "ticks": 4560,
            "time": 5.7825975000000005,
            "velocity": 1
          },
          {
            "duration": 0.5721674062499993,
            "durationTicks": 459,
            "midi": 89,
            "name": "F6",
            "ticks": 4800,
            "time": 6.081770000000001,
            "velocity": 1
          },
          {
            "duration": 0.6033312083333326,
            "durationTicks": 484,
            "midi": 87,
            "name": "D#6",
            "ticks": 5040,
            "time": 6.380942500000001,
            "velocity": 1
          },
          {
            "duration": 0.6032336666666671,
            "durationTicks": 484,
            "midi": 89,
            "name": "F6",
            "ticks": 5280,
            "time": 6.680115000000001,
            "velocity": 1
          },
          {
            "duration": 0.5766043333333339,
            "durationTicks": 467,
            "midi": 92,
            "name": "G#6",
            "ticks": 5520,
            "time": 6.9792875,
            "velocity": 1
          },
          {
            "duration": 0.5707518333333335,
            "durationTicks": 467,
            "midi": 89,
            "name": "F6",
            "ticks": 5760,
            "time": 7.278460000000001,
            "velocity": 1
          },
          {
            "duration": 0.8616275000000009,
            "durationTicks": 705,
            "midi": 87,
            "name": "D#6",
            "ticks": 6000,
            "time": 7.57178,
            "velocity": 1
          },
          {
            "duration": 0.2823205,
            "durationTicks": 231,
            "midi": 89,
            "name": "F6",
            "ticks": 6240,
            "time": 7.865100000000001,
            "velocity": 1
          },
          {
            "duration": 0.29087566666666653,
            "durationTicks": 238,
            "midi": 89,
            "name": "F6",
            "ticks": 6720,
            "time": 8.451740000000001,
            "velocity": 1
          },
          {
            "duration": 0.27987616666666604,
            "durationTicks": 229,
            "midi": 92,
            "name": "G#6",
            "ticks": 6960,
            "time": 8.74506,
            "velocity": 1
          },
          {
            "duration": 0.299430833333334,
            "durationTicks": 245,
            "midi": 89,
            "name": "F6",
            "ticks": 7200,
            "time": 9.03838,
            "velocity": 1
          },
          {
            "duration": 0.29209783333333306,
            "durationTicks": 239,
            "midi": 87,
            "name": "D#6",
            "ticks": 7440,
            "time": 9.331700000000001,
            "velocity": 1
          },
          {
            "duration": 3.5125069999999994,
            "durationTicks": 2874,
            "midi": 77,
            "name": "F5",
            "ticks": 7680,
            "time": 9.625020000000001,
            "velocity": 1
          },
          {
            "duration": 3.5125069999999994,
            "durationTicks": 2874,
            "midi": 80,
            "name": "G#5",
            "ticks": 7680,
            "time": 9.625020000000001,
            "velocity": 1
          },
          {
            "duration": 0.5609744999999986,
            "durationTicks": 459,
            "midi": 84,
            "name": "C6",
            "ticks": 7680,
            "time": 9.625020000000001,
            "velocity": 1
          },
          {
            "duration": 0.27132100000000037,
            "durationTicks": 222,
            "midi": 87,
            "name": "D#6",
            "ticks": 7680,
            "time": 9.625020000000001,
            "velocity": 1
          },
          {
            "duration": 0.299430833333334,
            "durationTicks": 245,
            "midi": 85,
            "name": "C#6",
            "ticks": 7920,
            "time": 9.91834,
            "velocity": 1
          },
          {
            "duration": 0.27132100000000037,
            "durationTicks": 222,
            "midi": 87,
            "name": "D#6",
            "ticks": 8160,
            "time": 10.21166,
            "velocity": 1
          },
          {
            "duration": 0.2908756666666683,
            "durationTicks": 238,
            "midi": 92,
            "name": "G#6",
            "ticks": 8400,
            "time": 10.50498,
            "velocity": 1
          },
          {
            "duration": 0.29087566666666653,
            "durationTicks": 238,
            "midi": 87,
            "name": "D#6",
            "ticks": 8640,
            "time": 10.798300000000001,
            "velocity": 1
          },
          {
            "duration": 0.2786539999999995,
            "durationTicks": 228,
            "midi": 85,
            "name": "C#6",
            "ticks": 8880,
            "time": 11.09162,
            "velocity": 1
          },
          {
            "duration": 0.267654499999999,
            "durationTicks": 219,
            "midi": 87,
            "name": "D#6",
            "ticks": 9120,
            "time": 11.38494,
            "velocity": 1
          },
          {
            "duration": 0.2884313333333317,
            "durationTicks": 236,
            "midi": 85,
            "name": "C#6",
            "ticks": 9360,
            "time": 11.678260000000002,
            "velocity": 1
          },
          {
            "duration": 0.299430833333334,
            "durationTicks": 245,
            "midi": 87,
            "name": "D#6",
            "ticks": 9600,
            "time": 11.97158,
            "velocity": 1
          },
          {
            "duration": 0.27132100000000037,
            "durationTicks": 222,
            "midi": 92,
            "name": "G#6",
            "ticks": 9840,
            "time": 12.2649,
            "velocity": 1
          },
          {
            "duration": 0.3092081666666662,
            "durationTicks": 253,
            "midi": 87,
            "name": "D#6",
            "ticks": 10080,
            "time": 12.55822,
            "velocity": 1
          },
          {
            "duration": 0.2908756666666683,
            "durationTicks": 238,
            "midi": 85,
            "name": "C#6",
            "ticks": 10320,
            "time": 12.85154,
            "velocity": 1
          },
          {
            "duration": 1.7794746666666654,
            "durationTicks": 1456,
            "midi": 70,
            "name": "A#4",
            "ticks": 10560,
            "time": 13.144860000000001,
            "velocity": 1
          },
          {
            "duration": 1.7794746666666654,
            "durationTicks": 1456,
            "midi": 77,
            "name": "F5",
            "ticks": 10560,
            "time": 13.144860000000001,
            "velocity": 1
          },
          {
            "duration": 1.2001676666666654,
            "durationTicks": 982,
            "midi": 80,
            "name": "G#5",
            "ticks": 10560,
            "time": 13.144860000000001,
            "velocity": 1
          },
          {
            "duration": 0.2884313333333317,
            "durationTicks": 236,
            "midi": 84,
            "name": "C6",
            "ticks": 10560,
            "time": 13.144860000000001,
            "velocity": 1
          },
          {
            "duration": 0.311652500000001,
            "durationTicks": 255,
            "midi": 85,
            "name": "C#6",
            "ticks": 10800,
            "time": 13.43818,
            "velocity": 1
          },
          {
            "duration": 0.2994308333333322,
            "durationTicks": 245,
            "midi": 87,
            "name": "D#6",
            "ticks": 11040,
            "time": 13.7315,
            "velocity": 1
          },
          {
            "duration": 0.2395446666666654,
            "durationTicks": 196,
            "midi": 92,
            "name": "G#6",
            "ticks": 11280,
            "time": 14.02482,
            "velocity": 1
          },
          {
            "duration": 0.32998500000000064,
            "durationTicks": 270,
            "midi": 87,
            "name": "D#6",
            "ticks": 11520,
            "time": 14.31814,
            "velocity": 1
          },
          {
            "duration": 0.24076683333333193,
            "durationTicks": 197,
            "midi": 85,
            "name": "C#6",
            "ticks": 11760,
            "time": 14.611460000000001,
            "velocity": 1
          },
          {
            "duration": 5.214994664583337,
            "durationTicks": 4319,
            "midi": 68,
            "name": "G#4",
            "ticks": 12000,
            "time": 14.904779999999999,
            "velocity": 1
          },
          {
            "duration": 1.7110333333333365,
            "durationTicks": 1400,
            "midi": 72,
            "name": "C5",
            "ticks": 12000,
            "time": 14.904779999999999,
            "velocity": 1
          },
          {
            "duration": 5.214994664583337,
            "durationTicks": 4319,
            "midi": 73,
            "name": "C#5",
            "ticks": 12000,
            "time": 14.904779999999999,
            "velocity": 1
          },
          {
            "duration": 1.7110333333333365,
            "durationTicks": 1400,
            "midi": 77,
            "name": "F5",
            "ticks": 12000,
            "time": 14.904779999999999,
            "velocity": 1
          },
          {
            "duration": 0.2749875000000017,
            "durationTicks": 225,
            "midi": 84,
            "name": "C6",
            "ticks": 12000,
            "time": 14.904779999999999,
            "velocity": 1
          },
          {
            "duration": 0.2835426666666656,
            "durationTicks": 232,
            "midi": 82,
            "name": "A#5",
            "ticks": 12240,
            "time": 15.1981,
            "velocity": 1
          },
          {
            "duration": 0.3043195000000001,
            "durationTicks": 249,
            "midi": 84,
            "name": "C6",
            "ticks": 12480,
            "time": 15.49142,
            "velocity": 1
          },
          {
            "duration": 0.2920978333333366,
            "durationTicks": 239,
            "midi": 89,
            "name": "F6",
            "ticks": 12720,
            "time": 15.78474,
            "velocity": 1
          },
          {
            "duration": 0.5585301666666638,
            "durationTicks": 457,
            "midi": 84,
            "name": "C6",
            "ticks": 12959,
            "time": 16.076837833333336,
            "velocity": 1
          },
          {
            "duration": 1.77712846875,
            "durationTicks": 1473,
            "midi": 78,
            "name": "F#5",
            "ticks": 13440,
            "time": 16.6647,
            "velocity": 1
          },
          {
            "duration": 3.4918820625,
            "durationTicks": 2910,
            "midi": 80,
            "name": "G#5",
            "ticks": 13440,
            "time": 16.6647,
            "velocity": 1
          },
          {
            "duration": 0.5887567499999982,
            "durationTicks": 488,
            "midi": 85,
            "name": "C#6",
            "ticks": 13440,
            "time": 16.6647,
            "velocity": 1
          },
          {
            "duration": 0.2883460312500006,
            "durationTicks": 239,
            "midi": 89,
            "name": "F6",
            "ticks": 13440,
            "time": 16.6647,
            "velocity": 1
          },
          {
            "duration": 0.5851373437499987,
            "durationTicks": 485,
            "midi": 87,
            "name": "D#6",
            "ticks": 13679,
            "time": 16.95304603125,
            "velocity": 1
          },
          {
            "duration": 0.579105000000002,
            "durationTicks": 480,
            "midi": 89,
            "name": "F6",
            "ticks": 13920,
            "time": 17.243805,
            "velocity": 1
          },
          {
            "duration": 0.5791049999999984,
            "durationTicks": 480,
            "midi": 94,
            "name": "A#6",
            "ticks": 14160,
            "time": 17.5333575,
            "velocity": 1
          },
          {
            "duration": 0.8433216562499979,
            "durationTicks": 699,
            "midi": 89,
            "name": "F6",
            "ticks": 14400,
            "time": 17.82291,
            "velocity": 1
          },
          {
            "duration": 0.30523659374999923,
            "durationTicks": 253,
            "midi": 87,
            "name": "D#6",
            "ticks": 14640,
            "time": 18.1124625,
            "velocity": 1
          },
          {
            "duration": 0.2847266250000011,
            "durationTicks": 236,
            "midi": 87,
            "name": "D#6",
            "ticks": 15120,
            "time": 18.691567499999998,
            "velocity": 1
          },
          {
            "duration": 0.30870720833333465,
            "durationTicks": 260,
            "midi": 89,
            "name": "F6",
            "ticks": 15360,
            "time": 18.98112,
            "velocity": 1
          },
          {
            "duration": 0.27189981041666655,
            "durationTicks": 229,
            "midi": 94,
            "name": "A#6",
            "ticks": 15600,
            "time": 19.2660805,
            "velocity": 1
          },
          {
            "duration": 0.29208451250000067,
            "durationTicks": 246,
            "midi": 89,
            "name": "F6",
            "ticks": 15840,
            "time": 19.551041,
            "velocity": 1
          },
          {
            "duration": 0.2920845124999971,
            "durationTicks": 246,
            "midi": 87,
            "name": "D#6",
            "ticks": 16080,
            "time": 19.836001500000002,
            "velocity": 1
          },
          {
            "duration": 2.3576916812499995,
            "durationTicks": 1959,
            "midi": 78,
            "name": "F#5",
            "ticks": 16320,
            "time": 20.120962000000002,
            "velocity": 1
          },
          {
            "duration": 2.3576916812499995,
            "durationTicks": 1959,
            "midi": 82,
            "name": "A#5",
            "ticks": 16320,
            "time": 20.120962000000002,
            "velocity": 1
          },
          {
            "duration": 0.5437996208333331,
            "durationTicks": 458,
            "midi": 84,
            "name": "C6",
            "ticks": 16320,
            "time": 20.120962000000002,
            "velocity": 1
          },
          {
            "duration": 0.3205805624999982,
            "durationTicks": 270,
            "midi": 89,
            "name": "F6",
            "ticks": 16320,
            "time": 20.120962000000002,
            "velocity": 1
          },
          {
            "duration": 0.5651716583333339,
            "durationTicks": 476,
            "midi": 89,
            "name": "F6",
            "ticks": 16800,
            "time": 20.690883,
            "velocity": 1
          },
          {
            "duration": 0.5543746937499989,
            "durationTicks": 461,
            "midi": 92,
            "name": "G#6",
            "ticks": 17040,
            "time": 20.9758435,
            "velocity": 1
          },
          {
            "duration": 0.5705241749999992,
            "durationTicks": 468,
            "midi": 89,
            "name": "F6",
            "ticks": 17280,
            "time": 21.260804,
            "velocity": 1
          },
          {
            "duration": 0.5827148625000014,
            "durationTicks": 478,
            "midi": 87,
            "name": "D#6",
            "ticks": 17520,
            "time": 21.5533805,
            "velocity": 1
          },
          {
            "duration": 0.8411574375000015,
            "durationTicks": 690,
            "midi": 89,
            "name": "F6",
            "ticks": 17760,
            "time": 21.845957,
            "velocity": 1
          },
          {
            "duration": 0.8301858187499995,
            "durationTicks": 681,
            "midi": 87,
            "name": "D#6",
            "ticks": 18000,
            "time": 22.1385335,
            "velocity": 1
          },
          {
            "duration": 0.6083153062499989,
            "durationTicks": 499,
            "midi": 92,
            "name": "G#6",
            "ticks": 18480,
            "time": 22.7236865,
            "velocity": 1
          },
          {
            "duration": 1.5494443833333342,
            "durationTicks": 1282,
            "midi": 89,
            "name": "F6",
            "ticks": 18720,
            "time": 23.016263,
            "velocity": 1
          },
          {
            "duration": 0.27185233124999897,
            "durationTicks": 223,
            "midi": 87,
            "name": "D#6",
            "ticks": 18960,
            "time": 23.3088395,
            "velocity": 1
          },
          {
            "duration": 3.477220299999999,
            "durationTicks": 2892,
            "midi": 77,
            "name": "F5",
            "ticks": 19200,
            "time": 23.601416,
            "velocity": 1
          },
          {
            "duration": 3.477220299999999,
            "durationTicks": 2892,
            "midi": 80,
            "name": "G#5",
            "ticks": 19200,
            "time": 23.601416,
            "velocity": 1
          },
          {
            "duration": 0.5590966249999987,
            "durationTicks": 465,
            "midi": 84,
            "name": "C6",
            "ticks": 19200,
            "time": 23.601416,
            "velocity": 1
          },
          {
            "duration": 0.250090533333335,
            "durationTicks": 208,
            "midi": 87,
            "name": "D#6",
            "ticks": 19200,
            "time": 23.601416,
            "velocity": 1
          },
          {
            "duration": 0.5795367166666665,
            "durationTicks": 482,
            "midi": 85,
            "name": "C#6",
            "ticks": 19440,
            "time": 23.889982,
            "velocity": 1
          },
          {
            "duration": 0.5687154916666692,
            "durationTicks": 473,
            "midi": 87,
            "name": "D#6",
            "ticks": 19680,
            "time": 24.178548,
            "velocity": 1
          },
          {
            "duration": 1.738610150000003,
            "durationTicks": 1446,
            "midi": 96,
            "name": "C7",
            "ticks": 19920,
            "time": 24.467114,
            "velocity": 1
          },
          {
            "duration": 0.8584838499999989,
            "durationTicks": 714,
            "midi": 87,
            "name": "D#6",
            "ticks": 20160,
            "time": 24.75568,
            "velocity": 1
          },
          {
            "duration": 0.8705074333333336,
            "durationTicks": 724,
            "midi": 85,
            "name": "C#6",
            "ticks": 20400,
            "time": 25.044246,
            "velocity": 1
          },
          {
            "duration": 1.2696903999999982,
            "durationTicks": 1056,
            "midi": 92,
            "name": "G#6",
            "ticks": 20640,
            "time": 25.332812,
            "velocity": 1
          },
          {
            "duration": 0.8681027166666659,
            "durationTicks": 722,
            "midi": 87,
            "name": "D#6",
            "ticks": 20880,
            "time": 25.621378,
            "velocity": 1
          },
          {
            "duration": 0.6901536833333353,
            "durationTicks": 574,
            "midi": 85,
            "name": "C#6",
            "ticks": 21120,
            "time": 25.909944,
            "velocity": 1
          },
          {
            "duration": 0.3991829666666682,
            "durationTicks": 332,
            "midi": 96,
            "name": "C7",
            "ticks": 21360,
            "time": 26.19851,
            "velocity": 1
          },
          {
            "duration": 0.2777447749999986,
            "durationTicks": 231,
            "midi": 87,
            "name": "D#6",
            "ticks": 21600,
            "time": 26.487076000000002,
            "velocity": 1
          },
          {
            "duration": 0.28856599999999943,
            "durationTicks": 240,
            "midi": 85,
            "name": "C#6",
            "ticks": 21840,
            "time": 26.775642,
            "velocity": 1
          },
          {
            "duration": 3.604742306249996,
            "durationTicks": 2987,
            "midi": 70,
            "name": "A#4",
            "ticks": 22080,
            "time": 27.064208,
            "velocity": 1
          },
          {
            "duration": 3.454836381249997,
            "durationTicks": 2863,
            "midi": 77,
            "name": "F5",
            "ticks": 22080,
            "time": 27.064208,
            "velocity": 1
          },
          {
            "duration": 1.5556250249999977,
            "durationTicks": 1292,
            "midi": 80,
            "name": "G#5",
            "ticks": 22080,
            "time": 27.064208,
            "velocity": 1
          },
          {
            "duration": 0.2597093999999984,
            "durationTicks": 216,
            "midi": 84,
            "name": "C6",
            "ticks": 22080,
            "time": 27.064208,
            "velocity": 1
          },
          {
            "duration": 0.3102084500000011,
            "durationTicks": 258,
            "midi": 85,
            "name": "C#6",
            "ticks": 22320,
            "time": 27.352774,
            "velocity": 1
          },
          {
            "duration": 0.28856599999999943,
            "durationTicks": 240,
            "midi": 87,
            "name": "D#6",
            "ticks": 22560,
            "time": 27.64134,
            "velocity": 1
          },
          {
            "duration": 0.24047166666666797,
            "durationTicks": 200,
            "midi": 96,
            "name": "C7",
            "ticks": 22800,
            "time": 27.929906,
            "velocity": 1
          },
          {
            "duration": 0.25024618124999876,
            "durationTicks": 207,
            "midi": 87,
            "name": "D#6",
            "ticks": 23040,
            "time": 28.218472,
            "velocity": 1
          },
          {
            "duration": 0.8909731187500007,
            "durationTicks": 737,
            "midi": 85,
            "name": "C#6",
            "ticks": 23280,
            "time": 28.508612499999998,
            "velocity": 1
          },
          {
            "duration": 1.7710659687500012,
            "durationTicks": 1465,
            "midi": 92,
            "name": "G#6",
            "ticks": 23520,
            "time": 28.798752999999998,
            "velocity": 1
          },
          {
            "duration": 0.8704215000000026,
            "durationTicks": 720,
            "midi": 87,
            "name": "D#6",
            "ticks": 23760,
            "time": 29.088893499999998,
            "velocity": 1
          },
          {
            "duration": 0.8583323125,
            "durationTicks": 710,
            "midi": 85,
            "name": "C#6",
            "ticks": 24000,
            "time": 29.379033999999997,
            "velocity": 1
          },
          {
            "duration": 0.8909731187500007,
            "durationTicks": 737,
            "midi": 96,
            "name": "C7",
            "ticks": 24240,
            "time": 29.669174499999997,
            "velocity": 1
          },
          {
            "duration": 0.5911612687499996,
            "durationTicks": 489,
            "midi": 87,
            "name": "D#6",
            "ticks": 24480,
            "time": 29.959315,
            "velocity": 1
          },
          {
            "duration": 0.3106921187499978,
            "durationTicks": 257,
            "midi": 85,
            "name": "C#6",
            "ticks": 24720,
            "time": 30.2494555,
            "velocity": 1
          },
          {
            "duration": 2.1893518562500027,
            "durationTicks": 1811,
            "midi": 66,
            "name": "F#4",
            "ticks": 24960,
            "time": 30.539596,
            "velocity": 1
          },
          {
            "duration": 3.4485706874999984,
            "durationTicks": 2858,
            "midi": 73,
            "name": "C#5",
            "ticks": 24960,
            "time": 30.539596,
            "velocity": 1
          },
          {
            "duration": 3.4485706874999984,
            "durationTicks": 2858,
            "midi": 77,
            "name": "F5",
            "ticks": 24960,
            "time": 30.539596,
            "velocity": 1
          },
          {
            "duration": 0.570609649999998,
            "durationTicks": 472,
            "midi": 89,
            "name": "F6",
            "ticks": 24960,
            "time": 30.539596,
            "velocity": 1
          },
          {
            "duration": 1.16660659375,
            "durationTicks": 965,
            "midi": 87,
            "name": "D#6",
            "ticks": 25200,
            "time": 30.8297365,
            "velocity": 1
          },
          {
            "duration": 0.5935791062500009,
            "durationTicks": 491,
            "midi": 89,
            "name": "F6",
            "ticks": 25440,
            "time": 31.119877,
            "velocity": 1
          },
          {
            "duration": 1.437404393749997,
            "durationTicks": 1189,
            "midi": 82,
            "name": "A#5",
            "ticks": 25680,
            "time": 31.4100175,
            "velocity": 1
          },
          {
            "duration": 1.3261838687500038,
            "durationTicks": 1097,
            "midi": 94,
            "name": "A#6",
            "ticks": 25680,
            "time": 31.4100175,
            "velocity": 1
          },
          {
            "duration": 0.5536847874999999,
            "durationTicks": 458,
            "midi": 89,
            "name": "F6",
            "ticks": 25920,
            "time": 31.700158,
            "velocity": 1
          },
          {
            "duration": 0.5621472187500025,
            "durationTicks": 465,
            "midi": 87,
            "name": "D#6",
            "ticks": 26160,
            "time": 31.990298499999998,
            "velocity": 1
          },
          {
            "duration": 0.47147831249999683,
            "durationTicks": 390,
            "midi": 89,
            "name": "F6",
            "ticks": 26400,
            "time": 32.280439,
            "velocity": 1
          },
          {
            "duration": 0.2816780687499971,
            "durationTicks": 233,
            "midi": 87,
            "name": "D#6",
            "ticks": 26640,
            "time": 32.5705795,
            "velocity": 1
          },
          {
            "duration": 0.28005871874999855,
            "durationTicks": 233,
            "midi": 82,
            "name": "A#5",
            "ticks": 26880,
            "time": 32.86072,
            "velocity": 1
          },
          {
            "duration": 0.28005871874999855,
            "durationTicks": 233,
            "midi": 89,
            "name": "F6",
            "ticks": 26880,
            "time": 32.86072,
            "velocity": 1
          },
          {
            "duration": 0.34135912500000387,
            "durationTicks": 284,
            "midi": 82,
            "name": "A#5",
            "ticks": 27120,
            "time": 33.1491925,
            "velocity": 1
          },
          {
            "duration": 0.34135912500000387,
            "durationTicks": 284,
            "midi": 94,
            "name": "A#6",
            "ticks": 27120,
            "time": 33.1491925,
            "velocity": 1
          },
          {
            "duration": 0.2956843125000006,
            "durationTicks": 246,
            "midi": 82,
            "name": "A#5",
            "ticks": 27360,
            "time": 33.437665,
            "velocity": 1
          },
          {
            "duration": 0.2956843125000006,
            "durationTicks": 246,
            "midi": 89,
            "name": "F6",
            "ticks": 27360,
            "time": 33.437665,
            "velocity": 1
          },
          {
            "duration": 0.20433468750000117,
            "durationTicks": 170,
            "midi": 87,
            "name": "D#6",
            "ticks": 27600,
            "time": 33.7261375,
            "velocity": 1
          },
          {
            "duration": 3.438381554166675,
            "durationTicks": 2891,
            "midi": 66,
            "name": "F#4",
            "ticks": 27840,
            "time": 34.01461,
            "velocity": 1
          },
          {
            "duration": 3.438381554166675,
            "durationTicks": 2891,
            "midi": 70,
            "name": "A#4",
            "ticks": 27840,
            "time": 34.01461,
            "velocity": 1
          },
          {
            "duration": 2.8443821145833397,
            "durationTicks": 2389,
            "midi": 72,
            "name": "C5",
            "ticks": 27840,
            "time": 34.01461,
            "velocity": 1
          },
          {
            "duration": 2.8443821145833397,
            "durationTicks": 2389,
            "midi": 77,
            "name": "F5",
            "ticks": 27840,
            "time": 34.01461,
            "velocity": 1
          },
          {
            "duration": 0.2932803750000019,
            "durationTicks": 244,
            "midi": 89,
            "name": "F6",
            "ticks": 27840,
            "time": 34.01461,
            "velocity": 1
          },
          {
            "duration": 0.2752508437500012,
            "durationTicks": 229,
            "midi": 87,
            "name": "D#6",
            "ticks": 28080,
            "time": 34.3030825,
            "velocity": 1
          },
          {
            "duration": 0.5673292500000002,
            "durationTicks": 472,
            "midi": 89,
            "name": "F6",
            "ticks": 28320,
            "time": 34.591555,
            "velocity": 1
          },
          {
            "duration": 1.6867661875000053,
            "durationTicks": 1422,
            "midi": 80,
            "name": "G#5",
            "ticks": 28560,
            "time": 34.8800275,
            "velocity": 1
          },
          {
            "duration": 1.9718666770833408,
            "durationTicks": 1663,
            "midi": 92,
            "name": "G#6",
            "ticks": 28560,
            "time": 34.8800275,
            "velocity": 1
          },
          {
            "duration": 0.570200979166664,
            "durationTicks": 482,
            "midi": 89,
            "name": "F6",
            "ticks": 28800,
            "time": 35.1685,
            "velocity": 1
          },
          {
            "duration": 0.5654690208333335,
            "durationTicks": 478,
            "midi": 87,
            "name": "D#6",
            "ticks": 29040,
            "time": 35.4524175,
            "velocity": 1
          },
          {
            "duration": 0.5737499479166672,
            "durationTicks": 485,
            "midi": 89,
            "name": "F6",
            "ticks": 29280,
            "time": 35.736335000000004,
            "velocity": 1
          },
          {
            "duration": 0.8411055937500009,
            "durationTicks": 711,
            "midi": 87,
            "name": "D#6",
            "ticks": 29520,
            "time": 36.0202525,
            "velocity": 1
          },
          {
            "duration": 0.5441752083333355,
            "durationTicks": 460,
            "midi": 89,
            "name": "F6",
            "ticks": 29760,
            "time": 36.30417,
            "velocity": 1
          },
          {
            "duration": 0.3052113124999991,
            "durationTicks": 258,
            "midi": 80,
            "name": "G#5",
            "ticks": 30000,
            "time": 36.5880875,
            "velocity": 1
          },
          {
            "duration": 0.27681956250000184,
            "durationTicks": 234,
            "midi": 89,
            "name": "F6",
            "ticks": 30240,
            "time": 36.872005,
            "velocity": 1
          },
          {
            "duration": 0.29706905416666984,
            "durationTicks": 251,
            "midi": 87,
            "name": "D#6",
            "ticks": 30480,
            "time": 37.1559225,
            "velocity": 1
          },
          {
            "duration": 3.432555637500002,
            "durationTicks": 2871,
            "midi": 65,
            "name": "F4",
            "ticks": 30720,
            "time": 37.439840000000004,
            "velocity": 1
          },
          {
            "duration": 3.432555637500002,
            "durationTicks": 2871,
            "midi": 68,
            "name": "G#4",
            "ticks": 30720,
            "time": 37.439840000000004,
            "velocity": 1
          },
          {
            "duration": 3.432555637500002,
            "durationTicks": 2871,
            "midi": 72,
            "name": "C5",
            "ticks": 30720,
            "time": 37.439840000000004,
            "velocity": 1
          },
          {
            "duration": 3.432555637500002,
            "durationTicks": 2871,
            "midi": 73,
            "name": "C#5",
            "ticks": 30720,
            "time": 37.439840000000004,
            "velocity": 1
          },
          {
            "duration": 1.4502577458333334,
            "durationTicks": 1213,
            "midi": 75,
            "name": "D#5",
            "ticks": 30720,
            "time": 37.439840000000004,
            "velocity": 1
          },
          {
            "duration": 0.3000945541666695,
            "durationTicks": 251,
            "midi": 87,
            "name": "D#6",
            "ticks": 30720,
            "time": 37.439840000000004,
            "velocity": 1
          },
          {
            "duration": 0.2917253833333291,
            "durationTicks": 244,
            "midi": 85,
            "name": "C#6",
            "ticks": 30960,
            "time": 37.726783000000005,
            "velocity": 1
          },
          {
            "duration": 0.2702046583333342,
            "durationTicks": 226,
            "midi": 87,
            "name": "D#6",
            "ticks": 31200,
            "time": 38.013726000000005,
            "velocity": 1
          },
          {
            "duration": 1.700137274999996,
            "durationTicks": 1422,
            "midi": 80,
            "name": "G#5",
            "ticks": 31440,
            "time": 38.300669000000006,
            "velocity": 1
          },
          {
            "duration": 0.3000945541666624,
            "durationTicks": 251,
            "midi": 92,
            "name": "G#6",
            "ticks": 31440,
            "time": 38.300669000000006,
            "velocity": 1
          },
          {
            "duration": 0.2702046583333271,
            "durationTicks": 226,
            "midi": 87,
            "name": "D#6",
            "ticks": 31680,
            "time": 38.58761200000001,
            "velocity": 1
          },
          {
            "duration": 0.567908020833336,
            "durationTicks": 475,
            "midi": 85,
            "name": "C#6",
            "ticks": 31920,
            "time": 38.874555,
            "velocity": 1
          },
          {
            "duration": 0.5583432541666653,
            "durationTicks": 467,
            "midi": 87,
            "name": "D#6",
            "ticks": 32160,
            "time": 39.161498,
            "velocity": 1
          },
          {
            "duration": 0.549974083333332,
            "durationTicks": 460,
            "midi": 85,
            "name": "C#6",
            "ticks": 32400,
            "time": 39.448441,
            "velocity": 1
          },
          {
            "duration": 0.567908020833336,
            "durationTicks": 475,
            "midi": 87,
            "name": "D#6",
            "ticks": 32640,
            "time": 39.735384,
            "velocity": 1
          },
          {
            "duration": 0.8620245958333328,
            "durationTicks": 721,
            "midi": 80,
            "name": "G#5",
            "ticks": 32880,
            "time": 40.022327000000004,
            "velocity": 1
          },
          {
            "duration": 0.575081595833332,
            "durationTicks": 481,
            "midi": 92,
            "name": "G#6",
            "ticks": 32880,
            "time": 40.022327000000004,
            "velocity": 1
          },
          {
            "duration": 0.571494808333334,
            "durationTicks": 478,
            "midi": 87,
            "name": "D#6",
            "ticks": 33120,
            "time": 40.309270000000005,
            "velocity": 1
          },
          {
            "duration": 0.27618263749999983,
            "durationTicks": 231,
            "midi": 85,
            "name": "C#6",
            "ticks": 33360,
            "time": 40.596213000000006,
            "velocity": 1
          },
          {
            "duration": 1.7241310624999997,
            "durationTicks": 1435,
            "midi": 70,
            "name": "A#4",
            "ticks": 33600,
            "time": 40.88315600000001,
            "velocity": 1
          },
          {
            "duration": 1.7241310624999997,
            "durationTicks": 1435,
            "midi": 72,
            "name": "C5",
            "ticks": 33600,
            "time": 40.88315600000001,
            "velocity": 1
          },
          {
            "duration": 1.7241310624999997,
            "durationTicks": 1435,
            "midi": 73,
            "name": "C#5",
            "ticks": 33600,
            "time": 40.88315600000001,
            "velocity": 1
          },
          {
            "duration": 1.7241310624999997,
            "durationTicks": 1435,
            "midi": 77,
            "name": "F5",
            "ticks": 33600,
            "time": 40.88315600000001,
            "velocity": 1
          },
          {
            "duration": 0.05021502499999997,
            "durationTicks": 42,
            "midi": 84,
            "name": "C6",
            "ticks": 33600,
            "time": 40.88315600000001,
            "velocity": 1
          },
          {
            "duration": 0.2785738291666675,
            "durationTicks": 233,
            "midi": 87,
            "name": "D#6",
            "ticks": 33600,
            "time": 40.88315600000001,
            "velocity": 1
          },
          {
            "duration": 0.28455180833333316,
            "durationTicks": 238,
            "midi": 85,
            "name": "C#6",
            "ticks": 33840,
            "time": 41.17009900000001,
            "velocity": 1
          },
          {
            "duration": 0.27498704166666954,
            "durationTicks": 230,
            "midi": 87,
            "name": "D#6",
            "ticks": 34080,
            "time": 41.457042,
            "velocity": 1
          },
          {
            "duration": 0.8863564250000024,
            "durationTicks": 734,
            "midi": 80,
            "name": "G#5",
            "ticks": 34320,
            "time": 41.743985,
            "velocity": 1
          },
          {
            "duration": 0.30757058750000255,
            "durationTicks": 257,
            "midi": 92,
            "name": "G#6",
            "ticks": 34320,
            "time": 41.743985,
            "velocity": 1
          },
          {
            "duration": 0.3094138124999972,
            "durationTicks": 255,
            "midi": 87,
            "name": "D#6",
            "ticks": 34560,
            "time": 42.030928,
            "velocity": 1
          },
          {
            "duration": 0.27058541249999735,
            "durationTicks": 223,
            "midi": 85,
            "name": "C#6",
            "ticks": 34800,
            "time": 42.322141,
            "velocity": 1
          },
          {
            "duration": 1.7721395062499994,
            "durationTicks": 1461,
            "midi": 68,
            "name": "G#4",
            "ticks": 35040,
            "time": 42.613354,
            "velocity": 1
          },
          {
            "duration": 1.7721395062499994,
            "durationTicks": 1461,
            "midi": 72,
            "name": "C5",
            "ticks": 35040,
            "time": 42.613354,
            "velocity": 1
          },
          {
            "duration": 1.7721395062499994,
            "durationTicks": 1461,
            "midi": 73,
            "name": "C#5",
            "ticks": 35040,
            "time": 42.613354,
            "velocity": 1
          },
          {
            "duration": 0.8615051250000008,
            "durationTicks": 710,
            "midi": 77,
            "name": "F5",
            "ticks": 35040,
            "time": 42.613354,
            "velocity": 1
          },
          {
            "duration": 0.2778657375000009,
            "durationTicks": 229,
            "midi": 84,
            "name": "C6",
            "ticks": 35040,
            "time": 42.613354,
            "velocity": 1
          },
          {
            "duration": 0.2863594500000062,
            "durationTicks": 236,
            "midi": 82,
            "name": "A#5",
            "ticks": 35280,
            "time": 42.904567,
            "velocity": 1
          },
          {
            "duration": 0.2972799374999937,
            "durationTicks": 245,
            "midi": 84,
            "name": "C6",
            "ticks": 35520,
            "time": 43.195780000000006,
            "velocity": 1
          },
          {
            "duration": 0.9103393187499975,
            "durationTicks": 751,
            "midi": 77,
            "name": "F5",
            "ticks": 35760,
            "time": 43.486993000000005,
            "velocity": 1
          },
          {
            "duration": 0.29606654999999904,
            "durationTicks": 244,
            "midi": 89,
            "name": "F6",
            "ticks": 35760,
            "time": 43.486993000000005,
            "velocity": 1
          },
          {
            "duration": 0.3069870375000008,
            "durationTicks": 253,
            "midi": 84,
            "name": "C6",
            "ticks": 36000,
            "time": 43.778206000000004,
            "velocity": 1
          },
          {
            "duration": 0.3066034562500022,
            "durationTicks": 253,
            "midi": 82,
            "name": "A#5",
            "ticks": 36240,
            "time": 44.069419,
            "velocity": 1
          },
          {
            "duration": 3.383532612499998,
            "durationTicks": 2858,
            "midi": 66,
            "name": "F#4",
            "ticks": 36480,
            "time": 44.360632,
            "velocity": 1
          },
          {
            "duration": 3.383532612499998,
            "durationTicks": 2858,
            "midi": 68,
            "name": "G#4",
            "ticks": 36480,
            "time": 44.360632,
            "velocity": 1
          },
          {
            "duration": 3.383532612499998,
            "durationTicks": 2858,
            "midi": 73,
            "name": "C#5",
            "ticks": 36480,
            "time": 44.360632,
            "velocity": 1
          },
          {
            "duration": 3.383532612499998,
            "durationTicks": 2858,
            "midi": 77,
            "name": "F5",
            "ticks": 36480,
            "time": 44.360632,
            "velocity": 1
          },
          {
            "duration": 0.2711088062499982,
            "durationTicks": 229,
            "midi": 89,
            "name": "F6",
            "ticks": 36480,
            "time": 44.360632,
            "velocity": 1
          },
          {
            "duration": 0.269924924999998,
            "durationTicks": 228,
            "midi": 87,
            "name": "D#6",
            "ticks": 36720,
            "time": 44.6447635,
            "velocity": 1
          },
          {
            "duration": 0.5587919499999998,
            "durationTicks": 472,
            "midi": 89,
            "name": "F6",
            "ticks": 36960,
            "time": 44.928895000000004,
            "velocity": 1
          },
          {
            "duration": 1.709524524999999,
            "durationTicks": 1444,
            "midi": 82,
            "name": "A#5",
            "ticks": 37200,
            "time": 45.213026500000005,
            "velocity": 1
          },
          {
            "duration": 1.7178116937500008,
            "durationTicks": 1451,
            "midi": 94,
            "name": "A#6",
            "ticks": 37200,
            "time": 45.213026500000005,
            "velocity": 1
          },
          {
            "duration": 0.580101812499997,
            "durationTicks": 490,
            "midi": 89,
            "name": "F6",
            "ticks": 37440,
            "time": 45.497158000000006,
            "velocity": 1
          },
          {
            "duration": 0.5706307625000022,
            "durationTicks": 482,
            "midi": 87,
            "name": "D#6",
            "ticks": 37680,
            "time": 45.7812895,
            "velocity": 1
          },
          {
            "duration": 0.5706307625000022,
            "durationTicks": 482,
            "midi": 89,
            "name": "F6",
            "ticks": 37920,
            "time": 46.065421,
            "velocity": 1
          },
          {
            "duration": 0.7588678812499978,
            "durationTicks": 641,
            "midi": 87,
            "name": "D#6",
            "ticks": 38160,
            "time": 46.3495525,
            "velocity": 1
          },
          {
            "duration": 0.47118473750000334,
            "durationTicks": 398,
            "midi": 89,
            "name": "F6",
            "ticks": 38400,
            "time": 46.633684,
            "velocity": 1
          },
          {
            "duration": 0.2995219562499969,
            "durationTicks": 253,
            "midi": 82,
            "name": "A#5",
            "ticks": 38640,
            "time": 46.9178155,
            "velocity": 1
          },
          {
            "duration": 2.2191101000000018,
            "durationTicks": 1872,
            "midi": 94,
            "name": "A#6",
            "ticks": 38640,
            "time": 46.9178155,
            "velocity": 1
          },
          {
            "duration": 0.2876831437500016,
            "durationTicks": 243,
            "midi": 89,
            "name": "F6",
            "ticks": 38880,
            "time": 47.201947000000004,
            "velocity": 1
          },
          {
            "duration": 0.26637328124999726,
            "durationTicks": 225,
            "midi": 87,
            "name": "D#6",
            "ticks": 39120,
            "time": 47.486078500000005,
            "velocity": 1
          },
          {
            "duration": 3.406051587499995,
            "durationTicks": 2853,
            "midi": 66,
            "name": "F#4",
            "ticks": 39360,
            "time": 47.770210000000006,
            "velocity": 1
          },
          {
            "duration": 3.406051587499995,
            "durationTicks": 2853,
            "midi": 70,
            "name": "A#4",
            "ticks": 39360,
            "time": 47.770210000000006,
            "velocity": 1
          },
          {
            "duration": 3.434825287499997,
            "durationTicks": 2877,
            "midi": 72,
            "name": "C5",
            "ticks": 39360,
            "time": 47.770210000000006,
            "velocity": 1
          },
          {
            "duration": 3.434825287499997,
            "durationTicks": 2877,
            "midi": 77,
            "name": "F5",
            "ticks": 39360,
            "time": 47.770210000000006,
            "velocity": 1
          },
          {
            "duration": 0.2675571624999975,
            "durationTicks": 226,
            "midi": 89,
            "name": "F6",
            "ticks": 39360,
            "time": 47.770210000000006,
            "velocity": 1
          },
          {
            "duration": 0.3078091249999986,
            "durationTicks": 260,
            "midi": 87,
            "name": "D#6",
            "ticks": 39600,
            "time": 48.05434150000001,
            "velocity": 1
          },
          {
            "duration": 0.2379601312500057,
            "durationTicks": 201,
            "midi": 89,
            "name": "F6",
            "ticks": 39840,
            "time": 48.338473,
            "velocity": 1
          },
          {
            "duration": 1.7084296499999994,
            "durationTicks": 1428,
            "midi": 80,
            "name": "G#5",
            "ticks": 40080,
            "time": 48.6226045,
            "velocity": 1
          },
          {
            "duration": 0.2758443312499992,
            "durationTicks": 233,
            "midi": 92,
            "name": "G#6",
            "ticks": 40080,
            "time": 48.6226045,
            "velocity": 1
          },
          {
            "duration": 0.5802696166666692,
            "durationTicks": 484,
            "midi": 89,
            "name": "F6",
            "ticks": 40320,
            "time": 48.906736,
            "velocity": 1
          },
          {
            "duration": 0.5706783833333304,
            "durationTicks": 476,
            "midi": 87,
            "name": "D#6",
            "ticks": 40560,
            "time": 49.194473,
            "velocity": 1
          },
          {
            "duration": 0.5706783833333304,
            "durationTicks": 476,
            "midi": 89,
            "name": "F6",
            "ticks": 40800,
            "time": 49.48221,
            "velocity": 1
          },
          {
            "duration": 1.1293677250000016,
            "durationTicks": 942,
            "midi": 87,
            "name": "D#6",
            "ticks": 41040,
            "time": 49.769947,
            "velocity": 1
          },
          {
            "duration": 0.5706783833333304,
            "durationTicks": 476,
            "midi": 89,
            "name": "F6",
            "ticks": 41280,
            "time": 50.057684,
            "velocity": 1
          },
          {
            "duration": 0.8883879875000034,
            "durationTicks": 741,
            "midi": 80,
            "name": "G#5",
            "ticks": 41520,
            "time": 50.345421,
            "velocity": 1
          },
          {
            "duration": 0.8596142875000012,
            "durationTicks": 717,
            "midi": 92,
            "name": "G#6",
            "ticks": 41520,
            "time": 50.345421,
            "velocity": 1
          },
          {
            "duration": 0.58866194583333,
            "durationTicks": 491,
            "midi": 89,
            "name": "F6",
            "ticks": 41760,
            "time": 50.633158,
            "velocity": 1
          },
          {
            "duration": 0.3201074125000005,
            "durationTicks": 267,
            "midi": 87,
            "name": "D#6",
            "ticks": 42000,
            "time": 50.920895,
            "velocity": 1
          },
          {
            "duration": 3.439091895833336,
            "durationTicks": 2878,
            "midi": 65,
            "name": "F4",
            "ticks": 42240,
            "time": 51.208632,
            "velocity": 1
          },
          {
            "duration": 3.439091895833336,
            "durationTicks": 2878,
            "midi": 68,
            "name": "G#4",
            "ticks": 42240,
            "time": 51.208632,
            "velocity": 1
          },
          {
            "duration": 3.439091895833336,
            "durationTicks": 2878,
            "midi": 72,
            "name": "C5",
            "ticks": 42240,
            "time": 51.208632,
            "velocity": 1
          },
          {
            "duration": 3.439091895833336,
            "durationTicks": 2878,
            "midi": 75,
            "name": "D#5",
            "ticks": 42240,
            "time": 51.208632,
            "velocity": 1
          },
          {
            "duration": 0.5706783833333304,
            "durationTicks": 476,
            "midi": 87,
            "name": "D#6",
            "ticks": 42240,
            "time": 51.208632,
            "velocity": 1
          },
          {
            "duration": 1.1173786833333352,
            "durationTicks": 932,
            "midi": 85,
            "name": "C#6",
            "ticks": 42480,
            "time": 51.496369,
            "velocity": 1
          },
          {
            "duration": 0.5754739999999998,
            "durationTicks": 480,
            "midi": 87,
            "name": "D#6",
            "ticks": 42720,
            "time": 51.784106,
            "velocity": 1
          },
          {
            "duration": 1.1917107416666681,
            "durationTicks": 994,
            "midi": 96,
            "name": "C7",
            "ticks": 42960,
            "time": 52.071843,
            "velocity": 1
          },
          {
            "duration": 0.846426341666664,
            "durationTicks": 706,
            "midi": 87,
            "name": "D#6",
            "ticks": 43200,
            "time": 52.35958,
            "velocity": 1
          },
          {
            "duration": 0.6270268791666638,
            "durationTicks": 523,
            "midi": 85,
            "name": "C#6",
            "ticks": 43440,
            "time": 52.647317,
            "velocity": 1
          },
          {
            "duration": 0.8852945937499967,
            "durationTicks": 741,
            "midi": 92,
            "name": "G#6",
            "ticks": 43680,
            "time": 52.935054,
            "velocity": 1
          },
          {
            "duration": 0.27335014999999885,
            "durationTicks": 228,
            "midi": 87,
            "name": "D#6",
            "ticks": 43920,
            "time": 53.222791,
            "velocity": 1
          },
          {
            "duration": 0.5792814166666673,
            "durationTicks": 488,
            "midi": 85,
            "name": "C#6",
            "ticks": 44160,
            "time": 53.510528,
            "velocity": 1
          },
          {
            "duration": 0.5769073125000048,
            "durationTicks": 486,
            "midi": 96,
            "name": "C7",
            "ticks": 44400,
            "time": 53.7954205,
            "velocity": 1
          },
          {
            "duration": 0.5828425729166611,
            "durationTicks": 491,
            "midi": 87,
            "name": "D#6",
            "ticks": 44640,
            "time": 54.080313000000004,
            "velocity": 1
          },
          {
            "duration": 0.2564032499999982,
            "durationTicks": 216,
            "midi": 85,
            "name": "C#6",
            "ticks": 44880,
            "time": 54.3652055,
            "velocity": 1
          },
          {
            "duration": 0.611331822916668,
            "durationTicks": 515,
            "midi": 65,
            "name": "F4",
            "ticks": 45120,
            "time": 54.650098,
            "velocity": 1
          },
          {
            "duration": 2.625159462500001,
            "durationTicks": 2194,
            "midi": 70,
            "name": "A#4",
            "ticks": 45120,
            "time": 54.650098,
            "velocity": 1
          },
          {
            "duration": 2.625159462500001,
            "durationTicks": 2194,
            "midi": 72,
            "name": "C5",
            "ticks": 45120,
            "time": 54.650098,
            "velocity": 1
          },
          {
            "duration": 3.3210028250000008,
            "durationTicks": 2772,
            "midi": 73,
            "name": "C#5",
            "ticks": 45120,
            "time": 54.650098,
            "velocity": 1
          },
          {
            "duration": 3.3210028250000008,
            "durationTicks": 2772,
            "midi": 77,
            "name": "F5",
            "ticks": 45120,
            "time": 54.650098,
            "velocity": 1
          },
          {
            "duration": 0.27539608333333376,
            "durationTicks": 232,
            "midi": 87,
            "name": "D#6",
            "ticks": 45120,
            "time": 54.650098,
            "velocity": 1
          },
          {
            "duration": 0.2777701875000034,
            "durationTicks": 234,
            "midi": 85,
            "name": "C#6",
            "ticks": 45360,
            "time": 54.9349905,
            "velocity": 1
          },
          {
            "duration": 0.5709888812499955,
            "durationTicks": 481,
            "midi": 87,
            "name": "D#6",
            "ticks": 45600,
            "time": 55.219883,
            "velocity": 1
          },
          {
            "duration": 1.7861324187500003,
            "durationTicks": 1487,
            "midi": 96,
            "name": "C7",
            "ticks": 45840,
            "time": 55.5047755,
            "velocity": 1
          },
          {
            "duration": 0.8415129937500012,
            "durationTicks": 699,
            "midi": 87,
            "name": "D#6",
            "ticks": 46080,
            "time": 55.789668,
            "velocity": 1
          },
          {
            "duration": 0.8439207562500002,
            "durationTicks": 701,
            "midi": 85,
            "name": "C#6",
            "ticks": 46320,
            "time": 56.078599499999996,
            "velocity": 1
          },
          {
            "duration": 1.6168125187500024,
            "durationTicks": 1343,
            "midi": 92,
            "name": "G#6",
            "ticks": 46560,
            "time": 56.367531,
            "velocity": 1
          },
          {
            "duration": 0.6416687062500017,
            "durationTicks": 533,
            "midi": 87,
            "name": "D#6",
            "ticks": 46800,
            "time": 56.656462499999996,
            "velocity": 1
          },
          {
            "duration": 1.054599974999995,
            "durationTicks": 876,
            "midi": 85,
            "name": "C#6",
            "ticks": 47040,
            "time": 56.945394,
            "velocity": 1
          },
          {
            "duration": 0.08788333125000491,
            "durationTicks": 73,
            "midi": 94,
            "name": "A#6",
            "ticks": 47280,
            "time": 57.2343255,
            "velocity": 1
          },
          {
            "duration": 2.4248884062499982,
            "durationTicks": 1951,
            "midi": 42,
            "name": "F#2",
            "ticks": 48000,
            "time": 58.10112,
            "velocity": 1
          },
          {
            "duration": 2.4248884062499982,
            "durationTicks": 1951,
            "midi": 49,
            "name": "C#3",
            "ticks": 48000,
            "time": 58.10112,
            "velocity": 1
          },
          {
            "duration": 0.8946090000000027,
            "durationTicks": 720,
            "midi": 58,
            "name": "A#3",
            "ticks": 48000,
            "time": 58.10112,
            "velocity": 1
          },
          {
            "duration": 0.6200137375000025,
            "durationTicks": 499,
            "midi": 63,
            "name": "D#4",
            "ticks": 48000,
            "time": 58.10112,
            "velocity": 1
          },
          {
            "duration": 0.9269143249999985,
            "durationTicks": 746,
            "midi": 65,
            "name": "F4",
            "ticks": 48240,
            "time": 58.399323,
            "velocity": 1
          },
          {
            "duration": 0.5889509249999989,
            "durationTicks": 474,
            "midi": 63,
            "name": "D#4",
            "ticks": 48480,
            "time": 58.697526,
            "velocity": 1
          },
          {
            "duration": 1.5302794062499956,
            "durationTicks": 1231,
            "midi": 58,
            "name": "A#3",
            "ticks": 48720,
            "time": 58.995729000000004,
            "velocity": 1
          },
          {
            "duration": 1.8083765625000012,
            "durationTicks": 1446,
            "midi": 63,
            "name": "D#4",
            "ticks": 48960,
            "time": 59.293932,
            "velocity": 1
          },
          {
            "duration": 2.3368654687499983,
            "durationTicks": 1845,
            "midi": 44,
            "name": "G#2",
            "ticks": 49920,
            "time": 60.486744,
            "velocity": 1
          },
          {
            "duration": 2.3368654687499983,
            "durationTicks": 1845,
            "midi": 54,
            "name": "F#3",
            "ticks": 49920,
            "time": 60.486744,
            "velocity": 1
          },
          {
            "duration": 1.7162345312500022,
            "durationTicks": 1355,
            "midi": 60,
            "name": "C4",
            "ticks": 50400,
            "time": 61.094709,
            "velocity": 1
          },
          {
            "duration": 0.26851787500000057,
            "durationTicks": 212,
            "midi": 63,
            "name": "D#4",
            "ticks": 50400,
            "time": 61.094709,
            "velocity": 1
          },
          {
            "duration": 0.28751678125000524,
            "durationTicks": 227,
            "midi": 65,
            "name": "F4",
            "ticks": 50640,
            "time": 61.3986915,
            "velocity": 1
          },
          {
            "duration": 0.27738403125000133,
            "durationTicks": 219,
            "midi": 63,
            "name": "D#4",
            "ticks": 50880,
            "time": 61.702674,
            "velocity": 1
          },
          {
            "duration": 0.2989161250000052,
            "durationTicks": 236,
            "midi": 65,
            "name": "F4",
            "ticks": 51120,
            "time": 62.0066565,
            "velocity": 1
          },
          {
            "duration": 0.26598468750000137,
            "durationTicks": 210,
            "midi": 68,
            "name": "G#4",
            "ticks": 51360,
            "time": 62.310639,
            "velocity": 1
          },
          {
            "duration": 0.26598468750000137,
            "durationTicks": 210,
            "midi": 65,
            "name": "F4",
            "ticks": 51600,
            "time": 62.6146215,
            "velocity": 1
          },
          {
            "duration": 3.6264684000000074,
            "durationTicks": 2916,
            "midi": 46,
            "name": "A#2",
            "ticks": 51840,
            "time": 62.918604,
            "velocity": 1
          },
          {
            "duration": 0.2883518625000008,
            "durationTicks": 234,
            "midi": 63,
            "name": "D#4",
            "ticks": 51840,
            "time": 62.918604,
            "velocity": 1
          },
          {
            "duration": 0.29944231874999616,
            "durationTicks": 243,
            "midi": 65,
            "name": "F4",
            "ticks": 52080,
            "time": 63.214349500000004,
            "velocity": 1
          },
          {
            "duration": 3.0172594666666797,
            "durationTicks": 2422,
            "midi": 53,
            "name": "F3",
            "ticks": 52320,
            "time": 63.510095,
            "velocity": 1
          },
          {
            "duration": 0.32162323125000114,
            "durationTicks": 261,
            "midi": 63,
            "name": "D#4",
            "ticks": 52320,
            "time": 63.510095,
            "velocity": 1
          },
          {
            "duration": 0.25261594791666653,
            "durationTicks": 205,
            "midi": 58,
            "name": "A#3",
            "ticks": 52560,
            "time": 63.8058405,
            "velocity": 1
          },
          {
            "duration": 1.7879228666666762,
            "durationTicks": 1438,
            "midi": 56,
            "name": "G#3",
            "ticks": 52800,
            "time": 64.101586,
            "velocity": 1
          },
          {
            "duration": 1.7879228666666762,
            "durationTicks": 1438,
            "midi": 61,
            "name": "C#4",
            "ticks": 52800,
            "time": 64.101586,
            "velocity": 1
          },
          {
            "duration": 0.623924366666671,
            "durationTicks": 493,
            "midi": 58,
            "name": "A#3",
            "ticks": 54240,
            "time": 65.89204000000001,
            "velocity": 1
          },
          {
            "duration": 0.623924366666671,
            "durationTicks": 493,
            "midi": 61,
            "name": "C#4",
            "ticks": 54240,
            "time": 65.89204000000001,
            "velocity": 1
          },
          {
            "duration": 0.623924366666671,
            "durationTicks": 493,
            "midi": 65,
            "name": "F4",
            "ticks": 54240,
            "time": 65.89204000000001,
            "velocity": 1
          },
          {
            "duration": 0.623924366666671,
            "durationTicks": 493,
            "midi": 73,
            "name": "C#5",
            "ticks": 54240,
            "time": 65.89204000000001,
            "velocity": 1
          },
          {
            "duration": 0.6062064333333268,
            "durationTicks": 479,
            "midi": 56,
            "name": "G#3",
            "ticks": 54720,
            "time": 66.49951200000001,
            "velocity": 1
          },
          {
            "duration": 0.6062064333333268,
            "durationTicks": 479,
            "midi": 60,
            "name": "C4",
            "ticks": 54720,
            "time": 66.49951200000001,
            "velocity": 1
          },
          {
            "duration": 0.3176572333333354,
            "durationTicks": 251,
            "midi": 72,
            "name": "C5",
            "ticks": 54720,
            "time": 66.49951200000001,
            "velocity": 1
          },
          {
            "duration": 0.2784246666666661,
            "durationTicks": 220,
            "midi": 68,
            "name": "G#4",
            "ticks": 54960,
            "time": 66.80324800000001,
            "velocity": 1
          },
          {
            "duration": 0.5846918000000016,
            "durationTicks": 462,
            "midi": 44,
            "name": "G#2",
            "ticks": 55200,
            "time": 67.10698400000001,
            "velocity": 1
          },
          {
            "duration": 0.5846918000000016,
            "durationTicks": 462,
            "midi": 53,
            "name": "F3",
            "ticks": 55200,
            "time": 67.10698400000001,
            "velocity": 1
          },
          {
            "duration": 0.5846918000000016,
            "durationTicks": 462,
            "midi": 60,
            "name": "C4",
            "ticks": 55200,
            "time": 67.10698400000001,
            "velocity": 1
          },
          {
            "duration": 0.5846918000000016,
            "durationTicks": 462,
            "midi": 65,
            "name": "F4",
            "ticks": 55200,
            "time": 67.10698400000001,
            "velocity": 1
          },
          {
            "duration": 2.458497668749999,
            "durationTicks": 1923,
            "midi": 42,
            "name": "F#2",
            "ticks": 55680,
            "time": 67.71445600000001,
            "velocity": 1
          },
          {
            "duration": 2.458497668749999,
            "durationTicks": 1923,
            "midi": 49,
            "name": "C#3",
            "ticks": 55680,
            "time": 67.71445600000001,
            "velocity": 1
          },
          {
            "duration": 0.30940254583333626,
            "durationTicks": 242,
            "midi": 58,
            "name": "A#3",
            "ticks": 55680,
            "time": 67.71445600000001,
            "velocity": 1
          },
          {
            "duration": 0.30940254583333626,
            "durationTicks": 242,
            "midi": 63,
            "name": "D#4",
            "ticks": 55680,
            "time": 67.71445600000001,
            "velocity": 1
          },
          {
            "duration": 0.27999651875001064,
            "durationTicks": 219,
            "midi": 65,
            "name": "F4",
            "ticks": 55920,
            "time": 68.0213015,
            "velocity": 1
          },
          {
            "duration": 0.29917436249999696,
            "durationTicks": 234,
            "midi": 63,
            "name": "D#4",
            "ticks": 56160,
            "time": 68.32814700000002,
            "velocity": 1
          },
          {
            "duration": 0.31963072916667556,
            "durationTicks": 250,
            "midi": 58,
            "name": "A#3",
            "ticks": 56400,
            "time": 68.63499250000001,
            "velocity": 1
          },
          {
            "duration": 1.8036115437499944,
            "durationTicks": 1423,
            "midi": 63,
            "name": "D#4",
            "ticks": 56640,
            "time": 68.94183800000002,
            "velocity": 1
          },
          {
            "duration": 2.316119181250002,
            "durationTicks": 1861,
            "midi": 44,
            "name": "G#2",
            "ticks": 57600,
            "time": 70.16922000000001,
            "velocity": 1
          },
          {
            "duration": 2.316119181250002,
            "durationTicks": 1861,
            "midi": 54,
            "name": "F#3",
            "ticks": 57600,
            "time": 70.16922000000001,
            "velocity": 1
          },
          {
            "duration": 0.28624793750000777,
            "durationTicks": 230,
            "midi": 63,
            "name": "D#4",
            "ticks": 58080,
            "time": 70.76660700000001,
            "velocity": 1
          },
          {
            "duration": 0.2837588250000067,
            "durationTicks": 228,
            "midi": 65,
            "name": "F4",
            "ticks": 58320,
            "time": 71.0653005,
            "velocity": 1
          },
          {
            "duration": 0.29371527500001093,
            "durationTicks": 236,
            "midi": 63,
            "name": "D#4",
            "ticks": 58560,
            "time": 71.363994,
            "velocity": 1
          },
          {
            "duration": 0.2837588250000067,
            "durationTicks": 228,
            "midi": 65,
            "name": "F4",
            "ticks": 58800,
            "time": 71.6626875,
            "velocity": 1
          },
          {
            "duration": 0.2750469312499888,
            "durationTicks": 221,
            "midi": 68,
            "name": "G#4",
            "ticks": 59040,
            "time": 71.96138100000002,
            "velocity": 1
          },
          {
            "duration": 0.25388947499999404,
            "durationTicks": 204,
            "midi": 65,
            "name": "F4",
            "ticks": 59280,
            "time": 72.26007450000002,
            "velocity": 1
          },
          {
            "duration": 3.6216495187500044,
            "durationTicks": 2909,
            "midi": 46,
            "name": "A#2",
            "ticks": 59520,
            "time": 72.55876800000001,
            "velocity": 1
          },
          {
            "duration": 0.30018522916667223,
            "durationTicks": 245,
            "midi": 63,
            "name": "D#4",
            "ticks": 59520,
            "time": 72.55876800000001,
            "velocity": 1
          },
          {
            "duration": 0.29160850833332574,
            "durationTicks": 238,
            "midi": 65,
            "name": "F4",
            "ticks": 59760,
            "time": 72.85282700000002,
            "velocity": 1
          },
          {
            "duration": 3.011715525000014,
            "durationTicks": 2412,
            "midi": 53,
            "name": "F3",
            "ticks": 60000,
            "time": 73.14688600000001,
            "velocity": 1
          },
          {
            "duration": 0.2793560500000041,
            "durationTicks": 228,
            "midi": 63,
            "name": "D#4",
            "ticks": 60000,
            "time": 73.14688600000001,
            "velocity": 1
          },
          {
            "duration": 0.23892293750000704,
            "durationTicks": 195,
            "midi": 61,
            "name": "C#4",
            "ticks": 60240,
            "time": 73.44094500000001,
            "velocity": 1
          },
          {
            "duration": 1.2649708541666769,
            "durationTicks": 985,
            "midi": 44,
            "name": "G#2",
            "ticks": 62400,
            "time": 76.14320200000002,
            "velocity": 1
          },
          {
            "duration": 1.2649708541666769,
            "durationTicks": 985,
            "midi": 48,
            "name": "C3",
            "ticks": 62400,
            "time": 76.14320200000002,
            "velocity": 1
          },
          {
            "duration": 1.2649708541666769,
            "durationTicks": 985,
            "midi": 51,
            "name": "D#3",
            "ticks": 62400,
            "time": 76.14320200000002,
            "velocity": 1
          },
          {
            "duration": 1.2649708541666769,
            "durationTicks": 985,
            "midi": 53,
            "name": "F3",
            "ticks": 62400,
            "time": 76.14320200000002,
            "velocity": 1
          },
          {
            "duration": 1.2649708541666769,
            "durationTicks": 985,
            "midi": 56,
            "name": "G#3",
            "ticks": 62400,
            "time": 76.14320200000002,
            "velocity": 1
          },
          {
            "duration": 1.2649708541666769,
            "durationTicks": 985,
            "midi": 60,
            "name": "C4",
            "ticks": 62400,
            "time": 76.14320200000002,
            "velocity": 1
          },
          {
            "duration": 0.5822761874999998,
            "durationTicks": 441,
            "midi": 42,
            "name": "F#2",
            "ticks": 63360,
            "time": 77.37516400000003,
            "velocity": 1
          },
          {
            "duration": 0.5822761874999998,
            "durationTicks": 441,
            "midi": 70,
            "name": "A#4",
            "ticks": 63360,
            "time": 77.37516400000003,
            "velocity": 1
          },
          {
            "duration": 0.28123543750000124,
            "durationTicks": 213,
            "midi": 75,
            "name": "D#5",
            "ticks": 63360,
            "time": 77.37516400000003,
            "velocity": 1
          },
          {
            "duration": 0.6060425625000079,
            "durationTicks": 459,
            "midi": 77,
            "name": "F5",
            "ticks": 63600,
            "time": 77.69204900000003,
            "velocity": 1
          },
          {
            "duration": 1.898669291666664,
            "durationTicks": 1438,
            "midi": 49,
            "name": "C#3",
            "ticks": 63840,
            "time": 78.00893400000002,
            "velocity": 1
          },
          {
            "duration": 0.6535753124999957,
            "durationTicks": 495,
            "midi": 75,
            "name": "D#5",
            "ticks": 63840,
            "time": 78.00893400000002,
            "velocity": 1
          },
          {
            "duration": 0.3366903124999965,
            "durationTicks": 255,
            "midi": 70,
            "name": "A#4",
            "ticks": 64080,
            "time": 78.32581900000002,
            "velocity": 1
          },
          {
            "duration": 1.2358515000000097,
            "durationTicks": 936,
            "midi": 58,
            "name": "A#3",
            "ticks": 64320,
            "time": 78.64270400000002,
            "velocity": 1
          },
          {
            "duration": 1.2358515000000097,
            "durationTicks": 936,
            "midi": 65,
            "name": "F4",
            "ticks": 64320,
            "time": 78.64270400000002,
            "velocity": 1
          },
          {
            "duration": 1.8660906041666578,
            "durationTicks": 1438,
            "midi": 75,
            "name": "D#5",
            "ticks": 64320,
            "time": 78.64270400000002,
            "velocity": 1
          },
          {
            "duration": 2.392950218750002,
            "durationTicks": 1911,
            "midi": 44,
            "name": "G#2",
            "ticks": 65280,
            "time": 79.91024400000002,
            "velocity": 1
          },
          {
            "duration": 0.6210901666666615,
            "durationTicks": 496,
            "midi": 51,
            "name": "D#3",
            "ticks": 65280,
            "time": 79.91024400000002,
            "velocity": 1
          },
          {
            "duration": 1.7593380729166626,
            "durationTicks": 1405,
            "midi": 54,
            "name": "F#3",
            "ticks": 65760,
            "time": 80.51129900000002,
            "velocity": 1
          },
          {
            "duration": 0.274231343750003,
            "durationTicks": 219,
            "midi": 70,
            "name": "A#4",
            "ticks": 65760,
            "time": 80.51129900000002,
            "velocity": 1
          },
          {
            "duration": 0.274231343750003,
            "durationTicks": 219,
            "midi": 75,
            "name": "D#5",
            "ticks": 65760,
            "time": 80.51129900000002,
            "velocity": 1
          },
          {
            "duration": 0.2767357395833301,
            "durationTicks": 221,
            "midi": 72,
            "name": "C5",
            "ticks": 66000,
            "time": 80.81182650000002,
            "velocity": 1
          },
          {
            "duration": 0.2767357395833301,
            "durationTicks": 221,
            "midi": 77,
            "name": "F5",
            "ticks": 66000,
            "time": 80.81182650000002,
            "velocity": 1
          },
          {
            "duration": 1.1870836249999996,
            "durationTicks": 948,
            "midi": 60,
            "name": "C4",
            "ticks": 66240,
            "time": 81.11235400000002,
            "velocity": 1
          },
          {
            "duration": 0.28550112499999614,
            "durationTicks": 228,
            "midi": 70,
            "name": "A#4",
            "ticks": 66240,
            "time": 81.11235400000002,
            "velocity": 1
          },
          {
            "duration": 0.28550112499999614,
            "durationTicks": 228,
            "midi": 75,
            "name": "D#5",
            "ticks": 66240,
            "time": 81.11235400000002,
            "velocity": 1
          },
          {
            "duration": 0.2867533229166668,
            "durationTicks": 229,
            "midi": 72,
            "name": "C5",
            "ticks": 66480,
            "time": 81.41288150000003,
            "velocity": 1
          },
          {
            "duration": 0.2867533229166668,
            "durationTicks": 229,
            "midi": 77,
            "name": "F5",
            "ticks": 66480,
            "time": 81.41288150000003,
            "velocity": 1
          },
          {
            "duration": 0.2980231041666741,
            "durationTicks": 238,
            "midi": 75,
            "name": "D#5",
            "ticks": 66720,
            "time": 81.71340900000001,
            "velocity": 1
          },
          {
            "duration": 0.5935418125000069,
            "durationTicks": 474,
            "midi": 80,
            "name": "G#5",
            "ticks": 66720,
            "time": 81.71340900000001,
            "velocity": 1
          },
          {
            "duration": 0.28550112500001035,
            "durationTicks": 228,
            "midi": 72,
            "name": "C5",
            "ticks": 66960,
            "time": 82.01393650000001,
            "velocity": 1
          },
          {
            "duration": 0.28550112500001035,
            "durationTicks": 228,
            "midi": 77,
            "name": "F5",
            "ticks": 66960,
            "time": 82.01393650000001,
            "velocity": 1
          },
          {
            "duration": 1.5662119812500066,
            "durationTicks": 1281,
            "midi": 46,
            "name": "A#2",
            "ticks": 67200,
            "time": 82.31446400000002,
            "velocity": 1
          },
          {
            "duration": 0.2702051895833364,
            "durationTicks": 221,
            "midi": 70,
            "name": "A#4",
            "ticks": 67200,
            "time": 82.31446400000002,
            "velocity": 1
          },
          {
            "duration": 0.2702051895833364,
            "durationTicks": 221,
            "midi": 75,
            "name": "D#5",
            "ticks": 67200,
            "time": 82.31446400000002,
            "velocity": 1
          },
          {
            "duration": 0.2702051895833364,
            "durationTicks": 221,
            "midi": 72,
            "name": "C5",
            "ticks": 67440,
            "time": 82.60789950000002,
            "velocity": 1
          },
          {
            "duration": 0.2702051895833364,
            "durationTicks": 221,
            "midi": 77,
            "name": "F5",
            "ticks": 67440,
            "time": 82.60789950000002,
            "velocity": 1
          },
          {
            "duration": 1.7410506333333302,
            "durationTicks": 1424,
            "midi": 53,
            "name": "F3",
            "ticks": 67680,
            "time": 82.90133500000002,
            "velocity": 1
          },
          {
            "duration": 0.2714278374999992,
            "durationTicks": 222,
            "midi": 70,
            "name": "A#4",
            "ticks": 67680,
            "time": 82.90133500000002,
            "velocity": 1
          },
          {
            "duration": 0.2714278374999992,
            "durationTicks": 222,
            "midi": 75,
            "name": "D#5",
            "ticks": 67680,
            "time": 82.90133500000002,
            "velocity": 1
          },
          {
            "duration": 1.458618964583323,
            "durationTicks": 1193,
            "midi": 65,
            "name": "F4",
            "ticks": 67920,
            "time": 83.19477050000002,
            "velocity": 1
          },
          {
            "duration": 0.29832609166666657,
            "durationTicks": 244,
            "midi": 70,
            "name": "A#4",
            "ticks": 67920,
            "time": 83.19477050000002,
            "velocity": 1
          },
          {
            "duration": 1.1480663937499997,
            "durationTicks": 939,
            "midi": 61,
            "name": "C#4",
            "ticks": 68160,
            "time": 83.48820600000002,
            "velocity": 1
          },
          {
            "duration": 1.7885947749999929,
            "durationTicks": 1446,
            "midi": 68,
            "name": "G#4",
            "ticks": 68160,
            "time": 83.48820600000002,
            "velocity": 1
          },
          {
            "duration": 1.1480663937499997,
            "durationTicks": 939,
            "midi": 73,
            "name": "C#5",
            "ticks": 68160,
            "time": 83.48820600000002,
            "velocity": 1
          },
          {
            "duration": 0.6414204874999996,
            "durationTicks": 507,
            "midi": 46,
            "name": "A#2",
            "ticks": 69120,
            "time": 84.66194800000001,
            "velocity": 1
          },
          {
            "duration": 0.6414204874999996,
            "durationTicks": 507,
            "midi": 73,
            "name": "C#5",
            "ticks": 69120,
            "time": 84.66194800000001,
            "velocity": 1
          },
          {
            "duration": 0.6502763916666652,
            "durationTicks": 514,
            "midi": 58,
            "name": "A#3",
            "ticks": 69600,
            "time": 85.26921000000002,
            "velocity": 1
          },
          {
            "duration": 0.6502763916666652,
            "durationTicks": 514,
            "midi": 65,
            "name": "F4",
            "ticks": 69600,
            "time": 85.26921000000002,
            "velocity": 1
          },
          {
            "duration": 0.6502763916666652,
            "durationTicks": 514,
            "midi": 73,
            "name": "C#5",
            "ticks": 69600,
            "time": 85.26921000000002,
            "velocity": 1
          },
          {
            "duration": 0.6300343249999969,
            "durationTicks": 498,
            "midi": 77,
            "name": "F5",
            "ticks": 69600,
            "time": 85.26921000000002,
            "velocity": 1
          },
          {
            "duration": 0.6502763916666652,
            "durationTicks": 514,
            "midi": 85,
            "name": "C#6",
            "ticks": 69600,
            "time": 85.26921000000002,
            "velocity": 1
          },
          {
            "duration": 1.1588583166666666,
            "durationTicks": 916,
            "midi": 56,
            "name": "G#3",
            "ticks": 70080,
            "time": 85.876472,
            "velocity": 1
          },
          {
            "duration": 1.1588583166666666,
            "durationTicks": 916,
            "midi": 65,
            "name": "F4",
            "ticks": 70080,
            "time": 85.876472,
            "velocity": 1
          },
          {
            "duration": 0.588285062500006,
            "durationTicks": 465,
            "midi": 72,
            "name": "C5",
            "ticks": 70080,
            "time": 85.876472,
            "velocity": 1
          },
          {
            "duration": 0.2682073833333334,
            "durationTicks": 212,
            "midi": 84,
            "name": "C6",
            "ticks": 70080,
            "time": 85.876472,
            "velocity": 1
          },
          {
            "duration": 0.30869151666666994,
            "durationTicks": 244,
            "midi": 80,
            "name": "G#5",
            "ticks": 70320,
            "time": 86.180103,
            "velocity": 1
          },
          {
            "duration": 0.5604522208333265,
            "durationTicks": 443,
            "midi": 72,
            "name": "C5",
            "ticks": 70560,
            "time": 86.48373400000001,
            "velocity": 1
          },
          {
            "duration": 0.5604522208333265,
            "durationTicks": 443,
            "midi": 77,
            "name": "F5",
            "ticks": 70560,
            "time": 86.48373400000001,
            "velocity": 1
          },
          {
            "duration": 0.5503311875000065,
            "durationTicks": 435,
            "midi": 42,
            "name": "F#2",
            "ticks": 71040,
            "time": 87.090996,
            "velocity": 1
          },
          {
            "duration": 2.451188975000008,
            "durationTicks": 1938,
            "midi": 70,
            "name": "A#4",
            "ticks": 71040,
            "time": 87.090996,
            "velocity": 1
          },
          {
            "duration": 0.29097970833333875,
            "durationTicks": 230,
            "midi": 75,
            "name": "D#5",
            "ticks": 71040,
            "time": 87.090996,
            "velocity": 1
          },
          {
            "duration": 0.2504955750000022,
            "durationTicks": 198,
            "midi": 77,
            "name": "F5",
            "ticks": 71280,
            "time": 87.39462700000001,
            "velocity": 1
          },
          {
            "duration": 1.8882089250000007,
            "durationTicks": 1494,
            "midi": 49,
            "name": "C#3",
            "ticks": 71520,
            "time": 87.69825800000001,
            "velocity": 1
          },
          {
            "duration": 0.2960402249999987,
            "durationTicks": 234,
            "midi": 75,
            "name": "D#5",
            "ticks": 71520,
            "time": 87.69825800000001,
            "velocity": 1
          },
          {
            "duration": 1.2132588708333287,
            "durationTicks": 959,
            "midi": 58,
            "name": "A#3",
            "ticks": 72000,
            "time": 88.30552000000002,
            "velocity": 1
          },
          {
            "duration": 1.2132588708333287,
            "durationTicks": 959,
            "midi": 65,
            "name": "F4",
            "ticks": 72000,
            "time": 88.30552000000002,
            "velocity": 1
          },
          {
            "duration": 1.2132588708333287,
            "durationTicks": 959,
            "midi": 75,
            "name": "D#5",
            "ticks": 72000,
            "time": 88.30552000000002,
            "velocity": 1
          },
          {
            "duration": 2.3014664208333357,
            "durationTicks": 1871,
            "midi": 44,
            "name": "G#2",
            "ticks": 72959,
            "time": 89.51877887083334,
            "velocity": 1
          },
          {
            "duration": 2.3014664208333357,
            "durationTicks": 1871,
            "midi": 51,
            "name": "D#3",
            "ticks": 72959,
            "time": 89.51877887083334,
            "velocity": 1
          },
          {
            "duration": 1.7110053458333425,
            "durationTicks": 1391,
            "midi": 54,
            "name": "F#3",
            "ticks": 73440,
            "time": 90.11047,
            "velocity": 1
          },
          {
            "duration": 0.2730720250000047,
            "durationTicks": 222,
            "midi": 70,
            "name": "A#4",
            "ticks": 73440,
            "time": 90.11047,
            "velocity": 1
          },
          {
            "duration": 0.2730720250000047,
            "durationTicks": 222,
            "midi": 75,
            "name": "D#5",
            "ticks": 73440,
            "time": 90.11047,
            "velocity": 1
          },
          {
            "duration": 0.262001537499998,
            "durationTicks": 213,
            "midi": 72,
            "name": "C5",
            "ticks": 73680,
            "time": 90.40568300000001,
            "velocity": 1
          },
          {
            "duration": 0.262001537499998,
            "durationTicks": 213,
            "midi": 77,
            "name": "F5",
            "ticks": 73680,
            "time": 90.40568300000001,
            "velocity": 1
          },
          {
            "duration": 1.1550208624999954,
            "durationTicks": 939,
            "midi": 60,
            "name": "C4",
            "ticks": 73920,
            "time": 90.70089600000001,
            "velocity": 1
          },
          {
            "duration": 0.2730720250000047,
            "durationTicks": 222,
            "midi": 70,
            "name": "A#4",
            "ticks": 73920,
            "time": 90.70089600000001,
            "velocity": 1
          },
          {
            "duration": 0.2730720250000047,
            "durationTicks": 222,
            "midi": 75,
            "name": "D#5",
            "ticks": 73920,
            "time": 90.70089600000001,
            "velocity": 1
          },
          {
            "duration": 0.29152283749999697,
            "durationTicks": 237,
            "midi": 72,
            "name": "C5",
            "ticks": 74160,
            "time": 90.99610900000002,
            "velocity": 1
          },
          {
            "duration": 0.29152283749999697,
            "durationTicks": 237,
            "midi": 77,
            "name": "F5",
            "ticks": 74160,
            "time": 90.99610900000002,
            "velocity": 1
          },
          {
            "duration": 0.2915228375000112,
            "durationTicks": 237,
            "midi": 75,
            "name": "D#5",
            "ticks": 74400,
            "time": 91.29132200000001,
            "velocity": 1
          },
          {
            "duration": 0.2915228375000112,
            "durationTicks": 237,
            "midi": 80,
            "name": "G#5",
            "ticks": 74400,
            "time": 91.29132200000001,
            "velocity": 1
          },
          {
            "duration": 0.262001537499998,
            "durationTicks": 213,
            "midi": 72,
            "name": "C5",
            "ticks": 74640,
            "time": 91.58653500000001,
            "velocity": 1
          },
          {
            "duration": 0.262001537499998,
            "durationTicks": 213,
            "midi": 77,
            "name": "F5",
            "ticks": 74640,
            "time": 91.58653500000001,
            "velocity": 1
          },
          {
            "duration": 3.4692332125000007,
            "durationTicks": 2854,
            "midi": 46,
            "name": "A#2",
            "ticks": 74880,
            "time": 91.88174800000002,
            "velocity": 1
          },
          {
            "duration": 0.30024548125000194,
            "durationTicks": 247,
            "midi": 70,
            "name": "A#4",
            "ticks": 74880,
            "time": 91.88174800000002,
            "velocity": 1
          },
          {
            "duration": 0.30024548125000194,
            "durationTicks": 247,
            "midi": 75,
            "name": "D#5",
            "ticks": 74880,
            "time": 91.88174800000002,
            "velocity": 1
          },
          {
            "duration": 0.23825147499999844,
            "durationTicks": 196,
            "midi": 72,
            "name": "C5",
            "ticks": 75120,
            "time": 92.17348450000001,
            "velocity": 1
          },
          {
            "duration": 0.23825147499999844,
            "durationTicks": 196,
            "midi": 77,
            "name": "F5",
            "ticks": 75120,
            "time": 92.17348450000001,
            "velocity": 1
          },
          {
            "duration": 2.9076404500000024,
            "durationTicks": 2392,
            "midi": 53,
            "name": "F3",
            "ticks": 75360,
            "time": 92.46522100000001,
            "velocity": 1
          },
          {
            "duration": 0.28808979375000376,
            "durationTicks": 237,
            "midi": 70,
            "name": "A#4",
            "ticks": 75360,
            "time": 92.46522100000001,
            "velocity": 1
          },
          {
            "duration": 0.28808979375000376,
            "durationTicks": 237,
            "midi": 75,
            "name": "D#5",
            "ticks": 75360,
            "time": 92.46522100000001,
            "velocity": 1
          },
          {
            "duration": 0.30875446250000493,
            "durationTicks": 254,
            "midi": 68,
            "name": "G#4",
            "ticks": 75600,
            "time": 92.75695750000001,
            "velocity": 1
          },
          {
            "duration": 0.30875446250000493,
            "durationTicks": 254,
            "midi": 73,
            "name": "C#5",
            "ticks": 75600,
            "time": 92.75695750000001,
            "velocity": 1
          },
          {
            "duration": 2.28770038750001,
            "durationTicks": 1882,
            "midi": 61,
            "name": "C#4",
            "ticks": 75840,
            "time": 93.04869400000001,
            "velocity": 1
          },
          {
            "duration": 2.28770038750001,
            "durationTicks": 1882,
            "midi": 65,
            "name": "F4",
            "ticks": 75840,
            "time": 93.04869400000001,
            "velocity": 1
          },
          {
            "duration": 2.28770038750001,
            "durationTicks": 1882,
            "midi": 70,
            "name": "A#4",
            "ticks": 75840,
            "time": 93.04869400000001,
            "velocity": 1
          },
          {
            "duration": 1.2144737333333353,
            "durationTicks": 997,
            "midi": 44,
            "name": "G#2",
            "ticks": 77760,
            "time": 95.38258600000002,
            "velocity": 1
          },
          {
            "duration": 1.2144737333333353,
            "durationTicks": 997,
            "midi": 53,
            "name": "F3",
            "ticks": 77760,
            "time": 95.38258600000002,
            "velocity": 1
          },
          {
            "duration": 0.5761795874999933,
            "durationTicks": 474,
            "midi": 60,
            "name": "C4",
            "ticks": 77760,
            "time": 95.38258600000002,
            "velocity": 1
          },
          {
            "duration": 1.2144737333333353,
            "durationTicks": 997,
            "midi": 65,
            "name": "F4",
            "ticks": 77760,
            "time": 95.38258600000002,
            "velocity": 1
          },
          {
            "duration": 0.6258626000000049,
            "durationTicks": 513,
            "midi": 61,
            "name": "C#4",
            "ticks": 78240,
            "time": 95.96605900000002,
            "velocity": 1
          },
          {
            "duration": 0.5703328000000027,
            "durationTicks": 444,
            "midi": 42,
            "name": "F#2",
            "ticks": 78720,
            "time": 96.54953200000001,
            "velocity": 1
          },
          {
            "duration": 1.9289776250000017,
            "durationTicks": 1500,
            "midi": 49,
            "name": "C#3",
            "ticks": 79200,
            "time": 97.16610800000001,
            "velocity": 1
          },
          {
            "duration": 1.2648518499999852,
            "durationTicks": 984,
            "midi": 58,
            "name": "A#3",
            "ticks": 79680,
            "time": 97.78268400000002,
            "velocity": 1
          },
          {
            "duration": 1.2740976395833172,
            "durationTicks": 991,
            "midi": 65,
            "name": "F4",
            "ticks": 79680,
            "time": 97.78268400000002,
            "velocity": 1
          },
          {
            "duration": 2.3127682229166737,
            "durationTicks": 1751,
            "midi": 44,
            "name": "G#2",
            "ticks": 80640,
            "time": 99.01583600000001,
            "velocity": 1
          },
          {
            "duration": 2.3127682229166737,
            "durationTicks": 1751,
            "midi": 51,
            "name": "D#3",
            "ticks": 80640,
            "time": 99.01583600000001,
            "velocity": 1
          },
          {
            "duration": 0.6128637666666634,
            "durationTicks": 464,
            "midi": 56,
            "name": "G#3",
            "ticks": 80640,
            "time": 99.01583600000001,
            "velocity": 1
          },
          {
            "duration": 0.6128637666666634,
            "durationTicks": 464,
            "midi": 63,
            "name": "D#4",
            "ticks": 80640,
            "time": 99.01583600000001,
            "velocity": 1
          },
          {
            "duration": 1.6999044562500103,
            "durationTicks": 1287,
            "midi": 54,
            "name": "F#3",
            "ticks": 81120,
            "time": 99.649833,
            "velocity": 1
          },
          {
            "duration": 0.653809406250005,
            "durationTicks": 495,
            "midi": 65,
            "name": "F4",
            "ticks": 81120,
            "time": 99.649833,
            "velocity": 1
          },
          {
            "duration": 0.653809406250005,
            "durationTicks": 495,
            "midi": 72,
            "name": "C5",
            "ticks": 81120,
            "time": 99.649833,
            "velocity": 1
          },
          {
            "duration": 1.0474158770833384,
            "durationTicks": 793,
            "midi": 60,
            "name": "C4",
            "ticks": 81600,
            "time": 100.28383000000001,
            "velocity": 1
          },
          {
            "duration": 1.0474158770833384,
            "durationTicks": 793,
            "midi": 70,
            "name": "A#4",
            "ticks": 81600,
            "time": 100.28383000000001,
            "velocity": 1
          },
          {
            "duration": 2.360835312500001,
            "durationTicks": 1855,
            "midi": 46,
            "name": "A#2",
            "ticks": 82560,
            "time": 101.55182400000001,
            "velocity": 1
          },
          {
            "duration": 2.7910036874999946,
            "durationTicks": 2193,
            "midi": 53,
            "name": "F3",
            "ticks": 82560,
            "time": 101.55182400000001,
            "velocity": 1
          },
          {
            "duration": 1.2612333124999964,
            "durationTicks": 991,
            "midi": 61,
            "name": "C#4",
            "ticks": 82560,
            "time": 101.55182400000001,
            "velocity": 1
          },
          {
            "duration": 2.7910036874999946,
            "durationTicks": 2193,
            "midi": 68,
            "name": "G#4",
            "ticks": 82560,
            "time": 101.55182400000001,
            "velocity": 1
          },
          {
            "duration": 0.7407041249999935,
            "durationTicks": 582,
            "midi": 72,
            "name": "C5",
            "ticks": 82560,
            "time": 101.55182400000001,
            "velocity": 1
          },
          {
            "duration": 1.5094073750000092,
            "durationTicks": 1186,
            "midi": 61,
            "name": "C#4",
            "ticks": 83520,
            "time": 102.773604,
            "velocity": 1
          },
          {
            "duration": 0.7012508125000068,
            "durationTicks": 551,
            "midi": 46,
            "name": "A#2",
            "ticks": 84360,
            "time": 103.8426615,
            "velocity": 1
          },
          {
            "duration": 0.6108899999999977,
            "durationTicks": 480,
            "midi": 58,
            "name": "A#3",
            "ticks": 84960,
            "time": 104.60627400000001,
            "velocity": 1
          },
          {
            "duration": 1.7334003750000022,
            "durationTicks": 1362,
            "midi": 65,
            "name": "F4",
            "ticks": 84960,
            "time": 104.60627400000001,
            "velocity": 1
          },
          {
            "duration": 0.6108899999999977,
            "durationTicks": 480,
            "midi": 73,
            "name": "C#5",
            "ticks": 84960,
            "time": 104.60627400000001,
            "velocity": 1
          },
          {
            "duration": 0.6108899999999977,
            "durationTicks": 480,
            "midi": 77,
            "name": "F5",
            "ticks": 84960,
            "time": 104.60627400000001,
            "velocity": 1
          },
          {
            "duration": 0.6108899999999977,
            "durationTicks": 480,
            "midi": 85,
            "name": "C#6",
            "ticks": 84960,
            "time": 104.60627400000001,
            "velocity": 1
          },
          {
            "duration": 0.5816181874999984,
            "durationTicks": 457,
            "midi": 56,
            "name": "G#3",
            "ticks": 85440,
            "time": 105.21716400000001,
            "velocity": 1
          },
          {
            "duration": 0.5816181874999984,
            "durationTicks": 457,
            "midi": 72,
            "name": "C5",
            "ticks": 85440,
            "time": 105.21716400000001,
            "velocity": 1
          },
          {
            "duration": 0.5816181874999984,
            "durationTicks": 457,
            "midi": 77,
            "name": "F5",
            "ticks": 85440,
            "time": 105.21716400000001,
            "velocity": 1
          },
          {
            "duration": 0.5816181874999984,
            "durationTicks": 457,
            "midi": 84,
            "name": "C6",
            "ticks": 85440,
            "time": 105.21716400000001,
            "velocity": 1
          },
          {
            "duration": 0.6083446250000009,
            "durationTicks": 478,
            "midi": 44,
            "name": "G#2",
            "ticks": 85920,
            "time": 105.82805400000001,
            "velocity": 1
          },
          {
            "duration": 0.5408921875000061,
            "durationTicks": 425,
            "midi": 53,
            "name": "F3",
            "ticks": 85920,
            "time": 105.82805400000001,
            "velocity": 1
          },
          {
            "duration": 0.6083446250000009,
            "durationTicks": 478,
            "midi": 72,
            "name": "C5",
            "ticks": 85920,
            "time": 105.82805400000001,
            "velocity": 1
          },
          {
            "duration": 0.6083446250000009,
            "durationTicks": 478,
            "midi": 77,
            "name": "F5",
            "ticks": 85920,
            "time": 105.82805400000001,
            "velocity": 1
          },
          {
            "duration": 0.6208960000000019,
            "durationTicks": 480,
            "midi": 42,
            "name": "F#2",
            "ticks": 86400,
            "time": 106.438944,
            "velocity": 1
          },
          {
            "duration": 0.6208960000000019,
            "durationTicks": 480,
            "midi": 54,
            "name": "F#3",
            "ticks": 86400,
            "time": 106.438944,
            "velocity": 1
          },
          {
            "duration": 0.6208960000000019,
            "durationTicks": 480,
            "midi": 65,
            "name": "F4",
            "ticks": 86400,
            "time": 106.438944,
            "velocity": 1
          },
          {
            "duration": 0.6208960000000019,
            "durationTicks": 480,
            "midi": 73,
            "name": "C#5",
            "ticks": 86400,
            "time": 106.438944,
            "velocity": 1
          },
          {
            "duration": 1.8997260499999982,
            "durationTicks": 1468,
            "midi": 49,
            "name": "C#3",
            "ticks": 86880,
            "time": 107.05984000000001,
            "velocity": 1
          },
          {
            "duration": 0.6648761333333368,
            "durationTicks": 514,
            "midi": 70,
            "name": "A#4",
            "ticks": 86880,
            "time": 107.05984000000001,
            "velocity": 1
          },
          {
            "duration": 1.2340307999999993,
            "durationTicks": 954,
            "midi": 58,
            "name": "A#3",
            "ticks": 87360,
            "time": 107.68073600000001,
            "velocity": 1
          },
          {
            "duration": 0.6661696666666614,
            "durationTicks": 515,
            "midi": 77,
            "name": "F5",
            "ticks": 87360,
            "time": 107.68073600000001,
            "velocity": 1
          },
          {
            "duration": 2.371757987500004,
            "durationTicks": 1793,
            "midi": 44,
            "name": "G#2",
            "ticks": 88320,
            "time": 108.922528,
            "velocity": 1
          },
          {
            "duration": 0.6296468500000003,
            "durationTicks": 476,
            "midi": 51,
            "name": "D#3",
            "ticks": 88320,
            "time": 108.922528,
            "velocity": 1
          },
          {
            "duration": 0.6296468500000003,
            "durationTicks": 476,
            "midi": 65,
            "name": "F4",
            "ticks": 88320,
            "time": 108.922528,
            "velocity": 1
          },
          {
            "duration": 0.6455203000000012,
            "durationTicks": 488,
            "midi": 54,
            "name": "F#3",
            "ticks": 88800,
            "time": 109.557466,
            "velocity": 1
          },
          {
            "duration": 1.7302060499999925,
            "durationTicks": 1308,
            "midi": 70,
            "name": "A#4",
            "ticks": 88800,
            "time": 109.557466,
            "velocity": 1
          },
          {
            "duration": 1.0754262374999968,
            "durationTicks": 813,
            "midi": 60,
            "name": "C4",
            "ticks": 89280,
            "time": 110.192404,
            "velocity": 1
          },
          {
            "duration": 3.158718399999998,
            "durationTicks": 2464,
            "midi": 46,
            "name": "A#2",
            "ticks": 90240,
            "time": 111.46227999999999,
            "velocity": 1
          },
          {
            "duration": 3.695670149999998,
            "durationTicks": 2894,
            "midi": 53,
            "name": "F3",
            "ticks": 90240,
            "time": 111.46227999999999,
            "velocity": 1
          },
          {
            "duration": 1.27069865,
            "durationTicks": 984,
            "midi": 61,
            "name": "C#4",
            "ticks": 90240,
            "time": 111.46227999999999,
            "velocity": 1
          },
          {
            "duration": 1.27069865,
            "durationTicks": 984,
            "midi": 65,
            "name": "F4",
            "ticks": 90240,
            "time": 111.46227999999999,
            "velocity": 1
          },
          {
            "duration": 1.0757032270833378,
            "durationTicks": 833,
            "midi": 68,
            "name": "G#4",
            "ticks": 90240,
            "time": 111.46227999999999,
            "velocity": 1
          },
          {
            "duration": 1.0757032270833378,
            "durationTicks": 833,
            "midi": 72,
            "name": "C5",
            "ticks": 90240,
            "time": 111.46227999999999,
            "velocity": 1
          },
          {
            "duration": 1.0757032270833378,
            "durationTicks": 833,
            "midi": 75,
            "name": "D#5",
            "ticks": 90240,
            "time": 111.46227999999999,
            "velocity": 1
          },
          {
            "duration": 2.425994750000001,
            "durationTicks": 1910,
            "midi": 58,
            "name": "A#3",
            "ticks": 91200,
            "time": 112.70198599999999,
            "velocity": 1
          },
          {
            "duration": 2.425994750000001,
            "durationTicks": 1910,
            "midi": 61,
            "name": "C#4",
            "ticks": 91200,
            "time": 112.70198599999999,
            "velocity": 1
          },
          {
            "duration": 0.2702342937499935,
            "durationTicks": 211,
            "midi": 58,
            "name": "A#3",
            "ticks": 94080,
            "time": 116.339244,
            "velocity": 1
          },
          {
            "duration": 2.172120199999995,
            "durationTicks": 1696,
            "midi": 59,
            "name": "B3",
            "ticks": 94080,
            "time": 116.339244,
            "velocity": 1
          },
          {
            "duration": 0.2702342937499935,
            "durationTicks": 211,
            "midi": 61,
            "name": "C#4",
            "ticks": 94080,
            "time": 116.339244,
            "velocity": 1
          },
          {
            "duration": 2.172120199999995,
            "durationTicks": 1696,
            "midi": 63,
            "name": "D#4",
            "ticks": 94080,
            "time": 116.339244,
            "velocity": 1
          },
          {
            "duration": 2.172120199999995,
            "durationTicks": 1696,
            "midi": 66,
            "name": "F#4",
            "ticks": 94080,
            "time": 116.339244,
            "velocity": 1
          },
          {
            "duration": 2.172120199999995,
            "durationTicks": 1696,
            "midi": 70,
            "name": "A#4",
            "ticks": 94080,
            "time": 116.339244,
            "velocity": 1
          },
          {
            "duration": 2.7356019375000074,
            "durationTicks": 2103,
            "midi": 59,
            "name": "B3",
            "ticks": 95760,
            "time": 118.4908725,
            "velocity": 1
          },
          {
            "duration": 0.06915948750000211,
            "durationTicks": 54,
            "midi": 63,
            "name": "D#4",
            "ticks": 95760,
            "time": 118.4908725,
            "velocity": 1
          },
          {
            "duration": 2.115185520833336,
            "durationTicks": 1627,
            "midi": 66,
            "name": "F#4",
            "ticks": 95760,
            "time": 118.4908725,
            "velocity": 1
          },
          {
            "duration": 0.06915948750000211,
            "durationTicks": 54,
            "midi": 70,
            "name": "A#4",
            "ticks": 95760,
            "time": 118.4908725,
            "velocity": 1
          },
          {
            "duration": 1.4011505208333261,
            "durationTicks": 1075,
            "midi": 54,
            "name": "F#3",
            "ticks": 97920,
            "time": 121.300768,
            "velocity": 1
          },
          {
            "duration": 2.1636370833333274,
            "durationTicks": 1660,
            "midi": 58,
            "name": "A#3",
            "ticks": 97920,
            "time": 121.300768,
            "velocity": 1
          },
          {
            "duration": 2.151906520833336,
            "durationTicks": 1651,
            "midi": 61,
            "name": "C#4",
            "ticks": 97920,
            "time": 121.300768,
            "velocity": 1
          },
          {
            "duration": 2.1636370833333274,
            "durationTicks": 1660,
            "midi": 65,
            "name": "F4",
            "ticks": 97920,
            "time": 121.300768,
            "velocity": 1
          },
          {
            "duration": 1.9081276874999844,
            "durationTicks": 1465,
            "midi": 46,
            "name": "A#2",
            "ticks": 99120,
            "time": 122.86484300000001,
            "velocity": 1
          },
          {
            "duration": 1.2968151499999863,
            "durationTicks": 996,
            "midi": 39,
            "name": "D#2",
            "ticks": 99600,
            "time": 123.49047300000001,
            "velocity": 1
          },
          {
            "duration": 1.2577675249999913,
            "durationTicks": 966,
            "midi": 54,
            "name": "F#3",
            "ticks": 99600,
            "time": 123.49047300000001,
            "velocity": 1
          },
          {
            "duration": 1.2968151499999863,
            "durationTicks": 996,
            "midi": 58,
            "name": "A#3",
            "ticks": 99600,
            "time": 123.49047300000001,
            "velocity": 1
          },
          {
            "duration": 1.3072278499999896,
            "durationTicks": 1004,
            "midi": 61,
            "name": "C#4",
            "ticks": 99600,
            "time": 123.49047300000001,
            "velocity": 1
          },
          {
            "duration": 1.2968151499999863,
            "durationTicks": 996,
            "midi": 65,
            "name": "F4",
            "ticks": 99600,
            "time": 123.49047300000001,
            "velocity": 1
          },
          {
            "duration": 0.8811747374999896,
            "durationTicks": 677,
            "midi": 51,
            "name": "D#3",
            "ticks": 100560,
            "time": 124.740431,
            "velocity": 1
          },
          {
            "duration": 0.8811747374999896,
            "durationTicks": 677,
            "midi": 63,
            "name": "D#4",
            "ticks": 100560,
            "time": 124.740431,
            "velocity": 1
          },
          {
            "duration": 0.13146033750000186,
            "durationTicks": 101,
            "midi": 53,
            "name": "F3",
            "ticks": 101280,
            "time": 125.67757399999999,
            "velocity": 1
          },
          {
            "duration": 0.3058730624999981,
            "durationTicks": 235,
            "midi": 65,
            "name": "F4",
            "ticks": 101280,
            "time": 125.67757399999999,
            "velocity": 1
          },
          {
            "duration": 0.3365922645833308,
            "durationTicks": 259,
            "midi": 54,
            "name": "F#3",
            "ticks": 101520,
            "time": 125.989955,
            "velocity": 1
          },
          {
            "duration": 0.020825400000006766,
            "durationTicks": 16,
            "midi": 66,
            "name": "F#4",
            "ticks": 101520,
            "time": 125.989955,
            "velocity": 1
          },
          {
            "duration": 0.3365922645833308,
            "durationTicks": 259,
            "midi": 66,
            "name": "F#4",
            "ticks": 101520,
            "time": 125.989955,
            "velocity": 1
          },
          {
            "duration": 2.5498284437499876,
            "durationTicks": 2001,
            "midi": 51,
            "name": "D#3",
            "ticks": 101760,
            "time": 126.302336,
            "velocity": 1
          },
          {
            "duration": 0.5109851104166694,
            "durationTicks": 401,
            "midi": 58,
            "name": "A#3",
            "ticks": 101760,
            "time": 126.302336,
            "velocity": 1
          },
          {
            "duration": 1.8005535187500072,
            "durationTicks": 1413,
            "midi": 70,
            "name": "A#4",
            "ticks": 101760,
            "time": 126.302336,
            "velocity": 1
          },
          {
            "duration": 0.5887160124999866,
            "durationTicks": 462,
            "midi": 39,
            "name": "D#2",
            "ticks": 102960,
            "time": 127.8314685,
            "velocity": 1
          },
          {
            "duration": 2.510325854166666,
            "durationTicks": 1970,
            "midi": 32,
            "name": "G#1",
            "ticks": 103440,
            "time": 128.4431215,
            "velocity": 1
          },
          {
            "duration": 2.67088476666666,
            "durationTicks": 2096,
            "midi": 44,
            "name": "G#2",
            "ticks": 103440,
            "time": 128.4431215,
            "velocity": 1
          },
          {
            "duration": 2.67088476666666,
            "durationTicks": 2096,
            "midi": 59,
            "name": "B3",
            "ticks": 103440,
            "time": 128.4431215,
            "velocity": 1
          },
          {
            "duration": 0.44089987083333426,
            "durationTicks": 346,
            "midi": 63,
            "name": "D#4",
            "ticks": 103440,
            "time": 128.4431215,
            "velocity": 1
          },
          {
            "duration": 2.510325854166666,
            "durationTicks": 1970,
            "midi": 66,
            "name": "F#4",
            "ticks": 103440,
            "time": 128.4431215,
            "velocity": 1
          },
          {
            "duration": 0.44089987083333426,
            "durationTicks": 346,
            "midi": 70,
            "name": "A#4",
            "ticks": 103440,
            "time": 128.4431215,
            "velocity": 1
          },
          {
            "duration": 2.069504875000007,
            "durationTicks": 1644,
            "midi": 36,
            "name": "C2",
            "ticks": 105600,
            "time": 131.19556,
            "velocity": 1
          },
          {
            "duration": 2.069504875000007,
            "durationTicks": 1644,
            "midi": 43,
            "name": "G2",
            "ticks": 105600,
            "time": 131.19556,
            "velocity": 1
          },
          {
            "duration": 1.7900461874999962,
            "durationTicks": 1422,
            "midi": 48,
            "name": "C3",
            "ticks": 105600,
            "time": 131.19556,
            "velocity": 1
          },
          {
            "duration": 2.069504875000007,
            "durationTicks": 1644,
            "midi": 51,
            "name": "D#3",
            "ticks": 105600,
            "time": 131.19556,
            "velocity": 1
          },
          {
            "duration": 2.069504875000007,
            "durationTicks": 1644,
            "midi": 58,
            "name": "A#3",
            "ticks": 105600,
            "time": 131.19556,
            "velocity": 1
          },
          {
            "duration": 1.7900461874999962,
            "durationTicks": 1422,
            "midi": 62,
            "name": "D4",
            "ticks": 105600,
            "time": 131.19556,
            "velocity": 1
          },
          {
            "duration": 1.0711673312499954,
            "durationTicks": 831,
            "midi": 41,
            "name": "F2",
            "ticks": 107280,
            "time": 133.3103825,
            "velocity": 1
          },
          {
            "duration": 1.0711673312499954,
            "durationTicks": 831,
            "midi": 51,
            "name": "D#3",
            "ticks": 107280,
            "time": 133.3103825,
            "velocity": 1
          },
          {
            "duration": 1.0711673312499954,
            "durationTicks": 831,
            "midi": 57,
            "name": "A3",
            "ticks": 107280,
            "time": 133.3103825,
            "velocity": 1
          },
          {
            "duration": 1.0711673312499954,
            "durationTicks": 831,
            "midi": 62,
            "name": "D4",
            "ticks": 107280,
            "time": 133.3103825,
            "velocity": 1
          },
          {
            "duration": 1.0711673312499954,
            "durationTicks": 831,
            "midi": 65,
            "name": "F4",
            "ticks": 107280,
            "time": 133.3103825,
            "velocity": 1
          },
          {
            "duration": 0.4879757812499861,
            "durationTicks": 375,
            "midi": 29,
            "name": "F1",
            "ticks": 108240,
            "time": 134.5494135,
            "velocity": 1
          },
          {
            "duration": 0.3617527124999924,
            "durationTicks": 278,
            "midi": 69,
            "name": "A4",
            "ticks": 108600,
            "time": 135.01787025000002,
            "velocity": 1
          },
          {
            "duration": 0.3617527124999924,
            "durationTicks": 278,
            "midi": 81,
            "name": "A5",
            "ticks": 108600,
            "time": 135.01787025000002,
            "velocity": 1
          },
          {
            "duration": 0.3617527124999924,
            "durationTicks": 278,
            "midi": 84,
            "name": "C6",
            "ticks": 108600,
            "time": 135.01787025000002,
            "velocity": 1
          },
          {
            "duration": 0.3617527124999924,
            "durationTicks": 278,
            "midi": 89,
            "name": "F6",
            "ticks": 108600,
            "time": 135.01787025000002,
            "velocity": 1
          },
          {
            "duration": 0.629814075000013,
            "durationTicks": 484,
            "midi": 42,
            "name": "F#2",
            "ticks": 109440,
            "time": 136.110936,
            "velocity": 1
          },
          {
            "duration": 0.9160932000000059,
            "durationTicks": 704,
            "midi": 82,
            "name": "A#5",
            "ticks": 109440,
            "time": 136.110936,
            "velocity": 1
          },
          {
            "duration": 0.3201121124999986,
            "durationTicks": 246,
            "midi": 87,
            "name": "D#6",
            "ticks": 109440,
            "time": 136.110936,
            "velocity": 1
          },
          {
            "duration": 0.30970196249998594,
            "durationTicks": 238,
            "midi": 89,
            "name": "F6",
            "ticks": 109680,
            "time": 136.42324050000002,
            "velocity": 1
          },
          {
            "duration": 1.901807974999997,
            "durationTicks": 1462,
            "midi": 49,
            "name": "C#3",
            "ticks": 109920,
            "time": 136.735545,
            "velocity": 1
          },
          {
            "duration": 0.28497785625000915,
            "durationTicks": 219,
            "midi": 87,
            "name": "D#6",
            "ticks": 109920,
            "time": 136.735545,
            "velocity": 1
          },
          {
            "duration": 0.35784890625001253,
            "durationTicks": 275,
            "midi": 82,
            "name": "A#5",
            "ticks": 110160,
            "time": 137.0478495,
            "velocity": 1
          },
          {
            "duration": 1.2581210374999898,
            "durationTicks": 967,
            "midi": 58,
            "name": "A#3",
            "ticks": 110400,
            "time": 137.36015400000002,
            "velocity": 1
          },
          {
            "duration": 1.2581210374999898,
            "durationTicks": 967,
            "midi": 77,
            "name": "F5",
            "ticks": 110400,
            "time": 137.36015400000002,
            "velocity": 1
          },
          {
            "duration": 1.858440137499997,
            "durationTicks": 1439,
            "midi": 87,
            "name": "D#6",
            "ticks": 110400,
            "time": 137.36015400000002,
            "velocity": 1
          },
          {
            "duration": 1.1968226125,
            "durationTicks": 941,
            "midi": 44,
            "name": "G#2",
            "ticks": 111360,
            "time": 138.609372,
            "velocity": 1
          },
          {
            "duration": 0.6003191000000072,
            "durationTicks": 472,
            "midi": 51,
            "name": "D#3",
            "ticks": 111360,
            "time": 138.609372,
            "velocity": 1
          },
          {
            "duration": 0.5977753749999977,
            "durationTicks": 470,
            "midi": 54,
            "name": "F#3",
            "ticks": 111840,
            "time": 139.219866,
            "velocity": 1
          },
          {
            "duration": 0.29888768750001304,
            "durationTicks": 235,
            "midi": 82,
            "name": "A#5",
            "ticks": 111840,
            "time": 139.219866,
            "velocity": 1
          },
          {
            "duration": 0.29888768750001304,
            "durationTicks": 235,
            "midi": 87,
            "name": "D#6",
            "ticks": 111840,
            "time": 139.219866,
            "velocity": 1
          },
          {
            "duration": 0.29888768750001304,
            "durationTicks": 235,
            "midi": 84,
            "name": "C6",
            "ticks": 112080,
            "time": 139.525113,
            "velocity": 1
          },
          {
            "duration": 0.29888768750001304,
            "durationTicks": 235,
            "midi": 89,
            "name": "F6",
            "ticks": 112080,
            "time": 139.525113,
            "velocity": 1
          },
          {
            "duration": 1.209541237499991,
            "durationTicks": 951,
            "midi": 60,
            "name": "C4",
            "ticks": 112320,
            "time": 139.83036,
            "velocity": 1
          },
          {
            "duration": 0.3077907249999896,
            "durationTicks": 242,
            "midi": 82,
            "name": "A#5",
            "ticks": 112320,
            "time": 139.83036,
            "velocity": 1
          },
          {
            "duration": 0.3077907249999896,
            "durationTicks": 242,
            "midi": 87,
            "name": "D#6",
            "ticks": 112320,
            "time": 139.83036,
            "velocity": 1
          },
          {
            "duration": 0.3077907249999896,
            "durationTicks": 242,
            "midi": 84,
            "name": "C6",
            "ticks": 112560,
            "time": 140.13560700000002,
            "velocity": 1
          },
          {
            "duration": 0.3077907249999896,
            "durationTicks": 242,
            "midi": 89,
            "name": "F6",
            "ticks": 112560,
            "time": 140.13560700000002,
            "velocity": 1
          },
          {
            "duration": 0.30779072500001803,
            "durationTicks": 242,
            "midi": 87,
            "name": "D#6",
            "ticks": 112800,
            "time": 140.440854,
            "velocity": 1
          },
          {
            "duration": 0.30779072500001803,
            "durationTicks": 242,
            "midi": 92,
            "name": "G#6",
            "ticks": 112800,
            "time": 140.440854,
            "velocity": 1
          },
          {
            "duration": 0.2874409249999985,
            "durationTicks": 226,
            "midi": 84,
            "name": "C6",
            "ticks": 113040,
            "time": 140.746101,
            "velocity": 1
          },
          {
            "duration": 0.2874409249999985,
            "durationTicks": 226,
            "midi": 89,
            "name": "F6",
            "ticks": 113040,
            "time": 140.746101,
            "velocity": 1
          },
          {
            "duration": 2.1948995625000123,
            "durationTicks": 1770,
            "midi": 46,
            "name": "A#2",
            "ticks": 113280,
            "time": 141.05134800000002,
            "velocity": 1
          },
          {
            "duration": 0.2889331062499991,
            "durationTicks": 233,
            "midi": 82,
            "name": "A#5",
            "ticks": 113280,
            "time": 141.05134800000002,
            "velocity": 1
          },
          {
            "duration": 0.2889331062499991,
            "durationTicks": 233,
            "midi": 87,
            "name": "D#6",
            "ticks": 113280,
            "time": 141.05134800000002,
            "velocity": 1
          },
          {
            "duration": 0.2914132187499945,
            "durationTicks": 235,
            "midi": 84,
            "name": "C6",
            "ticks": 113520,
            "time": 141.34896150000003,
            "velocity": 1
          },
          {
            "duration": 2.7127585624999995,
            "durationTicks": 2174,
            "midi": 89,
            "name": "F6",
            "ticks": 113520,
            "time": 141.34896150000003,
            "velocity": 1
          },
          {
            "duration": 1.7807207749999918,
            "durationTicks": 1436,
            "midi": 53,
            "name": "F3",
            "ticks": 113760,
            "time": 141.646575,
            "velocity": 1
          },
          {
            "duration": 0.2839728812500084,
            "durationTicks": 229,
            "midi": 82,
            "name": "A#5",
            "ticks": 113760,
            "time": 141.646575,
            "velocity": 1
          },
          {
            "duration": 0.3100140624999881,
            "durationTicks": 250,
            "midi": 77,
            "name": "F5",
            "ticks": 114000,
            "time": 141.94418850000002,
            "velocity": 1
          },
          {
            "duration": 0.3100140624999881,
            "durationTicks": 250,
            "midi": 82,
            "name": "A#5",
            "ticks": 114000,
            "time": 141.94418850000002,
            "velocity": 1
          },
          {
            "duration": 1.1879738875000214,
            "durationTicks": 958,
            "midi": 61,
            "name": "C#4",
            "ticks": 114240,
            "time": 142.241802,
            "velocity": 1
          },
          {
            "duration": 1.8288375937500234,
            "durationTicks": 1461,
            "midi": 80,
            "name": "G#5",
            "ticks": 114240,
            "time": 142.241802,
            "velocity": 1
          },
          {
            "duration": 1.8288375937500234,
            "durationTicks": 1461,
            "midi": 85,
            "name": "C#6",
            "ticks": 114240,
            "time": 142.241802,
            "velocity": 1
          },
          {
            "duration": 0.6294640625000056,
            "durationTicks": 494,
            "midi": 46,
            "name": "A#2",
            "ticks": 115200,
            "time": 143.43225600000002,
            "velocity": 1
          },
          {
            "duration": 0.6205445312500046,
            "durationTicks": 487,
            "midi": 58,
            "name": "A#3",
            "ticks": 115680,
            "time": 144.04388100000003,
            "velocity": 1
          },
          {
            "duration": 1.2296210937499836,
            "durationTicks": 965,
            "midi": 65,
            "name": "F4",
            "ticks": 115680,
            "time": 144.04388100000003,
            "velocity": 1
          },
          {
            "duration": 0.6205445312500046,
            "durationTicks": 487,
            "midi": 85,
            "name": "C#6",
            "ticks": 115680,
            "time": 144.04388100000003,
            "velocity": 1
          },
          {
            "duration": 0.6205445312500046,
            "durationTicks": 487,
            "midi": 89,
            "name": "F6",
            "ticks": 115680,
            "time": 144.04388100000003,
            "velocity": 1
          },
          {
            "duration": 0.6001570312500064,
            "durationTicks": 471,
            "midi": 56,
            "name": "G#3",
            "ticks": 116160,
            "time": 144.65550600000003,
            "velocity": 1
          },
          {
            "duration": 0.3312968749999925,
            "durationTicks": 260,
            "midi": 84,
            "name": "C6",
            "ticks": 116160,
            "time": 144.65550600000003,
            "velocity": 1
          },
          {
            "duration": 0.2599406249999845,
            "durationTicks": 204,
            "midi": 92,
            "name": "G#6",
            "ticks": 116400,
            "time": 144.96131850000003,
            "velocity": 1
          },
          {
            "duration": 0.5619304687500062,
            "durationTicks": 441,
            "midi": 42,
            "name": "F#2",
            "ticks": 117120,
            "time": 145.878756,
            "velocity": 1
          },
          {
            "duration": 0.5619304687500062,
            "durationTicks": 441,
            "midi": 82,
            "name": "A#5",
            "ticks": 117120,
            "time": 145.878756,
            "velocity": 1
          },
          {
            "duration": 0.27140859375001014,
            "durationTicks": 213,
            "midi": 87,
            "name": "D#6",
            "ticks": 117120,
            "time": 145.878756,
            "velocity": 1
          },
          {
            "duration": 0.5670273437499986,
            "durationTicks": 445,
            "midi": 89,
            "name": "F6",
            "ticks": 117360,
            "time": 146.1845685,
            "velocity": 1
          },
          {
            "duration": 1.8597999166666739,
            "durationTicks": 1460,
            "midi": 49,
            "name": "C#3",
            "ticks": 117600,
            "time": 146.490381,
            "velocity": 1
          },
          {
            "duration": 0.621818750000017,
            "durationTicks": 488,
            "midi": 87,
            "name": "D#6",
            "ticks": 117600,
            "time": 146.490381,
            "velocity": 1
          },
          {
            "duration": 2.1546779083333547,
            "durationTicks": 1702,
            "midi": 82,
            "name": "A#5",
            "ticks": 117840,
            "time": 146.79619350000002,
            "velocity": 1
          },
          {
            "duration": 1.226988737499994,
            "durationTicks": 963,
            "midi": 58,
            "name": "A#3",
            "ticks": 118080,
            "time": 147.10200600000002,
            "velocity": 1
          },
          {
            "duration": 0.23445624999999382,
            "durationTicks": 184,
            "midi": 77,
            "name": "F5",
            "ticks": 118080,
            "time": 147.10200600000002,
            "velocity": 1
          },
          {
            "duration": 1.8077392958333292,
            "durationTicks": 1429,
            "midi": 87,
            "name": "D#6",
            "ticks": 118080,
            "time": 147.10200600000002,
            "velocity": 1
          },
          {
            "duration": 2.3790832958333397,
            "durationTicks": 1909,
            "midi": 44,
            "name": "G#2",
            "ticks": 119040,
            "time": 148.32525600000002,
            "velocity": 1
          },
          {
            "duration": 0.5720268375000046,
            "durationTicks": 459,
            "midi": 51,
            "name": "D#3",
            "ticks": 119040,
            "time": 148.32525600000002,
            "velocity": 1
          },
          {
            "duration": 1.8006223229166665,
            "durationTicks": 1445,
            "midi": 54,
            "name": "F#3",
            "ticks": 119520,
            "time": 148.92345400000002,
            "velocity": 1
          },
          {
            "duration": 0.2704353458333344,
            "durationTicks": 217,
            "midi": 82,
            "name": "A#5",
            "ticks": 119520,
            "time": 148.92345400000002,
            "velocity": 1
          },
          {
            "duration": 0.2704353458333344,
            "durationTicks": 217,
            "midi": 87,
            "name": "D#6",
            "ticks": 119520,
            "time": 148.92345400000002,
            "velocity": 1
          },
          {
            "duration": 0.3103152125000008,
            "durationTicks": 249,
            "midi": 84,
            "name": "C6",
            "ticks": 119760,
            "time": 149.22255300000003,
            "velocity": 1
          },
          {
            "duration": 0.5981979999999965,
            "durationTicks": 480,
            "midi": 89,
            "name": "F6",
            "ticks": 119760,
            "time": 149.22255300000003,
            "velocity": 1
          },
          {
            "duration": 1.2096583104166712,
            "durationTicks": 971,
            "midi": 60,
            "name": "C4",
            "ticks": 120000,
            "time": 149.52165200000002,
            "velocity": 1
          },
          {
            "duration": 1.2096583104166712,
            "durationTicks": 971,
            "midi": 82,
            "name": "A#5",
            "ticks": 120000,
            "time": 149.52165200000002,
            "velocity": 1
          },
          {
            "duration": 0.6106604583333421,
            "durationTicks": 490,
            "midi": 87,
            "name": "D#6",
            "ticks": 120000,
            "time": 149.52165200000002,
            "velocity": 1
          },
          {
            "duration": 0.6306003916666612,
            "durationTicks": 506,
            "midi": 84,
            "name": "C6",
            "ticks": 120240,
            "time": 149.82075100000003,
            "velocity": 1
          },
          {
            "duration": 0.5981979999999965,
            "durationTicks": 480,
            "midi": 89,
            "name": "F6",
            "ticks": 120240,
            "time": 149.82075100000003,
            "velocity": 1
          },
          {
            "duration": 0.5907205250000231,
            "durationTicks": 474,
            "midi": 87,
            "name": "D#6",
            "ticks": 120480,
            "time": 150.11985,
            "velocity": 1
          },
          {
            "duration": 0.5981979999999965,
            "durationTicks": 480,
            "midi": 92,
            "name": "G#6",
            "ticks": 120480,
            "time": 150.11985,
            "velocity": 1
          },
          {
            "duration": 0.2804053124999939,
            "durationTicks": 225,
            "midi": 84,
            "name": "C6",
            "ticks": 120720,
            "time": 150.41894900000003,
            "velocity": 1
          },
          {
            "duration": 0.30994998124998574,
            "durationTicks": 249,
            "midi": 89,
            "name": "F6",
            "ticks": 120720,
            "time": 150.41894900000003,
            "velocity": 1
          },
          {
            "duration": 3.4631929624999884,
            "durationTicks": 2853,
            "midi": 46,
            "name": "A#2",
            "ticks": 120960,
            "time": 150.718048,
            "velocity": 1
          },
          {
            "duration": 0.5401377333333244,
            "durationTicks": 448,
            "midi": 82,
            "name": "A#5",
            "ticks": 120960,
            "time": 150.718048,
            "velocity": 1
          },
          {
            "duration": 0.2676575375000141,
            "durationTicks": 222,
            "midi": 87,
            "name": "D#6",
            "ticks": 120960,
            "time": 150.718048,
            "velocity": 1
          },
          {
            "duration": 0.5365207395833522,
            "durationTicks": 445,
            "midi": 84,
            "name": "C6",
            "ticks": 121200,
            "time": 151.0074075,
            "velocity": 1
          },
          {
            "duration": 0.5365207395833522,
            "durationTicks": 445,
            "midi": 89,
            "name": "F6",
            "ticks": 121200,
            "time": 151.0074075,
            "velocity": 1
          },
          {
            "duration": 2.9140126624999994,
            "durationTicks": 2397,
            "midi": 53,
            "name": "F3",
            "ticks": 121440,
            "time": 151.29676700000002,
            "velocity": 1
          },
          {
            "duration": 0.2845368416666645,
            "durationTicks": 236,
            "midi": 82,
            "name": "A#5",
            "ticks": 121440,
            "time": 151.29676700000002,
            "velocity": 1
          },
          {
            "duration": 0.24474991041665817,
            "durationTicks": 203,
            "midi": 87,
            "name": "D#6",
            "ticks": 121440,
            "time": 151.29676700000002,
            "velocity": 1
          },
          {
            "duration": 0.32311810833334675,
            "durationTicks": 268,
            "midi": 80,
            "name": "G#5",
            "ticks": 121680,
            "time": 151.5861265,
            "velocity": 1
          },
          {
            "duration": 0.32311810833334675,
            "durationTicks": 268,
            "midi": 85,
            "name": "C#6",
            "ticks": 121680,
            "time": 151.5861265,
            "velocity": 1
          },
          {
            "duration": 2.305754962499975,
            "durationTicks": 1893,
            "midi": 61,
            "name": "C#4",
            "ticks": 121920,
            "time": 151.87548600000002,
            "velocity": 1
          },
          {
            "duration": 1.6559035624999865,
            "durationTicks": 1365,
            "midi": 77,
            "name": "F5",
            "ticks": 121920,
            "time": 151.87548600000002,
            "velocity": 1
          },
          {
            "duration": 1.1562323354166608,
            "durationTicks": 959,
            "midi": 82,
            "name": "A#5",
            "ticks": 121920,
            "time": 151.87548600000002,
            "velocity": 1
          },
          {
            "duration": 0.2793868708333207,
            "durationTicks": 227,
            "midi": 87,
            "name": "D#6",
            "ticks": 122880,
            "time": 153.032924,
            "velocity": 1
          },
          {
            "duration": 0.3003101166666511,
            "durationTicks": 244,
            "midi": 84,
            "name": "C6",
            "ticks": 123120,
            "time": 153.328311,
            "velocity": 1
          },
          {
            "duration": 0.2916946624999923,
            "durationTicks": 237,
            "midi": 85,
            "name": "C#6",
            "ticks": 123360,
            "time": 153.62369800000002,
            "velocity": 1
          },
          {
            "duration": 0.2806176500000106,
            "durationTicks": 228,
            "midi": 77,
            "name": "F5",
            "ticks": 123600,
            "time": 153.919085,
            "velocity": 1
          },
          {
            "duration": 1.2504716333333477,
            "durationTicks": 1016,
            "midi": 44,
            "name": "G#2",
            "ticks": 123840,
            "time": 154.214472,
            "velocity": 1
          },
          {
            "duration": 1.2504716333333477,
            "durationTicks": 1016,
            "midi": 48,
            "name": "C3",
            "ticks": 123840,
            "time": 154.214472,
            "velocity": 1
          },
          {
            "duration": 1.2504716333333477,
            "durationTicks": 1016,
            "midi": 53,
            "name": "F3",
            "ticks": 123840,
            "time": 154.214472,
            "velocity": 1
          },
          {
            "duration": 0.3003101166666795,
            "durationTicks": 244,
            "midi": 75,
            "name": "D#5",
            "ticks": 123840,
            "time": 154.214472,
            "velocity": 1
          },
          {
            "duration": 0.29046388333333084,
            "durationTicks": 236,
            "midi": 72,
            "name": "C5",
            "ticks": 124080,
            "time": 154.509859,
            "velocity": 1
          },
          {
            "duration": 0.30892557083333827,
            "durationTicks": 251,
            "midi": 73,
            "name": "C#5",
            "ticks": 124320,
            "time": 154.805246,
            "velocity": 1
          },
          {
            "duration": 0.34954128333333756,
            "durationTicks": 284,
            "midi": 84,
            "name": "C6",
            "ticks": 124560,
            "time": 155.10063300000002,
            "velocity": 1
          },
          {
            "duration": 0.5403120541666624,
            "durationTicks": 439,
            "midi": 42,
            "name": "F#2",
            "ticks": 124800,
            "time": 155.39602000000002,
            "velocity": 1
          },
          {
            "duration": 0.8147758083333088,
            "durationTicks": 662,
            "midi": 70,
            "name": "A#4",
            "ticks": 124800,
            "time": 155.39602000000002,
            "velocity": 1
          },
          {
            "duration": 0.27077141666666193,
            "durationTicks": 220,
            "midi": 75,
            "name": "D#5",
            "ticks": 124800,
            "time": 155.39602000000002,
            "velocity": 1
          },
          {
            "duration": 0.2609251833333417,
            "durationTicks": 212,
            "midi": 77,
            "name": "F5",
            "ticks": 125040,
            "time": 155.691407,
            "velocity": 1
          },
          {
            "duration": 1.8137789374999898,
            "durationTicks": 1473,
            "midi": 49,
            "name": "C#3",
            "ticks": 125280,
            "time": 155.986794,
            "velocity": 1
          },
          {
            "duration": 0.5784662083333387,
            "durationTicks": 470,
            "midi": 75,
            "name": "D#5",
            "ticks": 125280,
            "time": 155.986794,
            "velocity": 1
          },
          {
            "duration": 0.3052332333333254,
            "durationTicks": 248,
            "midi": 70,
            "name": "A#4",
            "ticks": 125520,
            "time": 156.282181,
            "velocity": 1
          },
          {
            "duration": 1.2255174791666548,
            "durationTicks": 995,
            "midi": 58,
            "name": "A#3",
            "ticks": 125760,
            "time": 156.577568,
            "velocity": 1
          },
          {
            "duration": 1.2255174791666548,
            "durationTicks": 995,
            "midi": 65,
            "name": "F4",
            "ticks": 125760,
            "time": 156.577568,
            "velocity": 1
          },
          {
            "duration": 1.8360651041666642,
            "durationTicks": 1481,
            "midi": 75,
            "name": "D#5",
            "ticks": 125760,
            "time": 156.577568,
            "velocity": 1
          },
          {
            "duration": 2.3391762916666607,
            "durationTicks": 1862,
            "midi": 44,
            "name": "G#2",
            "ticks": 126720,
            "time": 157.759116,
            "velocity": 1
          },
          {
            "duration": 0.6017537291666599,
            "durationTicks": 479,
            "midi": 51,
            "name": "D#3",
            "ticks": 126720,
            "time": 157.759116,
            "velocity": 1
          },
          {
            "duration": 1.7248598541666524,
            "durationTicks": 1373,
            "midi": 54,
            "name": "F#3",
            "ticks": 127200,
            "time": 158.36212600000002,
            "velocity": 1
          },
          {
            "duration": 0.2675856875000022,
            "durationTicks": 213,
            "midi": 70,
            "name": "A#4",
            "ticks": 127200,
            "time": 158.36212600000002,
            "velocity": 1
          },
          {
            "duration": 0.2675856875000022,
            "durationTicks": 213,
            "midi": 75,
            "name": "D#5",
            "ticks": 127200,
            "time": 158.36212600000002,
            "velocity": 1
          },
          {
            "duration": 0.27763585416667524,
            "durationTicks": 221,
            "midi": 72,
            "name": "C5",
            "ticks": 127440,
            "time": 158.663631,
            "velocity": 1
          },
          {
            "duration": 0.27763585416667524,
            "durationTicks": 221,
            "midi": 77,
            "name": "F5",
            "ticks": 127440,
            "time": 158.663631,
            "velocity": 1
          },
          {
            "duration": 0.8869272083333328,
            "durationTicks": 706,
            "midi": 60,
            "name": "C4",
            "ticks": 127680,
            "time": 158.965136,
            "velocity": 1
          },
          {
            "duration": 0.2788921249999987,
            "durationTicks": 222,
            "midi": 70,
            "name": "A#4",
            "ticks": 127680,
            "time": 158.965136,
            "velocity": 1
          },
          {
            "duration": 0.2788921249999987,
            "durationTicks": 222,
            "midi": 75,
            "name": "D#5",
            "ticks": 127680,
            "time": 158.965136,
            "velocity": 1
          },
          {
            "duration": 0.28894229166667174,
            "durationTicks": 230,
            "midi": 72,
            "name": "C5",
            "ticks": 127920,
            "time": 159.266641,
            "velocity": 1
          },
          {
            "duration": 0.28894229166667174,
            "durationTicks": 230,
            "midi": 77,
            "name": "F5",
            "ticks": 127920,
            "time": 159.266641,
            "velocity": 1
          },
          {
            "duration": 0.29773618749999287,
            "durationTicks": 237,
            "midi": 75,
            "name": "D#5",
            "ticks": 128160,
            "time": 159.568146,
            "velocity": 1
          },
          {
            "duration": 0.5678344166666704,
            "durationTicks": 452,
            "midi": 80,
            "name": "G#5",
            "ticks": 128160,
            "time": 159.568146,
            "velocity": 1
          },
          {
            "duration": 0.2587917916666811,
            "durationTicks": 206,
            "midi": 72,
            "name": "C5",
            "ticks": 128400,
            "time": 159.869651,
            "velocity": 1
          },
          {
            "duration": 0.2587917916666811,
            "durationTicks": 206,
            "midi": 77,
            "name": "F5",
            "ticks": 128400,
            "time": 159.869651,
            "velocity": 1
          },
          {
            "duration": 2.340317450000015,
            "durationTicks": 1924,
            "midi": 46,
            "name": "A#2",
            "ticks": 128640,
            "time": 160.171156,
            "velocity": 1
          },
          {
            "duration": 0.2590679062500101,
            "durationTicks": 213,
            "midi": 70,
            "name": "A#4",
            "ticks": 128640,
            "time": 160.171156,
            "velocity": 1
          },
          {
            "duration": 0.2590679062500101,
            "durationTicks": 213,
            "midi": 75,
            "name": "D#5",
            "ticks": 128640,
            "time": 160.171156,
            "velocity": 1
          },
          {
            "duration": 0.2882586562499796,
            "durationTicks": 237,
            "midi": 72,
            "name": "C5",
            "ticks": 128880,
            "time": 160.4630635,
            "velocity": 1
          },
          {
            "duration": 0.2882586562499796,
            "durationTicks": 237,
            "midi": 77,
            "name": "F5",
            "ticks": 128880,
            "time": 160.4630635,
            "velocity": 1
          },
          {
            "duration": 2.3317873875000146,
            "durationTicks": 1899,
            "midi": 53,
            "name": "F3",
            "ticks": 129120,
            "time": 160.75497099999998,
            "velocity": 1
          },
          {
            "duration": 0.2785284062500182,
            "durationTicks": 229,
            "midi": 70,
            "name": "A#4",
            "ticks": 129120,
            "time": 160.75497099999998,
            "velocity": 1
          },
          {
            "duration": 0.2785284062500182,
            "durationTicks": 229,
            "midi": 75,
            "name": "D#5",
            "ticks": 129120,
            "time": 160.75497099999998,
            "velocity": 1
          },
          {
            "duration": 0.2967726250000169,
            "durationTicks": 244,
            "midi": 65,
            "name": "F4",
            "ticks": 129360,
            "time": 161.0468785,
            "velocity": 1
          },
          {
            "duration": 0.2967726250000169,
            "durationTicks": 244,
            "midi": 70,
            "name": "A#4",
            "ticks": 129360,
            "time": 161.0468785,
            "velocity": 1
          },
          {
            "duration": 1.7454436625000085,
            "durationTicks": 1417,
            "midi": 61,
            "name": "C#4",
            "ticks": 129600,
            "time": 161.338786,
            "velocity": 1
          },
          {
            "duration": 1.7454436625000085,
            "durationTicks": 1417,
            "midi": 68,
            "name": "G#4",
            "ticks": 129600,
            "time": 161.338786,
            "velocity": 1
          },
          {
            "duration": 1.7454436625000085,
            "durationTicks": 1417,
            "midi": 73,
            "name": "C#5",
            "ticks": 129600,
            "time": 161.338786,
            "velocity": 1
          },
          {
            "duration": 0.5499976874999959,
            "durationTicks": 435,
            "midi": 46,
            "name": "A#2",
            "ticks": 130560,
            "time": 162.506416,
            "velocity": 1
          },
          {
            "duration": 0.661261587499979,
            "durationTicks": 523,
            "midi": 58,
            "name": "A#3",
            "ticks": 131040,
            "time": 163.11331,
            "velocity": 1
          },
          {
            "duration": 0.6435605124999881,
            "durationTicks": 509,
            "midi": 65,
            "name": "F4",
            "ticks": 131040,
            "time": 163.11331,
            "velocity": 1
          },
          {
            "duration": 0.661261587499979,
            "durationTicks": 523,
            "midi": 73,
            "name": "C#5",
            "ticks": 131040,
            "time": 163.11331,
            "velocity": 1
          },
          {
            "duration": 0.6435605124999881,
            "durationTicks": 509,
            "midi": 77,
            "name": "F5",
            "ticks": 131040,
            "time": 163.11331,
            "velocity": 1
          },
          {
            "duration": 0.6435605124999881,
            "durationTicks": 509,
            "midi": 85,
            "name": "C#6",
            "ticks": 131040,
            "time": 163.11331,
            "velocity": 1
          },
          {
            "duration": 1.2049374624999984,
            "durationTicks": 953,
            "midi": 56,
            "name": "G#3",
            "ticks": 131520,
            "time": 163.720204,
            "velocity": 1
          },
          {
            "duration": 1.2049374624999984,
            "durationTicks": 953,
            "midi": 65,
            "name": "F4",
            "ticks": 131520,
            "time": 163.720204,
            "velocity": 1
          },
          {
            "duration": 1.2049374624999984,
            "durationTicks": 953,
            "midi": 72,
            "name": "C5",
            "ticks": 131520,
            "time": 163.720204,
            "velocity": 1
          },
          {
            "duration": 0.28068847500000516,
            "durationTicks": 222,
            "midi": 84,
            "name": "C6",
            "ticks": 131520,
            "time": 163.720204,
            "velocity": 1
          },
          {
            "duration": 0.3110331750000057,
            "durationTicks": 246,
            "midi": 80,
            "name": "G#5",
            "ticks": 131760,
            "time": 164.023651,
            "velocity": 1
          },
          {
            "duration": 0.5929860125000062,
            "durationTicks": 469,
            "midi": 77,
            "name": "F5",
            "ticks": 132000,
            "time": 164.327098,
            "velocity": 1
          },
          {
            "duration": 0.5801391458333285,
            "durationTicks": 446,
            "midi": 55,
            "name": "G3",
            "ticks": 132480,
            "time": 164.933992,
            "velocity": 1
          },
          {
            "duration": 0.5801391458333285,
            "durationTicks": 446,
            "midi": 58,
            "name": "A#3",
            "ticks": 132480,
            "time": 164.933992,
            "velocity": 1
          },
          {
            "duration": 0.5801391458333285,
            "durationTicks": 446,
            "midi": 63,
            "name": "D#4",
            "ticks": 132480,
            "time": 164.933992,
            "velocity": 1
          },
          {
            "duration": 0.7739524479166562,
            "durationTicks": 595,
            "midi": 70,
            "name": "A#4",
            "ticks": 132480,
            "time": 164.933992,
            "velocity": 1
          },
          {
            "duration": 0.2887688124999954,
            "durationTicks": 222,
            "midi": 75,
            "name": "D#5",
            "ticks": 132480,
            "time": 164.933992,
            "velocity": 1
          },
          {
            "duration": 0.29137033333333306,
            "durationTicks": 224,
            "midi": 77,
            "name": "F5",
            "ticks": 132720,
            "time": 165.2461745,
            "velocity": 1
          },
          {
            "duration": 0.5606277395833104,
            "durationTicks": 431,
            "midi": 55,
            "name": "G3",
            "ticks": 132960,
            "time": 165.558357,
            "velocity": 1
          },
          {
            "duration": 0.5606277395833104,
            "durationTicks": 431,
            "midi": 58,
            "name": "A#3",
            "ticks": 132960,
            "time": 165.558357,
            "velocity": 1
          },
          {
            "duration": 0.5606277395833104,
            "durationTicks": 431,
            "midi": 63,
            "name": "D#4",
            "ticks": 132960,
            "time": 165.558357,
            "velocity": 1
          },
          {
            "duration": 0.29657337499997993,
            "durationTicks": 228,
            "midi": 75,
            "name": "D#5",
            "ticks": 132960,
            "time": 165.558357,
            "velocity": 1
          },
          {
            "duration": 0.26535512500001346,
            "durationTicks": 204,
            "midi": 70,
            "name": "A#4",
            "ticks": 133200,
            "time": 165.87053949999998,
            "velocity": 1
          },
          {
            "duration": 0.7531402812500119,
            "durationTicks": 579,
            "midi": 55,
            "name": "G3",
            "ticks": 133440,
            "time": 166.18272199999998,
            "velocity": 1
          },
          {
            "duration": 0.7531402812500119,
            "durationTicks": 579,
            "midi": 58,
            "name": "A#3",
            "ticks": 133440,
            "time": 166.18272199999998,
            "velocity": 1
          },
          {
            "duration": 0.7531402812500119,
            "durationTicks": 579,
            "midi": 63,
            "name": "D#4",
            "ticks": 133440,
            "time": 166.18272199999998,
            "velocity": 1
          },
          {
            "duration": 1.912938789583336,
            "durationTicks": 1481,
            "midi": 75,
            "name": "D#5",
            "ticks": 133440,
            "time": 166.18272199999998,
            "velocity": 1
          },
          {
            "duration": 0.6097846437499754,
            "durationTicks": 471,
            "midi": 55,
            "name": "G3",
            "ticks": 134040,
            "time": 166.96317825,
            "velocity": 1
          },
          {
            "duration": 0.6097846437499754,
            "durationTicks": 471,
            "midi": 58,
            "name": "A#3",
            "ticks": 134040,
            "time": 166.96317825,
            "velocity": 1
          },
          {
            "duration": 0.6097846437499754,
            "durationTicks": 471,
            "midi": 63,
            "name": "D#4",
            "ticks": 134040,
            "time": 166.96317825,
            "velocity": 1
          },
          {
            "duration": 0.5290722604166547,
            "durationTicks": 415,
            "midi": 54,
            "name": "F#3",
            "ticks": 134520,
            "time": 167.58443674999998,
            "velocity": 1
          },
          {
            "duration": 0.5290722604166547,
            "durationTicks": 415,
            "midi": 56,
            "name": "G#3",
            "ticks": 134520,
            "time": 167.58443674999998,
            "velocity": 1
          },
          {
            "duration": 0.5290722604166547,
            "durationTicks": 415,
            "midi": 60,
            "name": "C4",
            "ticks": 134520,
            "time": 167.58443674999998,
            "velocity": 1
          },
          {
            "duration": 0.5290722604166547,
            "durationTicks": 415,
            "midi": 63,
            "name": "D#4",
            "ticks": 134520,
            "time": 167.58443674999998,
            "velocity": 1
          },
          {
            "duration": 0.5979153979166654,
            "durationTicks": 469,
            "midi": 54,
            "name": "F#3",
            "ticks": 134880,
            "time": 168.04339099999999,
            "velocity": 1
          },
          {
            "duration": 0.5979153979166654,
            "durationTicks": 469,
            "midi": 56,
            "name": "G#3",
            "ticks": 134880,
            "time": 168.04339099999999,
            "velocity": 1
          },
          {
            "duration": 0.5979153979166654,
            "durationTicks": 469,
            "midi": 60,
            "name": "C4",
            "ticks": 134880,
            "time": 168.04339099999999,
            "velocity": 1
          },
          {
            "duration": 0.5979153979166654,
            "durationTicks": 469,
            "midi": 63,
            "name": "D#4",
            "ticks": 134880,
            "time": 168.04339099999999,
            "velocity": 1
          },
          {
            "duration": 0.2944956437499968,
            "durationTicks": 231,
            "midi": 70,
            "name": "A#4",
            "ticks": 134880,
            "time": 168.04339099999999,
            "velocity": 1
          },
          {
            "duration": 0.2944956437499968,
            "durationTicks": 231,
            "midi": 75,
            "name": "D#5",
            "ticks": 134880,
            "time": 168.04339099999999,
            "velocity": 1
          },
          {
            "duration": 0.6106641270833109,
            "durationTicks": 479,
            "midi": 72,
            "name": "C5",
            "ticks": 135120,
            "time": 168.3493605,
            "velocity": 1
          },
          {
            "duration": 0.2957705166666642,
            "durationTicks": 232,
            "midi": 77,
            "name": "F5",
            "ticks": 135120,
            "time": 168.3493605,
            "velocity": 1
          },
          {
            "duration": 0.6081143812499761,
            "durationTicks": 477,
            "midi": 54,
            "name": "F#3",
            "ticks": 135360,
            "time": 168.65533,
            "velocity": 1
          },
          {
            "duration": 0.6081143812499761,
            "durationTicks": 477,
            "midi": 56,
            "name": "G#3",
            "ticks": 135360,
            "time": 168.65533,
            "velocity": 1
          },
          {
            "duration": 0.6081143812499761,
            "durationTicks": 477,
            "midi": 60,
            "name": "C4",
            "ticks": 135360,
            "time": 168.65533,
            "velocity": 1
          },
          {
            "duration": 0.6081143812499761,
            "durationTicks": 477,
            "midi": 63,
            "name": "D#4",
            "ticks": 135360,
            "time": 168.65533,
            "velocity": 1
          },
          {
            "duration": 0.3046946270833075,
            "durationTicks": 239,
            "midi": 75,
            "name": "D#5",
            "ticks": 135360,
            "time": 168.65533,
            "velocity": 1
          },
          {
            "duration": 0.5877164145833547,
            "durationTicks": 461,
            "midi": 72,
            "name": "C5",
            "ticks": 135599,
            "time": 168.9600246270833,
            "velocity": 1
          },
          {
            "duration": 0.29449564375002524,
            "durationTicks": 231,
            "midi": 77,
            "name": "F5",
            "ticks": 135599,
            "time": 168.9600246270833,
            "velocity": 1
          },
          {
            "duration": 0.5775174312500155,
            "durationTicks": 453,
            "midi": 54,
            "name": "F#3",
            "ticks": 135840,
            "time": 169.26726899999997,
            "velocity": 1
          },
          {
            "duration": 0.5775174312500155,
            "durationTicks": 453,
            "midi": 56,
            "name": "G#3",
            "ticks": 135840,
            "time": 169.26726899999997,
            "velocity": 1
          },
          {
            "duration": 0.5775174312500155,
            "durationTicks": 453,
            "midi": 60,
            "name": "C4",
            "ticks": 135840,
            "time": 169.26726899999997,
            "velocity": 1
          },
          {
            "duration": 0.5775174312500155,
            "durationTicks": 453,
            "midi": 63,
            "name": "D#4",
            "ticks": 135840,
            "time": 169.26726899999997,
            "velocity": 1
          },
          {
            "duration": 0.28047204166668394,
            "durationTicks": 220,
            "midi": 75,
            "name": "D#5",
            "ticks": 135840,
            "time": 169.26726899999997,
            "velocity": 1
          },
          {
            "duration": 0.5775174312500155,
            "durationTicks": 453,
            "midi": 80,
            "name": "G#5",
            "ticks": 135840,
            "time": 169.26726899999997,
            "velocity": 1
          },
          {
            "duration": 0.2830217875000187,
            "durationTicks": 222,
            "midi": 72,
            "name": "C5",
            "ticks": 136080,
            "time": 169.57323849999997,
            "velocity": 1
          },
          {
            "duration": 0.2830217875000187,
            "durationTicks": 222,
            "midi": 77,
            "name": "F5",
            "ticks": 136080,
            "time": 169.57323849999997,
            "velocity": 1
          },
          {
            "duration": 0.5796146250000049,
            "durationTicks": 477,
            "midi": 53,
            "name": "F3",
            "ticks": 136320,
            "time": 169.87920799999998,
            "velocity": 1
          },
          {
            "duration": 0.5796146250000049,
            "durationTicks": 477,
            "midi": 56,
            "name": "G#3",
            "ticks": 136320,
            "time": 169.87920799999998,
            "velocity": 1
          },
          {
            "duration": 0.5796146250000049,
            "durationTicks": 477,
            "midi": 60,
            "name": "C4",
            "ticks": 136320,
            "time": 169.87920799999998,
            "velocity": 1
          },
          {
            "duration": 0.5796146250000049,
            "durationTicks": 477,
            "midi": 61,
            "name": "C#4",
            "ticks": 136320,
            "time": 169.87920799999998,
            "velocity": 1
          },
          {
            "duration": 0.0789831250000077,
            "durationTicks": 65,
            "midi": 65,
            "name": "F4",
            "ticks": 136320,
            "time": 169.87920799999998,
            "velocity": 1
          },
          {
            "duration": 0.5796146250000049,
            "durationTicks": 477,
            "midi": 70,
            "name": "A#4",
            "ticks": 136320,
            "time": 169.87920799999998,
            "velocity": 1
          },
          {
            "duration": 0.5796146250000049,
            "durationTicks": 477,
            "midi": 75,
            "name": "D#5",
            "ticks": 136320,
            "time": 169.87920799999998,
            "velocity": 1
          },
          {
            "duration": 0.8724597499999902,
            "durationTicks": 718,
            "midi": 72,
            "name": "C5",
            "ticks": 136560,
            "time": 170.17083799999997,
            "velocity": 1
          },
          {
            "duration": 0.8724597499999902,
            "durationTicks": 718,
            "midi": 77,
            "name": "F5",
            "ticks": 136560,
            "time": 170.17083799999997,
            "velocity": 1
          },
          {
            "duration": 0.5929810000000089,
            "durationTicks": 488,
            "midi": 53,
            "name": "F3",
            "ticks": 136800,
            "time": 170.46246799999997,
            "velocity": 1
          },
          {
            "duration": 0.5929810000000089,
            "durationTicks": 488,
            "midi": 56,
            "name": "G#3",
            "ticks": 136800,
            "time": 170.46246799999997,
            "velocity": 1
          },
          {
            "duration": 0.5929810000000089,
            "durationTicks": 488,
            "midi": 60,
            "name": "C4",
            "ticks": 136800,
            "time": 170.46246799999997,
            "velocity": 1
          },
          {
            "duration": 0.5735390000000109,
            "durationTicks": 472,
            "midi": 61,
            "name": "C#4",
            "ticks": 136800,
            "time": 170.46246799999997,
            "velocity": 1
          },
          {
            "duration": 0.5735390000000109,
            "durationTicks": 472,
            "midi": 70,
            "name": "A#4",
            "ticks": 136800,
            "time": 170.46246799999997,
            "velocity": 1
          },
          {
            "duration": 0.5929810000000089,
            "durationTicks": 488,
            "midi": 75,
            "name": "D#5",
            "ticks": 136800,
            "time": 170.46246799999997,
            "velocity": 1
          },
          {
            "duration": 0.3062115000000176,
            "durationTicks": 252,
            "midi": 68,
            "name": "G#4",
            "ticks": 137040,
            "time": 170.75409799999997,
            "velocity": 1
          },
          {
            "duration": 0.3062115000000176,
            "durationTicks": 252,
            "midi": 73,
            "name": "C#5",
            "ticks": 137040,
            "time": 170.75409799999997,
            "velocity": 1
          },
          {
            "duration": 0.6112078750000194,
            "durationTicks": 503,
            "midi": 51,
            "name": "D#3",
            "ticks": 137280,
            "time": 171.04572799999997,
            "velocity": 1
          },
          {
            "duration": 0.6112078750000194,
            "durationTicks": 503,
            "midi": 55,
            "name": "G3",
            "ticks": 137280,
            "time": 171.04572799999997,
            "velocity": 1
          },
          {
            "duration": 0.6112078750000194,
            "durationTicks": 503,
            "midi": 58,
            "name": "A#3",
            "ticks": 137280,
            "time": 171.04572799999997,
            "velocity": 1
          },
          {
            "duration": 0.01944199999999796,
            "durationTicks": 16,
            "midi": 61,
            "name": "C#4",
            "ticks": 137280,
            "time": 171.04572799999997,
            "velocity": 1
          },
          {
            "duration": 1.1932881312500285,
            "durationTicks": 981,
            "midi": 67,
            "name": "G4",
            "ticks": 137280,
            "time": 171.04572799999997,
            "velocity": 1
          },
          {
            "duration": 1.1932881312500285,
            "durationTicks": 981,
            "midi": 70,
            "name": "A#4",
            "ticks": 137280,
            "time": 171.04572799999997,
            "velocity": 1
          },
          {
            "duration": 0.5808297500000208,
            "durationTicks": 478,
            "midi": 51,
            "name": "D#3",
            "ticks": 137760,
            "time": 171.62898799999996,
            "velocity": 1
          },
          {
            "duration": 0.5808297500000208,
            "durationTicks": 478,
            "midi": 55,
            "name": "G3",
            "ticks": 137760,
            "time": 171.62898799999996,
            "velocity": 1
          },
          {
            "duration": 0.5808297500000208,
            "durationTicks": 478,
            "midi": 58,
            "name": "A#3",
            "ticks": 137760,
            "time": 171.62898799999996,
            "velocity": 1
          },
          {
            "duration": 0.5808297500000208,
            "durationTicks": 478,
            "midi": 61,
            "name": "C#4",
            "ticks": 137760,
            "time": 171.62898799999996,
            "velocity": 1
          },
          {
            "duration": 0.2855543749999754,
            "durationTicks": 235,
            "midi": 73,
            "name": "C#5",
            "ticks": 138000,
            "time": 171.920618,
            "velocity": 1
          },
          {
            "duration": 1.2606515145833441,
            "durationTicks": 989,
            "midi": 44,
            "name": "G#2",
            "ticks": 138240,
            "time": 172.212248,
            "velocity": 1
          },
          {
            "duration": 0.651357860416681,
            "durationTicks": 511,
            "midi": 51,
            "name": "D#3",
            "ticks": 138240,
            "time": 172.212248,
            "velocity": 1
          },
          {
            "duration": 1.2606515145833441,
            "durationTicks": 989,
            "midi": 60,
            "name": "C4",
            "ticks": 138240,
            "time": 172.212248,
            "velocity": 1
          },
          {
            "duration": 1.2606515145833441,
            "durationTicks": 989,
            "midi": 66,
            "name": "F#4",
            "ticks": 138240,
            "time": 172.212248,
            "velocity": 1
          },
          {
            "duration": 1.2606515145833441,
            "durationTicks": 989,
            "midi": 70,
            "name": "A#4",
            "ticks": 138240,
            "time": 172.212248,
            "velocity": 1
          },
          {
            "duration": 0.6092936541666631,
            "durationTicks": 478,
            "midi": 51,
            "name": "D#3",
            "ticks": 138720,
            "time": 172.82409099999998,
            "velocity": 1
          },
          {
            "duration": 0.28807607916667166,
            "durationTicks": 226,
            "midi": 56,
            "name": "G#3",
            "ticks": 138720,
            "time": 172.82409099999998,
            "velocity": 1
          },
          {
            "duration": 0.3212175749999915,
            "durationTicks": 252,
            "midi": 56,
            "name": "G#3",
            "ticks": 138960,
            "time": 173.1300125,
            "velocity": 1
          },
          {
            "duration": 0.3212175749999915,
            "durationTicks": 252,
            "midi": 68,
            "name": "G#4",
            "ticks": 138960,
            "time": 173.1300125,
            "velocity": 1
          },
          {
            "duration": 1.1739737562500068,
            "durationTicks": 921,
            "midi": 32,
            "name": "G#1",
            "ticks": 139200,
            "time": 173.43593399999997,
            "velocity": 1
          },
          {
            "duration": 1.1739737562500068,
            "durationTicks": 921,
            "midi": 44,
            "name": "G#2",
            "ticks": 139200,
            "time": 173.43593399999997,
            "velocity": 1
          },
          {
            "duration": 0.5251652416666843,
            "durationTicks": 412,
            "midi": 56,
            "name": "G#3",
            "ticks": 139200,
            "time": 173.43593399999997,
            "velocity": 1
          },
          {
            "duration": 0.5251652416666843,
            "durationTicks": 412,
            "midi": 68,
            "name": "G#4",
            "ticks": 139200,
            "time": 173.43593399999997,
            "velocity": 1
          },
          {
            "duration": 0.5544827187499948,
            "durationTicks": 435,
            "midi": 54,
            "name": "F#3",
            "ticks": 139680,
            "time": 174.047777,
            "velocity": 1
          },
          {
            "duration": 0.5544827187499948,
            "durationTicks": 435,
            "midi": 60,
            "name": "C4",
            "ticks": 139680,
            "time": 174.047777,
            "velocity": 1
          },
          {
            "duration": 0.5544827187499948,
            "durationTicks": 435,
            "midi": 65,
            "name": "F4",
            "ticks": 139680,
            "time": 174.047777,
            "velocity": 1
          },
          {
            "duration": 0.24856121875001236,
            "durationTicks": 195,
            "midi": 63,
            "name": "D#4",
            "ticks": 139920,
            "time": 174.35369849999998,
            "velocity": 1
          },
          {
            "duration": 0.17927195833334508,
            "durationTicks": 145,
            "midi": 30,
            "name": "F#1",
            "ticks": 140160,
            "time": 174.65962,
            "velocity": 1
          },
          {
            "duration": 0.17927195833334508,
            "durationTicks": 145,
            "midi": 42,
            "name": "F#2",
            "ticks": 140160,
            "time": 174.65962,
            "velocity": 1
          },
          {
            "duration": 0.14959935833334725,
            "durationTicks": 121,
            "midi": 56,
            "name": "G#3",
            "ticks": 140160,
            "time": 174.65962,
            "velocity": 1
          },
          {
            "duration": 0.140944850000011,
            "durationTicks": 114,
            "midi": 58,
            "name": "A#3",
            "ticks": 140160,
            "time": 174.65962,
            "velocity": 1
          },
          {
            "duration": 0.140944850000011,
            "durationTicks": 114,
            "midi": 61,
            "name": "C#4",
            "ticks": 140160,
            "time": 174.65962,
            "velocity": 1
          },
          {
            "duration": 0.16196294166667258,
            "durationTicks": 131,
            "midi": 65,
            "name": "F4",
            "ticks": 140160,
            "time": 174.65962,
            "velocity": 1
          },
          {
            "duration": 0.10014502499998912,
            "durationTicks": 81,
            "midi": 30,
            "name": "F#1",
            "ticks": 140400,
            "time": 174.956346,
            "velocity": 1
          },
          {
            "duration": 0.08901779999999349,
            "durationTicks": 72,
            "midi": 42,
            "name": "F#2",
            "ticks": 140400,
            "time": 174.956346,
            "velocity": 1
          },
          {
            "duration": 0.10014502499998912,
            "durationTicks": 81,
            "midi": 56,
            "name": "G#3",
            "ticks": 140400,
            "time": 174.956346,
            "velocity": 1
          },
          {
            "duration": 0.10014502499998912,
            "durationTicks": 81,
            "midi": 58,
            "name": "A#3",
            "ticks": 140400,
            "time": 174.956346,
            "velocity": 1
          },
          {
            "duration": 0.10014502499998912,
            "durationTicks": 81,
            "midi": 61,
            "name": "C#4",
            "ticks": 140400,
            "time": 174.956346,
            "velocity": 1
          },
          {
            "duration": 0.10014502499998912,
            "durationTicks": 81,
            "midi": 65,
            "name": "F4",
            "ticks": 140400,
            "time": 174.956346,
            "velocity": 1
          },
          {
            "duration": 0.10632681666666599,
            "durationTicks": 86,
            "midi": 30,
            "name": "F#1",
            "ticks": 140640,
            "time": 175.253072,
            "velocity": 1
          },
          {
            "duration": 0.10632681666666599,
            "durationTicks": 86,
            "midi": 42,
            "name": "F#2",
            "ticks": 140640,
            "time": 175.253072,
            "velocity": 1
          },
          {
            "duration": 0.10632681666666599,
            "durationTicks": 86,
            "midi": 56,
            "name": "G#3",
            "ticks": 140640,
            "time": 175.253072,
            "velocity": 1
          },
          {
            "duration": 0.10632681666666599,
            "durationTicks": 86,
            "midi": 58,
            "name": "A#3",
            "ticks": 140640,
            "time": 175.253072,
            "velocity": 1
          },
          {
            "duration": 0.10632681666666599,
            "durationTicks": 86,
            "midi": 61,
            "name": "C#4",
            "ticks": 140640,
            "time": 175.253072,
            "velocity": 1
          },
          {
            "duration": 0.10632681666666599,
            "durationTicks": 86,
            "midi": 65,
            "name": "F4",
            "ticks": 140640,
            "time": 175.253072,
            "velocity": 1
          },
          {
            "duration": 0.12734490833332757,
            "durationTicks": 103,
            "midi": 30,
            "name": "F#1",
            "ticks": 140880,
            "time": 175.54979799999998,
            "velocity": 1
          },
          {
            "duration": 0.2991987166666661,
            "durationTicks": 242,
            "midi": 42,
            "name": "F#2",
            "ticks": 140880,
            "time": 175.54979799999998,
            "velocity": 1
          },
          {
            "duration": 0.140944850000011,
            "durationTicks": 114,
            "midi": 56,
            "name": "G#3",
            "ticks": 140880,
            "time": 175.54979799999998,
            "velocity": 1
          },
          {
            "duration": 0.11869040000001974,
            "durationTicks": 96,
            "midi": 58,
            "name": "A#3",
            "ticks": 140880,
            "time": 175.54979799999998,
            "velocity": 1
          },
          {
            "duration": 0.11869040000001974,
            "durationTicks": 96,
            "midi": 61,
            "name": "C#4",
            "ticks": 140880,
            "time": 175.54979799999998,
            "velocity": 1
          },
          {
            "duration": 0.140944850000011,
            "durationTicks": 114,
            "midi": 65,
            "name": "F4",
            "ticks": 140880,
            "time": 175.54979799999998,
            "velocity": 1
          },
          {
            "duration": 0.10632681666666599,
            "durationTicks": 86,
            "midi": 30,
            "name": "F#1",
            "ticks": 141120,
            "time": 175.846524,
            "velocity": 1
          },
          {
            "duration": 0.09519959166667036,
            "durationTicks": 77,
            "midi": 42,
            "name": "F#2",
            "ticks": 141120,
            "time": 175.846524,
            "velocity": 1
          },
          {
            "duration": 0.10632681666666599,
            "durationTicks": 86,
            "midi": 56,
            "name": "G#3",
            "ticks": 141120,
            "time": 175.846524,
            "velocity": 1
          },
          {
            "duration": 0.10632681666666599,
            "durationTicks": 86,
            "midi": 58,
            "name": "A#3",
            "ticks": 141120,
            "time": 175.846524,
            "velocity": 1
          },
          {
            "duration": 0.10632681666666599,
            "durationTicks": 86,
            "midi": 61,
            "name": "C#4",
            "ticks": 141120,
            "time": 175.846524,
            "velocity": 1
          },
          {
            "duration": 0.10632681666666599,
            "durationTicks": 86,
            "midi": 65,
            "name": "F4",
            "ticks": 141120,
            "time": 175.846524,
            "velocity": 1
          },
          {
            "duration": 0.12734490833332757,
            "durationTicks": 103,
            "midi": 30,
            "name": "F#1",
            "ticks": 141360,
            "time": 176.14325,
            "velocity": 1
          },
          {
            "duration": 0.12734490833332757,
            "durationTicks": 103,
            "midi": 42,
            "name": "F#2",
            "ticks": 141360,
            "time": 176.14325,
            "velocity": 1
          },
          {
            "duration": 0.12734490833332757,
            "durationTicks": 103,
            "midi": 49,
            "name": "C#3",
            "ticks": 141360,
            "time": 176.14325,
            "velocity": 1
          },
          {
            "duration": 0.12734490833332757,
            "durationTicks": 103,
            "midi": 56,
            "name": "G#3",
            "ticks": 141360,
            "time": 176.14325,
            "velocity": 1
          },
          {
            "duration": 0.12734490833332757,
            "durationTicks": 103,
            "midi": 58,
            "name": "A#3",
            "ticks": 141360,
            "time": 176.14325,
            "velocity": 1
          },
          {
            "duration": 0.12734490833332757,
            "durationTicks": 103,
            "midi": 61,
            "name": "C#4",
            "ticks": 141360,
            "time": 176.14325,
            "velocity": 1
          },
          {
            "duration": 0.12734490833332757,
            "durationTicks": 103,
            "midi": 65,
            "name": "F4",
            "ticks": 141360,
            "time": 176.14325,
            "velocity": 1
          },
          {
            "duration": 0.10632681666666599,
            "durationTicks": 86,
            "midi": 30,
            "name": "F#1",
            "ticks": 141600,
            "time": 176.439976,
            "velocity": 1
          },
          {
            "duration": 0.10632681666666599,
            "durationTicks": 86,
            "midi": 42,
            "name": "F#2",
            "ticks": 141600,
            "time": 176.439976,
            "velocity": 1
          },
          {
            "duration": 0.10632681666666599,
            "durationTicks": 86,
            "midi": 49,
            "name": "C#3",
            "ticks": 141600,
            "time": 176.439976,
            "velocity": 1
          },
          {
            "duration": 0.10632681666666599,
            "durationTicks": 86,
            "midi": 56,
            "name": "G#3",
            "ticks": 141600,
            "time": 176.439976,
            "velocity": 1
          },
          {
            "duration": 0.10632681666666599,
            "durationTicks": 86,
            "midi": 58,
            "name": "A#3",
            "ticks": 141600,
            "time": 176.439976,
            "velocity": 1
          },
          {
            "duration": 0.10632681666666599,
            "durationTicks": 86,
            "midi": 61,
            "name": "C#4",
            "ticks": 141600,
            "time": 176.439976,
            "velocity": 1
          },
          {
            "duration": 0.10632681666666599,
            "durationTicks": 86,
            "midi": 65,
            "name": "F4",
            "ticks": 141600,
            "time": 176.439976,
            "velocity": 1
          },
          {
            "duration": 0.11621768333333193,
            "durationTicks": 94,
            "midi": 30,
            "name": "F#1",
            "ticks": 141840,
            "time": 176.73670199999998,
            "velocity": 1
          },
          {
            "duration": 0.11621768333333193,
            "durationTicks": 94,
            "midi": 42,
            "name": "F#2",
            "ticks": 141840,
            "time": 176.73670199999998,
            "velocity": 1
          },
          {
            "duration": 0.11621768333333193,
            "durationTicks": 94,
            "midi": 49,
            "name": "C#3",
            "ticks": 141840,
            "time": 176.73670199999998,
            "velocity": 1
          },
          {
            "duration": 0.11621768333333193,
            "durationTicks": 94,
            "midi": 56,
            "name": "G#3",
            "ticks": 141840,
            "time": 176.73670199999998,
            "velocity": 1
          },
          {
            "duration": 0.11621768333333193,
            "durationTicks": 94,
            "midi": 58,
            "name": "A#3",
            "ticks": 141840,
            "time": 176.73670199999998,
            "velocity": 1
          },
          {
            "duration": 0.11621768333333193,
            "durationTicks": 94,
            "midi": 61,
            "name": "C#4",
            "ticks": 141840,
            "time": 176.73670199999998,
            "velocity": 1
          },
          {
            "duration": 0.11621768333333193,
            "durationTicks": 94,
            "midi": 65,
            "name": "F4",
            "ticks": 141840,
            "time": 176.73670199999998,
            "velocity": 1
          },
          {
            "duration": 0.12916584375000184,
            "durationTicks": 111,
            "midi": 30,
            "name": "F#1",
            "ticks": 142080,
            "time": 177.033428,
            "velocity": 1
          },
          {
            "duration": 0.12916584375000184,
            "durationTicks": 111,
            "midi": 42,
            "name": "F#2",
            "ticks": 142080,
            "time": 177.033428,
            "velocity": 1
          },
          {
            "duration": 0.12916584375000184,
            "durationTicks": 111,
            "midi": 49,
            "name": "C#3",
            "ticks": 142080,
            "time": 177.033428,
            "velocity": 1
          },
          {
            "duration": 0.12916584375000184,
            "durationTicks": 111,
            "midi": 56,
            "name": "G#3",
            "ticks": 142080,
            "time": 177.033428,
            "velocity": 1
          },
          {
            "duration": 0.12916584375000184,
            "durationTicks": 111,
            "midi": 58,
            "name": "A#3",
            "ticks": 142080,
            "time": 177.033428,
            "velocity": 1
          },
          {
            "duration": 0.12916584375000184,
            "durationTicks": 111,
            "midi": 60,
            "name": "C4",
            "ticks": 142080,
            "time": 177.033428,
            "velocity": 1
          },
          {
            "duration": 0.12916584375000184,
            "durationTicks": 111,
            "midi": 65,
            "name": "F4",
            "ticks": 142080,
            "time": 177.033428,
            "velocity": 1
          },
          {
            "duration": 0.12102024999998662,
            "durationTicks": 104,
            "midi": 30,
            "name": "F#1",
            "ticks": 142320,
            "time": 177.3127055,
            "velocity": 1
          },
          {
            "duration": 0.12102024999998662,
            "durationTicks": 104,
            "midi": 42,
            "name": "F#2",
            "ticks": 142320,
            "time": 177.3127055,
            "velocity": 1
          },
          {
            "duration": 0.12102024999998662,
            "durationTicks": 104,
            "midi": 49,
            "name": "C#3",
            "ticks": 142320,
            "time": 177.3127055,
            "velocity": 1
          },
          {
            "duration": 0.12102024999998662,
            "durationTicks": 104,
            "midi": 56,
            "name": "G#3",
            "ticks": 142320,
            "time": 177.3127055,
            "velocity": 1
          },
          {
            "duration": 0.12102024999998662,
            "durationTicks": 104,
            "midi": 58,
            "name": "A#3",
            "ticks": 142320,
            "time": 177.3127055,
            "velocity": 1
          },
          {
            "duration": 0.12102024999998662,
            "durationTicks": 104,
            "midi": 60,
            "name": "C4",
            "ticks": 142320,
            "time": 177.3127055,
            "velocity": 1
          },
          {
            "duration": 0.12102024999998662,
            "durationTicks": 104,
            "midi": 65,
            "name": "F4",
            "ticks": 142320,
            "time": 177.3127055,
            "velocity": 1
          },
          {
            "duration": 0.11287465624999982,
            "durationTicks": 97,
            "midi": 30,
            "name": "F#1",
            "ticks": 142560,
            "time": 177.591983,
            "velocity": 1
          },
          {
            "duration": 0.11287465624999982,
            "durationTicks": 97,
            "midi": 42,
            "name": "F#2",
            "ticks": 142560,
            "time": 177.591983,
            "velocity": 1
          },
          {
            "duration": 0.11287465624999982,
            "durationTicks": 97,
            "midi": 49,
            "name": "C#3",
            "ticks": 142560,
            "time": 177.591983,
            "velocity": 1
          },
          {
            "duration": 0.11287465624999982,
            "durationTicks": 97,
            "midi": 56,
            "name": "G#3",
            "ticks": 142560,
            "time": 177.591983,
            "velocity": 1
          },
          {
            "duration": 0.11287465624999982,
            "durationTicks": 97,
            "midi": 58,
            "name": "A#3",
            "ticks": 142560,
            "time": 177.591983,
            "velocity": 1
          },
          {
            "duration": 0.11287465624999982,
            "durationTicks": 97,
            "midi": 60,
            "name": "C4",
            "ticks": 142560,
            "time": 177.591983,
            "velocity": 1
          },
          {
            "duration": 0.11287465624999982,
            "durationTicks": 97,
            "midi": 65,
            "name": "F4",
            "ticks": 142560,
            "time": 177.591983,
            "velocity": 1
          },
          {
            "duration": 0.11287465624999982,
            "durationTicks": 97,
            "midi": 30,
            "name": "F#1",
            "ticks": 142800,
            "time": 177.87126049999998,
            "velocity": 1
          },
          {
            "duration": 0.11287465624999982,
            "durationTicks": 97,
            "midi": 42,
            "name": "F#2",
            "ticks": 142800,
            "time": 177.87126049999998,
            "velocity": 1
          },
          {
            "duration": 0.11287465624999982,
            "durationTicks": 97,
            "midi": 49,
            "name": "C#3",
            "ticks": 142800,
            "time": 177.87126049999998,
            "velocity": 1
          },
          {
            "duration": 0.11287465624999982,
            "durationTicks": 97,
            "midi": 56,
            "name": "G#3",
            "ticks": 142800,
            "time": 177.87126049999998,
            "velocity": 1
          },
          {
            "duration": 0.11287465624999982,
            "durationTicks": 97,
            "midi": 58,
            "name": "A#3",
            "ticks": 142800,
            "time": 177.87126049999998,
            "velocity": 1
          },
          {
            "duration": 0.11287465624999982,
            "durationTicks": 97,
            "midi": 60,
            "name": "C4",
            "ticks": 142800,
            "time": 177.87126049999998,
            "velocity": 1
          },
          {
            "duration": 0.11287465624999982,
            "durationTicks": 97,
            "midi": 65,
            "name": "F4",
            "ticks": 142800,
            "time": 177.87126049999998,
            "velocity": 1
          },
          {
            "duration": 0.15243896875000473,
            "durationTicks": 131,
            "midi": 30,
            "name": "F#1",
            "ticks": 143040,
            "time": 178.15053799999998,
            "velocity": 1
          },
          {
            "duration": 0.15243896875000473,
            "durationTicks": 131,
            "midi": 42,
            "name": "F#2",
            "ticks": 143040,
            "time": 178.15053799999998,
            "velocity": 1
          },
          {
            "duration": 0.15243896875000473,
            "durationTicks": 131,
            "midi": 48,
            "name": "C3",
            "ticks": 143040,
            "time": 178.15053799999998,
            "velocity": 1
          },
          {
            "duration": 0.15243896875000473,
            "durationTicks": 131,
            "midi": 51,
            "name": "D#3",
            "ticks": 143040,
            "time": 178.15053799999998,
            "velocity": 1
          },
          {
            "duration": 0.15243896875000473,
            "durationTicks": 131,
            "midi": 56,
            "name": "G#3",
            "ticks": 143040,
            "time": 178.15053799999998,
            "velocity": 1
          },
          {
            "duration": 0.15243896875000473,
            "durationTicks": 131,
            "midi": 60,
            "name": "C4",
            "ticks": 143040,
            "time": 178.15053799999998,
            "velocity": 1
          },
          {
            "duration": 0.15243896875000473,
            "durationTicks": 131,
            "midi": 63,
            "name": "D#4",
            "ticks": 143040,
            "time": 178.15053799999998,
            "velocity": 1
          },
          {
            "duration": 0.18502134375000878,
            "durationTicks": 159,
            "midi": 30,
            "name": "F#1",
            "ticks": 143280,
            "time": 178.4298155,
            "velocity": 1
          },
          {
            "duration": 0.18502134375000878,
            "durationTicks": 159,
            "midi": 42,
            "name": "F#2",
            "ticks": 143280,
            "time": 178.4298155,
            "velocity": 1
          },
          {
            "duration": 0.18502134375000878,
            "durationTicks": 159,
            "midi": 48,
            "name": "C3",
            "ticks": 143280,
            "time": 178.4298155,
            "velocity": 1
          },
          {
            "duration": 0.18502134375000878,
            "durationTicks": 159,
            "midi": 51,
            "name": "D#3",
            "ticks": 143280,
            "time": 178.4298155,
            "velocity": 1
          },
          {
            "duration": 0.18502134375000878,
            "durationTicks": 159,
            "midi": 56,
            "name": "G#3",
            "ticks": 143280,
            "time": 178.4298155,
            "velocity": 1
          },
          {
            "duration": 0.18502134375000878,
            "durationTicks": 159,
            "midi": 60,
            "name": "C4",
            "ticks": 143280,
            "time": 178.4298155,
            "velocity": 1
          },
          {
            "duration": 0.18502134375000878,
            "durationTicks": 159,
            "midi": 63,
            "name": "D#4",
            "ticks": 143280,
            "time": 178.4298155,
            "velocity": 1
          },
          {
            "duration": 0.15243896875000473,
            "durationTicks": 131,
            "midi": 30,
            "name": "F#1",
            "ticks": 143520,
            "time": 178.709093,
            "velocity": 1
          },
          {
            "duration": 0.15243896875000473,
            "durationTicks": 131,
            "midi": 42,
            "name": "F#2",
            "ticks": 143520,
            "time": 178.709093,
            "velocity": 1
          },
          {
            "duration": 0.15243896875000473,
            "durationTicks": 131,
            "midi": 48,
            "name": "C3",
            "ticks": 143520,
            "time": 178.709093,
            "velocity": 1
          },
          {
            "duration": 0.15243896875000473,
            "durationTicks": 131,
            "midi": 51,
            "name": "D#3",
            "ticks": 143520,
            "time": 178.709093,
            "velocity": 1
          },
          {
            "duration": 0.15243896875000473,
            "durationTicks": 131,
            "midi": 56,
            "name": "G#3",
            "ticks": 143520,
            "time": 178.709093,
            "velocity": 1
          },
          {
            "duration": 0.15243896875000473,
            "durationTicks": 131,
            "midi": 60,
            "name": "C4",
            "ticks": 143520,
            "time": 178.709093,
            "velocity": 1
          },
          {
            "duration": 0.15243896875000473,
            "durationTicks": 131,
            "midi": 63,
            "name": "D#4",
            "ticks": 143520,
            "time": 178.709093,
            "velocity": 1
          },
          {
            "duration": 0.13149315625000213,
            "durationTicks": 113,
            "midi": 30,
            "name": "F#1",
            "ticks": 143760,
            "time": 178.98837049999997,
            "velocity": 1
          },
          {
            "duration": 0.13149315625000213,
            "durationTicks": 113,
            "midi": 42,
            "name": "F#2",
            "ticks": 143760,
            "time": 178.98837049999997,
            "velocity": 1
          },
          {
            "duration": 0.13149315625000213,
            "durationTicks": 113,
            "midi": 48,
            "name": "C3",
            "ticks": 143760,
            "time": 178.98837049999997,
            "velocity": 1
          },
          {
            "duration": 0.13149315625000213,
            "durationTicks": 113,
            "midi": 51,
            "name": "D#3",
            "ticks": 143760,
            "time": 178.98837049999997,
            "velocity": 1
          },
          {
            "duration": 0.13149315625000213,
            "durationTicks": 113,
            "midi": 56,
            "name": "G#3",
            "ticks": 143760,
            "time": 178.98837049999997,
            "velocity": 1
          },
          {
            "duration": 0.13149315625000213,
            "durationTicks": 113,
            "midi": 60,
            "name": "C4",
            "ticks": 143760,
            "time": 178.98837049999997,
            "velocity": 1
          },
          {
            "duration": 0.13149315625000213,
            "durationTicks": 113,
            "midi": 63,
            "name": "D#4",
            "ticks": 143760,
            "time": 178.98837049999997,
            "velocity": 1
          },
          {
            "duration": 0.1501028020833246,
            "durationTicks": 131,
            "midi": 29,
            "name": "F1",
            "ticks": 144000,
            "time": 179.26764799999998,
            "velocity": 1
          },
          {
            "duration": 0.1501028020833246,
            "durationTicks": 131,
            "midi": 41,
            "name": "F2",
            "ticks": 144000,
            "time": 179.26764799999998,
            "velocity": 1
          },
          {
            "duration": 0.1501028020833246,
            "durationTicks": 131,
            "midi": 48,
            "name": "C3",
            "ticks": 144000,
            "time": 179.26764799999998,
            "velocity": 1
          },
          {
            "duration": 0.1501028020833246,
            "durationTicks": 131,
            "midi": 51,
            "name": "D#3",
            "ticks": 144000,
            "time": 179.26764799999998,
            "velocity": 1
          },
          {
            "duration": 0.1501028020833246,
            "durationTicks": 131,
            "midi": 56,
            "name": "G#3",
            "ticks": 144000,
            "time": 179.26764799999998,
            "velocity": 1
          },
          {
            "duration": 0.1501028020833246,
            "durationTicks": 131,
            "midi": 60,
            "name": "C4",
            "ticks": 144000,
            "time": 179.26764799999998,
            "velocity": 1
          },
          {
            "duration": 0.1501028020833246,
            "durationTicks": 131,
            "midi": 63,
            "name": "D#4",
            "ticks": 144000,
            "time": 179.26764799999998,
            "velocity": 1
          },
          {
            "duration": 0.12947798958330736,
            "durationTicks": 113,
            "midi": 29,
            "name": "F1",
            "ticks": 144240,
            "time": 179.5426455,
            "velocity": 1
          },
          {
            "duration": 0.12947798958330736,
            "durationTicks": 113,
            "midi": 41,
            "name": "F2",
            "ticks": 144240,
            "time": 179.5426455,
            "velocity": 1
          },
          {
            "duration": 0.12947798958330736,
            "durationTicks": 113,
            "midi": 48,
            "name": "C3",
            "ticks": 144240,
            "time": 179.5426455,
            "velocity": 1
          },
          {
            "duration": 0.12947798958330736,
            "durationTicks": 113,
            "midi": 51,
            "name": "D#3",
            "ticks": 144240,
            "time": 179.5426455,
            "velocity": 1
          },
          {
            "duration": 0.12947798958330736,
            "durationTicks": 113,
            "midi": 56,
            "name": "G#3",
            "ticks": 144240,
            "time": 179.5426455,
            "velocity": 1
          },
          {
            "duration": 0.12947798958330736,
            "durationTicks": 113,
            "midi": 60,
            "name": "C4",
            "ticks": 144240,
            "time": 179.5426455,
            "velocity": 1
          },
          {
            "duration": 0.12947798958330736,
            "durationTicks": 113,
            "midi": 63,
            "name": "D#4",
            "ticks": 144240,
            "time": 179.5426455,
            "velocity": 1
          },
          {
            "duration": 0.15468609375000142,
            "durationTicks": 135,
            "midi": 29,
            "name": "F1",
            "ticks": 144480,
            "time": 179.81764299999998,
            "velocity": 1
          },
          {
            "duration": 0.15468609375000142,
            "durationTicks": 135,
            "midi": 41,
            "name": "F2",
            "ticks": 144480,
            "time": 179.81764299999998,
            "velocity": 1
          },
          {
            "duration": 0.15468609375000142,
            "durationTicks": 135,
            "midi": 48,
            "name": "C3",
            "ticks": 144480,
            "time": 179.81764299999998,
            "velocity": 1
          },
          {
            "duration": 0.15468609375000142,
            "durationTicks": 135,
            "midi": 51,
            "name": "D#3",
            "ticks": 144480,
            "time": 179.81764299999998,
            "velocity": 1
          },
          {
            "duration": 0.15468609375000142,
            "durationTicks": 135,
            "midi": 56,
            "name": "G#3",
            "ticks": 144480,
            "time": 179.81764299999998,
            "velocity": 1
          },
          {
            "duration": 0.15468609375000142,
            "durationTicks": 135,
            "midi": 60,
            "name": "C4",
            "ticks": 144480,
            "time": 179.81764299999998,
            "velocity": 1
          },
          {
            "duration": 0.15468609375000142,
            "durationTicks": 135,
            "midi": 63,
            "name": "D#4",
            "ticks": 144480,
            "time": 179.81764299999998,
            "velocity": 1
          },
          {
            "duration": 0.12374887499998977,
            "durationTicks": 108,
            "midi": 29,
            "name": "F1",
            "ticks": 144720,
            "time": 180.0926405,
            "velocity": 1
          },
          {
            "duration": 0.12374887499998977,
            "durationTicks": 108,
            "midi": 41,
            "name": "F2",
            "ticks": 144720,
            "time": 180.0926405,
            "velocity": 1
          },
          {
            "duration": 0.12374887499998977,
            "durationTicks": 108,
            "midi": 48,
            "name": "C3",
            "ticks": 144720,
            "time": 180.0926405,
            "velocity": 1
          },
          {
            "duration": 0.12374887499998977,
            "durationTicks": 108,
            "midi": 51,
            "name": "D#3",
            "ticks": 144720,
            "time": 180.0926405,
            "velocity": 1
          },
          {
            "duration": 0.12374887499998977,
            "durationTicks": 108,
            "midi": 56,
            "name": "G#3",
            "ticks": 144720,
            "time": 180.0926405,
            "velocity": 1
          },
          {
            "duration": 0.12374887499998977,
            "durationTicks": 108,
            "midi": 60,
            "name": "C4",
            "ticks": 144720,
            "time": 180.0926405,
            "velocity": 1
          },
          {
            "duration": 0.12374887499998977,
            "durationTicks": 108,
            "midi": 63,
            "name": "D#4",
            "ticks": 144720,
            "time": 180.0926405,
            "velocity": 1
          },
          {
            "duration": 0.19364407291666907,
            "durationTicks": 169,
            "midi": 29,
            "name": "F1",
            "ticks": 144960,
            "time": 180.36763799999997,
            "velocity": 1
          },
          {
            "duration": 0.19364407291666907,
            "durationTicks": 169,
            "midi": 41,
            "name": "F2",
            "ticks": 144960,
            "time": 180.36763799999997,
            "velocity": 1
          },
          {
            "duration": 0.19364407291666907,
            "durationTicks": 169,
            "midi": 53,
            "name": "F3",
            "ticks": 144960,
            "time": 180.36763799999997,
            "velocity": 1
          },
          {
            "duration": 0.19364407291666907,
            "durationTicks": 169,
            "midi": 56,
            "name": "G#3",
            "ticks": 144960,
            "time": 180.36763799999997,
            "velocity": 1
          },
          {
            "duration": 0.19364407291666907,
            "durationTicks": 169,
            "midi": 60,
            "name": "C4",
            "ticks": 144960,
            "time": 180.36763799999997,
            "velocity": 1
          },
          {
            "duration": 0.19364407291666907,
            "durationTicks": 169,
            "midi": 63,
            "name": "D#4",
            "ticks": 144960,
            "time": 180.36763799999997,
            "velocity": 1
          },
          {
            "duration": 0.2245812916666523,
            "durationTicks": 196,
            "midi": 29,
            "name": "F1",
            "ticks": 145200,
            "time": 180.64263549999998,
            "velocity": 1
          },
          {
            "duration": 0.2245812916666523,
            "durationTicks": 196,
            "midi": 41,
            "name": "F2",
            "ticks": 145200,
            "time": 180.64263549999998,
            "velocity": 1
          },
          {
            "duration": 0.2245812916666523,
            "durationTicks": 196,
            "midi": 53,
            "name": "F3",
            "ticks": 145200,
            "time": 180.64263549999998,
            "velocity": 1
          },
          {
            "duration": 0.2245812916666523,
            "durationTicks": 196,
            "midi": 56,
            "name": "G#3",
            "ticks": 145200,
            "time": 180.64263549999998,
            "velocity": 1
          },
          {
            "duration": 0.2245812916666523,
            "durationTicks": 196,
            "midi": 60,
            "name": "C4",
            "ticks": 145200,
            "time": 180.64263549999998,
            "velocity": 1
          },
          {
            "duration": 0.2245812916666523,
            "durationTicks": 196,
            "midi": 63,
            "name": "D#4",
            "ticks": 145200,
            "time": 180.64263549999998,
            "velocity": 1
          },
          {
            "duration": 0.19593571875000748,
            "durationTicks": 171,
            "midi": 29,
            "name": "F1",
            "ticks": 145440,
            "time": 180.91763299999997,
            "velocity": 1
          },
          {
            "duration": 0.19593571875000748,
            "durationTicks": 171,
            "midi": 41,
            "name": "F2",
            "ticks": 145440,
            "time": 180.91763299999997,
            "velocity": 1
          },
          {
            "duration": 0.19593571875000748,
            "durationTicks": 171,
            "midi": 53,
            "name": "F3",
            "ticks": 145440,
            "time": 180.91763299999997,
            "velocity": 1
          },
          {
            "duration": 0.19593571875000748,
            "durationTicks": 171,
            "midi": 56,
            "name": "G#3",
            "ticks": 145440,
            "time": 180.91763299999997,
            "velocity": 1
          },
          {
            "duration": 0.19593571875000748,
            "durationTicks": 171,
            "midi": 60,
            "name": "C4",
            "ticks": 145440,
            "time": 180.91763299999997,
            "velocity": 1
          },
          {
            "duration": 0.19593571875000748,
            "durationTicks": 171,
            "midi": 63,
            "name": "D#4",
            "ticks": 145440,
            "time": 180.91763299999997,
            "velocity": 1
          },
          {
            "duration": 0.1329154583333434,
            "durationTicks": 116,
            "midi": 29,
            "name": "F1",
            "ticks": 145680,
            "time": 181.19263049999998,
            "velocity": 1
          },
          {
            "duration": 0.1329154583333434,
            "durationTicks": 116,
            "midi": 41,
            "name": "F2",
            "ticks": 145680,
            "time": 181.19263049999998,
            "velocity": 1
          },
          {
            "duration": 0.1329154583333434,
            "durationTicks": 116,
            "midi": 53,
            "name": "F3",
            "ticks": 145680,
            "time": 181.19263049999998,
            "velocity": 1
          },
          {
            "duration": 0.1329154583333434,
            "durationTicks": 116,
            "midi": 56,
            "name": "G#3",
            "ticks": 145680,
            "time": 181.19263049999998,
            "velocity": 1
          },
          {
            "duration": 0.1329154583333434,
            "durationTicks": 116,
            "midi": 60,
            "name": "C4",
            "ticks": 145680,
            "time": 181.19263049999998,
            "velocity": 1
          },
          {
            "duration": 0.1329154583333434,
            "durationTicks": 116,
            "midi": 61,
            "name": "C#4",
            "ticks": 145680,
            "time": 181.19263049999998,
            "velocity": 1
          },
          {
            "duration": 0.2534769500000209,
            "durationTicks": 224,
            "midi": 29,
            "name": "F1",
            "ticks": 145800,
            "time": 181.33012924999997,
            "velocity": 1
          },
          {
            "duration": 0.2534769500000209,
            "durationTicks": 224,
            "midi": 41,
            "name": "F2",
            "ticks": 145800,
            "time": 181.33012924999997,
            "velocity": 1
          },
          {
            "duration": 0.2534769500000209,
            "durationTicks": 224,
            "midi": 53,
            "name": "F3",
            "ticks": 145800,
            "time": 181.33012924999997,
            "velocity": 1
          },
          {
            "duration": 0.2534769500000209,
            "durationTicks": 224,
            "midi": 56,
            "name": "G#3",
            "ticks": 145800,
            "time": 181.33012924999997,
            "velocity": 1
          },
          {
            "duration": 0.2534769500000209,
            "durationTicks": 224,
            "midi": 60,
            "name": "C4",
            "ticks": 145800,
            "time": 181.33012924999997,
            "velocity": 1
          },
          {
            "duration": 0.2534769500000209,
            "durationTicks": 224,
            "midi": 61,
            "name": "C#4",
            "ticks": 145800,
            "time": 181.33012924999997,
            "velocity": 1
          },
          {
            "duration": 0.2408777999999927,
            "durationTicks": 216,
            "midi": 34,
            "name": "A#1",
            "ticks": 146160,
            "time": 181.73526999999999,
            "velocity": 1
          },
          {
            "duration": 0.2408777999999927,
            "durationTicks": 216,
            "midi": 46,
            "name": "A#2",
            "ticks": 146160,
            "time": 181.73526999999999,
            "velocity": 1
          },
          {
            "duration": 0.2408777999999927,
            "durationTicks": 216,
            "midi": 53,
            "name": "F3",
            "ticks": 146160,
            "time": 181.73526999999999,
            "velocity": 1
          },
          {
            "duration": 0.2408777999999927,
            "durationTicks": 216,
            "midi": 56,
            "name": "G#3",
            "ticks": 146160,
            "time": 181.73526999999999,
            "velocity": 1
          },
          {
            "duration": 0.2408777999999927,
            "durationTicks": 216,
            "midi": 60,
            "name": "C4",
            "ticks": 146160,
            "time": 181.73526999999999,
            "velocity": 1
          },
          {
            "duration": 0.2408777999999927,
            "durationTicks": 216,
            "midi": 61,
            "name": "C#4",
            "ticks": 146160,
            "time": 181.73526999999999,
            "velocity": 1
          },
          {
            "duration": 0.20184667500001297,
            "durationTicks": 181,
            "midi": 34,
            "name": "A#1",
            "ticks": 146400,
            "time": 182.00291199999998,
            "velocity": 1
          },
          {
            "duration": 0.20184667500001297,
            "durationTicks": 181,
            "midi": 46,
            "name": "A#2",
            "ticks": 146400,
            "time": 182.00291199999998,
            "velocity": 1
          },
          {
            "duration": 0.20184667500001297,
            "durationTicks": 181,
            "midi": 53,
            "name": "F3",
            "ticks": 146400,
            "time": 182.00291199999998,
            "velocity": 1
          },
          {
            "duration": 0.20184667500001297,
            "durationTicks": 181,
            "midi": 56,
            "name": "G#3",
            "ticks": 146400,
            "time": 182.00291199999998,
            "velocity": 1
          },
          {
            "duration": 0.20184667500001297,
            "durationTicks": 181,
            "midi": 60,
            "name": "C4",
            "ticks": 146400,
            "time": 182.00291199999998,
            "velocity": 1
          },
          {
            "duration": 0.20184667500001297,
            "durationTicks": 181,
            "midi": 61,
            "name": "C#4",
            "ticks": 146400,
            "time": 182.00291199999998,
            "velocity": 1
          },
          {
            "duration": 0.10817197499997633,
            "durationTicks": 97,
            "midi": 34,
            "name": "A#1",
            "ticks": 146640,
            "time": 182.270554,
            "velocity": 1
          },
          {
            "duration": 0.10817197499997633,
            "durationTicks": 97,
            "midi": 46,
            "name": "A#2",
            "ticks": 146640,
            "time": 182.270554,
            "velocity": 1
          },
          {
            "duration": 0.08809882499997457,
            "durationTicks": 79,
            "midi": 53,
            "name": "F3",
            "ticks": 146640,
            "time": 182.270554,
            "velocity": 1
          },
          {
            "duration": 0.08809882499997457,
            "durationTicks": 79,
            "midi": 56,
            "name": "G#3",
            "ticks": 146640,
            "time": 182.270554,
            "velocity": 1
          },
          {
            "duration": 0.0970202249999943,
            "durationTicks": 87,
            "midi": 60,
            "name": "C4",
            "ticks": 146640,
            "time": 182.270554,
            "velocity": 1
          },
          {
            "duration": 0.10817197499997633,
            "durationTicks": 97,
            "midi": 61,
            "name": "C#4",
            "ticks": 146640,
            "time": 182.270554,
            "velocity": 1
          },
          {
            "duration": 0.2531447249999985,
            "durationTicks": 227,
            "midi": 34,
            "name": "A#1",
            "ticks": 146880,
            "time": 182.538196,
            "velocity": 1
          },
          {
            "duration": 0.4761797249999802,
            "durationTicks": 427,
            "midi": 46,
            "name": "A#2",
            "ticks": 146880,
            "time": 182.538196,
            "velocity": 1
          },
          {
            "duration": 0.4761797249999802,
            "durationTicks": 427,
            "midi": 53,
            "name": "F3",
            "ticks": 146880,
            "time": 182.538196,
            "velocity": 1
          },
          {
            "duration": 0.4761797249999802,
            "durationTicks": 427,
            "midi": 56,
            "name": "G#3",
            "ticks": 146880,
            "time": 182.538196,
            "velocity": 1
          },
          {
            "duration": 0.4761797249999802,
            "durationTicks": 427,
            "midi": 60,
            "name": "C4",
            "ticks": 146880,
            "time": 182.538196,
            "velocity": 1
          },
          {
            "duration": 0.4761797249999802,
            "durationTicks": 427,
            "midi": 61,
            "name": "C#4",
            "ticks": 146880,
            "time": 182.538196,
            "velocity": 1
          },
          {
            "duration": 0.2230350000000101,
            "durationTicks": 200,
            "midi": 34,
            "name": "A#1",
            "ticks": 147120,
            "time": 182.805838,
            "velocity": 1
          },
          {
            "duration": 0.2732178750000003,
            "durationTicks": 245,
            "midi": 32,
            "name": "G#1",
            "ticks": 147360,
            "time": 183.07348,
            "velocity": 1
          },
          {
            "duration": 0.45610657500000684,
            "durationTicks": 409,
            "midi": 44,
            "name": "G#2",
            "ticks": 147360,
            "time": 183.07348,
            "velocity": 1
          },
          {
            "duration": 0.45610657500000684,
            "durationTicks": 409,
            "midi": 53,
            "name": "F3",
            "ticks": 147360,
            "time": 183.07348,
            "velocity": 1
          },
          {
            "duration": 0.45610657500000684,
            "durationTicks": 409,
            "midi": 56,
            "name": "G#3",
            "ticks": 147360,
            "time": 183.07348,
            "velocity": 1
          },
          {
            "duration": 0.45610657500000684,
            "durationTicks": 409,
            "midi": 60,
            "name": "C4",
            "ticks": 147360,
            "time": 183.07348,
            "velocity": 1
          },
          {
            "duration": 0.45610657500000684,
            "durationTicks": 409,
            "midi": 63,
            "name": "D#4",
            "ticks": 147360,
            "time": 183.07348,
            "velocity": 1
          },
          {
            "duration": 0.18288870000000657,
            "durationTicks": 164,
            "midi": 32,
            "name": "G#1",
            "ticks": 147600,
            "time": 183.34112199999998,
            "velocity": 1
          },
          {
            "duration": 0.12086681249999742,
            "durationTicks": 105,
            "midi": 30,
            "name": "F#1",
            "ticks": 147840,
            "time": 183.60876399999998,
            "velocity": 1
          },
          {
            "duration": 0.12086681249999742,
            "durationTicks": 105,
            "midi": 42,
            "name": "F#2",
            "ticks": 147840,
            "time": 183.60876399999998,
            "velocity": 1
          },
          {
            "duration": 0.13122682499999883,
            "durationTicks": 114,
            "midi": 56,
            "name": "G#3",
            "ticks": 147840,
            "time": 183.60876399999998,
            "velocity": 1
          },
          {
            "duration": 0.11165791249999302,
            "durationTicks": 97,
            "midi": 58,
            "name": "A#3",
            "ticks": 147840,
            "time": 183.60876399999998,
            "velocity": 1
          },
          {
            "duration": 0.11165791249999302,
            "durationTicks": 97,
            "midi": 61,
            "name": "C#4",
            "ticks": 147840,
            "time": 183.60876399999998,
            "velocity": 1
          },
          {
            "duration": 0.13122682499999883,
            "durationTicks": 114,
            "midi": 65,
            "name": "F4",
            "ticks": 147840,
            "time": 183.60876399999998,
            "velocity": 1
          },
          {
            "duration": 0.08057787500001723,
            "durationTicks": 70,
            "midi": 30,
            "name": "F#1",
            "ticks": 148080,
            "time": 183.88503099999997,
            "velocity": 1
          },
          {
            "duration": 0.08057787500001723,
            "durationTicks": 70,
            "midi": 42,
            "name": "F#2",
            "ticks": 148080,
            "time": 183.88503099999997,
            "velocity": 1
          },
          {
            "duration": 0.08863566249999622,
            "durationTicks": 77,
            "midi": 56,
            "name": "G#3",
            "ticks": 148080,
            "time": 183.88503099999997,
            "velocity": 1
          },
          {
            "duration": 0.06791563750002183,
            "durationTicks": 59,
            "midi": 58,
            "name": "A#3",
            "ticks": 148080,
            "time": 183.88503099999997,
            "velocity": 1
          },
          {
            "duration": 0.06791563750002183,
            "durationTicks": 59,
            "midi": 61,
            "name": "C#4",
            "ticks": 148080,
            "time": 183.88503099999997,
            "velocity": 1
          },
          {
            "duration": 0.08863566249999622,
            "durationTicks": 77,
            "midi": 65,
            "name": "F4",
            "ticks": 148080,
            "time": 183.88503099999997,
            "velocity": 1
          },
          {
            "duration": 0.08057787499998881,
            "durationTicks": 70,
            "midi": 30,
            "name": "F#1",
            "ticks": 148320,
            "time": 184.161298,
            "velocity": 1
          },
          {
            "duration": 0.08863566249999622,
            "durationTicks": 77,
            "midi": 42,
            "name": "F#2",
            "ticks": 148320,
            "time": 184.161298,
            "velocity": 1
          },
          {
            "duration": 0.0713689749999844,
            "durationTicks": 62,
            "midi": 56,
            "name": "G#3",
            "ticks": 148320,
            "time": 184.161298,
            "velocity": 1
          },
          {
            "duration": 0.058706737499989003,
            "durationTicks": 51,
            "midi": 58,
            "name": "A#3",
            "ticks": 148320,
            "time": 184.161298,
            "velocity": 1
          },
          {
            "duration": 0.058706737499989003,
            "durationTicks": 51,
            "midi": 61,
            "name": "C#4",
            "ticks": 148320,
            "time": 184.161298,
            "velocity": 1
          },
          {
            "duration": 0.0713689749999844,
            "durationTicks": 62,
            "midi": 65,
            "name": "F4",
            "ticks": 148320,
            "time": 184.161298,
            "velocity": 1
          },
          {
            "duration": 0.10935568749999902,
            "durationTicks": 95,
            "midi": 30,
            "name": "F#1",
            "ticks": 148560,
            "time": 184.43756499999998,
            "velocity": 1
          },
          {
            "duration": 0.10935568749999902,
            "durationTicks": 95,
            "midi": 42,
            "name": "F#2",
            "ticks": 148560,
            "time": 184.43756499999998,
            "velocity": 1
          },
          {
            "duration": 0.10935568749999902,
            "durationTicks": 95,
            "midi": 54,
            "name": "F#3",
            "ticks": 148560,
            "time": 184.43756499999998,
            "velocity": 1
          },
          {
            "duration": 0.10935568749999902,
            "durationTicks": 95,
            "midi": 56,
            "name": "G#3",
            "ticks": 148560,
            "time": 184.43756499999998,
            "velocity": 1
          },
          {
            "duration": 0.10935568749999902,
            "durationTicks": 95,
            "midi": 58,
            "name": "A#3",
            "ticks": 148560,
            "time": 184.43756499999998,
            "velocity": 1
          },
          {
            "duration": 0.10935568749999902,
            "durationTicks": 95,
            "midi": 61,
            "name": "C#4",
            "ticks": 148560,
            "time": 184.43756499999998,
            "velocity": 1
          },
          {
            "duration": 0.10935568749999902,
            "durationTicks": 95,
            "midi": 65,
            "name": "F4",
            "ticks": 148560,
            "time": 184.43756499999998,
            "velocity": 1
          },
          {
            "duration": 0.10935568749999902,
            "durationTicks": 95,
            "midi": 30,
            "name": "F#1",
            "ticks": 148800,
            "time": 184.71383199999997,
            "velocity": 1
          },
          {
            "duration": 0.10935568749999902,
            "durationTicks": 95,
            "midi": 42,
            "name": "F#2",
            "ticks": 148800,
            "time": 184.71383199999997,
            "velocity": 1
          },
          {
            "duration": 0.10935568749999902,
            "durationTicks": 95,
            "midi": 54,
            "name": "F#3",
            "ticks": 148800,
            "time": 184.71383199999997,
            "velocity": 1
          },
          {
            "duration": 0.10935568749999902,
            "durationTicks": 95,
            "midi": 56,
            "name": "G#3",
            "ticks": 148800,
            "time": 184.71383199999997,
            "velocity": 1
          },
          {
            "duration": 0.10935568749999902,
            "durationTicks": 95,
            "midi": 58,
            "name": "A#3",
            "ticks": 148800,
            "time": 184.71383199999997,
            "velocity": 1
          },
          {
            "duration": 0.10935568749999902,
            "durationTicks": 95,
            "midi": 61,
            "name": "C#4",
            "ticks": 148800,
            "time": 184.71383199999997,
            "velocity": 1
          },
          {
            "duration": 0.10935568749999902,
            "durationTicks": 95,
            "midi": 65,
            "name": "F4",
            "ticks": 148800,
            "time": 184.71383199999997,
            "velocity": 1
          },
          {
            "duration": 0.11165791249999302,
            "durationTicks": 97,
            "midi": 30,
            "name": "F#1",
            "ticks": 149040,
            "time": 184.990099,
            "velocity": 1
          },
          {
            "duration": 0.11165791249999302,
            "durationTicks": 97,
            "midi": 42,
            "name": "F#2",
            "ticks": 149040,
            "time": 184.990099,
            "velocity": 1
          },
          {
            "duration": 0.11165791249999302,
            "durationTicks": 97,
            "midi": 54,
            "name": "F#3",
            "ticks": 149040,
            "time": 184.990099,
            "velocity": 1
          },
          {
            "duration": 0.11165791249999302,
            "durationTicks": 97,
            "midi": 56,
            "name": "G#3",
            "ticks": 149040,
            "time": 184.990099,
            "velocity": 1
          },
          {
            "duration": 0.11165791249999302,
            "durationTicks": 97,
            "midi": 58,
            "name": "A#3",
            "ticks": 149040,
            "time": 184.990099,
            "velocity": 1
          },
          {
            "duration": 0.11165791249999302,
            "durationTicks": 97,
            "midi": 61,
            "name": "C#4",
            "ticks": 149040,
            "time": 184.990099,
            "velocity": 1
          },
          {
            "duration": 0.11165791249999302,
            "durationTicks": 97,
            "midi": 65,
            "name": "F4",
            "ticks": 149040,
            "time": 184.990099,
            "velocity": 1
          },
          {
            "duration": 0.09093788749999021,
            "durationTicks": 79,
            "midi": 30,
            "name": "F#1",
            "ticks": 149280,
            "time": 185.26636599999998,
            "velocity": 1
          },
          {
            "duration": 0.09093788749999021,
            "durationTicks": 79,
            "midi": 42,
            "name": "F#2",
            "ticks": 149280,
            "time": 185.26636599999998,
            "velocity": 1
          },
          {
            "duration": 0.09093788749999021,
            "durationTicks": 79,
            "midi": 54,
            "name": "F#3",
            "ticks": 149280,
            "time": 185.26636599999998,
            "velocity": 1
          },
          {
            "duration": 0.09093788749999021,
            "durationTicks": 79,
            "midi": 56,
            "name": "G#3",
            "ticks": 149280,
            "time": 185.26636599999998,
            "velocity": 1
          },
          {
            "duration": 0.09093788749999021,
            "durationTicks": 79,
            "midi": 58,
            "name": "A#3",
            "ticks": 149280,
            "time": 185.26636599999998,
            "velocity": 1
          },
          {
            "duration": 0.09093788749999021,
            "durationTicks": 79,
            "midi": 61,
            "name": "C#4",
            "ticks": 149280,
            "time": 185.26636599999998,
            "velocity": 1
          },
          {
            "duration": 0.09093788749999021,
            "durationTicks": 79,
            "midi": 65,
            "name": "F4",
            "ticks": 149280,
            "time": 185.26636599999998,
            "velocity": 1
          },
          {
            "duration": 0.10935568749999902,
            "durationTicks": 95,
            "midi": 30,
            "name": "F#1",
            "ticks": 149520,
            "time": 185.54263299999997,
            "velocity": 1
          },
          {
            "duration": 0.10935568749999902,
            "durationTicks": 95,
            "midi": 42,
            "name": "F#2",
            "ticks": 149520,
            "time": 185.54263299999997,
            "velocity": 1
          },
          {
            "duration": 0.10935568749999902,
            "durationTicks": 95,
            "midi": 54,
            "name": "F#3",
            "ticks": 149520,
            "time": 185.54263299999997,
            "velocity": 1
          },
          {
            "duration": 0.10935568749999902,
            "durationTicks": 95,
            "midi": 56,
            "name": "G#3",
            "ticks": 149520,
            "time": 185.54263299999997,
            "velocity": 1
          },
          {
            "duration": 0.10935568749999902,
            "durationTicks": 95,
            "midi": 58,
            "name": "A#3",
            "ticks": 149520,
            "time": 185.54263299999997,
            "velocity": 1
          },
          {
            "duration": 0.10935568749999902,
            "durationTicks": 95,
            "midi": 61,
            "name": "C#4",
            "ticks": 149520,
            "time": 185.54263299999997,
            "velocity": 1
          },
          {
            "duration": 0.10935568749999902,
            "durationTicks": 95,
            "midi": 65,
            "name": "F4",
            "ticks": 149520,
            "time": 185.54263299999997,
            "velocity": 1
          },
          {
            "duration": 0.14964462500000764,
            "durationTicks": 130,
            "midi": 30,
            "name": "F#1",
            "ticks": 149760,
            "time": 185.81889999999999,
            "velocity": 1
          },
          {
            "duration": 0.14964462500000764,
            "durationTicks": 130,
            "midi": 42,
            "name": "F#2",
            "ticks": 149760,
            "time": 185.81889999999999,
            "velocity": 1
          },
          {
            "duration": 0.14964462500000764,
            "durationTicks": 130,
            "midi": 48,
            "name": "C3",
            "ticks": 149760,
            "time": 185.81889999999999,
            "velocity": 1
          },
          {
            "duration": 0.14964462500000764,
            "durationTicks": 130,
            "midi": 56,
            "name": "G#3",
            "ticks": 149760,
            "time": 185.81889999999999,
            "velocity": 1
          },
          {
            "duration": 0.14964462500000764,
            "durationTicks": 130,
            "midi": 58,
            "name": "A#3",
            "ticks": 149760,
            "time": 185.81889999999999,
            "velocity": 1
          },
          {
            "duration": 0.14964462500000764,
            "durationTicks": 130,
            "midi": 60,
            "name": "C4",
            "ticks": 149760,
            "time": 185.81889999999999,
            "velocity": 1
          },
          {
            "duration": 0.14964462500000764,
            "durationTicks": 130,
            "midi": 65,
            "name": "F4",
            "ticks": 149760,
            "time": 185.81889999999999,
            "velocity": 1
          },
          {
            "duration": 0.12892460000000483,
            "durationTicks": 112,
            "midi": 30,
            "name": "F#1",
            "ticks": 150000,
            "time": 186.09516699999998,
            "velocity": 1
          },
          {
            "duration": 0.12892460000000483,
            "durationTicks": 112,
            "midi": 42,
            "name": "F#2",
            "ticks": 150000,
            "time": 186.09516699999998,
            "velocity": 1
          },
          {
            "duration": 0.12892460000000483,
            "durationTicks": 112,
            "midi": 48,
            "name": "C3",
            "ticks": 150000,
            "time": 186.09516699999998,
            "velocity": 1
          },
          {
            "duration": 0.12892460000000483,
            "durationTicks": 112,
            "midi": 56,
            "name": "G#3",
            "ticks": 150000,
            "time": 186.09516699999998,
            "velocity": 1
          },
          {
            "duration": 0.12892460000000483,
            "durationTicks": 112,
            "midi": 58,
            "name": "A#3",
            "ticks": 150000,
            "time": 186.09516699999998,
            "velocity": 1
          },
          {
            "duration": 0.12892460000000483,
            "durationTicks": 112,
            "midi": 60,
            "name": "C4",
            "ticks": 150000,
            "time": 186.09516699999998,
            "velocity": 1
          },
          {
            "duration": 0.12892460000000483,
            "durationTicks": 112,
            "midi": 65,
            "name": "F4",
            "ticks": 150000,
            "time": 186.09516699999998,
            "velocity": 1
          },
          {
            "duration": 0.11050680000002444,
            "durationTicks": 96,
            "midi": 30,
            "name": "F#1",
            "ticks": 150240,
            "time": 186.37143399999997,
            "velocity": 1
          },
          {
            "duration": 0.11050680000002444,
            "durationTicks": 96,
            "midi": 42,
            "name": "F#2",
            "ticks": 150240,
            "time": 186.37143399999997,
            "velocity": 1
          },
          {
            "duration": 0.11050680000002444,
            "durationTicks": 96,
            "midi": 48,
            "name": "C3",
            "ticks": 150240,
            "time": 186.37143399999997,
            "velocity": 1
          },
          {
            "duration": 0.11050680000002444,
            "durationTicks": 96,
            "midi": 56,
            "name": "G#3",
            "ticks": 150240,
            "time": 186.37143399999997,
            "velocity": 1
          },
          {
            "duration": 0.11050680000002444,
            "durationTicks": 96,
            "midi": 58,
            "name": "A#3",
            "ticks": 150240,
            "time": 186.37143399999997,
            "velocity": 1
          },
          {
            "duration": 0.11050680000002444,
            "durationTicks": 96,
            "midi": 60,
            "name": "C4",
            "ticks": 150240,
            "time": 186.37143399999997,
            "velocity": 1
          },
          {
            "duration": 0.11050680000002444,
            "durationTicks": 96,
            "midi": 65,
            "name": "F4",
            "ticks": 150240,
            "time": 186.37143399999997,
            "velocity": 1
          },
          {
            "duration": 0.16115575000000604,
            "durationTicks": 140,
            "midi": 30,
            "name": "F#1",
            "ticks": 150480,
            "time": 186.64770099999998,
            "velocity": 1
          },
          {
            "duration": 0.16115575000000604,
            "durationTicks": 140,
            "midi": 42,
            "name": "F#2",
            "ticks": 150480,
            "time": 186.64770099999998,
            "velocity": 1
          },
          {
            "duration": 0.16115575000000604,
            "durationTicks": 140,
            "midi": 48,
            "name": "C3",
            "ticks": 150480,
            "time": 186.64770099999998,
            "velocity": 1
          },
          {
            "duration": 0.16115575000000604,
            "durationTicks": 140,
            "midi": 56,
            "name": "G#3",
            "ticks": 150480,
            "time": 186.64770099999998,
            "velocity": 1
          },
          {
            "duration": 0.16115575000000604,
            "durationTicks": 140,
            "midi": 58,
            "name": "A#3",
            "ticks": 150480,
            "time": 186.64770099999998,
            "velocity": 1
          },
          {
            "duration": 0.16115575000000604,
            "durationTicks": 140,
            "midi": 60,
            "name": "C4",
            "ticks": 150480,
            "time": 186.64770099999998,
            "velocity": 1
          },
          {
            "duration": 0.16115575000000604,
            "durationTicks": 140,
            "midi": 65,
            "name": "F4",
            "ticks": 150480,
            "time": 186.64770099999998,
            "velocity": 1
          },
          {
            "duration": 0.25324474999999325,
            "durationTicks": 220,
            "midi": 30,
            "name": "F#1",
            "ticks": 150720,
            "time": 186.92396799999997,
            "velocity": 1
          },
          {
            "duration": 0.25324474999999325,
            "durationTicks": 220,
            "midi": 42,
            "name": "F#2",
            "ticks": 150720,
            "time": 186.92396799999997,
            "velocity": 1
          },
          {
            "duration": 0.4949783750000165,
            "durationTicks": 430,
            "midi": 48,
            "name": "C3",
            "ticks": 150720,
            "time": 186.92396799999997,
            "velocity": 1
          },
          {
            "duration": 0.4949783750000165,
            "durationTicks": 430,
            "midi": 56,
            "name": "G#3",
            "ticks": 150720,
            "time": 186.92396799999997,
            "velocity": 1
          },
          {
            "duration": 0.4949783750000165,
            "durationTicks": 430,
            "midi": 58,
            "name": "A#3",
            "ticks": 150720,
            "time": 186.92396799999997,
            "velocity": 1
          },
          {
            "duration": 0.4949783750000165,
            "durationTicks": 430,
            "midi": 60,
            "name": "C4",
            "ticks": 150720,
            "time": 186.92396799999997,
            "velocity": 1
          },
          {
            "duration": 0.4949783750000165,
            "durationTicks": 430,
            "midi": 63,
            "name": "D#4",
            "ticks": 150720,
            "time": 186.92396799999997,
            "velocity": 1
          },
          {
            "duration": 0.24288473749999184,
            "durationTicks": 211,
            "midi": 30,
            "name": "F#1",
            "ticks": 150960,
            "time": 187.200235,
            "velocity": 1
          },
          {
            "duration": 0.24288473749999184,
            "durationTicks": 211,
            "midi": 42,
            "name": "F#2",
            "ticks": 150960,
            "time": 187.200235,
            "velocity": 1
          },
          {
            "duration": 0.26475587499999165,
            "durationTicks": 230,
            "midi": 30,
            "name": "F#1",
            "ticks": 151200,
            "time": 187.47650199999998,
            "velocity": 1
          },
          {
            "duration": 0.26475587499999165,
            "durationTicks": 230,
            "midi": 42,
            "name": "F#2",
            "ticks": 151200,
            "time": 187.47650199999998,
            "velocity": 1
          },
          {
            "duration": 0.5064894999999865,
            "durationTicks": 440,
            "midi": 48,
            "name": "C3",
            "ticks": 151200,
            "time": 187.47650199999998,
            "velocity": 1
          },
          {
            "duration": 0.5064894999999865,
            "durationTicks": 440,
            "midi": 56,
            "name": "G#3",
            "ticks": 151200,
            "time": 187.47650199999998,
            "velocity": 1
          },
          {
            "duration": 0.5064894999999865,
            "durationTicks": 440,
            "midi": 60,
            "name": "C4",
            "ticks": 151200,
            "time": 187.47650199999998,
            "velocity": 1
          },
          {
            "duration": 0.5064894999999865,
            "durationTicks": 440,
            "midi": 63,
            "name": "D#4",
            "ticks": 151200,
            "time": 187.47650199999998,
            "velocity": 1
          },
          {
            "duration": 0.5064894999999865,
            "durationTicks": 440,
            "midi": 68,
            "name": "G#4",
            "ticks": 151200,
            "time": 187.47650199999998,
            "velocity": 1
          },
          {
            "duration": 0.24288473750002026,
            "durationTicks": 211,
            "midi": 30,
            "name": "F#1",
            "ticks": 151440,
            "time": 187.75276899999997,
            "velocity": 1
          },
          {
            "duration": 0.24288473750002026,
            "durationTicks": 211,
            "midi": 42,
            "name": "F#2",
            "ticks": 151440,
            "time": 187.75276899999997,
            "velocity": 1
          },
          {
            "duration": 0.14983457499999986,
            "durationTicks": 132,
            "midi": 29,
            "name": "F1",
            "ticks": 151680,
            "time": 188.029036,
            "velocity": 1
          },
          {
            "duration": 0.14983457499999986,
            "durationTicks": 132,
            "midi": 41,
            "name": "F2",
            "ticks": 151680,
            "time": 188.029036,
            "velocity": 1
          },
          {
            "duration": 0.14983457499999986,
            "durationTicks": 132,
            "midi": 48,
            "name": "C3",
            "ticks": 151680,
            "time": 188.029036,
            "velocity": 1
          },
          {
            "duration": 0.14983457499999986,
            "durationTicks": 132,
            "midi": 53,
            "name": "F3",
            "ticks": 151680,
            "time": 188.029036,
            "velocity": 1
          },
          {
            "duration": 0.14983457499999986,
            "durationTicks": 132,
            "midi": 56,
            "name": "G#3",
            "ticks": 151680,
            "time": 188.029036,
            "velocity": 1
          },
          {
            "duration": 0.14983457499999986,
            "durationTicks": 132,
            "midi": 60,
            "name": "C4",
            "ticks": 151680,
            "time": 188.029036,
            "velocity": 1
          },
          {
            "duration": 0.14983457499999986,
            "durationTicks": 132,
            "midi": 63,
            "name": "D#4",
            "ticks": 151680,
            "time": 188.029036,
            "velocity": 1
          },
          {
            "duration": 0.14983457499999986,
            "durationTicks": 132,
            "midi": 68,
            "name": "G#4",
            "ticks": 151680,
            "time": 188.029036,
            "velocity": 1
          },
          {
            "duration": 0.1384834708333358,
            "durationTicks": 122,
            "midi": 29,
            "name": "F1",
            "ticks": 151920,
            "time": 188.30146249999999,
            "velocity": 1
          },
          {
            "duration": 0.1384834708333358,
            "durationTicks": 122,
            "midi": 41,
            "name": "F2",
            "ticks": 151920,
            "time": 188.30146249999999,
            "velocity": 1
          },
          {
            "duration": 0.1384834708333358,
            "durationTicks": 122,
            "midi": 48,
            "name": "C3",
            "ticks": 151920,
            "time": 188.30146249999999,
            "velocity": 1
          },
          {
            "duration": 0.1384834708333358,
            "durationTicks": 122,
            "midi": 53,
            "name": "F3",
            "ticks": 151920,
            "time": 188.30146249999999,
            "velocity": 1
          },
          {
            "duration": 0.1384834708333358,
            "durationTicks": 122,
            "midi": 56,
            "name": "G#3",
            "ticks": 151920,
            "time": 188.30146249999999,
            "velocity": 1
          },
          {
            "duration": 0.1384834708333358,
            "durationTicks": 122,
            "midi": 60,
            "name": "C4",
            "ticks": 151920,
            "time": 188.30146249999999,
            "velocity": 1
          },
          {
            "duration": 0.1384834708333358,
            "durationTicks": 122,
            "midi": 63,
            "name": "D#4",
            "ticks": 151920,
            "time": 188.30146249999999,
            "velocity": 1
          },
          {
            "duration": 0.1384834708333358,
            "durationTicks": 122,
            "midi": 68,
            "name": "G#4",
            "ticks": 151920,
            "time": 188.30146249999999,
            "velocity": 1
          },
          {
            "duration": 0.090808833333341,
            "durationTicks": 80,
            "midi": 29,
            "name": "F1",
            "ticks": 152160,
            "time": 188.57388899999998,
            "velocity": 1
          },
          {
            "duration": 0.07037684583335135,
            "durationTicks": 62,
            "midi": 41,
            "name": "F2",
            "ticks": 152160,
            "time": 188.57388899999998,
            "velocity": 1
          },
          {
            "duration": 0.049944858333333286,
            "durationTicks": 44,
            "midi": 60,
            "name": "C4",
            "ticks": 152160,
            "time": 188.57388899999998,
            "velocity": 1
          },
          {
            "duration": 0.049944858333333286,
            "durationTicks": 44,
            "midi": 63,
            "name": "D#4",
            "ticks": 152160,
            "time": 188.57388899999998,
            "velocity": 1
          },
          {
            "duration": 0.049944858333333286,
            "durationTicks": 44,
            "midi": 68,
            "name": "G#4",
            "ticks": 152160,
            "time": 188.57388899999998,
            "velocity": 1
          },
          {
            "duration": 0.12032170416665622,
            "durationTicks": 106,
            "midi": 29,
            "name": "F1",
            "ticks": 152400,
            "time": 188.8463155,
            "velocity": 1
          },
          {
            "duration": 0.08853861249997408,
            "durationTicks": 78,
            "midi": 41,
            "name": "F2",
            "ticks": 152400,
            "time": 188.8463155,
            "velocity": 1
          },
          {
            "duration": 0.05902574166665886,
            "durationTicks": 52,
            "midi": 60,
            "name": "C4",
            "ticks": 152400,
            "time": 188.8463155,
            "velocity": 1
          },
          {
            "duration": 0.049944858333333286,
            "durationTicks": 44,
            "midi": 63,
            "name": "D#4",
            "ticks": 152400,
            "time": 188.8463155,
            "velocity": 1
          },
          {
            "duration": 0.05902574166665886,
            "durationTicks": 52,
            "midi": 68,
            "name": "G#4",
            "ticks": 152400,
            "time": 188.8463155,
            "velocity": 1
          },
          {
            "duration": 0.10897059999999215,
            "durationTicks": 96,
            "midi": 29,
            "name": "F1",
            "ticks": 152640,
            "time": 189.118742,
            "velocity": 1
          },
          {
            "duration": 0.0794577291666485,
            "durationTicks": 70,
            "midi": 41,
            "name": "F2",
            "ticks": 152640,
            "time": 189.118742,
            "velocity": 1
          },
          {
            "duration": 0.07037684583332293,
            "durationTicks": 62,
            "midi": 60,
            "name": "C4",
            "ticks": 152640,
            "time": 189.118742,
            "velocity": 1
          },
          {
            "duration": 0.05902574166665886,
            "durationTicks": 52,
            "midi": 63,
            "name": "D#4",
            "ticks": 152640,
            "time": 189.118742,
            "velocity": 1
          },
          {
            "duration": 0.07037684583332293,
            "durationTicks": 62,
            "midi": 68,
            "name": "G#4",
            "ticks": 152640,
            "time": 189.118742,
            "velocity": 1
          },
          {
            "duration": 0.08967372291667175,
            "durationTicks": 79,
            "midi": 29,
            "name": "F1",
            "ticks": 152880,
            "time": 189.3911685,
            "velocity": 1
          },
          {
            "duration": 0.07945772916667693,
            "durationTicks": 70,
            "midi": 41,
            "name": "F2",
            "ticks": 152880,
            "time": 189.3911685,
            "velocity": 1
          },
          {
            "duration": 0.3110202541666638,
            "durationTicks": 274,
            "midi": 29,
            "name": "F1",
            "ticks": 153120,
            "time": 189.663595,
            "velocity": 1
          },
          {
            "duration": 0.2712913895833253,
            "durationTicks": 239,
            "midi": 41,
            "name": "F2",
            "ticks": 153120,
            "time": 189.663595,
            "velocity": 1
          },
          {
            "duration": 0.5414476687500098,
            "durationTicks": 477,
            "midi": 60,
            "name": "C4",
            "ticks": 153120,
            "time": 189.663595,
            "velocity": 1
          },
          {
            "duration": 0.5414476687500098,
            "durationTicks": 477,
            "midi": 63,
            "name": "D#4",
            "ticks": 153120,
            "time": 189.663595,
            "velocity": 1
          },
          {
            "duration": 0.5414476687500098,
            "durationTicks": 477,
            "midi": 68,
            "name": "G#4",
            "ticks": 153120,
            "time": 189.663595,
            "velocity": 1
          },
          {
            "duration": 0.5414476687500098,
            "durationTicks": 477,
            "midi": 72,
            "name": "C5",
            "ticks": 153120,
            "time": 189.663595,
            "velocity": 1
          },
          {
            "duration": 0.2701562791666845,
            "durationTicks": 238,
            "midi": 41,
            "name": "F2",
            "ticks": 153360,
            "time": 189.93602149999998,
            "velocity": 1
          },
          {
            "duration": 0.12145681458332547,
            "durationTicks": 107,
            "midi": 34,
            "name": "A#1",
            "ticks": 153600,
            "time": 190.208448,
            "velocity": 1
          },
          {
            "duration": 0.1123759312499999,
            "durationTicks": 99,
            "midi": 46,
            "name": "A#2",
            "ticks": 153600,
            "time": 190.208448,
            "velocity": 1
          },
          {
            "duration": 0.09080883333331258,
            "durationTicks": 80,
            "midi": 61,
            "name": "C#4",
            "ticks": 153600,
            "time": 190.208448,
            "velocity": 1
          },
          {
            "duration": 0.09080883333331258,
            "durationTicks": 80,
            "midi": 63,
            "name": "D#4",
            "ticks": 153600,
            "time": 190.208448,
            "velocity": 1
          },
          {
            "duration": 0.09080883333331258,
            "durationTicks": 80,
            "midi": 68,
            "name": "G#4",
            "ticks": 153600,
            "time": 190.208448,
            "velocity": 1
          },
          {
            "duration": 0.09080883333331258,
            "durationTicks": 80,
            "midi": 72,
            "name": "C5",
            "ticks": 153600,
            "time": 190.208448,
            "velocity": 1
          },
          {
            "duration": 0.05902574166665886,
            "durationTicks": 52,
            "midi": 34,
            "name": "A#1",
            "ticks": 153840,
            "time": 190.4808745,
            "velocity": 1
          },
          {
            "duration": 0.07037684583332293,
            "durationTicks": 62,
            "midi": 46,
            "name": "A#2",
            "ticks": 153840,
            "time": 190.4808745,
            "velocity": 1
          },
          {
            "duration": 0.07037684583332293,
            "durationTicks": 62,
            "midi": 61,
            "name": "C#4",
            "ticks": 153840,
            "time": 190.4808745,
            "velocity": 1
          },
          {
            "duration": 0.07037684583332293,
            "durationTicks": 62,
            "midi": 63,
            "name": "D#4",
            "ticks": 153840,
            "time": 190.4808745,
            "velocity": 1
          },
          {
            "duration": 0.07037684583332293,
            "durationTicks": 62,
            "midi": 68,
            "name": "G#4",
            "ticks": 153840,
            "time": 190.4808745,
            "velocity": 1
          },
          {
            "duration": 0.07037684583332293,
            "durationTicks": 62,
            "midi": 72,
            "name": "C5",
            "ticks": 153840,
            "time": 190.4808745,
            "velocity": 1
          },
          {
            "duration": 0.06129596249999736,
            "durationTicks": 54,
            "midi": 34,
            "name": "A#1",
            "ticks": 154080,
            "time": 190.753301,
            "velocity": 1
          },
          {
            "duration": 0.07037684583332293,
            "durationTicks": 62,
            "midi": 46,
            "name": "A#2",
            "ticks": 154080,
            "time": 190.753301,
            "velocity": 1
          },
          {
            "duration": 0.07037684583332293,
            "durationTicks": 62,
            "midi": 61,
            "name": "C#4",
            "ticks": 154080,
            "time": 190.753301,
            "velocity": 1
          },
          {
            "duration": 0.07037684583332293,
            "durationTicks": 62,
            "midi": 63,
            "name": "D#4",
            "ticks": 154080,
            "time": 190.753301,
            "velocity": 1
          },
          {
            "duration": 0.07037684583332293,
            "durationTicks": 62,
            "midi": 68,
            "name": "G#4",
            "ticks": 154080,
            "time": 190.753301,
            "velocity": 1
          },
          {
            "duration": 0.07037684583332293,
            "durationTicks": 62,
            "midi": 72,
            "name": "C5",
            "ticks": 154080,
            "time": 190.753301,
            "velocity": 1
          },
          {
            "duration": 0.05789063124998961,
            "durationTicks": 51,
            "midi": 34,
            "name": "A#1",
            "ticks": 154320,
            "time": 191.0257275,
            "velocity": 1
          },
          {
            "duration": 0.2769669416666716,
            "durationTicks": 244,
            "midi": 46,
            "name": "A#2",
            "ticks": 154320,
            "time": 191.0257275,
            "velocity": 1
          },
          {
            "duration": 0.07037684583332293,
            "durationTicks": 62,
            "midi": 61,
            "name": "C#4",
            "ticks": 154320,
            "time": 191.0257275,
            "velocity": 1
          },
          {
            "duration": 0.07037684583332293,
            "durationTicks": 62,
            "midi": 63,
            "name": "D#4",
            "ticks": 154320,
            "time": 191.0257275,
            "velocity": 1
          },
          {
            "duration": 0.07037684583332293,
            "durationTicks": 62,
            "midi": 68,
            "name": "G#4",
            "ticks": 154320,
            "time": 191.0257275,
            "velocity": 1
          },
          {
            "duration": 0.07037684583332293,
            "durationTicks": 62,
            "midi": 72,
            "name": "C5",
            "ticks": 154320,
            "time": 191.0257275,
            "velocity": 1
          },
          {
            "duration": 0.267886058333346,
            "durationTicks": 236,
            "midi": 34,
            "name": "A#1",
            "ticks": 154560,
            "time": 191.29815399999998,
            "velocity": 1
          },
          {
            "duration": 0.267886058333346,
            "durationTicks": 236,
            "midi": 46,
            "name": "A#2",
            "ticks": 154560,
            "time": 191.29815399999998,
            "velocity": 1
          },
          {
            "duration": 0.4949081416666843,
            "durationTicks": 436,
            "midi": 61,
            "name": "C#4",
            "ticks": 154560,
            "time": 191.29815399999998,
            "velocity": 1
          },
          {
            "duration": 0.4949081416666843,
            "durationTicks": 436,
            "midi": 65,
            "name": "F4",
            "ticks": 154560,
            "time": 191.29815399999998,
            "velocity": 1
          },
          {
            "duration": 0.4949081416666843,
            "durationTicks": 436,
            "midi": 68,
            "name": "G#4",
            "ticks": 154560,
            "time": 191.29815399999998,
            "velocity": 1
          },
          {
            "duration": 0.4949081416666843,
            "durationTicks": 436,
            "midi": 72,
            "name": "C5",
            "ticks": 154560,
            "time": 191.29815399999998,
            "velocity": 1
          },
          {
            "duration": 0.2270220833333383,
            "durationTicks": 200,
            "midi": 34,
            "name": "A#1",
            "ticks": 154800,
            "time": 191.57058049999998,
            "velocity": 1
          },
          {
            "duration": 0.2270220833333383,
            "durationTicks": 200,
            "midi": 46,
            "name": "A#2",
            "ticks": 154800,
            "time": 191.57058049999998,
            "velocity": 1
          },
          {
            "duration": 0.2973989291666612,
            "durationTicks": 262,
            "midi": 32,
            "name": "G#1",
            "ticks": 155040,
            "time": 191.843007,
            "velocity": 1
          },
          {
            "duration": 0.2973989291666612,
            "durationTicks": 262,
            "midi": 44,
            "name": "G#2",
            "ticks": 155040,
            "time": 191.843007,
            "velocity": 1
          },
          {
            "duration": 0.2973989291666612,
            "durationTicks": 262,
            "midi": 53,
            "name": "F3",
            "ticks": 155040,
            "time": 191.843007,
            "velocity": 1
          },
          {
            "duration": 0.2973989291666612,
            "durationTicks": 262,
            "midi": 60,
            "name": "C4",
            "ticks": 155040,
            "time": 191.843007,
            "velocity": 1
          },
          {
            "duration": 0.2973989291666612,
            "durationTicks": 262,
            "midi": 65,
            "name": "F4",
            "ticks": 155040,
            "time": 191.843007,
            "velocity": 1
          },
          {
            "duration": 0.2973989291666612,
            "durationTicks": 262,
            "midi": 68,
            "name": "G#4",
            "ticks": 155040,
            "time": 191.843007,
            "velocity": 1
          },
          {
            "duration": 0.2973989291666612,
            "durationTicks": 262,
            "midi": 72,
            "name": "C5",
            "ticks": 155040,
            "time": 191.843007,
            "velocity": 1
          },
          {
            "duration": 0.2973989291666612,
            "durationTicks": 262,
            "midi": 75,
            "name": "D#5",
            "ticks": 155040,
            "time": 191.843007,
            "velocity": 1
          },
          {
            "duration": 0.038593754166669214,
            "durationTicks": 34,
            "midi": 32,
            "name": "G#1",
            "ticks": 155280,
            "time": 192.1154335,
            "velocity": 1
          },
          {
            "duration": 0.06924173541665368,
            "durationTicks": 61,
            "midi": 44,
            "name": "G#2",
            "ticks": 155280,
            "time": 192.1154335,
            "velocity": 1
          },
          {
            "duration": 0.038593754166669214,
            "durationTicks": 34,
            "midi": 53,
            "name": "F3",
            "ticks": 155280,
            "time": 192.1154335,
            "velocity": 1
          },
          {
            "duration": 0.038593754166669214,
            "durationTicks": 34,
            "midi": 60,
            "name": "C4",
            "ticks": 155280,
            "time": 192.1154335,
            "velocity": 1
          },
          {
            "duration": 0.038593754166669214,
            "durationTicks": 34,
            "midi": 65,
            "name": "F4",
            "ticks": 155280,
            "time": 192.1154335,
            "velocity": 1
          },
          {
            "duration": 0.038593754166669214,
            "durationTicks": 34,
            "midi": 68,
            "name": "G#4",
            "ticks": 155280,
            "time": 192.1154335,
            "velocity": 1
          },
          {
            "duration": 0.038593754166669214,
            "durationTicks": 34,
            "midi": 72,
            "name": "C5",
            "ticks": 155280,
            "time": 192.1154335,
            "velocity": 1
          },
          {
            "duration": 0.038593754166669214,
            "durationTicks": 34,
            "midi": 75,
            "name": "D#5",
            "ticks": 155280,
            "time": 192.1154335,
            "velocity": 1
          },
          {
            "duration": 0.27958333333333485,
            "durationTicks": 244,
            "midi": 30,
            "name": "F#1",
            "ticks": 155520,
            "time": 192.38786,
            "velocity": 1
          },
          {
            "duration": 0.29218750000001137,
            "durationTicks": 255,
            "midi": 42,
            "name": "F#2",
            "ticks": 155520,
            "time": 192.38786,
            "velocity": 1
          },
          {
            "duration": 0.2704166666666765,
            "durationTicks": 236,
            "midi": 70,
            "name": "A#4",
            "ticks": 155520,
            "time": 192.38786,
            "velocity": 1
          },
          {
            "duration": 0.2704166666666765,
            "durationTicks": 236,
            "midi": 75,
            "name": "D#5",
            "ticks": 155520,
            "time": 192.38786,
            "velocity": 1
          },
          {
            "duration": 0.2830208333333246,
            "durationTicks": 247,
            "midi": 30,
            "name": "F#1",
            "ticks": 155760,
            "time": 192.66286,
            "velocity": 1
          },
          {
            "duration": 0.27958333333333485,
            "durationTicks": 244,
            "midi": 42,
            "name": "F#2",
            "ticks": 155760,
            "time": 192.66286,
            "velocity": 1
          },
          {
            "duration": 0.27958333333333485,
            "durationTicks": 244,
            "midi": 72,
            "name": "C5",
            "ticks": 155760,
            "time": 192.66286,
            "velocity": 1
          },
          {
            "duration": 0.27958333333333485,
            "durationTicks": 244,
            "midi": 77,
            "name": "F5",
            "ticks": 155760,
            "time": 192.66286,
            "velocity": 1
          },
          {
            "duration": 0.2738541666666663,
            "durationTicks": 239,
            "midi": 30,
            "name": "F#1",
            "ticks": 156000,
            "time": 192.93786,
            "velocity": 1
          },
          {
            "duration": 0.27499999999997726,
            "durationTicks": 240,
            "midi": 42,
            "name": "F#2",
            "ticks": 156000,
            "time": 192.93786,
            "velocity": 1
          },
          {
            "duration": 0.27499999999997726,
            "durationTicks": 240,
            "midi": 70,
            "name": "A#4",
            "ticks": 156000,
            "time": 192.93786,
            "velocity": 1
          },
          {
            "duration": 1.588124999999991,
            "durationTicks": 1386,
            "midi": 72,
            "name": "C5",
            "ticks": 156000,
            "time": 192.93786,
            "velocity": 1
          },
          {
            "duration": 0.549999999999983,
            "durationTicks": 480,
            "midi": 75,
            "name": "D#5",
            "ticks": 156000,
            "time": 192.93786,
            "velocity": 1
          },
          {
            "duration": 0.2750000000000057,
            "durationTicks": 240,
            "midi": 30,
            "name": "F#1",
            "ticks": 156240,
            "time": 193.21285999999998,
            "velocity": 1
          },
          {
            "duration": 0.2750000000000057,
            "durationTicks": 240,
            "midi": 42,
            "name": "F#2",
            "ticks": 156240,
            "time": 193.21285999999998,
            "velocity": 1
          },
          {
            "duration": 0.8341666666666754,
            "durationTicks": 728,
            "midi": 58,
            "name": "A#3",
            "ticks": 156240,
            "time": 193.21285999999998,
            "velocity": 1
          },
          {
            "duration": 0.284166666666664,
            "durationTicks": 248,
            "midi": 65,
            "name": "F4",
            "ticks": 156240,
            "time": 193.21285999999998,
            "velocity": 1
          },
          {
            "duration": 0.2727083333333553,
            "durationTicks": 238,
            "midi": 70,
            "name": "A#4",
            "ticks": 156240,
            "time": 193.21285999999998,
            "velocity": 1
          },
          {
            "duration": 0.26583333333334735,
            "durationTicks": 232,
            "midi": 30,
            "name": "F#1",
            "ticks": 156480,
            "time": 193.48785999999998,
            "velocity": 1
          },
          {
            "duration": 0.2727083333333269,
            "durationTicks": 238,
            "midi": 42,
            "name": "F#2",
            "ticks": 156480,
            "time": 193.48785999999998,
            "velocity": 1
          },
          {
            "duration": 0.284166666666664,
            "durationTicks": 248,
            "midi": 65,
            "name": "F4",
            "ticks": 156480,
            "time": 193.48785999999998,
            "velocity": 1
          },
          {
            "duration": 0.29677083333334053,
            "durationTicks": 259,
            "midi": 70,
            "name": "A#4",
            "ticks": 156480,
            "time": 193.48785999999998,
            "velocity": 1
          },
          {
            "duration": 1.038125000000008,
            "durationTicks": 906,
            "midi": 75,
            "name": "D#5",
            "ticks": 156480,
            "time": 193.48785999999998,
            "velocity": 1
          },
          {
            "duration": 0.5786458333333258,
            "durationTicks": 505,
            "midi": 30,
            "name": "F#1",
            "ticks": 156720,
            "time": 193.76286,
            "velocity": 1
          },
          {
            "duration": 0.7447916666666572,
            "durationTicks": 650,
            "midi": 42,
            "name": "F#2",
            "ticks": 156720,
            "time": 193.76286,
            "velocity": 1
          },
          {
            "duration": 0.2750000000000057,
            "durationTicks": 240,
            "midi": 61,
            "name": "C#4",
            "ticks": 156720,
            "time": 193.76286,
            "velocity": 1
          },
          {
            "duration": 0.29677083333334053,
            "durationTicks": 259,
            "midi": 65,
            "name": "F4",
            "ticks": 156720,
            "time": 193.76286,
            "velocity": 1
          },
          {
            "duration": 0.284166666666664,
            "durationTicks": 248,
            "midi": 70,
            "name": "A#4",
            "ticks": 156720,
            "time": 193.76286,
            "velocity": 1
          },
          {
            "duration": 0.26354166666666856,
            "durationTicks": 230,
            "midi": 58,
            "name": "A#3",
            "ticks": 156960,
            "time": 194.03786,
            "velocity": 1
          },
          {
            "duration": 0.26354166666666856,
            "durationTicks": 230,
            "midi": 61,
            "name": "C#4",
            "ticks": 156960,
            "time": 194.03786,
            "velocity": 1
          },
          {
            "duration": 0.2750000000000057,
            "durationTicks": 240,
            "midi": 65,
            "name": "F4",
            "ticks": 156960,
            "time": 194.03786,
            "velocity": 1
          },
          {
            "duration": 0.26697916666665833,
            "durationTicks": 233,
            "midi": 70,
            "name": "A#4",
            "ticks": 156960,
            "time": 194.03786,
            "velocity": 1
          },
          {
            "duration": 0.1844791666666481,
            "durationTicks": 161,
            "midi": 30,
            "name": "F#1",
            "ticks": 157200,
            "time": 194.31286,
            "velocity": 1
          },
          {
            "duration": 0.2131249999999909,
            "durationTicks": 186,
            "midi": 58,
            "name": "A#3",
            "ticks": 157200,
            "time": 194.31286,
            "velocity": 1
          },
          {
            "duration": 0.19479166666664582,
            "durationTicks": 170,
            "midi": 61,
            "name": "C#4",
            "ticks": 157200,
            "time": 194.31286,
            "velocity": 1
          },
          {
            "duration": 0.17302083333331097,
            "durationTicks": 151,
            "midi": 65,
            "name": "F4",
            "ticks": 157200,
            "time": 194.31286,
            "velocity": 1
          },
          {
            "duration": 0.20395833333333258,
            "durationTicks": 178,
            "midi": 70,
            "name": "A#4",
            "ticks": 157200,
            "time": 194.31286,
            "velocity": 1
          },
          {
            "duration": 0.07992795416666354,
            "durationTicks": 71,
            "midi": 32,
            "name": "G#1",
            "ticks": 157440,
            "time": 194.58785999999998,
            "velocity": 1
          },
          {
            "duration": 1.4634695833333353,
            "durationTicks": 1300,
            "midi": 44,
            "name": "G#2",
            "ticks": 157440,
            "time": 194.58785999999998,
            "velocity": 1
          },
          {
            "duration": 0.25892154166666614,
            "durationTicks": 230,
            "midi": 51,
            "name": "D#3",
            "ticks": 157680,
            "time": 194.858039,
            "velocity": 1
          },
          {
            "duration": 0.2701789999999846,
            "durationTicks": 240,
            "midi": 54,
            "name": "F#3",
            "ticks": 157680,
            "time": 194.858039,
            "velocity": 1
          },
          {
            "duration": 0.2611730333333071,
            "durationTicks": 232,
            "midi": 65,
            "name": "F4",
            "ticks": 157680,
            "time": 194.858039,
            "velocity": 1
          },
          {
            "duration": 0.25892154166666614,
            "durationTicks": 230,
            "midi": 70,
            "name": "A#4",
            "ticks": 157680,
            "time": 194.858039,
            "velocity": 1
          },
          {
            "duration": 0.2859394416666703,
            "durationTicks": 254,
            "midi": 51,
            "name": "D#3",
            "ticks": 157920,
            "time": 195.12821799999998,
            "velocity": 1
          },
          {
            "duration": 0.2735562375000029,
            "durationTicks": 243,
            "midi": 54,
            "name": "F#3",
            "ticks": 157920,
            "time": 195.12821799999998,
            "velocity": 1
          },
          {
            "duration": 0.2634245250000049,
            "durationTicks": 234,
            "midi": 60,
            "name": "C4",
            "ticks": 157920,
            "time": 195.12821799999998,
            "velocity": 1
          },
          {
            "duration": 0.060790275000016436,
            "durationTicks": 54,
            "midi": 65,
            "name": "F4",
            "ticks": 157920,
            "time": 195.12821799999998,
            "velocity": 1
          },
          {
            "duration": 0.5369807625000078,
            "durationTicks": 477,
            "midi": 70,
            "name": "A#4",
            "ticks": 157920,
            "time": 195.12821799999998,
            "velocity": 1
          },
          {
            "duration": 0.5291005416666792,
            "durationTicks": 470,
            "midi": 75,
            "name": "D#5",
            "ticks": 157920,
            "time": 195.12821799999998,
            "velocity": 1
          },
          {
            "duration": 0.06979624166666554,
            "durationTicks": 62,
            "midi": 51,
            "name": "D#3",
            "ticks": 158160,
            "time": 195.398397,
            "velocity": 1
          },
          {
            "duration": 0.07992795416666354,
            "durationTicks": 71,
            "midi": 54,
            "name": "F#3",
            "ticks": 158160,
            "time": 195.398397,
            "velocity": 1
          },
          {
            "duration": 0.07992795416666354,
            "durationTicks": 71,
            "midi": 60,
            "name": "C4",
            "ticks": 158160,
            "time": 195.398397,
            "velocity": 1
          },
          {
            "duration": 0.05065856249999001,
            "durationTicks": 45,
            "midi": 65,
            "name": "F4",
            "ticks": 158160,
            "time": 195.398397,
            "velocity": 1
          },
          {
            "duration": 0.29269391666665,
            "durationTicks": 260,
            "midi": 72,
            "name": "C5",
            "ticks": 158160,
            "time": 195.398397,
            "velocity": 1
          },
          {
            "duration": 0.5471124749999774,
            "durationTicks": 486,
            "midi": 77,
            "name": "F5",
            "ticks": 158160,
            "time": 195.398397,
            "velocity": 1
          },
          {
            "duration": 0.07204773333333492,
            "durationTicks": 64,
            "midi": 51,
            "name": "D#3",
            "ticks": 158400,
            "time": 195.66857599999997,
            "velocity": 1
          },
          {
            "duration": 0.07204773333333492,
            "durationTicks": 64,
            "midi": 54,
            "name": "F#3",
            "ticks": 158400,
            "time": 195.66857599999997,
            "velocity": 1
          },
          {
            "duration": 0.07204773333333492,
            "durationTicks": 64,
            "midi": 60,
            "name": "C4",
            "ticks": 158400,
            "time": 195.66857599999997,
            "velocity": 1
          },
          {
            "duration": 0.05178430833333891,
            "durationTicks": 46,
            "midi": 63,
            "name": "D#4",
            "ticks": 158400,
            "time": 195.66857599999997,
            "velocity": 1
          },
          {
            "duration": 0.3365980041666603,
            "durationTicks": 299,
            "midi": 70,
            "name": "A#4",
            "ticks": 158400,
            "time": 195.66857599999997,
            "velocity": 1
          },
          {
            "duration": 0.2656760166666743,
            "durationTicks": 236,
            "midi": 72,
            "name": "C5",
            "ticks": 158400,
            "time": 195.66857599999997,
            "velocity": 1
          },
          {
            "duration": 0.35573568333333583,
            "durationTicks": 316,
            "midi": 75,
            "name": "D#5",
            "ticks": 158400,
            "time": 195.66857599999997,
            "velocity": 1
          },
          {
            "duration": 0.06979624166666554,
            "durationTicks": 62,
            "midi": 51,
            "name": "D#3",
            "ticks": 158640,
            "time": 195.938755,
            "velocity": 1
          },
          {
            "duration": 0.272430491666654,
            "durationTicks": 242,
            "midi": 54,
            "name": "F#3",
            "ticks": 158640,
            "time": 195.938755,
            "velocity": 1
          },
          {
            "duration": 0.272430491666654,
            "durationTicks": 242,
            "midi": 60,
            "name": "C4",
            "ticks": 158640,
            "time": 195.938755,
            "velocity": 1
          },
          {
            "duration": 0.5471124750000058,
            "durationTicks": 486,
            "midi": 72,
            "name": "C5",
            "ticks": 158640,
            "time": 195.938755,
            "velocity": 1
          },
          {
            "duration": 0.3039513749999969,
            "durationTicks": 270,
            "midi": 77,
            "name": "F5",
            "ticks": 158640,
            "time": 195.938755,
            "velocity": 1
          },
          {
            "duration": 0.08330519166668182,
            "durationTicks": 74,
            "midi": 51,
            "name": "D#3",
            "ticks": 158880,
            "time": 196.20893399999997,
            "velocity": 1
          },
          {
            "duration": 0.08330519166668182,
            "durationTicks": 74,
            "midi": 54,
            "name": "F#3",
            "ticks": 158880,
            "time": 196.20893399999997,
            "velocity": 1
          },
          {
            "duration": 0.08330519166668182,
            "durationTicks": 74,
            "midi": 60,
            "name": "C4",
            "ticks": 158880,
            "time": 196.20893399999997,
            "velocity": 1
          },
          {
            "duration": 0.08330519166668182,
            "durationTicks": 74,
            "midi": 63,
            "name": "D#4",
            "ticks": 158880,
            "time": 196.20893399999997,
            "velocity": 1
          },
          {
            "duration": 0.3253405458333418,
            "durationTicks": 289,
            "midi": 75,
            "name": "D#5",
            "ticks": 158880,
            "time": 196.20893399999997,
            "velocity": 1
          },
          {
            "duration": 0.020263424999996005,
            "durationTicks": 18,
            "midi": 80,
            "name": "G#5",
            "ticks": 158880,
            "time": 196.20893399999997,
            "velocity": 1
          },
          {
            "duration": 0.4863222000000178,
            "durationTicks": 432,
            "midi": 80,
            "name": "G#5",
            "ticks": 158880,
            "time": 196.20893399999997,
            "velocity": 1
          },
          {
            "duration": 0.05065856249999001,
            "durationTicks": 45,
            "midi": 51,
            "name": "D#3",
            "ticks": 159120,
            "time": 196.47911299999998,
            "velocity": 1
          },
          {
            "duration": 0.22514916666665385,
            "durationTicks": 200,
            "midi": 54,
            "name": "F#3",
            "ticks": 159120,
            "time": 196.47911299999998,
            "velocity": 1
          },
          {
            "duration": 0.22514916666665385,
            "durationTicks": 200,
            "midi": 60,
            "name": "C4",
            "ticks": 159120,
            "time": 196.47911299999998,
            "velocity": 1
          },
          {
            "duration": 0.22514916666665385,
            "durationTicks": 200,
            "midi": 63,
            "name": "D#4",
            "ticks": 159120,
            "time": 196.47911299999998,
            "velocity": 1
          },
          {
            "duration": 0.22514916666665385,
            "durationTicks": 200,
            "midi": 72,
            "name": "C5",
            "ticks": 159120,
            "time": 196.47911299999998,
            "velocity": 1
          },
          {
            "duration": 0.23302938749998248,
            "durationTicks": 207,
            "midi": 77,
            "name": "F5",
            "ticks": 159120,
            "time": 196.47911299999998,
            "velocity": 1
          },
          {
            "duration": 1.0870262083333273,
            "durationTicks": 980,
            "midi": 46,
            "name": "A#2",
            "ticks": 159360,
            "time": 196.74929199999997,
            "velocity": 1
          },
          {
            "duration": 0.2684289208333439,
            "durationTicks": 242,
            "midi": 53,
            "name": "F3",
            "ticks": 159360,
            "time": 196.74929199999997,
            "velocity": 1
          },
          {
            "duration": 1.0870262083333273,
            "durationTicks": 980,
            "midi": 58,
            "name": "A#3",
            "ticks": 159360,
            "time": 196.74929199999997,
            "velocity": 1
          },
          {
            "duration": 1.9766129625000133,
            "durationTicks": 1782,
            "midi": 63,
            "name": "D#4",
            "ticks": 159360,
            "time": 196.74929199999997,
            "velocity": 1
          },
          {
            "duration": 0.5290933687500115,
            "durationTicks": 477,
            "midi": 70,
            "name": "A#4",
            "ticks": 159360,
            "time": 196.74929199999997,
            "velocity": 1
          },
          {
            "duration": 0.5290933687500115,
            "durationTicks": 477,
            "midi": 75,
            "name": "D#5",
            "ticks": 159360,
            "time": 196.74929199999997,
            "velocity": 1
          },
          {
            "duration": 0.798631499999999,
            "durationTicks": 720,
            "midi": 53,
            "name": "F3",
            "ticks": 159600,
            "time": 197.01550249999997,
            "velocity": 1
          },
          {
            "duration": 0.8185972875000118,
            "durationTicks": 738,
            "midi": 72,
            "name": "C5",
            "ticks": 159600,
            "time": 197.01550249999997,
            "velocity": 1
          },
          {
            "duration": 0.8185972875000118,
            "durationTicks": 738,
            "midi": 77,
            "name": "F5",
            "ticks": 159600,
            "time": 197.01550249999997,
            "velocity": 1
          },
          {
            "duration": 0.5379670520833315,
            "durationTicks": 485,
            "midi": 56,
            "name": "G#3",
            "ticks": 159840,
            "time": 197.28171299999997,
            "velocity": 1
          },
          {
            "duration": 0.5379670520833315,
            "durationTicks": 485,
            "midi": 61,
            "name": "C#4",
            "ticks": 159840,
            "time": 197.28171299999997,
            "velocity": 1
          },
          {
            "duration": 0.5379670520833315,
            "durationTicks": 485,
            "midi": 65,
            "name": "F4",
            "ticks": 159840,
            "time": 197.28171299999997,
            "velocity": 1
          },
          {
            "duration": 0.26399207916665546,
            "durationTicks": 238,
            "midi": 70,
            "name": "A#4",
            "ticks": 159840,
            "time": 197.28171299999997,
            "velocity": 1
          },
          {
            "duration": 0.5568236291666722,
            "durationTicks": 502,
            "midi": 75,
            "name": "D#5",
            "ticks": 159840,
            "time": 197.28171299999997,
            "velocity": 1
          },
          {
            "duration": 0.2939407604166604,
            "durationTicks": 265,
            "midi": 70,
            "name": "A#4",
            "ticks": 160080,
            "time": 197.54792349999997,
            "velocity": 1
          },
          {
            "duration": 0.27286576250000394,
            "durationTicks": 246,
            "midi": 53,
            "name": "F3",
            "ticks": 160320,
            "time": 197.81413399999997,
            "velocity": 1
          },
          {
            "duration": 0.27286576250000394,
            "durationTicks": 246,
            "midi": 56,
            "name": "G#3",
            "ticks": 160320,
            "time": 197.81413399999997,
            "velocity": 1
          },
          {
            "duration": 0.27286576250000394,
            "durationTicks": 246,
            "midi": 61,
            "name": "C#4",
            "ticks": 160320,
            "time": 197.81413399999997,
            "velocity": 1
          },
          {
            "duration": 1.0954899812500116,
            "durationTicks": 987,
            "midi": 65,
            "name": "F4",
            "ticks": 160320,
            "time": 197.81413399999997,
            "velocity": 1
          },
          {
            "duration": 0.9095525416666703,
            "durationTicks": 820,
            "midi": 68,
            "name": "G#4",
            "ticks": 160320,
            "time": 197.81413399999997,
            "velocity": 1
          },
          {
            "duration": 0.9095525416666703,
            "durationTicks": 820,
            "midi": 73,
            "name": "C#5",
            "ticks": 160320,
            "time": 197.81413399999997,
            "velocity": 1
          },
          {
            "duration": 0.2540091854166633,
            "durationTicks": 229,
            "midi": 53,
            "name": "F3",
            "ticks": 160560,
            "time": 198.08034449999997,
            "velocity": 1
          },
          {
            "duration": 0.2540091854166633,
            "durationTicks": 229,
            "midi": 56,
            "name": "G#3",
            "ticks": 160560,
            "time": 198.08034449999997,
            "velocity": 1
          },
          {
            "duration": 0.2540091854166633,
            "durationTicks": 229,
            "midi": 61,
            "name": "C#4",
            "ticks": 160560,
            "time": 198.08034449999997,
            "velocity": 1
          },
          {
            "duration": 0.27508418333334816,
            "durationTicks": 248,
            "midi": 53,
            "name": "F3",
            "ticks": 160800,
            "time": 198.34655499999997,
            "velocity": 1
          },
          {
            "duration": 0.27508418333334816,
            "durationTicks": 248,
            "midi": 56,
            "name": "G#3",
            "ticks": 160800,
            "time": 198.34655499999997,
            "velocity": 1
          },
          {
            "duration": 0.27508418333334816,
            "durationTicks": 248,
            "midi": 61,
            "name": "C#4",
            "ticks": 160800,
            "time": 198.34655499999997,
            "velocity": 1
          },
          {
            "duration": 0.2934531500000048,
            "durationTicks": 264,
            "midi": 53,
            "name": "F3",
            "ticks": 161040,
            "time": 198.61276549999997,
            "velocity": 1
          },
          {
            "duration": 0.2934531500000048,
            "durationTicks": 264,
            "midi": 56,
            "name": "G#3",
            "ticks": 161040,
            "time": 198.61276549999997,
            "velocity": 1
          },
          {
            "duration": 0.10648420000001124,
            "durationTicks": 96,
            "midi": 61,
            "name": "C#4",
            "ticks": 161040,
            "time": 198.61276549999997,
            "velocity": 1
          },
          {
            "duration": 0.25994028541666125,
            "durationTicks": 229,
            "midi": 46,
            "name": "A#2",
            "ticks": 161280,
            "time": 198.87897599999997,
            "velocity": 1
          },
          {
            "duration": 0.25994028541666125,
            "durationTicks": 229,
            "midi": 53,
            "name": "F3",
            "ticks": 161280,
            "time": 198.87897599999997,
            "velocity": 1
          },
          {
            "duration": 0.25994028541666125,
            "durationTicks": 229,
            "midi": 56,
            "name": "G#3",
            "ticks": 161280,
            "time": 198.87897599999997,
            "velocity": 1
          },
          {
            "duration": 0.25994028541666125,
            "durationTicks": 229,
            "midi": 58,
            "name": "A#3",
            "ticks": 161280,
            "time": 198.87897599999997,
            "velocity": 1
          },
          {
            "duration": 0.25994028541666125,
            "durationTicks": 229,
            "midi": 61,
            "name": "C#4",
            "ticks": 161280,
            "time": 198.87897599999997,
            "velocity": 1
          },
          {
            "duration": 0.25994028541666125,
            "durationTicks": 229,
            "midi": 65,
            "name": "F4",
            "ticks": 161280,
            "time": 198.87897599999997,
            "velocity": 1
          },
          {
            "duration": 0.25994028541666125,
            "durationTicks": 229,
            "midi": 73,
            "name": "C#5",
            "ticks": 161280,
            "time": 198.87897599999997,
            "velocity": 1
          },
          {
            "duration": 0.25994028541666125,
            "durationTicks": 229,
            "midi": 77,
            "name": "F5",
            "ticks": 161280,
            "time": 198.87897599999997,
            "velocity": 1
          },
          {
            "duration": 0.25994028541666125,
            "durationTicks": 229,
            "midi": 80,
            "name": "G#5",
            "ticks": 161280,
            "time": 198.87897599999997,
            "velocity": 1
          },
          {
            "duration": 0.25994028541666125,
            "durationTicks": 229,
            "midi": 85,
            "name": "C#6",
            "ticks": 161280,
            "time": 198.87897599999997,
            "velocity": 1
          },
          {
            "duration": 0.2202114208333512,
            "durationTicks": 194,
            "midi": 46,
            "name": "A#2",
            "ticks": 161520,
            "time": 199.15140249999996,
            "velocity": 1
          },
          {
            "duration": 0.2202114208333512,
            "durationTicks": 194,
            "midi": 53,
            "name": "F3",
            "ticks": 161520,
            "time": 199.15140249999996,
            "velocity": 1
          },
          {
            "duration": 0.2202114208333512,
            "durationTicks": 194,
            "midi": 56,
            "name": "G#3",
            "ticks": 161520,
            "time": 199.15140249999996,
            "velocity": 1
          },
          {
            "duration": 0.2202114208333512,
            "durationTicks": 194,
            "midi": 58,
            "name": "A#3",
            "ticks": 161520,
            "time": 199.15140249999996,
            "velocity": 1
          },
          {
            "duration": 0.2202114208333512,
            "durationTicks": 194,
            "midi": 61,
            "name": "C#4",
            "ticks": 161520,
            "time": 199.15140249999996,
            "velocity": 1
          },
          {
            "duration": 0.2202114208333512,
            "durationTicks": 194,
            "midi": 65,
            "name": "F4",
            "ticks": 161520,
            "time": 199.15140249999996,
            "velocity": 1
          },
          {
            "duration": 0.2202114208333512,
            "durationTicks": 194,
            "midi": 73,
            "name": "C#5",
            "ticks": 161520,
            "time": 199.15140249999996,
            "velocity": 1
          },
          {
            "duration": 0.2202114208333512,
            "durationTicks": 194,
            "midi": 77,
            "name": "F5",
            "ticks": 161520,
            "time": 199.15140249999996,
            "velocity": 1
          },
          {
            "duration": 0.2202114208333512,
            "durationTicks": 194,
            "midi": 80,
            "name": "G#5",
            "ticks": 161520,
            "time": 199.15140249999996,
            "velocity": 1
          },
          {
            "duration": 0.2202114208333512,
            "durationTicks": 194,
            "midi": 85,
            "name": "C#6",
            "ticks": 161520,
            "time": 199.15140249999996,
            "velocity": 1
          },
          {
            "duration": 0.32918202083334336,
            "durationTicks": 290,
            "midi": 46,
            "name": "A#2",
            "ticks": 161760,
            "time": 199.42382899999996,
            "velocity": 1
          },
          {
            "duration": 0.32918202083334336,
            "durationTicks": 290,
            "midi": 53,
            "name": "F3",
            "ticks": 161760,
            "time": 199.42382899999996,
            "velocity": 1
          },
          {
            "duration": 0.32918202083334336,
            "durationTicks": 290,
            "midi": 56,
            "name": "G#3",
            "ticks": 161760,
            "time": 199.42382899999996,
            "velocity": 1
          },
          {
            "duration": 0.5380423375000021,
            "durationTicks": 474,
            "midi": 73,
            "name": "C#5",
            "ticks": 161760,
            "time": 199.42382899999996,
            "velocity": 1
          },
          {
            "duration": 0.5380423375000021,
            "durationTicks": 474,
            "midi": 77,
            "name": "F5",
            "ticks": 161760,
            "time": 199.42382899999996,
            "velocity": 1
          },
          {
            "duration": 0.5380423375000021,
            "durationTicks": 474,
            "midi": 80,
            "name": "G#5",
            "ticks": 161760,
            "time": 199.42382899999996,
            "velocity": 1
          },
          {
            "duration": 0.5380423375000021,
            "durationTicks": 474,
            "midi": 85,
            "name": "C#6",
            "ticks": 161760,
            "time": 199.42382899999996,
            "velocity": 1
          },
          {
            "duration": 0.20886031666665872,
            "durationTicks": 184,
            "midi": 46,
            "name": "A#2",
            "ticks": 162000,
            "time": 199.69625549999998,
            "velocity": 1
          },
          {
            "duration": 0.20886031666665872,
            "durationTicks": 184,
            "midi": 53,
            "name": "F3",
            "ticks": 162000,
            "time": 199.69625549999998,
            "velocity": 1
          },
          {
            "duration": 0.20886031666665872,
            "durationTicks": 184,
            "midi": 56,
            "name": "G#3",
            "ticks": 162000,
            "time": 199.69625549999998,
            "velocity": 1
          },
          {
            "duration": 0.28150738333332015,
            "durationTicks": 248,
            "midi": 44,
            "name": "G#2",
            "ticks": 162240,
            "time": 199.96868199999997,
            "velocity": 1
          },
          {
            "duration": 0.28150738333332015,
            "durationTicks": 248,
            "midi": 53,
            "name": "F3",
            "ticks": 162240,
            "time": 199.96868199999997,
            "velocity": 1
          },
          {
            "duration": 0.28150738333332015,
            "durationTicks": 248,
            "midi": 56,
            "name": "G#3",
            "ticks": 162240,
            "time": 199.96868199999997,
            "velocity": 1
          },
          {
            "duration": 0.28150738333332015,
            "durationTicks": 248,
            "midi": 72,
            "name": "C5",
            "ticks": 162240,
            "time": 199.96868199999997,
            "velocity": 1
          },
          {
            "duration": 0.28150738333332015,
            "durationTicks": 248,
            "midi": 77,
            "name": "F5",
            "ticks": 162240,
            "time": 199.96868199999997,
            "velocity": 1
          },
          {
            "duration": 0.28150738333332015,
            "durationTicks": 248,
            "midi": 80,
            "name": "G#5",
            "ticks": 162240,
            "time": 199.96868199999997,
            "velocity": 1
          },
          {
            "duration": 0.28150738333332015,
            "durationTicks": 248,
            "midi": 84,
            "name": "C6",
            "ticks": 162240,
            "time": 199.96868199999997,
            "velocity": 1
          },
          {
            "duration": 0.27923716250001007,
            "durationTicks": 246,
            "midi": 44,
            "name": "G#2",
            "ticks": 162480,
            "time": 200.24110849999997,
            "velocity": 1
          },
          {
            "duration": 0.27923716250001007,
            "durationTicks": 246,
            "midi": 53,
            "name": "F3",
            "ticks": 162480,
            "time": 200.24110849999997,
            "velocity": 1
          },
          {
            "duration": 0.27923716250001007,
            "durationTicks": 246,
            "midi": 56,
            "name": "G#3",
            "ticks": 162480,
            "time": 200.24110849999997,
            "velocity": 1
          },
          {
            "duration": 0.27923716250001007,
            "durationTicks": 246,
            "midi": 68,
            "name": "G#4",
            "ticks": 162480,
            "time": 200.24110849999997,
            "velocity": 1
          },
          {
            "duration": 0.27923716250001007,
            "durationTicks": 246,
            "midi": 80,
            "name": "G#5",
            "ticks": 162480,
            "time": 200.24110849999997,
            "velocity": 1
          },
          {
            "duration": 0.4880974791666688,
            "durationTicks": 430,
            "midi": 44,
            "name": "G#2",
            "ticks": 162720,
            "time": 200.51353499999996,
            "velocity": 1
          },
          {
            "duration": 0.27923716250001007,
            "durationTicks": 246,
            "midi": 53,
            "name": "F3",
            "ticks": 162720,
            "time": 200.51353499999996,
            "velocity": 1
          },
          {
            "duration": 0.27923716250001007,
            "durationTicks": 246,
            "midi": 56,
            "name": "G#3",
            "ticks": 162720,
            "time": 200.51353499999996,
            "velocity": 1
          },
          {
            "duration": 0.27923716250001007,
            "durationTicks": 246,
            "midi": 65,
            "name": "F4",
            "ticks": 162720,
            "time": 200.51353499999996,
            "velocity": 1
          },
          {
            "duration": 0.30988514374999454,
            "durationTicks": 273,
            "midi": 77,
            "name": "F5",
            "ticks": 162720,
            "time": 200.51353499999996,
            "velocity": 1
          },
          {
            "duration": 0.20886031666668714,
            "durationTicks": 184,
            "midi": 53,
            "name": "F3",
            "ticks": 162960,
            "time": 200.78596149999996,
            "velocity": 1
          },
          {
            "duration": 0.20886031666668714,
            "durationTicks": 184,
            "midi": 56,
            "name": "G#3",
            "ticks": 162960,
            "time": 200.78596149999996,
            "velocity": 1
          },
          {
            "duration": 0.20886031666668714,
            "durationTicks": 184,
            "midi": 65,
            "name": "F4",
            "ticks": 162960,
            "time": 200.78596149999996,
            "velocity": 1
          },
          {
            "duration": 0.19977943333333315,
            "durationTicks": 176,
            "midi": 68,
            "name": "G#4",
            "ticks": 162960,
            "time": 200.78596149999996,
            "velocity": 1
          },
          {
            "duration": 0.18842832916666907,
            "durationTicks": 166,
            "midi": 72,
            "name": "C5",
            "ticks": 162960,
            "time": 200.78596149999996,
            "velocity": 1
          },
          {
            "duration": 0.18048255625001275,
            "durationTicks": 159,
            "midi": 77,
            "name": "F5",
            "ticks": 162960,
            "time": 200.78596149999996,
            "velocity": 1
          },
          {
            "duration": 2.2147589333333144,
            "durationTicks": 1952,
            "midi": 42,
            "name": "F#2",
            "ticks": 163200,
            "time": 201.05838799999998,
            "velocity": 1
          },
          {
            "duration": 0.2712913895833253,
            "durationTicks": 239,
            "midi": 49,
            "name": "C#3",
            "ticks": 163200,
            "time": 201.05838799999998,
            "velocity": 1
          },
          {
            "duration": 0.049944858333333286,
            "durationTicks": 44,
            "midi": 65,
            "name": "F4",
            "ticks": 163200,
            "time": 201.05838799999998,
            "velocity": 1
          },
          {
            "duration": 0.009080883333325573,
            "durationTicks": 8,
            "midi": 70,
            "name": "A#4",
            "ticks": 163200,
            "time": 201.05838799999998,
            "velocity": 1
          },
          {
            "duration": 0.2712913895833253,
            "durationTicks": 239,
            "midi": 70,
            "name": "A#4",
            "ticks": 163200,
            "time": 201.05838799999998,
            "velocity": 1
          },
          {
            "duration": 0.020431987499989646,
            "durationTicks": 18,
            "midi": 75,
            "name": "D#5",
            "ticks": 163200,
            "time": 201.05838799999998,
            "velocity": 1
          },
          {
            "duration": 0.2678860583333176,
            "durationTicks": 236,
            "midi": 75,
            "name": "D#5",
            "ticks": 163200,
            "time": 201.05838799999998,
            "velocity": 1
          },
          {
            "duration": 0.28831804583333565,
            "durationTicks": 254,
            "midi": 49,
            "name": "C#3",
            "ticks": 163440,
            "time": 201.33081449999997,
            "velocity": 1
          },
          {
            "duration": 0.2712913895833253,
            "durationTicks": 239,
            "midi": 65,
            "name": "F4",
            "ticks": 163440,
            "time": 201.33081449999997,
            "velocity": 1
          },
          {
            "duration": 0.2712913895833253,
            "durationTicks": 239,
            "midi": 70,
            "name": "A#4",
            "ticks": 163440,
            "time": 201.33081449999997,
            "velocity": 1
          },
          {
            "duration": 1.9147176416666696,
            "durationTicks": 1687,
            "midi": 72,
            "name": "C5",
            "ticks": 163440,
            "time": 201.33081449999997,
            "velocity": 1
          },
          {
            "duration": 0.2610753958333305,
            "durationTicks": 230,
            "midi": 75,
            "name": "D#5",
            "ticks": 163440,
            "time": 201.33081449999997,
            "velocity": 1
          },
          {
            "duration": 1.53353417291666,
            "durationTicks": 1351,
            "midi": 77,
            "name": "F5",
            "ticks": 163440,
            "time": 201.33081449999997,
            "velocity": 1
          },
          {
            "duration": 0.2565349541666535,
            "durationTicks": 226,
            "midi": 49,
            "name": "C#3",
            "ticks": 163680,
            "time": 201.60324099999997,
            "velocity": 1
          },
          {
            "duration": 0.2690211687499868,
            "durationTicks": 237,
            "midi": 58,
            "name": "A#3",
            "ticks": 163680,
            "time": 201.60324099999997,
            "velocity": 1
          },
          {
            "duration": 0.26675094791667675,
            "durationTicks": 235,
            "midi": 65,
            "name": "F4",
            "ticks": 163680,
            "time": 201.60324099999997,
            "velocity": 1
          },
          {
            "duration": 0.26675094791667675,
            "durationTicks": 235,
            "midi": 70,
            "name": "A#4",
            "ticks": 163680,
            "time": 201.60324099999997,
            "velocity": 1
          },
          {
            "duration": 0.5527987729166739,
            "durationTicks": 487,
            "midi": 75,
            "name": "D#5",
            "ticks": 163680,
            "time": 201.60324099999997,
            "velocity": 1
          },
          {
            "duration": 0.2781020520833408,
            "durationTicks": 245,
            "midi": 49,
            "name": "C#3",
            "ticks": 163920,
            "time": 201.87566749999996,
            "velocity": 1
          },
          {
            "duration": 0.2871829354166664,
            "durationTicks": 253,
            "midi": 58,
            "name": "A#3",
            "ticks": 163920,
            "time": 201.87566749999996,
            "velocity": 1
          },
          {
            "duration": 0.2871829354166664,
            "durationTicks": 253,
            "midi": 65,
            "name": "F4",
            "ticks": 163920,
            "time": 201.87566749999996,
            "velocity": 1
          },
          {
            "duration": 0.2871829354166664,
            "durationTicks": 253,
            "midi": 70,
            "name": "A#4",
            "ticks": 163920,
            "time": 201.87566749999996,
            "velocity": 1
          },
          {
            "duration": 0.2871829354166664,
            "durationTicks": 253,
            "midi": 49,
            "name": "C#3",
            "ticks": 164160,
            "time": 202.14809399999996,
            "velocity": 1
          },
          {
            "duration": 0.2781020520833408,
            "durationTicks": 245,
            "midi": 58,
            "name": "A#3",
            "ticks": 164160,
            "time": 202.14809399999996,
            "velocity": 1
          },
          {
            "duration": 0.2781020520833408,
            "durationTicks": 245,
            "midi": 65,
            "name": "F4",
            "ticks": 164160,
            "time": 202.14809399999996,
            "velocity": 1
          },
          {
            "duration": 1.1106932416666666,
            "durationTicks": 979,
            "midi": 70,
            "name": "A#4",
            "ticks": 164160,
            "time": 202.14809399999996,
            "velocity": 1
          },
          {
            "duration": 1.1106932416666666,
            "durationTicks": 979,
            "midi": 75,
            "name": "D#5",
            "ticks": 164160,
            "time": 202.14809399999996,
            "velocity": 1
          },
          {
            "duration": 0.2781020520833408,
            "durationTicks": 245,
            "midi": 49,
            "name": "C#3",
            "ticks": 164400,
            "time": 202.42052049999995,
            "velocity": 1
          },
          {
            "duration": 0.2565349541666819,
            "durationTicks": 226,
            "midi": 58,
            "name": "A#3",
            "ticks": 164400,
            "time": 202.42052049999995,
            "velocity": 1
          },
          {
            "duration": 0.2656158375000075,
            "durationTicks": 234,
            "midi": 65,
            "name": "F4",
            "ticks": 164400,
            "time": 202.42052049999995,
            "velocity": 1
          },
          {
            "duration": 0.2656158374999791,
            "durationTicks": 234,
            "midi": 49,
            "name": "C#3",
            "ticks": 164640,
            "time": 202.69294699999998,
            "velocity": 1
          },
          {
            "duration": 0.2758318312500023,
            "durationTicks": 243,
            "midi": 58,
            "name": "A#3",
            "ticks": 164640,
            "time": 202.69294699999998,
            "velocity": 1
          },
          {
            "duration": 0.5459575916666495,
            "durationTicks": 481,
            "midi": 65,
            "name": "F4",
            "ticks": 164640,
            "time": 202.69294699999998,
            "velocity": 1
          },
          {
            "duration": 0.28899537499998473,
            "durationTicks": 255,
            "midi": 49,
            "name": "C#3",
            "ticks": 164880,
            "time": 202.96537349999997,
            "velocity": 1
          },
          {
            "duration": 0.28899537499998473,
            "durationTicks": 255,
            "midi": 58,
            "name": "A#3",
            "ticks": 164880,
            "time": 202.96537349999997,
            "velocity": 1
          },
          {
            "duration": 2.095410391666661,
            "durationTicks": 1897,
            "midi": 44,
            "name": "G#2",
            "ticks": 165120,
            "time": 203.23779999999996,
            "velocity": 1
          },
          {
            "duration": 2.095410391666661,
            "durationTicks": 1897,
            "midi": 51,
            "name": "D#3",
            "ticks": 165120,
            "time": 203.23779999999996,
            "velocity": 1
          },
          {
            "duration": 1.6093900583333323,
            "durationTicks": 1457,
            "midi": 54,
            "name": "F#3",
            "ticks": 165360,
            "time": 203.50290199999998,
            "velocity": 1
          },
          {
            "duration": 0.5246810416666676,
            "durationTicks": 475,
            "midi": 70,
            "name": "A#4",
            "ticks": 165600,
            "time": 203.76800399999996,
            "velocity": 1
          },
          {
            "duration": 0.5246810416666676,
            "durationTicks": 475,
            "midi": 75,
            "name": "D#5",
            "ticks": 165600,
            "time": 203.76800399999996,
            "velocity": 1
          },
          {
            "duration": 0.5335177749999787,
            "durationTicks": 483,
            "midi": 60,
            "name": "C4",
            "ticks": 165840,
            "time": 204.03310599999998,
            "velocity": 1
          },
          {
            "duration": 0.5335177749999787,
            "durationTicks": 483,
            "midi": 72,
            "name": "C5",
            "ticks": 165840,
            "time": 204.03310599999998,
            "velocity": 1
          },
          {
            "duration": 0.5335177749999787,
            "durationTicks": 483,
            "midi": 77,
            "name": "F5",
            "ticks": 165840,
            "time": 204.03310599999998,
            "velocity": 1
          },
          {
            "duration": 0.6163621500000147,
            "durationTicks": 558,
            "midi": 70,
            "name": "A#4",
            "ticks": 166080,
            "time": 204.29820799999996,
            "velocity": 1
          },
          {
            "duration": 0.5368315500000165,
            "durationTicks": 486,
            "midi": 75,
            "name": "D#5",
            "ticks": 166080,
            "time": 204.29820799999996,
            "velocity": 1
          },
          {
            "duration": 0.5368315499999881,
            "durationTicks": 486,
            "midi": 60,
            "name": "C4",
            "ticks": 166320,
            "time": 204.56330999999997,
            "velocity": 1
          },
          {
            "duration": 0.5368315499999881,
            "durationTicks": 486,
            "midi": 72,
            "name": "C5",
            "ticks": 166320,
            "time": 204.56330999999997,
            "velocity": 1
          },
          {
            "duration": 0.3380050499999925,
            "durationTicks": 306,
            "midi": 77,
            "name": "F5",
            "ticks": 166320,
            "time": 204.56330999999997,
            "velocity": 1
          },
          {
            "duration": 0.4838111500000082,
            "durationTicks": 438,
            "midi": 75,
            "name": "D#5",
            "ticks": 166560,
            "time": 204.82841199999996,
            "velocity": 1
          },
          {
            "duration": 0.4838111500000082,
            "durationTicks": 438,
            "midi": 80,
            "name": "G#5",
            "ticks": 166560,
            "time": 204.82841199999996,
            "velocity": 1
          },
          {
            "duration": 0.2065586416666747,
            "durationTicks": 187,
            "midi": 54,
            "name": "F#3",
            "ticks": 166800,
            "time": 205.09351399999997,
            "velocity": 1
          },
          {
            "duration": 0.2065586416666747,
            "durationTicks": 187,
            "midi": 60,
            "name": "C4",
            "ticks": 166800,
            "time": 205.09351399999997,
            "velocity": 1
          },
          {
            "duration": 0.2065586416666747,
            "durationTicks": 187,
            "midi": 72,
            "name": "C5",
            "ticks": 166800,
            "time": 205.09351399999997,
            "velocity": 1
          },
          {
            "duration": 0.21649996666667448,
            "durationTicks": 196,
            "midi": 77,
            "name": "F5",
            "ticks": 166800,
            "time": 205.09351399999997,
            "velocity": 1
          },
          {
            "duration": 3.197082104166668,
            "durationTicks": 2869,
            "midi": 46,
            "name": "A#2",
            "ticks": 167040,
            "time": 205.35861599999996,
            "velocity": 1
          },
          {
            "duration": 1.6202709583333217,
            "durationTicks": 1454,
            "midi": 58,
            "name": "A#3",
            "ticks": 167040,
            "time": 205.35861599999996,
            "velocity": 1
          },
          {
            "duration": 1.5912977499999954,
            "durationTicks": 1428,
            "midi": 63,
            "name": "D#4",
            "ticks": 167040,
            "time": 205.35861599999996,
            "velocity": 1
          },
          {
            "duration": 0.5204033958333412,
            "durationTicks": 467,
            "midi": 70,
            "name": "A#4",
            "ticks": 167040,
            "time": 205.35861599999996,
            "velocity": 1
          },
          {
            "duration": 0.5204033958333412,
            "durationTicks": 467,
            "midi": 75,
            "name": "D#5",
            "ticks": 167040,
            "time": 205.35861599999996,
            "velocity": 1
          },
          {
            "duration": 0.5293182291666483,
            "durationTicks": 475,
            "midi": 53,
            "name": "F3",
            "ticks": 167280,
            "time": 205.62606099999996,
            "velocity": 1
          },
          {
            "duration": 1.3205096874999924,
            "durationTicks": 1185,
            "midi": 72,
            "name": "C5",
            "ticks": 167280,
            "time": 205.62606099999996,
            "velocity": 1
          },
          {
            "duration": 1.329424520833328,
            "durationTicks": 1193,
            "midi": 77,
            "name": "F5",
            "ticks": 167280,
            "time": 205.62606099999996,
            "velocity": 1
          },
          {
            "duration": 0.2797028958333385,
            "durationTicks": 251,
            "midi": 56,
            "name": "G#3",
            "ticks": 167520,
            "time": 205.89350599999995,
            "velocity": 1
          },
          {
            "duration": 0.2797028958333385,
            "durationTicks": 251,
            "midi": 61,
            "name": "C#4",
            "ticks": 167520,
            "time": 205.89350599999995,
            "velocity": 1
          },
          {
            "duration": 1.0697800000000086,
            "durationTicks": 960,
            "midi": 70,
            "name": "A#4",
            "ticks": 167520,
            "time": 205.89350599999995,
            "velocity": 1
          },
          {
            "duration": 1.0697800000000086,
            "durationTicks": 960,
            "midi": 75,
            "name": "D#5",
            "ticks": 167520,
            "time": 205.89350599999995,
            "velocity": 1
          },
          {
            "duration": 0.26187322916666744,
            "durationTicks": 235,
            "midi": 53,
            "name": "F3",
            "ticks": 167760,
            "time": 206.16095099999995,
            "velocity": 1
          },
          {
            "duration": 0.26187322916666744,
            "durationTicks": 235,
            "midi": 56,
            "name": "G#3",
            "ticks": 167760,
            "time": 206.16095099999995,
            "velocity": 1
          },
          {
            "duration": 0.26187322916666744,
            "durationTicks": 235,
            "midi": 61,
            "name": "C#4",
            "ticks": 167760,
            "time": 206.16095099999995,
            "velocity": 1
          },
          {
            "duration": 0.7911914583333441,
            "durationTicks": 710,
            "midi": 68,
            "name": "G#4",
            "ticks": 167760,
            "time": 206.16095099999995,
            "velocity": 1
          },
          {
            "duration": 0.2797028958333385,
            "durationTicks": 251,
            "midi": 53,
            "name": "F3",
            "ticks": 168000,
            "time": 206.42839599999996,
            "velocity": 1
          },
          {
            "duration": 0.2797028958333385,
            "durationTicks": 251,
            "midi": 56,
            "name": "G#3",
            "ticks": 168000,
            "time": 206.42839599999996,
            "velocity": 1
          },
          {
            "duration": 0.2797028958333385,
            "durationTicks": 251,
            "midi": 61,
            "name": "C#4",
            "ticks": 168000,
            "time": 206.42839599999996,
            "velocity": 1
          },
          {
            "duration": 0.2797028958333385,
            "durationTicks": 251,
            "midi": 53,
            "name": "F3",
            "ticks": 168240,
            "time": 206.69584099999994,
            "velocity": 1
          },
          {
            "duration": 0.2797028958333385,
            "durationTicks": 251,
            "midi": 56,
            "name": "G#3",
            "ticks": 168240,
            "time": 206.69584099999994,
            "velocity": 1
          },
          {
            "duration": 0.2797028958333385,
            "durationTicks": 251,
            "midi": 61,
            "name": "C#4",
            "ticks": 168240,
            "time": 206.69584099999994,
            "velocity": 1
          },
          {
            "duration": 0.24070050000000265,
            "durationTicks": 216,
            "midi": 53,
            "name": "F3",
            "ticks": 168480,
            "time": 206.96328599999995,
            "velocity": 1
          },
          {
            "duration": 0.24070050000000265,
            "durationTicks": 216,
            "midi": 56,
            "name": "G#3",
            "ticks": 168480,
            "time": 206.96328599999995,
            "velocity": 1
          },
          {
            "duration": 0.24070050000000265,
            "durationTicks": 216,
            "midi": 58,
            "name": "A#3",
            "ticks": 168480,
            "time": 206.96328599999995,
            "velocity": 1
          },
          {
            "duration": 0.24070050000000265,
            "durationTicks": 216,
            "midi": 61,
            "name": "C#4",
            "ticks": 168480,
            "time": 206.96328599999995,
            "velocity": 1
          },
          {
            "duration": 0.270788062500003,
            "durationTicks": 243,
            "midi": 53,
            "name": "F3",
            "ticks": 168720,
            "time": 207.23073099999996,
            "velocity": 1
          },
          {
            "duration": 0.270788062500003,
            "durationTicks": 243,
            "midi": 56,
            "name": "G#3",
            "ticks": 168720,
            "time": 207.23073099999996,
            "velocity": 1
          },
          {
            "duration": 0.270788062500003,
            "durationTicks": 243,
            "midi": 58,
            "name": "A#3",
            "ticks": 168720,
            "time": 207.23073099999996,
            "velocity": 1
          },
          {
            "duration": 0.270788062500003,
            "durationTicks": 243,
            "midi": 61,
            "name": "C#4",
            "ticks": 168720,
            "time": 207.23073099999996,
            "velocity": 1
          },
          {
            "duration": 0.270788062500003,
            "durationTicks": 243,
            "midi": 65,
            "name": "F4",
            "ticks": 168720,
            "time": 207.23073099999996,
            "velocity": 1
          },
          {
            "duration": 0.25964452083334777,
            "durationTicks": 233,
            "midi": 53,
            "name": "F3",
            "ticks": 168960,
            "time": 207.49817599999994,
            "velocity": 1
          },
          {
            "duration": 0.25964452083334777,
            "durationTicks": 233,
            "midi": 56,
            "name": "G#3",
            "ticks": 168960,
            "time": 207.49817599999994,
            "velocity": 1
          },
          {
            "duration": 0.25964452083334777,
            "durationTicks": 233,
            "midi": 58,
            "name": "A#3",
            "ticks": 168960,
            "time": 207.49817599999994,
            "velocity": 1
          },
          {
            "duration": 0.25964452083334777,
            "durationTicks": 233,
            "midi": 61,
            "name": "C#4",
            "ticks": 168960,
            "time": 207.49817599999994,
            "velocity": 1
          },
          {
            "duration": 0.25964452083334777,
            "durationTicks": 233,
            "midi": 65,
            "name": "F4",
            "ticks": 168960,
            "time": 207.49817599999994,
            "velocity": 1
          },
          {
            "duration": 0.2797028958333385,
            "durationTicks": 251,
            "midi": 53,
            "name": "F3",
            "ticks": 169200,
            "time": 207.76562099999995,
            "velocity": 1
          },
          {
            "duration": 0.2797028958333385,
            "durationTicks": 251,
            "midi": 56,
            "name": "G#3",
            "ticks": 169200,
            "time": 207.76562099999995,
            "velocity": 1
          },
          {
            "duration": 0.2797028958333385,
            "durationTicks": 251,
            "midi": 58,
            "name": "A#3",
            "ticks": 169200,
            "time": 207.76562099999995,
            "velocity": 1
          },
          {
            "duration": 0.2797028958333385,
            "durationTicks": 251,
            "midi": 61,
            "name": "C#4",
            "ticks": 169200,
            "time": 207.76562099999995,
            "velocity": 1
          },
          {
            "duration": 0.2797028958333385,
            "durationTicks": 251,
            "midi": 65,
            "name": "F4",
            "ticks": 169200,
            "time": 207.76562099999995,
            "velocity": 1
          },
          {
            "duration": 0.26967370833332893,
            "durationTicks": 242,
            "midi": 53,
            "name": "F3",
            "ticks": 169440,
            "time": 208.03306599999996,
            "velocity": 1
          },
          {
            "duration": 0.26967370833332893,
            "durationTicks": 242,
            "midi": 56,
            "name": "G#3",
            "ticks": 169440,
            "time": 208.03306599999996,
            "velocity": 1
          },
          {
            "duration": 0.26967370833332893,
            "durationTicks": 242,
            "midi": 58,
            "name": "A#3",
            "ticks": 169440,
            "time": 208.03306599999996,
            "velocity": 1
          },
          {
            "duration": 0.26967370833332893,
            "durationTicks": 242,
            "midi": 61,
            "name": "C#4",
            "ticks": 169440,
            "time": 208.03306599999996,
            "velocity": 1
          },
          {
            "duration": 0.26967370833332893,
            "durationTicks": 242,
            "midi": 65,
            "name": "F4",
            "ticks": 169440,
            "time": 208.03306599999996,
            "velocity": 1
          },
          {
            "duration": 0.5270895208333286,
            "durationTicks": 473,
            "midi": 70,
            "name": "A#4",
            "ticks": 169440,
            "time": 208.03306599999996,
            "velocity": 1
          },
          {
            "duration": 0.2585301666666737,
            "durationTicks": 232,
            "midi": 53,
            "name": "F3",
            "ticks": 169680,
            "time": 208.30051099999994,
            "velocity": 1
          },
          {
            "duration": 0.2585301666666737,
            "durationTicks": 232,
            "midi": 56,
            "name": "G#3",
            "ticks": 169680,
            "time": 208.30051099999994,
            "velocity": 1
          },
          {
            "duration": 0.2585301666666737,
            "durationTicks": 232,
            "midi": 58,
            "name": "A#3",
            "ticks": 169680,
            "time": 208.30051099999994,
            "velocity": 1
          },
          {
            "duration": 0.2585301666666737,
            "durationTicks": 232,
            "midi": 61,
            "name": "C#4",
            "ticks": 169680,
            "time": 208.30051099999994,
            "velocity": 1
          },
          {
            "duration": 0.2585301666666737,
            "durationTicks": 232,
            "midi": 65,
            "name": "F4",
            "ticks": 169680,
            "time": 208.30051099999994,
            "velocity": 1
          },
          {
            "duration": 0.28081725000001256,
            "durationTicks": 252,
            "midi": 44,
            "name": "G#2",
            "ticks": 169920,
            "time": 208.56795599999995,
            "velocity": 1
          },
          {
            "duration": 0.28081725000001256,
            "durationTicks": 252,
            "midi": 53,
            "name": "F3",
            "ticks": 169920,
            "time": 208.56795599999995,
            "velocity": 1
          },
          {
            "duration": 0.28081725000001256,
            "durationTicks": 252,
            "midi": 56,
            "name": "G#3",
            "ticks": 169920,
            "time": 208.56795599999995,
            "velocity": 1
          },
          {
            "duration": 0.28081725000001256,
            "durationTicks": 252,
            "midi": 60,
            "name": "C4",
            "ticks": 169920,
            "time": 208.56795599999995,
            "velocity": 1
          },
          {
            "duration": 0.28081725000001256,
            "durationTicks": 252,
            "midi": 61,
            "name": "C#4",
            "ticks": 169920,
            "time": 208.56795599999995,
            "velocity": 1
          },
          {
            "duration": 0.28081725000001256,
            "durationTicks": 252,
            "midi": 65,
            "name": "F4",
            "ticks": 169920,
            "time": 208.56795599999995,
            "velocity": 1
          },
          {
            "duration": 0.2395861458333286,
            "durationTicks": 215,
            "midi": 44,
            "name": "G#2",
            "ticks": 170160,
            "time": 208.83540099999996,
            "velocity": 1
          },
          {
            "duration": 0.2395861458333286,
            "durationTicks": 215,
            "midi": 53,
            "name": "F3",
            "ticks": 170160,
            "time": 208.83540099999996,
            "velocity": 1
          },
          {
            "duration": 0.2395861458333286,
            "durationTicks": 215,
            "midi": 56,
            "name": "G#3",
            "ticks": 170160,
            "time": 208.83540099999996,
            "velocity": 1
          },
          {
            "duration": 0.25964452083334777,
            "durationTicks": 233,
            "midi": 44,
            "name": "G#2",
            "ticks": 170400,
            "time": 209.10284599999994,
            "velocity": 1
          },
          {
            "duration": 0.25964452083334777,
            "durationTicks": 233,
            "midi": 53,
            "name": "F3",
            "ticks": 170400,
            "time": 209.10284599999994,
            "velocity": 1
          },
          {
            "duration": 0.25964452083334777,
            "durationTicks": 233,
            "midi": 56,
            "name": "G#3",
            "ticks": 170400,
            "time": 209.10284599999994,
            "velocity": 1
          },
          {
            "duration": 0.43014070833334017,
            "durationTicks": 386,
            "midi": 60,
            "name": "C4",
            "ticks": 170400,
            "time": 209.10284599999994,
            "velocity": 1
          },
          {
            "duration": 0.43014070833334017,
            "durationTicks": 386,
            "midi": 63,
            "name": "D#4",
            "ticks": 170400,
            "time": 209.10284599999994,
            "velocity": 1
          },
          {
            "duration": 0.43014070833334017,
            "durationTicks": 386,
            "midi": 65,
            "name": "F4",
            "ticks": 170400,
            "time": 209.10284599999994,
            "velocity": 1
          },
          {
            "duration": 0.43014070833334017,
            "durationTicks": 386,
            "midi": 68,
            "name": "G#4",
            "ticks": 170400,
            "time": 209.10284599999994,
            "velocity": 1
          },
          {
            "duration": 0.20838422916668264,
            "durationTicks": 187,
            "midi": 44,
            "name": "G#2",
            "ticks": 170640,
            "time": 209.37029099999995,
            "velocity": 1
          },
          {
            "duration": 0.20838422916668264,
            "durationTicks": 187,
            "midi": 53,
            "name": "F3",
            "ticks": 170640,
            "time": 209.37029099999995,
            "velocity": 1
          },
          {
            "duration": 0.20838422916668264,
            "durationTicks": 187,
            "midi": 56,
            "name": "G#3",
            "ticks": 170640,
            "time": 209.37029099999995,
            "velocity": 1
          },
          {
            "duration": 1.3504637249999973,
            "durationTicks": 1206,
            "midi": 42,
            "name": "F#2",
            "ticks": 170880,
            "time": 209.63773599999996,
            "velocity": 1
          },
          {
            "duration": 1.3504637249999973,
            "durationTicks": 1206,
            "midi": 49,
            "name": "C#3",
            "ticks": 170880,
            "time": 209.63773599999996,
            "velocity": 1
          },
          {
            "duration": 0.27994687500000737,
            "durationTicks": 250,
            "midi": 70,
            "name": "A#4",
            "ticks": 170880,
            "time": 209.63773599999996,
            "velocity": 1
          },
          {
            "duration": 0.27994687500000737,
            "durationTicks": 250,
            "midi": 75,
            "name": "D#5",
            "ticks": 170880,
            "time": 209.63773599999996,
            "velocity": 1
          },
          {
            "duration": 1.1197874999999726,
            "durationTicks": 1000,
            "midi": 72,
            "name": "C5",
            "ticks": 171120,
            "time": 209.90648499999998,
            "velocity": 1
          },
          {
            "duration": 0.25867091249998,
            "durationTicks": 231,
            "midi": 75,
            "name": "D#5",
            "ticks": 171120,
            "time": 209.90648499999998,
            "velocity": 1
          },
          {
            "duration": 1.1197874999999726,
            "durationTicks": 1000,
            "midi": 77,
            "name": "F5",
            "ticks": 171120,
            "time": 209.90648499999998,
            "velocity": 1
          },
          {
            "duration": 0.27098857499998985,
            "durationTicks": 242,
            "midi": 70,
            "name": "A#4",
            "ticks": 171360,
            "time": 210.17523399999996,
            "velocity": 1
          },
          {
            "duration": 0.5419771500000081,
            "durationTicks": 484,
            "midi": 75,
            "name": "D#5",
            "ticks": 171360,
            "time": 210.17523399999996,
            "velocity": 1
          },
          {
            "duration": 1.3291877624999984,
            "durationTicks": 1187,
            "midi": 58,
            "name": "A#3",
            "ticks": 171600,
            "time": 210.44398299999997,
            "velocity": 1
          },
          {
            "duration": 1.3291877624999984,
            "durationTicks": 1187,
            "midi": 65,
            "name": "F4",
            "ticks": 171600,
            "time": 210.44398299999997,
            "velocity": 1
          },
          {
            "duration": 0.26986878749997345,
            "durationTicks": 241,
            "midi": 70,
            "name": "A#4",
            "ticks": 171600,
            "time": 210.44398299999997,
            "velocity": 1
          },
          {
            "duration": 1.0593189749999965,
            "durationTicks": 946,
            "midi": 70,
            "name": "A#4",
            "ticks": 171840,
            "time": 210.71273199999996,
            "velocity": 1
          },
          {
            "duration": 1.0593189749999965,
            "durationTicks": 946,
            "midi": 75,
            "name": "D#5",
            "ticks": 171840,
            "time": 210.71273199999996,
            "velocity": 1
          },
          {
            "duration": 0.7883303999999782,
            "durationTicks": 704,
            "midi": 42,
            "name": "F#2",
            "ticks": 172080,
            "time": 210.98148099999997,
            "velocity": 1
          },
          {
            "duration": 0.26874899999998547,
            "durationTicks": 240,
            "midi": 49,
            "name": "C#3",
            "ticks": 172080,
            "time": 210.98148099999997,
            "velocity": 1
          },
          {
            "duration": 0.2609104875000128,
            "durationTicks": 233,
            "midi": 49,
            "name": "C#3",
            "ticks": 172320,
            "time": 211.25022999999996,
            "velocity": 1
          },
          {
            "duration": 0.25867091249998,
            "durationTicks": 231,
            "midi": 49,
            "name": "C#3",
            "ticks": 172560,
            "time": 211.51897899999997,
            "velocity": 1
          },
          {
            "duration": 1.3515835125000137,
            "durationTicks": 1207,
            "midi": 44,
            "name": "G#2",
            "ticks": 172800,
            "time": 211.78772799999996,
            "velocity": 1
          },
          {
            "duration": 0.5498156625000092,
            "durationTicks": 491,
            "midi": 51,
            "name": "D#3",
            "ticks": 172800,
            "time": 211.78772799999996,
            "velocity": 1
          },
          {
            "duration": 1.079475149999979,
            "durationTicks": 964,
            "midi": 54,
            "name": "F#3",
            "ticks": 173040,
            "time": 212.05647699999997,
            "velocity": 1
          },
          {
            "duration": 0.26426985000000514,
            "durationTicks": 236,
            "midi": 51,
            "name": "D#3",
            "ticks": 173280,
            "time": 212.32522599999996,
            "velocity": 1
          },
          {
            "duration": 0.26426985000000514,
            "durationTicks": 236,
            "midi": 60,
            "name": "C4",
            "ticks": 173280,
            "time": 212.32522599999996,
            "velocity": 1
          },
          {
            "duration": 0.27434793750001063,
            "durationTicks": 245,
            "midi": 65,
            "name": "F4",
            "ticks": 173280,
            "time": 212.32522599999996,
            "velocity": 1
          },
          {
            "duration": 0.5363782125000114,
            "durationTicks": 479,
            "midi": 70,
            "name": "A#4",
            "ticks": 173280,
            "time": 212.32522599999996,
            "velocity": 1
          },
          {
            "duration": 0.5363782125000114,
            "durationTicks": 479,
            "midi": 75,
            "name": "D#5",
            "ticks": 173280,
            "time": 212.32522599999996,
            "velocity": 1
          },
          {
            "duration": 0.27098857499998985,
            "durationTicks": 242,
            "midi": 51,
            "name": "D#3",
            "ticks": 173520,
            "time": 212.59397499999997,
            "velocity": 1
          },
          {
            "duration": 0.27098857499998985,
            "durationTicks": 242,
            "midi": 60,
            "name": "C4",
            "ticks": 173520,
            "time": 212.59397499999997,
            "velocity": 1
          },
          {
            "duration": 0.4971856499999774,
            "durationTicks": 444,
            "midi": 65,
            "name": "F4",
            "ticks": 173520,
            "time": 212.59397499999997,
            "velocity": 1
          },
          {
            "duration": 0.5274199124999939,
            "durationTicks": 471,
            "midi": 72,
            "name": "C5",
            "ticks": 173520,
            "time": 212.59397499999997,
            "velocity": 1
          },
          {
            "duration": 0.5173418249999884,
            "durationTicks": 462,
            "midi": 77,
            "name": "F5",
            "ticks": 173520,
            "time": 212.59397499999997,
            "velocity": 1
          },
          {
            "duration": 0.2653896374999931,
            "durationTicks": 237,
            "midi": 51,
            "name": "D#3",
            "ticks": 173760,
            "time": 212.86272399999996,
            "velocity": 1
          },
          {
            "duration": 0.2653896374999931,
            "durationTicks": 237,
            "midi": 60,
            "name": "C4",
            "ticks": 173760,
            "time": 212.86272399999996,
            "velocity": 1
          },
          {
            "duration": 0.24411367499999415,
            "durationTicks": 218,
            "midi": 70,
            "name": "A#4",
            "ticks": 173760,
            "time": 212.86272399999996,
            "velocity": 1
          },
          {
            "duration": 0.27322814999999423,
            "durationTicks": 244,
            "midi": 75,
            "name": "D#5",
            "ticks": 173760,
            "time": 212.86272399999996,
            "velocity": 1
          },
          {
            "duration": 0.2653896374999931,
            "durationTicks": 237,
            "midi": 44,
            "name": "G#2",
            "ticks": 174000,
            "time": 213.13147299999997,
            "velocity": 1
          },
          {
            "duration": 0.2653896374999931,
            "durationTicks": 237,
            "midi": 51,
            "name": "D#3",
            "ticks": 174000,
            "time": 213.13147299999997,
            "velocity": 1
          },
          {
            "duration": 0.2653896374999931,
            "durationTicks": 237,
            "midi": 54,
            "name": "F#3",
            "ticks": 174000,
            "time": 213.13147299999997,
            "velocity": 1
          },
          {
            "duration": 0.2653896374999931,
            "durationTicks": 237,
            "midi": 60,
            "name": "C4",
            "ticks": 174000,
            "time": 213.13147299999997,
            "velocity": 1
          },
          {
            "duration": 0.2653896374999931,
            "durationTicks": 237,
            "midi": 63,
            "name": "D#4",
            "ticks": 174000,
            "time": 213.13147299999997,
            "velocity": 1
          },
          {
            "duration": 0.2653896374999931,
            "durationTicks": 237,
            "midi": 72,
            "name": "C5",
            "ticks": 174000,
            "time": 213.13147299999997,
            "velocity": 1
          },
          {
            "duration": 0.2653896374999931,
            "durationTicks": 237,
            "midi": 75,
            "name": "D#5",
            "ticks": 174000,
            "time": 213.13147299999997,
            "velocity": 1
          },
          {
            "duration": 0.2653896374999931,
            "durationTicks": 237,
            "midi": 77,
            "name": "F5",
            "ticks": 174000,
            "time": 213.13147299999997,
            "velocity": 1
          },
          {
            "duration": 0.26203027500000076,
            "durationTicks": 234,
            "midi": 44,
            "name": "G#2",
            "ticks": 174240,
            "time": 213.40022199999996,
            "velocity": 1
          },
          {
            "duration": 0.26203027500000076,
            "durationTicks": 234,
            "midi": 51,
            "name": "D#3",
            "ticks": 174240,
            "time": 213.40022199999996,
            "velocity": 1
          },
          {
            "duration": 0.26203027500000076,
            "durationTicks": 234,
            "midi": 54,
            "name": "F#3",
            "ticks": 174240,
            "time": 213.40022199999996,
            "velocity": 1
          },
          {
            "duration": 0.26203027500000076,
            "durationTicks": 234,
            "midi": 60,
            "name": "C4",
            "ticks": 174240,
            "time": 213.40022199999996,
            "velocity": 1
          },
          {
            "duration": 0.26203027500000076,
            "durationTicks": 234,
            "midi": 63,
            "name": "D#4",
            "ticks": 174240,
            "time": 213.40022199999996,
            "velocity": 1
          },
          {
            "duration": 0.26203027500000076,
            "durationTicks": 234,
            "midi": 75,
            "name": "D#5",
            "ticks": 174240,
            "time": 213.40022199999996,
            "velocity": 1
          },
          {
            "duration": 0.26203027500000076,
            "durationTicks": 234,
            "midi": 80,
            "name": "G#5",
            "ticks": 174240,
            "time": 213.40022199999996,
            "velocity": 1
          },
          {
            "duration": 0.24187409999998977,
            "durationTicks": 216,
            "midi": 44,
            "name": "G#2",
            "ticks": 174480,
            "time": 213.66897099999997,
            "velocity": 1
          },
          {
            "duration": 0.24187409999998977,
            "durationTicks": 216,
            "midi": 51,
            "name": "D#3",
            "ticks": 174480,
            "time": 213.66897099999997,
            "velocity": 1
          },
          {
            "duration": 0.24187409999998977,
            "durationTicks": 216,
            "midi": 54,
            "name": "F#3",
            "ticks": 174480,
            "time": 213.66897099999997,
            "velocity": 1
          },
          {
            "duration": 0.24187409999998977,
            "durationTicks": 216,
            "midi": 60,
            "name": "C4",
            "ticks": 174480,
            "time": 213.66897099999997,
            "velocity": 1
          },
          {
            "duration": 0.24187409999998977,
            "durationTicks": 216,
            "midi": 63,
            "name": "D#4",
            "ticks": 174480,
            "time": 213.66897099999997,
            "velocity": 1
          },
          {
            "duration": 0.24187409999998977,
            "durationTicks": 216,
            "midi": 72,
            "name": "C5",
            "ticks": 174480,
            "time": 213.66897099999997,
            "velocity": 1
          },
          {
            "duration": 0.24187409999998977,
            "durationTicks": 216,
            "midi": 75,
            "name": "D#5",
            "ticks": 174480,
            "time": 213.66897099999997,
            "velocity": 1
          },
          {
            "duration": 0.24187409999998977,
            "durationTicks": 216,
            "midi": 77,
            "name": "F5",
            "ticks": 174480,
            "time": 213.66897099999997,
            "velocity": 1
          },
          {
            "duration": 0.2700500500000089,
            "durationTicks": 244,
            "midi": 46,
            "name": "A#2",
            "ticks": 174720,
            "time": 213.93771999999996,
            "velocity": 1
          },
          {
            "duration": 0.2700500500000089,
            "durationTicks": 244,
            "midi": 53,
            "name": "F3",
            "ticks": 174720,
            "time": 213.93771999999996,
            "velocity": 1
          },
          {
            "duration": 0.2700500500000089,
            "durationTicks": 244,
            "midi": 58,
            "name": "A#3",
            "ticks": 174720,
            "time": 213.93771999999996,
            "velocity": 1
          },
          {
            "duration": 0.2700500500000089,
            "durationTicks": 244,
            "midi": 63,
            "name": "D#4",
            "ticks": 174720,
            "time": 213.93771999999996,
            "velocity": 1
          },
          {
            "duration": 0.2700500500000089,
            "durationTicks": 244,
            "midi": 70,
            "name": "A#4",
            "ticks": 174720,
            "time": 213.93771999999996,
            "velocity": 1
          },
          {
            "duration": 0.2700500500000089,
            "durationTicks": 244,
            "midi": 75,
            "name": "D#5",
            "ticks": 174720,
            "time": 213.93771999999996,
            "velocity": 1
          },
          {
            "duration": 0.2501283249999915,
            "durationTicks": 226,
            "midi": 46,
            "name": "A#2",
            "ticks": 174960,
            "time": 214.20334299999996,
            "velocity": 1
          },
          {
            "duration": 0.2501283249999915,
            "durationTicks": 226,
            "midi": 53,
            "name": "F3",
            "ticks": 174960,
            "time": 214.20334299999996,
            "velocity": 1
          },
          {
            "duration": 0.2501283249999915,
            "durationTicks": 226,
            "midi": 58,
            "name": "A#3",
            "ticks": 174960,
            "time": 214.20334299999996,
            "velocity": 1
          },
          {
            "duration": 0.2501283249999915,
            "durationTicks": 226,
            "midi": 63,
            "name": "D#4",
            "ticks": 174960,
            "time": 214.20334299999996,
            "velocity": 1
          },
          {
            "duration": 0.2501283249999915,
            "durationTicks": 226,
            "midi": 72,
            "name": "C5",
            "ticks": 174960,
            "time": 214.20334299999996,
            "velocity": 1
          },
          {
            "duration": 0.2501283249999915,
            "durationTicks": 226,
            "midi": 75,
            "name": "D#5",
            "ticks": 174960,
            "time": 214.20334299999996,
            "velocity": 1
          },
          {
            "duration": 0.2501283249999915,
            "durationTicks": 226,
            "midi": 77,
            "name": "F5",
            "ticks": 174960,
            "time": 214.20334299999996,
            "velocity": 1
          },
          {
            "duration": 0.2611959500000012,
            "durationTicks": 236,
            "midi": 46,
            "name": "A#2",
            "ticks": 175200,
            "time": 214.46896599999997,
            "velocity": 1
          },
          {
            "duration": 0.2611959500000012,
            "durationTicks": 236,
            "midi": 53,
            "name": "F3",
            "ticks": 175200,
            "time": 214.46896599999997,
            "velocity": 1
          },
          {
            "duration": 0.2611959500000012,
            "durationTicks": 236,
            "midi": 56,
            "name": "G#3",
            "ticks": 175200,
            "time": 214.46896599999997,
            "velocity": 1
          },
          {
            "duration": 0.2611959500000012,
            "durationTicks": 236,
            "midi": 61,
            "name": "C#4",
            "ticks": 175200,
            "time": 214.46896599999997,
            "velocity": 1
          },
          {
            "duration": 0.2611959500000012,
            "durationTicks": 236,
            "midi": 63,
            "name": "D#4",
            "ticks": 175200,
            "time": 214.46896599999997,
            "velocity": 1
          },
          {
            "duration": 0.2611959500000012,
            "durationTicks": 236,
            "midi": 70,
            "name": "A#4",
            "ticks": 175200,
            "time": 214.46896599999997,
            "velocity": 1
          },
          {
            "duration": 0.2611959500000012,
            "durationTicks": 236,
            "midi": 75,
            "name": "D#5",
            "ticks": 175200,
            "time": 214.46896599999997,
            "velocity": 1
          },
          {
            "duration": 0.2611959500000012,
            "durationTicks": 236,
            "midi": 46,
            "name": "A#2",
            "ticks": 175440,
            "time": 214.73458899999994,
            "velocity": 1
          },
          {
            "duration": 0.2611959500000012,
            "durationTicks": 236,
            "midi": 53,
            "name": "F3",
            "ticks": 175440,
            "time": 214.73458899999994,
            "velocity": 1
          },
          {
            "duration": 0.2611959500000012,
            "durationTicks": 236,
            "midi": 56,
            "name": "G#3",
            "ticks": 175440,
            "time": 214.73458899999994,
            "velocity": 1
          },
          {
            "duration": 0.2611959500000012,
            "durationTicks": 236,
            "midi": 61,
            "name": "C#4",
            "ticks": 175440,
            "time": 214.73458899999994,
            "velocity": 1
          },
          {
            "duration": 0.2611959500000012,
            "durationTicks": 236,
            "midi": 63,
            "name": "D#4",
            "ticks": 175440,
            "time": 214.73458899999994,
            "velocity": 1
          },
          {
            "duration": 0.2611959500000012,
            "durationTicks": 236,
            "midi": 70,
            "name": "A#4",
            "ticks": 175440,
            "time": 214.73458899999994,
            "velocity": 1
          },
          {
            "duration": 0.2611959500000012,
            "durationTicks": 236,
            "midi": 75,
            "name": "D#5",
            "ticks": 175440,
            "time": 214.73458899999994,
            "velocity": 1
          },
          {
            "duration": 1.0403567500000008,
            "durationTicks": 940,
            "midi": 46,
            "name": "A#2",
            "ticks": 175680,
            "time": 215.00021199999995,
            "velocity": 1
          },
          {
            "duration": 0.25898242499999924,
            "durationTicks": 234,
            "midi": 53,
            "name": "F3",
            "ticks": 175680,
            "time": 215.00021199999995,
            "velocity": 1
          },
          {
            "duration": 0.25898242499999924,
            "durationTicks": 234,
            "midi": 56,
            "name": "G#3",
            "ticks": 175680,
            "time": 215.00021199999995,
            "velocity": 1
          },
          {
            "duration": 0.25898242499999924,
            "durationTicks": 234,
            "midi": 61,
            "name": "C#4",
            "ticks": 175680,
            "time": 215.00021199999995,
            "velocity": 1
          },
          {
            "duration": 1.0403567500000008,
            "durationTicks": 940,
            "midi": 65,
            "name": "F4",
            "ticks": 175680,
            "time": 215.00021199999995,
            "velocity": 1
          },
          {
            "duration": 1.0403567500000008,
            "durationTicks": 940,
            "midi": 68,
            "name": "G#4",
            "ticks": 175680,
            "time": 215.00021199999995,
            "velocity": 1
          },
          {
            "duration": 1.0403567500000008,
            "durationTicks": 940,
            "midi": 73,
            "name": "C#5",
            "ticks": 175680,
            "time": 215.00021199999995,
            "velocity": 1
          },
          {
            "duration": 0.2700500500000089,
            "durationTicks": 244,
            "midi": 53,
            "name": "F3",
            "ticks": 175920,
            "time": 215.26583499999995,
            "velocity": 1
          },
          {
            "duration": 0.2700500500000089,
            "durationTicks": 244,
            "midi": 56,
            "name": "G#3",
            "ticks": 175920,
            "time": 215.26583499999995,
            "velocity": 1
          },
          {
            "duration": 0.2700500500000089,
            "durationTicks": 244,
            "midi": 61,
            "name": "C#4",
            "ticks": 175920,
            "time": 215.26583499999995,
            "velocity": 1
          },
          {
            "duration": 0.26230271250000214,
            "durationTicks": 237,
            "midi": 53,
            "name": "F3",
            "ticks": 176160,
            "time": 215.53145799999996,
            "velocity": 1
          },
          {
            "duration": 0.26230271250000214,
            "durationTicks": 237,
            "midi": 56,
            "name": "G#3",
            "ticks": 176160,
            "time": 215.53145799999996,
            "velocity": 1
          },
          {
            "duration": 0.26230271250000214,
            "durationTicks": 237,
            "midi": 61,
            "name": "C#4",
            "ticks": 176160,
            "time": 215.53145799999996,
            "velocity": 1
          },
          {
            "duration": 0.2501283249999915,
            "durationTicks": 226,
            "midi": 53,
            "name": "F3",
            "ticks": 176400,
            "time": 215.79708099999996,
            "velocity": 1
          },
          {
            "duration": 0.2501283249999915,
            "durationTicks": 226,
            "midi": 56,
            "name": "G#3",
            "ticks": 176400,
            "time": 215.79708099999996,
            "velocity": 1
          },
          {
            "duration": 0.2501283249999915,
            "durationTicks": 226,
            "midi": 61,
            "name": "C#4",
            "ticks": 176400,
            "time": 215.79708099999996,
            "velocity": 1
          },
          {
            "duration": 0.5179648499999985,
            "durationTicks": 468,
            "midi": 46,
            "name": "A#2",
            "ticks": 176640,
            "time": 216.06270399999997,
            "velocity": 1
          },
          {
            "duration": 0.25898242499999924,
            "durationTicks": 234,
            "midi": 53,
            "name": "F3",
            "ticks": 176640,
            "time": 216.06270399999997,
            "velocity": 1
          },
          {
            "duration": 0.25898242499999924,
            "durationTicks": 234,
            "midi": 56,
            "name": "G#3",
            "ticks": 176640,
            "time": 216.06270399999997,
            "velocity": 1
          },
          {
            "duration": 0.25898242499999924,
            "durationTicks": 234,
            "midi": 61,
            "name": "C#4",
            "ticks": 176640,
            "time": 216.06270399999997,
            "velocity": 1
          },
          {
            "duration": 0.5179648499999985,
            "durationTicks": 468,
            "midi": 65,
            "name": "F4",
            "ticks": 176640,
            "time": 216.06270399999997,
            "velocity": 1
          },
          {
            "duration": 0.25898242499999924,
            "durationTicks": 234,
            "midi": 53,
            "name": "F3",
            "ticks": 176880,
            "time": 216.32832699999994,
            "velocity": 1
          },
          {
            "duration": 0.25898242499999924,
            "durationTicks": 234,
            "midi": 56,
            "name": "G#3",
            "ticks": 176880,
            "time": 216.32832699999994,
            "velocity": 1
          },
          {
            "duration": 0.25898242499999924,
            "durationTicks": 234,
            "midi": 61,
            "name": "C#4",
            "ticks": 176880,
            "time": 216.32832699999994,
            "velocity": 1
          },
          {
            "duration": 0.23020660000000248,
            "durationTicks": 208,
            "midi": 46,
            "name": "A#2",
            "ticks": 177120,
            "time": 216.59394999999995,
            "velocity": 1
          },
          {
            "duration": 0.23020660000000248,
            "durationTicks": 208,
            "midi": 53,
            "name": "F3",
            "ticks": 177120,
            "time": 216.59394999999995,
            "velocity": 1
          },
          {
            "duration": 0.23020660000000248,
            "durationTicks": 208,
            "midi": 56,
            "name": "G#3",
            "ticks": 177120,
            "time": 216.59394999999995,
            "velocity": 1
          },
          {
            "duration": 0.5301392375000091,
            "durationTicks": 479,
            "midi": 73,
            "name": "C#5",
            "ticks": 177120,
            "time": 216.59394999999995,
            "velocity": 1
          },
          {
            "duration": 0.5301392375000091,
            "durationTicks": 479,
            "midi": 77,
            "name": "F5",
            "ticks": 177120,
            "time": 216.59394999999995,
            "velocity": 1
          },
          {
            "duration": 0.5301392375000091,
            "durationTicks": 479,
            "midi": 85,
            "name": "C#6",
            "ticks": 177120,
            "time": 216.59394999999995,
            "velocity": 1
          },
          {
            "duration": 0.2611959500000012,
            "durationTicks": 236,
            "midi": 46,
            "name": "A#2",
            "ticks": 177360,
            "time": 216.85957299999995,
            "velocity": 1
          },
          {
            "duration": 0.2611959500000012,
            "durationTicks": 236,
            "midi": 53,
            "name": "F3",
            "ticks": 177360,
            "time": 216.85957299999995,
            "velocity": 1
          },
          {
            "duration": 0.2611959500000012,
            "durationTicks": 236,
            "midi": 56,
            "name": "G#3",
            "ticks": 177360,
            "time": 216.85957299999995,
            "velocity": 1
          },
          {
            "duration": 0.25898242499999924,
            "durationTicks": 234,
            "midi": 44,
            "name": "G#2",
            "ticks": 177600,
            "time": 217.12519599999996,
            "velocity": 1
          },
          {
            "duration": 0.05865841249999448,
            "durationTicks": 53,
            "midi": 51,
            "name": "D#3",
            "ticks": 177600,
            "time": 217.12519599999996,
            "velocity": 1
          },
          {
            "duration": 0.25898242499999924,
            "durationTicks": 234,
            "midi": 56,
            "name": "G#3",
            "ticks": 177600,
            "time": 217.12519599999996,
            "velocity": 1
          },
          {
            "duration": 0.5500609624999981,
            "durationTicks": 497,
            "midi": 72,
            "name": "C5",
            "ticks": 177600,
            "time": 217.12519599999996,
            "velocity": 1
          },
          {
            "duration": 0.05865841249999448,
            "durationTicks": 53,
            "midi": 75,
            "name": "D#5",
            "ticks": 177600,
            "time": 217.12519599999996,
            "velocity": 1
          },
          {
            "duration": 1.0591717124999889,
            "durationTicks": 957,
            "midi": 84,
            "name": "C6",
            "ticks": 177600,
            "time": 217.12519599999996,
            "velocity": 1
          },
          {
            "duration": 0.26230271250000214,
            "durationTicks": 237,
            "midi": 44,
            "name": "G#2",
            "ticks": 177840,
            "time": 217.39081899999996,
            "velocity": 1
          },
          {
            "duration": 0.26230271250000214,
            "durationTicks": 237,
            "midi": 53,
            "name": "F3",
            "ticks": 177840,
            "time": 217.39081899999996,
            "velocity": 1
          },
          {
            "duration": 0.26230271250000214,
            "durationTicks": 237,
            "midi": 56,
            "name": "G#3",
            "ticks": 177840,
            "time": 217.39081899999996,
            "velocity": 1
          },
          {
            "duration": 0.25898242499999924,
            "durationTicks": 234,
            "midi": 80,
            "name": "G#5",
            "ticks": 177840,
            "time": 217.39081899999996,
            "velocity": 1
          },
          {
            "duration": 0.25898242499999924,
            "durationTicks": 234,
            "midi": 44,
            "name": "G#2",
            "ticks": 178080,
            "time": 217.65644199999997,
            "velocity": 1
          },
          {
            "duration": 0.25898242499999924,
            "durationTicks": 234,
            "midi": 53,
            "name": "F3",
            "ticks": 178080,
            "time": 217.65644199999997,
            "velocity": 1
          },
          {
            "duration": 0.25898242499999924,
            "durationTicks": 234,
            "midi": 56,
            "name": "G#3",
            "ticks": 178080,
            "time": 217.65644199999997,
            "velocity": 1
          },
          {
            "duration": 0.5091107499999907,
            "durationTicks": 460,
            "midi": 72,
            "name": "C5",
            "ticks": 178080,
            "time": 217.65644199999997,
            "velocity": 1
          },
          {
            "duration": 0.5201783750000004,
            "durationTicks": 470,
            "midi": 77,
            "name": "F5",
            "ticks": 178080,
            "time": 217.65644199999997,
            "velocity": 1
          },
          {
            "duration": 0.5290324749999797,
            "durationTicks": 478,
            "midi": 80,
            "name": "G#5",
            "ticks": 178080,
            "time": 217.65644199999997,
            "velocity": 1
          },
          {
            "duration": 0.2910785374999989,
            "durationTicks": 263,
            "midi": 44,
            "name": "G#2",
            "ticks": 178320,
            "time": 217.92206499999995,
            "velocity": 1
          },
          {
            "duration": 0.2910785374999989,
            "durationTicks": 263,
            "midi": 53,
            "name": "F3",
            "ticks": 178320,
            "time": 217.92206499999995,
            "velocity": 1
          },
          {
            "duration": 0.2910785374999989,
            "durationTicks": 263,
            "midi": 56,
            "name": "G#3",
            "ticks": 178320,
            "time": 217.92206499999995,
            "velocity": 1
          },
          {
            "duration": 2.120556950000008,
            "durationTicks": 1916,
            "midi": 42,
            "name": "F#2",
            "ticks": 178560,
            "time": 218.18768799999995,
            "velocity": 1
          },
          {
            "duration": 0.28001091250001764,
            "durationTicks": 253,
            "midi": 49,
            "name": "C#3",
            "ticks": 178560,
            "time": 218.18768799999995,
            "velocity": 1
          },
          {
            "duration": 0.28886501249999696,
            "durationTicks": 261,
            "midi": 70,
            "name": "A#4",
            "ticks": 178560,
            "time": 218.18768799999995,
            "velocity": 1
          },
          {
            "duration": 0.008854100000007747,
            "durationTicks": 8,
            "midi": 72,
            "name": "C5",
            "ticks": 178560,
            "time": 218.18768799999995,
            "velocity": 1
          },
          {
            "duration": 0.5389933375000169,
            "durationTicks": 487,
            "midi": 75,
            "name": "D#5",
            "ticks": 178560,
            "time": 218.18768799999995,
            "velocity": 1
          },
          {
            "duration": 0.018814962500016463,
            "durationTicks": 17,
            "midi": 77,
            "name": "F5",
            "ticks": 178560,
            "time": 218.18768799999995,
            "velocity": 1
          },
          {
            "duration": 1.0392499874999999,
            "durationTicks": 939,
            "midi": 82,
            "name": "A#5",
            "ticks": 178560,
            "time": 218.18768799999995,
            "velocity": 1
          },
          {
            "duration": 0.2700500500000089,
            "durationTicks": 244,
            "midi": 49,
            "name": "C#3",
            "ticks": 178800,
            "time": 218.45331099999996,
            "velocity": 1
          },
          {
            "duration": 0.2700500500000089,
            "durationTicks": 244,
            "midi": 53,
            "name": "F3",
            "ticks": 178800,
            "time": 218.45331099999996,
            "velocity": 1
          },
          {
            "duration": 0.2700500500000089,
            "durationTicks": 244,
            "midi": 56,
            "name": "G#3",
            "ticks": 178800,
            "time": 218.45331099999996,
            "velocity": 1
          },
          {
            "duration": 0.2501283249999915,
            "durationTicks": 226,
            "midi": 70,
            "name": "A#4",
            "ticks": 178800,
            "time": 218.45331099999996,
            "velocity": 1
          },
          {
            "duration": 0.7714134624999929,
            "durationTicks": 697,
            "midi": 72,
            "name": "C5",
            "ticks": 178800,
            "time": 218.45331099999996,
            "velocity": 1
          },
          {
            "duration": 0.7791607999999997,
            "durationTicks": 704,
            "midi": 77,
            "name": "F5",
            "ticks": 178800,
            "time": 218.45331099999996,
            "velocity": 1
          },
          {
            "duration": 0.25898242499999924,
            "durationTicks": 234,
            "midi": 49,
            "name": "C#3",
            "ticks": 179040,
            "time": 218.71893399999996,
            "velocity": 1
          },
          {
            "duration": 1.5704959874999815,
            "durationTicks": 1419,
            "midi": 53,
            "name": "F3",
            "ticks": 179040,
            "time": 218.71893399999996,
            "velocity": 1
          },
          {
            "duration": 1.5704959874999815,
            "durationTicks": 1419,
            "midi": 56,
            "name": "G#3",
            "ticks": 179040,
            "time": 218.71893399999996,
            "velocity": 1
          },
          {
            "duration": 0.2700500499999805,
            "durationTicks": 244,
            "midi": 70,
            "name": "A#4",
            "ticks": 179040,
            "time": 218.71893399999996,
            "velocity": 1
          },
          {
            "duration": 0.5500609624999981,
            "durationTicks": 497,
            "midi": 75,
            "name": "D#5",
            "ticks": 179040,
            "time": 218.71893399999996,
            "velocity": 1
          },
          {
            "duration": 0.2910785374999989,
            "durationTicks": 263,
            "midi": 49,
            "name": "C#3",
            "ticks": 179280,
            "time": 218.98455699999997,
            "velocity": 1
          },
          {
            "duration": 0.2910785374999989,
            "durationTicks": 263,
            "midi": 58,
            "name": "A#3",
            "ticks": 179280,
            "time": 218.98455699999997,
            "velocity": 1
          },
          {
            "duration": 0.2910785374999989,
            "durationTicks": 263,
            "midi": 65,
            "name": "F4",
            "ticks": 179280,
            "time": 218.98455699999997,
            "velocity": 1
          },
          {
            "duration": 0.2800109124999892,
            "durationTicks": 253,
            "midi": 70,
            "name": "A#4",
            "ticks": 179280,
            "time": 218.98455699999997,
            "velocity": 1
          },
          {
            "duration": 0.2501283250000199,
            "durationTicks": 226,
            "midi": 49,
            "name": "C#3",
            "ticks": 179520,
            "time": 219.25017999999994,
            "velocity": 1
          },
          {
            "duration": 0.2501283250000199,
            "durationTicks": 226,
            "midi": 58,
            "name": "A#3",
            "ticks": 179520,
            "time": 219.25017999999994,
            "velocity": 1
          },
          {
            "duration": 1.0204350250000118,
            "durationTicks": 922,
            "midi": 65,
            "name": "F4",
            "ticks": 179520,
            "time": 219.25017999999994,
            "velocity": 1
          },
          {
            "duration": 1.0315026500000215,
            "durationTicks": 932,
            "midi": 70,
            "name": "A#4",
            "ticks": 179520,
            "time": 219.25017999999994,
            "velocity": 1
          },
          {
            "duration": 1.0315026500000215,
            "durationTicks": 932,
            "midi": 75,
            "name": "D#5",
            "ticks": 179520,
            "time": 219.25017999999994,
            "velocity": 1
          },
          {
            "duration": 0.2700500500000089,
            "durationTicks": 244,
            "midi": 49,
            "name": "C#3",
            "ticks": 179760,
            "time": 219.51580299999995,
            "velocity": 1
          },
          {
            "duration": 0.2700500500000089,
            "durationTicks": 244,
            "midi": 58,
            "name": "A#3",
            "ticks": 179760,
            "time": 219.51580299999995,
            "velocity": 1
          },
          {
            "duration": 0.25898242499999924,
            "durationTicks": 234,
            "midi": 49,
            "name": "C#3",
            "ticks": 180000,
            "time": 219.78142599999995,
            "velocity": 1
          },
          {
            "duration": 0.2501283249999915,
            "durationTicks": 226,
            "midi": 58,
            "name": "A#3",
            "ticks": 180000,
            "time": 219.78142599999995,
            "velocity": 1
          },
          {
            "duration": 0.24016746249998278,
            "durationTicks": 217,
            "midi": 49,
            "name": "C#3",
            "ticks": 180240,
            "time": 220.04704899999996,
            "velocity": 1
          },
          {
            "duration": 0.2501283249999915,
            "durationTicks": 226,
            "midi": 58,
            "name": "A#3",
            "ticks": 180240,
            "time": 220.04704899999996,
            "velocity": 1
          },
          {
            "duration": 0.26783652499997856,
            "durationTicks": 242,
            "midi": 44,
            "name": "G#2",
            "ticks": 180480,
            "time": 220.31267199999996,
            "velocity": 1
          },
          {
            "duration": 0.5589150625000059,
            "durationTicks": 505,
            "midi": 51,
            "name": "D#3",
            "ticks": 180480,
            "time": 220.31267199999996,
            "velocity": 1
          },
          {
            "duration": 0.7924419499999829,
            "durationTicks": 716,
            "midi": 44,
            "name": "G#2",
            "ticks": 180720,
            "time": 220.57829499999997,
            "velocity": 1
          },
          {
            "duration": 0.7714134624999929,
            "durationTicks": 697,
            "midi": 54,
            "name": "F#3",
            "ticks": 180720,
            "time": 220.57829499999997,
            "velocity": 1
          },
          {
            "duration": 0.5013634125000124,
            "durationTicks": 453,
            "midi": 51,
            "name": "D#3",
            "ticks": 180960,
            "time": 220.84391799999995,
            "velocity": 1
          },
          {
            "duration": 0.2600891875000002,
            "durationTicks": 235,
            "midi": 60,
            "name": "C4",
            "ticks": 180960,
            "time": 220.84391799999995,
            "velocity": 1
          },
          {
            "duration": 0.43053061250000724,
            "durationTicks": 389,
            "midi": 65,
            "name": "F4",
            "ticks": 180960,
            "time": 220.84391799999995,
            "velocity": 1
          },
          {
            "duration": 0.5223919000000024,
            "durationTicks": 472,
            "midi": 70,
            "name": "A#4",
            "ticks": 180960,
            "time": 220.84391799999995,
            "velocity": 1
          },
          {
            "duration": 0.5223919000000024,
            "durationTicks": 472,
            "midi": 75,
            "name": "D#5",
            "ticks": 180960,
            "time": 220.84391799999995,
            "velocity": 1
          },
          {
            "duration": 0.2401674625000112,
            "durationTicks": 217,
            "midi": 60,
            "name": "C4",
            "ticks": 181200,
            "time": 221.10954099999995,
            "velocity": 1
          },
          {
            "duration": 0.18925638749999507,
            "durationTicks": 171,
            "midi": 72,
            "name": "C5",
            "ticks": 181200,
            "time": 221.10954099999995,
            "velocity": 1
          },
          {
            "duration": 0.18925638749999507,
            "durationTicks": 171,
            "midi": 77,
            "name": "F5",
            "ticks": 181200,
            "time": 221.10954099999995,
            "velocity": 1
          },
          {
            "duration": 0.2501283249999915,
            "durationTicks": 226,
            "midi": 44,
            "name": "G#2",
            "ticks": 181440,
            "time": 221.37516399999996,
            "velocity": 1
          },
          {
            "duration": 0.2501283249999915,
            "durationTicks": 226,
            "midi": 51,
            "name": "D#3",
            "ticks": 181440,
            "time": 221.37516399999996,
            "velocity": 1
          },
          {
            "duration": 0.2501283249999915,
            "durationTicks": 226,
            "midi": 54,
            "name": "F#3",
            "ticks": 181440,
            "time": 221.37516399999996,
            "velocity": 1
          },
          {
            "duration": 0.2501283249999915,
            "durationTicks": 226,
            "midi": 60,
            "name": "C4",
            "ticks": 181440,
            "time": 221.37516399999996,
            "velocity": 1
          },
          {
            "duration": 0.2501283249999915,
            "durationTicks": 226,
            "midi": 63,
            "name": "D#4",
            "ticks": 181440,
            "time": 221.37516399999996,
            "velocity": 1
          },
          {
            "duration": 0.2501283249999915,
            "durationTicks": 226,
            "midi": 70,
            "name": "A#4",
            "ticks": 181440,
            "time": 221.37516399999996,
            "velocity": 1
          },
          {
            "duration": 0.2501283249999915,
            "durationTicks": 226,
            "midi": 75,
            "name": "D#5",
            "ticks": 181440,
            "time": 221.37516399999996,
            "velocity": 1
          },
          {
            "duration": 0.25898242499999924,
            "durationTicks": 234,
            "midi": 44,
            "name": "G#2",
            "ticks": 181680,
            "time": 221.64078699999996,
            "velocity": 1
          },
          {
            "duration": 0.25898242499999924,
            "durationTicks": 234,
            "midi": 51,
            "name": "D#3",
            "ticks": 181680,
            "time": 221.64078699999996,
            "velocity": 1
          },
          {
            "duration": 0.25898242499999924,
            "durationTicks": 234,
            "midi": 54,
            "name": "F#3",
            "ticks": 181680,
            "time": 221.64078699999996,
            "velocity": 1
          },
          {
            "duration": 0.25898242499999924,
            "durationTicks": 234,
            "midi": 60,
            "name": "C4",
            "ticks": 181680,
            "time": 221.64078699999996,
            "velocity": 1
          },
          {
            "duration": 0.25898242499999924,
            "durationTicks": 234,
            "midi": 63,
            "name": "D#4",
            "ticks": 181680,
            "time": 221.64078699999996,
            "velocity": 1
          },
          {
            "duration": 0.25898242499999924,
            "durationTicks": 234,
            "midi": 72,
            "name": "C5",
            "ticks": 181680,
            "time": 221.64078699999996,
            "velocity": 1
          },
          {
            "duration": 0.25898242499999924,
            "durationTicks": 234,
            "midi": 77,
            "name": "F5",
            "ticks": 181680,
            "time": 221.64078699999996,
            "velocity": 1
          },
          {
            "duration": 0.2600891875000002,
            "durationTicks": 235,
            "midi": 44,
            "name": "G#2",
            "ticks": 181920,
            "time": 221.90640999999997,
            "velocity": 1
          },
          {
            "duration": 0.2600891875000002,
            "durationTicks": 235,
            "midi": 51,
            "name": "D#3",
            "ticks": 181920,
            "time": 221.90640999999997,
            "velocity": 1
          },
          {
            "duration": 0.2600891875000002,
            "durationTicks": 235,
            "midi": 54,
            "name": "F#3",
            "ticks": 181920,
            "time": 221.90640999999997,
            "velocity": 1
          },
          {
            "duration": 0.2600891875000002,
            "durationTicks": 235,
            "midi": 60,
            "name": "C4",
            "ticks": 181920,
            "time": 221.90640999999997,
            "velocity": 1
          },
          {
            "duration": 0.2600891875000002,
            "durationTicks": 235,
            "midi": 63,
            "name": "D#4",
            "ticks": 181920,
            "time": 221.90640999999997,
            "velocity": 1
          },
          {
            "duration": 0.2600891875000002,
            "durationTicks": 235,
            "midi": 75,
            "name": "D#5",
            "ticks": 181920,
            "time": 221.90640999999997,
            "velocity": 1
          },
          {
            "duration": 0.2600891875000002,
            "durationTicks": 235,
            "midi": 80,
            "name": "G#5",
            "ticks": 181920,
            "time": 221.90640999999997,
            "velocity": 1
          },
          {
            "duration": 0.2501283250000199,
            "durationTicks": 226,
            "midi": 44,
            "name": "G#2",
            "ticks": 182160,
            "time": 222.17203299999994,
            "velocity": 1
          },
          {
            "duration": 0.2501283250000199,
            "durationTicks": 226,
            "midi": 51,
            "name": "D#3",
            "ticks": 182160,
            "time": 222.17203299999994,
            "velocity": 1
          },
          {
            "duration": 0.2501283250000199,
            "durationTicks": 226,
            "midi": 54,
            "name": "F#3",
            "ticks": 182160,
            "time": 222.17203299999994,
            "velocity": 1
          },
          {
            "duration": 0.2501283250000199,
            "durationTicks": 226,
            "midi": 60,
            "name": "C4",
            "ticks": 182160,
            "time": 222.17203299999994,
            "velocity": 1
          },
          {
            "duration": 0.2501283250000199,
            "durationTicks": 226,
            "midi": 63,
            "name": "D#4",
            "ticks": 182160,
            "time": 222.17203299999994,
            "velocity": 1
          },
          {
            "duration": 0.2501283250000199,
            "durationTicks": 226,
            "midi": 72,
            "name": "C5",
            "ticks": 182160,
            "time": 222.17203299999994,
            "velocity": 1
          },
          {
            "duration": 0.2501283250000199,
            "durationTicks": 226,
            "midi": 77,
            "name": "F5",
            "ticks": 182160,
            "time": 222.17203299999994,
            "velocity": 1
          },
          {
            "duration": 0.25847737500001244,
            "durationTicks": 234,
            "midi": 46,
            "name": "A#2",
            "ticks": 182400,
            "time": 222.43765599999995,
            "velocity": 1
          },
          {
            "duration": 0.25847737500001244,
            "durationTicks": 234,
            "midi": 53,
            "name": "F3",
            "ticks": 182400,
            "time": 222.43765599999995,
            "velocity": 1
          },
          {
            "duration": 0.25847737500001244,
            "durationTicks": 234,
            "midi": 58,
            "name": "A#3",
            "ticks": 182400,
            "time": 222.43765599999995,
            "velocity": 1
          },
          {
            "duration": 0.25847737500001244,
            "durationTicks": 234,
            "midi": 63,
            "name": "D#4",
            "ticks": 182400,
            "time": 222.43765599999995,
            "velocity": 1
          },
          {
            "duration": 0.25847737500001244,
            "durationTicks": 234,
            "midi": 70,
            "name": "A#4",
            "ticks": 182400,
            "time": 222.43765599999995,
            "velocity": 1
          },
          {
            "duration": 0.25847737500001244,
            "durationTicks": 234,
            "midi": 75,
            "name": "D#5",
            "ticks": 182400,
            "time": 222.43765599999995,
            "velocity": 1
          },
          {
            "duration": 0.2496405416666505,
            "durationTicks": 226,
            "midi": 46,
            "name": "A#2",
            "ticks": 182640,
            "time": 222.70276099999995,
            "velocity": 1
          },
          {
            "duration": 0.2496405416666505,
            "durationTicks": 226,
            "midi": 53,
            "name": "F3",
            "ticks": 182640,
            "time": 222.70276099999995,
            "velocity": 1
          },
          {
            "duration": 0.2496405416666505,
            "durationTicks": 226,
            "midi": 58,
            "name": "A#3",
            "ticks": 182640,
            "time": 222.70276099999995,
            "velocity": 1
          },
          {
            "duration": 0.2496405416666505,
            "durationTicks": 226,
            "midi": 63,
            "name": "D#4",
            "ticks": 182640,
            "time": 222.70276099999995,
            "velocity": 1
          },
          {
            "duration": 0.2496405416666505,
            "durationTicks": 226,
            "midi": 72,
            "name": "C5",
            "ticks": 182640,
            "time": 222.70276099999995,
            "velocity": 1
          },
          {
            "duration": 0.2496405416666505,
            "durationTicks": 226,
            "midi": 75,
            "name": "D#5",
            "ticks": 182640,
            "time": 222.70276099999995,
            "velocity": 1
          },
          {
            "duration": 0.2496405416666505,
            "durationTicks": 226,
            "midi": 77,
            "name": "F5",
            "ticks": 182640,
            "time": 222.70276099999995,
            "velocity": 1
          },
          {
            "duration": 0.26179118749999475,
            "durationTicks": 237,
            "midi": 46,
            "name": "A#2",
            "ticks": 182880,
            "time": 222.96786599999996,
            "velocity": 1
          },
          {
            "duration": 0.26179118749999475,
            "durationTicks": 237,
            "midi": 53,
            "name": "F3",
            "ticks": 182880,
            "time": 222.96786599999996,
            "velocity": 1
          },
          {
            "duration": 0.26179118749999475,
            "durationTicks": 237,
            "midi": 56,
            "name": "G#3",
            "ticks": 182880,
            "time": 222.96786599999996,
            "velocity": 1
          },
          {
            "duration": 0.26179118749999475,
            "durationTicks": 237,
            "midi": 61,
            "name": "C#4",
            "ticks": 182880,
            "time": 222.96786599999996,
            "velocity": 1
          },
          {
            "duration": 0.26179118749999475,
            "durationTicks": 237,
            "midi": 63,
            "name": "D#4",
            "ticks": 182880,
            "time": 222.96786599999996,
            "velocity": 1
          },
          {
            "duration": 0.26179118749999475,
            "durationTicks": 237,
            "midi": 70,
            "name": "A#4",
            "ticks": 182880,
            "time": 222.96786599999996,
            "velocity": 1
          },
          {
            "duration": 0.26179118749999475,
            "durationTicks": 237,
            "midi": 75,
            "name": "D#5",
            "ticks": 182880,
            "time": 222.96786599999996,
            "velocity": 1
          },
          {
            "duration": 0.25295435416668965,
            "durationTicks": 229,
            "midi": 46,
            "name": "A#2",
            "ticks": 183120,
            "time": 223.23297099999994,
            "velocity": 1
          },
          {
            "duration": 0.25295435416668965,
            "durationTicks": 229,
            "midi": 53,
            "name": "F3",
            "ticks": 183120,
            "time": 223.23297099999994,
            "velocity": 1
          },
          {
            "duration": 0.25295435416668965,
            "durationTicks": 229,
            "midi": 56,
            "name": "G#3",
            "ticks": 183120,
            "time": 223.23297099999994,
            "velocity": 1
          },
          {
            "duration": 0.25295435416668965,
            "durationTicks": 229,
            "midi": 61,
            "name": "C#4",
            "ticks": 183120,
            "time": 223.23297099999994,
            "velocity": 1
          },
          {
            "duration": 0.25295435416668965,
            "durationTicks": 229,
            "midi": 65,
            "name": "F4",
            "ticks": 183120,
            "time": 223.23297099999994,
            "velocity": 1
          },
          {
            "duration": 0.25295435416668965,
            "durationTicks": 229,
            "midi": 68,
            "name": "G#4",
            "ticks": 183120,
            "time": 223.23297099999994,
            "velocity": 1
          },
          {
            "duration": 0.25295435416668965,
            "durationTicks": 229,
            "midi": 73,
            "name": "C#5",
            "ticks": 183120,
            "time": 223.23297099999994,
            "velocity": 1
          },
          {
            "duration": 1.0394325208333441,
            "durationTicks": 941,
            "midi": 46,
            "name": "A#2",
            "ticks": 183360,
            "time": 223.49807599999994,
            "velocity": 1
          },
          {
            "duration": 0.26400039583333523,
            "durationTicks": 239,
            "midi": 53,
            "name": "F3",
            "ticks": 183360,
            "time": 223.49807599999994,
            "velocity": 1
          },
          {
            "duration": 0.26400039583333523,
            "durationTicks": 239,
            "midi": 56,
            "name": "G#3",
            "ticks": 183360,
            "time": 223.49807599999994,
            "velocity": 1
          },
          {
            "duration": 0.26400039583333523,
            "durationTicks": 239,
            "midi": 61,
            "name": "C#4",
            "ticks": 183360,
            "time": 223.49807599999994,
            "velocity": 1
          },
          {
            "duration": 1.0394325208333441,
            "durationTicks": 941,
            "midi": 65,
            "name": "F4",
            "ticks": 183360,
            "time": 223.49807599999994,
            "velocity": 1
          },
          {
            "duration": 1.0394325208333441,
            "durationTicks": 941,
            "midi": 70,
            "name": "A#4",
            "ticks": 183360,
            "time": 223.49807599999994,
            "velocity": 1
          },
          {
            "duration": 0.26400039583333523,
            "durationTicks": 239,
            "midi": 53,
            "name": "F3",
            "ticks": 183599,
            "time": 223.76207639583328,
            "velocity": 1
          },
          {
            "duration": 0.26400039583333523,
            "durationTicks": 239,
            "midi": 56,
            "name": "G#3",
            "ticks": 183599,
            "time": 223.76207639583328,
            "velocity": 1
          },
          {
            "duration": 0.26400039583333523,
            "durationTicks": 239,
            "midi": 61,
            "name": "C#4",
            "ticks": 183599,
            "time": 223.76207639583328,
            "velocity": 1
          },
          {
            "duration": 0.514745541666656,
            "durationTicks": 466,
            "midi": 53,
            "name": "F3",
            "ticks": 183840,
            "time": 224.02828599999995,
            "velocity": 1
          },
          {
            "duration": 0.25295435416666123,
            "durationTicks": 229,
            "midi": 56,
            "name": "G#3",
            "ticks": 183840,
            "time": 224.02828599999995,
            "velocity": 1
          },
          {
            "duration": 0.514745541666656,
            "durationTicks": 466,
            "midi": 61,
            "name": "C#4",
            "ticks": 183840,
            "time": 224.02828599999995,
            "velocity": 1
          },
          {
            "duration": 0.26179118749999475,
            "durationTicks": 237,
            "midi": 56,
            "name": "G#3",
            "ticks": 184080,
            "time": 224.29339099999996,
            "velocity": 1
          },
          {
            "duration": 0.24062270833331922,
            "durationTicks": 220,
            "midi": 46,
            "name": "A#2",
            "ticks": 184320,
            "time": 224.55849599999993,
            "velocity": 1
          },
          {
            "duration": 0.27124741666665386,
            "durationTicks": 248,
            "midi": 53,
            "name": "F3",
            "ticks": 184320,
            "time": 224.55849599999993,
            "velocity": 1
          },
          {
            "duration": 0.27124741666665386,
            "durationTicks": 248,
            "midi": 56,
            "name": "G#3",
            "ticks": 184320,
            "time": 224.55849599999993,
            "velocity": 1
          },
          {
            "duration": 0.27124741666665386,
            "durationTicks": 248,
            "midi": 61,
            "name": "C#4",
            "ticks": 184320,
            "time": 224.55849599999993,
            "velocity": 1
          },
          {
            "duration": 0.25921628125001916,
            "durationTicks": 237,
            "midi": 46,
            "name": "A#2",
            "ticks": 184560,
            "time": 224.82099349999993,
            "velocity": 1
          },
          {
            "duration": 0.2296853125000098,
            "durationTicks": 210,
            "midi": 53,
            "name": "F3",
            "ticks": 184560,
            "time": 224.82099349999993,
            "velocity": 1
          },
          {
            "duration": 0.2296853125000098,
            "durationTicks": 210,
            "midi": 56,
            "name": "G#3",
            "ticks": 184560,
            "time": 224.82099349999993,
            "velocity": 1
          },
          {
            "duration": 0.2296853125000098,
            "durationTicks": 210,
            "midi": 61,
            "name": "C#4",
            "ticks": 184560,
            "time": 224.82099349999993,
            "velocity": 1
          },
          {
            "duration": 0.2635912395833486,
            "durationTicks": 241,
            "midi": 46,
            "name": "A#2",
            "ticks": 184800,
            "time": 225.08349099999992,
            "velocity": 1
          },
          {
            "duration": 0.2635912395833486,
            "durationTicks": 241,
            "midi": 53,
            "name": "F3",
            "ticks": 184800,
            "time": 225.08349099999992,
            "velocity": 1
          },
          {
            "duration": 0.2635912395833486,
            "durationTicks": 241,
            "midi": 56,
            "name": "G#3",
            "ticks": 184800,
            "time": 225.08349099999992,
            "velocity": 1
          },
          {
            "duration": 0.2635912395833486,
            "durationTicks": 241,
            "midi": 61,
            "name": "C#4",
            "ticks": 184800,
            "time": 225.08349099999992,
            "velocity": 1
          },
          {
            "duration": 0.24499766666664868,
            "durationTicks": 224,
            "midi": 46,
            "name": "A#2",
            "ticks": 185040,
            "time": 225.34598849999995,
            "velocity": 1
          },
          {
            "duration": 0.24499766666664868,
            "durationTicks": 224,
            "midi": 53,
            "name": "F3",
            "ticks": 185040,
            "time": 225.34598849999995,
            "velocity": 1
          },
          {
            "duration": 0.24499766666664868,
            "durationTicks": 224,
            "midi": 56,
            "name": "G#3",
            "ticks": 185040,
            "time": 225.34598849999995,
            "velocity": 1
          },
          {
            "duration": 0.24499766666664868,
            "durationTicks": 224,
            "midi": 61,
            "name": "C#4",
            "ticks": 185040,
            "time": 225.34598849999995,
            "velocity": 1
          },
          {
            "duration": 0.22640409375000559,
            "durationTicks": 207,
            "midi": 44,
            "name": "G#2",
            "ticks": 185280,
            "time": 225.60848599999994,
            "velocity": 1
          },
          {
            "duration": 0.22640409375000559,
            "durationTicks": 207,
            "midi": 53,
            "name": "F3",
            "ticks": 185280,
            "time": 225.60848599999994,
            "velocity": 1
          },
          {
            "duration": 0.22640409375000559,
            "durationTicks": 207,
            "midi": 56,
            "name": "G#3",
            "ticks": 185280,
            "time": 225.60848599999994,
            "velocity": 1
          },
          {
            "duration": 0.45937062499999115,
            "durationTicks": 420,
            "midi": 61,
            "name": "C#4",
            "ticks": 185280,
            "time": 225.60848599999994,
            "velocity": 1
          },
          {
            "duration": 0.45937062499999115,
            "durationTicks": 420,
            "midi": 65,
            "name": "F4",
            "ticks": 185280,
            "time": 225.60848599999994,
            "velocity": 1
          },
          {
            "duration": 0.45937062499999115,
            "durationTicks": 420,
            "midi": 68,
            "name": "G#4",
            "ticks": 185280,
            "time": 225.60848599999994,
            "velocity": 1
          },
          {
            "duration": 0.45937062499999115,
            "durationTicks": 420,
            "midi": 73,
            "name": "C#5",
            "ticks": 185280,
            "time": 225.60848599999994,
            "velocity": 1
          },
          {
            "duration": 0.24390392708332342,
            "durationTicks": 223,
            "midi": 44,
            "name": "G#2",
            "ticks": 185520,
            "time": 225.87098349999994,
            "velocity": 1
          },
          {
            "duration": 0.24390392708332342,
            "durationTicks": 223,
            "midi": 53,
            "name": "F3",
            "ticks": 185520,
            "time": 225.87098349999994,
            "velocity": 1
          },
          {
            "duration": 0.24390392708332342,
            "durationTicks": 223,
            "midi": 56,
            "name": "G#3",
            "ticks": 185520,
            "time": 225.87098349999994,
            "velocity": 1
          },
          {
            "duration": 0.21546669791666773,
            "durationTicks": 197,
            "midi": 44,
            "name": "G#2",
            "ticks": 185760,
            "time": 226.13348099999993,
            "velocity": 1
          },
          {
            "duration": 0.21546669791666773,
            "durationTicks": 197,
            "midi": 53,
            "name": "F3",
            "ticks": 185760,
            "time": 226.13348099999993,
            "velocity": 1
          },
          {
            "duration": 0.21546669791666773,
            "durationTicks": 197,
            "midi": 56,
            "name": "G#3",
            "ticks": 185760,
            "time": 226.13348099999993,
            "velocity": 1
          },
          {
            "duration": 0.45937062499999115,
            "durationTicks": 420,
            "midi": 65,
            "name": "F4",
            "ticks": 185760,
            "time": 226.13348099999993,
            "velocity": 1
          },
          {
            "duration": 0.45937062499999115,
            "durationTicks": 420,
            "midi": 68,
            "name": "G#4",
            "ticks": 185760,
            "time": 226.13348099999993,
            "velocity": 1
          },
          {
            "duration": 0.45937062499999115,
            "durationTicks": 420,
            "midi": 72,
            "name": "C5",
            "ticks": 185760,
            "time": 226.13348099999993,
            "velocity": 1
          },
          {
            "duration": 0.45937062499999115,
            "durationTicks": 420,
            "midi": 75,
            "name": "D#5",
            "ticks": 185760,
            "time": 226.13348099999993,
            "velocity": 1
          },
          {
            "duration": 0.24390392708335185,
            "durationTicks": 223,
            "midi": 44,
            "name": "G#2",
            "ticks": 186000,
            "time": 226.39597849999993,
            "velocity": 1
          },
          {
            "duration": 0.24390392708335185,
            "durationTicks": 223,
            "midi": 53,
            "name": "F3",
            "ticks": 186000,
            "time": 226.39597849999993,
            "velocity": 1
          },
          {
            "duration": 0.24390392708335185,
            "durationTicks": 223,
            "midi": 56,
            "name": "G#3",
            "ticks": 186000,
            "time": 226.39597849999993,
            "velocity": 1
          },
          {
            "duration": 0.2004408437499876,
            "durationTicks": 179,
            "midi": 42,
            "name": "F#2",
            "ticks": 186240,
            "time": 226.65847599999992,
            "velocity": 1
          },
          {
            "duration": 0.2004408437499876,
            "durationTicks": 179,
            "midi": 49,
            "name": "C#3",
            "ticks": 186240,
            "time": 226.65847599999992,
            "velocity": 1
          },
          {
            "duration": 0.2004408437499876,
            "durationTicks": 179,
            "midi": 54,
            "name": "F#3",
            "ticks": 186240,
            "time": 226.65847599999992,
            "velocity": 1
          },
          {
            "duration": 0.2004408437499876,
            "durationTicks": 179,
            "midi": 82,
            "name": "A#5",
            "ticks": 186240,
            "time": 226.65847599999992,
            "velocity": 1
          },
          {
            "duration": 0.2004408437499876,
            "durationTicks": 179,
            "midi": 87,
            "name": "D#6",
            "ticks": 186240,
            "time": 226.65847599999992,
            "velocity": 1
          },
          {
            "duration": 0.21835734375000015,
            "durationTicks": 195,
            "midi": 42,
            "name": "F#2",
            "ticks": 186480,
            "time": 226.9272234999999,
            "velocity": 1
          },
          {
            "duration": 0.21835734375000015,
            "durationTicks": 195,
            "midi": 49,
            "name": "C#3",
            "ticks": 186480,
            "time": 226.9272234999999,
            "velocity": 1
          },
          {
            "duration": 0.21835734375000015,
            "durationTicks": 195,
            "midi": 54,
            "name": "F#3",
            "ticks": 186480,
            "time": 226.9272234999999,
            "velocity": 1
          },
          {
            "duration": 0.21835734375000015,
            "durationTicks": 195,
            "midi": 84,
            "name": "C6",
            "ticks": 186480,
            "time": 226.9272234999999,
            "velocity": 1
          },
          {
            "duration": 0.21835734375000015,
            "durationTicks": 195,
            "midi": 89,
            "name": "F6",
            "ticks": 186480,
            "time": 226.9272234999999,
            "velocity": 1
          },
          {
            "duration": 0.2373936249999815,
            "durationTicks": 212,
            "midi": 42,
            "name": "F#2",
            "ticks": 186720,
            "time": 227.19597099999993,
            "velocity": 1
          },
          {
            "duration": 0.2373936249999815,
            "durationTicks": 212,
            "midi": 49,
            "name": "C#3",
            "ticks": 186720,
            "time": 227.19597099999993,
            "velocity": 1
          },
          {
            "duration": 0.22731559375000643,
            "durationTicks": 203,
            "midi": 54,
            "name": "F#3",
            "ticks": 186720,
            "time": 227.19597099999993,
            "velocity": 1
          },
          {
            "duration": 0.2373936249999815,
            "durationTicks": 212,
            "midi": 82,
            "name": "A#5",
            "ticks": 186720,
            "time": 227.19597099999993,
            "velocity": 1
          },
          {
            "duration": 0.22731559375000643,
            "durationTicks": 203,
            "midi": 87,
            "name": "D#6",
            "ticks": 186720,
            "time": 227.19597099999993,
            "velocity": 1
          },
          {
            "duration": 0.2698672812500149,
            "durationTicks": 241,
            "midi": 42,
            "name": "F#2",
            "ticks": 186960,
            "time": 227.46471849999992,
            "velocity": 1
          },
          {
            "duration": 0.2698672812500149,
            "durationTicks": 241,
            "midi": 49,
            "name": "C#3",
            "ticks": 186960,
            "time": 227.46471849999992,
            "velocity": 1
          },
          {
            "duration": 0.2698672812500149,
            "durationTicks": 241,
            "midi": 58,
            "name": "A#3",
            "ticks": 186960,
            "time": 227.46471849999992,
            "velocity": 1
          },
          {
            "duration": 0.2698672812500149,
            "durationTicks": 241,
            "midi": 82,
            "name": "A#5",
            "ticks": 186960,
            "time": 227.46471849999992,
            "velocity": 1
          },
          {
            "duration": 0.2698672812500149,
            "durationTicks": 241,
            "midi": 89,
            "name": "F6",
            "ticks": 186960,
            "time": 227.46471849999992,
            "velocity": 1
          },
          {
            "duration": 0.25866946874998575,
            "durationTicks": 231,
            "midi": 42,
            "name": "F#2",
            "ticks": 187200,
            "time": 227.73346599999994,
            "velocity": 1
          },
          {
            "duration": 0.25866946874998575,
            "durationTicks": 231,
            "midi": 49,
            "name": "C#3",
            "ticks": 187200,
            "time": 227.73346599999994,
            "velocity": 1
          },
          {
            "duration": 0.25866946874998575,
            "durationTicks": 231,
            "midi": 58,
            "name": "A#3",
            "ticks": 187200,
            "time": 227.73346599999994,
            "velocity": 1
          },
          {
            "duration": 0.7760084062499857,
            "durationTicks": 693,
            "midi": 82,
            "name": "A#5",
            "ticks": 187200,
            "time": 227.73346599999994,
            "velocity": 1
          },
          {
            "duration": 0.7760084062499857,
            "durationTicks": 693,
            "midi": 87,
            "name": "D#6",
            "ticks": 187200,
            "time": 227.73346599999994,
            "velocity": 1
          },
          {
            "duration": 0.7760084062499857,
            "durationTicks": 693,
            "midi": 94,
            "name": "A#6",
            "ticks": 187200,
            "time": 227.73346599999994,
            "velocity": 1
          },
          {
            "duration": 0.23739362500000993,
            "durationTicks": 212,
            "midi": 42,
            "name": "F#2",
            "ticks": 187440,
            "time": 228.00221349999993,
            "velocity": 1
          },
          {
            "duration": 0.23739362500000993,
            "durationTicks": 212,
            "midi": 49,
            "name": "C#3",
            "ticks": 187440,
            "time": 228.00221349999993,
            "velocity": 1
          },
          {
            "duration": 0.23739362500000993,
            "durationTicks": 212,
            "midi": 58,
            "name": "A#3",
            "ticks": 187440,
            "time": 228.00221349999993,
            "velocity": 1
          },
          {
            "duration": 0.2586694687500142,
            "durationTicks": 231,
            "midi": 42,
            "name": "F#2",
            "ticks": 187680,
            "time": 228.27096099999991,
            "velocity": 1
          },
          {
            "duration": 0.2586694687500142,
            "durationTicks": 231,
            "midi": 49,
            "name": "C#3",
            "ticks": 187680,
            "time": 228.27096099999991,
            "velocity": 1
          },
          {
            "duration": 0.2586694687500142,
            "durationTicks": 231,
            "midi": 58,
            "name": "A#3",
            "ticks": 187680,
            "time": 228.27096099999991,
            "velocity": 1
          },
          {
            "duration": 0.16460784374999093,
            "durationTicks": 147,
            "midi": 42,
            "name": "F#2",
            "ticks": 187920,
            "time": 228.53970849999993,
            "velocity": 1
          },
          {
            "duration": 0.16460784374999093,
            "durationTicks": 147,
            "midi": 49,
            "name": "C#3",
            "ticks": 187920,
            "time": 228.53970849999993,
            "velocity": 1
          },
          {
            "duration": 0.16460784374999093,
            "durationTicks": 147,
            "midi": 58,
            "name": "A#3",
            "ticks": 187920,
            "time": 228.53970849999993,
            "velocity": 1
          },
          {
            "duration": 0.16460784374999093,
            "durationTicks": 147,
            "midi": 82,
            "name": "A#5",
            "ticks": 187920,
            "time": 228.53970849999993,
            "velocity": 1
          },
          {
            "duration": 0.16460784374999093,
            "durationTicks": 147,
            "midi": 87,
            "name": "D#6",
            "ticks": 187920,
            "time": 228.53970849999993,
            "velocity": 1
          },
          {
            "duration": 0.16460784374999093,
            "durationTicks": 147,
            "midi": 94,
            "name": "A#6",
            "ticks": 187920,
            "time": 228.53970849999993,
            "velocity": 1
          },
          {
            "duration": 0.17444135833335395,
            "durationTicks": 157,
            "midi": 42,
            "name": "F#2",
            "ticks": 188040,
            "time": 228.6740822499999,
            "velocity": 1
          },
          {
            "duration": 0.17444135833335395,
            "durationTicks": 157,
            "midi": 49,
            "name": "C#3",
            "ticks": 188040,
            "time": 228.6740822499999,
            "velocity": 1
          },
          {
            "duration": 0.17444135833335395,
            "durationTicks": 157,
            "midi": 58,
            "name": "A#3",
            "ticks": 188040,
            "time": 228.6740822499999,
            "velocity": 1
          },
          {
            "duration": 0.17444135833335395,
            "durationTicks": 157,
            "midi": 82,
            "name": "A#5",
            "ticks": 188040,
            "time": 228.6740822499999,
            "velocity": 1
          },
          {
            "duration": 0.17444135833335395,
            "durationTicks": 157,
            "midi": 87,
            "name": "D#6",
            "ticks": 188040,
            "time": 228.6740822499999,
            "velocity": 1
          },
          {
            "duration": 0.17444135833335395,
            "durationTicks": 157,
            "midi": 94,
            "name": "A#6",
            "ticks": 188040,
            "time": 228.6740822499999,
            "velocity": 1
          },
          {
            "duration": 0.42016843333334464,
            "durationTicks": 388,
            "midi": 44,
            "name": "G#2",
            "ticks": 188160,
            "time": 228.80845599999992,
            "velocity": 1
          },
          {
            "duration": 0.42016843333334464,
            "durationTicks": 388,
            "midi": 51,
            "name": "D#3",
            "ticks": 188160,
            "time": 228.80845599999992,
            "velocity": 1
          },
          {
            "duration": 0.22957656666667958,
            "durationTicks": 212,
            "midi": 82,
            "name": "A#5",
            "ticks": 188160,
            "time": 228.80845599999992,
            "velocity": 1
          },
          {
            "duration": 0.22957656666667958,
            "durationTicks": 212,
            "midi": 94,
            "name": "A#6",
            "ticks": 188160,
            "time": 228.80845599999992,
            "velocity": 1
          },
          {
            "duration": 0.2111671250000029,
            "durationTicks": 195,
            "midi": 54,
            "name": "F#3",
            "ticks": 188400,
            "time": 229.0683539999999,
            "velocity": 1
          },
          {
            "duration": 0.10937374166667269,
            "durationTicks": 101,
            "midi": 82,
            "name": "A#5",
            "ticks": 188520,
            "time": 229.19830299999992,
            "velocity": 1
          },
          {
            "duration": 0.10937374166667269,
            "durationTicks": 101,
            "midi": 94,
            "name": "A#6",
            "ticks": 188520,
            "time": 229.19830299999992,
            "velocity": 1
          },
          {
            "duration": 1.5726180999999713,
            "durationTicks": 1452,
            "midi": 44,
            "name": "G#2",
            "ticks": 188640,
            "time": 229.32825199999994,
            "velocity": 1
          },
          {
            "duration": 0.30429724166666006,
            "durationTicks": 281,
            "midi": 51,
            "name": "D#3",
            "ticks": 188640,
            "time": 229.32825199999994,
            "velocity": 1
          },
          {
            "duration": 0.30429724166666006,
            "durationTicks": 281,
            "midi": 54,
            "name": "F#3",
            "ticks": 188640,
            "time": 229.32825199999994,
            "velocity": 1
          },
          {
            "duration": 0.295633974999987,
            "durationTicks": 273,
            "midi": 82,
            "name": "A#5",
            "ticks": 188640,
            "time": 229.32825199999994,
            "velocity": 1
          },
          {
            "duration": 0.22632784166665942,
            "durationTicks": 209,
            "midi": 87,
            "name": "D#6",
            "ticks": 188640,
            "time": 229.32825199999994,
            "velocity": 1
          },
          {
            "duration": 1.5726180999999713,
            "durationTicks": 1452,
            "midi": 94,
            "name": "A#6",
            "ticks": 188640,
            "time": 229.32825199999994,
            "velocity": 1
          },
          {
            "duration": 0.26531254166667395,
            "durationTicks": 245,
            "midi": 51,
            "name": "D#3",
            "ticks": 188880,
            "time": 229.58814999999993,
            "velocity": 1
          },
          {
            "duration": 0.26531254166667395,
            "durationTicks": 245,
            "midi": 54,
            "name": "F#3",
            "ticks": 188880,
            "time": 229.58814999999993,
            "velocity": 1
          },
          {
            "duration": 0.26531254166667395,
            "durationTicks": 245,
            "midi": 60,
            "name": "C4",
            "ticks": 188880,
            "time": 229.58814999999993,
            "velocity": 1
          },
          {
            "duration": 0.25448345833333974,
            "durationTicks": 235,
            "midi": 82,
            "name": "A#5",
            "ticks": 188880,
            "time": 229.58814999999993,
            "velocity": 1
          },
          {
            "duration": 0.5197959999999853,
            "durationTicks": 480,
            "midi": 89,
            "name": "F6",
            "ticks": 188880,
            "time": 229.58814999999993,
            "velocity": 1
          },
          {
            "duration": 0.25448345833333974,
            "durationTicks": 235,
            "midi": 51,
            "name": "D#3",
            "ticks": 189120,
            "time": 229.84804799999992,
            "velocity": 1
          },
          {
            "duration": 0.25448345833333974,
            "durationTicks": 235,
            "midi": 54,
            "name": "F#3",
            "ticks": 189120,
            "time": 229.84804799999992,
            "velocity": 1
          },
          {
            "duration": 0.25448345833333974,
            "durationTicks": 235,
            "midi": 60,
            "name": "C4",
            "ticks": 189120,
            "time": 229.84804799999992,
            "velocity": 1
          },
          {
            "duration": 0.26639545000000453,
            "durationTicks": 246,
            "midi": 82,
            "name": "A#5",
            "ticks": 189120,
            "time": 229.84804799999992,
            "velocity": 1
          },
          {
            "duration": 0.5219618166666748,
            "durationTicks": 482,
            "midi": 87,
            "name": "D#6",
            "ticks": 189120,
            "time": 229.84804799999992,
            "velocity": 1
          },
          {
            "duration": 0.26639545000000453,
            "durationTicks": 246,
            "midi": 51,
            "name": "D#3",
            "ticks": 189360,
            "time": 230.1079459999999,
            "velocity": 1
          },
          {
            "duration": 0.26639545000000453,
            "durationTicks": 246,
            "midi": 54,
            "name": "F#3",
            "ticks": 189360,
            "time": 230.1079459999999,
            "velocity": 1
          },
          {
            "duration": 0.26639545000000453,
            "durationTicks": 246,
            "midi": 60,
            "name": "C4",
            "ticks": 189360,
            "time": 230.1079459999999,
            "velocity": 1
          },
          {
            "duration": 0.26639545000000453,
            "durationTicks": 246,
            "midi": 82,
            "name": "A#5",
            "ticks": 189360,
            "time": 230.1079459999999,
            "velocity": 1
          },
          {
            "duration": 0.3237895916666673,
            "durationTicks": 299,
            "midi": 89,
            "name": "F6",
            "ticks": 189360,
            "time": 230.1079459999999,
            "velocity": 1
          },
          {
            "duration": 0.2544834583333113,
            "durationTicks": 235,
            "midi": 51,
            "name": "D#3",
            "ticks": 189600,
            "time": 230.36784399999993,
            "velocity": 1
          },
          {
            "duration": 0.48189420833332974,
            "durationTicks": 445,
            "midi": 54,
            "name": "F#3",
            "ticks": 189600,
            "time": 230.36784399999993,
            "velocity": 1
          },
          {
            "duration": 0.2544834583333113,
            "durationTicks": 235,
            "midi": 60,
            "name": "C4",
            "ticks": 189600,
            "time": 230.36784399999993,
            "velocity": 1
          },
          {
            "duration": 0.26314672499998437,
            "durationTicks": 243,
            "midi": 82,
            "name": "A#5",
            "ticks": 189600,
            "time": 230.36784399999993,
            "velocity": 1
          },
          {
            "duration": 0.4916403833333334,
            "durationTicks": 454,
            "midi": 87,
            "name": "D#6",
            "ticks": 189600,
            "time": 230.36784399999993,
            "velocity": 1
          },
          {
            "duration": 0.22741074999999,
            "durationTicks": 210,
            "midi": 51,
            "name": "D#3",
            "ticks": 189840,
            "time": 230.62774199999993,
            "velocity": 1
          },
          {
            "duration": 0.22741074999999,
            "durationTicks": 210,
            "midi": 60,
            "name": "C4",
            "ticks": 189840,
            "time": 230.62774199999993,
            "velocity": 1
          },
          {
            "duration": 0.2577321833333315,
            "durationTicks": 238,
            "midi": 82,
            "name": "A#5",
            "ticks": 189840,
            "time": 230.62774199999993,
            "velocity": 1
          },
          {
            "duration": 0.23607401666666306,
            "durationTicks": 218,
            "midi": 85,
            "name": "C#6",
            "ticks": 189840,
            "time": 230.62774199999993,
            "velocity": 1
          },
          {
            "duration": 0.22741074999999,
            "durationTicks": 210,
            "midi": 89,
            "name": "F6",
            "ticks": 189840,
            "time": 230.62774199999993,
            "velocity": 1
          },
          {
            "duration": 2.100278374999988,
            "durationTicks": 1905,
            "midi": 46,
            "name": "A#2",
            "ticks": 190080,
            "time": 230.88763999999992,
            "velocity": 1
          },
          {
            "duration": 0.008820066666658022,
            "durationTicks": 8,
            "midi": 82,
            "name": "A#5",
            "ticks": 190080,
            "time": 230.88763999999992,
            "velocity": 1
          },
          {
            "duration": 0.5115638666666769,
            "durationTicks": 464,
            "midi": 82,
            "name": "A#5",
            "ticks": 190080,
            "time": 230.88763999999992,
            "velocity": 1
          },
          {
            "duration": 0.5292039999999929,
            "durationTicks": 480,
            "midi": 87,
            "name": "D#6",
            "ticks": 190080,
            "time": 230.88763999999992,
            "velocity": 1
          },
          {
            "duration": 0.6416598499999964,
            "durationTicks": 582,
            "midi": 94,
            "name": "A#6",
            "ticks": 190080,
            "time": 230.88763999999992,
            "velocity": 1
          },
          {
            "duration": 0.2590894583333352,
            "durationTicks": 235,
            "midi": 53,
            "name": "F3",
            "ticks": 190320,
            "time": 231.15224199999992,
            "velocity": 1
          },
          {
            "duration": 0.7916009833333248,
            "durationTicks": 718,
            "midi": 84,
            "name": "C6",
            "ticks": 190320,
            "time": 231.15224199999992,
            "velocity": 1
          },
          {
            "duration": 0.3792628666666644,
            "durationTicks": 344,
            "midi": 89,
            "name": "F6",
            "ticks": 190320,
            "time": 231.15224199999992,
            "velocity": 1
          },
          {
            "duration": 0.5203839333333349,
            "durationTicks": 472,
            "midi": 53,
            "name": "F3",
            "ticks": 190560,
            "time": 231.4168439999999,
            "velocity": 1
          },
          {
            "duration": 0.2590894583333352,
            "durationTicks": 235,
            "midi": 61,
            "name": "C#4",
            "ticks": 190560,
            "time": 231.4168439999999,
            "velocity": 1
          },
          {
            "duration": 0.2590894583333352,
            "durationTicks": 235,
            "midi": 82,
            "name": "A#5",
            "ticks": 190560,
            "time": 231.4168439999999,
            "velocity": 1
          },
          {
            "duration": 0.12127591666666149,
            "durationTicks": 110,
            "midi": 87,
            "name": "D#6",
            "ticks": 190560,
            "time": 231.4168439999999,
            "velocity": 1
          },
          {
            "duration": 0.27011454166668614,
            "durationTicks": 245,
            "midi": 56,
            "name": "G#3",
            "ticks": 190800,
            "time": 231.6814459999999,
            "velocity": 1
          },
          {
            "duration": 0.27011454166668614,
            "durationTicks": 245,
            "midi": 61,
            "name": "C#4",
            "ticks": 190800,
            "time": 231.6814459999999,
            "velocity": 1
          },
          {
            "duration": 1.850008983333339,
            "durationTicks": 1678,
            "midi": 65,
            "name": "F4",
            "ticks": 190800,
            "time": 231.6814459999999,
            "velocity": 1
          },
          {
            "duration": 1.83016383333333,
            "durationTicks": 1660,
            "midi": 77,
            "name": "F5",
            "ticks": 190800,
            "time": 231.6814459999999,
            "velocity": 1
          },
          {
            "duration": 1.858829049999997,
            "durationTicks": 1686,
            "midi": 82,
            "name": "A#5",
            "ticks": 190800,
            "time": 231.6814459999999,
            "velocity": 1
          },
          {
            "duration": 0.26239698333336037,
            "durationTicks": 238,
            "midi": 53,
            "name": "F3",
            "ticks": 191040,
            "time": 231.9460479999999,
            "velocity": 1
          },
          {
            "duration": 0.26239698333336037,
            "durationTicks": 238,
            "midi": 56,
            "name": "G#3",
            "ticks": 191040,
            "time": 231.9460479999999,
            "velocity": 1
          },
          {
            "duration": 0.26239698333336037,
            "durationTicks": 238,
            "midi": 61,
            "name": "C#4",
            "ticks": 191040,
            "time": 231.9460479999999,
            "velocity": 1
          },
          {
            "duration": 1.5876120000000071,
            "durationTicks": 1440,
            "midi": 80,
            "name": "G#5",
            "ticks": 191040,
            "time": 231.9460479999999,
            "velocity": 1
          },
          {
            "duration": 1.5876120000000071,
            "durationTicks": 1440,
            "midi": 84,
            "name": "C6",
            "ticks": 191040,
            "time": 231.9460479999999,
            "velocity": 1
          },
          {
            "duration": 0.2590894583333352,
            "durationTicks": 235,
            "midi": 53,
            "name": "F3",
            "ticks": 191280,
            "time": 232.21064999999993,
            "velocity": 1
          },
          {
            "duration": 0.2590894583333352,
            "durationTicks": 235,
            "midi": 56,
            "name": "G#3",
            "ticks": 191280,
            "time": 232.21064999999993,
            "velocity": 1
          },
          {
            "duration": 0.25026939166664874,
            "durationTicks": 227,
            "midi": 61,
            "name": "C#4",
            "ticks": 191280,
            "time": 232.21064999999993,
            "velocity": 1
          },
          {
            "duration": 0.2590894583333352,
            "durationTicks": 235,
            "midi": 53,
            "name": "F3",
            "ticks": 191520,
            "time": 232.47525199999993,
            "velocity": 1
          },
          {
            "duration": 0.2590894583333352,
            "durationTicks": 235,
            "midi": 56,
            "name": "G#3",
            "ticks": 191520,
            "time": 232.47525199999993,
            "velocity": 1
          },
          {
            "duration": 0.2679095249999932,
            "durationTicks": 243,
            "midi": 61,
            "name": "C#4",
            "ticks": 191520,
            "time": 232.47525199999993,
            "velocity": 1
          },
          {
            "duration": 0.5314090166666574,
            "durationTicks": 482,
            "midi": 53,
            "name": "F3",
            "ticks": 191760,
            "time": 232.73985399999992,
            "velocity": 1
          },
          {
            "duration": 0.5314090166666574,
            "durationTicks": 482,
            "midi": 56,
            "name": "G#3",
            "ticks": 191760,
            "time": 232.73985399999992,
            "velocity": 1
          },
          {
            "duration": 0.8004210499999829,
            "durationTicks": 726,
            "midi": 61,
            "name": "C#4",
            "ticks": 191760,
            "time": 232.73985399999992,
            "velocity": 1
          },
          {
            "duration": 0.5203839333333349,
            "durationTicks": 472,
            "midi": 46,
            "name": "A#2",
            "ticks": 192000,
            "time": 233.00445599999992,
            "velocity": 1
          },
          {
            "duration": 0.26901203333332546,
            "durationTicks": 244,
            "midi": 53,
            "name": "F3",
            "ticks": 192240,
            "time": 233.26905799999992,
            "velocity": 1
          },
          {
            "duration": 0.26901203333332546,
            "durationTicks": 244,
            "midi": 56,
            "name": "G#3",
            "ticks": 192240,
            "time": 233.26905799999992,
            "velocity": 1
          },
          {
            "duration": 0.2679095249999932,
            "durationTicks": 243,
            "midi": 46,
            "name": "A#2",
            "ticks": 192480,
            "time": 233.5336599999999,
            "velocity": 1
          },
          {
            "duration": 0.25026939166667717,
            "durationTicks": 227,
            "midi": 53,
            "name": "F3",
            "ticks": 192480,
            "time": 233.5336599999999,
            "velocity": 1
          },
          {
            "duration": 0.25026939166667717,
            "durationTicks": 227,
            "midi": 56,
            "name": "G#3",
            "ticks": 192480,
            "time": 233.5336599999999,
            "velocity": 1
          },
          {
            "duration": 0.061740466666662996,
            "durationTicks": 56,
            "midi": 61,
            "name": "C#4",
            "ticks": 192480,
            "time": 233.5336599999999,
            "velocity": 1
          },
          {
            "duration": 0.061740466666662996,
            "durationTicks": 56,
            "midi": 65,
            "name": "F4",
            "ticks": 192480,
            "time": 233.5336599999999,
            "velocity": 1
          },
          {
            "duration": 0.061740466666662996,
            "durationTicks": 56,
            "midi": 85,
            "name": "C#6",
            "ticks": 192480,
            "time": 233.5336599999999,
            "velocity": 1
          },
          {
            "duration": 0.49061620833333563,
            "durationTicks": 445,
            "midi": 89,
            "name": "F6",
            "ticks": 192480,
            "time": 233.5336599999999,
            "velocity": 1
          },
          {
            "duration": 0.25026939166667717,
            "durationTicks": 227,
            "midi": 46,
            "name": "A#2",
            "ticks": 192720,
            "time": 233.7982619999999,
            "velocity": 1
          },
          {
            "duration": 0.25026939166667717,
            "durationTicks": 227,
            "midi": 53,
            "name": "F3",
            "ticks": 192720,
            "time": 233.7982619999999,
            "velocity": 1
          },
          {
            "duration": 0.25026939166667717,
            "durationTicks": 227,
            "midi": 56,
            "name": "G#3",
            "ticks": 192720,
            "time": 233.7982619999999,
            "velocity": 1
          },
          {
            "duration": 0.23814179999999396,
            "durationTicks": 216,
            "midi": 44,
            "name": "G#2",
            "ticks": 192960,
            "time": 234.06286399999993,
            "velocity": 1
          },
          {
            "duration": 0.23814179999999396,
            "durationTicks": 216,
            "midi": 53,
            "name": "F3",
            "ticks": 192960,
            "time": 234.06286399999993,
            "velocity": 1
          },
          {
            "duration": 0.23814179999999396,
            "durationTicks": 216,
            "midi": 56,
            "name": "G#3",
            "ticks": 192960,
            "time": 234.06286399999993,
            "velocity": 1
          },
          {
            "duration": 0.23814179999999396,
            "durationTicks": 216,
            "midi": 77,
            "name": "F5",
            "ticks": 192960,
            "time": 234.06286399999993,
            "velocity": 1
          },
          {
            "duration": 0.23814179999999396,
            "durationTicks": 216,
            "midi": 89,
            "name": "F6",
            "ticks": 192960,
            "time": 234.06286399999993,
            "velocity": 1
          },
          {
            "duration": 0.25026939166664874,
            "durationTicks": 227,
            "midi": 44,
            "name": "G#2",
            "ticks": 193200,
            "time": 234.32746599999993,
            "velocity": 1
          },
          {
            "duration": 0.25026939166664874,
            "durationTicks": 227,
            "midi": 53,
            "name": "F3",
            "ticks": 193200,
            "time": 234.32746599999993,
            "velocity": 1
          },
          {
            "duration": 0.25026939166664874,
            "durationTicks": 227,
            "midi": 56,
            "name": "G#3",
            "ticks": 193200,
            "time": 234.32746599999993,
            "velocity": 1
          },
          {
            "duration": 0.23152675000000045,
            "durationTicks": 210,
            "midi": 80,
            "name": "G#5",
            "ticks": 193200,
            "time": 234.32746599999993,
            "velocity": 1
          },
          {
            "duration": 0.23152675000000045,
            "durationTicks": 210,
            "midi": 92,
            "name": "G#6",
            "ticks": 193200,
            "time": 234.32746599999993,
            "velocity": 1
          },
          {
            "duration": 0.218296649999985,
            "durationTicks": 198,
            "midi": 44,
            "name": "G#2",
            "ticks": 193440,
            "time": 234.59206799999993,
            "velocity": 1
          },
          {
            "duration": 0.218296649999985,
            "durationTicks": 198,
            "midi": 53,
            "name": "F3",
            "ticks": 193440,
            "time": 234.59206799999993,
            "velocity": 1
          },
          {
            "duration": 0.218296649999985,
            "durationTicks": 198,
            "midi": 56,
            "name": "G#3",
            "ticks": 193440,
            "time": 234.59206799999993,
            "velocity": 1
          },
          {
            "duration": 0.46856604166666216,
            "durationTicks": 425,
            "midi": 77,
            "name": "F5",
            "ticks": 193440,
            "time": 234.59206799999993,
            "velocity": 1
          },
          {
            "duration": 0.46856604166666216,
            "durationTicks": 425,
            "midi": 89,
            "name": "F6",
            "ticks": 193440,
            "time": 234.59206799999993,
            "velocity": 1
          },
          {
            "duration": 0.23814179999999396,
            "durationTicks": 216,
            "midi": 44,
            "name": "G#2",
            "ticks": 193680,
            "time": 234.85666999999992,
            "velocity": 1
          },
          {
            "duration": 0.23814179999999396,
            "durationTicks": 216,
            "midi": 53,
            "name": "F3",
            "ticks": 193680,
            "time": 234.85666999999992,
            "velocity": 1
          },
          {
            "duration": 0.23814179999999396,
            "durationTicks": 216,
            "midi": 56,
            "name": "G#3",
            "ticks": 193680,
            "time": 234.85666999999992,
            "velocity": 1
          },
          {
            "duration": 0.24144932499999072,
            "durationTicks": 219,
            "midi": 42,
            "name": "F#2",
            "ticks": 193920,
            "time": 235.12127199999992,
            "velocity": 1
          },
          {
            "duration": 0.24144932499999072,
            "durationTicks": 219,
            "midi": 49,
            "name": "C#3",
            "ticks": 193920,
            "time": 235.12127199999992,
            "velocity": 1
          },
          {
            "duration": 0.24144932499999072,
            "durationTicks": 219,
            "midi": 82,
            "name": "A#5",
            "ticks": 193920,
            "time": 235.12127199999992,
            "velocity": 1
          },
          {
            "duration": 0.24144932499999072,
            "durationTicks": 219,
            "midi": 87,
            "name": "D#6",
            "ticks": 193920,
            "time": 235.12127199999992,
            "velocity": 1
          },
          {
            "duration": 0.24144932499999072,
            "durationTicks": 219,
            "midi": 89,
            "name": "F6",
            "ticks": 193920,
            "time": 235.12127199999992,
            "velocity": 1
          },
          {
            "duration": 0.25026939166667717,
            "durationTicks": 227,
            "midi": 42,
            "name": "F#2",
            "ticks": 194160,
            "time": 235.38587399999992,
            "velocity": 1
          },
          {
            "duration": 0.25026939166667717,
            "durationTicks": 227,
            "midi": 49,
            "name": "C#3",
            "ticks": 194160,
            "time": 235.38587399999992,
            "velocity": 1
          },
          {
            "duration": 0.24144932499999072,
            "durationTicks": 219,
            "midi": 84,
            "name": "C6",
            "ticks": 194160,
            "time": 235.38587399999992,
            "velocity": 1
          },
          {
            "duration": 0.25026939166667717,
            "durationTicks": 227,
            "midi": 89,
            "name": "F6",
            "ticks": 194160,
            "time": 235.38587399999992,
            "velocity": 1
          },
          {
            "duration": 0.22932173333333594,
            "durationTicks": 208,
            "midi": 42,
            "name": "F#2",
            "ticks": 194400,
            "time": 235.6504759999999,
            "velocity": 1
          },
          {
            "duration": 0.22932173333333594,
            "durationTicks": 208,
            "midi": 49,
            "name": "C#3",
            "ticks": 194400,
            "time": 235.6504759999999,
            "velocity": 1
          },
          {
            "duration": 0.22932173333333594,
            "durationTicks": 208,
            "midi": 58,
            "name": "A#3",
            "ticks": 194400,
            "time": 235.6504759999999,
            "velocity": 1
          },
          {
            "duration": 0.22932173333333594,
            "durationTicks": 208,
            "midi": 82,
            "name": "A#5",
            "ticks": 194400,
            "time": 235.6504759999999,
            "velocity": 1
          },
          {
            "duration": 0.22932173333333594,
            "durationTicks": 208,
            "midi": 87,
            "name": "D#6",
            "ticks": 194400,
            "time": 235.6504759999999,
            "velocity": 1
          },
          {
            "duration": 0.22932173333333594,
            "durationTicks": 208,
            "midi": 89,
            "name": "F6",
            "ticks": 194400,
            "time": 235.6504759999999,
            "velocity": 1
          },
          {
            "duration": 0.22050166666667792,
            "durationTicks": 200,
            "midi": 42,
            "name": "F#2",
            "ticks": 194640,
            "time": 235.9150779999999,
            "velocity": 1
          },
          {
            "duration": 0.22050166666667792,
            "durationTicks": 200,
            "midi": 49,
            "name": "C#3",
            "ticks": 194640,
            "time": 235.9150779999999,
            "velocity": 1
          },
          {
            "duration": 0.22050166666667792,
            "durationTicks": 200,
            "midi": 58,
            "name": "A#3",
            "ticks": 194640,
            "time": 235.9150779999999,
            "velocity": 1
          },
          {
            "duration": 0.22050166666667792,
            "durationTicks": 200,
            "midi": 82,
            "name": "A#5",
            "ticks": 194640,
            "time": 235.9150779999999,
            "velocity": 1
          },
          {
            "duration": 0.22050166666667792,
            "durationTicks": 200,
            "midi": 87,
            "name": "D#6",
            "ticks": 194640,
            "time": 235.9150779999999,
            "velocity": 1
          },
          {
            "duration": 0.22050166666667792,
            "durationTicks": 200,
            "midi": 89,
            "name": "F6",
            "ticks": 194640,
            "time": 235.9150779999999,
            "velocity": 1
          },
          {
            "duration": 0.2612944750000281,
            "durationTicks": 237,
            "midi": 42,
            "name": "F#2",
            "ticks": 194880,
            "time": 236.1796799999999,
            "velocity": 1
          },
          {
            "duration": 0.2612944750000281,
            "durationTicks": 237,
            "midi": 49,
            "name": "C#3",
            "ticks": 194880,
            "time": 236.1796799999999,
            "velocity": 1
          },
          {
            "duration": 0.2612944750000281,
            "durationTicks": 237,
            "midi": 58,
            "name": "A#3",
            "ticks": 194880,
            "time": 236.1796799999999,
            "velocity": 1
          },
          {
            "duration": 0.2612944750000281,
            "durationTicks": 237,
            "midi": 82,
            "name": "A#5",
            "ticks": 194880,
            "time": 236.1796799999999,
            "velocity": 1
          },
          {
            "duration": 0.2612944750000281,
            "durationTicks": 237,
            "midi": 87,
            "name": "D#6",
            "ticks": 194880,
            "time": 236.1796799999999,
            "velocity": 1
          },
          {
            "duration": 0.2612944750000281,
            "durationTicks": 237,
            "midi": 89,
            "name": "F6",
            "ticks": 194880,
            "time": 236.1796799999999,
            "velocity": 1
          },
          {
            "duration": 0.24144932499999072,
            "durationTicks": 219,
            "midi": 42,
            "name": "F#2",
            "ticks": 195120,
            "time": 236.44428199999993,
            "velocity": 1
          },
          {
            "duration": 0.24144932499999072,
            "durationTicks": 219,
            "midi": 49,
            "name": "C#3",
            "ticks": 195120,
            "time": 236.44428199999993,
            "velocity": 1
          },
          {
            "duration": 0.24144932499999072,
            "durationTicks": 219,
            "midi": 58,
            "name": "A#3",
            "ticks": 195120,
            "time": 236.44428199999993,
            "velocity": 1
          },
          {
            "duration": 0.24144932499999072,
            "durationTicks": 219,
            "midi": 82,
            "name": "A#5",
            "ticks": 195120,
            "time": 236.44428199999993,
            "velocity": 1
          },
          {
            "duration": 0.24144932499999072,
            "durationTicks": 219,
            "midi": 87,
            "name": "D#6",
            "ticks": 195120,
            "time": 236.44428199999993,
            "velocity": 1
          },
          {
            "duration": 0.24144932499999072,
            "durationTicks": 219,
            "midi": 89,
            "name": "F6",
            "ticks": 195120,
            "time": 236.44428199999993,
            "velocity": 1
          },
          {
            "duration": 0.22932173333333594,
            "durationTicks": 208,
            "midi": 42,
            "name": "F#2",
            "ticks": 195360,
            "time": 236.70888399999993,
            "velocity": 1
          },
          {
            "duration": 0.22932173333333594,
            "durationTicks": 208,
            "midi": 49,
            "name": "C#3",
            "ticks": 195360,
            "time": 236.70888399999993,
            "velocity": 1
          },
          {
            "duration": 0.22932173333333594,
            "durationTicks": 208,
            "midi": 58,
            "name": "A#3",
            "ticks": 195360,
            "time": 236.70888399999993,
            "velocity": 1
          },
          {
            "duration": 0.22932173333333594,
            "durationTicks": 208,
            "midi": 82,
            "name": "A#5",
            "ticks": 195360,
            "time": 236.70888399999993,
            "velocity": 1
          },
          {
            "duration": 0.22932173333333594,
            "durationTicks": 208,
            "midi": 87,
            "name": "D#6",
            "ticks": 195360,
            "time": 236.70888399999993,
            "velocity": 1
          },
          {
            "duration": 0.22932173333333594,
            "durationTicks": 208,
            "midi": 89,
            "name": "F6",
            "ticks": 195360,
            "time": 236.70888399999993,
            "velocity": 1
          },
          {
            "duration": 0.20837407499999472,
            "durationTicks": 189,
            "midi": 42,
            "name": "F#2",
            "ticks": 195600,
            "time": 236.97348599999992,
            "velocity": 1
          },
          {
            "duration": 0.20837407499999472,
            "durationTicks": 189,
            "midi": 49,
            "name": "C#3",
            "ticks": 195600,
            "time": 236.97348599999992,
            "velocity": 1
          },
          {
            "duration": 0.20837407499999472,
            "durationTicks": 189,
            "midi": 58,
            "name": "A#3",
            "ticks": 195600,
            "time": 236.97348599999992,
            "velocity": 1
          },
          {
            "duration": 0.20837407499999472,
            "durationTicks": 189,
            "midi": 82,
            "name": "A#5",
            "ticks": 195600,
            "time": 236.97348599999992,
            "velocity": 1
          },
          {
            "duration": 0.20837407499999472,
            "durationTicks": 189,
            "midi": 87,
            "name": "D#6",
            "ticks": 195600,
            "time": 236.97348599999992,
            "velocity": 1
          },
          {
            "duration": 0.20837407499999472,
            "durationTicks": 189,
            "midi": 89,
            "name": "F6",
            "ticks": 195600,
            "time": 236.97348599999992,
            "velocity": 1
          },
          {
            "duration": 0.3594177166666839,
            "durationTicks": 326,
            "midi": 44,
            "name": "G#2",
            "ticks": 195720,
            "time": 237.1057869999999,
            "velocity": 1
          },
          {
            "duration": 0.3594177166666839,
            "durationTicks": 326,
            "midi": 51,
            "name": "D#3",
            "ticks": 195720,
            "time": 237.1057869999999,
            "velocity": 1
          },
          {
            "duration": 0.3594177166666839,
            "durationTicks": 326,
            "midi": 56,
            "name": "G#3",
            "ticks": 195720,
            "time": 237.1057869999999,
            "velocity": 1
          },
          {
            "duration": 0.3594177166666839,
            "durationTicks": 326,
            "midi": 82,
            "name": "A#5",
            "ticks": 195720,
            "time": 237.1057869999999,
            "velocity": 1
          },
          {
            "duration": 0.3594177166666839,
            "durationTicks": 326,
            "midi": 87,
            "name": "D#6",
            "ticks": 195720,
            "time": 237.1057869999999,
            "velocity": 1
          },
          {
            "duration": 0.3594177166666839,
            "durationTicks": 326,
            "midi": 89,
            "name": "F6",
            "ticks": 195720,
            "time": 237.1057869999999,
            "velocity": 1
          },
          {
            "duration": 0.3087023333333434,
            "durationTicks": 280,
            "midi": 44,
            "name": "G#2",
            "ticks": 196080,
            "time": 237.50268999999992,
            "velocity": 1
          },
          {
            "duration": 0.3087023333333434,
            "durationTicks": 280,
            "midi": 51,
            "name": "D#3",
            "ticks": 196080,
            "time": 237.50268999999992,
            "velocity": 1
          },
          {
            "duration": 0.3087023333333434,
            "durationTicks": 280,
            "midi": 54,
            "name": "F#3",
            "ticks": 196080,
            "time": 237.50268999999992,
            "velocity": 1
          },
          {
            "duration": 0.3087023333333434,
            "durationTicks": 280,
            "midi": 82,
            "name": "A#5",
            "ticks": 196080,
            "time": 237.50268999999992,
            "velocity": 1
          },
          {
            "duration": 0.3087023333333434,
            "durationTicks": 280,
            "midi": 87,
            "name": "D#6",
            "ticks": 196080,
            "time": 237.50268999999992,
            "velocity": 1
          },
          {
            "duration": 0.22050166666667792,
            "durationTicks": 200,
            "midi": 90,
            "name": "F#6",
            "ticks": 196080,
            "time": 237.50268999999992,
            "velocity": 1
          },
          {
            "duration": 0.5611767416666851,
            "durationTicks": 509,
            "midi": 44,
            "name": "G#2",
            "ticks": 196320,
            "time": 237.7672919999999,
            "velocity": 1
          },
          {
            "duration": 0.5611767416666851,
            "durationTicks": 509,
            "midi": 51,
            "name": "D#3",
            "ticks": 196320,
            "time": 237.7672919999999,
            "velocity": 1
          },
          {
            "duration": 0.2612944749999997,
            "durationTicks": 237,
            "midi": 54,
            "name": "F#3",
            "ticks": 196320,
            "time": 237.7672919999999,
            "velocity": 1
          },
          {
            "duration": 0.5203839333333349,
            "durationTicks": 472,
            "midi": 82,
            "name": "A#5",
            "ticks": 196320,
            "time": 237.7672919999999,
            "velocity": 1
          },
          {
            "duration": 0.5203839333333349,
            "durationTicks": 472,
            "midi": 87,
            "name": "D#6",
            "ticks": 196320,
            "time": 237.7672919999999,
            "velocity": 1
          },
          {
            "duration": 0.5203839333333349,
            "durationTicks": 472,
            "midi": 94,
            "name": "A#6",
            "ticks": 196320,
            "time": 237.7672919999999,
            "velocity": 1
          },
          {
            "duration": 0.30098477500001763,
            "durationTicks": 273,
            "midi": 54,
            "name": "F#3",
            "ticks": 196560,
            "time": 238.0318939999999,
            "velocity": 1
          },
          {
            "duration": 0.5292040000000213,
            "durationTicks": 480,
            "midi": 84,
            "name": "C6",
            "ticks": 196560,
            "time": 238.0318939999999,
            "velocity": 1
          },
          {
            "duration": 0.5292040000000213,
            "durationTicks": 480,
            "midi": 89,
            "name": "F6",
            "ticks": 196560,
            "time": 238.0318939999999,
            "velocity": 1
          },
          {
            "duration": 0.5292040000000213,
            "durationTicks": 480,
            "midi": 92,
            "name": "G#6",
            "ticks": 196560,
            "time": 238.0318939999999,
            "velocity": 1
          },
          {
            "duration": 0.4884111916666427,
            "durationTicks": 443,
            "midi": 44,
            "name": "G#2",
            "ticks": 196800,
            "time": 238.29649599999993,
            "velocity": 1
          },
          {
            "duration": 0.4884111916666427,
            "durationTicks": 443,
            "midi": 51,
            "name": "D#3",
            "ticks": 196800,
            "time": 238.29649599999993,
            "velocity": 1
          },
          {
            "duration": 0.4884111916666427,
            "durationTicks": 443,
            "midi": 54,
            "name": "F#3",
            "ticks": 196800,
            "time": 238.29649599999993,
            "velocity": 1
          },
          {
            "duration": 0.4884111916666427,
            "durationTicks": 443,
            "midi": 60,
            "name": "C4",
            "ticks": 196800,
            "time": 238.29649599999993,
            "velocity": 1
          },
          {
            "duration": 0.27121704999998997,
            "durationTicks": 246,
            "midi": 82,
            "name": "A#5",
            "ticks": 196800,
            "time": 238.29649599999993,
            "velocity": 1
          },
          {
            "duration": 0.27121704999998997,
            "durationTicks": 246,
            "midi": 87,
            "name": "D#6",
            "ticks": 196800,
            "time": 238.29649599999993,
            "velocity": 1
          },
          {
            "duration": 0.27121704999998997,
            "durationTicks": 246,
            "midi": 94,
            "name": "A#6",
            "ticks": 196800,
            "time": 238.29649599999993,
            "velocity": 1
          },
          {
            "duration": 0.2590894583333352,
            "durationTicks": 235,
            "midi": 82,
            "name": "A#5",
            "ticks": 197040,
            "time": 238.56109799999993,
            "velocity": 1
          },
          {
            "duration": 0.2590894583333352,
            "durationTicks": 235,
            "midi": 84,
            "name": "C6",
            "ticks": 197040,
            "time": 238.56109799999993,
            "velocity": 1
          },
          {
            "duration": 0.2590894583333352,
            "durationTicks": 235,
            "midi": 87,
            "name": "D#6",
            "ticks": 197040,
            "time": 238.56109799999993,
            "velocity": 1
          },
          {
            "duration": 0.2590894583333352,
            "durationTicks": 235,
            "midi": 89,
            "name": "F6",
            "ticks": 197040,
            "time": 238.56109799999993,
            "velocity": 1
          },
          {
            "duration": 0.2590894583333352,
            "durationTicks": 235,
            "midi": 92,
            "name": "G#6",
            "ticks": 197040,
            "time": 238.56109799999993,
            "velocity": 1
          },
          {
            "duration": 0.2612944749999997,
            "durationTicks": 237,
            "midi": 44,
            "name": "G#2",
            "ticks": 197280,
            "time": 238.82569999999993,
            "velocity": 1
          },
          {
            "duration": 0.2612944749999997,
            "durationTicks": 237,
            "midi": 51,
            "name": "D#3",
            "ticks": 197280,
            "time": 238.82569999999993,
            "velocity": 1
          },
          {
            "duration": 0.2612944749999997,
            "durationTicks": 237,
            "midi": 54,
            "name": "F#3",
            "ticks": 197280,
            "time": 238.82569999999993,
            "velocity": 1
          },
          {
            "duration": 0.2612944749999997,
            "durationTicks": 237,
            "midi": 56,
            "name": "G#3",
            "ticks": 197280,
            "time": 238.82569999999993,
            "velocity": 1
          },
          {
            "duration": 0.2612944749999997,
            "durationTicks": 237,
            "midi": 82,
            "name": "A#5",
            "ticks": 197280,
            "time": 238.82569999999993,
            "velocity": 1
          },
          {
            "duration": 0.2612944749999997,
            "durationTicks": 237,
            "midi": 87,
            "name": "D#6",
            "ticks": 197280,
            "time": 238.82569999999993,
            "velocity": 1
          },
          {
            "duration": 0.2612944749999997,
            "durationTicks": 237,
            "midi": 92,
            "name": "G#6",
            "ticks": 197280,
            "time": 238.82569999999993,
            "velocity": 1
          },
          {
            "duration": 0.23814179999999396,
            "durationTicks": 216,
            "midi": 44,
            "name": "G#2",
            "ticks": 197520,
            "time": 239.09030199999992,
            "velocity": 1
          },
          {
            "duration": 0.23814179999999396,
            "durationTicks": 216,
            "midi": 51,
            "name": "D#3",
            "ticks": 197520,
            "time": 239.09030199999992,
            "velocity": 1
          },
          {
            "duration": 0.23814179999999396,
            "durationTicks": 216,
            "midi": 54,
            "name": "F#3",
            "ticks": 197520,
            "time": 239.09030199999992,
            "velocity": 1
          },
          {
            "duration": 0.23814179999999396,
            "durationTicks": 216,
            "midi": 82,
            "name": "A#5",
            "ticks": 197520,
            "time": 239.09030199999992,
            "velocity": 1
          },
          {
            "duration": 0.23814179999999396,
            "durationTicks": 216,
            "midi": 84,
            "name": "C6",
            "ticks": 197520,
            "time": 239.09030199999992,
            "velocity": 1
          },
          {
            "duration": 0.23814179999999396,
            "durationTicks": 216,
            "midi": 89,
            "name": "F6",
            "ticks": 197520,
            "time": 239.09030199999992,
            "velocity": 1
          },
          {
            "duration": 0.2711488875000043,
            "durationTicks": 246,
            "midi": 46,
            "name": "A#2",
            "ticks": 197760,
            "time": 239.35490399999992,
            "velocity": 1
          },
          {
            "duration": 0.37916755000000535,
            "durationTicks": 344,
            "midi": 82,
            "name": "A#5",
            "ticks": 197760,
            "time": 239.35490399999992,
            "velocity": 1
          },
          {
            "duration": 0.5290709999999876,
            "durationTicks": 480,
            "midi": 87,
            "name": "D#6",
            "ticks": 197760,
            "time": 239.35490399999992,
            "velocity": 1
          },
          {
            "duration": 0.37916755000000535,
            "durationTicks": 344,
            "midi": 94,
            "name": "A#6",
            "ticks": 197760,
            "time": 239.35490399999992,
            "velocity": 1
          },
          {
            "duration": 0.2502064937499995,
            "durationTicks": 227,
            "midi": 46,
            "name": "A#2",
            "ticks": 198000,
            "time": 239.6194394999999,
            "velocity": 1
          },
          {
            "duration": 0.2502064937499995,
            "durationTicks": 227,
            "midi": 56,
            "name": "G#3",
            "ticks": 198000,
            "time": 239.6194394999999,
            "velocity": 1
          },
          {
            "duration": 0.1003030437500172,
            "durationTicks": 91,
            "midi": 84,
            "name": "C6",
            "ticks": 198000,
            "time": 239.6194394999999,
            "velocity": 1
          },
          {
            "duration": 0.1003030437500172,
            "durationTicks": 91,
            "midi": 89,
            "name": "F6",
            "ticks": 198000,
            "time": 239.6194394999999,
            "velocity": 1
          },
          {
            "duration": 0.26233103750001874,
            "durationTicks": 238,
            "midi": 46,
            "name": "A#2",
            "ticks": 198240,
            "time": 239.8839749999999,
            "velocity": 1
          },
          {
            "duration": 0.26233103750001874,
            "durationTicks": 238,
            "midi": 53,
            "name": "F3",
            "ticks": 198240,
            "time": 239.8839749999999,
            "velocity": 1
          },
          {
            "duration": 0.26233103750001874,
            "durationTicks": 238,
            "midi": 56,
            "name": "G#3",
            "ticks": 198240,
            "time": 239.8839749999999,
            "velocity": 1
          },
          {
            "duration": 0.26233103750001874,
            "durationTicks": 238,
            "midi": 82,
            "name": "A#5",
            "ticks": 198240,
            "time": 239.8839749999999,
            "velocity": 1
          },
          {
            "duration": 0.26233103750001874,
            "durationTicks": 238,
            "midi": 94,
            "name": "A#6",
            "ticks": 198240,
            "time": 239.8839749999999,
            "velocity": 1
          },
          {
            "duration": 0.2502064937499995,
            "durationTicks": 227,
            "midi": 46,
            "name": "A#2",
            "ticks": 198480,
            "time": 240.14851049999993,
            "velocity": 1
          },
          {
            "duration": 0.2502064937499995,
            "durationTicks": 227,
            "midi": 53,
            "name": "F3",
            "ticks": 198480,
            "time": 240.14851049999993,
            "velocity": 1
          },
          {
            "duration": 0.2502064937499995,
            "durationTicks": 227,
            "midi": 56,
            "name": "G#3",
            "ticks": 198480,
            "time": 240.14851049999993,
            "velocity": 1
          },
          {
            "duration": 0.2502064937499995,
            "durationTicks": 227,
            "midi": 80,
            "name": "G#5",
            "ticks": 198480,
            "time": 240.14851049999993,
            "velocity": 1
          },
          {
            "duration": 0.2502064937499995,
            "durationTicks": 227,
            "midi": 92,
            "name": "G#6",
            "ticks": 198480,
            "time": 240.14851049999993,
            "velocity": 1
          },
          {
            "duration": 0.25902434374998506,
            "durationTicks": 235,
            "midi": 46,
            "name": "A#2",
            "ticks": 198720,
            "time": 240.41304599999992,
            "velocity": 1
          },
          {
            "duration": 0.25902434374998506,
            "durationTicks": 235,
            "midi": 53,
            "name": "F3",
            "ticks": 198720,
            "time": 240.41304599999992,
            "velocity": 1
          },
          {
            "duration": 0.25902434374998506,
            "durationTicks": 235,
            "midi": 56,
            "name": "G#3",
            "ticks": 198720,
            "time": 240.41304599999992,
            "velocity": 1
          },
          {
            "duration": 0.7792774937499871,
            "durationTicks": 707,
            "midi": 77,
            "name": "F5",
            "ticks": 198720,
            "time": 240.41304599999992,
            "velocity": 1
          },
          {
            "duration": 0.7792774937499871,
            "durationTicks": 707,
            "midi": 82,
            "name": "A#5",
            "ticks": 198720,
            "time": 240.41304599999992,
            "velocity": 1
          },
          {
            "duration": 0.7792774937499871,
            "durationTicks": 707,
            "midi": 89,
            "name": "F6",
            "ticks": 198720,
            "time": 240.41304599999992,
            "velocity": 1
          },
          {
            "duration": 0.2413886437500139,
            "durationTicks": 219,
            "midi": 46,
            "name": "A#2",
            "ticks": 198960,
            "time": 240.67758149999992,
            "velocity": 1
          },
          {
            "duration": 0.2413886437500139,
            "durationTicks": 219,
            "midi": 53,
            "name": "F3",
            "ticks": 198960,
            "time": 240.67758149999992,
            "velocity": 1
          },
          {
            "duration": 0.2413886437500139,
            "durationTicks": 219,
            "midi": 56,
            "name": "G#3",
            "ticks": 198960,
            "time": 240.67758149999992,
            "velocity": 1
          },
          {
            "duration": 0.26233103750001874,
            "durationTicks": 238,
            "midi": 46,
            "name": "A#2",
            "ticks": 199200,
            "time": 240.9421169999999,
            "velocity": 1
          },
          {
            "duration": 0.26233103750001874,
            "durationTicks": 238,
            "midi": 53,
            "name": "F3",
            "ticks": 199200,
            "time": 240.9421169999999,
            "velocity": 1
          },
          {
            "duration": 0.26233103750001874,
            "durationTicks": 238,
            "midi": 56,
            "name": "G#3",
            "ticks": 199200,
            "time": 240.9421169999999,
            "velocity": 1
          },
          {
            "duration": 0.22926409999999464,
            "durationTicks": 208,
            "midi": 46,
            "name": "A#2",
            "ticks": 199440,
            "time": 241.20665249999993,
            "velocity": 1
          },
          {
            "duration": 0.22926409999999464,
            "durationTicks": 208,
            "midi": 53,
            "name": "F3",
            "ticks": 199440,
            "time": 241.20665249999993,
            "velocity": 1
          },
          {
            "duration": 0.22926409999999464,
            "durationTicks": 208,
            "midi": 56,
            "name": "G#3",
            "ticks": 199440,
            "time": 241.20665249999993,
            "velocity": 1
          },
          {
            "duration": 0.22926409999999464,
            "durationTicks": 208,
            "midi": 77,
            "name": "F5",
            "ticks": 199440,
            "time": 241.20665249999993,
            "velocity": 1
          },
          {
            "duration": 0.22926409999999464,
            "durationTicks": 208,
            "midi": 89,
            "name": "F6",
            "ticks": 199440,
            "time": 241.20665249999993,
            "velocity": 1
          },
          {
            "duration": 0.2887845875000039,
            "durationTicks": 262,
            "midi": 46,
            "name": "A#2",
            "ticks": 199680,
            "time": 241.47118799999993,
            "velocity": 1
          },
          {
            "duration": 0.2887845875000039,
            "durationTicks": 262,
            "midi": 53,
            "name": "F3",
            "ticks": 199680,
            "time": 241.47118799999993,
            "velocity": 1
          },
          {
            "duration": 0.2887845875000039,
            "durationTicks": 262,
            "midi": 56,
            "name": "G#3",
            "ticks": 199680,
            "time": 241.47118799999993,
            "velocity": 1
          },
          {
            "duration": 0.2887845875000039,
            "durationTicks": 262,
            "midi": 75,
            "name": "D#5",
            "ticks": 199680,
            "time": 241.47118799999993,
            "velocity": 1
          },
          {
            "duration": 0.2887845875000039,
            "durationTicks": 262,
            "midi": 87,
            "name": "D#6",
            "ticks": 199680,
            "time": 241.47118799999993,
            "velocity": 1
          },
          {
            "duration": 0.2502064937499995,
            "durationTicks": 227,
            "midi": 46,
            "name": "A#2",
            "ticks": 199920,
            "time": 241.73572349999992,
            "velocity": 1
          },
          {
            "duration": 0.2502064937499995,
            "durationTicks": 227,
            "midi": 53,
            "name": "F3",
            "ticks": 199920,
            "time": 241.73572349999992,
            "velocity": 1
          },
          {
            "duration": 0.2502064937499995,
            "durationTicks": 227,
            "midi": 56,
            "name": "G#3",
            "ticks": 199920,
            "time": 241.73572349999992,
            "velocity": 1
          },
          {
            "duration": 0.2502064937499995,
            "durationTicks": 227,
            "midi": 84,
            "name": "C6",
            "ticks": 199920,
            "time": 241.73572349999992,
            "velocity": 1
          },
          {
            "duration": 0.2590243437500135,
            "durationTicks": 235,
            "midi": 46,
            "name": "A#2",
            "ticks": 200160,
            "time": 242.00025899999991,
            "velocity": 1
          },
          {
            "duration": 0.2590243437500135,
            "durationTicks": 235,
            "midi": 53,
            "name": "F3",
            "ticks": 200160,
            "time": 242.00025899999991,
            "velocity": 1
          },
          {
            "duration": 0.2590243437500135,
            "durationTicks": 235,
            "midi": 56,
            "name": "G#3",
            "ticks": 200160,
            "time": 242.00025899999991,
            "velocity": 1
          },
          {
            "duration": 0.2590243437500135,
            "durationTicks": 235,
            "midi": 85,
            "name": "C#6",
            "ticks": 200160,
            "time": 242.00025899999991,
            "velocity": 1
          },
          {
            "duration": 0.24689980000002265,
            "durationTicks": 224,
            "midi": 46,
            "name": "A#2",
            "ticks": 200400,
            "time": 242.2647944999999,
            "velocity": 1
          },
          {
            "duration": 0.24689980000002265,
            "durationTicks": 224,
            "midi": 53,
            "name": "F3",
            "ticks": 200400,
            "time": 242.2647944999999,
            "velocity": 1
          },
          {
            "duration": 0.24689980000002265,
            "durationTicks": 224,
            "midi": 56,
            "name": "G#3",
            "ticks": 200400,
            "time": 242.2647944999999,
            "velocity": 1
          },
          {
            "duration": 0.24689980000002265,
            "durationTicks": 224,
            "midi": 77,
            "name": "F5",
            "ticks": 200400,
            "time": 242.2647944999999,
            "velocity": 1
          },
          {
            "duration": 0.24689979999999423,
            "durationTicks": 224,
            "midi": 44,
            "name": "G#2",
            "ticks": 200640,
            "time": 242.52932999999993,
            "velocity": 1
          },
          {
            "duration": 0.24689979999999423,
            "durationTicks": 224,
            "midi": 48,
            "name": "C3",
            "ticks": 200640,
            "time": 242.52932999999993,
            "velocity": 1
          },
          {
            "duration": 0.24689979999999423,
            "durationTicks": 224,
            "midi": 53,
            "name": "F3",
            "ticks": 200640,
            "time": 242.52932999999993,
            "velocity": 1
          },
          {
            "duration": 0.24689979999999423,
            "durationTicks": 224,
            "midi": 56,
            "name": "G#3",
            "ticks": 200640,
            "time": 242.52932999999993,
            "velocity": 1
          },
          {
            "duration": 0.24689979999999423,
            "durationTicks": 224,
            "midi": 75,
            "name": "D#5",
            "ticks": 200640,
            "time": 242.52932999999993,
            "velocity": 1
          },
          {
            "duration": 0.22705963749999114,
            "durationTicks": 206,
            "midi": 44,
            "name": "G#2",
            "ticks": 200880,
            "time": 242.79386549999992,
            "velocity": 1
          },
          {
            "duration": 0.22705963749999114,
            "durationTicks": 206,
            "midi": 48,
            "name": "C3",
            "ticks": 200880,
            "time": 242.79386549999992,
            "velocity": 1
          },
          {
            "duration": 0.22705963749999114,
            "durationTicks": 206,
            "midi": 53,
            "name": "F3",
            "ticks": 200880,
            "time": 242.79386549999992,
            "velocity": 1
          },
          {
            "duration": 0.22705963749999114,
            "durationTicks": 206,
            "midi": 56,
            "name": "G#3",
            "ticks": 200880,
            "time": 242.79386549999992,
            "velocity": 1
          },
          {
            "duration": 0.22705963749999114,
            "durationTicks": 206,
            "midi": 72,
            "name": "C5",
            "ticks": 200880,
            "time": 242.79386549999992,
            "velocity": 1
          },
          {
            "duration": 0.2590243437500135,
            "durationTicks": 235,
            "midi": 44,
            "name": "G#2",
            "ticks": 201120,
            "time": 243.05840099999992,
            "velocity": 1
          },
          {
            "duration": 0.2590243437500135,
            "durationTicks": 235,
            "midi": 48,
            "name": "C3",
            "ticks": 201120,
            "time": 243.05840099999992,
            "velocity": 1
          },
          {
            "duration": 0.2590243437500135,
            "durationTicks": 235,
            "midi": 53,
            "name": "F3",
            "ticks": 201120,
            "time": 243.05840099999992,
            "velocity": 1
          },
          {
            "duration": 0.2590243437500135,
            "durationTicks": 235,
            "midi": 56,
            "name": "G#3",
            "ticks": 201120,
            "time": 243.05840099999992,
            "velocity": 1
          },
          {
            "duration": 0.2590243437500135,
            "durationTicks": 235,
            "midi": 73,
            "name": "C#5",
            "ticks": 201120,
            "time": 243.05840099999992,
            "velocity": 1
          },
          {
            "duration": 0.2590243437500135,
            "durationTicks": 235,
            "midi": 44,
            "name": "G#2",
            "ticks": 201360,
            "time": 243.3229364999999,
            "velocity": 1
          },
          {
            "duration": 0.2590243437500135,
            "durationTicks": 235,
            "midi": 48,
            "name": "C3",
            "ticks": 201360,
            "time": 243.3229364999999,
            "velocity": 1
          },
          {
            "duration": 0.2590243437500135,
            "durationTicks": 235,
            "midi": 53,
            "name": "F3",
            "ticks": 201360,
            "time": 243.3229364999999,
            "velocity": 1
          },
          {
            "duration": 0.2590243437500135,
            "durationTicks": 235,
            "midi": 56,
            "name": "G#3",
            "ticks": 201360,
            "time": 243.3229364999999,
            "velocity": 1
          },
          {
            "duration": 0.2590243437500135,
            "durationTicks": 235,
            "midi": 84,
            "name": "C6",
            "ticks": 201360,
            "time": 243.3229364999999,
            "velocity": 1
          },
          {
            "duration": 0.27973688541666775,
            "durationTicks": 251,
            "midi": 42,
            "name": "F#2",
            "ticks": 201600,
            "time": 243.5874719999999,
            "velocity": 1
          },
          {
            "duration": 0.27973688541666775,
            "durationTicks": 251,
            "midi": 49,
            "name": "C#3",
            "ticks": 201600,
            "time": 243.5874719999999,
            "velocity": 1
          },
          {
            "duration": 0.3298889166666754,
            "durationTicks": 296,
            "midi": 70,
            "name": "A#4",
            "ticks": 201600,
            "time": 243.5874719999999,
            "velocity": 1
          },
          {
            "duration": 0.3298889166666754,
            "durationTicks": 296,
            "midi": 75,
            "name": "D#5",
            "ticks": 201600,
            "time": 243.5874719999999,
            "velocity": 1
          },
          {
            "duration": 1.7909847604166487,
            "durationTicks": 1607,
            "midi": 42,
            "name": "F#2",
            "ticks": 201840,
            "time": 243.85494949999992,
            "velocity": 1
          },
          {
            "duration": 0.2708209687500016,
            "durationTicks": 243,
            "midi": 49,
            "name": "C#3",
            "ticks": 201840,
            "time": 243.85494949999992,
            "velocity": 1
          },
          {
            "duration": 1.7909847604166487,
            "durationTicks": 1607,
            "midi": 72,
            "name": "C5",
            "ticks": 201840,
            "time": 243.85494949999992,
            "velocity": 1
          },
          {
            "duration": 1.7909847604166487,
            "durationTicks": 1607,
            "midi": 77,
            "name": "F5",
            "ticks": 201840,
            "time": 243.85494949999992,
            "velocity": 1
          },
          {
            "duration": 0.2619050520833355,
            "durationTicks": 235,
            "midi": 49,
            "name": "C#3",
            "ticks": 202080,
            "time": 244.1224269999999,
            "velocity": 1
          },
          {
            "duration": 1.5212782812500052,
            "durationTicks": 1365,
            "midi": 56,
            "name": "G#3",
            "ticks": 202080,
            "time": 244.1224269999999,
            "velocity": 1
          },
          {
            "duration": 0.25856158333334633,
            "durationTicks": 232,
            "midi": 70,
            "name": "A#4",
            "ticks": 202080,
            "time": 244.1224269999999,
            "velocity": 1
          },
          {
            "duration": 0.5382984687500141,
            "durationTicks": 483,
            "midi": 75,
            "name": "D#5",
            "ticks": 202080,
            "time": 244.1224269999999,
            "velocity": 1
          },
          {
            "duration": 0.27973688541666775,
            "durationTicks": 251,
            "midi": 49,
            "name": "C#3",
            "ticks": 202320,
            "time": 244.38990449999991,
            "velocity": 1
          },
          {
            "duration": 0.2908817812499933,
            "durationTicks": 261,
            "midi": 58,
            "name": "A#3",
            "ticks": 202320,
            "time": 244.38990449999991,
            "velocity": 1
          },
          {
            "duration": 1.2705181249999953,
            "durationTicks": 1140,
            "midi": 65,
            "name": "F4",
            "ticks": 202320,
            "time": 244.38990449999991,
            "velocity": 1
          },
          {
            "duration": 0.27973688541666775,
            "durationTicks": 251,
            "midi": 70,
            "name": "A#4",
            "ticks": 202320,
            "time": 244.38990449999991,
            "velocity": 1
          },
          {
            "duration": 0.2496456666666802,
            "durationTicks": 224,
            "midi": 49,
            "name": "C#3",
            "ticks": 202560,
            "time": 244.6573819999999,
            "velocity": 1
          },
          {
            "duration": 0.25967607291667605,
            "durationTicks": 233,
            "midi": 58,
            "name": "A#3",
            "ticks": 202560,
            "time": 244.6573819999999,
            "velocity": 1
          },
          {
            "duration": 0.9907812395833275,
            "durationTicks": 889,
            "midi": 70,
            "name": "A#4",
            "ticks": 202560,
            "time": 244.6573819999999,
            "velocity": 1
          },
          {
            "duration": 0.9907812395833275,
            "durationTicks": 889,
            "midi": 75,
            "name": "D#5",
            "ticks": 202560,
            "time": 244.6573819999999,
            "velocity": 1
          },
          {
            "duration": 0.2708209687500016,
            "durationTicks": 243,
            "midi": 49,
            "name": "C#3",
            "ticks": 202800,
            "time": 244.9248594999999,
            "velocity": 1
          },
          {
            "duration": 0.2708209687500016,
            "durationTicks": 243,
            "midi": 58,
            "name": "A#3",
            "ticks": 202800,
            "time": 244.9248594999999,
            "velocity": 1
          },
          {
            "duration": 0.27973688541666775,
            "durationTicks": 251,
            "midi": 49,
            "name": "C#3",
            "ticks": 203040,
            "time": 245.1923369999999,
            "velocity": 1
          },
          {
            "duration": 0.25856158333334633,
            "durationTicks": 232,
            "midi": 58,
            "name": "A#3",
            "ticks": 203040,
            "time": 245.1923369999999,
            "velocity": 1
          },
          {
            "duration": 0.1794328229166524,
            "durationTicks": 161,
            "midi": 49,
            "name": "C#3",
            "ticks": 203280,
            "time": 245.4598144999999,
            "velocity": 1
          },
          {
            "duration": 0.1916922083333361,
            "durationTicks": 172,
            "midi": 58,
            "name": "A#3",
            "ticks": 203280,
            "time": 245.4598144999999,
            "velocity": 1
          },
          {
            "duration": 0.2708209687500016,
            "durationTicks": 243,
            "midi": 44,
            "name": "G#2",
            "ticks": 203520,
            "time": 245.7272919999999,
            "velocity": 1
          },
          {
            "duration": 0.2819658645833556,
            "durationTicks": 253,
            "midi": 51,
            "name": "D#3",
            "ticks": 203520,
            "time": 245.7272919999999,
            "velocity": 1
          },
          {
            "duration": 0.2619050520833355,
            "durationTicks": 235,
            "midi": 44,
            "name": "G#2",
            "ticks": 203760,
            "time": 245.9947694999999,
            "velocity": 1
          },
          {
            "duration": 0.25967607291667605,
            "durationTicks": 233,
            "midi": 51,
            "name": "D#3",
            "ticks": 203760,
            "time": 245.9947694999999,
            "velocity": 1
          },
          {
            "duration": 0.26747750000001247,
            "durationTicks": 240,
            "midi": 54,
            "name": "F#3",
            "ticks": 203760,
            "time": 245.9947694999999,
            "velocity": 1
          },
          {
            "duration": 0.2697064791666435,
            "durationTicks": 242,
            "midi": 44,
            "name": "G#2",
            "ticks": 204000,
            "time": 246.26224699999992,
            "velocity": 1
          },
          {
            "duration": 0.2596760729166476,
            "durationTicks": 233,
            "midi": 51,
            "name": "D#3",
            "ticks": 204000,
            "time": 246.26224699999992,
            "velocity": 1
          },
          {
            "duration": 0.2518746458333112,
            "durationTicks": 226,
            "midi": 54,
            "name": "F#3",
            "ticks": 204000,
            "time": 246.26224699999992,
            "velocity": 1
          },
          {
            "duration": 0.2596760729166476,
            "durationTicks": 233,
            "midi": 60,
            "name": "C4",
            "ticks": 204000,
            "time": 246.26224699999992,
            "velocity": 1
          },
          {
            "duration": 0.2518746458333112,
            "durationTicks": 226,
            "midi": 70,
            "name": "A#4",
            "ticks": 204000,
            "time": 246.26224699999992,
            "velocity": 1
          },
          {
            "duration": 0.2518746458333112,
            "durationTicks": 226,
            "midi": 75,
            "name": "D#5",
            "ticks": 204000,
            "time": 246.26224699999992,
            "velocity": 1
          },
          {
            "duration": 0.2518746458333112,
            "durationTicks": 226,
            "midi": 82,
            "name": "A#5",
            "ticks": 204000,
            "time": 246.26224699999992,
            "velocity": 1
          },
          {
            "duration": 0.23961526041668435,
            "durationTicks": 215,
            "midi": 44,
            "name": "G#2",
            "ticks": 204240,
            "time": 246.5297244999999,
            "velocity": 1
          },
          {
            "duration": 0.23961526041668435,
            "durationTicks": 215,
            "midi": 51,
            "name": "D#3",
            "ticks": 204240,
            "time": 246.5297244999999,
            "velocity": 1
          },
          {
            "duration": 0.23961526041668435,
            "durationTicks": 215,
            "midi": 54,
            "name": "F#3",
            "ticks": 204240,
            "time": 246.5297244999999,
            "velocity": 1
          },
          {
            "duration": 0.23069934375001822,
            "durationTicks": 207,
            "midi": 60,
            "name": "C4",
            "ticks": 204240,
            "time": 246.5297244999999,
            "velocity": 1
          },
          {
            "duration": 0.23069934375001822,
            "durationTicks": 207,
            "midi": 72,
            "name": "C5",
            "ticks": 204240,
            "time": 246.5297244999999,
            "velocity": 1
          },
          {
            "duration": 0.23961526041668435,
            "durationTicks": 215,
            "midi": 77,
            "name": "F5",
            "ticks": 204240,
            "time": 246.5297244999999,
            "velocity": 1
          },
          {
            "duration": 0.23069934375001822,
            "durationTicks": 207,
            "midi": 82,
            "name": "A#5",
            "ticks": 204240,
            "time": 246.5297244999999,
            "velocity": 1
          },
          {
            "duration": 0.2518746458333112,
            "durationTicks": 226,
            "midi": 44,
            "name": "G#2",
            "ticks": 204480,
            "time": 246.7972019999999,
            "velocity": 1
          },
          {
            "duration": 0.2518746458333112,
            "durationTicks": 226,
            "midi": 51,
            "name": "D#3",
            "ticks": 204480,
            "time": 246.7972019999999,
            "velocity": 1
          },
          {
            "duration": 0.2518746458333112,
            "durationTicks": 226,
            "midi": 54,
            "name": "F#3",
            "ticks": 204480,
            "time": 246.7972019999999,
            "velocity": 1
          },
          {
            "duration": 0.24184423958331536,
            "durationTicks": 217,
            "midi": 60,
            "name": "C4",
            "ticks": 204480,
            "time": 246.7972019999999,
            "velocity": 1
          },
          {
            "duration": 0.26079056250000576,
            "durationTicks": 234,
            "midi": 70,
            "name": "A#4",
            "ticks": 204480,
            "time": 246.7972019999999,
            "velocity": 1
          },
          {
            "duration": 0.2518746458333112,
            "durationTicks": 226,
            "midi": 75,
            "name": "D#5",
            "ticks": 204480,
            "time": 246.7972019999999,
            "velocity": 1
          },
          {
            "duration": 0.2719354583333313,
            "durationTicks": 244,
            "midi": 82,
            "name": "A#5",
            "ticks": 204480,
            "time": 246.7972019999999,
            "velocity": 1
          },
          {
            "duration": 0.2507601562500099,
            "durationTicks": 225,
            "midi": 44,
            "name": "G#2",
            "ticks": 204720,
            "time": 247.0646794999999,
            "velocity": 1
          },
          {
            "duration": 0.23069934375001822,
            "durationTicks": 207,
            "midi": 51,
            "name": "D#3",
            "ticks": 204720,
            "time": 247.0646794999999,
            "velocity": 1
          },
          {
            "duration": 0.23961526041668435,
            "durationTicks": 215,
            "midi": 54,
            "name": "F#3",
            "ticks": 204720,
            "time": 247.0646794999999,
            "velocity": 1
          },
          {
            "duration": 0.23961526041668435,
            "durationTicks": 215,
            "midi": 60,
            "name": "C4",
            "ticks": 204720,
            "time": 247.0646794999999,
            "velocity": 1
          },
          {
            "duration": 0.2507601562500099,
            "durationTicks": 225,
            "midi": 77,
            "name": "F5",
            "ticks": 204720,
            "time": 247.0646794999999,
            "velocity": 1
          },
          {
            "duration": 0.23961526041668435,
            "durationTicks": 215,
            "midi": 82,
            "name": "A#5",
            "ticks": 204720,
            "time": 247.0646794999999,
            "velocity": 1
          },
          {
            "duration": 0.24184423958331536,
            "durationTicks": 217,
            "midi": 44,
            "name": "G#2",
            "ticks": 204960,
            "time": 247.3321569999999,
            "velocity": 1
          },
          {
            "duration": 0.24184423958331536,
            "durationTicks": 217,
            "midi": 51,
            "name": "D#3",
            "ticks": 204960,
            "time": 247.3321569999999,
            "velocity": 1
          },
          {
            "duration": 0.24184423958331536,
            "durationTicks": 217,
            "midi": 54,
            "name": "F#3",
            "ticks": 204960,
            "time": 247.3321569999999,
            "velocity": 1
          },
          {
            "duration": 0.24184423958331536,
            "durationTicks": 217,
            "midi": 60,
            "name": "C4",
            "ticks": 204960,
            "time": 247.3321569999999,
            "velocity": 1
          },
          {
            "duration": 0.24184423958331536,
            "durationTicks": 217,
            "midi": 75,
            "name": "D#5",
            "ticks": 204960,
            "time": 247.3321569999999,
            "velocity": 1
          },
          {
            "duration": 0.24184423958331536,
            "durationTicks": 217,
            "midi": 80,
            "name": "G#5",
            "ticks": 204960,
            "time": 247.3321569999999,
            "velocity": 1
          },
          {
            "duration": 0.2518746458333396,
            "durationTicks": 226,
            "midi": 82,
            "name": "A#5",
            "ticks": 204960,
            "time": 247.3321569999999,
            "velocity": 1
          },
          {
            "duration": 0.24184423958334378,
            "durationTicks": 217,
            "midi": 44,
            "name": "G#2",
            "ticks": 205200,
            "time": 247.5996344999999,
            "velocity": 1
          },
          {
            "duration": 0.24184423958334378,
            "durationTicks": 217,
            "midi": 51,
            "name": "D#3",
            "ticks": 205200,
            "time": 247.5996344999999,
            "velocity": 1
          },
          {
            "duration": 0.24184423958334378,
            "durationTicks": 217,
            "midi": 54,
            "name": "F#3",
            "ticks": 205200,
            "time": 247.5996344999999,
            "velocity": 1
          },
          {
            "duration": 0.24184423958334378,
            "durationTicks": 217,
            "midi": 60,
            "name": "C4",
            "ticks": 205200,
            "time": 247.5996344999999,
            "velocity": 1
          },
          {
            "duration": 0.24184423958334378,
            "durationTicks": 217,
            "midi": 72,
            "name": "C5",
            "ticks": 205200,
            "time": 247.5996344999999,
            "velocity": 1
          },
          {
            "duration": 0.24184423958334378,
            "durationTicks": 217,
            "midi": 77,
            "name": "F5",
            "ticks": 205200,
            "time": 247.5996344999999,
            "velocity": 1
          },
          {
            "duration": 0.04996340624998652,
            "durationTicks": 45,
            "midi": 34,
            "name": "A#1",
            "ticks": 205440,
            "time": 247.8671119999999,
            "velocity": 1
          },
          {
            "duration": 0.2786847770833276,
            "durationTicks": 251,
            "midi": 46,
            "name": "A#2",
            "ticks": 205440,
            "time": 247.8671119999999,
            "velocity": 1
          },
          {
            "duration": 0.2786847770833276,
            "durationTicks": 251,
            "midi": 70,
            "name": "A#4",
            "ticks": 205440,
            "time": 247.8671119999999,
            "velocity": 1
          },
          {
            "duration": 0.2786847770833276,
            "durationTicks": 251,
            "midi": 75,
            "name": "D#5",
            "ticks": 205440,
            "time": 247.8671119999999,
            "velocity": 1
          },
          {
            "duration": 0.05884578958333009,
            "durationTicks": 53,
            "midi": 84,
            "name": "C6",
            "ticks": 205440,
            "time": 247.8671119999999,
            "velocity": 1
          },
          {
            "duration": 0.09104442916668631,
            "durationTicks": 82,
            "midi": 46,
            "name": "A#2",
            "ticks": 205680,
            "time": 248.1335834999999,
            "velocity": 1
          },
          {
            "duration": 0.09104442916668631,
            "durationTicks": 82,
            "midi": 53,
            "name": "F3",
            "ticks": 205680,
            "time": 248.1335834999999,
            "velocity": 1
          },
          {
            "duration": 0.07994145000000685,
            "durationTicks": 72,
            "midi": 58,
            "name": "A#3",
            "ticks": 205680,
            "time": 248.1335834999999,
            "velocity": 1
          },
          {
            "duration": 0.2997804375000044,
            "durationTicks": 270,
            "midi": 72,
            "name": "C5",
            "ticks": 205680,
            "time": 248.1335834999999,
            "velocity": 1
          },
          {
            "duration": 0.24981703125001786,
            "durationTicks": 225,
            "midi": 75,
            "name": "D#5",
            "ticks": 205680,
            "time": 248.1335834999999,
            "velocity": 1
          },
          {
            "duration": 0.2997804375000044,
            "durationTicks": 270,
            "midi": 77,
            "name": "F5",
            "ticks": 205680,
            "time": 248.1335834999999,
            "velocity": 1
          },
          {
            "duration": 0.8082968833333553,
            "durationTicks": 728,
            "midi": 46,
            "name": "A#2",
            "ticks": 205920,
            "time": 248.4000549999999,
            "velocity": 1
          },
          {
            "duration": 0.2731332875000021,
            "durationTicks": 246,
            "midi": 53,
            "name": "F3",
            "ticks": 205920,
            "time": 248.4000549999999,
            "velocity": 1
          },
          {
            "duration": 0.26203030833335106,
            "durationTicks": 236,
            "midi": 56,
            "name": "G#3",
            "ticks": 205920,
            "time": 248.4000549999999,
            "velocity": 1
          },
          {
            "duration": 0.2731332875000021,
            "durationTicks": 246,
            "midi": 58,
            "name": "A#3",
            "ticks": 205920,
            "time": 248.4000549999999,
            "velocity": 1
          },
          {
            "duration": 0.2831259687499994,
            "durationTicks": 255,
            "midi": 61,
            "name": "C#4",
            "ticks": 205920,
            "time": 248.4000549999999,
            "velocity": 1
          },
          {
            "duration": 0.26425090416668695,
            "durationTicks": 238,
            "midi": 70,
            "name": "A#4",
            "ticks": 205920,
            "time": 248.4000549999999,
            "velocity": 1
          },
          {
            "duration": 0.5462665750000042,
            "durationTicks": 492,
            "midi": 75,
            "name": "D#5",
            "ticks": 205920,
            "time": 248.4000549999999,
            "velocity": 1
          },
          {
            "duration": 0.2731332875000021,
            "durationTicks": 246,
            "midi": 53,
            "name": "F3",
            "ticks": 206160,
            "time": 248.66652649999992,
            "velocity": 1
          },
          {
            "duration": 0.2731332875000021,
            "durationTicks": 246,
            "midi": 56,
            "name": "G#3",
            "ticks": 206160,
            "time": 248.66652649999992,
            "velocity": 1
          },
          {
            "duration": 0.2731332875000021,
            "durationTicks": 246,
            "midi": 58,
            "name": "A#3",
            "ticks": 206160,
            "time": 248.66652649999992,
            "velocity": 1
          },
          {
            "duration": 0.2731332875000021,
            "durationTicks": 246,
            "midi": 61,
            "name": "C#4",
            "ticks": 206160,
            "time": 248.66652649999992,
            "velocity": 1
          },
          {
            "duration": 0.2731332875000021,
            "durationTicks": 246,
            "midi": 65,
            "name": "F4",
            "ticks": 206160,
            "time": 248.66652649999992,
            "velocity": 1
          },
          {
            "duration": 0.28201567083331724,
            "durationTicks": 254,
            "midi": 70,
            "name": "A#4",
            "ticks": 206160,
            "time": 248.66652649999992,
            "velocity": 1
          },
          {
            "duration": 0.2531479250000075,
            "durationTicks": 228,
            "midi": 53,
            "name": "F3",
            "ticks": 206400,
            "time": 248.9329979999999,
            "velocity": 1
          },
          {
            "duration": 0.2531479250000075,
            "durationTicks": 228,
            "midi": 56,
            "name": "G#3",
            "ticks": 206400,
            "time": 248.9329979999999,
            "velocity": 1
          },
          {
            "duration": 0.2531479250000075,
            "durationTicks": 228,
            "midi": 58,
            "name": "A#3",
            "ticks": 206400,
            "time": 248.9329979999999,
            "velocity": 1
          },
          {
            "duration": 0.2531479250000075,
            "durationTicks": 228,
            "midi": 61,
            "name": "C#4",
            "ticks": 206400,
            "time": 248.9329979999999,
            "velocity": 1
          },
          {
            "duration": 0.2531479250000075,
            "durationTicks": 228,
            "midi": 65,
            "name": "F4",
            "ticks": 206400,
            "time": 248.9329979999999,
            "velocity": 1
          },
          {
            "duration": 1.0525624249999908,
            "durationTicks": 948,
            "midi": 68,
            "name": "G#4",
            "ticks": 206400,
            "time": 248.9329979999999,
            "velocity": 1
          },
          {
            "duration": 1.0525624249999908,
            "durationTicks": 948,
            "midi": 73,
            "name": "C#5",
            "ticks": 206400,
            "time": 248.9329979999999,
            "velocity": 1
          },
          {
            "duration": 1.031466764583314,
            "durationTicks": 929,
            "midi": 75,
            "name": "D#5",
            "ticks": 206400,
            "time": 248.9329979999999,
            "velocity": 1
          },
          {
            "duration": 0.25203762708332533,
            "durationTicks": 227,
            "midi": 46,
            "name": "A#2",
            "ticks": 206640,
            "time": 249.1994694999999,
            "velocity": 1
          },
          {
            "duration": 0.2609200104166689,
            "durationTicks": 235,
            "midi": 53,
            "name": "F3",
            "ticks": 206640,
            "time": 249.1994694999999,
            "velocity": 1
          },
          {
            "duration": 0.2609200104166689,
            "durationTicks": 235,
            "midi": 56,
            "name": "G#3",
            "ticks": 206640,
            "time": 249.1994694999999,
            "velocity": 1
          },
          {
            "duration": 0.2609200104166689,
            "durationTicks": 235,
            "midi": 58,
            "name": "A#3",
            "ticks": 206640,
            "time": 249.1994694999999,
            "velocity": 1
          },
          {
            "duration": 0.2609200104166689,
            "durationTicks": 235,
            "midi": 61,
            "name": "C#4",
            "ticks": 206640,
            "time": 249.1994694999999,
            "velocity": 1
          },
          {
            "duration": 0.28201567083334567,
            "durationTicks": 254,
            "midi": 65,
            "name": "F4",
            "ticks": 206640,
            "time": 249.1994694999999,
            "velocity": 1
          },
          {
            "duration": 0.28201567083334567,
            "durationTicks": 254,
            "midi": 46,
            "name": "A#2",
            "ticks": 206880,
            "time": 249.4659409999999,
            "velocity": 1
          },
          {
            "duration": 0.2731332875000021,
            "durationTicks": 246,
            "midi": 53,
            "name": "F3",
            "ticks": 206880,
            "time": 249.4659409999999,
            "velocity": 1
          },
          {
            "duration": 0.2731332875000021,
            "durationTicks": 246,
            "midi": 56,
            "name": "G#3",
            "ticks": 206880,
            "time": 249.4659409999999,
            "velocity": 1
          },
          {
            "duration": 0.2731332875000021,
            "durationTicks": 246,
            "midi": 58,
            "name": "A#3",
            "ticks": 206880,
            "time": 249.4659409999999,
            "velocity": 1
          },
          {
            "duration": 0.2731332875000021,
            "durationTicks": 246,
            "midi": 61,
            "name": "C#4",
            "ticks": 206880,
            "time": 249.4659409999999,
            "velocity": 1
          },
          {
            "duration": 0.28201567083334567,
            "durationTicks": 254,
            "midi": 65,
            "name": "F4",
            "ticks": 206880,
            "time": 249.4659409999999,
            "velocity": 1
          },
          {
            "duration": 0.2531479250000075,
            "durationTicks": 228,
            "midi": 46,
            "name": "A#2",
            "ticks": 207120,
            "time": 249.7324124999999,
            "velocity": 1
          },
          {
            "duration": 0.142118133333355,
            "durationTicks": 128,
            "midi": 53,
            "name": "F3",
            "ticks": 207120,
            "time": 249.7324124999999,
            "velocity": 1
          },
          {
            "duration": 0.2730674500000134,
            "durationTicks": 246,
            "midi": 56,
            "name": "G#3",
            "ticks": 207120,
            "time": 249.7324124999999,
            "velocity": 1
          },
          {
            "duration": 0.2531479250000075,
            "durationTicks": 228,
            "midi": 58,
            "name": "A#3",
            "ticks": 207120,
            "time": 249.7324124999999,
            "velocity": 1
          },
          {
            "duration": 0.2730674500000134,
            "durationTicks": 246,
            "midi": 61,
            "name": "C#4",
            "ticks": 207120,
            "time": 249.7324124999999,
            "velocity": 1
          },
          {
            "duration": 0.24315524375001019,
            "durationTicks": 219,
            "midi": 65,
            "name": "F4",
            "ticks": 207120,
            "time": 249.7324124999999,
            "velocity": 1
          },
          {
            "duration": 0.13101515416667553,
            "durationTicks": 118,
            "midi": 53,
            "name": "F3",
            "ticks": 207240,
            "time": 249.8656482499999,
            "velocity": 1
          },
          {
            "duration": 0.2704339500000117,
            "durationTicks": 246,
            "midi": 46,
            "name": "A#2",
            "ticks": 207360,
            "time": 249.99888399999992,
            "velocity": 1
          },
          {
            "duration": 0.2704339500000117,
            "durationTicks": 246,
            "midi": 53,
            "name": "F3",
            "ticks": 207360,
            "time": 249.99888399999992,
            "velocity": 1
          },
          {
            "duration": 0.2704339500000117,
            "durationTicks": 246,
            "midi": 56,
            "name": "G#3",
            "ticks": 207360,
            "time": 249.99888399999992,
            "velocity": 1
          },
          {
            "duration": 0.2704339500000117,
            "durationTicks": 246,
            "midi": 61,
            "name": "C#4",
            "ticks": 207360,
            "time": 249.99888399999992,
            "velocity": 1
          },
          {
            "duration": 0.2704339500000117,
            "durationTicks": 246,
            "midi": 65,
            "name": "F4",
            "ticks": 207360,
            "time": 249.99888399999992,
            "velocity": 1
          },
          {
            "duration": 0.2704339500000117,
            "durationTicks": 246,
            "midi": 73,
            "name": "C#5",
            "ticks": 207360,
            "time": 249.99888399999992,
            "velocity": 1
          },
          {
            "duration": 0.2704339500000117,
            "durationTicks": 246,
            "midi": 77,
            "name": "F5",
            "ticks": 207360,
            "time": 249.99888399999992,
            "velocity": 1
          },
          {
            "duration": 0.2495467749999989,
            "durationTicks": 227,
            "midi": 46,
            "name": "A#2",
            "ticks": 207600,
            "time": 250.2627219999999,
            "velocity": 1
          },
          {
            "duration": 0.2495467749999989,
            "durationTicks": 227,
            "midi": 53,
            "name": "F3",
            "ticks": 207600,
            "time": 250.2627219999999,
            "velocity": 1
          },
          {
            "duration": 0.2495467749999989,
            "durationTicks": 227,
            "midi": 56,
            "name": "G#3",
            "ticks": 207600,
            "time": 250.2627219999999,
            "velocity": 1
          },
          {
            "duration": 0.2495467749999989,
            "durationTicks": 227,
            "midi": 61,
            "name": "C#4",
            "ticks": 207600,
            "time": 250.2627219999999,
            "velocity": 1
          },
          {
            "duration": 0.2495467749999989,
            "durationTicks": 227,
            "midi": 65,
            "name": "F4",
            "ticks": 207600,
            "time": 250.2627219999999,
            "velocity": 1
          },
          {
            "duration": 0.2495467749999989,
            "durationTicks": 227,
            "midi": 73,
            "name": "C#5",
            "ticks": 207600,
            "time": 250.2627219999999,
            "velocity": 1
          },
          {
            "duration": 0.2495467749999989,
            "durationTicks": 227,
            "midi": 77,
            "name": "F5",
            "ticks": 207600,
            "time": 250.2627219999999,
            "velocity": 1
          },
          {
            "duration": 0.27373192499999277,
            "durationTicks": 249,
            "midi": 46,
            "name": "A#2",
            "ticks": 207840,
            "time": 250.52655999999993,
            "velocity": 1
          },
          {
            "duration": 0.27373192499999277,
            "durationTicks": 249,
            "midi": 53,
            "name": "F3",
            "ticks": 207840,
            "time": 250.52655999999993,
            "velocity": 1
          },
          {
            "duration": 0.27373192499999277,
            "durationTicks": 249,
            "midi": 56,
            "name": "G#3",
            "ticks": 207840,
            "time": 250.52655999999993,
            "velocity": 1
          },
          {
            "duration": 0.27373192499999277,
            "durationTicks": 249,
            "midi": 61,
            "name": "C#4",
            "ticks": 207840,
            "time": 250.52655999999993,
            "velocity": 1
          },
          {
            "duration": 0.27373192499999277,
            "durationTicks": 249,
            "midi": 65,
            "name": "F4",
            "ticks": 207840,
            "time": 250.52655999999993,
            "velocity": 1
          },
          {
            "duration": 0.27373192499999277,
            "durationTicks": 249,
            "midi": 73,
            "name": "C#5",
            "ticks": 207840,
            "time": 250.52655999999993,
            "velocity": 1
          },
          {
            "duration": 0.27373192499999277,
            "durationTicks": 249,
            "midi": 77,
            "name": "F5",
            "ticks": 207840,
            "time": 250.52655999999993,
            "velocity": 1
          },
          {
            "duration": 0.27373192499999277,
            "durationTicks": 249,
            "midi": 85,
            "name": "C#6",
            "ticks": 207840,
            "time": 250.52655999999993,
            "velocity": 1
          },
          {
            "duration": 0.2638379999999927,
            "durationTicks": 240,
            "midi": 46,
            "name": "A#2",
            "ticks": 208080,
            "time": 250.79039799999993,
            "velocity": 1
          },
          {
            "duration": 0.2638379999999927,
            "durationTicks": 240,
            "midi": 53,
            "name": "F3",
            "ticks": 208080,
            "time": 250.79039799999993,
            "velocity": 1
          },
          {
            "duration": 0.2638379999999927,
            "durationTicks": 240,
            "midi": 56,
            "name": "G#3",
            "ticks": 208080,
            "time": 250.79039799999993,
            "velocity": 1
          },
          {
            "duration": 0.2638379999999927,
            "durationTicks": 240,
            "midi": 61,
            "name": "C#4",
            "ticks": 208080,
            "time": 250.79039799999993,
            "velocity": 1
          },
          {
            "duration": 0.2638379999999927,
            "durationTicks": 240,
            "midi": 65,
            "name": "F4",
            "ticks": 208080,
            "time": 250.79039799999993,
            "velocity": 1
          },
          {
            "duration": 0.2638379999999927,
            "durationTicks": 240,
            "midi": 73,
            "name": "C#5",
            "ticks": 208080,
            "time": 250.79039799999993,
            "velocity": 1
          },
          {
            "duration": 0.2638379999999927,
            "durationTicks": 240,
            "midi": 77,
            "name": "F5",
            "ticks": 208080,
            "time": 250.79039799999993,
            "velocity": 1
          },
          {
            "duration": 0.2638379999999927,
            "durationTicks": 240,
            "midi": 85,
            "name": "C#6",
            "ticks": 208080,
            "time": 250.79039799999993,
            "velocity": 1
          },
          {
            "duration": 0.26273867500000847,
            "durationTicks": 239,
            "midi": 44,
            "name": "G#2",
            "ticks": 208320,
            "time": 251.05423599999992,
            "velocity": 1
          },
          {
            "duration": 0.26273867500000847,
            "durationTicks": 239,
            "midi": 53,
            "name": "F3",
            "ticks": 208320,
            "time": 251.05423599999992,
            "velocity": 1
          },
          {
            "duration": 0.26273867500000847,
            "durationTicks": 239,
            "midi": 56,
            "name": "G#3",
            "ticks": 208320,
            "time": 251.05423599999992,
            "velocity": 1
          },
          {
            "duration": 0.26273867500000847,
            "durationTicks": 239,
            "midi": 72,
            "name": "C5",
            "ticks": 208320,
            "time": 251.05423599999992,
            "velocity": 1
          },
          {
            "duration": 0.26273867500000847,
            "durationTicks": 239,
            "midi": 77,
            "name": "F5",
            "ticks": 208320,
            "time": 251.05423599999992,
            "velocity": 1
          },
          {
            "duration": 0.26273867500000847,
            "durationTicks": 239,
            "midi": 84,
            "name": "C6",
            "ticks": 208320,
            "time": 251.05423599999992,
            "velocity": 1
          },
          {
            "duration": 0.24405015000002095,
            "durationTicks": 222,
            "midi": 44,
            "name": "G#2",
            "ticks": 208560,
            "time": 251.3180739999999,
            "velocity": 1
          },
          {
            "duration": 0.24405015000002095,
            "durationTicks": 222,
            "midi": 53,
            "name": "F3",
            "ticks": 208560,
            "time": 251.3180739999999,
            "velocity": 1
          },
          {
            "duration": 0.24405015000002095,
            "durationTicks": 222,
            "midi": 56,
            "name": "G#3",
            "ticks": 208560,
            "time": 251.3180739999999,
            "velocity": 1
          },
          {
            "duration": 0.24405015000002095,
            "durationTicks": 222,
            "midi": 72,
            "name": "C5",
            "ticks": 208560,
            "time": 251.3180739999999,
            "velocity": 1
          },
          {
            "duration": 0.24405015000002095,
            "durationTicks": 222,
            "midi": 77,
            "name": "F5",
            "ticks": 208560,
            "time": 251.3180739999999,
            "velocity": 1
          },
          {
            "duration": 0.24405015000002095,
            "durationTicks": 222,
            "midi": 80,
            "name": "G#5",
            "ticks": 208560,
            "time": 251.3180739999999,
            "velocity": 1
          },
          {
            "duration": 0.24405015000002095,
            "durationTicks": 222,
            "midi": 84,
            "name": "C6",
            "ticks": 208560,
            "time": 251.3180739999999,
            "velocity": 1
          },
          {
            "duration": 0.24405014999999253,
            "durationTicks": 222,
            "midi": 44,
            "name": "G#2",
            "ticks": 208800,
            "time": 251.58191199999993,
            "velocity": 1
          },
          {
            "duration": 0.24405014999999253,
            "durationTicks": 222,
            "midi": 53,
            "name": "F3",
            "ticks": 208800,
            "time": 251.58191199999993,
            "velocity": 1
          },
          {
            "duration": 0.24405014999999253,
            "durationTicks": 222,
            "midi": 56,
            "name": "G#3",
            "ticks": 208800,
            "time": 251.58191199999993,
            "velocity": 1
          },
          {
            "duration": 0.24405014999999253,
            "durationTicks": 222,
            "midi": 72,
            "name": "C5",
            "ticks": 208800,
            "time": 251.58191199999993,
            "velocity": 1
          },
          {
            "duration": 0.24405014999999253,
            "durationTicks": 222,
            "midi": 77,
            "name": "F5",
            "ticks": 208800,
            "time": 251.58191199999993,
            "velocity": 1
          },
          {
            "duration": 0.24405014999999253,
            "durationTicks": 222,
            "midi": 80,
            "name": "G#5",
            "ticks": 208800,
            "time": 251.58191199999993,
            "velocity": 1
          },
          {
            "duration": 0.24405014999999253,
            "durationTicks": 222,
            "midi": 84,
            "name": "C6",
            "ticks": 208800,
            "time": 251.58191199999993,
            "velocity": 1
          },
          {
            "duration": 0.2761985854166653,
            "durationTicks": 251,
            "midi": 44,
            "name": "G#2",
            "ticks": 209040,
            "time": 251.84574999999992,
            "velocity": 1
          },
          {
            "duration": 0.2761985854166653,
            "durationTicks": 251,
            "midi": 53,
            "name": "F3",
            "ticks": 209040,
            "time": 251.84574999999992,
            "velocity": 1
          },
          {
            "duration": 0.2761985854166653,
            "durationTicks": 251,
            "midi": 56,
            "name": "G#3",
            "ticks": 209040,
            "time": 251.84574999999992,
            "velocity": 1
          },
          {
            "duration": 0.2761985854166653,
            "durationTicks": 251,
            "midi": 72,
            "name": "C5",
            "ticks": 209040,
            "time": 251.84574999999992,
            "velocity": 1
          },
          {
            "duration": 0.2761985854166653,
            "durationTicks": 251,
            "midi": 77,
            "name": "F5",
            "ticks": 209040,
            "time": 251.84574999999992,
            "velocity": 1
          },
          {
            "duration": 0.1868852499999889,
            "durationTicks": 170,
            "midi": 80,
            "name": "G#5",
            "ticks": 209040,
            "time": 251.84574999999992,
            "velocity": 1
          },
          {
            "duration": 0.1868852499999889,
            "durationTicks": 170,
            "midi": 84,
            "name": "C6",
            "ticks": 209040,
            "time": 251.84574999999992,
            "velocity": 1
          },
          {
            "duration": 1.6023813458333223,
            "durationTicks": 1426,
            "midi": 43,
            "name": "G2",
            "ticks": 209280,
            "time": 252.10958799999992,
            "velocity": 1
          },
          {
            "duration": 0.7978196041666763,
            "durationTicks": 710,
            "midi": 70,
            "name": "A#4",
            "ticks": 209280,
            "time": 252.10958799999992,
            "velocity": 1
          },
          {
            "duration": 0.5292577937499914,
            "durationTicks": 471,
            "midi": 75,
            "name": "D#5",
            "ticks": 209280,
            "time": 252.10958799999992,
            "velocity": 1
          },
          {
            "duration": 0.5270104145833159,
            "durationTicks": 469,
            "midi": 51,
            "name": "D#3",
            "ticks": 209520,
            "time": 252.37927349999993,
            "velocity": 1
          },
          {
            "duration": 1.6383394124999882,
            "durationTicks": 1458,
            "midi": 77,
            "name": "F5",
            "ticks": 209520,
            "time": 252.37927349999993,
            "velocity": 1
          },
          {
            "duration": 0.546113137500015,
            "durationTicks": 486,
            "midi": 58,
            "name": "A#3",
            "ticks": 209760,
            "time": 252.6489589999999,
            "velocity": 1
          },
          {
            "duration": 0.546113137500015,
            "durationTicks": 486,
            "midi": 75,
            "name": "D#5",
            "ticks": 209760,
            "time": 252.6489589999999,
            "velocity": 1
          },
          {
            "duration": 0.546113137500015,
            "durationTicks": 486,
            "midi": 51,
            "name": "D#3",
            "ticks": 210000,
            "time": 252.9186444999999,
            "velocity": 1
          },
          {
            "duration": 1.1113289979166723,
            "durationTicks": 989,
            "midi": 70,
            "name": "A#4",
            "ticks": 210000,
            "time": 252.9186444999999,
            "velocity": 1
          },
          {
            "duration": 1.0416602437499876,
            "durationTicks": 927,
            "midi": 58,
            "name": "A#3",
            "ticks": 210240,
            "time": 253.18832999999992,
            "velocity": 1
          },
          {
            "duration": 1.0416602437499876,
            "durationTicks": 927,
            "midi": 75,
            "name": "D#5",
            "ticks": 210240,
            "time": 253.18832999999992,
            "velocity": 1
          },
          {
            "duration": 0.7730984333333311,
            "durationTicks": 688,
            "midi": 51,
            "name": "D#3",
            "ticks": 210480,
            "time": 253.45801549999993,
            "velocity": 1
          },
          {
            "duration": 0.5135261395833481,
            "durationTicks": 457,
            "midi": 43,
            "name": "G2",
            "ticks": 210720,
            "time": 253.7277009999999,
            "velocity": 1
          },
          {
            "duration": 1.6380378375000078,
            "durationTicks": 1446,
            "midi": 42,
            "name": "F#2",
            "ticks": 211200,
            "time": 254.26707199999993,
            "velocity": 1
          },
          {
            "duration": 0.5380829687499897,
            "durationTicks": 475,
            "midi": 51,
            "name": "D#3",
            "ticks": 211440,
            "time": 254.53894549999993,
            "velocity": 1
          },
          {
            "duration": 1.2596805499999846,
            "durationTicks": 1112,
            "midi": 56,
            "name": "G#3",
            "ticks": 211680,
            "time": 254.81081899999992,
            "velocity": 1
          },
          {
            "duration": 0.5380829687499897,
            "durationTicks": 475,
            "midi": 70,
            "name": "A#4",
            "ticks": 211680,
            "time": 254.81081899999992,
            "velocity": 1
          },
          {
            "duration": 0.5380829687499897,
            "durationTicks": 475,
            "midi": 75,
            "name": "D#5",
            "ticks": 211680,
            "time": 254.81081899999992,
            "velocity": 1
          },
          {
            "duration": 0.5505438375000153,
            "durationTicks": 486,
            "midi": 51,
            "name": "D#3",
            "ticks": 211920,
            "time": 255.08269249999992,
            "velocity": 1
          },
          {
            "duration": 0.5505438375000153,
            "durationTicks": 486,
            "midi": 72,
            "name": "C5",
            "ticks": 211920,
            "time": 255.08269249999992,
            "velocity": 1
          },
          {
            "duration": 0.5505438375000153,
            "durationTicks": 486,
            "midi": 77,
            "name": "F5",
            "ticks": 211920,
            "time": 255.08269249999992,
            "velocity": 1
          },
          {
            "duration": 0.7204647749999822,
            "durationTicks": 636,
            "midi": 60,
            "name": "C4",
            "ticks": 212160,
            "time": 255.35456599999992,
            "velocity": 1
          },
          {
            "duration": 0.7204647749999822,
            "durationTicks": 636,
            "midi": 70,
            "name": "A#4",
            "ticks": 212160,
            "time": 255.35456599999992,
            "velocity": 1
          },
          {
            "duration": 0.5505438375000153,
            "durationTicks": 486,
            "midi": 75,
            "name": "D#5",
            "ticks": 212160,
            "time": 255.35456599999992,
            "velocity": 1
          },
          {
            "duration": 0.5414813874999993,
            "durationTicks": 478,
            "midi": 51,
            "name": "D#3",
            "ticks": 212400,
            "time": 255.62643949999992,
            "velocity": 1
          },
          {
            "duration": 0.5414813874999993,
            "durationTicks": 478,
            "midi": 72,
            "name": "C5",
            "ticks": 212400,
            "time": 255.62643949999992,
            "velocity": 1
          },
          {
            "duration": 0.4417944375000218,
            "durationTicks": 390,
            "midi": 77,
            "name": "F5",
            "ticks": 212400,
            "time": 255.62643949999992,
            "velocity": 1
          },
          {
            "duration": 0.5414813875000277,
            "durationTicks": 478,
            "midi": 42,
            "name": "F#2",
            "ticks": 212640,
            "time": 255.89831299999992,
            "velocity": 1
          },
          {
            "duration": 0.27074069374998544,
            "durationTicks": 239,
            "midi": 75,
            "name": "D#5",
            "ticks": 212640,
            "time": 255.89831299999992,
            "velocity": 1
          },
          {
            "duration": 0.5414813875000277,
            "durationTicks": 478,
            "midi": 80,
            "name": "G#5",
            "ticks": 212640,
            "time": 255.89831299999992,
            "velocity": 1
          },
          {
            "duration": 0.2707406937500423,
            "durationTicks": 239,
            "midi": 51,
            "name": "D#3",
            "ticks": 212879,
            "time": 256.1690536937499,
            "velocity": 1
          },
          {
            "duration": 0.2707406937500423,
            "durationTicks": 239,
            "midi": 72,
            "name": "C5",
            "ticks": 212879,
            "time": 256.1690536937499,
            "velocity": 1
          },
          {
            "duration": 0.2707406937500423,
            "durationTicks": 239,
            "midi": 77,
            "name": "F5",
            "ticks": 212879,
            "time": 256.1690536937499,
            "velocity": 1
          },
          {
            "duration": 1.1101501250000183,
            "durationTicks": 980,
            "midi": 41,
            "name": "F2",
            "ticks": 213120,
            "time": 256.4420599999999,
            "velocity": 1
          },
          {
            "duration": 0.5380829687500182,
            "durationTicks": 475,
            "midi": 70,
            "name": "A#4",
            "ticks": 213120,
            "time": 256.4420599999999,
            "velocity": 1
          },
          {
            "duration": 0.5380829687500182,
            "durationTicks": 475,
            "midi": 75,
            "name": "D#5",
            "ticks": 213120,
            "time": 256.4420599999999,
            "velocity": 1
          },
          {
            "duration": 0.5210908749999703,
            "durationTicks": 460,
            "midi": 49,
            "name": "C#3",
            "ticks": 213360,
            "time": 256.71393349999994,
            "velocity": 1
          },
          {
            "duration": 0.839409431249976,
            "durationTicks": 741,
            "midi": 72,
            "name": "C5",
            "ticks": 213360,
            "time": 256.71393349999994,
            "velocity": 1
          },
          {
            "duration": 0.839409431249976,
            "durationTicks": 741,
            "midi": 77,
            "name": "F5",
            "ticks": 213360,
            "time": 256.71393349999994,
            "velocity": 1
          },
          {
            "duration": 0.5709343500000159,
            "durationTicks": 504,
            "midi": 56,
            "name": "G#3",
            "ticks": 213600,
            "time": 256.9858069999999,
            "velocity": 1
          },
          {
            "duration": 0.5233564874999956,
            "durationTicks": 462,
            "midi": 70,
            "name": "A#4",
            "ticks": 213600,
            "time": 256.9858069999999,
            "velocity": 1
          },
          {
            "duration": 0.5709343500000159,
            "durationTicks": 504,
            "midi": 75,
            "name": "D#5",
            "ticks": 213600,
            "time": 256.9858069999999,
            "velocity": 1
          },
          {
            "duration": 0.31945136249998995,
            "durationTicks": 282,
            "midi": 49,
            "name": "C#3",
            "ticks": 213840,
            "time": 257.25768049999994,
            "velocity": 1
          },
          {
            "duration": 0.31945136249998995,
            "durationTicks": 282,
            "midi": 68,
            "name": "G#4",
            "ticks": 213840,
            "time": 257.25768049999994,
            "velocity": 1
          },
          {
            "duration": 0.31945136249998995,
            "durationTicks": 282,
            "midi": 73,
            "name": "C#5",
            "ticks": 213840,
            "time": 257.25768049999994,
            "velocity": 1
          },
          {
            "duration": 1.034252106249994,
            "durationTicks": 913,
            "midi": 39,
            "name": "D#2",
            "ticks": 214080,
            "time": 257.5295539999999,
            "velocity": 1
          },
          {
            "duration": 1.034252106249994,
            "durationTicks": 913,
            "midi": 67,
            "name": "G4",
            "ticks": 214080,
            "time": 257.5295539999999,
            "velocity": 1
          },
          {
            "duration": 0.5709343500000159,
            "durationTicks": 504,
            "midi": 70,
            "name": "A#4",
            "ticks": 214080,
            "time": 257.5295539999999,
            "velocity": 1
          },
          {
            "duration": 0.7657770249999771,
            "durationTicks": 676,
            "midi": 46,
            "name": "A#2",
            "ticks": 214320,
            "time": 257.80142749999993,
            "velocity": 1
          },
          {
            "duration": 0.49503633125004853,
            "durationTicks": 437,
            "midi": 55,
            "name": "G3",
            "ticks": 214560,
            "time": 258.0733009999999,
            "velocity": 1
          },
          {
            "duration": 0.34101351041670114,
            "durationTicks": 299,
            "midi": 73,
            "name": "C#5",
            "ticks": 214800,
            "time": 258.3451744999999,
            "velocity": 1
          },
          {
            "duration": 1.0605374479166585,
            "durationTicks": 905,
            "midi": 44,
            "name": "G#2",
            "ticks": 215040,
            "time": 258.61704799999995,
            "velocity": 1
          },
          {
            "duration": 1.0710842291666722,
            "durationTicks": 914,
            "midi": 60,
            "name": "C4",
            "ticks": 215040,
            "time": 258.61704799999995,
            "velocity": 1
          },
          {
            "duration": 1.0792872812500036,
            "durationTicks": 921,
            "midi": 66,
            "name": "F#4",
            "ticks": 215040,
            "time": 258.61704799999995,
            "velocity": 1
          },
          {
            "duration": 0.6081977187499774,
            "durationTicks": 519,
            "midi": 70,
            "name": "A#4",
            "ticks": 215040,
            "time": 258.61704799999995,
            "velocity": 1
          },
          {
            "duration": 0.7898367291666659,
            "durationTicks": 674,
            "midi": 51,
            "name": "D#3",
            "ticks": 215280,
            "time": 258.89829549999996,
            "velocity": 1
          },
          {
            "duration": 0.47929261458330075,
            "durationTicks": 409,
            "midi": 56,
            "name": "G#3",
            "ticks": 215520,
            "time": 259.17954299999997,
            "velocity": 1
          },
          {
            "duration": 0.47108956249996936,
            "durationTicks": 402,
            "midi": 70,
            "name": "A#4",
            "ticks": 215520,
            "time": 259.17954299999997,
            "velocity": 1
          },
          {
            "duration": 1.568075781250002,
            "durationTicks": 1335,
            "midi": 68,
            "name": "G#4",
            "ticks": 215760,
            "time": 259.4607905,
            "velocity": 1
          },
          {
            "duration": 1.2832318749999558,
            "durationTicks": 1092,
            "midi": 32,
            "name": "G#1",
            "ticks": 216000,
            "time": 259.742038,
            "velocity": 1
          },
          {
            "duration": 0.33046581250005147,
            "durationTicks": 282,
            "midi": 44,
            "name": "G#2",
            "ticks": 216240,
            "time": 260.02328549999993,
            "velocity": 1
          },
          {
            "duration": 0.6368207291666863,
            "durationTicks": 542,
            "midi": 44,
            "name": "G#2",
            "ticks": 216480,
            "time": 260.30453299999994,
            "velocity": 1
          },
          {
            "duration": 0.6583991666666975,
            "durationTicks": 560,
            "midi": 54,
            "name": "F#3",
            "ticks": 216480,
            "time": 260.30453299999994,
            "velocity": 1
          },
          {
            "duration": 0.6583991666666975,
            "durationTicks": 560,
            "midi": 60,
            "name": "C4",
            "ticks": 216480,
            "time": 260.30453299999994,
            "velocity": 1
          },
          {
            "duration": 0.6583991666666975,
            "durationTicks": 560,
            "midi": 65,
            "name": "F4",
            "ticks": 216480,
            "time": 260.30453299999994,
            "velocity": 1
          },
          {
            "duration": 0.27608838541664227,
            "durationTicks": 233,
            "midi": 63,
            "name": "D#4",
            "ticks": 216840,
            "time": 260.72640425,
            "velocity": 1
          },
          {
            "duration": 1.0105901562499753,
            "durationTicks": 843,
            "midi": 30,
            "name": "F#1",
            "ticks": 217200,
            "time": 261.15474049999995,
            "velocity": 1
          },
          {
            "duration": 1.0957051041666546,
            "durationTicks": 914,
            "midi": 42,
            "name": "F#2",
            "ticks": 217200,
            "time": 261.15474049999995,
            "velocity": 1
          },
          {
            "duration": 3.1944644000000153,
            "durationTicks": 2712,
            "midi": 53,
            "name": "F3",
            "ticks": 217200,
            "time": 261.15474049999995,
            "velocity": 1
          },
          {
            "duration": 0.011988020833314295,
            "durationTicks": 10,
            "midi": 58,
            "name": "A#3",
            "ticks": 217200,
            "time": 261.15474049999995,
            "velocity": 1
          },
          {
            "duration": 1.68431692708333,
            "durationTicks": 1405,
            "midi": 58,
            "name": "A#3",
            "ticks": 217200,
            "time": 261.15474049999995,
            "velocity": 1
          },
          {
            "duration": 3.1944644000000153,
            "durationTicks": 2712,
            "midi": 65,
            "name": "F4",
            "ticks": 217200,
            "time": 261.15474049999995,
            "velocity": 1
          },
          {
            "duration": 0.1774227083333244,
            "durationTicks": 148,
            "midi": 30,
            "name": "F#1",
            "ticks": 218040,
            "time": 262.16173424999994,
            "velocity": 1
          },
          {
            "duration": 0.16903109374999303,
            "durationTicks": 141,
            "midi": 30,
            "name": "F#1",
            "ticks": 218160,
            "time": 262.30559049999994,
            "velocity": 1
          },
          {
            "duration": 0.17502510416665018,
            "durationTicks": 146,
            "midi": 42,
            "name": "F#2",
            "ticks": 218160,
            "time": 262.30559049999994,
            "velocity": 1
          },
          {
            "duration": 0.17862151041668994,
            "durationTicks": 149,
            "midi": 42,
            "name": "F#2",
            "ticks": 218280,
            "time": 262.44944674999994,
            "velocity": 1
          },
          {
            "duration": 0.1726275000000328,
            "durationTicks": 144,
            "midi": 30,
            "name": "F#1",
            "ticks": 218400,
            "time": 262.59330299999993,
            "velocity": 1
          },
          {
            "duration": 0.17982031249999864,
            "durationTicks": 150,
            "midi": 42,
            "name": "F#2",
            "ticks": 218400,
            "time": 262.59330299999993,
            "velocity": 1
          },
          {
            "duration": 0.1774227083333244,
            "durationTicks": 148,
            "midi": 30,
            "name": "F#1",
            "ticks": 218520,
            "time": 262.73715924999993,
            "velocity": 1
          },
          {
            "duration": 0.16783229166668434,
            "durationTicks": 140,
            "midi": 30,
            "name": "F#1",
            "ticks": 218640,
            "time": 262.88101549999993,
            "velocity": 1
          },
          {
            "duration": 0.1546454687500045,
            "durationTicks": 129,
            "midi": 42,
            "name": "F#2",
            "ticks": 218640,
            "time": 262.88101549999993,
            "velocity": 1
          },
          {
            "duration": 1.148383718749983,
            "durationTicks": 989,
            "midi": 58,
            "name": "A#3",
            "ticks": 218640,
            "time": 262.88101549999993,
            "velocity": 1
          },
          {
            "duration": 0.17717996875001063,
            "durationTicks": 149,
            "midi": 30,
            "name": "F#1",
            "ticks": 218760,
            "time": 263.02487174999993,
            "velocity": 1
          },
          {
            "duration": 0.1783290624999836,
            "durationTicks": 150,
            "midi": 42,
            "name": "F#2",
            "ticks": 218760,
            "time": 263.02487174999993,
            "velocity": 1
          },
          {
            "duration": 0.14363671874997408,
            "durationTicks": 125,
            "midi": 30,
            "name": "F#1",
            "ticks": 218880,
            "time": 263.16872799999993,
            "velocity": 1
          },
          {
            "duration": 0.16546949999997196,
            "durationTicks": 144,
            "midi": 42,
            "name": "F#2",
            "ticks": 218880,
            "time": 263.16872799999993,
            "velocity": 1
          },
          {
            "duration": 0.15512765624998792,
            "durationTicks": 135,
            "midi": 30,
            "name": "F#1",
            "ticks": 219000,
            "time": 263.3066192499999,
            "velocity": 1
          },
          {
            "duration": 0.15512765624998792,
            "durationTicks": 135,
            "midi": 42,
            "name": "F#2",
            "ticks": 219000,
            "time": 263.3066192499999,
            "velocity": 1
          },
          {
            "duration": 0.1769604374999858,
            "durationTicks": 154,
            "midi": 30,
            "name": "F#1",
            "ticks": 219120,
            "time": 263.4445104999999,
            "velocity": 1
          },
          {
            "duration": 0.14478581250000389,
            "durationTicks": 126,
            "midi": 42,
            "name": "F#2",
            "ticks": 219120,
            "time": 263.4445104999999,
            "velocity": 1
          },
          {
            "duration": 0.1781095312500156,
            "durationTicks": 155,
            "midi": 42,
            "name": "F#2",
            "ticks": 219240,
            "time": 263.5824017499999,
            "velocity": 1
          },
          {
            "duration": 0.164320406249999,
            "durationTicks": 143,
            "midi": 30,
            "name": "F#1",
            "ticks": 219360,
            "time": 263.7202929999999,
            "velocity": 1
          },
          {
            "duration": 0.1574258437499907,
            "durationTicks": 137,
            "midi": 42,
            "name": "F#2",
            "ticks": 219360,
            "time": 263.7202929999999,
            "velocity": 1
          },
          {
            "duration": 0.2137314375000301,
            "durationTicks": 186,
            "midi": 30,
            "name": "F#1",
            "ticks": 219480,
            "time": 263.8581842499999,
            "velocity": 1
          },
          {
            "duration": 0.2550988125000231,
            "durationTicks": 222,
            "midi": 42,
            "name": "F#2",
            "ticks": 219600,
            "time": 263.9960754999999,
            "velocity": 1
          },
          {
            "duration": 0.3499066125000354,
            "durationTicks": 309,
            "midi": 58,
            "name": "A#3",
            "ticks": 219600,
            "time": 263.9960754999999,
            "velocity": 1
          },
          {
            "duration": 0.23779766249998602,
            "durationTicks": 213,
            "midi": 30,
            "name": "F#1",
            "ticks": 219720,
            "time": 264.13396674999996,
            "velocity": 1
          },
          {
            "duration": 0.17549043750000237,
            "durationTicks": 155,
            "midi": 42,
            "name": "F#2",
            "ticks": 219720,
            "time": 264.13396674999996,
            "velocity": 1
          },
          {
            "duration": 0.21523815000000468,
            "durationTicks": 192,
            "midi": 59,
            "name": "B3",
            "ticks": 219720,
            "time": 264.13396674999996,
            "velocity": 1
          },
          {
            "duration": 0.12139166250000244,
            "durationTicks": 113,
            "midi": 30,
            "name": "F#1",
            "ticks": 219840,
            "time": 264.27185799999995,
            "velocity": 1
          },
          {
            "duration": 1.3405695124999966,
            "durationTicks": 1242,
            "midi": 60,
            "name": "C4",
            "ticks": 219840,
            "time": 264.27185799999995,
            "velocity": 1
          },
          {
            "duration": 0.11387182499998971,
            "durationTicks": 106,
            "midi": 42,
            "name": "F#2",
            "ticks": 219960,
            "time": 264.40076949999997,
            "velocity": 1
          },
          {
            "duration": 0.1235401875000548,
            "durationTicks": 115,
            "midi": 30,
            "name": "F#1",
            "ticks": 220080,
            "time": 264.5296809999999,
            "velocity": 1
          },
          {
            "duration": 0.1117232999999942,
            "durationTicks": 104,
            "midi": 42,
            "name": "F#2",
            "ticks": 220200,
            "time": 264.65859249999994,
            "velocity": 1
          },
          {
            "duration": 0.12007147499997473,
            "durationTicks": 108,
            "midi": 30,
            "name": "F#1",
            "ticks": 220320,
            "time": 264.78750399999996,
            "velocity": 1
          },
          {
            "duration": 0.12340679375000718,
            "durationTicks": 111,
            "midi": 42,
            "name": "F#2",
            "ticks": 220440,
            "time": 264.92091674999995,
            "velocity": 1
          },
          {
            "duration": 0.13230097708333233,
            "durationTicks": 119,
            "midi": 30,
            "name": "F#1",
            "ticks": 220560,
            "time": 265.05432949999994,
            "velocity": 1
          },
          {
            "duration": 0.12229502083334864,
            "durationTicks": 110,
            "midi": 42,
            "name": "F#2",
            "ticks": 220679,
            "time": 265.18663047708327,
            "velocity": 1
          },
          {
            "duration": 0.11464981875002422,
            "durationTicks": 111,
            "midi": 30,
            "name": "F#1",
            "ticks": 220800,
            "time": 265.321155,
            "velocity": 1
          },
          {
            "duration": 0.11155117499998823,
            "durationTicks": 108,
            "midi": 42,
            "name": "F#2",
            "ticks": 220920,
            "time": 265.44510075,
            "velocity": 1
          },
          {
            "duration": 0.10225524374999395,
            "durationTicks": 99,
            "midi": 30,
            "name": "F#1",
            "ticks": 221040,
            "time": 265.56904649999996,
            "velocity": 1
          },
          {
            "duration": 0.10225524374999395,
            "durationTicks": 99,
            "midi": 42,
            "name": "F#2",
            "ticks": 221160,
            "time": 265.69299225,
            "velocity": 1
          },
          {
            "duration": 0.10225524374999395,
            "durationTicks": 99,
            "midi": 63,
            "name": "D#4",
            "ticks": 221160,
            "time": 265.69299225,
            "velocity": 1
          },
          {
            "duration": 0.10482333333334282,
            "durationTicks": 100,
            "midi": 30,
            "name": "F#1",
            "ticks": 221280,
            "time": 265.816938,
            "velocity": 1
          },
          {
            "duration": 0.10482333333334282,
            "durationTicks": 100,
            "midi": 62,
            "name": "D4",
            "ticks": 221280,
            "time": 265.816938,
            "velocity": 1
          },
          {
            "duration": 0.1184503666666501,
            "durationTicks": 113,
            "midi": 30,
            "name": "F#1",
            "ticks": 221400,
            "time": 265.942726,
            "velocity": 1
          },
          {
            "duration": 0.10691980000001422,
            "durationTicks": 102,
            "midi": 42,
            "name": "F#2",
            "ticks": 221400,
            "time": 265.942726,
            "velocity": 1
          },
          {
            "duration": 0.5817735812499905,
            "durationTicks": 563,
            "midi": 60,
            "name": "C4",
            "ticks": 221400,
            "time": 265.942726,
            "velocity": 1
          },
          {
            "duration": 0.10691980000001422,
            "durationTicks": 102,
            "midi": 61,
            "name": "C#4",
            "ticks": 221400,
            "time": 265.942726,
            "velocity": 1
          },
          {
            "duration": 0.1163538999999787,
            "durationTicks": 111,
            "midi": 42,
            "name": "F#2",
            "ticks": 221520,
            "time": 266.068514,
            "velocity": 1
          },
          {
            "duration": 0.1194985999999858,
            "durationTicks": 114,
            "midi": 30,
            "name": "F#1",
            "ticks": 221640,
            "time": 266.194302,
            "velocity": 1
          },
          {
            "duration": 0.11177075624999588,
            "durationTicks": 111,
            "midi": 42,
            "name": "F#2",
            "ticks": 221760,
            "time": 266.32009,
            "velocity": 1
          },
          {
            "duration": 0.1641318312500175,
            "durationTicks": 163,
            "midi": 30,
            "name": "F#1",
            "ticks": 221880,
            "time": 266.44092324999997,
            "velocity": 1
          },
          {
            "duration": 0.11177075624999588,
            "durationTicks": 111,
            "midi": 30,
            "name": "F#1",
            "ticks": 222000,
            "time": 266.5617565,
            "velocity": 1
          },
          {
            "duration": 0.23562483749998364,
            "durationTicks": 234,
            "midi": 42,
            "name": "F#2",
            "ticks": 222000,
            "time": 266.5617565,
            "velocity": 1
          },
          {
            "duration": 0.11579853124999318,
            "durationTicks": 115,
            "midi": 65,
            "name": "F4",
            "ticks": 222000,
            "time": 266.5617565,
            "velocity": 1
          },
          {
            "duration": 0.11479158750000806,
            "durationTicks": 114,
            "midi": 30,
            "name": "F#1",
            "ticks": 222120,
            "time": 266.68258975,
            "velocity": 1
          },
          {
            "duration": 0.39170111875000657,
            "durationTicks": 389,
            "midi": 65,
            "name": "F4",
            "ticks": 222120,
            "time": 266.68258975,
            "velocity": 1
          },
          {
            "duration": 0.11177075624999588,
            "durationTicks": 111,
            "midi": 30,
            "name": "F#1",
            "ticks": 222240,
            "time": 266.803423,
            "velocity": 1
          },
          {
            "duration": 0.11579853124999318,
            "durationTicks": 115,
            "midi": 42,
            "name": "F#2",
            "ticks": 222240,
            "time": 266.803423,
            "velocity": 1
          },
          {
            "duration": 0.16614571874998774,
            "durationTicks": 165,
            "midi": 30,
            "name": "F#1",
            "ticks": 222360,
            "time": 266.92425625,
            "velocity": 1
          },
          {
            "duration": 0.36048586250001335,
            "durationTicks": 358,
            "midi": 42,
            "name": "F#2",
            "ticks": 222360,
            "time": 266.92425625,
            "velocity": 1
          },
          {
            "duration": 0.19434014374996877,
            "durationTicks": 193,
            "midi": 30,
            "name": "F#1",
            "ticks": 222480,
            "time": 267.0450895,
            "velocity": 1
          },
          {
            "duration": 0.45747530208331,
            "durationTicks": 461,
            "midi": 65,
            "name": "F4",
            "ticks": 222480,
            "time": 267.0450895,
            "velocity": 1
          },
          {
            "duration": 1.6207532499999502,
            "durationTicks": 1656,
            "midi": 70,
            "name": "A#4",
            "ticks": 222600,
            "time": 267.16592275,
            "velocity": 1
          },
          {
            "duration": 0.14159401041666797,
            "durationTicks": 145,
            "midi": 30,
            "name": "F#1",
            "ticks": 222720,
            "time": 267.28675599999997,
            "velocity": 1
          },
          {
            "duration": 0.13866447916666402,
            "durationTicks": 142,
            "midi": 42,
            "name": "F#2",
            "ticks": 222720,
            "time": 267.28675599999997,
            "velocity": 1
          },
          {
            "duration": 1.2928997916666845,
            "durationTicks": 1324,
            "midi": 77,
            "name": "F5",
            "ticks": 222720,
            "time": 267.28675599999997,
            "velocity": 1
          },
          {
            "duration": 0.1201107812499913,
            "durationTicks": 123,
            "midi": 30,
            "name": "F#1",
            "ticks": 222840,
            "time": 267.40393724999996,
            "velocity": 1
          },
          {
            "duration": 0.23045645833332173,
            "durationTicks": 236,
            "midi": 42,
            "name": "F#2",
            "ticks": 222840,
            "time": 267.40393724999996,
            "velocity": 1
          },
          {
            "duration": 0.11034567708333043,
            "durationTicks": 113,
            "midi": 30,
            "name": "F#1",
            "ticks": 222960,
            "time": 267.52111849999994,
            "velocity": 1
          },
          {
            "duration": 1.257745416666694,
            "durationTicks": 1288,
            "midi": 65,
            "name": "F4",
            "ticks": 222960,
            "time": 267.52111849999994,
            "velocity": 1
          },
          {
            "duration": 0.07909734374999289,
            "durationTicks": 81,
            "midi": 30,
            "name": "F#1",
            "ticks": 223080,
            "time": 267.63829975,
            "velocity": 1
          },
          {
            "duration": 0.18456046874996446,
            "durationTicks": 189,
            "midi": 42,
            "name": "F#2",
            "ticks": 223080,
            "time": 267.63829975,
            "velocity": 1
          },
          {
            "duration": 0.10253359374996762,
            "durationTicks": 105,
            "midi": 30,
            "name": "F#1",
            "ticks": 223200,
            "time": 267.755481,
            "velocity": 1
          },
          {
            "duration": 0.13280541666665613,
            "durationTicks": 136,
            "midi": 30,
            "name": "F#1",
            "ticks": 223320,
            "time": 267.87266224999996,
            "velocity": 1
          },
          {
            "duration": 0.142570520833317,
            "durationTicks": 146,
            "midi": 42,
            "name": "F#2",
            "ticks": 223320,
            "time": 267.87266224999996,
            "velocity": 1
          },
          {
            "duration": 0.1542886458333328,
            "durationTicks": 158,
            "midi": 30,
            "name": "F#1",
            "ticks": 223440,
            "time": 267.98984349999995,
            "velocity": 1
          },
          {
            "duration": 0.14452354166667192,
            "durationTicks": 148,
            "midi": 42,
            "name": "F#2",
            "ticks": 223440,
            "time": 267.98984349999995,
            "velocity": 1
          },
          {
            "duration": 0.12401682291664429,
            "durationTicks": 127,
            "midi": 30,
            "name": "F#1",
            "ticks": 223560,
            "time": 268.10702475,
            "velocity": 1
          },
          {
            "duration": 0.12401682291664429,
            "durationTicks": 127,
            "midi": 42,
            "name": "F#2",
            "ticks": 223560,
            "time": 268.10702475,
            "velocity": 1
          },
          {
            "duration": 0.11425171874998341,
            "durationTicks": 117,
            "midi": 30,
            "name": "F#1",
            "ticks": 223680,
            "time": 268.224206,
            "velocity": 1
          },
          {
            "duration": 0.1122986979166285,
            "durationTicks": 115,
            "midi": 42,
            "name": "F#2",
            "ticks": 223680,
            "time": 268.224206,
            "velocity": 1
          },
          {
            "duration": 0.0810503645833478,
            "durationTicks": 83,
            "midi": 30,
            "name": "F#1",
            "ticks": 223800,
            "time": 268.34138724999997,
            "velocity": 1
          },
          {
            "duration": 0.0810503645833478,
            "durationTicks": 83,
            "midi": 42,
            "name": "F#2",
            "ticks": 223800,
            "time": 268.34138724999997,
            "velocity": 1
          },
          {
            "duration": 0.09081546875000868,
            "durationTicks": 93,
            "midi": 30,
            "name": "F#1",
            "ticks": 223920,
            "time": 268.45856849999996,
            "velocity": 1
          },
          {
            "duration": 0.09374500000001262,
            "durationTicks": 96,
            "midi": 42,
            "name": "F#2",
            "ticks": 223920,
            "time": 268.45856849999996,
            "velocity": 1
          },
          {
            "duration": 0.09374500000001262,
            "durationTicks": 96,
            "midi": 30,
            "name": "F#1",
            "ticks": 224040,
            "time": 268.57574974999994,
            "velocity": 1
          },
          {
            "duration": 0.17479536458336042,
            "durationTicks": 179,
            "midi": 42,
            "name": "F#2",
            "ticks": 224040,
            "time": 268.57574974999994,
            "velocity": 1
          },
          {
            "duration": 0.18358395833331542,
            "durationTicks": 188,
            "midi": 30,
            "name": "F#1",
            "ticks": 224160,
            "time": 268.692931,
            "velocity": 1
          },
          {
            "duration": 0.2050671874999921,
            "durationTicks": 210,
            "midi": 30,
            "name": "F#1",
            "ticks": 224280,
            "time": 268.81011225,
            "velocity": 1
          },
          {
            "duration": 0.2050671874999921,
            "durationTicks": 210,
            "midi": 42,
            "name": "F#2",
            "ticks": 224280,
            "time": 268.81011225,
            "velocity": 1
          },
          {
            "duration": 1.2393126958333482,
            "durationTicks": 1294,
            "midi": 65,
            "name": "F4",
            "ticks": 224280,
            "time": 268.81011225,
            "velocity": 1
          },
          {
            "duration": 1.2393126958333482,
            "durationTicks": 1294,
            "midi": 70,
            "name": "A#4",
            "ticks": 224280,
            "time": 268.81011225,
            "velocity": 1
          },
          {
            "duration": 0.21483229166665296,
            "durationTicks": 220,
            "midi": 42,
            "name": "F#2",
            "ticks": 224400,
            "time": 268.92729349999996,
            "velocity": 1
          },
          {
            "duration": 0.22363748333339117,
            "durationTicks": 232,
            "midi": 30,
            "name": "F#1",
            "ticks": 224520,
            "time": 269.04447474999995,
            "velocity": 1
          },
          {
            "duration": 0.19960543749999715,
            "durationTicks": 210,
            "midi": 42,
            "name": "F#2",
            "ticks": 224640,
            "time": 269.161656,
            "velocity": 1
          },
          {
            "duration": 0.1910509187499656,
            "durationTicks": 201,
            "midi": 30,
            "name": "F#1",
            "ticks": 224760,
            "time": 269.27571625,
            "velocity": 1
          },
          {
            "duration": 0.19105091875002245,
            "durationTicks": 201,
            "midi": 42,
            "name": "F#2",
            "ticks": 224880,
            "time": 269.3897765,
            "velocity": 1
          },
          {
            "duration": 0.19960543749999715,
            "durationTicks": 210,
            "midi": 30,
            "name": "F#1",
            "ticks": 225000,
            "time": 269.50383675,
            "velocity": 1
          },
          {
            "duration": 0.20911045833332764,
            "durationTicks": 220,
            "midi": 42,
            "name": "F#2",
            "ticks": 225120,
            "time": 269.61789699999997,
            "velocity": 1
          },
          {
            "duration": 0.21861547916665813,
            "durationTicks": 230,
            "midi": 30,
            "name": "F#1",
            "ticks": 225240,
            "time": 269.73195725,
            "velocity": 1
          },
          {
            "duration": 0.20911045833332764,
            "durationTicks": 220,
            "midi": 42,
            "name": "F#2",
            "ticks": 225360,
            "time": 269.8460175,
            "velocity": 1
          },
          {
            "duration": 0.19960543749999715,
            "durationTicks": 210,
            "midi": 30,
            "name": "F#1",
            "ticks": 225480,
            "time": 269.96007775,
            "velocity": 1
          },
          {
            "duration": 0.23192250833335493,
            "durationTicks": 244,
            "midi": 42,
            "name": "F#2",
            "ticks": 225480,
            "time": 269.96007775,
            "velocity": 1
          },
          {
            "duration": 0.23192250833329808,
            "durationTicks": 244,
            "midi": 30,
            "name": "F#1",
            "ticks": 225600,
            "time": 270.074138,
            "velocity": 1
          },
          {
            "duration": 0.23192250833329808,
            "durationTicks": 244,
            "midi": 65,
            "name": "F4",
            "ticks": 225600,
            "time": 270.074138,
            "velocity": 1
          },
          {
            "duration": 0.23192250833329808,
            "durationTicks": 244,
            "midi": 70,
            "name": "A#4",
            "ticks": 225600,
            "time": 270.074138,
            "velocity": 1
          },
          {
            "duration": 0.620677860416663,
            "durationTicks": 653,
            "midi": 72,
            "name": "C5",
            "ticks": 225600,
            "time": 270.074138,
            "velocity": 1
          },
          {
            "duration": 0.21861547916671498,
            "durationTicks": 230,
            "midi": 42,
            "name": "F#2",
            "ticks": 225720,
            "time": 270.18819824999997,
            "velocity": 1
          },
          {
            "duration": 0.23002150416664335,
            "durationTicks": 242,
            "midi": 30,
            "name": "F#1",
            "ticks": 225840,
            "time": 270.3022585,
            "velocity": 1
          },
          {
            "duration": 0.388755352083308,
            "durationTicks": 409,
            "midi": 65,
            "name": "F4",
            "ticks": 225840,
            "time": 270.3022585,
            "velocity": 1
          },
          {
            "duration": 0.388755352083308,
            "durationTicks": 409,
            "midi": 70,
            "name": "A#4",
            "ticks": 225840,
            "time": 270.3022585,
            "velocity": 1
          },
          {
            "duration": 0.23192250833329808,
            "durationTicks": 244,
            "midi": 42,
            "name": "F#2",
            "ticks": 225960,
            "time": 270.41631875,
            "velocity": 1
          },
          {
            "duration": 0.20911045833332764,
            "durationTicks": 220,
            "midi": 30,
            "name": "F#1",
            "ticks": 226080,
            "time": 270.530379,
            "velocity": 1
          },
          {
            "duration": 0.08839669374998493,
            "durationTicks": 93,
            "midi": 42,
            "name": "F#2",
            "ticks": 226200,
            "time": 270.64443925,
            "velocity": 1
          },
          {
            "duration": 0.9467000750000238,
            "durationTicks": 996,
            "midi": 30,
            "name": "F#1",
            "ticks": 226320,
            "time": 270.75849949999997,
            "velocity": 1
          },
          {
            "duration": 0.9467000750000238,
            "durationTicks": 996,
            "midi": 42,
            "name": "F#2",
            "ticks": 226320,
            "time": 270.75849949999997,
            "velocity": 1
          },
          {
            "duration": 0.3165171937500304,
            "durationTicks": 333,
            "midi": 75,
            "name": "D#5",
            "ticks": 226920,
            "time": 271.32880074999997,
            "velocity": 1
          },
          {
            "duration": 0.20530845000001818,
            "durationTicks": 216,
            "midi": 74,
            "name": "D5",
            "ticks": 227040,
            "time": 271.442861,
            "velocity": 1
          },
          {
            "duration": 0.10740673541664592,
            "durationTicks": 113,
            "midi": 73,
            "name": "C#5",
            "ticks": 227160,
            "time": 271.55692125,
            "velocity": 1
          },
          {
            "duration": 1.0617108270833455,
            "durationTicks": 1117,
            "midi": 30,
            "name": "F#1",
            "ticks": 227280,
            "time": 271.6709815,
            "velocity": 1
          },
          {
            "duration": 1.0617108270833455,
            "durationTicks": 1117,
            "midi": 42,
            "name": "F#2",
            "ticks": 227280,
            "time": 271.6709815,
            "velocity": 1
          },
          {
            "duration": 1.0122847187500383,
            "durationTicks": 1065,
            "midi": 72,
            "name": "C5",
            "ticks": 227280,
            "time": 271.6709815,
            "velocity": 1
          },
          {
            "duration": 0.3155666916666746,
            "durationTicks": 332,
            "midi": 49,
            "name": "C#3",
            "ticks": 228000,
            "time": 272.355343,
            "velocity": 1
          },
          {
            "duration": 0.4717007666666291,
            "durationTicks": 496,
            "midi": 65,
            "name": "F4",
            "ticks": 228000,
            "time": 272.355343,
            "velocity": 1
          },
          {
            "duration": 0.09790171458331542,
            "durationTicks": 103,
            "midi": 30,
            "name": "F#1",
            "ticks": 228360,
            "time": 272.69752375,
            "velocity": 1
          },
          {
            "duration": 0.09790171458331542,
            "durationTicks": 103,
            "midi": 42,
            "name": "F#2",
            "ticks": 228360,
            "time": 272.69752375,
            "velocity": 1
          },
          {
            "duration": 0.09952224791663866,
            "durationTicks": 103,
            "midi": 30,
            "name": "F#1",
            "ticks": 228480,
            "time": 272.811584,
            "velocity": 1
          },
          {
            "duration": 0.09952224791663866,
            "durationTicks": 103,
            "midi": 42,
            "name": "F#2",
            "ticks": 228480,
            "time": 272.811584,
            "velocity": 1
          },
          {
            "duration": 0.27924203541664383,
            "durationTicks": 289,
            "midi": 65,
            "name": "F4",
            "ticks": 228480,
            "time": 272.811584,
            "velocity": 1
          },
          {
            "duration": 0.27924203541664383,
            "durationTicks": 289,
            "midi": 77,
            "name": "F5",
            "ticks": 228480,
            "time": 272.811584,
            "velocity": 1
          },
          {
            "duration": 0.079231304166683,
            "durationTicks": 82,
            "midi": 30,
            "name": "F#1",
            "ticks": 228600,
            "time": 272.92753224999996,
            "velocity": 1
          },
          {
            "duration": 0.079231304166683,
            "durationTicks": 82,
            "midi": 42,
            "name": "F#2",
            "ticks": 228600,
            "time": 272.92753224999996,
            "velocity": 1
          },
          {
            "duration": 0.17971978750000517,
            "durationTicks": 186,
            "midi": 82,
            "name": "A#5",
            "ticks": 228600,
            "time": 272.92753224999996,
            "velocity": 1
          },
          {
            "duration": 0.09952224791663866,
            "durationTicks": 103,
            "midi": 30,
            "name": "F#1",
            "ticks": 228720,
            "time": 273.0434805,
            "velocity": 1
          },
          {
            "duration": 0.09952224791663866,
            "durationTicks": 103,
            "midi": 42,
            "name": "F#2",
            "ticks": 228720,
            "time": 273.0434805,
            "velocity": 1
          },
          {
            "duration": 0.14976648958332817,
            "durationTicks": 155,
            "midi": 30,
            "name": "F#1",
            "ticks": 228840,
            "time": 273.15942874999996,
            "velocity": 1
          },
          {
            "duration": 0.14976648958332817,
            "durationTicks": 155,
            "midi": 42,
            "name": "F#2",
            "ticks": 228840,
            "time": 273.15942874999996,
            "velocity": 1
          },
          {
            "duration": 1.5394938000000025,
            "durationTicks": 1594,
            "midi": 89,
            "name": "F6",
            "ticks": 228840,
            "time": 273.15942874999996,
            "velocity": 1
          },
          {
            "duration": 0.11401577916666383,
            "durationTicks": 118,
            "midi": 30,
            "name": "F#1",
            "ticks": 228960,
            "time": 273.275377,
            "velocity": 1
          },
          {
            "duration": 0.11401577916666383,
            "durationTicks": 118,
            "midi": 42,
            "name": "F#2",
            "ticks": 228960,
            "time": 273.275377,
            "velocity": 1
          },
          {
            "duration": 0.09082612916665767,
            "durationTicks": 94,
            "midi": 30,
            "name": "F#1",
            "ticks": 229080,
            "time": 273.39132524999997,
            "velocity": 1
          },
          {
            "duration": 0.09082612916665767,
            "durationTicks": 94,
            "midi": 42,
            "name": "F#2",
            "ticks": 229080,
            "time": 273.39132524999997,
            "velocity": 1
          },
          {
            "duration": 0.09275859999996783,
            "durationTicks": 96,
            "midi": 30,
            "name": "F#1",
            "ticks": 229200,
            "time": 273.5072735,
            "velocity": 1
          },
          {
            "duration": 0.09275859999996783,
            "durationTicks": 96,
            "midi": 42,
            "name": "F#2",
            "ticks": 229200,
            "time": 273.5072735,
            "velocity": 1
          },
          {
            "duration": 0.11111707291667017,
            "durationTicks": 115,
            "midi": 30,
            "name": "F#1",
            "ticks": 229320,
            "time": 273.62322174999997,
            "velocity": 1
          },
          {
            "duration": 0.11111707291667017,
            "durationTicks": 115,
            "midi": 42,
            "name": "F#2",
            "ticks": 229320,
            "time": 273.62322174999997,
            "velocity": 1
          },
          {
            "duration": 0.07150142083332867,
            "durationTicks": 74,
            "midi": 30,
            "name": "F#1",
            "ticks": 229440,
            "time": 273.73917,
            "velocity": 1
          },
          {
            "duration": 0.08213001041661983,
            "durationTicks": 85,
            "midi": 30,
            "name": "F#1",
            "ticks": 229440,
            "time": 273.73917,
            "velocity": 1
          },
          {
            "duration": 0.07150142083332867,
            "durationTicks": 74,
            "midi": 42,
            "name": "F#2",
            "ticks": 229440,
            "time": 273.73917,
            "velocity": 1
          },
          {
            "duration": 0.08213001041661983,
            "durationTicks": 85,
            "midi": 42,
            "name": "F#2",
            "ticks": 229440,
            "time": 273.73917,
            "velocity": 1
          },
          {
            "duration": 0.08309624583336017,
            "durationTicks": 86,
            "midi": 30,
            "name": "F#1",
            "ticks": 229560,
            "time": 273.85511825,
            "velocity": 1
          },
          {
            "duration": 0.08309624583336017,
            "durationTicks": 86,
            "midi": 42,
            "name": "F#2",
            "ticks": 229560,
            "time": 273.85511825,
            "velocity": 1
          },
          {
            "duration": 0.10242095416663233,
            "durationTicks": 106,
            "midi": 30,
            "name": "F#1",
            "ticks": 229680,
            "time": 273.9710665,
            "velocity": 1
          },
          {
            "duration": 0.10242095416663233,
            "durationTicks": 106,
            "midi": 42,
            "name": "F#2",
            "ticks": 229680,
            "time": 273.9710665,
            "velocity": 1
          },
          {
            "duration": 0.09082612916665767,
            "durationTicks": 94,
            "midi": 30,
            "name": "F#1",
            "ticks": 229800,
            "time": 274.08701475,
            "velocity": 1
          },
          {
            "duration": 0.09082612916665767,
            "durationTicks": 94,
            "midi": 42,
            "name": "F#2",
            "ticks": 229800,
            "time": 274.08701475,
            "velocity": 1
          },
          {
            "duration": 0.10242095416668917,
            "durationTicks": 106,
            "midi": 30,
            "name": "F#1",
            "ticks": 229920,
            "time": 274.20296299999995,
            "velocity": 1
          },
          {
            "duration": 0.10242095416668917,
            "durationTicks": 106,
            "midi": 42,
            "name": "F#2",
            "ticks": 229920,
            "time": 274.20296299999995,
            "velocity": 1
          },
          {
            "duration": 0.11401577916666383,
            "durationTicks": 118,
            "midi": 30,
            "name": "F#1",
            "ticks": 230040,
            "time": 274.31891125,
            "velocity": 1
          },
          {
            "duration": 0.11401577916666383,
            "durationTicks": 118,
            "midi": 42,
            "name": "F#2",
            "ticks": 230040,
            "time": 274.31891125,
            "velocity": 1
          },
          {
            "duration": 0.11208330833335367,
            "durationTicks": 116,
            "midi": 30,
            "name": "F#1",
            "ticks": 230160,
            "time": 274.43485949999996,
            "velocity": 1
          },
          {
            "duration": 0.11208330833335367,
            "durationTicks": 116,
            "midi": 42,
            "name": "F#2",
            "ticks": 230160,
            "time": 274.43485949999996,
            "velocity": 1
          },
          {
            "duration": 0.11111707291667017,
            "durationTicks": 115,
            "midi": 30,
            "name": "F#1",
            "ticks": 230280,
            "time": 274.55080775,
            "velocity": 1
          },
          {
            "duration": 0.11111707291667017,
            "durationTicks": 115,
            "midi": 42,
            "name": "F#2",
            "ticks": 230280,
            "time": 274.55080775,
            "velocity": 1
          },
          {
            "duration": 0.11163685000002488,
            "durationTicks": 118,
            "midi": 30,
            "name": "F#1",
            "ticks": 230400,
            "time": 274.66675599999996,
            "velocity": 1
          },
          {
            "duration": 0.11163685000002488,
            "durationTicks": 118,
            "midi": 42,
            "name": "F#2",
            "ticks": 230400,
            "time": 274.66675599999996,
            "velocity": 1
          },
          {
            "duration": 0.1296122749999995,
            "durationTicks": 137,
            "midi": 30,
            "name": "F#1",
            "ticks": 230520,
            "time": 274.780285,
            "velocity": 1
          },
          {
            "duration": 0.22043547499998795,
            "durationTicks": 233,
            "midi": 42,
            "name": "F#2",
            "ticks": 230520,
            "time": 274.780285,
            "velocity": 1
          },
          {
            "duration": 1.2999070499999448,
            "durationTicks": 1374,
            "midi": 77,
            "name": "F5",
            "ticks": 230520,
            "time": 274.780285,
            "velocity": 1
          },
          {
            "duration": 1.2999070499999448,
            "durationTicks": 1374,
            "midi": 82,
            "name": "A#5",
            "ticks": 230520,
            "time": 274.780285,
            "velocity": 1
          },
          {
            "duration": 0.1901610749999918,
            "durationTicks": 201,
            "midi": 30,
            "name": "F#1",
            "ticks": 230640,
            "time": 274.89381399999996,
            "velocity": 1
          },
          {
            "duration": 0.20056790000001,
            "durationTicks": 212,
            "midi": 42,
            "name": "F#2",
            "ticks": 230640,
            "time": 274.89381399999996,
            "velocity": 1
          },
          {
            "duration": 0.1996218249999515,
            "durationTicks": 211,
            "midi": 30,
            "name": "F#1",
            "ticks": 230760,
            "time": 275.007343,
            "velocity": 1
          },
          {
            "duration": 0.19962182500000836,
            "durationTicks": 211,
            "midi": 42,
            "name": "F#2",
            "ticks": 230880,
            "time": 275.12087199999996,
            "velocity": 1
          },
          {
            "duration": 0.1996218249999515,
            "durationTicks": 211,
            "midi": 30,
            "name": "F#1",
            "ticks": 231000,
            "time": 275.234401,
            "velocity": 1
          },
          {
            "duration": 0.20908257500002492,
            "durationTicks": 221,
            "midi": 42,
            "name": "F#2",
            "ticks": 231120,
            "time": 275.34792999999996,
            "velocity": 1
          },
          {
            "duration": 0.1996218249999515,
            "durationTicks": 211,
            "midi": 30,
            "name": "F#1",
            "ticks": 231240,
            "time": 275.461459,
            "velocity": 1
          },
          {
            "duration": 0.18826892499998849,
            "durationTicks": 199,
            "midi": 30,
            "name": "F#1",
            "ticks": 231360,
            "time": 275.57498799999996,
            "velocity": 1
          },
          {
            "duration": 0.1901610749999918,
            "durationTicks": 201,
            "midi": 42,
            "name": "F#2",
            "ticks": 231360,
            "time": 275.57498799999996,
            "velocity": 1
          },
          {
            "duration": 0.1996218249999515,
            "durationTicks": 211,
            "midi": 42,
            "name": "F#2",
            "ticks": 231480,
            "time": 275.688517,
            "velocity": 1
          },
          {
            "duration": 0.19110714999999345,
            "durationTicks": 202,
            "midi": 30,
            "name": "F#1",
            "ticks": 231600,
            "time": 275.80204599999996,
            "velocity": 1
          },
          {
            "duration": 0.17975424999997358,
            "durationTicks": 190,
            "midi": 42,
            "name": "F#2",
            "ticks": 231720,
            "time": 275.915575,
            "velocity": 1
          },
          {
            "duration": 0.18826892499998849,
            "durationTicks": 199,
            "midi": 30,
            "name": "F#1",
            "ticks": 231840,
            "time": 276.02910399999996,
            "velocity": 1
          },
          {
            "duration": 0.18826892499998849,
            "durationTicks": 199,
            "midi": 82,
            "name": "A#5",
            "ticks": 231840,
            "time": 276.02910399999996,
            "velocity": 1
          },
          {
            "duration": 0.21192079999997304,
            "durationTicks": 224,
            "midi": 30,
            "name": "F#1",
            "ticks": 231960,
            "time": 276.142633,
            "velocity": 1
          },
          {
            "duration": 0.1996218249999515,
            "durationTicks": 211,
            "midi": 42,
            "name": "F#2",
            "ticks": 231960,
            "time": 276.142633,
            "velocity": 1
          },
          {
            "duration": 0.6707671749999804,
            "durationTicks": 709,
            "midi": 77,
            "name": "F5",
            "ticks": 231960,
            "time": 276.142633,
            "velocity": 1
          },
          {
            "duration": 0.6707671749999804,
            "durationTicks": 709,
            "midi": 82,
            "name": "A#5",
            "ticks": 231960,
            "time": 276.142633,
            "velocity": 1
          },
          {
            "duration": 0.6707671749999804,
            "durationTicks": 709,
            "midi": 84,
            "name": "C6",
            "ticks": 231960,
            "time": 276.142633,
            "velocity": 1
          },
          {
            "duration": 0.19962182500000836,
            "durationTicks": 211,
            "midi": 42,
            "name": "F#2",
            "ticks": 232080,
            "time": 276.25616199999996,
            "velocity": 1
          },
          {
            "duration": 0.1996218249999515,
            "durationTicks": 211,
            "midi": 30,
            "name": "F#1",
            "ticks": 232200,
            "time": 276.369691,
            "velocity": 1
          },
          {
            "duration": 0.19962182500000836,
            "durationTicks": 211,
            "midi": 42,
            "name": "F#2",
            "ticks": 232320,
            "time": 276.48321999999996,
            "velocity": 1
          },
          {
            "duration": 0.1996218249999515,
            "durationTicks": 211,
            "midi": 30,
            "name": "F#1",
            "ticks": 232440,
            "time": 276.596749,
            "velocity": 1
          },
          {
            "duration": 0.18826892499998849,
            "durationTicks": 199,
            "midi": 42,
            "name": "F#2",
            "ticks": 232560,
            "time": 276.71027799999996,
            "velocity": 1
          },
          {
            "duration": 0.08893104999998513,
            "durationTicks": 94,
            "midi": 30,
            "name": "F#1",
            "ticks": 232680,
            "time": 276.823807,
            "velocity": 1
          },
          {
            "duration": 0.09933787500000335,
            "durationTicks": 105,
            "midi": 30,
            "name": "F#1",
            "ticks": 232800,
            "time": 276.93733599999996,
            "velocity": 1
          },
          {
            "duration": 0.09933787500000335,
            "durationTicks": 105,
            "midi": 42,
            "name": "F#2",
            "ticks": 232800,
            "time": 276.93733599999996,
            "velocity": 1
          },
          {
            "duration": 0.11731329999997797,
            "durationTicks": 124,
            "midi": 30,
            "name": "F#1",
            "ticks": 232920,
            "time": 277.050865,
            "velocity": 1
          },
          {
            "duration": 0.11731329999997797,
            "durationTicks": 124,
            "midi": 42,
            "name": "F#2",
            "ticks": 232920,
            "time": 277.050865,
            "velocity": 1
          },
          {
            "duration": 0.10879862500001991,
            "durationTicks": 115,
            "midi": 30,
            "name": "F#1",
            "ticks": 233040,
            "time": 277.16439399999996,
            "velocity": 1
          },
          {
            "duration": 0.10879862500001991,
            "durationTicks": 115,
            "midi": 42,
            "name": "F#2",
            "ticks": 233040,
            "time": 277.16439399999996,
            "velocity": 1
          },
          {
            "duration": 0.11542114999997466,
            "durationTicks": 122,
            "midi": 30,
            "name": "F#1",
            "ticks": 233160,
            "time": 277.277923,
            "velocity": 1
          },
          {
            "duration": 0.11542114999997466,
            "durationTicks": 122,
            "midi": 42,
            "name": "F#2",
            "ticks": 233160,
            "time": 277.277923,
            "velocity": 1
          },
          {
            "duration": 0.09744572500000004,
            "durationTicks": 103,
            "midi": 30,
            "name": "F#1",
            "ticks": 233280,
            "time": 277.39145199999996,
            "velocity": 1
          },
          {
            "duration": 0.09744572500000004,
            "durationTicks": 103,
            "midi": 30,
            "name": "F#1",
            "ticks": 233280,
            "time": 277.39145199999996,
            "velocity": 1
          },
          {
            "duration": 0.09744572500000004,
            "durationTicks": 103,
            "midi": 42,
            "name": "F#2",
            "ticks": 233280,
            "time": 277.39145199999996,
            "velocity": 1
          },
          {
            "duration": 0.09744572500000004,
            "durationTicks": 103,
            "midi": 42,
            "name": "F#2",
            "ticks": 233280,
            "time": 277.39145199999996,
            "velocity": 1
          },
          {
            "duration": 0.09744572500000004,
            "durationTicks": 103,
            "midi": 87,
            "name": "D#6",
            "ticks": 233280,
            "time": 277.39145199999996,
            "velocity": 1
          },
          {
            "duration": 0.08893104999998513,
            "durationTicks": 94,
            "midi": 30,
            "name": "F#1",
            "ticks": 233400,
            "time": 277.504981,
            "velocity": 1
          },
          {
            "duration": 0.08893104999998513,
            "durationTicks": 94,
            "midi": 42,
            "name": "F#2",
            "ticks": 233400,
            "time": 277.504981,
            "velocity": 1
          },
          {
            "duration": 0.08893104999998513,
            "durationTicks": 94,
            "midi": 86,
            "name": "D6",
            "ticks": 233400,
            "time": 277.504981,
            "velocity": 1
          },
          {
            "duration": 0.09744572500000004,
            "durationTicks": 103,
            "midi": 30,
            "name": "F#1",
            "ticks": 233520,
            "time": 277.61850999999996,
            "velocity": 1
          },
          {
            "duration": 0.09744572500000004,
            "durationTicks": 103,
            "midi": 42,
            "name": "F#2",
            "ticks": 233520,
            "time": 277.61850999999996,
            "velocity": 1
          },
          {
            "duration": 0.09744572500000004,
            "durationTicks": 103,
            "midi": 85,
            "name": "C#6",
            "ticks": 233520,
            "time": 277.61850999999996,
            "velocity": 1
          },
          {
            "duration": 0.12582797499999288,
            "durationTicks": 133,
            "midi": 30,
            "name": "F#1",
            "ticks": 233640,
            "time": 277.732039,
            "velocity": 1
          },
          {
            "duration": 0.12582797499999288,
            "durationTicks": 133,
            "midi": 42,
            "name": "F#2",
            "ticks": 233640,
            "time": 277.732039,
            "velocity": 1
          },
          {
            "duration": 0.6046174958332813,
            "durationTicks": 638,
            "midi": 84,
            "name": "C6",
            "ticks": 233640,
            "time": 277.732039,
            "velocity": 1
          },
          {
            "duration": 0.11731330000003481,
            "durationTicks": 124,
            "midi": 30,
            "name": "F#1",
            "ticks": 233760,
            "time": 277.84556799999996,
            "velocity": 1
          },
          {
            "duration": 0.11731330000003481,
            "durationTicks": 124,
            "midi": 42,
            "name": "F#2",
            "ticks": 233760,
            "time": 277.84556799999996,
            "velocity": 1
          },
          {
            "duration": 0.11731329999997797,
            "durationTicks": 124,
            "midi": 30,
            "name": "F#1",
            "ticks": 233880,
            "time": 277.959097,
            "velocity": 1
          },
          {
            "duration": 0.11731329999997797,
            "durationTicks": 124,
            "midi": 42,
            "name": "F#2",
            "ticks": 233880,
            "time": 277.959097,
            "velocity": 1
          },
          {
            "duration": 0.11731330000003481,
            "durationTicks": 124,
            "midi": 30,
            "name": "F#1",
            "ticks": 234000,
            "time": 278.07262599999996,
            "velocity": 1
          },
          {
            "duration": 0.11731330000003481,
            "durationTicks": 124,
            "midi": 42,
            "name": "F#2",
            "ticks": 234000,
            "time": 278.07262599999996,
            "velocity": 1
          },
          {
            "duration": 0.12617748541663332,
            "durationTicks": 133,
            "midi": 30,
            "name": "F#1",
            "ticks": 234120,
            "time": 278.186155,
            "velocity": 1
          },
          {
            "duration": 0.12617748541663332,
            "durationTicks": 133,
            "midi": 42,
            "name": "F#2",
            "ticks": 234120,
            "time": 278.186155,
            "velocity": 1
          },
          {
            "duration": 0.12064709166668308,
            "durationTicks": 124,
            "midi": 30,
            "name": "F#1",
            "ticks": 234240,
            "time": 278.29968399999996,
            "velocity": 1
          },
          {
            "duration": 0.12064709166668308,
            "durationTicks": 124,
            "midi": 42,
            "name": "F#2",
            "ticks": 234240,
            "time": 278.29968399999996,
            "velocity": 1
          },
          {
            "duration": 0.12064709166668308,
            "durationTicks": 124,
            "midi": 78,
            "name": "F#5",
            "ticks": 234240,
            "time": 278.29968399999996,
            "velocity": 1
          },
          {
            "duration": 0.1294037354167017,
            "durationTicks": 133,
            "midi": 30,
            "name": "F#1",
            "ticks": 234360,
            "time": 278.41643924999994,
            "velocity": 1
          },
          {
            "duration": 0.1294037354167017,
            "durationTicks": 133,
            "midi": 42,
            "name": "F#2",
            "ticks": 234360,
            "time": 278.41643924999994,
            "velocity": 1
          },
          {
            "duration": 0.48842612916666894,
            "durationTicks": 502,
            "midi": 77,
            "name": "F5",
            "ticks": 234360,
            "time": 278.41643924999994,
            "velocity": 1
          },
          {
            "duration": 0.12064709166662624,
            "durationTicks": 124,
            "midi": 30,
            "name": "F#1",
            "ticks": 234480,
            "time": 278.5331945,
            "velocity": 1
          },
          {
            "duration": 0.12064709166662624,
            "durationTicks": 124,
            "midi": 42,
            "name": "F#2",
            "ticks": 234480,
            "time": 278.5331945,
            "velocity": 1
          },
          {
            "duration": 0.11870117083333298,
            "durationTicks": 122,
            "midi": 30,
            "name": "F#1",
            "ticks": 234600,
            "time": 278.64994974999996,
            "velocity": 1
          },
          {
            "duration": 0.11870117083333298,
            "durationTicks": 122,
            "midi": 42,
            "name": "F#2",
            "ticks": 234600,
            "time": 278.64994974999996,
            "velocity": 1
          },
          {
            "duration": 0.12064709166668308,
            "durationTicks": 124,
            "midi": 30,
            "name": "F#1",
            "ticks": 234720,
            "time": 278.76670499999994,
            "velocity": 1
          },
          {
            "duration": 0.12064709166668308,
            "durationTicks": 124,
            "midi": 42,
            "name": "F#2",
            "ticks": 234720,
            "time": 278.76670499999994,
            "velocity": 1
          },
          {
            "duration": 0.32107693749998134,
            "durationTicks": 330,
            "midi": 30,
            "name": "F#1",
            "ticks": 234840,
            "time": 278.88346025,
            "velocity": 1
          },
          {
            "duration": 0.2792396395833521,
            "durationTicks": 287,
            "midi": 30,
            "name": "F#1",
            "ticks": 235200,
            "time": 279.23372599999993,
            "velocity": 1
          },
          {
            "duration": 0.25005082708332793,
            "durationTicks": 257,
            "midi": 89,
            "name": "F6",
            "ticks": 235320,
            "time": 279.35048125,
            "velocity": 1
          },
          {
            "duration": 0.2004298458333551,
            "durationTicks": 206,
            "midi": 30,
            "name": "F#1",
            "ticks": 235440,
            "time": 279.46723649999996,
            "velocity": 1
          },
          {
            "duration": 0.18875432083336818,
            "durationTicks": 194,
            "midi": 89,
            "name": "F6",
            "ticks": 235560,
            "time": 279.58399174999994,
            "velocity": 1
          },
          {
            "duration": 0.19070024166666144,
            "durationTicks": 196,
            "midi": 30,
            "name": "F#1",
            "ticks": 235680,
            "time": 279.700747,
            "velocity": 1
          },
          {
            "duration": 0.1615114291666373,
            "durationTicks": 166,
            "midi": 89,
            "name": "F6",
            "ticks": 235800,
            "time": 279.81750224999996,
            "velocity": 1
          },
          {
            "duration": 0.1702680729166559,
            "durationTicks": 175,
            "midi": 30,
            "name": "F#1",
            "ticks": 235920,
            "time": 279.93425749999994,
            "velocity": 1
          },
          {
            "duration": 0.2091864895833737,
            "durationTicks": 215,
            "midi": 89,
            "name": "F6",
            "ticks": 235920,
            "time": 279.93425749999994,
            "velocity": 1
          },
          {
            "duration": 0.1595655083332872,
            "durationTicks": 164,
            "midi": 30,
            "name": "F#1",
            "ticks": 236040,
            "time": 280.05101275,
            "velocity": 1
          },
          {
            "duration": 0.14983590416665038,
            "durationTicks": 154,
            "midi": 30,
            "name": "F#1",
            "ticks": 236160,
            "time": 280.16776799999997,
            "velocity": 1
          },
          {
            "duration": 0.12940373541664485,
            "durationTicks": 133,
            "midi": 89,
            "name": "F6",
            "ticks": 236160,
            "time": 280.16776799999997,
            "velocity": 1
          },
          {
            "duration": 0.14983590416665038,
            "durationTicks": 154,
            "midi": 89,
            "name": "F6",
            "ticks": 236280,
            "time": 280.28452324999995,
            "velocity": 1
          },
          {
            "duration": 0.17026807291671275,
            "durationTicks": 175,
            "midi": 30,
            "name": "F#1",
            "ticks": 236400,
            "time": 280.40127849999993,
            "velocity": 1
          },
          {
            "duration": 0.17026807291671275,
            "durationTicks": 175,
            "midi": 89,
            "name": "F6",
            "ticks": 236400,
            "time": 280.40127849999993,
            "velocity": 1
          },
          {
            "duration": 0.14983590416665038,
            "durationTicks": 154,
            "midi": 30,
            "name": "F#1",
            "ticks": 236520,
            "time": 280.51803375,
            "velocity": 1
          },
          {
            "duration": 0.15761958749999394,
            "durationTicks": 162,
            "midi": 30,
            "name": "F#1",
            "ticks": 236640,
            "time": 280.63478899999996,
            "velocity": 1
          },
          {
            "duration": 0.15761958749999394,
            "durationTicks": 162,
            "midi": 89,
            "name": "F6",
            "ticks": 236640,
            "time": 280.63478899999996,
            "velocity": 1
          },
          {
            "duration": 0.13134965624999495,
            "durationTicks": 135,
            "midi": 89,
            "name": "F6",
            "ticks": 236760,
            "time": 280.75154424999994,
            "velocity": 1
          },
          {
            "duration": 0.14010629999995672,
            "durationTicks": 144,
            "midi": 30,
            "name": "F#1",
            "ticks": 236880,
            "time": 280.8682995,
            "velocity": 1
          },
          {
            "duration": 0.07880979374999697,
            "durationTicks": 81,
            "midi": 101,
            "name": "F7",
            "ticks": 236880,
            "time": 280.8682995,
            "velocity": 1
          },
          {
            "duration": 0.1605384687500191,
            "durationTicks": 165,
            "midi": 30,
            "name": "F#1",
            "ticks": 237000,
            "time": 280.98505474999996,
            "velocity": 1
          },
          {
            "duration": 0.07880979374999697,
            "durationTicks": 81,
            "midi": 89,
            "name": "F6",
            "ticks": 237000,
            "time": 280.98505474999996,
            "velocity": 1
          },
          {
            "duration": 0.08172867500002212,
            "durationTicks": 84,
            "midi": 101,
            "name": "F7",
            "ticks": 237120,
            "time": 281.10180999999994,
            "velocity": 1
          },
          {
            "duration": 0.1877813604166363,
            "durationTicks": 193,
            "midi": 30,
            "name": "F#1",
            "ticks": 237240,
            "time": 281.21856525,
            "velocity": 1
          },
          {
            "duration": 0.09924196249994566,
            "durationTicks": 102,
            "midi": 89,
            "name": "F6",
            "ticks": 237240,
            "time": 281.21856525,
            "velocity": 1
          },
          {
            "duration": 0.1702680729166559,
            "durationTicks": 175,
            "midi": 30,
            "name": "F#1",
            "ticks": 237360,
            "time": 281.33532049999997,
            "velocity": 1
          },
          {
            "duration": 0.09048531874998389,
            "durationTicks": 93,
            "midi": 89,
            "name": "F6",
            "ticks": 237360,
            "time": 281.33532049999997,
            "velocity": 1
          },
          {
            "duration": 0.07880979374999697,
            "durationTicks": 81,
            "midi": 101,
            "name": "F7",
            "ticks": 237360,
            "time": 281.33532049999997,
            "velocity": 1
          },
          {
            "duration": 0.07880979374999697,
            "durationTicks": 81,
            "midi": 101,
            "name": "F7",
            "ticks": 237480,
            "time": 281.45207574999995,
            "velocity": 1
          },
          {
            "duration": 0.1605384687500191,
            "durationTicks": 165,
            "midi": 30,
            "name": "F#1",
            "ticks": 237600,
            "time": 281.56883099999993,
            "velocity": 1
          },
          {
            "duration": 0.08172867500002212,
            "durationTicks": 84,
            "midi": 89,
            "name": "F6",
            "ticks": 237600,
            "time": 281.56883099999993,
            "velocity": 1
          },
          {
            "duration": 0.07880979374999697,
            "durationTicks": 81,
            "midi": 101,
            "name": "F7",
            "ticks": 237600,
            "time": 281.56883099999993,
            "velocity": 1
          },
          {
            "duration": 0.17902471666667452,
            "durationTicks": 184,
            "midi": 30,
            "name": "F#1",
            "ticks": 237720,
            "time": 281.68558625,
            "velocity": 1
          },
          {
            "duration": 0.08853939791663379,
            "durationTicks": 91,
            "midi": 89,
            "name": "F6",
            "ticks": 237720,
            "time": 281.68558625,
            "velocity": 1
          },
          {
            "duration": 0.07880979374999697,
            "durationTicks": 81,
            "midi": 101,
            "name": "F7",
            "ticks": 237840,
            "time": 281.80234149999995,
            "velocity": 1
          },
          {
            "duration": 0.16959042500002397,
            "durationTicks": 174,
            "midi": 30,
            "name": "F#1",
            "ticks": 237960,
            "time": 281.91909674999994,
            "velocity": 1
          },
          {
            "duration": 0.09048531875004073,
            "durationTicks": 93,
            "midi": 89,
            "name": "F6",
            "ticks": 237960,
            "time": 281.91909674999994,
            "velocity": 1
          },
          {
            "duration": 0.16144081250001818,
            "durationTicks": 165,
            "midi": 30,
            "name": "F#1",
            "ticks": 238080,
            "time": 282.035852,
            "velocity": 1
          },
          {
            "duration": 0.07925276250000479,
            "durationTicks": 81,
            "midi": 89,
            "name": "F6",
            "ticks": 238080,
            "time": 282.035852,
            "velocity": 1
          },
          {
            "duration": 0.07925276250000479,
            "durationTicks": 81,
            "midi": 101,
            "name": "F7",
            "ticks": 238080,
            "time": 282.035852,
            "velocity": 1
          },
          {
            "duration": 0.08218805000001339,
            "durationTicks": 84,
            "midi": 101,
            "name": "F7",
            "ticks": 238200,
            "time": 282.1532635,
            "velocity": 1
          },
          {
            "duration": 0.18003096666666352,
            "durationTicks": 184,
            "midi": 30,
            "name": "F#1",
            "ticks": 238320,
            "time": 282.270675,
            "velocity": 1
          },
          {
            "duration": 0.08903705416668117,
            "durationTicks": 91,
            "midi": 89,
            "name": "F6",
            "ticks": 238320,
            "time": 282.270675,
            "velocity": 1
          },
          {
            "duration": 0.09099391249998234,
            "durationTicks": 93,
            "midi": 101,
            "name": "F7",
            "ticks": 238320,
            "time": 282.270675,
            "velocity": 1
          },
          {
            "duration": 0.18003096666666352,
            "durationTicks": 184,
            "midi": 30,
            "name": "F#1",
            "ticks": 238440,
            "time": 282.3880865,
            "velocity": 1
          },
          {
            "duration": 0.08903705416668117,
            "durationTicks": 91,
            "midi": 89,
            "name": "F6",
            "ticks": 238440,
            "time": 282.3880865,
            "velocity": 1
          },
          {
            "duration": 0.07925276250000479,
            "durationTicks": 81,
            "midi": 101,
            "name": "F7",
            "ticks": 238560,
            "time": 282.505498,
            "velocity": 1
          },
          {
            "duration": 0.19959954999995944,
            "durationTicks": 204,
            "midi": 30,
            "name": "F#1",
            "ticks": 238680,
            "time": 282.6229095,
            "velocity": 1
          },
          {
            "duration": 0.09979977500000814,
            "durationTicks": 102,
            "midi": 89,
            "name": "F6",
            "ticks": 238680,
            "time": 282.6229095,
            "velocity": 1
          },
          {
            "duration": 0.22014656249996278,
            "durationTicks": 225,
            "midi": 30,
            "name": "F#1",
            "ticks": 238800,
            "time": 282.740321,
            "velocity": 1
          },
          {
            "duration": 0.22014656249996278,
            "durationTicks": 225,
            "midi": 89,
            "name": "F6",
            "ticks": 238800,
            "time": 282.740321,
            "velocity": 1
          },
          {
            "duration": 0.10077820416665872,
            "durationTicks": 103,
            "midi": 101,
            "name": "F7",
            "ticks": 238800,
            "time": 282.740321,
            "velocity": 1
          },
          {
            "duration": 0.13893694166665682,
            "durationTicks": 142,
            "midi": 30,
            "name": "F#1",
            "ticks": 239040,
            "time": 282.975144,
            "velocity": 1
          },
          {
            "duration": 1.9803406333332987,
            "durationTicks": 2024,
            "midi": 89,
            "name": "F6",
            "ticks": 239040,
            "time": 282.975144,
            "velocity": 1
          },
          {
            "duration": 1.9930602124999837,
            "durationTicks": 2037,
            "midi": 94,
            "name": "A#6",
            "ticks": 239040,
            "time": 282.975144,
            "velocity": 1
          },
          {
            "duration": 0.13893694166665682,
            "durationTicks": 142,
            "midi": 101,
            "name": "F7",
            "ticks": 239040,
            "time": 282.975144,
            "velocity": 1
          },
          {
            "duration": 1.8423821208332924,
            "durationTicks": 1883,
            "midi": 30,
            "name": "F#1",
            "ticks": 239160,
            "time": 283.0925555,
            "velocity": 1
          },
          {
            "duration": 1.8511879833333182,
            "durationTicks": 1892,
            "midi": 42,
            "name": "F#2",
            "ticks": 239160,
            "time": 283.0925555,
            "velocity": 1
          },
          {
            "duration": 1.8423821208332924,
            "durationTicks": 1883,
            "midi": 101,
            "name": "F7",
            "ticks": 239160,
            "time": 283.0925555,
            "velocity": 1
          },
          {
            "duration": 1.7924822333333736,
            "durationTicks": 1832,
            "midi": 54,
            "name": "F#3",
            "ticks": 239280,
            "time": 283.20996699999995,
            "velocity": 1
          }
        ],
        "endOfTrackTicks": 242522
      },
      {
        "channel": 0,
        "controlChanges": {},
        "pitchBends": [],
        "instrument": {
          "family": "piano",
          "number": 0,
          "name": "acoustic grand piano"
        },
        "name": "transcribed (4)",
        "notes": [],
        "endOfTrackTicks": 223717
      },
      {
        "channel": 1,
        "controlChanges": {},
        "pitchBends": [],
        "instrument": {
          "family": "strings",
          "number": 42,
          "name": "cello"
        },
        "name": "",
        "notes": [
          {
            "duration": 1.608773612500002,
            "durationTicks": 1338,
            "midi": 65,
            "name": "F4",
            "ticks": 45960,
            "time": 55.64722175,
            "velocity": 1
          },
          {
            "duration": 1.1108155770833292,
            "durationTicks": 841,
            "midi": 60,
            "name": "C4",
            "ticks": 80640,
            "time": 99.01583600000001,
            "velocity": 1
          },
          {
            "duration": 1.4815219999999982,
            "durationTicks": 1120,
            "midi": 56,
            "name": "G#3",
            "ticks": 88320,
            "time": 108.922528,
            "velocity": 1
          },
          {
            "duration": 0.6543319000000025,
            "durationTicks": 524,
            "midi": 60,
            "name": "C4",
            "ticks": 93120,
            "time": 115.14046799999998,
            "velocity": 1
          },
          {
            "duration": 0.5444441000000069,
            "durationTicks": 436,
            "midi": 61,
            "name": "C#4",
            "ticks": 93600,
            "time": 115.73985599999999,
            "velocity": 1
          },
          {
            "duration": 0.2702342937499935,
            "durationTicks": 211,
            "midi": 70,
            "name": "A#4",
            "ticks": 94080,
            "time": 116.339244,
            "velocity": 1
          },
          {
            "duration": 0.3115116041666681,
            "durationTicks": 239,
            "midi": 68,
            "name": "G#4",
            "ticks": 96240,
            "time": 119.111063,
            "velocity": 1
          },
          {
            "duration": 0.32063537499999484,
            "durationTicks": 246,
            "midi": 70,
            "name": "A#4",
            "ticks": 96480,
            "time": 119.423878,
            "velocity": 1
          },
          {
            "duration": 0.6595182916666715,
            "durationTicks": 506,
            "midi": 68,
            "name": "G#4",
            "ticks": 96720,
            "time": 119.736693,
            "velocity": 1
          },
          {
            "duration": 0.27892670833333,
            "durationTicks": 214,
            "midi": 70,
            "name": "A#4",
            "ticks": 97200,
            "time": 120.362323,
            "velocity": 1
          },
          {
            "duration": 0.26122680208331417,
            "durationTicks": 205,
            "midi": 68,
            "name": "G#4",
            "ticks": 103920,
            "time": 129.0547745,
            "velocity": 1
          },
          {
            "duration": 0.29180945208332787,
            "durationTicks": 229,
            "midi": 70,
            "name": "A#4",
            "ticks": 104160,
            "time": 129.360601,
            "velocity": 1
          },
          {
            "duration": 0.607830168750013,
            "durationTicks": 477,
            "midi": 68,
            "name": "G#4",
            "ticks": 104400,
            "time": 129.6664275,
            "velocity": 1
          },
          {
            "duration": 0.30327794583334367,
            "durationTicks": 238,
            "midi": 70,
            "name": "A#4",
            "ticks": 104880,
            "time": 130.2780805,
            "velocity": 1
          },
          {
            "duration": 0.2739695729166556,
            "durationTicks": 215,
            "midi": 68,
            "name": "G#4",
            "ticks": 105120,
            "time": 130.583907,
            "velocity": 1
          },
          {
            "duration": 0.30327794583331524,
            "durationTicks": 238,
            "midi": 66,
            "name": "F#4",
            "ticks": 105360,
            "time": 130.8897335,
            "velocity": 1
          },
          {
            "duration": 0.2794586875000107,
            "durationTicks": 222,
            "midi": 65,
            "name": "F4",
            "ticks": 105600,
            "time": 131.19556,
            "velocity": 1
          },
          {
            "duration": 0.29959985416667223,
            "durationTicks": 238,
            "midi": 63,
            "name": "D#4",
            "ticks": 105840,
            "time": 131.4976775,
            "velocity": 1
          },
          {
            "duration": 0.29959985416667223,
            "durationTicks": 238,
            "midi": 65,
            "name": "F4",
            "ticks": 106080,
            "time": 131.799795,
            "velocity": 1
          },
          {
            "duration": 0.5715056041666742,
            "durationTicks": 454,
            "midi": 70,
            "name": "A#4",
            "ticks": 106320,
            "time": 132.1019125,
            "velocity": 1
          },
          {
            "duration": 0.5400350312499995,
            "durationTicks": 429,
            "midi": 65,
            "name": "F4",
            "ticks": 106800,
            "time": 132.70614750000001,
            "velocity": 1
          },
          {
            "duration": 0.6652830562500185,
            "durationTicks": 523,
            "midi": 65,
            "name": "F4",
            "ticks": 107160,
            "time": 133.15932375,
            "velocity": 1
          },
          {
            "duration": 0.3201121124999986,
            "durationTicks": 246,
            "midi": 63,
            "name": "D#4",
            "ticks": 107760,
            "time": 133.92480450000002,
            "velocity": 1
          },
          {
            "duration": 0.36175271250002083,
            "durationTicks": 278,
            "midi": 65,
            "name": "F4",
            "ticks": 108000,
            "time": 134.237109,
            "velocity": 1
          },
          {
            "duration": 0.4801681687499979,
            "durationTicks": 369,
            "midi": 69,
            "name": "A4",
            "ticks": 108240,
            "time": 134.5494135,
            "velocity": 1
          },
          {
            "duration": 0.12734490833332757,
            "durationTicks": 103,
            "midi": 42,
            "name": "F#2",
            "ticks": 141360,
            "time": 176.14325,
            "velocity": 1
          },
          {
            "duration": 0.12734490833332757,
            "durationTicks": 103,
            "midi": 49,
            "name": "C#3",
            "ticks": 141360,
            "time": 176.14325,
            "velocity": 1
          },
          {
            "duration": 0.10632681666666599,
            "durationTicks": 86,
            "midi": 42,
            "name": "F#2",
            "ticks": 141600,
            "time": 176.439976,
            "velocity": 1
          },
          {
            "duration": 0.10632681666666599,
            "durationTicks": 86,
            "midi": 49,
            "name": "C#3",
            "ticks": 141600,
            "time": 176.439976,
            "velocity": 1
          },
          {
            "duration": 0.11621768333333193,
            "durationTicks": 94,
            "midi": 42,
            "name": "F#2",
            "ticks": 141840,
            "time": 176.73670199999998,
            "velocity": 1
          },
          {
            "duration": 0.11621768333333193,
            "durationTicks": 94,
            "midi": 49,
            "name": "C#3",
            "ticks": 141840,
            "time": 176.73670199999998,
            "velocity": 1
          },
          {
            "duration": 0.12916584375000184,
            "durationTicks": 111,
            "midi": 42,
            "name": "F#2",
            "ticks": 142080,
            "time": 177.033428,
            "velocity": 1
          },
          {
            "duration": 0.12916584375000184,
            "durationTicks": 111,
            "midi": 49,
            "name": "C#3",
            "ticks": 142080,
            "time": 177.033428,
            "velocity": 1
          },
          {
            "duration": 0.12102024999998662,
            "durationTicks": 104,
            "midi": 42,
            "name": "F#2",
            "ticks": 142320,
            "time": 177.3127055,
            "velocity": 1
          },
          {
            "duration": 0.12102024999998662,
            "durationTicks": 104,
            "midi": 49,
            "name": "C#3",
            "ticks": 142320,
            "time": 177.3127055,
            "velocity": 1
          },
          {
            "duration": 0.11287465624999982,
            "durationTicks": 97,
            "midi": 42,
            "name": "F#2",
            "ticks": 142560,
            "time": 177.591983,
            "velocity": 1
          },
          {
            "duration": 0.11287465624999982,
            "durationTicks": 97,
            "midi": 49,
            "name": "C#3",
            "ticks": 142560,
            "time": 177.591983,
            "velocity": 1
          },
          {
            "duration": 0.11287465624999982,
            "durationTicks": 97,
            "midi": 42,
            "name": "F#2",
            "ticks": 142800,
            "time": 177.87126049999998,
            "velocity": 1
          },
          {
            "duration": 0.11287465624999982,
            "durationTicks": 97,
            "midi": 49,
            "name": "C#3",
            "ticks": 142800,
            "time": 177.87126049999998,
            "velocity": 1
          },
          {
            "duration": 0.08145593750001012,
            "durationTicks": 70,
            "midi": 42,
            "name": "F#2",
            "ticks": 143040,
            "time": 178.15053799999998,
            "velocity": 1
          },
          {
            "duration": 0.08145593750001012,
            "durationTicks": 70,
            "midi": 49,
            "name": "C#3",
            "ticks": 143040,
            "time": 178.15053799999998,
            "velocity": 1
          },
          {
            "duration": 0.4949783750000165,
            "durationTicks": 430,
            "midi": 63,
            "name": "D#4",
            "ticks": 150720,
            "time": 186.92396799999997,
            "velocity": 1
          },
          {
            "duration": 0.5064894999999865,
            "durationTicks": 440,
            "midi": 70,
            "name": "A#4",
            "ticks": 151200,
            "time": 187.47650199999998,
            "velocity": 1
          },
          {
            "duration": 0.14983457499999986,
            "durationTicks": 132,
            "midi": 41,
            "name": "F2",
            "ticks": 151680,
            "time": 188.029036,
            "velocity": 1
          },
          {
            "duration": 0.1384834708333358,
            "durationTicks": 122,
            "midi": 41,
            "name": "F2",
            "ticks": 151920,
            "time": 188.30146249999999,
            "velocity": 1
          },
          {
            "duration": 0.07764472916667842,
            "durationTicks": 70,
            "midi": 46,
            "name": "A#2",
            "ticks": 161160,
            "time": 198.74587074999997,
            "velocity": 1
          },
          {
            "duration": 0.0885386125000025,
            "durationTicks": 78,
            "midi": 46,
            "name": "A#2",
            "ticks": 161280,
            "time": 198.87897599999997,
            "velocity": 1
          },
          {
            "duration": 0.090808833333341,
            "durationTicks": 80,
            "midi": 53,
            "name": "F3",
            "ticks": 161280,
            "time": 198.87897599999997,
            "velocity": 1
          },
          {
            "duration": 0.07945772916667693,
            "durationTicks": 70,
            "midi": 46,
            "name": "A#2",
            "ticks": 161520,
            "time": 199.15140249999996,
            "velocity": 1
          },
          {
            "duration": 0.090808833333341,
            "durationTicks": 80,
            "midi": 46,
            "name": "A#2",
            "ticks": 161520,
            "time": 199.15140249999996,
            "velocity": 1
          },
          {
            "duration": 0.09988971666666657,
            "durationTicks": 88,
            "midi": 46,
            "name": "A#2",
            "ticks": 161760,
            "time": 199.42382899999996,
            "velocity": 1
          },
          {
            "duration": 0.1294025874999818,
            "durationTicks": 114,
            "midi": 46,
            "name": "A#2",
            "ticks": 162000,
            "time": 199.69625549999998,
            "velocity": 1
          },
          {
            "duration": 0.16118567916666393,
            "durationTicks": 142,
            "midi": 53,
            "name": "F3",
            "ticks": 162240,
            "time": 199.96868199999997,
            "velocity": 1
          },
          {
            "duration": 0.14983457499999986,
            "durationTicks": 132,
            "midi": 53,
            "name": "F3",
            "ticks": 162480,
            "time": 200.24110849999997,
            "velocity": 1
          },
          {
            "duration": 0.12032170416668464,
            "durationTicks": 106,
            "midi": 53,
            "name": "F3",
            "ticks": 162720,
            "time": 200.51353499999996,
            "velocity": 1
          },
          {
            "duration": 0.06128947916667471,
            "durationTicks": 55,
            "midi": 61,
            "name": "C#4",
            "ticks": 168480,
            "time": 206.96328599999995,
            "velocity": 1
          },
          {
            "duration": 0.10029187499998216,
            "durationTicks": 90,
            "midi": 53,
            "name": "F3",
            "ticks": 168720,
            "time": 207.23073099999996,
            "velocity": 1
          },
          {
            "duration": 0.10029187499998216,
            "durationTicks": 90,
            "midi": 61,
            "name": "C#4",
            "ticks": 168720,
            "time": 207.23073099999996,
            "velocity": 1
          },
          {
            "duration": 0.08023349999999141,
            "durationTicks": 72,
            "midi": 53,
            "name": "F3",
            "ticks": 168840,
            "time": 207.36445349999997,
            "velocity": 1
          },
          {
            "duration": 0.08023349999999141,
            "durationTicks": 72,
            "midi": 61,
            "name": "C#4",
            "ticks": 168840,
            "time": 207.36445349999997,
            "velocity": 1
          },
          {
            "duration": 0.06797560416669057,
            "durationTicks": 61,
            "midi": 53,
            "name": "F3",
            "ticks": 168960,
            "time": 207.49817599999994,
            "velocity": 1
          },
          {
            "duration": 0.06797560416669057,
            "durationTicks": 61,
            "midi": 61,
            "name": "C#4",
            "ticks": 168960,
            "time": 207.49817599999994,
            "velocity": 1
          },
          {
            "duration": 0.07020431250001025,
            "durationTicks": 63,
            "midi": 53,
            "name": "F3",
            "ticks": 169200,
            "time": 207.76562099999995,
            "velocity": 1
          },
          {
            "duration": 0.07020431250001025,
            "durationTicks": 63,
            "midi": 61,
            "name": "C#4",
            "ticks": 169200,
            "time": 207.76562099999995,
            "velocity": 1
          },
          {
            "duration": 0.07911914583331736,
            "durationTicks": 71,
            "midi": 53,
            "name": "F3",
            "ticks": 169440,
            "time": 208.03306599999996,
            "velocity": 1
          },
          {
            "duration": 0.07911914583331736,
            "durationTicks": 71,
            "midi": 61,
            "name": "C#4",
            "ticks": 169440,
            "time": 208.03306599999996,
            "velocity": 1
          },
          {
            "duration": 0.07020431250001025,
            "durationTicks": 63,
            "midi": 53,
            "name": "F3",
            "ticks": 169680,
            "time": 208.30051099999994,
            "velocity": 1
          },
          {
            "duration": 0.07020431250001025,
            "durationTicks": 63,
            "midi": 61,
            "name": "C#4",
            "ticks": 169680,
            "time": 208.30051099999994,
            "velocity": 1
          },
          {
            "duration": 0.090262687500001,
            "durationTicks": 81,
            "midi": 53,
            "name": "F3",
            "ticks": 169920,
            "time": 208.56795599999995,
            "velocity": 1
          },
          {
            "duration": 0.090262687500001,
            "durationTicks": 81,
            "midi": 61,
            "name": "C#4",
            "ticks": 169920,
            "time": 208.56795599999995,
            "velocity": 1
          },
          {
            "duration": 0.09917752083333653,
            "durationTicks": 89,
            "midi": 53,
            "name": "F3",
            "ticks": 170160,
            "time": 208.83540099999996,
            "velocity": 1
          },
          {
            "duration": 0.09917752083333653,
            "durationTicks": 89,
            "midi": 61,
            "name": "C#4",
            "ticks": 170160,
            "time": 208.83540099999996,
            "velocity": 1
          },
          {
            "duration": 0.07083280000000514,
            "durationTicks": 64,
            "midi": 53,
            "name": "F3",
            "ticks": 175920,
            "time": 215.26583499999995,
            "velocity": 1
          },
          {
            "duration": 0.07083280000000514,
            "durationTicks": 64,
            "midi": 61,
            "name": "C#4",
            "ticks": 175920,
            "time": 215.26583499999995,
            "velocity": 1
          },
          {
            "duration": 0.06197869999999739,
            "durationTicks": 56,
            "midi": 53,
            "name": "F3",
            "ticks": 176160,
            "time": 215.53145799999996,
            "velocity": 1
          },
          {
            "duration": 0.06197869999999739,
            "durationTicks": 56,
            "midi": 61,
            "name": "C#4",
            "ticks": 176160,
            "time": 215.53145799999996,
            "velocity": 1
          },
          {
            "duration": 0.05976517499999545,
            "durationTicks": 54,
            "midi": 53,
            "name": "F3",
            "ticks": 176400,
            "time": 215.79708099999996,
            "velocity": 1
          },
          {
            "duration": 0.05976517499999545,
            "durationTicks": 54,
            "midi": 61,
            "name": "C#4",
            "ticks": 176400,
            "time": 215.79708099999996,
            "velocity": 1
          },
          {
            "duration": 0.06197869999999739,
            "durationTicks": 56,
            "midi": 53,
            "name": "F3",
            "ticks": 176520,
            "time": 215.92989249999997,
            "velocity": 1
          },
          {
            "duration": 0.06197869999999739,
            "durationTicks": 56,
            "midi": 61,
            "name": "C#4",
            "ticks": 176520,
            "time": 215.92989249999997,
            "velocity": 1
          },
          {
            "duration": 0.06861927499997478,
            "durationTicks": 62,
            "midi": 53,
            "name": "F3",
            "ticks": 176640,
            "time": 216.06270399999997,
            "velocity": 1
          },
          {
            "duration": 0.06861927499997478,
            "durationTicks": 62,
            "midi": 61,
            "name": "C#4",
            "ticks": 176640,
            "time": 216.06270399999997,
            "velocity": 1
          },
          {
            "duration": 0.07968690000001288,
            "durationTicks": 72,
            "midi": 53,
            "name": "F3",
            "ticks": 176880,
            "time": 216.32832699999994,
            "velocity": 1
          },
          {
            "duration": 0.07968690000001288,
            "durationTicks": 72,
            "midi": 61,
            "name": "C#4",
            "ticks": 176880,
            "time": 216.32832699999994,
            "velocity": 1
          },
          {
            "duration": 0.23020660000000248,
            "durationTicks": 208,
            "midi": 73,
            "name": "C#5",
            "ticks": 177120,
            "time": 216.59394999999995,
            "velocity": 1
          },
          {
            "duration": 0.21139163750001444,
            "durationTicks": 191,
            "midi": 73,
            "name": "C#5",
            "ticks": 177360,
            "time": 216.85957299999995,
            "velocity": 1
          },
          {
            "duration": 0.05865841249999448,
            "durationTicks": 53,
            "midi": 72,
            "name": "C5",
            "ticks": 177600,
            "time": 217.12519599999996,
            "velocity": 1
          },
          {
            "duration": 0.22640409375000559,
            "durationTicks": 207,
            "midi": 61,
            "name": "C#4",
            "ticks": 185280,
            "time": 225.60848599999994,
            "velocity": 1
          },
          {
            "duration": 0.19577938541667095,
            "durationTicks": 179,
            "midi": 61,
            "name": "C#4",
            "ticks": 185520,
            "time": 225.87098349999994,
            "velocity": 1
          },
          {
            "duration": 0.21546669791666773,
            "durationTicks": 197,
            "midi": 56,
            "name": "G#3",
            "ticks": 185760,
            "time": 226.13348099999993,
            "velocity": 1
          },
          {
            "duration": 0.20452930208332987,
            "durationTicks": 187,
            "midi": 53,
            "name": "F3",
            "ticks": 186000,
            "time": 226.39597849999993,
            "velocity": 1
          },
          {
            "duration": 0.7188995625000132,
            "durationTicks": 642,
            "midi": 70,
            "name": "A#4",
            "ticks": 186240,
            "time": 226.65847599999992,
            "velocity": 1
          },
          {
            "duration": 1.4054632750000167,
            "durationTicks": 1257,
            "midi": 77,
            "name": "F5",
            "ticks": 186960,
            "time": 227.46471849999992,
            "velocity": 1
          },
          {
            "duration": 0.19167477499999563,
            "durationTicks": 177,
            "midi": 51,
            "name": "D#3",
            "ticks": 188160,
            "time": 228.80845599999992,
            "velocity": 1
          },
          {
            "duration": 0.2111671250000029,
            "durationTicks": 195,
            "midi": 51,
            "name": "D#3",
            "ticks": 188400,
            "time": 229.0683539999999,
            "velocity": 1
          },
          {
            "duration": 0.22632784166665942,
            "durationTicks": 209,
            "midi": 51,
            "name": "D#3",
            "ticks": 188640,
            "time": 229.32825199999994,
            "velocity": 1
          },
          {
            "duration": 0.20837407499999472,
            "durationTicks": 189,
            "midi": 58,
            "name": "A#3",
            "ticks": 195600,
            "time": 236.97348599999992,
            "velocity": 1
          },
          {
            "duration": 0.21829665000001341,
            "durationTicks": 198,
            "midi": 51,
            "name": "D#3",
            "ticks": 195720,
            "time": 237.1057869999999,
            "velocity": 1
          },
          {
            "duration": 0.22050166666667792,
            "durationTicks": 200,
            "midi": 54,
            "name": "F#3",
            "ticks": 196080,
            "time": 237.50268999999992,
            "velocity": 1
          },
          {
            "duration": 0.11132535625000628,
            "durationTicks": 101,
            "midi": 46,
            "name": "A#2",
            "ticks": 198240,
            "time": 239.8839749999999,
            "velocity": 1
          },
          {
            "duration": 0.10030304374998877,
            "durationTicks": 91,
            "midi": 46,
            "name": "A#2",
            "ticks": 198480,
            "time": 240.14851049999993,
            "velocity": 1
          },
          {
            "duration": 0.10030304374998877,
            "durationTicks": 91,
            "midi": 53,
            "name": "F3",
            "ticks": 198720,
            "time": 240.41304599999992,
            "velocity": 1
          },
          {
            "duration": 0.08156511250001586,
            "durationTicks": 74,
            "midi": 46,
            "name": "A#2",
            "ticks": 198960,
            "time": 240.67758149999992,
            "velocity": 1
          },
          {
            "duration": 0.09148519375000319,
            "durationTicks": 83,
            "midi": 53,
            "name": "F3",
            "ticks": 199200,
            "time": 240.9421169999999,
            "velocity": 1
          },
          {
            "duration": 0.10030304374998877,
            "durationTicks": 91,
            "midi": 53,
            "name": "F3",
            "ticks": 199440,
            "time": 241.20665249999993,
            "velocity": 1
          },
          {
            "duration": 0.10912089375000278,
            "durationTicks": 99,
            "midi": 46,
            "name": "A#2",
            "ticks": 199680,
            "time": 241.47118799999993,
            "velocity": 1
          },
          {
            "duration": 0.03857809375000443,
            "durationTicks": 35,
            "midi": 46,
            "name": "A#2",
            "ticks": 199920,
            "time": 241.73572349999992,
            "velocity": 1
          },
          {
            "duration": 0.08904532500000073,
            "durationTicks": 81,
            "midi": 46,
            "name": "A#2",
            "ticks": 207360,
            "time": 249.99888399999992,
            "velocity": 1
          },
          {
            "duration": 0.08904532500000073,
            "durationTicks": 81,
            "midi": 58,
            "name": "A#3",
            "ticks": 207360,
            "time": 249.99888399999992,
            "velocity": 1
          },
          {
            "duration": 0.07915140000000065,
            "durationTicks": 72,
            "midi": 46,
            "name": "A#2",
            "ticks": 207600,
            "time": 250.2627219999999,
            "velocity": 1
          },
          {
            "duration": 0.07915140000000065,
            "durationTicks": 72,
            "midi": 58,
            "name": "A#3",
            "ticks": 207600,
            "time": 250.2627219999999,
            "velocity": 1
          },
          {
            "duration": 0.10663452499997561,
            "durationTicks": 97,
            "midi": 46,
            "name": "A#2",
            "ticks": 207840,
            "time": 250.52655999999993,
            "velocity": 1
          },
          {
            "duration": 0.10663452499997561,
            "durationTicks": 97,
            "midi": 58,
            "name": "A#3",
            "ticks": 207840,
            "time": 250.52655999999993,
            "velocity": 1
          },
          {
            "duration": 0.08684667500000387,
            "durationTicks": 79,
            "midi": 46,
            "name": "A#2",
            "ticks": 208080,
            "time": 250.79039799999993,
            "velocity": 1
          },
          {
            "duration": 0.08684667500000387,
            "durationTicks": 79,
            "midi": 58,
            "name": "A#3",
            "ticks": 208080,
            "time": 250.79039799999993,
            "velocity": 1
          },
          {
            "duration": 0.10663452500000403,
            "durationTicks": 97,
            "midi": 53,
            "name": "F3",
            "ticks": 208320,
            "time": 251.05423599999992,
            "velocity": 1
          },
          {
            "duration": 0.10663452500000403,
            "durationTicks": 97,
            "midi": 56,
            "name": "G#3",
            "ticks": 208320,
            "time": 251.05423599999992,
            "velocity": 1
          },
          {
            "duration": 0.34731562500002156,
            "durationTicks": 340,
            "midi": 42,
            "name": "F#2",
            "ticks": 221640,
            "time": 266.194302,
            "velocity": 1
          }
        ]
      },
      {
        "channel": 0,
        "controlChanges": {},
        "pitchBends": [],
        "instrument": {
          "family": "piano",
          "number": 0,
          "name": "acoustic grand piano"
        },
        "name": "transcribed (4)",
        "notes": [],
        "endOfTrackTicks": 223717
      },
      {
        "channel": 2,
        "controlChanges": {},
        "pitchBends": [],
        "instrument": {
          "family": "strings",
          "number": 40,
          "name": "violin"
        },
        "name": "",
        "notes": [
          {
            "duration": 0.30828800000000456,
            "durationTicks": 240,
            "midi": 75,
            "name": "D#5",
            "ticks": 78720,
            "time": 96.54953200000001,
            "velocity": 1
          },
          {
            "duration": 0.24149226666666834,
            "durationTicks": 188,
            "midi": 77,
            "name": "F5",
            "ticks": 78960,
            "time": 96.85782000000002,
            "velocity": 1
          },
          {
            "duration": 0.2928736000000072,
            "durationTicks": 228,
            "midi": 75,
            "name": "D#5",
            "ticks": 79200,
            "time": 97.16610800000001,
            "velocity": 1
          },
          {
            "duration": 0.3211333333333357,
            "durationTicks": 250,
            "midi": 70,
            "name": "A#4",
            "ticks": 79440,
            "time": 97.47439600000001,
            "velocity": 1
          },
          {
            "duration": 0.34040133333333245,
            "durationTicks": 265,
            "midi": 75,
            "name": "D#5",
            "ticks": 79680,
            "time": 97.78268400000002,
            "velocity": 1
          },
          {
            "duration": 0.3117151916666643,
            "durationTicks": 236,
            "midi": 75,
            "name": "D#5",
            "ticks": 81600,
            "time": 100.28383000000001,
            "velocity": 1
          },
          {
            "duration": 0.28001534166666886,
            "durationTicks": 212,
            "midi": 77,
            "name": "F5",
            "ticks": 81840,
            "time": 100.6008285,
            "velocity": 1
          },
          {
            "duration": 0.3328484250000088,
            "durationTicks": 252,
            "midi": 80,
            "name": "G#5",
            "ticks": 82080,
            "time": 100.917827,
            "velocity": 1
          },
          {
            "duration": 0.25888210833332437,
            "durationTicks": 196,
            "midi": 77,
            "name": "F5",
            "ticks": 82320,
            "time": 101.23482550000001,
            "velocity": 1
          },
          {
            "duration": 0.2698097499999932,
            "durationTicks": 212,
            "midi": 75,
            "name": "D#5",
            "ticks": 82560,
            "time": 101.55182400000001,
            "velocity": 1
          },
          {
            "duration": 0.3499890625000006,
            "durationTicks": 275,
            "midi": 77,
            "name": "F5",
            "ticks": 82800,
            "time": 101.85726900000002,
            "velocity": 1
          },
          {
            "duration": 0.3499890625000006,
            "durationTicks": 275,
            "midi": 75,
            "name": "D#5",
            "ticks": 83040,
            "time": 102.16271400000001,
            "velocity": 1
          },
          {
            "duration": 0.29144543750000196,
            "durationTicks": 229,
            "midi": 70,
            "name": "A#4",
            "ticks": 83280,
            "time": 102.46815900000001,
            "velocity": 1
          },
          {
            "duration": 1.5094073750000092,
            "durationTicks": 1186,
            "midi": 73,
            "name": "C#5",
            "ticks": 83520,
            "time": 102.773604,
            "velocity": 1
          },
          {
            "duration": 0.6108899999999977,
            "durationTicks": 480,
            "midi": 85,
            "name": "C#6",
            "ticks": 84960,
            "time": 104.60627400000001,
            "velocity": 1
          },
          {
            "duration": 0.28635468749999404,
            "durationTicks": 225,
            "midi": 84,
            "name": "C6",
            "ticks": 85440,
            "time": 105.21716400000001,
            "velocity": 1
          },
          {
            "duration": 0.29526349999999013,
            "durationTicks": 232,
            "midi": 80,
            "name": "G#5",
            "ticks": 85680,
            "time": 105.52260900000002,
            "velocity": 1
          },
          {
            "duration": 0.6083446250000009,
            "durationTicks": 478,
            "midi": 77,
            "name": "F5",
            "ticks": 85920,
            "time": 105.82805400000001,
            "velocity": 1
          },
          {
            "duration": 0.30009973333334017,
            "durationTicks": 232,
            "midi": 75,
            "name": "D#5",
            "ticks": 86400,
            "time": 106.438944,
            "velocity": 1
          },
          {
            "duration": 0.32079626666667593,
            "durationTicks": 248,
            "midi": 77,
            "name": "F5",
            "ticks": 86640,
            "time": 106.749392,
            "velocity": 1
          },
          {
            "duration": 0.28587086666667005,
            "durationTicks": 221,
            "midi": 75,
            "name": "D#5",
            "ticks": 86880,
            "time": 107.05984000000001,
            "velocity": 1
          },
          {
            "duration": 0.3802988000000056,
            "durationTicks": 294,
            "midi": 70,
            "name": "A#4",
            "ticks": 87120,
            "time": 107.370288,
            "velocity": 1
          },
          {
            "duration": 0.6661696666666614,
            "durationTicks": 515,
            "midi": 75,
            "name": "D#5",
            "ticks": 87360,
            "time": 107.68073600000001,
            "velocity": 1
          },
          {
            "duration": 0.30688670000000684,
            "durationTicks": 232,
            "midi": 77,
            "name": "F5",
            "ticks": 89520,
            "time": 110.509873,
            "velocity": 1
          },
          {
            "duration": 0.30688669999999263,
            "durationTicks": 232,
            "midi": 80,
            "name": "G#5",
            "ticks": 89760,
            "time": 110.827342,
            "velocity": 1
          },
          {
            "duration": 0.29762718749999806,
            "durationTicks": 225,
            "midi": 77,
            "name": "F5",
            "ticks": 90000,
            "time": 111.144811,
            "velocity": 1
          },
          {
            "duration": 1.0757032270833378,
            "durationTicks": 833,
            "midi": 75,
            "name": "D#5",
            "ticks": 90240,
            "time": 111.46227999999999,
            "velocity": 1
          },
          {
            "duration": 2.425994750000001,
            "durationTicks": 1910,
            "midi": 70,
            "name": "A#4",
            "ticks": 91200,
            "time": 112.70198599999999,
            "velocity": 1
          },
          {
            "duration": 0.2702342937499935,
            "durationTicks": 211,
            "midi": 70,
            "name": "A#4",
            "ticks": 94080,
            "time": 116.339244,
            "velocity": 1
          },
          {
            "duration": 0.07764472916667842,
            "durationTicks": 70,
            "midi": 61,
            "name": "C#4",
            "ticks": 161160,
            "time": 198.74587074999997,
            "velocity": 1
          },
          {
            "duration": 0.090808833333341,
            "durationTicks": 80,
            "midi": 61,
            "name": "C#4",
            "ticks": 161280,
            "time": 198.87897599999997,
            "velocity": 1
          },
          {
            "duration": 0.0885386125000025,
            "durationTicks": 78,
            "midi": 65,
            "name": "F4",
            "ticks": 161280,
            "time": 198.87897599999997,
            "velocity": 1
          },
          {
            "duration": 0.07945772916667693,
            "durationTicks": 70,
            "midi": 65,
            "name": "F4",
            "ticks": 161520,
            "time": 199.15140249999996,
            "velocity": 1
          },
          {
            "duration": 0.090808833333341,
            "durationTicks": 80,
            "midi": 65,
            "name": "F4",
            "ticks": 161520,
            "time": 199.15140249999996,
            "velocity": 1
          },
          {
            "duration": 0.09988971666666657,
            "durationTicks": 88,
            "midi": 65,
            "name": "F4",
            "ticks": 161760,
            "time": 199.42382899999996,
            "velocity": 1
          },
          {
            "duration": 0.1294025874999818,
            "durationTicks": 114,
            "midi": 65,
            "name": "F4",
            "ticks": 162000,
            "time": 199.69625549999998,
            "velocity": 1
          },
          {
            "duration": 0.16118567916666393,
            "durationTicks": 142,
            "midi": 65,
            "name": "F4",
            "ticks": 162240,
            "time": 199.96868199999997,
            "velocity": 1
          },
          {
            "duration": 0.14983457499999986,
            "durationTicks": 132,
            "midi": 65,
            "name": "F4",
            "ticks": 162480,
            "time": 200.24110849999997,
            "velocity": 1
          },
          {
            "duration": 0.12032170416668464,
            "durationTicks": 106,
            "midi": 65,
            "name": "F4",
            "ticks": 162720,
            "time": 200.51353499999996,
            "velocity": 1
          },
          {
            "duration": 0.261228806250017,
            "durationTicks": 237,
            "midi": 75,
            "name": "D#5",
            "ticks": 198240,
            "time": 239.8839749999999,
            "velocity": 1
          },
          {
            "duration": 0.2502064937499995,
            "durationTicks": 227,
            "midi": 75,
            "name": "D#5",
            "ticks": 198480,
            "time": 240.14851049999993,
            "velocity": 1
          },
          {
            "duration": 0.25902434374998506,
            "durationTicks": 235,
            "midi": 75,
            "name": "D#5",
            "ticks": 198720,
            "time": 240.41304599999992,
            "velocity": 1
          },
          {
            "duration": 0.2413886437500139,
            "durationTicks": 219,
            "midi": 73,
            "name": "C#5",
            "ticks": 198960,
            "time": 240.67758149999992,
            "velocity": 1
          },
          {
            "duration": 0.261228806250017,
            "durationTicks": 237,
            "midi": 75,
            "name": "D#5",
            "ticks": 199200,
            "time": 240.9421169999999,
            "velocity": 1
          },
          {
            "duration": 0.22926409999999464,
            "durationTicks": 208,
            "midi": 77,
            "name": "F5",
            "ticks": 199440,
            "time": 241.20665249999993,
            "velocity": 1
          },
          {
            "duration": 0.2887845875000039,
            "durationTicks": 262,
            "midi": 65,
            "name": "F4",
            "ticks": 199680,
            "time": 241.47118799999993,
            "velocity": 1
          },
          {
            "duration": 0.03857809375000443,
            "durationTicks": 35,
            "midi": 65,
            "name": "F4",
            "ticks": 199920,
            "time": 241.73572349999992,
            "velocity": 1
          },
          {
            "duration": 0.34731562500002156,
            "durationTicks": 340,
            "midi": 65,
            "name": "F4",
            "ticks": 221640,
            "time": 266.194302,
            "velocity": 1
          }
        ]
      },
      {
        "channel": 0,
        "controlChanges": {},
        "pitchBends": [],
        "instrument": {
          "family": "piano",
          "number": 0,
          "name": "acoustic grand piano"
        },
        "name": "transcribed (4)",
        "notes": [],
        "endOfTrackTicks": 209414
      },
      {
        "channel": 3,
        "controlChanges": {},
        "pitchBends": [],
        "instrument": {
          "family": "reed",
          "number": 71,
          "name": "clarinet"
        },
        "name": "",
        "notes": [
          {
            "duration": 0.299827747916666,
            "durationTicks": 227,
            "midi": 75,
            "name": "D#5",
            "ticks": 81120,
            "time": 99.649833,
            "velocity": 1
          },
          {
            "duration": 0.1981240624999998,
            "durationTicks": 150,
            "midi": 77,
            "name": "F5",
            "ticks": 81360,
            "time": 99.96683150000001,
            "velocity": 1
          },
          {
            "duration": 0.6296468500000003,
            "durationTicks": 476,
            "midi": 75,
            "name": "D#5",
            "ticks": 88320,
            "time": 108.922528,
            "velocity": 1
          },
          {
            "duration": 0.3280512999999985,
            "durationTicks": 248,
            "midi": 75,
            "name": "D#5",
            "ticks": 88800,
            "time": 109.557466,
            "velocity": 1
          },
          {
            "duration": 0.31746900000000267,
            "durationTicks": 240,
            "midi": 77,
            "name": "F5",
            "ticks": 89040,
            "time": 109.874935,
            "velocity": 1
          },
          {
            "duration": 0.18651303750000636,
            "durationTicks": 141,
            "midi": 75,
            "name": "D#5",
            "ticks": 89280,
            "time": 110.192404,
            "velocity": 1
          },
          {
            "duration": 1.7845420833333208,
            "durationTicks": 1400,
            "midi": 56,
            "name": "G#3",
            "ticks": 138240,
            "time": 172.212248,
            "velocity": 1
          },
          {
            "duration": 0.22640409375000559,
            "durationTicks": 207,
            "midi": 73,
            "name": "C#5",
            "ticks": 185280,
            "time": 225.60848599999994,
            "velocity": 1
          },
          {
            "duration": 0.19577938541667095,
            "durationTicks": 179,
            "midi": 73,
            "name": "C#5",
            "ticks": 185520,
            "time": 225.87098349999994,
            "velocity": 1
          },
          {
            "duration": 0.21546669791666773,
            "durationTicks": 197,
            "midi": 75,
            "name": "D#5",
            "ticks": 185760,
            "time": 226.13348099999993,
            "velocity": 1
          },
          {
            "duration": 0.20452930208332987,
            "durationTicks": 187,
            "midi": 75,
            "name": "D#5",
            "ticks": 186000,
            "time": 226.39597849999993,
            "velocity": 1
          },
          {
            "duration": 0.7188995625000132,
            "durationTicks": 642,
            "midi": 77,
            "name": "F5",
            "ticks": 186240,
            "time": 226.65847599999992,
            "velocity": 1
          },
          {
            "duration": 0.20837407500002314,
            "durationTicks": 189,
            "midi": 82,
            "name": "A#5",
            "ticks": 195480,
            "time": 236.8411849999999,
            "velocity": 1
          },
          {
            "duration": 0.21829665000001341,
            "durationTicks": 198,
            "midi": 80,
            "name": "G#5",
            "ticks": 195720,
            "time": 237.1057869999999,
            "velocity": 1
          },
          {
            "duration": 0.22050166666667792,
            "durationTicks": 200,
            "midi": 80,
            "name": "G#5",
            "ticks": 196080,
            "time": 237.50268999999992,
            "velocity": 1
          },
          {
            "duration": 0.08904532500000073,
            "durationTicks": 81,
            "midi": 65,
            "name": "F4",
            "ticks": 207360,
            "time": 249.99888399999992,
            "velocity": 1
          },
          {
            "duration": 0.07915140000000065,
            "durationTicks": 72,
            "midi": 65,
            "name": "F4",
            "ticks": 207600,
            "time": 250.2627219999999,
            "velocity": 1
          },
          {
            "duration": 0.10663452499997561,
            "durationTicks": 97,
            "midi": 65,
            "name": "F4",
            "ticks": 207840,
            "time": 250.52655999999993,
            "velocity": 1
          },
          {
            "duration": 0.08684667500000387,
            "durationTicks": 79,
            "midi": 65,
            "name": "F4",
            "ticks": 208080,
            "time": 250.79039799999993,
            "velocity": 1
          },
          {
            "duration": 0.10663452500000403,
            "durationTicks": 97,
            "midi": 77,
            "name": "F5",
            "ticks": 208320,
            "time": 251.05423599999992,
            "velocity": 1
          }
        ]
      },
      {
        "channel": 0,
        "controlChanges": {},
        "pitchBends": [],
        "instrument": {
          "family": "piano",
          "number": 0,
          "name": "acoustic grand piano"
        },
        "name": "transcribed (4)",
        "notes": [],
        "endOfTrackTicks": 103297
      },
      {
        "channel": 4,
        "controlChanges": {},
        "pitchBends": [],
        "instrument": {
          "family": "synth pad",
          "number": 88,
          "name": "pad 1 (new age)"
        },
        "name": "",
        "notes": [
          {
            "duration": 0.23821601249998992,
            "durationTicks": 186,
            "midi": 68,
            "name": "G#4",
            "ticks": 94320,
            "time": 116.6466195,
            "velocity": 1
          },
          {
            "duration": 0.3944652250000047,
            "durationTicks": 308,
            "midi": 70,
            "name": "A#4",
            "ticks": 94440,
            "time": 116.80030724999999,
            "velocity": 1
          },
          {
            "duration": 0.49180079999999293,
            "durationTicks": 384,
            "midi": 68,
            "name": "G#4",
            "ticks": 94800,
            "time": 117.2613705,
            "velocity": 1
          },
          {
            "duration": 0.41367619375000686,
            "durationTicks": 323,
            "midi": 70,
            "name": "A#4",
            "ticks": 95160,
            "time": 117.72243375,
            "velocity": 1
          },
          {
            "duration": 0.19595188125001073,
            "durationTicks": 153,
            "midi": 68,
            "name": "G#4",
            "ticks": 95520,
            "time": 118.18349699999999,
            "velocity": 1
          },
          {
            "duration": 0.27535721875000263,
            "durationTicks": 215,
            "midi": 70,
            "name": "A#4",
            "ticks": 95640,
            "time": 118.33718474999999,
            "velocity": 1
          },
          {
            "duration": 0.6937461374999998,
            "durationTicks": 533,
            "midi": 75,
            "name": "D#5",
            "ticks": 100560,
            "time": 124.740431,
            "velocity": 1
          },
          {
            "duration": 0.29676195000000405,
            "durationTicks": 228,
            "midi": 77,
            "name": "F5",
            "ticks": 101280,
            "time": 125.67757399999999,
            "velocity": 1
          },
          {
            "duration": 0.31492955416666746,
            "durationTicks": 242,
            "midi": 78,
            "name": "F#5",
            "ticks": 101520,
            "time": 125.989955,
            "velocity": 1
          },
          {
            "duration": 0.512259387499995,
            "durationTicks": 402,
            "midi": 70,
            "name": "A#4",
            "ticks": 101760,
            "time": 126.302336,
            "velocity": 1
          }
        ]
      },
      {
        "channel": 0,
        "controlChanges": {},
        "pitchBends": [],
        "instrument": {
          "family": "piano",
          "number": 0,
          "name": "acoustic grand piano"
        },
        "name": "transcribed (4)",
        "notes": [],
        "endOfTrackTicks": 141455
      },
      {
        "channel": 5,
        "controlChanges": {},
        "pitchBends": [],
        "instrument": {
          "family": "piano",
          "number": 4,
          "name": "electric piano 1"
        },
        "name": "",
        "notes": [
          {
            "duration": 0.06915948750000211,
            "durationTicks": 54,
            "midi": 59,
            "name": "B3",
            "ticks": 95760,
            "time": 118.4908725,
            "velocity": 1
          },
          {
            "duration": 0.06915948750000211,
            "durationTicks": 54,
            "midi": 63,
            "name": "D#4",
            "ticks": 95760,
            "time": 118.4908725,
            "velocity": 1
          },
          {
            "duration": 0.06915948750000211,
            "durationTicks": 54,
            "midi": 66,
            "name": "F#4",
            "ticks": 95760,
            "time": 118.4908725,
            "velocity": 1
          },
          {
            "duration": 0.06915948750000211,
            "durationTicks": 54,
            "midi": 70,
            "name": "A#4",
            "ticks": 95760,
            "time": 118.4908725,
            "velocity": 1
          },
          {
            "duration": 1.1932881312500285,
            "durationTicks": 981,
            "midi": 58,
            "name": "A#3",
            "ticks": 137280,
            "time": 171.04572799999997,
            "velocity": 1
          },
          {
            "duration": 0.5808297500000208,
            "durationTicks": 478,
            "midi": 61,
            "name": "C#4",
            "ticks": 137760,
            "time": 171.62898799999996,
            "velocity": 1
          },
          {
            "duration": 1.2083899250000059,
            "durationTicks": 948,
            "midi": 44,
            "name": "G#2",
            "ticks": 138240,
            "time": 172.212248,
            "velocity": 1
          },
          {
            "duration": 1.2083899250000059,
            "durationTicks": 948,
            "midi": 56,
            "name": "G#3",
            "ticks": 138240,
            "time": 172.212248,
            "velocity": 1
          },
          {
            "duration": 1.2083899250000059,
            "durationTicks": 948,
            "midi": 60,
            "name": "C4",
            "ticks": 138240,
            "time": 172.212248,
            "velocity": 1
          },
          {
            "duration": 1.2083899250000059,
            "durationTicks": 948,
            "midi": 63,
            "name": "D#4",
            "ticks": 138240,
            "time": 172.212248,
            "velocity": 1
          },
          {
            "duration": 1.2083899250000059,
            "durationTicks": 948,
            "midi": 66,
            "name": "F#4",
            "ticks": 138240,
            "time": 172.212248,
            "velocity": 1
          },
          {
            "duration": 1.2083899250000059,
            "durationTicks": 948,
            "midi": 70,
            "name": "A#4",
            "ticks": 138240,
            "time": 172.212248,
            "velocity": 1
          },
          {
            "duration": 0.5251652416666843,
            "durationTicks": 412,
            "midi": 44,
            "name": "G#2",
            "ticks": 139200,
            "time": 173.43593399999997,
            "velocity": 1
          },
          {
            "duration": 0.5251652416666843,
            "durationTicks": 412,
            "midi": 56,
            "name": "G#3",
            "ticks": 139200,
            "time": 173.43593399999997,
            "velocity": 1
          },
          {
            "duration": 0.5251652416666843,
            "durationTicks": 412,
            "midi": 68,
            "name": "G#4",
            "ticks": 139200,
            "time": 173.43593399999997,
            "velocity": 1
          }
        ]
      },
      {
        "channel": 0,
        "controlChanges": {},
        "pitchBends": [],
        "instrument": {
          "family": "piano",
          "number": 0,
          "name": "acoustic grand piano"
        },
        "name": "transcribed (4)",
        "notes": [],
        "endOfTrackTicks": 100191
      },
      {
        "channel": 6,
        "controlChanges": {},
        "pitchBends": [],
        "instrument": {
          "family": "reed",
          "number": 67,
          "name": "baritone sax"
        },
        "name": "",
        "notes": [
          {
            "duration": 0.2802301041666624,
            "durationTicks": 215,
            "midi": 68,
            "name": "G#4",
            "ticks": 97440,
            "time": 120.675138,
            "velocity": 1
          },
          {
            "duration": 0.32975914583333577,
            "durationTicks": 253,
            "midi": 66,
            "name": "F#4",
            "ticks": 97680,
            "time": 120.987953,
            "velocity": 1
          },
          {
            "duration": 0.32063537499999484,
            "durationTicks": 246,
            "midi": 65,
            "name": "F4",
            "ticks": 97920,
            "time": 121.300768,
            "velocity": 1
          },
          {
            "duration": 0.3115116041666681,
            "durationTicks": 239,
            "midi": 63,
            "name": "D#4",
            "ticks": 98160,
            "time": 121.613583,
            "velocity": 1
          },
          {
            "duration": 0.2997810416666624,
            "durationTicks": 230,
            "midi": 65,
            "name": "F4",
            "ticks": 98400,
            "time": 121.926398,
            "velocity": 1
          },
          {
            "duration": 0.47964966666665987,
            "durationTicks": 368,
            "midi": 63,
            "name": "D#4",
            "ticks": 98640,
            "time": 122.239213,
            "velocity": 1
          }
        ]
      },
      {
        "channel": 0,
        "controlChanges": {},
        "pitchBends": [],
        "instrument": {
          "family": "piano",
          "number": 0,
          "name": "acoustic grand piano"
        },
        "name": "transcribed (4)",
        "notes": [],
        "endOfTrackTicks": 219830
      },
      {
        "channel": 7,
        "controlChanges": {},
        "pitchBends": [],
        "instrument": {
          "family": "reed",
          "number": 66,
          "name": "tenor sax"
        },
        "name": "",
        "notes": [
          {
            "duration": 0.3597372499999949,
            "durationTicks": 276,
            "midi": 65,
            "name": "F4",
            "ticks": 99120,
            "time": 122.86484300000001,
            "velocity": 1
          },
          {
            "duration": 0.8414765249999903,
            "durationTicks": 646,
            "midi": 65,
            "name": "F4",
            "ticks": 99480,
            "time": 123.33406550000001,
            "velocity": 1
          },
          {
            "duration": 0.30066671250000354,
            "durationTicks": 231,
            "midi": 63,
            "name": "D#4",
            "ticks": 100080,
            "time": 124.115669,
            "velocity": 1
          },
          {
            "duration": 0.3266984624999907,
            "durationTicks": 251,
            "midi": 65,
            "name": "F4",
            "ticks": 100320,
            "time": 124.42805,
            "velocity": 1
          },
          {
            "duration": 0.2994551145833242,
            "durationTicks": 235,
            "midi": 70,
            "name": "A#4",
            "ticks": 102240,
            "time": 126.913989,
            "velocity": 1
          },
          {
            "duration": 0.6001845062500024,
            "durationTicks": 471,
            "midi": 68,
            "name": "G#4",
            "ticks": 102480,
            "time": 127.2198155,
            "velocity": 1
          },
          {
            "duration": 0.1682045749999901,
            "durationTicks": 132,
            "midi": 70,
            "name": "A#4",
            "ticks": 102960,
            "time": 127.8314685,
            "velocity": 1
          },
          {
            "duration": 0.49059667708334587,
            "durationTicks": 385,
            "midi": 70,
            "name": "A#4",
            "ticks": 103440,
            "time": 128.4431215,
            "velocity": 1
          },
          {
            "duration": 0.22499799999997094,
            "durationTicks": 192,
            "midi": 65,
            "name": "F4",
            "ticks": 216600,
            "time": 260.44515674999997,
            "velocity": 1
          },
          {
            "duration": 0.3348296874999619,
            "durationTicks": 282,
            "midi": 63,
            "name": "D#4",
            "ticks": 216840,
            "time": 260.72640425,
            "velocity": 1
          },
          {
            "duration": 1.0501506250000148,
            "durationTicks": 876,
            "midi": 49,
            "name": "C#3",
            "ticks": 217200,
            "time": 261.15474049999995,
            "velocity": 1
          }
        ]
      },
      {
        "channel": 0,
        "controlChanges": {},
        "pitchBends": [],
        "instrument": {
          "family": "piano",
          "number": 0,
          "name": "acoustic grand piano"
        },
        "name": "transcribed (4)",
        "notes": [],
        "endOfTrackTicks": 214725
      },
      {
        "channel": 8,
        "controlChanges": {},
        "pitchBends": [],
        "instrument": {
          "family": "bass",
          "number": 33,
          "name": "electric bass (finger)"
        },
        "name": "",
        "notes": [
          {
            "duration": 1.2606515145833441,
            "durationTicks": 989,
            "midi": 68,
            "name": "G#4",
            "ticks": 138240,
            "time": 172.212248,
            "velocity": 1
          },
          {
            "duration": 0.5251652416666843,
            "durationTicks": 412,
            "midi": 68,
            "name": "G#4",
            "ticks": 139200,
            "time": 173.43593399999997,
            "velocity": 1
          },
          {
            "duration": 0.07037684583335135,
            "durationTicks": 62,
            "midi": 65,
            "name": "F4",
            "ticks": 152160,
            "time": 188.57388899999998,
            "velocity": 1
          },
          {
            "duration": 0.08853861249997408,
            "durationTicks": 78,
            "midi": 65,
            "name": "F4",
            "ticks": 152400,
            "time": 188.8463155,
            "velocity": 1
          },
          {
            "duration": 0.0794577291666485,
            "durationTicks": 70,
            "midi": 65,
            "name": "F4",
            "ticks": 152640,
            "time": 189.118742,
            "velocity": 1
          },
          {
            "duration": 0.07945772916667693,
            "durationTicks": 70,
            "midi": 65,
            "name": "F4",
            "ticks": 152880,
            "time": 189.3911685,
            "velocity": 1
          },
          {
            "duration": 0.3110202541666638,
            "durationTicks": 274,
            "midi": 65,
            "name": "F4",
            "ticks": 153120,
            "time": 189.663595,
            "velocity": 1
          },
          {
            "duration": 0.11124082083333064,
            "durationTicks": 98,
            "midi": 70,
            "name": "A#4",
            "ticks": 153600,
            "time": 190.208448,
            "velocity": 1
          },
          {
            "duration": 0.0885386125000025,
            "durationTicks": 78,
            "midi": 70,
            "name": "A#4",
            "ticks": 153840,
            "time": 190.4808745,
            "velocity": 1
          },
          {
            "duration": 0.07945772916667693,
            "durationTicks": 70,
            "midi": 70,
            "name": "A#4",
            "ticks": 154080,
            "time": 190.753301,
            "velocity": 1
          },
          {
            "duration": 0.08967372291667175,
            "durationTicks": 79,
            "midi": 70,
            "name": "A#4",
            "ticks": 154320,
            "time": 191.0257275,
            "velocity": 1
          },
          {
            "duration": 0.48696236874999954,
            "durationTicks": 429,
            "midi": 70,
            "name": "A#4",
            "ticks": 154560,
            "time": 191.29815399999998,
            "velocity": 1
          },
          {
            "duration": 0.2973989291666612,
            "durationTicks": 262,
            "midi": 68,
            "name": "G#4",
            "ticks": 155040,
            "time": 191.843007,
            "velocity": 1
          },
          {
            "duration": 0.24745407083332793,
            "durationTicks": 218,
            "midi": 68,
            "name": "G#4",
            "ticks": 155280,
            "time": 192.1154335,
            "velocity": 1
          },
          {
            "duration": 0.17989583333334735,
            "durationTicks": 157,
            "midi": 66,
            "name": "F#4",
            "ticks": 155520,
            "time": 192.38786,
            "velocity": 1
          },
          {
            "duration": 0.3593841750000024,
            "durationTicks": 324,
            "midi": 70,
            "name": "A#4",
            "ticks": 159360,
            "time": 196.74929199999997,
            "velocity": 1
          },
          {
            "duration": 0.09761051666666276,
            "durationTicks": 88,
            "midi": 70,
            "name": "A#4",
            "ticks": 159840,
            "time": 197.28171299999997,
            "velocity": 1
          },
          {
            "duration": 0.09761051666666276,
            "durationTicks": 88,
            "midi": 70,
            "name": "A#4",
            "ticks": 160080,
            "time": 197.54792349999997,
            "velocity": 1
          },
          {
            "duration": 0.09761051666666276,
            "durationTicks": 88,
            "midi": 70,
            "name": "A#4",
            "ticks": 160320,
            "time": 197.81413399999997,
            "velocity": 1
          },
          {
            "duration": 0.09761051666666276,
            "durationTicks": 88,
            "midi": 70,
            "name": "A#4",
            "ticks": 160560,
            "time": 198.08034449999997,
            "velocity": 1
          },
          {
            "duration": 0.0887368333333427,
            "durationTicks": 80,
            "midi": 70,
            "name": "A#4",
            "ticks": 160800,
            "time": 198.34655499999997,
            "velocity": 1
          },
          {
            "duration": 0.09761051666666276,
            "durationTicks": 88,
            "midi": 70,
            "name": "A#4",
            "ticks": 161040,
            "time": 198.61276549999997,
            "velocity": 1
          },
          {
            "duration": 0.09988971666666657,
            "durationTicks": 88,
            "midi": 73,
            "name": "C#5",
            "ticks": 163200,
            "time": 201.05838799999998,
            "velocity": 1
          },
          {
            "duration": 0.06129596249999736,
            "durationTicks": 54,
            "midi": 73,
            "name": "C#5",
            "ticks": 163440,
            "time": 201.33081449999997,
            "velocity": 1
          },
          {
            "duration": 0.038593754166669214,
            "durationTicks": 34,
            "midi": 73,
            "name": "C#5",
            "ticks": 163680,
            "time": 201.60324099999997,
            "velocity": 1
          },
          {
            "duration": 0.06243107291666661,
            "durationTicks": 55,
            "midi": 73,
            "name": "C#5",
            "ticks": 163680,
            "time": 201.60324099999997,
            "velocity": 1
          },
          {
            "duration": 0.051079968750002536,
            "durationTicks": 45,
            "midi": 73,
            "name": "C#5",
            "ticks": 163920,
            "time": 201.87566749999996,
            "velocity": 1
          },
          {
            "duration": 0.08172795000001543,
            "durationTicks": 72,
            "midi": 73,
            "name": "C#5",
            "ticks": 164160,
            "time": 202.14809399999996,
            "velocity": 1
          },
          {
            "duration": 0.051079968750002536,
            "durationTicks": 45,
            "midi": 73,
            "name": "C#5",
            "ticks": 164400,
            "time": 202.42052049999995,
            "velocity": 1
          },
          {
            "duration": 0.06356618333333586,
            "durationTicks": 56,
            "midi": 73,
            "name": "C#5",
            "ticks": 164640,
            "time": 202.69294699999998,
            "velocity": 1
          },
          {
            "duration": 0.24971261249999088,
            "durationTicks": 223,
            "midi": 73,
            "name": "C#5",
            "ticks": 172320,
            "time": 211.25022999999996,
            "velocity": 1
          },
          {
            "duration": 0.2295564374999799,
            "durationTicks": 205,
            "midi": 73,
            "name": "C#5",
            "ticks": 172560,
            "time": 211.51897899999997,
            "velocity": 1
          },
          {
            "duration": 1.2284068875000003,
            "durationTicks": 1097,
            "midi": 75,
            "name": "D#5",
            "ticks": 172800,
            "time": 211.78772799999996,
            "velocity": 1
          },
          {
            "duration": 1.0591717125000173,
            "durationTicks": 957,
            "midi": 66,
            "name": "F#4",
            "ticks": 178560,
            "time": 218.18768799999995,
            "velocity": 1
          },
          {
            "duration": 0.2202457375000222,
            "durationTicks": 199,
            "midi": 66,
            "name": "F#4",
            "ticks": 179520,
            "time": 219.25017999999994,
            "velocity": 1
          },
          {
            "duration": 0.23020660000000248,
            "durationTicks": 208,
            "midi": 66,
            "name": "F#4",
            "ticks": 179760,
            "time": 219.51580299999995,
            "velocity": 1
          },
          {
            "duration": 0.22024573749999377,
            "durationTicks": 199,
            "midi": 66,
            "name": "F#4",
            "ticks": 180000,
            "time": 219.78142599999995,
            "velocity": 1
          },
          {
            "duration": 0.19036314999999604,
            "durationTicks": 172,
            "midi": 66,
            "name": "F#4",
            "ticks": 180240,
            "time": 220.04704899999996,
            "velocity": 1
          },
          {
            "duration": 0.9894456749999847,
            "durationTicks": 894,
            "midi": 68,
            "name": "G#4",
            "ticks": 180480,
            "time": 220.31267199999996,
            "velocity": 1
          },
          {
            "duration": 0.011025083333350949,
            "durationTicks": 10,
            "midi": 70,
            "name": "A#4",
            "ticks": 190800,
            "time": 231.6814459999999,
            "velocity": 1
          },
          {
            "duration": 0.01984515000000897,
            "durationTicks": 18,
            "midi": 70,
            "name": "A#4",
            "ticks": 191040,
            "time": 231.9460479999999,
            "velocity": 1
          },
          {
            "duration": 0.009922574999990275,
            "durationTicks": 9,
            "midi": 70,
            "name": "A#4",
            "ticks": 191280,
            "time": 232.21064999999993,
            "velocity": 1
          },
          {
            "duration": 0.008820066666658022,
            "durationTicks": 8,
            "midi": 70,
            "name": "A#4",
            "ticks": 191520,
            "time": 232.47525199999993,
            "velocity": 1
          },
          {
            "duration": 0.01984515000000897,
            "durationTicks": 18,
            "midi": 70,
            "name": "A#4",
            "ticks": 191760,
            "time": 232.73985399999992,
            "velocity": 1
          },
          {
            "duration": 0.040792808333350195,
            "durationTicks": 37,
            "midi": 70,
            "name": "A#4",
            "ticks": 191880,
            "time": 232.8721549999999,
            "velocity": 1
          },
          {
            "duration": 0.008820066666658022,
            "durationTicks": 8,
            "midi": 70,
            "name": "A#4",
            "ticks": 192000,
            "time": 233.00445599999992,
            "velocity": 1
          },
          {
            "duration": 0.018742641666676718,
            "durationTicks": 17,
            "midi": 70,
            "name": "A#4",
            "ticks": 192240,
            "time": 233.26905799999992,
            "velocity": 1
          },
          {
            "duration": 0.009922575000018696,
            "durationTicks": 9,
            "midi": 70,
            "name": "A#4",
            "ticks": 192480,
            "time": 233.5336599999999,
            "velocity": 1
          },
          {
            "duration": 0.31200985833334016,
            "durationTicks": 283,
            "midi": 75,
            "name": "D#5",
            "ticks": 196320,
            "time": 237.7672919999999,
            "velocity": 1
          },
          {
            "duration": 0.17970885833335615,
            "durationTicks": 163,
            "midi": 77,
            "name": "F5",
            "ticks": 196560,
            "time": 238.0318939999999,
            "velocity": 1
          },
          {
            "duration": 0.07938059999997904,
            "durationTicks": 72,
            "midi": 75,
            "name": "D#5",
            "ticks": 196800,
            "time": 238.29649599999993,
            "velocity": 1
          },
          {
            "duration": 0.29988226666665696,
            "durationTicks": 272,
            "midi": 75,
            "name": "D#5",
            "ticks": 197040,
            "time": 238.56109799999993,
            "velocity": 1
          },
          {
            "duration": 0.29988226666665696,
            "durationTicks": 272,
            "midi": 78,
            "name": "F#5",
            "ticks": 197280,
            "time": 238.82569999999993,
            "velocity": 1
          },
          {
            "duration": 0.2590894583333352,
            "durationTicks": 235,
            "midi": 77,
            "name": "F5",
            "ticks": 197520,
            "time": 239.09030199999992,
            "velocity": 1
          },
          {
            "duration": 0.2909890500000074,
            "durationTicks": 264,
            "midi": 70,
            "name": "A#4",
            "ticks": 197760,
            "time": 239.35490399999992,
            "velocity": 1
          },
          {
            "duration": 0.37916755000000535,
            "durationTicks": 344,
            "midi": 77,
            "name": "F5",
            "ticks": 197760,
            "time": 239.35490399999992,
            "velocity": 1
          },
          {
            "duration": 0.1003030437500172,
            "durationTicks": 91,
            "midi": 82,
            "name": "A#5",
            "ticks": 198000,
            "time": 239.6194394999999,
            "velocity": 1
          },
          {
            "duration": 0.9730805687499924,
            "durationTicks": 859,
            "midi": 65,
            "name": "F4",
            "ticks": 213120,
            "time": 256.4420599999999,
            "velocity": 1
          },
          {
            "duration": 0.5709343500000159,
            "durationTicks": 504,
            "midi": 63,
            "name": "D#4",
            "ticks": 214080,
            "time": 257.5295539999999,
            "velocity": 1
          }
        ]
      },
      {
        "channel": 0,
        "controlChanges": {},
        "pitchBends": [],
        "instrument": {
          "family": "piano",
          "number": 0,
          "name": "acoustic grand piano"
        },
        "name": "transcribed (4)",
        "notes": [],
        "endOfTrackTicks": 191325
      },
      {
        "channel": 10,
        "controlChanges": {},
        "pitchBends": [],
        "instrument": {
          "family": "ensemble",
          "number": 48,
          "name": "string ensemble 1"
        },
        "name": "",
        "notes": [
          {
            "duration": 0.07047242499999129,
            "durationTicks": 57,
            "midi": 42,
            "name": "F#2",
            "ticks": 140160,
            "time": 174.65962,
            "velocity": 1
          },
          {
            "duration": 0.07047242499999129,
            "durationTicks": 57,
            "midi": 54,
            "name": "F#3",
            "ticks": 140160,
            "time": 174.65962,
            "velocity": 1
          },
          {
            "duration": 0.07047242499999129,
            "durationTicks": 57,
            "midi": 58,
            "name": "A#3",
            "ticks": 140160,
            "time": 174.65962,
            "velocity": 1
          },
          {
            "duration": 0.07047242499999129,
            "durationTicks": 57,
            "midi": 61,
            "name": "C#4",
            "ticks": 140160,
            "time": 174.65962,
            "velocity": 1
          },
          {
            "duration": 0.07047242499999129,
            "durationTicks": 57,
            "midi": 65,
            "name": "F4",
            "ticks": 140160,
            "time": 174.65962,
            "velocity": 1
          },
          {
            "duration": 0.07047242499999129,
            "durationTicks": 57,
            "midi": 42,
            "name": "F#2",
            "ticks": 140400,
            "time": 174.956346,
            "velocity": 1
          },
          {
            "duration": 0.07047242499999129,
            "durationTicks": 57,
            "midi": 54,
            "name": "F#3",
            "ticks": 140400,
            "time": 174.956346,
            "velocity": 1
          },
          {
            "duration": 0.07047242499999129,
            "durationTicks": 57,
            "midi": 58,
            "name": "A#3",
            "ticks": 140400,
            "time": 174.956346,
            "velocity": 1
          },
          {
            "duration": 0.07047242499999129,
            "durationTicks": 57,
            "midi": 61,
            "name": "C#4",
            "ticks": 140400,
            "time": 174.956346,
            "velocity": 1
          },
          {
            "duration": 0.07047242499999129,
            "durationTicks": 57,
            "midi": 65,
            "name": "F4",
            "ticks": 140400,
            "time": 174.956346,
            "velocity": 1
          },
          {
            "duration": 0.0840723666666463,
            "durationTicks": 68,
            "midi": 42,
            "name": "F#2",
            "ticks": 140640,
            "time": 175.253072,
            "velocity": 1
          },
          {
            "duration": 0.0840723666666463,
            "durationTicks": 68,
            "midi": 54,
            "name": "F#3",
            "ticks": 140640,
            "time": 175.253072,
            "velocity": 1
          },
          {
            "duration": 0.0840723666666463,
            "durationTicks": 68,
            "midi": 58,
            "name": "A#3",
            "ticks": 140640,
            "time": 175.253072,
            "velocity": 1
          },
          {
            "duration": 0.0840723666666463,
            "durationTicks": 68,
            "midi": 61,
            "name": "C#4",
            "ticks": 140640,
            "time": 175.253072,
            "velocity": 1
          },
          {
            "duration": 0.0840723666666463,
            "durationTicks": 68,
            "midi": 65,
            "name": "F4",
            "ticks": 140640,
            "time": 175.253072,
            "velocity": 1
          },
          {
            "duration": 0.07418150000000878,
            "durationTicks": 60,
            "midi": 42,
            "name": "F#2",
            "ticks": 140880,
            "time": 175.54979799999998,
            "velocity": 1
          },
          {
            "duration": 0.07418150000000878,
            "durationTicks": 60,
            "midi": 54,
            "name": "F#3",
            "ticks": 140880,
            "time": 175.54979799999998,
            "velocity": 1
          },
          {
            "duration": 0.07418150000000878,
            "durationTicks": 60,
            "midi": 58,
            "name": "A#3",
            "ticks": 140880,
            "time": 175.54979799999998,
            "velocity": 1
          },
          {
            "duration": 0.07418150000000878,
            "durationTicks": 60,
            "midi": 61,
            "name": "C#4",
            "ticks": 140880,
            "time": 175.54979799999998,
            "velocity": 1
          },
          {
            "duration": 0.07418150000000878,
            "durationTicks": 60,
            "midi": 65,
            "name": "F4",
            "ticks": 140880,
            "time": 175.54979799999998,
            "velocity": 1
          },
          {
            "duration": 0.07294514166667909,
            "durationTicks": 59,
            "midi": 42,
            "name": "F#2",
            "ticks": 141120,
            "time": 175.846524,
            "velocity": 1
          },
          {
            "duration": 0.07294514166667909,
            "durationTicks": 59,
            "midi": 54,
            "name": "F#3",
            "ticks": 141120,
            "time": 175.846524,
            "velocity": 1
          },
          {
            "duration": 0.07294514166667909,
            "durationTicks": 59,
            "midi": 58,
            "name": "A#3",
            "ticks": 141120,
            "time": 175.846524,
            "velocity": 1
          },
          {
            "duration": 0.07294514166667909,
            "durationTicks": 59,
            "midi": 61,
            "name": "C#4",
            "ticks": 141120,
            "time": 175.846524,
            "velocity": 1
          },
          {
            "duration": 0.07294514166667909,
            "durationTicks": 59,
            "midi": 65,
            "name": "F4",
            "ticks": 141120,
            "time": 175.846524,
            "velocity": 1
          },
          {
            "duration": 0.2458201916666667,
            "durationTicks": 227,
            "midi": 85,
            "name": "C#6",
            "ticks": 189840,
            "time": 230.62774199999993,
            "velocity": 1
          },
          {
            "duration": 0.6504799166666544,
            "durationTicks": 590,
            "midi": 84,
            "name": "C6",
            "ticks": 190080,
            "time": 230.88763999999992,
            "velocity": 1
          }
        ]
      },
      {
        "channel": 0,
        "controlChanges": {},
        "pitchBends": [],
        "instrument": {
          "family": "piano",
          "number": 0,
          "name": "acoustic grand piano"
        },
        "name": "transcribed (4)",
        "notes": [],
        "endOfTrackTicks": 185876
      },
      {
        "channel": 11,
        "controlChanges": {},
        "pitchBends": [],
        "instrument": {
          "family": "brass",
          "number": 61,
          "name": "brass section"
        },
        "name": "",
        "notes": [
          {
            "duration": 0.46725832499998887,
            "durationTicks": 419,
            "midi": 65,
            "name": "F4",
            "ticks": 146880,
            "time": 182.538196,
            "velocity": 1
          },
          {
            "duration": 0.4761797249999802,
            "durationTicks": 427,
            "midi": 73,
            "name": "C#5",
            "ticks": 146880,
            "time": 182.538196,
            "velocity": 1
          },
          {
            "duration": 0.4360334250000051,
            "durationTicks": 391,
            "midi": 65,
            "name": "F4",
            "ticks": 147360,
            "time": 183.07348,
            "velocity": 1
          },
          {
            "duration": 0.4471851749999871,
            "durationTicks": 401,
            "midi": 75,
            "name": "D#5",
            "ticks": 147360,
            "time": 183.07348,
            "velocity": 1
          },
          {
            "duration": 0.09093788749999021,
            "durationTicks": 79,
            "midi": 61,
            "name": "C#4",
            "ticks": 147840,
            "time": 183.60876399999998,
            "velocity": 1
          },
          {
            "duration": 0.10014678749999462,
            "durationTicks": 87,
            "midi": 65,
            "name": "F4",
            "ticks": 147840,
            "time": 183.60876399999998,
            "velocity": 1
          },
          {
            "duration": 0.08863566249999622,
            "durationTicks": 77,
            "midi": 61,
            "name": "C#4",
            "ticks": 148080,
            "time": 183.88503099999997,
            "velocity": 1
          },
          {
            "duration": 0.08863566249999622,
            "durationTicks": 77,
            "midi": 65,
            "name": "F4",
            "ticks": 148080,
            "time": 183.88503099999997,
            "velocity": 1
          },
          {
            "duration": 0.0702178624999874,
            "durationTicks": 61,
            "midi": 61,
            "name": "C#4",
            "ticks": 148320,
            "time": 184.161298,
            "velocity": 1
          },
          {
            "duration": 0.0702178624999874,
            "durationTicks": 61,
            "midi": 65,
            "name": "F4",
            "ticks": 148320,
            "time": 184.161298,
            "velocity": 1
          },
          {
            "duration": 0.04086397500000771,
            "durationTicks": 36,
            "midi": 75,
            "name": "D#5",
            "ticks": 152160,
            "time": 188.57388899999998,
            "velocity": 1
          },
          {
            "duration": 0.051079968750002536,
            "durationTicks": 45,
            "midi": 80,
            "name": "G#5",
            "ticks": 152160,
            "time": 188.57388899999998,
            "velocity": 1
          },
          {
            "duration": 0.05902574166665886,
            "durationTicks": 52,
            "midi": 75,
            "name": "D#5",
            "ticks": 152400,
            "time": 188.8463155,
            "velocity": 1
          },
          {
            "duration": 0.07037684583332293,
            "durationTicks": 62,
            "midi": 80,
            "name": "G#5",
            "ticks": 152400,
            "time": 188.8463155,
            "velocity": 1
          },
          {
            "duration": 0.07037684583332293,
            "durationTicks": 62,
            "midi": 75,
            "name": "D#5",
            "ticks": 152640,
            "time": 189.118742,
            "velocity": 1
          },
          {
            "duration": 0.07037684583332293,
            "durationTicks": 62,
            "midi": 80,
            "name": "G#5",
            "ticks": 152640,
            "time": 189.118742,
            "velocity": 1
          },
          {
            "duration": 0.07037684583332293,
            "durationTicks": 62,
            "midi": 75,
            "name": "D#5",
            "ticks": 152880,
            "time": 189.3911685,
            "velocity": 1
          },
          {
            "duration": 0.0885386125000025,
            "durationTicks": 78,
            "midi": 80,
            "name": "G#5",
            "ticks": 152880,
            "time": 189.3911685,
            "velocity": 1
          },
          {
            "duration": 0.22134653124999204,
            "durationTicks": 195,
            "midi": 75,
            "name": "D#5",
            "ticks": 153120,
            "time": 189.663595,
            "velocity": 1
          },
          {
            "duration": 0.22929230416667679,
            "durationTicks": 202,
            "midi": 80,
            "name": "G#5",
            "ticks": 153120,
            "time": 189.663595,
            "velocity": 1
          },
          {
            "duration": 0.24064340833334086,
            "durationTicks": 212,
            "midi": 84,
            "name": "C6",
            "ticks": 153120,
            "time": 189.663595,
            "velocity": 1
          },
          {
            "duration": 0.10897060000002057,
            "durationTicks": 96,
            "midi": 75,
            "name": "D#5",
            "ticks": 153360,
            "time": 189.93602149999998,
            "velocity": 1
          },
          {
            "duration": 0.12032170416668464,
            "durationTicks": 106,
            "midi": 80,
            "name": "G#5",
            "ticks": 153360,
            "time": 189.93602149999998,
            "velocity": 1
          },
          {
            "duration": 0.1294025875000102,
            "durationTicks": 114,
            "midi": 84,
            "name": "C6",
            "ticks": 153360,
            "time": 189.93602149999998,
            "velocity": 1
          },
          {
            "duration": 0.07037684583332293,
            "durationTicks": 62,
            "midi": 75,
            "name": "D#5",
            "ticks": 153600,
            "time": 190.208448,
            "velocity": 1
          },
          {
            "duration": 0.08059283958331775,
            "durationTicks": 71,
            "midi": 80,
            "name": "G#5",
            "ticks": 153600,
            "time": 190.208448,
            "velocity": 1
          },
          {
            "duration": 0.08059283958331775,
            "durationTicks": 71,
            "midi": 84,
            "name": "C6",
            "ticks": 153600,
            "time": 190.208448,
            "velocity": 1
          },
          {
            "duration": 0.038593754166669214,
            "durationTicks": 34,
            "midi": 75,
            "name": "D#5",
            "ticks": 153840,
            "time": 190.4808745,
            "velocity": 1
          },
          {
            "duration": 0.038593754166669214,
            "durationTicks": 34,
            "midi": 80,
            "name": "G#5",
            "ticks": 153840,
            "time": 190.4808745,
            "velocity": 1
          },
          {
            "duration": 0.038593754166669214,
            "durationTicks": 34,
            "midi": 84,
            "name": "C6",
            "ticks": 153840,
            "time": 190.4808745,
            "velocity": 1
          },
          {
            "duration": 0.07037684583332293,
            "durationTicks": 62,
            "midi": 46,
            "name": "A#2",
            "ticks": 154080,
            "time": 190.753301,
            "velocity": 1
          },
          {
            "duration": 0.07832261875000768,
            "durationTicks": 69,
            "midi": 46,
            "name": "A#2",
            "ticks": 154320,
            "time": 191.0257275,
            "velocity": 1
          },
          {
            "duration": 0.5743658708333328,
            "durationTicks": 506,
            "midi": 46,
            "name": "A#2",
            "ticks": 154560,
            "time": 191.29815399999998,
            "velocity": 1
          },
          {
            "duration": 0.7339154999999948,
            "durationTicks": 645,
            "midi": 44,
            "name": "G#2",
            "ticks": 155040,
            "time": 191.843007,
            "velocity": 1
          },
          {
            "duration": 0.07986314999999422,
            "durationTicks": 72,
            "midi": 65,
            "name": "F4",
            "ticks": 159360,
            "time": 196.74929199999997,
            "velocity": 1
          },
          {
            "duration": 0.06877104583332994,
            "durationTicks": 62,
            "midi": 70,
            "name": "A#4",
            "ticks": 159360,
            "time": 196.74929199999997,
            "velocity": 1
          },
          {
            "duration": 0.07986314999999422,
            "durationTicks": 72,
            "midi": 75,
            "name": "D#5",
            "ticks": 159360,
            "time": 196.74929199999997,
            "velocity": 1
          },
          {
            "duration": 0.07098946666667416,
            "durationTicks": 64,
            "midi": 65,
            "name": "F4",
            "ticks": 159600,
            "time": 197.01550249999997,
            "velocity": 1
          },
          {
            "duration": 0.06100657291665357,
            "durationTicks": 55,
            "midi": 70,
            "name": "A#4",
            "ticks": 159600,
            "time": 197.01550249999997,
            "velocity": 1
          },
          {
            "duration": 0.07098946666667416,
            "durationTicks": 64,
            "midi": 75,
            "name": "D#5",
            "ticks": 159600,
            "time": 197.01550249999997,
            "velocity": 1
          },
          {
            "duration": 0.08762762291667059,
            "durationTicks": 79,
            "midi": 65,
            "name": "F4",
            "ticks": 159840,
            "time": 197.28171299999997,
            "velocity": 1
          },
          {
            "duration": 0.07764472916667842,
            "durationTicks": 70,
            "midi": 70,
            "name": "A#4",
            "ticks": 159840,
            "time": 197.28171299999997,
            "velocity": 1
          },
          {
            "duration": 0.08762762291667059,
            "durationTicks": 79,
            "midi": 75,
            "name": "D#5",
            "ticks": 159840,
            "time": 197.28171299999997,
            "velocity": 1
          },
          {
            "duration": 0.08762762291667059,
            "durationTicks": 79,
            "midi": 65,
            "name": "F4",
            "ticks": 160080,
            "time": 197.54792349999997,
            "velocity": 1
          },
          {
            "duration": 0.07764472916667842,
            "durationTicks": 70,
            "midi": 70,
            "name": "A#4",
            "ticks": 160080,
            "time": 197.54792349999997,
            "velocity": 1
          },
          {
            "duration": 0.07764472916667842,
            "durationTicks": 70,
            "midi": 75,
            "name": "D#5",
            "ticks": 160080,
            "time": 197.54792349999997,
            "velocity": 1
          },
          {
            "duration": 0.07764472916667842,
            "durationTicks": 70,
            "midi": 65,
            "name": "F4",
            "ticks": 160320,
            "time": 197.81413399999997,
            "velocity": 1
          },
          {
            "duration": 0.06877104583332994,
            "durationTicks": 62,
            "midi": 70,
            "name": "A#4",
            "ticks": 160320,
            "time": 197.81413399999997,
            "velocity": 1
          },
          {
            "duration": 0.07764472916667842,
            "durationTicks": 70,
            "midi": 73,
            "name": "C#5",
            "ticks": 160320,
            "time": 197.81413399999997,
            "velocity": 1
          },
          {
            "duration": 0.07764472916667842,
            "durationTicks": 70,
            "midi": 65,
            "name": "F4",
            "ticks": 160560,
            "time": 198.08034449999997,
            "velocity": 1
          },
          {
            "duration": 0.06877104583332994,
            "durationTicks": 62,
            "midi": 70,
            "name": "A#4",
            "ticks": 160560,
            "time": 198.08034449999997,
            "velocity": 1
          },
          {
            "duration": 0.07764472916667842,
            "durationTicks": 70,
            "midi": 73,
            "name": "C#5",
            "ticks": 160560,
            "time": 198.08034449999997,
            "velocity": 1
          },
          {
            "duration": 0.07986314999999422,
            "durationTicks": 72,
            "midi": 65,
            "name": "F4",
            "ticks": 160800,
            "time": 198.34655499999997,
            "velocity": 1
          },
          {
            "duration": 0.06877104583332994,
            "durationTicks": 62,
            "midi": 70,
            "name": "A#4",
            "ticks": 160800,
            "time": 198.34655499999997,
            "velocity": 1
          },
          {
            "duration": 0.07986314999999422,
            "durationTicks": 72,
            "midi": 73,
            "name": "C#5",
            "ticks": 160800,
            "time": 198.34655499999997,
            "velocity": 1
          },
          {
            "duration": 0.07764472916667842,
            "durationTicks": 70,
            "midi": 65,
            "name": "F4",
            "ticks": 161040,
            "time": 198.61276549999997,
            "velocity": 1
          },
          {
            "duration": 0.06655262500001413,
            "durationTicks": 60,
            "midi": 70,
            "name": "A#4",
            "ticks": 161040,
            "time": 198.61276549999997,
            "velocity": 1
          },
          {
            "duration": 0.07764472916667842,
            "durationTicks": 70,
            "midi": 73,
            "name": "C#5",
            "ticks": 161040,
            "time": 198.61276549999997,
            "velocity": 1
          },
          {
            "duration": 0.1192358958333557,
            "durationTicks": 107,
            "midi": 53,
            "name": "F3",
            "ticks": 170400,
            "time": 209.10284599999994,
            "velocity": 1
          },
          {
            "duration": 0.1192358958333557,
            "durationTicks": 107,
            "midi": 65,
            "name": "F4",
            "ticks": 170400,
            "time": 209.10284599999994,
            "velocity": 1
          },
          {
            "duration": 0.1192358958333557,
            "durationTicks": 107,
            "midi": 75,
            "name": "D#5",
            "ticks": 170400,
            "time": 209.10284599999994,
            "velocity": 1
          },
          {
            "duration": 0.09917752083333653,
            "durationTicks": 89,
            "midi": 53,
            "name": "F3",
            "ticks": 170640,
            "time": 209.37029099999995,
            "velocity": 1
          },
          {
            "duration": 0.09917752083333653,
            "durationTicks": 89,
            "midi": 65,
            "name": "F4",
            "ticks": 170640,
            "time": 209.37029099999995,
            "velocity": 1
          },
          {
            "duration": 0.09917752083333653,
            "durationTicks": 89,
            "midi": 75,
            "name": "D#5",
            "ticks": 170640,
            "time": 209.37029099999995,
            "velocity": 1
          },
          {
            "duration": 0.03807277499998918,
            "durationTicks": 34,
            "midi": 49,
            "name": "C#3",
            "ticks": 170880,
            "time": 209.63773599999996,
            "velocity": 1
          },
          {
            "duration": 0.03807277499998918,
            "durationTicks": 34,
            "midi": 65,
            "name": "F4",
            "ticks": 170880,
            "time": 209.63773599999996,
            "velocity": 1
          },
          {
            "duration": 0.03807277499998918,
            "durationTicks": 34,
            "midi": 75,
            "name": "D#5",
            "ticks": 170880,
            "time": 209.63773599999996,
            "velocity": 1
          },
          {
            "duration": 0.05039043749999905,
            "durationTicks": 45,
            "midi": 49,
            "name": "C#3",
            "ticks": 171120,
            "time": 209.90648499999998,
            "velocity": 1
          },
          {
            "duration": 0.05039043749999905,
            "durationTicks": 45,
            "midi": 65,
            "name": "F4",
            "ticks": 171120,
            "time": 209.90648499999998,
            "velocity": 1
          },
          {
            "duration": 0.05039043749999905,
            "durationTicks": 45,
            "midi": 77,
            "name": "F5",
            "ticks": 171120,
            "time": 209.90648499999998,
            "velocity": 1
          },
          {
            "duration": 0.05039043749999905,
            "durationTicks": 45,
            "midi": 49,
            "name": "C#3",
            "ticks": 171360,
            "time": 210.17523399999996,
            "velocity": 1
          },
          {
            "duration": 0.05039043749999905,
            "durationTicks": 45,
            "midi": 65,
            "name": "F4",
            "ticks": 171360,
            "time": 210.17523399999996,
            "velocity": 1
          },
          {
            "duration": 0.05039043749999905,
            "durationTicks": 45,
            "midi": 77,
            "name": "F5",
            "ticks": 171360,
            "time": 210.17523399999996,
            "velocity": 1
          },
          {
            "duration": 0.05934873749998815,
            "durationTicks": 53,
            "midi": 49,
            "name": "C#3",
            "ticks": 171600,
            "time": 210.44398299999997,
            "velocity": 1
          },
          {
            "duration": 0.05934873749998815,
            "durationTicks": 53,
            "midi": 65,
            "name": "F4",
            "ticks": 171600,
            "time": 210.44398299999997,
            "velocity": 1
          },
          {
            "duration": 0.05934873749998815,
            "durationTicks": 53,
            "midi": 77,
            "name": "F5",
            "ticks": 171600,
            "time": 210.44398299999997,
            "velocity": 1
          },
          {
            "duration": 0.07054661250001004,
            "durationTicks": 63,
            "midi": 49,
            "name": "C#3",
            "ticks": 171840,
            "time": 210.71273199999996,
            "velocity": 1
          },
          {
            "duration": 0.07054661250001004,
            "durationTicks": 63,
            "midi": 65,
            "name": "F4",
            "ticks": 171840,
            "time": 210.71273199999996,
            "velocity": 1
          },
          {
            "duration": 0.07054661250001004,
            "durationTicks": 63,
            "midi": 77,
            "name": "F5",
            "ticks": 171840,
            "time": 210.71273199999996,
            "velocity": 1
          },
          {
            "duration": 0.05039043749999905,
            "durationTicks": 45,
            "midi": 49,
            "name": "C#3",
            "ticks": 172080,
            "time": 210.98148099999997,
            "velocity": 1
          },
          {
            "duration": 0.05039043749999905,
            "durationTicks": 45,
            "midi": 65,
            "name": "F4",
            "ticks": 172080,
            "time": 210.98148099999997,
            "velocity": 1
          },
          {
            "duration": 0.05039043749999905,
            "durationTicks": 45,
            "midi": 77,
            "name": "F5",
            "ticks": 172080,
            "time": 210.98148099999997,
            "velocity": 1
          },
          {
            "duration": 0.061588312499992526,
            "durationTicks": 55,
            "midi": 65,
            "name": "F4",
            "ticks": 172320,
            "time": 211.25022999999996,
            "velocity": 1
          },
          {
            "duration": 0.061588312499992526,
            "durationTicks": 55,
            "midi": 70,
            "name": "A#4",
            "ticks": 172320,
            "time": 211.25022999999996,
            "velocity": 1
          },
          {
            "duration": 0.05934873749998815,
            "durationTicks": 53,
            "midi": 65,
            "name": "F4",
            "ticks": 172560,
            "time": 211.51897899999997,
            "velocity": 1
          },
          {
            "duration": 0.05934873749998815,
            "durationTicks": 53,
            "midi": 70,
            "name": "A#4",
            "ticks": 172560,
            "time": 211.51897899999997,
            "velocity": 1
          },
          {
            "duration": 0.05039043749999905,
            "durationTicks": 45,
            "midi": 65,
            "name": "F4",
            "ticks": 172680,
            "time": 211.65335349999995,
            "velocity": 1
          },
          {
            "duration": 0.05039043749999905,
            "durationTicks": 45,
            "midi": 70,
            "name": "A#4",
            "ticks": 172680,
            "time": 211.65335349999995,
            "velocity": 1
          },
          {
            "duration": 0.07054661250001004,
            "durationTicks": 63,
            "midi": 65,
            "name": "F4",
            "ticks": 172800,
            "time": 211.78772799999996,
            "velocity": 1
          },
          {
            "duration": 0.07054661250001004,
            "durationTicks": 63,
            "midi": 70,
            "name": "A#4",
            "ticks": 172800,
            "time": 211.78772799999996,
            "velocity": 1
          },
          {
            "duration": 0.05934873749998815,
            "durationTicks": 53,
            "midi": 65,
            "name": "F4",
            "ticks": 173040,
            "time": 212.05647699999997,
            "velocity": 1
          },
          {
            "duration": 0.05934873749998815,
            "durationTicks": 53,
            "midi": 70,
            "name": "A#4",
            "ticks": 173040,
            "time": 212.05647699999997,
            "velocity": 1
          },
          {
            "duration": 0.07054661250001004,
            "durationTicks": 63,
            "midi": 65,
            "name": "F4",
            "ticks": 173280,
            "time": 212.32522599999996,
            "velocity": 1
          },
          {
            "duration": 0.07054661250001004,
            "durationTicks": 63,
            "midi": 70,
            "name": "A#4",
            "ticks": 173280,
            "time": 212.32522599999996,
            "velocity": 1
          },
          {
            "duration": 0.07054661250001004,
            "durationTicks": 63,
            "midi": 75,
            "name": "D#5",
            "ticks": 173280,
            "time": 212.32522599999996,
            "velocity": 1
          },
          {
            "duration": 0.07166639999999802,
            "durationTicks": 64,
            "midi": 63,
            "name": "D#4",
            "ticks": 173760,
            "time": 212.86272399999996,
            "velocity": 1
          },
          {
            "duration": 0.07166639999999802,
            "durationTicks": 64,
            "midi": 70,
            "name": "A#4",
            "ticks": 173760,
            "time": 212.86272399999996,
            "velocity": 1
          },
          {
            "duration": 0.07166639999999802,
            "durationTicks": 64,
            "midi": 75,
            "name": "D#5",
            "ticks": 173760,
            "time": 212.86272399999996,
            "velocity": 1
          },
          {
            "duration": 0.07083280000000514,
            "durationTicks": 64,
            "midi": 65,
            "name": "F4",
            "ticks": 180240,
            "time": 220.04704899999996,
            "velocity": 1
          },
          {
            "duration": 0.07968689999998446,
            "durationTicks": 72,
            "midi": 65,
            "name": "F4",
            "ticks": 180360,
            "time": 220.17986049999996,
            "velocity": 1
          },
          {
            "duration": 0.07968689999998446,
            "durationTicks": 72,
            "midi": 63,
            "name": "D#4",
            "ticks": 180480,
            "time": 220.31267199999996,
            "velocity": 1
          },
          {
            "duration": 0.049804312499986736,
            "durationTicks": 45,
            "midi": 63,
            "name": "D#4",
            "ticks": 180720,
            "time": 220.57829499999997,
            "velocity": 1
          },
          {
            "duration": 0.09186128750002354,
            "durationTicks": 83,
            "midi": 63,
            "name": "D#4",
            "ticks": 180960,
            "time": 220.84391799999995,
            "velocity": 1
          },
          {
            "duration": 0.07083280000000514,
            "durationTicks": 64,
            "midi": 63,
            "name": "D#4",
            "ticks": 181200,
            "time": 221.10954099999995,
            "velocity": 1
          },
          {
            "duration": 0.08063610416667188,
            "durationTicks": 73,
            "midi": 65,
            "name": "F4",
            "ticks": 183360,
            "time": 223.49807599999994,
            "velocity": 1
          },
          {
            "duration": 0.07179927083333837,
            "durationTicks": 65,
            "midi": 70,
            "name": "A#4",
            "ticks": 183360,
            "time": 223.49807599999994,
            "velocity": 1
          },
          {
            "duration": 0.08063610416667188,
            "durationTicks": 73,
            "midi": 73,
            "name": "C#5",
            "ticks": 183360,
            "time": 223.49807599999994,
            "velocity": 1
          },
          {
            "duration": 0.0894729375000054,
            "durationTicks": 81,
            "midi": 65,
            "name": "F4",
            "ticks": 183600,
            "time": 223.76318099999995,
            "velocity": 1
          },
          {
            "duration": 0.08063610416667188,
            "durationTicks": 73,
            "midi": 70,
            "name": "A#4",
            "ticks": 183600,
            "time": 223.76318099999995,
            "velocity": 1
          },
          {
            "duration": 0.0894729375000054,
            "durationTicks": 81,
            "midi": 73,
            "name": "C#5",
            "ticks": 183600,
            "time": 223.76318099999995,
            "velocity": 1
          },
          {
            "duration": 0.09168214583331746,
            "durationTicks": 83,
            "midi": 65,
            "name": "F4",
            "ticks": 183840,
            "time": 224.02828599999995,
            "velocity": 1
          },
          {
            "duration": 0.07953150000000164,
            "durationTicks": 72,
            "midi": 70,
            "name": "A#4",
            "ticks": 183840,
            "time": 224.02828599999995,
            "velocity": 1
          },
          {
            "duration": 0.09168214583331746,
            "durationTicks": 83,
            "midi": 73,
            "name": "C#5",
            "ticks": 183840,
            "time": 224.02828599999995,
            "velocity": 1
          },
          {
            "duration": 0.11046041666665474,
            "durationTicks": 100,
            "midi": 65,
            "name": "F4",
            "ticks": 184080,
            "time": 224.29339099999996,
            "velocity": 1
          },
          {
            "duration": 0.09168214583331746,
            "durationTicks": 83,
            "midi": 70,
            "name": "A#4",
            "ticks": 184080,
            "time": 224.29339099999996,
            "velocity": 1
          },
          {
            "duration": 0.10051897916665098,
            "durationTicks": 91,
            "midi": 73,
            "name": "C#5",
            "ticks": 184080,
            "time": 224.29339099999996,
            "velocity": 1
          },
          {
            "duration": 0.10051897916665098,
            "durationTicks": 91,
            "midi": 65,
            "name": "F4",
            "ticks": 184200,
            "time": 224.42594349999996,
            "velocity": 1
          },
          {
            "duration": 0.08947293749997698,
            "durationTicks": 81,
            "midi": 70,
            "name": "A#4",
            "ticks": 184200,
            "time": 224.42594349999996,
            "velocity": 1
          },
          {
            "duration": 0.08947293749997698,
            "durationTicks": 81,
            "midi": 73,
            "name": "C#5",
            "ticks": 184200,
            "time": 224.42594349999996,
            "velocity": 1
          },
          {
            "duration": 0.09078038541667866,
            "durationTicks": 83,
            "midi": 65,
            "name": "F4",
            "ticks": 184320,
            "time": 224.55849599999993,
            "velocity": 1
          },
          {
            "duration": 0.07109307291665345,
            "durationTicks": 65,
            "midi": 70,
            "name": "A#4",
            "ticks": 184320,
            "time": 224.55849599999993,
            "velocity": 1
          },
          {
            "duration": 0.07109307291665345,
            "durationTicks": 65,
            "midi": 73,
            "name": "C#5",
            "ticks": 184320,
            "time": 224.55849599999993,
            "velocity": 1
          },
          {
            "duration": 0.07874925000001554,
            "durationTicks": 72,
            "midi": 65,
            "name": "F4",
            "ticks": 184560,
            "time": 224.82099349999993,
            "velocity": 1
          },
          {
            "duration": 0.0699993333333282,
            "durationTicks": 64,
            "midi": 70,
            "name": "A#4",
            "ticks": 184560,
            "time": 224.82099349999993,
            "velocity": 1
          },
          {
            "duration": 0.07874925000001554,
            "durationTicks": 72,
            "midi": 73,
            "name": "C#5",
            "ticks": 184560,
            "time": 224.82099349999993,
            "velocity": 1
          },
          {
            "duration": 0.09734282291668706,
            "durationTicks": 89,
            "midi": 65,
            "name": "F4",
            "ticks": 184800,
            "time": 225.08349099999992,
            "velocity": 1
          },
          {
            "duration": 0.08859290624999971,
            "durationTicks": 81,
            "midi": 70,
            "name": "A#4",
            "ticks": 184800,
            "time": 225.08349099999992,
            "velocity": 1
          },
          {
            "duration": 0.09734282291668706,
            "durationTicks": 89,
            "midi": 73,
            "name": "C#5",
            "ticks": 184800,
            "time": 225.08349099999992,
            "velocity": 1
          },
          {
            "duration": 0.057968197916665076,
            "durationTicks": 53,
            "midi": 65,
            "name": "F4",
            "ticks": 185040,
            "time": 225.34598849999995,
            "velocity": 1
          },
          {
            "duration": 0.057968197916665076,
            "durationTicks": 53,
            "midi": 70,
            "name": "A#4",
            "ticks": 185040,
            "time": 225.34598849999995,
            "velocity": 1
          },
          {
            "duration": 0.057968197916665076,
            "durationTicks": 53,
            "midi": 73,
            "name": "C#5",
            "ticks": 185040,
            "time": 225.34598849999995,
            "velocity": 1
          }
        ]
      },
      {
        "channel": 0,
        "controlChanges": {},
        "pitchBends": [],
        "instrument": {
          "family": "piano",
          "number": 0,
          "name": "acoustic grand piano"
        },
        "name": "transcribed (4)",
        "notes": [],
        "endOfTrackTicks": 155408
      },
      {
        "channel": 12,
        "controlChanges": {},
        "pitchBends": [],
        "instrument": {
          "family": "ensemble",
          "number": 52,
          "name": "choir aahs"
        },
        "name": "",
        "notes": [
          {
            "duration": 0.2202114208333512,
            "durationTicks": 194,
            "midi": 72,
            "name": "C5",
            "ticks": 153360,
            "time": 189.93602149999998,
            "velocity": 1
          },
          {
            "duration": 0.09988971666666657,
            "durationTicks": 88,
            "midi": 70,
            "name": "A#4",
            "ticks": 153600,
            "time": 190.208448,
            "velocity": 1
          },
          {
            "duration": 0.038593754166669214,
            "durationTicks": 34,
            "midi": 70,
            "name": "A#4",
            "ticks": 153840,
            "time": 190.4808745,
            "velocity": 1
          }
        ]
      },
      {
        "channel": 0,
        "controlChanges": {},
        "pitchBends": [],
        "instrument": {
          "family": "piano",
          "number": 0,
          "name": "acoustic grand piano"
        },
        "name": "transcribed (4)",
        "notes": [],
        "endOfTrackTicks": 185876
      },
      {
        "channel": 13,
        "controlChanges": {},
        "pitchBends": [],
        "instrument": {
          "family": "guitar",
          "number": 26,
          "name": "electric guitar (jazz)"
        },
        "name": "",
        "notes": [
          {
            "duration": 0.029791666666653782,
            "durationTicks": 26,
            "midi": 65,
            "name": "F4",
            "ticks": 156960,
            "time": 194.03786,
            "velocity": 1
          },
          {
            "duration": 0.050416666666649235,
            "durationTicks": 44,
            "midi": 65,
            "name": "F4",
            "ticks": 157200,
            "time": 194.31286,
            "velocity": 1
          },
          {
            "duration": 0.06302083333332575,
            "durationTicks": 55,
            "midi": 65,
            "name": "F4",
            "ticks": 157320,
            "time": 194.45036,
            "velocity": 1
          },
          {
            "duration": 0.07992795416666354,
            "durationTicks": 71,
            "midi": 65,
            "name": "F4",
            "ticks": 157440,
            "time": 194.58785999999998,
            "velocity": 1
          },
          {
            "duration": 0.051079968750002536,
            "durationTicks": 45,
            "midi": 58,
            "name": "A#3",
            "ticks": 164880,
            "time": 202.96537349999997,
            "velocity": 1
          },
          {
            "duration": 0.051079968750002536,
            "durationTicks": 45,
            "midi": 61,
            "name": "C#4",
            "ticks": 164880,
            "time": 202.96537349999997,
            "velocity": 1
          },
          {
            "duration": 0.051079968750002536,
            "durationTicks": 45,
            "midi": 65,
            "name": "F4",
            "ticks": 164880,
            "time": 202.96537349999997,
            "velocity": 1
          },
          {
            "duration": 0.05854335833333835,
            "durationTicks": 53,
            "midi": 58,
            "name": "A#3",
            "ticks": 165120,
            "time": 203.23779999999996,
            "velocity": 1
          },
          {
            "duration": 0.05854335833333835,
            "durationTicks": 53,
            "midi": 63,
            "name": "D#4",
            "ticks": 165120,
            "time": 203.23779999999996,
            "velocity": 1
          },
          {
            "duration": 0.05854335833333835,
            "durationTicks": 53,
            "midi": 65,
            "name": "F4",
            "ticks": 165120,
            "time": 203.23779999999996,
            "velocity": 1
          },
          {
            "duration": 0.061857133333319325,
            "durationTicks": 56,
            "midi": 58,
            "name": "A#3",
            "ticks": 165360,
            "time": 203.50290199999998,
            "velocity": 1
          },
          {
            "duration": 0.061857133333319325,
            "durationTicks": 56,
            "midi": 63,
            "name": "D#4",
            "ticks": 165360,
            "time": 203.50290199999998,
            "velocity": 1
          },
          {
            "duration": 0.061857133333319325,
            "durationTicks": 56,
            "midi": 65,
            "name": "F4",
            "ticks": 165360,
            "time": 203.50290199999998,
            "velocity": 1
          },
          {
            "duration": 0.06958927499999845,
            "durationTicks": 63,
            "midi": 58,
            "name": "A#3",
            "ticks": 165600,
            "time": 203.76800399999996,
            "velocity": 1
          },
          {
            "duration": 0.06958927499999845,
            "durationTicks": 63,
            "midi": 63,
            "name": "D#4",
            "ticks": 165600,
            "time": 203.76800399999996,
            "velocity": 1
          },
          {
            "duration": 0.06958927499999845,
            "durationTicks": 63,
            "midi": 65,
            "name": "F4",
            "ticks": 165600,
            "time": 203.76800399999996,
            "velocity": 1
          },
          {
            "duration": 0.058543358333309925,
            "durationTicks": 53,
            "midi": 58,
            "name": "A#3",
            "ticks": 165840,
            "time": 204.03310599999998,
            "velocity": 1
          },
          {
            "duration": 0.058543358333309925,
            "durationTicks": 53,
            "midi": 63,
            "name": "D#4",
            "ticks": 165840,
            "time": 204.03310599999998,
            "velocity": 1
          },
          {
            "duration": 0.058543358333309925,
            "durationTicks": 53,
            "midi": 65,
            "name": "F4",
            "ticks": 165840,
            "time": 204.03310599999998,
            "velocity": 1
          },
          {
            "duration": 0.07953059999999823,
            "durationTicks": 72,
            "midi": 58,
            "name": "A#3",
            "ticks": 166080,
            "time": 204.29820799999996,
            "velocity": 1
          },
          {
            "duration": 0.07953059999999823,
            "durationTicks": 72,
            "midi": 63,
            "name": "D#4",
            "ticks": 166080,
            "time": 204.29820799999996,
            "velocity": 1
          },
          {
            "duration": 0.07953059999999823,
            "durationTicks": 72,
            "midi": 66,
            "name": "F#4",
            "ticks": 166080,
            "time": 204.29820799999996,
            "velocity": 1
          },
          {
            "duration": 0.060752541666659,
            "durationTicks": 55,
            "midi": 58,
            "name": "A#3",
            "ticks": 166320,
            "time": 204.56330999999997,
            "velocity": 1
          },
          {
            "duration": 0.060752541666659,
            "durationTicks": 55,
            "midi": 63,
            "name": "D#4",
            "ticks": 166320,
            "time": 204.56330999999997,
            "velocity": 1
          },
          {
            "duration": 0.060752541666659,
            "durationTicks": 55,
            "midi": 65,
            "name": "F4",
            "ticks": 166320,
            "time": 204.56330999999997,
            "velocity": 1
          },
          {
            "duration": 0.07953059999999823,
            "durationTicks": 72,
            "midi": 58,
            "name": "A#3",
            "ticks": 166560,
            "time": 204.82841199999996,
            "velocity": 1
          },
          {
            "duration": 0.07953059999999823,
            "durationTicks": 72,
            "midi": 63,
            "name": "D#4",
            "ticks": 166560,
            "time": 204.82841199999996,
            "velocity": 1
          },
          {
            "duration": 0.07953059999999823,
            "durationTicks": 72,
            "midi": 66,
            "name": "F#4",
            "ticks": 166560,
            "time": 204.82841199999996,
            "velocity": 1
          },
          {
            "duration": 0.10029187500001058,
            "durationTicks": 90,
            "midi": 63,
            "name": "D#4",
            "ticks": 170400,
            "time": 209.10284599999994,
            "velocity": 1
          },
          {
            "duration": 0.090262687500001,
            "durationTicks": 81,
            "midi": 65,
            "name": "F4",
            "ticks": 170400,
            "time": 209.10284599999994,
            "velocity": 1
          },
          {
            "duration": 0.10029187500001058,
            "durationTicks": 90,
            "midi": 68,
            "name": "G#4",
            "ticks": 170400,
            "time": 209.10284599999994,
            "velocity": 1
          },
          {
            "duration": 0.07911914583334578,
            "durationTicks": 71,
            "midi": 63,
            "name": "D#4",
            "ticks": 170640,
            "time": 209.37029099999995,
            "velocity": 1
          },
          {
            "duration": 0.07020431250001025,
            "durationTicks": 63,
            "midi": 65,
            "name": "F4",
            "ticks": 170640,
            "time": 209.37029099999995,
            "velocity": 1
          },
          {
            "duration": 0.07911914583334578,
            "durationTicks": 71,
            "midi": 68,
            "name": "G#4",
            "ticks": 170640,
            "time": 209.37029099999995,
            "velocity": 1
          },
          {
            "duration": 0.01791660000000661,
            "durationTicks": 16,
            "midi": 65,
            "name": "F4",
            "ticks": 170880,
            "time": 209.63773599999996,
            "velocity": 1
          },
          {
            "duration": 0.030234262499988063,
            "durationTicks": 27,
            "midi": 70,
            "name": "A#4",
            "ticks": 170880,
            "time": 209.63773599999996,
            "velocity": 1
          },
          {
            "duration": 0.030234262499988063,
            "durationTicks": 27,
            "midi": 65,
            "name": "F4",
            "ticks": 171120,
            "time": 209.90648499999998,
            "velocity": 1
          },
          {
            "duration": 0.03807277499998918,
            "durationTicks": 34,
            "midi": 70,
            "name": "A#4",
            "ticks": 171120,
            "time": 209.90648499999998,
            "velocity": 1
          },
          {
            "duration": 0.030234262499988063,
            "durationTicks": 27,
            "midi": 65,
            "name": "F4",
            "ticks": 171360,
            "time": 210.17523399999996,
            "velocity": 1
          },
          {
            "duration": 0.04143213750000996,
            "durationTicks": 37,
            "midi": 70,
            "name": "A#4",
            "ticks": 171360,
            "time": 210.17523399999996,
            "velocity": 1
          },
          {
            "duration": 0.029114475000000084,
            "durationTicks": 26,
            "midi": 65,
            "name": "F4",
            "ticks": 171600,
            "time": 210.44398299999997,
            "velocity": 1
          },
          {
            "duration": 0.04031234999999356,
            "durationTicks": 36,
            "midi": 70,
            "name": "A#4",
            "ticks": 171600,
            "time": 210.44398299999997,
            "velocity": 1
          },
          {
            "duration": 0.05934873749998815,
            "durationTicks": 53,
            "midi": 65,
            "name": "F4",
            "ticks": 171840,
            "time": 210.71273199999996,
            "velocity": 1
          },
          {
            "duration": 0.05934873749998815,
            "durationTicks": 53,
            "midi": 70,
            "name": "A#4",
            "ticks": 171840,
            "time": 210.71273199999996,
            "velocity": 1
          },
          {
            "duration": 0.05039043749999905,
            "durationTicks": 45,
            "midi": 65,
            "name": "F4",
            "ticks": 172080,
            "time": 210.98148099999997,
            "velocity": 1
          },
          {
            "duration": 0.05039043749999905,
            "durationTicks": 45,
            "midi": 70,
            "name": "A#4",
            "ticks": 172080,
            "time": 210.98148099999997,
            "velocity": 1
          },
          {
            "duration": 0.05081179166666061,
            "durationTicks": 46,
            "midi": 61,
            "name": "C#4",
            "ticks": 183360,
            "time": 223.49807599999994,
            "velocity": 1
          },
          {
            "duration": 0.06185783333333461,
            "durationTicks": 56,
            "midi": 65,
            "name": "F4",
            "ticks": 183360,
            "time": 223.49807599999994,
            "velocity": 1
          },
          {
            "duration": 0.06185783333333461,
            "durationTicks": 56,
            "midi": 70,
            "name": "A#4",
            "ticks": 183360,
            "time": 223.49807599999994,
            "velocity": 1
          },
          {
            "duration": 0.06848545833332764,
            "durationTicks": 62,
            "midi": 61,
            "name": "C#4",
            "ticks": 183600,
            "time": 223.76318099999995,
            "velocity": 1
          },
          {
            "duration": 0.05081179166666061,
            "durationTicks": 46,
            "midi": 65,
            "name": "F4",
            "ticks": 183600,
            "time": 223.76318099999995,
            "velocity": 1
          },
          {
            "duration": 0.059648624999994126,
            "durationTicks": 54,
            "midi": 70,
            "name": "A#4",
            "ticks": 183600,
            "time": 223.76318099999995,
            "velocity": 1
          },
          {
            "duration": 0.07069466666666813,
            "durationTicks": 64,
            "midi": 61,
            "name": "C#4",
            "ticks": 183840,
            "time": 224.02828599999995,
            "velocity": 1
          },
          {
            "duration": 0.059648624999994126,
            "durationTicks": 54,
            "midi": 65,
            "name": "F4",
            "ticks": 183840,
            "time": 224.02828599999995,
            "velocity": 1
          },
          {
            "duration": 0.07069466666666813,
            "durationTicks": 64,
            "midi": 70,
            "name": "A#4",
            "ticks": 183840,
            "time": 224.02828599999995,
            "velocity": 1
          },
          {
            "duration": 0.07953150000000164,
            "durationTicks": 72,
            "midi": 61,
            "name": "C#4",
            "ticks": 184080,
            "time": 224.29339099999996,
            "velocity": 1
          },
          {
            "duration": 0.059648624999994126,
            "durationTicks": 54,
            "midi": 65,
            "name": "F4",
            "ticks": 184080,
            "time": 224.29339099999996,
            "velocity": 1
          },
          {
            "duration": 0.07069466666666813,
            "durationTicks": 64,
            "midi": 70,
            "name": "A#4",
            "ticks": 184080,
            "time": 224.29339099999996,
            "velocity": 1
          },
          {
            "duration": 0.06848545833332764,
            "durationTicks": 62,
            "midi": 61,
            "name": "C#4",
            "ticks": 184200,
            "time": 224.42594349999996,
            "velocity": 1
          },
          {
            "duration": 0.059648624999994126,
            "durationTicks": 54,
            "midi": 65,
            "name": "F4",
            "ticks": 184200,
            "time": 224.42594349999996,
            "velocity": 1
          },
          {
            "duration": 0.08063610416664346,
            "durationTicks": 73,
            "midi": 70,
            "name": "A#4",
            "ticks": 184200,
            "time": 224.42594349999996,
            "velocity": 1
          },
          {
            "duration": 0.061249416666669276,
            "durationTicks": 56,
            "midi": 61,
            "name": "C#4",
            "ticks": 184320,
            "time": 224.55849599999993,
            "velocity": 1
          },
          {
            "duration": 0.07109307291665345,
            "durationTicks": 65,
            "midi": 65,
            "name": "F4",
            "ticks": 184320,
            "time": 224.55849599999993,
            "velocity": 1
          },
          {
            "duration": 0.0798429895833408,
            "durationTicks": 73,
            "midi": 70,
            "name": "A#4",
            "ticks": 184320,
            "time": 224.55849599999993,
            "velocity": 1
          },
          {
            "duration": 0.05906193750001876,
            "durationTicks": 54,
            "midi": 61,
            "name": "C#4",
            "ticks": 184560,
            "time": 224.82099349999993,
            "velocity": 1
          },
          {
            "duration": 0.05031202083333142,
            "durationTicks": 46,
            "midi": 65,
            "name": "F4",
            "ticks": 184560,
            "time": 224.82099349999993,
            "velocity": 1
          },
          {
            "duration": 0.05906193750001876,
            "durationTicks": 54,
            "midi": 70,
            "name": "A#4",
            "ticks": 184560,
            "time": 224.82099349999993,
            "velocity": 1
          },
          {
            "duration": 0.06890559375000294,
            "durationTicks": 63,
            "midi": 61,
            "name": "C#4",
            "ticks": 184800,
            "time": 225.08349099999992,
            "velocity": 1
          },
          {
            "duration": 0.07765551041669028,
            "durationTicks": 71,
            "midi": 65,
            "name": "F4",
            "ticks": 184800,
            "time": 225.08349099999992,
            "velocity": 1
          },
          {
            "duration": 0.07765551041669028,
            "durationTicks": 71,
            "midi": 70,
            "name": "A#4",
            "ticks": 184800,
            "time": 225.08349099999992,
            "velocity": 1
          },
          {
            "duration": 0.057968197916665076,
            "durationTicks": 53,
            "midi": 61,
            "name": "C#4",
            "ticks": 185040,
            "time": 225.34598849999995,
            "velocity": 1
          },
          {
            "duration": 0.057968197916665076,
            "durationTicks": 53,
            "midi": 65,
            "name": "F4",
            "ticks": 185040,
            "time": 225.34598849999995,
            "velocity": 1
          },
          {
            "duration": 0.057968197916665076,
            "durationTicks": 53,
            "midi": 70,
            "name": "A#4",
            "ticks": 185040,
            "time": 225.34598849999995,
            "velocity": 1
          }
        ]
      },
      {
        "channel": 0,
        "controlChanges": {},
        "pitchBends": [],
        "instrument": {
          "family": "piano",
          "number": 0,
          "name": "acoustic grand piano"
        },
        "name": "transcribed (4)",
        "notes": [],
        "endOfTrackTicks": 218122
      },
      {
        "channel": 14,
        "controlChanges": {},
        "pitchBends": [],
        "instrument": {
          "family": "ensemble",
          "number": 50,
          "name": "synthstrings 1"
        },
        "name": "",
        "notes": [
          {
            "duration": 0.06356618333333586,
            "durationTicks": 56,
            "midi": 53,
            "name": "F3",
            "ticks": 164880,
            "time": 202.96537349999997,
            "velocity": 1
          },
          {
            "duration": 0.06356618333333586,
            "durationTicks": 56,
            "midi": 58,
            "name": "A#3",
            "ticks": 164880,
            "time": 202.96537349999997,
            "velocity": 1
          },
          {
            "duration": 0.06356618333333586,
            "durationTicks": 56,
            "midi": 61,
            "name": "C#4",
            "ticks": 164880,
            "time": 202.96537349999997,
            "velocity": 1
          },
          {
            "duration": 0.06356618333333586,
            "durationTicks": 56,
            "midi": 65,
            "name": "F4",
            "ticks": 164880,
            "time": 202.96537349999997,
            "velocity": 1
          },
          {
            "duration": 0.06129596249999736,
            "durationTicks": 54,
            "midi": 53,
            "name": "F3",
            "ticks": 165000,
            "time": 203.10158674999997,
            "velocity": 1
          },
          {
            "duration": 0.06129596249999736,
            "durationTicks": 54,
            "midi": 58,
            "name": "A#3",
            "ticks": 165000,
            "time": 203.10158674999997,
            "velocity": 1
          },
          {
            "duration": 0.06129596249999736,
            "durationTicks": 54,
            "midi": 61,
            "name": "C#4",
            "ticks": 165000,
            "time": 203.10158674999997,
            "velocity": 1
          },
          {
            "duration": 0.06129596249999736,
            "durationTicks": 54,
            "midi": 65,
            "name": "F4",
            "ticks": 165000,
            "time": 203.10158674999997,
            "velocity": 1
          },
          {
            "duration": 0.060752541666659,
            "durationTicks": 55,
            "midi": 51,
            "name": "D#3",
            "ticks": 166800,
            "time": 205.09351399999997,
            "velocity": 1
          },
          {
            "duration": 0.060752541666659,
            "durationTicks": 55,
            "midi": 63,
            "name": "D#4",
            "ticks": 166800,
            "time": 205.09351399999997,
            "velocity": 1
          },
          {
            "duration": 0.11143541666666579,
            "durationTicks": 100,
            "midi": 46,
            "name": "A#2",
            "ticks": 167040,
            "time": 205.35861599999996,
            "velocity": 1
          },
          {
            "duration": 0.11143541666666579,
            "durationTicks": 100,
            "midi": 53,
            "name": "F3",
            "ticks": 167040,
            "time": 205.35861599999996,
            "velocity": 1
          },
          {
            "duration": 0.11143541666666579,
            "durationTicks": 100,
            "midi": 63,
            "name": "D#4",
            "ticks": 167040,
            "time": 205.35861599999996,
            "velocity": 1
          },
          {
            "duration": 0.11143541666666579,
            "durationTicks": 100,
            "midi": 70,
            "name": "A#4",
            "ticks": 167040,
            "time": 205.35861599999996,
            "velocity": 1
          },
          {
            "duration": 0.11143541666666579,
            "durationTicks": 100,
            "midi": 75,
            "name": "D#5",
            "ticks": 167040,
            "time": 205.35861599999996,
            "velocity": 1
          },
          {
            "duration": 0.08023349999999141,
            "durationTicks": 72,
            "midi": 46,
            "name": "A#2",
            "ticks": 167280,
            "time": 205.62606099999996,
            "velocity": 1
          },
          {
            "duration": 0.08023349999999141,
            "durationTicks": 72,
            "midi": 53,
            "name": "F3",
            "ticks": 167280,
            "time": 205.62606099999996,
            "velocity": 1
          },
          {
            "duration": 0.08023349999999141,
            "durationTicks": 72,
            "midi": 63,
            "name": "D#4",
            "ticks": 167280,
            "time": 205.62606099999996,
            "velocity": 1
          },
          {
            "duration": 0.08023349999999141,
            "durationTicks": 72,
            "midi": 70,
            "name": "A#4",
            "ticks": 167280,
            "time": 205.62606099999996,
            "velocity": 1
          },
          {
            "duration": 0.08023349999999141,
            "durationTicks": 72,
            "midi": 75,
            "name": "D#5",
            "ticks": 167280,
            "time": 205.62606099999996,
            "velocity": 1
          },
          {
            "duration": 0.08023350000001983,
            "durationTicks": 72,
            "midi": 46,
            "name": "A#2",
            "ticks": 167520,
            "time": 205.89350599999995,
            "velocity": 1
          },
          {
            "duration": 0.08023350000001983,
            "durationTicks": 72,
            "midi": 53,
            "name": "F3",
            "ticks": 167520,
            "time": 205.89350599999995,
            "velocity": 1
          },
          {
            "duration": 0.08023350000001983,
            "durationTicks": 72,
            "midi": 63,
            "name": "D#4",
            "ticks": 167520,
            "time": 205.89350599999995,
            "velocity": 1
          },
          {
            "duration": 0.08023350000001983,
            "durationTicks": 72,
            "midi": 70,
            "name": "A#4",
            "ticks": 167520,
            "time": 205.89350599999995,
            "velocity": 1
          },
          {
            "duration": 0.08023350000001983,
            "durationTicks": 72,
            "midi": 75,
            "name": "D#5",
            "ticks": 167520,
            "time": 205.89350599999995,
            "velocity": 1
          },
          {
            "duration": 0.08134785416666546,
            "durationTicks": 73,
            "midi": 46,
            "name": "A#2",
            "ticks": 167760,
            "time": 206.16095099999995,
            "velocity": 1
          },
          {
            "duration": 0.08134785416666546,
            "durationTicks": 73,
            "midi": 53,
            "name": "F3",
            "ticks": 167760,
            "time": 206.16095099999995,
            "velocity": 1
          },
          {
            "duration": 0.08134785416666546,
            "durationTicks": 73,
            "midi": 61,
            "name": "C#4",
            "ticks": 167760,
            "time": 206.16095099999995,
            "velocity": 1
          },
          {
            "duration": 0.08134785416666546,
            "durationTicks": 73,
            "midi": 65,
            "name": "F4",
            "ticks": 167760,
            "time": 206.16095099999995,
            "velocity": 1
          },
          {
            "duration": 0.08134785416666546,
            "durationTicks": 73,
            "midi": 70,
            "name": "A#4",
            "ticks": 167760,
            "time": 206.16095099999995,
            "velocity": 1
          },
          {
            "duration": 0.08134785416666546,
            "durationTicks": 73,
            "midi": 75,
            "name": "D#5",
            "ticks": 167760,
            "time": 206.16095099999995,
            "velocity": 1
          },
          {
            "duration": 0.08023349999999141,
            "durationTicks": 72,
            "midi": 46,
            "name": "A#2",
            "ticks": 168000,
            "time": 206.42839599999996,
            "velocity": 1
          },
          {
            "duration": 0.08023349999999141,
            "durationTicks": 72,
            "midi": 53,
            "name": "F3",
            "ticks": 168000,
            "time": 206.42839599999996,
            "velocity": 1
          },
          {
            "duration": 0.08023349999999141,
            "durationTicks": 72,
            "midi": 61,
            "name": "C#4",
            "ticks": 168000,
            "time": 206.42839599999996,
            "velocity": 1
          },
          {
            "duration": 0.08023349999999141,
            "durationTicks": 72,
            "midi": 65,
            "name": "F4",
            "ticks": 168000,
            "time": 206.42839599999996,
            "velocity": 1
          },
          {
            "duration": 0.08023349999999141,
            "durationTicks": 72,
            "midi": 70,
            "name": "A#4",
            "ticks": 168000,
            "time": 206.42839599999996,
            "velocity": 1
          },
          {
            "duration": 0.08023349999999141,
            "durationTicks": 72,
            "midi": 75,
            "name": "D#5",
            "ticks": 168000,
            "time": 206.42839599999996,
            "velocity": 1
          },
          {
            "duration": 0.07020431250001025,
            "durationTicks": 63,
            "midi": 46,
            "name": "A#2",
            "ticks": 168240,
            "time": 206.69584099999994,
            "velocity": 1
          },
          {
            "duration": 0.07020431250001025,
            "durationTicks": 63,
            "midi": 53,
            "name": "F3",
            "ticks": 168240,
            "time": 206.69584099999994,
            "velocity": 1
          },
          {
            "duration": 0.07020431250001025,
            "durationTicks": 63,
            "midi": 61,
            "name": "C#4",
            "ticks": 168240,
            "time": 206.69584099999994,
            "velocity": 1
          },
          {
            "duration": 0.07020431250001025,
            "durationTicks": 63,
            "midi": 65,
            "name": "F4",
            "ticks": 168240,
            "time": 206.69584099999994,
            "velocity": 1
          },
          {
            "duration": 0.07020431250001025,
            "durationTicks": 63,
            "midi": 70,
            "name": "A#4",
            "ticks": 168240,
            "time": 206.69584099999994,
            "velocity": 1
          },
          {
            "duration": 0.07020431250001025,
            "durationTicks": 63,
            "midi": 75,
            "name": "D#5",
            "ticks": 168240,
            "time": 206.69584099999994,
            "velocity": 1
          },
          {
            "duration": 0.2611959500000012,
            "durationTicks": 236,
            "midi": 68,
            "name": "G#4",
            "ticks": 177840,
            "time": 217.39081899999996,
            "velocity": 1
          },
          {
            "duration": 0.2611959500000012,
            "durationTicks": 236,
            "midi": 80,
            "name": "G#5",
            "ticks": 177840,
            "time": 217.39081899999996,
            "velocity": 1
          },
          {
            "duration": 0.4415982374999885,
            "durationTicks": 399,
            "midi": 65,
            "name": "F4",
            "ticks": 178080,
            "time": 217.65644199999997,
            "velocity": 1
          },
          {
            "duration": 0.4415982374999885,
            "durationTicks": 399,
            "midi": 77,
            "name": "F5",
            "ticks": 178080,
            "time": 217.65644199999997,
            "velocity": 1
          },
          {
            "duration": 0.07083280000000514,
            "durationTicks": 64,
            "midi": 65,
            "name": "F4",
            "ticks": 178560,
            "time": 218.18768799999995,
            "velocity": 1
          },
          {
            "duration": 0.07083280000000514,
            "durationTicks": 64,
            "midi": 75,
            "name": "D#5",
            "ticks": 178560,
            "time": 218.18768799999995,
            "velocity": 1
          },
          {
            "duration": 0.2711568125000099,
            "durationTicks": 245,
            "midi": 65,
            "name": "F4",
            "ticks": 178800,
            "time": 218.45331099999996,
            "velocity": 1
          },
          {
            "duration": 0.2711568125000099,
            "durationTicks": 245,
            "midi": 77,
            "name": "F5",
            "ticks": 178800,
            "time": 218.45331099999996,
            "velocity": 1
          },
          {
            "duration": 0.25898242499999924,
            "durationTicks": 234,
            "midi": 63,
            "name": "D#4",
            "ticks": 179040,
            "time": 218.71893399999996,
            "velocity": 1
          },
          {
            "duration": 0.25898242499999924,
            "durationTicks": 234,
            "midi": 75,
            "name": "D#5",
            "ticks": 179040,
            "time": 218.71893399999996,
            "velocity": 1
          },
          {
            "duration": 0.25898242499999924,
            "durationTicks": 234,
            "midi": 65,
            "name": "F4",
            "ticks": 179280,
            "time": 218.98455699999997,
            "velocity": 1
          },
          {
            "duration": 0.25898242499999924,
            "durationTicks": 234,
            "midi": 77,
            "name": "F5",
            "ticks": 179280,
            "time": 218.98455699999997,
            "velocity": 1
          },
          {
            "duration": 0.08135773958332493,
            "durationTicks": 73,
            "midi": 77,
            "name": "F5",
            "ticks": 201840,
            "time": 243.85494949999992,
            "velocity": 1
          },
          {
            "duration": 0.2496456666666802,
            "durationTicks": 224,
            "midi": 75,
            "name": "D#5",
            "ticks": 202080,
            "time": 244.1224269999999,
            "velocity": 1
          },
          {
            "duration": 0.2708209687500016,
            "durationTicks": 243,
            "midi": 77,
            "name": "F5",
            "ticks": 202320,
            "time": 244.38990449999991,
            "velocity": 1
          },
          {
            "duration": 0.5204666354166818,
            "durationTicks": 467,
            "midi": 77,
            "name": "F5",
            "ticks": 202560,
            "time": 244.6573819999999,
            "velocity": 1
          },
          {
            "duration": 0.25967607291667605,
            "durationTicks": 233,
            "midi": 77,
            "name": "F5",
            "ticks": 203040,
            "time": 245.1923369999999,
            "velocity": 1
          },
          {
            "duration": 0.12036487500000703,
            "durationTicks": 108,
            "midi": 77,
            "name": "F5",
            "ticks": 203280,
            "time": 245.4598144999999,
            "velocity": 1
          },
          {
            "duration": 0.06798386458333994,
            "durationTicks": 61,
            "midi": 77,
            "name": "F5",
            "ticks": 203400,
            "time": 245.5935532499999,
            "velocity": 1
          },
          {
            "duration": 1.8455947500000036,
            "durationTicks": 1656,
            "midi": 82,
            "name": "A#5",
            "ticks": 203520,
            "time": 245.7272919999999,
            "velocity": 1
          },
          {
            "duration": 0.2708083937500021,
            "durationTicks": 243,
            "midi": 85,
            "name": "C#6",
            "ticks": 205200,
            "time": 247.5996344999999,
            "velocity": 1
          },
          {
            "duration": 2.1372686250000186,
            "durationTicks": 1925,
            "midi": 84,
            "name": "C6",
            "ticks": 205440,
            "time": 247.8671119999999,
            "velocity": 1
          },
          {
            "duration": 2.1552366208333353,
            "durationTicks": 1918,
            "midi": 43,
            "name": "G2",
            "ticks": 209280,
            "time": 252.10958799999992,
            "velocity": 1
          },
          {
            "duration": 1.9484777375000135,
            "durationTicks": 1734,
            "midi": 58,
            "name": "A#3",
            "ticks": 209280,
            "time": 252.10958799999992,
            "velocity": 1
          },
          {
            "duration": 0.23934588124998868,
            "durationTicks": 213,
            "midi": 75,
            "name": "D#5",
            "ticks": 210480,
            "time": 253.45801549999993,
            "velocity": 1
          },
          {
            "duration": 0.2685618104166849,
            "durationTicks": 239,
            "midi": 73,
            "name": "C#5",
            "ticks": 210720,
            "time": 253.7277009999999,
            "velocity": 1
          },
          {
            "duration": 0.05843185833333564,
            "durationTicks": 52,
            "midi": 72,
            "name": "C5",
            "ticks": 210960,
            "time": 253.99738649999992,
            "velocity": 1
          },
          {
            "duration": 2.1387381999999775,
            "durationTicks": 1888,
            "midi": 42,
            "name": "F#2",
            "ticks": 211200,
            "time": 254.26707199999993,
            "velocity": 1
          },
          {
            "duration": 1.0251896562500065,
            "durationTicks": 905,
            "midi": 41,
            "name": "F2",
            "ticks": 213120,
            "time": 256.4420599999999,
            "velocity": 1
          },
          {
            "duration": 1.0251896562500065,
            "durationTicks": 905,
            "midi": 73,
            "name": "C#5",
            "ticks": 213120,
            "time": 256.4420599999999,
            "velocity": 1
          },
          {
            "duration": 1.0931580312500273,
            "durationTicks": 965,
            "midi": 39,
            "name": "D#2",
            "ticks": 213960,
            "time": 257.3936172499999,
            "velocity": 1
          },
          {
            "duration": 0.6490979812500086,
            "durationTicks": 573,
            "midi": 75,
            "name": "D#5",
            "ticks": 213960,
            "time": 257.3936172499999,
            "velocity": 1
          },
          {
            "duration": 1.021865916666684,
            "durationTicks": 872,
            "midi": 44,
            "name": "G#2",
            "ticks": 215040,
            "time": 258.61704799999995,
            "velocity": 1
          },
          {
            "duration": 0.3820278541666653,
            "durationTicks": 326,
            "midi": 32,
            "name": "G#1",
            "ticks": 216000,
            "time": 259.742038,
            "velocity": 1
          }
        ]
      },
      {
        "channel": 0,
        "controlChanges": {},
        "pitchBends": [],
        "instrument": {
          "family": "piano",
          "number": 0,
          "name": "acoustic grand piano"
        },
        "name": "transcribed (4)",
        "notes": [],
        "endOfTrackTicks": 167849
      },
      {
        "channel": 15,
        "controlChanges": {},
        "pitchBends": [],
        "instrument": {
          "family": "synth lead",
          "number": 80,
          "name": "lead 1 (square)"
        },
        "name": "",
        "notes": [
          {
            "duration": 0.20545498541665097,
            "durationTicks": 181,
            "midi": 53,
            "name": "F3",
            "ticks": 164880,
            "time": 202.96537349999997,
            "velocity": 1
          },
          {
            "duration": 0.20545498541665097,
            "durationTicks": 181,
            "midi": 58,
            "name": "A#3",
            "ticks": 164880,
            "time": 202.96537349999997,
            "velocity": 1
          },
          {
            "duration": 0.20545498541665097,
            "durationTicks": 181,
            "midi": 61,
            "name": "C#4",
            "ticks": 164880,
            "time": 202.96537349999997,
            "velocity": 1
          },
          {
            "duration": 0.20545498541665097,
            "durationTicks": 181,
            "midi": 65,
            "name": "F4",
            "ticks": 164880,
            "time": 202.96537349999997,
            "velocity": 1
          },
          {
            "duration": 0.07953059999999823,
            "durationTicks": 72,
            "midi": 56,
            "name": "G#3",
            "ticks": 165120,
            "time": 203.23779999999996,
            "velocity": 1
          },
          {
            "duration": 0.07953059999999823,
            "durationTicks": 72,
            "midi": 58,
            "name": "A#3",
            "ticks": 165120,
            "time": 203.23779999999996,
            "velocity": 1
          },
          {
            "duration": 0.07953059999999823,
            "durationTicks": 72,
            "midi": 63,
            "name": "D#4",
            "ticks": 165120,
            "time": 203.23779999999996,
            "velocity": 1
          },
          {
            "duration": 0.07953059999999823,
            "durationTicks": 72,
            "midi": 65,
            "name": "F4",
            "ticks": 165120,
            "time": 203.23779999999996,
            "velocity": 1
          },
          {
            "duration": 0.07069386666665878,
            "durationTicks": 64,
            "midi": 56,
            "name": "G#3",
            "ticks": 165360,
            "time": 203.50290199999998,
            "velocity": 1
          },
          {
            "duration": 0.07069386666665878,
            "durationTicks": 64,
            "midi": 63,
            "name": "D#4",
            "ticks": 165360,
            "time": 203.50290199999998,
            "velocity": 1
          },
          {
            "duration": 0.07069386666665878,
            "durationTicks": 64,
            "midi": 65,
            "name": "F4",
            "ticks": 165360,
            "time": 203.50290199999998,
            "velocity": 1
          },
          {
            "duration": 0.0784260083333379,
            "durationTicks": 71,
            "midi": 56,
            "name": "G#3",
            "ticks": 165600,
            "time": 203.76800399999996,
            "velocity": 1
          },
          {
            "duration": 0.0784260083333379,
            "durationTicks": 71,
            "midi": 63,
            "name": "D#4",
            "ticks": 165600,
            "time": 203.76800399999996,
            "velocity": 1
          },
          {
            "duration": 0.0784260083333379,
            "durationTicks": 71,
            "midi": 65,
            "name": "F4",
            "ticks": 165600,
            "time": 203.76800399999996,
            "velocity": 1
          },
          {
            "duration": 0.06958927499999845,
            "durationTicks": 63,
            "midi": 56,
            "name": "G#3",
            "ticks": 165840,
            "time": 204.03310599999998,
            "velocity": 1
          },
          {
            "duration": 0.06958927499999845,
            "durationTicks": 63,
            "midi": 63,
            "name": "D#4",
            "ticks": 165840,
            "time": 204.03310599999998,
            "velocity": 1
          },
          {
            "duration": 0.06958927499999845,
            "durationTicks": 63,
            "midi": 65,
            "name": "F4",
            "ticks": 165840,
            "time": 204.03310599999998,
            "velocity": 1
          },
          {
            "duration": 0.09057651666665834,
            "durationTicks": 82,
            "midi": 56,
            "name": "G#3",
            "ticks": 166080,
            "time": 204.29820799999996,
            "velocity": 1
          },
          {
            "duration": 0.09057651666665834,
            "durationTicks": 82,
            "midi": 63,
            "name": "D#4",
            "ticks": 166080,
            "time": 204.29820799999996,
            "velocity": 1
          },
          {
            "duration": 0.09057651666665834,
            "durationTicks": 82,
            "midi": 65,
            "name": "F4",
            "ticks": 166080,
            "time": 204.29820799999996,
            "velocity": 1
          },
          {
            "duration": 0.06958927499999845,
            "durationTicks": 63,
            "midi": 56,
            "name": "G#3",
            "ticks": 166320,
            "time": 204.56330999999997,
            "velocity": 1
          },
          {
            "duration": 0.06958927499999845,
            "durationTicks": 63,
            "midi": 63,
            "name": "D#4",
            "ticks": 166320,
            "time": 204.56330999999997,
            "velocity": 1
          },
          {
            "duration": 0.06958927499999845,
            "durationTicks": 63,
            "midi": 65,
            "name": "F4",
            "ticks": 166320,
            "time": 204.56330999999997,
            "velocity": 1
          },
          {
            "duration": 0.07953059999999823,
            "durationTicks": 72,
            "midi": 56,
            "name": "G#3",
            "ticks": 166560,
            "time": 204.82841199999996,
            "velocity": 1
          },
          {
            "duration": 0.07953059999999823,
            "durationTicks": 72,
            "midi": 63,
            "name": "D#4",
            "ticks": 166560,
            "time": 204.82841199999996,
            "velocity": 1
          },
          {
            "duration": 0.07953059999999823,
            "durationTicks": 72,
            "midi": 65,
            "name": "F4",
            "ticks": 166560,
            "time": 204.82841199999996,
            "velocity": 1
          }
        ]
      },
      {
        "channel": 0,
        "controlChanges": {},
        "pitchBends": [],
        "instrument": {
          "family": "piano",
          "number": 0,
          "name": "acoustic grand piano"
        },
        "name": "transcribed (4)",
        "notes": [],
        "endOfTrackTicks": 223717
      },
      {
        "channel": 0,
        "controlChanges": {},
        "pitchBends": [],
        "instrument": {
          "family": "strings",
          "number": 41,
          "name": "viola"
        },
        "name": "",
        "notes": [
          {
            "duration": 0.34731562500002156,
            "durationTicks": 340,
            "midi": 49,
            "name": "C#3",
            "ticks": 221640,
            "time": 266.194302,
            "velocity": 1
          }
        ]
      }
    ]
  }