{
    "header": {
      "keySignatures": [],
      "meta": [],
      "name": "",
      "ppq": 240,
      "tempos": [
        {
          "bpm": 130.00013000013,
          "ticks": 0
        },
        {
          "bpm": 96.99995311668933,
          "ticks": 25200
        },
        {
          "bpm": 130.00013000013,
          "ticks": 32880
        },
        {
          "bpm": 96.99995311668933,
          "ticks": 55200
        },
        {
          "bpm": 130.00013000013,
          "ticks": 62880
        },
        {
          "bpm": 96.99995311668933,
          "ticks": 75120
        }
      ],
      "timeSignatures": [
        {
          "ticks": 0,
          "timeSignature": [
            3,
            4
          ],
          "measures": 0
        },
        {
          "ticks": 25200,
          "timeSignature": [
            4,
            4
          ],
          "measures": 35
        },
        {
          "ticks": 32880,
          "timeSignature": [
            3,
            4
          ],
          "measures": 43
        },
        {
          "ticks": 55200,
          "timeSignature": [
            4,
            4
          ],
          "measures": 74
        },
        {
          "ticks": 62880,
          "timeSignature": [
            3,
            4
          ],
          "measures": 82
        },
        {
          "ticks": 75120,
          "timeSignature": [
            4,
            4
          ],
          "measures": 99
        }
      ]
    },
    "tracks": [
      {
        "channel": 0,
        "controlChanges": {
          "7": [
            {
              "number": 7,
              "ticks": 0,
              "time": 0,
              "value": 0.5511811023622047
            }
          ]
        },
        "pitchBends": [],
        "instrument": {
          "family": "synth pad",
          "number": 90,
          "name": "pad 3 (polysynth)"
        },
        "name": "Vocals (P91)",
        "notes": [
          {
            "duration": 0.3692304000000002,
            "durationTicks": 192,
            "midi": 73,
            "name": "C#5",
            "ticks": 2880,
            "time": 5.538455999999999,
            "velocity": 0.6299212598425197
          },
          {
            "duration": 0.3692304000000002,
            "durationTicks": 192,
            "midi": 64,
            "name": "E4",
            "ticks": 2880,
            "time": 5.538455999999999,
            "velocity": 0.6299212598425197
          },
          {
            "duration": 0.3692304000000002,
            "durationTicks": 192,
            "midi": 73,
            "name": "C#5",
            "ticks": 3120,
            "time": 5.999993999999999,
            "velocity": 0.6299212598425197
          },
          {
            "duration": 0.3692304000000002,
            "durationTicks": 192,
            "midi": 64,
            "name": "E4",
            "ticks": 3120,
            "time": 5.999993999999999,
            "velocity": 0.6299212598425197
          },
          {
            "duration": 0.3692304000000002,
            "durationTicks": 192,
            "midi": 73,
            "name": "C#5",
            "ticks": 3360,
            "time": 6.461531999999999,
            "velocity": 0.6299212598425197
          },
          {
            "duration": 0.3692304000000002,
            "durationTicks": 192,
            "midi": 64,
            "name": "E4",
            "ticks": 3360,
            "time": 6.461531999999999,
            "velocity": 0.6299212598425197
          },
          {
            "duration": 0.7384608000000004,
            "durationTicks": 384,
            "midi": 73,
            "name": "C#5",
            "ticks": 3600,
            "time": 6.923069999999999,
            "velocity": 0.6299212598425197
          },
          {
            "duration": 0.7384608000000004,
            "durationTicks": 384,
            "midi": 64,
            "name": "E4",
            "ticks": 3600,
            "time": 6.923069999999999,
            "velocity": 0.6299212598425197
          },
          {
            "duration": 0.18461519999999965,
            "durationTicks": 96,
            "midi": 71,
            "name": "B4",
            "ticks": 4080,
            "time": 7.846145999999999,
            "velocity": 0.6299212598425197
          },
          {
            "duration": 0.18461519999999965,
            "durationTicks": 96,
            "midi": 64,
            "name": "E4",
            "ticks": 4080,
            "time": 7.846145999999999,
            "velocity": 0.6299212598425197
          },
          {
            "duration": 0.18461519999999965,
            "durationTicks": 96,
            "midi": 69,
            "name": "A4",
            "ticks": 4200,
            "time": 8.076915,
            "velocity": 0.6299212598425197
          },
          {
            "duration": 0.18461519999999965,
            "durationTicks": 96,
            "midi": 64,
            "name": "E4",
            "ticks": 4200,
            "time": 8.076915,
            "velocity": 0.6299212598425197
          },
          {
            "duration": 0.36923040000000107,
            "durationTicks": 192,
            "midi": 73,
            "name": "C#5",
            "ticks": 4320,
            "time": 8.307683999999998,
            "velocity": 0.6299212598425197
          },
          {
            "duration": 0.36923040000000107,
            "durationTicks": 192,
            "midi": 64,
            "name": "E4",
            "ticks": 4320,
            "time": 8.307683999999998,
            "velocity": 0.6299212598425197
          },
          {
            "duration": 0.3692303999999993,
            "durationTicks": 192,
            "midi": 71,
            "name": "B4",
            "ticks": 4560,
            "time": 8.769222,
            "velocity": 0.6299212598425197
          },
          {
            "duration": 0.3692303999999993,
            "durationTicks": 192,
            "midi": 64,
            "name": "E4",
            "ticks": 4560,
            "time": 8.769222,
            "velocity": 0.6299212598425197
          },
          {
            "duration": 0.36923040000000107,
            "durationTicks": 192,
            "midi": 69,
            "name": "A4",
            "ticks": 4800,
            "time": 9.230759999999998,
            "velocity": 0.6299212598425197
          },
          {
            "duration": 0.36923040000000107,
            "durationTicks": 192,
            "midi": 64,
            "name": "E4",
            "ticks": 4800,
            "time": 9.230759999999998,
            "velocity": 0.6299212598425197
          },
          {
            "duration": 0.3692303999999993,
            "durationTicks": 192,
            "midi": 73,
            "name": "C#5",
            "ticks": 5040,
            "time": 9.692298,
            "velocity": 0.6299212598425197
          },
          {
            "duration": 0.3692303999999993,
            "durationTicks": 192,
            "midi": 65,
            "name": "F4",
            "ticks": 5040,
            "time": 9.692298,
            "velocity": 0.6299212598425197
          },
          {
            "duration": 0.5538456000000007,
            "durationTicks": 288,
            "midi": 71,
            "name": "B4",
            "ticks": 5280,
            "time": 10.153835999999998,
            "velocity": 0.6299212598425197
          },
          {
            "duration": 0.5538456000000007,
            "durationTicks": 288,
            "midi": 65,
            "name": "F4",
            "ticks": 5280,
            "time": 10.153835999999998,
            "velocity": 0.6299212598425197
          },
          {
            "duration": 0.18461519999999787,
            "durationTicks": 96,
            "midi": 69,
            "name": "A4",
            "ticks": 5640,
            "time": 10.846143,
            "velocity": 0.6299212598425197
          },
          {
            "duration": 0.18461519999999787,
            "durationTicks": 96,
            "midi": 65,
            "name": "F4",
            "ticks": 5640,
            "time": 10.846143,
            "velocity": 0.6299212598425197
          },
          {
            "duration": 0.36923040000000107,
            "durationTicks": 192,
            "midi": 64,
            "name": "E4",
            "ticks": 5760,
            "time": 11.076911999999998,
            "velocity": 0.6299212598425197
          },
          {
            "duration": 0.36923040000000107,
            "durationTicks": 192,
            "midi": 73,
            "name": "C#5",
            "ticks": 5760,
            "time": 11.076911999999998,
            "velocity": 0.6299212598425197
          },
          {
            "duration": 0.3692303999999993,
            "durationTicks": 192,
            "midi": 64,
            "name": "E4",
            "ticks": 6000,
            "time": 11.53845,
            "velocity": 0.6299212598425197
          },
          {
            "duration": 0.3692303999999993,
            "durationTicks": 192,
            "midi": 71,
            "name": "B4",
            "ticks": 6000,
            "time": 11.53845,
            "velocity": 0.6299212598425197
          },
          {
            "duration": 0.36923040000000107,
            "durationTicks": 192,
            "midi": 64,
            "name": "E4",
            "ticks": 6240,
            "time": 11.999987999999998,
            "velocity": 0.6299212598425197
          },
          {
            "duration": 0.36923040000000107,
            "durationTicks": 192,
            "midi": 69,
            "name": "A4",
            "ticks": 6240,
            "time": 11.999987999999998,
            "velocity": 0.6299212598425197
          },
          {
            "duration": 0.7384608000000004,
            "durationTicks": 384,
            "midi": 73,
            "name": "C#5",
            "ticks": 6480,
            "time": 12.461526,
            "velocity": 0.6299212598425197
          },
          {
            "duration": 0.7384608000000004,
            "durationTicks": 384,
            "midi": 64,
            "name": "E4",
            "ticks": 6480,
            "time": 12.461526,
            "velocity": 0.6299212598425197
          },
          {
            "duration": 0.3692303999999993,
            "durationTicks": 192,
            "midi": 73,
            "name": "C#5",
            "ticks": 6960,
            "time": 13.384602,
            "velocity": 0.6299212598425197
          },
          {
            "duration": 0.3692303999999993,
            "durationTicks": 192,
            "midi": 64,
            "name": "E4",
            "ticks": 6960,
            "time": 13.384602,
            "velocity": 0.6299212598425197
          },
          {
            "duration": 0.36923040000000107,
            "durationTicks": 192,
            "midi": 76,
            "name": "E5",
            "ticks": 7200,
            "time": 13.846139999999998,
            "velocity": 0.6299212598425197
          },
          {
            "duration": 0.36923040000000107,
            "durationTicks": 192,
            "midi": 73,
            "name": "C#5",
            "ticks": 7200,
            "time": 13.846139999999998,
            "velocity": 0.6299212598425197
          },
          {
            "duration": 0.3692303999999993,
            "durationTicks": 192,
            "midi": 74,
            "name": "D5",
            "ticks": 7440,
            "time": 14.307678,
            "velocity": 0.6299212598425197
          },
          {
            "duration": 0.3692303999999993,
            "durationTicks": 192,
            "midi": 71,
            "name": "B4",
            "ticks": 7440,
            "time": 14.307678,
            "velocity": 0.6299212598425197
          },
          {
            "duration": 0.3692303999999993,
            "durationTicks": 192,
            "midi": 73,
            "name": "C#5",
            "ticks": 7680,
            "time": 14.769215999999998,
            "velocity": 0.6299212598425197
          },
          {
            "duration": 0.3692303999999993,
            "durationTicks": 192,
            "midi": 69,
            "name": "A4",
            "ticks": 7680,
            "time": 14.769215999999998,
            "velocity": 0.6299212598425197
          },
          {
            "duration": 2.4923052000000006,
            "durationTicks": 1296,
            "midi": 69,
            "name": "A4",
            "ticks": 7920,
            "time": 15.230753999999997,
            "velocity": 0.6299212598425197
          },
          {
            "duration": 2.4923052000000006,
            "durationTicks": 1296,
            "midi": 65,
            "name": "F4",
            "ticks": 7920,
            "time": 15.230753999999997,
            "velocity": 0.6299212598425197
          },
          {
            "duration": 0.36923039999999574,
            "durationTicks": 192,
            "midi": 73,
            "name": "C#5",
            "ticks": 9360,
            "time": 17.999982,
            "velocity": 0.6299212598425197
          },
          {
            "duration": 0.36923039999999574,
            "durationTicks": 192,
            "midi": 69,
            "name": "A4",
            "ticks": 9360,
            "time": 17.999982,
            "velocity": 0.6299212598425197
          },
          {
            "duration": 0.3692303999999993,
            "durationTicks": 192,
            "midi": 74,
            "name": "D5",
            "ticks": 9600,
            "time": 18.461519999999997,
            "velocity": 0.6299212598425197
          },
          {
            "duration": 0.3692303999999993,
            "durationTicks": 192,
            "midi": 71,
            "name": "B4",
            "ticks": 9600,
            "time": 18.461519999999997,
            "velocity": 0.6299212598425197
          },
          {
            "duration": 0.3692303999999993,
            "durationTicks": 192,
            "midi": 76,
            "name": "E5",
            "ticks": 9840,
            "time": 18.923057999999997,
            "velocity": 0.6299212598425197
          },
          {
            "duration": 0.3692303999999993,
            "durationTicks": 192,
            "midi": 73,
            "name": "C#5",
            "ticks": 9840,
            "time": 18.923057999999997,
            "velocity": 0.6299212598425197
          },
          {
            "duration": 0.3692303999999993,
            "durationTicks": 192,
            "midi": 73,
            "name": "C#5",
            "ticks": 10080,
            "time": 19.384596,
            "velocity": 0.6299212598425197
          },
          {
            "duration": 0.3692303999999993,
            "durationTicks": 192,
            "midi": 64,
            "name": "E4",
            "ticks": 10080,
            "time": 19.384596,
            "velocity": 0.6299212598425197
          },
          {
            "duration": 0.5538455999999989,
            "durationTicks": 288,
            "midi": 64,
            "name": "E4",
            "ticks": 10320,
            "time": 19.846134,
            "velocity": 0.6299212598425197
          },
          {
            "duration": 0.5538455999999989,
            "durationTicks": 288,
            "midi": 71,
            "name": "B4",
            "ticks": 10320,
            "time": 19.846134,
            "velocity": 0.6299212598425197
          },
          {
            "duration": 0.18461519999999965,
            "durationTicks": 96,
            "midi": 64,
            "name": "E4",
            "ticks": 10680,
            "time": 20.538441,
            "velocity": 0.6299212598425197
          },
          {
            "duration": 0.18461519999999965,
            "durationTicks": 96,
            "midi": 69,
            "name": "A4",
            "ticks": 10680,
            "time": 20.538441,
            "velocity": 0.6299212598425197
          },
          {
            "duration": 0.3692303999999993,
            "durationTicks": 192,
            "midi": 73,
            "name": "C#5",
            "ticks": 10800,
            "time": 20.769209999999998,
            "velocity": 0.6299212598425197
          },
          {
            "duration": 0.3692303999999993,
            "durationTicks": 192,
            "midi": 64,
            "name": "E4",
            "ticks": 10800,
            "time": 20.769209999999998,
            "velocity": 0.6299212598425197
          },
          {
            "duration": 0.3692303999999993,
            "durationTicks": 192,
            "midi": 71,
            "name": "B4",
            "ticks": 11040,
            "time": 21.230748,
            "velocity": 0.6299212598425197
          },
          {
            "duration": 0.3692303999999993,
            "durationTicks": 192,
            "midi": 64,
            "name": "E4",
            "ticks": 11040,
            "time": 21.230748,
            "velocity": 0.6299212598425197
          },
          {
            "duration": 0.36923039999999574,
            "durationTicks": 192,
            "midi": 69,
            "name": "A4",
            "ticks": 11280,
            "time": 21.692286,
            "velocity": 0.6299212598425197
          },
          {
            "duration": 0.36923039999999574,
            "durationTicks": 192,
            "midi": 64,
            "name": "E4",
            "ticks": 11280,
            "time": 21.692286,
            "velocity": 0.6299212598425197
          },
          {
            "duration": 0.3692303999999993,
            "durationTicks": 192,
            "midi": 73,
            "name": "C#5",
            "ticks": 11520,
            "time": 22.153823999999997,
            "velocity": 0.6299212598425197
          },
          {
            "duration": 0.3692303999999993,
            "durationTicks": 192,
            "midi": 65,
            "name": "F4",
            "ticks": 11520,
            "time": 22.153823999999997,
            "velocity": 0.6299212598425197
          },
          {
            "duration": 0.3692303999999993,
            "durationTicks": 192,
            "midi": 71,
            "name": "B4",
            "ticks": 11760,
            "time": 22.615361999999998,
            "velocity": 0.6299212598425197
          },
          {
            "duration": 0.3692303999999993,
            "durationTicks": 192,
            "midi": 65,
            "name": "F4",
            "ticks": 11760,
            "time": 22.615361999999998,
            "velocity": 0.6299212598425197
          },
          {
            "duration": 0.18461519999999965,
            "durationTicks": 96,
            "midi": 69,
            "name": "A4",
            "ticks": 12120,
            "time": 23.307668999999997,
            "velocity": 0.6299212598425197
          },
          {
            "duration": 0.18461519999999965,
            "durationTicks": 96,
            "midi": 65,
            "name": "F4",
            "ticks": 12120,
            "time": 23.307668999999997,
            "velocity": 0.6299212598425197
          },
          {
            "duration": 0.3692303999999993,
            "durationTicks": 192,
            "midi": 73,
            "name": "C#5",
            "ticks": 12240,
            "time": 23.538437999999996,
            "velocity": 0.6299212598425197
          },
          {
            "duration": 0.3692303999999993,
            "durationTicks": 192,
            "midi": 64,
            "name": "E4",
            "ticks": 12240,
            "time": 23.538437999999996,
            "velocity": 0.6299212598425197
          },
          {
            "duration": 0.3692303999999993,
            "durationTicks": 192,
            "midi": 71,
            "name": "B4",
            "ticks": 12480,
            "time": 23.999975999999997,
            "velocity": 0.6299212598425197
          },
          {
            "duration": 0.3692303999999993,
            "durationTicks": 192,
            "midi": 64,
            "name": "E4",
            "ticks": 12480,
            "time": 23.999975999999997,
            "velocity": 0.6299212598425197
          },
          {
            "duration": 0.3692303999999993,
            "durationTicks": 192,
            "midi": 69,
            "name": "A4",
            "ticks": 12720,
            "time": 24.461513999999998,
            "velocity": 0.6299212598425197
          },
          {
            "duration": 0.3692303999999993,
            "durationTicks": 192,
            "midi": 64,
            "name": "E4",
            "ticks": 12720,
            "time": 24.461513999999998,
            "velocity": 0.6299212598425197
          },
          {
            "duration": 0.36923039999999574,
            "durationTicks": 192,
            "midi": 76,
            "name": "E5",
            "ticks": 12960,
            "time": 24.923052,
            "velocity": 0.6299212598425197
          },
          {
            "duration": 0.36923039999999574,
            "durationTicks": 192,
            "midi": 73,
            "name": "C#5",
            "ticks": 12960,
            "time": 24.923052,
            "velocity": 0.6299212598425197
          },
          {
            "duration": 0.3692303999999993,
            "durationTicks": 192,
            "midi": 74,
            "name": "D5",
            "ticks": 13200,
            "time": 25.384589999999996,
            "velocity": 0.6299212598425197
          },
          {
            "duration": 0.3692303999999993,
            "durationTicks": 192,
            "midi": 71,
            "name": "B4",
            "ticks": 13200,
            "time": 25.384589999999996,
            "velocity": 0.6299212598425197
          },
          {
            "duration": 0.3692303999999993,
            "durationTicks": 192,
            "midi": 73,
            "name": "C#5",
            "ticks": 13440,
            "time": 25.846127999999997,
            "velocity": 0.6299212598425197
          },
          {
            "duration": 0.3692303999999993,
            "durationTicks": 192,
            "midi": 69,
            "name": "A4",
            "ticks": 13440,
            "time": 25.846127999999997,
            "velocity": 0.6299212598425197
          },
          {
            "duration": 2.492305199999997,
            "durationTicks": 1296,
            "midi": 69,
            "name": "A4",
            "ticks": 13680,
            "time": 26.307665999999998,
            "velocity": 0.6299212598425197
          },
          {
            "duration": 0.36923039999999574,
            "durationTicks": 192,
            "midi": 65,
            "name": "F4",
            "ticks": 16560,
            "time": 31.846121999999998,
            "velocity": 0.6299212598425197
          },
          {
            "duration": 0.36923039999999574,
            "durationTicks": 192,
            "midi": 70,
            "name": "A#4",
            "ticks": 16560,
            "time": 31.846121999999998,
            "velocity": 0.6299212598425197
          },
          {
            "duration": 0.36923039999999574,
            "durationTicks": 192,
            "midi": 74,
            "name": "D5",
            "ticks": 16560,
            "time": 31.846121999999998,
            "velocity": 0.6299212598425197
          },
          {
            "duration": 0.3692303999999993,
            "durationTicks": 192,
            "midi": 65,
            "name": "F4",
            "ticks": 16800,
            "time": 32.30766,
            "velocity": 0.6299212598425197
          },
          {
            "duration": 0.3692303999999993,
            "durationTicks": 192,
            "midi": 70,
            "name": "A#4",
            "ticks": 16800,
            "time": 32.30766,
            "velocity": 0.6299212598425197
          },
          {
            "duration": 0.3692303999999993,
            "durationTicks": 192,
            "midi": 74,
            "name": "D5",
            "ticks": 16800,
            "time": 32.30766,
            "velocity": 0.6299212598425197
          },
          {
            "duration": 0.3692303999999993,
            "durationTicks": 192,
            "midi": 65,
            "name": "F4",
            "ticks": 17040,
            "time": 32.769197999999996,
            "velocity": 0.6299212598425197
          },
          {
            "duration": 0.3692303999999993,
            "durationTicks": 192,
            "midi": 70,
            "name": "A#4",
            "ticks": 17040,
            "time": 32.769197999999996,
            "velocity": 0.6299212598425197
          },
          {
            "duration": 0.3692303999999993,
            "durationTicks": 192,
            "midi": 74,
            "name": "D5",
            "ticks": 17040,
            "time": 32.769197999999996,
            "velocity": 0.6299212598425197
          },
          {
            "duration": 0.3692303999999993,
            "durationTicks": 192,
            "midi": 65,
            "name": "F4",
            "ticks": 17280,
            "time": 33.23073599999999,
            "velocity": 0.6299212598425197
          },
          {
            "duration": 0.3692303999999993,
            "durationTicks": 192,
            "midi": 70,
            "name": "A#4",
            "ticks": 17280,
            "time": 33.23073599999999,
            "velocity": 0.6299212598425197
          },
          {
            "duration": 0.3692303999999993,
            "durationTicks": 192,
            "midi": 74,
            "name": "D5",
            "ticks": 17280,
            "time": 33.23073599999999,
            "velocity": 0.6299212598425197
          },
          {
            "duration": 0.3692303999999993,
            "durationTicks": 192,
            "midi": 65,
            "name": "F4",
            "ticks": 17520,
            "time": 33.692274,
            "velocity": 0.6299212598425197
          },
          {
            "duration": 0.3692303999999993,
            "durationTicks": 192,
            "midi": 70,
            "name": "A#4",
            "ticks": 17520,
            "time": 33.692274,
            "velocity": 0.6299212598425197
          },
          {
            "duration": 0.3692303999999993,
            "durationTicks": 192,
            "midi": 74,
            "name": "D5",
            "ticks": 17520,
            "time": 33.692274,
            "velocity": 0.6299212598425197
          },
          {
            "duration": 0.3692303999999993,
            "durationTicks": 192,
            "midi": 65,
            "name": "F4",
            "ticks": 17760,
            "time": 34.153811999999995,
            "velocity": 0.6299212598425197
          },
          {
            "duration": 0.3692303999999993,
            "durationTicks": 192,
            "midi": 70,
            "name": "A#4",
            "ticks": 17760,
            "time": 34.153811999999995,
            "velocity": 0.6299212598425197
          },
          {
            "duration": 0.3692303999999993,
            "durationTicks": 192,
            "midi": 74,
            "name": "D5",
            "ticks": 17760,
            "time": 34.153811999999995,
            "velocity": 0.6299212598425197
          },
          {
            "duration": 0.3692303999999922,
            "durationTicks": 192,
            "midi": 64,
            "name": "E4",
            "ticks": 18000,
            "time": 34.61535,
            "velocity": 0.6299212598425197
          },
          {
            "duration": 0.3692303999999922,
            "durationTicks": 192,
            "midi": 70,
            "name": "A#4",
            "ticks": 18000,
            "time": 34.61535,
            "velocity": 0.6299212598425197
          },
          {
            "duration": 0.3692303999999922,
            "durationTicks": 192,
            "midi": 72,
            "name": "C5",
            "ticks": 18000,
            "time": 34.61535,
            "velocity": 0.6299212598425197
          },
          {
            "duration": 0.3692303999999993,
            "durationTicks": 192,
            "midi": 64,
            "name": "E4",
            "ticks": 18240,
            "time": 35.076888,
            "velocity": 0.6299212598425197
          },
          {
            "duration": 0.3692303999999993,
            "durationTicks": 192,
            "midi": 70,
            "name": "A#4",
            "ticks": 18240,
            "time": 35.076888,
            "velocity": 0.6299212598425197
          },
          {
            "duration": 0.3692303999999993,
            "durationTicks": 192,
            "midi": 74,
            "name": "D5",
            "ticks": 18240,
            "time": 35.076888,
            "velocity": 0.6299212598425197
          },
          {
            "duration": 0.3692303999999993,
            "durationTicks": 192,
            "midi": 64,
            "name": "E4",
            "ticks": 18480,
            "time": 35.538425999999994,
            "velocity": 0.6299212598425197
          },
          {
            "duration": 0.3692303999999993,
            "durationTicks": 192,
            "midi": 70,
            "name": "A#4",
            "ticks": 18480,
            "time": 35.538425999999994,
            "velocity": 0.6299212598425197
          },
          {
            "duration": 0.3692303999999993,
            "durationTicks": 192,
            "midi": 74,
            "name": "D5",
            "ticks": 18480,
            "time": 35.538425999999994,
            "velocity": 0.6299212598425197
          },
          {
            "duration": 1.1076911999999979,
            "durationTicks": 576,
            "midi": 64,
            "name": "E4",
            "ticks": 18720,
            "time": 35.999964,
            "velocity": 0.6299212598425197
          },
          {
            "duration": 1.1076911999999979,
            "durationTicks": 576,
            "midi": 70,
            "name": "A#4",
            "ticks": 18720,
            "time": 35.999964,
            "velocity": 0.6299212598425197
          },
          {
            "duration": 1.1076911999999979,
            "durationTicks": 576,
            "midi": 74,
            "name": "D5",
            "ticks": 18720,
            "time": 35.999964,
            "velocity": 0.6299212598425197
          },
          {
            "duration": 0.3692303999999993,
            "durationTicks": 192,
            "midi": 65,
            "name": "F4",
            "ticks": 19440,
            "time": 37.384578,
            "velocity": 0.6299212598425197
          },
          {
            "duration": 0.3692303999999993,
            "durationTicks": 192,
            "midi": 69,
            "name": "A4",
            "ticks": 19440,
            "time": 37.384578,
            "velocity": 0.6299212598425197
          },
          {
            "duration": 0.3692303999999993,
            "durationTicks": 192,
            "midi": 74,
            "name": "D5",
            "ticks": 19440,
            "time": 37.384578,
            "velocity": 0.6299212598425197
          },
          {
            "duration": 0.3692303999999993,
            "durationTicks": 192,
            "midi": 65,
            "name": "F4",
            "ticks": 19680,
            "time": 37.846115999999995,
            "velocity": 0.6299212598425197
          },
          {
            "duration": 0.3692303999999993,
            "durationTicks": 192,
            "midi": 69,
            "name": "A4",
            "ticks": 19680,
            "time": 37.846115999999995,
            "velocity": 0.6299212598425197
          },
          {
            "duration": 0.3692303999999993,
            "durationTicks": 192,
            "midi": 74,
            "name": "D5",
            "ticks": 19680,
            "time": 37.846115999999995,
            "velocity": 0.6299212598425197
          },
          {
            "duration": 0.3692303999999993,
            "durationTicks": 192,
            "midi": 65,
            "name": "F4",
            "ticks": 19920,
            "time": 38.30765399999999,
            "velocity": 0.6299212598425197
          },
          {
            "duration": 0.3692303999999993,
            "durationTicks": 192,
            "midi": 69,
            "name": "A4",
            "ticks": 19920,
            "time": 38.30765399999999,
            "velocity": 0.6299212598425197
          },
          {
            "duration": 0.3692303999999993,
            "durationTicks": 192,
            "midi": 74,
            "name": "D5",
            "ticks": 19920,
            "time": 38.30765399999999,
            "velocity": 0.6299212598425197
          },
          {
            "duration": 0.3692303999999993,
            "durationTicks": 192,
            "midi": 65,
            "name": "F4",
            "ticks": 20160,
            "time": 38.769192,
            "velocity": 0.6299212598425197
          },
          {
            "duration": 0.3692303999999993,
            "durationTicks": 192,
            "midi": 69,
            "name": "A4",
            "ticks": 20160,
            "time": 38.769192,
            "velocity": 0.6299212598425197
          },
          {
            "duration": 0.3692303999999993,
            "durationTicks": 192,
            "midi": 74,
            "name": "D5",
            "ticks": 20160,
            "time": 38.769192,
            "velocity": 0.6299212598425197
          },
          {
            "duration": 0.3692303999999993,
            "durationTicks": 192,
            "midi": 65,
            "name": "F4",
            "ticks": 20400,
            "time": 39.230729999999994,
            "velocity": 0.6299212598425197
          },
          {
            "duration": 0.3692303999999993,
            "durationTicks": 192,
            "midi": 69,
            "name": "A4",
            "ticks": 20400,
            "time": 39.230729999999994,
            "velocity": 0.6299212598425197
          },
          {
            "duration": 0.3692303999999993,
            "durationTicks": 192,
            "midi": 74,
            "name": "D5",
            "ticks": 20400,
            "time": 39.230729999999994,
            "velocity": 0.6299212598425197
          },
          {
            "duration": 0.3692303999999922,
            "durationTicks": 192,
            "midi": 65,
            "name": "F4",
            "ticks": 20640,
            "time": 39.692268,
            "velocity": 0.6299212598425197
          },
          {
            "duration": 0.3692303999999922,
            "durationTicks": 192,
            "midi": 69,
            "name": "A4",
            "ticks": 20640,
            "time": 39.692268,
            "velocity": 0.6299212598425197
          },
          {
            "duration": 0.3692303999999922,
            "durationTicks": 192,
            "midi": 74,
            "name": "D5",
            "ticks": 20640,
            "time": 39.692268,
            "velocity": 0.6299212598425197
          },
          {
            "duration": 0.1846152000000032,
            "durationTicks": 96,
            "midi": 65,
            "name": "F4",
            "ticks": 20880,
            "time": 40.153805999999996,
            "velocity": 0.6299212598425197
          },
          {
            "duration": 0.1846152000000032,
            "durationTicks": 96,
            "midi": 70,
            "name": "A#4",
            "ticks": 20880,
            "time": 40.153805999999996,
            "velocity": 0.6299212598425197
          },
          {
            "duration": 0.1846152000000032,
            "durationTicks": 96,
            "midi": 74,
            "name": "D5",
            "ticks": 20880,
            "time": 40.153805999999996,
            "velocity": 0.6299212598425197
          },
          {
            "duration": 0.1846152000000032,
            "durationTicks": 96,
            "midi": 72,
            "name": "C5",
            "ticks": 21000,
            "time": 40.384575,
            "velocity": 0.6299212598425197
          },
          {
            "duration": 2.0307672000000068,
            "durationTicks": 1056,
            "midi": 62,
            "name": "D4",
            "ticks": 21120,
            "time": 40.61534399999999,
            "velocity": 0.6299212598425197
          },
          {
            "duration": 2.0307672000000068,
            "durationTicks": 1056,
            "midi": 65,
            "name": "F4",
            "ticks": 21120,
            "time": 40.61534399999999,
            "velocity": 0.6299212598425197
          },
          {
            "duration": 2.0307672000000068,
            "durationTicks": 1056,
            "midi": 70,
            "name": "A#4",
            "ticks": 21120,
            "time": 40.61534399999999,
            "velocity": 0.6299212598425197
          },
          {
            "duration": 0.3692303999999993,
            "durationTicks": 192,
            "midi": 64,
            "name": "E4",
            "ticks": 22320,
            "time": 42.923033999999994,
            "velocity": 0.6299212598425197
          },
          {
            "duration": 0.3692303999999993,
            "durationTicks": 192,
            "midi": 70,
            "name": "A#4",
            "ticks": 22320,
            "time": 42.923033999999994,
            "velocity": 0.6299212598425197
          },
          {
            "duration": 0.3692303999999993,
            "durationTicks": 192,
            "midi": 74,
            "name": "D5",
            "ticks": 22320,
            "time": 42.923033999999994,
            "velocity": 0.6299212598425197
          },
          {
            "duration": 0.3692303999999922,
            "durationTicks": 192,
            "midi": 64,
            "name": "E4",
            "ticks": 22560,
            "time": 43.384572,
            "velocity": 0.6299212598425197
          },
          {
            "duration": 0.3692303999999922,
            "durationTicks": 192,
            "midi": 70,
            "name": "A#4",
            "ticks": 22560,
            "time": 43.384572,
            "velocity": 0.6299212598425197
          },
          {
            "duration": 0.3692303999999922,
            "durationTicks": 192,
            "midi": 74,
            "name": "D5",
            "ticks": 22560,
            "time": 43.384572,
            "velocity": 0.6299212598425197
          },
          {
            "duration": 0.3692303999999993,
            "durationTicks": 192,
            "midi": 64,
            "name": "E4",
            "ticks": 22800,
            "time": 43.846109999999996,
            "velocity": 0.6299212598425197
          },
          {
            "duration": 0.3692303999999993,
            "durationTicks": 192,
            "midi": 70,
            "name": "A#4",
            "ticks": 22800,
            "time": 43.846109999999996,
            "velocity": 0.6299212598425197
          },
          {
            "duration": 0.3692303999999993,
            "durationTicks": 192,
            "midi": 74,
            "name": "D5",
            "ticks": 22800,
            "time": 43.846109999999996,
            "velocity": 0.6299212598425197
          },
          {
            "duration": 0.3692303999999993,
            "durationTicks": 192,
            "midi": 64,
            "name": "E4",
            "ticks": 23040,
            "time": 44.30764799999999,
            "velocity": 0.6299212598425197
          },
          {
            "duration": 0.3692303999999993,
            "durationTicks": 192,
            "midi": 70,
            "name": "A#4",
            "ticks": 23040,
            "time": 44.30764799999999,
            "velocity": 0.6299212598425197
          },
          {
            "duration": 0.3692303999999993,
            "durationTicks": 192,
            "midi": 74,
            "name": "D5",
            "ticks": 23040,
            "time": 44.30764799999999,
            "velocity": 0.6299212598425197
          },
          {
            "duration": 0.3692303999999993,
            "durationTicks": 192,
            "midi": 64,
            "name": "E4",
            "ticks": 23280,
            "time": 44.769186,
            "velocity": 0.6299212598425197
          },
          {
            "duration": 0.3692303999999993,
            "durationTicks": 192,
            "midi": 70,
            "name": "A#4",
            "ticks": 23280,
            "time": 44.769186,
            "velocity": 0.6299212598425197
          },
          {
            "duration": 0.3692303999999993,
            "durationTicks": 192,
            "midi": 74,
            "name": "D5",
            "ticks": 23280,
            "time": 44.769186,
            "velocity": 0.6299212598425197
          },
          {
            "duration": 0.3692303999999993,
            "durationTicks": 192,
            "midi": 64,
            "name": "E4",
            "ticks": 23520,
            "time": 45.230723999999995,
            "velocity": 0.6299212598425197
          },
          {
            "duration": 0.3692303999999993,
            "durationTicks": 192,
            "midi": 70,
            "name": "A#4",
            "ticks": 23520,
            "time": 45.230723999999995,
            "velocity": 0.6299212598425197
          },
          {
            "duration": 0.3692303999999993,
            "durationTicks": 192,
            "midi": 74,
            "name": "D5",
            "ticks": 23520,
            "time": 45.230723999999995,
            "velocity": 0.6299212598425197
          },
          {
            "duration": 0.3692303999999993,
            "durationTicks": 192,
            "midi": 62,
            "name": "D4",
            "ticks": 23760,
            "time": 45.69226199999999,
            "velocity": 0.6299212598425197
          },
          {
            "duration": 0.3692303999999993,
            "durationTicks": 192,
            "midi": 71,
            "name": "B4",
            "ticks": 23760,
            "time": 45.69226199999999,
            "velocity": 0.6299212598425197
          },
          {
            "duration": 0.3692303999999993,
            "durationTicks": 192,
            "midi": 74,
            "name": "D5",
            "ticks": 23760,
            "time": 45.69226199999999,
            "velocity": 0.6299212598425197
          },
          {
            "duration": 0.3692303999999993,
            "durationTicks": 192,
            "midi": 62,
            "name": "D4",
            "ticks": 24000,
            "time": 46.1538,
            "velocity": 0.6299212598425197
          },
          {
            "duration": 0.3692303999999993,
            "durationTicks": 192,
            "midi": 71,
            "name": "B4",
            "ticks": 24000,
            "time": 46.1538,
            "velocity": 0.6299212598425197
          },
          {
            "duration": 0.3692303999999993,
            "durationTicks": 192,
            "midi": 74,
            "name": "D5",
            "ticks": 24000,
            "time": 46.1538,
            "velocity": 0.6299212598425197
          },
          {
            "duration": 0.3692303999999993,
            "durationTicks": 192,
            "midi": 62,
            "name": "D4",
            "ticks": 24240,
            "time": 46.615337999999994,
            "velocity": 0.6299212598425197
          },
          {
            "duration": 0.3692303999999993,
            "durationTicks": 192,
            "midi": 71,
            "name": "B4",
            "ticks": 24240,
            "time": 46.615337999999994,
            "velocity": 0.6299212598425197
          },
          {
            "duration": 0.3692303999999993,
            "durationTicks": 192,
            "midi": 74,
            "name": "D5",
            "ticks": 24240,
            "time": 46.615337999999994,
            "velocity": 0.6299212598425197
          },
          {
            "duration": 0.3692303999999993,
            "durationTicks": 192,
            "midi": 62,
            "name": "D4",
            "ticks": 24480,
            "time": 47.07687599999999,
            "velocity": 0.6299212598425197
          },
          {
            "duration": 0.3692303999999993,
            "durationTicks": 192,
            "midi": 71,
            "name": "B4",
            "ticks": 24480,
            "time": 47.07687599999999,
            "velocity": 0.6299212598425197
          },
          {
            "duration": 0.3692303999999993,
            "durationTicks": 192,
            "midi": 74,
            "name": "D5",
            "ticks": 24480,
            "time": 47.07687599999999,
            "velocity": 0.6299212598425197
          },
          {
            "duration": 0.3692303999999993,
            "durationTicks": 192,
            "midi": 62,
            "name": "D4",
            "ticks": 24720,
            "time": 47.538413999999996,
            "velocity": 0.6299212598425197
          },
          {
            "duration": 0.3692303999999993,
            "durationTicks": 192,
            "midi": 69,
            "name": "A4",
            "ticks": 24720,
            "time": 47.538413999999996,
            "velocity": 0.6299212598425197
          },
          {
            "duration": 0.3692303999999993,
            "durationTicks": 192,
            "midi": 72,
            "name": "C5",
            "ticks": 24720,
            "time": 47.538413999999996,
            "velocity": 0.6299212598425197
          },
          {
            "duration": 0.3692303999999993,
            "durationTicks": 192,
            "midi": 63,
            "name": "D#4",
            "ticks": 24960,
            "time": 47.99995199999999,
            "velocity": 0.6299212598425197
          },
          {
            "duration": 0.3692303999999993,
            "durationTicks": 192,
            "midi": 67,
            "name": "G4",
            "ticks": 24960,
            "time": 47.99995199999999,
            "velocity": 0.6299212598425197
          },
          {
            "duration": 0.3692303999999993,
            "durationTicks": 192,
            "midi": 71,
            "name": "B4",
            "ticks": 24960,
            "time": 47.99995199999999,
            "velocity": 0.6299212598425197
          },
          {
            "duration": 1.9793823999999987,
            "durationTicks": 768,
            "midi": 62,
            "name": "D4",
            "ticks": 25200,
            "time": 48.46149,
            "velocity": 0.6299212598425197
          },
          {
            "duration": 1.9793823999999987,
            "durationTicks": 768,
            "midi": 66,
            "name": "F#4",
            "ticks": 25200,
            "time": 48.46149,
            "velocity": 0.6299212598425197
          },
          {
            "duration": 1.9793823999999987,
            "durationTicks": 768,
            "midi": 69,
            "name": "A4",
            "ticks": 25200,
            "time": 48.46149,
            "velocity": 0.6299212598425197
          },
          {
            "duration": 0.2474228000000025,
            "durationTicks": 96,
            "midi": 67,
            "name": "G4",
            "ticks": 26160,
            "time": 50.935717999999994,
            "velocity": 0.6299212598425197
          },
          {
            "duration": 0.2474228000000025,
            "durationTicks": 96,
            "midi": 71,
            "name": "B4",
            "ticks": 26160,
            "time": 50.935717999999994,
            "velocity": 0.6299212598425197
          },
          {
            "duration": 0.2474228000000025,
            "durationTicks": 96,
            "midi": 74,
            "name": "D5",
            "ticks": 26160,
            "time": 50.935717999999994,
            "velocity": 0.6299212598425197
          },
          {
            "duration": 0.2474228000000025,
            "durationTicks": 96,
            "midi": 79,
            "name": "G5",
            "ticks": 26160,
            "time": 50.935717999999994,
            "velocity": 0.6299212598425197
          },
          {
            "duration": 0.2474227999999954,
            "durationTicks": 96,
            "midi": 79,
            "name": "G5",
            "ticks": 26280,
            "time": 51.2449965,
            "velocity": 0.6299212598425197
          },
          {
            "duration": 0.2474228000000025,
            "durationTicks": 96,
            "midi": 79,
            "name": "G5",
            "ticks": 26400,
            "time": 51.554275,
            "velocity": 0.6299212598425197
          },
          {
            "duration": 0.2474228000000025,
            "durationTicks": 96,
            "midi": 67,
            "name": "G4",
            "ticks": 26400,
            "time": 51.554275,
            "velocity": 0.6299212598425197
          },
          {
            "duration": 0.2474228000000025,
            "durationTicks": 96,
            "midi": 71,
            "name": "B4",
            "ticks": 26400,
            "time": 51.554275,
            "velocity": 0.6299212598425197
          },
          {
            "duration": 0.2474228000000025,
            "durationTicks": 96,
            "midi": 74,
            "name": "D5",
            "ticks": 26400,
            "time": 51.554275,
            "velocity": 0.6299212598425197
          },
          {
            "duration": 0.2474228000000025,
            "durationTicks": 96,
            "midi": 79,
            "name": "G5",
            "ticks": 26520,
            "time": 51.863553499999995,
            "velocity": 0.6299212598425197
          },
          {
            "duration": 0.2474227999999954,
            "durationTicks": 96,
            "midi": 67,
            "name": "G4",
            "ticks": 26640,
            "time": 52.172832,
            "velocity": 0.6299212598425197
          },
          {
            "duration": 0.2474227999999954,
            "durationTicks": 96,
            "midi": 76,
            "name": "E5",
            "ticks": 26640,
            "time": 52.172832,
            "velocity": 0.6299212598425197
          },
          {
            "duration": 0.2474227999999954,
            "durationTicks": 96,
            "midi": 79,
            "name": "G5",
            "ticks": 26640,
            "time": 52.172832,
            "velocity": 0.6299212598425197
          },
          {
            "duration": 0.4948455999999979,
            "durationTicks": 192,
            "midi": 74,
            "name": "D5",
            "ticks": 26760,
            "time": 52.4821105,
            "velocity": 0.6299212598425197
          },
          {
            "duration": 0.4948455999999979,
            "durationTicks": 192,
            "midi": 78,
            "name": "F#5",
            "ticks": 26760,
            "time": 52.4821105,
            "velocity": 0.6299212598425197
          },
          {
            "duration": 0.4948455999999979,
            "durationTicks": 192,
            "midi": 67,
            "name": "G4",
            "ticks": 26760,
            "time": 52.4821105,
            "velocity": 0.6299212598425197
          },
          {
            "duration": 0.2474227999999954,
            "durationTicks": 96,
            "midi": 67,
            "name": "G4",
            "ticks": 27000,
            "time": 53.1006675,
            "velocity": 0.6299212598425197
          },
          {
            "duration": 0.2474227999999954,
            "durationTicks": 96,
            "midi": 72,
            "name": "C5",
            "ticks": 27000,
            "time": 53.1006675,
            "velocity": 0.6299212598425197
          },
          {
            "duration": 0.2474227999999954,
            "durationTicks": 96,
            "midi": 76,
            "name": "E5",
            "ticks": 27000,
            "time": 53.1006675,
            "velocity": 0.6299212598425197
          },
          {
            "duration": 0.2474228000000025,
            "durationTicks": 96,
            "midi": 66,
            "name": "F#4",
            "ticks": 27120,
            "time": 53.409946,
            "velocity": 0.6299212598425197
          },
          {
            "duration": 0.2474228000000025,
            "durationTicks": 96,
            "midi": 74,
            "name": "D5",
            "ticks": 27120,
            "time": 53.409946,
            "velocity": 0.6299212598425197
          },
          {
            "duration": 0.1237114000000048,
            "durationTicks": 48,
            "midi": 64,
            "name": "E4",
            "ticks": 27240,
            "time": 53.719224499999996,
            "velocity": 0.6299212598425197
          },
          {
            "duration": 0.1237114000000048,
            "durationTicks": 48,
            "midi": 72,
            "name": "C5",
            "ticks": 27240,
            "time": 53.719224499999996,
            "velocity": 0.6299212598425197
          },
          {
            "duration": 0.1237113999999977,
            "durationTicks": 48,
            "midi": 62,
            "name": "D4",
            "ticks": 27300,
            "time": 53.87386375,
            "velocity": 0.6299212598425197
          },
          {
            "duration": 0.1237113999999977,
            "durationTicks": 48,
            "midi": 71,
            "name": "B4",
            "ticks": 27300,
            "time": 53.87386375,
            "velocity": 0.6299212598425197
          },
          {
            "duration": 1.4845368000000008,
            "durationTicks": 576,
            "midi": 60,
            "name": "C4",
            "ticks": 27360,
            "time": 54.028503,
            "velocity": 0.6299212598425197
          },
          {
            "duration": 1.4845368000000008,
            "durationTicks": 576,
            "midi": 69,
            "name": "A4",
            "ticks": 27360,
            "time": 54.028503,
            "velocity": 0.6299212598425197
          },
          {
            "duration": 0.2474227999999954,
            "durationTicks": 96,
            "midi": 79,
            "name": "G5",
            "ticks": 28080,
            "time": 55.884174,
            "velocity": 0.6299212598425197
          },
          {
            "duration": 0.2474227999999954,
            "durationTicks": 96,
            "midi": 74,
            "name": "D5",
            "ticks": 28080,
            "time": 55.884174,
            "velocity": 0.6299212598425197
          },
          {
            "duration": 0.2474227999999954,
            "durationTicks": 96,
            "midi": 71,
            "name": "B4",
            "ticks": 28080,
            "time": 55.884174,
            "velocity": 0.6299212598425197
          },
          {
            "duration": 0.2474227999999954,
            "durationTicks": 96,
            "midi": 67,
            "name": "G4",
            "ticks": 28080,
            "time": 55.884174,
            "velocity": 0.6299212598425197
          },
          {
            "duration": 0.2474228000000025,
            "durationTicks": 96,
            "midi": 79,
            "name": "G5",
            "ticks": 28200,
            "time": 56.1934525,
            "velocity": 0.6299212598425197
          },
          {
            "duration": 0.2474228000000025,
            "durationTicks": 96,
            "midi": 79,
            "name": "G5",
            "ticks": 28320,
            "time": 56.502731,
            "velocity": 0.6299212598425197
          },
          {
            "duration": 0.2474228000000025,
            "durationTicks": 96,
            "midi": 74,
            "name": "D5",
            "ticks": 28320,
            "time": 56.502731,
            "velocity": 0.6299212598425197
          },
          {
            "duration": 0.2474228000000025,
            "durationTicks": 96,
            "midi": 71,
            "name": "B4",
            "ticks": 28320,
            "time": 56.502731,
            "velocity": 0.6299212598425197
          },
          {
            "duration": 0.2474228000000025,
            "durationTicks": 96,
            "midi": 67,
            "name": "G4",
            "ticks": 28320,
            "time": 56.502731,
            "velocity": 0.6299212598425197
          },
          {
            "duration": 0.2474227999999954,
            "durationTicks": 96,
            "midi": 79,
            "name": "G5",
            "ticks": 28440,
            "time": 56.8120095,
            "velocity": 0.6299212598425197
          },
          {
            "duration": 0.2474228000000025,
            "durationTicks": 96,
            "midi": 79,
            "name": "G5",
            "ticks": 28560,
            "time": 57.121288,
            "velocity": 0.6299212598425197
          },
          {
            "duration": 0.2474228000000025,
            "durationTicks": 96,
            "midi": 76,
            "name": "E5",
            "ticks": 28560,
            "time": 57.121288,
            "velocity": 0.6299212598425197
          },
          {
            "duration": 0.2474228000000025,
            "durationTicks": 96,
            "midi": 67,
            "name": "G4",
            "ticks": 28560,
            "time": 57.121288,
            "velocity": 0.6299212598425197
          },
          {
            "duration": 0.494845600000005,
            "durationTicks": 192,
            "midi": 78,
            "name": "F#5",
            "ticks": 28680,
            "time": 57.4305665,
            "velocity": 0.6299212598425197
          },
          {
            "duration": 0.494845600000005,
            "durationTicks": 192,
            "midi": 74,
            "name": "D5",
            "ticks": 28680,
            "time": 57.4305665,
            "velocity": 0.6299212598425197
          },
          {
            "duration": 0.494845600000005,
            "durationTicks": 192,
            "midi": 67,
            "name": "G4",
            "ticks": 28680,
            "time": 57.4305665,
            "velocity": 0.6299212598425197
          },
          {
            "duration": 0.2474227999999954,
            "durationTicks": 96,
            "midi": 76,
            "name": "E5",
            "ticks": 28920,
            "time": 58.0491235,
            "velocity": 0.6299212598425197
          },
          {
            "duration": 0.2474227999999954,
            "durationTicks": 96,
            "midi": 72,
            "name": "C5",
            "ticks": 28920,
            "time": 58.0491235,
            "velocity": 0.6299212598425197
          },
          {
            "duration": 0.2474227999999954,
            "durationTicks": 96,
            "midi": 67,
            "name": "G4",
            "ticks": 28920,
            "time": 58.0491235,
            "velocity": 0.6299212598425197
          },
          {
            "duration": 0.2474227999999954,
            "durationTicks": 96,
            "midi": 74,
            "name": "D5",
            "ticks": 29040,
            "time": 58.358402,
            "velocity": 0.6299212598425197
          },
          {
            "duration": 0.2474227999999954,
            "durationTicks": 96,
            "midi": 66,
            "name": "F#4",
            "ticks": 29040,
            "time": 58.358402,
            "velocity": 0.6299212598425197
          },
          {
            "duration": 0.1237113999999977,
            "durationTicks": 48,
            "midi": 72,
            "name": "C5",
            "ticks": 29160,
            "time": 58.667680499999996,
            "velocity": 0.6299212598425197
          },
          {
            "duration": 0.1237113999999977,
            "durationTicks": 48,
            "midi": 64,
            "name": "E4",
            "ticks": 29160,
            "time": 58.667680499999996,
            "velocity": 0.6299212598425197
          },
          {
            "duration": 0.1237113999999977,
            "durationTicks": 48,
            "midi": 71,
            "name": "B4",
            "ticks": 29220,
            "time": 58.82231975,
            "velocity": 0.6299212598425197
          },
          {
            "duration": 0.1237113999999977,
            "durationTicks": 48,
            "midi": 62,
            "name": "D4",
            "ticks": 29220,
            "time": 58.82231975,
            "velocity": 0.6299212598425197
          },
          {
            "duration": 1.4845368000000008,
            "durationTicks": 576,
            "midi": 69,
            "name": "A4",
            "ticks": 29280,
            "time": 58.976958999999994,
            "velocity": 0.6299212598425197
          },
          {
            "duration": 1.4845368000000008,
            "durationTicks": 576,
            "midi": 60,
            "name": "C4",
            "ticks": 29280,
            "time": 58.976958999999994,
            "velocity": 0.6299212598425197
          },
          {
            "duration": 0.2474228000000025,
            "durationTicks": 96,
            "midi": 79,
            "name": "G5",
            "ticks": 30000,
            "time": 60.832629999999995,
            "velocity": 0.6299212598425197
          },
          {
            "duration": 0.2474228000000025,
            "durationTicks": 96,
            "midi": 74,
            "name": "D5",
            "ticks": 30000,
            "time": 60.832629999999995,
            "velocity": 0.6299212598425197
          },
          {
            "duration": 0.2474228000000025,
            "durationTicks": 96,
            "midi": 71,
            "name": "B4",
            "ticks": 30000,
            "time": 60.832629999999995,
            "velocity": 0.6299212598425197
          },
          {
            "duration": 0.2474228000000025,
            "durationTicks": 96,
            "midi": 67,
            "name": "G4",
            "ticks": 30000,
            "time": 60.832629999999995,
            "velocity": 0.6299212598425197
          },
          {
            "duration": 0.2474227999999954,
            "durationTicks": 96,
            "midi": 79,
            "name": "G5",
            "ticks": 30120,
            "time": 61.1419085,
            "velocity": 0.6299212598425197
          },
          {
            "duration": 0.2474228000000025,
            "durationTicks": 96,
            "midi": 74,
            "name": "D5",
            "ticks": 30240,
            "time": 61.451187,
            "velocity": 0.6299212598425197
          },
          {
            "duration": 0.2474228000000025,
            "durationTicks": 96,
            "midi": 71,
            "name": "B4",
            "ticks": 30240,
            "time": 61.451187,
            "velocity": 0.6299212598425197
          },
          {
            "duration": 0.2474228000000025,
            "durationTicks": 96,
            "midi": 67,
            "name": "G4",
            "ticks": 30240,
            "time": 61.451187,
            "velocity": 0.6299212598425197
          },
          {
            "duration": 0.2474228000000025,
            "durationTicks": 96,
            "midi": 79,
            "name": "G5",
            "ticks": 30240,
            "time": 61.451187,
            "velocity": 0.6299212598425197
          },
          {
            "duration": 0.2474228000000025,
            "durationTicks": 96,
            "midi": 79,
            "name": "G5",
            "ticks": 30360,
            "time": 61.760465499999995,
            "velocity": 0.6299212598425197
          },
          {
            "duration": 0.2474227999999954,
            "durationTicks": 96,
            "midi": 79,
            "name": "G5",
            "ticks": 30480,
            "time": 62.069744,
            "velocity": 0.6299212598425197
          },
          {
            "duration": 0.2474227999999954,
            "durationTicks": 96,
            "midi": 76,
            "name": "E5",
            "ticks": 30480,
            "time": 62.069744,
            "velocity": 0.6299212598425197
          },
          {
            "duration": 0.2474227999999954,
            "durationTicks": 96,
            "midi": 67,
            "name": "G4",
            "ticks": 30480,
            "time": 62.069744,
            "velocity": 0.6299212598425197
          },
          {
            "duration": 0.4948455999999979,
            "durationTicks": 192,
            "midi": 67,
            "name": "G4",
            "ticks": 30600,
            "time": 62.3790225,
            "velocity": 0.6299212598425197
          },
          {
            "duration": 0.4948455999999979,
            "durationTicks": 192,
            "midi": 78,
            "name": "F#5",
            "ticks": 30600,
            "time": 62.3790225,
            "velocity": 0.6299212598425197
          },
          {
            "duration": 0.4948455999999979,
            "durationTicks": 192,
            "midi": 74,
            "name": "D5",
            "ticks": 30600,
            "time": 62.3790225,
            "velocity": 0.6299212598425197
          },
          {
            "duration": 0.2474227999999954,
            "durationTicks": 96,
            "midi": 76,
            "name": "E5",
            "ticks": 30840,
            "time": 62.9975795,
            "velocity": 0.6299212598425197
          },
          {
            "duration": 0.2474227999999954,
            "durationTicks": 96,
            "midi": 72,
            "name": "C5",
            "ticks": 30840,
            "time": 62.9975795,
            "velocity": 0.6299212598425197
          },
          {
            "duration": 0.2474227999999954,
            "durationTicks": 96,
            "midi": 67,
            "name": "G4",
            "ticks": 30840,
            "time": 62.9975795,
            "velocity": 0.6299212598425197
          },
          {
            "duration": 0.2474228000000025,
            "durationTicks": 96,
            "midi": 74,
            "name": "D5",
            "ticks": 30960,
            "time": 63.306858,
            "velocity": 0.6299212598425197
          },
          {
            "duration": 0.2474228000000025,
            "durationTicks": 96,
            "midi": 66,
            "name": "F#4",
            "ticks": 30960,
            "time": 63.306858,
            "velocity": 0.6299212598425197
          },
          {
            "duration": 0.1237114000000048,
            "durationTicks": 48,
            "midi": 72,
            "name": "C5",
            "ticks": 31080,
            "time": 63.616136499999996,
            "velocity": 0.6299212598425197
          },
          {
            "duration": 0.1237114000000048,
            "durationTicks": 48,
            "midi": 64,
            "name": "E4",
            "ticks": 31080,
            "time": 63.616136499999996,
            "velocity": 0.6299212598425197
          },
          {
            "duration": 0.1237113999999977,
            "durationTicks": 48,
            "midi": 71,
            "name": "B4",
            "ticks": 31140,
            "time": 63.77077575,
            "velocity": 0.6299212598425197
          },
          {
            "duration": 0.1237113999999977,
            "durationTicks": 48,
            "midi": 62,
            "name": "D4",
            "ticks": 31140,
            "time": 63.77077575,
            "velocity": 0.6299212598425197
          },
          {
            "duration": 1.4845368000000008,
            "durationTicks": 576,
            "midi": 69,
            "name": "A4",
            "ticks": 31200,
            "time": 63.925415,
            "velocity": 0.6299212598425197
          },
          {
            "duration": 1.4845368000000008,
            "durationTicks": 576,
            "midi": 60,
            "name": "C4",
            "ticks": 31200,
            "time": 63.925415,
            "velocity": 0.6299212598425197
          },
          {
            "duration": 1.9793823999999915,
            "durationTicks": 768,
            "midi": 69,
            "name": "A4",
            "ticks": 31920,
            "time": 65.781086,
            "velocity": 0.6299212598425197
          },
          {
            "duration": 1.9793823999999915,
            "durationTicks": 768,
            "midi": 74,
            "name": "D5",
            "ticks": 31920,
            "time": 65.781086,
            "velocity": 0.6299212598425197
          },
          {
            "duration": 1.9793823999999915,
            "durationTicks": 768,
            "midi": 78,
            "name": "F#5",
            "ticks": 31920,
            "time": 65.781086,
            "velocity": 0.6299212598425197
          },
          {
            "duration": 1.9793823999999915,
            "durationTicks": 768,
            "midi": 81,
            "name": "A5",
            "ticks": 31920,
            "time": 65.781086,
            "velocity": 0.6299212598425197
          },
          {
            "duration": 0.3692304000000064,
            "durationTicks": 192,
            "midi": 64,
            "name": "E4",
            "ticks": 32880,
            "time": 68.255314,
            "velocity": 0.6299212598425197
          },
          {
            "duration": 0.3692304000000064,
            "durationTicks": 192,
            "midi": 73,
            "name": "C#5",
            "ticks": 32880,
            "time": 68.255314,
            "velocity": 0.6299212598425197
          },
          {
            "duration": 0.3692303999999922,
            "durationTicks": 192,
            "midi": 64,
            "name": "E4",
            "ticks": 33120,
            "time": 68.716852,
            "velocity": 0.6299212598425197
          },
          {
            "duration": 0.3692303999999922,
            "durationTicks": 192,
            "midi": 73,
            "name": "C#5",
            "ticks": 33120,
            "time": 68.716852,
            "velocity": 0.6299212598425197
          },
          {
            "duration": 0.3692304000000064,
            "durationTicks": 192,
            "midi": 64,
            "name": "E4",
            "ticks": 33360,
            "time": 69.17839,
            "velocity": 0.6299212598425197
          },
          {
            "duration": 0.3692304000000064,
            "durationTicks": 192,
            "midi": 73,
            "name": "C#5",
            "ticks": 33360,
            "time": 69.17839,
            "velocity": 0.6299212598425197
          },
          {
            "duration": 0.7384607999999986,
            "durationTicks": 384,
            "midi": 64,
            "name": "E4",
            "ticks": 33600,
            "time": 69.639928,
            "velocity": 0.6299212598425197
          },
          {
            "duration": 0.7384607999999986,
            "durationTicks": 384,
            "midi": 73,
            "name": "C#5",
            "ticks": 33600,
            "time": 69.639928,
            "velocity": 0.6299212598425197
          },
          {
            "duration": 0.1846152000000103,
            "durationTicks": 96,
            "midi": 64,
            "name": "E4",
            "ticks": 34080,
            "time": 70.56300399999999,
            "velocity": 0.6299212598425197
          },
          {
            "duration": 0.1846152000000103,
            "durationTicks": 96,
            "midi": 71,
            "name": "B4",
            "ticks": 34080,
            "time": 70.56300399999999,
            "velocity": 0.6299212598425197
          },
          {
            "duration": 0.1846151999999961,
            "durationTicks": 96,
            "midi": 64,
            "name": "E4",
            "ticks": 34200,
            "time": 70.793773,
            "velocity": 0.6299212598425197
          },
          {
            "duration": 0.1846151999999961,
            "durationTicks": 96,
            "midi": 69,
            "name": "A4",
            "ticks": 34200,
            "time": 70.793773,
            "velocity": 0.6299212598425197
          },
          {
            "duration": 0.3692304000000064,
            "durationTicks": 192,
            "midi": 64,
            "name": "E4",
            "ticks": 34320,
            "time": 71.024542,
            "velocity": 0.6299212598425197
          },
          {
            "duration": 0.3692304000000064,
            "durationTicks": 192,
            "midi": 73,
            "name": "C#5",
            "ticks": 34320,
            "time": 71.024542,
            "velocity": 0.6299212598425197
          },
          {
            "duration": 0.3692303999999922,
            "durationTicks": 192,
            "midi": 64,
            "name": "E4",
            "ticks": 34560,
            "time": 71.48608,
            "velocity": 0.6299212598425197
          },
          {
            "duration": 0.3692303999999922,
            "durationTicks": 192,
            "midi": 71,
            "name": "B4",
            "ticks": 34560,
            "time": 71.48608,
            "velocity": 0.6299212598425197
          },
          {
            "duration": 0.3692304000000064,
            "durationTicks": 192,
            "midi": 64,
            "name": "E4",
            "ticks": 34800,
            "time": 71.94761799999999,
            "velocity": 0.6299212598425197
          },
          {
            "duration": 0.3692304000000064,
            "durationTicks": 192,
            "midi": 69,
            "name": "A4",
            "ticks": 34800,
            "time": 71.94761799999999,
            "velocity": 0.6299212598425197
          },
          {
            "duration": 0.3692304000000064,
            "durationTicks": 192,
            "midi": 65,
            "name": "F4",
            "ticks": 35040,
            "time": 72.409156,
            "velocity": 0.6299212598425197
          },
          {
            "duration": 0.3692304000000064,
            "durationTicks": 192,
            "midi": 73,
            "name": "C#5",
            "ticks": 35040,
            "time": 72.409156,
            "velocity": 0.6299212598425197
          },
          {
            "duration": 0.5538456000000025,
            "durationTicks": 288,
            "midi": 65,
            "name": "F4",
            "ticks": 35280,
            "time": 72.870694,
            "velocity": 0.6299212598425197
          },
          {
            "duration": 0.5538456000000025,
            "durationTicks": 288,
            "midi": 71,
            "name": "B4",
            "ticks": 35280,
            "time": 72.870694,
            "velocity": 0.6299212598425197
          },
          {
            "duration": 0.1846151999999961,
            "durationTicks": 96,
            "midi": 65,
            "name": "F4",
            "ticks": 35640,
            "time": 73.563001,
            "velocity": 0.6299212598425197
          },
          {
            "duration": 0.1846151999999961,
            "durationTicks": 96,
            "midi": 69,
            "name": "A4",
            "ticks": 35640,
            "time": 73.563001,
            "velocity": 0.6299212598425197
          },
          {
            "duration": 0.3692304000000064,
            "durationTicks": 192,
            "midi": 73,
            "name": "C#5",
            "ticks": 35760,
            "time": 73.79377,
            "velocity": 0.6299212598425197
          },
          {
            "duration": 0.3692304000000064,
            "durationTicks": 192,
            "midi": 64,
            "name": "E4",
            "ticks": 35760,
            "time": 73.79377,
            "velocity": 0.6299212598425197
          },
          {
            "duration": 0.3692303999999922,
            "durationTicks": 192,
            "midi": 71,
            "name": "B4",
            "ticks": 36000,
            "time": 74.255308,
            "velocity": 0.6299212598425197
          },
          {
            "duration": 0.3692303999999922,
            "durationTicks": 192,
            "midi": 64,
            "name": "E4",
            "ticks": 36000,
            "time": 74.255308,
            "velocity": 0.6299212598425197
          },
          {
            "duration": 0.3692303999999922,
            "durationTicks": 192,
            "midi": 69,
            "name": "A4",
            "ticks": 36240,
            "time": 74.716846,
            "velocity": 0.6299212598425197
          },
          {
            "duration": 0.3692303999999922,
            "durationTicks": 192,
            "midi": 64,
            "name": "E4",
            "ticks": 36240,
            "time": 74.716846,
            "velocity": 0.6299212598425197
          },
          {
            "duration": 0.3692304000000064,
            "durationTicks": 192,
            "midi": 64,
            "name": "E4",
            "ticks": 36480,
            "time": 75.178384,
            "velocity": 0.6299212598425197
          },
          {
            "duration": 0.3692304000000064,
            "durationTicks": 192,
            "midi": 73,
            "name": "C#5",
            "ticks": 36480,
            "time": 75.178384,
            "velocity": 0.6299212598425197
          },
          {
            "duration": 0.3692304000000064,
            "durationTicks": 192,
            "midi": 64,
            "name": "E4",
            "ticks": 36720,
            "time": 75.639922,
            "velocity": 0.6299212598425197
          },
          {
            "duration": 0.3692304000000064,
            "durationTicks": 192,
            "midi": 71,
            "name": "B4",
            "ticks": 36720,
            "time": 75.639922,
            "velocity": 0.6299212598425197
          },
          {
            "duration": 0.3692303999999922,
            "durationTicks": 192,
            "midi": 64,
            "name": "E4",
            "ticks": 36960,
            "time": 76.10146,
            "velocity": 0.6299212598425197
          },
          {
            "duration": 0.3692303999999922,
            "durationTicks": 192,
            "midi": 69,
            "name": "A4",
            "ticks": 36960,
            "time": 76.10146,
            "velocity": 0.6299212598425197
          },
          {
            "duration": 0.3692304000000064,
            "durationTicks": 192,
            "midi": 73,
            "name": "C#5",
            "ticks": 37200,
            "time": 76.562998,
            "velocity": 0.6299212598425197
          },
          {
            "duration": 0.3692304000000064,
            "durationTicks": 192,
            "midi": 76,
            "name": "E5",
            "ticks": 37200,
            "time": 76.562998,
            "velocity": 0.6299212598425197
          },
          {
            "duration": 0.3692304000000064,
            "durationTicks": 192,
            "midi": 71,
            "name": "B4",
            "ticks": 37440,
            "time": 77.024536,
            "velocity": 0.6299212598425197
          },
          {
            "duration": 0.3692304000000064,
            "durationTicks": 192,
            "midi": 74,
            "name": "D5",
            "ticks": 37440,
            "time": 77.024536,
            "velocity": 0.6299212598425197
          },
          {
            "duration": 0.3692303999999922,
            "durationTicks": 192,
            "midi": 69,
            "name": "A4",
            "ticks": 37680,
            "time": 77.486074,
            "velocity": 0.6299212598425197
          },
          {
            "duration": 0.3692303999999922,
            "durationTicks": 192,
            "midi": 73,
            "name": "C#5",
            "ticks": 37680,
            "time": 77.486074,
            "velocity": 0.6299212598425197
          },
          {
            "duration": 2.492305200000004,
            "durationTicks": 1296,
            "midi": 65,
            "name": "F4",
            "ticks": 37920,
            "time": 77.94761199999999,
            "velocity": 0.6299212598425197
          },
          {
            "duration": 2.492305200000004,
            "durationTicks": 1296,
            "midi": 69,
            "name": "A4",
            "ticks": 37920,
            "time": 77.94761199999999,
            "velocity": 0.6299212598425197
          },
          {
            "duration": 0.3692304000000064,
            "durationTicks": 192,
            "midi": 69,
            "name": "A4",
            "ticks": 39360,
            "time": 80.71683999999999,
            "velocity": 0.6299212598425197
          },
          {
            "duration": 0.3692304000000064,
            "durationTicks": 192,
            "midi": 73,
            "name": "C#5",
            "ticks": 39360,
            "time": 80.71683999999999,
            "velocity": 0.6299212598425197
          },
          {
            "duration": 0.3692304000000064,
            "durationTicks": 192,
            "midi": 71,
            "name": "B4",
            "ticks": 39600,
            "time": 81.178378,
            "velocity": 0.6299212598425197
          },
          {
            "duration": 0.3692304000000064,
            "durationTicks": 192,
            "midi": 74,
            "name": "D5",
            "ticks": 39600,
            "time": 81.178378,
            "velocity": 0.6299212598425197
          },
          {
            "duration": 0.3692303999999922,
            "durationTicks": 192,
            "midi": 73,
            "name": "C#5",
            "ticks": 39840,
            "time": 81.639916,
            "velocity": 0.6299212598425197
          },
          {
            "duration": 0.3692303999999922,
            "durationTicks": 192,
            "midi": 76,
            "name": "E5",
            "ticks": 39840,
            "time": 81.639916,
            "velocity": 0.6299212598425197
          },
          {
            "duration": 0.3692304000000064,
            "durationTicks": 192,
            "midi": 64,
            "name": "E4",
            "ticks": 40080,
            "time": 82.10145399999999,
            "velocity": 0.6299212598425197
          },
          {
            "duration": 0.3692304000000064,
            "durationTicks": 192,
            "midi": 73,
            "name": "C#5",
            "ticks": 40080,
            "time": 82.10145399999999,
            "velocity": 0.6299212598425197
          },
          {
            "duration": 0.3692304000000064,
            "durationTicks": 192,
            "midi": 64,
            "name": "E4",
            "ticks": 40320,
            "time": 82.562992,
            "velocity": 0.6299212598425197
          },
          {
            "duration": 0.3692304000000064,
            "durationTicks": 192,
            "midi": 71,
            "name": "B4",
            "ticks": 40320,
            "time": 82.562992,
            "velocity": 0.6299212598425197
          },
          {
            "duration": 0.3692303999999922,
            "durationTicks": 192,
            "midi": 64,
            "name": "E4",
            "ticks": 40560,
            "time": 83.02453,
            "velocity": 0.6299212598425197
          },
          {
            "duration": 0.3692303999999922,
            "durationTicks": 192,
            "midi": 69,
            "name": "A4",
            "ticks": 40560,
            "time": 83.02453,
            "velocity": 0.6299212598425197
          },
          {
            "duration": 0.3692304000000064,
            "durationTicks": 192,
            "midi": 64,
            "name": "E4",
            "ticks": 40800,
            "time": 83.48606799999999,
            "velocity": 0.6299212598425197
          },
          {
            "duration": 0.3692304000000064,
            "durationTicks": 192,
            "midi": 73,
            "name": "C#5",
            "ticks": 40800,
            "time": 83.48606799999999,
            "velocity": 0.6299212598425197
          },
          {
            "duration": 0.3692304000000064,
            "durationTicks": 192,
            "midi": 64,
            "name": "E4",
            "ticks": 41040,
            "time": 83.947606,
            "velocity": 0.6299212598425197
          },
          {
            "duration": 0.3692304000000064,
            "durationTicks": 192,
            "midi": 71,
            "name": "B4",
            "ticks": 41040,
            "time": 83.947606,
            "velocity": 0.6299212598425197
          },
          {
            "duration": 0.3692303999999922,
            "durationTicks": 192,
            "midi": 64,
            "name": "E4",
            "ticks": 41280,
            "time": 84.409144,
            "velocity": 0.6299212598425197
          },
          {
            "duration": 0.3692303999999922,
            "durationTicks": 192,
            "midi": 69,
            "name": "A4",
            "ticks": 41280,
            "time": 84.409144,
            "velocity": 0.6299212598425197
          },
          {
            "duration": 0.3692304000000064,
            "durationTicks": 192,
            "midi": 65,
            "name": "F4",
            "ticks": 41520,
            "time": 84.87068199999999,
            "velocity": 0.6299212598425197
          },
          {
            "duration": 0.3692304000000064,
            "durationTicks": 192,
            "midi": 73,
            "name": "C#5",
            "ticks": 41520,
            "time": 84.87068199999999,
            "velocity": 0.6299212598425197
          },
          {
            "duration": 0.3692304000000064,
            "durationTicks": 192,
            "midi": 65,
            "name": "F4",
            "ticks": 41760,
            "time": 85.33221999999999,
            "velocity": 0.6299212598425197
          },
          {
            "duration": 0.3692304000000064,
            "durationTicks": 192,
            "midi": 71,
            "name": "B4",
            "ticks": 41760,
            "time": 85.33221999999999,
            "velocity": 0.6299212598425197
          },
          {
            "duration": 0.1846152000000103,
            "durationTicks": 96,
            "midi": 65,
            "name": "F4",
            "ticks": 42120,
            "time": 86.02452699999999,
            "velocity": 0.6299212598425197
          },
          {
            "duration": 0.1846152000000103,
            "durationTicks": 96,
            "midi": 69,
            "name": "A4",
            "ticks": 42120,
            "time": 86.02452699999999,
            "velocity": 0.6299212598425197
          },
          {
            "duration": 0.3692303999999922,
            "durationTicks": 192,
            "midi": 64,
            "name": "E4",
            "ticks": 42240,
            "time": 86.255296,
            "velocity": 0.6299212598425197
          },
          {
            "duration": 0.3692303999999922,
            "durationTicks": 192,
            "midi": 73,
            "name": "C#5",
            "ticks": 42240,
            "time": 86.255296,
            "velocity": 0.6299212598425197
          },
          {
            "duration": 0.3692304000000064,
            "durationTicks": 192,
            "midi": 64,
            "name": "E4",
            "ticks": 42480,
            "time": 86.71683399999999,
            "velocity": 0.6299212598425197
          },
          {
            "duration": 0.3692304000000064,
            "durationTicks": 192,
            "midi": 71,
            "name": "B4",
            "ticks": 42480,
            "time": 86.71683399999999,
            "velocity": 0.6299212598425197
          },
          {
            "duration": 0.3692303999999922,
            "durationTicks": 192,
            "midi": 64,
            "name": "E4",
            "ticks": 42720,
            "time": 87.178372,
            "velocity": 0.6299212598425197
          },
          {
            "duration": 0.3692303999999922,
            "durationTicks": 192,
            "midi": 69,
            "name": "A4",
            "ticks": 42720,
            "time": 87.178372,
            "velocity": 0.6299212598425197
          },
          {
            "duration": 0.3692303999999922,
            "durationTicks": 192,
            "midi": 73,
            "name": "C#5",
            "ticks": 42960,
            "time": 87.63991,
            "velocity": 0.6299212598425197
          },
          {
            "duration": 0.3692303999999922,
            "durationTicks": 192,
            "midi": 76,
            "name": "E5",
            "ticks": 42960,
            "time": 87.63991,
            "velocity": 0.6299212598425197
          },
          {
            "duration": 0.3692303999999922,
            "durationTicks": 192,
            "midi": 71,
            "name": "B4",
            "ticks": 43200,
            "time": 88.101448,
            "velocity": 0.6299212598425197
          },
          {
            "duration": 0.3692303999999922,
            "durationTicks": 192,
            "midi": 74,
            "name": "D5",
            "ticks": 43200,
            "time": 88.101448,
            "velocity": 0.6299212598425197
          },
          {
            "duration": 0.3692303999999922,
            "durationTicks": 192,
            "midi": 69,
            "name": "A4",
            "ticks": 43440,
            "time": 88.562986,
            "velocity": 0.6299212598425197
          },
          {
            "duration": 0.3692303999999922,
            "durationTicks": 192,
            "midi": 73,
            "name": "C#5",
            "ticks": 43440,
            "time": 88.562986,
            "velocity": 0.6299212598425197
          },
          {
            "duration": 2.49230519999999,
            "durationTicks": 1296,
            "midi": 69,
            "name": "A4",
            "ticks": 43680,
            "time": 89.024524,
            "velocity": 0.6299212598425197
          },
          {
            "duration": 0.3692304000000064,
            "durationTicks": 192,
            "midi": 74,
            "name": "D5",
            "ticks": 46560,
            "time": 94.56298,
            "velocity": 0.6299212598425197
          },
          {
            "duration": 0.3692304000000064,
            "durationTicks": 192,
            "midi": 70,
            "name": "A#4",
            "ticks": 46560,
            "time": 94.56298,
            "velocity": 0.6299212598425197
          },
          {
            "duration": 0.3692304000000064,
            "durationTicks": 192,
            "midi": 65,
            "name": "F4",
            "ticks": 46560,
            "time": 94.56298,
            "velocity": 0.6299212598425197
          },
          {
            "duration": 0.3692303999999922,
            "durationTicks": 192,
            "midi": 74,
            "name": "D5",
            "ticks": 46800,
            "time": 95.024518,
            "velocity": 0.6299212598425197
          },
          {
            "duration": 0.3692303999999922,
            "durationTicks": 192,
            "midi": 70,
            "name": "A#4",
            "ticks": 46800,
            "time": 95.024518,
            "velocity": 0.6299212598425197
          },
          {
            "duration": 0.3692303999999922,
            "durationTicks": 192,
            "midi": 65,
            "name": "F4",
            "ticks": 46800,
            "time": 95.024518,
            "velocity": 0.6299212598425197
          },
          {
            "duration": 0.3692304000000064,
            "durationTicks": 192,
            "midi": 74,
            "name": "D5",
            "ticks": 47040,
            "time": 95.48605599999999,
            "velocity": 0.6299212598425197
          },
          {
            "duration": 0.3692304000000064,
            "durationTicks": 192,
            "midi": 70,
            "name": "A#4",
            "ticks": 47040,
            "time": 95.48605599999999,
            "velocity": 0.6299212598425197
          },
          {
            "duration": 0.3692304000000064,
            "durationTicks": 192,
            "midi": 65,
            "name": "F4",
            "ticks": 47040,
            "time": 95.48605599999999,
            "velocity": 0.6299212598425197
          },
          {
            "duration": 0.3692304000000064,
            "durationTicks": 192,
            "midi": 74,
            "name": "D5",
            "ticks": 47280,
            "time": 95.947594,
            "velocity": 0.6299212598425197
          },
          {
            "duration": 0.3692304000000064,
            "durationTicks": 192,
            "midi": 70,
            "name": "A#4",
            "ticks": 47280,
            "time": 95.947594,
            "velocity": 0.6299212598425197
          },
          {
            "duration": 0.3692304000000064,
            "durationTicks": 192,
            "midi": 65,
            "name": "F4",
            "ticks": 47280,
            "time": 95.947594,
            "velocity": 0.6299212598425197
          },
          {
            "duration": 0.3692303999999922,
            "durationTicks": 192,
            "midi": 74,
            "name": "D5",
            "ticks": 47520,
            "time": 96.409132,
            "velocity": 0.6299212598425197
          },
          {
            "duration": 0.3692303999999922,
            "durationTicks": 192,
            "midi": 70,
            "name": "A#4",
            "ticks": 47520,
            "time": 96.409132,
            "velocity": 0.6299212598425197
          },
          {
            "duration": 0.3692303999999922,
            "durationTicks": 192,
            "midi": 65,
            "name": "F4",
            "ticks": 47520,
            "time": 96.409132,
            "velocity": 0.6299212598425197
          },
          {
            "duration": 0.3692304000000064,
            "durationTicks": 192,
            "midi": 74,
            "name": "D5",
            "ticks": 47760,
            "time": 96.87066999999999,
            "velocity": 0.6299212598425197
          },
          {
            "duration": 0.3692304000000064,
            "durationTicks": 192,
            "midi": 70,
            "name": "A#4",
            "ticks": 47760,
            "time": 96.87066999999999,
            "velocity": 0.6299212598425197
          },
          {
            "duration": 0.3692304000000064,
            "durationTicks": 192,
            "midi": 65,
            "name": "F4",
            "ticks": 47760,
            "time": 96.87066999999999,
            "velocity": 0.6299212598425197
          },
          {
            "duration": 0.3692304000000064,
            "durationTicks": 192,
            "midi": 72,
            "name": "C5",
            "ticks": 48000,
            "time": 97.332208,
            "velocity": 0.6299212598425197
          },
          {
            "duration": 0.3692304000000064,
            "durationTicks": 192,
            "midi": 70,
            "name": "A#4",
            "ticks": 48000,
            "time": 97.332208,
            "velocity": 0.6299212598425197
          },
          {
            "duration": 0.3692304000000064,
            "durationTicks": 192,
            "midi": 64,
            "name": "E4",
            "ticks": 48000,
            "time": 97.332208,
            "velocity": 0.6299212598425197
          },
          {
            "duration": 0.3692303999999922,
            "durationTicks": 192,
            "midi": 74,
            "name": "D5",
            "ticks": 48240,
            "time": 97.793746,
            "velocity": 0.6299212598425197
          },
          {
            "duration": 0.3692303999999922,
            "durationTicks": 192,
            "midi": 70,
            "name": "A#4",
            "ticks": 48240,
            "time": 97.793746,
            "velocity": 0.6299212598425197
          },
          {
            "duration": 0.3692303999999922,
            "durationTicks": 192,
            "midi": 64,
            "name": "E4",
            "ticks": 48240,
            "time": 97.793746,
            "velocity": 0.6299212598425197
          },
          {
            "duration": 0.3692304000000064,
            "durationTicks": 192,
            "midi": 74,
            "name": "D5",
            "ticks": 48480,
            "time": 98.25528399999999,
            "velocity": 0.6299212598425197
          },
          {
            "duration": 0.3692304000000064,
            "durationTicks": 192,
            "midi": 70,
            "name": "A#4",
            "ticks": 48480,
            "time": 98.25528399999999,
            "velocity": 0.6299212598425197
          },
          {
            "duration": 0.3692304000000064,
            "durationTicks": 192,
            "midi": 64,
            "name": "E4",
            "ticks": 48480,
            "time": 98.25528399999999,
            "velocity": 0.6299212598425197
          },
          {
            "duration": 1.107691200000005,
            "durationTicks": 576,
            "midi": 74,
            "name": "D5",
            "ticks": 48720,
            "time": 98.716822,
            "velocity": 0.6299212598425197
          },
          {
            "duration": 1.107691200000005,
            "durationTicks": 576,
            "midi": 70,
            "name": "A#4",
            "ticks": 48720,
            "time": 98.716822,
            "velocity": 0.6299212598425197
          },
          {
            "duration": 1.107691200000005,
            "durationTicks": 576,
            "midi": 64,
            "name": "E4",
            "ticks": 48720,
            "time": 98.716822,
            "velocity": 0.6299212598425197
          },
          {
            "duration": 0.3692304000000064,
            "durationTicks": 192,
            "midi": 74,
            "name": "D5",
            "ticks": 49440,
            "time": 100.10143599999999,
            "velocity": 0.6299212598425197
          },
          {
            "duration": 0.3692304000000064,
            "durationTicks": 192,
            "midi": 69,
            "name": "A4",
            "ticks": 49440,
            "time": 100.10143599999999,
            "velocity": 0.6299212598425197
          },
          {
            "duration": 0.3692304000000064,
            "durationTicks": 192,
            "midi": 65,
            "name": "F4",
            "ticks": 49440,
            "time": 100.10143599999999,
            "velocity": 0.6299212598425197
          },
          {
            "duration": 0.3692303999999922,
            "durationTicks": 192,
            "midi": 74,
            "name": "D5",
            "ticks": 49680,
            "time": 100.562974,
            "velocity": 0.6299212598425197
          },
          {
            "duration": 0.3692303999999922,
            "durationTicks": 192,
            "midi": 69,
            "name": "A4",
            "ticks": 49680,
            "time": 100.562974,
            "velocity": 0.6299212598425197
          },
          {
            "duration": 0.3692303999999922,
            "durationTicks": 192,
            "midi": 65,
            "name": "F4",
            "ticks": 49680,
            "time": 100.562974,
            "velocity": 0.6299212598425197
          },
          {
            "duration": 0.3692304000000064,
            "durationTicks": 192,
            "midi": 74,
            "name": "D5",
            "ticks": 49920,
            "time": 101.02451199999999,
            "velocity": 0.6299212598425197
          },
          {
            "duration": 0.3692304000000064,
            "durationTicks": 192,
            "midi": 69,
            "name": "A4",
            "ticks": 49920,
            "time": 101.02451199999999,
            "velocity": 0.6299212598425197
          },
          {
            "duration": 0.3692304000000064,
            "durationTicks": 192,
            "midi": 65,
            "name": "F4",
            "ticks": 49920,
            "time": 101.02451199999999,
            "velocity": 0.6299212598425197
          },
          {
            "duration": 0.3692304000000064,
            "durationTicks": 192,
            "midi": 74,
            "name": "D5",
            "ticks": 50160,
            "time": 101.48604999999999,
            "velocity": 0.6299212598425197
          },
          {
            "duration": 0.3692304000000064,
            "durationTicks": 192,
            "midi": 69,
            "name": "A4",
            "ticks": 50160,
            "time": 101.48604999999999,
            "velocity": 0.6299212598425197
          },
          {
            "duration": 0.3692304000000064,
            "durationTicks": 192,
            "midi": 65,
            "name": "F4",
            "ticks": 50160,
            "time": 101.48604999999999,
            "velocity": 0.6299212598425197
          },
          {
            "duration": 0.3692303999999922,
            "durationTicks": 192,
            "midi": 74,
            "name": "D5",
            "ticks": 50400,
            "time": 101.947588,
            "velocity": 0.6299212598425197
          },
          {
            "duration": 0.3692303999999922,
            "durationTicks": 192,
            "midi": 69,
            "name": "A4",
            "ticks": 50400,
            "time": 101.947588,
            "velocity": 0.6299212598425197
          },
          {
            "duration": 0.3692303999999922,
            "durationTicks": 192,
            "midi": 65,
            "name": "F4",
            "ticks": 50400,
            "time": 101.947588,
            "velocity": 0.6299212598425197
          },
          {
            "duration": 0.3692304000000064,
            "durationTicks": 192,
            "midi": 74,
            "name": "D5",
            "ticks": 50640,
            "time": 102.40912599999999,
            "velocity": 0.6299212598425197
          },
          {
            "duration": 0.3692304000000064,
            "durationTicks": 192,
            "midi": 69,
            "name": "A4",
            "ticks": 50640,
            "time": 102.40912599999999,
            "velocity": 0.6299212598425197
          },
          {
            "duration": 0.3692304000000064,
            "durationTicks": 192,
            "midi": 65,
            "name": "F4",
            "ticks": 50640,
            "time": 102.40912599999999,
            "velocity": 0.6299212598425197
          },
          {
            "duration": 0.1846151999999961,
            "durationTicks": 96,
            "midi": 74,
            "name": "D5",
            "ticks": 50880,
            "time": 102.870664,
            "velocity": 0.6299212598425197
          },
          {
            "duration": 0.1846151999999961,
            "durationTicks": 96,
            "midi": 70,
            "name": "A#4",
            "ticks": 50880,
            "time": 102.870664,
            "velocity": 0.6299212598425197
          },
          {
            "duration": 0.1846151999999961,
            "durationTicks": 96,
            "midi": 65,
            "name": "F4",
            "ticks": 50880,
            "time": 102.870664,
            "velocity": 0.6299212598425197
          },
          {
            "duration": 0.1846152000000103,
            "durationTicks": 96,
            "midi": 72,
            "name": "C5",
            "ticks": 51000,
            "time": 103.10143299999999,
            "velocity": 0.6299212598425197
          },
          {
            "duration": 2.0307671999999997,
            "durationTicks": 1056,
            "midi": 70,
            "name": "A#4",
            "ticks": 51120,
            "time": 103.332202,
            "velocity": 0.6299212598425197
          },
          {
            "duration": 2.0307671999999997,
            "durationTicks": 1056,
            "midi": 65,
            "name": "F4",
            "ticks": 51120,
            "time": 103.332202,
            "velocity": 0.6299212598425197
          },
          {
            "duration": 2.0307671999999997,
            "durationTicks": 1056,
            "midi": 62,
            "name": "D4",
            "ticks": 51120,
            "time": 103.332202,
            "velocity": 0.6299212598425197
          },
          {
            "duration": 0.3692303999999922,
            "durationTicks": 192,
            "midi": 74,
            "name": "D5",
            "ticks": 52320,
            "time": 105.639892,
            "velocity": 0.6299212598425197
          },
          {
            "duration": 0.3692303999999922,
            "durationTicks": 192,
            "midi": 70,
            "name": "A#4",
            "ticks": 52320,
            "time": 105.639892,
            "velocity": 0.6299212598425197
          },
          {
            "duration": 0.3692303999999922,
            "durationTicks": 192,
            "midi": 64,
            "name": "E4",
            "ticks": 52320,
            "time": 105.639892,
            "velocity": 0.6299212598425197
          },
          {
            "duration": 0.3692303999999922,
            "durationTicks": 192,
            "midi": 74,
            "name": "D5",
            "ticks": 52560,
            "time": 106.10143,
            "velocity": 0.6299212598425197
          },
          {
            "duration": 0.3692303999999922,
            "durationTicks": 192,
            "midi": 70,
            "name": "A#4",
            "ticks": 52560,
            "time": 106.10143,
            "velocity": 0.6299212598425197
          },
          {
            "duration": 0.3692303999999922,
            "durationTicks": 192,
            "midi": 64,
            "name": "E4",
            "ticks": 52560,
            "time": 106.10143,
            "velocity": 0.6299212598425197
          },
          {
            "duration": 0.3692304000000064,
            "durationTicks": 192,
            "midi": 74,
            "name": "D5",
            "ticks": 52800,
            "time": 106.56296799999998,
            "velocity": 0.6299212598425197
          },
          {
            "duration": 0.3692304000000064,
            "durationTicks": 192,
            "midi": 70,
            "name": "A#4",
            "ticks": 52800,
            "time": 106.56296799999998,
            "velocity": 0.6299212598425197
          },
          {
            "duration": 0.3692304000000064,
            "durationTicks": 192,
            "midi": 64,
            "name": "E4",
            "ticks": 52800,
            "time": 106.56296799999998,
            "velocity": 0.6299212598425197
          },
          {
            "duration": 0.3692303999999922,
            "durationTicks": 192,
            "midi": 74,
            "name": "D5",
            "ticks": 53040,
            "time": 107.024506,
            "velocity": 0.6299212598425197
          },
          {
            "duration": 0.3692303999999922,
            "durationTicks": 192,
            "midi": 70,
            "name": "A#4",
            "ticks": 53040,
            "time": 107.024506,
            "velocity": 0.6299212598425197
          },
          {
            "duration": 0.3692303999999922,
            "durationTicks": 192,
            "midi": 64,
            "name": "E4",
            "ticks": 53040,
            "time": 107.024506,
            "velocity": 0.6299212598425197
          },
          {
            "duration": 0.3692303999999922,
            "durationTicks": 192,
            "midi": 74,
            "name": "D5",
            "ticks": 53280,
            "time": 107.48604399999999,
            "velocity": 0.6299212598425197
          },
          {
            "duration": 0.3692303999999922,
            "durationTicks": 192,
            "midi": 70,
            "name": "A#4",
            "ticks": 53280,
            "time": 107.48604399999999,
            "velocity": 0.6299212598425197
          },
          {
            "duration": 0.3692303999999922,
            "durationTicks": 192,
            "midi": 64,
            "name": "E4",
            "ticks": 53280,
            "time": 107.48604399999999,
            "velocity": 0.6299212598425197
          },
          {
            "duration": 0.3692303999999922,
            "durationTicks": 192,
            "midi": 74,
            "name": "D5",
            "ticks": 53520,
            "time": 107.947582,
            "velocity": 0.6299212598425197
          },
          {
            "duration": 0.3692303999999922,
            "durationTicks": 192,
            "midi": 70,
            "name": "A#4",
            "ticks": 53520,
            "time": 107.947582,
            "velocity": 0.6299212598425197
          },
          {
            "duration": 0.3692303999999922,
            "durationTicks": 192,
            "midi": 64,
            "name": "E4",
            "ticks": 53520,
            "time": 107.947582,
            "velocity": 0.6299212598425197
          },
          {
            "duration": 0.3692303999999922,
            "durationTicks": 192,
            "midi": 74,
            "name": "D5",
            "ticks": 53760,
            "time": 108.40912,
            "velocity": 0.6299212598425197
          },
          {
            "duration": 0.3692303999999922,
            "durationTicks": 192,
            "midi": 71,
            "name": "B4",
            "ticks": 53760,
            "time": 108.40912,
            "velocity": 0.6299212598425197
          },
          {
            "duration": 0.3692303999999922,
            "durationTicks": 192,
            "midi": 62,
            "name": "D4",
            "ticks": 53760,
            "time": 108.40912,
            "velocity": 0.6299212598425197
          },
          {
            "duration": 0.3692303999999922,
            "durationTicks": 192,
            "midi": 74,
            "name": "D5",
            "ticks": 54000,
            "time": 108.87065799999999,
            "velocity": 0.6299212598425197
          },
          {
            "duration": 0.3692303999999922,
            "durationTicks": 192,
            "midi": 71,
            "name": "B4",
            "ticks": 54000,
            "time": 108.87065799999999,
            "velocity": 0.6299212598425197
          },
          {
            "duration": 0.3692303999999922,
            "durationTicks": 192,
            "midi": 62,
            "name": "D4",
            "ticks": 54000,
            "time": 108.87065799999999,
            "velocity": 0.6299212598425197
          },
          {
            "duration": 0.3692304000000064,
            "durationTicks": 192,
            "midi": 74,
            "name": "D5",
            "ticks": 54240,
            "time": 109.332196,
            "velocity": 0.6299212598425197
          },
          {
            "duration": 0.3692304000000064,
            "durationTicks": 192,
            "midi": 71,
            "name": "B4",
            "ticks": 54240,
            "time": 109.332196,
            "velocity": 0.6299212598425197
          },
          {
            "duration": 0.3692304000000064,
            "durationTicks": 192,
            "midi": 62,
            "name": "D4",
            "ticks": 54240,
            "time": 109.332196,
            "velocity": 0.6299212598425197
          },
          {
            "duration": 0.3692303999999922,
            "durationTicks": 192,
            "midi": 74,
            "name": "D5",
            "ticks": 54480,
            "time": 109.793734,
            "velocity": 0.6299212598425197
          },
          {
            "duration": 0.3692303999999922,
            "durationTicks": 192,
            "midi": 71,
            "name": "B4",
            "ticks": 54480,
            "time": 109.793734,
            "velocity": 0.6299212598425197
          },
          {
            "duration": 0.3692303999999922,
            "durationTicks": 192,
            "midi": 62,
            "name": "D4",
            "ticks": 54480,
            "time": 109.793734,
            "velocity": 0.6299212598425197
          },
          {
            "duration": 0.3692303999999922,
            "durationTicks": 192,
            "midi": 72,
            "name": "C5",
            "ticks": 54720,
            "time": 110.25527199999999,
            "velocity": 0.6299212598425197
          },
          {
            "duration": 0.3692303999999922,
            "durationTicks": 192,
            "midi": 69,
            "name": "A4",
            "ticks": 54720,
            "time": 110.25527199999999,
            "velocity": 0.6299212598425197
          },
          {
            "duration": 0.3692303999999922,
            "durationTicks": 192,
            "midi": 62,
            "name": "D4",
            "ticks": 54720,
            "time": 110.25527199999999,
            "velocity": 0.6299212598425197
          },
          {
            "duration": 0.3692304000000064,
            "durationTicks": 192,
            "midi": 71,
            "name": "B4",
            "ticks": 54960,
            "time": 110.71681,
            "velocity": 0.6299212598425197
          },
          {
            "duration": 0.3692304000000064,
            "durationTicks": 192,
            "midi": 67,
            "name": "G4",
            "ticks": 54960,
            "time": 110.71681,
            "velocity": 0.6299212598425197
          },
          {
            "duration": 0.3692304000000064,
            "durationTicks": 192,
            "midi": 63,
            "name": "D#4",
            "ticks": 54960,
            "time": 110.71681,
            "velocity": 0.6299212598425197
          },
          {
            "duration": 1.9793824000000058,
            "durationTicks": 768,
            "midi": 69,
            "name": "A4",
            "ticks": 55200,
            "time": 111.178348,
            "velocity": 0.6299212598425197
          },
          {
            "duration": 1.9793824000000058,
            "durationTicks": 768,
            "midi": 66,
            "name": "F#4",
            "ticks": 55200,
            "time": 111.178348,
            "velocity": 0.6299212598425197
          },
          {
            "duration": 1.9793824000000058,
            "durationTicks": 768,
            "midi": 62,
            "name": "D4",
            "ticks": 55200,
            "time": 111.178348,
            "velocity": 0.6299212598425197
          },
          {
            "duration": 0.2474228000000096,
            "durationTicks": 96,
            "midi": 79,
            "name": "G5",
            "ticks": 56160,
            "time": 113.652576,
            "velocity": 0.6299212598425197
          },
          {
            "duration": 0.2474228000000096,
            "durationTicks": 96,
            "midi": 74,
            "name": "D5",
            "ticks": 56160,
            "time": 113.652576,
            "velocity": 0.6299212598425197
          },
          {
            "duration": 0.2474228000000096,
            "durationTicks": 96,
            "midi": 71,
            "name": "B4",
            "ticks": 56160,
            "time": 113.652576,
            "velocity": 0.6299212598425197
          },
          {
            "duration": 0.2474228000000096,
            "durationTicks": 96,
            "midi": 67,
            "name": "G4",
            "ticks": 56160,
            "time": 113.652576,
            "velocity": 0.6299212598425197
          },
          {
            "duration": 0.2474227999999954,
            "durationTicks": 96,
            "midi": 79,
            "name": "G5",
            "ticks": 56280,
            "time": 113.9618545,
            "velocity": 0.6299212598425197
          },
          {
            "duration": 0.2474227999999954,
            "durationTicks": 96,
            "midi": 74,
            "name": "D5",
            "ticks": 56400,
            "time": 114.271133,
            "velocity": 0.6299212598425197
          },
          {
            "duration": 0.2474227999999954,
            "durationTicks": 96,
            "midi": 71,
            "name": "B4",
            "ticks": 56400,
            "time": 114.271133,
            "velocity": 0.6299212598425197
          },
          {
            "duration": 0.2474227999999954,
            "durationTicks": 96,
            "midi": 67,
            "name": "G4",
            "ticks": 56400,
            "time": 114.271133,
            "velocity": 0.6299212598425197
          },
          {
            "duration": 0.2474227999999954,
            "durationTicks": 96,
            "midi": 79,
            "name": "G5",
            "ticks": 56400,
            "time": 114.271133,
            "velocity": 0.6299212598425197
          },
          {
            "duration": 0.2474228000000096,
            "durationTicks": 96,
            "midi": 79,
            "name": "G5",
            "ticks": 56520,
            "time": 114.5804115,
            "velocity": 0.6299212598425197
          },
          {
            "duration": 0.2474227999999954,
            "durationTicks": 96,
            "midi": 79,
            "name": "G5",
            "ticks": 56640,
            "time": 114.88969,
            "velocity": 0.6299212598425197
          },
          {
            "duration": 0.2474227999999954,
            "durationTicks": 96,
            "midi": 76,
            "name": "E5",
            "ticks": 56640,
            "time": 114.88969,
            "velocity": 0.6299212598425197
          },
          {
            "duration": 0.2474227999999954,
            "durationTicks": 96,
            "midi": 67,
            "name": "G4",
            "ticks": 56640,
            "time": 114.88969,
            "velocity": 0.6299212598425197
          },
          {
            "duration": 0.4948455999999908,
            "durationTicks": 192,
            "midi": 67,
            "name": "G4",
            "ticks": 56760,
            "time": 115.1989685,
            "velocity": 0.6299212598425197
          },
          {
            "duration": 0.4948455999999908,
            "durationTicks": 192,
            "midi": 78,
            "name": "F#5",
            "ticks": 56760,
            "time": 115.1989685,
            "velocity": 0.6299212598425197
          },
          {
            "duration": 0.4948455999999908,
            "durationTicks": 192,
            "midi": 74,
            "name": "D5",
            "ticks": 56760,
            "time": 115.1989685,
            "velocity": 0.6299212598425197
          },
          {
            "duration": 0.2474227999999954,
            "durationTicks": 96,
            "midi": 76,
            "name": "E5",
            "ticks": 57000,
            "time": 115.8175255,
            "velocity": 0.6299212598425197
          },
          {
            "duration": 0.2474227999999954,
            "durationTicks": 96,
            "midi": 72,
            "name": "C5",
            "ticks": 57000,
            "time": 115.8175255,
            "velocity": 0.6299212598425197
          },
          {
            "duration": 0.2474227999999954,
            "durationTicks": 96,
            "midi": 67,
            "name": "G4",
            "ticks": 57000,
            "time": 115.8175255,
            "velocity": 0.6299212598425197
          },
          {
            "duration": 0.2474228000000096,
            "durationTicks": 96,
            "midi": 74,
            "name": "D5",
            "ticks": 57120,
            "time": 116.12680399999999,
            "velocity": 0.6299212598425197
          },
          {
            "duration": 0.2474228000000096,
            "durationTicks": 96,
            "midi": 66,
            "name": "F#4",
            "ticks": 57120,
            "time": 116.12680399999999,
            "velocity": 0.6299212598425197
          },
          {
            "duration": 0.1237114000000048,
            "durationTicks": 48,
            "midi": 72,
            "name": "C5",
            "ticks": 57240,
            "time": 116.4360825,
            "velocity": 0.6299212598425197
          },
          {
            "duration": 0.1237114000000048,
            "durationTicks": 48,
            "midi": 64,
            "name": "E4",
            "ticks": 57240,
            "time": 116.4360825,
            "velocity": 0.6299212598425197
          },
          {
            "duration": 0.1237114000000048,
            "durationTicks": 48,
            "midi": 71,
            "name": "B4",
            "ticks": 57300,
            "time": 116.59072175,
            "velocity": 0.6299212598425197
          },
          {
            "duration": 0.1237114000000048,
            "durationTicks": 48,
            "midi": 62,
            "name": "D4",
            "ticks": 57300,
            "time": 116.59072175,
            "velocity": 0.6299212598425197
          },
          {
            "duration": 1.4845368000000008,
            "durationTicks": 576,
            "midi": 69,
            "name": "A4",
            "ticks": 57360,
            "time": 116.745361,
            "velocity": 0.6299212598425197
          },
          {
            "duration": 1.4845368000000008,
            "durationTicks": 576,
            "midi": 60,
            "name": "C4",
            "ticks": 57360,
            "time": 116.745361,
            "velocity": 0.6299212598425197
          },
          {
            "duration": 0.2474227999999954,
            "durationTicks": 96,
            "midi": 67,
            "name": "G4",
            "ticks": 58080,
            "time": 118.601032,
            "velocity": 0.6299212598425197
          },
          {
            "duration": 0.2474227999999954,
            "durationTicks": 96,
            "midi": 71,
            "name": "B4",
            "ticks": 58080,
            "time": 118.601032,
            "velocity": 0.6299212598425197
          },
          {
            "duration": 0.2474227999999954,
            "durationTicks": 96,
            "midi": 74,
            "name": "D5",
            "ticks": 58080,
            "time": 118.601032,
            "velocity": 0.6299212598425197
          },
          {
            "duration": 0.2474227999999954,
            "durationTicks": 96,
            "midi": 79,
            "name": "G5",
            "ticks": 58080,
            "time": 118.601032,
            "velocity": 0.6299212598425197
          },
          {
            "duration": 0.2474228000000096,
            "durationTicks": 96,
            "midi": 79,
            "name": "G5",
            "ticks": 58200,
            "time": 118.9103105,
            "velocity": 0.6299212598425197
          },
          {
            "duration": 0.2474227999999954,
            "durationTicks": 96,
            "midi": 67,
            "name": "G4",
            "ticks": 58320,
            "time": 119.219589,
            "velocity": 0.6299212598425197
          },
          {
            "duration": 0.2474227999999954,
            "durationTicks": 96,
            "midi": 71,
            "name": "B4",
            "ticks": 58320,
            "time": 119.219589,
            "velocity": 0.6299212598425197
          },
          {
            "duration": 0.2474227999999954,
            "durationTicks": 96,
            "midi": 74,
            "name": "D5",
            "ticks": 58320,
            "time": 119.219589,
            "velocity": 0.6299212598425197
          },
          {
            "duration": 0.2474227999999954,
            "durationTicks": 96,
            "midi": 79,
            "name": "G5",
            "ticks": 58320,
            "time": 119.219589,
            "velocity": 0.6299212598425197
          },
          {
            "duration": 0.2474227999999954,
            "durationTicks": 96,
            "midi": 79,
            "name": "G5",
            "ticks": 58440,
            "time": 119.5288675,
            "velocity": 0.6299212598425197
          },
          {
            "duration": 0.2474228000000096,
            "durationTicks": 96,
            "midi": 67,
            "name": "G4",
            "ticks": 58560,
            "time": 119.838146,
            "velocity": 0.6299212598425197
          },
          {
            "duration": 0.2474228000000096,
            "durationTicks": 96,
            "midi": 76,
            "name": "E5",
            "ticks": 58560,
            "time": 119.838146,
            "velocity": 0.6299212598425197
          },
          {
            "duration": 0.2474228000000096,
            "durationTicks": 96,
            "midi": 79,
            "name": "G5",
            "ticks": 58560,
            "time": 119.838146,
            "velocity": 0.6299212598425197
          },
          {
            "duration": 0.494845600000005,
            "durationTicks": 192,
            "midi": 67,
            "name": "G4",
            "ticks": 58680,
            "time": 120.1474245,
            "velocity": 0.6299212598425197
          },
          {
            "duration": 0.494845600000005,
            "durationTicks": 192,
            "midi": 74,
            "name": "D5",
            "ticks": 58680,
            "time": 120.1474245,
            "velocity": 0.6299212598425197
          },
          {
            "duration": 0.494845600000005,
            "durationTicks": 192,
            "midi": 78,
            "name": "F#5",
            "ticks": 58680,
            "time": 120.1474245,
            "velocity": 0.6299212598425197
          },
          {
            "duration": 0.2474228000000096,
            "durationTicks": 96,
            "midi": 67,
            "name": "G4",
            "ticks": 58920,
            "time": 120.7659815,
            "velocity": 0.6299212598425197
          },
          {
            "duration": 0.2474228000000096,
            "durationTicks": 96,
            "midi": 72,
            "name": "C5",
            "ticks": 58920,
            "time": 120.7659815,
            "velocity": 0.6299212598425197
          },
          {
            "duration": 0.2474228000000096,
            "durationTicks": 96,
            "midi": 76,
            "name": "E5",
            "ticks": 58920,
            "time": 120.7659815,
            "velocity": 0.6299212598425197
          },
          {
            "duration": 0.2474227999999954,
            "durationTicks": 96,
            "midi": 66,
            "name": "F#4",
            "ticks": 59040,
            "time": 121.07526,
            "velocity": 0.6299212598425197
          },
          {
            "duration": 0.2474227999999954,
            "durationTicks": 96,
            "midi": 74,
            "name": "D5",
            "ticks": 59040,
            "time": 121.07526,
            "velocity": 0.6299212598425197
          },
          {
            "duration": 0.12371139999999059,
            "durationTicks": 48,
            "midi": 64,
            "name": "E4",
            "ticks": 59160,
            "time": 121.3845385,
            "velocity": 0.6299212598425197
          },
          {
            "duration": 0.12371139999999059,
            "durationTicks": 48,
            "midi": 72,
            "name": "C5",
            "ticks": 59160,
            "time": 121.3845385,
            "velocity": 0.6299212598425197
          },
          {
            "duration": 0.1237114000000048,
            "durationTicks": 48,
            "midi": 62,
            "name": "D4",
            "ticks": 59220,
            "time": 121.53917775,
            "velocity": 0.6299212598425197
          },
          {
            "duration": 0.1237114000000048,
            "durationTicks": 48,
            "midi": 71,
            "name": "B4",
            "ticks": 59220,
            "time": 121.53917775,
            "velocity": 0.6299212598425197
          },
          {
            "duration": 1.4845368000000008,
            "durationTicks": 576,
            "midi": 60,
            "name": "C4",
            "ticks": 59280,
            "time": 121.693817,
            "velocity": 0.6299212598425197
          },
          {
            "duration": 1.4845368000000008,
            "durationTicks": 576,
            "midi": 69,
            "name": "A4",
            "ticks": 59280,
            "time": 121.693817,
            "velocity": 0.6299212598425197
          },
          {
            "duration": 0.2474228000000096,
            "durationTicks": 96,
            "midi": 67,
            "name": "G4",
            "ticks": 60000,
            "time": 123.549488,
            "velocity": 0.6299212598425197
          },
          {
            "duration": 0.2474228000000096,
            "durationTicks": 96,
            "midi": 71,
            "name": "B4",
            "ticks": 60000,
            "time": 123.549488,
            "velocity": 0.6299212598425197
          },
          {
            "duration": 0.2474228000000096,
            "durationTicks": 96,
            "midi": 74,
            "name": "D5",
            "ticks": 60000,
            "time": 123.549488,
            "velocity": 0.6299212598425197
          },
          {
            "duration": 0.2474228000000096,
            "durationTicks": 96,
            "midi": 79,
            "name": "G5",
            "ticks": 60000,
            "time": 123.549488,
            "velocity": 0.6299212598425197
          },
          {
            "duration": 0.2474227999999954,
            "durationTicks": 96,
            "midi": 79,
            "name": "G5",
            "ticks": 60120,
            "time": 123.8587665,
            "velocity": 0.6299212598425197
          },
          {
            "duration": 0.2474227999999954,
            "durationTicks": 96,
            "midi": 79,
            "name": "G5",
            "ticks": 60240,
            "time": 124.168045,
            "velocity": 0.6299212598425197
          },
          {
            "duration": 0.2474227999999954,
            "durationTicks": 96,
            "midi": 67,
            "name": "G4",
            "ticks": 60240,
            "time": 124.168045,
            "velocity": 0.6299212598425197
          },
          {
            "duration": 0.2474227999999954,
            "durationTicks": 96,
            "midi": 71,
            "name": "B4",
            "ticks": 60240,
            "time": 124.168045,
            "velocity": 0.6299212598425197
          },
          {
            "duration": 0.2474227999999954,
            "durationTicks": 96,
            "midi": 74,
            "name": "D5",
            "ticks": 60240,
            "time": 124.168045,
            "velocity": 0.6299212598425197
          },
          {
            "duration": 0.2474227999999954,
            "durationTicks": 96,
            "midi": 79,
            "name": "G5",
            "ticks": 60360,
            "time": 124.4773235,
            "velocity": 0.6299212598425197
          },
          {
            "duration": 0.2474227999999954,
            "durationTicks": 96,
            "midi": 67,
            "name": "G4",
            "ticks": 60480,
            "time": 124.786602,
            "velocity": 0.6299212598425197
          },
          {
            "duration": 0.2474227999999954,
            "durationTicks": 96,
            "midi": 76,
            "name": "E5",
            "ticks": 60480,
            "time": 124.786602,
            "velocity": 0.6299212598425197
          },
          {
            "duration": 0.2474227999999954,
            "durationTicks": 96,
            "midi": 79,
            "name": "G5",
            "ticks": 60480,
            "time": 124.786602,
            "velocity": 0.6299212598425197
          },
          {
            "duration": 0.494845600000005,
            "durationTicks": 192,
            "midi": 74,
            "name": "D5",
            "ticks": 60600,
            "time": 125.09588049999999,
            "velocity": 0.6299212598425197
          },
          {
            "duration": 0.494845600000005,
            "durationTicks": 192,
            "midi": 78,
            "name": "F#5",
            "ticks": 60600,
            "time": 125.09588049999999,
            "velocity": 0.6299212598425197
          },
          {
            "duration": 0.494845600000005,
            "durationTicks": 192,
            "midi": 67,
            "name": "G4",
            "ticks": 60600,
            "time": 125.09588049999999,
            "velocity": 0.6299212598425197
          },
          {
            "duration": 0.2474227999999954,
            "durationTicks": 96,
            "midi": 67,
            "name": "G4",
            "ticks": 60840,
            "time": 125.7144375,
            "velocity": 0.6299212598425197
          },
          {
            "duration": 0.2474227999999954,
            "durationTicks": 96,
            "midi": 72,
            "name": "C5",
            "ticks": 60840,
            "time": 125.7144375,
            "velocity": 0.6299212598425197
          },
          {
            "duration": 0.2474227999999954,
            "durationTicks": 96,
            "midi": 76,
            "name": "E5",
            "ticks": 60840,
            "time": 125.7144375,
            "velocity": 0.6299212598425197
          },
          {
            "duration": 0.2474227999999954,
            "durationTicks": 96,
            "midi": 66,
            "name": "F#4",
            "ticks": 60960,
            "time": 126.02371600000001,
            "velocity": 0.6299212598425197
          },
          {
            "duration": 0.2474227999999954,
            "durationTicks": 96,
            "midi": 74,
            "name": "D5",
            "ticks": 60960,
            "time": 126.02371600000001,
            "velocity": 0.6299212598425197
          },
          {
            "duration": 0.1237114000000048,
            "durationTicks": 48,
            "midi": 64,
            "name": "E4",
            "ticks": 61080,
            "time": 126.3329945,
            "velocity": 0.6299212598425197
          },
          {
            "duration": 0.1237114000000048,
            "durationTicks": 48,
            "midi": 72,
            "name": "C5",
            "ticks": 61080,
            "time": 126.3329945,
            "velocity": 0.6299212598425197
          },
          {
            "duration": 0.1237114000000048,
            "durationTicks": 48,
            "midi": 62,
            "name": "D4",
            "ticks": 61140,
            "time": 126.48763375,
            "velocity": 0.6299212598425197
          },
          {
            "duration": 0.1237114000000048,
            "durationTicks": 48,
            "midi": 71,
            "name": "B4",
            "ticks": 61140,
            "time": 126.48763375,
            "velocity": 0.6299212598425197
          },
          {
            "duration": 1.4845367999999866,
            "durationTicks": 576,
            "midi": 60,
            "name": "C4",
            "ticks": 61200,
            "time": 126.642273,
            "velocity": 0.6299212598425197
          },
          {
            "duration": 1.4845367999999866,
            "durationTicks": 576,
            "midi": 69,
            "name": "A4",
            "ticks": 61200,
            "time": 126.642273,
            "velocity": 0.6299212598425197
          },
          {
            "duration": 1.97938240000002,
            "durationTicks": 768,
            "midi": 81,
            "name": "A5",
            "ticks": 61920,
            "time": 128.497944,
            "velocity": 0.6299212598425197
          },
          {
            "duration": 1.97938240000002,
            "durationTicks": 768,
            "midi": 78,
            "name": "F#5",
            "ticks": 61920,
            "time": 128.497944,
            "velocity": 0.6299212598425197
          },
          {
            "duration": 1.97938240000002,
            "durationTicks": 768,
            "midi": 74,
            "name": "D5",
            "ticks": 61920,
            "time": 128.497944,
            "velocity": 0.6299212598425197
          },
          {
            "duration": 1.97938240000002,
            "durationTicks": 768,
            "midi": 69,
            "name": "A4",
            "ticks": 61920,
            "time": 128.497944,
            "velocity": 0.6299212598425197
          },
          {
            "duration": 0.3692303999999922,
            "durationTicks": 192,
            "midi": 64,
            "name": "E4",
            "ticks": 62880,
            "time": 130.972172,
            "velocity": 0.6299212598425197
          },
          {
            "duration": 0.3692303999999922,
            "durationTicks": 192,
            "midi": 73,
            "name": "C#5",
            "ticks": 62880,
            "time": 130.972172,
            "velocity": 0.6299212598425197
          },
          {
            "duration": 0.3692304000000206,
            "durationTicks": 192,
            "midi": 64,
            "name": "E4",
            "ticks": 63120,
            "time": 131.43371,
            "velocity": 0.6299212598425197
          },
          {
            "duration": 0.3692304000000206,
            "durationTicks": 192,
            "midi": 73,
            "name": "C#5",
            "ticks": 63120,
            "time": 131.43371,
            "velocity": 0.6299212598425197
          },
          {
            "duration": 0.3692303999999922,
            "durationTicks": 192,
            "midi": 64,
            "name": "E4",
            "ticks": 63360,
            "time": 131.895248,
            "velocity": 0.6299212598425197
          },
          {
            "duration": 0.3692303999999922,
            "durationTicks": 192,
            "midi": 73,
            "name": "C#5",
            "ticks": 63360,
            "time": 131.895248,
            "velocity": 0.6299212598425197
          },
          {
            "duration": 0.7384608000000128,
            "durationTicks": 384,
            "midi": 64,
            "name": "E4",
            "ticks": 63600,
            "time": 132.356786,
            "velocity": 0.6299212598425197
          },
          {
            "duration": 0.7384608000000128,
            "durationTicks": 384,
            "midi": 73,
            "name": "C#5",
            "ticks": 63600,
            "time": 132.356786,
            "velocity": 0.6299212598425197
          },
          {
            "duration": 0.1846151999999961,
            "durationTicks": 96,
            "midi": 64,
            "name": "E4",
            "ticks": 64080,
            "time": 133.279862,
            "velocity": 0.6299212598425197
          },
          {
            "duration": 0.1846151999999961,
            "durationTicks": 96,
            "midi": 71,
            "name": "B4",
            "ticks": 64080,
            "time": 133.279862,
            "velocity": 0.6299212598425197
          },
          {
            "duration": 0.18461520000002452,
            "durationTicks": 96,
            "midi": 64,
            "name": "E4",
            "ticks": 64200,
            "time": 133.510631,
            "velocity": 0.6299212598425197
          },
          {
            "duration": 0.18461520000002452,
            "durationTicks": 96,
            "midi": 69,
            "name": "A4",
            "ticks": 64200,
            "time": 133.510631,
            "velocity": 0.6299212598425197
          },
          {
            "duration": 0.3692303999999922,
            "durationTicks": 192,
            "midi": 64,
            "name": "E4",
            "ticks": 64320,
            "time": 133.7414,
            "velocity": 0.6299212598425197
          },
          {
            "duration": 0.3692303999999922,
            "durationTicks": 192,
            "midi": 73,
            "name": "C#5",
            "ticks": 64320,
            "time": 133.7414,
            "velocity": 0.6299212598425197
          },
          {
            "duration": 0.3692304000000206,
            "durationTicks": 192,
            "midi": 64,
            "name": "E4",
            "ticks": 64560,
            "time": 134.202938,
            "velocity": 0.6299212598425197
          },
          {
            "duration": 0.3692304000000206,
            "durationTicks": 192,
            "midi": 71,
            "name": "B4",
            "ticks": 64560,
            "time": 134.202938,
            "velocity": 0.6299212598425197
          },
          {
            "duration": 0.3692303999999922,
            "durationTicks": 192,
            "midi": 64,
            "name": "E4",
            "ticks": 64800,
            "time": 134.664476,
            "velocity": 0.6299212598425197
          },
          {
            "duration": 0.3692303999999922,
            "durationTicks": 192,
            "midi": 69,
            "name": "A4",
            "ticks": 64800,
            "time": 134.664476,
            "velocity": 0.6299212598425197
          },
          {
            "duration": 0.3692303999999922,
            "durationTicks": 192,
            "midi": 65,
            "name": "F4",
            "ticks": 65040,
            "time": 135.126014,
            "velocity": 0.6299212598425197
          },
          {
            "duration": 0.3692303999999922,
            "durationTicks": 192,
            "midi": 73,
            "name": "C#5",
            "ticks": 65040,
            "time": 135.126014,
            "velocity": 0.6299212598425197
          },
          {
            "duration": 0.5538456000000167,
            "durationTicks": 288,
            "midi": 65,
            "name": "F4",
            "ticks": 65280,
            "time": 135.587552,
            "velocity": 0.6299212598425197
          },
          {
            "duration": 0.5538456000000167,
            "durationTicks": 288,
            "midi": 71,
            "name": "B4",
            "ticks": 65280,
            "time": 135.587552,
            "velocity": 0.6299212598425197
          },
          {
            "duration": 0.18461520000002452,
            "durationTicks": 96,
            "midi": 65,
            "name": "F4",
            "ticks": 65640,
            "time": 136.279859,
            "velocity": 0.6299212598425197
          },
          {
            "duration": 0.18461520000002452,
            "durationTicks": 96,
            "midi": 69,
            "name": "A4",
            "ticks": 65640,
            "time": 136.279859,
            "velocity": 0.6299212598425197
          },
          {
            "duration": 0.3692303999999922,
            "durationTicks": 192,
            "midi": 73,
            "name": "C#5",
            "ticks": 65760,
            "time": 136.510628,
            "velocity": 0.6299212598425197
          },
          {
            "duration": 0.3692303999999922,
            "durationTicks": 192,
            "midi": 64,
            "name": "E4",
            "ticks": 65760,
            "time": 136.510628,
            "velocity": 0.6299212598425197
          },
          {
            "duration": 0.3692304000000206,
            "durationTicks": 192,
            "midi": 71,
            "name": "B4",
            "ticks": 66000,
            "time": 136.972166,
            "velocity": 0.6299212598425197
          },
          {
            "duration": 0.3692304000000206,
            "durationTicks": 192,
            "midi": 64,
            "name": "E4",
            "ticks": 66000,
            "time": 136.972166,
            "velocity": 0.6299212598425197
          },
          {
            "duration": 0.3692303999999922,
            "durationTicks": 192,
            "midi": 69,
            "name": "A4",
            "ticks": 66240,
            "time": 137.433704,
            "velocity": 0.6299212598425197
          },
          {
            "duration": 0.3692303999999922,
            "durationTicks": 192,
            "midi": 64,
            "name": "E4",
            "ticks": 66240,
            "time": 137.433704,
            "velocity": 0.6299212598425197
          },
          {
            "duration": 0.3692303999999922,
            "durationTicks": 192,
            "midi": 64,
            "name": "E4",
            "ticks": 66480,
            "time": 137.895242,
            "velocity": 0.6299212598425197
          },
          {
            "duration": 0.3692303999999922,
            "durationTicks": 192,
            "midi": 73,
            "name": "C#5",
            "ticks": 66480,
            "time": 137.895242,
            "velocity": 0.6299212598425197
          },
          {
            "duration": 0.3692304000000206,
            "durationTicks": 192,
            "midi": 64,
            "name": "E4",
            "ticks": 66720,
            "time": 138.35678,
            "velocity": 0.6299212598425197
          },
          {
            "duration": 0.3692304000000206,
            "durationTicks": 192,
            "midi": 71,
            "name": "B4",
            "ticks": 66720,
            "time": 138.35678,
            "velocity": 0.6299212598425197
          },
          {
            "duration": 0.3692303999999922,
            "durationTicks": 192,
            "midi": 64,
            "name": "E4",
            "ticks": 66960,
            "time": 138.818318,
            "velocity": 0.6299212598425197
          },
          {
            "duration": 0.3692303999999922,
            "durationTicks": 192,
            "midi": 69,
            "name": "A4",
            "ticks": 66960,
            "time": 138.818318,
            "velocity": 0.6299212598425197
          },
          {
            "duration": 0.3692303999999922,
            "durationTicks": 192,
            "midi": 73,
            "name": "C#5",
            "ticks": 67200,
            "time": 139.279856,
            "velocity": 0.6299212598425197
          },
          {
            "duration": 0.3692303999999922,
            "durationTicks": 192,
            "midi": 76,
            "name": "E5",
            "ticks": 67200,
            "time": 139.279856,
            "velocity": 0.6299212598425197
          },
          {
            "duration": 0.3692303999999922,
            "durationTicks": 192,
            "midi": 71,
            "name": "B4",
            "ticks": 67440,
            "time": 139.741394,
            "velocity": 0.6299212598425197
          },
          {
            "duration": 0.3692303999999922,
            "durationTicks": 192,
            "midi": 74,
            "name": "D5",
            "ticks": 67440,
            "time": 139.741394,
            "velocity": 0.6299212598425197
          },
          {
            "duration": 0.3692303999999922,
            "durationTicks": 192,
            "midi": 69,
            "name": "A4",
            "ticks": 67680,
            "time": 140.202932,
            "velocity": 0.6299212598425197
          },
          {
            "duration": 0.3692303999999922,
            "durationTicks": 192,
            "midi": 73,
            "name": "C#5",
            "ticks": 67680,
            "time": 140.202932,
            "velocity": 0.6299212598425197
          },
          {
            "duration": 2.492305200000004,
            "durationTicks": 1296,
            "midi": 65,
            "name": "F4",
            "ticks": 67920,
            "time": 140.66447,
            "velocity": 0.6299212598425197
          },
          {
            "duration": 2.492305200000004,
            "durationTicks": 1296,
            "midi": 69,
            "name": "A4",
            "ticks": 67920,
            "time": 140.66447,
            "velocity": 0.6299212598425197
          },
          {
            "duration": 0.3692303999999922,
            "durationTicks": 192,
            "midi": 69,
            "name": "A4",
            "ticks": 69360,
            "time": 143.433698,
            "velocity": 0.6299212598425197
          },
          {
            "duration": 0.3692303999999922,
            "durationTicks": 192,
            "midi": 73,
            "name": "C#5",
            "ticks": 69360,
            "time": 143.433698,
            "velocity": 0.6299212598425197
          },
          {
            "duration": 0.3692303999999922,
            "durationTicks": 192,
            "midi": 71,
            "name": "B4",
            "ticks": 69600,
            "time": 143.895236,
            "velocity": 0.6299212598425197
          },
          {
            "duration": 0.3692303999999922,
            "durationTicks": 192,
            "midi": 74,
            "name": "D5",
            "ticks": 69600,
            "time": 143.895236,
            "velocity": 0.6299212598425197
          },
          {
            "duration": 0.3692303999999922,
            "durationTicks": 192,
            "midi": 73,
            "name": "C#5",
            "ticks": 69840,
            "time": 144.356774,
            "velocity": 0.6299212598425197
          },
          {
            "duration": 0.3692303999999922,
            "durationTicks": 192,
            "midi": 76,
            "name": "E5",
            "ticks": 69840,
            "time": 144.356774,
            "velocity": 0.6299212598425197
          },
          {
            "duration": 0.3692304000000206,
            "durationTicks": 192,
            "midi": 64,
            "name": "E4",
            "ticks": 70080,
            "time": 144.818312,
            "velocity": 0.6299212598425197
          },
          {
            "duration": 0.3692304000000206,
            "durationTicks": 192,
            "midi": 73,
            "name": "C#5",
            "ticks": 70080,
            "time": 144.818312,
            "velocity": 0.6299212598425197
          },
          {
            "duration": 0.3692303999999922,
            "durationTicks": 192,
            "midi": 64,
            "name": "E4",
            "ticks": 70320,
            "time": 145.27985,
            "velocity": 0.6299212598425197
          },
          {
            "duration": 0.3692303999999922,
            "durationTicks": 192,
            "midi": 71,
            "name": "B4",
            "ticks": 70320,
            "time": 145.27985,
            "velocity": 0.6299212598425197
          },
          {
            "duration": 0.3692303999999922,
            "durationTicks": 192,
            "midi": 64,
            "name": "E4",
            "ticks": 70560,
            "time": 145.741388,
            "velocity": 0.6299212598425197
          },
          {
            "duration": 0.3692303999999922,
            "durationTicks": 192,
            "midi": 69,
            "name": "A4",
            "ticks": 70560,
            "time": 145.741388,
            "velocity": 0.6299212598425197
          },
          {
            "duration": 0.3692303999999922,
            "durationTicks": 192,
            "midi": 64,
            "name": "E4",
            "ticks": 70800,
            "time": 146.202926,
            "velocity": 0.6299212598425197
          },
          {
            "duration": 0.3692303999999922,
            "durationTicks": 192,
            "midi": 73,
            "name": "C#5",
            "ticks": 70800,
            "time": 146.202926,
            "velocity": 0.6299212598425197
          },
          {
            "duration": 0.3692303999999922,
            "durationTicks": 192,
            "midi": 64,
            "name": "E4",
            "ticks": 71040,
            "time": 146.664464,
            "velocity": 0.6299212598425197
          },
          {
            "duration": 0.3692303999999922,
            "durationTicks": 192,
            "midi": 71,
            "name": "B4",
            "ticks": 71040,
            "time": 146.664464,
            "velocity": 0.6299212598425197
          },
          {
            "duration": 0.3692303999999922,
            "durationTicks": 192,
            "midi": 64,
            "name": "E4",
            "ticks": 71280,
            "time": 147.126002,
            "velocity": 0.6299212598425197
          },
          {
            "duration": 0.3692303999999922,
            "durationTicks": 192,
            "midi": 69,
            "name": "A4",
            "ticks": 71280,
            "time": 147.126002,
            "velocity": 0.6299212598425197
          },
          {
            "duration": 0.3692303999999922,
            "durationTicks": 192,
            "midi": 65,
            "name": "F4",
            "ticks": 71520,
            "time": 147.58754,
            "velocity": 0.6299212598425197
          },
          {
            "duration": 0.3692303999999922,
            "durationTicks": 192,
            "midi": 73,
            "name": "C#5",
            "ticks": 71520,
            "time": 147.58754,
            "velocity": 0.6299212598425197
          },
          {
            "duration": 0.3692303999999922,
            "durationTicks": 192,
            "midi": 65,
            "name": "F4",
            "ticks": 71760,
            "time": 148.049078,
            "velocity": 0.6299212598425197
          },
          {
            "duration": 0.3692303999999922,
            "durationTicks": 192,
            "midi": 71,
            "name": "B4",
            "ticks": 71760,
            "time": 148.049078,
            "velocity": 0.6299212598425197
          },
          {
            "duration": 0.1846151999999961,
            "durationTicks": 96,
            "midi": 65,
            "name": "F4",
            "ticks": 72120,
            "time": 148.741385,
            "velocity": 0.6299212598425197
          },
          {
            "duration": 0.1846151999999961,
            "durationTicks": 96,
            "midi": 69,
            "name": "A4",
            "ticks": 72120,
            "time": 148.741385,
            "velocity": 0.6299212598425197
          },
          {
            "duration": 0.3692303999999922,
            "durationTicks": 192,
            "midi": 64,
            "name": "E4",
            "ticks": 72240,
            "time": 148.972154,
            "velocity": 0.6299212598425197
          },
          {
            "duration": 0.3692303999999922,
            "durationTicks": 192,
            "midi": 73,
            "name": "C#5",
            "ticks": 72240,
            "time": 148.972154,
            "velocity": 0.6299212598425197
          },
          {
            "duration": 0.3692303999999922,
            "durationTicks": 192,
            "midi": 64,
            "name": "E4",
            "ticks": 72480,
            "time": 149.433692,
            "velocity": 0.6299212598425197
          },
          {
            "duration": 0.3692303999999922,
            "durationTicks": 192,
            "midi": 71,
            "name": "B4",
            "ticks": 72480,
            "time": 149.433692,
            "velocity": 0.6299212598425197
          },
          {
            "duration": 0.3692303999999922,
            "durationTicks": 192,
            "midi": 64,
            "name": "E4",
            "ticks": 72720,
            "time": 149.89523,
            "velocity": 0.6299212598425197
          },
          {
            "duration": 0.3692303999999922,
            "durationTicks": 192,
            "midi": 69,
            "name": "A4",
            "ticks": 72720,
            "time": 149.89523,
            "velocity": 0.6299212598425197
          },
          {
            "duration": 0.3692304000000206,
            "durationTicks": 192,
            "midi": 73,
            "name": "C#5",
            "ticks": 72960,
            "time": 150.356768,
            "velocity": 0.6299212598425197
          },
          {
            "duration": 0.3692304000000206,
            "durationTicks": 192,
            "midi": 76,
            "name": "E5",
            "ticks": 72960,
            "time": 150.356768,
            "velocity": 0.6299212598425197
          },
          {
            "duration": 0.3692303999999922,
            "durationTicks": 192,
            "midi": 71,
            "name": "B4",
            "ticks": 73200,
            "time": 150.818306,
            "velocity": 0.6299212598425197
          },
          {
            "duration": 0.3692303999999922,
            "durationTicks": 192,
            "midi": 74,
            "name": "D5",
            "ticks": 73200,
            "time": 150.818306,
            "velocity": 0.6299212598425197
          },
          {
            "duration": 0.3692303999999922,
            "durationTicks": 192,
            "midi": 69,
            "name": "A4",
            "ticks": 73440,
            "time": 151.279844,
            "velocity": 0.6299212598425197
          },
          {
            "duration": 0.3692303999999922,
            "durationTicks": 192,
            "midi": 73,
            "name": "C#5",
            "ticks": 73440,
            "time": 151.279844,
            "velocity": 0.6299212598425197
          },
          {
            "duration": 4.74861039999999,
            "durationTicks": 2208,
            "midi": 69,
            "name": "A4",
            "ticks": 73680,
            "time": 151.741382,
            "velocity": 0.6299212598425197
          },
          {
            "duration": 0.24742279999998118,
            "durationTicks": 96,
            "midi": 79,
            "name": "G5",
            "ticks": 76080,
            "time": 156.984838,
            "velocity": 0.6299212598425197
          },
          {
            "duration": 0.24742279999998118,
            "durationTicks": 96,
            "midi": 74,
            "name": "D5",
            "ticks": 76080,
            "time": 156.984838,
            "velocity": 0.6299212598425197
          },
          {
            "duration": 0.24742279999998118,
            "durationTicks": 96,
            "midi": 71,
            "name": "B4",
            "ticks": 76080,
            "time": 156.984838,
            "velocity": 0.6299212598425197
          },
          {
            "duration": 0.24742279999998118,
            "durationTicks": 96,
            "midi": 67,
            "name": "G4",
            "ticks": 76080,
            "time": 156.984838,
            "velocity": 0.6299212598425197
          },
          {
            "duration": 0.2474228000000096,
            "durationTicks": 96,
            "midi": 79,
            "name": "G5",
            "ticks": 76200,
            "time": 157.29411649999997,
            "velocity": 0.6299212598425197
          },
          {
            "duration": 0.2474228000000096,
            "durationTicks": 96,
            "midi": 74,
            "name": "D5",
            "ticks": 76320,
            "time": 157.60339499999998,
            "velocity": 0.6299212598425197
          },
          {
            "duration": 0.2474228000000096,
            "durationTicks": 96,
            "midi": 71,
            "name": "B4",
            "ticks": 76320,
            "time": 157.60339499999998,
            "velocity": 0.6299212598425197
          },
          {
            "duration": 0.2474228000000096,
            "durationTicks": 96,
            "midi": 67,
            "name": "G4",
            "ticks": 76320,
            "time": 157.60339499999998,
            "velocity": 0.6299212598425197
          },
          {
            "duration": 0.2474228000000096,
            "durationTicks": 96,
            "midi": 79,
            "name": "G5",
            "ticks": 76320,
            "time": 157.60339499999998,
            "velocity": 0.6299212598425197
          },
          {
            "duration": 0.2474228000000096,
            "durationTicks": 96,
            "midi": 79,
            "name": "G5",
            "ticks": 76440,
            "time": 157.91267349999998,
            "velocity": 0.6299212598425197
          },
          {
            "duration": 0.2474228000000096,
            "durationTicks": 96,
            "midi": 79,
            "name": "G5",
            "ticks": 76560,
            "time": 158.221952,
            "velocity": 0.6299212598425197
          },
          {
            "duration": 0.2474228000000096,
            "durationTicks": 96,
            "midi": 76,
            "name": "E5",
            "ticks": 76560,
            "time": 158.221952,
            "velocity": 0.6299212598425197
          },
          {
            "duration": 0.2474228000000096,
            "durationTicks": 96,
            "midi": 67,
            "name": "G4",
            "ticks": 76560,
            "time": 158.221952,
            "velocity": 0.6299212598425197
          },
          {
            "duration": 0.4948455999999908,
            "durationTicks": 192,
            "midi": 74,
            "name": "D5",
            "ticks": 76680,
            "time": 158.5312305,
            "velocity": 0.6299212598425197
          },
          {
            "duration": 0.4948455999999908,
            "durationTicks": 192,
            "midi": 78,
            "name": "F#5",
            "ticks": 76680,
            "time": 158.5312305,
            "velocity": 0.6299212598425197
          },
          {
            "duration": 0.4948455999999908,
            "durationTicks": 192,
            "midi": 67,
            "name": "G4",
            "ticks": 76680,
            "time": 158.5312305,
            "velocity": 0.6299212598425197
          },
          {
            "duration": 0.2474228000000096,
            "durationTicks": 96,
            "midi": 76,
            "name": "E5",
            "ticks": 76920,
            "time": 159.14978749999997,
            "velocity": 0.6299212598425197
          },
          {
            "duration": 0.2474228000000096,
            "durationTicks": 96,
            "midi": 72,
            "name": "C5",
            "ticks": 76920,
            "time": 159.14978749999997,
            "velocity": 0.6299212598425197
          },
          {
            "duration": 0.2474228000000096,
            "durationTicks": 96,
            "midi": 67,
            "name": "G4",
            "ticks": 76920,
            "time": 159.14978749999997,
            "velocity": 0.6299212598425197
          },
          {
            "duration": 0.2474228000000096,
            "durationTicks": 96,
            "midi": 74,
            "name": "D5",
            "ticks": 77040,
            "time": 159.45906599999998,
            "velocity": 0.6299212598425197
          },
          {
            "duration": 0.2474228000000096,
            "durationTicks": 96,
            "midi": 66,
            "name": "F#4",
            "ticks": 77040,
            "time": 159.45906599999998,
            "velocity": 0.6299212598425197
          },
          {
            "duration": 0.12371139999999059,
            "durationTicks": 48,
            "midi": 64,
            "name": "E4",
            "ticks": 77160,
            "time": 159.76834449999998,
            "velocity": 0.6299212598425197
          },
          {
            "duration": 0.12371139999999059,
            "durationTicks": 48,
            "midi": 72,
            "name": "C5",
            "ticks": 77160,
            "time": 159.76834449999998,
            "velocity": 0.6299212598425197
          },
          {
            "duration": 0.12371139999999059,
            "durationTicks": 48,
            "midi": 71,
            "name": "B4",
            "ticks": 77220,
            "time": 159.92298375,
            "velocity": 0.6299212598425197
          },
          {
            "duration": 0.12371139999999059,
            "durationTicks": 48,
            "midi": 62,
            "name": "D4",
            "ticks": 77220,
            "time": 159.92298375,
            "velocity": 0.6299212598425197
          },
          {
            "duration": 1.4845368000000008,
            "durationTicks": 576,
            "midi": 69,
            "name": "A4",
            "ticks": 77280,
            "time": 160.077623,
            "velocity": 0.6299212598425197
          },
          {
            "duration": 1.4845368000000008,
            "durationTicks": 576,
            "midi": 60,
            "name": "C4",
            "ticks": 77280,
            "time": 160.077623,
            "velocity": 0.6299212598425197
          },
          {
            "duration": 0.2474228000000096,
            "durationTicks": 96,
            "midi": 67,
            "name": "G4",
            "ticks": 78000,
            "time": 161.933294,
            "velocity": 0.6299212598425197
          },
          {
            "duration": 0.2474228000000096,
            "durationTicks": 96,
            "midi": 71,
            "name": "B4",
            "ticks": 78000,
            "time": 161.933294,
            "velocity": 0.6299212598425197
          },
          {
            "duration": 0.2474228000000096,
            "durationTicks": 96,
            "midi": 74,
            "name": "D5",
            "ticks": 78000,
            "time": 161.933294,
            "velocity": 0.6299212598425197
          },
          {
            "duration": 0.2474228000000096,
            "durationTicks": 96,
            "midi": 79,
            "name": "G5",
            "ticks": 78000,
            "time": 161.933294,
            "velocity": 0.6299212598425197
          },
          {
            "duration": 0.24742279999998118,
            "durationTicks": 96,
            "midi": 79,
            "name": "G5",
            "ticks": 78120,
            "time": 162.2425725,
            "velocity": 0.6299212598425197
          },
          {
            "duration": 0.24742279999998118,
            "durationTicks": 96,
            "midi": 67,
            "name": "G4",
            "ticks": 78240,
            "time": 162.551851,
            "velocity": 0.6299212598425197
          },
          {
            "duration": 0.24742279999998118,
            "durationTicks": 96,
            "midi": 71,
            "name": "B4",
            "ticks": 78240,
            "time": 162.551851,
            "velocity": 0.6299212598425197
          },
          {
            "duration": 0.24742279999998118,
            "durationTicks": 96,
            "midi": 74,
            "name": "D5",
            "ticks": 78240,
            "time": 162.551851,
            "velocity": 0.6299212598425197
          },
          {
            "duration": 0.24742279999998118,
            "durationTicks": 96,
            "midi": 79,
            "name": "G5",
            "ticks": 78240,
            "time": 162.551851,
            "velocity": 0.6299212598425197
          },
          {
            "duration": 0.2474228000000096,
            "durationTicks": 96,
            "midi": 79,
            "name": "G5",
            "ticks": 78360,
            "time": 162.86112949999998,
            "velocity": 0.6299212598425197
          },
          {
            "duration": 0.2474228000000096,
            "durationTicks": 96,
            "midi": 67,
            "name": "G4",
            "ticks": 78480,
            "time": 163.17040799999998,
            "velocity": 0.6299212598425197
          },
          {
            "duration": 0.2474228000000096,
            "durationTicks": 96,
            "midi": 76,
            "name": "E5",
            "ticks": 78480,
            "time": 163.17040799999998,
            "velocity": 0.6299212598425197
          },
          {
            "duration": 0.2474228000000096,
            "durationTicks": 96,
            "midi": 79,
            "name": "G5",
            "ticks": 78480,
            "time": 163.17040799999998,
            "velocity": 0.6299212598425197
          },
          {
            "duration": 0.4948455999999908,
            "durationTicks": 192,
            "midi": 67,
            "name": "G4",
            "ticks": 78600,
            "time": 163.47968649999999,
            "velocity": 0.6299212598425197
          },
          {
            "duration": 0.4948455999999908,
            "durationTicks": 192,
            "midi": 74,
            "name": "D5",
            "ticks": 78600,
            "time": 163.47968649999999,
            "velocity": 0.6299212598425197
          },
          {
            "duration": 0.4948455999999908,
            "durationTicks": 192,
            "midi": 78,
            "name": "F#5",
            "ticks": 78600,
            "time": 163.47968649999999,
            "velocity": 0.6299212598425197
          },
          {
            "duration": 0.24742279999998118,
            "durationTicks": 96,
            "midi": 67,
            "name": "G4",
            "ticks": 78840,
            "time": 164.0982435,
            "velocity": 0.6299212598425197
          },
          {
            "duration": 0.24742279999998118,
            "durationTicks": 96,
            "midi": 72,
            "name": "C5",
            "ticks": 78840,
            "time": 164.0982435,
            "velocity": 0.6299212598425197
          },
          {
            "duration": 0.24742279999998118,
            "durationTicks": 96,
            "midi": 76,
            "name": "E5",
            "ticks": 78840,
            "time": 164.0982435,
            "velocity": 0.6299212598425197
          },
          {
            "duration": 0.2474228000000096,
            "durationTicks": 96,
            "midi": 66,
            "name": "F#4",
            "ticks": 78960,
            "time": 164.40752199999997,
            "velocity": 0.6299212598425197
          },
          {
            "duration": 0.2474228000000096,
            "durationTicks": 96,
            "midi": 74,
            "name": "D5",
            "ticks": 78960,
            "time": 164.40752199999997,
            "velocity": 0.6299212598425197
          },
          {
            "duration": 0.12371140000001901,
            "durationTicks": 48,
            "midi": 64,
            "name": "E4",
            "ticks": 79080,
            "time": 164.71680049999998,
            "velocity": 0.6299212598425197
          },
          {
            "duration": 0.12371140000001901,
            "durationTicks": 48,
            "midi": 72,
            "name": "C5",
            "ticks": 79080,
            "time": 164.71680049999998,
            "velocity": 0.6299212598425197
          },
          {
            "duration": 0.12371140000001901,
            "durationTicks": 48,
            "midi": 62,
            "name": "D4",
            "ticks": 79140,
            "time": 164.87143974999998,
            "velocity": 0.6299212598425197
          },
          {
            "duration": 0.12371140000001901,
            "durationTicks": 48,
            "midi": 71,
            "name": "B4",
            "ticks": 79140,
            "time": 164.87143974999998,
            "velocity": 0.6299212598425197
          },
          {
            "duration": 1.4845368000000008,
            "durationTicks": 576,
            "midi": 60,
            "name": "C4",
            "ticks": 79200,
            "time": 165.02607899999998,
            "velocity": 0.6299212598425197
          },
          {
            "duration": 1.4845368000000008,
            "durationTicks": 576,
            "midi": 69,
            "name": "A4",
            "ticks": 79200,
            "time": 165.02607899999998,
            "velocity": 0.6299212598425197
          },
          {
            "duration": 0.2474228000000096,
            "durationTicks": 96,
            "midi": 67,
            "name": "G4",
            "ticks": 79920,
            "time": 166.88174999999998,
            "velocity": 0.6299212598425197
          },
          {
            "duration": 0.2474228000000096,
            "durationTicks": 96,
            "midi": 71,
            "name": "B4",
            "ticks": 79920,
            "time": 166.88174999999998,
            "velocity": 0.6299212598425197
          },
          {
            "duration": 0.2474228000000096,
            "durationTicks": 96,
            "midi": 74,
            "name": "D5",
            "ticks": 79920,
            "time": 166.88174999999998,
            "velocity": 0.6299212598425197
          },
          {
            "duration": 0.2474228000000096,
            "durationTicks": 96,
            "midi": 79,
            "name": "G5",
            "ticks": 79920,
            "time": 166.88174999999998,
            "velocity": 0.6299212598425197
          },
          {
            "duration": 0.2474228000000096,
            "durationTicks": 96,
            "midi": 79,
            "name": "G5",
            "ticks": 80040,
            "time": 167.1910285,
            "velocity": 0.6299212598425197
          },
          {
            "duration": 0.24742279999998118,
            "durationTicks": 96,
            "midi": 79,
            "name": "G5",
            "ticks": 80160,
            "time": 167.500307,
            "velocity": 0.6299212598425197
          },
          {
            "duration": 0.24742279999998118,
            "durationTicks": 96,
            "midi": 67,
            "name": "G4",
            "ticks": 80160,
            "time": 167.500307,
            "velocity": 0.6299212598425197
          },
          {
            "duration": 0.24742279999998118,
            "durationTicks": 96,
            "midi": 71,
            "name": "B4",
            "ticks": 80160,
            "time": 167.500307,
            "velocity": 0.6299212598425197
          },
          {
            "duration": 0.24742279999998118,
            "durationTicks": 96,
            "midi": 74,
            "name": "D5",
            "ticks": 80160,
            "time": 167.500307,
            "velocity": 0.6299212598425197
          },
          {
            "duration": 0.24742279999998118,
            "durationTicks": 96,
            "midi": 79,
            "name": "G5",
            "ticks": 80280,
            "time": 167.8095855,
            "velocity": 0.6299212598425197
          },
          {
            "duration": 0.2474228000000096,
            "durationTicks": 96,
            "midi": 67,
            "name": "G4",
            "ticks": 80400,
            "time": 168.11886399999997,
            "velocity": 0.6299212598425197
          },
          {
            "duration": 0.2474228000000096,
            "durationTicks": 96,
            "midi": 76,
            "name": "E5",
            "ticks": 80400,
            "time": 168.11886399999997,
            "velocity": 0.6299212598425197
          },
          {
            "duration": 0.2474228000000096,
            "durationTicks": 96,
            "midi": 79,
            "name": "G5",
            "ticks": 80400,
            "time": 168.11886399999997,
            "velocity": 0.6299212598425197
          },
          {
            "duration": 0.4948456000000192,
            "durationTicks": 192,
            "midi": 74,
            "name": "D5",
            "ticks": 80520,
            "time": 168.42814249999998,
            "velocity": 0.6299212598425197
          },
          {
            "duration": 0.4948456000000192,
            "durationTicks": 192,
            "midi": 78,
            "name": "F#5",
            "ticks": 80520,
            "time": 168.42814249999998,
            "velocity": 0.6299212598425197
          },
          {
            "duration": 0.4948456000000192,
            "durationTicks": 192,
            "midi": 67,
            "name": "G4",
            "ticks": 80520,
            "time": 168.42814249999998,
            "velocity": 0.6299212598425197
          },
          {
            "duration": 0.2474228000000096,
            "durationTicks": 96,
            "midi": 67,
            "name": "G4",
            "ticks": 80760,
            "time": 169.0466995,
            "velocity": 0.6299212598425197
          },
          {
            "duration": 0.2474228000000096,
            "durationTicks": 96,
            "midi": 72,
            "name": "C5",
            "ticks": 80760,
            "time": 169.0466995,
            "velocity": 0.6299212598425197
          },
          {
            "duration": 0.2474228000000096,
            "durationTicks": 96,
            "midi": 76,
            "name": "E5",
            "ticks": 80760,
            "time": 169.0466995,
            "velocity": 0.6299212598425197
          },
          {
            "duration": 0.24742279999998118,
            "durationTicks": 96,
            "midi": 66,
            "name": "F#4",
            "ticks": 80880,
            "time": 169.355978,
            "velocity": 0.6299212598425197
          },
          {
            "duration": 0.24742279999998118,
            "durationTicks": 96,
            "midi": 74,
            "name": "D5",
            "ticks": 80880,
            "time": 169.355978,
            "velocity": 0.6299212598425197
          },
          {
            "duration": 0.12371139999999059,
            "durationTicks": 48,
            "midi": 64,
            "name": "E4",
            "ticks": 81000,
            "time": 169.6652565,
            "velocity": 0.6299212598425197
          },
          {
            "duration": 0.12371139999999059,
            "durationTicks": 48,
            "midi": 72,
            "name": "C5",
            "ticks": 81000,
            "time": 169.6652565,
            "velocity": 0.6299212598425197
          },
          {
            "duration": 0.12371139999999059,
            "durationTicks": 48,
            "midi": 62,
            "name": "D4",
            "ticks": 81060,
            "time": 169.81989575,
            "velocity": 0.6299212598425197
          },
          {
            "duration": 0.12371139999999059,
            "durationTicks": 48,
            "midi": 71,
            "name": "B4",
            "ticks": 81060,
            "time": 169.81989575,
            "velocity": 0.6299212598425197
          },
          {
            "duration": 1.4845368000000008,
            "durationTicks": 576,
            "midi": 60,
            "name": "C4",
            "ticks": 81120,
            "time": 169.97453499999997,
            "velocity": 0.6299212598425197
          },
          {
            "duration": 1.4845368000000008,
            "durationTicks": 576,
            "midi": 69,
            "name": "A4",
            "ticks": 81120,
            "time": 169.97453499999997,
            "velocity": 0.6299212598425197
          },
          {
            "duration": 4.453610400000002,
            "durationTicks": 1728,
            "midi": 81,
            "name": "A5",
            "ticks": 81840,
            "time": 171.83020599999998,
            "velocity": 0.6141732283464567
          },
          {
            "duration": 1.97938240000002,
            "durationTicks": 768,
            "midi": 78,
            "name": "F#5",
            "ticks": 81840,
            "time": 171.83020599999998,
            "velocity": 0.6141732283464567
          },
          {
            "duration": 1.97938240000002,
            "durationTicks": 768,
            "midi": 74,
            "name": "D5",
            "ticks": 81840,
            "time": 171.83020599999998,
            "velocity": 0.6141732283464567
          },
          {
            "duration": 4.453610400000002,
            "durationTicks": 1728,
            "midi": 69,
            "name": "A4",
            "ticks": 81840,
            "time": 171.83020599999998,
            "velocity": 0.6141732283464567
          },
          {
            "duration": 1.9793823999999915,
            "durationTicks": 768,
            "midi": 76,
            "name": "E5",
            "ticks": 82800,
            "time": 174.304434,
            "velocity": 0.7874015748031497
          },
          {
            "duration": 1.9793823999999915,
            "durationTicks": 768,
            "midi": 73,
            "name": "C#5",
            "ticks": 82800,
            "time": 174.304434,
            "velocity": 0.7874015748031497
          },
          {
            "duration": 0.24742279999998118,
            "durationTicks": 96,
            "midi": 79,
            "name": "G5",
            "ticks": 83760,
            "time": 176.778662,
            "velocity": 0.6299212598425197
          },
          {
            "duration": 0.24742279999998118,
            "durationTicks": 96,
            "midi": 74,
            "name": "D5",
            "ticks": 83760,
            "time": 176.778662,
            "velocity": 0.6299212598425197
          },
          {
            "duration": 0.24742279999998118,
            "durationTicks": 96,
            "midi": 71,
            "name": "B4",
            "ticks": 83760,
            "time": 176.778662,
            "velocity": 0.6299212598425197
          },
          {
            "duration": 0.24742279999998118,
            "durationTicks": 96,
            "midi": 67,
            "name": "G4",
            "ticks": 83760,
            "time": 176.778662,
            "velocity": 0.6299212598425197
          },
          {
            "duration": 0.24742279999998118,
            "durationTicks": 96,
            "midi": 79,
            "name": "G5",
            "ticks": 83880,
            "time": 177.0879405,
            "velocity": 0.6299212598425197
          },
          {
            "duration": 0.2474228000000096,
            "durationTicks": 96,
            "midi": 74,
            "name": "D5",
            "ticks": 84000,
            "time": 177.39721899999998,
            "velocity": 0.6299212598425197
          },
          {
            "duration": 0.2474228000000096,
            "durationTicks": 96,
            "midi": 71,
            "name": "B4",
            "ticks": 84000,
            "time": 177.39721899999998,
            "velocity": 0.6299212598425197
          },
          {
            "duration": 0.2474228000000096,
            "durationTicks": 96,
            "midi": 67,
            "name": "G4",
            "ticks": 84000,
            "time": 177.39721899999998,
            "velocity": 0.6299212598425197
          },
          {
            "duration": 0.2474228000000096,
            "durationTicks": 96,
            "midi": 79,
            "name": "G5",
            "ticks": 84000,
            "time": 177.39721899999998,
            "velocity": 0.6299212598425197
          },
          {
            "duration": 0.2474228000000096,
            "durationTicks": 96,
            "midi": 79,
            "name": "G5",
            "ticks": 84120,
            "time": 177.70649749999998,
            "velocity": 0.6299212598425197
          },
          {
            "duration": 0.2474228000000096,
            "durationTicks": 96,
            "midi": 79,
            "name": "G5",
            "ticks": 84240,
            "time": 178.015776,
            "velocity": 0.6299212598425197
          },
          {
            "duration": 0.2474228000000096,
            "durationTicks": 96,
            "midi": 76,
            "name": "E5",
            "ticks": 84240,
            "time": 178.015776,
            "velocity": 0.6299212598425197
          },
          {
            "duration": 0.2474228000000096,
            "durationTicks": 96,
            "midi": 67,
            "name": "G4",
            "ticks": 84240,
            "time": 178.015776,
            "velocity": 0.6299212598425197
          },
          {
            "duration": 0.4948455999999908,
            "durationTicks": 192,
            "midi": 67,
            "name": "G4",
            "ticks": 84360,
            "time": 178.3250545,
            "velocity": 0.6299212598425197
          },
          {
            "duration": 0.4948455999999908,
            "durationTicks": 192,
            "midi": 78,
            "name": "F#5",
            "ticks": 84360,
            "time": 178.3250545,
            "velocity": 0.6299212598425197
          },
          {
            "duration": 0.4948455999999908,
            "durationTicks": 192,
            "midi": 74,
            "name": "D5",
            "ticks": 84360,
            "time": 178.3250545,
            "velocity": 0.6299212598425197
          },
          {
            "duration": 0.2474228000000096,
            "durationTicks": 96,
            "midi": 76,
            "name": "E5",
            "ticks": 84600,
            "time": 178.94361149999997,
            "velocity": 0.6299212598425197
          },
          {
            "duration": 0.2474228000000096,
            "durationTicks": 96,
            "midi": 72,
            "name": "C5",
            "ticks": 84600,
            "time": 178.94361149999997,
            "velocity": 0.6299212598425197
          },
          {
            "duration": 0.2474228000000096,
            "durationTicks": 96,
            "midi": 67,
            "name": "G4",
            "ticks": 84600,
            "time": 178.94361149999997,
            "velocity": 0.6299212598425197
          },
          {
            "duration": 0.2474228000000096,
            "durationTicks": 96,
            "midi": 74,
            "name": "D5",
            "ticks": 84720,
            "time": 179.25288999999998,
            "velocity": 0.6299212598425197
          },
          {
            "duration": 0.2474228000000096,
            "durationTicks": 96,
            "midi": 66,
            "name": "F#4",
            "ticks": 84720,
            "time": 179.25288999999998,
            "velocity": 0.6299212598425197
          },
          {
            "duration": 0.12371139999999059,
            "durationTicks": 48,
            "midi": 72,
            "name": "C5",
            "ticks": 84840,
            "time": 179.56216849999998,
            "velocity": 0.6299212598425197
          },
          {
            "duration": 0.12371139999999059,
            "durationTicks": 48,
            "midi": 64,
            "name": "E4",
            "ticks": 84840,
            "time": 179.56216849999998,
            "velocity": 0.6299212598425197
          },
          {
            "duration": 0.12371139999999059,
            "durationTicks": 48,
            "midi": 71,
            "name": "B4",
            "ticks": 84900,
            "time": 179.71680775,
            "velocity": 0.6299212598425197
          },
          {
            "duration": 0.12371139999999059,
            "durationTicks": 48,
            "midi": 62,
            "name": "D4",
            "ticks": 84900,
            "time": 179.71680775,
            "velocity": 0.6299212598425197
          },
          {
            "duration": 1.4845368000000008,
            "durationTicks": 576,
            "midi": 69,
            "name": "A4",
            "ticks": 84960,
            "time": 179.871447,
            "velocity": 0.6299212598425197
          },
          {
            "duration": 1.4845368000000008,
            "durationTicks": 576,
            "midi": 60,
            "name": "C4",
            "ticks": 84960,
            "time": 179.871447,
            "velocity": 0.6299212598425197
          },
          {
            "duration": 0.2474228000000096,
            "durationTicks": 96,
            "midi": 79,
            "name": "G5",
            "ticks": 85680,
            "time": 181.727118,
            "velocity": 0.6299212598425197
          },
          {
            "duration": 0.2474228000000096,
            "durationTicks": 96,
            "midi": 74,
            "name": "D5",
            "ticks": 85680,
            "time": 181.727118,
            "velocity": 0.6299212598425197
          },
          {
            "duration": 0.2474228000000096,
            "durationTicks": 96,
            "midi": 71,
            "name": "B4",
            "ticks": 85680,
            "time": 181.727118,
            "velocity": 0.6299212598425197
          },
          {
            "duration": 0.2474228000000096,
            "durationTicks": 96,
            "midi": 67,
            "name": "G4",
            "ticks": 85680,
            "time": 181.727118,
            "velocity": 0.6299212598425197
          },
          {
            "duration": 0.24742279999998118,
            "durationTicks": 96,
            "midi": 79,
            "name": "G5",
            "ticks": 85800,
            "time": 182.0363965,
            "velocity": 0.6299212598425197
          },
          {
            "duration": 0.2474228000000096,
            "durationTicks": 96,
            "midi": 74,
            "name": "D5",
            "ticks": 85920,
            "time": 182.34567499999997,
            "velocity": 0.6299212598425197
          },
          {
            "duration": 0.2474228000000096,
            "durationTicks": 96,
            "midi": 71,
            "name": "B4",
            "ticks": 85920,
            "time": 182.34567499999997,
            "velocity": 0.6299212598425197
          },
          {
            "duration": 0.2474228000000096,
            "durationTicks": 96,
            "midi": 67,
            "name": "G4",
            "ticks": 85920,
            "time": 182.34567499999997,
            "velocity": 0.6299212598425197
          },
          {
            "duration": 0.2474228000000096,
            "durationTicks": 96,
            "midi": 79,
            "name": "G5",
            "ticks": 85920,
            "time": 182.34567499999997,
            "velocity": 0.6299212598425197
          },
          {
            "duration": 0.2474228000000096,
            "durationTicks": 96,
            "midi": 79,
            "name": "G5",
            "ticks": 86040,
            "time": 182.65495349999998,
            "velocity": 0.6299212598425197
          },
          {
            "duration": 0.2474228000000096,
            "durationTicks": 96,
            "midi": 79,
            "name": "G5",
            "ticks": 86160,
            "time": 182.96423199999998,
            "velocity": 0.6299212598425197
          },
          {
            "duration": 0.2474228000000096,
            "durationTicks": 96,
            "midi": 76,
            "name": "E5",
            "ticks": 86160,
            "time": 182.96423199999998,
            "velocity": 0.6299212598425197
          },
          {
            "duration": 0.2474228000000096,
            "durationTicks": 96,
            "midi": 67,
            "name": "G4",
            "ticks": 86160,
            "time": 182.96423199999998,
            "velocity": 0.6299212598425197
          },
          {
            "duration": 0.4948455999999908,
            "durationTicks": 192,
            "midi": 67,
            "name": "G4",
            "ticks": 86280,
            "time": 183.2735105,
            "velocity": 0.6299212598425197
          },
          {
            "duration": 0.4948455999999908,
            "durationTicks": 192,
            "midi": 78,
            "name": "F#5",
            "ticks": 86280,
            "time": 183.2735105,
            "velocity": 0.6299212598425197
          },
          {
            "duration": 0.4948455999999908,
            "durationTicks": 192,
            "midi": 74,
            "name": "D5",
            "ticks": 86280,
            "time": 183.2735105,
            "velocity": 0.6299212598425197
          },
          {
            "duration": 0.24742279999998118,
            "durationTicks": 96,
            "midi": 76,
            "name": "E5",
            "ticks": 86520,
            "time": 183.8920675,
            "velocity": 0.6299212598425197
          },
          {
            "duration": 0.24742279999998118,
            "durationTicks": 96,
            "midi": 72,
            "name": "C5",
            "ticks": 86520,
            "time": 183.8920675,
            "velocity": 0.6299212598425197
          },
          {
            "duration": 0.24742279999998118,
            "durationTicks": 96,
            "midi": 67,
            "name": "G4",
            "ticks": 86520,
            "time": 183.8920675,
            "velocity": 0.6299212598425197
          },
          {
            "duration": 0.24742279999998118,
            "durationTicks": 96,
            "midi": 74,
            "name": "D5",
            "ticks": 86640,
            "time": 184.201346,
            "velocity": 0.5984251968503937
          },
          {
            "duration": 0.24742279999998118,
            "durationTicks": 96,
            "midi": 66,
            "name": "F#4",
            "ticks": 86640,
            "time": 184.201346,
            "velocity": 0.5984251968503937
          },
          {
            "duration": 0.12371140000001901,
            "durationTicks": 48,
            "midi": 72,
            "name": "C5",
            "ticks": 86760,
            "time": 184.51062449999998,
            "velocity": 0.5984251968503937
          },
          {
            "duration": 0.12371140000001901,
            "durationTicks": 48,
            "midi": 64,
            "name": "E4",
            "ticks": 86760,
            "time": 184.51062449999998,
            "velocity": 0.5984251968503937
          },
          {
            "duration": 0.12371140000001901,
            "durationTicks": 48,
            "midi": 71,
            "name": "B4",
            "ticks": 86820,
            "time": 184.66526374999998,
            "velocity": 0.5984251968503937
          },
          {
            "duration": 0.12371140000001901,
            "durationTicks": 48,
            "midi": 62,
            "name": "D4",
            "ticks": 86820,
            "time": 184.66526374999998,
            "velocity": 0.5984251968503937
          },
          {
            "duration": 1.4845368000000008,
            "durationTicks": 576,
            "midi": 69,
            "name": "A4",
            "ticks": 86880,
            "time": 184.81990299999998,
            "velocity": 0.5984251968503937
          },
          {
            "duration": 1.4845368000000008,
            "durationTicks": 576,
            "midi": 60,
            "name": "C4",
            "ticks": 86880,
            "time": 184.81990299999998,
            "velocity": 0.5984251968503937
          },
          {
            "duration": 0.2474228000000096,
            "durationTicks": 96,
            "midi": 79,
            "name": "G5",
            "ticks": 87600,
            "time": 186.67557399999998,
            "velocity": 0.5354330708661418
          },
          {
            "duration": 0.2474228000000096,
            "durationTicks": 96,
            "midi": 74,
            "name": "D5",
            "ticks": 87600,
            "time": 186.67557399999998,
            "velocity": 0.5354330708661418
          },
          {
            "duration": 0.2474228000000096,
            "durationTicks": 96,
            "midi": 71,
            "name": "B4",
            "ticks": 87600,
            "time": 186.67557399999998,
            "velocity": 0.5354330708661418
          },
          {
            "duration": 0.2474228000000096,
            "durationTicks": 96,
            "midi": 67,
            "name": "G4",
            "ticks": 87600,
            "time": 186.67557399999998,
            "velocity": 0.5354330708661418
          },
          {
            "duration": 0.24742279999998118,
            "durationTicks": 96,
            "midi": 79,
            "name": "G5",
            "ticks": 87720,
            "time": 186.9848525,
            "velocity": 0.5354330708661418
          },
          {
            "duration": 0.24742279999998118,
            "durationTicks": 96,
            "midi": 74,
            "name": "D5",
            "ticks": 87840,
            "time": 187.294131,
            "velocity": 0.5354330708661418
          },
          {
            "duration": 0.24742279999998118,
            "durationTicks": 96,
            "midi": 71,
            "name": "B4",
            "ticks": 87840,
            "time": 187.294131,
            "velocity": 0.5354330708661418
          },
          {
            "duration": 0.24742279999998118,
            "durationTicks": 96,
            "midi": 67,
            "name": "G4",
            "ticks": 87840,
            "time": 187.294131,
            "velocity": 0.5354330708661418
          },
          {
            "duration": 0.24742279999998118,
            "durationTicks": 96,
            "midi": 79,
            "name": "G5",
            "ticks": 87840,
            "time": 187.294131,
            "velocity": 0.5354330708661418
          },
          {
            "duration": 0.24742279999998118,
            "durationTicks": 96,
            "midi": 79,
            "name": "G5",
            "ticks": 87960,
            "time": 187.6034095,
            "velocity": 0.5354330708661418
          },
          {
            "duration": 0.24742279999998118,
            "durationTicks": 96,
            "midi": 79,
            "name": "G5",
            "ticks": 88080,
            "time": 187.912688,
            "velocity": 0.5354330708661418
          },
          {
            "duration": 0.24742279999998118,
            "durationTicks": 96,
            "midi": 76,
            "name": "E5",
            "ticks": 88080,
            "time": 187.912688,
            "velocity": 0.5354330708661418
          },
          {
            "duration": 0.24742279999998118,
            "durationTicks": 96,
            "midi": 67,
            "name": "G4",
            "ticks": 88080,
            "time": 187.912688,
            "velocity": 0.5354330708661418
          },
          {
            "duration": 0.4948455999999908,
            "durationTicks": 192,
            "midi": 67,
            "name": "G4",
            "ticks": 88200,
            "time": 188.22196649999998,
            "velocity": 0.5354330708661418
          },
          {
            "duration": 0.4948455999999908,
            "durationTicks": 192,
            "midi": 78,
            "name": "F#5",
            "ticks": 88200,
            "time": 188.22196649999998,
            "velocity": 0.5354330708661418
          },
          {
            "duration": 0.4948455999999908,
            "durationTicks": 192,
            "midi": 74,
            "name": "D5",
            "ticks": 88200,
            "time": 188.22196649999998,
            "velocity": 0.5354330708661418
          },
          {
            "duration": 0.2474228000000096,
            "durationTicks": 96,
            "midi": 76,
            "name": "E5",
            "ticks": 88440,
            "time": 188.8405235,
            "velocity": 0.5354330708661418
          },
          {
            "duration": 0.2474228000000096,
            "durationTicks": 96,
            "midi": 72,
            "name": "C5",
            "ticks": 88440,
            "time": 188.8405235,
            "velocity": 0.5354330708661418
          },
          {
            "duration": 0.2474228000000096,
            "durationTicks": 96,
            "midi": 67,
            "name": "G4",
            "ticks": 88440,
            "time": 188.8405235,
            "velocity": 0.5354330708661418
          },
          {
            "duration": 0.2474228000000096,
            "durationTicks": 96,
            "midi": 74,
            "name": "D5",
            "ticks": 88560,
            "time": 189.149802,
            "velocity": 0.47244094488188976
          },
          {
            "duration": 0.2474228000000096,
            "durationTicks": 96,
            "midi": 66,
            "name": "F#4",
            "ticks": 88560,
            "time": 189.149802,
            "velocity": 0.47244094488188976
          },
          {
            "duration": 0.12371140000001901,
            "durationTicks": 48,
            "midi": 72,
            "name": "C5",
            "ticks": 88680,
            "time": 189.45908049999997,
            "velocity": 0.47244094488188976
          },
          {
            "duration": 0.12371140000001901,
            "durationTicks": 48,
            "midi": 64,
            "name": "E4",
            "ticks": 88680,
            "time": 189.45908049999997,
            "velocity": 0.47244094488188976
          },
          {
            "duration": 0.12371140000001901,
            "durationTicks": 48,
            "midi": 71,
            "name": "B4",
            "ticks": 88740,
            "time": 189.61371974999997,
            "velocity": 0.47244094488188976
          },
          {
            "duration": 0.12371140000001901,
            "durationTicks": 48,
            "midi": 62,
            "name": "D4",
            "ticks": 88740,
            "time": 189.61371974999997,
            "velocity": 0.47244094488188976
          },
          {
            "duration": 1.4845368000000008,
            "durationTicks": 576,
            "midi": 69,
            "name": "A4",
            "ticks": 88800,
            "time": 189.76835899999998,
            "velocity": 0.47244094488188976
          },
          {
            "duration": 1.4845368000000008,
            "durationTicks": 576,
            "midi": 60,
            "name": "C4",
            "ticks": 88800,
            "time": 189.76835899999998,
            "velocity": 0.47244094488188976
          },
          {
            "duration": 4.453610399999974,
            "durationTicks": 1728,
            "midi": 69,
            "name": "A4",
            "ticks": 89520,
            "time": 191.62403,
            "velocity": 0.3779527559055118
          },
          {
            "duration": 1.9793823999999915,
            "durationTicks": 768,
            "midi": 74,
            "name": "D5",
            "ticks": 89520,
            "time": 191.62403,
            "velocity": 0.3779527559055118
          },
          {
            "duration": 1.9793823999999915,
            "durationTicks": 768,
            "midi": 78,
            "name": "F#5",
            "ticks": 89520,
            "time": 191.62403,
            "velocity": 0.3779527559055118
          },
          {
            "duration": 4.453610399999974,
            "durationTicks": 1728,
            "midi": 81,
            "name": "A5",
            "ticks": 89520,
            "time": 191.62403,
            "velocity": 0.3779527559055118
          },
          {
            "duration": 1.9793823999999915,
            "durationTicks": 768,
            "midi": 73,
            "name": "C#5",
            "ticks": 90480,
            "time": 194.098258,
            "velocity": 0.5118110236220472
          },
          {
            "duration": 1.9793823999999915,
            "durationTicks": 768,
            "midi": 76,
            "name": "E5",
            "ticks": 90480,
            "time": 194.098258,
            "velocity": 0.5118110236220472
          },
          {
            "duration": 0.24742280000003802,
            "durationTicks": 96,
            "midi": 67,
            "name": "G4",
            "ticks": 91440,
            "time": 196.57248599999997,
            "velocity": 0.3228346456692913
          },
          {
            "duration": 0.24742280000003802,
            "durationTicks": 96,
            "midi": 71,
            "name": "B4",
            "ticks": 91440,
            "time": 196.57248599999997,
            "velocity": 0.3228346456692913
          },
          {
            "duration": 0.24742280000003802,
            "durationTicks": 96,
            "midi": 74,
            "name": "D5",
            "ticks": 91440,
            "time": 196.57248599999997,
            "velocity": 0.3228346456692913
          },
          {
            "duration": 0.24742280000003802,
            "durationTicks": 96,
            "midi": 79,
            "name": "G5",
            "ticks": 91440,
            "time": 196.57248599999997,
            "velocity": 0.3228346456692913
          },
          {
            "duration": 0.2474228000000096,
            "durationTicks": 96,
            "midi": 79,
            "name": "G5",
            "ticks": 91560,
            "time": 196.88176449999997,
            "velocity": 0.36220472440944884
          },
          {
            "duration": 0.2474228000000096,
            "durationTicks": 96,
            "midi": 79,
            "name": "G5",
            "ticks": 91680,
            "time": 197.19104299999998,
            "velocity": 0.36220472440944884
          },
          {
            "duration": 0.2474228000000096,
            "durationTicks": 96,
            "midi": 67,
            "name": "G4",
            "ticks": 91680,
            "time": 197.19104299999998,
            "velocity": 0.36220472440944884
          },
          {
            "duration": 0.2474228000000096,
            "durationTicks": 96,
            "midi": 71,
            "name": "B4",
            "ticks": 91680,
            "time": 197.19104299999998,
            "velocity": 0.36220472440944884
          },
          {
            "duration": 0.2474228000000096,
            "durationTicks": 96,
            "midi": 74,
            "name": "D5",
            "ticks": 91680,
            "time": 197.19104299999998,
            "velocity": 0.36220472440944884
          },
          {
            "duration": 0.2474228000000096,
            "durationTicks": 96,
            "midi": 79,
            "name": "G5",
            "ticks": 91800,
            "time": 197.50032149999998,
            "velocity": 0.36220472440944884
          },
          {
            "duration": 0.2474228000000096,
            "durationTicks": 96,
            "midi": 67,
            "name": "G4",
            "ticks": 91920,
            "time": 197.8096,
            "velocity": 0.36220472440944884
          },
          {
            "duration": 0.2474228000000096,
            "durationTicks": 96,
            "midi": 76,
            "name": "E5",
            "ticks": 91920,
            "time": 197.8096,
            "velocity": 0.36220472440944884
          },
          {
            "duration": 0.2474228000000096,
            "durationTicks": 96,
            "midi": 79,
            "name": "G5",
            "ticks": 91920,
            "time": 197.8096,
            "velocity": 0.36220472440944884
          },
          {
            "duration": 0.4948455999999908,
            "durationTicks": 192,
            "midi": 74,
            "name": "D5",
            "ticks": 92040,
            "time": 198.1188785,
            "velocity": 0.36220472440944884
          },
          {
            "duration": 0.4948455999999908,
            "durationTicks": 192,
            "midi": 78,
            "name": "F#5",
            "ticks": 92040,
            "time": 198.1188785,
            "velocity": 0.36220472440944884
          },
          {
            "duration": 0.4948455999999908,
            "durationTicks": 192,
            "midi": 67,
            "name": "G4",
            "ticks": 92040,
            "time": 198.1188785,
            "velocity": 0.36220472440944884
          },
          {
            "duration": 0.24742279999998118,
            "durationTicks": 96,
            "midi": 67,
            "name": "G4",
            "ticks": 92280,
            "time": 198.7374355,
            "velocity": 0.36220472440944884
          },
          {
            "duration": 0.24742279999998118,
            "durationTicks": 96,
            "midi": 72,
            "name": "C5",
            "ticks": 92280,
            "time": 198.7374355,
            "velocity": 0.36220472440944884
          },
          {
            "duration": 0.24742279999998118,
            "durationTicks": 96,
            "midi": 76,
            "name": "E5",
            "ticks": 92280,
            "time": 198.7374355,
            "velocity": 0.36220472440944884
          },
          {
            "duration": 0.2474228000000096,
            "durationTicks": 96,
            "midi": 66,
            "name": "F#4",
            "ticks": 92400,
            "time": 199.04671399999998,
            "velocity": 0.2755905511811024
          },
          {
            "duration": 0.2474228000000096,
            "durationTicks": 96,
            "midi": 74,
            "name": "D5",
            "ticks": 92400,
            "time": 199.04671399999998,
            "velocity": 0.2755905511811024
          },
          {
            "duration": 0.12371140000001901,
            "durationTicks": 48,
            "midi": 72,
            "name": "C5",
            "ticks": 92520,
            "time": 199.35599249999999,
            "velocity": 0.2755905511811024
          },
          {
            "duration": 0.12371140000001901,
            "durationTicks": 48,
            "midi": 64,
            "name": "E4",
            "ticks": 92520,
            "time": 199.35599249999999,
            "velocity": 0.2755905511811024
          },
          {
            "duration": 0.12371140000001901,
            "durationTicks": 48,
            "midi": 71,
            "name": "B4",
            "ticks": 92580,
            "time": 199.51063175,
            "velocity": 0.2755905511811024
          },
          {
            "duration": 0.12371140000001901,
            "durationTicks": 48,
            "midi": 62,
            "name": "D4",
            "ticks": 92580,
            "time": 199.51063175,
            "velocity": 0.2755905511811024
          },
          {
            "duration": 1.4845368000000008,
            "durationTicks": 576,
            "midi": 69,
            "name": "A4",
            "ticks": 92640,
            "time": 199.665271,
            "velocity": 0.2755905511811024
          },
          {
            "duration": 1.4845368000000008,
            "durationTicks": 576,
            "midi": 60,
            "name": "C4",
            "ticks": 92640,
            "time": 199.665271,
            "velocity": 0.2755905511811024
          },
          {
            "duration": 0.2474228000000096,
            "durationTicks": 96,
            "midi": 79,
            "name": "G5",
            "ticks": 93360,
            "time": 201.520942,
            "velocity": 0.18110236220472442
          },
          {
            "duration": 0.2474228000000096,
            "durationTicks": 96,
            "midi": 74,
            "name": "D5",
            "ticks": 93360,
            "time": 201.520942,
            "velocity": 0.18110236220472442
          },
          {
            "duration": 0.2474228000000096,
            "durationTicks": 96,
            "midi": 71,
            "name": "B4",
            "ticks": 93360,
            "time": 201.520942,
            "velocity": 0.18110236220472442
          },
          {
            "duration": 0.2474228000000096,
            "durationTicks": 96,
            "midi": 67,
            "name": "G4",
            "ticks": 93360,
            "time": 201.520942,
            "velocity": 0.18110236220472442
          },
          {
            "duration": 0.24742279999998118,
            "durationTicks": 96,
            "midi": 79,
            "name": "G5",
            "ticks": 93480,
            "time": 201.8302205,
            "velocity": 0.18110236220472442
          },
          {
            "duration": 0.24742279999998118,
            "durationTicks": 96,
            "midi": 74,
            "name": "D5",
            "ticks": 93600,
            "time": 202.139499,
            "velocity": 0.18110236220472442
          },
          {
            "duration": 0.24742279999998118,
            "durationTicks": 96,
            "midi": 71,
            "name": "B4",
            "ticks": 93600,
            "time": 202.139499,
            "velocity": 0.18110236220472442
          },
          {
            "duration": 0.24742279999998118,
            "durationTicks": 96,
            "midi": 67,
            "name": "G4",
            "ticks": 93600,
            "time": 202.139499,
            "velocity": 0.18110236220472442
          },
          {
            "duration": 0.24742279999998118,
            "durationTicks": 96,
            "midi": 79,
            "name": "G5",
            "ticks": 93600,
            "time": 202.139499,
            "velocity": 0.18110236220472442
          },
          {
            "duration": 0.2474228000000096,
            "durationTicks": 96,
            "midi": 79,
            "name": "G5",
            "ticks": 93720,
            "time": 202.44877749999998,
            "velocity": 0.18110236220472442
          },
          {
            "duration": 0.2474228000000096,
            "durationTicks": 96,
            "midi": 79,
            "name": "G5",
            "ticks": 93840,
            "time": 202.75805599999998,
            "velocity": 0.18110236220472442
          },
          {
            "duration": 0.2474228000000096,
            "durationTicks": 96,
            "midi": 76,
            "name": "E5",
            "ticks": 93840,
            "time": 202.75805599999998,
            "velocity": 0.18110236220472442
          },
          {
            "duration": 0.2474228000000096,
            "durationTicks": 96,
            "midi": 67,
            "name": "G4",
            "ticks": 93840,
            "time": 202.75805599999998,
            "velocity": 0.18110236220472442
          },
          {
            "duration": 0.4948455999999908,
            "durationTicks": 192,
            "midi": 67,
            "name": "G4",
            "ticks": 93960,
            "time": 203.0673345,
            "velocity": 0.14173228346456693
          },
          {
            "duration": 0.4948455999999908,
            "durationTicks": 192,
            "midi": 78,
            "name": "F#5",
            "ticks": 93960,
            "time": 203.0673345,
            "velocity": 0.14173228346456693
          },
          {
            "duration": 0.4948455999999908,
            "durationTicks": 192,
            "midi": 74,
            "name": "D5",
            "ticks": 93960,
            "time": 203.0673345,
            "velocity": 0.14173228346456693
          },
          {
            "duration": 0.2474228000000096,
            "durationTicks": 96,
            "midi": 76,
            "name": "E5",
            "ticks": 94200,
            "time": 203.6858915,
            "velocity": 0.14173228346456693
          },
          {
            "duration": 0.2474228000000096,
            "durationTicks": 96,
            "midi": 72,
            "name": "C5",
            "ticks": 94200,
            "time": 203.6858915,
            "velocity": 0.14173228346456693
          },
          {
            "duration": 0.2474228000000096,
            "durationTicks": 96,
            "midi": 67,
            "name": "G4",
            "ticks": 94200,
            "time": 203.6858915,
            "velocity": 0.14173228346456693
          }
        ],
        "endOfTrackTicks": 94296
      },
      {
        "channel": 1,
        "controlChanges": {
          "7": [
            {
              "number": 7,
              "ticks": 0,
              "time": 0,
              "value": 0.4881889763779528
            }
          ]
        },
        "pitchBends": [],
        "instrument": {
          "family": "guitar",
          "number": 30,
          "name": "distortion guitar"
        },
        "name": "Electric Guitar (P31)",
        "notes": [
          {
            "duration": 0.2474228000000025,
            "durationTicks": 96,
            "midi": 43,
            "name": "G2",
            "ticks": 26160,
            "time": 50.935717999999994,
            "velocity": 0.6299212598425197
          },
          {
            "duration": 0.2474227999999954,
            "durationTicks": 96,
            "midi": 43,
            "name": "G2",
            "ticks": 26280,
            "time": 51.2449965,
            "velocity": 0.6299212598425197
          },
          {
            "duration": 0.2474228000000025,
            "durationTicks": 96,
            "midi": 45,
            "name": "A2",
            "ticks": 26400,
            "time": 51.554275,
            "velocity": 0.6299212598425197
          },
          {
            "duration": 0.2474228000000025,
            "durationTicks": 96,
            "midi": 47,
            "name": "B2",
            "ticks": 26520,
            "time": 51.863553499999995,
            "velocity": 0.6299212598425197
          },
          {
            "duration": 0.2474227999999954,
            "durationTicks": 96,
            "midi": 48,
            "name": "C3",
            "ticks": 26640,
            "time": 52.172832,
            "velocity": 0.6299212598425197
          },
          {
            "duration": 0.2474228000000025,
            "durationTicks": 96,
            "midi": 50,
            "name": "D3",
            "ticks": 26760,
            "time": 52.4821105,
            "velocity": 0.6299212598425197
          },
          {
            "duration": 0.2474228000000025,
            "durationTicks": 96,
            "midi": 52,
            "name": "E3",
            "ticks": 26880,
            "time": 52.791388999999995,
            "velocity": 0.6299212598425197
          },
          {
            "duration": 0.2474227999999954,
            "durationTicks": 96,
            "midi": 48,
            "name": "C3",
            "ticks": 27000,
            "time": 53.1006675,
            "velocity": 0.6299212598425197
          },
          {
            "duration": 0.2474228000000025,
            "durationTicks": 96,
            "midi": 50,
            "name": "D3",
            "ticks": 27120,
            "time": 53.409946,
            "velocity": 0.6299212598425197
          },
          {
            "duration": 0.2474228000000025,
            "durationTicks": 96,
            "midi": 50,
            "name": "D3",
            "ticks": 27240,
            "time": 53.719224499999996,
            "velocity": 0.6299212598425197
          },
          {
            "duration": 0.2474227999999954,
            "durationTicks": 96,
            "midi": 50,
            "name": "D3",
            "ticks": 27360,
            "time": 54.028503,
            "velocity": 0.6299212598425197
          },
          {
            "duration": 0.2474228000000025,
            "durationTicks": 96,
            "midi": 50,
            "name": "D3",
            "ticks": 27480,
            "time": 54.3377815,
            "velocity": 0.6299212598425197
          },
          {
            "duration": 0.2474228000000025,
            "durationTicks": 96,
            "midi": 50,
            "name": "D3",
            "ticks": 27600,
            "time": 54.647059999999996,
            "velocity": 0.6299212598425197
          },
          {
            "duration": 0.2474227999999954,
            "durationTicks": 96,
            "midi": 50,
            "name": "D3",
            "ticks": 27720,
            "time": 54.9563385,
            "velocity": 0.6299212598425197
          },
          {
            "duration": 0.2474228000000025,
            "durationTicks": 96,
            "midi": 50,
            "name": "D3",
            "ticks": 27840,
            "time": 55.265617,
            "velocity": 0.6299212598425197
          },
          {
            "duration": 0.2474228000000025,
            "durationTicks": 96,
            "midi": 50,
            "name": "D3",
            "ticks": 27960,
            "time": 55.5748955,
            "velocity": 0.6299212598425197
          },
          {
            "duration": 0.2474227999999954,
            "durationTicks": 96,
            "midi": 43,
            "name": "G2",
            "ticks": 28080,
            "time": 55.884174,
            "velocity": 0.6299212598425197
          },
          {
            "duration": 0.2474228000000025,
            "durationTicks": 96,
            "midi": 43,
            "name": "G2",
            "ticks": 28200,
            "time": 56.1934525,
            "velocity": 0.6299212598425197
          },
          {
            "duration": 0.2474228000000025,
            "durationTicks": 96,
            "midi": 45,
            "name": "A2",
            "ticks": 28320,
            "time": 56.502731,
            "velocity": 0.6299212598425197
          },
          {
            "duration": 0.2474227999999954,
            "durationTicks": 96,
            "midi": 47,
            "name": "B2",
            "ticks": 28440,
            "time": 56.8120095,
            "velocity": 0.6299212598425197
          },
          {
            "duration": 0.2474228000000025,
            "durationTicks": 96,
            "midi": 48,
            "name": "C3",
            "ticks": 28560,
            "time": 57.121288,
            "velocity": 0.6299212598425197
          },
          {
            "duration": 0.2474228000000025,
            "durationTicks": 96,
            "midi": 50,
            "name": "D3",
            "ticks": 28680,
            "time": 57.4305665,
            "velocity": 0.6299212598425197
          },
          {
            "duration": 0.2474227999999954,
            "durationTicks": 96,
            "midi": 52,
            "name": "E3",
            "ticks": 28800,
            "time": 57.739845,
            "velocity": 0.6299212598425197
          },
          {
            "duration": 0.2474227999999954,
            "durationTicks": 96,
            "midi": 48,
            "name": "C3",
            "ticks": 28920,
            "time": 58.0491235,
            "velocity": 0.6299212598425197
          },
          {
            "duration": 0.2474227999999954,
            "durationTicks": 96,
            "midi": 50,
            "name": "D3",
            "ticks": 29040,
            "time": 58.358402,
            "velocity": 0.6299212598425197
          },
          {
            "duration": 0.2474228000000025,
            "durationTicks": 96,
            "midi": 50,
            "name": "D3",
            "ticks": 29160,
            "time": 58.667680499999996,
            "velocity": 0.6299212598425197
          },
          {
            "duration": 0.2474228000000025,
            "durationTicks": 96,
            "midi": 50,
            "name": "D3",
            "ticks": 29280,
            "time": 58.976958999999994,
            "velocity": 0.6299212598425197
          },
          {
            "duration": 0.2474227999999954,
            "durationTicks": 96,
            "midi": 50,
            "name": "D3",
            "ticks": 29400,
            "time": 59.2862375,
            "velocity": 0.6299212598425197
          },
          {
            "duration": 0.2474228000000025,
            "durationTicks": 96,
            "midi": 50,
            "name": "D3",
            "ticks": 29520,
            "time": 59.595515999999996,
            "velocity": 0.6299212598425197
          },
          {
            "duration": 0.2474228000000025,
            "durationTicks": 96,
            "midi": 50,
            "name": "D3",
            "ticks": 29640,
            "time": 59.904794499999994,
            "velocity": 0.6299212598425197
          },
          {
            "duration": 0.2474227999999954,
            "durationTicks": 96,
            "midi": 50,
            "name": "D3",
            "ticks": 29760,
            "time": 60.214073,
            "velocity": 0.6299212598425197
          },
          {
            "duration": 0.2474228000000025,
            "durationTicks": 96,
            "midi": 50,
            "name": "D3",
            "ticks": 29880,
            "time": 60.5233515,
            "velocity": 0.6299212598425197
          },
          {
            "duration": 0.2474228000000025,
            "durationTicks": 96,
            "midi": 43,
            "name": "G2",
            "ticks": 30000,
            "time": 60.832629999999995,
            "velocity": 0.6299212598425197
          },
          {
            "duration": 0.2474227999999954,
            "durationTicks": 96,
            "midi": 43,
            "name": "G2",
            "ticks": 30120,
            "time": 61.1419085,
            "velocity": 0.6299212598425197
          },
          {
            "duration": 0.2474228000000025,
            "durationTicks": 96,
            "midi": 45,
            "name": "A2",
            "ticks": 30240,
            "time": 61.451187,
            "velocity": 0.6299212598425197
          },
          {
            "duration": 0.2474228000000025,
            "durationTicks": 96,
            "midi": 47,
            "name": "B2",
            "ticks": 30360,
            "time": 61.760465499999995,
            "velocity": 0.6299212598425197
          },
          {
            "duration": 0.2474227999999954,
            "durationTicks": 96,
            "midi": 48,
            "name": "C3",
            "ticks": 30480,
            "time": 62.069744,
            "velocity": 0.6299212598425197
          },
          {
            "duration": 0.2474228000000025,
            "durationTicks": 96,
            "midi": 50,
            "name": "D3",
            "ticks": 30600,
            "time": 62.3790225,
            "velocity": 0.6299212598425197
          },
          {
            "duration": 0.2474228000000025,
            "durationTicks": 96,
            "midi": 52,
            "name": "E3",
            "ticks": 30720,
            "time": 62.688300999999996,
            "velocity": 0.6299212598425197
          },
          {
            "duration": 0.2474227999999954,
            "durationTicks": 96,
            "midi": 48,
            "name": "C3",
            "ticks": 30840,
            "time": 62.9975795,
            "velocity": 0.6299212598425197
          },
          {
            "duration": 0.2474228000000025,
            "durationTicks": 96,
            "midi": 50,
            "name": "D3",
            "ticks": 30960,
            "time": 63.306858,
            "velocity": 0.6299212598425197
          },
          {
            "duration": 0.2474228000000025,
            "durationTicks": 96,
            "midi": 50,
            "name": "D3",
            "ticks": 31080,
            "time": 63.616136499999996,
            "velocity": 0.6299212598425197
          },
          {
            "duration": 0.2474227999999954,
            "durationTicks": 96,
            "midi": 50,
            "name": "D3",
            "ticks": 31200,
            "time": 63.925415,
            "velocity": 0.6299212598425197
          },
          {
            "duration": 0.2474228000000096,
            "durationTicks": 96,
            "midi": 50,
            "name": "D3",
            "ticks": 31320,
            "time": 64.23469349999999,
            "velocity": 0.6299212598425197
          },
          {
            "duration": 0.2474228000000096,
            "durationTicks": 96,
            "midi": 50,
            "name": "D3",
            "ticks": 31440,
            "time": 64.543972,
            "velocity": 0.6299212598425197
          },
          {
            "duration": 0.2474227999999954,
            "durationTicks": 96,
            "midi": 50,
            "name": "D3",
            "ticks": 31560,
            "time": 64.8532505,
            "velocity": 0.6299212598425197
          },
          {
            "duration": 0.2474227999999954,
            "durationTicks": 96,
            "midi": 50,
            "name": "D3",
            "ticks": 31680,
            "time": 65.162529,
            "velocity": 0.6299212598425197
          },
          {
            "duration": 0.2474227999999954,
            "durationTicks": 96,
            "midi": 50,
            "name": "D3",
            "ticks": 31800,
            "time": 65.4718075,
            "velocity": 0.6299212598425197
          },
          {
            "duration": 0.2474227999999954,
            "durationTicks": 96,
            "midi": 50,
            "name": "D3",
            "ticks": 31920,
            "time": 65.781086,
            "velocity": 0.6299212598425197
          },
          {
            "duration": 0.2474228000000096,
            "durationTicks": 96,
            "midi": 45,
            "name": "A2",
            "ticks": 32040,
            "time": 66.09036449999999,
            "velocity": 0.6299212598425197
          },
          {
            "duration": 0.2474227999999954,
            "durationTicks": 96,
            "midi": 50,
            "name": "D3",
            "ticks": 32160,
            "time": 66.399643,
            "velocity": 0.6299212598425197
          },
          {
            "duration": 0.2474227999999954,
            "durationTicks": 96,
            "midi": 45,
            "name": "A2",
            "ticks": 32280,
            "time": 66.7089215,
            "velocity": 0.6299212598425197
          },
          {
            "duration": 0.2474227999999954,
            "durationTicks": 96,
            "midi": 50,
            "name": "D3",
            "ticks": 32400,
            "time": 67.01820000000001,
            "velocity": 0.6299212598425197
          },
          {
            "duration": 0.2474227999999954,
            "durationTicks": 96,
            "midi": 45,
            "name": "A2",
            "ticks": 32520,
            "time": 67.3274785,
            "velocity": 0.6299212598425197
          },
          {
            "duration": 0.2474227999999954,
            "durationTicks": 96,
            "midi": 50,
            "name": "D3",
            "ticks": 32640,
            "time": 67.636757,
            "velocity": 0.6299212598425197
          },
          {
            "duration": 0.2474228000000096,
            "durationTicks": 96,
            "midi": 45,
            "name": "A2",
            "ticks": 32760,
            "time": 67.9460355,
            "velocity": 0.6299212598425197
          },
          {
            "duration": 0.2474228000000096,
            "durationTicks": 96,
            "midi": 43,
            "name": "G2",
            "ticks": 56160,
            "time": 113.652576,
            "velocity": 0.6299212598425197
          },
          {
            "duration": 0.2474227999999954,
            "durationTicks": 96,
            "midi": 43,
            "name": "G2",
            "ticks": 56280,
            "time": 113.9618545,
            "velocity": 0.6299212598425197
          },
          {
            "duration": 0.2474227999999954,
            "durationTicks": 96,
            "midi": 45,
            "name": "A2",
            "ticks": 56400,
            "time": 114.271133,
            "velocity": 0.6299212598425197
          },
          {
            "duration": 0.2474228000000096,
            "durationTicks": 96,
            "midi": 47,
            "name": "B2",
            "ticks": 56520,
            "time": 114.5804115,
            "velocity": 0.6299212598425197
          },
          {
            "duration": 0.2474227999999954,
            "durationTicks": 96,
            "midi": 48,
            "name": "C3",
            "ticks": 56640,
            "time": 114.88969,
            "velocity": 0.6299212598425197
          },
          {
            "duration": 0.2474227999999954,
            "durationTicks": 96,
            "midi": 50,
            "name": "D3",
            "ticks": 56760,
            "time": 115.1989685,
            "velocity": 0.6299212598425197
          },
          {
            "duration": 0.2474227999999954,
            "durationTicks": 96,
            "midi": 52,
            "name": "E3",
            "ticks": 56880,
            "time": 115.508247,
            "velocity": 0.6299212598425197
          },
          {
            "duration": 0.2474227999999954,
            "durationTicks": 96,
            "midi": 48,
            "name": "C3",
            "ticks": 57000,
            "time": 115.8175255,
            "velocity": 0.6299212598425197
          },
          {
            "duration": 0.2474228000000096,
            "durationTicks": 96,
            "midi": 50,
            "name": "D3",
            "ticks": 57120,
            "time": 116.12680399999999,
            "velocity": 0.6299212598425197
          },
          {
            "duration": 0.2474228000000096,
            "durationTicks": 96,
            "midi": 50,
            "name": "D3",
            "ticks": 57240,
            "time": 116.4360825,
            "velocity": 0.6299212598425197
          },
          {
            "duration": 0.2474227999999954,
            "durationTicks": 96,
            "midi": 50,
            "name": "D3",
            "ticks": 57360,
            "time": 116.745361,
            "velocity": 0.6299212598425197
          },
          {
            "duration": 0.2474227999999954,
            "durationTicks": 96,
            "midi": 50,
            "name": "D3",
            "ticks": 57480,
            "time": 117.05463950000001,
            "velocity": 0.6299212598425197
          },
          {
            "duration": 0.2474227999999954,
            "durationTicks": 96,
            "midi": 50,
            "name": "D3",
            "ticks": 57600,
            "time": 117.363918,
            "velocity": 0.6299212598425197
          },
          {
            "duration": 0.2474227999999954,
            "durationTicks": 96,
            "midi": 50,
            "name": "D3",
            "ticks": 57720,
            "time": 117.6731965,
            "velocity": 0.6299212598425197
          },
          {
            "duration": 0.2474228000000096,
            "durationTicks": 96,
            "midi": 50,
            "name": "D3",
            "ticks": 57840,
            "time": 117.982475,
            "velocity": 0.6299212598425197
          },
          {
            "duration": 0.2474227999999954,
            "durationTicks": 96,
            "midi": 50,
            "name": "D3",
            "ticks": 57960,
            "time": 118.2917535,
            "velocity": 0.6299212598425197
          },
          {
            "duration": 0.2474227999999954,
            "durationTicks": 96,
            "midi": 43,
            "name": "G2",
            "ticks": 58080,
            "time": 118.601032,
            "velocity": 0.6299212598425197
          },
          {
            "duration": 0.2474228000000096,
            "durationTicks": 96,
            "midi": 43,
            "name": "G2",
            "ticks": 58200,
            "time": 118.9103105,
            "velocity": 0.6299212598425197
          },
          {
            "duration": 0.2474227999999954,
            "durationTicks": 96,
            "midi": 45,
            "name": "A2",
            "ticks": 58320,
            "time": 119.219589,
            "velocity": 0.6299212598425197
          },
          {
            "duration": 0.2474227999999954,
            "durationTicks": 96,
            "midi": 47,
            "name": "B2",
            "ticks": 58440,
            "time": 119.5288675,
            "velocity": 0.6299212598425197
          },
          {
            "duration": 0.2474228000000096,
            "durationTicks": 96,
            "midi": 48,
            "name": "C3",
            "ticks": 58560,
            "time": 119.838146,
            "velocity": 0.6299212598425197
          },
          {
            "duration": 0.2474227999999954,
            "durationTicks": 96,
            "midi": 50,
            "name": "D3",
            "ticks": 58680,
            "time": 120.1474245,
            "velocity": 0.6299212598425197
          },
          {
            "duration": 0.2474227999999954,
            "durationTicks": 96,
            "midi": 52,
            "name": "E3",
            "ticks": 58800,
            "time": 120.456703,
            "velocity": 0.6299212598425197
          },
          {
            "duration": 0.2474228000000096,
            "durationTicks": 96,
            "midi": 48,
            "name": "C3",
            "ticks": 58920,
            "time": 120.7659815,
            "velocity": 0.6299212598425197
          },
          {
            "duration": 0.2474227999999954,
            "durationTicks": 96,
            "midi": 50,
            "name": "D3",
            "ticks": 59040,
            "time": 121.07526,
            "velocity": 0.6299212598425197
          },
          {
            "duration": 0.2474227999999954,
            "durationTicks": 96,
            "midi": 50,
            "name": "D3",
            "ticks": 59160,
            "time": 121.3845385,
            "velocity": 0.6299212598425197
          },
          {
            "duration": 0.2474228000000096,
            "durationTicks": 96,
            "midi": 50,
            "name": "D3",
            "ticks": 59280,
            "time": 121.693817,
            "velocity": 0.6299212598425197
          },
          {
            "duration": 0.2474227999999954,
            "durationTicks": 96,
            "midi": 50,
            "name": "D3",
            "ticks": 59400,
            "time": 122.0030955,
            "velocity": 0.6299212598425197
          },
          {
            "duration": 0.2474227999999954,
            "durationTicks": 96,
            "midi": 50,
            "name": "D3",
            "ticks": 59520,
            "time": 122.312374,
            "velocity": 0.6299212598425197
          },
          {
            "duration": 0.2474227999999954,
            "durationTicks": 96,
            "midi": 50,
            "name": "D3",
            "ticks": 59640,
            "time": 122.6216525,
            "velocity": 0.6299212598425197
          },
          {
            "duration": 0.2474227999999954,
            "durationTicks": 96,
            "midi": 50,
            "name": "D3",
            "ticks": 59760,
            "time": 122.930931,
            "velocity": 0.6299212598425197
          },
          {
            "duration": 0.2474227999999954,
            "durationTicks": 96,
            "midi": 50,
            "name": "D3",
            "ticks": 59880,
            "time": 123.2402095,
            "velocity": 0.6299212598425197
          },
          {
            "duration": 0.2474228000000096,
            "durationTicks": 96,
            "midi": 43,
            "name": "G2",
            "ticks": 60000,
            "time": 123.549488,
            "velocity": 0.6299212598425197
          },
          {
            "duration": 0.2474227999999954,
            "durationTicks": 96,
            "midi": 43,
            "name": "G2",
            "ticks": 60120,
            "time": 123.8587665,
            "velocity": 0.6299212598425197
          },
          {
            "duration": 0.2474227999999954,
            "durationTicks": 96,
            "midi": 45,
            "name": "A2",
            "ticks": 60240,
            "time": 124.168045,
            "velocity": 0.6299212598425197
          },
          {
            "duration": 0.2474227999999954,
            "durationTicks": 96,
            "midi": 47,
            "name": "B2",
            "ticks": 60360,
            "time": 124.4773235,
            "velocity": 0.6299212598425197
          },
          {
            "duration": 0.2474227999999954,
            "durationTicks": 96,
            "midi": 48,
            "name": "C3",
            "ticks": 60480,
            "time": 124.786602,
            "velocity": 0.6299212598425197
          },
          {
            "duration": 0.2474228000000096,
            "durationTicks": 96,
            "midi": 50,
            "name": "D3",
            "ticks": 60600,
            "time": 125.09588049999999,
            "velocity": 0.6299212598425197
          },
          {
            "duration": 0.2474228000000096,
            "durationTicks": 96,
            "midi": 52,
            "name": "E3",
            "ticks": 60720,
            "time": 125.405159,
            "velocity": 0.6299212598425197
          },
          {
            "duration": 0.2474227999999954,
            "durationTicks": 96,
            "midi": 48,
            "name": "C3",
            "ticks": 60840,
            "time": 125.7144375,
            "velocity": 0.6299212598425197
          },
          {
            "duration": 0.2474227999999954,
            "durationTicks": 96,
            "midi": 50,
            "name": "D3",
            "ticks": 60960,
            "time": 126.02371600000001,
            "velocity": 0.6299212598425197
          },
          {
            "duration": 0.2474227999999954,
            "durationTicks": 96,
            "midi": 50,
            "name": "D3",
            "ticks": 61080,
            "time": 126.3329945,
            "velocity": 0.6299212598425197
          },
          {
            "duration": 0.2474227999999954,
            "durationTicks": 96,
            "midi": 50,
            "name": "D3",
            "ticks": 61200,
            "time": 126.642273,
            "velocity": 0.6299212598425197
          },
          {
            "duration": 0.2474228000000096,
            "durationTicks": 96,
            "midi": 50,
            "name": "D3",
            "ticks": 61320,
            "time": 126.9515515,
            "velocity": 0.6299212598425197
          },
          {
            "duration": 0.2474228000000096,
            "durationTicks": 96,
            "midi": 50,
            "name": "D3",
            "ticks": 61440,
            "time": 127.26083,
            "velocity": 0.6299212598425197
          },
          {
            "duration": 0.2474227999999954,
            "durationTicks": 96,
            "midi": 50,
            "name": "D3",
            "ticks": 61560,
            "time": 127.5701085,
            "velocity": 0.6299212598425197
          },
          {
            "duration": 0.24742279999998118,
            "durationTicks": 96,
            "midi": 50,
            "name": "D3",
            "ticks": 61680,
            "time": 127.87938700000001,
            "velocity": 0.6299212598425197
          },
          {
            "duration": 0.24742279999998118,
            "durationTicks": 96,
            "midi": 50,
            "name": "D3",
            "ticks": 61800,
            "time": 128.1886655,
            "velocity": 0.6299212598425197
          },
          {
            "duration": 0.2474228000000096,
            "durationTicks": 96,
            "midi": 50,
            "name": "D3",
            "ticks": 61920,
            "time": 128.497944,
            "velocity": 0.6299212598425197
          },
          {
            "duration": 0.2474228000000096,
            "durationTicks": 96,
            "midi": 45,
            "name": "A2",
            "ticks": 62040,
            "time": 128.8072225,
            "velocity": 0.6299212598425197
          },
          {
            "duration": 0.2474228000000096,
            "durationTicks": 96,
            "midi": 50,
            "name": "D3",
            "ticks": 62160,
            "time": 129.116501,
            "velocity": 0.6299212598425197
          },
          {
            "duration": 0.2474228000000096,
            "durationTicks": 96,
            "midi": 45,
            "name": "A2",
            "ticks": 62280,
            "time": 129.4257795,
            "velocity": 0.6299212598425197
          },
          {
            "duration": 0.24742279999998118,
            "durationTicks": 96,
            "midi": 50,
            "name": "D3",
            "ticks": 62400,
            "time": 129.735058,
            "velocity": 0.6299212598425197
          },
          {
            "duration": 0.2474228000000096,
            "durationTicks": 96,
            "midi": 45,
            "name": "A2",
            "ticks": 62520,
            "time": 130.0443365,
            "velocity": 0.6299212598425197
          },
          {
            "duration": 0.2474228000000096,
            "durationTicks": 96,
            "midi": 50,
            "name": "D3",
            "ticks": 62640,
            "time": 130.353615,
            "velocity": 0.6299212598425197
          },
          {
            "duration": 0.2474228000000096,
            "durationTicks": 96,
            "midi": 45,
            "name": "A2",
            "ticks": 62760,
            "time": 130.6628935,
            "velocity": 0.6299212598425197
          },
          {
            "duration": 0.24742279999998118,
            "durationTicks": 96,
            "midi": 43,
            "name": "G2",
            "ticks": 76080,
            "time": 156.984838,
            "velocity": 0.6299212598425197
          },
          {
            "duration": 0.2474228000000096,
            "durationTicks": 96,
            "midi": 43,
            "name": "G2",
            "ticks": 76200,
            "time": 157.29411649999997,
            "velocity": 0.6299212598425197
          },
          {
            "duration": 0.2474228000000096,
            "durationTicks": 96,
            "midi": 45,
            "name": "A2",
            "ticks": 76320,
            "time": 157.60339499999998,
            "velocity": 0.6299212598425197
          },
          {
            "duration": 0.2474228000000096,
            "durationTicks": 96,
            "midi": 47,
            "name": "B2",
            "ticks": 76440,
            "time": 157.91267349999998,
            "velocity": 0.6299212598425197
          },
          {
            "duration": 0.2474228000000096,
            "durationTicks": 96,
            "midi": 48,
            "name": "C3",
            "ticks": 76560,
            "time": 158.221952,
            "velocity": 0.6299212598425197
          },
          {
            "duration": 0.24742279999998118,
            "durationTicks": 96,
            "midi": 50,
            "name": "D3",
            "ticks": 76680,
            "time": 158.5312305,
            "velocity": 0.6299212598425197
          },
          {
            "duration": 0.24742279999998118,
            "durationTicks": 96,
            "midi": 52,
            "name": "E3",
            "ticks": 76800,
            "time": 158.840509,
            "velocity": 0.6299212598425197
          },
          {
            "duration": 0.2474228000000096,
            "durationTicks": 96,
            "midi": 48,
            "name": "C3",
            "ticks": 76920,
            "time": 159.14978749999997,
            "velocity": 0.6299212598425197
          },
          {
            "duration": 0.2474228000000096,
            "durationTicks": 96,
            "midi": 50,
            "name": "D3",
            "ticks": 77040,
            "time": 159.45906599999998,
            "velocity": 0.6299212598425197
          },
          {
            "duration": 0.2474228000000096,
            "durationTicks": 96,
            "midi": 50,
            "name": "D3",
            "ticks": 77160,
            "time": 159.76834449999998,
            "velocity": 0.6299212598425197
          },
          {
            "duration": 0.2474228000000096,
            "durationTicks": 96,
            "midi": 50,
            "name": "D3",
            "ticks": 77280,
            "time": 160.077623,
            "velocity": 0.6299212598425197
          },
          {
            "duration": 0.24742279999998118,
            "durationTicks": 96,
            "midi": 50,
            "name": "D3",
            "ticks": 77400,
            "time": 160.3869015,
            "velocity": 0.6299212598425197
          },
          {
            "duration": 0.24742279999998118,
            "durationTicks": 96,
            "midi": 50,
            "name": "D3",
            "ticks": 77520,
            "time": 160.69618,
            "velocity": 0.6299212598425197
          },
          {
            "duration": 0.2474228000000096,
            "durationTicks": 96,
            "midi": 50,
            "name": "D3",
            "ticks": 77640,
            "time": 161.00545849999997,
            "velocity": 0.6299212598425197
          },
          {
            "duration": 0.2474228000000096,
            "durationTicks": 96,
            "midi": 50,
            "name": "D3",
            "ticks": 77760,
            "time": 161.31473699999998,
            "velocity": 0.6299212598425197
          },
          {
            "duration": 0.2474228000000096,
            "durationTicks": 96,
            "midi": 50,
            "name": "D3",
            "ticks": 77880,
            "time": 161.62401549999998,
            "velocity": 0.6299212598425197
          },
          {
            "duration": 0.2474228000000096,
            "durationTicks": 96,
            "midi": 43,
            "name": "G2",
            "ticks": 78000,
            "time": 161.933294,
            "velocity": 0.6299212598425197
          },
          {
            "duration": 0.24742279999998118,
            "durationTicks": 96,
            "midi": 43,
            "name": "G2",
            "ticks": 78120,
            "time": 162.2425725,
            "velocity": 0.6299212598425197
          },
          {
            "duration": 0.24742279999998118,
            "durationTicks": 96,
            "midi": 45,
            "name": "A2",
            "ticks": 78240,
            "time": 162.551851,
            "velocity": 0.6299212598425197
          },
          {
            "duration": 0.2474228000000096,
            "durationTicks": 96,
            "midi": 47,
            "name": "B2",
            "ticks": 78360,
            "time": 162.86112949999998,
            "velocity": 0.6299212598425197
          },
          {
            "duration": 0.2474228000000096,
            "durationTicks": 96,
            "midi": 48,
            "name": "C3",
            "ticks": 78480,
            "time": 163.17040799999998,
            "velocity": 0.6299212598425197
          },
          {
            "duration": 0.2474228000000096,
            "durationTicks": 96,
            "midi": 50,
            "name": "D3",
            "ticks": 78600,
            "time": 163.47968649999999,
            "velocity": 0.6299212598425197
          },
          {
            "duration": 0.2474228000000096,
            "durationTicks": 96,
            "midi": 52,
            "name": "E3",
            "ticks": 78720,
            "time": 163.788965,
            "velocity": 0.6299212598425197
          },
          {
            "duration": 0.24742279999998118,
            "durationTicks": 96,
            "midi": 48,
            "name": "C3",
            "ticks": 78840,
            "time": 164.0982435,
            "velocity": 0.6299212598425197
          },
          {
            "duration": 0.2474228000000096,
            "durationTicks": 96,
            "midi": 50,
            "name": "D3",
            "ticks": 78960,
            "time": 164.40752199999997,
            "velocity": 0.6299212598425197
          },
          {
            "duration": 0.2474228000000096,
            "durationTicks": 96,
            "midi": 50,
            "name": "D3",
            "ticks": 79080,
            "time": 164.71680049999998,
            "velocity": 0.6299212598425197
          },
          {
            "duration": 0.2474228000000096,
            "durationTicks": 96,
            "midi": 50,
            "name": "D3",
            "ticks": 79200,
            "time": 165.02607899999998,
            "velocity": 0.6299212598425197
          },
          {
            "duration": 0.2474228000000096,
            "durationTicks": 96,
            "midi": 50,
            "name": "D3",
            "ticks": 79320,
            "time": 165.3353575,
            "velocity": 0.6299212598425197
          },
          {
            "duration": 0.24742279999998118,
            "durationTicks": 96,
            "midi": 50,
            "name": "D3",
            "ticks": 79440,
            "time": 165.644636,
            "velocity": 0.6299212598425197
          },
          {
            "duration": 0.24742279999998118,
            "durationTicks": 96,
            "midi": 50,
            "name": "D3",
            "ticks": 79560,
            "time": 165.9539145,
            "velocity": 0.6299212598425197
          },
          {
            "duration": 0.24742279999998118,
            "durationTicks": 96,
            "midi": 50,
            "name": "D3",
            "ticks": 79680,
            "time": 166.263193,
            "velocity": 0.6299212598425197
          },
          {
            "duration": 0.2474228000000096,
            "durationTicks": 96,
            "midi": 50,
            "name": "D3",
            "ticks": 79800,
            "time": 166.57247149999998,
            "velocity": 0.6299212598425197
          },
          {
            "duration": 0.2474228000000096,
            "durationTicks": 96,
            "midi": 43,
            "name": "G2",
            "ticks": 79920,
            "time": 166.88174999999998,
            "velocity": 0.6299212598425197
          },
          {
            "duration": 0.2474228000000096,
            "durationTicks": 96,
            "midi": 43,
            "name": "G2",
            "ticks": 80040,
            "time": 167.1910285,
            "velocity": 0.6299212598425197
          },
          {
            "duration": 0.24742279999998118,
            "durationTicks": 96,
            "midi": 45,
            "name": "A2",
            "ticks": 80160,
            "time": 167.500307,
            "velocity": 0.6299212598425197
          },
          {
            "duration": 0.24742279999998118,
            "durationTicks": 96,
            "midi": 47,
            "name": "B2",
            "ticks": 80280,
            "time": 167.8095855,
            "velocity": 0.6299212598425197
          },
          {
            "duration": 0.2474228000000096,
            "durationTicks": 96,
            "midi": 48,
            "name": "C3",
            "ticks": 80400,
            "time": 168.11886399999997,
            "velocity": 0.6299212598425197
          },
          {
            "duration": 0.2474228000000096,
            "durationTicks": 96,
            "midi": 50,
            "name": "D3",
            "ticks": 80520,
            "time": 168.42814249999998,
            "velocity": 0.6299212598425197
          },
          {
            "duration": 0.2474228000000096,
            "durationTicks": 96,
            "midi": 52,
            "name": "E3",
            "ticks": 80640,
            "time": 168.73742099999998,
            "velocity": 0.6299212598425197
          },
          {
            "duration": 0.2474228000000096,
            "durationTicks": 96,
            "midi": 48,
            "name": "C3",
            "ticks": 80760,
            "time": 169.0466995,
            "velocity": 0.6299212598425197
          },
          {
            "duration": 0.24742279999998118,
            "durationTicks": 96,
            "midi": 50,
            "name": "D3",
            "ticks": 80880,
            "time": 169.355978,
            "velocity": 0.6299212598425197
          },
          {
            "duration": 0.24742279999998118,
            "durationTicks": 96,
            "midi": 50,
            "name": "D3",
            "ticks": 81000,
            "time": 169.6652565,
            "velocity": 0.6299212598425197
          },
          {
            "duration": 0.2474228000000096,
            "durationTicks": 96,
            "midi": 50,
            "name": "D3",
            "ticks": 81120,
            "time": 169.97453499999997,
            "velocity": 0.6299212598425197
          },
          {
            "duration": 0.2474228000000096,
            "durationTicks": 96,
            "midi": 50,
            "name": "D3",
            "ticks": 81240,
            "time": 170.28381349999998,
            "velocity": 0.6299212598425197
          },
          {
            "duration": 0.2474228000000096,
            "durationTicks": 96,
            "midi": 50,
            "name": "D3",
            "ticks": 81360,
            "time": 170.59309199999998,
            "velocity": 0.6299212598425197
          },
          {
            "duration": 0.2474228000000096,
            "durationTicks": 96,
            "midi": 50,
            "name": "D3",
            "ticks": 81480,
            "time": 170.9023705,
            "velocity": 0.6299212598425197
          },
          {
            "duration": 0.24742279999998118,
            "durationTicks": 96,
            "midi": 50,
            "name": "D3",
            "ticks": 81600,
            "time": 171.211649,
            "velocity": 0.6299212598425197
          },
          {
            "duration": 0.2474228000000096,
            "durationTicks": 96,
            "midi": 50,
            "name": "D3",
            "ticks": 81720,
            "time": 171.52092749999997,
            "velocity": 0.6299212598425197
          },
          {
            "duration": 0.2474228000000096,
            "durationTicks": 96,
            "midi": 50,
            "name": "D3",
            "ticks": 81840,
            "time": 171.83020599999998,
            "velocity": 0.6141732283464567
          },
          {
            "duration": 0.2474228000000096,
            "durationTicks": 96,
            "midi": 54,
            "name": "F#3",
            "ticks": 81960,
            "time": 172.13948449999998,
            "velocity": 0.7874015748031497
          },
          {
            "duration": 0.2474228000000096,
            "durationTicks": 96,
            "midi": 57,
            "name": "A3",
            "ticks": 82080,
            "time": 172.44876299999999,
            "velocity": 0.7874015748031497
          },
          {
            "duration": 0.24742279999998118,
            "durationTicks": 96,
            "midi": 54,
            "name": "F#3",
            "ticks": 82200,
            "time": 172.7580415,
            "velocity": 0.7874015748031497
          },
          {
            "duration": 0.24742279999998118,
            "durationTicks": 96,
            "midi": 50,
            "name": "D3",
            "ticks": 82320,
            "time": 173.06732,
            "velocity": 0.7874015748031497
          },
          {
            "duration": 0.24742279999998118,
            "durationTicks": 96,
            "midi": 54,
            "name": "F#3",
            "ticks": 82440,
            "time": 173.3765985,
            "velocity": 0.7874015748031497
          },
          {
            "duration": 0.2474228000000096,
            "durationTicks": 96,
            "midi": 57,
            "name": "A3",
            "ticks": 82560,
            "time": 173.68587699999998,
            "velocity": 0.7874015748031497
          },
          {
            "duration": 0.2474228000000096,
            "durationTicks": 96,
            "midi": 54,
            "name": "F#3",
            "ticks": 82680,
            "time": 173.99515549999998,
            "velocity": 0.7874015748031497
          },
          {
            "duration": 0.2474228000000096,
            "durationTicks": 96,
            "midi": 45,
            "name": "A2",
            "ticks": 82800,
            "time": 174.304434,
            "velocity": 0.7874015748031497
          },
          {
            "duration": 0.2474228000000096,
            "durationTicks": 96,
            "midi": 49,
            "name": "C#3",
            "ticks": 82920,
            "time": 174.6137125,
            "velocity": 0.7874015748031497
          },
          {
            "duration": 0.24742279999998118,
            "durationTicks": 96,
            "midi": 52,
            "name": "E3",
            "ticks": 83040,
            "time": 174.922991,
            "velocity": 0.7874015748031497
          },
          {
            "duration": 0.2474228000000096,
            "durationTicks": 96,
            "midi": 49,
            "name": "C#3",
            "ticks": 83160,
            "time": 175.23226949999997,
            "velocity": 0.7874015748031497
          },
          {
            "duration": 0.2474228000000096,
            "durationTicks": 96,
            "midi": 45,
            "name": "A2",
            "ticks": 83280,
            "time": 175.54154799999998,
            "velocity": 0.7874015748031497
          },
          {
            "duration": 0.2474228000000096,
            "durationTicks": 96,
            "midi": 49,
            "name": "C#3",
            "ticks": 83400,
            "time": 175.85082649999998,
            "velocity": 0.7874015748031497
          },
          {
            "duration": 0.2474228000000096,
            "durationTicks": 96,
            "midi": 52,
            "name": "E3",
            "ticks": 83520,
            "time": 176.160105,
            "velocity": 0.7874015748031497
          },
          {
            "duration": 0.24742279999998118,
            "durationTicks": 96,
            "midi": 49,
            "name": "C#3",
            "ticks": 83640,
            "time": 176.4693835,
            "velocity": 0.7874015748031497
          },
          {
            "duration": 0.24742279999998118,
            "durationTicks": 96,
            "midi": 43,
            "name": "G2",
            "ticks": 83760,
            "time": 176.778662,
            "velocity": 0.6299212598425197
          },
          {
            "duration": 0.24742279999998118,
            "durationTicks": 96,
            "midi": 43,
            "name": "G2",
            "ticks": 83880,
            "time": 177.0879405,
            "velocity": 0.6299212598425197
          },
          {
            "duration": 0.2474228000000096,
            "durationTicks": 96,
            "midi": 45,
            "name": "A2",
            "ticks": 84000,
            "time": 177.39721899999998,
            "velocity": 0.6299212598425197
          },
          {
            "duration": 0.2474228000000096,
            "durationTicks": 96,
            "midi": 47,
            "name": "B2",
            "ticks": 84120,
            "time": 177.70649749999998,
            "velocity": 0.6299212598425197
          },
          {
            "duration": 0.2474228000000096,
            "durationTicks": 96,
            "midi": 48,
            "name": "C3",
            "ticks": 84240,
            "time": 178.015776,
            "velocity": 0.6299212598425197
          },
          {
            "duration": 0.24742279999998118,
            "durationTicks": 96,
            "midi": 50,
            "name": "D3",
            "ticks": 84360,
            "time": 178.3250545,
            "velocity": 0.6299212598425197
          },
          {
            "duration": 0.24742279999998118,
            "durationTicks": 96,
            "midi": 52,
            "name": "E3",
            "ticks": 84480,
            "time": 178.634333,
            "velocity": 0.6299212598425197
          },
          {
            "duration": 0.2474228000000096,
            "durationTicks": 96,
            "midi": 48,
            "name": "C3",
            "ticks": 84600,
            "time": 178.94361149999997,
            "velocity": 0.6299212598425197
          },
          {
            "duration": 0.2474228000000096,
            "durationTicks": 96,
            "midi": 50,
            "name": "D3",
            "ticks": 84720,
            "time": 179.25288999999998,
            "velocity": 0.6299212598425197
          },
          {
            "duration": 0.2474228000000096,
            "durationTicks": 96,
            "midi": 50,
            "name": "D3",
            "ticks": 84840,
            "time": 179.56216849999998,
            "velocity": 0.6299212598425197
          },
          {
            "duration": 0.24742279999998118,
            "durationTicks": 96,
            "midi": 50,
            "name": "D3",
            "ticks": 84960,
            "time": 179.871447,
            "velocity": 0.6299212598425197
          },
          {
            "duration": 0.24742279999998118,
            "durationTicks": 96,
            "midi": 50,
            "name": "D3",
            "ticks": 85080,
            "time": 180.1807255,
            "velocity": 0.6299212598425197
          },
          {
            "duration": 0.24742279999998118,
            "durationTicks": 96,
            "midi": 50,
            "name": "D3",
            "ticks": 85200,
            "time": 180.490004,
            "velocity": 0.6299212598425197
          },
          {
            "duration": 0.2474228000000096,
            "durationTicks": 96,
            "midi": 50,
            "name": "D3",
            "ticks": 85320,
            "time": 180.79928249999998,
            "velocity": 0.6299212598425197
          },
          {
            "duration": 0.2474228000000096,
            "durationTicks": 96,
            "midi": 50,
            "name": "D3",
            "ticks": 85440,
            "time": 181.10856099999998,
            "velocity": 0.6299212598425197
          },
          {
            "duration": 0.2474228000000096,
            "durationTicks": 96,
            "midi": 50,
            "name": "D3",
            "ticks": 85560,
            "time": 181.41783949999999,
            "velocity": 0.6299212598425197
          },
          {
            "duration": 0.2474228000000096,
            "durationTicks": 96,
            "midi": 43,
            "name": "G2",
            "ticks": 85680,
            "time": 181.727118,
            "velocity": 0.6299212598425197
          },
          {
            "duration": 0.24742279999998118,
            "durationTicks": 96,
            "midi": 43,
            "name": "G2",
            "ticks": 85800,
            "time": 182.0363965,
            "velocity": 0.6299212598425197
          },
          {
            "duration": 0.2474228000000096,
            "durationTicks": 96,
            "midi": 45,
            "name": "A2",
            "ticks": 85920,
            "time": 182.34567499999997,
            "velocity": 0.6299212598425197
          },
          {
            "duration": 0.2474228000000096,
            "durationTicks": 96,
            "midi": 47,
            "name": "B2",
            "ticks": 86040,
            "time": 182.65495349999998,
            "velocity": 0.6299212598425197
          },
          {
            "duration": 0.2474228000000096,
            "durationTicks": 96,
            "midi": 48,
            "name": "C3",
            "ticks": 86160,
            "time": 182.96423199999998,
            "velocity": 0.6299212598425197
          },
          {
            "duration": 0.2474228000000096,
            "durationTicks": 96,
            "midi": 50,
            "name": "D3",
            "ticks": 86280,
            "time": 183.2735105,
            "velocity": 0.6299212598425197
          },
          {
            "duration": 0.24742279999998118,
            "durationTicks": 96,
            "midi": 52,
            "name": "E3",
            "ticks": 86400,
            "time": 183.582789,
            "velocity": 0.6299212598425197
          },
          {
            "duration": 0.24742279999998118,
            "durationTicks": 96,
            "midi": 48,
            "name": "C3",
            "ticks": 86520,
            "time": 183.8920675,
            "velocity": 0.6299212598425197
          },
          {
            "duration": 0.24742279999998118,
            "durationTicks": 96,
            "midi": 50,
            "name": "D3",
            "ticks": 86640,
            "time": 184.201346,
            "velocity": 0.5984251968503937
          },
          {
            "duration": 0.2474228000000096,
            "durationTicks": 96,
            "midi": 50,
            "name": "D3",
            "ticks": 86760,
            "time": 184.51062449999998,
            "velocity": 0.5984251968503937
          },
          {
            "duration": 0.2474228000000096,
            "durationTicks": 96,
            "midi": 50,
            "name": "D3",
            "ticks": 86880,
            "time": 184.81990299999998,
            "velocity": 0.5984251968503937
          },
          {
            "duration": 0.2474228000000096,
            "durationTicks": 96,
            "midi": 50,
            "name": "D3",
            "ticks": 87000,
            "time": 185.1291815,
            "velocity": 0.5984251968503937
          },
          {
            "duration": 0.2474228000000096,
            "durationTicks": 96,
            "midi": 50,
            "name": "D3",
            "ticks": 87120,
            "time": 185.43846,
            "velocity": 0.5984251968503937
          },
          {
            "duration": 0.24742279999998118,
            "durationTicks": 96,
            "midi": 50,
            "name": "D3",
            "ticks": 87240,
            "time": 185.7477385,
            "velocity": 0.5984251968503937
          },
          {
            "duration": 0.2474228000000096,
            "durationTicks": 96,
            "midi": 50,
            "name": "D3",
            "ticks": 87360,
            "time": 186.05701699999997,
            "velocity": 0.5984251968503937
          },
          {
            "duration": 0.2474228000000096,
            "durationTicks": 96,
            "midi": 50,
            "name": "D3",
            "ticks": 87480,
            "time": 186.36629549999998,
            "velocity": 0.5984251968503937
          },
          {
            "duration": 0.2474228000000096,
            "durationTicks": 96,
            "midi": 43,
            "name": "G2",
            "ticks": 87600,
            "time": 186.67557399999998,
            "velocity": 0.5354330708661418
          },
          {
            "duration": 0.24742279999998118,
            "durationTicks": 96,
            "midi": 43,
            "name": "G2",
            "ticks": 87720,
            "time": 186.9848525,
            "velocity": 0.5354330708661418
          },
          {
            "duration": 0.24742279999998118,
            "durationTicks": 96,
            "midi": 45,
            "name": "A2",
            "ticks": 87840,
            "time": 187.294131,
            "velocity": 0.5354330708661418
          },
          {
            "duration": 0.24742279999998118,
            "durationTicks": 96,
            "midi": 47,
            "name": "B2",
            "ticks": 87960,
            "time": 187.6034095,
            "velocity": 0.5354330708661418
          },
          {
            "duration": 0.24742279999998118,
            "durationTicks": 96,
            "midi": 48,
            "name": "C3",
            "ticks": 88080,
            "time": 187.912688,
            "velocity": 0.5354330708661418
          },
          {
            "duration": 0.2474228000000096,
            "durationTicks": 96,
            "midi": 50,
            "name": "D3",
            "ticks": 88200,
            "time": 188.22196649999998,
            "velocity": 0.5354330708661418
          },
          {
            "duration": 0.2474228000000096,
            "durationTicks": 96,
            "midi": 52,
            "name": "E3",
            "ticks": 88320,
            "time": 188.53124499999998,
            "velocity": 0.5354330708661418
          },
          {
            "duration": 0.2474228000000096,
            "durationTicks": 96,
            "midi": 48,
            "name": "C3",
            "ticks": 88440,
            "time": 188.8405235,
            "velocity": 0.5354330708661418
          },
          {
            "duration": 0.2474228000000096,
            "durationTicks": 96,
            "midi": 50,
            "name": "D3",
            "ticks": 88560,
            "time": 189.149802,
            "velocity": 0.47244094488188976
          },
          {
            "duration": 0.2474228000000096,
            "durationTicks": 96,
            "midi": 50,
            "name": "D3",
            "ticks": 88680,
            "time": 189.45908049999997,
            "velocity": 0.47244094488188976
          },
          {
            "duration": 0.2474228000000096,
            "durationTicks": 96,
            "midi": 50,
            "name": "D3",
            "ticks": 88800,
            "time": 189.76835899999998,
            "velocity": 0.47244094488188976
          },
          {
            "duration": 0.2474228000000096,
            "durationTicks": 96,
            "midi": 50,
            "name": "D3",
            "ticks": 88920,
            "time": 190.07763749999998,
            "velocity": 0.47244094488188976
          },
          {
            "duration": 0.2474228000000096,
            "durationTicks": 96,
            "midi": 50,
            "name": "D3",
            "ticks": 89040,
            "time": 190.38691599999999,
            "velocity": 0.47244094488188976
          },
          {
            "duration": 0.24742279999998118,
            "durationTicks": 96,
            "midi": 50,
            "name": "D3",
            "ticks": 89160,
            "time": 190.6961945,
            "velocity": 0.47244094488188976
          },
          {
            "duration": 0.24742279999998118,
            "durationTicks": 96,
            "midi": 50,
            "name": "D3",
            "ticks": 89280,
            "time": 191.005473,
            "velocity": 0.47244094488188976
          },
          {
            "duration": 0.24742279999998118,
            "durationTicks": 96,
            "midi": 50,
            "name": "D3",
            "ticks": 89400,
            "time": 191.3147515,
            "velocity": 0.47244094488188976
          },
          {
            "duration": 0.24742279999998118,
            "durationTicks": 96,
            "midi": 50,
            "name": "D3",
            "ticks": 89520,
            "time": 191.62403,
            "velocity": 0.3779527559055118
          },
          {
            "duration": 0.2474228000000096,
            "durationTicks": 96,
            "midi": 54,
            "name": "F#3",
            "ticks": 89640,
            "time": 191.93330849999998,
            "velocity": 0.5511811023622047
          },
          {
            "duration": 0.2474228000000096,
            "durationTicks": 96,
            "midi": 57,
            "name": "A3",
            "ticks": 89760,
            "time": 192.242587,
            "velocity": 0.5511811023622047
          },
          {
            "duration": 0.2474228000000096,
            "durationTicks": 96,
            "midi": 54,
            "name": "F#3",
            "ticks": 89880,
            "time": 192.5518655,
            "velocity": 0.5511811023622047
          },
          {
            "duration": 0.24742279999998118,
            "durationTicks": 96,
            "midi": 50,
            "name": "D3",
            "ticks": 90000,
            "time": 192.861144,
            "velocity": 0.5511811023622047
          },
          {
            "duration": 0.2474228000000096,
            "durationTicks": 96,
            "midi": 54,
            "name": "F#3",
            "ticks": 90120,
            "time": 193.17042249999997,
            "velocity": 0.5511811023622047
          },
          {
            "duration": 0.2474228000000096,
            "durationTicks": 96,
            "midi": 57,
            "name": "A3",
            "ticks": 90240,
            "time": 193.47970099999998,
            "velocity": 0.5511811023622047
          },
          {
            "duration": 0.2474228000000096,
            "durationTicks": 96,
            "midi": 54,
            "name": "F#3",
            "ticks": 90360,
            "time": 193.78897949999998,
            "velocity": 0.5511811023622047
          },
          {
            "duration": 0.2474228000000096,
            "durationTicks": 96,
            "midi": 45,
            "name": "A2",
            "ticks": 90480,
            "time": 194.098258,
            "velocity": 0.5118110236220472
          },
          {
            "duration": 0.24742279999998118,
            "durationTicks": 96,
            "midi": 49,
            "name": "C#3",
            "ticks": 90600,
            "time": 194.4075365,
            "velocity": 0.5118110236220472
          },
          {
            "duration": 0.24742279999998118,
            "durationTicks": 96,
            "midi": 52,
            "name": "E3",
            "ticks": 90720,
            "time": 194.716815,
            "velocity": 0.5118110236220472
          },
          {
            "duration": 0.24742279999998118,
            "durationTicks": 96,
            "midi": 49,
            "name": "C#3",
            "ticks": 90840,
            "time": 195.0260935,
            "velocity": 0.5118110236220472
          },
          {
            "duration": 0.2474228000000096,
            "durationTicks": 96,
            "midi": 45,
            "name": "A2",
            "ticks": 90960,
            "time": 195.33537199999998,
            "velocity": 0.5118110236220472
          },
          {
            "duration": 0.2474228000000096,
            "durationTicks": 96,
            "midi": 49,
            "name": "C#3",
            "ticks": 91080,
            "time": 195.64465049999998,
            "velocity": 0.5118110236220472
          },
          {
            "duration": 0.2474228000000096,
            "durationTicks": 96,
            "midi": 52,
            "name": "E3",
            "ticks": 91200,
            "time": 195.953929,
            "velocity": 0.5118110236220472
          },
          {
            "duration": 0.2474228000000096,
            "durationTicks": 96,
            "midi": 49,
            "name": "C#3",
            "ticks": 91320,
            "time": 196.2632075,
            "velocity": 0.5118110236220472
          },
          {
            "duration": 0.24742280000003802,
            "durationTicks": 96,
            "midi": 43,
            "name": "G2",
            "ticks": 91440,
            "time": 196.57248599999997,
            "velocity": 0.3228346456692913
          },
          {
            "duration": 0.2474228000000096,
            "durationTicks": 96,
            "midi": 43,
            "name": "G2",
            "ticks": 91560,
            "time": 196.88176449999997,
            "velocity": 0.36220472440944884
          },
          {
            "duration": 0.2474228000000096,
            "durationTicks": 96,
            "midi": 45,
            "name": "A2",
            "ticks": 91680,
            "time": 197.19104299999998,
            "velocity": 0.36220472440944884
          },
          {
            "duration": 0.2474228000000096,
            "durationTicks": 96,
            "midi": 47,
            "name": "B2",
            "ticks": 91800,
            "time": 197.50032149999998,
            "velocity": 0.36220472440944884
          },
          {
            "duration": 0.2474228000000096,
            "durationTicks": 96,
            "midi": 48,
            "name": "C3",
            "ticks": 91920,
            "time": 197.8096,
            "velocity": 0.36220472440944884
          },
          {
            "duration": 0.24742279999998118,
            "durationTicks": 96,
            "midi": 50,
            "name": "D3",
            "ticks": 92040,
            "time": 198.1188785,
            "velocity": 0.36220472440944884
          },
          {
            "duration": 0.24742279999998118,
            "durationTicks": 96,
            "midi": 52,
            "name": "E3",
            "ticks": 92160,
            "time": 198.428157,
            "velocity": 0.36220472440944884
          },
          {
            "duration": 0.24742279999998118,
            "durationTicks": 96,
            "midi": 48,
            "name": "C3",
            "ticks": 92280,
            "time": 198.7374355,
            "velocity": 0.36220472440944884
          },
          {
            "duration": 0.2474228000000096,
            "durationTicks": 96,
            "midi": 50,
            "name": "D3",
            "ticks": 92400,
            "time": 199.04671399999998,
            "velocity": 0.2755905511811024
          },
          {
            "duration": 0.2474228000000096,
            "durationTicks": 96,
            "midi": 50,
            "name": "D3",
            "ticks": 92520,
            "time": 199.35599249999999,
            "velocity": 0.2755905511811024
          },
          {
            "duration": 0.2474228000000096,
            "durationTicks": 96,
            "midi": 50,
            "name": "D3",
            "ticks": 92640,
            "time": 199.665271,
            "velocity": 0.2755905511811024
          },
          {
            "duration": 0.2474228000000096,
            "durationTicks": 96,
            "midi": 50,
            "name": "D3",
            "ticks": 92760,
            "time": 199.9745495,
            "velocity": 0.2755905511811024
          },
          {
            "duration": 0.2474228000000096,
            "durationTicks": 96,
            "midi": 50,
            "name": "D3",
            "ticks": 92880,
            "time": 200.28382799999997,
            "velocity": 0.2755905511811024
          },
          {
            "duration": 0.2474228000000096,
            "durationTicks": 96,
            "midi": 50,
            "name": "D3",
            "ticks": 93000,
            "time": 200.59310649999998,
            "velocity": 0.2755905511811024
          },
          {
            "duration": 0.2474228000000096,
            "durationTicks": 96,
            "midi": 50,
            "name": "D3",
            "ticks": 93120,
            "time": 200.90238499999998,
            "velocity": 0.2755905511811024
          },
          {
            "duration": 0.2474228000000096,
            "durationTicks": 96,
            "midi": 50,
            "name": "D3",
            "ticks": 93240,
            "time": 201.2116635,
            "velocity": 0.2755905511811024
          },
          {
            "duration": 0.2474228000000096,
            "durationTicks": 96,
            "midi": 43,
            "name": "G2",
            "ticks": 93360,
            "time": 201.520942,
            "velocity": 0.18110236220472442
          },
          {
            "duration": 0.24742279999998118,
            "durationTicks": 96,
            "midi": 43,
            "name": "G2",
            "ticks": 93480,
            "time": 201.8302205,
            "velocity": 0.18110236220472442
          },
          {
            "duration": 0.24742279999998118,
            "durationTicks": 96,
            "midi": 45,
            "name": "A2",
            "ticks": 93600,
            "time": 202.139499,
            "velocity": 0.18110236220472442
          },
          {
            "duration": 0.2474228000000096,
            "durationTicks": 96,
            "midi": 47,
            "name": "B2",
            "ticks": 93720,
            "time": 202.44877749999998,
            "velocity": 0.18110236220472442
          },
          {
            "duration": 0.2474228000000096,
            "durationTicks": 96,
            "midi": 48,
            "name": "C3",
            "ticks": 93840,
            "time": 202.75805599999998,
            "velocity": 0.18110236220472442
          },
          {
            "duration": 0.2474228000000096,
            "durationTicks": 96,
            "midi": 50,
            "name": "D3",
            "ticks": 93960,
            "time": 203.0673345,
            "velocity": 0.14173228346456693
          },
          {
            "duration": 0.2474228000000096,
            "durationTicks": 96,
            "midi": 52,
            "name": "E3",
            "ticks": 94080,
            "time": 203.376613,
            "velocity": 0.14173228346456693
          },
          {
            "duration": 0.2474228000000096,
            "durationTicks": 96,
            "midi": 48,
            "name": "C3",
            "ticks": 94200,
            "time": 203.6858915,
            "velocity": 0.14173228346456693
          }
        ],
        "endOfTrackTicks": 94296
      },
      {
        "channel": 2,
        "controlChanges": {
          "7": [
            {
              "number": 7,
              "ticks": 0,
              "time": 0,
              "value": 0.9291338582677166
            }
          ]
        },
        "pitchBends": [],
        "instrument": {
          "family": "bass",
          "number": 35,
          "name": "fretless bass"
        },
        "name": "Bass Guitar (P36)",
        "notes": [
          {
            "duration": 1.1076912000000005,
            "durationTicks": 576,
            "midi": 45,
            "name": "A2",
            "ticks": 2880,
            "time": 5.538455999999999,
            "velocity": 0.6299212598425197
          },
          {
            "duration": 1.1076912000000005,
            "durationTicks": 576,
            "midi": 45,
            "name": "A2",
            "ticks": 2880,
            "time": 5.538455999999999,
            "velocity": 0.6299212598425197
          },
          {
            "duration": 1.1076911999999997,
            "durationTicks": 576,
            "midi": 43,
            "name": "G2",
            "ticks": 3600,
            "time": 6.923069999999999,
            "velocity": 0.6299212598425197
          },
          {
            "duration": 1.1076911999999997,
            "durationTicks": 576,
            "midi": 42,
            "name": "F#2",
            "ticks": 4320,
            "time": 8.307683999999998,
            "velocity": 0.6299212598425197
          },
          {
            "duration": 1.1076911999999997,
            "durationTicks": 576,
            "midi": 41,
            "name": "F2",
            "ticks": 5040,
            "time": 9.692298,
            "velocity": 0.6299212598425197
          },
          {
            "duration": 1.1076911999999997,
            "durationTicks": 576,
            "midi": 40,
            "name": "E2",
            "ticks": 5760,
            "time": 11.076911999999998,
            "velocity": 0.6299212598425197
          },
          {
            "duration": 1.1076911999999979,
            "durationTicks": 576,
            "midi": 43,
            "name": "G2",
            "ticks": 6480,
            "time": 12.461526,
            "velocity": 0.6299212598425197
          },
          {
            "duration": 1.1076911999999997,
            "durationTicks": 576,
            "midi": 42,
            "name": "F#2",
            "ticks": 7200,
            "time": 13.846139999999998,
            "velocity": 0.6299212598425197
          },
          {
            "duration": 0.3692303999999993,
            "durationTicks": 192,
            "midi": 41,
            "name": "F2",
            "ticks": 7920,
            "time": 15.230753999999997,
            "velocity": 0.6299212598425197
          },
          {
            "duration": 0.3692303999999993,
            "durationTicks": 192,
            "midi": 36,
            "name": "C2",
            "ticks": 8160,
            "time": 15.692291999999998,
            "velocity": 0.6299212598425197
          },
          {
            "duration": 0.3692303999999993,
            "durationTicks": 192,
            "midi": 41,
            "name": "F2",
            "ticks": 8400,
            "time": 16.15383,
            "velocity": 0.6299212598425197
          },
          {
            "duration": 0.5538456000000025,
            "durationTicks": 288,
            "midi": 36,
            "name": "C2",
            "ticks": 8640,
            "time": 16.615367999999997,
            "velocity": 0.6299212598425197
          },
          {
            "duration": 0.1846151999999961,
            "durationTicks": 96,
            "midi": 36,
            "name": "C2",
            "ticks": 9000,
            "time": 17.307675,
            "velocity": 0.6299212598425197
          },
          {
            "duration": 0.3692303999999993,
            "durationTicks": 192,
            "midi": 38,
            "name": "D2",
            "ticks": 9120,
            "time": 17.538444,
            "velocity": 0.6299212598425197
          },
          {
            "duration": 1.1076911999999979,
            "durationTicks": 576,
            "midi": 40,
            "name": "E2",
            "ticks": 9360,
            "time": 17.999982,
            "velocity": 0.6299212598425197
          },
          {
            "duration": 1.1076911999999979,
            "durationTicks": 576,
            "midi": 43,
            "name": "G2",
            "ticks": 10080,
            "time": 19.384596,
            "velocity": 0.6299212598425197
          },
          {
            "duration": 1.1076911999999979,
            "durationTicks": 576,
            "midi": 42,
            "name": "F#2",
            "ticks": 10800,
            "time": 20.769209999999998,
            "velocity": 0.6299212598425197
          },
          {
            "duration": 1.1076912000000014,
            "durationTicks": 576,
            "midi": 41,
            "name": "F2",
            "ticks": 11520,
            "time": 22.153823999999997,
            "velocity": 0.6299212598425197
          },
          {
            "duration": 1.1076912000000014,
            "durationTicks": 576,
            "midi": 40,
            "name": "E2",
            "ticks": 12240,
            "time": 23.538437999999996,
            "velocity": 0.6299212598425197
          },
          {
            "duration": 1.1076911999999979,
            "durationTicks": 576,
            "midi": 43,
            "name": "G2",
            "ticks": 12960,
            "time": 24.923052,
            "velocity": 0.6299212598425197
          },
          {
            "duration": 0.3692303999999993,
            "durationTicks": 192,
            "midi": 42,
            "name": "F#2",
            "ticks": 13680,
            "time": 26.307665999999998,
            "velocity": 0.6299212598425197
          },
          {
            "duration": 0.36923039999999574,
            "durationTicks": 192,
            "midi": 45,
            "name": "A2",
            "ticks": 13920,
            "time": 26.769204,
            "velocity": 0.6299212598425197
          },
          {
            "duration": 0.3692303999999993,
            "durationTicks": 192,
            "midi": 42,
            "name": "F#2",
            "ticks": 14160,
            "time": 27.230741999999996,
            "velocity": 0.6299212598425197
          },
          {
            "duration": 0.3692303999999993,
            "durationTicks": 192,
            "midi": 45,
            "name": "A2",
            "ticks": 14400,
            "time": 27.692279999999997,
            "velocity": 0.6299212598425197
          },
          {
            "duration": 0.3692303999999993,
            "durationTicks": 192,
            "midi": 42,
            "name": "F#2",
            "ticks": 14640,
            "time": 28.153817999999998,
            "velocity": 0.6299212598425197
          },
          {
            "duration": 0.36923039999999574,
            "durationTicks": 192,
            "midi": 45,
            "name": "A2",
            "ticks": 14880,
            "time": 28.615356,
            "velocity": 0.6299212598425197
          },
          {
            "duration": 0.3692303999999993,
            "durationTicks": 192,
            "midi": 38,
            "name": "D2",
            "ticks": 15120,
            "time": 29.076893999999996,
            "velocity": 0.6299212598425197
          },
          {
            "duration": 0.3692303999999993,
            "durationTicks": 192,
            "midi": 38,
            "name": "D2",
            "ticks": 15360,
            "time": 29.538431999999997,
            "velocity": 0.6299212598425197
          },
          {
            "duration": 0.3692303999999993,
            "durationTicks": 192,
            "midi": 38,
            "name": "D2",
            "ticks": 15600,
            "time": 29.999969999999998,
            "velocity": 0.6299212598425197
          },
          {
            "duration": 0.3692303999999993,
            "durationTicks": 192,
            "midi": 36,
            "name": "C2",
            "ticks": 15840,
            "time": 30.461507999999995,
            "velocity": 0.6299212598425197
          },
          {
            "duration": 0.3692303999999993,
            "durationTicks": 192,
            "midi": 36,
            "name": "C2",
            "ticks": 16080,
            "time": 30.923045999999996,
            "velocity": 0.6299212598425197
          },
          {
            "duration": 0.3692303999999993,
            "durationTicks": 192,
            "midi": 36,
            "name": "C2",
            "ticks": 16320,
            "time": 31.384583999999997,
            "velocity": 0.6299212598425197
          },
          {
            "duration": 0.36923039999999574,
            "durationTicks": 192,
            "midi": 34,
            "name": "A#1",
            "ticks": 16560,
            "time": 31.846121999999998,
            "velocity": 0.6299212598425197
          },
          {
            "duration": 0.3692303999999993,
            "durationTicks": 192,
            "midi": 34,
            "name": "A#1",
            "ticks": 16800,
            "time": 32.30766,
            "velocity": 0.6299212598425197
          },
          {
            "duration": 0.3692303999999993,
            "durationTicks": 192,
            "midi": 34,
            "name": "A#1",
            "ticks": 17040,
            "time": 32.769197999999996,
            "velocity": 0.6299212598425197
          },
          {
            "duration": 0.3692303999999993,
            "durationTicks": 192,
            "midi": 41,
            "name": "F2",
            "ticks": 17280,
            "time": 33.23073599999999,
            "velocity": 0.6299212598425197
          },
          {
            "duration": 0.3692303999999993,
            "durationTicks": 192,
            "midi": 41,
            "name": "F2",
            "ticks": 17520,
            "time": 33.692274,
            "velocity": 0.6299212598425197
          },
          {
            "duration": 0.3692303999999993,
            "durationTicks": 192,
            "midi": 41,
            "name": "F2",
            "ticks": 17760,
            "time": 34.153811999999995,
            "velocity": 0.6299212598425197
          },
          {
            "duration": 0.3692303999999922,
            "durationTicks": 192,
            "midi": 36,
            "name": "C2",
            "ticks": 18000,
            "time": 34.61535,
            "velocity": 0.6299212598425197
          },
          {
            "duration": 0.3692303999999993,
            "durationTicks": 192,
            "midi": 36,
            "name": "C2",
            "ticks": 18240,
            "time": 35.076888,
            "velocity": 0.6299212598425197
          },
          {
            "duration": 0.3692303999999993,
            "durationTicks": 192,
            "midi": 36,
            "name": "C2",
            "ticks": 18480,
            "time": 35.538425999999994,
            "velocity": 0.6299212598425197
          },
          {
            "duration": 0.3692303999999993,
            "durationTicks": 192,
            "midi": 43,
            "name": "G2",
            "ticks": 18720,
            "time": 35.999964,
            "velocity": 0.6299212598425197
          },
          {
            "duration": 0.3692303999999993,
            "durationTicks": 192,
            "midi": 43,
            "name": "G2",
            "ticks": 18960,
            "time": 36.461501999999996,
            "velocity": 0.6299212598425197
          },
          {
            "duration": 0.3692303999999993,
            "durationTicks": 192,
            "midi": 43,
            "name": "G2",
            "ticks": 19200,
            "time": 36.92303999999999,
            "velocity": 0.6299212598425197
          },
          {
            "duration": 0.3692303999999993,
            "durationTicks": 192,
            "midi": 29,
            "name": "F1",
            "ticks": 19440,
            "time": 37.384578,
            "velocity": 0.6299212598425197
          },
          {
            "duration": 0.3692303999999993,
            "durationTicks": 192,
            "midi": 29,
            "name": "F1",
            "ticks": 19680,
            "time": 37.846115999999995,
            "velocity": 0.6299212598425197
          },
          {
            "duration": 0.3692303999999993,
            "durationTicks": 192,
            "midi": 29,
            "name": "F1",
            "ticks": 19920,
            "time": 38.30765399999999,
            "velocity": 0.6299212598425197
          },
          {
            "duration": 0.3692303999999993,
            "durationTicks": 192,
            "midi": 36,
            "name": "C2",
            "ticks": 20160,
            "time": 38.769192,
            "velocity": 0.6299212598425197
          },
          {
            "duration": 0.3692303999999993,
            "durationTicks": 192,
            "midi": 36,
            "name": "C2",
            "ticks": 20400,
            "time": 39.230729999999994,
            "velocity": 0.6299212598425197
          },
          {
            "duration": 0.3692303999999922,
            "durationTicks": 192,
            "midi": 36,
            "name": "C2",
            "ticks": 20640,
            "time": 39.692268,
            "velocity": 0.6299212598425197
          },
          {
            "duration": 0.3692303999999993,
            "durationTicks": 192,
            "midi": 34,
            "name": "A#1",
            "ticks": 20880,
            "time": 40.153805999999996,
            "velocity": 0.6299212598425197
          },
          {
            "duration": 0.3692303999999993,
            "durationTicks": 192,
            "midi": 38,
            "name": "D2",
            "ticks": 21120,
            "time": 40.61534399999999,
            "velocity": 0.6299212598425197
          },
          {
            "duration": 0.3692303999999993,
            "durationTicks": 192,
            "midi": 41,
            "name": "F2",
            "ticks": 21360,
            "time": 41.076882,
            "velocity": 0.6299212598425197
          },
          {
            "duration": 0.3692303999999993,
            "durationTicks": 192,
            "midi": 46,
            "name": "A#2",
            "ticks": 21600,
            "time": 41.538419999999995,
            "velocity": 0.6299212598425197
          },
          {
            "duration": 0.3692303999999993,
            "durationTicks": 192,
            "midi": 41,
            "name": "F2",
            "ticks": 21840,
            "time": 41.99995799999999,
            "velocity": 0.6299212598425197
          },
          {
            "duration": 0.3692303999999993,
            "durationTicks": 192,
            "midi": 34,
            "name": "A#1",
            "ticks": 22080,
            "time": 42.461496,
            "velocity": 0.6299212598425197
          },
          {
            "duration": 0.3692303999999993,
            "durationTicks": 192,
            "midi": 36,
            "name": "C2",
            "ticks": 22320,
            "time": 42.923033999999994,
            "velocity": 0.6299212598425197
          },
          {
            "duration": 0.3692303999999922,
            "durationTicks": 192,
            "midi": 36,
            "name": "C2",
            "ticks": 22560,
            "time": 43.384572,
            "velocity": 0.6299212598425197
          },
          {
            "duration": 0.3692303999999993,
            "durationTicks": 192,
            "midi": 36,
            "name": "C2",
            "ticks": 22800,
            "time": 43.846109999999996,
            "velocity": 0.6299212598425197
          },
          {
            "duration": 0.3692303999999993,
            "durationTicks": 192,
            "midi": 43,
            "name": "G2",
            "ticks": 23040,
            "time": 44.30764799999999,
            "velocity": 0.6299212598425197
          },
          {
            "duration": 0.3692303999999993,
            "durationTicks": 192,
            "midi": 43,
            "name": "G2",
            "ticks": 23280,
            "time": 44.769186,
            "velocity": 0.6299212598425197
          },
          {
            "duration": 0.3692303999999993,
            "durationTicks": 192,
            "midi": 43,
            "name": "G2",
            "ticks": 23520,
            "time": 45.230723999999995,
            "velocity": 0.6299212598425197
          },
          {
            "duration": 0.3692303999999993,
            "durationTicks": 192,
            "midi": 31,
            "name": "G1",
            "ticks": 23760,
            "time": 45.69226199999999,
            "velocity": 0.6299212598425197
          },
          {
            "duration": 0.3692303999999993,
            "durationTicks": 192,
            "midi": 35,
            "name": "B1",
            "ticks": 24000,
            "time": 46.1538,
            "velocity": 0.6299212598425197
          },
          {
            "duration": 0.3692303999999993,
            "durationTicks": 192,
            "midi": 38,
            "name": "D2",
            "ticks": 24240,
            "time": 46.615337999999994,
            "velocity": 0.6299212598425197
          },
          {
            "duration": 0.3692303999999993,
            "durationTicks": 192,
            "midi": 43,
            "name": "G2",
            "ticks": 24480,
            "time": 47.07687599999999,
            "velocity": 0.6299212598425197
          },
          {
            "duration": 0.3692303999999993,
            "durationTicks": 192,
            "midi": 42,
            "name": "F#2",
            "ticks": 24720,
            "time": 47.538413999999996,
            "velocity": 0.6299212598425197
          },
          {
            "duration": 0.3692303999999993,
            "durationTicks": 192,
            "midi": 40,
            "name": "E2",
            "ticks": 24960,
            "time": 47.99995199999999,
            "velocity": 0.6299212598425197
          },
          {
            "duration": 0.4948455999999979,
            "durationTicks": 192,
            "midi": 38,
            "name": "D2",
            "ticks": 25200,
            "time": 48.46149,
            "velocity": 0.6299212598425197
          },
          {
            "duration": 0.4948455999999979,
            "durationTicks": 192,
            "midi": 26,
            "name": "D1",
            "ticks": 25440,
            "time": 49.080047,
            "velocity": 0.6299212598425197
          },
          {
            "duration": 0.4948455999999979,
            "durationTicks": 192,
            "midi": 38,
            "name": "D2",
            "ticks": 25440,
            "time": 49.080047,
            "velocity": 0.6299212598425197
          },
          {
            "duration": 0.494845600000005,
            "durationTicks": 192,
            "midi": 26,
            "name": "D1",
            "ticks": 25680,
            "time": 49.698603999999996,
            "velocity": 0.6299212598425197
          },
          {
            "duration": 0.494845600000005,
            "durationTicks": 192,
            "midi": 38,
            "name": "D2",
            "ticks": 25680,
            "time": 49.698603999999996,
            "velocity": 0.6299212598425197
          },
          {
            "duration": 0.4948455999999979,
            "durationTicks": 192,
            "midi": 26,
            "name": "D1",
            "ticks": 25920,
            "time": 50.317161,
            "velocity": 0.6299212598425197
          },
          {
            "duration": 0.4948455999999979,
            "durationTicks": 192,
            "midi": 38,
            "name": "D2",
            "ticks": 25920,
            "time": 50.317161,
            "velocity": 0.6299212598425197
          },
          {
            "duration": 0.2474228000000025,
            "durationTicks": 96,
            "midi": 31,
            "name": "G1",
            "ticks": 26160,
            "time": 50.935717999999994,
            "velocity": 0.6299212598425197
          },
          {
            "duration": 0.2474227999999954,
            "durationTicks": 96,
            "midi": 31,
            "name": "G1",
            "ticks": 26280,
            "time": 51.2449965,
            "velocity": 0.6299212598425197
          },
          {
            "duration": 0.2474228000000025,
            "durationTicks": 96,
            "midi": 33,
            "name": "A1",
            "ticks": 26400,
            "time": 51.554275,
            "velocity": 0.6299212598425197
          },
          {
            "duration": 0.2474228000000025,
            "durationTicks": 96,
            "midi": 35,
            "name": "B1",
            "ticks": 26520,
            "time": 51.863553499999995,
            "velocity": 0.6299212598425197
          },
          {
            "duration": 0.2474227999999954,
            "durationTicks": 96,
            "midi": 36,
            "name": "C2",
            "ticks": 26640,
            "time": 52.172832,
            "velocity": 0.6299212598425197
          },
          {
            "duration": 0.2474228000000025,
            "durationTicks": 96,
            "midi": 38,
            "name": "D2",
            "ticks": 26760,
            "time": 52.4821105,
            "velocity": 0.6299212598425197
          },
          {
            "duration": 0.2474228000000025,
            "durationTicks": 96,
            "midi": 40,
            "name": "E2",
            "ticks": 26880,
            "time": 52.791388999999995,
            "velocity": 0.6299212598425197
          },
          {
            "duration": 0.2474227999999954,
            "durationTicks": 96,
            "midi": 36,
            "name": "C2",
            "ticks": 27000,
            "time": 53.1006675,
            "velocity": 0.6299212598425197
          },
          {
            "duration": 0.2474228000000025,
            "durationTicks": 96,
            "midi": 38,
            "name": "D2",
            "ticks": 27120,
            "time": 53.409946,
            "velocity": 0.6299212598425197
          },
          {
            "duration": 0.2474228000000025,
            "durationTicks": 96,
            "midi": 38,
            "name": "D2",
            "ticks": 27240,
            "time": 53.719224499999996,
            "velocity": 0.6299212598425197
          },
          {
            "duration": 0.2474227999999954,
            "durationTicks": 96,
            "midi": 38,
            "name": "D2",
            "ticks": 27360,
            "time": 54.028503,
            "velocity": 0.6299212598425197
          },
          {
            "duration": 0.2474228000000025,
            "durationTicks": 96,
            "midi": 38,
            "name": "D2",
            "ticks": 27480,
            "time": 54.3377815,
            "velocity": 0.6299212598425197
          },
          {
            "duration": 0.2474228000000025,
            "durationTicks": 96,
            "midi": 38,
            "name": "D2",
            "ticks": 27600,
            "time": 54.647059999999996,
            "velocity": 0.6299212598425197
          },
          {
            "duration": 0.2474227999999954,
            "durationTicks": 96,
            "midi": 38,
            "name": "D2",
            "ticks": 27720,
            "time": 54.9563385,
            "velocity": 0.6299212598425197
          },
          {
            "duration": 0.2474228000000025,
            "durationTicks": 96,
            "midi": 38,
            "name": "D2",
            "ticks": 27840,
            "time": 55.265617,
            "velocity": 0.6299212598425197
          },
          {
            "duration": 0.2474228000000025,
            "durationTicks": 96,
            "midi": 38,
            "name": "D2",
            "ticks": 27960,
            "time": 55.5748955,
            "velocity": 0.6299212598425197
          },
          {
            "duration": 0.2474227999999954,
            "durationTicks": 96,
            "midi": 31,
            "name": "G1",
            "ticks": 28080,
            "time": 55.884174,
            "velocity": 0.6299212598425197
          },
          {
            "duration": 0.2474228000000025,
            "durationTicks": 96,
            "midi": 31,
            "name": "G1",
            "ticks": 28200,
            "time": 56.1934525,
            "velocity": 0.6299212598425197
          },
          {
            "duration": 0.2474228000000025,
            "durationTicks": 96,
            "midi": 33,
            "name": "A1",
            "ticks": 28320,
            "time": 56.502731,
            "velocity": 0.6299212598425197
          },
          {
            "duration": 0.2474227999999954,
            "durationTicks": 96,
            "midi": 35,
            "name": "B1",
            "ticks": 28440,
            "time": 56.8120095,
            "velocity": 0.6299212598425197
          },
          {
            "duration": 0.2474228000000025,
            "durationTicks": 96,
            "midi": 36,
            "name": "C2",
            "ticks": 28560,
            "time": 57.121288,
            "velocity": 0.6299212598425197
          },
          {
            "duration": 0.2474228000000025,
            "durationTicks": 96,
            "midi": 38,
            "name": "D2",
            "ticks": 28680,
            "time": 57.4305665,
            "velocity": 0.6299212598425197
          },
          {
            "duration": 0.2474227999999954,
            "durationTicks": 96,
            "midi": 40,
            "name": "E2",
            "ticks": 28800,
            "time": 57.739845,
            "velocity": 0.6299212598425197
          },
          {
            "duration": 0.2474227999999954,
            "durationTicks": 96,
            "midi": 36,
            "name": "C2",
            "ticks": 28920,
            "time": 58.0491235,
            "velocity": 0.6299212598425197
          },
          {
            "duration": 0.2474227999999954,
            "durationTicks": 96,
            "midi": 38,
            "name": "D2",
            "ticks": 29040,
            "time": 58.358402,
            "velocity": 0.6299212598425197
          },
          {
            "duration": 0.2474228000000025,
            "durationTicks": 96,
            "midi": 38,
            "name": "D2",
            "ticks": 29160,
            "time": 58.667680499999996,
            "velocity": 0.6299212598425197
          },
          {
            "duration": 0.2474228000000025,
            "durationTicks": 96,
            "midi": 38,
            "name": "D2",
            "ticks": 29280,
            "time": 58.976958999999994,
            "velocity": 0.6299212598425197
          },
          {
            "duration": 0.2474227999999954,
            "durationTicks": 96,
            "midi": 38,
            "name": "D2",
            "ticks": 29400,
            "time": 59.2862375,
            "velocity": 0.6299212598425197
          },
          {
            "duration": 0.2474228000000025,
            "durationTicks": 96,
            "midi": 38,
            "name": "D2",
            "ticks": 29520,
            "time": 59.595515999999996,
            "velocity": 0.6299212598425197
          },
          {
            "duration": 0.2474228000000025,
            "durationTicks": 96,
            "midi": 38,
            "name": "D2",
            "ticks": 29640,
            "time": 59.904794499999994,
            "velocity": 0.6299212598425197
          },
          {
            "duration": 0.2474227999999954,
            "durationTicks": 96,
            "midi": 38,
            "name": "D2",
            "ticks": 29760,
            "time": 60.214073,
            "velocity": 0.6299212598425197
          },
          {
            "duration": 0.2474228000000025,
            "durationTicks": 96,
            "midi": 38,
            "name": "D2",
            "ticks": 29880,
            "time": 60.5233515,
            "velocity": 0.6299212598425197
          },
          {
            "duration": 0.2474228000000025,
            "durationTicks": 96,
            "midi": 31,
            "name": "G1",
            "ticks": 30000,
            "time": 60.832629999999995,
            "velocity": 0.6299212598425197
          },
          {
            "duration": 0.2474227999999954,
            "durationTicks": 96,
            "midi": 31,
            "name": "G1",
            "ticks": 30120,
            "time": 61.1419085,
            "velocity": 0.6299212598425197
          },
          {
            "duration": 0.2474228000000025,
            "durationTicks": 96,
            "midi": 33,
            "name": "A1",
            "ticks": 30240,
            "time": 61.451187,
            "velocity": 0.6299212598425197
          },
          {
            "duration": 0.2474228000000025,
            "durationTicks": 96,
            "midi": 35,
            "name": "B1",
            "ticks": 30360,
            "time": 61.760465499999995,
            "velocity": 0.6299212598425197
          },
          {
            "duration": 0.2474227999999954,
            "durationTicks": 96,
            "midi": 36,
            "name": "C2",
            "ticks": 30480,
            "time": 62.069744,
            "velocity": 0.6299212598425197
          },
          {
            "duration": 0.2474228000000025,
            "durationTicks": 96,
            "midi": 38,
            "name": "D2",
            "ticks": 30600,
            "time": 62.3790225,
            "velocity": 0.6299212598425197
          },
          {
            "duration": 0.2474228000000025,
            "durationTicks": 96,
            "midi": 40,
            "name": "E2",
            "ticks": 30720,
            "time": 62.688300999999996,
            "velocity": 0.6299212598425197
          },
          {
            "duration": 0.2474227999999954,
            "durationTicks": 96,
            "midi": 36,
            "name": "C2",
            "ticks": 30840,
            "time": 62.9975795,
            "velocity": 0.6299212598425197
          },
          {
            "duration": 0.2474228000000025,
            "durationTicks": 96,
            "midi": 38,
            "name": "D2",
            "ticks": 30960,
            "time": 63.306858,
            "velocity": 0.6299212598425197
          },
          {
            "duration": 0.2474228000000025,
            "durationTicks": 96,
            "midi": 38,
            "name": "D2",
            "ticks": 31080,
            "time": 63.616136499999996,
            "velocity": 0.6299212598425197
          },
          {
            "duration": 0.2474227999999954,
            "durationTicks": 96,
            "midi": 38,
            "name": "D2",
            "ticks": 31200,
            "time": 63.925415,
            "velocity": 0.6299212598425197
          },
          {
            "duration": 0.2474228000000096,
            "durationTicks": 96,
            "midi": 38,
            "name": "D2",
            "ticks": 31320,
            "time": 64.23469349999999,
            "velocity": 0.6299212598425197
          },
          {
            "duration": 0.2474228000000096,
            "durationTicks": 96,
            "midi": 38,
            "name": "D2",
            "ticks": 31440,
            "time": 64.543972,
            "velocity": 0.6299212598425197
          },
          {
            "duration": 0.2474227999999954,
            "durationTicks": 96,
            "midi": 38,
            "name": "D2",
            "ticks": 31560,
            "time": 64.8532505,
            "velocity": 0.6299212598425197
          },
          {
            "duration": 0.2474227999999954,
            "durationTicks": 96,
            "midi": 38,
            "name": "D2",
            "ticks": 31680,
            "time": 65.162529,
            "velocity": 0.6299212598425197
          },
          {
            "duration": 0.2474227999999954,
            "durationTicks": 96,
            "midi": 38,
            "name": "D2",
            "ticks": 31800,
            "time": 65.4718075,
            "velocity": 0.6299212598425197
          },
          {
            "duration": 0.2474227999999954,
            "durationTicks": 96,
            "midi": 38,
            "name": "D2",
            "ticks": 31920,
            "time": 65.781086,
            "velocity": 0.6299212598425197
          },
          {
            "duration": 0.2474228000000096,
            "durationTicks": 96,
            "midi": 33,
            "name": "A1",
            "ticks": 32040,
            "time": 66.09036449999999,
            "velocity": 0.6299212598425197
          },
          {
            "duration": 0.2474227999999954,
            "durationTicks": 96,
            "midi": 38,
            "name": "D2",
            "ticks": 32160,
            "time": 66.399643,
            "velocity": 0.6299212598425197
          },
          {
            "duration": 0.2474227999999954,
            "durationTicks": 96,
            "midi": 33,
            "name": "A1",
            "ticks": 32280,
            "time": 66.7089215,
            "velocity": 0.6299212598425197
          },
          {
            "duration": 0.2474227999999954,
            "durationTicks": 96,
            "midi": 38,
            "name": "D2",
            "ticks": 32400,
            "time": 67.01820000000001,
            "velocity": 0.6299212598425197
          },
          {
            "duration": 0.2474227999999954,
            "durationTicks": 96,
            "midi": 33,
            "name": "A1",
            "ticks": 32520,
            "time": 67.3274785,
            "velocity": 0.6299212598425197
          },
          {
            "duration": 0.2474227999999954,
            "durationTicks": 96,
            "midi": 38,
            "name": "D2",
            "ticks": 32640,
            "time": 67.636757,
            "velocity": 0.6299212598425197
          },
          {
            "duration": 0.2474228000000096,
            "durationTicks": 96,
            "midi": 33,
            "name": "A1",
            "ticks": 32760,
            "time": 67.9460355,
            "velocity": 0.6299212598425197
          },
          {
            "duration": 1.107691200000005,
            "durationTicks": 576,
            "midi": 45,
            "name": "A2",
            "ticks": 32880,
            "time": 68.255314,
            "velocity": 0.6299212598425197
          },
          {
            "duration": 1.107691200000005,
            "durationTicks": 576,
            "midi": 45,
            "name": "A2",
            "ticks": 32880,
            "time": 68.255314,
            "velocity": 0.6299212598425197
          },
          {
            "duration": 1.107691200000005,
            "durationTicks": 576,
            "midi": 43,
            "name": "G2",
            "ticks": 33600,
            "time": 69.639928,
            "velocity": 0.6299212598425197
          },
          {
            "duration": 1.107691200000005,
            "durationTicks": 576,
            "midi": 42,
            "name": "F#2",
            "ticks": 34320,
            "time": 71.024542,
            "velocity": 0.6299212598425197
          },
          {
            "duration": 1.107691200000005,
            "durationTicks": 576,
            "midi": 41,
            "name": "F2",
            "ticks": 35040,
            "time": 72.409156,
            "velocity": 0.6299212598425197
          },
          {
            "duration": 1.107691200000005,
            "durationTicks": 576,
            "midi": 40,
            "name": "E2",
            "ticks": 35760,
            "time": 73.79377,
            "velocity": 0.6299212598425197
          },
          {
            "duration": 1.107691200000005,
            "durationTicks": 576,
            "midi": 43,
            "name": "G2",
            "ticks": 36480,
            "time": 75.178384,
            "velocity": 0.6299212598425197
          },
          {
            "duration": 1.107691200000005,
            "durationTicks": 576,
            "midi": 42,
            "name": "F#2",
            "ticks": 37200,
            "time": 76.562998,
            "velocity": 0.6299212598425197
          },
          {
            "duration": 0.3692304000000064,
            "durationTicks": 192,
            "midi": 41,
            "name": "F2",
            "ticks": 37920,
            "time": 77.94761199999999,
            "velocity": 0.6299212598425197
          },
          {
            "duration": 0.3692304000000064,
            "durationTicks": 192,
            "midi": 36,
            "name": "C2",
            "ticks": 38160,
            "time": 78.40915,
            "velocity": 0.6299212598425197
          },
          {
            "duration": 0.3692303999999922,
            "durationTicks": 192,
            "midi": 41,
            "name": "F2",
            "ticks": 38400,
            "time": 78.870688,
            "velocity": 0.6299212598425197
          },
          {
            "duration": 0.5538456000000025,
            "durationTicks": 288,
            "midi": 36,
            "name": "C2",
            "ticks": 38640,
            "time": 79.33222599999999,
            "velocity": 0.6299212598425197
          },
          {
            "duration": 0.1846152000000103,
            "durationTicks": 96,
            "midi": 36,
            "name": "C2",
            "ticks": 39000,
            "time": 80.02453299999999,
            "velocity": 0.6299212598425197
          },
          {
            "duration": 0.3692303999999922,
            "durationTicks": 192,
            "midi": 38,
            "name": "D2",
            "ticks": 39120,
            "time": 80.255302,
            "velocity": 0.6299212598425197
          },
          {
            "duration": 1.107691200000005,
            "durationTicks": 576,
            "midi": 40,
            "name": "E2",
            "ticks": 39360,
            "time": 80.71683999999999,
            "velocity": 0.6299212598425197
          },
          {
            "duration": 1.107691200000005,
            "durationTicks": 576,
            "midi": 43,
            "name": "G2",
            "ticks": 40080,
            "time": 82.10145399999999,
            "velocity": 0.6299212598425197
          },
          {
            "duration": 1.107691200000005,
            "durationTicks": 576,
            "midi": 42,
            "name": "F#2",
            "ticks": 40800,
            "time": 83.48606799999999,
            "velocity": 0.6299212598425197
          },
          {
            "duration": 1.107691200000005,
            "durationTicks": 576,
            "midi": 41,
            "name": "F2",
            "ticks": 41520,
            "time": 84.87068199999999,
            "velocity": 0.6299212598425197
          },
          {
            "duration": 1.1076911999999908,
            "durationTicks": 576,
            "midi": 40,
            "name": "E2",
            "ticks": 42240,
            "time": 86.255296,
            "velocity": 0.6299212598425197
          },
          {
            "duration": 1.1076911999999908,
            "durationTicks": 576,
            "midi": 43,
            "name": "G2",
            "ticks": 42960,
            "time": 87.63991,
            "velocity": 0.6299212598425197
          },
          {
            "duration": 0.3692303999999922,
            "durationTicks": 192,
            "midi": 42,
            "name": "F#2",
            "ticks": 43680,
            "time": 89.024524,
            "velocity": 0.6299212598425197
          },
          {
            "duration": 0.3692303999999922,
            "durationTicks": 192,
            "midi": 45,
            "name": "A2",
            "ticks": 43920,
            "time": 89.486062,
            "velocity": 0.6299212598425197
          },
          {
            "duration": 0.3692303999999922,
            "durationTicks": 192,
            "midi": 42,
            "name": "F#2",
            "ticks": 44160,
            "time": 89.9476,
            "velocity": 0.6299212598425197
          },
          {
            "duration": 0.3692303999999922,
            "durationTicks": 192,
            "midi": 45,
            "name": "A2",
            "ticks": 44400,
            "time": 90.409138,
            "velocity": 0.6299212598425197
          },
          {
            "duration": 0.3692303999999922,
            "durationTicks": 192,
            "midi": 42,
            "name": "F#2",
            "ticks": 44640,
            "time": 90.870676,
            "velocity": 0.6299212598425197
          },
          {
            "duration": 0.3692304000000064,
            "durationTicks": 192,
            "midi": 45,
            "name": "A2",
            "ticks": 44880,
            "time": 91.332214,
            "velocity": 0.6299212598425197
          },
          {
            "duration": 0.3692303999999922,
            "durationTicks": 192,
            "midi": 38,
            "name": "D2",
            "ticks": 45120,
            "time": 91.793752,
            "velocity": 0.6299212598425197
          },
          {
            "duration": 0.3692303999999922,
            "durationTicks": 192,
            "midi": 38,
            "name": "D2",
            "ticks": 45360,
            "time": 92.25529,
            "velocity": 0.6299212598425197
          },
          {
            "duration": 0.3692304000000064,
            "durationTicks": 192,
            "midi": 38,
            "name": "D2",
            "ticks": 45600,
            "time": 92.71682799999999,
            "velocity": 0.6299212598425197
          },
          {
            "duration": 0.3692303999999922,
            "durationTicks": 192,
            "midi": 36,
            "name": "C2",
            "ticks": 45840,
            "time": 93.178366,
            "velocity": 0.6299212598425197
          },
          {
            "duration": 0.3692303999999922,
            "durationTicks": 192,
            "midi": 36,
            "name": "C2",
            "ticks": 46080,
            "time": 93.639904,
            "velocity": 0.6299212598425197
          },
          {
            "duration": 0.3692304000000064,
            "durationTicks": 192,
            "midi": 36,
            "name": "C2",
            "ticks": 46320,
            "time": 94.10144199999999,
            "velocity": 0.6299212598425197
          },
          {
            "duration": 0.3692304000000064,
            "durationTicks": 192,
            "midi": 34,
            "name": "A#1",
            "ticks": 46560,
            "time": 94.56298,
            "velocity": 0.6299212598425197
          },
          {
            "duration": 0.3692303999999922,
            "durationTicks": 192,
            "midi": 34,
            "name": "A#1",
            "ticks": 46800,
            "time": 95.024518,
            "velocity": 0.6299212598425197
          },
          {
            "duration": 0.3692304000000064,
            "durationTicks": 192,
            "midi": 34,
            "name": "A#1",
            "ticks": 47040,
            "time": 95.48605599999999,
            "velocity": 0.6299212598425197
          },
          {
            "duration": 0.3692304000000064,
            "durationTicks": 192,
            "midi": 41,
            "name": "F2",
            "ticks": 47280,
            "time": 95.947594,
            "velocity": 0.6299212598425197
          },
          {
            "duration": 0.3692303999999922,
            "durationTicks": 192,
            "midi": 41,
            "name": "F2",
            "ticks": 47520,
            "time": 96.409132,
            "velocity": 0.6299212598425197
          },
          {
            "duration": 0.3692304000000064,
            "durationTicks": 192,
            "midi": 41,
            "name": "F2",
            "ticks": 47760,
            "time": 96.87066999999999,
            "velocity": 0.6299212598425197
          },
          {
            "duration": 0.3692304000000064,
            "durationTicks": 192,
            "midi": 36,
            "name": "C2",
            "ticks": 48000,
            "time": 97.332208,
            "velocity": 0.6299212598425197
          },
          {
            "duration": 0.3692303999999922,
            "durationTicks": 192,
            "midi": 36,
            "name": "C2",
            "ticks": 48240,
            "time": 97.793746,
            "velocity": 0.6299212598425197
          },
          {
            "duration": 0.3692304000000064,
            "durationTicks": 192,
            "midi": 36,
            "name": "C2",
            "ticks": 48480,
            "time": 98.25528399999999,
            "velocity": 0.6299212598425197
          },
          {
            "duration": 0.3692304000000064,
            "durationTicks": 192,
            "midi": 43,
            "name": "G2",
            "ticks": 48720,
            "time": 98.716822,
            "velocity": 0.6299212598425197
          },
          {
            "duration": 0.3692303999999922,
            "durationTicks": 192,
            "midi": 43,
            "name": "G2",
            "ticks": 48960,
            "time": 99.17836,
            "velocity": 0.6299212598425197
          },
          {
            "duration": 0.3692304000000064,
            "durationTicks": 192,
            "midi": 43,
            "name": "G2",
            "ticks": 49200,
            "time": 99.63989799999999,
            "velocity": 0.6299212598425197
          },
          {
            "duration": 0.3692304000000064,
            "durationTicks": 192,
            "midi": 29,
            "name": "F1",
            "ticks": 49440,
            "time": 100.10143599999999,
            "velocity": 0.6299212598425197
          },
          {
            "duration": 0.3692303999999922,
            "durationTicks": 192,
            "midi": 29,
            "name": "F1",
            "ticks": 49680,
            "time": 100.562974,
            "velocity": 0.6299212598425197
          },
          {
            "duration": 0.3692304000000064,
            "durationTicks": 192,
            "midi": 29,
            "name": "F1",
            "ticks": 49920,
            "time": 101.02451199999999,
            "velocity": 0.6299212598425197
          },
          {
            "duration": 0.3692304000000064,
            "durationTicks": 192,
            "midi": 36,
            "name": "C2",
            "ticks": 50160,
            "time": 101.48604999999999,
            "velocity": 0.6299212598425197
          },
          {
            "duration": 0.3692303999999922,
            "durationTicks": 192,
            "midi": 36,
            "name": "C2",
            "ticks": 50400,
            "time": 101.947588,
            "velocity": 0.6299212598425197
          },
          {
            "duration": 0.3692304000000064,
            "durationTicks": 192,
            "midi": 36,
            "name": "C2",
            "ticks": 50640,
            "time": 102.40912599999999,
            "velocity": 0.6299212598425197
          },
          {
            "duration": 0.3692303999999922,
            "durationTicks": 192,
            "midi": 34,
            "name": "A#1",
            "ticks": 50880,
            "time": 102.870664,
            "velocity": 0.6299212598425197
          },
          {
            "duration": 0.3692303999999922,
            "durationTicks": 192,
            "midi": 38,
            "name": "D2",
            "ticks": 51120,
            "time": 103.332202,
            "velocity": 0.6299212598425197
          },
          {
            "duration": 0.3692304000000064,
            "durationTicks": 192,
            "midi": 41,
            "name": "F2",
            "ticks": 51360,
            "time": 103.79373999999999,
            "velocity": 0.6299212598425197
          },
          {
            "duration": 0.3692303999999922,
            "durationTicks": 192,
            "midi": 46,
            "name": "A#2",
            "ticks": 51600,
            "time": 104.255278,
            "velocity": 0.6299212598425197
          },
          {
            "duration": 0.3692303999999922,
            "durationTicks": 192,
            "midi": 41,
            "name": "F2",
            "ticks": 51840,
            "time": 104.716816,
            "velocity": 0.6299212598425197
          },
          {
            "duration": 0.3692304000000064,
            "durationTicks": 192,
            "midi": 34,
            "name": "A#1",
            "ticks": 52080,
            "time": 105.17835399999998,
            "velocity": 0.6299212598425197
          },
          {
            "duration": 0.3692303999999922,
            "durationTicks": 192,
            "midi": 36,
            "name": "C2",
            "ticks": 52320,
            "time": 105.639892,
            "velocity": 0.6299212598425197
          },
          {
            "duration": 0.3692303999999922,
            "durationTicks": 192,
            "midi": 36,
            "name": "C2",
            "ticks": 52560,
            "time": 106.10143,
            "velocity": 0.6299212598425197
          },
          {
            "duration": 0.3692304000000064,
            "durationTicks": 192,
            "midi": 36,
            "name": "C2",
            "ticks": 52800,
            "time": 106.56296799999998,
            "velocity": 0.6299212598425197
          },
          {
            "duration": 0.3692303999999922,
            "durationTicks": 192,
            "midi": 43,
            "name": "G2",
            "ticks": 53040,
            "time": 107.024506,
            "velocity": 0.6299212598425197
          },
          {
            "duration": 0.3692303999999922,
            "durationTicks": 192,
            "midi": 43,
            "name": "G2",
            "ticks": 53280,
            "time": 107.48604399999999,
            "velocity": 0.6299212598425197
          },
          {
            "duration": 0.3692303999999922,
            "durationTicks": 192,
            "midi": 43,
            "name": "G2",
            "ticks": 53520,
            "time": 107.947582,
            "velocity": 0.6299212598425197
          },
          {
            "duration": 0.3692303999999922,
            "durationTicks": 192,
            "midi": 31,
            "name": "G1",
            "ticks": 53760,
            "time": 108.40912,
            "velocity": 0.6299212598425197
          },
          {
            "duration": 0.3692303999999922,
            "durationTicks": 192,
            "midi": 35,
            "name": "B1",
            "ticks": 54000,
            "time": 108.87065799999999,
            "velocity": 0.6299212598425197
          },
          {
            "duration": 0.3692304000000064,
            "durationTicks": 192,
            "midi": 38,
            "name": "D2",
            "ticks": 54240,
            "time": 109.332196,
            "velocity": 0.6299212598425197
          },
          {
            "duration": 0.3692303999999922,
            "durationTicks": 192,
            "midi": 43,
            "name": "G2",
            "ticks": 54480,
            "time": 109.793734,
            "velocity": 0.6299212598425197
          },
          {
            "duration": 0.3692303999999922,
            "durationTicks": 192,
            "midi": 42,
            "name": "F#2",
            "ticks": 54720,
            "time": 110.25527199999999,
            "velocity": 0.6299212598425197
          },
          {
            "duration": 0.3692304000000064,
            "durationTicks": 192,
            "midi": 40,
            "name": "E2",
            "ticks": 54960,
            "time": 110.71681,
            "velocity": 0.6299212598425197
          },
          {
            "duration": 0.494845600000005,
            "durationTicks": 192,
            "midi": 38,
            "name": "D2",
            "ticks": 55200,
            "time": 111.178348,
            "velocity": 0.6299212598425197
          },
          {
            "duration": 0.494845600000005,
            "durationTicks": 192,
            "midi": 38,
            "name": "D2",
            "ticks": 55440,
            "time": 111.796905,
            "velocity": 0.6299212598425197
          },
          {
            "duration": 0.494845600000005,
            "durationTicks": 192,
            "midi": 26,
            "name": "D1",
            "ticks": 55440,
            "time": 111.796905,
            "velocity": 0.6299212598425197
          },
          {
            "duration": 0.4948455999999908,
            "durationTicks": 192,
            "midi": 38,
            "name": "D2",
            "ticks": 55680,
            "time": 112.415462,
            "velocity": 0.6299212598425197
          },
          {
            "duration": 0.4948455999999908,
            "durationTicks": 192,
            "midi": 26,
            "name": "D1",
            "ticks": 55680,
            "time": 112.415462,
            "velocity": 0.6299212598425197
          },
          {
            "duration": 0.494845600000005,
            "durationTicks": 192,
            "midi": 26,
            "name": "D1",
            "ticks": 55920,
            "time": 113.034019,
            "velocity": 0.6299212598425197
          },
          {
            "duration": 0.494845600000005,
            "durationTicks": 192,
            "midi": 38,
            "name": "D2",
            "ticks": 55920,
            "time": 113.034019,
            "velocity": 0.6299212598425197
          },
          {
            "duration": 0.2474228000000096,
            "durationTicks": 96,
            "midi": 31,
            "name": "G1",
            "ticks": 56160,
            "time": 113.652576,
            "velocity": 0.6299212598425197
          },
          {
            "duration": 0.2474227999999954,
            "durationTicks": 96,
            "midi": 31,
            "name": "G1",
            "ticks": 56280,
            "time": 113.9618545,
            "velocity": 0.6299212598425197
          },
          {
            "duration": 0.2474227999999954,
            "durationTicks": 96,
            "midi": 33,
            "name": "A1",
            "ticks": 56400,
            "time": 114.271133,
            "velocity": 0.6299212598425197
          },
          {
            "duration": 0.2474228000000096,
            "durationTicks": 96,
            "midi": 35,
            "name": "B1",
            "ticks": 56520,
            "time": 114.5804115,
            "velocity": 0.6299212598425197
          },
          {
            "duration": 0.2474227999999954,
            "durationTicks": 96,
            "midi": 36,
            "name": "C2",
            "ticks": 56640,
            "time": 114.88969,
            "velocity": 0.6299212598425197
          },
          {
            "duration": 0.2474227999999954,
            "durationTicks": 96,
            "midi": 38,
            "name": "D2",
            "ticks": 56760,
            "time": 115.1989685,
            "velocity": 0.6299212598425197
          },
          {
            "duration": 0.2474227999999954,
            "durationTicks": 96,
            "midi": 40,
            "name": "E2",
            "ticks": 56880,
            "time": 115.508247,
            "velocity": 0.6299212598425197
          },
          {
            "duration": 0.2474227999999954,
            "durationTicks": 96,
            "midi": 36,
            "name": "C2",
            "ticks": 57000,
            "time": 115.8175255,
            "velocity": 0.6299212598425197
          },
          {
            "duration": 0.2474228000000096,
            "durationTicks": 96,
            "midi": 38,
            "name": "D2",
            "ticks": 57120,
            "time": 116.12680399999999,
            "velocity": 0.6299212598425197
          },
          {
            "duration": 0.2474228000000096,
            "durationTicks": 96,
            "midi": 38,
            "name": "D2",
            "ticks": 57240,
            "time": 116.4360825,
            "velocity": 0.6299212598425197
          },
          {
            "duration": 0.2474227999999954,
            "durationTicks": 96,
            "midi": 38,
            "name": "D2",
            "ticks": 57360,
            "time": 116.745361,
            "velocity": 0.6299212598425197
          },
          {
            "duration": 0.2474227999999954,
            "durationTicks": 96,
            "midi": 38,
            "name": "D2",
            "ticks": 57480,
            "time": 117.05463950000001,
            "velocity": 0.6299212598425197
          },
          {
            "duration": 0.2474227999999954,
            "durationTicks": 96,
            "midi": 38,
            "name": "D2",
            "ticks": 57600,
            "time": 117.363918,
            "velocity": 0.6299212598425197
          },
          {
            "duration": 0.2474227999999954,
            "durationTicks": 96,
            "midi": 38,
            "name": "D2",
            "ticks": 57720,
            "time": 117.6731965,
            "velocity": 0.6299212598425197
          },
          {
            "duration": 0.2474228000000096,
            "durationTicks": 96,
            "midi": 38,
            "name": "D2",
            "ticks": 57840,
            "time": 117.982475,
            "velocity": 0.6299212598425197
          },
          {
            "duration": 0.2474227999999954,
            "durationTicks": 96,
            "midi": 38,
            "name": "D2",
            "ticks": 57960,
            "time": 118.2917535,
            "velocity": 0.6299212598425197
          },
          {
            "duration": 0.2474227999999954,
            "durationTicks": 96,
            "midi": 31,
            "name": "G1",
            "ticks": 58080,
            "time": 118.601032,
            "velocity": 0.6299212598425197
          },
          {
            "duration": 0.2474228000000096,
            "durationTicks": 96,
            "midi": 31,
            "name": "G1",
            "ticks": 58200,
            "time": 118.9103105,
            "velocity": 0.6299212598425197
          },
          {
            "duration": 0.2474227999999954,
            "durationTicks": 96,
            "midi": 33,
            "name": "A1",
            "ticks": 58320,
            "time": 119.219589,
            "velocity": 0.6299212598425197
          },
          {
            "duration": 0.2474227999999954,
            "durationTicks": 96,
            "midi": 35,
            "name": "B1",
            "ticks": 58440,
            "time": 119.5288675,
            "velocity": 0.6299212598425197
          },
          {
            "duration": 0.2474228000000096,
            "durationTicks": 96,
            "midi": 36,
            "name": "C2",
            "ticks": 58560,
            "time": 119.838146,
            "velocity": 0.6299212598425197
          },
          {
            "duration": 0.2474227999999954,
            "durationTicks": 96,
            "midi": 38,
            "name": "D2",
            "ticks": 58680,
            "time": 120.1474245,
            "velocity": 0.6299212598425197
          },
          {
            "duration": 0.2474227999999954,
            "durationTicks": 96,
            "midi": 40,
            "name": "E2",
            "ticks": 58800,
            "time": 120.456703,
            "velocity": 0.6299212598425197
          },
          {
            "duration": 0.2474228000000096,
            "durationTicks": 96,
            "midi": 36,
            "name": "C2",
            "ticks": 58920,
            "time": 120.7659815,
            "velocity": 0.6299212598425197
          },
          {
            "duration": 0.2474227999999954,
            "durationTicks": 96,
            "midi": 38,
            "name": "D2",
            "ticks": 59040,
            "time": 121.07526,
            "velocity": 0.6299212598425197
          },
          {
            "duration": 0.2474227999999954,
            "durationTicks": 96,
            "midi": 38,
            "name": "D2",
            "ticks": 59160,
            "time": 121.3845385,
            "velocity": 0.6299212598425197
          },
          {
            "duration": 0.2474228000000096,
            "durationTicks": 96,
            "midi": 38,
            "name": "D2",
            "ticks": 59280,
            "time": 121.693817,
            "velocity": 0.6299212598425197
          },
          {
            "duration": 0.2474227999999954,
            "durationTicks": 96,
            "midi": 38,
            "name": "D2",
            "ticks": 59400,
            "time": 122.0030955,
            "velocity": 0.6299212598425197
          },
          {
            "duration": 0.2474227999999954,
            "durationTicks": 96,
            "midi": 38,
            "name": "D2",
            "ticks": 59520,
            "time": 122.312374,
            "velocity": 0.6299212598425197
          },
          {
            "duration": 0.2474227999999954,
            "durationTicks": 96,
            "midi": 38,
            "name": "D2",
            "ticks": 59640,
            "time": 122.6216525,
            "velocity": 0.6299212598425197
          },
          {
            "duration": 0.2474227999999954,
            "durationTicks": 96,
            "midi": 38,
            "name": "D2",
            "ticks": 59760,
            "time": 122.930931,
            "velocity": 0.6299212598425197
          },
          {
            "duration": 0.2474227999999954,
            "durationTicks": 96,
            "midi": 38,
            "name": "D2",
            "ticks": 59880,
            "time": 123.2402095,
            "velocity": 0.6299212598425197
          },
          {
            "duration": 0.2474228000000096,
            "durationTicks": 96,
            "midi": 31,
            "name": "G1",
            "ticks": 60000,
            "time": 123.549488,
            "velocity": 0.6299212598425197
          },
          {
            "duration": 0.2474227999999954,
            "durationTicks": 96,
            "midi": 31,
            "name": "G1",
            "ticks": 60120,
            "time": 123.8587665,
            "velocity": 0.6299212598425197
          },
          {
            "duration": 0.2474227999999954,
            "durationTicks": 96,
            "midi": 33,
            "name": "A1",
            "ticks": 60240,
            "time": 124.168045,
            "velocity": 0.6299212598425197
          },
          {
            "duration": 0.2474227999999954,
            "durationTicks": 96,
            "midi": 35,
            "name": "B1",
            "ticks": 60360,
            "time": 124.4773235,
            "velocity": 0.6299212598425197
          },
          {
            "duration": 0.2474227999999954,
            "durationTicks": 96,
            "midi": 36,
            "name": "C2",
            "ticks": 60480,
            "time": 124.786602,
            "velocity": 0.6299212598425197
          },
          {
            "duration": 0.2474228000000096,
            "durationTicks": 96,
            "midi": 38,
            "name": "D2",
            "ticks": 60600,
            "time": 125.09588049999999,
            "velocity": 0.6299212598425197
          },
          {
            "duration": 0.2474228000000096,
            "durationTicks": 96,
            "midi": 40,
            "name": "E2",
            "ticks": 60720,
            "time": 125.405159,
            "velocity": 0.6299212598425197
          },
          {
            "duration": 0.2474227999999954,
            "durationTicks": 96,
            "midi": 36,
            "name": "C2",
            "ticks": 60840,
            "time": 125.7144375,
            "velocity": 0.6299212598425197
          },
          {
            "duration": 0.2474227999999954,
            "durationTicks": 96,
            "midi": 38,
            "name": "D2",
            "ticks": 60960,
            "time": 126.02371600000001,
            "velocity": 0.6299212598425197
          },
          {
            "duration": 0.2474227999999954,
            "durationTicks": 96,
            "midi": 38,
            "name": "D2",
            "ticks": 61080,
            "time": 126.3329945,
            "velocity": 0.6299212598425197
          },
          {
            "duration": 0.2474227999999954,
            "durationTicks": 96,
            "midi": 38,
            "name": "D2",
            "ticks": 61200,
            "time": 126.642273,
            "velocity": 0.6299212598425197
          },
          {
            "duration": 0.2474228000000096,
            "durationTicks": 96,
            "midi": 38,
            "name": "D2",
            "ticks": 61320,
            "time": 126.9515515,
            "velocity": 0.6299212598425197
          },
          {
            "duration": 0.2474228000000096,
            "durationTicks": 96,
            "midi": 38,
            "name": "D2",
            "ticks": 61440,
            "time": 127.26083,
            "velocity": 0.6299212598425197
          },
          {
            "duration": 0.2474227999999954,
            "durationTicks": 96,
            "midi": 38,
            "name": "D2",
            "ticks": 61560,
            "time": 127.5701085,
            "velocity": 0.6299212598425197
          },
          {
            "duration": 0.24742279999998118,
            "durationTicks": 96,
            "midi": 38,
            "name": "D2",
            "ticks": 61680,
            "time": 127.87938700000001,
            "velocity": 0.6299212598425197
          },
          {
            "duration": 0.24742279999998118,
            "durationTicks": 96,
            "midi": 38,
            "name": "D2",
            "ticks": 61800,
            "time": 128.1886655,
            "velocity": 0.6299212598425197
          },
          {
            "duration": 0.2474228000000096,
            "durationTicks": 96,
            "midi": 38,
            "name": "D2",
            "ticks": 61920,
            "time": 128.497944,
            "velocity": 0.6299212598425197
          },
          {
            "duration": 0.2474228000000096,
            "durationTicks": 96,
            "midi": 33,
            "name": "A1",
            "ticks": 62040,
            "time": 128.8072225,
            "velocity": 0.6299212598425197
          },
          {
            "duration": 0.2474228000000096,
            "durationTicks": 96,
            "midi": 38,
            "name": "D2",
            "ticks": 62160,
            "time": 129.116501,
            "velocity": 0.6299212598425197
          },
          {
            "duration": 0.2474228000000096,
            "durationTicks": 96,
            "midi": 33,
            "name": "A1",
            "ticks": 62280,
            "time": 129.4257795,
            "velocity": 0.6299212598425197
          },
          {
            "duration": 0.24742279999998118,
            "durationTicks": 96,
            "midi": 38,
            "name": "D2",
            "ticks": 62400,
            "time": 129.735058,
            "velocity": 0.6299212598425197
          },
          {
            "duration": 0.2474228000000096,
            "durationTicks": 96,
            "midi": 33,
            "name": "A1",
            "ticks": 62520,
            "time": 130.0443365,
            "velocity": 0.6299212598425197
          },
          {
            "duration": 0.2474228000000096,
            "durationTicks": 96,
            "midi": 38,
            "name": "D2",
            "ticks": 62640,
            "time": 130.353615,
            "velocity": 0.6299212598425197
          },
          {
            "duration": 0.2474228000000096,
            "durationTicks": 96,
            "midi": 33,
            "name": "A1",
            "ticks": 62760,
            "time": 130.6628935,
            "velocity": 0.6299212598425197
          },
          {
            "duration": 1.107691200000005,
            "durationTicks": 576,
            "midi": 45,
            "name": "A2",
            "ticks": 62880,
            "time": 130.972172,
            "velocity": 0.6299212598425197
          },
          {
            "duration": 1.107691200000005,
            "durationTicks": 576,
            "midi": 45,
            "name": "A2",
            "ticks": 62880,
            "time": 130.972172,
            "velocity": 0.6299212598425197
          },
          {
            "duration": 1.107691200000005,
            "durationTicks": 576,
            "midi": 43,
            "name": "G2",
            "ticks": 63600,
            "time": 132.356786,
            "velocity": 0.6299212598425197
          },
          {
            "duration": 1.107691200000005,
            "durationTicks": 576,
            "midi": 42,
            "name": "F#2",
            "ticks": 64320,
            "time": 133.7414,
            "velocity": 0.6299212598425197
          },
          {
            "duration": 1.107691200000005,
            "durationTicks": 576,
            "midi": 41,
            "name": "F2",
            "ticks": 65040,
            "time": 135.126014,
            "velocity": 0.6299212598425197
          },
          {
            "duration": 1.107691200000005,
            "durationTicks": 576,
            "midi": 40,
            "name": "E2",
            "ticks": 65760,
            "time": 136.510628,
            "velocity": 0.6299212598425197
          },
          {
            "duration": 1.107691200000005,
            "durationTicks": 576,
            "midi": 43,
            "name": "G2",
            "ticks": 66480,
            "time": 137.895242,
            "velocity": 0.6299212598425197
          },
          {
            "duration": 1.107691200000005,
            "durationTicks": 576,
            "midi": 42,
            "name": "F#2",
            "ticks": 67200,
            "time": 139.279856,
            "velocity": 0.6299212598425197
          },
          {
            "duration": 0.3692303999999922,
            "durationTicks": 192,
            "midi": 41,
            "name": "F2",
            "ticks": 67920,
            "time": 140.66447,
            "velocity": 0.6299212598425197
          },
          {
            "duration": 0.3692303999999922,
            "durationTicks": 192,
            "midi": 36,
            "name": "C2",
            "ticks": 68160,
            "time": 141.126008,
            "velocity": 0.6299212598425197
          },
          {
            "duration": 0.3692303999999922,
            "durationTicks": 192,
            "midi": 41,
            "name": "F2",
            "ticks": 68400,
            "time": 141.587546,
            "velocity": 0.6299212598425197
          },
          {
            "duration": 0.5538456000000167,
            "durationTicks": 288,
            "midi": 36,
            "name": "C2",
            "ticks": 68640,
            "time": 142.049084,
            "velocity": 0.6299212598425197
          },
          {
            "duration": 0.1846151999999961,
            "durationTicks": 96,
            "midi": 36,
            "name": "C2",
            "ticks": 69000,
            "time": 142.741391,
            "velocity": 0.6299212598425197
          },
          {
            "duration": 0.3692303999999922,
            "durationTicks": 192,
            "midi": 38,
            "name": "D2",
            "ticks": 69120,
            "time": 142.97216,
            "velocity": 0.6299212598425197
          },
          {
            "duration": 1.107691200000005,
            "durationTicks": 576,
            "midi": 40,
            "name": "E2",
            "ticks": 69360,
            "time": 143.433698,
            "velocity": 0.6299212598425197
          },
          {
            "duration": 1.107691200000005,
            "durationTicks": 576,
            "midi": 43,
            "name": "G2",
            "ticks": 70080,
            "time": 144.818312,
            "velocity": 0.6299212598425197
          },
          {
            "duration": 1.107691200000005,
            "durationTicks": 576,
            "midi": 42,
            "name": "F#2",
            "ticks": 70800,
            "time": 146.202926,
            "velocity": 0.6299212598425197
          },
          {
            "duration": 1.107691200000005,
            "durationTicks": 576,
            "midi": 41,
            "name": "F2",
            "ticks": 71520,
            "time": 147.58754,
            "velocity": 0.6299212598425197
          },
          {
            "duration": 1.107691200000005,
            "durationTicks": 576,
            "midi": 40,
            "name": "E2",
            "ticks": 72240,
            "time": 148.972154,
            "velocity": 0.6299212598425197
          },
          {
            "duration": 1.107691200000005,
            "durationTicks": 576,
            "midi": 43,
            "name": "G2",
            "ticks": 72960,
            "time": 150.356768,
            "velocity": 0.6299212598425197
          },
          {
            "duration": 0.3692304000000206,
            "durationTicks": 192,
            "midi": 42,
            "name": "F#2",
            "ticks": 73680,
            "time": 151.741382,
            "velocity": 0.6299212598425197
          },
          {
            "duration": 0.3692303999999922,
            "durationTicks": 192,
            "midi": 45,
            "name": "A2",
            "ticks": 73920,
            "time": 152.20292,
            "velocity": 0.6299212598425197
          },
          {
            "duration": 0.3692303999999922,
            "durationTicks": 192,
            "midi": 42,
            "name": "F#2",
            "ticks": 74160,
            "time": 152.664458,
            "velocity": 0.6299212598425197
          },
          {
            "duration": 0.5538456000000167,
            "durationTicks": 288,
            "midi": 45,
            "name": "A2",
            "ticks": 74400,
            "time": 153.125996,
            "velocity": 0.6299212598425197
          },
          {
            "duration": 0.18461520000002452,
            "durationTicks": 96,
            "midi": 42,
            "name": "F#2",
            "ticks": 74760,
            "time": 153.818303,
            "velocity": 0.6299212598425197
          },
          {
            "duration": 0.3692303999999922,
            "durationTicks": 192,
            "midi": 45,
            "name": "A2",
            "ticks": 74880,
            "time": 154.049072,
            "velocity": 0.6299212598425197
          },
          {
            "duration": 0.4948455999999908,
            "durationTicks": 192,
            "midi": 38,
            "name": "D2",
            "ticks": 75120,
            "time": 154.51060999999999,
            "velocity": 0.6299212598425197
          },
          {
            "duration": 0.4948455999999908,
            "durationTicks": 192,
            "midi": 26,
            "name": "D1",
            "ticks": 75360,
            "time": 155.129167,
            "velocity": 0.6299212598425197
          },
          {
            "duration": 0.4948455999999908,
            "durationTicks": 192,
            "midi": 38,
            "name": "D2",
            "ticks": 75360,
            "time": 155.129167,
            "velocity": 0.6299212598425197
          },
          {
            "duration": 0.4948456000000192,
            "durationTicks": 192,
            "midi": 26,
            "name": "D1",
            "ticks": 75600,
            "time": 155.74772399999998,
            "velocity": 0.6299212598425197
          },
          {
            "duration": 0.4948456000000192,
            "durationTicks": 192,
            "midi": 38,
            "name": "D2",
            "ticks": 75600,
            "time": 155.74772399999998,
            "velocity": 0.6299212598425197
          },
          {
            "duration": 0.4948455999999908,
            "durationTicks": 192,
            "midi": 26,
            "name": "D1",
            "ticks": 75840,
            "time": 156.366281,
            "velocity": 0.6299212598425197
          },
          {
            "duration": 0.4948455999999908,
            "durationTicks": 192,
            "midi": 38,
            "name": "D2",
            "ticks": 75840,
            "time": 156.366281,
            "velocity": 0.6299212598425197
          },
          {
            "duration": 0.24742279999998118,
            "durationTicks": 96,
            "midi": 31,
            "name": "G1",
            "ticks": 76080,
            "time": 156.984838,
            "velocity": 0.6299212598425197
          },
          {
            "duration": 0.2474228000000096,
            "durationTicks": 96,
            "midi": 31,
            "name": "G1",
            "ticks": 76200,
            "time": 157.29411649999997,
            "velocity": 0.6299212598425197
          },
          {
            "duration": 0.2474228000000096,
            "durationTicks": 96,
            "midi": 33,
            "name": "A1",
            "ticks": 76320,
            "time": 157.60339499999998,
            "velocity": 0.6299212598425197
          },
          {
            "duration": 0.2474228000000096,
            "durationTicks": 96,
            "midi": 35,
            "name": "B1",
            "ticks": 76440,
            "time": 157.91267349999998,
            "velocity": 0.6299212598425197
          },
          {
            "duration": 0.2474228000000096,
            "durationTicks": 96,
            "midi": 36,
            "name": "C2",
            "ticks": 76560,
            "time": 158.221952,
            "velocity": 0.6299212598425197
          },
          {
            "duration": 0.24742279999998118,
            "durationTicks": 96,
            "midi": 38,
            "name": "D2",
            "ticks": 76680,
            "time": 158.5312305,
            "velocity": 0.6299212598425197
          },
          {
            "duration": 0.24742279999998118,
            "durationTicks": 96,
            "midi": 40,
            "name": "E2",
            "ticks": 76800,
            "time": 158.840509,
            "velocity": 0.6299212598425197
          },
          {
            "duration": 0.2474228000000096,
            "durationTicks": 96,
            "midi": 36,
            "name": "C2",
            "ticks": 76920,
            "time": 159.14978749999997,
            "velocity": 0.6299212598425197
          },
          {
            "duration": 0.2474228000000096,
            "durationTicks": 96,
            "midi": 38,
            "name": "D2",
            "ticks": 77040,
            "time": 159.45906599999998,
            "velocity": 0.6299212598425197
          },
          {
            "duration": 0.2474228000000096,
            "durationTicks": 96,
            "midi": 38,
            "name": "D2",
            "ticks": 77160,
            "time": 159.76834449999998,
            "velocity": 0.6299212598425197
          },
          {
            "duration": 0.2474228000000096,
            "durationTicks": 96,
            "midi": 38,
            "name": "D2",
            "ticks": 77280,
            "time": 160.077623,
            "velocity": 0.6299212598425197
          },
          {
            "duration": 0.24742279999998118,
            "durationTicks": 96,
            "midi": 38,
            "name": "D2",
            "ticks": 77400,
            "time": 160.3869015,
            "velocity": 0.6299212598425197
          },
          {
            "duration": 0.24742279999998118,
            "durationTicks": 96,
            "midi": 38,
            "name": "D2",
            "ticks": 77520,
            "time": 160.69618,
            "velocity": 0.6299212598425197
          },
          {
            "duration": 0.2474228000000096,
            "durationTicks": 96,
            "midi": 38,
            "name": "D2",
            "ticks": 77640,
            "time": 161.00545849999997,
            "velocity": 0.6299212598425197
          },
          {
            "duration": 0.2474228000000096,
            "durationTicks": 96,
            "midi": 38,
            "name": "D2",
            "ticks": 77760,
            "time": 161.31473699999998,
            "velocity": 0.6299212598425197
          },
          {
            "duration": 0.2474228000000096,
            "durationTicks": 96,
            "midi": 38,
            "name": "D2",
            "ticks": 77880,
            "time": 161.62401549999998,
            "velocity": 0.6299212598425197
          },
          {
            "duration": 0.2474228000000096,
            "durationTicks": 96,
            "midi": 31,
            "name": "G1",
            "ticks": 78000,
            "time": 161.933294,
            "velocity": 0.6299212598425197
          },
          {
            "duration": 0.24742279999998118,
            "durationTicks": 96,
            "midi": 31,
            "name": "G1",
            "ticks": 78120,
            "time": 162.2425725,
            "velocity": 0.6299212598425197
          },
          {
            "duration": 0.24742279999998118,
            "durationTicks": 96,
            "midi": 33,
            "name": "A1",
            "ticks": 78240,
            "time": 162.551851,
            "velocity": 0.6299212598425197
          },
          {
            "duration": 0.2474228000000096,
            "durationTicks": 96,
            "midi": 35,
            "name": "B1",
            "ticks": 78360,
            "time": 162.86112949999998,
            "velocity": 0.6299212598425197
          },
          {
            "duration": 0.2474228000000096,
            "durationTicks": 96,
            "midi": 36,
            "name": "C2",
            "ticks": 78480,
            "time": 163.17040799999998,
            "velocity": 0.6299212598425197
          },
          {
            "duration": 0.2474228000000096,
            "durationTicks": 96,
            "midi": 38,
            "name": "D2",
            "ticks": 78600,
            "time": 163.47968649999999,
            "velocity": 0.6299212598425197
          },
          {
            "duration": 0.2474228000000096,
            "durationTicks": 96,
            "midi": 40,
            "name": "E2",
            "ticks": 78720,
            "time": 163.788965,
            "velocity": 0.6299212598425197
          },
          {
            "duration": 0.24742279999998118,
            "durationTicks": 96,
            "midi": 36,
            "name": "C2",
            "ticks": 78840,
            "time": 164.0982435,
            "velocity": 0.6299212598425197
          },
          {
            "duration": 0.2474228000000096,
            "durationTicks": 96,
            "midi": 38,
            "name": "D2",
            "ticks": 78960,
            "time": 164.40752199999997,
            "velocity": 0.6299212598425197
          },
          {
            "duration": 0.2474228000000096,
            "durationTicks": 96,
            "midi": 38,
            "name": "D2",
            "ticks": 79080,
            "time": 164.71680049999998,
            "velocity": 0.6299212598425197
          },
          {
            "duration": 0.2474228000000096,
            "durationTicks": 96,
            "midi": 38,
            "name": "D2",
            "ticks": 79200,
            "time": 165.02607899999998,
            "velocity": 0.6299212598425197
          },
          {
            "duration": 0.2474228000000096,
            "durationTicks": 96,
            "midi": 38,
            "name": "D2",
            "ticks": 79320,
            "time": 165.3353575,
            "velocity": 0.6299212598425197
          },
          {
            "duration": 0.24742279999998118,
            "durationTicks": 96,
            "midi": 38,
            "name": "D2",
            "ticks": 79440,
            "time": 165.644636,
            "velocity": 0.6299212598425197
          },
          {
            "duration": 0.24742279999998118,
            "durationTicks": 96,
            "midi": 38,
            "name": "D2",
            "ticks": 79560,
            "time": 165.9539145,
            "velocity": 0.6299212598425197
          },
          {
            "duration": 0.24742279999998118,
            "durationTicks": 96,
            "midi": 38,
            "name": "D2",
            "ticks": 79680,
            "time": 166.263193,
            "velocity": 0.6299212598425197
          },
          {
            "duration": 0.2474228000000096,
            "durationTicks": 96,
            "midi": 38,
            "name": "D2",
            "ticks": 79800,
            "time": 166.57247149999998,
            "velocity": 0.6299212598425197
          },
          {
            "duration": 0.2474228000000096,
            "durationTicks": 96,
            "midi": 31,
            "name": "G1",
            "ticks": 79920,
            "time": 166.88174999999998,
            "velocity": 0.6299212598425197
          },
          {
            "duration": 0.2474228000000096,
            "durationTicks": 96,
            "midi": 31,
            "name": "G1",
            "ticks": 80040,
            "time": 167.1910285,
            "velocity": 0.6299212598425197
          },
          {
            "duration": 0.24742279999998118,
            "durationTicks": 96,
            "midi": 33,
            "name": "A1",
            "ticks": 80160,
            "time": 167.500307,
            "velocity": 0.6299212598425197
          },
          {
            "duration": 0.24742279999998118,
            "durationTicks": 96,
            "midi": 35,
            "name": "B1",
            "ticks": 80280,
            "time": 167.8095855,
            "velocity": 0.6299212598425197
          },
          {
            "duration": 0.2474228000000096,
            "durationTicks": 96,
            "midi": 36,
            "name": "C2",
            "ticks": 80400,
            "time": 168.11886399999997,
            "velocity": 0.6299212598425197
          },
          {
            "duration": 0.2474228000000096,
            "durationTicks": 96,
            "midi": 38,
            "name": "D2",
            "ticks": 80520,
            "time": 168.42814249999998,
            "velocity": 0.6299212598425197
          },
          {
            "duration": 0.2474228000000096,
            "durationTicks": 96,
            "midi": 40,
            "name": "E2",
            "ticks": 80640,
            "time": 168.73742099999998,
            "velocity": 0.6299212598425197
          },
          {
            "duration": 0.2474228000000096,
            "durationTicks": 96,
            "midi": 36,
            "name": "C2",
            "ticks": 80760,
            "time": 169.0466995,
            "velocity": 0.6299212598425197
          },
          {
            "duration": 0.24742279999998118,
            "durationTicks": 96,
            "midi": 38,
            "name": "D2",
            "ticks": 80880,
            "time": 169.355978,
            "velocity": 0.6299212598425197
          },
          {
            "duration": 0.24742279999998118,
            "durationTicks": 96,
            "midi": 38,
            "name": "D2",
            "ticks": 81000,
            "time": 169.6652565,
            "velocity": 0.6299212598425197
          },
          {
            "duration": 0.2474228000000096,
            "durationTicks": 96,
            "midi": 38,
            "name": "D2",
            "ticks": 81120,
            "time": 169.97453499999997,
            "velocity": 0.6299212598425197
          },
          {
            "duration": 0.2474228000000096,
            "durationTicks": 96,
            "midi": 38,
            "name": "D2",
            "ticks": 81240,
            "time": 170.28381349999998,
            "velocity": 0.6299212598425197
          },
          {
            "duration": 0.2474228000000096,
            "durationTicks": 96,
            "midi": 38,
            "name": "D2",
            "ticks": 81360,
            "time": 170.59309199999998,
            "velocity": 0.6299212598425197
          },
          {
            "duration": 0.2474228000000096,
            "durationTicks": 96,
            "midi": 38,
            "name": "D2",
            "ticks": 81480,
            "time": 170.9023705,
            "velocity": 0.6299212598425197
          },
          {
            "duration": 0.24742279999998118,
            "durationTicks": 96,
            "midi": 38,
            "name": "D2",
            "ticks": 81600,
            "time": 171.211649,
            "velocity": 0.6299212598425197
          },
          {
            "duration": 0.2474228000000096,
            "durationTicks": 96,
            "midi": 38,
            "name": "D2",
            "ticks": 81720,
            "time": 171.52092749999997,
            "velocity": 0.6299212598425197
          },
          {
            "duration": 0.2474228000000096,
            "durationTicks": 96,
            "midi": 38,
            "name": "D2",
            "ticks": 81840,
            "time": 171.83020599999998,
            "velocity": 0.6141732283464567
          },
          {
            "duration": 0.2474228000000096,
            "durationTicks": 96,
            "midi": 42,
            "name": "F#2",
            "ticks": 81960,
            "time": 172.13948449999998,
            "velocity": 0.7874015748031497
          },
          {
            "duration": 0.2474228000000096,
            "durationTicks": 96,
            "midi": 45,
            "name": "A2",
            "ticks": 82080,
            "time": 172.44876299999999,
            "velocity": 0.7874015748031497
          },
          {
            "duration": 0.24742279999998118,
            "durationTicks": 96,
            "midi": 42,
            "name": "F#2",
            "ticks": 82200,
            "time": 172.7580415,
            "velocity": 0.7874015748031497
          },
          {
            "duration": 0.24742279999998118,
            "durationTicks": 96,
            "midi": 38,
            "name": "D2",
            "ticks": 82320,
            "time": 173.06732,
            "velocity": 0.7874015748031497
          },
          {
            "duration": 0.24742279999998118,
            "durationTicks": 96,
            "midi": 42,
            "name": "F#2",
            "ticks": 82440,
            "time": 173.3765985,
            "velocity": 0.7874015748031497
          },
          {
            "duration": 0.2474228000000096,
            "durationTicks": 96,
            "midi": 45,
            "name": "A2",
            "ticks": 82560,
            "time": 173.68587699999998,
            "velocity": 0.7874015748031497
          },
          {
            "duration": 0.2474228000000096,
            "durationTicks": 96,
            "midi": 42,
            "name": "F#2",
            "ticks": 82680,
            "time": 173.99515549999998,
            "velocity": 0.7874015748031497
          },
          {
            "duration": 0.2474228000000096,
            "durationTicks": 96,
            "midi": 33,
            "name": "A1",
            "ticks": 82800,
            "time": 174.304434,
            "velocity": 0.7874015748031497
          },
          {
            "duration": 0.2474228000000096,
            "durationTicks": 96,
            "midi": 37,
            "name": "C#2",
            "ticks": 82920,
            "time": 174.6137125,
            "velocity": 0.7874015748031497
          },
          {
            "duration": 0.24742279999998118,
            "durationTicks": 96,
            "midi": 40,
            "name": "E2",
            "ticks": 83040,
            "time": 174.922991,
            "velocity": 0.7874015748031497
          },
          {
            "duration": 0.2474228000000096,
            "durationTicks": 96,
            "midi": 37,
            "name": "C#2",
            "ticks": 83160,
            "time": 175.23226949999997,
            "velocity": 0.7874015748031497
          },
          {
            "duration": 0.2474228000000096,
            "durationTicks": 96,
            "midi": 33,
            "name": "A1",
            "ticks": 83280,
            "time": 175.54154799999998,
            "velocity": 0.7874015748031497
          },
          {
            "duration": 0.2474228000000096,
            "durationTicks": 96,
            "midi": 37,
            "name": "C#2",
            "ticks": 83400,
            "time": 175.85082649999998,
            "velocity": 0.7874015748031497
          },
          {
            "duration": 0.2474228000000096,
            "durationTicks": 96,
            "midi": 40,
            "name": "E2",
            "ticks": 83520,
            "time": 176.160105,
            "velocity": 0.7874015748031497
          },
          {
            "duration": 0.24742279999998118,
            "durationTicks": 96,
            "midi": 37,
            "name": "C#2",
            "ticks": 83640,
            "time": 176.4693835,
            "velocity": 0.7874015748031497
          },
          {
            "duration": 0.24742279999998118,
            "durationTicks": 96,
            "midi": 31,
            "name": "G1",
            "ticks": 83760,
            "time": 176.778662,
            "velocity": 0.6299212598425197
          },
          {
            "duration": 0.24742279999998118,
            "durationTicks": 96,
            "midi": 31,
            "name": "G1",
            "ticks": 83880,
            "time": 177.0879405,
            "velocity": 0.6299212598425197
          },
          {
            "duration": 0.2474228000000096,
            "durationTicks": 96,
            "midi": 33,
            "name": "A1",
            "ticks": 84000,
            "time": 177.39721899999998,
            "velocity": 0.6299212598425197
          },
          {
            "duration": 0.2474228000000096,
            "durationTicks": 96,
            "midi": 35,
            "name": "B1",
            "ticks": 84120,
            "time": 177.70649749999998,
            "velocity": 0.6299212598425197
          },
          {
            "duration": 0.2474228000000096,
            "durationTicks": 96,
            "midi": 36,
            "name": "C2",
            "ticks": 84240,
            "time": 178.015776,
            "velocity": 0.6299212598425197
          },
          {
            "duration": 0.24742279999998118,
            "durationTicks": 96,
            "midi": 38,
            "name": "D2",
            "ticks": 84360,
            "time": 178.3250545,
            "velocity": 0.6299212598425197
          },
          {
            "duration": 0.24742279999998118,
            "durationTicks": 96,
            "midi": 40,
            "name": "E2",
            "ticks": 84480,
            "time": 178.634333,
            "velocity": 0.6299212598425197
          },
          {
            "duration": 0.2474228000000096,
            "durationTicks": 96,
            "midi": 36,
            "name": "C2",
            "ticks": 84600,
            "time": 178.94361149999997,
            "velocity": 0.6299212598425197
          },
          {
            "duration": 0.2474228000000096,
            "durationTicks": 96,
            "midi": 38,
            "name": "D2",
            "ticks": 84720,
            "time": 179.25288999999998,
            "velocity": 0.6299212598425197
          },
          {
            "duration": 0.2474228000000096,
            "durationTicks": 96,
            "midi": 38,
            "name": "D2",
            "ticks": 84840,
            "time": 179.56216849999998,
            "velocity": 0.6299212598425197
          },
          {
            "duration": 0.24742279999998118,
            "durationTicks": 96,
            "midi": 38,
            "name": "D2",
            "ticks": 84960,
            "time": 179.871447,
            "velocity": 0.6299212598425197
          },
          {
            "duration": 0.24742279999998118,
            "durationTicks": 96,
            "midi": 38,
            "name": "D2",
            "ticks": 85080,
            "time": 180.1807255,
            "velocity": 0.6299212598425197
          },
          {
            "duration": 0.24742279999998118,
            "durationTicks": 96,
            "midi": 38,
            "name": "D2",
            "ticks": 85200,
            "time": 180.490004,
            "velocity": 0.6299212598425197
          },
          {
            "duration": 0.2474228000000096,
            "durationTicks": 96,
            "midi": 38,
            "name": "D2",
            "ticks": 85320,
            "time": 180.79928249999998,
            "velocity": 0.6299212598425197
          },
          {
            "duration": 0.2474228000000096,
            "durationTicks": 96,
            "midi": 38,
            "name": "D2",
            "ticks": 85440,
            "time": 181.10856099999998,
            "velocity": 0.6299212598425197
          },
          {
            "duration": 0.2474228000000096,
            "durationTicks": 96,
            "midi": 38,
            "name": "D2",
            "ticks": 85560,
            "time": 181.41783949999999,
            "velocity": 0.6299212598425197
          },
          {
            "duration": 0.2474228000000096,
            "durationTicks": 96,
            "midi": 31,
            "name": "G1",
            "ticks": 85680,
            "time": 181.727118,
            "velocity": 0.6299212598425197
          },
          {
            "duration": 0.24742279999998118,
            "durationTicks": 96,
            "midi": 31,
            "name": "G1",
            "ticks": 85800,
            "time": 182.0363965,
            "velocity": 0.6299212598425197
          },
          {
            "duration": 0.2474228000000096,
            "durationTicks": 96,
            "midi": 33,
            "name": "A1",
            "ticks": 85920,
            "time": 182.34567499999997,
            "velocity": 0.6299212598425197
          },
          {
            "duration": 0.2474228000000096,
            "durationTicks": 96,
            "midi": 35,
            "name": "B1",
            "ticks": 86040,
            "time": 182.65495349999998,
            "velocity": 0.6299212598425197
          },
          {
            "duration": 0.2474228000000096,
            "durationTicks": 96,
            "midi": 36,
            "name": "C2",
            "ticks": 86160,
            "time": 182.96423199999998,
            "velocity": 0.6299212598425197
          },
          {
            "duration": 0.2474228000000096,
            "durationTicks": 96,
            "midi": 38,
            "name": "D2",
            "ticks": 86280,
            "time": 183.2735105,
            "velocity": 0.6299212598425197
          },
          {
            "duration": 0.24742279999998118,
            "durationTicks": 96,
            "midi": 40,
            "name": "E2",
            "ticks": 86400,
            "time": 183.582789,
            "velocity": 0.6299212598425197
          },
          {
            "duration": 0.24742279999998118,
            "durationTicks": 96,
            "midi": 36,
            "name": "C2",
            "ticks": 86520,
            "time": 183.8920675,
            "velocity": 0.6299212598425197
          },
          {
            "duration": 0.24742279999998118,
            "durationTicks": 96,
            "midi": 38,
            "name": "D2",
            "ticks": 86640,
            "time": 184.201346,
            "velocity": 0.5984251968503937
          },
          {
            "duration": 0.2474228000000096,
            "durationTicks": 96,
            "midi": 38,
            "name": "D2",
            "ticks": 86760,
            "time": 184.51062449999998,
            "velocity": 0.5984251968503937
          },
          {
            "duration": 0.2474228000000096,
            "durationTicks": 96,
            "midi": 38,
            "name": "D2",
            "ticks": 86880,
            "time": 184.81990299999998,
            "velocity": 0.5984251968503937
          },
          {
            "duration": 0.2474228000000096,
            "durationTicks": 96,
            "midi": 38,
            "name": "D2",
            "ticks": 87000,
            "time": 185.1291815,
            "velocity": 0.5984251968503937
          },
          {
            "duration": 0.2474228000000096,
            "durationTicks": 96,
            "midi": 38,
            "name": "D2",
            "ticks": 87120,
            "time": 185.43846,
            "velocity": 0.5984251968503937
          },
          {
            "duration": 0.24742279999998118,
            "durationTicks": 96,
            "midi": 38,
            "name": "D2",
            "ticks": 87240,
            "time": 185.7477385,
            "velocity": 0.5984251968503937
          },
          {
            "duration": 0.2474228000000096,
            "durationTicks": 96,
            "midi": 38,
            "name": "D2",
            "ticks": 87360,
            "time": 186.05701699999997,
            "velocity": 0.5984251968503937
          },
          {
            "duration": 0.2474228000000096,
            "durationTicks": 96,
            "midi": 38,
            "name": "D2",
            "ticks": 87480,
            "time": 186.36629549999998,
            "velocity": 0.5984251968503937
          },
          {
            "duration": 0.2474228000000096,
            "durationTicks": 96,
            "midi": 31,
            "name": "G1",
            "ticks": 87600,
            "time": 186.67557399999998,
            "velocity": 0.5354330708661418
          },
          {
            "duration": 0.24742279999998118,
            "durationTicks": 96,
            "midi": 31,
            "name": "G1",
            "ticks": 87720,
            "time": 186.9848525,
            "velocity": 0.5354330708661418
          },
          {
            "duration": 0.24742279999998118,
            "durationTicks": 96,
            "midi": 33,
            "name": "A1",
            "ticks": 87840,
            "time": 187.294131,
            "velocity": 0.5354330708661418
          },
          {
            "duration": 0.24742279999998118,
            "durationTicks": 96,
            "midi": 35,
            "name": "B1",
            "ticks": 87960,
            "time": 187.6034095,
            "velocity": 0.5354330708661418
          },
          {
            "duration": 0.24742279999998118,
            "durationTicks": 96,
            "midi": 36,
            "name": "C2",
            "ticks": 88080,
            "time": 187.912688,
            "velocity": 0.5354330708661418
          },
          {
            "duration": 0.2474228000000096,
            "durationTicks": 96,
            "midi": 38,
            "name": "D2",
            "ticks": 88200,
            "time": 188.22196649999998,
            "velocity": 0.5354330708661418
          },
          {
            "duration": 0.2474228000000096,
            "durationTicks": 96,
            "midi": 40,
            "name": "E2",
            "ticks": 88320,
            "time": 188.53124499999998,
            "velocity": 0.5354330708661418
          },
          {
            "duration": 0.2474228000000096,
            "durationTicks": 96,
            "midi": 36,
            "name": "C2",
            "ticks": 88440,
            "time": 188.8405235,
            "velocity": 0.5354330708661418
          },
          {
            "duration": 0.2474228000000096,
            "durationTicks": 96,
            "midi": 38,
            "name": "D2",
            "ticks": 88560,
            "time": 189.149802,
            "velocity": 0.47244094488188976
          },
          {
            "duration": 0.2474228000000096,
            "durationTicks": 96,
            "midi": 38,
            "name": "D2",
            "ticks": 88680,
            "time": 189.45908049999997,
            "velocity": 0.47244094488188976
          },
          {
            "duration": 0.2474228000000096,
            "durationTicks": 96,
            "midi": 38,
            "name": "D2",
            "ticks": 88800,
            "time": 189.76835899999998,
            "velocity": 0.47244094488188976
          },
          {
            "duration": 0.2474228000000096,
            "durationTicks": 96,
            "midi": 38,
            "name": "D2",
            "ticks": 88920,
            "time": 190.07763749999998,
            "velocity": 0.47244094488188976
          },
          {
            "duration": 0.2474228000000096,
            "durationTicks": 96,
            "midi": 38,
            "name": "D2",
            "ticks": 89040,
            "time": 190.38691599999999,
            "velocity": 0.47244094488188976
          },
          {
            "duration": 0.24742279999998118,
            "durationTicks": 96,
            "midi": 38,
            "name": "D2",
            "ticks": 89160,
            "time": 190.6961945,
            "velocity": 0.47244094488188976
          },
          {
            "duration": 0.24742279999998118,
            "durationTicks": 96,
            "midi": 38,
            "name": "D2",
            "ticks": 89280,
            "time": 191.005473,
            "velocity": 0.47244094488188976
          },
          {
            "duration": 0.24742279999998118,
            "durationTicks": 96,
            "midi": 38,
            "name": "D2",
            "ticks": 89400,
            "time": 191.3147515,
            "velocity": 0.47244094488188976
          },
          {
            "duration": 0.24742279999998118,
            "durationTicks": 96,
            "midi": 38,
            "name": "D2",
            "ticks": 89520,
            "time": 191.62403,
            "velocity": 0.3779527559055118
          },
          {
            "duration": 0.2474228000000096,
            "durationTicks": 96,
            "midi": 42,
            "name": "F#2",
            "ticks": 89640,
            "time": 191.93330849999998,
            "velocity": 0.5511811023622047
          },
          {
            "duration": 0.2474228000000096,
            "durationTicks": 96,
            "midi": 45,
            "name": "A2",
            "ticks": 89760,
            "time": 192.242587,
            "velocity": 0.5511811023622047
          },
          {
            "duration": 0.2474228000000096,
            "durationTicks": 96,
            "midi": 42,
            "name": "F#2",
            "ticks": 89880,
            "time": 192.5518655,
            "velocity": 0.5511811023622047
          },
          {
            "duration": 0.24742279999998118,
            "durationTicks": 96,
            "midi": 38,
            "name": "D2",
            "ticks": 90000,
            "time": 192.861144,
            "velocity": 0.5511811023622047
          },
          {
            "duration": 0.2474228000000096,
            "durationTicks": 96,
            "midi": 42,
            "name": "F#2",
            "ticks": 90120,
            "time": 193.17042249999997,
            "velocity": 0.5511811023622047
          },
          {
            "duration": 0.2474228000000096,
            "durationTicks": 96,
            "midi": 45,
            "name": "A2",
            "ticks": 90240,
            "time": 193.47970099999998,
            "velocity": 0.5511811023622047
          },
          {
            "duration": 0.2474228000000096,
            "durationTicks": 96,
            "midi": 42,
            "name": "F#2",
            "ticks": 90360,
            "time": 193.78897949999998,
            "velocity": 0.5511811023622047
          },
          {
            "duration": 0.2474228000000096,
            "durationTicks": 96,
            "midi": 33,
            "name": "A1",
            "ticks": 90480,
            "time": 194.098258,
            "velocity": 0.5118110236220472
          },
          {
            "duration": 0.24742279999998118,
            "durationTicks": 96,
            "midi": 37,
            "name": "C#2",
            "ticks": 90600,
            "time": 194.4075365,
            "velocity": 0.5118110236220472
          },
          {
            "duration": 0.24742279999998118,
            "durationTicks": 96,
            "midi": 40,
            "name": "E2",
            "ticks": 90720,
            "time": 194.716815,
            "velocity": 0.5118110236220472
          },
          {
            "duration": 0.24742279999998118,
            "durationTicks": 96,
            "midi": 37,
            "name": "C#2",
            "ticks": 90840,
            "time": 195.0260935,
            "velocity": 0.5118110236220472
          },
          {
            "duration": 0.2474228000000096,
            "durationTicks": 96,
            "midi": 33,
            "name": "A1",
            "ticks": 90960,
            "time": 195.33537199999998,
            "velocity": 0.5118110236220472
          },
          {
            "duration": 0.2474228000000096,
            "durationTicks": 96,
            "midi": 37,
            "name": "C#2",
            "ticks": 91080,
            "time": 195.64465049999998,
            "velocity": 0.5118110236220472
          },
          {
            "duration": 0.2474228000000096,
            "durationTicks": 96,
            "midi": 40,
            "name": "E2",
            "ticks": 91200,
            "time": 195.953929,
            "velocity": 0.5118110236220472
          },
          {
            "duration": 0.2474228000000096,
            "durationTicks": 96,
            "midi": 37,
            "name": "C#2",
            "ticks": 91320,
            "time": 196.2632075,
            "velocity": 0.5118110236220472
          },
          {
            "duration": 0.24742280000003802,
            "durationTicks": 96,
            "midi": 31,
            "name": "G1",
            "ticks": 91440,
            "time": 196.57248599999997,
            "velocity": 0.3228346456692913
          },
          {
            "duration": 0.2474228000000096,
            "durationTicks": 96,
            "midi": 31,
            "name": "G1",
            "ticks": 91560,
            "time": 196.88176449999997,
            "velocity": 0.36220472440944884
          },
          {
            "duration": 0.2474228000000096,
            "durationTicks": 96,
            "midi": 33,
            "name": "A1",
            "ticks": 91680,
            "time": 197.19104299999998,
            "velocity": 0.36220472440944884
          },
          {
            "duration": 0.2474228000000096,
            "durationTicks": 96,
            "midi": 35,
            "name": "B1",
            "ticks": 91800,
            "time": 197.50032149999998,
            "velocity": 0.36220472440944884
          },
          {
            "duration": 0.2474228000000096,
            "durationTicks": 96,
            "midi": 36,
            "name": "C2",
            "ticks": 91920,
            "time": 197.8096,
            "velocity": 0.36220472440944884
          },
          {
            "duration": 0.24742279999998118,
            "durationTicks": 96,
            "midi": 38,
            "name": "D2",
            "ticks": 92040,
            "time": 198.1188785,
            "velocity": 0.36220472440944884
          },
          {
            "duration": 0.24742279999998118,
            "durationTicks": 96,
            "midi": 40,
            "name": "E2",
            "ticks": 92160,
            "time": 198.428157,
            "velocity": 0.36220472440944884
          },
          {
            "duration": 0.24742279999998118,
            "durationTicks": 96,
            "midi": 36,
            "name": "C2",
            "ticks": 92280,
            "time": 198.7374355,
            "velocity": 0.36220472440944884
          },
          {
            "duration": 0.2474228000000096,
            "durationTicks": 96,
            "midi": 38,
            "name": "D2",
            "ticks": 92400,
            "time": 199.04671399999998,
            "velocity": 0.2755905511811024
          },
          {
            "duration": 0.2474228000000096,
            "durationTicks": 96,
            "midi": 38,
            "name": "D2",
            "ticks": 92520,
            "time": 199.35599249999999,
            "velocity": 0.2755905511811024
          },
          {
            "duration": 0.2474228000000096,
            "durationTicks": 96,
            "midi": 38,
            "name": "D2",
            "ticks": 92640,
            "time": 199.665271,
            "velocity": 0.2755905511811024
          },
          {
            "duration": 0.2474228000000096,
            "durationTicks": 96,
            "midi": 38,
            "name": "D2",
            "ticks": 92760,
            "time": 199.9745495,
            "velocity": 0.2755905511811024
          },
          {
            "duration": 0.2474228000000096,
            "durationTicks": 96,
            "midi": 38,
            "name": "D2",
            "ticks": 92880,
            "time": 200.28382799999997,
            "velocity": 0.2755905511811024
          },
          {
            "duration": 0.2474228000000096,
            "durationTicks": 96,
            "midi": 38,
            "name": "D2",
            "ticks": 93000,
            "time": 200.59310649999998,
            "velocity": 0.2755905511811024
          },
          {
            "duration": 0.2474228000000096,
            "durationTicks": 96,
            "midi": 38,
            "name": "D2",
            "ticks": 93120,
            "time": 200.90238499999998,
            "velocity": 0.2755905511811024
          },
          {
            "duration": 0.2474228000000096,
            "durationTicks": 96,
            "midi": 38,
            "name": "D2",
            "ticks": 93240,
            "time": 201.2116635,
            "velocity": 0.2755905511811024
          },
          {
            "duration": 0.2474228000000096,
            "durationTicks": 96,
            "midi": 31,
            "name": "G1",
            "ticks": 93360,
            "time": 201.520942,
            "velocity": 0.18110236220472442
          },
          {
            "duration": 0.24742279999998118,
            "durationTicks": 96,
            "midi": 31,
            "name": "G1",
            "ticks": 93480,
            "time": 201.8302205,
            "velocity": 0.18110236220472442
          },
          {
            "duration": 0.24742279999998118,
            "durationTicks": 96,
            "midi": 33,
            "name": "A1",
            "ticks": 93600,
            "time": 202.139499,
            "velocity": 0.18110236220472442
          },
          {
            "duration": 0.2474228000000096,
            "durationTicks": 96,
            "midi": 35,
            "name": "B1",
            "ticks": 93720,
            "time": 202.44877749999998,
            "velocity": 0.18110236220472442
          },
          {
            "duration": 0.2474228000000096,
            "durationTicks": 96,
            "midi": 36,
            "name": "C2",
            "ticks": 93840,
            "time": 202.75805599999998,
            "velocity": 0.18110236220472442
          },
          {
            "duration": 0.2474228000000096,
            "durationTicks": 96,
            "midi": 38,
            "name": "D2",
            "ticks": 93960,
            "time": 203.0673345,
            "velocity": 0.14173228346456693
          },
          {
            "duration": 0.2474228000000096,
            "durationTicks": 96,
            "midi": 40,
            "name": "E2",
            "ticks": 94080,
            "time": 203.376613,
            "velocity": 0.14173228346456693
          },
          {
            "duration": 0.2474228000000096,
            "durationTicks": 96,
            "midi": 36,
            "name": "C2",
            "ticks": 94200,
            "time": 203.6858915,
            "velocity": 0.14173228346456693
          }
        ],
        "endOfTrackTicks": 94296
      },
      {
        "channel": 3,
        "controlChanges": {
          "7": [
            {
              "number": 7,
              "ticks": 0,
              "time": 0,
              "value": 0.5196850393700787
            }
          ]
        },
        "pitchBends": [],
        "instrument": {
          "family": "organ",
          "number": 18,
          "name": "rock organ"
        },
        "name": "Organ (P19)",
        "notes": [
          {
            "duration": 0.4948455999999979,
            "durationTicks": 192,
            "midi": 67,
            "name": "G4",
            "ticks": 26400,
            "time": 51.554275,
            "velocity": 0.6299212598425197
          },
          {
            "duration": 0.4948455999999979,
            "durationTicks": 192,
            "midi": 71,
            "name": "B4",
            "ticks": 26400,
            "time": 51.554275,
            "velocity": 0.6299212598425197
          },
          {
            "duration": 0.4948455999999979,
            "durationTicks": 192,
            "midi": 74,
            "name": "D5",
            "ticks": 26400,
            "time": 51.554275,
            "velocity": 0.6299212598425197
          },
          {
            "duration": 0.494845600000005,
            "durationTicks": 192,
            "midi": 76,
            "name": "E5",
            "ticks": 26880,
            "time": 52.791388999999995,
            "velocity": 0.6299212598425197
          },
          {
            "duration": 0.494845600000005,
            "durationTicks": 192,
            "midi": 72,
            "name": "C5",
            "ticks": 26880,
            "time": 52.791388999999995,
            "velocity": 0.6299212598425197
          },
          {
            "duration": 0.494845600000005,
            "durationTicks": 192,
            "midi": 67,
            "name": "G4",
            "ticks": 26880,
            "time": 52.791388999999995,
            "velocity": 0.6299212598425197
          },
          {
            "duration": 0.4948455999999979,
            "durationTicks": 192,
            "midi": 72,
            "name": "C5",
            "ticks": 27360,
            "time": 54.028503,
            "velocity": 0.6299212598425197
          },
          {
            "duration": 0.4948455999999979,
            "durationTicks": 192,
            "midi": 74,
            "name": "D5",
            "ticks": 27360,
            "time": 54.028503,
            "velocity": 0.6299212598425197
          },
          {
            "duration": 0.4948455999999979,
            "durationTicks": 192,
            "midi": 78,
            "name": "F#5",
            "ticks": 27360,
            "time": 54.028503,
            "velocity": 0.6299212598425197
          },
          {
            "duration": 0.4948455999999979,
            "durationTicks": 192,
            "midi": 78,
            "name": "F#5",
            "ticks": 27840,
            "time": 55.265617,
            "velocity": 0.6299212598425197
          },
          {
            "duration": 0.4948455999999979,
            "durationTicks": 192,
            "midi": 74,
            "name": "D5",
            "ticks": 27840,
            "time": 55.265617,
            "velocity": 0.6299212598425197
          },
          {
            "duration": 0.4948455999999979,
            "durationTicks": 192,
            "midi": 72,
            "name": "C5",
            "ticks": 27840,
            "time": 55.265617,
            "velocity": 0.6299212598425197
          },
          {
            "duration": 0.494845600000005,
            "durationTicks": 192,
            "midi": 74,
            "name": "D5",
            "ticks": 28320,
            "time": 56.502731,
            "velocity": 0.6299212598425197
          },
          {
            "duration": 0.494845600000005,
            "durationTicks": 192,
            "midi": 71,
            "name": "B4",
            "ticks": 28320,
            "time": 56.502731,
            "velocity": 0.6299212598425197
          },
          {
            "duration": 0.494845600000005,
            "durationTicks": 192,
            "midi": 67,
            "name": "G4",
            "ticks": 28320,
            "time": 56.502731,
            "velocity": 0.6299212598425197
          },
          {
            "duration": 0.4948455999999979,
            "durationTicks": 192,
            "midi": 67,
            "name": "G4",
            "ticks": 28800,
            "time": 57.739845,
            "velocity": 0.6299212598425197
          },
          {
            "duration": 0.4948455999999979,
            "durationTicks": 192,
            "midi": 72,
            "name": "C5",
            "ticks": 28800,
            "time": 57.739845,
            "velocity": 0.6299212598425197
          },
          {
            "duration": 0.4948455999999979,
            "durationTicks": 192,
            "midi": 76,
            "name": "E5",
            "ticks": 28800,
            "time": 57.739845,
            "velocity": 0.6299212598425197
          },
          {
            "duration": 0.494845600000005,
            "durationTicks": 192,
            "midi": 78,
            "name": "F#5",
            "ticks": 29280,
            "time": 58.976958999999994,
            "velocity": 0.6299212598425197
          },
          {
            "duration": 0.494845600000005,
            "durationTicks": 192,
            "midi": 74,
            "name": "D5",
            "ticks": 29280,
            "time": 58.976958999999994,
            "velocity": 0.6299212598425197
          },
          {
            "duration": 0.494845600000005,
            "durationTicks": 192,
            "midi": 72,
            "name": "C5",
            "ticks": 29280,
            "time": 58.976958999999994,
            "velocity": 0.6299212598425197
          },
          {
            "duration": 0.4948455999999979,
            "durationTicks": 192,
            "midi": 72,
            "name": "C5",
            "ticks": 29760,
            "time": 60.214073,
            "velocity": 0.6299212598425197
          },
          {
            "duration": 0.4948455999999979,
            "durationTicks": 192,
            "midi": 74,
            "name": "D5",
            "ticks": 29760,
            "time": 60.214073,
            "velocity": 0.6299212598425197
          },
          {
            "duration": 0.4948455999999979,
            "durationTicks": 192,
            "midi": 78,
            "name": "F#5",
            "ticks": 29760,
            "time": 60.214073,
            "velocity": 0.6299212598425197
          },
          {
            "duration": 0.4948455999999979,
            "durationTicks": 192,
            "midi": 74,
            "name": "D5",
            "ticks": 30240,
            "time": 61.451187,
            "velocity": 0.6299212598425197
          },
          {
            "duration": 0.4948455999999979,
            "durationTicks": 192,
            "midi": 71,
            "name": "B4",
            "ticks": 30240,
            "time": 61.451187,
            "velocity": 0.6299212598425197
          },
          {
            "duration": 0.4948455999999979,
            "durationTicks": 192,
            "midi": 67,
            "name": "G4",
            "ticks": 30240,
            "time": 61.451187,
            "velocity": 0.6299212598425197
          },
          {
            "duration": 0.494845600000005,
            "durationTicks": 192,
            "midi": 67,
            "name": "G4",
            "ticks": 30720,
            "time": 62.688300999999996,
            "velocity": 0.6299212598425197
          },
          {
            "duration": 0.494845600000005,
            "durationTicks": 192,
            "midi": 72,
            "name": "C5",
            "ticks": 30720,
            "time": 62.688300999999996,
            "velocity": 0.6299212598425197
          },
          {
            "duration": 0.494845600000005,
            "durationTicks": 192,
            "midi": 76,
            "name": "E5",
            "ticks": 30720,
            "time": 62.688300999999996,
            "velocity": 0.6299212598425197
          },
          {
            "duration": 0.494845600000005,
            "durationTicks": 192,
            "midi": 78,
            "name": "F#5",
            "ticks": 31200,
            "time": 63.925415,
            "velocity": 0.6299212598425197
          },
          {
            "duration": 0.494845600000005,
            "durationTicks": 192,
            "midi": 74,
            "name": "D5",
            "ticks": 31200,
            "time": 63.925415,
            "velocity": 0.6299212598425197
          },
          {
            "duration": 0.494845600000005,
            "durationTicks": 192,
            "midi": 72,
            "name": "C5",
            "ticks": 31200,
            "time": 63.925415,
            "velocity": 0.6299212598425197
          },
          {
            "duration": 0.4948455999999908,
            "durationTicks": 192,
            "midi": 72,
            "name": "C5",
            "ticks": 31680,
            "time": 65.162529,
            "velocity": 0.6299212598425197
          },
          {
            "duration": 0.4948455999999908,
            "durationTicks": 192,
            "midi": 74,
            "name": "D5",
            "ticks": 31680,
            "time": 65.162529,
            "velocity": 0.6299212598425197
          },
          {
            "duration": 0.4948455999999908,
            "durationTicks": 192,
            "midi": 78,
            "name": "F#5",
            "ticks": 31680,
            "time": 65.162529,
            "velocity": 0.6299212598425197
          },
          {
            "duration": 1.9793823999999915,
            "durationTicks": 768,
            "midi": 81,
            "name": "A5",
            "ticks": 31920,
            "time": 65.781086,
            "velocity": 0.6299212598425197
          },
          {
            "duration": 1.9793823999999915,
            "durationTicks": 768,
            "midi": 69,
            "name": "A4",
            "ticks": 31920,
            "time": 65.781086,
            "velocity": 0.6299212598425197
          },
          {
            "duration": 1.9793823999999915,
            "durationTicks": 768,
            "midi": 74,
            "name": "D5",
            "ticks": 31920,
            "time": 65.781086,
            "velocity": 0.6299212598425197
          },
          {
            "duration": 1.9793823999999915,
            "durationTicks": 768,
            "midi": 78,
            "name": "F#5",
            "ticks": 31920,
            "time": 65.781086,
            "velocity": 0.6299212598425197
          },
          {
            "duration": 0.4948455999999908,
            "durationTicks": 192,
            "midi": 74,
            "name": "D5",
            "ticks": 56400,
            "time": 114.271133,
            "velocity": 0.6299212598425197
          },
          {
            "duration": 0.4948455999999908,
            "durationTicks": 192,
            "midi": 71,
            "name": "B4",
            "ticks": 56400,
            "time": 114.271133,
            "velocity": 0.6299212598425197
          },
          {
            "duration": 0.4948455999999908,
            "durationTicks": 192,
            "midi": 67,
            "name": "G4",
            "ticks": 56400,
            "time": 114.271133,
            "velocity": 0.6299212598425197
          },
          {
            "duration": 0.494845600000005,
            "durationTicks": 192,
            "midi": 67,
            "name": "G4",
            "ticks": 56880,
            "time": 115.508247,
            "velocity": 0.6299212598425197
          },
          {
            "duration": 0.494845600000005,
            "durationTicks": 192,
            "midi": 72,
            "name": "C5",
            "ticks": 56880,
            "time": 115.508247,
            "velocity": 0.6299212598425197
          },
          {
            "duration": 0.494845600000005,
            "durationTicks": 192,
            "midi": 76,
            "name": "E5",
            "ticks": 56880,
            "time": 115.508247,
            "velocity": 0.6299212598425197
          },
          {
            "duration": 0.4948455999999908,
            "durationTicks": 192,
            "midi": 78,
            "name": "F#5",
            "ticks": 57360,
            "time": 116.745361,
            "velocity": 0.6299212598425197
          },
          {
            "duration": 0.4948455999999908,
            "durationTicks": 192,
            "midi": 74,
            "name": "D5",
            "ticks": 57360,
            "time": 116.745361,
            "velocity": 0.6299212598425197
          },
          {
            "duration": 0.4948455999999908,
            "durationTicks": 192,
            "midi": 72,
            "name": "C5",
            "ticks": 57360,
            "time": 116.745361,
            "velocity": 0.6299212598425197
          },
          {
            "duration": 0.494845600000005,
            "durationTicks": 192,
            "midi": 72,
            "name": "C5",
            "ticks": 57840,
            "time": 117.982475,
            "velocity": 0.6299212598425197
          },
          {
            "duration": 0.494845600000005,
            "durationTicks": 192,
            "midi": 74,
            "name": "D5",
            "ticks": 57840,
            "time": 117.982475,
            "velocity": 0.6299212598425197
          },
          {
            "duration": 0.494845600000005,
            "durationTicks": 192,
            "midi": 78,
            "name": "F#5",
            "ticks": 57840,
            "time": 117.982475,
            "velocity": 0.6299212598425197
          },
          {
            "duration": 0.494845600000005,
            "durationTicks": 192,
            "midi": 67,
            "name": "G4",
            "ticks": 58320,
            "time": 119.219589,
            "velocity": 0.6299212598425197
          },
          {
            "duration": 0.494845600000005,
            "durationTicks": 192,
            "midi": 71,
            "name": "B4",
            "ticks": 58320,
            "time": 119.219589,
            "velocity": 0.6299212598425197
          },
          {
            "duration": 0.494845600000005,
            "durationTicks": 192,
            "midi": 74,
            "name": "D5",
            "ticks": 58320,
            "time": 119.219589,
            "velocity": 0.6299212598425197
          },
          {
            "duration": 0.4948455999999908,
            "durationTicks": 192,
            "midi": 76,
            "name": "E5",
            "ticks": 58800,
            "time": 120.456703,
            "velocity": 0.6299212598425197
          },
          {
            "duration": 0.4948455999999908,
            "durationTicks": 192,
            "midi": 72,
            "name": "C5",
            "ticks": 58800,
            "time": 120.456703,
            "velocity": 0.6299212598425197
          },
          {
            "duration": 0.4948455999999908,
            "durationTicks": 192,
            "midi": 67,
            "name": "G4",
            "ticks": 58800,
            "time": 120.456703,
            "velocity": 0.6299212598425197
          },
          {
            "duration": 0.494845600000005,
            "durationTicks": 192,
            "midi": 72,
            "name": "C5",
            "ticks": 59280,
            "time": 121.693817,
            "velocity": 0.6299212598425197
          },
          {
            "duration": 0.494845600000005,
            "durationTicks": 192,
            "midi": 74,
            "name": "D5",
            "ticks": 59280,
            "time": 121.693817,
            "velocity": 0.6299212598425197
          },
          {
            "duration": 0.494845600000005,
            "durationTicks": 192,
            "midi": 78,
            "name": "F#5",
            "ticks": 59280,
            "time": 121.693817,
            "velocity": 0.6299212598425197
          },
          {
            "duration": 0.494845600000005,
            "durationTicks": 192,
            "midi": 78,
            "name": "F#5",
            "ticks": 59760,
            "time": 122.930931,
            "velocity": 0.6299212598425197
          },
          {
            "duration": 0.494845600000005,
            "durationTicks": 192,
            "midi": 74,
            "name": "D5",
            "ticks": 59760,
            "time": 122.930931,
            "velocity": 0.6299212598425197
          },
          {
            "duration": 0.494845600000005,
            "durationTicks": 192,
            "midi": 72,
            "name": "C5",
            "ticks": 59760,
            "time": 122.930931,
            "velocity": 0.6299212598425197
          },
          {
            "duration": 0.4948455999999908,
            "durationTicks": 192,
            "midi": 67,
            "name": "G4",
            "ticks": 60240,
            "time": 124.168045,
            "velocity": 0.6299212598425197
          },
          {
            "duration": 0.4948455999999908,
            "durationTicks": 192,
            "midi": 71,
            "name": "B4",
            "ticks": 60240,
            "time": 124.168045,
            "velocity": 0.6299212598425197
          },
          {
            "duration": 0.4948455999999908,
            "durationTicks": 192,
            "midi": 74,
            "name": "D5",
            "ticks": 60240,
            "time": 124.168045,
            "velocity": 0.6299212598425197
          },
          {
            "duration": 0.494845600000005,
            "durationTicks": 192,
            "midi": 76,
            "name": "E5",
            "ticks": 60720,
            "time": 125.405159,
            "velocity": 0.6299212598425197
          },
          {
            "duration": 0.494845600000005,
            "durationTicks": 192,
            "midi": 72,
            "name": "C5",
            "ticks": 60720,
            "time": 125.405159,
            "velocity": 0.6299212598425197
          },
          {
            "duration": 0.494845600000005,
            "durationTicks": 192,
            "midi": 67,
            "name": "G4",
            "ticks": 60720,
            "time": 125.405159,
            "velocity": 0.6299212598425197
          },
          {
            "duration": 0.494845600000005,
            "durationTicks": 192,
            "midi": 72,
            "name": "C5",
            "ticks": 61200,
            "time": 126.642273,
            "velocity": 0.6299212598425197
          },
          {
            "duration": 0.494845600000005,
            "durationTicks": 192,
            "midi": 74,
            "name": "D5",
            "ticks": 61200,
            "time": 126.642273,
            "velocity": 0.6299212598425197
          },
          {
            "duration": 0.494845600000005,
            "durationTicks": 192,
            "midi": 78,
            "name": "F#5",
            "ticks": 61200,
            "time": 126.642273,
            "velocity": 0.6299212598425197
          },
          {
            "duration": 0.4948455999999908,
            "durationTicks": 192,
            "midi": 78,
            "name": "F#5",
            "ticks": 61680,
            "time": 127.87938700000001,
            "velocity": 0.6299212598425197
          },
          {
            "duration": 0.4948455999999908,
            "durationTicks": 192,
            "midi": 74,
            "name": "D5",
            "ticks": 61680,
            "time": 127.87938700000001,
            "velocity": 0.6299212598425197
          },
          {
            "duration": 0.4948455999999908,
            "durationTicks": 192,
            "midi": 72,
            "name": "C5",
            "ticks": 61680,
            "time": 127.87938700000001,
            "velocity": 0.6299212598425197
          },
          {
            "duration": 1.97938240000002,
            "durationTicks": 768,
            "midi": 78,
            "name": "F#5",
            "ticks": 61920,
            "time": 128.497944,
            "velocity": 0.6299212598425197
          },
          {
            "duration": 1.97938240000002,
            "durationTicks": 768,
            "midi": 74,
            "name": "D5",
            "ticks": 61920,
            "time": 128.497944,
            "velocity": 0.6299212598425197
          },
          {
            "duration": 1.97938240000002,
            "durationTicks": 768,
            "midi": 69,
            "name": "A4",
            "ticks": 61920,
            "time": 128.497944,
            "velocity": 0.6299212598425197
          },
          {
            "duration": 1.97938240000002,
            "durationTicks": 768,
            "midi": 81,
            "name": "A5",
            "ticks": 61920,
            "time": 128.497944,
            "velocity": 0.6299212598425197
          },
          {
            "duration": 0.4948455999999908,
            "durationTicks": 192,
            "midi": 74,
            "name": "D5",
            "ticks": 76080,
            "time": 156.984838,
            "velocity": 0.6299212598425197
          },
          {
            "duration": 0.4948455999999908,
            "durationTicks": 192,
            "midi": 71,
            "name": "B4",
            "ticks": 76080,
            "time": 156.984838,
            "velocity": 0.6299212598425197
          },
          {
            "duration": 0.4948455999999908,
            "durationTicks": 192,
            "midi": 67,
            "name": "G4",
            "ticks": 76080,
            "time": 156.984838,
            "velocity": 0.6299212598425197
          },
          {
            "duration": 0.4948455999999908,
            "durationTicks": 192,
            "midi": 67,
            "name": "G4",
            "ticks": 76560,
            "time": 158.221952,
            "velocity": 0.6299212598425197
          },
          {
            "duration": 0.4948455999999908,
            "durationTicks": 192,
            "midi": 72,
            "name": "C5",
            "ticks": 76560,
            "time": 158.221952,
            "velocity": 0.6299212598425197
          },
          {
            "duration": 0.4948455999999908,
            "durationTicks": 192,
            "midi": 76,
            "name": "E5",
            "ticks": 76560,
            "time": 158.221952,
            "velocity": 0.6299212598425197
          },
          {
            "duration": 0.4948456000000192,
            "durationTicks": 192,
            "midi": 78,
            "name": "F#5",
            "ticks": 77040,
            "time": 159.45906599999998,
            "velocity": 0.6299212598425197
          },
          {
            "duration": 0.4948456000000192,
            "durationTicks": 192,
            "midi": 74,
            "name": "D5",
            "ticks": 77040,
            "time": 159.45906599999998,
            "velocity": 0.6299212598425197
          },
          {
            "duration": 0.4948456000000192,
            "durationTicks": 192,
            "midi": 72,
            "name": "C5",
            "ticks": 77040,
            "time": 159.45906599999998,
            "velocity": 0.6299212598425197
          },
          {
            "duration": 0.12371139999999059,
            "durationTicks": 48,
            "midi": 72,
            "name": "C5",
            "ticks": 77520,
            "time": 160.69618,
            "velocity": 0.6299212598425197
          },
          {
            "duration": 0.12371139999999059,
            "durationTicks": 48,
            "midi": 74,
            "name": "D5",
            "ticks": 77520,
            "time": 160.69618,
            "velocity": 0.6299212598425197
          },
          {
            "duration": 0.12371139999999059,
            "durationTicks": 48,
            "midi": 78,
            "name": "F#5",
            "ticks": 77520,
            "time": 160.69618,
            "velocity": 0.6299212598425197
          },
          {
            "duration": 0.2474228000000096,
            "durationTicks": 96,
            "midi": 72,
            "name": "C5",
            "ticks": 77580,
            "time": 160.85081924999997,
            "velocity": 0.6299212598425197
          },
          {
            "duration": 0.2474228000000096,
            "durationTicks": 96,
            "midi": 74,
            "name": "D5",
            "ticks": 77580,
            "time": 160.85081924999997,
            "velocity": 0.6299212598425197
          },
          {
            "duration": 0.2474228000000096,
            "durationTicks": 96,
            "midi": 78,
            "name": "F#5",
            "ticks": 77580,
            "time": 160.85081924999997,
            "velocity": 0.6299212598425197
          },
          {
            "duration": 0.12371140000001901,
            "durationTicks": 48,
            "midi": 72,
            "name": "C5",
            "ticks": 77700,
            "time": 161.16009774999998,
            "velocity": 0.6299212598425197
          },
          {
            "duration": 0.12371140000001901,
            "durationTicks": 48,
            "midi": 74,
            "name": "D5",
            "ticks": 77700,
            "time": 161.16009774999998,
            "velocity": 0.6299212598425197
          },
          {
            "duration": 0.12371140000001901,
            "durationTicks": 48,
            "midi": 78,
            "name": "F#5",
            "ticks": 77700,
            "time": 161.16009774999998,
            "velocity": 0.6299212598425197
          },
          {
            "duration": 0.2474228000000096,
            "durationTicks": 96,
            "midi": 72,
            "name": "C5",
            "ticks": 77760,
            "time": 161.31473699999998,
            "velocity": 0.6299212598425197
          },
          {
            "duration": 0.2474228000000096,
            "durationTicks": 96,
            "midi": 74,
            "name": "D5",
            "ticks": 77760,
            "time": 161.31473699999998,
            "velocity": 0.6299212598425197
          },
          {
            "duration": 0.2474228000000096,
            "durationTicks": 96,
            "midi": 78,
            "name": "F#5",
            "ticks": 77760,
            "time": 161.31473699999998,
            "velocity": 0.6299212598425197
          },
          {
            "duration": 0.2474228000000096,
            "durationTicks": 96,
            "midi": 72,
            "name": "C5",
            "ticks": 77880,
            "time": 161.62401549999998,
            "velocity": 0.6299212598425197
          },
          {
            "duration": 0.2474228000000096,
            "durationTicks": 96,
            "midi": 74,
            "name": "D5",
            "ticks": 77880,
            "time": 161.62401549999998,
            "velocity": 0.6299212598425197
          },
          {
            "duration": 0.2474228000000096,
            "durationTicks": 96,
            "midi": 78,
            "name": "F#5",
            "ticks": 77880,
            "time": 161.62401549999998,
            "velocity": 0.6299212598425197
          },
          {
            "duration": 0.4948455999999908,
            "durationTicks": 192,
            "midi": 67,
            "name": "G4",
            "ticks": 78000,
            "time": 161.933294,
            "velocity": 0.6299212598425197
          },
          {
            "duration": 0.4948455999999908,
            "durationTicks": 192,
            "midi": 71,
            "name": "B4",
            "ticks": 78000,
            "time": 161.933294,
            "velocity": 0.6299212598425197
          },
          {
            "duration": 0.4948455999999908,
            "durationTicks": 192,
            "midi": 74,
            "name": "D5",
            "ticks": 78000,
            "time": 161.933294,
            "velocity": 0.6299212598425197
          },
          {
            "duration": 0.4948455999999908,
            "durationTicks": 192,
            "midi": 67,
            "name": "G4",
            "ticks": 78480,
            "time": 163.17040799999998,
            "velocity": 0.6299212598425197
          },
          {
            "duration": 0.4948455999999908,
            "durationTicks": 192,
            "midi": 72,
            "name": "C5",
            "ticks": 78480,
            "time": 163.17040799999998,
            "velocity": 0.6299212598425197
          },
          {
            "duration": 0.4948455999999908,
            "durationTicks": 192,
            "midi": 76,
            "name": "E5",
            "ticks": 78480,
            "time": 163.17040799999998,
            "velocity": 0.6299212598425197
          },
          {
            "duration": 0.4948456000000192,
            "durationTicks": 192,
            "midi": 72,
            "name": "C5",
            "ticks": 78960,
            "time": 164.40752199999997,
            "velocity": 0.6299212598425197
          },
          {
            "duration": 0.4948456000000192,
            "durationTicks": 192,
            "midi": 74,
            "name": "D5",
            "ticks": 78960,
            "time": 164.40752199999997,
            "velocity": 0.6299212598425197
          },
          {
            "duration": 0.4948456000000192,
            "durationTicks": 192,
            "midi": 78,
            "name": "F#5",
            "ticks": 78960,
            "time": 164.40752199999997,
            "velocity": 0.6299212598425197
          },
          {
            "duration": 0.12371139999999059,
            "durationTicks": 48,
            "midi": 78,
            "name": "F#5",
            "ticks": 79440,
            "time": 165.644636,
            "velocity": 0.6299212598425197
          },
          {
            "duration": 0.12371139999999059,
            "durationTicks": 48,
            "midi": 74,
            "name": "D5",
            "ticks": 79440,
            "time": 165.644636,
            "velocity": 0.6299212598425197
          },
          {
            "duration": 0.12371139999999059,
            "durationTicks": 48,
            "midi": 72,
            "name": "C5",
            "ticks": 79440,
            "time": 165.644636,
            "velocity": 0.6299212598425197
          },
          {
            "duration": 0.24742279999998118,
            "durationTicks": 96,
            "midi": 78,
            "name": "F#5",
            "ticks": 79500,
            "time": 165.79927525,
            "velocity": 0.6299212598425197
          },
          {
            "duration": 0.24742279999998118,
            "durationTicks": 96,
            "midi": 74,
            "name": "D5",
            "ticks": 79500,
            "time": 165.79927525,
            "velocity": 0.6299212598425197
          },
          {
            "duration": 0.24742279999998118,
            "durationTicks": 96,
            "midi": 72,
            "name": "C5",
            "ticks": 79500,
            "time": 165.79927525,
            "velocity": 0.6299212598425197
          },
          {
            "duration": 0.12371139999999059,
            "durationTicks": 48,
            "midi": 78,
            "name": "F#5",
            "ticks": 79620,
            "time": 166.10855375,
            "velocity": 0.6299212598425197
          },
          {
            "duration": 0.12371139999999059,
            "durationTicks": 48,
            "midi": 74,
            "name": "D5",
            "ticks": 79620,
            "time": 166.10855375,
            "velocity": 0.6299212598425197
          },
          {
            "duration": 0.12371139999999059,
            "durationTicks": 48,
            "midi": 72,
            "name": "C5",
            "ticks": 79620,
            "time": 166.10855375,
            "velocity": 0.6299212598425197
          },
          {
            "duration": 0.24742279999998118,
            "durationTicks": 96,
            "midi": 78,
            "name": "F#5",
            "ticks": 79680,
            "time": 166.263193,
            "velocity": 0.6299212598425197
          },
          {
            "duration": 0.24742279999998118,
            "durationTicks": 96,
            "midi": 74,
            "name": "D5",
            "ticks": 79680,
            "time": 166.263193,
            "velocity": 0.6299212598425197
          },
          {
            "duration": 0.24742279999998118,
            "durationTicks": 96,
            "midi": 72,
            "name": "C5",
            "ticks": 79680,
            "time": 166.263193,
            "velocity": 0.6299212598425197
          },
          {
            "duration": 0.2474228000000096,
            "durationTicks": 96,
            "midi": 78,
            "name": "F#5",
            "ticks": 79800,
            "time": 166.57247149999998,
            "velocity": 0.6299212598425197
          },
          {
            "duration": 0.2474228000000096,
            "durationTicks": 96,
            "midi": 74,
            "name": "D5",
            "ticks": 79800,
            "time": 166.57247149999998,
            "velocity": 0.6299212598425197
          },
          {
            "duration": 0.2474228000000096,
            "durationTicks": 96,
            "midi": 72,
            "name": "C5",
            "ticks": 79800,
            "time": 166.57247149999998,
            "velocity": 0.6299212598425197
          },
          {
            "duration": 0.4948455999999908,
            "durationTicks": 192,
            "midi": 74,
            "name": "D5",
            "ticks": 79920,
            "time": 166.88174999999998,
            "velocity": 0.6299212598425197
          },
          {
            "duration": 0.4948455999999908,
            "durationTicks": 192,
            "midi": 71,
            "name": "B4",
            "ticks": 79920,
            "time": 166.88174999999998,
            "velocity": 0.6299212598425197
          },
          {
            "duration": 0.4948455999999908,
            "durationTicks": 192,
            "midi": 67,
            "name": "G4",
            "ticks": 79920,
            "time": 166.88174999999998,
            "velocity": 0.6299212598425197
          },
          {
            "duration": 0.4948456000000192,
            "durationTicks": 192,
            "midi": 76,
            "name": "E5",
            "ticks": 80400,
            "time": 168.11886399999997,
            "velocity": 0.6299212598425197
          },
          {
            "duration": 0.4948456000000192,
            "durationTicks": 192,
            "midi": 72,
            "name": "C5",
            "ticks": 80400,
            "time": 168.11886399999997,
            "velocity": 0.6299212598425197
          },
          {
            "duration": 0.4948456000000192,
            "durationTicks": 192,
            "midi": 67,
            "name": "G4",
            "ticks": 80400,
            "time": 168.11886399999997,
            "velocity": 0.6299212598425197
          },
          {
            "duration": 0.4948455999999908,
            "durationTicks": 192,
            "midi": 72,
            "name": "C5",
            "ticks": 80880,
            "time": 169.355978,
            "velocity": 0.6299212598425197
          },
          {
            "duration": 0.4948455999999908,
            "durationTicks": 192,
            "midi": 74,
            "name": "D5",
            "ticks": 80880,
            "time": 169.355978,
            "velocity": 0.6299212598425197
          },
          {
            "duration": 0.4948455999999908,
            "durationTicks": 192,
            "midi": 78,
            "name": "F#5",
            "ticks": 80880,
            "time": 169.355978,
            "velocity": 0.6299212598425197
          },
          {
            "duration": 0.12371139999999059,
            "durationTicks": 48,
            "midi": 78,
            "name": "F#5",
            "ticks": 81360,
            "time": 170.59309199999998,
            "velocity": 0.6299212598425197
          },
          {
            "duration": 0.12371139999999059,
            "durationTicks": 48,
            "midi": 74,
            "name": "D5",
            "ticks": 81360,
            "time": 170.59309199999998,
            "velocity": 0.6299212598425197
          },
          {
            "duration": 0.12371139999999059,
            "durationTicks": 48,
            "midi": 72,
            "name": "C5",
            "ticks": 81360,
            "time": 170.59309199999998,
            "velocity": 0.6299212598425197
          },
          {
            "duration": 0.2474228000000096,
            "durationTicks": 96,
            "midi": 78,
            "name": "F#5",
            "ticks": 81420,
            "time": 170.74773125,
            "velocity": 0.6299212598425197
          },
          {
            "duration": 0.2474228000000096,
            "durationTicks": 96,
            "midi": 74,
            "name": "D5",
            "ticks": 81420,
            "time": 170.74773125,
            "velocity": 0.6299212598425197
          },
          {
            "duration": 0.2474228000000096,
            "durationTicks": 96,
            "midi": 72,
            "name": "C5",
            "ticks": 81420,
            "time": 170.74773125,
            "velocity": 0.6299212598425197
          },
          {
            "duration": 0.12371139999999059,
            "durationTicks": 48,
            "midi": 78,
            "name": "F#5",
            "ticks": 81540,
            "time": 171.05700975,
            "velocity": 0.6299212598425197
          },
          {
            "duration": 0.12371139999999059,
            "durationTicks": 48,
            "midi": 74,
            "name": "D5",
            "ticks": 81540,
            "time": 171.05700975,
            "velocity": 0.6299212598425197
          },
          {
            "duration": 0.12371139999999059,
            "durationTicks": 48,
            "midi": 72,
            "name": "C5",
            "ticks": 81540,
            "time": 171.05700975,
            "velocity": 0.6299212598425197
          },
          {
            "duration": 0.24742279999998118,
            "durationTicks": 96,
            "midi": 78,
            "name": "F#5",
            "ticks": 81600,
            "time": 171.211649,
            "velocity": 0.6299212598425197
          },
          {
            "duration": 0.24742279999998118,
            "durationTicks": 96,
            "midi": 74,
            "name": "D5",
            "ticks": 81600,
            "time": 171.211649,
            "velocity": 0.6299212598425197
          },
          {
            "duration": 0.24742279999998118,
            "durationTicks": 96,
            "midi": 72,
            "name": "C5",
            "ticks": 81600,
            "time": 171.211649,
            "velocity": 0.6299212598425197
          },
          {
            "duration": 0.2474228000000096,
            "durationTicks": 96,
            "midi": 78,
            "name": "F#5",
            "ticks": 81720,
            "time": 171.52092749999997,
            "velocity": 0.6299212598425197
          },
          {
            "duration": 0.2474228000000096,
            "durationTicks": 96,
            "midi": 74,
            "name": "D5",
            "ticks": 81720,
            "time": 171.52092749999997,
            "velocity": 0.6299212598425197
          },
          {
            "duration": 0.2474228000000096,
            "durationTicks": 96,
            "midi": 72,
            "name": "C5",
            "ticks": 81720,
            "time": 171.52092749999997,
            "velocity": 0.6299212598425197
          },
          {
            "duration": 1.97938240000002,
            "durationTicks": 768,
            "midi": 78,
            "name": "F#5",
            "ticks": 81840,
            "time": 171.83020599999998,
            "velocity": 0.6141732283464567
          },
          {
            "duration": 1.97938240000002,
            "durationTicks": 768,
            "midi": 74,
            "name": "D5",
            "ticks": 81840,
            "time": 171.83020599999998,
            "velocity": 0.6141732283464567
          },
          {
            "duration": 4.453610400000002,
            "durationTicks": 1728,
            "midi": 69,
            "name": "A4",
            "ticks": 81840,
            "time": 171.83020599999998,
            "velocity": 0.6141732283464567
          },
          {
            "duration": 1.97938240000002,
            "durationTicks": 768,
            "midi": 81,
            "name": "A5",
            "ticks": 81840,
            "time": 171.83020599999998,
            "velocity": 0.6141732283464567
          },
          {
            "duration": 1.9793823999999915,
            "durationTicks": 768,
            "midi": 73,
            "name": "C#5",
            "ticks": 82800,
            "time": 174.304434,
            "velocity": 0.7874015748031497
          },
          {
            "duration": 1.9793823999999915,
            "durationTicks": 768,
            "midi": 76,
            "name": "E5",
            "ticks": 82800,
            "time": 174.304434,
            "velocity": 0.7874015748031497
          },
          {
            "duration": 0.4948455999999908,
            "durationTicks": 192,
            "midi": 67,
            "name": "G4",
            "ticks": 83760,
            "time": 176.778662,
            "velocity": 0.6299212598425197
          },
          {
            "duration": 0.4948455999999908,
            "durationTicks": 192,
            "midi": 71,
            "name": "B4",
            "ticks": 83760,
            "time": 176.778662,
            "velocity": 0.6299212598425197
          },
          {
            "duration": 0.4948455999999908,
            "durationTicks": 192,
            "midi": 74,
            "name": "D5",
            "ticks": 83760,
            "time": 176.778662,
            "velocity": 0.6299212598425197
          },
          {
            "duration": 0.4948455999999908,
            "durationTicks": 192,
            "midi": 67,
            "name": "G4",
            "ticks": 84240,
            "time": 178.015776,
            "velocity": 0.6299212598425197
          },
          {
            "duration": 0.4948455999999908,
            "durationTicks": 192,
            "midi": 72,
            "name": "C5",
            "ticks": 84240,
            "time": 178.015776,
            "velocity": 0.6299212598425197
          },
          {
            "duration": 0.4948455999999908,
            "durationTicks": 192,
            "midi": 76,
            "name": "E5",
            "ticks": 84240,
            "time": 178.015776,
            "velocity": 0.6299212598425197
          },
          {
            "duration": 0.4948456000000192,
            "durationTicks": 192,
            "midi": 78,
            "name": "F#5",
            "ticks": 84720,
            "time": 179.25288999999998,
            "velocity": 0.6299212598425197
          },
          {
            "duration": 0.4948456000000192,
            "durationTicks": 192,
            "midi": 74,
            "name": "D5",
            "ticks": 84720,
            "time": 179.25288999999998,
            "velocity": 0.6299212598425197
          },
          {
            "duration": 0.4948456000000192,
            "durationTicks": 192,
            "midi": 72,
            "name": "C5",
            "ticks": 84720,
            "time": 179.25288999999998,
            "velocity": 0.6299212598425197
          },
          {
            "duration": 0.12371139999999059,
            "durationTicks": 48,
            "midi": 72,
            "name": "C5",
            "ticks": 85200,
            "time": 180.490004,
            "velocity": 0.6299212598425197
          },
          {
            "duration": 0.12371139999999059,
            "durationTicks": 48,
            "midi": 74,
            "name": "D5",
            "ticks": 85200,
            "time": 180.490004,
            "velocity": 0.6299212598425197
          },
          {
            "duration": 0.12371139999999059,
            "durationTicks": 48,
            "midi": 78,
            "name": "F#5",
            "ticks": 85200,
            "time": 180.490004,
            "velocity": 0.6299212598425197
          },
          {
            "duration": 0.24742279999998118,
            "durationTicks": 96,
            "midi": 72,
            "name": "C5",
            "ticks": 85260,
            "time": 180.64464325,
            "velocity": 0.6299212598425197
          },
          {
            "duration": 0.24742279999998118,
            "durationTicks": 96,
            "midi": 74,
            "name": "D5",
            "ticks": 85260,
            "time": 180.64464325,
            "velocity": 0.6299212598425197
          },
          {
            "duration": 0.24742279999998118,
            "durationTicks": 96,
            "midi": 78,
            "name": "F#5",
            "ticks": 85260,
            "time": 180.64464325,
            "velocity": 0.6299212598425197
          },
          {
            "duration": 0.12371140000001901,
            "durationTicks": 48,
            "midi": 72,
            "name": "C5",
            "ticks": 85380,
            "time": 180.95392174999998,
            "velocity": 0.6299212598425197
          },
          {
            "duration": 0.12371140000001901,
            "durationTicks": 48,
            "midi": 74,
            "name": "D5",
            "ticks": 85380,
            "time": 180.95392174999998,
            "velocity": 0.6299212598425197
          },
          {
            "duration": 0.12371140000001901,
            "durationTicks": 48,
            "midi": 78,
            "name": "F#5",
            "ticks": 85380,
            "time": 180.95392174999998,
            "velocity": 0.6299212598425197
          },
          {
            "duration": 0.2474228000000096,
            "durationTicks": 96,
            "midi": 72,
            "name": "C5",
            "ticks": 85440,
            "time": 181.10856099999998,
            "velocity": 0.6299212598425197
          },
          {
            "duration": 0.2474228000000096,
            "durationTicks": 96,
            "midi": 74,
            "name": "D5",
            "ticks": 85440,
            "time": 181.10856099999998,
            "velocity": 0.6299212598425197
          },
          {
            "duration": 0.2474228000000096,
            "durationTicks": 96,
            "midi": 78,
            "name": "F#5",
            "ticks": 85440,
            "time": 181.10856099999998,
            "velocity": 0.6299212598425197
          },
          {
            "duration": 0.2474228000000096,
            "durationTicks": 96,
            "midi": 72,
            "name": "C5",
            "ticks": 85560,
            "time": 181.41783949999999,
            "velocity": 0.6299212598425197
          },
          {
            "duration": 0.2474228000000096,
            "durationTicks": 96,
            "midi": 74,
            "name": "D5",
            "ticks": 85560,
            "time": 181.41783949999999,
            "velocity": 0.6299212598425197
          },
          {
            "duration": 0.2474228000000096,
            "durationTicks": 96,
            "midi": 78,
            "name": "F#5",
            "ticks": 85560,
            "time": 181.41783949999999,
            "velocity": 0.6299212598425197
          },
          {
            "duration": 0.4948455999999908,
            "durationTicks": 192,
            "midi": 67,
            "name": "G4",
            "ticks": 85680,
            "time": 181.727118,
            "velocity": 0.6299212598425197
          },
          {
            "duration": 0.4948455999999908,
            "durationTicks": 192,
            "midi": 71,
            "name": "B4",
            "ticks": 85680,
            "time": 181.727118,
            "velocity": 0.6299212598425197
          },
          {
            "duration": 0.4948455999999908,
            "durationTicks": 192,
            "midi": 74,
            "name": "D5",
            "ticks": 85680,
            "time": 181.727118,
            "velocity": 0.6299212598425197
          },
          {
            "duration": 0.4948456000000192,
            "durationTicks": 192,
            "midi": 67,
            "name": "G4",
            "ticks": 86160,
            "time": 182.96423199999998,
            "velocity": 0.6299212598425197
          },
          {
            "duration": 0.4948456000000192,
            "durationTicks": 192,
            "midi": 72,
            "name": "C5",
            "ticks": 86160,
            "time": 182.96423199999998,
            "velocity": 0.6299212598425197
          },
          {
            "duration": 0.4948456000000192,
            "durationTicks": 192,
            "midi": 76,
            "name": "E5",
            "ticks": 86160,
            "time": 182.96423199999998,
            "velocity": 0.6299212598425197
          },
          {
            "duration": 0.4948455999999908,
            "durationTicks": 192,
            "midi": 78,
            "name": "F#5",
            "ticks": 86640,
            "time": 184.201346,
            "velocity": 0.6299212598425197
          },
          {
            "duration": 0.4948455999999908,
            "durationTicks": 192,
            "midi": 74,
            "name": "D5",
            "ticks": 86640,
            "time": 184.201346,
            "velocity": 0.6299212598425197
          },
          {
            "duration": 0.4948455999999908,
            "durationTicks": 192,
            "midi": 72,
            "name": "C5",
            "ticks": 86640,
            "time": 184.201346,
            "velocity": 0.6299212598425197
          },
          {
            "duration": 0.12371139999999059,
            "durationTicks": 48,
            "midi": 72,
            "name": "C5",
            "ticks": 87120,
            "time": 185.43846,
            "velocity": 0.6299212598425197
          },
          {
            "duration": 0.12371139999999059,
            "durationTicks": 48,
            "midi": 74,
            "name": "D5",
            "ticks": 87120,
            "time": 185.43846,
            "velocity": 0.6299212598425197
          },
          {
            "duration": 0.12371139999999059,
            "durationTicks": 48,
            "midi": 78,
            "name": "F#5",
            "ticks": 87120,
            "time": 185.43846,
            "velocity": 0.6299212598425197
          },
          {
            "duration": 0.24742279999998118,
            "durationTicks": 96,
            "midi": 72,
            "name": "C5",
            "ticks": 87180,
            "time": 185.59309925,
            "velocity": 0.6299212598425197
          },
          {
            "duration": 0.24742279999998118,
            "durationTicks": 96,
            "midi": 74,
            "name": "D5",
            "ticks": 87180,
            "time": 185.59309925,
            "velocity": 0.6299212598425197
          },
          {
            "duration": 0.24742279999998118,
            "durationTicks": 96,
            "midi": 78,
            "name": "F#5",
            "ticks": 87180,
            "time": 185.59309925,
            "velocity": 0.6299212598425197
          },
          {
            "duration": 0.12371140000001901,
            "durationTicks": 48,
            "midi": 72,
            "name": "C5",
            "ticks": 87300,
            "time": 185.90237774999997,
            "velocity": 0.6299212598425197
          },
          {
            "duration": 0.12371140000001901,
            "durationTicks": 48,
            "midi": 74,
            "name": "D5",
            "ticks": 87300,
            "time": 185.90237774999997,
            "velocity": 0.6299212598425197
          },
          {
            "duration": 0.12371140000001901,
            "durationTicks": 48,
            "midi": 78,
            "name": "F#5",
            "ticks": 87300,
            "time": 185.90237774999997,
            "velocity": 0.6299212598425197
          },
          {
            "duration": 0.2474228000000096,
            "durationTicks": 96,
            "midi": 72,
            "name": "C5",
            "ticks": 87360,
            "time": 186.05701699999997,
            "velocity": 0.6299212598425197
          },
          {
            "duration": 0.2474228000000096,
            "durationTicks": 96,
            "midi": 74,
            "name": "D5",
            "ticks": 87360,
            "time": 186.05701699999997,
            "velocity": 0.6299212598425197
          },
          {
            "duration": 0.2474228000000096,
            "durationTicks": 96,
            "midi": 78,
            "name": "F#5",
            "ticks": 87360,
            "time": 186.05701699999997,
            "velocity": 0.6299212598425197
          },
          {
            "duration": 0.2474228000000096,
            "durationTicks": 96,
            "midi": 72,
            "name": "C5",
            "ticks": 87480,
            "time": 186.36629549999998,
            "velocity": 0.6299212598425197
          },
          {
            "duration": 0.2474228000000096,
            "durationTicks": 96,
            "midi": 74,
            "name": "D5",
            "ticks": 87480,
            "time": 186.36629549999998,
            "velocity": 0.6299212598425197
          },
          {
            "duration": 0.2474228000000096,
            "durationTicks": 96,
            "midi": 78,
            "name": "F#5",
            "ticks": 87480,
            "time": 186.36629549999998,
            "velocity": 0.6299212598425197
          },
          {
            "duration": 0.4948456000000192,
            "durationTicks": 192,
            "midi": 74,
            "name": "D5",
            "ticks": 87600,
            "time": 186.67557399999998,
            "velocity": 0.6299212598425197
          },
          {
            "duration": 0.4948456000000192,
            "durationTicks": 192,
            "midi": 71,
            "name": "B4",
            "ticks": 87600,
            "time": 186.67557399999998,
            "velocity": 0.6299212598425197
          },
          {
            "duration": 0.4948456000000192,
            "durationTicks": 192,
            "midi": 67,
            "name": "G4",
            "ticks": 87600,
            "time": 186.67557399999998,
            "velocity": 0.6299212598425197
          },
          {
            "duration": 0.4948455999999908,
            "durationTicks": 192,
            "midi": 76,
            "name": "E5",
            "ticks": 88080,
            "time": 187.912688,
            "velocity": 0.6299212598425197
          },
          {
            "duration": 0.4948455999999908,
            "durationTicks": 192,
            "midi": 72,
            "name": "C5",
            "ticks": 88080,
            "time": 187.912688,
            "velocity": 0.6299212598425197
          },
          {
            "duration": 0.4948455999999908,
            "durationTicks": 192,
            "midi": 67,
            "name": "G4",
            "ticks": 88080,
            "time": 187.912688,
            "velocity": 0.6299212598425197
          },
          {
            "duration": 0.4948455999999908,
            "durationTicks": 192,
            "midi": 72,
            "name": "C5",
            "ticks": 88560,
            "time": 189.149802,
            "velocity": 0.6299212598425197
          },
          {
            "duration": 0.4948455999999908,
            "durationTicks": 192,
            "midi": 74,
            "name": "D5",
            "ticks": 88560,
            "time": 189.149802,
            "velocity": 0.6299212598425197
          },
          {
            "duration": 0.4948455999999908,
            "durationTicks": 192,
            "midi": 78,
            "name": "F#5",
            "ticks": 88560,
            "time": 189.149802,
            "velocity": 0.6299212598425197
          },
          {
            "duration": 0.12371139999999059,
            "durationTicks": 48,
            "midi": 72,
            "name": "C5",
            "ticks": 89040,
            "time": 190.38691599999999,
            "velocity": 0.6299212598425197
          },
          {
            "duration": 0.12371139999999059,
            "durationTicks": 48,
            "midi": 74,
            "name": "D5",
            "ticks": 89040,
            "time": 190.38691599999999,
            "velocity": 0.6299212598425197
          },
          {
            "duration": 0.12371139999999059,
            "durationTicks": 48,
            "midi": 78,
            "name": "F#5",
            "ticks": 89040,
            "time": 190.38691599999999,
            "velocity": 0.6299212598425197
          },
          {
            "duration": 0.12371139999999059,
            "durationTicks": 48,
            "midi": 72,
            "name": "C5",
            "ticks": 89100,
            "time": 190.54155525,
            "velocity": 0.6299212598425197
          },
          {
            "duration": 0.12371139999999059,
            "durationTicks": 48,
            "midi": 74,
            "name": "D5",
            "ticks": 89100,
            "time": 190.54155525,
            "velocity": 0.6299212598425197
          },
          {
            "duration": 0.12371139999999059,
            "durationTicks": 48,
            "midi": 78,
            "name": "F#5",
            "ticks": 89100,
            "time": 190.54155525,
            "velocity": 0.6299212598425197
          },
          {
            "duration": 0.12371139999999059,
            "durationTicks": 48,
            "midi": 72,
            "name": "C5",
            "ticks": 89160,
            "time": 190.6961945,
            "velocity": 0.6299212598425197
          },
          {
            "duration": 0.12371139999999059,
            "durationTicks": 48,
            "midi": 74,
            "name": "D5",
            "ticks": 89160,
            "time": 190.6961945,
            "velocity": 0.6299212598425197
          },
          {
            "duration": 0.12371139999999059,
            "durationTicks": 48,
            "midi": 78,
            "name": "F#5",
            "ticks": 89160,
            "time": 190.6961945,
            "velocity": 0.6299212598425197
          },
          {
            "duration": 0.12371139999999059,
            "durationTicks": 48,
            "midi": 72,
            "name": "C5",
            "ticks": 89220,
            "time": 190.85083375,
            "velocity": 0.6299212598425197
          },
          {
            "duration": 0.12371139999999059,
            "durationTicks": 48,
            "midi": 74,
            "name": "D5",
            "ticks": 89220,
            "time": 190.85083375,
            "velocity": 0.6299212598425197
          },
          {
            "duration": 0.12371139999999059,
            "durationTicks": 48,
            "midi": 78,
            "name": "F#5",
            "ticks": 89220,
            "time": 190.85083375,
            "velocity": 0.6299212598425197
          },
          {
            "duration": 0.12371139999999059,
            "durationTicks": 48,
            "midi": 72,
            "name": "C5",
            "ticks": 89280,
            "time": 191.005473,
            "velocity": 0.6299212598425197
          },
          {
            "duration": 0.12371139999999059,
            "durationTicks": 48,
            "midi": 74,
            "name": "D5",
            "ticks": 89280,
            "time": 191.005473,
            "velocity": 0.6299212598425197
          },
          {
            "duration": 0.12371139999999059,
            "durationTicks": 48,
            "midi": 78,
            "name": "F#5",
            "ticks": 89280,
            "time": 191.005473,
            "velocity": 0.6299212598425197
          },
          {
            "duration": 0.12371139999999059,
            "durationTicks": 48,
            "midi": 72,
            "name": "C5",
            "ticks": 89340,
            "time": 191.16011225,
            "velocity": 0.6299212598425197
          },
          {
            "duration": 0.12371139999999059,
            "durationTicks": 48,
            "midi": 74,
            "name": "D5",
            "ticks": 89340,
            "time": 191.16011225,
            "velocity": 0.6299212598425197
          },
          {
            "duration": 0.12371139999999059,
            "durationTicks": 48,
            "midi": 78,
            "name": "F#5",
            "ticks": 89340,
            "time": 191.16011225,
            "velocity": 0.6299212598425197
          },
          {
            "duration": 0.12371139999999059,
            "durationTicks": 48,
            "midi": 72,
            "name": "C5",
            "ticks": 89400,
            "time": 191.3147515,
            "velocity": 0.6299212598425197
          },
          {
            "duration": 0.12371139999999059,
            "durationTicks": 48,
            "midi": 74,
            "name": "D5",
            "ticks": 89400,
            "time": 191.3147515,
            "velocity": 0.6299212598425197
          },
          {
            "duration": 0.12371139999999059,
            "durationTicks": 48,
            "midi": 78,
            "name": "F#5",
            "ticks": 89400,
            "time": 191.3147515,
            "velocity": 0.6299212598425197
          },
          {
            "duration": 0.12371139999999059,
            "durationTicks": 48,
            "midi": 72,
            "name": "C5",
            "ticks": 89460,
            "time": 191.46939075,
            "velocity": 0.6299212598425197
          },
          {
            "duration": 0.12371139999999059,
            "durationTicks": 48,
            "midi": 74,
            "name": "D5",
            "ticks": 89460,
            "time": 191.46939075,
            "velocity": 0.6299212598425197
          },
          {
            "duration": 0.12371139999999059,
            "durationTicks": 48,
            "midi": 78,
            "name": "F#5",
            "ticks": 89460,
            "time": 191.46939075,
            "velocity": 0.6299212598425197
          },
          {
            "duration": 1.9793823999999915,
            "durationTicks": 768,
            "midi": 81,
            "name": "A5",
            "ticks": 89520,
            "time": 191.62403,
            "velocity": 0.3779527559055118
          },
          {
            "duration": 4.453610399999974,
            "durationTicks": 1728,
            "midi": 69,
            "name": "A4",
            "ticks": 89520,
            "time": 191.62403,
            "velocity": 0.3779527559055118
          },
          {
            "duration": 1.9793823999999915,
            "durationTicks": 768,
            "midi": 74,
            "name": "D5",
            "ticks": 89520,
            "time": 191.62403,
            "velocity": 0.3779527559055118
          },
          {
            "duration": 1.9793823999999915,
            "durationTicks": 768,
            "midi": 78,
            "name": "F#5",
            "ticks": 89520,
            "time": 191.62403,
            "velocity": 0.3779527559055118
          },
          {
            "duration": 1.9793823999999915,
            "durationTicks": 768,
            "midi": 76,
            "name": "E5",
            "ticks": 90480,
            "time": 194.098258,
            "velocity": 0.5118110236220472
          },
          {
            "duration": 1.9793823999999915,
            "durationTicks": 768,
            "midi": 73,
            "name": "C#5",
            "ticks": 90480,
            "time": 194.098258,
            "velocity": 0.5118110236220472
          },
          {
            "duration": 0.4948456000000192,
            "durationTicks": 192,
            "midi": 67,
            "name": "G4",
            "ticks": 91440,
            "time": 196.57248599999997,
            "velocity": 0.25196850393700787
          },
          {
            "duration": 0.4948456000000192,
            "durationTicks": 192,
            "midi": 71,
            "name": "B4",
            "ticks": 91440,
            "time": 196.57248599999997,
            "velocity": 0.25196850393700787
          },
          {
            "duration": 0.4948456000000192,
            "durationTicks": 192,
            "midi": 74,
            "name": "D5",
            "ticks": 91440,
            "time": 196.57248599999997,
            "velocity": 0.25196850393700787
          },
          {
            "duration": 0.4948455999999908,
            "durationTicks": 192,
            "midi": 67,
            "name": "G4",
            "ticks": 91920,
            "time": 197.8096,
            "velocity": 0.25196850393700787
          },
          {
            "duration": 0.4948455999999908,
            "durationTicks": 192,
            "midi": 72,
            "name": "C5",
            "ticks": 91920,
            "time": 197.8096,
            "velocity": 0.25196850393700787
          },
          {
            "duration": 0.4948455999999908,
            "durationTicks": 192,
            "midi": 76,
            "name": "E5",
            "ticks": 91920,
            "time": 197.8096,
            "velocity": 0.25196850393700787
          },
          {
            "duration": 0.4948455999999908,
            "durationTicks": 192,
            "midi": 74,
            "name": "D5",
            "ticks": 92400,
            "time": 199.04671399999998,
            "velocity": 0.25196850393700787
          },
          {
            "duration": 0.4948455999999908,
            "durationTicks": 192,
            "midi": 78,
            "name": "F#5",
            "ticks": 92400,
            "time": 199.04671399999998,
            "velocity": 0.25196850393700787
          },
          {
            "duration": 0.4948455999999908,
            "durationTicks": 192,
            "midi": 72,
            "name": "C5",
            "ticks": 92400,
            "time": 199.04671399999998,
            "velocity": 0.25196850393700787
          },
          {
            "duration": 0.12371140000001901,
            "durationTicks": 48,
            "midi": 74,
            "name": "D5",
            "ticks": 92880,
            "time": 200.28382799999997,
            "velocity": 0.25196850393700787
          },
          {
            "duration": 0.12371140000001901,
            "durationTicks": 48,
            "midi": 72,
            "name": "C5",
            "ticks": 92880,
            "time": 200.28382799999997,
            "velocity": 0.25196850393700787
          },
          {
            "duration": 0.12371140000001901,
            "durationTicks": 48,
            "midi": 78,
            "name": "F#5",
            "ticks": 92880,
            "time": 200.28382799999997,
            "velocity": 0.25196850393700787
          },
          {
            "duration": 0.2474228000000096,
            "durationTicks": 96,
            "midi": 74,
            "name": "D5",
            "ticks": 92940,
            "time": 200.43846724999997,
            "velocity": 0.25196850393700787
          },
          {
            "duration": 0.2474228000000096,
            "durationTicks": 96,
            "midi": 72,
            "name": "C5",
            "ticks": 92940,
            "time": 200.43846724999997,
            "velocity": 0.25196850393700787
          },
          {
            "duration": 0.2474228000000096,
            "durationTicks": 96,
            "midi": 78,
            "name": "F#5",
            "ticks": 92940,
            "time": 200.43846724999997,
            "velocity": 0.25196850393700787
          },
          {
            "duration": 0.12371140000001901,
            "durationTicks": 48,
            "midi": 78,
            "name": "F#5",
            "ticks": 93060,
            "time": 200.74774574999998,
            "velocity": 0.25196850393700787
          },
          {
            "duration": 0.12371140000001901,
            "durationTicks": 48,
            "midi": 74,
            "name": "D5",
            "ticks": 93060,
            "time": 200.74774574999998,
            "velocity": 0.25196850393700787
          },
          {
            "duration": 0.12371140000001901,
            "durationTicks": 48,
            "midi": 72,
            "name": "C5",
            "ticks": 93060,
            "time": 200.74774574999998,
            "velocity": 0.25196850393700787
          },
          {
            "duration": 0.2474228000000096,
            "durationTicks": 96,
            "midi": 78,
            "name": "F#5",
            "ticks": 93120,
            "time": 200.90238499999998,
            "velocity": 0.25196850393700787
          },
          {
            "duration": 0.2474228000000096,
            "durationTicks": 96,
            "midi": 74,
            "name": "D5",
            "ticks": 93120,
            "time": 200.90238499999998,
            "velocity": 0.25196850393700787
          },
          {
            "duration": 0.2474228000000096,
            "durationTicks": 96,
            "midi": 72,
            "name": "C5",
            "ticks": 93120,
            "time": 200.90238499999998,
            "velocity": 0.25196850393700787
          },
          {
            "duration": 0.2474228000000096,
            "durationTicks": 96,
            "midi": 78,
            "name": "F#5",
            "ticks": 93240,
            "time": 201.2116635,
            "velocity": 0.25196850393700787
          },
          {
            "duration": 0.2474228000000096,
            "durationTicks": 96,
            "midi": 74,
            "name": "D5",
            "ticks": 93240,
            "time": 201.2116635,
            "velocity": 0.25196850393700787
          },
          {
            "duration": 0.2474228000000096,
            "durationTicks": 96,
            "midi": 72,
            "name": "C5",
            "ticks": 93240,
            "time": 201.2116635,
            "velocity": 0.25196850393700787
          },
          {
            "duration": 0.4948455999999908,
            "durationTicks": 192,
            "midi": 67,
            "name": "G4",
            "ticks": 93360,
            "time": 201.520942,
            "velocity": 0.1732283464566929
          },
          {
            "duration": 0.4948455999999908,
            "durationTicks": 192,
            "midi": 71,
            "name": "B4",
            "ticks": 93360,
            "time": 201.520942,
            "velocity": 0.1732283464566929
          },
          {
            "duration": 0.4948455999999908,
            "durationTicks": 192,
            "midi": 74,
            "name": "D5",
            "ticks": 93360,
            "time": 201.520942,
            "velocity": 0.1732283464566929
          },
          {
            "duration": 0.4948455999999908,
            "durationTicks": 192,
            "midi": 67,
            "name": "G4",
            "ticks": 93840,
            "time": 202.75805599999998,
            "velocity": 0.1732283464566929
          },
          {
            "duration": 0.4948455999999908,
            "durationTicks": 192,
            "midi": 72,
            "name": "C5",
            "ticks": 93840,
            "time": 202.75805599999998,
            "velocity": 0.1732283464566929
          },
          {
            "duration": 0.4948455999999908,
            "durationTicks": 192,
            "midi": 76,
            "name": "E5",
            "ticks": 93840,
            "time": 202.75805599999998,
            "velocity": 0.1732283464566929
          }
        ],
        "endOfTrackTicks": 94032
      },
      {
        "channel": 4,
        "controlChanges": {
          "7": [
            {
              "number": 7,
              "ticks": 0,
              "time": 0,
              "value": 0.5590551181102362
            }
          ]
        },
        "pitchBends": [],
        "instrument": {
          "family": "world",
          "number": 104,
          "name": "sitar"
        },
        "name": "Sitar (P105)",
        "notes": [
          {
            "duration": 0.36923039999999996,
            "durationTicks": 192,
            "midi": 64,
            "name": "E4",
            "ticks": 0,
            "time": 0,
            "velocity": 0.6299212598425197
          },
          {
            "duration": 0.3692304,
            "durationTicks": 192,
            "midi": 69,
            "name": "A4",
            "ticks": 240,
            "time": 0.46153799999999995,
            "velocity": 0.6299212598425197
          },
          {
            "duration": 0.36923039999999985,
            "durationTicks": 192,
            "midi": 76,
            "name": "E5",
            "ticks": 480,
            "time": 0.9230759999999999,
            "velocity": 0.6299212598425197
          },
          {
            "duration": 0.36923039999999996,
            "durationTicks": 192,
            "midi": 67,
            "name": "G4",
            "ticks": 720,
            "time": 1.3846139999999998,
            "velocity": 0.6299212598425197
          },
          {
            "duration": 0.36923039999999996,
            "durationTicks": 192,
            "midi": 76,
            "name": "E5",
            "ticks": 960,
            "time": 1.8461519999999998,
            "velocity": 0.6299212598425197
          },
          {
            "duration": 0.3692304000000002,
            "durationTicks": 192,
            "midi": 69,
            "name": "A4",
            "ticks": 1200,
            "time": 2.3076899999999996,
            "velocity": 0.6299212598425197
          },
          {
            "duration": 0.3692304000000002,
            "durationTicks": 192,
            "midi": 66,
            "name": "F#4",
            "ticks": 1440,
            "time": 2.7692279999999996,
            "velocity": 0.6299212598425197
          },
          {
            "duration": 0.36923039999999974,
            "durationTicks": 192,
            "midi": 69,
            "name": "A4",
            "ticks": 1680,
            "time": 3.2307659999999996,
            "velocity": 0.6299212598425197
          },
          {
            "duration": 0.3692304000000006,
            "durationTicks": 192,
            "midi": 76,
            "name": "E5",
            "ticks": 1920,
            "time": 3.6923039999999996,
            "velocity": 0.6299212598425197
          },
          {
            "duration": 0.36923040000000107,
            "durationTicks": 192,
            "midi": 65,
            "name": "F4",
            "ticks": 2160,
            "time": 4.153841999999999,
            "velocity": 0.6299212598425197
          },
          {
            "duration": 0.18461520000000053,
            "durationTicks": 96,
            "midi": 74,
            "name": "D5",
            "ticks": 2400,
            "time": 4.615379999999999,
            "velocity": 0.6299212598425197
          },
          {
            "duration": 0.18461519999999965,
            "durationTicks": 96,
            "midi": 73,
            "name": "C#5",
            "ticks": 2520,
            "time": 4.846149,
            "velocity": 0.6299212598425197
          },
          {
            "duration": 0.3692304000000002,
            "durationTicks": 192,
            "midi": 69,
            "name": "A4",
            "ticks": 2640,
            "time": 5.076917999999999,
            "velocity": 0.6299212598425197
          },
          {
            "duration": 0.3692304000000002,
            "durationTicks": 192,
            "midi": 64,
            "name": "E4",
            "ticks": 2880,
            "time": 5.538455999999999,
            "velocity": 0.6299212598425197
          },
          {
            "duration": 0.3692304000000002,
            "durationTicks": 192,
            "midi": 69,
            "name": "A4",
            "ticks": 3120,
            "time": 5.999993999999999,
            "velocity": 0.6299212598425197
          },
          {
            "duration": 0.3692304000000002,
            "durationTicks": 192,
            "midi": 76,
            "name": "E5",
            "ticks": 3360,
            "time": 6.461531999999999,
            "velocity": 0.6299212598425197
          },
          {
            "duration": 0.3692304000000002,
            "durationTicks": 192,
            "midi": 67,
            "name": "G4",
            "ticks": 3600,
            "time": 6.923069999999999,
            "velocity": 0.6299212598425197
          },
          {
            "duration": 0.3692304000000002,
            "durationTicks": 192,
            "midi": 76,
            "name": "E5",
            "ticks": 3840,
            "time": 7.384607999999999,
            "velocity": 0.6299212598425197
          },
          {
            "duration": 0.36923040000000107,
            "durationTicks": 192,
            "midi": 69,
            "name": "A4",
            "ticks": 4080,
            "time": 7.846145999999999,
            "velocity": 0.6299212598425197
          },
          {
            "duration": 0.36923040000000107,
            "durationTicks": 192,
            "midi": 66,
            "name": "F#4",
            "ticks": 4320,
            "time": 8.307683999999998,
            "velocity": 0.6299212598425197
          },
          {
            "duration": 0.3692303999999993,
            "durationTicks": 192,
            "midi": 69,
            "name": "A4",
            "ticks": 4560,
            "time": 8.769222,
            "velocity": 0.6299212598425197
          },
          {
            "duration": 0.36923040000000107,
            "durationTicks": 192,
            "midi": 76,
            "name": "E5",
            "ticks": 4800,
            "time": 9.230759999999998,
            "velocity": 0.6299212598425197
          },
          {
            "duration": 0.3692303999999993,
            "durationTicks": 192,
            "midi": 65,
            "name": "F4",
            "ticks": 5040,
            "time": 9.692298,
            "velocity": 0.6299212598425197
          },
          {
            "duration": 0.18461519999999965,
            "durationTicks": 96,
            "midi": 74,
            "name": "D5",
            "ticks": 5280,
            "time": 10.153835999999998,
            "velocity": 0.6299212598425197
          },
          {
            "duration": 0.18461519999999965,
            "durationTicks": 96,
            "midi": 73,
            "name": "C#5",
            "ticks": 5400,
            "time": 10.384604999999999,
            "velocity": 0.6299212598425197
          },
          {
            "duration": 0.3692303999999993,
            "durationTicks": 192,
            "midi": 69,
            "name": "A4",
            "ticks": 5520,
            "time": 10.615374,
            "velocity": 0.6299212598425197
          },
          {
            "duration": 0.36923040000000107,
            "durationTicks": 192,
            "midi": 64,
            "name": "E4",
            "ticks": 5760,
            "time": 11.076911999999998,
            "velocity": 0.6299212598425197
          },
          {
            "duration": 0.3692303999999993,
            "durationTicks": 192,
            "midi": 69,
            "name": "A4",
            "ticks": 6000,
            "time": 11.53845,
            "velocity": 0.6299212598425197
          },
          {
            "duration": 0.36923040000000107,
            "durationTicks": 192,
            "midi": 76,
            "name": "E5",
            "ticks": 6240,
            "time": 11.999987999999998,
            "velocity": 0.6299212598425197
          },
          {
            "duration": 0.3692303999999993,
            "durationTicks": 192,
            "midi": 67,
            "name": "G4",
            "ticks": 6480,
            "time": 12.461526,
            "velocity": 0.6299212598425197
          },
          {
            "duration": 0.36923040000000107,
            "durationTicks": 192,
            "midi": 76,
            "name": "E5",
            "ticks": 6720,
            "time": 12.923063999999998,
            "velocity": 0.6299212598425197
          },
          {
            "duration": 0.3692303999999993,
            "durationTicks": 192,
            "midi": 69,
            "name": "A4",
            "ticks": 6960,
            "time": 13.384602,
            "velocity": 0.6299212598425197
          },
          {
            "duration": 0.36923040000000107,
            "durationTicks": 192,
            "midi": 66,
            "name": "F#4",
            "ticks": 7200,
            "time": 13.846139999999998,
            "velocity": 0.6299212598425197
          },
          {
            "duration": 0.3692303999999993,
            "durationTicks": 192,
            "midi": 69,
            "name": "A4",
            "ticks": 7440,
            "time": 14.307678,
            "velocity": 0.6299212598425197
          },
          {
            "duration": 0.3692303999999993,
            "durationTicks": 192,
            "midi": 76,
            "name": "E5",
            "ticks": 7680,
            "time": 14.769215999999998,
            "velocity": 0.6299212598425197
          },
          {
            "duration": 0.3692303999999993,
            "durationTicks": 192,
            "midi": 72,
            "name": "C5",
            "ticks": 7920,
            "time": 15.230753999999997,
            "velocity": 0.6299212598425197
          },
          {
            "duration": 0.3692303999999993,
            "durationTicks": 192,
            "midi": 69,
            "name": "A4",
            "ticks": 8160,
            "time": 15.692291999999998,
            "velocity": 0.6299212598425197
          },
          {
            "duration": 0.3692303999999993,
            "durationTicks": 192,
            "midi": 72,
            "name": "C5",
            "ticks": 8400,
            "time": 16.15383,
            "velocity": 0.6299212598425197
          },
          {
            "duration": 1.1076912000000014,
            "durationTicks": 576,
            "midi": 69,
            "name": "A4",
            "ticks": 8640,
            "time": 16.615367999999997,
            "velocity": 0.6299212598425197
          },
          {
            "duration": 0.36923039999999574,
            "durationTicks": 192,
            "midi": 64,
            "name": "E4",
            "ticks": 9360,
            "time": 17.999982,
            "velocity": 0.6299212598425197
          },
          {
            "duration": 0.3692303999999993,
            "durationTicks": 192,
            "midi": 69,
            "name": "A4",
            "ticks": 9600,
            "time": 18.461519999999997,
            "velocity": 0.6299212598425197
          },
          {
            "duration": 0.3692303999999993,
            "durationTicks": 192,
            "midi": 76,
            "name": "E5",
            "ticks": 9840,
            "time": 18.923057999999997,
            "velocity": 0.6299212598425197
          },
          {
            "duration": 0.3692303999999993,
            "durationTicks": 192,
            "midi": 67,
            "name": "G4",
            "ticks": 10080,
            "time": 19.384596,
            "velocity": 0.6299212598425197
          },
          {
            "duration": 0.36923039999999574,
            "durationTicks": 192,
            "midi": 76,
            "name": "E5",
            "ticks": 10320,
            "time": 19.846134,
            "velocity": 0.6299212598425197
          },
          {
            "duration": 0.3692303999999993,
            "durationTicks": 192,
            "midi": 69,
            "name": "A4",
            "ticks": 10560,
            "time": 20.307671999999997,
            "velocity": 0.6299212598425197
          },
          {
            "duration": 0.3692303999999993,
            "durationTicks": 192,
            "midi": 66,
            "name": "F#4",
            "ticks": 10800,
            "time": 20.769209999999998,
            "velocity": 0.6299212598425197
          },
          {
            "duration": 0.3692303999999993,
            "durationTicks": 192,
            "midi": 69,
            "name": "A4",
            "ticks": 11040,
            "time": 21.230748,
            "velocity": 0.6299212598425197
          },
          {
            "duration": 0.36923039999999574,
            "durationTicks": 192,
            "midi": 76,
            "name": "E5",
            "ticks": 11280,
            "time": 21.692286,
            "velocity": 0.6299212598425197
          },
          {
            "duration": 0.3692303999999993,
            "durationTicks": 192,
            "midi": 65,
            "name": "F4",
            "ticks": 11520,
            "time": 22.153823999999997,
            "velocity": 0.6299212598425197
          },
          {
            "duration": 0.18461519999999965,
            "durationTicks": 96,
            "midi": 74,
            "name": "D5",
            "ticks": 11760,
            "time": 22.615361999999998,
            "velocity": 0.6299212598425197
          },
          {
            "duration": 0.18461519999999965,
            "durationTicks": 96,
            "midi": 73,
            "name": "C#5",
            "ticks": 11880,
            "time": 22.846130999999996,
            "velocity": 0.6299212598425197
          },
          {
            "duration": 0.3692303999999993,
            "durationTicks": 192,
            "midi": 69,
            "name": "A4",
            "ticks": 12000,
            "time": 23.0769,
            "velocity": 0.6299212598425197
          },
          {
            "duration": 0.3692303999999993,
            "durationTicks": 192,
            "midi": 64,
            "name": "E4",
            "ticks": 12240,
            "time": 23.538437999999996,
            "velocity": 0.6299212598425197
          },
          {
            "duration": 0.3692303999999993,
            "durationTicks": 192,
            "midi": 69,
            "name": "A4",
            "ticks": 12480,
            "time": 23.999975999999997,
            "velocity": 0.6299212598425197
          },
          {
            "duration": 0.3692303999999993,
            "durationTicks": 192,
            "midi": 76,
            "name": "E5",
            "ticks": 12720,
            "time": 24.461513999999998,
            "velocity": 0.6299212598425197
          },
          {
            "duration": 0.36923039999999574,
            "durationTicks": 192,
            "midi": 67,
            "name": "G4",
            "ticks": 12960,
            "time": 24.923052,
            "velocity": 0.6299212598425197
          },
          {
            "duration": 0.3692303999999993,
            "durationTicks": 192,
            "midi": 76,
            "name": "E5",
            "ticks": 13200,
            "time": 25.384589999999996,
            "velocity": 0.6299212598425197
          },
          {
            "duration": 0.3692303999999993,
            "durationTicks": 192,
            "midi": 69,
            "name": "A4",
            "ticks": 13440,
            "time": 25.846127999999997,
            "velocity": 0.6299212598425197
          },
          {
            "duration": 0.3692303999999993,
            "durationTicks": 192,
            "midi": 61,
            "name": "C#4",
            "ticks": 13680,
            "time": 26.307665999999998,
            "velocity": 0.6299212598425197
          },
          {
            "duration": 0.36923039999999574,
            "durationTicks": 192,
            "midi": 66,
            "name": "F#4",
            "ticks": 13920,
            "time": 26.769204,
            "velocity": 0.6299212598425197
          },
          {
            "duration": 0.3692303999999993,
            "durationTicks": 192,
            "midi": 61,
            "name": "C#4",
            "ticks": 14160,
            "time": 27.230741999999996,
            "velocity": 0.6299212598425197
          },
          {
            "duration": 0.3692303999999993,
            "durationTicks": 192,
            "midi": 66,
            "name": "F#4",
            "ticks": 14400,
            "time": 27.692279999999997,
            "velocity": 0.6299212598425197
          },
          {
            "duration": 0.3692303999999993,
            "durationTicks": 192,
            "midi": 61,
            "name": "C#4",
            "ticks": 14640,
            "time": 28.153817999999998,
            "velocity": 0.6299212598425197
          },
          {
            "duration": 0.36923039999999574,
            "durationTicks": 192,
            "midi": 66,
            "name": "F#4",
            "ticks": 14880,
            "time": 28.615356,
            "velocity": 0.6299212598425197
          },
          {
            "duration": 0.3692303999999993,
            "durationTicks": 192,
            "midi": 62,
            "name": "D4",
            "ticks": 15120,
            "time": 29.076893999999996,
            "velocity": 0.6299212598425197
          },
          {
            "duration": 0.3692303999999993,
            "durationTicks": 192,
            "midi": 65,
            "name": "F4",
            "ticks": 15360,
            "time": 29.538431999999997,
            "velocity": 0.6299212598425197
          },
          {
            "duration": 0.3692303999999993,
            "durationTicks": 192,
            "midi": 62,
            "name": "D4",
            "ticks": 15600,
            "time": 29.999969999999998,
            "velocity": 0.6299212598425197
          },
          {
            "duration": 1.107691200000005,
            "durationTicks": 576,
            "midi": 65,
            "name": "F4",
            "ticks": 15840,
            "time": 30.461507999999995,
            "velocity": 0.6299212598425197
          },
          {
            "duration": 0.061855699999995295,
            "durationTicks": 24,
            "midi": 76,
            "name": "E5",
            "ticks": 32640,
            "time": 67.636757,
            "velocity": 0.6299212598425197
          },
          {
            "duration": 0.061855700000009506,
            "durationTicks": 24,
            "midi": 74,
            "name": "D5",
            "ticks": 32670,
            "time": 67.71407662499999,
            "velocity": 0.6299212598425197
          },
          {
            "duration": 0.061855700000009506,
            "durationTicks": 24,
            "midi": 73,
            "name": "C#5",
            "ticks": 32700,
            "time": 67.79139624999999,
            "velocity": 0.6299212598425197
          },
          {
            "duration": 0.061855700000009506,
            "durationTicks": 24,
            "midi": 71,
            "name": "B4",
            "ticks": 32730,
            "time": 67.86871587499999,
            "velocity": 0.6299212598425197
          },
          {
            "duration": 0.061855700000009506,
            "durationTicks": 24,
            "midi": 69,
            "name": "A4",
            "ticks": 32760,
            "time": 67.9460355,
            "velocity": 0.6299212598425197
          },
          {
            "duration": 0.061855700000009506,
            "durationTicks": 24,
            "midi": 67,
            "name": "G4",
            "ticks": 32790,
            "time": 68.023355125,
            "velocity": 0.6299212598425197
          },
          {
            "duration": 0.061855699999995295,
            "durationTicks": 24,
            "midi": 66,
            "name": "F#4",
            "ticks": 32820,
            "time": 68.10067475,
            "velocity": 0.6299212598425197
          },
          {
            "duration": 0.061855699999995295,
            "durationTicks": 24,
            "midi": 64,
            "name": "E4",
            "ticks": 32850,
            "time": 68.177994375,
            "velocity": 0.6299212598425197
          },
          {
            "duration": 0.061855699999995295,
            "durationTicks": 24,
            "midi": 64,
            "name": "E4",
            "ticks": 32850,
            "time": 68.177994375,
            "velocity": 0.6299212598425197
          },
          {
            "duration": 0.3692304000000064,
            "durationTicks": 192,
            "midi": 64,
            "name": "E4",
            "ticks": 32880,
            "time": 68.255314,
            "velocity": 0.6299212598425197
          },
          {
            "duration": 0.3692303999999922,
            "durationTicks": 192,
            "midi": 69,
            "name": "A4",
            "ticks": 33120,
            "time": 68.716852,
            "velocity": 0.6299212598425197
          },
          {
            "duration": 0.3692304000000064,
            "durationTicks": 192,
            "midi": 76,
            "name": "E5",
            "ticks": 33360,
            "time": 69.17839,
            "velocity": 0.6299212598425197
          },
          {
            "duration": 0.3692304000000064,
            "durationTicks": 192,
            "midi": 67,
            "name": "G4",
            "ticks": 33600,
            "time": 69.639928,
            "velocity": 0.6299212598425197
          },
          {
            "duration": 0.3692303999999922,
            "durationTicks": 192,
            "midi": 76,
            "name": "E5",
            "ticks": 33840,
            "time": 70.101466,
            "velocity": 0.6299212598425197
          },
          {
            "duration": 0.3692304000000064,
            "durationTicks": 192,
            "midi": 69,
            "name": "A4",
            "ticks": 34080,
            "time": 70.56300399999999,
            "velocity": 0.6299212598425197
          },
          {
            "duration": 0.3692304000000064,
            "durationTicks": 192,
            "midi": 66,
            "name": "F#4",
            "ticks": 34320,
            "time": 71.024542,
            "velocity": 0.6299212598425197
          },
          {
            "duration": 0.3692303999999922,
            "durationTicks": 192,
            "midi": 69,
            "name": "A4",
            "ticks": 34560,
            "time": 71.48608,
            "velocity": 0.6299212598425197
          },
          {
            "duration": 0.3692304000000064,
            "durationTicks": 192,
            "midi": 76,
            "name": "E5",
            "ticks": 34800,
            "time": 71.94761799999999,
            "velocity": 0.6299212598425197
          },
          {
            "duration": 0.3692304000000064,
            "durationTicks": 192,
            "midi": 65,
            "name": "F4",
            "ticks": 35040,
            "time": 72.409156,
            "velocity": 0.6299212598425197
          },
          {
            "duration": 0.1846151999999961,
            "durationTicks": 96,
            "midi": 74,
            "name": "D5",
            "ticks": 35280,
            "time": 72.870694,
            "velocity": 0.6299212598425197
          },
          {
            "duration": 0.1846151999999961,
            "durationTicks": 96,
            "midi": 73,
            "name": "C#5",
            "ticks": 35400,
            "time": 73.101463,
            "velocity": 0.6299212598425197
          },
          {
            "duration": 0.3692303999999922,
            "durationTicks": 192,
            "midi": 69,
            "name": "A4",
            "ticks": 35520,
            "time": 73.332232,
            "velocity": 0.6299212598425197
          },
          {
            "duration": 0.3692304000000064,
            "durationTicks": 192,
            "midi": 64,
            "name": "E4",
            "ticks": 35760,
            "time": 73.79377,
            "velocity": 0.6299212598425197
          },
          {
            "duration": 0.3692303999999922,
            "durationTicks": 192,
            "midi": 69,
            "name": "A4",
            "ticks": 36000,
            "time": 74.255308,
            "velocity": 0.6299212598425197
          },
          {
            "duration": 0.3692303999999922,
            "durationTicks": 192,
            "midi": 76,
            "name": "E5",
            "ticks": 36240,
            "time": 74.716846,
            "velocity": 0.6299212598425197
          },
          {
            "duration": 0.3692304000000064,
            "durationTicks": 192,
            "midi": 67,
            "name": "G4",
            "ticks": 36480,
            "time": 75.178384,
            "velocity": 0.6299212598425197
          },
          {
            "duration": 0.3692304000000064,
            "durationTicks": 192,
            "midi": 76,
            "name": "E5",
            "ticks": 36720,
            "time": 75.639922,
            "velocity": 0.6299212598425197
          },
          {
            "duration": 0.3692303999999922,
            "durationTicks": 192,
            "midi": 69,
            "name": "A4",
            "ticks": 36960,
            "time": 76.10146,
            "velocity": 0.6299212598425197
          },
          {
            "duration": 0.3692304000000064,
            "durationTicks": 192,
            "midi": 66,
            "name": "F#4",
            "ticks": 37200,
            "time": 76.562998,
            "velocity": 0.6299212598425197
          },
          {
            "duration": 0.3692304000000064,
            "durationTicks": 192,
            "midi": 69,
            "name": "A4",
            "ticks": 37440,
            "time": 77.024536,
            "velocity": 0.6299212598425197
          },
          {
            "duration": 0.3692303999999922,
            "durationTicks": 192,
            "midi": 76,
            "name": "E5",
            "ticks": 37680,
            "time": 77.486074,
            "velocity": 0.6299212598425197
          },
          {
            "duration": 0.3692304000000064,
            "durationTicks": 192,
            "midi": 72,
            "name": "C5",
            "ticks": 37920,
            "time": 77.94761199999999,
            "velocity": 0.6299212598425197
          },
          {
            "duration": 0.3692304000000064,
            "durationTicks": 192,
            "midi": 69,
            "name": "A4",
            "ticks": 38160,
            "time": 78.40915,
            "velocity": 0.6299212598425197
          },
          {
            "duration": 0.3692303999999922,
            "durationTicks": 192,
            "midi": 72,
            "name": "C5",
            "ticks": 38400,
            "time": 78.870688,
            "velocity": 0.6299212598425197
          },
          {
            "duration": 1.107691200000005,
            "durationTicks": 576,
            "midi": 69,
            "name": "A4",
            "ticks": 38640,
            "time": 79.33222599999999,
            "velocity": 0.6299212598425197
          },
          {
            "duration": 0.3692304000000064,
            "durationTicks": 192,
            "midi": 64,
            "name": "E4",
            "ticks": 39360,
            "time": 80.71683999999999,
            "velocity": 0.6299212598425197
          },
          {
            "duration": 0.3692304000000064,
            "durationTicks": 192,
            "midi": 69,
            "name": "A4",
            "ticks": 39600,
            "time": 81.178378,
            "velocity": 0.6299212598425197
          },
          {
            "duration": 0.3692303999999922,
            "durationTicks": 192,
            "midi": 76,
            "name": "E5",
            "ticks": 39840,
            "time": 81.639916,
            "velocity": 0.6299212598425197
          },
          {
            "duration": 0.3692304000000064,
            "durationTicks": 192,
            "midi": 67,
            "name": "G4",
            "ticks": 40080,
            "time": 82.10145399999999,
            "velocity": 0.6299212598425197
          },
          {
            "duration": 0.3692304000000064,
            "durationTicks": 192,
            "midi": 76,
            "name": "E5",
            "ticks": 40320,
            "time": 82.562992,
            "velocity": 0.6299212598425197
          },
          {
            "duration": 0.3692303999999922,
            "durationTicks": 192,
            "midi": 69,
            "name": "A4",
            "ticks": 40560,
            "time": 83.02453,
            "velocity": 0.6299212598425197
          },
          {
            "duration": 0.3692304000000064,
            "durationTicks": 192,
            "midi": 66,
            "name": "F#4",
            "ticks": 40800,
            "time": 83.48606799999999,
            "velocity": 0.6299212598425197
          },
          {
            "duration": 0.3692304000000064,
            "durationTicks": 192,
            "midi": 69,
            "name": "A4",
            "ticks": 41040,
            "time": 83.947606,
            "velocity": 0.6299212598425197
          },
          {
            "duration": 0.3692303999999922,
            "durationTicks": 192,
            "midi": 76,
            "name": "E5",
            "ticks": 41280,
            "time": 84.409144,
            "velocity": 0.6299212598425197
          },
          {
            "duration": 0.3692304000000064,
            "durationTicks": 192,
            "midi": 65,
            "name": "F4",
            "ticks": 41520,
            "time": 84.87068199999999,
            "velocity": 0.6299212598425197
          },
          {
            "duration": 0.1846152000000103,
            "durationTicks": 96,
            "midi": 74,
            "name": "D5",
            "ticks": 41760,
            "time": 85.33221999999999,
            "velocity": 0.6299212598425197
          },
          {
            "duration": 0.1846151999999961,
            "durationTicks": 96,
            "midi": 73,
            "name": "C#5",
            "ticks": 41880,
            "time": 85.562989,
            "velocity": 0.6299212598425197
          },
          {
            "duration": 0.3692303999999922,
            "durationTicks": 192,
            "midi": 69,
            "name": "A4",
            "ticks": 42000,
            "time": 85.793758,
            "velocity": 0.6299212598425197
          },
          {
            "duration": 0.3692303999999922,
            "durationTicks": 192,
            "midi": 64,
            "name": "E4",
            "ticks": 42240,
            "time": 86.255296,
            "velocity": 0.6299212598425197
          },
          {
            "duration": 0.3692304000000064,
            "durationTicks": 192,
            "midi": 69,
            "name": "A4",
            "ticks": 42480,
            "time": 86.71683399999999,
            "velocity": 0.6299212598425197
          },
          {
            "duration": 0.3692303999999922,
            "durationTicks": 192,
            "midi": 76,
            "name": "E5",
            "ticks": 42720,
            "time": 87.178372,
            "velocity": 0.6299212598425197
          },
          {
            "duration": 0.3692303999999922,
            "durationTicks": 192,
            "midi": 67,
            "name": "G4",
            "ticks": 42960,
            "time": 87.63991,
            "velocity": 0.6299212598425197
          },
          {
            "duration": 0.3692303999999922,
            "durationTicks": 192,
            "midi": 76,
            "name": "E5",
            "ticks": 43200,
            "time": 88.101448,
            "velocity": 0.6299212598425197
          },
          {
            "duration": 0.3692303999999922,
            "durationTicks": 192,
            "midi": 69,
            "name": "A4",
            "ticks": 43440,
            "time": 88.562986,
            "velocity": 0.6299212598425197
          },
          {
            "duration": 0.3692303999999922,
            "durationTicks": 192,
            "midi": 61,
            "name": "C#4",
            "ticks": 43680,
            "time": 89.024524,
            "velocity": 0.6299212598425197
          },
          {
            "duration": 0.3692303999999922,
            "durationTicks": 192,
            "midi": 66,
            "name": "F#4",
            "ticks": 43920,
            "time": 89.486062,
            "velocity": 0.6299212598425197
          },
          {
            "duration": 0.3692303999999922,
            "durationTicks": 192,
            "midi": 61,
            "name": "C#4",
            "ticks": 44160,
            "time": 89.9476,
            "velocity": 0.6299212598425197
          },
          {
            "duration": 0.3692303999999922,
            "durationTicks": 192,
            "midi": 66,
            "name": "F#4",
            "ticks": 44400,
            "time": 90.409138,
            "velocity": 0.6299212598425197
          },
          {
            "duration": 0.3692303999999922,
            "durationTicks": 192,
            "midi": 61,
            "name": "C#4",
            "ticks": 44640,
            "time": 90.870676,
            "velocity": 0.6299212598425197
          },
          {
            "duration": 0.3692304000000064,
            "durationTicks": 192,
            "midi": 66,
            "name": "F#4",
            "ticks": 44880,
            "time": 91.332214,
            "velocity": 0.6299212598425197
          },
          {
            "duration": 0.3692303999999922,
            "durationTicks": 192,
            "midi": 62,
            "name": "D4",
            "ticks": 45120,
            "time": 91.793752,
            "velocity": 0.6299212598425197
          },
          {
            "duration": 0.3692303999999922,
            "durationTicks": 192,
            "midi": 65,
            "name": "F4",
            "ticks": 45360,
            "time": 92.25529,
            "velocity": 0.6299212598425197
          },
          {
            "duration": 0.3692304000000064,
            "durationTicks": 192,
            "midi": 62,
            "name": "D4",
            "ticks": 45600,
            "time": 92.71682799999999,
            "velocity": 0.6299212598425197
          },
          {
            "duration": 1.1076911999999908,
            "durationTicks": 576,
            "midi": 65,
            "name": "F4",
            "ticks": 45840,
            "time": 93.178366,
            "velocity": 0.6299212598425197
          },
          {
            "duration": 0.06185570000002372,
            "durationTicks": 24,
            "midi": 76,
            "name": "E5",
            "ticks": 62640,
            "time": 130.353615,
            "velocity": 0.6299212598425197
          },
          {
            "duration": 0.061855699999995295,
            "durationTicks": 24,
            "midi": 74,
            "name": "D5",
            "ticks": 62670,
            "time": 130.430934625,
            "velocity": 0.6299212598425197
          },
          {
            "duration": 0.06185570000002372,
            "durationTicks": 24,
            "midi": 73,
            "name": "C#5",
            "ticks": 62700,
            "time": 130.50825425,
            "velocity": 0.6299212598425197
          },
          {
            "duration": 0.061855699999995295,
            "durationTicks": 24,
            "midi": 71,
            "name": "B4",
            "ticks": 62730,
            "time": 130.585573875,
            "velocity": 0.6299212598425197
          },
          {
            "duration": 0.061855699999995295,
            "durationTicks": 24,
            "midi": 69,
            "name": "A4",
            "ticks": 62760,
            "time": 130.6628935,
            "velocity": 0.6299212598425197
          },
          {
            "duration": 0.061855699999995295,
            "durationTicks": 24,
            "midi": 67,
            "name": "G4",
            "ticks": 62790,
            "time": 130.740213125,
            "velocity": 0.6299212598425197
          },
          {
            "duration": 0.061855699999995295,
            "durationTicks": 24,
            "midi": 66,
            "name": "F#4",
            "ticks": 62820,
            "time": 130.81753275,
            "velocity": 0.6299212598425197
          },
          {
            "duration": 0.061855699999995295,
            "durationTicks": 24,
            "midi": 64,
            "name": "E4",
            "ticks": 62850,
            "time": 130.894852375,
            "velocity": 0.6299212598425197
          },
          {
            "duration": 0.061855699999995295,
            "durationTicks": 24,
            "midi": 64,
            "name": "E4",
            "ticks": 62850,
            "time": 130.894852375,
            "velocity": 0.6299212598425197
          },
          {
            "duration": 0.3692303999999922,
            "durationTicks": 192,
            "midi": 64,
            "name": "E4",
            "ticks": 62880,
            "time": 130.972172,
            "velocity": 0.6299212598425197
          },
          {
            "duration": 0.3692304000000206,
            "durationTicks": 192,
            "midi": 69,
            "name": "A4",
            "ticks": 63120,
            "time": 131.43371,
            "velocity": 0.6299212598425197
          },
          {
            "duration": 0.3692303999999922,
            "durationTicks": 192,
            "midi": 76,
            "name": "E5",
            "ticks": 63360,
            "time": 131.895248,
            "velocity": 0.6299212598425197
          },
          {
            "duration": 0.3692303999999922,
            "durationTicks": 192,
            "midi": 67,
            "name": "G4",
            "ticks": 63600,
            "time": 132.356786,
            "velocity": 0.6299212598425197
          },
          {
            "duration": 0.3692304000000206,
            "durationTicks": 192,
            "midi": 76,
            "name": "E5",
            "ticks": 63840,
            "time": 132.818324,
            "velocity": 0.6299212598425197
          },
          {
            "duration": 0.3692303999999922,
            "durationTicks": 192,
            "midi": 69,
            "name": "A4",
            "ticks": 64080,
            "time": 133.279862,
            "velocity": 0.6299212598425197
          },
          {
            "duration": 0.3692303999999922,
            "durationTicks": 192,
            "midi": 66,
            "name": "F#4",
            "ticks": 64320,
            "time": 133.7414,
            "velocity": 0.6299212598425197
          },
          {
            "duration": 0.3692304000000206,
            "durationTicks": 192,
            "midi": 69,
            "name": "A4",
            "ticks": 64560,
            "time": 134.202938,
            "velocity": 0.6299212598425197
          },
          {
            "duration": 0.3692303999999922,
            "durationTicks": 192,
            "midi": 76,
            "name": "E5",
            "ticks": 64800,
            "time": 134.664476,
            "velocity": 0.6299212598425197
          },
          {
            "duration": 0.3692303999999922,
            "durationTicks": 192,
            "midi": 65,
            "name": "F4",
            "ticks": 65040,
            "time": 135.126014,
            "velocity": 0.6299212598425197
          },
          {
            "duration": 0.18461520000002452,
            "durationTicks": 96,
            "midi": 74,
            "name": "D5",
            "ticks": 65280,
            "time": 135.587552,
            "velocity": 0.6299212598425197
          },
          {
            "duration": 0.1846151999999961,
            "durationTicks": 96,
            "midi": 73,
            "name": "C#5",
            "ticks": 65400,
            "time": 135.818321,
            "velocity": 0.6299212598425197
          },
          {
            "duration": 0.3692303999999922,
            "durationTicks": 192,
            "midi": 69,
            "name": "A4",
            "ticks": 65520,
            "time": 136.04909,
            "velocity": 0.6299212598425197
          },
          {
            "duration": 0.3692303999999922,
            "durationTicks": 192,
            "midi": 64,
            "name": "E4",
            "ticks": 65760,
            "time": 136.510628,
            "velocity": 0.6299212598425197
          },
          {
            "duration": 0.3692304000000206,
            "durationTicks": 192,
            "midi": 69,
            "name": "A4",
            "ticks": 66000,
            "time": 136.972166,
            "velocity": 0.6299212598425197
          },
          {
            "duration": 0.3692303999999922,
            "durationTicks": 192,
            "midi": 76,
            "name": "E5",
            "ticks": 66240,
            "time": 137.433704,
            "velocity": 0.6299212598425197
          },
          {
            "duration": 0.3692303999999922,
            "durationTicks": 192,
            "midi": 67,
            "name": "G4",
            "ticks": 66480,
            "time": 137.895242,
            "velocity": 0.6299212598425197
          },
          {
            "duration": 0.3692304000000206,
            "durationTicks": 192,
            "midi": 76,
            "name": "E5",
            "ticks": 66720,
            "time": 138.35678,
            "velocity": 0.6299212598425197
          },
          {
            "duration": 0.3692303999999922,
            "durationTicks": 192,
            "midi": 69,
            "name": "A4",
            "ticks": 66960,
            "time": 138.818318,
            "velocity": 0.6299212598425197
          },
          {
            "duration": 0.3692303999999922,
            "durationTicks": 192,
            "midi": 66,
            "name": "F#4",
            "ticks": 67200,
            "time": 139.279856,
            "velocity": 0.6299212598425197
          },
          {
            "duration": 0.3692303999999922,
            "durationTicks": 192,
            "midi": 69,
            "name": "A4",
            "ticks": 67440,
            "time": 139.741394,
            "velocity": 0.6299212598425197
          },
          {
            "duration": 0.3692303999999922,
            "durationTicks": 192,
            "midi": 76,
            "name": "E5",
            "ticks": 67680,
            "time": 140.202932,
            "velocity": 0.6299212598425197
          },
          {
            "duration": 0.3692303999999922,
            "durationTicks": 192,
            "midi": 72,
            "name": "C5",
            "ticks": 67920,
            "time": 140.66447,
            "velocity": 0.6299212598425197
          },
          {
            "duration": 0.3692303999999922,
            "durationTicks": 192,
            "midi": 69,
            "name": "A4",
            "ticks": 68160,
            "time": 141.126008,
            "velocity": 0.6299212598425197
          },
          {
            "duration": 0.3692303999999922,
            "durationTicks": 192,
            "midi": 72,
            "name": "C5",
            "ticks": 68400,
            "time": 141.587546,
            "velocity": 0.6299212598425197
          },
          {
            "duration": 1.107691200000005,
            "durationTicks": 576,
            "midi": 69,
            "name": "A4",
            "ticks": 68640,
            "time": 142.049084,
            "velocity": 0.6299212598425197
          },
          {
            "duration": 0.3692303999999922,
            "durationTicks": 192,
            "midi": 64,
            "name": "E4",
            "ticks": 69360,
            "time": 143.433698,
            "velocity": 0.6299212598425197
          },
          {
            "duration": 0.3692303999999922,
            "durationTicks": 192,
            "midi": 69,
            "name": "A4",
            "ticks": 69600,
            "time": 143.895236,
            "velocity": 0.6299212598425197
          },
          {
            "duration": 0.3692303999999922,
            "durationTicks": 192,
            "midi": 76,
            "name": "E5",
            "ticks": 69840,
            "time": 144.356774,
            "velocity": 0.6299212598425197
          },
          {
            "duration": 0.3692304000000206,
            "durationTicks": 192,
            "midi": 67,
            "name": "G4",
            "ticks": 70080,
            "time": 144.818312,
            "velocity": 0.6299212598425197
          },
          {
            "duration": 0.3692303999999922,
            "durationTicks": 192,
            "midi": 76,
            "name": "E5",
            "ticks": 70320,
            "time": 145.27985,
            "velocity": 0.6299212598425197
          },
          {
            "duration": 0.3692303999999922,
            "durationTicks": 192,
            "midi": 69,
            "name": "A4",
            "ticks": 70560,
            "time": 145.741388,
            "velocity": 0.6299212598425197
          },
          {
            "duration": 0.3692303999999922,
            "durationTicks": 192,
            "midi": 66,
            "name": "F#4",
            "ticks": 70800,
            "time": 146.202926,
            "velocity": 0.6299212598425197
          },
          {
            "duration": 0.3692303999999922,
            "durationTicks": 192,
            "midi": 69,
            "name": "A4",
            "ticks": 71040,
            "time": 146.664464,
            "velocity": 0.6299212598425197
          },
          {
            "duration": 0.3692303999999922,
            "durationTicks": 192,
            "midi": 76,
            "name": "E5",
            "ticks": 71280,
            "time": 147.126002,
            "velocity": 0.6299212598425197
          },
          {
            "duration": 0.3692303999999922,
            "durationTicks": 192,
            "midi": 65,
            "name": "F4",
            "ticks": 71520,
            "time": 147.58754,
            "velocity": 0.6299212598425197
          },
          {
            "duration": 0.1846151999999961,
            "durationTicks": 96,
            "midi": 74,
            "name": "D5",
            "ticks": 71760,
            "time": 148.049078,
            "velocity": 0.6299212598425197
          },
          {
            "duration": 0.1846151999999961,
            "durationTicks": 96,
            "midi": 73,
            "name": "C#5",
            "ticks": 71880,
            "time": 148.279847,
            "velocity": 0.6299212598425197
          },
          {
            "duration": 0.3692303999999922,
            "durationTicks": 192,
            "midi": 69,
            "name": "A4",
            "ticks": 72000,
            "time": 148.510616,
            "velocity": 0.6299212598425197
          },
          {
            "duration": 0.3692303999999922,
            "durationTicks": 192,
            "midi": 64,
            "name": "E4",
            "ticks": 72240,
            "time": 148.972154,
            "velocity": 0.6299212598425197
          },
          {
            "duration": 0.3692303999999922,
            "durationTicks": 192,
            "midi": 69,
            "name": "A4",
            "ticks": 72480,
            "time": 149.433692,
            "velocity": 0.6299212598425197
          },
          {
            "duration": 0.3692303999999922,
            "durationTicks": 192,
            "midi": 76,
            "name": "E5",
            "ticks": 72720,
            "time": 149.89523,
            "velocity": 0.6299212598425197
          },
          {
            "duration": 0.3692304000000206,
            "durationTicks": 192,
            "midi": 67,
            "name": "G4",
            "ticks": 72960,
            "time": 150.356768,
            "velocity": 0.6299212598425197
          },
          {
            "duration": 0.3692303999999922,
            "durationTicks": 192,
            "midi": 76,
            "name": "E5",
            "ticks": 73200,
            "time": 150.818306,
            "velocity": 0.6299212598425197
          },
          {
            "duration": 0.3692303999999922,
            "durationTicks": 192,
            "midi": 69,
            "name": "A4",
            "ticks": 73440,
            "time": 151.279844,
            "velocity": 0.6299212598425197
          },
          {
            "duration": 0.3692304000000206,
            "durationTicks": 192,
            "midi": 61,
            "name": "C#4",
            "ticks": 73680,
            "time": 151.741382,
            "velocity": 0.6299212598425197
          },
          {
            "duration": 0.3692303999999922,
            "durationTicks": 192,
            "midi": 66,
            "name": "F#4",
            "ticks": 73920,
            "time": 152.20292,
            "velocity": 0.6299212598425197
          },
          {
            "duration": 0.3692303999999922,
            "durationTicks": 192,
            "midi": 61,
            "name": "C#4",
            "ticks": 74160,
            "time": 152.664458,
            "velocity": 0.6299212598425197
          },
          {
            "duration": 0.5538456000000167,
            "durationTicks": 288,
            "midi": 66,
            "name": "F#4",
            "ticks": 74400,
            "time": 153.125996,
            "velocity": 0.6299212598425197
          },
          {
            "duration": 0.18461520000002452,
            "durationTicks": 96,
            "midi": 61,
            "name": "C#4",
            "ticks": 74760,
            "time": 153.818303,
            "velocity": 0.6299212598425197
          },
          {
            "duration": 2.440920399999982,
            "durationTicks": 1008,
            "midi": 66,
            "name": "F#4",
            "ticks": 74880,
            "time": 154.049072,
            "velocity": 0.6299212598425197
          },
          {
            "duration": 0.12371139999999059,
            "durationTicks": 48,
            "midi": 62,
            "name": "D4",
            "ticks": 92640,
            "time": 199.665271,
            "velocity": 0.33070866141732286
          },
          {
            "duration": 0.2474228000000096,
            "durationTicks": 96,
            "midi": 66,
            "name": "F#4",
            "ticks": 92700,
            "time": 199.81991025,
            "velocity": 0.33070866141732286
          },
          {
            "duration": 0.12371139999999059,
            "durationTicks": 48,
            "midi": 62,
            "name": "D4",
            "ticks": 92820,
            "time": 200.12918875,
            "velocity": 0.33070866141732286
          },
          {
            "duration": 0.2474228000000096,
            "durationTicks": 96,
            "midi": 66,
            "name": "F#4",
            "ticks": 92880,
            "time": 200.28382799999997,
            "velocity": 0.33070866141732286
          },
          {
            "duration": 0.12371140000001901,
            "durationTicks": 48,
            "midi": 62,
            "name": "D4",
            "ticks": 93000,
            "time": 200.59310649999998,
            "velocity": 0.33070866141732286
          },
          {
            "duration": 0.2474228000000096,
            "durationTicks": 96,
            "midi": 66,
            "name": "F#4",
            "ticks": 93060,
            "time": 200.74774574999998,
            "velocity": 0.33070866141732286
          },
          {
            "duration": 0.12371139999999059,
            "durationTicks": 48,
            "midi": 62,
            "name": "D4",
            "ticks": 93180,
            "time": 201.05702424999998,
            "velocity": 0.33070866141732286
          },
          {
            "duration": 0.2474228000000096,
            "durationTicks": 96,
            "midi": 66,
            "name": "F#4",
            "ticks": 93240,
            "time": 201.2116635,
            "velocity": 0.33070866141732286
          }
        ],
        "endOfTrackTicks": 93336
      },
      {
        "channel": 5,
        "controlChanges": {
          "7": [
            {
              "number": 7,
              "ticks": 0,
              "time": 0,
              "value": 0.4409448818897638
            }
          ]
        },
        "pitchBends": [],
        "instrument": {
          "family": "synth effects",
          "number": 99,
          "name": "fx 4 (atmosphere)"
        },
        "name": "Backing (P100)",
        "notes": [
          {
            "duration": 0.36923039999999574,
            "durationTicks": 192,
            "midi": 74,
            "name": "D5",
            "ticks": 16560,
            "time": 31.846121999999998,
            "velocity": 0.6299212598425197
          },
          {
            "duration": 0.3692303999999993,
            "durationTicks": 192,
            "midi": 74,
            "name": "D5",
            "ticks": 16800,
            "time": 32.30766,
            "velocity": 0.6299212598425197
          },
          {
            "duration": 0.3692303999999993,
            "durationTicks": 192,
            "midi": 74,
            "name": "D5",
            "ticks": 17040,
            "time": 32.769197999999996,
            "velocity": 0.6299212598425197
          },
          {
            "duration": 0.3692303999999993,
            "durationTicks": 192,
            "midi": 74,
            "name": "D5",
            "ticks": 17280,
            "time": 33.23073599999999,
            "velocity": 0.6299212598425197
          },
          {
            "duration": 0.3692303999999993,
            "durationTicks": 192,
            "midi": 74,
            "name": "D5",
            "ticks": 17520,
            "time": 33.692274,
            "velocity": 0.6299212598425197
          },
          {
            "duration": 0.3692303999999993,
            "durationTicks": 192,
            "midi": 74,
            "name": "D5",
            "ticks": 17760,
            "time": 34.153811999999995,
            "velocity": 0.6299212598425197
          },
          {
            "duration": 0.3692303999999922,
            "durationTicks": 192,
            "midi": 72,
            "name": "C5",
            "ticks": 18000,
            "time": 34.61535,
            "velocity": 0.6299212598425197
          },
          {
            "duration": 0.3692303999999993,
            "durationTicks": 192,
            "midi": 74,
            "name": "D5",
            "ticks": 18240,
            "time": 35.076888,
            "velocity": 0.6299212598425197
          },
          {
            "duration": 0.3692303999999993,
            "durationTicks": 192,
            "midi": 74,
            "name": "D5",
            "ticks": 18480,
            "time": 35.538425999999994,
            "velocity": 0.6299212598425197
          },
          {
            "duration": 1.1076911999999979,
            "durationTicks": 576,
            "midi": 74,
            "name": "D5",
            "ticks": 18720,
            "time": 35.999964,
            "velocity": 0.6299212598425197
          },
          {
            "duration": 0.3692303999999993,
            "durationTicks": 192,
            "midi": 74,
            "name": "D5",
            "ticks": 19440,
            "time": 37.384578,
            "velocity": 0.6299212598425197
          },
          {
            "duration": 0.3692303999999993,
            "durationTicks": 192,
            "midi": 74,
            "name": "D5",
            "ticks": 19680,
            "time": 37.846115999999995,
            "velocity": 0.6299212598425197
          },
          {
            "duration": 0.3692303999999993,
            "durationTicks": 192,
            "midi": 74,
            "name": "D5",
            "ticks": 19920,
            "time": 38.30765399999999,
            "velocity": 0.6299212598425197
          },
          {
            "duration": 0.3692303999999993,
            "durationTicks": 192,
            "midi": 74,
            "name": "D5",
            "ticks": 20160,
            "time": 38.769192,
            "velocity": 0.6299212598425197
          },
          {
            "duration": 0.3692303999999993,
            "durationTicks": 192,
            "midi": 74,
            "name": "D5",
            "ticks": 20400,
            "time": 39.230729999999994,
            "velocity": 0.6299212598425197
          },
          {
            "duration": 0.3692303999999922,
            "durationTicks": 192,
            "midi": 74,
            "name": "D5",
            "ticks": 20640,
            "time": 39.692268,
            "velocity": 0.6299212598425197
          },
          {
            "duration": 0.3692303999999993,
            "durationTicks": 192,
            "midi": 74,
            "name": "D5",
            "ticks": 20880,
            "time": 40.153805999999996,
            "velocity": 0.6299212598425197
          },
          {
            "duration": 2.0307672000000068,
            "durationTicks": 1056,
            "midi": 70,
            "name": "A#4",
            "ticks": 21120,
            "time": 40.61534399999999,
            "velocity": 0.6299212598425197
          },
          {
            "duration": 0.3692303999999993,
            "durationTicks": 192,
            "midi": 74,
            "name": "D5",
            "ticks": 22320,
            "time": 42.923033999999994,
            "velocity": 0.6299212598425197
          },
          {
            "duration": 0.3692303999999922,
            "durationTicks": 192,
            "midi": 74,
            "name": "D5",
            "ticks": 22560,
            "time": 43.384572,
            "velocity": 0.6299212598425197
          },
          {
            "duration": 0.3692303999999993,
            "durationTicks": 192,
            "midi": 74,
            "name": "D5",
            "ticks": 22800,
            "time": 43.846109999999996,
            "velocity": 0.6299212598425197
          },
          {
            "duration": 0.3692303999999993,
            "durationTicks": 192,
            "midi": 74,
            "name": "D5",
            "ticks": 23040,
            "time": 44.30764799999999,
            "velocity": 0.6299212598425197
          },
          {
            "duration": 0.3692303999999993,
            "durationTicks": 192,
            "midi": 74,
            "name": "D5",
            "ticks": 23280,
            "time": 44.769186,
            "velocity": 0.6299212598425197
          },
          {
            "duration": 0.3692303999999993,
            "durationTicks": 192,
            "midi": 74,
            "name": "D5",
            "ticks": 23520,
            "time": 45.230723999999995,
            "velocity": 0.6299212598425197
          },
          {
            "duration": 0.3692303999999993,
            "durationTicks": 192,
            "midi": 74,
            "name": "D5",
            "ticks": 23760,
            "time": 45.69226199999999,
            "velocity": 0.6299212598425197
          },
          {
            "duration": 0.3692303999999993,
            "durationTicks": 192,
            "midi": 74,
            "name": "D5",
            "ticks": 24000,
            "time": 46.1538,
            "velocity": 0.6299212598425197
          },
          {
            "duration": 0.3692303999999993,
            "durationTicks": 192,
            "midi": 74,
            "name": "D5",
            "ticks": 24240,
            "time": 46.615337999999994,
            "velocity": 0.6299212598425197
          },
          {
            "duration": 0.3692303999999993,
            "durationTicks": 192,
            "midi": 74,
            "name": "D5",
            "ticks": 24480,
            "time": 47.07687599999999,
            "velocity": 0.6299212598425197
          },
          {
            "duration": 0.3692303999999993,
            "durationTicks": 192,
            "midi": 72,
            "name": "C5",
            "ticks": 24720,
            "time": 47.538413999999996,
            "velocity": 0.6299212598425197
          },
          {
            "duration": 0.3692303999999993,
            "durationTicks": 192,
            "midi": 71,
            "name": "B4",
            "ticks": 24960,
            "time": 47.99995199999999,
            "velocity": 0.6299212598425197
          },
          {
            "duration": 0.3692304000000064,
            "durationTicks": 192,
            "midi": 74,
            "name": "D5",
            "ticks": 46560,
            "time": 94.56298,
            "velocity": 0.6299212598425197
          },
          {
            "duration": 0.3692303999999922,
            "durationTicks": 192,
            "midi": 74,
            "name": "D5",
            "ticks": 46800,
            "time": 95.024518,
            "velocity": 0.6299212598425197
          },
          {
            "duration": 0.3692304000000064,
            "durationTicks": 192,
            "midi": 74,
            "name": "D5",
            "ticks": 47040,
            "time": 95.48605599999999,
            "velocity": 0.6299212598425197
          },
          {
            "duration": 0.3692304000000064,
            "durationTicks": 192,
            "midi": 74,
            "name": "D5",
            "ticks": 47280,
            "time": 95.947594,
            "velocity": 0.6299212598425197
          },
          {
            "duration": 0.3692303999999922,
            "durationTicks": 192,
            "midi": 74,
            "name": "D5",
            "ticks": 47520,
            "time": 96.409132,
            "velocity": 0.6299212598425197
          },
          {
            "duration": 0.3692304000000064,
            "durationTicks": 192,
            "midi": 74,
            "name": "D5",
            "ticks": 47760,
            "time": 96.87066999999999,
            "velocity": 0.6299212598425197
          },
          {
            "duration": 0.3692304000000064,
            "durationTicks": 192,
            "midi": 72,
            "name": "C5",
            "ticks": 48000,
            "time": 97.332208,
            "velocity": 0.6299212598425197
          },
          {
            "duration": 0.3692303999999922,
            "durationTicks": 192,
            "midi": 74,
            "name": "D5",
            "ticks": 48240,
            "time": 97.793746,
            "velocity": 0.6299212598425197
          },
          {
            "duration": 0.3692304000000064,
            "durationTicks": 192,
            "midi": 74,
            "name": "D5",
            "ticks": 48480,
            "time": 98.25528399999999,
            "velocity": 0.6299212598425197
          },
          {
            "duration": 1.107691200000005,
            "durationTicks": 576,
            "midi": 74,
            "name": "D5",
            "ticks": 48720,
            "time": 98.716822,
            "velocity": 0.6299212598425197
          },
          {
            "duration": 0.3692304000000064,
            "durationTicks": 192,
            "midi": 74,
            "name": "D5",
            "ticks": 49440,
            "time": 100.10143599999999,
            "velocity": 0.6299212598425197
          },
          {
            "duration": 0.3692303999999922,
            "durationTicks": 192,
            "midi": 74,
            "name": "D5",
            "ticks": 49680,
            "time": 100.562974,
            "velocity": 0.6299212598425197
          },
          {
            "duration": 0.3692304000000064,
            "durationTicks": 192,
            "midi": 74,
            "name": "D5",
            "ticks": 49920,
            "time": 101.02451199999999,
            "velocity": 0.6299212598425197
          },
          {
            "duration": 0.3692304000000064,
            "durationTicks": 192,
            "midi": 74,
            "name": "D5",
            "ticks": 50160,
            "time": 101.48604999999999,
            "velocity": 0.6299212598425197
          },
          {
            "duration": 0.3692303999999922,
            "durationTicks": 192,
            "midi": 74,
            "name": "D5",
            "ticks": 50400,
            "time": 101.947588,
            "velocity": 0.6299212598425197
          },
          {
            "duration": 0.3692304000000064,
            "durationTicks": 192,
            "midi": 74,
            "name": "D5",
            "ticks": 50640,
            "time": 102.40912599999999,
            "velocity": 0.6299212598425197
          },
          {
            "duration": 0.3692303999999922,
            "durationTicks": 192,
            "midi": 74,
            "name": "D5",
            "ticks": 50880,
            "time": 102.870664,
            "velocity": 0.6299212598425197
          },
          {
            "duration": 2.0307671999999997,
            "durationTicks": 1056,
            "midi": 70,
            "name": "A#4",
            "ticks": 51120,
            "time": 103.332202,
            "velocity": 0.6299212598425197
          },
          {
            "duration": 0.3692303999999922,
            "durationTicks": 192,
            "midi": 74,
            "name": "D5",
            "ticks": 52320,
            "time": 105.639892,
            "velocity": 0.6299212598425197
          },
          {
            "duration": 0.3692303999999922,
            "durationTicks": 192,
            "midi": 74,
            "name": "D5",
            "ticks": 52560,
            "time": 106.10143,
            "velocity": 0.6299212598425197
          },
          {
            "duration": 0.3692304000000064,
            "durationTicks": 192,
            "midi": 74,
            "name": "D5",
            "ticks": 52800,
            "time": 106.56296799999998,
            "velocity": 0.6299212598425197
          },
          {
            "duration": 0.3692303999999922,
            "durationTicks": 192,
            "midi": 74,
            "name": "D5",
            "ticks": 53040,
            "time": 107.024506,
            "velocity": 0.6299212598425197
          },
          {
            "duration": 0.3692303999999922,
            "durationTicks": 192,
            "midi": 74,
            "name": "D5",
            "ticks": 53280,
            "time": 107.48604399999999,
            "velocity": 0.6299212598425197
          },
          {
            "duration": 0.3692303999999922,
            "durationTicks": 192,
            "midi": 74,
            "name": "D5",
            "ticks": 53520,
            "time": 107.947582,
            "velocity": 0.6299212598425197
          },
          {
            "duration": 0.3692303999999922,
            "durationTicks": 192,
            "midi": 74,
            "name": "D5",
            "ticks": 53760,
            "time": 108.40912,
            "velocity": 0.6299212598425197
          },
          {
            "duration": 0.3692303999999922,
            "durationTicks": 192,
            "midi": 74,
            "name": "D5",
            "ticks": 54000,
            "time": 108.87065799999999,
            "velocity": 0.6299212598425197
          },
          {
            "duration": 0.3692304000000064,
            "durationTicks": 192,
            "midi": 74,
            "name": "D5",
            "ticks": 54240,
            "time": 109.332196,
            "velocity": 0.6299212598425197
          },
          {
            "duration": 0.3692303999999922,
            "durationTicks": 192,
            "midi": 74,
            "name": "D5",
            "ticks": 54480,
            "time": 109.793734,
            "velocity": 0.6299212598425197
          },
          {
            "duration": 0.3692303999999922,
            "durationTicks": 192,
            "midi": 72,
            "name": "C5",
            "ticks": 54720,
            "time": 110.25527199999999,
            "velocity": 0.6299212598425197
          },
          {
            "duration": 0.3692304000000064,
            "durationTicks": 192,
            "midi": 71,
            "name": "B4",
            "ticks": 54960,
            "time": 110.71681,
            "velocity": 0.6299212598425197
          },
          {
            "duration": 0.12371139999999059,
            "durationTicks": 48,
            "midi": 62,
            "name": "D4",
            "ticks": 92640,
            "time": 199.665271,
            "velocity": 0.14960629921259844
          },
          {
            "duration": 0.2474228000000096,
            "durationTicks": 96,
            "midi": 66,
            "name": "F#4",
            "ticks": 92700,
            "time": 199.81991025,
            "velocity": 0.14960629921259844
          },
          {
            "duration": 0.12371139999999059,
            "durationTicks": 48,
            "midi": 62,
            "name": "D4",
            "ticks": 92820,
            "time": 200.12918875,
            "velocity": 0.14960629921259844
          },
          {
            "duration": 0.2474228000000096,
            "durationTicks": 96,
            "midi": 66,
            "name": "F#4",
            "ticks": 92880,
            "time": 200.28382799999997,
            "velocity": 0.14960629921259844
          },
          {
            "duration": 0.12371140000001901,
            "durationTicks": 48,
            "midi": 62,
            "name": "D4",
            "ticks": 93000,
            "time": 200.59310649999998,
            "velocity": 0.14960629921259844
          },
          {
            "duration": 0.2474228000000096,
            "durationTicks": 96,
            "midi": 66,
            "name": "F#4",
            "ticks": 93060,
            "time": 200.74774574999998,
            "velocity": 0.14960629921259844
          },
          {
            "duration": 0.12371139999999059,
            "durationTicks": 48,
            "midi": 62,
            "name": "D4",
            "ticks": 93180,
            "time": 201.05702424999998,
            "velocity": 0.14960629921259844
          },
          {
            "duration": 0.2474228000000096,
            "durationTicks": 96,
            "midi": 66,
            "name": "F#4",
            "ticks": 93240,
            "time": 201.2116635,
            "velocity": 0.14960629921259844
          }
        ],
        "endOfTrackTicks": 93336
      },
      {
        "channel": 6,
        "controlChanges": {
          "7": [
            {
              "number": 7,
              "ticks": 0,
              "time": 0,
              "value": 0.9133858267716536
            }
          ]
        },
        "pitchBends": [],
        "instrument": {
          "family": "ensemble",
          "number": 51,
          "name": "synthstrings 2"
        },
        "name": "Strings (P52)",
        "notes": [
          {
            "duration": 1.1076912000000005,
            "durationTicks": 576,
            "midi": 57,
            "name": "A3",
            "ticks": 2880,
            "time": 5.538455999999999,
            "velocity": 0.6299212598425197
          },
          {
            "duration": 1.1076911999999997,
            "durationTicks": 576,
            "midi": 55,
            "name": "G3",
            "ticks": 3600,
            "time": 6.923069999999999,
            "velocity": 0.6299212598425197
          },
          {
            "duration": 1.1076911999999997,
            "durationTicks": 576,
            "midi": 54,
            "name": "F#3",
            "ticks": 4320,
            "time": 8.307683999999998,
            "velocity": 0.6299212598425197
          },
          {
            "duration": 1.1076911999999997,
            "durationTicks": 576,
            "midi": 53,
            "name": "F3",
            "ticks": 5040,
            "time": 9.692298,
            "velocity": 0.6299212598425197
          },
          {
            "duration": 1.1076911999999997,
            "durationTicks": 576,
            "midi": 52,
            "name": "E3",
            "ticks": 5760,
            "time": 11.076911999999998,
            "velocity": 0.6299212598425197
          },
          {
            "duration": 1.1076911999999979,
            "durationTicks": 576,
            "midi": 55,
            "name": "G3",
            "ticks": 6480,
            "time": 12.461526,
            "velocity": 0.6299212598425197
          },
          {
            "duration": 1.1076911999999997,
            "durationTicks": 576,
            "midi": 54,
            "name": "F#3",
            "ticks": 7200,
            "time": 13.846139999999998,
            "velocity": 0.6299212598425197
          },
          {
            "duration": 0.3692303999999993,
            "durationTicks": 192,
            "midi": 53,
            "name": "F3",
            "ticks": 7920,
            "time": 15.230753999999997,
            "velocity": 0.6299212598425197
          },
          {
            "duration": 0.3692303999999993,
            "durationTicks": 192,
            "midi": 48,
            "name": "C3",
            "ticks": 8160,
            "time": 15.692291999999998,
            "velocity": 0.6299212598425197
          },
          {
            "duration": 0.3692303999999993,
            "durationTicks": 192,
            "midi": 53,
            "name": "F3",
            "ticks": 8400,
            "time": 16.15383,
            "velocity": 0.6299212598425197
          },
          {
            "duration": 0.5538456000000025,
            "durationTicks": 288,
            "midi": 48,
            "name": "C3",
            "ticks": 8640,
            "time": 16.615367999999997,
            "velocity": 0.6299212598425197
          },
          {
            "duration": 0.1846151999999961,
            "durationTicks": 96,
            "midi": 48,
            "name": "C3",
            "ticks": 9000,
            "time": 17.307675,
            "velocity": 0.6299212598425197
          },
          {
            "duration": 0.3692303999999993,
            "durationTicks": 192,
            "midi": 50,
            "name": "D3",
            "ticks": 9120,
            "time": 17.538444,
            "velocity": 0.6299212598425197
          },
          {
            "duration": 1.1076911999999979,
            "durationTicks": 576,
            "midi": 52,
            "name": "E3",
            "ticks": 9360,
            "time": 17.999982,
            "velocity": 0.6299212598425197
          },
          {
            "duration": 1.1076911999999979,
            "durationTicks": 576,
            "midi": 55,
            "name": "G3",
            "ticks": 10080,
            "time": 19.384596,
            "velocity": 0.6299212598425197
          },
          {
            "duration": 1.1076911999999979,
            "durationTicks": 576,
            "midi": 54,
            "name": "F#3",
            "ticks": 10800,
            "time": 20.769209999999998,
            "velocity": 0.6299212598425197
          },
          {
            "duration": 1.1076912000000014,
            "durationTicks": 576,
            "midi": 53,
            "name": "F3",
            "ticks": 11520,
            "time": 22.153823999999997,
            "velocity": 0.6299212598425197
          },
          {
            "duration": 1.1076912000000014,
            "durationTicks": 576,
            "midi": 52,
            "name": "E3",
            "ticks": 12240,
            "time": 23.538437999999996,
            "velocity": 0.6299212598425197
          },
          {
            "duration": 1.1076911999999979,
            "durationTicks": 576,
            "midi": 55,
            "name": "G3",
            "ticks": 12960,
            "time": 24.923052,
            "velocity": 0.6299212598425197
          },
          {
            "duration": 0.3692303999999993,
            "durationTicks": 192,
            "midi": 54,
            "name": "F#3",
            "ticks": 13680,
            "time": 26.307665999999998,
            "velocity": 0.6299212598425197
          },
          {
            "duration": 0.36923039999999574,
            "durationTicks": 192,
            "midi": 57,
            "name": "A3",
            "ticks": 13920,
            "time": 26.769204,
            "velocity": 0.6299212598425197
          },
          {
            "duration": 0.3692303999999993,
            "durationTicks": 192,
            "midi": 54,
            "name": "F#3",
            "ticks": 14160,
            "time": 27.230741999999996,
            "velocity": 0.6299212598425197
          },
          {
            "duration": 0.3692303999999993,
            "durationTicks": 192,
            "midi": 57,
            "name": "A3",
            "ticks": 14400,
            "time": 27.692279999999997,
            "velocity": 0.6299212598425197
          },
          {
            "duration": 0.3692303999999993,
            "durationTicks": 192,
            "midi": 54,
            "name": "F#3",
            "ticks": 14640,
            "time": 28.153817999999998,
            "velocity": 0.6299212598425197
          },
          {
            "duration": 0.36923039999999574,
            "durationTicks": 192,
            "midi": 57,
            "name": "A3",
            "ticks": 14880,
            "time": 28.615356,
            "velocity": 0.6299212598425197
          },
          {
            "duration": 0.3692303999999993,
            "durationTicks": 192,
            "midi": 50,
            "name": "D3",
            "ticks": 15120,
            "time": 29.076893999999996,
            "velocity": 0.6299212598425197
          },
          {
            "duration": 0.3692303999999993,
            "durationTicks": 192,
            "midi": 50,
            "name": "D3",
            "ticks": 15360,
            "time": 29.538431999999997,
            "velocity": 0.6299212598425197
          },
          {
            "duration": 0.3692303999999993,
            "durationTicks": 192,
            "midi": 50,
            "name": "D3",
            "ticks": 15600,
            "time": 29.999969999999998,
            "velocity": 0.6299212598425197
          },
          {
            "duration": 0.3692303999999993,
            "durationTicks": 192,
            "midi": 48,
            "name": "C3",
            "ticks": 15840,
            "time": 30.461507999999995,
            "velocity": 0.6299212598425197
          },
          {
            "duration": 0.3692303999999993,
            "durationTicks": 192,
            "midi": 48,
            "name": "C3",
            "ticks": 16080,
            "time": 30.923045999999996,
            "velocity": 0.6299212598425197
          },
          {
            "duration": 0.3692303999999993,
            "durationTicks": 192,
            "midi": 48,
            "name": "C3",
            "ticks": 16320,
            "time": 31.384583999999997,
            "velocity": 0.6299212598425197
          },
          {
            "duration": 0.36923039999999574,
            "durationTicks": 192,
            "midi": 46,
            "name": "A#2",
            "ticks": 16560,
            "time": 31.846121999999998,
            "velocity": 0.6299212598425197
          },
          {
            "duration": 0.3692303999999993,
            "durationTicks": 192,
            "midi": 46,
            "name": "A#2",
            "ticks": 16800,
            "time": 32.30766,
            "velocity": 0.6299212598425197
          },
          {
            "duration": 0.3692303999999993,
            "durationTicks": 192,
            "midi": 46,
            "name": "A#2",
            "ticks": 17040,
            "time": 32.769197999999996,
            "velocity": 0.6299212598425197
          },
          {
            "duration": 0.3692303999999993,
            "durationTicks": 192,
            "midi": 53,
            "name": "F3",
            "ticks": 17280,
            "time": 33.23073599999999,
            "velocity": 0.6299212598425197
          },
          {
            "duration": 0.3692303999999993,
            "durationTicks": 192,
            "midi": 53,
            "name": "F3",
            "ticks": 17520,
            "time": 33.692274,
            "velocity": 0.6299212598425197
          },
          {
            "duration": 0.3692303999999993,
            "durationTicks": 192,
            "midi": 53,
            "name": "F3",
            "ticks": 17760,
            "time": 34.153811999999995,
            "velocity": 0.6299212598425197
          },
          {
            "duration": 0.3692303999999922,
            "durationTicks": 192,
            "midi": 48,
            "name": "C3",
            "ticks": 18000,
            "time": 34.61535,
            "velocity": 0.6299212598425197
          },
          {
            "duration": 0.3692303999999993,
            "durationTicks": 192,
            "midi": 48,
            "name": "C3",
            "ticks": 18240,
            "time": 35.076888,
            "velocity": 0.6299212598425197
          },
          {
            "duration": 0.3692303999999993,
            "durationTicks": 192,
            "midi": 48,
            "name": "C3",
            "ticks": 18480,
            "time": 35.538425999999994,
            "velocity": 0.6299212598425197
          },
          {
            "duration": 0.3692303999999993,
            "durationTicks": 192,
            "midi": 55,
            "name": "G3",
            "ticks": 18720,
            "time": 35.999964,
            "velocity": 0.6299212598425197
          },
          {
            "duration": 0.3692303999999993,
            "durationTicks": 192,
            "midi": 55,
            "name": "G3",
            "ticks": 18960,
            "time": 36.461501999999996,
            "velocity": 0.6299212598425197
          },
          {
            "duration": 0.3692303999999993,
            "durationTicks": 192,
            "midi": 55,
            "name": "G3",
            "ticks": 19200,
            "time": 36.92303999999999,
            "velocity": 0.6299212598425197
          },
          {
            "duration": 0.3692303999999993,
            "durationTicks": 192,
            "midi": 41,
            "name": "F2",
            "ticks": 19440,
            "time": 37.384578,
            "velocity": 0.6299212598425197
          },
          {
            "duration": 0.3692303999999993,
            "durationTicks": 192,
            "midi": 41,
            "name": "F2",
            "ticks": 19680,
            "time": 37.846115999999995,
            "velocity": 0.6299212598425197
          },
          {
            "duration": 0.3692303999999993,
            "durationTicks": 192,
            "midi": 41,
            "name": "F2",
            "ticks": 19920,
            "time": 38.30765399999999,
            "velocity": 0.6299212598425197
          },
          {
            "duration": 0.3692303999999993,
            "durationTicks": 192,
            "midi": 48,
            "name": "C3",
            "ticks": 20160,
            "time": 38.769192,
            "velocity": 0.6299212598425197
          },
          {
            "duration": 0.3692303999999993,
            "durationTicks": 192,
            "midi": 48,
            "name": "C3",
            "ticks": 20400,
            "time": 39.230729999999994,
            "velocity": 0.6299212598425197
          },
          {
            "duration": 0.3692303999999922,
            "durationTicks": 192,
            "midi": 48,
            "name": "C3",
            "ticks": 20640,
            "time": 39.692268,
            "velocity": 0.6299212598425197
          },
          {
            "duration": 0.3692303999999993,
            "durationTicks": 192,
            "midi": 46,
            "name": "A#2",
            "ticks": 20880,
            "time": 40.153805999999996,
            "velocity": 0.6299212598425197
          },
          {
            "duration": 0.3692303999999993,
            "durationTicks": 192,
            "midi": 50,
            "name": "D3",
            "ticks": 21120,
            "time": 40.61534399999999,
            "velocity": 0.6299212598425197
          },
          {
            "duration": 0.3692303999999993,
            "durationTicks": 192,
            "midi": 53,
            "name": "F3",
            "ticks": 21360,
            "time": 41.076882,
            "velocity": 0.6299212598425197
          },
          {
            "duration": 0.3692303999999993,
            "durationTicks": 192,
            "midi": 58,
            "name": "A#3",
            "ticks": 21600,
            "time": 41.538419999999995,
            "velocity": 0.6299212598425197
          },
          {
            "duration": 0.3692303999999993,
            "durationTicks": 192,
            "midi": 53,
            "name": "F3",
            "ticks": 21840,
            "time": 41.99995799999999,
            "velocity": 0.6299212598425197
          },
          {
            "duration": 0.3692303999999993,
            "durationTicks": 192,
            "midi": 46,
            "name": "A#2",
            "ticks": 22080,
            "time": 42.461496,
            "velocity": 0.6299212598425197
          },
          {
            "duration": 0.3692303999999993,
            "durationTicks": 192,
            "midi": 48,
            "name": "C3",
            "ticks": 22320,
            "time": 42.923033999999994,
            "velocity": 0.6299212598425197
          },
          {
            "duration": 0.3692303999999922,
            "durationTicks": 192,
            "midi": 48,
            "name": "C3",
            "ticks": 22560,
            "time": 43.384572,
            "velocity": 0.6299212598425197
          },
          {
            "duration": 0.3692303999999993,
            "durationTicks": 192,
            "midi": 48,
            "name": "C3",
            "ticks": 22800,
            "time": 43.846109999999996,
            "velocity": 0.6299212598425197
          },
          {
            "duration": 0.3692303999999993,
            "durationTicks": 192,
            "midi": 55,
            "name": "G3",
            "ticks": 23040,
            "time": 44.30764799999999,
            "velocity": 0.6299212598425197
          },
          {
            "duration": 0.3692303999999993,
            "durationTicks": 192,
            "midi": 55,
            "name": "G3",
            "ticks": 23280,
            "time": 44.769186,
            "velocity": 0.6299212598425197
          },
          {
            "duration": 0.3692303999999993,
            "durationTicks": 192,
            "midi": 55,
            "name": "G3",
            "ticks": 23520,
            "time": 45.230723999999995,
            "velocity": 0.6299212598425197
          },
          {
            "duration": 0.3692303999999993,
            "durationTicks": 192,
            "midi": 43,
            "name": "G2",
            "ticks": 23760,
            "time": 45.69226199999999,
            "velocity": 0.6299212598425197
          },
          {
            "duration": 0.3692303999999993,
            "durationTicks": 192,
            "midi": 47,
            "name": "B2",
            "ticks": 24000,
            "time": 46.1538,
            "velocity": 0.6299212598425197
          },
          {
            "duration": 0.3692303999999993,
            "durationTicks": 192,
            "midi": 50,
            "name": "D3",
            "ticks": 24240,
            "time": 46.615337999999994,
            "velocity": 0.6299212598425197
          },
          {
            "duration": 0.3692303999999993,
            "durationTicks": 192,
            "midi": 55,
            "name": "G3",
            "ticks": 24480,
            "time": 47.07687599999999,
            "velocity": 0.6299212598425197
          },
          {
            "duration": 0.3692303999999993,
            "durationTicks": 192,
            "midi": 54,
            "name": "F#3",
            "ticks": 24720,
            "time": 47.538413999999996,
            "velocity": 0.6299212598425197
          },
          {
            "duration": 0.3692303999999993,
            "durationTicks": 192,
            "midi": 52,
            "name": "E3",
            "ticks": 24960,
            "time": 47.99995199999999,
            "velocity": 0.6299212598425197
          },
          {
            "duration": 1.107691200000005,
            "durationTicks": 576,
            "midi": 57,
            "name": "A3",
            "ticks": 32880,
            "time": 68.255314,
            "velocity": 0.6299212598425197
          },
          {
            "duration": 1.107691200000005,
            "durationTicks": 576,
            "midi": 55,
            "name": "G3",
            "ticks": 33600,
            "time": 69.639928,
            "velocity": 0.6299212598425197
          },
          {
            "duration": 1.107691200000005,
            "durationTicks": 576,
            "midi": 54,
            "name": "F#3",
            "ticks": 34320,
            "time": 71.024542,
            "velocity": 0.6299212598425197
          },
          {
            "duration": 1.107691200000005,
            "durationTicks": 576,
            "midi": 53,
            "name": "F3",
            "ticks": 35040,
            "time": 72.409156,
            "velocity": 0.6299212598425197
          },
          {
            "duration": 1.107691200000005,
            "durationTicks": 576,
            "midi": 52,
            "name": "E3",
            "ticks": 35760,
            "time": 73.79377,
            "velocity": 0.6299212598425197
          },
          {
            "duration": 1.107691200000005,
            "durationTicks": 576,
            "midi": 55,
            "name": "G3",
            "ticks": 36480,
            "time": 75.178384,
            "velocity": 0.6299212598425197
          },
          {
            "duration": 1.107691200000005,
            "durationTicks": 576,
            "midi": 54,
            "name": "F#3",
            "ticks": 37200,
            "time": 76.562998,
            "velocity": 0.6299212598425197
          },
          {
            "duration": 0.3692304000000064,
            "durationTicks": 192,
            "midi": 53,
            "name": "F3",
            "ticks": 37920,
            "time": 77.94761199999999,
            "velocity": 0.6299212598425197
          },
          {
            "duration": 0.3692304000000064,
            "durationTicks": 192,
            "midi": 48,
            "name": "C3",
            "ticks": 38160,
            "time": 78.40915,
            "velocity": 0.6299212598425197
          },
          {
            "duration": 0.3692303999999922,
            "durationTicks": 192,
            "midi": 53,
            "name": "F3",
            "ticks": 38400,
            "time": 78.870688,
            "velocity": 0.6299212598425197
          },
          {
            "duration": 0.5538456000000025,
            "durationTicks": 288,
            "midi": 48,
            "name": "C3",
            "ticks": 38640,
            "time": 79.33222599999999,
            "velocity": 0.6299212598425197
          },
          {
            "duration": 0.1846152000000103,
            "durationTicks": 96,
            "midi": 48,
            "name": "C3",
            "ticks": 39000,
            "time": 80.02453299999999,
            "velocity": 0.6299212598425197
          },
          {
            "duration": 0.3692303999999922,
            "durationTicks": 192,
            "midi": 50,
            "name": "D3",
            "ticks": 39120,
            "time": 80.255302,
            "velocity": 0.6299212598425197
          },
          {
            "duration": 1.107691200000005,
            "durationTicks": 576,
            "midi": 52,
            "name": "E3",
            "ticks": 39360,
            "time": 80.71683999999999,
            "velocity": 0.6299212598425197
          },
          {
            "duration": 1.107691200000005,
            "durationTicks": 576,
            "midi": 55,
            "name": "G3",
            "ticks": 40080,
            "time": 82.10145399999999,
            "velocity": 0.6299212598425197
          },
          {
            "duration": 1.107691200000005,
            "durationTicks": 576,
            "midi": 54,
            "name": "F#3",
            "ticks": 40800,
            "time": 83.48606799999999,
            "velocity": 0.6299212598425197
          },
          {
            "duration": 1.107691200000005,
            "durationTicks": 576,
            "midi": 53,
            "name": "F3",
            "ticks": 41520,
            "time": 84.87068199999999,
            "velocity": 0.6299212598425197
          },
          {
            "duration": 1.1076911999999908,
            "durationTicks": 576,
            "midi": 52,
            "name": "E3",
            "ticks": 42240,
            "time": 86.255296,
            "velocity": 0.6299212598425197
          },
          {
            "duration": 1.1076911999999908,
            "durationTicks": 576,
            "midi": 55,
            "name": "G3",
            "ticks": 42960,
            "time": 87.63991,
            "velocity": 0.6299212598425197
          },
          {
            "duration": 0.3692303999999922,
            "durationTicks": 192,
            "midi": 54,
            "name": "F#3",
            "ticks": 43680,
            "time": 89.024524,
            "velocity": 0.6299212598425197
          },
          {
            "duration": 0.3692303999999922,
            "durationTicks": 192,
            "midi": 57,
            "name": "A3",
            "ticks": 43920,
            "time": 89.486062,
            "velocity": 0.6299212598425197
          },
          {
            "duration": 0.3692303999999922,
            "durationTicks": 192,
            "midi": 54,
            "name": "F#3",
            "ticks": 44160,
            "time": 89.9476,
            "velocity": 0.6299212598425197
          },
          {
            "duration": 0.3692303999999922,
            "durationTicks": 192,
            "midi": 57,
            "name": "A3",
            "ticks": 44400,
            "time": 90.409138,
            "velocity": 0.6299212598425197
          },
          {
            "duration": 0.3692303999999922,
            "durationTicks": 192,
            "midi": 54,
            "name": "F#3",
            "ticks": 44640,
            "time": 90.870676,
            "velocity": 0.6299212598425197
          },
          {
            "duration": 0.3692304000000064,
            "durationTicks": 192,
            "midi": 57,
            "name": "A3",
            "ticks": 44880,
            "time": 91.332214,
            "velocity": 0.6299212598425197
          },
          {
            "duration": 0.3692303999999922,
            "durationTicks": 192,
            "midi": 50,
            "name": "D3",
            "ticks": 45120,
            "time": 91.793752,
            "velocity": 0.6299212598425197
          },
          {
            "duration": 0.3692303999999922,
            "durationTicks": 192,
            "midi": 50,
            "name": "D3",
            "ticks": 45360,
            "time": 92.25529,
            "velocity": 0.6299212598425197
          },
          {
            "duration": 0.3692304000000064,
            "durationTicks": 192,
            "midi": 50,
            "name": "D3",
            "ticks": 45600,
            "time": 92.71682799999999,
            "velocity": 0.6299212598425197
          },
          {
            "duration": 0.3692303999999922,
            "durationTicks": 192,
            "midi": 48,
            "name": "C3",
            "ticks": 45840,
            "time": 93.178366,
            "velocity": 0.6299212598425197
          },
          {
            "duration": 0.3692303999999922,
            "durationTicks": 192,
            "midi": 48,
            "name": "C3",
            "ticks": 46080,
            "time": 93.639904,
            "velocity": 0.6299212598425197
          },
          {
            "duration": 0.3692304000000064,
            "durationTicks": 192,
            "midi": 48,
            "name": "C3",
            "ticks": 46320,
            "time": 94.10144199999999,
            "velocity": 0.6299212598425197
          },
          {
            "duration": 0.3692304000000064,
            "durationTicks": 192,
            "midi": 46,
            "name": "A#2",
            "ticks": 46560,
            "time": 94.56298,
            "velocity": 0.6299212598425197
          },
          {
            "duration": 0.3692303999999922,
            "durationTicks": 192,
            "midi": 46,
            "name": "A#2",
            "ticks": 46800,
            "time": 95.024518,
            "velocity": 0.6299212598425197
          },
          {
            "duration": 0.3692304000000064,
            "durationTicks": 192,
            "midi": 46,
            "name": "A#2",
            "ticks": 47040,
            "time": 95.48605599999999,
            "velocity": 0.6299212598425197
          },
          {
            "duration": 0.3692304000000064,
            "durationTicks": 192,
            "midi": 53,
            "name": "F3",
            "ticks": 47280,
            "time": 95.947594,
            "velocity": 0.6299212598425197
          },
          {
            "duration": 0.3692303999999922,
            "durationTicks": 192,
            "midi": 53,
            "name": "F3",
            "ticks": 47520,
            "time": 96.409132,
            "velocity": 0.6299212598425197
          },
          {
            "duration": 0.3692304000000064,
            "durationTicks": 192,
            "midi": 53,
            "name": "F3",
            "ticks": 47760,
            "time": 96.87066999999999,
            "velocity": 0.6299212598425197
          },
          {
            "duration": 0.3692304000000064,
            "durationTicks": 192,
            "midi": 48,
            "name": "C3",
            "ticks": 48000,
            "time": 97.332208,
            "velocity": 0.6299212598425197
          },
          {
            "duration": 0.3692303999999922,
            "durationTicks": 192,
            "midi": 48,
            "name": "C3",
            "ticks": 48240,
            "time": 97.793746,
            "velocity": 0.6299212598425197
          },
          {
            "duration": 0.3692304000000064,
            "durationTicks": 192,
            "midi": 48,
            "name": "C3",
            "ticks": 48480,
            "time": 98.25528399999999,
            "velocity": 0.6299212598425197
          },
          {
            "duration": 0.3692304000000064,
            "durationTicks": 192,
            "midi": 55,
            "name": "G3",
            "ticks": 48720,
            "time": 98.716822,
            "velocity": 0.6299212598425197
          },
          {
            "duration": 0.3692303999999922,
            "durationTicks": 192,
            "midi": 55,
            "name": "G3",
            "ticks": 48960,
            "time": 99.17836,
            "velocity": 0.6299212598425197
          },
          {
            "duration": 0.3692304000000064,
            "durationTicks": 192,
            "midi": 55,
            "name": "G3",
            "ticks": 49200,
            "time": 99.63989799999999,
            "velocity": 0.6299212598425197
          },
          {
            "duration": 0.3692304000000064,
            "durationTicks": 192,
            "midi": 41,
            "name": "F2",
            "ticks": 49440,
            "time": 100.10143599999999,
            "velocity": 0.6299212598425197
          },
          {
            "duration": 0.3692303999999922,
            "durationTicks": 192,
            "midi": 41,
            "name": "F2",
            "ticks": 49680,
            "time": 100.562974,
            "velocity": 0.6299212598425197
          },
          {
            "duration": 0.3692304000000064,
            "durationTicks": 192,
            "midi": 41,
            "name": "F2",
            "ticks": 49920,
            "time": 101.02451199999999,
            "velocity": 0.6299212598425197
          },
          {
            "duration": 0.3692304000000064,
            "durationTicks": 192,
            "midi": 48,
            "name": "C3",
            "ticks": 50160,
            "time": 101.48604999999999,
            "velocity": 0.6299212598425197
          },
          {
            "duration": 0.3692303999999922,
            "durationTicks": 192,
            "midi": 48,
            "name": "C3",
            "ticks": 50400,
            "time": 101.947588,
            "velocity": 0.6299212598425197
          },
          {
            "duration": 0.3692304000000064,
            "durationTicks": 192,
            "midi": 48,
            "name": "C3",
            "ticks": 50640,
            "time": 102.40912599999999,
            "velocity": 0.6299212598425197
          },
          {
            "duration": 0.3692303999999922,
            "durationTicks": 192,
            "midi": 46,
            "name": "A#2",
            "ticks": 50880,
            "time": 102.870664,
            "velocity": 0.6299212598425197
          },
          {
            "duration": 0.3692303999999922,
            "durationTicks": 192,
            "midi": 50,
            "name": "D3",
            "ticks": 51120,
            "time": 103.332202,
            "velocity": 0.6299212598425197
          },
          {
            "duration": 0.3692304000000064,
            "durationTicks": 192,
            "midi": 53,
            "name": "F3",
            "ticks": 51360,
            "time": 103.79373999999999,
            "velocity": 0.6299212598425197
          },
          {
            "duration": 0.3692303999999922,
            "durationTicks": 192,
            "midi": 58,
            "name": "A#3",
            "ticks": 51600,
            "time": 104.255278,
            "velocity": 0.6299212598425197
          },
          {
            "duration": 0.3692303999999922,
            "durationTicks": 192,
            "midi": 53,
            "name": "F3",
            "ticks": 51840,
            "time": 104.716816,
            "velocity": 0.6299212598425197
          },
          {
            "duration": 0.3692304000000064,
            "durationTicks": 192,
            "midi": 46,
            "name": "A#2",
            "ticks": 52080,
            "time": 105.17835399999998,
            "velocity": 0.6299212598425197
          },
          {
            "duration": 0.3692303999999922,
            "durationTicks": 192,
            "midi": 48,
            "name": "C3",
            "ticks": 52320,
            "time": 105.639892,
            "velocity": 0.6299212598425197
          },
          {
            "duration": 0.3692303999999922,
            "durationTicks": 192,
            "midi": 48,
            "name": "C3",
            "ticks": 52560,
            "time": 106.10143,
            "velocity": 0.6299212598425197
          },
          {
            "duration": 0.3692304000000064,
            "durationTicks": 192,
            "midi": 48,
            "name": "C3",
            "ticks": 52800,
            "time": 106.56296799999998,
            "velocity": 0.6299212598425197
          },
          {
            "duration": 0.3692303999999922,
            "durationTicks": 192,
            "midi": 55,
            "name": "G3",
            "ticks": 53040,
            "time": 107.024506,
            "velocity": 0.6299212598425197
          },
          {
            "duration": 0.3692303999999922,
            "durationTicks": 192,
            "midi": 55,
            "name": "G3",
            "ticks": 53280,
            "time": 107.48604399999999,
            "velocity": 0.6299212598425197
          },
          {
            "duration": 0.3692303999999922,
            "durationTicks": 192,
            "midi": 55,
            "name": "G3",
            "ticks": 53520,
            "time": 107.947582,
            "velocity": 0.6299212598425197
          },
          {
            "duration": 0.3692303999999922,
            "durationTicks": 192,
            "midi": 43,
            "name": "G2",
            "ticks": 53760,
            "time": 108.40912,
            "velocity": 0.6299212598425197
          },
          {
            "duration": 0.3692303999999922,
            "durationTicks": 192,
            "midi": 47,
            "name": "B2",
            "ticks": 54000,
            "time": 108.87065799999999,
            "velocity": 0.6299212598425197
          },
          {
            "duration": 0.3692304000000064,
            "durationTicks": 192,
            "midi": 50,
            "name": "D3",
            "ticks": 54240,
            "time": 109.332196,
            "velocity": 0.6299212598425197
          },
          {
            "duration": 0.3692303999999922,
            "durationTicks": 192,
            "midi": 55,
            "name": "G3",
            "ticks": 54480,
            "time": 109.793734,
            "velocity": 0.6299212598425197
          },
          {
            "duration": 0.3692303999999922,
            "durationTicks": 192,
            "midi": 54,
            "name": "F#3",
            "ticks": 54720,
            "time": 110.25527199999999,
            "velocity": 0.6299212598425197
          },
          {
            "duration": 0.3692304000000064,
            "durationTicks": 192,
            "midi": 52,
            "name": "E3",
            "ticks": 54960,
            "time": 110.71681,
            "velocity": 0.6299212598425197
          },
          {
            "duration": 1.107691200000005,
            "durationTicks": 576,
            "midi": 57,
            "name": "A3",
            "ticks": 62880,
            "time": 130.972172,
            "velocity": 0.6299212598425197
          },
          {
            "duration": 1.107691200000005,
            "durationTicks": 576,
            "midi": 55,
            "name": "G3",
            "ticks": 63600,
            "time": 132.356786,
            "velocity": 0.6299212598425197
          },
          {
            "duration": 1.107691200000005,
            "durationTicks": 576,
            "midi": 54,
            "name": "F#3",
            "ticks": 64320,
            "time": 133.7414,
            "velocity": 0.6299212598425197
          },
          {
            "duration": 1.107691200000005,
            "durationTicks": 576,
            "midi": 53,
            "name": "F3",
            "ticks": 65040,
            "time": 135.126014,
            "velocity": 0.6299212598425197
          },
          {
            "duration": 1.107691200000005,
            "durationTicks": 576,
            "midi": 52,
            "name": "E3",
            "ticks": 65760,
            "time": 136.510628,
            "velocity": 0.6299212598425197
          },
          {
            "duration": 1.107691200000005,
            "durationTicks": 576,
            "midi": 55,
            "name": "G3",
            "ticks": 66480,
            "time": 137.895242,
            "velocity": 0.6299212598425197
          },
          {
            "duration": 1.107691200000005,
            "durationTicks": 576,
            "midi": 54,
            "name": "F#3",
            "ticks": 67200,
            "time": 139.279856,
            "velocity": 0.6299212598425197
          },
          {
            "duration": 0.3692303999999922,
            "durationTicks": 192,
            "midi": 53,
            "name": "F3",
            "ticks": 67920,
            "time": 140.66447,
            "velocity": 0.6299212598425197
          },
          {
            "duration": 0.3692303999999922,
            "durationTicks": 192,
            "midi": 48,
            "name": "C3",
            "ticks": 68160,
            "time": 141.126008,
            "velocity": 0.6299212598425197
          },
          {
            "duration": 0.3692303999999922,
            "durationTicks": 192,
            "midi": 53,
            "name": "F3",
            "ticks": 68400,
            "time": 141.587546,
            "velocity": 0.6299212598425197
          },
          {
            "duration": 0.5538456000000167,
            "durationTicks": 288,
            "midi": 48,
            "name": "C3",
            "ticks": 68640,
            "time": 142.049084,
            "velocity": 0.6299212598425197
          },
          {
            "duration": 0.1846151999999961,
            "durationTicks": 96,
            "midi": 48,
            "name": "C3",
            "ticks": 69000,
            "time": 142.741391,
            "velocity": 0.6299212598425197
          },
          {
            "duration": 0.3692303999999922,
            "durationTicks": 192,
            "midi": 50,
            "name": "D3",
            "ticks": 69120,
            "time": 142.97216,
            "velocity": 0.6299212598425197
          },
          {
            "duration": 1.107691200000005,
            "durationTicks": 576,
            "midi": 52,
            "name": "E3",
            "ticks": 69360,
            "time": 143.433698,
            "velocity": 0.6299212598425197
          },
          {
            "duration": 1.107691200000005,
            "durationTicks": 576,
            "midi": 55,
            "name": "G3",
            "ticks": 70080,
            "time": 144.818312,
            "velocity": 0.6299212598425197
          },
          {
            "duration": 1.107691200000005,
            "durationTicks": 576,
            "midi": 54,
            "name": "F#3",
            "ticks": 70800,
            "time": 146.202926,
            "velocity": 0.6299212598425197
          },
          {
            "duration": 1.107691200000005,
            "durationTicks": 576,
            "midi": 53,
            "name": "F3",
            "ticks": 71520,
            "time": 147.58754,
            "velocity": 0.6299212598425197
          },
          {
            "duration": 1.107691200000005,
            "durationTicks": 576,
            "midi": 52,
            "name": "E3",
            "ticks": 72240,
            "time": 148.972154,
            "velocity": 0.6299212598425197
          },
          {
            "duration": 1.107691200000005,
            "durationTicks": 576,
            "midi": 55,
            "name": "G3",
            "ticks": 72960,
            "time": 150.356768,
            "velocity": 0.6299212598425197
          },
          {
            "duration": 0.3692304000000206,
            "durationTicks": 192,
            "midi": 54,
            "name": "F#3",
            "ticks": 73680,
            "time": 151.741382,
            "velocity": 0.6299212598425197
          },
          {
            "duration": 0.3692303999999922,
            "durationTicks": 192,
            "midi": 57,
            "name": "A3",
            "ticks": 73920,
            "time": 152.20292,
            "velocity": 0.6299212598425197
          },
          {
            "duration": 0.3692303999999922,
            "durationTicks": 192,
            "midi": 54,
            "name": "F#3",
            "ticks": 74160,
            "time": 152.664458,
            "velocity": 0.6299212598425197
          },
          {
            "duration": 0.5538456000000167,
            "durationTicks": 288,
            "midi": 57,
            "name": "A3",
            "ticks": 74400,
            "time": 153.125996,
            "velocity": 0.6299212598425197
          },
          {
            "duration": 0.18461520000002452,
            "durationTicks": 96,
            "midi": 54,
            "name": "F#3",
            "ticks": 74760,
            "time": 153.818303,
            "velocity": 0.6299212598425197
          },
          {
            "duration": 0.3692303999999922,
            "durationTicks": 192,
            "midi": 57,
            "name": "A3",
            "ticks": 74880,
            "time": 154.049072,
            "velocity": 0.6299212598425197
          }
        ],
        "endOfTrackTicks": 75072
      },
      {
        "channel": 9,
        "controlChanges": {
          "7": [
            {
              "number": 7,
              "ticks": 0,
              "time": 0,
              "value": 1
            }
          ]
        },
        "pitchBends": [],
        "instrument": {
          "family": "drums",
          "number": 0,
          "name": "standard kit"
        },
        "name": "Percussion (Channel 10)",
        "notes": [
          {
            "duration": 0.3692303999999993,
            "durationTicks": 192,
            "midi": 44,
            "name": "G#2",
            "ticks": 7920,
            "time": 15.230753999999997,
            "velocity": 0.6299212598425197
          },
          {
            "duration": 0.3692303999999993,
            "durationTicks": 192,
            "midi": 44,
            "name": "G#2",
            "ticks": 8160,
            "time": 15.692291999999998,
            "velocity": 0.6299212598425197
          },
          {
            "duration": 0.3692303999999993,
            "durationTicks": 192,
            "midi": 44,
            "name": "G#2",
            "ticks": 8400,
            "time": 16.15383,
            "velocity": 0.6299212598425197
          },
          {
            "duration": 0.3692303999999993,
            "durationTicks": 192,
            "midi": 44,
            "name": "G#2",
            "ticks": 8640,
            "time": 16.615367999999997,
            "velocity": 0.6299212598425197
          },
          {
            "duration": 0.3692303999999993,
            "durationTicks": 192,
            "midi": 44,
            "name": "G#2",
            "ticks": 8880,
            "time": 17.076905999999997,
            "velocity": 0.6299212598425197
          },
          {
            "duration": 0.3692303999999993,
            "durationTicks": 192,
            "midi": 44,
            "name": "G#2",
            "ticks": 9120,
            "time": 17.538444,
            "velocity": 0.6299212598425197
          },
          {
            "duration": 1.1076911999999979,
            "durationTicks": 576,
            "midi": 59,
            "name": "B3",
            "ticks": 9360,
            "time": 17.999982,
            "velocity": 0.6299212598425197
          },
          {
            "duration": 0.3692303999999993,
            "durationTicks": 192,
            "midi": 59,
            "name": "B3",
            "ticks": 13680,
            "time": 26.307665999999998,
            "velocity": 0.6299212598425197
          },
          {
            "duration": 0.36923039999999574,
            "durationTicks": 192,
            "midi": 59,
            "name": "B3",
            "ticks": 13920,
            "time": 26.769204,
            "velocity": 0.6299212598425197
          },
          {
            "duration": 0.3692303999999993,
            "durationTicks": 192,
            "midi": 59,
            "name": "B3",
            "ticks": 14160,
            "time": 27.230741999999996,
            "velocity": 0.6299212598425197
          },
          {
            "duration": 0.3692303999999993,
            "durationTicks": 192,
            "midi": 59,
            "name": "B3",
            "ticks": 14400,
            "time": 27.692279999999997,
            "velocity": 0.6299212598425197
          },
          {
            "duration": 0.3692303999999993,
            "durationTicks": 192,
            "midi": 59,
            "name": "B3",
            "ticks": 14640,
            "time": 28.153817999999998,
            "velocity": 0.6299212598425197
          },
          {
            "duration": 0.36923039999999574,
            "durationTicks": 192,
            "midi": 59,
            "name": "B3",
            "ticks": 14880,
            "time": 28.615356,
            "velocity": 0.6299212598425197
          },
          {
            "duration": 0.3692303999999993,
            "durationTicks": 192,
            "midi": 59,
            "name": "B3",
            "ticks": 15120,
            "time": 29.076893999999996,
            "velocity": 0.6299212598425197
          },
          {
            "duration": 0.3692303999999993,
            "durationTicks": 192,
            "midi": 59,
            "name": "B3",
            "ticks": 15360,
            "time": 29.538431999999997,
            "velocity": 0.6299212598425197
          },
          {
            "duration": 0.3692303999999993,
            "durationTicks": 192,
            "midi": 59,
            "name": "B3",
            "ticks": 15600,
            "time": 29.999969999999998,
            "velocity": 0.6299212598425197
          },
          {
            "duration": 0.3692303999999993,
            "durationTicks": 192,
            "midi": 59,
            "name": "B3",
            "ticks": 15840,
            "time": 30.461507999999995,
            "velocity": 0.6299212598425197
          },
          {
            "duration": 0.3692303999999993,
            "durationTicks": 192,
            "midi": 59,
            "name": "B3",
            "ticks": 16080,
            "time": 30.923045999999996,
            "velocity": 0.6299212598425197
          },
          {
            "duration": 0.3692303999999993,
            "durationTicks": 192,
            "midi": 59,
            "name": "B3",
            "ticks": 16320,
            "time": 31.384583999999997,
            "velocity": 0.6299212598425197
          },
          {
            "duration": 0.36923039999999574,
            "durationTicks": 192,
            "midi": 59,
            "name": "B3",
            "ticks": 16560,
            "time": 31.846121999999998,
            "velocity": 0.6299212598425197
          },
          {
            "duration": 0.3692303999999993,
            "durationTicks": 192,
            "midi": 59,
            "name": "B3",
            "ticks": 16800,
            "time": 32.30766,
            "velocity": 0.6299212598425197
          },
          {
            "duration": 0.3692303999999993,
            "durationTicks": 192,
            "midi": 59,
            "name": "B3",
            "ticks": 17040,
            "time": 32.769197999999996,
            "velocity": 0.6299212598425197
          },
          {
            "duration": 0.3692303999999993,
            "durationTicks": 192,
            "midi": 59,
            "name": "B3",
            "ticks": 17280,
            "time": 33.23073599999999,
            "velocity": 0.6299212598425197
          },
          {
            "duration": 0.3692303999999993,
            "durationTicks": 192,
            "midi": 59,
            "name": "B3",
            "ticks": 17520,
            "time": 33.692274,
            "velocity": 0.6299212598425197
          },
          {
            "duration": 0.3692303999999993,
            "durationTicks": 192,
            "midi": 59,
            "name": "B3",
            "ticks": 17760,
            "time": 34.153811999999995,
            "velocity": 0.6299212598425197
          },
          {
            "duration": 0.3692303999999922,
            "durationTicks": 192,
            "midi": 59,
            "name": "B3",
            "ticks": 18000,
            "time": 34.61535,
            "velocity": 0.6299212598425197
          },
          {
            "duration": 0.3692303999999993,
            "durationTicks": 192,
            "midi": 59,
            "name": "B3",
            "ticks": 18240,
            "time": 35.076888,
            "velocity": 0.6299212598425197
          },
          {
            "duration": 0.3692303999999993,
            "durationTicks": 192,
            "midi": 59,
            "name": "B3",
            "ticks": 18480,
            "time": 35.538425999999994,
            "velocity": 0.6299212598425197
          },
          {
            "duration": 0.3692303999999993,
            "durationTicks": 192,
            "midi": 59,
            "name": "B3",
            "ticks": 18720,
            "time": 35.999964,
            "velocity": 0.6299212598425197
          },
          {
            "duration": 0.3692303999999993,
            "durationTicks": 192,
            "midi": 59,
            "name": "B3",
            "ticks": 18960,
            "time": 36.461501999999996,
            "velocity": 0.6299212598425197
          },
          {
            "duration": 0.3692303999999993,
            "durationTicks": 192,
            "midi": 59,
            "name": "B3",
            "ticks": 19200,
            "time": 36.92303999999999,
            "velocity": 0.6299212598425197
          },
          {
            "duration": 0.3692303999999993,
            "durationTicks": 192,
            "midi": 59,
            "name": "B3",
            "ticks": 19440,
            "time": 37.384578,
            "velocity": 0.6299212598425197
          },
          {
            "duration": 0.3692303999999993,
            "durationTicks": 192,
            "midi": 59,
            "name": "B3",
            "ticks": 19680,
            "time": 37.846115999999995,
            "velocity": 0.6299212598425197
          },
          {
            "duration": 0.3692303999999993,
            "durationTicks": 192,
            "midi": 59,
            "name": "B3",
            "ticks": 19920,
            "time": 38.30765399999999,
            "velocity": 0.6299212598425197
          },
          {
            "duration": 0.3692303999999993,
            "durationTicks": 192,
            "midi": 59,
            "name": "B3",
            "ticks": 20160,
            "time": 38.769192,
            "velocity": 0.6299212598425197
          },
          {
            "duration": 0.3692303999999993,
            "durationTicks": 192,
            "midi": 59,
            "name": "B3",
            "ticks": 20400,
            "time": 39.230729999999994,
            "velocity": 0.6299212598425197
          },
          {
            "duration": 0.3692303999999922,
            "durationTicks": 192,
            "midi": 59,
            "name": "B3",
            "ticks": 20640,
            "time": 39.692268,
            "velocity": 0.6299212598425197
          },
          {
            "duration": 0.27692279999999414,
            "durationTicks": 144,
            "midi": 51,
            "name": "D#3",
            "ticks": 20880,
            "time": 40.153805999999996,
            "velocity": 0.6299212598425197
          },
          {
            "duration": 0.27692279999999414,
            "durationTicks": 144,
            "midi": 59,
            "name": "B3",
            "ticks": 20880,
            "time": 40.153805999999996,
            "velocity": 0.6299212598425197
          },
          {
            "duration": 0.09230759999999805,
            "durationTicks": 48,
            "midi": 59,
            "name": "B3",
            "ticks": 21060,
            "time": 40.499959499999996,
            "velocity": 0.6299212598425197
          },
          {
            "duration": 0.27692280000000125,
            "durationTicks": 144,
            "midi": 51,
            "name": "D#3",
            "ticks": 21120,
            "time": 40.61534399999999,
            "velocity": 0.6299212598425197
          },
          {
            "duration": 0.27692280000000125,
            "durationTicks": 144,
            "midi": 59,
            "name": "B3",
            "ticks": 21120,
            "time": 40.61534399999999,
            "velocity": 0.6299212598425197
          },
          {
            "duration": 0.09230760000000515,
            "durationTicks": 48,
            "midi": 59,
            "name": "B3",
            "ticks": 21300,
            "time": 40.96149749999999,
            "velocity": 0.6299212598425197
          },
          {
            "duration": 0.27692279999999414,
            "durationTicks": 144,
            "midi": 51,
            "name": "D#3",
            "ticks": 21360,
            "time": 41.076882,
            "velocity": 0.6299212598425197
          },
          {
            "duration": 0.27692279999999414,
            "durationTicks": 144,
            "midi": 59,
            "name": "B3",
            "ticks": 21360,
            "time": 41.076882,
            "velocity": 0.6299212598425197
          },
          {
            "duration": 0.09230759999999805,
            "durationTicks": 48,
            "midi": 59,
            "name": "B3",
            "ticks": 21540,
            "time": 41.4230355,
            "velocity": 0.6299212598425197
          },
          {
            "duration": 0.27692279999999414,
            "durationTicks": 144,
            "midi": 51,
            "name": "D#3",
            "ticks": 21600,
            "time": 41.538419999999995,
            "velocity": 0.6299212598425197
          },
          {
            "duration": 0.27692279999999414,
            "durationTicks": 144,
            "midi": 59,
            "name": "B3",
            "ticks": 21600,
            "time": 41.538419999999995,
            "velocity": 0.6299212598425197
          },
          {
            "duration": 0.09230760000000515,
            "durationTicks": 48,
            "midi": 59,
            "name": "B3",
            "ticks": 21780,
            "time": 41.884573499999995,
            "velocity": 0.6299212598425197
          },
          {
            "duration": 0.27692280000000125,
            "durationTicks": 144,
            "midi": 51,
            "name": "D#3",
            "ticks": 21840,
            "time": 41.99995799999999,
            "velocity": 0.6299212598425197
          },
          {
            "duration": 0.27692280000000125,
            "durationTicks": 144,
            "midi": 59,
            "name": "B3",
            "ticks": 21840,
            "time": 41.99995799999999,
            "velocity": 0.6299212598425197
          },
          {
            "duration": 0.09230760000000515,
            "durationTicks": 48,
            "midi": 59,
            "name": "B3",
            "ticks": 22020,
            "time": 42.34611149999999,
            "velocity": 0.6299212598425197
          },
          {
            "duration": 0.27692279999999414,
            "durationTicks": 144,
            "midi": 51,
            "name": "D#3",
            "ticks": 22080,
            "time": 42.461496,
            "velocity": 0.6299212598425197
          },
          {
            "duration": 0.27692279999999414,
            "durationTicks": 144,
            "midi": 59,
            "name": "B3",
            "ticks": 22080,
            "time": 42.461496,
            "velocity": 0.6299212598425197
          },
          {
            "duration": 0.09230759999999805,
            "durationTicks": 48,
            "midi": 59,
            "name": "B3",
            "ticks": 22260,
            "time": 42.8076495,
            "velocity": 0.6299212598425197
          },
          {
            "duration": 0.3692303999999993,
            "durationTicks": 192,
            "midi": 59,
            "name": "B3",
            "ticks": 22320,
            "time": 42.923033999999994,
            "velocity": 0.6299212598425197
          },
          {
            "duration": 0.3692303999999922,
            "durationTicks": 192,
            "midi": 59,
            "name": "B3",
            "ticks": 22560,
            "time": 43.384572,
            "velocity": 0.6299212598425197
          },
          {
            "duration": 0.3692303999999993,
            "durationTicks": 192,
            "midi": 59,
            "name": "B3",
            "ticks": 22800,
            "time": 43.846109999999996,
            "velocity": 0.6299212598425197
          },
          {
            "duration": 0.3692303999999993,
            "durationTicks": 192,
            "midi": 59,
            "name": "B3",
            "ticks": 23040,
            "time": 44.30764799999999,
            "velocity": 0.6299212598425197
          },
          {
            "duration": 0.3692303999999993,
            "durationTicks": 192,
            "midi": 59,
            "name": "B3",
            "ticks": 23280,
            "time": 44.769186,
            "velocity": 0.6299212598425197
          },
          {
            "duration": 0.3692303999999993,
            "durationTicks": 192,
            "midi": 59,
            "name": "B3",
            "ticks": 23520,
            "time": 45.230723999999995,
            "velocity": 0.6299212598425197
          },
          {
            "duration": 0.3692303999999993,
            "durationTicks": 192,
            "midi": 59,
            "name": "B3",
            "ticks": 23760,
            "time": 45.69226199999999,
            "velocity": 0.6299212598425197
          },
          {
            "duration": 0.3692303999999993,
            "durationTicks": 192,
            "midi": 59,
            "name": "B3",
            "ticks": 24000,
            "time": 46.1538,
            "velocity": 0.6299212598425197
          },
          {
            "duration": 0.3692303999999993,
            "durationTicks": 192,
            "midi": 59,
            "name": "B3",
            "ticks": 24240,
            "time": 46.615337999999994,
            "velocity": 0.6299212598425197
          },
          {
            "duration": 0.3692303999999993,
            "durationTicks": 192,
            "midi": 59,
            "name": "B3",
            "ticks": 24480,
            "time": 47.07687599999999,
            "velocity": 0.6299212598425197
          },
          {
            "duration": 0.3692303999999993,
            "durationTicks": 192,
            "midi": 59,
            "name": "B3",
            "ticks": 24720,
            "time": 47.538413999999996,
            "velocity": 0.6299212598425197
          },
          {
            "duration": 0.3692303999999993,
            "durationTicks": 192,
            "midi": 59,
            "name": "B3",
            "ticks": 24960,
            "time": 47.99995199999999,
            "velocity": 0.6299212598425197
          },
          {
            "duration": 0.4948455999999979,
            "durationTicks": 192,
            "midi": 47,
            "name": "B2",
            "ticks": 25440,
            "time": 49.080047,
            "velocity": 0.6299212598425197
          },
          {
            "duration": 0.4948455999999979,
            "durationTicks": 192,
            "midi": 40,
            "name": "E2",
            "ticks": 25440,
            "time": 49.080047,
            "velocity": 0.6299212598425197
          },
          {
            "duration": 0.4948455999999979,
            "durationTicks": 192,
            "midi": 36,
            "name": "C2",
            "ticks": 25440,
            "time": 49.080047,
            "velocity": 0.6299212598425197
          },
          {
            "duration": 0.4948455999999979,
            "durationTicks": 192,
            "midi": 38,
            "name": "D2",
            "ticks": 25440,
            "time": 49.080047,
            "velocity": 0.6299212598425197
          },
          {
            "duration": 0.494845600000005,
            "durationTicks": 192,
            "midi": 47,
            "name": "B2",
            "ticks": 25680,
            "time": 49.698603999999996,
            "velocity": 0.6299212598425197
          },
          {
            "duration": 0.494845600000005,
            "durationTicks": 192,
            "midi": 40,
            "name": "E2",
            "ticks": 25680,
            "time": 49.698603999999996,
            "velocity": 0.6299212598425197
          },
          {
            "duration": 0.494845600000005,
            "durationTicks": 192,
            "midi": 36,
            "name": "C2",
            "ticks": 25680,
            "time": 49.698603999999996,
            "velocity": 0.6299212598425197
          },
          {
            "duration": 0.494845600000005,
            "durationTicks": 192,
            "midi": 38,
            "name": "D2",
            "ticks": 25680,
            "time": 49.698603999999996,
            "velocity": 0.6299212598425197
          },
          {
            "duration": 0.4948455999999979,
            "durationTicks": 192,
            "midi": 47,
            "name": "B2",
            "ticks": 25920,
            "time": 50.317161,
            "velocity": 0.6299212598425197
          },
          {
            "duration": 0.4948455999999979,
            "durationTicks": 192,
            "midi": 40,
            "name": "E2",
            "ticks": 25920,
            "time": 50.317161,
            "velocity": 0.6299212598425197
          },
          {
            "duration": 0.4948455999999979,
            "durationTicks": 192,
            "midi": 36,
            "name": "C2",
            "ticks": 25920,
            "time": 50.317161,
            "velocity": 0.6299212598425197
          },
          {
            "duration": 0.4948455999999979,
            "durationTicks": 192,
            "midi": 38,
            "name": "D2",
            "ticks": 25920,
            "time": 50.317161,
            "velocity": 0.6299212598425197
          },
          {
            "duration": 0.2474228000000025,
            "durationTicks": 96,
            "midi": 59,
            "name": "B3",
            "ticks": 26160,
            "time": 50.935717999999994,
            "velocity": 0.6299212598425197
          },
          {
            "duration": 0.2474228000000025,
            "durationTicks": 96,
            "midi": 36,
            "name": "C2",
            "ticks": 26160,
            "time": 50.935717999999994,
            "velocity": 0.6299212598425197
          },
          {
            "duration": 0.2474228000000025,
            "durationTicks": 96,
            "midi": 42,
            "name": "F#2",
            "ticks": 26160,
            "time": 50.935717999999994,
            "velocity": 0.6299212598425197
          },
          {
            "duration": 0.2474227999999954,
            "durationTicks": 96,
            "midi": 60,
            "name": "C4",
            "ticks": 26280,
            "time": 51.2449965,
            "velocity": 0.6299212598425197
          },
          {
            "duration": 0.2474227999999954,
            "durationTicks": 96,
            "midi": 42,
            "name": "F#2",
            "ticks": 26280,
            "time": 51.2449965,
            "velocity": 0.6299212598425197
          },
          {
            "duration": 0.2474228000000025,
            "durationTicks": 96,
            "midi": 38,
            "name": "D2",
            "ticks": 26400,
            "time": 51.554275,
            "velocity": 0.6299212598425197
          },
          {
            "duration": 0.2474228000000025,
            "durationTicks": 96,
            "midi": 42,
            "name": "F#2",
            "ticks": 26400,
            "time": 51.554275,
            "velocity": 0.6299212598425197
          },
          {
            "duration": 0.2474228000000025,
            "durationTicks": 96,
            "midi": 54,
            "name": "F#3",
            "ticks": 26520,
            "time": 51.863553499999995,
            "velocity": 0.6299212598425197
          },
          {
            "duration": 0.2474228000000025,
            "durationTicks": 96,
            "midi": 42,
            "name": "F#2",
            "ticks": 26520,
            "time": 51.863553499999995,
            "velocity": 0.6299212598425197
          },
          {
            "duration": 0.2474227999999954,
            "durationTicks": 96,
            "midi": 59,
            "name": "B3",
            "ticks": 26640,
            "time": 52.172832,
            "velocity": 0.6299212598425197
          },
          {
            "duration": 0.2474227999999954,
            "durationTicks": 96,
            "midi": 36,
            "name": "C2",
            "ticks": 26640,
            "time": 52.172832,
            "velocity": 0.6299212598425197
          },
          {
            "duration": 0.2474227999999954,
            "durationTicks": 96,
            "midi": 42,
            "name": "F#2",
            "ticks": 26640,
            "time": 52.172832,
            "velocity": 0.6299212598425197
          },
          {
            "duration": 0.2474228000000025,
            "durationTicks": 96,
            "midi": 60,
            "name": "C4",
            "ticks": 26760,
            "time": 52.4821105,
            "velocity": 0.6299212598425197
          },
          {
            "duration": 0.2474228000000025,
            "durationTicks": 96,
            "midi": 42,
            "name": "F#2",
            "ticks": 26760,
            "time": 52.4821105,
            "velocity": 0.6299212598425197
          },
          {
            "duration": 0.2474228000000025,
            "durationTicks": 96,
            "midi": 38,
            "name": "D2",
            "ticks": 26880,
            "time": 52.791388999999995,
            "velocity": 0.6299212598425197
          },
          {
            "duration": 0.2474228000000025,
            "durationTicks": 96,
            "midi": 42,
            "name": "F#2",
            "ticks": 26880,
            "time": 52.791388999999995,
            "velocity": 0.6299212598425197
          },
          {
            "duration": 0.2474227999999954,
            "durationTicks": 96,
            "midi": 54,
            "name": "F#3",
            "ticks": 27000,
            "time": 53.1006675,
            "velocity": 0.6299212598425197
          },
          {
            "duration": 0.2474227999999954,
            "durationTicks": 96,
            "midi": 42,
            "name": "F#2",
            "ticks": 27000,
            "time": 53.1006675,
            "velocity": 0.6299212598425197
          },
          {
            "duration": 0.2474228000000025,
            "durationTicks": 96,
            "midi": 42,
            "name": "F#2",
            "ticks": 27120,
            "time": 53.409946,
            "velocity": 0.6299212598425197
          },
          {
            "duration": 0.2474228000000025,
            "durationTicks": 96,
            "midi": 36,
            "name": "C2",
            "ticks": 27120,
            "time": 53.409946,
            "velocity": 0.6299212598425197
          },
          {
            "duration": 0.2474228000000025,
            "durationTicks": 96,
            "midi": 59,
            "name": "B3",
            "ticks": 27120,
            "time": 53.409946,
            "velocity": 0.6299212598425197
          },
          {
            "duration": 0.2474228000000025,
            "durationTicks": 96,
            "midi": 42,
            "name": "F#2",
            "ticks": 27240,
            "time": 53.719224499999996,
            "velocity": 0.6299212598425197
          },
          {
            "duration": 0.2474228000000025,
            "durationTicks": 96,
            "midi": 60,
            "name": "C4",
            "ticks": 27240,
            "time": 53.719224499999996,
            "velocity": 0.6299212598425197
          },
          {
            "duration": 0.2474227999999954,
            "durationTicks": 96,
            "midi": 42,
            "name": "F#2",
            "ticks": 27360,
            "time": 54.028503,
            "velocity": 0.6299212598425197
          },
          {
            "duration": 0.2474227999999954,
            "durationTicks": 96,
            "midi": 38,
            "name": "D2",
            "ticks": 27360,
            "time": 54.028503,
            "velocity": 0.6299212598425197
          },
          {
            "duration": 0.2474228000000025,
            "durationTicks": 96,
            "midi": 42,
            "name": "F#2",
            "ticks": 27480,
            "time": 54.3377815,
            "velocity": 0.6299212598425197
          },
          {
            "duration": 0.2474228000000025,
            "durationTicks": 96,
            "midi": 54,
            "name": "F#3",
            "ticks": 27480,
            "time": 54.3377815,
            "velocity": 0.6299212598425197
          },
          {
            "duration": 0.2474228000000025,
            "durationTicks": 96,
            "midi": 42,
            "name": "F#2",
            "ticks": 27600,
            "time": 54.647059999999996,
            "velocity": 0.6299212598425197
          },
          {
            "duration": 0.2474228000000025,
            "durationTicks": 96,
            "midi": 36,
            "name": "C2",
            "ticks": 27600,
            "time": 54.647059999999996,
            "velocity": 0.6299212598425197
          },
          {
            "duration": 0.2474228000000025,
            "durationTicks": 96,
            "midi": 59,
            "name": "B3",
            "ticks": 27600,
            "time": 54.647059999999996,
            "velocity": 0.6299212598425197
          },
          {
            "duration": 0.2474227999999954,
            "durationTicks": 96,
            "midi": 42,
            "name": "F#2",
            "ticks": 27720,
            "time": 54.9563385,
            "velocity": 0.6299212598425197
          },
          {
            "duration": 0.2474227999999954,
            "durationTicks": 96,
            "midi": 60,
            "name": "C4",
            "ticks": 27720,
            "time": 54.9563385,
            "velocity": 0.6299212598425197
          },
          {
            "duration": 0.2474228000000025,
            "durationTicks": 96,
            "midi": 42,
            "name": "F#2",
            "ticks": 27840,
            "time": 55.265617,
            "velocity": 0.6299212598425197
          },
          {
            "duration": 0.2474228000000025,
            "durationTicks": 96,
            "midi": 38,
            "name": "D2",
            "ticks": 27840,
            "time": 55.265617,
            "velocity": 0.6299212598425197
          },
          {
            "duration": 0.2474228000000025,
            "durationTicks": 96,
            "midi": 42,
            "name": "F#2",
            "ticks": 27960,
            "time": 55.5748955,
            "velocity": 0.6299212598425197
          },
          {
            "duration": 0.2474228000000025,
            "durationTicks": 96,
            "midi": 54,
            "name": "F#3",
            "ticks": 27960,
            "time": 55.5748955,
            "velocity": 0.6299212598425197
          },
          {
            "duration": 0.2474227999999954,
            "durationTicks": 96,
            "midi": 42,
            "name": "F#2",
            "ticks": 28080,
            "time": 55.884174,
            "velocity": 0.6299212598425197
          },
          {
            "duration": 0.2474227999999954,
            "durationTicks": 96,
            "midi": 36,
            "name": "C2",
            "ticks": 28080,
            "time": 55.884174,
            "velocity": 0.6299212598425197
          },
          {
            "duration": 0.2474227999999954,
            "durationTicks": 96,
            "midi": 59,
            "name": "B3",
            "ticks": 28080,
            "time": 55.884174,
            "velocity": 0.6299212598425197
          },
          {
            "duration": 0.2474228000000025,
            "durationTicks": 96,
            "midi": 42,
            "name": "F#2",
            "ticks": 28200,
            "time": 56.1934525,
            "velocity": 0.6299212598425197
          },
          {
            "duration": 0.2474228000000025,
            "durationTicks": 96,
            "midi": 60,
            "name": "C4",
            "ticks": 28200,
            "time": 56.1934525,
            "velocity": 0.6299212598425197
          },
          {
            "duration": 0.2474228000000025,
            "durationTicks": 96,
            "midi": 42,
            "name": "F#2",
            "ticks": 28320,
            "time": 56.502731,
            "velocity": 0.6299212598425197
          },
          {
            "duration": 0.2474228000000025,
            "durationTicks": 96,
            "midi": 38,
            "name": "D2",
            "ticks": 28320,
            "time": 56.502731,
            "velocity": 0.6299212598425197
          },
          {
            "duration": 0.2474227999999954,
            "durationTicks": 96,
            "midi": 42,
            "name": "F#2",
            "ticks": 28440,
            "time": 56.8120095,
            "velocity": 0.6299212598425197
          },
          {
            "duration": 0.2474227999999954,
            "durationTicks": 96,
            "midi": 54,
            "name": "F#3",
            "ticks": 28440,
            "time": 56.8120095,
            "velocity": 0.6299212598425197
          },
          {
            "duration": 0.2474228000000025,
            "durationTicks": 96,
            "midi": 42,
            "name": "F#2",
            "ticks": 28560,
            "time": 57.121288,
            "velocity": 0.6299212598425197
          },
          {
            "duration": 0.2474228000000025,
            "durationTicks": 96,
            "midi": 36,
            "name": "C2",
            "ticks": 28560,
            "time": 57.121288,
            "velocity": 0.6299212598425197
          },
          {
            "duration": 0.2474228000000025,
            "durationTicks": 96,
            "midi": 59,
            "name": "B3",
            "ticks": 28560,
            "time": 57.121288,
            "velocity": 0.6299212598425197
          },
          {
            "duration": 0.2474228000000025,
            "durationTicks": 96,
            "midi": 42,
            "name": "F#2",
            "ticks": 28680,
            "time": 57.4305665,
            "velocity": 0.6299212598425197
          },
          {
            "duration": 0.2474228000000025,
            "durationTicks": 96,
            "midi": 60,
            "name": "C4",
            "ticks": 28680,
            "time": 57.4305665,
            "velocity": 0.6299212598425197
          },
          {
            "duration": 0.2474227999999954,
            "durationTicks": 96,
            "midi": 42,
            "name": "F#2",
            "ticks": 28800,
            "time": 57.739845,
            "velocity": 0.6299212598425197
          },
          {
            "duration": 0.2474227999999954,
            "durationTicks": 96,
            "midi": 38,
            "name": "D2",
            "ticks": 28800,
            "time": 57.739845,
            "velocity": 0.6299212598425197
          },
          {
            "duration": 0.2474227999999954,
            "durationTicks": 96,
            "midi": 42,
            "name": "F#2",
            "ticks": 28920,
            "time": 58.0491235,
            "velocity": 0.6299212598425197
          },
          {
            "duration": 0.2474227999999954,
            "durationTicks": 96,
            "midi": 54,
            "name": "F#3",
            "ticks": 28920,
            "time": 58.0491235,
            "velocity": 0.6299212598425197
          },
          {
            "duration": 0.2474227999999954,
            "durationTicks": 96,
            "midi": 42,
            "name": "F#2",
            "ticks": 29040,
            "time": 58.358402,
            "velocity": 0.6299212598425197
          },
          {
            "duration": 0.2474227999999954,
            "durationTicks": 96,
            "midi": 36,
            "name": "C2",
            "ticks": 29040,
            "time": 58.358402,
            "velocity": 0.6299212598425197
          },
          {
            "duration": 0.2474227999999954,
            "durationTicks": 96,
            "midi": 59,
            "name": "B3",
            "ticks": 29040,
            "time": 58.358402,
            "velocity": 0.6299212598425197
          },
          {
            "duration": 0.2474228000000025,
            "durationTicks": 96,
            "midi": 42,
            "name": "F#2",
            "ticks": 29160,
            "time": 58.667680499999996,
            "velocity": 0.6299212598425197
          },
          {
            "duration": 0.2474228000000025,
            "durationTicks": 96,
            "midi": 60,
            "name": "C4",
            "ticks": 29160,
            "time": 58.667680499999996,
            "velocity": 0.6299212598425197
          },
          {
            "duration": 0.2474228000000025,
            "durationTicks": 96,
            "midi": 42,
            "name": "F#2",
            "ticks": 29280,
            "time": 58.976958999999994,
            "velocity": 0.6299212598425197
          },
          {
            "duration": 0.2474228000000025,
            "durationTicks": 96,
            "midi": 38,
            "name": "D2",
            "ticks": 29280,
            "time": 58.976958999999994,
            "velocity": 0.6299212598425197
          },
          {
            "duration": 0.2474227999999954,
            "durationTicks": 96,
            "midi": 42,
            "name": "F#2",
            "ticks": 29400,
            "time": 59.2862375,
            "velocity": 0.6299212598425197
          },
          {
            "duration": 0.2474227999999954,
            "durationTicks": 96,
            "midi": 54,
            "name": "F#3",
            "ticks": 29400,
            "time": 59.2862375,
            "velocity": 0.6299212598425197
          },
          {
            "duration": 0.2474228000000025,
            "durationTicks": 96,
            "midi": 42,
            "name": "F#2",
            "ticks": 29520,
            "time": 59.595515999999996,
            "velocity": 0.6299212598425197
          },
          {
            "duration": 0.2474228000000025,
            "durationTicks": 96,
            "midi": 36,
            "name": "C2",
            "ticks": 29520,
            "time": 59.595515999999996,
            "velocity": 0.6299212598425197
          },
          {
            "duration": 0.2474228000000025,
            "durationTicks": 96,
            "midi": 59,
            "name": "B3",
            "ticks": 29520,
            "time": 59.595515999999996,
            "velocity": 0.6299212598425197
          },
          {
            "duration": 0.2474228000000025,
            "durationTicks": 96,
            "midi": 42,
            "name": "F#2",
            "ticks": 29640,
            "time": 59.904794499999994,
            "velocity": 0.6299212598425197
          },
          {
            "duration": 0.2474228000000025,
            "durationTicks": 96,
            "midi": 60,
            "name": "C4",
            "ticks": 29640,
            "time": 59.904794499999994,
            "velocity": 0.6299212598425197
          },
          {
            "duration": 0.2474227999999954,
            "durationTicks": 96,
            "midi": 42,
            "name": "F#2",
            "ticks": 29760,
            "time": 60.214073,
            "velocity": 0.6299212598425197
          },
          {
            "duration": 0.2474227999999954,
            "durationTicks": 96,
            "midi": 38,
            "name": "D2",
            "ticks": 29760,
            "time": 60.214073,
            "velocity": 0.6299212598425197
          },
          {
            "duration": 0.2474228000000025,
            "durationTicks": 96,
            "midi": 42,
            "name": "F#2",
            "ticks": 29880,
            "time": 60.5233515,
            "velocity": 0.6299212598425197
          },
          {
            "duration": 0.2474228000000025,
            "durationTicks": 96,
            "midi": 54,
            "name": "F#3",
            "ticks": 29880,
            "time": 60.5233515,
            "velocity": 0.6299212598425197
          },
          {
            "duration": 0.2474228000000025,
            "durationTicks": 96,
            "midi": 42,
            "name": "F#2",
            "ticks": 30000,
            "time": 60.832629999999995,
            "velocity": 0.6299212598425197
          },
          {
            "duration": 0.2474228000000025,
            "durationTicks": 96,
            "midi": 36,
            "name": "C2",
            "ticks": 30000,
            "time": 60.832629999999995,
            "velocity": 0.6299212598425197
          },
          {
            "duration": 0.2474228000000025,
            "durationTicks": 96,
            "midi": 59,
            "name": "B3",
            "ticks": 30000,
            "time": 60.832629999999995,
            "velocity": 0.6299212598425197
          },
          {
            "duration": 0.2474227999999954,
            "durationTicks": 96,
            "midi": 42,
            "name": "F#2",
            "ticks": 30120,
            "time": 61.1419085,
            "velocity": 0.6299212598425197
          },
          {
            "duration": 0.2474227999999954,
            "durationTicks": 96,
            "midi": 60,
            "name": "C4",
            "ticks": 30120,
            "time": 61.1419085,
            "velocity": 0.6299212598425197
          },
          {
            "duration": 0.2474228000000025,
            "durationTicks": 96,
            "midi": 42,
            "name": "F#2",
            "ticks": 30240,
            "time": 61.451187,
            "velocity": 0.6299212598425197
          },
          {
            "duration": 0.2474228000000025,
            "durationTicks": 96,
            "midi": 38,
            "name": "D2",
            "ticks": 30240,
            "time": 61.451187,
            "velocity": 0.6299212598425197
          },
          {
            "duration": 0.2474228000000025,
            "durationTicks": 96,
            "midi": 42,
            "name": "F#2",
            "ticks": 30360,
            "time": 61.760465499999995,
            "velocity": 0.6299212598425197
          },
          {
            "duration": 0.2474228000000025,
            "durationTicks": 96,
            "midi": 54,
            "name": "F#3",
            "ticks": 30360,
            "time": 61.760465499999995,
            "velocity": 0.6299212598425197
          },
          {
            "duration": 0.2474227999999954,
            "durationTicks": 96,
            "midi": 42,
            "name": "F#2",
            "ticks": 30480,
            "time": 62.069744,
            "velocity": 0.6299212598425197
          },
          {
            "duration": 0.2474227999999954,
            "durationTicks": 96,
            "midi": 36,
            "name": "C2",
            "ticks": 30480,
            "time": 62.069744,
            "velocity": 0.6299212598425197
          },
          {
            "duration": 0.2474227999999954,
            "durationTicks": 96,
            "midi": 59,
            "name": "B3",
            "ticks": 30480,
            "time": 62.069744,
            "velocity": 0.6299212598425197
          },
          {
            "duration": 0.2474228000000025,
            "durationTicks": 96,
            "midi": 42,
            "name": "F#2",
            "ticks": 30600,
            "time": 62.3790225,
            "velocity": 0.6299212598425197
          },
          {
            "duration": 0.2474228000000025,
            "durationTicks": 96,
            "midi": 60,
            "name": "C4",
            "ticks": 30600,
            "time": 62.3790225,
            "velocity": 0.6299212598425197
          },
          {
            "duration": 0.2474228000000025,
            "durationTicks": 96,
            "midi": 42,
            "name": "F#2",
            "ticks": 30720,
            "time": 62.688300999999996,
            "velocity": 0.6299212598425197
          },
          {
            "duration": 0.2474228000000025,
            "durationTicks": 96,
            "midi": 38,
            "name": "D2",
            "ticks": 30720,
            "time": 62.688300999999996,
            "velocity": 0.6299212598425197
          },
          {
            "duration": 0.2474227999999954,
            "durationTicks": 96,
            "midi": 42,
            "name": "F#2",
            "ticks": 30840,
            "time": 62.9975795,
            "velocity": 0.6299212598425197
          },
          {
            "duration": 0.2474227999999954,
            "durationTicks": 96,
            "midi": 54,
            "name": "F#3",
            "ticks": 30840,
            "time": 62.9975795,
            "velocity": 0.6299212598425197
          },
          {
            "duration": 0.2474228000000025,
            "durationTicks": 96,
            "midi": 59,
            "name": "B3",
            "ticks": 30960,
            "time": 63.306858,
            "velocity": 0.6299212598425197
          },
          {
            "duration": 0.2474228000000025,
            "durationTicks": 96,
            "midi": 36,
            "name": "C2",
            "ticks": 30960,
            "time": 63.306858,
            "velocity": 0.6299212598425197
          },
          {
            "duration": 0.2474228000000025,
            "durationTicks": 96,
            "midi": 42,
            "name": "F#2",
            "ticks": 30960,
            "time": 63.306858,
            "velocity": 0.6299212598425197
          },
          {
            "duration": 0.2474228000000025,
            "durationTicks": 96,
            "midi": 60,
            "name": "C4",
            "ticks": 31080,
            "time": 63.616136499999996,
            "velocity": 0.6299212598425197
          },
          {
            "duration": 0.2474228000000025,
            "durationTicks": 96,
            "midi": 42,
            "name": "F#2",
            "ticks": 31080,
            "time": 63.616136499999996,
            "velocity": 0.6299212598425197
          },
          {
            "duration": 0.2474227999999954,
            "durationTicks": 96,
            "midi": 38,
            "name": "D2",
            "ticks": 31200,
            "time": 63.925415,
            "velocity": 0.6299212598425197
          },
          {
            "duration": 0.2474227999999954,
            "durationTicks": 96,
            "midi": 42,
            "name": "F#2",
            "ticks": 31200,
            "time": 63.925415,
            "velocity": 0.6299212598425197
          },
          {
            "duration": 0.2474228000000096,
            "durationTicks": 96,
            "midi": 54,
            "name": "F#3",
            "ticks": 31320,
            "time": 64.23469349999999,
            "velocity": 0.6299212598425197
          },
          {
            "duration": 0.2474228000000096,
            "durationTicks": 96,
            "midi": 42,
            "name": "F#2",
            "ticks": 31320,
            "time": 64.23469349999999,
            "velocity": 0.6299212598425197
          },
          {
            "duration": 0.2474228000000096,
            "durationTicks": 96,
            "midi": 59,
            "name": "B3",
            "ticks": 31440,
            "time": 64.543972,
            "velocity": 0.6299212598425197
          },
          {
            "duration": 0.2474228000000096,
            "durationTicks": 96,
            "midi": 36,
            "name": "C2",
            "ticks": 31440,
            "time": 64.543972,
            "velocity": 0.6299212598425197
          },
          {
            "duration": 0.2474228000000096,
            "durationTicks": 96,
            "midi": 42,
            "name": "F#2",
            "ticks": 31440,
            "time": 64.543972,
            "velocity": 0.6299212598425197
          },
          {
            "duration": 0.2474227999999954,
            "durationTicks": 96,
            "midi": 60,
            "name": "C4",
            "ticks": 31560,
            "time": 64.8532505,
            "velocity": 0.6299212598425197
          },
          {
            "duration": 0.2474227999999954,
            "durationTicks": 96,
            "midi": 42,
            "name": "F#2",
            "ticks": 31560,
            "time": 64.8532505,
            "velocity": 0.6299212598425197
          },
          {
            "duration": 0.2474227999999954,
            "durationTicks": 96,
            "midi": 38,
            "name": "D2",
            "ticks": 31680,
            "time": 65.162529,
            "velocity": 0.6299212598425197
          },
          {
            "duration": 0.2474227999999954,
            "durationTicks": 96,
            "midi": 42,
            "name": "F#2",
            "ticks": 31680,
            "time": 65.162529,
            "velocity": 0.6299212598425197
          },
          {
            "duration": 0.2474227999999954,
            "durationTicks": 96,
            "midi": 54,
            "name": "F#3",
            "ticks": 31800,
            "time": 65.4718075,
            "velocity": 0.6299212598425197
          },
          {
            "duration": 0.2474227999999954,
            "durationTicks": 96,
            "midi": 42,
            "name": "F#2",
            "ticks": 31800,
            "time": 65.4718075,
            "velocity": 0.6299212598425197
          },
          {
            "duration": 0.2474227999999954,
            "durationTicks": 96,
            "midi": 42,
            "name": "F#2",
            "ticks": 31920,
            "time": 65.781086,
            "velocity": 0.6299212598425197
          },
          {
            "duration": 0.2474227999999954,
            "durationTicks": 96,
            "midi": 36,
            "name": "C2",
            "ticks": 31920,
            "time": 65.781086,
            "velocity": 0.6299212598425197
          },
          {
            "duration": 0.2474227999999954,
            "durationTicks": 96,
            "midi": 59,
            "name": "B3",
            "ticks": 31920,
            "time": 65.781086,
            "velocity": 0.6299212598425197
          },
          {
            "duration": 0.2474228000000096,
            "durationTicks": 96,
            "midi": 42,
            "name": "F#2",
            "ticks": 32040,
            "time": 66.09036449999999,
            "velocity": 0.6299212598425197
          },
          {
            "duration": 0.2474228000000096,
            "durationTicks": 96,
            "midi": 60,
            "name": "C4",
            "ticks": 32040,
            "time": 66.09036449999999,
            "velocity": 0.6299212598425197
          },
          {
            "duration": 0.2474227999999954,
            "durationTicks": 96,
            "midi": 42,
            "name": "F#2",
            "ticks": 32160,
            "time": 66.399643,
            "velocity": 0.6299212598425197
          },
          {
            "duration": 0.2474227999999954,
            "durationTicks": 96,
            "midi": 38,
            "name": "D2",
            "ticks": 32160,
            "time": 66.399643,
            "velocity": 0.6299212598425197
          },
          {
            "duration": 0.2474227999999954,
            "durationTicks": 96,
            "midi": 42,
            "name": "F#2",
            "ticks": 32280,
            "time": 66.7089215,
            "velocity": 0.6299212598425197
          },
          {
            "duration": 0.2474227999999954,
            "durationTicks": 96,
            "midi": 54,
            "name": "F#3",
            "ticks": 32280,
            "time": 66.7089215,
            "velocity": 0.6299212598425197
          },
          {
            "duration": 0.2474227999999954,
            "durationTicks": 96,
            "midi": 42,
            "name": "F#2",
            "ticks": 32400,
            "time": 67.01820000000001,
            "velocity": 0.6299212598425197
          },
          {
            "duration": 0.2474227999999954,
            "durationTicks": 96,
            "midi": 36,
            "name": "C2",
            "ticks": 32400,
            "time": 67.01820000000001,
            "velocity": 0.6299212598425197
          },
          {
            "duration": 0.2474227999999954,
            "durationTicks": 96,
            "midi": 59,
            "name": "B3",
            "ticks": 32400,
            "time": 67.01820000000001,
            "velocity": 0.6299212598425197
          },
          {
            "duration": 0.2474227999999954,
            "durationTicks": 96,
            "midi": 42,
            "name": "F#2",
            "ticks": 32520,
            "time": 67.3274785,
            "velocity": 0.6299212598425197
          },
          {
            "duration": 0.2474227999999954,
            "durationTicks": 96,
            "midi": 60,
            "name": "C4",
            "ticks": 32520,
            "time": 67.3274785,
            "velocity": 0.6299212598425197
          },
          {
            "duration": 0.2474227999999954,
            "durationTicks": 96,
            "midi": 42,
            "name": "F#2",
            "ticks": 32640,
            "time": 67.636757,
            "velocity": 0.6299212598425197
          },
          {
            "duration": 0.2474227999999954,
            "durationTicks": 96,
            "midi": 38,
            "name": "D2",
            "ticks": 32640,
            "time": 67.636757,
            "velocity": 0.6299212598425197
          },
          {
            "duration": 0.2474228000000096,
            "durationTicks": 96,
            "midi": 42,
            "name": "F#2",
            "ticks": 32760,
            "time": 67.9460355,
            "velocity": 0.6299212598425197
          },
          {
            "duration": 0.2474228000000096,
            "durationTicks": 96,
            "midi": 54,
            "name": "F#3",
            "ticks": 32760,
            "time": 67.9460355,
            "velocity": 0.6299212598425197
          },
          {
            "duration": 0.3692304000000064,
            "durationTicks": 192,
            "midi": 44,
            "name": "G#2",
            "ticks": 37920,
            "time": 77.94761199999999,
            "velocity": 0.6299212598425197
          },
          {
            "duration": 0.3692304000000064,
            "durationTicks": 192,
            "midi": 44,
            "name": "G#2",
            "ticks": 38160,
            "time": 78.40915,
            "velocity": 0.6299212598425197
          },
          {
            "duration": 0.3692303999999922,
            "durationTicks": 192,
            "midi": 44,
            "name": "G#2",
            "ticks": 38400,
            "time": 78.870688,
            "velocity": 0.6299212598425197
          },
          {
            "duration": 0.3692304000000064,
            "durationTicks": 192,
            "midi": 44,
            "name": "G#2",
            "ticks": 38640,
            "time": 79.33222599999999,
            "velocity": 0.6299212598425197
          },
          {
            "duration": 0.3692304000000064,
            "durationTicks": 192,
            "midi": 44,
            "name": "G#2",
            "ticks": 38880,
            "time": 79.793764,
            "velocity": 0.6299212598425197
          },
          {
            "duration": 0.3692303999999922,
            "durationTicks": 192,
            "midi": 44,
            "name": "G#2",
            "ticks": 39120,
            "time": 80.255302,
            "velocity": 0.6299212598425197
          },
          {
            "duration": 1.107691200000005,
            "durationTicks": 576,
            "midi": 59,
            "name": "B3",
            "ticks": 39360,
            "time": 80.71683999999999,
            "velocity": 0.6299212598425197
          },
          {
            "duration": 0.3692303999999922,
            "durationTicks": 192,
            "midi": 59,
            "name": "B3",
            "ticks": 43680,
            "time": 89.024524,
            "velocity": 0.6299212598425197
          },
          {
            "duration": 0.3692303999999922,
            "durationTicks": 192,
            "midi": 59,
            "name": "B3",
            "ticks": 43920,
            "time": 89.486062,
            "velocity": 0.6299212598425197
          },
          {
            "duration": 0.3692303999999922,
            "durationTicks": 192,
            "midi": 59,
            "name": "B3",
            "ticks": 44160,
            "time": 89.9476,
            "velocity": 0.6299212598425197
          },
          {
            "duration": 0.3692303999999922,
            "durationTicks": 192,
            "midi": 59,
            "name": "B3",
            "ticks": 44400,
            "time": 90.409138,
            "velocity": 0.6299212598425197
          },
          {
            "duration": 0.3692303999999922,
            "durationTicks": 192,
            "midi": 59,
            "name": "B3",
            "ticks": 44640,
            "time": 90.870676,
            "velocity": 0.6299212598425197
          },
          {
            "duration": 0.3692304000000064,
            "durationTicks": 192,
            "midi": 59,
            "name": "B3",
            "ticks": 44880,
            "time": 91.332214,
            "velocity": 0.6299212598425197
          },
          {
            "duration": 0.3692303999999922,
            "durationTicks": 192,
            "midi": 59,
            "name": "B3",
            "ticks": 45120,
            "time": 91.793752,
            "velocity": 0.6299212598425197
          },
          {
            "duration": 0.3692303999999922,
            "durationTicks": 192,
            "midi": 59,
            "name": "B3",
            "ticks": 45360,
            "time": 92.25529,
            "velocity": 0.6299212598425197
          },
          {
            "duration": 0.3692304000000064,
            "durationTicks": 192,
            "midi": 59,
            "name": "B3",
            "ticks": 45600,
            "time": 92.71682799999999,
            "velocity": 0.6299212598425197
          },
          {
            "duration": 0.3692303999999922,
            "durationTicks": 192,
            "midi": 59,
            "name": "B3",
            "ticks": 45840,
            "time": 93.178366,
            "velocity": 0.6299212598425197
          },
          {
            "duration": 0.3692303999999922,
            "durationTicks": 192,
            "midi": 59,
            "name": "B3",
            "ticks": 46080,
            "time": 93.639904,
            "velocity": 0.6299212598425197
          },
          {
            "duration": 0.3692304000000064,
            "durationTicks": 192,
            "midi": 59,
            "name": "B3",
            "ticks": 46320,
            "time": 94.10144199999999,
            "velocity": 0.6299212598425197
          },
          {
            "duration": 0.3692304000000064,
            "durationTicks": 192,
            "midi": 59,
            "name": "B3",
            "ticks": 46560,
            "time": 94.56298,
            "velocity": 0.6299212598425197
          },
          {
            "duration": 0.3692303999999922,
            "durationTicks": 192,
            "midi": 59,
            "name": "B3",
            "ticks": 46800,
            "time": 95.024518,
            "velocity": 0.6299212598425197
          },
          {
            "duration": 0.3692304000000064,
            "durationTicks": 192,
            "midi": 59,
            "name": "B3",
            "ticks": 47040,
            "time": 95.48605599999999,
            "velocity": 0.6299212598425197
          },
          {
            "duration": 0.3692304000000064,
            "durationTicks": 192,
            "midi": 59,
            "name": "B3",
            "ticks": 47280,
            "time": 95.947594,
            "velocity": 0.6299212598425197
          },
          {
            "duration": 0.3692303999999922,
            "durationTicks": 192,
            "midi": 59,
            "name": "B3",
            "ticks": 47520,
            "time": 96.409132,
            "velocity": 0.6299212598425197
          },
          {
            "duration": 0.3692304000000064,
            "durationTicks": 192,
            "midi": 59,
            "name": "B3",
            "ticks": 47760,
            "time": 96.87066999999999,
            "velocity": 0.6299212598425197
          },
          {
            "duration": 0.3692304000000064,
            "durationTicks": 192,
            "midi": 59,
            "name": "B3",
            "ticks": 48000,
            "time": 97.332208,
            "velocity": 0.6299212598425197
          },
          {
            "duration": 0.3692303999999922,
            "durationTicks": 192,
            "midi": 59,
            "name": "B3",
            "ticks": 48240,
            "time": 97.793746,
            "velocity": 0.6299212598425197
          },
          {
            "duration": 0.3692304000000064,
            "durationTicks": 192,
            "midi": 59,
            "name": "B3",
            "ticks": 48480,
            "time": 98.25528399999999,
            "velocity": 0.6299212598425197
          },
          {
            "duration": 0.3692304000000064,
            "durationTicks": 192,
            "midi": 59,
            "name": "B3",
            "ticks": 48720,
            "time": 98.716822,
            "velocity": 0.6299212598425197
          },
          {
            "duration": 0.3692303999999922,
            "durationTicks": 192,
            "midi": 59,
            "name": "B3",
            "ticks": 48960,
            "time": 99.17836,
            "velocity": 0.6299212598425197
          },
          {
            "duration": 0.3692304000000064,
            "durationTicks": 192,
            "midi": 59,
            "name": "B3",
            "ticks": 49200,
            "time": 99.63989799999999,
            "velocity": 0.6299212598425197
          },
          {
            "duration": 0.3692304000000064,
            "durationTicks": 192,
            "midi": 59,
            "name": "B3",
            "ticks": 49440,
            "time": 100.10143599999999,
            "velocity": 0.6299212598425197
          },
          {
            "duration": 0.3692303999999922,
            "durationTicks": 192,
            "midi": 59,
            "name": "B3",
            "ticks": 49680,
            "time": 100.562974,
            "velocity": 0.6299212598425197
          },
          {
            "duration": 0.3692304000000064,
            "durationTicks": 192,
            "midi": 59,
            "name": "B3",
            "ticks": 49920,
            "time": 101.02451199999999,
            "velocity": 0.6299212598425197
          },
          {
            "duration": 0.3692304000000064,
            "durationTicks": 192,
            "midi": 59,
            "name": "B3",
            "ticks": 50160,
            "time": 101.48604999999999,
            "velocity": 0.6299212598425197
          },
          {
            "duration": 0.3692303999999922,
            "durationTicks": 192,
            "midi": 59,
            "name": "B3",
            "ticks": 50400,
            "time": 101.947588,
            "velocity": 0.6299212598425197
          },
          {
            "duration": 0.3692304000000064,
            "durationTicks": 192,
            "midi": 59,
            "name": "B3",
            "ticks": 50640,
            "time": 102.40912599999999,
            "velocity": 0.6299212598425197
          },
          {
            "duration": 0.27692279999999414,
            "durationTicks": 144,
            "midi": 59,
            "name": "B3",
            "ticks": 50880,
            "time": 102.870664,
            "velocity": 0.6299212598425197
          },
          {
            "duration": 0.27692279999999414,
            "durationTicks": 144,
            "midi": 51,
            "name": "D#3",
            "ticks": 50880,
            "time": 102.870664,
            "velocity": 0.6299212598425197
          },
          {
            "duration": 0.09230759999999805,
            "durationTicks": 48,
            "midi": 59,
            "name": "B3",
            "ticks": 51060,
            "time": 103.21681749999999,
            "velocity": 0.6299212598425197
          },
          {
            "duration": 0.27692279999999414,
            "durationTicks": 144,
            "midi": 59,
            "name": "B3",
            "ticks": 51120,
            "time": 103.332202,
            "velocity": 0.6299212598425197
          },
          {
            "duration": 0.27692279999999414,
            "durationTicks": 144,
            "midi": 51,
            "name": "D#3",
            "ticks": 51120,
            "time": 103.332202,
            "velocity": 0.6299212598425197
          },
          {
            "duration": 0.09230759999999805,
            "durationTicks": 48,
            "midi": 59,
            "name": "B3",
            "ticks": 51300,
            "time": 103.6783555,
            "velocity": 0.6299212598425197
          },
          {
            "duration": 0.27692280000000835,
            "durationTicks": 144,
            "midi": 59,
            "name": "B3",
            "ticks": 51360,
            "time": 103.79373999999999,
            "velocity": 0.6299212598425197
          },
          {
            "duration": 0.27692280000000835,
            "durationTicks": 144,
            "midi": 51,
            "name": "D#3",
            "ticks": 51360,
            "time": 103.79373999999999,
            "velocity": 0.6299212598425197
          },
          {
            "duration": 0.09230759999999805,
            "durationTicks": 48,
            "midi": 59,
            "name": "B3",
            "ticks": 51540,
            "time": 104.1398935,
            "velocity": 0.6299212598425197
          },
          {
            "duration": 0.27692279999999414,
            "durationTicks": 144,
            "midi": 59,
            "name": "B3",
            "ticks": 51600,
            "time": 104.255278,
            "velocity": 0.6299212598425197
          },
          {
            "duration": 0.27692279999999414,
            "durationTicks": 144,
            "midi": 51,
            "name": "D#3",
            "ticks": 51600,
            "time": 104.255278,
            "velocity": 0.6299212598425197
          },
          {
            "duration": 0.09230759999999805,
            "durationTicks": 48,
            "midi": 59,
            "name": "B3",
            "ticks": 51780,
            "time": 104.60143149999999,
            "velocity": 0.6299212598425197
          },
          {
            "duration": 0.27692279999999414,
            "durationTicks": 144,
            "midi": 59,
            "name": "B3",
            "ticks": 51840,
            "time": 104.716816,
            "velocity": 0.6299212598425197
          },
          {
            "duration": 0.27692279999999414,
            "durationTicks": 144,
            "midi": 51,
            "name": "D#3",
            "ticks": 51840,
            "time": 104.716816,
            "velocity": 0.6299212598425197
          },
          {
            "duration": 0.09230759999999805,
            "durationTicks": 48,
            "midi": 59,
            "name": "B3",
            "ticks": 52020,
            "time": 105.0629695,
            "velocity": 0.6299212598425197
          },
          {
            "duration": 0.27692280000000835,
            "durationTicks": 144,
            "midi": 59,
            "name": "B3",
            "ticks": 52080,
            "time": 105.17835399999998,
            "velocity": 0.6299212598425197
          },
          {
            "duration": 0.27692280000000835,
            "durationTicks": 144,
            "midi": 51,
            "name": "D#3",
            "ticks": 52080,
            "time": 105.17835399999998,
            "velocity": 0.6299212598425197
          },
          {
            "duration": 0.09230759999999805,
            "durationTicks": 48,
            "midi": 59,
            "name": "B3",
            "ticks": 52260,
            "time": 105.5245075,
            "velocity": 0.6299212598425197
          },
          {
            "duration": 0.3692303999999922,
            "durationTicks": 192,
            "midi": 59,
            "name": "B3",
            "ticks": 52320,
            "time": 105.639892,
            "velocity": 0.6299212598425197
          },
          {
            "duration": 0.3692303999999922,
            "durationTicks": 192,
            "midi": 59,
            "name": "B3",
            "ticks": 52560,
            "time": 106.10143,
            "velocity": 0.6299212598425197
          },
          {
            "duration": 0.3692304000000064,
            "durationTicks": 192,
            "midi": 59,
            "name": "B3",
            "ticks": 52800,
            "time": 106.56296799999998,
            "velocity": 0.6299212598425197
          },
          {
            "duration": 0.3692303999999922,
            "durationTicks": 192,
            "midi": 59,
            "name": "B3",
            "ticks": 53040,
            "time": 107.024506,
            "velocity": 0.6299212598425197
          },
          {
            "duration": 0.3692303999999922,
            "durationTicks": 192,
            "midi": 59,
            "name": "B3",
            "ticks": 53280,
            "time": 107.48604399999999,
            "velocity": 0.6299212598425197
          },
          {
            "duration": 0.3692303999999922,
            "durationTicks": 192,
            "midi": 59,
            "name": "B3",
            "ticks": 53520,
            "time": 107.947582,
            "velocity": 0.6299212598425197
          },
          {
            "duration": 0.3692303999999922,
            "durationTicks": 192,
            "midi": 59,
            "name": "B3",
            "ticks": 53760,
            "time": 108.40912,
            "velocity": 0.6299212598425197
          },
          {
            "duration": 0.3692303999999922,
            "durationTicks": 192,
            "midi": 59,
            "name": "B3",
            "ticks": 54000,
            "time": 108.87065799999999,
            "velocity": 0.6299212598425197
          },
          {
            "duration": 0.3692304000000064,
            "durationTicks": 192,
            "midi": 59,
            "name": "B3",
            "ticks": 54240,
            "time": 109.332196,
            "velocity": 0.6299212598425197
          },
          {
            "duration": 0.3692303999999922,
            "durationTicks": 192,
            "midi": 59,
            "name": "B3",
            "ticks": 54480,
            "time": 109.793734,
            "velocity": 0.6299212598425197
          },
          {
            "duration": 0.3692303999999922,
            "durationTicks": 192,
            "midi": 59,
            "name": "B3",
            "ticks": 54720,
            "time": 110.25527199999999,
            "velocity": 0.6299212598425197
          },
          {
            "duration": 0.3692304000000064,
            "durationTicks": 192,
            "midi": 59,
            "name": "B3",
            "ticks": 54960,
            "time": 110.71681,
            "velocity": 0.6299212598425197
          },
          {
            "duration": 0.494845600000005,
            "durationTicks": 192,
            "midi": 38,
            "name": "D2",
            "ticks": 55440,
            "time": 111.796905,
            "velocity": 0.6299212598425197
          },
          {
            "duration": 0.494845600000005,
            "durationTicks": 192,
            "midi": 36,
            "name": "C2",
            "ticks": 55440,
            "time": 111.796905,
            "velocity": 0.6299212598425197
          },
          {
            "duration": 0.494845600000005,
            "durationTicks": 192,
            "midi": 40,
            "name": "E2",
            "ticks": 55440,
            "time": 111.796905,
            "velocity": 0.6299212598425197
          },
          {
            "duration": 0.494845600000005,
            "durationTicks": 192,
            "midi": 47,
            "name": "B2",
            "ticks": 55440,
            "time": 111.796905,
            "velocity": 0.6299212598425197
          },
          {
            "duration": 0.4948455999999908,
            "durationTicks": 192,
            "midi": 38,
            "name": "D2",
            "ticks": 55680,
            "time": 112.415462,
            "velocity": 0.6299212598425197
          },
          {
            "duration": 0.4948455999999908,
            "durationTicks": 192,
            "midi": 36,
            "name": "C2",
            "ticks": 55680,
            "time": 112.415462,
            "velocity": 0.6299212598425197
          },
          {
            "duration": 0.4948455999999908,
            "durationTicks": 192,
            "midi": 40,
            "name": "E2",
            "ticks": 55680,
            "time": 112.415462,
            "velocity": 0.6299212598425197
          },
          {
            "duration": 0.4948455999999908,
            "durationTicks": 192,
            "midi": 47,
            "name": "B2",
            "ticks": 55680,
            "time": 112.415462,
            "velocity": 0.6299212598425197
          },
          {
            "duration": 0.494845600000005,
            "durationTicks": 192,
            "midi": 47,
            "name": "B2",
            "ticks": 55920,
            "time": 113.034019,
            "velocity": 0.6299212598425197
          },
          {
            "duration": 0.494845600000005,
            "durationTicks": 192,
            "midi": 40,
            "name": "E2",
            "ticks": 55920,
            "time": 113.034019,
            "velocity": 0.6299212598425197
          },
          {
            "duration": 0.494845600000005,
            "durationTicks": 192,
            "midi": 36,
            "name": "C2",
            "ticks": 55920,
            "time": 113.034019,
            "velocity": 0.6299212598425197
          },
          {
            "duration": 0.494845600000005,
            "durationTicks": 192,
            "midi": 38,
            "name": "D2",
            "ticks": 55920,
            "time": 113.034019,
            "velocity": 0.6299212598425197
          },
          {
            "duration": 0.2474228000000096,
            "durationTicks": 96,
            "midi": 42,
            "name": "F#2",
            "ticks": 56160,
            "time": 113.652576,
            "velocity": 0.6299212598425197
          },
          {
            "duration": 0.2474228000000096,
            "durationTicks": 96,
            "midi": 36,
            "name": "C2",
            "ticks": 56160,
            "time": 113.652576,
            "velocity": 0.6299212598425197
          },
          {
            "duration": 0.2474228000000096,
            "durationTicks": 96,
            "midi": 59,
            "name": "B3",
            "ticks": 56160,
            "time": 113.652576,
            "velocity": 0.6299212598425197
          },
          {
            "duration": 0.2474227999999954,
            "durationTicks": 96,
            "midi": 42,
            "name": "F#2",
            "ticks": 56280,
            "time": 113.9618545,
            "velocity": 0.6299212598425197
          },
          {
            "duration": 0.2474227999999954,
            "durationTicks": 96,
            "midi": 60,
            "name": "C4",
            "ticks": 56280,
            "time": 113.9618545,
            "velocity": 0.6299212598425197
          },
          {
            "duration": 0.2474227999999954,
            "durationTicks": 96,
            "midi": 42,
            "name": "F#2",
            "ticks": 56400,
            "time": 114.271133,
            "velocity": 0.6299212598425197
          },
          {
            "duration": 0.2474227999999954,
            "durationTicks": 96,
            "midi": 38,
            "name": "D2",
            "ticks": 56400,
            "time": 114.271133,
            "velocity": 0.6299212598425197
          },
          {
            "duration": 0.2474228000000096,
            "durationTicks": 96,
            "midi": 42,
            "name": "F#2",
            "ticks": 56520,
            "time": 114.5804115,
            "velocity": 0.6299212598425197
          },
          {
            "duration": 0.2474228000000096,
            "durationTicks": 96,
            "midi": 54,
            "name": "F#3",
            "ticks": 56520,
            "time": 114.5804115,
            "velocity": 0.6299212598425197
          },
          {
            "duration": 0.2474227999999954,
            "durationTicks": 96,
            "midi": 42,
            "name": "F#2",
            "ticks": 56640,
            "time": 114.88969,
            "velocity": 0.6299212598425197
          },
          {
            "duration": 0.2474227999999954,
            "durationTicks": 96,
            "midi": 36,
            "name": "C2",
            "ticks": 56640,
            "time": 114.88969,
            "velocity": 0.6299212598425197
          },
          {
            "duration": 0.2474227999999954,
            "durationTicks": 96,
            "midi": 59,
            "name": "B3",
            "ticks": 56640,
            "time": 114.88969,
            "velocity": 0.6299212598425197
          },
          {
            "duration": 0.2474227999999954,
            "durationTicks": 96,
            "midi": 42,
            "name": "F#2",
            "ticks": 56760,
            "time": 115.1989685,
            "velocity": 0.6299212598425197
          },
          {
            "duration": 0.2474227999999954,
            "durationTicks": 96,
            "midi": 60,
            "name": "C4",
            "ticks": 56760,
            "time": 115.1989685,
            "velocity": 0.6299212598425197
          },
          {
            "duration": 0.2474227999999954,
            "durationTicks": 96,
            "midi": 42,
            "name": "F#2",
            "ticks": 56880,
            "time": 115.508247,
            "velocity": 0.6299212598425197
          },
          {
            "duration": 0.2474227999999954,
            "durationTicks": 96,
            "midi": 38,
            "name": "D2",
            "ticks": 56880,
            "time": 115.508247,
            "velocity": 0.6299212598425197
          },
          {
            "duration": 0.2474227999999954,
            "durationTicks": 96,
            "midi": 42,
            "name": "F#2",
            "ticks": 57000,
            "time": 115.8175255,
            "velocity": 0.6299212598425197
          },
          {
            "duration": 0.2474227999999954,
            "durationTicks": 96,
            "midi": 54,
            "name": "F#3",
            "ticks": 57000,
            "time": 115.8175255,
            "velocity": 0.6299212598425197
          },
          {
            "duration": 0.2474228000000096,
            "durationTicks": 96,
            "midi": 59,
            "name": "B3",
            "ticks": 57120,
            "time": 116.12680399999999,
            "velocity": 0.6299212598425197
          },
          {
            "duration": 0.2474228000000096,
            "durationTicks": 96,
            "midi": 36,
            "name": "C2",
            "ticks": 57120,
            "time": 116.12680399999999,
            "velocity": 0.6299212598425197
          },
          {
            "duration": 0.2474228000000096,
            "durationTicks": 96,
            "midi": 42,
            "name": "F#2",
            "ticks": 57120,
            "time": 116.12680399999999,
            "velocity": 0.6299212598425197
          },
          {
            "duration": 0.2474228000000096,
            "durationTicks": 96,
            "midi": 60,
            "name": "C4",
            "ticks": 57240,
            "time": 116.4360825,
            "velocity": 0.6299212598425197
          },
          {
            "duration": 0.2474228000000096,
            "durationTicks": 96,
            "midi": 42,
            "name": "F#2",
            "ticks": 57240,
            "time": 116.4360825,
            "velocity": 0.6299212598425197
          },
          {
            "duration": 0.2474227999999954,
            "durationTicks": 96,
            "midi": 38,
            "name": "D2",
            "ticks": 57360,
            "time": 116.745361,
            "velocity": 0.6299212598425197
          },
          {
            "duration": 0.2474227999999954,
            "durationTicks": 96,
            "midi": 42,
            "name": "F#2",
            "ticks": 57360,
            "time": 116.745361,
            "velocity": 0.6299212598425197
          },
          {
            "duration": 0.2474227999999954,
            "durationTicks": 96,
            "midi": 54,
            "name": "F#3",
            "ticks": 57480,
            "time": 117.05463950000001,
            "velocity": 0.6299212598425197
          },
          {
            "duration": 0.2474227999999954,
            "durationTicks": 96,
            "midi": 42,
            "name": "F#2",
            "ticks": 57480,
            "time": 117.05463950000001,
            "velocity": 0.6299212598425197
          },
          {
            "duration": 0.2474227999999954,
            "durationTicks": 96,
            "midi": 59,
            "name": "B3",
            "ticks": 57600,
            "time": 117.363918,
            "velocity": 0.6299212598425197
          },
          {
            "duration": 0.2474227999999954,
            "durationTicks": 96,
            "midi": 36,
            "name": "C2",
            "ticks": 57600,
            "time": 117.363918,
            "velocity": 0.6299212598425197
          },
          {
            "duration": 0.2474227999999954,
            "durationTicks": 96,
            "midi": 42,
            "name": "F#2",
            "ticks": 57600,
            "time": 117.363918,
            "velocity": 0.6299212598425197
          },
          {
            "duration": 0.2474227999999954,
            "durationTicks": 96,
            "midi": 60,
            "name": "C4",
            "ticks": 57720,
            "time": 117.6731965,
            "velocity": 0.6299212598425197
          },
          {
            "duration": 0.2474227999999954,
            "durationTicks": 96,
            "midi": 42,
            "name": "F#2",
            "ticks": 57720,
            "time": 117.6731965,
            "velocity": 0.6299212598425197
          },
          {
            "duration": 0.2474228000000096,
            "durationTicks": 96,
            "midi": 38,
            "name": "D2",
            "ticks": 57840,
            "time": 117.982475,
            "velocity": 0.6299212598425197
          },
          {
            "duration": 0.2474228000000096,
            "durationTicks": 96,
            "midi": 42,
            "name": "F#2",
            "ticks": 57840,
            "time": 117.982475,
            "velocity": 0.6299212598425197
          },
          {
            "duration": 0.2474227999999954,
            "durationTicks": 96,
            "midi": 54,
            "name": "F#3",
            "ticks": 57960,
            "time": 118.2917535,
            "velocity": 0.6299212598425197
          },
          {
            "duration": 0.2474227999999954,
            "durationTicks": 96,
            "midi": 42,
            "name": "F#2",
            "ticks": 57960,
            "time": 118.2917535,
            "velocity": 0.6299212598425197
          },
          {
            "duration": 0.2474227999999954,
            "durationTicks": 96,
            "midi": 59,
            "name": "B3",
            "ticks": 58080,
            "time": 118.601032,
            "velocity": 0.6299212598425197
          },
          {
            "duration": 0.2474227999999954,
            "durationTicks": 96,
            "midi": 36,
            "name": "C2",
            "ticks": 58080,
            "time": 118.601032,
            "velocity": 0.6299212598425197
          },
          {
            "duration": 0.2474227999999954,
            "durationTicks": 96,
            "midi": 42,
            "name": "F#2",
            "ticks": 58080,
            "time": 118.601032,
            "velocity": 0.6299212598425197
          },
          {
            "duration": 0.2474228000000096,
            "durationTicks": 96,
            "midi": 60,
            "name": "C4",
            "ticks": 58200,
            "time": 118.9103105,
            "velocity": 0.6299212598425197
          },
          {
            "duration": 0.2474228000000096,
            "durationTicks": 96,
            "midi": 42,
            "name": "F#2",
            "ticks": 58200,
            "time": 118.9103105,
            "velocity": 0.6299212598425197
          },
          {
            "duration": 0.2474227999999954,
            "durationTicks": 96,
            "midi": 38,
            "name": "D2",
            "ticks": 58320,
            "time": 119.219589,
            "velocity": 0.6299212598425197
          },
          {
            "duration": 0.2474227999999954,
            "durationTicks": 96,
            "midi": 42,
            "name": "F#2",
            "ticks": 58320,
            "time": 119.219589,
            "velocity": 0.6299212598425197
          },
          {
            "duration": 0.2474227999999954,
            "durationTicks": 96,
            "midi": 54,
            "name": "F#3",
            "ticks": 58440,
            "time": 119.5288675,
            "velocity": 0.6299212598425197
          },
          {
            "duration": 0.2474227999999954,
            "durationTicks": 96,
            "midi": 42,
            "name": "F#2",
            "ticks": 58440,
            "time": 119.5288675,
            "velocity": 0.6299212598425197
          },
          {
            "duration": 0.2474228000000096,
            "durationTicks": 96,
            "midi": 59,
            "name": "B3",
            "ticks": 58560,
            "time": 119.838146,
            "velocity": 0.6299212598425197
          },
          {
            "duration": 0.2474228000000096,
            "durationTicks": 96,
            "midi": 36,
            "name": "C2",
            "ticks": 58560,
            "time": 119.838146,
            "velocity": 0.6299212598425197
          },
          {
            "duration": 0.2474228000000096,
            "durationTicks": 96,
            "midi": 42,
            "name": "F#2",
            "ticks": 58560,
            "time": 119.838146,
            "velocity": 0.6299212598425197
          },
          {
            "duration": 0.2474227999999954,
            "durationTicks": 96,
            "midi": 60,
            "name": "C4",
            "ticks": 58680,
            "time": 120.1474245,
            "velocity": 0.6299212598425197
          },
          {
            "duration": 0.2474227999999954,
            "durationTicks": 96,
            "midi": 42,
            "name": "F#2",
            "ticks": 58680,
            "time": 120.1474245,
            "velocity": 0.6299212598425197
          },
          {
            "duration": 0.2474227999999954,
            "durationTicks": 96,
            "midi": 38,
            "name": "D2",
            "ticks": 58800,
            "time": 120.456703,
            "velocity": 0.6299212598425197
          },
          {
            "duration": 0.2474227999999954,
            "durationTicks": 96,
            "midi": 42,
            "name": "F#2",
            "ticks": 58800,
            "time": 120.456703,
            "velocity": 0.6299212598425197
          },
          {
            "duration": 0.2474228000000096,
            "durationTicks": 96,
            "midi": 54,
            "name": "F#3",
            "ticks": 58920,
            "time": 120.7659815,
            "velocity": 0.6299212598425197
          },
          {
            "duration": 0.2474228000000096,
            "durationTicks": 96,
            "midi": 42,
            "name": "F#2",
            "ticks": 58920,
            "time": 120.7659815,
            "velocity": 0.6299212598425197
          },
          {
            "duration": 0.2474227999999954,
            "durationTicks": 96,
            "midi": 42,
            "name": "F#2",
            "ticks": 59040,
            "time": 121.07526,
            "velocity": 0.6299212598425197
          },
          {
            "duration": 0.2474227999999954,
            "durationTicks": 96,
            "midi": 36,
            "name": "C2",
            "ticks": 59040,
            "time": 121.07526,
            "velocity": 0.6299212598425197
          },
          {
            "duration": 0.2474227999999954,
            "durationTicks": 96,
            "midi": 59,
            "name": "B3",
            "ticks": 59040,
            "time": 121.07526,
            "velocity": 0.6299212598425197
          },
          {
            "duration": 0.2474227999999954,
            "durationTicks": 96,
            "midi": 42,
            "name": "F#2",
            "ticks": 59160,
            "time": 121.3845385,
            "velocity": 0.6299212598425197
          },
          {
            "duration": 0.2474227999999954,
            "durationTicks": 96,
            "midi": 60,
            "name": "C4",
            "ticks": 59160,
            "time": 121.3845385,
            "velocity": 0.6299212598425197
          },
          {
            "duration": 0.2474228000000096,
            "durationTicks": 96,
            "midi": 42,
            "name": "F#2",
            "ticks": 59280,
            "time": 121.693817,
            "velocity": 0.6299212598425197
          },
          {
            "duration": 0.2474228000000096,
            "durationTicks": 96,
            "midi": 38,
            "name": "D2",
            "ticks": 59280,
            "time": 121.693817,
            "velocity": 0.6299212598425197
          },
          {
            "duration": 0.2474227999999954,
            "durationTicks": 96,
            "midi": 42,
            "name": "F#2",
            "ticks": 59400,
            "time": 122.0030955,
            "velocity": 0.6299212598425197
          },
          {
            "duration": 0.2474227999999954,
            "durationTicks": 96,
            "midi": 54,
            "name": "F#3",
            "ticks": 59400,
            "time": 122.0030955,
            "velocity": 0.6299212598425197
          },
          {
            "duration": 0.2474227999999954,
            "durationTicks": 96,
            "midi": 42,
            "name": "F#2",
            "ticks": 59520,
            "time": 122.312374,
            "velocity": 0.6299212598425197
          },
          {
            "duration": 0.2474227999999954,
            "durationTicks": 96,
            "midi": 36,
            "name": "C2",
            "ticks": 59520,
            "time": 122.312374,
            "velocity": 0.6299212598425197
          },
          {
            "duration": 0.2474227999999954,
            "durationTicks": 96,
            "midi": 59,
            "name": "B3",
            "ticks": 59520,
            "time": 122.312374,
            "velocity": 0.6299212598425197
          },
          {
            "duration": 0.2474227999999954,
            "durationTicks": 96,
            "midi": 42,
            "name": "F#2",
            "ticks": 59640,
            "time": 122.6216525,
            "velocity": 0.6299212598425197
          },
          {
            "duration": 0.2474227999999954,
            "durationTicks": 96,
            "midi": 60,
            "name": "C4",
            "ticks": 59640,
            "time": 122.6216525,
            "velocity": 0.6299212598425197
          },
          {
            "duration": 0.2474227999999954,
            "durationTicks": 96,
            "midi": 42,
            "name": "F#2",
            "ticks": 59760,
            "time": 122.930931,
            "velocity": 0.6299212598425197
          },
          {
            "duration": 0.2474227999999954,
            "durationTicks": 96,
            "midi": 38,
            "name": "D2",
            "ticks": 59760,
            "time": 122.930931,
            "velocity": 0.6299212598425197
          },
          {
            "duration": 0.2474227999999954,
            "durationTicks": 96,
            "midi": 42,
            "name": "F#2",
            "ticks": 59880,
            "time": 123.2402095,
            "velocity": 0.6299212598425197
          },
          {
            "duration": 0.2474227999999954,
            "durationTicks": 96,
            "midi": 54,
            "name": "F#3",
            "ticks": 59880,
            "time": 123.2402095,
            "velocity": 0.6299212598425197
          },
          {
            "duration": 0.2474228000000096,
            "durationTicks": 96,
            "midi": 59,
            "name": "B3",
            "ticks": 60000,
            "time": 123.549488,
            "velocity": 0.6299212598425197
          },
          {
            "duration": 0.2474228000000096,
            "durationTicks": 96,
            "midi": 36,
            "name": "C2",
            "ticks": 60000,
            "time": 123.549488,
            "velocity": 0.6299212598425197
          },
          {
            "duration": 0.2474228000000096,
            "durationTicks": 96,
            "midi": 42,
            "name": "F#2",
            "ticks": 60000,
            "time": 123.549488,
            "velocity": 0.6299212598425197
          },
          {
            "duration": 0.2474227999999954,
            "durationTicks": 96,
            "midi": 60,
            "name": "C4",
            "ticks": 60120,
            "time": 123.8587665,
            "velocity": 0.6299212598425197
          },
          {
            "duration": 0.2474227999999954,
            "durationTicks": 96,
            "midi": 42,
            "name": "F#2",
            "ticks": 60120,
            "time": 123.8587665,
            "velocity": 0.6299212598425197
          },
          {
            "duration": 0.2474227999999954,
            "durationTicks": 96,
            "midi": 38,
            "name": "D2",
            "ticks": 60240,
            "time": 124.168045,
            "velocity": 0.6299212598425197
          },
          {
            "duration": 0.2474227999999954,
            "durationTicks": 96,
            "midi": 42,
            "name": "F#2",
            "ticks": 60240,
            "time": 124.168045,
            "velocity": 0.6299212598425197
          },
          {
            "duration": 0.2474227999999954,
            "durationTicks": 96,
            "midi": 54,
            "name": "F#3",
            "ticks": 60360,
            "time": 124.4773235,
            "velocity": 0.6299212598425197
          },
          {
            "duration": 0.2474227999999954,
            "durationTicks": 96,
            "midi": 42,
            "name": "F#2",
            "ticks": 60360,
            "time": 124.4773235,
            "velocity": 0.6299212598425197
          },
          {
            "duration": 0.2474227999999954,
            "durationTicks": 96,
            "midi": 59,
            "name": "B3",
            "ticks": 60480,
            "time": 124.786602,
            "velocity": 0.6299212598425197
          },
          {
            "duration": 0.2474227999999954,
            "durationTicks": 96,
            "midi": 36,
            "name": "C2",
            "ticks": 60480,
            "time": 124.786602,
            "velocity": 0.6299212598425197
          },
          {
            "duration": 0.2474227999999954,
            "durationTicks": 96,
            "midi": 42,
            "name": "F#2",
            "ticks": 60480,
            "time": 124.786602,
            "velocity": 0.6299212598425197
          },
          {
            "duration": 0.2474228000000096,
            "durationTicks": 96,
            "midi": 60,
            "name": "C4",
            "ticks": 60600,
            "time": 125.09588049999999,
            "velocity": 0.6299212598425197
          },
          {
            "duration": 0.2474228000000096,
            "durationTicks": 96,
            "midi": 42,
            "name": "F#2",
            "ticks": 60600,
            "time": 125.09588049999999,
            "velocity": 0.6299212598425197
          },
          {
            "duration": 0.2474228000000096,
            "durationTicks": 96,
            "midi": 38,
            "name": "D2",
            "ticks": 60720,
            "time": 125.405159,
            "velocity": 0.6299212598425197
          },
          {
            "duration": 0.2474228000000096,
            "durationTicks": 96,
            "midi": 42,
            "name": "F#2",
            "ticks": 60720,
            "time": 125.405159,
            "velocity": 0.6299212598425197
          },
          {
            "duration": 0.2474227999999954,
            "durationTicks": 96,
            "midi": 54,
            "name": "F#3",
            "ticks": 60840,
            "time": 125.7144375,
            "velocity": 0.6299212598425197
          },
          {
            "duration": 0.2474227999999954,
            "durationTicks": 96,
            "midi": 42,
            "name": "F#2",
            "ticks": 60840,
            "time": 125.7144375,
            "velocity": 0.6299212598425197
          },
          {
            "duration": 0.2474227999999954,
            "durationTicks": 96,
            "midi": 42,
            "name": "F#2",
            "ticks": 60960,
            "time": 126.02371600000001,
            "velocity": 0.6299212598425197
          },
          {
            "duration": 0.2474227999999954,
            "durationTicks": 96,
            "midi": 36,
            "name": "C2",
            "ticks": 60960,
            "time": 126.02371600000001,
            "velocity": 0.6299212598425197
          },
          {
            "duration": 0.2474227999999954,
            "durationTicks": 96,
            "midi": 59,
            "name": "B3",
            "ticks": 60960,
            "time": 126.02371600000001,
            "velocity": 0.6299212598425197
          },
          {
            "duration": 0.2474227999999954,
            "durationTicks": 96,
            "midi": 42,
            "name": "F#2",
            "ticks": 61080,
            "time": 126.3329945,
            "velocity": 0.6299212598425197
          },
          {
            "duration": 0.2474227999999954,
            "durationTicks": 96,
            "midi": 60,
            "name": "C4",
            "ticks": 61080,
            "time": 126.3329945,
            "velocity": 0.6299212598425197
          },
          {
            "duration": 0.2474227999999954,
            "durationTicks": 96,
            "midi": 42,
            "name": "F#2",
            "ticks": 61200,
            "time": 126.642273,
            "velocity": 0.6299212598425197
          },
          {
            "duration": 0.2474227999999954,
            "durationTicks": 96,
            "midi": 38,
            "name": "D2",
            "ticks": 61200,
            "time": 126.642273,
            "velocity": 0.6299212598425197
          },
          {
            "duration": 0.2474228000000096,
            "durationTicks": 96,
            "midi": 42,
            "name": "F#2",
            "ticks": 61320,
            "time": 126.9515515,
            "velocity": 0.6299212598425197
          },
          {
            "duration": 0.2474228000000096,
            "durationTicks": 96,
            "midi": 54,
            "name": "F#3",
            "ticks": 61320,
            "time": 126.9515515,
            "velocity": 0.6299212598425197
          },
          {
            "duration": 0.2474228000000096,
            "durationTicks": 96,
            "midi": 42,
            "name": "F#2",
            "ticks": 61440,
            "time": 127.26083,
            "velocity": 0.6299212598425197
          },
          {
            "duration": 0.2474228000000096,
            "durationTicks": 96,
            "midi": 36,
            "name": "C2",
            "ticks": 61440,
            "time": 127.26083,
            "velocity": 0.6299212598425197
          },
          {
            "duration": 0.2474228000000096,
            "durationTicks": 96,
            "midi": 59,
            "name": "B3",
            "ticks": 61440,
            "time": 127.26083,
            "velocity": 0.6299212598425197
          },
          {
            "duration": 0.2474227999999954,
            "durationTicks": 96,
            "midi": 42,
            "name": "F#2",
            "ticks": 61560,
            "time": 127.5701085,
            "velocity": 0.6299212598425197
          },
          {
            "duration": 0.2474227999999954,
            "durationTicks": 96,
            "midi": 60,
            "name": "C4",
            "ticks": 61560,
            "time": 127.5701085,
            "velocity": 0.6299212598425197
          },
          {
            "duration": 0.24742279999998118,
            "durationTicks": 96,
            "midi": 42,
            "name": "F#2",
            "ticks": 61680,
            "time": 127.87938700000001,
            "velocity": 0.6299212598425197
          },
          {
            "duration": 0.24742279999998118,
            "durationTicks": 96,
            "midi": 38,
            "name": "D2",
            "ticks": 61680,
            "time": 127.87938700000001,
            "velocity": 0.6299212598425197
          },
          {
            "duration": 0.24742279999998118,
            "durationTicks": 96,
            "midi": 42,
            "name": "F#2",
            "ticks": 61800,
            "time": 128.1886655,
            "velocity": 0.6299212598425197
          },
          {
            "duration": 0.24742279999998118,
            "durationTicks": 96,
            "midi": 54,
            "name": "F#3",
            "ticks": 61800,
            "time": 128.1886655,
            "velocity": 0.6299212598425197
          },
          {
            "duration": 0.2474228000000096,
            "durationTicks": 96,
            "midi": 59,
            "name": "B3",
            "ticks": 61920,
            "time": 128.497944,
            "velocity": 0.6299212598425197
          },
          {
            "duration": 0.2474228000000096,
            "durationTicks": 96,
            "midi": 36,
            "name": "C2",
            "ticks": 61920,
            "time": 128.497944,
            "velocity": 0.6299212598425197
          },
          {
            "duration": 0.2474228000000096,
            "durationTicks": 96,
            "midi": 42,
            "name": "F#2",
            "ticks": 61920,
            "time": 128.497944,
            "velocity": 0.6299212598425197
          },
          {
            "duration": 0.2474228000000096,
            "durationTicks": 96,
            "midi": 60,
            "name": "C4",
            "ticks": 62040,
            "time": 128.8072225,
            "velocity": 0.6299212598425197
          },
          {
            "duration": 0.2474228000000096,
            "durationTicks": 96,
            "midi": 42,
            "name": "F#2",
            "ticks": 62040,
            "time": 128.8072225,
            "velocity": 0.6299212598425197
          },
          {
            "duration": 0.2474228000000096,
            "durationTicks": 96,
            "midi": 38,
            "name": "D2",
            "ticks": 62160,
            "time": 129.116501,
            "velocity": 0.6299212598425197
          },
          {
            "duration": 0.2474228000000096,
            "durationTicks": 96,
            "midi": 42,
            "name": "F#2",
            "ticks": 62160,
            "time": 129.116501,
            "velocity": 0.6299212598425197
          },
          {
            "duration": 0.2474228000000096,
            "durationTicks": 96,
            "midi": 54,
            "name": "F#3",
            "ticks": 62280,
            "time": 129.4257795,
            "velocity": 0.6299212598425197
          },
          {
            "duration": 0.2474228000000096,
            "durationTicks": 96,
            "midi": 42,
            "name": "F#2",
            "ticks": 62280,
            "time": 129.4257795,
            "velocity": 0.6299212598425197
          },
          {
            "duration": 0.24742279999998118,
            "durationTicks": 96,
            "midi": 59,
            "name": "B3",
            "ticks": 62400,
            "time": 129.735058,
            "velocity": 0.6299212598425197
          },
          {
            "duration": 0.24742279999998118,
            "durationTicks": 96,
            "midi": 36,
            "name": "C2",
            "ticks": 62400,
            "time": 129.735058,
            "velocity": 0.6299212598425197
          },
          {
            "duration": 0.24742279999998118,
            "durationTicks": 96,
            "midi": 42,
            "name": "F#2",
            "ticks": 62400,
            "time": 129.735058,
            "velocity": 0.6299212598425197
          },
          {
            "duration": 0.2474228000000096,
            "durationTicks": 96,
            "midi": 60,
            "name": "C4",
            "ticks": 62520,
            "time": 130.0443365,
            "velocity": 0.6299212598425197
          },
          {
            "duration": 0.2474228000000096,
            "durationTicks": 96,
            "midi": 42,
            "name": "F#2",
            "ticks": 62520,
            "time": 130.0443365,
            "velocity": 0.6299212598425197
          },
          {
            "duration": 0.2474228000000096,
            "durationTicks": 96,
            "midi": 38,
            "name": "D2",
            "ticks": 62640,
            "time": 130.353615,
            "velocity": 0.6299212598425197
          },
          {
            "duration": 0.2474228000000096,
            "durationTicks": 96,
            "midi": 42,
            "name": "F#2",
            "ticks": 62640,
            "time": 130.353615,
            "velocity": 0.6299212598425197
          },
          {
            "duration": 0.2474228000000096,
            "durationTicks": 96,
            "midi": 54,
            "name": "F#3",
            "ticks": 62760,
            "time": 130.6628935,
            "velocity": 0.6299212598425197
          },
          {
            "duration": 0.2474228000000096,
            "durationTicks": 96,
            "midi": 42,
            "name": "F#2",
            "ticks": 62760,
            "time": 130.6628935,
            "velocity": 0.6299212598425197
          },
          {
            "duration": 0.3692303999999922,
            "durationTicks": 192,
            "midi": 44,
            "name": "G#2",
            "ticks": 67920,
            "time": 140.66447,
            "velocity": 0.6299212598425197
          },
          {
            "duration": 0.3692303999999922,
            "durationTicks": 192,
            "midi": 44,
            "name": "G#2",
            "ticks": 68160,
            "time": 141.126008,
            "velocity": 0.6299212598425197
          },
          {
            "duration": 0.3692303999999922,
            "durationTicks": 192,
            "midi": 44,
            "name": "G#2",
            "ticks": 68400,
            "time": 141.587546,
            "velocity": 0.6299212598425197
          },
          {
            "duration": 0.3692303999999922,
            "durationTicks": 192,
            "midi": 44,
            "name": "G#2",
            "ticks": 68640,
            "time": 142.049084,
            "velocity": 0.6299212598425197
          },
          {
            "duration": 0.3692303999999922,
            "durationTicks": 192,
            "midi": 44,
            "name": "G#2",
            "ticks": 68880,
            "time": 142.510622,
            "velocity": 0.6299212598425197
          },
          {
            "duration": 0.3692303999999922,
            "durationTicks": 192,
            "midi": 44,
            "name": "G#2",
            "ticks": 69120,
            "time": 142.97216,
            "velocity": 0.6299212598425197
          },
          {
            "duration": 1.107691200000005,
            "durationTicks": 576,
            "midi": 59,
            "name": "B3",
            "ticks": 69360,
            "time": 143.433698,
            "velocity": 0.6299212598425197
          },
          {
            "duration": 0.27692280000002256,
            "durationTicks": 144,
            "midi": 59,
            "name": "B3",
            "ticks": 73680,
            "time": 151.741382,
            "velocity": 0.6299212598425197
          },
          {
            "duration": 0.27692280000002256,
            "durationTicks": 144,
            "midi": 51,
            "name": "D#3",
            "ticks": 73680,
            "time": 151.741382,
            "velocity": 0.6299212598425197
          },
          {
            "duration": 0.09230759999999805,
            "durationTicks": 48,
            "midi": 59,
            "name": "B3",
            "ticks": 73860,
            "time": 152.0875355,
            "velocity": 0.6299212598425197
          },
          {
            "duration": 0.27692279999999414,
            "durationTicks": 144,
            "midi": 59,
            "name": "B3",
            "ticks": 73920,
            "time": 152.20292,
            "velocity": 0.6299212598425197
          },
          {
            "duration": 0.27692279999999414,
            "durationTicks": 144,
            "midi": 51,
            "name": "D#3",
            "ticks": 73920,
            "time": 152.20292,
            "velocity": 0.6299212598425197
          },
          {
            "duration": 0.09230759999999805,
            "durationTicks": 48,
            "midi": 59,
            "name": "B3",
            "ticks": 74100,
            "time": 152.5490735,
            "velocity": 0.6299212598425197
          },
          {
            "duration": 0.27692279999999414,
            "durationTicks": 144,
            "midi": 59,
            "name": "B3",
            "ticks": 74160,
            "time": 152.664458,
            "velocity": 0.6299212598425197
          },
          {
            "duration": 0.27692279999999414,
            "durationTicks": 144,
            "midi": 51,
            "name": "D#3",
            "ticks": 74160,
            "time": 152.664458,
            "velocity": 0.6299212598425197
          },
          {
            "duration": 0.09230759999999805,
            "durationTicks": 48,
            "midi": 59,
            "name": "B3",
            "ticks": 74340,
            "time": 153.0106115,
            "velocity": 0.6299212598425197
          },
          {
            "duration": 0.27692280000002256,
            "durationTicks": 144,
            "midi": 59,
            "name": "B3",
            "ticks": 74400,
            "time": 153.125996,
            "velocity": 0.6299212598425197
          },
          {
            "duration": 0.27692280000002256,
            "durationTicks": 144,
            "midi": 51,
            "name": "D#3",
            "ticks": 74400,
            "time": 153.125996,
            "velocity": 0.6299212598425197
          },
          {
            "duration": 0.09230759999999805,
            "durationTicks": 48,
            "midi": 59,
            "name": "B3",
            "ticks": 74580,
            "time": 153.4721495,
            "velocity": 0.6299212598425197
          },
          {
            "duration": 0.27692279999999414,
            "durationTicks": 144,
            "midi": 59,
            "name": "B3",
            "ticks": 74640,
            "time": 153.587534,
            "velocity": 0.6299212598425197
          },
          {
            "duration": 0.27692279999999414,
            "durationTicks": 144,
            "midi": 51,
            "name": "D#3",
            "ticks": 74640,
            "time": 153.587534,
            "velocity": 0.6299212598425197
          },
          {
            "duration": 0.09230759999999805,
            "durationTicks": 48,
            "midi": 59,
            "name": "B3",
            "ticks": 74820,
            "time": 153.9336875,
            "velocity": 0.6299212598425197
          },
          {
            "duration": 0.27692279999999414,
            "durationTicks": 144,
            "midi": 59,
            "name": "B3",
            "ticks": 74880,
            "time": 154.049072,
            "velocity": 0.6299212598425197
          },
          {
            "duration": 0.27692279999999414,
            "durationTicks": 144,
            "midi": 51,
            "name": "D#3",
            "ticks": 74880,
            "time": 154.049072,
            "velocity": 0.6299212598425197
          },
          {
            "duration": 0.09230759999999805,
            "durationTicks": 48,
            "midi": 59,
            "name": "B3",
            "ticks": 75060,
            "time": 154.3952255,
            "velocity": 0.6299212598425197
          },
          {
            "duration": 0.4948455999999908,
            "durationTicks": 192,
            "midi": 47,
            "name": "B2",
            "ticks": 75360,
            "time": 155.129167,
            "velocity": 0.6299212598425197
          },
          {
            "duration": 0.4948455999999908,
            "durationTicks": 192,
            "midi": 40,
            "name": "E2",
            "ticks": 75360,
            "time": 155.129167,
            "velocity": 0.6299212598425197
          },
          {
            "duration": 0.4948455999999908,
            "durationTicks": 192,
            "midi": 36,
            "name": "C2",
            "ticks": 75360,
            "time": 155.129167,
            "velocity": 0.6299212598425197
          },
          {
            "duration": 0.4948455999999908,
            "durationTicks": 192,
            "midi": 38,
            "name": "D2",
            "ticks": 75360,
            "time": 155.129167,
            "velocity": 0.6299212598425197
          },
          {
            "duration": 0.4948456000000192,
            "durationTicks": 192,
            "midi": 47,
            "name": "B2",
            "ticks": 75600,
            "time": 155.74772399999998,
            "velocity": 0.6299212598425197
          },
          {
            "duration": 0.4948456000000192,
            "durationTicks": 192,
            "midi": 40,
            "name": "E2",
            "ticks": 75600,
            "time": 155.74772399999998,
            "velocity": 0.6299212598425197
          },
          {
            "duration": 0.4948456000000192,
            "durationTicks": 192,
            "midi": 36,
            "name": "C2",
            "ticks": 75600,
            "time": 155.74772399999998,
            "velocity": 0.6299212598425197
          },
          {
            "duration": 0.4948456000000192,
            "durationTicks": 192,
            "midi": 38,
            "name": "D2",
            "ticks": 75600,
            "time": 155.74772399999998,
            "velocity": 0.6299212598425197
          },
          {
            "duration": 0.4948455999999908,
            "durationTicks": 192,
            "midi": 38,
            "name": "D2",
            "ticks": 75840,
            "time": 156.366281,
            "velocity": 0.6299212598425197
          },
          {
            "duration": 0.4948455999999908,
            "durationTicks": 192,
            "midi": 36,
            "name": "C2",
            "ticks": 75840,
            "time": 156.366281,
            "velocity": 0.6299212598425197
          },
          {
            "duration": 0.4948455999999908,
            "durationTicks": 192,
            "midi": 40,
            "name": "E2",
            "ticks": 75840,
            "time": 156.366281,
            "velocity": 0.6299212598425197
          },
          {
            "duration": 0.4948455999999908,
            "durationTicks": 192,
            "midi": 47,
            "name": "B2",
            "ticks": 75840,
            "time": 156.366281,
            "velocity": 0.6299212598425197
          },
          {
            "duration": 0.24742279999998118,
            "durationTicks": 96,
            "midi": 42,
            "name": "F#2",
            "ticks": 76080,
            "time": 156.984838,
            "velocity": 0.6299212598425197
          },
          {
            "duration": 0.24742279999998118,
            "durationTicks": 96,
            "midi": 36,
            "name": "C2",
            "ticks": 76080,
            "time": 156.984838,
            "velocity": 0.6299212598425197
          },
          {
            "duration": 0.24742279999998118,
            "durationTicks": 96,
            "midi": 59,
            "name": "B3",
            "ticks": 76080,
            "time": 156.984838,
            "velocity": 0.6299212598425197
          },
          {
            "duration": 0.2474228000000096,
            "durationTicks": 96,
            "midi": 42,
            "name": "F#2",
            "ticks": 76200,
            "time": 157.29411649999997,
            "velocity": 0.6299212598425197
          },
          {
            "duration": 0.2474228000000096,
            "durationTicks": 96,
            "midi": 60,
            "name": "C4",
            "ticks": 76200,
            "time": 157.29411649999997,
            "velocity": 0.6299212598425197
          },
          {
            "duration": 0.2474228000000096,
            "durationTicks": 96,
            "midi": 42,
            "name": "F#2",
            "ticks": 76320,
            "time": 157.60339499999998,
            "velocity": 0.6299212598425197
          },
          {
            "duration": 0.2474228000000096,
            "durationTicks": 96,
            "midi": 38,
            "name": "D2",
            "ticks": 76320,
            "time": 157.60339499999998,
            "velocity": 0.6299212598425197
          },
          {
            "duration": 0.2474228000000096,
            "durationTicks": 96,
            "midi": 42,
            "name": "F#2",
            "ticks": 76440,
            "time": 157.91267349999998,
            "velocity": 0.6299212598425197
          },
          {
            "duration": 0.2474228000000096,
            "durationTicks": 96,
            "midi": 54,
            "name": "F#3",
            "ticks": 76440,
            "time": 157.91267349999998,
            "velocity": 0.6299212598425197
          },
          {
            "duration": 0.2474228000000096,
            "durationTicks": 96,
            "midi": 42,
            "name": "F#2",
            "ticks": 76560,
            "time": 158.221952,
            "velocity": 0.6299212598425197
          },
          {
            "duration": 0.2474228000000096,
            "durationTicks": 96,
            "midi": 36,
            "name": "C2",
            "ticks": 76560,
            "time": 158.221952,
            "velocity": 0.6299212598425197
          },
          {
            "duration": 0.2474228000000096,
            "durationTicks": 96,
            "midi": 59,
            "name": "B3",
            "ticks": 76560,
            "time": 158.221952,
            "velocity": 0.6299212598425197
          },
          {
            "duration": 0.24742279999998118,
            "durationTicks": 96,
            "midi": 42,
            "name": "F#2",
            "ticks": 76680,
            "time": 158.5312305,
            "velocity": 0.6299212598425197
          },
          {
            "duration": 0.24742279999998118,
            "durationTicks": 96,
            "midi": 60,
            "name": "C4",
            "ticks": 76680,
            "time": 158.5312305,
            "velocity": 0.6299212598425197
          },
          {
            "duration": 0.24742279999998118,
            "durationTicks": 96,
            "midi": 42,
            "name": "F#2",
            "ticks": 76800,
            "time": 158.840509,
            "velocity": 0.6299212598425197
          },
          {
            "duration": 0.24742279999998118,
            "durationTicks": 96,
            "midi": 38,
            "name": "D2",
            "ticks": 76800,
            "time": 158.840509,
            "velocity": 0.6299212598425197
          },
          {
            "duration": 0.2474228000000096,
            "durationTicks": 96,
            "midi": 42,
            "name": "F#2",
            "ticks": 76920,
            "time": 159.14978749999997,
            "velocity": 0.6299212598425197
          },
          {
            "duration": 0.2474228000000096,
            "durationTicks": 96,
            "midi": 54,
            "name": "F#3",
            "ticks": 76920,
            "time": 159.14978749999997,
            "velocity": 0.6299212598425197
          },
          {
            "duration": 0.2474228000000096,
            "durationTicks": 96,
            "midi": 59,
            "name": "B3",
            "ticks": 77040,
            "time": 159.45906599999998,
            "velocity": 0.6299212598425197
          },
          {
            "duration": 0.2474228000000096,
            "durationTicks": 96,
            "midi": 36,
            "name": "C2",
            "ticks": 77040,
            "time": 159.45906599999998,
            "velocity": 0.6299212598425197
          },
          {
            "duration": 0.2474228000000096,
            "durationTicks": 96,
            "midi": 42,
            "name": "F#2",
            "ticks": 77040,
            "time": 159.45906599999998,
            "velocity": 0.6299212598425197
          },
          {
            "duration": 0.2474228000000096,
            "durationTicks": 96,
            "midi": 60,
            "name": "C4",
            "ticks": 77160,
            "time": 159.76834449999998,
            "velocity": 0.6299212598425197
          },
          {
            "duration": 0.2474228000000096,
            "durationTicks": 96,
            "midi": 42,
            "name": "F#2",
            "ticks": 77160,
            "time": 159.76834449999998,
            "velocity": 0.6299212598425197
          },
          {
            "duration": 0.2474228000000096,
            "durationTicks": 96,
            "midi": 38,
            "name": "D2",
            "ticks": 77280,
            "time": 160.077623,
            "velocity": 0.6299212598425197
          },
          {
            "duration": 0.2474228000000096,
            "durationTicks": 96,
            "midi": 42,
            "name": "F#2",
            "ticks": 77280,
            "time": 160.077623,
            "velocity": 0.6299212598425197
          },
          {
            "duration": 0.24742279999998118,
            "durationTicks": 96,
            "midi": 42,
            "name": "F#2",
            "ticks": 77400,
            "time": 160.3869015,
            "velocity": 0.6299212598425197
          },
          {
            "duration": 0.24742279999998118,
            "durationTicks": 96,
            "midi": 54,
            "name": "F#3",
            "ticks": 77400,
            "time": 160.3869015,
            "velocity": 0.6299212598425197
          },
          {
            "duration": 0.24742279999998118,
            "durationTicks": 96,
            "midi": 59,
            "name": "B3",
            "ticks": 77520,
            "time": 160.69618,
            "velocity": 0.6299212598425197
          },
          {
            "duration": 0.24742279999998118,
            "durationTicks": 96,
            "midi": 36,
            "name": "C2",
            "ticks": 77520,
            "time": 160.69618,
            "velocity": 0.6299212598425197
          },
          {
            "duration": 0.24742279999998118,
            "durationTicks": 96,
            "midi": 42,
            "name": "F#2",
            "ticks": 77520,
            "time": 160.69618,
            "velocity": 0.6299212598425197
          },
          {
            "duration": 0.2474228000000096,
            "durationTicks": 96,
            "midi": 60,
            "name": "C4",
            "ticks": 77640,
            "time": 161.00545849999997,
            "velocity": 0.6299212598425197
          },
          {
            "duration": 0.2474228000000096,
            "durationTicks": 96,
            "midi": 42,
            "name": "F#2",
            "ticks": 77640,
            "time": 161.00545849999997,
            "velocity": 0.6299212598425197
          },
          {
            "duration": 0.2474228000000096,
            "durationTicks": 96,
            "midi": 42,
            "name": "F#2",
            "ticks": 77760,
            "time": 161.31473699999998,
            "velocity": 0.6299212598425197
          },
          {
            "duration": 0.2474228000000096,
            "durationTicks": 96,
            "midi": 38,
            "name": "D2",
            "ticks": 77760,
            "time": 161.31473699999998,
            "velocity": 0.6299212598425197
          },
          {
            "duration": 0.2474228000000096,
            "durationTicks": 96,
            "midi": 54,
            "name": "F#3",
            "ticks": 77880,
            "time": 161.62401549999998,
            "velocity": 0.6299212598425197
          },
          {
            "duration": 0.2474228000000096,
            "durationTicks": 96,
            "midi": 42,
            "name": "F#2",
            "ticks": 77880,
            "time": 161.62401549999998,
            "velocity": 0.6299212598425197
          },
          {
            "duration": 0.2474228000000096,
            "durationTicks": 96,
            "midi": 59,
            "name": "B3",
            "ticks": 78000,
            "time": 161.933294,
            "velocity": 0.6299212598425197
          },
          {
            "duration": 0.2474228000000096,
            "durationTicks": 96,
            "midi": 36,
            "name": "C2",
            "ticks": 78000,
            "time": 161.933294,
            "velocity": 0.6299212598425197
          },
          {
            "duration": 0.2474228000000096,
            "durationTicks": 96,
            "midi": 42,
            "name": "F#2",
            "ticks": 78000,
            "time": 161.933294,
            "velocity": 0.6299212598425197
          },
          {
            "duration": 0.24742279999998118,
            "durationTicks": 96,
            "midi": 60,
            "name": "C4",
            "ticks": 78120,
            "time": 162.2425725,
            "velocity": 0.6299212598425197
          },
          {
            "duration": 0.24742279999998118,
            "durationTicks": 96,
            "midi": 42,
            "name": "F#2",
            "ticks": 78120,
            "time": 162.2425725,
            "velocity": 0.6299212598425197
          },
          {
            "duration": 0.24742279999998118,
            "durationTicks": 96,
            "midi": 38,
            "name": "D2",
            "ticks": 78240,
            "time": 162.551851,
            "velocity": 0.6299212598425197
          },
          {
            "duration": 0.24742279999998118,
            "durationTicks": 96,
            "midi": 42,
            "name": "F#2",
            "ticks": 78240,
            "time": 162.551851,
            "velocity": 0.6299212598425197
          },
          {
            "duration": 0.2474228000000096,
            "durationTicks": 96,
            "midi": 54,
            "name": "F#3",
            "ticks": 78360,
            "time": 162.86112949999998,
            "velocity": 0.6299212598425197
          },
          {
            "duration": 0.2474228000000096,
            "durationTicks": 96,
            "midi": 42,
            "name": "F#2",
            "ticks": 78360,
            "time": 162.86112949999998,
            "velocity": 0.6299212598425197
          },
          {
            "duration": 0.2474228000000096,
            "durationTicks": 96,
            "midi": 59,
            "name": "B3",
            "ticks": 78480,
            "time": 163.17040799999998,
            "velocity": 0.6299212598425197
          },
          {
            "duration": 0.2474228000000096,
            "durationTicks": 96,
            "midi": 36,
            "name": "C2",
            "ticks": 78480,
            "time": 163.17040799999998,
            "velocity": 0.6299212598425197
          },
          {
            "duration": 0.2474228000000096,
            "durationTicks": 96,
            "midi": 42,
            "name": "F#2",
            "ticks": 78480,
            "time": 163.17040799999998,
            "velocity": 0.6299212598425197
          },
          {
            "duration": 0.2474228000000096,
            "durationTicks": 96,
            "midi": 60,
            "name": "C4",
            "ticks": 78600,
            "time": 163.47968649999999,
            "velocity": 0.6299212598425197
          },
          {
            "duration": 0.2474228000000096,
            "durationTicks": 96,
            "midi": 42,
            "name": "F#2",
            "ticks": 78600,
            "time": 163.47968649999999,
            "velocity": 0.6299212598425197
          },
          {
            "duration": 0.2474228000000096,
            "durationTicks": 96,
            "midi": 38,
            "name": "D2",
            "ticks": 78720,
            "time": 163.788965,
            "velocity": 0.6299212598425197
          },
          {
            "duration": 0.2474228000000096,
            "durationTicks": 96,
            "midi": 42,
            "name": "F#2",
            "ticks": 78720,
            "time": 163.788965,
            "velocity": 0.6299212598425197
          },
          {
            "duration": 0.24742279999998118,
            "durationTicks": 96,
            "midi": 54,
            "name": "F#3",
            "ticks": 78840,
            "time": 164.0982435,
            "velocity": 0.6299212598425197
          },
          {
            "duration": 0.24742279999998118,
            "durationTicks": 96,
            "midi": 42,
            "name": "F#2",
            "ticks": 78840,
            "time": 164.0982435,
            "velocity": 0.6299212598425197
          },
          {
            "duration": 0.2474228000000096,
            "durationTicks": 96,
            "midi": 42,
            "name": "F#2",
            "ticks": 78960,
            "time": 164.40752199999997,
            "velocity": 0.6299212598425197
          },
          {
            "duration": 0.2474228000000096,
            "durationTicks": 96,
            "midi": 36,
            "name": "C2",
            "ticks": 78960,
            "time": 164.40752199999997,
            "velocity": 0.6299212598425197
          },
          {
            "duration": 0.2474228000000096,
            "durationTicks": 96,
            "midi": 59,
            "name": "B3",
            "ticks": 78960,
            "time": 164.40752199999997,
            "velocity": 0.6299212598425197
          },
          {
            "duration": 0.2474228000000096,
            "durationTicks": 96,
            "midi": 42,
            "name": "F#2",
            "ticks": 79080,
            "time": 164.71680049999998,
            "velocity": 0.6299212598425197
          },
          {
            "duration": 0.2474228000000096,
            "durationTicks": 96,
            "midi": 60,
            "name": "C4",
            "ticks": 79080,
            "time": 164.71680049999998,
            "velocity": 0.6299212598425197
          },
          {
            "duration": 0.2474228000000096,
            "durationTicks": 96,
            "midi": 36,
            "name": "C2",
            "ticks": 79200,
            "time": 165.02607899999998,
            "velocity": 0.6299212598425197
          },
          {
            "duration": 0.2474228000000096,
            "durationTicks": 96,
            "midi": 42,
            "name": "F#2",
            "ticks": 79200,
            "time": 165.02607899999998,
            "velocity": 0.6299212598425197
          },
          {
            "duration": 0.2474228000000096,
            "durationTicks": 96,
            "midi": 38,
            "name": "D2",
            "ticks": 79200,
            "time": 165.02607899999998,
            "velocity": 0.6299212598425197
          },
          {
            "duration": 0.2474228000000096,
            "durationTicks": 96,
            "midi": 36,
            "name": "C2",
            "ticks": 79320,
            "time": 165.3353575,
            "velocity": 0.6299212598425197
          },
          {
            "duration": 0.2474228000000096,
            "durationTicks": 96,
            "midi": 42,
            "name": "F#2",
            "ticks": 79320,
            "time": 165.3353575,
            "velocity": 0.6299212598425197
          },
          {
            "duration": 0.2474228000000096,
            "durationTicks": 96,
            "midi": 54,
            "name": "F#3",
            "ticks": 79320,
            "time": 165.3353575,
            "velocity": 0.6299212598425197
          },
          {
            "duration": 0.24742279999998118,
            "durationTicks": 96,
            "midi": 50,
            "name": "D3",
            "ticks": 79440,
            "time": 165.644636,
            "velocity": 0.6299212598425197
          },
          {
            "duration": 0.24742279999998118,
            "durationTicks": 96,
            "midi": 42,
            "name": "F#2",
            "ticks": 79440,
            "time": 165.644636,
            "velocity": 0.6299212598425197
          },
          {
            "duration": 0.24742279999998118,
            "durationTicks": 96,
            "midi": 36,
            "name": "C2",
            "ticks": 79440,
            "time": 165.644636,
            "velocity": 0.6299212598425197
          },
          {
            "duration": 0.24742279999998118,
            "durationTicks": 96,
            "midi": 59,
            "name": "B3",
            "ticks": 79440,
            "time": 165.644636,
            "velocity": 0.6299212598425197
          },
          {
            "duration": 0.24742279999998118,
            "durationTicks": 96,
            "midi": 48,
            "name": "C3",
            "ticks": 79560,
            "time": 165.9539145,
            "velocity": 0.6299212598425197
          },
          {
            "duration": 0.24742279999998118,
            "durationTicks": 96,
            "midi": 36,
            "name": "C2",
            "ticks": 79560,
            "time": 165.9539145,
            "velocity": 0.6299212598425197
          },
          {
            "duration": 0.24742279999998118,
            "durationTicks": 96,
            "midi": 42,
            "name": "F#2",
            "ticks": 79560,
            "time": 165.9539145,
            "velocity": 0.6299212598425197
          },
          {
            "duration": 0.24742279999998118,
            "durationTicks": 96,
            "midi": 60,
            "name": "C4",
            "ticks": 79560,
            "time": 165.9539145,
            "velocity": 0.6299212598425197
          },
          {
            "duration": 0.24742279999998118,
            "durationTicks": 96,
            "midi": 48,
            "name": "C3",
            "ticks": 79680,
            "time": 166.263193,
            "velocity": 0.6299212598425197
          },
          {
            "duration": 0.24742279999998118,
            "durationTicks": 96,
            "midi": 36,
            "name": "C2",
            "ticks": 79680,
            "time": 166.263193,
            "velocity": 0.6299212598425197
          },
          {
            "duration": 0.24742279999998118,
            "durationTicks": 96,
            "midi": 42,
            "name": "F#2",
            "ticks": 79680,
            "time": 166.263193,
            "velocity": 0.6299212598425197
          },
          {
            "duration": 0.24742279999998118,
            "durationTicks": 96,
            "midi": 38,
            "name": "D2",
            "ticks": 79680,
            "time": 166.263193,
            "velocity": 0.6299212598425197
          },
          {
            "duration": 0.2474228000000096,
            "durationTicks": 96,
            "midi": 45,
            "name": "A2",
            "ticks": 79800,
            "time": 166.57247149999998,
            "velocity": 0.6299212598425197
          },
          {
            "duration": 0.2474228000000096,
            "durationTicks": 96,
            "midi": 36,
            "name": "C2",
            "ticks": 79800,
            "time": 166.57247149999998,
            "velocity": 0.6299212598425197
          },
          {
            "duration": 0.2474228000000096,
            "durationTicks": 96,
            "midi": 42,
            "name": "F#2",
            "ticks": 79800,
            "time": 166.57247149999998,
            "velocity": 0.6299212598425197
          },
          {
            "duration": 0.2474228000000096,
            "durationTicks": 96,
            "midi": 54,
            "name": "F#3",
            "ticks": 79800,
            "time": 166.57247149999998,
            "velocity": 0.6299212598425197
          },
          {
            "duration": 0.2474228000000096,
            "durationTicks": 96,
            "midi": 59,
            "name": "B3",
            "ticks": 79920,
            "time": 166.88174999999998,
            "velocity": 0.6299212598425197
          },
          {
            "duration": 0.2474228000000096,
            "durationTicks": 96,
            "midi": 36,
            "name": "C2",
            "ticks": 79920,
            "time": 166.88174999999998,
            "velocity": 0.6299212598425197
          },
          {
            "duration": 0.2474228000000096,
            "durationTicks": 96,
            "midi": 42,
            "name": "F#2",
            "ticks": 79920,
            "time": 166.88174999999998,
            "velocity": 0.6299212598425197
          },
          {
            "duration": 0.2474228000000096,
            "durationTicks": 96,
            "midi": 60,
            "name": "C4",
            "ticks": 80040,
            "time": 167.1910285,
            "velocity": 0.6299212598425197
          },
          {
            "duration": 0.2474228000000096,
            "durationTicks": 96,
            "midi": 42,
            "name": "F#2",
            "ticks": 80040,
            "time": 167.1910285,
            "velocity": 0.6299212598425197
          },
          {
            "duration": 0.24742279999998118,
            "durationTicks": 96,
            "midi": 38,
            "name": "D2",
            "ticks": 80160,
            "time": 167.500307,
            "velocity": 0.6299212598425197
          },
          {
            "duration": 0.24742279999998118,
            "durationTicks": 96,
            "midi": 42,
            "name": "F#2",
            "ticks": 80160,
            "time": 167.500307,
            "velocity": 0.6299212598425197
          },
          {
            "duration": 0.24742279999998118,
            "durationTicks": 96,
            "midi": 54,
            "name": "F#3",
            "ticks": 80280,
            "time": 167.8095855,
            "velocity": 0.6299212598425197
          },
          {
            "duration": 0.24742279999998118,
            "durationTicks": 96,
            "midi": 42,
            "name": "F#2",
            "ticks": 80280,
            "time": 167.8095855,
            "velocity": 0.6299212598425197
          },
          {
            "duration": 0.2474228000000096,
            "durationTicks": 96,
            "midi": 59,
            "name": "B3",
            "ticks": 80400,
            "time": 168.11886399999997,
            "velocity": 0.6299212598425197
          },
          {
            "duration": 0.2474228000000096,
            "durationTicks": 96,
            "midi": 36,
            "name": "C2",
            "ticks": 80400,
            "time": 168.11886399999997,
            "velocity": 0.6299212598425197
          },
          {
            "duration": 0.2474228000000096,
            "durationTicks": 96,
            "midi": 42,
            "name": "F#2",
            "ticks": 80400,
            "time": 168.11886399999997,
            "velocity": 0.6299212598425197
          },
          {
            "duration": 0.2474228000000096,
            "durationTicks": 96,
            "midi": 60,
            "name": "C4",
            "ticks": 80520,
            "time": 168.42814249999998,
            "velocity": 0.6299212598425197
          },
          {
            "duration": 0.2474228000000096,
            "durationTicks": 96,
            "midi": 42,
            "name": "F#2",
            "ticks": 80520,
            "time": 168.42814249999998,
            "velocity": 0.6299212598425197
          },
          {
            "duration": 0.2474228000000096,
            "durationTicks": 96,
            "midi": 38,
            "name": "D2",
            "ticks": 80640,
            "time": 168.73742099999998,
            "velocity": 0.6299212598425197
          },
          {
            "duration": 0.2474228000000096,
            "durationTicks": 96,
            "midi": 42,
            "name": "F#2",
            "ticks": 80640,
            "time": 168.73742099999998,
            "velocity": 0.6299212598425197
          },
          {
            "duration": 0.2474228000000096,
            "durationTicks": 96,
            "midi": 54,
            "name": "F#3",
            "ticks": 80760,
            "time": 169.0466995,
            "velocity": 0.6299212598425197
          },
          {
            "duration": 0.2474228000000096,
            "durationTicks": 96,
            "midi": 42,
            "name": "F#2",
            "ticks": 80760,
            "time": 169.0466995,
            "velocity": 0.6299212598425197
          },
          {
            "duration": 0.24742279999998118,
            "durationTicks": 96,
            "midi": 59,
            "name": "B3",
            "ticks": 80880,
            "time": 169.355978,
            "velocity": 0.6299212598425197
          },
          {
            "duration": 0.24742279999998118,
            "durationTicks": 96,
            "midi": 36,
            "name": "C2",
            "ticks": 80880,
            "time": 169.355978,
            "velocity": 0.6299212598425197
          },
          {
            "duration": 0.24742279999998118,
            "durationTicks": 96,
            "midi": 42,
            "name": "F#2",
            "ticks": 80880,
            "time": 169.355978,
            "velocity": 0.6299212598425197
          },
          {
            "duration": 0.24742279999998118,
            "durationTicks": 96,
            "midi": 60,
            "name": "C4",
            "ticks": 81000,
            "time": 169.6652565,
            "velocity": 0.6299212598425197
          },
          {
            "duration": 0.24742279999998118,
            "durationTicks": 96,
            "midi": 42,
            "name": "F#2",
            "ticks": 81000,
            "time": 169.6652565,
            "velocity": 0.6299212598425197
          },
          {
            "duration": 0.2474228000000096,
            "durationTicks": 96,
            "midi": 38,
            "name": "D2",
            "ticks": 81120,
            "time": 169.97453499999997,
            "velocity": 0.6299212598425197
          },
          {
            "duration": 0.2474228000000096,
            "durationTicks": 96,
            "midi": 42,
            "name": "F#2",
            "ticks": 81120,
            "time": 169.97453499999997,
            "velocity": 0.6299212598425197
          },
          {
            "duration": 0.2474228000000096,
            "durationTicks": 96,
            "midi": 36,
            "name": "C2",
            "ticks": 81120,
            "time": 169.97453499999997,
            "velocity": 0.6299212598425197
          },
          {
            "duration": 0.2474228000000096,
            "durationTicks": 96,
            "midi": 54,
            "name": "F#3",
            "ticks": 81240,
            "time": 170.28381349999998,
            "velocity": 0.6299212598425197
          },
          {
            "duration": 0.2474228000000096,
            "durationTicks": 96,
            "midi": 42,
            "name": "F#2",
            "ticks": 81240,
            "time": 170.28381349999998,
            "velocity": 0.6299212598425197
          },
          {
            "duration": 0.2474228000000096,
            "durationTicks": 96,
            "midi": 36,
            "name": "C2",
            "ticks": 81240,
            "time": 170.28381349999998,
            "velocity": 0.6299212598425197
          },
          {
            "duration": 0.2474228000000096,
            "durationTicks": 96,
            "midi": 59,
            "name": "B3",
            "ticks": 81360,
            "time": 170.59309199999998,
            "velocity": 0.6299212598425197
          },
          {
            "duration": 0.2474228000000096,
            "durationTicks": 96,
            "midi": 36,
            "name": "C2",
            "ticks": 81360,
            "time": 170.59309199999998,
            "velocity": 0.6299212598425197
          },
          {
            "duration": 0.2474228000000096,
            "durationTicks": 96,
            "midi": 42,
            "name": "F#2",
            "ticks": 81360,
            "time": 170.59309199999998,
            "velocity": 0.6299212598425197
          },
          {
            "duration": 0.2474228000000096,
            "durationTicks": 96,
            "midi": 50,
            "name": "D3",
            "ticks": 81360,
            "time": 170.59309199999998,
            "velocity": 0.6299212598425197
          },
          {
            "duration": 0.2474228000000096,
            "durationTicks": 96,
            "midi": 60,
            "name": "C4",
            "ticks": 81480,
            "time": 170.9023705,
            "velocity": 0.6299212598425197
          },
          {
            "duration": 0.2474228000000096,
            "durationTicks": 96,
            "midi": 42,
            "name": "F#2",
            "ticks": 81480,
            "time": 170.9023705,
            "velocity": 0.6299212598425197
          },
          {
            "duration": 0.2474228000000096,
            "durationTicks": 96,
            "midi": 36,
            "name": "C2",
            "ticks": 81480,
            "time": 170.9023705,
            "velocity": 0.6299212598425197
          },
          {
            "duration": 0.2474228000000096,
            "durationTicks": 96,
            "midi": 48,
            "name": "C3",
            "ticks": 81480,
            "time": 170.9023705,
            "velocity": 0.6299212598425197
          },
          {
            "duration": 0.24742279999998118,
            "durationTicks": 96,
            "midi": 38,
            "name": "D2",
            "ticks": 81600,
            "time": 171.211649,
            "velocity": 0.6299212598425197
          },
          {
            "duration": 0.24742279999998118,
            "durationTicks": 96,
            "midi": 42,
            "name": "F#2",
            "ticks": 81600,
            "time": 171.211649,
            "velocity": 0.6299212598425197
          },
          {
            "duration": 0.24742279999998118,
            "durationTicks": 96,
            "midi": 36,
            "name": "C2",
            "ticks": 81600,
            "time": 171.211649,
            "velocity": 0.6299212598425197
          },
          {
            "duration": 0.24742279999998118,
            "durationTicks": 96,
            "midi": 48,
            "name": "C3",
            "ticks": 81600,
            "time": 171.211649,
            "velocity": 0.6299212598425197
          },
          {
            "duration": 0.2474228000000096,
            "durationTicks": 96,
            "midi": 54,
            "name": "F#3",
            "ticks": 81720,
            "time": 171.52092749999997,
            "velocity": 0.6299212598425197
          },
          {
            "duration": 0.2474228000000096,
            "durationTicks": 96,
            "midi": 42,
            "name": "F#2",
            "ticks": 81720,
            "time": 171.52092749999997,
            "velocity": 0.6299212598425197
          },
          {
            "duration": 0.2474228000000096,
            "durationTicks": 96,
            "midi": 36,
            "name": "C2",
            "ticks": 81720,
            "time": 171.52092749999997,
            "velocity": 0.6299212598425197
          },
          {
            "duration": 0.2474228000000096,
            "durationTicks": 96,
            "midi": 45,
            "name": "A2",
            "ticks": 81720,
            "time": 171.52092749999997,
            "velocity": 0.6299212598425197
          },
          {
            "duration": 0.2474228000000096,
            "durationTicks": 96,
            "midi": 59,
            "name": "B3",
            "ticks": 81840,
            "time": 171.83020599999998,
            "velocity": 0.6141732283464567
          },
          {
            "duration": 0.2474228000000096,
            "durationTicks": 96,
            "midi": 36,
            "name": "C2",
            "ticks": 81840,
            "time": 171.83020599999998,
            "velocity": 0.6141732283464567
          },
          {
            "duration": 0.2474228000000096,
            "durationTicks": 96,
            "midi": 42,
            "name": "F#2",
            "ticks": 81840,
            "time": 171.83020599999998,
            "velocity": 0.6141732283464567
          },
          {
            "duration": 0.2474228000000096,
            "durationTicks": 96,
            "midi": 60,
            "name": "C4",
            "ticks": 81960,
            "time": 172.13948449999998,
            "velocity": 0.6141732283464567
          },
          {
            "duration": 0.2474228000000096,
            "durationTicks": 96,
            "midi": 42,
            "name": "F#2",
            "ticks": 81960,
            "time": 172.13948449999998,
            "velocity": 0.6141732283464567
          },
          {
            "duration": 0.2474228000000096,
            "durationTicks": 96,
            "midi": 38,
            "name": "D2",
            "ticks": 82080,
            "time": 172.44876299999999,
            "velocity": 0.6141732283464567
          },
          {
            "duration": 0.2474228000000096,
            "durationTicks": 96,
            "midi": 42,
            "name": "F#2",
            "ticks": 82080,
            "time": 172.44876299999999,
            "velocity": 0.6141732283464567
          },
          {
            "duration": 0.24742279999998118,
            "durationTicks": 96,
            "midi": 42,
            "name": "F#2",
            "ticks": 82200,
            "time": 172.7580415,
            "velocity": 0.6141732283464567
          },
          {
            "duration": 0.24742279999998118,
            "durationTicks": 96,
            "midi": 54,
            "name": "F#3",
            "ticks": 82200,
            "time": 172.7580415,
            "velocity": 0.6141732283464567
          },
          {
            "duration": 0.24742279999998118,
            "durationTicks": 96,
            "midi": 36,
            "name": "C2",
            "ticks": 82320,
            "time": 173.06732,
            "velocity": 0.6141732283464567
          },
          {
            "duration": 0.24742279999998118,
            "durationTicks": 96,
            "midi": 42,
            "name": "F#2",
            "ticks": 82320,
            "time": 173.06732,
            "velocity": 0.6141732283464567
          },
          {
            "duration": 0.24742279999998118,
            "durationTicks": 96,
            "midi": 59,
            "name": "B3",
            "ticks": 82320,
            "time": 173.06732,
            "velocity": 0.6141732283464567
          },
          {
            "duration": 0.24742279999998118,
            "durationTicks": 96,
            "midi": 42,
            "name": "F#2",
            "ticks": 82440,
            "time": 173.3765985,
            "velocity": 0.6141732283464567
          },
          {
            "duration": 0.24742279999998118,
            "durationTicks": 96,
            "midi": 60,
            "name": "C4",
            "ticks": 82440,
            "time": 173.3765985,
            "velocity": 0.6141732283464567
          },
          {
            "duration": 0.2474228000000096,
            "durationTicks": 96,
            "midi": 38,
            "name": "D2",
            "ticks": 82560,
            "time": 173.68587699999998,
            "velocity": 0.6141732283464567
          },
          {
            "duration": 0.2474228000000096,
            "durationTicks": 96,
            "midi": 42,
            "name": "F#2",
            "ticks": 82560,
            "time": 173.68587699999998,
            "velocity": 0.6141732283464567
          },
          {
            "duration": 0.2474228000000096,
            "durationTicks": 96,
            "midi": 42,
            "name": "F#2",
            "ticks": 82680,
            "time": 173.99515549999998,
            "velocity": 0.6141732283464567
          },
          {
            "duration": 0.2474228000000096,
            "durationTicks": 96,
            "midi": 54,
            "name": "F#3",
            "ticks": 82680,
            "time": 173.99515549999998,
            "velocity": 0.6141732283464567
          },
          {
            "duration": 0.2474228000000096,
            "durationTicks": 96,
            "midi": 42,
            "name": "F#2",
            "ticks": 82800,
            "time": 174.304434,
            "velocity": 0.6141732283464567
          },
          {
            "duration": 0.2474228000000096,
            "durationTicks": 96,
            "midi": 36,
            "name": "C2",
            "ticks": 82800,
            "time": 174.304434,
            "velocity": 0.6141732283464567
          },
          {
            "duration": 0.2474228000000096,
            "durationTicks": 96,
            "midi": 59,
            "name": "B3",
            "ticks": 82800,
            "time": 174.304434,
            "velocity": 0.6141732283464567
          },
          {
            "duration": 0.2474228000000096,
            "durationTicks": 96,
            "midi": 42,
            "name": "F#2",
            "ticks": 82920,
            "time": 174.6137125,
            "velocity": 0.6141732283464567
          },
          {
            "duration": 0.2474228000000096,
            "durationTicks": 96,
            "midi": 60,
            "name": "C4",
            "ticks": 82920,
            "time": 174.6137125,
            "velocity": 0.6141732283464567
          },
          {
            "duration": 0.24742279999998118,
            "durationTicks": 96,
            "midi": 42,
            "name": "F#2",
            "ticks": 83040,
            "time": 174.922991,
            "velocity": 0.6141732283464567
          },
          {
            "duration": 0.24742279999998118,
            "durationTicks": 96,
            "midi": 38,
            "name": "D2",
            "ticks": 83040,
            "time": 174.922991,
            "velocity": 0.6141732283464567
          },
          {
            "duration": 0.2474228000000096,
            "durationTicks": 96,
            "midi": 54,
            "name": "F#3",
            "ticks": 83160,
            "time": 175.23226949999997,
            "velocity": 0.6141732283464567
          },
          {
            "duration": 0.2474228000000096,
            "durationTicks": 96,
            "midi": 42,
            "name": "F#2",
            "ticks": 83160,
            "time": 175.23226949999997,
            "velocity": 0.6141732283464567
          },
          {
            "duration": 0.2474228000000096,
            "durationTicks": 96,
            "midi": 59,
            "name": "B3",
            "ticks": 83280,
            "time": 175.54154799999998,
            "velocity": 0.6141732283464567
          },
          {
            "duration": 0.2474228000000096,
            "durationTicks": 96,
            "midi": 42,
            "name": "F#2",
            "ticks": 83280,
            "time": 175.54154799999998,
            "velocity": 0.6141732283464567
          },
          {
            "duration": 0.2474228000000096,
            "durationTicks": 96,
            "midi": 36,
            "name": "C2",
            "ticks": 83280,
            "time": 175.54154799999998,
            "velocity": 0.6141732283464567
          },
          {
            "duration": 0.2474228000000096,
            "durationTicks": 96,
            "midi": 60,
            "name": "C4",
            "ticks": 83400,
            "time": 175.85082649999998,
            "velocity": 0.6141732283464567
          },
          {
            "duration": 0.2474228000000096,
            "durationTicks": 96,
            "midi": 42,
            "name": "F#2",
            "ticks": 83400,
            "time": 175.85082649999998,
            "velocity": 0.6141732283464567
          },
          {
            "duration": 0.2474228000000096,
            "durationTicks": 96,
            "midi": 42,
            "name": "F#2",
            "ticks": 83520,
            "time": 176.160105,
            "velocity": 0.6141732283464567
          },
          {
            "duration": 0.2474228000000096,
            "durationTicks": 96,
            "midi": 38,
            "name": "D2",
            "ticks": 83520,
            "time": 176.160105,
            "velocity": 0.6141732283464567
          },
          {
            "duration": 0.24742279999998118,
            "durationTicks": 96,
            "midi": 54,
            "name": "F#3",
            "ticks": 83640,
            "time": 176.4693835,
            "velocity": 0.6141732283464567
          },
          {
            "duration": 0.24742279999998118,
            "durationTicks": 96,
            "midi": 42,
            "name": "F#2",
            "ticks": 83640,
            "time": 176.4693835,
            "velocity": 0.6141732283464567
          },
          {
            "duration": 0.24742279999998118,
            "durationTicks": 96,
            "midi": 42,
            "name": "F#2",
            "ticks": 83760,
            "time": 176.778662,
            "velocity": 0.6299212598425197
          },
          {
            "duration": 0.24742279999998118,
            "durationTicks": 96,
            "midi": 36,
            "name": "C2",
            "ticks": 83760,
            "time": 176.778662,
            "velocity": 0.6299212598425197
          },
          {
            "duration": 0.24742279999998118,
            "durationTicks": 96,
            "midi": 59,
            "name": "B3",
            "ticks": 83760,
            "time": 176.778662,
            "velocity": 0.6299212598425197
          },
          {
            "duration": 0.24742279999998118,
            "durationTicks": 96,
            "midi": 42,
            "name": "F#2",
            "ticks": 83880,
            "time": 177.0879405,
            "velocity": 0.6299212598425197
          },
          {
            "duration": 0.24742279999998118,
            "durationTicks": 96,
            "midi": 60,
            "name": "C4",
            "ticks": 83880,
            "time": 177.0879405,
            "velocity": 0.6299212598425197
          },
          {
            "duration": 0.2474228000000096,
            "durationTicks": 96,
            "midi": 42,
            "name": "F#2",
            "ticks": 84000,
            "time": 177.39721899999998,
            "velocity": 0.6299212598425197
          },
          {
            "duration": 0.2474228000000096,
            "durationTicks": 96,
            "midi": 38,
            "name": "D2",
            "ticks": 84000,
            "time": 177.39721899999998,
            "velocity": 0.6299212598425197
          },
          {
            "duration": 0.2474228000000096,
            "durationTicks": 96,
            "midi": 42,
            "name": "F#2",
            "ticks": 84120,
            "time": 177.70649749999998,
            "velocity": 0.6299212598425197
          },
          {
            "duration": 0.2474228000000096,
            "durationTicks": 96,
            "midi": 54,
            "name": "F#3",
            "ticks": 84120,
            "time": 177.70649749999998,
            "velocity": 0.6299212598425197
          },
          {
            "duration": 0.2474228000000096,
            "durationTicks": 96,
            "midi": 42,
            "name": "F#2",
            "ticks": 84240,
            "time": 178.015776,
            "velocity": 0.6299212598425197
          },
          {
            "duration": 0.2474228000000096,
            "durationTicks": 96,
            "midi": 36,
            "name": "C2",
            "ticks": 84240,
            "time": 178.015776,
            "velocity": 0.6299212598425197
          },
          {
            "duration": 0.2474228000000096,
            "durationTicks": 96,
            "midi": 59,
            "name": "B3",
            "ticks": 84240,
            "time": 178.015776,
            "velocity": 0.6299212598425197
          },
          {
            "duration": 0.24742279999998118,
            "durationTicks": 96,
            "midi": 42,
            "name": "F#2",
            "ticks": 84360,
            "time": 178.3250545,
            "velocity": 0.6299212598425197
          },
          {
            "duration": 0.24742279999998118,
            "durationTicks": 96,
            "midi": 60,
            "name": "C4",
            "ticks": 84360,
            "time": 178.3250545,
            "velocity": 0.6299212598425197
          },
          {
            "duration": 0.24742279999998118,
            "durationTicks": 96,
            "midi": 42,
            "name": "F#2",
            "ticks": 84480,
            "time": 178.634333,
            "velocity": 0.6299212598425197
          },
          {
            "duration": 0.24742279999998118,
            "durationTicks": 96,
            "midi": 38,
            "name": "D2",
            "ticks": 84480,
            "time": 178.634333,
            "velocity": 0.6299212598425197
          },
          {
            "duration": 0.2474228000000096,
            "durationTicks": 96,
            "midi": 42,
            "name": "F#2",
            "ticks": 84600,
            "time": 178.94361149999997,
            "velocity": 0.6299212598425197
          },
          {
            "duration": 0.2474228000000096,
            "durationTicks": 96,
            "midi": 54,
            "name": "F#3",
            "ticks": 84600,
            "time": 178.94361149999997,
            "velocity": 0.6299212598425197
          },
          {
            "duration": 0.2474228000000096,
            "durationTicks": 96,
            "midi": 42,
            "name": "F#2",
            "ticks": 84720,
            "time": 179.25288999999998,
            "velocity": 0.6299212598425197
          },
          {
            "duration": 0.2474228000000096,
            "durationTicks": 96,
            "midi": 36,
            "name": "C2",
            "ticks": 84720,
            "time": 179.25288999999998,
            "velocity": 0.6299212598425197
          },
          {
            "duration": 0.2474228000000096,
            "durationTicks": 96,
            "midi": 59,
            "name": "B3",
            "ticks": 84720,
            "time": 179.25288999999998,
            "velocity": 0.6299212598425197
          },
          {
            "duration": 0.2474228000000096,
            "durationTicks": 96,
            "midi": 42,
            "name": "F#2",
            "ticks": 84840,
            "time": 179.56216849999998,
            "velocity": 0.6299212598425197
          },
          {
            "duration": 0.2474228000000096,
            "durationTicks": 96,
            "midi": 60,
            "name": "C4",
            "ticks": 84840,
            "time": 179.56216849999998,
            "velocity": 0.6299212598425197
          },
          {
            "duration": 0.24742279999998118,
            "durationTicks": 96,
            "midi": 36,
            "name": "C2",
            "ticks": 84960,
            "time": 179.871447,
            "velocity": 0.6299212598425197
          },
          {
            "duration": 0.24742279999998118,
            "durationTicks": 96,
            "midi": 42,
            "name": "F#2",
            "ticks": 84960,
            "time": 179.871447,
            "velocity": 0.6299212598425197
          },
          {
            "duration": 0.24742279999998118,
            "durationTicks": 96,
            "midi": 38,
            "name": "D2",
            "ticks": 84960,
            "time": 179.871447,
            "velocity": 0.6299212598425197
          },
          {
            "duration": 0.24742279999998118,
            "durationTicks": 96,
            "midi": 36,
            "name": "C2",
            "ticks": 85080,
            "time": 180.1807255,
            "velocity": 0.6299212598425197
          },
          {
            "duration": 0.24742279999998118,
            "durationTicks": 96,
            "midi": 42,
            "name": "F#2",
            "ticks": 85080,
            "time": 180.1807255,
            "velocity": 0.6299212598425197
          },
          {
            "duration": 0.24742279999998118,
            "durationTicks": 96,
            "midi": 54,
            "name": "F#3",
            "ticks": 85080,
            "time": 180.1807255,
            "velocity": 0.6299212598425197
          },
          {
            "duration": 0.24742279999998118,
            "durationTicks": 96,
            "midi": 50,
            "name": "D3",
            "ticks": 85200,
            "time": 180.490004,
            "velocity": 0.6299212598425197
          },
          {
            "duration": 0.24742279999998118,
            "durationTicks": 96,
            "midi": 42,
            "name": "F#2",
            "ticks": 85200,
            "time": 180.490004,
            "velocity": 0.6299212598425197
          },
          {
            "duration": 0.24742279999998118,
            "durationTicks": 96,
            "midi": 36,
            "name": "C2",
            "ticks": 85200,
            "time": 180.490004,
            "velocity": 0.6299212598425197
          },
          {
            "duration": 0.24742279999998118,
            "durationTicks": 96,
            "midi": 59,
            "name": "B3",
            "ticks": 85200,
            "time": 180.490004,
            "velocity": 0.6299212598425197
          },
          {
            "duration": 0.2474228000000096,
            "durationTicks": 96,
            "midi": 48,
            "name": "C3",
            "ticks": 85320,
            "time": 180.79928249999998,
            "velocity": 0.6299212598425197
          },
          {
            "duration": 0.2474228000000096,
            "durationTicks": 96,
            "midi": 36,
            "name": "C2",
            "ticks": 85320,
            "time": 180.79928249999998,
            "velocity": 0.6299212598425197
          },
          {
            "duration": 0.2474228000000096,
            "durationTicks": 96,
            "midi": 42,
            "name": "F#2",
            "ticks": 85320,
            "time": 180.79928249999998,
            "velocity": 0.6299212598425197
          },
          {
            "duration": 0.2474228000000096,
            "durationTicks": 96,
            "midi": 60,
            "name": "C4",
            "ticks": 85320,
            "time": 180.79928249999998,
            "velocity": 0.6299212598425197
          },
          {
            "duration": 0.2474228000000096,
            "durationTicks": 96,
            "midi": 48,
            "name": "C3",
            "ticks": 85440,
            "time": 181.10856099999998,
            "velocity": 0.6299212598425197
          },
          {
            "duration": 0.2474228000000096,
            "durationTicks": 96,
            "midi": 36,
            "name": "C2",
            "ticks": 85440,
            "time": 181.10856099999998,
            "velocity": 0.6299212598425197
          },
          {
            "duration": 0.2474228000000096,
            "durationTicks": 96,
            "midi": 42,
            "name": "F#2",
            "ticks": 85440,
            "time": 181.10856099999998,
            "velocity": 0.6299212598425197
          },
          {
            "duration": 0.2474228000000096,
            "durationTicks": 96,
            "midi": 38,
            "name": "D2",
            "ticks": 85440,
            "time": 181.10856099999998,
            "velocity": 0.6299212598425197
          },
          {
            "duration": 0.2474228000000096,
            "durationTicks": 96,
            "midi": 45,
            "name": "A2",
            "ticks": 85560,
            "time": 181.41783949999999,
            "velocity": 0.6299212598425197
          },
          {
            "duration": 0.2474228000000096,
            "durationTicks": 96,
            "midi": 36,
            "name": "C2",
            "ticks": 85560,
            "time": 181.41783949999999,
            "velocity": 0.6299212598425197
          },
          {
            "duration": 0.2474228000000096,
            "durationTicks": 96,
            "midi": 42,
            "name": "F#2",
            "ticks": 85560,
            "time": 181.41783949999999,
            "velocity": 0.6299212598425197
          },
          {
            "duration": 0.2474228000000096,
            "durationTicks": 96,
            "midi": 54,
            "name": "F#3",
            "ticks": 85560,
            "time": 181.41783949999999,
            "velocity": 0.6299212598425197
          },
          {
            "duration": 0.2474228000000096,
            "durationTicks": 96,
            "midi": 42,
            "name": "F#2",
            "ticks": 85680,
            "time": 181.727118,
            "velocity": 0.6299212598425197
          },
          {
            "duration": 0.2474228000000096,
            "durationTicks": 96,
            "midi": 36,
            "name": "C2",
            "ticks": 85680,
            "time": 181.727118,
            "velocity": 0.6299212598425197
          },
          {
            "duration": 0.2474228000000096,
            "durationTicks": 96,
            "midi": 59,
            "name": "B3",
            "ticks": 85680,
            "time": 181.727118,
            "velocity": 0.6299212598425197
          },
          {
            "duration": 0.24742279999998118,
            "durationTicks": 96,
            "midi": 42,
            "name": "F#2",
            "ticks": 85800,
            "time": 182.0363965,
            "velocity": 0.6299212598425197
          },
          {
            "duration": 0.24742279999998118,
            "durationTicks": 96,
            "midi": 60,
            "name": "C4",
            "ticks": 85800,
            "time": 182.0363965,
            "velocity": 0.6299212598425197
          },
          {
            "duration": 0.2474228000000096,
            "durationTicks": 96,
            "midi": 42,
            "name": "F#2",
            "ticks": 85920,
            "time": 182.34567499999997,
            "velocity": 0.6299212598425197
          },
          {
            "duration": 0.2474228000000096,
            "durationTicks": 96,
            "midi": 38,
            "name": "D2",
            "ticks": 85920,
            "time": 182.34567499999997,
            "velocity": 0.6299212598425197
          },
          {
            "duration": 0.2474228000000096,
            "durationTicks": 96,
            "midi": 42,
            "name": "F#2",
            "ticks": 86040,
            "time": 182.65495349999998,
            "velocity": 0.6299212598425197
          },
          {
            "duration": 0.2474228000000096,
            "durationTicks": 96,
            "midi": 54,
            "name": "F#3",
            "ticks": 86040,
            "time": 182.65495349999998,
            "velocity": 0.6299212598425197
          },
          {
            "duration": 0.2474228000000096,
            "durationTicks": 96,
            "midi": 42,
            "name": "F#2",
            "ticks": 86160,
            "time": 182.96423199999998,
            "velocity": 0.6299212598425197
          },
          {
            "duration": 0.2474228000000096,
            "durationTicks": 96,
            "midi": 36,
            "name": "C2",
            "ticks": 86160,
            "time": 182.96423199999998,
            "velocity": 0.6299212598425197
          },
          {
            "duration": 0.2474228000000096,
            "durationTicks": 96,
            "midi": 59,
            "name": "B3",
            "ticks": 86160,
            "time": 182.96423199999998,
            "velocity": 0.6299212598425197
          },
          {
            "duration": 0.2474228000000096,
            "durationTicks": 96,
            "midi": 42,
            "name": "F#2",
            "ticks": 86280,
            "time": 183.2735105,
            "velocity": 0.6299212598425197
          },
          {
            "duration": 0.2474228000000096,
            "durationTicks": 96,
            "midi": 60,
            "name": "C4",
            "ticks": 86280,
            "time": 183.2735105,
            "velocity": 0.6299212598425197
          },
          {
            "duration": 0.24742279999998118,
            "durationTicks": 96,
            "midi": 42,
            "name": "F#2",
            "ticks": 86400,
            "time": 183.582789,
            "velocity": 0.6299212598425197
          },
          {
            "duration": 0.24742279999998118,
            "durationTicks": 96,
            "midi": 38,
            "name": "D2",
            "ticks": 86400,
            "time": 183.582789,
            "velocity": 0.6299212598425197
          },
          {
            "duration": 0.24742279999998118,
            "durationTicks": 96,
            "midi": 42,
            "name": "F#2",
            "ticks": 86520,
            "time": 183.8920675,
            "velocity": 0.6299212598425197
          },
          {
            "duration": 0.24742279999998118,
            "durationTicks": 96,
            "midi": 54,
            "name": "F#3",
            "ticks": 86520,
            "time": 183.8920675,
            "velocity": 0.6299212598425197
          },
          {
            "duration": 0.24742279999998118,
            "durationTicks": 96,
            "midi": 59,
            "name": "B3",
            "ticks": 86640,
            "time": 184.201346,
            "velocity": 0.6299212598425197
          },
          {
            "duration": 0.24742279999998118,
            "durationTicks": 96,
            "midi": 36,
            "name": "C2",
            "ticks": 86640,
            "time": 184.201346,
            "velocity": 0.6299212598425197
          },
          {
            "duration": 0.24742279999998118,
            "durationTicks": 96,
            "midi": 42,
            "name": "F#2",
            "ticks": 86640,
            "time": 184.201346,
            "velocity": 0.6299212598425197
          },
          {
            "duration": 0.2474228000000096,
            "durationTicks": 96,
            "midi": 60,
            "name": "C4",
            "ticks": 86760,
            "time": 184.51062449999998,
            "velocity": 0.6299212598425197
          },
          {
            "duration": 0.2474228000000096,
            "durationTicks": 96,
            "midi": 42,
            "name": "F#2",
            "ticks": 86760,
            "time": 184.51062449999998,
            "velocity": 0.6299212598425197
          },
          {
            "duration": 0.2474228000000096,
            "durationTicks": 96,
            "midi": 38,
            "name": "D2",
            "ticks": 86880,
            "time": 184.81990299999998,
            "velocity": 0.6299212598425197
          },
          {
            "duration": 0.2474228000000096,
            "durationTicks": 96,
            "midi": 42,
            "name": "F#2",
            "ticks": 86880,
            "time": 184.81990299999998,
            "velocity": 0.6299212598425197
          },
          {
            "duration": 0.2474228000000096,
            "durationTicks": 96,
            "midi": 36,
            "name": "C2",
            "ticks": 86880,
            "time": 184.81990299999998,
            "velocity": 0.6299212598425197
          },
          {
            "duration": 0.2474228000000096,
            "durationTicks": 96,
            "midi": 54,
            "name": "F#3",
            "ticks": 87000,
            "time": 185.1291815,
            "velocity": 0.6299212598425197
          },
          {
            "duration": 0.2474228000000096,
            "durationTicks": 96,
            "midi": 42,
            "name": "F#2",
            "ticks": 87000,
            "time": 185.1291815,
            "velocity": 0.6299212598425197
          },
          {
            "duration": 0.2474228000000096,
            "durationTicks": 96,
            "midi": 36,
            "name": "C2",
            "ticks": 87000,
            "time": 185.1291815,
            "velocity": 0.6299212598425197
          },
          {
            "duration": 0.2474228000000096,
            "durationTicks": 96,
            "midi": 59,
            "name": "B3",
            "ticks": 87120,
            "time": 185.43846,
            "velocity": 0.6299212598425197
          },
          {
            "duration": 0.2474228000000096,
            "durationTicks": 96,
            "midi": 36,
            "name": "C2",
            "ticks": 87120,
            "time": 185.43846,
            "velocity": 0.6299212598425197
          },
          {
            "duration": 0.2474228000000096,
            "durationTicks": 96,
            "midi": 42,
            "name": "F#2",
            "ticks": 87120,
            "time": 185.43846,
            "velocity": 0.6299212598425197
          },
          {
            "duration": 0.2474228000000096,
            "durationTicks": 96,
            "midi": 50,
            "name": "D3",
            "ticks": 87120,
            "time": 185.43846,
            "velocity": 0.6299212598425197
          },
          {
            "duration": 0.24742279999998118,
            "durationTicks": 96,
            "midi": 60,
            "name": "C4",
            "ticks": 87240,
            "time": 185.7477385,
            "velocity": 0.6299212598425197
          },
          {
            "duration": 0.24742279999998118,
            "durationTicks": 96,
            "midi": 42,
            "name": "F#2",
            "ticks": 87240,
            "time": 185.7477385,
            "velocity": 0.6299212598425197
          },
          {
            "duration": 0.24742279999998118,
            "durationTicks": 96,
            "midi": 36,
            "name": "C2",
            "ticks": 87240,
            "time": 185.7477385,
            "velocity": 0.6299212598425197
          },
          {
            "duration": 0.24742279999998118,
            "durationTicks": 96,
            "midi": 48,
            "name": "C3",
            "ticks": 87240,
            "time": 185.7477385,
            "velocity": 0.6299212598425197
          },
          {
            "duration": 0.2474228000000096,
            "durationTicks": 96,
            "midi": 38,
            "name": "D2",
            "ticks": 87360,
            "time": 186.05701699999997,
            "velocity": 0.6299212598425197
          },
          {
            "duration": 0.2474228000000096,
            "durationTicks": 96,
            "midi": 42,
            "name": "F#2",
            "ticks": 87360,
            "time": 186.05701699999997,
            "velocity": 0.6299212598425197
          },
          {
            "duration": 0.2474228000000096,
            "durationTicks": 96,
            "midi": 36,
            "name": "C2",
            "ticks": 87360,
            "time": 186.05701699999997,
            "velocity": 0.6299212598425197
          },
          {
            "duration": 0.2474228000000096,
            "durationTicks": 96,
            "midi": 48,
            "name": "C3",
            "ticks": 87360,
            "time": 186.05701699999997,
            "velocity": 0.6299212598425197
          },
          {
            "duration": 0.2474228000000096,
            "durationTicks": 96,
            "midi": 54,
            "name": "F#3",
            "ticks": 87480,
            "time": 186.36629549999998,
            "velocity": 0.6299212598425197
          },
          {
            "duration": 0.2474228000000096,
            "durationTicks": 96,
            "midi": 42,
            "name": "F#2",
            "ticks": 87480,
            "time": 186.36629549999998,
            "velocity": 0.6299212598425197
          },
          {
            "duration": 0.2474228000000096,
            "durationTicks": 96,
            "midi": 36,
            "name": "C2",
            "ticks": 87480,
            "time": 186.36629549999998,
            "velocity": 0.6299212598425197
          },
          {
            "duration": 0.2474228000000096,
            "durationTicks": 96,
            "midi": 45,
            "name": "A2",
            "ticks": 87480,
            "time": 186.36629549999998,
            "velocity": 0.6299212598425197
          },
          {
            "duration": 0.2474228000000096,
            "durationTicks": 96,
            "midi": 42,
            "name": "F#2",
            "ticks": 87600,
            "time": 186.67557399999998,
            "velocity": 0.5354330708661418
          },
          {
            "duration": 0.2474228000000096,
            "durationTicks": 96,
            "midi": 36,
            "name": "C2",
            "ticks": 87600,
            "time": 186.67557399999998,
            "velocity": 0.5354330708661418
          },
          {
            "duration": 0.2474228000000096,
            "durationTicks": 96,
            "midi": 59,
            "name": "B3",
            "ticks": 87600,
            "time": 186.67557399999998,
            "velocity": 0.5354330708661418
          },
          {
            "duration": 0.24742279999998118,
            "durationTicks": 96,
            "midi": 42,
            "name": "F#2",
            "ticks": 87720,
            "time": 186.9848525,
            "velocity": 0.5354330708661418
          },
          {
            "duration": 0.24742279999998118,
            "durationTicks": 96,
            "midi": 60,
            "name": "C4",
            "ticks": 87720,
            "time": 186.9848525,
            "velocity": 0.5354330708661418
          },
          {
            "duration": 0.24742279999998118,
            "durationTicks": 96,
            "midi": 42,
            "name": "F#2",
            "ticks": 87840,
            "time": 187.294131,
            "velocity": 0.5354330708661418
          },
          {
            "duration": 0.24742279999998118,
            "durationTicks": 96,
            "midi": 38,
            "name": "D2",
            "ticks": 87840,
            "time": 187.294131,
            "velocity": 0.5354330708661418
          },
          {
            "duration": 0.24742279999998118,
            "durationTicks": 96,
            "midi": 42,
            "name": "F#2",
            "ticks": 87960,
            "time": 187.6034095,
            "velocity": 0.5354330708661418
          },
          {
            "duration": 0.24742279999998118,
            "durationTicks": 96,
            "midi": 54,
            "name": "F#3",
            "ticks": 87960,
            "time": 187.6034095,
            "velocity": 0.5354330708661418
          },
          {
            "duration": 0.24742279999998118,
            "durationTicks": 96,
            "midi": 42,
            "name": "F#2",
            "ticks": 88080,
            "time": 187.912688,
            "velocity": 0.5354330708661418
          },
          {
            "duration": 0.24742279999998118,
            "durationTicks": 96,
            "midi": 36,
            "name": "C2",
            "ticks": 88080,
            "time": 187.912688,
            "velocity": 0.5354330708661418
          },
          {
            "duration": 0.24742279999998118,
            "durationTicks": 96,
            "midi": 59,
            "name": "B3",
            "ticks": 88080,
            "time": 187.912688,
            "velocity": 0.5354330708661418
          },
          {
            "duration": 0.2474228000000096,
            "durationTicks": 96,
            "midi": 42,
            "name": "F#2",
            "ticks": 88200,
            "time": 188.22196649999998,
            "velocity": 0.5354330708661418
          },
          {
            "duration": 0.2474228000000096,
            "durationTicks": 96,
            "midi": 60,
            "name": "C4",
            "ticks": 88200,
            "time": 188.22196649999998,
            "velocity": 0.5354330708661418
          },
          {
            "duration": 0.2474228000000096,
            "durationTicks": 96,
            "midi": 42,
            "name": "F#2",
            "ticks": 88320,
            "time": 188.53124499999998,
            "velocity": 0.5354330708661418
          },
          {
            "duration": 0.2474228000000096,
            "durationTicks": 96,
            "midi": 38,
            "name": "D2",
            "ticks": 88320,
            "time": 188.53124499999998,
            "velocity": 0.5354330708661418
          },
          {
            "duration": 0.2474228000000096,
            "durationTicks": 96,
            "midi": 42,
            "name": "F#2",
            "ticks": 88440,
            "time": 188.8405235,
            "velocity": 0.5354330708661418
          },
          {
            "duration": 0.2474228000000096,
            "durationTicks": 96,
            "midi": 54,
            "name": "F#3",
            "ticks": 88440,
            "time": 188.8405235,
            "velocity": 0.5354330708661418
          },
          {
            "duration": 0.2474228000000096,
            "durationTicks": 96,
            "midi": 42,
            "name": "F#2",
            "ticks": 88560,
            "time": 189.149802,
            "velocity": 0.47244094488188976
          },
          {
            "duration": 0.2474228000000096,
            "durationTicks": 96,
            "midi": 36,
            "name": "C2",
            "ticks": 88560,
            "time": 189.149802,
            "velocity": 0.47244094488188976
          },
          {
            "duration": 0.2474228000000096,
            "durationTicks": 96,
            "midi": 59,
            "name": "B3",
            "ticks": 88560,
            "time": 189.149802,
            "velocity": 0.47244094488188976
          },
          {
            "duration": 0.2474228000000096,
            "durationTicks": 96,
            "midi": 42,
            "name": "F#2",
            "ticks": 88680,
            "time": 189.45908049999997,
            "velocity": 0.47244094488188976
          },
          {
            "duration": 0.2474228000000096,
            "durationTicks": 96,
            "midi": 60,
            "name": "C4",
            "ticks": 88680,
            "time": 189.45908049999997,
            "velocity": 0.47244094488188976
          },
          {
            "duration": 0.2474228000000096,
            "durationTicks": 96,
            "midi": 36,
            "name": "C2",
            "ticks": 88800,
            "time": 189.76835899999998,
            "velocity": 0.47244094488188976
          },
          {
            "duration": 0.2474228000000096,
            "durationTicks": 96,
            "midi": 42,
            "name": "F#2",
            "ticks": 88800,
            "time": 189.76835899999998,
            "velocity": 0.47244094488188976
          },
          {
            "duration": 0.2474228000000096,
            "durationTicks": 96,
            "midi": 38,
            "name": "D2",
            "ticks": 88800,
            "time": 189.76835899999998,
            "velocity": 0.47244094488188976
          },
          {
            "duration": 0.2474228000000096,
            "durationTicks": 96,
            "midi": 36,
            "name": "C2",
            "ticks": 88920,
            "time": 190.07763749999998,
            "velocity": 0.47244094488188976
          },
          {
            "duration": 0.2474228000000096,
            "durationTicks": 96,
            "midi": 42,
            "name": "F#2",
            "ticks": 88920,
            "time": 190.07763749999998,
            "velocity": 0.47244094488188976
          },
          {
            "duration": 0.2474228000000096,
            "durationTicks": 96,
            "midi": 54,
            "name": "F#3",
            "ticks": 88920,
            "time": 190.07763749999998,
            "velocity": 0.47244094488188976
          },
          {
            "duration": 0.2474228000000096,
            "durationTicks": 96,
            "midi": 50,
            "name": "D3",
            "ticks": 89040,
            "time": 190.38691599999999,
            "velocity": 0.47244094488188976
          },
          {
            "duration": 0.2474228000000096,
            "durationTicks": 96,
            "midi": 42,
            "name": "F#2",
            "ticks": 89040,
            "time": 190.38691599999999,
            "velocity": 0.47244094488188976
          },
          {
            "duration": 0.2474228000000096,
            "durationTicks": 96,
            "midi": 36,
            "name": "C2",
            "ticks": 89040,
            "time": 190.38691599999999,
            "velocity": 0.47244094488188976
          },
          {
            "duration": 0.2474228000000096,
            "durationTicks": 96,
            "midi": 59,
            "name": "B3",
            "ticks": 89040,
            "time": 190.38691599999999,
            "velocity": 0.47244094488188976
          },
          {
            "duration": 0.24742279999998118,
            "durationTicks": 96,
            "midi": 48,
            "name": "C3",
            "ticks": 89160,
            "time": 190.6961945,
            "velocity": 0.47244094488188976
          },
          {
            "duration": 0.24742279999998118,
            "durationTicks": 96,
            "midi": 36,
            "name": "C2",
            "ticks": 89160,
            "time": 190.6961945,
            "velocity": 0.47244094488188976
          },
          {
            "duration": 0.24742279999998118,
            "durationTicks": 96,
            "midi": 42,
            "name": "F#2",
            "ticks": 89160,
            "time": 190.6961945,
            "velocity": 0.47244094488188976
          },
          {
            "duration": 0.24742279999998118,
            "durationTicks": 96,
            "midi": 60,
            "name": "C4",
            "ticks": 89160,
            "time": 190.6961945,
            "velocity": 0.47244094488188976
          },
          {
            "duration": 0.24742279999998118,
            "durationTicks": 96,
            "midi": 48,
            "name": "C3",
            "ticks": 89280,
            "time": 191.005473,
            "velocity": 0.47244094488188976
          },
          {
            "duration": 0.24742279999998118,
            "durationTicks": 96,
            "midi": 36,
            "name": "C2",
            "ticks": 89280,
            "time": 191.005473,
            "velocity": 0.47244094488188976
          },
          {
            "duration": 0.24742279999998118,
            "durationTicks": 96,
            "midi": 42,
            "name": "F#2",
            "ticks": 89280,
            "time": 191.005473,
            "velocity": 0.47244094488188976
          },
          {
            "duration": 0.24742279999998118,
            "durationTicks": 96,
            "midi": 38,
            "name": "D2",
            "ticks": 89280,
            "time": 191.005473,
            "velocity": 0.47244094488188976
          },
          {
            "duration": 0.24742279999998118,
            "durationTicks": 96,
            "midi": 45,
            "name": "A2",
            "ticks": 89400,
            "time": 191.3147515,
            "velocity": 0.47244094488188976
          },
          {
            "duration": 0.24742279999998118,
            "durationTicks": 96,
            "midi": 36,
            "name": "C2",
            "ticks": 89400,
            "time": 191.3147515,
            "velocity": 0.47244094488188976
          },
          {
            "duration": 0.24742279999998118,
            "durationTicks": 96,
            "midi": 42,
            "name": "F#2",
            "ticks": 89400,
            "time": 191.3147515,
            "velocity": 0.47244094488188976
          },
          {
            "duration": 0.24742279999998118,
            "durationTicks": 96,
            "midi": 54,
            "name": "F#3",
            "ticks": 89400,
            "time": 191.3147515,
            "velocity": 0.47244094488188976
          },
          {
            "duration": 0.24742279999998118,
            "durationTicks": 96,
            "midi": 42,
            "name": "F#2",
            "ticks": 89520,
            "time": 191.62403,
            "velocity": 0.3779527559055118
          },
          {
            "duration": 0.24742279999998118,
            "durationTicks": 96,
            "midi": 36,
            "name": "C2",
            "ticks": 89520,
            "time": 191.62403,
            "velocity": 0.3779527559055118
          },
          {
            "duration": 0.24742279999998118,
            "durationTicks": 96,
            "midi": 59,
            "name": "B3",
            "ticks": 89520,
            "time": 191.62403,
            "velocity": 0.3779527559055118
          },
          {
            "duration": 0.2474228000000096,
            "durationTicks": 96,
            "midi": 42,
            "name": "F#2",
            "ticks": 89640,
            "time": 191.93330849999998,
            "velocity": 0.3779527559055118
          },
          {
            "duration": 0.2474228000000096,
            "durationTicks": 96,
            "midi": 60,
            "name": "C4",
            "ticks": 89640,
            "time": 191.93330849999998,
            "velocity": 0.3779527559055118
          },
          {
            "duration": 0.2474228000000096,
            "durationTicks": 96,
            "midi": 42,
            "name": "F#2",
            "ticks": 89760,
            "time": 192.242587,
            "velocity": 0.3779527559055118
          },
          {
            "duration": 0.2474228000000096,
            "durationTicks": 96,
            "midi": 38,
            "name": "D2",
            "ticks": 89760,
            "time": 192.242587,
            "velocity": 0.3779527559055118
          },
          {
            "duration": 0.2474228000000096,
            "durationTicks": 96,
            "midi": 54,
            "name": "F#3",
            "ticks": 89880,
            "time": 192.5518655,
            "velocity": 0.3779527559055118
          },
          {
            "duration": 0.2474228000000096,
            "durationTicks": 96,
            "midi": 42,
            "name": "F#2",
            "ticks": 89880,
            "time": 192.5518655,
            "velocity": 0.3779527559055118
          },
          {
            "duration": 0.24742279999998118,
            "durationTicks": 96,
            "midi": 59,
            "name": "B3",
            "ticks": 90000,
            "time": 192.861144,
            "velocity": 0.3779527559055118
          },
          {
            "duration": 0.24742279999998118,
            "durationTicks": 96,
            "midi": 42,
            "name": "F#2",
            "ticks": 90000,
            "time": 192.861144,
            "velocity": 0.3779527559055118
          },
          {
            "duration": 0.24742279999998118,
            "durationTicks": 96,
            "midi": 36,
            "name": "C2",
            "ticks": 90000,
            "time": 192.861144,
            "velocity": 0.3779527559055118
          },
          {
            "duration": 0.2474228000000096,
            "durationTicks": 96,
            "midi": 60,
            "name": "C4",
            "ticks": 90120,
            "time": 193.17042249999997,
            "velocity": 0.3779527559055118
          },
          {
            "duration": 0.2474228000000096,
            "durationTicks": 96,
            "midi": 42,
            "name": "F#2",
            "ticks": 90120,
            "time": 193.17042249999997,
            "velocity": 0.3779527559055118
          },
          {
            "duration": 0.2474228000000096,
            "durationTicks": 96,
            "midi": 42,
            "name": "F#2",
            "ticks": 90240,
            "time": 193.47970099999998,
            "velocity": 0.3779527559055118
          },
          {
            "duration": 0.2474228000000096,
            "durationTicks": 96,
            "midi": 38,
            "name": "D2",
            "ticks": 90240,
            "time": 193.47970099999998,
            "velocity": 0.3779527559055118
          },
          {
            "duration": 0.2474228000000096,
            "durationTicks": 96,
            "midi": 54,
            "name": "F#3",
            "ticks": 90360,
            "time": 193.78897949999998,
            "velocity": 0.3779527559055118
          },
          {
            "duration": 0.2474228000000096,
            "durationTicks": 96,
            "midi": 42,
            "name": "F#2",
            "ticks": 90360,
            "time": 193.78897949999998,
            "velocity": 0.3779527559055118
          },
          {
            "duration": 0.2474228000000096,
            "durationTicks": 96,
            "midi": 59,
            "name": "B3",
            "ticks": 90480,
            "time": 194.098258,
            "velocity": 0.33858267716535434
          },
          {
            "duration": 0.2474228000000096,
            "durationTicks": 96,
            "midi": 36,
            "name": "C2",
            "ticks": 90480,
            "time": 194.098258,
            "velocity": 0.33858267716535434
          },
          {
            "duration": 0.2474228000000096,
            "durationTicks": 96,
            "midi": 42,
            "name": "F#2",
            "ticks": 90480,
            "time": 194.098258,
            "velocity": 0.33858267716535434
          },
          {
            "duration": 0.24742279999998118,
            "durationTicks": 96,
            "midi": 60,
            "name": "C4",
            "ticks": 90600,
            "time": 194.4075365,
            "velocity": 0.33858267716535434
          },
          {
            "duration": 0.24742279999998118,
            "durationTicks": 96,
            "midi": 42,
            "name": "F#2",
            "ticks": 90600,
            "time": 194.4075365,
            "velocity": 0.33858267716535434
          },
          {
            "duration": 0.24742279999998118,
            "durationTicks": 96,
            "midi": 38,
            "name": "D2",
            "ticks": 90720,
            "time": 194.716815,
            "velocity": 0.33858267716535434
          },
          {
            "duration": 0.24742279999998118,
            "durationTicks": 96,
            "midi": 42,
            "name": "F#2",
            "ticks": 90720,
            "time": 194.716815,
            "velocity": 0.33858267716535434
          },
          {
            "duration": 0.24742279999998118,
            "durationTicks": 96,
            "midi": 42,
            "name": "F#2",
            "ticks": 90840,
            "time": 195.0260935,
            "velocity": 0.33858267716535434
          },
          {
            "duration": 0.24742279999998118,
            "durationTicks": 96,
            "midi": 54,
            "name": "F#3",
            "ticks": 90840,
            "time": 195.0260935,
            "velocity": 0.33858267716535434
          },
          {
            "duration": 0.2474228000000096,
            "durationTicks": 96,
            "midi": 36,
            "name": "C2",
            "ticks": 90960,
            "time": 195.33537199999998,
            "velocity": 0.33858267716535434
          },
          {
            "duration": 0.2474228000000096,
            "durationTicks": 96,
            "midi": 42,
            "name": "F#2",
            "ticks": 90960,
            "time": 195.33537199999998,
            "velocity": 0.33858267716535434
          },
          {
            "duration": 0.2474228000000096,
            "durationTicks": 96,
            "midi": 59,
            "name": "B3",
            "ticks": 90960,
            "time": 195.33537199999998,
            "velocity": 0.33858267716535434
          },
          {
            "duration": 0.2474228000000096,
            "durationTicks": 96,
            "midi": 42,
            "name": "F#2",
            "ticks": 91080,
            "time": 195.64465049999998,
            "velocity": 0.33858267716535434
          },
          {
            "duration": 0.2474228000000096,
            "durationTicks": 96,
            "midi": 60,
            "name": "C4",
            "ticks": 91080,
            "time": 195.64465049999998,
            "velocity": 0.33858267716535434
          },
          {
            "duration": 0.2474228000000096,
            "durationTicks": 96,
            "midi": 38,
            "name": "D2",
            "ticks": 91200,
            "time": 195.953929,
            "velocity": 0.33858267716535434
          },
          {
            "duration": 0.2474228000000096,
            "durationTicks": 96,
            "midi": 42,
            "name": "F#2",
            "ticks": 91200,
            "time": 195.953929,
            "velocity": 0.33858267716535434
          },
          {
            "duration": 0.2474228000000096,
            "durationTicks": 96,
            "midi": 42,
            "name": "F#2",
            "ticks": 91320,
            "time": 196.2632075,
            "velocity": 0.33858267716535434
          },
          {
            "duration": 0.2474228000000096,
            "durationTicks": 96,
            "midi": 54,
            "name": "F#3",
            "ticks": 91320,
            "time": 196.2632075,
            "velocity": 0.33858267716535434
          },
          {
            "duration": 0.24742280000003802,
            "durationTicks": 96,
            "midi": 59,
            "name": "B3",
            "ticks": 91440,
            "time": 196.57248599999997,
            "velocity": 0.3228346456692913
          },
          {
            "duration": 0.24742280000003802,
            "durationTicks": 96,
            "midi": 36,
            "name": "C2",
            "ticks": 91440,
            "time": 196.57248599999997,
            "velocity": 0.3228346456692913
          },
          {
            "duration": 0.24742280000003802,
            "durationTicks": 96,
            "midi": 42,
            "name": "F#2",
            "ticks": 91440,
            "time": 196.57248599999997,
            "velocity": 0.3228346456692913
          },
          {
            "duration": 0.2474228000000096,
            "durationTicks": 96,
            "midi": 60,
            "name": "C4",
            "ticks": 91560,
            "time": 196.88176449999997,
            "velocity": 0.36220472440944884
          },
          {
            "duration": 0.2474228000000096,
            "durationTicks": 96,
            "midi": 42,
            "name": "F#2",
            "ticks": 91560,
            "time": 196.88176449999997,
            "velocity": 0.36220472440944884
          },
          {
            "duration": 0.2474228000000096,
            "durationTicks": 96,
            "midi": 38,
            "name": "D2",
            "ticks": 91680,
            "time": 197.19104299999998,
            "velocity": 0.36220472440944884
          },
          {
            "duration": 0.2474228000000096,
            "durationTicks": 96,
            "midi": 42,
            "name": "F#2",
            "ticks": 91680,
            "time": 197.19104299999998,
            "velocity": 0.36220472440944884
          },
          {
            "duration": 0.2474228000000096,
            "durationTicks": 96,
            "midi": 54,
            "name": "F#3",
            "ticks": 91800,
            "time": 197.50032149999998,
            "velocity": 0.36220472440944884
          },
          {
            "duration": 0.2474228000000096,
            "durationTicks": 96,
            "midi": 42,
            "name": "F#2",
            "ticks": 91800,
            "time": 197.50032149999998,
            "velocity": 0.36220472440944884
          },
          {
            "duration": 0.2474228000000096,
            "durationTicks": 96,
            "midi": 59,
            "name": "B3",
            "ticks": 91920,
            "time": 197.8096,
            "velocity": 0.36220472440944884
          },
          {
            "duration": 0.2474228000000096,
            "durationTicks": 96,
            "midi": 36,
            "name": "C2",
            "ticks": 91920,
            "time": 197.8096,
            "velocity": 0.36220472440944884
          },
          {
            "duration": 0.2474228000000096,
            "durationTicks": 96,
            "midi": 42,
            "name": "F#2",
            "ticks": 91920,
            "time": 197.8096,
            "velocity": 0.36220472440944884
          },
          {
            "duration": 0.24742279999998118,
            "durationTicks": 96,
            "midi": 60,
            "name": "C4",
            "ticks": 92040,
            "time": 198.1188785,
            "velocity": 0.36220472440944884
          },
          {
            "duration": 0.24742279999998118,
            "durationTicks": 96,
            "midi": 42,
            "name": "F#2",
            "ticks": 92040,
            "time": 198.1188785,
            "velocity": 0.36220472440944884
          },
          {
            "duration": 0.24742279999998118,
            "durationTicks": 96,
            "midi": 38,
            "name": "D2",
            "ticks": 92160,
            "time": 198.428157,
            "velocity": 0.36220472440944884
          },
          {
            "duration": 0.24742279999998118,
            "durationTicks": 96,
            "midi": 42,
            "name": "F#2",
            "ticks": 92160,
            "time": 198.428157,
            "velocity": 0.36220472440944884
          },
          {
            "duration": 0.24742279999998118,
            "durationTicks": 96,
            "midi": 54,
            "name": "F#3",
            "ticks": 92280,
            "time": 198.7374355,
            "velocity": 0.36220472440944884
          },
          {
            "duration": 0.24742279999998118,
            "durationTicks": 96,
            "midi": 42,
            "name": "F#2",
            "ticks": 92280,
            "time": 198.7374355,
            "velocity": 0.36220472440944884
          },
          {
            "duration": 0.2474228000000096,
            "durationTicks": 96,
            "midi": 42,
            "name": "F#2",
            "ticks": 92400,
            "time": 199.04671399999998,
            "velocity": 0.2755905511811024
          },
          {
            "duration": 0.2474228000000096,
            "durationTicks": 96,
            "midi": 36,
            "name": "C2",
            "ticks": 92400,
            "time": 199.04671399999998,
            "velocity": 0.2755905511811024
          },
          {
            "duration": 0.2474228000000096,
            "durationTicks": 96,
            "midi": 59,
            "name": "B3",
            "ticks": 92400,
            "time": 199.04671399999998,
            "velocity": 0.2755905511811024
          },
          {
            "duration": 0.2474228000000096,
            "durationTicks": 96,
            "midi": 42,
            "name": "F#2",
            "ticks": 92520,
            "time": 199.35599249999999,
            "velocity": 0.2755905511811024
          },
          {
            "duration": 0.2474228000000096,
            "durationTicks": 96,
            "midi": 60,
            "name": "C4",
            "ticks": 92520,
            "time": 199.35599249999999,
            "velocity": 0.2755905511811024
          },
          {
            "duration": 0.2474228000000096,
            "durationTicks": 96,
            "midi": 42,
            "name": "F#2",
            "ticks": 92640,
            "time": 199.665271,
            "velocity": 0.2755905511811024
          },
          {
            "duration": 0.2474228000000096,
            "durationTicks": 96,
            "midi": 38,
            "name": "D2",
            "ticks": 92640,
            "time": 199.665271,
            "velocity": 0.2755905511811024
          },
          {
            "duration": 0.2474228000000096,
            "durationTicks": 96,
            "midi": 42,
            "name": "F#2",
            "ticks": 92760,
            "time": 199.9745495,
            "velocity": 0.2755905511811024
          },
          {
            "duration": 0.2474228000000096,
            "durationTicks": 96,
            "midi": 54,
            "name": "F#3",
            "ticks": 92760,
            "time": 199.9745495,
            "velocity": 0.2755905511811024
          },
          {
            "duration": 0.2474228000000096,
            "durationTicks": 96,
            "midi": 42,
            "name": "F#2",
            "ticks": 92880,
            "time": 200.28382799999997,
            "velocity": 0.2755905511811024
          },
          {
            "duration": 0.2474228000000096,
            "durationTicks": 96,
            "midi": 36,
            "name": "C2",
            "ticks": 92880,
            "time": 200.28382799999997,
            "velocity": 0.2755905511811024
          },
          {
            "duration": 0.2474228000000096,
            "durationTicks": 96,
            "midi": 59,
            "name": "B3",
            "ticks": 92880,
            "time": 200.28382799999997,
            "velocity": 0.2755905511811024
          },
          {
            "duration": 0.2474228000000096,
            "durationTicks": 96,
            "midi": 42,
            "name": "F#2",
            "ticks": 93000,
            "time": 200.59310649999998,
            "velocity": 0.2755905511811024
          },
          {
            "duration": 0.2474228000000096,
            "durationTicks": 96,
            "midi": 60,
            "name": "C4",
            "ticks": 93000,
            "time": 200.59310649999998,
            "velocity": 0.2755905511811024
          },
          {
            "duration": 0.2474228000000096,
            "durationTicks": 96,
            "midi": 42,
            "name": "F#2",
            "ticks": 93120,
            "time": 200.90238499999998,
            "velocity": 0.2755905511811024
          },
          {
            "duration": 0.2474228000000096,
            "durationTicks": 96,
            "midi": 38,
            "name": "D2",
            "ticks": 93120,
            "time": 200.90238499999998,
            "velocity": 0.2755905511811024
          },
          {
            "duration": 0.2474228000000096,
            "durationTicks": 96,
            "midi": 42,
            "name": "F#2",
            "ticks": 93240,
            "time": 201.2116635,
            "velocity": 0.2755905511811024
          },
          {
            "duration": 0.2474228000000096,
            "durationTicks": 96,
            "midi": 54,
            "name": "F#3",
            "ticks": 93240,
            "time": 201.2116635,
            "velocity": 0.2755905511811024
          },
          {
            "duration": 0.2474228000000096,
            "durationTicks": 96,
            "midi": 42,
            "name": "F#2",
            "ticks": 93360,
            "time": 201.520942,
            "velocity": 0.18110236220472442
          },
          {
            "duration": 0.2474228000000096,
            "durationTicks": 96,
            "midi": 36,
            "name": "C2",
            "ticks": 93360,
            "time": 201.520942,
            "velocity": 0.18110236220472442
          },
          {
            "duration": 0.2474228000000096,
            "durationTicks": 96,
            "midi": 59,
            "name": "B3",
            "ticks": 93360,
            "time": 201.520942,
            "velocity": 0.18110236220472442
          },
          {
            "duration": 0.24742279999998118,
            "durationTicks": 96,
            "midi": 42,
            "name": "F#2",
            "ticks": 93480,
            "time": 201.8302205,
            "velocity": 0.18110236220472442
          },
          {
            "duration": 0.24742279999998118,
            "durationTicks": 96,
            "midi": 60,
            "name": "C4",
            "ticks": 93480,
            "time": 201.8302205,
            "velocity": 0.18110236220472442
          },
          {
            "duration": 0.24742279999998118,
            "durationTicks": 96,
            "midi": 42,
            "name": "F#2",
            "ticks": 93600,
            "time": 202.139499,
            "velocity": 0.18110236220472442
          },
          {
            "duration": 0.24742279999998118,
            "durationTicks": 96,
            "midi": 38,
            "name": "D2",
            "ticks": 93600,
            "time": 202.139499,
            "velocity": 0.18110236220472442
          },
          {
            "duration": 0.2474228000000096,
            "durationTicks": 96,
            "midi": 42,
            "name": "F#2",
            "ticks": 93720,
            "time": 202.44877749999998,
            "velocity": 0.18110236220472442
          },
          {
            "duration": 0.2474228000000096,
            "durationTicks": 96,
            "midi": 54,
            "name": "F#3",
            "ticks": 93720,
            "time": 202.44877749999998,
            "velocity": 0.18110236220472442
          },
          {
            "duration": 0.2474228000000096,
            "durationTicks": 96,
            "midi": 42,
            "name": "F#2",
            "ticks": 93840,
            "time": 202.75805599999998,
            "velocity": 0.18110236220472442
          },
          {
            "duration": 0.2474228000000096,
            "durationTicks": 96,
            "midi": 36,
            "name": "C2",
            "ticks": 93840,
            "time": 202.75805599999998,
            "velocity": 0.18110236220472442
          },
          {
            "duration": 0.2474228000000096,
            "durationTicks": 96,
            "midi": 59,
            "name": "B3",
            "ticks": 93840,
            "time": 202.75805599999998,
            "velocity": 0.18110236220472442
          },
          {
            "duration": 0.2474228000000096,
            "durationTicks": 96,
            "midi": 42,
            "name": "F#2",
            "ticks": 93960,
            "time": 203.0673345,
            "velocity": 0.14173228346456693
          },
          {
            "duration": 0.2474228000000096,
            "durationTicks": 96,
            "midi": 60,
            "name": "C4",
            "ticks": 93960,
            "time": 203.0673345,
            "velocity": 0.14173228346456693
          },
          {
            "duration": 0.2474228000000096,
            "durationTicks": 96,
            "midi": 42,
            "name": "F#2",
            "ticks": 94080,
            "time": 203.376613,
            "velocity": 0.14173228346456693
          },
          {
            "duration": 0.2474228000000096,
            "durationTicks": 96,
            "midi": 38,
            "name": "D2",
            "ticks": 94080,
            "time": 203.376613,
            "velocity": 0.14173228346456693
          },
          {
            "duration": 0.2474228000000096,
            "durationTicks": 96,
            "midi": 42,
            "name": "F#2",
            "ticks": 94200,
            "time": 203.6858915,
            "velocity": 0.14173228346456693
          },
          {
            "duration": 0.2474228000000096,
            "durationTicks": 96,
            "midi": 54,
            "name": "F#3",
            "ticks": 94200,
            "time": 203.6858915,
            "velocity": 0.14173228346456693
          }
        ],
        "endOfTrackTicks": 94296
      }
    ]
  }