{
  "header": {
    "keySignatures": [
      {
        "key": "A",
        "scale": "major",
        "ticks": 0
      }
    ],
    "meta": [
      {
        "text": "my foolish heart         ",
        "ticks": 0,
        "type": "marker"
      },
      {
        "text": "Untitled",
        "ticks": 0,
        "type": "marker"
      }
    ],
    "name": "",
    "ppq": 480,
    "tempos": [
      {
        "bpm": 64.99999458333379,
        "ticks": 0
      },
      {
        "bpm": 64.99999458333379,
        "ticks": 132480
      },
      {
        "bpm": 64.99999458333379,
        "ticks": 132480
      }
    ],
    "timeSignatures": [
      {
        "ticks": 0,
        "timeSignature": [
          4,
          4
        ],
        "measures": 0
      }
    ]
  },
  "tracks": [
    {
      "channel": 0,
      "controlChanges": {
        "0": [
          {
            "number": 0,
            "ticks": 0,
            "time": 0,
            "value": 0
          },
          {
            "number": 0,
            "ticks": 1680,
            "time": 3.2307694999999996,
            "value": 0
          }
        ],
        "7": [
          {
            "number": 7,
            "ticks": 0,
            "time": 0,
            "value": 0.8661417322834646
          },
          {
            "number": 7,
            "ticks": 0,
            "time": 0,
            "value": 0.8661417322834646
          },
          {
            "number": 7,
            "ticks": 130560,
            "time": 251.07694399999997,
            "value": 0.8661417322834646
          }
        ],
        "10": [
          {
            "number": 10,
            "ticks": 0,
            "time": 0,
            "value": 0.5905511811023622
          },
          {
            "number": 10,
            "ticks": 0,
            "time": 0,
            "value": 0.5905511811023622
          },
          {
            "number": 10,
            "ticks": 130560,
            "time": 251.07694399999997,
            "value": 0.5905511811023622
          }
        ],
        "32": [
          {
            "number": 32,
            "ticks": 0,
            "time": 0,
            "value": 0
          },
          {
            "number": 32,
            "ticks": 1680,
            "time": 3.2307694999999996,
            "value": 0
          }
        ],
        "64": [
          {
            "number": 64,
            "ticks": 1300,
            "time": 2.5000002083333333,
            "value": 1
          },
          {
            "number": 64,
            "ticks": 3820,
            "time": 7.3461544583333325,
            "value": 0
          },
          {
            "number": 64,
            "ticks": 5760,
            "time": 11.076923999999998,
            "value": 1
          },
          {
            "number": 64,
            "ticks": 7660,
            "time": 14.730770458333332,
            "value": 0
          },
          {
            "number": 64,
            "ticks": 7680,
            "time": 14.769231999999999,
            "value": 1
          },
          {
            "number": 64,
            "ticks": 9580,
            "time": 18.423078458333332,
            "value": 0
          },
          {
            "number": 64,
            "ticks": 9620,
            "time": 18.500001541666666,
            "value": 1
          },
          {
            "number": 64,
            "ticks": 11480,
            "time": 22.076924916666666,
            "value": 0
          },
          {
            "number": 64,
            "ticks": 11520,
            "time": 22.153847999999996,
            "value": 1
          },
          {
            "number": 64,
            "ticks": 13168,
            "time": 25.323079033333332,
            "value": 0
          },
          {
            "number": 64,
            "ticks": 13440,
            "time": 25.846155999999997,
            "value": 1
          },
          {
            "number": 64,
            "ticks": 15320,
            "time": 29.461540916666664,
            "value": 0
          },
          {
            "number": 64,
            "ticks": 15360,
            "time": 29.538463999999998,
            "value": 1
          },
          {
            "number": 64,
            "ticks": 17296,
            "time": 33.261541233333325,
            "value": 1
          },
          {
            "number": 64,
            "ticks": 19192,
            "time": 36.90769538333333,
            "value": 0
          },
          {
            "number": 64,
            "ticks": 30740,
            "time": 59.115389541666666,
            "value": 1
          },
          {
            "number": 64,
            "ticks": 32552,
            "time": 62.60000521666666,
            "value": 0
          },
          {
            "number": 64,
            "ticks": 127220,
            "time": 244.65386654166667,
            "value": 1
          }
        ],
        "91": [
          {
            "number": 91,
            "ticks": 0,
            "time": 0,
            "value": 0.10236220472440945
          },
          {
            "number": 91,
            "ticks": 0,
            "time": 0,
            "value": 0.10236220472440945
          }
        ],
        "93": [
          {
            "number": 93,
            "ticks": 0,
            "time": 0,
            "value": 0.05511811023622047
          },
          {
            "number": 93,
            "ticks": 0,
            "time": 0,
            "value": 0.05511811023622047
          }
        ]
      },
      "pitchBends": [
        {
          "ticks": 240,
          "time": 0.46153849999999996,
          "value": 0
        }
      ],
      "instrument": {
        "family": "piano",
        "number": 0,
        "name": "acoustic grand piano"
      },
      "name": "Solo/Right",
      "notes": [
        {
          "duration": 0.4846154250000003,
          "durationTicks": 252,
          "midi": 76,
          "name": "E5",
          "ticks": 1680,
          "time": 3.2307694999999996,
          "velocity": 0.3543307086614173
        },
        {
          "duration": 2.7692309999999996,
          "durationTicks": 1440,
          "midi": 76,
          "name": "E5",
          "ticks": 1960,
          "time": 3.7692310833333327,
          "velocity": 0.5354330708661418
        },
        {
          "duration": 0.2307692500000007,
          "durationTicks": 120,
          "midi": 69,
          "name": "A4",
          "ticks": 3480,
          "time": 6.692308249999999,
          "velocity": 0.5196850393700787
        },
        {
          "duration": 0.23076924999999981,
          "durationTicks": 120,
          "midi": 73,
          "name": "C#5",
          "ticks": 3600,
          "time": 6.9230775,
          "velocity": 0.3858267716535433
        },
        {
          "duration": 0.23076924999999981,
          "durationTicks": 120,
          "midi": 76,
          "name": "E5",
          "ticks": 3720,
          "time": 7.15384675,
          "velocity": 0.3700787401574803
        },
        {
          "duration": 1.0692308583333325,
          "durationTicks": 556,
          "midi": 78,
          "name": "F#5",
          "ticks": 3840,
          "time": 7.384615999999999,
          "velocity": 0.5118110236220472
        },
        {
          "duration": 0.2307692500000016,
          "durationTicks": 120,
          "midi": 80,
          "name": "G#5",
          "ticks": 4400,
          "time": 8.461539166666665,
          "velocity": 0.5511811023622047
        },
        {
          "duration": 1.684615525,
          "durationTicks": 876,
          "midi": 78,
          "name": "F#5",
          "ticks": 4520,
          "time": 8.692308416666666,
          "velocity": 0.4330708661417323
        },
        {
          "duration": 0.41538465,
          "durationTicks": 216,
          "midi": 78,
          "name": "F#5",
          "ticks": 5520,
          "time": 10.615385499999999,
          "velocity": 0.48031496062992124
        },
        {
          "duration": 1.3000001083333341,
          "durationTicks": 676,
          "midi": 78,
          "name": "F#5",
          "ticks": 5760,
          "time": 11.076923999999998,
          "velocity": 0.5039370078740157
        },
        {
          "duration": 0.9230769999999993,
          "durationTicks": 480,
          "midi": 71,
          "name": "B4",
          "ticks": 6360,
          "time": 12.230770249999999,
          "velocity": 0.48031496062992124
        },
        {
          "duration": 0.923077000000001,
          "durationTicks": 480,
          "midi": 74,
          "name": "D5",
          "ticks": 6840,
          "time": 13.153847249999998,
          "velocity": 0.5275590551181102
        },
        {
          "duration": 0.6923077499999994,
          "durationTicks": 360,
          "midi": 78,
          "name": "F#5",
          "ticks": 7320,
          "time": 14.07692425,
          "velocity": 0.4566929133858268
        },
        {
          "duration": 1.153846249999999,
          "durationTicks": 600,
          "midi": 80,
          "name": "G#5",
          "ticks": 7680,
          "time": 14.769231999999999,
          "velocity": 0.5118110236220472
        },
        {
          "duration": 2.000000166666668,
          "durationTicks": 1040,
          "midi": 71,
          "name": "B4",
          "ticks": 8280,
          "time": 15.923078249999998,
          "velocity": 0.5669291338582677
        },
        {
          "duration": 0.15384616666666773,
          "durationTicks": 80,
          "midi": 69,
          "name": "A4",
          "ticks": 9360,
          "time": 18.0000015,
          "velocity": 0.6377952755905512
        },
        {
          "duration": 0.15384616666666417,
          "durationTicks": 80,
          "midi": 68,
          "name": "G#4",
          "ticks": 9440,
          "time": 18.153847666666667,
          "velocity": 0.5196850393700787
        },
        {
          "duration": 0.15384616666666773,
          "durationTicks": 80,
          "midi": 66,
          "name": "F#4",
          "ticks": 9520,
          "time": 18.30769383333333,
          "velocity": 0.4330708661417323
        },
        {
          "duration": 1.6846155249999981,
          "durationTicks": 876,
          "midi": 68,
          "name": "G#4",
          "ticks": 9600,
          "time": 18.46154,
          "velocity": 0.5118110236220472
        },
        {
          "duration": 0.7692308333333315,
          "durationTicks": 400,
          "midi": 68,
          "name": "G#4",
          "ticks": 10520,
          "time": 20.230770916666668,
          "velocity": 0.5905511811023622
        },
        {
          "duration": 0.6923077500000012,
          "durationTicks": 360,
          "midi": 73,
          "name": "C#5",
          "ticks": 10560,
          "time": 20.307693999999998,
          "velocity": 0.6929133858267716
        },
        {
          "duration": 0.45384619166666695,
          "durationTicks": 236,
          "midi": 76,
          "name": "E5",
          "ticks": 10880,
          "time": 20.923078666666665,
          "velocity": 0.7086614173228346
        },
        {
          "duration": 0.7615385249999989,
          "durationTicks": 396,
          "midi": 80,
          "name": "G#5",
          "ticks": 11120,
          "time": 21.384617166666665,
          "velocity": 0.5826771653543307
        },
        {
          "duration": 1.2307693333333347,
          "durationTicks": 640,
          "midi": 69,
          "name": "A4",
          "ticks": 11560,
          "time": 22.23077108333333,
          "velocity": 0.47244094488188976
        },
        {
          "duration": 1.1538462500000009,
          "durationTicks": 600,
          "midi": 73,
          "name": "C#5",
          "ticks": 11560,
          "time": 22.23077108333333,
          "velocity": 0.47244094488188976
        },
        {
          "duration": 1.0000000833333367,
          "durationTicks": 520,
          "midi": 81,
          "name": "A5",
          "ticks": 11560,
          "time": 22.23077108333333,
          "velocity": 0.5590551181102362
        },
        {
          "duration": 0.4384615750000016,
          "durationTicks": 228,
          "midi": 83,
          "name": "B5",
          "ticks": 12160,
          "time": 23.38461733333333,
          "velocity": 0.30708661417322836
        },
        {
          "duration": 1.5307693583333304,
          "durationTicks": 796,
          "midi": 69,
          "name": "A4",
          "ticks": 12320,
          "time": 23.692309666666667,
          "velocity": 0.31496062992125984
        },
        {
          "duration": 1.8615386166666639,
          "durationTicks": 968,
          "midi": 73,
          "name": "C#5",
          "ticks": 12320,
          "time": 23.692309666666667,
          "velocity": 0.31496062992125984
        },
        {
          "duration": 1.8615386166666639,
          "durationTicks": 968,
          "midi": 81,
          "name": "A5",
          "ticks": 12320,
          "time": 23.692309666666667,
          "velocity": 0.4881889763779528
        },
        {
          "duration": 0.46153849999999963,
          "durationTicks": 240,
          "midi": 69,
          "name": "A4",
          "ticks": 13200,
          "time": 25.384617499999997,
          "velocity": 0.49606299212598426
        },
        {
          "duration": 2.0000001666666662,
          "durationTicks": 1040,
          "midi": 69,
          "name": "A4",
          "ticks": 13480,
          "time": 25.92307908333333,
          "velocity": 0.5196850393700787
        },
        {
          "duration": 0.9230769999999993,
          "durationTicks": 480,
          "midi": 59,
          "name": "B3",
          "ticks": 14520,
          "time": 27.923079249999997,
          "velocity": 0.6141732283464567
        },
        {
          "duration": 0.2307692500000016,
          "durationTicks": 120,
          "midi": 62,
          "name": "D4",
          "ticks": 15000,
          "time": 28.846156249999996,
          "velocity": 0.5196850393700787
        },
        {
          "duration": 0.23076924999999804,
          "durationTicks": 120,
          "midi": 66,
          "name": "F#4",
          "ticks": 15120,
          "time": 29.076925499999998,
          "velocity": 0.4330708661417323
        },
        {
          "duration": 0.2307692500000016,
          "durationTicks": 120,
          "midi": 69,
          "name": "A4",
          "ticks": 15240,
          "time": 29.307694749999996,
          "velocity": 0.44881889763779526
        },
        {
          "duration": 3.0769233333333332,
          "durationTicks": 1600,
          "midi": 71,
          "name": "B4",
          "ticks": 15360,
          "time": 29.538463999999998,
          "velocity": 0.4566929133858268
        },
        {
          "duration": 0.27692309999999765,
          "durationTicks": 144,
          "midi": 69,
          "name": "A4",
          "ticks": 16960,
          "time": 32.61538733333333,
          "velocity": 0.5590551181102362
        },
        {
          "duration": 0.27692310000000475,
          "durationTicks": 144,
          "midi": 71,
          "name": "B4",
          "ticks": 17120,
          "time": 32.92307966666666,
          "velocity": 0.4881889763779528
        },
        {
          "duration": 0.5692308166666677,
          "durationTicks": 296,
          "midi": 61,
          "name": "C#4",
          "ticks": 17280,
          "time": 33.230771999999995,
          "velocity": 0.5275590551181102
        },
        {
          "duration": 0.5692308166666677,
          "durationTicks": 296,
          "midi": 68,
          "name": "G#4",
          "ticks": 17320,
          "time": 33.307695083333336,
          "velocity": 0.5511811023622047
        },
        {
          "duration": 0.5692308166666677,
          "durationTicks": 296,
          "midi": 73,
          "name": "C#5",
          "ticks": 17320,
          "time": 33.307695083333336,
          "velocity": 0.5511811023622047
        },
        {
          "duration": 2.1846155666666647,
          "durationTicks": 1136,
          "midi": 61,
          "name": "C#4",
          "ticks": 17640,
          "time": 33.92307975,
          "velocity": 0.5196850393700787
        },
        {
          "duration": 2.1846155666666647,
          "durationTicks": 1136,
          "midi": 68,
          "name": "G#4",
          "ticks": 17640,
          "time": 33.92307975,
          "velocity": 0.5196850393700787
        },
        {
          "duration": 2.1846155666666647,
          "durationTicks": 1136,
          "midi": 73,
          "name": "C#5",
          "ticks": 17640,
          "time": 33.92307975,
          "velocity": 0.5196850393700787
        },
        {
          "duration": 0.30769233333332835,
          "durationTicks": 160,
          "midi": 61,
          "name": "C#4",
          "ticks": 18880,
          "time": 36.307695333333335,
          "velocity": 0.5511811023622047
        },
        {
          "duration": 0.30769233333332835,
          "durationTicks": 160,
          "midi": 71,
          "name": "B4",
          "ticks": 18880,
          "time": 36.307695333333335,
          "velocity": 0.5511811023622047
        },
        {
          "duration": 0.15384616666666773,
          "durationTicks": 80,
          "midi": 61,
          "name": "C#4",
          "ticks": 19040,
          "time": 36.61538766666666,
          "velocity": 0.49606299212598426
        },
        {
          "duration": 0.15384616666666773,
          "durationTicks": 80,
          "midi": 66,
          "name": "F#4",
          "ticks": 19040,
          "time": 36.61538766666666,
          "velocity": 0.49606299212598426
        },
        {
          "duration": 0.15384616666666773,
          "durationTicks": 80,
          "midi": 69,
          "name": "A4",
          "ticks": 19040,
          "time": 36.61538766666666,
          "velocity": 0.49606299212598426
        },
        {
          "duration": 0.15384616666666773,
          "durationTicks": 80,
          "midi": 61,
          "name": "C#4",
          "ticks": 19120,
          "time": 36.76923383333333,
          "velocity": 0.5275590551181102
        },
        {
          "duration": 0.15384616666666773,
          "durationTicks": 80,
          "midi": 68,
          "name": "G#4",
          "ticks": 19120,
          "time": 36.76923383333333,
          "velocity": 0.5275590551181102
        },
        {
          "duration": 0.15384616666666773,
          "durationTicks": 80,
          "midi": 71,
          "name": "B4",
          "ticks": 19120,
          "time": 36.76923383333333,
          "velocity": 0.5275590551181102
        },
        {
          "duration": 1.1461539416666682,
          "durationTicks": 596,
          "midi": 66,
          "name": "F#4",
          "ticks": 19200,
          "time": 36.92308,
          "velocity": 0.5669291338582677
        },
        {
          "duration": 1.1461539416666682,
          "durationTicks": 596,
          "midi": 69,
          "name": "A4",
          "ticks": 19200,
          "time": 36.92308,
          "velocity": 0.5748031496062992
        },
        {
          "duration": 1.076923166666667,
          "durationTicks": 560,
          "midi": 73,
          "name": "C#5",
          "ticks": 19240,
          "time": 37.00000308333333,
          "velocity": 0.5275590551181102
        },
        {
          "duration": 0.30769233333332835,
          "durationTicks": 160,
          "midi": 69,
          "name": "A4",
          "ticks": 19840,
          "time": 38.15384933333333,
          "velocity": 0.5039370078740157
        },
        {
          "duration": 0.30769233333332835,
          "durationTicks": 160,
          "midi": 73,
          "name": "C#5",
          "ticks": 19840,
          "time": 38.15384933333333,
          "velocity": 0.5039370078740157
        },
        {
          "duration": 0.30769233333332835,
          "durationTicks": 160,
          "midi": 76,
          "name": "E5",
          "ticks": 19840,
          "time": 38.15384933333333,
          "velocity": 0.5118110236220472
        },
        {
          "duration": 0.30769233333333545,
          "durationTicks": 160,
          "midi": 66,
          "name": "F#4",
          "ticks": 20000,
          "time": 38.46154166666666,
          "velocity": 0.4330708661417323
        },
        {
          "duration": 0.30769233333333545,
          "durationTicks": 160,
          "midi": 69,
          "name": "A4",
          "ticks": 20000,
          "time": 38.46154166666666,
          "velocity": 0.4251968503937008
        },
        {
          "duration": 0.30769233333333545,
          "durationTicks": 160,
          "midi": 73,
          "name": "C#5",
          "ticks": 20000,
          "time": 38.46154166666666,
          "velocity": 0.4251968503937008
        },
        {
          "duration": 1.3846155000000024,
          "durationTicks": 720,
          "midi": 66,
          "name": "F#4",
          "ticks": 20160,
          "time": 38.769234,
          "velocity": 0.41732283464566927
        },
        {
          "duration": 1.3846155000000024,
          "durationTicks": 720,
          "midi": 69,
          "name": "A4",
          "ticks": 20160,
          "time": 38.769234,
          "velocity": 0.41732283464566927
        },
        {
          "duration": 1.3846155000000024,
          "durationTicks": 720,
          "midi": 73,
          "name": "C#5",
          "ticks": 20160,
          "time": 38.769234,
          "velocity": 0.41732283464566927
        },
        {
          "duration": 0.23076924999999449,
          "durationTicks": 120,
          "midi": 71,
          "name": "B4",
          "ticks": 20880,
          "time": 40.1538495,
          "velocity": 0.5433070866141733
        },
        {
          "duration": 0.2307692500000016,
          "durationTicks": 120,
          "midi": 69,
          "name": "A4",
          "ticks": 21000,
          "time": 40.384618749999994,
          "velocity": 0.47244094488188976
        },
        {
          "duration": 0.9692308500000024,
          "durationTicks": 504,
          "midi": 71,
          "name": "B4",
          "ticks": 21160,
          "time": 40.69231108333333,
          "velocity": 0.47244094488188976
        },
        {
          "duration": 1.2307693333333347,
          "durationTicks": 640,
          "midi": 71,
          "name": "B4",
          "ticks": 21680,
          "time": 41.69231116666666,
          "velocity": 0.4015748031496063
        },
        {
          "duration": 1.0769231666666599,
          "durationTicks": 560,
          "midi": 73,
          "name": "C#5",
          "ticks": 22320,
          "time": 42.9230805,
          "velocity": 0.48031496062992124
        },
        {
          "duration": 0.2307692500000016,
          "durationTicks": 120,
          "midi": 71,
          "name": "B4",
          "ticks": 22800,
          "time": 43.8461575,
          "velocity": 0.41732283464566927
        },
        {
          "duration": 0.23076924999999449,
          "durationTicks": 120,
          "midi": 69,
          "name": "A4",
          "ticks": 22920,
          "time": 44.07692675,
          "velocity": 0.3543307086614173
        },
        {
          "duration": 2.646154066666668,
          "durationTicks": 1376,
          "midi": 71,
          "name": "B4",
          "ticks": 23040,
          "time": 44.30769599999999,
          "velocity": 0.4409448818897638
        },
        {
          "duration": 0.2307692500000016,
          "durationTicks": 120,
          "midi": 73,
          "name": "C#5",
          "ticks": 24480,
          "time": 47.076927,
          "velocity": 0.5039370078740157
        },
        {
          "duration": 0.23076924999999449,
          "durationTicks": 120,
          "midi": 71,
          "name": "B4",
          "ticks": 24600,
          "time": 47.30769625,
          "velocity": 0.3779527559055118
        },
        {
          "duration": 0.2307692500000016,
          "durationTicks": 120,
          "midi": 69,
          "name": "A4",
          "ticks": 24720,
          "time": 47.538465499999994,
          "velocity": 0.3779527559055118
        },
        {
          "duration": 0.2307692500000016,
          "durationTicks": 120,
          "midi": 68,
          "name": "G#4",
          "ticks": 24840,
          "time": 47.769234749999995,
          "velocity": 0.44881889763779526
        },
        {
          "duration": 0.6538462083333343,
          "durationTicks": 340,
          "midi": 69,
          "name": "A4",
          "ticks": 24960,
          "time": 48.000004,
          "velocity": 0.3937007874015748
        },
        {
          "duration": 1.1153847083333375,
          "durationTicks": 580,
          "midi": 69,
          "name": "A4",
          "ticks": 25320,
          "time": 48.692311749999995,
          "velocity": 0.3937007874015748
        },
        {
          "duration": 0.9230769999999993,
          "durationTicks": 480,
          "midi": 69,
          "name": "A4",
          "ticks": 25920,
          "time": 49.846157999999996,
          "velocity": 0.4330708661417323
        },
        {
          "duration": 0.2307692500000016,
          "durationTicks": 120,
          "midi": 71,
          "name": "B4",
          "ticks": 26400,
          "time": 50.769234999999995,
          "velocity": 0.5196850393700787
        },
        {
          "duration": 0.2307692500000016,
          "durationTicks": 120,
          "midi": 69,
          "name": "A4",
          "ticks": 26520,
          "time": 51.000004249999996,
          "velocity": 0.25984251968503935
        },
        {
          "duration": 0.23076924999999449,
          "durationTicks": 120,
          "midi": 68,
          "name": "G#4",
          "ticks": 26640,
          "time": 51.2307735,
          "velocity": 0.4251968503937008
        },
        {
          "duration": 0.2307692500000016,
          "durationTicks": 120,
          "midi": 66,
          "name": "F#4",
          "ticks": 26760,
          "time": 51.46154274999999,
          "velocity": 0.4094488188976378
        },
        {
          "duration": 1.2307693333333347,
          "durationTicks": 640,
          "midi": 69,
          "name": "A4",
          "ticks": 26880,
          "time": 51.692311999999994,
          "velocity": 0.4566929133858268
        },
        {
          "duration": 1.8461540000000056,
          "durationTicks": 960,
          "midi": 69,
          "name": "A4",
          "ticks": 27520,
          "time": 52.92308133333333,
          "velocity": 0.48031496062992124
        },
        {
          "duration": 0.30769233333332835,
          "durationTicks": 160,
          "midi": 71,
          "name": "B4",
          "ticks": 28480,
          "time": 54.769235333333334,
          "velocity": 0.47244094488188976
        },
        {
          "duration": 0.30769233333333545,
          "durationTicks": 160,
          "midi": 69,
          "name": "A4",
          "ticks": 28640,
          "time": 55.07692766666666,
          "velocity": 0.4330708661417323
        },
        {
          "duration": 2.2923078833333292,
          "durationTicks": 1192,
          "midi": 61,
          "name": "C#4",
          "ticks": 28800,
          "time": 55.38462,
          "velocity": 0.4251968503937008
        },
        {
          "duration": 2.2846155749999966,
          "durationTicks": 1188,
          "midi": 68,
          "name": "G#4",
          "ticks": 28800,
          "time": 55.38462,
          "velocity": 0.4251968503937008
        },
        {
          "duration": 1.2615385666666725,
          "durationTicks": 656,
          "midi": 61,
          "name": "C#4",
          "ticks": 30000,
          "time": 57.69231249999999,
          "velocity": 0.4330708661417323
        },
        {
          "duration": 0.9153846916666666,
          "durationTicks": 476,
          "midi": 68,
          "name": "G#4",
          "ticks": 30000,
          "time": 57.69231249999999,
          "velocity": 0.4330708661417323
        },
        {
          "duration": 0.22307694166666892,
          "durationTicks": 116,
          "midi": 66,
          "name": "F#4",
          "ticks": 30480,
          "time": 58.61538949999999,
          "velocity": 0.15748031496062992
        },
        {
          "duration": 0.30769233333333545,
          "durationTicks": 160,
          "midi": 64,
          "name": "E4",
          "ticks": 30560,
          "time": 58.76923566666666,
          "velocity": 0.3779527559055118
        },
        {
          "duration": 0.6153846666666709,
          "durationTicks": 320,
          "midi": 61,
          "name": "C#4",
          "ticks": 30720,
          "time": 59.076927999999995,
          "velocity": 0.4094488188976378
        },
        {
          "duration": 0.6153846666666709,
          "durationTicks": 320,
          "midi": 68,
          "name": "G#4",
          "ticks": 30720,
          "time": 59.076927999999995,
          "velocity": 0.4094488188976378
        },
        {
          "duration": 0.4538461916666634,
          "durationTicks": 236,
          "midi": 73,
          "name": "C#5",
          "ticks": 31040,
          "time": 59.692312666666666,
          "velocity": 0.47244094488188976
        },
        {
          "duration": 0.4923077333333339,
          "durationTicks": 256,
          "midi": 74,
          "name": "D5",
          "ticks": 31040,
          "time": 59.692312666666666,
          "velocity": 0.47244094488188976
        },
        {
          "duration": 0.5000000416666595,
          "durationTicks": 260,
          "midi": 78,
          "name": "F#5",
          "ticks": 31040,
          "time": 59.692312666666666,
          "velocity": 0.47244094488188976
        },
        {
          "duration": 0.5307692749999902,
          "durationTicks": 276,
          "midi": 80,
          "name": "G#5",
          "ticks": 31040,
          "time": 59.692312666666666,
          "velocity": 0.47244094488188976
        },
        {
          "duration": 0.5769231250000004,
          "durationTicks": 300,
          "midi": 74,
          "name": "D5",
          "ticks": 31360,
          "time": 60.30769733333332,
          "velocity": 0.4645669291338583
        },
        {
          "duration": 0.6153846666666709,
          "durationTicks": 320,
          "midi": 78,
          "name": "F#5",
          "ticks": 31360,
          "time": 60.30769733333332,
          "velocity": 0.4645669291338583
        },
        {
          "duration": 0.5692308166666749,
          "durationTicks": 296,
          "midi": 81,
          "name": "A5",
          "ticks": 31360,
          "time": 60.30769733333332,
          "velocity": 0.4645669291338583
        },
        {
          "duration": 0.6153846666666709,
          "durationTicks": 320,
          "midi": 69,
          "name": "A4",
          "ticks": 31680,
          "time": 60.923081999999994,
          "velocity": 0.41732283464566927
        },
        {
          "duration": 0.6153846666666709,
          "durationTicks": 320,
          "midi": 78,
          "name": "F#5",
          "ticks": 31680,
          "time": 60.923081999999994,
          "velocity": 0.41732283464566927
        },
        {
          "duration": 0.5230769666666646,
          "durationTicks": 272,
          "midi": 69,
          "name": "A4",
          "ticks": 32000,
          "time": 61.538466666666665,
          "velocity": 0.4330708661417323
        },
        {
          "duration": 0.5153846583333248,
          "durationTicks": 268,
          "midi": 71,
          "name": "B4",
          "ticks": 32000,
          "time": 61.538466666666665,
          "velocity": 0.4330708661417323
        },
        {
          "duration": 0.5153846583333248,
          "durationTicks": 268,
          "midi": 74,
          "name": "D5",
          "ticks": 32000,
          "time": 61.538466666666665,
          "velocity": 0.4330708661417323
        },
        {
          "duration": 0.5230769666666646,
          "durationTicks": 272,
          "midi": 80,
          "name": "G#5",
          "ticks": 32000,
          "time": 61.538466666666665,
          "velocity": 0.4330708661417323
        },
        {
          "duration": 0.2230769416666618,
          "durationTicks": 116,
          "midi": 69,
          "name": "A4",
          "ticks": 32280,
          "time": 62.076928249999995,
          "velocity": 0.44881889763779526
        },
        {
          "duration": 0.2230769416666618,
          "durationTicks": 116,
          "midi": 71,
          "name": "B4",
          "ticks": 32280,
          "time": 62.076928249999995,
          "velocity": 0.44881889763779526
        },
        {
          "duration": 0.2230769416666618,
          "durationTicks": 116,
          "midi": 74,
          "name": "D5",
          "ticks": 32280,
          "time": 62.076928249999995,
          "velocity": 0.44881889763779526
        },
        {
          "duration": 0.2230769416666618,
          "durationTicks": 116,
          "midi": 81,
          "name": "A5",
          "ticks": 32280,
          "time": 62.076928249999995,
          "velocity": 0.44881889763779526
        },
        {
          "duration": 0.2307692500000016,
          "durationTicks": 120,
          "midi": 69,
          "name": "A4",
          "ticks": 32400,
          "time": 62.307697499999996,
          "velocity": 0.3700787401574803
        },
        {
          "duration": 0.2307692500000016,
          "durationTicks": 120,
          "midi": 71,
          "name": "B4",
          "ticks": 32400,
          "time": 62.307697499999996,
          "velocity": 0.3700787401574803
        },
        {
          "duration": 0.2307692500000016,
          "durationTicks": 120,
          "midi": 74,
          "name": "D5",
          "ticks": 32400,
          "time": 62.307697499999996,
          "velocity": 0.3700787401574803
        },
        {
          "duration": 0.2307692500000016,
          "durationTicks": 120,
          "midi": 78,
          "name": "F#5",
          "ticks": 32400,
          "time": 62.307697499999996,
          "velocity": 0.3700787401574803
        },
        {
          "duration": 0.23076924999999449,
          "durationTicks": 120,
          "midi": 69,
          "name": "A4",
          "ticks": 32520,
          "time": 62.53846675,
          "velocity": 0.41732283464566927
        },
        {
          "duration": 0.23076924999999449,
          "durationTicks": 120,
          "midi": 71,
          "name": "B4",
          "ticks": 32520,
          "time": 62.53846675,
          "velocity": 0.41732283464566927
        },
        {
          "duration": 0.23076924999999449,
          "durationTicks": 120,
          "midi": 74,
          "name": "D5",
          "ticks": 32520,
          "time": 62.53846675,
          "velocity": 0.41732283464566927
        },
        {
          "duration": 0.23076924999999449,
          "durationTicks": 120,
          "midi": 80,
          "name": "G#5",
          "ticks": 32520,
          "time": 62.53846675,
          "velocity": 0.41732283464566927
        },
        {
          "duration": 1.3846155000000095,
          "durationTicks": 720,
          "midi": 71,
          "name": "B4",
          "ticks": 32640,
          "time": 62.76923599999999,
          "velocity": 0.47244094488188976
        },
        {
          "duration": 1.3846155000000095,
          "durationTicks": 720,
          "midi": 73,
          "name": "C#5",
          "ticks": 32640,
          "time": 62.76923599999999,
          "velocity": 0.47244094488188976
        },
        {
          "duration": 1.3846155000000095,
          "durationTicks": 720,
          "midi": 76,
          "name": "E5",
          "ticks": 32640,
          "time": 62.76923599999999,
          "velocity": 0.47244094488188976
        },
        {
          "duration": 0.9230769999999922,
          "durationTicks": 480,
          "midi": 69,
          "name": "A4",
          "ticks": 33360,
          "time": 64.1538515,
          "velocity": 0.4094488188976378
        },
        {
          "duration": 0.7692308333333244,
          "durationTicks": 400,
          "midi": 73,
          "name": "C#5",
          "ticks": 33840,
          "time": 65.0769285,
          "velocity": 0.47244094488188976
        },
        {
          "duration": 0.30769233333334967,
          "durationTicks": 160,
          "midi": 76,
          "name": "E5",
          "ticks": 34240,
          "time": 65.84615933333332,
          "velocity": 0.5590551181102362
        },
        {
          "duration": 1.461538583333322,
          "durationTicks": 760,
          "midi": 75,
          "name": "D#5",
          "ticks": 34400,
          "time": 66.15385166666667,
          "velocity": 0.4881889763779528
        },
        {
          "duration": 1.461538583333322,
          "durationTicks": 760,
          "midi": 78,
          "name": "F#5",
          "ticks": 34400,
          "time": 66.15385166666667,
          "velocity": 0.4881889763779528
        },
        {
          "duration": 0.2307692500000087,
          "durationTicks": 120,
          "midi": 80,
          "name": "G#5",
          "ticks": 35160,
          "time": 67.61539024999999,
          "velocity": 0.6062992125984252
        },
        {
          "duration": 1.8461539999999985,
          "durationTicks": 960,
          "midi": 78,
          "name": "F#5",
          "ticks": 35280,
          "time": 67.8461595,
          "velocity": 0.4881889763779528
        },
        {
          "duration": 1.8461539999999985,
          "durationTicks": 960,
          "midi": 78,
          "name": "F#5",
          "ticks": 36240,
          "time": 69.6923135,
          "velocity": 0.6062992125984252
        },
        {
          "duration": 1.3846154999999953,
          "durationTicks": 720,
          "midi": 71,
          "name": "B4",
          "ticks": 37200,
          "time": 71.5384675,
          "velocity": 0.5275590551181102
        },
        {
          "duration": 0.2307692500000087,
          "durationTicks": 120,
          "midi": 74,
          "name": "D5",
          "ticks": 37920,
          "time": 72.92308299999999,
          "velocity": 0.5118110236220472
        },
        {
          "duration": 0.6923077499999977,
          "durationTicks": 360,
          "midi": 71,
          "name": "B4",
          "ticks": 38040,
          "time": 73.15385225,
          "velocity": 0.4566929133858268
        },
        {
          "duration": 0.6923077499999977,
          "durationTicks": 360,
          "midi": 78,
          "name": "F#5",
          "ticks": 38040,
          "time": 73.15385225,
          "velocity": 0.4566929133858268
        },
        {
          "duration": 2.076923249999993,
          "durationTicks": 1080,
          "midi": 72,
          "name": "C5",
          "ticks": 38400,
          "time": 73.84616,
          "velocity": 0.44881889763779526
        },
        {
          "duration": 1.9923078583333336,
          "durationTicks": 1036,
          "midi": 80,
          "name": "G#5",
          "ticks": 38400,
          "time": 73.84616,
          "velocity": 0.44881889763779526
        },
        {
          "duration": 1.1538462500000009,
          "durationTicks": 600,
          "midi": 76,
          "name": "E5",
          "ticks": 39480,
          "time": 75.92308324999999,
          "velocity": 0.30708661417322836
        },
        {
          "duration": 1.0692308583333414,
          "durationTicks": 556,
          "midi": 80,
          "name": "G#5",
          "ticks": 39480,
          "time": 75.92308324999999,
          "velocity": 0.30708661417322836
        },
        {
          "duration": 1.1538462500000009,
          "durationTicks": 600,
          "midi": 83,
          "name": "B5",
          "ticks": 39480,
          "time": 75.92308324999999,
          "velocity": 0.3543307086614173
        },
        {
          "duration": 0.15384616666666773,
          "durationTicks": 80,
          "midi": 81,
          "name": "A5",
          "ticks": 40080,
          "time": 77.07692949999999,
          "velocity": 0.5590551181102362
        },
        {
          "duration": 0.15384616666666773,
          "durationTicks": 80,
          "midi": 80,
          "name": "G#5",
          "ticks": 40160,
          "time": 77.23077566666666,
          "velocity": 0.44881889763779526
        },
        {
          "duration": 0.15384616666666773,
          "durationTicks": 80,
          "midi": 78,
          "name": "F#5",
          "ticks": 40240,
          "time": 77.38462183333333,
          "velocity": 0.3858267716535433
        },
        {
          "duration": 2.4615386666666694,
          "durationTicks": 1280,
          "midi": 80,
          "name": "G#5",
          "ticks": 40320,
          "time": 77.538468,
          "velocity": 0.5590551181102362
        },
        {
          "duration": 0.6153846666666567,
          "durationTicks": 320,
          "midi": 88,
          "name": "E6",
          "ticks": 41600,
          "time": 80.00000666666666,
          "velocity": 0.5669291338582677
        },
        {
          "duration": 0.6153846666666709,
          "durationTicks": 320,
          "midi": 85,
          "name": "C#6",
          "ticks": 41920,
          "time": 80.61539133333332,
          "velocity": 0.4015748031496063
        },
        {
          "duration": 0.6230769750000036,
          "durationTicks": 324,
          "midi": 83,
          "name": "B5",
          "ticks": 42240,
          "time": 81.23077599999999,
          "velocity": 0.5511811023622047
        },
        {
          "duration": 0.30769233333333545,
          "durationTicks": 160,
          "midi": 81,
          "name": "A5",
          "ticks": 42560,
          "time": 81.84616066666666,
          "velocity": 0.5118110236220472
        },
        {
          "duration": 0.30769233333332124,
          "durationTicks": 160,
          "midi": 80,
          "name": "G#5",
          "ticks": 42720,
          "time": 82.153853,
          "velocity": 0.3858267716535433
        },
        {
          "duration": 1.9538463166666702,
          "durationTicks": 1016,
          "midi": 81,
          "name": "A5",
          "ticks": 42880,
          "time": 82.46154533333332,
          "velocity": 0.44881889763779526
        },
        {
          "duration": 0.30769233333332124,
          "durationTicks": 160,
          "midi": 81,
          "name": "A5",
          "ticks": 44000,
          "time": 84.61539166666667,
          "velocity": 0.47244094488188976
        },
        {
          "duration": 1.2307693333333276,
          "durationTicks": 640,
          "midi": 81,
          "name": "A5",
          "ticks": 44160,
          "time": 84.92308399999999,
          "velocity": 0.5669291338582677
        },
        {
          "duration": 0.9230770000000064,
          "durationTicks": 480,
          "midi": 71,
          "name": "B4",
          "ticks": 44800,
          "time": 86.15385333333332,
          "velocity": 0.5826771653543307
        },
        {
          "duration": 0.30769233333333545,
          "durationTicks": 160,
          "midi": 59,
          "name": "B3",
          "ticks": 45280,
          "time": 87.07693033333332,
          "velocity": 0.5196850393700787
        },
        {
          "duration": 0.6153846666666567,
          "durationTicks": 320,
          "midi": 62,
          "name": "D4",
          "ticks": 45440,
          "time": 87.38462266666666,
          "velocity": 0.5748031496062992
        },
        {
          "duration": 0.30769233333334967,
          "durationTicks": 160,
          "midi": 66,
          "name": "F#4",
          "ticks": 45760,
          "time": 88.00000733333331,
          "velocity": 0.5118110236220472
        },
        {
          "duration": 0.30769233333332124,
          "durationTicks": 160,
          "midi": 69,
          "name": "A4",
          "ticks": 45920,
          "time": 88.30769966666666,
          "velocity": 0.5196850393700787
        },
        {
          "duration": 1.8461540000000127,
          "durationTicks": 960,
          "midi": 66,
          "name": "F#4",
          "ticks": 46080,
          "time": 88.61539199999999,
          "velocity": 0.44881889763779526
        },
        {
          "duration": 1.8461540000000127,
          "durationTicks": 960,
          "midi": 70,
          "name": "A#4",
          "ticks": 46080,
          "time": 88.61539199999999,
          "velocity": 0.44881889763779526
        },
        {
          "duration": 3.038461791666677,
          "durationTicks": 1580,
          "midi": 73,
          "name": "C#5",
          "ticks": 46080,
          "time": 88.61539199999999,
          "velocity": 0.44881889763779526
        },
        {
          "duration": 1.8384616916666516,
          "durationTicks": 956,
          "midi": 69,
          "name": "A4",
          "ticks": 47040,
          "time": 90.461546,
          "velocity": 0.3464566929133858
        },
        {
          "duration": 0.30769233333333545,
          "durationTicks": 160,
          "midi": 73,
          "name": "C#5",
          "ticks": 47680,
          "time": 91.69231533333333,
          "velocity": 0.5196850393700787
        },
        {
          "duration": 0.30769233333333545,
          "durationTicks": 160,
          "midi": 71,
          "name": "B4",
          "ticks": 47840,
          "time": 92.00000766666666,
          "velocity": 0.44881889763779526
        },
        {
          "duration": 0.6000000500000056,
          "durationTicks": 312,
          "midi": 69,
          "name": "A4",
          "ticks": 48000,
          "time": 92.3077,
          "velocity": 0.47244094488188976
        },
        {
          "duration": 2.615384833333323,
          "durationTicks": 1360,
          "midi": 69,
          "name": "A4",
          "ticks": 48320,
          "time": 92.92308466666667,
          "velocity": 0.5039370078740157
        },
        {
          "duration": 0.15384616666666773,
          "durationTicks": 80,
          "midi": 68,
          "name": "G#4",
          "ticks": 49680,
          "time": 95.53846949999999,
          "velocity": 0.4645669291338583
        },
        {
          "duration": 0.15384616666666773,
          "durationTicks": 80,
          "midi": 66,
          "name": "F#4",
          "ticks": 49760,
          "time": 95.69231566666666,
          "velocity": 0.3779527559055118
        },
        {
          "duration": 0.15384616666666773,
          "durationTicks": 80,
          "midi": 68,
          "name": "G#4",
          "ticks": 49840,
          "time": 95.84616183333333,
          "velocity": 0.48031496062992124
        },
        {
          "duration": 0.3000000250000028,
          "durationTicks": 156,
          "midi": 69,
          "name": "A4",
          "ticks": 49920,
          "time": 96.000008,
          "velocity": 0.6299212598425197
        },
        {
          "duration": 2.4538463583333368,
          "durationTicks": 1276,
          "midi": 69,
          "name": "A4",
          "ticks": 50120,
          "time": 96.38462341666666,
          "velocity": 0.5275590551181102
        },
        {
          "duration": 0.23076924999999449,
          "durationTicks": 120,
          "midi": 69,
          "name": "A4",
          "ticks": 51480,
          "time": 99.00000825,
          "velocity": 0.6299212598425197
        },
        {
          "duration": 0.4615385000000032,
          "durationTicks": 240,
          "midi": 71,
          "name": "B4",
          "ticks": 51600,
          "time": 99.23077749999999,
          "velocity": 0.5039370078740157
        },
        {
          "duration": 1.1538462500000009,
          "durationTicks": 600,
          "midi": 64,
          "name": "E4",
          "ticks": 51840,
          "time": 99.69231599999999,
          "velocity": 0.4330708661417323
        },
        {
          "duration": 1.1538462500000009,
          "durationTicks": 600,
          "midi": 68,
          "name": "G#4",
          "ticks": 51840,
          "time": 99.69231599999999,
          "velocity": 0.4330708661417323
        },
        {
          "duration": 1.1307693249999886,
          "durationTicks": 588,
          "midi": 73,
          "name": "C#5",
          "ticks": 51840,
          "time": 99.69231599999999,
          "velocity": 0.47244094488188976
        },
        {
          "duration": 0.6923077499999977,
          "durationTicks": 360,
          "midi": 64,
          "name": "E4",
          "ticks": 52440,
          "time": 100.84616224999999,
          "velocity": 0.44881889763779526
        },
        {
          "duration": 0.6923077499999977,
          "durationTicks": 360,
          "midi": 68,
          "name": "G#4",
          "ticks": 52440,
          "time": 100.84616224999999,
          "velocity": 0.44881889763779526
        },
        {
          "duration": 0.6923077499999977,
          "durationTicks": 360,
          "midi": 73,
          "name": "C#5",
          "ticks": 52440,
          "time": 100.84616224999999,
          "velocity": 0.44881889763779526
        },
        {
          "duration": 0.6923077499999977,
          "durationTicks": 360,
          "midi": 76,
          "name": "E5",
          "ticks": 52440,
          "time": 100.84616224999999,
          "velocity": 0.5511811023622047
        },
        {
          "duration": 1.2307693333333276,
          "durationTicks": 640,
          "midi": 64,
          "name": "E4",
          "ticks": 52800,
          "time": 101.53846999999999,
          "velocity": 0.4645669291338583
        },
        {
          "duration": 1.2307693333333276,
          "durationTicks": 640,
          "midi": 68,
          "name": "G#4",
          "ticks": 52800,
          "time": 101.53846999999999,
          "velocity": 0.4645669291338583
        },
        {
          "duration": 1.2307693333333276,
          "durationTicks": 640,
          "midi": 73,
          "name": "C#5",
          "ticks": 52800,
          "time": 101.53846999999999,
          "velocity": 0.4645669291338583
        },
        {
          "duration": 0.30769233333334967,
          "durationTicks": 160,
          "midi": 71,
          "name": "B4",
          "ticks": 53440,
          "time": 102.76923933333332,
          "velocity": 0.5511811023622047
        },
        {
          "duration": 0.30769233333332124,
          "durationTicks": 160,
          "midi": 69,
          "name": "A4",
          "ticks": 53600,
          "time": 103.07693166666667,
          "velocity": 0.5590551181102362
        },
        {
          "duration": 1.1461539416666682,
          "durationTicks": 596,
          "midi": 61,
          "name": "C#4",
          "ticks": 53760,
          "time": 103.38462399999999,
          "velocity": 0.49606299212598426
        },
        {
          "duration": 2.223077108333328,
          "durationTicks": 1156,
          "midi": 64,
          "name": "E4",
          "ticks": 54360,
          "time": 104.53847024999999,
          "velocity": 0.41732283464566927
        },
        {
          "duration": 0.3000000250000028,
          "durationTicks": 156,
          "midi": 66,
          "name": "F#4",
          "ticks": 55560,
          "time": 106.84616274999999,
          "velocity": 0.47244094488188976
        },
        {
          "duration": 1.3769231916666627,
          "durationTicks": 716,
          "midi": 69,
          "name": "A4",
          "ticks": 55680,
          "time": 107.07693199999999,
          "velocity": 0.5905511811023622
        },
        {
          "duration": 1.6153847499999898,
          "durationTicks": 840,
          "midi": 59,
          "name": "B3",
          "ticks": 56400,
          "time": 108.4615475,
          "velocity": 0.5669291338582677
        },
        {
          "duration": 0.2307692500000087,
          "durationTicks": 120,
          "midi": 62,
          "name": "D4",
          "ticks": 57240,
          "time": 110.07693224999998,
          "velocity": 0.6220472440944882
        },
        {
          "duration": 0.23076924999999449,
          "durationTicks": 120,
          "midi": 66,
          "name": "F#4",
          "ticks": 57360,
          "time": 110.3077015,
          "velocity": 0.5905511811023622
        },
        {
          "duration": 0.2307692500000087,
          "durationTicks": 120,
          "midi": 69,
          "name": "A4",
          "ticks": 57480,
          "time": 110.53847074999999,
          "velocity": 0.6062992125984252
        },
        {
          "duration": 0.9000000749999941,
          "durationTicks": 468,
          "midi": 68,
          "name": "G#4",
          "ticks": 57600,
          "time": 110.76924,
          "velocity": 0.5433070866141733
        },
        {
          "duration": 0.9230769999999922,
          "durationTicks": 480,
          "midi": 71,
          "name": "B4",
          "ticks": 57600,
          "time": 110.76924,
          "velocity": 0.5433070866141733
        },
        {
          "duration": 0.9230770000000064,
          "durationTicks": 480,
          "midi": 67,
          "name": "G4",
          "ticks": 58080,
          "time": 111.69231699999999,
          "velocity": 0.5118110236220472
        },
        {
          "duration": 0.9230770000000064,
          "durationTicks": 480,
          "midi": 73,
          "name": "C#5",
          "ticks": 58080,
          "time": 111.69231699999999,
          "velocity": 0.5118110236220472
        },
        {
          "duration": 1.8461539999999985,
          "durationTicks": 960,
          "midi": 66,
          "name": "F#4",
          "ticks": 58560,
          "time": 112.615394,
          "velocity": 0.4330708661417323
        },
        {
          "duration": 0.9230769999999922,
          "durationTicks": 480,
          "midi": 69,
          "name": "A4",
          "ticks": 58560,
          "time": 112.615394,
          "velocity": 0.4330708661417323
        },
        {
          "duration": 0.9230770000000064,
          "durationTicks": 480,
          "midi": 71,
          "name": "B4",
          "ticks": 59040,
          "time": 113.53847099999999,
          "velocity": 0.4645669291338583
        },
        {
          "duration": 0.6923077499999977,
          "durationTicks": 360,
          "midi": 71,
          "name": "B4",
          "ticks": 59640,
          "time": 114.69231724999999,
          "velocity": 0.4566929133858268
        },
        {
          "duration": 0.6923077499999977,
          "durationTicks": 360,
          "midi": 73,
          "name": "C#5",
          "ticks": 59640,
          "time": 114.69231724999999,
          "velocity": 0.4566929133858268
        },
        {
          "duration": 0.6923077499999977,
          "durationTicks": 360,
          "midi": 76,
          "name": "E5",
          "ticks": 59640,
          "time": 114.69231724999999,
          "velocity": 0.4566929133858268
        },
        {
          "duration": 0.6153846666666709,
          "durationTicks": 320,
          "midi": 69,
          "name": "A4",
          "ticks": 60000,
          "time": 115.38462499999999,
          "velocity": 0.5354330708661418
        },
        {
          "duration": 0.15384616666666773,
          "durationTicks": 80,
          "midi": 73,
          "name": "C#5",
          "ticks": 60320,
          "time": 116.00000966666666,
          "velocity": 0.4015748031496063
        },
        {
          "duration": 0.3846154166666622,
          "durationTicks": 200,
          "midi": 76,
          "name": "E5",
          "ticks": 60400,
          "time": 116.15385583333332,
          "velocity": 0.4015748031496063
        },
        {
          "duration": 0.6923077499999977,
          "durationTicks": 360,
          "midi": 73,
          "name": "C#5",
          "ticks": 60600,
          "time": 116.53847124999999,
          "velocity": 0.5354330708661418
        },
        {
          "duration": 0.6923077499999977,
          "durationTicks": 360,
          "midi": 76,
          "name": "E5",
          "ticks": 60600,
          "time": 116.53847124999999,
          "velocity": 0.5354330708661418
        },
        {
          "duration": 0.6923077499999977,
          "durationTicks": 360,
          "midi": 80,
          "name": "G#5",
          "ticks": 60600,
          "time": 116.53847124999999,
          "velocity": 0.5354330708661418
        },
        {
          "duration": 0.9230770000000064,
          "durationTicks": 480,
          "midi": 69,
          "name": "A4",
          "ticks": 60960,
          "time": 117.23077899999998,
          "velocity": 0.4645669291338583
        },
        {
          "duration": 0.9230770000000064,
          "durationTicks": 480,
          "midi": 73,
          "name": "C#5",
          "ticks": 60960,
          "time": 117.23077899999998,
          "velocity": 0.4645669291338583
        },
        {
          "duration": 0.9230770000000064,
          "durationTicks": 480,
          "midi": 76,
          "name": "E5",
          "ticks": 60960,
          "time": 117.23077899999998,
          "velocity": 0.4645669291338583
        },
        {
          "duration": 0.9230770000000064,
          "durationTicks": 480,
          "midi": 69,
          "name": "A4",
          "ticks": 61560,
          "time": 118.38462524999998,
          "velocity": 0.5196850393700787
        },
        {
          "duration": 0.9230770000000064,
          "durationTicks": 480,
          "midi": 73,
          "name": "C#5",
          "ticks": 61560,
          "time": 118.38462524999998,
          "velocity": 0.5196850393700787
        },
        {
          "duration": 0.9230770000000064,
          "durationTicks": 480,
          "midi": 76,
          "name": "E5",
          "ticks": 61560,
          "time": 118.38462524999998,
          "velocity": 0.5196850393700787
        },
        {
          "duration": 0.23076924999999449,
          "durationTicks": 120,
          "midi": 69,
          "name": "A4",
          "ticks": 62040,
          "time": 119.30770224999999,
          "velocity": 0.5590551181102362
        },
        {
          "duration": 0.15384616666666773,
          "durationTicks": 80,
          "midi": 73,
          "name": "C#5",
          "ticks": 62160,
          "time": 119.53847149999999,
          "velocity": 0.44881889763779526
        },
        {
          "duration": 0.15384616666668194,
          "durationTicks": 80,
          "midi": 76,
          "name": "E5",
          "ticks": 62240,
          "time": 119.69231766666665,
          "velocity": 0.44881889763779526
        },
        {
          "duration": 0.15384616666665352,
          "durationTicks": 80,
          "midi": 73,
          "name": "C#5",
          "ticks": 62320,
          "time": 119.84616383333334,
          "velocity": 0.44881889763779526
        },
        {
          "duration": 0.15384616666665352,
          "durationTicks": 80,
          "midi": 76,
          "name": "E5",
          "ticks": 62320,
          "time": 119.84616383333334,
          "velocity": 0.44881889763779526
        },
        {
          "duration": 0.15384616666665352,
          "durationTicks": 80,
          "midi": 80,
          "name": "G#5",
          "ticks": 62320,
          "time": 119.84616383333334,
          "velocity": 0.44881889763779526
        },
        {
          "duration": 0.30769233333334967,
          "durationTicks": 160,
          "midi": 73,
          "name": "C#5",
          "ticks": 62400,
          "time": 120.00000999999999,
          "velocity": 0.5118110236220472
        },
        {
          "duration": 0.30769233333334967,
          "durationTicks": 160,
          "midi": 76,
          "name": "E5",
          "ticks": 62400,
          "time": 120.00000999999999,
          "velocity": 0.5118110236220472
        },
        {
          "duration": 0.30769233333334967,
          "durationTicks": 160,
          "midi": 80,
          "name": "G#5",
          "ticks": 62400,
          "time": 120.00000999999999,
          "velocity": 0.5118110236220472
        },
        {
          "duration": 0.30769233333330703,
          "durationTicks": 160,
          "midi": 74,
          "name": "D5",
          "ticks": 62560,
          "time": 120.30770233333334,
          "velocity": 0.5118110236220472
        },
        {
          "duration": 0.30769233333330703,
          "durationTicks": 160,
          "midi": 78,
          "name": "F#5",
          "ticks": 62560,
          "time": 120.30770233333334,
          "velocity": 0.5118110236220472
        },
        {
          "duration": 0.30769233333330703,
          "durationTicks": 160,
          "midi": 81,
          "name": "A5",
          "ticks": 62560,
          "time": 120.30770233333334,
          "velocity": 0.5118110236220472
        },
        {
          "duration": 0.30769233333334967,
          "durationTicks": 160,
          "midi": 71,
          "name": "B4",
          "ticks": 62720,
          "time": 120.61539466666665,
          "velocity": 0.41732283464566927
        },
        {
          "duration": 0.30769233333334967,
          "durationTicks": 160,
          "midi": 74,
          "name": "D5",
          "ticks": 62720,
          "time": 120.61539466666665,
          "velocity": 0.41732283464566927
        },
        {
          "duration": 0.30769233333334967,
          "durationTicks": 160,
          "midi": 78,
          "name": "F#5",
          "ticks": 62720,
          "time": 120.61539466666665,
          "velocity": 0.41732283464566927
        },
        {
          "duration": 0.30000002499998857,
          "durationTicks": 156,
          "midi": 71,
          "name": "B4",
          "ticks": 62880,
          "time": 120.923087,
          "velocity": 0.5039370078740157
        },
        {
          "duration": 0.30000002499998857,
          "durationTicks": 156,
          "midi": 74,
          "name": "D5",
          "ticks": 62880,
          "time": 120.923087,
          "velocity": 0.5039370078740157
        },
        {
          "duration": 0.30000002499998857,
          "durationTicks": 156,
          "midi": 78,
          "name": "F#5",
          "ticks": 62880,
          "time": 120.923087,
          "velocity": 0.5039370078740157
        },
        {
          "duration": 0.6076923583333382,
          "durationTicks": 316,
          "midi": 73,
          "name": "C#5",
          "ticks": 63040,
          "time": 121.23077933333333,
          "velocity": 0.4330708661417323
        },
        {
          "duration": 0.6076923583333382,
          "durationTicks": 316,
          "midi": 76,
          "name": "E5",
          "ticks": 63040,
          "time": 121.23077933333333,
          "velocity": 0.4330708661417323
        },
        {
          "duration": 0.6076923583333382,
          "durationTicks": 316,
          "midi": 80,
          "name": "G#5",
          "ticks": 63040,
          "time": 121.23077933333333,
          "velocity": 0.4330708661417323
        },
        {
          "duration": 0.30769233333330703,
          "durationTicks": 160,
          "midi": 76,
          "name": "E5",
          "ticks": 63520,
          "time": 122.15385633333334,
          "velocity": 0.6535433070866141
        },
        {
          "duration": 0.5384615833333442,
          "durationTicks": 280,
          "midi": 68,
          "name": "G#4",
          "ticks": 63680,
          "time": 122.46154866666664,
          "velocity": 0.5275590551181102
        },
        {
          "duration": 0.30000002499998857,
          "durationTicks": 156,
          "midi": 69,
          "name": "A4",
          "ticks": 63960,
          "time": 123.00001024999999,
          "velocity": 0.5984251968503937
        },
        {
          "duration": 0.20769232499998225,
          "durationTicks": 108,
          "midi": 73,
          "name": "C#5",
          "ticks": 64080,
          "time": 123.2307795,
          "velocity": 0.49606299212598426
        },
        {
          "duration": 0.22307694166667602,
          "durationTicks": 116,
          "midi": 76,
          "name": "E5",
          "ticks": 64200,
          "time": 123.46154874999999,
          "velocity": 0.6220472440944882
        },
        {
          "duration": 0.9230770000000064,
          "durationTicks": 480,
          "midi": 80,
          "name": "G#5",
          "ticks": 64320,
          "time": 123.69231799999999,
          "velocity": 0.5039370078740157
        },
        {
          "duration": 0.30000002499998857,
          "durationTicks": 156,
          "midi": 78,
          "name": "F#5",
          "ticks": 64800,
          "time": 124.61539499999999,
          "velocity": 0.6141732283464567
        },
        {
          "duration": 0.1923077083333169,
          "durationTicks": 100,
          "midi": 76,
          "name": "E5",
          "ticks": 64960,
          "time": 124.92308733333333,
          "velocity": 0.49606299212598426
        },
        {
          "duration": 0.1923077083333311,
          "durationTicks": 100,
          "midi": 73,
          "name": "C#5",
          "ticks": 65040,
          "time": 125.0769335,
          "velocity": 0.47244094488188976
        },
        {
          "duration": 0.16923078333333308,
          "durationTicks": 88,
          "midi": 69,
          "name": "A4",
          "ticks": 65080,
          "time": 125.15385658333334,
          "velocity": 0.4251968503937008
        },
        {
          "duration": 3.223077191666647,
          "durationTicks": 1676,
          "midi": 68,
          "name": "G#4",
          "ticks": 65200,
          "time": 125.38462583333333,
          "velocity": 0.5748031496062992
        },
        {
          "duration": 0.2923077166666701,
          "durationTicks": 152,
          "midi": 73,
          "name": "C#5",
          "ticks": 66960,
          "time": 128.7692415,
          "velocity": 0.6220472440944882
        },
        {
          "duration": 0.4615385000000174,
          "durationTicks": 240,
          "midi": 73,
          "name": "C#5",
          "ticks": 67120,
          "time": 129.07693383333333,
          "velocity": 0.6299212598425197
        },
        {
          "duration": 0.9230770000000064,
          "durationTicks": 480,
          "midi": 66,
          "name": "F#4",
          "ticks": 67320,
          "time": 129.46154925,
          "velocity": 0.5196850393700787
        },
        {
          "duration": 0.9230770000000064,
          "durationTicks": 480,
          "midi": 76,
          "name": "E5",
          "ticks": 67800,
          "time": 130.38462625,
          "velocity": 0.5984251968503937
        },
        {
          "duration": 1.5307693583333162,
          "durationTicks": 796,
          "midi": 73,
          "name": "C#5",
          "ticks": 68280,
          "time": 131.30770325,
          "velocity": 0.4881889763779528
        },
        {
          "duration": 1.6846155249999981,
          "durationTicks": 876,
          "midi": 66,
          "name": "F#4",
          "ticks": 68400,
          "time": 131.53847249999998,
          "velocity": 0.1968503937007874
        },
        {
          "duration": 0.9230769999999779,
          "durationTicks": 480,
          "midi": 64,
          "name": "E4",
          "ticks": 69280,
          "time": 133.23078033333334,
          "velocity": 0.5039370078740157
        },
        {
          "duration": 0.9230769999999779,
          "durationTicks": 480,
          "midi": 71,
          "name": "B4",
          "ticks": 69280,
          "time": 133.23078033333334,
          "velocity": 0.49606299212598426
        },
        {
          "duration": 0.3000000250000028,
          "durationTicks": 156,
          "midi": 68,
          "name": "G#4",
          "ticks": 69760,
          "time": 134.15385733333332,
          "velocity": 0.48031496062992124
        },
        {
          "duration": 0.26923079166664365,
          "durationTicks": 140,
          "midi": 64,
          "name": "E4",
          "ticks": 69840,
          "time": 134.3077035,
          "velocity": 0.3858267716535433
        },
        {
          "duration": 0.8461539166666512,
          "durationTicks": 440,
          "midi": 64,
          "name": "E4",
          "ticks": 70000,
          "time": 134.61539583333334,
          "velocity": 0.5433070866141733
        },
        {
          "duration": 0.8461539166666512,
          "durationTicks": 440,
          "midi": 76,
          "name": "E5",
          "ticks": 70000,
          "time": 134.61539583333334,
          "velocity": 0.5275590551181102
        },
        {
          "duration": 0.15384616666671036,
          "durationTicks": 80,
          "midi": 71,
          "name": "B4",
          "ticks": 70400,
          "time": 135.38462666666663,
          "velocity": 0.5118110236220472
        },
        {
          "duration": 0.15384616666665352,
          "durationTicks": 80,
          "midi": 68,
          "name": "G#4",
          "ticks": 70480,
          "time": 135.53847283333334,
          "velocity": 0.4566929133858268
        },
        {
          "duration": 0.46153849999998897,
          "durationTicks": 240,
          "midi": 71,
          "name": "B4",
          "ticks": 70560,
          "time": 135.692319,
          "velocity": 0.5118110236220472
        },
        {
          "duration": 0.15384616666665352,
          "durationTicks": 80,
          "midi": 69,
          "name": "A4",
          "ticks": 70800,
          "time": 136.1538575,
          "velocity": 0.4881889763779528
        },
        {
          "duration": 0.15384616666668194,
          "durationTicks": 80,
          "midi": 68,
          "name": "G#4",
          "ticks": 70880,
          "time": 136.30770366666664,
          "velocity": 0.3937007874015748
        },
        {
          "duration": 0.15384616666665352,
          "durationTicks": 80,
          "midi": 66,
          "name": "F#4",
          "ticks": 70960,
          "time": 136.46154983333332,
          "velocity": 0.3228346456692913
        },
        {
          "duration": 1.2461539500000072,
          "durationTicks": 648,
          "midi": 64,
          "name": "E4",
          "ticks": 71040,
          "time": 136.61539599999998,
          "velocity": 0.4330708661417323
        },
        {
          "duration": 1.2230770250000091,
          "durationTicks": 636,
          "midi": 68,
          "name": "G#4",
          "ticks": 71040,
          "time": 136.61539599999998,
          "velocity": 0.4330708661417323
        },
        {
          "duration": 0.30769233333333545,
          "durationTicks": 160,
          "midi": 76,
          "name": "E5",
          "ticks": 71680,
          "time": 137.84616533333332,
          "velocity": 0.49606299212598426
        },
        {
          "duration": 0.4538461916666563,
          "durationTicks": 236,
          "midi": 80,
          "name": "G#5",
          "ticks": 71840,
          "time": 138.15385766666665,
          "velocity": 0.5748031496062992
        },
        {
          "duration": 1.3846154999999953,
          "durationTicks": 720,
          "midi": 65,
          "name": "F4",
          "ticks": 72000,
          "time": 138.46155,
          "velocity": 0.4566929133858268
        },
        {
          "duration": 1.300000108333336,
          "durationTicks": 676,
          "midi": 76,
          "name": "E5",
          "ticks": 72000,
          "time": 138.46155,
          "velocity": 0.4566929133858268
        },
        {
          "duration": 0.8384616083333469,
          "durationTicks": 436,
          "midi": 71,
          "name": "B4",
          "ticks": 72240,
          "time": 138.92308849999998,
          "velocity": 0.3779527559055118
        },
        {
          "duration": 0.6076923583333382,
          "durationTicks": 316,
          "midi": 69,
          "name": "A4",
          "ticks": 72640,
          "time": 139.69231933333333,
          "velocity": 0.23622047244094488
        },
        {
          "duration": 0.37692310833332954,
          "durationTicks": 196,
          "midi": 73,
          "name": "C#5",
          "ticks": 72800,
          "time": 140.00001166666664,
          "velocity": 0.4881889763779528
        },
        {
          "duration": 1.0769231666666315,
          "durationTicks": 560,
          "midi": 68,
          "name": "G#4",
          "ticks": 72960,
          "time": 140.307704,
          "velocity": 0.4409448818897638
        },
        {
          "duration": 1.0769231666666315,
          "durationTicks": 560,
          "midi": 71,
          "name": "B4",
          "ticks": 72960,
          "time": 140.307704,
          "velocity": 0.4409448818897638
        },
        {
          "duration": 0.15384616666671036,
          "durationTicks": 80,
          "midi": 69,
          "name": "A4",
          "ticks": 73520,
          "time": 141.38462716666663,
          "velocity": 0.4330708661417323
        },
        {
          "duration": 0.15384616666665352,
          "durationTicks": 80,
          "midi": 68,
          "name": "G#4",
          "ticks": 73600,
          "time": 141.53847333333334,
          "velocity": 0.3464566929133858
        },
        {
          "duration": 1.8384616916666516,
          "durationTicks": 956,
          "midi": 66,
          "name": "F#4",
          "ticks": 73680,
          "time": 141.6923195,
          "velocity": 0.3937007874015748
        },
        {
          "duration": 0.2923077166666701,
          "durationTicks": 152,
          "midi": 64,
          "name": "E4",
          "ticks": 74640,
          "time": 143.53847349999998,
          "velocity": 0.5118110236220472
        },
        {
          "duration": 0.2846154083333374,
          "durationTicks": 148,
          "midi": 69,
          "name": "A4",
          "ticks": 74640,
          "time": 143.53847349999998,
          "velocity": 0.5118110236220472
        },
        {
          "duration": 0.4538461916666279,
          "durationTicks": 236,
          "midi": 66,
          "name": "F#4",
          "ticks": 74800,
          "time": 143.84616583333334,
          "velocity": 0.5039370078740157
        },
        {
          "duration": 0.4538461916666279,
          "durationTicks": 236,
          "midi": 69,
          "name": "A4",
          "ticks": 74800,
          "time": 143.84616583333334,
          "velocity": 0.5039370078740157
        },
        {
          "duration": 0.9153846916666453,
          "durationTicks": 476,
          "midi": 59,
          "name": "B3",
          "ticks": 75040,
          "time": 144.30770433333333,
          "velocity": 0.5826771653543307
        },
        {
          "duration": 0.1615384749999862,
          "durationTicks": 84,
          "midi": 59,
          "name": "B3",
          "ticks": 75520,
          "time": 145.23078133333334,
          "velocity": 0.6141732283464567
        },
        {
          "duration": 0.1615384749999862,
          "durationTicks": 84,
          "midi": 62,
          "name": "D4",
          "ticks": 75520,
          "time": 145.23078133333334,
          "velocity": 0.5984251968503937
        },
        {
          "duration": 0.16923078333331887,
          "durationTicks": 88,
          "midi": 66,
          "name": "F#4",
          "ticks": 75520,
          "time": 145.23078133333334,
          "velocity": 0.6062992125984252
        },
        {
          "duration": 0.27692310000000475,
          "durationTicks": 144,
          "midi": 59,
          "name": "B3",
          "ticks": 75600,
          "time": 145.3846275,
          "velocity": 0.5905511811023622
        },
        {
          "duration": 0.27692310000000475,
          "durationTicks": 144,
          "midi": 62,
          "name": "D4",
          "ticks": 75600,
          "time": 145.3846275,
          "velocity": 0.6141732283464567
        },
        {
          "duration": 0.27692310000000475,
          "durationTicks": 144,
          "midi": 69,
          "name": "A4",
          "ticks": 75600,
          "time": 145.3846275,
          "velocity": 0.6062992125984252
        },
        {
          "duration": 0.46923080833332165,
          "durationTicks": 244,
          "midi": 62,
          "name": "D4",
          "ticks": 75760,
          "time": 145.69231983333333,
          "velocity": 0.6141732283464567
        },
        {
          "duration": 0.46153849999998897,
          "durationTicks": 240,
          "midi": 66,
          "name": "F#4",
          "ticks": 75760,
          "time": 145.69231983333333,
          "velocity": 0.6220472440944882
        },
        {
          "duration": 0.46923080833332165,
          "durationTicks": 244,
          "midi": 73,
          "name": "C#5",
          "ticks": 75760,
          "time": 145.69231983333333,
          "velocity": 0.5748031496062992
        },
        {
          "duration": 0.30769233333333545,
          "durationTicks": 160,
          "midi": 66,
          "name": "F#4",
          "ticks": 76000,
          "time": 146.15385833333332,
          "velocity": 0.5984251968503937
        },
        {
          "duration": 0.30769233333333545,
          "durationTicks": 160,
          "midi": 69,
          "name": "A4",
          "ticks": 76000,
          "time": 146.15385833333332,
          "velocity": 0.6220472440944882
        },
        {
          "duration": 0.30769233333333545,
          "durationTicks": 160,
          "midi": 76,
          "name": "E5",
          "ticks": 76000,
          "time": 146.15385833333332,
          "velocity": 0.5511811023622047
        },
        {
          "duration": 0.30769233333333545,
          "durationTicks": 160,
          "midi": 76,
          "name": "E5",
          "ticks": 76000,
          "time": 146.15385833333332,
          "velocity": 0.5511811023622047
        },
        {
          "duration": 0.30769233333333545,
          "durationTicks": 160,
          "midi": 66,
          "name": "F#4",
          "ticks": 76160,
          "time": 146.46155066666665,
          "velocity": 0.5984251968503937
        },
        {
          "duration": 0.30769233333333545,
          "durationTicks": 160,
          "midi": 69,
          "name": "A4",
          "ticks": 76160,
          "time": 146.46155066666665,
          "velocity": 0.5905511811023622
        },
        {
          "duration": 0.30769233333333545,
          "durationTicks": 160,
          "midi": 74,
          "name": "D5",
          "ticks": 76160,
          "time": 146.46155066666665,
          "velocity": 0.6141732283464567
        },
        {
          "duration": 0.30769233333333545,
          "durationTicks": 160,
          "midi": 62,
          "name": "D4",
          "ticks": 76320,
          "time": 146.769243,
          "velocity": 0.6220472440944882
        },
        {
          "duration": 0.30769233333333545,
          "durationTicks": 160,
          "midi": 66,
          "name": "F#4",
          "ticks": 76320,
          "time": 146.769243,
          "velocity": 0.5905511811023622
        },
        {
          "duration": 0.30769233333333545,
          "durationTicks": 160,
          "midi": 73,
          "name": "C#5",
          "ticks": 76320,
          "time": 146.769243,
          "velocity": 0.6141732283464567
        },
        {
          "duration": 0.30769233333333545,
          "durationTicks": 160,
          "midi": 66,
          "name": "F#4",
          "ticks": 76480,
          "time": 147.07693533333332,
          "velocity": 0.5905511811023622
        },
        {
          "duration": 0.30769233333333545,
          "durationTicks": 160,
          "midi": 69,
          "name": "A4",
          "ticks": 76480,
          "time": 147.07693533333332,
          "velocity": 0.6062992125984252
        },
        {
          "duration": 0.30769233333333545,
          "durationTicks": 160,
          "midi": 71,
          "name": "B4",
          "ticks": 76480,
          "time": 147.07693533333332,
          "velocity": 0.6141732283464567
        },
        {
          "duration": 0.30769233333333545,
          "durationTicks": 160,
          "midi": 74,
          "name": "D5",
          "ticks": 76480,
          "time": 147.07693533333332,
          "velocity": 0.6141732283464567
        },
        {
          "duration": 0.5846154333333402,
          "durationTicks": 304,
          "midi": 62,
          "name": "D4",
          "ticks": 76640,
          "time": 147.38462766666666,
          "velocity": 0.5590551181102362
        },
        {
          "duration": 0.5846154333333402,
          "durationTicks": 304,
          "midi": 66,
          "name": "F#4",
          "ticks": 76640,
          "time": 147.38462766666666,
          "velocity": 0.5669291338582677
        },
        {
          "duration": 0.5846154333333402,
          "durationTicks": 304,
          "midi": 71,
          "name": "B4",
          "ticks": 76640,
          "time": 147.38462766666666,
          "velocity": 0.5748031496062992
        },
        {
          "duration": 0.1615384749999862,
          "durationTicks": 84,
          "midi": 59,
          "name": "B3",
          "ticks": 76960,
          "time": 148.00001233333333,
          "velocity": 0.5669291338582677
        },
        {
          "duration": 0.1615384749999862,
          "durationTicks": 84,
          "midi": 62,
          "name": "D4",
          "ticks": 76960,
          "time": 148.00001233333333,
          "velocity": 0.5590551181102362
        },
        {
          "duration": 0.20769232499998225,
          "durationTicks": 108,
          "midi": 66,
          "name": "F#4",
          "ticks": 76960,
          "time": 148.00001233333333,
          "velocity": 0.5511811023622047
        },
        {
          "duration": 0.2846154083333374,
          "durationTicks": 148,
          "midi": 59,
          "name": "B3",
          "ticks": 77040,
          "time": 148.15385849999998,
          "velocity": 0.5748031496062992
        },
        {
          "duration": 0.2846154083333374,
          "durationTicks": 148,
          "midi": 62,
          "name": "D4",
          "ticks": 77040,
          "time": 148.15385849999998,
          "velocity": 0.5511811023622047
        },
        {
          "duration": 0.2846154083333374,
          "durationTicks": 148,
          "midi": 69,
          "name": "A4",
          "ticks": 77040,
          "time": 148.15385849999998,
          "velocity": 0.5748031496062992
        },
        {
          "duration": 0.7615385249999918,
          "durationTicks": 396,
          "midi": 59,
          "name": "B3",
          "ticks": 77200,
          "time": 148.46155083333332,
          "velocity": 0.5748031496062992
        },
        {
          "duration": 0.7615385249999918,
          "durationTicks": 396,
          "midi": 62,
          "name": "D4",
          "ticks": 77200,
          "time": 148.46155083333332,
          "velocity": 0.5669291338582677
        },
        {
          "duration": 0.7615385249999918,
          "durationTicks": 396,
          "midi": 69,
          "name": "A4",
          "ticks": 77200,
          "time": 148.46155083333332,
          "velocity": 0.5590551181102362
        },
        {
          "duration": 0.14615385833332084,
          "durationTicks": 76,
          "midi": 59,
          "name": "B3",
          "ticks": 77600,
          "time": 149.23078166666664,
          "velocity": 0.36220472440944884
        },
        {
          "duration": 0.14615385833332084,
          "durationTicks": 76,
          "midi": 62,
          "name": "D4",
          "ticks": 77600,
          "time": 149.23078166666664,
          "velocity": 0.36220472440944884
        },
        {
          "duration": 0.14615385833334926,
          "durationTicks": 76,
          "midi": 59,
          "name": "B3",
          "ticks": 77680,
          "time": 149.38462783333333,
          "velocity": 0.5669291338582677
        },
        {
          "duration": 0.14615385833334926,
          "durationTicks": 76,
          "midi": 62,
          "name": "D4",
          "ticks": 77680,
          "time": 149.38462783333333,
          "velocity": 0.5905511811023622
        },
        {
          "duration": 0.14615385833334926,
          "durationTicks": 76,
          "midi": 69,
          "name": "A4",
          "ticks": 77680,
          "time": 149.38462783333333,
          "velocity": 0.5748031496062992
        },
        {
          "duration": 0.9230770000000064,
          "durationTicks": 480,
          "midi": 59,
          "name": "B3",
          "ticks": 77760,
          "time": 149.53847399999998,
          "velocity": 0.5669291338582677
        },
        {
          "duration": 0.9230770000000064,
          "durationTicks": 480,
          "midi": 62,
          "name": "D4",
          "ticks": 77760,
          "time": 149.53847399999998,
          "velocity": 0.5511811023622047
        },
        {
          "duration": 0.9230770000000064,
          "durationTicks": 480,
          "midi": 68,
          "name": "G#4",
          "ticks": 77760,
          "time": 149.53847399999998,
          "velocity": 0.5590551181102362
        },
        {
          "duration": 0.14615385833334926,
          "durationTicks": 76,
          "midi": 69,
          "name": "A4",
          "ticks": 78400,
          "time": 150.76924333333332,
          "velocity": 0.6141732283464567
        },
        {
          "duration": 0.2307692500000087,
          "durationTicks": 120,
          "midi": 71,
          "name": "B4",
          "ticks": 78480,
          "time": 150.92308949999997,
          "velocity": 0.5826771653543307
        },
        {
          "duration": 0.5384615833333157,
          "durationTicks": 280,
          "midi": 73,
          "name": "C#5",
          "ticks": 78640,
          "time": 151.23078183333334,
          "velocity": 0.6377952755905512
        },
        {
          "duration": 0.30769233333330703,
          "durationTicks": 160,
          "midi": 76,
          "name": "E5",
          "ticks": 78880,
          "time": 151.69232033333333,
          "velocity": 0.5433070866141733
        },
        {
          "duration": 0.3076923333333639,
          "durationTicks": 160,
          "midi": 78,
          "name": "F#5",
          "ticks": 79040,
          "time": 152.00001266666663,
          "velocity": 0.6929133858267716
        },
        {
          "duration": 0.30769233333333545,
          "durationTicks": 160,
          "midi": 81,
          "name": "A5",
          "ticks": 79200,
          "time": 152.307705,
          "velocity": 0.5354330708661418
        },
        {
          "duration": 0.30769233333330703,
          "durationTicks": 160,
          "midi": 78,
          "name": "F#5",
          "ticks": 79360,
          "time": 152.61539733333333,
          "velocity": 0.6299212598425197
        },
        {
          "duration": 0.30769233333333545,
          "durationTicks": 160,
          "midi": 76,
          "name": "E5",
          "ticks": 79520,
          "time": 152.92308966666664,
          "velocity": 0.5275590551181102
        },
        {
          "duration": 0.09230769999999211,
          "durationTicks": 48,
          "midi": 71,
          "name": "B4",
          "ticks": 79680,
          "time": 153.23078199999998,
          "velocity": 0.6456692913385826
        },
        {
          "duration": 0.30769233333330703,
          "durationTicks": 160,
          "midi": 73,
          "name": "C#5",
          "ticks": 79720,
          "time": 153.30770508333333,
          "velocity": 0.48031496062992124
        },
        {
          "duration": 0.30769233333330703,
          "durationTicks": 160,
          "midi": 71,
          "name": "B4",
          "ticks": 79840,
          "time": 153.53847433333334,
          "velocity": 0.4409448818897638
        },
        {
          "duration": 0.30769233333333545,
          "durationTicks": 160,
          "midi": 69,
          "name": "A4",
          "ticks": 80000,
          "time": 153.84616666666665,
          "velocity": 0.6771653543307087
        },
        {
          "duration": 0.30769233333333545,
          "durationTicks": 160,
          "midi": 71,
          "name": "B4",
          "ticks": 80160,
          "time": 154.15385899999998,
          "velocity": 0.47244094488188976
        },
        {
          "duration": 0.30769233333333545,
          "durationTicks": 160,
          "midi": 73,
          "name": "C#5",
          "ticks": 80320,
          "time": 154.46155133333332,
          "velocity": 0.7007874015748031
        },
        {
          "duration": 0.6153846666666709,
          "durationTicks": 320,
          "midi": 69,
          "name": "A4",
          "ticks": 80480,
          "time": 154.76924366666665,
          "velocity": 0.4645669291338583
        },
        {
          "duration": 0.30769233333330703,
          "durationTicks": 160,
          "midi": 71,
          "name": "B4",
          "ticks": 80800,
          "time": 155.38462833333332,
          "velocity": 0.6220472440944882
        },
        {
          "duration": 0.3076923333333639,
          "durationTicks": 160,
          "midi": 73,
          "name": "C#5",
          "ticks": 80960,
          "time": 155.69232066666663,
          "velocity": 0.4645669291338583
        },
        {
          "duration": 0.30769233333333545,
          "durationTicks": 160,
          "midi": 76,
          "name": "E5",
          "ticks": 81120,
          "time": 156.000013,
          "velocity": 0.6929133858267716
        },
        {
          "duration": 0.30769233333330703,
          "durationTicks": 160,
          "midi": 78,
          "name": "F#5",
          "ticks": 81280,
          "time": 156.30770533333333,
          "velocity": 0.6062992125984252
        },
        {
          "duration": 0.30769233333333545,
          "durationTicks": 160,
          "midi": 81,
          "name": "A5",
          "ticks": 81440,
          "time": 156.61539766666664,
          "velocity": 0.7244094488188977
        },
        {
          "duration": 0.15384616666668194,
          "durationTicks": 80,
          "midi": 85,
          "name": "C#6",
          "ticks": 81600,
          "time": 156.92308999999997,
          "velocity": 0.7165354330708661
        },
        {
          "duration": 0.15384616666668194,
          "durationTicks": 80,
          "midi": 83,
          "name": "B5",
          "ticks": 81680,
          "time": 157.07693616666666,
          "velocity": 0.5039370078740157
        },
        {
          "duration": 0.15384616666665352,
          "durationTicks": 80,
          "midi": 85,
          "name": "C#6",
          "ticks": 81760,
          "time": 157.23078233333334,
          "velocity": 0.6929133858267716
        },
        {
          "duration": 0.6923077499999977,
          "durationTicks": 360,
          "midi": 81,
          "name": "A5",
          "ticks": 81840,
          "time": 157.3846285,
          "velocity": 0.5984251968503937
        },
        {
          "duration": 0.2307692500000087,
          "durationTicks": 120,
          "midi": 78,
          "name": "F#5",
          "ticks": 82200,
          "time": 158.07693625,
          "velocity": 0.6456692913385826
        },
        {
          "duration": 0.1307692416666555,
          "durationTicks": 68,
          "midi": 75,
          "name": "D#5",
          "ticks": 82320,
          "time": 158.3077055,
          "velocity": 0.5748031496062992
        },
        {
          "duration": 0.2307692500000087,
          "durationTicks": 120,
          "midi": 76,
          "name": "E5",
          "ticks": 82360,
          "time": 158.38462858333332,
          "velocity": 0.3464566929133858
        },
        {
          "duration": 0.2307692500000087,
          "durationTicks": 120,
          "midi": 73,
          "name": "C#5",
          "ticks": 82440,
          "time": 158.53847474999998,
          "velocity": 0.4881889763779528
        },
        {
          "duration": 0.6153846666666709,
          "durationTicks": 320,
          "midi": 71,
          "name": "B4",
          "ticks": 82560,
          "time": 158.769244,
          "velocity": 0.5590551181102362
        },
        {
          "duration": 0.15384616666668194,
          "durationTicks": 80,
          "midi": 69,
          "name": "A4",
          "ticks": 82880,
          "time": 159.38462866666666,
          "velocity": 0.4881889763779528
        },
        {
          "duration": 0.15384616666665352,
          "durationTicks": 80,
          "midi": 66,
          "name": "F#4",
          "ticks": 82960,
          "time": 159.53847483333334,
          "velocity": 0.4094488188976378
        },
        {
          "duration": 1.0384616249999965,
          "durationTicks": 540,
          "midi": 69,
          "name": "A4",
          "ticks": 83040,
          "time": 159.692321,
          "velocity": 0.5669291338582677
        },
        {
          "duration": 0.11538462499999014,
          "durationTicks": 60,
          "midi": 66,
          "name": "F#4",
          "ticks": 83600,
          "time": 160.76924416666665,
          "velocity": 0.4094488188976378
        },
        {
          "duration": 0.11538462500001856,
          "durationTicks": 60,
          "midi": 69,
          "name": "A4",
          "ticks": 83640,
          "time": 160.84616724999998,
          "velocity": 0.3937007874015748
        },
        {
          "duration": 0.11538462500001856,
          "durationTicks": 60,
          "midi": 73,
          "name": "C#5",
          "ticks": 83720,
          "time": 161.00001341666663,
          "velocity": 0.4881889763779528
        },
        {
          "duration": 0.27692310000000475,
          "durationTicks": 144,
          "midi": 76,
          "name": "E5",
          "ticks": 83760,
          "time": 161.0769365,
          "velocity": 0.6850393700787402
        },
        {
          "duration": 0.33846156666666616,
          "durationTicks": 176,
          "midi": 76,
          "name": "E5",
          "ticks": 83920,
          "time": 161.38462883333332,
          "velocity": 0.6929133858267716
        },
        {
          "duration": 0.15384616666668194,
          "durationTicks": 80,
          "midi": 73,
          "name": "C#5",
          "ticks": 84080,
          "time": 161.69232116666666,
          "velocity": 0.6062992125984252
        },
        {
          "duration": 0.15384616666665352,
          "durationTicks": 80,
          "midi": 69,
          "name": "A4",
          "ticks": 84160,
          "time": 161.84616733333334,
          "velocity": 0.4251968503937008
        },
        {
          "duration": 0.7615385249999918,
          "durationTicks": 396,
          "midi": 66,
          "name": "F#4",
          "ticks": 84240,
          "time": 162.0000135,
          "velocity": 0.4094488188976378
        },
        {
          "duration": 0.11538462499999014,
          "durationTicks": 60,
          "midi": 64,
          "name": "E4",
          "ticks": 84720,
          "time": 162.9230905,
          "velocity": 0.5669291338582677
        },
        {
          "duration": 0.11538462499999014,
          "durationTicks": 60,
          "midi": 65,
          "name": "F4",
          "ticks": 84800,
          "time": 163.07693666666665,
          "velocity": 0.4409448818897638
        },
        {
          "duration": 0.11538462500001856,
          "durationTicks": 60,
          "midi": 69,
          "name": "A4",
          "ticks": 84840,
          "time": 163.15385974999998,
          "velocity": 0.4409448818897638
        },
        {
          "duration": 0.11538462500001856,
          "durationTicks": 60,
          "midi": 73,
          "name": "C#5",
          "ticks": 84920,
          "time": 163.30770591666663,
          "velocity": 0.4645669291338583
        },
        {
          "duration": 0.30769233333333545,
          "durationTicks": 160,
          "midi": 76,
          "name": "E5",
          "ticks": 84960,
          "time": 163.384629,
          "velocity": 0.6692913385826772
        },
        {
          "duration": 0.30769233333330703,
          "durationTicks": 160,
          "midi": 79,
          "name": "G5",
          "ticks": 85120,
          "time": 163.69232133333333,
          "velocity": 0.7716535433070866
        },
        {
          "duration": 0.3076923333333639,
          "durationTicks": 160,
          "midi": 77,
          "name": "F5",
          "ticks": 85280,
          "time": 164.00001366666663,
          "velocity": 0.5511811023622047
        },
        {
          "duration": 0.09230769999999211,
          "durationTicks": 48,
          "midi": 74,
          "name": "D5",
          "ticks": 85440,
          "time": 164.307706,
          "velocity": 0.5984251968503937
        },
        {
          "duration": 0.09230769999999211,
          "durationTicks": 48,
          "midi": 75,
          "name": "D#5",
          "ticks": 85480,
          "time": 164.38462908333332,
          "velocity": 0.4881889763779528
        },
        {
          "duration": 0.2307692500000087,
          "durationTicks": 120,
          "midi": 76,
          "name": "E5",
          "ticks": 85520,
          "time": 164.46155216666665,
          "velocity": 0.48031496062992124
        },
        {
          "duration": 0.10000000833332479,
          "durationTicks": 52,
          "midi": 74,
          "name": "D5",
          "ticks": 85600,
          "time": 164.61539833333333,
          "velocity": 0.5118110236220472
        },
        {
          "duration": 0.07692308333332676,
          "durationTicks": 40,
          "midi": 69,
          "name": "A4",
          "ticks": 85640,
          "time": 164.69232141666666,
          "velocity": 0.4645669291338583
        },
        {
          "duration": 0.2923077166666701,
          "durationTicks": 152,
          "midi": 65,
          "name": "F4",
          "ticks": 85680,
          "time": 164.76924449999999,
          "velocity": 0.4566929133858268
        },
        {
          "duration": 0.1615384749999862,
          "durationTicks": 84,
          "midi": 64,
          "name": "E4",
          "ticks": 85840,
          "time": 165.07693683333332,
          "velocity": 0.5511811023622047
        },
        {
          "duration": 0.3076923333333639,
          "durationTicks": 160,
          "midi": 62,
          "name": "D4",
          "ticks": 85920,
          "time": 165.23078299999997,
          "velocity": 0.48031496062992124
        },
        {
          "duration": 0.30769233333330703,
          "durationTicks": 160,
          "midi": 67,
          "name": "G4",
          "ticks": 86080,
          "time": 165.53847533333334,
          "velocity": 0.5669291338582677
        },
        {
          "duration": 0.30769233333333545,
          "durationTicks": 160,
          "midi": 65,
          "name": "F4",
          "ticks": 86240,
          "time": 165.84616766666664,
          "velocity": 0.4881889763779528
        },
        {
          "duration": 0.7615385249999918,
          "durationTicks": 396,
          "midi": 64,
          "name": "E4",
          "ticks": 86400,
          "time": 166.15385999999998,
          "velocity": 0.5826771653543307
        },
        {
          "duration": 0.2307692500000087,
          "durationTicks": 120,
          "midi": 68,
          "name": "G#4",
          "ticks": 86800,
          "time": 166.92309083333333,
          "velocity": 0.5748031496062992
        },
        {
          "duration": 0.7615385249999918,
          "durationTicks": 396,
          "midi": 71,
          "name": "B4",
          "ticks": 86880,
          "time": 167.076937,
          "velocity": 0.47244094488188976
        },
        {
          "duration": 0.23076924999998027,
          "durationTicks": 120,
          "midi": 69,
          "name": "A4",
          "ticks": 87280,
          "time": 167.84616783333334,
          "velocity": 0.4566929133858268
        },
        {
          "duration": 0.2846154083333374,
          "durationTicks": 148,
          "midi": 68,
          "name": "G#4",
          "ticks": 87360,
          "time": 168.000014,
          "velocity": 0.5748031496062992
        },
        {
          "duration": 0.6923077499999977,
          "durationTicks": 360,
          "midi": 69,
          "name": "A4",
          "ticks": 87520,
          "time": 168.30770633333333,
          "velocity": 0.41732283464566927
        },
        {
          "duration": 0.2846154083333374,
          "durationTicks": 148,
          "midi": 73,
          "name": "C#5",
          "ticks": 87840,
          "time": 168.923091,
          "velocity": 0.5905511811023622
        },
        {
          "duration": 0.6230769749999752,
          "durationTicks": 324,
          "midi": 76,
          "name": "E5",
          "ticks": 88000,
          "time": 169.23078333333333,
          "velocity": 0.7007874015748031
        },
        {
          "duration": 0.6153846666666709,
          "durationTicks": 320,
          "midi": 68,
          "name": "G#4",
          "ticks": 88320,
          "time": 169.84616799999998,
          "velocity": 0.47244094488188976
        },
        {
          "duration": 0.6153846666666709,
          "durationTicks": 320,
          "midi": 73,
          "name": "C#5",
          "ticks": 88320,
          "time": 169.84616799999998,
          "velocity": 0.47244094488188976
        },
        {
          "duration": 0.6153846666666709,
          "durationTicks": 320,
          "midi": 76,
          "name": "E5",
          "ticks": 88320,
          "time": 169.84616799999998,
          "velocity": 0.47244094488188976
        },
        {
          "duration": 0.6153846666666709,
          "durationTicks": 320,
          "midi": 80,
          "name": "G#5",
          "ticks": 88320,
          "time": 169.84616799999998,
          "velocity": 0.5511811023622047
        },
        {
          "duration": 0.6153846666666709,
          "durationTicks": 320,
          "midi": 69,
          "name": "A4",
          "ticks": 88640,
          "time": 170.46155266666665,
          "velocity": 0.47244094488188976
        },
        {
          "duration": 0.6153846666666709,
          "durationTicks": 320,
          "midi": 73,
          "name": "C#5",
          "ticks": 88640,
          "time": 170.46155266666665,
          "velocity": 0.47244094488188976
        },
        {
          "duration": 0.6153846666666709,
          "durationTicks": 320,
          "midi": 78,
          "name": "F#5",
          "ticks": 88640,
          "time": 170.46155266666665,
          "velocity": 0.47244094488188976
        },
        {
          "duration": 0.6153846666666709,
          "durationTicks": 320,
          "midi": 81,
          "name": "A5",
          "ticks": 88640,
          "time": 170.46155266666665,
          "velocity": 0.6299212598425197
        },
        {
          "duration": 0.30769233333333545,
          "durationTicks": 160,
          "midi": 68,
          "name": "G#4",
          "ticks": 88960,
          "time": 171.07693733333332,
          "velocity": 0.49606299212598426
        },
        {
          "duration": 0.30769233333333545,
          "durationTicks": 160,
          "midi": 73,
          "name": "C#5",
          "ticks": 88960,
          "time": 171.07693733333332,
          "velocity": 0.49606299212598426
        },
        {
          "duration": 0.30769233333333545,
          "durationTicks": 160,
          "midi": 76,
          "name": "E5",
          "ticks": 88960,
          "time": 171.07693733333332,
          "velocity": 0.49606299212598426
        },
        {
          "duration": 0.30769233333333545,
          "durationTicks": 160,
          "midi": 80,
          "name": "G#5",
          "ticks": 88960,
          "time": 171.07693733333332,
          "velocity": 0.49606299212598426
        },
        {
          "duration": 0.30769233333333545,
          "durationTicks": 160,
          "midi": 69,
          "name": "A4",
          "ticks": 89120,
          "time": 171.38462966666665,
          "velocity": 0.4645669291338583
        },
        {
          "duration": 0.30769233333333545,
          "durationTicks": 160,
          "midi": 73,
          "name": "C#5",
          "ticks": 89120,
          "time": 171.38462966666665,
          "velocity": 0.4645669291338583
        },
        {
          "duration": 0.30769233333333545,
          "durationTicks": 160,
          "midi": 78,
          "name": "F#5",
          "ticks": 89120,
          "time": 171.38462966666665,
          "velocity": 0.4645669291338583
        },
        {
          "duration": 0.30769233333333545,
          "durationTicks": 160,
          "midi": 81,
          "name": "A5",
          "ticks": 89120,
          "time": 171.38462966666665,
          "velocity": 0.6377952755905512
        },
        {
          "duration": 1.8461539999999843,
          "durationTicks": 960,
          "midi": 66,
          "name": "F#4",
          "ticks": 89280,
          "time": 171.692322,
          "velocity": 0.4566929133858268
        },
        {
          "duration": 1.8461539999999843,
          "durationTicks": 960,
          "midi": 69,
          "name": "A4",
          "ticks": 89280,
          "time": 171.692322,
          "velocity": 0.4566929133858268
        },
        {
          "duration": 1.8461539999999843,
          "durationTicks": 960,
          "midi": 73,
          "name": "C#5",
          "ticks": 89280,
          "time": 171.692322,
          "velocity": 0.4566929133858268
        },
        {
          "duration": 1.8461539999999843,
          "durationTicks": 960,
          "midi": 78,
          "name": "F#5",
          "ticks": 89280,
          "time": 171.692322,
          "velocity": 0.47244094488188976
        },
        {
          "duration": 0.6153846666666709,
          "durationTicks": 320,
          "midi": 73,
          "name": "C#5",
          "ticks": 90240,
          "time": 173.53847599999997,
          "velocity": 0.4330708661417323
        },
        {
          "duration": 0.6153846666666709,
          "durationTicks": 320,
          "midi": 74,
          "name": "D5",
          "ticks": 90240,
          "time": 173.53847599999997,
          "velocity": 0.4330708661417323
        },
        {
          "duration": 0.6153846666666709,
          "durationTicks": 320,
          "midi": 78,
          "name": "F#5",
          "ticks": 90240,
          "time": 173.53847599999997,
          "velocity": 0.4330708661417323
        },
        {
          "duration": 0.6153846666666709,
          "durationTicks": 320,
          "midi": 80,
          "name": "G#5",
          "ticks": 90240,
          "time": 173.53847599999997,
          "velocity": 0.4330708661417323
        },
        {
          "duration": 1.5384616666666773,
          "durationTicks": 800,
          "midi": 73,
          "name": "C#5",
          "ticks": 90560,
          "time": 174.15386066666665,
          "velocity": 0.3858267716535433
        },
        {
          "duration": 1.5384616666666773,
          "durationTicks": 800,
          "midi": 74,
          "name": "D5",
          "ticks": 90560,
          "time": 174.15386066666665,
          "velocity": 0.3858267716535433
        },
        {
          "duration": 1.5384616666666773,
          "durationTicks": 800,
          "midi": 78,
          "name": "F#5",
          "ticks": 90560,
          "time": 174.15386066666665,
          "velocity": 0.3858267716535433
        },
        {
          "duration": 1.5384616666666773,
          "durationTicks": 800,
          "midi": 80,
          "name": "G#5",
          "ticks": 90560,
          "time": 174.15386066666665,
          "velocity": 0.3858267716535433
        },
        {
          "duration": 1.2307693333333134,
          "durationTicks": 640,
          "midi": 72,
          "name": "C5",
          "ticks": 91360,
          "time": 175.69232233333332,
          "velocity": 0.3937007874015748
        },
        {
          "duration": 1.2307693333333134,
          "durationTicks": 640,
          "midi": 75,
          "name": "D#5",
          "ticks": 91360,
          "time": 175.69232233333332,
          "velocity": 0.3937007874015748
        },
        {
          "duration": 1.2307693333333418,
          "durationTicks": 640,
          "midi": 80,
          "name": "G#5",
          "ticks": 91400,
          "time": 175.76924541666665,
          "velocity": 0.3937007874015748
        },
        {
          "duration": 0.30769233333333545,
          "durationTicks": 160,
          "midi": 78,
          "name": "F#5",
          "ticks": 92000,
          "time": 176.92309166666664,
          "velocity": 0.30708661417322836
        },
        {
          "duration": 2.153846333333348,
          "durationTicks": 1120,
          "midi": 71,
          "name": "B4",
          "ticks": 92160,
          "time": 177.23078399999997,
          "velocity": 0.3464566929133858
        },
        {
          "duration": 2.0692309416666888,
          "durationTicks": 1076,
          "midi": 74,
          "name": "D5",
          "ticks": 92160,
          "time": 177.23078399999997,
          "velocity": 0.3464566929133858
        },
        {
          "duration": 2.153846333333348,
          "durationTicks": 1120,
          "midi": 76,
          "name": "E5",
          "ticks": 92160,
          "time": 177.23078399999997,
          "velocity": 0.3464566929133858
        },
        {
          "duration": 2.1538463333333198,
          "durationTicks": 1120,
          "midi": 80,
          "name": "G#5",
          "ticks": 92200,
          "time": 177.30770708333333,
          "velocity": 0.3464566929133858
        },
        {
          "duration": 0.3000000250000028,
          "durationTicks": 156,
          "midi": 74,
          "name": "D5",
          "ticks": 93280,
          "time": 179.38463033333332,
          "velocity": 0.6141732283464567
        },
        {
          "duration": 0.30769233333333545,
          "durationTicks": 160,
          "midi": 78,
          "name": "F#5",
          "ticks": 93280,
          "time": 179.38463033333332,
          "velocity": 0.6141732283464567
        },
        {
          "duration": 0.30769233333333545,
          "durationTicks": 160,
          "midi": 81,
          "name": "A5",
          "ticks": 93280,
          "time": 179.38463033333332,
          "velocity": 0.6692913385826772
        },
        {
          "duration": 0.6153846666666709,
          "durationTicks": 320,
          "midi": 71,
          "name": "B4",
          "ticks": 93440,
          "time": 179.69232266666666,
          "velocity": 0.6062992125984252
        },
        {
          "duration": 0.6153846666666709,
          "durationTicks": 320,
          "midi": 74,
          "name": "D5",
          "ticks": 93440,
          "time": 179.69232266666666,
          "velocity": 0.6062992125984252
        },
        {
          "duration": 0.6153846666666709,
          "durationTicks": 320,
          "midi": 78,
          "name": "F#5",
          "ticks": 93440,
          "time": 179.69232266666666,
          "velocity": 0.6062992125984252
        },
        {
          "duration": 0.6153846666666709,
          "durationTicks": 320,
          "midi": 73,
          "name": "C#5",
          "ticks": 93760,
          "time": 180.30770733333333,
          "velocity": 0.5905511811023622
        },
        {
          "duration": 0.6153846666666709,
          "durationTicks": 320,
          "midi": 76,
          "name": "E5",
          "ticks": 93760,
          "time": 180.30770733333333,
          "velocity": 0.5905511811023622
        },
        {
          "duration": 0.6153846666666709,
          "durationTicks": 320,
          "midi": 80,
          "name": "G#5",
          "ticks": 93760,
          "time": 180.30770733333333,
          "velocity": 0.6456692913385826
        },
        {
          "duration": 0.684615441666665,
          "durationTicks": 356,
          "midi": 71,
          "name": "B4",
          "ticks": 94080,
          "time": 180.923092,
          "velocity": 0.5118110236220472
        },
        {
          "duration": 1.8384616916666516,
          "durationTicks": 956,
          "midi": 73,
          "name": "C#5",
          "ticks": 94080,
          "time": 180.923092,
          "velocity": 0.5118110236220472
        },
        {
          "duration": 1.8461539999999843,
          "durationTicks": 960,
          "midi": 76,
          "name": "E5",
          "ticks": 94080,
          "time": 180.923092,
          "velocity": 0.5826771653543307
        },
        {
          "duration": 1.2307693333333418,
          "durationTicks": 640,
          "midi": 69,
          "name": "A4",
          "ticks": 94440,
          "time": 181.61539975,
          "velocity": 0.4330708661417323
        },
        {
          "duration": 0.9230770000000064,
          "durationTicks": 480,
          "midi": 73,
          "name": "C#5",
          "ticks": 95160,
          "time": 183.00001525,
          "velocity": 0.5433070866141733
        },
        {
          "duration": 0.46153849999998897,
          "durationTicks": 240,
          "midi": 76,
          "name": "E5",
          "ticks": 95640,
          "time": 183.92309225,
          "velocity": 0.5511811023622047
        },
        {
          "duration": 1.3846154999999953,
          "durationTicks": 720,
          "midi": 78,
          "name": "F#5",
          "ticks": 95880,
          "time": 184.38463074999999,
          "velocity": 0.5590551181102362
        },
        {
          "duration": 0.2307692500000087,
          "durationTicks": 120,
          "midi": 80,
          "name": "G#5",
          "ticks": 96600,
          "time": 185.76924624999998,
          "velocity": 0.5905511811023622
        },
        {
          "duration": 1.9153847749999784,
          "durationTicks": 996,
          "midi": 78,
          "name": "F#5",
          "ticks": 96720,
          "time": 186.0000155,
          "velocity": 0.48031496062992124
        },
        {
          "duration": 1.9153847750000068,
          "durationTicks": 996,
          "midi": 78,
          "name": "F#5",
          "ticks": 97760,
          "time": 188.00001566666666,
          "velocity": 0.6062992125984252
        },
        {
          "duration": 1.9153847749999784,
          "durationTicks": 996,
          "midi": 71,
          "name": "B4",
          "ticks": 98440,
          "time": 189.30770808333332,
          "velocity": 0.4566929133858268
        },
        {
          "duration": 0.23076924999998027,
          "durationTicks": 120,
          "midi": 74,
          "name": "D5",
          "ticks": 99480,
          "time": 191.30770825,
          "velocity": 0.5511811023622047
        },
        {
          "duration": 0.4615385000000174,
          "durationTicks": 240,
          "midi": 78,
          "name": "F#5",
          "ticks": 99600,
          "time": 191.53847749999997,
          "velocity": 0.5669291338582677
        },
        {
          "duration": 1.1538462499999866,
          "durationTicks": 600,
          "midi": 80,
          "name": "G#5",
          "ticks": 99840,
          "time": 192.000016,
          "velocity": 0.5511811023622047
        },
        {
          "duration": 0.9230770000000064,
          "durationTicks": 480,
          "midi": 71,
          "name": "B4",
          "ticks": 100440,
          "time": 193.15386224999997,
          "velocity": 0.41732283464566927
        },
        {
          "duration": 1.0000000833333331,
          "durationTicks": 520,
          "midi": 76,
          "name": "E5",
          "ticks": 100920,
          "time": 194.07693924999998,
          "velocity": 0.4094488188976378
        },
        {
          "duration": 0.30769233333333545,
          "durationTicks": 160,
          "midi": 83,
          "name": "B5",
          "ticks": 101440,
          "time": 195.0769393333333,
          "velocity": 0.6141732283464567
        },
        {
          "duration": 0.30769233333333545,
          "durationTicks": 160,
          "midi": 81,
          "name": "A5",
          "ticks": 101600,
          "time": 195.38463166666665,
          "velocity": 0.5984251968503937
        },
        {
          "duration": 0.6153846666666709,
          "durationTicks": 320,
          "midi": 80,
          "name": "G#5",
          "ticks": 101760,
          "time": 195.69232399999999,
          "velocity": 0.5984251968503937
        },
        {
          "duration": 1.6692309083333328,
          "durationTicks": 868,
          "midi": 73,
          "name": "C#5",
          "ticks": 102080,
          "time": 196.30770866666666,
          "velocity": 0.5748031496062992
        },
        {
          "duration": 0.9000000749999799,
          "durationTicks": 468,
          "midi": 69,
          "name": "A4",
          "ticks": 102960,
          "time": 198.0000165,
          "velocity": 0.49606299212598426
        },
        {
          "duration": 0.8230769916666816,
          "durationTicks": 428,
          "midi": 73,
          "name": "C#5",
          "ticks": 102960,
          "time": 198.0000165,
          "velocity": 0.49606299212598426
        },
        {
          "duration": 0.7461539083333548,
          "durationTicks": 388,
          "midi": 76,
          "name": "E5",
          "ticks": 103000,
          "time": 198.0769395833333,
          "velocity": 0.5511811023622047
        },
        {
          "duration": 0.46153849999998897,
          "durationTicks": 240,
          "midi": 68,
          "name": "G#4",
          "ticks": 103440,
          "time": 198.9230935,
          "velocity": 0.48031496062992124
        },
        {
          "duration": 0.4538461916666563,
          "durationTicks": 236,
          "midi": 73,
          "name": "C#5",
          "ticks": 103440,
          "time": 198.9230935,
          "velocity": 0.48031496062992124
        },
        {
          "duration": 0.4538461916666563,
          "durationTicks": 236,
          "midi": 76,
          "name": "E5",
          "ticks": 103440,
          "time": 198.9230935,
          "velocity": 0.48031496062992124
        },
        {
          "duration": 0.4538461916666563,
          "durationTicks": 236,
          "midi": 80,
          "name": "G#5",
          "ticks": 103440,
          "time": 198.9230935,
          "velocity": 0.48031496062992124
        },
        {
          "duration": 1.2461539500000072,
          "durationTicks": 648,
          "midi": 69,
          "name": "A4",
          "ticks": 103680,
          "time": 199.38463199999998,
          "velocity": 0.5511811023622047
        },
        {
          "duration": 1.1692308666666804,
          "durationTicks": 608,
          "midi": 73,
          "name": "C#5",
          "ticks": 103680,
          "time": 199.38463199999998,
          "velocity": 0.5511811023622047
        },
        {
          "duration": 1.2230770249999807,
          "durationTicks": 636,
          "midi": 78,
          "name": "F#5",
          "ticks": 103680,
          "time": 199.38463199999998,
          "velocity": 0.5511811023622047
        },
        {
          "duration": 1.2230770249999807,
          "durationTicks": 636,
          "midi": 81,
          "name": "A5",
          "ticks": 103680,
          "time": 199.38463199999998,
          "velocity": 0.5511811023622047
        },
        {
          "duration": 0.6923077499999977,
          "durationTicks": 360,
          "midi": 71,
          "name": "B4",
          "ticks": 104320,
          "time": 200.61540133333332,
          "velocity": 0.4094488188976378
        },
        {
          "duration": 0.6923077499999977,
          "durationTicks": 360,
          "midi": 83,
          "name": "B5",
          "ticks": 104320,
          "time": 200.61540133333332,
          "velocity": 0.5039370078740157
        },
        {
          "duration": 1.5307693583333162,
          "durationTicks": 796,
          "midi": 69,
          "name": "A4",
          "ticks": 104640,
          "time": 201.230786,
          "velocity": 0.3858267716535433
        },
        {
          "duration": 1.5384616666666489,
          "durationTicks": 800,
          "midi": 73,
          "name": "C#5",
          "ticks": 104640,
          "time": 201.230786,
          "velocity": 0.3858267716535433
        },
        {
          "duration": 1.5384616666666489,
          "durationTicks": 800,
          "midi": 78,
          "name": "F#5",
          "ticks": 104640,
          "time": 201.230786,
          "velocity": 0.3858267716535433
        },
        {
          "duration": 1.5384616666666489,
          "durationTicks": 800,
          "midi": 81,
          "name": "A5",
          "ticks": 104640,
          "time": 201.230786,
          "velocity": 0.3858267716535433
        },
        {
          "duration": 0.3000000250000028,
          "durationTicks": 156,
          "midi": 69,
          "name": "A4",
          "ticks": 105440,
          "time": 202.76924766666664,
          "velocity": 0.4881889763779528
        },
        {
          "duration": 0.4615385000000174,
          "durationTicks": 240,
          "midi": 69,
          "name": "A4",
          "ticks": 105600,
          "time": 203.07693999999998,
          "velocity": 0.5669291338582677
        },
        {
          "duration": 0.9230769999999779,
          "durationTicks": 480,
          "midi": 59,
          "name": "B3",
          "ticks": 105840,
          "time": 203.5384785,
          "velocity": 0.5196850393700787
        },
        {
          "duration": 0.4615385000000174,
          "durationTicks": 240,
          "midi": 61,
          "name": "C#4",
          "ticks": 106320,
          "time": 204.46155549999997,
          "velocity": 0.5748031496062992
        },
        {
          "duration": 0.46153849999998897,
          "durationTicks": 240,
          "midi": 62,
          "name": "D4",
          "ticks": 106560,
          "time": 204.923094,
          "velocity": 0.6220472440944882
        },
        {
          "duration": 0.46153849999998897,
          "durationTicks": 240,
          "midi": 64,
          "name": "E4",
          "ticks": 106800,
          "time": 205.38463249999998,
          "velocity": 0.5196850393700787
        },
        {
          "duration": 0.4615385000000174,
          "durationTicks": 240,
          "midi": 66,
          "name": "F#4",
          "ticks": 107040,
          "time": 205.84617099999997,
          "velocity": 0.6220472440944882
        },
        {
          "duration": 0.46153849999998897,
          "durationTicks": 240,
          "midi": 69,
          "name": "A4",
          "ticks": 107280,
          "time": 206.3077095,
          "velocity": 0.5905511811023622
        },
        {
          "duration": 1.1461539416666824,
          "durationTicks": 596,
          "midi": 63,
          "name": "D#4",
          "ticks": 107520,
          "time": 206.76924799999998,
          "velocity": 0.47244094488188976
        },
        {
          "duration": 1.1461539416666824,
          "durationTicks": 596,
          "midi": 66,
          "name": "F#4",
          "ticks": 107520,
          "time": 206.76924799999998,
          "velocity": 0.47244094488188976
        },
        {
          "duration": 1.1461539416666824,
          "durationTicks": 596,
          "midi": 70,
          "name": "A#4",
          "ticks": 107520,
          "time": 206.76924799999998,
          "velocity": 0.47244094488188976
        },
        {
          "duration": 1.1461539416666824,
          "durationTicks": 596,
          "midi": 73,
          "name": "C#5",
          "ticks": 107520,
          "time": 206.76924799999998,
          "velocity": 0.47244094488188976
        },
        {
          "duration": 0.3000000250000028,
          "durationTicks": 156,
          "midi": 59,
          "name": "B3",
          "ticks": 108000,
          "time": 207.69232499999998,
          "velocity": 0.29133858267716534
        },
        {
          "duration": 0.3000000250000028,
          "durationTicks": 156,
          "midi": 63,
          "name": "D#4",
          "ticks": 108160,
          "time": 208.00001733333332,
          "velocity": 0.33858267716535434
        },
        {
          "duration": 0.2307692500000087,
          "durationTicks": 120,
          "midi": 66,
          "name": "F#4",
          "ticks": 108280,
          "time": 208.23078658333333,
          "velocity": 0.31496062992125984
        },
        {
          "duration": 0.23076924999998027,
          "durationTicks": 120,
          "midi": 68,
          "name": "G#4",
          "ticks": 108400,
          "time": 208.46155583333334,
          "velocity": 0.31496062992125984
        },
        {
          "duration": 1.3846154999999953,
          "durationTicks": 720,
          "midi": 64,
          "name": "E4",
          "ticks": 108520,
          "time": 208.69232508333332,
          "velocity": 0.4015748031496063
        },
        {
          "duration": 1.3769231916666627,
          "durationTicks": 716,
          "midi": 69,
          "name": "A4",
          "ticks": 108520,
          "time": 208.69232508333332,
          "velocity": 0.4330708661417323
        },
        {
          "duration": 0.4538461916666847,
          "durationTicks": 236,
          "midi": 68,
          "name": "G#4",
          "ticks": 109200,
          "time": 210.00001749999998,
          "velocity": 0.3700787401574803
        },
        {
          "duration": 0.6230769749999752,
          "durationTicks": 324,
          "midi": 64,
          "name": "E4",
          "ticks": 109600,
          "time": 210.76924833333334,
          "velocity": 0.47244094488188976
        },
        {
          "duration": 0.6230769749999752,
          "durationTicks": 324,
          "midi": 69,
          "name": "A4",
          "ticks": 109600,
          "time": 210.76924833333334,
          "velocity": 0.47244094488188976
        },
        {
          "duration": 1.153846250000015,
          "durationTicks": 600,
          "midi": 64,
          "name": "E4",
          "ticks": 109920,
          "time": 211.38463299999998,
          "velocity": 0.48031496062992124
        },
        {
          "duration": 1.1461539416666824,
          "durationTicks": 596,
          "midi": 69,
          "name": "A4",
          "ticks": 109920,
          "time": 211.38463299999998,
          "velocity": 0.48031496062992124
        },
        {
          "duration": 1.0846154749999926,
          "durationTicks": 564,
          "midi": 64,
          "name": "E4",
          "ticks": 110560,
          "time": 212.61540233333332,
          "velocity": 0.36220472440944884
        },
        {
          "duration": 1.0846154749999926,
          "durationTicks": 564,
          "midi": 69,
          "name": "A4",
          "ticks": 110560,
          "time": 212.61540233333332,
          "velocity": 0.36220472440944884
        },
        {
          "duration": 0.15384616666665352,
          "durationTicks": 80,
          "midi": 68,
          "name": "G#4",
          "ticks": 111120,
          "time": 213.69232549999998,
          "velocity": 0.4566929133858268
        },
        {
          "duration": 0.15384616666668194,
          "durationTicks": 80,
          "midi": 66,
          "name": "F#4",
          "ticks": 111200,
          "time": 213.84617166666663,
          "velocity": 0.41732283464566927
        },
        {
          "duration": 0.15384616666665352,
          "durationTicks": 80,
          "midi": 68,
          "name": "G#4",
          "ticks": 111280,
          "time": 214.00001783333332,
          "velocity": 0.4566929133858268
        },
        {
          "duration": 0.2307692500000087,
          "durationTicks": 120,
          "midi": 64,
          "name": "E4",
          "ticks": 111360,
          "time": 214.15386399999997,
          "velocity": 0.4330708661417323
        },
        {
          "duration": 0.6923077499999977,
          "durationTicks": 360,
          "midi": 66,
          "name": "F#4",
          "ticks": 111480,
          "time": 214.38463324999998,
          "velocity": 0.5275590551181102
        },
        {
          "duration": 0.6923077499999977,
          "durationTicks": 360,
          "midi": 69,
          "name": "A4",
          "ticks": 111480,
          "time": 214.38463324999998,
          "velocity": 0.5275590551181102
        },
        {
          "duration": 0.6923077499999977,
          "durationTicks": 360,
          "midi": 76,
          "name": "E5",
          "ticks": 111480,
          "time": 214.38463324999998,
          "velocity": 0.5275590551181102
        },
        {
          "duration": 0.2307692500000087,
          "durationTicks": 120,
          "midi": 69,
          "name": "A4",
          "ticks": 111840,
          "time": 215.07694099999998,
          "velocity": 0.49606299212598426
        },
        {
          "duration": 0.2307692500000087,
          "durationTicks": 120,
          "midi": 72,
          "name": "C5",
          "ticks": 111840,
          "time": 215.07694099999998,
          "velocity": 0.49606299212598426
        },
        {
          "duration": 0.2307692500000087,
          "durationTicks": 120,
          "midi": 79,
          "name": "G5",
          "ticks": 111840,
          "time": 215.07694099999998,
          "velocity": 0.49606299212598426
        },
        {
          "duration": 0.2307692500000087,
          "durationTicks": 120,
          "midi": 67,
          "name": "G4",
          "ticks": 111960,
          "time": 215.30771024999999,
          "velocity": 0.47244094488188976
        },
        {
          "duration": 0.2307692500000087,
          "durationTicks": 120,
          "midi": 71,
          "name": "B4",
          "ticks": 111960,
          "time": 215.30771024999999,
          "velocity": 0.47244094488188976
        },
        {
          "duration": 0.2307692500000087,
          "durationTicks": 120,
          "midi": 77,
          "name": "F5",
          "ticks": 111960,
          "time": 215.30771024999999,
          "velocity": 0.47244094488188976
        },
        {
          "duration": 0.09230769999999211,
          "durationTicks": 48,
          "midi": 68,
          "name": "G#4",
          "ticks": 112080,
          "time": 215.5384795,
          "velocity": 0.4881889763779528
        },
        {
          "duration": 0.2307692500000087,
          "durationTicks": 120,
          "midi": 65,
          "name": "F4",
          "ticks": 112120,
          "time": 215.61540258333332,
          "velocity": 0.49606299212598426
        },
        {
          "duration": 0.2307692500000087,
          "durationTicks": 120,
          "midi": 69,
          "name": "A4",
          "ticks": 112120,
          "time": 215.61540258333332,
          "velocity": 0.49606299212598426
        },
        {
          "duration": 0.2307692500000087,
          "durationTicks": 120,
          "midi": 76,
          "name": "E5",
          "ticks": 112120,
          "time": 215.61540258333332,
          "velocity": 0.49606299212598426
        },
        {
          "duration": 0.1307692416666839,
          "durationTicks": 68,
          "midi": 73,
          "name": "C#5",
          "ticks": 112200,
          "time": 215.76924874999997,
          "velocity": 0.49606299212598426
        },
        {
          "duration": 0.1307692416666555,
          "durationTicks": 68,
          "midi": 69,
          "name": "A4",
          "ticks": 112240,
          "time": 215.84617183333333,
          "velocity": 0.49606299212598426
        },
        {
          "duration": 0.10769231666668588,
          "durationTicks": 56,
          "midi": 65,
          "name": "F4",
          "ticks": 112320,
          "time": 216.00001799999998,
          "velocity": 0.49606299212598426
        },
        {
          "duration": 0.30000002499997436,
          "durationTicks": 156,
          "midi": 65,
          "name": "F4",
          "ticks": 112360,
          "time": 216.07694108333334,
          "velocity": 0.49606299212598426
        },
        {
          "duration": 0.30000002499997436,
          "durationTicks": 156,
          "midi": 69,
          "name": "A4",
          "ticks": 112360,
          "time": 216.07694108333334,
          "velocity": 0.49606299212598426
        },
        {
          "duration": 0.30769233333330703,
          "durationTicks": 160,
          "midi": 76,
          "name": "E5",
          "ticks": 112360,
          "time": 216.07694108333334,
          "velocity": 0.49606299212598426
        },
        {
          "duration": 0.30769233333333545,
          "durationTicks": 160,
          "midi": 65,
          "name": "F4",
          "ticks": 112520,
          "time": 216.38463341666665,
          "velocity": 0.49606299212598426
        },
        {
          "duration": 0.30769233333333545,
          "durationTicks": 160,
          "midi": 69,
          "name": "A4",
          "ticks": 112520,
          "time": 216.38463341666665,
          "velocity": 0.49606299212598426
        },
        {
          "duration": 0.30769233333333545,
          "durationTicks": 160,
          "midi": 74,
          "name": "D5",
          "ticks": 112520,
          "time": 216.38463341666665,
          "velocity": 0.49606299212598426
        },
        {
          "duration": 0.30769233333333545,
          "durationTicks": 160,
          "midi": 71,
          "name": "B4",
          "ticks": 112680,
          "time": 216.69232574999998,
          "velocity": 0.48031496062992124
        },
        {
          "duration": 0.30769233333333545,
          "durationTicks": 160,
          "midi": 69,
          "name": "A4",
          "ticks": 112840,
          "time": 217.00001808333332,
          "velocity": 0.5196850393700787
        },
        {
          "duration": 0.6153846666666709,
          "durationTicks": 320,
          "midi": 71,
          "name": "B4",
          "ticks": 113000,
          "time": 217.30771041666665,
          "velocity": 0.5196850393700787
        },
        {
          "duration": 1.8384616916666516,
          "durationTicks": 956,
          "midi": 64,
          "name": "E4",
          "ticks": 113280,
          "time": 217.846172,
          "velocity": 0.3858267716535433
        },
        {
          "duration": 1.8384616916666516,
          "durationTicks": 956,
          "midi": 68,
          "name": "G#4",
          "ticks": 113280,
          "time": 217.846172,
          "velocity": 0.3858267716535433
        },
        {
          "duration": 0.30000002499997436,
          "durationTicks": 156,
          "midi": 73,
          "name": "C#5",
          "ticks": 113280,
          "time": 217.846172,
          "velocity": 0.3858267716535433
        },
        {
          "duration": 1.5307693583333162,
          "durationTicks": 796,
          "midi": 73,
          "name": "C#5",
          "ticks": 113440,
          "time": 218.15386433333333,
          "velocity": 0.3779527559055118
        },
        {
          "duration": 1.2307693333333418,
          "durationTicks": 640,
          "midi": 64,
          "name": "E4",
          "ticks": 114240,
          "time": 219.69232599999998,
          "velocity": 0.36220472440944884
        },
        {
          "duration": 1.2307693333333418,
          "durationTicks": 640,
          "midi": 66,
          "name": "F#4",
          "ticks": 114240,
          "time": 219.69232599999998,
          "velocity": 0.36220472440944884
        },
        {
          "duration": 1.2307693333333418,
          "durationTicks": 640,
          "midi": 73,
          "name": "C#5",
          "ticks": 114240,
          "time": 219.69232599999998,
          "velocity": 0.36220472440944884
        },
        {
          "duration": 0.30769233333330703,
          "durationTicks": 160,
          "midi": 71,
          "name": "B4",
          "ticks": 114880,
          "time": 220.92309533333332,
          "velocity": 0.4409448818897638
        },
        {
          "duration": 0.3076923333333639,
          "durationTicks": 160,
          "midi": 69,
          "name": "A4",
          "ticks": 115040,
          "time": 221.23078766666663,
          "velocity": 0.33070866141732286
        },
        {
          "duration": 0.992307774999972,
          "durationTicks": 516,
          "midi": 61,
          "name": "C#4",
          "ticks": 115200,
          "time": 221.53848,
          "velocity": 0.41732283464566927
        },
        {
          "duration": 2.2230771083333423,
          "durationTicks": 1156,
          "midi": 73,
          "name": "C#5",
          "ticks": 115680,
          "time": 222.46155699999997,
          "velocity": 0.3464566929133858
        },
        {
          "duration": 0.3000000250000312,
          "durationTicks": 156,
          "midi": 66,
          "name": "F#4",
          "ticks": 116960,
          "time": 224.92309566666663,
          "velocity": 0.4566929133858268
        },
        {
          "duration": 1.1538462499999866,
          "durationTicks": 600,
          "midi": 66,
          "name": "F#4",
          "ticks": 117120,
          "time": 225.230788,
          "velocity": 0.3700787401574803
        },
        {
          "duration": 1.1538462499999866,
          "durationTicks": 600,
          "midi": 69,
          "name": "A4",
          "ticks": 117120,
          "time": 225.230788,
          "velocity": 0.3700787401574803
        },
        {
          "duration": 0.9230770000000064,
          "durationTicks": 480,
          "midi": 59,
          "name": "B3",
          "ticks": 117720,
          "time": 226.38463424999998,
          "velocity": 0.28346456692913385
        },
        {
          "duration": 1.0000000833333331,
          "durationTicks": 520,
          "midi": 62,
          "name": "D4",
          "ticks": 118200,
          "time": 227.30771124999998,
          "velocity": 0.4645669291338583
        },
        {
          "duration": 0.30769233333333545,
          "durationTicks": 160,
          "midi": 66,
          "name": "F#4",
          "ticks": 118720,
          "time": 228.30771133333332,
          "velocity": 0.4330708661417323
        },
        {
          "duration": 0.30769233333333545,
          "durationTicks": 160,
          "midi": 69,
          "name": "A4",
          "ticks": 118880,
          "time": 228.61540366666665,
          "velocity": 0.44881889763779526
        },
        {
          "duration": 0.9230770000000064,
          "durationTicks": 480,
          "midi": 68,
          "name": "G#4",
          "ticks": 119040,
          "time": 228.923096,
          "velocity": 0.30708661417322836
        },
        {
          "duration": 0.9230770000000064,
          "durationTicks": 480,
          "midi": 71,
          "name": "B4",
          "ticks": 119040,
          "time": 228.923096,
          "velocity": 0.36220472440944884
        },
        {
          "duration": 0.9230769999999779,
          "durationTicks": 480,
          "midi": 67,
          "name": "G4",
          "ticks": 119520,
          "time": 229.846173,
          "velocity": 0.33070866141732286
        },
        {
          "duration": 0.9230769999999779,
          "durationTicks": 480,
          "midi": 73,
          "name": "C#5",
          "ticks": 119520,
          "time": 229.846173,
          "velocity": 0.3858267716535433
        },
        {
          "duration": 0.884615458333343,
          "durationTicks": 460,
          "midi": 66,
          "name": "F#4",
          "ticks": 120000,
          "time": 230.76924999999997,
          "velocity": 0.31496062992125984
        },
        {
          "duration": 0.884615458333343,
          "durationTicks": 460,
          "midi": 69,
          "name": "A4",
          "ticks": 120000,
          "time": 230.76924999999997,
          "velocity": 0.3700787401574803
        },
        {
          "duration": 0.7615385249999918,
          "durationTicks": 396,
          "midi": 66,
          "name": "F#4",
          "ticks": 120480,
          "time": 231.69232699999998,
          "velocity": 0.31496062992125984
        },
        {
          "duration": 0.9153846916666737,
          "durationTicks": 476,
          "midi": 71,
          "name": "B4",
          "ticks": 120480,
          "time": 231.69232699999998,
          "velocity": 0.3700787401574803
        },
        {
          "duration": 0.19230770833334532,
          "durationTicks": 100,
          "midi": 76,
          "name": "E5",
          "ticks": 120840,
          "time": 232.38463474999998,
          "velocity": 0.4881889763779528
        },
        {
          "duration": 1.0692308583333272,
          "durationTicks": 556,
          "midi": 76,
          "name": "E5",
          "ticks": 120960,
          "time": 232.61540399999998,
          "velocity": 0.4409448818897638
        },
        {
          "duration": 0.3076923333333639,
          "durationTicks": 160,
          "midi": 69,
          "name": "A4",
          "ticks": 121560,
          "time": 233.76925024999997,
          "velocity": 0.3937007874015748
        },
        {
          "duration": 0.30769233333333545,
          "durationTicks": 160,
          "midi": 73,
          "name": "C#5",
          "ticks": 121680,
          "time": 234.00001949999998,
          "velocity": 0.4015748031496063
        },
        {
          "duration": 0.30769233333333545,
          "durationTicks": 160,
          "midi": 76,
          "name": "E5",
          "ticks": 121800,
          "time": 234.23078875,
          "velocity": 0.4645669291338583
        },
        {
          "duration": 0.6076923583333382,
          "durationTicks": 316,
          "midi": 78,
          "name": "F#5",
          "ticks": 121920,
          "time": 234.46155799999997,
          "velocity": 0.5511811023622047
        },
        {
          "duration": 0.37692310833332954,
          "durationTicks": 196,
          "midi": 80,
          "name": "G#5",
          "ticks": 122160,
          "time": 234.92309649999999,
          "velocity": 0.5275590551181102
        },
        {
          "duration": 1.146153941666654,
          "durationTicks": 596,
          "midi": 78,
          "name": "F#5",
          "ticks": 122280,
          "time": 235.15386575,
          "velocity": 0.3543307086614173
        },
        {
          "duration": 0.3000000250000596,
          "durationTicks": 156,
          "midi": 78,
          "name": "F#5",
          "ticks": 123040,
          "time": 236.6154043333333,
          "velocity": 0.4881889763779528
        },
        {
          "duration": 0.30769233333333545,
          "durationTicks": 160,
          "midi": 71,
          "name": "B4",
          "ticks": 123200,
          "time": 236.92309666666665,
          "velocity": 0.5669291338582677
        },
        {
          "duration": 0.23076924999998027,
          "durationTicks": 120,
          "midi": 74,
          "name": "D5",
          "ticks": 123360,
          "time": 237.230789,
          "velocity": 0.49606299212598426
        },
        {
          "duration": 0.2307692500000087,
          "durationTicks": 120,
          "midi": 78,
          "name": "F#5",
          "ticks": 123480,
          "time": 237.46155824999997,
          "velocity": 0.4566929133858268
        },
        {
          "duration": 0.2307692500000087,
          "durationTicks": 120,
          "midi": 81,
          "name": "A5",
          "ticks": 123600,
          "time": 237.69232749999998,
          "velocity": 0.5826771653543307
        },
        {
          "duration": 0.2307692500000087,
          "durationTicks": 120,
          "midi": 85,
          "name": "C#6",
          "ticks": 123720,
          "time": 237.92309674999998,
          "velocity": 0.49606299212598426
        },
        {
          "duration": 0.23076924999998027,
          "durationTicks": 120,
          "midi": 88,
          "name": "E6",
          "ticks": 123840,
          "time": 238.153866,
          "velocity": 0.6141732283464567
        },
        {
          "duration": 0.06923077499999408,
          "durationTicks": 36,
          "midi": 84,
          "name": "C6",
          "ticks": 123960,
          "time": 238.38463524999997,
          "velocity": 0.5354330708661418
        },
        {
          "duration": 0.06923077499999408,
          "durationTicks": 36,
          "midi": 77,
          "name": "F5",
          "ticks": 124040,
          "time": 238.53848141666666,
          "velocity": 0.5039370078740157
        },
        {
          "duration": 0.2307692500000087,
          "durationTicks": 120,
          "midi": 76,
          "name": "E5",
          "ticks": 124080,
          "time": 238.61540449999998,
          "velocity": 0.48031496062992124
        },
        {
          "duration": 0.23076924999998027,
          "durationTicks": 120,
          "midi": 74,
          "name": "D5",
          "ticks": 124200,
          "time": 238.84617375,
          "velocity": 0.4251968503937008
        },
        {
          "duration": 0.24615386666667405,
          "durationTicks": 128,
          "midi": 76,
          "name": "E5",
          "ticks": 124320,
          "time": 239.07694299999997,
          "velocity": 0.5748031496062992
        },
        {
          "duration": 0.06923077499999408,
          "durationTicks": 36,
          "midi": 74,
          "name": "D5",
          "ticks": 124440,
          "time": 239.30771224999998,
          "velocity": 0.5354330708661418
        },
        {
          "duration": 0.0692307750000225,
          "durationTicks": 36,
          "midi": 69,
          "name": "A4",
          "ticks": 124480,
          "time": 239.3846353333333,
          "velocity": 0.3700787401574803
        },
        {
          "duration": 0.06923077499999408,
          "durationTicks": 36,
          "midi": 65,
          "name": "F4",
          "ticks": 124520,
          "time": 239.46155841666666,
          "velocity": 0.3464566929133858
        },
        {
          "duration": 0.23076924999998027,
          "durationTicks": 120,
          "midi": 64,
          "name": "E4",
          "ticks": 124560,
          "time": 239.5384815,
          "velocity": 0.4330708661417323
        },
        {
          "duration": 0.2307692500000087,
          "durationTicks": 120,
          "midi": 62,
          "name": "D4",
          "ticks": 124680,
          "time": 239.76925074999997,
          "velocity": 0.3937007874015748
        },
        {
          "duration": 0.30769233333330703,
          "durationTicks": 160,
          "midi": 64,
          "name": "E4",
          "ticks": 124800,
          "time": 240.00001999999998,
          "velocity": 0.4881889763779528
        },
        {
          "duration": 0.3076923333333923,
          "durationTicks": 160,
          "midi": 66,
          "name": "F#4",
          "ticks": 124960,
          "time": 240.30771233333328,
          "velocity": 0.4330708661417323
        },
        {
          "duration": 0.30769233333330703,
          "durationTicks": 160,
          "midi": 68,
          "name": "G#4",
          "ticks": 125120,
          "time": 240.61540466666668,
          "velocity": 0.4330708661417323
        },
        {
          "duration": 0.30769233333330703,
          "durationTicks": 160,
          "midi": 69,
          "name": "A4",
          "ticks": 125280,
          "time": 240.92309699999998,
          "velocity": 0.4251968503937008
        },
        {
          "duration": 0.3076923333333639,
          "durationTicks": 160,
          "midi": 71,
          "name": "B4",
          "ticks": 125440,
          "time": 241.2307893333333,
          "velocity": 0.44881889763779526
        },
        {
          "duration": 0.30769233333333545,
          "durationTicks": 160,
          "midi": 73,
          "name": "C#5",
          "ticks": 125600,
          "time": 241.53848166666666,
          "velocity": 0.4330708661417323
        },
        {
          "duration": 0.9230769999999779,
          "durationTicks": 480,
          "midi": 69,
          "name": "A4",
          "ticks": 125760,
          "time": 241.846174,
          "velocity": 0.30708661417322836
        },
        {
          "duration": 0.9230769999999779,
          "durationTicks": 480,
          "midi": 73,
          "name": "C#5",
          "ticks": 125760,
          "time": 241.846174,
          "velocity": 0.31496062992125984
        },
        {
          "duration": 0.9230769999999779,
          "durationTicks": 480,
          "midi": 74,
          "name": "D5",
          "ticks": 125760,
          "time": 241.846174,
          "velocity": 0.44881889763779526
        },
        {
          "duration": 0.9230770000000064,
          "durationTicks": 480,
          "midi": 66,
          "name": "F#4",
          "ticks": 126240,
          "time": 242.76925099999997,
          "velocity": 0.4094488188976378
        },
        {
          "duration": 0.9230770000000064,
          "durationTicks": 480,
          "midi": 68,
          "name": "G#4",
          "ticks": 126240,
          "time": 242.76925099999997,
          "velocity": 0.4094488188976378
        },
        {
          "duration": 0.4615385000000174,
          "durationTicks": 240,
          "midi": 62,
          "name": "D4",
          "ticks": 126720,
          "time": 243.69232799999997,
          "velocity": 0.3700787401574803
        },
        {
          "duration": 0.4615385000000174,
          "durationTicks": 240,
          "midi": 64,
          "name": "E4",
          "ticks": 126720,
          "time": 243.69232799999997,
          "velocity": 0.3700787401574803
        },
        {
          "duration": 0.4615385000000174,
          "durationTicks": 240,
          "midi": 69,
          "name": "A4",
          "ticks": 126720,
          "time": 243.69232799999997,
          "velocity": 0.44881889763779526
        },
        {
          "duration": 0.46153849999998897,
          "durationTicks": 240,
          "midi": 61,
          "name": "C#4",
          "ticks": 126960,
          "time": 244.1538665,
          "velocity": 0.4251968503937008
        },
        {
          "duration": 1.1461539416666824,
          "durationTicks": 596,
          "midi": 64,
          "name": "E4",
          "ticks": 127200,
          "time": 244.61540499999998,
          "velocity": 0.36220472440944884
        },
        {
          "duration": 1.1461539416666824,
          "durationTicks": 596,
          "midi": 71,
          "name": "B4",
          "ticks": 127200,
          "time": 244.61540499999998,
          "velocity": 0.41732283464566927
        },
        {
          "duration": 0.22307694166667602,
          "durationTicks": 116,
          "midi": 68,
          "name": "G#4",
          "ticks": 127800,
          "time": 245.76925124999997,
          "velocity": 0.33070866141732286
        },
        {
          "duration": 0.22307694166667602,
          "durationTicks": 116,
          "midi": 73,
          "name": "C#5",
          "ticks": 127800,
          "time": 245.76925124999997,
          "velocity": 0.33070866141732286
        },
        {
          "duration": 0.22307694166667602,
          "durationTicks": 116,
          "midi": 76,
          "name": "E5",
          "ticks": 127800,
          "time": 245.76925124999997,
          "velocity": 0.33070866141732286
        },
        {
          "duration": 0.22307694166667602,
          "durationTicks": 116,
          "midi": 80,
          "name": "G#5",
          "ticks": 127800,
          "time": 245.76925124999997,
          "velocity": 0.3937007874015748
        },
        {
          "duration": 0.22307694166667602,
          "durationTicks": 116,
          "midi": 71,
          "name": "B4",
          "ticks": 127920,
          "time": 246.00002049999998,
          "velocity": 0.36220472440944884
        },
        {
          "duration": 0.22307694166667602,
          "durationTicks": 116,
          "midi": 83,
          "name": "B5",
          "ticks": 127920,
          "time": 246.00002049999998,
          "velocity": 0.36220472440944884
        },
        {
          "duration": 0.22307694166667602,
          "durationTicks": 116,
          "midi": 69,
          "name": "A4",
          "ticks": 128040,
          "time": 246.23078974999999,
          "velocity": 0.3543307086614173
        },
        {
          "duration": 0.22307694166667602,
          "durationTicks": 116,
          "midi": 81,
          "name": "A5",
          "ticks": 128040,
          "time": 246.23078974999999,
          "velocity": 0.3543307086614173
        },
        {
          "duration": 3.692307999999997,
          "durationTicks": 1920,
          "midi": 73,
          "name": "C#5",
          "ticks": 128160,
          "time": 246.461559,
          "velocity": 0.29133858267716534
        },
        {
          "duration": 3.692307999999997,
          "durationTicks": 1920,
          "midi": 83,
          "name": "B5",
          "ticks": 128160,
          "time": 246.461559,
          "velocity": 0.29133858267716534
        },
        {
          "duration": 3.692307999999997,
          "durationTicks": 1920,
          "midi": 88,
          "name": "E6",
          "ticks": 128160,
          "time": 246.461559,
          "velocity": 0.29133858267716534
        }
      ],
      "endOfTrackTicks": 130560
    },
    {
      "channel": 1,
      "controlChanges": {
        "0": [
          {
            "number": 0,
            "ticks": 1680,
            "time": 3.2307694999999996,
            "value": 0
          }
        ],
        "7": [
          {
            "number": 7,
            "ticks": 0,
            "time": 0,
            "value": 0.6299212598425197
          }
        ],
        "10": [
          {
            "number": 10,
            "ticks": 0,
            "time": 0,
            "value": 0.4330708661417323
          }
        ],
        "32": [
          {
            "number": 32,
            "ticks": 1680,
            "time": 3.2307694999999996,
            "value": 0
          }
        ],
        "64": [
          {
            "number": 64,
            "ticks": 0,
            "time": 0,
            "value": 0
          },
          {
            "number": 64,
            "ticks": 17288,
            "time": 33.24615661666666,
            "value": 1
          },
          {
            "number": 64,
            "ticks": 19192,
            "time": 36.90769538333333,
            "value": 0
          },
          {
            "number": 64,
            "ticks": 19208,
            "time": 36.938464616666664,
            "value": 1
          },
          {
            "number": 64,
            "ticks": 20632,
            "time": 39.67692638333333,
            "value": 0
          },
          {
            "number": 64,
            "ticks": 20660,
            "time": 39.73077254166666,
            "value": 1
          },
          {
            "number": 64,
            "ticks": 21112,
            "time": 40.60000338333333,
            "value": 0
          },
          {
            "number": 64,
            "ticks": 127220,
            "time": 244.65386654166667,
            "value": 1
          }
        ],
        "91": [
          {
            "number": 91,
            "ticks": 0,
            "time": 0,
            "value": 0.08661417322834646
          }
        ],
        "93": [
          {
            "number": 93,
            "ticks": 0,
            "time": 0,
            "value": 0.03937007874015748
          }
        ]
      },
      "pitchBends": [
        {
          "ticks": 240,
          "time": 0.46153849999999996,
          "value": 0
        }
      ],
      "instrument": {
        "family": "piano",
        "number": 0,
        "name": "acoustic grand piano"
      },
      "name": "Piano/Left Hand",
      "notes": [
        {
          "duration": 1.9153847749999997,
          "durationTicks": 996,
          "midi": 56,
          "name": "G#3",
          "ticks": 2400,
          "time": 4.615385,
          "velocity": 0.30708661417322836
        },
        {
          "duration": 1.9153847749999997,
          "durationTicks": 996,
          "midi": 61,
          "name": "C#4",
          "ticks": 2400,
          "time": 4.615385,
          "velocity": 0.30708661417322836
        },
        {
          "duration": 1.9923078583333327,
          "durationTicks": 1036,
          "midi": 64,
          "name": "E4",
          "ticks": 2400,
          "time": 4.615385,
          "velocity": 0.30708661417322836
        },
        {
          "duration": 0.7615385249999997,
          "durationTicks": 396,
          "midi": 56,
          "name": "G#3",
          "ticks": 3440,
          "time": 6.615385166666666,
          "velocity": 0.25984251968503935
        },
        {
          "duration": 0.7615385249999997,
          "durationTicks": 396,
          "midi": 61,
          "name": "C#4",
          "ticks": 3440,
          "time": 6.615385166666666,
          "velocity": 0.25984251968503935
        },
        {
          "duration": 0.7615385249999997,
          "durationTicks": 396,
          "midi": 64,
          "name": "E4",
          "ticks": 3440,
          "time": 6.615385166666666,
          "velocity": 0.25984251968503935
        },
        {
          "duration": 0.9230769999999993,
          "durationTicks": 480,
          "midi": 59,
          "name": "B3",
          "ticks": 3840,
          "time": 7.384615999999999,
          "velocity": 0.3700787401574803
        },
        {
          "duration": 0.9230769999999993,
          "durationTicks": 480,
          "midi": 63,
          "name": "D#4",
          "ticks": 3840,
          "time": 7.384615999999999,
          "velocity": 0.3700787401574803
        },
        {
          "duration": 0.9230769999999993,
          "durationTicks": 480,
          "midi": 64,
          "name": "E4",
          "ticks": 3840,
          "time": 7.384615999999999,
          "velocity": 0.3700787401574803
        },
        {
          "duration": 0.9230769999999993,
          "durationTicks": 480,
          "midi": 68,
          "name": "G#4",
          "ticks": 3840,
          "time": 7.384615999999999,
          "velocity": 0.3700787401574803
        },
        {
          "duration": 0.923077000000001,
          "durationTicks": 480,
          "midi": 59,
          "name": "B3",
          "ticks": 4320,
          "time": 8.307692999999999,
          "velocity": 0.3858267716535433
        },
        {
          "duration": 0.923077000000001,
          "durationTicks": 480,
          "midi": 63,
          "name": "D#4",
          "ticks": 4320,
          "time": 8.307692999999999,
          "velocity": 0.3858267716535433
        },
        {
          "duration": 0.923077000000001,
          "durationTicks": 480,
          "midi": 64,
          "name": "E4",
          "ticks": 4320,
          "time": 8.307692999999999,
          "velocity": 0.3858267716535433
        },
        {
          "duration": 0.923077000000001,
          "durationTicks": 480,
          "midi": 68,
          "name": "G#4",
          "ticks": 4320,
          "time": 8.307692999999999,
          "velocity": 0.3858267716535433
        },
        {
          "duration": 1.8461539999999985,
          "durationTicks": 960,
          "midi": 58,
          "name": "A#3",
          "ticks": 4800,
          "time": 9.23077,
          "velocity": 0.31496062992125984
        },
        {
          "duration": 1.8461539999999985,
          "durationTicks": 960,
          "midi": 63,
          "name": "D#4",
          "ticks": 4800,
          "time": 9.23077,
          "velocity": 0.31496062992125984
        },
        {
          "duration": 1.8461539999999985,
          "durationTicks": 960,
          "midi": 64,
          "name": "E4",
          "ticks": 4800,
          "time": 9.23077,
          "velocity": 0.31496062992125984
        },
        {
          "duration": 1.8461539999999985,
          "durationTicks": 960,
          "midi": 68,
          "name": "G#4",
          "ticks": 4800,
          "time": 9.23077,
          "velocity": 0.31496062992125984
        },
        {
          "duration": 0.9230769999999993,
          "durationTicks": 480,
          "midi": 61,
          "name": "C#4",
          "ticks": 6240,
          "time": 12.000001,
          "velocity": 0.3543307086614173
        },
        {
          "duration": 0.9230769999999993,
          "durationTicks": 480,
          "midi": 62,
          "name": "D4",
          "ticks": 6240,
          "time": 12.000001,
          "velocity": 0.3543307086614173
        },
        {
          "duration": 0.9230769999999993,
          "durationTicks": 480,
          "midi": 66,
          "name": "F#4",
          "ticks": 6240,
          "time": 12.000001,
          "velocity": 0.3543307086614173
        },
        {
          "duration": 0.923077000000001,
          "durationTicks": 480,
          "midi": 61,
          "name": "C#4",
          "ticks": 6720,
          "time": 12.923077999999999,
          "velocity": 0.4251968503937008
        },
        {
          "duration": 0.923077000000001,
          "durationTicks": 480,
          "midi": 62,
          "name": "D4",
          "ticks": 6720,
          "time": 12.923077999999999,
          "velocity": 0.4251968503937008
        },
        {
          "duration": 0.923077000000001,
          "durationTicks": 480,
          "midi": 66,
          "name": "F#4",
          "ticks": 6720,
          "time": 12.923077999999999,
          "velocity": 0.4251968503937008
        },
        {
          "duration": 0.9230769999999993,
          "durationTicks": 480,
          "midi": 61,
          "name": "C#4",
          "ticks": 7200,
          "time": 13.846155,
          "velocity": 0.3543307086614173
        },
        {
          "duration": 0.9230769999999993,
          "durationTicks": 480,
          "midi": 62,
          "name": "D4",
          "ticks": 7200,
          "time": 13.846155,
          "velocity": 0.3543307086614173
        },
        {
          "duration": 0.9230769999999993,
          "durationTicks": 480,
          "midi": 66,
          "name": "F#4",
          "ticks": 7200,
          "time": 13.846155,
          "velocity": 0.3543307086614173
        },
        {
          "duration": 3.684615691666668,
          "durationTicks": 1916,
          "midi": 54,
          "name": "F#3",
          "ticks": 7680,
          "time": 14.769231999999999,
          "velocity": 0.4015748031496063
        },
        {
          "duration": 0.9230769999999993,
          "durationTicks": 480,
          "midi": 60,
          "name": "C4",
          "ticks": 7680,
          "time": 14.769231999999999,
          "velocity": 0.4015748031496063
        },
        {
          "duration": 0.9230769999999993,
          "durationTicks": 480,
          "midi": 64,
          "name": "E4",
          "ticks": 7680,
          "time": 14.769231999999999,
          "velocity": 0.4015748031496063
        },
        {
          "duration": 0.9230769999999993,
          "durationTicks": 480,
          "midi": 60,
          "name": "C4",
          "ticks": 8160,
          "time": 15.692308999999998,
          "velocity": 0.4015748031496063
        },
        {
          "duration": 0.9230769999999993,
          "durationTicks": 480,
          "midi": 64,
          "name": "E4",
          "ticks": 8160,
          "time": 15.692308999999998,
          "velocity": 0.4015748031496063
        },
        {
          "duration": 1.223077025000002,
          "durationTicks": 636,
          "midi": 60,
          "name": "C4",
          "ticks": 8640,
          "time": 16.615385999999997,
          "velocity": 0.4015748031496063
        },
        {
          "duration": 1.223077025000002,
          "durationTicks": 636,
          "midi": 64,
          "name": "E4",
          "ticks": 8640,
          "time": 16.615385999999997,
          "velocity": 0.4015748031496063
        },
        {
          "duration": 0.6076923583333347,
          "durationTicks": 316,
          "midi": 60,
          "name": "C4",
          "ticks": 9280,
          "time": 17.846155333333332,
          "velocity": 0.4015748031496063
        },
        {
          "duration": 0.6076923583333347,
          "durationTicks": 316,
          "midi": 64,
          "name": "E4",
          "ticks": 9280,
          "time": 17.846155333333332,
          "velocity": 0.4015748031496063
        },
        {
          "duration": 1.8461539999999985,
          "durationTicks": 960,
          "midi": 52,
          "name": "E3",
          "ticks": 9600,
          "time": 18.46154,
          "velocity": 0.3779527559055118
        },
        {
          "duration": 1.8461539999999985,
          "durationTicks": 960,
          "midi": 56,
          "name": "G#3",
          "ticks": 9600,
          "time": 18.46154,
          "velocity": 0.3779527559055118
        },
        {
          "duration": 1.7615386083333355,
          "durationTicks": 916,
          "midi": 59,
          "name": "B3",
          "ticks": 9600,
          "time": 18.46154,
          "velocity": 0.3779527559055118
        },
        {
          "duration": 1.8461539999999985,
          "durationTicks": 960,
          "midi": 63,
          "name": "D#4",
          "ticks": 9600,
          "time": 18.46154,
          "velocity": 0.3779527559055118
        },
        {
          "duration": 1.8384616916666658,
          "durationTicks": 956,
          "midi": 53,
          "name": "F3",
          "ticks": 10520,
          "time": 20.230770916666668,
          "velocity": 0.5826771653543307
        },
        {
          "duration": 1.8384616916666658,
          "durationTicks": 956,
          "midi": 59,
          "name": "B3",
          "ticks": 10560,
          "time": 20.307693999999998,
          "velocity": 0.5826771653543307
        },
        {
          "duration": 1.8384616916666658,
          "durationTicks": 956,
          "midi": 64,
          "name": "E4",
          "ticks": 10560,
          "time": 20.307693999999998,
          "velocity": 0.5826771653543307
        },
        {
          "duration": 3.684615691666668,
          "durationTicks": 1916,
          "midi": 52,
          "name": "E3",
          "ticks": 11520,
          "time": 22.153847999999996,
          "velocity": 0.44881889763779526
        },
        {
          "duration": 3.684615691666668,
          "durationTicks": 1916,
          "midi": 57,
          "name": "A3",
          "ticks": 11520,
          "time": 22.153847999999996,
          "velocity": 0.4645669291338583
        },
        {
          "duration": 0.9153846916666701,
          "durationTicks": 476,
          "midi": 61,
          "name": "C#4",
          "ticks": 11520,
          "time": 22.153847999999996,
          "velocity": 0.4645669291338583
        },
        {
          "duration": 1.3769231916666698,
          "durationTicks": 716,
          "midi": 64,
          "name": "E4",
          "ticks": 11520,
          "time": 22.153847999999996,
          "velocity": 0.4645669291338583
        },
        {
          "duration": 1.3769231916666698,
          "durationTicks": 716,
          "midi": 68,
          "name": "G#4",
          "ticks": 11520,
          "time": 22.153847999999996,
          "velocity": 0.4645669291338583
        },
        {
          "duration": 2.453846358333333,
          "durationTicks": 1276,
          "midi": 61,
          "name": "C#4",
          "ticks": 12160,
          "time": 23.38461733333333,
          "velocity": 0.3700787401574803
        },
        {
          "duration": 2.1461540249999977,
          "durationTicks": 1116,
          "midi": 66,
          "name": "F#4",
          "ticks": 12320,
          "time": 23.692309666666667,
          "velocity": 0.3779527559055118
        },
        {
          "duration": 1.6846155250000017,
          "durationTicks": 876,
          "midi": 57,
          "name": "A3",
          "ticks": 13480,
          "time": 25.92307908333333,
          "velocity": 0.41732283464566927
        },
        {
          "duration": 1.8384616916666658,
          "durationTicks": 956,
          "midi": 61,
          "name": "C#4",
          "ticks": 13480,
          "time": 25.92307908333333,
          "velocity": 0.5748031496062992
        },
        {
          "duration": 1.8384616916666658,
          "durationTicks": 956,
          "midi": 62,
          "name": "D4",
          "ticks": 13480,
          "time": 25.92307908333333,
          "velocity": 0.5748031496062992
        },
        {
          "duration": 1.8384616916666658,
          "durationTicks": 956,
          "midi": 66,
          "name": "F#4",
          "ticks": 13480,
          "time": 25.92307908333333,
          "velocity": 0.5748031496062992
        },
        {
          "duration": 1.8384616916666658,
          "durationTicks": 956,
          "midi": 57,
          "name": "A3",
          "ticks": 14400,
          "time": 27.69231,
          "velocity": 0.41732283464566927
        },
        {
          "duration": 1.8384616916666658,
          "durationTicks": 956,
          "midi": 62,
          "name": "D4",
          "ticks": 15360,
          "time": 29.538463999999998,
          "velocity": 0.5039370078740157
        },
        {
          "duration": 1.8384616916666658,
          "durationTicks": 956,
          "midi": 66,
          "name": "F#4",
          "ticks": 15360,
          "time": 29.538463999999998,
          "velocity": 0.5039370078740157
        },
        {
          "duration": 0.9153846916666666,
          "durationTicks": 476,
          "midi": 57,
          "name": "A3",
          "ticks": 15840,
          "time": 30.461540999999997,
          "velocity": 0.33070866141732286
        },
        {
          "duration": 1.8461539999999985,
          "durationTicks": 960,
          "midi": 56,
          "name": "G#3",
          "ticks": 16320,
          "time": 31.384617999999996,
          "velocity": 0.36220472440944884
        },
        {
          "duration": 1.8461539999999985,
          "durationTicks": 960,
          "midi": 59,
          "name": "B3",
          "ticks": 16320,
          "time": 31.384617999999996,
          "velocity": 0.36220472440944884
        },
        {
          "duration": 1.8461539999999985,
          "durationTicks": 960,
          "midi": 62,
          "name": "D4",
          "ticks": 16320,
          "time": 31.384617999999996,
          "velocity": 0.36220472440944884
        },
        {
          "duration": 1.8384616916666658,
          "durationTicks": 956,
          "midi": 66,
          "name": "F#4",
          "ticks": 16320,
          "time": 31.384617999999996,
          "velocity": 0.36220472440944884
        },
        {
          "duration": 0.10769231666667167,
          "durationTicks": 56,
          "midi": 56,
          "name": "G#3",
          "ticks": 17280,
          "time": 33.230771999999995,
          "velocity": 0.3779527559055118
        },
        {
          "duration": 0.10769231666666457,
          "durationTicks": 56,
          "midi": 57,
          "name": "A3",
          "ticks": 17360,
          "time": 33.38461816666666,
          "velocity": 0.31496062992125984
        },
        {
          "duration": 0.10769231666667167,
          "durationTicks": 56,
          "midi": 56,
          "name": "G#3",
          "ticks": 17400,
          "time": 33.461541249999996,
          "velocity": 0.33070866141732286
        },
        {
          "duration": 0.10769231666666457,
          "durationTicks": 56,
          "midi": 57,
          "name": "A3",
          "ticks": 17480,
          "time": 33.615387416666664,
          "velocity": 0.33858267716535434
        },
        {
          "duration": 0.10769231666666457,
          "durationTicks": 56,
          "midi": 56,
          "name": "G#3",
          "ticks": 17520,
          "time": 33.6923105,
          "velocity": 0.3543307086614173
        },
        {
          "duration": 0.10769231666667167,
          "durationTicks": 56,
          "midi": 57,
          "name": "A3",
          "ticks": 17600,
          "time": 33.84615666666666,
          "velocity": 0.36220472440944884
        },
        {
          "duration": 0.10769231666666457,
          "durationTicks": 56,
          "midi": 56,
          "name": "G#3",
          "ticks": 17640,
          "time": 33.92307975,
          "velocity": 0.36220472440944884
        },
        {
          "duration": 0.10769231666667167,
          "durationTicks": 56,
          "midi": 57,
          "name": "A3",
          "ticks": 17720,
          "time": 34.07692591666666,
          "velocity": 0.36220472440944884
        },
        {
          "duration": 0.10769231666666457,
          "durationTicks": 56,
          "midi": 56,
          "name": "G#3",
          "ticks": 17800,
          "time": 34.230772083333335,
          "velocity": 0.33858267716535434
        },
        {
          "duration": 0.10769231666666457,
          "durationTicks": 56,
          "midi": 57,
          "name": "A3",
          "ticks": 17840,
          "time": 34.30769516666666,
          "velocity": 0.33070866141732286
        },
        {
          "duration": 0.10769231666667167,
          "durationTicks": 56,
          "midi": 56,
          "name": "G#3",
          "ticks": 17920,
          "time": 34.46154133333333,
          "velocity": 0.31496062992125984
        },
        {
          "duration": 0.10769231666666457,
          "durationTicks": 56,
          "midi": 57,
          "name": "A3",
          "ticks": 17960,
          "time": 34.53846441666666,
          "velocity": 0.31496062992125984
        },
        {
          "duration": 0.10769231666667167,
          "durationTicks": 56,
          "midi": 56,
          "name": "G#3",
          "ticks": 18040,
          "time": 34.69231058333333,
          "velocity": 0.30708661417322836
        },
        {
          "duration": 0.10769231666666457,
          "durationTicks": 56,
          "midi": 57,
          "name": "A3",
          "ticks": 18080,
          "time": 34.769233666666665,
          "velocity": 0.30708661417322836
        },
        {
          "duration": 0.10769231666666457,
          "durationTicks": 56,
          "midi": 56,
          "name": "G#3",
          "ticks": 18160,
          "time": 34.92307983333333,
          "velocity": 0.30708661417322836
        },
        {
          "duration": 0.10769231666667167,
          "durationTicks": 56,
          "midi": 57,
          "name": "A3",
          "ticks": 18200,
          "time": 35.00000291666666,
          "velocity": 0.2283464566929134
        },
        {
          "duration": 0.10769231666666457,
          "durationTicks": 56,
          "midi": 56,
          "name": "G#3",
          "ticks": 18280,
          "time": 35.153849083333334,
          "velocity": 0.30708661417322836
        },
        {
          "duration": 0.10769231666666457,
          "durationTicks": 56,
          "midi": 57,
          "name": "A3",
          "ticks": 18320,
          "time": 35.23077216666666,
          "velocity": 0.2992125984251969
        },
        {
          "duration": 0.10769231666666457,
          "durationTicks": 56,
          "midi": 56,
          "name": "G#3",
          "ticks": 18400,
          "time": 35.384618333333336,
          "velocity": 0.2992125984251969
        },
        {
          "duration": 0.10769231666666457,
          "durationTicks": 56,
          "midi": 57,
          "name": "A3",
          "ticks": 18440,
          "time": 35.46154141666666,
          "velocity": 0.1968503937007874
        },
        {
          "duration": 0.10769231666667167,
          "durationTicks": 56,
          "midi": 56,
          "name": "G#3",
          "ticks": 18520,
          "time": 35.61538758333333,
          "velocity": 0.16535433070866143
        },
        {
          "duration": 0.10769231666666457,
          "durationTicks": 56,
          "midi": 57,
          "name": "A3",
          "ticks": 18560,
          "time": 35.692310666666664,
          "velocity": 0.15748031496062992
        },
        {
          "duration": 0.10769231666666457,
          "durationTicks": 56,
          "midi": 56,
          "name": "G#3",
          "ticks": 18640,
          "time": 35.84615683333333,
          "velocity": 0.14960629921259844
        },
        {
          "duration": 0.10769231666667167,
          "durationTicks": 56,
          "midi": 57,
          "name": "A3",
          "ticks": 18680,
          "time": 35.92307991666666,
          "velocity": 0.14960629921259844
        },
        {
          "duration": 0.10769231666666457,
          "durationTicks": 56,
          "midi": 56,
          "name": "G#3",
          "ticks": 18760,
          "time": 36.07692608333333,
          "velocity": 0.2283464566929134
        },
        {
          "duration": 0.10769231666667167,
          "durationTicks": 56,
          "midi": 57,
          "name": "A3",
          "ticks": 18800,
          "time": 36.15384916666666,
          "velocity": 0.23622047244094488
        },
        {
          "duration": 0.10769231666666457,
          "durationTicks": 56,
          "midi": 56,
          "name": "G#3",
          "ticks": 18880,
          "time": 36.307695333333335,
          "velocity": 0.41732283464566927
        },
        {
          "duration": 0.10769231666666457,
          "durationTicks": 56,
          "midi": 57,
          "name": "A3",
          "ticks": 18920,
          "time": 36.38461841666666,
          "velocity": 0.2992125984251969
        },
        {
          "duration": 0.10769231666667167,
          "durationTicks": 56,
          "midi": 56,
          "name": "G#3",
          "ticks": 19000,
          "time": 36.53846458333333,
          "velocity": 0.4015748031496063
        },
        {
          "duration": 0.10769231666666457,
          "durationTicks": 56,
          "midi": 57,
          "name": "A3",
          "ticks": 19040,
          "time": 36.61538766666666,
          "velocity": 0.2992125984251969
        },
        {
          "duration": 0.10769231666667167,
          "durationTicks": 56,
          "midi": 56,
          "name": "G#3",
          "ticks": 19120,
          "time": 36.76923383333333,
          "velocity": 0.2992125984251969
        },
        {
          "duration": 0.10769231666666457,
          "durationTicks": 56,
          "midi": 57,
          "name": "A3",
          "ticks": 19160,
          "time": 36.846156916666665,
          "velocity": 0.2992125984251969
        },
        {
          "duration": 0.10769231666666457,
          "durationTicks": 56,
          "midi": 55,
          "name": "G3",
          "ticks": 19200,
          "time": 36.92308,
          "velocity": 0.5196850393700787
        },
        {
          "duration": 0.10769231666667167,
          "durationTicks": 56,
          "midi": 59,
          "name": "B3",
          "ticks": 19280,
          "time": 37.07692616666666,
          "velocity": 0.48031496062992124
        },
        {
          "duration": 0.10769231666666457,
          "durationTicks": 56,
          "midi": 55,
          "name": "G3",
          "ticks": 19360,
          "time": 37.230772333333334,
          "velocity": 0.47244094488188976
        },
        {
          "duration": 0.10769231666666457,
          "durationTicks": 56,
          "midi": 62,
          "name": "D4",
          "ticks": 19400,
          "time": 37.30769541666666,
          "velocity": 0.4645669291338583
        },
        {
          "duration": 0.10769231666666457,
          "durationTicks": 56,
          "midi": 55,
          "name": "G3",
          "ticks": 19480,
          "time": 37.461541583333336,
          "velocity": 0.4645669291338583
        },
        {
          "duration": 0.10769231666666457,
          "durationTicks": 56,
          "midi": 59,
          "name": "B3",
          "ticks": 19520,
          "time": 37.53846466666666,
          "velocity": 0.4251968503937008
        },
        {
          "duration": 0.10769231666667167,
          "durationTicks": 56,
          "midi": 55,
          "name": "G3",
          "ticks": 19600,
          "time": 37.69231083333333,
          "velocity": 0.4251968503937008
        },
        {
          "duration": 0.10769231666666457,
          "durationTicks": 56,
          "midi": 57,
          "name": "A3",
          "ticks": 19640,
          "time": 37.769233916666664,
          "velocity": 0.36220472440944884
        },
        {
          "duration": 0.10769231666666457,
          "durationTicks": 56,
          "midi": 55,
          "name": "G3",
          "ticks": 19720,
          "time": 37.92308008333333,
          "velocity": 0.3779527559055118
        },
        {
          "duration": 0.10769231666667167,
          "durationTicks": 56,
          "midi": 59,
          "name": "B3",
          "ticks": 19760,
          "time": 38.00000316666666,
          "velocity": 0.48031496062992124
        },
        {
          "duration": 0.10769231666666457,
          "durationTicks": 56,
          "midi": 55,
          "name": "G3",
          "ticks": 19840,
          "time": 38.15384933333333,
          "velocity": 0.4881889763779528
        },
        {
          "duration": 0.10769231666667167,
          "durationTicks": 56,
          "midi": 62,
          "name": "D4",
          "ticks": 19880,
          "time": 38.23077241666666,
          "velocity": 0.4881889763779528
        },
        {
          "duration": 0.10769231666667167,
          "durationTicks": 56,
          "midi": 59,
          "name": "B3",
          "ticks": 19920,
          "time": 38.307695499999994,
          "velocity": 0.4881889763779528
        },
        {
          "duration": 0.10769231666666457,
          "durationTicks": 56,
          "midi": 55,
          "name": "G3",
          "ticks": 19960,
          "time": 38.384618583333335,
          "velocity": 0.2677165354330709
        },
        {
          "duration": 0.10769231666666457,
          "durationTicks": 56,
          "midi": 57,
          "name": "A3",
          "ticks": 20000,
          "time": 38.46154166666666,
          "velocity": 0.25196850393700787
        },
        {
          "duration": 0.10769231666667167,
          "durationTicks": 56,
          "midi": 55,
          "name": "G3",
          "ticks": 20080,
          "time": 38.61538783333333,
          "velocity": 0.2440944881889764
        },
        {
          "duration": 0.10769231666666457,
          "durationTicks": 56,
          "midi": 55,
          "name": "G3",
          "ticks": 20160,
          "time": 38.769234,
          "velocity": 0.5590551181102362
        },
        {
          "duration": 0.10769231666666457,
          "durationTicks": 56,
          "midi": 59,
          "name": "B3",
          "ticks": 20160,
          "time": 38.769234,
          "velocity": 0.5590551181102362
        },
        {
          "duration": 0.684615441666665,
          "durationTicks": 356,
          "midi": 61,
          "name": "C#4",
          "ticks": 20160,
          "time": 38.769234,
          "velocity": 0.5590551181102362
        },
        {
          "duration": 0.4538461916666705,
          "durationTicks": 236,
          "midi": 59,
          "name": "B3",
          "ticks": 20240,
          "time": 38.92308016666666,
          "velocity": 0.23622047244094488
        },
        {
          "duration": 0.10769231666666457,
          "durationTicks": 56,
          "midi": 55,
          "name": "G3",
          "ticks": 20320,
          "time": 39.07692633333333,
          "velocity": 0.2440944881889764
        },
        {
          "duration": 0.10769231666667167,
          "durationTicks": 56,
          "midi": 57,
          "name": "A3",
          "ticks": 20360,
          "time": 39.15384941666666,
          "velocity": 0.25196850393700787
        },
        {
          "duration": 0.10769231666666457,
          "durationTicks": 56,
          "midi": 55,
          "name": "G3",
          "ticks": 20440,
          "time": 39.307695583333334,
          "velocity": 0.25196850393700787
        },
        {
          "duration": 0.10769231666666457,
          "durationTicks": 56,
          "midi": 57,
          "name": "A3",
          "ticks": 20480,
          "time": 39.38461866666666,
          "velocity": 0.15748031496062992
        },
        {
          "duration": 0.10769231666667167,
          "durationTicks": 56,
          "midi": 55,
          "name": "G3",
          "ticks": 20560,
          "time": 39.53846483333333,
          "velocity": 0.1968503937007874
        },
        {
          "duration": 0.4538461916666705,
          "durationTicks": 236,
          "midi": 55,
          "name": "G3",
          "ticks": 20640,
          "time": 39.692311,
          "velocity": 0.44881889763779526
        },
        {
          "duration": 0.5692308166666677,
          "durationTicks": 296,
          "midi": 59,
          "name": "B3",
          "ticks": 20640,
          "time": 39.692311,
          "velocity": 0.44881889763779526
        },
        {
          "duration": 0.9153846916666666,
          "durationTicks": 476,
          "midi": 61,
          "name": "C#4",
          "ticks": 20640,
          "time": 39.692311,
          "velocity": 0.44881889763779526
        },
        {
          "duration": 0.9153846916666666,
          "durationTicks": 476,
          "midi": 65,
          "name": "F4",
          "ticks": 20640,
          "time": 39.692311,
          "velocity": 0.44881889763779526
        },
        {
          "duration": 0.10769231666666457,
          "durationTicks": 56,
          "midi": 55,
          "name": "G3",
          "ticks": 20960,
          "time": 40.30769566666666,
          "velocity": 0.29133858267716534
        },
        {
          "duration": 0.10769231666666457,
          "durationTicks": 56,
          "midi": 57,
          "name": "A3",
          "ticks": 20960,
          "time": 40.30769566666666,
          "velocity": 0.2992125984251969
        },
        {
          "duration": 0.10769231666666457,
          "durationTicks": 56,
          "midi": 55,
          "name": "G3",
          "ticks": 21040,
          "time": 40.461541833333335,
          "velocity": 0.2992125984251969
        },
        {
          "duration": 0.10769231666666457,
          "durationTicks": 56,
          "midi": 57,
          "name": "A3",
          "ticks": 21080,
          "time": 40.53846491666666,
          "velocity": 0.28346456692913385
        },
        {
          "duration": 2.223077108333335,
          "durationTicks": 1156,
          "midi": 57,
          "name": "A3",
          "ticks": 21120,
          "time": 40.615387999999996,
          "velocity": 0.4409448818897638
        },
        {
          "duration": 2.223077108333335,
          "durationTicks": 1156,
          "midi": 61,
          "name": "C#4",
          "ticks": 21120,
          "time": 40.615387999999996,
          "velocity": 0.4409448818897638
        },
        {
          "duration": 2.223077108333335,
          "durationTicks": 1156,
          "midi": 66,
          "name": "F#4",
          "ticks": 21120,
          "time": 40.615387999999996,
          "velocity": 0.4409448818897638
        },
        {
          "duration": 1.3615385749999973,
          "durationTicks": 708,
          "midi": 57,
          "name": "A3",
          "ticks": 22280,
          "time": 42.846157416666664,
          "velocity": 0.33070866141732286
        },
        {
          "duration": 1.3846154999999953,
          "durationTicks": 720,
          "midi": 61,
          "name": "C#4",
          "ticks": 22280,
          "time": 42.846157416666664,
          "velocity": 0.33070866141732286
        },
        {
          "duration": 1.2615385666666654,
          "durationTicks": 656,
          "midi": 66,
          "name": "F#4",
          "ticks": 22320,
          "time": 42.9230805,
          "velocity": 0.33070866141732286
        },
        {
          "duration": 0.9230770000000064,
          "durationTicks": 480,
          "midi": 53,
          "name": "F3",
          "ticks": 23040,
          "time": 44.30769599999999,
          "velocity": 0.3858267716535433
        },
        {
          "duration": 3.6846156916666715,
          "durationTicks": 1916,
          "midi": 59,
          "name": "B3",
          "ticks": 23040,
          "time": 44.30769599999999,
          "velocity": 0.3858267716535433
        },
        {
          "duration": 1.1461539416666682,
          "durationTicks": 596,
          "midi": 64,
          "name": "E4",
          "ticks": 23040,
          "time": 44.30769599999999,
          "velocity": 0.3858267716535433
        },
        {
          "duration": 0.9153846916666666,
          "durationTicks": 476,
          "midi": 53,
          "name": "F3",
          "ticks": 23520,
          "time": 45.230773,
          "velocity": 0.30708661417322836
        },
        {
          "duration": 2.5307694416666706,
          "durationTicks": 1316,
          "midi": 62,
          "name": "D4",
          "ticks": 23640,
          "time": 45.461542249999994,
          "velocity": 0.3464566929133858
        },
        {
          "duration": 1.3769231916666627,
          "durationTicks": 716,
          "midi": 53,
          "name": "F3",
          "ticks": 24000,
          "time": 46.15385,
          "velocity": 0.3700787401574803
        },
        {
          "duration": 0.4538461916666705,
          "durationTicks": 236,
          "midi": 53,
          "name": "F3",
          "ticks": 24720,
          "time": 47.538465499999994,
          "velocity": 0.3858267716535433
        },
        {
          "duration": 0.3000000250000028,
          "durationTicks": 156,
          "midi": 56,
          "name": "G#3",
          "ticks": 24960,
          "time": 48.000004,
          "velocity": 0.3858267716535433
        },
        {
          "duration": 0.6230769749999965,
          "durationTicks": 324,
          "midi": 57,
          "name": "A3",
          "ticks": 24960,
          "time": 48.000004,
          "velocity": 0.3858267716535433
        },
        {
          "duration": 0.6230769749999965,
          "durationTicks": 324,
          "midi": 61,
          "name": "C#4",
          "ticks": 24960,
          "time": 48.000004,
          "velocity": 0.3858267716535433
        },
        {
          "duration": 0.33846156666666616,
          "durationTicks": 176,
          "midi": 56,
          "name": "G#3",
          "ticks": 25120,
          "time": 48.30769633333333,
          "velocity": 0.4330708661417323
        },
        {
          "duration": 1.030769316666671,
          "durationTicks": 536,
          "midi": 54,
          "name": "F#3",
          "ticks": 25320,
          "time": 48.692311749999995,
          "velocity": 0.3779527559055118
        },
        {
          "duration": 1.030769316666671,
          "durationTicks": 536,
          "midi": 57,
          "name": "A3",
          "ticks": 25320,
          "time": 48.692311749999995,
          "velocity": 0.3779527559055118
        },
        {
          "duration": 1.1461539416666682,
          "durationTicks": 596,
          "midi": 61,
          "name": "C#4",
          "ticks": 25320,
          "time": 48.692311749999995,
          "velocity": 0.3779527559055118
        },
        {
          "duration": 0.3230769500000008,
          "durationTicks": 168,
          "midi": 53,
          "name": "F3",
          "ticks": 25920,
          "time": 49.846157999999996,
          "velocity": 0.3779527559055118
        },
        {
          "duration": 1.8230770750000005,
          "durationTicks": 948,
          "midi": 57,
          "name": "A3",
          "ticks": 25920,
          "time": 49.846157999999996,
          "velocity": 0.3779527559055118
        },
        {
          "duration": 1.8076924583333351,
          "durationTicks": 940,
          "midi": 61,
          "name": "C#4",
          "ticks": 25920,
          "time": 49.846157999999996,
          "velocity": 0.3779527559055118
        },
        {
          "duration": 1.492307816666667,
          "durationTicks": 776,
          "midi": 53,
          "name": "F3",
          "ticks": 26080,
          "time": 50.15385033333333,
          "velocity": 0.4330708661417323
        },
        {
          "duration": 1.8384616916666658,
          "durationTicks": 956,
          "midi": 52,
          "name": "E3",
          "ticks": 26880,
          "time": 51.692311999999994,
          "velocity": 0.41732283464566927
        },
        {
          "duration": 1.8384616916666658,
          "durationTicks": 956,
          "midi": 57,
          "name": "A3",
          "ticks": 26880,
          "time": 51.692311999999994,
          "velocity": 0.41732283464566927
        },
        {
          "duration": 1.8384616916666658,
          "durationTicks": 956,
          "midi": 61,
          "name": "C#4",
          "ticks": 26880,
          "time": 51.692311999999994,
          "velocity": 0.41732283464566927
        },
        {
          "duration": 1.838461691666673,
          "durationTicks": 956,
          "midi": 51,
          "name": "D#3",
          "ticks": 27840,
          "time": 53.53846599999999,
          "velocity": 0.4330708661417323
        },
        {
          "duration": 1.78461553333333,
          "durationTicks": 928,
          "midi": 57,
          "name": "A3",
          "ticks": 27840,
          "time": 53.53846599999999,
          "velocity": 0.4330708661417323
        },
        {
          "duration": 1.8076924583333351,
          "durationTicks": 940,
          "midi": 61,
          "name": "C#4",
          "ticks": 27840,
          "time": 53.53846599999999,
          "velocity": 0.4330708661417323
        },
        {
          "duration": 1.8384616916666658,
          "durationTicks": 956,
          "midi": 50,
          "name": "D3",
          "ticks": 28800,
          "time": 55.38462,
          "velocity": 0.41732283464566927
        },
        {
          "duration": 2.300000191666662,
          "durationTicks": 1196,
          "midi": 54,
          "name": "F#3",
          "ticks": 28800,
          "time": 55.38462,
          "velocity": 0.41732283464566927
        },
        {
          "duration": 2.300000191666662,
          "durationTicks": 1196,
          "midi": 56,
          "name": "G#3",
          "ticks": 28800,
          "time": 55.38462,
          "velocity": 0.41732283464566927
        },
        {
          "duration": 1.8384616916666658,
          "durationTicks": 956,
          "midi": 50,
          "name": "D3",
          "ticks": 29760,
          "time": 57.230774,
          "velocity": 0.3700787401574803
        },
        {
          "duration": 1.3769231916666698,
          "durationTicks": 716,
          "midi": 54,
          "name": "F#3",
          "ticks": 30000,
          "time": 57.69231249999999,
          "velocity": 0.3700787401574803
        },
        {
          "duration": 1.3769231916666698,
          "durationTicks": 716,
          "midi": 56,
          "name": "G#3",
          "ticks": 30000,
          "time": 57.69231249999999,
          "velocity": 0.3700787401574803
        },
        {
          "duration": 0.5692308166666606,
          "durationTicks": 296,
          "midi": 50,
          "name": "D3",
          "ticks": 30720,
          "time": 59.076927999999995,
          "velocity": 0.3937007874015748
        },
        {
          "duration": 0.5692308166666606,
          "durationTicks": 296,
          "midi": 54,
          "name": "F#3",
          "ticks": 30720,
          "time": 59.076927999999995,
          "velocity": 0.3937007874015748
        },
        {
          "duration": 0.5692308166666606,
          "durationTicks": 296,
          "midi": 56,
          "name": "G#3",
          "ticks": 30720,
          "time": 59.076927999999995,
          "velocity": 0.3937007874015748
        },
        {
          "duration": 0.30769233333332835,
          "durationTicks": 160,
          "midi": 61,
          "name": "C#4",
          "ticks": 31040,
          "time": 59.692312666666666,
          "velocity": 0.4094488188976378
        },
        {
          "duration": 0.30769233333332835,
          "durationTicks": 160,
          "midi": 62,
          "name": "D4",
          "ticks": 31040,
          "time": 59.692312666666666,
          "velocity": 0.4094488188976378
        },
        {
          "duration": 0.30769233333332835,
          "durationTicks": 160,
          "midi": 66,
          "name": "F#4",
          "ticks": 31040,
          "time": 59.692312666666666,
          "velocity": 0.4094488188976378
        },
        {
          "duration": 0.30769233333332835,
          "durationTicks": 160,
          "midi": 61,
          "name": "C#4",
          "ticks": 31200,
          "time": 60.000004999999994,
          "velocity": 0.41732283464566927
        },
        {
          "duration": 0.30769233333332835,
          "durationTicks": 160,
          "midi": 62,
          "name": "D4",
          "ticks": 31200,
          "time": 60.000004999999994,
          "velocity": 0.41732283464566927
        },
        {
          "duration": 0.30769233333332835,
          "durationTicks": 160,
          "midi": 66,
          "name": "F#4",
          "ticks": 31200,
          "time": 60.000004999999994,
          "velocity": 0.41732283464566927
        },
        {
          "duration": 0.30769233333334256,
          "durationTicks": 160,
          "midi": 61,
          "name": "C#4",
          "ticks": 31360,
          "time": 60.30769733333332,
          "velocity": 0.4015748031496063
        },
        {
          "duration": 0.30769233333334256,
          "durationTicks": 160,
          "midi": 62,
          "name": "D4",
          "ticks": 31360,
          "time": 60.30769733333332,
          "velocity": 0.4015748031496063
        },
        {
          "duration": 0.30769233333334256,
          "durationTicks": 160,
          "midi": 66,
          "name": "F#4",
          "ticks": 31360,
          "time": 60.30769733333332,
          "velocity": 0.4015748031496063
        },
        {
          "duration": 0.30769233333332835,
          "durationTicks": 160,
          "midi": 61,
          "name": "C#4",
          "ticks": 31520,
          "time": 60.615389666666665,
          "velocity": 0.4015748031496063
        },
        {
          "duration": 0.30769233333332835,
          "durationTicks": 160,
          "midi": 62,
          "name": "D4",
          "ticks": 31520,
          "time": 60.615389666666665,
          "velocity": 0.4015748031496063
        },
        {
          "duration": 0.30769233333332835,
          "durationTicks": 160,
          "midi": 66,
          "name": "F#4",
          "ticks": 31520,
          "time": 60.615389666666665,
          "velocity": 0.4015748031496063
        },
        {
          "duration": 0.30769233333332835,
          "durationTicks": 160,
          "midi": 57,
          "name": "A3",
          "ticks": 31680,
          "time": 60.923081999999994,
          "velocity": 0.4330708661417323
        },
        {
          "duration": 0.30769233333332835,
          "durationTicks": 160,
          "midi": 61,
          "name": "C#4",
          "ticks": 31680,
          "time": 60.923081999999994,
          "velocity": 0.4330708661417323
        },
        {
          "duration": 0.30769233333332835,
          "durationTicks": 160,
          "midi": 62,
          "name": "D4",
          "ticks": 31680,
          "time": 60.923081999999994,
          "velocity": 0.4330708661417323
        },
        {
          "duration": 0.30769233333332835,
          "durationTicks": 160,
          "midi": 66,
          "name": "F#4",
          "ticks": 31680,
          "time": 60.923081999999994,
          "velocity": 0.4330708661417323
        },
        {
          "duration": 0.30769233333334256,
          "durationTicks": 160,
          "midi": 57,
          "name": "A3",
          "ticks": 31840,
          "time": 61.23077433333332,
          "velocity": 0.4330708661417323
        },
        {
          "duration": 0.30769233333334256,
          "durationTicks": 160,
          "midi": 61,
          "name": "C#4",
          "ticks": 31840,
          "time": 61.23077433333332,
          "velocity": 0.4330708661417323
        },
        {
          "duration": 0.30769233333334256,
          "durationTicks": 160,
          "midi": 62,
          "name": "D4",
          "ticks": 31840,
          "time": 61.23077433333332,
          "velocity": 0.4330708661417323
        },
        {
          "duration": 0.30769233333334256,
          "durationTicks": 160,
          "midi": 66,
          "name": "F#4",
          "ticks": 31840,
          "time": 61.23077433333332,
          "velocity": 0.4330708661417323
        },
        {
          "duration": 0.30769233333332835,
          "durationTicks": 160,
          "midi": 57,
          "name": "A3",
          "ticks": 32000,
          "time": 61.538466666666665,
          "velocity": 0.4251968503937008
        },
        {
          "duration": 0.30769233333332835,
          "durationTicks": 160,
          "midi": 61,
          "name": "C#4",
          "ticks": 32000,
          "time": 61.538466666666665,
          "velocity": 0.4251968503937008
        },
        {
          "duration": 0.30769233333332835,
          "durationTicks": 160,
          "midi": 62,
          "name": "D4",
          "ticks": 32000,
          "time": 61.538466666666665,
          "velocity": 0.4251968503937008
        },
        {
          "duration": 0.30769233333332835,
          "durationTicks": 160,
          "midi": 66,
          "name": "F#4",
          "ticks": 32000,
          "time": 61.538466666666665,
          "velocity": 0.4251968503937008
        },
        {
          "duration": 0.30769233333332835,
          "durationTicks": 160,
          "midi": 56,
          "name": "G#3",
          "ticks": 32160,
          "time": 61.84615899999999,
          "velocity": 0.4094488188976378
        },
        {
          "duration": 0.30769233333332835,
          "durationTicks": 160,
          "midi": 61,
          "name": "C#4",
          "ticks": 32160,
          "time": 61.84615899999999,
          "velocity": 0.4094488188976378
        },
        {
          "duration": 0.30769233333332835,
          "durationTicks": 160,
          "midi": 62,
          "name": "D4",
          "ticks": 32160,
          "time": 61.84615899999999,
          "velocity": 0.4094488188976378
        },
        {
          "duration": 0.30769233333332835,
          "durationTicks": 160,
          "midi": 66,
          "name": "F#4",
          "ticks": 32160,
          "time": 61.84615899999999,
          "velocity": 0.4094488188976378
        },
        {
          "duration": 0.33846156666667326,
          "durationTicks": 176,
          "midi": 56,
          "name": "G#3",
          "ticks": 32320,
          "time": 62.15385133333332,
          "velocity": 0.3937007874015748
        },
        {
          "duration": 0.30769233333334256,
          "durationTicks": 160,
          "midi": 61,
          "name": "C#4",
          "ticks": 32320,
          "time": 62.15385133333332,
          "velocity": 0.3937007874015748
        },
        {
          "duration": 0.30769233333334256,
          "durationTicks": 160,
          "midi": 62,
          "name": "D4",
          "ticks": 32320,
          "time": 62.15385133333332,
          "velocity": 0.3937007874015748
        },
        {
          "duration": 0.30769233333334256,
          "durationTicks": 160,
          "midi": 66,
          "name": "F#4",
          "ticks": 32320,
          "time": 62.15385133333332,
          "velocity": 0.3937007874015748
        },
        {
          "duration": 0.23076924999999449,
          "durationTicks": 120,
          "midi": 56,
          "name": "G#3",
          "ticks": 32520,
          "time": 62.53846675,
          "velocity": 0.3937007874015748
        },
        {
          "duration": 0.23076924999999449,
          "durationTicks": 120,
          "midi": 61,
          "name": "C#4",
          "ticks": 32520,
          "time": 62.53846675,
          "velocity": 0.3937007874015748
        },
        {
          "duration": 0.23076924999999449,
          "durationTicks": 120,
          "midi": 62,
          "name": "D4",
          "ticks": 32520,
          "time": 62.53846675,
          "velocity": 0.3937007874015748
        },
        {
          "duration": 0.23076924999999449,
          "durationTicks": 120,
          "midi": 66,
          "name": "F#4",
          "ticks": 32520,
          "time": 62.53846675,
          "velocity": 0.3937007874015748
        },
        {
          "duration": 0.4538461916666634,
          "durationTicks": 236,
          "midi": 56,
          "name": "G#3",
          "ticks": 32640,
          "time": 62.76923599999999,
          "velocity": 0.3937007874015748
        },
        {
          "duration": 0.4538461916666634,
          "durationTicks": 236,
          "midi": 57,
          "name": "A3",
          "ticks": 32640,
          "time": 62.76923599999999,
          "velocity": 0.3937007874015748
        },
        {
          "duration": 0.4538461916666634,
          "durationTicks": 236,
          "midi": 61,
          "name": "C#4",
          "ticks": 32640,
          "time": 62.76923599999999,
          "velocity": 0.3937007874015748
        },
        {
          "duration": 0.4538461916666634,
          "durationTicks": 236,
          "midi": 64,
          "name": "E4",
          "ticks": 32640,
          "time": 62.76923599999999,
          "velocity": 0.3937007874015748
        },
        {
          "duration": 0.9230770000000064,
          "durationTicks": 480,
          "midi": 56,
          "name": "G#3",
          "ticks": 32880,
          "time": 63.230774499999995,
          "velocity": 0.3937007874015748
        },
        {
          "duration": 0.9230770000000064,
          "durationTicks": 480,
          "midi": 57,
          "name": "A3",
          "ticks": 32880,
          "time": 63.230774499999995,
          "velocity": 0.3937007874015748
        },
        {
          "duration": 0.9230770000000064,
          "durationTicks": 480,
          "midi": 61,
          "name": "C#4",
          "ticks": 32880,
          "time": 63.230774499999995,
          "velocity": 0.3937007874015748
        },
        {
          "duration": 0.9230770000000064,
          "durationTicks": 480,
          "midi": 64,
          "name": "E4",
          "ticks": 32880,
          "time": 63.230774499999995,
          "velocity": 0.3937007874015748
        },
        {
          "duration": 0.9153846916666595,
          "durationTicks": 476,
          "midi": 56,
          "name": "G#3",
          "ticks": 33360,
          "time": 64.1538515,
          "velocity": 0.41732283464566927
        },
        {
          "duration": 0.9153846916666595,
          "durationTicks": 476,
          "midi": 57,
          "name": "A3",
          "ticks": 33360,
          "time": 64.1538515,
          "velocity": 0.41732283464566927
        },
        {
          "duration": 0.9153846916666595,
          "durationTicks": 476,
          "midi": 61,
          "name": "C#4",
          "ticks": 33360,
          "time": 64.1538515,
          "velocity": 0.41732283464566927
        },
        {
          "duration": 0.9153846916666595,
          "durationTicks": 476,
          "midi": 64,
          "name": "E4",
          "ticks": 33360,
          "time": 64.1538515,
          "velocity": 0.41732283464566927
        },
        {
          "duration": 0.4538461916666563,
          "durationTicks": 236,
          "midi": 56,
          "name": "G#3",
          "ticks": 33840,
          "time": 65.0769285,
          "velocity": 0.41732283464566927
        },
        {
          "duration": 0.4538461916666563,
          "durationTicks": 236,
          "midi": 57,
          "name": "A3",
          "ticks": 33840,
          "time": 65.0769285,
          "velocity": 0.41732283464566927
        },
        {
          "duration": 0.4538461916666563,
          "durationTicks": 236,
          "midi": 61,
          "name": "C#4",
          "ticks": 33840,
          "time": 65.0769285,
          "velocity": 0.41732283464566927
        },
        {
          "duration": 0.4538461916666563,
          "durationTicks": 236,
          "midi": 64,
          "name": "E4",
          "ticks": 33840,
          "time": 65.0769285,
          "velocity": 0.41732283464566927
        },
        {
          "duration": 0.9230769999999922,
          "durationTicks": 480,
          "midi": 56,
          "name": "G#3",
          "ticks": 34080,
          "time": 65.538467,
          "velocity": 0.41732283464566927
        },
        {
          "duration": 0.9230769999999922,
          "durationTicks": 480,
          "midi": 57,
          "name": "A3",
          "ticks": 34080,
          "time": 65.538467,
          "velocity": 0.41732283464566927
        },
        {
          "duration": 0.9153846916666595,
          "durationTicks": 476,
          "midi": 61,
          "name": "C#4",
          "ticks": 34080,
          "time": 65.538467,
          "velocity": 0.41732283464566927
        },
        {
          "duration": 0.9230769999999922,
          "durationTicks": 480,
          "midi": 64,
          "name": "E4",
          "ticks": 34080,
          "time": 65.538467,
          "velocity": 0.41732283464566927
        },
        {
          "duration": 0.9153846916666595,
          "durationTicks": 476,
          "midi": 59,
          "name": "B3",
          "ticks": 34560,
          "time": 66.46154399999999,
          "velocity": 0.3779527559055118
        },
        {
          "duration": 0.9153846916666595,
          "durationTicks": 476,
          "midi": 63,
          "name": "D#4",
          "ticks": 34560,
          "time": 66.46154399999999,
          "velocity": 0.3779527559055118
        },
        {
          "duration": 0.9153846916666595,
          "durationTicks": 476,
          "midi": 64,
          "name": "E4",
          "ticks": 34560,
          "time": 66.46154399999999,
          "velocity": 0.3779527559055118
        },
        {
          "duration": 0.9153846916666595,
          "durationTicks": 476,
          "midi": 68,
          "name": "G#4",
          "ticks": 34560,
          "time": 66.46154399999999,
          "velocity": 0.3779527559055118
        },
        {
          "duration": 0.9153846916666595,
          "durationTicks": 476,
          "midi": 59,
          "name": "B3",
          "ticks": 35040,
          "time": 67.384621,
          "velocity": 0.3779527559055118
        },
        {
          "duration": 0.9230769999999922,
          "durationTicks": 480,
          "midi": 63,
          "name": "D#4",
          "ticks": 35040,
          "time": 67.384621,
          "velocity": 0.3937007874015748
        },
        {
          "duration": 0.9230769999999922,
          "durationTicks": 480,
          "midi": 64,
          "name": "E4",
          "ticks": 35040,
          "time": 67.384621,
          "velocity": 0.3937007874015748
        },
        {
          "duration": 0.9230769999999922,
          "durationTicks": 480,
          "midi": 68,
          "name": "G#4",
          "ticks": 35040,
          "time": 67.384621,
          "velocity": 0.3937007874015748
        },
        {
          "duration": 0.9153846916666737,
          "durationTicks": 476,
          "midi": 58,
          "name": "A#3",
          "ticks": 35520,
          "time": 68.30769799999999,
          "velocity": 0.36220472440944884
        },
        {
          "duration": 0.9153846916666737,
          "durationTicks": 476,
          "midi": 63,
          "name": "D#4",
          "ticks": 35520,
          "time": 68.30769799999999,
          "velocity": 0.36220472440944884
        },
        {
          "duration": 0.9153846916666737,
          "durationTicks": 476,
          "midi": 64,
          "name": "E4",
          "ticks": 35520,
          "time": 68.30769799999999,
          "velocity": 0.36220472440944884
        },
        {
          "duration": 0.9153846916666737,
          "durationTicks": 476,
          "midi": 68,
          "name": "G#4",
          "ticks": 35520,
          "time": 68.30769799999999,
          "velocity": 0.36220472440944884
        },
        {
          "duration": 0.9153846916666595,
          "durationTicks": 476,
          "midi": 58,
          "name": "A#3",
          "ticks": 36000,
          "time": 69.230775,
          "velocity": 0.36220472440944884
        },
        {
          "duration": 0.9153846916666595,
          "durationTicks": 476,
          "midi": 63,
          "name": "D#4",
          "ticks": 36000,
          "time": 69.230775,
          "velocity": 0.36220472440944884
        },
        {
          "duration": 0.9153846916666595,
          "durationTicks": 476,
          "midi": 64,
          "name": "E4",
          "ticks": 36000,
          "time": 69.230775,
          "velocity": 0.36220472440944884
        },
        {
          "duration": 0.9153846916666595,
          "durationTicks": 476,
          "midi": 68,
          "name": "G#4",
          "ticks": 36000,
          "time": 69.230775,
          "velocity": 0.36220472440944884
        },
        {
          "duration": 3.68461569166665,
          "durationTicks": 1916,
          "midi": 57,
          "name": "A3",
          "ticks": 36480,
          "time": 70.153852,
          "velocity": 0.4409448818897638
        },
        {
          "duration": 1.3769231916666484,
          "durationTicks": 716,
          "midi": 61,
          "name": "C#4",
          "ticks": 36480,
          "time": 70.153852,
          "velocity": 0.4409448818897638
        },
        {
          "duration": 1.3769231916666484,
          "durationTicks": 716,
          "midi": 62,
          "name": "D4",
          "ticks": 36480,
          "time": 70.153852,
          "velocity": 0.4409448818897638
        },
        {
          "duration": 1.36923088333333,
          "durationTicks": 712,
          "midi": 66,
          "name": "F#4",
          "ticks": 36480,
          "time": 70.153852,
          "velocity": 0.4409448818897638
        },
        {
          "duration": 1.3769231916666627,
          "durationTicks": 716,
          "midi": 61,
          "name": "C#4",
          "ticks": 37200,
          "time": 71.5384675,
          "velocity": 0.4015748031496063
        },
        {
          "duration": 1.3769231916666627,
          "durationTicks": 716,
          "midi": 62,
          "name": "D4",
          "ticks": 37200,
          "time": 71.5384675,
          "velocity": 0.4015748031496063
        },
        {
          "duration": 1.3769231916666627,
          "durationTicks": 716,
          "midi": 66,
          "name": "F#4",
          "ticks": 37200,
          "time": 71.5384675,
          "velocity": 0.4015748031496063
        },
        {
          "duration": 0.9230770000000064,
          "durationTicks": 480,
          "midi": 61,
          "name": "C#4",
          "ticks": 37920,
          "time": 72.92308299999999,
          "velocity": 0.4094488188976378
        },
        {
          "duration": 0.9230770000000064,
          "durationTicks": 480,
          "midi": 62,
          "name": "D4",
          "ticks": 37920,
          "time": 72.92308299999999,
          "velocity": 0.4094488188976378
        },
        {
          "duration": 0.9230770000000064,
          "durationTicks": 480,
          "midi": 66,
          "name": "F#4",
          "ticks": 37920,
          "time": 72.92308299999999,
          "velocity": 0.4094488188976378
        },
        {
          "duration": 3.68461569166665,
          "durationTicks": 1916,
          "midi": 54,
          "name": "F#3",
          "ticks": 38400,
          "time": 73.84616,
          "velocity": 0.3937007874015748
        },
        {
          "duration": 0.9230769999999922,
          "durationTicks": 480,
          "midi": 60,
          "name": "C4",
          "ticks": 38400,
          "time": 73.84616,
          "velocity": 0.3937007874015748
        },
        {
          "duration": 0.9230769999999922,
          "durationTicks": 480,
          "midi": 64,
          "name": "E4",
          "ticks": 38400,
          "time": 73.84616,
          "velocity": 0.3937007874015748
        },
        {
          "duration": 0.9230770000000064,
          "durationTicks": 480,
          "midi": 60,
          "name": "C4",
          "ticks": 38880,
          "time": 74.76923699999999,
          "velocity": 0.3858267716535433
        },
        {
          "duration": 0.9230770000000064,
          "durationTicks": 480,
          "midi": 64,
          "name": "E4",
          "ticks": 38880,
          "time": 74.76923699999999,
          "velocity": 0.3858267716535433
        },
        {
          "duration": 0.9153846916666595,
          "durationTicks": 476,
          "midi": 60,
          "name": "C4",
          "ticks": 39360,
          "time": 75.692314,
          "velocity": 0.3543307086614173
        },
        {
          "duration": 0.9153846916666595,
          "durationTicks": 476,
          "midi": 64,
          "name": "E4",
          "ticks": 39360,
          "time": 75.692314,
          "velocity": 0.3543307086614173
        },
        {
          "duration": 0.9230770000000064,
          "durationTicks": 480,
          "midi": 60,
          "name": "C4",
          "ticks": 39840,
          "time": 76.61539099999999,
          "velocity": 0.36220472440944884
        },
        {
          "duration": 0.9230770000000064,
          "durationTicks": 480,
          "midi": 64,
          "name": "E4",
          "ticks": 39840,
          "time": 76.61539099999999,
          "velocity": 0.36220472440944884
        },
        {
          "duration": 2.1461540250000013,
          "durationTicks": 1116,
          "midi": 52,
          "name": "E3",
          "ticks": 40320,
          "time": 77.538468,
          "velocity": 0.3858267716535433
        },
        {
          "duration": 0.9230769999999922,
          "durationTicks": 480,
          "midi": 59,
          "name": "B3",
          "ticks": 40320,
          "time": 77.538468,
          "velocity": 0.3858267716535433
        },
        {
          "duration": 0.9230769999999922,
          "durationTicks": 480,
          "midi": 63,
          "name": "D#4",
          "ticks": 40320,
          "time": 77.538468,
          "velocity": 0.3858267716535433
        },
        {
          "duration": 1.2230770250000091,
          "durationTicks": 636,
          "midi": 59,
          "name": "B3",
          "ticks": 40800,
          "time": 78.46154499999999,
          "velocity": 0.3858267716535433
        },
        {
          "duration": 1.2230770250000091,
          "durationTicks": 636,
          "midi": 63,
          "name": "D#4",
          "ticks": 40800,
          "time": 78.46154499999999,
          "velocity": 0.3858267716535433
        },
        {
          "duration": 0.6538462083333343,
          "durationTicks": 340,
          "midi": 53,
          "name": "F3",
          "ticks": 41400,
          "time": 79.61539124999999,
          "velocity": 0.36220472440944884
        },
        {
          "duration": 0.6538462083333343,
          "durationTicks": 340,
          "midi": 59,
          "name": "B3",
          "ticks": 41400,
          "time": 79.61539124999999,
          "velocity": 0.36220472440944884
        },
        {
          "duration": 0.6538462083333343,
          "durationTicks": 340,
          "midi": 64,
          "name": "E4",
          "ticks": 41400,
          "time": 79.61539124999999,
          "velocity": 0.36220472440944884
        },
        {
          "duration": 0.9230769999999922,
          "durationTicks": 480,
          "midi": 53,
          "name": "F3",
          "ticks": 41760,
          "time": 80.307699,
          "velocity": 0.3700787401574803
        },
        {
          "duration": 0.9230769999999922,
          "durationTicks": 480,
          "midi": 59,
          "name": "B3",
          "ticks": 41760,
          "time": 80.307699,
          "velocity": 0.3700787401574803
        },
        {
          "duration": 0.9230769999999922,
          "durationTicks": 480,
          "midi": 64,
          "name": "E4",
          "ticks": 41760,
          "time": 80.307699,
          "velocity": 0.3700787401574803
        },
        {
          "duration": 0.9230770000000064,
          "durationTicks": 480,
          "midi": 54,
          "name": "F#3",
          "ticks": 42240,
          "time": 81.23077599999999,
          "velocity": 0.3937007874015748
        },
        {
          "duration": 0.9230770000000064,
          "durationTicks": 480,
          "midi": 57,
          "name": "A3",
          "ticks": 42240,
          "time": 81.23077599999999,
          "velocity": 0.3937007874015748
        },
        {
          "duration": 0.9230770000000064,
          "durationTicks": 480,
          "midi": 61,
          "name": "C#4",
          "ticks": 42240,
          "time": 81.23077599999999,
          "velocity": 0.3937007874015748
        },
        {
          "duration": 0.9230770000000064,
          "durationTicks": 480,
          "midi": 64,
          "name": "E4",
          "ticks": 42240,
          "time": 81.23077599999999,
          "velocity": 0.3937007874015748
        },
        {
          "duration": 0.9230769999999922,
          "durationTicks": 480,
          "midi": 54,
          "name": "F#3",
          "ticks": 42720,
          "time": 82.153853,
          "velocity": 0.4015748031496063
        },
        {
          "duration": 0.9230769999999922,
          "durationTicks": 480,
          "midi": 57,
          "name": "A3",
          "ticks": 42720,
          "time": 82.153853,
          "velocity": 0.4015748031496063
        },
        {
          "duration": 0.9230769999999922,
          "durationTicks": 480,
          "midi": 61,
          "name": "C#4",
          "ticks": 42720,
          "time": 82.153853,
          "velocity": 0.4015748031496063
        },
        {
          "duration": 0.9230769999999922,
          "durationTicks": 480,
          "midi": 64,
          "name": "E4",
          "ticks": 42720,
          "time": 82.153853,
          "velocity": 0.4015748031496063
        },
        {
          "duration": 1.8384616916666658,
          "durationTicks": 956,
          "midi": 57,
          "name": "A3",
          "ticks": 43200,
          "time": 83.07692999999999,
          "velocity": 0.3858267716535433
        },
        {
          "duration": 1.8384616916666658,
          "durationTicks": 956,
          "midi": 61,
          "name": "C#4",
          "ticks": 43200,
          "time": 83.07692999999999,
          "velocity": 0.3858267716535433
        },
        {
          "duration": 1.8384616916666658,
          "durationTicks": 956,
          "midi": 63,
          "name": "D#4",
          "ticks": 43200,
          "time": 83.07692999999999,
          "velocity": 0.3858267716535433
        },
        {
          "duration": 1.8384616916666658,
          "durationTicks": 956,
          "midi": 68,
          "name": "G#4",
          "ticks": 43200,
          "time": 83.07692999999999,
          "velocity": 0.3858267716535433
        },
        {
          "duration": 0.9153846916666595,
          "durationTicks": 476,
          "midi": 57,
          "name": "A3",
          "ticks": 44160,
          "time": 84.92308399999999,
          "velocity": 0.3858267716535433
        },
        {
          "duration": 0.9230770000000064,
          "durationTicks": 480,
          "midi": 61,
          "name": "C#4",
          "ticks": 44160,
          "time": 84.92308399999999,
          "velocity": 0.49606299212598426
        },
        {
          "duration": 0.9230770000000064,
          "durationTicks": 480,
          "midi": 62,
          "name": "D4",
          "ticks": 44160,
          "time": 84.92308399999999,
          "velocity": 0.49606299212598426
        },
        {
          "duration": 0.9230770000000064,
          "durationTicks": 480,
          "midi": 66,
          "name": "F#4",
          "ticks": 44160,
          "time": 84.92308399999999,
          "velocity": 0.49606299212598426
        },
        {
          "duration": 1.4923078166666528,
          "durationTicks": 776,
          "midi": 57,
          "name": "A3",
          "ticks": 44640,
          "time": 85.846161,
          "velocity": 0.3858267716535433
        },
        {
          "duration": 1.4923078166666528,
          "durationTicks": 776,
          "midi": 61,
          "name": "C#4",
          "ticks": 44640,
          "time": 85.846161,
          "velocity": 0.47244094488188976
        },
        {
          "duration": 1.4923078166666528,
          "durationTicks": 776,
          "midi": 62,
          "name": "D4",
          "ticks": 44640,
          "time": 85.846161,
          "velocity": 0.48031496062992124
        },
        {
          "duration": 1.4923078166666528,
          "durationTicks": 776,
          "midi": 66,
          "name": "F#4",
          "ticks": 44640,
          "time": 85.846161,
          "velocity": 0.49606299212598426
        },
        {
          "duration": 0.6153846666666567,
          "durationTicks": 320,
          "midi": 57,
          "name": "A3",
          "ticks": 45440,
          "time": 87.38462266666666,
          "velocity": 0.5433070866141733
        },
        {
          "duration": 0.6153846666666709,
          "durationTicks": 320,
          "midi": 56,
          "name": "G#3",
          "ticks": 45760,
          "time": 88.00000733333331,
          "velocity": 0.5275590551181102
        },
        {
          "duration": 1.7692309166666718,
          "durationTicks": 920,
          "midi": 54,
          "name": "F#3",
          "ticks": 46080,
          "time": 88.61539199999999,
          "velocity": 0.4330708661417323
        },
        {
          "duration": 0.9153846916666737,
          "durationTicks": 476,
          "midi": 59,
          "name": "B3",
          "ticks": 46080,
          "time": 88.61539199999999,
          "velocity": 0.4330708661417323
        },
        {
          "duration": 1.8384616916666658,
          "durationTicks": 956,
          "midi": 63,
          "name": "D#4",
          "ticks": 46080,
          "time": 88.61539199999999,
          "velocity": 0.4330708661417323
        },
        {
          "duration": 0.9153846916666595,
          "durationTicks": 476,
          "midi": 59,
          "name": "B3",
          "ticks": 46560,
          "time": 89.53846899999999,
          "velocity": 0.3858267716535433
        },
        {
          "duration": 1.7692309166666718,
          "durationTicks": 920,
          "midi": 49,
          "name": "C#3",
          "ticks": 47040,
          "time": 90.461546,
          "velocity": 0.3937007874015748
        },
        {
          "duration": 1.7692309166666718,
          "durationTicks": 920,
          "midi": 53,
          "name": "F3",
          "ticks": 47040,
          "time": 90.461546,
          "velocity": 0.3937007874015748
        },
        {
          "duration": 1.8384616916666516,
          "durationTicks": 956,
          "midi": 59,
          "name": "B3",
          "ticks": 47040,
          "time": 90.461546,
          "velocity": 0.3937007874015748
        },
        {
          "duration": 1.8384616916666516,
          "durationTicks": 956,
          "midi": 64,
          "name": "E4",
          "ticks": 47040,
          "time": 90.461546,
          "velocity": 0.3937007874015748
        },
        {
          "duration": 0.3000000250000028,
          "durationTicks": 156,
          "midi": 56,
          "name": "G#3",
          "ticks": 48000,
          "time": 92.3077,
          "velocity": 0.4251968503937008
        },
        {
          "duration": 0.3000000250000028,
          "durationTicks": 156,
          "midi": 57,
          "name": "A3",
          "ticks": 48000,
          "time": 92.3077,
          "velocity": 0.4251968503937008
        },
        {
          "duration": 0.3000000250000028,
          "durationTicks": 156,
          "midi": 61,
          "name": "C#4",
          "ticks": 48000,
          "time": 92.3077,
          "velocity": 0.4251968503937008
        },
        {
          "duration": 0.3000000250000028,
          "durationTicks": 156,
          "midi": 56,
          "name": "G#3",
          "ticks": 48160,
          "time": 92.61539233333332,
          "velocity": 0.47244094488188976
        },
        {
          "duration": 0.3000000250000028,
          "durationTicks": 156,
          "midi": 57,
          "name": "A3",
          "ticks": 48160,
          "time": 92.61539233333332,
          "velocity": 0.47244094488188976
        },
        {
          "duration": 0.3000000250000028,
          "durationTicks": 156,
          "midi": 61,
          "name": "C#4",
          "ticks": 48160,
          "time": 92.61539233333332,
          "velocity": 0.4015748031496063
        },
        {
          "duration": 0.7615385249999918,
          "durationTicks": 396,
          "midi": 56,
          "name": "G#3",
          "ticks": 48320,
          "time": 92.92308466666667,
          "velocity": 0.4330708661417323
        },
        {
          "duration": 0.7615385249999918,
          "durationTicks": 396,
          "midi": 57,
          "name": "A3",
          "ticks": 48320,
          "time": 92.92308466666667,
          "velocity": 0.4330708661417323
        },
        {
          "duration": 0.7615385249999918,
          "durationTicks": 396,
          "midi": 61,
          "name": "C#4",
          "ticks": 48320,
          "time": 92.92308466666667,
          "velocity": 0.4330708661417323
        },
        {
          "duration": 0.4538461916666563,
          "durationTicks": 236,
          "midi": 56,
          "name": "G#3",
          "ticks": 48720,
          "time": 93.69231549999999,
          "velocity": 0.36220472440944884
        },
        {
          "duration": 0.4538461916666563,
          "durationTicks": 236,
          "midi": 57,
          "name": "A3",
          "ticks": 48720,
          "time": 93.69231549999999,
          "velocity": 0.36220472440944884
        },
        {
          "duration": 0.4538461916666563,
          "durationTicks": 236,
          "midi": 61,
          "name": "C#4",
          "ticks": 48720,
          "time": 93.69231549999999,
          "velocity": 0.36220472440944884
        },
        {
          "duration": 1.3769231916666627,
          "durationTicks": 716,
          "midi": 54,
          "name": "F#3",
          "ticks": 48960,
          "time": 94.153854,
          "velocity": 0.3858267716535433
        },
        {
          "duration": 0.5307692749999973,
          "durationTicks": 276,
          "midi": 57,
          "name": "A3",
          "ticks": 48960,
          "time": 94.153854,
          "velocity": 0.3858267716535433
        },
        {
          "duration": 1.3769231916666627,
          "durationTicks": 716,
          "midi": 61,
          "name": "C#4",
          "ticks": 48960,
          "time": 94.153854,
          "velocity": 0.3858267716535433
        },
        {
          "duration": 0.8384616083333327,
          "durationTicks": 436,
          "midi": 57,
          "name": "A3",
          "ticks": 49240,
          "time": 94.69231558333333,
          "velocity": 0.3858267716535433
        },
        {
          "duration": 0.4538461916666563,
          "durationTicks": 236,
          "midi": 54,
          "name": "F#3",
          "ticks": 49680,
          "time": 95.53846949999999,
          "velocity": 0.5275590551181102
        },
        {
          "duration": 0.4538461916666563,
          "durationTicks": 236,
          "midi": 57,
          "name": "A3",
          "ticks": 49680,
          "time": 95.53846949999999,
          "velocity": 0.5275590551181102
        },
        {
          "duration": 0.4615385000000032,
          "durationTicks": 240,
          "midi": 61,
          "name": "C#4",
          "ticks": 49680,
          "time": 95.53846949999999,
          "velocity": 0.5275590551181102
        },
        {
          "duration": 0.9230769999999922,
          "durationTicks": 480,
          "midi": 60,
          "name": "C4",
          "ticks": 49920,
          "time": 96.000008,
          "velocity": 0.5118110236220472
        },
        {
          "duration": 3.6846156916666644,
          "durationTicks": 1916,
          "midi": 64,
          "name": "E4",
          "ticks": 49920,
          "time": 96.000008,
          "velocity": 0.49606299212598426
        },
        {
          "duration": 3.6846156916666644,
          "durationTicks": 1916,
          "midi": 65,
          "name": "F4",
          "ticks": 49920,
          "time": 96.000008,
          "velocity": 0.49606299212598426
        },
        {
          "duration": 0.9230770000000064,
          "durationTicks": 480,
          "midi": 60,
          "name": "C4",
          "ticks": 50400,
          "time": 96.92308499999999,
          "velocity": 0.4251968503937008
        },
        {
          "duration": 0.9230770000000064,
          "durationTicks": 480,
          "midi": 59,
          "name": "B3",
          "ticks": 50880,
          "time": 97.84616199999999,
          "velocity": 0.3858267716535433
        },
        {
          "duration": 0.9230769999999922,
          "durationTicks": 480,
          "midi": 59,
          "name": "B3",
          "ticks": 51360,
          "time": 98.769239,
          "velocity": 0.3543307086614173
        },
        {
          "duration": 0.4615385000000032,
          "durationTicks": 240,
          "midi": 56,
          "name": "G#3",
          "ticks": 51840,
          "time": 99.69231599999999,
          "velocity": 0.4330708661417323
        },
        {
          "duration": 0.4615385000000032,
          "durationTicks": 240,
          "midi": 57,
          "name": "A3",
          "ticks": 51840,
          "time": 99.69231599999999,
          "velocity": 0.4330708661417323
        },
        {
          "duration": 0.4615385000000032,
          "durationTicks": 240,
          "midi": 61,
          "name": "C#4",
          "ticks": 51840,
          "time": 99.69231599999999,
          "velocity": 0.4330708661417323
        },
        {
          "duration": 0.5307692749999973,
          "durationTicks": 276,
          "midi": 56,
          "name": "G#3",
          "ticks": 52080,
          "time": 100.1538545,
          "velocity": 0.4645669291338583
        },
        {
          "duration": 0.5307692749999973,
          "durationTicks": 276,
          "midi": 57,
          "name": "A3",
          "ticks": 52080,
          "time": 100.1538545,
          "velocity": 0.4645669291338583
        },
        {
          "duration": 0.5307692749999973,
          "durationTicks": 276,
          "midi": 61,
          "name": "C#4",
          "ticks": 52080,
          "time": 100.1538545,
          "velocity": 0.4645669291338583
        },
        {
          "duration": 0.37692310833332954,
          "durationTicks": 196,
          "midi": 56,
          "name": "G#3",
          "ticks": 52360,
          "time": 100.69231608333332,
          "velocity": 0.33858267716535434
        },
        {
          "duration": 0.37692310833332954,
          "durationTicks": 196,
          "midi": 57,
          "name": "A3",
          "ticks": 52360,
          "time": 100.69231608333332,
          "velocity": 0.33858267716535434
        },
        {
          "duration": 0.37692310833332954,
          "durationTicks": 196,
          "midi": 61,
          "name": "C#4",
          "ticks": 52360,
          "time": 100.69231608333332,
          "velocity": 0.33858267716535434
        },
        {
          "duration": 0.4615385000000032,
          "durationTicks": 240,
          "midi": 56,
          "name": "G#3",
          "ticks": 52560,
          "time": 101.07693149999999,
          "velocity": 0.36220472440944884
        },
        {
          "duration": 0.4615385000000032,
          "durationTicks": 240,
          "midi": 57,
          "name": "A3",
          "ticks": 52560,
          "time": 101.07693149999999,
          "velocity": 0.36220472440944884
        },
        {
          "duration": 0.4615385000000032,
          "durationTicks": 240,
          "midi": 61,
          "name": "C#4",
          "ticks": 52560,
          "time": 101.07693149999999,
          "velocity": 0.36220472440944884
        },
        {
          "duration": 0.4615385000000032,
          "durationTicks": 240,
          "midi": 56,
          "name": "G#3",
          "ticks": 52800,
          "time": 101.53846999999999,
          "velocity": 0.4015748031496063
        },
        {
          "duration": 0.4615385000000032,
          "durationTicks": 240,
          "midi": 57,
          "name": "A3",
          "ticks": 52800,
          "time": 101.53846999999999,
          "velocity": 0.4015748031496063
        },
        {
          "duration": 0.4615385000000032,
          "durationTicks": 240,
          "midi": 61,
          "name": "C#4",
          "ticks": 52800,
          "time": 101.53846999999999,
          "velocity": 0.4015748031496063
        },
        {
          "duration": 1.3769231916666627,
          "durationTicks": 716,
          "midi": 56,
          "name": "G#3",
          "ticks": 53040,
          "time": 102.00000849999999,
          "velocity": 0.4330708661417323
        },
        {
          "duration": 1.3769231916666627,
          "durationTicks": 716,
          "midi": 57,
          "name": "A3",
          "ticks": 53040,
          "time": 102.00000849999999,
          "velocity": 0.4330708661417323
        },
        {
          "duration": 1.3769231916666627,
          "durationTicks": 716,
          "midi": 61,
          "name": "C#4",
          "ticks": 53040,
          "time": 102.00000849999999,
          "velocity": 0.4330708661417323
        },
        {
          "duration": 0.9153846916666595,
          "durationTicks": 476,
          "midi": 53,
          "name": "F3",
          "ticks": 53760,
          "time": 103.38462399999999,
          "velocity": 0.44881889763779526
        },
        {
          "duration": 1.8384616916666658,
          "durationTicks": 956,
          "midi": 59,
          "name": "B3",
          "ticks": 53760,
          "time": 103.38462399999999,
          "velocity": 0.44881889763779526
        },
        {
          "duration": 0.9153846916666595,
          "durationTicks": 476,
          "midi": 53,
          "name": "F3",
          "ticks": 54240,
          "time": 104.307701,
          "velocity": 0.44881889763779526
        },
        {
          "duration": 0.9230770000000064,
          "durationTicks": 480,
          "midi": 52,
          "name": "E3",
          "ticks": 54720,
          "time": 105.23077799999999,
          "velocity": 0.5196850393700787
        },
        {
          "duration": 0.4538461916666705,
          "durationTicks": 236,
          "midi": 59,
          "name": "B3",
          "ticks": 54720,
          "time": 105.23077799999999,
          "velocity": 0.5196850393700787
        },
        {
          "duration": 1.3769231916666627,
          "durationTicks": 716,
          "midi": 58,
          "name": "A#3",
          "ticks": 54960,
          "time": 105.69231649999999,
          "velocity": 0.4251968503937008
        },
        {
          "duration": 0.9230769999999922,
          "durationTicks": 480,
          "midi": 52,
          "name": "E3",
          "ticks": 55200,
          "time": 106.153855,
          "velocity": 0.5118110236220472
        },
        {
          "duration": 2.761538691666672,
          "durationTicks": 1436,
          "midi": 57,
          "name": "A3",
          "ticks": 55680,
          "time": 107.07693199999999,
          "velocity": 0.5039370078740157
        },
        {
          "duration": 2.761538691666672,
          "durationTicks": 1436,
          "midi": 59,
          "name": "B3",
          "ticks": 55680,
          "time": 107.07693199999999,
          "velocity": 0.5039370078740157
        },
        {
          "duration": 2.761538691666672,
          "durationTicks": 1436,
          "midi": 61,
          "name": "C#4",
          "ticks": 55680,
          "time": 107.07693199999999,
          "velocity": 0.5039370078740157
        },
        {
          "duration": 2.761538691666672,
          "durationTicks": 1436,
          "midi": 62,
          "name": "D4",
          "ticks": 55680,
          "time": 107.07693199999999,
          "velocity": 0.5039370078740157
        },
        {
          "duration": 0.9153846916666595,
          "durationTicks": 476,
          "midi": 57,
          "name": "A3",
          "ticks": 57120,
          "time": 109.84616299999999,
          "velocity": 0.3464566929133858
        },
        {
          "duration": 1.8384616916666516,
          "durationTicks": 956,
          "midi": 57,
          "name": "A3",
          "ticks": 57600,
          "time": 110.76924,
          "velocity": 0.4409448818897638
        },
        {
          "duration": 1.8384616916666516,
          "durationTicks": 956,
          "midi": 63,
          "name": "D#4",
          "ticks": 57600,
          "time": 110.76924,
          "velocity": 0.4409448818897638
        },
        {
          "duration": 1.8461539999999985,
          "durationTicks": 960,
          "midi": 62,
          "name": "D4",
          "ticks": 58560,
          "time": 112.615394,
          "velocity": 0.4566929133858268
        },
        {
          "duration": 0.4615385000000032,
          "durationTicks": 240,
          "midi": 57,
          "name": "A3",
          "ticks": 58800,
          "time": 113.07693249999998,
          "velocity": 0.4015748031496063
        },
        {
          "duration": 0.9230770000000064,
          "durationTicks": 480,
          "midi": 56,
          "name": "G#3",
          "ticks": 59040,
          "time": 113.53847099999999,
          "velocity": 0.3464566929133858
        },
        {
          "duration": 0.6846154416666508,
          "durationTicks": 356,
          "midi": 56,
          "name": "G#3",
          "ticks": 59520,
          "time": 114.461548,
          "velocity": 0.4094488188976378
        },
        {
          "duration": 0.6846154416666508,
          "durationTicks": 356,
          "midi": 57,
          "name": "A3",
          "ticks": 59520,
          "time": 114.461548,
          "velocity": 0.4094488188976378
        },
        {
          "duration": 0.6846154416666508,
          "durationTicks": 356,
          "midi": 61,
          "name": "C#4",
          "ticks": 59520,
          "time": 114.461548,
          "velocity": 0.4094488188976378
        },
        {
          "duration": 0.6846154416666508,
          "durationTicks": 356,
          "midi": 64,
          "name": "E4",
          "ticks": 59520,
          "time": 114.461548,
          "velocity": 0.4094488188976378
        },
        {
          "duration": 0.6923077499999977,
          "durationTicks": 360,
          "midi": 56,
          "name": "G#3",
          "ticks": 59880,
          "time": 115.15385574999999,
          "velocity": 0.4094488188976378
        },
        {
          "duration": 0.6923077499999977,
          "durationTicks": 360,
          "midi": 57,
          "name": "A3",
          "ticks": 59880,
          "time": 115.15385574999999,
          "velocity": 0.4094488188976378
        },
        {
          "duration": 0.6923077499999977,
          "durationTicks": 360,
          "midi": 61,
          "name": "C#4",
          "ticks": 59880,
          "time": 115.15385574999999,
          "velocity": 0.4094488188976378
        },
        {
          "duration": 0.6923077499999977,
          "durationTicks": 360,
          "midi": 64,
          "name": "E4",
          "ticks": 59880,
          "time": 115.15385574999999,
          "velocity": 0.4094488188976378
        },
        {
          "duration": 0.4615385000000032,
          "durationTicks": 240,
          "midi": 56,
          "name": "G#3",
          "ticks": 60240,
          "time": 115.84616349999999,
          "velocity": 0.41732283464566927
        },
        {
          "duration": 0.4615385000000032,
          "durationTicks": 240,
          "midi": 57,
          "name": "A3",
          "ticks": 60240,
          "time": 115.84616349999999,
          "velocity": 0.41732283464566927
        },
        {
          "duration": 0.4615385000000032,
          "durationTicks": 240,
          "midi": 61,
          "name": "C#4",
          "ticks": 60240,
          "time": 115.84616349999999,
          "velocity": 0.41732283464566927
        },
        {
          "duration": 0.4615385000000032,
          "durationTicks": 240,
          "midi": 64,
          "name": "E4",
          "ticks": 60240,
          "time": 115.84616349999999,
          "velocity": 0.41732283464566927
        },
        {
          "duration": 0.6923077499999977,
          "durationTicks": 360,
          "midi": 56,
          "name": "G#3",
          "ticks": 60480,
          "time": 116.30770199999999,
          "velocity": 0.41732283464566927
        },
        {
          "duration": 0.6923077499999977,
          "durationTicks": 360,
          "midi": 57,
          "name": "A3",
          "ticks": 60480,
          "time": 116.30770199999999,
          "velocity": 0.41732283464566927
        },
        {
          "duration": 0.6923077499999977,
          "durationTicks": 360,
          "midi": 61,
          "name": "C#4",
          "ticks": 60480,
          "time": 116.30770199999999,
          "velocity": 0.41732283464566927
        },
        {
          "duration": 0.6923077499999977,
          "durationTicks": 360,
          "midi": 64,
          "name": "E4",
          "ticks": 60480,
          "time": 116.30770199999999,
          "velocity": 0.41732283464566927
        },
        {
          "duration": 0.6923077499999977,
          "durationTicks": 360,
          "midi": 56,
          "name": "G#3",
          "ticks": 60840,
          "time": 117.00000974999999,
          "velocity": 0.41732283464566927
        },
        {
          "duration": 0.6923077499999977,
          "durationTicks": 360,
          "midi": 57,
          "name": "A3",
          "ticks": 60840,
          "time": 117.00000974999999,
          "velocity": 0.41732283464566927
        },
        {
          "duration": 0.6923077499999977,
          "durationTicks": 360,
          "midi": 61,
          "name": "C#4",
          "ticks": 60840,
          "time": 117.00000974999999,
          "velocity": 0.41732283464566927
        },
        {
          "duration": 0.6923077499999977,
          "durationTicks": 360,
          "midi": 64,
          "name": "E4",
          "ticks": 60840,
          "time": 117.00000974999999,
          "velocity": 0.41732283464566927
        },
        {
          "duration": 0.4615385000000032,
          "durationTicks": 240,
          "midi": 56,
          "name": "G#3",
          "ticks": 61200,
          "time": 117.69231749999999,
          "velocity": 0.41732283464566927
        },
        {
          "duration": 0.4615385000000032,
          "durationTicks": 240,
          "midi": 57,
          "name": "A3",
          "ticks": 61200,
          "time": 117.69231749999999,
          "velocity": 0.41732283464566927
        },
        {
          "duration": 0.4615385000000032,
          "durationTicks": 240,
          "midi": 61,
          "name": "C#4",
          "ticks": 61200,
          "time": 117.69231749999999,
          "velocity": 0.41732283464566927
        },
        {
          "duration": 0.4615385000000032,
          "durationTicks": 240,
          "midi": 64,
          "name": "E4",
          "ticks": 61200,
          "time": 117.69231749999999,
          "velocity": 0.41732283464566927
        },
        {
          "duration": 0.6846154416666792,
          "durationTicks": 356,
          "midi": 57,
          "name": "A3",
          "ticks": 61440,
          "time": 118.15385599999999,
          "velocity": 0.41732283464566927
        },
        {
          "duration": 0.6846154416666792,
          "durationTicks": 356,
          "midi": 61,
          "name": "C#4",
          "ticks": 61440,
          "time": 118.15385599999999,
          "velocity": 0.41732283464566927
        },
        {
          "duration": 0.6846154416666792,
          "durationTicks": 356,
          "midi": 62,
          "name": "D4",
          "ticks": 61440,
          "time": 118.15385599999999,
          "velocity": 0.41732283464566927
        },
        {
          "duration": 0.6846154416666792,
          "durationTicks": 356,
          "midi": 66,
          "name": "F#4",
          "ticks": 61440,
          "time": 118.15385599999999,
          "velocity": 0.41732283464566927
        },
        {
          "duration": 0.6923077499999977,
          "durationTicks": 360,
          "midi": 57,
          "name": "A3",
          "ticks": 61800,
          "time": 118.84616374999999,
          "velocity": 0.41732283464566927
        },
        {
          "duration": 0.6923077499999977,
          "durationTicks": 360,
          "midi": 61,
          "name": "C#4",
          "ticks": 61800,
          "time": 118.84616374999999,
          "velocity": 0.41732283464566927
        },
        {
          "duration": 0.6923077499999977,
          "durationTicks": 360,
          "midi": 62,
          "name": "D4",
          "ticks": 61800,
          "time": 118.84616374999999,
          "velocity": 0.41732283464566927
        },
        {
          "duration": 0.6846154416666792,
          "durationTicks": 356,
          "midi": 66,
          "name": "F#4",
          "ticks": 61800,
          "time": 118.84616374999999,
          "velocity": 0.41732283464566927
        },
        {
          "duration": 0.4615385000000032,
          "durationTicks": 240,
          "midi": 57,
          "name": "A3",
          "ticks": 62160,
          "time": 119.53847149999999,
          "velocity": 0.41732283464566927
        },
        {
          "duration": 0.4615385000000032,
          "durationTicks": 240,
          "midi": 61,
          "name": "C#4",
          "ticks": 62160,
          "time": 119.53847149999999,
          "velocity": 0.41732283464566927
        },
        {
          "duration": 0.4615385000000032,
          "durationTicks": 240,
          "midi": 62,
          "name": "D4",
          "ticks": 62160,
          "time": 119.53847149999999,
          "velocity": 0.41732283464566927
        },
        {
          "duration": 0.4615385000000032,
          "durationTicks": 240,
          "midi": 66,
          "name": "F#4",
          "ticks": 62160,
          "time": 119.53847149999999,
          "velocity": 0.41732283464566927
        },
        {
          "duration": 0.6076923583333382,
          "durationTicks": 316,
          "midi": 57,
          "name": "A3",
          "ticks": 62400,
          "time": 120.00000999999999,
          "velocity": 0.41732283464566927
        },
        {
          "duration": 0.6076923583333382,
          "durationTicks": 316,
          "midi": 61,
          "name": "C#4",
          "ticks": 62400,
          "time": 120.00000999999999,
          "velocity": 0.41732283464566927
        },
        {
          "duration": 0.6076923583333382,
          "durationTicks": 316,
          "midi": 62,
          "name": "D4",
          "ticks": 62400,
          "time": 120.00000999999999,
          "velocity": 0.41732283464566927
        },
        {
          "duration": 0.6076923583333382,
          "durationTicks": 316,
          "midi": 66,
          "name": "F#4",
          "ticks": 62400,
          "time": 120.00000999999999,
          "velocity": 0.41732283464566927
        },
        {
          "duration": 0.30769233333334967,
          "durationTicks": 160,
          "midi": 57,
          "name": "A3",
          "ticks": 62720,
          "time": 120.61539466666665,
          "velocity": 0.41732283464566927
        },
        {
          "duration": 0.30769233333334967,
          "durationTicks": 160,
          "midi": 61,
          "name": "C#4",
          "ticks": 62720,
          "time": 120.61539466666665,
          "velocity": 0.41732283464566927
        },
        {
          "duration": 0.30769233333334967,
          "durationTicks": 160,
          "midi": 62,
          "name": "D4",
          "ticks": 62720,
          "time": 120.61539466666665,
          "velocity": 0.41732283464566927
        },
        {
          "duration": 0.30769233333334967,
          "durationTicks": 160,
          "midi": 66,
          "name": "F#4",
          "ticks": 62720,
          "time": 120.61539466666665,
          "velocity": 0.41732283464566927
        },
        {
          "duration": 0.30000002499998857,
          "durationTicks": 156,
          "midi": 57,
          "name": "A3",
          "ticks": 62880,
          "time": 120.923087,
          "velocity": 0.41732283464566927
        },
        {
          "duration": 0.9153846916666737,
          "durationTicks": 476,
          "midi": 61,
          "name": "C#4",
          "ticks": 62880,
          "time": 120.923087,
          "velocity": 0.41732283464566927
        },
        {
          "duration": 0.9153846916666737,
          "durationTicks": 476,
          "midi": 62,
          "name": "D4",
          "ticks": 62880,
          "time": 120.923087,
          "velocity": 0.41732283464566927
        },
        {
          "duration": 0.9153846916666737,
          "durationTicks": 476,
          "midi": 66,
          "name": "F#4",
          "ticks": 62880,
          "time": 120.923087,
          "velocity": 0.41732283464566927
        },
        {
          "duration": 0.6076923583333382,
          "durationTicks": 316,
          "midi": 56,
          "name": "G#3",
          "ticks": 63040,
          "time": 121.23077933333333,
          "velocity": 0.41732283464566927
        },
        {
          "duration": 0.9230770000000064,
          "durationTicks": 480,
          "midi": 56,
          "name": "G#3",
          "ticks": 63360,
          "time": 121.84616399999999,
          "velocity": 0.4251968503937008
        },
        {
          "duration": 0.9230770000000064,
          "durationTicks": 480,
          "midi": 57,
          "name": "A3",
          "ticks": 63360,
          "time": 121.84616399999999,
          "velocity": 0.4251968503937008
        },
        {
          "duration": 0.9230770000000064,
          "durationTicks": 480,
          "midi": 61,
          "name": "C#4",
          "ticks": 63360,
          "time": 121.84616399999999,
          "velocity": 0.4251968503937008
        },
        {
          "duration": 0.9230770000000064,
          "durationTicks": 480,
          "midi": 64,
          "name": "E4",
          "ticks": 63360,
          "time": 121.84616399999999,
          "velocity": 0.4251968503937008
        },
        {
          "duration": 0.9230769999999922,
          "durationTicks": 480,
          "midi": 56,
          "name": "G#3",
          "ticks": 63840,
          "time": 122.769241,
          "velocity": 0.4251968503937008
        },
        {
          "duration": 0.9230769999999922,
          "durationTicks": 480,
          "midi": 57,
          "name": "A3",
          "ticks": 63840,
          "time": 122.769241,
          "velocity": 0.4251968503937008
        },
        {
          "duration": 0.9230769999999922,
          "durationTicks": 480,
          "midi": 61,
          "name": "C#4",
          "ticks": 63840,
          "time": 122.769241,
          "velocity": 0.4251968503937008
        },
        {
          "duration": 0.9230769999999922,
          "durationTicks": 480,
          "midi": 64,
          "name": "E4",
          "ticks": 63840,
          "time": 122.769241,
          "velocity": 0.4251968503937008
        },
        {
          "duration": 0.2846154083333374,
          "durationTicks": 148,
          "midi": 56,
          "name": "G#3",
          "ticks": 64320,
          "time": 123.69231799999999,
          "velocity": 0.4409448818897638
        },
        {
          "duration": 0.2846154083333374,
          "durationTicks": 148,
          "midi": 57,
          "name": "A3",
          "ticks": 64320,
          "time": 123.69231799999999,
          "velocity": 0.4409448818897638
        },
        {
          "duration": 0.2846154083333374,
          "durationTicks": 148,
          "midi": 61,
          "name": "C#4",
          "ticks": 64320,
          "time": 123.69231799999999,
          "velocity": 0.4409448818897638
        },
        {
          "duration": 0.2846154083333374,
          "durationTicks": 148,
          "midi": 64,
          "name": "E4",
          "ticks": 64320,
          "time": 123.69231799999999,
          "velocity": 0.4409448818897638
        },
        {
          "duration": 0.607692358333324,
          "durationTicks": 316,
          "midi": 56,
          "name": "G#3",
          "ticks": 64480,
          "time": 124.00001033333334,
          "velocity": 0.4330708661417323
        },
        {
          "duration": 0.607692358333324,
          "durationTicks": 316,
          "midi": 57,
          "name": "A3",
          "ticks": 64480,
          "time": 124.00001033333334,
          "velocity": 0.4330708661417323
        },
        {
          "duration": 0.607692358333324,
          "durationTicks": 316,
          "midi": 61,
          "name": "C#4",
          "ticks": 64480,
          "time": 124.00001033333334,
          "velocity": 0.4330708661417323
        },
        {
          "duration": 0.607692358333324,
          "durationTicks": 316,
          "midi": 64,
          "name": "E4",
          "ticks": 64480,
          "time": 124.00001033333334,
          "velocity": 0.4330708661417323
        },
        {
          "duration": 0.4538461916666705,
          "durationTicks": 236,
          "midi": 56,
          "name": "G#3",
          "ticks": 64800,
          "time": 124.61539499999999,
          "velocity": 0.4330708661417323
        },
        {
          "duration": 0.4538461916666705,
          "durationTicks": 236,
          "midi": 57,
          "name": "A3",
          "ticks": 64800,
          "time": 124.61539499999999,
          "velocity": 0.4330708661417323
        },
        {
          "duration": 0.4538461916666705,
          "durationTicks": 236,
          "midi": 61,
          "name": "C#4",
          "ticks": 64800,
          "time": 124.61539499999999,
          "velocity": 0.4330708661417323
        },
        {
          "duration": 0.4538461916666705,
          "durationTicks": 236,
          "midi": 64,
          "name": "E4",
          "ticks": 64800,
          "time": 124.61539499999999,
          "velocity": 0.4330708661417323
        },
        {
          "duration": 0.4538461916666705,
          "durationTicks": 236,
          "midi": 56,
          "name": "G#3",
          "ticks": 65040,
          "time": 125.0769335,
          "velocity": 0.4330708661417323
        },
        {
          "duration": 0.4538461916666705,
          "durationTicks": 236,
          "midi": 57,
          "name": "A3",
          "ticks": 65040,
          "time": 125.0769335,
          "velocity": 0.4330708661417323
        },
        {
          "duration": 0.4538461916666705,
          "durationTicks": 236,
          "midi": 61,
          "name": "C#4",
          "ticks": 65040,
          "time": 125.0769335,
          "velocity": 0.4330708661417323
        },
        {
          "duration": 0.4538461916666705,
          "durationTicks": 236,
          "midi": 64,
          "name": "E4",
          "ticks": 65040,
          "time": 125.0769335,
          "velocity": 0.4330708661417323
        },
        {
          "duration": 0.4615385000000032,
          "durationTicks": 240,
          "midi": 59,
          "name": "B3",
          "ticks": 65400,
          "time": 125.76924125,
          "velocity": 0.5039370078740157
        },
        {
          "duration": 0.4615385000000032,
          "durationTicks": 240,
          "midi": 63,
          "name": "D#4",
          "ticks": 65400,
          "time": 125.76924125,
          "velocity": 0.5039370078740157
        },
        {
          "duration": 0.4615385000000032,
          "durationTicks": 240,
          "midi": 64,
          "name": "E4",
          "ticks": 65400,
          "time": 125.76924125,
          "velocity": 0.5039370078740157
        },
        {
          "duration": 0.23076924999999449,
          "durationTicks": 120,
          "midi": 64,
          "name": "E4",
          "ticks": 65640,
          "time": 126.23077975,
          "velocity": 0.4094488188976378
        },
        {
          "duration": 0.9153846916666737,
          "durationTicks": 476,
          "midi": 59,
          "name": "B3",
          "ticks": 65760,
          "time": 126.46154899999999,
          "velocity": 0.5275590551181102
        },
        {
          "duration": 0.9153846916666737,
          "durationTicks": 476,
          "midi": 62,
          "name": "D4",
          "ticks": 65760,
          "time": 126.46154899999999,
          "velocity": 0.5275590551181102
        },
        {
          "duration": 0.21538463333331492,
          "durationTicks": 112,
          "midi": 66,
          "name": "F#4",
          "ticks": 65760,
          "time": 126.46154899999999,
          "velocity": 0.5275590551181102
        },
        {
          "duration": 0.6846154416666792,
          "durationTicks": 356,
          "midi": 66,
          "name": "F#4",
          "ticks": 65880,
          "time": 126.69231824999999,
          "velocity": 0.4645669291338583
        },
        {
          "duration": 0.9230770000000206,
          "durationTicks": 480,
          "midi": 58,
          "name": "A#3",
          "ticks": 66240,
          "time": 127.38462599999998,
          "velocity": 0.5118110236220472
        },
        {
          "duration": 0.9230770000000206,
          "durationTicks": 480,
          "midi": 62,
          "name": "D4",
          "ticks": 66240,
          "time": 127.38462599999998,
          "velocity": 0.5118110236220472
        },
        {
          "duration": 0.9153846916666879,
          "durationTicks": 476,
          "midi": 66,
          "name": "F#4",
          "ticks": 66240,
          "time": 127.38462599999998,
          "velocity": 0.5118110236220472
        },
        {
          "duration": 0.9230769999999779,
          "durationTicks": 480,
          "midi": 58,
          "name": "A#3",
          "ticks": 66720,
          "time": 128.307703,
          "velocity": 0.30708661417322836
        },
        {
          "duration": 0.9153846916666737,
          "durationTicks": 476,
          "midi": 62,
          "name": "D4",
          "ticks": 66720,
          "time": 128.307703,
          "velocity": 0.30708661417322836
        },
        {
          "duration": 0.9153846916666737,
          "durationTicks": 476,
          "midi": 66,
          "name": "F#4",
          "ticks": 66720,
          "time": 128.307703,
          "velocity": 0.30708661417322836
        },
        {
          "duration": 0.9230770000000064,
          "durationTicks": 480,
          "midi": 57,
          "name": "A3",
          "ticks": 67200,
          "time": 129.23077999999998,
          "velocity": 0.3858267716535433
        },
        {
          "duration": 0.9230770000000064,
          "durationTicks": 480,
          "midi": 61,
          "name": "C#4",
          "ticks": 67200,
          "time": 129.23077999999998,
          "velocity": 0.3858267716535433
        },
        {
          "duration": 0.9230770000000064,
          "durationTicks": 480,
          "midi": 62,
          "name": "D4",
          "ticks": 67200,
          "time": 129.23077999999998,
          "velocity": 0.3858267716535433
        },
        {
          "duration": 0.9230770000000064,
          "durationTicks": 480,
          "midi": 66,
          "name": "F#4",
          "ticks": 67200,
          "time": 129.23077999999998,
          "velocity": 0.3858267716535433
        },
        {
          "duration": 0.9230770000000064,
          "durationTicks": 480,
          "midi": 57,
          "name": "A3",
          "ticks": 67680,
          "time": 130.153857,
          "velocity": 0.3858267716535433
        },
        {
          "duration": 0.9230770000000064,
          "durationTicks": 480,
          "midi": 61,
          "name": "C#4",
          "ticks": 67680,
          "time": 130.153857,
          "velocity": 0.3858267716535433
        },
        {
          "duration": 0.9230770000000064,
          "durationTicks": 480,
          "midi": 62,
          "name": "D4",
          "ticks": 67680,
          "time": 130.153857,
          "velocity": 0.3858267716535433
        },
        {
          "duration": 0.9230770000000064,
          "durationTicks": 480,
          "midi": 66,
          "name": "F#4",
          "ticks": 67680,
          "time": 130.153857,
          "velocity": 0.3858267716535433
        },
        {
          "duration": 0.9230770000000064,
          "durationTicks": 480,
          "midi": 57,
          "name": "A3",
          "ticks": 68160,
          "time": 131.076934,
          "velocity": 0.3858267716535433
        },
        {
          "duration": 0.9230770000000064,
          "durationTicks": 480,
          "midi": 61,
          "name": "C#4",
          "ticks": 68160,
          "time": 131.076934,
          "velocity": 0.3858267716535433
        },
        {
          "duration": 0.9230770000000064,
          "durationTicks": 480,
          "midi": 62,
          "name": "D4",
          "ticks": 68160,
          "time": 131.076934,
          "velocity": 0.3858267716535433
        },
        {
          "duration": 0.9230770000000064,
          "durationTicks": 480,
          "midi": 66,
          "name": "F#4",
          "ticks": 68160,
          "time": 131.076934,
          "velocity": 0.3858267716535433
        },
        {
          "duration": 0.4538461916666563,
          "durationTicks": 236,
          "midi": 57,
          "name": "A3",
          "ticks": 68640,
          "time": 132.000011,
          "velocity": 0.36220472440944884
        },
        {
          "duration": 1.146153941666654,
          "durationTicks": 596,
          "midi": 61,
          "name": "C#4",
          "ticks": 68640,
          "time": 132.000011,
          "velocity": 0.36220472440944884
        },
        {
          "duration": 1.0692308583333272,
          "durationTicks": 556,
          "midi": 62,
          "name": "D4",
          "ticks": 68640,
          "time": 132.000011,
          "velocity": 0.36220472440944884
        },
        {
          "duration": 1.146153941666654,
          "durationTicks": 596,
          "midi": 66,
          "name": "F#4",
          "ticks": 68640,
          "time": 132.000011,
          "velocity": 0.36220472440944884
        },
        {
          "duration": 0.684615441666665,
          "durationTicks": 356,
          "midi": 57,
          "name": "A3",
          "ticks": 68880,
          "time": 132.4615495,
          "velocity": 0.4330708661417323
        },
        {
          "duration": 2.146154024999987,
          "durationTicks": 1116,
          "midi": 54,
          "name": "F#3",
          "ticks": 69280,
          "time": 133.23078033333334,
          "velocity": 0.5354330708661418
        },
        {
          "duration": 2.146154024999987,
          "durationTicks": 1116,
          "midi": 61,
          "name": "C#4",
          "ticks": 69280,
          "time": 133.23078033333334,
          "velocity": 0.5354330708661418
        },
        {
          "duration": 1.2230770250000376,
          "durationTicks": 636,
          "midi": 54,
          "name": "F#3",
          "ticks": 70400,
          "time": 135.38462666666663,
          "velocity": 0.41732283464566927
        },
        {
          "duration": 1.2230770250000376,
          "durationTicks": 636,
          "midi": 60,
          "name": "C4",
          "ticks": 70400,
          "time": 135.38462666666663,
          "velocity": 0.41732283464566927
        },
        {
          "duration": 1.2230770250000376,
          "durationTicks": 636,
          "midi": 64,
          "name": "E4",
          "ticks": 70400,
          "time": 135.38462666666663,
          "velocity": 0.41732283464566927
        },
        {
          "duration": 1.376923191666691,
          "durationTicks": 716,
          "midi": 52,
          "name": "E3",
          "ticks": 71040,
          "time": 136.61539599999998,
          "velocity": 0.36220472440944884
        },
        {
          "duration": 1.83846169166668,
          "durationTicks": 956,
          "midi": 56,
          "name": "G#3",
          "ticks": 71040,
          "time": 136.61539599999998,
          "velocity": 0.36220472440944884
        },
        {
          "duration": 1.83846169166668,
          "durationTicks": 956,
          "midi": 63,
          "name": "D#4",
          "ticks": 71040,
          "time": 136.61539599999998,
          "velocity": 0.36220472440944884
        },
        {
          "duration": 0.4538461916666563,
          "durationTicks": 236,
          "midi": 52,
          "name": "E3",
          "ticks": 71760,
          "time": 138.0000115,
          "velocity": 0.36220472440944884
        },
        {
          "duration": 1.83846169166668,
          "durationTicks": 956,
          "midi": 53,
          "name": "F3",
          "ticks": 72000,
          "time": 138.46155,
          "velocity": 0.4566929133858268
        },
        {
          "duration": 1.4538462749999894,
          "durationTicks": 756,
          "midi": 59,
          "name": "B3",
          "ticks": 72000,
          "time": 138.46155,
          "velocity": 0.4566929133858268
        },
        {
          "duration": 1.9153847749999784,
          "durationTicks": 996,
          "midi": 64,
          "name": "E4",
          "ticks": 72000,
          "time": 138.46155,
          "velocity": 0.4566929133858268
        },
        {
          "duration": 0.37692310833332954,
          "durationTicks": 196,
          "midi": 59,
          "name": "B3",
          "ticks": 72760,
          "time": 139.92308858333334,
          "velocity": 0.4566929133858268
        },
        {
          "duration": 1.0692308583333272,
          "durationTicks": 556,
          "midi": 54,
          "name": "F#3",
          "ticks": 72960,
          "time": 140.307704,
          "velocity": 0.4566929133858268
        },
        {
          "duration": 1.0692308583333272,
          "durationTicks": 556,
          "midi": 57,
          "name": "A3",
          "ticks": 72960,
          "time": 140.307704,
          "velocity": 0.4566929133858268
        },
        {
          "duration": 1.0692308583333272,
          "durationTicks": 556,
          "midi": 61,
          "name": "C#4",
          "ticks": 72960,
          "time": 140.307704,
          "velocity": 0.4566929133858268
        },
        {
          "duration": 1.0692308583333272,
          "durationTicks": 556,
          "midi": 64,
          "name": "E4",
          "ticks": 72960,
          "time": 140.307704,
          "velocity": 0.4566929133858268
        },
        {
          "duration": 2.1461540250000155,
          "durationTicks": 1116,
          "midi": 56,
          "name": "G#3",
          "ticks": 73520,
          "time": 141.38462716666663,
          "velocity": 0.33858267716535434
        },
        {
          "duration": 2.1461540250000155,
          "durationTicks": 1116,
          "midi": 57,
          "name": "A3",
          "ticks": 73520,
          "time": 141.38462716666663,
          "velocity": 0.33858267716535434
        },
        {
          "duration": 2.1461540250000155,
          "durationTicks": 1116,
          "midi": 61,
          "name": "C#4",
          "ticks": 73520,
          "time": 141.38462716666663,
          "velocity": 0.33858267716535434
        },
        {
          "duration": 2.1461540250000155,
          "durationTicks": 1116,
          "midi": 64,
          "name": "E4",
          "ticks": 73520,
          "time": 141.38462716666663,
          "velocity": 0.5118110236220472
        },
        {
          "duration": 1.8384616916666516,
          "durationTicks": 956,
          "midi": 54,
          "name": "F#3",
          "ticks": 73680,
          "time": 141.6923195,
          "velocity": 0.30708661417322836
        },
        {
          "duration": 0.2923077166666701,
          "durationTicks": 152,
          "midi": 52,
          "name": "E3",
          "ticks": 74640,
          "time": 143.53847349999998,
          "velocity": 0.47244094488188976
        },
        {
          "duration": 0.2846154083333374,
          "durationTicks": 148,
          "midi": 56,
          "name": "G#3",
          "ticks": 74640,
          "time": 143.53847349999998,
          "velocity": 0.47244094488188976
        },
        {
          "duration": 0.2923077166666701,
          "durationTicks": 152,
          "midi": 57,
          "name": "A3",
          "ticks": 74640,
          "time": 143.53847349999998,
          "velocity": 0.47244094488188976
        },
        {
          "duration": 0.2923077166666701,
          "durationTicks": 152,
          "midi": 61,
          "name": "C#4",
          "ticks": 74640,
          "time": 143.53847349999998,
          "velocity": 0.47244094488188976
        },
        {
          "duration": 0.43846157499999094,
          "durationTicks": 228,
          "midi": 57,
          "name": "A3",
          "ticks": 74800,
          "time": 143.84616583333334,
          "velocity": 0.4645669291338583
        },
        {
          "duration": 0.4538461916666279,
          "durationTicks": 236,
          "midi": 61,
          "name": "C#4",
          "ticks": 74800,
          "time": 143.84616583333334,
          "velocity": 0.4645669291338583
        },
        {
          "duration": 0.4538461916666279,
          "durationTicks": 236,
          "midi": 62,
          "name": "D4",
          "ticks": 74800,
          "time": 143.84616583333334,
          "velocity": 0.4645669291338583
        },
        {
          "duration": 0.9230770000000064,
          "durationTicks": 480,
          "midi": 50,
          "name": "D3",
          "ticks": 75040,
          "time": 144.30770433333333,
          "velocity": 0.5118110236220472
        },
        {
          "duration": 0.9153846916666453,
          "durationTicks": 476,
          "midi": 54,
          "name": "F#3",
          "ticks": 75040,
          "time": 144.30770433333333,
          "velocity": 0.5118110236220472
        },
        {
          "duration": 0.9153846916666453,
          "durationTicks": 476,
          "midi": 57,
          "name": "A3",
          "ticks": 75040,
          "time": 144.30770433333333,
          "velocity": 0.5118110236220472
        },
        {
          "duration": 0.1615384749999862,
          "durationTicks": 84,
          "midi": 54,
          "name": "F#3",
          "ticks": 75520,
          "time": 145.23078133333334,
          "velocity": 0.5196850393700787
        },
        {
          "duration": 0.2307692500000087,
          "durationTicks": 120,
          "midi": 57,
          "name": "A3",
          "ticks": 75600,
          "time": 145.3846275,
          "velocity": 0.5275590551181102
        },
        {
          "duration": 0.5230769666666504,
          "durationTicks": 272,
          "midi": 57,
          "name": "A3",
          "ticks": 75760,
          "time": 145.69231983333333,
          "velocity": 0.5275590551181102
        },
        {
          "duration": 0.46923080833332165,
          "durationTicks": 244,
          "midi": 61,
          "name": "C#4",
          "ticks": 75760,
          "time": 145.69231983333333,
          "velocity": 0.5354330708661418
        },
        {
          "duration": 0.30769233333333545,
          "durationTicks": 160,
          "midi": 62,
          "name": "D4",
          "ticks": 76000,
          "time": 146.15385833333332,
          "velocity": 0.5118110236220472
        },
        {
          "duration": 0.30769233333333545,
          "durationTicks": 160,
          "midi": 64,
          "name": "E4",
          "ticks": 76000,
          "time": 146.15385833333332,
          "velocity": 0.5433070866141733
        },
        {
          "duration": 0.30769233333333545,
          "durationTicks": 160,
          "midi": 59,
          "name": "B3",
          "ticks": 76160,
          "time": 146.46155066666665,
          "velocity": 0.4330708661417323
        },
        {
          "duration": 0.30769233333333545,
          "durationTicks": 160,
          "midi": 62,
          "name": "D4",
          "ticks": 76160,
          "time": 146.46155066666665,
          "velocity": 0.4330708661417323
        },
        {
          "duration": 0.30769233333333545,
          "durationTicks": 160,
          "midi": 57,
          "name": "A3",
          "ticks": 76320,
          "time": 146.769243,
          "velocity": 0.4330708661417323
        },
        {
          "duration": 0.30769233333333545,
          "durationTicks": 160,
          "midi": 61,
          "name": "C#4",
          "ticks": 76320,
          "time": 146.769243,
          "velocity": 0.4330708661417323
        },
        {
          "duration": 0.30769233333333545,
          "durationTicks": 160,
          "midi": 59,
          "name": "B3",
          "ticks": 76480,
          "time": 147.07693533333332,
          "velocity": 0.47244094488188976
        },
        {
          "duration": 0.30769233333333545,
          "durationTicks": 160,
          "midi": 62,
          "name": "D4",
          "ticks": 76480,
          "time": 147.07693533333332,
          "velocity": 0.47244094488188976
        },
        {
          "duration": 0.6076923583333098,
          "durationTicks": 316,
          "midi": 57,
          "name": "A3",
          "ticks": 76640,
          "time": 147.38462766666666,
          "velocity": 0.4251968503937008
        },
        {
          "duration": 0.6076923583333098,
          "durationTicks": 316,
          "midi": 61,
          "name": "C#4",
          "ticks": 76640,
          "time": 147.38462766666666,
          "velocity": 0.4251968503937008
        },
        {
          "duration": 0.2307692500000087,
          "durationTicks": 120,
          "midi": 54,
          "name": "F#3",
          "ticks": 76960,
          "time": 148.00001233333333,
          "velocity": 0.5748031496062992
        },
        {
          "duration": 0.2307692500000087,
          "durationTicks": 120,
          "midi": 57,
          "name": "A3",
          "ticks": 77040,
          "time": 148.15385849999998,
          "velocity": 0.5511811023622047
        },
        {
          "duration": 0.7615385249999918,
          "durationTicks": 396,
          "midi": 57,
          "name": "A3",
          "ticks": 77200,
          "time": 148.46155083333332,
          "velocity": 0.5354330708661418
        },
        {
          "duration": 0.14615385833332084,
          "durationTicks": 76,
          "midi": 54,
          "name": "F#3",
          "ticks": 77600,
          "time": 149.23078166666664,
          "velocity": 0.33070866141732286
        },
        {
          "duration": 0.14615385833334926,
          "durationTicks": 76,
          "midi": 57,
          "name": "A3",
          "ticks": 77680,
          "time": 149.38462783333333,
          "velocity": 0.5118110236220472
        },
        {
          "duration": 1.2307693333333418,
          "durationTicks": 640,
          "midi": 56,
          "name": "G#3",
          "ticks": 77760,
          "time": 149.53847399999998,
          "velocity": 0.5118110236220472
        },
        {
          "duration": 0.3076923333333639,
          "durationTicks": 160,
          "midi": 56,
          "name": "G#3",
          "ticks": 79040,
          "time": 152.00001266666663,
          "velocity": 0.5511811023622047
        },
        {
          "duration": 0.3076923333333639,
          "durationTicks": 160,
          "midi": 57,
          "name": "A3",
          "ticks": 79040,
          "time": 152.00001266666663,
          "velocity": 0.5118110236220472
        },
        {
          "duration": 0.3076923333333639,
          "durationTicks": 160,
          "midi": 61,
          "name": "C#4",
          "ticks": 79040,
          "time": 152.00001266666663,
          "velocity": 0.5669291338582677
        },
        {
          "duration": 0.3076923333333639,
          "durationTicks": 160,
          "midi": 64,
          "name": "E4",
          "ticks": 79040,
          "time": 152.00001266666663,
          "velocity": 0.5118110236220472
        },
        {
          "duration": 0.30769233333330703,
          "durationTicks": 160,
          "midi": 56,
          "name": "G#3",
          "ticks": 79360,
          "time": 152.61539733333333,
          "velocity": 0.5118110236220472
        },
        {
          "duration": 0.30769233333330703,
          "durationTicks": 160,
          "midi": 57,
          "name": "A3",
          "ticks": 79360,
          "time": 152.61539733333333,
          "velocity": 0.5511811023622047
        },
        {
          "duration": 0.30769233333330703,
          "durationTicks": 160,
          "midi": 61,
          "name": "C#4",
          "ticks": 79360,
          "time": 152.61539733333333,
          "velocity": 0.5669291338582677
        },
        {
          "duration": 0.30769233333330703,
          "durationTicks": 160,
          "midi": 64,
          "name": "E4",
          "ticks": 79360,
          "time": 152.61539733333333,
          "velocity": 0.5511811023622047
        },
        {
          "duration": 0.3076923333333639,
          "durationTicks": 160,
          "midi": 56,
          "name": "G#3",
          "ticks": 79680,
          "time": 153.23078199999998,
          "velocity": 0.5511811023622047
        },
        {
          "duration": 0.3076923333333639,
          "durationTicks": 160,
          "midi": 57,
          "name": "A3",
          "ticks": 79680,
          "time": 153.23078199999998,
          "velocity": 0.5118110236220472
        },
        {
          "duration": 0.3076923333333639,
          "durationTicks": 160,
          "midi": 61,
          "name": "C#4",
          "ticks": 79680,
          "time": 153.23078199999998,
          "velocity": 0.5118110236220472
        },
        {
          "duration": 0.3076923333333639,
          "durationTicks": 160,
          "midi": 64,
          "name": "E4",
          "ticks": 79680,
          "time": 153.23078199999998,
          "velocity": 0.5118110236220472
        },
        {
          "duration": 0.30769233333333545,
          "durationTicks": 160,
          "midi": 56,
          "name": "G#3",
          "ticks": 80000,
          "time": 153.84616666666665,
          "velocity": 0.5511811023622047
        },
        {
          "duration": 0.30769233333333545,
          "durationTicks": 160,
          "midi": 57,
          "name": "A3",
          "ticks": 80000,
          "time": 153.84616666666665,
          "velocity": 0.5118110236220472
        },
        {
          "duration": 0.30769233333333545,
          "durationTicks": 160,
          "midi": 61,
          "name": "C#4",
          "ticks": 80000,
          "time": 153.84616666666665,
          "velocity": 0.48031496062992124
        },
        {
          "duration": 0.30769233333333545,
          "durationTicks": 160,
          "midi": 64,
          "name": "E4",
          "ticks": 80000,
          "time": 153.84616666666665,
          "velocity": 0.5118110236220472
        },
        {
          "duration": 0.30769233333333545,
          "durationTicks": 160,
          "midi": 56,
          "name": "G#3",
          "ticks": 80320,
          "time": 154.46155133333332,
          "velocity": 0.5511811023622047
        },
        {
          "duration": 0.30769233333333545,
          "durationTicks": 160,
          "midi": 57,
          "name": "A3",
          "ticks": 80320,
          "time": 154.46155133333332,
          "velocity": 0.5118110236220472
        },
        {
          "duration": 0.30769233333333545,
          "durationTicks": 160,
          "midi": 61,
          "name": "C#4",
          "ticks": 80320,
          "time": 154.46155133333332,
          "velocity": 0.5196850393700787
        },
        {
          "duration": 0.30769233333333545,
          "durationTicks": 160,
          "midi": 64,
          "name": "E4",
          "ticks": 80320,
          "time": 154.46155133333332,
          "velocity": 0.5118110236220472
        },
        {
          "duration": 0.30769233333333545,
          "durationTicks": 160,
          "midi": 56,
          "name": "G#3",
          "ticks": 80480,
          "time": 154.76924366666665,
          "velocity": 0.5511811023622047
        },
        {
          "duration": 0.30769233333333545,
          "durationTicks": 160,
          "midi": 57,
          "name": "A3",
          "ticks": 80480,
          "time": 154.76924366666665,
          "velocity": 0.5118110236220472
        },
        {
          "duration": 0.30769233333333545,
          "durationTicks": 160,
          "midi": 61,
          "name": "C#4",
          "ticks": 80480,
          "time": 154.76924366666665,
          "velocity": 0.5275590551181102
        },
        {
          "duration": 0.30769233333333545,
          "durationTicks": 160,
          "midi": 64,
          "name": "E4",
          "ticks": 80480,
          "time": 154.76924366666665,
          "velocity": 0.5118110236220472
        },
        {
          "duration": 0.30769233333333545,
          "durationTicks": 160,
          "midi": 55,
          "name": "G3",
          "ticks": 80640,
          "time": 155.076936,
          "velocity": 0.5511811023622047
        },
        {
          "duration": 0.30769233333333545,
          "durationTicks": 160,
          "midi": 59,
          "name": "B3",
          "ticks": 80640,
          "time": 155.076936,
          "velocity": 0.5118110236220472
        },
        {
          "duration": 0.30769233333333545,
          "durationTicks": 160,
          "midi": 62,
          "name": "D4",
          "ticks": 80640,
          "time": 155.076936,
          "velocity": 0.5118110236220472
        },
        {
          "duration": 0.30769233333333545,
          "durationTicks": 160,
          "midi": 66,
          "name": "F#4",
          "ticks": 80640,
          "time": 155.076936,
          "velocity": 0.5590551181102362
        },
        {
          "duration": 0.3076923333333639,
          "durationTicks": 160,
          "midi": 55,
          "name": "G3",
          "ticks": 80960,
          "time": 155.69232066666663,
          "velocity": 0.5354330708661418
        },
        {
          "duration": 0.3076923333333639,
          "durationTicks": 160,
          "midi": 59,
          "name": "B3",
          "ticks": 80960,
          "time": 155.69232066666663,
          "velocity": 0.5118110236220472
        },
        {
          "duration": 0.3076923333333639,
          "durationTicks": 160,
          "midi": 62,
          "name": "D4",
          "ticks": 80960,
          "time": 155.69232066666663,
          "velocity": 0.5118110236220472
        },
        {
          "duration": 0.3076923333333639,
          "durationTicks": 160,
          "midi": 66,
          "name": "F#4",
          "ticks": 80960,
          "time": 155.69232066666663,
          "velocity": 0.5433070866141733
        },
        {
          "duration": 0.30769233333330703,
          "durationTicks": 160,
          "midi": 55,
          "name": "G3",
          "ticks": 81280,
          "time": 156.30770533333333,
          "velocity": 0.5118110236220472
        },
        {
          "duration": 0.30769233333330703,
          "durationTicks": 160,
          "midi": 59,
          "name": "B3",
          "ticks": 81280,
          "time": 156.30770533333333,
          "velocity": 0.47244094488188976
        },
        {
          "duration": 0.30769233333330703,
          "durationTicks": 160,
          "midi": 62,
          "name": "D4",
          "ticks": 81280,
          "time": 156.30770533333333,
          "velocity": 0.5118110236220472
        },
        {
          "duration": 0.30769233333330703,
          "durationTicks": 160,
          "midi": 66,
          "name": "F#4",
          "ticks": 81280,
          "time": 156.30770533333333,
          "velocity": 0.48031496062992124
        },
        {
          "duration": 0.30769233333333545,
          "durationTicks": 160,
          "midi": 55,
          "name": "G3",
          "ticks": 81440,
          "time": 156.61539766666664,
          "velocity": 0.5354330708661418
        },
        {
          "duration": 0.30769233333333545,
          "durationTicks": 160,
          "midi": 59,
          "name": "B3",
          "ticks": 81440,
          "time": 156.61539766666664,
          "velocity": 0.5118110236220472
        },
        {
          "duration": 0.30769233333333545,
          "durationTicks": 160,
          "midi": 66,
          "name": "F#4",
          "ticks": 81440,
          "time": 156.61539766666664,
          "velocity": 0.5433070866141733
        },
        {
          "duration": 0.3076923333333639,
          "durationTicks": 160,
          "midi": 55,
          "name": "G3",
          "ticks": 81600,
          "time": 156.92308999999997,
          "velocity": 0.5196850393700787
        },
        {
          "duration": 0.3076923333333639,
          "durationTicks": 160,
          "midi": 59,
          "name": "B3",
          "ticks": 81600,
          "time": 156.92308999999997,
          "velocity": 0.5118110236220472
        },
        {
          "duration": 0.3076923333333639,
          "durationTicks": 160,
          "midi": 62,
          "name": "D4",
          "ticks": 81600,
          "time": 156.92308999999997,
          "velocity": 0.5433070866141733
        },
        {
          "duration": 0.3076923333333639,
          "durationTicks": 160,
          "midi": 66,
          "name": "F#4",
          "ticks": 81600,
          "time": 156.92308999999997,
          "velocity": 0.5118110236220472
        },
        {
          "duration": 0.30769233333333545,
          "durationTicks": 160,
          "midi": 55,
          "name": "G3",
          "ticks": 81920,
          "time": 157.53847466666664,
          "velocity": 0.5118110236220472
        },
        {
          "duration": 0.30769233333333545,
          "durationTicks": 160,
          "midi": 59,
          "name": "B3",
          "ticks": 81920,
          "time": 157.53847466666664,
          "velocity": 0.5433070866141733
        },
        {
          "duration": 0.30769233333333545,
          "durationTicks": 160,
          "midi": 62,
          "name": "D4",
          "ticks": 81920,
          "time": 157.53847466666664,
          "velocity": 0.49606299212598426
        },
        {
          "duration": 0.30769233333333545,
          "durationTicks": 160,
          "midi": 66,
          "name": "F#4",
          "ticks": 81920,
          "time": 157.53847466666664,
          "velocity": 0.5118110236220472
        },
        {
          "duration": 0.4615385000000174,
          "durationTicks": 240,
          "midi": 55,
          "name": "G3",
          "ticks": 82080,
          "time": 157.84616699999998,
          "velocity": 0.5118110236220472
        },
        {
          "duration": 0.4615385000000174,
          "durationTicks": 240,
          "midi": 59,
          "name": "B3",
          "ticks": 82080,
          "time": 157.84616699999998,
          "velocity": 0.5118110236220472
        },
        {
          "duration": 0.4615385000000174,
          "durationTicks": 240,
          "midi": 61,
          "name": "C#4",
          "ticks": 82080,
          "time": 157.84616699999998,
          "velocity": 0.5118110236220472
        },
        {
          "duration": 0.4615385000000174,
          "durationTicks": 240,
          "midi": 66,
          "name": "F#4",
          "ticks": 82080,
          "time": 157.84616699999998,
          "velocity": 0.5118110236220472
        },
        {
          "duration": 0.46153849999998897,
          "durationTicks": 240,
          "midi": 55,
          "name": "G3",
          "ticks": 82320,
          "time": 158.3077055,
          "velocity": 0.48031496062992124
        },
        {
          "duration": 0.46153849999998897,
          "durationTicks": 240,
          "midi": 59,
          "name": "B3",
          "ticks": 82320,
          "time": 158.3077055,
          "velocity": 0.48031496062992124
        },
        {
          "duration": 0.46153849999998897,
          "durationTicks": 240,
          "midi": 61,
          "name": "C#4",
          "ticks": 82320,
          "time": 158.3077055,
          "velocity": 0.48031496062992124
        },
        {
          "duration": 0.46153849999998897,
          "durationTicks": 240,
          "midi": 66,
          "name": "F#4",
          "ticks": 82320,
          "time": 158.3077055,
          "velocity": 0.48031496062992124
        },
        {
          "duration": 1.8461540000000127,
          "durationTicks": 960,
          "midi": 50,
          "name": "D3",
          "ticks": 82560,
          "time": 158.769244,
          "velocity": 0.41732283464566927
        },
        {
          "duration": 1.8461540000000127,
          "durationTicks": 960,
          "midi": 54,
          "name": "F#3",
          "ticks": 82560,
          "time": 158.769244,
          "velocity": 0.41732283464566927
        },
        {
          "duration": 1.8461540000000127,
          "durationTicks": 960,
          "midi": 57,
          "name": "A3",
          "ticks": 82560,
          "time": 158.769244,
          "velocity": 0.41732283464566927
        },
        {
          "duration": 1.8461540000000127,
          "durationTicks": 960,
          "midi": 61,
          "name": "C#4",
          "ticks": 82560,
          "time": 158.769244,
          "velocity": 0.41732283464566927
        },
        {
          "duration": 0.46153849999998897,
          "durationTicks": 240,
          "midi": 50,
          "name": "D3",
          "ticks": 83520,
          "time": 160.615398,
          "velocity": 0.3858267716535433
        },
        {
          "duration": 0.46153849999998897,
          "durationTicks": 240,
          "midi": 54,
          "name": "F#3",
          "ticks": 83520,
          "time": 160.615398,
          "velocity": 0.3858267716535433
        },
        {
          "duration": 0.46153849999998897,
          "durationTicks": 240,
          "midi": 57,
          "name": "A3",
          "ticks": 83520,
          "time": 160.615398,
          "velocity": 0.3858267716535433
        },
        {
          "duration": 0.46153849999998897,
          "durationTicks": 240,
          "midi": 61,
          "name": "C#4",
          "ticks": 83520,
          "time": 160.615398,
          "velocity": 0.3858267716535433
        },
        {
          "duration": 0.2846154083333374,
          "durationTicks": 148,
          "midi": 50,
          "name": "D3",
          "ticks": 83760,
          "time": 161.0769365,
          "velocity": 0.3779527559055118
        },
        {
          "duration": 0.2846154083333374,
          "durationTicks": 148,
          "midi": 54,
          "name": "F#3",
          "ticks": 83760,
          "time": 161.0769365,
          "velocity": 0.3779527559055118
        },
        {
          "duration": 0.2846154083333374,
          "durationTicks": 148,
          "midi": 57,
          "name": "A3",
          "ticks": 83760,
          "time": 161.0769365,
          "velocity": 0.3779527559055118
        },
        {
          "duration": 0.27692310000000475,
          "durationTicks": 144,
          "midi": 61,
          "name": "C#4",
          "ticks": 83760,
          "time": 161.0769365,
          "velocity": 0.3779527559055118
        },
        {
          "duration": 0.6230769750000036,
          "durationTicks": 324,
          "midi": 50,
          "name": "D3",
          "ticks": 83920,
          "time": 161.38462883333332,
          "velocity": 0.3543307086614173
        },
        {
          "duration": 0.6230769750000036,
          "durationTicks": 324,
          "midi": 54,
          "name": "F#3",
          "ticks": 83920,
          "time": 161.38462883333332,
          "velocity": 0.3543307086614173
        },
        {
          "duration": 0.6230769750000036,
          "durationTicks": 324,
          "midi": 57,
          "name": "A3",
          "ticks": 83920,
          "time": 161.38462883333332,
          "velocity": 0.3543307086614173
        },
        {
          "duration": 0.6153846666666709,
          "durationTicks": 320,
          "midi": 61,
          "name": "C#4",
          "ticks": 83920,
          "time": 161.38462883333332,
          "velocity": 0.3543307086614173
        },
        {
          "duration": 0.46153849999998897,
          "durationTicks": 240,
          "midi": 50,
          "name": "D3",
          "ticks": 84240,
          "time": 162.0000135,
          "velocity": 0.36220472440944884
        },
        {
          "duration": 0.46153849999998897,
          "durationTicks": 240,
          "midi": 54,
          "name": "F#3",
          "ticks": 84240,
          "time": 162.0000135,
          "velocity": 0.36220472440944884
        },
        {
          "duration": 0.46153849999998897,
          "durationTicks": 240,
          "midi": 57,
          "name": "A3",
          "ticks": 84240,
          "time": 162.0000135,
          "velocity": 0.36220472440944884
        },
        {
          "duration": 0.46153849999998897,
          "durationTicks": 240,
          "midi": 61,
          "name": "C#4",
          "ticks": 84240,
          "time": 162.0000135,
          "velocity": 0.36220472440944884
        },
        {
          "duration": 0.46153849999998897,
          "durationTicks": 240,
          "midi": 53,
          "name": "F3",
          "ticks": 84720,
          "time": 162.9230905,
          "velocity": 0.44881889763779526
        },
        {
          "duration": 0.46153849999998897,
          "durationTicks": 240,
          "midi": 57,
          "name": "A3",
          "ticks": 84720,
          "time": 162.9230905,
          "velocity": 0.44881889763779526
        },
        {
          "duration": 0.46153849999998897,
          "durationTicks": 240,
          "midi": 59,
          "name": "B3",
          "ticks": 84720,
          "time": 162.9230905,
          "velocity": 0.44881889763779526
        },
        {
          "duration": 0.30769233333333545,
          "durationTicks": 160,
          "midi": 53,
          "name": "F3",
          "ticks": 84960,
          "time": 163.384629,
          "velocity": 0.4251968503937008
        },
        {
          "duration": 0.30769233333333545,
          "durationTicks": 160,
          "midi": 57,
          "name": "A3",
          "ticks": 84960,
          "time": 163.384629,
          "velocity": 0.4251968503937008
        },
        {
          "duration": 0.30769233333333545,
          "durationTicks": 160,
          "midi": 59,
          "name": "B3",
          "ticks": 84960,
          "time": 163.384629,
          "velocity": 0.4251968503937008
        },
        {
          "duration": 0.30769233333333545,
          "durationTicks": 160,
          "midi": 64,
          "name": "E4",
          "ticks": 84960,
          "time": 163.384629,
          "velocity": 0.4251968503937008
        },
        {
          "duration": 0.30769233333330703,
          "durationTicks": 160,
          "midi": 53,
          "name": "F3",
          "ticks": 85120,
          "time": 163.69232133333333,
          "velocity": 0.4409448818897638
        },
        {
          "duration": 0.30769233333330703,
          "durationTicks": 160,
          "midi": 57,
          "name": "A3",
          "ticks": 85120,
          "time": 163.69232133333333,
          "velocity": 0.4409448818897638
        },
        {
          "duration": 0.30769233333330703,
          "durationTicks": 160,
          "midi": 59,
          "name": "B3",
          "ticks": 85120,
          "time": 163.69232133333333,
          "velocity": 0.4409448818897638
        },
        {
          "duration": 0.30769233333330703,
          "durationTicks": 160,
          "midi": 64,
          "name": "E4",
          "ticks": 85120,
          "time": 163.69232133333333,
          "velocity": 0.4409448818897638
        },
        {
          "duration": 0.3076923333333639,
          "durationTicks": 160,
          "midi": 53,
          "name": "F3",
          "ticks": 85280,
          "time": 164.00001366666663,
          "velocity": 0.4566929133858268
        },
        {
          "duration": 0.3076923333333639,
          "durationTicks": 160,
          "midi": 57,
          "name": "A3",
          "ticks": 85280,
          "time": 164.00001366666663,
          "velocity": 0.4566929133858268
        },
        {
          "duration": 0.3076923333333639,
          "durationTicks": 160,
          "midi": 59,
          "name": "B3",
          "ticks": 85280,
          "time": 164.00001366666663,
          "velocity": 0.4566929133858268
        },
        {
          "duration": 0.3076923333333639,
          "durationTicks": 160,
          "midi": 64,
          "name": "E4",
          "ticks": 85280,
          "time": 164.00001366666663,
          "velocity": 0.4566929133858268
        },
        {
          "duration": 0.46153849999998897,
          "durationTicks": 240,
          "midi": 53,
          "name": "F3",
          "ticks": 85440,
          "time": 164.307706,
          "velocity": 0.4409448818897638
        },
        {
          "duration": 0.46153849999998897,
          "durationTicks": 240,
          "midi": 57,
          "name": "A3",
          "ticks": 85440,
          "time": 164.307706,
          "velocity": 0.4409448818897638
        },
        {
          "duration": 0.46153849999998897,
          "durationTicks": 240,
          "midi": 59,
          "name": "B3",
          "ticks": 85440,
          "time": 164.307706,
          "velocity": 0.4409448818897638
        },
        {
          "duration": 0.46153849999998897,
          "durationTicks": 240,
          "midi": 64,
          "name": "E4",
          "ticks": 85440,
          "time": 164.307706,
          "velocity": 0.4409448818897638
        },
        {
          "duration": 0.2846154083333374,
          "durationTicks": 148,
          "midi": 53,
          "name": "F3",
          "ticks": 85680,
          "time": 164.76924449999999,
          "velocity": 0.4645669291338583
        },
        {
          "duration": 0.2846154083333374,
          "durationTicks": 148,
          "midi": 57,
          "name": "A3",
          "ticks": 85680,
          "time": 164.76924449999999,
          "velocity": 0.4645669291338583
        },
        {
          "duration": 0.2846154083333374,
          "durationTicks": 148,
          "midi": 59,
          "name": "B3",
          "ticks": 85680,
          "time": 164.76924449999999,
          "velocity": 0.4645669291338583
        },
        {
          "duration": 0.2846154083333374,
          "durationTicks": 148,
          "midi": 64,
          "name": "E4",
          "ticks": 85680,
          "time": 164.76924449999999,
          "velocity": 0.4645669291338583
        },
        {
          "duration": 0.1615384749999862,
          "durationTicks": 84,
          "midi": 53,
          "name": "F3",
          "ticks": 85840,
          "time": 165.07693683333332,
          "velocity": 0.48031496062992124
        },
        {
          "duration": 0.1615384749999862,
          "durationTicks": 84,
          "midi": 57,
          "name": "A3",
          "ticks": 85840,
          "time": 165.07693683333332,
          "velocity": 0.48031496062992124
        },
        {
          "duration": 0.1615384749999862,
          "durationTicks": 84,
          "midi": 59,
          "name": "B3",
          "ticks": 85840,
          "time": 165.07693683333332,
          "velocity": 0.48031496062992124
        },
        {
          "duration": 0.1615384749999862,
          "durationTicks": 84,
          "midi": 64,
          "name": "E4",
          "ticks": 85840,
          "time": 165.07693683333332,
          "velocity": 0.48031496062992124
        },
        {
          "duration": 0.3000000250000028,
          "durationTicks": 156,
          "midi": 53,
          "name": "F3",
          "ticks": 85920,
          "time": 165.23078299999997,
          "velocity": 0.4251968503937008
        },
        {
          "duration": 0.3000000250000028,
          "durationTicks": 156,
          "midi": 57,
          "name": "A3",
          "ticks": 85920,
          "time": 165.23078299999997,
          "velocity": 0.4251968503937008
        },
        {
          "duration": 0.3000000250000028,
          "durationTicks": 156,
          "midi": 59,
          "name": "B3",
          "ticks": 85920,
          "time": 165.23078299999997,
          "velocity": 0.4251968503937008
        },
        {
          "duration": 0.30000002499997436,
          "durationTicks": 156,
          "midi": 53,
          "name": "F3",
          "ticks": 86080,
          "time": 165.53847533333334,
          "velocity": 0.4251968503937008
        },
        {
          "duration": 0.30000002499997436,
          "durationTicks": 156,
          "midi": 57,
          "name": "A3",
          "ticks": 86080,
          "time": 165.53847533333334,
          "velocity": 0.4251968503937008
        },
        {
          "duration": 0.30000002499997436,
          "durationTicks": 156,
          "midi": 59,
          "name": "B3",
          "ticks": 86080,
          "time": 165.53847533333334,
          "velocity": 0.4251968503937008
        },
        {
          "duration": 0.3000000250000028,
          "durationTicks": 156,
          "midi": 53,
          "name": "F3",
          "ticks": 86240,
          "time": 165.84616766666664,
          "velocity": 0.4251968503937008
        },
        {
          "duration": 0.3000000250000028,
          "durationTicks": 156,
          "midi": 57,
          "name": "A3",
          "ticks": 86240,
          "time": 165.84616766666664,
          "velocity": 0.4251968503937008
        },
        {
          "duration": 0.3000000250000028,
          "durationTicks": 156,
          "midi": 59,
          "name": "B3",
          "ticks": 86240,
          "time": 165.84616766666664,
          "velocity": 0.4251968503937008
        },
        {
          "duration": 0.9923077750000004,
          "durationTicks": 516,
          "midi": 56,
          "name": "G#3",
          "ticks": 86560,
          "time": 166.46155233333332,
          "velocity": 0.47244094488188976
        },
        {
          "duration": 1.3769231916666627,
          "durationTicks": 716,
          "midi": 57,
          "name": "A3",
          "ticks": 86560,
          "time": 166.46155233333332,
          "velocity": 0.47244094488188976
        },
        {
          "duration": 0.6076923583333382,
          "durationTicks": 316,
          "midi": 54,
          "name": "F#3",
          "ticks": 87040,
          "time": 167.38462933333332,
          "velocity": 0.4251968503937008
        },
        {
          "duration": 1.1538462499999866,
          "durationTicks": 600,
          "midi": 53,
          "name": "F3",
          "ticks": 87360,
          "time": 168.000014,
          "velocity": 0.5511811023622047
        },
        {
          "duration": 1.7615386083333249,
          "durationTicks": 916,
          "midi": 57,
          "name": "A3",
          "ticks": 87360,
          "time": 168.000014,
          "velocity": 0.5511811023622047
        },
        {
          "duration": 1.7615386083333249,
          "durationTicks": 916,
          "midi": 61,
          "name": "C#4",
          "ticks": 87360,
          "time": 168.000014,
          "velocity": 0.5511811023622047
        },
        {
          "duration": 0.6230769749999752,
          "durationTicks": 324,
          "midi": 53,
          "name": "F3",
          "ticks": 88000,
          "time": 169.23078333333333,
          "velocity": 0.5669291338582677
        },
        {
          "duration": 0.3000000250000028,
          "durationTicks": 156,
          "midi": 52,
          "name": "E3",
          "ticks": 88320,
          "time": 169.84616799999998,
          "velocity": 0.4409448818897638
        },
        {
          "duration": 0.3000000250000028,
          "durationTicks": 156,
          "midi": 56,
          "name": "G#3",
          "ticks": 88320,
          "time": 169.84616799999998,
          "velocity": 0.4409448818897638
        },
        {
          "duration": 0.3000000250000028,
          "durationTicks": 156,
          "midi": 57,
          "name": "A3",
          "ticks": 88320,
          "time": 169.84616799999998,
          "velocity": 0.4409448818897638
        },
        {
          "duration": 0.3000000250000028,
          "durationTicks": 156,
          "midi": 61,
          "name": "C#4",
          "ticks": 88320,
          "time": 169.84616799999998,
          "velocity": 0.4409448818897638
        },
        {
          "duration": 0.9153846916666453,
          "durationTicks": 476,
          "midi": 52,
          "name": "E3",
          "ticks": 88480,
          "time": 170.15386033333334,
          "velocity": 0.4409448818897638
        },
        {
          "duration": 0.9153846916666453,
          "durationTicks": 476,
          "midi": 56,
          "name": "G#3",
          "ticks": 88480,
          "time": 170.15386033333334,
          "velocity": 0.4409448818897638
        },
        {
          "duration": 0.9153846916666453,
          "durationTicks": 476,
          "midi": 57,
          "name": "A3",
          "ticks": 88480,
          "time": 170.15386033333334,
          "velocity": 0.4409448818897638
        },
        {
          "duration": 0.9153846916666453,
          "durationTicks": 476,
          "midi": 61,
          "name": "C#4",
          "ticks": 88480,
          "time": 170.15386033333334,
          "velocity": 0.4409448818897638
        },
        {
          "duration": 0.6076923583333382,
          "durationTicks": 316,
          "midi": 52,
          "name": "E3",
          "ticks": 88960,
          "time": 171.07693733333332,
          "velocity": 0.4330708661417323
        },
        {
          "duration": 0.6076923583333382,
          "durationTicks": 316,
          "midi": 56,
          "name": "G#3",
          "ticks": 88960,
          "time": 171.07693733333332,
          "velocity": 0.4330708661417323
        },
        {
          "duration": 0.6076923583333382,
          "durationTicks": 316,
          "midi": 57,
          "name": "A3",
          "ticks": 88960,
          "time": 171.07693733333332,
          "velocity": 0.4330708661417323
        },
        {
          "duration": 0.6076923583333382,
          "durationTicks": 316,
          "midi": 61,
          "name": "C#4",
          "ticks": 88960,
          "time": 171.07693733333332,
          "velocity": 0.4330708661417323
        },
        {
          "duration": 1.8461539999999843,
          "durationTicks": 960,
          "midi": 56,
          "name": "G#3",
          "ticks": 89280,
          "time": 171.692322,
          "velocity": 0.4566929133858268
        },
        {
          "duration": 1.8461539999999843,
          "durationTicks": 960,
          "midi": 57,
          "name": "A3",
          "ticks": 89280,
          "time": 171.692322,
          "velocity": 0.4566929133858268
        },
        {
          "duration": 1.8461539999999843,
          "durationTicks": 960,
          "midi": 61,
          "name": "C#4",
          "ticks": 89280,
          "time": 171.692322,
          "velocity": 0.4566929133858268
        },
        {
          "duration": 1.8461539999999843,
          "durationTicks": 960,
          "midi": 63,
          "name": "D#4",
          "ticks": 89280,
          "time": 171.692322,
          "velocity": 0.4566929133858268
        },
        {
          "duration": 0.3000000250000028,
          "durationTicks": 156,
          "midi": 56,
          "name": "G#3",
          "ticks": 90240,
          "time": 173.53847599999997,
          "velocity": 0.4251968503937008
        },
        {
          "duration": 0.3000000250000028,
          "durationTicks": 156,
          "midi": 62,
          "name": "D4",
          "ticks": 90240,
          "time": 173.53847599999997,
          "velocity": 0.4251968503937008
        },
        {
          "duration": 0.3000000250000028,
          "durationTicks": 156,
          "midi": 66,
          "name": "F#4",
          "ticks": 90240,
          "time": 173.53847599999997,
          "velocity": 0.4251968503937008
        },
        {
          "duration": 0.30769233333330703,
          "durationTicks": 160,
          "midi": 56,
          "name": "G#3",
          "ticks": 90400,
          "time": 173.84616833333334,
          "velocity": 0.4251968503937008
        },
        {
          "duration": 0.30769233333330703,
          "durationTicks": 160,
          "midi": 62,
          "name": "D4",
          "ticks": 90400,
          "time": 173.84616833333334,
          "velocity": 0.4251968503937008
        },
        {
          "duration": 0.30000002499997436,
          "durationTicks": 156,
          "midi": 66,
          "name": "F#4",
          "ticks": 90400,
          "time": 173.84616833333334,
          "velocity": 0.4251968503937008
        },
        {
          "duration": 1.5384616666666773,
          "durationTicks": 800,
          "midi": 56,
          "name": "G#3",
          "ticks": 90560,
          "time": 174.15386066666665,
          "velocity": 0.4330708661417323
        },
        {
          "duration": 1.5384616666666773,
          "durationTicks": 800,
          "midi": 62,
          "name": "D4",
          "ticks": 90560,
          "time": 174.15386066666665,
          "velocity": 0.4330708661417323
        },
        {
          "duration": 1.5384616666666773,
          "durationTicks": 800,
          "midi": 66,
          "name": "F#4",
          "ticks": 90560,
          "time": 174.15386066666665,
          "velocity": 0.4330708661417323
        },
        {
          "duration": 1.2307693333333134,
          "durationTicks": 640,
          "midi": 57,
          "name": "A3",
          "ticks": 91360,
          "time": 175.69232233333332,
          "velocity": 0.4251968503937008
        },
        {
          "duration": 1.2307693333333134,
          "durationTicks": 640,
          "midi": 63,
          "name": "D#4",
          "ticks": 91360,
          "time": 175.69232233333332,
          "velocity": 0.4251968503937008
        },
        {
          "duration": 1.2307693333333134,
          "durationTicks": 640,
          "midi": 68,
          "name": "G#4",
          "ticks": 91360,
          "time": 175.69232233333332,
          "velocity": 0.4251968503937008
        },
        {
          "duration": 0.30769233333333545,
          "durationTicks": 160,
          "midi": 57,
          "name": "A3",
          "ticks": 92000,
          "time": 176.92309166666664,
          "velocity": 0.4015748031496063
        },
        {
          "duration": 0.30769233333333545,
          "durationTicks": 160,
          "midi": 63,
          "name": "D#4",
          "ticks": 92000,
          "time": 176.92309166666664,
          "velocity": 0.4015748031496063
        },
        {
          "duration": 0.30769233333333545,
          "durationTicks": 160,
          "midi": 68,
          "name": "G#4",
          "ticks": 92000,
          "time": 176.92309166666664,
          "velocity": 0.4015748031496063
        },
        {
          "duration": 2.1461540250000155,
          "durationTicks": 1116,
          "midi": 56,
          "name": "G#3",
          "ticks": 92160,
          "time": 177.23078399999997,
          "velocity": 0.4094488188976378
        },
        {
          "duration": 0.9153846916666737,
          "durationTicks": 476,
          "midi": 62,
          "name": "D4",
          "ticks": 92160,
          "time": 177.23078399999997,
          "velocity": 0.4094488188976378
        },
        {
          "duration": 2.1461540250000155,
          "durationTicks": 1116,
          "midi": 66,
          "name": "F#4",
          "ticks": 92160,
          "time": 177.23078399999997,
          "velocity": 0.4094488188976378
        },
        {
          "duration": 1.2230770250000091,
          "durationTicks": 636,
          "midi": 62,
          "name": "D4",
          "ticks": 92640,
          "time": 178.15386099999998,
          "velocity": 0.4094488188976378
        },
        {
          "duration": 0.30769233333333545,
          "durationTicks": 160,
          "midi": 60,
          "name": "C4",
          "ticks": 93280,
          "time": 179.38463033333332,
          "velocity": 0.5748031496062992
        },
        {
          "duration": 0.30769233333333545,
          "durationTicks": 160,
          "midi": 62,
          "name": "D4",
          "ticks": 93280,
          "time": 179.38463033333332,
          "velocity": 0.5748031496062992
        },
        {
          "duration": 0.30769233333333545,
          "durationTicks": 160,
          "midi": 66,
          "name": "F#4",
          "ticks": 93280,
          "time": 179.38463033333332,
          "velocity": 0.5748031496062992
        },
        {
          "duration": 0.30769233333333545,
          "durationTicks": 160,
          "midi": 60,
          "name": "C4",
          "ticks": 93440,
          "time": 179.69232266666666,
          "velocity": 0.5826771653543307
        },
        {
          "duration": 0.30769233333333545,
          "durationTicks": 160,
          "midi": 62,
          "name": "D4",
          "ticks": 93440,
          "time": 179.69232266666666,
          "velocity": 0.5826771653543307
        },
        {
          "duration": 0.30769233333333545,
          "durationTicks": 160,
          "midi": 66,
          "name": "F#4",
          "ticks": 93440,
          "time": 179.69232266666666,
          "velocity": 0.5826771653543307
        },
        {
          "duration": 0.30769233333333545,
          "durationTicks": 160,
          "midi": 60,
          "name": "C4",
          "ticks": 93600,
          "time": 180.000015,
          "velocity": 0.5275590551181102
        },
        {
          "duration": 0.30769233333333545,
          "durationTicks": 160,
          "midi": 62,
          "name": "D4",
          "ticks": 93600,
          "time": 180.000015,
          "velocity": 0.5275590551181102
        },
        {
          "duration": 0.30769233333333545,
          "durationTicks": 160,
          "midi": 66,
          "name": "F#4",
          "ticks": 93600,
          "time": 180.000015,
          "velocity": 0.5275590551181102
        },
        {
          "duration": 0.6153846666666709,
          "durationTicks": 320,
          "midi": 56,
          "name": "G#3",
          "ticks": 93760,
          "time": 180.30770733333333,
          "velocity": 0.5590551181102362
        },
        {
          "duration": 0.6153846666666709,
          "durationTicks": 320,
          "midi": 60,
          "name": "C4",
          "ticks": 93760,
          "time": 180.30770733333333,
          "velocity": 0.5590551181102362
        },
        {
          "duration": 0.6153846666666709,
          "durationTicks": 320,
          "midi": 62,
          "name": "D4",
          "ticks": 93760,
          "time": 180.30770733333333,
          "velocity": 0.5590551181102362
        },
        {
          "duration": 0.6153846666666709,
          "durationTicks": 320,
          "midi": 66,
          "name": "F#4",
          "ticks": 93760,
          "time": 180.30770733333333,
          "velocity": 0.5590551181102362
        },
        {
          "duration": 0.30000002499997436,
          "durationTicks": 156,
          "midi": 56,
          "name": "G#3",
          "ticks": 94080,
          "time": 180.923092,
          "velocity": 0.4881889763779528
        },
        {
          "duration": 0.30000002499997436,
          "durationTicks": 156,
          "midi": 57,
          "name": "A3",
          "ticks": 94080,
          "time": 180.923092,
          "velocity": 0.4881889763779528
        },
        {
          "duration": 0.30000002499997436,
          "durationTicks": 156,
          "midi": 61,
          "name": "C#4",
          "ticks": 94080,
          "time": 180.923092,
          "velocity": 0.4881889763779528
        },
        {
          "duration": 0.30000002499997436,
          "durationTicks": 156,
          "midi": 64,
          "name": "E4",
          "ticks": 94080,
          "time": 180.923092,
          "velocity": 0.4881889763779528
        },
        {
          "duration": 0.30000002499997436,
          "durationTicks": 156,
          "midi": 56,
          "name": "G#3",
          "ticks": 94240,
          "time": 181.23078433333333,
          "velocity": 0.4094488188976378
        },
        {
          "duration": 0.30000002499997436,
          "durationTicks": 156,
          "midi": 57,
          "name": "A3",
          "ticks": 94240,
          "time": 181.23078433333333,
          "velocity": 0.4094488188976378
        },
        {
          "duration": 0.30000002499997436,
          "durationTicks": 156,
          "midi": 61,
          "name": "C#4",
          "ticks": 94240,
          "time": 181.23078433333333,
          "velocity": 0.4094488188976378
        },
        {
          "duration": 0.30000002499997436,
          "durationTicks": 156,
          "midi": 64,
          "name": "E4",
          "ticks": 94240,
          "time": 181.23078433333333,
          "velocity": 0.4094488188976378
        },
        {
          "duration": 1.2230770250000091,
          "durationTicks": 636,
          "midi": 56,
          "name": "G#3",
          "ticks": 94400,
          "time": 181.53847666666664,
          "velocity": 0.4566929133858268
        },
        {
          "duration": 1.2230770250000091,
          "durationTicks": 636,
          "midi": 57,
          "name": "A3",
          "ticks": 94400,
          "time": 181.53847666666664,
          "velocity": 0.4566929133858268
        },
        {
          "duration": 1.2230770250000091,
          "durationTicks": 636,
          "midi": 61,
          "name": "C#4",
          "ticks": 94400,
          "time": 181.53847666666664,
          "velocity": 0.4566929133858268
        },
        {
          "duration": 1.2230770250000091,
          "durationTicks": 636,
          "midi": 64,
          "name": "E4",
          "ticks": 94400,
          "time": 181.53847666666664,
          "velocity": 0.4566929133858268
        },
        {
          "duration": 0.2846154083333374,
          "durationTicks": 148,
          "midi": 56,
          "name": "G#3",
          "ticks": 95040,
          "time": 182.76924599999998,
          "velocity": 0.4566929133858268
        },
        {
          "duration": 0.2846154083333374,
          "durationTicks": 148,
          "midi": 57,
          "name": "A3",
          "ticks": 95040,
          "time": 182.76924599999998,
          "velocity": 0.4566929133858268
        },
        {
          "duration": 0.2846154083333374,
          "durationTicks": 148,
          "midi": 61,
          "name": "C#4",
          "ticks": 95040,
          "time": 182.76924599999998,
          "velocity": 0.4566929133858268
        },
        {
          "duration": 0.2846154083333374,
          "durationTicks": 148,
          "midi": 64,
          "name": "E4",
          "ticks": 95040,
          "time": 182.76924599999998,
          "velocity": 0.4566929133858268
        },
        {
          "duration": 1.146153941666654,
          "durationTicks": 596,
          "midi": 56,
          "name": "G#3",
          "ticks": 95200,
          "time": 183.07693833333332,
          "velocity": 0.4409448818897638
        },
        {
          "duration": 1.146153941666654,
          "durationTicks": 596,
          "midi": 57,
          "name": "A3",
          "ticks": 95200,
          "time": 183.07693833333332,
          "velocity": 0.4409448818897638
        },
        {
          "duration": 1.146153941666654,
          "durationTicks": 596,
          "midi": 61,
          "name": "C#4",
          "ticks": 95200,
          "time": 183.07693833333332,
          "velocity": 0.4409448818897638
        },
        {
          "duration": 1.146153941666654,
          "durationTicks": 596,
          "midi": 64,
          "name": "E4",
          "ticks": 95200,
          "time": 183.07693833333332,
          "velocity": 0.4409448818897638
        },
        {
          "duration": 0.37692310833332954,
          "durationTicks": 196,
          "midi": 56,
          "name": "G#3",
          "ticks": 95800,
          "time": 184.23078458333333,
          "velocity": 0.4094488188976378
        },
        {
          "duration": 0.37692310833332954,
          "durationTicks": 196,
          "midi": 57,
          "name": "A3",
          "ticks": 95800,
          "time": 184.23078458333333,
          "velocity": 0.4094488188976378
        },
        {
          "duration": 0.37692310833332954,
          "durationTicks": 196,
          "midi": 61,
          "name": "C#4",
          "ticks": 95800,
          "time": 184.23078458333333,
          "velocity": 0.4094488188976378
        },
        {
          "duration": 0.37692310833332954,
          "durationTicks": 196,
          "midi": 64,
          "name": "E4",
          "ticks": 95800,
          "time": 184.23078458333333,
          "velocity": 0.4094488188976378
        },
        {
          "duration": 0.9153846916666737,
          "durationTicks": 476,
          "midi": 59,
          "name": "B3",
          "ticks": 96000,
          "time": 184.6154,
          "velocity": 0.3858267716535433
        },
        {
          "duration": 0.9153846916666737,
          "durationTicks": 476,
          "midi": 63,
          "name": "D#4",
          "ticks": 96000,
          "time": 184.6154,
          "velocity": 0.3858267716535433
        },
        {
          "duration": 0.9153846916666737,
          "durationTicks": 476,
          "midi": 64,
          "name": "E4",
          "ticks": 96000,
          "time": 184.6154,
          "velocity": 0.3858267716535433
        },
        {
          "duration": 0.9153846916666737,
          "durationTicks": 476,
          "midi": 68,
          "name": "G#4",
          "ticks": 96000,
          "time": 184.6154,
          "velocity": 0.3858267716535433
        },
        {
          "duration": 0.9153846916666737,
          "durationTicks": 476,
          "midi": 59,
          "name": "B3",
          "ticks": 96480,
          "time": 185.53847699999997,
          "velocity": 0.36220472440944884
        },
        {
          "duration": 0.9153846916666737,
          "durationTicks": 476,
          "midi": 63,
          "name": "D#4",
          "ticks": 96480,
          "time": 185.53847699999997,
          "velocity": 0.36220472440944884
        },
        {
          "duration": 0.9153846916666737,
          "durationTicks": 476,
          "midi": 64,
          "name": "E4",
          "ticks": 96480,
          "time": 185.53847699999997,
          "velocity": 0.36220472440944884
        },
        {
          "duration": 0.9153846916666737,
          "durationTicks": 476,
          "midi": 68,
          "name": "G#4",
          "ticks": 96480,
          "time": 185.53847699999997,
          "velocity": 0.36220472440944884
        },
        {
          "duration": 0.9153846916666737,
          "durationTicks": 476,
          "midi": 58,
          "name": "A#3",
          "ticks": 96960,
          "time": 186.46155399999998,
          "velocity": 0.33858267716535434
        },
        {
          "duration": 0.9153846916666737,
          "durationTicks": 476,
          "midi": 63,
          "name": "D#4",
          "ticks": 96960,
          "time": 186.46155399999998,
          "velocity": 0.33858267716535434
        },
        {
          "duration": 0.9153846916666737,
          "durationTicks": 476,
          "midi": 64,
          "name": "E4",
          "ticks": 96960,
          "time": 186.46155399999998,
          "velocity": 0.33858267716535434
        },
        {
          "duration": 0.9153846916666737,
          "durationTicks": 476,
          "midi": 68,
          "name": "G#4",
          "ticks": 96960,
          "time": 186.46155399999998,
          "velocity": 0.33858267716535434
        },
        {
          "duration": 0.9153846916666737,
          "durationTicks": 476,
          "midi": 58,
          "name": "A#3",
          "ticks": 97440,
          "time": 187.38463099999998,
          "velocity": 0.29133858267716534
        },
        {
          "duration": 0.9153846916666737,
          "durationTicks": 476,
          "midi": 63,
          "name": "D#4",
          "ticks": 97440,
          "time": 187.38463099999998,
          "velocity": 0.29133858267716534
        },
        {
          "duration": 0.9153846916666737,
          "durationTicks": 476,
          "midi": 64,
          "name": "E4",
          "ticks": 97440,
          "time": 187.38463099999998,
          "velocity": 0.29133858267716534
        },
        {
          "duration": 0.9153846916666737,
          "durationTicks": 476,
          "midi": 68,
          "name": "G#4",
          "ticks": 97440,
          "time": 187.38463099999998,
          "velocity": 0.29133858267716534
        },
        {
          "duration": 3.6846156916666644,
          "durationTicks": 1916,
          "midi": 57,
          "name": "A3",
          "ticks": 97920,
          "time": 188.307708,
          "velocity": 0.3858267716535433
        },
        {
          "duration": 0.9230770000000064,
          "durationTicks": 480,
          "midi": 61,
          "name": "C#4",
          "ticks": 97920,
          "time": 188.307708,
          "velocity": 0.3858267716535433
        },
        {
          "duration": 0.9230770000000064,
          "durationTicks": 480,
          "midi": 62,
          "name": "D4",
          "ticks": 97920,
          "time": 188.307708,
          "velocity": 0.3858267716535433
        },
        {
          "duration": 0.9230770000000064,
          "durationTicks": 480,
          "midi": 66,
          "name": "F#4",
          "ticks": 97920,
          "time": 188.307708,
          "velocity": 0.3858267716535433
        },
        {
          "duration": 0.9230769999999779,
          "durationTicks": 480,
          "midi": 61,
          "name": "C#4",
          "ticks": 98400,
          "time": 189.230785,
          "velocity": 0.33858267716535434
        },
        {
          "duration": 0.9230769999999779,
          "durationTicks": 480,
          "midi": 62,
          "name": "D4",
          "ticks": 98400,
          "time": 189.230785,
          "velocity": 0.33858267716535434
        },
        {
          "duration": 0.9230769999999779,
          "durationTicks": 480,
          "midi": 66,
          "name": "F#4",
          "ticks": 98400,
          "time": 189.230785,
          "velocity": 0.33858267716535434
        },
        {
          "duration": 0.9230770000000064,
          "durationTicks": 480,
          "midi": 61,
          "name": "C#4",
          "ticks": 98880,
          "time": 190.15386199999998,
          "velocity": 0.33070866141732286
        },
        {
          "duration": 0.9230770000000064,
          "durationTicks": 480,
          "midi": 62,
          "name": "D4",
          "ticks": 98880,
          "time": 190.15386199999998,
          "velocity": 0.33070866141732286
        },
        {
          "duration": 0.9230770000000064,
          "durationTicks": 480,
          "midi": 66,
          "name": "F#4",
          "ticks": 98880,
          "time": 190.15386199999998,
          "velocity": 0.33070866141732286
        },
        {
          "duration": 0.9230770000000064,
          "durationTicks": 480,
          "midi": 61,
          "name": "C#4",
          "ticks": 99360,
          "time": 191.07693899999998,
          "velocity": 0.31496062992125984
        },
        {
          "duration": 0.9230770000000064,
          "durationTicks": 480,
          "midi": 62,
          "name": "D4",
          "ticks": 99360,
          "time": 191.07693899999998,
          "velocity": 0.31496062992125984
        },
        {
          "duration": 0.9230770000000064,
          "durationTicks": 480,
          "midi": 66,
          "name": "F#4",
          "ticks": 99360,
          "time": 191.07693899999998,
          "velocity": 0.31496062992125984
        },
        {
          "duration": 3.692307999999997,
          "durationTicks": 1920,
          "midi": 54,
          "name": "F#3",
          "ticks": 99840,
          "time": 192.000016,
          "velocity": 0.33858267716535434
        },
        {
          "duration": 0.9230770000000064,
          "durationTicks": 480,
          "midi": 60,
          "name": "C4",
          "ticks": 99840,
          "time": 192.000016,
          "velocity": 0.33858267716535434
        },
        {
          "duration": 0.9230770000000064,
          "durationTicks": 480,
          "midi": 64,
          "name": "E4",
          "ticks": 99840,
          "time": 192.000016,
          "velocity": 0.33858267716535434
        },
        {
          "duration": 0.9230769999999779,
          "durationTicks": 480,
          "midi": 60,
          "name": "C4",
          "ticks": 100320,
          "time": 192.923093,
          "velocity": 0.3228346456692913
        },
        {
          "duration": 0.9230769999999779,
          "durationTicks": 480,
          "midi": 64,
          "name": "E4",
          "ticks": 100320,
          "time": 192.923093,
          "velocity": 0.3228346456692913
        },
        {
          "duration": 0.9230770000000064,
          "durationTicks": 480,
          "midi": 60,
          "name": "C4",
          "ticks": 100800,
          "time": 193.84616999999997,
          "velocity": 0.29133858267716534
        },
        {
          "duration": 0.9230770000000064,
          "durationTicks": 480,
          "midi": 64,
          "name": "E4",
          "ticks": 100800,
          "time": 193.84616999999997,
          "velocity": 0.29133858267716534
        },
        {
          "duration": 0.9230770000000064,
          "durationTicks": 480,
          "midi": 60,
          "name": "C4",
          "ticks": 101280,
          "time": 194.76924699999998,
          "velocity": 0.28346456692913385
        },
        {
          "duration": 0.9230770000000064,
          "durationTicks": 480,
          "midi": 64,
          "name": "E4",
          "ticks": 101280,
          "time": 194.76924699999998,
          "velocity": 0.28346456692913385
        },
        {
          "duration": 0.3000000250000028,
          "durationTicks": 156,
          "midi": 52,
          "name": "E3",
          "ticks": 101760,
          "time": 195.69232399999999,
          "velocity": 0.44881889763779526
        },
        {
          "duration": 0.3000000250000028,
          "durationTicks": 156,
          "midi": 56,
          "name": "G#3",
          "ticks": 101760,
          "time": 195.69232399999999,
          "velocity": 0.44881889763779526
        },
        {
          "duration": 0.3000000250000028,
          "durationTicks": 156,
          "midi": 59,
          "name": "B3",
          "ticks": 101760,
          "time": 195.69232399999999,
          "velocity": 0.44881889763779526
        },
        {
          "duration": 0.3000000250000028,
          "durationTicks": 156,
          "midi": 63,
          "name": "D#4",
          "ticks": 101760,
          "time": 195.69232399999999,
          "velocity": 0.44881889763779526
        },
        {
          "duration": 1.0692308583333272,
          "durationTicks": 556,
          "midi": 52,
          "name": "E3",
          "ticks": 101920,
          "time": 196.00001633333332,
          "velocity": 0.44881889763779526
        },
        {
          "duration": 1.0692308583333272,
          "durationTicks": 556,
          "midi": 56,
          "name": "G#3",
          "ticks": 101920,
          "time": 196.00001633333332,
          "velocity": 0.44881889763779526
        },
        {
          "duration": 1.0692308583333272,
          "durationTicks": 556,
          "midi": 59,
          "name": "B3",
          "ticks": 101920,
          "time": 196.00001633333332,
          "velocity": 0.44881889763779526
        },
        {
          "duration": 1.0692308583333272,
          "durationTicks": 556,
          "midi": 63,
          "name": "D#4",
          "ticks": 101920,
          "time": 196.00001633333332,
          "velocity": 0.44881889763779526
        },
        {
          "duration": 0.9153846916666737,
          "durationTicks": 476,
          "midi": 52,
          "name": "E3",
          "ticks": 102480,
          "time": 197.07693949999998,
          "velocity": 0.41732283464566927
        },
        {
          "duration": 0.9153846916666737,
          "durationTicks": 476,
          "midi": 56,
          "name": "G#3",
          "ticks": 102480,
          "time": 197.07693949999998,
          "velocity": 0.41732283464566927
        },
        {
          "duration": 0.9153846916666737,
          "durationTicks": 476,
          "midi": 59,
          "name": "B3",
          "ticks": 102480,
          "time": 197.07693949999998,
          "velocity": 0.41732283464566927
        },
        {
          "duration": 0.9153846916666737,
          "durationTicks": 476,
          "midi": 63,
          "name": "D#4",
          "ticks": 102480,
          "time": 197.07693949999998,
          "velocity": 0.41732283464566927
        },
        {
          "duration": 0.4538461916666847,
          "durationTicks": 236,
          "midi": 53,
          "name": "F3",
          "ticks": 102960,
          "time": 198.0000165,
          "velocity": 0.4015748031496063
        },
        {
          "duration": 0.4538461916666847,
          "durationTicks": 236,
          "midi": 59,
          "name": "B3",
          "ticks": 102960,
          "time": 198.0000165,
          "velocity": 0.4015748031496063
        },
        {
          "duration": 0.4538461916666847,
          "durationTicks": 236,
          "midi": 64,
          "name": "E4",
          "ticks": 102960,
          "time": 198.0000165,
          "velocity": 0.4015748031496063
        },
        {
          "duration": 0.4538461916666847,
          "durationTicks": 236,
          "midi": 53,
          "name": "F3",
          "ticks": 103200,
          "time": 198.46155499999998,
          "velocity": 0.3937007874015748
        },
        {
          "duration": 0.4538461916666847,
          "durationTicks": 236,
          "midi": 59,
          "name": "B3",
          "ticks": 103200,
          "time": 198.46155499999998,
          "velocity": 0.3937007874015748
        },
        {
          "duration": 0.4538461916666847,
          "durationTicks": 236,
          "midi": 64,
          "name": "E4",
          "ticks": 103200,
          "time": 198.46155499999998,
          "velocity": 0.4015748031496063
        },
        {
          "duration": 0.46153849999998897,
          "durationTicks": 240,
          "midi": 53,
          "name": "F3",
          "ticks": 103440,
          "time": 198.9230935,
          "velocity": 0.3858267716535433
        },
        {
          "duration": 0.46153849999998897,
          "durationTicks": 240,
          "midi": 59,
          "name": "B3",
          "ticks": 103440,
          "time": 198.9230935,
          "velocity": 0.3858267716535433
        },
        {
          "duration": 0.4538461916666563,
          "durationTicks": 236,
          "midi": 64,
          "name": "E4",
          "ticks": 103440,
          "time": 198.9230935,
          "velocity": 0.3858267716535433
        },
        {
          "duration": 1.83846169166668,
          "durationTicks": 956,
          "midi": 56,
          "name": "G#3",
          "ticks": 103680,
          "time": 199.38463199999998,
          "velocity": 0.47244094488188976
        },
        {
          "duration": 1.83846169166668,
          "durationTicks": 956,
          "midi": 57,
          "name": "A3",
          "ticks": 103680,
          "time": 199.38463199999998,
          "velocity": 0.47244094488188976
        },
        {
          "duration": 1.83846169166668,
          "durationTicks": 956,
          "midi": 61,
          "name": "C#4",
          "ticks": 103680,
          "time": 199.38463199999998,
          "velocity": 0.47244094488188976
        },
        {
          "duration": 1.2230770249999807,
          "durationTicks": 636,
          "midi": 64,
          "name": "E4",
          "ticks": 103680,
          "time": 199.38463199999998,
          "velocity": 0.47244094488188976
        },
        {
          "duration": 0.6076923583333382,
          "durationTicks": 316,
          "midi": 68,
          "name": "G#4",
          "ticks": 104320,
          "time": 200.61540133333332,
          "velocity": 0.5118110236220472
        },
        {
          "duration": 1.8384616916666516,
          "durationTicks": 956,
          "midi": 56,
          "name": "G#3",
          "ticks": 104640,
          "time": 201.230786,
          "velocity": 0.5275590551181102
        },
        {
          "duration": 1.8384616916666516,
          "durationTicks": 956,
          "midi": 57,
          "name": "A3",
          "ticks": 104640,
          "time": 201.230786,
          "velocity": 0.5275590551181102
        },
        {
          "duration": 1.8384616916666516,
          "durationTicks": 956,
          "midi": 61,
          "name": "C#4",
          "ticks": 104640,
          "time": 201.230786,
          "velocity": 0.5275590551181102
        },
        {
          "duration": 1.8384616916666516,
          "durationTicks": 956,
          "midi": 66,
          "name": "F#4",
          "ticks": 104640,
          "time": 201.230786,
          "velocity": 0.5275590551181102
        },
        {
          "duration": 1.8461540000000127,
          "durationTicks": 960,
          "midi": 61,
          "name": "C#4",
          "ticks": 105600,
          "time": 203.07693999999998,
          "velocity": 0.49606299212598426
        },
        {
          "duration": 1.8461540000000127,
          "durationTicks": 960,
          "midi": 62,
          "name": "D4",
          "ticks": 105600,
          "time": 203.07693999999998,
          "velocity": 0.49606299212598426
        },
        {
          "duration": 1.8461540000000127,
          "durationTicks": 960,
          "midi": 66,
          "name": "F#4",
          "ticks": 105600,
          "time": 203.07693999999998,
          "velocity": 0.49606299212598426
        },
        {
          "duration": 0.46153849999998897,
          "durationTicks": 240,
          "midi": 57,
          "name": "A3",
          "ticks": 106560,
          "time": 204.923094,
          "velocity": 0.5826771653543307
        },
        {
          "duration": 0.46153849999998897,
          "durationTicks": 240,
          "midi": 59,
          "name": "B3",
          "ticks": 106560,
          "time": 204.923094,
          "velocity": 0.5826771653543307
        },
        {
          "duration": 1.3769231916666627,
          "durationTicks": 716,
          "midi": 56,
          "name": "G#3",
          "ticks": 106800,
          "time": 205.38463249999998,
          "velocity": 0.5669291338582677
        },
        {
          "duration": 0.9153846916666737,
          "durationTicks": 476,
          "midi": 59,
          "name": "B3",
          "ticks": 107040,
          "time": 205.84617099999997,
          "velocity": 0.5748031496062992
        },
        {
          "duration": 0.9153846916666737,
          "durationTicks": 476,
          "midi": 62,
          "name": "D4",
          "ticks": 107040,
          "time": 205.84617099999997,
          "velocity": 0.5748031496062992
        },
        {
          "duration": 0.46153849999998897,
          "durationTicks": 240,
          "midi": 69,
          "name": "A4",
          "ticks": 107280,
          "time": 206.3077095,
          "velocity": 0.5433070866141733
        },
        {
          "duration": 1.8461540000000127,
          "durationTicks": 960,
          "midi": 54,
          "name": "F#3",
          "ticks": 107520,
          "time": 206.76924799999998,
          "velocity": 0.4251968503937008
        },
        {
          "duration": 1.83846169166668,
          "durationTicks": 956,
          "midi": 59,
          "name": "B3",
          "ticks": 107520,
          "time": 206.76924799999998,
          "velocity": 0.41732283464566927
        },
        {
          "duration": 1.83846169166668,
          "durationTicks": 956,
          "midi": 63,
          "name": "D#4",
          "ticks": 107520,
          "time": 206.76924799999998,
          "velocity": 0.47244094488188976
        },
        {
          "duration": 1.8461539999999843,
          "durationTicks": 960,
          "midi": 53,
          "name": "F3",
          "ticks": 108480,
          "time": 208.615402,
          "velocity": 0.41732283464566927
        },
        {
          "duration": 0.9230770000000064,
          "durationTicks": 480,
          "midi": 59,
          "name": "B3",
          "ticks": 108480,
          "time": 208.615402,
          "velocity": 0.41732283464566927
        },
        {
          "duration": 0.9230769999999779,
          "durationTicks": 480,
          "midi": 59,
          "name": "B3",
          "ticks": 108960,
          "time": 209.538479,
          "velocity": 0.41732283464566927
        },
        {
          "duration": 0.6230769749999752,
          "durationTicks": 324,
          "midi": 56,
          "name": "G#3",
          "ticks": 109600,
          "time": 210.76924833333334,
          "velocity": 0.4566929133858268
        },
        {
          "duration": 0.6230769749999752,
          "durationTicks": 324,
          "midi": 57,
          "name": "A3",
          "ticks": 109600,
          "time": 210.76924833333334,
          "velocity": 0.4566929133858268
        },
        {
          "duration": 0.6230769749999752,
          "durationTicks": 324,
          "midi": 61,
          "name": "C#4",
          "ticks": 109600,
          "time": 210.76924833333334,
          "velocity": 0.4566929133858268
        },
        {
          "duration": 1.2076924083333438,
          "durationTicks": 628,
          "midi": 56,
          "name": "G#3",
          "ticks": 109920,
          "time": 211.38463299999998,
          "velocity": 0.4566929133858268
        },
        {
          "duration": 1.2076924083333438,
          "durationTicks": 628,
          "midi": 57,
          "name": "A3",
          "ticks": 109920,
          "time": 211.38463299999998,
          "velocity": 0.4566929133858268
        },
        {
          "duration": 1.2076924083333438,
          "durationTicks": 628,
          "midi": 61,
          "name": "C#4",
          "ticks": 109920,
          "time": 211.38463299999998,
          "velocity": 0.4566929133858268
        },
        {
          "duration": 1.5461539749999815,
          "durationTicks": 804,
          "midi": 54,
          "name": "F#3",
          "ticks": 110560,
          "time": 212.61540233333332,
          "velocity": 0.3937007874015748
        },
        {
          "duration": 1.5307693583333446,
          "durationTicks": 796,
          "midi": 57,
          "name": "A3",
          "ticks": 110560,
          "time": 212.61540233333332,
          "velocity": 0.3937007874015748
        },
        {
          "duration": 1.5307693583333446,
          "durationTicks": 796,
          "midi": 61,
          "name": "C#4",
          "ticks": 110560,
          "time": 212.61540233333332,
          "velocity": 0.3937007874015748
        },
        {
          "duration": 0.2307692500000087,
          "durationTicks": 120,
          "midi": 50,
          "name": "D3",
          "ticks": 111360,
          "time": 214.15386399999997,
          "velocity": 0.4330708661417323
        },
        {
          "duration": 0.22307694166667602,
          "durationTicks": 116,
          "midi": 60,
          "name": "C4",
          "ticks": 111360,
          "time": 214.15386399999997,
          "velocity": 0.4330708661417323
        },
        {
          "duration": 0.6923077499999977,
          "durationTicks": 360,
          "midi": 60,
          "name": "C4",
          "ticks": 111480,
          "time": 214.38463324999998,
          "velocity": 0.44881889763779526
        },
        {
          "duration": 0.2307692500000087,
          "durationTicks": 120,
          "midi": 64,
          "name": "E4",
          "ticks": 111840,
          "time": 215.07694099999998,
          "velocity": 0.4409448818897638
        },
        {
          "duration": 0.2307692500000087,
          "durationTicks": 120,
          "midi": 62,
          "name": "D4",
          "ticks": 111960,
          "time": 215.30771024999999,
          "velocity": 0.4409448818897638
        },
        {
          "duration": 0.23076924999998027,
          "durationTicks": 120,
          "midi": 60,
          "name": "C4",
          "ticks": 112080,
          "time": 215.5384795,
          "velocity": 0.3937007874015748
        },
        {
          "duration": 0.15384616666665352,
          "durationTicks": 80,
          "midi": 57,
          "name": "A3",
          "ticks": 112200,
          "time": 215.76924874999997,
          "velocity": 0.3779527559055118
        },
        {
          "duration": 0.15384616666665352,
          "durationTicks": 80,
          "midi": 53,
          "name": "F3",
          "ticks": 112240,
          "time": 215.84617183333333,
          "velocity": 0.36220472440944884
        },
        {
          "duration": 0.15384616666671036,
          "durationTicks": 80,
          "midi": 50,
          "name": "D3",
          "ticks": 112280,
          "time": 215.92309491666663,
          "velocity": 0.3543307086614173
        },
        {
          "duration": 0.30769233333333545,
          "durationTicks": 160,
          "midi": 60,
          "name": "C4",
          "ticks": 112320,
          "time": 216.00001799999998,
          "velocity": 0.33858267716535434
        },
        {
          "duration": 0.30769233333333545,
          "durationTicks": 160,
          "midi": 59,
          "name": "B3",
          "ticks": 112480,
          "time": 216.30771033333332,
          "velocity": 0.4251968503937008
        },
        {
          "duration": 1.2307693333333418,
          "durationTicks": 640,
          "midi": 53,
          "name": "F3",
          "ticks": 112640,
          "time": 216.61540266666665,
          "velocity": 0.41732283464566927
        },
        {
          "duration": 1.2307693333333418,
          "durationTicks": 640,
          "midi": 59,
          "name": "B3",
          "ticks": 112640,
          "time": 216.61540266666665,
          "velocity": 0.41732283464566927
        },
        {
          "duration": 1.2307693333333418,
          "durationTicks": 640,
          "midi": 64,
          "name": "E4",
          "ticks": 112640,
          "time": 216.61540266666665,
          "velocity": 0.41732283464566927
        },
        {
          "duration": 1.8384616916666516,
          "durationTicks": 956,
          "midi": 56,
          "name": "G#3",
          "ticks": 113280,
          "time": 217.846172,
          "velocity": 0.31496062992125984
        },
        {
          "duration": 1.8384616916666516,
          "durationTicks": 956,
          "midi": 57,
          "name": "A3",
          "ticks": 113280,
          "time": 217.846172,
          "velocity": 0.31496062992125984
        },
        {
          "duration": 1.8384616916666516,
          "durationTicks": 956,
          "midi": 61,
          "name": "C#4",
          "ticks": 113280,
          "time": 217.846172,
          "velocity": 0.31496062992125984
        },
        {
          "duration": 1.83846169166668,
          "durationTicks": 956,
          "midi": 54,
          "name": "F#3",
          "ticks": 114240,
          "time": 219.69232599999998,
          "velocity": 0.29133858267716534
        },
        {
          "duration": 1.83846169166668,
          "durationTicks": 956,
          "midi": 57,
          "name": "A3",
          "ticks": 114240,
          "time": 219.69232599999998,
          "velocity": 0.29133858267716534
        },
        {
          "duration": 1.83846169166668,
          "durationTicks": 956,
          "midi": 61,
          "name": "C#4",
          "ticks": 114240,
          "time": 219.69232599999998,
          "velocity": 0.29133858267716534
        },
        {
          "duration": 1.3769231916666627,
          "durationTicks": 716,
          "midi": 57,
          "name": "A3",
          "ticks": 115200,
          "time": 221.53848,
          "velocity": 0.2992125984251969
        },
        {
          "duration": 1.3769231916666627,
          "durationTicks": 716,
          "midi": 59,
          "name": "B3",
          "ticks": 115200,
          "time": 221.53848,
          "velocity": 0.2992125984251969
        },
        {
          "duration": 1.0692308583333272,
          "durationTicks": 556,
          "midi": 53,
          "name": "F3",
          "ticks": 115360,
          "time": 221.84617233333333,
          "velocity": 0.2992125984251969
        },
        {
          "duration": 2.300000191666669,
          "durationTicks": 1196,
          "midi": 52,
          "name": "E3",
          "ticks": 115920,
          "time": 222.9230955,
          "velocity": 0.3464566929133858
        },
        {
          "duration": 2.300000191666669,
          "durationTicks": 1196,
          "midi": 56,
          "name": "G#3",
          "ticks": 115920,
          "time": 222.9230955,
          "velocity": 0.3464566929133858
        },
        {
          "duration": 0.9153846916666737,
          "durationTicks": 476,
          "midi": 59,
          "name": "B3",
          "ticks": 115920,
          "time": 222.9230955,
          "velocity": 0.3464566929133858
        },
        {
          "duration": 1.3769231916666627,
          "durationTicks": 716,
          "midi": 58,
          "name": "A#3",
          "ticks": 116400,
          "time": 223.8461725,
          "velocity": 0.3858267716535433
        },
        {
          "duration": 0.9153846916666737,
          "durationTicks": 476,
          "midi": 57,
          "name": "A3",
          "ticks": 117120,
          "time": 225.230788,
          "velocity": 0.44881889763779526
        },
        {
          "duration": 3.6846156916666644,
          "durationTicks": 1916,
          "midi": 61,
          "name": "C#4",
          "ticks": 117120,
          "time": 225.230788,
          "velocity": 0.44881889763779526
        },
        {
          "duration": 3.6846156916666644,
          "durationTicks": 1916,
          "midi": 62,
          "name": "D4",
          "ticks": 117120,
          "time": 225.230788,
          "velocity": 0.44881889763779526
        },
        {
          "duration": 2.7615386916666864,
          "durationTicks": 1436,
          "midi": 57,
          "name": "A3",
          "ticks": 117600,
          "time": 226.15386499999997,
          "velocity": 0.3543307086614173
        },
        {
          "duration": 1.8461539999999843,
          "durationTicks": 960,
          "midi": 57,
          "name": "A3",
          "ticks": 119040,
          "time": 228.923096,
          "velocity": 0.48031496062992124
        },
        {
          "duration": 1.83846169166668,
          "durationTicks": 956,
          "midi": 63,
          "name": "D#4",
          "ticks": 119040,
          "time": 228.923096,
          "velocity": 0.48031496062992124
        },
        {
          "duration": 0.9230770000000064,
          "durationTicks": 480,
          "midi": 57,
          "name": "A3",
          "ticks": 120000,
          "time": 230.76924999999997,
          "velocity": 0.44881889763779526
        },
        {
          "duration": 0.9153846916666737,
          "durationTicks": 476,
          "midi": 62,
          "name": "D4",
          "ticks": 120000,
          "time": 230.76924999999997,
          "velocity": 0.44881889763779526
        },
        {
          "duration": 0.8384616083333469,
          "durationTicks": 436,
          "midi": 56,
          "name": "G#3",
          "ticks": 120480,
          "time": 231.69232699999998,
          "velocity": 0.4015748031496063
        },
        {
          "duration": 0.8384616083333469,
          "durationTicks": 436,
          "midi": 62,
          "name": "D4",
          "ticks": 120480,
          "time": 231.69232699999998,
          "velocity": 0.4015748031496063
        },
        {
          "duration": 1.8461539999999843,
          "durationTicks": 960,
          "midi": 56,
          "name": "G#3",
          "ticks": 120960,
          "time": 232.61540399999998,
          "velocity": 0.3937007874015748
        },
        {
          "duration": 1.8461539999999843,
          "durationTicks": 960,
          "midi": 57,
          "name": "A3",
          "ticks": 120960,
          "time": 232.61540399999998,
          "velocity": 0.3937007874015748
        },
        {
          "duration": 1.8461539999999843,
          "durationTicks": 960,
          "midi": 61,
          "name": "C#4",
          "ticks": 120960,
          "time": 232.61540399999998,
          "velocity": 0.3937007874015748
        },
        {
          "duration": 1.8461539999999843,
          "durationTicks": 960,
          "midi": 64,
          "name": "E4",
          "ticks": 120960,
          "time": 232.61540399999998,
          "velocity": 0.3937007874015748
        },
        {
          "duration": 0.6076923583333098,
          "durationTicks": 316,
          "midi": 59,
          "name": "B3",
          "ticks": 122080,
          "time": 234.76925033333333,
          "velocity": 0.41732283464566927
        },
        {
          "duration": 0.6076923583333098,
          "durationTicks": 316,
          "midi": 63,
          "name": "D#4",
          "ticks": 122080,
          "time": 234.76925033333333,
          "velocity": 0.41732283464566927
        },
        {
          "duration": 0.6076923583333098,
          "durationTicks": 316,
          "midi": 64,
          "name": "E4",
          "ticks": 122080,
          "time": 234.76925033333333,
          "velocity": 0.41732283464566927
        },
        {
          "duration": 0.6076923583333098,
          "durationTicks": 316,
          "midi": 68,
          "name": "G#4",
          "ticks": 122080,
          "time": 234.76925033333333,
          "velocity": 0.41732283464566927
        },
        {
          "duration": 0.9230770000000064,
          "durationTicks": 480,
          "midi": 58,
          "name": "A#3",
          "ticks": 122400,
          "time": 235.38463499999997,
          "velocity": 0.3543307086614173
        },
        {
          "duration": 0.9230770000000064,
          "durationTicks": 480,
          "midi": 63,
          "name": "D#4",
          "ticks": 122400,
          "time": 235.38463499999997,
          "velocity": 0.3543307086614173
        },
        {
          "duration": 0.9230770000000064,
          "durationTicks": 480,
          "midi": 64,
          "name": "E4",
          "ticks": 122400,
          "time": 235.38463499999997,
          "velocity": 0.3543307086614173
        },
        {
          "duration": 0.9230770000000064,
          "durationTicks": 480,
          "midi": 68,
          "name": "G#4",
          "ticks": 122400,
          "time": 235.38463499999997,
          "velocity": 0.3543307086614173
        },
        {
          "duration": 1.3769231916666627,
          "durationTicks": 716,
          "midi": 57,
          "name": "A3",
          "ticks": 122880,
          "time": 236.30771199999998,
          "velocity": 0.5039370078740157
        },
        {
          "duration": 1.3769231916666627,
          "durationTicks": 716,
          "midi": 61,
          "name": "C#4",
          "ticks": 122880,
          "time": 236.30771199999998,
          "velocity": 0.5039370078740157
        },
        {
          "duration": 1.3769231916666627,
          "durationTicks": 716,
          "midi": 62,
          "name": "D4",
          "ticks": 122880,
          "time": 236.30771199999998,
          "velocity": 0.5039370078740157
        },
        {
          "duration": 1.3769231916666627,
          "durationTicks": 716,
          "midi": 66,
          "name": "F#4",
          "ticks": 122880,
          "time": 236.30771199999998,
          "velocity": 0.5039370078740157
        },
        {
          "duration": 0.4538461916666847,
          "durationTicks": 236,
          "midi": 61,
          "name": "C#4",
          "ticks": 123600,
          "time": 237.69232749999998,
          "velocity": 0.5354330708661418
        },
        {
          "duration": 0.4538461916666847,
          "durationTicks": 236,
          "midi": 62,
          "name": "D4",
          "ticks": 123600,
          "time": 237.69232749999998,
          "velocity": 0.5354330708661418
        },
        {
          "duration": 0.4538461916666847,
          "durationTicks": 236,
          "midi": 66,
          "name": "F#4",
          "ticks": 123600,
          "time": 237.69232749999998,
          "velocity": 0.5354330708661418
        },
        {
          "duration": 1.8384616916666516,
          "durationTicks": 956,
          "midi": 53,
          "name": "F3",
          "ticks": 123840,
          "time": 238.153866,
          "velocity": 0.5905511811023622
        },
        {
          "duration": 1.8384616916666516,
          "durationTicks": 956,
          "midi": 57,
          "name": "A3",
          "ticks": 123840,
          "time": 238.153866,
          "velocity": 0.5905511811023622
        },
        {
          "duration": 0.9230769999999779,
          "durationTicks": 480,
          "midi": 60,
          "name": "C4",
          "ticks": 123840,
          "time": 238.153866,
          "velocity": 0.5905511811023622
        },
        {
          "duration": 0.9230770000000064,
          "durationTicks": 480,
          "midi": 59,
          "name": "B3",
          "ticks": 124320,
          "time": 239.07694299999997,
          "velocity": 0.5433070866141733
        },
        {
          "duration": 0.9230770000000064,
          "durationTicks": 480,
          "midi": 56,
          "name": "G#3",
          "ticks": 124800,
          "time": 240.00001999999998,
          "velocity": 0.48031496062992124
        },
        {
          "duration": 0.9230770000000064,
          "durationTicks": 480,
          "midi": 59,
          "name": "B3",
          "ticks": 124800,
          "time": 240.00001999999998,
          "velocity": 0.48031496062992124
        },
        {
          "duration": 0.30769233333330703,
          "durationTicks": 160,
          "midi": 56,
          "name": "G#3",
          "ticks": 125280,
          "time": 240.92309699999998,
          "velocity": 0.4251968503937008
        },
        {
          "duration": 0.9230770000000064,
          "durationTicks": 480,
          "midi": 57,
          "name": "A3",
          "ticks": 125280,
          "time": 240.92309699999998,
          "velocity": 0.4251968503937008
        },
        {
          "duration": 0.9230770000000064,
          "durationTicks": 480,
          "midi": 61,
          "name": "C#4",
          "ticks": 125280,
          "time": 240.92309699999998,
          "velocity": 0.4251968503937008
        },
        {
          "duration": 0.9230770000000064,
          "durationTicks": 480,
          "midi": 64,
          "name": "E4",
          "ticks": 125280,
          "time": 240.92309699999998,
          "velocity": 0.4251968503937008
        },
        {
          "duration": 0.6153846666666993,
          "durationTicks": 320,
          "midi": 54,
          "name": "F#3",
          "ticks": 125440,
          "time": 241.2307893333333,
          "velocity": 0.5118110236220472
        },
        {
          "duration": 0.9230769999999779,
          "durationTicks": 480,
          "midi": 57,
          "name": "A3",
          "ticks": 125760,
          "time": 241.846174,
          "velocity": 0.5118110236220472
        },
        {
          "duration": 0.9230769999999779,
          "durationTicks": 480,
          "midi": 59,
          "name": "B3",
          "ticks": 125760,
          "time": 241.846174,
          "velocity": 0.5118110236220472
        },
        {
          "duration": 0.9230769999999779,
          "durationTicks": 480,
          "midi": 62,
          "name": "D4",
          "ticks": 125760,
          "time": 241.846174,
          "velocity": 0.5118110236220472
        },
        {
          "duration": 0.9230769999999779,
          "durationTicks": 480,
          "midi": 66,
          "name": "F#4",
          "ticks": 125760,
          "time": 241.846174,
          "velocity": 0.5118110236220472
        },
        {
          "duration": 0.9230770000000064,
          "durationTicks": 480,
          "midi": 50,
          "name": "D3",
          "ticks": 126240,
          "time": 242.76925099999997,
          "velocity": 0.47244094488188976
        },
        {
          "duration": 0.9230770000000064,
          "durationTicks": 480,
          "midi": 54,
          "name": "F#3",
          "ticks": 126240,
          "time": 242.76925099999997,
          "velocity": 0.47244094488188976
        },
        {
          "duration": 0.9153846916666737,
          "durationTicks": 476,
          "midi": 56,
          "name": "G#3",
          "ticks": 126240,
          "time": 242.76925099999997,
          "velocity": 0.47244094488188976
        },
        {
          "duration": 0.9153846916666737,
          "durationTicks": 476,
          "midi": 61,
          "name": "C#4",
          "ticks": 126240,
          "time": 242.76925099999997,
          "velocity": 0.47244094488188976
        },
        {
          "duration": 0.4615385000000174,
          "durationTicks": 240,
          "midi": 46,
          "name": "A#2",
          "ticks": 126720,
          "time": 243.69232799999997,
          "velocity": 0.5118110236220472
        },
        {
          "duration": 0.4615385000000174,
          "durationTicks": 240,
          "midi": 53,
          "name": "F3",
          "ticks": 126720,
          "time": 243.69232799999997,
          "velocity": 0.5118110236220472
        },
        {
          "duration": 6.915385191666672,
          "durationTicks": 3596,
          "midi": 45,
          "name": "A2",
          "ticks": 126960,
          "time": 244.1538665,
          "velocity": 0.4330708661417323
        },
        {
          "duration": 6.915385191666672,
          "durationTicks": 3596,
          "midi": 52,
          "name": "E3",
          "ticks": 126960,
          "time": 244.1538665,
          "velocity": 0.4330708661417323
        },
        {
          "duration": 0.22307694166667602,
          "durationTicks": 116,
          "midi": 59,
          "name": "B3",
          "ticks": 127200,
          "time": 244.61540499999998,
          "velocity": 0.4251968503937008
        },
        {
          "duration": 0.22307694166667602,
          "durationTicks": 116,
          "midi": 56,
          "name": "G#3",
          "ticks": 127320,
          "time": 244.84617425,
          "velocity": 0.5118110236220472
        },
        {
          "duration": 0.22307694166667602,
          "durationTicks": 116,
          "midi": 57,
          "name": "A3",
          "ticks": 127440,
          "time": 245.07694349999997,
          "velocity": 0.4409448818897638
        },
        {
          "duration": 0.4538461916666847,
          "durationTicks": 236,
          "midi": 61,
          "name": "C#4",
          "ticks": 127560,
          "time": 245.30771274999998,
          "velocity": 0.4330708661417323
        }
      ],
      "endOfTrackTicks": 130560
    },
    {
      "channel": 0,
      "controlChanges": {
        "0": [
          {
            "number": 0,
            "ticks": 0,
            "time": 0,
            "value": 0
          }
        ],
        "32": [
          {
            "number": 32,
            "ticks": 0,
            "time": 0,
            "value": 0
          }
        ]
      },
      "pitchBends": [],
      "instrument": {
        "family": "piano",
        "number": 0,
        "name": "acoustic grand piano"
      },
      "name": "Bass",
      "notes": [],
      "endOfTrackTicks": 130560
    },
    {
      "channel": 2,
      "controlChanges": {
        "7": [
          {
            "number": 7,
            "ticks": 0,
            "time": 0,
            "value": 0.5118110236220472
          }
        ],
        "10": [
          {
            "number": 10,
            "ticks": 0,
            "time": 0,
            "value": 0.23622047244094488
          }
        ],
        "91": [
          {
            "number": 91,
            "ticks": 0,
            "time": 0,
            "value": 0.09448818897637795
          }
        ],
        "93": [
          {
            "number": 93,
            "ticks": 0,
            "time": 0,
            "value": 0.05511811023622047
          }
        ]
      },
      "pitchBends": [
        {
          "ticks": 60536,
          "time": 116.41539431666665,
          "value": 0.146484375
        },
        {
          "ticks": 60544,
          "time": 116.43077893333333,
          "value": 0.18896484375
        },
        {
          "ticks": 60551,
          "time": 116.44424047291665,
          "value": 0.2315673828125
        },
        {
          "ticks": 60559,
          "time": 116.45962508958333,
          "value": 0.274169921875
        },
        {
          "ticks": 60566,
          "time": 116.47308662916664,
          "value": 0.3167724609375
        },
        {
          "ticks": 60574,
          "time": 116.48847124583332,
          "value": 0.3592529296875
        },
        {
          "ticks": 60581,
          "time": 116.50193278541666,
          "value": 0.40185546875
        },
        {
          "ticks": 60589,
          "time": 116.51731740208334,
          "value": 0.4444580078125
        },
        {
          "ticks": 60596,
          "time": 116.53077894166665,
          "value": 0.487060546875
        },
        {
          "ticks": 60604,
          "time": 116.54616355833333,
          "value": 0.529541015625
        },
        {
          "ticks": 60611,
          "time": 116.55962509791665,
          "value": 0.5721435546875
        },
        {
          "ticks": 60616,
          "time": 116.56924048333332,
          "value": 0.6005859375
        },
        {
          "ticks": 60624,
          "time": 116.58462509999998,
          "value": 0.319091796875
        },
        {
          "ticks": 60631,
          "time": 116.59808663958333,
          "value": 0.03759765625
        },
        {
          "ticks": 60632,
          "time": 116.60000971666665,
          "value": 0
        },
        {
          "ticks": 60640,
          "time": 116.61539433333331,
          "value": -0.001953125
        },
        {
          "ticks": 60647,
          "time": 116.62885587291666,
          "value": -0.0040283203125
        },
        {
          "ticks": 60655,
          "time": 116.64424048958332,
          "value": -0.0059814453125
        },
        {
          "ticks": 60662,
          "time": 116.65770202916666,
          "value": -0.008056640625
        },
        {
          "ticks": 60670,
          "time": 116.67308664583332,
          "value": -0.010009765625
        },
        {
          "ticks": 60677,
          "time": 116.68654818541665,
          "value": -0.0120849609375
        },
        {
          "ticks": 60685,
          "time": 116.70193280208332,
          "value": -0.0140380859375
        },
        {
          "ticks": 60692,
          "time": 116.71539434166665,
          "value": -0.01611328125
        },
        {
          "ticks": 60700,
          "time": 116.73077895833332,
          "value": -0.01806640625
        },
        {
          "ticks": 60707,
          "time": 116.74424049791665,
          "value": -0.0201416015625
        },
        {
          "ticks": 60715,
          "time": 116.75962511458332,
          "value": -0.0220947265625
        },
        {
          "ticks": 60722,
          "time": 116.77308665416665,
          "value": -0.024169921875
        },
        {
          "ticks": 60730,
          "time": 116.78847127083331,
          "value": -0.0262451171875
        },
        {
          "ticks": 60737,
          "time": 116.80193281041666,
          "value": -0.0281982421875
        },
        {
          "ticks": 60745,
          "time": 116.81731742708332,
          "value": -0.0302734375
        },
        {
          "ticks": 60752,
          "time": 116.83077896666666,
          "value": -0.0322265625
        },
        {
          "ticks": 60760,
          "time": 116.84616358333332,
          "value": -0.0343017578125
        },
        {
          "ticks": 60767,
          "time": 116.85962512291665,
          "value": -0.0362548828125
        },
        {
          "ticks": 60775,
          "time": 116.87500973958332,
          "value": -0.038330078125
        },
        {
          "ticks": 60782,
          "time": 116.88847127916665,
          "value": -0.040283203125
        },
        {
          "ticks": 60790,
          "time": 116.90385589583332,
          "value": -0.0423583984375
        },
        {
          "ticks": 60797,
          "time": 116.91731743541665,
          "value": -0.0443115234375
        },
        {
          "ticks": 60805,
          "time": 116.93270205208331,
          "value": -0.04638671875
        },
        {
          "ticks": 60812,
          "time": 116.94616359166665,
          "value": -0.0484619140625
        },
        {
          "ticks": 60820,
          "time": 116.96154820833333,
          "value": -0.0504150390625
        },
        {
          "ticks": 60827,
          "time": 116.97500974791666,
          "value": -0.052490234375
        },
        {
          "ticks": 60835,
          "time": 116.99039436458332,
          "value": -0.054443359375
        },
        {
          "ticks": 60842,
          "time": 117.00385590416666,
          "value": -0.0565185546875
        },
        {
          "ticks": 60850,
          "time": 117.01924052083332,
          "value": -0.0584716796875
        },
        {
          "ticks": 60857,
          "time": 117.03270206041665,
          "value": -0.060546875
        },
        {
          "ticks": 60865,
          "time": 117.04808667708332,
          "value": -0.0625
        },
        {
          "ticks": 60872,
          "time": 117.06154821666665,
          "value": -0.0645751953125
        },
        {
          "ticks": 60880,
          "time": 117.07693283333332,
          "value": -0.0665283203125
        },
        {
          "ticks": 60887,
          "time": 117.09039437291665,
          "value": -0.068603515625
        },
        {
          "ticks": 60895,
          "time": 117.10577898958331,
          "value": -0.0706787109375
        },
        {
          "ticks": 60902,
          "time": 117.11924052916666,
          "value": -0.0726318359375
        },
        {
          "ticks": 60910,
          "time": 117.13462514583333,
          "value": -0.07470703125
        },
        {
          "ticks": 60917,
          "time": 117.14808668541666,
          "value": -0.07666015625
        },
        {
          "ticks": 60925,
          "time": 117.16347130208332,
          "value": -0.0787353515625
        },
        {
          "ticks": 60932,
          "time": 117.17693284166666,
          "value": -0.0806884765625
        },
        {
          "ticks": 60940,
          "time": 117.19231745833332,
          "value": -0.082763671875
        },
        {
          "ticks": 60947,
          "time": 117.20577899791665,
          "value": -0.084716796875
        },
        {
          "ticks": 60955,
          "time": 117.22116361458332,
          "value": -0.0867919921875
        },
        {
          "ticks": 60962,
          "time": 117.23462515416665,
          "value": -0.0887451171875
        },
        {
          "ticks": 60970,
          "time": 117.25000977083332,
          "value": -0.0908203125
        },
        {
          "ticks": 60977,
          "time": 117.26347131041665,
          "value": -0.0928955078125
        },
        {
          "ticks": 60985,
          "time": 117.27885592708331,
          "value": -0.0948486328125
        },
        {
          "ticks": 60992,
          "time": 117.29231746666666,
          "value": -0.096923828125
        },
        {
          "ticks": 61000,
          "time": 117.30770208333333,
          "value": -0.098876953125
        },
        {
          "ticks": 61007,
          "time": 117.32116362291666,
          "value": -0.1009521484375
        },
        {
          "ticks": 61015,
          "time": 117.33654823958332,
          "value": -0.1029052734375
        },
        {
          "ticks": 61022,
          "time": 117.35000977916665,
          "value": -0.10498046875
        },
        {
          "ticks": 61030,
          "time": 117.36539439583332,
          "value": -0.10693359375
        },
        {
          "ticks": 61037,
          "time": 117.37885593541665,
          "value": -0.1090087890625
        },
        {
          "ticks": 61045,
          "time": 117.39424055208332,
          "value": -0.1109619140625
        },
        {
          "ticks": 61052,
          "time": 117.40770209166665,
          "value": -0.113037109375
        },
        {
          "ticks": 61060,
          "time": 117.42308670833332,
          "value": -0.1151123046875
        },
        {
          "ticks": 61067,
          "time": 117.43654824791665,
          "value": -0.1170654296875
        },
        {
          "ticks": 61075,
          "time": 117.45193286458331,
          "value": -0.119140625
        },
        {
          "ticks": 61082,
          "time": 117.46539440416666,
          "value": -0.12109375
        },
        {
          "ticks": 61090,
          "time": 117.48077902083332,
          "value": -0.1231689453125
        },
        {
          "ticks": 61097,
          "time": 117.49424056041666,
          "value": -0.1251220703125
        },
        {
          "ticks": 61105,
          "time": 117.50962517708332,
          "value": -0.127197265625
        },
        {
          "ticks": 61112,
          "time": 117.52308671666665,
          "value": -0.129150390625
        },
        {
          "ticks": 61120,
          "time": 117.53847133333332,
          "value": -0.1312255859375
        },
        {
          "ticks": 61127,
          "time": 117.55193287291665,
          "value": -0.1331787109375
        },
        {
          "ticks": 61135,
          "time": 117.56731748958332,
          "value": -0.13525390625
        },
        {
          "ticks": 61142,
          "time": 117.58077902916665,
          "value": -0.1373291015625
        },
        {
          "ticks": 61150,
          "time": 117.59616364583331,
          "value": -0.1392822265625
        },
        {
          "ticks": 61157,
          "time": 117.60962518541665,
          "value": -0.141357421875
        },
        {
          "ticks": 61165,
          "time": 117.62500980208333,
          "value": -0.143310546875
        },
        {
          "ticks": 61172,
          "time": 117.63847134166666,
          "value": -0.1453857421875
        },
        {
          "ticks": 61176,
          "time": 117.64616364999999,
          "value": -0.146484375
        },
        {
          "ticks": 61184,
          "time": 117.66154826666666,
          "value": -0.18896484375
        },
        {
          "ticks": 61191,
          "time": 117.67500980624999,
          "value": -0.2315673828125
        },
        {
          "ticks": 61199,
          "time": 117.69039442291665,
          "value": -0.274169921875
        },
        {
          "ticks": 61206,
          "time": 117.70385596249999,
          "value": -0.3167724609375
        },
        {
          "ticks": 61214,
          "time": 117.71924057916667,
          "value": -0.3592529296875
        },
        {
          "ticks": 61221,
          "time": 117.73270211875,
          "value": -0.40185546875
        },
        {
          "ticks": 61229,
          "time": 117.74808673541666,
          "value": -0.4444580078125
        },
        {
          "ticks": 61236,
          "time": 117.761548275,
          "value": -0.487060546875
        },
        {
          "ticks": 61244,
          "time": 117.77693289166666,
          "value": -0.529541015625
        },
        {
          "ticks": 61251,
          "time": 117.79039443125,
          "value": -0.5721435546875
        },
        {
          "ticks": 61256,
          "time": 117.80000981666664,
          "value": -0.6005859375
        },
        {
          "ticks": 61264,
          "time": 117.81539443333332,
          "value": -0.319091796875
        },
        {
          "ticks": 61271,
          "time": 117.82885597291666,
          "value": -0.03759765625
        },
        {
          "ticks": 61272,
          "time": 117.83077904999999,
          "value": 0
        },
        {
          "ticks": 61280,
          "time": 117.84616366666665,
          "value": 0.0244140625
        },
        {
          "ticks": 61287,
          "time": 117.85962520625,
          "value": 0.0489501953125
        },
        {
          "ticks": 61295,
          "time": 117.87500982291667,
          "value": 0.073486328125
        },
        {
          "ticks": 61302,
          "time": 117.8884713625,
          "value": 0.0980224609375
        },
        {
          "ticks": 61310,
          "time": 117.90385597916666,
          "value": 0.12255859375
        },
        {
          "ticks": 61317,
          "time": 117.91731751875,
          "value": 0.1470947265625
        },
        {
          "ticks": 61325,
          "time": 117.93270213541666,
          "value": 0.171630859375
        },
        {
          "ticks": 61332,
          "time": 117.946163675,
          "value": 0.1961669921875
        },
        {
          "ticks": 61340,
          "time": 117.96154829166666,
          "value": 0.220703125
        },
        {
          "ticks": 61347,
          "time": 117.97500983124999,
          "value": 0.2451171875
        },
        {
          "ticks": 61355,
          "time": 117.99039444791666,
          "value": 0.2696533203125
        },
        {
          "ticks": 61362,
          "time": 118.00385598749999,
          "value": 0.294189453125
        },
        {
          "ticks": 61370,
          "time": 118.01924060416665,
          "value": 0.3187255859375
        },
        {
          "ticks": 61377,
          "time": 118.03270214375,
          "value": 0.34326171875
        },
        {
          "ticks": 61385,
          "time": 118.04808676041667,
          "value": 0.3677978515625
        },
        {
          "ticks": 61392,
          "time": 118.0615483,
          "value": 0.392333984375
        },
        {
          "ticks": 61400,
          "time": 118.07693291666666,
          "value": 0.4168701171875
        },
        {
          "ticks": 61407,
          "time": 118.09039445625,
          "value": 0.44140625
        },
        {
          "ticks": 61415,
          "time": 118.10577907291666,
          "value": 0.4658203125
        },
        {
          "ticks": 61422,
          "time": 118.1192406125,
          "value": 0.4903564453125
        },
        {
          "ticks": 61430,
          "time": 118.13462522916666,
          "value": 0.514892578125
        },
        {
          "ticks": 61437,
          "time": 118.14808676874999,
          "value": 0.5394287109375
        },
        {
          "ticks": 61445,
          "time": 118.16347138541664,
          "value": 0.56396484375
        },
        {
          "ticks": 61452,
          "time": 118.176932925,
          "value": 0.5885009765625
        },
        {
          "ticks": 61460,
          "time": 118.19231754166665,
          "value": 0.613037109375
        },
        {
          "ticks": 61467,
          "time": 118.20577908125,
          "value": 0.6375732421875
        },
        {
          "ticks": 61475,
          "time": 118.22116369791665,
          "value": 0.662109375
        },
        {
          "ticks": 61482,
          "time": 118.2346252375,
          "value": 0.6866455078125
        },
        {
          "ticks": 61490,
          "time": 118.25000985416665,
          "value": 0.7110595703125
        },
        {
          "ticks": 61496,
          "time": 118.26154831666666,
          "value": 0.732421875
        },
        {
          "ticks": 61504,
          "time": 118.27693293333331,
          "value": 0.7803955078125
        },
        {
          "ticks": 61511,
          "time": 118.29039447291666,
          "value": 0.8284912109375
        },
        {
          "ticks": 61519,
          "time": 118.30577908958331,
          "value": 0.8765869140625
        },
        {
          "ticks": 61526,
          "time": 118.31924062916666,
          "value": 0.9246826171875
        },
        {
          "ticks": 61534,
          "time": 118.33462524583332,
          "value": 0.97265625
        },
        {
          "ticks": 61536,
          "time": 118.33847139999997,
          "value": 0.98876953125
        },
        {
          "ticks": 61544,
          "time": 118.35385601666665,
          "value": 0.91162109375
        },
        {
          "ticks": 61551,
          "time": 118.36731755624999,
          "value": 0.8343505859375
        },
        {
          "ticks": 61559,
          "time": 118.38270217291665,
          "value": 0.757080078125
        },
        {
          "ticks": 61566,
          "time": 118.39616371249998,
          "value": 0.6798095703125
        },
        {
          "ticks": 61574,
          "time": 118.41154832916666,
          "value": 0.6025390625
        },
        {
          "ticks": 61581,
          "time": 118.42500986874998,
          "value": 0.525390625
        },
        {
          "ticks": 61589,
          "time": 118.44039448541666,
          "value": 0.4481201171875
        },
        {
          "ticks": 61596,
          "time": 118.45385602499998,
          "value": 0.370849609375
        },
        {
          "ticks": 61604,
          "time": 118.46924064166666,
          "value": 0.2935791015625
        },
        {
          "ticks": 61611,
          "time": 118.48270218124998,
          "value": 0.21630859375
        },
        {
          "ticks": 61619,
          "time": 118.49808679791666,
          "value": 0.13916015625
        },
        {
          "ticks": 61626,
          "time": 118.51154833749997,
          "value": 0.0618896484375
        },
        {
          "ticks": 61632,
          "time": 118.5230868,
          "value": 0
        },
        {
          "ticks": 61640,
          "time": 118.53847141666665,
          "value": -0.0030517578125
        },
        {
          "ticks": 61647,
          "time": 118.55193295625,
          "value": -0.006103515625
        },
        {
          "ticks": 61655,
          "time": 118.56731757291665,
          "value": -0.0091552734375
        },
        {
          "ticks": 61662,
          "time": 118.5807791125,
          "value": -0.01220703125
        },
        {
          "ticks": 61670,
          "time": 118.59616372916665,
          "value": -0.0152587890625
        },
        {
          "ticks": 61677,
          "time": 118.60962526875,
          "value": -0.018310546875
        },
        {
          "ticks": 61685,
          "time": 118.62500988541665,
          "value": -0.0213623046875
        },
        {
          "ticks": 61692,
          "time": 118.63847142499999,
          "value": -0.0244140625
        },
        {
          "ticks": 61700,
          "time": 118.65385604166664,
          "value": -0.0274658203125
        },
        {
          "ticks": 61707,
          "time": 118.66731758124999,
          "value": -0.030517578125
        },
        {
          "ticks": 61715,
          "time": 118.68270219791665,
          "value": -0.0335693359375
        },
        {
          "ticks": 61722,
          "time": 118.6961637375,
          "value": -0.03662109375
        },
        {
          "ticks": 61730,
          "time": 118.71154835416665,
          "value": -0.0396728515625
        },
        {
          "ticks": 61737,
          "time": 118.72500989375,
          "value": -0.042724609375
        },
        {
          "ticks": 61745,
          "time": 118.74039451041665,
          "value": -0.0457763671875
        },
        {
          "ticks": 61752,
          "time": 118.75385605,
          "value": -0.048828125
        },
        {
          "ticks": 61760,
          "time": 118.76924066666665,
          "value": -0.0518798828125
        },
        {
          "ticks": 61767,
          "time": 118.78270220625,
          "value": -0.054931640625
        },
        {
          "ticks": 61775,
          "time": 118.79808682291664,
          "value": -0.0579833984375
        },
        {
          "ticks": 61782,
          "time": 118.81154836249999,
          "value": -0.06103515625
        },
        {
          "ticks": 61790,
          "time": 118.82693297916664,
          "value": -0.0640869140625
        },
        {
          "ticks": 61797,
          "time": 118.84039451874999,
          "value": -0.067138671875
        },
        {
          "ticks": 61805,
          "time": 118.85577913541665,
          "value": -0.0701904296875
        },
        {
          "ticks": 61812,
          "time": 118.869240675,
          "value": -0.0732421875
        },
        {
          "ticks": 61820,
          "time": 118.88462529166665,
          "value": -0.0762939453125
        },
        {
          "ticks": 61827,
          "time": 118.89808683125,
          "value": -0.079345703125
        },
        {
          "ticks": 61835,
          "time": 118.91347144791665,
          "value": -0.0823974609375
        },
        {
          "ticks": 61842,
          "time": 118.9269329875,
          "value": -0.08544921875
        },
        {
          "ticks": 61850,
          "time": 118.94231760416665,
          "value": -0.0885009765625
        },
        {
          "ticks": 61857,
          "time": 118.95577914375,
          "value": -0.091552734375
        },
        {
          "ticks": 61865,
          "time": 118.97116376041664,
          "value": -0.0946044921875
        },
        {
          "ticks": 61872,
          "time": 118.98462529999999,
          "value": -0.09765625
        },
        {
          "ticks": 61880,
          "time": 119.00000991666664,
          "value": -0.1007080078125
        },
        {
          "ticks": 61887,
          "time": 119.01347145625,
          "value": -0.103759765625
        },
        {
          "ticks": 61895,
          "time": 119.02885607291665,
          "value": -0.1068115234375
        },
        {
          "ticks": 61902,
          "time": 119.0423176125,
          "value": -0.10986328125
        },
        {
          "ticks": 61910,
          "time": 119.05770222916665,
          "value": -0.1129150390625
        },
        {
          "ticks": 61917,
          "time": 119.07116376875,
          "value": -0.115966796875
        },
        {
          "ticks": 61925,
          "time": 119.08654838541665,
          "value": -0.1190185546875
        },
        {
          "ticks": 61932,
          "time": 119.100009925,
          "value": -0.1220703125
        },
        {
          "ticks": 61940,
          "time": 119.11539454166665,
          "value": -0.1251220703125
        },
        {
          "ticks": 61947,
          "time": 119.12885608124999,
          "value": -0.128173828125
        },
        {
          "ticks": 61955,
          "time": 119.14424069791664,
          "value": -0.1312255859375
        },
        {
          "ticks": 61962,
          "time": 119.15770223749999,
          "value": -0.13427734375
        },
        {
          "ticks": 61970,
          "time": 119.17308685416666,
          "value": -0.1373291015625
        },
        {
          "ticks": 61977,
          "time": 119.18654839375,
          "value": -0.140380859375
        },
        {
          "ticks": 61985,
          "time": 119.20193301041665,
          "value": -0.1434326171875
        },
        {
          "ticks": 61992,
          "time": 119.21539455,
          "value": -0.146484375
        },
        {
          "ticks": 62000,
          "time": 119.23077916666665,
          "value": -0.1495361328125
        },
        {
          "ticks": 62007,
          "time": 119.24424070625,
          "value": -0.152587890625
        },
        {
          "ticks": 62015,
          "time": 119.25962532291665,
          "value": -0.1556396484375
        },
        {
          "ticks": 62022,
          "time": 119.2730868625,
          "value": -0.15869140625
        },
        {
          "ticks": 62030,
          "time": 119.28847147916665,
          "value": -0.1617431640625
        },
        {
          "ticks": 62037,
          "time": 119.30193301874999,
          "value": -0.164794921875
        },
        {
          "ticks": 62045,
          "time": 119.31731763541664,
          "value": -0.1678466796875
        },
        {
          "ticks": 62052,
          "time": 119.33077917499999,
          "value": -0.1708984375
        },
        {
          "ticks": 62060,
          "time": 119.34616379166665,
          "value": -0.1739501953125
        },
        {
          "ticks": 62067,
          "time": 119.35962533125,
          "value": -0.177001953125
        },
        {
          "ticks": 62075,
          "time": 119.37500994791665,
          "value": -0.1800537109375
        },
        {
          "ticks": 62082,
          "time": 119.3884714875,
          "value": -0.18310546875
        },
        {
          "ticks": 62090,
          "time": 119.40385610416665,
          "value": -0.1861572265625
        },
        {
          "ticks": 62097,
          "time": 119.41731764375,
          "value": -0.189208984375
        },
        {
          "ticks": 62105,
          "time": 119.43270226041665,
          "value": -0.1922607421875
        },
        {
          "ticks": 62112,
          "time": 119.4461638,
          "value": -0.1953125
        },
        {
          "ticks": 62120,
          "time": 119.46154841666664,
          "value": -0.1983642578125
        },
        {
          "ticks": 62127,
          "time": 119.47500995624999,
          "value": -0.201416015625
        },
        {
          "ticks": 62135,
          "time": 119.49039457291664,
          "value": -0.2044677734375
        },
        {
          "ticks": 62142,
          "time": 119.50385611249999,
          "value": -0.20751953125
        },
        {
          "ticks": 62150,
          "time": 119.51924072916665,
          "value": -0.2105712890625
        },
        {
          "ticks": 62157,
          "time": 119.53270226875,
          "value": -0.213623046875
        },
        {
          "ticks": 62165,
          "time": 119.54808688541665,
          "value": -0.2166748046875
        },
        {
          "ticks": 62172,
          "time": 119.561548425,
          "value": -0.2197265625
        },
        {
          "ticks": 62180,
          "time": 119.57693304166665,
          "value": -0.2227783203125
        },
        {
          "ticks": 62187,
          "time": 119.59039458125,
          "value": -0.225830078125
        },
        {
          "ticks": 62195,
          "time": 119.60577919791665,
          "value": -0.2288818359375
        },
        {
          "ticks": 62202,
          "time": 119.6192407375,
          "value": -0.23193359375
        },
        {
          "ticks": 62210,
          "time": 119.63462535416664,
          "value": -0.2349853515625
        },
        {
          "ticks": 62217,
          "time": 119.64808689374999,
          "value": -0.238037109375
        },
        {
          "ticks": 62225,
          "time": 119.66347151041664,
          "value": -0.2410888671875
        },
        {
          "ticks": 62232,
          "time": 119.67693305,
          "value": -0.244140625
        },
        {
          "ticks": 62240,
          "time": 119.69231766666665,
          "value": -0.2327880859375
        },
        {
          "ticks": 62247,
          "time": 119.70577920625,
          "value": -0.2213134765625
        },
        {
          "ticks": 62255,
          "time": 119.72116382291665,
          "value": -0.2098388671875
        },
        {
          "ticks": 62262,
          "time": 119.7346253625,
          "value": -0.1983642578125
        },
        {
          "ticks": 62270,
          "time": 119.75000997916665,
          "value": -0.18701171875
        },
        {
          "ticks": 62277,
          "time": 119.76347151875,
          "value": -0.175537109375
        },
        {
          "ticks": 62285,
          "time": 119.77885613541665,
          "value": -0.1640625
        },
        {
          "ticks": 62292,
          "time": 119.79231767499999,
          "value": -0.152587890625
        },
        {
          "ticks": 62300,
          "time": 119.80770229166664,
          "value": -0.1412353515625
        },
        {
          "ticks": 62307,
          "time": 119.82116383124999,
          "value": -0.1297607421875
        },
        {
          "ticks": 62315,
          "time": 119.83654844791664,
          "value": -0.1182861328125
        },
        {
          "ticks": 62322,
          "time": 119.8500099875,
          "value": -0.1068115234375
        },
        {
          "ticks": 62330,
          "time": 119.86539460416665,
          "value": -0.095458984375
        },
        {
          "ticks": 62337,
          "time": 119.87885614375,
          "value": -0.083984375
        },
        {
          "ticks": 62345,
          "time": 119.89424076041665,
          "value": -0.072509765625
        },
        {
          "ticks": 62352,
          "time": 119.9077023,
          "value": -0.06103515625
        },
        {
          "ticks": 62360,
          "time": 119.92308691666665,
          "value": -0.0496826171875
        },
        {
          "ticks": 62367,
          "time": 119.93654845625,
          "value": -0.0382080078125
        },
        {
          "ticks": 62375,
          "time": 119.95193307291665,
          "value": -0.0267333984375
        },
        {
          "ticks": 62382,
          "time": 119.96539461249999,
          "value": -0.0152587890625
        },
        {
          "ticks": 62390,
          "time": 119.98077922916664,
          "value": -0.00390625
        },
        {
          "ticks": 62392,
          "time": 119.98462538333331,
          "value": 0
        },
        {
          "ticks": 62400,
          "time": 120.00000999999999,
          "value": 0.014892578125
        },
        {
          "ticks": 62407,
          "time": 120.0134715395833,
          "value": 0.02978515625
        },
        {
          "ticks": 62415,
          "time": 120.02885615624999,
          "value": 0.044677734375
        },
        {
          "ticks": 62422,
          "time": 120.0423176958333,
          "value": 0.0596923828125
        },
        {
          "ticks": 62430,
          "time": 120.05770231249998,
          "value": 0.0745849609375
        },
        {
          "ticks": 62437,
          "time": 120.07116385208332,
          "value": 0.0894775390625
        },
        {
          "ticks": 62445,
          "time": 120.08654846875,
          "value": 0.1043701171875
        },
        {
          "ticks": 62452,
          "time": 120.10001000833331,
          "value": 0.119384765625
        },
        {
          "ticks": 62460,
          "time": 120.115394625,
          "value": 0.13427734375
        },
        {
          "ticks": 62467,
          "time": 120.12885616458331,
          "value": 0.149169921875
        },
        {
          "ticks": 62475,
          "time": 120.14424078124999,
          "value": 0.1641845703125
        },
        {
          "ticks": 62482,
          "time": 120.15770232083331,
          "value": 0.1790771484375
        },
        {
          "ticks": 62490,
          "time": 120.17308693749999,
          "value": 0.1939697265625
        },
        {
          "ticks": 62497,
          "time": 120.1865484770833,
          "value": 0.2088623046875
        },
        {
          "ticks": 62505,
          "time": 120.20193309374999,
          "value": 0.223876953125
        },
        {
          "ticks": 62512,
          "time": 120.21539463333332,
          "value": 0.23876953125
        },
        {
          "ticks": 62520,
          "time": 120.23077924999998,
          "value": 0.253662109375
        },
        {
          "ticks": 62527,
          "time": 120.24424078958332,
          "value": 0.2686767578125
        },
        {
          "ticks": 62535,
          "time": 120.25962540625,
          "value": 0.2835693359375
        },
        {
          "ticks": 62542,
          "time": 120.27308694583331,
          "value": 0.2984619140625
        },
        {
          "ticks": 62550,
          "time": 120.28847156249999,
          "value": 0.3133544921875
        },
        {
          "ticks": 62557,
          "time": 120.30193310208331,
          "value": 0.328369140625
        },
        {
          "ticks": 62565,
          "time": 120.31731771874999,
          "value": 0.34326171875
        },
        {
          "ticks": 62572,
          "time": 120.33077925833331,
          "value": 0.358154296875
        },
        {
          "ticks": 62576,
          "time": 120.33847156666667,
          "value": 0.3662109375
        },
        {
          "ticks": 62584,
          "time": 120.35385618333332,
          "value": 0.0802001953125
        },
        {
          "ticks": 62591,
          "time": 120.36731772291667,
          "value": -0.2059326171875
        },
        {
          "ticks": 62592,
          "time": 120.3692408,
          "value": -0.244140625
        },
        {
          "ticks": 62600,
          "time": 120.38462541666665,
          "value": -0.2327880859375
        },
        {
          "ticks": 62607,
          "time": 120.39808695625,
          "value": -0.2213134765625
        },
        {
          "ticks": 62615,
          "time": 120.41347157291665,
          "value": -0.2098388671875
        },
        {
          "ticks": 62622,
          "time": 120.4269331125,
          "value": -0.1983642578125
        },
        {
          "ticks": 62630,
          "time": 120.44231772916665,
          "value": -0.18701171875
        },
        {
          "ticks": 62637,
          "time": 120.45577926874999,
          "value": -0.175537109375
        },
        {
          "ticks": 62645,
          "time": 120.47116388541664,
          "value": -0.1640625
        },
        {
          "ticks": 62652,
          "time": 120.48462542499999,
          "value": -0.152587890625
        },
        {
          "ticks": 62660,
          "time": 120.50001004166664,
          "value": -0.1412353515625
        },
        {
          "ticks": 62667,
          "time": 120.51347158125,
          "value": -0.1297607421875
        },
        {
          "ticks": 62675,
          "time": 120.52885619791665,
          "value": -0.1182861328125
        },
        {
          "ticks": 62682,
          "time": 120.5423177375,
          "value": -0.1068115234375
        },
        {
          "ticks": 62690,
          "time": 120.55770235416665,
          "value": -0.095458984375
        },
        {
          "ticks": 62697,
          "time": 120.57116389375,
          "value": -0.083984375
        },
        {
          "ticks": 62705,
          "time": 120.58654851041665,
          "value": -0.072509765625
        },
        {
          "ticks": 62712,
          "time": 120.60001005,
          "value": -0.06103515625
        },
        {
          "ticks": 62720,
          "time": 120.61539466666665,
          "value": -0.0496826171875
        },
        {
          "ticks": 62727,
          "time": 120.62885620624999,
          "value": -0.0382080078125
        },
        {
          "ticks": 62735,
          "time": 120.64424082291664,
          "value": -0.0267333984375
        },
        {
          "ticks": 62742,
          "time": 120.65770236249999,
          "value": -0.0152587890625
        },
        {
          "ticks": 62750,
          "time": 120.67308697916665,
          "value": -0.00390625
        },
        {
          "ticks": 62752,
          "time": 120.6769331333333,
          "value": 0
        },
        {
          "ticks": 62760,
          "time": 120.69231774999999,
          "value": 0.0023193359375
        },
        {
          "ticks": 62767,
          "time": 120.7057792895833,
          "value": 0.0047607421875
        },
        {
          "ticks": 62775,
          "time": 120.72116390624998,
          "value": 0.007080078125
        },
        {
          "ticks": 62782,
          "time": 120.73462544583332,
          "value": 0.009521484375
        },
        {
          "ticks": 62790,
          "time": 120.7500100625,
          "value": 0.0118408203125
        },
        {
          "ticks": 62797,
          "time": 120.76347160208331,
          "value": 0.0142822265625
        },
        {
          "ticks": 62805,
          "time": 120.77885621875,
          "value": 0.0166015625
        },
        {
          "ticks": 62812,
          "time": 120.79231775833331,
          "value": 0.01904296875
        },
        {
          "ticks": 62820,
          "time": 120.80770237499999,
          "value": 0.0213623046875
        },
        {
          "ticks": 62827,
          "time": 120.82116391458331,
          "value": 0.0238037109375
        },
        {
          "ticks": 62835,
          "time": 120.83654853124999,
          "value": 0.026123046875
        },
        {
          "ticks": 62842,
          "time": 120.8500100708333,
          "value": 0.028564453125
        },
        {
          "ticks": 62850,
          "time": 120.86539468749999,
          "value": 0.0308837890625
        },
        {
          "ticks": 62857,
          "time": 120.87885622708332,
          "value": 0.0333251953125
        },
        {
          "ticks": 62865,
          "time": 120.89424084374998,
          "value": 0.0357666015625
        },
        {
          "ticks": 62872,
          "time": 120.90770238333332,
          "value": 0.0380859375
        },
        {
          "ticks": 62880,
          "time": 120.923087,
          "value": 0.04052734375
        },
        {
          "ticks": 62887,
          "time": 120.93654853958331,
          "value": 0.0428466796875
        },
        {
          "ticks": 62895,
          "time": 120.95193315624999,
          "value": 0.0452880859375
        },
        {
          "ticks": 62902,
          "time": 120.96539469583331,
          "value": 0.047607421875
        },
        {
          "ticks": 62910,
          "time": 120.98077931249999,
          "value": 0.050048828125
        },
        {
          "ticks": 62917,
          "time": 120.99424085208331,
          "value": 0.0523681640625
        },
        {
          "ticks": 62925,
          "time": 121.00962546874999,
          "value": 0.0548095703125
        },
        {
          "ticks": 62932,
          "time": 121.0230870083333,
          "value": 0.05712890625
        },
        {
          "ticks": 62940,
          "time": 121.03847162499999,
          "value": 0.0595703125
        },
        {
          "ticks": 62947,
          "time": 121.05193316458332,
          "value": 0.0618896484375
        },
        {
          "ticks": 62955,
          "time": 121.06731778125,
          "value": 0.0643310546875
        },
        {
          "ticks": 62962,
          "time": 121.08077932083332,
          "value": 0.066650390625
        },
        {
          "ticks": 62970,
          "time": 121.0961639375,
          "value": 0.069091796875
        },
        {
          "ticks": 62977,
          "time": 121.10962547708331,
          "value": 0.071533203125
        },
        {
          "ticks": 62985,
          "time": 121.12501009374999,
          "value": 0.0738525390625
        },
        {
          "ticks": 62992,
          "time": 121.13847163333331,
          "value": 0.0762939453125
        },
        {
          "ticks": 63000,
          "time": 121.15385624999999,
          "value": 0.07861328125
        },
        {
          "ticks": 63007,
          "time": 121.16731778958331,
          "value": 0.0810546875
        },
        {
          "ticks": 63015,
          "time": 121.18270240624999,
          "value": 0.0833740234375
        },
        {
          "ticks": 63022,
          "time": 121.1961639458333,
          "value": 0.0858154296875
        },
        {
          "ticks": 63030,
          "time": 121.21154856249998,
          "value": 0.088134765625
        },
        {
          "ticks": 63037,
          "time": 121.22501010208332,
          "value": 0.090576171875
        },
        {
          "ticks": 63045,
          "time": 121.24039471875,
          "value": 0.0928955078125
        },
        {
          "ticks": 63052,
          "time": 121.25385625833331,
          "value": 0.0953369140625
        },
        {
          "ticks": 63060,
          "time": 121.269240875,
          "value": 0.09765625
        },
        {
          "ticks": 63067,
          "time": 121.28270241458331,
          "value": 0.10009765625
        },
        {
          "ticks": 63075,
          "time": 121.29808703124999,
          "value": 0.1024169921875
        },
        {
          "ticks": 63082,
          "time": 121.31154857083331,
          "value": 0.1048583984375
        },
        {
          "ticks": 63090,
          "time": 121.32693318749999,
          "value": 0.1072998046875
        },
        {
          "ticks": 63097,
          "time": 121.34039472708331,
          "value": 0.109619140625
        },
        {
          "ticks": 63105,
          "time": 121.35577934374999,
          "value": 0.112060546875
        },
        {
          "ticks": 63112,
          "time": 121.3692408833333,
          "value": 0.1143798828125
        },
        {
          "ticks": 63120,
          "time": 121.38462549999998,
          "value": 0.1168212890625
        },
        {
          "ticks": 63127,
          "time": 121.39808703958332,
          "value": 0.119140625
        },
        {
          "ticks": 63135,
          "time": 121.41347165625,
          "value": 0.12158203125
        },
        {
          "ticks": 63142,
          "time": 121.42693319583331,
          "value": 0.1239013671875
        },
        {
          "ticks": 63150,
          "time": 121.4423178125,
          "value": 0.1263427734375
        },
        {
          "ticks": 63157,
          "time": 121.45577935208331,
          "value": 0.128662109375
        },
        {
          "ticks": 63165,
          "time": 121.47116396874999,
          "value": 0.131103515625
        },
        {
          "ticks": 63172,
          "time": 121.48462550833331,
          "value": 0.1334228515625
        },
        {
          "ticks": 63180,
          "time": 121.50001012499999,
          "value": 0.1358642578125
        },
        {
          "ticks": 63187,
          "time": 121.5134716645833,
          "value": 0.13818359375
        },
        {
          "ticks": 63195,
          "time": 121.52885628124999,
          "value": 0.140625
        },
        {
          "ticks": 63202,
          "time": 121.54231782083332,
          "value": 0.14306640625
        },
        {
          "ticks": 63210,
          "time": 121.55770243749998,
          "value": 0.1453857421875
        },
        {
          "ticks": 63217,
          "time": 121.57116397708332,
          "value": 0.1478271484375
        },
        {
          "ticks": 63225,
          "time": 121.58654859375,
          "value": 0.150146484375
        },
        {
          "ticks": 63232,
          "time": 121.60001013333331,
          "value": 0.152587890625
        },
        {
          "ticks": 63240,
          "time": 121.61539475,
          "value": 0.1549072265625
        },
        {
          "ticks": 63247,
          "time": 121.62885628958331,
          "value": 0.1573486328125
        },
        {
          "ticks": 63255,
          "time": 121.64424090624999,
          "value": 0.15966796875
        },
        {
          "ticks": 63262,
          "time": 121.65770244583331,
          "value": 0.162109375
        },
        {
          "ticks": 63270,
          "time": 121.67308706249999,
          "value": 0.1644287109375
        },
        {
          "ticks": 63277,
          "time": 121.6865486020833,
          "value": 0.1668701171875
        },
        {
          "ticks": 63285,
          "time": 121.70193321874999,
          "value": 0.169189453125
        },
        {
          "ticks": 63292,
          "time": 121.71539475833332,
          "value": 0.171630859375
        },
        {
          "ticks": 63300,
          "time": 121.73077937499998,
          "value": 0.174072265625
        },
        {
          "ticks": 63307,
          "time": 121.74424091458332,
          "value": 0.1763916015625
        },
        {
          "ticks": 63315,
          "time": 121.75962553125,
          "value": 0.1788330078125
        },
        {
          "ticks": 63322,
          "time": 121.77308707083331,
          "value": 0.18115234375
        },
        {
          "ticks": 63330,
          "time": 121.78847168749999,
          "value": 0.18359375
        },
        {
          "ticks": 63337,
          "time": 121.80193322708331,
          "value": 0.1859130859375
        },
        {
          "ticks": 63345,
          "time": 121.81731784374999,
          "value": 0.1883544921875
        },
        {
          "ticks": 63352,
          "time": 121.83077938333331,
          "value": 0.190673828125
        },
        {
          "ticks": 63360,
          "time": 121.84616399999999,
          "value": 0.193115234375
        },
        {
          "ticks": 63367,
          "time": 121.8596255395833,
          "value": 0.1954345703125
        },
        {
          "ticks": 63375,
          "time": 121.87501015624999,
          "value": 0.1978759765625
        },
        {
          "ticks": 63382,
          "time": 121.88847169583332,
          "value": 0.2001953125
        },
        {
          "ticks": 63390,
          "time": 121.9038563125,
          "value": 0.20263671875
        },
        {
          "ticks": 63397,
          "time": 121.91731785208331,
          "value": 0.2049560546875
        },
        {
          "ticks": 63405,
          "time": 121.93270246875,
          "value": 0.2073974609375
        },
        {
          "ticks": 63412,
          "time": 121.94616400833331,
          "value": 0.2098388671875
        },
        {
          "ticks": 63420,
          "time": 121.96154862499999,
          "value": 0.212158203125
        },
        {
          "ticks": 63427,
          "time": 121.97501016458331,
          "value": 0.214599609375
        },
        {
          "ticks": 63435,
          "time": 121.99039478124999,
          "value": 0.2169189453125
        },
        {
          "ticks": 63442,
          "time": 122.00385632083331,
          "value": 0.2193603515625
        },
        {
          "ticks": 63450,
          "time": 122.01924093749999,
          "value": 0.2216796875
        },
        {
          "ticks": 63457,
          "time": 122.0327024770833,
          "value": 0.22412109375
        },
        {
          "ticks": 63465,
          "time": 122.04808709374998,
          "value": 0.2264404296875
        },
        {
          "ticks": 63472,
          "time": 122.06154863333332,
          "value": 0.2288818359375
        },
        {
          "ticks": 63480,
          "time": 122.07693325,
          "value": 0.231201171875
        },
        {
          "ticks": 63487,
          "time": 122.09039478958331,
          "value": 0.233642578125
        },
        {
          "ticks": 63495,
          "time": 122.10577940625,
          "value": 0.2359619140625
        },
        {
          "ticks": 63502,
          "time": 122.11924094583331,
          "value": 0.2384033203125
        },
        {
          "ticks": 63510,
          "time": 122.13462556249999,
          "value": 0.24072265625
        },
        {
          "ticks": 63517,
          "time": 122.14808710208331,
          "value": 0.2431640625
        },
        {
          "ticks": 63525,
          "time": 122.16347171874999,
          "value": 0.24560546875
        },
        {
          "ticks": 63532,
          "time": 122.1769332583333,
          "value": 0.2479248046875
        },
        {
          "ticks": 63540,
          "time": 122.19231787499999,
          "value": 0.2503662109375
        },
        {
          "ticks": 63547,
          "time": 122.2057794145833,
          "value": 0.252685546875
        },
        {
          "ticks": 63555,
          "time": 122.22116403124998,
          "value": 0.255126953125
        },
        {
          "ticks": 63562,
          "time": 122.23462557083332,
          "value": 0.2574462890625
        },
        {
          "ticks": 63570,
          "time": 122.2500101875,
          "value": 0.2598876953125
        },
        {
          "ticks": 63577,
          "time": 122.26347172708331,
          "value": 0.26220703125
        },
        {
          "ticks": 63585,
          "time": 122.27885634375,
          "value": 0.2646484375
        },
        {
          "ticks": 63592,
          "time": 122.29231788333331,
          "value": 0.2669677734375
        },
        {
          "ticks": 63600,
          "time": 122.30770249999999,
          "value": 0.2694091796875
        },
        {
          "ticks": 63607,
          "time": 122.32116403958331,
          "value": 0.271728515625
        },
        {
          "ticks": 63615,
          "time": 122.33654865624999,
          "value": 0.274169921875
        },
        {
          "ticks": 63622,
          "time": 122.3500101958333,
          "value": 0.2764892578125
        },
        {
          "ticks": 63630,
          "time": 122.36539481249999,
          "value": 0.2789306640625
        },
        {
          "ticks": 63637,
          "time": 122.37885635208332,
          "value": 0.2813720703125
        },
        {
          "ticks": 63645,
          "time": 122.39424096874998,
          "value": 0.28369140625
        },
        {
          "ticks": 63652,
          "time": 122.40770250833332,
          "value": 0.2861328125
        },
        {
          "ticks": 63660,
          "time": 122.423087125,
          "value": 0.2884521484375
        },
        {
          "ticks": 63667,
          "time": 122.43654866458331,
          "value": 0.2908935546875
        },
        {
          "ticks": 63675,
          "time": 122.45193328124999,
          "value": 0.293212890625
        },
        {
          "ticks": 63682,
          "time": 122.46539482083331,
          "value": 0.295654296875
        },
        {
          "ticks": 63690,
          "time": 122.48077943749999,
          "value": 0.2979736328125
        },
        {
          "ticks": 63697,
          "time": 122.49424097708331,
          "value": 0.3004150390625
        },
        {
          "ticks": 63705,
          "time": 122.50962559374999,
          "value": 0.302734375
        },
        {
          "ticks": 63712,
          "time": 122.5230871333333,
          "value": 0.30517578125
        },
        {
          "ticks": 63720,
          "time": 122.53847174999999,
          "value": 0.3074951171875
        },
        {
          "ticks": 63727,
          "time": 122.55193328958332,
          "value": 0.3099365234375
        },
        {
          "ticks": 63735,
          "time": 122.56731790625,
          "value": 0.312255859375
        },
        {
          "ticks": 63742,
          "time": 122.58077944583331,
          "value": 0.314697265625
        },
        {
          "ticks": 63750,
          "time": 122.5961640625,
          "value": 0.317138671875
        },
        {
          "ticks": 63757,
          "time": 122.60962560208331,
          "value": 0.3194580078125
        },
        {
          "ticks": 63765,
          "time": 122.62501021874999,
          "value": 0.3218994140625
        },
        {
          "ticks": 63772,
          "time": 122.63847175833331,
          "value": 0.32421875
        },
        {
          "ticks": 63780,
          "time": 122.65385637499999,
          "value": 0.32666015625
        },
        {
          "ticks": 63787,
          "time": 122.66731791458331,
          "value": 0.3289794921875
        },
        {
          "ticks": 63795,
          "time": 122.68270253124999,
          "value": 0.3314208984375
        },
        {
          "ticks": 63802,
          "time": 122.6961640708333,
          "value": 0.333740234375
        },
        {
          "ticks": 63810,
          "time": 122.71154868749998,
          "value": 0.336181640625
        },
        {
          "ticks": 63817,
          "time": 122.72501022708332,
          "value": 0.3385009765625
        },
        {
          "ticks": 63825,
          "time": 122.74039484375,
          "value": 0.3409423828125
        },
        {
          "ticks": 63832,
          "time": 122.75385638333331,
          "value": 0.34326171875
        },
        {
          "ticks": 63840,
          "time": 122.769241,
          "value": 0.345703125
        },
        {
          "ticks": 63847,
          "time": 122.78270253958331,
          "value": 0.34814453125
        },
        {
          "ticks": 63855,
          "time": 122.79808715624999,
          "value": 0.3504638671875
        },
        {
          "ticks": 63862,
          "time": 122.81154869583331,
          "value": 0.3529052734375
        },
        {
          "ticks": 63870,
          "time": 122.82693331249999,
          "value": 0.355224609375
        },
        {
          "ticks": 63877,
          "time": 122.8403948520833,
          "value": 0.357666015625
        },
        {
          "ticks": 63885,
          "time": 122.85577946874999,
          "value": 0.3599853515625
        },
        {
          "ticks": 63892,
          "time": 122.8692410083333,
          "value": 0.3624267578125
        },
        {
          "ticks": 63900,
          "time": 122.88462562499998,
          "value": 0.36474609375
        },
        {
          "ticks": 63907,
          "time": 122.89808716458332,
          "value": 0.3671875
        },
        {
          "ticks": 63915,
          "time": 122.91347178125,
          "value": 0.3695068359375
        },
        {
          "ticks": 63922,
          "time": 122.92693332083331,
          "value": 0.3719482421875
        },
        {
          "ticks": 63930,
          "time": 122.9423179375,
          "value": 0.374267578125
        },
        {
          "ticks": 63937,
          "time": 122.95577947708331,
          "value": 0.376708984375
        },
        {
          "ticks": 63945,
          "time": 122.97116409374999,
          "value": 0.3790283203125
        },
        {
          "ticks": 63952,
          "time": 122.98462563333331,
          "value": 0.3814697265625
        },
        {
          "ticks": 63960,
          "time": 123.00001024999999,
          "value": 0.3839111328125
        },
        {
          "ticks": 63967,
          "time": 123.0134717895833,
          "value": 0.38623046875
        },
        {
          "ticks": 63975,
          "time": 123.02885640624999,
          "value": 0.388671875
        },
        {
          "ticks": 63982,
          "time": 123.04231794583332,
          "value": 0.3909912109375
        },
        {
          "ticks": 63990,
          "time": 123.05770256249998,
          "value": 0.3934326171875
        },
        {
          "ticks": 63997,
          "time": 123.07116410208332,
          "value": 0.395751953125
        },
        {
          "ticks": 64005,
          "time": 123.08654871875,
          "value": 0.398193359375
        },
        {
          "ticks": 64012,
          "time": 123.10001025833331,
          "value": 0.4005126953125
        },
        {
          "ticks": 64020,
          "time": 123.11539487499999,
          "value": 0.4029541015625
        },
        {
          "ticks": 64027,
          "time": 123.12885641458331,
          "value": 0.4052734375
        },
        {
          "ticks": 64035,
          "time": 123.14424103124999,
          "value": 0.40771484375
        },
        {
          "ticks": 64042,
          "time": 123.15770257083331,
          "value": 0.4100341796875
        },
        {
          "ticks": 64050,
          "time": 123.17308718749999,
          "value": 0.4124755859375
        },
        {
          "ticks": 64057,
          "time": 123.1865487270833,
          "value": 0.414794921875
        },
        {
          "ticks": 64065,
          "time": 123.20193334374999,
          "value": 0.417236328125
        },
        {
          "ticks": 64072,
          "time": 123.21539488333332,
          "value": 0.419677734375
        },
        {
          "ticks": 64080,
          "time": 123.2307795,
          "value": 0.4219970703125
        },
        {
          "ticks": 64087,
          "time": 123.24424103958332,
          "value": 0.4244384765625
        },
        {
          "ticks": 64095,
          "time": 123.25962565625,
          "value": 0.4267578125
        },
        {
          "ticks": 64102,
          "time": 123.27308719583331,
          "value": 0.42919921875
        },
        {
          "ticks": 64110,
          "time": 123.28847181249999,
          "value": 0.4315185546875
        },
        {
          "ticks": 64117,
          "time": 123.30193335208331,
          "value": 0.4339599609375
        },
        {
          "ticks": 64125,
          "time": 123.31731796874999,
          "value": 0.436279296875
        },
        {
          "ticks": 64132,
          "time": 123.33077950833331,
          "value": 0.438720703125
        },
        {
          "ticks": 64140,
          "time": 123.34616412499999,
          "value": 0.4410400390625
        },
        {
          "ticks": 64147,
          "time": 123.3596256645833,
          "value": 0.4434814453125
        },
        {
          "ticks": 64155,
          "time": 123.37501028124998,
          "value": 0.44580078125
        },
        {
          "ticks": 64162,
          "time": 123.38847182083332,
          "value": 0.4482421875
        },
        {
          "ticks": 64170,
          "time": 123.4038564375,
          "value": 0.4505615234375
        },
        {
          "ticks": 64177,
          "time": 123.41731797708331,
          "value": 0.4530029296875
        },
        {
          "ticks": 64185,
          "time": 123.43270259375,
          "value": 0.4554443359375
        },
        {
          "ticks": 64192,
          "time": 123.44616413333331,
          "value": 0.457763671875
        },
        {
          "ticks": 64200,
          "time": 123.46154874999999,
          "value": 0.460205078125
        },
        {
          "ticks": 64207,
          "time": 123.47501028958331,
          "value": 0.4625244140625
        },
        {
          "ticks": 64215,
          "time": 123.49039490624999,
          "value": 0.4649658203125
        },
        {
          "ticks": 64222,
          "time": 123.5038564458333,
          "value": 0.46728515625
        },
        {
          "ticks": 64230,
          "time": 123.51924106249999,
          "value": 0.4697265625
        },
        {
          "ticks": 64237,
          "time": 123.5327026020833,
          "value": 0.4720458984375
        },
        {
          "ticks": 64245,
          "time": 123.54808721874998,
          "value": 0.4744873046875
        },
        {
          "ticks": 64252,
          "time": 123.56154875833332,
          "value": 0.476806640625
        },
        {
          "ticks": 64260,
          "time": 123.576933375,
          "value": 0.479248046875
        },
        {
          "ticks": 64267,
          "time": 123.59039491458331,
          "value": 0.4815673828125
        },
        {
          "ticks": 64275,
          "time": 123.60577953125,
          "value": 0.4840087890625
        },
        {
          "ticks": 64282,
          "time": 123.61924107083331,
          "value": 0.486328125
        },
        {
          "ticks": 64290,
          "time": 123.63462568749999,
          "value": 0.48876953125
        },
        {
          "ticks": 64297,
          "time": 123.64808722708331,
          "value": 0.4912109375
        },
        {
          "ticks": 64305,
          "time": 123.66347184374999,
          "value": 0.4935302734375
        },
        {
          "ticks": 64312,
          "time": 123.6769333833333,
          "value": 0.4959716796875
        },
        {
          "ticks": 64320,
          "time": 123.69231799999999,
          "value": 0.498291015625
        },
        {
          "ticks": 64327,
          "time": 123.70577953958332,
          "value": 0.500732421875
        },
        {
          "ticks": 64335,
          "time": 123.72116415624998,
          "value": 0.5030517578125
        },
        {
          "ticks": 64342,
          "time": 123.73462569583332,
          "value": 0.5054931640625
        },
        {
          "ticks": 64350,
          "time": 123.7500103125,
          "value": 0.5078125
        },
        {
          "ticks": 64357,
          "time": 123.76347185208331,
          "value": 0.51025390625
        },
        {
          "ticks": 64365,
          "time": 123.77885646874999,
          "value": 0.5125732421875
        },
        {
          "ticks": 64372,
          "time": 123.79231800833331,
          "value": 0.5150146484375
        },
        {
          "ticks": 64380,
          "time": 123.80770262499999,
          "value": 0.517333984375
        },
        {
          "ticks": 64387,
          "time": 123.82116416458331,
          "value": 0.519775390625
        },
        {
          "ticks": 64395,
          "time": 123.83654878124999,
          "value": 0.522216796875
        },
        {
          "ticks": 64402,
          "time": 123.8500103208333,
          "value": 0.5245361328125
        },
        {
          "ticks": 64410,
          "time": 123.86539493749999,
          "value": 0.5269775390625
        },
        {
          "ticks": 64417,
          "time": 123.87885647708332,
          "value": 0.529296875
        },
        {
          "ticks": 64425,
          "time": 123.89424109374998,
          "value": 0.53173828125
        },
        {
          "ticks": 64432,
          "time": 123.90770263333332,
          "value": 0.5340576171875
        },
        {
          "ticks": 64440,
          "time": 123.92308725,
          "value": 0.5364990234375
        },
        {
          "ticks": 64447,
          "time": 123.93654878958331,
          "value": 0.538818359375
        },
        {
          "ticks": 64455,
          "time": 123.95193340624999,
          "value": 0.541259765625
        },
        {
          "ticks": 64462,
          "time": 123.96539494583331,
          "value": 0.5435791015625
        },
        {
          "ticks": 64470,
          "time": 123.98077956249999,
          "value": 0.5460205078125
        },
        {
          "ticks": 64477,
          "time": 123.99424110208331,
          "value": 0.54833984375
        },
        {
          "ticks": 64485,
          "time": 124.00962571874999,
          "value": 0.55078125
        },
        {
          "ticks": 64492,
          "time": 124.0230872583333,
          "value": 0.5531005859375
        },
        {
          "ticks": 64500,
          "time": 124.03847187499998,
          "value": 0.5555419921875
        },
        {
          "ticks": 64507,
          "time": 124.05193341458332,
          "value": 0.5579833984375
        },
        {
          "ticks": 64515,
          "time": 124.06731803125,
          "value": 0.560302734375
        },
        {
          "ticks": 64522,
          "time": 124.08077957083331,
          "value": 0.562744140625
        },
        {
          "ticks": 64530,
          "time": 124.0961641875,
          "value": 0.5650634765625
        },
        {
          "ticks": 64537,
          "time": 124.10962572708331,
          "value": 0.5675048828125
        },
        {
          "ticks": 64545,
          "time": 124.12501034374999,
          "value": 0.56982421875
        },
        {
          "ticks": 64552,
          "time": 124.13847188333331,
          "value": 0.572265625
        },
        {
          "ticks": 64560,
          "time": 124.15385649999999,
          "value": 0.5745849609375
        },
        {
          "ticks": 64567,
          "time": 124.16731803958331,
          "value": 0.5770263671875
        },
        {
          "ticks": 64575,
          "time": 124.18270265624999,
          "value": 0.579345703125
        },
        {
          "ticks": 64582,
          "time": 124.1961641958333,
          "value": 0.581787109375
        },
        {
          "ticks": 64590,
          "time": 124.21154881249998,
          "value": 0.5841064453125
        },
        {
          "ticks": 64597,
          "time": 124.22501035208332,
          "value": 0.5865478515625
        },
        {
          "ticks": 64605,
          "time": 124.24039496875,
          "value": 0.5888671875
        },
        {
          "ticks": 64612,
          "time": 124.25385650833331,
          "value": 0.59130859375
        },
        {
          "ticks": 64620,
          "time": 124.269241125,
          "value": 0.59375
        },
        {
          "ticks": 64627,
          "time": 124.28270266458331,
          "value": 0.5960693359375
        },
        {
          "ticks": 64635,
          "time": 124.29808728124999,
          "value": 0.5985107421875
        },
        {
          "ticks": 64642,
          "time": 124.31154882083331,
          "value": 0.600830078125
        },
        {
          "ticks": 64650,
          "time": 124.32693343749999,
          "value": 0.603271484375
        },
        {
          "ticks": 64657,
          "time": 124.3403949770833,
          "value": 0.6055908203125
        },
        {
          "ticks": 64665,
          "time": 124.35577959374999,
          "value": 0.6080322265625
        },
        {
          "ticks": 64672,
          "time": 124.3692411333333,
          "value": 0.6103515625
        },
        {
          "ticks": 64680,
          "time": 124.38462574999998,
          "value": 0.61279296875
        },
        {
          "ticks": 64687,
          "time": 124.39808728958332,
          "value": 0.6151123046875
        },
        {
          "ticks": 64695,
          "time": 124.41347190625,
          "value": 0.6175537109375
        },
        {
          "ticks": 64702,
          "time": 124.42693344583331,
          "value": 0.619873046875
        },
        {
          "ticks": 64710,
          "time": 124.4423180625,
          "value": 0.622314453125
        },
        {
          "ticks": 64717,
          "time": 124.45577960208331,
          "value": 0.6246337890625
        },
        {
          "ticks": 64725,
          "time": 124.47116421874999,
          "value": 0.6270751953125
        },
        {
          "ticks": 64732,
          "time": 124.48462575833331,
          "value": 0.6295166015625
        },
        {
          "ticks": 64740,
          "time": 124.50001037499999,
          "value": 0.6318359375
        },
        {
          "ticks": 64747,
          "time": 124.5134719145833,
          "value": 0.63427734375
        },
        {
          "ticks": 64755,
          "time": 124.52885653124999,
          "value": 0.6365966796875
        },
        {
          "ticks": 64762,
          "time": 124.54231807083332,
          "value": 0.6390380859375
        },
        {
          "ticks": 64770,
          "time": 124.55770268749998,
          "value": 0.641357421875
        },
        {
          "ticks": 64777,
          "time": 124.57116422708332,
          "value": 0.643798828125
        },
        {
          "ticks": 64785,
          "time": 124.58654884375,
          "value": 0.6461181640625
        },
        {
          "ticks": 64792,
          "time": 124.60001038333331,
          "value": 0.6485595703125
        },
        {
          "ticks": 64800,
          "time": 124.61539499999999,
          "value": 0.65087890625
        },
        {
          "ticks": 64807,
          "time": 124.62885653958331,
          "value": 0.6533203125
        },
        {
          "ticks": 64815,
          "time": 124.64424115624999,
          "value": 0.6556396484375
        },
        {
          "ticks": 64822,
          "time": 124.65770269583331,
          "value": 0.6580810546875
        },
        {
          "ticks": 64830,
          "time": 124.67308731249999,
          "value": 0.660400390625
        },
        {
          "ticks": 64837,
          "time": 124.6865488520833,
          "value": 0.662841796875
        },
        {
          "ticks": 64845,
          "time": 124.70193346874998,
          "value": 0.665283203125
        },
        {
          "ticks": 64852,
          "time": 124.71539500833332,
          "value": 0.6676025390625
        },
        {
          "ticks": 64860,
          "time": 124.730779625,
          "value": 0.6700439453125
        },
        {
          "ticks": 64867,
          "time": 124.74424116458331,
          "value": 0.67236328125
        },
        {
          "ticks": 64875,
          "time": 124.75962578125,
          "value": 0.6748046875
        },
        {
          "ticks": 64882,
          "time": 124.77308732083331,
          "value": 0.6771240234375
        },
        {
          "ticks": 64890,
          "time": 124.78847193749999,
          "value": 0.6795654296875
        },
        {
          "ticks": 64897,
          "time": 124.80193347708331,
          "value": 0.681884765625
        },
        {
          "ticks": 64905,
          "time": 124.81731809374999,
          "value": 0.684326171875
        },
        {
          "ticks": 64912,
          "time": 124.83077963333331,
          "value": 0.6866455078125
        },
        {
          "ticks": 64920,
          "time": 124.84616424999999,
          "value": 0.6890869140625
        },
        {
          "ticks": 64927,
          "time": 124.8596257895833,
          "value": 0.69140625
        },
        {
          "ticks": 64935,
          "time": 124.87501040624998,
          "value": 0.69384765625
        },
        {
          "ticks": 64942,
          "time": 124.88847194583332,
          "value": 0.6962890625
        },
        {
          "ticks": 64950,
          "time": 124.9038565625,
          "value": 0.6986083984375
        },
        {
          "ticks": 64957,
          "time": 124.91731810208331,
          "value": 0.7010498046875
        },
        {
          "ticks": 64965,
          "time": 124.93270271875,
          "value": 0.703369140625
        },
        {
          "ticks": 64972,
          "time": 124.94616425833331,
          "value": 0.705810546875
        },
        {
          "ticks": 64980,
          "time": 124.96154887499999,
          "value": 0.7081298828125
        },
        {
          "ticks": 64987,
          "time": 124.97501041458331,
          "value": 0.7105712890625
        },
        {
          "ticks": 64995,
          "time": 124.99039503124999,
          "value": 0.712890625
        },
        {
          "ticks": 65002,
          "time": 125.0038565708333,
          "value": 0.71533203125
        },
        {
          "ticks": 65010,
          "time": 125.01924118749999,
          "value": 0.7176513671875
        },
        {
          "ticks": 65017,
          "time": 125.0327027270833,
          "value": 0.7200927734375
        },
        {
          "ticks": 65025,
          "time": 125.04808734374998,
          "value": 0.722412109375
        },
        {
          "ticks": 65028,
          "time": 125.05385657499998,
          "value": 0.7236328125
        },
        {
          "ticks": 65036,
          "time": 125.06924119166666,
          "value": 0.7484130859375
        },
        {
          "ticks": 65043,
          "time": 125.08270273124998,
          "value": 0.7733154296875
        },
        {
          "ticks": 65051,
          "time": 125.09808734791666,
          "value": 0.798095703125
        },
        {
          "ticks": 65058,
          "time": 125.11154888749998,
          "value": 0.822998046875
        },
        {
          "ticks": 65066,
          "time": 125.12693350416666,
          "value": 0.847900390625
        },
        {
          "ticks": 65073,
          "time": 125.14039504374999,
          "value": 0.8726806640625
        },
        {
          "ticks": 65081,
          "time": 125.15577966041667,
          "value": 0.8975830078125
        },
        {
          "ticks": 65088,
          "time": 125.16924119999999,
          "value": 0.9224853515625
        },
        {
          "ticks": 65096,
          "time": 125.18462581666667,
          "value": 0.947265625
        },
        {
          "ticks": 65103,
          "time": 125.19808735624999,
          "value": 0.97216796875
        },
        {
          "ticks": 65108,
          "time": 125.20770274166667,
          "value": 0.98876953125
        },
        {
          "ticks": 65116,
          "time": 125.22308735833332,
          "value": 0.8564453125
        },
        {
          "ticks": 65123,
          "time": 125.23654889791666,
          "value": 0.7239990234375
        },
        {
          "ticks": 65131,
          "time": 125.25193351458333,
          "value": 0.591552734375
        },
        {
          "ticks": 65138,
          "time": 125.26539505416667,
          "value": 0.4591064453125
        },
        {
          "ticks": 65146,
          "time": 125.28077967083333,
          "value": 0.32666015625
        },
        {
          "ticks": 65153,
          "time": 125.29424121041667,
          "value": 0.1943359375
        },
        {
          "ticks": 65160,
          "time": 125.30770274999999,
          "value": 0.0618896484375
        },
        {
          "ticks": 65164,
          "time": 125.31539505833332,
          "value": 0
        },
        {
          "ticks": 65172,
          "time": 125.33077967499999,
          "value": 0.000732421875
        },
        {
          "ticks": 65179,
          "time": 125.34424121458332,
          "value": 0.00146484375
        },
        {
          "ticks": 65187,
          "time": 125.35962583125,
          "value": 0.0023193359375
        },
        {
          "ticks": 65194,
          "time": 125.37308737083332,
          "value": 0.0030517578125
        },
        {
          "ticks": 65202,
          "time": 125.3884719875,
          "value": 0.0037841796875
        },
        {
          "ticks": 65209,
          "time": 125.40193352708332,
          "value": 0.004638671875
        },
        {
          "ticks": 65217,
          "time": 125.41731814375,
          "value": 0.00537109375
        },
        {
          "ticks": 65224,
          "time": 125.43077968333331,
          "value": 0.0062255859375
        },
        {
          "ticks": 65232,
          "time": 125.44616429999999,
          "value": 0.0069580078125
        },
        {
          "ticks": 65239,
          "time": 125.45962583958331,
          "value": 0.0076904296875
        },
        {
          "ticks": 65247,
          "time": 125.47501045624999,
          "value": 0.008544921875
        },
        {
          "ticks": 65254,
          "time": 125.48847199583332,
          "value": 0.00927734375
        },
        {
          "ticks": 65262,
          "time": 125.5038566125,
          "value": 0.0101318359375
        },
        {
          "ticks": 65269,
          "time": 125.51731815208332,
          "value": 0.0108642578125
        },
        {
          "ticks": 65276,
          "time": 125.53077969166667,
          "value": 0.0115966796875
        },
        {
          "ticks": 65284,
          "time": 125.54616430833332,
          "value": 0.012451171875
        },
        {
          "ticks": 65292,
          "time": 125.561548925,
          "value": 0.01318359375
        },
        {
          "ticks": 65299,
          "time": 125.57501046458331,
          "value": 0.013916015625
        },
        {
          "ticks": 65307,
          "time": 125.59039508125,
          "value": 0.0147705078125
        },
        {
          "ticks": 65314,
          "time": 125.60385662083331,
          "value": 0.0155029296875
        },
        {
          "ticks": 65322,
          "time": 125.61924123749999,
          "value": 0.016357421875
        },
        {
          "ticks": 65329,
          "time": 125.63270277708331,
          "value": 0.01708984375
        },
        {
          "ticks": 65337,
          "time": 125.64808739374999,
          "value": 0.017822265625
        },
        {
          "ticks": 65344,
          "time": 125.66154893333332,
          "value": 0.0186767578125
        },
        {
          "ticks": 65352,
          "time": 125.67693355,
          "value": 0.0194091796875
        },
        {
          "ticks": 65359,
          "time": 125.69039508958332,
          "value": 0.020263671875
        },
        {
          "ticks": 65367,
          "time": 125.70577970625,
          "value": 0.02099609375
        },
        {
          "ticks": 65374,
          "time": 125.71924124583332,
          "value": 0.021728515625
        },
        {
          "ticks": 65382,
          "time": 125.7346258625,
          "value": 0.0225830078125
        },
        {
          "ticks": 65389,
          "time": 125.74808740208331,
          "value": 0.0233154296875
        },
        {
          "ticks": 65397,
          "time": 125.76347201875,
          "value": 0.024169921875
        },
        {
          "ticks": 65404,
          "time": 125.77693355833331,
          "value": 0.02490234375
        },
        {
          "ticks": 65412,
          "time": 125.79231817499999,
          "value": 0.025634765625
        },
        {
          "ticks": 65419,
          "time": 125.80577971458331,
          "value": 0.0264892578125
        },
        {
          "ticks": 65427,
          "time": 125.82116433124999,
          "value": 0.0272216796875
        },
        {
          "ticks": 65434,
          "time": 125.83462587083332,
          "value": 0.0279541015625
        },
        {
          "ticks": 65442,
          "time": 125.8500104875,
          "value": 0.02880859375
        },
        {
          "ticks": 65449,
          "time": 125.86347202708332,
          "value": 0.029541015625
        },
        {
          "ticks": 65457,
          "time": 125.87885664375,
          "value": 0.0303955078125
        },
        {
          "ticks": 65464,
          "time": 125.89231818333332,
          "value": 0.0311279296875
        },
        {
          "ticks": 65472,
          "time": 125.9077028,
          "value": 0.0318603515625
        },
        {
          "ticks": 65479,
          "time": 125.92116433958331,
          "value": 0.03271484375
        },
        {
          "ticks": 65487,
          "time": 125.93654895625,
          "value": 0.033447265625
        },
        {
          "ticks": 65494,
          "time": 125.95001049583331,
          "value": 0.0343017578125
        },
        {
          "ticks": 65502,
          "time": 125.96539511249999,
          "value": 0.0350341796875
        },
        {
          "ticks": 65509,
          "time": 125.97885665208332,
          "value": 0.0357666015625
        },
        {
          "ticks": 65517,
          "time": 125.99424126874999,
          "value": 0.03662109375
        },
        {
          "ticks": 65524,
          "time": 126.00770280833332,
          "value": 0.037353515625
        },
        {
          "ticks": 65532,
          "time": 126.023087425,
          "value": 0.0382080078125
        },
        {
          "ticks": 65539,
          "time": 126.03654896458332,
          "value": 0.0389404296875
        },
        {
          "ticks": 65547,
          "time": 126.05193358125,
          "value": 0.0396728515625
        },
        {
          "ticks": 65554,
          "time": 126.06539512083332,
          "value": 0.04052734375
        },
        {
          "ticks": 65562,
          "time": 126.0807797375,
          "value": 0.041259765625
        },
        {
          "ticks": 65569,
          "time": 126.09424127708331,
          "value": 0.0419921875
        },
        {
          "ticks": 65577,
          "time": 126.10962589374999,
          "value": 0.0428466796875
        },
        {
          "ticks": 65584,
          "time": 126.12308743333331,
          "value": 0.0435791015625
        },
        {
          "ticks": 65592,
          "time": 126.13847204999999,
          "value": 0.04443359375
        },
        {
          "ticks": 65599,
          "time": 126.15193358958332,
          "value": 0.045166015625
        },
        {
          "ticks": 65607,
          "time": 126.16731820625,
          "value": 0.0458984375
        },
        {
          "ticks": 65614,
          "time": 126.18077974583332,
          "value": 0.0467529296875
        },
        {
          "ticks": 65622,
          "time": 126.1961643625,
          "value": 0.0474853515625
        },
        {
          "ticks": 65629,
          "time": 126.20962590208332,
          "value": 0.04833984375
        },
        {
          "ticks": 65637,
          "time": 126.22501051875,
          "value": 0.049072265625
        },
        {
          "ticks": 65644,
          "time": 126.23847205833331,
          "value": 0.0498046875
        },
        {
          "ticks": 65652,
          "time": 126.253856675,
          "value": 0.0506591796875
        },
        {
          "ticks": 65659,
          "time": 126.26731821458331,
          "value": 0.0513916015625
        },
        {
          "ticks": 65667,
          "time": 126.28270283124999,
          "value": 0.05224609375
        },
        {
          "ticks": 65674,
          "time": 126.29616437083331,
          "value": 0.052978515625
        },
        {
          "ticks": 65682,
          "time": 126.31154898749999,
          "value": 0.0537109375
        },
        {
          "ticks": 65689,
          "time": 126.32501052708332,
          "value": 0.0545654296875
        },
        {
          "ticks": 65697,
          "time": 126.34039514375,
          "value": 0.0552978515625
        },
        {
          "ticks": 65704,
          "time": 126.35385668333332,
          "value": 0.0560302734375
        },
        {
          "ticks": 65712,
          "time": 126.3692413,
          "value": 0.056884765625
        },
        {
          "ticks": 65719,
          "time": 126.38270283958332,
          "value": 0.0576171875
        },
        {
          "ticks": 65727,
          "time": 126.39808745625,
          "value": 0.0584716796875
        },
        {
          "ticks": 65734,
          "time": 126.41154899583331,
          "value": 0.0592041015625
        },
        {
          "ticks": 65742,
          "time": 126.4269336125,
          "value": 0.0599365234375
        },
        {
          "ticks": 65749,
          "time": 126.44039515208331,
          "value": 0.060791015625
        },
        {
          "ticks": 65756,
          "time": 126.45385669166666,
          "value": 0.0615234375
        },
        {
          "ticks": 65764,
          "time": 126.46924130833331,
          "value": 0.0623779296875
        },
        {
          "ticks": 65772,
          "time": 126.48462592499999,
          "value": 0.0631103515625
        },
        {
          "ticks": 65779,
          "time": 126.49808746458332,
          "value": 0.0638427734375
        },
        {
          "ticks": 65787,
          "time": 126.51347208125,
          "value": 0.064697265625
        },
        {
          "ticks": 65794,
          "time": 126.52693362083332,
          "value": 0.0654296875
        },
        {
          "ticks": 65802,
          "time": 126.5423182375,
          "value": 0.0662841796875
        },
        {
          "ticks": 65809,
          "time": 126.55577977708332,
          "value": 0.0670166015625
        },
        {
          "ticks": 65817,
          "time": 126.57116439375,
          "value": 0.0677490234375
        },
        {
          "ticks": 65824,
          "time": 126.58462593333331,
          "value": 0.068603515625
        },
        {
          "ticks": 65832,
          "time": 126.60001055,
          "value": 0.0693359375
        },
        {
          "ticks": 65839,
          "time": 126.61347208958331,
          "value": 0.070068359375
        },
        {
          "ticks": 65847,
          "time": 126.62885670624999,
          "value": 0.0709228515625
        },
        {
          "ticks": 65854,
          "time": 126.64231824583332,
          "value": 0.0716552734375
        },
        {
          "ticks": 65862,
          "time": 126.65770286249999,
          "value": 0.072509765625
        },
        {
          "ticks": 65869,
          "time": 126.67116440208332,
          "value": 0.0732421875
        },
        {
          "ticks": 65877,
          "time": 126.68654901875,
          "value": 0.073974609375
        },
        {
          "ticks": 65884,
          "time": 126.70001055833332,
          "value": 0.0748291015625
        },
        {
          "ticks": 65892,
          "time": 126.715395175,
          "value": 0.0755615234375
        },
        {
          "ticks": 65899,
          "time": 126.72885671458332,
          "value": 0.076416015625
        },
        {
          "ticks": 65907,
          "time": 126.74424133125,
          "value": 0.0771484375
        },
        {
          "ticks": 65914,
          "time": 126.75770287083331,
          "value": 0.077880859375
        },
        {
          "ticks": 65922,
          "time": 126.77308748749999,
          "value": 0.0787353515625
        },
        {
          "ticks": 65929,
          "time": 126.78654902708331,
          "value": 0.0794677734375
        },
        {
          "ticks": 65937,
          "time": 126.80193364374999,
          "value": 0.080322265625
        },
        {
          "ticks": 65944,
          "time": 126.81539518333332,
          "value": 0.0810546875
        },
        {
          "ticks": 65952,
          "time": 126.8307798,
          "value": 0.081787109375
        },
        {
          "ticks": 65959,
          "time": 126.84424133958332,
          "value": 0.0826416015625
        },
        {
          "ticks": 65967,
          "time": 126.85962595625,
          "value": 0.0833740234375
        },
        {
          "ticks": 65974,
          "time": 126.87308749583332,
          "value": 0.0841064453125
        },
        {
          "ticks": 65982,
          "time": 126.8884721125,
          "value": 0.0849609375
        },
        {
          "ticks": 65989,
          "time": 126.90193365208331,
          "value": 0.085693359375
        },
        {
          "ticks": 65997,
          "time": 126.91731826875,
          "value": 0.0865478515625
        },
        {
          "ticks": 66004,
          "time": 126.93077980833331,
          "value": 0.0872802734375
        },
        {
          "ticks": 66012,
          "time": 126.94616442499999,
          "value": 0.0880126953125
        },
        {
          "ticks": 66019,
          "time": 126.95962596458331,
          "value": 0.0888671875
        },
        {
          "ticks": 66027,
          "time": 126.97501058124999,
          "value": 0.089599609375
        },
        {
          "ticks": 66034,
          "time": 126.98847212083332,
          "value": 0.0904541015625
        },
        {
          "ticks": 66042,
          "time": 127.0038567375,
          "value": 0.0911865234375
        },
        {
          "ticks": 66049,
          "time": 127.01731827708332,
          "value": 0.0919189453125
        },
        {
          "ticks": 66057,
          "time": 127.03270289375,
          "value": 0.0927734375
        },
        {
          "ticks": 66064,
          "time": 127.04616443333332,
          "value": 0.093505859375
        },
        {
          "ticks": 66072,
          "time": 127.06154905,
          "value": 0.09423828125
        },
        {
          "ticks": 66079,
          "time": 127.07501058958331,
          "value": 0.0950927734375
        },
        {
          "ticks": 66087,
          "time": 127.09039520625,
          "value": 0.0958251953125
        },
        {
          "ticks": 66094,
          "time": 127.10385674583331,
          "value": 0.0966796875
        },
        {
          "ticks": 66102,
          "time": 127.11924136249999,
          "value": 0.097412109375
        },
        {
          "ticks": 66109,
          "time": 127.13270290208331,
          "value": 0.09814453125
        },
        {
          "ticks": 66117,
          "time": 127.14808751874999,
          "value": 0.0989990234375
        },
        {
          "ticks": 66124,
          "time": 127.16154905833332,
          "value": 0.0997314453125
        },
        {
          "ticks": 66132,
          "time": 127.176933675,
          "value": 0.1005859375
        },
        {
          "ticks": 66139,
          "time": 127.19039521458332,
          "value": 0.101318359375
        },
        {
          "ticks": 66147,
          "time": 127.20577983125,
          "value": 0.10205078125
        },
        {
          "ticks": 66154,
          "time": 127.21924137083332,
          "value": 0.1029052734375
        },
        {
          "ticks": 66162,
          "time": 127.2346259875,
          "value": 0.1036376953125
        },
        {
          "ticks": 66169,
          "time": 127.24808752708331,
          "value": 0.1044921875
        },
        {
          "ticks": 66177,
          "time": 127.26347214375,
          "value": 0.105224609375
        },
        {
          "ticks": 66184,
          "time": 127.27693368333331,
          "value": 0.10595703125
        },
        {
          "ticks": 66192,
          "time": 127.29231829999999,
          "value": 0.1068115234375
        },
        {
          "ticks": 66199,
          "time": 127.30577983958332,
          "value": 0.1075439453125
        },
        {
          "ticks": 66207,
          "time": 127.32116445624999,
          "value": 0.1082763671875
        },
        {
          "ticks": 66214,
          "time": 127.33462599583332,
          "value": 0.109130859375
        },
        {
          "ticks": 66222,
          "time": 127.3500106125,
          "value": 0.10986328125
        },
        {
          "ticks": 66229,
          "time": 127.36347215208332,
          "value": 0.1107177734375
        },
        {
          "ticks": 66237,
          "time": 127.37885676875,
          "value": 0.1114501953125
        },
        {
          "ticks": 66244,
          "time": 127.39231830833332,
          "value": 0.1121826171875
        },
        {
          "ticks": 66252,
          "time": 127.407702925,
          "value": 0.113037109375
        },
        {
          "ticks": 66259,
          "time": 127.42116446458331,
          "value": 0.11376953125
        },
        {
          "ticks": 66267,
          "time": 127.43654908124999,
          "value": 0.1146240234375
        },
        {
          "ticks": 66274,
          "time": 127.45001062083331,
          "value": 0.1153564453125
        },
        {
          "ticks": 66282,
          "time": 127.46539523749999,
          "value": 0.1160888671875
        },
        {
          "ticks": 66289,
          "time": 127.47885677708332,
          "value": 0.116943359375
        },
        {
          "ticks": 66297,
          "time": 127.49424139374999,
          "value": 0.11767578125
        },
        {
          "ticks": 66304,
          "time": 127.50770293333332,
          "value": 0.1185302734375
        },
        {
          "ticks": 66312,
          "time": 127.52308755,
          "value": 0.1192626953125
        },
        {
          "ticks": 66319,
          "time": 127.53654908958332,
          "value": 0.1199951171875
        },
        {
          "ticks": 66327,
          "time": 127.55193370625,
          "value": 0.120849609375
        },
        {
          "ticks": 66334,
          "time": 127.56539524583332,
          "value": 0.12158203125
        },
        {
          "ticks": 66342,
          "time": 127.5807798625,
          "value": 0.122314453125
        },
        {
          "ticks": 66349,
          "time": 127.59424140208331,
          "value": 0.1231689453125
        },
        {
          "ticks": 66357,
          "time": 127.60962601874999,
          "value": 0.1239013671875
        },
        {
          "ticks": 66364,
          "time": 127.62308755833331,
          "value": 0.124755859375
        },
        {
          "ticks": 66372,
          "time": 127.63847217499999,
          "value": 0.12548828125
        },
        {
          "ticks": 66379,
          "time": 127.65193371458332,
          "value": 0.126220703125
        },
        {
          "ticks": 66387,
          "time": 127.66731833125,
          "value": 0.1270751953125
        },
        {
          "ticks": 66394,
          "time": 127.68077987083332,
          "value": 0.1278076171875
        },
        {
          "ticks": 66402,
          "time": 127.6961644875,
          "value": 0.128662109375
        },
        {
          "ticks": 66409,
          "time": 127.70962602708332,
          "value": 0.12939453125
        },
        {
          "ticks": 66417,
          "time": 127.72501064375,
          "value": 0.130126953125
        },
        {
          "ticks": 66424,
          "time": 127.73847218333331,
          "value": 0.1309814453125
        },
        {
          "ticks": 66432,
          "time": 127.7538568,
          "value": 0.1317138671875
        },
        {
          "ticks": 66439,
          "time": 127.76731833958331,
          "value": 0.132568359375
        },
        {
          "ticks": 66447,
          "time": 127.78270295624999,
          "value": 0.13330078125
        },
        {
          "ticks": 66454,
          "time": 127.79616449583331,
          "value": 0.134033203125
        },
        {
          "ticks": 66462,
          "time": 127.81154911249999,
          "value": 0.1348876953125
        },
        {
          "ticks": 66469,
          "time": 127.82501065208332,
          "value": 0.1356201171875
        },
        {
          "ticks": 66477,
          "time": 127.84039526875,
          "value": 0.1363525390625
        },
        {
          "ticks": 66484,
          "time": 127.85385680833332,
          "value": 0.13720703125
        },
        {
          "ticks": 66492,
          "time": 127.869241425,
          "value": 0.137939453125
        },
        {
          "ticks": 66499,
          "time": 127.88270296458332,
          "value": 0.1387939453125
        },
        {
          "ticks": 66507,
          "time": 127.89808758125,
          "value": 0.1395263671875
        },
        {
          "ticks": 66514,
          "time": 127.91154912083331,
          "value": 0.1402587890625
        },
        {
          "ticks": 66522,
          "time": 127.9269337375,
          "value": 0.14111328125
        },
        {
          "ticks": 66529,
          "time": 127.94039527708331,
          "value": 0.141845703125
        },
        {
          "ticks": 66537,
          "time": 127.95577989374999,
          "value": 0.1427001953125
        },
        {
          "ticks": 66544,
          "time": 127.96924143333331,
          "value": 0.1434326171875
        },
        {
          "ticks": 66552,
          "time": 127.98462604999999,
          "value": 0.1441650390625
        },
        {
          "ticks": 66559,
          "time": 127.99808758958332,
          "value": 0.14501953125
        },
        {
          "ticks": 66567,
          "time": 128.01347220625,
          "value": 0.145751953125
        },
        {
          "ticks": 66574,
          "time": 128.0269337458333,
          "value": 0.1466064453125
        },
        {
          "ticks": 66582,
          "time": 128.0423183625,
          "value": 0.1473388671875
        },
        {
          "ticks": 66589,
          "time": 128.05577990208332,
          "value": 0.1480712890625
        },
        {
          "ticks": 66597,
          "time": 128.07116451874998,
          "value": 0.14892578125
        },
        {
          "ticks": 66604,
          "time": 128.08462605833333,
          "value": 0.149658203125
        },
        {
          "ticks": 66612,
          "time": 128.100010675,
          "value": 0.150390625
        },
        {
          "ticks": 66619,
          "time": 128.1134722145833,
          "value": 0.1512451171875
        },
        {
          "ticks": 66627,
          "time": 128.12885683125,
          "value": 0.1519775390625
        },
        {
          "ticks": 66634,
          "time": 128.14231837083332,
          "value": 0.15283203125
        },
        {
          "ticks": 66642,
          "time": 128.1577029875,
          "value": 0.153564453125
        },
        {
          "ticks": 66649,
          "time": 128.1711645270833,
          "value": 0.154296875
        },
        {
          "ticks": 66657,
          "time": 128.18654914375,
          "value": 0.1551513671875
        },
        {
          "ticks": 66664,
          "time": 128.20001068333332,
          "value": 0.1558837890625
        },
        {
          "ticks": 66672,
          "time": 128.21539529999998,
          "value": 0.15673828125
        },
        {
          "ticks": 66679,
          "time": 128.22885683958333,
          "value": 0.157470703125
        },
        {
          "ticks": 66687,
          "time": 128.24424145625,
          "value": 0.158203125
        },
        {
          "ticks": 66694,
          "time": 128.2577029958333,
          "value": 0.1590576171875
        },
        {
          "ticks": 66702,
          "time": 128.2730876125,
          "value": 0.1597900390625
        },
        {
          "ticks": 66709,
          "time": 128.28654915208332,
          "value": 0.16064453125
        },
        {
          "ticks": 66717,
          "time": 128.30193376875,
          "value": 0.161376953125
        },
        {
          "ticks": 66724,
          "time": 128.3153953083333,
          "value": 0.162109375
        },
        {
          "ticks": 66732,
          "time": 128.330779925,
          "value": 0.1629638671875
        },
        {
          "ticks": 66739,
          "time": 128.34424146458332,
          "value": 0.1636962890625
        },
        {
          "ticks": 66747,
          "time": 128.35962608124998,
          "value": 0.1644287109375
        },
        {
          "ticks": 66754,
          "time": 128.3730876208333,
          "value": 0.165283203125
        },
        {
          "ticks": 66762,
          "time": 128.3884722375,
          "value": 0.166015625
        },
        {
          "ticks": 66769,
          "time": 128.40193377708331,
          "value": 0.1668701171875
        },
        {
          "ticks": 66777,
          "time": 128.41731839375,
          "value": 0.1676025390625
        },
        {
          "ticks": 66784,
          "time": 128.43077993333333,
          "value": 0.1683349609375
        },
        {
          "ticks": 66792,
          "time": 128.44616455,
          "value": 0.169189453125
        },
        {
          "ticks": 66799,
          "time": 128.4596260895833,
          "value": 0.169921875
        },
        {
          "ticks": 66807,
          "time": 128.47501070625,
          "value": 0.1707763671875
        },
        {
          "ticks": 66814,
          "time": 128.48847224583332,
          "value": 0.1715087890625
        },
        {
          "ticks": 66822,
          "time": 128.5038568625,
          "value": 0.1722412109375
        },
        {
          "ticks": 66829,
          "time": 128.5173184020833,
          "value": 0.173095703125
        },
        {
          "ticks": 66837,
          "time": 128.53270301875,
          "value": 0.173828125
        },
        {
          "ticks": 66844,
          "time": 128.54616455833332,
          "value": 0.1746826171875
        },
        {
          "ticks": 66852,
          "time": 128.56154917499998,
          "value": 0.1754150390625
        },
        {
          "ticks": 66859,
          "time": 128.57501071458333,
          "value": 0.1761474609375
        },
        {
          "ticks": 66867,
          "time": 128.59039533125,
          "value": 0.177001953125
        },
        {
          "ticks": 66874,
          "time": 128.6038568708333,
          "value": 0.177734375
        },
        {
          "ticks": 66882,
          "time": 128.6192414875,
          "value": 0.178466796875
        },
        {
          "ticks": 66889,
          "time": 128.63270302708332,
          "value": 0.1793212890625
        },
        {
          "ticks": 66897,
          "time": 128.64808764375,
          "value": 0.1800537109375
        },
        {
          "ticks": 66904,
          "time": 128.6615491833333,
          "value": 0.180908203125
        },
        {
          "ticks": 66912,
          "time": 128.6769338,
          "value": 0.181640625
        },
        {
          "ticks": 66919,
          "time": 128.69039533958332,
          "value": 0.182373046875
        },
        {
          "ticks": 66927,
          "time": 128.70577995624998,
          "value": 0.1832275390625
        },
        {
          "ticks": 66934,
          "time": 128.7192414958333,
          "value": 0.1839599609375
        },
        {
          "ticks": 66942,
          "time": 128.7346261125,
          "value": 0.184814453125
        },
        {
          "ticks": 66949,
          "time": 128.7480876520833,
          "value": 0.185546875
        },
        {
          "ticks": 66957,
          "time": 128.76347226875,
          "value": 0.186279296875
        },
        {
          "ticks": 66964,
          "time": 128.77693380833333,
          "value": 0.1871337890625
        },
        {
          "ticks": 66972,
          "time": 128.792318425,
          "value": 0.1878662109375
        },
        {
          "ticks": 66979,
          "time": 128.8057799645833,
          "value": 0.1885986328125
        },
        {
          "ticks": 66987,
          "time": 128.82116458125,
          "value": 0.189453125
        },
        {
          "ticks": 66994,
          "time": 128.83462612083332,
          "value": 0.190185546875
        },
        {
          "ticks": 67002,
          "time": 128.85001073749999,
          "value": 0.1910400390625
        },
        {
          "ticks": 67009,
          "time": 128.8634722770833,
          "value": 0.1917724609375
        },
        {
          "ticks": 67017,
          "time": 128.87885689375,
          "value": 0.1925048828125
        },
        {
          "ticks": 67024,
          "time": 128.89231843333332,
          "value": 0.193359375
        },
        {
          "ticks": 67032,
          "time": 128.90770304999998,
          "value": 0.194091796875
        },
        {
          "ticks": 67039,
          "time": 128.92116458958333,
          "value": 0.1949462890625
        },
        {
          "ticks": 67047,
          "time": 128.93654920625,
          "value": 0.1956787109375
        },
        {
          "ticks": 67054,
          "time": 128.9500107458333,
          "value": 0.1964111328125
        },
        {
          "ticks": 67062,
          "time": 128.9653953625,
          "value": 0.197265625
        },
        {
          "ticks": 67069,
          "time": 128.97885690208332,
          "value": 0.197998046875
        },
        {
          "ticks": 67077,
          "time": 128.99424151875,
          "value": 0.1988525390625
        },
        {
          "ticks": 67084,
          "time": 129.0077030583333,
          "value": 0.1995849609375
        },
        {
          "ticks": 67092,
          "time": 129.023087675,
          "value": 0.2003173828125
        },
        {
          "ticks": 67099,
          "time": 129.03654921458332,
          "value": 0.201171875
        },
        {
          "ticks": 67107,
          "time": 129.05193383124998,
          "value": 0.201904296875
        },
        {
          "ticks": 67114,
          "time": 129.06539537083333,
          "value": 0.20263671875
        },
        {
          "ticks": 67122,
          "time": 129.0807799875,
          "value": 0.2034912109375
        },
        {
          "ticks": 67129,
          "time": 129.0942415270833,
          "value": 0.2042236328125
        },
        {
          "ticks": 67137,
          "time": 129.10962614375,
          "value": 0.205078125
        },
        {
          "ticks": 67144,
          "time": 129.12308768333332,
          "value": 0.205810546875
        },
        {
          "ticks": 67152,
          "time": 129.1384723,
          "value": 0.20654296875
        },
        {
          "ticks": 67159,
          "time": 129.1519338395833,
          "value": 0.2073974609375
        },
        {
          "ticks": 67167,
          "time": 129.16731845625,
          "value": 0.2081298828125
        },
        {
          "ticks": 67174,
          "time": 129.18077999583332,
          "value": 0.208984375
        },
        {
          "ticks": 67182,
          "time": 129.19616461249998,
          "value": 0.209716796875
        },
        {
          "ticks": 67189,
          "time": 129.2096261520833,
          "value": 0.21044921875
        },
        {
          "ticks": 67197,
          "time": 129.22501076875,
          "value": 0.2113037109375
        },
        {
          "ticks": 67204,
          "time": 129.23847230833331,
          "value": 0.2120361328125
        },
        {
          "ticks": 67212,
          "time": 129.253856925,
          "value": 0.212890625
        },
        {
          "ticks": 67219,
          "time": 129.26731846458333,
          "value": 0.213623046875
        },
        {
          "ticks": 67227,
          "time": 129.28270308125,
          "value": 0.21435546875
        },
        {
          "ticks": 67234,
          "time": 129.2961646208333,
          "value": 0.2152099609375
        },
        {
          "ticks": 67242,
          "time": 129.3115492375,
          "value": 0.2159423828125
        },
        {
          "ticks": 67249,
          "time": 129.32501077708332,
          "value": 0.2166748046875
        },
        {
          "ticks": 67257,
          "time": 129.34039539375,
          "value": 0.217529296875
        },
        {
          "ticks": 67264,
          "time": 129.3538569333333,
          "value": 0.21826171875
        },
        {
          "ticks": 67272,
          "time": 129.36924155,
          "value": 0.2191162109375
        },
        {
          "ticks": 67279,
          "time": 129.38270308958332,
          "value": 0.2198486328125
        },
        {
          "ticks": 67287,
          "time": 129.39808770624998,
          "value": 0.2205810546875
        },
        {
          "ticks": 67294,
          "time": 129.41154924583333,
          "value": 0.221435546875
        },
        {
          "ticks": 67302,
          "time": 129.4269338625,
          "value": 0.22216796875
        },
        {
          "ticks": 67309,
          "time": 129.4403954020833,
          "value": 0.2230224609375
        },
        {
          "ticks": 67316,
          "time": 129.45385694166666,
          "value": 0.2237548828125
        },
        {
          "ticks": 67324,
          "time": 129.46924155833332,
          "value": 0.2244873046875
        },
        {
          "ticks": 67332,
          "time": 129.484626175,
          "value": 0.225341796875
        },
        {
          "ticks": 67339,
          "time": 129.4980877145833,
          "value": 0.22607421875
        },
        {
          "ticks": 67347,
          "time": 129.51347233125,
          "value": 0.2269287109375
        },
        {
          "ticks": 67354,
          "time": 129.52693387083332,
          "value": 0.2276611328125
        },
        {
          "ticks": 67362,
          "time": 129.54231848749998,
          "value": 0.2283935546875
        },
        {
          "ticks": 67369,
          "time": 129.55578002708333,
          "value": 0.229248046875
        },
        {
          "ticks": 67377,
          "time": 129.57116464375,
          "value": 0.22998046875
        },
        {
          "ticks": 67384,
          "time": 129.5846261833333,
          "value": 0.230712890625
        },
        {
          "ticks": 67392,
          "time": 129.6000108,
          "value": 0.2315673828125
        },
        {
          "ticks": 67399,
          "time": 129.61347233958332,
          "value": 0.2322998046875
        },
        {
          "ticks": 67407,
          "time": 129.62885695625,
          "value": 0.233154296875
        },
        {
          "ticks": 67414,
          "time": 129.6423184958333,
          "value": 0.23388671875
        },
        {
          "ticks": 67422,
          "time": 129.6577031125,
          "value": 0.234619140625
        },
        {
          "ticks": 67429,
          "time": 129.67116465208332,
          "value": 0.2354736328125
        },
        {
          "ticks": 67437,
          "time": 129.68654926874999,
          "value": 0.2362060546875
        },
        {
          "ticks": 67444,
          "time": 129.7000108083333,
          "value": 0.237060546875
        },
        {
          "ticks": 67452,
          "time": 129.715395425,
          "value": 0.23779296875
        },
        {
          "ticks": 67459,
          "time": 129.72885696458331,
          "value": 0.238525390625
        },
        {
          "ticks": 67467,
          "time": 129.74424158125,
          "value": 0.2393798828125
        },
        {
          "ticks": 67474,
          "time": 129.75770312083333,
          "value": 0.2401123046875
        },
        {
          "ticks": 67482,
          "time": 129.7730877375,
          "value": 0.240966796875
        },
        {
          "ticks": 67489,
          "time": 129.7865492770833,
          "value": 0.24169921875
        },
        {
          "ticks": 67497,
          "time": 129.80193389375,
          "value": 0.242431640625
        },
        {
          "ticks": 67504,
          "time": 129.81539543333332,
          "value": 0.2432861328125
        },
        {
          "ticks": 67512,
          "time": 129.83078005,
          "value": 0.2440185546875
        },
        {
          "ticks": 67519,
          "time": 129.8442415895833,
          "value": 0.2447509765625
        },
        {
          "ticks": 67527,
          "time": 129.85962620625,
          "value": 0.24560546875
        },
        {
          "ticks": 67534,
          "time": 129.87308774583332,
          "value": 0.246337890625
        },
        {
          "ticks": 67542,
          "time": 129.88847236249998,
          "value": 0.2471923828125
        },
        {
          "ticks": 67549,
          "time": 129.90193390208333,
          "value": 0.2479248046875
        },
        {
          "ticks": 67557,
          "time": 129.91731851875,
          "value": 0.2486572265625
        },
        {
          "ticks": 67564,
          "time": 129.9307800583333,
          "value": 0.24951171875
        },
        {
          "ticks": 67572,
          "time": 129.946164675,
          "value": 0.250244140625
        },
        {
          "ticks": 67579,
          "time": 129.95962621458332,
          "value": 0.2510986328125
        },
        {
          "ticks": 67587,
          "time": 129.97501083125,
          "value": 0.2518310546875
        },
        {
          "ticks": 67594,
          "time": 129.9884723708333,
          "value": 0.2525634765625
        },
        {
          "ticks": 67602,
          "time": 130.0038569875,
          "value": 0.25341796875
        },
        {
          "ticks": 67609,
          "time": 130.01731852708332,
          "value": 0.254150390625
        },
        {
          "ticks": 67617,
          "time": 130.03270314374998,
          "value": 0.2550048828125
        },
        {
          "ticks": 67624,
          "time": 130.0461646833333,
          "value": 0.2557373046875
        },
        {
          "ticks": 67632,
          "time": 130.0615493,
          "value": 0.2564697265625
        },
        {
          "ticks": 67639,
          "time": 130.0750108395833,
          "value": 0.25732421875
        },
        {
          "ticks": 67647,
          "time": 130.09039545625,
          "value": 0.258056640625
        },
        {
          "ticks": 67654,
          "time": 130.10385699583333,
          "value": 0.2587890625
        },
        {
          "ticks": 67662,
          "time": 130.1192416125,
          "value": 0.2596435546875
        },
        {
          "ticks": 67669,
          "time": 130.1327031520833,
          "value": 0.2603759765625
        },
        {
          "ticks": 67677,
          "time": 130.14808776875,
          "value": 0.26123046875
        },
        {
          "ticks": 67684,
          "time": 130.16154930833332,
          "value": 0.261962890625
        },
        {
          "ticks": 67692,
          "time": 130.176933925,
          "value": 0.2626953125
        },
        {
          "ticks": 67699,
          "time": 130.1903954645833,
          "value": 0.2635498046875
        },
        {
          "ticks": 67707,
          "time": 130.20578008125,
          "value": 0.2642822265625
        },
        {
          "ticks": 67714,
          "time": 130.21924162083332,
          "value": 0.26513671875
        },
        {
          "ticks": 67722,
          "time": 130.23462623749998,
          "value": 0.265869140625
        },
        {
          "ticks": 67729,
          "time": 130.24808777708333,
          "value": 0.2666015625
        },
        {
          "ticks": 67737,
          "time": 130.26347239375,
          "value": 0.2674560546875
        },
        {
          "ticks": 67744,
          "time": 130.2769339333333,
          "value": 0.2681884765625
        },
        {
          "ticks": 67752,
          "time": 130.29231855,
          "value": 0.26904296875
        },
        {
          "ticks": 67759,
          "time": 130.30578008958332,
          "value": 0.269775390625
        },
        {
          "ticks": 67767,
          "time": 130.32116470625,
          "value": 0.2705078125
        },
        {
          "ticks": 67774,
          "time": 130.3346262458333,
          "value": 0.2713623046875
        },
        {
          "ticks": 67782,
          "time": 130.3500108625,
          "value": 0.2720947265625
        },
        {
          "ticks": 67789,
          "time": 130.36347240208332,
          "value": 0.2728271484375
        },
        {
          "ticks": 67797,
          "time": 130.37885701874998,
          "value": 0.273681640625
        },
        {
          "ticks": 67804,
          "time": 130.39231855833333,
          "value": 0.2744140625
        },
        {
          "ticks": 67812,
          "time": 130.407703175,
          "value": 0.2752685546875
        },
        {
          "ticks": 67819,
          "time": 130.4211647145833,
          "value": 0.2760009765625
        },
        {
          "ticks": 67827,
          "time": 130.43654933125,
          "value": 0.2767333984375
        },
        {
          "ticks": 67834,
          "time": 130.45001087083332,
          "value": 0.277587890625
        },
        {
          "ticks": 67842,
          "time": 130.4653954875,
          "value": 0.2783203125
        },
        {
          "ticks": 67849,
          "time": 130.4788570270833,
          "value": 0.2791748046875
        },
        {
          "ticks": 67857,
          "time": 130.49424164375,
          "value": 0.2799072265625
        },
        {
          "ticks": 67864,
          "time": 130.50770318333332,
          "value": 0.2806396484375
        },
        {
          "ticks": 67872,
          "time": 130.52308779999998,
          "value": 0.281494140625
        },
        {
          "ticks": 67879,
          "time": 130.5365493395833,
          "value": 0.2822265625
        },
        {
          "ticks": 67887,
          "time": 130.55193395625,
          "value": 0.282958984375
        },
        {
          "ticks": 67894,
          "time": 130.56539549583331,
          "value": 0.2838134765625
        },
        {
          "ticks": 67902,
          "time": 130.5807801125,
          "value": 0.2845458984375
        },
        {
          "ticks": 67909,
          "time": 130.59424165208333,
          "value": 0.285400390625
        },
        {
          "ticks": 67917,
          "time": 130.60962626875,
          "value": 0.2861328125
        },
        {
          "ticks": 67924,
          "time": 130.6230878083333,
          "value": 0.286865234375
        },
        {
          "ticks": 67932,
          "time": 130.638472425,
          "value": 0.2877197265625
        },
        {
          "ticks": 67939,
          "time": 130.65193396458332,
          "value": 0.2884521484375
        },
        {
          "ticks": 67947,
          "time": 130.66731858125,
          "value": 0.289306640625
        },
        {
          "ticks": 67954,
          "time": 130.6807801208333,
          "value": 0.2900390625
        },
        {
          "ticks": 67962,
          "time": 130.6961647375,
          "value": 0.290771484375
        },
        {
          "ticks": 67969,
          "time": 130.70962627708332,
          "value": 0.2916259765625
        },
        {
          "ticks": 67977,
          "time": 130.72501089374998,
          "value": 0.2923583984375
        },
        {
          "ticks": 67984,
          "time": 130.73847243333333,
          "value": 0.293212890625
        },
        {
          "ticks": 67992,
          "time": 130.75385705,
          "value": 0.2939453125
        },
        {
          "ticks": 67999,
          "time": 130.7673185895833,
          "value": 0.294677734375
        },
        {
          "ticks": 68007,
          "time": 130.78270320625,
          "value": 0.2955322265625
        },
        {
          "ticks": 68014,
          "time": 130.79616474583332,
          "value": 0.2962646484375
        },
        {
          "ticks": 68022,
          "time": 130.8115493625,
          "value": 0.2969970703125
        },
        {
          "ticks": 68029,
          "time": 130.8250109020833,
          "value": 0.2978515625
        },
        {
          "ticks": 68037,
          "time": 130.84039551875,
          "value": 0.298583984375
        },
        {
          "ticks": 68044,
          "time": 130.85385705833332,
          "value": 0.2994384765625
        },
        {
          "ticks": 68052,
          "time": 130.86924167499998,
          "value": 0.3001708984375
        },
        {
          "ticks": 68059,
          "time": 130.8827032145833,
          "value": 0.3009033203125
        },
        {
          "ticks": 68067,
          "time": 130.89808783125,
          "value": 0.3017578125
        },
        {
          "ticks": 68074,
          "time": 130.9115493708333,
          "value": 0.302490234375
        },
        {
          "ticks": 68082,
          "time": 130.9269339875,
          "value": 0.3033447265625
        },
        {
          "ticks": 68089,
          "time": 130.94039552708333,
          "value": 0.3040771484375
        },
        {
          "ticks": 68097,
          "time": 130.95578014375,
          "value": 0.3048095703125
        },
        {
          "ticks": 68104,
          "time": 130.9692416833333,
          "value": 0.3056640625
        },
        {
          "ticks": 68112,
          "time": 130.9846263,
          "value": 0.306396484375
        },
        {
          "ticks": 68119,
          "time": 130.99808783958332,
          "value": 0.3072509765625
        },
        {
          "ticks": 68127,
          "time": 131.01347245624999,
          "value": 0.3079833984375
        },
        {
          "ticks": 68134,
          "time": 131.0269339958333,
          "value": 0.3087158203125
        },
        {
          "ticks": 68142,
          "time": 131.0423186125,
          "value": 0.3095703125
        },
        {
          "ticks": 68149,
          "time": 131.05578015208332,
          "value": 0.310302734375
        },
        {
          "ticks": 68156,
          "time": 131.06924169166666,
          "value": 0.31103515625
        },
        {
          "ticks": 68164,
          "time": 131.08462630833333,
          "value": 0.3118896484375
        },
        {
          "ticks": 68172,
          "time": 131.100010925,
          "value": 0.3126220703125
        },
        {
          "ticks": 68179,
          "time": 131.1134724645833,
          "value": 0.3134765625
        },
        {
          "ticks": 68187,
          "time": 131.12885708125,
          "value": 0.314208984375
        },
        {
          "ticks": 68194,
          "time": 131.14231862083332,
          "value": 0.31494140625
        },
        {
          "ticks": 68202,
          "time": 131.1577032375,
          "value": 0.3157958984375
        },
        {
          "ticks": 68209,
          "time": 131.1711647770833,
          "value": 0.3165283203125
        },
        {
          "ticks": 68217,
          "time": 131.18654939375,
          "value": 0.3173828125
        },
        {
          "ticks": 68224,
          "time": 131.20001093333332,
          "value": 0.318115234375
        },
        {
          "ticks": 68232,
          "time": 131.21539554999998,
          "value": 0.31884765625
        },
        {
          "ticks": 68239,
          "time": 131.22885708958333,
          "value": 0.3197021484375
        },
        {
          "ticks": 68247,
          "time": 131.24424170625,
          "value": 0.3204345703125
        },
        {
          "ticks": 68254,
          "time": 131.2577032458333,
          "value": 0.3212890625
        },
        {
          "ticks": 68262,
          "time": 131.2730878625,
          "value": 0.322021484375
        },
        {
          "ticks": 68269,
          "time": 131.28654940208332,
          "value": 0.32275390625
        },
        {
          "ticks": 68277,
          "time": 131.30193401875,
          "value": 0.3236083984375
        },
        {
          "ticks": 68284,
          "time": 131.3153955583333,
          "value": 0.3243408203125
        },
        {
          "ticks": 68292,
          "time": 131.330780175,
          "value": 0.3250732421875
        },
        {
          "ticks": 68299,
          "time": 131.34424171458332,
          "value": 0.325927734375
        },
        {
          "ticks": 68307,
          "time": 131.35962633124998,
          "value": 0.32666015625
        },
        {
          "ticks": 68314,
          "time": 131.3730878708333,
          "value": 0.3275146484375
        },
        {
          "ticks": 68322,
          "time": 131.3884724875,
          "value": 0.3282470703125
        },
        {
          "ticks": 68329,
          "time": 131.4019340270833,
          "value": 0.3289794921875
        },
        {
          "ticks": 68337,
          "time": 131.41731864375,
          "value": 0.329833984375
        },
        {
          "ticks": 68344,
          "time": 131.43078018333333,
          "value": 0.33056640625
        },
        {
          "ticks": 68352,
          "time": 131.4461648,
          "value": 0.3314208984375
        },
        {
          "ticks": 68359,
          "time": 131.4596263395833,
          "value": 0.3321533203125
        },
        {
          "ticks": 68367,
          "time": 131.47501095625,
          "value": 0.3328857421875
        },
        {
          "ticks": 68374,
          "time": 131.48847249583332,
          "value": 0.333740234375
        },
        {
          "ticks": 68382,
          "time": 131.5038571125,
          "value": 0.33447265625
        },
        {
          "ticks": 68389,
          "time": 131.5173186520833,
          "value": 0.3353271484375
        },
        {
          "ticks": 68397,
          "time": 131.53270326875,
          "value": 0.3360595703125
        },
        {
          "ticks": 68404,
          "time": 131.54616480833332,
          "value": 0.3367919921875
        },
        {
          "ticks": 68412,
          "time": 131.56154942499998,
          "value": 0.337646484375
        },
        {
          "ticks": 68419,
          "time": 131.57501096458333,
          "value": 0.33837890625
        },
        {
          "ticks": 68427,
          "time": 131.59039558125,
          "value": 0.339111328125
        },
        {
          "ticks": 68434,
          "time": 131.6038571208333,
          "value": 0.3399658203125
        },
        {
          "ticks": 68442,
          "time": 131.6192417375,
          "value": 0.3406982421875
        },
        {
          "ticks": 68449,
          "time": 131.63270327708332,
          "value": 0.341552734375
        },
        {
          "ticks": 68457,
          "time": 131.64808789375,
          "value": 0.34228515625
        },
        {
          "ticks": 68464,
          "time": 131.6615494333333,
          "value": 0.343017578125
        },
        {
          "ticks": 68472,
          "time": 131.67693405,
          "value": 0.3438720703125
        },
        {
          "ticks": 68479,
          "time": 131.69039558958332,
          "value": 0.3446044921875
        },
        {
          "ticks": 68487,
          "time": 131.70578020624998,
          "value": 0.345458984375
        },
        {
          "ticks": 68494,
          "time": 131.71924174583333,
          "value": 0.34619140625
        },
        {
          "ticks": 68502,
          "time": 131.7346263625,
          "value": 0.346923828125
        },
        {
          "ticks": 68509,
          "time": 131.7480879020833,
          "value": 0.3477783203125
        },
        {
          "ticks": 68517,
          "time": 131.76347251875,
          "value": 0.3485107421875
        },
        {
          "ticks": 68524,
          "time": 131.77693405833332,
          "value": 0.349365234375
        },
        {
          "ticks": 68532,
          "time": 131.792318675,
          "value": 0.35009765625
        },
        {
          "ticks": 68539,
          "time": 131.8057802145833,
          "value": 0.350830078125
        },
        {
          "ticks": 68547,
          "time": 131.82116483125,
          "value": 0.3516845703125
        },
        {
          "ticks": 68554,
          "time": 131.83462637083332,
          "value": 0.3524169921875
        },
        {
          "ticks": 68562,
          "time": 131.85001098749999,
          "value": 0.3531494140625
        },
        {
          "ticks": 68569,
          "time": 131.8634725270833,
          "value": 0.35400390625
        },
        {
          "ticks": 68577,
          "time": 131.87885714375,
          "value": 0.354736328125
        },
        {
          "ticks": 68584,
          "time": 131.89231868333331,
          "value": 0.3555908203125
        },
        {
          "ticks": 68592,
          "time": 131.9077033,
          "value": 0.3563232421875
        },
        {
          "ticks": 68599,
          "time": 131.92116483958333,
          "value": 0.3570556640625
        },
        {
          "ticks": 68607,
          "time": 131.93654945625,
          "value": 0.35791015625
        },
        {
          "ticks": 68614,
          "time": 131.9500109958333,
          "value": 0.358642578125
        },
        {
          "ticks": 68622,
          "time": 131.9653956125,
          "value": 0.3594970703125
        },
        {
          "ticks": 68629,
          "time": 131.97885715208332,
          "value": 0.3602294921875
        },
        {
          "ticks": 68637,
          "time": 131.99424176875,
          "value": 0.3609619140625
        },
        {
          "ticks": 68644,
          "time": 132.0077033083333,
          "value": 0.36181640625
        },
        {
          "ticks": 68652,
          "time": 132.023087925,
          "value": 0.362548828125
        },
        {
          "ticks": 68659,
          "time": 132.03654946458332,
          "value": 0.3634033203125
        },
        {
          "ticks": 68667,
          "time": 132.05193408124998,
          "value": 0.3641357421875
        },
        {
          "ticks": 68674,
          "time": 132.06539562083333,
          "value": 0.3648681640625
        },
        {
          "ticks": 68682,
          "time": 132.0807802375,
          "value": 0.36572265625
        },
        {
          "ticks": 68689,
          "time": 132.0942417770833,
          "value": 0.366455078125
        },
        {
          "ticks": 68697,
          "time": 132.10962639375,
          "value": 0.3671875
        },
        {
          "ticks": 68704,
          "time": 132.12308793333332,
          "value": 0.3680419921875
        },
        {
          "ticks": 68712,
          "time": 132.13847255,
          "value": 0.3687744140625
        },
        {
          "ticks": 68719,
          "time": 132.1519340895833,
          "value": 0.36962890625
        },
        {
          "ticks": 68727,
          "time": 132.16731870625,
          "value": 0.370361328125
        },
        {
          "ticks": 68734,
          "time": 132.18078024583332,
          "value": 0.37109375
        },
        {
          "ticks": 68742,
          "time": 132.19616486249998,
          "value": 0.3719482421875
        },
        {
          "ticks": 68749,
          "time": 132.2096264020833,
          "value": 0.3726806640625
        },
        {
          "ticks": 68757,
          "time": 132.22501101875,
          "value": 0.37353515625
        },
        {
          "ticks": 68764,
          "time": 132.2384725583333,
          "value": 0.374267578125
        },
        {
          "ticks": 68772,
          "time": 132.253857175,
          "value": 0.375
        },
        {
          "ticks": 68779,
          "time": 132.26731871458333,
          "value": 0.3758544921875
        },
        {
          "ticks": 68787,
          "time": 132.28270333125,
          "value": 0.3765869140625
        },
        {
          "ticks": 68794,
          "time": 132.2961648708333,
          "value": 0.3773193359375
        },
        {
          "ticks": 68802,
          "time": 132.3115494875,
          "value": 0.378173828125
        },
        {
          "ticks": 68809,
          "time": 132.32501102708332,
          "value": 0.37890625
        },
        {
          "ticks": 68817,
          "time": 132.34039564374999,
          "value": 0.3797607421875
        },
        {
          "ticks": 68824,
          "time": 132.3538571833333,
          "value": 0.3804931640625
        },
        {
          "ticks": 68832,
          "time": 132.3692418,
          "value": 0.3812255859375
        },
        {
          "ticks": 68839,
          "time": 132.38270333958332,
          "value": 0.382080078125
        },
        {
          "ticks": 68847,
          "time": 132.39808795624998,
          "value": 0.3828125
        },
        {
          "ticks": 68854,
          "time": 132.41154949583333,
          "value": 0.3836669921875
        },
        {
          "ticks": 68862,
          "time": 132.4269341125,
          "value": 0.3843994140625
        },
        {
          "ticks": 68869,
          "time": 132.4403956520833,
          "value": 0.3851318359375
        },
        {
          "ticks": 68877,
          "time": 132.45578026875,
          "value": 0.385986328125
        },
        {
          "ticks": 68884,
          "time": 132.46924180833332,
          "value": 0.38671875
        },
        {
          "ticks": 68892,
          "time": 132.484626425,
          "value": 0.3875732421875
        },
        {
          "ticks": 68899,
          "time": 132.4980879645833,
          "value": 0.3883056640625
        },
        {
          "ticks": 68907,
          "time": 132.51347258125,
          "value": 0.3890380859375
        },
        {
          "ticks": 68914,
          "time": 132.52693412083332,
          "value": 0.389892578125
        },
        {
          "ticks": 68922,
          "time": 132.54231873749998,
          "value": 0.390625
        },
        {
          "ticks": 68929,
          "time": 132.55578027708333,
          "value": 0.391357421875
        },
        {
          "ticks": 68937,
          "time": 132.57116489375,
          "value": 0.3922119140625
        },
        {
          "ticks": 68944,
          "time": 132.5846264333333,
          "value": 0.3929443359375
        },
        {
          "ticks": 68952,
          "time": 132.60001105,
          "value": 0.393798828125
        },
        {
          "ticks": 68959,
          "time": 132.61347258958332,
          "value": 0.39453125
        },
        {
          "ticks": 68967,
          "time": 132.62885720625,
          "value": 0.395263671875
        },
        {
          "ticks": 68974,
          "time": 132.6423187458333,
          "value": 0.3961181640625
        },
        {
          "ticks": 68982,
          "time": 132.6577033625,
          "value": 0.3968505859375
        },
        {
          "ticks": 68989,
          "time": 132.67116490208332,
          "value": 0.397705078125
        },
        {
          "ticks": 68997,
          "time": 132.68654951874998,
          "value": 0.3984375
        },
        {
          "ticks": 69004,
          "time": 132.7000110583333,
          "value": 0.399169921875
        },
        {
          "ticks": 69012,
          "time": 132.715395675,
          "value": 0.4000244140625
        },
        {
          "ticks": 69019,
          "time": 132.72885721458331,
          "value": 0.4007568359375
        },
        {
          "ticks": 69027,
          "time": 132.74424183125,
          "value": 0.401611328125
        },
        {
          "ticks": 69034,
          "time": 132.75770337083333,
          "value": 0.40234375
        },
        {
          "ticks": 69042,
          "time": 132.7730879875,
          "value": 0.403076171875
        },
        {
          "ticks": 69049,
          "time": 132.7865495270833,
          "value": 0.4039306640625
        },
        {
          "ticks": 69057,
          "time": 132.80193414375,
          "value": 0.4046630859375
        },
        {
          "ticks": 69064,
          "time": 132.81539568333332,
          "value": 0.4053955078125
        },
        {
          "ticks": 69072,
          "time": 132.8307803,
          "value": 0.40625
        },
        {
          "ticks": 69079,
          "time": 132.8442418395833,
          "value": 0.406982421875
        },
        {
          "ticks": 69087,
          "time": 132.85962645625,
          "value": 0.4078369140625
        },
        {
          "ticks": 69094,
          "time": 132.87308799583332,
          "value": 0.4085693359375
        },
        {
          "ticks": 69102,
          "time": 132.88847261249998,
          "value": 0.4093017578125
        },
        {
          "ticks": 69109,
          "time": 132.90193415208333,
          "value": 0.41015625
        },
        {
          "ticks": 69117,
          "time": 132.91731876875,
          "value": 0.410888671875
        },
        {
          "ticks": 69124,
          "time": 132.9307803083333,
          "value": 0.4117431640625
        },
        {
          "ticks": 69132,
          "time": 132.946164925,
          "value": 0.4124755859375
        },
        {
          "ticks": 69139,
          "time": 132.95962646458332,
          "value": 0.4132080078125
        },
        {
          "ticks": 69147,
          "time": 132.97501108125,
          "value": 0.4140625
        },
        {
          "ticks": 69154,
          "time": 132.9884726208333,
          "value": 0.414794921875
        },
        {
          "ticks": 69162,
          "time": 133.0038572375,
          "value": 0.4156494140625
        },
        {
          "ticks": 69169,
          "time": 133.01731877708332,
          "value": 0.4163818359375
        },
        {
          "ticks": 69177,
          "time": 133.03270339374998,
          "value": 0.4171142578125
        },
        {
          "ticks": 69184,
          "time": 133.0461649333333,
          "value": 0.41796875
        },
        {
          "ticks": 69192,
          "time": 133.06154955,
          "value": 0.418701171875
        },
        {
          "ticks": 69199,
          "time": 133.0750110895833,
          "value": 0.41943359375
        },
        {
          "ticks": 69207,
          "time": 133.09039570625,
          "value": 0.4202880859375
        },
        {
          "ticks": 69214,
          "time": 133.10385724583332,
          "value": 0.4210205078125
        },
        {
          "ticks": 69222,
          "time": 133.1192418625,
          "value": 0.421875
        },
        {
          "ticks": 69229,
          "time": 133.1327034020833,
          "value": 0.422607421875
        },
        {
          "ticks": 69237,
          "time": 133.14808801875,
          "value": 0.42333984375
        },
        {
          "ticks": 69244,
          "time": 133.16154955833332,
          "value": 0.4241943359375
        },
        {
          "ticks": 69252,
          "time": 133.17693417499999,
          "value": 0.4249267578125
        },
        {
          "ticks": 69259,
          "time": 133.1903957145833,
          "value": 0.42578125
        },
        {
          "ticks": 69267,
          "time": 133.20578033125,
          "value": 0.426513671875
        },
        {
          "ticks": 69274,
          "time": 133.21924187083332,
          "value": 0.42724609375
        },
        {
          "ticks": 69282,
          "time": 133.23462648749998,
          "value": 0.4281005859375
        },
        {
          "ticks": 69289,
          "time": 133.24808802708333,
          "value": 0.4288330078125
        },
        {
          "ticks": 69297,
          "time": 133.26347264375,
          "value": 0.4296875
        },
        {
          "ticks": 69304,
          "time": 133.2769341833333,
          "value": 0.430419921875
        },
        {
          "ticks": 69312,
          "time": 133.2923188,
          "value": 0.43115234375
        },
        {
          "ticks": 69319,
          "time": 133.30578033958332,
          "value": 0.4320068359375
        },
        {
          "ticks": 69327,
          "time": 133.32116495625,
          "value": 0.4327392578125
        },
        {
          "ticks": 69334,
          "time": 133.3346264958333,
          "value": 0.4334716796875
        },
        {
          "ticks": 69342,
          "time": 133.3500111125,
          "value": 0.434326171875
        },
        {
          "ticks": 69349,
          "time": 133.36347265208332,
          "value": 0.43505859375
        },
        {
          "ticks": 69357,
          "time": 133.37885726874998,
          "value": 0.4359130859375
        },
        {
          "ticks": 69364,
          "time": 133.39231880833333,
          "value": 0.4366455078125
        },
        {
          "ticks": 69372,
          "time": 133.407703425,
          "value": 0.4373779296875
        },
        {
          "ticks": 69379,
          "time": 133.4211649645833,
          "value": 0.438232421875
        },
        {
          "ticks": 69387,
          "time": 133.43654958125,
          "value": 0.43896484375
        },
        {
          "ticks": 69394,
          "time": 133.45001112083332,
          "value": 0.4398193359375
        },
        {
          "ticks": 69402,
          "time": 133.4653957375,
          "value": 0.4405517578125
        },
        {
          "ticks": 69409,
          "time": 133.4788572770833,
          "value": 0.4412841796875
        },
        {
          "ticks": 69417,
          "time": 133.49424189375,
          "value": 0.442138671875
        },
        {
          "ticks": 69424,
          "time": 133.50770343333332,
          "value": 0.44287109375
        },
        {
          "ticks": 69432,
          "time": 133.52308804999998,
          "value": 0.4437255859375
        },
        {
          "ticks": 69439,
          "time": 133.5365495895833,
          "value": 0.4444580078125
        },
        {
          "ticks": 69447,
          "time": 133.55193420625,
          "value": 0.4451904296875
        },
        {
          "ticks": 69454,
          "time": 133.5653957458333,
          "value": 0.446044921875
        },
        {
          "ticks": 69462,
          "time": 133.5807803625,
          "value": 0.44677734375
        },
        {
          "ticks": 69469,
          "time": 133.59424190208333,
          "value": 0.447509765625
        },
        {
          "ticks": 69477,
          "time": 133.60962651875,
          "value": 0.4483642578125
        },
        {
          "ticks": 69484,
          "time": 133.6230880583333,
          "value": 0.4490966796875
        },
        {
          "ticks": 69492,
          "time": 133.638472675,
          "value": 0.449951171875
        },
        {
          "ticks": 69499,
          "time": 133.65193421458332,
          "value": 0.45068359375
        },
        {
          "ticks": 69507,
          "time": 133.66731883125,
          "value": 0.451416015625
        },
        {
          "ticks": 69514,
          "time": 133.6807803708333,
          "value": 0.4522705078125
        },
        {
          "ticks": 69522,
          "time": 133.6961649875,
          "value": 0.4530029296875
        },
        {
          "ticks": 69529,
          "time": 133.70962652708332,
          "value": 0.453857421875
        },
        {
          "ticks": 69537,
          "time": 133.72501114374998,
          "value": 0.45458984375
        },
        {
          "ticks": 69544,
          "time": 133.73847268333333,
          "value": 0.455322265625
        },
        {
          "ticks": 69552,
          "time": 133.7538573,
          "value": 0.4561767578125
        },
        {
          "ticks": 69559,
          "time": 133.7673188395833,
          "value": 0.4569091796875
        },
        {
          "ticks": 69567,
          "time": 133.78270345625,
          "value": 0.457763671875
        },
        {
          "ticks": 69574,
          "time": 133.79616499583332,
          "value": 0.45849609375
        },
        {
          "ticks": 69582,
          "time": 133.8115496125,
          "value": 0.459228515625
        },
        {
          "ticks": 69589,
          "time": 133.8250111520833,
          "value": 0.4600830078125
        },
        {
          "ticks": 69597,
          "time": 133.84039576875,
          "value": 0.4608154296875
        },
        {
          "ticks": 69604,
          "time": 133.85385730833332,
          "value": 0.4615478515625
        },
        {
          "ticks": 69612,
          "time": 133.86924192499998,
          "value": 0.46240234375
        },
        {
          "ticks": 69619,
          "time": 133.88270346458333,
          "value": 0.463134765625
        },
        {
          "ticks": 69627,
          "time": 133.89808808125,
          "value": 0.4639892578125
        },
        {
          "ticks": 69634,
          "time": 133.9115496208333,
          "value": 0.4647216796875
        },
        {
          "ticks": 69642,
          "time": 133.9269342375,
          "value": 0.4654541015625
        },
        {
          "ticks": 69649,
          "time": 133.94039577708332,
          "value": 0.46630859375
        },
        {
          "ticks": 69657,
          "time": 133.95578039375,
          "value": 0.467041015625
        },
        {
          "ticks": 69664,
          "time": 133.9692419333333,
          "value": 0.4678955078125
        },
        {
          "ticks": 69672,
          "time": 133.98462655,
          "value": 0.4686279296875
        },
        {
          "ticks": 69679,
          "time": 133.99808808958332,
          "value": 0.4693603515625
        },
        {
          "ticks": 69687,
          "time": 134.01347270624998,
          "value": 0.47021484375
        },
        {
          "ticks": 69694,
          "time": 134.0269342458333,
          "value": 0.470947265625
        },
        {
          "ticks": 69702,
          "time": 134.0423188625,
          "value": 0.4716796875
        },
        {
          "ticks": 69709,
          "time": 134.05578040208331,
          "value": 0.4725341796875
        },
        {
          "ticks": 69717,
          "time": 134.07116501875,
          "value": 0.4732666015625
        },
        {
          "ticks": 69724,
          "time": 134.08462655833333,
          "value": 0.47412109375
        },
        {
          "ticks": 69732,
          "time": 134.100011175,
          "value": 0.474853515625
        },
        {
          "ticks": 69739,
          "time": 134.1134727145833,
          "value": 0.4755859375
        },
        {
          "ticks": 69747,
          "time": 134.12885733125,
          "value": 0.4764404296875
        },
        {
          "ticks": 69754,
          "time": 134.14231887083332,
          "value": 0.4771728515625
        },
        {
          "ticks": 69762,
          "time": 134.1577034875,
          "value": 0.47802734375
        },
        {
          "ticks": 69769,
          "time": 134.1711650270833,
          "value": 0.478759765625
        },
        {
          "ticks": 69777,
          "time": 134.18654964375,
          "value": 0.4794921875
        },
        {
          "ticks": 69784,
          "time": 134.20001118333332,
          "value": 0.4803466796875
        },
        {
          "ticks": 69792,
          "time": 134.21539579999998,
          "value": 0.4810791015625
        },
        {
          "ticks": 69799,
          "time": 134.22885733958333,
          "value": 0.48193359375
        },
        {
          "ticks": 69807,
          "time": 134.24424195625,
          "value": 0.482666015625
        },
        {
          "ticks": 69814,
          "time": 134.2577034958333,
          "value": 0.4833984375
        },
        {
          "ticks": 69822,
          "time": 134.2730881125,
          "value": 0.4842529296875
        },
        {
          "ticks": 69829,
          "time": 134.28654965208332,
          "value": 0.4849853515625
        },
        {
          "ticks": 69837,
          "time": 134.30193426875,
          "value": 0.4857177734375
        },
        {
          "ticks": 69844,
          "time": 134.3153958083333,
          "value": 0.486572265625
        },
        {
          "ticks": 69852,
          "time": 134.330780425,
          "value": 0.4873046875
        },
        {
          "ticks": 69859,
          "time": 134.34424196458332,
          "value": 0.4881591796875
        },
        {
          "ticks": 69860,
          "time": 134.34616504166664,
          "value": 0.48828125
        },
        {
          "ticks": 69868,
          "time": 134.36154965833333,
          "value": 0.58203125
        },
        {
          "ticks": 69875,
          "time": 134.37501119791665,
          "value": 0.6759033203125
        },
        {
          "ticks": 69883,
          "time": 134.39039581458331,
          "value": 0.769775390625
        },
        {
          "ticks": 69890,
          "time": 134.40385735416666,
          "value": 0.8636474609375
        },
        {
          "ticks": 69898,
          "time": 134.41924197083333,
          "value": 0.9573974609375
        },
        {
          "ticks": 69900,
          "time": 134.423088125,
          "value": 0.98876953125
        },
        {
          "ticks": 69902,
          "time": 134.42693427916666,
          "value": 0.494384765625
        },
        {
          "ticks": 69904,
          "time": 134.43078043333333,
          "value": 0
        },
        {
          "ticks": 69912,
          "time": 134.44616505,
          "value": 0.000244140625
        },
        {
          "ticks": 69919,
          "time": 134.4596265895833,
          "value": 0.00048828125
        },
        {
          "ticks": 69927,
          "time": 134.47501120625,
          "value": 0.0008544921875
        },
        {
          "ticks": 69934,
          "time": 134.48847274583332,
          "value": 0.0010986328125
        },
        {
          "ticks": 69942,
          "time": 134.50385736249999,
          "value": 0.00146484375
        },
        {
          "ticks": 69949,
          "time": 134.5173189020833,
          "value": 0.001708984375
        },
        {
          "ticks": 69956,
          "time": 134.53078044166665,
          "value": 0.0020751953125
        },
        {
          "ticks": 69964,
          "time": 134.54616505833332,
          "value": 0.0023193359375
        },
        {
          "ticks": 69972,
          "time": 134.56154967499998,
          "value": 0.002685546875
        },
        {
          "ticks": 69979,
          "time": 134.57501121458333,
          "value": 0.0029296875
        },
        {
          "ticks": 69987,
          "time": 134.59039583125,
          "value": 0.0032958984375
        },
        {
          "ticks": 69994,
          "time": 134.6038573708333,
          "value": 0.0035400390625
        },
        {
          "ticks": 70002,
          "time": 134.6192419875,
          "value": 0.00390625
        },
        {
          "ticks": 70009,
          "time": 134.63270352708332,
          "value": 0.004150390625
        },
        {
          "ticks": 70017,
          "time": 134.64808814375,
          "value": 0.00439453125
        },
        {
          "ticks": 70024,
          "time": 134.6615496833333,
          "value": 0.0047607421875
        },
        {
          "ticks": 70032,
          "time": 134.6769343,
          "value": 0.0050048828125
        },
        {
          "ticks": 70039,
          "time": 134.69039583958332,
          "value": 0.00537109375
        },
        {
          "ticks": 70047,
          "time": 134.70578045624998,
          "value": 0.005615234375
        },
        {
          "ticks": 70054,
          "time": 134.71924199583333,
          "value": 0.0059814453125
        },
        {
          "ticks": 70062,
          "time": 134.7346266125,
          "value": 0.0062255859375
        },
        {
          "ticks": 70069,
          "time": 134.7480881520833,
          "value": 0.006591796875
        },
        {
          "ticks": 70076,
          "time": 134.76154969166666,
          "value": 0.0068359375
        },
        {
          "ticks": 70084,
          "time": 134.77693430833332,
          "value": 0.0072021484375
        },
        {
          "ticks": 70092,
          "time": 134.792318925,
          "value": 0.0074462890625
        },
        {
          "ticks": 70099,
          "time": 134.8057804645833,
          "value": 0.0078125
        },
        {
          "ticks": 70107,
          "time": 134.82116508125,
          "value": 0.008056640625
        },
        {
          "ticks": 70114,
          "time": 134.83462662083332,
          "value": 0.0084228515625
        },
        {
          "ticks": 70122,
          "time": 134.85001123749998,
          "value": 0.0086669921875
        },
        {
          "ticks": 70129,
          "time": 134.8634727770833,
          "value": 0.0089111328125
        },
        {
          "ticks": 70137,
          "time": 134.87885739375,
          "value": 0.00927734375
        },
        {
          "ticks": 70144,
          "time": 134.8923189333333,
          "value": 0.009521484375
        },
        {
          "ticks": 70152,
          "time": 134.90770355,
          "value": 0.0098876953125
        },
        {
          "ticks": 70159,
          "time": 134.92116508958333,
          "value": 0.0101318359375
        },
        {
          "ticks": 70167,
          "time": 134.93654970625,
          "value": 0.010498046875
        },
        {
          "ticks": 70174,
          "time": 134.9500112458333,
          "value": 0.0107421875
        },
        {
          "ticks": 70182,
          "time": 134.9653958625,
          "value": 0.0111083984375
        },
        {
          "ticks": 70189,
          "time": 134.97885740208332,
          "value": 0.0113525390625
        },
        {
          "ticks": 70197,
          "time": 134.99424201875,
          "value": 0.01171875
        },
        {
          "ticks": 70204,
          "time": 135.0077035583333,
          "value": 0.011962890625
        },
        {
          "ticks": 70212,
          "time": 135.023088175,
          "value": 0.0123291015625
        },
        {
          "ticks": 70219,
          "time": 135.03654971458332,
          "value": 0.0125732421875
        },
        {
          "ticks": 70227,
          "time": 135.05193433124998,
          "value": 0.012939453125
        },
        {
          "ticks": 70234,
          "time": 135.06539587083333,
          "value": 0.01318359375
        },
        {
          "ticks": 70242,
          "time": 135.0807804875,
          "value": 0.013427734375
        },
        {
          "ticks": 70249,
          "time": 135.0942420270833,
          "value": 0.0137939453125
        },
        {
          "ticks": 70257,
          "time": 135.10962664375,
          "value": 0.0140380859375
        },
        {
          "ticks": 70264,
          "time": 135.12308818333332,
          "value": 0.014404296875
        },
        {
          "ticks": 70272,
          "time": 135.1384728,
          "value": 0.0146484375
        },
        {
          "ticks": 70279,
          "time": 135.1519343395833,
          "value": 0.0150146484375
        },
        {
          "ticks": 70287,
          "time": 135.16731895625,
          "value": 0.0152587890625
        },
        {
          "ticks": 70294,
          "time": 135.18078049583332,
          "value": 0.015625
        },
        {
          "ticks": 70302,
          "time": 135.19616511249998,
          "value": 0.015869140625
        },
        {
          "ticks": 70309,
          "time": 135.2096266520833,
          "value": 0.0162353515625
        },
        {
          "ticks": 70317,
          "time": 135.22501126875,
          "value": 0.0164794921875
        },
        {
          "ticks": 70324,
          "time": 135.2384728083333,
          "value": 0.016845703125
        },
        {
          "ticks": 70332,
          "time": 135.253857425,
          "value": 0.01708984375
        },
        {
          "ticks": 70339,
          "time": 135.26731896458332,
          "value": 0.0174560546875
        },
        {
          "ticks": 70347,
          "time": 135.28270358125,
          "value": 0.0177001953125
        },
        {
          "ticks": 70354,
          "time": 135.2961651208333,
          "value": 0.0179443359375
        },
        {
          "ticks": 70362,
          "time": 135.3115497375,
          "value": 0.018310546875
        },
        {
          "ticks": 70369,
          "time": 135.32501127708332,
          "value": 0.0185546875
        },
        {
          "ticks": 70377,
          "time": 135.34039589374999,
          "value": 0.0189208984375
        },
        {
          "ticks": 70384,
          "time": 135.3538574333333,
          "value": 0.0191650390625
        },
        {
          "ticks": 70392,
          "time": 135.36924205,
          "value": 0.01953125
        },
        {
          "ticks": 70399,
          "time": 135.38270358958331,
          "value": 0.019775390625
        },
        {
          "ticks": 70407,
          "time": 135.39808820624998,
          "value": 0.0201416015625
        },
        {
          "ticks": 70414,
          "time": 135.41154974583333,
          "value": 0.0203857421875
        },
        {
          "ticks": 70422,
          "time": 135.4269343625,
          "value": 0.020751953125
        },
        {
          "ticks": 70429,
          "time": 135.4403959020833,
          "value": 0.02099609375
        },
        {
          "ticks": 70437,
          "time": 135.45578051875,
          "value": 0.0213623046875
        },
        {
          "ticks": 70444,
          "time": 135.46924205833332,
          "value": 0.0216064453125
        },
        {
          "ticks": 70452,
          "time": 135.484626675,
          "value": 0.02197265625
        },
        {
          "ticks": 70459,
          "time": 135.4980882145833,
          "value": 0.022216796875
        },
        {
          "ticks": 70467,
          "time": 135.51347283125,
          "value": 0.0224609375
        },
        {
          "ticks": 70474,
          "time": 135.52693437083332,
          "value": 0.0228271484375
        },
        {
          "ticks": 70482,
          "time": 135.54231898749998,
          "value": 0.0230712890625
        },
        {
          "ticks": 70489,
          "time": 135.55578052708333,
          "value": 0.0234375
        },
        {
          "ticks": 70497,
          "time": 135.57116514375,
          "value": 0.023681640625
        },
        {
          "ticks": 70504,
          "time": 135.5846266833333,
          "value": 0.0240478515625
        },
        {
          "ticks": 70512,
          "time": 135.6000113,
          "value": 0.0242919921875
        },
        {
          "ticks": 70519,
          "time": 135.61347283958332,
          "value": 0.024658203125
        },
        {
          "ticks": 70527,
          "time": 135.62885745625,
          "value": 0.02490234375
        },
        {
          "ticks": 70534,
          "time": 135.6423189958333,
          "value": 0.0252685546875
        },
        {
          "ticks": 70542,
          "time": 135.6577036125,
          "value": 0.0255126953125
        },
        {
          "ticks": 70549,
          "time": 135.67116515208332,
          "value": 0.02587890625
        },
        {
          "ticks": 70556,
          "time": 135.68462669166667,
          "value": 0.026123046875
        },
        {
          "ticks": 70564,
          "time": 135.7000113083333,
          "value": 0.0264892578125
        },
        {
          "ticks": 70572,
          "time": 135.715395925,
          "value": 0.0267333984375
        },
        {
          "ticks": 70579,
          "time": 135.7288574645833,
          "value": 0.0269775390625
        },
        {
          "ticks": 70587,
          "time": 135.74424208125,
          "value": 0.02734375
        },
        {
          "ticks": 70594,
          "time": 135.75770362083333,
          "value": 0.027587890625
        },
        {
          "ticks": 70602,
          "time": 135.7730882375,
          "value": 0.0279541015625
        },
        {
          "ticks": 70609,
          "time": 135.7865497770833,
          "value": 0.0281982421875
        },
        {
          "ticks": 70617,
          "time": 135.80193439375,
          "value": 0.028564453125
        },
        {
          "ticks": 70624,
          "time": 135.81539593333332,
          "value": 0.02880859375
        },
        {
          "ticks": 70632,
          "time": 135.83078055,
          "value": 0.0291748046875
        },
        {
          "ticks": 70639,
          "time": 135.8442420895833,
          "value": 0.0294189453125
        },
        {
          "ticks": 70647,
          "time": 135.85962670625,
          "value": 0.02978515625
        },
        {
          "ticks": 70654,
          "time": 135.87308824583332,
          "value": 0.030029296875
        },
        {
          "ticks": 70662,
          "time": 135.88847286249998,
          "value": 0.0303955078125
        },
        {
          "ticks": 70669,
          "time": 135.90193440208333,
          "value": 0.0306396484375
        },
        {
          "ticks": 70677,
          "time": 135.91731901875,
          "value": 0.031005859375
        },
        {
          "ticks": 70684,
          "time": 135.9307805583333,
          "value": 0.03125
        },
        {
          "ticks": 70692,
          "time": 135.946165175,
          "value": 0.031494140625
        },
        {
          "ticks": 70699,
          "time": 135.95962671458332,
          "value": 0.0318603515625
        },
        {
          "ticks": 70707,
          "time": 135.97501133125,
          "value": 0.0321044921875
        },
        {
          "ticks": 70714,
          "time": 135.9884728708333,
          "value": 0.032470703125
        },
        {
          "ticks": 70722,
          "time": 136.0038574875,
          "value": 0.03271484375
        },
        {
          "ticks": 70729,
          "time": 136.01731902708332,
          "value": 0.0330810546875
        },
        {
          "ticks": 70737,
          "time": 136.03270364374998,
          "value": 0.0333251953125
        },
        {
          "ticks": 70744,
          "time": 136.04616518333333,
          "value": 0.03369140625
        },
        {
          "ticks": 70752,
          "time": 136.0615498,
          "value": 0.033935546875
        },
        {
          "ticks": 70759,
          "time": 136.0750113395833,
          "value": 0.0343017578125
        },
        {
          "ticks": 70767,
          "time": 136.09039595625,
          "value": 0.0345458984375
        },
        {
          "ticks": 70774,
          "time": 136.10385749583332,
          "value": 0.034912109375
        },
        {
          "ticks": 70782,
          "time": 136.1192421125,
          "value": 0.03515625
        },
        {
          "ticks": 70789,
          "time": 136.1327036520833,
          "value": 0.0355224609375
        },
        {
          "ticks": 70797,
          "time": 136.14808826875,
          "value": 0.0357666015625
        },
        {
          "ticks": 70804,
          "time": 136.16154980833332,
          "value": 0.0360107421875
        },
        {
          "ticks": 70812,
          "time": 136.17693442499998,
          "value": 0.036376953125
        },
        {
          "ticks": 70819,
          "time": 136.1903959645833,
          "value": 0.03662109375
        },
        {
          "ticks": 70827,
          "time": 136.20578058125,
          "value": 0.0369873046875
        },
        {
          "ticks": 70834,
          "time": 136.21924212083331,
          "value": 0.0372314453125
        },
        {
          "ticks": 70842,
          "time": 136.2346267375,
          "value": 0.03759765625
        },
        {
          "ticks": 70849,
          "time": 136.24808827708333,
          "value": 0.037841796875
        },
        {
          "ticks": 70857,
          "time": 136.26347289375,
          "value": 0.0382080078125
        },
        {
          "ticks": 70864,
          "time": 136.2769344333333,
          "value": 0.0384521484375
        },
        {
          "ticks": 70872,
          "time": 136.29231905,
          "value": 0.038818359375
        },
        {
          "ticks": 70879,
          "time": 136.30578058958332,
          "value": 0.0390625
        },
        {
          "ticks": 70887,
          "time": 136.32116520625,
          "value": 0.0394287109375
        },
        {
          "ticks": 70894,
          "time": 136.3346267458333,
          "value": 0.0396728515625
        },
        {
          "ticks": 70902,
          "time": 136.3500113625,
          "value": 0.0400390625
        },
        {
          "ticks": 70909,
          "time": 136.36347290208332,
          "value": 0.040283203125
        },
        {
          "ticks": 70916,
          "time": 136.37693444166666,
          "value": 0.04052734375
        },
        {
          "ticks": 70924,
          "time": 136.39231905833333,
          "value": 0.0408935546875
        },
        {
          "ticks": 70932,
          "time": 136.407703675,
          "value": 0.0411376953125
        },
        {
          "ticks": 70939,
          "time": 136.4211652145833,
          "value": 0.04150390625
        },
        {
          "ticks": 70947,
          "time": 136.43654983125,
          "value": 0.041748046875
        },
        {
          "ticks": 70954,
          "time": 136.45001137083332,
          "value": 0.0421142578125
        },
        {
          "ticks": 70962,
          "time": 136.4653959875,
          "value": 0.0423583984375
        },
        {
          "ticks": 70969,
          "time": 136.4788575270833,
          "value": 0.042724609375
        },
        {
          "ticks": 70977,
          "time": 136.49424214375,
          "value": 0.04296875
        },
        {
          "ticks": 70984,
          "time": 136.50770368333332,
          "value": 0.0433349609375
        },
        {
          "ticks": 70992,
          "time": 136.52308829999998,
          "value": 0.0435791015625
        },
        {
          "ticks": 70999,
          "time": 136.5365498395833,
          "value": 0.0439453125
        },
        {
          "ticks": 71007,
          "time": 136.55193445625,
          "value": 0.044189453125
        },
        {
          "ticks": 71014,
          "time": 136.5653959958333,
          "value": 0.0445556640625
        },
        {
          "ticks": 71022,
          "time": 136.5807806125,
          "value": 0.0447998046875
        },
        {
          "ticks": 71029,
          "time": 136.59424215208332,
          "value": 0.0450439453125
        },
        {
          "ticks": 71036,
          "time": 136.60770369166667,
          "value": 0.04541015625
        },
        {
          "ticks": 71044,
          "time": 136.6230883083333,
          "value": 0.045654296875
        },
        {
          "ticks": 71052,
          "time": 136.638472925,
          "value": 0.0460205078125
        },
        {
          "ticks": 71059,
          "time": 136.65193446458332,
          "value": 0.0462646484375
        },
        {
          "ticks": 71067,
          "time": 136.66731908124999,
          "value": 0.046630859375
        },
        {
          "ticks": 71074,
          "time": 136.6807806208333,
          "value": 0.046875
        },
        {
          "ticks": 71082,
          "time": 136.6961652375,
          "value": 0.0472412109375
        },
        {
          "ticks": 71089,
          "time": 136.70962677708332,
          "value": 0.0474853515625
        },
        {
          "ticks": 71097,
          "time": 136.72501139374998,
          "value": 0.0478515625
        },
        {
          "ticks": 71104,
          "time": 136.73847293333333,
          "value": 0.048095703125
        },
        {
          "ticks": 71112,
          "time": 136.75385755,
          "value": 0.0484619140625
        },
        {
          "ticks": 71119,
          "time": 136.7673190895833,
          "value": 0.0487060546875
        },
        {
          "ticks": 71127,
          "time": 136.78270370625,
          "value": 0.049072265625
        },
        {
          "ticks": 71134,
          "time": 136.79616524583332,
          "value": 0.04931640625
        },
        {
          "ticks": 71142,
          "time": 136.8115498625,
          "value": 0.049560546875
        },
        {
          "ticks": 71149,
          "time": 136.8250114020833,
          "value": 0.0499267578125
        },
        {
          "ticks": 71157,
          "time": 136.84039601875,
          "value": 0.0501708984375
        },
        {
          "ticks": 71164,
          "time": 136.85385755833332,
          "value": 0.050537109375
        },
        {
          "ticks": 71172,
          "time": 136.86924217499998,
          "value": 0.05078125
        },
        {
          "ticks": 71179,
          "time": 136.88270371458333,
          "value": 0.0511474609375
        },
        {
          "ticks": 71187,
          "time": 136.89808833125,
          "value": 0.0513916015625
        },
        {
          "ticks": 71194,
          "time": 136.9115498708333,
          "value": 0.0517578125
        },
        {
          "ticks": 71202,
          "time": 136.9269344875,
          "value": 0.052001953125
        },
        {
          "ticks": 71209,
          "time": 136.94039602708332,
          "value": 0.0523681640625
        },
        {
          "ticks": 71217,
          "time": 136.95578064375,
          "value": 0.0526123046875
        },
        {
          "ticks": 71224,
          "time": 136.9692421833333,
          "value": 0.052978515625
        },
        {
          "ticks": 71232,
          "time": 136.9846268,
          "value": 0.05322265625
        },
        {
          "ticks": 71239,
          "time": 136.99808833958332,
          "value": 0.0535888671875
        },
        {
          "ticks": 71247,
          "time": 137.01347295624998,
          "value": 0.0538330078125
        },
        {
          "ticks": 71254,
          "time": 137.0269344958333,
          "value": 0.0540771484375
        },
        {
          "ticks": 71262,
          "time": 137.0423191125,
          "value": 0.054443359375
        },
        {
          "ticks": 71269,
          "time": 137.0557806520833,
          "value": 0.0546875
        },
        {
          "ticks": 71277,
          "time": 137.07116526875,
          "value": 0.0550537109375
        },
        {
          "ticks": 71284,
          "time": 137.08462680833333,
          "value": 0.0552978515625
        },
        {
          "ticks": 71292,
          "time": 137.100011425,
          "value": 0.0556640625
        },
        {
          "ticks": 71299,
          "time": 137.1134729645833,
          "value": 0.055908203125
        },
        {
          "ticks": 71307,
          "time": 137.12885758125,
          "value": 0.0562744140625
        },
        {
          "ticks": 71314,
          "time": 137.14231912083332,
          "value": 0.0565185546875
        },
        {
          "ticks": 71322,
          "time": 137.1577037375,
          "value": 0.056884765625
        },
        {
          "ticks": 71329,
          "time": 137.1711652770833,
          "value": 0.05712890625
        },
        {
          "ticks": 71337,
          "time": 137.18654989375,
          "value": 0.0574951171875
        },
        {
          "ticks": 71344,
          "time": 137.20001143333332,
          "value": 0.0577392578125
        },
        {
          "ticks": 71352,
          "time": 137.21539604999998,
          "value": 0.0579833984375
        },
        {
          "ticks": 71359,
          "time": 137.22885758958333,
          "value": 0.058349609375
        },
        {
          "ticks": 71367,
          "time": 137.24424220625,
          "value": 0.05859375
        },
        {
          "ticks": 71374,
          "time": 137.2577037458333,
          "value": 0.0589599609375
        },
        {
          "ticks": 71382,
          "time": 137.2730883625,
          "value": 0.0592041015625
        },
        {
          "ticks": 71389,
          "time": 137.28654990208332,
          "value": 0.0595703125
        },
        {
          "ticks": 71397,
          "time": 137.30193451875,
          "value": 0.059814453125
        },
        {
          "ticks": 71404,
          "time": 137.3153960583333,
          "value": 0.0601806640625
        },
        {
          "ticks": 71412,
          "time": 137.330780675,
          "value": 0.0604248046875
        },
        {
          "ticks": 71419,
          "time": 137.34424221458332,
          "value": 0.060791015625
        },
        {
          "ticks": 71427,
          "time": 137.35962683124998,
          "value": 0.06103515625
        },
        {
          "ticks": 71434,
          "time": 137.3730883708333,
          "value": 0.0614013671875
        },
        {
          "ticks": 71442,
          "time": 137.3884729875,
          "value": 0.0616455078125
        },
        {
          "ticks": 71449,
          "time": 137.4019345270833,
          "value": 0.06201171875
        },
        {
          "ticks": 71457,
          "time": 137.41731914375,
          "value": 0.062255859375
        },
        {
          "ticks": 71464,
          "time": 137.43078068333332,
          "value": 0.0625
        },
        {
          "ticks": 71472,
          "time": 137.4461653,
          "value": 0.0628662109375
        },
        {
          "ticks": 71479,
          "time": 137.4596268395833,
          "value": 0.0631103515625
        },
        {
          "ticks": 71487,
          "time": 137.47501145625,
          "value": 0.0634765625
        },
        {
          "ticks": 71494,
          "time": 137.48847299583332,
          "value": 0.063720703125
        },
        {
          "ticks": 71502,
          "time": 137.50385761249998,
          "value": 0.0640869140625
        },
        {
          "ticks": 71509,
          "time": 137.5173191520833,
          "value": 0.0643310546875
        },
        {
          "ticks": 71517,
          "time": 137.53270376875,
          "value": 0.064697265625
        },
        {
          "ticks": 71524,
          "time": 137.54616530833331,
          "value": 0.06494140625
        },
        {
          "ticks": 71532,
          "time": 137.56154992499998,
          "value": 0.0653076171875
        },
        {
          "ticks": 71539,
          "time": 137.57501146458333,
          "value": 0.0655517578125
        },
        {
          "ticks": 71547,
          "time": 137.59039608125,
          "value": 0.06591796875
        },
        {
          "ticks": 71554,
          "time": 137.6038576208333,
          "value": 0.066162109375
        },
        {
          "ticks": 71562,
          "time": 137.6192422375,
          "value": 0.0665283203125
        },
        {
          "ticks": 71569,
          "time": 137.63270377708332,
          "value": 0.0667724609375
        },
        {
          "ticks": 71577,
          "time": 137.64808839375,
          "value": 0.0670166015625
        },
        {
          "ticks": 71584,
          "time": 137.6615499333333,
          "value": 0.0673828125
        },
        {
          "ticks": 71592,
          "time": 137.67693455,
          "value": 0.067626953125
        },
        {
          "ticks": 71599,
          "time": 137.69039608958332,
          "value": 0.0679931640625
        },
        {
          "ticks": 71607,
          "time": 137.70578070624998,
          "value": 0.0682373046875
        },
        {
          "ticks": 71614,
          "time": 137.71924224583333,
          "value": 0.068603515625
        },
        {
          "ticks": 71622,
          "time": 137.7346268625,
          "value": 0.06884765625
        },
        {
          "ticks": 71629,
          "time": 137.7480884020833,
          "value": 0.0692138671875
        },
        {
          "ticks": 71637,
          "time": 137.76347301875,
          "value": 0.0694580078125
        },
        {
          "ticks": 71644,
          "time": 137.77693455833332,
          "value": 0.06982421875
        },
        {
          "ticks": 71652,
          "time": 137.792319175,
          "value": 0.070068359375
        },
        {
          "ticks": 71659,
          "time": 137.8057807145833,
          "value": 0.0704345703125
        },
        {
          "ticks": 71667,
          "time": 137.82116533125,
          "value": 0.0706787109375
        },
        {
          "ticks": 71674,
          "time": 137.83462687083332,
          "value": 0.071044921875
        },
        {
          "ticks": 71682,
          "time": 137.85001148749998,
          "value": 0.0712890625
        },
        {
          "ticks": 71689,
          "time": 137.8634730270833,
          "value": 0.071533203125
        },
        {
          "ticks": 71697,
          "time": 137.87885764375,
          "value": 0.0718994140625
        },
        {
          "ticks": 71704,
          "time": 137.8923191833333,
          "value": 0.0721435546875
        },
        {
          "ticks": 71712,
          "time": 137.9077038,
          "value": 0.072509765625
        },
        {
          "ticks": 71719,
          "time": 137.92116533958333,
          "value": 0.07275390625
        },
        {
          "ticks": 71727,
          "time": 137.93654995625,
          "value": 0.0731201171875
        },
        {
          "ticks": 71734,
          "time": 137.9500114958333,
          "value": 0.0733642578125
        },
        {
          "ticks": 71742,
          "time": 137.9653961125,
          "value": 0.07373046875
        },
        {
          "ticks": 71749,
          "time": 137.97885765208332,
          "value": 0.073974609375
        },
        {
          "ticks": 71757,
          "time": 137.99424226874999,
          "value": 0.0743408203125
        },
        {
          "ticks": 71764,
          "time": 138.0077038083333,
          "value": 0.0745849609375
        },
        {
          "ticks": 71772,
          "time": 138.023088425,
          "value": 0.074951171875
        },
        {
          "ticks": 71779,
          "time": 138.03654996458332,
          "value": 0.0751953125
        },
        {
          "ticks": 71787,
          "time": 138.05193458124998,
          "value": 0.0755615234375
        },
        {
          "ticks": 71794,
          "time": 138.06539612083333,
          "value": 0.0758056640625
        },
        {
          "ticks": 71802,
          "time": 138.0807807375,
          "value": 0.0760498046875
        },
        {
          "ticks": 71809,
          "time": 138.0942422770833,
          "value": 0.076416015625
        },
        {
          "ticks": 71817,
          "time": 138.10962689375,
          "value": 0.07666015625
        },
        {
          "ticks": 71824,
          "time": 138.12308843333332,
          "value": 0.0770263671875
        },
        {
          "ticks": 71832,
          "time": 138.13847305,
          "value": 0.0772705078125
        },
        {
          "ticks": 71839,
          "time": 138.1519345895833,
          "value": 0.07763671875
        },
        {
          "ticks": 71847,
          "time": 138.16731920625,
          "value": 0.077880859375
        },
        {
          "ticks": 71854,
          "time": 138.18078074583332,
          "value": 0.0782470703125
        },
        {
          "ticks": 71862,
          "time": 138.19616536249998,
          "value": 0.0784912109375
        },
        {
          "ticks": 71869,
          "time": 138.20962690208333,
          "value": 0.078857421875
        },
        {
          "ticks": 71877,
          "time": 138.22501151875,
          "value": 0.0791015625
        },
        {
          "ticks": 71884,
          "time": 138.2384730583333,
          "value": 0.0794677734375
        },
        {
          "ticks": 71892,
          "time": 138.253857675,
          "value": 0.0797119140625
        },
        {
          "ticks": 71899,
          "time": 138.26731921458332,
          "value": 0.080078125
        },
        {
          "ticks": 71907,
          "time": 138.28270383125,
          "value": 0.080322265625
        },
        {
          "ticks": 71914,
          "time": 138.2961653708333,
          "value": 0.08056640625
        },
        {
          "ticks": 71922,
          "time": 138.3115499875,
          "value": 0.0809326171875
        },
        {
          "ticks": 71929,
          "time": 138.32501152708332,
          "value": 0.0811767578125
        },
        {
          "ticks": 71937,
          "time": 138.34039614374998,
          "value": 0.08154296875
        },
        {
          "ticks": 71944,
          "time": 138.3538576833333,
          "value": 0.081787109375
        },
        {
          "ticks": 71952,
          "time": 138.3692423,
          "value": 0.0821533203125
        },
        {
          "ticks": 71959,
          "time": 138.38270383958331,
          "value": 0.0823974609375
        },
        {
          "ticks": 71967,
          "time": 138.39808845625,
          "value": 0.082763671875
        },
        {
          "ticks": 71974,
          "time": 138.41154999583333,
          "value": 0.0830078125
        },
        {
          "ticks": 71982,
          "time": 138.4269346125,
          "value": 0.0833740234375
        },
        {
          "ticks": 71989,
          "time": 138.4403961520833,
          "value": 0.0836181640625
        },
        {
          "ticks": 71996,
          "time": 138.45385769166666,
          "value": 0.083984375
        },
        {
          "ticks": 72004,
          "time": 138.46924230833332,
          "value": 0.084228515625
        },
        {
          "ticks": 72012,
          "time": 138.484626925,
          "value": 0.0845947265625
        },
        {
          "ticks": 72019,
          "time": 138.4980884645833,
          "value": 0.0848388671875
        },
        {
          "ticks": 72027,
          "time": 138.51347308125,
          "value": 0.0850830078125
        },
        {
          "ticks": 72034,
          "time": 138.52693462083332,
          "value": 0.08544921875
        },
        {
          "ticks": 72042,
          "time": 138.54231923749998,
          "value": 0.085693359375
        },
        {
          "ticks": 72049,
          "time": 138.55578077708333,
          "value": 0.0860595703125
        },
        {
          "ticks": 72057,
          "time": 138.57116539375,
          "value": 0.0863037109375
        },
        {
          "ticks": 72064,
          "time": 138.5846269333333,
          "value": 0.086669921875
        },
        {
          "ticks": 72072,
          "time": 138.60001155,
          "value": 0.0869140625
        },
        {
          "ticks": 72079,
          "time": 138.61347308958332,
          "value": 0.0872802734375
        },
        {
          "ticks": 72087,
          "time": 138.62885770625,
          "value": 0.0875244140625
        },
        {
          "ticks": 72094,
          "time": 138.6423192458333,
          "value": 0.087890625
        },
        {
          "ticks": 72102,
          "time": 138.6577038625,
          "value": 0.088134765625
        },
        {
          "ticks": 72109,
          "time": 138.67116540208332,
          "value": 0.0885009765625
        },
        {
          "ticks": 72117,
          "time": 138.68655001874998,
          "value": 0.0887451171875
        },
        {
          "ticks": 72124,
          "time": 138.7000115583333,
          "value": 0.089111328125
        },
        {
          "ticks": 72132,
          "time": 138.715396175,
          "value": 0.08935546875
        },
        {
          "ticks": 72139,
          "time": 138.7288577145833,
          "value": 0.089599609375
        },
        {
          "ticks": 72147,
          "time": 138.74424233125,
          "value": 0.0899658203125
        },
        {
          "ticks": 72154,
          "time": 138.75770387083332,
          "value": 0.0902099609375
        },
        {
          "ticks": 72162,
          "time": 138.7730884875,
          "value": 0.090576171875
        },
        {
          "ticks": 72169,
          "time": 138.7865500270833,
          "value": 0.0908203125
        },
        {
          "ticks": 72177,
          "time": 138.80193464375,
          "value": 0.0911865234375
        },
        {
          "ticks": 72184,
          "time": 138.81539618333332,
          "value": 0.0914306640625
        },
        {
          "ticks": 72192,
          "time": 138.83078079999999,
          "value": 0.091796875
        },
        {
          "ticks": 72199,
          "time": 138.8442423395833,
          "value": 0.092041015625
        },
        {
          "ticks": 72207,
          "time": 138.85962695625,
          "value": 0.0924072265625
        },
        {
          "ticks": 72214,
          "time": 138.87308849583331,
          "value": 0.0926513671875
        },
        {
          "ticks": 72222,
          "time": 138.88847311249998,
          "value": 0.093017578125
        },
        {
          "ticks": 72229,
          "time": 138.90193465208333,
          "value": 0.09326171875
        },
        {
          "ticks": 72237,
          "time": 138.91731926875,
          "value": 0.0936279296875
        },
        {
          "ticks": 72244,
          "time": 138.9307808083333,
          "value": 0.0938720703125
        },
        {
          "ticks": 72252,
          "time": 138.946165425,
          "value": 0.0941162109375
        },
        {
          "ticks": 72259,
          "time": 138.95962696458332,
          "value": 0.094482421875
        },
        {
          "ticks": 72267,
          "time": 138.97501158125,
          "value": 0.0947265625
        },
        {
          "ticks": 72274,
          "time": 138.9884731208333,
          "value": 0.0950927734375
        },
        {
          "ticks": 72282,
          "time": 139.0038577375,
          "value": 0.0953369140625
        },
        {
          "ticks": 72289,
          "time": 139.01731927708332,
          "value": 0.095703125
        },
        {
          "ticks": 72297,
          "time": 139.03270389374998,
          "value": 0.095947265625
        },
        {
          "ticks": 72304,
          "time": 139.04616543333333,
          "value": 0.0963134765625
        },
        {
          "ticks": 72312,
          "time": 139.06155005,
          "value": 0.0965576171875
        },
        {
          "ticks": 72319,
          "time": 139.0750115895833,
          "value": 0.096923828125
        },
        {
          "ticks": 72327,
          "time": 139.09039620625,
          "value": 0.09716796875
        },
        {
          "ticks": 72334,
          "time": 139.10385774583332,
          "value": 0.0975341796875
        },
        {
          "ticks": 72342,
          "time": 139.1192423625,
          "value": 0.0977783203125
        },
        {
          "ticks": 72349,
          "time": 139.1327039020833,
          "value": 0.09814453125
        },
        {
          "ticks": 72357,
          "time": 139.14808851875,
          "value": 0.098388671875
        },
        {
          "ticks": 72364,
          "time": 139.16155005833332,
          "value": 0.0986328125
        },
        {
          "ticks": 72372,
          "time": 139.17693467499998,
          "value": 0.0989990234375
        },
        {
          "ticks": 72379,
          "time": 139.1903962145833,
          "value": 0.0992431640625
        },
        {
          "ticks": 72387,
          "time": 139.20578083125,
          "value": 0.099609375
        },
        {
          "ticks": 72394,
          "time": 139.2192423708333,
          "value": 0.099853515625
        },
        {
          "ticks": 72402,
          "time": 139.2346269875,
          "value": 0.1002197265625
        },
        {
          "ticks": 72409,
          "time": 139.24808852708333,
          "value": 0.1004638671875
        },
        {
          "ticks": 72417,
          "time": 139.26347314375,
          "value": 0.100830078125
        },
        {
          "ticks": 72424,
          "time": 139.2769346833333,
          "value": 0.10107421875
        },
        {
          "ticks": 72432,
          "time": 139.2923193,
          "value": 0.1014404296875
        },
        {
          "ticks": 72439,
          "time": 139.30578083958332,
          "value": 0.1016845703125
        },
        {
          "ticks": 72447,
          "time": 139.32116545625,
          "value": 0.10205078125
        },
        {
          "ticks": 72454,
          "time": 139.3346269958333,
          "value": 0.102294921875
        },
        {
          "ticks": 72462,
          "time": 139.3500116125,
          "value": 0.1026611328125
        },
        {
          "ticks": 72469,
          "time": 139.36347315208332,
          "value": 0.1029052734375
        },
        {
          "ticks": 72477,
          "time": 139.37885776874998,
          "value": 0.1031494140625
        },
        {
          "ticks": 72484,
          "time": 139.39231930833333,
          "value": 0.103515625
        },
        {
          "ticks": 72492,
          "time": 139.407703925,
          "value": 0.103759765625
        },
        {
          "ticks": 72499,
          "time": 139.4211654645833,
          "value": 0.1041259765625
        },
        {
          "ticks": 72507,
          "time": 139.43655008125,
          "value": 0.1043701171875
        },
        {
          "ticks": 72514,
          "time": 139.45001162083332,
          "value": 0.104736328125
        },
        {
          "ticks": 72522,
          "time": 139.4653962375,
          "value": 0.10498046875
        },
        {
          "ticks": 72529,
          "time": 139.4788577770833,
          "value": 0.1053466796875
        },
        {
          "ticks": 72537,
          "time": 139.49424239375,
          "value": 0.1055908203125
        },
        {
          "ticks": 72544,
          "time": 139.50770393333332,
          "value": 0.10595703125
        },
        {
          "ticks": 72552,
          "time": 139.52308854999998,
          "value": 0.106201171875
        },
        {
          "ticks": 72559,
          "time": 139.5365500895833,
          "value": 0.1065673828125
        },
        {
          "ticks": 72567,
          "time": 139.55193470625,
          "value": 0.1068115234375
        },
        {
          "ticks": 72574,
          "time": 139.5653962458333,
          "value": 0.107177734375
        },
        {
          "ticks": 72582,
          "time": 139.5807808625,
          "value": 0.107421875
        },
        {
          "ticks": 72589,
          "time": 139.59424240208332,
          "value": 0.107666015625
        },
        {
          "ticks": 72597,
          "time": 139.60962701875,
          "value": 0.1080322265625
        },
        {
          "ticks": 72604,
          "time": 139.6230885583333,
          "value": 0.1082763671875
        },
        {
          "ticks": 72612,
          "time": 139.638473175,
          "value": 0.108642578125
        },
        {
          "ticks": 72619,
          "time": 139.65193471458332,
          "value": 0.10888671875
        },
        {
          "ticks": 72627,
          "time": 139.66731933124998,
          "value": 0.1092529296875
        },
        {
          "ticks": 72634,
          "time": 139.6807808708333,
          "value": 0.1094970703125
        },
        {
          "ticks": 72642,
          "time": 139.6961654875,
          "value": 0.10986328125
        },
        {
          "ticks": 72649,
          "time": 139.70962702708331,
          "value": 0.110107421875
        },
        {
          "ticks": 72657,
          "time": 139.72501164374998,
          "value": 0.1104736328125
        },
        {
          "ticks": 72664,
          "time": 139.73847318333333,
          "value": 0.1107177734375
        },
        {
          "ticks": 72672,
          "time": 139.7538578,
          "value": 0.111083984375
        },
        {
          "ticks": 72679,
          "time": 139.7673193395833,
          "value": 0.111328125
        },
        {
          "ticks": 72687,
          "time": 139.78270395625,
          "value": 0.111572265625
        },
        {
          "ticks": 72694,
          "time": 139.79616549583332,
          "value": 0.1119384765625
        },
        {
          "ticks": 72702,
          "time": 139.8115501125,
          "value": 0.1121826171875
        },
        {
          "ticks": 72709,
          "time": 139.8250116520833,
          "value": 0.112548828125
        },
        {
          "ticks": 72717,
          "time": 139.84039626875,
          "value": 0.11279296875
        },
        {
          "ticks": 72724,
          "time": 139.85385780833332,
          "value": 0.1131591796875
        },
        {
          "ticks": 72732,
          "time": 139.86924242499998,
          "value": 0.1134033203125
        },
        {
          "ticks": 72739,
          "time": 139.88270396458333,
          "value": 0.11376953125
        },
        {
          "ticks": 72747,
          "time": 139.89808858125,
          "value": 0.114013671875
        },
        {
          "ticks": 72754,
          "time": 139.9115501208333,
          "value": 0.1143798828125
        },
        {
          "ticks": 72762,
          "time": 139.9269347375,
          "value": 0.1146240234375
        },
        {
          "ticks": 72769,
          "time": 139.94039627708332,
          "value": 0.114990234375
        },
        {
          "ticks": 72777,
          "time": 139.95578089375,
          "value": 0.115234375
        },
        {
          "ticks": 72784,
          "time": 139.9692424333333,
          "value": 0.1156005859375
        },
        {
          "ticks": 72792,
          "time": 139.98462705,
          "value": 0.1158447265625
        },
        {
          "ticks": 72799,
          "time": 139.99808858958332,
          "value": 0.1160888671875
        },
        {
          "ticks": 72807,
          "time": 140.01347320624998,
          "value": 0.116455078125
        },
        {
          "ticks": 72814,
          "time": 140.0269347458333,
          "value": 0.11669921875
        },
        {
          "ticks": 72822,
          "time": 140.0423193625,
          "value": 0.1170654296875
        },
        {
          "ticks": 72829,
          "time": 140.0557809020833,
          "value": 0.1173095703125
        },
        {
          "ticks": 72836,
          "time": 140.06924244166666,
          "value": 0.11767578125
        },
        {
          "ticks": 72844,
          "time": 140.08462705833333,
          "value": 0.117919921875
        },
        {
          "ticks": 72852,
          "time": 140.100011675,
          "value": 0.1182861328125
        },
        {
          "ticks": 72859,
          "time": 140.1134732145833,
          "value": 0.1185302734375
        },
        {
          "ticks": 72867,
          "time": 140.12885783125,
          "value": 0.118896484375
        },
        {
          "ticks": 72874,
          "time": 140.14231937083332,
          "value": 0.119140625
        },
        {
          "ticks": 72882,
          "time": 140.15770398749999,
          "value": 0.1195068359375
        },
        {
          "ticks": 72889,
          "time": 140.1711655270833,
          "value": 0.1197509765625
        },
        {
          "ticks": 72897,
          "time": 140.18655014375,
          "value": 0.1201171875
        },
        {
          "ticks": 72904,
          "time": 140.20001168333332,
          "value": 0.120361328125
        },
        {
          "ticks": 72912,
          "time": 140.21539629999998,
          "value": 0.12060546875
        },
        {
          "ticks": 72919,
          "time": 140.22885783958333,
          "value": 0.1209716796875
        },
        {
          "ticks": 72927,
          "time": 140.24424245625,
          "value": 0.1212158203125
        },
        {
          "ticks": 72934,
          "time": 140.2577039958333,
          "value": 0.12158203125
        },
        {
          "ticks": 72942,
          "time": 140.2730886125,
          "value": 0.121826171875
        },
        {
          "ticks": 72949,
          "time": 140.28655015208332,
          "value": 0.1221923828125
        },
        {
          "ticks": 72957,
          "time": 140.30193476875,
          "value": 0.1224365234375
        },
        {
          "ticks": 72964,
          "time": 140.3153963083333,
          "value": 0.122802734375
        },
        {
          "ticks": 72972,
          "time": 140.330780925,
          "value": 0.123046875
        },
        {
          "ticks": 72979,
          "time": 140.34424246458332,
          "value": 0.1234130859375
        },
        {
          "ticks": 72987,
          "time": 140.35962708124998,
          "value": 0.1236572265625
        },
        {
          "ticks": 72994,
          "time": 140.37308862083333,
          "value": 0.1240234375
        },
        {
          "ticks": 73002,
          "time": 140.3884732375,
          "value": 0.124267578125
        },
        {
          "ticks": 73009,
          "time": 140.4019347770833,
          "value": 0.1246337890625
        },
        {
          "ticks": 73017,
          "time": 140.41731939375,
          "value": 0.1248779296875
        },
        {
          "ticks": 73024,
          "time": 140.43078093333332,
          "value": 0.1251220703125
        },
        {
          "ticks": 73032,
          "time": 140.44616555,
          "value": 0.12548828125
        },
        {
          "ticks": 73039,
          "time": 140.4596270895833,
          "value": 0.125732421875
        },
        {
          "ticks": 73047,
          "time": 140.47501170625,
          "value": 0.1260986328125
        },
        {
          "ticks": 73054,
          "time": 140.48847324583332,
          "value": 0.1263427734375
        },
        {
          "ticks": 73062,
          "time": 140.50385786249998,
          "value": 0.126708984375
        },
        {
          "ticks": 73069,
          "time": 140.5173194020833,
          "value": 0.126953125
        },
        {
          "ticks": 73077,
          "time": 140.53270401875,
          "value": 0.1273193359375
        },
        {
          "ticks": 73084,
          "time": 140.5461655583333,
          "value": 0.1275634765625
        },
        {
          "ticks": 73092,
          "time": 140.561550175,
          "value": 0.1279296875
        },
        {
          "ticks": 73099,
          "time": 140.57501171458333,
          "value": 0.128173828125
        },
        {
          "ticks": 73107,
          "time": 140.59039633125,
          "value": 0.1285400390625
        },
        {
          "ticks": 73114,
          "time": 140.6038578708333,
          "value": 0.1287841796875
        },
        {
          "ticks": 73122,
          "time": 140.6192424875,
          "value": 0.129150390625
        },
        {
          "ticks": 73129,
          "time": 140.63270402708332,
          "value": 0.12939453125
        },
        {
          "ticks": 73137,
          "time": 140.64808864375,
          "value": 0.129638671875
        },
        {
          "ticks": 73144,
          "time": 140.6615501833333,
          "value": 0.1300048828125
        },
        {
          "ticks": 73152,
          "time": 140.6769348,
          "value": 0.1302490234375
        },
        {
          "ticks": 73159,
          "time": 140.69039633958332,
          "value": 0.130615234375
        },
        {
          "ticks": 73167,
          "time": 140.70578095624998,
          "value": 0.130859375
        },
        {
          "ticks": 73174,
          "time": 140.71924249583333,
          "value": 0.1312255859375
        },
        {
          "ticks": 73182,
          "time": 140.7346271125,
          "value": 0.1314697265625
        },
        {
          "ticks": 73189,
          "time": 140.7480886520833,
          "value": 0.1318359375
        },
        {
          "ticks": 73197,
          "time": 140.76347326875,
          "value": 0.132080078125
        },
        {
          "ticks": 73204,
          "time": 140.77693480833332,
          "value": 0.1324462890625
        },
        {
          "ticks": 73212,
          "time": 140.792319425,
          "value": 0.1326904296875
        },
        {
          "ticks": 73219,
          "time": 140.8057809645833,
          "value": 0.133056640625
        },
        {
          "ticks": 73227,
          "time": 140.82116558125,
          "value": 0.13330078125
        },
        {
          "ticks": 73234,
          "time": 140.83462712083332,
          "value": 0.1336669921875
        },
        {
          "ticks": 73242,
          "time": 140.85001173749998,
          "value": 0.1339111328125
        },
        {
          "ticks": 73249,
          "time": 140.8634732770833,
          "value": 0.1341552734375
        },
        {
          "ticks": 73257,
          "time": 140.87885789375,
          "value": 0.134521484375
        },
        {
          "ticks": 73264,
          "time": 140.8923194333333,
          "value": 0.134765625
        },
        {
          "ticks": 73272,
          "time": 140.90770405,
          "value": 0.1351318359375
        },
        {
          "ticks": 73279,
          "time": 140.92116558958332,
          "value": 0.1353759765625
        },
        {
          "ticks": 73287,
          "time": 140.93655020625,
          "value": 0.1357421875
        },
        {
          "ticks": 73294,
          "time": 140.9500117458333,
          "value": 0.135986328125
        },
        {
          "ticks": 73302,
          "time": 140.9653963625,
          "value": 0.1363525390625
        },
        {
          "ticks": 73309,
          "time": 140.97885790208332,
          "value": 0.1365966796875
        },
        {
          "ticks": 73317,
          "time": 140.99424251874999,
          "value": 0.136962890625
        },
        {
          "ticks": 73324,
          "time": 141.0077040583333,
          "value": 0.13720703125
        },
        {
          "ticks": 73332,
          "time": 141.023088675,
          "value": 0.1375732421875
        },
        {
          "ticks": 73339,
          "time": 141.03655021458331,
          "value": 0.1378173828125
        },
        {
          "ticks": 73347,
          "time": 141.05193483124998,
          "value": 0.13818359375
        },
        {
          "ticks": 73354,
          "time": 141.06539637083333,
          "value": 0.138427734375
        },
        {
          "ticks": 73362,
          "time": 141.0807809875,
          "value": 0.138671875
        },
        {
          "ticks": 73369,
          "time": 141.0942425270833,
          "value": 0.1390380859375
        },
        {
          "ticks": 73377,
          "time": 141.10962714375,
          "value": 0.1392822265625
        },
        {
          "ticks": 73384,
          "time": 141.12308868333332,
          "value": 0.1396484375
        },
        {
          "ticks": 73392,
          "time": 141.1384733,
          "value": 0.139892578125
        },
        {
          "ticks": 73399,
          "time": 141.1519348395833,
          "value": 0.1402587890625
        },
        {
          "ticks": 73407,
          "time": 141.16731945625,
          "value": 0.1405029296875
        },
        {
          "ticks": 73414,
          "time": 141.18078099583332,
          "value": 0.140869140625
        },
        {
          "ticks": 73422,
          "time": 141.19616561249998,
          "value": 0.14111328125
        },
        {
          "ticks": 73429,
          "time": 141.20962715208333,
          "value": 0.1414794921875
        },
        {
          "ticks": 73437,
          "time": 141.22501176875,
          "value": 0.1417236328125
        },
        {
          "ticks": 73444,
          "time": 141.2384733083333,
          "value": 0.14208984375
        },
        {
          "ticks": 73452,
          "time": 141.253857925,
          "value": 0.142333984375
        },
        {
          "ticks": 73459,
          "time": 141.26731946458332,
          "value": 0.1427001953125
        },
        {
          "ticks": 73467,
          "time": 141.28270408125,
          "value": 0.1429443359375
        },
        {
          "ticks": 73474,
          "time": 141.2961656208333,
          "value": 0.1431884765625
        },
        {
          "ticks": 73482,
          "time": 141.3115502375,
          "value": 0.1435546875
        },
        {
          "ticks": 73489,
          "time": 141.32501177708332,
          "value": 0.143798828125
        },
        {
          "ticks": 73497,
          "time": 141.34039639374998,
          "value": 0.1441650390625
        },
        {
          "ticks": 73504,
          "time": 141.3538579333333,
          "value": 0.1444091796875
        },
        {
          "ticks": 73512,
          "time": 141.36924255,
          "value": 0.144775390625
        },
        {
          "ticks": 73519,
          "time": 141.3827040895833,
          "value": 0.14501953125
        },
        {
          "ticks": 73527,
          "time": 141.39808870625,
          "value": 0.1453857421875
        },
        {
          "ticks": 73534,
          "time": 141.41155024583333,
          "value": 0.1456298828125
        },
        {
          "ticks": 73542,
          "time": 141.4269348625,
          "value": 0.14599609375
        },
        {
          "ticks": 73549,
          "time": 141.4403964020833,
          "value": 0.146240234375
        },
        {
          "ticks": 73557,
          "time": 141.45578101875,
          "value": 0.1466064453125
        },
        {
          "ticks": 73564,
          "time": 141.46924255833332,
          "value": 0.1468505859375
        },
        {
          "ticks": 73572,
          "time": 141.48462717499999,
          "value": 0.147216796875
        },
        {
          "ticks": 73579,
          "time": 141.4980887145833,
          "value": 0.1474609375
        },
        {
          "ticks": 73587,
          "time": 141.51347333125,
          "value": 0.147705078125
        },
        {
          "ticks": 73594,
          "time": 141.52693487083332,
          "value": 0.1480712890625
        },
        {
          "ticks": 73602,
          "time": 141.54231948749998,
          "value": 0.1483154296875
        },
        {
          "ticks": 73609,
          "time": 141.55578102708333,
          "value": 0.148681640625
        },
        {
          "ticks": 73617,
          "time": 141.57116564375,
          "value": 0.14892578125
        },
        {
          "ticks": 73624,
          "time": 141.5846271833333,
          "value": 0.1492919921875
        },
        {
          "ticks": 73632,
          "time": 141.6000118,
          "value": 0.1495361328125
        },
        {
          "ticks": 73639,
          "time": 141.61347333958332,
          "value": 0.14990234375
        },
        {
          "ticks": 73647,
          "time": 141.62885795625,
          "value": 0.150146484375
        },
        {
          "ticks": 73654,
          "time": 141.6423194958333,
          "value": 0.1505126953125
        },
        {
          "ticks": 73662,
          "time": 141.6577041125,
          "value": 0.1507568359375
        },
        {
          "ticks": 73669,
          "time": 141.67116565208332,
          "value": 0.151123046875
        },
        {
          "ticks": 73677,
          "time": 141.68655026874998,
          "value": 0.1513671875
        },
        {
          "ticks": 73684,
          "time": 141.7000118083333,
          "value": 0.1517333984375
        },
        {
          "ticks": 73692,
          "time": 141.715396425,
          "value": 0.1519775390625
        },
        {
          "ticks": 73699,
          "time": 141.7288579645833,
          "value": 0.1522216796875
        },
        {
          "ticks": 73707,
          "time": 141.74424258125,
          "value": 0.152587890625
        },
        {
          "ticks": 73714,
          "time": 141.75770412083332,
          "value": 0.15283203125
        },
        {
          "ticks": 73722,
          "time": 141.7730887375,
          "value": 0.1531982421875
        },
        {
          "ticks": 73729,
          "time": 141.7865502770833,
          "value": 0.1534423828125
        },
        {
          "ticks": 73737,
          "time": 141.80193489375,
          "value": 0.15380859375
        },
        {
          "ticks": 73744,
          "time": 141.81539643333332,
          "value": 0.154052734375
        },
        {
          "ticks": 73752,
          "time": 141.83078104999998,
          "value": 0.1544189453125
        },
        {
          "ticks": 73759,
          "time": 141.8442425895833,
          "value": 0.1546630859375
        },
        {
          "ticks": 73767,
          "time": 141.85962720625,
          "value": 0.155029296875
        },
        {
          "ticks": 73774,
          "time": 141.87308874583331,
          "value": 0.1552734375
        },
        {
          "ticks": 73782,
          "time": 141.88847336249998,
          "value": 0.1556396484375
        },
        {
          "ticks": 73789,
          "time": 141.90193490208333,
          "value": 0.1558837890625
        },
        {
          "ticks": 73796,
          "time": 141.91539644166667,
          "value": 0.15625
        },
        {
          "ticks": 73804,
          "time": 141.9307810583333,
          "value": 0.156494140625
        },
        {
          "ticks": 73812,
          "time": 141.946165675,
          "value": 0.15673828125
        },
        {
          "ticks": 73819,
          "time": 141.95962721458332,
          "value": 0.1571044921875
        },
        {
          "ticks": 73827,
          "time": 141.97501183125,
          "value": 0.1573486328125
        },
        {
          "ticks": 73834,
          "time": 141.9884733708333,
          "value": 0.15771484375
        },
        {
          "ticks": 73842,
          "time": 142.0038579875,
          "value": 0.157958984375
        },
        {
          "ticks": 73849,
          "time": 142.01731952708332,
          "value": 0.1583251953125
        },
        {
          "ticks": 73857,
          "time": 142.03270414374998,
          "value": 0.1585693359375
        },
        {
          "ticks": 73864,
          "time": 142.04616568333333,
          "value": 0.158935546875
        },
        {
          "ticks": 73872,
          "time": 142.0615503,
          "value": 0.1591796875
        },
        {
          "ticks": 73879,
          "time": 142.0750118395833,
          "value": 0.1595458984375
        },
        {
          "ticks": 73887,
          "time": 142.09039645625,
          "value": 0.1597900390625
        },
        {
          "ticks": 73894,
          "time": 142.10385799583332,
          "value": 0.16015625
        },
        {
          "ticks": 73902,
          "time": 142.1192426125,
          "value": 0.160400390625
        },
        {
          "ticks": 73909,
          "time": 142.1327041520833,
          "value": 0.1607666015625
        },
        {
          "ticks": 73917,
          "time": 142.14808876875,
          "value": 0.1610107421875
        },
        {
          "ticks": 73924,
          "time": 142.16155030833332,
          "value": 0.1612548828125
        },
        {
          "ticks": 73932,
          "time": 142.17693492499998,
          "value": 0.16162109375
        },
        {
          "ticks": 73939,
          "time": 142.1903964645833,
          "value": 0.161865234375
        },
        {
          "ticks": 73947,
          "time": 142.20578108125,
          "value": 0.1622314453125
        },
        {
          "ticks": 73954,
          "time": 142.2192426208333,
          "value": 0.1624755859375
        },
        {
          "ticks": 73962,
          "time": 142.2346272375,
          "value": 0.162841796875
        },
        {
          "ticks": 73969,
          "time": 142.24808877708332,
          "value": 0.1630859375
        },
        {
          "ticks": 73977,
          "time": 142.26347339375,
          "value": 0.1634521484375
        },
        {
          "ticks": 73984,
          "time": 142.2769349333333,
          "value": 0.1636962890625
        },
        {
          "ticks": 73992,
          "time": 142.29231955,
          "value": 0.1640625
        },
        {
          "ticks": 73999,
          "time": 142.30578108958332,
          "value": 0.164306640625
        },
        {
          "ticks": 74007,
          "time": 142.32116570624999,
          "value": 0.1646728515625
        },
        {
          "ticks": 74014,
          "time": 142.3346272458333,
          "value": 0.1649169921875
        },
        {
          "ticks": 74022,
          "time": 142.3500118625,
          "value": 0.1651611328125
        },
        {
          "ticks": 74029,
          "time": 142.36347340208332,
          "value": 0.16552734375
        },
        {
          "ticks": 74037,
          "time": 142.37885801874998,
          "value": 0.165771484375
        },
        {
          "ticks": 74044,
          "time": 142.39231955833333,
          "value": 0.1661376953125
        },
        {
          "ticks": 74052,
          "time": 142.407704175,
          "value": 0.1663818359375
        },
        {
          "ticks": 74059,
          "time": 142.4211657145833,
          "value": 0.166748046875
        },
        {
          "ticks": 74067,
          "time": 142.43655033125,
          "value": 0.1669921875
        },
        {
          "ticks": 74074,
          "time": 142.45001187083332,
          "value": 0.1673583984375
        },
        {
          "ticks": 74082,
          "time": 142.4653964875,
          "value": 0.1676025390625
        },
        {
          "ticks": 74089,
          "time": 142.4788580270833,
          "value": 0.16796875
        },
        {
          "ticks": 74097,
          "time": 142.49424264375,
          "value": 0.168212890625
        },
        {
          "ticks": 74104,
          "time": 142.50770418333332,
          "value": 0.1685791015625
        },
        {
          "ticks": 74112,
          "time": 142.52308879999998,
          "value": 0.1688232421875
        },
        {
          "ticks": 74119,
          "time": 142.53655033958333,
          "value": 0.169189453125
        },
        {
          "ticks": 74127,
          "time": 142.55193495625,
          "value": 0.16943359375
        },
        {
          "ticks": 74134,
          "time": 142.5653964958333,
          "value": 0.169677734375
        },
        {
          "ticks": 74142,
          "time": 142.5807811125,
          "value": 0.1700439453125
        },
        {
          "ticks": 74149,
          "time": 142.59424265208332,
          "value": 0.1702880859375
        },
        {
          "ticks": 74157,
          "time": 142.60962726875,
          "value": 0.170654296875
        },
        {
          "ticks": 74164,
          "time": 142.6230888083333,
          "value": 0.1708984375
        },
        {
          "ticks": 74172,
          "time": 142.638473425,
          "value": 0.1712646484375
        },
        {
          "ticks": 74179,
          "time": 142.65193496458332,
          "value": 0.1715087890625
        },
        {
          "ticks": 74187,
          "time": 142.66731958124998,
          "value": 0.171875
        },
        {
          "ticks": 74194,
          "time": 142.6807811208333,
          "value": 0.172119140625
        },
        {
          "ticks": 74202,
          "time": 142.6961657375,
          "value": 0.1724853515625
        },
        {
          "ticks": 74209,
          "time": 142.7096272770833,
          "value": 0.1727294921875
        },
        {
          "ticks": 74217,
          "time": 142.72501189375,
          "value": 0.173095703125
        },
        {
          "ticks": 74224,
          "time": 142.73847343333333,
          "value": 0.17333984375
        },
        {
          "ticks": 74232,
          "time": 142.75385805,
          "value": 0.1737060546875
        },
        {
          "ticks": 74239,
          "time": 142.7673195895833,
          "value": 0.1739501953125
        },
        {
          "ticks": 74247,
          "time": 142.78270420625,
          "value": 0.1741943359375
        },
        {
          "ticks": 74254,
          "time": 142.79616574583332,
          "value": 0.174560546875
        },
        {
          "ticks": 74262,
          "time": 142.8115503625,
          "value": 0.1748046875
        },
        {
          "ticks": 74269,
          "time": 142.8250119020833,
          "value": 0.1751708984375
        },
        {
          "ticks": 74276,
          "time": 142.83847344166665,
          "value": 0.1754150390625
        },
        {
          "ticks": 74284,
          "time": 142.85385805833332,
          "value": 0.17578125
        },
        {
          "ticks": 74292,
          "time": 142.86924267499998,
          "value": 0.176025390625
        },
        {
          "ticks": 74299,
          "time": 142.88270421458333,
          "value": 0.1763916015625
        },
        {
          "ticks": 74307,
          "time": 142.89808883125,
          "value": 0.1766357421875
        },
        {
          "ticks": 74314,
          "time": 142.9115503708333,
          "value": 0.177001953125
        },
        {
          "ticks": 74322,
          "time": 142.9269349875,
          "value": 0.17724609375
        },
        {
          "ticks": 74329,
          "time": 142.94039652708332,
          "value": 0.1776123046875
        },
        {
          "ticks": 74337,
          "time": 142.95578114375,
          "value": 0.1778564453125
        },
        {
          "ticks": 74344,
          "time": 142.9692426833333,
          "value": 0.17822265625
        },
        {
          "ticks": 74352,
          "time": 142.9846273,
          "value": 0.178466796875
        },
        {
          "ticks": 74359,
          "time": 142.99808883958332,
          "value": 0.1787109375
        },
        {
          "ticks": 74367,
          "time": 143.01347345624998,
          "value": 0.1790771484375
        },
        {
          "ticks": 74374,
          "time": 143.0269349958333,
          "value": 0.1793212890625
        },
        {
          "ticks": 74382,
          "time": 143.0423196125,
          "value": 0.1796875
        },
        {
          "ticks": 74389,
          "time": 143.0557811520833,
          "value": 0.179931640625
        },
        {
          "ticks": 74397,
          "time": 143.07116576875,
          "value": 0.1802978515625
        },
        {
          "ticks": 74404,
          "time": 143.08462730833332,
          "value": 0.1805419921875
        },
        {
          "ticks": 74412,
          "time": 143.100011925,
          "value": 0.180908203125
        },
        {
          "ticks": 74419,
          "time": 143.1134734645833,
          "value": 0.18115234375
        },
        {
          "ticks": 74427,
          "time": 143.12885808125,
          "value": 0.1815185546875
        },
        {
          "ticks": 74434,
          "time": 143.14231962083332,
          "value": 0.1817626953125
        },
        {
          "ticks": 74442,
          "time": 143.15770423749998,
          "value": 0.18212890625
        },
        {
          "ticks": 74449,
          "time": 143.1711657770833,
          "value": 0.182373046875
        },
        {
          "ticks": 74457,
          "time": 143.18655039375,
          "value": 0.1827392578125
        },
        {
          "ticks": 74464,
          "time": 143.20001193333331,
          "value": 0.1829833984375
        },
        {
          "ticks": 74472,
          "time": 143.21539654999998,
          "value": 0.1832275390625
        },
        {
          "ticks": 74479,
          "time": 143.22885808958333,
          "value": 0.18359375
        },
        {
          "ticks": 74487,
          "time": 143.24424270625,
          "value": 0.183837890625
        },
        {
          "ticks": 74494,
          "time": 143.2577042458333,
          "value": 0.1842041015625
        },
        {
          "ticks": 74502,
          "time": 143.2730888625,
          "value": 0.1844482421875
        },
        {
          "ticks": 74509,
          "time": 143.28655040208332,
          "value": 0.184814453125
        },
        {
          "ticks": 74517,
          "time": 143.30193501875,
          "value": 0.18505859375
        },
        {
          "ticks": 74524,
          "time": 143.3153965583333,
          "value": 0.1854248046875
        },
        {
          "ticks": 74532,
          "time": 143.330781175,
          "value": 0.1856689453125
        },
        {
          "ticks": 74539,
          "time": 143.34424271458332,
          "value": 0.18603515625
        },
        {
          "ticks": 74547,
          "time": 143.35962733124998,
          "value": 0.186279296875
        },
        {
          "ticks": 74554,
          "time": 143.37308887083333,
          "value": 0.1866455078125
        },
        {
          "ticks": 74562,
          "time": 143.3884734875,
          "value": 0.1868896484375
        },
        {
          "ticks": 74569,
          "time": 143.4019350270833,
          "value": 0.187255859375
        },
        {
          "ticks": 74577,
          "time": 143.41731964375,
          "value": 0.1875
        },
        {
          "ticks": 74584,
          "time": 143.43078118333332,
          "value": 0.187744140625
        },
        {
          "ticks": 74592,
          "time": 143.4461658,
          "value": 0.1881103515625
        },
        {
          "ticks": 74599,
          "time": 143.4596273395833,
          "value": 0.1883544921875
        },
        {
          "ticks": 74607,
          "time": 143.47501195625,
          "value": 0.188720703125
        },
        {
          "ticks": 74614,
          "time": 143.48847349583332,
          "value": 0.18896484375
        },
        {
          "ticks": 74622,
          "time": 143.50385811249998,
          "value": 0.1893310546875
        },
        {
          "ticks": 74629,
          "time": 143.5173196520833,
          "value": 0.1895751953125
        },
        {
          "ticks": 74637,
          "time": 143.53270426875,
          "value": 0.18994140625
        },
        {
          "ticks": 74644,
          "time": 143.5461658083333,
          "value": 0.190185546875
        },
        {
          "ticks": 74652,
          "time": 143.561550425,
          "value": 0.1905517578125
        },
        {
          "ticks": 74659,
          "time": 143.57501196458333,
          "value": 0.1907958984375
        },
        {
          "ticks": 74667,
          "time": 143.59039658125,
          "value": 0.191162109375
        },
        {
          "ticks": 74674,
          "time": 143.6038581208333,
          "value": 0.19140625
        },
        {
          "ticks": 74682,
          "time": 143.6192427375,
          "value": 0.1917724609375
        },
        {
          "ticks": 74689,
          "time": 143.63270427708332,
          "value": 0.1920166015625
        },
        {
          "ticks": 74697,
          "time": 143.64808889374999,
          "value": 0.1922607421875
        },
        {
          "ticks": 74704,
          "time": 143.6615504333333,
          "value": 0.192626953125
        },
        {
          "ticks": 74712,
          "time": 143.67693505,
          "value": 0.19287109375
        },
        {
          "ticks": 74719,
          "time": 143.69039658958332,
          "value": 0.1932373046875
        },
        {
          "ticks": 74727,
          "time": 143.70578120624998,
          "value": 0.1934814453125
        },
        {
          "ticks": 74734,
          "time": 143.71924274583333,
          "value": 0.19384765625
        },
        {
          "ticks": 74742,
          "time": 143.7346273625,
          "value": 0.194091796875
        },
        {
          "ticks": 74749,
          "time": 143.7480889020833,
          "value": 0.1944580078125
        },
        {
          "ticks": 74757,
          "time": 143.76347351875,
          "value": 0.1947021484375
        },
        {
          "ticks": 74764,
          "time": 143.77693505833332,
          "value": 0.195068359375
        },
        {
          "ticks": 74772,
          "time": 143.792319675,
          "value": 0.1953125
        },
        {
          "ticks": 74779,
          "time": 143.8057812145833,
          "value": 0.1956787109375
        },
        {
          "ticks": 74787,
          "time": 143.82116583125,
          "value": 0.1959228515625
        },
        {
          "ticks": 74794,
          "time": 143.83462737083332,
          "value": 0.1962890625
        },
        {
          "ticks": 74802,
          "time": 143.85001198749998,
          "value": 0.196533203125
        },
        {
          "ticks": 74809,
          "time": 143.8634735270833,
          "value": 0.19677734375
        },
        {
          "ticks": 74817,
          "time": 143.87885814375,
          "value": 0.1971435546875
        },
        {
          "ticks": 74824,
          "time": 143.8923196833333,
          "value": 0.1973876953125
        },
        {
          "ticks": 74832,
          "time": 143.9077043,
          "value": 0.19775390625
        },
        {
          "ticks": 74839,
          "time": 143.92116583958332,
          "value": 0.197998046875
        },
        {
          "ticks": 74847,
          "time": 143.93655045625,
          "value": 0.1983642578125
        },
        {
          "ticks": 74854,
          "time": 143.9500119958333,
          "value": 0.1986083984375
        },
        {
          "ticks": 74862,
          "time": 143.9653966125,
          "value": 0.198974609375
        },
        {
          "ticks": 74869,
          "time": 143.97885815208332,
          "value": 0.19921875
        },
        {
          "ticks": 74876,
          "time": 143.99231969166667,
          "value": 0.1995849609375
        },
        {
          "ticks": 74884,
          "time": 144.0077043083333,
          "value": 0.1998291015625
        },
        {
          "ticks": 74892,
          "time": 144.023088925,
          "value": 0.2001953125
        },
        {
          "ticks": 74899,
          "time": 144.0365504645833,
          "value": 0.200439453125
        },
        {
          "ticks": 74907,
          "time": 144.05193508124998,
          "value": 0.2008056640625
        },
        {
          "ticks": 74914,
          "time": 144.06539662083333,
          "value": 0.2010498046875
        },
        {
          "ticks": 74922,
          "time": 144.0807812375,
          "value": 0.2012939453125
        },
        {
          "ticks": 74929,
          "time": 144.0942427770833,
          "value": 0.20166015625
        },
        {
          "ticks": 74937,
          "time": 144.10962739375,
          "value": 0.201904296875
        },
        {
          "ticks": 74944,
          "time": 144.12308893333332,
          "value": 0.2022705078125
        },
        {
          "ticks": 74952,
          "time": 144.13847355,
          "value": 0.2025146484375
        },
        {
          "ticks": 74959,
          "time": 144.1519350895833,
          "value": 0.202880859375
        },
        {
          "ticks": 74967,
          "time": 144.16731970625,
          "value": 0.203125
        },
        {
          "ticks": 74974,
          "time": 144.18078124583332,
          "value": 0.2034912109375
        },
        {
          "ticks": 74982,
          "time": 144.19616586249998,
          "value": 0.2037353515625
        },
        {
          "ticks": 74989,
          "time": 144.20962740208333,
          "value": 0.2041015625
        },
        {
          "ticks": 74997,
          "time": 144.22501201875,
          "value": 0.204345703125
        },
        {
          "ticks": 75004,
          "time": 144.2384735583333,
          "value": 0.2047119140625
        },
        {
          "ticks": 75012,
          "time": 144.253858175,
          "value": 0.2049560546875
        },
        {
          "ticks": 75019,
          "time": 144.26731971458332,
          "value": 0.205322265625
        },
        {
          "ticks": 75027,
          "time": 144.28270433125,
          "value": 0.20556640625
        },
        {
          "ticks": 75034,
          "time": 144.2961658708333,
          "value": 0.205810546875
        },
        {
          "ticks": 75042,
          "time": 144.3115504875,
          "value": 0.2061767578125
        },
        {
          "ticks": 75049,
          "time": 144.32501202708332,
          "value": 0.2064208984375
        },
        {
          "ticks": 75057,
          "time": 144.34039664374998,
          "value": 0.206787109375
        },
        {
          "ticks": 75064,
          "time": 144.3538581833333,
          "value": 0.20703125
        },
        {
          "ticks": 75072,
          "time": 144.3692428,
          "value": 0.2073974609375
        },
        {
          "ticks": 75079,
          "time": 144.3827043395833,
          "value": 0.2076416015625
        },
        {
          "ticks": 75087,
          "time": 144.39808895625,
          "value": 0.2080078125
        },
        {
          "ticks": 75094,
          "time": 144.41155049583332,
          "value": 0.208251953125
        },
        {
          "ticks": 75102,
          "time": 144.4269351125,
          "value": 0.2086181640625
        },
        {
          "ticks": 75109,
          "time": 144.4403966520833,
          "value": 0.2088623046875
        },
        {
          "ticks": 75117,
          "time": 144.45578126875,
          "value": 0.209228515625
        },
        {
          "ticks": 75124,
          "time": 144.46924280833332,
          "value": 0.20947265625
        },
        {
          "ticks": 75132,
          "time": 144.48462742499999,
          "value": 0.2098388671875
        },
        {
          "ticks": 75139,
          "time": 144.4980889645833,
          "value": 0.2100830078125
        },
        {
          "ticks": 75147,
          "time": 144.51347358125,
          "value": 0.2103271484375
        },
        {
          "ticks": 75154,
          "time": 144.52693512083331,
          "value": 0.210693359375
        },
        {
          "ticks": 75162,
          "time": 144.54231973749998,
          "value": 0.2109375
        },
        {
          "ticks": 75169,
          "time": 144.55578127708333,
          "value": 0.2113037109375
        },
        {
          "ticks": 75177,
          "time": 144.57116589375,
          "value": 0.2115478515625
        },
        {
          "ticks": 75184,
          "time": 144.5846274333333,
          "value": 0.2119140625
        },
        {
          "ticks": 75192,
          "time": 144.60001205,
          "value": 0.212158203125
        },
        {
          "ticks": 75199,
          "time": 144.61347358958332,
          "value": 0.2125244140625
        },
        {
          "ticks": 75207,
          "time": 144.62885820625,
          "value": 0.2127685546875
        },
        {
          "ticks": 75214,
          "time": 144.6423197458333,
          "value": 0.213134765625
        },
        {
          "ticks": 75222,
          "time": 144.6577043625,
          "value": 0.21337890625
        },
        {
          "ticks": 75229,
          "time": 144.67116590208332,
          "value": 0.2137451171875
        },
        {
          "ticks": 75237,
          "time": 144.68655051874998,
          "value": 0.2139892578125
        },
        {
          "ticks": 75244,
          "time": 144.70001205833333,
          "value": 0.21435546875
        },
        {
          "ticks": 75252,
          "time": 144.715396675,
          "value": 0.214599609375
        },
        {
          "ticks": 75259,
          "time": 144.7288582145833,
          "value": 0.21484375
        },
        {
          "ticks": 75267,
          "time": 144.74424283125,
          "value": 0.2152099609375
        },
        {
          "ticks": 75274,
          "time": 144.75770437083332,
          "value": 0.2154541015625
        },
        {
          "ticks": 75282,
          "time": 144.7730889875,
          "value": 0.2158203125
        },
        {
          "ticks": 75289,
          "time": 144.7865505270833,
          "value": 0.216064453125
        },
        {
          "ticks": 75297,
          "time": 144.80193514375,
          "value": 0.2164306640625
        },
        {
          "ticks": 75304,
          "time": 144.81539668333332,
          "value": 0.2166748046875
        },
        {
          "ticks": 75312,
          "time": 144.83078129999998,
          "value": 0.217041015625
        },
        {
          "ticks": 75319,
          "time": 144.8442428395833,
          "value": 0.21728515625
        },
        {
          "ticks": 75327,
          "time": 144.85962745625,
          "value": 0.2176513671875
        },
        {
          "ticks": 75334,
          "time": 144.8730889958333,
          "value": 0.2178955078125
        },
        {
          "ticks": 75342,
          "time": 144.8884736125,
          "value": 0.21826171875
        },
        {
          "ticks": 75349,
          "time": 144.90193515208333,
          "value": 0.218505859375
        },
        {
          "ticks": 75357,
          "time": 144.91731976875,
          "value": 0.21875
        },
        {
          "ticks": 75364,
          "time": 144.9307813083333,
          "value": 0.2191162109375
        },
        {
          "ticks": 75372,
          "time": 144.946165925,
          "value": 0.2193603515625
        },
        {
          "ticks": 75379,
          "time": 144.95962746458332,
          "value": 0.2197265625
        },
        {
          "ticks": 75387,
          "time": 144.97501208125,
          "value": 0.219970703125
        },
        {
          "ticks": 75394,
          "time": 144.9884736208333,
          "value": 0.2203369140625
        },
        {
          "ticks": 75402,
          "time": 145.0038582375,
          "value": 0.2205810546875
        },
        {
          "ticks": 75409,
          "time": 145.01731977708332,
          "value": 0.220947265625
        },
        {
          "ticks": 75417,
          "time": 145.03270439374998,
          "value": 0.22119140625
        },
        {
          "ticks": 75424,
          "time": 145.04616593333333,
          "value": 0.2215576171875
        },
        {
          "ticks": 75432,
          "time": 145.06155055,
          "value": 0.2218017578125
        },
        {
          "ticks": 75439,
          "time": 145.0750120895833,
          "value": 0.22216796875
        },
        {
          "ticks": 75447,
          "time": 145.09039670625,
          "value": 0.222412109375
        },
        {
          "ticks": 75454,
          "time": 145.10385824583332,
          "value": 0.2227783203125
        },
        {
          "ticks": 75462,
          "time": 145.1192428625,
          "value": 0.2230224609375
        },
        {
          "ticks": 75469,
          "time": 145.1327044020833,
          "value": 0.2232666015625
        },
        {
          "ticks": 75477,
          "time": 145.14808901875,
          "value": 0.2236328125
        },
        {
          "ticks": 75484,
          "time": 145.16155055833332,
          "value": 0.223876953125
        },
        {
          "ticks": 75492,
          "time": 145.17693517499998,
          "value": 0.2242431640625
        },
        {
          "ticks": 75499,
          "time": 145.1903967145833,
          "value": 0.2244873046875
        },
        {
          "ticks": 75507,
          "time": 145.20578133125,
          "value": 0.224853515625
        },
        {
          "ticks": 75514,
          "time": 145.2192428708333,
          "value": 0.22509765625
        },
        {
          "ticks": 75522,
          "time": 145.2346274875,
          "value": 0.2254638671875
        },
        {
          "ticks": 75529,
          "time": 145.24808902708332,
          "value": 0.2257080078125
        },
        {
          "ticks": 75537,
          "time": 145.26347364375,
          "value": 0.22607421875
        },
        {
          "ticks": 75544,
          "time": 145.2769351833333,
          "value": 0.226318359375
        },
        {
          "ticks": 75552,
          "time": 145.2923198,
          "value": 0.2266845703125
        },
        {
          "ticks": 75559,
          "time": 145.30578133958332,
          "value": 0.2269287109375
        },
        {
          "ticks": 75567,
          "time": 145.32116595624998,
          "value": 0.227294921875
        },
        {
          "ticks": 75574,
          "time": 145.3346274958333,
          "value": 0.2275390625
        },
        {
          "ticks": 75582,
          "time": 145.3500121125,
          "value": 0.227783203125
        },
        {
          "ticks": 75589,
          "time": 145.36347365208331,
          "value": 0.2281494140625
        },
        {
          "ticks": 75597,
          "time": 145.37885826874998,
          "value": 0.2283935546875
        },
        {
          "ticks": 75604,
          "time": 145.39231980833333,
          "value": 0.228759765625
        },
        {
          "ticks": 75612,
          "time": 145.407704425,
          "value": 0.22900390625
        },
        {
          "ticks": 75619,
          "time": 145.4211659645833,
          "value": 0.2293701171875
        },
        {
          "ticks": 75627,
          "time": 145.43655058125,
          "value": 0.2296142578125
        },
        {
          "ticks": 75634,
          "time": 145.45001212083332,
          "value": 0.22998046875
        },
        {
          "ticks": 75642,
          "time": 145.4653967375,
          "value": 0.230224609375
        },
        {
          "ticks": 75649,
          "time": 145.4788582770833,
          "value": 0.2305908203125
        },
        {
          "ticks": 75657,
          "time": 145.49424289375,
          "value": 0.2308349609375
        },
        {
          "ticks": 75664,
          "time": 145.50770443333332,
          "value": 0.231201171875
        },
        {
          "ticks": 75672,
          "time": 145.52308904999998,
          "value": 0.2314453125
        },
        {
          "ticks": 75679,
          "time": 145.53655058958333,
          "value": 0.2318115234375
        },
        {
          "ticks": 75687,
          "time": 145.55193520625,
          "value": 0.2320556640625
        },
        {
          "ticks": 75694,
          "time": 145.5653967458333,
          "value": 0.2322998046875
        },
        {
          "ticks": 75702,
          "time": 145.5807813625,
          "value": 0.232666015625
        },
        {
          "ticks": 75709,
          "time": 145.59424290208332,
          "value": 0.23291015625
        },
        {
          "ticks": 75717,
          "time": 145.60962751875,
          "value": 0.2332763671875
        },
        {
          "ticks": 75724,
          "time": 145.6230890583333,
          "value": 0.2335205078125
        },
        {
          "ticks": 75732,
          "time": 145.638473675,
          "value": 0.23388671875
        },
        {
          "ticks": 75739,
          "time": 145.65193521458332,
          "value": 0.234130859375
        },
        {
          "ticks": 75747,
          "time": 145.66731983124998,
          "value": 0.2344970703125
        },
        {
          "ticks": 75754,
          "time": 145.6807813708333,
          "value": 0.2347412109375
        },
        {
          "ticks": 75762,
          "time": 145.6961659875,
          "value": 0.235107421875
        },
        {
          "ticks": 75769,
          "time": 145.7096275270833,
          "value": 0.2353515625
        },
        {
          "ticks": 75777,
          "time": 145.72501214375,
          "value": 0.2357177734375
        },
        {
          "ticks": 75784,
          "time": 145.73847368333332,
          "value": 0.2359619140625
        },
        {
          "ticks": 75792,
          "time": 145.7538583,
          "value": 0.236328125
        },
        {
          "ticks": 75799,
          "time": 145.7673198395833,
          "value": 0.236572265625
        },
        {
          "ticks": 75807,
          "time": 145.78270445625,
          "value": 0.23681640625
        },
        {
          "ticks": 75814,
          "time": 145.79616599583332,
          "value": 0.2371826171875
        },
        {
          "ticks": 75822,
          "time": 145.81155061249999,
          "value": 0.2374267578125
        },
        {
          "ticks": 75829,
          "time": 145.8250121520833,
          "value": 0.23779296875
        },
        {
          "ticks": 75836,
          "time": 145.83847369166665,
          "value": 0.238037109375
        },
        {
          "ticks": 75844,
          "time": 145.85385830833332,
          "value": 0.2384033203125
        },
        {
          "ticks": 75852,
          "time": 145.86924292499998,
          "value": 0.2386474609375
        },
        {
          "ticks": 75859,
          "time": 145.88270446458333,
          "value": 0.239013671875
        },
        {
          "ticks": 75867,
          "time": 145.89808908125,
          "value": 0.2392578125
        },
        {
          "ticks": 75874,
          "time": 145.9115506208333,
          "value": 0.2396240234375
        },
        {
          "ticks": 75882,
          "time": 145.9269352375,
          "value": 0.2398681640625
        },
        {
          "ticks": 75889,
          "time": 145.94039677708332,
          "value": 0.240234375
        },
        {
          "ticks": 75897,
          "time": 145.95578139375,
          "value": 0.240478515625
        },
        {
          "ticks": 75904,
          "time": 145.9692429333333,
          "value": 0.2408447265625
        },
        {
          "ticks": 75912,
          "time": 145.98462755,
          "value": 0.2410888671875
        },
        {
          "ticks": 75919,
          "time": 145.99808908958332,
          "value": 0.2413330078125
        },
        {
          "ticks": 75927,
          "time": 146.01347370624998,
          "value": 0.24169921875
        },
        {
          "ticks": 75934,
          "time": 146.02693524583333,
          "value": 0.241943359375
        },
        {
          "ticks": 75942,
          "time": 146.0423198625,
          "value": 0.2423095703125
        },
        {
          "ticks": 75949,
          "time": 146.0557814020833,
          "value": 0.2425537109375
        },
        {
          "ticks": 75957,
          "time": 146.07116601875,
          "value": 0.242919921875
        },
        {
          "ticks": 75964,
          "time": 146.08462755833332,
          "value": 0.2431640625
        },
        {
          "ticks": 75972,
          "time": 146.100012175,
          "value": 0.2435302734375
        },
        {
          "ticks": 75979,
          "time": 146.1134737145833,
          "value": 0.2437744140625
        },
        {
          "ticks": 75987,
          "time": 146.12885833125,
          "value": 0.244140625
        },
        {
          "ticks": 75994,
          "time": 146.14231987083332,
          "value": 0.244384765625
        },
        {
          "ticks": 76002,
          "time": 146.15770448749998,
          "value": 0.2447509765625
        },
        {
          "ticks": 76009,
          "time": 146.1711660270833,
          "value": 0.2449951171875
        },
        {
          "ticks": 76017,
          "time": 146.18655064375,
          "value": 0.245361328125
        },
        {
          "ticks": 76024,
          "time": 146.2000121833333,
          "value": 0.24560546875
        },
        {
          "ticks": 76032,
          "time": 146.21539679999998,
          "value": 0.245849609375
        },
        {
          "ticks": 76039,
          "time": 146.22885833958333,
          "value": 0.2462158203125
        },
        {
          "ticks": 76047,
          "time": 146.24424295625,
          "value": 0.2464599609375
        },
        {
          "ticks": 76054,
          "time": 146.2577044958333,
          "value": 0.246826171875
        },
        {
          "ticks": 76062,
          "time": 146.2730891125,
          "value": 0.2470703125
        },
        {
          "ticks": 76069,
          "time": 146.28655065208332,
          "value": 0.2474365234375
        },
        {
          "ticks": 76077,
          "time": 146.30193526875,
          "value": 0.2476806640625
        },
        {
          "ticks": 76084,
          "time": 146.3153968083333,
          "value": 0.248046875
        },
        {
          "ticks": 76092,
          "time": 146.330781425,
          "value": 0.248291015625
        },
        {
          "ticks": 76099,
          "time": 146.34424296458332,
          "value": 0.2486572265625
        },
        {
          "ticks": 76107,
          "time": 146.35962758124998,
          "value": 0.2489013671875
        },
        {
          "ticks": 76114,
          "time": 146.37308912083333,
          "value": 0.249267578125
        },
        {
          "ticks": 76122,
          "time": 146.3884737375,
          "value": 0.24951171875
        },
        {
          "ticks": 76129,
          "time": 146.4019352770833,
          "value": 0.2498779296875
        },
        {
          "ticks": 76137,
          "time": 146.41731989375,
          "value": 0.2501220703125
        },
        {
          "ticks": 76144,
          "time": 146.43078143333332,
          "value": 0.2503662109375
        },
        {
          "ticks": 76152,
          "time": 146.44616605,
          "value": 0.250732421875
        },
        {
          "ticks": 76159,
          "time": 146.4596275895833,
          "value": 0.2509765625
        },
        {
          "ticks": 76167,
          "time": 146.47501220625,
          "value": 0.2513427734375
        },
        {
          "ticks": 76174,
          "time": 146.48847374583332,
          "value": 0.2515869140625
        },
        {
          "ticks": 76182,
          "time": 146.50385836249998,
          "value": 0.251953125
        },
        {
          "ticks": 76189,
          "time": 146.5173199020833,
          "value": 0.252197265625
        },
        {
          "ticks": 76197,
          "time": 146.53270451875,
          "value": 0.2525634765625
        },
        {
          "ticks": 76204,
          "time": 146.5461660583333,
          "value": 0.2528076171875
        },
        {
          "ticks": 76212,
          "time": 146.561550675,
          "value": 0.253173828125
        },
        {
          "ticks": 76219,
          "time": 146.57501221458332,
          "value": 0.25341796875
        },
        {
          "ticks": 76227,
          "time": 146.59039683125,
          "value": 0.2537841796875
        },
        {
          "ticks": 76234,
          "time": 146.6038583708333,
          "value": 0.2540283203125
        },
        {
          "ticks": 76242,
          "time": 146.6192429875,
          "value": 0.25439453125
        },
        {
          "ticks": 76249,
          "time": 146.63270452708332,
          "value": 0.254638671875
        },
        {
          "ticks": 76257,
          "time": 146.64808914374998,
          "value": 0.2548828125
        },
        {
          "ticks": 76264,
          "time": 146.6615506833333,
          "value": 0.2552490234375
        },
        {
          "ticks": 76272,
          "time": 146.6769353,
          "value": 0.2554931640625
        },
        {
          "ticks": 76279,
          "time": 146.69039683958331,
          "value": 0.255859375
        },
        {
          "ticks": 76287,
          "time": 146.70578145624998,
          "value": 0.256103515625
        },
        {
          "ticks": 76294,
          "time": 146.71924299583333,
          "value": 0.2564697265625
        },
        {
          "ticks": 76302,
          "time": 146.7346276125,
          "value": 0.2567138671875
        },
        {
          "ticks": 76309,
          "time": 146.7480891520833,
          "value": 0.257080078125
        },
        {
          "ticks": 76317,
          "time": 146.76347376875,
          "value": 0.25732421875
        },
        {
          "ticks": 76324,
          "time": 146.77693530833332,
          "value": 0.2576904296875
        },
        {
          "ticks": 76332,
          "time": 146.792319925,
          "value": 0.2579345703125
        },
        {
          "ticks": 76339,
          "time": 146.8057814645833,
          "value": 0.25830078125
        },
        {
          "ticks": 76347,
          "time": 146.82116608125,
          "value": 0.258544921875
        },
        {
          "ticks": 76354,
          "time": 146.83462762083332,
          "value": 0.2589111328125
        },
        {
          "ticks": 76362,
          "time": 146.85001223749998,
          "value": 0.2591552734375
        },
        {
          "ticks": 76369,
          "time": 146.86347377708333,
          "value": 0.2593994140625
        },
        {
          "ticks": 76377,
          "time": 146.87885839375,
          "value": 0.259765625
        },
        {
          "ticks": 76384,
          "time": 146.8923199333333,
          "value": 0.260009765625
        },
        {
          "ticks": 76392,
          "time": 146.90770455,
          "value": 0.2603759765625
        },
        {
          "ticks": 76399,
          "time": 146.92116608958332,
          "value": 0.2606201171875
        },
        {
          "ticks": 76407,
          "time": 146.93655070625,
          "value": 0.260986328125
        },
        {
          "ticks": 76414,
          "time": 146.9500122458333,
          "value": 0.26123046875
        },
        {
          "ticks": 76422,
          "time": 146.9653968625,
          "value": 0.2615966796875
        },
        {
          "ticks": 76429,
          "time": 146.97885840208332,
          "value": 0.2618408203125
        },
        {
          "ticks": 76437,
          "time": 146.99424301874998,
          "value": 0.26220703125
        },
        {
          "ticks": 76444,
          "time": 147.0077045583333,
          "value": 0.262451171875
        },
        {
          "ticks": 76452,
          "time": 147.023089175,
          "value": 0.2628173828125
        },
        {
          "ticks": 76459,
          "time": 147.0365507145833,
          "value": 0.2630615234375
        },
        {
          "ticks": 76467,
          "time": 147.05193533125,
          "value": 0.263427734375
        },
        {
          "ticks": 76474,
          "time": 147.06539687083333,
          "value": 0.263671875
        },
        {
          "ticks": 76482,
          "time": 147.0807814875,
          "value": 0.263916015625
        },
        {
          "ticks": 76489,
          "time": 147.0942430270833,
          "value": 0.2642822265625
        },
        {
          "ticks": 76497,
          "time": 147.10962764375,
          "value": 0.2645263671875
        },
        {
          "ticks": 76504,
          "time": 147.12308918333332,
          "value": 0.264892578125
        },
        {
          "ticks": 76512,
          "time": 147.13847379999999,
          "value": 0.26513671875
        },
        {
          "ticks": 76519,
          "time": 147.1519353395833,
          "value": 0.2655029296875
        },
        {
          "ticks": 76527,
          "time": 147.16731995625,
          "value": 0.2657470703125
        },
        {
          "ticks": 76534,
          "time": 147.18078149583332,
          "value": 0.26611328125
        },
        {
          "ticks": 76542,
          "time": 147.19616611249998,
          "value": 0.266357421875
        },
        {
          "ticks": 76549,
          "time": 147.20962765208333,
          "value": 0.2667236328125
        },
        {
          "ticks": 76557,
          "time": 147.22501226875,
          "value": 0.2669677734375
        },
        {
          "ticks": 76564,
          "time": 147.2384738083333,
          "value": 0.267333984375
        },
        {
          "ticks": 76572,
          "time": 147.253858425,
          "value": 0.267578125
        },
        {
          "ticks": 76579,
          "time": 147.26731996458332,
          "value": 0.2679443359375
        },
        {
          "ticks": 76587,
          "time": 147.28270458125,
          "value": 0.2681884765625
        },
        {
          "ticks": 76594,
          "time": 147.2961661208333,
          "value": 0.2684326171875
        },
        {
          "ticks": 76602,
          "time": 147.3115507375,
          "value": 0.268798828125
        },
        {
          "ticks": 76609,
          "time": 147.32501227708332,
          "value": 0.26904296875
        },
        {
          "ticks": 76617,
          "time": 147.34039689374998,
          "value": 0.2694091796875
        },
        {
          "ticks": 76624,
          "time": 147.3538584333333,
          "value": 0.2696533203125
        },
        {
          "ticks": 76632,
          "time": 147.36924305,
          "value": 0.27001953125
        },
        {
          "ticks": 76639,
          "time": 147.3827045895833,
          "value": 0.270263671875
        },
        {
          "ticks": 76647,
          "time": 147.39808920625,
          "value": 0.2706298828125
        },
        {
          "ticks": 76654,
          "time": 147.41155074583332,
          "value": 0.2708740234375
        },
        {
          "ticks": 76662,
          "time": 147.4269353625,
          "value": 0.271240234375
        },
        {
          "ticks": 76669,
          "time": 147.4403969020833,
          "value": 0.271484375
        },
        {
          "ticks": 76677,
          "time": 147.45578151875,
          "value": 0.2718505859375
        },
        {
          "ticks": 76684,
          "time": 147.46924305833332,
          "value": 0.2720947265625
        },
        {
          "ticks": 76692,
          "time": 147.48462767499998,
          "value": 0.2723388671875
        },
        {
          "ticks": 76699,
          "time": 147.4980892145833,
          "value": 0.272705078125
        },
        {
          "ticks": 76707,
          "time": 147.51347383125,
          "value": 0.27294921875
        },
        {
          "ticks": 76714,
          "time": 147.5269353708333,
          "value": 0.2733154296875
        },
        {
          "ticks": 76722,
          "time": 147.54231998749998,
          "value": 0.2735595703125
        },
        {
          "ticks": 76729,
          "time": 147.55578152708333,
          "value": 0.27392578125
        },
        {
          "ticks": 76737,
          "time": 147.57116614375,
          "value": 0.274169921875
        },
        {
          "ticks": 76744,
          "time": 147.5846276833333,
          "value": 0.2745361328125
        },
        {
          "ticks": 76752,
          "time": 147.6000123,
          "value": 0.2747802734375
        },
        {
          "ticks": 76759,
          "time": 147.61347383958332,
          "value": 0.275146484375
        },
        {
          "ticks": 76767,
          "time": 147.62885845625,
          "value": 0.275390625
        },
        {
          "ticks": 76774,
          "time": 147.6423199958333,
          "value": 0.2757568359375
        },
        {
          "ticks": 76782,
          "time": 147.6577046125,
          "value": 0.2760009765625
        },
        {
          "ticks": 76789,
          "time": 147.67116615208332,
          "value": 0.2763671875
        },
        {
          "ticks": 76796,
          "time": 147.68462769166666,
          "value": 0.276611328125
        },
        {
          "ticks": 76804,
          "time": 147.70001230833333,
          "value": 0.27685546875
        },
        {
          "ticks": 76812,
          "time": 147.715396925,
          "value": 0.2772216796875
        },
        {
          "ticks": 76819,
          "time": 147.7288584645833,
          "value": 0.2774658203125
        },
        {
          "ticks": 76827,
          "time": 147.74424308125,
          "value": 0.27783203125
        },
        {
          "ticks": 76834,
          "time": 147.75770462083332,
          "value": 0.278076171875
        },
        {
          "ticks": 76842,
          "time": 147.7730892375,
          "value": 0.2784423828125
        },
        {
          "ticks": 76849,
          "time": 147.7865507770833,
          "value": 0.2786865234375
        },
        {
          "ticks": 76857,
          "time": 147.80193539375,
          "value": 0.279052734375
        },
        {
          "ticks": 76864,
          "time": 147.81539693333332,
          "value": 0.279296875
        },
        {
          "ticks": 76872,
          "time": 147.83078154999998,
          "value": 0.2796630859375
        },
        {
          "ticks": 76879,
          "time": 147.8442430895833,
          "value": 0.2799072265625
        },
        {
          "ticks": 76887,
          "time": 147.85962770625,
          "value": 0.2802734375
        },
        {
          "ticks": 76894,
          "time": 147.8730892458333,
          "value": 0.280517578125
        },
        {
          "ticks": 76902,
          "time": 147.8884738625,
          "value": 0.2808837890625
        },
        {
          "ticks": 76909,
          "time": 147.90193540208332,
          "value": 0.2811279296875
        },
        {
          "ticks": 76917,
          "time": 147.91732001875,
          "value": 0.2813720703125
        },
        {
          "ticks": 76924,
          "time": 147.9307815583333,
          "value": 0.28173828125
        },
        {
          "ticks": 76932,
          "time": 147.946166175,
          "value": 0.281982421875
        },
        {
          "ticks": 76939,
          "time": 147.95962771458332,
          "value": 0.2823486328125
        },
        {
          "ticks": 76947,
          "time": 147.97501233124999,
          "value": 0.2825927734375
        },
        {
          "ticks": 76954,
          "time": 147.9884738708333,
          "value": 0.282958984375
        },
        {
          "ticks": 76962,
          "time": 148.0038584875,
          "value": 0.283203125
        },
        {
          "ticks": 76969,
          "time": 148.01732002708331,
          "value": 0.2835693359375
        },
        {
          "ticks": 76977,
          "time": 148.03270464374998,
          "value": 0.2838134765625
        },
        {
          "ticks": 76984,
          "time": 148.04616618333333,
          "value": 0.2841796875
        },
        {
          "ticks": 76992,
          "time": 148.0615508,
          "value": 0.284423828125
        },
        {
          "ticks": 76999,
          "time": 148.0750123395833,
          "value": 0.2847900390625
        },
        {
          "ticks": 77007,
          "time": 148.09039695625,
          "value": 0.2850341796875
        },
        {
          "ticks": 77014,
          "time": 148.10385849583332,
          "value": 0.285400390625
        },
        {
          "ticks": 77022,
          "time": 148.1192431125,
          "value": 0.28564453125
        },
        {
          "ticks": 77029,
          "time": 148.1327046520833,
          "value": 0.285888671875
        },
        {
          "ticks": 77037,
          "time": 148.14808926875,
          "value": 0.2862548828125
        },
        {
          "ticks": 77044,
          "time": 148.16155080833332,
          "value": 0.2864990234375
        },
        {
          "ticks": 77052,
          "time": 148.17693542499998,
          "value": 0.286865234375
        },
        {
          "ticks": 77059,
          "time": 148.19039696458333,
          "value": 0.287109375
        },
        {
          "ticks": 77067,
          "time": 148.20578158125,
          "value": 0.2874755859375
        },
        {
          "ticks": 77074,
          "time": 148.2192431208333,
          "value": 0.2877197265625
        },
        {
          "ticks": 77082,
          "time": 148.2346277375,
          "value": 0.2880859375
        },
        {
          "ticks": 77089,
          "time": 148.24808927708332,
          "value": 0.288330078125
        },
        {
          "ticks": 77097,
          "time": 148.26347389375,
          "value": 0.2886962890625
        },
        {
          "ticks": 77104,
          "time": 148.2769354333333,
          "value": 0.2889404296875
        },
        {
          "ticks": 77112,
          "time": 148.29232005,
          "value": 0.289306640625
        },
        {
          "ticks": 77119,
          "time": 148.30578158958332,
          "value": 0.28955078125
        },
        {
          "ticks": 77127,
          "time": 148.32116620624998,
          "value": 0.2899169921875
        },
        {
          "ticks": 77134,
          "time": 148.3346277458333,
          "value": 0.2901611328125
        },
        {
          "ticks": 77142,
          "time": 148.3500123625,
          "value": 0.2904052734375
        },
        {
          "ticks": 77149,
          "time": 148.3634739020833,
          "value": 0.290771484375
        },
        {
          "ticks": 77157,
          "time": 148.37885851874998,
          "value": 0.291015625
        },
        {
          "ticks": 77164,
          "time": 148.39232005833333,
          "value": 0.2913818359375
        },
        {
          "ticks": 77172,
          "time": 148.407704675,
          "value": 0.2916259765625
        },
        {
          "ticks": 77179,
          "time": 148.4211662145833,
          "value": 0.2919921875
        },
        {
          "ticks": 77187,
          "time": 148.43655083125,
          "value": 0.292236328125
        },
        {
          "ticks": 77194,
          "time": 148.45001237083332,
          "value": 0.2926025390625
        },
        {
          "ticks": 77202,
          "time": 148.4653969875,
          "value": 0.2928466796875
        },
        {
          "ticks": 77209,
          "time": 148.4788585270833,
          "value": 0.293212890625
        },
        {
          "ticks": 77217,
          "time": 148.49424314375,
          "value": 0.29345703125
        },
        {
          "ticks": 77224,
          "time": 148.50770468333332,
          "value": 0.2938232421875
        },
        {
          "ticks": 77232,
          "time": 148.52308929999998,
          "value": 0.2940673828125
        },
        {
          "ticks": 77239,
          "time": 148.53655083958333,
          "value": 0.29443359375
        },
        {
          "ticks": 77247,
          "time": 148.55193545625,
          "value": 0.294677734375
        },
        {
          "ticks": 77254,
          "time": 148.5653969958333,
          "value": 0.294921875
        },
        {
          "ticks": 77262,
          "time": 148.5807816125,
          "value": 0.2952880859375
        },
        {
          "ticks": 77269,
          "time": 148.59424315208332,
          "value": 0.2955322265625
        },
        {
          "ticks": 77277,
          "time": 148.60962776875,
          "value": 0.2958984375
        },
        {
          "ticks": 77284,
          "time": 148.6230893083333,
          "value": 0.296142578125
        },
        {
          "ticks": 77292,
          "time": 148.638473925,
          "value": 0.2965087890625
        },
        {
          "ticks": 77299,
          "time": 148.65193546458332,
          "value": 0.2967529296875
        },
        {
          "ticks": 77307,
          "time": 148.66732008124998,
          "value": 0.297119140625
        },
        {
          "ticks": 77314,
          "time": 148.6807816208333,
          "value": 0.29736328125
        },
        {
          "ticks": 77322,
          "time": 148.6961662375,
          "value": 0.2977294921875
        },
        {
          "ticks": 77329,
          "time": 148.7096277770833,
          "value": 0.2979736328125
        },
        {
          "ticks": 77337,
          "time": 148.72501239375,
          "value": 0.29833984375
        },
        {
          "ticks": 77344,
          "time": 148.73847393333332,
          "value": 0.298583984375
        },
        {
          "ticks": 77352,
          "time": 148.75385855,
          "value": 0.2989501953125
        },
        {
          "ticks": 77359,
          "time": 148.7673200895833,
          "value": 0.2991943359375
        },
        {
          "ticks": 77367,
          "time": 148.78270470625,
          "value": 0.2994384765625
        },
        {
          "ticks": 77374,
          "time": 148.79616624583332,
          "value": 0.2998046875
        },
        {
          "ticks": 77382,
          "time": 148.81155086249998,
          "value": 0.300048828125
        },
        {
          "ticks": 77389,
          "time": 148.8250124020833,
          "value": 0.3004150390625
        },
        {
          "ticks": 77397,
          "time": 148.84039701875,
          "value": 0.3006591796875
        },
        {
          "ticks": 77404,
          "time": 148.85385855833331,
          "value": 0.301025390625
        },
        {
          "ticks": 77412,
          "time": 148.86924317499998,
          "value": 0.30126953125
        },
        {
          "ticks": 77419,
          "time": 148.88270471458333,
          "value": 0.3016357421875
        },
        {
          "ticks": 77427,
          "time": 148.89808933125,
          "value": 0.3018798828125
        },
        {
          "ticks": 77434,
          "time": 148.9115508708333,
          "value": 0.30224609375
        },
        {
          "ticks": 77442,
          "time": 148.9269354875,
          "value": 0.302490234375
        },
        {
          "ticks": 77449,
          "time": 148.94039702708332,
          "value": 0.3028564453125
        },
        {
          "ticks": 77457,
          "time": 148.95578164375,
          "value": 0.3031005859375
        },
        {
          "ticks": 77464,
          "time": 148.9692431833333,
          "value": 0.303466796875
        },
        {
          "ticks": 77472,
          "time": 148.9846278,
          "value": 0.3037109375
        },
        {
          "ticks": 77479,
          "time": 148.99808933958332,
          "value": 0.303955078125
        },
        {
          "ticks": 77487,
          "time": 149.01347395624998,
          "value": 0.3043212890625
        },
        {
          "ticks": 77494,
          "time": 149.02693549583333,
          "value": 0.3045654296875
        },
        {
          "ticks": 77502,
          "time": 149.0423201125,
          "value": 0.304931640625
        },
        {
          "ticks": 77509,
          "time": 149.0557816520833,
          "value": 0.30517578125
        },
        {
          "ticks": 77517,
          "time": 149.07116626875,
          "value": 0.3055419921875
        },
        {
          "ticks": 77524,
          "time": 149.08462780833332,
          "value": 0.3057861328125
        },
        {
          "ticks": 77532,
          "time": 149.100012425,
          "value": 0.30615234375
        },
        {
          "ticks": 77539,
          "time": 149.1134739645833,
          "value": 0.306396484375
        },
        {
          "ticks": 77547,
          "time": 149.12885858125,
          "value": 0.3067626953125
        },
        {
          "ticks": 77554,
          "time": 149.14232012083332,
          "value": 0.3070068359375
        },
        {
          "ticks": 77562,
          "time": 149.15770473749998,
          "value": 0.307373046875
        },
        {
          "ticks": 77569,
          "time": 149.1711662770833,
          "value": 0.3076171875
        },
        {
          "ticks": 77577,
          "time": 149.18655089375,
          "value": 0.3079833984375
        },
        {
          "ticks": 77584,
          "time": 149.2000124333333,
          "value": 0.3082275390625
        },
        {
          "ticks": 77592,
          "time": 149.21539705,
          "value": 0.3084716796875
        },
        {
          "ticks": 77599,
          "time": 149.22885858958333,
          "value": 0.308837890625
        },
        {
          "ticks": 77607,
          "time": 149.24424320625,
          "value": 0.30908203125
        },
        {
          "ticks": 77614,
          "time": 149.2577047458333,
          "value": 0.3094482421875
        },
        {
          "ticks": 77622,
          "time": 149.2730893625,
          "value": 0.3096923828125
        },
        {
          "ticks": 77629,
          "time": 149.28655090208332,
          "value": 0.31005859375
        },
        {
          "ticks": 77637,
          "time": 149.30193551874999,
          "value": 0.310302734375
        },
        {
          "ticks": 77644,
          "time": 149.3153970583333,
          "value": 0.3106689453125
        },
        {
          "ticks": 77652,
          "time": 149.330781675,
          "value": 0.3109130859375
        },
        {
          "ticks": 77659,
          "time": 149.34424321458332,
          "value": 0.311279296875
        },
        {
          "ticks": 77667,
          "time": 149.35962783124998,
          "value": 0.3115234375
        },
        {
          "ticks": 77674,
          "time": 149.37308937083333,
          "value": 0.3118896484375
        },
        {
          "ticks": 77682,
          "time": 149.3884739875,
          "value": 0.3121337890625
        },
        {
          "ticks": 77689,
          "time": 149.4019355270833,
          "value": 0.3125
        },
        {
          "ticks": 77697,
          "time": 149.41732014375,
          "value": 0.312744140625
        },
        {
          "ticks": 77704,
          "time": 149.43078168333332,
          "value": 0.31298828125
        },
        {
          "ticks": 77712,
          "time": 149.4461663,
          "value": 0.3133544921875
        },
        {
          "ticks": 77719,
          "time": 149.4596278395833,
          "value": 0.3135986328125
        },
        {
          "ticks": 77727,
          "time": 149.47501245625,
          "value": 0.31396484375
        },
        {
          "ticks": 77734,
          "time": 149.48847399583332,
          "value": 0.314208984375
        },
        {
          "ticks": 77742,
          "time": 149.50385861249998,
          "value": 0.3145751953125
        },
        {
          "ticks": 77749,
          "time": 149.5173201520833,
          "value": 0.3148193359375
        },
        {
          "ticks": 77757,
          "time": 149.53270476875,
          "value": 0.315185546875
        },
        {
          "ticks": 77764,
          "time": 149.5461663083333,
          "value": 0.3154296875
        },
        {
          "ticks": 77772,
          "time": 149.561550925,
          "value": 0.3157958984375
        },
        {
          "ticks": 77779,
          "time": 149.57501246458332,
          "value": 0.3160400390625
        },
        {
          "ticks": 77787,
          "time": 149.59039708125,
          "value": 0.31640625
        },
        {
          "ticks": 77794,
          "time": 149.6038586208333,
          "value": 0.316650390625
        },
        {
          "ticks": 77802,
          "time": 149.6192432375,
          "value": 0.3170166015625
        },
        {
          "ticks": 77809,
          "time": 149.63270477708332,
          "value": 0.3172607421875
        },
        {
          "ticks": 77817,
          "time": 149.64808939374998,
          "value": 0.3175048828125
        },
        {
          "ticks": 77824,
          "time": 149.6615509333333,
          "value": 0.31787109375
        },
        {
          "ticks": 77832,
          "time": 149.67693555,
          "value": 0.318115234375
        },
        {
          "ticks": 77839,
          "time": 149.6903970895833,
          "value": 0.3184814453125
        },
        {
          "ticks": 77847,
          "time": 149.70578170624998,
          "value": 0.3187255859375
        },
        {
          "ticks": 77854,
          "time": 149.71924324583333,
          "value": 0.319091796875
        },
        {
          "ticks": 77862,
          "time": 149.7346278625,
          "value": 0.3193359375
        },
        {
          "ticks": 77869,
          "time": 149.7480894020833,
          "value": 0.3197021484375
        },
        {
          "ticks": 77877,
          "time": 149.76347401875,
          "value": 0.3199462890625
        },
        {
          "ticks": 77884,
          "time": 149.77693555833332,
          "value": 0.3203125
        },
        {
          "ticks": 77892,
          "time": 149.792320175,
          "value": 0.320556640625
        },
        {
          "ticks": 77899,
          "time": 149.8057817145833,
          "value": 0.3209228515625
        },
        {
          "ticks": 77907,
          "time": 149.82116633125,
          "value": 0.3211669921875
        },
        {
          "ticks": 77914,
          "time": 149.83462787083332,
          "value": 0.321533203125
        },
        {
          "ticks": 77922,
          "time": 149.85001248749998,
          "value": 0.32177734375
        },
        {
          "ticks": 77929,
          "time": 149.86347402708333,
          "value": 0.322021484375
        },
        {
          "ticks": 77937,
          "time": 149.87885864375,
          "value": 0.3223876953125
        },
        {
          "ticks": 77944,
          "time": 149.8923201833333,
          "value": 0.3226318359375
        },
        {
          "ticks": 77952,
          "time": 149.9077048,
          "value": 0.322998046875
        },
        {
          "ticks": 77959,
          "time": 149.92116633958332,
          "value": 0.3232421875
        },
        {
          "ticks": 77967,
          "time": 149.93655095625,
          "value": 0.3236083984375
        },
        {
          "ticks": 77974,
          "time": 149.9500124958333,
          "value": 0.3238525390625
        },
        {
          "ticks": 77982,
          "time": 149.9653971125,
          "value": 0.32421875
        },
        {
          "ticks": 77989,
          "time": 149.97885865208332,
          "value": 0.324462890625
        },
        {
          "ticks": 77997,
          "time": 149.99424326874998,
          "value": 0.3248291015625
        },
        {
          "ticks": 78004,
          "time": 150.0077048083333,
          "value": 0.3250732421875
        },
        {
          "ticks": 78012,
          "time": 150.023089425,
          "value": 0.325439453125
        },
        {
          "ticks": 78019,
          "time": 150.0365509645833,
          "value": 0.32568359375
        },
        {
          "ticks": 78027,
          "time": 150.05193558125,
          "value": 0.325927734375
        },
        {
          "ticks": 78034,
          "time": 150.06539712083332,
          "value": 0.3262939453125
        },
        {
          "ticks": 78042,
          "time": 150.0807817375,
          "value": 0.3265380859375
        },
        {
          "ticks": 78049,
          "time": 150.0942432770833,
          "value": 0.326904296875
        },
        {
          "ticks": 78057,
          "time": 150.10962789375,
          "value": 0.3271484375
        },
        {
          "ticks": 78064,
          "time": 150.12308943333332,
          "value": 0.3275146484375
        },
        {
          "ticks": 78072,
          "time": 150.13847404999999,
          "value": 0.3277587890625
        },
        {
          "ticks": 78079,
          "time": 150.1519355895833,
          "value": 0.328125
        },
        {
          "ticks": 78087,
          "time": 150.16732020625,
          "value": 0.328369140625
        },
        {
          "ticks": 78094,
          "time": 150.18078174583331,
          "value": 0.3287353515625
        },
        {
          "ticks": 78102,
          "time": 150.19616636249998,
          "value": 0.3289794921875
        },
        {
          "ticks": 78109,
          "time": 150.20962790208333,
          "value": 0.329345703125
        },
        {
          "ticks": 78117,
          "time": 150.22501251875,
          "value": 0.32958984375
        },
        {
          "ticks": 78124,
          "time": 150.2384740583333,
          "value": 0.3299560546875
        },
        {
          "ticks": 78132,
          "time": 150.253858675,
          "value": 0.3302001953125
        },
        {
          "ticks": 78139,
          "time": 150.26732021458332,
          "value": 0.3304443359375
        },
        {
          "ticks": 78147,
          "time": 150.28270483125,
          "value": 0.330810546875
        },
        {
          "ticks": 78154,
          "time": 150.2961663708333,
          "value": 0.3310546875
        },
        {
          "ticks": 78162,
          "time": 150.3115509875,
          "value": 0.3314208984375
        },
        {
          "ticks": 78169,
          "time": 150.32501252708332,
          "value": 0.3316650390625
        },
        {
          "ticks": 78177,
          "time": 150.34039714374998,
          "value": 0.33203125
        },
        {
          "ticks": 78184,
          "time": 150.35385868333333,
          "value": 0.332275390625
        },
        {
          "ticks": 78192,
          "time": 150.3692433,
          "value": 0.3326416015625
        },
        {
          "ticks": 78199,
          "time": 150.3827048395833,
          "value": 0.3328857421875
        },
        {
          "ticks": 78207,
          "time": 150.39808945625,
          "value": 0.333251953125
        },
        {
          "ticks": 78214,
          "time": 150.41155099583332,
          "value": 0.33349609375
        },
        {
          "ticks": 78222,
          "time": 150.4269356125,
          "value": 0.3338623046875
        },
        {
          "ticks": 78229,
          "time": 150.4403971520833,
          "value": 0.3341064453125
        },
        {
          "ticks": 78237,
          "time": 150.45578176875,
          "value": 0.33447265625
        },
        {
          "ticks": 78244,
          "time": 150.46924330833332,
          "value": 0.334716796875
        },
        {
          "ticks": 78252,
          "time": 150.48462792499998,
          "value": 0.3349609375
        },
        {
          "ticks": 78259,
          "time": 150.4980894645833,
          "value": 0.3353271484375
        },
        {
          "ticks": 78267,
          "time": 150.51347408125,
          "value": 0.3355712890625
        },
        {
          "ticks": 78274,
          "time": 150.5269356208333,
          "value": 0.3359375
        },
        {
          "ticks": 78282,
          "time": 150.54232023749998,
          "value": 0.336181640625
        },
        {
          "ticks": 78289,
          "time": 150.55578177708333,
          "value": 0.3365478515625
        },
        {
          "ticks": 78297,
          "time": 150.57116639375,
          "value": 0.3367919921875
        },
        {
          "ticks": 78304,
          "time": 150.5846279333333,
          "value": 0.337158203125
        },
        {
          "ticks": 78312,
          "time": 150.60001255,
          "value": 0.33740234375
        },
        {
          "ticks": 78319,
          "time": 150.61347408958332,
          "value": 0.3377685546875
        },
        {
          "ticks": 78327,
          "time": 150.62885870624999,
          "value": 0.3380126953125
        },
        {
          "ticks": 78334,
          "time": 150.6423202458333,
          "value": 0.33837890625
        },
        {
          "ticks": 78342,
          "time": 150.6577048625,
          "value": 0.338623046875
        },
        {
          "ticks": 78349,
          "time": 150.67116640208332,
          "value": 0.3389892578125
        },
        {
          "ticks": 78357,
          "time": 150.68655101874998,
          "value": 0.3392333984375
        },
        {
          "ticks": 78364,
          "time": 150.70001255833333,
          "value": 0.3394775390625
        },
        {
          "ticks": 78372,
          "time": 150.715397175,
          "value": 0.33984375
        },
        {
          "ticks": 78379,
          "time": 150.7288587145833,
          "value": 0.340087890625
        },
        {
          "ticks": 78387,
          "time": 150.74424333125,
          "value": 0.3404541015625
        },
        {
          "ticks": 78394,
          "time": 150.75770487083332,
          "value": 0.3406982421875
        },
        {
          "ticks": 78402,
          "time": 150.7730894875,
          "value": 0.341064453125
        },
        {
          "ticks": 78409,
          "time": 150.7865510270833,
          "value": 0.34130859375
        },
        {
          "ticks": 78417,
          "time": 150.80193564375,
          "value": 0.3416748046875
        },
        {
          "ticks": 78424,
          "time": 150.81539718333332,
          "value": 0.3419189453125
        },
        {
          "ticks": 78432,
          "time": 150.83078179999998,
          "value": 0.34228515625
        },
        {
          "ticks": 78439,
          "time": 150.8442433395833,
          "value": 0.342529296875
        },
        {
          "ticks": 78447,
          "time": 150.85962795625,
          "value": 0.3428955078125
        },
        {
          "ticks": 78454,
          "time": 150.8730894958333,
          "value": 0.3431396484375
        },
        {
          "ticks": 78462,
          "time": 150.8884741125,
          "value": 0.343505859375
        },
        {
          "ticks": 78469,
          "time": 150.90193565208332,
          "value": 0.34375
        },
        {
          "ticks": 78477,
          "time": 150.91732026875,
          "value": 0.343994140625
        },
        {
          "ticks": 78484,
          "time": 150.9307818083333,
          "value": 0.3443603515625
        },
        {
          "ticks": 78492,
          "time": 150.946166425,
          "value": 0.3446044921875
        },
        {
          "ticks": 78499,
          "time": 150.95962796458332,
          "value": 0.344970703125
        },
        {
          "ticks": 78507,
          "time": 150.97501258124998,
          "value": 0.34521484375
        },
        {
          "ticks": 78514,
          "time": 150.9884741208333,
          "value": 0.3455810546875
        },
        {
          "ticks": 78522,
          "time": 151.0038587375,
          "value": 0.3458251953125
        },
        {
          "ticks": 78529,
          "time": 151.01732027708331,
          "value": 0.34619140625
        },
        {
          "ticks": 78537,
          "time": 151.03270489374998,
          "value": 0.346435546875
        },
        {
          "ticks": 78544,
          "time": 151.04616643333333,
          "value": 0.3468017578125
        },
        {
          "ticks": 78552,
          "time": 151.06155105,
          "value": 0.3470458984375
        },
        {
          "ticks": 78559,
          "time": 151.0750125895833,
          "value": 0.347412109375
        },
        {
          "ticks": 78567,
          "time": 151.09039720625,
          "value": 0.34765625
        },
        {
          "ticks": 78574,
          "time": 151.10385874583332,
          "value": 0.3480224609375
        },
        {
          "ticks": 78582,
          "time": 151.1192433625,
          "value": 0.3482666015625
        },
        {
          "ticks": 78589,
          "time": 151.1327049020833,
          "value": 0.3485107421875
        },
        {
          "ticks": 78596,
          "time": 151.14616644166665,
          "value": 0.348876953125
        },
        {
          "ticks": 78604,
          "time": 151.16155105833332,
          "value": 0.34912109375
        },
        {
          "ticks": 78612,
          "time": 151.17693567499998,
          "value": 0.3494873046875
        },
        {
          "ticks": 78619,
          "time": 151.19039721458333,
          "value": 0.3497314453125
        },
        {
          "ticks": 78627,
          "time": 151.20578183125,
          "value": 0.35009765625
        },
        {
          "ticks": 78634,
          "time": 151.2192433708333,
          "value": 0.350341796875
        },
        {
          "ticks": 78642,
          "time": 151.2346279875,
          "value": 0.3507080078125
        },
        {
          "ticks": 78649,
          "time": 151.24808952708332,
          "value": 0.3509521484375
        },
        {
          "ticks": 78657,
          "time": 151.26347414375,
          "value": 0.351318359375
        },
        {
          "ticks": 78664,
          "time": 151.2769356833333,
          "value": 0.3515625
        },
        {
          "ticks": 78672,
          "time": 151.2923203,
          "value": 0.3519287109375
        },
        {
          "ticks": 78679,
          "time": 151.30578183958332,
          "value": 0.3521728515625
        },
        {
          "ticks": 78687,
          "time": 151.32116645624998,
          "value": 0.3525390625
        },
        {
          "ticks": 78694,
          "time": 151.3346279958333,
          "value": 0.352783203125
        },
        {
          "ticks": 78702,
          "time": 151.3500126125,
          "value": 0.35302734375
        },
        {
          "ticks": 78709,
          "time": 151.3634741520833,
          "value": 0.3533935546875
        },
        {
          "ticks": 78716,
          "time": 151.37693569166666,
          "value": 0.3536376953125
        },
        {
          "ticks": 78724,
          "time": 151.39232030833332,
          "value": 0.35400390625
        },
        {
          "ticks": 78732,
          "time": 151.407704925,
          "value": 0.354248046875
        },
        {
          "ticks": 78739,
          "time": 151.4211664645833,
          "value": 0.3546142578125
        },
        {
          "ticks": 78747,
          "time": 151.43655108125,
          "value": 0.3548583984375
        },
        {
          "ticks": 78754,
          "time": 151.45001262083332,
          "value": 0.355224609375
        },
        {
          "ticks": 78762,
          "time": 151.46539723749999,
          "value": 0.35546875
        },
        {
          "ticks": 78769,
          "time": 151.4788587770833,
          "value": 0.3558349609375
        },
        {
          "ticks": 78777,
          "time": 151.49424339375,
          "value": 0.3560791015625
        },
        {
          "ticks": 78784,
          "time": 151.50770493333332,
          "value": 0.3564453125
        },
        {
          "ticks": 78792,
          "time": 151.52308954999998,
          "value": 0.356689453125
        },
        {
          "ticks": 78799,
          "time": 151.53655108958333,
          "value": 0.3570556640625
        },
        {
          "ticks": 78807,
          "time": 151.55193570625,
          "value": 0.3572998046875
        },
        {
          "ticks": 78814,
          "time": 151.5653972458333,
          "value": 0.3575439453125
        },
        {
          "ticks": 78822,
          "time": 151.5807818625,
          "value": 0.35791015625
        },
        {
          "ticks": 78829,
          "time": 151.59424340208332,
          "value": 0.358154296875
        },
        {
          "ticks": 78837,
          "time": 151.60962801875,
          "value": 0.3585205078125
        },
        {
          "ticks": 78844,
          "time": 151.6230895583333,
          "value": 0.3587646484375
        },
        {
          "ticks": 78852,
          "time": 151.638474175,
          "value": 0.359130859375
        },
        {
          "ticks": 78859,
          "time": 151.65193571458332,
          "value": 0.359375
        },
        {
          "ticks": 78867,
          "time": 151.66732033124998,
          "value": 0.3597412109375
        },
        {
          "ticks": 78874,
          "time": 151.6807818708333,
          "value": 0.3599853515625
        },
        {
          "ticks": 78882,
          "time": 151.6961664875,
          "value": 0.3603515625
        },
        {
          "ticks": 78889,
          "time": 151.7096280270833,
          "value": 0.360595703125
        },
        {
          "ticks": 78897,
          "time": 151.72501264375,
          "value": 0.3609619140625
        },
        {
          "ticks": 78904,
          "time": 151.73847418333332,
          "value": 0.3612060546875
        },
        {
          "ticks": 78912,
          "time": 151.7538588,
          "value": 0.361572265625
        },
        {
          "ticks": 78919,
          "time": 151.7673203395833,
          "value": 0.36181640625
        },
        {
          "ticks": 78927,
          "time": 151.78270495625,
          "value": 0.362060546875
        },
        {
          "ticks": 78934,
          "time": 151.79616649583332,
          "value": 0.3624267578125
        },
        {
          "ticks": 78942,
          "time": 151.81155111249998,
          "value": 0.3626708984375
        },
        {
          "ticks": 78949,
          "time": 151.8250126520833,
          "value": 0.363037109375
        },
        {
          "ticks": 78957,
          "time": 151.84039726875,
          "value": 0.36328125
        },
        {
          "ticks": 78964,
          "time": 151.8538588083333,
          "value": 0.3636474609375
        },
        {
          "ticks": 78972,
          "time": 151.86924342499998,
          "value": 0.3638916015625
        },
        {
          "ticks": 78979,
          "time": 151.88270496458333,
          "value": 0.3642578125
        },
        {
          "ticks": 78987,
          "time": 151.89808958125,
          "value": 0.364501953125
        },
        {
          "ticks": 78994,
          "time": 151.9115511208333,
          "value": 0.3648681640625
        },
        {
          "ticks": 79002,
          "time": 151.9269357375,
          "value": 0.3651123046875
        },
        {
          "ticks": 79009,
          "time": 151.94039727708332,
          "value": 0.365478515625
        },
        {
          "ticks": 79017,
          "time": 151.95578189375,
          "value": 0.36572265625
        },
        {
          "ticks": 79024,
          "time": 151.9692434333333,
          "value": 0.3660888671875
        },
        {
          "ticks": 79032,
          "time": 151.98462805,
          "value": 0.3663330078125
        },
        {
          "ticks": 79039,
          "time": 151.99808958958332,
          "value": 0.3665771484375
        },
        {
          "ticks": 79047,
          "time": 152.01347420624998,
          "value": 0.366943359375
        },
        {
          "ticks": 79054,
          "time": 152.02693574583333,
          "value": 0.3671875
        },
        {
          "ticks": 79062,
          "time": 152.0423203625,
          "value": 0.3675537109375
        },
        {
          "ticks": 79069,
          "time": 152.0557819020833,
          "value": 0.3677978515625
        },
        {
          "ticks": 79077,
          "time": 152.07116651875,
          "value": 0.3681640625
        },
        {
          "ticks": 79084,
          "time": 152.08462805833332,
          "value": 0.368408203125
        },
        {
          "ticks": 79092,
          "time": 152.100012675,
          "value": 0.3687744140625
        },
        {
          "ticks": 79099,
          "time": 152.1134742145833,
          "value": 0.3690185546875
        },
        {
          "ticks": 79107,
          "time": 152.12885883125,
          "value": 0.369384765625
        },
        {
          "ticks": 79114,
          "time": 152.14232037083332,
          "value": 0.36962890625
        },
        {
          "ticks": 79122,
          "time": 152.15770498749998,
          "value": 0.3699951171875
        },
        {
          "ticks": 79129,
          "time": 152.1711665270833,
          "value": 0.3702392578125
        },
        {
          "ticks": 79137,
          "time": 152.18655114375,
          "value": 0.37060546875
        },
        {
          "ticks": 79144,
          "time": 152.2000126833333,
          "value": 0.370849609375
        },
        {
          "ticks": 79152,
          "time": 152.2153973,
          "value": 0.37109375
        },
        {
          "ticks": 79159,
          "time": 152.22885883958332,
          "value": 0.3714599609375
        },
        {
          "ticks": 79167,
          "time": 152.24424345625,
          "value": 0.3717041015625
        },
        {
          "ticks": 79174,
          "time": 152.2577049958333,
          "value": 0.3720703125
        },
        {
          "ticks": 79182,
          "time": 152.2730896125,
          "value": 0.372314453125
        },
        {
          "ticks": 79189,
          "time": 152.28655115208332,
          "value": 0.3726806640625
        },
        {
          "ticks": 79197,
          "time": 152.30193576874998,
          "value": 0.3729248046875
        },
        {
          "ticks": 79204,
          "time": 152.3153973083333,
          "value": 0.373291015625
        },
        {
          "ticks": 79212,
          "time": 152.330781925,
          "value": 0.37353515625
        },
        {
          "ticks": 79219,
          "time": 152.34424346458331,
          "value": 0.3739013671875
        },
        {
          "ticks": 79227,
          "time": 152.35962808124998,
          "value": 0.3741455078125
        },
        {
          "ticks": 79234,
          "time": 152.37308962083333,
          "value": 0.37451171875
        },
        {
          "ticks": 79242,
          "time": 152.3884742375,
          "value": 0.374755859375
        },
        {
          "ticks": 79249,
          "time": 152.4019357770833,
          "value": 0.3751220703125
        },
        {
          "ticks": 79257,
          "time": 152.41732039375,
          "value": 0.3753662109375
        },
        {
          "ticks": 79264,
          "time": 152.43078193333332,
          "value": 0.3756103515625
        },
        {
          "ticks": 79272,
          "time": 152.44616655,
          "value": 0.3759765625
        },
        {
          "ticks": 79279,
          "time": 152.4596280895833,
          "value": 0.376220703125
        },
        {
          "ticks": 79287,
          "time": 152.47501270625,
          "value": 0.3765869140625
        },
        {
          "ticks": 79294,
          "time": 152.48847424583332,
          "value": 0.3768310546875
        },
        {
          "ticks": 79302,
          "time": 152.50385886249998,
          "value": 0.377197265625
        },
        {
          "ticks": 79309,
          "time": 152.51732040208333,
          "value": 0.37744140625
        },
        {
          "ticks": 79317,
          "time": 152.53270501875,
          "value": 0.3778076171875
        },
        {
          "ticks": 79324,
          "time": 152.5461665583333,
          "value": 0.3780517578125
        },
        {
          "ticks": 79332,
          "time": 152.561551175,
          "value": 0.37841796875
        },
        {
          "ticks": 79339,
          "time": 152.57501271458332,
          "value": 0.378662109375
        },
        {
          "ticks": 79347,
          "time": 152.59039733125,
          "value": 0.3790283203125
        },
        {
          "ticks": 79354,
          "time": 152.6038588708333,
          "value": 0.3792724609375
        },
        {
          "ticks": 79362,
          "time": 152.6192434875,
          "value": 0.3795166015625
        },
        {
          "ticks": 79369,
          "time": 152.63270502708332,
          "value": 0.3798828125
        },
        {
          "ticks": 79377,
          "time": 152.64808964374998,
          "value": 0.380126953125
        },
        {
          "ticks": 79384,
          "time": 152.6615511833333,
          "value": 0.3804931640625
        },
        {
          "ticks": 79392,
          "time": 152.6769358,
          "value": 0.3807373046875
        },
        {
          "ticks": 79399,
          "time": 152.6903973395833,
          "value": 0.381103515625
        },
        {
          "ticks": 79407,
          "time": 152.70578195624998,
          "value": 0.38134765625
        },
        {
          "ticks": 79414,
          "time": 152.71924349583333,
          "value": 0.3817138671875
        },
        {
          "ticks": 79422,
          "time": 152.7346281125,
          "value": 0.3819580078125
        },
        {
          "ticks": 79429,
          "time": 152.7480896520833,
          "value": 0.38232421875
        },
        {
          "ticks": 79437,
          "time": 152.76347426875,
          "value": 0.382568359375
        },
        {
          "ticks": 79444,
          "time": 152.77693580833332,
          "value": 0.3829345703125
        },
        {
          "ticks": 79452,
          "time": 152.79232042499999,
          "value": 0.3831787109375
        },
        {
          "ticks": 79459,
          "time": 152.8057819645833,
          "value": 0.383544921875
        },
        {
          "ticks": 79467,
          "time": 152.82116658125,
          "value": 0.3837890625
        },
        {
          "ticks": 79474,
          "time": 152.83462812083332,
          "value": 0.384033203125
        },
        {
          "ticks": 79482,
          "time": 152.85001273749998,
          "value": 0.3843994140625
        },
        {
          "ticks": 79489,
          "time": 152.86347427708333,
          "value": 0.3846435546875
        },
        {
          "ticks": 79497,
          "time": 152.87885889375,
          "value": 0.385009765625
        },
        {
          "ticks": 79504,
          "time": 152.8923204333333,
          "value": 0.38525390625
        },
        {
          "ticks": 79512,
          "time": 152.90770505,
          "value": 0.3856201171875
        },
        {
          "ticks": 79519,
          "time": 152.92116658958332,
          "value": 0.3858642578125
        },
        {
          "ticks": 79527,
          "time": 152.93655120625,
          "value": 0.38623046875
        },
        {
          "ticks": 79534,
          "time": 152.9500127458333,
          "value": 0.386474609375
        },
        {
          "ticks": 79542,
          "time": 152.9653973625,
          "value": 0.3868408203125
        },
        {
          "ticks": 79549,
          "time": 152.97885890208332,
          "value": 0.3870849609375
        },
        {
          "ticks": 79557,
          "time": 152.99424351874998,
          "value": 0.387451171875
        },
        {
          "ticks": 79564,
          "time": 153.0077050583333,
          "value": 0.3876953125
        },
        {
          "ticks": 79572,
          "time": 153.023089675,
          "value": 0.3880615234375
        },
        {
          "ticks": 79579,
          "time": 153.0365512145833,
          "value": 0.3883056640625
        },
        {
          "ticks": 79587,
          "time": 153.05193583125,
          "value": 0.3885498046875
        },
        {
          "ticks": 79594,
          "time": 153.06539737083332,
          "value": 0.388916015625
        },
        {
          "ticks": 79602,
          "time": 153.0807819875,
          "value": 0.38916015625
        },
        {
          "ticks": 79609,
          "time": 153.0942435270833,
          "value": 0.3895263671875
        },
        {
          "ticks": 79617,
          "time": 153.10962814375,
          "value": 0.3897705078125
        },
        {
          "ticks": 79624,
          "time": 153.12308968333332,
          "value": 0.39013671875
        },
        {
          "ticks": 79632,
          "time": 153.13847429999998,
          "value": 0.390380859375
        },
        {
          "ticks": 79639,
          "time": 153.1519358395833,
          "value": 0.3907470703125
        },
        {
          "ticks": 79647,
          "time": 153.16732045625,
          "value": 0.3909912109375
        },
        {
          "ticks": 79654,
          "time": 153.1807819958333,
          "value": 0.391357421875
        },
        {
          "ticks": 79662,
          "time": 153.19616661249998,
          "value": 0.3916015625
        },
        {
          "ticks": 79669,
          "time": 153.20962815208333,
          "value": 0.3919677734375
        },
        {
          "ticks": 79676,
          "time": 153.22308969166667,
          "value": 0.3922119140625
        },
        {
          "ticks": 79684,
          "time": 153.2384743083333,
          "value": 0.392578125
        },
        {
          "ticks": 79692,
          "time": 153.253858925,
          "value": 0.392822265625
        },
        {
          "ticks": 79699,
          "time": 153.26732046458332,
          "value": 0.39306640625
        },
        {
          "ticks": 79707,
          "time": 153.28270508125,
          "value": 0.3934326171875
        },
        {
          "ticks": 79714,
          "time": 153.2961666208333,
          "value": 0.3936767578125
        },
        {
          "ticks": 79722,
          "time": 153.3115512375,
          "value": 0.39404296875
        },
        {
          "ticks": 79729,
          "time": 153.32501277708332,
          "value": 0.394287109375
        },
        {
          "ticks": 79737,
          "time": 153.34039739374998,
          "value": 0.3946533203125
        },
        {
          "ticks": 79744,
          "time": 153.35385893333333,
          "value": 0.3948974609375
        },
        {
          "ticks": 79752,
          "time": 153.36924355,
          "value": 0.395263671875
        },
        {
          "ticks": 79759,
          "time": 153.3827050895833,
          "value": 0.3955078125
        },
        {
          "ticks": 79767,
          "time": 153.39808970625,
          "value": 0.3958740234375
        },
        {
          "ticks": 79774,
          "time": 153.41155124583332,
          "value": 0.3961181640625
        },
        {
          "ticks": 79782,
          "time": 153.4269358625,
          "value": 0.396484375
        },
        {
          "ticks": 79789,
          "time": 153.4403974020833,
          "value": 0.396728515625
        },
        {
          "ticks": 79797,
          "time": 153.45578201875,
          "value": 0.3970947265625
        },
        {
          "ticks": 79804,
          "time": 153.46924355833332,
          "value": 0.3973388671875
        },
        {
          "ticks": 79812,
          "time": 153.48462817499998,
          "value": 0.3975830078125
        },
        {
          "ticks": 79819,
          "time": 153.4980897145833,
          "value": 0.39794921875
        },
        {
          "ticks": 79827,
          "time": 153.51347433125,
          "value": 0.398193359375
        },
        {
          "ticks": 79834,
          "time": 153.5269358708333,
          "value": 0.3985595703125
        },
        {
          "ticks": 79842,
          "time": 153.5423204875,
          "value": 0.3988037109375
        },
        {
          "ticks": 79849,
          "time": 153.55578202708332,
          "value": 0.399169921875
        },
        {
          "ticks": 79857,
          "time": 153.57116664375,
          "value": 0.3994140625
        },
        {
          "ticks": 79864,
          "time": 153.5846281833333,
          "value": 0.3997802734375
        },
        {
          "ticks": 79872,
          "time": 153.6000128,
          "value": 0.4000244140625
        },
        {
          "ticks": 79879,
          "time": 153.61347433958332,
          "value": 0.400390625
        },
        {
          "ticks": 79887,
          "time": 153.62885895624999,
          "value": 0.400634765625
        },
        {
          "ticks": 79894,
          "time": 153.6423204958333,
          "value": 0.4010009765625
        },
        {
          "ticks": 79902,
          "time": 153.6577051125,
          "value": 0.4012451171875
        },
        {
          "ticks": 79909,
          "time": 153.67116665208331,
          "value": 0.401611328125
        },
        {
          "ticks": 79917,
          "time": 153.68655126874998,
          "value": 0.40185546875
        },
        {
          "ticks": 79924,
          "time": 153.70001280833333,
          "value": 0.402099609375
        },
        {
          "ticks": 79932,
          "time": 153.715397425,
          "value": 0.4024658203125
        },
        {
          "ticks": 79939,
          "time": 153.7288589645833,
          "value": 0.4027099609375
        },
        {
          "ticks": 79947,
          "time": 153.74424358125,
          "value": 0.403076171875
        },
        {
          "ticks": 79954,
          "time": 153.75770512083332,
          "value": 0.4033203125
        },
        {
          "ticks": 79962,
          "time": 153.7730897375,
          "value": 0.4036865234375
        },
        {
          "ticks": 79969,
          "time": 153.7865512770833,
          "value": 0.4039306640625
        },
        {
          "ticks": 79977,
          "time": 153.80193589375,
          "value": 0.404296875
        },
        {
          "ticks": 79984,
          "time": 153.81539743333332,
          "value": 0.404541015625
        },
        {
          "ticks": 79992,
          "time": 153.83078204999998,
          "value": 0.4049072265625
        },
        {
          "ticks": 79999,
          "time": 153.8442435895833,
          "value": 0.4051513671875
        },
        {
          "ticks": 80007,
          "time": 153.85962820625,
          "value": 0.405517578125
        },
        {
          "ticks": 80014,
          "time": 153.8730897458333,
          "value": 0.40576171875
        },
        {
          "ticks": 80022,
          "time": 153.8884743625,
          "value": 0.4061279296875
        },
        {
          "ticks": 80029,
          "time": 153.90193590208332,
          "value": 0.4063720703125
        },
        {
          "ticks": 80037,
          "time": 153.91732051875,
          "value": 0.4066162109375
        },
        {
          "ticks": 80044,
          "time": 153.9307820583333,
          "value": 0.406982421875
        },
        {
          "ticks": 80052,
          "time": 153.946166675,
          "value": 0.4072265625
        },
        {
          "ticks": 80059,
          "time": 153.95962821458332,
          "value": 0.4075927734375
        },
        {
          "ticks": 80067,
          "time": 153.97501283124998,
          "value": 0.4078369140625
        },
        {
          "ticks": 80074,
          "time": 153.9884743708333,
          "value": 0.408203125
        },
        {
          "ticks": 80082,
          "time": 154.0038589875,
          "value": 0.408447265625
        },
        {
          "ticks": 80089,
          "time": 154.0173205270833,
          "value": 0.4088134765625
        },
        {
          "ticks": 80097,
          "time": 154.03270514374998,
          "value": 0.4090576171875
        },
        {
          "ticks": 80104,
          "time": 154.04616668333333,
          "value": 0.409423828125
        },
        {
          "ticks": 80112,
          "time": 154.0615513,
          "value": 0.40966796875
        },
        {
          "ticks": 80119,
          "time": 154.0750128395833,
          "value": 0.4100341796875
        },
        {
          "ticks": 80127,
          "time": 154.09039745625,
          "value": 0.4102783203125
        },
        {
          "ticks": 80134,
          "time": 154.10385899583332,
          "value": 0.41064453125
        },
        {
          "ticks": 80142,
          "time": 154.1192436125,
          "value": 0.410888671875
        },
        {
          "ticks": 80149,
          "time": 154.1327051520833,
          "value": 0.4111328125
        },
        {
          "ticks": 80157,
          "time": 154.14808976875,
          "value": 0.4114990234375
        },
        {
          "ticks": 80164,
          "time": 154.16155130833332,
          "value": 0.4117431640625
        },
        {
          "ticks": 80172,
          "time": 154.17693592499998,
          "value": 0.412109375
        },
        {
          "ticks": 80179,
          "time": 154.19039746458333,
          "value": 0.412353515625
        },
        {
          "ticks": 80187,
          "time": 154.20578208125,
          "value": 0.4127197265625
        },
        {
          "ticks": 80194,
          "time": 154.2192436208333,
          "value": 0.4129638671875
        },
        {
          "ticks": 80202,
          "time": 154.2346282375,
          "value": 0.413330078125
        },
        {
          "ticks": 80209,
          "time": 154.24808977708332,
          "value": 0.41357421875
        },
        {
          "ticks": 80217,
          "time": 154.26347439375,
          "value": 0.4139404296875
        },
        {
          "ticks": 80224,
          "time": 154.2769359333333,
          "value": 0.4141845703125
        },
        {
          "ticks": 80232,
          "time": 154.29232055,
          "value": 0.41455078125
        },
        {
          "ticks": 80239,
          "time": 154.30578208958332,
          "value": 0.414794921875
        },
        {
          "ticks": 80247,
          "time": 154.32116670624998,
          "value": 0.4151611328125
        },
        {
          "ticks": 80254,
          "time": 154.3346282458333,
          "value": 0.4154052734375
        },
        {
          "ticks": 80262,
          "time": 154.3500128625,
          "value": 0.4156494140625
        },
        {
          "ticks": 80269,
          "time": 154.3634744020833,
          "value": 0.416015625
        },
        {
          "ticks": 80277,
          "time": 154.37885901875,
          "value": 0.416259765625
        },
        {
          "ticks": 80284,
          "time": 154.39232055833332,
          "value": 0.4166259765625
        },
        {
          "ticks": 80292,
          "time": 154.407705175,
          "value": 0.4168701171875
        },
        {
          "ticks": 80299,
          "time": 154.4211667145833,
          "value": 0.417236328125
        },
        {
          "ticks": 80307,
          "time": 154.43655133125,
          "value": 0.41748046875
        },
        {
          "ticks": 80314,
          "time": 154.45001287083332,
          "value": 0.4178466796875
        },
        {
          "ticks": 80322,
          "time": 154.46539748749998,
          "value": 0.4180908203125
        },
        {
          "ticks": 80329,
          "time": 154.4788590270833,
          "value": 0.41845703125
        },
        {
          "ticks": 80337,
          "time": 154.49424364375,
          "value": 0.418701171875
        },
        {
          "ticks": 80344,
          "time": 154.50770518333331,
          "value": 0.4190673828125
        },
        {
          "ticks": 80352,
          "time": 154.52308979999998,
          "value": 0.4193115234375
        },
        {
          "ticks": 80359,
          "time": 154.53655133958333,
          "value": 0.419677734375
        },
        {
          "ticks": 80367,
          "time": 154.55193595625,
          "value": 0.419921875
        },
        {
          "ticks": 80374,
          "time": 154.5653974958333,
          "value": 0.420166015625
        },
        {
          "ticks": 80382,
          "time": 154.5807821125,
          "value": 0.4205322265625
        },
        {
          "ticks": 80389,
          "time": 154.59424365208332,
          "value": 0.4207763671875
        },
        {
          "ticks": 80397,
          "time": 154.60962826875,
          "value": 0.421142578125
        },
        {
          "ticks": 80404,
          "time": 154.6230898083333,
          "value": 0.42138671875
        },
        {
          "ticks": 80412,
          "time": 154.638474425,
          "value": 0.4217529296875
        },
        {
          "ticks": 80419,
          "time": 154.65193596458332,
          "value": 0.4219970703125
        },
        {
          "ticks": 80427,
          "time": 154.66732058124998,
          "value": 0.42236328125
        },
        {
          "ticks": 80434,
          "time": 154.68078212083333,
          "value": 0.422607421875
        },
        {
          "ticks": 80442,
          "time": 154.6961667375,
          "value": 0.4229736328125
        },
        {
          "ticks": 80449,
          "time": 154.7096282770833,
          "value": 0.4232177734375
        },
        {
          "ticks": 80457,
          "time": 154.72501289375,
          "value": 0.423583984375
        },
        {
          "ticks": 80464,
          "time": 154.73847443333332,
          "value": 0.423828125
        },
        {
          "ticks": 80472,
          "time": 154.75385905,
          "value": 0.4241943359375
        },
        {
          "ticks": 80479,
          "time": 154.7673205895833,
          "value": 0.4244384765625
        },
        {
          "ticks": 80487,
          "time": 154.78270520625,
          "value": 0.4246826171875
        },
        {
          "ticks": 80494,
          "time": 154.79616674583332,
          "value": 0.425048828125
        },
        {
          "ticks": 80502,
          "time": 154.81155136249998,
          "value": 0.42529296875
        },
        {
          "ticks": 80509,
          "time": 154.8250129020833,
          "value": 0.4256591796875
        },
        {
          "ticks": 80517,
          "time": 154.84039751875,
          "value": 0.4259033203125
        },
        {
          "ticks": 80524,
          "time": 154.8538590583333,
          "value": 0.42626953125
        },
        {
          "ticks": 80532,
          "time": 154.86924367499998,
          "value": 0.426513671875
        },
        {
          "ticks": 80539,
          "time": 154.88270521458332,
          "value": 0.4268798828125
        },
        {
          "ticks": 80547,
          "time": 154.89808983125,
          "value": 0.4271240234375
        },
        {
          "ticks": 80554,
          "time": 154.9115513708333,
          "value": 0.427490234375
        },
        {
          "ticks": 80562,
          "time": 154.9269359875,
          "value": 0.427734375
        },
        {
          "ticks": 80569,
          "time": 154.94039752708332,
          "value": 0.4281005859375
        },
        {
          "ticks": 80577,
          "time": 154.95578214374999,
          "value": 0.4283447265625
        },
        {
          "ticks": 80584,
          "time": 154.9692436833333,
          "value": 0.4287109375
        },
        {
          "ticks": 80592,
          "time": 154.9846283,
          "value": 0.428955078125
        },
        {
          "ticks": 80599,
          "time": 154.99808983958332,
          "value": 0.42919921875
        },
        {
          "ticks": 80607,
          "time": 155.01347445624998,
          "value": 0.4295654296875
        },
        {
          "ticks": 80614,
          "time": 155.02693599583333,
          "value": 0.4298095703125
        },
        {
          "ticks": 80622,
          "time": 155.0423206125,
          "value": 0.43017578125
        },
        {
          "ticks": 80629,
          "time": 155.0557821520833,
          "value": 0.430419921875
        },
        {
          "ticks": 80636,
          "time": 155.06924369166666,
          "value": 0.4307861328125
        },
        {
          "ticks": 80644,
          "time": 155.08462830833332,
          "value": 0.4310302734375
        },
        {
          "ticks": 80652,
          "time": 155.100012925,
          "value": 0.431396484375
        },
        {
          "ticks": 80659,
          "time": 155.1134744645833,
          "value": 0.431640625
        },
        {
          "ticks": 80667,
          "time": 155.12885908125,
          "value": 0.4320068359375
        },
        {
          "ticks": 80674,
          "time": 155.14232062083332,
          "value": 0.4322509765625
        },
        {
          "ticks": 80682,
          "time": 155.15770523749998,
          "value": 0.4326171875
        },
        {
          "ticks": 80689,
          "time": 155.1711667770833,
          "value": 0.432861328125
        },
        {
          "ticks": 80697,
          "time": 155.18655139375,
          "value": 0.43310546875
        },
        {
          "ticks": 80704,
          "time": 155.2000129333333,
          "value": 0.4334716796875
        },
        {
          "ticks": 80712,
          "time": 155.21539755,
          "value": 0.4337158203125
        },
        {
          "ticks": 80719,
          "time": 155.22885908958332,
          "value": 0.43408203125
        },
        {
          "ticks": 80727,
          "time": 155.24424370625,
          "value": 0.434326171875
        },
        {
          "ticks": 80734,
          "time": 155.2577052458333,
          "value": 0.4346923828125
        },
        {
          "ticks": 80742,
          "time": 155.2730898625,
          "value": 0.4349365234375
        },
        {
          "ticks": 80749,
          "time": 155.28655140208332,
          "value": 0.435302734375
        },
        {
          "ticks": 80757,
          "time": 155.30193601874998,
          "value": 0.435546875
        },
        {
          "ticks": 80764,
          "time": 155.3153975583333,
          "value": 0.4359130859375
        },
        {
          "ticks": 80772,
          "time": 155.330782175,
          "value": 0.4361572265625
        },
        {
          "ticks": 80779,
          "time": 155.3442437145833,
          "value": 0.4365234375
        },
        {
          "ticks": 80787,
          "time": 155.35962833124998,
          "value": 0.436767578125
        },
        {
          "ticks": 80794,
          "time": 155.37308987083333,
          "value": 0.4371337890625
        },
        {
          "ticks": 80802,
          "time": 155.3884744875,
          "value": 0.4373779296875
        },
        {
          "ticks": 80809,
          "time": 155.4019360270833,
          "value": 0.4376220703125
        },
        {
          "ticks": 80817,
          "time": 155.41732064375,
          "value": 0.43798828125
        },
        {
          "ticks": 80824,
          "time": 155.43078218333332,
          "value": 0.438232421875
        },
        {
          "ticks": 80832,
          "time": 155.4461668,
          "value": 0.4385986328125
        },
        {
          "ticks": 80839,
          "time": 155.4596283395833,
          "value": 0.4388427734375
        },
        {
          "ticks": 80847,
          "time": 155.47501295625,
          "value": 0.439208984375
        },
        {
          "ticks": 80854,
          "time": 155.48847449583332,
          "value": 0.439453125
        },
        {
          "ticks": 80862,
          "time": 155.50385911249998,
          "value": 0.4398193359375
        },
        {
          "ticks": 80869,
          "time": 155.51732065208333,
          "value": 0.4400634765625
        },
        {
          "ticks": 80877,
          "time": 155.53270526875,
          "value": 0.4404296875
        },
        {
          "ticks": 80884,
          "time": 155.5461668083333,
          "value": 0.440673828125
        },
        {
          "ticks": 80892,
          "time": 155.561551425,
          "value": 0.4410400390625
        },
        {
          "ticks": 80899,
          "time": 155.57501296458332,
          "value": 0.4412841796875
        },
        {
          "ticks": 80907,
          "time": 155.59039758125,
          "value": 0.441650390625
        },
        {
          "ticks": 80914,
          "time": 155.6038591208333,
          "value": 0.44189453125
        },
        {
          "ticks": 80922,
          "time": 155.6192437375,
          "value": 0.442138671875
        },
        {
          "ticks": 80929,
          "time": 155.63270527708332,
          "value": 0.4425048828125
        },
        {
          "ticks": 80937,
          "time": 155.64808989374998,
          "value": 0.4427490234375
        },
        {
          "ticks": 80944,
          "time": 155.6615514333333,
          "value": 0.443115234375
        },
        {
          "ticks": 80952,
          "time": 155.67693605,
          "value": 0.443359375
        },
        {
          "ticks": 80959,
          "time": 155.6903975895833,
          "value": 0.4437255859375
        },
        {
          "ticks": 80967,
          "time": 155.70578220625,
          "value": 0.4439697265625
        },
        {
          "ticks": 80974,
          "time": 155.71924374583332,
          "value": 0.4443359375
        },
        {
          "ticks": 80982,
          "time": 155.7346283625,
          "value": 0.444580078125
        },
        {
          "ticks": 80989,
          "time": 155.7480899020833,
          "value": 0.4449462890625
        },
        {
          "ticks": 80997,
          "time": 155.76347451875,
          "value": 0.4451904296875
        },
        {
          "ticks": 81004,
          "time": 155.77693605833332,
          "value": 0.445556640625
        },
        {
          "ticks": 81012,
          "time": 155.79232067499998,
          "value": 0.44580078125
        },
        {
          "ticks": 81019,
          "time": 155.8057822145833,
          "value": 0.4461669921875
        },
        {
          "ticks": 81027,
          "time": 155.82116683125,
          "value": 0.4464111328125
        },
        {
          "ticks": 81034,
          "time": 155.83462837083331,
          "value": 0.4466552734375
        },
        {
          "ticks": 81042,
          "time": 155.85001298749998,
          "value": 0.447021484375
        },
        {
          "ticks": 81049,
          "time": 155.86347452708333,
          "value": 0.447265625
        },
        {
          "ticks": 81057,
          "time": 155.87885914375,
          "value": 0.4476318359375
        },
        {
          "ticks": 81064,
          "time": 155.8923206833333,
          "value": 0.4478759765625
        },
        {
          "ticks": 81072,
          "time": 155.9077053,
          "value": 0.4482421875
        },
        {
          "ticks": 81079,
          "time": 155.92116683958332,
          "value": 0.448486328125
        },
        {
          "ticks": 81087,
          "time": 155.93655145625,
          "value": 0.4488525390625
        },
        {
          "ticks": 81094,
          "time": 155.9500129958333,
          "value": 0.4490966796875
        },
        {
          "ticks": 81102,
          "time": 155.9653976125,
          "value": 0.449462890625
        },
        {
          "ticks": 81109,
          "time": 155.97885915208332,
          "value": 0.44970703125
        },
        {
          "ticks": 81117,
          "time": 155.99424376874998,
          "value": 0.4500732421875
        },
        {
          "ticks": 81124,
          "time": 156.0077053083333,
          "value": 0.4503173828125
        },
        {
          "ticks": 81132,
          "time": 156.023089925,
          "value": 0.45068359375
        },
        {
          "ticks": 81139,
          "time": 156.0365514645833,
          "value": 0.450927734375
        },
        {
          "ticks": 81147,
          "time": 156.05193608125,
          "value": 0.451171875
        },
        {
          "ticks": 81154,
          "time": 156.06539762083332,
          "value": 0.4515380859375
        },
        {
          "ticks": 81162,
          "time": 156.0807822375,
          "value": 0.4517822265625
        },
        {
          "ticks": 81169,
          "time": 156.0942437770833,
          "value": 0.4521484375
        },
        {
          "ticks": 81177,
          "time": 156.10962839375,
          "value": 0.452392578125
        },
        {
          "ticks": 81184,
          "time": 156.12308993333332,
          "value": 0.4527587890625
        },
        {
          "ticks": 81192,
          "time": 156.13847454999998,
          "value": 0.4530029296875
        },
        {
          "ticks": 81199,
          "time": 156.1519360895833,
          "value": 0.453369140625
        },
        {
          "ticks": 81207,
          "time": 156.16732070625,
          "value": 0.45361328125
        },
        {
          "ticks": 81214,
          "time": 156.1807822458333,
          "value": 0.4539794921875
        },
        {
          "ticks": 81222,
          "time": 156.19616686249998,
          "value": 0.4542236328125
        },
        {
          "ticks": 81229,
          "time": 156.20962840208333,
          "value": 0.45458984375
        },
        {
          "ticks": 81237,
          "time": 156.22501301875,
          "value": 0.454833984375
        },
        {
          "ticks": 81244,
          "time": 156.2384745583333,
          "value": 0.4552001953125
        },
        {
          "ticks": 81252,
          "time": 156.253859175,
          "value": 0.4554443359375
        },
        {
          "ticks": 81259,
          "time": 156.26732071458332,
          "value": 0.4556884765625
        },
        {
          "ticks": 81267,
          "time": 156.28270533124999,
          "value": 0.4560546875
        },
        {
          "ticks": 81274,
          "time": 156.2961668708333,
          "value": 0.456298828125
        },
        {
          "ticks": 81282,
          "time": 156.3115514875,
          "value": 0.4566650390625
        },
        {
          "ticks": 81289,
          "time": 156.32501302708332,
          "value": 0.4569091796875
        },
        {
          "ticks": 81297,
          "time": 156.34039764374998,
          "value": 0.457275390625
        },
        {
          "ticks": 81304,
          "time": 156.35385918333333,
          "value": 0.45751953125
        },
        {
          "ticks": 81312,
          "time": 156.3692438,
          "value": 0.4578857421875
        },
        {
          "ticks": 81319,
          "time": 156.3827053395833,
          "value": 0.4581298828125
        },
        {
          "ticks": 81327,
          "time": 156.39808995625,
          "value": 0.45849609375
        },
        {
          "ticks": 81334,
          "time": 156.41155149583332,
          "value": 0.458740234375
        },
        {
          "ticks": 81342,
          "time": 156.4269361125,
          "value": 0.4591064453125
        },
        {
          "ticks": 81349,
          "time": 156.4403976520833,
          "value": 0.4593505859375
        },
        {
          "ticks": 81357,
          "time": 156.45578226875,
          "value": 0.459716796875
        },
        {
          "ticks": 81364,
          "time": 156.46924380833332,
          "value": 0.4599609375
        },
        {
          "ticks": 81372,
          "time": 156.48462842499998,
          "value": 0.460205078125
        },
        {
          "ticks": 81379,
          "time": 156.4980899645833,
          "value": 0.4605712890625
        },
        {
          "ticks": 81387,
          "time": 156.51347458125,
          "value": 0.4608154296875
        },
        {
          "ticks": 81394,
          "time": 156.5269361208333,
          "value": 0.461181640625
        },
        {
          "ticks": 81402,
          "time": 156.5423207375,
          "value": 0.46142578125
        },
        {
          "ticks": 81409,
          "time": 156.55578227708332,
          "value": 0.4617919921875
        },
        {
          "ticks": 81417,
          "time": 156.57116689375,
          "value": 0.4620361328125
        },
        {
          "ticks": 81424,
          "time": 156.5846284333333,
          "value": 0.46240234375
        },
        {
          "ticks": 81432,
          "time": 156.60001305,
          "value": 0.462646484375
        },
        {
          "ticks": 81439,
          "time": 156.61347458958332,
          "value": 0.4630126953125
        },
        {
          "ticks": 81447,
          "time": 156.62885920624998,
          "value": 0.4632568359375
        },
        {
          "ticks": 81454,
          "time": 156.6423207458333,
          "value": 0.463623046875
        },
        {
          "ticks": 81462,
          "time": 156.6577053625,
          "value": 0.4638671875
        },
        {
          "ticks": 81469,
          "time": 156.6711669020833,
          "value": 0.4642333984375
        },
        {
          "ticks": 81477,
          "time": 156.68655151874998,
          "value": 0.4644775390625
        },
        {
          "ticks": 81484,
          "time": 156.70001305833333,
          "value": 0.4647216796875
        },
        {
          "ticks": 81492,
          "time": 156.715397675,
          "value": 0.465087890625
        },
        {
          "ticks": 81499,
          "time": 156.7288592145833,
          "value": 0.46533203125
        },
        {
          "ticks": 81507,
          "time": 156.74424383125,
          "value": 0.4656982421875
        },
        {
          "ticks": 81514,
          "time": 156.75770537083332,
          "value": 0.4659423828125
        },
        {
          "ticks": 81522,
          "time": 156.7730899875,
          "value": 0.46630859375
        },
        {
          "ticks": 81529,
          "time": 156.7865515270833,
          "value": 0.466552734375
        },
        {
          "ticks": 81537,
          "time": 156.80193614375,
          "value": 0.4669189453125
        },
        {
          "ticks": 81544,
          "time": 156.81539768333332,
          "value": 0.4671630859375
        },
        {
          "ticks": 81552,
          "time": 156.83078229999998,
          "value": 0.467529296875
        },
        {
          "ticks": 81559,
          "time": 156.84424383958333,
          "value": 0.4677734375
        },
        {
          "ticks": 81567,
          "time": 156.85962845625,
          "value": 0.4681396484375
        },
        {
          "ticks": 81574,
          "time": 156.8730899958333,
          "value": 0.4683837890625
        },
        {
          "ticks": 81582,
          "time": 156.8884746125,
          "value": 0.46875
        },
        {
          "ticks": 81589,
          "time": 156.90193615208332,
          "value": 0.468994140625
        },
        {
          "ticks": 81596,
          "time": 156.91539769166667,
          "value": 0.46923828125
        },
        {
          "ticks": 81604,
          "time": 156.9307823083333,
          "value": 0.4696044921875
        },
        {
          "ticks": 81612,
          "time": 156.946166925,
          "value": 0.4698486328125
        },
        {
          "ticks": 81619,
          "time": 156.95962846458332,
          "value": 0.47021484375
        },
        {
          "ticks": 81627,
          "time": 156.97501308124998,
          "value": 0.470458984375
        },
        {
          "ticks": 81634,
          "time": 156.9884746208333,
          "value": 0.4708251953125
        },
        {
          "ticks": 81642,
          "time": 157.0038592375,
          "value": 0.4710693359375
        },
        {
          "ticks": 81649,
          "time": 157.0173207770833,
          "value": 0.471435546875
        },
        {
          "ticks": 81657,
          "time": 157.03270539374998,
          "value": 0.4716796875
        },
        {
          "ticks": 81664,
          "time": 157.04616693333332,
          "value": 0.4720458984375
        },
        {
          "ticks": 81672,
          "time": 157.06155155,
          "value": 0.4722900390625
        },
        {
          "ticks": 81679,
          "time": 157.0750130895833,
          "value": 0.47265625
        },
        {
          "ticks": 81687,
          "time": 157.09039770625,
          "value": 0.472900390625
        },
        {
          "ticks": 81694,
          "time": 157.10385924583332,
          "value": 0.4732666015625
        },
        {
          "ticks": 81702,
          "time": 157.11924386249999,
          "value": 0.4735107421875
        },
        {
          "ticks": 81709,
          "time": 157.1327054020833,
          "value": 0.4737548828125
        },
        {
          "ticks": 81717,
          "time": 157.14809001875,
          "value": 0.47412109375
        },
        {
          "ticks": 81724,
          "time": 157.16155155833331,
          "value": 0.474365234375
        },
        {
          "ticks": 81732,
          "time": 157.17693617499998,
          "value": 0.4747314453125
        },
        {
          "ticks": 81739,
          "time": 157.19039771458333,
          "value": 0.4749755859375
        },
        {
          "ticks": 81747,
          "time": 157.20578233125,
          "value": 0.475341796875
        },
        {
          "ticks": 81754,
          "time": 157.2192438708333,
          "value": 0.4755859375
        },
        {
          "ticks": 81762,
          "time": 157.2346284875,
          "value": 0.4759521484375
        },
        {
          "ticks": 81769,
          "time": 157.24809002708332,
          "value": 0.4761962890625
        },
        {
          "ticks": 81777,
          "time": 157.26347464375,
          "value": 0.4765625
        },
        {
          "ticks": 81784,
          "time": 157.2769361833333,
          "value": 0.476806640625
        },
        {
          "ticks": 81792,
          "time": 157.2923208,
          "value": 0.4771728515625
        },
        {
          "ticks": 81799,
          "time": 157.30578233958332,
          "value": 0.4774169921875
        },
        {
          "ticks": 81807,
          "time": 157.32116695624998,
          "value": 0.477783203125
        },
        {
          "ticks": 81814,
          "time": 157.3346284958333,
          "value": 0.47802734375
        },
        {
          "ticks": 81822,
          "time": 157.3500131125,
          "value": 0.478271484375
        },
        {
          "ticks": 81829,
          "time": 157.3634746520833,
          "value": 0.4786376953125
        },
        {
          "ticks": 81837,
          "time": 157.37885926875,
          "value": 0.4788818359375
        },
        {
          "ticks": 81844,
          "time": 157.39232080833332,
          "value": 0.479248046875
        },
        {
          "ticks": 81852,
          "time": 157.407705425,
          "value": 0.4794921875
        },
        {
          "ticks": 81859,
          "time": 157.4211669645833,
          "value": 0.4798583984375
        },
        {
          "ticks": 81867,
          "time": 157.43655158125,
          "value": 0.4801025390625
        },
        {
          "ticks": 81874,
          "time": 157.45001312083332,
          "value": 0.48046875
        },
        {
          "ticks": 81882,
          "time": 157.46539773749998,
          "value": 0.480712890625
        },
        {
          "ticks": 81889,
          "time": 157.4788592770833,
          "value": 0.4810791015625
        },
        {
          "ticks": 81897,
          "time": 157.49424389375,
          "value": 0.4813232421875
        },
        {
          "ticks": 81904,
          "time": 157.5077054333333,
          "value": 0.481689453125
        },
        {
          "ticks": 81912,
          "time": 157.52309004999998,
          "value": 0.48193359375
        },
        {
          "ticks": 81919,
          "time": 157.53655158958333,
          "value": 0.4822998046875
        },
        {
          "ticks": 81927,
          "time": 157.55193620625,
          "value": 0.4825439453125
        },
        {
          "ticks": 81934,
          "time": 157.5653977458333,
          "value": 0.4827880859375
        },
        {
          "ticks": 81942,
          "time": 157.5807823625,
          "value": 0.483154296875
        },
        {
          "ticks": 81949,
          "time": 157.59424390208332,
          "value": 0.4833984375
        },
        {
          "ticks": 81957,
          "time": 157.60962851875,
          "value": 0.4837646484375
        },
        {
          "ticks": 81964,
          "time": 157.6230900583333,
          "value": 0.4840087890625
        },
        {
          "ticks": 81972,
          "time": 157.638474675,
          "value": 0.484375
        },
        {
          "ticks": 81979,
          "time": 157.65193621458332,
          "value": 0.484619140625
        },
        {
          "ticks": 81987,
          "time": 157.66732083124998,
          "value": 0.4849853515625
        },
        {
          "ticks": 81994,
          "time": 157.68078237083333,
          "value": 0.4852294921875
        },
        {
          "ticks": 82002,
          "time": 157.6961669875,
          "value": 0.485595703125
        },
        {
          "ticks": 82009,
          "time": 157.7096285270833,
          "value": 0.48583984375
        },
        {
          "ticks": 82017,
          "time": 157.72501314375,
          "value": 0.4862060546875
        },
        {
          "ticks": 82024,
          "time": 157.73847468333332,
          "value": 0.4864501953125
        },
        {
          "ticks": 82032,
          "time": 157.7538593,
          "value": 0.4866943359375
        },
        {
          "ticks": 82039,
          "time": 157.7673208395833,
          "value": 0.487060546875
        },
        {
          "ticks": 82047,
          "time": 157.78270545625,
          "value": 0.4873046875
        },
        {
          "ticks": 82054,
          "time": 157.79616699583332,
          "value": 0.4876708984375
        },
        {
          "ticks": 82062,
          "time": 157.81155161249998,
          "value": 0.4879150390625
        },
        {
          "ticks": 82068,
          "time": 157.82309007499998,
          "value": 0.48828125
        },
        {
          "ticks": 82076,
          "time": 157.83847469166665,
          "value": 0.5069580078125
        },
        {
          "ticks": 82083,
          "time": 157.85193623125,
          "value": 0.5257568359375
        },
        {
          "ticks": 82091,
          "time": 157.86732084791666,
          "value": 0.5445556640625
        },
        {
          "ticks": 82098,
          "time": 157.88078238749998,
          "value": 0.5633544921875
        },
        {
          "ticks": 82106,
          "time": 157.89616700416667,
          "value": 0.58203125
        },
        {
          "ticks": 82113,
          "time": 157.90962854375,
          "value": 0.600830078125
        },
        {
          "ticks": 82121,
          "time": 157.92501316041665,
          "value": 0.61962890625
        },
        {
          "ticks": 82128,
          "time": 157.93847469999997,
          "value": 0.638427734375
        },
        {
          "ticks": 82136,
          "time": 157.95385931666667,
          "value": 0.6571044921875
        },
        {
          "ticks": 82143,
          "time": 157.96732085624998,
          "value": 0.6759033203125
        },
        {
          "ticks": 82151,
          "time": 157.98270547291665,
          "value": 0.6947021484375
        },
        {
          "ticks": 82158,
          "time": 157.9961670125,
          "value": 0.7135009765625
        },
        {
          "ticks": 82166,
          "time": 158.01155162916666,
          "value": 0.732177734375
        },
        {
          "ticks": 82173,
          "time": 158.02501316874998,
          "value": 0.7509765625
        },
        {
          "ticks": 82181,
          "time": 158.04039778541667,
          "value": 0.769775390625
        },
        {
          "ticks": 82188,
          "time": 158.053859325,
          "value": 0.78857421875
        },
        {
          "ticks": 82196,
          "time": 158.06924394166666,
          "value": 0.8072509765625
        },
        {
          "ticks": 82203,
          "time": 158.08270548124997,
          "value": 0.8260498046875
        },
        {
          "ticks": 82211,
          "time": 158.09809009791667,
          "value": 0.8448486328125
        },
        {
          "ticks": 82218,
          "time": 158.11155163749999,
          "value": 0.8636474609375
        },
        {
          "ticks": 82226,
          "time": 158.12693625416665,
          "value": 0.88232421875
        },
        {
          "ticks": 82233,
          "time": 158.14039779374997,
          "value": 0.901123046875
        },
        {
          "ticks": 82241,
          "time": 158.15578241041666,
          "value": 0.919921875
        },
        {
          "ticks": 82248,
          "time": 158.16924394999998,
          "value": 0.938720703125
        },
        {
          "ticks": 82256,
          "time": 158.18462856666667,
          "value": 0.9573974609375
        },
        {
          "ticks": 82263,
          "time": 158.19809010625,
          "value": 0.9761962890625
        },
        {
          "ticks": 82268,
          "time": 158.20770549166667,
          "value": 0.98876953125
        },
        {
          "ticks": 82276,
          "time": 158.2230901083333,
          "value": 0.9510498046875
        },
        {
          "ticks": 82283,
          "time": 158.23655164791666,
          "value": 0.9132080078125
        },
        {
          "ticks": 82291,
          "time": 158.25193626458332,
          "value": 0.8753662109375
        },
        {
          "ticks": 82298,
          "time": 158.26539780416667,
          "value": 0.8375244140625
        },
        {
          "ticks": 82306,
          "time": 158.28078242083333,
          "value": 0.7996826171875
        },
        {
          "ticks": 82313,
          "time": 158.29424396041668,
          "value": 0.7618408203125
        },
        {
          "ticks": 82321,
          "time": 158.30962857708332,
          "value": 0.7239990234375
        },
        {
          "ticks": 82328,
          "time": 158.32309011666666,
          "value": 0.6861572265625
        },
        {
          "ticks": 82336,
          "time": 158.33847473333333,
          "value": 0.6483154296875
        },
        {
          "ticks": 82343,
          "time": 158.35193627291667,
          "value": 0.6104736328125
        },
        {
          "ticks": 82351,
          "time": 158.3673208895833,
          "value": 0.5726318359375
        },
        {
          "ticks": 82358,
          "time": 158.38078242916666,
          "value": 0.5347900390625
        },
        {
          "ticks": 82366,
          "time": 158.39616704583332,
          "value": 0.4969482421875
        },
        {
          "ticks": 82373,
          "time": 158.40962858541667,
          "value": 0.4591064453125
        },
        {
          "ticks": 82381,
          "time": 158.4250132020833,
          "value": 0.4212646484375
        },
        {
          "ticks": 82388,
          "time": 158.43847474166665,
          "value": 0.3834228515625
        },
        {
          "ticks": 82396,
          "time": 158.45385935833332,
          "value": 0.3455810546875
        },
        {
          "ticks": 82403,
          "time": 158.46732089791666,
          "value": 0.3077392578125
        },
        {
          "ticks": 82411,
          "time": 158.48270551458333,
          "value": 0.2698974609375
        },
        {
          "ticks": 82418,
          "time": 158.49616705416668,
          "value": 0.232177734375
        },
        {
          "ticks": 82426,
          "time": 158.5115516708333,
          "value": 0.1943359375
        },
        {
          "ticks": 82433,
          "time": 158.52501321041666,
          "value": 0.156494140625
        },
        {
          "ticks": 82441,
          "time": 158.54039782708332,
          "value": 0.11865234375
        },
        {
          "ticks": 82448,
          "time": 158.55385936666667,
          "value": 0.080810546875
        },
        {
          "ticks": 82456,
          "time": 158.5692439833333,
          "value": 0.04296875
        },
        {
          "ticks": 82463,
          "time": 158.58270552291665,
          "value": 0.005126953125
        },
        {
          "ticks": 82464,
          "time": 158.5846286,
          "value": 0
        }
      ],
      "instrument": {
        "family": "bass",
        "number": 32,
        "name": "acoustic bass"
      },
      "name": "",
      "notes": [
        {
          "duration": 3.684615691666666,
          "durationTicks": 1916,
          "midi": 45,
          "name": "A2",
          "ticks": 1920,
          "time": 3.6923079999999997,
          "velocity": 0.6299212598425197
        },
        {
          "duration": 3.684615691666666,
          "durationTicks": 1916,
          "midi": 42,
          "name": "F#2",
          "ticks": 3840,
          "time": 7.384615999999999,
          "velocity": 0.44881889763779526
        },
        {
          "duration": 3.607692608333334,
          "durationTicks": 1876,
          "midi": 47,
          "name": "B2",
          "ticks": 5760,
          "time": 11.076923999999998,
          "velocity": 0.6456692913385826
        },
        {
          "duration": 3.684615691666668,
          "durationTicks": 1916,
          "midi": 44,
          "name": "G#2",
          "ticks": 7680,
          "time": 14.769231999999999,
          "velocity": 0.6692913385826772
        },
        {
          "duration": 3.6846156916666644,
          "durationTicks": 1916,
          "midi": 49,
          "name": "C#3",
          "ticks": 9600,
          "time": 18.46154,
          "velocity": 0.5669291338582677
        },
        {
          "duration": 3.6076926083333376,
          "durationTicks": 1876,
          "midi": 42,
          "name": "F#2",
          "ticks": 11520,
          "time": 22.153847999999996,
          "velocity": 0.6062992125984252
        },
        {
          "duration": 3.607692608333334,
          "durationTicks": 1876,
          "midi": 47,
          "name": "B2",
          "ticks": 13440,
          "time": 25.846155999999997,
          "velocity": 0.6456692913385826
        },
        {
          "duration": 3.376923358333329,
          "durationTicks": 1756,
          "midi": 40,
          "name": "E2",
          "ticks": 15360,
          "time": 29.538463999999998,
          "velocity": 0.6299212598425197
        },
        {
          "duration": 3.376923358333336,
          "durationTicks": 1756,
          "midi": 45,
          "name": "A2",
          "ticks": 17280,
          "time": 33.230771999999995,
          "velocity": 0.5826771653543307
        },
        {
          "duration": 1.8461539999999985,
          "durationTicks": 960,
          "midi": 40,
          "name": "E2",
          "ticks": 19200,
          "time": 36.92308,
          "velocity": 0.6220472440944882
        },
        {
          "duration": 1.8461539999999985,
          "durationTicks": 960,
          "midi": 45,
          "name": "A2",
          "ticks": 20160,
          "time": 38.769234,
          "velocity": 0.7480314960629921
        },
        {
          "duration": 3.692307999999997,
          "durationTicks": 1920,
          "midi": 50,
          "name": "D3",
          "ticks": 21120,
          "time": 40.615387999999996,
          "velocity": 0.6377952755905512
        },
        {
          "duration": 2.992307941666674,
          "durationTicks": 1556,
          "midi": 49,
          "name": "C#3",
          "ticks": 23040,
          "time": 44.30769599999999,
          "velocity": 0.5354330708661418
        },
        {
          "duration": 2.7692309999999978,
          "durationTicks": 1440,
          "midi": 56,
          "name": "G#3",
          "ticks": 23080,
          "time": 44.384619083333334,
          "velocity": 0.6771653543307087
        },
        {
          "duration": 0.4615385000000032,
          "durationTicks": 240,
          "midi": 45,
          "name": "A2",
          "ticks": 24720,
          "time": 47.538465499999994,
          "velocity": 0.36220472440944884
        },
        {
          "duration": 1.8307693833333332,
          "durationTicks": 952,
          "midi": 42,
          "name": "F#2",
          "ticks": 24960,
          "time": 48.000004,
          "velocity": 0.6299212598425197
        },
        {
          "duration": 1.8461539999999985,
          "durationTicks": 960,
          "midi": 42,
          "name": "F#2",
          "ticks": 25920,
          "time": 49.846157999999996,
          "velocity": 0.6535433070866141
        },
        {
          "duration": 1.8307693833333332,
          "durationTicks": 952,
          "midi": 47,
          "name": "B2",
          "ticks": 26880,
          "time": 51.692311999999994,
          "velocity": 0.6771653543307087
        },
        {
          "duration": 1.8461540000000056,
          "durationTicks": 960,
          "midi": 47,
          "name": "B2",
          "ticks": 27840,
          "time": 53.53846599999999,
          "velocity": 0.7165354330708661
        },
        {
          "duration": 3.692307999999997,
          "durationTicks": 1920,
          "midi": 40,
          "name": "E2",
          "ticks": 28800,
          "time": 55.38462,
          "velocity": 0.7322834645669292
        },
        {
          "duration": 1.8461539999999985,
          "durationTicks": 960,
          "midi": 52,
          "name": "E3",
          "ticks": 30720,
          "time": 59.076927999999995,
          "velocity": 0.5511811023622047
        },
        {
          "duration": 1.8461539999999985,
          "durationTicks": 960,
          "midi": 59,
          "name": "B3",
          "ticks": 30760,
          "time": 59.15385108333332,
          "velocity": 0.6535433070866141
        },
        {
          "duration": 1.8461539999999985,
          "durationTicks": 960,
          "midi": 40,
          "name": "E2",
          "ticks": 31680,
          "time": 60.923081999999994,
          "velocity": 0.7244094488188977
        },
        {
          "duration": 3.376923358333329,
          "durationTicks": 1756,
          "midi": 45,
          "name": "A2",
          "ticks": 32640,
          "time": 62.76923599999999,
          "velocity": 0.6062992125984252
        },
        {
          "duration": 3.376923358333343,
          "durationTicks": 1756,
          "midi": 42,
          "name": "F#2",
          "ticks": 34560,
          "time": 66.46154399999999,
          "velocity": 0.7165354330708661
        },
        {
          "duration": 3.376923358333329,
          "durationTicks": 1756,
          "midi": 47,
          "name": "B2",
          "ticks": 36480,
          "time": 70.153852,
          "velocity": 0.7322834645669292
        },
        {
          "duration": 3.5307695249999966,
          "durationTicks": 1836,
          "midi": 44,
          "name": "G#2",
          "ticks": 38400,
          "time": 73.84616,
          "velocity": 0.7637795275590551
        },
        {
          "duration": 3.376923358333329,
          "durationTicks": 1756,
          "midi": 49,
          "name": "C#3",
          "ticks": 40320,
          "time": 77.538468,
          "velocity": 0.7480314960629921
        },
        {
          "duration": 3.6846156916666644,
          "durationTicks": 1916,
          "midi": 42,
          "name": "F#2",
          "ticks": 42240,
          "time": 81.23077599999999,
          "velocity": 0.7165354330708661
        },
        {
          "duration": 1.8384616916666658,
          "durationTicks": 956,
          "midi": 47,
          "name": "B2",
          "ticks": 44160,
          "time": 84.92308399999999,
          "velocity": 0.7637795275590551
        },
        {
          "duration": 1.8384616916666658,
          "durationTicks": 956,
          "midi": 45,
          "name": "A2",
          "ticks": 45120,
          "time": 86.76923799999999,
          "velocity": 0.7322834645669292
        },
        {
          "duration": 1.8384616916666658,
          "durationTicks": 956,
          "midi": 44,
          "name": "G#2",
          "ticks": 46080,
          "time": 88.61539199999999,
          "velocity": 0.7716535433070866
        },
        {
          "duration": 1.3769231916666484,
          "durationTicks": 716,
          "midi": 49,
          "name": "C#3",
          "ticks": 47040,
          "time": 90.461546,
          "velocity": 0.7716535433070866
        },
        {
          "duration": 0.33846156666668037,
          "durationTicks": 176,
          "midi": 49,
          "name": "C#3",
          "ticks": 47800,
          "time": 91.92308458333332,
          "velocity": 0.7716535433070866
        },
        {
          "duration": 1.8384616916666516,
          "durationTicks": 956,
          "midi": 42,
          "name": "F#2",
          "ticks": 48000,
          "time": 92.3077,
          "velocity": 0.6929133858267716
        },
        {
          "duration": 1.8384616916666516,
          "durationTicks": 956,
          "midi": 42,
          "name": "F#2",
          "ticks": 48960,
          "time": 94.153854,
          "velocity": 0.6850393700787402
        },
        {
          "duration": 1.8461539999999985,
          "durationTicks": 960,
          "midi": 50,
          "name": "D3",
          "ticks": 49920,
          "time": 96.000008,
          "velocity": 0.7716535433070866
        },
        {
          "duration": 1.8461539999999985,
          "durationTicks": 960,
          "midi": 43,
          "name": "G2",
          "ticks": 50880,
          "time": 97.84616199999999,
          "velocity": 0.6850393700787402
        },
        {
          "duration": 3.376923358333329,
          "durationTicks": 1756,
          "midi": 45,
          "name": "A2",
          "ticks": 51840,
          "time": 99.69231599999999,
          "velocity": 0.6929133858267716
        },
        {
          "duration": 0.2230769416666618,
          "durationTicks": 116,
          "midi": 64,
          "name": "E4",
          "ticks": 52560,
          "time": 101.07693149999999,
          "velocity": 0.7795275590551181
        },
        {
          "duration": 0.2230769416666618,
          "durationTicks": 116,
          "midi": 65,
          "name": "F4",
          "ticks": 52680,
          "time": 101.30770075,
          "velocity": 0.6220472440944882
        },
        {
          "duration": 0.9153846916666595,
          "durationTicks": 476,
          "midi": 50,
          "name": "D3",
          "ticks": 52800,
          "time": 101.53846999999999,
          "velocity": 0.8503937007874016
        },
        {
          "duration": 0.6076923583333382,
          "durationTicks": 316,
          "midi": 66,
          "name": "F#4",
          "ticks": 52800,
          "time": 101.53846999999999,
          "velocity": 0.8503937007874016
        },
        {
          "duration": 0.2230769416666618,
          "durationTicks": 116,
          "midi": 66,
          "name": "F#4",
          "ticks": 53160,
          "time": 102.23077774999999,
          "velocity": 0.8031496062992126
        },
        {
          "duration": 0.6846154416666508,
          "durationTicks": 356,
          "midi": 50,
          "name": "D3",
          "ticks": 53280,
          "time": 102.461547,
          "velocity": 0.7952755905511811
        },
        {
          "duration": 0.6846154416666508,
          "durationTicks": 356,
          "midi": 66,
          "name": "F#4",
          "ticks": 53280,
          "time": 102.461547,
          "velocity": 0.7952755905511811
        },
        {
          "duration": 0.2230769416666618,
          "durationTicks": 116,
          "midi": 45,
          "name": "A2",
          "ticks": 53640,
          "time": 103.15385475,
          "velocity": 0.7165354330708661
        },
        {
          "duration": 1.8384616916666658,
          "durationTicks": 956,
          "midi": 49,
          "name": "C#3",
          "ticks": 53760,
          "time": 103.38462399999999,
          "velocity": 0.6299212598425197
        },
        {
          "duration": 1.8384616916666658,
          "durationTicks": 956,
          "midi": 42,
          "name": "F#2",
          "ticks": 54720,
          "time": 105.23077799999999,
          "velocity": 0.5748031496062992
        },
        {
          "duration": 1.6846155250000123,
          "durationTicks": 876,
          "midi": 47,
          "name": "B2",
          "ticks": 55680,
          "time": 107.07693199999999,
          "velocity": 0.6929133858267716
        },
        {
          "duration": 1.8461539999999985,
          "durationTicks": 960,
          "midi": 42,
          "name": "F#2",
          "ticks": 56640,
          "time": 108.923086,
          "velocity": 0.6141732283464567
        },
        {
          "duration": 0.8384616083333327,
          "durationTicks": 436,
          "midi": 47,
          "name": "B2",
          "ticks": 57600,
          "time": 110.76924,
          "velocity": 0.6692913385826772
        },
        {
          "duration": 0.9153846916666595,
          "durationTicks": 476,
          "midi": 47,
          "name": "B2",
          "ticks": 58080,
          "time": 111.69231699999999,
          "velocity": 0.5275590551181102
        },
        {
          "duration": 1.7615386083333249,
          "durationTicks": 916,
          "midi": 40,
          "name": "E2",
          "ticks": 58560,
          "time": 112.615394,
          "velocity": 0.6299212598425197
        },
        {
          "duration": 6.915385191666672,
          "durationTicks": 3596,
          "midi": 45,
          "name": "A2",
          "ticks": 59520,
          "time": 114.461548,
          "velocity": 0.6220472440944882
        },
        {
          "duration": 0.30000002499998857,
          "durationTicks": 156,
          "midi": 68,
          "name": "G#4",
          "ticks": 60320,
          "time": 116.00000966666666,
          "velocity": 0.905511811023622
        },
        {
          "duration": 0.3000000250000028,
          "durationTicks": 156,
          "midi": 68,
          "name": "G#4",
          "ticks": 60480,
          "time": 116.30770199999999,
          "velocity": 0.9921259842519685
        },
        {
          "duration": 0.3000000250000028,
          "durationTicks": 156,
          "midi": 69,
          "name": "A4",
          "ticks": 60640,
          "time": 116.61539433333331,
          "velocity": 0.889763779527559
        },
        {
          "duration": 0.30000002499998857,
          "durationTicks": 156,
          "midi": 69,
          "name": "A4",
          "ticks": 60800,
          "time": 116.92308666666666,
          "velocity": 0.9133858267716536
        },
        {
          "duration": 0.3000000250000028,
          "durationTicks": 156,
          "midi": 68,
          "name": "G#4",
          "ticks": 60960,
          "time": 117.23077899999998,
          "velocity": 0.889763779527559
        },
        {
          "duration": 0.3000000250000028,
          "durationTicks": 156,
          "midi": 68,
          "name": "G#4",
          "ticks": 61120,
          "time": 117.53847133333332,
          "velocity": 0.9212598425196851
        },
        {
          "duration": 0.3000000250000028,
          "durationTicks": 156,
          "midi": 66,
          "name": "F#4",
          "ticks": 61280,
          "time": 117.84616366666665,
          "velocity": 0.7795275590551181
        },
        {
          "duration": 0.37692310833332954,
          "durationTicks": 196,
          "midi": 66,
          "name": "F#4",
          "ticks": 61440,
          "time": 118.15385599999999,
          "velocity": 1
        },
        {
          "duration": 0.34615387499999883,
          "durationTicks": 180,
          "midi": 66,
          "name": "F#4",
          "ticks": 61640,
          "time": 118.53847141666665,
          "velocity": 0.8188976377952756
        },
        {
          "duration": 0.17692309166666575,
          "durationTicks": 92,
          "midi": 66,
          "name": "F#4",
          "ticks": 61840,
          "time": 118.92308683333333,
          "velocity": 0.8110236220472441
        },
        {
          "duration": 0.607692358333324,
          "durationTicks": 316,
          "midi": 66,
          "name": "F#4",
          "ticks": 61960,
          "time": 119.15385608333334,
          "velocity": 0.8031496062992126
        },
        {
          "duration": 0.300000025000017,
          "durationTicks": 156,
          "midi": 68,
          "name": "G#4",
          "ticks": 62240,
          "time": 119.69231766666665,
          "velocity": 0.84251968503937
        },
        {
          "duration": 0.37692310833332954,
          "durationTicks": 196,
          "midi": 68,
          "name": "G#4",
          "ticks": 62400,
          "time": 120.00000999999999,
          "velocity": 0.9763779527559056
        },
        {
          "duration": 0.300000025000017,
          "durationTicks": 156,
          "midi": 69,
          "name": "A4",
          "ticks": 62600,
          "time": 120.38462541666665,
          "velocity": 0.7244094488188977
        },
        {
          "duration": 0.30000002499998857,
          "durationTicks": 156,
          "midi": 69,
          "name": "A4",
          "ticks": 62760,
          "time": 120.69231774999999,
          "velocity": 0.968503937007874
        },
        {
          "duration": 0.30000002499998857,
          "durationTicks": 156,
          "midi": 68,
          "name": "G#4",
          "ticks": 62920,
          "time": 121.00001008333334,
          "velocity": 0.2204724409448819
        },
        {
          "duration": 0.17692309166666575,
          "durationTicks": 92,
          "midi": 45,
          "name": "A2",
          "ticks": 63280,
          "time": 121.69231783333333,
          "velocity": 0.8267716535433071
        },
        {
          "duration": 0.9153846916666737,
          "durationTicks": 476,
          "midi": 40,
          "name": "E2",
          "ticks": 63360,
          "time": 121.84616399999999,
          "velocity": 0.7086614173228346
        },
        {
          "duration": 0.9153846916666737,
          "durationTicks": 476,
          "midi": 45,
          "name": "A2",
          "ticks": 63840,
          "time": 122.769241,
          "velocity": 0.7480314960629921
        },
        {
          "duration": 1.0692308583333414,
          "durationTicks": 556,
          "midi": 49,
          "name": "C#3",
          "ticks": 64320,
          "time": 123.69231799999999,
          "velocity": 0.7637795275590551
        },
        {
          "duration": 0.4153846499999929,
          "durationTicks": 216,
          "midi": 52,
          "name": "E3",
          "ticks": 64960,
          "time": 124.92308733333333,
          "velocity": 0.8661417322834646
        },
        {
          "duration": 0.22307694166667602,
          "durationTicks": 116,
          "midi": 56,
          "name": "G#3",
          "ticks": 65160,
          "time": 125.30770274999999,
          "velocity": 0.33070866141732286
        },
        {
          "duration": 0.607692358333324,
          "durationTicks": 316,
          "midi": 61,
          "name": "C#4",
          "ticks": 65440,
          "time": 125.84616433333333,
          "velocity": 0.9212598425196851
        },
        {
          "duration": 0.4538461916666705,
          "durationTicks": 236,
          "midi": 54,
          "name": "F#3",
          "ticks": 65520,
          "time": 126.00001049999999,
          "velocity": 0.4330708661417323
        },
        {
          "duration": 0.30000002499998857,
          "durationTicks": 156,
          "midi": 62,
          "name": "D4",
          "ticks": 65760,
          "time": 126.46154899999999,
          "velocity": 0.8976377952755905
        },
        {
          "duration": 0.30000002499998857,
          "durationTicks": 156,
          "midi": 61,
          "name": "C#4",
          "ticks": 65920,
          "time": 126.76924133333333,
          "velocity": 0.7165354330708661
        },
        {
          "duration": 1.3769231916666484,
          "durationTicks": 716,
          "midi": 61,
          "name": "C#4",
          "ticks": 66160,
          "time": 127.23077983333333,
          "velocity": 0.8661417322834646
        },
        {
          "duration": 1.223077024999995,
          "durationTicks": 636,
          "midi": 54,
          "name": "F#3",
          "ticks": 66240,
          "time": 127.38462599999998,
          "velocity": 0.5433070866141733
        },
        {
          "duration": 0.37692310833332954,
          "durationTicks": 196,
          "midi": 54,
          "name": "F#3",
          "ticks": 67120,
          "time": 129.07693383333333,
          "velocity": 0.7165354330708661
        },
        {
          "duration": 1.83846169166668,
          "durationTicks": 956,
          "midi": 47,
          "name": "B2",
          "ticks": 67200,
          "time": 129.23077999999998,
          "velocity": 0.5433070866141733
        },
        {
          "duration": 1.5307693583333162,
          "durationTicks": 796,
          "midi": 47,
          "name": "B2",
          "ticks": 68160,
          "time": 131.076934,
          "velocity": 0.6535433070866141
        },
        {
          "duration": 0.2230769416666476,
          "durationTicks": 116,
          "midi": 52,
          "name": "E3",
          "ticks": 69040,
          "time": 132.76924183333333,
          "velocity": 0.5433070866141733
        },
        {
          "duration": 1.300000108333336,
          "durationTicks": 676,
          "midi": 56,
          "name": "G#3",
          "ticks": 69120,
          "time": 132.92308799999998,
          "velocity": 0.7480314960629921
        },
        {
          "duration": 0.22307694166667602,
          "durationTicks": 116,
          "midi": 56,
          "name": "G#3",
          "ticks": 69800,
          "time": 134.23078041666665,
          "velocity": 0.5511811023622047
        },
        {
          "duration": 0.06923077499999408,
          "durationTicks": 36,
          "midi": 63,
          "name": "D#4",
          "ticks": 69920,
          "time": 134.46154966666666,
          "velocity": 0.4409448818897638
        },
        {
          "duration": 0.22307694166667602,
          "durationTicks": 116,
          "midi": 64,
          "name": "E4",
          "ticks": 69960,
          "time": 134.53847274999998,
          "velocity": 0.48031496062992124
        },
        {
          "duration": 0.9153846916666737,
          "durationTicks": 476,
          "midi": 50,
          "name": "D3",
          "ticks": 70080,
          "time": 134.769242,
          "velocity": 0.7480314960629921
        },
        {
          "duration": 0.7153846749999957,
          "durationTicks": 372,
          "midi": 66,
          "name": "F#4",
          "ticks": 70080,
          "time": 134.769242,
          "velocity": 0.7480314960629921
        },
        {
          "duration": 0.16153847499995777,
          "durationTicks": 84,
          "midi": 66,
          "name": "F#4",
          "ticks": 70480,
          "time": 135.53847283333334,
          "velocity": 0.7480314960629921
        },
        {
          "duration": 0.684615441666665,
          "durationTicks": 356,
          "midi": 50,
          "name": "D3",
          "ticks": 70560,
          "time": 135.692319,
          "velocity": 0.7480314960629921
        },
        {
          "duration": 0.7615385249999918,
          "durationTicks": 396,
          "midi": 66,
          "name": "F#4",
          "ticks": 70560,
          "time": 135.692319,
          "velocity": 0.7480314960629921
        },
        {
          "duration": 0.22307694166667602,
          "durationTicks": 116,
          "midi": 50,
          "name": "D3",
          "ticks": 70920,
          "time": 136.38462675,
          "velocity": 0.8110236220472441
        },
        {
          "duration": 1.83846169166668,
          "durationTicks": 956,
          "midi": 49,
          "name": "C#3",
          "ticks": 71040,
          "time": 136.61539599999998,
          "velocity": 0.84251968503937
        },
        {
          "duration": 1.6076924416666714,
          "durationTicks": 836,
          "midi": 49,
          "name": "C#3",
          "ticks": 72000,
          "time": 138.46155,
          "velocity": 0.5984251968503937
        },
        {
          "duration": 0.1615384749999862,
          "durationTicks": 84,
          "midi": 61,
          "name": "C#4",
          "ticks": 72880,
          "time": 140.15385783333332,
          "velocity": 0.7244094488188977
        },
        {
          "duration": 1.6846155249999697,
          "durationTicks": 876,
          "midi": 54,
          "name": "F#3",
          "ticks": 72960,
          "time": 140.307704,
          "velocity": 0.6692913385826772
        },
        {
          "duration": 1.6076924416666714,
          "durationTicks": 836,
          "midi": 61,
          "name": "C#4",
          "ticks": 72960,
          "time": 140.307704,
          "velocity": 0.6692913385826772
        },
        {
          "duration": 0.16153847500001461,
          "durationTicks": 84,
          "midi": 61,
          "name": "C#4",
          "ticks": 73800,
          "time": 141.92308874999998,
          "velocity": 0.7244094488188977
        },
        {
          "duration": 0.684615441666665,
          "durationTicks": 356,
          "midi": 54,
          "name": "F#3",
          "ticks": 73920,
          "time": 142.15385799999999,
          "velocity": 0.6692913385826772
        },
        {
          "duration": 0.8692308416666776,
          "durationTicks": 452,
          "midi": 61,
          "name": "C#4",
          "ticks": 73920,
          "time": 142.15385799999999,
          "velocity": 0.6692913385826772
        },
        {
          "duration": 0.16153847500001461,
          "durationTicks": 84,
          "midi": 54,
          "name": "F#3",
          "ticks": 74280,
          "time": 142.84616574999998,
          "velocity": 0.7165354330708661
        },
        {
          "duration": 0.9153846916666737,
          "durationTicks": 476,
          "midi": 54,
          "name": "F#3",
          "ticks": 74400,
          "time": 143.076935,
          "velocity": 0.5354330708661418
        },
        {
          "duration": 0.6923077499999977,
          "durationTicks": 360,
          "midi": 61,
          "name": "C#4",
          "ticks": 74400,
          "time": 143.076935,
          "velocity": 0.5984251968503937
        },
        {
          "duration": 0.16153847500001461,
          "durationTicks": 84,
          "midi": 61,
          "name": "C#4",
          "ticks": 74760,
          "time": 143.76924275,
          "velocity": 0.7007874015748031
        },
        {
          "duration": 1.8384616916666516,
          "durationTicks": 956,
          "midi": 47,
          "name": "B2",
          "ticks": 74880,
          "time": 144.000012,
          "velocity": 0.7874015748031497
        },
        {
          "duration": 1.83846169166668,
          "durationTicks": 956,
          "midi": 47,
          "name": "B2",
          "ticks": 75840,
          "time": 145.84616599999998,
          "velocity": 0.7165354330708661
        },
        {
          "duration": 3.6846156916666644,
          "durationTicks": 1916,
          "midi": 40,
          "name": "E2",
          "ticks": 76800,
          "time": 147.69232,
          "velocity": 0.905511811023622
        },
        {
          "duration": 0.1615384749999862,
          "durationTicks": 84,
          "midi": 69,
          "name": "A4",
          "ticks": 77440,
          "time": 148.92308933333334,
          "velocity": 0.9133858267716536
        },
        {
          "duration": 0.8384616083333185,
          "durationTicks": 436,
          "midi": 62,
          "name": "D4",
          "ticks": 77520,
          "time": 149.0769355,
          "velocity": 0.3937007874015748
        },
        {
          "duration": 0.14615385833334926,
          "durationTicks": 76,
          "midi": 68,
          "name": "G#4",
          "ticks": 77960,
          "time": 149.92308941666664,
          "velocity": 0.8976377952755905
        },
        {
          "duration": 0.684615441666665,
          "durationTicks": 356,
          "midi": 62,
          "name": "D4",
          "ticks": 78040,
          "time": 150.07693558333332,
          "velocity": 0.7952755905511811
        },
        {
          "duration": 0.1615384749999862,
          "durationTicks": 84,
          "midi": 68,
          "name": "G#4",
          "ticks": 78400,
          "time": 150.76924333333332,
          "velocity": 0.9212598425196851
        },
        {
          "duration": 0.22307694166667602,
          "durationTicks": 116,
          "midi": 62,
          "name": "D4",
          "ticks": 78480,
          "time": 150.92308949999997,
          "velocity": 0.7716535433070866
        },
        {
          "duration": 0.1615384749999862,
          "durationTicks": 84,
          "midi": 56,
          "name": "G#3",
          "ticks": 78640,
          "time": 151.23078183333334,
          "velocity": 0.7559055118110236
        },
        {
          "duration": 1.83846169166668,
          "durationTicks": 956,
          "midi": 45,
          "name": "A2",
          "ticks": 78720,
          "time": 151.384628,
          "velocity": 0.7559055118110236
        },
        {
          "duration": 1.83846169166668,
          "durationTicks": 956,
          "midi": 49,
          "name": "C#3",
          "ticks": 79680,
          "time": 153.23078199999998,
          "velocity": 0.7559055118110236
        },
        {
          "duration": 1.83846169166668,
          "durationTicks": 956,
          "midi": 52,
          "name": "E3",
          "ticks": 80640,
          "time": 155.076936,
          "velocity": 0.7559055118110236
        },
        {
          "duration": 1.6769232166666654,
          "durationTicks": 872,
          "midi": 51,
          "name": "D#3",
          "ticks": 81600,
          "time": 156.92308999999997,
          "velocity": 0.7637795275590551
        },
        {
          "duration": 1.6769232166666654,
          "durationTicks": 872,
          "midi": 58,
          "name": "A#3",
          "ticks": 81600,
          "time": 156.92308999999997,
          "velocity": 0.7637795275590551
        },
        {
          "duration": 0.07692308333329834,
          "durationTicks": 40,
          "midi": 54,
          "name": "F#3",
          "ticks": 82480,
          "time": 158.61539783333333,
          "velocity": 0.28346456692913385
        },
        {
          "duration": 0.07692308333329834,
          "durationTicks": 40,
          "midi": 61,
          "name": "C#4",
          "ticks": 82480,
          "time": 158.61539783333333,
          "velocity": 0.28346456692913385
        },
        {
          "duration": 1.83846169166668,
          "durationTicks": 956,
          "midi": 50,
          "name": "D3",
          "ticks": 82560,
          "time": 158.769244,
          "velocity": 0.7322834645669292
        },
        {
          "duration": 1.6076924416666714,
          "durationTicks": 836,
          "midi": 66,
          "name": "F#4",
          "ticks": 82560,
          "time": 158.769244,
          "velocity": 0.7874015748031497
        },
        {
          "duration": 1.8384616916666516,
          "durationTicks": 956,
          "midi": 66,
          "name": "F#4",
          "ticks": 83440,
          "time": 160.46155183333332,
          "velocity": 0.8740157480314961
        },
        {
          "duration": 1.8384616916666516,
          "durationTicks": 956,
          "midi": 50,
          "name": "D3",
          "ticks": 83520,
          "time": 160.615398,
          "velocity": 0.6062992125984252
        },
        {
          "duration": 1.8384616916666516,
          "durationTicks": 956,
          "midi": 65,
          "name": "F4",
          "ticks": 84400,
          "time": 162.30770583333333,
          "velocity": 0.8818897637795275
        },
        {
          "duration": 1.83846169166668,
          "durationTicks": 956,
          "midi": 50,
          "name": "D3",
          "ticks": 84480,
          "time": 162.46155199999998,
          "velocity": 0.5669291338582677
        },
        {
          "duration": 0.9153846916666453,
          "durationTicks": 476,
          "midi": 65,
          "name": "F4",
          "ticks": 85360,
          "time": 164.15385983333334,
          "velocity": 0.8110236220472441
        },
        {
          "duration": 0.9153846916666737,
          "durationTicks": 476,
          "midi": 50,
          "name": "D3",
          "ticks": 85440,
          "time": 164.307706,
          "velocity": 0.5826771653543307
        },
        {
          "duration": 0.2230769416666476,
          "durationTicks": 116,
          "midi": 65,
          "name": "F4",
          "ticks": 85840,
          "time": 165.07693683333332,
          "velocity": 0.7874015748031497
        },
        {
          "duration": 0.7000000583333303,
          "durationTicks": 364,
          "midi": 55,
          "name": "G3",
          "ticks": 85920,
          "time": 165.23078299999997,
          "velocity": 0.8582677165354331
        },
        {
          "duration": 0.2230769416666476,
          "durationTicks": 116,
          "midi": 55,
          "name": "G3",
          "ticks": 86280,
          "time": 165.92309075,
          "velocity": 0.6771653543307087
        },
        {
          "duration": 1.6076924416666714,
          "durationTicks": 836,
          "midi": 54,
          "name": "F#3",
          "ticks": 86400,
          "time": 166.15385999999998,
          "velocity": 0.7244094488188977
        },
        {
          "duration": 0.22307694166667602,
          "durationTicks": 116,
          "midi": 49,
          "name": "C#3",
          "ticks": 87240,
          "time": 167.76924474999998,
          "velocity": 0.7637795275590551
        },
        {
          "duration": 1.83846169166668,
          "durationTicks": 956,
          "midi": 42,
          "name": "F#2",
          "ticks": 87360,
          "time": 168.000014,
          "velocity": 0.5748031496062992
        },
        {
          "duration": 1.83846169166668,
          "durationTicks": 956,
          "midi": 47,
          "name": "B2",
          "ticks": 88320,
          "time": 169.84616799999998,
          "velocity": 0.6062992125984252
        },
        {
          "duration": 1.8384616916666516,
          "durationTicks": 956,
          "midi": 54,
          "name": "F#3",
          "ticks": 88360,
          "time": 169.92309108333333,
          "velocity": 0.8110236220472441
        },
        {
          "duration": 1.3769231916666627,
          "durationTicks": 716,
          "midi": 47,
          "name": "B2",
          "ticks": 89280,
          "time": 171.692322,
          "velocity": 0.6929133858267716
        },
        {
          "duration": 0.2846154083333374,
          "durationTicks": 148,
          "midi": 47,
          "name": "B2",
          "ticks": 90000,
          "time": 173.07693749999999,
          "velocity": 0.6929133858267716
        },
        {
          "duration": 0.1615384749999862,
          "durationTicks": 84,
          "midi": 47,
          "name": "B2",
          "ticks": 90160,
          "time": 173.38462983333332,
          "velocity": 0.6929133858267716
        },
        {
          "duration": 1.83846169166668,
          "durationTicks": 956,
          "midi": 52,
          "name": "E3",
          "ticks": 90240,
          "time": 173.53847599999997,
          "velocity": 0.8031496062992126
        },
        {
          "duration": 1.2230770249999807,
          "durationTicks": 636,
          "midi": 52,
          "name": "E3",
          "ticks": 91200,
          "time": 175.38463,
          "velocity": 0.7401574803149606
        },
        {
          "duration": 0.6076923583333382,
          "durationTicks": 316,
          "midi": 49,
          "name": "C#3",
          "ticks": 91840,
          "time": 176.61539933333333,
          "velocity": 0.889763779527559
        },
        {
          "duration": 3.684615691666693,
          "durationTicks": 1916,
          "midi": 47,
          "name": "B2",
          "ticks": 92160,
          "time": 177.23078399999997,
          "velocity": 0.7952755905511811
        },
        {
          "duration": 1.83846169166668,
          "durationTicks": 956,
          "midi": 41,
          "name": "F2",
          "ticks": 93120,
          "time": 179.07693799999998,
          "velocity": 0.8346456692913385
        },
        {
          "duration": 0.3000000250000028,
          "durationTicks": 156,
          "midi": 68,
          "name": "G#4",
          "ticks": 93760,
          "time": 180.30770733333333,
          "velocity": 0.7952755905511811
        },
        {
          "duration": 0.3000000250000312,
          "durationTicks": 156,
          "midi": 68,
          "name": "G#4",
          "ticks": 93920,
          "time": 180.61539966666663,
          "velocity": 0.7952755905511811
        },
        {
          "duration": 1.2230770249999807,
          "durationTicks": 636,
          "midi": 68,
          "name": "G#4",
          "ticks": 94080,
          "time": 180.923092,
          "velocity": 0.7952755905511811
        },
        {
          "duration": 1.7615386083333249,
          "durationTicks": 916,
          "midi": 45,
          "name": "A2",
          "ticks": 94240,
          "time": 181.23078433333333,
          "velocity": 0.7952755905511811
        },
        {
          "duration": 0.30000002499997436,
          "durationTicks": 156,
          "midi": 68,
          "name": "G#4",
          "ticks": 94720,
          "time": 182.15386133333334,
          "velocity": 0.7952755905511811
        },
        {
          "duration": 0.3000000250000028,
          "durationTicks": 156,
          "midi": 68,
          "name": "G#4",
          "ticks": 94880,
          "time": 182.46155366666665,
          "velocity": 0.7952755905511811
        },
        {
          "duration": 1.2230770249999807,
          "durationTicks": 636,
          "midi": 68,
          "name": "G#4",
          "ticks": 95040,
          "time": 182.76924599999998,
          "velocity": 0.7952755905511811
        },
        {
          "duration": 1.5307693583333446,
          "durationTicks": 796,
          "midi": 45,
          "name": "A2",
          "ticks": 95200,
          "time": 183.07693833333332,
          "velocity": 0.7952755905511811
        },
        {
          "duration": 0.3000000250000028,
          "durationTicks": 156,
          "midi": 68,
          "name": "G#4",
          "ticks": 95680,
          "time": 184.00001533333332,
          "velocity": 0.7952755905511811
        },
        {
          "duration": 0.3000000250000312,
          "durationTicks": 156,
          "midi": 68,
          "name": "G#4",
          "ticks": 95840,
          "time": 184.30770766666663,
          "velocity": 0.7952755905511811
        },
        {
          "duration": 1.146153941666654,
          "durationTicks": 596,
          "midi": 68,
          "name": "G#4",
          "ticks": 96000,
          "time": 184.6154,
          "velocity": 0.7952755905511811
        },
        {
          "duration": 0.6076923583333098,
          "durationTicks": 316,
          "midi": 42,
          "name": "F#2",
          "ticks": 96640,
          "time": 185.84616933333334,
          "velocity": 0.7952755905511811
        },
        {
          "duration": 1.83846169166668,
          "durationTicks": 956,
          "midi": 42,
          "name": "F#2",
          "ticks": 96960,
          "time": 186.46155399999998,
          "velocity": 0.7952755905511811
        },
        {
          "duration": 3.6846156916666644,
          "durationTicks": 1916,
          "midi": 47,
          "name": "B2",
          "ticks": 97920,
          "time": 188.307708,
          "velocity": 0.6850393700787402
        },
        {
          "duration": 3.6846156916666644,
          "durationTicks": 1916,
          "midi": 54,
          "name": "F#3",
          "ticks": 97920,
          "time": 188.307708,
          "velocity": 0.6850393700787402
        },
        {
          "duration": 3.6846156916666644,
          "durationTicks": 1916,
          "midi": 59,
          "name": "B3",
          "ticks": 97920,
          "time": 188.307708,
          "velocity": 0.6850393700787402
        },
        {
          "duration": 1.83846169166668,
          "durationTicks": 956,
          "midi": 44,
          "name": "G#2",
          "ticks": 99840,
          "time": 192.000016,
          "velocity": 0.6850393700787402
        },
        {
          "duration": 1.83846169166668,
          "durationTicks": 956,
          "midi": 50,
          "name": "D3",
          "ticks": 100800,
          "time": 193.84616999999997,
          "velocity": 0.6850393700787402
        },
        {
          "duration": 1.83846169166668,
          "durationTicks": 956,
          "midi": 66,
          "name": "F#4",
          "ticks": 100800,
          "time": 193.84616999999997,
          "velocity": 0.6850393700787402
        },
        {
          "duration": 1.83846169166668,
          "durationTicks": 956,
          "midi": 56,
          "name": "G#3",
          "ticks": 101760,
          "time": 195.69232399999999,
          "velocity": 0.6614173228346457
        },
        {
          "duration": 1.83846169166668,
          "durationTicks": 956,
          "midi": 61,
          "name": "C#4",
          "ticks": 101760,
          "time": 195.69232399999999,
          "velocity": 0.6692913385826772
        },
        {
          "duration": 0.9153846916666737,
          "durationTicks": 476,
          "midi": 56,
          "name": "G#3",
          "ticks": 102720,
          "time": 197.538478,
          "velocity": 0.6614173228346457
        },
        {
          "duration": 0.9153846916666737,
          "durationTicks": 476,
          "midi": 61,
          "name": "C#4",
          "ticks": 102720,
          "time": 197.538478,
          "velocity": 0.6614173228346457
        },
        {
          "duration": 0.9153846916666737,
          "durationTicks": 476,
          "midi": 56,
          "name": "G#3",
          "ticks": 103200,
          "time": 198.46155499999998,
          "velocity": 0.6614173228346457
        },
        {
          "duration": 0.9153846916666737,
          "durationTicks": 476,
          "midi": 61,
          "name": "C#4",
          "ticks": 103200,
          "time": 198.46155499999998,
          "velocity": 0.6614173228346457
        },
        {
          "duration": 0.2923077166666701,
          "durationTicks": 152,
          "midi": 54,
          "name": "F#3",
          "ticks": 103680,
          "time": 199.38463199999998,
          "velocity": 0.6614173228346457
        },
        {
          "duration": 0.2923077166666701,
          "durationTicks": 152,
          "midi": 61,
          "name": "C#4",
          "ticks": 103680,
          "time": 199.38463199999998,
          "velocity": 0.6614173228346457
        },
        {
          "duration": 0.14615385833334926,
          "durationTicks": 76,
          "midi": 54,
          "name": "F#3",
          "ticks": 103840,
          "time": 199.69232433333332,
          "velocity": 0.5826771653543307
        },
        {
          "duration": 0.14615385833334926,
          "durationTicks": 76,
          "midi": 61,
          "name": "C#4",
          "ticks": 103840,
          "time": 199.69232433333332,
          "velocity": 0.5748031496062992
        },
        {
          "duration": 0.907692383333341,
          "durationTicks": 472,
          "midi": 54,
          "name": "F#3",
          "ticks": 103920,
          "time": 199.84617049999997,
          "velocity": 0.6614173228346457
        },
        {
          "duration": 0.907692383333341,
          "durationTicks": 472,
          "midi": 61,
          "name": "C#4",
          "ticks": 103920,
          "time": 199.84617049999997,
          "velocity": 0.6614173228346457
        },
        {
          "duration": 0.2923077166666701,
          "durationTicks": 152,
          "midi": 54,
          "name": "F#3",
          "ticks": 104400,
          "time": 200.76924749999998,
          "velocity": 0.6614173228346457
        },
        {
          "duration": 0.2923077166666701,
          "durationTicks": 152,
          "midi": 61,
          "name": "C#4",
          "ticks": 104400,
          "time": 200.76924749999998,
          "velocity": 0.6614173228346457
        },
        {
          "duration": 0.14615385833334926,
          "durationTicks": 76,
          "midi": 54,
          "name": "F#3",
          "ticks": 104560,
          "time": 201.0769398333333,
          "velocity": 0.5826771653543307
        },
        {
          "duration": 0.14615385833334926,
          "durationTicks": 76,
          "midi": 61,
          "name": "C#4",
          "ticks": 104560,
          "time": 201.0769398333333,
          "velocity": 0.5748031496062992
        },
        {
          "duration": 0.9076923833333126,
          "durationTicks": 472,
          "midi": 54,
          "name": "F#3",
          "ticks": 104640,
          "time": 201.230786,
          "velocity": 0.6614173228346457
        },
        {
          "duration": 0.9076923833333126,
          "durationTicks": 472,
          "midi": 61,
          "name": "C#4",
          "ticks": 104640,
          "time": 201.230786,
          "velocity": 0.6614173228346457
        },
        {
          "duration": 0.907692383333341,
          "durationTicks": 472,
          "midi": 54,
          "name": "F#3",
          "ticks": 105120,
          "time": 202.15386299999997,
          "velocity": 0.6614173228346457
        },
        {
          "duration": 0.907692383333341,
          "durationTicks": 472,
          "midi": 61,
          "name": "C#4",
          "ticks": 105120,
          "time": 202.15386299999997,
          "velocity": 0.6614173228346457
        },
        {
          "duration": 1.6076924416666714,
          "durationTicks": 836,
          "midi": 59,
          "name": "B3",
          "ticks": 105600,
          "time": 203.07693999999998,
          "velocity": 0.6614173228346457
        },
        {
          "duration": 0.3000000250000028,
          "durationTicks": 156,
          "midi": 59,
          "name": "B3",
          "ticks": 106440,
          "time": 204.69232474999998,
          "velocity": 0.6614173228346457
        },
        {
          "duration": 1.8384616916666516,
          "durationTicks": 956,
          "midi": 45,
          "name": "A2",
          "ticks": 106560,
          "time": 204.923094,
          "velocity": 0.6614173228346457
        },
        {
          "duration": 1.83846169166668,
          "durationTicks": 956,
          "midi": 56,
          "name": "G#3",
          "ticks": 107520,
          "time": 206.76924799999998,
          "velocity": 0.7952755905511811
        },
        {
          "duration": 1.3769231916666627,
          "durationTicks": 716,
          "midi": 49,
          "name": "C#3",
          "ticks": 108480,
          "time": 208.615402,
          "velocity": 0.6614173228346457
        },
        {
          "duration": 0.4538461916666847,
          "durationTicks": 236,
          "midi": 49,
          "name": "C#3",
          "ticks": 109200,
          "time": 210.00001749999998,
          "velocity": 0.6614173228346457
        },
        {
          "duration": 1.83846169166668,
          "durationTicks": 956,
          "midi": 42,
          "name": "F#2",
          "ticks": 109440,
          "time": 210.46155599999997,
          "velocity": 0.6614173228346457
        },
        {
          "duration": 1.3769231916666627,
          "durationTicks": 716,
          "midi": 42,
          "name": "F#2",
          "ticks": 110400,
          "time": 212.30771,
          "velocity": 0.6614173228346457
        },
        {
          "duration": 0.37692310833332954,
          "durationTicks": 196,
          "midi": 64,
          "name": "E4",
          "ticks": 111160,
          "time": 213.76924858333334,
          "velocity": 0.6614173228346457
        },
        {
          "duration": 0.9153846916666737,
          "durationTicks": 476,
          "midi": 50,
          "name": "D3",
          "ticks": 111360,
          "time": 214.15386399999997,
          "velocity": 0.8346456692913385
        },
        {
          "duration": 0.9153846916666737,
          "durationTicks": 476,
          "midi": 65,
          "name": "F4",
          "ticks": 111360,
          "time": 214.15386399999997,
          "velocity": 0.8346456692913385
        },
        {
          "duration": 0.9153846916666737,
          "durationTicks": 476,
          "midi": 50,
          "name": "D3",
          "ticks": 111840,
          "time": 215.07694099999998,
          "velocity": 0.8267716535433071
        },
        {
          "duration": 0.6846154416666934,
          "durationTicks": 356,
          "midi": 65,
          "name": "F4",
          "ticks": 111840,
          "time": 215.07694099999998,
          "velocity": 0.8267716535433071
        },
        {
          "duration": 0.2230769416666476,
          "durationTicks": 116,
          "midi": 65,
          "name": "F4",
          "ticks": 112240,
          "time": 215.84617183333333,
          "velocity": 0.8110236220472441
        },
        {
          "duration": 1.5307693583333446,
          "durationTicks": 796,
          "midi": 55,
          "name": "G3",
          "ticks": 112320,
          "time": 216.00001799999998,
          "velocity": 0.968503937007874
        },
        {
          "duration": 0.3000000250000312,
          "durationTicks": 156,
          "midi": 56,
          "name": "G#3",
          "ticks": 113120,
          "time": 217.53847966666663,
          "velocity": 0.7244094488188977
        },
        {
          "duration": 1.8384616916666516,
          "durationTicks": 956,
          "midi": 57,
          "name": "A3",
          "ticks": 113280,
          "time": 217.846172,
          "velocity": 0.7795275590551181
        },
        {
          "duration": 0.3000000250000028,
          "durationTicks": 156,
          "midi": 50,
          "name": "D3",
          "ticks": 114240,
          "time": 219.69232599999998,
          "velocity": 0.6141732283464567
        },
        {
          "duration": 0.3000000250000028,
          "durationTicks": 156,
          "midi": 66,
          "name": "F#4",
          "ticks": 114240,
          "time": 219.69232599999998,
          "velocity": 0.6141732283464567
        },
        {
          "duration": 1.5307693583333446,
          "durationTicks": 796,
          "midi": 50,
          "name": "D3",
          "ticks": 114400,
          "time": 220.00001833333332,
          "velocity": 0.6299212598425197
        },
        {
          "duration": 1.5307693583333446,
          "durationTicks": 796,
          "midi": 66,
          "name": "F#4",
          "ticks": 114400,
          "time": 220.00001833333332,
          "velocity": 0.6299212598425197
        },
        {
          "duration": 1.8384616916666516,
          "durationTicks": 956,
          "midi": 49,
          "name": "C#3",
          "ticks": 115200,
          "time": 221.53848,
          "velocity": 0.7244094488188977
        },
        {
          "duration": 1.83846169166668,
          "durationTicks": 956,
          "midi": 42,
          "name": "F#2",
          "ticks": 116160,
          "time": 223.38463399999998,
          "velocity": 0.7244094488188977
        },
        {
          "duration": 1.8384616916666516,
          "durationTicks": 956,
          "midi": 47,
          "name": "B2",
          "ticks": 117120,
          "time": 225.230788,
          "velocity": 0.6299212598425197
        },
        {
          "duration": 1.8384616916666516,
          "durationTicks": 956,
          "midi": 66,
          "name": "F#4",
          "ticks": 117120,
          "time": 225.230788,
          "velocity": 0.6299212598425197
        },
        {
          "duration": 1.83846169166668,
          "durationTicks": 956,
          "midi": 42,
          "name": "F#2",
          "ticks": 118080,
          "time": 227.07694199999997,
          "velocity": 0.6299212598425197
        },
        {
          "duration": 1.83846169166668,
          "durationTicks": 956,
          "midi": 47,
          "name": "B2",
          "ticks": 119040,
          "time": 228.923096,
          "velocity": 0.6299212598425197
        },
        {
          "duration": 1.83846169166668,
          "durationTicks": 956,
          "midi": 54,
          "name": "F#3",
          "ticks": 119040,
          "time": 228.923096,
          "velocity": 0.6299212598425197
        },
        {
          "duration": 1.8384616916666516,
          "durationTicks": 956,
          "midi": 59,
          "name": "B3",
          "ticks": 119080,
          "time": 229.0000190833333,
          "velocity": 0.6299212598425197
        },
        {
          "duration": 1.83846169166668,
          "durationTicks": 956,
          "midi": 40,
          "name": "E2",
          "ticks": 120000,
          "time": 230.76924999999997,
          "velocity": 0.7637795275590551
        },
        {
          "duration": 1.8384616916666516,
          "durationTicks": 956,
          "midi": 57,
          "name": "A3",
          "ticks": 121080,
          "time": 232.84617325,
          "velocity": 0.6299212598425197
        },
        {
          "duration": 1.83846169166668,
          "durationTicks": 956,
          "midi": 54,
          "name": "F#3",
          "ticks": 121920,
          "time": 234.46155799999997,
          "velocity": 0.6299212598425197
        },
        {
          "duration": 1.83846169166668,
          "durationTicks": 956,
          "midi": 59,
          "name": "B3",
          "ticks": 122880,
          "time": 236.30771199999998,
          "velocity": 0.6299212598425197
        },
        {
          "duration": 0.9153846916666737,
          "durationTicks": 476,
          "midi": 50,
          "name": "D3",
          "ticks": 123840,
          "time": 238.153866,
          "velocity": 0.6299212598425197
        },
        {
          "duration": 0.9153846916666737,
          "durationTicks": 476,
          "midi": 67,
          "name": "G4",
          "ticks": 124320,
          "time": 239.07694299999997,
          "velocity": 0.6299212598425197
        },
        {
          "duration": 0.9153846916666737,
          "durationTicks": 476,
          "midi": 49,
          "name": "C#3",
          "ticks": 124800,
          "time": 240.00001999999998,
          "velocity": 0.6299212598425197
        },
        {
          "duration": 0.9153846916666737,
          "durationTicks": 476,
          "midi": 42,
          "name": "F#2",
          "ticks": 125280,
          "time": 240.92309699999998,
          "velocity": 0.6299212598425197
        },
        {
          "duration": 0.9153846916666737,
          "durationTicks": 476,
          "midi": 47,
          "name": "B2",
          "ticks": 125760,
          "time": 241.846174,
          "velocity": 0.6299212598425197
        },
        {
          "duration": 2.992307941666695,
          "durationTicks": 1556,
          "midi": 40,
          "name": "E2",
          "ticks": 126240,
          "time": 242.76925099999997,
          "velocity": 0.6299212598425197
        },
        {
          "duration": 0.7615385249999918,
          "durationTicks": 396,
          "midi": 57,
          "name": "A3",
          "ticks": 128040,
          "time": 246.23078974999999,
          "velocity": 0.44881889763779526
        },
        {
          "duration": 0.0692307750000225,
          "durationTicks": 36,
          "midi": 64,
          "name": "E4",
          "ticks": 128440,
          "time": 247.0000205833333,
          "velocity": 0.1968503937007874
        },
        {
          "duration": 0.10769231666668588,
          "durationTicks": 56,
          "midi": 68,
          "name": "G#4",
          "ticks": 128480,
          "time": 247.07694366666666,
          "velocity": 0.5118110236220472
        },
        {
          "duration": 0.10769231666665746,
          "durationTicks": 56,
          "midi": 68,
          "name": "G#4",
          "ticks": 128520,
          "time": 247.15386675,
          "velocity": 0.5511811023622047
        },
        {
          "duration": 0.08461539166663101,
          "durationTicks": 44,
          "midi": 64,
          "name": "E4",
          "ticks": 128600,
          "time": 247.30771291666667,
          "velocity": 0.33858267716535434
        },
        {
          "duration": 0.08461539166665943,
          "durationTicks": 44,
          "midi": 57,
          "name": "A3",
          "ticks": 128640,
          "time": 247.38463599999997,
          "velocity": 0.11023622047244094
        },
        {
          "duration": 0.11538462499999014,
          "durationTicks": 60,
          "midi": 68,
          "name": "G#4",
          "ticks": 128680,
          "time": 247.4615590833333,
          "velocity": 0.3937007874015748
        },
        {
          "duration": 0.07692308333332676,
          "durationTicks": 40,
          "midi": 68,
          "name": "G#4",
          "ticks": 128720,
          "time": 247.53848216666665,
          "velocity": 0.5511811023622047
        },
        {
          "duration": 0.07692308333332676,
          "durationTicks": 40,
          "midi": 64,
          "name": "E4",
          "ticks": 128760,
          "time": 247.61540524999998,
          "velocity": 0.5433070866141733
        },
        {
          "duration": 0.09230770000002053,
          "durationTicks": 48,
          "midi": 57,
          "name": "A3",
          "ticks": 128800,
          "time": 247.6923283333333,
          "velocity": 0.1889763779527559
        },
        {
          "duration": 0.30000002499997436,
          "durationTicks": 156,
          "midi": 57,
          "name": "A3",
          "ticks": 128880,
          "time": 247.8461745,
          "velocity": 0.31496062992125984
        },
        {
          "duration": 0.06923077500005093,
          "durationTicks": 36,
          "midi": 57,
          "name": "A3",
          "ticks": 129040,
          "time": 248.1538668333333,
          "velocity": 0.14960629921259844
        },
        {
          "duration": 0.06923077499999408,
          "durationTicks": 36,
          "midi": 57,
          "name": "A3",
          "ticks": 129080,
          "time": 248.23078991666665,
          "velocity": 0.13385826771653545
        },
        {
          "duration": 0.06923077499999408,
          "durationTicks": 36,
          "midi": 57,
          "name": "A3",
          "ticks": 129120,
          "time": 248.30771299999998,
          "velocity": 0.15748031496062992
        },
        {
          "duration": 0.0692307750000225,
          "durationTicks": 36,
          "midi": 57,
          "name": "A3",
          "ticks": 129160,
          "time": 248.3846360833333,
          "velocity": 0.16535433070866143
        },
        {
          "duration": 0.06923077499999408,
          "durationTicks": 36,
          "midi": 57,
          "name": "A3",
          "ticks": 129200,
          "time": 248.46155916666666,
          "velocity": 0.18110236220472442
        },
        {
          "duration": 0.06923077499999408,
          "durationTicks": 36,
          "midi": 57,
          "name": "A3",
          "ticks": 129240,
          "time": 248.53848225,
          "velocity": 0.18110236220472442
        },
        {
          "duration": 0.06923077500005093,
          "durationTicks": 36,
          "midi": 57,
          "name": "A3",
          "ticks": 129280,
          "time": 248.61540533333329,
          "velocity": 0.15748031496062992
        },
        {
          "duration": 0.06923077499999408,
          "durationTicks": 36,
          "midi": 57,
          "name": "A3",
          "ticks": 129320,
          "time": 248.69232841666667,
          "velocity": 0.14173228346456693
        },
        {
          "duration": 0.06923077499999408,
          "durationTicks": 36,
          "midi": 57,
          "name": "A3",
          "ticks": 129360,
          "time": 248.76925149999997,
          "velocity": 0.14173228346456693
        },
        {
          "duration": 0.06923077500005093,
          "durationTicks": 36,
          "midi": 57,
          "name": "A3",
          "ticks": 129400,
          "time": 248.8461745833333,
          "velocity": 0.13385826771653545
        },
        {
          "duration": 0.06923077499996566,
          "durationTicks": 36,
          "midi": 57,
          "name": "A3",
          "ticks": 129440,
          "time": 248.92309766666668,
          "velocity": 0.13385826771653545
        },
        {
          "duration": 0.06923077499999408,
          "durationTicks": 36,
          "midi": 57,
          "name": "A3",
          "ticks": 129480,
          "time": 249.00002074999998,
          "velocity": 0.12598425196850394
        },
        {
          "duration": 0.0692307750000225,
          "durationTicks": 36,
          "midi": 57,
          "name": "A3",
          "ticks": 129520,
          "time": 249.0769438333333,
          "velocity": 0.12598425196850394
        },
        {
          "duration": 1.2230770250000091,
          "durationTicks": 636,
          "midi": 57,
          "name": "A3",
          "ticks": 129560,
          "time": 249.15386691666666,
          "velocity": 0.12598425196850394
        }
      ]
    }
  ]
}