{
  "header": {
    "keySignatures": [
      {
        "key": "C",
        "scale": "major",
        "ticks": 0
      }
    ],
    "meta": [],
    "name": "",
    "ppq": 480,
    "tempos": [
      {
        "bpm": 125,
        "ticks": 0
      }
    ],
    "timeSignatures": [
      {
        "ticks": 0,
        "timeSignature": [
          1,
          4
        ],
        "measures": 0
      }
    ]
  },
  "tracks": [
    {
      "channel": 0,
      "controlChanges": {},
      "pitchBends": [],
      "instrument": {
        "family": "piano",
        "number": 0,
        "name": "acoustic grand piano"
      },
      "name": "忍者_爱给网_aigei_com",
      "notes": [],
      "endOfTrackTicks": 157440
    },
    {
      "channel": 0,
      "controlChanges": {
        "7": [
          {
            "number": 7,
            "ticks": 0,
            "time": 0,
            "value": 1
          },
          {
            "number": 7,
            "ticks": 0,
            "time": 0,
            "value": 1
          },
          {
            "number": 7,
            "ticks": 157440,
            "time": 157.44,
            "value": 1
          },
          {
            "number": 7,
            "ticks": 157440,
            "time": 157.44,
            "value": 1
          }
        ],
        "10": [
          {
            "number": 10,
            "ticks": 0,
            "time": 0,
            "value": 0.2677165354330709
          },
          {
            "number": 10,
            "ticks": 157440,
            "time": 157.44,
            "value": 0.2677165354330709
          }
        ]
      },
      "pitchBends": [],
      "instrument": {
        "family": "pipe",
        "number": 72,
        "name": "piccolo"
      },
      "name": "",
      "notes": [
        {
          "duration": 0.14399999999999835,
          "durationTicks": 144,
          "midi": 76,
          "name": "E5",
          "ticks": 18460,
          "time": 18.46,
          "velocity": 1
        },
        {
          "duration": 0.14399999999999835,
          "durationTicks": 144,
          "midi": 81,
          "name": "A5",
          "ticks": 18532,
          "time": 18.532,
          "velocity": 1
        },
        {
          "duration": 1.2979999999999983,
          "durationTicks": 1298,
          "midi": 83,
          "name": "B5",
          "ticks": 18604,
          "time": 18.604,
          "velocity": 1
        },
        {
          "duration": 0.28800000000000026,
          "durationTicks": 288,
          "midi": 81,
          "name": "A5",
          "ticks": 19902,
          "time": 19.901999999999997,
          "velocity": 1
        },
        {
          "duration": 0.2879999999999967,
          "durationTicks": 288,
          "midi": 77,
          "name": "F5",
          "ticks": 20192,
          "time": 20.192,
          "velocity": 1
        },
        {
          "duration": 0.28800000000000026,
          "durationTicks": 288,
          "midi": 76,
          "name": "E5",
          "ticks": 20480,
          "time": 20.479999999999997,
          "velocity": 1
        },
        {
          "duration": 0.14400000000000546,
          "durationTicks": 144,
          "midi": 76,
          "name": "E5",
          "ticks": 20768,
          "time": 20.767999999999997,
          "velocity": 1
        },
        {
          "duration": 0.1440000000000019,
          "durationTicks": 144,
          "midi": 81,
          "name": "A5",
          "ticks": 20840,
          "time": 20.84,
          "velocity": 1
        },
        {
          "duration": 1.2979999999999983,
          "durationTicks": 1298,
          "midi": 83,
          "name": "B5",
          "ticks": 20912,
          "time": 20.912000000000003,
          "velocity": 1
        },
        {
          "duration": 0.14399999999999835,
          "durationTicks": 144,
          "midi": 83,
          "name": "B5",
          "ticks": 22210,
          "time": 22.21,
          "velocity": 1
        },
        {
          "duration": 0.14399999999999835,
          "durationTicks": 144,
          "midi": 84,
          "name": "C6",
          "ticks": 22354,
          "time": 22.354,
          "velocity": 1
        },
        {
          "duration": 0.28800000000000026,
          "durationTicks": 288,
          "midi": 83,
          "name": "B5",
          "ticks": 22500,
          "time": 22.5,
          "velocity": 1
        },
        {
          "duration": 0.14399999999999835,
          "durationTicks": 144,
          "midi": 76,
          "name": "E5",
          "ticks": 23076,
          "time": 23.076,
          "velocity": 1
        },
        {
          "duration": 0.14399999999999835,
          "durationTicks": 144,
          "midi": 81,
          "name": "A5",
          "ticks": 23148,
          "time": 23.148,
          "velocity": 1
        },
        {
          "duration": 1.2979999999999983,
          "durationTicks": 1298,
          "midi": 83,
          "name": "B5",
          "ticks": 23220,
          "time": 23.22,
          "velocity": 1
        },
        {
          "duration": 0.2880000000000038,
          "durationTicks": 288,
          "midi": 81,
          "name": "A5",
          "ticks": 24518,
          "time": 24.517999999999997,
          "velocity": 1
        },
        {
          "duration": 0.28800000000000026,
          "durationTicks": 288,
          "midi": 77,
          "name": "F5",
          "ticks": 24806,
          "time": 24.806,
          "velocity": 1
        },
        {
          "duration": 0.2880000000000038,
          "durationTicks": 288,
          "midi": 76,
          "name": "E5",
          "ticks": 25096,
          "time": 25.095999999999997,
          "velocity": 1
        },
        {
          "duration": 0.14399999999999835,
          "durationTicks": 144,
          "midi": 76,
          "name": "E5",
          "ticks": 25384,
          "time": 25.384,
          "velocity": 1
        },
        {
          "duration": 0.1440000000000019,
          "durationTicks": 144,
          "midi": 81,
          "name": "A5",
          "ticks": 25456,
          "time": 25.456,
          "velocity": 1
        },
        {
          "duration": 1.2980000000000018,
          "durationTicks": 1298,
          "midi": 83,
          "name": "B5",
          "ticks": 25528,
          "time": 25.528,
          "velocity": 1
        },
        {
          "duration": 0.14399999999999835,
          "durationTicks": 144,
          "midi": 83,
          "name": "B5",
          "ticks": 26826,
          "time": 26.826,
          "velocity": 1
        },
        {
          "duration": 0.14399999999999835,
          "durationTicks": 144,
          "midi": 84,
          "name": "C6",
          "ticks": 26970,
          "time": 26.97,
          "velocity": 1
        },
        {
          "duration": 0.1440000000000019,
          "durationTicks": 144,
          "midi": 83,
          "name": "B5",
          "ticks": 27114,
          "time": 27.113999999999997,
          "velocity": 1
        },
        {
          "duration": 0.14399999999999835,
          "durationTicks": 144,
          "midi": 84,
          "name": "C6",
          "ticks": 27258,
          "time": 27.258,
          "velocity": 1
        },
        {
          "duration": 0.1440000000000019,
          "durationTicks": 144,
          "midi": 83,
          "name": "B5",
          "ticks": 27402,
          "time": 27.401999999999997,
          "velocity": 1
        },
        {
          "duration": 0.14399999999999835,
          "durationTicks": 144,
          "midi": 76,
          "name": "E5",
          "ticks": 46152,
          "time": 46.152,
          "velocity": 1
        },
        {
          "duration": 0.14399999999999835,
          "durationTicks": 144,
          "midi": 81,
          "name": "A5",
          "ticks": 46224,
          "time": 46.224,
          "velocity": 1
        },
        {
          "duration": 1.2980000000000018,
          "durationTicks": 1298,
          "midi": 83,
          "name": "B5",
          "ticks": 46298,
          "time": 46.297999999999995,
          "velocity": 1
        },
        {
          "duration": 0.2880000000000038,
          "durationTicks": 288,
          "midi": 81,
          "name": "A5",
          "ticks": 47596,
          "time": 47.596,
          "velocity": 1
        },
        {
          "duration": 0.2879999999999967,
          "durationTicks": 288,
          "midi": 77,
          "name": "F5",
          "ticks": 47884,
          "time": 47.884,
          "velocity": 1
        },
        {
          "duration": 0.2879999999999967,
          "durationTicks": 288,
          "midi": 76,
          "name": "E5",
          "ticks": 48172,
          "time": 48.172,
          "velocity": 1
        },
        {
          "duration": 0.14400000000000546,
          "durationTicks": 144,
          "midi": 76,
          "name": "E5",
          "ticks": 48460,
          "time": 48.459999999999994,
          "velocity": 1
        },
        {
          "duration": 0.14399999999999835,
          "durationTicks": 144,
          "midi": 81,
          "name": "A5",
          "ticks": 48532,
          "time": 48.532,
          "velocity": 1
        },
        {
          "duration": 1.2980000000000018,
          "durationTicks": 1298,
          "midi": 83,
          "name": "B5",
          "ticks": 48604,
          "time": 48.604,
          "velocity": 1
        },
        {
          "duration": 0.14399999999999835,
          "durationTicks": 144,
          "midi": 83,
          "name": "B5",
          "ticks": 49902,
          "time": 49.902,
          "velocity": 1
        },
        {
          "duration": 0.14399999999999835,
          "durationTicks": 144,
          "midi": 84,
          "name": "C6",
          "ticks": 50048,
          "time": 50.047999999999995,
          "velocity": 1
        },
        {
          "duration": 0.2880000000000038,
          "durationTicks": 288,
          "midi": 83,
          "name": "B5",
          "ticks": 50192,
          "time": 50.19199999999999,
          "velocity": 1
        },
        {
          "duration": 0.14399999999999835,
          "durationTicks": 144,
          "midi": 76,
          "name": "E5",
          "ticks": 50768,
          "time": 50.768,
          "velocity": 1
        },
        {
          "duration": 0.14399999999999835,
          "durationTicks": 144,
          "midi": 81,
          "name": "A5",
          "ticks": 50840,
          "time": 50.84,
          "velocity": 1
        },
        {
          "duration": 1.2979999999999947,
          "durationTicks": 1298,
          "midi": 83,
          "name": "B5",
          "ticks": 50912,
          "time": 50.912,
          "velocity": 1
        },
        {
          "duration": 0.2880000000000038,
          "durationTicks": 288,
          "midi": 81,
          "name": "A5",
          "ticks": 52210,
          "time": 52.209999999999994,
          "velocity": 1
        },
        {
          "duration": 0.2879999999999967,
          "durationTicks": 288,
          "midi": 77,
          "name": "F5",
          "ticks": 52500,
          "time": 52.5,
          "velocity": 1
        },
        {
          "duration": 0.2880000000000038,
          "durationTicks": 288,
          "midi": 76,
          "name": "E5",
          "ticks": 52788,
          "time": 52.788,
          "velocity": 1
        },
        {
          "duration": 0.14399999999999835,
          "durationTicks": 144,
          "midi": 76,
          "name": "E5",
          "ticks": 53076,
          "time": 53.076,
          "velocity": 1
        },
        {
          "duration": 0.14400000000000546,
          "durationTicks": 144,
          "midi": 81,
          "name": "A5",
          "ticks": 53148,
          "time": 53.147999999999996,
          "velocity": 1
        },
        {
          "duration": 1.2980000000000018,
          "durationTicks": 1298,
          "midi": 83,
          "name": "B5",
          "ticks": 53220,
          "time": 53.22,
          "velocity": 1
        },
        {
          "duration": 0.14399999999999835,
          "durationTicks": 144,
          "midi": 83,
          "name": "B5",
          "ticks": 54518,
          "time": 54.518,
          "velocity": 1
        },
        {
          "duration": 0.14399999999999835,
          "durationTicks": 144,
          "midi": 84,
          "name": "C6",
          "ticks": 54662,
          "time": 54.662,
          "velocity": 1
        },
        {
          "duration": 0.14400000000000546,
          "durationTicks": 144,
          "midi": 83,
          "name": "B5",
          "ticks": 54806,
          "time": 54.806,
          "velocity": 1
        },
        {
          "duration": 0.14399999999999835,
          "durationTicks": 144,
          "midi": 84,
          "name": "C6",
          "ticks": 54950,
          "time": 54.95,
          "velocity": 1
        },
        {
          "duration": 0.14399999999999835,
          "durationTicks": 144,
          "midi": 83,
          "name": "B5",
          "ticks": 55096,
          "time": 55.096,
          "velocity": 1
        },
        {
          "duration": 0.14399999999999835,
          "durationTicks": 144,
          "midi": 76,
          "name": "E5",
          "ticks": 55384,
          "time": 55.384,
          "velocity": 1
        },
        {
          "duration": 0.14399999999999835,
          "durationTicks": 144,
          "midi": 81,
          "name": "A5",
          "ticks": 55456,
          "time": 55.455999999999996,
          "velocity": 1
        },
        {
          "duration": 1.2980000000000018,
          "durationTicks": 1298,
          "midi": 83,
          "name": "B5",
          "ticks": 55528,
          "time": 55.528,
          "velocity": 1
        },
        {
          "duration": 0.2879999999999967,
          "durationTicks": 288,
          "midi": 81,
          "name": "A5",
          "ticks": 56826,
          "time": 56.826,
          "velocity": 1
        },
        {
          "duration": 0.2880000000000038,
          "durationTicks": 288,
          "midi": 77,
          "name": "F5",
          "ticks": 57114,
          "time": 57.114,
          "velocity": 1
        },
        {
          "duration": 0.2879999999999967,
          "durationTicks": 288,
          "midi": 76,
          "name": "E5",
          "ticks": 57402,
          "time": 57.402,
          "velocity": 1
        },
        {
          "duration": 0.14399999999999835,
          "durationTicks": 144,
          "midi": 76,
          "name": "E5",
          "ticks": 57692,
          "time": 57.69199999999999,
          "velocity": 1
        },
        {
          "duration": 0.14399999999999835,
          "durationTicks": 144,
          "midi": 81,
          "name": "A5",
          "ticks": 57764,
          "time": 57.763999999999996,
          "velocity": 1
        },
        {
          "duration": 1.298000000000009,
          "durationTicks": 1298,
          "midi": 83,
          "name": "B5",
          "ticks": 57836,
          "time": 57.83599999999999,
          "velocity": 1
        },
        {
          "duration": 0.14399999999999835,
          "durationTicks": 144,
          "midi": 83,
          "name": "B5",
          "ticks": 59134,
          "time": 59.134,
          "velocity": 1
        },
        {
          "duration": 0.14399999999999835,
          "durationTicks": 144,
          "midi": 84,
          "name": "C6",
          "ticks": 59278,
          "time": 59.278,
          "velocity": 1
        },
        {
          "duration": 0.2879999999999967,
          "durationTicks": 288,
          "midi": 83,
          "name": "B5",
          "ticks": 59422,
          "time": 59.422,
          "velocity": 1
        },
        {
          "duration": 0.14399999999999835,
          "durationTicks": 144,
          "midi": 76,
          "name": "E5",
          "ticks": 60000,
          "time": 60,
          "velocity": 1
        },
        {
          "duration": 0.14399999999999835,
          "durationTicks": 144,
          "midi": 81,
          "name": "A5",
          "ticks": 60072,
          "time": 60.072,
          "velocity": 1
        },
        {
          "duration": 1.2979999999999947,
          "durationTicks": 1298,
          "midi": 83,
          "name": "B5",
          "ticks": 60144,
          "time": 60.144,
          "velocity": 1
        },
        {
          "duration": 0.2879999999999967,
          "durationTicks": 288,
          "midi": 81,
          "name": "A5",
          "ticks": 61442,
          "time": 61.44199999999999,
          "velocity": 1
        },
        {
          "duration": 0.2880000000000109,
          "durationTicks": 288,
          "midi": 77,
          "name": "F5",
          "ticks": 61730,
          "time": 61.72999999999999,
          "velocity": 1
        },
        {
          "duration": 0.2880000000000038,
          "durationTicks": 288,
          "midi": 76,
          "name": "E5",
          "ticks": 62018,
          "time": 62.018,
          "velocity": 1
        },
        {
          "duration": 0.14399999999999125,
          "durationTicks": 144,
          "midi": 76,
          "name": "E5",
          "ticks": 62306,
          "time": 62.306000000000004,
          "velocity": 1
        },
        {
          "duration": 0.14399999999999125,
          "durationTicks": 144,
          "midi": 81,
          "name": "A5",
          "ticks": 62378,
          "time": 62.37800000000001,
          "velocity": 1
        },
        {
          "duration": 1.2980000000000018,
          "durationTicks": 1298,
          "midi": 83,
          "name": "B5",
          "ticks": 62450,
          "time": 62.449999999999996,
          "velocity": 1
        },
        {
          "duration": 0.14400000000000546,
          "durationTicks": 144,
          "midi": 83,
          "name": "B5",
          "ticks": 63750,
          "time": 63.75,
          "velocity": 1
        },
        {
          "duration": 0.14399999999999125,
          "durationTicks": 144,
          "midi": 84,
          "name": "C6",
          "ticks": 63894,
          "time": 63.894000000000005,
          "velocity": 1
        },
        {
          "duration": 0.14400000000000546,
          "durationTicks": 144,
          "midi": 83,
          "name": "B5",
          "ticks": 64038,
          "time": 64.038,
          "velocity": 1
        },
        {
          "duration": 0.14399999999999125,
          "durationTicks": 144,
          "midi": 84,
          "name": "C6",
          "ticks": 64182,
          "time": 64.182,
          "velocity": 1
        },
        {
          "duration": 0.14400000000000546,
          "durationTicks": 144,
          "midi": 83,
          "name": "B5",
          "ticks": 64326,
          "time": 64.326,
          "velocity": 1
        },
        {
          "duration": 0.14399999999999125,
          "durationTicks": 144,
          "midi": 76,
          "name": "E5",
          "ticks": 92306,
          "time": 92.306,
          "velocity": 1
        },
        {
          "duration": 0.14399999999999125,
          "durationTicks": 144,
          "midi": 81,
          "name": "A5",
          "ticks": 92378,
          "time": 92.378,
          "velocity": 1
        },
        {
          "duration": 1.298000000000016,
          "durationTicks": 1298,
          "midi": 83,
          "name": "B5",
          "ticks": 92450,
          "time": 92.44999999999999,
          "velocity": 1
        },
        {
          "duration": 0.2879999999999967,
          "durationTicks": 288,
          "midi": 81,
          "name": "A5",
          "ticks": 93750,
          "time": 93.75,
          "velocity": 1
        },
        {
          "duration": 0.2879999999999967,
          "durationTicks": 288,
          "midi": 77,
          "name": "F5",
          "ticks": 94038,
          "time": 94.038,
          "velocity": 1
        },
        {
          "duration": 0.2880000000000109,
          "durationTicks": 288,
          "midi": 76,
          "name": "E5",
          "ticks": 94326,
          "time": 94.326,
          "velocity": 1
        },
        {
          "duration": 0.14399999999999125,
          "durationTicks": 144,
          "midi": 76,
          "name": "E5",
          "ticks": 94614,
          "time": 94.614,
          "velocity": 1
        },
        {
          "duration": 0.14400000000000546,
          "durationTicks": 144,
          "midi": 81,
          "name": "A5",
          "ticks": 94686,
          "time": 94.68599999999999,
          "velocity": 1
        },
        {
          "duration": 1.2980000000000018,
          "durationTicks": 1298,
          "midi": 83,
          "name": "B5",
          "ticks": 94758,
          "time": 94.758,
          "velocity": 1
        },
        {
          "duration": 0.14399999999999125,
          "durationTicks": 144,
          "midi": 83,
          "name": "B5",
          "ticks": 96056,
          "time": 96.056,
          "velocity": 1
        },
        {
          "duration": 0.14400000000000546,
          "durationTicks": 144,
          "midi": 84,
          "name": "C6",
          "ticks": 96200,
          "time": 96.19999999999999,
          "velocity": 1
        },
        {
          "duration": 0.2879999999999967,
          "durationTicks": 288,
          "midi": 83,
          "name": "B5",
          "ticks": 96346,
          "time": 96.34599999999999,
          "velocity": 1
        },
        {
          "duration": 0.14400000000000546,
          "durationTicks": 144,
          "midi": 76,
          "name": "E5",
          "ticks": 96922,
          "time": 96.922,
          "velocity": 1
        },
        {
          "duration": 0.14400000000000546,
          "durationTicks": 144,
          "midi": 81,
          "name": "A5",
          "ticks": 96994,
          "time": 96.994,
          "velocity": 1
        },
        {
          "duration": 1.2980000000000018,
          "durationTicks": 1298,
          "midi": 83,
          "name": "B5",
          "ticks": 97066,
          "time": 97.066,
          "velocity": 1
        },
        {
          "duration": 0.2879999999999967,
          "durationTicks": 288,
          "midi": 81,
          "name": "A5",
          "ticks": 98364,
          "time": 98.364,
          "velocity": 1
        },
        {
          "duration": 0.2879999999999967,
          "durationTicks": 288,
          "midi": 77,
          "name": "F5",
          "ticks": 98652,
          "time": 98.652,
          "velocity": 1
        },
        {
          "duration": 0.2879999999999967,
          "durationTicks": 288,
          "midi": 76,
          "name": "E5",
          "ticks": 98942,
          "time": 98.942,
          "velocity": 1
        },
        {
          "duration": 0.14400000000000546,
          "durationTicks": 144,
          "midi": 76,
          "name": "E5",
          "ticks": 99230,
          "time": 99.22999999999999,
          "velocity": 1
        },
        {
          "duration": 0.14400000000000546,
          "durationTicks": 144,
          "midi": 81,
          "name": "A5",
          "ticks": 99302,
          "time": 99.30199999999999,
          "velocity": 1
        },
        {
          "duration": 1.2979999999999876,
          "durationTicks": 1298,
          "midi": 83,
          "name": "B5",
          "ticks": 99374,
          "time": 99.374,
          "velocity": 1
        },
        {
          "duration": 0.14400000000000546,
          "durationTicks": 144,
          "midi": 83,
          "name": "B5",
          "ticks": 100672,
          "time": 100.67199999999998,
          "velocity": 1
        },
        {
          "duration": 0.14400000000000546,
          "durationTicks": 144,
          "midi": 84,
          "name": "C6",
          "ticks": 100816,
          "time": 100.81599999999999,
          "velocity": 1
        },
        {
          "duration": 0.14400000000000546,
          "durationTicks": 144,
          "midi": 83,
          "name": "B5",
          "ticks": 100960,
          "time": 100.96,
          "velocity": 1
        },
        {
          "duration": 0.14400000000000546,
          "durationTicks": 144,
          "midi": 84,
          "name": "C6",
          "ticks": 101104,
          "time": 101.104,
          "velocity": 1
        },
        {
          "duration": 0.14400000000000546,
          "durationTicks": 144,
          "midi": 83,
          "name": "B5",
          "ticks": 101250,
          "time": 101.25,
          "velocity": 1
        },
        {
          "duration": 0.14400000000000546,
          "durationTicks": 144,
          "midi": 76,
          "name": "E5",
          "ticks": 120000,
          "time": 120,
          "velocity": 1
        },
        {
          "duration": 0.14399999999999125,
          "durationTicks": 144,
          "midi": 81,
          "name": "A5",
          "ticks": 120072,
          "time": 120.072,
          "velocity": 1
        },
        {
          "duration": 1.2979999999999876,
          "durationTicks": 1298,
          "midi": 83,
          "name": "B5",
          "ticks": 120144,
          "time": 120.144,
          "velocity": 1
        },
        {
          "duration": 0.2879999999999967,
          "durationTicks": 288,
          "midi": 81,
          "name": "A5",
          "ticks": 121442,
          "time": 121.442,
          "velocity": 1
        },
        {
          "duration": 0.2880000000000109,
          "durationTicks": 288,
          "midi": 77,
          "name": "F5",
          "ticks": 121730,
          "time": 121.72999999999999,
          "velocity": 1
        },
        {
          "duration": 0.2879999999999967,
          "durationTicks": 288,
          "midi": 76,
          "name": "E5",
          "ticks": 122018,
          "time": 122.018,
          "velocity": 1
        },
        {
          "duration": 0.14399999999999125,
          "durationTicks": 144,
          "midi": 76,
          "name": "E5",
          "ticks": 122306,
          "time": 122.306,
          "velocity": 1
        },
        {
          "duration": 0.14399999999999125,
          "durationTicks": 144,
          "midi": 81,
          "name": "A5",
          "ticks": 122378,
          "time": 122.378,
          "velocity": 1
        },
        {
          "duration": 1.2980000000000018,
          "durationTicks": 1298,
          "midi": 83,
          "name": "B5",
          "ticks": 122450,
          "time": 122.44999999999999,
          "velocity": 1
        },
        {
          "duration": 0.14400000000000546,
          "durationTicks": 144,
          "midi": 83,
          "name": "B5",
          "ticks": 123750,
          "time": 123.75,
          "velocity": 1
        },
        {
          "duration": 0.14400000000000546,
          "durationTicks": 144,
          "midi": 84,
          "name": "C6",
          "ticks": 123894,
          "time": 123.894,
          "velocity": 1
        },
        {
          "duration": 0.2879999999999825,
          "durationTicks": 288,
          "midi": 83,
          "name": "B5",
          "ticks": 124038,
          "time": 124.03800000000001,
          "velocity": 1
        },
        {
          "duration": 0.14400000000000546,
          "durationTicks": 144,
          "midi": 76,
          "name": "E5",
          "ticks": 124614,
          "time": 124.614,
          "velocity": 1
        },
        {
          "duration": 0.14400000000000546,
          "durationTicks": 144,
          "midi": 81,
          "name": "A5",
          "ticks": 124686,
          "time": 124.68599999999999,
          "velocity": 1
        },
        {
          "duration": 1.2979999999999876,
          "durationTicks": 1298,
          "midi": 83,
          "name": "B5",
          "ticks": 124758,
          "time": 124.75800000000001,
          "velocity": 1
        },
        {
          "duration": 0.2879999999999825,
          "durationTicks": 288,
          "midi": 81,
          "name": "A5",
          "ticks": 126056,
          "time": 126.056,
          "velocity": 1
        },
        {
          "duration": 0.2879999999999825,
          "durationTicks": 288,
          "midi": 77,
          "name": "F5",
          "ticks": 126346,
          "time": 126.346,
          "velocity": 1
        },
        {
          "duration": 0.2880000000000109,
          "durationTicks": 288,
          "midi": 76,
          "name": "E5",
          "ticks": 126634,
          "time": 126.63399999999999,
          "velocity": 1
        },
        {
          "duration": 0.14400000000000546,
          "durationTicks": 144,
          "midi": 76,
          "name": "E5",
          "ticks": 126922,
          "time": 126.922,
          "velocity": 1
        },
        {
          "duration": 0.14400000000000546,
          "durationTicks": 144,
          "midi": 81,
          "name": "A5",
          "ticks": 126994,
          "time": 126.99399999999999,
          "velocity": 1
        },
        {
          "duration": 1.2980000000000018,
          "durationTicks": 1298,
          "midi": 83,
          "name": "B5",
          "ticks": 127066,
          "time": 127.066,
          "velocity": 1
        },
        {
          "duration": 0.14400000000000546,
          "durationTicks": 144,
          "midi": 83,
          "name": "B5",
          "ticks": 128364,
          "time": 128.364,
          "velocity": 1
        },
        {
          "duration": 0.14399999999997704,
          "durationTicks": 144,
          "midi": 84,
          "name": "C6",
          "ticks": 128508,
          "time": 128.508,
          "velocity": 1
        },
        {
          "duration": 0.14400000000000546,
          "durationTicks": 144,
          "midi": 83,
          "name": "B5",
          "ticks": 128652,
          "time": 128.652,
          "velocity": 1
        },
        {
          "duration": 0.14400000000000546,
          "durationTicks": 144,
          "midi": 84,
          "name": "C6",
          "ticks": 128798,
          "time": 128.798,
          "velocity": 1
        },
        {
          "duration": 0.14400000000000546,
          "durationTicks": 144,
          "midi": 83,
          "name": "B5",
          "ticks": 128942,
          "time": 128.942,
          "velocity": 1
        },
        {
          "duration": 0.14399999999997704,
          "durationTicks": 144,
          "midi": 76,
          "name": "E5",
          "ticks": 129230,
          "time": 129.23000000000002,
          "velocity": 1
        },
        {
          "duration": 0.14400000000000546,
          "durationTicks": 144,
          "midi": 81,
          "name": "A5",
          "ticks": 129302,
          "time": 129.302,
          "velocity": 1
        },
        {
          "duration": 1.2980000000000018,
          "durationTicks": 1298,
          "midi": 83,
          "name": "B5",
          "ticks": 129374,
          "time": 129.374,
          "velocity": 1
        },
        {
          "duration": 0.2879999999999825,
          "durationTicks": 288,
          "midi": 81,
          "name": "A5",
          "ticks": 130672,
          "time": 130.672,
          "velocity": 1
        },
        {
          "duration": 0.2880000000000109,
          "durationTicks": 288,
          "midi": 77,
          "name": "F5",
          "ticks": 130960,
          "time": 130.95999999999998,
          "velocity": 1
        },
        {
          "duration": 0.2880000000000109,
          "durationTicks": 288,
          "midi": 76,
          "name": "E5",
          "ticks": 131250,
          "time": 131.25,
          "velocity": 1
        },
        {
          "duration": 0.14399999999997704,
          "durationTicks": 144,
          "midi": 76,
          "name": "E5",
          "ticks": 131538,
          "time": 131.538,
          "velocity": 1
        },
        {
          "duration": 0.14400000000000546,
          "durationTicks": 144,
          "midi": 81,
          "name": "A5",
          "ticks": 131610,
          "time": 131.60999999999999,
          "velocity": 1
        },
        {
          "duration": 1.2980000000000302,
          "durationTicks": 1298,
          "midi": 83,
          "name": "B5",
          "ticks": 131682,
          "time": 131.682,
          "velocity": 1
        },
        {
          "duration": 0.14399999999997704,
          "durationTicks": 144,
          "midi": 83,
          "name": "B5",
          "ticks": 132980,
          "time": 132.98000000000002,
          "velocity": 1
        },
        {
          "duration": 0.14400000000000546,
          "durationTicks": 144,
          "midi": 84,
          "name": "C6",
          "ticks": 133124,
          "time": 133.124,
          "velocity": 1
        },
        {
          "duration": 0.2880000000000109,
          "durationTicks": 288,
          "midi": 83,
          "name": "B5",
          "ticks": 133268,
          "time": 133.268,
          "velocity": 1
        },
        {
          "duration": 0.14399999999997704,
          "durationTicks": 144,
          "midi": 76,
          "name": "E5",
          "ticks": 133846,
          "time": 133.846,
          "velocity": 1
        },
        {
          "duration": 0.14400000000000546,
          "durationTicks": 144,
          "midi": 81,
          "name": "A5",
          "ticks": 133918,
          "time": 133.918,
          "velocity": 1
        },
        {
          "duration": 1.2980000000000302,
          "durationTicks": 1298,
          "midi": 83,
          "name": "B5",
          "ticks": 133990,
          "time": 133.98999999999998,
          "velocity": 1
        },
        {
          "duration": 0.2879999999999825,
          "durationTicks": 288,
          "midi": 81,
          "name": "A5",
          "ticks": 135288,
          "time": 135.288,
          "velocity": 1
        },
        {
          "duration": 0.2880000000000109,
          "durationTicks": 288,
          "midi": 77,
          "name": "F5",
          "ticks": 135576,
          "time": 135.576,
          "velocity": 1
        },
        {
          "duration": 0.2879999999999825,
          "durationTicks": 288,
          "midi": 76,
          "name": "E5",
          "ticks": 135864,
          "time": 135.864,
          "velocity": 1
        },
        {
          "duration": 0.14400000000000546,
          "durationTicks": 144,
          "midi": 76,
          "name": "E5",
          "ticks": 136152,
          "time": 136.152,
          "velocity": 1
        },
        {
          "duration": 0.14400000000000546,
          "durationTicks": 144,
          "midi": 81,
          "name": "A5",
          "ticks": 136224,
          "time": 136.224,
          "velocity": 1
        },
        {
          "duration": 1.2980000000000018,
          "durationTicks": 1298,
          "midi": 83,
          "name": "B5",
          "ticks": 136298,
          "time": 136.298,
          "velocity": 1
        },
        {
          "duration": 0.14399999999997704,
          "durationTicks": 144,
          "midi": 83,
          "name": "B5",
          "ticks": 137596,
          "time": 137.596,
          "velocity": 1
        },
        {
          "duration": 0.14400000000000546,
          "durationTicks": 144,
          "midi": 84,
          "name": "C6",
          "ticks": 137740,
          "time": 137.73999999999998,
          "velocity": 1
        },
        {
          "duration": 0.14400000000000546,
          "durationTicks": 144,
          "midi": 83,
          "name": "B5",
          "ticks": 137884,
          "time": 137.884,
          "velocity": 1
        },
        {
          "duration": 0.14400000000000546,
          "durationTicks": 144,
          "midi": 84,
          "name": "C6",
          "ticks": 138028,
          "time": 138.028,
          "velocity": 1
        },
        {
          "duration": 0.07200000000000273,
          "durationTicks": 72,
          "midi": 83,
          "name": "B5",
          "ticks": 138172,
          "time": 138.172,
          "velocity": 1
        },
        {
          "duration": 0.14400000000000546,
          "durationTicks": 144,
          "midi": 77,
          "name": "F5",
          "ticks": 138460,
          "time": 138.45999999999998,
          "velocity": 1
        },
        {
          "duration": 0.14400000000000546,
          "durationTicks": 144,
          "midi": 82,
          "name": "A#5",
          "ticks": 138532,
          "time": 138.532,
          "velocity": 1
        },
        {
          "duration": 1.2980000000000018,
          "durationTicks": 1298,
          "midi": 84,
          "name": "C6",
          "ticks": 138604,
          "time": 138.60399999999998,
          "velocity": 1
        },
        {
          "duration": 0.2880000000000109,
          "durationTicks": 288,
          "midi": 82,
          "name": "A#5",
          "ticks": 139902,
          "time": 139.902,
          "velocity": 1
        },
        {
          "duration": 0.2880000000000109,
          "durationTicks": 288,
          "midi": 78,
          "name": "F#5",
          "ticks": 140192,
          "time": 140.19199999999998,
          "velocity": 1
        },
        {
          "duration": 0.2880000000000109,
          "durationTicks": 288,
          "midi": 77,
          "name": "F5",
          "ticks": 140480,
          "time": 140.48,
          "velocity": 1
        },
        {
          "duration": 0.14400000000000546,
          "durationTicks": 144,
          "midi": 77,
          "name": "F5",
          "ticks": 140768,
          "time": 140.768,
          "velocity": 1
        },
        {
          "duration": 0.14399999999997704,
          "durationTicks": 144,
          "midi": 82,
          "name": "A#5",
          "ticks": 140840,
          "time": 140.84,
          "velocity": 1
        },
        {
          "duration": 1.2979999999999734,
          "durationTicks": 1298,
          "midi": 84,
          "name": "C6",
          "ticks": 140912,
          "time": 140.912,
          "velocity": 1
        },
        {
          "duration": 0.14400000000000546,
          "durationTicks": 144,
          "midi": 84,
          "name": "C6",
          "ticks": 142210,
          "time": 142.20999999999998,
          "velocity": 1
        },
        {
          "duration": 0.14400000000000546,
          "durationTicks": 144,
          "midi": 85,
          "name": "C#6",
          "ticks": 142354,
          "time": 142.35399999999998,
          "velocity": 1
        },
        {
          "duration": 0.2880000000000109,
          "durationTicks": 288,
          "midi": 84,
          "name": "C6",
          "ticks": 142500,
          "time": 142.5,
          "velocity": 1
        },
        {
          "duration": 0.14400000000000546,
          "durationTicks": 144,
          "midi": 77,
          "name": "F5",
          "ticks": 143076,
          "time": 143.076,
          "velocity": 1
        },
        {
          "duration": 0.14399999999997704,
          "durationTicks": 144,
          "midi": 82,
          "name": "A#5",
          "ticks": 143148,
          "time": 143.148,
          "velocity": 1
        },
        {
          "duration": 1.2980000000000018,
          "durationTicks": 1298,
          "midi": 84,
          "name": "C6",
          "ticks": 143220,
          "time": 143.22,
          "velocity": 1
        },
        {
          "duration": 0.2880000000000109,
          "durationTicks": 288,
          "midi": 82,
          "name": "A#5",
          "ticks": 144518,
          "time": 144.518,
          "velocity": 1
        },
        {
          "duration": 0.2879999999999825,
          "durationTicks": 288,
          "midi": 78,
          "name": "F#5",
          "ticks": 144806,
          "time": 144.806,
          "velocity": 1
        },
        {
          "duration": 0.2879999999999825,
          "durationTicks": 288,
          "midi": 77,
          "name": "F5",
          "ticks": 145096,
          "time": 145.096,
          "velocity": 1
        },
        {
          "duration": 0.14400000000000546,
          "durationTicks": 144,
          "midi": 77,
          "name": "F5",
          "ticks": 145384,
          "time": 145.384,
          "velocity": 1
        },
        {
          "duration": 0.14399999999997704,
          "durationTicks": 144,
          "midi": 82,
          "name": "A#5",
          "ticks": 145456,
          "time": 145.45600000000002,
          "velocity": 1
        },
        {
          "duration": 1.2980000000000018,
          "durationTicks": 1298,
          "midi": 84,
          "name": "C6",
          "ticks": 145528,
          "time": 145.528,
          "velocity": 1
        },
        {
          "duration": 0.14400000000000546,
          "durationTicks": 144,
          "midi": 84,
          "name": "C6",
          "ticks": 146826,
          "time": 146.826,
          "velocity": 1
        },
        {
          "duration": 0.14400000000000546,
          "durationTicks": 144,
          "midi": 85,
          "name": "C#6",
          "ticks": 146970,
          "time": 146.97,
          "velocity": 1
        },
        {
          "duration": 0.14400000000000546,
          "durationTicks": 144,
          "midi": 84,
          "name": "C6",
          "ticks": 147114,
          "time": 147.114,
          "velocity": 1
        },
        {
          "duration": 0.14399999999997704,
          "durationTicks": 144,
          "midi": 85,
          "name": "C#6",
          "ticks": 147258,
          "time": 147.258,
          "velocity": 1
        },
        {
          "duration": 0.14400000000000546,
          "durationTicks": 144,
          "midi": 84,
          "name": "C6",
          "ticks": 147402,
          "time": 147.402,
          "velocity": 1
        },
        {
          "duration": 0.14400000000000546,
          "durationTicks": 144,
          "midi": 77,
          "name": "F5",
          "ticks": 147692,
          "time": 147.69199999999998,
          "velocity": 1
        },
        {
          "duration": 0.14400000000000546,
          "durationTicks": 144,
          "midi": 82,
          "name": "A#5",
          "ticks": 147764,
          "time": 147.76399999999998,
          "velocity": 1
        },
        {
          "duration": 1.2980000000000018,
          "durationTicks": 1298,
          "midi": 84,
          "name": "C6",
          "ticks": 147836,
          "time": 147.83599999999998,
          "velocity": 1
        },
        {
          "duration": 0.2880000000000109,
          "durationTicks": 288,
          "midi": 82,
          "name": "A#5",
          "ticks": 149134,
          "time": 149.134,
          "velocity": 1
        },
        {
          "duration": 0.2879999999999825,
          "durationTicks": 288,
          "midi": 78,
          "name": "F#5",
          "ticks": 149422,
          "time": 149.422,
          "velocity": 1
        },
        {
          "duration": 0.2880000000000109,
          "durationTicks": 288,
          "midi": 77,
          "name": "F5",
          "ticks": 149710,
          "time": 149.70999999999998,
          "velocity": 1
        },
        {
          "duration": 0.14400000000000546,
          "durationTicks": 144,
          "midi": 77,
          "name": "F5",
          "ticks": 150000,
          "time": 150,
          "velocity": 1
        },
        {
          "duration": 0.14400000000000546,
          "durationTicks": 144,
          "midi": 82,
          "name": "A#5",
          "ticks": 150072,
          "time": 150.07199999999997,
          "velocity": 1
        },
        {
          "duration": 1.2979999999999734,
          "durationTicks": 1298,
          "midi": 84,
          "name": "C6",
          "ticks": 150144,
          "time": 150.144,
          "velocity": 1
        },
        {
          "duration": 0.14400000000000546,
          "durationTicks": 144,
          "midi": 84,
          "name": "C6",
          "ticks": 151442,
          "time": 151.44199999999998,
          "velocity": 1
        },
        {
          "duration": 0.14400000000000546,
          "durationTicks": 144,
          "midi": 85,
          "name": "C#6",
          "ticks": 151586,
          "time": 151.58599999999998,
          "velocity": 1
        },
        {
          "duration": 0.2880000000000109,
          "durationTicks": 288,
          "midi": 84,
          "name": "C6",
          "ticks": 151730,
          "time": 151.73,
          "velocity": 1
        },
        {
          "duration": 0.14400000000000546,
          "durationTicks": 144,
          "midi": 77,
          "name": "F5",
          "ticks": 152306,
          "time": 152.306,
          "velocity": 1
        },
        {
          "duration": 0.14400000000000546,
          "durationTicks": 144,
          "midi": 82,
          "name": "A#5",
          "ticks": 152378,
          "time": 152.378,
          "velocity": 1
        },
        {
          "duration": 1.2979999999999734,
          "durationTicks": 1298,
          "midi": 84,
          "name": "C6",
          "ticks": 152450,
          "time": 152.45000000000002,
          "velocity": 1
        },
        {
          "duration": 0.2880000000000109,
          "durationTicks": 288,
          "midi": 82,
          "name": "A#5",
          "ticks": 153750,
          "time": 153.75,
          "velocity": 1
        },
        {
          "duration": 0.2879999999999825,
          "durationTicks": 288,
          "midi": 78,
          "name": "F#5",
          "ticks": 154038,
          "time": 154.038,
          "velocity": 1
        },
        {
          "duration": 0.2880000000000109,
          "durationTicks": 288,
          "midi": 77,
          "name": "F5",
          "ticks": 154326,
          "time": 154.326,
          "velocity": 1
        },
        {
          "duration": 0.14400000000000546,
          "durationTicks": 144,
          "midi": 77,
          "name": "F5",
          "ticks": 154614,
          "time": 154.614,
          "velocity": 1
        },
        {
          "duration": 0.14400000000000546,
          "durationTicks": 144,
          "midi": 82,
          "name": "A#5",
          "ticks": 154686,
          "time": 154.68599999999998,
          "velocity": 1
        },
        {
          "duration": 1.2980000000000018,
          "durationTicks": 1298,
          "midi": 84,
          "name": "C6",
          "ticks": 154758,
          "time": 154.758,
          "velocity": 1
        },
        {
          "duration": 0.14400000000000546,
          "durationTicks": 144,
          "midi": 84,
          "name": "C6",
          "ticks": 156056,
          "time": 156.056,
          "velocity": 1
        },
        {
          "duration": 0.14399999999997704,
          "durationTicks": 144,
          "midi": 85,
          "name": "C#6",
          "ticks": 156200,
          "time": 156.20000000000002,
          "velocity": 1
        },
        {
          "duration": 0.14399999999997704,
          "durationTicks": 144,
          "midi": 84,
          "name": "C6",
          "ticks": 156346,
          "time": 156.346,
          "velocity": 1
        },
        {
          "duration": 0.14400000000000546,
          "durationTicks": 144,
          "midi": 85,
          "name": "C#6",
          "ticks": 156490,
          "time": 156.48999999999998,
          "velocity": 1
        }
      ]
    },
    {
      "channel": 0,
      "controlChanges": {},
      "pitchBends": [],
      "instrument": {
        "family": "piano",
        "number": 0,
        "name": "acoustic grand piano"
      },
      "name": "忍者_爱给网_aigei_com",
      "notes": [],
      "endOfTrackTicks": 157440
    },
    {
      "channel": 0,
      "controlChanges": {
        "7": [
          {
            "number": 7,
            "ticks": 0,
            "time": 0,
            "value": 1
          },
          {
            "number": 7,
            "ticks": 0,
            "time": 0,
            "value": 1
          },
          {
            "number": 7,
            "ticks": 0,
            "time": 0,
            "value": 1
          },
          {
            "number": 7,
            "ticks": 157440,
            "time": 157.44,
            "value": 1
          },
          {
            "number": 7,
            "ticks": 157440,
            "time": 157.44,
            "value": 1
          }
        ],
        "10": [
          {
            "number": 10,
            "ticks": 0,
            "time": 0,
            "value": 0.7401574803149606
          },
          {
            "number": 10,
            "ticks": 157440,
            "time": 157.44,
            "value": 0.7401574803149606
          }
        ]
      },
      "pitchBends": [],
      "instrument": {
        "family": "organ",
        "number": 16,
        "name": "drawbar organ"
      },
      "name": "",
      "notes": [
        {
          "duration": 0.575999999999997,
          "durationTicks": 576,
          "midi": 71,
          "name": "B4",
          "ticks": 18460,
          "time": 18.46,
          "velocity": 1
        },
        {
          "duration": 0.575999999999997,
          "durationTicks": 576,
          "midi": 69,
          "name": "A4",
          "ticks": 19038,
          "time": 19.038,
          "velocity": 1
        },
        {
          "duration": 0.5760000000000005,
          "durationTicks": 576,
          "midi": 71,
          "name": "B4",
          "ticks": 19614,
          "time": 19.613999999999997,
          "velocity": 1
        },
        {
          "duration": 0.575999999999997,
          "durationTicks": 576,
          "midi": 74,
          "name": "D5",
          "ticks": 20192,
          "time": 20.192,
          "velocity": 1
        },
        {
          "duration": 0.5760000000000041,
          "durationTicks": 576,
          "midi": 71,
          "name": "B4",
          "ticks": 20768,
          "time": 20.767999999999997,
          "velocity": 1
        },
        {
          "duration": 0.5760000000000041,
          "durationTicks": 576,
          "midi": 69,
          "name": "A4",
          "ticks": 21346,
          "time": 21.345999999999997,
          "velocity": 1
        },
        {
          "duration": 0.575999999999997,
          "durationTicks": 576,
          "midi": 71,
          "name": "B4",
          "ticks": 21922,
          "time": 21.922,
          "velocity": 1
        },
        {
          "duration": 0.5760000000000005,
          "durationTicks": 576,
          "midi": 65,
          "name": "F4",
          "ticks": 22500,
          "time": 22.5,
          "velocity": 1
        },
        {
          "duration": 0.575999999999997,
          "durationTicks": 576,
          "midi": 71,
          "name": "B4",
          "ticks": 23076,
          "time": 23.076,
          "velocity": 1
        },
        {
          "duration": 0.5760000000000041,
          "durationTicks": 576,
          "midi": 69,
          "name": "A4",
          "ticks": 23652,
          "time": 23.651999999999997,
          "velocity": 1
        },
        {
          "duration": 0.5760000000000041,
          "durationTicks": 576,
          "midi": 71,
          "name": "B4",
          "ticks": 24230,
          "time": 24.229999999999997,
          "velocity": 1
        },
        {
          "duration": 0.5760000000000005,
          "durationTicks": 576,
          "midi": 74,
          "name": "D5",
          "ticks": 24806,
          "time": 24.806,
          "velocity": 1
        },
        {
          "duration": 0.5760000000000005,
          "durationTicks": 576,
          "midi": 71,
          "name": "B4",
          "ticks": 25384,
          "time": 25.384,
          "velocity": 1
        },
        {
          "duration": 0.575999999999997,
          "durationTicks": 576,
          "midi": 69,
          "name": "A4",
          "ticks": 25960,
          "time": 25.96,
          "velocity": 1
        },
        {
          "duration": 0.575999999999997,
          "durationTicks": 576,
          "midi": 71,
          "name": "B4",
          "ticks": 26538,
          "time": 26.538,
          "velocity": 1
        },
        {
          "duration": 0.1440000000000019,
          "durationTicks": 144,
          "midi": 71,
          "name": "B4",
          "ticks": 27114,
          "time": 27.113999999999997,
          "velocity": 1
        },
        {
          "duration": 0.14399999999999835,
          "durationTicks": 144,
          "midi": 72,
          "name": "C5",
          "ticks": 27258,
          "time": 27.258,
          "velocity": 1
        },
        {
          "duration": 0.28800000000000026,
          "durationTicks": 288,
          "midi": 71,
          "name": "B4",
          "ticks": 27402,
          "time": 27.401999999999997,
          "velocity": 1
        },
        {
          "duration": 0.14399999999999835,
          "durationTicks": 144,
          "midi": 71,
          "name": "B4",
          "ticks": 27692,
          "time": 27.692,
          "velocity": 1
        },
        {
          "duration": 0.575999999999997,
          "durationTicks": 576,
          "midi": 76,
          "name": "E5",
          "ticks": 27764,
          "time": 27.764,
          "velocity": 1
        },
        {
          "duration": 0.14399999999999835,
          "durationTicks": 144,
          "midi": 71,
          "name": "B4",
          "ticks": 30000,
          "time": 30,
          "velocity": 1
        },
        {
          "duration": 0.5760000000000005,
          "durationTicks": 576,
          "midi": 77,
          "name": "F5",
          "ticks": 30072,
          "time": 30.072,
          "velocity": 1
        },
        {
          "duration": 0.14400000000000546,
          "durationTicks": 144,
          "midi": 69,
          "name": "A4",
          "ticks": 32306,
          "time": 32.306,
          "velocity": 1
        },
        {
          "duration": 0.5760000000000005,
          "durationTicks": 576,
          "midi": 74,
          "name": "D5",
          "ticks": 32378,
          "time": 32.378,
          "velocity": 1
        },
        {
          "duration": 0.14399999999999835,
          "durationTicks": 144,
          "midi": 71,
          "name": "B4",
          "ticks": 34614,
          "time": 34.614,
          "velocity": 1
        },
        {
          "duration": 0.5760000000000005,
          "durationTicks": 576,
          "midi": 77,
          "name": "F5",
          "ticks": 34686,
          "time": 34.686,
          "velocity": 1
        },
        {
          "duration": 0.5759999999999934,
          "durationTicks": 576,
          "midi": 71,
          "name": "B4",
          "ticks": 46152,
          "time": 46.152,
          "velocity": 1
        },
        {
          "duration": 0.5759999999999934,
          "durationTicks": 576,
          "midi": 69,
          "name": "A4",
          "ticks": 46730,
          "time": 46.730000000000004,
          "velocity": 1
        },
        {
          "duration": 0.5760000000000005,
          "durationTicks": 576,
          "midi": 71,
          "name": "B4",
          "ticks": 47306,
          "time": 47.306,
          "velocity": 1
        },
        {
          "duration": 0.5759999999999934,
          "durationTicks": 576,
          "midi": 74,
          "name": "D5",
          "ticks": 47884,
          "time": 47.884,
          "velocity": 1
        },
        {
          "duration": 0.5760000000000005,
          "durationTicks": 576,
          "midi": 71,
          "name": "B4",
          "ticks": 48460,
          "time": 48.459999999999994,
          "velocity": 1
        },
        {
          "duration": 0.5760000000000005,
          "durationTicks": 576,
          "midi": 69,
          "name": "A4",
          "ticks": 49038,
          "time": 49.038,
          "velocity": 1
        },
        {
          "duration": 0.5760000000000005,
          "durationTicks": 576,
          "midi": 71,
          "name": "B4",
          "ticks": 49614,
          "time": 49.614,
          "velocity": 1
        },
        {
          "duration": 0.5760000000000076,
          "durationTicks": 576,
          "midi": 65,
          "name": "F4",
          "ticks": 50192,
          "time": 50.19199999999999,
          "velocity": 1
        },
        {
          "duration": 0.5760000000000005,
          "durationTicks": 576,
          "midi": 71,
          "name": "B4",
          "ticks": 50768,
          "time": 50.768,
          "velocity": 1
        },
        {
          "duration": 0.5760000000000005,
          "durationTicks": 576,
          "midi": 69,
          "name": "A4",
          "ticks": 51346,
          "time": 51.346,
          "velocity": 1
        },
        {
          "duration": 0.5760000000000005,
          "durationTicks": 576,
          "midi": 71,
          "name": "B4",
          "ticks": 51922,
          "time": 51.922,
          "velocity": 1
        },
        {
          "duration": 0.5760000000000005,
          "durationTicks": 576,
          "midi": 74,
          "name": "D5",
          "ticks": 52500,
          "time": 52.5,
          "velocity": 1
        },
        {
          "duration": 0.5760000000000005,
          "durationTicks": 576,
          "midi": 71,
          "name": "B4",
          "ticks": 53076,
          "time": 53.076,
          "velocity": 1
        },
        {
          "duration": 0.5759999999999934,
          "durationTicks": 576,
          "midi": 69,
          "name": "A4",
          "ticks": 53652,
          "time": 53.652,
          "velocity": 1
        },
        {
          "duration": 0.5760000000000005,
          "durationTicks": 576,
          "midi": 71,
          "name": "B4",
          "ticks": 54230,
          "time": 54.23,
          "velocity": 1
        },
        {
          "duration": 0.14400000000000546,
          "durationTicks": 144,
          "midi": 71,
          "name": "B4",
          "ticks": 54806,
          "time": 54.806,
          "velocity": 1
        },
        {
          "duration": 0.14399999999999835,
          "durationTicks": 144,
          "midi": 72,
          "name": "C5",
          "ticks": 54950,
          "time": 54.95,
          "velocity": 1
        },
        {
          "duration": 0.2880000000000038,
          "durationTicks": 288,
          "midi": 71,
          "name": "B4",
          "ticks": 55096,
          "time": 55.096,
          "velocity": 1
        },
        {
          "duration": 0.5759999999999934,
          "durationTicks": 576,
          "midi": 71,
          "name": "B4",
          "ticks": 55384,
          "time": 55.384,
          "velocity": 1
        },
        {
          "duration": 0.5760000000000005,
          "durationTicks": 576,
          "midi": 69,
          "name": "A4",
          "ticks": 55960,
          "time": 55.959999999999994,
          "velocity": 1
        },
        {
          "duration": 0.5760000000000005,
          "durationTicks": 576,
          "midi": 71,
          "name": "B4",
          "ticks": 56538,
          "time": 56.538,
          "velocity": 1
        },
        {
          "duration": 0.5760000000000005,
          "durationTicks": 576,
          "midi": 74,
          "name": "D5",
          "ticks": 57114,
          "time": 57.114,
          "velocity": 1
        },
        {
          "duration": 0.5760000000000076,
          "durationTicks": 576,
          "midi": 71,
          "name": "B4",
          "ticks": 57692,
          "time": 57.69199999999999,
          "velocity": 1
        },
        {
          "duration": 0.5760000000000005,
          "durationTicks": 576,
          "midi": 69,
          "name": "A4",
          "ticks": 58268,
          "time": 58.268,
          "velocity": 1
        },
        {
          "duration": 0.5760000000000005,
          "durationTicks": 576,
          "midi": 71,
          "name": "B4",
          "ticks": 58846,
          "time": 58.846,
          "velocity": 1
        },
        {
          "duration": 0.5760000000000005,
          "durationTicks": 576,
          "midi": 65,
          "name": "F4",
          "ticks": 59422,
          "time": 59.422,
          "velocity": 1
        },
        {
          "duration": 0.5760000000000005,
          "durationTicks": 576,
          "midi": 71,
          "name": "B4",
          "ticks": 60000,
          "time": 60,
          "velocity": 1
        },
        {
          "duration": 0.5760000000000005,
          "durationTicks": 576,
          "midi": 69,
          "name": "A4",
          "ticks": 60576,
          "time": 60.576,
          "velocity": 1
        },
        {
          "duration": 0.5759999999999934,
          "durationTicks": 576,
          "midi": 71,
          "name": "B4",
          "ticks": 61152,
          "time": 61.152,
          "velocity": 1
        },
        {
          "duration": 0.5760000000000147,
          "durationTicks": 576,
          "midi": 74,
          "name": "D5",
          "ticks": 61730,
          "time": 61.72999999999999,
          "velocity": 1
        },
        {
          "duration": 0.5759999999999934,
          "durationTicks": 576,
          "midi": 71,
          "name": "B4",
          "ticks": 62306,
          "time": 62.306000000000004,
          "velocity": 1
        },
        {
          "duration": 0.5760000000000076,
          "durationTicks": 576,
          "midi": 69,
          "name": "A4",
          "ticks": 62884,
          "time": 62.88399999999999,
          "velocity": 1
        },
        {
          "duration": 0.5760000000000005,
          "durationTicks": 576,
          "midi": 71,
          "name": "B4",
          "ticks": 63460,
          "time": 63.46,
          "velocity": 1
        },
        {
          "duration": 0.14400000000000546,
          "durationTicks": 144,
          "midi": 71,
          "name": "B4",
          "ticks": 64038,
          "time": 64.038,
          "velocity": 1
        },
        {
          "duration": 0.14399999999999125,
          "durationTicks": 144,
          "midi": 72,
          "name": "C5",
          "ticks": 64182,
          "time": 64.182,
          "velocity": 1
        },
        {
          "duration": 0.2880000000000109,
          "durationTicks": 288,
          "midi": 71,
          "name": "B4",
          "ticks": 64326,
          "time": 64.326,
          "velocity": 1
        },
        {
          "duration": 0.5759999999999934,
          "durationTicks": 576,
          "midi": 71,
          "name": "B4",
          "ticks": 92306,
          "time": 92.306,
          "velocity": 1
        },
        {
          "duration": 0.5760000000000218,
          "durationTicks": 576,
          "midi": 69,
          "name": "A4",
          "ticks": 92884,
          "time": 92.88399999999999,
          "velocity": 1
        },
        {
          "duration": 0.5759999999999934,
          "durationTicks": 576,
          "midi": 71,
          "name": "B4",
          "ticks": 93460,
          "time": 93.46000000000001,
          "velocity": 1
        },
        {
          "duration": 0.5760000000000076,
          "durationTicks": 576,
          "midi": 74,
          "name": "D5",
          "ticks": 94038,
          "time": 94.038,
          "velocity": 1
        },
        {
          "duration": 0.5759999999999934,
          "durationTicks": 576,
          "midi": 71,
          "name": "B4",
          "ticks": 94614,
          "time": 94.614,
          "velocity": 1
        },
        {
          "duration": 0.5760000000000076,
          "durationTicks": 576,
          "midi": 69,
          "name": "A4",
          "ticks": 95192,
          "time": 95.192,
          "velocity": 1
        },
        {
          "duration": 0.5759999999999934,
          "durationTicks": 576,
          "midi": 71,
          "name": "B4",
          "ticks": 95768,
          "time": 95.768,
          "velocity": 1
        },
        {
          "duration": 0.5760000000000076,
          "durationTicks": 576,
          "midi": 65,
          "name": "F4",
          "ticks": 96346,
          "time": 96.34599999999999,
          "velocity": 1
        },
        {
          "duration": 0.5760000000000076,
          "durationTicks": 576,
          "midi": 71,
          "name": "B4",
          "ticks": 96922,
          "time": 96.922,
          "velocity": 1
        },
        {
          "duration": 0.5759999999999934,
          "durationTicks": 576,
          "midi": 69,
          "name": "A4",
          "ticks": 97500,
          "time": 97.5,
          "velocity": 1
        },
        {
          "duration": 0.5760000000000076,
          "durationTicks": 576,
          "midi": 71,
          "name": "B4",
          "ticks": 98076,
          "time": 98.076,
          "velocity": 1
        },
        {
          "duration": 0.5759999999999934,
          "durationTicks": 576,
          "midi": 74,
          "name": "D5",
          "ticks": 98652,
          "time": 98.652,
          "velocity": 1
        },
        {
          "duration": 0.5760000000000076,
          "durationTicks": 576,
          "midi": 71,
          "name": "B4",
          "ticks": 99230,
          "time": 99.22999999999999,
          "velocity": 1
        },
        {
          "duration": 0.5759999999999934,
          "durationTicks": 576,
          "midi": 69,
          "name": "A4",
          "ticks": 99806,
          "time": 99.806,
          "velocity": 1
        },
        {
          "duration": 0.5760000000000076,
          "durationTicks": 576,
          "midi": 71,
          "name": "B4",
          "ticks": 100384,
          "time": 100.38399999999999,
          "velocity": 1
        },
        {
          "duration": 0.14400000000000546,
          "durationTicks": 144,
          "midi": 71,
          "name": "B4",
          "ticks": 100960,
          "time": 100.96,
          "velocity": 1
        },
        {
          "duration": 0.14400000000000546,
          "durationTicks": 144,
          "midi": 72,
          "name": "C5",
          "ticks": 101104,
          "time": 101.104,
          "velocity": 1
        },
        {
          "duration": 0.2879999999999967,
          "durationTicks": 288,
          "midi": 71,
          "name": "B4",
          "ticks": 101250,
          "time": 101.25,
          "velocity": 1
        },
        {
          "duration": 0.14400000000000546,
          "durationTicks": 144,
          "midi": 71,
          "name": "B4",
          "ticks": 101538,
          "time": 101.538,
          "velocity": 1
        },
        {
          "duration": 0.5759999999999934,
          "durationTicks": 576,
          "midi": 76,
          "name": "E5",
          "ticks": 101610,
          "time": 101.61,
          "velocity": 1
        },
        {
          "duration": 0.14400000000000546,
          "durationTicks": 144,
          "midi": 71,
          "name": "B4",
          "ticks": 103846,
          "time": 103.84599999999999,
          "velocity": 1
        },
        {
          "duration": 0.5759999999999934,
          "durationTicks": 576,
          "midi": 77,
          "name": "F5",
          "ticks": 103918,
          "time": 103.91799999999999,
          "velocity": 1
        },
        {
          "duration": 0.14399999999999125,
          "durationTicks": 144,
          "midi": 69,
          "name": "A4",
          "ticks": 106152,
          "time": 106.152,
          "velocity": 1
        },
        {
          "duration": 0.5759999999999934,
          "durationTicks": 576,
          "midi": 74,
          "name": "D5",
          "ticks": 106224,
          "time": 106.224,
          "velocity": 1
        },
        {
          "duration": 0.14400000000000546,
          "durationTicks": 144,
          "midi": 71,
          "name": "B4",
          "ticks": 108460,
          "time": 108.46,
          "velocity": 1
        },
        {
          "duration": 0.5760000000000076,
          "durationTicks": 576,
          "midi": 77,
          "name": "F5",
          "ticks": 108532,
          "time": 108.532,
          "velocity": 1
        },
        {
          "duration": 0.5759999999999934,
          "durationTicks": 576,
          "midi": 71,
          "name": "B4",
          "ticks": 120000,
          "time": 120,
          "velocity": 1
        },
        {
          "duration": 0.5760000000000076,
          "durationTicks": 576,
          "midi": 69,
          "name": "A4",
          "ticks": 120576,
          "time": 120.576,
          "velocity": 1
        },
        {
          "duration": 0.5759999999999934,
          "durationTicks": 576,
          "midi": 71,
          "name": "B4",
          "ticks": 121152,
          "time": 121.152,
          "velocity": 1
        },
        {
          "duration": 0.5760000000000076,
          "durationTicks": 576,
          "midi": 74,
          "name": "D5",
          "ticks": 121730,
          "time": 121.72999999999999,
          "velocity": 1
        },
        {
          "duration": 0.5759999999999934,
          "durationTicks": 576,
          "midi": 71,
          "name": "B4",
          "ticks": 122306,
          "time": 122.306,
          "velocity": 1
        },
        {
          "duration": 0.5759999999999934,
          "durationTicks": 576,
          "midi": 69,
          "name": "A4",
          "ticks": 122884,
          "time": 122.88399999999999,
          "velocity": 1
        },
        {
          "duration": 0.5760000000000218,
          "durationTicks": 576,
          "midi": 71,
          "name": "B4",
          "ticks": 123460,
          "time": 123.45999999999998,
          "velocity": 1
        },
        {
          "duration": 0.5759999999999934,
          "durationTicks": 576,
          "midi": 65,
          "name": "F4",
          "ticks": 124038,
          "time": 124.03800000000001,
          "velocity": 1
        },
        {
          "duration": 0.5759999999999934,
          "durationTicks": 576,
          "midi": 71,
          "name": "B4",
          "ticks": 124614,
          "time": 124.614,
          "velocity": 1
        },
        {
          "duration": 0.5759999999999934,
          "durationTicks": 576,
          "midi": 69,
          "name": "A4",
          "ticks": 125192,
          "time": 125.192,
          "velocity": 1
        },
        {
          "duration": 0.5759999999999934,
          "durationTicks": 576,
          "midi": 71,
          "name": "B4",
          "ticks": 125768,
          "time": 125.76799999999999,
          "velocity": 1
        },
        {
          "duration": 0.5759999999999934,
          "durationTicks": 576,
          "midi": 74,
          "name": "D5",
          "ticks": 126346,
          "time": 126.346,
          "velocity": 1
        },
        {
          "duration": 0.5759999999999934,
          "durationTicks": 576,
          "midi": 71,
          "name": "B4",
          "ticks": 126922,
          "time": 126.922,
          "velocity": 1
        },
        {
          "duration": 0.5759999999999934,
          "durationTicks": 576,
          "midi": 69,
          "name": "A4",
          "ticks": 127500,
          "time": 127.5,
          "velocity": 1
        },
        {
          "duration": 0.5759999999999934,
          "durationTicks": 576,
          "midi": 71,
          "name": "B4",
          "ticks": 128076,
          "time": 128.076,
          "velocity": 1
        },
        {
          "duration": 0.14400000000000546,
          "durationTicks": 144,
          "midi": 71,
          "name": "B4",
          "ticks": 128652,
          "time": 128.652,
          "velocity": 1
        },
        {
          "duration": 0.14400000000000546,
          "durationTicks": 144,
          "midi": 72,
          "name": "C5",
          "ticks": 128798,
          "time": 128.798,
          "velocity": 1
        },
        {
          "duration": 0.2880000000000109,
          "durationTicks": 288,
          "midi": 71,
          "name": "B4",
          "ticks": 128942,
          "time": 128.942,
          "velocity": 1
        },
        {
          "duration": 0.5759999999999934,
          "durationTicks": 576,
          "midi": 71,
          "name": "B4",
          "ticks": 129230,
          "time": 129.23000000000002,
          "velocity": 1
        },
        {
          "duration": 0.5759999999999934,
          "durationTicks": 576,
          "midi": 69,
          "name": "A4",
          "ticks": 129806,
          "time": 129.806,
          "velocity": 1
        },
        {
          "duration": 0.5759999999999934,
          "durationTicks": 576,
          "midi": 71,
          "name": "B4",
          "ticks": 130384,
          "time": 130.384,
          "velocity": 1
        },
        {
          "duration": 0.5760000000000218,
          "durationTicks": 576,
          "midi": 74,
          "name": "D5",
          "ticks": 130960,
          "time": 130.95999999999998,
          "velocity": 1
        },
        {
          "duration": 0.5759999999999934,
          "durationTicks": 576,
          "midi": 71,
          "name": "B4",
          "ticks": 131538,
          "time": 131.538,
          "velocity": 1
        },
        {
          "duration": 0.5759999999999934,
          "durationTicks": 576,
          "midi": 69,
          "name": "A4",
          "ticks": 132114,
          "time": 132.114,
          "velocity": 1
        },
        {
          "duration": 0.5759999999999934,
          "durationTicks": 576,
          "midi": 71,
          "name": "B4",
          "ticks": 132692,
          "time": 132.692,
          "velocity": 1
        },
        {
          "duration": 0.5759999999999934,
          "durationTicks": 576,
          "midi": 65,
          "name": "F4",
          "ticks": 133268,
          "time": 133.268,
          "velocity": 1
        },
        {
          "duration": 0.5759999999999934,
          "durationTicks": 576,
          "midi": 71,
          "name": "B4",
          "ticks": 133846,
          "time": 133.846,
          "velocity": 1
        },
        {
          "duration": 0.5759999999999934,
          "durationTicks": 576,
          "midi": 69,
          "name": "A4",
          "ticks": 134422,
          "time": 134.422,
          "velocity": 1
        },
        {
          "duration": 0.5759999999999934,
          "durationTicks": 576,
          "midi": 71,
          "name": "B4",
          "ticks": 135000,
          "time": 135,
          "velocity": 1
        },
        {
          "duration": 0.5759999999999934,
          "durationTicks": 576,
          "midi": 74,
          "name": "D5",
          "ticks": 135576,
          "time": 135.576,
          "velocity": 1
        },
        {
          "duration": 0.5760000000000218,
          "durationTicks": 576,
          "midi": 71,
          "name": "B4",
          "ticks": 136152,
          "time": 136.152,
          "velocity": 1
        },
        {
          "duration": 0.5759999999999934,
          "durationTicks": 576,
          "midi": 69,
          "name": "A4",
          "ticks": 136730,
          "time": 136.73000000000002,
          "velocity": 1
        },
        {
          "duration": 0.5759999999999934,
          "durationTicks": 576,
          "midi": 71,
          "name": "B4",
          "ticks": 137306,
          "time": 137.306,
          "velocity": 1
        },
        {
          "duration": 0.14400000000000546,
          "durationTicks": 144,
          "midi": 71,
          "name": "B4",
          "ticks": 137884,
          "time": 137.884,
          "velocity": 1
        },
        {
          "duration": 0.14400000000000546,
          "durationTicks": 144,
          "midi": 72,
          "name": "C5",
          "ticks": 138028,
          "time": 138.028,
          "velocity": 1
        },
        {
          "duration": 0.5760000000000218,
          "durationTicks": 576,
          "midi": 72,
          "name": "C5",
          "ticks": 138460,
          "time": 138.45999999999998,
          "velocity": 1
        },
        {
          "duration": 0.5759999999999934,
          "durationTicks": 576,
          "midi": 70,
          "name": "A#4",
          "ticks": 139038,
          "time": 139.038,
          "velocity": 1
        },
        {
          "duration": 0.5759999999999934,
          "durationTicks": 576,
          "midi": 72,
          "name": "C5",
          "ticks": 139614,
          "time": 139.614,
          "velocity": 1
        },
        {
          "duration": 0.5760000000000218,
          "durationTicks": 576,
          "midi": 75,
          "name": "D#5",
          "ticks": 140192,
          "time": 140.19199999999998,
          "velocity": 1
        },
        {
          "duration": 0.5759999999999934,
          "durationTicks": 576,
          "midi": 72,
          "name": "C5",
          "ticks": 140768,
          "time": 140.768,
          "velocity": 1
        },
        {
          "duration": 0.5759999999999934,
          "durationTicks": 576,
          "midi": 70,
          "name": "A#4",
          "ticks": 141346,
          "time": 141.346,
          "velocity": 1
        },
        {
          "duration": 0.5759999999999934,
          "durationTicks": 576,
          "midi": 72,
          "name": "C5",
          "ticks": 141922,
          "time": 141.922,
          "velocity": 1
        },
        {
          "duration": 0.5759999999999934,
          "durationTicks": 576,
          "midi": 66,
          "name": "F#4",
          "ticks": 142500,
          "time": 142.5,
          "velocity": 1
        },
        {
          "duration": 0.5759999999999934,
          "durationTicks": 576,
          "midi": 72,
          "name": "C5",
          "ticks": 143076,
          "time": 143.076,
          "velocity": 1
        },
        {
          "duration": 0.5760000000000218,
          "durationTicks": 576,
          "midi": 70,
          "name": "A#4",
          "ticks": 143652,
          "time": 143.652,
          "velocity": 1
        },
        {
          "duration": 0.5760000000000218,
          "durationTicks": 576,
          "midi": 72,
          "name": "C5",
          "ticks": 144230,
          "time": 144.23,
          "velocity": 1
        },
        {
          "duration": 0.5759999999999934,
          "durationTicks": 576,
          "midi": 75,
          "name": "D#5",
          "ticks": 144806,
          "time": 144.806,
          "velocity": 1
        },
        {
          "duration": 0.5759999999999934,
          "durationTicks": 576,
          "midi": 72,
          "name": "C5",
          "ticks": 145384,
          "time": 145.384,
          "velocity": 1
        },
        {
          "duration": 0.5760000000000218,
          "durationTicks": 576,
          "midi": 70,
          "name": "A#4",
          "ticks": 145960,
          "time": 145.95999999999998,
          "velocity": 1
        },
        {
          "duration": 0.5759999999999934,
          "durationTicks": 576,
          "midi": 72,
          "name": "C5",
          "ticks": 146538,
          "time": 146.538,
          "velocity": 1
        },
        {
          "duration": 0.14400000000000546,
          "durationTicks": 144,
          "midi": 72,
          "name": "C5",
          "ticks": 147114,
          "time": 147.114,
          "velocity": 1
        },
        {
          "duration": 0.14399999999997704,
          "durationTicks": 144,
          "midi": 73,
          "name": "C#5",
          "ticks": 147258,
          "time": 147.258,
          "velocity": 1
        },
        {
          "duration": 0.2880000000000109,
          "durationTicks": 288,
          "midi": 72,
          "name": "C5",
          "ticks": 147402,
          "time": 147.402,
          "velocity": 1
        },
        {
          "duration": 0.5760000000000218,
          "durationTicks": 576,
          "midi": 72,
          "name": "C5",
          "ticks": 147692,
          "time": 147.69199999999998,
          "velocity": 1
        },
        {
          "duration": 0.5759999999999934,
          "durationTicks": 576,
          "midi": 70,
          "name": "A#4",
          "ticks": 148268,
          "time": 148.268,
          "velocity": 1
        },
        {
          "duration": 0.5759999999999934,
          "durationTicks": 576,
          "midi": 72,
          "name": "C5",
          "ticks": 148846,
          "time": 148.846,
          "velocity": 1
        },
        {
          "duration": 0.5759999999999934,
          "durationTicks": 576,
          "midi": 75,
          "name": "D#5",
          "ticks": 149422,
          "time": 149.422,
          "velocity": 1
        },
        {
          "duration": 0.5759999999999934,
          "durationTicks": 576,
          "midi": 72,
          "name": "C5",
          "ticks": 150000,
          "time": 150,
          "velocity": 1
        },
        {
          "duration": 0.5759999999999934,
          "durationTicks": 576,
          "midi": 70,
          "name": "A#4",
          "ticks": 150576,
          "time": 150.576,
          "velocity": 1
        },
        {
          "duration": 0.5760000000000218,
          "durationTicks": 576,
          "midi": 72,
          "name": "C5",
          "ticks": 151152,
          "time": 151.152,
          "velocity": 1
        },
        {
          "duration": 0.5760000000000218,
          "durationTicks": 576,
          "midi": 66,
          "name": "F#4",
          "ticks": 151730,
          "time": 151.73,
          "velocity": 1
        },
        {
          "duration": 0.5759999999999934,
          "durationTicks": 576,
          "midi": 72,
          "name": "C5",
          "ticks": 152306,
          "time": 152.306,
          "velocity": 1
        },
        {
          "duration": 0.5759999999999934,
          "durationTicks": 576,
          "midi": 70,
          "name": "A#4",
          "ticks": 152884,
          "time": 152.884,
          "velocity": 1
        },
        {
          "duration": 0.5760000000000218,
          "durationTicks": 576,
          "midi": 72,
          "name": "C5",
          "ticks": 153460,
          "time": 153.45999999999998,
          "velocity": 1
        },
        {
          "duration": 0.5759999999999934,
          "durationTicks": 576,
          "midi": 75,
          "name": "D#5",
          "ticks": 154038,
          "time": 154.038,
          "velocity": 1
        },
        {
          "duration": 0.5759999999999934,
          "durationTicks": 576,
          "midi": 72,
          "name": "C5",
          "ticks": 154614,
          "time": 154.614,
          "velocity": 1
        },
        {
          "duration": 0.5760000000000218,
          "durationTicks": 576,
          "midi": 70,
          "name": "A#4",
          "ticks": 155192,
          "time": 155.19199999999998,
          "velocity": 1
        },
        {
          "duration": 0.5759999999999934,
          "durationTicks": 576,
          "midi": 72,
          "name": "C5",
          "ticks": 155768,
          "time": 155.768,
          "velocity": 1
        }
      ]
    },
    {
      "channel": 4,
      "controlChanges": {
        "7": [
          {
            "number": 7,
            "ticks": 0,
            "time": 0,
            "value": 1
          }
        ]
      },
      "pitchBends": [],
      "instrument": {
        "family": "piano",
        "number": 0,
        "name": "acoustic grand piano"
      },
      "name": "忍者_爱给网_aigei_com",
      "notes": [
        {
          "duration": 0.2880000000000038,
          "durationTicks": 288,
          "midi": 76,
          "name": "E5",
          "ticks": 28268,
          "time": 28.267999999999997,
          "velocity": 1
        },
        {
          "duration": 0.28800000000000026,
          "durationTicks": 288,
          "midi": 76,
          "name": "E5",
          "ticks": 28556,
          "time": 28.556,
          "velocity": 1
        },
        {
          "duration": 0.5760000000000041,
          "durationTicks": 576,
          "midi": 76,
          "name": "E5",
          "ticks": 28846,
          "time": 28.845999999999997,
          "velocity": 1
        },
        {
          "duration": 0.28800000000000026,
          "durationTicks": 288,
          "midi": 74,
          "name": "D5",
          "ticks": 29422,
          "time": 29.422,
          "velocity": 1
        },
        {
          "duration": 0.2879999999999967,
          "durationTicks": 288,
          "midi": 76,
          "name": "E5",
          "ticks": 29710,
          "time": 29.71,
          "velocity": 1
        },
        {
          "duration": 0.5760000000000005,
          "durationTicks": 576,
          "midi": 77,
          "name": "F5",
          "ticks": 30000,
          "time": 30,
          "velocity": 1
        },
        {
          "duration": 0.5760000000000005,
          "durationTicks": 576,
          "midi": 76,
          "name": "E5",
          "ticks": 30576,
          "time": 30.576,
          "velocity": 1
        },
        {
          "duration": 0.5759999999999934,
          "durationTicks": 576,
          "midi": 71,
          "name": "B4",
          "ticks": 31152,
          "time": 31.152,
          "velocity": 1
        },
        {
          "duration": 0.575999999999997,
          "durationTicks": 576,
          "midi": 76,
          "name": "E5",
          "ticks": 31730,
          "time": 31.73,
          "velocity": 1
        },
        {
          "duration": 0.2879999999999967,
          "durationTicks": 288,
          "midi": 74,
          "name": "D5",
          "ticks": 32884,
          "time": 32.884,
          "velocity": 1
        },
        {
          "duration": 0.2879999999999967,
          "durationTicks": 288,
          "midi": 74,
          "name": "D5",
          "ticks": 33172,
          "time": 33.172,
          "velocity": 1
        },
        {
          "duration": 0.5760000000000076,
          "durationTicks": 576,
          "midi": 76,
          "name": "E5",
          "ticks": 33460,
          "time": 33.459999999999994,
          "velocity": 1
        },
        {
          "duration": 0.2880000000000038,
          "durationTicks": 288,
          "midi": 74,
          "name": "D5",
          "ticks": 34038,
          "time": 34.038,
          "velocity": 1
        },
        {
          "duration": 0.2879999999999967,
          "durationTicks": 288,
          "midi": 76,
          "name": "E5",
          "ticks": 34326,
          "time": 34.326,
          "velocity": 1
        },
        {
          "duration": 0.5760000000000005,
          "durationTicks": 576,
          "midi": 77,
          "name": "F5",
          "ticks": 34614,
          "time": 34.614,
          "velocity": 1
        },
        {
          "duration": 0.5760000000000005,
          "durationTicks": 576,
          "midi": 81,
          "name": "A5",
          "ticks": 35192,
          "time": 35.192,
          "velocity": 1
        },
        {
          "duration": 0.5760000000000005,
          "durationTicks": 576,
          "midi": 83,
          "name": "B5",
          "ticks": 35768,
          "time": 35.768,
          "velocity": 1
        },
        {
          "duration": 0.2879999999999967,
          "durationTicks": 288,
          "midi": 76,
          "name": "E5",
          "ticks": 102114,
          "time": 102.114,
          "velocity": 1
        },
        {
          "duration": 0.2879999999999967,
          "durationTicks": 288,
          "midi": 76,
          "name": "E5",
          "ticks": 102402,
          "time": 102.402,
          "velocity": 1
        },
        {
          "duration": 0.5760000000000076,
          "durationTicks": 576,
          "midi": 76,
          "name": "E5",
          "ticks": 102692,
          "time": 102.692,
          "velocity": 1
        },
        {
          "duration": 0.2879999999999967,
          "durationTicks": 288,
          "midi": 74,
          "name": "D5",
          "ticks": 103268,
          "time": 103.268,
          "velocity": 1
        },
        {
          "duration": 0.2879999999999967,
          "durationTicks": 288,
          "midi": 76,
          "name": "E5",
          "ticks": 103556,
          "time": 103.556,
          "velocity": 1
        },
        {
          "duration": 0.5759999999999934,
          "durationTicks": 576,
          "midi": 77,
          "name": "F5",
          "ticks": 103846,
          "time": 103.84599999999999,
          "velocity": 1
        },
        {
          "duration": 0.5760000000000218,
          "durationTicks": 576,
          "midi": 76,
          "name": "E5",
          "ticks": 104422,
          "time": 104.42199999999998,
          "velocity": 1
        },
        {
          "duration": 0.5759999999999934,
          "durationTicks": 576,
          "midi": 71,
          "name": "B4",
          "ticks": 105000,
          "time": 105,
          "velocity": 1
        },
        {
          "duration": 0.5760000000000076,
          "durationTicks": 576,
          "midi": 76,
          "name": "E5",
          "ticks": 105576,
          "time": 105.576,
          "velocity": 1
        },
        {
          "duration": 0.2880000000000109,
          "durationTicks": 288,
          "midi": 74,
          "name": "D5",
          "ticks": 106730,
          "time": 106.72999999999999,
          "velocity": 1
        },
        {
          "duration": 0.2879999999999967,
          "durationTicks": 288,
          "midi": 74,
          "name": "D5",
          "ticks": 107018,
          "time": 107.018,
          "velocity": 1
        },
        {
          "duration": 0.5759999999999934,
          "durationTicks": 576,
          "midi": 76,
          "name": "E5",
          "ticks": 107306,
          "time": 107.306,
          "velocity": 1
        },
        {
          "duration": 0.2879999999999967,
          "durationTicks": 288,
          "midi": 74,
          "name": "D5",
          "ticks": 107884,
          "time": 107.88399999999999,
          "velocity": 1
        },
        {
          "duration": 0.2880000000000109,
          "durationTicks": 288,
          "midi": 76,
          "name": "E5",
          "ticks": 108172,
          "time": 108.17199999999998,
          "velocity": 1
        },
        {
          "duration": 0.5760000000000076,
          "durationTicks": 576,
          "midi": 77,
          "name": "F5",
          "ticks": 108460,
          "time": 108.46,
          "velocity": 1
        },
        {
          "duration": 0.5760000000000076,
          "durationTicks": 576,
          "midi": 81,
          "name": "A5",
          "ticks": 109038,
          "time": 109.038,
          "velocity": 1
        },
        {
          "duration": 0.5759999999999934,
          "durationTicks": 576,
          "midi": 83,
          "name": "B5",
          "ticks": 109614,
          "time": 109.614,
          "velocity": 1
        }
      ],
      "endOfTrackTicks": 157440
    },
    {
      "channel": 0,
      "controlChanges": {},
      "pitchBends": [],
      "instrument": {
        "family": "piano",
        "number": 0,
        "name": "acoustic grand piano"
      },
      "name": "忍者_爱给网_aigei_com",
      "notes": [],
      "endOfTrackTicks": 157440
    },
    {
      "channel": 5,
      "controlChanges": {
        "7": [
          {
            "number": 7,
            "ticks": 0,
            "time": 0,
            "value": 1
          }
        ]
      },
      "pitchBends": [],
      "instrument": {
        "family": "bass",
        "number": 33,
        "name": "electric bass (finger)"
      },
      "name": "",
      "notes": [
        {
          "duration": 0.288,
          "durationTicks": 288,
          "midi": 64,
          "name": "E4",
          "ticks": 0,
          "time": 0,
          "velocity": 1
        },
        {
          "duration": 0.288,
          "durationTicks": 288,
          "midi": 64,
          "name": "E4",
          "ticks": 288,
          "time": 0.288,
          "velocity": 1
        },
        {
          "duration": 0.28800000000000003,
          "durationTicks": 288,
          "midi": 64,
          "name": "E4",
          "ticks": 576,
          "time": 0.576,
          "velocity": 1
        },
        {
          "duration": 0.2879999999999999,
          "durationTicks": 288,
          "midi": 64,
          "name": "E4",
          "ticks": 864,
          "time": 0.864,
          "velocity": 1
        },
        {
          "duration": 0.28800000000000003,
          "durationTicks": 288,
          "midi": 64,
          "name": "E4",
          "ticks": 1152,
          "time": 1.152,
          "velocity": 1
        },
        {
          "duration": 0.2879999999999998,
          "durationTicks": 288,
          "midi": 64,
          "name": "E4",
          "ticks": 1442,
          "time": 1.442,
          "velocity": 1
        },
        {
          "duration": 0.28800000000000026,
          "durationTicks": 288,
          "midi": 64,
          "name": "E4",
          "ticks": 2306,
          "time": 2.3059999999999996,
          "velocity": 1
        },
        {
          "duration": 0.28800000000000026,
          "durationTicks": 288,
          "midi": 64,
          "name": "E4",
          "ticks": 2596,
          "time": 2.5959999999999996,
          "velocity": 1
        },
        {
          "duration": 0.2879999999999998,
          "durationTicks": 288,
          "midi": 64,
          "name": "E4",
          "ticks": 2884,
          "time": 2.884,
          "velocity": 1
        },
        {
          "duration": 0.2879999999999998,
          "durationTicks": 288,
          "midi": 64,
          "name": "E4",
          "ticks": 3172,
          "time": 3.1719999999999997,
          "velocity": 1
        },
        {
          "duration": 0.28800000000000026,
          "durationTicks": 288,
          "midi": 64,
          "name": "E4",
          "ticks": 3460,
          "time": 3.4599999999999995,
          "velocity": 1
        },
        {
          "duration": 0.28799999999999937,
          "durationTicks": 288,
          "midi": 64,
          "name": "E4",
          "ticks": 3750,
          "time": 3.75,
          "velocity": 1
        },
        {
          "duration": 0.28800000000000026,
          "durationTicks": 288,
          "midi": 64,
          "name": "E4",
          "ticks": 4614,
          "time": 4.614,
          "velocity": 1
        },
        {
          "duration": 0.28799999999999937,
          "durationTicks": 288,
          "midi": 64,
          "name": "E4",
          "ticks": 4902,
          "time": 4.902,
          "velocity": 1
        },
        {
          "duration": 0.28800000000000026,
          "durationTicks": 288,
          "midi": 64,
          "name": "E4",
          "ticks": 5192,
          "time": 5.191999999999999,
          "velocity": 1
        },
        {
          "duration": 0.28800000000000026,
          "durationTicks": 288,
          "midi": 64,
          "name": "E4",
          "ticks": 5480,
          "time": 5.4799999999999995,
          "velocity": 1
        },
        {
          "duration": 0.28800000000000026,
          "durationTicks": 288,
          "midi": 64,
          "name": "E4",
          "ticks": 5768,
          "time": 5.768,
          "velocity": 1
        },
        {
          "duration": 0.28799999999999937,
          "durationTicks": 288,
          "midi": 64,
          "name": "E4",
          "ticks": 6056,
          "time": 6.056,
          "velocity": 1
        },
        {
          "duration": 0.28800000000000026,
          "durationTicks": 288,
          "midi": 64,
          "name": "E4",
          "ticks": 6922,
          "time": 6.922,
          "velocity": 1
        },
        {
          "duration": 0.28800000000000026,
          "durationTicks": 288,
          "midi": 64,
          "name": "E4",
          "ticks": 7210,
          "time": 7.21,
          "velocity": 1
        },
        {
          "duration": 0.28800000000000026,
          "durationTicks": 288,
          "midi": 64,
          "name": "E4",
          "ticks": 7500,
          "time": 7.5,
          "velocity": 1
        },
        {
          "duration": 0.2879999999999985,
          "durationTicks": 288,
          "midi": 64,
          "name": "E4",
          "ticks": 7788,
          "time": 7.788,
          "velocity": 1
        },
        {
          "duration": 0.28800000000000203,
          "durationTicks": 288,
          "midi": 64,
          "name": "E4",
          "ticks": 8076,
          "time": 8.075999999999999,
          "velocity": 1
        },
        {
          "duration": 0.2879999999999985,
          "durationTicks": 288,
          "midi": 64,
          "name": "E4",
          "ticks": 8364,
          "time": 8.364,
          "velocity": 1
        },
        {
          "duration": 0.2879999999999985,
          "durationTicks": 288,
          "midi": 64,
          "name": "E4",
          "ticks": 9230,
          "time": 9.23,
          "velocity": 1
        },
        {
          "duration": 0.28800000000000026,
          "durationTicks": 288,
          "midi": 64,
          "name": "E4",
          "ticks": 9518,
          "time": 9.517999999999999,
          "velocity": 1
        },
        {
          "duration": 0.28800000000000026,
          "durationTicks": 288,
          "midi": 64,
          "name": "E4",
          "ticks": 9806,
          "time": 9.806,
          "velocity": 1
        },
        {
          "duration": 0.2879999999999985,
          "durationTicks": 288,
          "midi": 64,
          "name": "E4",
          "ticks": 10096,
          "time": 10.096,
          "velocity": 1
        },
        {
          "duration": 0.28800000000000203,
          "durationTicks": 288,
          "midi": 64,
          "name": "E4",
          "ticks": 10384,
          "time": 10.383999999999999,
          "velocity": 1
        },
        {
          "duration": 0.2879999999999985,
          "durationTicks": 288,
          "midi": 64,
          "name": "E4",
          "ticks": 10672,
          "time": 10.672,
          "velocity": 1
        },
        {
          "duration": 0.2879999999999985,
          "durationTicks": 288,
          "midi": 64,
          "name": "E4",
          "ticks": 11538,
          "time": 11.538,
          "velocity": 1
        },
        {
          "duration": 0.28800000000000203,
          "durationTicks": 288,
          "midi": 64,
          "name": "E4",
          "ticks": 11826,
          "time": 11.825999999999999,
          "velocity": 1
        },
        {
          "duration": 0.2879999999999985,
          "durationTicks": 288,
          "midi": 64,
          "name": "E4",
          "ticks": 12114,
          "time": 12.114,
          "velocity": 1
        },
        {
          "duration": 0.28800000000000026,
          "durationTicks": 288,
          "midi": 64,
          "name": "E4",
          "ticks": 12402,
          "time": 12.402,
          "velocity": 1
        },
        {
          "duration": 0.28800000000000026,
          "durationTicks": 288,
          "midi": 64,
          "name": "E4",
          "ticks": 12692,
          "time": 12.692,
          "velocity": 1
        },
        {
          "duration": 0.2879999999999985,
          "durationTicks": 288,
          "midi": 64,
          "name": "E4",
          "ticks": 12980,
          "time": 12.98,
          "velocity": 1
        },
        {
          "duration": 0.2879999999999985,
          "durationTicks": 288,
          "midi": 64,
          "name": "E4",
          "ticks": 13846,
          "time": 13.846,
          "velocity": 1
        },
        {
          "duration": 0.28800000000000203,
          "durationTicks": 288,
          "midi": 64,
          "name": "E4",
          "ticks": 14134,
          "time": 14.133999999999999,
          "velocity": 1
        },
        {
          "duration": 0.2879999999999985,
          "durationTicks": 288,
          "midi": 64,
          "name": "E4",
          "ticks": 14422,
          "time": 14.422,
          "velocity": 1
        },
        {
          "duration": 0.28800000000000026,
          "durationTicks": 288,
          "midi": 64,
          "name": "E4",
          "ticks": 14710,
          "time": 14.709999999999999,
          "velocity": 1
        },
        {
          "duration": 0.28800000000000026,
          "durationTicks": 288,
          "midi": 64,
          "name": "E4",
          "ticks": 15000,
          "time": 15,
          "velocity": 1
        },
        {
          "duration": 0.28800000000000026,
          "durationTicks": 288,
          "midi": 64,
          "name": "E4",
          "ticks": 15288,
          "time": 15.288,
          "velocity": 1
        },
        {
          "duration": 0.28800000000000026,
          "durationTicks": 288,
          "midi": 64,
          "name": "E4",
          "ticks": 16152,
          "time": 16.151999999999997,
          "velocity": 1
        },
        {
          "duration": 0.2879999999999967,
          "durationTicks": 288,
          "midi": 64,
          "name": "E4",
          "ticks": 16442,
          "time": 16.442,
          "velocity": 1
        },
        {
          "duration": 0.2880000000000038,
          "durationTicks": 288,
          "midi": 64,
          "name": "E4",
          "ticks": 16730,
          "time": 16.729999999999997,
          "velocity": 1
        },
        {
          "duration": 0.28800000000000026,
          "durationTicks": 288,
          "midi": 64,
          "name": "E4",
          "ticks": 17018,
          "time": 17.018,
          "velocity": 1
        },
        {
          "duration": 0.28800000000000026,
          "durationTicks": 288,
          "midi": 64,
          "name": "E4",
          "ticks": 17306,
          "time": 17.306,
          "velocity": 1
        },
        {
          "duration": 0.28800000000000026,
          "durationTicks": 288,
          "midi": 64,
          "name": "E4",
          "ticks": 17596,
          "time": 17.596,
          "velocity": 1
        },
        {
          "duration": 0.2879999999999967,
          "durationTicks": 288,
          "midi": 64,
          "name": "E4",
          "ticks": 18460,
          "time": 18.46,
          "velocity": 1
        },
        {
          "duration": 0.28800000000000026,
          "durationTicks": 288,
          "midi": 64,
          "name": "E4",
          "ticks": 18750,
          "time": 18.75,
          "velocity": 1
        },
        {
          "duration": 0.28800000000000026,
          "durationTicks": 288,
          "midi": 64,
          "name": "E4",
          "ticks": 19038,
          "time": 19.038,
          "velocity": 1
        },
        {
          "duration": 0.2879999999999967,
          "durationTicks": 288,
          "midi": 64,
          "name": "E4",
          "ticks": 19326,
          "time": 19.326,
          "velocity": 1
        },
        {
          "duration": 0.28800000000000026,
          "durationTicks": 288,
          "midi": 64,
          "name": "E4",
          "ticks": 19614,
          "time": 19.613999999999997,
          "velocity": 1
        },
        {
          "duration": 0.28800000000000026,
          "durationTicks": 288,
          "midi": 64,
          "name": "E4",
          "ticks": 19902,
          "time": 19.901999999999997,
          "velocity": 1
        },
        {
          "duration": 0.2880000000000038,
          "durationTicks": 288,
          "midi": 64,
          "name": "E4",
          "ticks": 20768,
          "time": 20.767999999999997,
          "velocity": 1
        },
        {
          "duration": 0.28800000000000026,
          "durationTicks": 288,
          "midi": 64,
          "name": "E4",
          "ticks": 21056,
          "time": 21.056,
          "velocity": 1
        },
        {
          "duration": 0.2880000000000038,
          "durationTicks": 288,
          "midi": 64,
          "name": "E4",
          "ticks": 21346,
          "time": 21.345999999999997,
          "velocity": 1
        },
        {
          "duration": 0.28800000000000026,
          "durationTicks": 288,
          "midi": 64,
          "name": "E4",
          "ticks": 21634,
          "time": 21.634,
          "velocity": 1
        },
        {
          "duration": 0.28800000000000026,
          "durationTicks": 288,
          "midi": 64,
          "name": "E4",
          "ticks": 21922,
          "time": 21.922,
          "velocity": 1
        },
        {
          "duration": 0.2879999999999967,
          "durationTicks": 288,
          "midi": 64,
          "name": "E4",
          "ticks": 22210,
          "time": 22.21,
          "velocity": 1
        },
        {
          "duration": 0.2879999999999967,
          "durationTicks": 288,
          "midi": 64,
          "name": "E4",
          "ticks": 23076,
          "time": 23.076,
          "velocity": 1
        },
        {
          "duration": 0.28800000000000026,
          "durationTicks": 288,
          "midi": 64,
          "name": "E4",
          "ticks": 23364,
          "time": 23.363999999999997,
          "velocity": 1
        },
        {
          "duration": 0.28800000000000026,
          "durationTicks": 288,
          "midi": 64,
          "name": "E4",
          "ticks": 23652,
          "time": 23.651999999999997,
          "velocity": 1
        },
        {
          "duration": 0.2879999999999967,
          "durationTicks": 288,
          "midi": 64,
          "name": "E4",
          "ticks": 23942,
          "time": 23.942,
          "velocity": 1
        },
        {
          "duration": 0.28800000000000026,
          "durationTicks": 288,
          "midi": 64,
          "name": "E4",
          "ticks": 24230,
          "time": 24.229999999999997,
          "velocity": 1
        },
        {
          "duration": 0.2880000000000038,
          "durationTicks": 288,
          "midi": 64,
          "name": "E4",
          "ticks": 24518,
          "time": 24.517999999999997,
          "velocity": 1
        },
        {
          "duration": 0.28800000000000026,
          "durationTicks": 288,
          "midi": 64,
          "name": "E4",
          "ticks": 25384,
          "time": 25.384,
          "velocity": 1
        },
        {
          "duration": 0.28800000000000026,
          "durationTicks": 288,
          "midi": 64,
          "name": "E4",
          "ticks": 25672,
          "time": 25.672,
          "velocity": 1
        },
        {
          "duration": 0.2879999999999967,
          "durationTicks": 288,
          "midi": 64,
          "name": "E4",
          "ticks": 25960,
          "time": 25.96,
          "velocity": 1
        },
        {
          "duration": 0.28800000000000026,
          "durationTicks": 288,
          "midi": 64,
          "name": "E4",
          "ticks": 26250,
          "time": 26.25,
          "velocity": 1
        },
        {
          "duration": 0.28800000000000026,
          "durationTicks": 288,
          "midi": 64,
          "name": "E4",
          "ticks": 26538,
          "time": 26.538,
          "velocity": 1
        },
        {
          "duration": 0.2879999999999967,
          "durationTicks": 288,
          "midi": 64,
          "name": "E4",
          "ticks": 26826,
          "time": 26.826,
          "velocity": 1
        },
        {
          "duration": 0.2879999999999967,
          "durationTicks": 288,
          "midi": 64,
          "name": "E4",
          "ticks": 36922,
          "time": 36.922,
          "velocity": 1
        },
        {
          "duration": 0.2880000000000038,
          "durationTicks": 288,
          "midi": 64,
          "name": "E4",
          "ticks": 37210,
          "time": 37.209999999999994,
          "velocity": 1
        },
        {
          "duration": 0.2879999999999967,
          "durationTicks": 288,
          "midi": 64,
          "name": "E4",
          "ticks": 37500,
          "time": 37.5,
          "velocity": 1
        },
        {
          "duration": 0.2880000000000038,
          "durationTicks": 288,
          "midi": 64,
          "name": "E4",
          "ticks": 37788,
          "time": 37.788,
          "velocity": 1
        },
        {
          "duration": 0.2879999999999967,
          "durationTicks": 288,
          "midi": 64,
          "name": "E4",
          "ticks": 38076,
          "time": 38.076,
          "velocity": 1
        },
        {
          "duration": 0.2880000000000038,
          "durationTicks": 288,
          "midi": 64,
          "name": "E4",
          "ticks": 38364,
          "time": 38.364,
          "velocity": 1
        },
        {
          "duration": 0.2879999999999967,
          "durationTicks": 288,
          "midi": 64,
          "name": "E4",
          "ticks": 39230,
          "time": 39.230000000000004,
          "velocity": 1
        },
        {
          "duration": 0.2879999999999967,
          "durationTicks": 288,
          "midi": 64,
          "name": "E4",
          "ticks": 39518,
          "time": 39.518,
          "velocity": 1
        },
        {
          "duration": 0.2880000000000038,
          "durationTicks": 288,
          "midi": 64,
          "name": "E4",
          "ticks": 39806,
          "time": 39.806,
          "velocity": 1
        },
        {
          "duration": 0.2880000000000038,
          "durationTicks": 288,
          "midi": 64,
          "name": "E4",
          "ticks": 40096,
          "time": 40.096,
          "velocity": 1
        },
        {
          "duration": 0.2879999999999967,
          "durationTicks": 288,
          "midi": 64,
          "name": "E4",
          "ticks": 40384,
          "time": 40.384,
          "velocity": 1
        },
        {
          "duration": 0.2879999999999967,
          "durationTicks": 288,
          "midi": 64,
          "name": "E4",
          "ticks": 40672,
          "time": 40.672,
          "velocity": 1
        },
        {
          "duration": 0.2880000000000038,
          "durationTicks": 288,
          "midi": 64,
          "name": "E4",
          "ticks": 41538,
          "time": 41.538,
          "velocity": 1
        },
        {
          "duration": 0.2879999999999967,
          "durationTicks": 288,
          "midi": 64,
          "name": "E4",
          "ticks": 41826,
          "time": 41.826,
          "velocity": 1
        },
        {
          "duration": 0.2880000000000038,
          "durationTicks": 288,
          "midi": 64,
          "name": "E4",
          "ticks": 42114,
          "time": 42.114,
          "velocity": 1
        },
        {
          "duration": 0.2879999999999967,
          "durationTicks": 288,
          "midi": 64,
          "name": "E4",
          "ticks": 42402,
          "time": 42.402,
          "velocity": 1
        },
        {
          "duration": 0.2880000000000109,
          "durationTicks": 288,
          "midi": 64,
          "name": "E4",
          "ticks": 42692,
          "time": 42.69199999999999,
          "velocity": 1
        },
        {
          "duration": 0.2879999999999967,
          "durationTicks": 288,
          "midi": 64,
          "name": "E4",
          "ticks": 42980,
          "time": 42.980000000000004,
          "velocity": 1
        },
        {
          "duration": 0.2879999999999967,
          "durationTicks": 288,
          "midi": 64,
          "name": "E4",
          "ticks": 46152,
          "time": 46.152,
          "velocity": 1
        },
        {
          "duration": 0.2880000000000109,
          "durationTicks": 288,
          "midi": 64,
          "name": "E4",
          "ticks": 46442,
          "time": 46.44199999999999,
          "velocity": 1
        },
        {
          "duration": 0.2879999999999967,
          "durationTicks": 288,
          "midi": 64,
          "name": "E4",
          "ticks": 46730,
          "time": 46.730000000000004,
          "velocity": 1
        },
        {
          "duration": 0.2879999999999967,
          "durationTicks": 288,
          "midi": 64,
          "name": "E4",
          "ticks": 47018,
          "time": 47.018,
          "velocity": 1
        },
        {
          "duration": 0.2880000000000038,
          "durationTicks": 288,
          "midi": 64,
          "name": "E4",
          "ticks": 47306,
          "time": 47.306,
          "velocity": 1
        },
        {
          "duration": 0.2880000000000038,
          "durationTicks": 288,
          "midi": 64,
          "name": "E4",
          "ticks": 47596,
          "time": 47.596,
          "velocity": 1
        },
        {
          "duration": 0.2880000000000038,
          "durationTicks": 288,
          "midi": 64,
          "name": "E4",
          "ticks": 48460,
          "time": 48.459999999999994,
          "velocity": 1
        },
        {
          "duration": 0.2879999999999967,
          "durationTicks": 288,
          "midi": 64,
          "name": "E4",
          "ticks": 48750,
          "time": 48.75,
          "velocity": 1
        },
        {
          "duration": 0.2880000000000038,
          "durationTicks": 288,
          "midi": 64,
          "name": "E4",
          "ticks": 49038,
          "time": 49.038,
          "velocity": 1
        },
        {
          "duration": 0.2879999999999967,
          "durationTicks": 288,
          "midi": 64,
          "name": "E4",
          "ticks": 49326,
          "time": 49.326,
          "velocity": 1
        },
        {
          "duration": 0.2880000000000038,
          "durationTicks": 288,
          "midi": 64,
          "name": "E4",
          "ticks": 49614,
          "time": 49.614,
          "velocity": 1
        },
        {
          "duration": 0.2879999999999967,
          "durationTicks": 288,
          "midi": 64,
          "name": "E4",
          "ticks": 49902,
          "time": 49.902,
          "velocity": 1
        },
        {
          "duration": 0.2879999999999967,
          "durationTicks": 288,
          "midi": 64,
          "name": "E4",
          "ticks": 50768,
          "time": 50.768,
          "velocity": 1
        },
        {
          "duration": 0.2880000000000038,
          "durationTicks": 288,
          "midi": 64,
          "name": "E4",
          "ticks": 51056,
          "time": 51.056,
          "velocity": 1
        },
        {
          "duration": 0.2880000000000038,
          "durationTicks": 288,
          "midi": 64,
          "name": "E4",
          "ticks": 51346,
          "time": 51.346,
          "velocity": 1
        },
        {
          "duration": 0.2879999999999967,
          "durationTicks": 288,
          "midi": 64,
          "name": "E4",
          "ticks": 51634,
          "time": 51.634,
          "velocity": 1
        },
        {
          "duration": 0.2879999999999967,
          "durationTicks": 288,
          "midi": 64,
          "name": "E4",
          "ticks": 51922,
          "time": 51.922,
          "velocity": 1
        },
        {
          "duration": 0.2880000000000038,
          "durationTicks": 288,
          "midi": 64,
          "name": "E4",
          "ticks": 52210,
          "time": 52.209999999999994,
          "velocity": 1
        },
        {
          "duration": 0.2879999999999967,
          "durationTicks": 288,
          "midi": 64,
          "name": "E4",
          "ticks": 53076,
          "time": 53.076,
          "velocity": 1
        },
        {
          "duration": 0.2880000000000038,
          "durationTicks": 288,
          "midi": 64,
          "name": "E4",
          "ticks": 53364,
          "time": 53.364,
          "velocity": 1
        },
        {
          "duration": 0.2879999999999967,
          "durationTicks": 288,
          "midi": 64,
          "name": "E4",
          "ticks": 53652,
          "time": 53.652,
          "velocity": 1
        },
        {
          "duration": 0.2880000000000038,
          "durationTicks": 288,
          "midi": 64,
          "name": "E4",
          "ticks": 53942,
          "time": 53.94199999999999,
          "velocity": 1
        },
        {
          "duration": 0.2880000000000038,
          "durationTicks": 288,
          "midi": 64,
          "name": "E4",
          "ticks": 54230,
          "time": 54.23,
          "velocity": 1
        },
        {
          "duration": 0.2879999999999967,
          "durationTicks": 288,
          "midi": 64,
          "name": "E4",
          "ticks": 54518,
          "time": 54.518,
          "velocity": 1
        },
        {
          "duration": 0.2879999999999967,
          "durationTicks": 288,
          "midi": 64,
          "name": "E4",
          "ticks": 55384,
          "time": 55.384,
          "velocity": 1
        },
        {
          "duration": 0.2879999999999967,
          "durationTicks": 288,
          "midi": 64,
          "name": "E4",
          "ticks": 55672,
          "time": 55.672,
          "velocity": 1
        },
        {
          "duration": 0.2880000000000038,
          "durationTicks": 288,
          "midi": 64,
          "name": "E4",
          "ticks": 55960,
          "time": 55.959999999999994,
          "velocity": 1
        },
        {
          "duration": 0.2879999999999967,
          "durationTicks": 288,
          "midi": 64,
          "name": "E4",
          "ticks": 56250,
          "time": 56.25,
          "velocity": 1
        },
        {
          "duration": 0.2880000000000038,
          "durationTicks": 288,
          "midi": 64,
          "name": "E4",
          "ticks": 56538,
          "time": 56.538,
          "velocity": 1
        },
        {
          "duration": 0.2879999999999967,
          "durationTicks": 288,
          "midi": 64,
          "name": "E4",
          "ticks": 56826,
          "time": 56.826,
          "velocity": 1
        },
        {
          "duration": 0.2880000000000038,
          "durationTicks": 288,
          "midi": 64,
          "name": "E4",
          "ticks": 57692,
          "time": 57.69199999999999,
          "velocity": 1
        },
        {
          "duration": 0.2880000000000038,
          "durationTicks": 288,
          "midi": 64,
          "name": "E4",
          "ticks": 57980,
          "time": 57.98,
          "velocity": 1
        },
        {
          "duration": 0.2879999999999967,
          "durationTicks": 288,
          "midi": 64,
          "name": "E4",
          "ticks": 58268,
          "time": 58.268,
          "velocity": 1
        },
        {
          "duration": 0.2880000000000038,
          "durationTicks": 288,
          "midi": 64,
          "name": "E4",
          "ticks": 58556,
          "time": 58.556,
          "velocity": 1
        },
        {
          "duration": 0.2880000000000038,
          "durationTicks": 288,
          "midi": 64,
          "name": "E4",
          "ticks": 58846,
          "time": 58.846,
          "velocity": 1
        },
        {
          "duration": 0.2879999999999967,
          "durationTicks": 288,
          "midi": 64,
          "name": "E4",
          "ticks": 59134,
          "time": 59.134,
          "velocity": 1
        },
        {
          "duration": 0.2879999999999967,
          "durationTicks": 288,
          "midi": 64,
          "name": "E4",
          "ticks": 60000,
          "time": 60,
          "velocity": 1
        },
        {
          "duration": 0.2880000000000038,
          "durationTicks": 288,
          "midi": 64,
          "name": "E4",
          "ticks": 60288,
          "time": 60.288,
          "velocity": 1
        },
        {
          "duration": 0.2879999999999967,
          "durationTicks": 288,
          "midi": 64,
          "name": "E4",
          "ticks": 60576,
          "time": 60.576,
          "velocity": 1
        },
        {
          "duration": 0.2880000000000038,
          "durationTicks": 288,
          "midi": 64,
          "name": "E4",
          "ticks": 60864,
          "time": 60.864,
          "velocity": 1
        },
        {
          "duration": 0.2879999999999967,
          "durationTicks": 288,
          "midi": 64,
          "name": "E4",
          "ticks": 61152,
          "time": 61.152,
          "velocity": 1
        },
        {
          "duration": 0.2879999999999967,
          "durationTicks": 288,
          "midi": 64,
          "name": "E4",
          "ticks": 61442,
          "time": 61.44199999999999,
          "velocity": 1
        },
        {
          "duration": 0.2879999999999967,
          "durationTicks": 288,
          "midi": 64,
          "name": "E4",
          "ticks": 62306,
          "time": 62.306000000000004,
          "velocity": 1
        },
        {
          "duration": 0.2879999999999967,
          "durationTicks": 288,
          "midi": 64,
          "name": "E4",
          "ticks": 62596,
          "time": 62.596,
          "velocity": 1
        },
        {
          "duration": 0.2879999999999967,
          "durationTicks": 288,
          "midi": 64,
          "name": "E4",
          "ticks": 62884,
          "time": 62.88399999999999,
          "velocity": 1
        },
        {
          "duration": 0.2880000000000109,
          "durationTicks": 288,
          "midi": 64,
          "name": "E4",
          "ticks": 63172,
          "time": 63.17199999999999,
          "velocity": 1
        },
        {
          "duration": 0.2879999999999967,
          "durationTicks": 288,
          "midi": 64,
          "name": "E4",
          "ticks": 63460,
          "time": 63.46,
          "velocity": 1
        },
        {
          "duration": 0.2879999999999967,
          "durationTicks": 288,
          "midi": 64,
          "name": "E4",
          "ticks": 63750,
          "time": 63.75,
          "velocity": 1
        },
        {
          "duration": 0.2880000000000109,
          "durationTicks": 288,
          "midi": 64,
          "name": "E4",
          "ticks": 83076,
          "time": 83.076,
          "velocity": 1
        },
        {
          "duration": 0.2879999999999967,
          "durationTicks": 288,
          "midi": 64,
          "name": "E4",
          "ticks": 83364,
          "time": 83.364,
          "velocity": 1
        },
        {
          "duration": 0.2879999999999967,
          "durationTicks": 288,
          "midi": 64,
          "name": "E4",
          "ticks": 83652,
          "time": 83.652,
          "velocity": 1
        },
        {
          "duration": 0.2879999999999967,
          "durationTicks": 288,
          "midi": 64,
          "name": "E4",
          "ticks": 83942,
          "time": 83.942,
          "velocity": 1
        },
        {
          "duration": 0.2880000000000109,
          "durationTicks": 288,
          "midi": 64,
          "name": "E4",
          "ticks": 84230,
          "time": 84.22999999999999,
          "velocity": 1
        },
        {
          "duration": 0.2879999999999967,
          "durationTicks": 288,
          "midi": 64,
          "name": "E4",
          "ticks": 84518,
          "time": 84.518,
          "velocity": 1
        },
        {
          "duration": 0.2880000000000109,
          "durationTicks": 288,
          "midi": 64,
          "name": "E4",
          "ticks": 85384,
          "time": 85.38399999999999,
          "velocity": 1
        },
        {
          "duration": 0.2880000000000109,
          "durationTicks": 288,
          "midi": 64,
          "name": "E4",
          "ticks": 85672,
          "time": 85.672,
          "velocity": 1
        },
        {
          "duration": 0.2879999999999967,
          "durationTicks": 288,
          "midi": 64,
          "name": "E4",
          "ticks": 85960,
          "time": 85.96000000000001,
          "velocity": 1
        },
        {
          "duration": 0.2879999999999967,
          "durationTicks": 288,
          "midi": 64,
          "name": "E4",
          "ticks": 86250,
          "time": 86.25,
          "velocity": 1
        },
        {
          "duration": 0.2879999999999967,
          "durationTicks": 288,
          "midi": 64,
          "name": "E4",
          "ticks": 86538,
          "time": 86.538,
          "velocity": 1
        },
        {
          "duration": 0.2880000000000109,
          "durationTicks": 288,
          "midi": 64,
          "name": "E4",
          "ticks": 86826,
          "time": 86.826,
          "velocity": 1
        },
        {
          "duration": 0.2879999999999967,
          "durationTicks": 288,
          "midi": 64,
          "name": "E4",
          "ticks": 87692,
          "time": 87.692,
          "velocity": 1
        },
        {
          "duration": 0.2880000000000109,
          "durationTicks": 288,
          "midi": 64,
          "name": "E4",
          "ticks": 87980,
          "time": 87.97999999999999,
          "velocity": 1
        },
        {
          "duration": 0.2879999999999967,
          "durationTicks": 288,
          "midi": 64,
          "name": "E4",
          "ticks": 88268,
          "time": 88.268,
          "velocity": 1
        },
        {
          "duration": 0.2879999999999967,
          "durationTicks": 288,
          "midi": 64,
          "name": "E4",
          "ticks": 88556,
          "time": 88.556,
          "velocity": 1
        },
        {
          "duration": 0.2879999999999967,
          "durationTicks": 288,
          "midi": 64,
          "name": "E4",
          "ticks": 88846,
          "time": 88.84599999999999,
          "velocity": 1
        },
        {
          "duration": 0.2880000000000109,
          "durationTicks": 288,
          "midi": 64,
          "name": "E4",
          "ticks": 89134,
          "time": 89.13399999999999,
          "velocity": 1
        },
        {
          "duration": 0.2879999999999967,
          "durationTicks": 288,
          "midi": 64,
          "name": "E4",
          "ticks": 90000,
          "time": 90,
          "velocity": 1
        },
        {
          "duration": 0.2879999999999967,
          "durationTicks": 288,
          "midi": 64,
          "name": "E4",
          "ticks": 90288,
          "time": 90.288,
          "velocity": 1
        },
        {
          "duration": 0.2880000000000109,
          "durationTicks": 288,
          "midi": 64,
          "name": "E4",
          "ticks": 90576,
          "time": 90.576,
          "velocity": 1
        },
        {
          "duration": 0.2879999999999967,
          "durationTicks": 288,
          "midi": 64,
          "name": "E4",
          "ticks": 90864,
          "time": 90.864,
          "velocity": 1
        },
        {
          "duration": 0.2879999999999967,
          "durationTicks": 288,
          "midi": 64,
          "name": "E4",
          "ticks": 91152,
          "time": 91.152,
          "velocity": 1
        },
        {
          "duration": 0.2879999999999967,
          "durationTicks": 288,
          "midi": 64,
          "name": "E4",
          "ticks": 91442,
          "time": 91.442,
          "velocity": 1
        },
        {
          "duration": 0.2879999999999967,
          "durationTicks": 288,
          "midi": 64,
          "name": "E4",
          "ticks": 92306,
          "time": 92.306,
          "velocity": 1
        },
        {
          "duration": 0.2879999999999967,
          "durationTicks": 288,
          "midi": 64,
          "name": "E4",
          "ticks": 92596,
          "time": 92.59599999999999,
          "velocity": 1
        },
        {
          "duration": 0.2880000000000109,
          "durationTicks": 288,
          "midi": 64,
          "name": "E4",
          "ticks": 92884,
          "time": 92.88399999999999,
          "velocity": 1
        },
        {
          "duration": 0.2880000000000109,
          "durationTicks": 288,
          "midi": 64,
          "name": "E4",
          "ticks": 93172,
          "time": 93.172,
          "velocity": 1
        },
        {
          "duration": 0.2879999999999967,
          "durationTicks": 288,
          "midi": 64,
          "name": "E4",
          "ticks": 93460,
          "time": 93.46000000000001,
          "velocity": 1
        },
        {
          "duration": 0.2879999999999967,
          "durationTicks": 288,
          "midi": 64,
          "name": "E4",
          "ticks": 93750,
          "time": 93.75,
          "velocity": 1
        },
        {
          "duration": 0.2879999999999967,
          "durationTicks": 288,
          "midi": 64,
          "name": "E4",
          "ticks": 94614,
          "time": 94.614,
          "velocity": 1
        },
        {
          "duration": 0.2879999999999967,
          "durationTicks": 288,
          "midi": 64,
          "name": "E4",
          "ticks": 94902,
          "time": 94.902,
          "velocity": 1
        },
        {
          "duration": 0.2879999999999967,
          "durationTicks": 288,
          "midi": 64,
          "name": "E4",
          "ticks": 95192,
          "time": 95.192,
          "velocity": 1
        },
        {
          "duration": 0.2880000000000109,
          "durationTicks": 288,
          "midi": 64,
          "name": "E4",
          "ticks": 95480,
          "time": 95.47999999999999,
          "velocity": 1
        },
        {
          "duration": 0.2879999999999967,
          "durationTicks": 288,
          "midi": 64,
          "name": "E4",
          "ticks": 95768,
          "time": 95.768,
          "velocity": 1
        },
        {
          "duration": 0.2879999999999967,
          "durationTicks": 288,
          "midi": 64,
          "name": "E4",
          "ticks": 96056,
          "time": 96.056,
          "velocity": 1
        },
        {
          "duration": 0.2880000000000109,
          "durationTicks": 288,
          "midi": 64,
          "name": "E4",
          "ticks": 96922,
          "time": 96.922,
          "velocity": 1
        },
        {
          "duration": 0.2879999999999967,
          "durationTicks": 288,
          "midi": 64,
          "name": "E4",
          "ticks": 97210,
          "time": 97.21000000000001,
          "velocity": 1
        },
        {
          "duration": 0.2879999999999967,
          "durationTicks": 288,
          "midi": 64,
          "name": "E4",
          "ticks": 97500,
          "time": 97.5,
          "velocity": 1
        },
        {
          "duration": 0.2879999999999967,
          "durationTicks": 288,
          "midi": 64,
          "name": "E4",
          "ticks": 97788,
          "time": 97.788,
          "velocity": 1
        },
        {
          "duration": 0.2880000000000109,
          "durationTicks": 288,
          "midi": 64,
          "name": "E4",
          "ticks": 98076,
          "time": 98.076,
          "velocity": 1
        },
        {
          "duration": 0.2879999999999967,
          "durationTicks": 288,
          "midi": 64,
          "name": "E4",
          "ticks": 98364,
          "time": 98.364,
          "velocity": 1
        },
        {
          "duration": 0.2880000000000109,
          "durationTicks": 288,
          "midi": 64,
          "name": "E4",
          "ticks": 99230,
          "time": 99.22999999999999,
          "velocity": 1
        },
        {
          "duration": 0.2879999999999967,
          "durationTicks": 288,
          "midi": 64,
          "name": "E4",
          "ticks": 99518,
          "time": 99.518,
          "velocity": 1
        },
        {
          "duration": 0.2879999999999967,
          "durationTicks": 288,
          "midi": 64,
          "name": "E4",
          "ticks": 99806,
          "time": 99.806,
          "velocity": 1
        },
        {
          "duration": 0.2879999999999967,
          "durationTicks": 288,
          "midi": 64,
          "name": "E4",
          "ticks": 100096,
          "time": 100.09599999999999,
          "velocity": 1
        },
        {
          "duration": 0.2879999999999967,
          "durationTicks": 288,
          "midi": 64,
          "name": "E4",
          "ticks": 100384,
          "time": 100.38399999999999,
          "velocity": 1
        },
        {
          "duration": 0.2880000000000109,
          "durationTicks": 288,
          "midi": 64,
          "name": "E4",
          "ticks": 100672,
          "time": 100.67199999999998,
          "velocity": 1
        },
        {
          "duration": 0.2879999999999967,
          "durationTicks": 288,
          "midi": 64,
          "name": "E4",
          "ticks": 110768,
          "time": 110.768,
          "velocity": 1
        },
        {
          "duration": 0.2879999999999967,
          "durationTicks": 288,
          "midi": 64,
          "name": "E4",
          "ticks": 111056,
          "time": 111.056,
          "velocity": 1
        },
        {
          "duration": 0.2879999999999967,
          "durationTicks": 288,
          "midi": 64,
          "name": "E4",
          "ticks": 111346,
          "time": 111.34599999999999,
          "velocity": 1
        },
        {
          "duration": 0.2879999999999967,
          "durationTicks": 288,
          "midi": 64,
          "name": "E4",
          "ticks": 111634,
          "time": 111.63399999999999,
          "velocity": 1
        },
        {
          "duration": 0.2880000000000109,
          "durationTicks": 288,
          "midi": 64,
          "name": "E4",
          "ticks": 111922,
          "time": 111.92199999999998,
          "velocity": 1
        },
        {
          "duration": 0.2880000000000109,
          "durationTicks": 288,
          "midi": 64,
          "name": "E4",
          "ticks": 112210,
          "time": 112.21,
          "velocity": 1
        },
        {
          "duration": 0.2880000000000109,
          "durationTicks": 288,
          "midi": 64,
          "name": "E4",
          "ticks": 113076,
          "time": 113.076,
          "velocity": 1
        },
        {
          "duration": 0.2879999999999967,
          "durationTicks": 288,
          "midi": 64,
          "name": "E4",
          "ticks": 113364,
          "time": 113.364,
          "velocity": 1
        },
        {
          "duration": 0.2879999999999967,
          "durationTicks": 288,
          "midi": 64,
          "name": "E4",
          "ticks": 113652,
          "time": 113.652,
          "velocity": 1
        },
        {
          "duration": 0.2879999999999967,
          "durationTicks": 288,
          "midi": 64,
          "name": "E4",
          "ticks": 113942,
          "time": 113.942,
          "velocity": 1
        },
        {
          "duration": 0.2880000000000109,
          "durationTicks": 288,
          "midi": 64,
          "name": "E4",
          "ticks": 114230,
          "time": 114.22999999999999,
          "velocity": 1
        },
        {
          "duration": 0.2879999999999967,
          "durationTicks": 288,
          "midi": 64,
          "name": "E4",
          "ticks": 114518,
          "time": 114.518,
          "velocity": 1
        },
        {
          "duration": 0.2879999999999967,
          "durationTicks": 288,
          "midi": 64,
          "name": "E4",
          "ticks": 115384,
          "time": 115.38399999999999,
          "velocity": 1
        },
        {
          "duration": 0.2880000000000109,
          "durationTicks": 288,
          "midi": 64,
          "name": "E4",
          "ticks": 115672,
          "time": 115.67199999999998,
          "velocity": 1
        },
        {
          "duration": 0.2879999999999967,
          "durationTicks": 288,
          "midi": 64,
          "name": "E4",
          "ticks": 115960,
          "time": 115.96,
          "velocity": 1
        },
        {
          "duration": 0.2879999999999967,
          "durationTicks": 288,
          "midi": 64,
          "name": "E4",
          "ticks": 116250,
          "time": 116.25,
          "velocity": 1
        },
        {
          "duration": 0.2879999999999967,
          "durationTicks": 288,
          "midi": 64,
          "name": "E4",
          "ticks": 116538,
          "time": 116.538,
          "velocity": 1
        },
        {
          "duration": 0.2880000000000109,
          "durationTicks": 288,
          "midi": 64,
          "name": "E4",
          "ticks": 116826,
          "time": 116.826,
          "velocity": 1
        },
        {
          "duration": 0.2879999999999967,
          "durationTicks": 288,
          "midi": 64,
          "name": "E4",
          "ticks": 120000,
          "time": 120,
          "velocity": 1
        },
        {
          "duration": 0.2879999999999967,
          "durationTicks": 288,
          "midi": 64,
          "name": "E4",
          "ticks": 120288,
          "time": 120.288,
          "velocity": 1
        },
        {
          "duration": 0.2880000000000109,
          "durationTicks": 288,
          "midi": 64,
          "name": "E4",
          "ticks": 120576,
          "time": 120.576,
          "velocity": 1
        },
        {
          "duration": 0.2879999999999967,
          "durationTicks": 288,
          "midi": 64,
          "name": "E4",
          "ticks": 120864,
          "time": 120.864,
          "velocity": 1
        },
        {
          "duration": 0.2879999999999967,
          "durationTicks": 288,
          "midi": 64,
          "name": "E4",
          "ticks": 121152,
          "time": 121.152,
          "velocity": 1
        },
        {
          "duration": 0.2879999999999967,
          "durationTicks": 288,
          "midi": 64,
          "name": "E4",
          "ticks": 121442,
          "time": 121.442,
          "velocity": 1
        },
        {
          "duration": 0.2879999999999967,
          "durationTicks": 288,
          "midi": 64,
          "name": "E4",
          "ticks": 122306,
          "time": 122.306,
          "velocity": 1
        },
        {
          "duration": 0.2879999999999967,
          "durationTicks": 288,
          "midi": 64,
          "name": "E4",
          "ticks": 122596,
          "time": 122.59599999999999,
          "velocity": 1
        },
        {
          "duration": 0.2880000000000109,
          "durationTicks": 288,
          "midi": 64,
          "name": "E4",
          "ticks": 122884,
          "time": 122.88399999999999,
          "velocity": 1
        },
        {
          "duration": 0.2879999999999825,
          "durationTicks": 288,
          "midi": 64,
          "name": "E4",
          "ticks": 123172,
          "time": 123.172,
          "velocity": 1
        },
        {
          "duration": 0.2880000000000109,
          "durationTicks": 288,
          "midi": 64,
          "name": "E4",
          "ticks": 123460,
          "time": 123.45999999999998,
          "velocity": 1
        },
        {
          "duration": 0.2880000000000109,
          "durationTicks": 288,
          "midi": 64,
          "name": "E4",
          "ticks": 123750,
          "time": 123.75,
          "velocity": 1
        },
        {
          "duration": 0.2879999999999825,
          "durationTicks": 288,
          "midi": 64,
          "name": "E4",
          "ticks": 124614,
          "time": 124.614,
          "velocity": 1
        },
        {
          "duration": 0.2880000000000109,
          "durationTicks": 288,
          "midi": 64,
          "name": "E4",
          "ticks": 124902,
          "time": 124.90199999999999,
          "velocity": 1
        },
        {
          "duration": 0.2880000000000109,
          "durationTicks": 288,
          "midi": 64,
          "name": "E4",
          "ticks": 125192,
          "time": 125.192,
          "velocity": 1
        },
        {
          "duration": 0.2879999999999825,
          "durationTicks": 288,
          "midi": 64,
          "name": "E4",
          "ticks": 125480,
          "time": 125.48,
          "velocity": 1
        },
        {
          "duration": 0.2880000000000109,
          "durationTicks": 288,
          "midi": 64,
          "name": "E4",
          "ticks": 125768,
          "time": 125.76799999999999,
          "velocity": 1
        },
        {
          "duration": 0.2879999999999825,
          "durationTicks": 288,
          "midi": 64,
          "name": "E4",
          "ticks": 126056,
          "time": 126.056,
          "velocity": 1
        },
        {
          "duration": 0.2879999999999825,
          "durationTicks": 288,
          "midi": 64,
          "name": "E4",
          "ticks": 126922,
          "time": 126.922,
          "velocity": 1
        },
        {
          "duration": 0.2880000000000109,
          "durationTicks": 288,
          "midi": 64,
          "name": "E4",
          "ticks": 127210,
          "time": 127.20999999999998,
          "velocity": 1
        },
        {
          "duration": 0.2880000000000109,
          "durationTicks": 288,
          "midi": 64,
          "name": "E4",
          "ticks": 127500,
          "time": 127.5,
          "velocity": 1
        },
        {
          "duration": 0.2879999999999825,
          "durationTicks": 288,
          "midi": 64,
          "name": "E4",
          "ticks": 127788,
          "time": 127.78800000000001,
          "velocity": 1
        },
        {
          "duration": 0.2880000000000109,
          "durationTicks": 288,
          "midi": 64,
          "name": "E4",
          "ticks": 128076,
          "time": 128.076,
          "velocity": 1
        },
        {
          "duration": 0.2879999999999825,
          "durationTicks": 288,
          "midi": 64,
          "name": "E4",
          "ticks": 128364,
          "time": 128.364,
          "velocity": 1
        },
        {
          "duration": 0.2879999999999825,
          "durationTicks": 288,
          "midi": 64,
          "name": "E4",
          "ticks": 129230,
          "time": 129.23000000000002,
          "velocity": 1
        },
        {
          "duration": 0.2880000000000109,
          "durationTicks": 288,
          "midi": 64,
          "name": "E4",
          "ticks": 129518,
          "time": 129.518,
          "velocity": 1
        },
        {
          "duration": 0.2879999999999825,
          "durationTicks": 288,
          "midi": 64,
          "name": "E4",
          "ticks": 129806,
          "time": 129.806,
          "velocity": 1
        },
        {
          "duration": 0.2879999999999825,
          "durationTicks": 288,
          "midi": 64,
          "name": "E4",
          "ticks": 130096,
          "time": 130.096,
          "velocity": 1
        },
        {
          "duration": 0.2880000000000109,
          "durationTicks": 288,
          "midi": 64,
          "name": "E4",
          "ticks": 130384,
          "time": 130.384,
          "velocity": 1
        },
        {
          "duration": 0.2879999999999825,
          "durationTicks": 288,
          "midi": 64,
          "name": "E4",
          "ticks": 130672,
          "time": 130.672,
          "velocity": 1
        },
        {
          "duration": 0.2879999999999825,
          "durationTicks": 288,
          "midi": 64,
          "name": "E4",
          "ticks": 131538,
          "time": 131.538,
          "velocity": 1
        },
        {
          "duration": 0.2880000000000109,
          "durationTicks": 288,
          "midi": 64,
          "name": "E4",
          "ticks": 131826,
          "time": 131.826,
          "velocity": 1
        },
        {
          "duration": 0.2879999999999825,
          "durationTicks": 288,
          "midi": 64,
          "name": "E4",
          "ticks": 132114,
          "time": 132.114,
          "velocity": 1
        },
        {
          "duration": 0.2880000000000109,
          "durationTicks": 288,
          "midi": 64,
          "name": "E4",
          "ticks": 132402,
          "time": 132.402,
          "velocity": 1
        },
        {
          "duration": 0.2880000000000109,
          "durationTicks": 288,
          "midi": 64,
          "name": "E4",
          "ticks": 132692,
          "time": 132.692,
          "velocity": 1
        },
        {
          "duration": 0.2879999999999825,
          "durationTicks": 288,
          "midi": 64,
          "name": "E4",
          "ticks": 132980,
          "time": 132.98000000000002,
          "velocity": 1
        },
        {
          "duration": 0.2879999999999825,
          "durationTicks": 288,
          "midi": 64,
          "name": "E4",
          "ticks": 133846,
          "time": 133.846,
          "velocity": 1
        },
        {
          "duration": 0.2880000000000109,
          "durationTicks": 288,
          "midi": 64,
          "name": "E4",
          "ticks": 134134,
          "time": 134.134,
          "velocity": 1
        },
        {
          "duration": 0.2879999999999825,
          "durationTicks": 288,
          "midi": 64,
          "name": "E4",
          "ticks": 134422,
          "time": 134.422,
          "velocity": 1
        },
        {
          "duration": 0.2880000000000109,
          "durationTicks": 288,
          "midi": 64,
          "name": "E4",
          "ticks": 134710,
          "time": 134.70999999999998,
          "velocity": 1
        },
        {
          "duration": 0.2880000000000109,
          "durationTicks": 288,
          "midi": 64,
          "name": "E4",
          "ticks": 135000,
          "time": 135,
          "velocity": 1
        },
        {
          "duration": 0.2879999999999825,
          "durationTicks": 288,
          "midi": 64,
          "name": "E4",
          "ticks": 135288,
          "time": 135.288,
          "velocity": 1
        },
        {
          "duration": 0.2880000000000109,
          "durationTicks": 288,
          "midi": 64,
          "name": "E4",
          "ticks": 136152,
          "time": 136.152,
          "velocity": 1
        },
        {
          "duration": 0.2880000000000109,
          "durationTicks": 288,
          "midi": 64,
          "name": "E4",
          "ticks": 136442,
          "time": 136.442,
          "velocity": 1
        },
        {
          "duration": 0.2879999999999825,
          "durationTicks": 288,
          "midi": 64,
          "name": "E4",
          "ticks": 136730,
          "time": 136.73000000000002,
          "velocity": 1
        },
        {
          "duration": 0.2880000000000109,
          "durationTicks": 288,
          "midi": 64,
          "name": "E4",
          "ticks": 137018,
          "time": 137.018,
          "velocity": 1
        },
        {
          "duration": 0.2879999999999825,
          "durationTicks": 288,
          "midi": 64,
          "name": "E4",
          "ticks": 137306,
          "time": 137.306,
          "velocity": 1
        },
        {
          "duration": 0.2879999999999825,
          "durationTicks": 288,
          "midi": 64,
          "name": "E4",
          "ticks": 137596,
          "time": 137.596,
          "velocity": 1
        },
        {
          "duration": 0.2880000000000109,
          "durationTicks": 288,
          "midi": 65,
          "name": "F4",
          "ticks": 138460,
          "time": 138.45999999999998,
          "velocity": 1
        },
        {
          "duration": 0.2880000000000109,
          "durationTicks": 288,
          "midi": 65,
          "name": "F4",
          "ticks": 138750,
          "time": 138.75,
          "velocity": 1
        },
        {
          "duration": 0.2879999999999825,
          "durationTicks": 288,
          "midi": 65,
          "name": "F4",
          "ticks": 139038,
          "time": 139.038,
          "velocity": 1
        },
        {
          "duration": 0.2880000000000109,
          "durationTicks": 288,
          "midi": 65,
          "name": "F4",
          "ticks": 139326,
          "time": 139.326,
          "velocity": 1
        },
        {
          "duration": 0.2879999999999825,
          "durationTicks": 288,
          "midi": 65,
          "name": "F4",
          "ticks": 139614,
          "time": 139.614,
          "velocity": 1
        },
        {
          "duration": 0.2880000000000109,
          "durationTicks": 288,
          "midi": 65,
          "name": "F4",
          "ticks": 139902,
          "time": 139.902,
          "velocity": 1
        },
        {
          "duration": 0.2880000000000109,
          "durationTicks": 288,
          "midi": 65,
          "name": "F4",
          "ticks": 140768,
          "time": 140.768,
          "velocity": 1
        },
        {
          "duration": 0.2879999999999825,
          "durationTicks": 288,
          "midi": 65,
          "name": "F4",
          "ticks": 141056,
          "time": 141.056,
          "velocity": 1
        },
        {
          "duration": 0.2879999999999825,
          "durationTicks": 288,
          "midi": 65,
          "name": "F4",
          "ticks": 141346,
          "time": 141.346,
          "velocity": 1
        },
        {
          "duration": 0.2880000000000109,
          "durationTicks": 288,
          "midi": 65,
          "name": "F4",
          "ticks": 141634,
          "time": 141.634,
          "velocity": 1
        },
        {
          "duration": 0.2879999999999825,
          "durationTicks": 288,
          "midi": 65,
          "name": "F4",
          "ticks": 141922,
          "time": 141.922,
          "velocity": 1
        },
        {
          "duration": 0.2880000000000109,
          "durationTicks": 288,
          "midi": 65,
          "name": "F4",
          "ticks": 142210,
          "time": 142.20999999999998,
          "velocity": 1
        },
        {
          "duration": 0.2880000000000109,
          "durationTicks": 288,
          "midi": 65,
          "name": "F4",
          "ticks": 143076,
          "time": 143.076,
          "velocity": 1
        },
        {
          "duration": 0.2879999999999825,
          "durationTicks": 288,
          "midi": 65,
          "name": "F4",
          "ticks": 143364,
          "time": 143.364,
          "velocity": 1
        },
        {
          "duration": 0.2880000000000109,
          "durationTicks": 288,
          "midi": 65,
          "name": "F4",
          "ticks": 143652,
          "time": 143.652,
          "velocity": 1
        },
        {
          "duration": 0.2880000000000109,
          "durationTicks": 288,
          "midi": 65,
          "name": "F4",
          "ticks": 143942,
          "time": 143.94199999999998,
          "velocity": 1
        },
        {
          "duration": 0.2880000000000109,
          "durationTicks": 288,
          "midi": 65,
          "name": "F4",
          "ticks": 144230,
          "time": 144.23,
          "velocity": 1
        },
        {
          "duration": 0.2880000000000109,
          "durationTicks": 288,
          "midi": 65,
          "name": "F4",
          "ticks": 144518,
          "time": 144.518,
          "velocity": 1
        },
        {
          "duration": 0.2880000000000109,
          "durationTicks": 288,
          "midi": 65,
          "name": "F4",
          "ticks": 145384,
          "time": 145.384,
          "velocity": 1
        },
        {
          "duration": 0.2879999999999825,
          "durationTicks": 288,
          "midi": 65,
          "name": "F4",
          "ticks": 145672,
          "time": 145.672,
          "velocity": 1
        },
        {
          "duration": 0.2880000000000109,
          "durationTicks": 288,
          "midi": 65,
          "name": "F4",
          "ticks": 145960,
          "time": 145.95999999999998,
          "velocity": 1
        },
        {
          "duration": 0.2880000000000109,
          "durationTicks": 288,
          "midi": 65,
          "name": "F4",
          "ticks": 146250,
          "time": 146.25,
          "velocity": 1
        },
        {
          "duration": 0.2879999999999825,
          "durationTicks": 288,
          "midi": 65,
          "name": "F4",
          "ticks": 146538,
          "time": 146.538,
          "velocity": 1
        },
        {
          "duration": 0.2880000000000109,
          "durationTicks": 288,
          "midi": 65,
          "name": "F4",
          "ticks": 146826,
          "time": 146.826,
          "velocity": 1
        },
        {
          "duration": 0.2880000000000109,
          "durationTicks": 288,
          "midi": 65,
          "name": "F4",
          "ticks": 147692,
          "time": 147.69199999999998,
          "velocity": 1
        },
        {
          "duration": 0.2880000000000109,
          "durationTicks": 288,
          "midi": 65,
          "name": "F4",
          "ticks": 147980,
          "time": 147.98,
          "velocity": 1
        },
        {
          "duration": 0.2880000000000109,
          "durationTicks": 288,
          "midi": 65,
          "name": "F4",
          "ticks": 148268,
          "time": 148.268,
          "velocity": 1
        },
        {
          "duration": 0.2879999999999825,
          "durationTicks": 288,
          "midi": 65,
          "name": "F4",
          "ticks": 148556,
          "time": 148.556,
          "velocity": 1
        },
        {
          "duration": 0.2879999999999825,
          "durationTicks": 288,
          "midi": 65,
          "name": "F4",
          "ticks": 148846,
          "time": 148.846,
          "velocity": 1
        },
        {
          "duration": 0.2880000000000109,
          "durationTicks": 288,
          "midi": 65,
          "name": "F4",
          "ticks": 149134,
          "time": 149.134,
          "velocity": 1
        },
        {
          "duration": 0.2880000000000109,
          "durationTicks": 288,
          "midi": 65,
          "name": "F4",
          "ticks": 150000,
          "time": 150,
          "velocity": 1
        },
        {
          "duration": 0.2879999999999825,
          "durationTicks": 288,
          "midi": 65,
          "name": "F4",
          "ticks": 150288,
          "time": 150.288,
          "velocity": 1
        },
        {
          "duration": 0.2880000000000109,
          "durationTicks": 288,
          "midi": 65,
          "name": "F4",
          "ticks": 150576,
          "time": 150.576,
          "velocity": 1
        },
        {
          "duration": 0.2879999999999825,
          "durationTicks": 288,
          "midi": 65,
          "name": "F4",
          "ticks": 150864,
          "time": 150.864,
          "velocity": 1
        },
        {
          "duration": 0.2880000000000109,
          "durationTicks": 288,
          "midi": 65,
          "name": "F4",
          "ticks": 151152,
          "time": 151.152,
          "velocity": 1
        },
        {
          "duration": 0.2880000000000109,
          "durationTicks": 288,
          "midi": 65,
          "name": "F4",
          "ticks": 151442,
          "time": 151.44199999999998,
          "velocity": 1
        },
        {
          "duration": 0.2879999999999825,
          "durationTicks": 288,
          "midi": 65,
          "name": "F4",
          "ticks": 152306,
          "time": 152.306,
          "velocity": 1
        },
        {
          "duration": 0.2879999999999825,
          "durationTicks": 288,
          "midi": 65,
          "name": "F4",
          "ticks": 152596,
          "time": 152.596,
          "velocity": 1
        },
        {
          "duration": 0.2880000000000109,
          "durationTicks": 288,
          "midi": 65,
          "name": "F4",
          "ticks": 152884,
          "time": 152.884,
          "velocity": 1
        },
        {
          "duration": 0.2879999999999825,
          "durationTicks": 288,
          "midi": 65,
          "name": "F4",
          "ticks": 153172,
          "time": 153.172,
          "velocity": 1
        },
        {
          "duration": 0.2880000000000109,
          "durationTicks": 288,
          "midi": 65,
          "name": "F4",
          "ticks": 153460,
          "time": 153.45999999999998,
          "velocity": 1
        },
        {
          "duration": 0.2880000000000109,
          "durationTicks": 288,
          "midi": 65,
          "name": "F4",
          "ticks": 153750,
          "time": 153.75,
          "velocity": 1
        },
        {
          "duration": 0.2879999999999825,
          "durationTicks": 288,
          "midi": 65,
          "name": "F4",
          "ticks": 154614,
          "time": 154.614,
          "velocity": 1
        },
        {
          "duration": 0.2880000000000109,
          "durationTicks": 288,
          "midi": 65,
          "name": "F4",
          "ticks": 154902,
          "time": 154.902,
          "velocity": 1
        },
        {
          "duration": 0.2880000000000109,
          "durationTicks": 288,
          "midi": 65,
          "name": "F4",
          "ticks": 155192,
          "time": 155.19199999999998,
          "velocity": 1
        },
        {
          "duration": 0.2880000000000109,
          "durationTicks": 288,
          "midi": 65,
          "name": "F4",
          "ticks": 155480,
          "time": 155.48,
          "velocity": 1
        },
        {
          "duration": 0.2880000000000109,
          "durationTicks": 288,
          "midi": 65,
          "name": "F4",
          "ticks": 155768,
          "time": 155.768,
          "velocity": 1
        },
        {
          "duration": 0.2879999999999825,
          "durationTicks": 288,
          "midi": 65,
          "name": "F4",
          "ticks": 156056,
          "time": 156.056,
          "velocity": 1
        }
      ]
    },
    {
      "channel": 0,
      "controlChanges": {},
      "pitchBends": [],
      "instrument": {
        "family": "piano",
        "number": 0,
        "name": "acoustic grand piano"
      },
      "name": "忍者_爱给网_aigei_com",
      "notes": [],
      "endOfTrackTicks": 157440
    },
    {
      "channel": 6,
      "controlChanges": {
        "7": [
          {
            "number": 7,
            "ticks": 0,
            "time": 0,
            "value": 1
          }
        ]
      },
      "pitchBends": [],
      "instrument": {
        "family": "world",
        "number": 106,
        "name": "shamisen"
      },
      "name": "",
      "notes": [
        {
          "duration": 0.144,
          "durationTicks": 144,
          "midi": 76,
          "name": "E5",
          "ticks": 0,
          "time": 0,
          "velocity": 1
        },
        {
          "duration": 0.14400000000000002,
          "durationTicks": 144,
          "midi": 69,
          "name": "A4",
          "ticks": 576,
          "time": 0.576,
          "velocity": 1
        },
        {
          "duration": 0.14400000000000013,
          "durationTicks": 144,
          "midi": 71,
          "name": "B4",
          "ticks": 1152,
          "time": 1.152,
          "velocity": 1
        },
        {
          "duration": 0.1439999999999999,
          "durationTicks": 144,
          "midi": 69,
          "name": "A4",
          "ticks": 1442,
          "time": 1.442,
          "velocity": 1
        },
        {
          "duration": 0.14400000000000013,
          "durationTicks": 144,
          "midi": 65,
          "name": "F4",
          "ticks": 1730,
          "time": 1.7299999999999998,
          "velocity": 1
        },
        {
          "duration": 0.14400000000000013,
          "durationTicks": 144,
          "midi": 64,
          "name": "E4",
          "ticks": 2018,
          "time": 2.018,
          "velocity": 1
        },
        {
          "duration": 0.14400000000000057,
          "durationTicks": 144,
          "midi": 76,
          "name": "E5",
          "ticks": 2306,
          "time": 2.3059999999999996,
          "velocity": 1
        },
        {
          "duration": 0.14400000000000013,
          "durationTicks": 144,
          "midi": 69,
          "name": "A4",
          "ticks": 2884,
          "time": 2.884,
          "velocity": 1
        },
        {
          "duration": 0.14400000000000057,
          "durationTicks": 144,
          "midi": 71,
          "name": "B4",
          "ticks": 3460,
          "time": 3.4599999999999995,
          "velocity": 1
        },
        {
          "duration": 0.14400000000000013,
          "durationTicks": 144,
          "midi": 69,
          "name": "A4",
          "ticks": 3750,
          "time": 3.75,
          "velocity": 1
        },
        {
          "duration": 0.14400000000000102,
          "durationTicks": 144,
          "midi": 65,
          "name": "F4",
          "ticks": 4038,
          "time": 4.037999999999999,
          "velocity": 1
        },
        {
          "duration": 0.14400000000000013,
          "durationTicks": 144,
          "midi": 64,
          "name": "E4",
          "ticks": 4326,
          "time": 4.326,
          "velocity": 1
        },
        {
          "duration": 0.14400000000000013,
          "durationTicks": 144,
          "midi": 76,
          "name": "E5",
          "ticks": 4614,
          "time": 4.614,
          "velocity": 1
        },
        {
          "duration": 0.14400000000000102,
          "durationTicks": 144,
          "midi": 69,
          "name": "A4",
          "ticks": 5192,
          "time": 5.191999999999999,
          "velocity": 1
        },
        {
          "duration": 0.14400000000000013,
          "durationTicks": 144,
          "midi": 71,
          "name": "B4",
          "ticks": 5624,
          "time": 5.624,
          "velocity": 1
        },
        {
          "duration": 0.14399999999999924,
          "durationTicks": 144,
          "midi": 69,
          "name": "A4",
          "ticks": 6056,
          "time": 6.056,
          "velocity": 1
        },
        {
          "duration": 0.14400000000000013,
          "durationTicks": 144,
          "midi": 65,
          "name": "F4",
          "ticks": 6346,
          "time": 6.346,
          "velocity": 1
        },
        {
          "duration": 0.14400000000000013,
          "durationTicks": 144,
          "midi": 64,
          "name": "E4",
          "ticks": 6634,
          "time": 6.6339999999999995,
          "velocity": 1
        },
        {
          "duration": 0.14400000000000013,
          "durationTicks": 144,
          "midi": 76,
          "name": "E5",
          "ticks": 6922,
          "time": 6.922,
          "velocity": 1
        },
        {
          "duration": 0.14400000000000013,
          "durationTicks": 144,
          "midi": 69,
          "name": "A4",
          "ticks": 7500,
          "time": 7.5,
          "velocity": 1
        },
        {
          "duration": 0.14400000000000013,
          "durationTicks": 144,
          "midi": 71,
          "name": "B4",
          "ticks": 7932,
          "time": 7.931999999999999,
          "velocity": 1
        },
        {
          "duration": 0.14400000000000013,
          "durationTicks": 144,
          "midi": 69,
          "name": "A4",
          "ticks": 8364,
          "time": 8.364,
          "velocity": 1
        },
        {
          "duration": 0.14400000000000013,
          "durationTicks": 144,
          "midi": 65,
          "name": "F4",
          "ticks": 8652,
          "time": 8.652,
          "velocity": 1
        },
        {
          "duration": 0.14400000000000013,
          "durationTicks": 144,
          "midi": 64,
          "name": "E4",
          "ticks": 8942,
          "time": 8.942,
          "velocity": 1
        },
        {
          "duration": 0.14399999999999835,
          "durationTicks": 144,
          "midi": 76,
          "name": "E5",
          "ticks": 9230,
          "time": 9.23,
          "velocity": 1
        },
        {
          "duration": 0.1440000000000019,
          "durationTicks": 144,
          "midi": 69,
          "name": "A4",
          "ticks": 9806,
          "time": 9.806,
          "velocity": 1
        },
        {
          "duration": 0.1440000000000019,
          "durationTicks": 144,
          "midi": 71,
          "name": "B4",
          "ticks": 10384,
          "time": 10.383999999999999,
          "velocity": 1
        },
        {
          "duration": 0.14400000000000013,
          "durationTicks": 144,
          "midi": 69,
          "name": "A4",
          "ticks": 10672,
          "time": 10.672,
          "velocity": 1
        },
        {
          "duration": 0.14400000000000013,
          "durationTicks": 144,
          "midi": 65,
          "name": "F4",
          "ticks": 10960,
          "time": 10.959999999999999,
          "velocity": 1
        },
        {
          "duration": 0.14400000000000013,
          "durationTicks": 144,
          "midi": 64,
          "name": "E4",
          "ticks": 11250,
          "time": 11.25,
          "velocity": 1
        },
        {
          "duration": 0.14399999999999835,
          "durationTicks": 144,
          "midi": 76,
          "name": "E5",
          "ticks": 11538,
          "time": 11.538,
          "velocity": 1
        },
        {
          "duration": 0.14400000000000013,
          "durationTicks": 144,
          "midi": 69,
          "name": "A4",
          "ticks": 12114,
          "time": 12.114,
          "velocity": 1
        },
        {
          "duration": 0.14400000000000013,
          "durationTicks": 144,
          "midi": 71,
          "name": "B4",
          "ticks": 12692,
          "time": 12.692,
          "velocity": 1
        },
        {
          "duration": 0.14399999999999835,
          "durationTicks": 144,
          "midi": 69,
          "name": "A4",
          "ticks": 12980,
          "time": 12.98,
          "velocity": 1
        },
        {
          "duration": 0.14400000000000013,
          "durationTicks": 144,
          "midi": 65,
          "name": "F4",
          "ticks": 13268,
          "time": 13.267999999999999,
          "velocity": 1
        },
        {
          "duration": 0.14400000000000013,
          "durationTicks": 144,
          "midi": 64,
          "name": "E4",
          "ticks": 13556,
          "time": 13.556,
          "velocity": 1
        },
        {
          "duration": 0.14399999999999835,
          "durationTicks": 144,
          "midi": 76,
          "name": "E5",
          "ticks": 13846,
          "time": 13.846,
          "velocity": 1
        },
        {
          "duration": 0.14400000000000013,
          "durationTicks": 144,
          "midi": 69,
          "name": "A4",
          "ticks": 14422,
          "time": 14.422,
          "velocity": 1
        },
        {
          "duration": 0.14400000000000013,
          "durationTicks": 144,
          "midi": 71,
          "name": "B4",
          "ticks": 14854,
          "time": 14.854,
          "velocity": 1
        },
        {
          "duration": 0.14399999999999835,
          "durationTicks": 144,
          "midi": 69,
          "name": "A4",
          "ticks": 15288,
          "time": 15.288,
          "velocity": 1
        },
        {
          "duration": 0.14399999999999835,
          "durationTicks": 144,
          "midi": 65,
          "name": "F4",
          "ticks": 15576,
          "time": 15.576,
          "velocity": 1
        },
        {
          "duration": 0.1440000000000019,
          "durationTicks": 144,
          "midi": 64,
          "name": "E4",
          "ticks": 15864,
          "time": 15.863999999999997,
          "velocity": 1
        },
        {
          "duration": 0.1440000000000019,
          "durationTicks": 144,
          "midi": 76,
          "name": "E5",
          "ticks": 16152,
          "time": 16.151999999999997,
          "velocity": 1
        },
        {
          "duration": 0.1440000000000019,
          "durationTicks": 144,
          "midi": 69,
          "name": "A4",
          "ticks": 16730,
          "time": 16.729999999999997,
          "velocity": 1
        },
        {
          "duration": 0.14399999999999835,
          "durationTicks": 144,
          "midi": 71,
          "name": "B4",
          "ticks": 17162,
          "time": 17.162000000000003,
          "velocity": 1
        },
        {
          "duration": 0.1440000000000019,
          "durationTicks": 144,
          "midi": 69,
          "name": "A4",
          "ticks": 17596,
          "time": 17.596,
          "velocity": 1
        },
        {
          "duration": 0.14399999999999835,
          "durationTicks": 144,
          "midi": 65,
          "name": "F4",
          "ticks": 17884,
          "time": 17.884,
          "velocity": 1
        },
        {
          "duration": 0.14399999999999835,
          "durationTicks": 144,
          "midi": 64,
          "name": "E4",
          "ticks": 18172,
          "time": 18.172,
          "velocity": 1
        },
        {
          "duration": 0.14399999999999835,
          "durationTicks": 144,
          "midi": 76,
          "name": "E5",
          "ticks": 18460,
          "time": 18.46,
          "velocity": 1
        },
        {
          "duration": 0.14399999999999835,
          "durationTicks": 144,
          "midi": 69,
          "name": "A4",
          "ticks": 19038,
          "time": 19.038,
          "velocity": 1
        },
        {
          "duration": 0.1440000000000019,
          "durationTicks": 144,
          "midi": 71,
          "name": "B4",
          "ticks": 19614,
          "time": 19.613999999999997,
          "velocity": 1
        },
        {
          "duration": 0.1440000000000019,
          "durationTicks": 144,
          "midi": 69,
          "name": "A4",
          "ticks": 19902,
          "time": 19.901999999999997,
          "velocity": 1
        },
        {
          "duration": 0.14399999999999835,
          "durationTicks": 144,
          "midi": 65,
          "name": "F4",
          "ticks": 20192,
          "time": 20.192,
          "velocity": 1
        },
        {
          "duration": 0.1440000000000019,
          "durationTicks": 144,
          "midi": 64,
          "name": "E4",
          "ticks": 20480,
          "time": 20.479999999999997,
          "velocity": 1
        },
        {
          "duration": 0.14400000000000546,
          "durationTicks": 144,
          "midi": 76,
          "name": "E5",
          "ticks": 20768,
          "time": 20.767999999999997,
          "velocity": 1
        },
        {
          "duration": 0.14400000000000546,
          "durationTicks": 144,
          "midi": 69,
          "name": "A4",
          "ticks": 21346,
          "time": 21.345999999999997,
          "velocity": 1
        },
        {
          "duration": 0.14399999999999835,
          "durationTicks": 144,
          "midi": 71,
          "name": "B4",
          "ticks": 21922,
          "time": 21.922,
          "velocity": 1
        },
        {
          "duration": 0.14399999999999835,
          "durationTicks": 144,
          "midi": 69,
          "name": "A4",
          "ticks": 22210,
          "time": 22.21,
          "velocity": 1
        },
        {
          "duration": 0.14399999999999835,
          "durationTicks": 144,
          "midi": 65,
          "name": "F4",
          "ticks": 22500,
          "time": 22.5,
          "velocity": 1
        },
        {
          "duration": 0.14399999999999835,
          "durationTicks": 144,
          "midi": 64,
          "name": "E4",
          "ticks": 22788,
          "time": 22.788,
          "velocity": 1
        },
        {
          "duration": 0.14399999999999835,
          "durationTicks": 144,
          "midi": 76,
          "name": "E5",
          "ticks": 23076,
          "time": 23.076,
          "velocity": 1
        },
        {
          "duration": 0.1440000000000019,
          "durationTicks": 144,
          "midi": 69,
          "name": "A4",
          "ticks": 23652,
          "time": 23.651999999999997,
          "velocity": 1
        },
        {
          "duration": 0.14399999999999835,
          "durationTicks": 144,
          "midi": 71,
          "name": "B4",
          "ticks": 24086,
          "time": 24.086,
          "velocity": 1
        },
        {
          "duration": 0.1440000000000019,
          "durationTicks": 144,
          "midi": 69,
          "name": "A4",
          "ticks": 24518,
          "time": 24.517999999999997,
          "velocity": 1
        },
        {
          "duration": 0.14399999999999835,
          "durationTicks": 144,
          "midi": 65,
          "name": "F4",
          "ticks": 24806,
          "time": 24.806,
          "velocity": 1
        },
        {
          "duration": 0.1440000000000019,
          "durationTicks": 144,
          "midi": 64,
          "name": "E4",
          "ticks": 25096,
          "time": 25.095999999999997,
          "velocity": 1
        },
        {
          "duration": 0.14399999999999835,
          "durationTicks": 144,
          "midi": 76,
          "name": "E5",
          "ticks": 25384,
          "time": 25.384,
          "velocity": 1
        },
        {
          "duration": 0.14399999999999835,
          "durationTicks": 144,
          "midi": 69,
          "name": "A4",
          "ticks": 25960,
          "time": 25.96,
          "velocity": 1
        },
        {
          "duration": 0.1440000000000019,
          "durationTicks": 144,
          "midi": 71,
          "name": "B4",
          "ticks": 26394,
          "time": 26.394,
          "velocity": 1
        },
        {
          "duration": 0.14399999999999835,
          "durationTicks": 144,
          "midi": 69,
          "name": "A4",
          "ticks": 26826,
          "time": 26.826,
          "velocity": 1
        },
        {
          "duration": 0.1440000000000019,
          "durationTicks": 144,
          "midi": 65,
          "name": "F4",
          "ticks": 27114,
          "time": 27.113999999999997,
          "velocity": 1
        },
        {
          "duration": 0.1440000000000019,
          "durationTicks": 144,
          "midi": 64,
          "name": "E4",
          "ticks": 27402,
          "time": 27.401999999999997,
          "velocity": 1
        },
        {
          "duration": 0.14399999999999835,
          "durationTicks": 144,
          "midi": 76,
          "name": "E5",
          "ticks": 27692,
          "time": 27.692,
          "velocity": 1
        },
        {
          "duration": 0.1440000000000019,
          "durationTicks": 144,
          "midi": 69,
          "name": "A4",
          "ticks": 28268,
          "time": 28.267999999999997,
          "velocity": 1
        },
        {
          "duration": 0.1440000000000019,
          "durationTicks": 144,
          "midi": 71,
          "name": "B4",
          "ticks": 28846,
          "time": 28.845999999999997,
          "velocity": 1
        },
        {
          "duration": 0.14399999999999835,
          "durationTicks": 144,
          "midi": 69,
          "name": "A4",
          "ticks": 29134,
          "time": 29.134,
          "velocity": 1
        },
        {
          "duration": 0.14399999999999835,
          "durationTicks": 144,
          "midi": 65,
          "name": "F4",
          "ticks": 29422,
          "time": 29.422,
          "velocity": 1
        },
        {
          "duration": 0.14399999999999835,
          "durationTicks": 144,
          "midi": 64,
          "name": "E4",
          "ticks": 29710,
          "time": 29.71,
          "velocity": 1
        },
        {
          "duration": 0.14399999999999835,
          "durationTicks": 144,
          "midi": 76,
          "name": "E5",
          "ticks": 30000,
          "time": 30,
          "velocity": 1
        },
        {
          "duration": 0.14399999999999835,
          "durationTicks": 144,
          "midi": 69,
          "name": "A4",
          "ticks": 30576,
          "time": 30.576,
          "velocity": 1
        },
        {
          "duration": 0.14399999999999835,
          "durationTicks": 144,
          "midi": 71,
          "name": "B4",
          "ticks": 31152,
          "time": 31.152,
          "velocity": 1
        },
        {
          "duration": 0.14399999999999835,
          "durationTicks": 144,
          "midi": 69,
          "name": "A4",
          "ticks": 31442,
          "time": 31.441999999999997,
          "velocity": 1
        },
        {
          "duration": 0.14399999999999835,
          "durationTicks": 144,
          "midi": 65,
          "name": "F4",
          "ticks": 31730,
          "time": 31.73,
          "velocity": 1
        },
        {
          "duration": 0.14399999999999835,
          "durationTicks": 144,
          "midi": 64,
          "name": "E4",
          "ticks": 32018,
          "time": 32.018,
          "velocity": 1
        },
        {
          "duration": 0.14400000000000546,
          "durationTicks": 144,
          "midi": 76,
          "name": "E5",
          "ticks": 32306,
          "time": 32.306,
          "velocity": 1
        },
        {
          "duration": 0.14399999999999835,
          "durationTicks": 144,
          "midi": 69,
          "name": "A4",
          "ticks": 32884,
          "time": 32.884,
          "velocity": 1
        },
        {
          "duration": 0.14399999999999835,
          "durationTicks": 144,
          "midi": 71,
          "name": "B4",
          "ticks": 33316,
          "time": 33.315999999999995,
          "velocity": 1
        },
        {
          "duration": 0.14399999999999835,
          "durationTicks": 144,
          "midi": 69,
          "name": "A4",
          "ticks": 33750,
          "time": 33.75,
          "velocity": 1
        },
        {
          "duration": 0.14400000000000546,
          "durationTicks": 144,
          "midi": 65,
          "name": "F4",
          "ticks": 34038,
          "time": 34.038,
          "velocity": 1
        },
        {
          "duration": 0.14399999999999835,
          "durationTicks": 144,
          "midi": 64,
          "name": "E4",
          "ticks": 34326,
          "time": 34.326,
          "velocity": 1
        },
        {
          "duration": 0.14399999999999835,
          "durationTicks": 144,
          "midi": 76,
          "name": "E5",
          "ticks": 34614,
          "time": 34.614,
          "velocity": 1
        },
        {
          "duration": 0.14399999999999835,
          "durationTicks": 144,
          "midi": 69,
          "name": "A4",
          "ticks": 35192,
          "time": 35.192,
          "velocity": 1
        },
        {
          "duration": 0.14399999999999835,
          "durationTicks": 144,
          "midi": 71,
          "name": "B4",
          "ticks": 35624,
          "time": 35.624,
          "velocity": 1
        },
        {
          "duration": 0.14400000000000546,
          "durationTicks": 144,
          "midi": 69,
          "name": "A4",
          "ticks": 36056,
          "time": 36.056,
          "velocity": 1
        },
        {
          "duration": 0.14399999999999835,
          "durationTicks": 144,
          "midi": 65,
          "name": "F4",
          "ticks": 36346,
          "time": 36.346,
          "velocity": 1
        },
        {
          "duration": 0.14399999999999835,
          "durationTicks": 144,
          "midi": 64,
          "name": "E4",
          "ticks": 36634,
          "time": 36.634,
          "velocity": 1
        },
        {
          "duration": 0.14399999999999835,
          "durationTicks": 144,
          "midi": 76,
          "name": "E5",
          "ticks": 36922,
          "time": 36.922,
          "velocity": 1
        },
        {
          "duration": 0.14399999999999835,
          "durationTicks": 144,
          "midi": 69,
          "name": "A4",
          "ticks": 37500,
          "time": 37.5,
          "velocity": 1
        },
        {
          "duration": 0.14399999999999835,
          "durationTicks": 144,
          "midi": 71,
          "name": "B4",
          "ticks": 38076,
          "time": 38.076,
          "velocity": 1
        },
        {
          "duration": 0.14399999999999835,
          "durationTicks": 144,
          "midi": 69,
          "name": "A4",
          "ticks": 38364,
          "time": 38.364,
          "velocity": 1
        },
        {
          "duration": 0.14399999999999835,
          "durationTicks": 144,
          "midi": 65,
          "name": "F4",
          "ticks": 38652,
          "time": 38.652,
          "velocity": 1
        },
        {
          "duration": 0.14399999999999835,
          "durationTicks": 144,
          "midi": 64,
          "name": "E4",
          "ticks": 38942,
          "time": 38.942,
          "velocity": 1
        },
        {
          "duration": 0.14399999999999835,
          "durationTicks": 144,
          "midi": 76,
          "name": "E5",
          "ticks": 39230,
          "time": 39.230000000000004,
          "velocity": 1
        },
        {
          "duration": 0.14400000000000546,
          "durationTicks": 144,
          "midi": 69,
          "name": "A4",
          "ticks": 39806,
          "time": 39.806,
          "velocity": 1
        },
        {
          "duration": 0.14399999999999835,
          "durationTicks": 144,
          "midi": 71,
          "name": "B4",
          "ticks": 40384,
          "time": 40.384,
          "velocity": 1
        },
        {
          "duration": 0.14399999999999835,
          "durationTicks": 144,
          "midi": 69,
          "name": "A4",
          "ticks": 40672,
          "time": 40.672,
          "velocity": 1
        },
        {
          "duration": 0.14400000000000546,
          "durationTicks": 144,
          "midi": 65,
          "name": "F4",
          "ticks": 40960,
          "time": 40.959999999999994,
          "velocity": 1
        },
        {
          "duration": 0.14399999999999835,
          "durationTicks": 144,
          "midi": 64,
          "name": "E4",
          "ticks": 41250,
          "time": 41.25,
          "velocity": 1
        },
        {
          "duration": 0.14400000000000546,
          "durationTicks": 144,
          "midi": 76,
          "name": "E5",
          "ticks": 41538,
          "time": 41.538,
          "velocity": 1
        },
        {
          "duration": 0.14399999999999835,
          "durationTicks": 144,
          "midi": 69,
          "name": "A4",
          "ticks": 42114,
          "time": 42.114,
          "velocity": 1
        },
        {
          "duration": 0.14399999999999835,
          "durationTicks": 144,
          "midi": 71,
          "name": "B4",
          "ticks": 42548,
          "time": 42.547999999999995,
          "velocity": 1
        },
        {
          "duration": 0.14399999999999835,
          "durationTicks": 144,
          "midi": 69,
          "name": "A4",
          "ticks": 42980,
          "time": 42.980000000000004,
          "velocity": 1
        },
        {
          "duration": 0.14399999999999835,
          "durationTicks": 144,
          "midi": 65,
          "name": "F4",
          "ticks": 43268,
          "time": 43.268,
          "velocity": 1
        },
        {
          "duration": 0.14400000000000546,
          "durationTicks": 144,
          "midi": 64,
          "name": "E4",
          "ticks": 43556,
          "time": 43.556,
          "velocity": 1
        },
        {
          "duration": 0.14399999999999835,
          "durationTicks": 144,
          "midi": 76,
          "name": "E5",
          "ticks": 43846,
          "time": 43.846,
          "velocity": 1
        },
        {
          "duration": 0.14399999999999835,
          "durationTicks": 144,
          "midi": 69,
          "name": "A4",
          "ticks": 44422,
          "time": 44.422,
          "velocity": 1
        },
        {
          "duration": 0.14399999999999835,
          "durationTicks": 144,
          "midi": 71,
          "name": "B4",
          "ticks": 44854,
          "time": 44.854,
          "velocity": 1
        },
        {
          "duration": 0.14400000000000546,
          "durationTicks": 144,
          "midi": 69,
          "name": "A4",
          "ticks": 45288,
          "time": 45.288,
          "velocity": 1
        },
        {
          "duration": 0.14399999999999835,
          "durationTicks": 144,
          "midi": 65,
          "name": "F4",
          "ticks": 45576,
          "time": 45.576,
          "velocity": 1
        },
        {
          "duration": 0.14399999999999835,
          "durationTicks": 144,
          "midi": 64,
          "name": "E4",
          "ticks": 45864,
          "time": 45.864,
          "velocity": 1
        },
        {
          "duration": 0.14399999999999835,
          "durationTicks": 144,
          "midi": 76,
          "name": "E5",
          "ticks": 46152,
          "time": 46.152,
          "velocity": 1
        },
        {
          "duration": 0.14399999999999835,
          "durationTicks": 144,
          "midi": 69,
          "name": "A4",
          "ticks": 46730,
          "time": 46.730000000000004,
          "velocity": 1
        },
        {
          "duration": 0.14400000000000546,
          "durationTicks": 144,
          "midi": 71,
          "name": "B4",
          "ticks": 47306,
          "time": 47.306,
          "velocity": 1
        },
        {
          "duration": 0.14399999999999835,
          "durationTicks": 144,
          "midi": 69,
          "name": "A4",
          "ticks": 47596,
          "time": 47.596,
          "velocity": 1
        },
        {
          "duration": 0.14399999999999835,
          "durationTicks": 144,
          "midi": 65,
          "name": "F4",
          "ticks": 47884,
          "time": 47.884,
          "velocity": 1
        },
        {
          "duration": 0.14399999999999835,
          "durationTicks": 144,
          "midi": 64,
          "name": "E4",
          "ticks": 48172,
          "time": 48.172,
          "velocity": 1
        },
        {
          "duration": 0.14400000000000546,
          "durationTicks": 144,
          "midi": 76,
          "name": "E5",
          "ticks": 48460,
          "time": 48.459999999999994,
          "velocity": 1
        },
        {
          "duration": 0.14400000000000546,
          "durationTicks": 144,
          "midi": 69,
          "name": "A4",
          "ticks": 49038,
          "time": 49.038,
          "velocity": 1
        },
        {
          "duration": 0.14399999999999835,
          "durationTicks": 144,
          "midi": 71,
          "name": "B4",
          "ticks": 49614,
          "time": 49.614,
          "velocity": 1
        },
        {
          "duration": 0.14399999999999835,
          "durationTicks": 144,
          "midi": 69,
          "name": "A4",
          "ticks": 49902,
          "time": 49.902,
          "velocity": 1
        },
        {
          "duration": 0.14399999999999835,
          "durationTicks": 144,
          "midi": 65,
          "name": "F4",
          "ticks": 50192,
          "time": 50.19199999999999,
          "velocity": 1
        },
        {
          "duration": 0.14400000000000546,
          "durationTicks": 144,
          "midi": 64,
          "name": "E4",
          "ticks": 50480,
          "time": 50.48,
          "velocity": 1
        },
        {
          "duration": 0.14399999999999835,
          "durationTicks": 144,
          "midi": 76,
          "name": "E5",
          "ticks": 50768,
          "time": 50.768,
          "velocity": 1
        },
        {
          "duration": 0.14399999999999835,
          "durationTicks": 144,
          "midi": 69,
          "name": "A4",
          "ticks": 51346,
          "time": 51.346,
          "velocity": 1
        },
        {
          "duration": 0.14399999999999835,
          "durationTicks": 144,
          "midi": 71,
          "name": "B4",
          "ticks": 51778,
          "time": 51.778,
          "velocity": 1
        },
        {
          "duration": 0.14400000000000546,
          "durationTicks": 144,
          "midi": 69,
          "name": "A4",
          "ticks": 52210,
          "time": 52.209999999999994,
          "velocity": 1
        },
        {
          "duration": 0.14399999999999835,
          "durationTicks": 144,
          "midi": 65,
          "name": "F4",
          "ticks": 52500,
          "time": 52.5,
          "velocity": 1
        },
        {
          "duration": 0.14400000000000546,
          "durationTicks": 144,
          "midi": 64,
          "name": "E4",
          "ticks": 52788,
          "time": 52.788,
          "velocity": 1
        },
        {
          "duration": 0.14399999999999835,
          "durationTicks": 144,
          "midi": 76,
          "name": "E5",
          "ticks": 53076,
          "time": 53.076,
          "velocity": 1
        },
        {
          "duration": 0.14399999999999835,
          "durationTicks": 144,
          "midi": 69,
          "name": "A4",
          "ticks": 53652,
          "time": 53.652,
          "velocity": 1
        },
        {
          "duration": 0.14400000000000546,
          "durationTicks": 144,
          "midi": 71,
          "name": "B4",
          "ticks": 54086,
          "time": 54.08599999999999,
          "velocity": 1
        },
        {
          "duration": 0.14399999999999835,
          "durationTicks": 144,
          "midi": 69,
          "name": "A4",
          "ticks": 54518,
          "time": 54.518,
          "velocity": 1
        },
        {
          "duration": 0.14400000000000546,
          "durationTicks": 144,
          "midi": 65,
          "name": "F4",
          "ticks": 54806,
          "time": 54.806,
          "velocity": 1
        },
        {
          "duration": 0.14399999999999835,
          "durationTicks": 144,
          "midi": 64,
          "name": "E4",
          "ticks": 55096,
          "time": 55.096,
          "velocity": 1
        },
        {
          "duration": 0.14399999999999835,
          "durationTicks": 144,
          "midi": 76,
          "name": "E5",
          "ticks": 55384,
          "time": 55.384,
          "velocity": 1
        },
        {
          "duration": 0.14400000000000546,
          "durationTicks": 144,
          "midi": 69,
          "name": "A4",
          "ticks": 55960,
          "time": 55.959999999999994,
          "velocity": 1
        },
        {
          "duration": 0.14400000000000546,
          "durationTicks": 144,
          "midi": 71,
          "name": "B4",
          "ticks": 56538,
          "time": 56.538,
          "velocity": 1
        },
        {
          "duration": 0.14399999999999835,
          "durationTicks": 144,
          "midi": 69,
          "name": "A4",
          "ticks": 56826,
          "time": 56.826,
          "velocity": 1
        },
        {
          "duration": 0.14399999999999835,
          "durationTicks": 144,
          "midi": 65,
          "name": "F4",
          "ticks": 57114,
          "time": 57.114,
          "velocity": 1
        },
        {
          "duration": 0.14399999999999835,
          "durationTicks": 144,
          "midi": 64,
          "name": "E4",
          "ticks": 57402,
          "time": 57.402,
          "velocity": 1
        },
        {
          "duration": 0.14399999999999835,
          "durationTicks": 144,
          "midi": 76,
          "name": "E5",
          "ticks": 57692,
          "time": 57.69199999999999,
          "velocity": 1
        },
        {
          "duration": 0.14399999999999835,
          "durationTicks": 144,
          "midi": 69,
          "name": "A4",
          "ticks": 58268,
          "time": 58.268,
          "velocity": 1
        },
        {
          "duration": 0.14399999999999835,
          "durationTicks": 144,
          "midi": 71,
          "name": "B4",
          "ticks": 58846,
          "time": 58.846,
          "velocity": 1
        },
        {
          "duration": 0.14399999999999835,
          "durationTicks": 144,
          "midi": 69,
          "name": "A4",
          "ticks": 59134,
          "time": 59.134,
          "velocity": 1
        },
        {
          "duration": 0.14399999999999835,
          "durationTicks": 144,
          "midi": 65,
          "name": "F4",
          "ticks": 59422,
          "time": 59.422,
          "velocity": 1
        },
        {
          "duration": 0.14400000000000546,
          "durationTicks": 144,
          "midi": 64,
          "name": "E4",
          "ticks": 59710,
          "time": 59.709999999999994,
          "velocity": 1
        },
        {
          "duration": 0.14399999999999835,
          "durationTicks": 144,
          "midi": 76,
          "name": "E5",
          "ticks": 60000,
          "time": 60,
          "velocity": 1
        },
        {
          "duration": 0.14399999999999835,
          "durationTicks": 144,
          "midi": 69,
          "name": "A4",
          "ticks": 60576,
          "time": 60.576,
          "velocity": 1
        },
        {
          "duration": 0.14400000000000546,
          "durationTicks": 144,
          "midi": 71,
          "name": "B4",
          "ticks": 61008,
          "time": 61.007999999999996,
          "velocity": 1
        },
        {
          "duration": 0.14400000000000546,
          "durationTicks": 144,
          "midi": 69,
          "name": "A4",
          "ticks": 61442,
          "time": 61.44199999999999,
          "velocity": 1
        },
        {
          "duration": 0.14400000000000546,
          "durationTicks": 144,
          "midi": 65,
          "name": "F4",
          "ticks": 61730,
          "time": 61.72999999999999,
          "velocity": 1
        },
        {
          "duration": 0.14399999999999835,
          "durationTicks": 144,
          "midi": 64,
          "name": "E4",
          "ticks": 62018,
          "time": 62.018,
          "velocity": 1
        },
        {
          "duration": 0.14399999999999125,
          "durationTicks": 144,
          "midi": 76,
          "name": "E5",
          "ticks": 62306,
          "time": 62.306000000000004,
          "velocity": 1
        },
        {
          "duration": 0.14400000000000546,
          "durationTicks": 144,
          "midi": 69,
          "name": "A4",
          "ticks": 62884,
          "time": 62.88399999999999,
          "velocity": 1
        },
        {
          "duration": 0.14400000000000546,
          "durationTicks": 144,
          "midi": 71,
          "name": "B4",
          "ticks": 63316,
          "time": 63.315999999999995,
          "velocity": 1
        },
        {
          "duration": 0.14400000000000546,
          "durationTicks": 144,
          "midi": 69,
          "name": "A4",
          "ticks": 63750,
          "time": 63.75,
          "velocity": 1
        },
        {
          "duration": 0.14400000000000546,
          "durationTicks": 144,
          "midi": 65,
          "name": "F4",
          "ticks": 64038,
          "time": 64.038,
          "velocity": 1
        },
        {
          "duration": 0.14400000000000546,
          "durationTicks": 144,
          "midi": 64,
          "name": "E4",
          "ticks": 64326,
          "time": 64.326,
          "velocity": 1
        },
        {
          "duration": 0.14399999999999125,
          "durationTicks": 144,
          "midi": 76,
          "name": "E5",
          "ticks": 64614,
          "time": 64.614,
          "velocity": 1
        },
        {
          "duration": 0.14400000000000546,
          "durationTicks": 144,
          "midi": 69,
          "name": "A4",
          "ticks": 65192,
          "time": 65.192,
          "velocity": 1
        },
        {
          "duration": 0.14399999999999125,
          "durationTicks": 144,
          "midi": 71,
          "name": "B4",
          "ticks": 65768,
          "time": 65.768,
          "velocity": 1
        },
        {
          "duration": 0.14399999999999125,
          "durationTicks": 144,
          "midi": 69,
          "name": "A4",
          "ticks": 66056,
          "time": 66.056,
          "velocity": 1
        },
        {
          "duration": 0.14400000000000546,
          "durationTicks": 144,
          "midi": 65,
          "name": "F4",
          "ticks": 66346,
          "time": 66.346,
          "velocity": 1
        },
        {
          "duration": 0.14400000000000546,
          "durationTicks": 144,
          "midi": 64,
          "name": "E4",
          "ticks": 66634,
          "time": 66.634,
          "velocity": 1
        },
        {
          "duration": 0.14400000000000546,
          "durationTicks": 144,
          "midi": 76,
          "name": "E5",
          "ticks": 66922,
          "time": 66.922,
          "velocity": 1
        },
        {
          "duration": 0.14400000000000546,
          "durationTicks": 144,
          "midi": 69,
          "name": "A4",
          "ticks": 67500,
          "time": 67.5,
          "velocity": 1
        },
        {
          "duration": 0.14400000000000546,
          "durationTicks": 144,
          "midi": 71,
          "name": "B4",
          "ticks": 68076,
          "time": 68.076,
          "velocity": 1
        },
        {
          "duration": 0.14399999999999125,
          "durationTicks": 144,
          "midi": 69,
          "name": "A4",
          "ticks": 68364,
          "time": 68.364,
          "velocity": 1
        },
        {
          "duration": 0.14399999999999125,
          "durationTicks": 144,
          "midi": 65,
          "name": "F4",
          "ticks": 68652,
          "time": 68.652,
          "velocity": 1
        },
        {
          "duration": 0.14400000000000546,
          "durationTicks": 144,
          "midi": 64,
          "name": "E4",
          "ticks": 68942,
          "time": 68.942,
          "velocity": 1
        },
        {
          "duration": 0.14400000000000546,
          "durationTicks": 144,
          "midi": 76,
          "name": "E5",
          "ticks": 69230,
          "time": 69.22999999999999,
          "velocity": 1
        },
        {
          "duration": 0.14399999999999125,
          "durationTicks": 144,
          "midi": 69,
          "name": "A4",
          "ticks": 69806,
          "time": 69.806,
          "velocity": 1
        },
        {
          "duration": 0.14400000000000546,
          "durationTicks": 144,
          "midi": 71,
          "name": "B4",
          "ticks": 70240,
          "time": 70.24,
          "velocity": 1
        },
        {
          "duration": 0.14400000000000546,
          "durationTicks": 144,
          "midi": 69,
          "name": "A4",
          "ticks": 70672,
          "time": 70.672,
          "velocity": 1
        },
        {
          "duration": 0.14399999999999125,
          "durationTicks": 144,
          "midi": 65,
          "name": "F4",
          "ticks": 70960,
          "time": 70.96000000000001,
          "velocity": 1
        },
        {
          "duration": 0.14400000000000546,
          "durationTicks": 144,
          "midi": 64,
          "name": "E4",
          "ticks": 71250,
          "time": 71.25,
          "velocity": 1
        },
        {
          "duration": 0.14400000000000546,
          "durationTicks": 144,
          "midi": 76,
          "name": "E5",
          "ticks": 71538,
          "time": 71.538,
          "velocity": 1
        },
        {
          "duration": 0.14399999999999125,
          "durationTicks": 144,
          "midi": 69,
          "name": "A4",
          "ticks": 72114,
          "time": 72.114,
          "velocity": 1
        },
        {
          "duration": 0.14399999999999125,
          "durationTicks": 144,
          "midi": 71,
          "name": "B4",
          "ticks": 72548,
          "time": 72.548,
          "velocity": 1
        },
        {
          "duration": 0.14400000000000546,
          "durationTicks": 144,
          "midi": 69,
          "name": "A4",
          "ticks": 72980,
          "time": 72.97999999999999,
          "velocity": 1
        },
        {
          "duration": 0.14399999999999125,
          "durationTicks": 144,
          "midi": 65,
          "name": "F4",
          "ticks": 73268,
          "time": 73.268,
          "velocity": 1
        },
        {
          "duration": 0.14399999999999125,
          "durationTicks": 144,
          "midi": 64,
          "name": "E4",
          "ticks": 73556,
          "time": 73.556,
          "velocity": 1
        },
        {
          "duration": 0.14400000000000546,
          "durationTicks": 144,
          "midi": 76,
          "name": "E5",
          "ticks": 73846,
          "time": 73.84599999999999,
          "velocity": 1
        },
        {
          "duration": 0.14400000000000546,
          "durationTicks": 144,
          "midi": 69,
          "name": "A4",
          "ticks": 74422,
          "time": 74.422,
          "velocity": 1
        },
        {
          "duration": 0.14400000000000546,
          "durationTicks": 144,
          "midi": 71,
          "name": "B4",
          "ticks": 75000,
          "time": 75,
          "velocity": 1
        },
        {
          "duration": 0.14400000000000546,
          "durationTicks": 144,
          "midi": 69,
          "name": "A4",
          "ticks": 75288,
          "time": 75.288,
          "velocity": 1
        },
        {
          "duration": 0.14400000000000546,
          "durationTicks": 144,
          "midi": 65,
          "name": "F4",
          "ticks": 75576,
          "time": 75.576,
          "velocity": 1
        },
        {
          "duration": 0.14399999999999125,
          "durationTicks": 144,
          "midi": 64,
          "name": "E4",
          "ticks": 75864,
          "time": 75.864,
          "velocity": 1
        },
        {
          "duration": 0.14399999999999125,
          "durationTicks": 144,
          "midi": 76,
          "name": "E5",
          "ticks": 76152,
          "time": 76.152,
          "velocity": 1
        },
        {
          "duration": 0.14400000000000546,
          "durationTicks": 144,
          "midi": 69,
          "name": "A4",
          "ticks": 76730,
          "time": 76.72999999999999,
          "velocity": 1
        },
        {
          "duration": 0.14399999999999125,
          "durationTicks": 144,
          "midi": 71,
          "name": "B4",
          "ticks": 77306,
          "time": 77.306,
          "velocity": 1
        },
        {
          "duration": 0.14400000000000546,
          "durationTicks": 144,
          "midi": 69,
          "name": "A4",
          "ticks": 77596,
          "time": 77.59599999999999,
          "velocity": 1
        },
        {
          "duration": 0.14400000000000546,
          "durationTicks": 144,
          "midi": 65,
          "name": "F4",
          "ticks": 77884,
          "time": 77.884,
          "velocity": 1
        },
        {
          "duration": 0.14400000000000546,
          "durationTicks": 144,
          "midi": 64,
          "name": "E4",
          "ticks": 78172,
          "time": 78.172,
          "velocity": 1
        },
        {
          "duration": 0.14399999999999125,
          "durationTicks": 144,
          "midi": 76,
          "name": "E5",
          "ticks": 78460,
          "time": 78.46000000000001,
          "velocity": 1
        },
        {
          "duration": 0.14400000000000546,
          "durationTicks": 144,
          "midi": 69,
          "name": "A4",
          "ticks": 79038,
          "time": 79.038,
          "velocity": 1
        },
        {
          "duration": 0.14400000000000546,
          "durationTicks": 144,
          "midi": 71,
          "name": "B4",
          "ticks": 79470,
          "time": 79.47,
          "velocity": 1
        },
        {
          "duration": 0.14399999999999125,
          "durationTicks": 144,
          "midi": 69,
          "name": "A4",
          "ticks": 79902,
          "time": 79.902,
          "velocity": 1
        },
        {
          "duration": 0.14400000000000546,
          "durationTicks": 144,
          "midi": 65,
          "name": "F4",
          "ticks": 80192,
          "time": 80.192,
          "velocity": 1
        },
        {
          "duration": 0.14400000000000546,
          "durationTicks": 144,
          "midi": 64,
          "name": "E4",
          "ticks": 80480,
          "time": 80.47999999999999,
          "velocity": 1
        },
        {
          "duration": 0.14399999999999125,
          "durationTicks": 144,
          "midi": 76,
          "name": "E5",
          "ticks": 80768,
          "time": 80.768,
          "velocity": 1
        },
        {
          "duration": 0.14400000000000546,
          "durationTicks": 144,
          "midi": 69,
          "name": "A4",
          "ticks": 81346,
          "time": 81.34599999999999,
          "velocity": 1
        },
        {
          "duration": 0.14399999999999125,
          "durationTicks": 144,
          "midi": 71,
          "name": "B4",
          "ticks": 81778,
          "time": 81.778,
          "velocity": 1
        },
        {
          "duration": 0.14399999999999125,
          "durationTicks": 144,
          "midi": 69,
          "name": "A4",
          "ticks": 82210,
          "time": 82.21000000000001,
          "velocity": 1
        },
        {
          "duration": 0.14400000000000546,
          "durationTicks": 144,
          "midi": 65,
          "name": "F4",
          "ticks": 82500,
          "time": 82.5,
          "velocity": 1
        },
        {
          "duration": 0.14400000000000546,
          "durationTicks": 144,
          "midi": 64,
          "name": "E4",
          "ticks": 82788,
          "time": 82.788,
          "velocity": 1
        },
        {
          "duration": 0.14400000000000546,
          "durationTicks": 144,
          "midi": 76,
          "name": "E5",
          "ticks": 83076,
          "time": 83.076,
          "velocity": 1
        },
        {
          "duration": 0.14399999999999125,
          "durationTicks": 144,
          "midi": 69,
          "name": "A4",
          "ticks": 83652,
          "time": 83.652,
          "velocity": 1
        },
        {
          "duration": 0.14400000000000546,
          "durationTicks": 144,
          "midi": 71,
          "name": "B4",
          "ticks": 84230,
          "time": 84.22999999999999,
          "velocity": 1
        },
        {
          "duration": 0.14399999999999125,
          "durationTicks": 144,
          "midi": 69,
          "name": "A4",
          "ticks": 84518,
          "time": 84.518,
          "velocity": 1
        },
        {
          "duration": 0.14399999999999125,
          "durationTicks": 144,
          "midi": 65,
          "name": "F4",
          "ticks": 84806,
          "time": 84.806,
          "velocity": 1
        },
        {
          "duration": 0.14400000000000546,
          "durationTicks": 144,
          "midi": 64,
          "name": "E4",
          "ticks": 85096,
          "time": 85.09599999999999,
          "velocity": 1
        },
        {
          "duration": 0.14400000000000546,
          "durationTicks": 144,
          "midi": 76,
          "name": "E5",
          "ticks": 85384,
          "time": 85.38399999999999,
          "velocity": 1
        },
        {
          "duration": 0.14399999999999125,
          "durationTicks": 144,
          "midi": 69,
          "name": "A4",
          "ticks": 85960,
          "time": 85.96000000000001,
          "velocity": 1
        },
        {
          "duration": 0.14400000000000546,
          "durationTicks": 144,
          "midi": 71,
          "name": "B4",
          "ticks": 86538,
          "time": 86.538,
          "velocity": 1
        },
        {
          "duration": 0.14400000000000546,
          "durationTicks": 144,
          "midi": 69,
          "name": "A4",
          "ticks": 86826,
          "time": 86.826,
          "velocity": 1
        },
        {
          "duration": 0.14399999999999125,
          "durationTicks": 144,
          "midi": 65,
          "name": "F4",
          "ticks": 87114,
          "time": 87.114,
          "velocity": 1
        },
        {
          "duration": 0.14399999999999125,
          "durationTicks": 144,
          "midi": 64,
          "name": "E4",
          "ticks": 87402,
          "time": 87.402,
          "velocity": 1
        },
        {
          "duration": 0.14400000000000546,
          "durationTicks": 144,
          "midi": 76,
          "name": "E5",
          "ticks": 87692,
          "time": 87.692,
          "velocity": 1
        },
        {
          "duration": 0.14399999999999125,
          "durationTicks": 144,
          "midi": 69,
          "name": "A4",
          "ticks": 88268,
          "time": 88.268,
          "velocity": 1
        },
        {
          "duration": 0.14400000000000546,
          "durationTicks": 144,
          "midi": 71,
          "name": "B4",
          "ticks": 88700,
          "time": 88.69999999999999,
          "velocity": 1
        },
        {
          "duration": 0.14400000000000546,
          "durationTicks": 144,
          "midi": 69,
          "name": "A4",
          "ticks": 89134,
          "time": 89.13399999999999,
          "velocity": 1
        },
        {
          "duration": 0.14400000000000546,
          "durationTicks": 144,
          "midi": 65,
          "name": "F4",
          "ticks": 89422,
          "time": 89.422,
          "velocity": 1
        },
        {
          "duration": 0.14399999999999125,
          "durationTicks": 144,
          "midi": 64,
          "name": "E4",
          "ticks": 89710,
          "time": 89.71000000000001,
          "velocity": 1
        },
        {
          "duration": 0.14400000000000546,
          "durationTicks": 144,
          "midi": 76,
          "name": "E5",
          "ticks": 90000,
          "time": 90,
          "velocity": 1
        },
        {
          "duration": 0.14400000000000546,
          "durationTicks": 144,
          "midi": 69,
          "name": "A4",
          "ticks": 90576,
          "time": 90.576,
          "velocity": 1
        },
        {
          "duration": 0.14400000000000546,
          "durationTicks": 144,
          "midi": 71,
          "name": "B4",
          "ticks": 91008,
          "time": 91.008,
          "velocity": 1
        },
        {
          "duration": 0.14400000000000546,
          "durationTicks": 144,
          "midi": 69,
          "name": "A4",
          "ticks": 91442,
          "time": 91.442,
          "velocity": 1
        },
        {
          "duration": 0.14400000000000546,
          "durationTicks": 144,
          "midi": 65,
          "name": "F4",
          "ticks": 91730,
          "time": 91.72999999999999,
          "velocity": 1
        },
        {
          "duration": 0.14399999999999125,
          "durationTicks": 144,
          "midi": 64,
          "name": "E4",
          "ticks": 92018,
          "time": 92.018,
          "velocity": 1
        },
        {
          "duration": 0.14399999999999125,
          "durationTicks": 144,
          "midi": 76,
          "name": "E5",
          "ticks": 92306,
          "time": 92.306,
          "velocity": 1
        },
        {
          "duration": 0.14400000000000546,
          "durationTicks": 144,
          "midi": 69,
          "name": "A4",
          "ticks": 92884,
          "time": 92.88399999999999,
          "velocity": 1
        },
        {
          "duration": 0.14399999999999125,
          "durationTicks": 144,
          "midi": 71,
          "name": "B4",
          "ticks": 93460,
          "time": 93.46000000000001,
          "velocity": 1
        },
        {
          "duration": 0.14400000000000546,
          "durationTicks": 144,
          "midi": 69,
          "name": "A4",
          "ticks": 93750,
          "time": 93.75,
          "velocity": 1
        },
        {
          "duration": 0.14400000000000546,
          "durationTicks": 144,
          "midi": 65,
          "name": "F4",
          "ticks": 94038,
          "time": 94.038,
          "velocity": 1
        },
        {
          "duration": 0.14400000000000546,
          "durationTicks": 144,
          "midi": 64,
          "name": "E4",
          "ticks": 94326,
          "time": 94.326,
          "velocity": 1
        },
        {
          "duration": 0.14399999999999125,
          "durationTicks": 144,
          "midi": 76,
          "name": "E5",
          "ticks": 94614,
          "time": 94.614,
          "velocity": 1
        },
        {
          "duration": 0.14400000000000546,
          "durationTicks": 144,
          "midi": 69,
          "name": "A4",
          "ticks": 95192,
          "time": 95.192,
          "velocity": 1
        },
        {
          "duration": 0.14399999999999125,
          "durationTicks": 144,
          "midi": 71,
          "name": "B4",
          "ticks": 95768,
          "time": 95.768,
          "velocity": 1
        },
        {
          "duration": 0.14399999999999125,
          "durationTicks": 144,
          "midi": 69,
          "name": "A4",
          "ticks": 96056,
          "time": 96.056,
          "velocity": 1
        },
        {
          "duration": 0.14400000000000546,
          "durationTicks": 144,
          "midi": 65,
          "name": "F4",
          "ticks": 96346,
          "time": 96.34599999999999,
          "velocity": 1
        },
        {
          "duration": 0.14400000000000546,
          "durationTicks": 144,
          "midi": 64,
          "name": "E4",
          "ticks": 96634,
          "time": 96.63399999999999,
          "velocity": 1
        },
        {
          "duration": 0.14400000000000546,
          "durationTicks": 144,
          "midi": 76,
          "name": "E5",
          "ticks": 96922,
          "time": 96.922,
          "velocity": 1
        },
        {
          "duration": 0.14400000000000546,
          "durationTicks": 144,
          "midi": 69,
          "name": "A4",
          "ticks": 97500,
          "time": 97.5,
          "velocity": 1
        },
        {
          "duration": 0.14399999999999125,
          "durationTicks": 144,
          "midi": 71,
          "name": "B4",
          "ticks": 97932,
          "time": 97.932,
          "velocity": 1
        },
        {
          "duration": 0.14399999999999125,
          "durationTicks": 144,
          "midi": 69,
          "name": "A4",
          "ticks": 98364,
          "time": 98.364,
          "velocity": 1
        },
        {
          "duration": 0.14399999999999125,
          "durationTicks": 144,
          "midi": 65,
          "name": "F4",
          "ticks": 98652,
          "time": 98.652,
          "velocity": 1
        },
        {
          "duration": 0.14400000000000546,
          "durationTicks": 144,
          "midi": 64,
          "name": "E4",
          "ticks": 98942,
          "time": 98.942,
          "velocity": 1
        },
        {
          "duration": 0.14400000000000546,
          "durationTicks": 144,
          "midi": 76,
          "name": "E5",
          "ticks": 99230,
          "time": 99.22999999999999,
          "velocity": 1
        },
        {
          "duration": 0.14399999999999125,
          "durationTicks": 144,
          "midi": 69,
          "name": "A4",
          "ticks": 99806,
          "time": 99.806,
          "velocity": 1
        },
        {
          "duration": 0.14399999999999125,
          "durationTicks": 144,
          "midi": 71,
          "name": "B4",
          "ticks": 100240,
          "time": 100.24,
          "velocity": 1
        },
        {
          "duration": 0.14400000000000546,
          "durationTicks": 144,
          "midi": 69,
          "name": "A4",
          "ticks": 100672,
          "time": 100.67199999999998,
          "velocity": 1
        },
        {
          "duration": 0.14400000000000546,
          "durationTicks": 144,
          "midi": 65,
          "name": "F4",
          "ticks": 100960,
          "time": 100.96,
          "velocity": 1
        },
        {
          "duration": 0.14400000000000546,
          "durationTicks": 144,
          "midi": 64,
          "name": "E4",
          "ticks": 101250,
          "time": 101.25,
          "velocity": 1
        },
        {
          "duration": 0.14400000000000546,
          "durationTicks": 144,
          "midi": 76,
          "name": "E5",
          "ticks": 101538,
          "time": 101.538,
          "velocity": 1
        },
        {
          "duration": 0.14399999999999125,
          "durationTicks": 144,
          "midi": 69,
          "name": "A4",
          "ticks": 102114,
          "time": 102.114,
          "velocity": 1
        },
        {
          "duration": 0.14400000000000546,
          "durationTicks": 144,
          "midi": 71,
          "name": "B4",
          "ticks": 102692,
          "time": 102.692,
          "velocity": 1
        },
        {
          "duration": 0.14400000000000546,
          "durationTicks": 144,
          "midi": 69,
          "name": "A4",
          "ticks": 102980,
          "time": 102.97999999999999,
          "velocity": 1
        },
        {
          "duration": 0.14399999999999125,
          "durationTicks": 144,
          "midi": 65,
          "name": "F4",
          "ticks": 103268,
          "time": 103.268,
          "velocity": 1
        },
        {
          "duration": 0.14399999999999125,
          "durationTicks": 144,
          "midi": 64,
          "name": "E4",
          "ticks": 103556,
          "time": 103.556,
          "velocity": 1
        },
        {
          "duration": 0.14400000000000546,
          "durationTicks": 144,
          "midi": 76,
          "name": "E5",
          "ticks": 103846,
          "time": 103.84599999999999,
          "velocity": 1
        },
        {
          "duration": 0.14400000000000546,
          "durationTicks": 144,
          "midi": 69,
          "name": "A4",
          "ticks": 104422,
          "time": 104.42199999999998,
          "velocity": 1
        },
        {
          "duration": 0.14400000000000546,
          "durationTicks": 144,
          "midi": 71,
          "name": "B4",
          "ticks": 105000,
          "time": 105,
          "velocity": 1
        },
        {
          "duration": 0.14400000000000546,
          "durationTicks": 144,
          "midi": 69,
          "name": "A4",
          "ticks": 105288,
          "time": 105.288,
          "velocity": 1
        },
        {
          "duration": 0.14400000000000546,
          "durationTicks": 144,
          "midi": 65,
          "name": "F4",
          "ticks": 105576,
          "time": 105.576,
          "velocity": 1
        },
        {
          "duration": 0.14399999999999125,
          "durationTicks": 144,
          "midi": 64,
          "name": "E4",
          "ticks": 105864,
          "time": 105.864,
          "velocity": 1
        },
        {
          "duration": 0.14399999999999125,
          "durationTicks": 144,
          "midi": 76,
          "name": "E5",
          "ticks": 106152,
          "time": 106.152,
          "velocity": 1
        },
        {
          "duration": 0.14400000000000546,
          "durationTicks": 144,
          "midi": 69,
          "name": "A4",
          "ticks": 106730,
          "time": 106.72999999999999,
          "velocity": 1
        },
        {
          "duration": 0.14400000000000546,
          "durationTicks": 144,
          "midi": 71,
          "name": "B4",
          "ticks": 107162,
          "time": 107.16199999999999,
          "velocity": 1
        },
        {
          "duration": 0.14400000000000546,
          "durationTicks": 144,
          "midi": 69,
          "name": "A4",
          "ticks": 107596,
          "time": 107.59599999999999,
          "velocity": 1
        },
        {
          "duration": 0.14400000000000546,
          "durationTicks": 144,
          "midi": 65,
          "name": "F4",
          "ticks": 107884,
          "time": 107.88399999999999,
          "velocity": 1
        },
        {
          "duration": 0.14400000000000546,
          "durationTicks": 144,
          "midi": 64,
          "name": "E4",
          "ticks": 108172,
          "time": 108.17199999999998,
          "velocity": 1
        },
        {
          "duration": 0.14400000000000546,
          "durationTicks": 144,
          "midi": 76,
          "name": "E5",
          "ticks": 108460,
          "time": 108.46,
          "velocity": 1
        },
        {
          "duration": 0.14400000000000546,
          "durationTicks": 144,
          "midi": 69,
          "name": "A4",
          "ticks": 109038,
          "time": 109.038,
          "velocity": 1
        },
        {
          "duration": 0.14400000000000546,
          "durationTicks": 144,
          "midi": 71,
          "name": "B4",
          "ticks": 109470,
          "time": 109.47,
          "velocity": 1
        },
        {
          "duration": 0.14399999999999125,
          "durationTicks": 144,
          "midi": 69,
          "name": "A4",
          "ticks": 109902,
          "time": 109.902,
          "velocity": 1
        },
        {
          "duration": 0.14400000000000546,
          "durationTicks": 144,
          "midi": 65,
          "name": "F4",
          "ticks": 110192,
          "time": 110.192,
          "velocity": 1
        },
        {
          "duration": 0.14400000000000546,
          "durationTicks": 144,
          "midi": 64,
          "name": "E4",
          "ticks": 110480,
          "time": 110.47999999999999,
          "velocity": 1
        },
        {
          "duration": 0.14399999999999125,
          "durationTicks": 144,
          "midi": 76,
          "name": "E5",
          "ticks": 110768,
          "time": 110.768,
          "velocity": 1
        },
        {
          "duration": 0.14400000000000546,
          "durationTicks": 144,
          "midi": 69,
          "name": "A4",
          "ticks": 111346,
          "time": 111.34599999999999,
          "velocity": 1
        },
        {
          "duration": 0.14400000000000546,
          "durationTicks": 144,
          "midi": 71,
          "name": "B4",
          "ticks": 111922,
          "time": 111.92199999999998,
          "velocity": 1
        },
        {
          "duration": 0.14400000000000546,
          "durationTicks": 144,
          "midi": 69,
          "name": "A4",
          "ticks": 112210,
          "time": 112.21,
          "velocity": 1
        },
        {
          "duration": 0.14400000000000546,
          "durationTicks": 144,
          "midi": 65,
          "name": "F4",
          "ticks": 112500,
          "time": 112.5,
          "velocity": 1
        },
        {
          "duration": 0.14400000000000546,
          "durationTicks": 144,
          "midi": 64,
          "name": "E4",
          "ticks": 112788,
          "time": 112.788,
          "velocity": 1
        },
        {
          "duration": 0.14400000000000546,
          "durationTicks": 144,
          "midi": 76,
          "name": "E5",
          "ticks": 113076,
          "time": 113.076,
          "velocity": 1
        },
        {
          "duration": 0.14399999999999125,
          "durationTicks": 144,
          "midi": 69,
          "name": "A4",
          "ticks": 113652,
          "time": 113.652,
          "velocity": 1
        },
        {
          "duration": 0.14400000000000546,
          "durationTicks": 144,
          "midi": 71,
          "name": "B4",
          "ticks": 114230,
          "time": 114.22999999999999,
          "velocity": 1
        },
        {
          "duration": 0.14399999999999125,
          "durationTicks": 144,
          "midi": 69,
          "name": "A4",
          "ticks": 114518,
          "time": 114.518,
          "velocity": 1
        },
        {
          "duration": 0.14399999999999125,
          "durationTicks": 144,
          "midi": 65,
          "name": "F4",
          "ticks": 114806,
          "time": 114.806,
          "velocity": 1
        },
        {
          "duration": 0.14400000000000546,
          "durationTicks": 144,
          "midi": 64,
          "name": "E4",
          "ticks": 115096,
          "time": 115.09599999999999,
          "velocity": 1
        },
        {
          "duration": 0.14400000000000546,
          "durationTicks": 144,
          "midi": 76,
          "name": "E5",
          "ticks": 115384,
          "time": 115.38399999999999,
          "velocity": 1
        },
        {
          "duration": 0.14399999999999125,
          "durationTicks": 144,
          "midi": 69,
          "name": "A4",
          "ticks": 115960,
          "time": 115.96,
          "velocity": 1
        },
        {
          "duration": 0.14399999999999125,
          "durationTicks": 144,
          "midi": 71,
          "name": "B4",
          "ticks": 116394,
          "time": 116.394,
          "velocity": 1
        },
        {
          "duration": 0.14400000000000546,
          "durationTicks": 144,
          "midi": 69,
          "name": "A4",
          "ticks": 116826,
          "time": 116.826,
          "velocity": 1
        },
        {
          "duration": 0.14399999999999125,
          "durationTicks": 144,
          "midi": 65,
          "name": "F4",
          "ticks": 117114,
          "time": 117.114,
          "velocity": 1
        },
        {
          "duration": 0.14399999999999125,
          "durationTicks": 144,
          "midi": 64,
          "name": "E4",
          "ticks": 117402,
          "time": 117.402,
          "velocity": 1
        },
        {
          "duration": 0.14400000000000546,
          "durationTicks": 144,
          "midi": 76,
          "name": "E5",
          "ticks": 117692,
          "time": 117.692,
          "velocity": 1
        },
        {
          "duration": 0.14399999999999125,
          "durationTicks": 144,
          "midi": 69,
          "name": "A4",
          "ticks": 118268,
          "time": 118.268,
          "velocity": 1
        },
        {
          "duration": 0.14400000000000546,
          "durationTicks": 144,
          "midi": 71,
          "name": "B4",
          "ticks": 118700,
          "time": 118.69999999999999,
          "velocity": 1
        },
        {
          "duration": 0.14400000000000546,
          "durationTicks": 144,
          "midi": 69,
          "name": "A4",
          "ticks": 119134,
          "time": 119.13399999999999,
          "velocity": 1
        },
        {
          "duration": 0.14400000000000546,
          "durationTicks": 144,
          "midi": 65,
          "name": "F4",
          "ticks": 119422,
          "time": 119.42199999999998,
          "velocity": 1
        },
        {
          "duration": 0.14399999999999125,
          "durationTicks": 144,
          "midi": 64,
          "name": "E4",
          "ticks": 119710,
          "time": 119.71,
          "velocity": 1
        },
        {
          "duration": 0.14400000000000546,
          "durationTicks": 144,
          "midi": 76,
          "name": "E5",
          "ticks": 120000,
          "time": 120,
          "velocity": 1
        },
        {
          "duration": 0.14400000000000546,
          "durationTicks": 144,
          "midi": 69,
          "name": "A4",
          "ticks": 120576,
          "time": 120.576,
          "velocity": 1
        },
        {
          "duration": 0.14399999999999125,
          "durationTicks": 144,
          "midi": 71,
          "name": "B4",
          "ticks": 121152,
          "time": 121.152,
          "velocity": 1
        },
        {
          "duration": 0.14400000000000546,
          "durationTicks": 144,
          "midi": 69,
          "name": "A4",
          "ticks": 121442,
          "time": 121.442,
          "velocity": 1
        },
        {
          "duration": 0.14400000000000546,
          "durationTicks": 144,
          "midi": 65,
          "name": "F4",
          "ticks": 121730,
          "time": 121.72999999999999,
          "velocity": 1
        },
        {
          "duration": 0.14399999999999125,
          "durationTicks": 144,
          "midi": 64,
          "name": "E4",
          "ticks": 122018,
          "time": 122.018,
          "velocity": 1
        },
        {
          "duration": 0.14399999999999125,
          "durationTicks": 144,
          "midi": 76,
          "name": "E5",
          "ticks": 122306,
          "time": 122.306,
          "velocity": 1
        },
        {
          "duration": 0.14400000000000546,
          "durationTicks": 144,
          "midi": 69,
          "name": "A4",
          "ticks": 122884,
          "time": 122.88399999999999,
          "velocity": 1
        },
        {
          "duration": 0.14400000000000546,
          "durationTicks": 144,
          "midi": 71,
          "name": "B4",
          "ticks": 123460,
          "time": 123.45999999999998,
          "velocity": 1
        },
        {
          "duration": 0.14400000000000546,
          "durationTicks": 144,
          "midi": 69,
          "name": "A4",
          "ticks": 123750,
          "time": 123.75,
          "velocity": 1
        },
        {
          "duration": 0.14399999999997704,
          "durationTicks": 144,
          "midi": 65,
          "name": "F4",
          "ticks": 124038,
          "time": 124.03800000000001,
          "velocity": 1
        },
        {
          "duration": 0.14400000000000546,
          "durationTicks": 144,
          "midi": 64,
          "name": "E4",
          "ticks": 124326,
          "time": 124.326,
          "velocity": 1
        },
        {
          "duration": 0.14400000000000546,
          "durationTicks": 144,
          "midi": 76,
          "name": "E5",
          "ticks": 124614,
          "time": 124.614,
          "velocity": 1
        },
        {
          "duration": 0.14400000000000546,
          "durationTicks": 144,
          "midi": 69,
          "name": "A4",
          "ticks": 125192,
          "time": 125.192,
          "velocity": 1
        },
        {
          "duration": 0.14400000000000546,
          "durationTicks": 144,
          "midi": 71,
          "name": "B4",
          "ticks": 125624,
          "time": 125.62399999999998,
          "velocity": 1
        },
        {
          "duration": 0.14400000000000546,
          "durationTicks": 144,
          "midi": 69,
          "name": "A4",
          "ticks": 126056,
          "time": 126.056,
          "velocity": 1
        },
        {
          "duration": 0.14399999999997704,
          "durationTicks": 144,
          "midi": 65,
          "name": "F4",
          "ticks": 126346,
          "time": 126.346,
          "velocity": 1
        },
        {
          "duration": 0.14400000000000546,
          "durationTicks": 144,
          "midi": 64,
          "name": "E4",
          "ticks": 126634,
          "time": 126.63399999999999,
          "velocity": 1
        },
        {
          "duration": 0.14400000000000546,
          "durationTicks": 144,
          "midi": 76,
          "name": "E5",
          "ticks": 126922,
          "time": 126.922,
          "velocity": 1
        },
        {
          "duration": 0.14400000000000546,
          "durationTicks": 144,
          "midi": 69,
          "name": "A4",
          "ticks": 127500,
          "time": 127.5,
          "velocity": 1
        },
        {
          "duration": 0.14400000000000546,
          "durationTicks": 144,
          "midi": 71,
          "name": "B4",
          "ticks": 127932,
          "time": 127.93199999999999,
          "velocity": 1
        },
        {
          "duration": 0.14400000000000546,
          "durationTicks": 144,
          "midi": 69,
          "name": "A4",
          "ticks": 128364,
          "time": 128.364,
          "velocity": 1
        },
        {
          "duration": 0.14400000000000546,
          "durationTicks": 144,
          "midi": 65,
          "name": "F4",
          "ticks": 128652,
          "time": 128.652,
          "velocity": 1
        },
        {
          "duration": 0.14400000000000546,
          "durationTicks": 144,
          "midi": 64,
          "name": "E4",
          "ticks": 128942,
          "time": 128.942,
          "velocity": 1
        },
        {
          "duration": 0.14399999999997704,
          "durationTicks": 144,
          "midi": 76,
          "name": "E5",
          "ticks": 129230,
          "time": 129.23000000000002,
          "velocity": 1
        },
        {
          "duration": 0.14400000000000546,
          "durationTicks": 144,
          "midi": 69,
          "name": "A4",
          "ticks": 129806,
          "time": 129.806,
          "velocity": 1
        },
        {
          "duration": 0.14400000000000546,
          "durationTicks": 144,
          "midi": 71,
          "name": "B4",
          "ticks": 130384,
          "time": 130.384,
          "velocity": 1
        },
        {
          "duration": 0.14400000000000546,
          "durationTicks": 144,
          "midi": 69,
          "name": "A4",
          "ticks": 130672,
          "time": 130.672,
          "velocity": 1
        },
        {
          "duration": 0.14400000000000546,
          "durationTicks": 144,
          "midi": 65,
          "name": "F4",
          "ticks": 130960,
          "time": 130.95999999999998,
          "velocity": 1
        },
        {
          "duration": 0.14400000000000546,
          "durationTicks": 144,
          "midi": 64,
          "name": "E4",
          "ticks": 131250,
          "time": 131.25,
          "velocity": 1
        },
        {
          "duration": 0.14399999999997704,
          "durationTicks": 144,
          "midi": 76,
          "name": "E5",
          "ticks": 131538,
          "time": 131.538,
          "velocity": 1
        },
        {
          "duration": 0.14400000000000546,
          "durationTicks": 144,
          "midi": 69,
          "name": "A4",
          "ticks": 132114,
          "time": 132.114,
          "velocity": 1
        },
        {
          "duration": 0.14400000000000546,
          "durationTicks": 144,
          "midi": 71,
          "name": "B4",
          "ticks": 132692,
          "time": 132.692,
          "velocity": 1
        },
        {
          "duration": 0.14399999999997704,
          "durationTicks": 144,
          "midi": 69,
          "name": "A4",
          "ticks": 132980,
          "time": 132.98000000000002,
          "velocity": 1
        },
        {
          "duration": 0.14400000000000546,
          "durationTicks": 144,
          "midi": 65,
          "name": "F4",
          "ticks": 133268,
          "time": 133.268,
          "velocity": 1
        },
        {
          "duration": 0.14400000000000546,
          "durationTicks": 144,
          "midi": 64,
          "name": "E4",
          "ticks": 133556,
          "time": 133.556,
          "velocity": 1
        },
        {
          "duration": 0.14399999999997704,
          "durationTicks": 144,
          "midi": 76,
          "name": "E5",
          "ticks": 133846,
          "time": 133.846,
          "velocity": 1
        },
        {
          "duration": 0.14400000000000546,
          "durationTicks": 144,
          "midi": 69,
          "name": "A4",
          "ticks": 134422,
          "time": 134.422,
          "velocity": 1
        },
        {
          "duration": 0.14400000000000546,
          "durationTicks": 144,
          "midi": 71,
          "name": "B4",
          "ticks": 134854,
          "time": 134.85399999999998,
          "velocity": 1
        },
        {
          "duration": 0.14399999999997704,
          "durationTicks": 144,
          "midi": 69,
          "name": "A4",
          "ticks": 135288,
          "time": 135.288,
          "velocity": 1
        },
        {
          "duration": 0.14400000000000546,
          "durationTicks": 144,
          "midi": 65,
          "name": "F4",
          "ticks": 135576,
          "time": 135.576,
          "velocity": 1
        },
        {
          "duration": 0.14400000000000546,
          "durationTicks": 144,
          "midi": 64,
          "name": "E4",
          "ticks": 135864,
          "time": 135.864,
          "velocity": 1
        },
        {
          "duration": 0.14400000000000546,
          "durationTicks": 144,
          "midi": 76,
          "name": "E5",
          "ticks": 136152,
          "time": 136.152,
          "velocity": 1
        },
        {
          "duration": 0.14399999999997704,
          "durationTicks": 144,
          "midi": 69,
          "name": "A4",
          "ticks": 136730,
          "time": 136.73000000000002,
          "velocity": 1
        },
        {
          "duration": 0.14400000000000546,
          "durationTicks": 144,
          "midi": 71,
          "name": "B4",
          "ticks": 137162,
          "time": 137.162,
          "velocity": 1
        },
        {
          "duration": 0.14399999999997704,
          "durationTicks": 144,
          "midi": 69,
          "name": "A4",
          "ticks": 137596,
          "time": 137.596,
          "velocity": 1
        },
        {
          "duration": 0.14400000000000546,
          "durationTicks": 144,
          "midi": 65,
          "name": "F4",
          "ticks": 137884,
          "time": 137.884,
          "velocity": 1
        },
        {
          "duration": 0.14400000000000546,
          "durationTicks": 144,
          "midi": 77,
          "name": "F5",
          "ticks": 138460,
          "time": 138.45999999999998,
          "velocity": 1
        },
        {
          "duration": 0.14399999999997704,
          "durationTicks": 144,
          "midi": 70,
          "name": "A#4",
          "ticks": 139038,
          "time": 139.038,
          "velocity": 1
        },
        {
          "duration": 0.14400000000000546,
          "durationTicks": 144,
          "midi": 72,
          "name": "C5",
          "ticks": 139614,
          "time": 139.614,
          "velocity": 1
        },
        {
          "duration": 0.14400000000000546,
          "durationTicks": 144,
          "midi": 70,
          "name": "A#4",
          "ticks": 139902,
          "time": 139.902,
          "velocity": 1
        },
        {
          "duration": 0.14400000000000546,
          "durationTicks": 144,
          "midi": 66,
          "name": "F#4",
          "ticks": 140192,
          "time": 140.19199999999998,
          "velocity": 1
        },
        {
          "duration": 0.14400000000000546,
          "durationTicks": 144,
          "midi": 65,
          "name": "F4",
          "ticks": 140480,
          "time": 140.48,
          "velocity": 1
        },
        {
          "duration": 0.14400000000000546,
          "durationTicks": 144,
          "midi": 77,
          "name": "F5",
          "ticks": 140768,
          "time": 140.768,
          "velocity": 1
        },
        {
          "duration": 0.14399999999997704,
          "durationTicks": 144,
          "midi": 70,
          "name": "A#4",
          "ticks": 141346,
          "time": 141.346,
          "velocity": 1
        },
        {
          "duration": 0.14400000000000546,
          "durationTicks": 144,
          "midi": 72,
          "name": "C5",
          "ticks": 141922,
          "time": 141.922,
          "velocity": 1
        },
        {
          "duration": 0.14400000000000546,
          "durationTicks": 144,
          "midi": 70,
          "name": "A#4",
          "ticks": 142210,
          "time": 142.20999999999998,
          "velocity": 1
        },
        {
          "duration": 0.14400000000000546,
          "durationTicks": 144,
          "midi": 66,
          "name": "F#4",
          "ticks": 142500,
          "time": 142.5,
          "velocity": 1
        },
        {
          "duration": 0.14399999999997704,
          "durationTicks": 144,
          "midi": 65,
          "name": "F4",
          "ticks": 142788,
          "time": 142.788,
          "velocity": 1
        },
        {
          "duration": 0.14400000000000546,
          "durationTicks": 144,
          "midi": 77,
          "name": "F5",
          "ticks": 143076,
          "time": 143.076,
          "velocity": 1
        },
        {
          "duration": 0.14400000000000546,
          "durationTicks": 144,
          "midi": 70,
          "name": "A#4",
          "ticks": 143652,
          "time": 143.652,
          "velocity": 1
        },
        {
          "duration": 0.14400000000000546,
          "durationTicks": 144,
          "midi": 72,
          "name": "C5",
          "ticks": 144086,
          "time": 144.08599999999998,
          "velocity": 1
        },
        {
          "duration": 0.14400000000000546,
          "durationTicks": 144,
          "midi": 70,
          "name": "A#4",
          "ticks": 144518,
          "time": 144.518,
          "velocity": 1
        },
        {
          "duration": 0.14400000000000546,
          "durationTicks": 144,
          "midi": 66,
          "name": "F#4",
          "ticks": 144806,
          "time": 144.806,
          "velocity": 1
        },
        {
          "duration": 0.14399999999997704,
          "durationTicks": 144,
          "midi": 65,
          "name": "F4",
          "ticks": 145096,
          "time": 145.096,
          "velocity": 1
        },
        {
          "duration": 0.14400000000000546,
          "durationTicks": 144,
          "midi": 77,
          "name": "F5",
          "ticks": 145384,
          "time": 145.384,
          "velocity": 1
        },
        {
          "duration": 0.14400000000000546,
          "durationTicks": 144,
          "midi": 70,
          "name": "A#4",
          "ticks": 145960,
          "time": 145.95999999999998,
          "velocity": 1
        },
        {
          "duration": 0.14400000000000546,
          "durationTicks": 144,
          "midi": 72,
          "name": "C5",
          "ticks": 146394,
          "time": 146.394,
          "velocity": 1
        },
        {
          "duration": 0.14400000000000546,
          "durationTicks": 144,
          "midi": 70,
          "name": "A#4",
          "ticks": 146826,
          "time": 146.826,
          "velocity": 1
        },
        {
          "duration": 0.14400000000000546,
          "durationTicks": 144,
          "midi": 66,
          "name": "F#4",
          "ticks": 147114,
          "time": 147.114,
          "velocity": 1
        },
        {
          "duration": 0.14400000000000546,
          "durationTicks": 144,
          "midi": 65,
          "name": "F4",
          "ticks": 147402,
          "time": 147.402,
          "velocity": 1
        },
        {
          "duration": 0.14400000000000546,
          "durationTicks": 144,
          "midi": 77,
          "name": "F5",
          "ticks": 147692,
          "time": 147.69199999999998,
          "velocity": 1
        },
        {
          "duration": 0.14400000000000546,
          "durationTicks": 144,
          "midi": 70,
          "name": "A#4",
          "ticks": 148268,
          "time": 148.268,
          "velocity": 1
        },
        {
          "duration": 0.14399999999997704,
          "durationTicks": 144,
          "midi": 72,
          "name": "C5",
          "ticks": 148846,
          "time": 148.846,
          "velocity": 1
        },
        {
          "duration": 0.14400000000000546,
          "durationTicks": 144,
          "midi": 70,
          "name": "A#4",
          "ticks": 149134,
          "time": 149.134,
          "velocity": 1
        },
        {
          "duration": 0.14400000000000546,
          "durationTicks": 144,
          "midi": 66,
          "name": "F#4",
          "ticks": 149422,
          "time": 149.422,
          "velocity": 1
        },
        {
          "duration": 0.14400000000000546,
          "durationTicks": 144,
          "midi": 65,
          "name": "F4",
          "ticks": 149710,
          "time": 149.70999999999998,
          "velocity": 1
        },
        {
          "duration": 0.14400000000000546,
          "durationTicks": 144,
          "midi": 77,
          "name": "F5",
          "ticks": 150000,
          "time": 150,
          "velocity": 1
        },
        {
          "duration": 0.14400000000000546,
          "durationTicks": 144,
          "midi": 70,
          "name": "A#4",
          "ticks": 150576,
          "time": 150.576,
          "velocity": 1
        },
        {
          "duration": 0.14400000000000546,
          "durationTicks": 144,
          "midi": 72,
          "name": "C5",
          "ticks": 151152,
          "time": 151.152,
          "velocity": 1
        },
        {
          "duration": 0.14400000000000546,
          "durationTicks": 144,
          "midi": 70,
          "name": "A#4",
          "ticks": 151442,
          "time": 151.44199999999998,
          "velocity": 1
        },
        {
          "duration": 0.14400000000000546,
          "durationTicks": 144,
          "midi": 66,
          "name": "F#4",
          "ticks": 151730,
          "time": 151.73,
          "velocity": 1
        },
        {
          "duration": 0.14400000000000546,
          "durationTicks": 144,
          "midi": 65,
          "name": "F4",
          "ticks": 152018,
          "time": 152.018,
          "velocity": 1
        },
        {
          "duration": 0.14400000000000546,
          "durationTicks": 144,
          "midi": 77,
          "name": "F5",
          "ticks": 152306,
          "time": 152.306,
          "velocity": 1
        },
        {
          "duration": 0.14400000000000546,
          "durationTicks": 144,
          "midi": 70,
          "name": "A#4",
          "ticks": 152884,
          "time": 152.884,
          "velocity": 1
        },
        {
          "duration": 0.14399999999997704,
          "durationTicks": 144,
          "midi": 72,
          "name": "C5",
          "ticks": 153316,
          "time": 153.316,
          "velocity": 1
        },
        {
          "duration": 0.14400000000000546,
          "durationTicks": 144,
          "midi": 70,
          "name": "A#4",
          "ticks": 153750,
          "time": 153.75,
          "velocity": 1
        },
        {
          "duration": 0.14399999999997704,
          "durationTicks": 144,
          "midi": 66,
          "name": "F#4",
          "ticks": 154038,
          "time": 154.038,
          "velocity": 1
        },
        {
          "duration": 0.14400000000000546,
          "durationTicks": 144,
          "midi": 65,
          "name": "F4",
          "ticks": 154326,
          "time": 154.326,
          "velocity": 1
        },
        {
          "duration": 0.14400000000000546,
          "durationTicks": 144,
          "midi": 77,
          "name": "F5",
          "ticks": 154614,
          "time": 154.614,
          "velocity": 1
        },
        {
          "duration": 0.14400000000000546,
          "durationTicks": 144,
          "midi": 70,
          "name": "A#4",
          "ticks": 155192,
          "time": 155.19199999999998,
          "velocity": 1
        },
        {
          "duration": 0.14400000000000546,
          "durationTicks": 144,
          "midi": 72,
          "name": "C5",
          "ticks": 155624,
          "time": 155.624,
          "velocity": 1
        },
        {
          "duration": 0.14400000000000546,
          "durationTicks": 144,
          "midi": 70,
          "name": "A#4",
          "ticks": 156056,
          "time": 156.056,
          "velocity": 1
        },
        {
          "duration": 0.14399999999997704,
          "durationTicks": 144,
          "midi": 66,
          "name": "F#4",
          "ticks": 156346,
          "time": 156.346,
          "velocity": 1
        }
      ]
    },
    {
      "channel": 0,
      "controlChanges": {},
      "pitchBends": [],
      "instrument": {
        "family": "piano",
        "number": 0,
        "name": "acoustic grand piano"
      },
      "name": "忍者_爱给网_aigei_com",
      "notes": [],
      "endOfTrackTicks": 157440
    },
    {
      "channel": 7,
      "controlChanges": {
        "7": [
          {
            "number": 7,
            "ticks": 0,
            "time": 0,
            "value": 1
          }
        ]
      },
      "pitchBends": [],
      "instrument": {
        "family": "bass",
        "number": 33,
        "name": "electric bass (finger)"
      },
      "name": "",
      "notes": [
        {
          "duration": 0.14399999999999835,
          "durationTicks": 144,
          "midi": 57,
          "name": "A3",
          "ticks": 35768,
          "time": 35.768,
          "velocity": 1
        },
        {
          "duration": 0.14399999999999835,
          "durationTicks": 144,
          "midi": 55,
          "name": "G3",
          "ticks": 35912,
          "time": 35.912,
          "velocity": 1
        },
        {
          "duration": 0.2880000000000038,
          "durationTicks": 288,
          "midi": 52,
          "name": "E3",
          "ticks": 36056,
          "time": 36.056,
          "velocity": 1
        },
        {
          "duration": 0.14399999999999835,
          "durationTicks": 144,
          "midi": 55,
          "name": "G3",
          "ticks": 36346,
          "time": 36.346,
          "velocity": 1
        },
        {
          "duration": 0.14400000000000546,
          "durationTicks": 144,
          "midi": 52,
          "name": "E3",
          "ticks": 36490,
          "time": 36.489999999999995,
          "velocity": 1
        },
        {
          "duration": 0.2879999999999967,
          "durationTicks": 288,
          "midi": 50,
          "name": "D3",
          "ticks": 36634,
          "time": 36.634,
          "velocity": 1
        },
        {
          "duration": 0.14399999999999835,
          "durationTicks": 144,
          "midi": 57,
          "name": "A3",
          "ticks": 45000,
          "time": 45,
          "velocity": 1
        },
        {
          "duration": 0.14399999999999835,
          "durationTicks": 144,
          "midi": 55,
          "name": "G3",
          "ticks": 45144,
          "time": 45.144,
          "velocity": 1
        },
        {
          "duration": 0.2880000000000038,
          "durationTicks": 288,
          "midi": 52,
          "name": "E3",
          "ticks": 45288,
          "time": 45.288,
          "velocity": 1
        },
        {
          "duration": 0.14399999999999835,
          "durationTicks": 144,
          "midi": 55,
          "name": "G3",
          "ticks": 45576,
          "time": 45.576,
          "velocity": 1
        },
        {
          "duration": 0.14399999999999835,
          "durationTicks": 144,
          "midi": 52,
          "name": "E3",
          "ticks": 45720,
          "time": 45.72,
          "velocity": 1
        },
        {
          "duration": 0.2880000000000038,
          "durationTicks": 288,
          "midi": 50,
          "name": "D3",
          "ticks": 45864,
          "time": 45.864,
          "velocity": 1
        },
        {
          "duration": 0.14400000000000546,
          "durationTicks": 144,
          "midi": 57,
          "name": "A3",
          "ticks": 81922,
          "time": 81.922,
          "velocity": 1
        },
        {
          "duration": 0.14400000000000546,
          "durationTicks": 144,
          "midi": 55,
          "name": "G3",
          "ticks": 82066,
          "time": 82.066,
          "velocity": 1
        },
        {
          "duration": 0.2879999999999967,
          "durationTicks": 288,
          "midi": 52,
          "name": "E3",
          "ticks": 82210,
          "time": 82.21000000000001,
          "velocity": 1
        },
        {
          "duration": 0.14400000000000546,
          "durationTicks": 144,
          "midi": 55,
          "name": "G3",
          "ticks": 82500,
          "time": 82.5,
          "velocity": 1
        },
        {
          "duration": 0.14399999999999125,
          "durationTicks": 144,
          "midi": 52,
          "name": "E3",
          "ticks": 82644,
          "time": 82.644,
          "velocity": 1
        },
        {
          "duration": 0.2879999999999967,
          "durationTicks": 288,
          "midi": 50,
          "name": "D3",
          "ticks": 82788,
          "time": 82.788,
          "velocity": 1
        },
        {
          "duration": 0.14399999999999125,
          "durationTicks": 144,
          "midi": 57,
          "name": "A3",
          "ticks": 109614,
          "time": 109.614,
          "velocity": 1
        },
        {
          "duration": 0.14400000000000546,
          "durationTicks": 144,
          "midi": 55,
          "name": "G3",
          "ticks": 109758,
          "time": 109.758,
          "velocity": 1
        },
        {
          "duration": 0.2879999999999967,
          "durationTicks": 288,
          "midi": 52,
          "name": "E3",
          "ticks": 109902,
          "time": 109.902,
          "velocity": 1
        },
        {
          "duration": 0.14400000000000546,
          "durationTicks": 144,
          "midi": 55,
          "name": "G3",
          "ticks": 110192,
          "time": 110.192,
          "velocity": 1
        },
        {
          "duration": 0.14399999999999125,
          "durationTicks": 144,
          "midi": 52,
          "name": "E3",
          "ticks": 110336,
          "time": 110.336,
          "velocity": 1
        },
        {
          "duration": 0.2880000000000109,
          "durationTicks": 288,
          "midi": 50,
          "name": "D3",
          "ticks": 110480,
          "time": 110.47999999999999,
          "velocity": 1
        },
        {
          "duration": 0.14400000000000546,
          "durationTicks": 144,
          "midi": 57,
          "name": "A3",
          "ticks": 118846,
          "time": 118.84599999999999,
          "velocity": 1
        },
        {
          "duration": 0.14399999999999125,
          "durationTicks": 144,
          "midi": 55,
          "name": "G3",
          "ticks": 118990,
          "time": 118.99,
          "velocity": 1
        },
        {
          "duration": 0.2879999999999967,
          "durationTicks": 288,
          "midi": 52,
          "name": "E3",
          "ticks": 119134,
          "time": 119.13399999999999,
          "velocity": 1
        },
        {
          "duration": 0.14400000000000546,
          "durationTicks": 144,
          "midi": 55,
          "name": "G3",
          "ticks": 119422,
          "time": 119.42199999999998,
          "velocity": 1
        },
        {
          "duration": 0.14400000000000546,
          "durationTicks": 144,
          "midi": 52,
          "name": "E3",
          "ticks": 119566,
          "time": 119.56599999999999,
          "velocity": 1
        },
        {
          "duration": 0.2879999999999967,
          "durationTicks": 288,
          "midi": 50,
          "name": "D3",
          "ticks": 119710,
          "time": 119.71,
          "velocity": 1
        }
      ]
    },
    {
      "channel": 0,
      "controlChanges": {},
      "pitchBends": [],
      "instrument": {
        "family": "piano",
        "number": 0,
        "name": "acoustic grand piano"
      },
      "name": "忍者_爱给网_aigei_com",
      "notes": [],
      "endOfTrackTicks": 157440
    },
    {
      "channel": 8,
      "controlChanges": {
        "7": [
          {
            "number": 7,
            "ticks": 0,
            "time": 0,
            "value": 1
          }
        ]
      },
      "pitchBends": [],
      "instrument": {
        "family": "chromatic percussion",
        "number": 13,
        "name": "xylophone"
      },
      "name": "",
      "notes": [
        {
          "duration": 0.1439999999999999,
          "durationTicks": 144,
          "midi": 48,
          "name": "C3",
          "ticks": 1008,
          "time": 1.008,
          "velocity": 1
        },
        {
          "duration": 0.14400000000000013,
          "durationTicks": 144,
          "midi": 52,
          "name": "E3",
          "ticks": 1152,
          "time": 1.152,
          "velocity": 1
        },
        {
          "duration": 0.14400000000000013,
          "durationTicks": 144,
          "midi": 48,
          "name": "C3",
          "ticks": 1298,
          "time": 1.2979999999999998,
          "velocity": 1
        },
        {
          "duration": 0.1439999999999999,
          "durationTicks": 144,
          "midi": 52,
          "name": "E3",
          "ticks": 1442,
          "time": 1.442,
          "velocity": 1
        },
        {
          "duration": 0.14399999999999968,
          "durationTicks": 144,
          "midi": 48,
          "name": "C3",
          "ticks": 3316,
          "time": 3.316,
          "velocity": 1
        },
        {
          "duration": 0.14400000000000057,
          "durationTicks": 144,
          "midi": 52,
          "name": "E3",
          "ticks": 3460,
          "time": 3.4599999999999995,
          "velocity": 1
        },
        {
          "duration": 0.14399999999999968,
          "durationTicks": 144,
          "midi": 48,
          "name": "C3",
          "ticks": 3604,
          "time": 3.604,
          "velocity": 1
        },
        {
          "duration": 0.14400000000000013,
          "durationTicks": 144,
          "midi": 52,
          "name": "E3",
          "ticks": 3750,
          "time": 3.75,
          "velocity": 1
        },
        {
          "duration": 0.14400000000000013,
          "durationTicks": 144,
          "midi": 48,
          "name": "C3",
          "ticks": 5624,
          "time": 5.624,
          "velocity": 1
        },
        {
          "duration": 0.14400000000000013,
          "durationTicks": 144,
          "midi": 52,
          "name": "E3",
          "ticks": 5768,
          "time": 5.768,
          "velocity": 1
        },
        {
          "duration": 0.14400000000000013,
          "durationTicks": 144,
          "midi": 48,
          "name": "C3",
          "ticks": 5912,
          "time": 5.912,
          "velocity": 1
        },
        {
          "duration": 0.14399999999999924,
          "durationTicks": 144,
          "midi": 52,
          "name": "E3",
          "ticks": 6056,
          "time": 6.056,
          "velocity": 1
        },
        {
          "duration": 0.14400000000000013,
          "durationTicks": 144,
          "midi": 48,
          "name": "C3",
          "ticks": 7932,
          "time": 7.931999999999999,
          "velocity": 1
        },
        {
          "duration": 0.14400000000000013,
          "durationTicks": 144,
          "midi": 52,
          "name": "E3",
          "ticks": 8076,
          "time": 8.075999999999999,
          "velocity": 1
        },
        {
          "duration": 0.1440000000000019,
          "durationTicks": 144,
          "midi": 48,
          "name": "C3",
          "ticks": 8220,
          "time": 8.219999999999999,
          "velocity": 1
        },
        {
          "duration": 0.14400000000000013,
          "durationTicks": 144,
          "midi": 52,
          "name": "E3",
          "ticks": 8364,
          "time": 8.364,
          "velocity": 1
        },
        {
          "duration": 0.14400000000000013,
          "durationTicks": 144,
          "midi": 48,
          "name": "C3",
          "ticks": 10240,
          "time": 10.239999999999998,
          "velocity": 1
        },
        {
          "duration": 0.1440000000000019,
          "durationTicks": 144,
          "midi": 52,
          "name": "E3",
          "ticks": 10384,
          "time": 10.383999999999999,
          "velocity": 1
        },
        {
          "duration": 0.14400000000000013,
          "durationTicks": 144,
          "midi": 48,
          "name": "C3",
          "ticks": 10528,
          "time": 10.528,
          "velocity": 1
        },
        {
          "duration": 0.14400000000000013,
          "durationTicks": 144,
          "midi": 52,
          "name": "E3",
          "ticks": 10672,
          "time": 10.672,
          "velocity": 1
        },
        {
          "duration": 0.1440000000000019,
          "durationTicks": 144,
          "midi": 48,
          "name": "C3",
          "ticks": 12548,
          "time": 12.547999999999998,
          "velocity": 1
        },
        {
          "duration": 0.14400000000000013,
          "durationTicks": 144,
          "midi": 52,
          "name": "E3",
          "ticks": 12692,
          "time": 12.692,
          "velocity": 1
        },
        {
          "duration": 0.14400000000000013,
          "durationTicks": 144,
          "midi": 48,
          "name": "C3",
          "ticks": 12836,
          "time": 12.836,
          "velocity": 1
        },
        {
          "duration": 0.14399999999999835,
          "durationTicks": 144,
          "midi": 52,
          "name": "E3",
          "ticks": 12980,
          "time": 12.98,
          "velocity": 1
        },
        {
          "duration": 0.14400000000000013,
          "durationTicks": 144,
          "midi": 48,
          "name": "C3",
          "ticks": 14854,
          "time": 14.854,
          "velocity": 1
        },
        {
          "duration": 0.14400000000000013,
          "durationTicks": 144,
          "midi": 52,
          "name": "E3",
          "ticks": 15000,
          "time": 15,
          "velocity": 1
        },
        {
          "duration": 0.14400000000000013,
          "durationTicks": 144,
          "midi": 48,
          "name": "C3",
          "ticks": 15144,
          "time": 15.144,
          "velocity": 1
        },
        {
          "duration": 0.14399999999999835,
          "durationTicks": 144,
          "midi": 52,
          "name": "E3",
          "ticks": 15288,
          "time": 15.288,
          "velocity": 1
        },
        {
          "duration": 0.14399999999999835,
          "durationTicks": 144,
          "midi": 48,
          "name": "C3",
          "ticks": 17162,
          "time": 17.162000000000003,
          "velocity": 1
        },
        {
          "duration": 0.14399999999999835,
          "durationTicks": 144,
          "midi": 52,
          "name": "E3",
          "ticks": 17306,
          "time": 17.306,
          "velocity": 1
        },
        {
          "duration": 0.1440000000000019,
          "durationTicks": 144,
          "midi": 48,
          "name": "C3",
          "ticks": 17450,
          "time": 17.45,
          "velocity": 1
        },
        {
          "duration": 0.1440000000000019,
          "durationTicks": 144,
          "midi": 52,
          "name": "E3",
          "ticks": 17596,
          "time": 17.596,
          "velocity": 1
        },
        {
          "duration": 0.14399999999999835,
          "durationTicks": 144,
          "midi": 48,
          "name": "C3",
          "ticks": 19470,
          "time": 19.47,
          "velocity": 1
        },
        {
          "duration": 0.1440000000000019,
          "durationTicks": 144,
          "midi": 52,
          "name": "E3",
          "ticks": 19614,
          "time": 19.613999999999997,
          "velocity": 1
        },
        {
          "duration": 0.14399999999999835,
          "durationTicks": 144,
          "midi": 48,
          "name": "C3",
          "ticks": 19758,
          "time": 19.758,
          "velocity": 1
        },
        {
          "duration": 0.1440000000000019,
          "durationTicks": 144,
          "midi": 52,
          "name": "E3",
          "ticks": 19902,
          "time": 19.901999999999997,
          "velocity": 1
        },
        {
          "duration": 0.1440000000000019,
          "durationTicks": 144,
          "midi": 48,
          "name": "C3",
          "ticks": 21778,
          "time": 21.778,
          "velocity": 1
        },
        {
          "duration": 0.14399999999999835,
          "durationTicks": 144,
          "midi": 52,
          "name": "E3",
          "ticks": 21922,
          "time": 21.922,
          "velocity": 1
        },
        {
          "duration": 0.1440000000000019,
          "durationTicks": 144,
          "midi": 48,
          "name": "C3",
          "ticks": 22066,
          "time": 22.066,
          "velocity": 1
        },
        {
          "duration": 0.14399999999999835,
          "durationTicks": 144,
          "midi": 52,
          "name": "E3",
          "ticks": 22210,
          "time": 22.21,
          "velocity": 1
        },
        {
          "duration": 0.14399999999999835,
          "durationTicks": 144,
          "midi": 48,
          "name": "C3",
          "ticks": 24086,
          "time": 24.086,
          "velocity": 1
        },
        {
          "duration": 0.1440000000000019,
          "durationTicks": 144,
          "midi": 52,
          "name": "E3",
          "ticks": 24230,
          "time": 24.229999999999997,
          "velocity": 1
        },
        {
          "duration": 0.14399999999999835,
          "durationTicks": 144,
          "midi": 48,
          "name": "C3",
          "ticks": 24374,
          "time": 24.374,
          "velocity": 1
        },
        {
          "duration": 0.1440000000000019,
          "durationTicks": 144,
          "midi": 52,
          "name": "E3",
          "ticks": 24518,
          "time": 24.517999999999997,
          "velocity": 1
        },
        {
          "duration": 0.1440000000000019,
          "durationTicks": 144,
          "midi": 48,
          "name": "C3",
          "ticks": 26394,
          "time": 26.394,
          "velocity": 1
        },
        {
          "duration": 0.14399999999999835,
          "durationTicks": 144,
          "midi": 52,
          "name": "E3",
          "ticks": 26538,
          "time": 26.538,
          "velocity": 1
        },
        {
          "duration": 0.1440000000000019,
          "durationTicks": 144,
          "midi": 48,
          "name": "C3",
          "ticks": 26682,
          "time": 26.682,
          "velocity": 1
        },
        {
          "duration": 0.14399999999999835,
          "durationTicks": 144,
          "midi": 52,
          "name": "E3",
          "ticks": 26826,
          "time": 26.826,
          "velocity": 1
        },
        {
          "duration": 0.14399999999999835,
          "durationTicks": 144,
          "midi": 48,
          "name": "C3",
          "ticks": 37932,
          "time": 37.932,
          "velocity": 1
        },
        {
          "duration": 0.14399999999999835,
          "durationTicks": 144,
          "midi": 52,
          "name": "E3",
          "ticks": 38076,
          "time": 38.076,
          "velocity": 1
        },
        {
          "duration": 0.14399999999999835,
          "durationTicks": 144,
          "midi": 48,
          "name": "C3",
          "ticks": 38220,
          "time": 38.22,
          "velocity": 1
        },
        {
          "duration": 0.14399999999999835,
          "durationTicks": 144,
          "midi": 52,
          "name": "E3",
          "ticks": 38364,
          "time": 38.364,
          "velocity": 1
        },
        {
          "duration": 0.14400000000000546,
          "durationTicks": 144,
          "midi": 48,
          "name": "C3",
          "ticks": 40240,
          "time": 40.239999999999995,
          "velocity": 1
        },
        {
          "duration": 0.14399999999999835,
          "durationTicks": 144,
          "midi": 52,
          "name": "E3",
          "ticks": 40384,
          "time": 40.384,
          "velocity": 1
        },
        {
          "duration": 0.14399999999999835,
          "durationTicks": 144,
          "midi": 48,
          "name": "C3",
          "ticks": 40528,
          "time": 40.528,
          "velocity": 1
        },
        {
          "duration": 0.14399999999999835,
          "durationTicks": 144,
          "midi": 52,
          "name": "E3",
          "ticks": 40672,
          "time": 40.672,
          "velocity": 1
        },
        {
          "duration": 0.14399999999999835,
          "durationTicks": 144,
          "midi": 48,
          "name": "C3",
          "ticks": 42548,
          "time": 42.547999999999995,
          "velocity": 1
        },
        {
          "duration": 0.14400000000000546,
          "durationTicks": 144,
          "midi": 52,
          "name": "E3",
          "ticks": 42692,
          "time": 42.69199999999999,
          "velocity": 1
        },
        {
          "duration": 0.14400000000000546,
          "durationTicks": 144,
          "midi": 48,
          "name": "C3",
          "ticks": 42836,
          "time": 42.836,
          "velocity": 1
        },
        {
          "duration": 0.14399999999999835,
          "durationTicks": 144,
          "midi": 52,
          "name": "E3",
          "ticks": 42980,
          "time": 42.980000000000004,
          "velocity": 1
        },
        {
          "duration": 0.14399999999999835,
          "durationTicks": 144,
          "midi": 48,
          "name": "C3",
          "ticks": 47162,
          "time": 47.162,
          "velocity": 1
        },
        {
          "duration": 0.14400000000000546,
          "durationTicks": 144,
          "midi": 52,
          "name": "E3",
          "ticks": 47306,
          "time": 47.306,
          "velocity": 1
        },
        {
          "duration": 0.14399999999999835,
          "durationTicks": 144,
          "midi": 48,
          "name": "C3",
          "ticks": 47450,
          "time": 47.45,
          "velocity": 1
        },
        {
          "duration": 0.14399999999999835,
          "durationTicks": 144,
          "midi": 52,
          "name": "E3",
          "ticks": 47596,
          "time": 47.596,
          "velocity": 1
        },
        {
          "duration": 0.14399999999999835,
          "durationTicks": 144,
          "midi": 48,
          "name": "C3",
          "ticks": 49470,
          "time": 49.47,
          "velocity": 1
        },
        {
          "duration": 0.14399999999999835,
          "durationTicks": 144,
          "midi": 52,
          "name": "E3",
          "ticks": 49614,
          "time": 49.614,
          "velocity": 1
        },
        {
          "duration": 0.14400000000000546,
          "durationTicks": 144,
          "midi": 48,
          "name": "C3",
          "ticks": 49758,
          "time": 49.757999999999996,
          "velocity": 1
        },
        {
          "duration": 0.14399999999999835,
          "durationTicks": 144,
          "midi": 52,
          "name": "E3",
          "ticks": 49902,
          "time": 49.902,
          "velocity": 1
        },
        {
          "duration": 0.14399999999999835,
          "durationTicks": 144,
          "midi": 48,
          "name": "C3",
          "ticks": 52354,
          "time": 52.354,
          "velocity": 1
        },
        {
          "duration": 0.14399999999999835,
          "durationTicks": 144,
          "midi": 52,
          "name": "E3",
          "ticks": 52500,
          "time": 52.5,
          "velocity": 1
        },
        {
          "duration": 0.14399999999999835,
          "durationTicks": 144,
          "midi": 48,
          "name": "C3",
          "ticks": 52644,
          "time": 52.644,
          "velocity": 1
        },
        {
          "duration": 0.14400000000000546,
          "durationTicks": 144,
          "midi": 52,
          "name": "E3",
          "ticks": 52788,
          "time": 52.788,
          "velocity": 1
        },
        {
          "duration": 0.14399999999999835,
          "durationTicks": 144,
          "midi": 48,
          "name": "C3",
          "ticks": 54662,
          "time": 54.662,
          "velocity": 1
        },
        {
          "duration": 0.14400000000000546,
          "durationTicks": 144,
          "midi": 52,
          "name": "E3",
          "ticks": 54806,
          "time": 54.806,
          "velocity": 1
        },
        {
          "duration": 0.14399999999999835,
          "durationTicks": 144,
          "midi": 48,
          "name": "C3",
          "ticks": 54950,
          "time": 54.95,
          "velocity": 1
        },
        {
          "duration": 0.14399999999999835,
          "durationTicks": 144,
          "midi": 52,
          "name": "E3",
          "ticks": 55096,
          "time": 55.096,
          "velocity": 1
        },
        {
          "duration": 0.14399999999999835,
          "durationTicks": 144,
          "midi": 48,
          "name": "C3",
          "ticks": 56970,
          "time": 56.97,
          "velocity": 1
        },
        {
          "duration": 0.14399999999999835,
          "durationTicks": 144,
          "midi": 52,
          "name": "E3",
          "ticks": 57114,
          "time": 57.114,
          "velocity": 1
        },
        {
          "duration": 0.14400000000000546,
          "durationTicks": 144,
          "midi": 48,
          "name": "C3",
          "ticks": 57258,
          "time": 57.257999999999996,
          "velocity": 1
        },
        {
          "duration": 0.14399999999999835,
          "durationTicks": 144,
          "midi": 52,
          "name": "E3",
          "ticks": 57402,
          "time": 57.402,
          "velocity": 1
        },
        {
          "duration": 0.14399999999999835,
          "durationTicks": 144,
          "midi": 48,
          "name": "C3",
          "ticks": 58700,
          "time": 58.7,
          "velocity": 1
        },
        {
          "duration": 0.14399999999999835,
          "durationTicks": 144,
          "midi": 52,
          "name": "E3",
          "ticks": 58846,
          "time": 58.846,
          "velocity": 1
        },
        {
          "duration": 0.14400000000000546,
          "durationTicks": 144,
          "midi": 48,
          "name": "C3",
          "ticks": 58990,
          "time": 58.989999999999995,
          "velocity": 1
        },
        {
          "duration": 0.14399999999999835,
          "durationTicks": 144,
          "midi": 52,
          "name": "E3",
          "ticks": 59134,
          "time": 59.134,
          "velocity": 1
        },
        {
          "duration": 0.14400000000000546,
          "durationTicks": 144,
          "midi": 48,
          "name": "C3",
          "ticks": 61008,
          "time": 61.007999999999996,
          "velocity": 1
        },
        {
          "duration": 0.14399999999999835,
          "durationTicks": 144,
          "midi": 52,
          "name": "E3",
          "ticks": 61152,
          "time": 61.152,
          "velocity": 1
        },
        {
          "duration": 0.14399999999999835,
          "durationTicks": 144,
          "midi": 48,
          "name": "C3",
          "ticks": 61298,
          "time": 61.297999999999995,
          "velocity": 1
        },
        {
          "duration": 0.14400000000000546,
          "durationTicks": 144,
          "midi": 52,
          "name": "E3",
          "ticks": 61442,
          "time": 61.44199999999999,
          "velocity": 1
        },
        {
          "duration": 0.14400000000000546,
          "durationTicks": 144,
          "midi": 48,
          "name": "C3",
          "ticks": 63316,
          "time": 63.315999999999995,
          "velocity": 1
        },
        {
          "duration": 0.14399999999999125,
          "durationTicks": 144,
          "midi": 52,
          "name": "E3",
          "ticks": 63460,
          "time": 63.46,
          "velocity": 1
        },
        {
          "duration": 0.14400000000000546,
          "durationTicks": 144,
          "midi": 48,
          "name": "C3",
          "ticks": 63604,
          "time": 63.60399999999999,
          "velocity": 1
        },
        {
          "duration": 0.14400000000000546,
          "durationTicks": 144,
          "midi": 52,
          "name": "E3",
          "ticks": 63750,
          "time": 63.75,
          "velocity": 1
        },
        {
          "duration": 0.14399999999999125,
          "durationTicks": 144,
          "midi": 48,
          "name": "C3",
          "ticks": 84086,
          "time": 84.086,
          "velocity": 1
        },
        {
          "duration": 0.14400000000000546,
          "durationTicks": 144,
          "midi": 52,
          "name": "E3",
          "ticks": 84230,
          "time": 84.22999999999999,
          "velocity": 1
        },
        {
          "duration": 0.14400000000000546,
          "durationTicks": 144,
          "midi": 48,
          "name": "C3",
          "ticks": 84374,
          "time": 84.374,
          "velocity": 1
        },
        {
          "duration": 0.14399999999999125,
          "durationTicks": 144,
          "midi": 52,
          "name": "E3",
          "ticks": 84518,
          "time": 84.518,
          "velocity": 1
        },
        {
          "duration": 0.14399999999999125,
          "durationTicks": 144,
          "midi": 48,
          "name": "C3",
          "ticks": 86394,
          "time": 86.394,
          "velocity": 1
        },
        {
          "duration": 0.14400000000000546,
          "durationTicks": 144,
          "midi": 52,
          "name": "E3",
          "ticks": 86538,
          "time": 86.538,
          "velocity": 1
        },
        {
          "duration": 0.14399999999999125,
          "durationTicks": 144,
          "midi": 48,
          "name": "C3",
          "ticks": 86682,
          "time": 86.682,
          "velocity": 1
        },
        {
          "duration": 0.14400000000000546,
          "durationTicks": 144,
          "midi": 52,
          "name": "E3",
          "ticks": 86826,
          "time": 86.826,
          "velocity": 1
        },
        {
          "duration": 0.14400000000000546,
          "durationTicks": 144,
          "midi": 48,
          "name": "C3",
          "ticks": 88700,
          "time": 88.69999999999999,
          "velocity": 1
        },
        {
          "duration": 0.14400000000000546,
          "durationTicks": 144,
          "midi": 52,
          "name": "E3",
          "ticks": 88846,
          "time": 88.84599999999999,
          "velocity": 1
        },
        {
          "duration": 0.14399999999999125,
          "durationTicks": 144,
          "midi": 48,
          "name": "C3",
          "ticks": 88990,
          "time": 88.99,
          "velocity": 1
        },
        {
          "duration": 0.14400000000000546,
          "durationTicks": 144,
          "midi": 52,
          "name": "E3",
          "ticks": 89134,
          "time": 89.13399999999999,
          "velocity": 1
        },
        {
          "duration": 0.14400000000000546,
          "durationTicks": 144,
          "midi": 48,
          "name": "C3",
          "ticks": 91008,
          "time": 91.008,
          "velocity": 1
        },
        {
          "duration": 0.14399999999999125,
          "durationTicks": 144,
          "midi": 52,
          "name": "E3",
          "ticks": 91152,
          "time": 91.152,
          "velocity": 1
        },
        {
          "duration": 0.14399999999999125,
          "durationTicks": 144,
          "midi": 48,
          "name": "C3",
          "ticks": 91298,
          "time": 91.298,
          "velocity": 1
        },
        {
          "duration": 0.14400000000000546,
          "durationTicks": 144,
          "midi": 52,
          "name": "E3",
          "ticks": 91442,
          "time": 91.442,
          "velocity": 1
        },
        {
          "duration": 0.14400000000000546,
          "durationTicks": 144,
          "midi": 48,
          "name": "C3",
          "ticks": 93316,
          "time": 93.316,
          "velocity": 1
        },
        {
          "duration": 0.14399999999999125,
          "durationTicks": 144,
          "midi": 52,
          "name": "E3",
          "ticks": 93460,
          "time": 93.46000000000001,
          "velocity": 1
        },
        {
          "duration": 0.14400000000000546,
          "durationTicks": 144,
          "midi": 48,
          "name": "C3",
          "ticks": 93604,
          "time": 93.604,
          "velocity": 1
        },
        {
          "duration": 0.14400000000000546,
          "durationTicks": 144,
          "midi": 52,
          "name": "E3",
          "ticks": 93750,
          "time": 93.75,
          "velocity": 1
        },
        {
          "duration": 0.14400000000000546,
          "durationTicks": 144,
          "midi": 48,
          "name": "C3",
          "ticks": 95624,
          "time": 95.624,
          "velocity": 1
        },
        {
          "duration": 0.14399999999999125,
          "durationTicks": 144,
          "midi": 52,
          "name": "E3",
          "ticks": 95768,
          "time": 95.768,
          "velocity": 1
        },
        {
          "duration": 0.14400000000000546,
          "durationTicks": 144,
          "midi": 48,
          "name": "C3",
          "ticks": 95912,
          "time": 95.91199999999999,
          "velocity": 1
        },
        {
          "duration": 0.14399999999999125,
          "durationTicks": 144,
          "midi": 52,
          "name": "E3",
          "ticks": 96056,
          "time": 96.056,
          "velocity": 1
        },
        {
          "duration": 0.14399999999999125,
          "durationTicks": 144,
          "midi": 48,
          "name": "C3",
          "ticks": 97932,
          "time": 97.932,
          "velocity": 1
        },
        {
          "duration": 0.14400000000000546,
          "durationTicks": 144,
          "midi": 52,
          "name": "E3",
          "ticks": 98076,
          "time": 98.076,
          "velocity": 1
        },
        {
          "duration": 0.14400000000000546,
          "durationTicks": 144,
          "midi": 48,
          "name": "C3",
          "ticks": 98220,
          "time": 98.22,
          "velocity": 1
        },
        {
          "duration": 0.14399999999999125,
          "durationTicks": 144,
          "midi": 52,
          "name": "E3",
          "ticks": 98364,
          "time": 98.364,
          "velocity": 1
        },
        {
          "duration": 0.14399999999999125,
          "durationTicks": 144,
          "midi": 48,
          "name": "C3",
          "ticks": 100240,
          "time": 100.24,
          "velocity": 1
        },
        {
          "duration": 0.14400000000000546,
          "durationTicks": 144,
          "midi": 52,
          "name": "E3",
          "ticks": 100384,
          "time": 100.38399999999999,
          "velocity": 1
        },
        {
          "duration": 0.14399999999999125,
          "durationTicks": 144,
          "midi": 48,
          "name": "C3",
          "ticks": 100528,
          "time": 100.52799999999999,
          "velocity": 1
        },
        {
          "duration": 0.14400000000000546,
          "durationTicks": 144,
          "midi": 52,
          "name": "E3",
          "ticks": 100672,
          "time": 100.67199999999998,
          "velocity": 1
        },
        {
          "duration": 0.14399999999999125,
          "durationTicks": 144,
          "midi": 48,
          "name": "C3",
          "ticks": 111778,
          "time": 111.77799999999999,
          "velocity": 1
        },
        {
          "duration": 0.14400000000000546,
          "durationTicks": 144,
          "midi": 52,
          "name": "E3",
          "ticks": 111922,
          "time": 111.92199999999998,
          "velocity": 1
        },
        {
          "duration": 0.14400000000000546,
          "durationTicks": 144,
          "midi": 48,
          "name": "C3",
          "ticks": 112066,
          "time": 112.06599999999999,
          "velocity": 1
        },
        {
          "duration": 0.14400000000000546,
          "durationTicks": 144,
          "midi": 52,
          "name": "E3",
          "ticks": 112210,
          "time": 112.21,
          "velocity": 1
        },
        {
          "duration": 0.14399999999999125,
          "durationTicks": 144,
          "midi": 48,
          "name": "C3",
          "ticks": 114086,
          "time": 114.086,
          "velocity": 1
        },
        {
          "duration": 0.14400000000000546,
          "durationTicks": 144,
          "midi": 52,
          "name": "E3",
          "ticks": 114230,
          "time": 114.22999999999999,
          "velocity": 1
        },
        {
          "duration": 0.14400000000000546,
          "durationTicks": 144,
          "midi": 48,
          "name": "C3",
          "ticks": 114374,
          "time": 114.374,
          "velocity": 1
        },
        {
          "duration": 0.14399999999999125,
          "durationTicks": 144,
          "midi": 52,
          "name": "E3",
          "ticks": 114518,
          "time": 114.518,
          "velocity": 1
        },
        {
          "duration": 0.14399999999999125,
          "durationTicks": 144,
          "midi": 48,
          "name": "C3",
          "ticks": 116394,
          "time": 116.394,
          "velocity": 1
        },
        {
          "duration": 0.14400000000000546,
          "durationTicks": 144,
          "midi": 52,
          "name": "E3",
          "ticks": 116538,
          "time": 116.538,
          "velocity": 1
        },
        {
          "duration": 0.14399999999999125,
          "durationTicks": 144,
          "midi": 48,
          "name": "C3",
          "ticks": 116682,
          "time": 116.682,
          "velocity": 1
        },
        {
          "duration": 0.14400000000000546,
          "durationTicks": 144,
          "midi": 52,
          "name": "E3",
          "ticks": 116826,
          "time": 116.826,
          "velocity": 1
        },
        {
          "duration": 0.14400000000000546,
          "durationTicks": 144,
          "midi": 48,
          "name": "C3",
          "ticks": 121008,
          "time": 121.008,
          "velocity": 1
        },
        {
          "duration": 0.14399999999999125,
          "durationTicks": 144,
          "midi": 52,
          "name": "E3",
          "ticks": 121152,
          "time": 121.152,
          "velocity": 1
        },
        {
          "duration": 0.14399999999999125,
          "durationTicks": 144,
          "midi": 48,
          "name": "C3",
          "ticks": 121298,
          "time": 121.298,
          "velocity": 1
        },
        {
          "duration": 0.14400000000000546,
          "durationTicks": 144,
          "midi": 52,
          "name": "E3",
          "ticks": 121442,
          "time": 121.442,
          "velocity": 1
        },
        {
          "duration": 0.14399999999997704,
          "durationTicks": 144,
          "midi": 48,
          "name": "C3",
          "ticks": 123316,
          "time": 123.316,
          "velocity": 1
        },
        {
          "duration": 0.14400000000000546,
          "durationTicks": 144,
          "midi": 52,
          "name": "E3",
          "ticks": 123460,
          "time": 123.45999999999998,
          "velocity": 1
        },
        {
          "duration": 0.14400000000000546,
          "durationTicks": 144,
          "midi": 48,
          "name": "C3",
          "ticks": 123604,
          "time": 123.60399999999998,
          "velocity": 1
        },
        {
          "duration": 0.14400000000000546,
          "durationTicks": 144,
          "midi": 52,
          "name": "E3",
          "ticks": 123750,
          "time": 123.75,
          "velocity": 1
        },
        {
          "duration": 0.14399999999997704,
          "durationTicks": 144,
          "midi": 48,
          "name": "C3",
          "ticks": 126200,
          "time": 126.2,
          "velocity": 1
        },
        {
          "duration": 0.14399999999997704,
          "durationTicks": 144,
          "midi": 52,
          "name": "E3",
          "ticks": 126346,
          "time": 126.346,
          "velocity": 1
        },
        {
          "duration": 0.14400000000000546,
          "durationTicks": 144,
          "midi": 48,
          "name": "C3",
          "ticks": 126490,
          "time": 126.48999999999998,
          "velocity": 1
        },
        {
          "duration": 0.14400000000000546,
          "durationTicks": 144,
          "midi": 52,
          "name": "E3",
          "ticks": 126634,
          "time": 126.63399999999999,
          "velocity": 1
        },
        {
          "duration": 0.14399999999997704,
          "durationTicks": 144,
          "midi": 48,
          "name": "C3",
          "ticks": 128508,
          "time": 128.508,
          "velocity": 1
        },
        {
          "duration": 0.14400000000000546,
          "durationTicks": 144,
          "midi": 52,
          "name": "E3",
          "ticks": 128652,
          "time": 128.652,
          "velocity": 1
        },
        {
          "duration": 0.14400000000000546,
          "durationTicks": 144,
          "midi": 48,
          "name": "C3",
          "ticks": 128798,
          "time": 128.798,
          "velocity": 1
        },
        {
          "duration": 0.14400000000000546,
          "durationTicks": 144,
          "midi": 52,
          "name": "E3",
          "ticks": 128942,
          "time": 128.942,
          "velocity": 1
        },
        {
          "duration": 0.14399999999997704,
          "durationTicks": 144,
          "midi": 48,
          "name": "C3",
          "ticks": 130816,
          "time": 130.816,
          "velocity": 1
        },
        {
          "duration": 0.14400000000000546,
          "durationTicks": 144,
          "midi": 52,
          "name": "E3",
          "ticks": 130960,
          "time": 130.95999999999998,
          "velocity": 1
        },
        {
          "duration": 0.14400000000000546,
          "durationTicks": 144,
          "midi": 48,
          "name": "C3",
          "ticks": 131104,
          "time": 131.10399999999998,
          "velocity": 1
        },
        {
          "duration": 0.14400000000000546,
          "durationTicks": 144,
          "midi": 52,
          "name": "E3",
          "ticks": 131250,
          "time": 131.25,
          "velocity": 1
        },
        {
          "duration": 0.14400000000000546,
          "durationTicks": 144,
          "midi": 48,
          "name": "C3",
          "ticks": 132548,
          "time": 132.548,
          "velocity": 1
        },
        {
          "duration": 0.14400000000000546,
          "durationTicks": 144,
          "midi": 52,
          "name": "E3",
          "ticks": 132692,
          "time": 132.692,
          "velocity": 1
        },
        {
          "duration": 0.14400000000000546,
          "durationTicks": 144,
          "midi": 48,
          "name": "C3",
          "ticks": 132836,
          "time": 132.836,
          "velocity": 1
        },
        {
          "duration": 0.14399999999997704,
          "durationTicks": 144,
          "midi": 52,
          "name": "E3",
          "ticks": 132980,
          "time": 132.98000000000002,
          "velocity": 1
        },
        {
          "duration": 0.14400000000000546,
          "durationTicks": 144,
          "midi": 48,
          "name": "C3",
          "ticks": 134854,
          "time": 134.85399999999998,
          "velocity": 1
        },
        {
          "duration": 0.14400000000000546,
          "durationTicks": 144,
          "midi": 52,
          "name": "E3",
          "ticks": 135000,
          "time": 135,
          "velocity": 1
        },
        {
          "duration": 0.14400000000000546,
          "durationTicks": 144,
          "midi": 48,
          "name": "C3",
          "ticks": 135144,
          "time": 135.144,
          "velocity": 1
        },
        {
          "duration": 0.14399999999997704,
          "durationTicks": 144,
          "midi": 52,
          "name": "E3",
          "ticks": 135288,
          "time": 135.288,
          "velocity": 1
        },
        {
          "duration": 0.14400000000000546,
          "durationTicks": 144,
          "midi": 48,
          "name": "C3",
          "ticks": 137162,
          "time": 137.162,
          "velocity": 1
        },
        {
          "duration": 0.14400000000000546,
          "durationTicks": 144,
          "midi": 52,
          "name": "E3",
          "ticks": 137306,
          "time": 137.306,
          "velocity": 1
        },
        {
          "duration": 0.14399999999997704,
          "durationTicks": 144,
          "midi": 48,
          "name": "C3",
          "ticks": 137450,
          "time": 137.45000000000002,
          "velocity": 1
        },
        {
          "duration": 0.14399999999997704,
          "durationTicks": 144,
          "midi": 52,
          "name": "E3",
          "ticks": 137596,
          "time": 137.596,
          "velocity": 1
        },
        {
          "duration": 0.14400000000000546,
          "durationTicks": 144,
          "midi": 49,
          "name": "C#3",
          "ticks": 139470,
          "time": 139.47,
          "velocity": 1
        },
        {
          "duration": 0.14400000000000546,
          "durationTicks": 144,
          "midi": 53,
          "name": "F3",
          "ticks": 139614,
          "time": 139.614,
          "velocity": 1
        },
        {
          "duration": 0.14399999999997704,
          "durationTicks": 144,
          "midi": 49,
          "name": "C#3",
          "ticks": 139758,
          "time": 139.758,
          "velocity": 1
        },
        {
          "duration": 0.14400000000000546,
          "durationTicks": 144,
          "midi": 53,
          "name": "F3",
          "ticks": 139902,
          "time": 139.902,
          "velocity": 1
        },
        {
          "duration": 0.14400000000000546,
          "durationTicks": 144,
          "midi": 49,
          "name": "C#3",
          "ticks": 141778,
          "time": 141.778,
          "velocity": 1
        },
        {
          "duration": 0.14400000000000546,
          "durationTicks": 144,
          "midi": 53,
          "name": "F3",
          "ticks": 141922,
          "time": 141.922,
          "velocity": 1
        },
        {
          "duration": 0.14399999999997704,
          "durationTicks": 144,
          "midi": 49,
          "name": "C#3",
          "ticks": 142066,
          "time": 142.066,
          "velocity": 1
        },
        {
          "duration": 0.14400000000000546,
          "durationTicks": 144,
          "midi": 53,
          "name": "F3",
          "ticks": 142210,
          "time": 142.20999999999998,
          "velocity": 1
        },
        {
          "duration": 0.14400000000000546,
          "durationTicks": 144,
          "midi": 49,
          "name": "C#3",
          "ticks": 144086,
          "time": 144.08599999999998,
          "velocity": 1
        },
        {
          "duration": 0.14400000000000546,
          "durationTicks": 144,
          "midi": 53,
          "name": "F3",
          "ticks": 144230,
          "time": 144.23,
          "velocity": 1
        },
        {
          "duration": 0.14400000000000546,
          "durationTicks": 144,
          "midi": 49,
          "name": "C#3",
          "ticks": 144374,
          "time": 144.374,
          "velocity": 1
        },
        {
          "duration": 0.14400000000000546,
          "durationTicks": 144,
          "midi": 53,
          "name": "F3",
          "ticks": 144518,
          "time": 144.518,
          "velocity": 1
        },
        {
          "duration": 0.14400000000000546,
          "durationTicks": 144,
          "midi": 49,
          "name": "C#3",
          "ticks": 146394,
          "time": 146.394,
          "velocity": 1
        },
        {
          "duration": 0.14399999999997704,
          "durationTicks": 144,
          "midi": 53,
          "name": "F3",
          "ticks": 146538,
          "time": 146.538,
          "velocity": 1
        },
        {
          "duration": 0.14400000000000546,
          "durationTicks": 144,
          "midi": 49,
          "name": "C#3",
          "ticks": 146682,
          "time": 146.682,
          "velocity": 1
        },
        {
          "duration": 0.14400000000000546,
          "durationTicks": 144,
          "midi": 53,
          "name": "F3",
          "ticks": 146826,
          "time": 146.826,
          "velocity": 1
        },
        {
          "duration": 0.14399999999997704,
          "durationTicks": 144,
          "midi": 49,
          "name": "C#3",
          "ticks": 148700,
          "time": 148.70000000000002,
          "velocity": 1
        },
        {
          "duration": 0.14399999999997704,
          "durationTicks": 144,
          "midi": 53,
          "name": "F3",
          "ticks": 148846,
          "time": 148.846,
          "velocity": 1
        },
        {
          "duration": 0.14400000000000546,
          "durationTicks": 144,
          "midi": 49,
          "name": "C#3",
          "ticks": 148990,
          "time": 148.98999999999998,
          "velocity": 1
        },
        {
          "duration": 0.14400000000000546,
          "durationTicks": 144,
          "midi": 53,
          "name": "F3",
          "ticks": 149134,
          "time": 149.134,
          "velocity": 1
        },
        {
          "duration": 0.14399999999997704,
          "durationTicks": 144,
          "midi": 49,
          "name": "C#3",
          "ticks": 151008,
          "time": 151.008,
          "velocity": 1
        },
        {
          "duration": 0.14400000000000546,
          "durationTicks": 144,
          "midi": 53,
          "name": "F3",
          "ticks": 151152,
          "time": 151.152,
          "velocity": 1
        },
        {
          "duration": 0.14400000000000546,
          "durationTicks": 144,
          "midi": 49,
          "name": "C#3",
          "ticks": 151298,
          "time": 151.29799999999997,
          "velocity": 1
        },
        {
          "duration": 0.14400000000000546,
          "durationTicks": 144,
          "midi": 53,
          "name": "F3",
          "ticks": 151442,
          "time": 151.44199999999998,
          "velocity": 1
        },
        {
          "duration": 0.14399999999997704,
          "durationTicks": 144,
          "midi": 49,
          "name": "C#3",
          "ticks": 153316,
          "time": 153.316,
          "velocity": 1
        },
        {
          "duration": 0.14400000000000546,
          "durationTicks": 144,
          "midi": 53,
          "name": "F3",
          "ticks": 153460,
          "time": 153.45999999999998,
          "velocity": 1
        },
        {
          "duration": 0.14400000000000546,
          "durationTicks": 144,
          "midi": 49,
          "name": "C#3",
          "ticks": 153604,
          "time": 153.60399999999998,
          "velocity": 1
        },
        {
          "duration": 0.14400000000000546,
          "durationTicks": 144,
          "midi": 53,
          "name": "F3",
          "ticks": 153750,
          "time": 153.75,
          "velocity": 1
        },
        {
          "duration": 0.14400000000000546,
          "durationTicks": 144,
          "midi": 49,
          "name": "C#3",
          "ticks": 155624,
          "time": 155.624,
          "velocity": 1
        },
        {
          "duration": 0.14400000000000546,
          "durationTicks": 144,
          "midi": 53,
          "name": "F3",
          "ticks": 155768,
          "time": 155.768,
          "velocity": 1
        },
        {
          "duration": 0.14400000000000546,
          "durationTicks": 144,
          "midi": 49,
          "name": "C#3",
          "ticks": 155912,
          "time": 155.912,
          "velocity": 1
        },
        {
          "duration": 0.14400000000000546,
          "durationTicks": 144,
          "midi": 53,
          "name": "F3",
          "ticks": 156056,
          "time": 156.056,
          "velocity": 1
        }
      ]
    },
    {
      "channel": 0,
      "controlChanges": {},
      "pitchBends": [],
      "instrument": {
        "family": "piano",
        "number": 0,
        "name": "acoustic grand piano"
      },
      "name": "忍者_爱给网_aigei_com",
      "notes": [],
      "endOfTrackTicks": 157440
    },
    {
      "channel": 11,
      "controlChanges": {
        "7": [
          {
            "number": 7,
            "ticks": 0,
            "time": 0,
            "value": 1
          }
        ],
        "10": [
          {
            "number": 10,
            "ticks": 0,
            "time": 0,
            "value": 0.5826771653543307
          }
        ]
      },
      "pitchBends": [],
      "instrument": {
        "family": "pipe",
        "number": 77,
        "name": "shakuhachi"
      },
      "name": "",
      "notes": [
        {
          "duration": 0.07199999999998852,
          "durationTicks": 72,
          "midi": 64,
          "name": "E4",
          "ticks": 64614,
          "time": 64.614,
          "velocity": 1
        },
        {
          "duration": 0.07200000000000273,
          "durationTicks": 72,
          "midi": 69,
          "name": "A4",
          "ticks": 64686,
          "time": 64.68599999999999,
          "velocity": 1
        },
        {
          "duration": 1.5859999999999985,
          "durationTicks": 1586,
          "midi": 76,
          "name": "E5",
          "ticks": 64758,
          "time": 64.758,
          "velocity": 1
        },
        {
          "duration": 0.5759999999999934,
          "durationTicks": 576,
          "midi": 69,
          "name": "A4",
          "ticks": 66346,
          "time": 66.346,
          "velocity": 1
        },
        {
          "duration": 0.8640000000000043,
          "durationTicks": 864,
          "midi": 71,
          "name": "B4",
          "ticks": 66922,
          "time": 66.922,
          "velocity": 1
        },
        {
          "duration": 0.2879999999999967,
          "durationTicks": 288,
          "midi": 72,
          "name": "C5",
          "ticks": 67788,
          "time": 67.788,
          "velocity": 1
        },
        {
          "duration": 0.5760000000000076,
          "durationTicks": 576,
          "midi": 71,
          "name": "B4",
          "ticks": 68076,
          "time": 68.076,
          "velocity": 1
        },
        {
          "duration": 0.5759999999999934,
          "durationTicks": 576,
          "midi": 64,
          "name": "E4",
          "ticks": 68652,
          "time": 68.652,
          "velocity": 1
        },
        {
          "duration": 0.07200000000000273,
          "durationTicks": 72,
          "midi": 64,
          "name": "E4",
          "ticks": 69230,
          "time": 69.22999999999999,
          "velocity": 1
        },
        {
          "duration": 0.07200000000000273,
          "durationTicks": 72,
          "midi": 69,
          "name": "A4",
          "ticks": 69302,
          "time": 69.30199999999999,
          "velocity": 1
        },
        {
          "duration": 1.5860000000000127,
          "durationTicks": 1586,
          "midi": 76,
          "name": "E5",
          "ticks": 69374,
          "time": 69.374,
          "velocity": 1
        },
        {
          "duration": 0.5759999999999934,
          "durationTicks": 576,
          "midi": 69,
          "name": "A4",
          "ticks": 70960,
          "time": 70.96000000000001,
          "velocity": 1
        },
        {
          "duration": 0.8640000000000043,
          "durationTicks": 864,
          "midi": 71,
          "name": "B4",
          "ticks": 71538,
          "time": 71.538,
          "velocity": 1
        },
        {
          "duration": 0.2879999999999967,
          "durationTicks": 288,
          "midi": 72,
          "name": "C5",
          "ticks": 72402,
          "time": 72.402,
          "velocity": 1
        },
        {
          "duration": 0.5760000000000076,
          "durationTicks": 576,
          "midi": 71,
          "name": "B4",
          "ticks": 72692,
          "time": 72.692,
          "velocity": 1
        },
        {
          "duration": 0.5759999999999934,
          "durationTicks": 576,
          "midi": 76,
          "name": "E5",
          "ticks": 73268,
          "time": 73.268,
          "velocity": 1
        },
        {
          "duration": 0.2880000000000109,
          "durationTicks": 288,
          "midi": 76,
          "name": "E5",
          "ticks": 73846,
          "time": 73.84599999999999,
          "velocity": 1
        },
        {
          "duration": 0.2879999999999967,
          "durationTicks": 288,
          "midi": 69,
          "name": "A4",
          "ticks": 74134,
          "time": 74.134,
          "velocity": 1
        },
        {
          "duration": 0.2880000000000109,
          "durationTicks": 288,
          "midi": 76,
          "name": "E5",
          "ticks": 74422,
          "time": 74.422,
          "velocity": 1
        },
        {
          "duration": 0.2879999999999967,
          "durationTicks": 288,
          "midi": 69,
          "name": "A4",
          "ticks": 74710,
          "time": 74.71000000000001,
          "velocity": 1
        },
        {
          "duration": 0.5759999999999934,
          "durationTicks": 576,
          "midi": 76,
          "name": "E5",
          "ticks": 75000,
          "time": 75,
          "velocity": 1
        },
        {
          "duration": 0.2880000000000109,
          "durationTicks": 288,
          "midi": 74,
          "name": "D5",
          "ticks": 75576,
          "time": 75.576,
          "velocity": 1
        },
        {
          "duration": 0.2879999999999967,
          "durationTicks": 288,
          "midi": 76,
          "name": "E5",
          "ticks": 75864,
          "time": 75.864,
          "velocity": 1
        },
        {
          "duration": 0.8639999999999901,
          "durationTicks": 864,
          "midi": 79,
          "name": "G5",
          "ticks": 76152,
          "time": 76.152,
          "velocity": 1
        },
        {
          "duration": 0.2879999999999967,
          "durationTicks": 288,
          "midi": 81,
          "name": "A5",
          "ticks": 77018,
          "time": 77.018,
          "velocity": 1
        },
        {
          "duration": 1.152000000000001,
          "durationTicks": 1152,
          "midi": 76,
          "name": "E5",
          "ticks": 77306,
          "time": 77.306,
          "velocity": 1
        },
        {
          "duration": 0.2879999999999967,
          "durationTicks": 288,
          "midi": 76,
          "name": "E5",
          "ticks": 78460,
          "time": 78.46000000000001,
          "velocity": 1
        },
        {
          "duration": 0.2879999999999967,
          "durationTicks": 288,
          "midi": 69,
          "name": "A4",
          "ticks": 78750,
          "time": 78.75,
          "velocity": 1
        },
        {
          "duration": 0.2879999999999967,
          "durationTicks": 288,
          "midi": 76,
          "name": "E5",
          "ticks": 79038,
          "time": 79.038,
          "velocity": 1
        },
        {
          "duration": 0.2880000000000109,
          "durationTicks": 288,
          "midi": 69,
          "name": "A4",
          "ticks": 79326,
          "time": 79.326,
          "velocity": 1
        },
        {
          "duration": 0.5759999999999934,
          "durationTicks": 576,
          "midi": 76,
          "name": "E5",
          "ticks": 79614,
          "time": 79.614,
          "velocity": 1
        },
        {
          "duration": 0.2879999999999967,
          "durationTicks": 288,
          "midi": 74,
          "name": "D5",
          "ticks": 80192,
          "time": 80.192,
          "velocity": 1
        },
        {
          "duration": 0.2880000000000109,
          "durationTicks": 288,
          "midi": 76,
          "name": "E5",
          "ticks": 80480,
          "time": 80.47999999999999,
          "velocity": 1
        },
        {
          "duration": 0.8639999999999901,
          "durationTicks": 864,
          "midi": 79,
          "name": "G5",
          "ticks": 80768,
          "time": 80.768,
          "velocity": 1
        },
        {
          "duration": 0.2879999999999967,
          "durationTicks": 288,
          "midi": 81,
          "name": "A5",
          "ticks": 81634,
          "time": 81.634,
          "velocity": 1
        },
        {
          "duration": 0.14400000000000546,
          "durationTicks": 144,
          "midi": 76,
          "name": "E5",
          "ticks": 81922,
          "time": 81.922,
          "velocity": 1
        },
        {
          "duration": 0.14400000000000546,
          "durationTicks": 144,
          "midi": 75,
          "name": "D#5",
          "ticks": 82066,
          "time": 82.066,
          "velocity": 1
        },
        {
          "duration": 0.14399999999999125,
          "durationTicks": 144,
          "midi": 72,
          "name": "C5",
          "ticks": 82210,
          "time": 82.21000000000001,
          "velocity": 1
        },
        {
          "duration": 0.14400000000000546,
          "durationTicks": 144,
          "midi": 71,
          "name": "B4",
          "ticks": 82354,
          "time": 82.354,
          "velocity": 1
        },
        {
          "duration": 0.14400000000000546,
          "durationTicks": 144,
          "midi": 69,
          "name": "A4",
          "ticks": 82500,
          "time": 82.5,
          "velocity": 1
        },
        {
          "duration": 0.14399999999999125,
          "durationTicks": 144,
          "midi": 68,
          "name": "G#4",
          "ticks": 82644,
          "time": 82.644,
          "velocity": 1
        },
        {
          "duration": 0.14400000000000546,
          "durationTicks": 144,
          "midi": 65,
          "name": "F4",
          "ticks": 82788,
          "time": 82.788,
          "velocity": 1
        },
        {
          "duration": 0.14399999999999125,
          "durationTicks": 144,
          "midi": 64,
          "name": "E4",
          "ticks": 82932,
          "time": 82.932,
          "velocity": 1
        }
      ]
    },
    {
      "channel": 0,
      "controlChanges": {},
      "pitchBends": [],
      "instrument": {
        "family": "piano",
        "number": 0,
        "name": "acoustic grand piano"
      },
      "name": "忍者_爱给网_aigei_com",
      "notes": [],
      "endOfTrackTicks": 157440
    },
    {
      "channel": 12,
      "controlChanges": {
        "7": [
          {
            "number": 7,
            "ticks": 0,
            "time": 0,
            "value": 1
          }
        ],
        "10": [
          {
            "number": 10,
            "ticks": 0,
            "time": 0,
            "value": 0.4251968503937008
          }
        ]
      },
      "pitchBends": [],
      "instrument": {
        "family": "organ",
        "number": 19,
        "name": "church organ"
      },
      "name": "",
      "notes": [
        {
          "duration": 1.1519999999999868,
          "durationTicks": 1152,
          "midi": 69,
          "name": "A4",
          "ticks": 64614,
          "time": 64.614,
          "velocity": 1
        },
        {
          "duration": 1.1519999999999868,
          "durationTicks": 1152,
          "midi": 71,
          "name": "B4",
          "ticks": 65768,
          "time": 65.768,
          "velocity": 1
        },
        {
          "duration": 1.152000000000001,
          "durationTicks": 1152,
          "midi": 69,
          "name": "A4",
          "ticks": 66922,
          "time": 66.922,
          "velocity": 1
        },
        {
          "duration": 1.152000000000001,
          "durationTicks": 1152,
          "midi": 71,
          "name": "B4",
          "ticks": 68076,
          "time": 68.076,
          "velocity": 1
        },
        {
          "duration": 1.152000000000001,
          "durationTicks": 1152,
          "midi": 69,
          "name": "A4",
          "ticks": 69230,
          "time": 69.22999999999999,
          "velocity": 1
        },
        {
          "duration": 1.152000000000001,
          "durationTicks": 1152,
          "midi": 71,
          "name": "B4",
          "ticks": 70384,
          "time": 70.384,
          "velocity": 1
        },
        {
          "duration": 1.152000000000001,
          "durationTicks": 1152,
          "midi": 69,
          "name": "A4",
          "ticks": 71538,
          "time": 71.538,
          "velocity": 1
        },
        {
          "duration": 0.5760000000000076,
          "durationTicks": 576,
          "midi": 74,
          "name": "D5",
          "ticks": 72692,
          "time": 72.692,
          "velocity": 1
        },
        {
          "duration": 0.5759999999999934,
          "durationTicks": 576,
          "midi": 64,
          "name": "E4",
          "ticks": 73268,
          "time": 73.268,
          "velocity": 1
        },
        {
          "duration": 1.1520000000000152,
          "durationTicks": 1152,
          "midi": 69,
          "name": "A4",
          "ticks": 73846,
          "time": 73.84599999999999,
          "velocity": 1
        },
        {
          "duration": 1.152000000000001,
          "durationTicks": 1152,
          "midi": 71,
          "name": "B4",
          "ticks": 75000,
          "time": 75,
          "velocity": 1
        },
        {
          "duration": 1.152000000000001,
          "durationTicks": 1152,
          "midi": 69,
          "name": "A4",
          "ticks": 76152,
          "time": 76.152,
          "velocity": 1
        },
        {
          "duration": 1.152000000000001,
          "durationTicks": 1152,
          "midi": 71,
          "name": "B4",
          "ticks": 77306,
          "time": 77.306,
          "velocity": 1
        },
        {
          "duration": 1.1519999999999868,
          "durationTicks": 1152,
          "midi": 69,
          "name": "A4",
          "ticks": 78460,
          "time": 78.46000000000001,
          "velocity": 1
        },
        {
          "duration": 1.1519999999999868,
          "durationTicks": 1152,
          "midi": 71,
          "name": "B4",
          "ticks": 79614,
          "time": 79.614,
          "velocity": 1
        },
        {
          "duration": 1.1519999999999868,
          "durationTicks": 1152,
          "midi": 69,
          "name": "A4",
          "ticks": 80768,
          "time": 80.768,
          "velocity": 1
        },
        {
          "duration": 0.5760000000000076,
          "durationTicks": 576,
          "midi": 74,
          "name": "D5",
          "ticks": 81922,
          "time": 81.922,
          "velocity": 1
        },
        {
          "duration": 0.5759999999999934,
          "durationTicks": 576,
          "midi": 64,
          "name": "E4",
          "ticks": 82500,
          "time": 82.5,
          "velocity": 1
        }
      ]
    },
    {
      "channel": 0,
      "controlChanges": {},
      "pitchBends": [],
      "instrument": {
        "family": "piano",
        "number": 0,
        "name": "acoustic grand piano"
      },
      "name": "忍者_爱给网_aigei_com",
      "notes": [],
      "endOfTrackTicks": 157440
    },
    {
      "channel": 13,
      "controlChanges": {
        "7": [
          {
            "number": 7,
            "ticks": 0,
            "time": 0,
            "value": 1
          }
        ]
      },
      "pitchBends": [],
      "instrument": {
        "family": "strings",
        "number": 42,
        "name": "cello"
      },
      "name": "",
      "notes": [
        {
          "duration": 1.1520000000000152,
          "durationTicks": 1152,
          "midi": 69,
          "name": "A4",
          "ticks": 73846,
          "time": 73.84599999999999,
          "velocity": 1
        },
        {
          "duration": 1.152000000000001,
          "durationTicks": 1152,
          "midi": 71,
          "name": "B4",
          "ticks": 75000,
          "time": 75,
          "velocity": 1
        },
        {
          "duration": 1.152000000000001,
          "durationTicks": 1152,
          "midi": 74,
          "name": "D5",
          "ticks": 76152,
          "time": 76.152,
          "velocity": 1
        },
        {
          "duration": 1.152000000000001,
          "durationTicks": 1152,
          "midi": 76,
          "name": "E5",
          "ticks": 77306,
          "time": 77.306,
          "velocity": 1
        },
        {
          "duration": 1.1519999999999868,
          "durationTicks": 1152,
          "midi": 69,
          "name": "A4",
          "ticks": 78460,
          "time": 78.46000000000001,
          "velocity": 1
        },
        {
          "duration": 1.1519999999999868,
          "durationTicks": 1152,
          "midi": 71,
          "name": "B4",
          "ticks": 79614,
          "time": 79.614,
          "velocity": 1
        },
        {
          "duration": 1.1519999999999868,
          "durationTicks": 1152,
          "midi": 74,
          "name": "D5",
          "ticks": 80768,
          "time": 80.768,
          "velocity": 1
        },
        {
          "duration": 1.152000000000001,
          "durationTicks": 1152,
          "midi": 76,
          "name": "E5",
          "ticks": 81922,
          "time": 81.922,
          "velocity": 1
        }
      ]
    }
  ]
}