{
  "header": {
    "keySignatures": [
      {
        "key": "C",
        "scale": "major",
        "ticks": 0
      }
    ],
    "meta": [],
    "name": "room+balled",
    "ppq": 480,
    "tempos": [
      {
        "bpm": 150.9844184080203,
        "ticks": 0
      }
    ],
    "timeSignatures": [
      {
        "ticks": 0,
        "timeSignature": [
          4,
          4
        ],
        "measures": 0
      }
    ]
  },
  "tracks": [
    {
      "channel": 0,
      "controlChanges": {
        "64": [
          {
            "number": 64,
            "ticks": 2647,
            "time": 2.1914512999999998,
            "value": 1
          },
          {
            "number": 64,
            "ticks": 3106,
            "time": 2.5714574,
            "value": 0
          },
          {
            "number": 64,
            "ticks": 3806,
            "time": 3.1509873999999995,
            "value": 1
          },
          {
            "number": 64,
            "ticks": 4676,
            "time": 3.8712603999999997,
            "value": 0
          },
          {
            "number": 64,
            "ticks": 6446,
            "time": 5.3366434,
            "value": 1
          },
          {
            "number": 64,
            "ticks": 7111,
            "time": 5.887196899999999,
            "value": 0
          },
          {
            "number": 64,
            "ticks": 9720,
            "time": 8.047187999999998,
            "value": 1
          },
          {
            "number": 64,
            "ticks": 9831,
            "time": 8.139084899999999,
            "value": 0
          },
          {
            "number": 64,
            "ticks": 11277,
            "time": 9.336228299999998,
            "value": 1
          },
          {
            "number": 64,
            "ticks": 11874,
            "time": 9.8304846,
            "value": 0
          },
          {
            "number": 64,
            "ticks": 12963,
            "time": 10.7320677,
            "value": 1
          },
          {
            "number": 64,
            "ticks": 17619,
            "time": 14.586770099999997,
            "value": 0
          },
          {
            "number": 64,
            "ticks": 17977,
            "time": 14.8831583,
            "value": 1
          },
          {
            "number": 64,
            "ticks": 19727,
            "time": 16.3319833,
            "value": 0
          },
          {
            "number": 64,
            "ticks": 19850,
            "time": 16.433815,
            "value": 1
          },
          {
            "number": 64,
            "ticks": 20690,
            "time": 17.129250999999996,
            "value": 0
          },
          {
            "number": 64,
            "ticks": 20748,
            "time": 17.177269199999998,
            "value": 1
          },
          {
            "number": 64,
            "ticks": 22202,
            "time": 18.3810358,
            "value": 0
          },
          {
            "number": 64,
            "ticks": 22235,
            "time": 18.408356499999996,
            "value": 1
          },
          {
            "number": 64,
            "ticks": 23727,
            "time": 19.6435833,
            "value": 0
          },
          {
            "number": 64,
            "ticks": 23917,
            "time": 19.8008843,
            "value": 1
          },
          {
            "number": 64,
            "ticks": 33551,
            "time": 27.776872899999994,
            "value": 0
          }
        ]
      },
      "pitchBends": [],
      "instrument": {
        "family": "piano",
        "number": 0,
        "name": "acoustic grand piano"
      },
      "name": "room+balled.mp3(1)",
      "notes": [
        {
          "duration": 0.1837937999999999,
          "durationTicks": 222,
          "midi": 69,
          "name": "A4",
          "ticks": 1440,
          "time": 1.192176,
          "velocity": 0.41732283464566927
        },
        {
          "duration": 0.13825930000000008,
          "durationTicks": 167,
          "midi": 70,
          "name": "A#4",
          "ticks": 1620,
          "time": 1.341198,
          "velocity": 0.5196850393700787
        },
        {
          "duration": 0.13825930000000008,
          "durationTicks": 167,
          "midi": 71,
          "name": "B4",
          "ticks": 1740,
          "time": 1.4405459999999999,
          "velocity": 0.6141732283464567
        },
        {
          "duration": 0.09106900000000007,
          "durationTicks": 110,
          "midi": 72,
          "name": "C5",
          "ticks": 1860,
          "time": 1.5398939999999999,
          "velocity": 0.5984251968503937
        },
        {
          "duration": 1.8246916,
          "durationTicks": 2204,
          "midi": 73,
          "name": "C#5",
          "ticks": 1980,
          "time": 1.6392419999999999,
          "velocity": 0.7244094488188977
        },
        {
          "duration": 3.2875908999999996,
          "durationTicks": 3971,
          "midi": 54,
          "name": "F#3",
          "ticks": 2640,
          "time": 2.185656,
          "velocity": 0.47244094488188976
        },
        {
          "duration": 3.2710329,
          "durationTicks": 3951,
          "midi": 58,
          "name": "A#3",
          "ticks": 2640,
          "time": 2.185656,
          "velocity": 0.4566929133858268
        },
        {
          "duration": 3.2751723999999998,
          "durationTicks": 3956,
          "midi": 60,
          "name": "C4",
          "ticks": 2640,
          "time": 2.185656,
          "velocity": 0.49606299212598426
        },
        {
          "duration": 4.6867418999999995,
          "durationTicks": 5661,
          "midi": 65,
          "name": "F4",
          "ticks": 2640,
          "time": 2.185656,
          "velocity": 0.44881889763779526
        },
        {
          "duration": 0.18048220000000015,
          "durationTicks": 218,
          "midi": 75,
          "name": "D#5",
          "ticks": 4140,
          "time": 3.4275059999999997,
          "velocity": 0.7322834645669292
        },
        {
          "duration": 0.587809,
          "durationTicks": 710,
          "midi": 73,
          "name": "C#5",
          "ticks": 4800,
          "time": 3.9739199999999997,
          "velocity": 0.5826771653543307
        },
        {
          "duration": 0.7616680000000002,
          "durationTicks": 920,
          "midi": 72,
          "name": "C5",
          "ticks": 5580,
          "time": 4.619681999999999,
          "velocity": 0.4881889763779528
        },
        {
          "duration": 0.08444580000000101,
          "durationTicks": 102,
          "midi": 70,
          "name": "A#4",
          "ticks": 6540,
          "time": 5.414465999999999,
          "velocity": 0.5039370078740157
        },
        {
          "duration": 0.10100379999999998,
          "durationTicks": 122,
          "midi": 72,
          "name": "C5",
          "ticks": 6720,
          "time": 5.5634879999999995,
          "velocity": 0.5511811023622047
        },
        {
          "duration": 0.1200454999999998,
          "durationTicks": 145,
          "midi": 70,
          "name": "A#4",
          "ticks": 6840,
          "time": 5.6628359999999995,
          "velocity": 0.49606299212598426
        },
        {
          "duration": 0.1200454999999998,
          "durationTicks": 145,
          "midi": 69,
          "name": "A4",
          "ticks": 6960,
          "time": 5.7621839999999995,
          "velocity": 0.5826771653543307
        },
        {
          "duration": 1.2393662999999986,
          "durationTicks": 1497,
          "midi": 70,
          "name": "A#4",
          "ticks": 7140,
          "time": 5.911206,
          "velocity": 0.5905511811023622
        },
        {
          "duration": 3.1269782999999993,
          "durationTicks": 3777,
          "midi": 55,
          "name": "G3",
          "ticks": 7680,
          "time": 6.3582719999999995,
          "velocity": 0.5118110236220472
        },
        {
          "duration": 2.6467963,
          "durationTicks": 3197,
          "midi": 58,
          "name": "A#3",
          "ticks": 8220,
          "time": 6.805337999999999,
          "velocity": 0.5118110236220472
        },
        {
          "duration": 2.6376893999999993,
          "durationTicks": 3186,
          "midi": 62,
          "name": "D4",
          "ticks": 8220,
          "time": 6.805337999999999,
          "velocity": 0.48031496062992124
        },
        {
          "duration": 2.6534195,
          "durationTicks": 3205,
          "midi": 66,
          "name": "F#4",
          "ticks": 8220,
          "time": 6.805337999999999,
          "velocity": 0.47244094488188976
        },
        {
          "duration": 0.5157816999999998,
          "durationTicks": 623,
          "midi": 72,
          "name": "C5",
          "ticks": 9300,
          "time": 7.69947,
          "velocity": 0.49606299212598426
        },
        {
          "duration": 0.6035391000000008,
          "durationTicks": 729,
          "midi": 73,
          "name": "C#5",
          "ticks": 9840,
          "time": 8.146536,
          "velocity": 0.6771653543307087
        },
        {
          "duration": 0.6863291,
          "durationTicks": 829,
          "midi": 72,
          "name": "C5",
          "ticks": 10560,
          "time": 8.742624,
          "velocity": 0.5433070866141733
        },
        {
          "duration": 0.25416530000000037,
          "durationTicks": 307,
          "midi": 70,
          "name": "A#4",
          "ticks": 11340,
          "time": 9.388385999999999,
          "velocity": 0.5984251968503937
        },
        {
          "duration": 0.2591327000000003,
          "durationTicks": 313,
          "midi": 68,
          "name": "G#4",
          "ticks": 11640,
          "time": 9.636755999999998,
          "velocity": 0.6062992125984252
        },
        {
          "duration": 3.7031966999999995,
          "durationTicks": 4473,
          "midi": 64,
          "name": "E4",
          "ticks": 12000,
          "time": 9.9348,
          "velocity": 0.5669291338582677
        },
        {
          "duration": 3.844767599999999,
          "durationTicks": 4644,
          "midi": 42,
          "name": "F#2",
          "ticks": 12480,
          "time": 10.332192,
          "velocity": 0.5669291338582677
        },
        {
          "duration": 3.1071086999999995,
          "durationTicks": 3753,
          "midi": 54,
          "name": "F#3",
          "ticks": 13380,
          "time": 11.077302,
          "velocity": 0.4645669291338583
        },
        {
          "duration": 3.1104202999999995,
          "durationTicks": 3757,
          "midi": 58,
          "name": "A#3",
          "ticks": 13380,
          "time": 11.077302,
          "velocity": 0.5275590551181102
        },
        {
          "duration": 3.1104202999999995,
          "durationTicks": 3757,
          "midi": 60,
          "name": "C4",
          "ticks": 13380,
          "time": 11.077302,
          "velocity": 0.5118110236220472
        },
        {
          "duration": 2.6451405,
          "durationTicks": 3195,
          "midi": 88,
          "name": "E6",
          "ticks": 13920,
          "time": 11.524367999999999,
          "velocity": 0.4881889763779528
        },
        {
          "duration": 2.4108448000000013,
          "durationTicks": 2912,
          "midi": 87,
          "name": "D#6",
          "ticks": 14220,
          "time": 11.772737999999999,
          "velocity": 0.6299212598425197
        },
        {
          "duration": 2.2204277999999995,
          "durationTicks": 2682,
          "midi": 85,
          "name": "C#6",
          "ticks": 14460,
          "time": 11.971433999999999,
          "velocity": 0.6062992125984252
        },
        {
          "duration": 2.0531919999999992,
          "durationTicks": 2480,
          "midi": 84,
          "name": "C6",
          "ticks": 14640,
          "time": 12.120455999999999,
          "velocity": 0.6456692913385826
        },
        {
          "duration": 1.887611999999999,
          "durationTicks": 2280,
          "midi": 82,
          "name": "A#5",
          "ticks": 14820,
          "time": 12.269478,
          "velocity": 0.6692913385826772
        },
        {
          "duration": 1.7551480000000002,
          "durationTicks": 2120,
          "midi": 80,
          "name": "G#5",
          "ticks": 15000,
          "time": 12.418499999999998,
          "velocity": 0.6850393700787402
        },
        {
          "duration": 1.6243397999999996,
          "durationTicks": 1962,
          "midi": 78,
          "name": "F#5",
          "ticks": 15180,
          "time": 12.567521999999999,
          "velocity": 0.6850393700787402
        },
        {
          "duration": 1.485252599999999,
          "durationTicks": 1794,
          "midi": 76,
          "name": "E5",
          "ticks": 15360,
          "time": 12.716543999999999,
          "velocity": 0.6535433070866141
        },
        {
          "duration": 1.3403700999999995,
          "durationTicks": 1619,
          "midi": 75,
          "name": "D#5",
          "ticks": 15540,
          "time": 12.865566,
          "velocity": 0.6141732283464567
        },
        {
          "duration": 1.2194967000000005,
          "durationTicks": 1473,
          "midi": 73,
          "name": "C#5",
          "ticks": 15660,
          "time": 12.964913999999998,
          "velocity": 0.6456692913385826
        },
        {
          "duration": 1.0820653000000018,
          "durationTicks": 1307,
          "midi": 72,
          "name": "C5",
          "ticks": 15840,
          "time": 13.113935999999999,
          "velocity": 0.5354330708661418
        },
        {
          "duration": 0.9628477000000011,
          "durationTicks": 1163,
          "midi": 70,
          "name": "A#4",
          "ticks": 15960,
          "time": 13.213283999999998,
          "velocity": 0.6535433070866141
        },
        {
          "duration": 0.44044280000000136,
          "durationTicks": 532,
          "midi": 68,
          "name": "G#4",
          "ticks": 16140,
          "time": 13.362305999999998,
          "velocity": 0.6377952755905512
        },
        {
          "duration": 0.7103382000000007,
          "durationTicks": 858,
          "midi": 66,
          "name": "F#4",
          "ticks": 16260,
          "time": 13.461654,
          "velocity": 0.5905511811023622
        },
        {
          "duration": 0.5480698000000022,
          "durationTicks": 662,
          "midi": 64,
          "name": "E4",
          "ticks": 16440,
          "time": 13.610675999999998,
          "velocity": 0.5905511811023622
        },
        {
          "duration": 2.1492283999999984,
          "durationTicks": 2596,
          "midi": 63,
          "name": "D#4",
          "ticks": 16680,
          "time": 13.809372,
          "velocity": 0.5748031496062992
        },
        {
          "duration": 0.3750386999999993,
          "durationTicks": 453,
          "midi": 68,
          "name": "G#4",
          "ticks": 16680,
          "time": 13.809372,
          "velocity": 0.4645669291338583
        },
        {
          "duration": 0.9901684,
          "durationTicks": 1196,
          "midi": 55,
          "name": "G3",
          "ticks": 18060,
          "time": 14.951873999999998,
          "velocity": 0.48031496062992124
        },
        {
          "duration": 0.8841972000000009,
          "durationTicks": 1068,
          "midi": 58,
          "name": "A#3",
          "ticks": 18180,
          "time": 15.051222,
          "velocity": 0.5354330708661418
        },
        {
          "duration": 0.8080303999999998,
          "durationTicks": 976,
          "midi": 67,
          "name": "G4",
          "ticks": 18300,
          "time": 15.150569999999998,
          "velocity": 0.6535433070866141
        },
        {
          "duration": 1.1689948000000001,
          "durationTicks": 1412,
          "midi": 51,
          "name": "D#3",
          "ticks": 18720,
          "time": 15.498287999999999,
          "velocity": 0.4330708661417323
        },
        {
          "duration": 0.42305689999999885,
          "durationTicks": 511,
          "midi": 56,
          "name": "G#3",
          "ticks": 18720,
          "time": 15.498287999999999,
          "velocity": 0.3858267716535433
        },
        {
          "duration": 0.4296800999999988,
          "durationTicks": 519,
          "midi": 60,
          "name": "C4",
          "ticks": 18720,
          "time": 15.498287999999999,
          "velocity": 0.3858267716535433
        },
        {
          "duration": 0.4354753999999996,
          "durationTicks": 526,
          "midi": 68,
          "name": "G#4",
          "ticks": 18720,
          "time": 15.498287999999999,
          "velocity": 0.5826771653543307
        },
        {
          "duration": 0.8254163000000005,
          "durationTicks": 997,
          "midi": 39,
          "name": "D#2",
          "ticks": 19200,
          "time": 15.895679999999999,
          "velocity": 0.47244094488188976
        },
        {
          "duration": 0.8254163000000005,
          "durationTicks": 997,
          "midi": 57,
          "name": "A3",
          "ticks": 19200,
          "time": 15.895679999999999,
          "velocity": 0.4881889763779528
        },
        {
          "duration": 0.365931800000002,
          "durationTicks": 442,
          "midi": 61,
          "name": "C#4",
          "ticks": 19200,
          "time": 15.895679999999999,
          "velocity": 0.47244094488188976
        },
        {
          "duration": 0.7997514000000017,
          "durationTicks": 966,
          "midi": 69,
          "name": "A4",
          "ticks": 19200,
          "time": 15.895679999999999,
          "velocity": 0.5748031496062992
        },
        {
          "duration": 0.4346475000000005,
          "durationTicks": 525,
          "midi": 58,
          "name": "A#3",
          "ticks": 19680,
          "time": 16.293072,
          "velocity": 0.5118110236220472
        },
        {
          "duration": 0.4553450000000012,
          "durationTicks": 550,
          "midi": 61,
          "name": "C#4",
          "ticks": 19680,
          "time": 16.293072,
          "velocity": 0.4881889763779528
        },
        {
          "duration": 0.4371311999999996,
          "durationTicks": 528,
          "midi": 70,
          "name": "A#4",
          "ticks": 19680,
          "time": 16.293072,
          "velocity": 0.5354330708661418
        },
        {
          "duration": 0.38745720000000006,
          "durationTicks": 468,
          "midi": 51,
          "name": "D#3",
          "ticks": 20160,
          "time": 16.690464,
          "velocity": 0.5511811023622047
        },
        {
          "duration": 2.3479244,
          "durationTicks": 2836,
          "midi": 60,
          "name": "C4",
          "ticks": 20160,
          "time": 16.690464,
          "velocity": 0.5905511811023622
        },
        {
          "duration": 0.8121699000000007,
          "durationTicks": 981,
          "midi": 63,
          "name": "D#4",
          "ticks": 20160,
          "time": 16.690464,
          "velocity": 0.5511811023622047
        },
        {
          "duration": 0.06705990000000028,
          "durationTicks": 81,
          "midi": 69,
          "name": "A4",
          "ticks": 20160,
          "time": 16.690464,
          "velocity": 0.5039370078740157
        },
        {
          "duration": 1.7601154,
          "durationTicks": 2126,
          "midi": 72,
          "name": "C5",
          "ticks": 20160,
          "time": 16.690464,
          "velocity": 0.5669291338582677
        },
        {
          "duration": 0.41891740000000155,
          "durationTicks": 506,
          "midi": 51,
          "name": "D#3",
          "ticks": 20640,
          "time": 17.087856,
          "velocity": 0.5590551181102362
        },
        {
          "duration": 2.1674422,
          "durationTicks": 2618,
          "midi": 61,
          "name": "C#4",
          "ticks": 20640,
          "time": 17.087856,
          "velocity": 0.5669291338582677
        },
        {
          "duration": 0.8734344999999983,
          "durationTicks": 1055,
          "midi": 65,
          "name": "F4",
          "ticks": 20640,
          "time": 17.087856,
          "velocity": 0.5590551181102362
        },
        {
          "duration": 2.177377,
          "durationTicks": 2630,
          "midi": 73,
          "name": "C#5",
          "ticks": 20640,
          "time": 17.087856,
          "velocity": 0.6377952755905512
        },
        {
          "duration": 0.9388386000000004,
          "durationTicks": 1134,
          "midi": 51,
          "name": "D#3",
          "ticks": 21180,
          "time": 17.534921999999998,
          "velocity": 0.5748031496062992
        },
        {
          "duration": 1.5365824000000003,
          "durationTicks": 1856,
          "midi": 63,
          "name": "D#4",
          "ticks": 21180,
          "time": 17.534921999999998,
          "velocity": 0.5984251968503937
        },
        {
          "duration": 1.7377621000000012,
          "durationTicks": 2099,
          "midi": 67,
          "name": "G4",
          "ticks": 21180,
          "time": 17.534921999999998,
          "velocity": 0.6220472440944882
        },
        {
          "duration": 1.7377621000000012,
          "durationTicks": 2099,
          "midi": 75,
          "name": "D#5",
          "ticks": 21180,
          "time": 17.534921999999998,
          "velocity": 0.6614173228346457
        },
        {
          "duration": 0.48432150000000007,
          "durationTicks": 585,
          "midi": 39,
          "name": "D#2",
          "ticks": 21720,
          "time": 17.981987999999998,
          "velocity": 0.5826771653543307
        },
        {
          "duration": 1.2824171,
          "durationTicks": 1549,
          "midi": 65,
          "name": "F4",
          "ticks": 21720,
          "time": 17.981987999999998,
          "velocity": 0.6141732283464567
        },
        {
          "duration": 0.4884610000000009,
          "durationTicks": 590,
          "midi": 68,
          "name": "G#4",
          "ticks": 21720,
          "time": 17.981987999999998,
          "velocity": 0.7165354330708661
        },
        {
          "duration": 1.3205005000000014,
          "durationTicks": 1595,
          "midi": 77,
          "name": "F5",
          "ticks": 21720,
          "time": 17.981987999999998,
          "velocity": 0.7007874015748031
        },
        {
          "duration": 0.7815376000000036,
          "durationTicks": 944,
          "midi": 39,
          "name": "D#2",
          "ticks": 22320,
          "time": 18.478727999999997,
          "velocity": 0.6141732283464567
        },
        {
          "duration": 0.7856771000000009,
          "durationTicks": 949,
          "midi": 51,
          "name": "D#3",
          "ticks": 22320,
          "time": 18.478727999999997,
          "velocity": 0.6299212598425197
        },
        {
          "duration": 0.7840213000000027,
          "durationTicks": 947,
          "midi": 68,
          "name": "G#4",
          "ticks": 22320,
          "time": 18.478727999999997,
          "velocity": 0.7322834645669292
        },
        {
          "duration": 0.5853253000000045,
          "durationTicks": 707,
          "midi": 72,
          "name": "C5",
          "ticks": 22320,
          "time": 18.478727999999997,
          "velocity": 0.6456692913385826
        },
        {
          "duration": 0.7889887000000009,
          "durationTicks": 953,
          "midi": 80,
          "name": "G#5",
          "ticks": 22320,
          "time": 18.478727999999997,
          "velocity": 0.7480314960629921
        },
        {
          "duration": 5.832555500000002,
          "durationTicks": 7045,
          "midi": 41,
          "name": "F2",
          "ticks": 22980,
          "time": 19.025142,
          "velocity": 0.4881889763779528
        },
        {
          "duration": 1.8437333000000002,
          "durationTicks": 2227,
          "midi": 69,
          "name": "A4",
          "ticks": 23040,
          "time": 19.074816,
          "velocity": 0.5275590551181102
        },
        {
          "duration": 1.0853769000000035,
          "durationTicks": 1311,
          "midi": 74,
          "name": "D5",
          "ticks": 23160,
          "time": 19.174163999999998,
          "velocity": 0.5669291338582677
        },
        {
          "duration": 2.0275271000000004,
          "durationTicks": 2449,
          "midi": 76,
          "name": "E5",
          "ticks": 23220,
          "time": 19.223837999999997,
          "velocity": 0.6850393700787402
        },
        {
          "duration": 0.6300318999999988,
          "durationTicks": 761,
          "midi": 29,
          "name": "F1",
          "ticks": 23279,
          "time": 19.2726841,
          "velocity": 0.6535433070866141
        },
        {
          "duration": 2.1368098999999994,
          "durationTicks": 2581,
          "midi": 81,
          "name": "A5",
          "ticks": 23340,
          "time": 19.323186,
          "velocity": 0.7401574803149606
        },
        {
          "duration": 5.8242765,
          "durationTicks": 7035,
          "midi": 57,
          "name": "A3",
          "ticks": 24480,
          "time": 20.266992,
          "velocity": 0.49606299212598426
        },
        {
          "duration": 5.826760199999995,
          "durationTicks": 7038,
          "midi": 62,
          "name": "D4",
          "ticks": 24780,
          "time": 20.515362,
          "velocity": 0.4645669291338583
        },
        {
          "duration": 5.815997500000002,
          "durationTicks": 7025,
          "midi": 64,
          "name": "E4",
          "ticks": 25020,
          "time": 20.714057999999998,
          "velocity": 0.5511811023622047
        },
        {
          "duration": 5.8176533,
          "durationTicks": 7027,
          "midi": 69,
          "name": "A4",
          "ticks": 25260,
          "time": 20.912754,
          "velocity": 0.5905511811023622
        },
        {
          "duration": 5.809374300000002,
          "durationTicks": 7017,
          "midi": 74,
          "name": "D5",
          "ticks": 25440,
          "time": 21.061776,
          "velocity": 0.6535433070866141
        },
        {
          "duration": 5.8077184999999965,
          "durationTicks": 7015,
          "midi": 76,
          "name": "E5",
          "ticks": 25680,
          "time": 21.260472,
          "velocity": 0.6771653543307087
        },
        {
          "duration": 5.8110301,
          "durationTicks": 7019,
          "midi": 81,
          "name": "A5",
          "ticks": 25860,
          "time": 21.409494,
          "velocity": 0.6929133858267716
        },
        {
          "duration": 1.4430297000000003,
          "durationTicks": 1743,
          "midi": 86,
          "name": "D6",
          "ticks": 26100,
          "time": 21.608189999999997,
          "velocity": 0.5826771653543307
        },
        {
          "duration": 1.2302593999999978,
          "durationTicks": 1486,
          "midi": 88,
          "name": "E6",
          "ticks": 26400,
          "time": 21.856559999999998,
          "velocity": 0.6614173228346457
        },
        {
          "duration": 5.3134622,
          "durationTicks": 6418,
          "midi": 93,
          "name": "A6",
          "ticks": 26640,
          "time": 22.055256,
          "velocity": 0.7086614173228346
        },
        {
          "duration": 0.7475936999999995,
          "durationTicks": 903,
          "midi": 98,
          "name": "D7",
          "ticks": 26940,
          "time": 22.303625999999998,
          "velocity": 0.6929133858267716
        },
        {
          "duration": 4.746350699999997,
          "durationTicks": 5733,
          "midi": 100,
          "name": "E7",
          "ticks": 27360,
          "time": 22.651343999999998,
          "velocity": 0.6771653543307087
        },
        {
          "duration": 4.324121699999996,
          "durationTicks": 5223,
          "midi": 91,
          "name": "G6",
          "ticks": 27840,
          "time": 23.048735999999998,
          "velocity": 0.6692913385826772
        },
        {
          "duration": 4.348958699999997,
          "durationTicks": 5253,
          "midi": 103,
          "name": "G7",
          "ticks": 27840,
          "time": 23.048735999999998,
          "velocity": 0.8267716535433071
        },
        {
          "duration": 4.287694100000003,
          "durationTicks": 5179,
          "midi": 86,
          "name": "D6",
          "ticks": 27900,
          "time": 23.098409999999998,
          "velocity": 0.5511811023622047
        },
        {
          "duration": 4.290177800000002,
          "durationTicks": 5182,
          "midi": 88,
          "name": "E6",
          "ticks": 27900,
          "time": 23.098409999999998,
          "velocity": 0.5984251968503937
        },
        {
          "duration": 4.302596300000001,
          "durationTicks": 5197,
          "midi": 98,
          "name": "D7",
          "ticks": 27900,
          "time": 23.098409999999998,
          "velocity": 0.5118110236220472
        },
        {
          "duration": 3.9399761000000026,
          "durationTicks": 4759,
          "midi": 79,
          "name": "G5",
          "ticks": 28320,
          "time": 23.446127999999998,
          "velocity": 0.5511811023622047
        },
        {
          "duration": 3.844767600000001,
          "durationTicks": 4644,
          "midi": 72,
          "name": "C5",
          "ticks": 28440,
          "time": 23.545475999999997,
          "velocity": 0.5118110236220472
        }
      ],
      "endOfTrackTicks": 52775
    }
  ]
}